<?xml version="1.0" encoding="UTF-8" standalone="no"?>
<!DOCTYPE svg PUBLIC "-//W3C//DTD SVG 1.1//EN"
 "http://www.w3.org/Graphics/SVG/1.1/DTD/svg11.dtd">
<!-- Generated by graphviz version 2.40.1 (20161225.0304)
 -->
<!-- Title: /home/runner/work/AliceO2/AliceO2/Detectors/TPC/reconstruction/src/DigitalCurrentClusterIntegrator.cxx Pages: 1 -->
<!--zoomable 699 -->
<svg id="main" version="1.1" xmlns="http://www.w3.org/2000/svg" xmlns:xlink="http://www.w3.org/1999/xlink" xml:space="preserve" onload="init(evt)">
<style type="text/css"><![CDATA[
.edge:hover path { stroke: red; }
.edge:hover polygon { stroke: red; fill: red; }
]]></style>
<script type="text/javascript"><![CDATA[
var edges = document.getElementsByTagName('g');
if (edges && edges.length) {
  for (var i=0;i<edges.length;i++) {
    if (edges[i].id.substr(0,4)=='edge') {
      edges[i].setAttribute('class','edge');
    }
  }
}
]]></script>
        <defs>
                <circle id="rim" cx="0" cy="0" r="7"/>
                <circle id="rim2" cx="0" cy="0" r="3.5"/>
                <g id="zoomPlus">
                        <use xlink:href="#rim" fill="#404040">
                                <set attributeName="fill" to="#808080" begin="zoomplus.mouseover" end="zoomplus.mouseout"/>
                        </use>
                        <path d="M-4,0h8M0,-4v8" fill="none" stroke="white" stroke-width="1.5" pointer-events="none"/>
                </g>
                <g id="zoomMin">
                        <use xlink:href="#rim" fill="#404040">
                                <set attributeName="fill" to="#808080" begin="zoomminus.mouseover" end="zoomminus.mouseout"/>
                        </use>
                        <path d="M-4,0h8" fill="none" stroke="white" stroke-width="1.5" pointer-events="none"/>
                </g>
                <g id="dirArrow">
                        <path fill="none" stroke="white" stroke-width="1.5" d="M0,-3.0v7 M-2.5,-0.5L0,-3.0L2.5,-0.5"/>
                </g>
               <g id="resetDef">
                       <use xlink:href="#rim2" fill="#404040">
                               <set attributeName="fill" to="#808080" begin="reset.mouseover" end="reset.mouseout"/>
                       </use>
               </g>
        </defs>

<script type="text/javascript">
var viewWidth = 2106;
var viewHeight = 699;
var sectionId = 'dynsection-0';
</script>
<script xlink:href="../../svgpan.js"/>
<svg id="graph" class="graph">
<g id="viewport">
<title>/home/runner/work/AliceO2/AliceO2/Detectors/TPC/reconstruction/src/DigitalCurrentClusterIntegrator.cxx</title>
<!-- Node0 -->
<g id="node1" class="node">
<title>Node0</title>
<polygon fill="#bfbfbf" stroke="#000000" points="1737.5,-638.5 1737.5,-690.5 1898.5,-690.5 1898.5,-638.5 1737.5,-638.5"/>
<text text-anchor="start" x="1745.5" y="-678.5" font-family="Helvetica,sans-Serif" font-size="10.00" fill="#000000">/home/runner/work/AliceO2</text>
<text text-anchor="start" x="1745.5" y="-667.5" font-family="Helvetica,sans-Serif" font-size="10.00" fill="#000000">/AliceO2/Detectors/TPC</text>
<text text-anchor="start" x="1745.5" y="-656.5" font-family="Helvetica,sans-Serif" font-size="10.00" fill="#000000">/reconstruction/src/DigitalCurrent</text>
<text text-anchor="middle" x="1818" y="-645.5" font-family="Helvetica,sans-Serif" font-size="10.00" fill="#000000">ClusterIntegrator.cxx</text>
</g>
<!-- Node1 -->
<g id="node2" class="node">
<title>Node1</title>
<g id="a_node2"><a xlink:href="../../db/d19/DigitalCurrentClusterIntegrator_8h.html" target="_top" xlink:title="Decoder to convert TPC ClusterHardware to ClusterNative. ">
<polygon fill="none" stroke="#000000" points="1751,-571.5 1751,-601.5 1885,-601.5 1885,-571.5 1751,-571.5"/>
<text text-anchor="start" x="1759" y="-589.5" font-family="Helvetica,sans-Serif" font-size="10.00" fill="#000000">TPCReconstruction/Digital</text>
<text text-anchor="middle" x="1818" y="-578.5" font-family="Helvetica,sans-Serif" font-size="10.00" fill="#000000">CurrentClusterIntegrator.h</text>
</a>
</g>
</g>
<!-- Node0&#45;&gt;Node1 -->
<g id="edge1" class="edge">
<title>Node0&#45;&gt;Node1</title>
<path fill="none" stroke="#191970" d="M1818,-638.0928C1818,-629.516 1818,-620.0289 1818,-611.5538"/>
<polygon fill="#191970" stroke="#191970" points="1821.5001,-611.5045 1818,-601.5046 1814.5001,-611.5046 1821.5001,-611.5045"/>
</g>
<!-- Node2 -->
<g id="node3" class="node">
<title>Node2</title>
<polygon fill="none" stroke="#bfbfbf" points="864,-403.5 864,-422.5 908,-422.5 908,-403.5 864,-403.5"/>
<text text-anchor="middle" x="886" y="-410.5" font-family="Helvetica,sans-Serif" font-size="10.00" fill="#000000">vector</text>
</g>
<!-- Node1&#45;&gt;Node2 -->
<g id="edge2" class="edge">
<title>Node1&#45;&gt;Node2</title>
<path fill="none" stroke="#191970" d="M1750.7635,-583.9999C1545.1689,-575.6564 935.4083,-545.459 879,-479 868.2,-466.2757 871.8621,-446.8218 877.0784,-432.3269"/>
<polygon fill="#191970" stroke="#191970" points="880.4222,-433.3968 880.9668,-422.8159 873.9428,-430.7477 880.4222,-433.3968"/>
</g>
<!-- Node3 -->
<g id="node4" class="node">
<title>Node3</title>
<polygon fill="none" stroke="#bfbfbf" points="1884,-515.5 1884,-534.5 1936,-534.5 1936,-515.5 1884,-515.5"/>
<text text-anchor="middle" x="1910" y="-522.5" font-family="Helvetica,sans-Serif" font-size="10.00" fill="#000000">memory</text>
</g>
<!-- Node1&#45;&gt;Node3 -->
<g id="edge3" class="edge">
<title>Node1&#45;&gt;Node3</title>
<path fill="none" stroke="#191970" d="M1840.7416,-571.2977C1854.7967,-561.9022 1872.783,-549.8787 1886.9036,-540.4395"/>
<polygon fill="#191970" stroke="#191970" points="1889.1759,-543.1305 1895.5444,-534.6633 1885.2857,-537.311 1889.1759,-543.1305"/>
</g>
<!-- Node4 -->
<g id="node5" class="node">
<title>Node4</title>
<g id="a_node5"><a xlink:href="../../de/dcd/ClusterNative_8h.html" target="_top" xlink:title="Class of a TPC cluster in TPC&#45;native coordinates (row, time) ">
<polygon fill="none" stroke="#000000" points="1856.5,-291.5 1856.5,-310.5 2021.5,-310.5 2021.5,-291.5 1856.5,-291.5"/>
<text text-anchor="middle" x="1939" y="-298.5" font-family="Helvetica,sans-Serif" font-size="10.00" fill="#000000">DataFormatsTPC/ClusterNative.h</text>
</a>
</g>
</g>
<!-- Node1&#45;&gt;Node4 -->
<g id="edge4" class="edge">
<title>Node1&#45;&gt;Node4</title>
<path fill="none" stroke="#191970" d="M1826.2454,-571.42C1837.4215,-549.5326 1856,-507.3768 1856,-469 1856,-469 1856,-469 1856,-413 1856,-372.0829 1892.2004,-336.3617 1916.7865,-316.8195"/>
<polygon fill="#191970" stroke="#191970" points="1919.1025,-319.4545 1924.9202,-310.5999 1914.8504,-313.8939 1919.1025,-319.4545"/>
</g>
<!-- Node8 -->
<g id="node9" class="node">
<title>Node8</title>
<g id="a_node9"><a xlink:href="../../d0/dda/DataFormats_2Detectors_2TPC_2include_2DataFormatsTPC_2Constants_8h.html" target="_top" xlink:title="DataFormatsTPC/Constants.h">
<polygon fill="none" stroke="#000000" points="1720,-235.5 1720,-254.5 1870,-254.5 1870,-235.5 1720,-235.5"/>
<text text-anchor="middle" x="1795" y="-242.5" font-family="Helvetica,sans-Serif" font-size="10.00" fill="#000000">DataFormatsTPC/Constants.h</text>
</a>
</g>
</g>
<!-- Node1&#45;&gt;Node8 -->
<g id="edge12" class="edge">
<title>Node1&#45;&gt;Node8</title>
<path fill="none" stroke="#191970" d="M1818,-571.2899C1818,-548.892 1818,-505.7188 1818,-469 1818,-469 1818,-469 1818,-357 1818,-323.906 1808.2452,-286.4151 1801.4412,-264.2901"/>
<polygon fill="#191970" stroke="#191970" points="1804.7706,-263.2105 1798.3937,-254.7497 1798.1026,-265.3405 1804.7706,-263.2105"/>
</g>
<!-- Node12 -->
<g id="node13" class="node">
<title>Node12</title>
<g id="a_node13"><a xlink:href="../../d5/d1d/TPC_2base_2include_2TPCBase_2Mapper_8h.html" target="_top" xlink:title="TPCBase/Mapper.h">
<polygon fill="none" stroke="#000000" points="1227.5,-515.5 1227.5,-534.5 1330.5,-534.5 1330.5,-515.5 1227.5,-515.5"/>
<text text-anchor="middle" x="1279" y="-522.5" font-family="Helvetica,sans-Serif" font-size="10.00" fill="#000000">TPCBase/Mapper.h</text>
</a>
</g>
</g>
<!-- Node1&#45;&gt;Node12 -->
<g id="edge13" class="edge">
<title>Node1&#45;&gt;Node12</title>
<path fill="none" stroke="#191970" d="M1750.8251,-578.8353C1645.5112,-566.819 1443.0578,-543.719 1341.0187,-532.0763"/>
<polygon fill="#191970" stroke="#191970" points="1341.2012,-528.5745 1330.8688,-530.9182 1340.4076,-535.5294 1341.2012,-528.5745"/>
</g>
<!-- Node5 -->
<g id="node6" class="node">
<title>Node5</title>
<polygon fill="none" stroke="#bfbfbf" points="1926,-235.5 1926,-254.5 1972,-254.5 1972,-235.5 1926,-235.5"/>
<text text-anchor="middle" x="1949" y="-242.5" font-family="Helvetica,sans-Serif" font-size="10.00" fill="#000000">cstdint</text>
</g>
<!-- Node4&#45;&gt;Node5 -->
<g id="edge5" class="edge">
<title>Node4&#45;&gt;Node5</title>
<path fill="none" stroke="#191970" d="M1940.7419,-291.2455C1942.0467,-283.9382 1943.876,-273.6944 1945.4813,-264.7046"/>
<polygon fill="#191970" stroke="#191970" points="1948.9656,-265.1022 1947.2781,-254.6427 1942.0746,-263.8717 1948.9656,-265.1022"/>
</g>
<!-- Node6 -->
<g id="node7" class="node">
<title>Node6</title>
<polygon fill="none" stroke="#bfbfbf" points="1990.5,-235.5 1990.5,-254.5 2039.5,-254.5 2039.5,-235.5 1990.5,-235.5"/>
<text text-anchor="middle" x="2015" y="-242.5" font-family="Helvetica,sans-Serif" font-size="10.00" fill="#000000">cstddef</text>
</g>
<!-- Node4&#45;&gt;Node6 -->
<g id="edge6" class="edge">
<title>Node4&#45;&gt;Node6</title>
<path fill="none" stroke="#191970" d="M1952.2382,-291.2455C1963.681,-282.814 1980.4296,-270.4729 1993.7475,-260.6598"/>
<polygon fill="#191970" stroke="#191970" points="1995.9391,-263.3924 2001.9135,-254.6427 1991.7867,-257.757 1995.9391,-263.3924"/>
</g>
<!-- Node7 -->
<g id="node8" class="node">
<title>Node7</title>
<polygon fill="none" stroke="#bfbfbf" points="2058,-235.5 2058,-254.5 2098,-254.5 2098,-235.5 2058,-235.5"/>
<text text-anchor="middle" x="2078" y="-242.5" font-family="Helvetica,sans-Serif" font-size="10.00" fill="#000000">utility</text>
</g>
<!-- Node4&#45;&gt;Node7 -->
<g id="edge7" class="edge">
<title>Node4&#45;&gt;Node7</title>
<path fill="none" stroke="#191970" d="M1962.895,-291.3733C1986.4676,-281.8764 2022.5721,-267.3306 2048.0491,-257.0666"/>
<polygon fill="#191970" stroke="#191970" points="2049.6111,-260.2107 2057.5788,-253.2273 2046.9953,-253.7178 2049.6111,-260.2107"/>
</g>
<!-- Node4&#45;&gt;Node8 -->
<g id="edge8" class="edge">
<title>Node4&#45;&gt;Node8</title>
<path fill="none" stroke="#191970" d="M1914.2455,-291.3733C1890.7151,-282.2226 1855.1313,-268.3844 1828.9574,-258.2057"/>
<polygon fill="#191970" stroke="#191970" points="1830.0201,-254.8636 1819.4315,-254.5011 1827.4829,-261.3877 1830.0201,-254.8636"/>
</g>
<!-- Node9 -->
<g id="node10" class="node">
<title>Node9</title>
<g id="a_node10"><a xlink:href="../../df/d21/GPUCommonDef_8h.html" target="_top" xlink:title="GPUCommonDef.h">
<polygon fill="none" stroke="#000000" points="1532,-56.5 1532,-75.5 1634,-75.5 1634,-56.5 1532,-56.5"/>
<text text-anchor="middle" x="1583" y="-63.5" font-family="Helvetica,sans-Serif" font-size="10.00" fill="#000000">GPUCommonDef.h</text>
</a>
</g>
</g>
<!-- Node4&#45;&gt;Node9 -->
<g id="edge9" class="edge">
<title>Node4&#45;&gt;Node9</title>
<path fill="none" stroke="#191970" d="M1931.1028,-291.4726C1904.9808,-260.5899 1817.6856,-162.3414 1724,-112 1696.0217,-96.966 1662.2694,-85.7402 1634.8032,-78.143"/>
<polygon fill="#191970" stroke="#191970" points="1635.5564,-74.7214 1624.9908,-75.508 1633.7409,-81.4818 1635.5564,-74.7214"/>
</g>
<!-- Node10 -->
<g id="node11" class="node">
<title>Node10</title>
<g id="a_node11"><a xlink:href="../../d5/d93/GPUCommonDefSettings_8h.html" target="_top" xlink:title="GPUCommonDefSettings.h">
<polygon fill="none" stroke="#000000" points="1441,-.5 1441,-19.5 1579,-19.5 1579,-.5 1441,-.5"/>
<text text-anchor="middle" x="1510" y="-7.5" font-family="Helvetica,sans-Serif" font-size="10.00" fill="#000000">GPUCommonDefSettings.h</text>
</a>
</g>
</g>
<!-- Node9&#45;&gt;Node10 -->
<g id="edge10" class="edge">
<title>Node9&#45;&gt;Node10</title>
<path fill="none" stroke="#191970" d="M1570.2844,-56.2455C1559.398,-47.8943 1543.5117,-35.7076 1530.78,-25.9408"/>
<polygon fill="#191970" stroke="#191970" points="1532.6346,-22.9523 1522.5699,-19.6427 1528.3739,-28.5063 1532.6346,-22.9523"/>
</g>
<!-- Node11 -->
<g id="node12" class="node">
<title>Node11</title>
<g id="a_node12"><a xlink:href="../../da/d5a/GPUCommonDefAPI_8h.html" target="_top" xlink:title="GPUCommonDefAPI.h">
<polygon fill="none" stroke="#000000" points="1597.5,-.5 1597.5,-19.5 1716.5,-19.5 1716.5,-.5 1597.5,-.5"/>
<text text-anchor="middle" x="1657" y="-7.5" font-family="Helvetica,sans-Serif" font-size="10.00" fill="#000000">GPUCommonDefAPI.h</text>
</a>
</g>
</g>
<!-- Node9&#45;&gt;Node11 -->
<g id="edge11" class="edge">
<title>Node9&#45;&gt;Node11</title>
<path fill="none" stroke="#191970" d="M1595.8898,-56.2455C1606.9254,-47.8943 1623.0292,-35.7076 1635.9353,-25.9408"/>
<polygon fill="#191970" stroke="#191970" points="1638.3959,-28.4681 1644.2579,-19.6427 1634.1717,-22.8862 1638.3959,-28.4681"/>
</g>
<!-- Node12&#45;&gt;Node2 -->
<g id="edge15" class="edge">
<title>Node12&#45;&gt;Node2</title>
<path fill="none" stroke="#191970" d="M1227.4122,-522.3368C1127.9096,-516.7016 917.1947,-502.1552 894,-479 882.1531,-467.1733 881.1618,-447.5639 882.5283,-432.7859"/>
<polygon fill="#191970" stroke="#191970" points="886.0292,-433.0128 883.8923,-422.6358 879.0916,-432.0806 886.0292,-433.0128"/>
</g>
<!-- Node13 -->
<g id="node14" class="node">
<title>Node13</title>
<polygon fill="none" stroke="#bfbfbf" points="1196.5,-459.5 1196.5,-478.5 1231.5,-478.5 1231.5,-459.5 1196.5,-459.5"/>
<text text-anchor="middle" x="1214" y="-466.5" font-family="Helvetica,sans-Serif" font-size="10.00" fill="#000000">map</text>
</g>
<!-- Node12&#45;&gt;Node13 -->
<g id="edge14" class="edge">
<title>Node12&#45;&gt;Node13</title>
<path fill="none" stroke="#191970" d="M1267.6779,-515.2455C1258.0777,-506.9746 1244.1108,-494.9416 1232.8305,-485.2232"/>
<polygon fill="#191970" stroke="#191970" points="1235.053,-482.5182 1225.1924,-478.6427 1230.484,-487.8214 1235.053,-482.5182"/>
</g>
<!-- Node14 -->
<g id="node15" class="node">
<title>Node14</title>
<polygon fill="none" stroke="#bfbfbf" points="1326,-459.5 1326,-478.5 1364,-478.5 1364,-459.5 1326,-459.5"/>
<text text-anchor="middle" x="1345" y="-466.5" font-family="Helvetica,sans-Serif" font-size="10.00" fill="#000000">array</text>
</g>
<!-- Node12&#45;&gt;Node14 -->
<g id="edge16" class="edge">
<title>Node12&#45;&gt;Node14</title>
<path fill="none" stroke="#191970" d="M1290.4963,-515.2455C1300.2442,-506.9746 1314.4259,-494.9416 1325.8798,-485.2232"/>
<polygon fill="#191970" stroke="#191970" points="1328.2747,-487.7813 1333.6354,-478.6427 1323.7459,-482.4437 1328.2747,-487.7813"/>
</g>
<!-- Node15 -->
<g id="node16" class="node">
<title>Node15</title>
<polygon fill="none" stroke="#bfbfbf" points="1382.5,-459.5 1382.5,-478.5 1423.5,-478.5 1423.5,-459.5 1382.5,-459.5"/>
<text text-anchor="middle" x="1403" y="-466.5" font-family="Helvetica,sans-Serif" font-size="10.00" fill="#000000">string</text>
</g>
<!-- Node12&#45;&gt;Node15 -->
<g id="edge17" class="edge">
<title>Node12&#45;&gt;Node15</title>
<path fill="none" stroke="#191970" d="M1300.3164,-515.3733C1320.3422,-506.3293 1350.5066,-492.7067 1372.9667,-482.5634"/>
<polygon fill="#191970" stroke="#191970" points="1374.7007,-485.6208 1382.3738,-478.315 1371.8195,-479.2412 1374.7007,-485.6208"/>
</g>
<!-- Node16 -->
<g id="node17" class="node">
<title>Node16</title>
<polygon fill="none" stroke="#bfbfbf" points="1054,-179.5 1054,-198.5 1098,-198.5 1098,-179.5 1054,-179.5"/>
<text text-anchor="middle" x="1076" y="-186.5" font-family="Helvetica,sans-Serif" font-size="10.00" fill="#000000">cmath</text>
</g>
<!-- Node12&#45;&gt;Node16 -->
<g id="edge18" class="edge">
<title>Node12&#45;&gt;Node16</title>
<path fill="none" stroke="#191970" d="M1227.375,-521.7521C1120.323,-514.69 881.3984,-497.1113 849,-479 816.6422,-460.9114 798,-450.0705 798,-413 798,-413 798,-413 798,-301 798,-248.5538 970.3794,-209.2568 1043.6596,-194.9208"/>
<polygon fill="#191970" stroke="#191970" points="1044.5599,-198.3119 1053.72,-192.9881 1043.2393,-191.4376 1044.5599,-198.3119"/>
</g>
<!-- Node17 -->
<g id="node18" class="node">
<title>Node17</title>
<g id="a_node18"><a xlink:href="../../d1/d73/Defs_8h.html" target="_top" xlink:title="DataFormatsTPC/Defs.h">
<polygon fill="none" stroke="#000000" points="1236,-235.5 1236,-254.5 1362,-254.5 1362,-235.5 1236,-235.5"/>
<text text-anchor="middle" x="1299" y="-242.5" font-family="Helvetica,sans-Serif" font-size="10.00" fill="#000000">DataFormatsTPC/Defs.h</text>
</a>
</g>
</g>
<!-- Node12&#45;&gt;Node17 -->
<g id="edge19" class="edge">
<title>Node12&#45;&gt;Node17</title>
<path fill="none" stroke="#191970" d="M1227.4065,-521.5181C1126.0113,-514.3214 908.0559,-496.9717 879,-479 849.2255,-460.5838 836,-448.0097 836,-413 836,-413 836,-413 836,-357 836,-277.8893 1094.5929,-254.4699 1225.2654,-247.6858"/>
<polygon fill="#191970" stroke="#191970" points="1225.7795,-251.1646 1235.5926,-247.1704 1225.4306,-244.1733 1225.7795,-251.1646"/>
</g>
<!-- Node19 -->
<g id="node20" class="node">
<title>Node19</title>
<g id="a_node20"><a xlink:href="../../dc/d73/Cartesian_8h.html" target="_top" xlink:title="MathUtils/Cartesian.h">
<polygon fill="none" stroke="#000000" points="769,-179.5 769,-198.5 881,-198.5 881,-179.5 769,-179.5"/>
<text text-anchor="middle" x="825" y="-186.5" font-family="Helvetica,sans-Serif" font-size="10.00" fill="#000000">MathUtils/Cartesian.h</text>
</a>
</g>
</g>
<!-- Node12&#45;&gt;Node19 -->
<g id="edge65" class="edge">
<title>Node12&#45;&gt;Node19</title>
<path fill="none" stroke="#191970" d="M1227.2382,-522.0809C1113.8487,-515.3699 850.7613,-497.9571 815,-479 781.2635,-461.1163 760,-451.1834 760,-413 760,-413 760,-413 760,-301 760,-263.0918 788.1992,-226.5315 807.4502,-205.9893"/>
<polygon fill="#191970" stroke="#191970" points="810.0887,-208.2966 814.5566,-198.6899 805.0731,-203.4136 810.0887,-208.2966"/>
</g>
<!-- Node31 -->
<g id="node32" class="node">
<title>Node31</title>
<g id="a_node32"><a xlink:href="../../de/d41/PadPos_8h.html" target="_top" xlink:title="TPCBase/PadPos.h">
<polygon fill="none" stroke="#000000" points="1127.5,-347.5 1127.5,-366.5 1232.5,-366.5 1232.5,-347.5 1127.5,-347.5"/>
<text text-anchor="middle" x="1180" y="-354.5" font-family="Helvetica,sans-Serif" font-size="10.00" fill="#000000">TPCBase/PadPos.h</text>
</a>
</g>
</g>
<!-- Node12&#45;&gt;Node31 -->
<g id="edge37" class="edge">
<title>Node12&#45;&gt;Node31</title>
<path fill="none" stroke="#191970" d="M1275.3505,-515.4926C1269.6882,-501.711 1257.6764,-475.9795 1241,-459 1219.2091,-436.8129 1196.5267,-449.945 1181,-423 1172.9639,-409.0542 1173.4447,-390.5443 1175.5159,-376.6762"/>
<polygon fill="#191970" stroke="#191970" points="1178.9787,-377.1997 1177.3856,-366.7253 1172.0991,-375.907 1178.9787,-377.1997"/>
</g>
<!-- Node32 -->
<g id="node33" class="node">
<title>Node32</title>
<g id="a_node33"><a xlink:href="../../dd/d0b/PadSecPos_8h.html" target="_top" xlink:title="TPCBase/PadSecPos.h">
<polygon fill="none" stroke="#000000" points="1354,-403.5 1354,-422.5 1476,-422.5 1476,-403.5 1354,-403.5"/>
<text text-anchor="middle" x="1415" y="-410.5" font-family="Helvetica,sans-Serif" font-size="10.00" fill="#000000">TPCBase/PadSecPos.h</text>
</a>
</g>
</g>
<!-- Node12&#45;&gt;Node32 -->
<g id="edge38" class="edge">
<title>Node12&#45;&gt;Node32</title>
<path fill="none" stroke="#191970" d="M1330.7121,-516.3464C1370.4495,-508.5186 1420.5811,-495.6707 1433,-479 1443.2616,-465.2252 1436.1839,-445.9499 1428.0833,-431.7853"/>
<polygon fill="#191970" stroke="#191970" points="1430.7984,-429.5281 1422.5122,-422.9259 1424.8727,-433.2545 1430.7984,-429.5281"/>
</g>
<!-- Node33 -->
<g id="node34" class="node">
<title>Node33</title>
<g id="a_node34"><a xlink:href="../../d3/dd6/Sector_8h.html" target="_top" xlink:title="TPCBase/Sector.h">
<polygon fill="none" stroke="#000000" points="1485.5,-291.5 1485.5,-310.5 1584.5,-310.5 1584.5,-291.5 1485.5,-291.5"/>
<text text-anchor="middle" x="1535" y="-298.5" font-family="Helvetica,sans-Serif" font-size="10.00" fill="#000000">TPCBase/Sector.h</text>
</a>
</g>
</g>
<!-- Node12&#45;&gt;Node33 -->
<g id="edge64" class="edge">
<title>Node12&#45;&gt;Node33</title>
<path fill="none" stroke="#191970" d="M1330.759,-521.183C1416.3839,-514.3383 1579.8394,-498.8216 1597,-479 1638.6631,-430.8766 1581.2178,-353.1182 1551.221,-318.5431"/>
<polygon fill="#191970" stroke="#191970" points="1553.5266,-315.8693 1544.2631,-310.7275 1548.2983,-320.5238 1553.5266,-315.8693"/>
</g>
<!-- Node34 -->
<g id="node35" class="node">
<title>Node34</title>
<g id="a_node35"><a xlink:href="../../da/d61/PadROCPos_8h.html" target="_top" xlink:title="TPCBase/PadROCPos.h">
<polygon fill="none" stroke="#000000" points="1208,-403.5 1208,-422.5 1336,-422.5 1336,-403.5 1208,-403.5"/>
<text text-anchor="middle" x="1272" y="-410.5" font-family="Helvetica,sans-Serif" font-size="10.00" fill="#000000">TPCBase/PadROCPos.h</text>
</a>
</g>
</g>
<!-- Node12&#45;&gt;Node34 -->
<g id="edge43" class="edge">
<title>Node12&#45;&gt;Node34</title>
<path fill="none" stroke="#191970" d="M1278.4032,-515.4509C1277.2615,-497.184 1274.7472,-456.9553 1273.2311,-432.6976"/>
<polygon fill="#191970" stroke="#191970" points="1276.7124,-432.2871 1272.5953,-422.5249 1269.726,-432.7238 1276.7124,-432.2871"/>
</g>
<!-- Node36 -->
<g id="node37" class="node">
<title>Node36</title>
<g id="a_node37"><a xlink:href="../../d3/d54/DigitPos_8h.html" target="_top" xlink:title="TPCBase/DigitPos.h">
<polygon fill="none" stroke="#000000" points="1480,-459.5 1480,-478.5 1588,-478.5 1588,-459.5 1480,-459.5"/>
<text text-anchor="middle" x="1534" y="-466.5" font-family="Helvetica,sans-Serif" font-size="10.00" fill="#000000">TPCBase/DigitPos.h</text>
</a>
</g>
</g>
<!-- Node12&#45;&gt;Node36 -->
<g id="edge49" class="edge">
<title>Node12&#45;&gt;Node36</title>
<path fill="none" stroke="#191970" d="M1322.5463,-515.4369C1366.2793,-505.8328 1433.7345,-491.0191 1480.6542,-480.7152"/>
<polygon fill="#191970" stroke="#191970" points="1481.6168,-484.0872 1490.6333,-478.5237 1480.1153,-477.2502 1481.6168,-484.0872"/>
</g>
<!-- Node38 -->
<g id="node39" class="node">
<title>Node38</title>
<g id="a_node39"><a xlink:href="../../d1/d1f/FECInfo_8h.html" target="_top" xlink:title="TPCBase/FECInfo.h">
<polygon fill="none" stroke="#000000" points="1682.5,-347.5 1682.5,-366.5 1789.5,-366.5 1789.5,-347.5 1682.5,-347.5"/>
<text text-anchor="middle" x="1736" y="-354.5" font-family="Helvetica,sans-Serif" font-size="10.00" fill="#000000">TPCBase/FECInfo.h</text>
</a>
</g>
</g>
<!-- Node12&#45;&gt;Node38 -->
<g id="edge57" class="edge">
<title>Node12&#45;&gt;Node38</title>
<path fill="none" stroke="#191970" d="M1330.7187,-522.702C1415.4223,-518.2021 1579.3761,-506.1901 1630,-479 1675.1078,-454.7726 1709.7686,-403.0938 1725.9558,-375.4106"/>
<polygon fill="#191970" stroke="#191970" points="1729.0054,-377.1282 1730.8979,-366.7037 1722.9177,-373.6727 1729.0054,-377.1282"/>
</g>
<!-- Node39 -->
<g id="node40" class="node">
<title>Node39</title>
<g id="a_node40"><a xlink:href="../../da/d9d/PadRegionInfo_8h.html" target="_top" xlink:title="TPCBase/PadRegionInfo.h">
<polygon fill="none" stroke="#000000" points="902.5,-459.5 902.5,-478.5 1037.5,-478.5 1037.5,-459.5 902.5,-459.5"/>
<text text-anchor="middle" x="970" y="-466.5" font-family="Helvetica,sans-Serif" font-size="10.00" fill="#000000">TPCBase/PadRegionInfo.h</text>
</a>
</g>
</g>
<!-- Node12&#45;&gt;Node39 -->
<g id="edge59" class="edge">
<title>Node12&#45;&gt;Node39</title>
<path fill="none" stroke="#191970" d="M1227.2803,-515.6269C1173.7146,-505.9191 1089.9827,-490.7444 1032.6867,-480.3607"/>
<polygon fill="#191970" stroke="#191970" points="1033.1284,-476.8838 1022.6645,-478.5444 1031.8801,-483.7716 1033.1284,-476.8838"/>
</g>
<!-- Node40 -->
<g id="node41" class="node">
<title>Node40</title>
<g id="a_node41"><a xlink:href="../../d6/d42/PartitionInfo_8h.html" target="_top" xlink:title="TPCBase/PartitionInfo.h">
<polygon fill="none" stroke="#000000" points="1055.5,-459.5 1055.5,-478.5 1178.5,-478.5 1178.5,-459.5 1055.5,-459.5"/>
<text text-anchor="middle" x="1117" y="-466.5" font-family="Helvetica,sans-Serif" font-size="10.00" fill="#000000">TPCBase/PartitionInfo.h</text>
</a>
</g>
</g>
<!-- Node12&#45;&gt;Node40 -->
<g id="edge63" class="edge">
<title>Node12&#45;&gt;Node40</title>
<path fill="none" stroke="#191970" d="M1251.1512,-515.3733C1224.3297,-506.1016 1183.5873,-492.0178 1154.0402,-481.804"/>
<polygon fill="#191970" stroke="#191970" points="1155.0802,-478.4603 1144.4854,-478.5011 1152.7931,-485.0762 1155.0802,-478.4603"/>
</g>
<!-- Node17&#45;&gt;Node16 -->
<g id="edge20" class="edge">
<title>Node17&#45;&gt;Node16</title>
<path fill="none" stroke="#191970" d="M1260.9183,-235.4369C1217.776,-224.6029 1148.2351,-207.1398 1107.8533,-196.999"/>
<polygon fill="#191970" stroke="#191970" points="1108.5585,-193.5675 1098.0072,-194.5265 1106.8536,-200.3567 1108.5585,-193.5675"/>
</g>
<!-- Node18 -->
<g id="node19" class="node">
<title>Node18</title>
<g id="a_node19"><a xlink:href="../../d1/da8/GPUROOTCartesianFwd_8h.html" target="_top" xlink:title="GPUROOTCartesianFwd.h">
<polygon fill="none" stroke="#000000" points="1515,-118 1515,-137 1651,-137 1651,-118 1515,-118"/>
<text text-anchor="middle" x="1583" y="-125" font-family="Helvetica,sans-Serif" font-size="10.00" fill="#000000">GPUROOTCartesianFwd.h</text>
</a>
</g>
</g>
<!-- Node17&#45;&gt;Node18 -->
<g id="edge21" class="edge">
<title>Node17&#45;&gt;Node18</title>
<path fill="none" stroke="#191970" d="M1322.2409,-235.3845C1372.7089,-214.5042 1492.4386,-164.9682 1550.4189,-140.9799"/>
<polygon fill="#191970" stroke="#191970" points="1551.934,-144.1408 1559.8363,-137.0836 1549.2578,-137.6726 1551.934,-144.1408"/>
</g>
<!-- Node17&#45;&gt;Node19 -->
<g id="edge23" class="edge">
<title>Node17&#45;&gt;Node19</title>
<path fill="none" stroke="#191970" d="M1235.5661,-237.5057C1145.7215,-226.8911 982.2111,-207.5735 890.9919,-196.7965"/>
<polygon fill="#191970" stroke="#191970" points="891.3873,-193.319 881.0456,-195.6214 890.5659,-200.2706 891.3873,-193.319"/>
</g>
<!-- Node18&#45;&gt;Node9 -->
<g id="edge22" class="edge">
<title>Node18&#45;&gt;Node9</title>
<path fill="none" stroke="#191970" d="M1583,-117.8906C1583,-109.3657 1583,-96.6392 1583,-85.9235"/>
<polygon fill="#191970" stroke="#191970" points="1586.5001,-85.7448 1583,-75.7449 1579.5001,-85.7449 1586.5001,-85.7448"/>
</g>
<!-- Node19&#45;&gt;Node9 -->
<g id="edge24" class="edge">
<title>Node19&#45;&gt;Node9</title>
<path fill="none" stroke="#191970" d="M768.9012,-185.5175C694.2028,-178.9491 576.5823,-160.6951 623,-112 654.0639,-79.412 1315.2687,-69.0752 1521.8754,-66.6347"/>
<polygon fill="#191970" stroke="#191970" points="1521.9866,-70.1337 1531.9452,-66.5177 1521.9052,-63.1342 1521.9866,-70.1337"/>
</g>
<!-- Node19&#45;&gt;Node18 -->
<g id="edge36" class="edge">
<title>Node19&#45;&gt;Node18</title>
<path fill="none" stroke="#191970" d="M881.2371,-186.1555C1021.7855,-178.893 1385.6858,-159.1023 1506,-143 1514.0714,-141.9198 1522.5673,-140.5 1530.8503,-138.958"/>
<polygon fill="#191970" stroke="#191970" points="1531.6528,-142.3677 1540.8054,-137.031 1530.3224,-135.4953 1531.6528,-142.3677"/>
</g>
<!-- Node20 -->
<g id="node21" class="node">
<title>Node20</title>
<g id="a_node21"><a xlink:href="../../d2/d45/GPUCommonRtypes_8h.html" target="_top" xlink:title="GPUCommonRtypes.h">
<polygon fill="none" stroke="#000000" points="0,-118 0,-137 118,-137 118,-118 0,-118"/>
<text text-anchor="middle" x="59" y="-125" font-family="Helvetica,sans-Serif" font-size="10.00" fill="#000000">GPUCommonRtypes.h</text>
</a>
</g>
</g>
<!-- Node19&#45;&gt;Node20 -->
<g id="edge25" class="edge">
<title>Node19&#45;&gt;Node20</title>
<path fill="none" stroke="#191970" d="M768.5876,-188.3032C649.4602,-186.1699 363.7343,-177.5594 127,-143 120.1575,-142.0011 112.9838,-140.6765 105.9672,-139.2212"/>
<polygon fill="#191970" stroke="#191970" points="106.3722,-135.7274 95.8563,-137.0183 104.882,-142.567 106.3722,-135.7274"/>
</g>
<!-- Node22 -->
<g id="node23" class="node">
<title>Node22</title>
<polygon fill="none" stroke="#bfbfbf" points="632.5,-112.5 632.5,-142.5 783.5,-142.5 783.5,-112.5 632.5,-112.5"/>
<text text-anchor="start" x="640.5" y="-130.5" font-family="Helvetica,sans-Serif" font-size="10.00" fill="#000000">Math/GenVector/Displacement</text>
<text text-anchor="middle" x="708" y="-119.5" font-family="Helvetica,sans-Serif" font-size="10.00" fill="#000000">Vector3D.h</text>
</g>
<!-- Node19&#45;&gt;Node22 -->
<g id="edge27" class="edge">
<title>Node19&#45;&gt;Node22</title>
<path fill="none" stroke="#191970" d="M806.7188,-179.3906C790.4444,-170.8361 766.1212,-158.0509 745.6913,-147.3121"/>
<polygon fill="#191970" stroke="#191970" points="747.1016,-144.0994 736.6214,-142.5446 743.8446,-150.2955 747.1016,-144.0994"/>
</g>
<!-- Node23 -->
<g id="node24" class="node">
<title>Node23</title>
<polygon fill="none" stroke="#bfbfbf" points="802,-118 802,-137 978,-137 978,-118 802,-118"/>
<text text-anchor="middle" x="890" y="-125" font-family="Helvetica,sans-Serif" font-size="10.00" fill="#000000">Math/GenVector/PositionVector3D.h</text>
</g>
<!-- Node19&#45;&gt;Node23 -->
<g id="edge28" class="edge">
<title>Node19&#45;&gt;Node23</title>
<path fill="none" stroke="#191970" d="M835.1563,-179.3906C845.0199,-170.0581 860.2055,-155.6902 872.0987,-144.4374"/>
<polygon fill="#191970" stroke="#191970" points="874.8421,-146.6601 879.7006,-137.2449 870.0311,-141.5753 874.8421,-146.6601"/>
</g>
<!-- Node24 -->
<g id="node25" class="node">
<title>Node24</title>
<polygon fill="none" stroke="#bfbfbf" points="995.5,-118 995.5,-137 1144.5,-137 1144.5,-118 995.5,-118"/>
<text text-anchor="middle" x="1070" y="-125" font-family="Helvetica,sans-Serif" font-size="10.00" fill="#000000">Math/GenVector/Rotation3D.h</text>
</g>
<!-- Node19&#45;&gt;Node24 -->
<g id="edge29" class="edge">
<title>Node19&#45;&gt;Node24</title>
<path fill="none" stroke="#191970" d="M863.0124,-179.4581C905.8371,-168.7082 975.5208,-151.2162 1022.0499,-139.5365"/>
<polygon fill="#191970" stroke="#191970" points="1023.0515,-142.8937 1031.8984,-137.0643 1021.3471,-136.1043 1023.0515,-142.8937"/>
</g>
<!-- Node25 -->
<g id="node26" class="node">
<title>Node25</title>
<polygon fill="none" stroke="#bfbfbf" points="1163,-118 1163,-137 1319,-137 1319,-118 1163,-118"/>
<text text-anchor="middle" x="1241" y="-125" font-family="Helvetica,sans-Serif" font-size="10.00" fill="#000000">Math/GenVector/Transform3D.h</text>
</g>
<!-- Node19&#45;&gt;Node25 -->
<g id="edge30" class="edge">
<title>Node19&#45;&gt;Node25</title>
<path fill="none" stroke="#191970" d="M881.272,-181.7833C946.8568,-173.2215 1058.4517,-158.1857 1154,-143 1162.079,-141.716 1170.5668,-140.2944 1178.9426,-138.8483"/>
<polygon fill="#191970" stroke="#191970" points="1179.8199,-142.2482 1189.0686,-137.0798 1178.6156,-135.3525 1179.8199,-142.2482"/>
</g>
<!-- Node26 -->
<g id="node27" class="node">
<title>Node26</title>
<polygon fill="none" stroke="#bfbfbf" points="1337,-118 1337,-137 1497,-137 1497,-118 1337,-118"/>
<text text-anchor="middle" x="1417" y="-125" font-family="Helvetica,sans-Serif" font-size="10.00" fill="#000000">Math/GenVector/Translation3D.h</text>
</g>
<!-- Node19&#45;&gt;Node26 -->
<g id="edge31" class="edge">
<title>Node19&#45;&gt;Node26</title>
<path fill="none" stroke="#191970" d="M881.366,-185.3456C974.5624,-178.9673 1166.5273,-164.4083 1328,-143 1337.1344,-141.7889 1346.7636,-140.3174 1356.1794,-138.7687"/>
<polygon fill="#191970" stroke="#191970" points="1357,-142.1799 1366.2793,-137.0667 1355.8366,-135.2772 1357,-142.1799"/>
</g>
<!-- Node27 -->
<g id="node28" class="node">
<title>Node27</title>
<polygon fill="none" stroke="#bfbfbf" points="136.5,-112.5 136.5,-142.5 287.5,-142.5 287.5,-112.5 136.5,-112.5"/>
<text text-anchor="start" x="144.5" y="-130.5" font-family="Helvetica,sans-Serif" font-size="10.00" fill="#000000">Math/GenVector/Displacement</text>
<text text-anchor="middle" x="212" y="-119.5" font-family="Helvetica,sans-Serif" font-size="10.00" fill="#000000">Vector2D.h</text>
</g>
<!-- Node19&#45;&gt;Node27 -->
<g id="edge32" class="edge">
<title>Node19&#45;&gt;Node27</title>
<path fill="none" stroke="#191970" d="M768.9334,-185.8429C674.0831,-180.1235 475.7518,-166.5345 298.0024,-143.0542"/>
<polygon fill="#191970" stroke="#191970" points="298.3192,-139.5655 287.944,-141.7118 297.3931,-146.504 298.3192,-139.5655"/>
</g>
<!-- Node28 -->
<g id="node29" class="node">
<title>Node28</title>
<polygon fill="none" stroke="#bfbfbf" points="306,-118 306,-137 482,-137 482,-118 306,-118"/>
<text text-anchor="middle" x="394" y="-125" font-family="Helvetica,sans-Serif" font-size="10.00" fill="#000000">Math/GenVector/PositionVector2D.h</text>
</g>
<!-- Node19&#45;&gt;Node28 -->
<g id="edge33" class="edge">
<title>Node19&#45;&gt;Node28</title>
<path fill="none" stroke="#191970" d="M768.8056,-181.6373C702.3877,-172.848 588.5556,-157.5106 491,-143 481.673,-141.6127 471.8499,-140.1016 462.1801,-138.5849"/>
<polygon fill="#191970" stroke="#191970" points="462.6094,-135.1094 452.1859,-137.0072 461.5178,-142.0237 462.6094,-135.1094"/>
</g>
<!-- Node29 -->
<g id="node30" class="node">
<title>Node29</title>
<polygon fill="none" stroke="#bfbfbf" points="500,-118 500,-137 576,-137 576,-118 500,-118"/>
<text text-anchor="middle" x="538" y="-125" font-family="Helvetica,sans-Serif" font-size="10.00" fill="#000000">TGeoMatrix.h</text>
</g>
<!-- Node19&#45;&gt;Node29 -->
<g id="edge34" class="edge">
<title>Node19&#45;&gt;Node29</title>
<path fill="none" stroke="#191970" d="M768.638,-179.542C720.8236,-171.1432 650.5497,-157.9136 590,-143 586.0983,-142.039 582.053,-140.9679 578.0205,-139.8501"/>
<polygon fill="#191970" stroke="#191970" points="578.6889,-136.4008 568.1116,-137.0113 576.761,-143.1301 578.6889,-136.4008"/>
</g>
<!-- Node30 -->
<g id="node31" class="node">
<title>Node30</title>
<polygon fill="none" stroke="#bfbfbf" points="1669.5,-118 1669.5,-137 1714.5,-137 1714.5,-118 1669.5,-118"/>
<text text-anchor="middle" x="1692" y="-125" font-family="Helvetica,sans-Serif" font-size="10.00" fill="#000000">iosfwd</text>
</g>
<!-- Node19&#45;&gt;Node30 -->
<g id="edge35" class="edge">
<title>Node19&#45;&gt;Node30</title>
<path fill="none" stroke="#191970" d="M881.2609,-186.198C1065.6628,-176.9762 1641.123,-147.8815 1660,-143 1661.9722,-142.49 1663.9677,-141.8539 1665.9477,-141.1327"/>
<polygon fill="#191970" stroke="#191970" points="1667.7356,-144.1738 1675.539,-137.0074 1664.9698,-137.7434 1667.7356,-144.1738"/>
</g>
<!-- Node21 -->
<g id="node22" class="node">
<title>Node21</title>
<polygon fill="none" stroke="#bfbfbf" points="31,-56.5 31,-75.5 87,-75.5 87,-56.5 31,-56.5"/>
<text text-anchor="middle" x="59" y="-63.5" font-family="Helvetica,sans-Serif" font-size="10.00" fill="#000000">Rtypes.h</text>
</g>
<!-- Node20&#45;&gt;Node21 -->
<g id="edge26" class="edge">
<title>Node20&#45;&gt;Node21</title>
<path fill="none" stroke="#191970" d="M59,-117.8906C59,-109.3657 59,-96.6392 59,-85.9235"/>
<polygon fill="#191970" stroke="#191970" points="62.5001,-85.7448 59,-75.7449 55.5001,-85.7449 62.5001,-85.7448"/>
</g>
<!-- Node32&#45;&gt;Node31 -->
<g id="edge42" class="edge">
<title>Node32&#45;&gt;Node31</title>
<path fill="none" stroke="#191970" d="M1374.8691,-403.4369C1334.7351,-393.8731 1272.9225,-379.1432 1229.7067,-368.845"/>
<polygon fill="#191970" stroke="#191970" points="1230.5044,-365.4372 1219.9654,-366.5237 1228.8817,-372.2465 1230.5044,-365.4372"/>
</g>
<!-- Node32&#45;&gt;Node33 -->
<g id="edge39" class="edge">
<title>Node32&#45;&gt;Node33</title>
<path fill="none" stroke="#191970" d="M1425.2311,-403.4509C1445.6885,-384.3574 1491.8538,-341.2697 1517.3146,-317.5063"/>
<polygon fill="#191970" stroke="#191970" points="1519.8723,-319.9068 1524.7948,-310.5249 1515.0961,-314.7894 1519.8723,-319.9068"/>
</g>
<!-- Node33&#45;&gt;Node8 -->
<g id="edge40" class="edge">
<title>Node33&#45;&gt;Node8</title>
<path fill="none" stroke="#191970" d="M1579.4002,-291.4369C1624.0841,-281.8127 1693.057,-266.957 1740.9088,-256.6504"/>
<polygon fill="#191970" stroke="#191970" points="1741.7441,-260.0508 1750.783,-254.5237 1740.2702,-253.2078 1741.7441,-260.0508"/>
</g>
<!-- Node33&#45;&gt;Node17 -->
<g id="edge41" class="edge">
<title>Node33&#45;&gt;Node17</title>
<path fill="none" stroke="#191970" d="M1494.6983,-291.4369C1454.3936,-281.8731 1392.3179,-267.1432 1348.9182,-256.845"/>
<polygon fill="#191970" stroke="#191970" points="1349.6734,-253.4271 1339.1355,-254.5237 1348.0572,-260.238 1349.6734,-253.4271"/>
</g>
<!-- Node34&#45;&gt;Node17 -->
<g id="edge44" class="edge">
<title>Node34&#45;&gt;Node17</title>
<path fill="none" stroke="#191970" d="M1273.529,-403.4862C1277.7971,-376.9293 1289.9092,-301.5651 1295.7591,-265.1655"/>
<polygon fill="#191970" stroke="#191970" points="1299.2893,-265.2566 1297.4205,-254.8279 1292.378,-264.1458 1299.2893,-265.2566"/>
</g>
<!-- Node34&#45;&gt;Node31 -->
<g id="edge48" class="edge">
<title>Node34&#45;&gt;Node31</title>
<path fill="none" stroke="#191970" d="M1255.9748,-403.2455C1241.8592,-394.6534 1221.0737,-382.0014 1204.8101,-372.1018"/>
<polygon fill="#191970" stroke="#191970" points="1206.2034,-368.8525 1195.8415,-366.6427 1202.5637,-374.8319 1206.2034,-368.8525"/>
</g>
<!-- Node35 -->
<g id="node36" class="node">
<title>Node35</title>
<g id="a_node36"><a xlink:href="../../dc/d14/ROC_8h.html" target="_top" xlink:title="TPCBase/ROC.h">
<polygon fill="none" stroke="#000000" points="1323.5,-347.5 1323.5,-366.5 1416.5,-366.5 1416.5,-347.5 1323.5,-347.5"/>
<text text-anchor="middle" x="1370" y="-354.5" font-family="Helvetica,sans-Serif" font-size="10.00" fill="#000000">TPCBase/ROC.h</text>
</a>
</g>
</g>
<!-- Node34&#45;&gt;Node35 -->
<g id="edge45" class="edge">
<title>Node34&#45;&gt;Node35</title>
<path fill="none" stroke="#191970" d="M1289.0703,-403.2455C1304.247,-394.5731 1326.6621,-381.7645 1344.0563,-371.825"/>
<polygon fill="#191970" stroke="#191970" points="1346.1794,-374.643 1353.1253,-366.6427 1342.7064,-368.5653 1346.1794,-374.643"/>
</g>
<!-- Node35&#45;&gt;Node17 -->
<g id="edge46" class="edge">
<title>Node35&#45;&gt;Node17</title>
<path fill="none" stroke="#191970" d="M1363.9466,-347.4509C1352.1046,-328.7707 1325.7035,-287.1238 1310.459,-263.0761"/>
<polygon fill="#191970" stroke="#191970" points="1313.3483,-261.0969 1305.0381,-254.5249 1307.4362,-264.8448 1313.3483,-261.0969"/>
</g>
<!-- Node35&#45;&gt;Node33 -->
<g id="edge47" class="edge">
<title>Node35&#45;&gt;Node33</title>
<path fill="none" stroke="#191970" d="M1398.3645,-347.3733C1425.6827,-338.1016 1467.1796,-324.0178 1497.2738,-313.804"/>
<polygon fill="#191970" stroke="#191970" points="1498.661,-317.0294 1507.0056,-310.5011 1496.4113,-310.4008 1498.661,-317.0294"/>
</g>
<!-- Node36&#45;&gt;Node17 -->
<g id="edge50" class="edge">
<title>Node36&#45;&gt;Node17</title>
<path fill="none" stroke="#191970" d="M1556.1066,-459.4742C1570.6331,-451.902 1588.4737,-439.7828 1597,-423 1612.8054,-391.8893 1678.3042,-386.8409 1594,-291 1579.4987,-274.5142 1454.9701,-259.7006 1372.409,-251.5672"/>
<polygon fill="#191970" stroke="#191970" points="1372.6004,-248.0694 1362.3085,-250.5848 1371.9226,-255.0365 1372.6004,-248.0694"/>
</g>
<!-- Node36&#45;&gt;Node31 -->
<g id="edge55" class="edge">
<title>Node36&#45;&gt;Node31</title>
<path fill="none" stroke="#191970" d="M1479.6922,-463.1025C1387.5539,-452.8788 1209.5002,-432.0889 1199,-423 1185.9249,-411.6822 1181.5665,-392.0052 1180.2448,-377.0728"/>
<polygon fill="#191970" stroke="#191970" points="1183.7261,-376.609 1179.7319,-366.7959 1176.7348,-376.9579 1183.7261,-376.609"/>
</g>
<!-- Node36&#45;&gt;Node32 -->
<g id="edge56" class="edge">
<title>Node36&#45;&gt;Node32</title>
<path fill="none" stroke="#191970" d="M1513.5432,-459.3733C1494.5262,-450.4241 1465.9825,-436.9917 1444.5024,-426.8835"/>
<polygon fill="#191970" stroke="#191970" points="1445.7284,-423.5923 1435.1899,-422.5011 1442.7478,-429.926 1445.7284,-423.5923"/>
</g>
<!-- Node37 -->
<g id="node38" class="node">
<title>Node37</title>
<g id="a_node38"><a xlink:href="../../df/d26/CRU_8h.html" target="_top" xlink:title="TPCBase/CRU.h">
<polygon fill="none" stroke="#000000" points="1494.5,-403.5 1494.5,-422.5 1587.5,-422.5 1587.5,-403.5 1494.5,-403.5"/>
<text text-anchor="middle" x="1541" y="-410.5" font-family="Helvetica,sans-Serif" font-size="10.00" fill="#000000">TPCBase/CRU.h</text>
</a>
</g>
</g>
<!-- Node36&#45;&gt;Node37 -->
<g id="edge51" class="edge">
<title>Node36&#45;&gt;Node37</title>
<path fill="none" stroke="#191970" d="M1535.2193,-459.2455C1536.1327,-451.9382 1537.4132,-441.6944 1538.5369,-432.7046"/>
<polygon fill="#191970" stroke="#191970" points="1542.0272,-432.9996 1539.7947,-422.6427 1535.0813,-432.1313 1542.0272,-432.9996"/>
</g>
<!-- Node37&#45;&gt;Node17 -->
<g id="edge52" class="edge">
<title>Node37&#45;&gt;Node17</title>
<path fill="none" stroke="#191970" d="M1527.2957,-403.4862C1487.2909,-375.7144 1370.4002,-294.5671 1321.216,-260.4227"/>
<polygon fill="#191970" stroke="#191970" points="1323.0646,-257.4453 1312.854,-254.6177 1319.0726,-263.1955 1323.0646,-257.4453"/>
</g>
<!-- Node37&#45;&gt;Node33 -->
<g id="edge53" class="edge">
<title>Node37&#45;&gt;Node33</title>
<path fill="none" stroke="#191970" d="M1540.4884,-403.4509C1539.5099,-385.184 1537.3547,-344.9553 1536.0552,-320.6976"/>
<polygon fill="#191970" stroke="#191970" points="1539.5403,-320.3233 1535.5103,-310.5249 1532.5503,-320.6978 1539.5403,-320.3233"/>
</g>
<!-- Node37&#45;&gt;Node35 -->
<g id="edge54" class="edge">
<title>Node37&#45;&gt;Node35</title>
<path fill="none" stroke="#191970" d="M1511.6041,-403.3733C1483.1693,-394.0613 1439.9123,-379.8953 1408.6919,-369.671"/>
<polygon fill="#191970" stroke="#191970" points="1409.605,-366.2872 1399.0124,-366.5011 1407.4264,-372.9396 1409.605,-366.2872"/>
</g>
<!-- Node38&#45;&gt;Node30 -->
<g id="edge58" class="edge">
<title>Node38&#45;&gt;Node30</title>
<path fill="none" stroke="#191970" d="M1733.2827,-347.2205C1728.3282,-329.1307 1717.7185,-289.1698 1711,-255 1703.5489,-217.1046 1697.5096,-172.3621 1694.3645,-147.2241"/>
<polygon fill="#191970" stroke="#191970" points="1697.8202,-146.6481 1693.1285,-137.1487 1690.8723,-147.5005 1697.8202,-146.6481"/>
</g>
<!-- Node39&#45;&gt;Node2 -->
<g id="edge60" class="edge">
<title>Node39&#45;&gt;Node2</title>
<path fill="none" stroke="#191970" d="M955.3683,-459.2455C942.6006,-450.7337 923.8562,-438.2375 909.0701,-428.3801"/>
<polygon fill="#191970" stroke="#191970" points="910.726,-425.2775 900.464,-422.6427 906.8431,-431.1019 910.726,-425.2775"/>
</g>
<!-- Node39&#45;&gt;Node17 -->
<g id="edge61" class="edge">
<title>Node39&#45;&gt;Node17</title>
<path fill="none" stroke="#191970" d="M980.3524,-459.4669C1003.9269,-438.0008 1063.844,-384.8008 1119,-347 1170.2678,-311.8639 1234.4669,-277.6252 1270.6929,-259.1237"/>
<polygon fill="#191970" stroke="#191970" points="1272.371,-262.1971 1279.7053,-254.5513 1269.2038,-255.9545 1272.371,-262.1971"/>
</g>
<!-- Node39&#45;&gt;Node31 -->
<g id="edge62" class="edge">
<title>Node39&#45;&gt;Node31</title>
<path fill="none" stroke="#191970" d="M987.9045,-459.4509C1024.8672,-439.7375 1109.7877,-394.4465 1153.2731,-371.2543"/>
<polygon fill="#191970" stroke="#191970" points="1154.9644,-374.3191 1162.1408,-366.5249 1151.6702,-368.1426 1154.9644,-374.3191"/>
</g>
</g>
</svg>
        <g id="navigator" transform="translate(0 0)" fill="#404254">
                <rect fill="#f2f5e9" fill-opacity="0.5" stroke="#606060" stroke-width=".5" x="0" y="0" width="60" height="60"/>
                <use id="zoomplus" xlink:href="#zoomPlus" x="17" y="9" onmousedown="handleZoom(evt,'in')"/>
                <use id="zoomminus" xlink:href="#zoomMin" x="42" y="9" onmousedown="handleZoom(evt,'out')"/>
                <use id="reset" xlink:href="#resetDef" x="30" y="36" onmousedown="handleReset()"/>
                <g id="arrowUp" xlink:href="#dirArrow" transform="translate(30 24)" onmousedown="handlePan(0,-1)">
                  <use xlink:href="#rim" fill="#404040">
                        <set attributeName="fill" to="#808080" begin="arrowUp.mouseover" end="arrowUp.mouseout"/>
                  </use>
                  <path fill="none" stroke="white" stroke-width="1.5" d="M0,-3.0v7 M-2.5,-0.5L0,-3.0L2.5,-0.5"/>
                </g>
                <g id="arrowRight" xlink:href="#dirArrow" transform="rotate(90) translate(36 -43)" onmousedown="handlePan(1,0)">
                  <use xlink:href="#rim" fill="#404040">
                        <set attributeName="fill" to="#808080" begin="arrowRight.mouseover" end="arrowRight.mouseout"/>
                  </use>
                  <path fill="none" stroke="white" stroke-width="1.5" d="M0,-3.0v7 M-2.5,-0.5L0,-3.0L2.5,-0.5"/>
                </g>
                <g id="arrowDown" xlink:href="#dirArrow" transform="rotate(180) translate(-30 -48)" onmousedown="handlePan(0,1)">
                  <use xlink:href="#rim" fill="#404040">
                        <set attributeName="fill" to="#808080" begin="arrowDown.mouseover" end="arrowDown.mouseout"/>
                  </use>
                  <path fill="none" stroke="white" stroke-width="1.5" d="M0,-3.0v7 M-2.5,-0.5L0,-3.0L2.5,-0.5"/>
                </g>
                <g id="arrowLeft" xlink:href="#dirArrow" transform="rotate(270) translate(-36 17)" onmousedown="handlePan(-1,0)">
                  <use xlink:href="#rim" fill="#404040">
                        <set attributeName="fill" to="#808080" begin="arrowLeft.mouseover" end="arrowLeft.mouseout"/>
                  </use>
                  <path fill="none" stroke="white" stroke-width="1.5" d="M0,-3.0v7 M-2.5,-0.5L0,-3.0L2.5,-0.5"/>
                </g>
        </g>
        <svg viewBox="0 0 15 15" width="100%" height="30px" preserveAspectRatio="xMaxYMin meet">
         <g id="arrow_out" transform="scale(0.3 0.3)">
          <a xlink:href="DigitalCurrentClusterIntegrator_8cxx__incl_org.svg" target="_base">
           <rect id="button" ry="5" rx="5" y="6" x="6" height="38" width="38"
                fill="#f2f5e9" fill-opacity="0.5" stroke="#606060" stroke-width="1.0"/>
           <path id="arrow"
             d="M 11.500037,31.436501 C 11.940474,20.09759 22.043105,11.32322 32.158766,21.979434 L 37.068811,17.246167 C 37.068811,17.246167 37.088388,32 37.088388,32 L 22.160133,31.978069 C 22.160133,31.978069 26.997745,27.140456 26.997745,27.140456 C 18.528582,18.264221 13.291696,25.230495 11.500037,31.436501 z"
             style="fill:#404040;"/>
          </a>
         </g>
        </svg>
</svg>
