<?xml version="1.0" encoding="UTF-8" standalone="no"?>
<!DOCTYPE svg PUBLIC "-//W3C//DTD SVG 1.1//EN"
 "http://www.w3.org/Graphics/SVG/1.1/DTD/svg11.dtd">
<!-- Generated by graphviz version 2.40.1 (20161225.0304)
 -->
<!-- Title: o2::mch::raw::DataBlock Pages: 1 -->
<svg width="320pt" height="287pt"
 viewBox="0.00 0.00 320.00 287.00" xmlns="http://www.w3.org/2000/svg" xmlns:xlink="http://www.w3.org/1999/xlink">
<g id="graph0" class="graph" transform="scale(1 1) rotate(0) translate(4 283)">
<title>o2::mch::raw::DataBlock</title>
<!-- Node1 -->
<g id="node1" class="node">
<title>Node1</title>
<polygon fill="#bfbfbf" stroke="#000000" points="53,-.5 53,-57.5 178,-57.5 178,-.5 53,-.5"/>
<text text-anchor="middle" x="115.5" y="-45.5" font-family="Helvetica,sans-Serif" font-size="10.00" fill="#000000">o2::mch::raw::DataBlock</text>
<polyline fill="none" stroke="#000000" points="53,-38.5 178,-38.5 "/>
<text text-anchor="middle" x="115.5" y="-26.5" font-family="Helvetica,sans-Serif" font-size="10.00" fill="#000000"> </text>
<polyline fill="none" stroke="#000000" points="53,-19.5 178,-19.5 "/>
<text text-anchor="start" x="61" y="-7.5" font-family="Helvetica,sans-Serif" font-size="10.00" fill="#000000">+ size()</text>
</g>
<!-- Node2 -->
<g id="node2" class="node">
<title>Node2</title>
<polygon fill="none" stroke="#bfbfbf" points="0,-105.5 0,-162.5 121,-162.5 121,-105.5 0,-105.5"/>
<text text-anchor="middle" x="60.5" y="-150.5" font-family="Helvetica,sans-Serif" font-size="10.00" fill="#000000">span&lt; const std::byte &gt;</text>
<polyline fill="none" stroke="#bfbfbf" points="0,-143.5 121,-143.5 "/>
<text text-anchor="middle" x="60.5" y="-131.5" font-family="Helvetica,sans-Serif" font-size="10.00" fill="#000000"> </text>
<polyline fill="none" stroke="#bfbfbf" points="0,-124.5 121,-124.5 "/>
<text text-anchor="middle" x="60.5" y="-112.5" font-family="Helvetica,sans-Serif" font-size="10.00" fill="#000000"> </text>
</g>
<!-- Node2&#45;&gt;Node1 -->
<g id="edge1" class="edge">
<title>Node2&#45;&gt;Node1</title>
<path fill="none" stroke="#404040" d="M75.529,-105.3083C81.4707,-93.9651 88.3978,-80.7406 94.8002,-68.5178"/>
<polygon fill="none" stroke="#404040" points="94.921,-68.287 94.1618,-61.116 100.4892,-57.657 101.2484,-64.8281 94.921,-68.287"/>
<text text-anchor="middle" x="112" y="-79" font-family="Helvetica,sans-Serif" font-size="10.00" fill="#000000"> +payload</text>
</g>
<!-- Node3 -->
<g id="node3" class="node">
<title>Node3</title>
<g id="a_node3"><a xlink:href="../../dc/d33/structo2_1_1mch_1_1raw_1_1DataBlockHeader.html" target="_top" xlink:title="A lightweight struct to describe a MCH Raw Data Block. ">
<polygon fill="none" stroke="#000000" points="139,-105.5 139,-162.5 296,-162.5 296,-105.5 139,-105.5"/>
<text text-anchor="middle" x="217.5" y="-150.5" font-family="Helvetica,sans-Serif" font-size="10.00" fill="#000000">o2::mch::raw::DataBlockHeader</text>
<polyline fill="none" stroke="#000000" points="139,-143.5 296,-143.5 "/>
<text text-anchor="middle" x="217.5" y="-131.5" font-family="Helvetica,sans-Serif" font-size="10.00" fill="#000000"> </text>
<polyline fill="none" stroke="#000000" points="139,-124.5 296,-124.5 "/>
<text text-anchor="middle" x="217.5" y="-112.5" font-family="Helvetica,sans-Serif" font-size="10.00" fill="#000000"> </text>
</a>
</g>
</g>
<!-- Node3&#45;&gt;Node1 -->
<g id="edge2" class="edge">
<title>Node3&#45;&gt;Node1</title>
<path fill="none" stroke="#404040" d="M189.6281,-105.3083C177.9343,-93.2706 164.1824,-79.1142 151.7194,-66.2847"/>
<polygon fill="none" stroke="#404040" points="151.6997,-66.2644 144.6499,-64.7479 143.3382,-57.657 150.3881,-59.1736 151.6997,-66.2644"/>
<text text-anchor="middle" x="189" y="-79" font-family="Helvetica,sans-Serif" font-size="10.00" fill="#000000"> +header</text>
</g>
<!-- Node4 -->
<g id="node4" class="node">
<title>Node4</title>
<g id="a_node4"><a xlink:href="../../d6/d30/classuint64__t.html" target="_top" xlink:title="{uint64_t\n||}">
<polygon fill="none" stroke="#000000" points="106,-221.5 106,-278.5 157,-278.5 157,-221.5 106,-221.5"/>
<text text-anchor="middle" x="131.5" y="-266.5" font-family="Helvetica,sans-Serif" font-size="10.00" fill="#000000">uint64_t</text>
<polyline fill="none" stroke="#000000" points="106,-259.5 157,-259.5 "/>
<text text-anchor="middle" x="131.5" y="-247.5" font-family="Helvetica,sans-Serif" font-size="10.00" fill="#000000"> </text>
<polyline fill="none" stroke="#000000" points="106,-240.5 157,-240.5 "/>
<text text-anchor="middle" x="131.5" y="-228.5" font-family="Helvetica,sans-Serif" font-size="10.00" fill="#000000"> </text>
</a>
</g>
</g>
<!-- Node4&#45;&gt;Node3 -->
<g id="edge3" class="edge">
<title>Node4&#45;&gt;Node3</title>
<path fill="none" stroke="#404040" d="M134.8828,-221.2332C137.5179,-208.0532 142.1974,-192.7814 150.5,-181 152.9478,-177.5266 155.738,-174.2233 158.7573,-171.0978"/>
<polygon fill="none" stroke="#404040" points="158.9628,-170.908 160.6568,-163.8987 167.7785,-162.7665 166.0845,-169.7758 158.9628,-170.908"/>
<text text-anchor="middle" x="182" y="-189.5" font-family="Helvetica,sans-Serif" font-size="10.00" fill="#000000"> +payloadSize</text>
</g>
<!-- Node5 -->
<g id="node5" class="node">
<title>Node5</title>
<polygon fill="none" stroke="#bfbfbf" points="192,-221.5 192,-278.5 243,-278.5 243,-221.5 192,-221.5"/>
<text text-anchor="middle" x="217.5" y="-266.5" font-family="Helvetica,sans-Serif" font-size="10.00" fill="#000000">uint16_t</text>
<polyline fill="none" stroke="#bfbfbf" points="192,-259.5 243,-259.5 "/>
<text text-anchor="middle" x="217.5" y="-247.5" font-family="Helvetica,sans-Serif" font-size="10.00" fill="#000000"> </text>
<polyline fill="none" stroke="#bfbfbf" points="192,-240.5 243,-240.5 "/>
<text text-anchor="middle" x="217.5" y="-228.5" font-family="Helvetica,sans-Serif" font-size="10.00" fill="#000000"> </text>
</g>
<!-- Node5&#45;&gt;Node3 -->
<g id="edge4" class="edge">
<title>Node5&#45;&gt;Node3</title>
<path fill="none" stroke="#404040" d="M217.5,-221.3258C217.5,-207.3834 217.5,-190.3727 217.5,-175.0815"/>
<polygon fill="none" stroke="#404040" points="217.5001,-174.7463 213.5,-168.7464 217.5,-162.7463 221.5,-168.7463 217.5001,-174.7463"/>
<text text-anchor="middle" x="235.5" y="-195" font-family="Helvetica,sans-Serif" font-size="10.00" fill="#000000"> +bc</text>
<text text-anchor="middle" x="235.5" y="-184" font-family="Helvetica,sans-Serif" font-size="10.00" fill="#000000">+solarId</text>
</g>
<!-- Node6 -->
<g id="node6" class="node">
<title>Node6</title>
<g id="a_node6"><a xlink:href="../../d3/d87/classuint32__t.html" target="_top" xlink:title="{uint32_t\n||}">
<polygon fill="none" stroke="#000000" points="261,-221.5 261,-278.5 312,-278.5 312,-221.5 261,-221.5"/>
<text text-anchor="middle" x="286.5" y="-266.5" font-family="Helvetica,sans-Serif" font-size="10.00" fill="#000000">uint32_t</text>
<polyline fill="none" stroke="#000000" points="261,-259.5 312,-259.5 "/>
<text text-anchor="middle" x="286.5" y="-247.5" font-family="Helvetica,sans-Serif" font-size="10.00" fill="#000000"> </text>
<polyline fill="none" stroke="#000000" points="261,-240.5 312,-240.5 "/>
<text text-anchor="middle" x="286.5" y="-228.5" font-family="Helvetica,sans-Serif" font-size="10.00" fill="#000000"> </text>
</a>
</g>
</g>
<!-- Node6&#45;&gt;Node3 -->
<g id="edge5" class="edge">
<title>Node6&#45;&gt;Node3</title>
<path fill="none" stroke="#404040" d="M276.6646,-221.1704C271.7454,-208.416 265.1935,-193.5065 257.5,-181 255.6842,-178.0482 253.6887,-175.0921 251.5879,-172.1798"/>
<polygon fill="none" stroke="#404040" points="251.469,-172.0253 244.6391,-169.7116 244.1479,-162.5172 250.9778,-164.8309 251.469,-172.0253"/>
<text text-anchor="middle" x="282.5" y="-189.5" font-family="Helvetica,sans-Serif" font-size="10.00" fill="#000000"> +orbit</text>
</g>
</g>
</svg>
