<?xml version="1.0" encoding="UTF-8" standalone="no"?>
<!DOCTYPE svg PUBLIC "-//W3C//DTD SVG 1.1//EN"
 "http://www.w3.org/Graphics/SVG/1.1/DTD/svg11.dtd">
<!-- Generated by graphviz version 2.40.1 (20161225.0304)
 -->
<!-- Title: /home/runner/work/AliceO2/AliceO2/Detectors/TOF/calibration/src/CalibTOFapi.cxx Pages: 1 -->
<!--zoomable 397 -->
<svg id="main" version="1.1" xmlns="http://www.w3.org/2000/svg" xmlns:xlink="http://www.w3.org/1999/xlink" xml:space="preserve" onload="init(evt)">
<style type="text/css"><![CDATA[
.edge:hover path { stroke: red; }
.edge:hover polygon { stroke: red; fill: red; }
]]></style>
<script type="text/javascript"><![CDATA[
var edges = document.getElementsByTagName('g');
if (edges && edges.length) {
  for (var i=0;i<edges.length;i++) {
    if (edges[i].id.substr(0,4)=='edge') {
      edges[i].setAttribute('class','edge');
    }
  }
}
]]></script>
        <defs>
                <circle id="rim" cx="0" cy="0" r="7"/>
                <circle id="rim2" cx="0" cy="0" r="3.5"/>
                <g id="zoomPlus">
                        <use xlink:href="#rim" fill="#404040">
                                <set attributeName="fill" to="#808080" begin="zoomplus.mouseover" end="zoomplus.mouseout"/>
                        </use>
                        <path d="M-4,0h8M0,-4v8" fill="none" stroke="white" stroke-width="1.5" pointer-events="none"/>
                </g>
                <g id="zoomMin">
                        <use xlink:href="#rim" fill="#404040">
                                <set attributeName="fill" to="#808080" begin="zoomminus.mouseover" end="zoomminus.mouseout"/>
                        </use>
                        <path d="M-4,0h8" fill="none" stroke="white" stroke-width="1.5" pointer-events="none"/>
                </g>
                <g id="dirArrow">
                        <path fill="none" stroke="white" stroke-width="1.5" d="M0,-3.0v7 M-2.5,-0.5L0,-3.0L2.5,-0.5"/>
                </g>
               <g id="resetDef">
                       <use xlink:href="#rim2" fill="#404040">
                               <set attributeName="fill" to="#808080" begin="reset.mouseover" end="reset.mouseout"/>
                       </use>
               </g>
        </defs>

<script type="text/javascript">
var viewWidth = 824;
var viewHeight = 397;
var sectionId = 'dynsection-0';
</script>
<script xlink:href="../../svgpan.js"/>
<svg id="graph" class="graph">
<g id="viewport">
<title>/home/runner/work/AliceO2/AliceO2/Detectors/TOF/calibration/src/CalibTOFapi.cxx</title>
<!-- Node0 -->
<g id="node1" class="node">
<title>Node0</title>
<polygon fill="#bfbfbf" stroke="#000000" points="472,-347.5 472,-388.5 629,-388.5 629,-347.5 472,-347.5"/>
<text text-anchor="start" x="480" y="-376.5" font-family="Helvetica,sans-Serif" font-size="10.00" fill="#000000">/home/runner/work/AliceO2</text>
<text text-anchor="start" x="480" y="-365.5" font-family="Helvetica,sans-Serif" font-size="10.00" fill="#000000">/AliceO2/Detectors/TOF</text>
<text text-anchor="middle" x="550.5" y="-354.5" font-family="Helvetica,sans-Serif" font-size="10.00" fill="#000000">/calibration/src/CalibTOFapi.cxx</text>
</g>
<!-- Node1 -->
<g id="node2" class="node">
<title>Node1</title>
<g id="a_node2"><a xlink:href="../../d7/d65/CalibTOFapi_8h.html" target="_top" xlink:title="Class to use TOF calibration (decalibration, calibration) ">
<polygon fill="none" stroke="#000000" points="412,-291.5 412,-310.5 561,-310.5 561,-291.5 412,-291.5"/>
<text text-anchor="middle" x="486.5" y="-298.5" font-family="Helvetica,sans-Serif" font-size="10.00" fill="#000000">TOFCalibration/CalibTOFapi.h</text>
</a>
</g>
</g>
<!-- Node0&#45;&gt;Node1 -->
<g id="edge1" class="edge">
<title>Node0&#45;&gt;Node1</title>
<path fill="none" stroke="#191970" d="M530.6008,-347.168C521.7232,-337.8742 511.3883,-327.0549 502.9556,-318.227"/>
<polygon fill="#191970" stroke="#191970" points="505.2808,-315.594 495.8425,-310.7805 500.219,-320.4292 505.2808,-315.594"/>
</g>
<!-- Node21 -->
<g id="node22" class="node">
<title>Node21</title>
<polygon fill="none" stroke="#bfbfbf" points="579,-291.5 579,-310.5 650,-310.5 650,-291.5 579,-291.5"/>
<text text-anchor="middle" x="614.5" y="-298.5" font-family="Helvetica,sans-Serif" font-size="10.00" fill="#000000">FairLogger.h</text>
</g>
<!-- Node0&#45;&gt;Node21 -->
<g id="edge27" class="edge">
<title>Node0&#45;&gt;Node21</title>
<path fill="none" stroke="#191970" d="M570.3992,-347.168C579.2768,-337.8742 589.6117,-327.0549 598.0444,-318.227"/>
<polygon fill="#191970" stroke="#191970" points="600.781,-320.4292 605.1575,-310.7805 595.7192,-315.594 600.781,-320.4292"/>
</g>
<!-- Node2 -->
<g id="node3" class="node">
<title>Node2</title>
<polygon fill="none" stroke="#bfbfbf" points="253.5,-230 253.5,-249 307.5,-249 307.5,-230 253.5,-230"/>
<text text-anchor="middle" x="280.5" y="-237" font-family="Helvetica,sans-Serif" font-size="10.00" fill="#000000">iostream</text>
</g>
<!-- Node1&#45;&gt;Node2 -->
<g id="edge2" class="edge">
<title>Node1&#45;&gt;Node2</title>
<path fill="none" stroke="#191970" d="M443.7804,-291.4448C408.8476,-283.1714 358.3973,-270.1667 315.5,-255 313.6673,-254.352 311.7965,-253.6498 309.9203,-252.9142"/>
<polygon fill="#191970" stroke="#191970" points="311.2214,-249.6647 300.6442,-249.054 308.532,-256.1275 311.2214,-249.6647"/>
</g>
<!-- Node3 -->
<g id="node4" class="node">
<title>Node3</title>
<g id="a_node4"><a xlink:href="../../d5/df3/BasicCCDBManager_8h.html" target="_top" xlink:title="CCDB/BasicCCDBManager.h">
<polygon fill="none" stroke="#000000" points="325,-230 325,-249 474,-249 474,-230 325,-230"/>
<text text-anchor="middle" x="399.5" y="-237" font-family="Helvetica,sans-Serif" font-size="10.00" fill="#000000">CCDB/BasicCCDBManager.h</text>
</a>
</g>
</g>
<!-- Node1&#45;&gt;Node3 -->
<g id="edge3" class="edge">
<title>Node1&#45;&gt;Node3</title>
<path fill="none" stroke="#191970" d="M472.9063,-291.3906C459.1157,-281.6421 437.5528,-266.3994 421.359,-254.9521"/>
<polygon fill="#191970" stroke="#191970" points="423.1844,-251.9563 412.9983,-249.0419 419.1437,-257.6723 423.1844,-251.9563"/>
</g>
<!-- Node17 -->
<g id="node18" class="node">
<title>Node17</title>
<g id="a_node18"><a xlink:href="../../d8/de0/CalibLHCphaseTOF_8h.html" target="_top" xlink:title="Class to store the output of the matching to TOF for calibration. ">
<polygon fill="none" stroke="#000000" points="492,-224.5 492,-254.5 657,-254.5 657,-224.5 492,-224.5"/>
<text text-anchor="start" x="500" y="-242.5" font-family="Helvetica,sans-Serif" font-size="10.00" fill="#000000">DataFormatsTOF/CalibLHCphase</text>
<text text-anchor="middle" x="574.5" y="-231.5" font-family="Helvetica,sans-Serif" font-size="10.00" fill="#000000">TOF.h</text>
</a>
</g>
</g>
<!-- Node1&#45;&gt;Node17 -->
<g id="edge20" class="edge">
<title>Node1&#45;&gt;Node17</title>
<path fill="none" stroke="#191970" d="M500.25,-291.3906C512.0495,-283.1444 529.4742,-270.9669 544.4788,-260.4807"/>
<polygon fill="#191970" stroke="#191970" points="546.781,-263.1419 552.9728,-254.5446 542.7711,-257.4042 546.781,-263.1419"/>
</g>
<!-- Node19 -->
<g id="node20" class="node">
<title>Node19</title>
<g id="a_node20"><a xlink:href="../../d3/d81/CalibTimeSlewingParamTOF_8h.html" target="_top" xlink:title="Class to store the output of the matching to TOF for calibration. ">
<polygon fill="none" stroke="#000000" points="675.5,-224.5 675.5,-254.5 815.5,-254.5 815.5,-224.5 675.5,-224.5"/>
<text text-anchor="start" x="683.5" y="-242.5" font-family="Helvetica,sans-Serif" font-size="10.00" fill="#000000">DataFormatsTOF/CalibTime</text>
<text text-anchor="middle" x="745.5" y="-231.5" font-family="Helvetica,sans-Serif" font-size="10.00" fill="#000000">SlewingParamTOF.h</text>
</a>
</g>
</g>
<!-- Node1&#45;&gt;Node19 -->
<g id="edge23" class="edge">
<title>Node1&#45;&gt;Node19</title>
<path fill="none" stroke="#191970" d="M526.6846,-291.4581C565.4187,-282.2606 624.9381,-268.1276 672.1282,-256.9223"/>
<polygon fill="#191970" stroke="#191970" points="673.0782,-260.2941 681.999,-254.5784 671.4609,-253.4835 673.0782,-260.2941"/>
</g>
<!-- Node4 -->
<g id="node5" class="node">
<title>Node4</title>
<g id="a_node5"><a xlink:href="../../dd/d3e/CcdbApi_8h.html" target="_top" xlink:title="CCDB/CcdbApi.h">
<polygon fill="none" stroke="#000000" points="95,-168.5 95,-187.5 190,-187.5 190,-168.5 95,-168.5"/>
<text text-anchor="middle" x="142.5" y="-175.5" font-family="Helvetica,sans-Serif" font-size="10.00" fill="#000000">CCDB/CcdbApi.h</text>
</a>
</g>
</g>
<!-- Node3&#45;&gt;Node4 -->
<g id="edge4" class="edge">
<title>Node3&#45;&gt;Node4</title>
<path fill="none" stroke="#191970" d="M359.6257,-229.9581C314.6094,-219.1857 241.3002,-201.6428 192.4921,-189.9631"/>
<polygon fill="#191970" stroke="#191970" points="193.0078,-186.4877 182.4678,-187.5643 191.3787,-193.2955 193.0078,-186.4877"/>
</g>
<!-- Node5 -->
<g id="node6" class="node">
<title>Node5</title>
<polygon fill="none" stroke="#bfbfbf" points="439,-112.5 439,-131.5 480,-131.5 480,-112.5 439,-112.5"/>
<text text-anchor="middle" x="459.5" y="-119.5" font-family="Helvetica,sans-Serif" font-size="10.00" fill="#000000">string</text>
</g>
<!-- Node3&#45;&gt;Node5 -->
<g id="edge16" class="edge">
<title>Node3&#45;&gt;Node5</title>
<path fill="none" stroke="#191970" d="M424.9821,-229.8529C442.6723,-221.6533 464.8961,-207.9948 475.5,-188 483.3234,-173.2482 477.5937,-154.6188 470.9124,-140.9171"/>
<polygon fill="#191970" stroke="#191970" points="473.8928,-139.0703 466.0593,-131.9368 467.7345,-142.3984 473.8928,-139.0703"/>
</g>
<!-- Node6 -->
<g id="node7" class="node">
<title>Node6</title>
<polygon fill="none" stroke="#bfbfbf" points="498.5,-112.5 498.5,-131.5 550.5,-131.5 550.5,-112.5 498.5,-112.5"/>
<text text-anchor="middle" x="524.5" y="-119.5" font-family="Helvetica,sans-Serif" font-size="10.00" fill="#000000">memory</text>
</g>
<!-- Node3&#45;&gt;Node6 -->
<g id="edge19" class="edge">
<title>Node3&#45;&gt;Node6</title>
<path fill="none" stroke="#191970" d="M424.8848,-229.9033C444.7453,-221.3619 472.0051,-207.2363 490.5,-188 503.3137,-174.6725 512.4423,-155.5599 517.9925,-141.329"/>
<polygon fill="#191970" stroke="#191970" points="521.4113,-142.1689 521.5411,-131.5748 514.8331,-139.7757 521.4113,-142.1689"/>
</g>
<!-- Node7 -->
<g id="node8" class="node">
<title>Node7</title>
<polygon fill="none" stroke="#bfbfbf" points="0,-112.5 0,-131.5 35,-131.5 35,-112.5 0,-112.5"/>
<text text-anchor="middle" x="17.5" y="-119.5" font-family="Helvetica,sans-Serif" font-size="10.00" fill="#000000">map</text>
</g>
<!-- Node3&#45;&gt;Node7 -->
<g id="edge17" class="edge">
<title>Node3&#45;&gt;Node7</title>
<path fill="none" stroke="#191970" d="M349.9487,-229.9947C338.9472,-227.9546 327.3364,-225.8558 316.5,-224 214.085,-206.4608 178.4878,-234.3649 85.5,-188 62.8539,-176.7084 42.8729,-155.1597 30.5297,-139.7556"/>
<polygon fill="#191970" stroke="#191970" points="33.0591,-137.304 24.1823,-131.52 27.5147,-141.5772 33.0591,-137.304"/>
</g>
<!-- Node15 -->
<g id="node16" class="node">
<title>Node15</title>
<g id="a_node16"><a xlink:href="../../da/d86/CCDBTimeStampUtils_8h.html" target="_top" xlink:title="CCDB/CCDBTimeStampUtils.h">
<polygon fill="none" stroke="#000000" points="208,-168.5 208,-187.5 365,-187.5 365,-168.5 208,-168.5"/>
<text text-anchor="middle" x="286.5" y="-175.5" font-family="Helvetica,sans-Serif" font-size="10.00" fill="#000000">CCDB/CCDBTimeStampUtils.h</text>
</a>
</g>
</g>
<!-- Node3&#45;&gt;Node15 -->
<g id="edge15" class="edge">
<title>Node3&#45;&gt;Node15</title>
<path fill="none" stroke="#191970" d="M381.8438,-229.8906C363.3514,-219.8262 334.099,-203.9057 312.8692,-192.3514"/>
<polygon fill="#191970" stroke="#191970" points="314.4888,-189.2481 304.0323,-187.5419 311.1425,-195.3965 314.4888,-189.2481"/>
</g>
<!-- Node16 -->
<g id="node17" class="node">
<title>Node16</title>
<polygon fill="none" stroke="#bfbfbf" points="383,-168.5 383,-187.5 466,-187.5 466,-168.5 383,-168.5"/>
<text text-anchor="middle" x="424.5" y="-175.5" font-family="Helvetica,sans-Serif" font-size="10.00" fill="#000000">unordered_map</text>
</g>
<!-- Node3&#45;&gt;Node16 -->
<g id="edge18" class="edge">
<title>Node3&#45;&gt;Node16</title>
<path fill="none" stroke="#191970" d="M403.4063,-229.8906C406.9446,-221.1862 412.2636,-208.1015 416.675,-197.2494"/>
<polygon fill="#191970" stroke="#191970" points="420.0152,-198.3268 420.5387,-187.7449 413.5305,-195.6907 420.0152,-198.3268"/>
</g>
<!-- Node4&#45;&gt;Node5 -->
<g id="edge5" class="edge">
<title>Node4&#45;&gt;Node5</title>
<path fill="none" stroke="#191970" d="M190.1465,-169.4178C192.9718,-168.9319 195.7726,-168.456 198.5,-168 297.881,-151.3848 326.7909,-156.1934 429.1678,-131.7234"/>
<polygon fill="#191970" stroke="#191970" points="430.082,-135.1032 438.9751,-129.3445 428.4319,-128.3004 430.082,-135.1032"/>
</g>
<!-- Node4&#45;&gt;Node6 -->
<g id="edge6" class="edge">
<title>Node4&#45;&gt;Node6</title>
<path fill="none" stroke="#191970" d="M190.1302,-169.3154C192.9596,-168.8552 195.7657,-168.413 198.5,-168 324.212,-149.0137 360.0586,-157.5352 488.4212,-131.9624"/>
<polygon fill="#191970" stroke="#191970" points="489.1271,-135.3906 498.2347,-129.9775 487.7393,-128.5296 489.1271,-135.3906"/>
</g>
<!-- Node4&#45;&gt;Node7 -->
<g id="edge7" class="edge">
<title>Node4&#45;&gt;Node7</title>
<path fill="none" stroke="#191970" d="M121.0117,-168.3733C99.7566,-158.851 67.1714,-144.2528 44.2506,-133.9843"/>
<polygon fill="#191970" stroke="#191970" points="45.6374,-130.7704 35.0803,-129.876 42.7754,-137.1586 45.6374,-130.7704"/>
</g>
<!-- Node8 -->
<g id="node9" class="node">
<title>Node8</title>
<polygon fill="none" stroke="#bfbfbf" points="53,-112.5 53,-131.5 112,-131.5 112,-112.5 53,-112.5"/>
<text text-anchor="middle" x="82.5" y="-119.5" font-family="Helvetica,sans-Serif" font-size="10.00" fill="#000000">curl/curl.h</text>
</g>
<!-- Node4&#45;&gt;Node8 -->
<g id="edge8" class="edge">
<title>Node4&#45;&gt;Node8</title>
<path fill="none" stroke="#191970" d="M132.0488,-168.2455C123.2731,-160.0549 110.5446,-148.1749 100.186,-138.5069"/>
<polygon fill="#191970" stroke="#191970" points="102.5301,-135.9072 92.8314,-131.6427 97.7539,-141.0246 102.5301,-135.9072"/>
</g>
<!-- Node9 -->
<g id="node10" class="node">
<title>Node9</title>
<polygon fill="none" stroke="#bfbfbf" points="130,-112.5 130,-131.5 189,-131.5 189,-112.5 130,-112.5"/>
<text text-anchor="middle" x="159.5" y="-119.5" font-family="Helvetica,sans-Serif" font-size="10.00" fill="#000000">TObject.h</text>
</g>
<!-- Node4&#45;&gt;Node9 -->
<g id="edge9" class="edge">
<title>Node4&#45;&gt;Node9</title>
<path fill="none" stroke="#191970" d="M145.4612,-168.2455C147.7038,-160.8579 150.8577,-150.4689 153.6081,-141.4087"/>
<polygon fill="#191970" stroke="#191970" points="157.017,-142.2282 156.5728,-131.6427 150.3188,-140.1948 157.017,-142.2282"/>
</g>
<!-- Node10 -->
<g id="node11" class="node">
<title>Node10</title>
<polygon fill="none" stroke="#bfbfbf" points="207,-112.5 207,-131.5 278,-131.5 278,-112.5 207,-112.5"/>
<text text-anchor="middle" x="242.5" y="-119.5" font-family="Helvetica,sans-Serif" font-size="10.00" fill="#000000">TMessage.h</text>
</g>
<!-- Node4&#45;&gt;Node10 -->
<g id="edge10" class="edge">
<title>Node4&#45;&gt;Node10</title>
<path fill="none" stroke="#191970" d="M159.9187,-168.2455C175.5485,-159.4928 198.7019,-146.527 216.5185,-136.5496"/>
<polygon fill="#191970" stroke="#191970" points="218.266,-139.5825 225.2809,-131.6427 214.8457,-133.475 218.266,-139.5825"/>
</g>
<!-- Node11 -->
<g id="node12" class="node">
<title>Node11</title>
<g id="a_node12"><a xlink:href="../../d4/dab/CcdbObjectInfo_8h.html" target="_top" xlink:title="CCDB/CcdbObjectInfo.h">
<polygon fill="none" stroke="#000000" points="296,-112.5 296,-131.5 421,-131.5 421,-112.5 296,-112.5"/>
<text text-anchor="middle" x="358.5" y="-119.5" font-family="Helvetica,sans-Serif" font-size="10.00" fill="#000000">CCDB/CcdbObjectInfo.h</text>
</a>
</g>
</g>
<!-- Node4&#45;&gt;Node11 -->
<g id="edge11" class="edge">
<title>Node4&#45;&gt;Node11</title>
<path fill="none" stroke="#191970" d="M179.6317,-168.3733C216.3267,-158.8598 272.5639,-144.2797 312.1651,-134.0127"/>
<polygon fill="#191970" stroke="#191970" points="313.0512,-137.3988 321.8528,-131.5011 311.2944,-130.6228 313.0512,-137.3988"/>
</g>
<!-- Node12 -->
<g id="node13" class="node">
<title>Node12</title>
<polygon fill="none" stroke="#bfbfbf" points="550.5,-56.5 550.5,-75.5 606.5,-75.5 606.5,-56.5 550.5,-56.5"/>
<text text-anchor="middle" x="578.5" y="-63.5" font-family="Helvetica,sans-Serif" font-size="10.00" fill="#000000">Rtypes.h</text>
</g>
<!-- Node11&#45;&gt;Node12 -->
<g id="edge12" class="edge">
<title>Node11&#45;&gt;Node12</title>
<path fill="none" stroke="#191970" d="M396.3193,-112.3733C436.6385,-102.1102 500.1217,-85.9508 540.5072,-75.6709"/>
<polygon fill="#191970" stroke="#191970" points="541.4213,-79.0499 550.2488,-73.1912 539.6945,-72.2662 541.4213,-79.0499"/>
</g>
<!-- Node13 -->
<g id="node14" class="node">
<title>Node13</title>
<g id="a_node14"><a xlink:href="../../dd/da4/Logger_8h.html" target="_top" xlink:title="Framework/Logger.h">
<polygon fill="none" stroke="#000000" points="305.5,-56.5 305.5,-75.5 411.5,-75.5 411.5,-56.5 305.5,-56.5"/>
<text text-anchor="middle" x="358.5" y="-63.5" font-family="Helvetica,sans-Serif" font-size="10.00" fill="#000000">Framework/Logger.h</text>
</a>
</g>
</g>
<!-- Node11&#45;&gt;Node13 -->
<g id="edge13" class="edge">
<title>Node11&#45;&gt;Node13</title>
<path fill="none" stroke="#191970" d="M358.5,-112.2455C358.5,-104.9382 358.5,-94.6944 358.5,-85.7046"/>
<polygon fill="#191970" stroke="#191970" points="362.0001,-85.6426 358.5,-75.6427 355.0001,-85.6427 362.0001,-85.6426"/>
</g>
<!-- Node14 -->
<g id="node15" class="node">
<title>Node14</title>
<polygon fill="none" stroke="#bfbfbf" points="310,-.5 310,-19.5 407,-19.5 407,-.5 310,-.5"/>
<text text-anchor="middle" x="358.5" y="-7.5" font-family="Helvetica,sans-Serif" font-size="10.00" fill="#000000">fairlogger/Logger.h</text>
</g>
<!-- Node13&#45;&gt;Node14 -->
<g id="edge14" class="edge">
<title>Node13&#45;&gt;Node14</title>
<path fill="none" stroke="#191970" d="M358.5,-56.2455C358.5,-48.9382 358.5,-38.6944 358.5,-29.7046"/>
<polygon fill="#191970" stroke="#191970" points="362.0001,-29.6426 358.5,-19.6427 355.0001,-29.6427 362.0001,-29.6426"/>
</g>
<!-- Node17&#45;&gt;Node12 -->
<g id="edge22" class="edge">
<title>Node17&#45;&gt;Node12</title>
<path fill="none" stroke="#191970" d="M574.848,-224.4065C575.5686,-193.1485 577.2246,-121.3214 578.0355,-86.1492"/>
<polygon fill="#191970" stroke="#191970" points="581.544,-85.816 578.2755,-75.738 574.5458,-85.6546 581.544,-85.816"/>
</g>
<!-- Node18 -->
<g id="node19" class="node">
<title>Node18</title>
<polygon fill="none" stroke="#bfbfbf" points="613.5,-168.5 613.5,-187.5 657.5,-187.5 657.5,-168.5 613.5,-168.5"/>
<text text-anchor="middle" x="635.5" y="-175.5" font-family="Helvetica,sans-Serif" font-size="10.00" fill="#000000">vector</text>
</g>
<!-- Node17&#45;&gt;Node18 -->
<g id="edge21" class="edge">
<title>Node17&#45;&gt;Node18</title>
<path fill="none" stroke="#191970" d="M589.5787,-224.2977C598.3989,-215.4052 609.5541,-204.1586 618.6612,-194.9769"/>
<polygon fill="#191970" stroke="#191970" points="621.1759,-197.4116 625.7331,-187.8469 616.206,-192.4821 621.1759,-197.4116"/>
</g>
<!-- Node19&#45;&gt;Node12 -->
<g id="edge26" class="edge">
<title>Node19&#45;&gt;Node12</title>
<path fill="none" stroke="#191970" d="M744.5113,-224.2538C742.8516,-208.8282 738.4063,-184.9072 726.5,-168 697.1463,-126.3169 644.9825,-96.2947 611.0772,-80.0262"/>
<polygon fill="#191970" stroke="#191970" points="612.1521,-76.6658 601.6098,-75.6126 609.1944,-83.0102 612.1521,-76.6658"/>
</g>
<!-- Node19&#45;&gt;Node18 -->
<g id="edge24" class="edge">
<title>Node19&#45;&gt;Node18</title>
<path fill="none" stroke="#191970" d="M718.591,-224.4554C701.2032,-214.734 678.6951,-202.15 661.4916,-192.5317"/>
<polygon fill="#191970" stroke="#191970" points="662.9826,-189.3554 652.5461,-187.5303 659.5665,-195.4653 662.9826,-189.3554"/>
</g>
<!-- Node20 -->
<g id="node21" class="node">
<title>Node20</title>
<polygon fill="none" stroke="#bfbfbf" points="679.5,-168.5 679.5,-187.5 717.5,-187.5 717.5,-168.5 679.5,-168.5"/>
<text text-anchor="middle" x="698.5" y="-175.5" font-family="Helvetica,sans-Serif" font-size="10.00" fill="#000000">array</text>
</g>
<!-- Node19&#45;&gt;Node20 -->
<g id="edge25" class="edge">
<title>Node19&#45;&gt;Node20</title>
<path fill="none" stroke="#191970" d="M733.882,-224.2977C727.29,-215.672 719.0052,-204.8312 712.1099,-195.8087"/>
<polygon fill="#191970" stroke="#191970" points="714.8783,-193.6671 706.0253,-187.8469 709.3165,-197.9176 714.8783,-193.6671"/>
</g>
</g>
</svg>
        <g id="navigator" transform="translate(0 0)" fill="#404254">
                <rect fill="#f2f5e9" fill-opacity="0.5" stroke="#606060" stroke-width=".5" x="0" y="0" width="60" height="60"/>
                <use id="zoomplus" xlink:href="#zoomPlus" x="17" y="9" onmousedown="handleZoom(evt,'in')"/>
                <use id="zoomminus" xlink:href="#zoomMin" x="42" y="9" onmousedown="handleZoom(evt,'out')"/>
                <use id="reset" xlink:href="#resetDef" x="30" y="36" onmousedown="handleReset()"/>
                <g id="arrowUp" xlink:href="#dirArrow" transform="translate(30 24)" onmousedown="handlePan(0,-1)">
                  <use xlink:href="#rim" fill="#404040">
                        <set attributeName="fill" to="#808080" begin="arrowUp.mouseover" end="arrowUp.mouseout"/>
                  </use>
                  <path fill="none" stroke="white" stroke-width="1.5" d="M0,-3.0v7 M-2.5,-0.5L0,-3.0L2.5,-0.5"/>
                </g>
                <g id="arrowRight" xlink:href="#dirArrow" transform="rotate(90) translate(36 -43)" onmousedown="handlePan(1,0)">
                  <use xlink:href="#rim" fill="#404040">
                        <set attributeName="fill" to="#808080" begin="arrowRight.mouseover" end="arrowRight.mouseout"/>
                  </use>
                  <path fill="none" stroke="white" stroke-width="1.5" d="M0,-3.0v7 M-2.5,-0.5L0,-3.0L2.5,-0.5"/>
                </g>
                <g id="arrowDown" xlink:href="#dirArrow" transform="rotate(180) translate(-30 -48)" onmousedown="handlePan(0,1)">
                  <use xlink:href="#rim" fill="#404040">
                        <set attributeName="fill" to="#808080" begin="arrowDown.mouseover" end="arrowDown.mouseout"/>
                  </use>
                  <path fill="none" stroke="white" stroke-width="1.5" d="M0,-3.0v7 M-2.5,-0.5L0,-3.0L2.5,-0.5"/>
                </g>
                <g id="arrowLeft" xlink:href="#dirArrow" transform="rotate(270) translate(-36 17)" onmousedown="handlePan(-1,0)">
                  <use xlink:href="#rim" fill="#404040">
                        <set attributeName="fill" to="#808080" begin="arrowLeft.mouseover" end="arrowLeft.mouseout"/>
                  </use>
                  <path fill="none" stroke="white" stroke-width="1.5" d="M0,-3.0v7 M-2.5,-0.5L0,-3.0L2.5,-0.5"/>
                </g>
        </g>
        <svg viewBox="0 0 15 15" width="100%" height="30px" preserveAspectRatio="xMaxYMin meet">
         <g id="arrow_out" transform="scale(0.3 0.3)">
          <a xlink:href="CalibTOFapi_8cxx__incl_org.svg" target="_base">
           <rect id="button" ry="5" rx="5" y="6" x="6" height="38" width="38"
                fill="#f2f5e9" fill-opacity="0.5" stroke="#606060" stroke-width="1.0"/>
           <path id="arrow"
             d="M 11.500037,31.436501 C 11.940474,20.09759 22.043105,11.32322 32.158766,21.979434 L 37.068811,17.246167 C 37.068811,17.246167 37.088388,32 37.088388,32 L 22.160133,31.978069 C 22.160133,31.978069 26.997745,27.140456 26.997745,27.140456 C 18.528582,18.264221 13.291696,25.230495 11.500037,31.436501 z"
             style="fill:#404040;"/>
          </a>
         </g>
        </svg>
</svg>
