<?xml version="1.0" encoding="UTF-8" standalone="no"?>
<!DOCTYPE svg PUBLIC "-//W3C//DTD SVG 1.1//EN"
 "http://www.w3.org/Graphics/SVG/1.1/DTD/svg11.dtd">
<!-- Generated by graphviz version 2.40.1 (20161225.0304)
 -->
<!-- Title: GPUTRDTrackPointData Pages: 1 -->
<svg width="193pt" height="276pt"
 viewBox="0.00 0.00 193.00 276.00" xmlns="http://www.w3.org/2000/svg" xmlns:xlink="http://www.w3.org/1999/xlink">
<g id="graph0" class="graph" transform="scale(1 1) rotate(0) translate(4 272)">
<title>GPUTRDTrackPointData</title>
<!-- Node1 -->
<g id="node1" class="node">
<title>Node1</title>
<polygon fill="#bfbfbf" stroke="#000000" points="43,-.5 43,-57.5 171,-57.5 171,-.5 43,-.5"/>
<text text-anchor="middle" x="107" y="-45.5" font-family="Helvetica,sans-Serif" font-size="10.00" fill="#000000">GPUTRDTrackPointData</text>
<polyline fill="none" stroke="#000000" points="43,-38.5 171,-38.5 "/>
<text text-anchor="middle" x="107" y="-26.5" font-family="Helvetica,sans-Serif" font-size="10.00" fill="#000000"> </text>
<polyline fill="none" stroke="#000000" points="43,-19.5 171,-19.5 "/>
<text text-anchor="middle" x="107" y="-7.5" font-family="Helvetica,sans-Serif" font-size="10.00" fill="#000000"> </text>
</g>
<!-- Node2 -->
<g id="node2" class="node">
<title>Node2</title>
<g id="a_node2"><a xlink:href="../../d2/d1d/structGPUTRDTrackPoint.html" target="_top" xlink:title="{GPUTRDTrackPoint\n||}">
<polygon fill="none" stroke="#000000" points="3.5,-105.5 3.5,-162.5 110.5,-162.5 110.5,-105.5 3.5,-105.5"/>
<text text-anchor="middle" x="57" y="-150.5" font-family="Helvetica,sans-Serif" font-size="10.00" fill="#000000">GPUTRDTrackPoint</text>
<polyline fill="none" stroke="#000000" points="3.5,-143.5 110.5,-143.5 "/>
<text text-anchor="middle" x="57" y="-131.5" font-family="Helvetica,sans-Serif" font-size="10.00" fill="#000000"> </text>
<polyline fill="none" stroke="#000000" points="3.5,-124.5 110.5,-124.5 "/>
<text text-anchor="middle" x="57" y="-112.5" font-family="Helvetica,sans-Serif" font-size="10.00" fill="#000000"> </text>
</a>
</g>
</g>
<!-- Node2&#45;&gt;Node1 -->
<g id="edge1" class="edge">
<title>Node2&#45;&gt;Node1</title>
<path fill="none" stroke="#404040" d="M70.6627,-105.3083C76.0643,-93.9651 82.3616,-80.7406 88.182,-68.5178"/>
<polygon fill="none" stroke="#404040" points="88.1945,-68.4914 87.1627,-61.3544 93.3538,-57.657 94.3856,-64.7939 88.1945,-68.4914"/>
<text text-anchor="middle" x="104" y="-79" font-family="Helvetica,sans-Serif" font-size="10.00" fill="#000000"> +fPoints</text>
</g>
<!-- Node3 -->
<g id="node3" class="node">
<title>Node3</title>
<g id="a_node3"><a xlink:href="../../dc/d10/classshort.html" target="_top" xlink:title="{short\n||}">
<polygon fill="none" stroke="#000000" points="0,-210.5 0,-267.5 38,-267.5 38,-210.5 0,-210.5"/>
<text text-anchor="middle" x="19" y="-255.5" font-family="Helvetica,sans-Serif" font-size="10.00" fill="#000000">short</text>
<polyline fill="none" stroke="#000000" points="0,-248.5 38,-248.5 "/>
<text text-anchor="middle" x="19" y="-236.5" font-family="Helvetica,sans-Serif" font-size="10.00" fill="#000000"> </text>
<polyline fill="none" stroke="#000000" points="0,-229.5 38,-229.5 "/>
<text text-anchor="middle" x="19" y="-217.5" font-family="Helvetica,sans-Serif" font-size="10.00" fill="#000000"> </text>
</a>
</g>
</g>
<!-- Node3&#45;&gt;Node2 -->
<g id="edge2" class="edge">
<title>Node3&#45;&gt;Node2</title>
<path fill="none" stroke="#404040" d="M15.8859,-210.321C15.7859,-200.7587 16.7231,-190.2028 20,-181 20.9699,-178.276 22.1666,-175.5886 23.5291,-172.962"/>
<polygon fill="none" stroke="#404040" points="23.6312,-172.7956 23.3612,-165.5896 29.9091,-162.5688 30.1791,-169.7749 23.6312,-172.7956"/>
<text text-anchor="middle" x="47" y="-184" font-family="Helvetica,sans-Serif" font-size="10.00" fill="#000000"> +fVolumeId</text>
</g>
<!-- Node4 -->
<g id="node4" class="node">
<title>Node4</title>
<g id="a_node4"><a xlink:href="../../d4/dc3/classfloat.html" target="_top" xlink:title="{float\n||}">
<polygon fill="none" stroke="#000000" points="78.5,-210.5 78.5,-267.5 113.5,-267.5 113.5,-210.5 78.5,-210.5"/>
<text text-anchor="middle" x="96" y="-255.5" font-family="Helvetica,sans-Serif" font-size="10.00" fill="#000000">float</text>
<polyline fill="none" stroke="#000000" points="78.5,-248.5 113.5,-248.5 "/>
<text text-anchor="middle" x="96" y="-236.5" font-family="Helvetica,sans-Serif" font-size="10.00" fill="#000000"> </text>
<polyline fill="none" stroke="#000000" points="78.5,-229.5 113.5,-229.5 "/>
<text text-anchor="middle" x="96" y="-217.5" font-family="Helvetica,sans-Serif" font-size="10.00" fill="#000000"> </text>
</a>
</g>
</g>
<!-- Node4&#45;&gt;Node2 -->
<g id="edge3" class="edge">
<title>Node4&#45;&gt;Node2</title>
<path fill="none" stroke="#404040" d="M85.3431,-210.3083C81.2159,-199.1966 76.4181,-186.2796 71.9564,-174.2673"/>
<polygon fill="none" stroke="#404040" points="71.8223,-173.9061 65.9835,-169.6743 67.644,-162.657 73.4829,-166.8888 71.8223,-173.9061"/>
<text text-anchor="middle" x="87.5" y="-184" font-family="Helvetica,sans-Serif" font-size="10.00" fill="#000000"> +fX</text>
</g>
<!-- Node5 -->
<g id="node5" class="node">
<title>Node5</title>
<polygon fill="none" stroke="#bfbfbf" points="129,-105.5 129,-162.5 185,-162.5 185,-105.5 129,-105.5"/>
<text text-anchor="middle" x="157" y="-150.5" font-family="Helvetica,sans-Serif" font-size="10.00" fill="#000000">unsigned</text>
<polyline fill="none" stroke="#bfbfbf" points="129,-143.5 185,-143.5 "/>
<text text-anchor="middle" x="157" y="-131.5" font-family="Helvetica,sans-Serif" font-size="10.00" fill="#000000"> </text>
<polyline fill="none" stroke="#bfbfbf" points="129,-124.5 185,-124.5 "/>
<text text-anchor="middle" x="157" y="-112.5" font-family="Helvetica,sans-Serif" font-size="10.00" fill="#000000"> </text>
</g>
<!-- Node5&#45;&gt;Node1 -->
<g id="edge4" class="edge">
<title>Node5&#45;&gt;Node1</title>
<path fill="none" stroke="#404040" d="M143.3373,-105.3083C137.9357,-93.9651 131.6384,-80.7406 125.818,-68.5178"/>
<polygon fill="none" stroke="#404040" points="125.8055,-68.4914 119.6144,-64.7939 120.6462,-57.657 126.8373,-61.3544 125.8055,-68.4914"/>
<text text-anchor="middle" x="152.5" y="-79" font-family="Helvetica,sans-Serif" font-size="10.00" fill="#000000"> +fCount</text>
</g>
</g>
</svg>
