<?xml version="1.0" encoding="UTF-8" standalone="no"?>
<!DOCTYPE svg PUBLIC "-//W3C//DTD SVG 1.1//EN"
 "http://www.w3.org/Graphics/SVG/1.1/DTD/svg11.dtd">
<!-- Generated by graphviz version 2.40.1 (20161225.0304)
 -->
<!-- Title: /home/runner/work/AliceO2/AliceO2/Detectors/Raw/include/DetectorsRaw/RawFileReader.h Pages: 1 -->
<svg width="1572pt" height="217pt"
 viewBox="0.00 0.00 1572.00 217.00" xmlns="http://www.w3.org/2000/svg" xmlns:xlink="http://www.w3.org/1999/xlink">
<g id="graph0" class="graph" transform="scale(1 1) rotate(0) translate(4 213)">
<title>/home/runner/work/AliceO2/AliceO2/Detectors/Raw/include/DetectorsRaw/RawFileReader.h</title>
<!-- Node32 -->
<g id="node1" class="node">
<title>Node32</title>
<polygon fill="#bfbfbf" stroke="#000000" points="719.5,-167.5 719.5,-208.5 914.5,-208.5 914.5,-167.5 719.5,-167.5"/>
<text text-anchor="start" x="727.5" y="-196.5" font-family="Helvetica,sans-Serif" font-size="10.00" fill="#000000">/home/runner/work/AliceO2</text>
<text text-anchor="start" x="727.5" y="-185.5" font-family="Helvetica,sans-Serif" font-size="10.00" fill="#000000">/AliceO2/Detectors/Raw</text>
<text text-anchor="middle" x="817" y="-174.5" font-family="Helvetica,sans-Serif" font-size="10.00" fill="#000000">/include/DetectorsRaw/RawFileReader.h</text>
</g>
<!-- Node33 -->
<g id="node2" class="node">
<title>Node33</title>
<g id="a_node2"><a xlink:href="../../d3/ddd/EMCAL_2reconstruction_2run_2rawReaderFile_8cxx.html" target="_top" xlink:title="/home/runner/work/AliceO2\l/AliceO2/Detectors/EMCAL\l/reconstruction/run/rawReaderFile.cxx">
<polygon fill="none" stroke="#000000" points="0,-84 0,-125 182,-125 182,-84 0,-84"/>
<text text-anchor="start" x="8" y="-113" font-family="Helvetica,sans-Serif" font-size="10.00" fill="#000000">/home/runner/work/AliceO2</text>
<text text-anchor="start" x="8" y="-102" font-family="Helvetica,sans-Serif" font-size="10.00" fill="#000000">/AliceO2/Detectors/EMCAL</text>
<text text-anchor="middle" x="91" y="-91" font-family="Helvetica,sans-Serif" font-size="10.00" fill="#000000">/reconstruction/run/rawReaderFile.cxx</text>
</a>
</g>
</g>
<!-- Node32&#45;&gt;Node33 -->
<g id="edge1" class="edge">
<title>Node32&#45;&gt;Node33</title>
<path fill="none" stroke="#191970" d="M708.9125,-183.6838C583.5505,-177.4041 371.0465,-162.8198 191,-131 181.7147,-129.359 172.0321,-127.2766 162.5057,-125.0027"/>
<polygon fill="#191970" stroke="#191970" points="709.116,-187.198 719.276,-184.1939 709.4602,-180.2064 709.116,-187.198"/>
</g>
<!-- Node34 -->
<g id="node3" class="node">
<title>Node34</title>
<g id="a_node3"><a xlink:href="../../d5/d52/bench__Raw_8cxx.html" target="_top" xlink:title="Benchmark MID raw data decoder. ">
<polygon fill="none" stroke="#000000" points="200.5,-84 200.5,-125 355.5,-125 355.5,-84 200.5,-84"/>
<text text-anchor="start" x="208.5" y="-113" font-family="Helvetica,sans-Serif" font-size="10.00" fill="#000000">/home/runner/work/AliceO2</text>
<text text-anchor="start" x="208.5" y="-102" font-family="Helvetica,sans-Serif" font-size="10.00" fill="#000000">/AliceO2/Detectors/MUON</text>
<text text-anchor="middle" x="278" y="-91" font-family="Helvetica,sans-Serif" font-size="10.00" fill="#000000">/MID/Raw/test/bench_Raw.cxx</text>
</a>
</g>
</g>
<!-- Node32&#45;&gt;Node34 -->
<g id="edge2" class="edge">
<title>Node32&#45;&gt;Node34</title>
<path fill="none" stroke="#191970" d="M709.0346,-179.5903C616.9164,-171.178 481.3014,-155.8565 365,-131 357.1253,-129.317 348.9353,-127.2528 340.8682,-125.0261"/>
<polygon fill="#191970" stroke="#191970" points="708.9338,-183.0953 719.2077,-180.5073 709.5624,-176.1236 708.9338,-183.0953"/>
</g>
<!-- Node35 -->
<g id="node4" class="node">
<title>Node35</title>
<g id="a_node4"><a xlink:href="../../d8/d4c/testRaw_8cxx.html" target="_top" xlink:title="Test MID raw data decoder. ">
<polygon fill="none" stroke="#000000" points="374,-84 374,-125 514,-125 514,-84 374,-84"/>
<text text-anchor="start" x="382" y="-113" font-family="Helvetica,sans-Serif" font-size="10.00" fill="#000000">/home/runner/work/AliceO2</text>
<text text-anchor="start" x="382" y="-102" font-family="Helvetica,sans-Serif" font-size="10.00" fill="#000000">/AliceO2/Detectors/MUON</text>
<text text-anchor="middle" x="444" y="-91" font-family="Helvetica,sans-Serif" font-size="10.00" fill="#000000">/MID/Raw/test/testRaw.cxx</text>
</a>
</g>
</g>
<!-- Node32&#45;&gt;Node35 -->
<g id="edge3" class="edge">
<title>Node32&#45;&gt;Node35</title>
<path fill="none" stroke="#191970" d="M709.3397,-170.6463C653.3647,-160.7389 584.0651,-147.0862 523,-131 516.2852,-129.2312 509.3111,-127.194 502.4111,-125.0513"/>
<polygon fill="#191970" stroke="#191970" points="708.8188,-174.1083 719.2734,-172.3901 710.0291,-167.2137 708.8188,-174.1083"/>
</g>
<!-- Node36 -->
<g id="node5" class="node">
<title>Node36</title>
<g id="a_node5"><a xlink:href="../../d6/dbb/PHOS_2reconstruction_2run_2rawReaderFile_8cxx.html" target="_top" xlink:title="/home/runner/work/AliceO2\l/AliceO2/Detectors/PHOS\l/reconstruction/run/rawReaderFile.cxx">
<polygon fill="none" stroke="#000000" points="532,-84 532,-125 714,-125 714,-84 532,-84"/>
<text text-anchor="start" x="540" y="-113" font-family="Helvetica,sans-Serif" font-size="10.00" fill="#000000">/home/runner/work/AliceO2</text>
<text text-anchor="start" x="540" y="-102" font-family="Helvetica,sans-Serif" font-size="10.00" fill="#000000">/AliceO2/Detectors/PHOS</text>
<text text-anchor="middle" x="623" y="-91" font-family="Helvetica,sans-Serif" font-size="10.00" fill="#000000">/reconstruction/run/rawReaderFile.cxx</text>
</a>
</g>
</g>
<!-- Node32&#45;&gt;Node36 -->
<g id="edge4" class="edge">
<title>Node32&#45;&gt;Node36</title>
<path fill="none" stroke="#191970" d="M759.6726,-163.3256C731.3681,-151.143 697.6186,-136.6168 670.7392,-125.0476"/>
<polygon fill="#191970" stroke="#191970" points="758.4759,-166.6209 769.0449,-167.3595 761.2433,-160.1911 758.4759,-166.6209"/>
</g>
<!-- Node37 -->
<g id="node6" class="node">
<title>Node37</title>
<g id="a_node6"><a xlink:href="../../d6/dad/SimpleRawReader_8h.html" target="_top" xlink:title="Definition of the simple reader for non&#45;DPL tests. ">
<polygon fill="none" stroke="#000000" points="732,-78.5 732,-130.5 902,-130.5 902,-78.5 732,-78.5"/>
<text text-anchor="start" x="740" y="-118.5" font-family="Helvetica,sans-Serif" font-size="10.00" fill="#000000">/home/runner/work/AliceO2</text>
<text text-anchor="start" x="740" y="-107.5" font-family="Helvetica,sans-Serif" font-size="10.00" fill="#000000">/AliceO2/Detectors/Raw</text>
<text text-anchor="start" x="740" y="-96.5" font-family="Helvetica,sans-Serif" font-size="10.00" fill="#000000">/include/DetectorsRaw/SimpleRaw</text>
<text text-anchor="middle" x="817" y="-85.5" font-family="Helvetica,sans-Serif" font-size="10.00" fill="#000000">Reader.h</text>
</a>
</g>
</g>
<!-- Node32&#45;&gt;Node37 -->
<g id="edge5" class="edge">
<title>Node32&#45;&gt;Node37</title>
<path fill="none" stroke="#191970" d="M817,-157.1618C817,-148.4305 817,-139.0145 817,-130.5925"/>
<polygon fill="#191970" stroke="#191970" points="813.5001,-157.3595 817,-167.3595 820.5001,-157.3596 813.5001,-157.3595"/>
</g>
<!-- Node40 -->
<g id="node9" class="node">
<title>Node40</title>
<g id="a_node9"><a xlink:href="../../d0/d99/rawfile-reader-workflow_8cxx.html" target="_top" xlink:title="/home/runner/work/AliceO2\l/AliceO2/Detectors/Raw\l/src/rawfile&#45;reader&#45;workflow.cxx">
<polygon fill="none" stroke="#000000" points="920.5,-84 920.5,-125 1075.5,-125 1075.5,-84 920.5,-84"/>
<text text-anchor="start" x="928.5" y="-113" font-family="Helvetica,sans-Serif" font-size="10.00" fill="#000000">/home/runner/work/AliceO2</text>
<text text-anchor="start" x="928.5" y="-102" font-family="Helvetica,sans-Serif" font-size="10.00" fill="#000000">/AliceO2/Detectors/Raw</text>
<text text-anchor="middle" x="998" y="-91" font-family="Helvetica,sans-Serif" font-size="10.00" fill="#000000">/src/rawfile&#45;reader&#45;workflow.cxx</text>
</a>
</g>
</g>
<!-- Node32&#45;&gt;Node40 -->
<g id="edge8" class="edge">
<title>Node32&#45;&gt;Node40</title>
<path fill="none" stroke="#191970" d="M870.8306,-163.1665C897.1674,-151.0167 928.4906,-136.5665 953.4598,-125.0476"/>
<polygon fill="#191970" stroke="#191970" points="869.3558,-159.9924 861.7416,-167.3595 872.2881,-166.3486 869.3558,-159.9924"/>
</g>
<!-- Node41 -->
<g id="node10" class="node">
<title>Node41</title>
<g id="a_node10"><a xlink:href="../../d0/d6f/rawfileCheck_8cxx.html" target="_top" xlink:title="/home/runner/work/AliceO2\l/AliceO2/Detectors/Raw\l/src/rawfileCheck.cxx">
<polygon fill="none" stroke="#000000" points="1093.5,-84 1093.5,-125 1228.5,-125 1228.5,-84 1093.5,-84"/>
<text text-anchor="start" x="1101.5" y="-113" font-family="Helvetica,sans-Serif" font-size="10.00" fill="#000000">/home/runner/work/AliceO2</text>
<text text-anchor="start" x="1101.5" y="-102" font-family="Helvetica,sans-Serif" font-size="10.00" fill="#000000">/AliceO2/Detectors/Raw</text>
<text text-anchor="middle" x="1161" y="-91" font-family="Helvetica,sans-Serif" font-size="10.00" fill="#000000">/src/rawfileCheck.cxx</text>
</a>
</g>
</g>
<!-- Node32&#45;&gt;Node41 -->
<g id="edge9" class="edge">
<title>Node32&#45;&gt;Node41</title>
<path fill="none" stroke="#191970" d="M924.8156,-168.291C974.0161,-158.4745 1032.8179,-145.5842 1085,-131 1091.3252,-129.2322 1097.8895,-127.2203 1104.392,-125.1135"/>
<polygon fill="#191970" stroke="#191970" points="923.9189,-164.9005 914.7888,-170.2756 925.2781,-171.7673 923.9189,-164.9005"/>
</g>
<!-- Node42 -->
<g id="node11" class="node">
<title>Node42</title>
<g id="a_node11"><a xlink:href="../../db/de5/Raw_2src_2RawFileReader_8cxx.html" target="_top" xlink:title="/home/runner/work/AliceO2\l/AliceO2/Detectors/Raw\l/src/RawFileReader.cxx">
<polygon fill="none" stroke="#000000" points="1246.5,-84 1246.5,-125 1381.5,-125 1381.5,-84 1246.5,-84"/>
<text text-anchor="start" x="1254.5" y="-113" font-family="Helvetica,sans-Serif" font-size="10.00" fill="#000000">/home/runner/work/AliceO2</text>
<text text-anchor="start" x="1254.5" y="-102" font-family="Helvetica,sans-Serif" font-size="10.00" fill="#000000">/AliceO2/Detectors/Raw</text>
<text text-anchor="middle" x="1314" y="-91" font-family="Helvetica,sans-Serif" font-size="10.00" fill="#000000">/src/RawFileReader.cxx</text>
</a>
</g>
</g>
<!-- Node32&#45;&gt;Node42 -->
<g id="edge10" class="edge">
<title>Node32&#45;&gt;Node42</title>
<path fill="none" stroke="#191970" d="M924.5902,-179.439C1010.3134,-171.1836 1132.9515,-156.1553 1238,-131 1244.9306,-129.3404 1252.116,-127.2903 1259.1798,-125.0712"/>
<polygon fill="#191970" stroke="#191970" points="924.2097,-175.9593 914.5849,-180.388 924.8707,-182.9281 924.2097,-175.9593"/>
</g>
<!-- Node43 -->
<g id="node12" class="node">
<title>Node43</title>
<g id="a_node12"><a xlink:href="../../d3/d87/RawFileReaderWorkflow_8cxx.html" target="_top" xlink:title="/home/runner/work/AliceO2\l/AliceO2/Detectors/Raw\l/src/RawFileReaderWorkflow.cxx">
<polygon fill="none" stroke="#000000" points="1400,-84 1400,-125 1564,-125 1564,-84 1400,-84"/>
<text text-anchor="start" x="1408" y="-113" font-family="Helvetica,sans-Serif" font-size="10.00" fill="#000000">/home/runner/work/AliceO2</text>
<text text-anchor="start" x="1408" y="-102" font-family="Helvetica,sans-Serif" font-size="10.00" fill="#000000">/AliceO2/Detectors/Raw</text>
<text text-anchor="middle" x="1482" y="-91" font-family="Helvetica,sans-Serif" font-size="10.00" fill="#000000">/src/RawFileReaderWorkflow.cxx</text>
</a>
</g>
</g>
<!-- Node32&#45;&gt;Node43 -->
<g id="edge11" class="edge">
<title>Node32&#45;&gt;Node43</title>
<path fill="none" stroke="#191970" d="M924.8261,-183.2311C1040.831,-176.723 1230.3062,-162.1005 1391,-131 1399.4006,-129.3741 1408.1432,-127.3154 1416.7421,-125.0667"/>
<polygon fill="#191970" stroke="#191970" points="924.3186,-179.7537 914.5262,-183.7984 924.7036,-186.7431 924.3186,-179.7537"/>
</g>
<!-- Node38 -->
<g id="node7" class="node">
<title>Node38</title>
<g id="a_node7"><a xlink:href="../../d5/dfd/SimpleRawReader_8cxx.html" target="_top" xlink:title="Simple reader for non&#45;DPL tests. ">
<polygon fill="none" stroke="#000000" points="666.5,-.5 666.5,-41.5 803.5,-41.5 803.5,-.5 666.5,-.5"/>
<text text-anchor="start" x="674.5" y="-29.5" font-family="Helvetica,sans-Serif" font-size="10.00" fill="#000000">/home/runner/work/AliceO2</text>
<text text-anchor="start" x="674.5" y="-18.5" font-family="Helvetica,sans-Serif" font-size="10.00" fill="#000000">/AliceO2/Detectors/Raw</text>
<text text-anchor="middle" x="735" y="-7.5" font-family="Helvetica,sans-Serif" font-size="10.00" fill="#000000">/src/SimpleRawReader.cxx</text>
</a>
</g>
</g>
<!-- Node37&#45;&gt;Node38 -->
<g id="edge6" class="edge">
<title>Node37&#45;&gt;Node38</title>
<path fill="none" stroke="#191970" d="M783.8294,-70.7226C774.179,-60.8957 763.9276,-50.4567 755.3223,-41.6941"/>
<polygon fill="#191970" stroke="#191970" points="781.5508,-73.3975 791.0547,-78.0801 786.5452,-68.4928 781.5508,-73.3975"/>
</g>
<!-- Node39 -->
<g id="node8" class="node">
<title>Node39</title>
<g id="a_node8"><a xlink:href="../../d3/d09/testRawReaderWriter_8cxx.html" target="_top" xlink:title="/home/runner/work/AliceO2\l/AliceO2/Detectors/Raw\l/test/testRawReaderWriter.cxx">
<polygon fill="none" stroke="#000000" points="822,-.5 822,-41.5 974,-41.5 974,-.5 822,-.5"/>
<text text-anchor="start" x="830" y="-29.5" font-family="Helvetica,sans-Serif" font-size="10.00" fill="#000000">/home/runner/work/AliceO2</text>
<text text-anchor="start" x="830" y="-18.5" font-family="Helvetica,sans-Serif" font-size="10.00" fill="#000000">/AliceO2/Detectors/Raw</text>
<text text-anchor="middle" x="898" y="-7.5" font-family="Helvetica,sans-Serif" font-size="10.00" fill="#000000">/test/testRawReaderWriter.cxx</text>
</a>
</g>
</g>
<!-- Node37&#45;&gt;Node39 -->
<g id="edge7" class="edge">
<title>Node37&#45;&gt;Node39</title>
<path fill="none" stroke="#191970" d="M849.7661,-70.7226C859.2988,-60.8957 869.4252,-50.4567 877.9255,-41.6941"/>
<polygon fill="#191970" stroke="#191970" points="847.0795,-68.4654 842.6289,-78.0801 852.1039,-73.3393 847.0795,-68.4654"/>
</g>
</g>
</svg>
