<?xml version="1.0" encoding="UTF-8" standalone="no"?>
<!DOCTYPE svg PUBLIC "-//W3C//DTD SVG 1.1//EN"
 "http://www.w3.org/Graphics/SVG/1.1/DTD/svg11.dtd">
<!-- Generated by graphviz version 2.40.1 (20161225.0304)
 -->
<!-- Title: /home/runner/work/AliceO2/AliceO2/Detectors/MUON/MCH/Raw/ImplHelpers/DumpBuffer.h Pages: 1 -->
<svg width="1542pt" height="285pt"
 viewBox="0.00 0.00 1541.51 285.00" xmlns="http://www.w3.org/2000/svg" xmlns:xlink="http://www.w3.org/1999/xlink">
<g id="graph0" class="graph" transform="scale(1 1) rotate(0) translate(4 281)">
<title>/home/runner/work/AliceO2/AliceO2/Detectors/MUON/MCH/Raw/ImplHelpers/DumpBuffer.h</title>
<!-- Node0 -->
<g id="node1" class="node">
<title>Node0</title>
<polygon fill="#bfbfbf" stroke="#000000" points="932.5136,-235.5 932.5136,-276.5 1117.5136,-276.5 1117.5136,-235.5 932.5136,-235.5"/>
<text text-anchor="start" x="940.5136" y="-264.5" font-family="Helvetica,sans-Serif" font-size="10.00" fill="#000000">/home/runner/work/AliceO2</text>
<text text-anchor="start" x="940.5136" y="-253.5" font-family="Helvetica,sans-Serif" font-size="10.00" fill="#000000">/AliceO2/Detectors/MUON</text>
<text text-anchor="middle" x="1025.0136" y="-242.5" font-family="Helvetica,sans-Serif" font-size="10.00" fill="#000000">/MCH/Raw/ImplHelpers/DumpBuffer.h</text>
</g>
<!-- Node1 -->
<g id="node2" class="node">
<title>Node1</title>
<g id="a_node2"><a xlink:href="../../d6/dec/Raw_2include_2DetectorsRaw_2RDHUtils_8h.html" target="_top" xlink:title="DetectorsRaw/RDHUtils.h">
<polygon fill="none" stroke="#000000" points="638.0136,-179.5 638.0136,-198.5 772.0136,-198.5 772.0136,-179.5 638.0136,-179.5"/>
<text text-anchor="middle" x="705.0136" y="-186.5" font-family="Helvetica,sans-Serif" font-size="10.00" fill="#000000">DetectorsRaw/RDHUtils.h</text>
</a>
</g>
</g>
<!-- Node0&#45;&gt;Node1 -->
<g id="edge1" class="edge">
<title>Node0&#45;&gt;Node1</title>
<path fill="none" stroke="#191970" d="M932.4564,-236.6208C876.9107,-224.9909 808.0913,-210.5819 760.7883,-200.6778"/>
<polygon fill="#191970" stroke="#191970" points="761.242,-197.197 750.7369,-198.5733 759.8074,-204.0484 761.242,-197.197"/>
</g>
<!-- Node7 -->
<g id="node8" class="node">
<title>Node7</title>
<g id="a_node8"><a xlink:href="../../d4/dee/RAWDataHeader_8h.html" target="_top" xlink:title="Definition of the RAW Data Header. ">
<polygon fill="none" stroke="#000000" points="518.5136,-56.5 518.5136,-75.5 659.5136,-75.5 659.5136,-56.5 518.5136,-56.5"/>
<text text-anchor="middle" x="589.0136" y="-63.5" font-family="Helvetica,sans-Serif" font-size="10.00" fill="#000000">Headers/RAWDataHeader.h</text>
</a>
</g>
</g>
<!-- Node0&#45;&gt;Node7 -->
<g id="edge32" class="edge">
<title>Node0&#45;&gt;Node7</title>
<path fill="none" stroke="#191970" d="M932.397,-247.9106C822.6282,-237.5188 651.6481,-218.4866 629.0136,-199 595.7826,-170.3905 589.5793,-115.3101 588.7736,-85.8058"/>
<polygon fill="#191970" stroke="#191970" points="592.2712,-85.5003 588.6874,-75.5301 585.2715,-85.5591 592.2712,-85.5003"/>
</g>
<!-- Node26 -->
<g id="node27" class="node">
<title>Node26</title>
<g id="a_node27"><a xlink:href="../../d0/d64/DataFormats_8h.html" target="_top" xlink:title="MCHRawCommon/DataFormats.h">
<polygon fill="none" stroke="#000000" points="152.0136,-179.5 152.0136,-198.5 320.0136,-198.5 320.0136,-179.5 152.0136,-179.5"/>
<text text-anchor="middle" x="236.0136" y="-186.5" font-family="Helvetica,sans-Serif" font-size="10.00" fill="#000000">MCHRawCommon/DataFormats.h</text>
</a>
</g>
</g>
<!-- Node0&#45;&gt;Node26 -->
<g id="edge33" class="edge">
<title>Node0&#45;&gt;Node26</title>
<path fill="none" stroke="#191970" d="M932.1852,-248.1172C780.8671,-235.2677 482.6693,-209.9454 330.3694,-197.0125"/>
<polygon fill="#191970" stroke="#191970" points="330.3661,-193.4997 320.1058,-196.1409 329.7738,-200.4746 330.3661,-193.4997"/>
</g>
<!-- Node27 -->
<g id="node28" class="node">
<title>Node27</title>
<g id="a_node28"><a xlink:href="../../d5/d49/SampaHeader_8h.html" target="_top" xlink:title="MCHRawCommon/SampaHeader.h">
<polygon fill="none" stroke="#000000" points="790.5136,-179.5 790.5136,-198.5 963.5136,-198.5 963.5136,-179.5 790.5136,-179.5"/>
<text text-anchor="middle" x="877.0136" y="-186.5" font-family="Helvetica,sans-Serif" font-size="10.00" fill="#000000">MCHRawCommon/SampaHeader.h</text>
</a>
</g>
</g>
<!-- Node0&#45;&gt;Node27 -->
<g id="edge35" class="edge">
<title>Node0&#45;&gt;Node27</title>
<path fill="none" stroke="#191970" d="M979.4011,-235.3511C956.0849,-224.7958 928.3369,-212.2342 907.6126,-202.8523"/>
<polygon fill="#191970" stroke="#191970" points="908.8937,-199.5903 898.3403,-198.6546 906.0068,-205.9673 908.8937,-199.5903"/>
</g>
<!-- Node29 -->
<g id="node30" class="node">
<title>Node29</title>
<polygon fill="none" stroke="#bfbfbf" points="994.0136,-118 994.0136,-137 1048.0136,-137 1048.0136,-118 994.0136,-118"/>
<text text-anchor="middle" x="1021.0136" y="-125" font-family="Helvetica,sans-Serif" font-size="10.00" fill="#000000">iostream</text>
</g>
<!-- Node0&#45;&gt;Node29 -->
<g id="edge44" class="edge">
<title>Node0&#45;&gt;Node29</title>
<path fill="none" stroke="#191970" d="M1018.6757,-235.3764C1015.7035,-224.644 1012.4948,-211.2405 1011.0136,-199 1009.9458,-190.1755 1010.1625,-187.8481 1011.0136,-179 1012.029,-168.4436 1014.1895,-156.836 1016.2433,-147.3173"/>
<polygon fill="#191970" stroke="#191970" points="1019.7188,-147.8189 1018.5304,-137.2909 1012.8941,-146.2621 1019.7188,-147.8189"/>
</g>
<!-- Node30 -->
<g id="node31" class="node">
<title>Node30</title>
<g id="a_node31"><a xlink:href="../../d7/d42/MoveBuffer_8h.html" target="_top" xlink:title="MoveBuffer.h">
<polygon fill="none" stroke="#000000" points="1020.5136,-179.5 1020.5136,-198.5 1095.5136,-198.5 1095.5136,-179.5 1020.5136,-179.5"/>
<text text-anchor="middle" x="1058.0136" y="-186.5" font-family="Helvetica,sans-Serif" font-size="10.00" fill="#000000">MoveBuffer.h</text>
</a>
</g>
</g>
<!-- Node0&#45;&gt;Node30 -->
<g id="edge38" class="edge">
<title>Node0&#45;&gt;Node30</title>
<path fill="none" stroke="#191970" d="M1035.2741,-235.168C1039.5714,-226.4433 1044.5309,-216.374 1048.7194,-207.87"/>
<polygon fill="#191970" stroke="#191970" points="1051.9176,-209.2979 1053.1964,-198.7805 1045.638,-206.2049 1051.9176,-209.2979"/>
</g>
<!-- Node31 -->
<g id="node32" class="node">
<title>Node31</title>
<polygon fill="none" stroke="#bfbfbf" points="1070.0136,-118 1070.0136,-137 1114.0136,-137 1114.0136,-118 1070.0136,-118"/>
<text text-anchor="middle" x="1092.0136" y="-125" font-family="Helvetica,sans-Serif" font-size="10.00" fill="#000000">vector</text>
</g>
<!-- Node0&#45;&gt;Node31 -->
<g id="edge46" class="edge">
<title>Node0&#45;&gt;Node31</title>
<path fill="none" stroke="#191970" d="M1068.27,-235.3406C1082.2958,-226.2872 1096.2336,-214.2071 1104.0136,-199 1112.3978,-182.612 1107.2859,-161.613 1101.362,-146.62"/>
<polygon fill="#191970" stroke="#191970" points="1104.5093,-145.0819 1097.2869,-137.3303 1098.0989,-147.894 1104.5093,-145.0819"/>
</g>
<!-- Node32 -->
<g id="node33" class="node">
<title>Node32</title>
<polygon fill="none" stroke="#bfbfbf" points="1134.5136,-118 1134.5136,-137 1187.5136,-137 1187.5136,-118 1134.5136,-118"/>
<text text-anchor="middle" x="1161.0136" y="-125" font-family="Helvetica,sans-Serif" font-size="10.00" fill="#000000">gsl/span</text>
</g>
<!-- Node0&#45;&gt;Node32 -->
<g id="edge43" class="edge">
<title>Node0&#45;&gt;Node32</title>
<path fill="none" stroke="#191970" d="M1070.497,-235.3798C1087.7499,-226.0156 1106.6736,-213.7141 1121.0136,-199 1135.6937,-183.937 1146.7608,-162.4189 1153.4907,-146.9291"/>
<polygon fill="#191970" stroke="#191970" points="1156.8755,-147.9012 1157.4481,-137.3219 1150.4031,-145.2351 1156.8755,-147.9012"/>
</g>
<!-- Node33 -->
<g id="node34" class="node">
<title>Node33</title>
<polygon fill="none" stroke="#bfbfbf" points="1190.0136,-179.5 1190.0136,-198.5 1260.0136,-198.5 1260.0136,-179.5 1190.0136,-179.5"/>
<text text-anchor="middle" x="1225.0136" y="-186.5" font-family="Helvetica,sans-Serif" font-size="10.00" fill="#000000">fmt/format.h</text>
</g>
<!-- Node0&#45;&gt;Node33 -->
<g id="edge42" class="edge">
<title>Node0&#45;&gt;Node33</title>
<path fill="none" stroke="#191970" d="M1086.3794,-235.4425C1119.2483,-224.4314 1158.6977,-211.2158 1187.0955,-201.7026"/>
<polygon fill="#191970" stroke="#191970" points="1188.2801,-204.997 1196.6504,-198.5017 1186.0565,-198.3595 1188.2801,-204.997"/>
</g>
<!-- Node34 -->
<g id="node35" class="node">
<title>Node34</title>
<polygon fill="none" stroke="#bfbfbf" points="1278.0136,-179.5 1278.0136,-198.5 1318.0136,-198.5 1318.0136,-179.5 1278.0136,-179.5"/>
<text text-anchor="middle" x="1298.0136" y="-186.5" font-family="Helvetica,sans-Serif" font-size="10.00" fill="#000000">limits</text>
</g>
<!-- Node0&#45;&gt;Node34 -->
<g id="edge45" class="edge">
<title>Node0&#45;&gt;Node34</title>
<path fill="none" stroke="#191970" d="M1117.7038,-236.6955C1160.93,-227.132 1213.1764,-214.7779 1267.9287,-199.1173"/>
<polygon fill="#191970" stroke="#191970" points="1269.181,-202.3987 1277.8166,-196.2606 1267.238,-195.6738 1269.181,-202.3987"/>
</g>
<!-- Node2 -->
<g id="node3" class="node">
<title>Node2</title>
<g id="a_node3"><a xlink:href="../../df/d21/GPUCommonDef_8h.html" target="_top" xlink:title="GPUCommonDef.h">
<polygon fill="none" stroke="#000000" points="758.0136,-56.5 758.0136,-75.5 860.0136,-75.5 860.0136,-56.5 758.0136,-56.5"/>
<text text-anchor="middle" x="809.0136" y="-63.5" font-family="Helvetica,sans-Serif" font-size="10.00" fill="#000000">GPUCommonDef.h</text>
</a>
</g>
</g>
<!-- Node1&#45;&gt;Node2 -->
<g id="edge2" class="edge">
<title>Node1&#45;&gt;Node2</title>
<path fill="none" stroke="#191970" d="M722.177,-179.4298C735.8736,-171.1476 754.8774,-158.1385 768.0136,-143 782.9955,-125.7344 794.5635,-102.0611 801.5351,-85.538"/>
<polygon fill="#191970" stroke="#191970" points="804.9473,-86.435 805.4425,-75.8517 798.4556,-83.8162 804.9473,-86.435"/>
</g>
<!-- Node5 -->
<g id="node6" class="node">
<title>Node5</title>
<g id="a_node6"><a xlink:href="../../d2/d45/GPUCommonRtypes_8h.html" target="_top" xlink:title="GPUCommonRtypes.h">
<polygon fill="none" stroke="#000000" points="22.0136,-56.5 22.0136,-75.5 140.0136,-75.5 140.0136,-56.5 22.0136,-56.5"/>
<text text-anchor="middle" x="81.0136" y="-63.5" font-family="Helvetica,sans-Serif" font-size="10.00" fill="#000000">GPUCommonRtypes.h</text>
</a>
</g>
</g>
<!-- Node1&#45;&gt;Node5 -->
<g id="edge5" class="edge">
<title>Node1&#45;&gt;Node5</title>
<path fill="none" stroke="#191970" d="M637.9763,-186.0316C523.7302,-180.4086 296.265,-166.6056 220.0136,-143 175.2233,-129.134 128.6385,-99.7397 102.3845,-81.5478"/>
<polygon fill="#191970" stroke="#191970" points="104.1721,-78.5257 93.9823,-75.6241 100.1386,-84.2468 104.1721,-78.5257"/>
</g>
<!-- Node1&#45;&gt;Node7 -->
<g id="edge7" class="edge">
<title>Node1&#45;&gt;Node7</title>
<path fill="none" stroke="#191970" d="M690.5382,-179.3905C678.0133,-170.7 659.7981,-157.1332 646.0136,-143 628.1514,-124.6859 611.1767,-100.5824 600.4712,-84.2577"/>
<polygon fill="#191970" stroke="#191970" points="603.2864,-82.1645 594.9331,-75.6474 597.399,-85.9513 603.2864,-82.1645"/>
</g>
<!-- Node9 -->
<g id="node10" class="node">
<title>Node9</title>
<g id="a_node10"><a xlink:href="../../d6/d89/RDHAny_8h.html" target="_top" xlink:title="Headers/RDHAny.h">
<polygon fill="none" stroke="#000000" points="655.0136,-118 655.0136,-137 759.0136,-137 759.0136,-118 655.0136,-118"/>
<text text-anchor="middle" x="707.0136" y="-125" font-family="Helvetica,sans-Serif" font-size="10.00" fill="#000000">Headers/RDHAny.h</text>
</a>
</g>
</g>
<!-- Node1&#45;&gt;Node9 -->
<g id="edge9" class="edge">
<title>Node1&#45;&gt;Node9</title>
<path fill="none" stroke="#191970" d="M705.3261,-179.3906C705.6034,-170.8657 706.0172,-158.1392 706.3657,-147.4235"/>
<polygon fill="#191970" stroke="#191970" points="709.8697,-147.3534 706.6967,-137.2449 702.8734,-147.1258 709.8697,-147.3534"/>
</g>
<!-- Node12 -->
<g id="node13" class="node">
<title>Node12</title>
<g id="a_node13"><a xlink:href="../../d9/d80/InteractionRecord_8h.html" target="_top" xlink:title="CommonDataFormat/Interaction\lRecord.h">
<polygon fill="none" stroke="#000000" points="229.5136,-112.5 229.5136,-142.5 386.5136,-142.5 386.5136,-112.5 229.5136,-112.5"/>
<text text-anchor="start" x="237.5136" y="-130.5" font-family="Helvetica,sans-Serif" font-size="10.00" fill="#000000">CommonDataFormat/Interaction</text>
<text text-anchor="middle" x="308.0136" y="-119.5" font-family="Helvetica,sans-Serif" font-size="10.00" fill="#000000">Record.h</text>
</a>
</g>
</g>
<!-- Node1&#45;&gt;Node12 -->
<g id="edge14" class="edge">
<title>Node1&#45;&gt;Node12</title>
<path fill="none" stroke="#191970" d="M643.418,-179.4581C577.3442,-169.2225 471.8123,-152.8744 396.7815,-141.2512"/>
<polygon fill="#191970" stroke="#191970" points="397.2841,-137.7874 386.8661,-139.7152 396.2124,-144.7049 397.2841,-137.7874"/>
</g>
<!-- Node16 -->
<g id="node17" class="node">
<title>Node16</title>
<g id="a_node17"><a xlink:href="../../d7/d34/DAQID_8h.html" target="_top" xlink:title="Headers/DAQID.h">
<polygon fill="none" stroke="#000000" points="815.5136,-118 815.5136,-137 912.5136,-137 912.5136,-118 815.5136,-118"/>
<text text-anchor="middle" x="864.0136" y="-125" font-family="Helvetica,sans-Serif" font-size="10.00" fill="#000000">Headers/DAQID.h</text>
</a>
</g>
</g>
<!-- Node1&#45;&gt;Node16 -->
<g id="edge20" class="edge">
<title>Node1&#45;&gt;Node16</title>
<path fill="none" stroke="#191970" d="M729.8574,-179.3906C756.6944,-169.0103 799.637,-152.4004 829.6889,-140.7766"/>
<polygon fill="#191970" stroke="#191970" points="831.2803,-143.9138 839.3443,-137.0419 828.755,-137.3851 831.2803,-143.9138"/>
</g>
<!-- Node3 -->
<g id="node4" class="node">
<title>Node3</title>
<g id="a_node4"><a xlink:href="../../d5/d93/GPUCommonDefSettings_8h.html" target="_top" xlink:title="GPUCommonDefSettings.h">
<polygon fill="none" stroke="#000000" points="702.0136,-.5 702.0136,-19.5 840.0136,-19.5 840.0136,-.5 702.0136,-.5"/>
<text text-anchor="middle" x="771.0136" y="-7.5" font-family="Helvetica,sans-Serif" font-size="10.00" fill="#000000">GPUCommonDefSettings.h</text>
</a>
</g>
</g>
<!-- Node2&#45;&gt;Node3 -->
<g id="edge3" class="edge">
<title>Node2&#45;&gt;Node3</title>
<path fill="none" stroke="#191970" d="M802.3945,-56.2455C797.109,-48.4564 789.5595,-37.3308 783.1899,-27.9439"/>
<polygon fill="#191970" stroke="#191970" points="786.0681,-25.9522 777.5569,-19.6427 780.2757,-29.8827 786.0681,-25.9522"/>
</g>
<!-- Node4 -->
<g id="node5" class="node">
<title>Node4</title>
<g id="a_node5"><a xlink:href="../../da/d5a/GPUCommonDefAPI_8h.html" target="_top" xlink:title="GPUCommonDefAPI.h">
<polygon fill="none" stroke="#000000" points="564.5136,-.5 564.5136,-19.5 683.5136,-19.5 683.5136,-.5 564.5136,-.5"/>
<text text-anchor="middle" x="624.0136" y="-7.5" font-family="Helvetica,sans-Serif" font-size="10.00" fill="#000000">GPUCommonDefAPI.h</text>
</a>
</g>
</g>
<!-- Node2&#45;&gt;Node4 -->
<g id="edge4" class="edge">
<title>Node2&#45;&gt;Node4</title>
<path fill="none" stroke="#191970" d="M777.211,-56.3733C746.182,-46.9807 698.8382,-32.6496 664.9989,-22.4064"/>
<polygon fill="#191970" stroke="#191970" points="665.9864,-19.0485 655.4013,-19.5011 663.9583,-25.7483 665.9864,-19.0485"/>
</g>
<!-- Node6 -->
<g id="node7" class="node">
<title>Node6</title>
<polygon fill="none" stroke="#bfbfbf" points="53.0136,-.5 53.0136,-19.5 109.0136,-19.5 109.0136,-.5 53.0136,-.5"/>
<text text-anchor="middle" x="81.0136" y="-7.5" font-family="Helvetica,sans-Serif" font-size="10.00" fill="#000000">Rtypes.h</text>
</g>
<!-- Node5&#45;&gt;Node6 -->
<g id="edge6" class="edge">
<title>Node5&#45;&gt;Node6</title>
<path fill="none" stroke="#191970" d="M81.0136,-56.2455C81.0136,-48.9382 81.0136,-38.6944 81.0136,-29.7046"/>
<polygon fill="#191970" stroke="#191970" points="84.5137,-29.6426 81.0136,-19.6427 77.5137,-29.6427 84.5137,-29.6426"/>
</g>
<!-- Node8 -->
<g id="node9" class="node">
<title>Node8</title>
<polygon fill="none" stroke="#bfbfbf" points="483.0136,-.5 483.0136,-19.5 529.0136,-19.5 529.0136,-.5 483.0136,-.5"/>
<text text-anchor="middle" x="506.0136" y="-7.5" font-family="Helvetica,sans-Serif" font-size="10.00" fill="#000000">cstdint</text>
</g>
<!-- Node7&#45;&gt;Node8 -->
<g id="edge8" class="edge">
<title>Node7&#45;&gt;Node8</title>
<path fill="none" stroke="#191970" d="M574.5561,-56.2455C561.9404,-47.7337 543.4192,-35.2375 528.8091,-25.3801"/>
<polygon fill="#191970" stroke="#191970" points="530.5527,-22.3343 520.3054,-19.6427 526.6375,-28.1371 530.5527,-22.3343"/>
</g>
<!-- Node9&#45;&gt;Node2 -->
<g id="edge10" class="edge">
<title>Node9&#45;&gt;Node2</title>
<path fill="none" stroke="#191970" d="M722.9511,-117.8906C739.4188,-107.9616 765.3394,-92.333 784.434,-80.8201"/>
<polygon fill="#191970" stroke="#191970" points="786.4315,-83.7027 793.188,-75.5419 782.817,-77.7081 786.4315,-83.7027"/>
</g>
<!-- Node9&#45;&gt;Node7 -->
<g id="edge11" class="edge">
<title>Node9&#45;&gt;Node7</title>
<path fill="none" stroke="#191970" d="M688.5761,-117.8906C669.1789,-107.7811 638.4446,-91.7628 616.2519,-80.1962"/>
<polygon fill="#191970" stroke="#191970" points="617.8072,-77.06 607.3216,-75.5419 614.5719,-83.2675 617.8072,-77.06"/>
</g>
<!-- Node10 -->
<g id="node11" class="node">
<title>Node10</title>
<polygon fill="none" stroke="#bfbfbf" points="678.0136,-56.5 678.0136,-75.5 740.0136,-75.5 740.0136,-56.5 678.0136,-56.5"/>
<text text-anchor="middle" x="709.0136" y="-63.5" font-family="Helvetica,sans-Serif" font-size="10.00" fill="#000000">type_traits</text>
</g>
<!-- Node9&#45;&gt;Node10 -->
<g id="edge12" class="edge">
<title>Node9&#45;&gt;Node10</title>
<path fill="none" stroke="#191970" d="M707.3261,-117.8906C707.6034,-109.3657 708.0172,-96.6392 708.3657,-85.9235"/>
<polygon fill="#191970" stroke="#191970" points="711.8697,-85.8534 708.6967,-75.7449 704.8734,-85.6258 711.8697,-85.8534"/>
</g>
<!-- Node11 -->
<g id="node12" class="node">
<title>Node11</title>
<polygon fill="none" stroke="#bfbfbf" points="858.5136,-.5 858.5136,-19.5 917.5136,-19.5 917.5136,-.5 858.5136,-.5"/>
<text text-anchor="middle" x="888.0136" y="-7.5" font-family="Helvetica,sans-Serif" font-size="10.00" fill="#000000">stdexcept</text>
</g>
<!-- Node9&#45;&gt;Node11 -->
<g id="edge13" class="edge">
<title>Node9&#45;&gt;Node11</title>
<path fill="none" stroke="#191970" d="M752.911,-117.9837C794.8573,-108.4117 852.756,-92.7109 869.0136,-76 880.9399,-63.7412 885.4663,-44.4997 887.1412,-29.9489"/>
<polygon fill="#191970" stroke="#191970" points="890.634,-30.1763 887.9414,-19.9294 883.6563,-29.619 890.634,-30.1763"/>
</g>
<!-- Node12&#45;&gt;Node5 -->
<g id="edge15" class="edge">
<title>Node12&#45;&gt;Node5</title>
<path fill="none" stroke="#191970" d="M252.4832,-112.4554C213.6109,-101.9239 162.3379,-88.0328 126.016,-78.1923"/>
<polygon fill="#191970" stroke="#191970" points="126.7579,-74.7672 116.1906,-75.5303 124.9273,-81.5236 126.7579,-74.7672"/>
</g>
<!-- Node12&#45;&gt;Node8 -->
<g id="edge17" class="edge">
<title>Node12&#45;&gt;Node8</title>
<path fill="none" stroke="#191970" d="M386.6711,-115.5953C415.6511,-108.077 447.1863,-95.851 471.0136,-76 485.6073,-63.8417 494.9581,-43.9941 500.2886,-29.2342"/>
<polygon fill="#191970" stroke="#191970" points="503.6681,-30.1617 503.477,-19.5686 497.0204,-27.9688 503.6681,-30.1617"/>
</g>
<!-- Node13 -->
<g id="node14" class="node">
<title>Node13</title>
<polygon fill="none" stroke="#bfbfbf" points="158.5136,-56.5 158.5136,-75.5 203.5136,-75.5 203.5136,-56.5 158.5136,-56.5"/>
<text text-anchor="middle" x="181.0136" y="-63.5" font-family="Helvetica,sans-Serif" font-size="10.00" fill="#000000">iosfwd</text>
</g>
<!-- Node12&#45;&gt;Node13 -->
<g id="edge16" class="edge">
<title>Node12&#45;&gt;Node13</title>
<path fill="none" stroke="#191970" d="M276.9459,-112.4554C256.4992,-102.554 229.9199,-89.683 209.9251,-80.0004"/>
<polygon fill="#191970" stroke="#191970" points="211.2198,-76.7387 200.6941,-75.5303 208.1689,-83.0388 211.2198,-76.7387"/>
</g>
<!-- Node14 -->
<g id="node15" class="node">
<title>Node14</title>
<polygon fill="none" stroke="#bfbfbf" points="222.0136,-56.5 222.0136,-75.5 266.0136,-75.5 266.0136,-56.5 222.0136,-56.5"/>
<text text-anchor="middle" x="244.0136" y="-63.5" font-family="Helvetica,sans-Serif" font-size="10.00" fill="#000000">cmath</text>
</g>
<!-- Node12&#45;&gt;Node14 -->
<g id="edge18" class="edge">
<title>Node12&#45;&gt;Node14</title>
<path fill="none" stroke="#191970" d="M292.1934,-112.2977C282.9394,-103.4052 271.2355,-92.1586 261.6806,-82.9769"/>
<polygon fill="#191970" stroke="#191970" points="263.8965,-80.2521 254.2608,-75.8469 259.0462,-85.2995 263.8965,-80.2521"/>
</g>
<!-- Node15 -->
<g id="node16" class="node">
<title>Node15</title>
<g id="a_node16"><a xlink:href="../../d4/dc6/LHCConstants_8h.html" target="_top" xlink:title="Header to collect LHC related constants. ">
<polygon fill="none" stroke="#000000" points="284.0136,-56.5 284.0136,-75.5 462.0136,-75.5 462.0136,-56.5 284.0136,-56.5"/>
<text text-anchor="middle" x="373.0136" y="-63.5" font-family="Helvetica,sans-Serif" font-size="10.00" fill="#000000">CommonConstants/LHCConstants.h</text>
</a>
</g>
</g>
<!-- Node12&#45;&gt;Node15 -->
<g id="edge19" class="edge">
<title>Node12&#45;&gt;Node15</title>
<path fill="none" stroke="#191970" d="M324.081,-112.2977C333.4797,-103.4052 345.3664,-92.1586 355.0706,-82.9769"/>
<polygon fill="#191970" stroke="#191970" points="357.7478,-85.2621 362.6063,-75.8469 352.9369,-80.1774 357.7478,-85.2621"/>
</g>
<!-- Node17 -->
<g id="node18" class="node">
<title>Node17</title>
<g id="a_node18"><a xlink:href="../../dc/dcd/DataHeader_8h.html" target="_top" xlink:title="Headers/DataHeader.h">
<polygon fill="none" stroke="#000000" points="1117.5136,-56.5 1117.5136,-75.5 1234.5136,-75.5 1234.5136,-56.5 1117.5136,-56.5"/>
<text text-anchor="middle" x="1176.0136" y="-63.5" font-family="Helvetica,sans-Serif" font-size="10.00" fill="#000000">Headers/DataHeader.h</text>
</a>
</g>
</g>
<!-- Node16&#45;&gt;Node17 -->
<g id="edge21" class="edge">
<title>Node16&#45;&gt;Node17</title>
<path fill="none" stroke="#191970" d="M897.0465,-117.9943C904.8713,-115.8881 913.2109,-113.7612 921.0136,-112 983.7504,-97.8396 1055.9459,-85.1486 1107.4682,-76.7023"/>
<polygon fill="#191970" stroke="#191970" points="1108.1807,-80.1324 1117.4881,-75.0704 1107.0555,-73.2234 1108.1807,-80.1324"/>
</g>
<!-- Node17&#45;&gt;Node8 -->
<g id="edge22" class="edge">
<title>Node17&#45;&gt;Node8</title>
<path fill="none" stroke="#191970" d="M1117.1012,-64.1361C1006.4864,-60.0832 760.3503,-48.4399 555.0136,-20 549.8777,-19.2887 544.4715,-18.365 539.2005,-17.3668"/>
<polygon fill="#191970" stroke="#191970" points="539.8304,-13.9235 529.3378,-15.3916 538.4558,-20.7873 539.8304,-13.9235"/>
</g>
<!-- Node17&#45;&gt;Node11 -->
<g id="edge27" class="edge">
<title>Node17&#45;&gt;Node11</title>
<path fill="none" stroke="#191970" d="M1117.418,-56.5026C1068.876,-48.3427 997.8863,-35.7388 927.7247,-20.2749"/>
<polygon fill="#191970" stroke="#191970" points="928.3539,-16.8294 917.8325,-18.0741 926.8337,-23.6624 928.3539,-16.8294"/>
</g>
<!-- Node18 -->
<g id="node19" class="node">
<title>Node18</title>
<polygon fill="none" stroke="#bfbfbf" points="1216.0136,-.5 1216.0136,-19.5 1268.0136,-19.5 1268.0136,-.5 1216.0136,-.5"/>
<text text-anchor="middle" x="1242.0136" y="-7.5" font-family="Helvetica,sans-Serif" font-size="10.00" fill="#000000">memory</text>
</g>
<!-- Node17&#45;&gt;Node18 -->
<g id="edge23" class="edge">
<title>Node17&#45;&gt;Node18</title>
<path fill="none" stroke="#191970" d="M1187.5099,-56.2455C1197.2578,-47.9746 1211.4396,-35.9416 1222.8934,-26.2232"/>
<polygon fill="#191970" stroke="#191970" points="1225.2884,-28.7813 1230.649,-19.6427 1220.7595,-23.4437 1225.2884,-28.7813"/>
</g>
<!-- Node19 -->
<g id="node20" class="node">
<title>Node19</title>
<polygon fill="none" stroke="#bfbfbf" points="1286.5136,-.5 1286.5136,-19.5 1335.5136,-19.5 1335.5136,-.5 1286.5136,-.5"/>
<text text-anchor="middle" x="1311.0136" y="-7.5" font-family="Helvetica,sans-Serif" font-size="10.00" fill="#000000">cassert</text>
</g>
<!-- Node17&#45;&gt;Node19 -->
<g id="edge24" class="edge">
<title>Node17&#45;&gt;Node19</title>
<path fill="none" stroke="#191970" d="M1199.2209,-56.3733C1221.1835,-47.2629 1254.3468,-33.5062 1278.8538,-23.3404"/>
<polygon fill="#191970" stroke="#191970" points="1280.2134,-26.5657 1288.1091,-19.5011 1277.5312,-20.0999 1280.2134,-26.5657"/>
</g>
<!-- Node20 -->
<g id="node21" class="node">
<title>Node20</title>
<polygon fill="none" stroke="#bfbfbf" points="1354.0136,-.5 1354.0136,-19.5 1400.0136,-19.5 1400.0136,-.5 1354.0136,-.5"/>
<text text-anchor="middle" x="1377.0136" y="-7.5" font-family="Helvetica,sans-Serif" font-size="10.00" fill="#000000">cstring</text>
</g>
<!-- Node17&#45;&gt;Node20 -->
<g id="edge25" class="edge">
<title>Node17&#45;&gt;Node20</title>
<path fill="none" stroke="#191970" d="M1212.7169,-56.4304C1244.9471,-47.9336 1293.325,-34.9549 1344.1242,-20.189"/>
<polygon fill="#191970" stroke="#191970" points="1345.3549,-23.4758 1353.9726,-17.3125 1343.3923,-16.7566 1345.3549,-23.4758"/>
</g>
<!-- Node21 -->
<g id="node22" class="node">
<title>Node21</title>
<polygon fill="none" stroke="#bfbfbf" points="1418.0136,-.5 1418.0136,-19.5 1474.0136,-19.5 1474.0136,-.5 1418.0136,-.5"/>
<text text-anchor="middle" x="1446.0136" y="-7.5" font-family="Helvetica,sans-Serif" font-size="10.00" fill="#000000">algorithm</text>
</g>
<!-- Node17&#45;&gt;Node21 -->
<g id="edge26" class="edge">
<title>Node17&#45;&gt;Node21</title>
<path fill="none" stroke="#191970" d="M1229.9147,-56.4503C1275.0643,-48.2037 1341.4064,-35.5129 1407.9637,-20.1337"/>
<polygon fill="#191970" stroke="#191970" points="1408.8381,-23.5238 1417.7827,-17.8454 1407.2492,-16.7065 1408.8381,-23.5238"/>
</g>
<!-- Node22 -->
<g id="node23" class="node">
<title>Node22</title>
<polygon fill="none" stroke="#bfbfbf" points="1492.5136,-.5 1492.5136,-19.5 1533.5136,-19.5 1533.5136,-.5 1492.5136,-.5"/>
<text text-anchor="middle" x="1513.0136" y="-7.5" font-family="Helvetica,sans-Serif" font-size="10.00" fill="#000000">string</text>
</g>
<!-- Node17&#45;&gt;Node22 -->
<g id="edge28" class="edge">
<title>Node17&#45;&gt;Node22</title>
<path fill="none" stroke="#191970" d="M1234.5878,-60.2737C1294.6683,-53.7173 1390.8637,-41.3278 1482.7548,-19.6926"/>
<polygon fill="#191970" stroke="#191970" points="1483.5827,-23.0934 1492.4927,-17.3608 1481.9525,-16.2858 1483.5827,-23.0934"/>
</g>
<!-- Node23 -->
<g id="node24" class="node">
<title>Node23</title>
<polygon fill="none" stroke="#bfbfbf" points="935.5136,-.5 935.5136,-19.5 980.5136,-19.5 980.5136,-.5 935.5136,-.5"/>
<text text-anchor="middle" x="958.0136" y="-7.5" font-family="Helvetica,sans-Serif" font-size="10.00" fill="#000000">climits</text>
</g>
<!-- Node17&#45;&gt;Node23 -->
<g id="edge29" class="edge">
<title>Node17&#45;&gt;Node23</title>
<path fill="none" stroke="#191970" d="M1133.4553,-56.4371C1097.5609,-48.1689 1044.6381,-35.5065 990.4206,-20.2754"/>
<polygon fill="#191970" stroke="#191970" points="991.2195,-16.864 980.6441,-17.5045 989.3107,-23.5988 991.2195,-16.864"/>
</g>
<!-- Node24 -->
<g id="node25" class="node">
<title>Node24</title>
<g id="a_node25"><a xlink:href="../../d7/df8/Types_8h.html" target="_top" xlink:title="MemoryResources/Types.h">
<polygon fill="none" stroke="#000000" points="998.5136,-.5 998.5136,-19.5 1135.5136,-19.5 1135.5136,-.5 998.5136,-.5"/>
<text text-anchor="middle" x="1067.0136" y="-7.5" font-family="Helvetica,sans-Serif" font-size="10.00" fill="#000000">MemoryResources/Types.h</text>
</a>
</g>
</g>
<!-- Node17&#45;&gt;Node24 -->
<g id="edge30" class="edge">
<title>Node17&#45;&gt;Node24</title>
<path fill="none" stroke="#191970" d="M1157.0273,-56.2455C1139.8344,-47.4125 1114.2898,-34.2887 1094.8004,-24.2758"/>
<polygon fill="#191970" stroke="#191970" points="1096.2766,-21.0993 1085.7824,-19.6427 1093.0777,-27.3257 1096.2766,-21.0993"/>
</g>
<!-- Node25 -->
<g id="node26" class="node">
<title>Node25</title>
<polygon fill="none" stroke="#bfbfbf" points="1154.0136,-.5 1154.0136,-19.5 1198.0136,-19.5 1198.0136,-.5 1154.0136,-.5"/>
<text text-anchor="middle" x="1176.0136" y="-7.5" font-family="Helvetica,sans-Serif" font-size="10.00" fill="#000000">cerrno</text>
</g>
<!-- Node17&#45;&gt;Node25 -->
<g id="edge31" class="edge">
<title>Node17&#45;&gt;Node25</title>
<path fill="none" stroke="#191970" d="M1176.0136,-56.2455C1176.0136,-48.9382 1176.0136,-38.6944 1176.0136,-29.7046"/>
<polygon fill="#191970" stroke="#191970" points="1179.5137,-29.6426 1176.0136,-19.6427 1172.5137,-29.6427 1179.5137,-29.6426"/>
</g>
<!-- Node26&#45;&gt;Node8 -->
<g id="edge34" class="edge">
<title>Node26&#45;&gt;Node8</title>
<path fill="none" stroke="#191970" d="M186.7188,-179.4511C104.9227,-161.5713 -44.4395,-119.0634 13.0136,-56 43.9719,-22.0186 367.3897,-12.7088 472.917,-10.5659"/>
<polygon fill="#191970" stroke="#191970" points="473.0679,-14.0637 482.9979,-10.3697 472.9317,-7.065 473.0679,-14.0637"/>
</g>
<!-- Node28 -->
<g id="node29" class="node">
<title>Node28</title>
<polygon fill="none" stroke="#bfbfbf" points="930.5136,-118 930.5136,-137 975.5136,-137 975.5136,-118 930.5136,-118"/>
<text text-anchor="middle" x="953.0136" y="-125" font-family="Helvetica,sans-Serif" font-size="10.00" fill="#000000">cstdlib</text>
</g>
<!-- Node27&#45;&gt;Node28 -->
<g id="edge36" class="edge">
<title>Node27&#45;&gt;Node28</title>
<path fill="none" stroke="#191970" d="M888.8886,-179.3906C900.6433,-169.8786 918.8622,-155.1357 932.8808,-143.7917"/>
<polygon fill="#191970" stroke="#191970" points="935.3992,-146.2562 940.9712,-137.2449 930.9958,-140.8146 935.3992,-146.2562"/>
</g>
<!-- Node27&#45;&gt;Node29 -->
<g id="edge37" class="edge">
<title>Node27&#45;&gt;Node29</title>
<path fill="none" stroke="#191970" d="M899.5136,-179.3906C923.6075,-169.1005 962.035,-152.6888 989.2144,-141.0809"/>
<polygon fill="#191970" stroke="#191970" points="990.8499,-144.1883 998.6716,-137.0419 988.1005,-137.7508 990.8499,-144.1883"/>
</g>
<!-- Node30&#45;&gt;Node29 -->
<g id="edge40" class="edge">
<title>Node30&#45;&gt;Node29</title>
<path fill="none" stroke="#191970" d="M1052.2324,-179.3906C1046.8876,-170.5068 1038.7977,-157.0601 1032.1925,-146.0811"/>
<polygon fill="#191970" stroke="#191970" points="1035.0307,-144.0093 1026.8764,-137.2449 1029.0325,-147.618 1035.0307,-144.0093"/>
</g>
<!-- Node30&#45;&gt;Node31 -->
<g id="edge39" class="edge">
<title>Node30&#45;&gt;Node31</title>
<path fill="none" stroke="#191970" d="M1063.3261,-179.3906C1068.2375,-170.5068 1075.6715,-157.0601 1081.7412,-146.0811"/>
<polygon fill="#191970" stroke="#191970" points="1084.8509,-147.6899 1086.6262,-137.2449 1078.7248,-144.3031 1084.8509,-147.6899"/>
</g>
<!-- Node30&#45;&gt;Node32 -->
<g id="edge41" class="edge">
<title>Node30&#45;&gt;Node32</title>
<path fill="none" stroke="#191970" d="M1074.1074,-179.3906C1090.7365,-169.4616 1116.9113,-153.833 1136.193,-142.3201"/>
<polygon fill="#191970" stroke="#191970" points="1138.2412,-145.1736 1145.0329,-137.0419 1134.6526,-139.1634 1138.2412,-145.1736"/>
</g>
</g>
</svg>
