<?xml version="1.0" encoding="UTF-8" standalone="no"?>
<!DOCTYPE svg PUBLIC "-//W3C//DTD SVG 1.1//EN"
 "http://www.w3.org/Graphics/SVG/1.1/DTD/svg11.dtd">
<!-- Generated by graphviz version 2.40.1 (20161225.0304)
 -->
<!-- Title: /home/runner/work/AliceO2/AliceO2/DataFormats/Detectors/ITSMFT/common/include/DataFormatsITSMFT/ROFRecord.h Pages: 1 -->
<svg width="571pt" height="240pt"
 viewBox="0.00 0.00 570.50 240.00" xmlns="http://www.w3.org/2000/svg" xmlns:xlink="http://www.w3.org/1999/xlink">
<g id="graph0" class="graph" transform="scale(1 1) rotate(0) translate(4 236)">
<title>/home/runner/work/AliceO2/AliceO2/DataFormats/Detectors/ITSMFT/common/include/DataFormatsITSMFT/ROFRecord.h</title>
<!-- Node0 -->
<g id="node1" class="node">
<title>Node0</title>
<polygon fill="#bfbfbf" stroke="#000000" points="176.5,-179.5 176.5,-231.5 402.5,-231.5 402.5,-179.5 176.5,-179.5"/>
<text text-anchor="start" x="184.5" y="-219.5" font-family="Helvetica,sans-Serif" font-size="10.00" fill="#000000">/home/runner/work/AliceO2</text>
<text text-anchor="start" x="184.5" y="-208.5" font-family="Helvetica,sans-Serif" font-size="10.00" fill="#000000">/AliceO2/DataFormats/Detectors</text>
<text text-anchor="start" x="184.5" y="-197.5" font-family="Helvetica,sans-Serif" font-size="10.00" fill="#000000">/ITSMFT/common/include/DataFormatsITSMFT</text>
<text text-anchor="middle" x="289.5" y="-186.5" font-family="Helvetica,sans-Serif" font-size="10.00" fill="#000000">/ROFRecord.h</text>
</g>
<!-- Node1 -->
<g id="node2" class="node">
<title>Node1</title>
<g id="a_node2"><a xlink:href="../../de/d64/RangeReference_8h.html" target="_top" xlink:title="Class to refer to the 1st entry and N elements of some group in the continuous container. ">
<polygon fill="none" stroke="#000000" points="0,-118 0,-137 193,-137 193,-118 0,-118"/>
<text text-anchor="middle" x="96.5" y="-125" font-family="Helvetica,sans-Serif" font-size="10.00" fill="#000000">CommonDataFormat/RangeReference.h</text>
</a>
</g>
</g>
<!-- Node0&#45;&gt;Node1 -->
<g id="edge1" class="edge">
<title>Node0&#45;&gt;Node1</title>
<path fill="none" stroke="#191970" d="M224.9655,-179.4187C193.0939,-166.538 155.978,-151.5377 129.8603,-140.9824"/>
<polygon fill="#191970" stroke="#191970" points="131.0058,-137.6703 120.4228,-137.1683 128.3828,-144.1604 131.0058,-137.6703"/>
</g>
<!-- Node4 -->
<g id="node5" class="node">
<title>Node4</title>
<g id="a_node5"><a xlink:href="../../d9/d80/InteractionRecord_8h.html" target="_top" xlink:title="CommonDataFormat/Interaction\lRecord.h">
<polygon fill="none" stroke="#000000" points="211,-112.5 211,-142.5 368,-142.5 368,-112.5 211,-112.5"/>
<text text-anchor="start" x="219" y="-130.5" font-family="Helvetica,sans-Serif" font-size="10.00" fill="#000000">CommonDataFormat/Interaction</text>
<text text-anchor="middle" x="289.5" y="-119.5" font-family="Helvetica,sans-Serif" font-size="10.00" fill="#000000">Record.h</text>
</a>
</g>
</g>
<!-- Node0&#45;&gt;Node4 -->
<g id="edge4" class="edge">
<title>Node0&#45;&gt;Node4</title>
<path fill="none" stroke="#191970" d="M289.5,-179.0928C289.5,-170.516 289.5,-161.0289 289.5,-152.5538"/>
<polygon fill="#191970" stroke="#191970" points="293.0001,-152.5045 289.5,-142.5046 286.0001,-152.5046 293.0001,-152.5045"/>
</g>
<!-- Node9 -->
<g id="node10" class="node">
<title>Node9</title>
<polygon fill="none" stroke="#bfbfbf" points="386,-118 386,-137 439,-137 439,-118 386,-118"/>
<text text-anchor="middle" x="412.5" y="-125" font-family="Helvetica,sans-Serif" font-size="10.00" fill="#000000">gsl/span</text>
</g>
<!-- Node0&#45;&gt;Node9 -->
<g id="edge10" class="edge">
<title>Node0&#45;&gt;Node9</title>
<path fill="none" stroke="#191970" d="M330.7994,-179.3101C350.1139,-167.0619 372.4189,-152.9173 388.8383,-142.505"/>
<polygon fill="#191970" stroke="#191970" points="390.7276,-145.4514 397.2983,-137.1401 386.9788,-139.5398 390.7276,-145.4514"/>
</g>
<!-- Node2 -->
<g id="node3" class="node">
<title>Node2</title>
<g id="a_node3"><a xlink:href="../../d2/d45/GPUCommonRtypes_8h.html" target="_top" xlink:title="GPUCommonRtypes.h">
<polygon fill="none" stroke="#000000" points="51.5,-56.5 51.5,-75.5 169.5,-75.5 169.5,-56.5 51.5,-56.5"/>
<text text-anchor="middle" x="110.5" y="-63.5" font-family="Helvetica,sans-Serif" font-size="10.00" fill="#000000">GPUCommonRtypes.h</text>
</a>
</g>
</g>
<!-- Node1&#45;&gt;Node2 -->
<g id="edge2" class="edge">
<title>Node1&#45;&gt;Node2</title>
<path fill="none" stroke="#191970" d="M98.6875,-117.8906C100.6486,-109.276 103.5863,-96.3708 106.0415,-85.5858"/>
<polygon fill="#191970" stroke="#191970" points="109.4746,-86.2723 108.2817,-75.7449 102.6493,-84.7185 109.4746,-86.2723"/>
</g>
<!-- Node3 -->
<g id="node4" class="node">
<title>Node3</title>
<polygon fill="none" stroke="#bfbfbf" points="82.5,-.5 82.5,-19.5 138.5,-19.5 138.5,-.5 82.5,-.5"/>
<text text-anchor="middle" x="110.5" y="-7.5" font-family="Helvetica,sans-Serif" font-size="10.00" fill="#000000">Rtypes.h</text>
</g>
<!-- Node2&#45;&gt;Node3 -->
<g id="edge3" class="edge">
<title>Node2&#45;&gt;Node3</title>
<path fill="none" stroke="#191970" d="M110.5,-56.2455C110.5,-48.9382 110.5,-38.6944 110.5,-29.7046"/>
<polygon fill="#191970" stroke="#191970" points="114.0001,-29.6426 110.5,-19.6427 107.0001,-29.6427 114.0001,-29.6426"/>
</g>
<!-- Node4&#45;&gt;Node2 -->
<g id="edge5" class="edge">
<title>Node4&#45;&gt;Node2</title>
<path fill="none" stroke="#191970" d="M245.7117,-112.4554C215.7141,-102.149 176.3513,-88.6249 147.8384,-78.8286"/>
<polygon fill="#191970" stroke="#191970" points="148.8333,-75.4696 138.2386,-75.5303 146.5587,-82.0898 148.8333,-75.4696"/>
</g>
<!-- Node5 -->
<g id="node6" class="node">
<title>Node5</title>
<polygon fill="none" stroke="#bfbfbf" points="195,-56.5 195,-75.5 240,-75.5 240,-56.5 195,-56.5"/>
<text text-anchor="middle" x="217.5" y="-63.5" font-family="Helvetica,sans-Serif" font-size="10.00" fill="#000000">iosfwd</text>
</g>
<!-- Node4&#45;&gt;Node5 -->
<g id="edge6" class="edge">
<title>Node4&#45;&gt;Node5</title>
<path fill="none" stroke="#191970" d="M271.7022,-112.2977C261.0833,-103.2274 247.5969,-91.7077 236.7333,-82.4285"/>
<polygon fill="#191970" stroke="#191970" points="238.9051,-79.6805 229.0281,-75.8469 234.3587,-85.0031 238.9051,-79.6805"/>
</g>
<!-- Node6 -->
<g id="node7" class="node">
<title>Node6</title>
<polygon fill="none" stroke="#bfbfbf" points="258.5,-56.5 258.5,-75.5 304.5,-75.5 304.5,-56.5 258.5,-56.5"/>
<text text-anchor="middle" x="281.5" y="-63.5" font-family="Helvetica,sans-Serif" font-size="10.00" fill="#000000">cstdint</text>
</g>
<!-- Node4&#45;&gt;Node6 -->
<g id="edge7" class="edge">
<title>Node4&#45;&gt;Node6</title>
<path fill="none" stroke="#191970" d="M287.5225,-112.2977C286.4814,-104.2945 285.1923,-94.3843 284.0742,-85.7889"/>
<polygon fill="#191970" stroke="#191970" points="287.5417,-85.3119 282.7809,-75.8469 280.6002,-86.2149 287.5417,-85.3119"/>
</g>
<!-- Node7 -->
<g id="node8" class="node">
<title>Node7</title>
<polygon fill="none" stroke="#bfbfbf" points="322.5,-56.5 322.5,-75.5 366.5,-75.5 366.5,-56.5 322.5,-56.5"/>
<text text-anchor="middle" x="344.5" y="-63.5" font-family="Helvetica,sans-Serif" font-size="10.00" fill="#000000">cmath</text>
</g>
<!-- Node4&#45;&gt;Node7 -->
<g id="edge8" class="edge">
<title>Node4&#45;&gt;Node7</title>
<path fill="none" stroke="#191970" d="M303.0955,-112.2977C310.8891,-103.5831 320.7047,-92.6075 328.8226,-83.5302"/>
<polygon fill="#191970" stroke="#191970" points="331.6365,-85.6341 335.6938,-75.8469 326.4187,-80.9678 331.6365,-85.6341"/>
</g>
<!-- Node8 -->
<g id="node9" class="node">
<title>Node8</title>
<g id="a_node9"><a xlink:href="../../d4/dc6/LHCConstants_8h.html" target="_top" xlink:title="Header to collect LHC related constants. ">
<polygon fill="none" stroke="#000000" points="384.5,-56.5 384.5,-75.5 562.5,-75.5 562.5,-56.5 384.5,-56.5"/>
<text text-anchor="middle" x="473.5" y="-63.5" font-family="Helvetica,sans-Serif" font-size="10.00" fill="#000000">CommonConstants/LHCConstants.h</text>
</a>
</g>
</g>
<!-- Node4&#45;&gt;Node8 -->
<g id="edge9" class="edge">
<title>Node4&#45;&gt;Node8</title>
<path fill="none" stroke="#191970" d="M334.5115,-112.4554C365.4816,-102.104 406.1628,-88.5067 435.502,-78.7004"/>
<polygon fill="#191970" stroke="#191970" points="436.6118,-82.0199 444.9865,-75.5303 434.3927,-75.3809 436.6118,-82.0199"/>
</g>
</g>
</svg>
