<?xml version="1.0" encoding="UTF-8" standalone="no"?>
<!DOCTYPE svg PUBLIC "-//W3C//DTD SVG 1.1//EN"
 "http://www.w3.org/Graphics/SVG/1.1/DTD/svg11.dtd">
<!-- Generated by graphviz version 2.40.1 (20161225.0304)
 -->
<!-- Title: /home/runner/work/AliceO2/AliceO2/Detectors/MUON/MCH/Raw/Encoder/Payload/BitSet.h Pages: 1 -->
<!--zoomable 239 -->
<svg id="main" version="1.1" xmlns="http://www.w3.org/2000/svg" xmlns:xlink="http://www.w3.org/1999/xlink" xml:space="preserve" onload="init(evt)">
<style type="text/css"><![CDATA[
.edge:hover path { stroke: red; }
.edge:hover polygon { stroke: red; fill: red; }
]]></style>
<script type="text/javascript"><![CDATA[
var edges = document.getElementsByTagName('g');
if (edges && edges.length) {
  for (var i=0;i<edges.length;i++) {
    if (edges[i].id.substr(0,4)=='edge') {
      edges[i].setAttribute('class','edge');
    }
  }
}
]]></script>
        <defs>
                <circle id="rim" cx="0" cy="0" r="7"/>
                <circle id="rim2" cx="0" cy="0" r="3.5"/>
                <g id="zoomPlus">
                        <use xlink:href="#rim" fill="#404040">
                                <set attributeName="fill" to="#808080" begin="zoomplus.mouseover" end="zoomplus.mouseout"/>
                        </use>
                        <path d="M-4,0h8M0,-4v8" fill="none" stroke="white" stroke-width="1.5" pointer-events="none"/>
                </g>
                <g id="zoomMin">
                        <use xlink:href="#rim" fill="#404040">
                                <set attributeName="fill" to="#808080" begin="zoomminus.mouseover" end="zoomminus.mouseout"/>
                        </use>
                        <path d="M-4,0h8" fill="none" stroke="white" stroke-width="1.5" pointer-events="none"/>
                </g>
                <g id="dirArrow">
                        <path fill="none" stroke="white" stroke-width="1.5" d="M0,-3.0v7 M-2.5,-0.5L0,-3.0L2.5,-0.5"/>
                </g>
               <g id="resetDef">
                       <use xlink:href="#rim2" fill="#404040">
                               <set attributeName="fill" to="#808080" begin="reset.mouseover" end="reset.mouseout"/>
                       </use>
               </g>
        </defs>

<script type="text/javascript">
var viewWidth = 956;
var viewHeight = 239;
var sectionId = 'dynsection-1';
</script>
<script xlink:href="../../svgpan.js"/>
<svg id="graph" class="graph">
<g id="viewport">
<title>/home/runner/work/AliceO2/AliceO2/Detectors/MUON/MCH/Raw/Encoder/Payload/BitSet.h</title>
<!-- Node7 -->
<g id="node1" class="node">
<title>Node7</title>
<polygon fill="#bfbfbf" stroke="#000000" points="563,-178.5 563,-230.5 706,-230.5 706,-178.5 563,-178.5"/>
<text text-anchor="start" x="571" y="-218.5" font-family="Helvetica,sans-Serif" font-size="10.00" fill="#000000">/home/runner/work/AliceO2</text>
<text text-anchor="start" x="571" y="-207.5" font-family="Helvetica,sans-Serif" font-size="10.00" fill="#000000">/AliceO2/Detectors/MUON</text>
<text text-anchor="start" x="571" y="-196.5" font-family="Helvetica,sans-Serif" font-size="10.00" fill="#000000">/MCH/Raw/Encoder/Payload</text>
<text text-anchor="middle" x="634.5" y="-185.5" font-family="Helvetica,sans-Serif" font-size="10.00" fill="#000000">/BitSet.h</text>
</g>
<!-- Node8 -->
<g id="node2" class="node">
<title>Node8</title>
<g id="a_node2"><a xlink:href="../../df/d23/BareElinkEncoder_8h.html" target="_top" xlink:title="/home/runner/work/AliceO2\l/AliceO2/Detectors/MUON\l/MCH/Raw/Encoder/Payload\l/BareElinkEncoder.h">
<polygon fill="none" stroke="#000000" points="322,-89.5 322,-141.5 465,-141.5 465,-89.5 322,-89.5"/>
<text text-anchor="start" x="330" y="-129.5" font-family="Helvetica,sans-Serif" font-size="10.00" fill="#000000">/home/runner/work/AliceO2</text>
<text text-anchor="start" x="330" y="-118.5" font-family="Helvetica,sans-Serif" font-size="10.00" fill="#000000">/AliceO2/Detectors/MUON</text>
<text text-anchor="start" x="330" y="-107.5" font-family="Helvetica,sans-Serif" font-size="10.00" fill="#000000">/MCH/Raw/Encoder/Payload</text>
<text text-anchor="middle" x="393.5" y="-96.5" font-family="Helvetica,sans-Serif" font-size="10.00" fill="#000000">/BareElinkEncoder.h</text>
</a>
</g>
</g>
<!-- Node7&#45;&gt;Node8 -->
<g id="edge1" class="edge">
<title>Node7&#45;&gt;Node8</title>
<path fill="none" stroke="#191970" d="M554.0986,-174.8082C524.9996,-164.0621 492.3795,-152.0157 464.1783,-141.6011"/>
<polygon fill="#191970" stroke="#191970" points="553.2272,-178.2174 563.8204,-178.3984 555.6522,-171.6508 553.2272,-178.2174"/>
</g>
<!-- Node14 -->
<g id="node8" class="node">
<title>Node14</title>
<g id="a_node8"><a xlink:href="../../dd/d63/benchBitSet_8cxx.html" target="_top" xlink:title="/home/runner/work/AliceO2\l/AliceO2/Detectors/MUON\l/MCH/Raw/Encoder/Payload\l/benchBitSet.cxx">
<polygon fill="none" stroke="#000000" points="483,-89.5 483,-141.5 626,-141.5 626,-89.5 483,-89.5"/>
<text text-anchor="start" x="491" y="-129.5" font-family="Helvetica,sans-Serif" font-size="10.00" fill="#000000">/home/runner/work/AliceO2</text>
<text text-anchor="start" x="491" y="-118.5" font-family="Helvetica,sans-Serif" font-size="10.00" fill="#000000">/AliceO2/Detectors/MUON</text>
<text text-anchor="start" x="491" y="-107.5" font-family="Helvetica,sans-Serif" font-size="10.00" fill="#000000">/MCH/Raw/Encoder/Payload</text>
<text text-anchor="middle" x="554.5" y="-96.5" font-family="Helvetica,sans-Serif" font-size="10.00" fill="#000000">/benchBitSet.cxx</text>
</a>
</g>
</g>
<!-- Node7&#45;&gt;Node14 -->
<g id="edge7" class="edge">
<title>Node7&#45;&gt;Node14</title>
<path fill="none" stroke="#191970" d="M604.1323,-170.7159C595.4413,-161.0472 586.1052,-150.6608 577.9015,-141.5341"/>
<polygon fill="#191970" stroke="#191970" points="601.642,-173.1811 610.9301,-178.2784 606.848,-168.5015 601.642,-173.1811"/>
</g>
<!-- Node15 -->
<g id="node9" class="node">
<title>Node15</title>
<g id="a_node9"><a xlink:href="../../dd/d12/BitSet_8cxx.html" target="_top" xlink:title="/home/runner/work/AliceO2\l/AliceO2/Detectors/MUON\l/MCH/Raw/Encoder/Payload\l/BitSet.cxx">
<polygon fill="none" stroke="#000000" points="644,-89.5 644,-141.5 787,-141.5 787,-89.5 644,-89.5"/>
<text text-anchor="start" x="652" y="-129.5" font-family="Helvetica,sans-Serif" font-size="10.00" fill="#000000">/home/runner/work/AliceO2</text>
<text text-anchor="start" x="652" y="-118.5" font-family="Helvetica,sans-Serif" font-size="10.00" fill="#000000">/AliceO2/Detectors/MUON</text>
<text text-anchor="start" x="652" y="-107.5" font-family="Helvetica,sans-Serif" font-size="10.00" fill="#000000">/MCH/Raw/Encoder/Payload</text>
<text text-anchor="middle" x="715.5" y="-96.5" font-family="Helvetica,sans-Serif" font-size="10.00" fill="#000000">/BitSet.cxx</text>
</a>
</g>
</g>
<!-- Node7&#45;&gt;Node15 -->
<g id="edge8" class="edge">
<title>Node7&#45;&gt;Node15</title>
<path fill="none" stroke="#191970" d="M665.2473,-170.7159C674.047,-161.0472 683.4997,-150.6608 691.806,-141.5341"/>
<polygon fill="#191970" stroke="#191970" points="662.507,-168.527 658.3646,-178.2784 667.6839,-173.2386 662.507,-168.527"/>
</g>
<!-- Node16 -->
<g id="node10" class="node">
<title>Node16</title>
<g id="a_node10"><a xlink:href="../../dc/dcc/testBitSet_8cxx.html" target="_top" xlink:title="/home/runner/work/AliceO2\l/AliceO2/Detectors/MUON\l/MCH/Raw/Encoder/Payload\l/testBitSet.cxx">
<polygon fill="none" stroke="#000000" points="805,-89.5 805,-141.5 948,-141.5 948,-89.5 805,-89.5"/>
<text text-anchor="start" x="813" y="-129.5" font-family="Helvetica,sans-Serif" font-size="10.00" fill="#000000">/home/runner/work/AliceO2</text>
<text text-anchor="start" x="813" y="-118.5" font-family="Helvetica,sans-Serif" font-size="10.00" fill="#000000">/AliceO2/Detectors/MUON</text>
<text text-anchor="start" x="813" y="-107.5" font-family="Helvetica,sans-Serif" font-size="10.00" fill="#000000">/MCH/Raw/Encoder/Payload</text>
<text text-anchor="middle" x="876.5" y="-96.5" font-family="Helvetica,sans-Serif" font-size="10.00" fill="#000000">/testBitSet.cxx</text>
</a>
</g>
</g>
<!-- Node7&#45;&gt;Node16 -->
<g id="edge9" class="edge">
<title>Node7&#45;&gt;Node16</title>
<path fill="none" stroke="#191970" d="M715.235,-174.8082C744.4547,-164.0621 777.2102,-152.0157 805.5284,-141.6011"/>
<polygon fill="#191970" stroke="#191970" points="713.6501,-171.6618 705.4728,-178.3984 716.0664,-178.2316 713.6501,-171.6618"/>
</g>
<!-- Node9 -->
<g id="node3" class="node">
<title>Node9</title>
<g id="a_node3"><a xlink:href="../../d6/d9e/PayloadEncoder_8cxx.html" target="_top" xlink:title="/home/runner/work/AliceO2\l/AliceO2/Detectors/MUON\l/MCH/Raw/Encoder/Payload\l/PayloadEncoder.cxx">
<polygon fill="none" stroke="#000000" points="0,-.5 0,-52.5 143,-52.5 143,-.5 0,-.5"/>
<text text-anchor="start" x="8" y="-40.5" font-family="Helvetica,sans-Serif" font-size="10.00" fill="#000000">/home/runner/work/AliceO2</text>
<text text-anchor="start" x="8" y="-29.5" font-family="Helvetica,sans-Serif" font-size="10.00" fill="#000000">/AliceO2/Detectors/MUON</text>
<text text-anchor="start" x="8" y="-18.5" font-family="Helvetica,sans-Serif" font-size="10.00" fill="#000000">/MCH/Raw/Encoder/Payload</text>
<text text-anchor="middle" x="71.5" y="-7.5" font-family="Helvetica,sans-Serif" font-size="10.00" fill="#000000">/PayloadEncoder.cxx</text>
</a>
</g>
</g>
<!-- Node8&#45;&gt;Node9 -->
<g id="edge2" class="edge">
<title>Node8&#45;&gt;Node9</title>
<path fill="none" stroke="#191970" d="M312.0947,-95.9235C264.9685,-84.23 204.6436,-68.6453 151.5,-53 148.8333,-52.2149 146.1217,-51.4004 143.3866,-50.5651"/>
<polygon fill="#191970" stroke="#191970" points="311.3955,-99.3559 321.9432,-98.3583 313.0755,-92.5605 311.3955,-99.3559"/>
</g>
<!-- Node10 -->
<g id="node4" class="node">
<title>Node10</title>
<g id="a_node4"><a xlink:href="../../d7/d33/testBareElinkEncoder_8cxx.html" target="_top" xlink:title="/home/runner/work/AliceO2\l/AliceO2/Detectors/MUON\l/MCH/Raw/Encoder/Payload\l/testBareElinkEncoder.cxx">
<polygon fill="none" stroke="#000000" points="161,-.5 161,-52.5 304,-52.5 304,-.5 161,-.5"/>
<text text-anchor="start" x="169" y="-40.5" font-family="Helvetica,sans-Serif" font-size="10.00" fill="#000000">/home/runner/work/AliceO2</text>
<text text-anchor="start" x="169" y="-29.5" font-family="Helvetica,sans-Serif" font-size="10.00" fill="#000000">/AliceO2/Detectors/MUON</text>
<text text-anchor="start" x="169" y="-18.5" font-family="Helvetica,sans-Serif" font-size="10.00" fill="#000000">/MCH/Raw/Encoder/Payload</text>
<text text-anchor="middle" x="232.5" y="-7.5" font-family="Helvetica,sans-Serif" font-size="10.00" fill="#000000">/testBareElinkEncoder.cxx</text>
</a>
</g>
</g>
<!-- Node8&#45;&gt;Node10 -->
<g id="edge3" class="edge">
<title>Node8&#45;&gt;Node10</title>
<path fill="none" stroke="#191970" d="M337.283,-84.4235C318.449,-74.0122 297.6584,-62.5192 279.5955,-52.5341"/>
<polygon fill="#191970" stroke="#191970" points="335.6204,-87.5036 346.0655,-89.2784 339.007,-81.3773 335.6204,-87.5036"/>
</g>
<!-- Node11 -->
<g id="node5" class="node">
<title>Node11</title>
<g id="a_node5"><a xlink:href="../../d4/df7/testElinkEncoder_8cxx.html" target="_top" xlink:title="/home/runner/work/AliceO2\l/AliceO2/Detectors/MUON\l/MCH/Raw/Encoder/Payload\l/testElinkEncoder.cxx">
<polygon fill="none" stroke="#000000" points="322,-.5 322,-52.5 465,-52.5 465,-.5 322,-.5"/>
<text text-anchor="start" x="330" y="-40.5" font-family="Helvetica,sans-Serif" font-size="10.00" fill="#000000">/home/runner/work/AliceO2</text>
<text text-anchor="start" x="330" y="-29.5" font-family="Helvetica,sans-Serif" font-size="10.00" fill="#000000">/AliceO2/Detectors/MUON</text>
<text text-anchor="start" x="330" y="-18.5" font-family="Helvetica,sans-Serif" font-size="10.00" fill="#000000">/MCH/Raw/Encoder/Payload</text>
<text text-anchor="middle" x="393.5" y="-7.5" font-family="Helvetica,sans-Serif" font-size="10.00" fill="#000000">/testElinkEncoder.cxx</text>
</a>
</g>
</g>
<!-- Node8&#45;&gt;Node11 -->
<g id="edge4" class="edge">
<title>Node8&#45;&gt;Node11</title>
<path fill="none" stroke="#191970" d="M393.5,-79.1155C393.5,-70.2061 393.5,-60.8475 393.5,-52.5341"/>
<polygon fill="#191970" stroke="#191970" points="390.0001,-79.2784 393.5,-89.2784 397.0001,-79.2785 390.0001,-79.2784"/>
</g>
<!-- Node12 -->
<g id="node6" class="node">
<title>Node12</title>
<g id="a_node6"><a xlink:href="../../d5/dd6/testGBTEncoder_8cxx.html" target="_top" xlink:title="/home/runner/work/AliceO2\l/AliceO2/Detectors/MUON\l/MCH/Raw/Encoder/Payload\l/testGBTEncoder.cxx">
<polygon fill="none" stroke="#000000" points="483,-.5 483,-52.5 626,-52.5 626,-.5 483,-.5"/>
<text text-anchor="start" x="491" y="-40.5" font-family="Helvetica,sans-Serif" font-size="10.00" fill="#000000">/home/runner/work/AliceO2</text>
<text text-anchor="start" x="491" y="-29.5" font-family="Helvetica,sans-Serif" font-size="10.00" fill="#000000">/AliceO2/Detectors/MUON</text>
<text text-anchor="start" x="491" y="-18.5" font-family="Helvetica,sans-Serif" font-size="10.00" fill="#000000">/MCH/Raw/Encoder/Payload</text>
<text text-anchor="middle" x="554.5" y="-7.5" font-family="Helvetica,sans-Serif" font-size="10.00" fill="#000000">/testGBTEncoder.cxx</text>
</a>
</g>
</g>
<!-- Node8&#45;&gt;Node12 -->
<g id="edge5" class="edge">
<title>Node8&#45;&gt;Node12</title>
<path fill="none" stroke="#191970" d="M449.717,-84.4235C468.551,-74.0122 489.3416,-62.5192 507.4045,-52.5341"/>
<polygon fill="#191970" stroke="#191970" points="447.993,-81.3773 440.9345,-89.2784 451.3796,-87.5036 447.993,-81.3773"/>
</g>
<!-- Node13 -->
<g id="node7" class="node">
<title>Node13</title>
<g id="a_node7"><a xlink:href="../../d2/ded/testPayloadEncoder_8cxx.html" target="_top" xlink:title="/home/runner/work/AliceO2\l/AliceO2/Detectors/MUON\l/MCH/Raw/Encoder/Payload\l/testPayloadEncoder.cxx">
<polygon fill="none" stroke="#000000" points="644,-.5 644,-52.5 787,-52.5 787,-.5 644,-.5"/>
<text text-anchor="start" x="652" y="-40.5" font-family="Helvetica,sans-Serif" font-size="10.00" fill="#000000">/home/runner/work/AliceO2</text>
<text text-anchor="start" x="652" y="-29.5" font-family="Helvetica,sans-Serif" font-size="10.00" fill="#000000">/AliceO2/Detectors/MUON</text>
<text text-anchor="start" x="652" y="-18.5" font-family="Helvetica,sans-Serif" font-size="10.00" fill="#000000">/MCH/Raw/Encoder/Payload</text>
<text text-anchor="middle" x="715.5" y="-7.5" font-family="Helvetica,sans-Serif" font-size="10.00" fill="#000000">/testPayloadEncoder.cxx</text>
</a>
</g>
</g>
<!-- Node8&#45;&gt;Node13 -->
<g id="edge6" class="edge">
<title>Node8&#45;&gt;Node13</title>
<path fill="none" stroke="#191970" d="M475.3451,-88.8839C546.9846,-69.792 567.869,-71.7123 635.5,-53 638.1792,-52.2587 640.9015,-51.4815 643.6455,-50.6777"/>
<polygon fill="#191970" stroke="#191970" points="474.1153,-85.591 465.3799,-91.5863 475.9474,-92.3469 474.1153,-85.591"/>
</g>
</g>
</svg>
        <g id="navigator" transform="translate(0 0)" fill="#404254">
                <rect fill="#f2f5e9" fill-opacity="0.5" stroke="#606060" stroke-width=".5" x="0" y="0" width="60" height="60"/>
                <use id="zoomplus" xlink:href="#zoomPlus" x="17" y="9" onmousedown="handleZoom(evt,'in')"/>
                <use id="zoomminus" xlink:href="#zoomMin" x="42" y="9" onmousedown="handleZoom(evt,'out')"/>
                <use id="reset" xlink:href="#resetDef" x="30" y="36" onmousedown="handleReset()"/>
                <g id="arrowUp" xlink:href="#dirArrow" transform="translate(30 24)" onmousedown="handlePan(0,-1)">
                  <use xlink:href="#rim" fill="#404040">
                        <set attributeName="fill" to="#808080" begin="arrowUp.mouseover" end="arrowUp.mouseout"/>
                  </use>
                  <path fill="none" stroke="white" stroke-width="1.5" d="M0,-3.0v7 M-2.5,-0.5L0,-3.0L2.5,-0.5"/>
                </g>
                <g id="arrowRight" xlink:href="#dirArrow" transform="rotate(90) translate(36 -43)" onmousedown="handlePan(1,0)">
                  <use xlink:href="#rim" fill="#404040">
                        <set attributeName="fill" to="#808080" begin="arrowRight.mouseover" end="arrowRight.mouseout"/>
                  </use>
                  <path fill="none" stroke="white" stroke-width="1.5" d="M0,-3.0v7 M-2.5,-0.5L0,-3.0L2.5,-0.5"/>
                </g>
                <g id="arrowDown" xlink:href="#dirArrow" transform="rotate(180) translate(-30 -48)" onmousedown="handlePan(0,1)">
                  <use xlink:href="#rim" fill="#404040">
                        <set attributeName="fill" to="#808080" begin="arrowDown.mouseover" end="arrowDown.mouseout"/>
                  </use>
                  <path fill="none" stroke="white" stroke-width="1.5" d="M0,-3.0v7 M-2.5,-0.5L0,-3.0L2.5,-0.5"/>
                </g>
                <g id="arrowLeft" xlink:href="#dirArrow" transform="rotate(270) translate(-36 17)" onmousedown="handlePan(-1,0)">
                  <use xlink:href="#rim" fill="#404040">
                        <set attributeName="fill" to="#808080" begin="arrowLeft.mouseover" end="arrowLeft.mouseout"/>
                  </use>
                  <path fill="none" stroke="white" stroke-width="1.5" d="M0,-3.0v7 M-2.5,-0.5L0,-3.0L2.5,-0.5"/>
                </g>
        </g>
        <svg viewBox="0 0 15 15" width="100%" height="30px" preserveAspectRatio="xMaxYMin meet">
         <g id="arrow_out" transform="scale(0.3 0.3)">
          <a xlink:href="BitSet_8h__dep__incl_org.svg" target="_base">
           <rect id="button" ry="5" rx="5" y="6" x="6" height="38" width="38"
                fill="#f2f5e9" fill-opacity="0.5" stroke="#606060" stroke-width="1.0"/>
           <path id="arrow"
             d="M 11.500037,31.436501 C 11.940474,20.09759 22.043105,11.32322 32.158766,21.979434 L 37.068811,17.246167 C 37.068811,17.246167 37.088388,32 37.088388,32 L 22.160133,31.978069 C 22.160133,31.978069 26.997745,27.140456 26.997745,27.140456 C 18.528582,18.264221 13.291696,25.230495 11.500037,31.436501 z"
             style="fill:#404040;"/>
          </a>
         </g>
        </svg>
</svg>
