<?xml version="1.0" encoding="UTF-8" standalone="no"?>
<!DOCTYPE svg PUBLIC "-//W3C//DTD SVG 1.1//EN"
 "http://www.w3.org/Graphics/SVG/1.1/DTD/svg11.dtd">
<!-- Generated by graphviz version 2.40.1 (20161225.0304)
 -->
<!-- Title: /home/runner/work/AliceO2/AliceO2/DataFormats/Reconstruction/src/Vertex.cxx Pages: 1 -->
<svg width="1749pt" height="352pt"
 viewBox="0.00 0.00 1748.50 352.00" xmlns="http://www.w3.org/2000/svg" xmlns:xlink="http://www.w3.org/1999/xlink">
<g id="graph0" class="graph" transform="scale(1 1) rotate(0) translate(4 348)">
<title>/home/runner/work/AliceO2/AliceO2/DataFormats/Reconstruction/src/Vertex.cxx</title>
<!-- Node0 -->
<g id="node1" class="node">
<title>Node0</title>
<polygon fill="#bfbfbf" stroke="#000000" points="877.5,-302.5 877.5,-343.5 1060.5,-343.5 1060.5,-302.5 877.5,-302.5"/>
<text text-anchor="start" x="885.5" y="-331.5" font-family="Helvetica,sans-Serif" font-size="10.00" fill="#000000">/home/runner/work/AliceO2</text>
<text text-anchor="start" x="885.5" y="-320.5" font-family="Helvetica,sans-Serif" font-size="10.00" fill="#000000">/AliceO2/DataFormats/Reconstruction</text>
<text text-anchor="middle" x="969" y="-309.5" font-family="Helvetica,sans-Serif" font-size="10.00" fill="#000000">/src/Vertex.cxx</text>
</g>
<!-- Node1 -->
<g id="node2" class="node">
<title>Node1</title>
<g id="a_node2"><a xlink:href="../../d3/d6f/DataFormats_2Reconstruction_2include_2ReconstructionDataFormats_2Vertex_8h.html" target="_top" xlink:title="ReconstructionDataFormats\l/Vertex.h">
<polygon fill="none" stroke="#000000" points="779,-235.5 779,-265.5 919,-265.5 919,-235.5 779,-235.5"/>
<text text-anchor="start" x="787" y="-253.5" font-family="Helvetica,sans-Serif" font-size="10.00" fill="#000000">ReconstructionDataFormats</text>
<text text-anchor="middle" x="849" y="-242.5" font-family="Helvetica,sans-Serif" font-size="10.00" fill="#000000">/Vertex.h</text>
</a>
</g>
</g>
<!-- Node0&#45;&gt;Node1 -->
<g id="edge1" class="edge">
<title>Node0&#45;&gt;Node1</title>
<path fill="none" stroke="#191970" d="M934.9338,-302.4183C918.5637,-292.5281 899.0043,-280.7109 882.6842,-270.8509"/>
<polygon fill="#191970" stroke="#191970" points="884.3607,-267.7746 873.9916,-265.5991 880.7409,-273.766 884.3607,-267.7746"/>
</g>
<!-- Node20 -->
<g id="node21" class="node">
<title>Node20</title>
<polygon fill="none" stroke="#bfbfbf" points="937,-241 937,-260 1001,-260 1001,-241 937,-241"/>
<text text-anchor="middle" x="969" y="-248" font-family="Helvetica,sans-Serif" font-size="10.00" fill="#000000">fmt/printf.h</text>
</g>
<!-- Node0&#45;&gt;Node20 -->
<g id="edge24" class="edge">
<title>Node0&#45;&gt;Node20</title>
<path fill="none" stroke="#191970" d="M969,-302.4183C969,-292.32 969,-280.213 969,-270.2314"/>
<polygon fill="#191970" stroke="#191970" points="972.5001,-270.0853 969,-260.0853 965.5001,-270.0854 972.5001,-270.0853"/>
</g>
<!-- Node21 -->
<g id="node22" class="node">
<title>Node21</title>
<polygon fill="none" stroke="#bfbfbf" points="1019,-241 1019,-260 1073,-260 1073,-241 1019,-241"/>
<text text-anchor="middle" x="1046" y="-248" font-family="Helvetica,sans-Serif" font-size="10.00" fill="#000000">iostream</text>
</g>
<!-- Node0&#45;&gt;Node21 -->
<g id="edge25" class="edge">
<title>Node0&#45;&gt;Node21</title>
<path fill="none" stroke="#191970" d="M990.8591,-302.4183C1002.7375,-291.2342 1017.2327,-277.5861 1028.3799,-267.0904"/>
<polygon fill="#191970" stroke="#191970" points="1030.9384,-269.4887 1035.8197,-260.0853 1026.1398,-264.3923 1030.9384,-269.4887"/>
</g>
<!-- Node2 -->
<g id="node3" class="node">
<title>Node2</title>
<g id="a_node3"><a xlink:href="../../dc/d73/Cartesian_8h.html" target="_top" xlink:title="MathUtils/Cartesian.h">
<polygon fill="none" stroke="#000000" points="751,-179.5 751,-198.5 863,-198.5 863,-179.5 751,-179.5"/>
<text text-anchor="middle" x="807" y="-186.5" font-family="Helvetica,sans-Serif" font-size="10.00" fill="#000000">MathUtils/Cartesian.h</text>
</a>
</g>
</g>
<!-- Node1&#45;&gt;Node2 -->
<g id="edge2" class="edge">
<title>Node1&#45;&gt;Node2</title>
<path fill="none" stroke="#191970" d="M838.618,-235.2977C832.8487,-226.8498 825.6284,-216.2773 819.5447,-207.369"/>
<polygon fill="#191970" stroke="#191970" points="822.2547,-205.1311 813.7247,-198.8469 816.4741,-209.0788 822.2547,-205.1311"/>
</g>
<!-- Node16 -->
<g id="node17" class="node">
<title>Node16</title>
<polygon fill="none" stroke="#bfbfbf" points="1695.5,-118 1695.5,-137 1740.5,-137 1740.5,-118 1695.5,-118"/>
<text text-anchor="middle" x="1718" y="-125" font-family="Helvetica,sans-Serif" font-size="10.00" fill="#000000">iosfwd</text>
</g>
<!-- Node1&#45;&gt;Node16 -->
<g id="edge23" class="edge">
<title>Node1&#45;&gt;Node16</title>
<path fill="none" stroke="#191970" d="M856.9415,-235.2364C866.8043,-218.0817 885.3816,-191.057 910,-179 1065.035,-103.0708 1518.682,-185.4942 1686,-143 1687.9744,-142.4986 1689.9715,-141.8688 1691.9527,-141.1522"/>
<polygon fill="#191970" stroke="#191970" points="1693.7361,-144.1957 1701.5466,-137.0369 1690.9766,-137.7626 1693.7361,-144.1957"/>
</g>
<!-- Node18 -->
<g id="node19" class="node">
<title>Node18</title>
<g id="a_node19"><a xlink:href="../../df/d5d/common_2include_2CommonDataFormat_2TimeStamp_8h.html" target="_top" xlink:title="CommonDataFormat/TimeStamp.h">
<polygon fill="none" stroke="#000000" points="0,-179.5 0,-198.5 170,-198.5 170,-179.5 0,-179.5"/>
<text text-anchor="middle" x="85" y="-186.5" font-family="Helvetica,sans-Serif" font-size="10.00" fill="#000000">CommonDataFormat/TimeStamp.h</text>
</a>
</g>
</g>
<!-- Node1&#45;&gt;Node18 -->
<g id="edge19" class="edge">
<title>Node1&#45;&gt;Node18</title>
<path fill="none" stroke="#191970" d="M778.8348,-244.8519C641.219,-233.7742 335.7864,-209.1876 180.1507,-196.6594"/>
<polygon fill="#191970" stroke="#191970" points="180.3679,-193.1656 170.1192,-195.8519 179.8061,-200.1431 180.3679,-193.1656"/>
</g>
<!-- Node19 -->
<g id="node20" class="node">
<title>Node19</title>
<polygon fill="none" stroke="#bfbfbf" points="919,-179.5 919,-198.5 957,-198.5 957,-179.5 919,-179.5"/>
<text text-anchor="middle" x="938" y="-186.5" font-family="Helvetica,sans-Serif" font-size="10.00" fill="#000000">array</text>
</g>
<!-- Node1&#45;&gt;Node19 -->
<g id="edge22" class="edge">
<title>Node1&#45;&gt;Node19</title>
<path fill="none" stroke="#191970" d="M871,-235.2977C884.5968,-225.9022 901.9966,-213.8787 915.6567,-204.4395"/>
<polygon fill="#191970" stroke="#191970" points="917.7785,-207.2276 924.0158,-198.6633 913.7991,-201.4688 917.7785,-207.2276"/>
</g>
<!-- Node3 -->
<g id="node4" class="node">
<title>Node3</title>
<g id="a_node4"><a xlink:href="../../df/d21/GPUCommonDef_8h.html" target="_top" xlink:title="GPUCommonDef.h">
<polygon fill="none" stroke="#000000" points="126,-56.5 126,-75.5 228,-75.5 228,-56.5 126,-56.5"/>
<text text-anchor="middle" x="177" y="-63.5" font-family="Helvetica,sans-Serif" font-size="10.00" fill="#000000">GPUCommonDef.h</text>
</a>
</g>
</g>
<!-- Node2&#45;&gt;Node3 -->
<g id="edge3" class="edge">
<title>Node2&#45;&gt;Node3</title>
<path fill="none" stroke="#191970" d="M750.9068,-188.6542C606.8184,-187.2347 232.1045,-179.9885 191,-143 175.2665,-128.842 173.4969,-103.403 174.5228,-85.6545"/>
<polygon fill="#191970" stroke="#191970" points="178.0232,-85.8104 175.4523,-75.5322 171.0525,-85.1702 178.0232,-85.8104"/>
</g>
<!-- Node6 -->
<g id="node7" class="node">
<title>Node6</title>
<g id="a_node7"><a xlink:href="../../d2/d45/GPUCommonRtypes_8h.html" target="_top" xlink:title="GPUCommonRtypes.h">
<polygon fill="none" stroke="#000000" points="26,-118 26,-137 144,-137 144,-118 26,-118"/>
<text text-anchor="middle" x="85" y="-125" font-family="Helvetica,sans-Serif" font-size="10.00" fill="#000000">GPUCommonRtypes.h</text>
</a>
</g>
</g>
<!-- Node2&#45;&gt;Node6 -->
<g id="edge6" class="edge">
<title>Node2&#45;&gt;Node6</title>
<path fill="none" stroke="#191970" d="M750.7316,-187.6317C637.8301,-184.3096 375.8303,-173.695 158,-143 150.5068,-141.9441 142.633,-140.5632 134.9422,-139.0606"/>
<polygon fill="#191970" stroke="#191970" points="135.4821,-135.5988 124.9847,-137.0322 134.0848,-142.4579 135.4821,-135.5988"/>
</g>
<!-- Node8 -->
<g id="node9" class="node">
<title>Node8</title>
<polygon fill="none" stroke="#bfbfbf" points="812.5,-112.5 812.5,-142.5 963.5,-142.5 963.5,-112.5 812.5,-112.5"/>
<text text-anchor="start" x="820.5" y="-130.5" font-family="Helvetica,sans-Serif" font-size="10.00" fill="#000000">Math/GenVector/Displacement</text>
<text text-anchor="middle" x="888" y="-119.5" font-family="Helvetica,sans-Serif" font-size="10.00" fill="#000000">Vector3D.h</text>
</g>
<!-- Node2&#45;&gt;Node8 -->
<g id="edge8" class="edge">
<title>Node2&#45;&gt;Node8</title>
<path fill="none" stroke="#191970" d="M819.6563,-179.3906C830.4156,-171.2215 846.2565,-159.1941 859.9791,-148.7752"/>
<polygon fill="#191970" stroke="#191970" points="862.3372,-151.3793 868.1852,-142.5446 858.1042,-145.8042 862.3372,-151.3793"/>
</g>
<!-- Node9 -->
<g id="node10" class="node">
<title>Node9</title>
<polygon fill="none" stroke="#bfbfbf" points="982,-118 982,-137 1158,-137 1158,-118 982,-118"/>
<text text-anchor="middle" x="1070" y="-125" font-family="Helvetica,sans-Serif" font-size="10.00" fill="#000000">Math/GenVector/PositionVector3D.h</text>
</g>
<!-- Node2&#45;&gt;Node9 -->
<g id="edge9" class="edge">
<title>Node2&#45;&gt;Node9</title>
<path fill="none" stroke="#191970" d="M847.8052,-179.4581C893.9689,-168.6632 969.2072,-151.0694 1019.154,-139.3899"/>
<polygon fill="#191970" stroke="#191970" points="1020.1587,-142.7494 1029.0991,-137.0643 1018.5648,-135.9333 1020.1587,-142.7494"/>
</g>
<!-- Node10 -->
<g id="node11" class="node">
<title>Node10</title>
<polygon fill="none" stroke="#bfbfbf" points="1175.5,-118 1175.5,-137 1324.5,-137 1324.5,-118 1175.5,-118"/>
<text text-anchor="middle" x="1250" y="-125" font-family="Helvetica,sans-Serif" font-size="10.00" fill="#000000">Math/GenVector/Rotation3D.h</text>
</g>
<!-- Node2&#45;&gt;Node10 -->
<g id="edge10" class="edge">
<title>Node2&#45;&gt;Node10</title>
<path fill="none" stroke="#191970" d="M863.1513,-180.8858C867.8347,-180.2371 872.4978,-179.601 877,-179 1005.7363,-161.8155 1038.6601,-162.9304 1167,-143 1175.0325,-141.7526 1183.4796,-140.3183 1191.7848,-138.8367"/>
<polygon fill="#191970" stroke="#191970" points="1192.5944,-142.2469 1201.8074,-137.0152 1191.3428,-135.3597 1192.5944,-142.2469"/>
</g>
<!-- Node11 -->
<g id="node12" class="node">
<title>Node11</title>
<polygon fill="none" stroke="#bfbfbf" points="1343,-118 1343,-137 1499,-137 1499,-118 1343,-118"/>
<text text-anchor="middle" x="1421" y="-125" font-family="Helvetica,sans-Serif" font-size="10.00" fill="#000000">Math/GenVector/Transform3D.h</text>
</g>
<!-- Node2&#45;&gt;Node11 -->
<g id="edge11" class="edge">
<title>Node2&#45;&gt;Node11</title>
<path fill="none" stroke="#191970" d="M863.1242,-180.6636C867.8136,-180.064 872.4854,-179.4998 877,-179 1079.5032,-156.5822 1131.9125,-168.8988 1334,-143 1343.1638,-141.8256 1352.8304,-140.346 1362.2562,-138.7699"/>
<polygon fill="#191970" stroke="#191970" points="1363.0931,-142.1774 1372.3544,-137.0315 1361.9055,-135.2788 1363.0931,-142.1774"/>
</g>
<!-- Node12 -->
<g id="node13" class="node">
<title>Node12</title>
<polygon fill="none" stroke="#bfbfbf" points="1517,-118 1517,-137 1677,-137 1677,-118 1517,-118"/>
<text text-anchor="middle" x="1597" y="-125" font-family="Helvetica,sans-Serif" font-size="10.00" fill="#000000">Math/GenVector/Translation3D.h</text>
</g>
<!-- Node2&#45;&gt;Node12 -->
<g id="edge12" class="edge">
<title>Node2&#45;&gt;Node12</title>
<path fill="none" stroke="#191970" d="M863.1129,-180.5563C867.8048,-179.9804 872.4803,-179.4509 877,-179 1156.5127,-151.1122 1228.9456,-175.1513 1508,-143 1517.816,-141.8691 1528.1907,-140.356 1538.2546,-138.7175"/>
<polygon fill="#191970" stroke="#191970" points="1538.9024,-142.1578 1548.1828,-137.0466 1537.7406,-135.2549 1538.9024,-142.1578"/>
</g>
<!-- Node13 -->
<g id="node14" class="node">
<title>Node13</title>
<polygon fill="none" stroke="#bfbfbf" points="200.5,-112.5 200.5,-142.5 351.5,-142.5 351.5,-112.5 200.5,-112.5"/>
<text text-anchor="start" x="208.5" y="-130.5" font-family="Helvetica,sans-Serif" font-size="10.00" fill="#000000">Math/GenVector/Displacement</text>
<text text-anchor="middle" x="276" y="-119.5" font-family="Helvetica,sans-Serif" font-size="10.00" fill="#000000">Vector2D.h</text>
</g>
<!-- Node2&#45;&gt;Node13 -->
<g id="edge13" class="edge">
<title>Node2&#45;&gt;Node13</title>
<path fill="none" stroke="#191970" d="M750.8553,-184.6165C668.04,-177.8401 508.0679,-163.5674 361.998,-143.0742"/>
<polygon fill="#191970" stroke="#191970" points="362.3443,-139.5884 351.9524,-141.6517 361.3629,-146.5192 362.3443,-139.5884"/>
</g>
<!-- Node14 -->
<g id="node15" class="node">
<title>Node14</title>
<polygon fill="none" stroke="#bfbfbf" points="370,-118 370,-137 546,-137 546,-118 370,-118"/>
<text text-anchor="middle" x="458" y="-125" font-family="Helvetica,sans-Serif" font-size="10.00" fill="#000000">Math/GenVector/PositionVector2D.h</text>
</g>
<!-- Node2&#45;&gt;Node14 -->
<g id="edge14" class="edge">
<title>Node2&#45;&gt;Node14</title>
<path fill="none" stroke="#191970" d="M752.8517,-179.4581C690.4785,-168.4668 588.1071,-150.4272 521.8898,-138.7585"/>
<polygon fill="#191970" stroke="#191970" points="522.4439,-135.3023 511.9882,-137.0137 521.229,-142.1961 522.4439,-135.3023"/>
</g>
<!-- Node15 -->
<g id="node16" class="node">
<title>Node15</title>
<polygon fill="none" stroke="#bfbfbf" points="564,-118 564,-137 640,-137 640,-118 564,-118"/>
<text text-anchor="middle" x="602" y="-125" font-family="Helvetica,sans-Serif" font-size="10.00" fill="#000000">TGeoMatrix.h</text>
</g>
<!-- Node2&#45;&gt;Node15 -->
<g id="edge15" class="edge">
<title>Node2&#45;&gt;Node15</title>
<path fill="none" stroke="#191970" d="M772.9933,-179.4738C740.9257,-170.4023 691.5655,-156.2105 649,-143 646.0587,-142.0871 643.0197,-141.1261 639.9679,-140.1481"/>
<polygon fill="#191970" stroke="#191970" points="640.8734,-136.7624 630.2814,-137.0057 638.7133,-143.4208 640.8734,-136.7624"/>
</g>
<!-- Node2&#45;&gt;Node16 -->
<g id="edge16" class="edge">
<title>Node2&#45;&gt;Node16</title>
<path fill="none" stroke="#191970" d="M863.1069,-180.4942C867.8001,-179.932 872.4775,-179.4226 877,-179 1056.175,-162.2553 1511.5398,-187.1328 1686,-143 1687.9749,-142.5004 1689.9723,-141.8721 1691.9537,-141.1565"/>
<polygon fill="#191970" stroke="#191970" points="1693.7362,-144.2005 1701.5482,-137.0434 1690.9781,-137.7667 1693.7362,-144.2005"/>
</g>
<!-- Node17 -->
<g id="node18" class="node">
<title>Node17</title>
<g id="a_node18"><a xlink:href="../../d1/da8/GPUROOTCartesianFwd_8h.html" target="_top" xlink:title="GPUROOTCartesianFwd.h">
<polygon fill="none" stroke="#000000" points="658,-118 658,-137 794,-137 794,-118 658,-118"/>
<text text-anchor="middle" x="726" y="-125" font-family="Helvetica,sans-Serif" font-size="10.00" fill="#000000">GPUROOTCartesianFwd.h</text>
</a>
</g>
</g>
<!-- Node2&#45;&gt;Node17 -->
<g id="edge17" class="edge">
<title>Node2&#45;&gt;Node17</title>
<path fill="none" stroke="#191970" d="M794.3438,-179.3906C781.6232,-169.7324 761.7996,-154.6812 746.7716,-143.271"/>
<polygon fill="#191970" stroke="#191970" points="748.6484,-140.3015 738.5674,-137.0419 744.4154,-145.8766 748.6484,-140.3015"/>
</g>
<!-- Node4 -->
<g id="node5" class="node">
<title>Node4</title>
<g id="a_node5"><a xlink:href="../../d5/d93/GPUCommonDefSettings_8h.html" target="_top" xlink:title="GPUCommonDefSettings.h">
<polygon fill="none" stroke="#000000" points="35,-.5 35,-19.5 173,-19.5 173,-.5 35,-.5"/>
<text text-anchor="middle" x="104" y="-7.5" font-family="Helvetica,sans-Serif" font-size="10.00" fill="#000000">GPUCommonDefSettings.h</text>
</a>
</g>
</g>
<!-- Node3&#45;&gt;Node4 -->
<g id="edge4" class="edge">
<title>Node3&#45;&gt;Node4</title>
<path fill="none" stroke="#191970" d="M164.2844,-56.2455C153.398,-47.8943 137.5117,-35.7076 124.78,-25.9408"/>
<polygon fill="#191970" stroke="#191970" points="126.6346,-22.9523 116.5699,-19.6427 122.3739,-28.5063 126.6346,-22.9523"/>
</g>
<!-- Node5 -->
<g id="node6" class="node">
<title>Node5</title>
<g id="a_node6"><a xlink:href="../../da/d5a/GPUCommonDefAPI_8h.html" target="_top" xlink:title="GPUCommonDefAPI.h">
<polygon fill="none" stroke="#000000" points="191.5,-.5 191.5,-19.5 310.5,-19.5 310.5,-.5 191.5,-.5"/>
<text text-anchor="middle" x="251" y="-7.5" font-family="Helvetica,sans-Serif" font-size="10.00" fill="#000000">GPUCommonDefAPI.h</text>
</a>
</g>
</g>
<!-- Node3&#45;&gt;Node5 -->
<g id="edge5" class="edge">
<title>Node3&#45;&gt;Node5</title>
<path fill="none" stroke="#191970" d="M189.8898,-56.2455C200.9254,-47.8943 217.0292,-35.7076 229.9353,-25.9408"/>
<polygon fill="#191970" stroke="#191970" points="232.3959,-28.4681 238.2579,-19.6427 228.1717,-22.8862 232.3959,-28.4681"/>
</g>
<!-- Node7 -->
<g id="node8" class="node">
<title>Node7</title>
<polygon fill="none" stroke="#bfbfbf" points="52,-56.5 52,-75.5 108,-75.5 108,-56.5 52,-56.5"/>
<text text-anchor="middle" x="80" y="-63.5" font-family="Helvetica,sans-Serif" font-size="10.00" fill="#000000">Rtypes.h</text>
</g>
<!-- Node6&#45;&gt;Node7 -->
<g id="edge7" class="edge">
<title>Node6&#45;&gt;Node7</title>
<path fill="none" stroke="#191970" d="M84.2188,-117.8906C83.5257,-109.3657 82.491,-96.6392 81.6198,-85.9235"/>
<polygon fill="#191970" stroke="#191970" points="85.0912,-85.4283 80.7923,-75.7449 78.1142,-85.9956 85.0912,-85.4283"/>
</g>
<!-- Node17&#45;&gt;Node3 -->
<g id="edge18" class="edge">
<title>Node17&#45;&gt;Node3</title>
<path fill="none" stroke="#191970" d="M682.5633,-117.9551C671.6449,-115.777 659.9247,-113.6276 649,-112 502.3697,-90.1543 328.501,-76.2824 238.2514,-69.9749"/>
<polygon fill="#191970" stroke="#191970" points="238.4135,-66.4778 228.1958,-69.2793 237.9304,-73.4611 238.4135,-66.4778"/>
</g>
<!-- Node18&#45;&gt;Node3 -->
<g id="edge21" class="edge">
<title>Node18&#45;&gt;Node3</title>
<path fill="none" stroke="#191970" d="M60.1745,-179.4395C44.7121,-172.0336 26.0888,-160.1213 17,-143 10.5399,-130.8306 8.7122,-123.0063 17,-112 23.708,-103.0918 80.4756,-88.2067 124.5087,-77.7885"/>
<polygon fill="#191970" stroke="#191970" points="125.3155,-81.1943 134.2537,-75.5058 123.719,-74.3788 125.3155,-81.1943"/>
</g>
<!-- Node18&#45;&gt;Node6 -->
<g id="edge20" class="edge">
<title>Node18&#45;&gt;Node6</title>
<path fill="none" stroke="#191970" d="M85,-179.3906C85,-170.8657 85,-158.1392 85,-147.4235"/>
<polygon fill="#191970" stroke="#191970" points="88.5001,-147.2448 85,-137.2449 81.5001,-147.2449 88.5001,-147.2448"/>
</g>
</g>
</svg>
