<?xml version="1.0" encoding="UTF-8" standalone="no"?>
<!DOCTYPE svg PUBLIC "-//W3C//DTD SVG 1.1//EN"
 "http://www.w3.org/Graphics/SVG/1.1/DTD/svg11.dtd">
<!-- Generated by graphviz version 2.40.1 (20161225.0304)
 -->
<!-- Title: /home/runner/work/AliceO2/AliceO2/Framework/Core/include/Framework/DataMatcherWalker.h Pages: 1 -->
<!--zoomable 307 -->
<svg id="main" version="1.1" xmlns="http://www.w3.org/2000/svg" xmlns:xlink="http://www.w3.org/1999/xlink" xml:space="preserve" onload="init(evt)">
<style type="text/css"><![CDATA[
.edge:hover path { stroke: red; }
.edge:hover polygon { stroke: red; fill: red; }
]]></style>
<script type="text/javascript"><![CDATA[
var edges = document.getElementsByTagName('g');
if (edges && edges.length) {
  for (var i=0;i<edges.length;i++) {
    if (edges[i].id.substr(0,4)=='edge') {
      edges[i].setAttribute('class','edge');
    }
  }
}
]]></script>
        <defs>
                <circle id="rim" cx="0" cy="0" r="7"/>
                <circle id="rim2" cx="0" cy="0" r="3.5"/>
                <g id="zoomPlus">
                        <use xlink:href="#rim" fill="#404040">
                                <set attributeName="fill" to="#808080" begin="zoomplus.mouseover" end="zoomplus.mouseout"/>
                        </use>
                        <path d="M-4,0h8M0,-4v8" fill="none" stroke="white" stroke-width="1.5" pointer-events="none"/>
                </g>
                <g id="zoomMin">
                        <use xlink:href="#rim" fill="#404040">
                                <set attributeName="fill" to="#808080" begin="zoomminus.mouseover" end="zoomminus.mouseout"/>
                        </use>
                        <path d="M-4,0h8" fill="none" stroke="white" stroke-width="1.5" pointer-events="none"/>
                </g>
                <g id="dirArrow">
                        <path fill="none" stroke="white" stroke-width="1.5" d="M0,-3.0v7 M-2.5,-0.5L0,-3.0L2.5,-0.5"/>
                </g>
               <g id="resetDef">
                       <use xlink:href="#rim2" fill="#404040">
                               <set attributeName="fill" to="#808080" begin="reset.mouseover" end="reset.mouseout"/>
                       </use>
               </g>
        </defs>

<script type="text/javascript">
var viewWidth = 2221;
var viewHeight = 307;
var sectionId = 'dynsection-0';
</script>
<script xlink:href="../../svgpan.js"/>
<svg id="graph" class="graph">
<g id="viewport">
<title>/home/runner/work/AliceO2/AliceO2/Framework/Core/include/Framework/DataMatcherWalker.h</title>
<!-- Node0 -->
<g id="node1" class="node">
<title>Node0</title>
<polygon fill="#bfbfbf" stroke="#000000" points="730,-257.5 730,-298.5 930,-298.5 930,-257.5 730,-257.5"/>
<text text-anchor="start" x="738" y="-286.5" font-family="Helvetica,sans-Serif" font-size="10.00" fill="#000000">/home/runner/work/AliceO2</text>
<text text-anchor="start" x="738" y="-275.5" font-family="Helvetica,sans-Serif" font-size="10.00" fill="#000000">/AliceO2/Framework/Core</text>
<text text-anchor="middle" x="830" y="-264.5" font-family="Helvetica,sans-Serif" font-size="10.00" fill="#000000">/include/Framework/DataMatcherWalker.h</text>
</g>
<!-- Node1 -->
<g id="node2" class="node">
<title>Node1</title>
<g id="a_node2"><a xlink:href="../../d3/da3/DataDescriptorMatcher_8h.html" target="_top" xlink:title="Framework/DataDescriptor\lMatcher.h">
<polygon fill="none" stroke="#000000" points="685,-190.5 685,-220.5 819,-220.5 819,-190.5 685,-190.5"/>
<text text-anchor="start" x="693" y="-208.5" font-family="Helvetica,sans-Serif" font-size="10.00" fill="#000000">Framework/DataDescriptor</text>
<text text-anchor="middle" x="752" y="-197.5" font-family="Helvetica,sans-Serif" font-size="10.00" fill="#000000">Matcher.h</text>
</a>
</g>
</g>
<!-- Node0&#45;&gt;Node1 -->
<g id="edge1" class="edge">
<title>Node0&#45;&gt;Node1</title>
<path fill="none" stroke="#191970" d="M807.857,-257.4183C797.8075,-248.0775 785.909,-237.018 775.6815,-227.5117"/>
<polygon fill="#191970" stroke="#191970" points="777.952,-224.8436 768.2446,-220.5991 773.1863,-229.9709 777.952,-224.8436"/>
</g>
<!-- Node36 -->
<g id="node37" class="node">
<title>Node36</title>
<g id="a_node37"><a xlink:href="../../d7/dbe/VariantHelpers_8h.html" target="_top" xlink:title="Framework/VariantHelpers.h">
<polygon fill="none" stroke="#000000" points="1054.5,-196 1054.5,-215 1195.5,-215 1195.5,-196 1054.5,-196"/>
<text text-anchor="middle" x="1125" y="-203" font-family="Helvetica,sans-Serif" font-size="10.00" fill="#000000">Framework/VariantHelpers.h</text>
</a>
</g>
</g>
<!-- Node0&#45;&gt;Node36 -->
<g id="edge48" class="edge">
<title>Node0&#45;&gt;Node36</title>
<path fill="none" stroke="#191970" d="M913.7461,-257.4183C966.2126,-244.524 1032.0057,-228.3545 1076.1039,-217.5168"/>
<polygon fill="#191970" stroke="#191970" points="1077.1219,-220.8709 1085.9975,-215.0853 1075.4512,-214.0732 1077.1219,-220.8709"/>
</g>
<!-- Node2 -->
<g id="node3" class="node">
<title>Node2</title>
<g id="a_node3"><a xlink:href="../../d0/d1b/ConcreteDataMatcher_8h.html" target="_top" xlink:title="Framework/ConcreteDataMatcher.h">
<polygon fill="none" stroke="#000000" points="404.5,-129 404.5,-148 577.5,-148 577.5,-129 404.5,-129"/>
<text text-anchor="middle" x="491" y="-136" font-family="Helvetica,sans-Serif" font-size="10.00" fill="#000000">Framework/ConcreteDataMatcher.h</text>
</a>
</g>
</g>
<!-- Node1&#45;&gt;Node2 -->
<g id="edge2" class="edge">
<title>Node1&#45;&gt;Node2</title>
<path fill="none" stroke="#191970" d="M693.4265,-190.4639C646.437,-178.4015 581.3542,-161.6944 537.7963,-150.5128"/>
<polygon fill="#191970" stroke="#191970" points="538.5843,-147.1017 528.0281,-148.0053 536.8437,-153.8819 538.5843,-147.1017"/>
</g>
<!-- Node3 -->
<g id="node4" class="node">
<title>Node3</title>
<g id="a_node4"><a xlink:href="../../dc/dcd/DataHeader_8h.html" target="_top" xlink:title="Headers/DataHeader.h">
<polygon fill="none" stroke="#000000" points="317.5,-67.5 317.5,-86.5 434.5,-86.5 434.5,-67.5 317.5,-67.5"/>
<text text-anchor="middle" x="376" y="-74.5" font-family="Helvetica,sans-Serif" font-size="10.00" fill="#000000">Headers/DataHeader.h</text>
</a>
</g>
</g>
<!-- Node1&#45;&gt;Node3 -->
<g id="edge22" class="edge">
<title>Node1&#45;&gt;Node3</title>
<path fill="none" stroke="#191970" d="M684.6471,-199.8371C587.176,-191.0396 416.0871,-173.103 395,-154 379.188,-139.6757 375.5565,-114.4814 375.1532,-96.8241"/>
<polygon fill="#191970" stroke="#191970" points="378.6538,-96.7665 375.2488,-86.7337 371.6541,-96.7001 378.6538,-96.7665"/>
</g>
<!-- Node4 -->
<g id="node5" class="node">
<title>Node4</title>
<polygon fill="none" stroke="#bfbfbf" points="0,-6 0,-25 46,-25 46,-6 0,-6"/>
<text text-anchor="middle" x="23" y="-13" font-family="Helvetica,sans-Serif" font-size="10.00" fill="#000000">cstdint</text>
</g>
<!-- Node1&#45;&gt;Node4 -->
<g id="edge42" class="edge">
<title>Node1&#45;&gt;Node4</title>
<path fill="none" stroke="#191970" d="M684.9464,-202.97C534.376,-196.8571 178.8205,-179.8534 131,-154 80.8754,-126.901 46.3806,-65.5628 31.4067,-34.4135"/>
<polygon fill="#191970" stroke="#191970" points="34.4684,-32.6964 27.0826,-25.1003 28.1194,-35.6443 34.4684,-32.6964"/>
</g>
<!-- Node10 -->
<g id="node11" class="node">
<title>Node10</title>
<polygon fill="none" stroke="#bfbfbf" points="543.5,-6 543.5,-25 584.5,-25 584.5,-6 543.5,-6"/>
<text text-anchor="middle" x="564" y="-13" font-family="Helvetica,sans-Serif" font-size="10.00" fill="#000000">string</text>
</g>
<!-- Node1&#45;&gt;Node10 -->
<g id="edge44" class="edge">
<title>Node1&#45;&gt;Node10</title>
<path fill="none" stroke="#191970" d="M743.2624,-190.2746C732.9483,-172.98 714.6916,-144.3888 695,-123 660.9842,-86.0523 614.0854,-50.5805 586.6092,-31.0446"/>
<polygon fill="#191970" stroke="#191970" points="588.2763,-27.9383 578.0824,-25.0512 584.2509,-33.6651 588.2763,-27.9383"/>
</g>
<!-- Node14 -->
<g id="node15" class="node">
<title>Node14</title>
<g id="a_node15"><a xlink:href="../../d6/dc9/DataProcessingHeader_8h.html" target="_top" xlink:title="Framework/DataProcessing\lHeader.h">
<polygon fill="none" stroke="#000000" points="140,-123.5 140,-153.5 278,-153.5 278,-123.5 140,-123.5"/>
<text text-anchor="start" x="148" y="-141.5" font-family="Helvetica,sans-Serif" font-size="10.00" fill="#000000">Framework/DataProcessing</text>
<text text-anchor="middle" x="209" y="-130.5" font-family="Helvetica,sans-Serif" font-size="10.00" fill="#000000">Header.h</text>
</a>
</g>
</g>
<!-- Node1&#45;&gt;Node14 -->
<g id="edge14" class="edge">
<title>Node1&#45;&gt;Node14</title>
<path fill="none" stroke="#191970" d="M684.8729,-197.2173C584.4032,-184.8205 395.307,-161.4882 288.2151,-148.2742"/>
<polygon fill="#191970" stroke="#191970" points="288.4665,-144.7788 278.1131,-147.0278 287.6092,-151.7261 288.4665,-144.7788"/>
</g>
<!-- Node17 -->
<g id="node18" class="node">
<title>Node17</title>
<g id="a_node18"><a xlink:href="../../d1/d76/RuntimeError_8h.html" target="_top" xlink:title="Framework/RuntimeError.h">
<polygon fill="none" stroke="#000000" points="780,-129 780,-148 914,-148 914,-129 780,-129"/>
<text text-anchor="middle" x="847" y="-136" font-family="Helvetica,sans-Serif" font-size="10.00" fill="#000000">Framework/RuntimeError.h</text>
</a>
</g>
</g>
<!-- Node1&#45;&gt;Node17 -->
<g id="edge21" class="edge">
<title>Node1&#45;&gt;Node17</title>
<path fill="none" stroke="#191970" d="M773.557,-190.2967C788.9332,-179.4524 809.5414,-164.9182 825.0138,-154.006"/>
<polygon fill="#191970" stroke="#191970" points="827.297,-156.6787 833.4519,-148.055 823.2626,-150.9582 827.297,-156.6787"/>
</g>
<!-- Node18 -->
<g id="node19" class="node">
<title>Node18</title>
<g id="a_node19"><a xlink:href="../../d4/d00/Headers_2include_2Headers_2Stack_8h.html" target="_top" xlink:title="Headers/Stack.h">
<polygon fill="none" stroke="#000000" points="596,-129 596,-148 686,-148 686,-129 596,-129"/>
<text text-anchor="middle" x="641" y="-136" font-family="Helvetica,sans-Serif" font-size="10.00" fill="#000000">Headers/Stack.h</text>
</a>
</g>
</g>
<!-- Node1&#45;&gt;Node18 -->
<g id="edge23" class="edge">
<title>Node1&#45;&gt;Node18</title>
<path fill="none" stroke="#191970" d="M727.0894,-190.4639C708.7167,-179.3741 683.84,-164.3584 665.5526,-153.32"/>
<polygon fill="#191970" stroke="#191970" points="667.281,-150.2751 656.911,-148.1039 663.6636,-156.268 667.281,-150.2751"/>
</g>
<!-- Node26 -->
<g id="node27" class="node">
<title>Node26</title>
<polygon fill="none" stroke="#bfbfbf" points="2169,-6 2169,-25 2213,-25 2213,-6 2169,-6"/>
<text text-anchor="middle" x="2191" y="-13" font-family="Helvetica,sans-Serif" font-size="10.00" fill="#000000">vector</text>
</g>
<!-- Node1&#45;&gt;Node26 -->
<g id="edge46" class="edge">
<title>Node1&#45;&gt;Node26</title>
<path fill="none" stroke="#191970" d="M750.5911,-190.3048C749.7687,-171.3645 751.6391,-139.4833 771,-123 785.7213,-110.4667 2141.3404,-36.0617 2160,-31 2161.7168,-30.5343 2163.4505,-29.9694 2165.1742,-29.3346"/>
<polygon fill="#191970" stroke="#191970" points="2166.999,-32.3562 2174.752,-25.1353 2164.1882,-25.9453 2166.999,-32.3562"/>
</g>
<!-- Node32 -->
<g id="node33" class="node">
<title>Node32</title>
<polygon fill="none" stroke="#bfbfbf" points="932,-129 932,-148 970,-148 970,-129 932,-129"/>
<text text-anchor="middle" x="951" y="-136" font-family="Helvetica,sans-Serif" font-size="10.00" fill="#000000">array</text>
</g>
<!-- Node1&#45;&gt;Node32 -->
<g id="edge41" class="edge">
<title>Node1&#45;&gt;Node32</title>
<path fill="none" stroke="#191970" d="M813.2512,-190.458C846.3481,-181.4877 887.575,-168.938 923,-154 923.9983,-153.579 925.007,-153.1322 926.0187,-152.666"/>
<polygon fill="#191970" stroke="#191970" points="927.664,-155.7562 935.006,-148.1177 924.5031,-149.5105 927.664,-155.7562"/>
</g>
<!-- Node33 -->
<g id="node34" class="node">
<title>Node33</title>
<polygon fill="none" stroke="#bfbfbf" points="988.5,-129 988.5,-148 1033.5,-148 1033.5,-129 988.5,-129"/>
<text text-anchor="middle" x="1011" y="-136" font-family="Helvetica,sans-Serif" font-size="10.00" fill="#000000">iosfwd</text>
</g>
<!-- Node1&#45;&gt;Node33 -->
<g id="edge43" class="edge">
<title>Node1&#45;&gt;Node33</title>
<path fill="none" stroke="#191970" d="M819.1799,-194.4245C864.9671,-185.8706 926.5616,-172.3775 979,-154 980.602,-153.4386 982.2291,-152.8189 983.8575,-152.1599"/>
<polygon fill="#191970" stroke="#191970" points="985.3097,-155.3447 993.0303,-148.0891 982.4702,-148.9465 985.3097,-155.3447"/>
</g>
<!-- Node34 -->
<g id="node35" class="node">
<title>Node34</title>
<polygon fill="none" stroke="#bfbfbf" points="1052,-129 1052,-148 1098,-148 1098,-129 1052,-129"/>
<text text-anchor="middle" x="1075" y="-136" font-family="Helvetica,sans-Serif" font-size="10.00" fill="#000000">variant</text>
</g>
<!-- Node1&#45;&gt;Node34 -->
<g id="edge45" class="edge">
<title>Node1&#45;&gt;Node34</title>
<path fill="none" stroke="#191970" d="M819.1385,-198.6602C878.7008,-191.4017 967.5536,-177.6367 1042,-154 1043.8551,-153.411 1045.7407,-152.7399 1047.6227,-152.0148"/>
<polygon fill="#191970" stroke="#191970" points="1049.0262,-155.2213 1056.8445,-148.0711 1046.2738,-148.7851 1049.0262,-155.2213"/>
</g>
<!-- Node35 -->
<g id="node36" class="node">
<title>Node35</title>
<polygon fill="none" stroke="#bfbfbf" points="1116,-129 1116,-148 1250,-148 1250,-129 1116,-129"/>
<text text-anchor="middle" x="1183" y="-136" font-family="Helvetica,sans-Serif" font-size="10.00" fill="#000000">DataDescriptorMatcher.inc</text>
</g>
<!-- Node1&#45;&gt;Node35 -->
<g id="edge47" class="edge">
<title>Node1&#45;&gt;Node35</title>
<path fill="none" stroke="#191970" d="M819.2479,-196.9085C890.7784,-187.4981 1007.1505,-171.41 1107,-154 1114.0226,-152.7755 1121.3907,-151.3947 1128.6611,-149.9744"/>
<polygon fill="#191970" stroke="#191970" points="1129.3472,-153.4066 1138.4731,-148.0244 1127.9826,-146.5409 1129.3472,-153.4066"/>
</g>
<!-- Node2&#45;&gt;Node3 -->
<g id="edge3" class="edge">
<title>Node2&#45;&gt;Node3</title>
<path fill="none" stroke="#191970" d="M473.0313,-128.8906C454.2116,-118.8262 424.4415,-102.9057 402.8359,-91.3514"/>
<polygon fill="#191970" stroke="#191970" points="404.3114,-88.1714 393.8426,-86.5419 401.0102,-94.3442 404.3114,-88.1714"/>
</g>
<!-- Node3&#45;&gt;Node4 -->
<g id="edge4" class="edge">
<title>Node3&#45;&gt;Node4</title>
<path fill="none" stroke="#191970" d="M317.4272,-68.8384C226.5353,-56.141 61.2335,-32.9057 55,-31 53.1405,-30.4315 51.2541,-29.7682 49.3756,-29.0421"/>
<polygon fill="#191970" stroke="#191970" points="50.7744,-25.8338 40.2097,-25.0356 47.9708,-32.2479 50.7744,-25.8338"/>
</g>
<!-- Node5 -->
<g id="node6" class="node">
<title>Node5</title>
<polygon fill="none" stroke="#bfbfbf" points="64,-6 64,-25 116,-25 116,-6 64,-6"/>
<text text-anchor="middle" x="90" y="-13" font-family="Helvetica,sans-Serif" font-size="10.00" fill="#000000">memory</text>
</g>
<!-- Node3&#45;&gt;Node5 -->
<g id="edge5" class="edge">
<title>Node3&#45;&gt;Node5</title>
<path fill="none" stroke="#191970" d="M317.4911,-67.9132C254.9587,-57.9108 160.0856,-41.8178 125,-31 122.8845,-30.3477 120.7268,-29.6027 118.5739,-28.8002"/>
<polygon fill="#191970" stroke="#191970" points="119.8916,-25.5578 109.3103,-25.0226 117.2484,-32.0396 119.8916,-25.5578"/>
</g>
<!-- Node6 -->
<g id="node7" class="node">
<title>Node6</title>
<polygon fill="none" stroke="#bfbfbf" points="134.5,-6 134.5,-25 183.5,-25 183.5,-6 134.5,-6"/>
<text text-anchor="middle" x="159" y="-13" font-family="Helvetica,sans-Serif" font-size="10.00" fill="#000000">cassert</text>
</g>
<!-- Node3&#45;&gt;Node6 -->
<g id="edge6" class="edge">
<title>Node3&#45;&gt;Node6</title>
<path fill="none" stroke="#191970" d="M328.2909,-67.4967C290.9484,-59.4653 237.9835,-46.7606 193,-31 191.3585,-30.4249 189.6878,-29.8002 188.0121,-29.1426"/>
<polygon fill="#191970" stroke="#191970" points="189.1018,-25.8034 178.5281,-25.1334 186.3761,-32.251 189.1018,-25.8034"/>
</g>
<!-- Node7 -->
<g id="node8" class="node">
<title>Node7</title>
<polygon fill="none" stroke="#bfbfbf" points="479,-6 479,-25 525,-25 525,-6 479,-6"/>
<text text-anchor="middle" x="502" y="-13" font-family="Helvetica,sans-Serif" font-size="10.00" fill="#000000">cstring</text>
</g>
<!-- Node3&#45;&gt;Node7 -->
<g id="edge7" class="edge">
<title>Node3&#45;&gt;Node7</title>
<path fill="none" stroke="#191970" d="M395.6875,-67.3906C416.4922,-57.2359 449.511,-41.1196 473.2319,-29.5416"/>
<polygon fill="#191970" stroke="#191970" points="474.9993,-32.5736 482.4507,-25.0419 471.9288,-26.283 474.9993,-32.5736"/>
</g>
<!-- Node8 -->
<g id="node9" class="node">
<title>Node8</title>
<polygon fill="none" stroke="#bfbfbf" points="202,-6 202,-25 258,-25 258,-6 202,-6"/>
<text text-anchor="middle" x="230" y="-13" font-family="Helvetica,sans-Serif" font-size="10.00" fill="#000000">algorithm</text>
</g>
<!-- Node3&#45;&gt;Node8 -->
<g id="edge8" class="edge">
<title>Node3&#45;&gt;Node8</title>
<path fill="none" stroke="#191970" d="M353.1875,-67.3906C328.6519,-57.0554 289.4558,-40.5447 261.8789,-28.9284"/>
<polygon fill="#191970" stroke="#191970" points="263.2268,-25.6984 252.6523,-25.0419 260.5094,-32.1495 263.2268,-25.6984"/>
</g>
<!-- Node9 -->
<g id="node10" class="node">
<title>Node9</title>
<polygon fill="none" stroke="#bfbfbf" points="276.5,-6 276.5,-25 335.5,-25 335.5,-6 276.5,-6"/>
<text text-anchor="middle" x="306" y="-13" font-family="Helvetica,sans-Serif" font-size="10.00" fill="#000000">stdexcept</text>
</g>
<!-- Node3&#45;&gt;Node9 -->
<g id="edge9" class="edge">
<title>Node3&#45;&gt;Node9</title>
<path fill="none" stroke="#191970" d="M365.0625,-67.3906C354.338,-57.9683 337.7713,-43.4134 324.9099,-32.1137"/>
<polygon fill="#191970" stroke="#191970" points="326.9143,-29.2158 317.0917,-25.2449 322.2941,-34.4745 326.9143,-29.2158"/>
</g>
<!-- Node3&#45;&gt;Node10 -->
<g id="edge10" class="edge">
<title>Node3&#45;&gt;Node10</title>
<path fill="none" stroke="#191970" d="M416.6594,-67.4747C449.0074,-59.3486 495.133,-46.5285 534,-31 535.1943,-30.5229 536.4042,-30.0137 537.6182,-29.4814"/>
<polygon fill="#191970" stroke="#191970" points="539.2941,-32.56 546.8168,-25.0994 536.2835,-26.2404 539.2941,-32.56"/>
</g>
<!-- Node11 -->
<g id="node12" class="node">
<title>Node11</title>
<polygon fill="none" stroke="#bfbfbf" points="353.5,-6 353.5,-25 398.5,-25 398.5,-6 353.5,-6"/>
<text text-anchor="middle" x="376" y="-13" font-family="Helvetica,sans-Serif" font-size="10.00" fill="#000000">climits</text>
</g>
<!-- Node3&#45;&gt;Node11 -->
<g id="edge11" class="edge">
<title>Node3&#45;&gt;Node11</title>
<path fill="none" stroke="#191970" d="M376,-67.3906C376,-58.8657 376,-46.1392 376,-35.4235"/>
<polygon fill="#191970" stroke="#191970" points="379.5001,-35.2448 376,-25.2449 372.5001,-35.2449 379.5001,-35.2448"/>
</g>
<!-- Node12 -->
<g id="node13" class="node">
<title>Node12</title>
<g id="a_node13"><a xlink:href="../../d7/df8/Types_8h.html" target="_top" xlink:title="MemoryResources/Types.h">
<polygon fill="none" stroke="#000000" points="602.5,-6 602.5,-25 739.5,-25 739.5,-6 602.5,-6"/>
<text text-anchor="middle" x="671" y="-13" font-family="Helvetica,sans-Serif" font-size="10.00" fill="#000000">MemoryResources/Types.h</text>
</a>
</g>
</g>
<!-- Node3&#45;&gt;Node12 -->
<g id="edge12" class="edge">
<title>Node3&#45;&gt;Node12</title>
<path fill="none" stroke="#191970" d="M421.7701,-67.4581C473.8749,-56.5956 559.0019,-38.8488 615.0167,-27.1711"/>
<polygon fill="#191970" stroke="#191970" points="616.0473,-30.5316 625.1225,-25.0643 614.6187,-23.6789 616.0473,-30.5316"/>
</g>
<!-- Node13 -->
<g id="node14" class="node">
<title>Node13</title>
<polygon fill="none" stroke="#bfbfbf" points="417,-6 417,-25 461,-25 461,-6 417,-6"/>
<text text-anchor="middle" x="439" y="-13" font-family="Helvetica,sans-Serif" font-size="10.00" fill="#000000">cerrno</text>
</g>
<!-- Node3&#45;&gt;Node13 -->
<g id="edge13" class="edge">
<title>Node3&#45;&gt;Node13</title>
<path fill="none" stroke="#191970" d="M385.8438,-67.3906C395.4039,-58.0581 410.1223,-43.6902 421.6495,-32.4374"/>
<polygon fill="#191970" stroke="#191970" points="424.3066,-34.7348 429.0175,-25.2449 419.4168,-29.7257 424.3066,-34.7348"/>
</g>
<!-- Node14&#45;&gt;Node3 -->
<g id="edge15" class="edge">
<title>Node14&#45;&gt;Node3</title>
<path fill="none" stroke="#191970" d="M249.8528,-123.4554C277.595,-113.239 313.9225,-99.8609 340.4655,-90.0861"/>
<polygon fill="#191970" stroke="#191970" points="341.9465,-93.2705 350.1209,-86.5303 339.5275,-86.7018 341.9465,-93.2705"/>
</g>
<!-- Node14&#45;&gt;Node4 -->
<g id="edge16" class="edge">
<title>Node14&#45;&gt;Node4</title>
<path fill="none" stroke="#191970" d="M186.1927,-123.4178C150.5732,-99.8629 82.1099,-54.5888 46.2315,-30.8628"/>
<polygon fill="#191970" stroke="#191970" points="47.7121,-27.6458 37.4403,-25.0493 43.8509,-33.4846 47.7121,-27.6458"/>
</g>
<!-- Node14&#45;&gt;Node5 -->
<g id="edge18" class="edge">
<title>Node14&#45;&gt;Node5</title>
<path fill="none" stroke="#191970" d="M194.4083,-123.4178C172.1043,-100.3641 129.672,-56.5055 106.3562,-32.406"/>
<polygon fill="#191970" stroke="#191970" points="108.7074,-29.8026 99.2387,-25.0493 103.6765,-34.6699 108.7074,-29.8026"/>
</g>
<!-- Node14&#45;&gt;Node6 -->
<g id="edge19" class="edge">
<title>Node14&#45;&gt;Node6</title>
<path fill="none" stroke="#191970" d="M198.3063,-123.332C191.6936,-113.3826 183.4558,-99.8758 178,-87 170.8123,-70.0369 165.7144,-49.6361 162.6208,-34.9753"/>
<polygon fill="#191970" stroke="#191970" points="166.0274,-34.1604 160.6445,-25.0349 159.1618,-35.5255 166.0274,-34.1604"/>
</g>
<!-- Node15 -->
<g id="node16" class="node">
<title>Node15</title>
<polygon fill="none" stroke="#bfbfbf" points="187.5,-67.5 187.5,-86.5 230.5,-86.5 230.5,-67.5 187.5,-67.5"/>
<text text-anchor="middle" x="209" y="-74.5" font-family="Helvetica,sans-Serif" font-size="10.00" fill="#000000">cstdio</text>
</g>
<!-- Node14&#45;&gt;Node15 -->
<g id="edge17" class="edge">
<title>Node14&#45;&gt;Node15</title>
<path fill="none" stroke="#191970" d="M209,-123.2977C209,-115.3834 209,-105.6043 209,-97.0759"/>
<polygon fill="#191970" stroke="#191970" points="212.5001,-96.8469 209,-86.8469 205.5001,-96.847 212.5001,-96.8469"/>
</g>
<!-- Node16 -->
<g id="node17" class="node">
<title>Node16</title>
<polygon fill="none" stroke="#bfbfbf" points="249,-67.5 249,-86.5 295,-86.5 295,-67.5 249,-67.5"/>
<text text-anchor="middle" x="272" y="-74.5" font-family="Helvetica,sans-Serif" font-size="10.00" fill="#000000">chrono</text>
</g>
<!-- Node14&#45;&gt;Node16 -->
<g id="edge20" class="edge">
<title>Node14&#45;&gt;Node16</title>
<path fill="none" stroke="#191970" d="M224.573,-123.2977C233.6825,-114.4052 245.2034,-103.1586 254.6091,-93.9769"/>
<polygon fill="#191970" stroke="#191970" points="257.202,-96.3368 261.9129,-86.8469 252.3122,-91.3278 257.202,-96.3368"/>
</g>
<!-- Node18&#45;&gt;Node3 -->
<g id="edge40" class="edge">
<title>Node18&#45;&gt;Node3</title>
<path fill="none" stroke="#191970" d="M608.2206,-128.9199C600.9273,-126.8841 593.2179,-124.8059 586,-123 534.5476,-110.1266 475.5082,-97.3708 433.1597,-88.5689"/>
<polygon fill="#191970" stroke="#191970" points="433.8108,-85.1296 423.3089,-86.5302 432.3921,-91.9843 433.8108,-85.1296"/>
</g>
<!-- Node19 -->
<g id="node20" class="node">
<title>Node19</title>
<g id="a_node20"><a xlink:href="../../dc/d03/MemoryResources_8h.html" target="_top" xlink:title="MemoryResources/MemoryResources.h">
<polygon fill="none" stroke="#000000" points="991.5,-67.5 991.5,-86.5 1184.5,-86.5 1184.5,-67.5 991.5,-67.5"/>
<text text-anchor="middle" x="1088" y="-74.5" font-family="Helvetica,sans-Serif" font-size="10.00" fill="#000000">MemoryResources/MemoryResources.h</text>
</a>
</g>
</g>
<!-- Node18&#45;&gt;Node19 -->
<g id="edge24" class="edge">
<title>Node18&#45;&gt;Node19</title>
<path fill="none" stroke="#191970" d="M686.3601,-130.9846C702.6313,-128.3594 721.124,-125.4569 738,-123 827.3076,-109.9984 929.6808,-96.7338 1000.5377,-87.8108"/>
<polygon fill="#191970" stroke="#191970" points="1001.2726,-91.2461 1010.758,-86.5264 1000.3996,-84.3007 1001.2726,-91.2461"/>
</g>
<!-- Node19&#45;&gt;Node7 -->
<g id="edge29" class="edge">
<title>Node19&#45;&gt;Node7</title>
<path fill="none" stroke="#191970" d="M991.2533,-73.2407C855.9719,-67.2532 617.4927,-53.8339 534,-31 532.0797,-30.4748 530.1354,-29.836 528.2037,-29.1205"/>
<polygon fill="#191970" stroke="#191970" points="529.3867,-25.8192 518.818,-25.0749 526.6158,-32.2474 529.3867,-25.8192"/>
</g>
<!-- Node19&#45;&gt;Node10 -->
<g id="edge30" class="edge">
<title>Node19&#45;&gt;Node10</title>
<path fill="none" stroke="#191970" d="M991.3642,-72.5678C868.9147,-66.1645 665.1212,-52.66 593,-31 591.5306,-30.5587 590.0501,-30.0392 588.5771,-29.4629"/>
<polygon fill="#191970" stroke="#191970" points="589.7012,-26.1248 579.1601,-25.0594 586.7361,-32.4658 589.7012,-26.1248"/>
</g>
<!-- Node19&#45;&gt;Node12 -->
<g id="edge39" class="edge">
<title>Node19&#45;&gt;Node12</title>
<path fill="none" stroke="#191970" d="M1007.3094,-67.4635C938.4937,-58.9928 837.0192,-45.7031 749,-31 741.7911,-29.7958 734.2283,-28.4268 726.7661,-27.0127"/>
<polygon fill="#191970" stroke="#191970" points="727.1779,-23.5276 716.6956,-25.0677 725.8504,-30.4006 727.1779,-23.5276"/>
</g>
<!-- Node20 -->
<g id="node21" class="node">
<title>Node20</title>
<polygon fill="none" stroke="#bfbfbf" points="758,-.5 758,-30.5 858,-30.5 858,-.5 758,-.5"/>
<text text-anchor="start" x="766" y="-18.5" font-family="Helvetica,sans-Serif" font-size="10.00" fill="#000000">boost/container/flat</text>
<text text-anchor="middle" x="808" y="-7.5" font-family="Helvetica,sans-Serif" font-size="10.00" fill="#000000">_map.hpp</text>
</g>
<!-- Node19&#45;&gt;Node20 -->
<g id="edge25" class="edge">
<title>Node19&#45;&gt;Node20</title>
<path fill="none" stroke="#191970" d="M1038.6847,-67.494C995.9828,-59.0917 932.3387,-46.161 868.0681,-31.1897"/>
<polygon fill="#191970" stroke="#191970" points="868.703,-27.7437 858.168,-28.8683 867.1048,-34.5589 868.703,-27.7437"/>
</g>
<!-- Node21 -->
<g id="node22" class="node">
<title>Node21</title>
<polygon fill="none" stroke="#bfbfbf" points="876,-.5 876,-30.5 992,-30.5 992,-.5 876,-.5"/>
<text text-anchor="start" x="884" y="-18.5" font-family="Helvetica,sans-Serif" font-size="10.00" fill="#000000">boost/container/pmr</text>
<text text-anchor="middle" x="934" y="-7.5" font-family="Helvetica,sans-Serif" font-size="10.00" fill="#000000">/memory_resource.hpp</text>
</g>
<!-- Node19&#45;&gt;Node21 -->
<g id="edge26" class="edge">
<title>Node19&#45;&gt;Node21</title>
<path fill="none" stroke="#191970" d="M1063.9375,-67.3906C1041.8411,-58.5664 1008.4719,-45.2404 981.0828,-34.3026"/>
<polygon fill="#191970" stroke="#191970" points="982.2576,-31.003 971.6726,-30.5446 979.6614,-37.5038 982.2576,-31.003"/>
</g>
<!-- Node22 -->
<g id="node23" class="node">
<title>Node22</title>
<polygon fill="none" stroke="#bfbfbf" points="1010,-.5 1010,-30.5 1166,-30.5 1166,-.5 1010,-.5"/>
<text text-anchor="start" x="1018" y="-18.5" font-family="Helvetica,sans-Serif" font-size="10.00" fill="#000000">boost/container/pmr</text>
<text text-anchor="middle" x="1088" y="-7.5" font-family="Helvetica,sans-Serif" font-size="10.00" fill="#000000">/monotonic_buffer_resource.hpp</text>
</g>
<!-- Node19&#45;&gt;Node22 -->
<g id="edge27" class="edge">
<title>Node19&#45;&gt;Node22</title>
<path fill="none" stroke="#191970" d="M1088,-67.3906C1088,-60.2234 1088,-50.0862 1088,-40.671"/>
<polygon fill="#191970" stroke="#191970" points="1091.5001,-40.5446 1088,-30.5446 1084.5001,-40.5446 1091.5001,-40.5446"/>
</g>
<!-- Node23 -->
<g id="node24" class="node">
<title>Node23</title>
<polygon fill="none" stroke="#bfbfbf" points="1184.5,-.5 1184.5,-30.5 1317.5,-30.5 1317.5,-.5 1184.5,-.5"/>
<text text-anchor="start" x="1192.5" y="-18.5" font-family="Helvetica,sans-Serif" font-size="10.00" fill="#000000">boost/container/pmr</text>
<text text-anchor="middle" x="1251" y="-7.5" font-family="Helvetica,sans-Serif" font-size="10.00" fill="#000000">/polymorphic_allocator.hpp</text>
</g>
<!-- Node19&#45;&gt;Node23 -->
<g id="edge28" class="edge">
<title>Node19&#45;&gt;Node23</title>
<path fill="none" stroke="#191970" d="M1113.4688,-67.3906C1136.9586,-58.5279 1172.4845,-45.1239 1201.545,-34.1594"/>
<polygon fill="#191970" stroke="#191970" points="1203.0051,-37.3494 1211.1257,-30.5446 1200.534,-30.8001 1203.0051,-37.3494"/>
</g>
<!-- Node24 -->
<g id="node25" class="node">
<title>Node24</title>
<polygon fill="none" stroke="#bfbfbf" points="1336,-6 1336,-25 1398,-25 1398,-6 1336,-6"/>
<text text-anchor="middle" x="1367" y="-13" font-family="Helvetica,sans-Serif" font-size="10.00" fill="#000000">type_traits</text>
</g>
<!-- Node19&#45;&gt;Node24 -->
<g id="edge31" class="edge">
<title>Node19&#45;&gt;Node24</title>
<path fill="none" stroke="#191970" d="M1154.4356,-67.4976C1202.8158,-59.7864 1269.6383,-47.4892 1327,-31 1329.5947,-30.2541 1332.2566,-29.4087 1334.9146,-28.5069"/>
<polygon fill="#191970" stroke="#191970" points="1336.1875,-31.7684 1344.3969,-25.071 1333.8027,-25.1871 1336.1875,-31.7684"/>
</g>
<!-- Node25 -->
<g id="node26" class="node">
<title>Node25</title>
<polygon fill="none" stroke="#bfbfbf" points="1416,-6 1416,-25 1456,-25 1456,-6 1416,-6"/>
<text text-anchor="middle" x="1436" y="-13" font-family="Helvetica,sans-Serif" font-size="10.00" fill="#000000">utility</text>
</g>
<!-- Node19&#45;&gt;Node25 -->
<g id="edge32" class="edge">
<title>Node19&#45;&gt;Node25</title>
<path fill="none" stroke="#191970" d="M1178.541,-67.4823C1257.5446,-58.5306 1365.7961,-44.519 1407,-31 1408.4239,-30.5328 1409.8606,-29.9985 1411.2927,-29.4157"/>
<polygon fill="#191970" stroke="#191970" points="1412.9464,-32.5053 1420.4884,-25.0642 1409.9522,-26.178 1412.9464,-32.5053"/>
</g>
<!-- Node19&#45;&gt;Node26 -->
<g id="edge33" class="edge">
<title>Node19&#45;&gt;Node26</title>
<path fill="none" stroke="#191970" d="M1184.5386,-67.9969C1189.4271,-67.6369 1194.2691,-67.3015 1199,-67 1412.2727,-53.4078 1952.9671,-83.9845 2160,-31 2161.9237,-30.5077 2163.8665,-29.8847 2165.7916,-29.173"/>
<polygon fill="#191970" stroke="#191970" points="2167.3612,-32.3061 2175.0986,-25.0684 2164.5365,-25.9013 2167.3612,-32.3061"/>
</g>
<!-- Node27 -->
<g id="node28" class="node">
<title>Node27</title>
<polygon fill="none" stroke="#bfbfbf" points="1474.5,-6 1474.5,-25 1557.5,-25 1557.5,-6 1474.5,-6"/>
<text text-anchor="middle" x="1516" y="-13" font-family="Helvetica,sans-Serif" font-size="10.00" fill="#000000">unordered_map</text>
</g>
<!-- Node19&#45;&gt;Node27 -->
<g id="edge34" class="edge">
<title>Node19&#45;&gt;Node27</title>
<path fill="none" stroke="#191970" d="M1181.5916,-67.4602C1275.2316,-57.577 1412.6643,-42.0583 1465,-31 1469.1762,-30.1176 1473.5032,-29.05 1477.791,-27.8925"/>
<polygon fill="#191970" stroke="#191970" points="1478.9852,-31.1913 1487.6353,-25.0737 1477.0582,-24.4617 1478.9852,-31.1913"/>
</g>
<!-- Node28 -->
<g id="node29" class="node">
<title>Node28</title>
<polygon fill="none" stroke="#bfbfbf" points="1575.5,-6 1575.5,-25 1672.5,-25 1672.5,-6 1575.5,-6"/>
<text text-anchor="middle" x="1624" y="-13" font-family="Helvetica,sans-Serif" font-size="10.00" fill="#000000">FairMQMessage.h</text>
</g>
<!-- Node19&#45;&gt;Node28 -->
<g id="edge35" class="edge">
<title>Node19&#45;&gt;Node28</title>
<path fill="none" stroke="#191970" d="M1184.6944,-68.1374C1319.2105,-55.7467 1548.5088,-34.3768 1567,-31 1572.1025,-30.0682 1577.4137,-28.8996 1582.6521,-27.6241"/>
<polygon fill="#191970" stroke="#191970" points="1583.7497,-30.9557 1592.5617,-25.0736 1582.0049,-24.1766 1583.7497,-30.9557"/>
</g>
<!-- Node29 -->
<g id="node30" class="node">
<title>Node29</title>
<polygon fill="none" stroke="#bfbfbf" points="1690.5,-6 1690.5,-25 1821.5,-25 1821.5,-6 1690.5,-6"/>
<text text-anchor="middle" x="1756" y="-13" font-family="Helvetica,sans-Serif" font-size="10.00" fill="#000000">FairMQTransportFactory.h</text>
</g>
<!-- Node19&#45;&gt;Node29 -->
<g id="edge36" class="edge">
<title>Node19&#45;&gt;Node29</title>
<path fill="none" stroke="#191970" d="M1184.5542,-68.2112C1189.4386,-67.7949 1194.2755,-67.3889 1199,-67 1413.5367,-49.3421 1468.8571,-61.1312 1682,-31 1689.5006,-29.9397 1697.3801,-28.5697 1705.0865,-27.0836"/>
<polygon fill="#191970" stroke="#191970" points="1705.9557,-30.479 1715.0712,-25.0793 1704.578,-23.6159 1705.9557,-30.479"/>
</g>
<!-- Node30 -->
<g id="node31" class="node">
<title>Node30</title>
<polygon fill="none" stroke="#bfbfbf" points="1839.5,-6 1839.5,-25 1976.5,-25 1976.5,-6 1839.5,-6"/>
<text text-anchor="middle" x="1908" y="-13" font-family="Helvetica,sans-Serif" font-size="10.00" fill="#000000">fairmq/MemoryResources.h</text>
</g>
<!-- Node19&#45;&gt;Node30 -->
<g id="edge37" class="edge">
<title>Node19&#45;&gt;Node30</title>
<path fill="none" stroke="#191970" d="M1184.5463,-68.1098C1189.4328,-67.7201 1194.2723,-67.3475 1199,-67 1479.5872,-46.3752 1551.9492,-66.8503 1831,-31 1839.1731,-29.95 1847.7782,-28.532 1856.1559,-26.9783"/>
<polygon fill="#191970" stroke="#191970" points="1857.0648,-30.3674 1866.2177,-25.0314 1855.7349,-23.4949 1857.0648,-30.3674"/>
</g>
<!-- Node31 -->
<g id="node32" class="node">
<title>Node31</title>
<polygon fill="none" stroke="#bfbfbf" points="1995,-6 1995,-25 2151,-25 2151,-6 1995,-6"/>
<text text-anchor="middle" x="2073" y="-13" font-family="Helvetica,sans-Serif" font-size="10.00" fill="#000000">fairmq/MemoryResourceTools.h</text>
</g>
<!-- Node19&#45;&gt;Node31 -->
<g id="edge38" class="edge">
<title>Node19&#45;&gt;Node31</title>
<path fill="none" stroke="#191970" d="M1184.5417,-68.0449C1189.4294,-67.6723 1194.2704,-67.3211 1199,-67 1548.3396,-43.2856 1638.0117,-69.7901 1986,-31 1995.6191,-29.9278 2005.7806,-28.4427 2015.6331,-26.8134"/>
<polygon fill="#191970" stroke="#191970" points="2016.49,-30.2176 2025.7528,-25.0746 2015.3045,-23.3187 2016.49,-30.2176"/>
</g>
<!-- Node37 -->
<g id="node38" class="node">
<title>Node37</title>
<g id="a_node38"><a xlink:href="../../d9/de8/CompilerBuiltins_8h.html" target="_top" xlink:title="Framework/CompilerBuiltins.h">
<polygon fill="none" stroke="#000000" points="1268,-129 1268,-148 1416,-148 1416,-129 1268,-129"/>
<text text-anchor="middle" x="1342" y="-136" font-family="Helvetica,sans-Serif" font-size="10.00" fill="#000000">Framework/CompilerBuiltins.h</text>
</a>
</g>
</g>
<!-- Node36&#45;&gt;Node37 -->
<g id="edge49" class="edge">
<title>Node36&#45;&gt;Node37</title>
<path fill="none" stroke="#191970" d="M1156.0908,-195.9005C1194.2808,-184.1091 1259.1687,-164.0746 1301.2986,-151.0668"/>
<polygon fill="#191970" stroke="#191970" points="1302.4445,-154.3761 1310.9669,-148.0817 1300.3794,-147.6876 1302.4445,-154.3761"/>
</g>
</g>
</svg>
        <g id="navigator" transform="translate(0 0)" fill="#404254">
                <rect fill="#f2f5e9" fill-opacity="0.5" stroke="#606060" stroke-width=".5" x="0" y="0" width="60" height="60"/>
                <use id="zoomplus" xlink:href="#zoomPlus" x="17" y="9" onmousedown="handleZoom(evt,'in')"/>
                <use id="zoomminus" xlink:href="#zoomMin" x="42" y="9" onmousedown="handleZoom(evt,'out')"/>
                <use id="reset" xlink:href="#resetDef" x="30" y="36" onmousedown="handleReset()"/>
                <g id="arrowUp" xlink:href="#dirArrow" transform="translate(30 24)" onmousedown="handlePan(0,-1)">
                  <use xlink:href="#rim" fill="#404040">
                        <set attributeName="fill" to="#808080" begin="arrowUp.mouseover" end="arrowUp.mouseout"/>
                  </use>
                  <path fill="none" stroke="white" stroke-width="1.5" d="M0,-3.0v7 M-2.5,-0.5L0,-3.0L2.5,-0.5"/>
                </g>
                <g id="arrowRight" xlink:href="#dirArrow" transform="rotate(90) translate(36 -43)" onmousedown="handlePan(1,0)">
                  <use xlink:href="#rim" fill="#404040">
                        <set attributeName="fill" to="#808080" begin="arrowRight.mouseover" end="arrowRight.mouseout"/>
                  </use>
                  <path fill="none" stroke="white" stroke-width="1.5" d="M0,-3.0v7 M-2.5,-0.5L0,-3.0L2.5,-0.5"/>
                </g>
                <g id="arrowDown" xlink:href="#dirArrow" transform="rotate(180) translate(-30 -48)" onmousedown="handlePan(0,1)">
                  <use xlink:href="#rim" fill="#404040">
                        <set attributeName="fill" to="#808080" begin="arrowDown.mouseover" end="arrowDown.mouseout"/>
                  </use>
                  <path fill="none" stroke="white" stroke-width="1.5" d="M0,-3.0v7 M-2.5,-0.5L0,-3.0L2.5,-0.5"/>
                </g>
                <g id="arrowLeft" xlink:href="#dirArrow" transform="rotate(270) translate(-36 17)" onmousedown="handlePan(-1,0)">
                  <use xlink:href="#rim" fill="#404040">
                        <set attributeName="fill" to="#808080" begin="arrowLeft.mouseover" end="arrowLeft.mouseout"/>
                  </use>
                  <path fill="none" stroke="white" stroke-width="1.5" d="M0,-3.0v7 M-2.5,-0.5L0,-3.0L2.5,-0.5"/>
                </g>
        </g>
        <svg viewBox="0 0 15 15" width="100%" height="30px" preserveAspectRatio="xMaxYMin meet">
         <g id="arrow_out" transform="scale(0.3 0.3)">
          <a xlink:href="DataMatcherWalker_8h__incl_org.svg" target="_base">
           <rect id="button" ry="5" rx="5" y="6" x="6" height="38" width="38"
                fill="#f2f5e9" fill-opacity="0.5" stroke="#606060" stroke-width="1.0"/>
           <path id="arrow"
             d="M 11.500037,31.436501 C 11.940474,20.09759 22.043105,11.32322 32.158766,21.979434 L 37.068811,17.246167 C 37.068811,17.246167 37.088388,32 37.088388,32 L 22.160133,31.978069 C 22.160133,31.978069 26.997745,27.140456 26.997745,27.140456 C 18.528582,18.264221 13.291696,25.230495 11.500037,31.436501 z"
             style="fill:#404040;"/>
          </a>
         </g>
        </svg>
</svg>
