<?xml version="1.0" encoding="UTF-8" standalone="no"?>
<!DOCTYPE svg PUBLIC "-//W3C//DTD SVG 1.1//EN"
 "http://www.w3.org/Graphics/SVG/1.1/DTD/svg11.dtd">
<!-- Generated by graphviz version 2.40.1 (20161225.0304)
 -->
<!-- Title: /home/runner/work/AliceO2/AliceO2/GPU/GPUTracking/Standalone/utils/vecpod.h Pages: 1 -->
<svg width="362pt" height="284pt"
 viewBox="0.00 0.00 362.00 284.00" xmlns="http://www.w3.org/2000/svg" xmlns:xlink="http://www.w3.org/1999/xlink">
<g id="graph0" class="graph" transform="scale(1 1) rotate(0) translate(4 280)">
<title>/home/runner/work/AliceO2/AliceO2/GPU/GPUTracking/Standalone/utils/vecpod.h</title>
<!-- Node2 -->
<g id="node1" class="node">
<title>Node2</title>
<polygon fill="#bfbfbf" stroke="#000000" points="123,-234.5 123,-275.5 264,-275.5 264,-234.5 123,-234.5"/>
<text text-anchor="start" x="131" y="-263.5" font-family="Helvetica,sans-Serif" font-size="10.00" fill="#000000">/home/runner/work/AliceO2</text>
<text text-anchor="start" x="131" y="-252.5" font-family="Helvetica,sans-Serif" font-size="10.00" fill="#000000">/AliceO2/GPU/GPUTracking</text>
<text text-anchor="middle" x="193.5" y="-241.5" font-family="Helvetica,sans-Serif" font-size="10.00" fill="#000000">/Standalone/utils/vecpod.h</text>
</g>
<!-- Node3 -->
<g id="node2" class="node">
<title>Node3</title>
<g id="a_node2"><a xlink:href="../../d5/d85/GPUTPCSliceData_8cxx.html" target="_top" xlink:title="/home/runner/work/AliceO2\l/AliceO2/GPU/GPUTracking\l/SliceTracker/GPUTPCSliceData.cxx">
<polygon fill="none" stroke="#000000" points="14,-156.5 14,-197.5 195,-197.5 195,-156.5 14,-156.5"/>
<text text-anchor="start" x="22" y="-185.5" font-family="Helvetica,sans-Serif" font-size="10.00" fill="#000000">/home/runner/work/AliceO2</text>
<text text-anchor="start" x="22" y="-174.5" font-family="Helvetica,sans-Serif" font-size="10.00" fill="#000000">/AliceO2/GPU/GPUTracking</text>
<text text-anchor="middle" x="104.5" y="-163.5" font-family="Helvetica,sans-Serif" font-size="10.00" fill="#000000">/SliceTracker/GPUTPCSliceData.cxx</text>
</a>
</g>
</g>
<!-- Node2&#45;&gt;Node3 -->
<g id="edge1" class="edge">
<title>Node2&#45;&gt;Node3</title>
<path fill="none" stroke="#191970" d="M161.8126,-227.229C150.7062,-217.4953 138.4357,-206.7414 128.1076,-197.6898"/>
<polygon fill="#191970" stroke="#191970" points="159.8222,-230.1386 169.6496,-234.0974 164.436,-224.8742 159.8222,-230.1386"/>
</g>
<!-- Node6 -->
<g id="node5" class="node">
<title>Node6</title>
<g id="a_node5"><a xlink:href="../../dc/df9/standalone_8cxx.html" target="_top" xlink:title="/home/runner/work/AliceO2\l/AliceO2/GPU/GPUTracking\l/Standalone/standalone.cxx">
<polygon fill="none" stroke="#000000" points="213,-156.5 213,-197.5 354,-197.5 354,-156.5 213,-156.5"/>
<text text-anchor="start" x="221" y="-185.5" font-family="Helvetica,sans-Serif" font-size="10.00" fill="#000000">/home/runner/work/AliceO2</text>
<text text-anchor="start" x="221" y="-174.5" font-family="Helvetica,sans-Serif" font-size="10.00" fill="#000000">/AliceO2/GPU/GPUTracking</text>
<text text-anchor="middle" x="283.5" y="-163.5" font-family="Helvetica,sans-Serif" font-size="10.00" fill="#000000">/Standalone/standalone.cxx</text>
</a>
</g>
</g>
<!-- Node2&#45;&gt;Node6 -->
<g id="edge4" class="edge">
<title>Node2&#45;&gt;Node6</title>
<path fill="none" stroke="#191970" d="M225.2167,-227.5122C236.5335,-217.7043 249.0816,-206.8293 259.6272,-197.6898"/>
<polygon fill="#191970" stroke="#191970" points="222.883,-224.9032 217.6183,-234.0974 227.4675,-230.193 222.883,-224.9032"/>
</g>
<!-- Node4 -->
<g id="node3" class="node">
<title>Node4</title>
<g id="a_node3"><a xlink:href="../../d0/d25/GPUReconstructionIncludesDevice_8h.html" target="_top" xlink:title="/home/runner/work/AliceO2\l/AliceO2/GPU/GPUTracking\l/Base/GPUReconstructionIncludesDevice.h">
<polygon fill="none" stroke="#000000" points="0,-78.5 0,-119.5 209,-119.5 209,-78.5 0,-78.5"/>
<text text-anchor="start" x="8" y="-107.5" font-family="Helvetica,sans-Serif" font-size="10.00" fill="#000000">/home/runner/work/AliceO2</text>
<text text-anchor="start" x="8" y="-96.5" font-family="Helvetica,sans-Serif" font-size="10.00" fill="#000000">/AliceO2/GPU/GPUTracking</text>
<text text-anchor="middle" x="104.5" y="-85.5" font-family="Helvetica,sans-Serif" font-size="10.00" fill="#000000">/Base/GPUReconstructionIncludesDevice.h</text>
</a>
</g>
</g>
<!-- Node3&#45;&gt;Node4 -->
<g id="edge2" class="edge">
<title>Node3&#45;&gt;Node4</title>
<path fill="none" stroke="#191970" d="M104.5,-146.0789C104.5,-137.2178 104.5,-127.7747 104.5,-119.6898"/>
<polygon fill="#191970" stroke="#191970" points="101.0001,-146.0974 104.5,-156.0974 108.0001,-146.0975 101.0001,-146.0974"/>
</g>
<!-- Node5 -->
<g id="node4" class="node">
<title>Node5</title>
<g id="a_node4"><a xlink:href="../../d3/d33/GPUReconstructionHIP_8hip_8cxx.html" target="_top" xlink:title="/home/runner/work/AliceO2\l/AliceO2/GPU/GPUTracking\l/Base/hip/GPUReconstructionHIP.hip.cxx">
<polygon fill="none" stroke="#000000" points="4.5,-.5 4.5,-41.5 204.5,-41.5 204.5,-.5 4.5,-.5"/>
<text text-anchor="start" x="12.5" y="-29.5" font-family="Helvetica,sans-Serif" font-size="10.00" fill="#000000">/home/runner/work/AliceO2</text>
<text text-anchor="start" x="12.5" y="-18.5" font-family="Helvetica,sans-Serif" font-size="10.00" fill="#000000">/AliceO2/GPU/GPUTracking</text>
<text text-anchor="middle" x="104.5" y="-7.5" font-family="Helvetica,sans-Serif" font-size="10.00" fill="#000000">/Base/hip/GPUReconstructionHIP.hip.cxx</text>
</a>
</g>
</g>
<!-- Node4&#45;&gt;Node5 -->
<g id="edge3" class="edge">
<title>Node4&#45;&gt;Node5</title>
<path fill="none" stroke="#191970" d="M104.5,-68.0789C104.5,-59.2178 104.5,-49.7747 104.5,-41.6898"/>
<polygon fill="#191970" stroke="#191970" points="101.0001,-68.0974 104.5,-78.0974 108.0001,-68.0975 101.0001,-68.0974"/>
</g>
</g>
</svg>
