<?xml version="1.0" encoding="UTF-8" standalone="no"?>
<!DOCTYPE svg PUBLIC "-//W3C//DTD SVG 1.1//EN"
 "http://www.w3.org/Graphics/SVG/1.1/DTD/svg11.dtd">
<!-- Generated by graphviz version 2.40.1 (20161225.0304)
 -->
<!-- Title: o2::framework::InitContext Pages: 1 -->
<svg width="1530pt" height="551pt"
 viewBox="0.00 0.00 1529.50 551.00" xmlns="http://www.w3.org/2000/svg" xmlns:xlink="http://www.w3.org/1999/xlink">
<g id="graph0" class="graph" transform="scale(1 1) rotate(0) translate(4 547)">
<title>o2::framework::InitContext</title>
<!-- Node1 -->
<g id="node1" class="node">
<title>Node1</title>
<polygon fill="#bfbfbf" stroke="#000000" points="843.5,-.5 843.5,-79.5 976.5,-79.5 976.5,-.5 843.5,-.5"/>
<text text-anchor="middle" x="910" y="-67.5" font-family="Helvetica,sans-Serif" font-size="10.00" fill="#000000">o2::framework::InitContext</text>
<polyline fill="none" stroke="#000000" points="843.5,-60.5 976.5,-60.5 "/>
<text text-anchor="middle" x="910" y="-48.5" font-family="Helvetica,sans-Serif" font-size="10.00" fill="#000000"> </text>
<polyline fill="none" stroke="#000000" points="843.5,-41.5 976.5,-41.5 "/>
<text text-anchor="start" x="851.5" y="-29.5" font-family="Helvetica,sans-Serif" font-size="10.00" fill="#000000">+ InitContext()</text>
<text text-anchor="start" x="851.5" y="-18.5" font-family="Helvetica,sans-Serif" font-size="10.00" fill="#000000">+ options()</text>
<text text-anchor="start" x="851.5" y="-7.5" font-family="Helvetica,sans-Serif" font-size="10.00" fill="#000000">+ services()</text>
</g>
<!-- Node2 -->
<g id="node2" class="node">
<title>Node2</title>
<g id="a_node2"><a xlink:href="../../dc/dba/structo2_1_1framework_1_1ServiceRegistry.html" target="_top" xlink:title="{o2::framework::ServiceRegistry\n||+ ServiceRegistry()\l+ ServiceRegistry()\l+ operator=()\l+ preProcessingCallbacks()\l+ postProcessingCallbacks()\l+ preDanglingCallbacks()\l+ postDanglingCallbacks()\l+ preEOSCallbacks()\l+ postEOSCallbacks()\l+ postDispatchingCallbacks()\l+ declareService()\l+ bindService()\l+ registerService()\l+ getPos()\l+ get()\l+ registerService()\l+ registerService()\l+ registerService()\l+ active()\l+ get()\l}">
<polygon fill="none" stroke="#000000" points="749.5,-127.5 749.5,-393.5 904.5,-393.5 904.5,-127.5 749.5,-127.5"/>
<text text-anchor="middle" x="827" y="-381.5" font-family="Helvetica,sans-Serif" font-size="10.00" fill="#000000">o2::framework::ServiceRegistry</text>
<polyline fill="none" stroke="#000000" points="749.5,-374.5 904.5,-374.5 "/>
<text text-anchor="middle" x="827" y="-362.5" font-family="Helvetica,sans-Serif" font-size="10.00" fill="#000000"> </text>
<polyline fill="none" stroke="#000000" points="749.5,-355.5 904.5,-355.5 "/>
<text text-anchor="start" x="757.5" y="-343.5" font-family="Helvetica,sans-Serif" font-size="10.00" fill="#000000">+ ServiceRegistry()</text>
<text text-anchor="start" x="757.5" y="-332.5" font-family="Helvetica,sans-Serif" font-size="10.00" fill="#000000">+ ServiceRegistry()</text>
<text text-anchor="start" x="757.5" y="-321.5" font-family="Helvetica,sans-Serif" font-size="10.00" fill="#000000">+ operator=()</text>
<text text-anchor="start" x="757.5" y="-310.5" font-family="Helvetica,sans-Serif" font-size="10.00" fill="#000000">+ preProcessingCallbacks()</text>
<text text-anchor="start" x="757.5" y="-299.5" font-family="Helvetica,sans-Serif" font-size="10.00" fill="#000000">+ postProcessingCallbacks()</text>
<text text-anchor="start" x="757.5" y="-288.5" font-family="Helvetica,sans-Serif" font-size="10.00" fill="#000000">+ preDanglingCallbacks()</text>
<text text-anchor="start" x="757.5" y="-277.5" font-family="Helvetica,sans-Serif" font-size="10.00" fill="#000000">+ postDanglingCallbacks()</text>
<text text-anchor="start" x="757.5" y="-266.5" font-family="Helvetica,sans-Serif" font-size="10.00" fill="#000000">+ preEOSCallbacks()</text>
<text text-anchor="start" x="757.5" y="-255.5" font-family="Helvetica,sans-Serif" font-size="10.00" fill="#000000">+ postEOSCallbacks()</text>
<text text-anchor="start" x="757.5" y="-244.5" font-family="Helvetica,sans-Serif" font-size="10.00" fill="#000000">+ postDispatchingCallbacks()</text>
<text text-anchor="start" x="757.5" y="-233.5" font-family="Helvetica,sans-Serif" font-size="10.00" fill="#000000">+ declareService()</text>
<text text-anchor="start" x="757.5" y="-222.5" font-family="Helvetica,sans-Serif" font-size="10.00" fill="#000000">+ bindService()</text>
<text text-anchor="start" x="757.5" y="-211.5" font-family="Helvetica,sans-Serif" font-size="10.00" fill="#000000">+ registerService()</text>
<text text-anchor="start" x="757.5" y="-200.5" font-family="Helvetica,sans-Serif" font-size="10.00" fill="#000000">+ getPos()</text>
<text text-anchor="start" x="757.5" y="-189.5" font-family="Helvetica,sans-Serif" font-size="10.00" fill="#000000">+ get()</text>
<text text-anchor="start" x="757.5" y="-178.5" font-family="Helvetica,sans-Serif" font-size="10.00" fill="#000000">+ registerService()</text>
<text text-anchor="start" x="757.5" y="-167.5" font-family="Helvetica,sans-Serif" font-size="10.00" fill="#000000">+ registerService()</text>
<text text-anchor="start" x="757.5" y="-156.5" font-family="Helvetica,sans-Serif" font-size="10.00" fill="#000000">+ registerService()</text>
<text text-anchor="start" x="757.5" y="-145.5" font-family="Helvetica,sans-Serif" font-size="10.00" fill="#000000">+ active()</text>
<text text-anchor="start" x="757.5" y="-134.5" font-family="Helvetica,sans-Serif" font-size="10.00" fill="#000000">+ get()</text>
</a>
</g>
</g>
<!-- Node2&#45;&gt;Node1 -->
<g id="edge1" class="edge">
<title>Node2&#45;&gt;Node1</title>
<path fill="none" stroke="#404040" d="M877.077,-127.4641C881.9048,-114.6384 886.5707,-102.2429 890.7976,-91.0135"/>
<polygon fill="none" stroke="#404040" points="890.8045,-90.995 889.1747,-83.9705 895.032,-79.7643 896.6618,-86.7888 890.8045,-90.995"/>
<text text-anchor="middle" x="916" y="-101" font-family="Helvetica,sans-Serif" font-size="10.00" fill="#000000"> +mServices</text>
</g>
<!-- Node3 -->
<g id="node3" class="node">
<title>Node3</title>
<polygon fill="none" stroke="#bfbfbf" points="0,-463.5 0,-542.5 162,-542.5 162,-463.5 0,-463.5"/>
<text text-anchor="start" x="8" y="-530.5" font-family="Helvetica,sans-Serif" font-size="10.00" fill="#000000">array&lt; o2::framework</text>
<text text-anchor="start" x="8" y="-519.5" font-family="Helvetica,sans-Serif" font-size="10.00" fill="#000000">::ServiceMeta, MAX_SERVICES</text>
<text text-anchor="middle" x="81" y="-508.5" font-family="Helvetica,sans-Serif" font-size="10.00" fill="#000000">+MAX_DISTANCE &gt;</text>
<polyline fill="none" stroke="#bfbfbf" points="0,-501.5 162,-501.5 "/>
<text text-anchor="middle" x="81" y="-489.5" font-family="Helvetica,sans-Serif" font-size="10.00" fill="#000000"> </text>
<polyline fill="none" stroke="#bfbfbf" points="0,-482.5 162,-482.5 "/>
<text text-anchor="middle" x="81" y="-470.5" font-family="Helvetica,sans-Serif" font-size="10.00" fill="#000000"> </text>
</g>
<!-- Node3&#45;&gt;Node2 -->
<g id="edge2" class="edge">
<title>Node3&#45;&gt;Node2</title>
<path fill="none" stroke="#404040" d="M136.4575,-463.3365C163.3596,-445.5765 196.769,-425.6157 229,-412 401.641,-339.0694 617.677,-295.0549 737.116,-274.5017"/>
<polygon fill="none" stroke="#404040" points="737.2444,-274.48 742.4884,-269.5301 749.0744,-272.4669 743.8304,-277.4168 737.2444,-274.48"/>
<text text-anchor="middle" x="268" y="-426" font-family="Helvetica,sans-Serif" font-size="10.00" fill="#000000"> +mServicesMeta</text>
</g>
<!-- Node4 -->
<g id="node4" class="node">
<title>Node4</title>
<polygon fill="none" stroke="#bfbfbf" points="180,-469 180,-537 314,-537 314,-469 180,-469"/>
<text text-anchor="start" x="188" y="-525" font-family="Helvetica,sans-Serif" font-size="10.00" fill="#000000">vector&lt; o2::framework</text>
<text text-anchor="middle" x="247" y="-514" font-family="Helvetica,sans-Serif" font-size="10.00" fill="#000000">::ServiceDanglingHandle &gt;</text>
<polyline fill="none" stroke="#bfbfbf" points="180,-507 314,-507 "/>
<text text-anchor="middle" x="247" y="-495" font-family="Helvetica,sans-Serif" font-size="10.00" fill="#000000"> </text>
<polyline fill="none" stroke="#bfbfbf" points="180,-488 314,-488 "/>
<text text-anchor="middle" x="247" y="-476" font-family="Helvetica,sans-Serif" font-size="10.00" fill="#000000"> </text>
</g>
<!-- Node4&#45;&gt;Node2 -->
<g id="edge3" class="edge">
<title>Node4&#45;&gt;Node2</title>
<path fill="none" stroke="#404040" d="M280.4047,-468.8956C300.5396,-449.9442 327.5396,-427.1942 355,-412 479.1553,-343.3034 639.167,-300.2534 737.352,-278.3095"/>
<polygon fill="none" stroke="#404040" points="737.5893,-278.2573 742.5873,-273.0592 749.3079,-275.6736 744.3098,-280.8716 737.5893,-278.2573"/>
<text text-anchor="middle" x="409.5" y="-431.5" font-family="Helvetica,sans-Serif" font-size="10.00" fill="#000000"> +mPreDanglingHandles</text>
<text text-anchor="middle" x="409.5" y="-420.5" font-family="Helvetica,sans-Serif" font-size="10.00" fill="#000000">+mPostDanglingHandles</text>
</g>
<!-- Node5 -->
<g id="node5" class="node">
<title>Node5</title>
<polygon fill="none" stroke="#bfbfbf" points="332,-469 332,-537 476,-537 476,-469 332,-469"/>
<text text-anchor="start" x="340" y="-525" font-family="Helvetica,sans-Serif" font-size="10.00" fill="#000000">vector&lt; o2::framework</text>
<text text-anchor="middle" x="404" y="-514" font-family="Helvetica,sans-Serif" font-size="10.00" fill="#000000">::ServiceProcessingHandle &gt;</text>
<polyline fill="none" stroke="#bfbfbf" points="332,-507 476,-507 "/>
<text text-anchor="middle" x="404" y="-495" font-family="Helvetica,sans-Serif" font-size="10.00" fill="#000000"> </text>
<polyline fill="none" stroke="#bfbfbf" points="332,-488 476,-488 "/>
<text text-anchor="middle" x="404" y="-476" font-family="Helvetica,sans-Serif" font-size="10.00" fill="#000000"> </text>
</g>
<!-- Node5&#45;&gt;Node2 -->
<g id="edge4" class="edge">
<title>Node5&#45;&gt;Node2</title>
<path fill="none" stroke="#404040" d="M438.9102,-468.9051C458.7333,-450.6383 484.6009,-428.5542 510,-412 582.8222,-364.5371 672.7996,-322.97 738.2672,-295.4422"/>
<polygon fill="none" stroke="#404040" points="738.3006,-295.4283 742.2975,-289.4263 749.3752,-290.8072 745.3782,-296.8093 738.3006,-295.4283"/>
<text text-anchor="middle" x="570" y="-431.5" font-family="Helvetica,sans-Serif" font-size="10.00" fill="#000000"> +mPreProcessingHandles</text>
<text text-anchor="middle" x="570" y="-420.5" font-family="Helvetica,sans-Serif" font-size="10.00" fill="#000000">+mPostProcessingHandles</text>
</g>
<!-- Node6 -->
<g id="node6" class="node">
<title>Node6</title>
<polygon fill="none" stroke="#bfbfbf" points="494.5,-469 494.5,-537 661.5,-537 661.5,-469 494.5,-469"/>
<text text-anchor="start" x="502.5" y="-525" font-family="Helvetica,sans-Serif" font-size="10.00" fill="#000000">array&lt; void *, MAX</text>
<text text-anchor="middle" x="578" y="-514" font-family="Helvetica,sans-Serif" font-size="10.00" fill="#000000">_SERVICES+MAX_DISTANCE &gt;</text>
<polyline fill="none" stroke="#bfbfbf" points="494.5,-507 661.5,-507 "/>
<text text-anchor="middle" x="578" y="-495" font-family="Helvetica,sans-Serif" font-size="10.00" fill="#000000"> </text>
<polyline fill="none" stroke="#bfbfbf" points="494.5,-488 661.5,-488 "/>
<text text-anchor="middle" x="578" y="-476" font-family="Helvetica,sans-Serif" font-size="10.00" fill="#000000"> </text>
</g>
<!-- Node6&#45;&gt;Node2 -->
<g id="edge5" class="edge">
<title>Node6&#45;&gt;Node2</title>
<path fill="none" stroke="#404040" d="M609.7838,-468.856C626.0701,-451.5918 646.3518,-430.4439 665,-412 689.0181,-388.245 715.5988,-362.98 740.1654,-340.0296"/>
<polygon fill="none" stroke="#404040" points="740.3387,-339.8681 742.0003,-332.851 749.1167,-331.6859 747.455,-338.703 740.3387,-339.8681"/>
<text text-anchor="middle" x="705.5" y="-426" font-family="Helvetica,sans-Serif" font-size="10.00" fill="#000000"> +mServicesValue</text>
</g>
<!-- Node7 -->
<g id="node7" class="node">
<title>Node7</title>
<polygon fill="none" stroke="#bfbfbf" points="679.5,-469 679.5,-537 826.5,-537 826.5,-469 679.5,-469"/>
<text text-anchor="start" x="687.5" y="-525" font-family="Helvetica,sans-Serif" font-size="10.00" fill="#000000">vector&lt; o2::framework</text>
<text text-anchor="middle" x="753" y="-514" font-family="Helvetica,sans-Serif" font-size="10.00" fill="#000000">::ServiceDispatchingHandle &gt;</text>
<polyline fill="none" stroke="#bfbfbf" points="679.5,-507 826.5,-507 "/>
<text text-anchor="middle" x="753" y="-495" font-family="Helvetica,sans-Serif" font-size="10.00" fill="#000000"> </text>
<polyline fill="none" stroke="#bfbfbf" points="679.5,-488 826.5,-488 "/>
<text text-anchor="middle" x="753" y="-476" font-family="Helvetica,sans-Serif" font-size="10.00" fill="#000000"> </text>
</g>
<!-- Node7&#45;&gt;Node2 -->
<g id="edge6" class="edge">
<title>Node7&#45;&gt;Node2</title>
<path fill="none" stroke="#404040" d="M749.8871,-468.8698C749.1877,-451.6091 749.6776,-430.4602 754,-412 754.5143,-409.8035 755.064,-407.6017 755.6466,-405.3967"/>
<polygon fill="none" stroke="#404040" points="755.7276,-405.1164 753.5515,-398.2415 759.0606,-393.5886 761.2367,-400.4635 755.7276,-405.1164"/>
<text text-anchor="middle" x="817" y="-426" font-family="Helvetica,sans-Serif" font-size="10.00" fill="#000000"> +mPostDispatchingHandles</text>
</g>
<!-- Node8 -->
<g id="node8" class="node">
<title>Node8</title>
<polygon fill="none" stroke="#bfbfbf" points="844.5,-469 844.5,-537 959.5,-537 959.5,-469 844.5,-469"/>
<text text-anchor="start" x="852.5" y="-525" font-family="Helvetica,sans-Serif" font-size="10.00" fill="#000000">vector&lt; o2::framework</text>
<text text-anchor="middle" x="902" y="-514" font-family="Helvetica,sans-Serif" font-size="10.00" fill="#000000">::ServiceSpec &gt;</text>
<polyline fill="none" stroke="#bfbfbf" points="844.5,-507 959.5,-507 "/>
<text text-anchor="middle" x="902" y="-495" font-family="Helvetica,sans-Serif" font-size="10.00" fill="#000000"> </text>
<polyline fill="none" stroke="#bfbfbf" points="844.5,-488 959.5,-488 "/>
<text text-anchor="middle" x="902" y="-476" font-family="Helvetica,sans-Serif" font-size="10.00" fill="#000000"> </text>
</g>
<!-- Node8&#45;&gt;Node2 -->
<g id="edge7" class="edge">
<title>Node8&#45;&gt;Node2</title>
<path fill="none" stroke="#404040" d="M894.5438,-468.6481C890.6113,-451.5192 885.4728,-430.5515 880,-412 879.3348,-409.745 878.6558,-407.474 877.9647,-405.1906"/>
<polygon fill="none" stroke="#404040" points="877.9532,-405.1532 872.3624,-400.5988 874.4161,-393.6863 880.007,-398.2407 877.9532,-405.1532"/>
<text text-anchor="middle" x="912" y="-426" font-family="Helvetica,sans-Serif" font-size="10.00" fill="#000000"> +mSpecs</text>
</g>
<!-- Node9 -->
<g id="node9" class="node">
<title>Node9</title>
<polygon fill="none" stroke="#bfbfbf" points="977.5,-469 977.5,-537 1144.5,-537 1144.5,-469 977.5,-469"/>
<text text-anchor="start" x="985.5" y="-525" font-family="Helvetica,sans-Serif" font-size="10.00" fill="#000000">array&lt; uint32_t, MAX</text>
<text text-anchor="middle" x="1061" y="-514" font-family="Helvetica,sans-Serif" font-size="10.00" fill="#000000">_SERVICES+MAX_DISTANCE &gt;</text>
<polyline fill="none" stroke="#bfbfbf" points="977.5,-507 1144.5,-507 "/>
<text text-anchor="middle" x="1061" y="-495" font-family="Helvetica,sans-Serif" font-size="10.00" fill="#000000"> </text>
<polyline fill="none" stroke="#bfbfbf" points="977.5,-488 1144.5,-488 "/>
<text text-anchor="middle" x="1061" y="-476" font-family="Helvetica,sans-Serif" font-size="10.00" fill="#000000"> </text>
</g>
<!-- Node9&#45;&gt;Node2 -->
<g id="edge8" class="edge">
<title>Node9&#45;&gt;Node2</title>
<path fill="none" stroke="#404040" d="M1015.6556,-468.8945C992.7439,-451.7338 964.4689,-430.6654 939,-412 927.9567,-403.9067 923.4538,-403.9036 914,-394 913.606,-393.5873 913.2127,-393.1725 912.8202,-392.7558"/>
<polygon fill="none" stroke="#404040" points="912.7238,-392.6489 905.7349,-390.8726 904.6865,-383.7381 911.6754,-385.5144 912.7238,-392.6489"/>
<text text-anchor="middle" x="1018.5" y="-426" font-family="Helvetica,sans-Serif" font-size="10.00" fill="#000000"> +mServicesKey</text>
</g>
<!-- Node10 -->
<g id="node10" class="node">
<title>Node10</title>
<polygon fill="none" stroke="#bfbfbf" points="1162,-469 1162,-537 1278,-537 1278,-469 1162,-469"/>
<text text-anchor="start" x="1170" y="-525" font-family="Helvetica,sans-Serif" font-size="10.00" fill="#000000">vector&lt; o2::framework</text>
<text text-anchor="middle" x="1220" y="-514" font-family="Helvetica,sans-Serif" font-size="10.00" fill="#000000">::ServiceEOSHandle &gt;</text>
<polyline fill="none" stroke="#bfbfbf" points="1162,-507 1278,-507 "/>
<text text-anchor="middle" x="1220" y="-495" font-family="Helvetica,sans-Serif" font-size="10.00" fill="#000000"> </text>
<polyline fill="none" stroke="#bfbfbf" points="1162,-488 1278,-488 "/>
<text text-anchor="middle" x="1220" y="-476" font-family="Helvetica,sans-Serif" font-size="10.00" fill="#000000"> </text>
</g>
<!-- Node10&#45;&gt;Node2 -->
<g id="edge9" class="edge">
<title>Node10&#45;&gt;Node2</title>
<path fill="none" stroke="#404040" d="M1164.3084,-468.9679C1160.8311,-466.9299 1157.3743,-464.9265 1154,-463 1112.3834,-439.2396 1104.6652,-426.532 1059,-412 1000.6237,-393.423 972.3613,-424.4949 915.3633,-393.8168"/>
<polygon fill="none" stroke="#404040" points="915.1214,-393.6748 907.922,-394.0863 904.7731,-387.599 911.9725,-387.1875 915.1214,-393.6748"/>
<text text-anchor="middle" x="1169" y="-431.5" font-family="Helvetica,sans-Serif" font-size="10.00" fill="#000000"> +mPreEOSHandles</text>
<text text-anchor="middle" x="1169" y="-420.5" font-family="Helvetica,sans-Serif" font-size="10.00" fill="#000000">+mPostEOSHandles</text>
</g>
<!-- Node11 -->
<g id="node11" class="node">
<title>Node11</title>
<polygon fill="none" stroke="#bfbfbf" points="1296.5,-474.5 1296.5,-531.5 1325.5,-531.5 1325.5,-474.5 1296.5,-474.5"/>
<text text-anchor="middle" x="1311" y="-519.5" font-family="Helvetica,sans-Serif" font-size="10.00" fill="#000000">int</text>
<polyline fill="none" stroke="#bfbfbf" points="1296.5,-512.5 1325.5,-512.5 "/>
<text text-anchor="middle" x="1311" y="-500.5" font-family="Helvetica,sans-Serif" font-size="10.00" fill="#000000"> </text>
<polyline fill="none" stroke="#bfbfbf" points="1296.5,-493.5 1325.5,-493.5 "/>
<text text-anchor="middle" x="1311" y="-481.5" font-family="Helvetica,sans-Serif" font-size="10.00" fill="#000000"> </text>
</g>
<!-- Node11&#45;&gt;Node2 -->
<g id="edge10" class="edge">
<title>Node11&#45;&gt;Node2</title>
<path fill="none" stroke="#404040" d="M1296.3349,-475.326C1293.5045,-470.9974 1290.3628,-466.7286 1287,-463 1261.6987,-434.9464 1254.4715,-424.9974 1219,-412 1158.362,-389.7812 990.257,-424.3912 915.3738,-393.2149"/>
<polygon fill="none" stroke="#404040" points="915.3572,-393.2067 908.2048,-394.1256 904.6057,-387.8769 911.758,-386.958 915.3572,-393.2067"/>
<text text-anchor="middle" x="1329.5" y="-437" font-family="Helvetica,sans-Serif" font-size="10.00" fill="#000000"> +MAX_DISTANCE</text>
<text text-anchor="middle" x="1329.5" y="-426" font-family="Helvetica,sans-Serif" font-size="10.00" fill="#000000">+MAX_SERVICES</text>
<text text-anchor="middle" x="1329.5" y="-415" font-family="Helvetica,sans-Serif" font-size="10.00" fill="#000000">+MAX_SERVICES_MASK</text>
</g>
<!-- Node12 -->
<g id="node12" class="node">
<title>Node12</title>
<polygon fill="none" stroke="#bfbfbf" points="1384.5,-463.5 1384.5,-542.5 1521.5,-542.5 1521.5,-463.5 1384.5,-463.5"/>
<text text-anchor="start" x="1392.5" y="-530.5" font-family="Helvetica,sans-Serif" font-size="10.00" fill="#000000">array&lt; std::atomic</text>
<text text-anchor="start" x="1392.5" y="-519.5" font-family="Helvetica,sans-Serif" font-size="10.00" fill="#000000">&lt; bool &gt;, MAX_SERVICES</text>
<text text-anchor="middle" x="1453" y="-508.5" font-family="Helvetica,sans-Serif" font-size="10.00" fill="#000000">+MAX_DISTANCE &gt;</text>
<polyline fill="none" stroke="#bfbfbf" points="1384.5,-501.5 1521.5,-501.5 "/>
<text text-anchor="middle" x="1453" y="-489.5" font-family="Helvetica,sans-Serif" font-size="10.00" fill="#000000"> </text>
<polyline fill="none" stroke="#bfbfbf" points="1384.5,-482.5 1521.5,-482.5 "/>
<text text-anchor="middle" x="1453" y="-470.5" font-family="Helvetica,sans-Serif" font-size="10.00" fill="#000000"> </text>
</g>
<!-- Node12&#45;&gt;Node2 -->
<g id="edge11" class="edge">
<title>Node12&#45;&gt;Node2</title>
<path fill="none" stroke="#404040" d="M1437.188,-463.1422C1427.4487,-444.1765 1412.9532,-423.2324 1393,-412 1303.2595,-361.4817 1025.951,-440.8938 915.3438,-393.3304"/>
<polygon fill="none" stroke="#404040" points="915.2995,-393.3084 908.1464,-394.2217 904.5522,-387.9702 911.7052,-387.0569 915.2995,-393.3084"/>
<text text-anchor="middle" x="1470.5" y="-426" font-family="Helvetica,sans-Serif" font-size="10.00" fill="#000000"> +mServicesBooked</text>
</g>
<!-- Node13 -->
<g id="node13" class="node">
<title>Node13</title>
<g id="a_node13"><a xlink:href="../../df/d6f/classo2_1_1framework_1_1ConfigParamRegistry.html" target="_top" xlink:title="{o2::framework::ConfigParam\lRegistry\n||+ ConfigParamRegistry()\l+ isSet()\l+ isDefault()\l+ get()\l}">
<polygon fill="none" stroke="#000000" points="923,-210 923,-311 1065,-311 1065,-210 923,-210"/>
<text text-anchor="start" x="931" y="-299" font-family="Helvetica,sans-Serif" font-size="10.00" fill="#000000">o2::framework::ConfigParam</text>
<text text-anchor="middle" x="994" y="-288" font-family="Helvetica,sans-Serif" font-size="10.00" fill="#000000">Registry</text>
<polyline fill="none" stroke="#000000" points="923,-281 1065,-281 "/>
<text text-anchor="middle" x="994" y="-269" font-family="Helvetica,sans-Serif" font-size="10.00" fill="#000000"> </text>
<polyline fill="none" stroke="#000000" points="923,-262 1065,-262 "/>
<text text-anchor="start" x="931" y="-250" font-family="Helvetica,sans-Serif" font-size="10.00" fill="#000000">+ ConfigParamRegistry()</text>
<text text-anchor="start" x="931" y="-239" font-family="Helvetica,sans-Serif" font-size="10.00" fill="#000000">+ isSet()</text>
<text text-anchor="start" x="931" y="-228" font-family="Helvetica,sans-Serif" font-size="10.00" fill="#000000">+ isDefault()</text>
<text text-anchor="start" x="931" y="-217" font-family="Helvetica,sans-Serif" font-size="10.00" fill="#000000">+ get()</text>
</a>
</g>
</g>
<!-- Node13&#45;&gt;Node1 -->
<g id="edge12" class="edge">
<title>Node13&#45;&gt;Node1</title>
<path fill="none" stroke="#404040" d="M983.8096,-209.6799C976.232,-176.9135 964.3655,-133.8798 948,-98 946.8198,-95.4124 945.5337,-92.8085 944.1715,-90.2133"/>
<polygon fill="none" stroke="#404040" points="944.113,-90.1095 937.6814,-86.8485 938.2179,-79.6573 944.6495,-82.9184 944.113,-90.1095"/>
<text text-anchor="middle" x="977" y="-101" font-family="Helvetica,sans-Serif" font-size="10.00" fill="#000000"> +mOptions</text>
</g>
</g>
</svg>
