<?xml version="1.0" encoding="UTF-8" standalone="no"?>
<!DOCTYPE svg PUBLIC "-//W3C//DTD SVG 1.1//EN"
 "http://www.w3.org/Graphics/SVG/1.1/DTD/svg11.dtd">
<!-- Generated by graphviz version 2.40.1 (20161225.0304)
 -->
<!-- Title: o2::framework::InputSpec Pages: 1 -->
<svg width="432pt" height="259pt"
 viewBox="0.00 0.00 432.00 259.00" xmlns="http://www.w3.org/2000/svg" xmlns:xlink="http://www.w3.org/1999/xlink">
<g id="graph0" class="graph" transform="scale(1 1) rotate(0) translate(4 255)">
<title>o2::framework::InputSpec</title>
<!-- Node1 -->
<g id="node1" class="node">
<title>Node1</title>
<polygon fill="#bfbfbf" stroke="#000000" points="173,-.5 173,-112.5 302,-112.5 302,-.5 173,-.5"/>
<text text-anchor="middle" x="237.5" y="-100.5" font-family="Helvetica,sans-Serif" font-size="10.00" fill="#000000">o2::framework::InputSpec</text>
<polyline fill="none" stroke="#000000" points="173,-93.5 302,-93.5 "/>
<text text-anchor="middle" x="237.5" y="-81.5" font-family="Helvetica,sans-Serif" font-size="10.00" fill="#000000"> </text>
<polyline fill="none" stroke="#000000" points="173,-74.5 302,-74.5 "/>
<text text-anchor="start" x="181" y="-62.5" font-family="Helvetica,sans-Serif" font-size="10.00" fill="#000000">+ InputSpec()</text>
<text text-anchor="start" x="181" y="-51.5" font-family="Helvetica,sans-Serif" font-size="10.00" fill="#000000">+ InputSpec()</text>
<text text-anchor="start" x="181" y="-40.5" font-family="Helvetica,sans-Serif" font-size="10.00" fill="#000000">+ InputSpec()</text>
<text text-anchor="start" x="181" y="-29.5" font-family="Helvetica,sans-Serif" font-size="10.00" fill="#000000">+ InputSpec()</text>
<text text-anchor="start" x="181" y="-18.5" font-family="Helvetica,sans-Serif" font-size="10.00" fill="#000000">+ InputSpec()</text>
<text text-anchor="start" x="181" y="-7.5" font-family="Helvetica,sans-Serif" font-size="10.00" fill="#000000">+ operator==()</text>
</g>
<!-- Node2 -->
<g id="node2" class="node">
<title>Node2</title>
<polygon fill="none" stroke="#bfbfbf" points="0,-171.5 0,-239.5 115,-239.5 115,-171.5 0,-171.5"/>
<text text-anchor="start" x="8" y="-227.5" font-family="Helvetica,sans-Serif" font-size="10.00" fill="#000000">vector&lt; o2::framework</text>
<text text-anchor="middle" x="57.5" y="-216.5" font-family="Helvetica,sans-Serif" font-size="10.00" fill="#000000">::ConfigParamSpec &gt;</text>
<polyline fill="none" stroke="#bfbfbf" points="0,-209.5 115,-209.5 "/>
<text text-anchor="middle" x="57.5" y="-197.5" font-family="Helvetica,sans-Serif" font-size="10.00" fill="#000000"> </text>
<polyline fill="none" stroke="#bfbfbf" points="0,-190.5 115,-190.5 "/>
<text text-anchor="middle" x="57.5" y="-178.5" font-family="Helvetica,sans-Serif" font-size="10.00" fill="#000000"> </text>
</g>
<!-- Node2&#45;&gt;Node1 -->
<g id="edge1" class="edge">
<title>Node2&#45;&gt;Node1</title>
<path fill="none" stroke="#404040" d="M98.7956,-171.3164C117.9585,-155.4538 141.3369,-136.1017 163.3988,-117.8393"/>
<polygon fill="none" stroke="#404040" points="163.5134,-117.7445 165.5847,-110.8373 172.7573,-110.0926 170.686,-116.9998 163.5134,-117.7445"/>
<text text-anchor="middle" x="172.5" y="-134" font-family="Helvetica,sans-Serif" font-size="10.00" fill="#000000"> +metadata</text>
</g>
<!-- Node3 -->
<g id="node3" class="node">
<title>Node3</title>
<polygon fill="none" stroke="#bfbfbf" points="133.5,-177 133.5,-234 211.5,-234 211.5,-177 133.5,-177"/>
<text text-anchor="middle" x="172.5" y="-222" font-family="Helvetica,sans-Serif" font-size="10.00" fill="#000000">enum Lifetime</text>
<polyline fill="none" stroke="#bfbfbf" points="133.5,-215 211.5,-215 "/>
<text text-anchor="middle" x="172.5" y="-203" font-family="Helvetica,sans-Serif" font-size="10.00" fill="#000000"> </text>
<polyline fill="none" stroke="#bfbfbf" points="133.5,-196 211.5,-196 "/>
<text text-anchor="middle" x="172.5" y="-184" font-family="Helvetica,sans-Serif" font-size="10.00" fill="#000000"> </text>
</g>
<!-- Node3&#45;&gt;Node1 -->
<g id="edge2" class="edge">
<title>Node3&#45;&gt;Node1</title>
<path fill="none" stroke="#404040" d="M185.0327,-176.7713C191.632,-161.6436 200.0247,-142.405 208.1519,-123.7748"/>
<polygon fill="none" stroke="#404040" points="208.2264,-123.6039 206.9592,-116.505 213.0247,-112.6049 214.2919,-119.7038 208.2264,-123.6039"/>
<text text-anchor="middle" x="225" y="-134" font-family="Helvetica,sans-Serif" font-size="10.00" fill="#000000"> +lifetime</text>
</g>
<!-- Node4 -->
<g id="node4" class="node">
<title>Node4</title>
<polygon fill="none" stroke="#bfbfbf" points="230,-160.5 230,-250.5 377,-250.5 377,-160.5 230,-160.5"/>
<text text-anchor="start" x="238" y="-238.5" font-family="Helvetica,sans-Serif" font-size="10.00" fill="#000000">variant&lt; o2::framework</text>
<text text-anchor="start" x="238" y="-227.5" font-family="Helvetica,sans-Serif" font-size="10.00" fill="#000000">::ConcreteDataMatcher,</text>
<text text-anchor="start" x="238" y="-216.5" font-family="Helvetica,sans-Serif" font-size="10.00" fill="#000000"> o2::framework::data_matcher</text>
<text text-anchor="middle" x="303.5" y="-205.5" font-family="Helvetica,sans-Serif" font-size="10.00" fill="#000000">::DataDescriptorMatcher &gt;</text>
<polyline fill="none" stroke="#bfbfbf" points="230,-198.5 377,-198.5 "/>
<text text-anchor="middle" x="303.5" y="-186.5" font-family="Helvetica,sans-Serif" font-size="10.00" fill="#000000"> </text>
<polyline fill="none" stroke="#bfbfbf" points="230,-179.5 377,-179.5 "/>
<text text-anchor="middle" x="303.5" y="-167.5" font-family="Helvetica,sans-Serif" font-size="10.00" fill="#000000"> </text>
</g>
<!-- Node4&#45;&gt;Node1 -->
<g id="edge3" class="edge">
<title>Node4&#45;&gt;Node1</title>
<path fill="none" stroke="#404040" d="M283.5187,-160.3907C278.4062,-148.8489 272.7973,-136.1863 267.3073,-123.7923"/>
<polygon fill="none" stroke="#404040" points="267.1766,-123.4972 261.0894,-119.6313 262.3166,-112.5254 268.4039,-116.3912 267.1766,-123.4972"/>
<text text-anchor="middle" x="296" y="-134" font-family="Helvetica,sans-Serif" font-size="10.00" fill="#000000"> +matcher</text>
</g>
<!-- Node5 -->
<g id="node5" class="node">
<title>Node5</title>
<polygon fill="none" stroke="#bfbfbf" points="395,-177 395,-234 424,-234 424,-177 395,-177"/>
<text text-anchor="middle" x="409.5" y="-222" font-family="Helvetica,sans-Serif" font-size="10.00" fill="#000000">int</text>
<polyline fill="none" stroke="#bfbfbf" points="395,-215 424,-215 "/>
<text text-anchor="middle" x="409.5" y="-203" font-family="Helvetica,sans-Serif" font-size="10.00" fill="#000000"> </text>
<polyline fill="none" stroke="#bfbfbf" points="395,-196 424,-196 "/>
<text text-anchor="middle" x="409.5" y="-184" font-family="Helvetica,sans-Serif" font-size="10.00" fill="#000000"> </text>
</g>
<!-- Node5&#45;&gt;Node1 -->
<g id="edge4" class="edge">
<title>Node5&#45;&gt;Node1</title>
<path fill="none" stroke="#404040" d="M397.6721,-176.7013C394.5337,-170.8289 390.7985,-164.9421 386.5,-160 365.6063,-135.9778 337.9821,-114.7895 312.2001,-97.9425"/>
<polygon fill="none" stroke="#404040" points="312.1666,-97.9211 304.9569,-98.0659 302.0503,-91.4665 309.26,-91.3217 312.1666,-97.9211"/>
<text text-anchor="middle" x="385.5" y="-134" font-family="Helvetica,sans-Serif" font-size="10.00" fill="#000000"> +binding</text>
</g>
</g>
</svg>
