<?xml version="1.0" encoding="UTF-8" standalone="no"?>
<!DOCTYPE svg PUBLIC "-//W3C//DTD SVG 1.1//EN"
 "http://www.w3.org/Graphics/SVG/1.1/DTD/svg11.dtd">
<!-- Generated by graphviz version 2.40.1 (20161225.0304)
 -->
<!-- Title: o2::fdd::TCMdata Pages: 1 -->
<svg width="373pt" height="248pt"
 viewBox="0.00 0.00 372.50 248.00" xmlns="http://www.w3.org/2000/svg" xmlns:xlink="http://www.w3.org/1999/xlink">
<g id="graph0" class="graph" transform="scale(1 1) rotate(0) translate(4 244)">
<title>o2::fdd::TCMdata</title>
<!-- Node1 -->
<g id="node1" class="node">
<title>Node1</title>
<polygon fill="#bfbfbf" stroke="#000000" points="127,-.5 127,-57.5 220,-57.5 220,-.5 127,-.5"/>
<text text-anchor="middle" x="173.5" y="-45.5" font-family="Helvetica,sans-Serif" font-size="10.00" fill="#000000">o2::fdd::TCMdata</text>
<polyline fill="none" stroke="#000000" points="127,-38.5 220,-38.5 "/>
<text text-anchor="middle" x="173.5" y="-26.5" font-family="Helvetica,sans-Serif" font-size="10.00" fill="#000000"> </text>
<polyline fill="none" stroke="#000000" points="127,-19.5 220,-19.5 "/>
<text text-anchor="middle" x="173.5" y="-7.5" font-family="Helvetica,sans-Serif" font-size="10.00" fill="#000000"> </text>
</g>
<!-- Node2 -->
<g id="node2" class="node">
<title>Node2</title>
<polygon fill="none" stroke="#bfbfbf" points="0,-182.5 0,-239.5 97,-239.5 97,-182.5 0,-182.5"/>
<text text-anchor="middle" x="48.5" y="-227.5" font-family="Helvetica,sans-Serif" font-size="10.00" fill="#000000">anonymous:+@17</text>
<polyline fill="none" stroke="#bfbfbf" points="0,-220.5 97,-220.5 "/>
<text text-anchor="middle" x="48.5" y="-208.5" font-family="Helvetica,sans-Serif" font-size="10.00" fill="#000000"> </text>
<polyline fill="none" stroke="#bfbfbf" points="0,-201.5 97,-201.5 "/>
<text text-anchor="middle" x="48.5" y="-189.5" font-family="Helvetica,sans-Serif" font-size="10.00" fill="#000000"> </text>
</g>
<!-- Node2&#45;&gt;Node1 -->
<g id="edge1" class="edge">
<title>Node2&#45;&gt;Node1</title>
<path fill="none" stroke="#404040" d="M53.1622,-182.4396C59.1669,-153.0785 72.0212,-107.343 97.5,-76 102.8256,-69.4487 109.3215,-63.5587 116.2495,-58.3451"/>
<polygon fill="none" stroke="#404040" points="116.744,-58.0041 119.4128,-51.3051 126.623,-51.192 123.9542,-57.8911 116.744,-58.0041"/>
<text text-anchor="middle" x="113" y="-117.5" font-family="Helvetica,sans-Serif" font-size="10.00" fill="#000000"> +@17</text>
</g>
<!-- Node3 -->
<g id="node3" class="node">
<title>Node3</title>
<g id="a_node3"><a xlink:href="../../d6/d30/classuint64__t.html" target="_top" xlink:title="{uint64_t\n||}">
<polygon fill="none" stroke="#000000" points="115,-182.5 115,-239.5 166,-239.5 166,-182.5 115,-182.5"/>
<text text-anchor="middle" x="140.5" y="-227.5" font-family="Helvetica,sans-Serif" font-size="10.00" fill="#000000">uint64_t</text>
<polyline fill="none" stroke="#000000" points="115,-220.5 166,-220.5 "/>
<text text-anchor="middle" x="140.5" y="-208.5" font-family="Helvetica,sans-Serif" font-size="10.00" fill="#000000"> </text>
<polyline fill="none" stroke="#000000" points="115,-201.5 166,-201.5 "/>
<text text-anchor="middle" x="140.5" y="-189.5" font-family="Helvetica,sans-Serif" font-size="10.00" fill="#000000"> </text>
</a>
</g>
</g>
<!-- Node3&#45;&gt;Node1 -->
<g id="edge2" class="edge">
<title>Node3&#45;&gt;Node1</title>
<path fill="none" stroke="#404040" d="M135.976,-182.337C132.6703,-154.489 130.4649,-111.3499 141.5,-76 142.3007,-73.4352 143.2928,-70.8844 144.4267,-68.3738"/>
<polygon fill="none" stroke="#404040" points="144.478,-68.278 143.7897,-61.0998 150.151,-57.7036 150.8393,-64.8818 144.478,-68.278"/>
<text text-anchor="middle" x="163" y="-156" font-family="Helvetica,sans-Serif" font-size="10.00" fill="#000000"> +orA</text>
<text text-anchor="middle" x="163" y="-145" font-family="Helvetica,sans-Serif" font-size="10.00" fill="#000000">+nChanA</text>
<text text-anchor="middle" x="163" y="-134" font-family="Helvetica,sans-Serif" font-size="10.00" fill="#000000">+sCen</text>
<text text-anchor="middle" x="163" y="-123" font-family="Helvetica,sans-Serif" font-size="10.00" fill="#000000">+orC</text>
<text text-anchor="middle" x="163" y="-112" font-family="Helvetica,sans-Serif" font-size="10.00" fill="#000000">+word</text>
<text text-anchor="middle" x="163" y="-101" font-family="Helvetica,sans-Serif" font-size="10.00" fill="#000000">+nChanC</text>
<text text-anchor="middle" x="163" y="-90" font-family="Helvetica,sans-Serif" font-size="10.00" fill="#000000">+vertex</text>
<text text-anchor="middle" x="163" y="-79" font-family="Helvetica,sans-Serif" font-size="10.00" fill="#000000">+cen</text>
</g>
<!-- Node4 -->
<g id="node4" class="node">
<title>Node4</title>
<polygon fill="none" stroke="#bfbfbf" points="184.5,-182.5 184.5,-239.5 230.5,-239.5 230.5,-182.5 184.5,-182.5"/>
<text text-anchor="middle" x="207.5" y="-227.5" font-family="Helvetica,sans-Serif" font-size="10.00" fill="#000000">int64_t</text>
<polyline fill="none" stroke="#bfbfbf" points="184.5,-220.5 230.5,-220.5 "/>
<text text-anchor="middle" x="207.5" y="-208.5" font-family="Helvetica,sans-Serif" font-size="10.00" fill="#000000"> </text>
<polyline fill="none" stroke="#bfbfbf" points="184.5,-201.5 230.5,-201.5 "/>
<text text-anchor="middle" x="207.5" y="-189.5" font-family="Helvetica,sans-Serif" font-size="10.00" fill="#000000"> </text>
</g>
<!-- Node4&#45;&gt;Node1 -->
<g id="edge3" class="edge">
<title>Node4&#45;&gt;Node1</title>
<path fill="none" stroke="#404040" d="M203.1574,-182.4623C198.8672,-155.0739 191.8911,-112.588 184.5,-76 184.0706,-73.8746 183.6157,-71.6986 183.1447,-69.5041"/>
<polygon fill="none" stroke="#404040" points="183.1403,-69.484 177.9299,-64.4989 180.5275,-57.7719 185.7379,-62.757 183.1403,-69.484"/>
<text text-anchor="middle" x="234.5" y="-145" font-family="Helvetica,sans-Serif" font-size="10.00" fill="#000000"> +timeA</text>
<text text-anchor="middle" x="234.5" y="-134" font-family="Helvetica,sans-Serif" font-size="10.00" fill="#000000">+timeC</text>
<text text-anchor="middle" x="234.5" y="-123" font-family="Helvetica,sans-Serif" font-size="10.00" fill="#000000">+reservedField1</text>
<text text-anchor="middle" x="234.5" y="-112" font-family="Helvetica,sans-Serif" font-size="10.00" fill="#000000">+reservedField2</text>
<text text-anchor="middle" x="234.5" y="-101" font-family="Helvetica,sans-Serif" font-size="10.00" fill="#000000">+amplA</text>
<text text-anchor="middle" x="234.5" y="-90" font-family="Helvetica,sans-Serif" font-size="10.00" fill="#000000">+amplC</text>
</g>
<!-- Node5 -->
<g id="node5" class="node">
<title>Node5</title>
<polygon fill="none" stroke="#bfbfbf" points="279,-182.5 279,-239.5 320,-239.5 320,-182.5 279,-182.5"/>
<text text-anchor="middle" x="299.5" y="-227.5" font-family="Helvetica,sans-Serif" font-size="10.00" fill="#000000">static</text>
<polyline fill="none" stroke="#bfbfbf" points="279,-220.5 320,-220.5 "/>
<text text-anchor="middle" x="299.5" y="-208.5" font-family="Helvetica,sans-Serif" font-size="10.00" fill="#000000"> </text>
<polyline fill="none" stroke="#bfbfbf" points="279,-201.5 320,-201.5 "/>
<text text-anchor="middle" x="299.5" y="-189.5" font-family="Helvetica,sans-Serif" font-size="10.00" fill="#000000"> </text>
</g>
<!-- Node5&#45;&gt;Node1 -->
<g id="edge4" class="edge">
<title>Node5&#45;&gt;Node1</title>
<path fill="none" stroke="#404040" d="M301.1556,-182.3831C301.3658,-152.7624 297.3063,-106.6203 273.5,-76 262.841,-62.2901 247.2157,-52.3992 231.4693,-45.3407"/>
<polygon fill="none" stroke="#404040" points="231.164,-45.2163 224.0981,-46.6561 220.0514,-40.6875 227.1173,-39.2477 231.164,-45.2163"/>
<text text-anchor="middle" x="332.5" y="-117.5" font-family="Helvetica,sans-Serif" font-size="10.00" fill="#000000"> +PayloadSize</text>
</g>
</g>
</svg>
