<?xml version="1.0" encoding="UTF-8" standalone="no"?>
<!DOCTYPE svg PUBLIC "-//W3C//DTD SVG 1.1//EN"
 "http://www.w3.org/Graphics/SVG/1.1/DTD/svg11.dtd">
<!-- Generated by graphviz version 2.40.1 (20161225.0304)
 -->
<!-- Title: /home/runner/work/AliceO2/AliceO2/Detectors/CPV/base/include/CPVBase/Geometry.h Pages: 1 -->
<svg width="1685pt" height="295pt"
 viewBox="0.00 0.00 1684.50 295.00" xmlns="http://www.w3.org/2000/svg" xmlns:xlink="http://www.w3.org/1999/xlink">
<g id="graph0" class="graph" transform="scale(1 1) rotate(0) translate(4 291)">
<title>/home/runner/work/AliceO2/AliceO2/Detectors/CPV/base/include/CPVBase/Geometry.h</title>
<!-- Node5 -->
<g id="node1" class="node">
<title>Node5</title>
<polygon fill="#bfbfbf" stroke="#000000" points="645.5,-245.5 645.5,-286.5 820.5,-286.5 820.5,-245.5 645.5,-245.5"/>
<text text-anchor="start" x="653.5" y="-274.5" font-family="Helvetica,sans-Serif" font-size="10.00" fill="#000000">/home/runner/work/AliceO2</text>
<text text-anchor="start" x="653.5" y="-263.5" font-family="Helvetica,sans-Serif" font-size="10.00" fill="#000000">/AliceO2/Detectors/CPV</text>
<text text-anchor="middle" x="733" y="-252.5" font-family="Helvetica,sans-Serif" font-size="10.00" fill="#000000">/base/include/CPVBase/Geometry.h</text>
</g>
<!-- Node6 -->
<g id="node2" class="node">
<title>Node6</title>
<g id="a_node2"><a xlink:href="../../d9/df0/DataFormats_2Detectors_2CPV_2src_2Cluster_8cxx.html" target="_top" xlink:title="/home/runner/work/AliceO2\l/AliceO2/DataFormats/Detectors\l/CPV/src/Cluster.cxx">
<polygon fill="none" stroke="#000000" points="0,-162 0,-203 160,-203 160,-162 0,-162"/>
<text text-anchor="start" x="8" y="-191" font-family="Helvetica,sans-Serif" font-size="10.00" fill="#000000">/home/runner/work/AliceO2</text>
<text text-anchor="start" x="8" y="-180" font-family="Helvetica,sans-Serif" font-size="10.00" fill="#000000">/AliceO2/DataFormats/Detectors</text>
<text text-anchor="middle" x="80" y="-169" font-family="Helvetica,sans-Serif" font-size="10.00" fill="#000000">/CPV/src/Cluster.cxx</text>
</a>
</g>
</g>
<!-- Node5&#45;&gt;Node6 -->
<g id="edge1" class="edge">
<title>Node5&#45;&gt;Node6</title>
<path fill="none" stroke="#191970" d="M635.2644,-261.7231C522.1421,-255.4837 330.668,-240.9407 169,-209 160.7757,-207.3751 152.2203,-205.317 143.8078,-203.0686"/>
<polygon fill="#191970" stroke="#191970" points="635.1153,-265.22 645.2898,-262.2655 635.4936,-258.2302 635.1153,-265.22"/>
</g>
<!-- Node7 -->
<g id="node3" class="node">
<title>Node7</title>
<g id="a_node3"><a xlink:href="../../d2/d9f/CPV_2base_2src_2Geometry_8cxx.html" target="_top" xlink:title="/home/runner/work/AliceO2\l/AliceO2/Detectors/CPV\l/base/src/Geometry.cxx">
<polygon fill="none" stroke="#000000" points="178.5,-162 178.5,-203 313.5,-203 313.5,-162 178.5,-162"/>
<text text-anchor="start" x="186.5" y="-191" font-family="Helvetica,sans-Serif" font-size="10.00" fill="#000000">/home/runner/work/AliceO2</text>
<text text-anchor="start" x="186.5" y="-180" font-family="Helvetica,sans-Serif" font-size="10.00" fill="#000000">/AliceO2/Detectors/CPV</text>
<text text-anchor="middle" x="246" y="-169" font-family="Helvetica,sans-Serif" font-size="10.00" fill="#000000">/base/src/Geometry.cxx</text>
</a>
</g>
</g>
<!-- Node5&#45;&gt;Node7 -->
<g id="edge2" class="edge">
<title>Node5&#45;&gt;Node7</title>
<path fill="none" stroke="#191970" d="M635.3019,-257.7786C551.6092,-249.4652 428.2781,-234.1837 323,-209 315.9877,-207.3226 308.7133,-205.2618 301.5597,-203.0369"/>
<polygon fill="#191970" stroke="#191970" points="635.0145,-261.2671 645.308,-258.7581 635.6966,-254.3004 635.0145,-261.2671"/>
</g>
<!-- Node8 -->
<g id="node4" class="node">
<title>Node8</title>
<g id="a_node4"><a xlink:href="../../dd/ded/CPV_2calib_2src_2BadChannelMap_8cxx.html" target="_top" xlink:title="/home/runner/work/AliceO2\l/AliceO2/Detectors/CPV\l/calib/src/BadChannelMap.cxx">
<polygon fill="none" stroke="#000000" points="332,-162 332,-203 482,-203 482,-162 332,-162"/>
<text text-anchor="start" x="340" y="-191" font-family="Helvetica,sans-Serif" font-size="10.00" fill="#000000">/home/runner/work/AliceO2</text>
<text text-anchor="start" x="340" y="-180" font-family="Helvetica,sans-Serif" font-size="10.00" fill="#000000">/AliceO2/Detectors/CPV</text>
<text text-anchor="middle" x="407" y="-169" font-family="Helvetica,sans-Serif" font-size="10.00" fill="#000000">/calib/src/BadChannelMap.cxx</text>
</a>
</g>
</g>
<!-- Node5&#45;&gt;Node8 -->
<g id="edge3" class="edge">
<title>Node5&#45;&gt;Node8</title>
<path fill="none" stroke="#191970" d="M635.3439,-244.7361C591.0833,-234.6534 538.2034,-221.9856 491,-209 484.3652,-207.1748 477.4674,-205.1724 470.6041,-203.1116"/>
<polygon fill="#191970" stroke="#191970" points="634.7057,-248.1802 645.2321,-246.9784 636.2538,-241.3535 634.7057,-248.1802"/>
</g>
<!-- Node9 -->
<g id="node5" class="node">
<title>Node9</title>
<g id="a_node5"><a xlink:href="../../df/d94/CPV_2calib_2src_2CalibParams_8cxx.html" target="_top" xlink:title="/home/runner/work/AliceO2\l/AliceO2/Detectors/CPV\l/calib/src/CalibParams.cxx">
<polygon fill="none" stroke="#000000" points="500.5,-162 500.5,-203 635.5,-203 635.5,-162 500.5,-162"/>
<text text-anchor="start" x="508.5" y="-191" font-family="Helvetica,sans-Serif" font-size="10.00" fill="#000000">/home/runner/work/AliceO2</text>
<text text-anchor="start" x="508.5" y="-180" font-family="Helvetica,sans-Serif" font-size="10.00" fill="#000000">/AliceO2/Detectors/CPV</text>
<text text-anchor="middle" x="568" y="-169" font-family="Helvetica,sans-Serif" font-size="10.00" fill="#000000">/calib/src/CalibParams.cxx</text>
</a>
</g>
</g>
<!-- Node5&#45;&gt;Node9 -->
<g id="edge4" class="edge">
<title>Node5&#45;&gt;Node9</title>
<path fill="none" stroke="#191970" d="M682.982,-240.6878C659.1721,-228.6386 631.0667,-214.4156 608.603,-203.0476"/>
<polygon fill="#191970" stroke="#191970" points="681.7105,-243.967 692.2135,-245.3595 684.8713,-237.7213 681.7105,-243.967"/>
</g>
<!-- Node10 -->
<g id="node6" class="node">
<title>Node10</title>
<g id="a_node6"><a xlink:href="../../d2/dd9/CPV_2reconstruction_2src_2Clusterer_8cxx.html" target="_top" xlink:title="/home/runner/work/AliceO2\l/AliceO2/Detectors/CPV\l/reconstruction/src/Clusterer.cxx">
<polygon fill="none" stroke="#000000" points="653.5,-162 653.5,-203 812.5,-203 812.5,-162 653.5,-162"/>
<text text-anchor="start" x="661.5" y="-191" font-family="Helvetica,sans-Serif" font-size="10.00" fill="#000000">/home/runner/work/AliceO2</text>
<text text-anchor="start" x="661.5" y="-180" font-family="Helvetica,sans-Serif" font-size="10.00" fill="#000000">/AliceO2/Detectors/CPV</text>
<text text-anchor="middle" x="733" y="-169" font-family="Helvetica,sans-Serif" font-size="10.00" fill="#000000">/reconstruction/src/Clusterer.cxx</text>
</a>
</g>
</g>
<!-- Node5&#45;&gt;Node10 -->
<g id="edge5" class="edge">
<title>Node5&#45;&gt;Node10</title>
<path fill="none" stroke="#191970" d="M733,-235.1593C733,-224.5064 733,-212.8344 733,-203.1924"/>
<polygon fill="#191970" stroke="#191970" points="729.5001,-235.3595 733,-245.3595 736.5001,-235.3596 729.5001,-235.3595"/>
</g>
<!-- Node11 -->
<g id="node7" class="node">
<title>Node11</title>
<g id="a_node7"><a xlink:href="../../d9/d63/CPV_2reconstruction_2src_2FullCluster_8cxx.html" target="_top" xlink:title="/home/runner/work/AliceO2\l/AliceO2/Detectors/CPV\l/reconstruction/src/FullCluster.cxx">
<polygon fill="none" stroke="#000000" points="830.5,-162 830.5,-203 997.5,-203 997.5,-162 830.5,-162"/>
<text text-anchor="start" x="838.5" y="-191" font-family="Helvetica,sans-Serif" font-size="10.00" fill="#000000">/home/runner/work/AliceO2</text>
<text text-anchor="start" x="838.5" y="-180" font-family="Helvetica,sans-Serif" font-size="10.00" fill="#000000">/AliceO2/Detectors/CPV</text>
<text text-anchor="middle" x="914" y="-169" font-family="Helvetica,sans-Serif" font-size="10.00" fill="#000000">/reconstruction/src/FullCluster.cxx</text>
</a>
</g>
</g>
<!-- Node5&#45;&gt;Node11 -->
<g id="edge6" class="edge">
<title>Node5&#45;&gt;Node11</title>
<path fill="none" stroke="#191970" d="M786.8306,-241.1665C813.1674,-229.0167 844.4906,-214.5665 869.4598,-203.0476"/>
<polygon fill="#191970" stroke="#191970" points="785.3558,-237.9924 777.7416,-245.3595 788.2881,-244.3486 785.3558,-237.9924"/>
</g>
<!-- Node12 -->
<g id="node8" class="node">
<title>Node12</title>
<g id="a_node8"><a xlink:href="../../d4/d37/CPV_2simulation_2include_2CPVSimulation_2Digitizer_8h.html" target="_top" xlink:title="/home/runner/work/AliceO2\l/AliceO2/Detectors/CPV\l/simulation/include/CPVSimulation\l/Digitizer.h">
<polygon fill="none" stroke="#000000" points="1015.5,-156.5 1015.5,-208.5 1182.5,-208.5 1182.5,-156.5 1015.5,-156.5"/>
<text text-anchor="start" x="1023.5" y="-196.5" font-family="Helvetica,sans-Serif" font-size="10.00" fill="#000000">/home/runner/work/AliceO2</text>
<text text-anchor="start" x="1023.5" y="-185.5" font-family="Helvetica,sans-Serif" font-size="10.00" fill="#000000">/AliceO2/Detectors/CPV</text>
<text text-anchor="start" x="1023.5" y="-174.5" font-family="Helvetica,sans-Serif" font-size="10.00" fill="#000000">/simulation/include/CPVSimulation</text>
<text text-anchor="middle" x="1099" y="-163.5" font-family="Helvetica,sans-Serif" font-size="10.00" fill="#000000">/Digitizer.h</text>
</a>
</g>
</g>
<!-- Node5&#45;&gt;Node12 -->
<g id="edge7" class="edge">
<title>Node5&#45;&gt;Node12</title>
<path fill="none" stroke="#191970" d="M830.5856,-247.3912C882.8239,-236.9857 948.1451,-223.2631 1006,-209 1009.0971,-208.2365 1012.2467,-207.4403 1015.4241,-206.6205"/>
<polygon fill="#191970" stroke="#191970" points="829.782,-243.9823 820.654,-249.361 831.1439,-250.8486 829.782,-243.9823"/>
</g>
<!-- Node17 -->
<g id="node13" class="node">
<title>Node17</title>
<g id="a_node13"><a xlink:href="../../de/de0/CPV_2simulation_2src_2Detector_8cxx.html" target="_top" xlink:title="/home/runner/work/AliceO2\l/AliceO2/Detectors/CPV\l/simulation/src/Detector.cxx">
<polygon fill="none" stroke="#000000" points="1201,-162 1201,-203 1341,-203 1341,-162 1201,-162"/>
<text text-anchor="start" x="1209" y="-191" font-family="Helvetica,sans-Serif" font-size="10.00" fill="#000000">/home/runner/work/AliceO2</text>
<text text-anchor="start" x="1209" y="-180" font-family="Helvetica,sans-Serif" font-size="10.00" fill="#000000">/AliceO2/Detectors/CPV</text>
<text text-anchor="middle" x="1271" y="-169" font-family="Helvetica,sans-Serif" font-size="10.00" fill="#000000">/simulation/src/Detector.cxx</text>
</a>
</g>
</g>
<!-- Node5&#45;&gt;Node17 -->
<g id="edge13" class="edge">
<title>Node5&#45;&gt;Node17</title>
<path fill="none" stroke="#191970" d="M830.8301,-259.4076C924.2177,-251.806 1068.4495,-236.6423 1191,-209 1198.279,-207.3582 1205.8328,-205.3188 1213.263,-203.1054"/>
<polygon fill="#191970" stroke="#191970" points="830.5163,-255.9214 820.8277,-260.2086 831.0752,-262.8991 830.5163,-255.9214"/>
</g>
<!-- Node18 -->
<g id="node14" class="node">
<title>Node18</title>
<g id="a_node14"><a xlink:href="../../d9/dcc/CPV_2workflow_2include_2CPVWorkflow_2ClusterizerSpec_8h.html" target="_top" xlink:title="/home/runner/work/AliceO2\l/AliceO2/Detectors/CPV\l/workflow/include/CPVWorkflow\l/ClusterizerSpec.h">
<polygon fill="none" stroke="#000000" points="1359,-156.5 1359,-208.5 1517,-208.5 1517,-156.5 1359,-156.5"/>
<text text-anchor="start" x="1367" y="-196.5" font-family="Helvetica,sans-Serif" font-size="10.00" fill="#000000">/home/runner/work/AliceO2</text>
<text text-anchor="start" x="1367" y="-185.5" font-family="Helvetica,sans-Serif" font-size="10.00" fill="#000000">/AliceO2/Detectors/CPV</text>
<text text-anchor="start" x="1367" y="-174.5" font-family="Helvetica,sans-Serif" font-size="10.00" fill="#000000">/workflow/include/CPVWorkflow</text>
<text text-anchor="middle" x="1438" y="-163.5" font-family="Helvetica,sans-Serif" font-size="10.00" fill="#000000">/ClusterizerSpec.h</text>
</a>
</g>
</g>
<!-- Node5&#45;&gt;Node18 -->
<g id="edge14" class="edge">
<title>Node5&#45;&gt;Node18</title>
<path fill="none" stroke="#191970" d="M830.7299,-263.0098C953.1098,-257.8866 1168.7277,-244.2967 1350,-209 1352.819,-208.4511 1355.6767,-207.8484 1358.5536,-207.2021"/>
<polygon fill="#191970" stroke="#191970" points="830.4814,-259.5169 820.6325,-263.4221 830.7671,-266.5111 830.4814,-259.5169"/>
</g>
<!-- Node13 -->
<g id="node9" class="node">
<title>Node13</title>
<g id="a_node9"><a xlink:href="../../d3/d11/CPV_2simulation_2src_2Digitizer_8cxx.html" target="_top" xlink:title="/home/runner/work/AliceO2\l/AliceO2/Detectors/CPV\l/simulation/src/Digitizer.cxx">
<polygon fill="none" stroke="#000000" points="933,-78.5 933,-119.5 1071,-119.5 1071,-78.5 933,-78.5"/>
<text text-anchor="start" x="941" y="-107.5" font-family="Helvetica,sans-Serif" font-size="10.00" fill="#000000">/home/runner/work/AliceO2</text>
<text text-anchor="start" x="941" y="-96.5" font-family="Helvetica,sans-Serif" font-size="10.00" fill="#000000">/AliceO2/Detectors/CPV</text>
<text text-anchor="middle" x="1002" y="-85.5" font-family="Helvetica,sans-Serif" font-size="10.00" fill="#000000">/simulation/src/Digitizer.cxx</text>
</a>
</g>
</g>
<!-- Node12&#45;&gt;Node13 -->
<g id="edge8" class="edge">
<title>Node12&#45;&gt;Node13</title>
<path fill="none" stroke="#191970" d="M1060.9585,-149.753C1049.1298,-139.5705 1036.4296,-128.6378 1025.857,-119.5367"/>
<polygon fill="#191970" stroke="#191970" points="1058.7125,-152.4377 1068.5747,-156.3092 1063.2794,-147.1326 1058.7125,-152.4377"/>
</g>
<!-- Node14 -->
<g id="node10" class="node">
<title>Node14</title>
<g id="a_node10"><a xlink:href="../../d1/d37/CPVDigitizerSpec_8h.html" target="_top" xlink:title="/home/runner/work/AliceO2\l/AliceO2/Steer/DigitizerWorkflow\l/src/CPVDigitizerSpec.h">
<polygon fill="none" stroke="#000000" points="1127.5,-78.5 1127.5,-119.5 1288.5,-119.5 1288.5,-78.5 1127.5,-78.5"/>
<text text-anchor="start" x="1135.5" y="-107.5" font-family="Helvetica,sans-Serif" font-size="10.00" fill="#000000">/home/runner/work/AliceO2</text>
<text text-anchor="start" x="1135.5" y="-96.5" font-family="Helvetica,sans-Serif" font-size="10.00" fill="#000000">/AliceO2/Steer/DigitizerWorkflow</text>
<text text-anchor="middle" x="1208" y="-85.5" font-family="Helvetica,sans-Serif" font-size="10.00" fill="#000000">/src/CPVDigitizerSpec.h</text>
</a>
</g>
</g>
<!-- Node12&#45;&gt;Node14 -->
<g id="edge9" class="edge">
<title>Node12&#45;&gt;Node14</title>
<path fill="none" stroke="#191970" d="M1141.3681,-150.0437C1154.7677,-139.7789 1169.198,-128.7245 1181.1916,-119.5367"/>
<polygon fill="#191970" stroke="#191970" points="1138.9992,-147.4494 1133.1892,-156.3092 1143.2561,-153.0063 1138.9992,-147.4494"/>
</g>
<!-- Node15 -->
<g id="node11" class="node">
<title>Node15</title>
<g id="a_node11"><a xlink:href="../../da/dfe/CPVDigitizerSpec_8cxx.html" target="_top" xlink:title="/home/runner/work/AliceO2\l/AliceO2/Steer/DigitizerWorkflow\l/src/CPVDigitizerSpec.cxx">
<polygon fill="none" stroke="#000000" points="1018.5,-.5 1018.5,-41.5 1179.5,-41.5 1179.5,-.5 1018.5,-.5"/>
<text text-anchor="start" x="1026.5" y="-29.5" font-family="Helvetica,sans-Serif" font-size="10.00" fill="#000000">/home/runner/work/AliceO2</text>
<text text-anchor="start" x="1026.5" y="-18.5" font-family="Helvetica,sans-Serif" font-size="10.00" fill="#000000">/AliceO2/Steer/DigitizerWorkflow</text>
<text text-anchor="middle" x="1099" y="-7.5" font-family="Helvetica,sans-Serif" font-size="10.00" fill="#000000">/src/CPVDigitizerSpec.cxx</text>
</a>
</g>
</g>
<!-- Node12&#45;&gt;Node15 -->
<g id="edge12" class="edge">
<title>Node12&#45;&gt;Node15</title>
<path fill="none" stroke="#191970" d="M1099,-145.8303C1099,-113.6074 1099,-67.8818 1099,-41.6502"/>
<polygon fill="#191970" stroke="#191970" points="1095.5001,-146.1928 1099,-156.1928 1102.5001,-146.1928 1095.5001,-146.1928"/>
</g>
<!-- Node14&#45;&gt;Node15 -->
<g id="edge10" class="edge">
<title>Node14&#45;&gt;Node15</title>
<path fill="none" stroke="#191970" d="M1170.5867,-72.2272C1156.541,-62.1761 1140.8108,-50.9196 1127.6808,-41.5239"/>
<polygon fill="#191970" stroke="#191970" points="1168.907,-75.329 1179.0762,-78.3022 1172.9807,-69.6364 1168.907,-75.329"/>
</g>
<!-- Node16 -->
<g id="node12" class="node">
<title>Node16</title>
<g id="a_node12"><a xlink:href="../../d2/dd7/SimpleDigitizerWorkflow_8cxx.html" target="_top" xlink:title="/home/runner/work/AliceO2\l/AliceO2/Steer/DigitizerWorkflow\l/src/SimpleDigitizerWorkflow.cxx">
<polygon fill="none" stroke="#000000" points="1198,-.5 1198,-41.5 1360,-41.5 1360,-.5 1198,-.5"/>
<text text-anchor="start" x="1206" y="-29.5" font-family="Helvetica,sans-Serif" font-size="10.00" fill="#000000">/home/runner/work/AliceO2</text>
<text text-anchor="start" x="1206" y="-18.5" font-family="Helvetica,sans-Serif" font-size="10.00" fill="#000000">/AliceO2/Steer/DigitizerWorkflow</text>
<text text-anchor="middle" x="1279" y="-7.5" font-family="Helvetica,sans-Serif" font-size="10.00" fill="#000000">/src/SimpleDigitizerWorkflow.cxx</text>
</a>
</g>
</g>
<!-- Node14&#45;&gt;Node16 -->
<g id="edge11" class="edge">
<title>Node14&#45;&gt;Node16</title>
<path fill="none" stroke="#191970" d="M1233.7959,-70.6609C1242.5185,-61.0783 1252.0877,-50.5657 1260.167,-41.6898"/>
<polygon fill="#191970" stroke="#191970" points="1231.1699,-68.3463 1227.0267,-78.0974 1236.3465,-73.0583 1231.1699,-68.3463"/>
</g>
<!-- Node19 -->
<g id="node15" class="node">
<title>Node19</title>
<g id="a_node15"><a xlink:href="../../da/d39/CPV_2workflow_2src_2ClusterizerSpec_8cxx.html" target="_top" xlink:title="/home/runner/work/AliceO2\l/AliceO2/Detectors/CPV\l/workflow/src/ClusterizerSpec.cxx">
<polygon fill="none" stroke="#000000" points="1330.5,-78.5 1330.5,-119.5 1497.5,-119.5 1497.5,-78.5 1330.5,-78.5"/>
<text text-anchor="start" x="1338.5" y="-107.5" font-family="Helvetica,sans-Serif" font-size="10.00" fill="#000000">/home/runner/work/AliceO2</text>
<text text-anchor="start" x="1338.5" y="-96.5" font-family="Helvetica,sans-Serif" font-size="10.00" fill="#000000">/AliceO2/Detectors/CPV</text>
<text text-anchor="middle" x="1414" y="-85.5" font-family="Helvetica,sans-Serif" font-size="10.00" fill="#000000">/workflow/src/ClusterizerSpec.cxx</text>
</a>
</g>
</g>
<!-- Node18&#45;&gt;Node19 -->
<g id="edge15" class="edge">
<title>Node18&#45;&gt;Node19</title>
<path fill="none" stroke="#191970" d="M1427.624,-146.4002C1424.9993,-137.2685 1422.2691,-127.7695 1419.948,-119.6941"/>
<polygon fill="#191970" stroke="#191970" points="1424.28,-147.4361 1430.4063,-156.0801 1431.0076,-145.5023 1424.28,-147.4361"/>
</g>
<!-- Node20 -->
<g id="node16" class="node">
<title>Node20</title>
<g id="a_node16"><a xlink:href="../../dd/d16/CPV_2workflow_2src_2RecoWorkflow_8cxx.html" target="_top" xlink:title="/home/runner/work/AliceO2\l/AliceO2/Detectors/CPV\l/workflow/src/RecoWorkflow.cxx">
<polygon fill="none" stroke="#000000" points="1515.5,-78.5 1515.5,-119.5 1676.5,-119.5 1676.5,-78.5 1515.5,-78.5"/>
<text text-anchor="start" x="1523.5" y="-107.5" font-family="Helvetica,sans-Serif" font-size="10.00" fill="#000000">/home/runner/work/AliceO2</text>
<text text-anchor="start" x="1523.5" y="-96.5" font-family="Helvetica,sans-Serif" font-size="10.00" fill="#000000">/AliceO2/Detectors/CPV</text>
<text text-anchor="middle" x="1596" y="-85.5" font-family="Helvetica,sans-Serif" font-size="10.00" fill="#000000">/workflow/src/RecoWorkflow.cxx</text>
</a>
</g>
</g>
<!-- Node18&#45;&gt;Node20 -->
<g id="edge16" class="edge">
<title>Node18&#45;&gt;Node20</title>
<path fill="none" stroke="#191970" d="M1496.4037,-151.6347C1516.6574,-140.9311 1538.8528,-129.2012 1557.1402,-119.5367"/>
<polygon fill="#191970" stroke="#191970" points="1494.7646,-148.5422 1487.5587,-156.3092 1498.0353,-154.7311 1494.7646,-148.5422"/>
</g>
</g>
</svg>
