<?xml version="1.0" encoding="UTF-8" standalone="no"?>
<!DOCTYPE svg PUBLIC "-//W3C//DTD SVG 1.1//EN"
 "http://www.w3.org/Graphics/SVG/1.1/DTD/svg11.dtd">
<!-- Generated by graphviz version 2.40.1 (20161225.0304)
 -->
<!-- Title: /home/runner/work/AliceO2/AliceO2/Detectors/MUON/MID/Raw/src/LocalBoardRO.cxx Pages: 1 -->
<svg width="459pt" height="162pt"
 viewBox="0.00 0.00 458.50 162.00" xmlns="http://www.w3.org/2000/svg" xmlns:xlink="http://www.w3.org/1999/xlink">
<g id="graph0" class="graph" transform="scale(1 1) rotate(0) translate(4 158)">
<title>/home/runner/work/AliceO2/AliceO2/Detectors/MUON/MID/Raw/src/LocalBoardRO.cxx</title>
<!-- Node0 -->
<g id="node1" class="node">
<title>Node0</title>
<polygon fill="#bfbfbf" stroke="#000000" points="197.5,-112.5 197.5,-153.5 361.5,-153.5 361.5,-112.5 197.5,-112.5"/>
<text text-anchor="start" x="205.5" y="-141.5" font-family="Helvetica,sans-Serif" font-size="10.00" fill="#000000">/home/runner/work/AliceO2</text>
<text text-anchor="start" x="205.5" y="-130.5" font-family="Helvetica,sans-Serif" font-size="10.00" fill="#000000">/AliceO2/Detectors/MUON</text>
<text text-anchor="middle" x="279.5" y="-119.5" font-family="Helvetica,sans-Serif" font-size="10.00" fill="#000000">/MID/Raw/src/LocalBoardRO.cxx</text>
</g>
<!-- Node1 -->
<g id="node2" class="node">
<title>Node1</title>
<g id="a_node2"><a xlink:href="../../d3/d4a/LocalBoardRO_8h.html" target="_top" xlink:title="Structure to store the FEE local board information. ">
<polygon fill="none" stroke="#000000" points="159,-56.5 159,-75.5 290,-75.5 290,-56.5 159,-56.5"/>
<text text-anchor="middle" x="224.5" y="-63.5" font-family="Helvetica,sans-Serif" font-size="10.00" fill="#000000">MIDRaw/LocalBoardRO.h</text>
</a>
</g>
</g>
<!-- Node0&#45;&gt;Node1 -->
<g id="edge1" class="edge">
<title>Node0&#45;&gt;Node1</title>
<path fill="none" stroke="#191970" d="M262.3991,-112.168C254.9256,-103.0639 246.2504,-92.4959 239.0873,-83.7699"/>
<polygon fill="#191970" stroke="#191970" points="241.579,-81.289 232.5287,-75.7805 236.1685,-85.7305 241.579,-81.289"/>
</g>
<!-- Node5 -->
<g id="node6" class="node">
<title>Node5</title>
<polygon fill="none" stroke="#bfbfbf" points="308.5,-56.5 308.5,-75.5 362.5,-75.5 362.5,-56.5 308.5,-56.5"/>
<text text-anchor="middle" x="335.5" y="-63.5" font-family="Helvetica,sans-Serif" font-size="10.00" fill="#000000">iostream</text>
</g>
<!-- Node0&#45;&gt;Node5 -->
<g id="edge5" class="edge">
<title>Node0&#45;&gt;Node5</title>
<path fill="none" stroke="#191970" d="M296.9118,-112.168C304.6005,-102.9691 313.5383,-92.2756 320.8749,-83.4979"/>
<polygon fill="#191970" stroke="#191970" points="323.5976,-85.6979 327.3253,-75.7805 318.2266,-81.2087 323.5976,-85.6979"/>
</g>
<!-- Node6 -->
<g id="node7" class="node">
<title>Node6</title>
<polygon fill="none" stroke="#bfbfbf" points="380.5,-56.5 380.5,-75.5 450.5,-75.5 450.5,-56.5 380.5,-56.5"/>
<text text-anchor="middle" x="415.5" y="-63.5" font-family="Helvetica,sans-Serif" font-size="10.00" fill="#000000">fmt/format.h</text>
</g>
<!-- Node0&#45;&gt;Node6 -->
<g id="edge6" class="edge">
<title>Node0&#45;&gt;Node6</title>
<path fill="none" stroke="#191970" d="M321.4142,-112.3511C342.646,-101.8913 367.8769,-89.4614 386.8634,-80.1077"/>
<polygon fill="#191970" stroke="#191970" points="388.4788,-83.2137 395.9025,-75.6546 385.3852,-76.9343 388.4788,-83.2137"/>
</g>
<!-- Node7 -->
<g id="node8" class="node">
<title>Node7</title>
<g id="a_node8"><a xlink:href="../../d2/da5/CrateParameters_8h.html" target="_top" xlink:title="MID RO crate parameters. ">
<polygon fill="none" stroke="#000000" points="0,-56.5 0,-75.5 141,-75.5 141,-56.5 0,-56.5"/>
<text text-anchor="middle" x="70.5" y="-63.5" font-family="Helvetica,sans-Serif" font-size="10.00" fill="#000000">MIDRaw/CrateParameters.h</text>
</a>
</g>
</g>
<!-- Node0&#45;&gt;Node7 -->
<g id="edge7" class="edge">
<title>Node0&#45;&gt;Node7</title>
<path fill="none" stroke="#191970" d="M215.3728,-112.4425C180.8747,-101.3833 139.44,-88.1004 109.7363,-78.5781"/>
<polygon fill="#191970" stroke="#191970" points="110.7307,-75.2215 100.1396,-75.5017 108.5938,-81.8874 110.7307,-75.2215"/>
</g>
<!-- Node2 -->
<g id="node3" class="node">
<title>Node2</title>
<polygon fill="none" stroke="#bfbfbf" points="130.5,-.5 130.5,-19.5 176.5,-19.5 176.5,-.5 130.5,-.5"/>
<text text-anchor="middle" x="153.5" y="-7.5" font-family="Helvetica,sans-Serif" font-size="10.00" fill="#000000">cstdint</text>
</g>
<!-- Node1&#45;&gt;Node2 -->
<g id="edge2" class="edge">
<title>Node1&#45;&gt;Node2</title>
<path fill="none" stroke="#191970" d="M212.1327,-56.2455C201.5446,-47.8943 186.0936,-35.7076 173.7107,-25.9408"/>
<polygon fill="#191970" stroke="#191970" points="175.7447,-23.0875 165.7255,-19.6427 171.4097,-28.5837 175.7447,-23.0875"/>
</g>
<!-- Node3 -->
<g id="node4" class="node">
<title>Node3</title>
<polygon fill="none" stroke="#bfbfbf" points="59.5,-.5 59.5,-19.5 97.5,-19.5 97.5,-.5 59.5,-.5"/>
<text text-anchor="middle" x="78.5" y="-7.5" font-family="Helvetica,sans-Serif" font-size="10.00" fill="#000000">array</text>
</g>
<!-- Node1&#45;&gt;Node3 -->
<g id="edge3" class="edge">
<title>Node1&#45;&gt;Node3</title>
<path fill="none" stroke="#191970" d="M199.4017,-56.3733C173.8094,-46.557 134.1541,-31.3468 107.2988,-21.0461"/>
<polygon fill="#191970" stroke="#191970" points="108.2791,-17.6736 97.6889,-17.3601 105.7723,-24.2093 108.2791,-17.6736"/>
</g>
<!-- Node4 -->
<g id="node5" class="node">
<title>Node4</title>
<polygon fill="none" stroke="#bfbfbf" points="202,-.5 202,-19.5 247,-19.5 247,-.5 202,-.5"/>
<text text-anchor="middle" x="224.5" y="-7.5" font-family="Helvetica,sans-Serif" font-size="10.00" fill="#000000">iosfwd</text>
</g>
<!-- Node1&#45;&gt;Node4 -->
<g id="edge4" class="edge">
<title>Node1&#45;&gt;Node4</title>
<path fill="none" stroke="#191970" d="M224.5,-56.2455C224.5,-48.9382 224.5,-38.6944 224.5,-29.7046"/>
<polygon fill="#191970" stroke="#191970" points="228.0001,-29.6426 224.5,-19.6427 221.0001,-29.6427 228.0001,-29.6426"/>
</g>
<!-- Node7&#45;&gt;Node2 -->
<g id="edge8" class="edge">
<title>Node7&#45;&gt;Node2</title>
<path fill="none" stroke="#191970" d="M84.9575,-56.2455C97.5732,-47.7337 116.0944,-35.2375 130.7045,-25.3801"/>
<polygon fill="#191970" stroke="#191970" points="132.8761,-28.1371 139.2082,-19.6427 128.9609,-22.3343 132.8761,-28.1371"/>
</g>
<!-- Node7&#45;&gt;Node3 -->
<g id="edge9" class="edge">
<title>Node7&#45;&gt;Node3</title>
<path fill="none" stroke="#191970" d="M71.8935,-56.2455C72.9374,-48.9382 74.4008,-38.6944 75.6851,-29.7046"/>
<polygon fill="#191970" stroke="#191970" points="79.173,-30.0372 77.1225,-19.6427 72.2434,-29.0472 79.173,-30.0372"/>
</g>
</g>
</svg>
