<?xml version="1.0" encoding="UTF-8" standalone="no"?>
<!DOCTYPE svg PUBLIC "-//W3C//DTD SVG 1.1//EN"
 "http://www.w3.org/Graphics/SVG/1.1/DTD/svg11.dtd">
<!-- Generated by graphviz version 2.40.1 (20161225.0304)
 -->
<!-- Title: /home/runner/work/AliceO2/AliceO2/Detectors/ZDC/base/src/ModuleConfig.cxx Pages: 1 -->
<!--zoomable 218 -->
<svg id="main" version="1.1" xmlns="http://www.w3.org/2000/svg" xmlns:xlink="http://www.w3.org/1999/xlink" xml:space="preserve" onload="init(evt)">
<style type="text/css"><![CDATA[
.edge:hover path { stroke: red; }
.edge:hover polygon { stroke: red; fill: red; }
]]></style>
<script type="text/javascript"><![CDATA[
var edges = document.getElementsByTagName('g');
if (edges && edges.length) {
  for (var i=0;i<edges.length;i++) {
    if (edges[i].id.substr(0,4)=='edge') {
      edges[i].setAttribute('class','edge');
    }
  }
}
]]></script>
        <defs>
                <circle id="rim" cx="0" cy="0" r="7"/>
                <circle id="rim2" cx="0" cy="0" r="3.5"/>
                <g id="zoomPlus">
                        <use xlink:href="#rim" fill="#404040">
                                <set attributeName="fill" to="#808080" begin="zoomplus.mouseover" end="zoomplus.mouseout"/>
                        </use>
                        <path d="M-4,0h8M0,-4v8" fill="none" stroke="white" stroke-width="1.5" pointer-events="none"/>
                </g>
                <g id="zoomMin">
                        <use xlink:href="#rim" fill="#404040">
                                <set attributeName="fill" to="#808080" begin="zoomminus.mouseover" end="zoomminus.mouseout"/>
                        </use>
                        <path d="M-4,0h8" fill="none" stroke="white" stroke-width="1.5" pointer-events="none"/>
                </g>
                <g id="dirArrow">
                        <path fill="none" stroke="white" stroke-width="1.5" d="M0,-3.0v7 M-2.5,-0.5L0,-3.0L2.5,-0.5"/>
                </g>
               <g id="resetDef">
                       <use xlink:href="#rim2" fill="#404040">
                               <set attributeName="fill" to="#808080" begin="reset.mouseover" end="reset.mouseout"/>
                       </use>
               </g>
        </defs>

<script type="text/javascript">
var viewWidth = 575;
var viewHeight = 218;
var sectionId = 'dynsection-0';
</script>
<script xlink:href="../../svgpan.js"/>
<svg id="graph" class="graph">
<g id="viewport">
<title>/home/runner/work/AliceO2/AliceO2/Detectors/ZDC/base/src/ModuleConfig.cxx</title>
<!-- Node0 -->
<g id="node1" class="node">
<title>Node0</title>
<polygon fill="#bfbfbf" stroke="#000000" points="402,-168.5 402,-209.5 541,-209.5 541,-168.5 402,-168.5"/>
<text text-anchor="start" x="410" y="-197.5" font-family="Helvetica,sans-Serif" font-size="10.00" fill="#000000">/home/runner/work/AliceO2</text>
<text text-anchor="start" x="410" y="-186.5" font-family="Helvetica,sans-Serif" font-size="10.00" fill="#000000">/AliceO2/Detectors/ZDC</text>
<text text-anchor="middle" x="471.5" y="-175.5" font-family="Helvetica,sans-Serif" font-size="10.00" fill="#000000">/base/src/ModuleConfig.cxx</text>
</g>
<!-- Node1 -->
<g id="node2" class="node">
<title>Node1</title>
<g id="a_node2"><a xlink:href="../../d4/d8c/ModuleConfig_8h.html" target="_top" xlink:title="ZDCBase/ModuleConfig.h">
<polygon fill="none" stroke="#000000" points="347,-112.5 347,-131.5 478,-131.5 478,-112.5 347,-112.5"/>
<text text-anchor="middle" x="412.5" y="-119.5" font-family="Helvetica,sans-Serif" font-size="10.00" fill="#000000">ZDCBase/ModuleConfig.h</text>
</a>
</g>
</g>
<!-- Node0&#45;&gt;Node1 -->
<g id="edge1" class="edge">
<title>Node0&#45;&gt;Node1</title>
<path fill="none" stroke="#191970" d="M453.1554,-168.168C445.0549,-158.9691 435.6382,-148.2756 427.9086,-139.4979"/>
<polygon fill="#191970" stroke="#191970" points="430.3482,-136.9723 421.1127,-131.7805 425.0948,-141.5985 430.3482,-136.9723"/>
</g>
<!-- Node10 -->
<g id="node11" class="node">
<title>Node10</title>
<polygon fill="none" stroke="#bfbfbf" points="496,-112.5 496,-131.5 567,-131.5 567,-112.5 496,-112.5"/>
<text text-anchor="middle" x="531.5" y="-119.5" font-family="Helvetica,sans-Serif" font-size="10.00" fill="#000000">FairLogger.h</text>
</g>
<!-- Node0&#45;&gt;Node10 -->
<g id="edge10" class="edge">
<title>Node0&#45;&gt;Node10</title>
<path fill="none" stroke="#191970" d="M490.1555,-168.168C498.3934,-158.9691 507.9696,-148.2756 515.8303,-139.4979"/>
<polygon fill="#191970" stroke="#191970" points="518.6775,-141.5649 522.7414,-131.7805 513.4628,-136.8951 518.6775,-141.5649"/>
</g>
<!-- Node2 -->
<g id="node3" class="node">
<title>Node2</title>
<g id="a_node3"><a xlink:href="../../d3/dd7/Detectors_2ZDC_2base_2include_2ZDCBase_2Constants_8h.html" target="_top" xlink:title="ZDCBase/Constants.h">
<polygon fill="none" stroke="#000000" points="250.5,-56.5 250.5,-75.5 366.5,-75.5 366.5,-56.5 250.5,-56.5"/>
<text text-anchor="middle" x="308.5" y="-63.5" font-family="Helvetica,sans-Serif" font-size="10.00" fill="#000000">ZDCBase/Constants.h</text>
</a>
</g>
</g>
<!-- Node1&#45;&gt;Node2 -->
<g id="edge2" class="edge">
<title>Node1&#45;&gt;Node2</title>
<path fill="none" stroke="#191970" d="M394.3846,-112.2455C378.055,-103.4527 353.829,-90.4079 335.2661,-80.4125"/>
<polygon fill="#191970" stroke="#191970" points="336.8719,-77.3021 326.4078,-75.6427 333.5532,-83.4654 336.8719,-77.3021"/>
</g>
<!-- Node8 -->
<g id="node9" class="node">
<title>Node8</title>
<polygon fill="none" stroke="#bfbfbf" points="384.5,-56.5 384.5,-75.5 440.5,-75.5 440.5,-56.5 384.5,-56.5"/>
<text text-anchor="middle" x="412.5" y="-63.5" font-family="Helvetica,sans-Serif" font-size="10.00" fill="#000000">Rtypes.h</text>
</g>
<!-- Node1&#45;&gt;Node8 -->
<g id="edge8" class="edge">
<title>Node1&#45;&gt;Node8</title>
<path fill="none" stroke="#191970" d="M412.5,-112.2455C412.5,-104.9382 412.5,-94.6944 412.5,-85.7046"/>
<polygon fill="#191970" stroke="#191970" points="416.0001,-85.6426 412.5,-75.6427 409.0001,-85.6427 416.0001,-85.6426"/>
</g>
<!-- Node9 -->
<g id="node10" class="node">
<title>Node9</title>
<polygon fill="none" stroke="#bfbfbf" points="458.5,-56.5 458.5,-75.5 496.5,-75.5 496.5,-56.5 458.5,-56.5"/>
<text text-anchor="middle" x="477.5" y="-63.5" font-family="Helvetica,sans-Serif" font-size="10.00" fill="#000000">array</text>
</g>
<!-- Node1&#45;&gt;Node9 -->
<g id="edge9" class="edge">
<title>Node1&#45;&gt;Node9</title>
<path fill="none" stroke="#191970" d="M423.8221,-112.2455C433.4223,-103.9746 447.3892,-91.9416 458.6695,-82.2232"/>
<polygon fill="#191970" stroke="#191970" points="461.016,-84.8214 466.3076,-75.6427 456.447,-79.5182 461.016,-84.8214"/>
</g>
<!-- Node3 -->
<g id="node4" class="node">
<title>Node3</title>
<g id="a_node4"><a xlink:href="../../d3/d9d/PhysicsConstants_8h.html" target="_top" xlink:title="Header to collect physics constants. ">
<polygon fill="none" stroke="#000000" points="0,-.5 0,-19.5 193,-19.5 193,-.5 0,-.5"/>
<text text-anchor="middle" x="96.5" y="-7.5" font-family="Helvetica,sans-Serif" font-size="10.00" fill="#000000">CommonConstants/PhysicsConstants.h</text>
</a>
</g>
</g>
<!-- Node2&#45;&gt;Node3 -->
<g id="edge3" class="edge">
<title>Node2&#45;&gt;Node3</title>
<path fill="none" stroke="#191970" d="M272.0559,-56.3733C236.1931,-46.9001 181.3122,-32.4032 142.4718,-22.1435"/>
<polygon fill="#191970" stroke="#191970" points="143.0308,-18.6712 132.4685,-19.5011 141.243,-25.439 143.0308,-18.6712"/>
</g>
<!-- Node4 -->
<g id="node5" class="node">
<title>Node4</title>
<polygon fill="none" stroke="#bfbfbf" points="211.5,-.5 211.5,-19.5 257.5,-19.5 257.5,-.5 211.5,-.5"/>
<text text-anchor="middle" x="234.5" y="-7.5" font-family="Helvetica,sans-Serif" font-size="10.00" fill="#000000">cstdint</text>
</g>
<!-- Node2&#45;&gt;Node4 -->
<g id="edge4" class="edge">
<title>Node2&#45;&gt;Node4</title>
<path fill="none" stroke="#191970" d="M295.6102,-56.2455C284.5746,-47.8943 268.4708,-35.7076 255.5647,-25.9408"/>
<polygon fill="#191970" stroke="#191970" points="257.3283,-22.8862 247.2421,-19.6427 253.1041,-28.4681 257.3283,-22.8862"/>
</g>
<!-- Node5 -->
<g id="node6" class="node">
<title>Node5</title>
<polygon fill="none" stroke="#bfbfbf" points="275.5,-.5 275.5,-19.5 341.5,-19.5 341.5,-.5 275.5,-.5"/>
<text text-anchor="middle" x="308.5" y="-7.5" font-family="Helvetica,sans-Serif" font-size="10.00" fill="#000000">string_view</text>
</g>
<!-- Node2&#45;&gt;Node5 -->
<g id="edge5" class="edge">
<title>Node2&#45;&gt;Node5</title>
<path fill="none" stroke="#191970" d="M308.5,-56.2455C308.5,-48.9382 308.5,-38.6944 308.5,-29.7046"/>
<polygon fill="#191970" stroke="#191970" points="312.0001,-29.6426 308.5,-19.6427 305.0001,-29.6427 312.0001,-29.6426"/>
</g>
<!-- Node6 -->
<g id="node7" class="node">
<title>Node6</title>
<polygon fill="none" stroke="#bfbfbf" points="360,-.5 360,-19.5 401,-19.5 401,-.5 360,-.5"/>
<text text-anchor="middle" x="380.5" y="-7.5" font-family="Helvetica,sans-Serif" font-size="10.00" fill="#000000">string</text>
</g>
<!-- Node2&#45;&gt;Node6 -->
<g id="edge6" class="edge">
<title>Node2&#45;&gt;Node6</title>
<path fill="none" stroke="#191970" d="M321.0414,-56.2455C331.7787,-47.8943 347.4473,-35.7076 360.0047,-25.9408"/>
<polygon fill="#191970" stroke="#191970" points="362.3575,-28.5449 368.1023,-19.6427 358.0599,-23.0194 362.3575,-28.5449"/>
</g>
<!-- Node7 -->
<g id="node8" class="node">
<title>Node7</title>
<polygon fill="none" stroke="#bfbfbf" points="419.5,-.5 419.5,-19.5 481.5,-19.5 481.5,-.5 419.5,-.5"/>
<text text-anchor="middle" x="450.5" y="-7.5" font-family="Helvetica,sans-Serif" font-size="10.00" fill="#000000">type_traits</text>
</g>
<!-- Node2&#45;&gt;Node7 -->
<g id="edge7" class="edge">
<title>Node2&#45;&gt;Node7</title>
<path fill="none" stroke="#191970" d="M332.9107,-56.3733C356.1142,-47.2226 391.2038,-33.3844 417.0142,-23.2057"/>
<polygon fill="#191970" stroke="#191970" points="418.3892,-26.4258 426.4079,-19.5011 415.8211,-19.9139 418.3892,-26.4258"/>
</g>
</g>
</svg>
        <g id="navigator" transform="translate(0 0)" fill="#404254">
                <rect fill="#f2f5e9" fill-opacity="0.5" stroke="#606060" stroke-width=".5" x="0" y="0" width="60" height="60"/>
                <use id="zoomplus" xlink:href="#zoomPlus" x="17" y="9" onmousedown="handleZoom(evt,'in')"/>
                <use id="zoomminus" xlink:href="#zoomMin" x="42" y="9" onmousedown="handleZoom(evt,'out')"/>
                <use id="reset" xlink:href="#resetDef" x="30" y="36" onmousedown="handleReset()"/>
                <g id="arrowUp" xlink:href="#dirArrow" transform="translate(30 24)" onmousedown="handlePan(0,-1)">
                  <use xlink:href="#rim" fill="#404040">
                        <set attributeName="fill" to="#808080" begin="arrowUp.mouseover" end="arrowUp.mouseout"/>
                  </use>
                  <path fill="none" stroke="white" stroke-width="1.5" d="M0,-3.0v7 M-2.5,-0.5L0,-3.0L2.5,-0.5"/>
                </g>
                <g id="arrowRight" xlink:href="#dirArrow" transform="rotate(90) translate(36 -43)" onmousedown="handlePan(1,0)">
                  <use xlink:href="#rim" fill="#404040">
                        <set attributeName="fill" to="#808080" begin="arrowRight.mouseover" end="arrowRight.mouseout"/>
                  </use>
                  <path fill="none" stroke="white" stroke-width="1.5" d="M0,-3.0v7 M-2.5,-0.5L0,-3.0L2.5,-0.5"/>
                </g>
                <g id="arrowDown" xlink:href="#dirArrow" transform="rotate(180) translate(-30 -48)" onmousedown="handlePan(0,1)">
                  <use xlink:href="#rim" fill="#404040">
                        <set attributeName="fill" to="#808080" begin="arrowDown.mouseover" end="arrowDown.mouseout"/>
                  </use>
                  <path fill="none" stroke="white" stroke-width="1.5" d="M0,-3.0v7 M-2.5,-0.5L0,-3.0L2.5,-0.5"/>
                </g>
                <g id="arrowLeft" xlink:href="#dirArrow" transform="rotate(270) translate(-36 17)" onmousedown="handlePan(-1,0)">
                  <use xlink:href="#rim" fill="#404040">
                        <set attributeName="fill" to="#808080" begin="arrowLeft.mouseover" end="arrowLeft.mouseout"/>
                  </use>
                  <path fill="none" stroke="white" stroke-width="1.5" d="M0,-3.0v7 M-2.5,-0.5L0,-3.0L2.5,-0.5"/>
                </g>
        </g>
        <svg viewBox="0 0 15 15" width="100%" height="30px" preserveAspectRatio="xMaxYMin meet">
         <g id="arrow_out" transform="scale(0.3 0.3)">
          <a xlink:href="ModuleConfig_8cxx__incl_org.svg" target="_base">
           <rect id="button" ry="5" rx="5" y="6" x="6" height="38" width="38"
                fill="#f2f5e9" fill-opacity="0.5" stroke="#606060" stroke-width="1.0"/>
           <path id="arrow"
             d="M 11.500037,31.436501 C 11.940474,20.09759 22.043105,11.32322 32.158766,21.979434 L 37.068811,17.246167 C 37.068811,17.246167 37.088388,32 37.088388,32 L 22.160133,31.978069 C 22.160133,31.978069 26.997745,27.140456 26.997745,27.140456 C 18.528582,18.264221 13.291696,25.230495 11.500037,31.436501 z"
             style="fill:#404040;"/>
          </a>
         </g>
        </svg>
</svg>
