<?xml version="1.0" encoding="UTF-8" standalone="no"?>
<!DOCTYPE svg PUBLIC "-//W3C//DTD SVG 1.1//EN"
 "http://www.w3.org/Graphics/SVG/1.1/DTD/svg11.dtd">
<!-- Generated by graphviz version 2.40.1 (20161225.0304)
 -->
<!-- Title: /home/runner/work/AliceO2/AliceO2/Detectors/TPC/calibration/include/TPCCalibration/CalibRawBase.h Pages: 1 -->
<svg width="1085pt" height="228pt"
 viewBox="0.00 0.00 1084.50 228.00" xmlns="http://www.w3.org/2000/svg" xmlns:xlink="http://www.w3.org/1999/xlink">
<g id="graph0" class="graph" transform="scale(1 1) rotate(0) translate(4 224)">
<title>/home/runner/work/AliceO2/AliceO2/Detectors/TPC/calibration/include/TPCCalibration/CalibRawBase.h</title>
<!-- Node87 -->
<g id="node1" class="node">
<title>Node87</title>
<polygon fill="#bfbfbf" stroke="#000000" points="544.5,-167.5 544.5,-219.5 711.5,-219.5 711.5,-167.5 544.5,-167.5"/>
<text text-anchor="start" x="552.5" y="-207.5" font-family="Helvetica,sans-Serif" font-size="10.00" fill="#000000">/home/runner/work/AliceO2</text>
<text text-anchor="start" x="552.5" y="-196.5" font-family="Helvetica,sans-Serif" font-size="10.00" fill="#000000">/AliceO2/Detectors/TPC</text>
<text text-anchor="start" x="552.5" y="-185.5" font-family="Helvetica,sans-Serif" font-size="10.00" fill="#000000">/calibration/include/TPCCalibration</text>
<text text-anchor="middle" x="628" y="-174.5" font-family="Helvetica,sans-Serif" font-size="10.00" fill="#000000">/CalibRawBase.h</text>
</g>
<!-- Node88 -->
<g id="node2" class="node">
<title>Node88</title>
<g id="a_node2"><a xlink:href="../../da/df1/CalibPedestal_8h.html" target="_top" xlink:title="/home/runner/work/AliceO2\l/AliceO2/Detectors/TPC\l/calibration/include/TPCCalibration\l/CalibPedestal.h">
<polygon fill="none" stroke="#000000" points="174.5,-78.5 174.5,-130.5 341.5,-130.5 341.5,-78.5 174.5,-78.5"/>
<text text-anchor="start" x="182.5" y="-118.5" font-family="Helvetica,sans-Serif" font-size="10.00" fill="#000000">/home/runner/work/AliceO2</text>
<text text-anchor="start" x="182.5" y="-107.5" font-family="Helvetica,sans-Serif" font-size="10.00" fill="#000000">/AliceO2/Detectors/TPC</text>
<text text-anchor="start" x="182.5" y="-96.5" font-family="Helvetica,sans-Serif" font-size="10.00" fill="#000000">/calibration/include/TPCCalibration</text>
<text text-anchor="middle" x="258" y="-85.5" font-family="Helvetica,sans-Serif" font-size="10.00" fill="#000000">/CalibPedestal.h</text>
</a>
</g>
</g>
<!-- Node87&#45;&gt;Node88 -->
<g id="edge1" class="edge">
<title>Node87&#45;&gt;Node88</title>
<path fill="none" stroke="#191970" d="M534.4457,-173.9153C480.3617,-162.2322 411.1282,-146.6605 350,-131 347.2627,-130.2987 344.4833,-129.5737 341.6794,-128.8313"/>
<polygon fill="#191970" stroke="#191970" points="533.85,-177.3671 544.3627,-176.0506 535.3235,-170.524 533.85,-177.3671"/>
</g>
<!-- Node91 -->
<g id="node5" class="node">
<title>Node91</title>
<g id="a_node5"><a xlink:href="../../d2/d5d/CalibPulser_8h.html" target="_top" xlink:title="/home/runner/work/AliceO2\l/AliceO2/Detectors/TPC\l/calibration/include/TPCCalibration\l/CalibPulser.h">
<polygon fill="none" stroke="#000000" points="359.5,-78.5 359.5,-130.5 526.5,-130.5 526.5,-78.5 359.5,-78.5"/>
<text text-anchor="start" x="367.5" y="-118.5" font-family="Helvetica,sans-Serif" font-size="10.00" fill="#000000">/home/runner/work/AliceO2</text>
<text text-anchor="start" x="367.5" y="-107.5" font-family="Helvetica,sans-Serif" font-size="10.00" fill="#000000">/AliceO2/Detectors/TPC</text>
<text text-anchor="start" x="367.5" y="-96.5" font-family="Helvetica,sans-Serif" font-size="10.00" fill="#000000">/calibration/include/TPCCalibration</text>
<text text-anchor="middle" x="443" y="-85.5" font-family="Helvetica,sans-Serif" font-size="10.00" fill="#000000">/CalibPulser.h</text>
</a>
</g>
</g>
<!-- Node87&#45;&gt;Node91 -->
<g id="edge4" class="edge">
<title>Node87&#45;&gt;Node91</title>
<path fill="none" stroke="#191970" d="M564.2829,-162.8469C542.4104,-152.3245 518.1532,-140.6548 497.1159,-130.5341"/>
<polygon fill="#191970" stroke="#191970" points="562.9657,-166.0972 573.4945,-167.2784 566.0004,-159.7891 562.9657,-166.0972"/>
</g>
<!-- Node93 -->
<g id="node7" class="node">
<title>Node93</title>
<g id="a_node7"><a xlink:href="../../d6/d25/DigitDump_8h.html" target="_top" xlink:title="/home/runner/work/AliceO2\l/AliceO2/Detectors/TPC\l/calibration/include/TPCCalibration\l/DigitDump.h">
<polygon fill="none" stroke="#000000" points="544.5,-78.5 544.5,-130.5 711.5,-130.5 711.5,-78.5 544.5,-78.5"/>
<text text-anchor="start" x="552.5" y="-118.5" font-family="Helvetica,sans-Serif" font-size="10.00" fill="#000000">/home/runner/work/AliceO2</text>
<text text-anchor="start" x="552.5" y="-107.5" font-family="Helvetica,sans-Serif" font-size="10.00" fill="#000000">/AliceO2/Detectors/TPC</text>
<text text-anchor="start" x="552.5" y="-96.5" font-family="Helvetica,sans-Serif" font-size="10.00" fill="#000000">/calibration/include/TPCCalibration</text>
<text text-anchor="middle" x="628" y="-85.5" font-family="Helvetica,sans-Serif" font-size="10.00" fill="#000000">/DigitDump.h</text>
</a>
</g>
</g>
<!-- Node87&#45;&gt;Node93 -->
<g id="edge6" class="edge">
<title>Node87&#45;&gt;Node93</title>
<path fill="none" stroke="#191970" d="M628,-157.1155C628,-148.2061 628,-138.8475 628,-130.5341"/>
<polygon fill="#191970" stroke="#191970" points="624.5001,-157.2784 628,-167.2784 631.5001,-157.2785 624.5001,-157.2784"/>
</g>
<!-- Node96 -->
<g id="node10" class="node">
<title>Node96</title>
<g id="a_node10"><a xlink:href="../../d9/d74/CalibRawBase_8cxx.html" target="_top" xlink:title="/home/runner/work/AliceO2\l/AliceO2/Detectors/TPC\l/calibration/src/CalibRawBase.cxx">
<polygon fill="none" stroke="#000000" points="729.5,-84 729.5,-125 896.5,-125 896.5,-84 729.5,-84"/>
<text text-anchor="start" x="737.5" y="-113" font-family="Helvetica,sans-Serif" font-size="10.00" fill="#000000">/home/runner/work/AliceO2</text>
<text text-anchor="start" x="737.5" y="-102" font-family="Helvetica,sans-Serif" font-size="10.00" fill="#000000">/AliceO2/Detectors/TPC</text>
<text text-anchor="middle" x="813" y="-91" font-family="Helvetica,sans-Serif" font-size="10.00" fill="#000000">/calibration/src/CalibRawBase.cxx</text>
</a>
</g>
</g>
<!-- Node87&#45;&gt;Node96 -->
<g id="edge9" class="edge">
<title>Node87&#45;&gt;Node96</title>
<path fill="none" stroke="#191970" d="M691.5473,-162.9286C717.5542,-150.4172 746.9568,-136.2721 770.3177,-125.0336"/>
<polygon fill="#191970" stroke="#191970" points="689.9996,-159.7891 682.5055,-167.2784 693.0343,-166.0972 689.9996,-159.7891"/>
</g>
<!-- Node97 -->
<g id="node11" class="node">
<title>Node97</title>
<g id="a_node11"><a xlink:href="../../db/dc3/SimpleEventDisplay_8h.html" target="_top" xlink:title="/home/runner/work/AliceO2\l/AliceO2/Detectors/TPC\l/monitor/include/TPCMonitor\l/SimpleEventDisplay.h">
<polygon fill="none" stroke="#000000" points="915.5,-78.5 915.5,-130.5 1056.5,-130.5 1056.5,-78.5 915.5,-78.5"/>
<text text-anchor="start" x="923.5" y="-118.5" font-family="Helvetica,sans-Serif" font-size="10.00" fill="#000000">/home/runner/work/AliceO2</text>
<text text-anchor="start" x="923.5" y="-107.5" font-family="Helvetica,sans-Serif" font-size="10.00" fill="#000000">/AliceO2/Detectors/TPC</text>
<text text-anchor="start" x="923.5" y="-96.5" font-family="Helvetica,sans-Serif" font-size="10.00" fill="#000000">/monitor/include/TPCMonitor</text>
<text text-anchor="middle" x="986" y="-85.5" font-family="Helvetica,sans-Serif" font-size="10.00" fill="#000000">/SimpleEventDisplay.h</text>
</a>
</g>
</g>
<!-- Node87&#45;&gt;Node97 -->
<g id="edge10" class="edge">
<title>Node87&#45;&gt;Node97</title>
<path fill="none" stroke="#191970" d="M721.4967,-174.8858C775.7045,-163.4956 845.0801,-147.8934 906,-131 909.1018,-130.1399 912.2613,-129.2318 915.4456,-128.2905"/>
<polygon fill="#191970" stroke="#191970" points="720.6295,-171.4913 711.5569,-176.9629 722.0615,-178.3433 720.6295,-171.4913"/>
</g>
<!-- Node89 -->
<g id="node3" class="node">
<title>Node89</title>
<g id="a_node3"><a xlink:href="../../dd/d58/calib-pedestal_8cxx.html" target="_top" xlink:title="/home/runner/work/AliceO2\l/AliceO2/Detectors/TPC\l/calibration/run/calib&#45;pedestal.cxx">
<polygon fill="none" stroke="#000000" points="0,-.5 0,-41.5 162,-41.5 162,-.5 0,-.5"/>
<text text-anchor="start" x="8" y="-29.5" font-family="Helvetica,sans-Serif" font-size="10.00" fill="#000000">/home/runner/work/AliceO2</text>
<text text-anchor="start" x="8" y="-18.5" font-family="Helvetica,sans-Serif" font-size="10.00" fill="#000000">/AliceO2/Detectors/TPC</text>
<text text-anchor="middle" x="81" y="-7.5" font-family="Helvetica,sans-Serif" font-size="10.00" fill="#000000">/calibration/run/calib&#45;pedestal.cxx</text>
</a>
</g>
</g>
<!-- Node88&#45;&gt;Node89 -->
<g id="edge2" class="edge">
<title>Node88&#45;&gt;Node89</title>
<path fill="none" stroke="#191970" d="M193.183,-73.9225C170.3301,-63.1416 145.2031,-51.2879 124.5329,-41.5367"/>
<polygon fill="#191970" stroke="#191970" points="191.9443,-77.208 202.4817,-78.3092 194.9309,-70.8771 191.9443,-77.208"/>
</g>
<!-- Node90 -->
<g id="node4" class="node">
<title>Node90</title>
<g id="a_node4"><a xlink:href="../../d6/d99/CalibPedestal_8cxx.html" target="_top" xlink:title="/home/runner/work/AliceO2\l/AliceO2/Detectors/TPC\l/calibration/src/CalibPedestal.cxx">
<polygon fill="none" stroke="#000000" points="180.5,-.5 180.5,-41.5 343.5,-41.5 343.5,-.5 180.5,-.5"/>
<text text-anchor="start" x="188.5" y="-29.5" font-family="Helvetica,sans-Serif" font-size="10.00" fill="#000000">/home/runner/work/AliceO2</text>
<text text-anchor="start" x="188.5" y="-18.5" font-family="Helvetica,sans-Serif" font-size="10.00" fill="#000000">/AliceO2/Detectors/TPC</text>
<text text-anchor="middle" x="262" y="-7.5" font-family="Helvetica,sans-Serif" font-size="10.00" fill="#000000">/calibration/src/CalibPedestal.cxx</text>
</a>
</g>
</g>
<!-- Node88&#45;&gt;Node90 -->
<g id="edge3" class="edge">
<title>Node88&#45;&gt;Node90</title>
<path fill="none" stroke="#191970" d="M259.7573,-67.8168C260.1861,-58.8649 260.6301,-49.5976 261.0087,-41.6941"/>
<polygon fill="#191970" stroke="#191970" points="256.2482,-67.924 259.2656,-78.0801 263.2402,-68.259 256.2482,-67.924"/>
</g>
<!-- Node92 -->
<g id="node6" class="node">
<title>Node92</title>
<g id="a_node6"><a xlink:href="../../d4/ddc/CalibPulser_8cxx.html" target="_top" xlink:title="/home/runner/work/AliceO2\l/AliceO2/Detectors/TPC\l/calibration/src/CalibPulser.cxx">
<polygon fill="none" stroke="#000000" points="366,-.5 366,-41.5 518,-41.5 518,-.5 366,-.5"/>
<text text-anchor="start" x="374" y="-29.5" font-family="Helvetica,sans-Serif" font-size="10.00" fill="#000000">/home/runner/work/AliceO2</text>
<text text-anchor="start" x="374" y="-18.5" font-family="Helvetica,sans-Serif" font-size="10.00" fill="#000000">/AliceO2/Detectors/TPC</text>
<text text-anchor="middle" x="442" y="-7.5" font-family="Helvetica,sans-Serif" font-size="10.00" fill="#000000">/calibration/src/CalibPulser.cxx</text>
</a>
</g>
</g>
<!-- Node91&#45;&gt;Node92 -->
<g id="edge5" class="edge">
<title>Node91&#45;&gt;Node92</title>
<path fill="none" stroke="#191970" d="M442.5607,-67.8168C442.4535,-58.8649 442.3425,-49.5976 442.2478,-41.6941"/>
<polygon fill="#191970" stroke="#191970" points="439.064,-68.1227 442.6836,-78.0801 446.0635,-68.0388 439.064,-68.1227"/>
</g>
<!-- Node94 -->
<g id="node8" class="node">
<title>Node94</title>
<g id="a_node8"><a xlink:href="../../d6/d66/DigitDump_8cxx.html" target="_top" xlink:title="/home/runner/work/AliceO2\l/AliceO2/Detectors/TPC\l/calibration/src/DigitDump.cxx">
<polygon fill="none" stroke="#000000" points="536.5,-.5 536.5,-41.5 685.5,-41.5 685.5,-.5 536.5,-.5"/>
<text text-anchor="start" x="544.5" y="-29.5" font-family="Helvetica,sans-Serif" font-size="10.00" fill="#000000">/home/runner/work/AliceO2</text>
<text text-anchor="start" x="544.5" y="-18.5" font-family="Helvetica,sans-Serif" font-size="10.00" fill="#000000">/AliceO2/Detectors/TPC</text>
<text text-anchor="middle" x="611" y="-7.5" font-family="Helvetica,sans-Serif" font-size="10.00" fill="#000000">/calibration/src/DigitDump.cxx</text>
</a>
</g>
</g>
<!-- Node93&#45;&gt;Node94 -->
<g id="edge7" class="edge">
<title>Node93&#45;&gt;Node94</title>
<path fill="none" stroke="#191970" d="M620.591,-68.1086C618.7501,-59.0666 616.8398,-49.6836 615.2132,-41.6941"/>
<polygon fill="#191970" stroke="#191970" points="617.1964,-68.9794 622.6211,-78.0801 624.0557,-67.5828 617.1964,-68.9794"/>
</g>
<!-- Node95 -->
<g id="node9" class="node">
<title>Node95</title>
<g id="a_node9"><a xlink:href="../../d5/d78/RawToDigitsSpec_8cxx.html" target="_top" xlink:title="/home/runner/work/AliceO2\l/AliceO2/Detectors/TPC\l/workflow/src/RawToDigitsSpec.cxx">
<polygon fill="none" stroke="#000000" points="703,-.5 703,-41.5 879,-41.5 879,-.5 703,-.5"/>
<text text-anchor="start" x="711" y="-29.5" font-family="Helvetica,sans-Serif" font-size="10.00" fill="#000000">/home/runner/work/AliceO2</text>
<text text-anchor="start" x="711" y="-18.5" font-family="Helvetica,sans-Serif" font-size="10.00" fill="#000000">/AliceO2/Detectors/TPC</text>
<text text-anchor="middle" x="791" y="-7.5" font-family="Helvetica,sans-Serif" font-size="10.00" fill="#000000">/workflow/src/RawToDigitsSpec.cxx</text>
</a>
</g>
</g>
<!-- Node93&#45;&gt;Node95 -->
<g id="edge8" class="edge">
<title>Node93&#45;&gt;Node95</title>
<path fill="none" stroke="#191970" d="M688.2519,-73.6347C709.1466,-62.9311 732.0443,-51.2012 750.9104,-41.5367"/>
<polygon fill="#191970" stroke="#191970" points="686.4314,-70.6348 679.127,-78.3092 689.6229,-76.8649 686.4314,-70.6348"/>
</g>
<!-- Node98 -->
<g id="node12" class="node">
<title>Node98</title>
<g id="a_node12"><a xlink:href="../../d9/df5/SimpleEventDisplay_8cxx.html" target="_top" xlink:title="/home/runner/work/AliceO2\l/AliceO2/Detectors/TPC\l/monitor/src/SimpleEventDisplay.cxx">
<polygon fill="none" stroke="#000000" points="897.5,-.5 897.5,-41.5 1076.5,-41.5 1076.5,-.5 897.5,-.5"/>
<text text-anchor="start" x="905.5" y="-29.5" font-family="Helvetica,sans-Serif" font-size="10.00" fill="#000000">/home/runner/work/AliceO2</text>
<text text-anchor="start" x="905.5" y="-18.5" font-family="Helvetica,sans-Serif" font-size="10.00" fill="#000000">/AliceO2/Detectors/TPC</text>
<text text-anchor="middle" x="987" y="-7.5" font-family="Helvetica,sans-Serif" font-size="10.00" fill="#000000">/monitor/src/SimpleEventDisplay.cxx</text>
</a>
</g>
</g>
<!-- Node97&#45;&gt;Node98 -->
<g id="edge11" class="edge">
<title>Node97&#45;&gt;Node98</title>
<path fill="none" stroke="#191970" d="M986.4393,-67.8168C986.5465,-58.8649 986.6575,-49.5976 986.7522,-41.6941"/>
<polygon fill="#191970" stroke="#191970" points="982.9365,-68.0388 986.3164,-78.0801 989.936,-68.1227 982.9365,-68.0388"/>
</g>
</g>
</svg>
