<?xml version="1.0" encoding="UTF-8" standalone="no"?>
<!DOCTYPE svg PUBLIC "-//W3C//DTD SVG 1.1//EN"
 "http://www.w3.org/Graphics/SVG/1.1/DTD/svg11.dtd">
<!-- Generated by graphviz version 2.40.1 (20161225.0304)
 -->
<!-- Title: /home/runner/work/AliceO2/AliceO2/Detectors/ITSMFT/common/reconstruction/src/RUInfo.cxx Pages: 1 -->
<svg width="189pt" height="184pt"
 viewBox="0.00 0.00 188.50 184.00" xmlns="http://www.w3.org/2000/svg" xmlns:xlink="http://www.w3.org/1999/xlink">
<g id="graph0" class="graph" transform="scale(1 1) rotate(0) translate(4 180)">
<title>/home/runner/work/AliceO2/AliceO2/Detectors/ITSMFT/common/reconstruction/src/RUInfo.cxx</title>
<!-- Node0 -->
<g id="node1" class="node">
<title>Node0</title>
<polygon fill="#bfbfbf" stroke="#000000" points="41.5,-123.5 41.5,-175.5 180.5,-175.5 180.5,-123.5 41.5,-123.5"/>
<text text-anchor="start" x="49.5" y="-163.5" font-family="Helvetica,sans-Serif" font-size="10.00" fill="#000000">/home/runner/work/AliceO2</text>
<text text-anchor="start" x="49.5" y="-152.5" font-family="Helvetica,sans-Serif" font-size="10.00" fill="#000000">/AliceO2/Detectors/ITSMFT</text>
<text text-anchor="start" x="49.5" y="-141.5" font-family="Helvetica,sans-Serif" font-size="10.00" fill="#000000">/common/reconstruction/src</text>
<text text-anchor="middle" x="111" y="-130.5" font-family="Helvetica,sans-Serif" font-size="10.00" fill="#000000">/RUInfo.cxx</text>
</g>
<!-- Node1 -->
<g id="node2" class="node">
<title>Node1</title>
<g id="a_node2"><a xlink:href="../../dc/dd8/RUInfo_8h.html" target="_top" xlink:title="ITSMFTReconstruction\l/RUInfo.h">
<polygon fill="none" stroke="#000000" points="2.5,-56.5 2.5,-86.5 121.5,-86.5 121.5,-56.5 2.5,-56.5"/>
<text text-anchor="start" x="10.5" y="-74.5" font-family="Helvetica,sans-Serif" font-size="10.00" fill="#000000">ITSMFTReconstruction</text>
<text text-anchor="middle" x="62" y="-63.5" font-family="Helvetica,sans-Serif" font-size="10.00" fill="#000000">/RUInfo.h</text>
</a>
</g>
</g>
<!-- Node0&#45;&gt;Node1 -->
<g id="edge1" class="edge">
<title>Node0&#45;&gt;Node1</title>
<path fill="none" stroke="#191970" d="M94.4108,-123.0928C88.7235,-114.0395 82.3991,-103.972 76.8577,-95.151"/>
<polygon fill="#191970" stroke="#191970" points="79.7092,-93.1105 71.4259,-86.5046 73.7818,-96.8342 79.7092,-93.1105"/>
</g>
<!-- Node4 -->
<g id="node5" class="node">
<title>Node4</title>
<polygon fill="none" stroke="#bfbfbf" points="139.5,-62 139.5,-81 180.5,-81 180.5,-62 139.5,-62"/>
<text text-anchor="middle" x="160" y="-69" font-family="Helvetica,sans-Serif" font-size="10.00" fill="#000000">bitset</text>
</g>
<!-- Node0&#45;&gt;Node4 -->
<g id="edge4" class="edge">
<title>Node0&#45;&gt;Node4</title>
<path fill="none" stroke="#191970" d="M127.5892,-123.0928C134.4903,-112.1073 142.3295,-99.6285 148.5695,-89.6954"/>
<polygon fill="#191970" stroke="#191970" points="151.6236,-91.4135 153.9794,-81.0839 145.6961,-87.6898 151.6236,-91.4135"/>
</g>
<!-- Node2 -->
<g id="node3" class="node">
<title>Node2</title>
<polygon fill="none" stroke="#bfbfbf" points="0,-.5 0,-19.5 56,-19.5 56,-.5 0,-.5"/>
<text text-anchor="middle" x="28" y="-7.5" font-family="Helvetica,sans-Serif" font-size="10.00" fill="#000000">Rtypes.h</text>
</g>
<!-- Node1&#45;&gt;Node2 -->
<g id="edge2" class="edge">
<title>Node1&#45;&gt;Node2</title>
<path fill="none" stroke="#191970" d="M53.5955,-56.2977C48.9743,-47.9388 43.2031,-37.4997 38.3111,-28.6509"/>
<polygon fill="#191970" stroke="#191970" points="41.3452,-26.9051 33.4438,-19.8469 35.2191,-30.292 41.3452,-26.9051"/>
</g>
<!-- Node3 -->
<g id="node4" class="node">
<title>Node3</title>
<polygon fill="none" stroke="#bfbfbf" points="74,-.5 74,-19.5 120,-19.5 120,-.5 74,-.5"/>
<text text-anchor="middle" x="97" y="-7.5" font-family="Helvetica,sans-Serif" font-size="10.00" fill="#000000">cstdint</text>
</g>
<!-- Node1&#45;&gt;Node3 -->
<g id="edge3" class="edge">
<title>Node1&#45;&gt;Node3</title>
<path fill="none" stroke="#191970" d="M70.6517,-56.2977C75.4088,-47.9388 81.3498,-37.4997 86.3857,-28.6509"/>
<polygon fill="#191970" stroke="#191970" points="89.4917,-30.2692 91.3961,-19.8469 83.4079,-26.8069 89.4917,-30.2692"/>
</g>
</g>
</svg>
