<?xml version="1.0" encoding="UTF-8" standalone="no"?>
<!DOCTYPE svg PUBLIC "-//W3C//DTD SVG 1.1//EN"
 "http://www.w3.org/Graphics/SVG/1.1/DTD/svg11.dtd">
<!-- Generated by graphviz version 2.40.1 (20161225.0304)
 -->
<!-- Title: AliHLTComponentEventData Pages: 1 -->
<svg width="216pt" height="204pt"
 viewBox="0.00 0.00 216.00 204.00" xmlns="http://www.w3.org/2000/svg" xmlns:xlink="http://www.w3.org/1999/xlink">
<g id="graph0" class="graph" transform="scale(1 1) rotate(0) translate(4 200)">
<title>AliHLTComponentEventData</title>
<!-- Node1 -->
<g id="node1" class="node">
<title>Node1</title>
<polygon fill="#bfbfbf" stroke="#000000" points="14.5,-.5 14.5,-57.5 157.5,-57.5 157.5,-.5 14.5,-.5"/>
<text text-anchor="middle" x="86" y="-45.5" font-family="Helvetica,sans-Serif" font-size="10.00" fill="#000000">AliHLTComponentEventData</text>
<polyline fill="none" stroke="#000000" points="14.5,-38.5 157.5,-38.5 "/>
<text text-anchor="middle" x="86" y="-26.5" font-family="Helvetica,sans-Serif" font-size="10.00" fill="#000000"> </text>
<polyline fill="none" stroke="#000000" points="14.5,-19.5 157.5,-19.5 "/>
<text text-anchor="middle" x="86" y="-7.5" font-family="Helvetica,sans-Serif" font-size="10.00" fill="#000000"> </text>
</g>
<!-- Node2 -->
<g id="node2" class="node">
<title>Node2</title>
<polygon fill="none" stroke="#bfbfbf" points="0,-138.5 0,-195.5 84,-195.5 84,-138.5 0,-138.5"/>
<text text-anchor="middle" x="42" y="-183.5" font-family="Helvetica,sans-Serif" font-size="10.00" fill="#000000">AliHLTUInt64_t</text>
<polyline fill="none" stroke="#bfbfbf" points="0,-176.5 84,-176.5 "/>
<text text-anchor="middle" x="42" y="-164.5" font-family="Helvetica,sans-Serif" font-size="10.00" fill="#000000"> </text>
<polyline fill="none" stroke="#bfbfbf" points="0,-157.5 84,-157.5 "/>
<text text-anchor="middle" x="42" y="-145.5" font-family="Helvetica,sans-Serif" font-size="10.00" fill="#000000"> </text>
</g>
<!-- Node2&#45;&gt;Node1 -->
<g id="edge1" class="edge">
<title>Node2&#45;&gt;Node1</title>
<path fill="none" stroke="#404040" d="M44.8291,-138.4653C47.2446,-120.1936 51.5534,-96.208 59,-76 59.9253,-73.489 60.9782,-70.9559 62.1189,-68.4366"/>
<polygon fill="none" stroke="#404040" points="62.1788,-68.3171 61.2937,-61.1605 67.5593,-57.5909 68.4445,-64.7475 62.1788,-68.3171"/>
<text text-anchor="middle" x="83.5" y="-95.5" font-family="Helvetica,sans-Serif" font-size="10.00" fill="#000000"> +fEventID</text>
</g>
<!-- Node3 -->
<g id="node3" class="node">
<title>Node3</title>
<polygon fill="none" stroke="#bfbfbf" points="102,-138.5 102,-195.5 158,-195.5 158,-138.5 102,-138.5"/>
<text text-anchor="middle" x="130" y="-183.5" font-family="Helvetica,sans-Serif" font-size="10.00" fill="#000000">unsigned</text>
<polyline fill="none" stroke="#bfbfbf" points="102,-176.5 158,-176.5 "/>
<text text-anchor="middle" x="130" y="-164.5" font-family="Helvetica,sans-Serif" font-size="10.00" fill="#000000"> </text>
<polyline fill="none" stroke="#bfbfbf" points="102,-157.5 158,-157.5 "/>
<text text-anchor="middle" x="130" y="-145.5" font-family="Helvetica,sans-Serif" font-size="10.00" fill="#000000"> </text>
</g>
<!-- Node3&#45;&gt;Node1 -->
<g id="edge2" class="edge">
<title>Node3&#45;&gt;Node1</title>
<path fill="none" stroke="#404040" d="M124.6016,-138.2913C120.8166,-120.1632 115.1582,-96.3979 108,-76 107.1726,-73.6423 106.2663,-71.2437 105.3078,-68.841"/>
<polygon fill="none" stroke="#404040" points="105.2631,-68.7363 99.2257,-64.7931 100.5435,-57.7034 106.581,-61.6467 105.2631,-68.7363"/>
<text text-anchor="middle" x="164" y="-112" font-family="Helvetica,sans-Serif" font-size="10.00" fill="#000000"> +fEventCreation_s</text>
<text text-anchor="middle" x="164" y="-101" font-family="Helvetica,sans-Serif" font-size="10.00" fill="#000000">+fStructSize</text>
<text text-anchor="middle" x="164" y="-90" font-family="Helvetica,sans-Serif" font-size="10.00" fill="#000000">+fBlockCnt</text>
<text text-anchor="middle" x="164" y="-79" font-family="Helvetica,sans-Serif" font-size="10.00" fill="#000000">+fEventCreation_us</text>
</g>
</g>
</svg>
