<?xml version="1.0" encoding="UTF-8" standalone="no"?>
<!DOCTYPE svg PUBLIC "-//W3C//DTD SVG 1.1//EN"
 "http://www.w3.org/Graphics/SVG/1.1/DTD/svg11.dtd">
<!-- Generated by graphviz version 2.40.1 (20161225.0304)
 -->
<!-- Title: /home/runner/work/AliceO2/AliceO2/Detectors/ITSMFT/ITS/tracking/hip/include/ITStrackingHIP/DeviceStoreVertexerHIP.h Pages: 1 -->
<svg width="1801pt" height="643pt"
 viewBox="0.00 0.00 1800.63 643.00" xmlns="http://www.w3.org/2000/svg" xmlns:xlink="http://www.w3.org/1999/xlink">
<g id="graph0" class="graph" transform="scale(1 1) rotate(0) translate(4 639)">
<title>/home/runner/work/AliceO2/AliceO2/Detectors/ITSMFT/ITS/tracking/hip/include/ITStrackingHIP/DeviceStoreVertexerHIP.h</title>
<!-- Node0 -->
<g id="node1" class="node">
<title>Node0</title>
<polygon fill="#bfbfbf" stroke="#000000" points="1123,-582.5 1123,-634.5 1329,-634.5 1329,-582.5 1123,-582.5"/>
<text text-anchor="start" x="1131" y="-622.5" font-family="Helvetica,sans-Serif" font-size="10.00" fill="#000000">/home/runner/work/AliceO2</text>
<text text-anchor="start" x="1131" y="-611.5" font-family="Helvetica,sans-Serif" font-size="10.00" fill="#000000">/AliceO2/Detectors/ITSMFT</text>
<text text-anchor="start" x="1131" y="-600.5" font-family="Helvetica,sans-Serif" font-size="10.00" fill="#000000">/ITS/tracking/hip/include</text>
<text text-anchor="middle" x="1226" y="-589.5" font-family="Helvetica,sans-Serif" font-size="10.00" fill="#000000">/ITStrackingHIP/DeviceStoreVertexerHIP.h</text>
</g>
<!-- Node1 -->
<g id="node2" class="node">
<title>Node1</title>
<polygon fill="none" stroke="#bfbfbf" points="419.5,-521 419.5,-540 514.5,-540 514.5,-521 419.5,-521"/>
<text text-anchor="middle" x="467" y="-528" font-family="Helvetica,sans-Serif" font-size="10.00" fill="#000000">hipcub/hipcub.hpp</text>
</g>
<!-- Node0&#45;&gt;Node1 -->
<g id="edge1" class="edge">
<title>Node0&#45;&gt;Node1</title>
<path fill="none" stroke="#191970" d="M1122.9073,-604.2723C986.3096,-597.5283 738.1974,-581.3085 529,-546 523.1828,-545.0182 517.1073,-543.7755 511.1319,-542.4227"/>
<polygon fill="#191970" stroke="#191970" points="511.7719,-538.9774 501.2334,-540.0688 510.1523,-545.7875 511.7719,-538.9774"/>
</g>
<!-- Node2 -->
<g id="node3" class="node">
<title>Node2</title>
<g id="a_node3"><a xlink:href="../../da/d7f/Detectors_2ITSMFT_2ITS_2tracking_2include_2ITStracking_2Cluster_8h.html" target="_top" xlink:title="ITStracking/Cluster.h">
<polygon fill="none" stroke="#000000" points="654,-347.5 654,-366.5 764,-366.5 764,-347.5 654,-347.5"/>
<text text-anchor="middle" x="709" y="-354.5" font-family="Helvetica,sans-Serif" font-size="10.00" fill="#000000">ITStracking/Cluster.h</text>
</a>
</g>
</g>
<!-- Node0&#45;&gt;Node2 -->
<g id="edge2" class="edge">
<title>Node0&#45;&gt;Node2</title>
<path fill="none" stroke="#191970" d="M1122.5853,-583.9979C1023.8259,-556.8306 874.5282,-505.5887 767,-423 748.9671,-409.1495 732.2698,-389.0517 721.4667,-374.6778"/>
<polygon fill="#191970" stroke="#191970" points="724.27,-372.5818 715.5427,-366.5747 718.6191,-376.7131 724.27,-372.5818"/>
</g>
<!-- Node5 -->
<g id="node6" class="node">
<title>Node5</title>
<g id="a_node6"><a xlink:href="../../df/d21/GPUCommonDef_8h.html" target="_top" xlink:title="GPUCommonDef.h">
<polygon fill="none" stroke="#000000" points="1163,-56.5 1163,-75.5 1265,-75.5 1265,-56.5 1163,-56.5"/>
<text text-anchor="middle" x="1214" y="-63.5" font-family="Helvetica,sans-Serif" font-size="10.00" fill="#000000">GPUCommonDef.h</text>
</a>
</g>
</g>
<!-- Node0&#45;&gt;Node5 -->
<g id="edge79" class="edge">
<title>Node0&#45;&gt;Node5</title>
<path fill="none" stroke="#191970" d="M1237.6077,-582.3352C1248.7828,-554.7256 1264,-509.664 1264,-469 1264,-469 1264,-469 1264,-178 1264,-142.2001 1242.4357,-105.1175 1227.6307,-83.8769"/>
<polygon fill="#191970" stroke="#191970" points="1230.2949,-81.5886 1221.5939,-75.5435 1224.6261,-85.6952 1230.2949,-81.5886"/>
</g>
<!-- Node22 -->
<g id="node23" class="node">
<title>Node22</title>
<g id="a_node23"><a xlink:href="../../d0/d86/Detectors_2ITSMFT_2ITS_2tracking_2include_2ITStracking_2Constants_8h.html" target="_top" xlink:title="ITStracking/Constants.h">
<polygon fill="none" stroke="#000000" points="922.5,-230 922.5,-249 1045.5,-249 1045.5,-230 922.5,-230"/>
<text text-anchor="middle" x="984" y="-237" font-family="Helvetica,sans-Serif" font-size="10.00" fill="#000000">ITStracking/Constants.h</text>
</a>
</g>
</g>
<!-- Node0&#45;&gt;Node22 -->
<g id="edge38" class="edge">
<title>Node0&#45;&gt;Node22</title>
<path fill="none" stroke="#191970" d="M1226,-582.275C1226,-554.237 1226,-508.4766 1226,-469 1226,-469 1226,-469 1226,-357 1226,-313.9316 1100.3978,-271.9341 1030.1683,-251.8177"/>
<polygon fill="#191970" stroke="#191970" points="1030.8047,-248.3606 1020.2298,-249.011 1028.9022,-255.0971 1030.8047,-248.3606"/>
</g>
<!-- Node25 -->
<g id="node26" class="node">
<title>Node25</title>
<g id="a_node26"><a xlink:href="../../d3/d59/Configuration_8h.html" target="_top" xlink:title="ITStracking/Configuration.h">
<polygon fill="none" stroke="#000000" points="878,-291.5 878,-310.5 1014,-310.5 1014,-291.5 878,-291.5"/>
<text text-anchor="middle" x="946" y="-298.5" font-family="Helvetica,sans-Serif" font-size="10.00" fill="#000000">ITStracking/Configuration.h</text>
</a>
</g>
</g>
<!-- Node0&#45;&gt;Node25 -->
<g id="edge39" class="edge">
<title>Node0&#45;&gt;Node25</title>
<path fill="none" stroke="#191970" d="M1214.3923,-582.3352C1203.2172,-554.7256 1188,-509.664 1188,-469 1188,-469 1188,-469 1188,-413 1188,-370.9156 1065.9426,-332.1176 995.1956,-313.1642"/>
<polygon fill="#191970" stroke="#191970" points="995.7125,-309.6809 985.1504,-310.5138 993.9266,-316.4492 995.7125,-309.6809"/>
</g>
<!-- Node26 -->
<g id="node27" class="node">
<title>Node26</title>
<g id="a_node27"><a xlink:href="../../d8/db3/ITSMFT_2ITS_2tracking_2include_2ITStracking_2Tracklet_8h.html" target="_top" xlink:title="ITStracking/Tracklet.h">
<polygon fill="none" stroke="#000000" points="388.5,-403.5 388.5,-422.5 501.5,-422.5 501.5,-403.5 388.5,-403.5"/>
<text text-anchor="middle" x="445" y="-410.5" font-family="Helvetica,sans-Serif" font-size="10.00" fill="#000000">ITStracking/Tracklet.h</text>
</a>
</g>
</g>
<!-- Node0&#45;&gt;Node26 -->
<g id="edge45" class="edge">
<title>Node0&#45;&gt;Node26</title>
<path fill="none" stroke="#191970" d="M1122.8276,-602.786C949.8675,-592.6044 615.4911,-570.1175 567,-546 539.9456,-532.5442 484.4098,-463.8735 458.6635,-430.8217"/>
<polygon fill="#191970" stroke="#191970" points="461.1276,-428.2868 452.2401,-422.5194 455.5912,-432.5703 461.1276,-428.2868"/>
</g>
<!-- Node27 -->
<g id="node28" class="node">
<title>Node27</title>
<g id="a_node28"><a xlink:href="../../df/d50/ClusterLines_8h.html" target="_top" xlink:title="ITStracking/ClusterLines.h">
<polygon fill="none" stroke="#000000" points="889.5,-459.5 889.5,-478.5 1022.5,-478.5 1022.5,-459.5 889.5,-459.5"/>
<text text-anchor="middle" x="956" y="-466.5" font-family="Helvetica,sans-Serif" font-size="10.00" fill="#000000">ITStracking/ClusterLines.h</text>
</a>
</g>
</g>
<!-- Node0&#45;&gt;Node27 -->
<g id="edge50" class="edge">
<title>Node0&#45;&gt;Node27</title>
<path fill="none" stroke="#191970" d="M1175.5318,-582.4248C1118.6756,-553.0491 1028.347,-506.3793 983.3468,-483.1292"/>
<polygon fill="#191970" stroke="#191970" points="984.9515,-480.0188 974.4606,-478.538 981.7383,-486.2377 984.9515,-480.0188"/>
</g>
<!-- Node28 -->
<g id="node29" class="node">
<title>Node28</title>
<g id="a_node29"><a xlink:href="../../de/d49/ArrayHIP_8h.html" target="_top" xlink:title="ITStrackingHIP/ArrayHIP.h">
<polygon fill="none" stroke="#000000" points="1452,-521 1452,-540 1588,-540 1588,-521 1452,-521"/>
<text text-anchor="middle" x="1520" y="-528" font-family="Helvetica,sans-Serif" font-size="10.00" fill="#000000">ITStrackingHIP/ArrayHIP.h</text>
</a>
</g>
</g>
<!-- Node0&#45;&gt;Node28 -->
<g id="edge57" class="edge">
<title>Node0&#45;&gt;Node28</title>
<path fill="none" stroke="#191970" d="M1324.3065,-582.4187C1374.9357,-568.9865 1434.2526,-553.2493 1474.1981,-542.6515"/>
<polygon fill="#191970" stroke="#191970" points="1475.1513,-546.0198 1483.9193,-540.0724 1473.3562,-539.2539 1475.1513,-546.0198"/>
</g>
<!-- Node30 -->
<g id="node31" class="node">
<title>Node30</title>
<g id="a_node31"><a xlink:href="../../d2/dc8/ClusterLinesHIP_8h.html" target="_top" xlink:title="GPU&#45;compliant version of ClusterLines, for the moment separated, might create a common traits for Clu...">
<polygon fill="none" stroke="#000000" points="1292,-515.5 1292,-545.5 1434,-545.5 1434,-515.5 1292,-515.5"/>
<text text-anchor="start" x="1300" y="-533.5" font-family="Helvetica,sans-Serif" font-size="10.00" fill="#000000">ITStrackingHIP/ClusterLines</text>
<text text-anchor="middle" x="1363" y="-522.5" font-family="Helvetica,sans-Serif" font-size="10.00" fill="#000000">HIP.h</text>
</a>
</g>
</g>
<!-- Node0&#45;&gt;Node30 -->
<g id="edge60" class="edge">
<title>Node0&#45;&gt;Node30</title>
<path fill="none" stroke="#191970" d="M1272.0001,-582.3101C1290.1025,-572.0037 1310.5632,-560.3545 1327.4921,-550.7162"/>
<polygon fill="#191970" stroke="#191970" points="1329.5377,-553.5791 1336.4962,-545.5897 1326.0743,-547.4959 1329.5377,-553.5791"/>
</g>
<!-- Node31 -->
<g id="node32" class="node">
<title>Node31</title>
<g id="a_node32"><a xlink:href="../../d1/d7c/UniquePointerHIP_8h.html" target="_top" xlink:title="ITStrackingHIP/UniquePointer\lHIP.h">
<polygon fill="none" stroke="#000000" points="1435.5,-224.5 1435.5,-254.5 1584.5,-254.5 1584.5,-224.5 1435.5,-224.5"/>
<text text-anchor="start" x="1443.5" y="-242.5" font-family="Helvetica,sans-Serif" font-size="10.00" fill="#000000">ITStrackingHIP/UniquePointer</text>
<text text-anchor="middle" x="1510" y="-231.5" font-family="Helvetica,sans-Serif" font-size="10.00" fill="#000000">HIP.h</text>
</a>
</g>
</g>
<!-- Node0&#45;&gt;Node31 -->
<g id="edge64" class="edge">
<title>Node0&#45;&gt;Node31</title>
<path fill="none" stroke="#191970" d="M1329.032,-603.5912C1425.0346,-596.8722 1558.9307,-581.3152 1597,-546 1622.8418,-522.0277 1616,-504.2487 1616,-469 1616,-469 1616,-469 1616,-357 1616,-314.4912 1577.2782,-280.4443 1546.6415,-260.1591"/>
<polygon fill="#191970" stroke="#191970" points="1548.1649,-256.9797 1537.8503,-254.5592 1544.4042,-262.8837 1548.1649,-256.9797"/>
</g>
<!-- Node35 -->
<g id="node36" class="node">
<title>Node35</title>
<g id="a_node36"><a xlink:href="../../dd/dda/VectorHIP_8h.html" target="_top" xlink:title="ITStrackingHIP/VectorHIP.h">
<polygon fill="none" stroke="#000000" points="1602.5,-230 1602.5,-249 1743.5,-249 1743.5,-230 1602.5,-230"/>
<text text-anchor="middle" x="1673" y="-237" font-family="Helvetica,sans-Serif" font-size="10.00" fill="#000000">ITStrackingHIP/VectorHIP.h</text>
</a>
</g>
</g>
<!-- Node0&#45;&gt;Node35 -->
<g id="edge71" class="edge">
<title>Node0&#45;&gt;Node35</title>
<path fill="none" stroke="#191970" d="M1329.149,-602.2875C1429.7861,-594.4559 1574.2125,-577.9614 1620,-546 1652.141,-523.5644 1663,-508.1969 1663,-469 1663,-469 1663,-469 1663,-357 1663,-322.5157 1667.3291,-282.543 1670.2906,-259.2328"/>
<polygon fill="#191970" stroke="#191970" points="1673.7728,-259.5967 1671.6095,-249.2251 1666.8328,-258.682 1673.7728,-259.5967"/>
</g>
<!-- Node3 -->
<g id="node4" class="node">
<title>Node3</title>
<polygon fill="none" stroke="#bfbfbf" points="843,-112.5 843,-131.5 881,-131.5 881,-112.5 843,-112.5"/>
<text text-anchor="middle" x="862" y="-119.5" font-family="Helvetica,sans-Serif" font-size="10.00" fill="#000000">array</text>
</g>
<!-- Node2&#45;&gt;Node3 -->
<g id="edge3" class="edge">
<title>Node2&#45;&gt;Node3</title>
<path fill="none" stroke="#191970" d="M715.1873,-347.4967C738.2528,-312.0693 819.4759,-187.3149 850.1511,-140.1994"/>
<polygon fill="#191970" stroke="#191970" points="853.2127,-141.9116 855.7357,-131.6216 847.3464,-138.0923 853.2127,-141.9116"/>
</g>
<!-- Node4 -->
<g id="node5" class="node">
<title>Node4</title>
<g id="a_node5"><a xlink:href="../../df/d3d/Definitions_8h.html" target="_top" xlink:title="ITStracking/Definitions.h">
<polygon fill="none" stroke="#000000" points="1010.5,-168.5 1010.5,-187.5 1135.5,-187.5 1135.5,-168.5 1010.5,-168.5"/>
<text text-anchor="middle" x="1073" y="-175.5" font-family="Helvetica,sans-Serif" font-size="10.00" fill="#000000">ITStracking/Definitions.h</text>
</a>
</g>
</g>
<!-- Node2&#45;&gt;Node4 -->
<g id="edge4" class="edge">
<title>Node2&#45;&gt;Node4</title>
<path fill="none" stroke="#191970" d="M764.1554,-354.7401C842.7818,-350.5578 982.1116,-339.2949 1023,-311 1060.2329,-285.2347 1069.7783,-228.0437 1072.199,-197.7366"/>
<polygon fill="#191970" stroke="#191970" points="1075.7044,-197.7538 1072.8208,-187.559 1068.7174,-197.3269 1075.7044,-197.7538"/>
</g>
<!-- Node9 -->
<g id="node10" class="node">
<title>Node9</title>
<g id="a_node10"><a xlink:href="../../dc/d3e/MathUtils_8h.html" target="_top" xlink:title="ITStracking/MathUtils.h">
<polygon fill="none" stroke="#000000" points="454,-291.5 454,-310.5 574,-310.5 574,-291.5 454,-291.5"/>
<text text-anchor="middle" x="514" y="-298.5" font-family="Helvetica,sans-Serif" font-size="10.00" fill="#000000">ITStracking/MathUtils.h</text>
</a>
</g>
</g>
<!-- Node2&#45;&gt;Node9 -->
<g id="edge10" class="edge">
<title>Node2&#45;&gt;Node9</title>
<path fill="none" stroke="#191970" d="M675.4783,-347.3733C642.6317,-337.9404 592.4405,-323.5265 556.7422,-313.2747"/>
<polygon fill="#191970" stroke="#191970" points="557.6619,-309.8974 547.0843,-310.5011 555.7297,-316.6255 557.6619,-309.8974"/>
</g>
<!-- Node4&#45;&gt;Node3 -->
<g id="edge5" class="edge">
<title>Node4&#45;&gt;Node3</title>
<path fill="none" stroke="#191970" d="M1036.7278,-168.3733C995.4778,-157.4254 928.9477,-139.7681 890.9942,-129.6951"/>
<polygon fill="#191970" stroke="#191970" points="891.6551,-126.2494 881.0919,-127.067 889.8594,-133.0152 891.6551,-126.2494"/>
</g>
<!-- Node4&#45;&gt;Node5 -->
<g id="edge6" class="edge">
<title>Node4&#45;&gt;Node5</title>
<path fill="none" stroke="#191970" d="M1083.72,-168.3009C1098.3758,-155.1601 1125.6326,-131.1436 1150,-112 1163.5071,-101.3885 1179.1564,-90.1232 1191.5992,-81.3967"/>
<polygon fill="#191970" stroke="#191970" points="1193.809,-84.123 1200.0163,-75.5369 1189.8095,-78.378 1193.809,-84.123"/>
</g>
<!-- Node8 -->
<g id="node9" class="node">
<title>Node8</title>
<polygon fill="none" stroke="#bfbfbf" points="1048.5,-112.5 1048.5,-131.5 1097.5,-131.5 1097.5,-112.5 1048.5,-112.5"/>
<text text-anchor="middle" x="1073" y="-119.5" font-family="Helvetica,sans-Serif" font-size="10.00" fill="#000000">cstddef</text>
</g>
<!-- Node4&#45;&gt;Node8 -->
<g id="edge9" class="edge">
<title>Node4&#45;&gt;Node8</title>
<path fill="none" stroke="#191970" d="M1073,-168.2455C1073,-160.9382 1073,-150.6944 1073,-141.7046"/>
<polygon fill="#191970" stroke="#191970" points="1076.5001,-141.6426 1073,-131.6427 1069.5001,-141.6427 1076.5001,-141.6426"/>
</g>
<!-- Node6 -->
<g id="node7" class="node">
<title>Node6</title>
<g id="a_node7"><a xlink:href="../../d5/d93/GPUCommonDefSettings_8h.html" target="_top" xlink:title="GPUCommonDefSettings.h">
<polygon fill="none" stroke="#000000" points="1071,-.5 1071,-19.5 1209,-19.5 1209,-.5 1071,-.5"/>
<text text-anchor="middle" x="1140" y="-7.5" font-family="Helvetica,sans-Serif" font-size="10.00" fill="#000000">GPUCommonDefSettings.h</text>
</a>
</g>
</g>
<!-- Node5&#45;&gt;Node6 -->
<g id="edge7" class="edge">
<title>Node5&#45;&gt;Node6</title>
<path fill="none" stroke="#191970" d="M1201.1102,-56.2455C1190.0746,-47.8943 1173.9708,-35.7076 1161.0647,-25.9408"/>
<polygon fill="#191970" stroke="#191970" points="1162.8283,-22.8862 1152.7421,-19.6427 1158.6041,-28.4681 1162.8283,-22.8862"/>
</g>
<!-- Node7 -->
<g id="node8" class="node">
<title>Node7</title>
<g id="a_node8"><a xlink:href="../../da/d5a/GPUCommonDefAPI_8h.html" target="_top" xlink:title="GPUCommonDefAPI.h">
<polygon fill="none" stroke="#000000" points="1227.5,-.5 1227.5,-19.5 1346.5,-19.5 1346.5,-.5 1227.5,-.5"/>
<text text-anchor="middle" x="1287" y="-7.5" font-family="Helvetica,sans-Serif" font-size="10.00" fill="#000000">GPUCommonDefAPI.h</text>
</a>
</g>
</g>
<!-- Node5&#45;&gt;Node7 -->
<g id="edge8" class="edge">
<title>Node5&#45;&gt;Node7</title>
<path fill="none" stroke="#191970" d="M1226.7156,-56.2455C1237.602,-47.8943 1253.4883,-35.7076 1266.22,-25.9408"/>
<polygon fill="#191970" stroke="#191970" points="1268.6261,-28.5063 1274.4301,-19.6427 1264.3654,-22.9523 1268.6261,-28.5063"/>
</g>
<!-- Node9&#45;&gt;Node3 -->
<g id="edge11" class="edge">
<title>Node9&#45;&gt;Node3</title>
<path fill="none" stroke="#191970" d="M546.1749,-291.372C598.7652,-274.8359 705.353,-237.9368 786,-188 808.565,-174.0277 831.105,-153.4045 845.7077,-138.9396"/>
<polygon fill="#191970" stroke="#191970" points="848.4068,-141.1881 852.9535,-131.6184 843.4314,-136.264 848.4068,-141.1881"/>
</g>
<!-- Node9&#45;&gt;Node5 -->
<g id="edge37" class="edge">
<title>Node9&#45;&gt;Node5</title>
<path fill="none" stroke="#191970" d="M460.65,-291.4541C405.8123,-278.4906 323.2113,-249.4656 285,-188 268.1664,-160.9219 305.7258,-117.8799 315,-112 350.3345,-89.5974 955.7479,-72.4837 1152.6612,-67.4889"/>
<polygon fill="#191970" stroke="#191970" points="1152.9246,-70.9834 1162.8332,-67.2324 1152.7481,-63.9856 1152.9246,-70.9834"/>
</g>
<!-- Node10 -->
<g id="node11" class="node">
<title>Node10</title>
<polygon fill="none" stroke="#bfbfbf" points="61,-56.5 61,-75.5 105,-75.5 105,-56.5 61,-56.5"/>
<text text-anchor="middle" x="83" y="-63.5" font-family="Helvetica,sans-Serif" font-size="10.00" fill="#000000">cmath</text>
</g>
<!-- Node9&#45;&gt;Node10 -->
<g id="edge12" class="edge">
<title>Node9&#45;&gt;Node10</title>
<path fill="none" stroke="#191970" d="M453.84,-294.5495C385.5135,-286.5753 278.7436,-271.961 242,-255 222.5217,-246.0087 222.2773,-236.7177 205,-224 144.1381,-179.2 98.2017,-198.3373 62,-132 53.7631,-116.9064 61.2809,-98.0814 69.5226,-84.4033"/>
<polygon fill="#191970" stroke="#191970" points="72.5707,-86.139 75.1594,-75.8652 66.7289,-82.2823 72.5707,-86.139"/>
</g>
<!-- Node11 -->
<g id="node12" class="node">
<title>Node11</title>
<polygon fill="none" stroke="#bfbfbf" points="1330.5,-168.5 1330.5,-187.5 1379.5,-187.5 1379.5,-168.5 1330.5,-168.5"/>
<text text-anchor="middle" x="1355" y="-175.5" font-family="Helvetica,sans-Serif" font-size="10.00" fill="#000000">cassert</text>
</g>
<!-- Node9&#45;&gt;Node11 -->
<g id="edge13" class="edge">
<title>Node9&#45;&gt;Node11</title>
<path fill="none" stroke="#191970" d="M574.3404,-299.1155C674.5739,-295.2591 881.4489,-284.2132 1054,-255 1152.1308,-238.3863 1265.1731,-205.7201 1320.6524,-188.7724"/>
<polygon fill="#191970" stroke="#191970" points="1321.7955,-192.0828 1330.3252,-185.7983 1319.7382,-185.3919 1321.7955,-192.0828"/>
</g>
<!-- Node12 -->
<g id="node13" class="node">
<title>Node12</title>
<polygon fill="none" stroke="#bfbfbf" points="142,-230 142,-249 196,-249 196,-230 142,-230"/>
<text text-anchor="middle" x="169" y="-237" font-family="Helvetica,sans-Serif" font-size="10.00" fill="#000000">iostream</text>
</g>
<!-- Node9&#45;&gt;Node12 -->
<g id="edge14" class="edge">
<title>Node9&#45;&gt;Node12</title>
<path fill="none" stroke="#191970" d="M453.8279,-295.6811C391.9467,-289.333 293.1429,-276.7451 210,-255 207.1702,-254.2599 204.2659,-253.3926 201.3732,-252.453"/>
<polygon fill="#191970" stroke="#191970" points="202.3031,-249.0701 191.7083,-249.0597 199.9842,-255.6749 202.3031,-249.0701"/>
</g>
<!-- Node13 -->
<g id="node14" class="node">
<title>Node13</title>
<g id="a_node14"><a xlink:href="../../d9/d52/Common_2MathUtils_2include_2MathUtils_2Utils_8h.html" target="_top" xlink:title="MathUtils/Utils.h">
<polygon fill="none" stroke="#000000" points="469,-230 469,-249 559,-249 559,-230 469,-230"/>
<text text-anchor="middle" x="514" y="-237" font-family="Helvetica,sans-Serif" font-size="10.00" fill="#000000">MathUtils/Utils.h</text>
</a>
</g>
</g>
<!-- Node9&#45;&gt;Node13 -->
<g id="edge15" class="edge">
<title>Node9&#45;&gt;Node13</title>
<path fill="none" stroke="#191970" d="M514,-291.3906C514,-282.8657 514,-270.1392 514,-259.4235"/>
<polygon fill="#191970" stroke="#191970" points="517.5001,-259.2448 514,-249.2449 510.5001,-259.2449 517.5001,-259.2448"/>
</g>
<!-- Node19 -->
<g id="node20" class="node">
<title>Node19</title>
<g id="a_node20"><a xlink:href="../../d6/da2/GPUCommonMath_8h.html" target="_top" xlink:title="GPUCommonMath.h">
<polygon fill="none" stroke="#000000" points="104,-112.5 104,-131.5 212,-131.5 212,-112.5 104,-112.5"/>
<text text-anchor="middle" x="158" y="-119.5" font-family="Helvetica,sans-Serif" font-size="10.00" fill="#000000">GPUCommonMath.h</text>
</a>
</g>
</g>
<!-- Node9&#45;&gt;Node19 -->
<g id="edge36" class="edge">
<title>Node9&#45;&gt;Node19</title>
<path fill="none" stroke="#191970" d="M453.8077,-293.0009C396.3039,-284.6232 314.3219,-270.5392 286,-255 233.7751,-226.346 189.9065,-169.1823 169.7935,-140.0181"/>
<polygon fill="#191970" stroke="#191970" points="172.6117,-137.9372 164.1176,-131.6047 166.8088,-141.8521 172.6117,-137.9372"/>
</g>
<!-- Node9&#45;&gt;Node22 -->
<g id="edge30" class="edge">
<title>Node9&#45;&gt;Node22</title>
<path fill="none" stroke="#191970" d="M574.0032,-293.1485C660.4707,-281.8341 819.8603,-260.9778 912.3759,-248.8721"/>
<polygon fill="#191970" stroke="#191970" points="913.0298,-252.3165 922.4911,-247.5485 912.1215,-245.3756 913.0298,-252.3165"/>
</g>
<!-- Node14 -->
<g id="node15" class="node">
<title>Node14</title>
<g id="a_node15"><a xlink:href="../../de/def/bitOps_8h.html" target="_top" xlink:title="MathUtils/detail/bitOps.h">
<polygon fill="none" stroke="#000000" points="294.5,-168.5 294.5,-187.5 419.5,-187.5 419.5,-168.5 294.5,-168.5"/>
<text text-anchor="middle" x="357" y="-175.5" font-family="Helvetica,sans-Serif" font-size="10.00" fill="#000000">MathUtils/detail/bitOps.h</text>
</a>
</g>
</g>
<!-- Node13&#45;&gt;Node14 -->
<g id="edge16" class="edge">
<title>Node13&#45;&gt;Node14</title>
<path fill="none" stroke="#191970" d="M489.4688,-229.8906C462.9693,-219.5103 420.5669,-202.9004 390.893,-191.2766"/>
<polygon fill="#191970" stroke="#191970" points="391.9467,-187.9304 381.359,-187.5419 389.3935,-194.4482 391.9467,-187.9304"/>
</g>
<!-- Node16 -->
<g id="node17" class="node">
<title>Node16</title>
<g id="a_node17"><a xlink:href="../../d3/dfc/StatAccumulator_8h.html" target="_top" xlink:title="MathUtils/detail/StatAccumulator.h">
<polygon fill="none" stroke="#000000" points="608.5,-168.5 608.5,-187.5 777.5,-187.5 777.5,-168.5 608.5,-168.5"/>
<text text-anchor="middle" x="693" y="-175.5" font-family="Helvetica,sans-Serif" font-size="10.00" fill="#000000">MathUtils/detail/StatAccumulator.h</text>
</a>
</g>
</g>
<!-- Node13&#45;&gt;Node16 -->
<g id="edge18" class="edge">
<title>Node13&#45;&gt;Node16</title>
<path fill="none" stroke="#191970" d="M541.9688,-229.8906C572.5755,-219.3749 621.7899,-202.466 655.6741,-190.8243"/>
<polygon fill="#191970" stroke="#191970" points="656.9076,-194.1014 665.2276,-187.5419 654.633,-187.4812 656.9076,-194.1014"/>
</g>
<!-- Node18 -->
<g id="node19" class="node">
<title>Node18</title>
<g id="a_node19"><a xlink:href="../../dd/d7d/trigonometric_8h.html" target="_top" xlink:title="MathUtils/detail/trigonometric.h">
<polygon fill="none" stroke="#000000" points="438,-168.5 438,-187.5 590,-187.5 590,-168.5 438,-168.5"/>
<text text-anchor="middle" x="514" y="-175.5" font-family="Helvetica,sans-Serif" font-size="10.00" fill="#000000">MathUtils/detail/trigonometric.h</text>
</a>
</g>
</g>
<!-- Node13&#45;&gt;Node18 -->
<g id="edge20" class="edge">
<title>Node13&#45;&gt;Node18</title>
<path fill="none" stroke="#191970" d="M514,-229.8906C514,-221.3657 514,-208.6392 514,-197.9235"/>
<polygon fill="#191970" stroke="#191970" points="517.5001,-197.7448 514,-187.7449 510.5001,-197.7449 517.5001,-197.7448"/>
</g>
<!-- Node15 -->
<g id="node16" class="node">
<title>Node15</title>
<polygon fill="none" stroke="#bfbfbf" points="324,-112.5 324,-131.5 370,-131.5 370,-112.5 324,-112.5"/>
<text text-anchor="middle" x="347" y="-119.5" font-family="Helvetica,sans-Serif" font-size="10.00" fill="#000000">cstdint</text>
</g>
<!-- Node14&#45;&gt;Node15 -->
<g id="edge17" class="edge">
<title>Node14&#45;&gt;Node15</title>
<path fill="none" stroke="#191970" d="M355.2581,-168.2455C353.9533,-160.9382 352.124,-150.6944 350.5187,-141.7046"/>
<polygon fill="#191970" stroke="#191970" points="353.9254,-140.8717 348.7219,-131.6427 347.0344,-142.1022 353.9254,-140.8717"/>
</g>
<!-- Node17 -->
<g id="node18" class="node">
<title>Node17</title>
<polygon fill="none" stroke="#bfbfbf" points="671,-112.5 671,-131.5 709,-131.5 709,-112.5 671,-112.5"/>
<text text-anchor="middle" x="690" y="-119.5" font-family="Helvetica,sans-Serif" font-size="10.00" fill="#000000">tuple</text>
</g>
<!-- Node16&#45;&gt;Node17 -->
<g id="edge19" class="edge">
<title>Node16&#45;&gt;Node17</title>
<path fill="none" stroke="#191970" d="M692.4774,-168.2455C692.086,-160.9382 691.5372,-150.6944 691.0556,-141.7046"/>
<polygon fill="#191970" stroke="#191970" points="694.5466,-141.4411 690.5166,-131.6427 687.5566,-141.8156 694.5466,-141.4411"/>
</g>
<!-- Node18&#45;&gt;Node3 -->
<g id="edge21" class="edge">
<title>Node18&#45;&gt;Node3</title>
<path fill="none" stroke="#191970" d="M573.4279,-168.4369C648.748,-156.3164 775.6289,-135.8988 832.6715,-126.7195"/>
<polygon fill="#191970" stroke="#191970" points="833.4808,-130.1344 842.7977,-125.09 832.3686,-123.2233 833.4808,-130.1344"/>
</g>
<!-- Node18&#45;&gt;Node5 -->
<g id="edge24" class="edge">
<title>Node18&#45;&gt;Node5</title>
<path fill="none" stroke="#191970" d="M534.9785,-168.4217C574.2259,-150.5336 655.4089,-113.6922 662,-112 753.3905,-88.5367 1029.016,-74.0157 1152.7316,-68.5144"/>
<polygon fill="#191970" stroke="#191970" points="1152.9613,-72.0078 1162.7978,-68.0718 1152.6537,-65.0145 1152.9613,-72.0078"/>
</g>
<!-- Node18&#45;&gt;Node10 -->
<g id="edge22" class="edge">
<title>Node18&#45;&gt;Node10</title>
<path fill="none" stroke="#191970" d="M493.0647,-168.3787C473.3367,-159.24 443.0056,-145.0028 417,-132 399.9296,-123.4648 397.1664,-117.8504 379,-112 268.7963,-76.5092 234.5159,-98.7724 121,-76 119.0938,-75.6176 117.141,-75.1964 115.1757,-74.7498"/>
<polygon fill="#191970" stroke="#191970" points="115.9463,-71.3352 105.4018,-72.3668 114.2882,-78.136 115.9463,-71.3352"/>
</g>
<!-- Node18&#45;&gt;Node17 -->
<g id="edge23" class="edge">
<title>Node18&#45;&gt;Node17</title>
<path fill="none" stroke="#191970" d="M544.2555,-168.3733C577.069,-157.9326 629.0608,-141.3898 661.2663,-131.1425"/>
<polygon fill="#191970" stroke="#191970" points="662.51,-134.4198 670.9781,-128.0524 660.3876,-127.7493 662.51,-134.4198"/>
</g>
<!-- Node18&#45;&gt;Node19 -->
<g id="edge25" class="edge">
<title>Node18&#45;&gt;Node19</title>
<path fill="none" stroke="#191970" d="M453.2059,-168.4369C388.9257,-158.3254 287.9358,-142.4393 222.3424,-132.1213"/>
<polygon fill="#191970" stroke="#191970" points="222.5524,-128.6113 212.13,-130.5148 221.4646,-135.5263 222.5524,-128.6113"/>
</g>
<!-- Node21 -->
<g id="node22" class="node">
<title>Node21</title>
<g id="a_node22"><a xlink:href="../../d6/d84/MathConstants_8h.html" target="_top" xlink:title="useful math constants ">
<polygon fill="none" stroke="#000000" points="426.5,-112.5 426.5,-131.5 605.5,-131.5 605.5,-112.5 426.5,-112.5"/>
<text text-anchor="middle" x="516" y="-119.5" font-family="Helvetica,sans-Serif" font-size="10.00" fill="#000000">CommonConstants/MathConstants.h</text>
</a>
</g>
</g>
<!-- Node18&#45;&gt;Node21 -->
<g id="edge29" class="edge">
<title>Node18&#45;&gt;Node21</title>
<path fill="none" stroke="#191970" d="M514.3484,-168.2455C514.6093,-160.9382 514.9752,-150.6944 515.2963,-141.7046"/>
<polygon fill="#191970" stroke="#191970" points="518.7964,-141.7613 515.6556,-131.6427 511.8008,-141.5113 518.7964,-141.7613"/>
</g>
<!-- Node19&#45;&gt;Node5 -->
<g id="edge26" class="edge">
<title>Node19&#45;&gt;Node5</title>
<path fill="none" stroke="#191970" d="M212.1312,-113.5438C216.8149,-112.9626 221.4866,-112.4358 226,-112 575.6139,-78.2388 997.3058,-69.0614 1152.6845,-66.7362"/>
<polygon fill="#191970" stroke="#191970" points="1153.0211,-70.2318 1162.9691,-66.5866 1152.9192,-63.2325 1153.0211,-70.2318"/>
</g>
<!-- Node19&#45;&gt;Node10 -->
<g id="edge27" class="edge">
<title>Node19&#45;&gt;Node10</title>
<path fill="none" stroke="#191970" d="M144.936,-112.2455C133.6438,-103.814 117.1155,-91.4729 103.9729,-81.6598"/>
<polygon fill="#191970" stroke="#191970" points="106.0211,-78.8211 95.9143,-75.6427 101.8331,-84.4301 106.0211,-78.8211"/>
</g>
<!-- Node20 -->
<g id="node21" class="node">
<title>Node20</title>
<polygon fill="none" stroke="#bfbfbf" points="130,-56.5 130,-75.5 186,-75.5 186,-56.5 130,-56.5"/>
<text text-anchor="middle" x="158" y="-63.5" font-family="Helvetica,sans-Serif" font-size="10.00" fill="#000000">algorithm</text>
</g>
<!-- Node19&#45;&gt;Node20 -->
<g id="edge28" class="edge">
<title>Node19&#45;&gt;Node20</title>
<path fill="none" stroke="#191970" d="M158,-112.2455C158,-104.9382 158,-94.6944 158,-85.7046"/>
<polygon fill="#191970" stroke="#191970" points="161.5001,-85.6426 158,-75.6427 154.5001,-85.6427 161.5001,-85.6426"/>
</g>
<!-- Node22&#45;&gt;Node4 -->
<g id="edge33" class="edge">
<title>Node22&#45;&gt;Node4</title>
<path fill="none" stroke="#191970" d="M997.9063,-229.8906C1012.0138,-220.1421 1034.0724,-204.8994 1050.6385,-193.4521"/>
<polygon fill="#191970" stroke="#191970" points="1052.9542,-196.1063 1059.1914,-187.5419 1048.9747,-190.3474 1052.9542,-196.1063"/>
</g>
<!-- Node22&#45;&gt;Node5 -->
<g id="edge35" class="edge">
<title>Node22&#45;&gt;Node5</title>
<path fill="none" stroke="#191970" d="M1024.6874,-229.9738C1065.7051,-219.7526 1125.5168,-202.9663 1144,-188 1177.8601,-160.5826 1198.5242,-112.1226 1207.9391,-85.2687"/>
<polygon fill="#191970" stroke="#191970" points="1211.3498,-86.1048 1211.1951,-75.511 1204.7097,-83.889 1211.3498,-86.1048"/>
</g>
<!-- Node22&#45;&gt;Node19 -->
<g id="edge34" class="edge">
<title>Node22&#45;&gt;Node19</title>
<path fill="none" stroke="#191970" d="M922.3487,-238.1398C774.6413,-234.3705 403.9665,-221.7471 285,-188 245.7855,-176.8761 204.6795,-152.9078 180.2083,-137.1239"/>
<polygon fill="#191970" stroke="#191970" points="181.9613,-134.0878 171.6826,-131.5192 178.1161,-139.9371 181.9613,-134.0878"/>
</g>
<!-- Node23 -->
<g id="node24" class="node">
<title>Node23</title>
<polygon fill="none" stroke="#bfbfbf" points="947.5,-168.5 947.5,-187.5 992.5,-187.5 992.5,-168.5 947.5,-168.5"/>
<text text-anchor="middle" x="970" y="-175.5" font-family="Helvetica,sans-Serif" font-size="10.00" fill="#000000">climits</text>
</g>
<!-- Node22&#45;&gt;Node23 -->
<g id="edge31" class="edge">
<title>Node22&#45;&gt;Node23</title>
<path fill="none" stroke="#191970" d="M981.8125,-229.8906C979.8514,-221.276 976.9137,-208.3708 974.4585,-197.5858"/>
<polygon fill="#191970" stroke="#191970" points="977.8507,-196.7185 972.2183,-187.7449 971.0254,-198.2723 977.8507,-196.7185"/>
</g>
<!-- Node24 -->
<g id="node25" class="node">
<title>Node24</title>
<polygon fill="none" stroke="#bfbfbf" points="1192,-168.5 1192,-187.5 1236,-187.5 1236,-168.5 1192,-168.5"/>
<text text-anchor="middle" x="1214" y="-175.5" font-family="Helvetica,sans-Serif" font-size="10.00" fill="#000000">vector</text>
</g>
<!-- Node22&#45;&gt;Node24 -->
<g id="edge32" class="edge">
<title>Node22&#45;&gt;Node24</title>
<path fill="none" stroke="#191970" d="M1020.5041,-229.9429C1059.5239,-219.696 1123.1852,-202.8883 1178,-188 1179.2676,-187.6557 1180.56,-187.3033 1181.8652,-186.9462"/>
<polygon fill="#191970" stroke="#191970" points="1183.2149,-190.2049 1191.9263,-184.1747 1181.3558,-183.4562 1183.2149,-190.2049"/>
</g>
<!-- Node25&#45;&gt;Node3 -->
<g id="edge40" class="edge">
<title>Node25&#45;&gt;Node3</title>
<path fill="none" stroke="#191970" d="M934.4405,-291.3242C925.1025,-282.7925 912.4841,-269.4901 906,-255 890.0808,-219.4248 909.2403,-204.2798 895,-168 890.9914,-157.7874 884.2044,-147.735 877.8241,-139.6449"/>
<polygon fill="#191970" stroke="#191970" points="880.306,-137.1563 871.2112,-131.7217 874.9318,-141.6417 880.306,-137.1563"/>
</g>
<!-- Node25&#45;&gt;Node10 -->
<g id="edge43" class="edge">
<title>Node25&#45;&gt;Node10</title>
<path fill="none" stroke="#191970" d="M877.7941,-298.7099C783.225,-294.5925 607.2751,-283.5206 460,-255 357.1454,-235.0817 332.9211,-222.5026 234,-188 171.1126,-166.0656 137.0776,-183.6277 95,-132 84.5498,-119.178 82.0016,-100.2678 81.8038,-85.9718"/>
<polygon fill="#191970" stroke="#191970" points="85.3092,-85.7792 82.0432,-75.7004 78.3111,-85.6161 85.3092,-85.7792"/>
</g>
<!-- Node25&#45;&gt;Node22 -->
<g id="edge44" class="edge">
<title>Node25&#45;&gt;Node22</title>
<path fill="none" stroke="#191970" d="M951.9375,-291.3906C957.4267,-282.5068 965.7353,-269.0601 972.519,-258.0811"/>
<polygon fill="#191970" stroke="#191970" points="975.6998,-259.5917 977.9788,-249.2449 969.7449,-255.9122 975.6998,-259.5917"/>
</g>
<!-- Node25&#45;&gt;Node23 -->
<g id="edge41" class="edge">
<title>Node25&#45;&gt;Node23</title>
<path fill="none" stroke="#191970" d="M936.4604,-291.4044C923.0796,-276.725 901.5843,-247.882 913,-224 919.1448,-211.1449 930.8299,-200.7306 942.0285,-193.0832"/>
<polygon fill="#191970" stroke="#191970" points="944.2041,-195.8488 950.79,-187.5495 940.4661,-189.9304 944.2041,-195.8488"/>
</g>
<!-- Node25&#45;&gt;Node24 -->
<g id="edge42" class="edge">
<title>Node25&#45;&gt;Node24</title>
<path fill="none" stroke="#191970" d="M969.3086,-291.4351C991.2732,-282.3362 1025.0435,-268.126 1054,-255 1100.5641,-233.8925 1153.946,-207.8176 1185.7702,-192.0698"/>
<polygon fill="#191970" stroke="#191970" points="1187.5191,-195.1093 1194.9232,-187.531 1184.4093,-188.838 1187.5191,-195.1093"/>
</g>
<!-- Node26&#45;&gt;Node2 -->
<g id="edge46" class="edge">
<title>Node26&#45;&gt;Node2</title>
<path fill="none" stroke="#191970" d="M490.0833,-403.4369C535.4546,-393.8127 605.4886,-378.957 654.0766,-368.6504"/>
<polygon fill="#191970" stroke="#191970" points="655.0466,-372.0226 664.1027,-366.5237 653.5941,-365.175 655.0466,-372.0226"/>
</g>
<!-- Node26&#45;&gt;Node5 -->
<g id="edge49" class="edge">
<title>Node26&#45;&gt;Node5</title>
<path fill="none" stroke="#191970" d="M388.171,-404.1407C283.6201,-385.0531 76.4081,-332.6935 133,-224 173.0861,-147.0083 210.8903,-140.1535 293,-112 373.7651,-84.3075 959.4607,-70.8254 1152.486,-67.1"/>
<polygon fill="#191970" stroke="#191970" points="1152.8047,-70.5947 1162.736,-66.9043 1152.6709,-63.596 1152.8047,-70.5947"/>
</g>
<!-- Node26&#45;&gt;Node12 -->
<g id="edge47" class="edge">
<title>Node26&#45;&gt;Node12</title>
<path fill="none" stroke="#191970" d="M429.7679,-403.4248C384.1522,-374.7497 248.3844,-289.4029 192.9638,-254.5642"/>
<polygon fill="#191970" stroke="#191970" points="194.5139,-251.4046 184.185,-249.0457 190.7885,-257.3309 194.5139,-251.4046"/>
</g>
<!-- Node26&#45;&gt;Node19 -->
<g id="edge48" class="edge">
<title>Node26&#45;&gt;Node19</title>
<path fill="none" stroke="#191970" d="M388.1884,-410.5794C268.222,-403.9169 0,-380.1684 0,-301 0,-301 0,-301 0,-239.5 0,-183.1713 65.461,-150.6753 112.1125,-134.6688"/>
<polygon fill="#191970" stroke="#191970" points="113.3444,-137.9482 121.7516,-131.5008 111.1587,-131.2981 113.3444,-137.9482"/>
</g>
<!-- Node27&#45;&gt;Node2 -->
<g id="edge53" class="edge">
<title>Node27&#45;&gt;Node2</title>
<path fill="none" stroke="#191970" d="M911.7258,-459.4964C880.6477,-451.9022 838.6236,-439.7476 804,-423 775.7512,-409.3359 746.5946,-387.7639 728.1625,-373.0279"/>
<polygon fill="#191970" stroke="#191970" points="730.2248,-370.1938 720.2582,-366.5996 725.8081,-375.6246 730.2248,-370.1938"/>
</g>
<!-- Node27&#45;&gt;Node3 -->
<g id="edge51" class="edge">
<title>Node27&#45;&gt;Node3</title>
<path fill="none" stroke="#191970" d="M925.3733,-459.44C884.7174,-444.6165 818,-411.9235 818,-357 818,-357 818,-357 818,-301 818,-269.5548 843.9299,-180.901 855.9786,-141.4043"/>
<polygon fill="#191970" stroke="#191970" points="859.3823,-142.2432 858.9757,-131.6562 852.6914,-140.186 859.3823,-142.2432"/>
</g>
<!-- Node27&#45;&gt;Node4 -->
<g id="edge54" class="edge">
<title>Node27&#45;&gt;Node4</title>
<path fill="none" stroke="#191970" d="M994.963,-459.3825C1041.1691,-445.3709 1112,-414.5125 1112,-357 1112,-357 1112,-357 1112,-301 1112,-262.5571 1094.4754,-220.3836 1082.9209,-196.7553"/>
<polygon fill="#191970" stroke="#191970" points="1085.9017,-194.8943 1078.2597,-187.556 1079.6576,-198.0583 1085.9017,-194.8943"/>
</g>
<!-- Node27&#45;&gt;Node19 -->
<g id="edge56" class="edge">
<title>Node27&#45;&gt;Node19</title>
<path fill="none" stroke="#191970" d="M904.9648,-459.4732C732.8205,-426.8414 181.5629,-318.1073 133,-255 106.8529,-221.0219 130.6858,-167.9042 146.5303,-140.1986"/>
<polygon fill="#191970" stroke="#191970" points="149.5838,-141.9117 151.7065,-131.5317 143.5741,-138.3224 149.5838,-141.9117"/>
</g>
<!-- Node27&#45;&gt;Node24 -->
<g id="edge52" class="edge">
<title>Node27&#45;&gt;Node24</title>
<path fill="none" stroke="#191970" d="M1020.0704,-459.495C1046.5969,-452.8933 1076.19,-441.7544 1098,-423 1170.1934,-360.921 1200.7287,-243.9418 1210.3604,-197.6119"/>
<polygon fill="#191970" stroke="#191970" points="1213.8213,-198.1522 1212.3282,-187.6631 1206.9543,-196.7939 1213.8213,-198.1522"/>
</g>
<!-- Node27&#45;&gt;Node26 -->
<g id="edge55" class="edge">
<title>Node27&#45;&gt;Node26</title>
<path fill="none" stroke="#191970" d="M889.4578,-461.7077C791.5633,-450.9795 609.7619,-431.0561 511.7493,-420.315"/>
<polygon fill="#191970" stroke="#191970" points="511.9875,-416.8202 501.6657,-419.2099 511.2249,-423.7786 511.9875,-416.8202"/>
</g>
<!-- Node28&#45;&gt;Node5 -->
<g id="edge59" class="edge">
<title>Node28&#45;&gt;Node5</title>
<path fill="none" stroke="#191970" d="M1516.9698,-520.9675C1499.6593,-466.6813 1413.2089,-197.9073 1389,-168 1353.1015,-123.6516 1292.4116,-94.546 1252.7754,-79.1761"/>
<polygon fill="#191970" stroke="#191970" points="1253.7719,-75.8114 1243.18,-75.5635 1251.3054,-82.3625 1253.7719,-75.8114"/>
</g>
<!-- Node29 -->
<g id="node30" class="node">
<title>Node29</title>
<polygon fill="none" stroke="#bfbfbf" points="1330.5,-459.5 1330.5,-478.5 1421.5,-478.5 1421.5,-459.5 1330.5,-459.5"/>
<text text-anchor="middle" x="1376" y="-466.5" font-family="Helvetica,sans-Serif" font-size="10.00" fill="#000000">hip/hip_runtime.h</text>
</g>
<!-- Node28&#45;&gt;Node29 -->
<g id="edge58" class="edge">
<title>Node28&#45;&gt;Node29</title>
<path fill="none" stroke="#191970" d="M1497.5,-520.8906C1473.4062,-510.6005 1434.9787,-494.1888 1407.7992,-482.5809"/>
<polygon fill="#191970" stroke="#191970" points="1408.9131,-479.2508 1398.342,-478.5419 1406.1637,-485.6883 1408.9131,-479.2508"/>
</g>
<!-- Node30&#45;&gt;Node5 -->
<g id="edge62" class="edge">
<title>Node30&#45;&gt;Node5</title>
<path fill="none" stroke="#191970" d="M1347.9551,-515.4535C1339.0083,-505.7632 1328.0625,-492.4926 1321,-479 1306.8443,-451.9562 1302,-443.5246 1302,-413 1302,-413 1302,-413 1302,-178 1302,-146.7875 1296.8442,-136.8821 1278,-112 1268.3609,-99.2724 1254.2133,-88.591 1241.6694,-80.7344"/>
<polygon fill="#191970" stroke="#191970" points="1243.2905,-77.6264 1232.9063,-75.5241 1239.713,-83.6432 1243.2905,-77.6264"/>
</g>
<!-- Node30&#45;&gt;Node27 -->
<g id="edge63" class="edge">
<title>Node30&#45;&gt;Node27</title>
<path fill="none" stroke="#191970" d="M1291.6403,-519.7171C1217.9357,-508.58 1103.4876,-491.2862 1029.1363,-480.0513"/>
<polygon fill="#191970" stroke="#191970" points="1029.3303,-476.541 1018.9196,-478.5075 1028.2844,-483.4624 1029.3303,-476.541"/>
</g>
<!-- Node30&#45;&gt;Node29 -->
<g id="edge61" class="edge">
<title>Node30&#45;&gt;Node29</title>
<path fill="none" stroke="#191970" d="M1366.2135,-515.2977C1367.9052,-507.2945 1370.0001,-497.3843 1371.817,-488.7889"/>
<polygon fill="#191970" stroke="#191970" points="1375.2747,-489.3546 1373.9185,-478.8469 1368.426,-487.9069 1375.2747,-489.3546"/>
</g>
<!-- Node31&#45;&gt;Node5 -->
<g id="edge65" class="edge">
<title>Node31&#45;&gt;Node5</title>
<path fill="none" stroke="#191970" d="M1497.702,-224.4689C1489.5798,-214.3505 1478.8435,-200.6035 1470,-188 1447.0533,-155.2968 1454.6866,-134.9703 1422,-112 1398.6188,-95.569 1327.6674,-82.2125 1275.1,-74.2064"/>
<polygon fill="#191970" stroke="#191970" points="1275.5902,-70.7409 1265.183,-72.7257 1274.5564,-77.6641 1275.5902,-70.7409"/>
</g>
<!-- Node32 -->
<g id="node33" class="node">
<title>Node32</title>
<g id="a_node33"><a xlink:href="../../d8/d28/UtilsHIP_8h.html" target="_top" xlink:title="ITStrackingHIP/UtilsHIP.h">
<polygon fill="none" stroke="#000000" points="1512.5,-168.5 1512.5,-187.5 1645.5,-187.5 1645.5,-168.5 1512.5,-168.5"/>
<text text-anchor="middle" x="1579" y="-175.5" font-family="Helvetica,sans-Serif" font-size="10.00" fill="#000000">ITStrackingHIP/UtilsHIP.h</text>
</a>
</g>
</g>
<!-- Node31&#45;&gt;Node32 -->
<g id="edge66" class="edge">
<title>Node31&#45;&gt;Node32</title>
<path fill="none" stroke="#191970" d="M1527.0562,-224.2977C1537.1329,-215.3163 1549.904,-203.9334 1560.2611,-194.702"/>
<polygon fill="#191970" stroke="#191970" points="1562.8159,-197.1135 1567.9522,-187.8469 1558.1583,-191.8879 1562.8159,-197.1135"/>
</g>
<!-- Node32&#45;&gt;Node5 -->
<g id="edge67" class="edge">
<title>Node32&#45;&gt;Node5</title>
<path fill="none" stroke="#191970" d="M1570.1577,-168.0346C1556.3508,-153.1785 1528.116,-125.5265 1498,-112 1459.2409,-94.5915 1346.5652,-80.005 1275.3387,-72.1784"/>
<polygon fill="#191970" stroke="#191970" points="1275.4633,-68.6715 1265.1443,-71.0731 1274.7088,-75.6307 1275.4633,-68.6715"/>
</g>
<!-- Node33 -->
<g id="node34" class="node">
<title>Node33</title>
<g id="a_node34"><a xlink:href="../../d4/dac/StreamHIP_8h.html" target="_top" xlink:title="ITStrackingHIP/StreamHIP.h">
<polygon fill="none" stroke="#000000" points="1607,-112.5 1607,-131.5 1751,-131.5 1751,-112.5 1607,-112.5"/>
<text text-anchor="middle" x="1679" y="-119.5" font-family="Helvetica,sans-Serif" font-size="10.00" fill="#000000">ITStrackingHIP/StreamHIP.h</text>
</a>
</g>
</g>
<!-- Node32&#45;&gt;Node33 -->
<g id="edge68" class="edge">
<title>Node32&#45;&gt;Node33</title>
<path fill="none" stroke="#191970" d="M1596.4187,-168.2455C1612.0485,-159.4928 1635.2019,-146.527 1653.0185,-136.5496"/>
<polygon fill="#191970" stroke="#191970" points="1654.766,-139.5825 1661.7809,-131.6427 1651.3457,-133.475 1654.766,-139.5825"/>
</g>
<!-- Node34 -->
<g id="node35" class="node">
<title>Node34</title>
<polygon fill="none" stroke="#bfbfbf" points="1574.5,-56.5 1574.5,-75.5 1683.5,-75.5 1683.5,-56.5 1574.5,-56.5"/>
<text text-anchor="middle" x="1629" y="-63.5" font-family="Helvetica,sans-Serif" font-size="10.00" fill="#000000">hip/hip_runtime_api.h</text>
</g>
<!-- Node32&#45;&gt;Node34 -->
<g id="edge70" class="edge">
<title>Node32&#45;&gt;Node34</title>
<path fill="none" stroke="#191970" d="M1580.8066,-168.2637C1583.4727,-155.0807 1589.125,-131.0167 1598,-112 1602.606,-102.1306 1609.1925,-92.0038 1615.1106,-83.7731"/>
<polygon fill="#191970" stroke="#191970" points="1617.9685,-85.7956 1621.1448,-75.6881 1612.3586,-81.6087 1617.9685,-85.7956"/>
</g>
<!-- Node33&#45;&gt;Node34 -->
<g id="edge69" class="edge">
<title>Node33&#45;&gt;Node34</title>
<path fill="none" stroke="#191970" d="M1670.2907,-112.2455C1663.1927,-104.2958 1652.9916,-92.8706 1644.505,-83.3656"/>
<polygon fill="#191970" stroke="#191970" points="1646.8805,-80.771 1637.6095,-75.6427 1641.6589,-85.4331 1646.8805,-80.771"/>
</g>
<!-- Node35&#45;&gt;Node5 -->
<g id="edge78" class="edge">
<title>Node35&#45;&gt;Node5</title>
<path fill="none" stroke="#191970" d="M1631.6261,-229.9507C1588.6324,-219.4955 1524.7755,-202.312 1504,-188 1468.7856,-163.7412 1481.3742,-134.4825 1445,-112 1417.1906,-94.8113 1334.0001,-81.1488 1275.4608,-73.3134"/>
<polygon fill="#191970" stroke="#191970" points="1275.5711,-69.7979 1265.2004,-71.9656 1274.6593,-76.7383 1275.5711,-69.7979"/>
</g>
<!-- Node35&#45;&gt;Node11 -->
<g id="edge72" class="edge">
<title>Node35&#45;&gt;Node11</title>
<path fill="none" stroke="#191970" d="M1624.5417,-229.9638C1614.4493,-227.9857 1603.8785,-225.9197 1594,-224 1521.3103,-209.8739 1436.1417,-193.5316 1389.6427,-184.6271"/>
<polygon fill="#191970" stroke="#191970" points="1390.2579,-181.1814 1379.7782,-182.7386 1388.9417,-188.0566 1390.2579,-181.1814"/>
</g>
<!-- Node35&#45;&gt;Node24 -->
<g id="edge75" class="edge">
<title>Node35&#45;&gt;Node24</title>
<path fill="none" stroke="#191970" d="M1627.5664,-229.9947C1616.6037,-227.865 1604.9057,-225.7276 1594,-224 1465.9212,-203.7111 1312.3081,-187.6254 1246.5054,-181.1235"/>
<polygon fill="#191970" stroke="#191970" points="1246.6456,-177.6206 1236.3517,-180.1277 1245.9623,-184.5871 1246.6456,-177.6206"/>
</g>
<!-- Node35&#45;&gt;Node32 -->
<g id="edge77" class="edge">
<title>Node35&#45;&gt;Node32</title>
<path fill="none" stroke="#191970" d="M1658.3125,-229.8906C1643.2744,-220.0519 1619.6824,-204.6167 1602.1333,-193.1351"/>
<polygon fill="#191970" stroke="#191970" points="1603.8687,-190.088 1593.5844,-187.5419 1600.0363,-195.9457 1603.8687,-190.088"/>
</g>
<!-- Node35&#45;&gt;Node33 -->
<g id="edge76" class="edge">
<title>Node35&#45;&gt;Node33</title>
<path fill="none" stroke="#191970" d="M1723.7985,-229.9927C1747.5659,-222.7243 1773.7265,-210.0314 1788,-188 1804.8771,-161.9498 1770.5115,-144.6289 1736.0036,-134.2939"/>
<polygon fill="#191970" stroke="#191970" points="1736.8837,-130.9057 1726.3093,-131.5627 1734.9855,-137.6434 1736.8837,-130.9057"/>
</g>
<!-- Node36 -->
<g id="node37" class="node">
<title>Node36</title>
<polygon fill="none" stroke="#bfbfbf" points="1663.5,-168.5 1663.5,-187.5 1698.5,-187.5 1698.5,-168.5 1663.5,-168.5"/>
<text text-anchor="middle" x="1681" y="-175.5" font-family="Helvetica,sans-Serif" font-size="10.00" fill="#000000">new</text>
</g>
<!-- Node35&#45;&gt;Node36 -->
<g id="edge73" class="edge">
<title>Node35&#45;&gt;Node36</title>
<path fill="none" stroke="#191970" d="M1674.25,-229.8906C1675.3589,-221.3657 1677.0144,-208.6392 1678.4083,-197.9235"/>
<polygon fill="#191970" stroke="#191970" points="1681.9131,-198.1128 1679.7324,-187.7449 1674.9716,-197.2098 1681.9131,-198.1128"/>
</g>
<!-- Node37 -->
<g id="node38" class="node">
<title>Node37</title>
<polygon fill="none" stroke="#bfbfbf" points="1717,-168.5 1717,-187.5 1779,-187.5 1779,-168.5 1717,-168.5"/>
<text text-anchor="middle" x="1748" y="-175.5" font-family="Helvetica,sans-Serif" font-size="10.00" fill="#000000">type_traits</text>
</g>
<!-- Node35&#45;&gt;Node37 -->
<g id="edge74" class="edge">
<title>Node35&#45;&gt;Node37</title>
<path fill="none" stroke="#191970" d="M1684.7188,-229.8906C1696.3188,-220.3786 1714.2979,-205.6357 1728.1321,-194.2917"/>
<polygon fill="#191970" stroke="#191970" points="1730.6026,-196.7921 1736.116,-187.7449 1726.164,-191.3792 1730.6026,-196.7921"/>
</g>
</g>
</svg>
