<?xml version="1.0" encoding="UTF-8" standalone="no"?>
<!DOCTYPE svg PUBLIC "-//W3C//DTD SVG 1.1//EN"
 "http://www.w3.org/Graphics/SVG/1.1/DTD/svg11.dtd">
<!-- Generated by graphviz version 2.40.1 (20161225.0304)
 -->
<!-- Title: /home/runner/work/AliceO2/AliceO2/GPU/TPCFastTransformation/test/testSplines.cxx Pages: 1 -->
<svg width="809pt" height="442pt"
 viewBox="0.00 0.00 808.50 442.00" xmlns="http://www.w3.org/2000/svg" xmlns:xlink="http://www.w3.org/1999/xlink">
<g id="graph0" class="graph" transform="scale(1 1) rotate(0) translate(4 438)">
<title>/home/runner/work/AliceO2/AliceO2/GPU/TPCFastTransformation/test/testSplines.cxx</title>
<!-- Node0 -->
<g id="node1" class="node">
<title>Node0</title>
<polygon fill="#bfbfbf" stroke="#000000" points="175,-392.5 175,-433.5 362,-433.5 362,-392.5 175,-392.5"/>
<text text-anchor="start" x="183" y="-421.5" font-family="Helvetica,sans-Serif" font-size="10.00" fill="#000000">/home/runner/work/AliceO2</text>
<text text-anchor="start" x="183" y="-410.5" font-family="Helvetica,sans-Serif" font-size="10.00" fill="#000000">/AliceO2/GPU/TPCFastTransformation</text>
<text text-anchor="middle" x="268.5" y="-399.5" font-family="Helvetica,sans-Serif" font-size="10.00" fill="#000000">/test/testSplines.cxx</text>
</g>
<!-- Node1 -->
<g id="node2" class="node">
<title>Node1</title>
<polygon fill="none" stroke="#bfbfbf" points="121,-336.5 121,-355.5 240,-355.5 240,-336.5 121,-336.5"/>
<text text-anchor="middle" x="180.5" y="-343.5" font-family="Helvetica,sans-Serif" font-size="10.00" fill="#000000">boost/test/unit_test.hpp</text>
</g>
<!-- Node0&#45;&gt;Node1 -->
<g id="edge1" class="edge">
<title>Node0&#45;&gt;Node1</title>
<path fill="none" stroke="#191970" d="M241.1386,-392.168C228.309,-382.4001 213.2661,-370.9469 201.3728,-361.8918"/>
<polygon fill="#191970" stroke="#191970" points="203.4226,-359.0535 193.346,-355.7805 199.1822,-364.623 203.4226,-359.0535"/>
</g>
<!-- Node2 -->
<g id="node3" class="node">
<title>Node2</title>
<g id="a_node3"><a xlink:href="../../de/da6/Spline1D_8h.html" target="_top" xlink:title="Definition of Spline1D class. ">
<polygon fill="none" stroke="#000000" points="335,-224.5 335,-243.5 400,-243.5 400,-224.5 335,-224.5"/>
<text text-anchor="middle" x="367.5" y="-231.5" font-family="Helvetica,sans-Serif" font-size="10.00" fill="#000000">Spline1D.h</text>
</a>
</g>
</g>
<!-- Node0&#45;&gt;Node2 -->
<g id="edge2" class="edge">
<title>Node0&#45;&gt;Node2</title>
<path fill="none" stroke="#191970" d="M279.8566,-392.4664C299.2715,-357.3626 338.5507,-286.3427 357.2098,-252.6054"/>
<polygon fill="#191970" stroke="#191970" points="360.3167,-254.2196 362.0938,-243.7749 354.1912,-250.8317 360.3167,-254.2196"/>
</g>
<!-- Node19 -->
<g id="node20" class="node">
<title>Node19</title>
<g id="a_node20"><a xlink:href="../../dd/d27/Spline2D_8h.html" target="_top" xlink:title="Definition of Spline2D class. ">
<polygon fill="none" stroke="#000000" points="329,-336.5 329,-355.5 394,-355.5 394,-336.5 329,-336.5"/>
<text text-anchor="middle" x="361.5" y="-343.5" font-family="Helvetica,sans-Serif" font-size="10.00" fill="#000000">Spline2D.h</text>
</a>
</g>
</g>
<!-- Node0&#45;&gt;Node19 -->
<g id="edge20" class="edge">
<title>Node0&#45;&gt;Node19</title>
<path fill="none" stroke="#191970" d="M297.1619,-392.3511C310.9515,-382.4167 327.2079,-370.7051 339.9298,-361.5398"/>
<polygon fill="#191970" stroke="#191970" points="342.031,-364.3398 348.0988,-355.6546 337.9392,-358.6602 342.031,-364.3398"/>
</g>
<!-- Node3 -->
<g id="node4" class="node">
<title>Node3</title>
<g id="a_node4"><a xlink:href="../../d0/d51/Spline1DSpec_8h.html" target="_top" xlink:title="Definition of Spline1DSpec class. ">
<polygon fill="none" stroke="#000000" points="399,-168.5 399,-187.5 486,-187.5 486,-168.5 399,-168.5"/>
<text text-anchor="middle" x="442.5" y="-175.5" font-family="Helvetica,sans-Serif" font-size="10.00" fill="#000000">Spline1DSpec.h</text>
</a>
</g>
</g>
<!-- Node2&#45;&gt;Node3 -->
<g id="edge3" class="edge">
<title>Node2&#45;&gt;Node3</title>
<path fill="none" stroke="#191970" d="M380.564,-224.2455C391.8562,-215.814 408.3845,-203.4729 421.5271,-193.6598"/>
<polygon fill="#191970" stroke="#191970" points="423.6669,-196.4301 429.5857,-187.6427 419.4789,-190.8211 423.6669,-196.4301"/>
</g>
<!-- Node4 -->
<g id="node5" class="node">
<title>Node4</title>
<g id="a_node5"><a xlink:href="../../df/d21/GPUCommonDef_8h.html" target="_top" xlink:title="GPUCommonDef.h">
<polygon fill="none" stroke="#000000" points="539.5,-56.5 539.5,-75.5 641.5,-75.5 641.5,-56.5 539.5,-56.5"/>
<text text-anchor="middle" x="590.5" y="-63.5" font-family="Helvetica,sans-Serif" font-size="10.00" fill="#000000">GPUCommonDef.h</text>
</a>
</g>
</g>
<!-- Node3&#45;&gt;Node4 -->
<g id="edge4" class="edge">
<title>Node3&#45;&gt;Node4</title>
<path fill="none" stroke="#191970" d="M443.4999,-168.1195C445.4505,-153.8731 451.0318,-127.5684 466.5,-112 483.4874,-94.9025 507.3913,-84.0923 529.6839,-77.2879"/>
<polygon fill="#191970" stroke="#191970" points="530.7793,-80.6154 539.4471,-74.5228 528.8718,-73.8803 530.7793,-80.6154"/>
</g>
<!-- Node7 -->
<g id="node8" class="node">
<title>Node7</title>
<g id="a_node8"><a xlink:href="../../db/dff/FlatObject_8h.html" target="_top" xlink:title="Definition of FlatObject class. ">
<polygon fill="none" stroke="#000000" points="271.5,-112.5 271.5,-131.5 341.5,-131.5 341.5,-112.5 271.5,-112.5"/>
<text text-anchor="middle" x="306.5" y="-119.5" font-family="Helvetica,sans-Serif" font-size="10.00" fill="#000000">FlatObject.h</text>
</a>
</g>
</g>
<!-- Node3&#45;&gt;Node7 -->
<g id="edge7" class="edge">
<title>Node3&#45;&gt;Node7</title>
<path fill="none" stroke="#191970" d="M419.1208,-168.3733C396.9955,-159.2629 363.5866,-145.5062 338.8981,-135.3404"/>
<polygon fill="#191970" stroke="#191970" points="340.1536,-132.0723 329.5742,-131.5011 337.4883,-138.5451 340.1536,-132.0723"/>
</g>
<!-- Node17 -->
<g id="node18" class="node">
<title>Node17</title>
<g id="a_node18"><a xlink:href="../../db/d04/SplineUtil_8h.html" target="_top" xlink:title="SplineUtil.h">
<polygon fill="none" stroke="#000000" points="476,-112.5 476,-131.5 543,-131.5 543,-112.5 476,-112.5"/>
<text text-anchor="middle" x="509.5" y="-119.5" font-family="Helvetica,sans-Serif" font-size="10.00" fill="#000000">SplineUtil.h</text>
</a>
</g>
</g>
<!-- Node3&#45;&gt;Node17 -->
<g id="edge18" class="edge">
<title>Node3&#45;&gt;Node17</title>
<path fill="none" stroke="#191970" d="M454.1705,-168.2455C464.0661,-159.9746 478.4627,-147.9416 490.0901,-138.2232"/>
<polygon fill="#191970" stroke="#191970" points="492.535,-140.7413 497.9632,-131.6427 488.0458,-135.3703 492.535,-140.7413"/>
</g>
<!-- Node18 -->
<g id="node19" class="node">
<title>Node18</title>
<polygon fill="none" stroke="#bfbfbf" points="360,-112.5 360,-131.5 419,-131.5 419,-112.5 360,-112.5"/>
<text text-anchor="middle" x="389.5" y="-119.5" font-family="Helvetica,sans-Serif" font-size="10.00" fill="#000000">functional</text>
</g>
<!-- Node3&#45;&gt;Node18 -->
<g id="edge19" class="edge">
<title>Node3&#45;&gt;Node18</title>
<path fill="none" stroke="#191970" d="M433.2681,-168.2455C425.6683,-160.2155 414.7123,-148.6394 405.6632,-139.0781"/>
<polygon fill="#191970" stroke="#191970" points="408.042,-136.4998 398.6261,-131.6427 402.9579,-141.3115 408.042,-136.4998"/>
</g>
<!-- Node5 -->
<g id="node6" class="node">
<title>Node5</title>
<g id="a_node6"><a xlink:href="../../d5/d93/GPUCommonDefSettings_8h.html" target="_top" xlink:title="GPUCommonDefSettings.h">
<polygon fill="none" stroke="#000000" points="662.5,-.5 662.5,-19.5 800.5,-19.5 800.5,-.5 662.5,-.5"/>
<text text-anchor="middle" x="731.5" y="-7.5" font-family="Helvetica,sans-Serif" font-size="10.00" fill="#000000">GPUCommonDefSettings.h</text>
</a>
</g>
</g>
<!-- Node4&#45;&gt;Node5 -->
<g id="edge5" class="edge">
<title>Node4&#45;&gt;Node5</title>
<path fill="none" stroke="#191970" d="M614.7388,-56.3733C637.7789,-47.2226 672.6214,-33.3844 698.2501,-23.2057"/>
<polygon fill="#191970" stroke="#191970" points="699.5756,-26.4452 707.5775,-19.5011 696.9918,-19.9395 699.5756,-26.4452"/>
</g>
<!-- Node6 -->
<g id="node7" class="node">
<title>Node6</title>
<g id="a_node7"><a xlink:href="../../da/d5a/GPUCommonDefAPI_8h.html" target="_top" xlink:title="GPUCommonDefAPI.h">
<polygon fill="none" stroke="#000000" points="525,-.5 525,-19.5 644,-19.5 644,-.5 525,-.5"/>
<text text-anchor="middle" x="584.5" y="-7.5" font-family="Helvetica,sans-Serif" font-size="10.00" fill="#000000">GPUCommonDefAPI.h</text>
</a>
</g>
</g>
<!-- Node4&#45;&gt;Node6 -->
<g id="edge6" class="edge">
<title>Node4&#45;&gt;Node6</title>
<path fill="none" stroke="#191970" d="M589.4549,-56.2455C588.672,-48.9382 587.5744,-38.6944 586.6112,-29.7046"/>
<polygon fill="#191970" stroke="#191970" points="590.0786,-29.2129 585.5331,-19.6427 583.1185,-29.9587 590.0786,-29.2129"/>
</g>
<!-- Node7&#45;&gt;Node4 -->
<g id="edge12" class="edge">
<title>Node7&#45;&gt;Node4</title>
<path fill="none" stroke="#191970" d="M341.5409,-113.9229C344.5683,-113.2595 347.5864,-112.6101 350.5,-112 411.1703,-99.2953 480.764,-86.1087 529.333,-77.1287"/>
<polygon fill="#191970" stroke="#191970" points="530.1679,-80.5338 539.3672,-75.278 528.8982,-73.6499 530.1679,-80.5338"/>
</g>
<!-- Node8 -->
<g id="node9" class="node">
<title>Node8</title>
<polygon fill="none" stroke="#bfbfbf" points="0,-56.5 0,-75.5 49,-75.5 49,-56.5 0,-56.5"/>
<text text-anchor="middle" x="24.5" y="-63.5" font-family="Helvetica,sans-Serif" font-size="10.00" fill="#000000">cstddef</text>
</g>
<!-- Node7&#45;&gt;Node8 -->
<g id="edge8" class="edge">
<title>Node7&#45;&gt;Node8</title>
<path fill="none" stroke="#191970" d="M271.3518,-116.6473C224.9591,-109.328 140.5917,-95.1404 59.2104,-75.9763"/>
<polygon fill="#191970" stroke="#191970" points="59.8425,-72.529 49.3034,-73.6147 58.2192,-79.3382 59.8425,-72.529"/>
</g>
<!-- Node9 -->
<g id="node10" class="node">
<title>Node9</title>
<polygon fill="none" stroke="#bfbfbf" points="67.5,-56.5 67.5,-75.5 119.5,-75.5 119.5,-56.5 67.5,-56.5"/>
<text text-anchor="middle" x="93.5" y="-63.5" font-family="Helvetica,sans-Serif" font-size="10.00" fill="#000000">memory</text>
</g>
<!-- Node7&#45;&gt;Node9 -->
<g id="edge9" class="edge">
<title>Node7&#45;&gt;Node9</title>
<path fill="none" stroke="#191970" d="M271.3056,-113.1854C237.3842,-104.6276 184.3674,-91.0903 129.712,-76.2864"/>
<polygon fill="#191970" stroke="#191970" points="130.4212,-72.8523 119.8532,-73.607 128.5852,-79.6073 130.4212,-72.8523"/>
</g>
<!-- Node10 -->
<g id="node11" class="node">
<title>Node10</title>
<polygon fill="none" stroke="#bfbfbf" points="137.5,-56.5 137.5,-75.5 183.5,-75.5 183.5,-56.5 137.5,-56.5"/>
<text text-anchor="middle" x="160.5" y="-63.5" font-family="Helvetica,sans-Serif" font-size="10.00" fill="#000000">cstring</text>
</g>
<!-- Node7&#45;&gt;Node10 -->
<g id="edge10" class="edge">
<title>Node7&#45;&gt;Node10</title>
<path fill="none" stroke="#191970" d="M281.4017,-112.3733C257.1107,-103.0562 220.1505,-88.8797 193.4911,-78.6541"/>
<polygon fill="#191970" stroke="#191970" points="194.4161,-75.2603 183.8259,-74.9469 191.9092,-81.7961 194.4161,-75.2603"/>
</g>
<!-- Node11 -->
<g id="node12" class="node">
<title>Node11</title>
<polygon fill="none" stroke="#bfbfbf" points="202,-56.5 202,-75.5 251,-75.5 251,-56.5 202,-56.5"/>
<text text-anchor="middle" x="226.5" y="-63.5" font-family="Helvetica,sans-Serif" font-size="10.00" fill="#000000">cassert</text>
</g>
<!-- Node7&#45;&gt;Node11 -->
<g id="edge11" class="edge">
<title>Node7&#45;&gt;Node11</title>
<path fill="none" stroke="#191970" d="M292.5651,-112.2455C280.4053,-103.7337 262.5536,-91.2375 248.4715,-81.3801"/>
<polygon fill="#191970" stroke="#191970" points="250.4747,-78.51 240.2752,-75.6427 246.4605,-84.2447 250.4747,-78.51"/>
</g>
<!-- Node12 -->
<g id="node13" class="node">
<title>Node12</title>
<g id="a_node13"><a xlink:href="../../d2/d45/GPUCommonRtypes_8h.html" target="_top" xlink:title="GPUCommonRtypes.h">
<polygon fill="none" stroke="#000000" points="269.5,-56.5 269.5,-75.5 387.5,-75.5 387.5,-56.5 269.5,-56.5"/>
<text text-anchor="middle" x="328.5" y="-63.5" font-family="Helvetica,sans-Serif" font-size="10.00" fill="#000000">GPUCommonRtypes.h</text>
</a>
</g>
</g>
<!-- Node7&#45;&gt;Node12 -->
<g id="edge13" class="edge">
<title>Node7&#45;&gt;Node12</title>
<path fill="none" stroke="#191970" d="M310.3321,-112.2455C313.2659,-104.7776 317.4047,-94.2427 320.991,-85.1137"/>
<polygon fill="#191970" stroke="#191970" points="324.3129,-86.23 324.7118,-75.6427 317.7976,-83.6704 324.3129,-86.23"/>
</g>
<!-- Node14 -->
<g id="node15" class="node">
<title>Node14</title>
<g id="a_node15"><a xlink:href="../../df/d5b/GPUCommonLogger_8h.html" target="_top" xlink:title="GPUCommonLogger.h">
<polygon fill="none" stroke="#000000" points="405.5,-56.5 405.5,-75.5 521.5,-75.5 521.5,-56.5 405.5,-56.5"/>
<text text-anchor="middle" x="463.5" y="-63.5" font-family="Helvetica,sans-Serif" font-size="10.00" fill="#000000">GPUCommonLogger.h</text>
</a>
</g>
</g>
<!-- Node7&#45;&gt;Node14 -->
<g id="edge15" class="edge">
<title>Node7&#45;&gt;Node14</title>
<path fill="none" stroke="#191970" d="M333.4893,-112.3733C359.3699,-103.1419 398.6248,-89.1402 427.2289,-78.9375"/>
<polygon fill="#191970" stroke="#191970" points="428.62,-82.1573 436.8629,-75.5011 426.2683,-75.5642 428.62,-82.1573"/>
</g>
<!-- Node13 -->
<g id="node14" class="node">
<title>Node13</title>
<polygon fill="none" stroke="#bfbfbf" points="300.5,-.5 300.5,-19.5 356.5,-19.5 356.5,-.5 300.5,-.5"/>
<text text-anchor="middle" x="328.5" y="-7.5" font-family="Helvetica,sans-Serif" font-size="10.00" fill="#000000">Rtypes.h</text>
</g>
<!-- Node12&#45;&gt;Node13 -->
<g id="edge14" class="edge">
<title>Node12&#45;&gt;Node13</title>
<path fill="none" stroke="#191970" d="M328.5,-56.2455C328.5,-48.9382 328.5,-38.6944 328.5,-29.7046"/>
<polygon fill="#191970" stroke="#191970" points="332.0001,-29.6426 328.5,-19.6427 325.0001,-29.6427 332.0001,-29.6426"/>
</g>
<!-- Node15 -->
<g id="node16" class="node">
<title>Node15</title>
<polygon fill="none" stroke="#bfbfbf" points="441.5,-.5 441.5,-19.5 495.5,-19.5 495.5,-.5 441.5,-.5"/>
<text text-anchor="middle" x="468.5" y="-7.5" font-family="Helvetica,sans-Serif" font-size="10.00" fill="#000000">iostream</text>
</g>
<!-- Node14&#45;&gt;Node15 -->
<g id="edge16" class="edge">
<title>Node14&#45;&gt;Node15</title>
<path fill="none" stroke="#191970" d="M464.3709,-56.2455C465.0234,-48.9382 465.938,-38.6944 466.7407,-29.7046"/>
<polygon fill="#191970" stroke="#191970" points="470.2358,-29.9143 467.639,-19.6427 463.2635,-29.2918 470.2358,-29.9143"/>
</g>
<!-- Node16 -->
<g id="node17" class="node">
<title>Node16</title>
<polygon fill="none" stroke="#bfbfbf" points="380,-.5 380,-19.5 423,-19.5 423,-.5 380,-.5"/>
<text text-anchor="middle" x="401.5" y="-7.5" font-family="Helvetica,sans-Serif" font-size="10.00" fill="#000000">cstdio</text>
</g>
<!-- Node14&#45;&gt;Node16 -->
<g id="edge17" class="edge">
<title>Node14&#45;&gt;Node16</title>
<path fill="none" stroke="#191970" d="M452.7004,-56.2455C443.6322,-48.0549 430.4794,-36.1749 419.7755,-26.5069"/>
<polygon fill="#191970" stroke="#191970" points="421.9429,-23.7482 412.1758,-19.6427 417.2509,-28.9429 421.9429,-23.7482"/>
</g>
<!-- Node19&#45;&gt;Node2 -->
<g id="edge21" class="edge">
<title>Node19&#45;&gt;Node2</title>
<path fill="none" stroke="#191970" d="M362.0116,-336.4509C362.9901,-318.184 365.1453,-277.9553 366.4448,-253.6976"/>
<polygon fill="#191970" stroke="#191970" points="369.9497,-253.6978 366.9897,-243.5249 362.9597,-253.3233 369.9497,-253.6978"/>
</g>
<!-- Node19&#45;&gt;Node4 -->
<g id="edge28" class="edge">
<title>Node19&#45;&gt;Node4</title>
<path fill="none" stroke="#191970" d="M394.1767,-338.4981C461.5194,-322.0872 609.5,-280.7112 609.5,-234 609.5,-234 609.5,-234 609.5,-178 609.5,-145.2688 601.5148,-107.9052 595.8978,-85.6716"/>
<polygon fill="#191970" stroke="#191970" points="599.2289,-84.5763 593.3035,-75.7934 592.4585,-86.3545 599.2289,-84.5763"/>
</g>
<!-- Node19&#45;&gt;Node7 -->
<g id="edge27" class="edge">
<title>Node19&#45;&gt;Node7</title>
<path fill="none" stroke="#191970" d="M357.4113,-336.3386C349.991,-318.4407 334.2659,-278.7801 325.5,-244 316.5453,-208.4708 311.0781,-165.9974 308.4334,-141.6925"/>
<polygon fill="#191970" stroke="#191970" points="311.9008,-141.1967 307.3866,-131.6117 304.9383,-141.9197 311.9008,-141.1967"/>
</g>
<!-- Node20 -->
<g id="node21" class="node">
<title>Node20</title>
<g id="a_node21"><a xlink:href="../../d7/d2f/Spline2DSpec_8h.html" target="_top" xlink:title="Definition of Spline2DSpec class. ">
<polygon fill="none" stroke="#000000" points="390,-280.5 390,-299.5 477,-299.5 477,-280.5 390,-280.5"/>
<text text-anchor="middle" x="433.5" y="-287.5" font-family="Helvetica,sans-Serif" font-size="10.00" fill="#000000">Spline2DSpec.h</text>
</a>
</g>
</g>
<!-- Node19&#45;&gt;Node20 -->
<g id="edge22" class="edge">
<title>Node19&#45;&gt;Node20</title>
<path fill="none" stroke="#191970" d="M374.0414,-336.2455C384.7787,-327.8943 400.4473,-315.7076 413.0047,-305.9408"/>
<polygon fill="#191970" stroke="#191970" points="415.3575,-308.5449 421.1023,-299.6427 411.0599,-303.0194 415.3575,-308.5449"/>
</g>
<!-- Node20&#45;&gt;Node2 -->
<g id="edge23" class="edge">
<title>Node20&#45;&gt;Node2</title>
<path fill="none" stroke="#191970" d="M422.0037,-280.2455C412.2558,-271.9746 398.0741,-259.9416 386.6202,-250.2232"/>
<polygon fill="#191970" stroke="#191970" points="388.7541,-247.4437 378.8646,-243.6427 384.2253,-252.7813 388.7541,-247.4437"/>
</g>
<!-- Node20&#45;&gt;Node4 -->
<g id="edge25" class="edge">
<title>Node20&#45;&gt;Node4</title>
<path fill="none" stroke="#191970" d="M446.7677,-280.4398C458.1883,-271.7809 474.6512,-258.2327 486.5,-244 530.08,-191.6516 566.3408,-118.7629 582.0799,-84.8042"/>
<polygon fill="#191970" stroke="#191970" points="585.3214,-86.1314 586.291,-75.581 578.9538,-83.224 585.3214,-86.1314"/>
</g>
<!-- Node20&#45;&gt;Node7 -->
<g id="edge24" class="edge">
<title>Node20&#45;&gt;Node7</title>
<path fill="none" stroke="#191970" d="M431.2486,-280.454C427.8003,-267.0707 420.338,-242.3177 408.5,-224 385.9605,-189.1233 349.8264,-156.6341 327.1649,-138.0717"/>
<polygon fill="#191970" stroke="#191970" points="329.182,-135.2025 319.1957,-131.6634 324.7954,-140.6576 329.182,-135.2025"/>
</g>
<!-- Node20&#45;&gt;Node17 -->
<g id="edge26" class="edge">
<title>Node20&#45;&gt;Node17</title>
<path fill="none" stroke="#191970" d="M440.8434,-280.4549C453.8627,-263.0579 480.9834,-224.6001 495.5,-188 501.438,-173.0288 505.0361,-155.0999 507.0948,-141.7094"/>
<polygon fill="#191970" stroke="#191970" points="510.577,-142.0786 508.4797,-131.6934 503.6429,-141.1198 510.577,-142.0786"/>
</g>
</g>
</svg>
