<?xml version="1.0" encoding="UTF-8" standalone="no"?>
<!DOCTYPE svg PUBLIC "-//W3C//DTD SVG 1.1//EN"
 "http://www.w3.org/Graphics/SVG/1.1/DTD/svg11.dtd">
<!-- Generated by graphviz version 2.40.1 (20161225.0304)
 -->
<!-- Title: /home/runner/work/AliceO2/AliceO2/DataFormats/Detectors/ITSMFT/common/include/DataFormatsITSMFT/TopologyDictionary.h Pages: 1 -->
<svg width="2540pt" height="428pt"
 viewBox="0.00 0.00 2539.50 428.00" xmlns="http://www.w3.org/2000/svg" xmlns:xlink="http://www.w3.org/1999/xlink">
<g id="graph0" class="graph" transform="scale(1 1) rotate(0) translate(4 424)">
<title>/home/runner/work/AliceO2/AliceO2/DataFormats/Detectors/ITSMFT/common/include/DataFormatsITSMFT/TopologyDictionary.h</title>
<!-- Node28 -->
<g id="node1" class="node">
<title>Node28</title>
<polygon fill="#bfbfbf" stroke="#000000" points="1339.5,-367.5 1339.5,-419.5 1565.5,-419.5 1565.5,-367.5 1339.5,-367.5"/>
<text text-anchor="start" x="1347.5" y="-407.5" font-family="Helvetica,sans-Serif" font-size="10.00" fill="#000000">/home/runner/work/AliceO2</text>
<text text-anchor="start" x="1347.5" y="-396.5" font-family="Helvetica,sans-Serif" font-size="10.00" fill="#000000">/AliceO2/DataFormats/Detectors</text>
<text text-anchor="start" x="1347.5" y="-385.5" font-family="Helvetica,sans-Serif" font-size="10.00" fill="#000000">/ITSMFT/common/include/DataFormatsITSMFT</text>
<text text-anchor="middle" x="1452.5" y="-374.5" font-family="Helvetica,sans-Serif" font-size="10.00" fill="#000000">/TopologyDictionary.h</text>
</g>
<!-- Node29 -->
<g id="node2" class="node">
<title>Node29</title>
<g id="a_node2"><a xlink:href="../../df/d48/TopologyDictionary_8cxx.html" target="_top" xlink:title="Implementation of the TopologyDictionary class. ">
<polygon fill="none" stroke="#000000" points="225.5,-284 225.5,-325 443.5,-325 443.5,-284 225.5,-284"/>
<text text-anchor="start" x="233.5" y="-313" font-family="Helvetica,sans-Serif" font-size="10.00" fill="#000000">/home/runner/work/AliceO2</text>
<text text-anchor="start" x="233.5" y="-302" font-family="Helvetica,sans-Serif" font-size="10.00" fill="#000000">/AliceO2/DataFormats/Detectors</text>
<text text-anchor="middle" x="334.5" y="-291" font-family="Helvetica,sans-Serif" font-size="10.00" fill="#000000">/ITSMFT/common/src/TopologyDictionary.cxx</text>
</a>
</g>
</g>
<!-- Node28&#45;&gt;Node29 -->
<g id="edge1" class="edge">
<title>Node28&#45;&gt;Node29</title>
<path fill="none" stroke="#191970" d="M1329.0825,-388.2368C1100.2262,-378.0701 618.2608,-354.6409 452.5,-331 441.3795,-329.414 429.7534,-327.3335 418.3188,-325.0345"/>
<polygon fill="#191970" stroke="#191970" points="1328.9743,-391.7353 1339.1194,-388.6814 1329.2841,-384.7422 1328.9743,-391.7353"/>
</g>
<!-- Node30 -->
<g id="node3" class="node">
<title>Node30</title>
<g id="a_node3"><a xlink:href="../../da/d20/TPCITSMatchingSpec_8h.html" target="_top" xlink:title="/home/runner/work/AliceO2\l/AliceO2/Detectors/GlobalTracking\lWorkflow/include/GlobalTrackingWorkflow\l/TPCITSMatchingSpec.h">
<polygon fill="none" stroke="#000000" points="462,-278.5 462,-330.5 663,-330.5 663,-278.5 462,-278.5"/>
<text text-anchor="start" x="470" y="-318.5" font-family="Helvetica,sans-Serif" font-size="10.00" fill="#000000">/home/runner/work/AliceO2</text>
<text text-anchor="start" x="470" y="-307.5" font-family="Helvetica,sans-Serif" font-size="10.00" fill="#000000">/AliceO2/Detectors/GlobalTracking</text>
<text text-anchor="start" x="470" y="-296.5" font-family="Helvetica,sans-Serif" font-size="10.00" fill="#000000">Workflow/include/GlobalTrackingWorkflow</text>
<text text-anchor="middle" x="562.5" y="-285.5" font-family="Helvetica,sans-Serif" font-size="10.00" fill="#000000">/TPCITSMatchingSpec.h</text>
</a>
</g>
</g>
<!-- Node28&#45;&gt;Node30 -->
<g id="edge2" class="edge">
<title>Node28&#45;&gt;Node30</title>
<path fill="none" stroke="#191970" d="M1328.9177,-388.5795C1176.5001,-381.3344 909.8019,-364.8204 683.5,-331 676.9067,-330.0146 670.1359,-328.8793 663.3273,-327.6449"/>
<polygon fill="#191970" stroke="#191970" points="1329.0879,-392.0912 1339.2411,-389.0643 1329.4164,-385.0989 1329.0879,-392.0912"/>
</g>
<!-- Node34 -->
<g id="node7" class="node">
<title>Node34</title>
<g id="a_node7"><a xlink:href="../../d9/d1d/BuildTopologyDictionary_8h.html" target="_top" xlink:title="Definition of the BuildTopologyDictionary class. ">
<polygon fill="none" stroke="#000000" points="693,-278.5 693,-330.5 932,-330.5 932,-278.5 693,-278.5"/>
<text text-anchor="start" x="701" y="-318.5" font-family="Helvetica,sans-Serif" font-size="10.00" fill="#000000">/home/runner/work/AliceO2</text>
<text text-anchor="start" x="701" y="-307.5" font-family="Helvetica,sans-Serif" font-size="10.00" fill="#000000">/AliceO2/Detectors/ITSMFT</text>
<text text-anchor="start" x="701" y="-296.5" font-family="Helvetica,sans-Serif" font-size="10.00" fill="#000000">/common/reconstruction/include</text>
<text text-anchor="middle" x="812.5" y="-285.5" font-family="Helvetica,sans-Serif" font-size="10.00" fill="#000000">/ITSMFTReconstruction/BuildTopologyDictionary.h</text>
</a>
</g>
</g>
<!-- Node28&#45;&gt;Node34 -->
<g id="edge6" class="edge">
<title>Node28&#45;&gt;Node34</title>
<path fill="none" stroke="#191970" d="M1329.3394,-379.4502C1230.1081,-367.7309 1087.0936,-349.9406 962.5,-331 952.6958,-329.5096 942.5453,-327.8872 932.3602,-326.2034"/>
<polygon fill="#191970" stroke="#191970" points="1329.065,-382.942 1339.4058,-380.636 1329.8839,-375.99 1329.065,-382.942"/>
</g>
<!-- Node36 -->
<g id="node9" class="node">
<title>Node36</title>
<g id="a_node9"><a xlink:href="../../df/ddf/LookUp_8h.html" target="_top" xlink:title="Definition of the LookUp class. ">
<polygon fill="none" stroke="#000000" points="972,-278.5 972,-330.5 1139,-330.5 1139,-278.5 972,-278.5"/>
<text text-anchor="start" x="980" y="-318.5" font-family="Helvetica,sans-Serif" font-size="10.00" fill="#000000">/home/runner/work/AliceO2</text>
<text text-anchor="start" x="980" y="-307.5" font-family="Helvetica,sans-Serif" font-size="10.00" fill="#000000">/AliceO2/Detectors/ITSMFT</text>
<text text-anchor="start" x="980" y="-296.5" font-family="Helvetica,sans-Serif" font-size="10.00" fill="#000000">/common/reconstruction/include</text>
<text text-anchor="middle" x="1055.5" y="-285.5" font-family="Helvetica,sans-Serif" font-size="10.00" fill="#000000">/ITSMFTReconstruction/LookUp.h</text>
</a>
</g>
</g>
<!-- Node28&#45;&gt;Node36 -->
<g id="edge8" class="edge">
<title>Node28&#45;&gt;Node36</title>
<path fill="none" stroke="#191970" d="M1329.2038,-368.3239C1276.7814,-357.3288 1215.0478,-343.9962 1159.5,-331 1152.878,-329.4507 1146.0301,-327.8045 1139.1554,-326.1205"/>
<polygon fill="#191970" stroke="#191970" points="1328.7144,-371.7973 1339.2194,-370.42 1330.1484,-364.9457 1328.7144,-371.7973"/>
</g>
<!-- Node54 -->
<g id="node27" class="node">
<title>Node54</title>
<g id="a_node27"><a xlink:href="../../d9/d45/TopologyFastSimulation_8h.html" target="_top" xlink:title="Definition of the TopologyFastSimulation class. ">
<polygon fill="none" stroke="#000000" points="1745.5,-278.5 1745.5,-330.5 1983.5,-330.5 1983.5,-278.5 1745.5,-278.5"/>
<text text-anchor="start" x="1753.5" y="-318.5" font-family="Helvetica,sans-Serif" font-size="10.00" fill="#000000">/home/runner/work/AliceO2</text>
<text text-anchor="start" x="1753.5" y="-307.5" font-family="Helvetica,sans-Serif" font-size="10.00" fill="#000000">/AliceO2/Detectors/ITSMFT</text>
<text text-anchor="start" x="1753.5" y="-296.5" font-family="Helvetica,sans-Serif" font-size="10.00" fill="#000000">/common/reconstruction/include</text>
<text text-anchor="middle" x="1864.5" y="-285.5" font-family="Helvetica,sans-Serif" font-size="10.00" fill="#000000">/ITSMFTReconstruction/TopologyFastSimulation.h</text>
</a>
</g>
</g>
<!-- Node28&#45;&gt;Node54 -->
<g id="edge27" class="edge">
<title>Node28&#45;&gt;Node54</title>
<path fill="none" stroke="#191970" d="M1575.5381,-366.9214C1629.2097,-355.3273 1691.9018,-341.7846 1745.1488,-330.2822"/>
<polygon fill="#191970" stroke="#191970" points="1574.6612,-363.53 1565.6258,-369.0626 1576.1393,-370.3722 1574.6612,-363.53"/>
</g>
<!-- Node56 -->
<g id="node29" class="node">
<title>Node56</title>
<g id="a_node29"><a xlink:href="../../d7/dca/CookedTracker_8cxx.html" target="_top" xlink:title="Implementation of the &quot;Cooked Matrix&quot; ITS tracker. ">
<polygon fill="none" stroke="#000000" points="2002,-284 2002,-325 2207,-325 2207,-284 2002,-284"/>
<text text-anchor="start" x="2010" y="-313" font-family="Helvetica,sans-Serif" font-size="10.00" fill="#000000">/home/runner/work/AliceO2</text>
<text text-anchor="start" x="2010" y="-302" font-family="Helvetica,sans-Serif" font-size="10.00" fill="#000000">/AliceO2/Detectors/ITSMFT</text>
<text text-anchor="middle" x="2104.5" y="-291" font-family="Helvetica,sans-Serif" font-size="10.00" fill="#000000">/ITS/reconstruction/src/CookedTracker.cxx</text>
</a>
</g>
</g>
<!-- Node28&#45;&gt;Node56 -->
<g id="edge29" class="edge">
<title>Node28&#45;&gt;Node56</title>
<path fill="none" stroke="#191970" d="M1575.6527,-383.3851C1685.4899,-373.3817 1850.4163,-355.9431 1992.5,-331 2002.3402,-329.2725 2012.609,-327.209 2022.7636,-325.0065"/>
<polygon fill="#191970" stroke="#191970" points="1575.1735,-379.914 1565.5292,-384.3002 1575.8038,-386.8856 1575.1735,-379.914"/>
</g>
<!-- Node57 -->
<g id="node30" class="node">
<title>Node57</title>
<g id="a_node30"><a xlink:href="../../d5/d13/ITS_2tracking_2src_2IOUtils_8cxx.html" target="_top" xlink:title="/home/runner/work/AliceO2\l/AliceO2/Detectors/ITSMFT\l/ITS/tracking/src/IOUtils.cxx">
<polygon fill="none" stroke="#000000" points="2225.5,-284 2225.5,-325 2367.5,-325 2367.5,-284 2225.5,-284"/>
<text text-anchor="start" x="2233.5" y="-313" font-family="Helvetica,sans-Serif" font-size="10.00" fill="#000000">/home/runner/work/AliceO2</text>
<text text-anchor="start" x="2233.5" y="-302" font-family="Helvetica,sans-Serif" font-size="10.00" fill="#000000">/AliceO2/Detectors/ITSMFT</text>
<text text-anchor="middle" x="2296.5" y="-291" font-family="Helvetica,sans-Serif" font-size="10.00" fill="#000000">/ITS/tracking/src/IOUtils.cxx</text>
</a>
</g>
</g>
<!-- Node28&#45;&gt;Node57 -->
<g id="edge30" class="edge">
<title>Node28&#45;&gt;Node57</title>
<path fill="none" stroke="#191970" d="M1575.7917,-386.9935C1759.8315,-376.672 2097.4904,-355.2173 2216.5,-331 2224.2421,-329.4246 2232.2776,-327.3346 2240.1382,-325.0174"/>
<polygon fill="#191970" stroke="#191970" points="1575.5809,-383.4998 1565.7916,-387.5519 1575.9712,-390.4889 1575.5809,-383.4998"/>
</g>
<!-- Node58 -->
<g id="node31" class="node">
<title>Node58</title>
<g id="a_node31"><a xlink:href="../../d2/d0b/CookedTrackerSpec_8h.html" target="_top" xlink:title="/home/runner/work/AliceO2\l/AliceO2/Detectors/ITSMFT\l/ITS/workflow/include/ITSWorkflow\l/CookedTrackerSpec.h">
<polygon fill="none" stroke="#000000" points="1367,-278.5 1367,-330.5 1538,-330.5 1538,-278.5 1367,-278.5"/>
<text text-anchor="start" x="1375" y="-318.5" font-family="Helvetica,sans-Serif" font-size="10.00" fill="#000000">/home/runner/work/AliceO2</text>
<text text-anchor="start" x="1375" y="-307.5" font-family="Helvetica,sans-Serif" font-size="10.00" fill="#000000">/AliceO2/Detectors/ITSMFT</text>
<text text-anchor="start" x="1375" y="-296.5" font-family="Helvetica,sans-Serif" font-size="10.00" fill="#000000">/ITS/workflow/include/ITSWorkflow</text>
<text text-anchor="middle" x="1452.5" y="-285.5" font-family="Helvetica,sans-Serif" font-size="10.00" fill="#000000">/CookedTrackerSpec.h</text>
</a>
</g>
</g>
<!-- Node28&#45;&gt;Node58 -->
<g id="edge31" class="edge">
<title>Node28&#45;&gt;Node58</title>
<path fill="none" stroke="#191970" d="M1452.5,-357.1155C1452.5,-348.2061 1452.5,-338.8475 1452.5,-330.5341"/>
<polygon fill="#191970" stroke="#191970" points="1449.0001,-357.2784 1452.5,-367.2784 1456.0001,-357.2785 1449.0001,-357.2784"/>
</g>
<!-- Node60 -->
<g id="node33" class="node">
<title>Node60</title>
<g id="a_node33"><a xlink:href="../../de/d90/ITSMFT_2ITS_2workflow_2include_2ITSWorkflow_2TrackerSpec_8h.html" target="_top" xlink:title="/home/runner/work/AliceO2\l/AliceO2/Detectors/ITSMFT\l/ITS/workflow/include/ITSWorkflow\l/TrackerSpec.h">
<polygon fill="none" stroke="#000000" points="1556,-278.5 1556,-330.5 1727,-330.5 1727,-278.5 1556,-278.5"/>
<text text-anchor="start" x="1564" y="-318.5" font-family="Helvetica,sans-Serif" font-size="10.00" fill="#000000">/home/runner/work/AliceO2</text>
<text text-anchor="start" x="1564" y="-307.5" font-family="Helvetica,sans-Serif" font-size="10.00" fill="#000000">/AliceO2/Detectors/ITSMFT</text>
<text text-anchor="start" x="1564" y="-296.5" font-family="Helvetica,sans-Serif" font-size="10.00" fill="#000000">/ITS/workflow/include/ITSWorkflow</text>
<text text-anchor="middle" x="1641.5" y="-285.5" font-family="Helvetica,sans-Serif" font-size="10.00" fill="#000000">/TrackerSpec.h</text>
</a>
</g>
</g>
<!-- Node28&#45;&gt;Node60 -->
<g id="edge34" class="edge">
<title>Node28&#45;&gt;Node60</title>
<path fill="none" stroke="#191970" d="M1517.0455,-363.1055C1539.4843,-352.5391 1564.4363,-340.7893 1586.0718,-330.6011"/>
<polygon fill="#191970" stroke="#191970" points="1515.4852,-359.9716 1507.9292,-367.3984 1518.4674,-366.3046 1515.4852,-359.9716"/>
</g>
<!-- Node62 -->
<g id="node35" class="node">
<title>Node62</title>
<g id="a_node35"><a xlink:href="../../dd/d79/MFT_2tracking_2src_2IOUtils_8cxx.html" target="_top" xlink:title="/home/runner/work/AliceO2\l/AliceO2/Detectors/ITSMFT\l/MFT/tracking/src/IOUtils.cxx">
<polygon fill="none" stroke="#000000" points="2385.5,-284 2385.5,-325 2531.5,-325 2531.5,-284 2385.5,-284"/>
<text text-anchor="start" x="2393.5" y="-313" font-family="Helvetica,sans-Serif" font-size="10.00" fill="#000000">/home/runner/work/AliceO2</text>
<text text-anchor="start" x="2393.5" y="-302" font-family="Helvetica,sans-Serif" font-size="10.00" fill="#000000">/AliceO2/Detectors/ITSMFT</text>
<text text-anchor="middle" x="2458.5" y="-291" font-family="Helvetica,sans-Serif" font-size="10.00" fill="#000000">/MFT/tracking/src/IOUtils.cxx</text>
</a>
</g>
</g>
<!-- Node28&#45;&gt;Node62 -->
<g id="edge37" class="edge">
<title>Node28&#45;&gt;Node62</title>
<path fill="none" stroke="#191970" d="M1575.6419,-388.9144C1790.818,-380.2765 2226.6158,-359.8346 2376.5,-331 2384.4335,-329.4738 2392.6686,-327.4123 2400.7251,-325.1093"/>
<polygon fill="#191970" stroke="#191970" points="1575.4166,-385.4205 1565.5642,-389.3167 1575.6959,-392.4149 1575.4166,-385.4205"/>
</g>
<!-- Node63 -->
<g id="node36" class="node">
<title>Node63</title>
<g id="a_node36"><a xlink:href="../../d8/da1/ITSMFT_2MFT_2workflow_2include_2MFTWorkflow_2TrackerSpec_8h.html" target="_top" xlink:title="/home/runner/work/AliceO2\l/AliceO2/Detectors/ITSMFT\l/MFT/workflow/include/MFTWorkflow\l/TrackerSpec.h">
<polygon fill="none" stroke="#000000" points="1168.5,-278.5 1168.5,-330.5 1348.5,-330.5 1348.5,-278.5 1168.5,-278.5"/>
<text text-anchor="start" x="1176.5" y="-318.5" font-family="Helvetica,sans-Serif" font-size="10.00" fill="#000000">/home/runner/work/AliceO2</text>
<text text-anchor="start" x="1176.5" y="-307.5" font-family="Helvetica,sans-Serif" font-size="10.00" fill="#000000">/AliceO2/Detectors/ITSMFT</text>
<text text-anchor="start" x="1176.5" y="-296.5" font-family="Helvetica,sans-Serif" font-size="10.00" fill="#000000">/MFT/workflow/include/MFTWorkflow</text>
<text text-anchor="middle" x="1258.5" y="-285.5" font-family="Helvetica,sans-Serif" font-size="10.00" fill="#000000">/TrackerSpec.h</text>
</a>
</g>
</g>
<!-- Node28&#45;&gt;Node63 -->
<g id="edge38" class="edge">
<title>Node28&#45;&gt;Node63</title>
<path fill="none" stroke="#191970" d="M1386.2469,-363.1055C1363.2145,-352.5391 1337.6025,-340.7893 1315.3946,-330.6011"/>
<polygon fill="#191970" stroke="#191970" points="1385.0558,-366.4098 1395.6044,-367.3984 1387.9747,-360.0474 1385.0558,-366.4098"/>
</g>
<!-- Node31 -->
<g id="node4" class="node">
<title>Node31</title>
<g id="a_node4"><a xlink:href="../../df/de7/AODProducerWorkflow_8cxx.html" target="_top" xlink:title="/home/runner/work/AliceO2\l/AliceO2/Detectors/AOD\l/src/AODProducerWorkflow.cxx">
<polygon fill="none" stroke="#000000" points="484,-195 484,-236 641,-236 641,-195 484,-195"/>
<text text-anchor="start" x="492" y="-224" font-family="Helvetica,sans-Serif" font-size="10.00" fill="#000000">/home/runner/work/AliceO2</text>
<text text-anchor="start" x="492" y="-213" font-family="Helvetica,sans-Serif" font-size="10.00" fill="#000000">/AliceO2/Detectors/AOD</text>
<text text-anchor="middle" x="562.5" y="-202" font-family="Helvetica,sans-Serif" font-size="10.00" fill="#000000">/src/AODProducerWorkflow.cxx</text>
</a>
</g>
</g>
<!-- Node30&#45;&gt;Node31 -->
<g id="edge3" class="edge">
<title>Node30&#45;&gt;Node31</title>
<path fill="none" stroke="#191970" d="M562.5,-268.1335C562.5,-257.2443 562.5,-245.6825 562.5,-236.1771"/>
<polygon fill="#191970" stroke="#191970" points="559.0001,-268.2784 562.5,-278.2784 566.0001,-268.2785 559.0001,-268.2784"/>
</g>
<!-- Node32 -->
<g id="node5" class="node">
<title>Node32</title>
<g id="a_node5"><a xlink:href="../../d5/db4/MatchTPCITSWorkflow_8cxx.html" target="_top" xlink:title="/home/runner/work/AliceO2\l/AliceO2/Detectors/GlobalTracking\lWorkflow/src/MatchTPCITSWorkflow.cxx">
<polygon fill="none" stroke="#000000" points="53.5,-195 53.5,-236 253.5,-236 253.5,-195 53.5,-195"/>
<text text-anchor="start" x="61.5" y="-224" font-family="Helvetica,sans-Serif" font-size="10.00" fill="#000000">/home/runner/work/AliceO2</text>
<text text-anchor="start" x="61.5" y="-213" font-family="Helvetica,sans-Serif" font-size="10.00" fill="#000000">/AliceO2/Detectors/GlobalTracking</text>
<text text-anchor="middle" x="153.5" y="-202" font-family="Helvetica,sans-Serif" font-size="10.00" fill="#000000">Workflow/src/MatchTPCITSWorkflow.cxx</text>
</a>
</g>
</g>
<!-- Node30&#45;&gt;Node32 -->
<g id="edge4" class="edge">
<title>Node30&#45;&gt;Node32</title>
<path fill="none" stroke="#191970" d="M451.9902,-277.9379C366.8057,-259.9223 343.4715,-259.5018 262.5,-242 253.9341,-240.1485 245.0117,-238.1291 236.1228,-236.058"/>
<polygon fill="#191970" stroke="#191970" points="451.3269,-281.3751 461.8373,-280.04 452.7883,-274.5293 451.3269,-281.3751"/>
</g>
<!-- Node33 -->
<g id="node6" class="node">
<title>Node33</title>
<g id="a_node6"><a xlink:href="../../d6/d73/TPCITSMatchingSpec_8cxx.html" target="_top" xlink:title="/home/runner/work/AliceO2\l/AliceO2/Detectors/GlobalTracking\lWorkflow/src/TPCITSMatchingSpec.cxx">
<polygon fill="none" stroke="#000000" points="271.5,-195 271.5,-236 465.5,-236 465.5,-195 271.5,-195"/>
<text text-anchor="start" x="279.5" y="-224" font-family="Helvetica,sans-Serif" font-size="10.00" fill="#000000">/home/runner/work/AliceO2</text>
<text text-anchor="start" x="279.5" y="-213" font-family="Helvetica,sans-Serif" font-size="10.00" fill="#000000">/AliceO2/Detectors/GlobalTracking</text>
<text text-anchor="middle" x="368.5" y="-202" font-family="Helvetica,sans-Serif" font-size="10.00" fill="#000000">Workflow/src/TPCITSMatchingSpec.cxx</text>
</a>
</g>
</g>
<!-- Node30&#45;&gt;Node33 -->
<g id="edge5" class="edge">
<title>Node30&#45;&gt;Node33</title>
<path fill="none" stroke="#191970" d="M496.4751,-274.2102C469.0966,-261.65 438.0398,-247.4023 413.3774,-236.0881"/>
<polygon fill="#191970" stroke="#191970" points="495.0558,-277.4098 505.6044,-278.3984 497.9747,-271.0474 495.0558,-277.4098"/>
</g>
<!-- Node35 -->
<g id="node8" class="node">
<title>Node35</title>
<g id="a_node8"><a xlink:href="../../d9/d9d/BuildTopologyDictionary_8cxx.html" target="_top" xlink:title="Implementation of the BuildTopologyDictionary class. ">
<polygon fill="none" stroke="#000000" points="659.5,-189.5 659.5,-241.5 803.5,-241.5 803.5,-189.5 659.5,-189.5"/>
<text text-anchor="start" x="667.5" y="-229.5" font-family="Helvetica,sans-Serif" font-size="10.00" fill="#000000">/home/runner/work/AliceO2</text>
<text text-anchor="start" x="667.5" y="-218.5" font-family="Helvetica,sans-Serif" font-size="10.00" fill="#000000">/AliceO2/Detectors/ITSMFT</text>
<text text-anchor="start" x="667.5" y="-207.5" font-family="Helvetica,sans-Serif" font-size="10.00" fill="#000000">/common/reconstruction/src</text>
<text text-anchor="middle" x="731.5" y="-196.5" font-family="Helvetica,sans-Serif" font-size="10.00" fill="#000000">/BuildTopologyDictionary.cxx</text>
</a>
</g>
</g>
<!-- Node34&#45;&gt;Node35 -->
<g id="edge7" class="edge">
<title>Node34&#45;&gt;Node35</title>
<path fill="none" stroke="#191970" d="M781.7527,-270.7159C772.953,-261.0472 763.5003,-250.6608 755.194,-241.5341"/>
<polygon fill="#191970" stroke="#191970" points="779.3161,-273.2386 788.6354,-278.2784 784.493,-268.527 779.3161,-273.2386"/>
</g>
<!-- Node36&#45;&gt;Node35 -->
<g id="edge25" class="edge">
<title>Node36&#45;&gt;Node35</title>
<path fill="none" stroke="#191970" d="M962.0962,-281.9724C916.7499,-270.6551 861.5865,-256.326 812.5,-242 809.6593,-241.1709 806.7681,-240.3097 803.8516,-239.4263"/>
<polygon fill="#191970" stroke="#191970" points="961.3642,-285.3968 971.9133,-284.4137 963.0536,-278.6037 961.3642,-285.3968"/>
</g>
<!-- Node37 -->
<g id="node10" class="node">
<title>Node37</title>
<g id="a_node10"><a xlink:href="../../d6/d04/ITSMFT_2common_2reconstruction_2include_2ITSMFTReconstruction_2Clusterer_8h.html" target="_top" xlink:title="/home/runner/work/AliceO2\l/AliceO2/Detectors/ITSMFT\l/common/reconstruction/include\l/ITSMFTReconstruction/Clusterer.h">
<polygon fill="none" stroke="#000000" points="822,-189.5 822,-241.5 995,-241.5 995,-189.5 822,-189.5"/>
<text text-anchor="start" x="830" y="-229.5" font-family="Helvetica,sans-Serif" font-size="10.00" fill="#000000">/home/runner/work/AliceO2</text>
<text text-anchor="start" x="830" y="-218.5" font-family="Helvetica,sans-Serif" font-size="10.00" fill="#000000">/AliceO2/Detectors/ITSMFT</text>
<text text-anchor="start" x="830" y="-207.5" font-family="Helvetica,sans-Serif" font-size="10.00" fill="#000000">/common/reconstruction/include</text>
<text text-anchor="middle" x="908.5" y="-196.5" font-family="Helvetica,sans-Serif" font-size="10.00" fill="#000000">/ITSMFTReconstruction/Clusterer.h</text>
</a>
</g>
</g>
<!-- Node36&#45;&gt;Node37 -->
<g id="edge9" class="edge">
<title>Node36&#45;&gt;Node37</title>
<path fill="none" stroke="#191970" d="M1003.4702,-272.9989C986.4602,-262.7004 967.7686,-251.3837 951.5002,-241.5341"/>
<polygon fill="#191970" stroke="#191970" points="1001.8232,-276.0933 1012.1902,-278.2784 1005.4486,-270.1052 1001.8232,-276.0933"/>
</g>
<!-- Node53 -->
<g id="node26" class="node">
<title>Node53</title>
<g id="a_node26"><a xlink:href="../../da/dd5/LookUp_8cxx.html" target="_top" xlink:title="Implementation of the LookUp class. ">
<polygon fill="none" stroke="#000000" points="1013,-189.5 1013,-241.5 1152,-241.5 1152,-189.5 1013,-189.5"/>
<text text-anchor="start" x="1021" y="-229.5" font-family="Helvetica,sans-Serif" font-size="10.00" fill="#000000">/home/runner/work/AliceO2</text>
<text text-anchor="start" x="1021" y="-218.5" font-family="Helvetica,sans-Serif" font-size="10.00" fill="#000000">/AliceO2/Detectors/ITSMFT</text>
<text text-anchor="start" x="1021" y="-207.5" font-family="Helvetica,sans-Serif" font-size="10.00" fill="#000000">/common/reconstruction/src</text>
<text text-anchor="middle" x="1082.5" y="-196.5" font-family="Helvetica,sans-Serif" font-size="10.00" fill="#000000">/LookUp.cxx</text>
</a>
</g>
</g>
<!-- Node36&#45;&gt;Node53 -->
<g id="edge26" class="edge">
<title>Node36&#45;&gt;Node53</title>
<path fill="none" stroke="#191970" d="M1066.3619,-268.6959C1069.1172,-259.6135 1072.0251,-250.0282 1074.602,-241.5341"/>
<polygon fill="#191970" stroke="#191970" points="1063.0087,-267.693 1063.4549,-278.2784 1069.7073,-269.7252 1063.0087,-267.693"/>
</g>
<!-- Node38 -->
<g id="node11" class="node">
<title>Node38</title>
<g id="a_node11"><a xlink:href="../../de/d69/ITSMFT_2common_2reconstruction_2src_2Clusterer_8cxx.html" target="_top" xlink:title="/home/runner/work/AliceO2\l/AliceO2/Detectors/ITSMFT\l/common/reconstruction/src\l/Clusterer.cxx">
<polygon fill="none" stroke="#000000" points="1207,-95 1207,-147 1346,-147 1346,-95 1207,-95"/>
<text text-anchor="start" x="1215" y="-135" font-family="Helvetica,sans-Serif" font-size="10.00" fill="#000000">/home/runner/work/AliceO2</text>
<text text-anchor="start" x="1215" y="-124" font-family="Helvetica,sans-Serif" font-size="10.00" fill="#000000">/AliceO2/Detectors/ITSMFT</text>
<text text-anchor="start" x="1215" y="-113" font-family="Helvetica,sans-Serif" font-size="10.00" fill="#000000">/common/reconstruction/src</text>
<text text-anchor="middle" x="1276.5" y="-102" font-family="Helvetica,sans-Serif" font-size="10.00" fill="#000000">/Clusterer.cxx</text>
</a>
</g>
</g>
<!-- Node37&#45;&gt;Node38 -->
<g id="edge10" class="edge">
<title>Node37&#45;&gt;Node38</title>
<path fill="none" stroke="#191970" d="M1005.041,-188.7441C1090.7704,-169.7624 1116.3644,-176.6978 1197.5,-153 1203.4658,-151.2575 1209.6005,-149.2255 1215.688,-147.0458"/>
<polygon fill="#191970" stroke="#191970" points="1004.1175,-185.3646 995.1401,-190.9911 1005.6668,-192.191 1004.1175,-185.3646"/>
</g>
<!-- Node39 -->
<g id="node12" class="node">
<title>Node39</title>
<g id="a_node12"><a xlink:href="../../d6/d14/STFDecoderSpec_8cxx.html" target="_top" xlink:title="Device to decode ITS or MFT raw data from STF. ">
<polygon fill="none" stroke="#000000" points="0,-100.5 0,-141.5 215,-141.5 215,-100.5 0,-100.5"/>
<text text-anchor="start" x="8" y="-129.5" font-family="Helvetica,sans-Serif" font-size="10.00" fill="#000000">/home/runner/work/AliceO2</text>
<text text-anchor="start" x="8" y="-118.5" font-family="Helvetica,sans-Serif" font-size="10.00" fill="#000000">/AliceO2/Detectors/ITSMFT</text>
<text text-anchor="middle" x="107.5" y="-107.5" font-family="Helvetica,sans-Serif" font-size="10.00" fill="#000000">/common/workflow/src/STFDecoderSpec.cxx</text>
</a>
</g>
</g>
<!-- Node37&#45;&gt;Node39 -->
<g id="edge11" class="edge">
<title>Node37&#45;&gt;Node39</title>
<path fill="none" stroke="#191970" d="M811.7202,-189.0423C552.3998,-147.183 479.5276,-195.2197 224.5,-153 207.6716,-150.2141 189.7793,-145.9875 173.1809,-141.5108"/>
<polygon fill="#191970" stroke="#191970" points="811.3816,-192.5335 821.817,-190.702 812.5171,-185.6262 811.3816,-192.5335"/>
</g>
<!-- Node40 -->
<g id="node13" class="node">
<title>Node40</title>
<g id="a_node13"><a xlink:href="../../dd/d69/TestDataReader_8h.html" target="_top" xlink:title="/home/runner/work/AliceO2\l/AliceO2/Detectors/ITSMFT\l/ITS/QC/TestDataReaderWorkflow\l/include/ITSQCDataReaderWorkflow\l/TestDataReader.h">
<polygon fill="none" stroke="#000000" points="233.5,-89.5 233.5,-152.5 411.5,-152.5 411.5,-89.5 233.5,-89.5"/>
<text text-anchor="start" x="241.5" y="-140.5" font-family="Helvetica,sans-Serif" font-size="10.00" fill="#000000">/home/runner/work/AliceO2</text>
<text text-anchor="start" x="241.5" y="-129.5" font-family="Helvetica,sans-Serif" font-size="10.00" fill="#000000">/AliceO2/Detectors/ITSMFT</text>
<text text-anchor="start" x="241.5" y="-118.5" font-family="Helvetica,sans-Serif" font-size="10.00" fill="#000000">/ITS/QC/TestDataReaderWorkflow</text>
<text text-anchor="start" x="241.5" y="-107.5" font-family="Helvetica,sans-Serif" font-size="10.00" fill="#000000">/include/ITSQCDataReaderWorkflow</text>
<text text-anchor="middle" x="322.5" y="-96.5" font-family="Helvetica,sans-Serif" font-size="10.00" fill="#000000">/TestDataReader.h</text>
</a>
</g>
</g>
<!-- Node37&#45;&gt;Node40 -->
<g id="edge12" class="edge">
<title>Node37&#45;&gt;Node40</title>
<path fill="none" stroke="#191970" d="M811.8334,-189.0389C638.5419,-158.7184 588.6626,-187.7186 420.5,-153 417.6078,-152.4029 414.6814,-151.7498 411.7371,-151.0505"/>
<polygon fill="#191970" stroke="#191970" points="811.3354,-192.5053 821.7958,-190.823 812.5694,-185.6149 811.3354,-192.5053"/>
</g>
<!-- Node43 -->
<g id="node16" class="node">
<title>Node43</title>
<g id="a_node16"><a xlink:href="../../d6/d67/ITSMFT_2ITS_2reconstruction_2include_2ITSReconstruction_2ClustererTask_8h.html" target="_top" xlink:title="/home/runner/work/AliceO2\l/AliceO2/Detectors/ITSMFT\l/ITS/reconstruction/include\l/ITSReconstruction/ClustererTask.h">
<polygon fill="none" stroke="#000000" points="429.5,-95 429.5,-147 603.5,-147 603.5,-95 429.5,-95"/>
<text text-anchor="start" x="437.5" y="-135" font-family="Helvetica,sans-Serif" font-size="10.00" fill="#000000">/home/runner/work/AliceO2</text>
<text text-anchor="start" x="437.5" y="-124" font-family="Helvetica,sans-Serif" font-size="10.00" fill="#000000">/AliceO2/Detectors/ITSMFT</text>
<text text-anchor="start" x="437.5" y="-113" font-family="Helvetica,sans-Serif" font-size="10.00" fill="#000000">/ITS/reconstruction/include</text>
<text text-anchor="middle" x="516.5" y="-102" font-family="Helvetica,sans-Serif" font-size="10.00" fill="#000000">/ITSReconstruction/ClustererTask.h</text>
</a>
</g>
</g>
<!-- Node37&#45;&gt;Node43 -->
<g id="edge15" class="edge">
<title>Node37&#45;&gt;Node43</title>
<path fill="none" stroke="#191970" d="M811.9615,-188.983C722.6381,-169.3756 696.9348,-174.5527 612.5,-153 605.5208,-151.2185 598.3148,-149.1868 591.1335,-147.0308"/>
<polygon fill="#191970" stroke="#191970" points="811.4617,-192.4577 821.9849,-191.2275 812.9914,-185.6268 811.4617,-192.4577"/>
</g>
<!-- Node45 -->
<g id="node18" class="node">
<title>Node45</title>
<g id="a_node18"><a xlink:href="../../d4/dcc/ITSMFT_2ITS_2workflow_2include_2ITSWorkflow_2ClustererSpec_8h.html" target="_top" xlink:title="/home/runner/work/AliceO2\l/AliceO2/Detectors/ITSMFT\l/ITS/workflow/include/ITSWorkflow\l/ClustererSpec.h">
<polygon fill="none" stroke="#000000" points="1018,-95 1018,-147 1189,-147 1189,-95 1018,-95"/>
<text text-anchor="start" x="1026" y="-135" font-family="Helvetica,sans-Serif" font-size="10.00" fill="#000000">/home/runner/work/AliceO2</text>
<text text-anchor="start" x="1026" y="-124" font-family="Helvetica,sans-Serif" font-size="10.00" fill="#000000">/AliceO2/Detectors/ITSMFT</text>
<text text-anchor="start" x="1026" y="-113" font-family="Helvetica,sans-Serif" font-size="10.00" fill="#000000">/ITS/workflow/include/ITSWorkflow</text>
<text text-anchor="middle" x="1103.5" y="-102" font-family="Helvetica,sans-Serif" font-size="10.00" fill="#000000">/ClustererSpec.h</text>
</a>
</g>
</g>
<!-- Node37&#45;&gt;Node45 -->
<g id="edge17" class="edge">
<title>Node37&#45;&gt;Node45</title>
<path fill="none" stroke="#191970" d="M971.4054,-185.0151C996.5929,-172.8088 1025.3195,-158.8875 1049.5366,-147.1515"/>
<polygon fill="#191970" stroke="#191970" points="969.7734,-181.9166 962.3008,-189.4273 972.8262,-188.2159 969.7734,-181.9166"/>
</g>
<!-- Node48 -->
<g id="node21" class="node">
<title>Node48</title>
<g id="a_node21"><a xlink:href="../../db/d12/ITSMFT_2MFT_2reconstruction_2include_2MFTReconstruction_2ClustererTask_8h.html" target="_top" xlink:title="/home/runner/work/AliceO2\l/AliceO2/Detectors/ITSMFT\l/MFT/reconstruction/include\l/MFTReconstruction/ClustererTask.h">
<polygon fill="none" stroke="#000000" points="622,-95 622,-147 801,-147 801,-95 622,-95"/>
<text text-anchor="start" x="630" y="-135" font-family="Helvetica,sans-Serif" font-size="10.00" fill="#000000">/home/runner/work/AliceO2</text>
<text text-anchor="start" x="630" y="-124" font-family="Helvetica,sans-Serif" font-size="10.00" fill="#000000">/AliceO2/Detectors/ITSMFT</text>
<text text-anchor="start" x="630" y="-113" font-family="Helvetica,sans-Serif" font-size="10.00" fill="#000000">/MFT/reconstruction/include</text>
<text text-anchor="middle" x="711.5" y="-102" font-family="Helvetica,sans-Serif" font-size="10.00" fill="#000000">/MFTReconstruction/ClustererTask.h</text>
</a>
</g>
</g>
<!-- Node37&#45;&gt;Node48 -->
<g id="edge20" class="edge">
<title>Node37&#45;&gt;Node48</title>
<path fill="none" stroke="#191970" d="M844.9494,-185.0151C819.5036,-172.8088 790.4824,-158.8875 766.0169,-147.1515"/>
<polygon fill="#191970" stroke="#191970" points="843.6173,-188.2579 854.1474,-189.4273 846.6449,-181.9465 843.6173,-188.2579"/>
</g>
<!-- Node50 -->
<g id="node23" class="node">
<title>Node50</title>
<g id="a_node23"><a xlink:href="../../d4/d5e/ITSMFT_2MFT_2workflow_2include_2MFTWorkflow_2ClustererSpec_8h.html" target="_top" xlink:title="/home/runner/work/AliceO2\l/AliceO2/Detectors/ITSMFT\l/MFT/workflow/include/MFTWorkflow\l/ClustererSpec.h">
<polygon fill="none" stroke="#000000" points="819.5,-95 819.5,-147 999.5,-147 999.5,-95 819.5,-95"/>
<text text-anchor="start" x="827.5" y="-135" font-family="Helvetica,sans-Serif" font-size="10.00" fill="#000000">/home/runner/work/AliceO2</text>
<text text-anchor="start" x="827.5" y="-124" font-family="Helvetica,sans-Serif" font-size="10.00" fill="#000000">/AliceO2/Detectors/ITSMFT</text>
<text text-anchor="start" x="827.5" y="-113" font-family="Helvetica,sans-Serif" font-size="10.00" fill="#000000">/MFT/workflow/include/MFTWorkflow</text>
<text text-anchor="middle" x="909.5" y="-102" font-family="Helvetica,sans-Serif" font-size="10.00" fill="#000000">/ClustererSpec.h</text>
</a>
</g>
</g>
<!-- Node37&#45;&gt;Node50 -->
<g id="edge22" class="edge">
<title>Node37&#45;&gt;Node50</title>
<path fill="none" stroke="#191970" d="M908.8845,-179.1645C908.9967,-168.5577 909.1172,-157.1746 909.2215,-147.3157"/>
<polygon fill="#191970" stroke="#191970" points="905.382,-179.3908 908.7759,-189.4273 912.3816,-179.4649 905.382,-179.3908"/>
</g>
<!-- Node41 -->
<g id="node14" class="node">
<title>Node41</title>
<g id="a_node14"><a xlink:href="../../d0/dd9/TestDataReader_8cxx.html" target="_top" xlink:title="/home/runner/work/AliceO2\l/AliceO2/Detectors/ITSMFT\l/ITS/QC/TestDataReaderWorkflow\l/src/TestDataReader.cxx">
<polygon fill="none" stroke="#000000" points="242.5,-.5 242.5,-52.5 412.5,-52.5 412.5,-.5 242.5,-.5"/>
<text text-anchor="start" x="250.5" y="-40.5" font-family="Helvetica,sans-Serif" font-size="10.00" fill="#000000">/home/runner/work/AliceO2</text>
<text text-anchor="start" x="250.5" y="-29.5" font-family="Helvetica,sans-Serif" font-size="10.00" fill="#000000">/AliceO2/Detectors/ITSMFT</text>
<text text-anchor="start" x="250.5" y="-18.5" font-family="Helvetica,sans-Serif" font-size="10.00" fill="#000000">/ITS/QC/TestDataReaderWorkflow</text>
<text text-anchor="middle" x="327.5" y="-7.5" font-family="Helvetica,sans-Serif" font-size="10.00" fill="#000000">/src/TestDataReader.cxx</text>
</a>
</g>
</g>
<!-- Node40&#45;&gt;Node41 -->
<g id="edge13" class="edge">
<title>Node40&#45;&gt;Node41</title>
<path fill="none" stroke="#191970" d="M324.7092,-79.2457C325.1878,-70.2008 325.6808,-60.8836 326.1167,-52.6442"/>
<polygon fill="#191970" stroke="#191970" points="321.2122,-79.099 324.1788,-89.27 328.2024,-79.4689 321.2122,-79.099"/>
</g>
<!-- Node42 -->
<g id="node15" class="node">
<title>Node42</title>
<g id="a_node15"><a xlink:href="../../d1/dc6/TestDataReaderWorkflow_8cxx.html" target="_top" xlink:title="/home/runner/work/AliceO2\l/AliceO2/Detectors/ITSMFT\l/ITS/QC/TestDataReaderWorkflow\l/src/TestDataReaderWorkflow.cxx">
<polygon fill="none" stroke="#000000" points="54.5,-.5 54.5,-52.5 224.5,-52.5 224.5,-.5 54.5,-.5"/>
<text text-anchor="start" x="62.5" y="-40.5" font-family="Helvetica,sans-Serif" font-size="10.00" fill="#000000">/home/runner/work/AliceO2</text>
<text text-anchor="start" x="62.5" y="-29.5" font-family="Helvetica,sans-Serif" font-size="10.00" fill="#000000">/AliceO2/Detectors/ITSMFT</text>
<text text-anchor="start" x="62.5" y="-18.5" font-family="Helvetica,sans-Serif" font-size="10.00" fill="#000000">/ITS/QC/TestDataReaderWorkflow</text>
<text text-anchor="middle" x="139.5" y="-7.5" font-family="Helvetica,sans-Serif" font-size="10.00" fill="#000000">/src/TestDataReaderWorkflow.cxx</text>
</a>
</g>
</g>
<!-- Node40&#45;&gt;Node42 -->
<g id="edge14" class="edge">
<title>Node40&#45;&gt;Node42</title>
<path fill="none" stroke="#191970" d="M252.2178,-84.7067C231.4778,-73.9967 209.1985,-62.4919 189.9687,-52.5617"/>
<polygon fill="#191970" stroke="#191970" points="250.818,-87.923 261.3092,-89.4015 254.0299,-81.7033 250.818,-87.923"/>
</g>
<!-- Node44 -->
<g id="node17" class="node">
<title>Node44</title>
<g id="a_node17"><a xlink:href="../../d8/d95/ITSMFT_2ITS_2reconstruction_2src_2ClustererTask_8cxx.html" target="_top" xlink:title="/home/runner/work/AliceO2\l/AliceO2/Detectors/ITSMFT\l/ITS/reconstruction/src/Clusterer\lTask.cxx">
<polygon fill="none" stroke="#000000" points="437,-.5 437,-52.5 596,-52.5 596,-.5 437,-.5"/>
<text text-anchor="start" x="445" y="-40.5" font-family="Helvetica,sans-Serif" font-size="10.00" fill="#000000">/home/runner/work/AliceO2</text>
<text text-anchor="start" x="445" y="-29.5" font-family="Helvetica,sans-Serif" font-size="10.00" fill="#000000">/AliceO2/Detectors/ITSMFT</text>
<text text-anchor="start" x="445" y="-18.5" font-family="Helvetica,sans-Serif" font-size="10.00" fill="#000000">/ITS/reconstruction/src/Clusterer</text>
<text text-anchor="middle" x="516.5" y="-7.5" font-family="Helvetica,sans-Serif" font-size="10.00" fill="#000000">Task.cxx</text>
</a>
</g>
</g>
<!-- Node43&#45;&gt;Node44 -->
<g id="edge16" class="edge">
<title>Node43&#45;&gt;Node44</title>
<path fill="none" stroke="#191970" d="M516.5,-84.6645C516.5,-74.0577 516.5,-62.6746 516.5,-52.8157"/>
<polygon fill="#191970" stroke="#191970" points="513.0001,-84.9273 516.5,-94.9273 520.0001,-84.9273 513.0001,-84.9273"/>
</g>
<!-- Node46 -->
<g id="node19" class="node">
<title>Node46</title>
<g id="a_node19"><a xlink:href="../../d3/da3/ITSMFT_2ITS_2workflow_2src_2ClustererSpec_8cxx.html" target="_top" xlink:title="/home/runner/work/AliceO2\l/AliceO2/Detectors/ITSMFT\l/ITS/workflow/src/ClustererSpec.cxx">
<polygon fill="none" stroke="#000000" points="1207.5,-6 1207.5,-47 1385.5,-47 1385.5,-6 1207.5,-6"/>
<text text-anchor="start" x="1215.5" y="-35" font-family="Helvetica,sans-Serif" font-size="10.00" fill="#000000">/home/runner/work/AliceO2</text>
<text text-anchor="start" x="1215.5" y="-24" font-family="Helvetica,sans-Serif" font-size="10.00" fill="#000000">/AliceO2/Detectors/ITSMFT</text>
<text text-anchor="middle" x="1296.5" y="-13" font-family="Helvetica,sans-Serif" font-size="10.00" fill="#000000">/ITS/workflow/src/ClustererSpec.cxx</text>
</a>
</g>
</g>
<!-- Node45&#45;&gt;Node46 -->
<g id="edge18" class="edge">
<title>Node45&#45;&gt;Node46</title>
<path fill="none" stroke="#191970" d="M1165.9672,-90.4137C1194.9148,-76.2399 1228.5486,-59.7716 1254.4248,-47.1016"/>
<polygon fill="#191970" stroke="#191970" points="1164.191,-87.3863 1156.749,-94.9273 1167.2694,-93.6731 1164.191,-87.3863"/>
</g>
<!-- Node47 -->
<g id="node20" class="node">
<title>Node47</title>
<g id="a_node20"><a xlink:href="../../d5/d99/ITSMFT_2ITS_2workflow_2src_2RecoWorkflow_8cxx.html" target="_top" xlink:title="/home/runner/work/AliceO2\l/AliceO2/Detectors/ITSMFT\l/ITS/workflow/src/RecoWorkflow.cxx">
<polygon fill="none" stroke="#000000" points="1403.5,-6 1403.5,-47 1583.5,-47 1583.5,-6 1403.5,-6"/>
<text text-anchor="start" x="1411.5" y="-35" font-family="Helvetica,sans-Serif" font-size="10.00" fill="#000000">/home/runner/work/AliceO2</text>
<text text-anchor="start" x="1411.5" y="-24" font-family="Helvetica,sans-Serif" font-size="10.00" fill="#000000">/AliceO2/Detectors/ITSMFT</text>
<text text-anchor="middle" x="1493.5" y="-13" font-family="Helvetica,sans-Serif" font-size="10.00" fill="#000000">/ITS/workflow/src/RecoWorkflow.cxx</text>
</a>
</g>
</g>
<!-- Node45&#45;&gt;Node47 -->
<g id="edge19" class="edge">
<title>Node45&#45;&gt;Node47</title>
<path fill="none" stroke="#191970" d="M1186.4485,-92.0289C1190.1699,-90.961 1193.866,-89.9451 1197.5,-89 1283.64,-66.5976 1307.6621,-72.5232 1394.5,-53 1402.5721,-51.1852 1410.978,-49.1554 1419.3303,-47.0485"/>
<polygon fill="#191970" stroke="#191970" points="1185.1544,-88.7621 1176.5644,-94.9639 1187.147,-95.4725 1185.1544,-88.7621"/>
</g>
<!-- Node49 -->
<g id="node22" class="node">
<title>Node49</title>
<g id="a_node22"><a xlink:href="../../d9/d5e/ITSMFT_2MFT_2reconstruction_2src_2ClustererTask_8cxx.html" target="_top" xlink:title="/home/runner/work/AliceO2\l/AliceO2/Detectors/ITSMFT\l/MFT/reconstruction/src/Clusterer\lTask.cxx">
<polygon fill="none" stroke="#000000" points="622.5,-.5 622.5,-52.5 786.5,-52.5 786.5,-.5 622.5,-.5"/>
<text text-anchor="start" x="630.5" y="-40.5" font-family="Helvetica,sans-Serif" font-size="10.00" fill="#000000">/home/runner/work/AliceO2</text>
<text text-anchor="start" x="630.5" y="-29.5" font-family="Helvetica,sans-Serif" font-size="10.00" fill="#000000">/AliceO2/Detectors/ITSMFT</text>
<text text-anchor="start" x="630.5" y="-18.5" font-family="Helvetica,sans-Serif" font-size="10.00" fill="#000000">/MFT/reconstruction/src/Clusterer</text>
<text text-anchor="middle" x="704.5" y="-7.5" font-family="Helvetica,sans-Serif" font-size="10.00" fill="#000000">Task.cxx</text>
</a>
</g>
</g>
<!-- Node48&#45;&gt;Node49 -->
<g id="edge21" class="edge">
<title>Node48&#45;&gt;Node49</title>
<path fill="none" stroke="#191970" d="M708.8085,-84.6645C708.0228,-74.0577 707.1796,-62.6746 706.4493,-52.8157"/>
<polygon fill="#191970" stroke="#191970" points="705.3394,-85.2132 709.5687,-94.9273 712.3203,-84.696 705.3394,-85.2132"/>
</g>
<!-- Node51 -->
<g id="node24" class="node">
<title>Node51</title>
<g id="a_node24"><a xlink:href="../../d4/d8b/ITSMFT_2MFT_2workflow_2src_2ClustererSpec_8cxx.html" target="_top" xlink:title="/home/runner/work/AliceO2\l/AliceO2/Detectors/ITSMFT\l/MFT/workflow/src/ClustererSpec.cxx">
<polygon fill="none" stroke="#000000" points="804.5,-6 804.5,-47 986.5,-47 986.5,-6 804.5,-6"/>
<text text-anchor="start" x="812.5" y="-35" font-family="Helvetica,sans-Serif" font-size="10.00" fill="#000000">/home/runner/work/AliceO2</text>
<text text-anchor="start" x="812.5" y="-24" font-family="Helvetica,sans-Serif" font-size="10.00" fill="#000000">/AliceO2/Detectors/ITSMFT</text>
<text text-anchor="middle" x="895.5" y="-13" font-family="Helvetica,sans-Serif" font-size="10.00" fill="#000000">/MFT/workflow/src/ClustererSpec.cxx</text>
</a>
</g>
</g>
<!-- Node50&#45;&gt;Node51 -->
<g id="edge23" class="edge">
<title>Node50&#45;&gt;Node51</title>
<path fill="none" stroke="#191970" d="M904.1636,-84.9791C902.2652,-72.1648 900.1935,-58.181 898.5521,-47.1016"/>
<polygon fill="#191970" stroke="#191970" points="900.7096,-85.5482 905.6374,-94.9273 907.634,-84.5223 900.7096,-85.5482"/>
</g>
<!-- Node52 -->
<g id="node25" class="node">
<title>Node52</title>
<g id="a_node25"><a xlink:href="../../d1/df6/ITSMFT_2MFT_2workflow_2src_2RecoWorkflow_8cxx.html" target="_top" xlink:title="/home/runner/work/AliceO2\l/AliceO2/Detectors/ITSMFT\l/MFT/workflow/src/RecoWorkflow.cxx">
<polygon fill="none" stroke="#000000" points="1005,-6 1005,-47 1190,-47 1190,-6 1005,-6"/>
<text text-anchor="start" x="1013" y="-35" font-family="Helvetica,sans-Serif" font-size="10.00" fill="#000000">/home/runner/work/AliceO2</text>
<text text-anchor="start" x="1013" y="-24" font-family="Helvetica,sans-Serif" font-size="10.00" fill="#000000">/AliceO2/Detectors/ITSMFT</text>
<text text-anchor="middle" x="1097.5" y="-13" font-family="Helvetica,sans-Serif" font-size="10.00" fill="#000000">/MFT/workflow/src/RecoWorkflow.cxx</text>
</a>
</g>
</g>
<!-- Node50&#45;&gt;Node52 -->
<g id="edge24" class="edge">
<title>Node50&#45;&gt;Node52</title>
<path fill="none" stroke="#191970" d="M970.3488,-90.4137C998.5466,-76.2399 1031.309,-59.7716 1056.5148,-47.1016"/>
<polygon fill="#191970" stroke="#191970" points="968.7323,-87.3089 961.3695,-94.9273 971.8762,-93.5633 968.7323,-87.3089"/>
</g>
<!-- Node55 -->
<g id="node28" class="node">
<title>Node55</title>
<g id="a_node28"><a xlink:href="../../d2/d34/TopologyFastSimulation_8cxx.html" target="_top" xlink:title="Implementation of the TopologyFastSimulation class. ">
<polygon fill="none" stroke="#000000" points="1892,-189.5 1892,-241.5 2035,-241.5 2035,-189.5 1892,-189.5"/>
<text text-anchor="start" x="1900" y="-229.5" font-family="Helvetica,sans-Serif" font-size="10.00" fill="#000000">/home/runner/work/AliceO2</text>
<text text-anchor="start" x="1900" y="-218.5" font-family="Helvetica,sans-Serif" font-size="10.00" fill="#000000">/AliceO2/Detectors/ITSMFT</text>
<text text-anchor="start" x="1900" y="-207.5" font-family="Helvetica,sans-Serif" font-size="10.00" fill="#000000">/common/reconstruction/src</text>
<text text-anchor="middle" x="1963.5" y="-196.5" font-family="Helvetica,sans-Serif" font-size="10.00" fill="#000000">/TopologyFastSimulation.cxx</text>
</a>
</g>
</g>
<!-- Node54&#45;&gt;Node55 -->
<g id="edge28" class="edge">
<title>Node54&#45;&gt;Node55</title>
<path fill="none" stroke="#191970" d="M1901.1238,-271.5755C1912.1476,-261.6653 1924.087,-250.9319 1934.5407,-241.5341"/>
<polygon fill="#191970" stroke="#191970" points="1898.7646,-268.9901 1893.6678,-278.2784 1903.4444,-274.1958 1898.7646,-268.9901"/>
</g>
<!-- Node58&#45;&gt;Node47 -->
<g id="edge33" class="edge">
<title>Node58&#45;&gt;Node47</title>
<path fill="none" stroke="#191970" d="M1438.9617,-268.7187C1436.2837,-260.0932 1433.8766,-250.8187 1432.5,-242 1428.8669,-218.7263 1428.2932,-212.1769 1432.5,-189 1442.1601,-135.779 1468.2636,-77.3003 1483.0019,-47.1027"/>
<polygon fill="#191970" stroke="#191970" points="1435.7257,-270.0812 1442.1843,-278.4798 1442.3728,-267.8867 1435.7257,-270.0812"/>
</g>
<!-- Node59 -->
<g id="node32" class="node">
<title>Node59</title>
<g id="a_node32"><a xlink:href="../../d6/dbc/CookedTrackerSpec_8cxx.html" target="_top" xlink:title="/home/runner/work/AliceO2\l/AliceO2/Detectors/ITSMFT\l/ITS/workflow/src/CookedTrackerSpec.cxx">
<polygon fill="none" stroke="#000000" points="1441,-195 1441,-236 1646,-236 1646,-195 1441,-195"/>
<text text-anchor="start" x="1449" y="-224" font-family="Helvetica,sans-Serif" font-size="10.00" fill="#000000">/home/runner/work/AliceO2</text>
<text text-anchor="start" x="1449" y="-213" font-family="Helvetica,sans-Serif" font-size="10.00" fill="#000000">/AliceO2/Detectors/ITSMFT</text>
<text text-anchor="middle" x="1543.5" y="-202" font-family="Helvetica,sans-Serif" font-size="10.00" fill="#000000">/ITS/workflow/src/CookedTrackerSpec.cxx</text>
</a>
</g>
</g>
<!-- Node58&#45;&gt;Node59 -->
<g id="edge32" class="edge">
<title>Node58&#45;&gt;Node59</title>
<path fill="none" stroke="#191970" d="M1486.6046,-271.1449C1498.6058,-259.4075 1511.7375,-246.5645 1522.3582,-236.1771"/>
<polygon fill="#191970" stroke="#191970" points="1484.0128,-268.7841 1479.3108,-278.2784 1488.9073,-273.7886 1484.0128,-268.7841"/>
</g>
<!-- Node60&#45;&gt;Node47 -->
<g id="edge35" class="edge">
<title>Node60&#45;&gt;Node47</title>
<path fill="none" stroke="#191970" d="M1737.0782,-277.7618C1787.987,-263.0648 1840.918,-246.8508 1844.5,-242 1858.4928,-223.0509 1857.1837,-208.8491 1844.5,-189 1787.4605,-99.737 1667.4374,-58.7799 1583.7119,-40.4899"/>
<polygon fill="#191970" stroke="#191970" points="1735.9173,-274.4537 1727.274,-280.581 1737.8519,-281.181 1735.9173,-274.4537"/>
</g>
<!-- Node61 -->
<g id="node34" class="node">
<title>Node61</title>
<g id="a_node34"><a xlink:href="../../de/d95/ITSMFT_2ITS_2workflow_2src_2TrackerSpec_8cxx.html" target="_top" xlink:title="/home/runner/work/AliceO2\l/AliceO2/Detectors/ITSMFT\l/ITS/workflow/src/TrackerSpec.cxx">
<polygon fill="none" stroke="#000000" points="1664,-195 1664,-236 1835,-236 1835,-195 1664,-195"/>
<text text-anchor="start" x="1672" y="-224" font-family="Helvetica,sans-Serif" font-size="10.00" fill="#000000">/home/runner/work/AliceO2</text>
<text text-anchor="start" x="1672" y="-213" font-family="Helvetica,sans-Serif" font-size="10.00" fill="#000000">/AliceO2/Detectors/ITSMFT</text>
<text text-anchor="middle" x="1749.5" y="-202" font-family="Helvetica,sans-Serif" font-size="10.00" fill="#000000">/ITS/workflow/src/TrackerSpec.cxx</text>
</a>
</g>
</g>
<!-- Node60&#45;&gt;Node61 -->
<g id="edge36" class="edge">
<title>Node60&#45;&gt;Node61</title>
<path fill="none" stroke="#191970" d="M1681.171,-271.8081C1695.6298,-259.893 1711.566,-246.7605 1724.4087,-236.1771"/>
<polygon fill="#191970" stroke="#191970" points="1678.8108,-269.2178 1673.3194,-278.2784 1683.2626,-274.6199 1678.8108,-269.2178"/>
</g>
<!-- Node63&#45;&gt;Node52 -->
<g id="edge39" class="edge">
<title>Node63&#45;&gt;Node52</title>
<path fill="none" stroke="#191970" d="M1327.4663,-272.6741C1338.726,-264.3301 1348.863,-254.1718 1355.5,-242 1388.0537,-182.2986 1397.8706,-142.1858 1355.5,-89 1310.8933,-33.0073 1268.0198,-70.0862 1198.5,-53 1190.7541,-51.0963 1182.6872,-49.0641 1174.6385,-47.0039"/>
<polygon fill="#191970" stroke="#191970" points="1325.3549,-269.8784 1319.103,-278.432 1329.3244,-275.644 1325.3549,-269.8784"/>
</g>
<!-- Node64 -->
<g id="node37" class="node">
<title>Node64</title>
<g id="a_node37"><a xlink:href="../../d1/dd0/ITSMFT_2MFT_2workflow_2src_2TrackerSpec_8cxx.html" target="_top" xlink:title="/home/runner/work/AliceO2\l/AliceO2/Detectors/ITSMFT\l/MFT/workflow/src/TrackerSpec.cxx">
<polygon fill="none" stroke="#000000" points="1170.5,-195 1170.5,-236 1346.5,-236 1346.5,-195 1170.5,-195"/>
<text text-anchor="start" x="1178.5" y="-224" font-family="Helvetica,sans-Serif" font-size="10.00" fill="#000000">/home/runner/work/AliceO2</text>
<text text-anchor="start" x="1178.5" y="-213" font-family="Helvetica,sans-Serif" font-size="10.00" fill="#000000">/AliceO2/Detectors/ITSMFT</text>
<text text-anchor="middle" x="1258.5" y="-202" font-family="Helvetica,sans-Serif" font-size="10.00" fill="#000000">/MFT/workflow/src/TrackerSpec.cxx</text>
</a>
</g>
</g>
<!-- Node63&#45;&gt;Node64 -->
<g id="edge40" class="edge">
<title>Node63&#45;&gt;Node64</title>
<path fill="none" stroke="#191970" d="M1258.5,-268.1335C1258.5,-257.2443 1258.5,-245.6825 1258.5,-236.1771"/>
<polygon fill="#191970" stroke="#191970" points="1255.0001,-268.2784 1258.5,-278.2784 1262.0001,-268.2785 1255.0001,-268.2784"/>
</g>
</g>
</svg>
