<?xml version="1.0" encoding="UTF-8" standalone="no"?>
<!DOCTYPE svg PUBLIC "-//W3C//DTD SVG 1.1//EN"
 "http://www.w3.org/Graphics/SVG/1.1/DTD/svg11.dtd">
<!-- Generated by graphviz version 2.40.1 (20161225.0304)
 -->
<!-- Title: /home/runner/work/AliceO2/AliceO2/Detectors/DCS/src/DeliveryType.cxx Pages: 1 -->
<svg width="334pt" height="218pt"
 viewBox="0.00 0.00 333.50 218.00" xmlns="http://www.w3.org/2000/svg" xmlns:xlink="http://www.w3.org/1999/xlink">
<g id="graph0" class="graph" transform="scale(1 1) rotate(0) translate(4 214)">
<title>/home/runner/work/AliceO2/AliceO2/Detectors/DCS/src/DeliveryType.cxx</title>
<!-- Node0 -->
<g id="node1" class="node">
<title>Node0</title>
<polygon fill="#bfbfbf" stroke="#000000" points="7.5,-168.5 7.5,-209.5 142.5,-209.5 142.5,-168.5 7.5,-168.5"/>
<text text-anchor="start" x="15.5" y="-197.5" font-family="Helvetica,sans-Serif" font-size="10.00" fill="#000000">/home/runner/work/AliceO2</text>
<text text-anchor="start" x="15.5" y="-186.5" font-family="Helvetica,sans-Serif" font-size="10.00" fill="#000000">/AliceO2/Detectors/DCS</text>
<text text-anchor="middle" x="75" y="-175.5" font-family="Helvetica,sans-Serif" font-size="10.00" fill="#000000">/src/DeliveryType.cxx</text>
</g>
<!-- Node1 -->
<g id="node2" class="node">
<title>Node1</title>
<g id="a_node2"><a xlink:href="../../d5/d79/DeliveryType_8h.html" target="_top" xlink:title="DetectorsDCS/DeliveryType.h">
<polygon fill="none" stroke="#000000" points="0,-112.5 0,-131.5 150,-131.5 150,-112.5 0,-112.5"/>
<text text-anchor="middle" x="75" y="-119.5" font-family="Helvetica,sans-Serif" font-size="10.00" fill="#000000">DetectorsDCS/DeliveryType.h</text>
</a>
</g>
</g>
<!-- Node0&#45;&gt;Node1 -->
<g id="edge1" class="edge">
<title>Node0&#45;&gt;Node1</title>
<path fill="none" stroke="#191970" d="M75,-168.168C75,-159.8226 75,-150.2471 75,-141.9879"/>
<polygon fill="#191970" stroke="#191970" points="78.5001,-141.7804 75,-131.7805 71.5001,-141.7805 78.5001,-141.7804"/>
</g>
<!-- Node2 -->
<g id="node3" class="node">
<title>Node2</title>
<polygon fill="none" stroke="#bfbfbf" points="95.5,-.5 95.5,-19.5 136.5,-19.5 136.5,-.5 95.5,-.5"/>
<text text-anchor="middle" x="116" y="-7.5" font-family="Helvetica,sans-Serif" font-size="10.00" fill="#000000">string</text>
</g>
<!-- Node1&#45;&gt;Node2 -->
<g id="edge2" class="edge">
<title>Node1&#45;&gt;Node2</title>
<path fill="none" stroke="#191970" d="M53.1585,-112.3487C29.2481,-100.3642 -3.8458,-78.7119 11,-56 27.2927,-31.0746 60.409,-19.5716 85.1173,-14.3157"/>
<polygon fill="#191970" stroke="#191970" points="85.9426,-17.7218 95.1183,-12.4248 84.6421,-10.8437 85.9426,-17.7218"/>
</g>
<!-- Node3 -->
<g id="node4" class="node">
<title>Node3</title>
<polygon fill="none" stroke="#bfbfbf" points="20.5,-56.5 20.5,-75.5 61.5,-75.5 61.5,-56.5 20.5,-56.5"/>
<text text-anchor="middle" x="41" y="-63.5" font-family="Helvetica,sans-Serif" font-size="10.00" fill="#000000">regex</text>
</g>
<!-- Node1&#45;&gt;Node3 -->
<g id="edge3" class="edge">
<title>Node1&#45;&gt;Node3</title>
<path fill="none" stroke="#191970" d="M69.0777,-112.2455C64.3973,-104.5367 57.7327,-93.5598 52.0711,-84.2348"/>
<polygon fill="#191970" stroke="#191970" points="55.0361,-82.3741 46.8545,-75.6427 49.0525,-86.007 55.0361,-82.3741"/>
</g>
<!-- Node4 -->
<g id="node5" class="node">
<title>Node4</title>
<polygon fill="none" stroke="#bfbfbf" points="79.5,-56.5 79.5,-75.5 138.5,-75.5 138.5,-56.5 79.5,-56.5"/>
<text text-anchor="middle" x="109" y="-63.5" font-family="Helvetica,sans-Serif" font-size="10.00" fill="#000000">stdexcept</text>
</g>
<!-- Node1&#45;&gt;Node4 -->
<g id="edge4" class="edge">
<title>Node1&#45;&gt;Node4</title>
<path fill="none" stroke="#191970" d="M80.9223,-112.2455C85.6027,-104.5367 92.2673,-93.5598 97.9289,-84.2348"/>
<polygon fill="#191970" stroke="#191970" points="100.9475,-86.007 103.1455,-75.6427 94.9639,-82.3741 100.9475,-86.007"/>
</g>
<!-- Node5 -->
<g id="node6" class="node">
<title>Node5</title>
<g id="a_node6"><a xlink:href="../../d6/de3/GenericFunctions_8h.html" target="_top" xlink:title="DetectorsDCS/GenericFunctions.h">
<polygon fill="none" stroke="#000000" points="156.5,-56.5 156.5,-75.5 325.5,-75.5 325.5,-56.5 156.5,-56.5"/>
<text text-anchor="middle" x="241" y="-63.5" font-family="Helvetica,sans-Serif" font-size="10.00" fill="#000000">DetectorsDCS/GenericFunctions.h</text>
</a>
</g>
</g>
<!-- Node1&#45;&gt;Node5 -->
<g id="edge5" class="edge">
<title>Node1&#45;&gt;Node5</title>
<path fill="none" stroke="#191970" d="M103.5364,-112.3733C131.0202,-103.1016 172.7686,-89.0178 203.0452,-78.804"/>
<polygon fill="#191970" stroke="#191970" points="204.4794,-82.0141 212.836,-75.5011 202.2418,-75.3813 204.4794,-82.0141"/>
</g>
<!-- Node5&#45;&gt;Node2 -->
<g id="edge6" class="edge">
<title>Node5&#45;&gt;Node2</title>
<path fill="none" stroke="#191970" d="M219.5117,-56.3733C199.2338,-47.2888 168.6438,-33.5844 145.9714,-23.4272"/>
<polygon fill="#191970" stroke="#191970" points="147.3495,-20.2094 136.7925,-19.315 144.4876,-26.5977 147.3495,-20.2094"/>
</g>
</g>
</svg>
