<?xml version="1.0" encoding="UTF-8" standalone="no"?>
<!DOCTYPE svg PUBLIC "-//W3C//DTD SVG 1.1//EN"
 "http://www.w3.org/Graphics/SVG/1.1/DTD/svg11.dtd">
<!-- Generated by graphviz version 2.40.1 (20161225.0304)
 -->
<!-- Title: /home/runner/work/AliceO2/AliceO2/Framework/Core/src/BoostOptionsRetriever.cxx Pages: 1 -->
<svg width="1250pt" height="363pt"
 viewBox="0.00 0.00 1250.00 363.00" xmlns="http://www.w3.org/2000/svg" xmlns:xlink="http://www.w3.org/1999/xlink">
<g id="graph0" class="graph" transform="scale(1 1) rotate(0) translate(4 359)">
<title>/home/runner/work/AliceO2/AliceO2/Framework/Core/src/BoostOptionsRetriever.cxx</title>
<!-- Node0 -->
<g id="node1" class="node">
<title>Node0</title>
<polygon fill="#bfbfbf" stroke="#000000" points="456,-313.5 456,-354.5 610,-354.5 610,-313.5 456,-313.5"/>
<text text-anchor="start" x="464" y="-342.5" font-family="Helvetica,sans-Serif" font-size="10.00" fill="#000000">/home/runner/work/AliceO2</text>
<text text-anchor="start" x="464" y="-331.5" font-family="Helvetica,sans-Serif" font-size="10.00" fill="#000000">/AliceO2/Framework/Core</text>
<text text-anchor="middle" x="533" y="-320.5" font-family="Helvetica,sans-Serif" font-size="10.00" fill="#000000">/src/BoostOptionsRetriever.cxx</text>
</g>
<!-- Node1 -->
<g id="node2" class="node">
<title>Node1</title>
<g id="a_node2"><a xlink:href="../../d3/d7e/BoostOptionsRetriever_8h.html" target="_top" xlink:title="Framework/BoostOptionsRetriever.h">
<polygon fill="none" stroke="#000000" points="129,-252 129,-271 305,-271 305,-252 129,-252"/>
<text text-anchor="middle" x="217" y="-259" font-family="Helvetica,sans-Serif" font-size="10.00" fill="#000000">Framework/BoostOptionsRetriever.h</text>
</a>
</g>
</g>
<!-- Node0&#45;&gt;Node1 -->
<g id="edge1" class="edge">
<title>Node0&#45;&gt;Node1</title>
<path fill="none" stroke="#191970" d="M455.6977,-316.2645C397.4565,-302.9022 319.2182,-284.952 268.4545,-273.3052"/>
<polygon fill="#191970" stroke="#191970" points="269.2117,-269.8881 258.6822,-271.0632 267.6463,-276.7108 269.2117,-269.8881"/>
</g>
<!-- Node2 -->
<g id="node3" class="node">
<title>Node2</title>
<g id="a_node3"><a xlink:href="../../d0/d1c/ConfigParamSpec_8h.html" target="_top" xlink:title="Framework/ConfigParamSpec.h">
<polygon fill="none" stroke="#000000" points="311,-118 311,-137 467,-137 467,-118 311,-118"/>
<text text-anchor="middle" x="389" y="-125" font-family="Helvetica,sans-Serif" font-size="10.00" fill="#000000">Framework/ConfigParamSpec.h</text>
</a>
</g>
</g>
<!-- Node0&#45;&gt;Node2 -->
<g id="edge23" class="edge">
<title>Node0&#45;&gt;Node2</title>
<path fill="none" stroke="#191970" d="M512.5026,-313.4381C502.5014,-302.9437 490.5909,-289.732 481,-277 447.5384,-232.5797 415.034,-175.5228 399.1249,-146.4158"/>
<polygon fill="#191970" stroke="#191970" points="402.056,-144.4783 394.2154,-137.3525 395.901,-147.8124 402.056,-144.4783"/>
</g>
<!-- Node6 -->
<g id="node7" class="node">
<title>Node6</title>
<polygon fill="none" stroke="#bfbfbf" points="853,-.5 853,-19.5 899,-19.5 899,-.5 853,-.5"/>
<text text-anchor="middle" x="876" y="-7.5" font-family="Helvetica,sans-Serif" font-size="10.00" fill="#000000">cstring</text>
</g>
<!-- Node0&#45;&gt;Node6 -->
<g id="edge34" class="edge">
<title>Node0&#45;&gt;Node6</title>
<path fill="none" stroke="#191970" d="M536.0213,-313.4715C541.636,-281.5316 556.3183,-219.4179 590,-179 660.3289,-94.6056 784.338,-42.2372 843.208,-20.9594"/>
<polygon fill="#191970" stroke="#191970" points="844.4916,-24.2178 852.7481,-17.5785 842.1533,-17.6199 844.4916,-24.2178"/>
</g>
<!-- Node8 -->
<g id="node9" class="node">
<title>Node8</title>
<polygon fill="none" stroke="#bfbfbf" points="917.5,-.5 917.5,-19.5 962.5,-19.5 962.5,-.5 917.5,-.5"/>
<text text-anchor="middle" x="940" y="-7.5" font-family="Helvetica,sans-Serif" font-size="10.00" fill="#000000">cstdlib</text>
</g>
<!-- Node0&#45;&gt;Node8 -->
<g id="edge33" class="edge">
<title>Node0&#45;&gt;Node8</title>
<path fill="none" stroke="#191970" d="M610.0321,-323.6317C728.0256,-305.5625 940,-263.4995 940,-194.5 940,-194.5 940,-194.5 940,-127.5 940,-93.1399 940,-53.128 940,-29.7764"/>
<polygon fill="#191970" stroke="#191970" points="943.5001,-29.7489 940,-19.7489 936.5001,-29.749 943.5001,-29.7489"/>
</g>
<!-- Node12 -->
<g id="node13" class="node">
<title>Node12</title>
<polygon fill="none" stroke="#bfbfbf" points="131,-.5 131,-19.5 175,-19.5 175,-.5 131,-.5"/>
<text text-anchor="middle" x="153" y="-7.5" font-family="Helvetica,sans-Serif" font-size="10.00" fill="#000000">vector</text>
</g>
<!-- Node0&#45;&gt;Node12 -->
<g id="edge32" class="edge">
<title>Node0&#45;&gt;Node12</title>
<path fill="none" stroke="#191970" d="M455.782,-329.8404C308.0665,-319.7606 0,-287.5809 0,-194.5 0,-194.5 0,-194.5 0,-127.5 0,-66.9388 76.3352,-33.3083 121.1676,-18.7792"/>
<polygon fill="#191970" stroke="#191970" points="122.2378,-22.1119 130.7525,-15.8071 120.1645,-15.4259 122.2378,-22.1119"/>
</g>
<!-- Node13 -->
<g id="node14" class="node">
<title>Node13</title>
<polygon fill="none" stroke="#bfbfbf" points="258.5,-.5 258.5,-19.5 299.5,-19.5 299.5,-.5 258.5,-.5"/>
<text text-anchor="middle" x="279" y="-7.5" font-family="Helvetica,sans-Serif" font-size="10.00" fill="#000000">string</text>
</g>
<!-- Node0&#45;&gt;Node13 -->
<g id="edge31" class="edge">
<title>Node0&#45;&gt;Node13</title>
<path fill="none" stroke="#191970" d="M527.8869,-313.1564C514.4951,-258.6909 479.2057,-116.0282 476,-112 453.5633,-83.8066 358.6852,-42.3368 309.2459,-22.0591"/>
<polygon fill="#191970" stroke="#191970" points="310.295,-18.7074 299.7133,-18.1811 307.6572,-25.1914 310.295,-18.7074"/>
</g>
<!-- Node17 -->
<g id="node18" class="node">
<title>Node17</title>
<g id="a_node18"><a xlink:href="../../da/d3e/PropertyTreeHelpers_8h.html" target="_top" xlink:title="PropertyTreeHelpers.h">
<polygon fill="none" stroke="#000000" points="599.5,-252 599.5,-271 714.5,-271 714.5,-252 599.5,-252"/>
<text text-anchor="middle" x="657" y="-259" font-family="Helvetica,sans-Serif" font-size="10.00" fill="#000000">PropertyTreeHelpers.h</text>
</a>
</g>
</g>
<!-- Node0&#45;&gt;Node17 -->
<g id="edge24" class="edge">
<title>Node0&#45;&gt;Node17</title>
<path fill="none" stroke="#191970" d="M568.2017,-313.4183C588.5376,-301.5284 613.6364,-286.8537 631.9564,-276.1424"/>
<polygon fill="#191970" stroke="#191970" points="633.7396,-279.1542 640.6057,-271.0853 630.2064,-273.1113 633.7396,-279.1542"/>
</g>
<!-- Node21 -->
<g id="node22" class="node">
<title>Node21</title>
<polygon fill="none" stroke="#bfbfbf" points="968,-252 968,-271 1102,-271 1102,-252 968,-252"/>
<text text-anchor="middle" x="1035" y="-259" font-family="Helvetica,sans-Serif" font-size="10.00" fill="#000000">boost/program_options.hpp</text>
</g>
<!-- Node0&#45;&gt;Node21 -->
<g id="edge29" class="edge">
<title>Node0&#45;&gt;Node21</title>
<path fill="none" stroke="#191970" d="M610.0098,-324.852C694.5671,-314.5098 834.2547,-296.5485 954,-277 961.6504,-275.7511 969.6877,-274.3371 977.6062,-272.8839"/>
<polygon fill="#191970" stroke="#191970" points="978.3461,-276.3063 987.5345,-271.0315 977.0622,-269.425 978.3461,-276.3063"/>
</g>
<!-- Node22 -->
<g id="node23" class="node">
<title>Node22</title>
<polygon fill="none" stroke="#bfbfbf" points="1120,-246.5 1120,-276.5 1242,-276.5 1242,-246.5 1120,-246.5"/>
<text text-anchor="start" x="1128" y="-264.5" font-family="Helvetica,sans-Serif" font-size="10.00" fill="#000000">boost/program_options</text>
<text text-anchor="middle" x="1181" y="-253.5" font-family="Helvetica,sans-Serif" font-size="10.00" fill="#000000">/options_description.hpp</text>
</g>
<!-- Node0&#45;&gt;Node22 -->
<g id="edge30" class="edge">
<title>Node0&#45;&gt;Node22</title>
<path fill="none" stroke="#191970" d="M610.0412,-329.3448C719.2346,-322.0927 925.3514,-305.997 1110.103,-277.0255"/>
<polygon fill="#191970" stroke="#191970" points="1110.6696,-280.4795 1119.9989,-275.458 1109.5744,-273.5657 1110.6696,-280.4795"/>
</g>
<!-- Node1&#45;&gt;Node2 -->
<g id="edge2" class="edge">
<title>Node1&#45;&gt;Node2</title>
<path fill="none" stroke="#191970" d="M263.9477,-251.9565C291.1687,-244.4148 324.5843,-231.4698 348,-210 366.7239,-192.8321 377.9962,-165.2107 383.856,-146.7153"/>
<polygon fill="#191970" stroke="#191970" points="387.2412,-147.6088 386.696,-137.028 380.524,-145.6394 387.2412,-147.6088"/>
</g>
<!-- Node1&#45;&gt;Node12 -->
<g id="edge22" class="edge">
<title>Node1&#45;&gt;Node12</title>
<path fill="none" stroke="#191970" d="M202.5959,-251.8643C177.2936,-233.9581 125.6851,-192.81 106,-143 89.8967,-102.2532 119.2556,-53.5019 138.3988,-27.8345"/>
<polygon fill="#191970" stroke="#191970" points="141.2907,-29.8167 144.6526,-19.7693 135.7589,-25.5272 141.2907,-29.8167"/>
</g>
<!-- Node14 -->
<g id="node15" class="node">
<title>Node14</title>
<g id="a_node15"><a xlink:href="../../df/d72/ParamRetriever_8h.html" target="_top" xlink:title="Framework/ParamRetriever.h">
<polygon fill="none" stroke="#000000" points="194.5,-185 194.5,-204 339.5,-204 339.5,-185 194.5,-185"/>
<text text-anchor="middle" x="267" y="-192" font-family="Helvetica,sans-Serif" font-size="10.00" fill="#000000">Framework/ParamRetriever.h</text>
</a>
</g>
</g>
<!-- Node1&#45;&gt;Node14 -->
<g id="edge15" class="edge">
<title>Node1&#45;&gt;Node14</title>
<path fill="none" stroke="#191970" d="M224.1638,-251.9005C231.8866,-241.552 244.3476,-224.8542 253.8437,-212.1295"/>
<polygon fill="#191970" stroke="#191970" points="256.6736,-214.1893 259.8495,-204.0817 251.0636,-210.0027 256.6736,-214.1893"/>
</g>
<!-- Node15 -->
<g id="node16" class="node">
<title>Node15</title>
<polygon fill="none" stroke="#bfbfbf" points="115.5,-112.5 115.5,-142.5 216.5,-142.5 216.5,-112.5 115.5,-112.5"/>
<text text-anchor="start" x="123.5" y="-130.5" font-family="Helvetica,sans-Serif" font-size="10.00" fill="#000000">boost/property_tree</text>
<text text-anchor="middle" x="166" y="-119.5" font-family="Helvetica,sans-Serif" font-size="10.00" fill="#000000">/ptree_fwd.hpp</text>
</g>
<!-- Node1&#45;&gt;Node15 -->
<g id="edge20" class="edge">
<title>Node1&#45;&gt;Node15</title>
<path fill="none" stroke="#191970" d="M209.584,-251.7737C202.316,-241.7947 191.4214,-225.5701 185,-210 177.3692,-191.4974 172.4805,-169.3361 169.5758,-152.6435"/>
<polygon fill="#191970" stroke="#191970" points="172.9963,-151.8701 167.9446,-142.5572 166.0861,-152.9877 172.9963,-151.8701"/>
</g>
<!-- Node16 -->
<g id="node17" class="node">
<title>Node16</title>
<polygon fill="none" stroke="#bfbfbf" points="28,-185 28,-204 80,-204 80,-185 28,-185"/>
<text text-anchor="middle" x="54" y="-192" font-family="Helvetica,sans-Serif" font-size="10.00" fill="#000000">memory</text>
</g>
<!-- Node1&#45;&gt;Node16 -->
<g id="edge21" class="edge">
<title>Node1&#45;&gt;Node16</title>
<path fill="none" stroke="#191970" d="M193.6461,-251.9005C165.5648,-240.3579 118.2665,-220.9163 86.5983,-207.8993"/>
<polygon fill="#191970" stroke="#191970" points="87.8904,-204.6463 77.3106,-204.0817 85.2291,-211.1207 87.8904,-204.6463"/>
</g>
<!-- Node3 -->
<g id="node4" class="node">
<title>Node3</title>
<g id="a_node4"><a xlink:href="../../de/d56/Variant_8h.html" target="_top" xlink:title="Framework/Variant.h">
<polygon fill="none" stroke="#000000" points="506.5,-56.5 506.5,-75.5 613.5,-75.5 613.5,-56.5 506.5,-56.5"/>
<text text-anchor="middle" x="560" y="-63.5" font-family="Helvetica,sans-Serif" font-size="10.00" fill="#000000">Framework/Variant.h</text>
</a>
</g>
</g>
<!-- Node2&#45;&gt;Node3 -->
<g id="edge3" class="edge">
<title>Node2&#45;&gt;Node3</title>
<path fill="none" stroke="#191970" d="M415.7188,-117.8906C444.8321,-107.42 491.5692,-90.6111 523.9247,-78.9745"/>
<polygon fill="#191970" stroke="#191970" points="525.2435,-82.2197 533.4689,-75.5419 522.8744,-75.6328 525.2435,-82.2197"/>
</g>
<!-- Node2&#45;&gt;Node13 -->
<g id="edge14" class="edge">
<title>Node2&#45;&gt;Node13</title>
<path fill="none" stroke="#191970" d="M379.9982,-117.8845C361.3856,-98.0028 318.4508,-52.1406 294.9999,-27.0908"/>
<polygon fill="#191970" stroke="#191970" points="297.5155,-24.6566 288.1261,-19.7484 292.4053,-29.4406 297.5155,-24.6566"/>
</g>
<!-- Node4 -->
<g id="node5" class="node">
<title>Node4</title>
<g id="a_node5"><a xlink:href="../../d1/d76/RuntimeError_8h.html" target="_top" xlink:title="Framework/RuntimeError.h">
<polygon fill="none" stroke="#000000" points="493,-.5 493,-19.5 627,-19.5 627,-.5 493,-.5"/>
<text text-anchor="middle" x="560" y="-7.5" font-family="Helvetica,sans-Serif" font-size="10.00" fill="#000000">Framework/RuntimeError.h</text>
</a>
</g>
</g>
<!-- Node3&#45;&gt;Node4 -->
<g id="edge4" class="edge">
<title>Node3&#45;&gt;Node4</title>
<path fill="none" stroke="#191970" d="M560,-56.2455C560,-48.9382 560,-38.6944 560,-29.7046"/>
<polygon fill="#191970" stroke="#191970" points="563.5001,-29.6426 560,-19.6427 556.5001,-29.6427 563.5001,-29.6426"/>
</g>
<!-- Node5 -->
<g id="node6" class="node">
<title>Node5</title>
<polygon fill="none" stroke="#bfbfbf" points="645,-.5 645,-19.5 707,-19.5 707,-.5 645,-.5"/>
<text text-anchor="middle" x="676" y="-7.5" font-family="Helvetica,sans-Serif" font-size="10.00" fill="#000000">type_traits</text>
</g>
<!-- Node3&#45;&gt;Node5 -->
<g id="edge5" class="edge">
<title>Node3&#45;&gt;Node5</title>
<path fill="none" stroke="#191970" d="M579.9411,-56.3733C598.4786,-47.4241 626.3028,-33.9917 647.2413,-23.8835"/>
<polygon fill="#191970" stroke="#191970" points="648.8352,-27.0006 656.3191,-19.5011 645.7919,-20.6967 648.8352,-27.0006"/>
</g>
<!-- Node3&#45;&gt;Node6 -->
<g id="edge6" class="edge">
<title>Node3&#45;&gt;Node6</title>
<path fill="none" stroke="#191970" d="M613.8116,-57.7076C683.4863,-46.9113 800.2556,-28.5977 842.916,-19.8561"/>
<polygon fill="#191970" stroke="#191970" points="843.6732,-23.2733 852.6875,-17.7062 842.169,-16.4368 843.6732,-23.2733"/>
</g>
<!-- Node7 -->
<g id="node8" class="node">
<title>Node7</title>
<polygon fill="none" stroke="#bfbfbf" points="725,-.5 725,-19.5 771,-19.5 771,-.5 725,-.5"/>
<text text-anchor="middle" x="748" y="-7.5" font-family="Helvetica,sans-Serif" font-size="10.00" fill="#000000">cstdint</text>
</g>
<!-- Node3&#45;&gt;Node7 -->
<g id="edge7" class="edge">
<title>Node3&#45;&gt;Node7</title>
<path fill="none" stroke="#191970" d="M592.9146,-56.4617C622.5431,-47.8387 667.517,-34.6585 715.3423,-20.1689"/>
<polygon fill="#191970" stroke="#191970" points="716.3898,-23.5087 724.9417,-17.2545 714.3561,-16.8106 716.3898,-23.5087"/>
</g>
<!-- Node3&#45;&gt;Node8 -->
<g id="edge8" class="edge">
<title>Node3&#45;&gt;Node8</title>
<path fill="none" stroke="#191970" d="M613.5556,-61.7925C680.3016,-55.914 797.9012,-43.472 907.5035,-19.7654"/>
<polygon fill="#191970" stroke="#191970" points="908.389,-23.1544 917.4037,-17.588 906.8853,-16.3178 908.389,-23.1544"/>
</g>
<!-- Node9 -->
<g id="node10" class="node">
<title>Node9</title>
<polygon fill="none" stroke="#bfbfbf" points="789.5,-.5 789.5,-19.5 834.5,-19.5 834.5,-.5 789.5,-.5"/>
<text text-anchor="middle" x="812" y="-7.5" font-family="Helvetica,sans-Serif" font-size="10.00" fill="#000000">iosfwd</text>
</g>
<!-- Node3&#45;&gt;Node9 -->
<g id="edge9" class="edge">
<title>Node3&#45;&gt;Node9</title>
<path fill="none" stroke="#191970" d="M612.7848,-56.4506C655.2859,-48.4254 716.7266,-36.0703 779.3025,-19.9879"/>
<polygon fill="#191970" stroke="#191970" points="780.555,-23.2786 789.3525,-17.3748 778.7935,-16.5039 780.555,-23.2786"/>
</g>
<!-- Node10 -->
<g id="node11" class="node">
<title>Node10</title>
<polygon fill="none" stroke="#bfbfbf" points="317.5,-.5 317.5,-19.5 390.5,-19.5 390.5,-.5 317.5,-.5"/>
<text text-anchor="middle" x="354" y="-7.5" font-family="Helvetica,sans-Serif" font-size="10.00" fill="#000000">initializer_list</text>
</g>
<!-- Node3&#45;&gt;Node10 -->
<g id="edge10" class="edge">
<title>Node3&#45;&gt;Node10</title>
<path fill="none" stroke="#191970" d="M524.5873,-56.3733C489.7395,-46.9001 436.4118,-32.4032 398.6707,-22.1435"/>
<polygon fill="#191970" stroke="#191970" points="399.5185,-18.747 388.9506,-19.5011 397.6822,-25.5019 399.5185,-18.747"/>
</g>
<!-- Node11 -->
<g id="node12" class="node">
<title>Node11</title>
<polygon fill="none" stroke="#bfbfbf" points="409,-.5 409,-19.5 475,-19.5 475,-.5 409,-.5"/>
<text text-anchor="middle" x="442" y="-7.5" font-family="Helvetica,sans-Serif" font-size="10.00" fill="#000000">string_view</text>
</g>
<!-- Node3&#45;&gt;Node11 -->
<g id="edge11" class="edge">
<title>Node3&#45;&gt;Node11</title>
<path fill="none" stroke="#191970" d="M539.7151,-56.3733C520.8579,-47.4241 492.554,-33.9917 471.2545,-23.8835"/>
<polygon fill="#191970" stroke="#191970" points="472.5551,-20.6266 462.0202,-19.5011 469.5539,-26.9506 472.5551,-20.6266"/>
</g>
<!-- Node3&#45;&gt;Node12 -->
<g id="edge12" class="edge">
<title>Node3&#45;&gt;Node12</title>
<path fill="none" stroke="#191970" d="M506.3733,-58.6214C420.5513,-46.813 254.9276,-24.0244 185.1932,-14.4295"/>
<polygon fill="#191970" stroke="#191970" points="185.6195,-10.9553 175.2357,-13.0595 184.6653,-17.89 185.6195,-10.9553"/>
</g>
<!-- Node3&#45;&gt;Node13 -->
<g id="edge13" class="edge">
<title>Node3&#45;&gt;Node13</title>
<path fill="none" stroke="#191970" d="M506.4456,-57.2045C448.2566,-47.4871 358.0336,-31.9141 309.7217,-20.123"/>
<polygon fill="#191970" stroke="#191970" points="310.3478,-16.6708 299.7932,-17.5924 308.6189,-23.4539 310.3478,-16.6708"/>
</g>
<!-- Node14&#45;&gt;Node2 -->
<g id="edge16" class="edge">
<title>Node14&#45;&gt;Node2</title>
<path fill="none" stroke="#191970" d="M284.4796,-184.9005C304.954,-173.6564 339.0772,-154.9166 362.7393,-141.9219"/>
<polygon fill="#191970" stroke="#191970" points="364.4724,-144.9632 371.5528,-137.0817 361.1028,-138.8276 364.4724,-144.9632"/>
</g>
<!-- Node14&#45;&gt;Node12 -->
<g id="edge19" class="edge">
<title>Node14&#45;&gt;Node12</title>
<path fill="none" stroke="#191970" d="M262.5268,-184.6023C255.2894,-168.8635 240.2748,-137.3225 225,-112 206.456,-81.2579 181.7679,-47.5977 166.649,-27.6646"/>
<polygon fill="#191970" stroke="#191970" points="169.2859,-25.351 160.4323,-19.5318 163.7246,-29.6021 169.2859,-25.351"/>
</g>
<!-- Node14&#45;&gt;Node13 -->
<g id="edge18" class="edge">
<title>Node14&#45;&gt;Node13</title>
<path fill="none" stroke="#191970" d="M267.6283,-184.8402C269.5156,-155.8223 275.162,-69.0088 277.718,-29.7113"/>
<polygon fill="#191970" stroke="#191970" points="281.2214,-29.7702 278.3779,-19.5641 274.2362,-29.3158 281.2214,-29.7702"/>
</g>
<!-- Node14&#45;&gt;Node15 -->
<g id="edge17" class="edge">
<title>Node14&#45;&gt;Node15</title>
<path fill="none" stroke="#191970" d="M252.5292,-184.9005C238.1201,-175.3421 215.5456,-160.3669 197.0672,-148.1089"/>
<polygon fill="#191970" stroke="#191970" points="198.9127,-145.1331 188.6447,-142.5218 195.0431,-150.9664 198.9127,-145.1331"/>
</g>
<!-- Node17&#45;&gt;Node2 -->
<g id="edge25" class="edge">
<title>Node17&#45;&gt;Node2</title>
<path fill="none" stroke="#191970" d="M637.7261,-251.8631C591.0788,-228.5394 471.9246,-168.9623 417.2252,-141.6126"/>
<polygon fill="#191970" stroke="#191970" points="418.6088,-138.3913 408.0993,-137.0496 415.4783,-144.6523 418.6088,-138.3913"/>
</g>
<!-- Node18 -->
<g id="node19" class="node">
<title>Node18</title>
<polygon fill="none" stroke="#bfbfbf" points="810.5,-179.5 810.5,-209.5 911.5,-209.5 911.5,-179.5 810.5,-179.5"/>
<text text-anchor="start" x="818.5" y="-197.5" font-family="Helvetica,sans-Serif" font-size="10.00" fill="#000000">boost/property_tree</text>
<text text-anchor="middle" x="861" y="-186.5" font-family="Helvetica,sans-Serif" font-size="10.00" fill="#000000">/ptree.hpp</text>
</g>
<!-- Node17&#45;&gt;Node18 -->
<g id="edge26" class="edge">
<title>Node17&#45;&gt;Node18</title>
<path fill="none" stroke="#191970" d="M686.2282,-251.9005C717.3069,-241.6933 767.1931,-225.3091 805.728,-212.6531"/>
<polygon fill="#191970" stroke="#191970" points="806.8535,-215.9674 815.2621,-209.5218 804.6692,-209.3169 806.8535,-215.9674"/>
</g>
<!-- Node19 -->
<g id="node20" class="node">
<title>Node19</title>
<polygon fill="none" stroke="#bfbfbf" points="599,-179.5 599,-209.5 715,-209.5 715,-179.5 599,-179.5"/>
<text text-anchor="start" x="607" y="-197.5" font-family="Helvetica,sans-Serif" font-size="10.00" fill="#000000">boost/program_options</text>
<text text-anchor="middle" x="657" y="-186.5" font-family="Helvetica,sans-Serif" font-size="10.00" fill="#000000">/variables_map.hpp</text>
</g>
<!-- Node17&#45;&gt;Node19 -->
<g id="edge27" class="edge">
<title>Node17&#45;&gt;Node19</title>
<path fill="none" stroke="#191970" d="M657,-251.9005C657,-243.5099 657,-230.9451 657,-219.7085"/>
<polygon fill="#191970" stroke="#191970" points="660.5001,-219.5217 657,-209.5218 653.5001,-219.5218 660.5001,-219.5217"/>
</g>
<!-- Node20 -->
<g id="node21" class="node">
<title>Node20</title>
<polygon fill="none" stroke="#bfbfbf" points="733.5,-185 733.5,-204 792.5,-204 792.5,-185 733.5,-185"/>
<text text-anchor="middle" x="763" y="-192" font-family="Helvetica,sans-Serif" font-size="10.00" fill="#000000">functional</text>
</g>
<!-- Node17&#45;&gt;Node20 -->
<g id="edge28" class="edge">
<title>Node17&#45;&gt;Node20</title>
<path fill="none" stroke="#191970" d="M672.1872,-251.9005C689.7403,-240.8057 718.8394,-222.4128 739.3598,-209.4424"/>
<polygon fill="#191970" stroke="#191970" points="741.258,-212.3832 747.841,-204.0817 737.5179,-206.4661 741.258,-212.3832"/>
</g>
</g>
</svg>
