<?xml version="1.0" encoding="UTF-8" standalone="no"?>
<!DOCTYPE svg PUBLIC "-//W3C//DTD SVG 1.1//EN"
 "http://www.w3.org/Graphics/SVG/1.1/DTD/svg11.dtd">
<!-- Generated by graphviz version 2.40.1 (20161225.0304)
 -->
<!-- Title: /home/runner/work/AliceO2/AliceO2/Framework/Core/src/ChannelSpecHelpers.cxx Pages: 1 -->
<svg width="566pt" height="218pt"
 viewBox="0.00 0.00 566.00 218.00" xmlns="http://www.w3.org/2000/svg" xmlns:xlink="http://www.w3.org/1999/xlink">
<g id="graph0" class="graph" transform="scale(1 1) rotate(0) translate(4 214)">
<title>/home/runner/work/AliceO2/AliceO2/Framework/Core/src/ChannelSpecHelpers.cxx</title>
<!-- Node0 -->
<g id="node1" class="node">
<title>Node0</title>
<polygon fill="#bfbfbf" stroke="#000000" points="312,-168.5 312,-209.5 459,-209.5 459,-168.5 312,-168.5"/>
<text text-anchor="start" x="320" y="-197.5" font-family="Helvetica,sans-Serif" font-size="10.00" fill="#000000">/home/runner/work/AliceO2</text>
<text text-anchor="start" x="320" y="-186.5" font-family="Helvetica,sans-Serif" font-size="10.00" fill="#000000">/AliceO2/Framework/Core</text>
<text text-anchor="middle" x="385.5" y="-175.5" font-family="Helvetica,sans-Serif" font-size="10.00" fill="#000000">/src/ChannelSpecHelpers.cxx</text>
</g>
<!-- Node1 -->
<g id="node2" class="node">
<title>Node1</title>
<g id="a_node2"><a xlink:href="../../df/dbb/ChannelSpecHelpers_8h.html" target="_top" xlink:title="ChannelSpecHelpers.h">
<polygon fill="none" stroke="#000000" points="63,-112.5 63,-131.5 180,-131.5 180,-112.5 63,-112.5"/>
<text text-anchor="middle" x="121.5" y="-119.5" font-family="Helvetica,sans-Serif" font-size="10.00" fill="#000000">ChannelSpecHelpers.h</text>
</a>
</g>
</g>
<!-- Node0&#45;&gt;Node1 -->
<g id="edge1" class="edge">
<title>Node0&#45;&gt;Node1</title>
<path fill="none" stroke="#191970" d="M311.9613,-170.3368C266.1095,-158.7001 208.4639,-144.0704 168.6677,-133.9706"/>
<polygon fill="#191970" stroke="#191970" points="169.5063,-130.5725 158.9526,-131.505 167.7843,-137.3574 169.5063,-130.5725"/>
</g>
<!-- Node5 -->
<g id="node6" class="node">
<title>Node5</title>
<g id="a_node6"><a xlink:href="../../d1/d76/RuntimeError_8h.html" target="_top" xlink:title="Framework/RuntimeError.h">
<polygon fill="none" stroke="#000000" points="198.5,-112.5 198.5,-131.5 332.5,-131.5 332.5,-112.5 198.5,-112.5"/>
<text text-anchor="middle" x="265.5" y="-119.5" font-family="Helvetica,sans-Serif" font-size="10.00" fill="#000000">Framework/RuntimeError.h</text>
</a>
</g>
</g>
<!-- Node0&#45;&gt;Node5 -->
<g id="edge5" class="edge">
<title>Node0&#45;&gt;Node5</title>
<path fill="none" stroke="#191970" d="M348.5169,-168.3511C330.2106,-158.1301 308.5351,-146.0279 291.9236,-136.7532"/>
<polygon fill="#191970" stroke="#191970" points="293.2294,-133.4737 282.7919,-131.6546 289.8169,-139.5856 293.2294,-133.4737"/>
</g>
<!-- Node6 -->
<g id="node7" class="node">
<title>Node6</title>
<polygon fill="none" stroke="#bfbfbf" points="350.5,-112.5 350.5,-131.5 420.5,-131.5 420.5,-112.5 350.5,-112.5"/>
<text text-anchor="middle" x="385.5" y="-119.5" font-family="Helvetica,sans-Serif" font-size="10.00" fill="#000000">fmt/format.h</text>
</g>
<!-- Node0&#45;&gt;Node6 -->
<g id="edge6" class="edge">
<title>Node0&#45;&gt;Node6</title>
<path fill="none" stroke="#191970" d="M385.5,-168.168C385.5,-159.8226 385.5,-150.2471 385.5,-141.9879"/>
<polygon fill="#191970" stroke="#191970" points="389.0001,-141.7804 385.5,-131.7805 382.0001,-141.7805 389.0001,-141.7804"/>
</g>
<!-- Node7 -->
<g id="node8" class="node">
<title>Node7</title>
<polygon fill="none" stroke="#bfbfbf" points="438.5,-112.5 438.5,-131.5 490.5,-131.5 490.5,-112.5 438.5,-112.5"/>
<text text-anchor="middle" x="464.5" y="-119.5" font-family="Helvetica,sans-Serif" font-size="10.00" fill="#000000">ostream</text>
</g>
<!-- Node0&#45;&gt;Node7 -->
<g id="edge7" class="edge">
<title>Node0&#45;&gt;Node7</title>
<path fill="none" stroke="#191970" d="M410.063,-168.168C421.3569,-158.5897 434.5613,-147.3911 445.1368,-138.422"/>
<polygon fill="#191970" stroke="#191970" points="447.6051,-140.9179 452.9678,-131.7805 443.0774,-135.5793 447.6051,-140.9179"/>
</g>
<!-- Node8 -->
<g id="node9" class="node">
<title>Node8</title>
<polygon fill="none" stroke="#bfbfbf" points="509,-112.5 509,-131.5 558,-131.5 558,-112.5 509,-112.5"/>
<text text-anchor="middle" x="533.5" y="-119.5" font-family="Helvetica,sans-Serif" font-size="10.00" fill="#000000">cassert</text>
</g>
<!-- Node0&#45;&gt;Node8 -->
<g id="edge8" class="edge">
<title>Node0&#45;&gt;Node8</title>
<path fill="none" stroke="#191970" d="M431.1125,-168.3511C454.4287,-157.7958 482.1768,-145.2342 502.901,-135.8523"/>
<polygon fill="#191970" stroke="#191970" points="504.5068,-138.9673 512.1733,-131.6546 501.6199,-132.5903 504.5068,-138.9673"/>
</g>
<!-- Node2 -->
<g id="node3" class="node">
<title>Node2</title>
<g id="a_node3"><a xlink:href="../../d6/d72/ChannelSpec_8h.html" target="_top" xlink:title="Framework/ChannelSpec.h">
<polygon fill="none" stroke="#000000" points="0,-56.5 0,-75.5 135,-75.5 135,-56.5 0,-56.5"/>
<text text-anchor="middle" x="67.5" y="-63.5" font-family="Helvetica,sans-Serif" font-size="10.00" fill="#000000">Framework/ChannelSpec.h</text>
</a>
</g>
</g>
<!-- Node1&#45;&gt;Node2 -->
<g id="edge2" class="edge">
<title>Node1&#45;&gt;Node2</title>
<path fill="none" stroke="#191970" d="M112.0939,-112.2455C104.3507,-104.2155 93.188,-92.6394 83.9682,-83.0781"/>
<polygon fill="#191970" stroke="#191970" points="86.2591,-80.4117 76.7983,-75.6427 81.2202,-85.2706 86.2591,-80.4117"/>
</g>
<!-- Node4 -->
<g id="node5" class="node">
<title>Node4</title>
<polygon fill="none" stroke="#bfbfbf" points="153,-56.5 153,-75.5 198,-75.5 198,-56.5 153,-56.5"/>
<text text-anchor="middle" x="175.5" y="-63.5" font-family="Helvetica,sans-Serif" font-size="10.00" fill="#000000">iosfwd</text>
</g>
<!-- Node1&#45;&gt;Node4 -->
<g id="edge4" class="edge">
<title>Node1&#45;&gt;Node4</title>
<path fill="none" stroke="#191970" d="M130.9061,-112.2455C138.6493,-104.2155 149.812,-92.6394 159.0318,-83.0781"/>
<polygon fill="#191970" stroke="#191970" points="161.7798,-85.2706 166.2017,-75.6427 156.7409,-80.4117 161.7798,-85.2706"/>
</g>
<!-- Node3 -->
<g id="node4" class="node">
<title>Node3</title>
<polygon fill="none" stroke="#bfbfbf" points="47,-.5 47,-19.5 88,-19.5 88,-.5 47,-.5"/>
<text text-anchor="middle" x="67.5" y="-7.5" font-family="Helvetica,sans-Serif" font-size="10.00" fill="#000000">string</text>
</g>
<!-- Node2&#45;&gt;Node3 -->
<g id="edge3" class="edge">
<title>Node2&#45;&gt;Node3</title>
<path fill="none" stroke="#191970" d="M67.5,-56.2455C67.5,-48.9382 67.5,-38.6944 67.5,-29.7046"/>
<polygon fill="#191970" stroke="#191970" points="71.0001,-29.6426 67.5,-19.6427 64.0001,-29.6427 71.0001,-29.6426"/>
</g>
</g>
</svg>
