<?xml version="1.0" encoding="UTF-8" standalone="no"?>
<!DOCTYPE svg PUBLIC "-//W3C//DTD SVG 1.1//EN"
 "http://www.w3.org/Graphics/SVG/1.1/DTD/svg11.dtd">
<!-- Generated by graphviz version 2.40.1 (20161225.0304)
 -->
<!-- Title: /home/runner/work/AliceO2/AliceO2/Detectors/TRD/base/include/TRDBase/GeometryBase.h Pages: 1 -->
<svg width="565pt" height="218pt"
 viewBox="0.00 0.00 564.50 218.00" xmlns="http://www.w3.org/2000/svg" xmlns:xlink="http://www.w3.org/1999/xlink">
<g id="graph0" class="graph" transform="scale(1 1) rotate(0) translate(4 214)">
<title>/home/runner/work/AliceO2/AliceO2/Detectors/TRD/base/include/TRDBase/GeometryBase.h</title>
<!-- Node0 -->
<g id="node1" class="node">
<title>Node0</title>
<polygon fill="#bfbfbf" stroke="#000000" points="149,-168.5 149,-209.5 346,-209.5 346,-168.5 149,-168.5"/>
<text text-anchor="start" x="157" y="-197.5" font-family="Helvetica,sans-Serif" font-size="10.00" fill="#000000">/home/runner/work/AliceO2</text>
<text text-anchor="start" x="157" y="-186.5" font-family="Helvetica,sans-Serif" font-size="10.00" fill="#000000">/AliceO2/Detectors/TRD</text>
<text text-anchor="middle" x="247.5" y="-175.5" font-family="Helvetica,sans-Serif" font-size="10.00" fill="#000000">/base/include/TRDBase/GeometryBase.h</text>
</g>
<!-- Node1 -->
<g id="node2" class="node">
<title>Node1</title>
<g id="a_node2"><a xlink:href="../../df/d21/GPUCommonDef_8h.html" target="_top" xlink:title="GPUCommonDef.h">
<polygon fill="none" stroke="#000000" points="78.5,-56.5 78.5,-75.5 180.5,-75.5 180.5,-56.5 78.5,-56.5"/>
<text text-anchor="middle" x="129.5" y="-63.5" font-family="Helvetica,sans-Serif" font-size="10.00" fill="#000000">GPUCommonDef.h</text>
</a>
</g>
</g>
<!-- Node0&#45;&gt;Node1 -->
<g id="edge1" class="edge">
<title>Node0&#45;&gt;Node1</title>
<path fill="none" stroke="#191970" d="M152.3197,-168.4327C134.2586,-160.1089 117.572,-148.4184 106.5,-132 96.5938,-117.3103 105.4706,-97.9063 114.9264,-83.9448"/>
<polygon fill="#191970" stroke="#191970" points="117.9168,-85.7867 121.0323,-75.6603 112.2819,-81.6336 117.9168,-85.7867"/>
</g>
<!-- Node4 -->
<g id="node5" class="node">
<title>Node4</title>
<g id="a_node5"><a xlink:href="../../d5/d17/CommonParam_8h.html" target="_top" xlink:title="TRDBase/CommonParam.h">
<polygon fill="none" stroke="#000000" points="416.5,-112.5 416.5,-131.5 556.5,-131.5 556.5,-112.5 416.5,-112.5"/>
<text text-anchor="middle" x="486.5" y="-119.5" font-family="Helvetica,sans-Serif" font-size="10.00" fill="#000000">TRDBase/CommonParam.h</text>
</a>
</g>
</g>
<!-- Node0&#45;&gt;Node4 -->
<g id="edge4" class="edge">
<title>Node0&#45;&gt;Node4</title>
<path fill="none" stroke="#191970" d="M320.8321,-168.4425C360.7966,-157.239 408.9017,-143.7535 442.954,-134.2075"/>
<polygon fill="#191970" stroke="#191970" points="443.9219,-137.5711 452.6059,-131.5017 442.0324,-130.831 443.9219,-137.5711"/>
</g>
<!-- Node7 -->
<g id="node8" class="node">
<title>Node7</title>
<g id="a_node8"><a xlink:href="../../d6/dc2/DataFormats_2Detectors_2TRD_2include_2DataFormatsTRD_2Constants_8h.html" target="_top" xlink:title="DataFormatsTRD/Constants.h">
<polygon fill="none" stroke="#000000" points="247,-112.5 247,-131.5 398,-131.5 398,-112.5 247,-112.5"/>
<text text-anchor="middle" x="322.5" y="-119.5" font-family="Helvetica,sans-Serif" font-size="10.00" fill="#000000">DataFormatsTRD/Constants.h</text>
</a>
</g>
</g>
<!-- Node0&#45;&gt;Node7 -->
<g id="edge7" class="edge">
<title>Node0&#45;&gt;Node7</title>
<path fill="none" stroke="#191970" d="M270.8193,-168.168C281.4352,-158.6846 293.8291,-147.6127 303.8182,-138.689"/>
<polygon fill="#191970" stroke="#191970" points="306.4258,-141.0528 311.5517,-131.7805 301.7623,-135.8325 306.4258,-141.0528"/>
</g>
<!-- Node8 -->
<g id="node9" class="node">
<title>Node8</title>
<g id="a_node9"><a xlink:href="../../da/de4/PadPlane_8h.html" target="_top" xlink:title="TRDBase/PadPlane.h">
<polygon fill="none" stroke="#000000" points="116,-112.5 116,-131.5 229,-131.5 229,-112.5 116,-112.5"/>
<text text-anchor="middle" x="172.5" y="-119.5" font-family="Helvetica,sans-Serif" font-size="10.00" fill="#000000">TRDBase/PadPlane.h</text>
</a>
</g>
</g>
<!-- Node0&#45;&gt;Node8 -->
<g id="edge8" class="edge">
<title>Node0&#45;&gt;Node8</title>
<path fill="none" stroke="#191970" d="M224.1807,-168.168C213.5648,-158.6846 201.1709,-147.6127 191.1818,-138.689"/>
<polygon fill="#191970" stroke="#191970" points="193.2377,-135.8325 183.4483,-131.7805 188.5742,-141.0528 193.2377,-135.8325"/>
</g>
<!-- Node2 -->
<g id="node3" class="node">
<title>Node2</title>
<g id="a_node3"><a xlink:href="../../d5/d93/GPUCommonDefSettings_8h.html" target="_top" xlink:title="GPUCommonDefSettings.h">
<polygon fill="none" stroke="#000000" points="137.5,-.5 137.5,-19.5 275.5,-19.5 275.5,-.5 137.5,-.5"/>
<text text-anchor="middle" x="206.5" y="-7.5" font-family="Helvetica,sans-Serif" font-size="10.00" fill="#000000">GPUCommonDefSettings.h</text>
</a>
</g>
</g>
<!-- Node1&#45;&gt;Node2 -->
<g id="edge2" class="edge">
<title>Node1&#45;&gt;Node2</title>
<path fill="none" stroke="#191970" d="M142.9124,-56.2455C154.5057,-47.814 171.4748,-35.4729 184.9678,-25.6598"/>
<polygon fill="#191970" stroke="#191970" points="187.2126,-28.355 193.2413,-19.6427 183.0953,-22.6938 187.2126,-28.355"/>
</g>
<!-- Node3 -->
<g id="node4" class="node">
<title>Node3</title>
<g id="a_node4"><a xlink:href="../../da/d5a/GPUCommonDefAPI_8h.html" target="_top" xlink:title="GPUCommonDefAPI.h">
<polygon fill="none" stroke="#000000" points="0,-.5 0,-19.5 119,-19.5 119,-.5 0,-.5"/>
<text text-anchor="middle" x="59.5" y="-7.5" font-family="Helvetica,sans-Serif" font-size="10.00" fill="#000000">GPUCommonDefAPI.h</text>
</a>
</g>
</g>
<!-- Node1&#45;&gt;Node3 -->
<g id="edge3" class="edge">
<title>Node1&#45;&gt;Node3</title>
<path fill="none" stroke="#191970" d="M117.3069,-56.2455C106.8679,-47.8943 91.6345,-35.7076 79.426,-25.9408"/>
<polygon fill="#191970" stroke="#191970" points="81.5485,-23.1566 71.5533,-19.6427 77.1756,-28.6227 81.5485,-23.1566"/>
</g>
<!-- Node5 -->
<g id="node6" class="node">
<title>Node5</title>
<g id="a_node6"><a xlink:href="../../d2/d45/GPUCommonRtypes_8h.html" target="_top" xlink:title="GPUCommonRtypes.h">
<polygon fill="none" stroke="#000000" points="268.5,-56.5 268.5,-75.5 386.5,-75.5 386.5,-56.5 268.5,-56.5"/>
<text text-anchor="middle" x="327.5" y="-63.5" font-family="Helvetica,sans-Serif" font-size="10.00" fill="#000000">GPUCommonRtypes.h</text>
</a>
</g>
</g>
<!-- Node4&#45;&gt;Node5 -->
<g id="edge5" class="edge">
<title>Node4&#45;&gt;Node5</title>
<path fill="none" stroke="#191970" d="M459.1669,-112.3733C432.9566,-103.1419 393.2016,-89.1402 364.2332,-78.9375"/>
<polygon fill="#191970" stroke="#191970" points="365.0712,-75.5219 354.4764,-75.5011 362.7458,-82.1244 365.0712,-75.5219"/>
</g>
<!-- Node6 -->
<g id="node7" class="node">
<title>Node6</title>
<polygon fill="none" stroke="#bfbfbf" points="299.5,-.5 299.5,-19.5 355.5,-19.5 355.5,-.5 299.5,-.5"/>
<text text-anchor="middle" x="327.5" y="-7.5" font-family="Helvetica,sans-Serif" font-size="10.00" fill="#000000">Rtypes.h</text>
</g>
<!-- Node5&#45;&gt;Node6 -->
<g id="edge6" class="edge">
<title>Node5&#45;&gt;Node6</title>
<path fill="none" stroke="#191970" d="M327.5,-56.2455C327.5,-48.9382 327.5,-38.6944 327.5,-29.7046"/>
<polygon fill="#191970" stroke="#191970" points="331.0001,-29.6426 327.5,-19.6427 324.0001,-29.6427 331.0001,-29.6426"/>
</g>
<!-- Node8&#45;&gt;Node1 -->
<g id="edge10" class="edge">
<title>Node8&#45;&gt;Node1</title>
<path fill="none" stroke="#191970" d="M165.01,-112.2455C158.9674,-104.3761 150.3097,-93.101 143.0559,-83.6542"/>
<polygon fill="#191970" stroke="#191970" points="145.7705,-81.4426 136.9042,-75.6427 140.2185,-85.7058 145.7705,-81.4426"/>
</g>
<!-- Node8&#45;&gt;Node5 -->
<g id="edge9" class="edge">
<title>Node8&#45;&gt;Node5</title>
<path fill="none" stroke="#191970" d="M199.1454,-112.3733C224.6964,-103.1419 263.4512,-89.1402 291.6909,-78.9375"/>
<polygon fill="#191970" stroke="#191970" points="292.9865,-82.1909 301.2022,-75.5011 290.6079,-75.6074 292.9865,-82.1909"/>
</g>
</g>
</svg>
