<?xml version="1.0" encoding="UTF-8" standalone="no"?>
<!DOCTYPE svg PUBLIC "-//W3C//DTD SVG 1.1//EN"
 "http://www.w3.org/Graphics/SVG/1.1/DTD/svg11.dtd">
<!-- Generated by graphviz version 2.40.1 (20161225.0304)
 -->
<!-- Title: o2::fv0::Constants Pages: 1 -->
<svg width="140pt" height="215pt"
 viewBox="0.00 0.00 140.00 215.00" xmlns="http://www.w3.org/2000/svg" xmlns:xlink="http://www.w3.org/1999/xlink">
<g id="graph0" class="graph" transform="scale(1 1) rotate(0) translate(4 211)">
<title>o2::fv0::Constants</title>
<!-- Node1 -->
<g id="node1" class="node">
<title>Node1</title>
<polygon fill="#bfbfbf" stroke="#000000" points="0,-.5 0,-57.5 98,-57.5 98,-.5 0,-.5"/>
<text text-anchor="middle" x="49" y="-45.5" font-family="Helvetica,sans-Serif" font-size="10.00" fill="#000000">o2::fv0::Constants</text>
<polyline fill="none" stroke="#000000" points="0,-38.5 98,-38.5 "/>
<text text-anchor="middle" x="49" y="-26.5" font-family="Helvetica,sans-Serif" font-size="10.00" fill="#000000"> </text>
<polyline fill="none" stroke="#000000" points="0,-19.5 98,-19.5 "/>
<text text-anchor="middle" x="49" y="-7.5" font-family="Helvetica,sans-Serif" font-size="10.00" fill="#000000"> </text>
</g>
<!-- Node2 -->
<g id="node2" class="node">
<title>Node2</title>
<polygon fill="none" stroke="#bfbfbf" points="28.5,-149.5 28.5,-206.5 69.5,-206.5 69.5,-149.5 28.5,-149.5"/>
<text text-anchor="middle" x="49" y="-194.5" font-family="Helvetica,sans-Serif" font-size="10.00" fill="#000000">static</text>
<polyline fill="none" stroke="#bfbfbf" points="28.5,-187.5 69.5,-187.5 "/>
<text text-anchor="middle" x="49" y="-175.5" font-family="Helvetica,sans-Serif" font-size="10.00" fill="#000000"> </text>
<polyline fill="none" stroke="#bfbfbf" points="28.5,-168.5 69.5,-168.5 "/>
<text text-anchor="middle" x="49" y="-156.5" font-family="Helvetica,sans-Serif" font-size="10.00" fill="#000000"> </text>
</g>
<!-- Node2&#45;&gt;Node1 -->
<g id="edge1" class="edge">
<title>Node2&#45;&gt;Node1</title>
<path fill="none" stroke="#404040" d="M49,-149.2713C49,-126.7002 49,-94.9774 49,-69.7784"/>
<polygon fill="none" stroke="#404040" points="49.0001,-69.6405 45,-63.6405 49,-57.6405 53,-63.6405 49.0001,-69.6405"/>
<text text-anchor="middle" x="90.5" y="-123" font-family="Helvetica,sans-Serif" font-size="10.00" fill="#000000"> +nPms</text>
<text text-anchor="middle" x="90.5" y="-112" font-family="Helvetica,sans-Serif" font-size="10.00" fill="#000000">+nTcms</text>
<text text-anchor="middle" x="90.5" y="-101" font-family="Helvetica,sans-Serif" font-size="10.00" fill="#000000">+nFv0Channels</text>
<text text-anchor="middle" x="90.5" y="-90" font-family="Helvetica,sans-Serif" font-size="10.00" fill="#000000">+nGbtLinks</text>
<text text-anchor="middle" x="90.5" y="-79" font-family="Helvetica,sans-Serif" font-size="10.00" fill="#000000">+nChannelsPerPm</text>
</g>
</g>
</svg>
