<?xml version="1.0" encoding="UTF-8" standalone="no"?>
<!DOCTYPE svg PUBLIC "-//W3C//DTD SVG 1.1//EN"
 "http://www.w3.org/Graphics/SVG/1.1/DTD/svg11.dtd">
<!-- Generated by graphviz version 2.40.1 (20161225.0304)
 -->
<!-- Title: /home/runner/work/AliceO2/AliceO2/Detectors/TRD/base/include/TRDBase/PadCalibrations.h Pages: 1 -->
<!--zoomable 573 -->
<svg id="main" version="1.1" xmlns="http://www.w3.org/2000/svg" xmlns:xlink="http://www.w3.org/1999/xlink" xml:space="preserve" onload="init(evt)">
<style type="text/css"><![CDATA[
.edge:hover path { stroke: red; }
.edge:hover polygon { stroke: red; fill: red; }
]]></style>
<script type="text/javascript"><![CDATA[
var edges = document.getElementsByTagName('g');
if (edges && edges.length) {
  for (var i=0;i<edges.length;i++) {
    if (edges[i].id.substr(0,4)=='edge') {
      edges[i].setAttribute('class','edge');
    }
  }
}
]]></script>
        <defs>
                <circle id="rim" cx="0" cy="0" r="7"/>
                <circle id="rim2" cx="0" cy="0" r="3.5"/>
                <g id="zoomPlus">
                        <use xlink:href="#rim" fill="#404040">
                                <set attributeName="fill" to="#808080" begin="zoomplus.mouseover" end="zoomplus.mouseout"/>
                        </use>
                        <path d="M-4,0h8M0,-4v8" fill="none" stroke="white" stroke-width="1.5" pointer-events="none"/>
                </g>
                <g id="zoomMin">
                        <use xlink:href="#rim" fill="#404040">
                                <set attributeName="fill" to="#808080" begin="zoomminus.mouseover" end="zoomminus.mouseout"/>
                        </use>
                        <path d="M-4,0h8" fill="none" stroke="white" stroke-width="1.5" pointer-events="none"/>
                </g>
                <g id="dirArrow">
                        <path fill="none" stroke="white" stroke-width="1.5" d="M0,-3.0v7 M-2.5,-0.5L0,-3.0L2.5,-0.5"/>
                </g>
               <g id="resetDef">
                       <use xlink:href="#rim2" fill="#404040">
                               <set attributeName="fill" to="#808080" begin="reset.mouseover" end="reset.mouseout"/>
                       </use>
               </g>
        </defs>

<script type="text/javascript">
var viewWidth = 1377;
var viewHeight = 573;
var sectionId = 'dynsection-1';
</script>
<script xlink:href="../../svgpan.js"/>
<svg id="graph" class="graph">
<g id="viewport">
<title>/home/runner/work/AliceO2/AliceO2/Detectors/TRD/base/include/TRDBase/PadCalibrations.h</title>
<!-- Node54 -->
<g id="node1" class="node">
<title>Node54</title>
<polygon fill="#bfbfbf" stroke="#000000" points="750,-523.5 750,-564.5 951,-564.5 951,-523.5 750,-523.5"/>
<text text-anchor="start" x="758" y="-552.5" font-family="Helvetica,sans-Serif" font-size="10.00" fill="#000000">/home/runner/work/AliceO2</text>
<text text-anchor="start" x="758" y="-541.5" font-family="Helvetica,sans-Serif" font-size="10.00" fill="#000000">/AliceO2/Detectors/TRD</text>
<text text-anchor="middle" x="850.5" y="-530.5" font-family="Helvetica,sans-Serif" font-size="10.00" fill="#000000">/base/include/TRDBase/PadCalibrations.h</text>
</g>
<!-- Node55 -->
<g id="node2" class="node">
<title>Node55</title>
<g id="a_node2"><a xlink:href="../../d2/d8d/LocalGainFactor_8h.html" target="_top" xlink:title="/home/runner/work/AliceO2\l/AliceO2/Detectors/TRD\l/base/include/TRDBase/LocalGain\lFactor.h">
<polygon fill="none" stroke="#000000" points="479,-434.5 479,-486.5 646,-486.5 646,-434.5 479,-434.5"/>
<text text-anchor="start" x="487" y="-474.5" font-family="Helvetica,sans-Serif" font-size="10.00" fill="#000000">/home/runner/work/AliceO2</text>
<text text-anchor="start" x="487" y="-463.5" font-family="Helvetica,sans-Serif" font-size="10.00" fill="#000000">/AliceO2/Detectors/TRD</text>
<text text-anchor="start" x="487" y="-452.5" font-family="Helvetica,sans-Serif" font-size="10.00" fill="#000000">/base/include/TRDBase/LocalGain</text>
<text text-anchor="middle" x="562.5" y="-441.5" font-family="Helvetica,sans-Serif" font-size="10.00" fill="#000000">Factor.h</text>
</a>
</g>
</g>
<!-- Node54&#45;&gt;Node55 -->
<g id="edge1" class="edge">
<title>Node54&#45;&gt;Node55</title>
<path fill="none" stroke="#191970" d="M770.0298,-520.6692C731.3966,-509.4683 685.1329,-496.055 646.1003,-484.7383"/>
<polygon fill="#191970" stroke="#191970" points="769.0993,-524.0435 779.6784,-523.4667 771.0486,-517.3204 769.0993,-524.0435"/>
</g>
<!-- Node70 -->
<g id="node17" class="node">
<title>Node70</title>
<g id="a_node17"><a xlink:href="../../d8/d53/LocalT0_8h.html" target="_top" xlink:title="/home/runner/work/AliceO2\l/AliceO2/Detectors/TRD\l/base/include/TRDBase/LocalT0.h">
<polygon fill="none" stroke="#000000" points="671,-440 671,-481 838,-481 838,-440 671,-440"/>
<text text-anchor="start" x="679" y="-469" font-family="Helvetica,sans-Serif" font-size="10.00" fill="#000000">/home/runner/work/AliceO2</text>
<text text-anchor="start" x="679" y="-458" font-family="Helvetica,sans-Serif" font-size="10.00" fill="#000000">/AliceO2/Detectors/TRD</text>
<text text-anchor="middle" x="754.5" y="-447" font-family="Helvetica,sans-Serif" font-size="10.00" fill="#000000">/base/include/TRDBase/LocalT0.h</text>
</a>
</g>
</g>
<!-- Node54&#45;&gt;Node70 -->
<g id="edge23" class="edge">
<title>Node54&#45;&gt;Node70</title>
<path fill="none" stroke="#191970" d="M819.2011,-516.7765C805.9007,-505.2079 790.6457,-491.9393 778.2901,-481.1924"/>
<polygon fill="#191970" stroke="#191970" points="816.9274,-519.4376 826.7697,-523.3595 821.5214,-514.1559 816.9274,-519.4376"/>
</g>
<!-- Node72 -->
<g id="node19" class="node">
<title>Node72</title>
<g id="a_node19"><a xlink:href="../../d9/d59/LocalVDrift_8h.html" target="_top" xlink:title="/home/runner/work/AliceO2\l/AliceO2/Detectors/TRD\l/base/include/TRDBase/LocalVDrift.h">
<polygon fill="none" stroke="#000000" points="856,-440 856,-481 1037,-481 1037,-440 856,-440"/>
<text text-anchor="start" x="864" y="-469" font-family="Helvetica,sans-Serif" font-size="10.00" fill="#000000">/home/runner/work/AliceO2</text>
<text text-anchor="start" x="864" y="-458" font-family="Helvetica,sans-Serif" font-size="10.00" fill="#000000">/AliceO2/Detectors/TRD</text>
<text text-anchor="middle" x="946.5" y="-447" font-family="Helvetica,sans-Serif" font-size="10.00" fill="#000000">/base/include/TRDBase/LocalVDrift.h</text>
</a>
</g>
</g>
<!-- Node54&#45;&gt;Node72 -->
<g id="edge27" class="edge">
<title>Node54&#45;&gt;Node72</title>
<path fill="none" stroke="#191970" d="M881.7989,-516.7765C895.0993,-505.2079 910.3543,-491.9393 922.7099,-481.1924"/>
<polygon fill="#191970" stroke="#191970" points="879.4786,-514.1559 874.2303,-523.3595 884.0726,-519.4376 879.4786,-514.1559"/>
</g>
<!-- Node74 -->
<g id="node21" class="node">
<title>Node74</title>
<g id="a_node21"><a xlink:href="../../df/df7/PadStatus_8h.html" target="_top" xlink:title="/home/runner/work/AliceO2\l/AliceO2/Detectors/TRD\l/base/include/TRDBase/PadStatus.h">
<polygon fill="none" stroke="#000000" points="1055.5,-440 1055.5,-481 1233.5,-481 1233.5,-440 1055.5,-440"/>
<text text-anchor="start" x="1063.5" y="-469" font-family="Helvetica,sans-Serif" font-size="10.00" fill="#000000">/home/runner/work/AliceO2</text>
<text text-anchor="start" x="1063.5" y="-458" font-family="Helvetica,sans-Serif" font-size="10.00" fill="#000000">/AliceO2/Detectors/TRD</text>
<text text-anchor="middle" x="1144.5" y="-447" font-family="Helvetica,sans-Serif" font-size="10.00" fill="#000000">/base/include/TRDBase/PadStatus.h</text>
</a>
</g>
</g>
<!-- Node54&#45;&gt;Node74 -->
<g id="edge31" class="edge">
<title>Node54&#45;&gt;Node74</title>
<path fill="none" stroke="#191970" d="M932.5743,-520.6898C976.4363,-508.2324 1029.9493,-493.034 1072.2276,-481.0263"/>
<polygon fill="#191970" stroke="#191970" points="931.4603,-517.3677 922.797,-523.4667 933.3728,-524.1013 931.4603,-517.3677"/>
</g>
<!-- Node56 -->
<g id="node3" class="node">
<title>Node56</title>
<g id="a_node3"><a xlink:href="../../d4/d17/Calibrations_8h.html" target="_top" xlink:title="/home/runner/work/AliceO2\l/AliceO2/Detectors/TRD\l/base/include/TRDBase/Calibrations.h">
<polygon fill="none" stroke="#000000" points="878.5,-356.5 878.5,-397.5 1062.5,-397.5 1062.5,-356.5 878.5,-356.5"/>
<text text-anchor="start" x="886.5" y="-385.5" font-family="Helvetica,sans-Serif" font-size="10.00" fill="#000000">/home/runner/work/AliceO2</text>
<text text-anchor="start" x="886.5" y="-374.5" font-family="Helvetica,sans-Serif" font-size="10.00" fill="#000000">/AliceO2/Detectors/TRD</text>
<text text-anchor="middle" x="970.5" y="-363.5" font-family="Helvetica,sans-Serif" font-size="10.00" fill="#000000">/base/include/TRDBase/Calibrations.h</text>
</a>
</g>
</g>
<!-- Node55&#45;&gt;Node56 -->
<g id="edge2" class="edge">
<title>Node55&#45;&gt;Node56</title>
<path fill="none" stroke="#191970" d="M656.2672,-435.1995C658.0243,-434.7908 659.7698,-434.3905 661.5,-434 733.8689,-417.6664 816.5539,-402.6003 878.1696,-392.0648"/>
<polygon fill="#191970" stroke="#191970" points="655.0196,-431.8987 646.1041,-437.6228 656.6432,-438.7079 655.0196,-431.8987"/>
</g>
<!-- Node57 -->
<g id="node4" class="node">
<title>Node57</title>
<g id="a_node4"><a xlink:href="../../dc/db4/Calibrations_8cxx.html" target="_top" xlink:title="/home/runner/work/AliceO2\l/AliceO2/Detectors/TRD\l/base/src/Calibrations.cxx">
<polygon fill="none" stroke="#000000" points="591,-273 591,-314 726,-314 726,-273 591,-273"/>
<text text-anchor="start" x="599" y="-302" font-family="Helvetica,sans-Serif" font-size="10.00" fill="#000000">/home/runner/work/AliceO2</text>
<text text-anchor="start" x="599" y="-291" font-family="Helvetica,sans-Serif" font-size="10.00" fill="#000000">/AliceO2/Detectors/TRD</text>
<text text-anchor="middle" x="658.5" y="-280" font-family="Helvetica,sans-Serif" font-size="10.00" fill="#000000">/base/src/Calibrations.cxx</text>
</a>
</g>
</g>
<!-- Node55&#45;&gt;Node57 -->
<g id="edge21" class="edge">
<title>Node55&#45;&gt;Node57</title>
<path fill="none" stroke="#191970" d="M498.144,-428.3098C487.4184,-419.9606 477.7598,-409.8933 471.5,-398 462.8059,-381.4816 460.5915,-371.1476 471.5,-356 485.9028,-336.0003 543.2704,-318.7249 590.7103,-307.437"/>
<polygon fill="#191970" stroke="#191970" points="496.3606,-431.3393 506.5153,-434.3614 500.4616,-425.6664 496.3606,-431.3393"/>
</g>
<!-- Node69 -->
<g id="node16" class="node">
<title>Node69</title>
<g id="a_node16"><a xlink:href="../../d3/d93/LocalGainFactor_8cxx.html" target="_top" xlink:title="/home/runner/work/AliceO2\l/AliceO2/Detectors/TRD\l/base/src/LocalGainFactor.cxx">
<polygon fill="none" stroke="#000000" points="480.5,-356.5 480.5,-397.5 630.5,-397.5 630.5,-356.5 480.5,-356.5"/>
<text text-anchor="start" x="488.5" y="-385.5" font-family="Helvetica,sans-Serif" font-size="10.00" fill="#000000">/home/runner/work/AliceO2</text>
<text text-anchor="start" x="488.5" y="-374.5" font-family="Helvetica,sans-Serif" font-size="10.00" fill="#000000">/AliceO2/Detectors/TRD</text>
<text text-anchor="middle" x="555.5" y="-363.5" font-family="Helvetica,sans-Serif" font-size="10.00" fill="#000000">/base/src/LocalGainFactor.cxx</text>
</a>
</g>
</g>
<!-- Node55&#45;&gt;Node69 -->
<g id="edge22" class="edge">
<title>Node55&#45;&gt;Node69</title>
<path fill="none" stroke="#191970" d="M559.4492,-424.1086C558.6912,-415.0666 557.9046,-405.6836 557.2348,-397.6941"/>
<polygon fill="#191970" stroke="#191970" points="555.9619,-424.4075 560.2852,-434.0801 562.9374,-423.8226 555.9619,-424.4075"/>
</g>
<!-- Node56&#45;&gt;Node57 -->
<g id="edge3" class="edge">
<title>Node56&#45;&gt;Node57</title>
<path fill="none" stroke="#191970" d="M868.4165,-354.66C826.6548,-344.9213 778.0173,-332.8083 734.5,-320 728.3337,-318.1851 721.9296,-316.1668 715.5722,-314.0768"/>
<polygon fill="#191970" stroke="#191970" points="867.7897,-358.1074 878.3217,-356.9555 869.3701,-351.2881 867.7897,-358.1074"/>
</g>
<!-- Node58 -->
<g id="node5" class="node">
<title>Node58</title>
<g id="a_node5"><a xlink:href="../../d4/dae/TRD_2simulation_2include_2TRDSimulation_2Digitizer_8h.html" target="_top" xlink:title="/home/runner/work/AliceO2\l/AliceO2/Detectors/TRD\l/simulation/include/TRDSimulation\l/Digitizer.h">
<polygon fill="none" stroke="#000000" points="744,-267.5 744,-319.5 911,-319.5 911,-267.5 744,-267.5"/>
<text text-anchor="start" x="752" y="-307.5" font-family="Helvetica,sans-Serif" font-size="10.00" fill="#000000">/home/runner/work/AliceO2</text>
<text text-anchor="start" x="752" y="-296.5" font-family="Helvetica,sans-Serif" font-size="10.00" fill="#000000">/AliceO2/Detectors/TRD</text>
<text text-anchor="start" x="752" y="-285.5" font-family="Helvetica,sans-Serif" font-size="10.00" fill="#000000">/simulation/include/TRDSimulation</text>
<text text-anchor="middle" x="827.5" y="-274.5" font-family="Helvetica,sans-Serif" font-size="10.00" fill="#000000">/Digitizer.h</text>
</a>
</g>
</g>
<!-- Node56&#45;&gt;Node58 -->
<g id="edge4" class="edge">
<title>Node56&#45;&gt;Node58</title>
<path fill="none" stroke="#191970" d="M926.4005,-351.2496C909.1803,-341.1944 889.4616,-329.6804 872.1854,-319.5925"/>
<polygon fill="#191970" stroke="#191970" points="924.7512,-354.3395 935.1517,-356.3595 928.2809,-348.2946 924.7512,-354.3395"/>
</g>
<!-- Node63 -->
<g id="node10" class="node">
<title>Node63</title>
<g id="a_node10"><a xlink:href="../../dd/de7/TRDTrapSimulatorSpec_8cxx.html" target="_top" xlink:title="/home/runner/work/AliceO2\l/AliceO2/Detectors/TRD\l/workflow/src/TRDTrapSimulatorSpec.cxx">
<polygon fill="none" stroke="#000000" points="678,-6 678,-47 879,-47 879,-6 678,-6"/>
<text text-anchor="start" x="686" y="-35" font-family="Helvetica,sans-Serif" font-size="10.00" fill="#000000">/home/runner/work/AliceO2</text>
<text text-anchor="start" x="686" y="-24" font-family="Helvetica,sans-Serif" font-size="10.00" fill="#000000">/AliceO2/Detectors/TRD</text>
<text text-anchor="middle" x="778.5" y="-13" font-family="Helvetica,sans-Serif" font-size="10.00" fill="#000000">/workflow/src/TRDTrapSimulatorSpec.cxx</text>
</a>
</g>
</g>
<!-- Node56&#45;&gt;Node63 -->
<g id="edge20" class="edge">
<title>Node56&#45;&gt;Node63</title>
<path fill="none" stroke="#191970" d="M1028.0518,-352.1058C1101.2345,-316.8132 1212.6545,-248.6307 1164.5,-178 1129.1172,-126.1021 962.6224,-74.5636 860.1982,-47.0081"/>
<polygon fill="#191970" stroke="#191970" points="1026.4233,-349.0044 1018.8871,-356.4513 1029.4223,-355.3294 1026.4233,-349.0044"/>
</g>
<!-- Node68 -->
<g id="node15" class="node">
<title>Node68</title>
<g id="a_node15"><a xlink:href="../../d6/df2/TRDDigitizerSpec_8cxx.html" target="_top" xlink:title="/home/runner/work/AliceO2\l/AliceO2/Detectors/TRD\l/workflow/src/TRDDigitizerSpec.cxx">
<polygon fill="none" stroke="#000000" points="979.5,-184 979.5,-225 1155.5,-225 1155.5,-184 979.5,-184"/>
<text text-anchor="start" x="987.5" y="-213" font-family="Helvetica,sans-Serif" font-size="10.00" fill="#000000">/home/runner/work/AliceO2</text>
<text text-anchor="start" x="987.5" y="-202" font-family="Helvetica,sans-Serif" font-size="10.00" fill="#000000">/AliceO2/Detectors/TRD</text>
<text text-anchor="middle" x="1067.5" y="-191" font-family="Helvetica,sans-Serif" font-size="10.00" fill="#000000">/workflow/src/TRDDigitizerSpec.cxx</text>
</a>
</g>
</g>
<!-- Node56&#45;&gt;Node68 -->
<g id="edge19" class="edge">
<title>Node56&#45;&gt;Node68</title>
<path fill="none" stroke="#191970" d="M987.1386,-347.4107C1006.7453,-312.5432 1038.812,-255.5173 1055.909,-225.1128"/>
<polygon fill="#191970" stroke="#191970" points="984.0512,-345.7605 982.2005,-356.1925 990.1527,-349.1915 984.0512,-345.7605"/>
</g>
<!-- Node59 -->
<g id="node6" class="node">
<title>Node59</title>
<g id="a_node6"><a xlink:href="../../d7/d42/TrapSimulator_8h.html" target="_top" xlink:title="/home/runner/work/AliceO2\l/AliceO2/Detectors/TRD\l/simulation/include/TRDSimulation\l/TrapSimulator.h">
<polygon fill="none" stroke="#000000" points="432,-178.5 432,-230.5 599,-230.5 599,-178.5 432,-178.5"/>
<text text-anchor="start" x="440" y="-218.5" font-family="Helvetica,sans-Serif" font-size="10.00" fill="#000000">/home/runner/work/AliceO2</text>
<text text-anchor="start" x="440" y="-207.5" font-family="Helvetica,sans-Serif" font-size="10.00" fill="#000000">/AliceO2/Detectors/TRD</text>
<text text-anchor="start" x="440" y="-196.5" font-family="Helvetica,sans-Serif" font-size="10.00" fill="#000000">/simulation/include/TRDSimulation</text>
<text text-anchor="middle" x="515.5" y="-185.5" font-family="Helvetica,sans-Serif" font-size="10.00" fill="#000000">/TrapSimulator.h</text>
</a>
</g>
</g>
<!-- Node58&#45;&gt;Node59 -->
<g id="edge5" class="edge">
<title>Node58&#45;&gt;Node59</title>
<path fill="none" stroke="#191970" d="M734.0122,-266.832C691.1222,-254.5974 640.6784,-240.2079 599.0702,-228.3389"/>
<polygon fill="#191970" stroke="#191970" points="733.3132,-270.2722 743.8897,-269.6496 735.2334,-263.5407 733.3132,-270.2722"/>
</g>
<!-- Node61 -->
<g id="node8" class="node">
<title>Node61</title>
<g id="a_node8"><a xlink:href="../../da/deb/TrapSimulator_8cxx.html" target="_top" xlink:title="/home/runner/work/AliceO2\l/AliceO2/Detectors/TRD\l/simulation/src/TrapSimulator.cxx">
<polygon fill="none" stroke="#000000" points="0,-95 0,-136 163,-136 163,-95 0,-95"/>
<text text-anchor="start" x="8" y="-124" font-family="Helvetica,sans-Serif" font-size="10.00" fill="#000000">/home/runner/work/AliceO2</text>
<text text-anchor="start" x="8" y="-113" font-family="Helvetica,sans-Serif" font-size="10.00" fill="#000000">/AliceO2/Detectors/TRD</text>
<text text-anchor="middle" x="81.5" y="-102" font-family="Helvetica,sans-Serif" font-size="10.00" fill="#000000">/simulation/src/TrapSimulator.cxx</text>
</a>
</g>
</g>
<!-- Node58&#45;&gt;Node61 -->
<g id="edge15" class="edge">
<title>Node58&#45;&gt;Node61</title>
<path fill="none" stroke="#191970" d="M733.6498,-266.9901C595.7157,-240.776 555.5079,-260.845 422.5,-231 316.2273,-207.154 196.6401,-162.2587 131.1003,-136.017"/>
<polygon fill="#191970" stroke="#191970" points="733.2677,-270.4814 743.7525,-268.9588 734.6066,-263.6106 733.2677,-270.4814"/>
</g>
<!-- Node58&#45;&gt;Node63 -->
<g id="edge18" class="edge">
<title>Node58&#45;&gt;Node63</title>
<path fill="none" stroke="#191970" d="M819.4377,-257.6017C817.6534,-248.9217 815.8842,-239.6524 814.5,-231 804.4669,-168.287 811.7986,-151.1026 798.5,-89 795.4465,-74.7406 790.4465,-59.1156 786.2099,-47.0554"/>
<polygon fill="#191970" stroke="#191970" points="816.0263,-258.3871 821.5172,-267.4481 822.8753,-256.9407 816.0263,-258.3871"/>
</g>
<!-- Node66 -->
<g id="node13" class="node">
<title>Node66</title>
<g id="a_node13"><a xlink:href="../../d7/da6/TRDDigitReaderSpec_8cxx.html" target="_top" xlink:title="/home/runner/work/AliceO2\l/AliceO2/Detectors/TRD\l/workflow/src/TRDDigitReaderSpec.cxx">
<polygon fill="none" stroke="#000000" points="597.5,-95 597.5,-136 789.5,-136 789.5,-95 597.5,-95"/>
<text text-anchor="start" x="605.5" y="-124" font-family="Helvetica,sans-Serif" font-size="10.00" fill="#000000">/home/runner/work/AliceO2</text>
<text text-anchor="start" x="605.5" y="-113" font-family="Helvetica,sans-Serif" font-size="10.00" fill="#000000">/AliceO2/Detectors/TRD</text>
<text text-anchor="middle" x="693.5" y="-102" font-family="Helvetica,sans-Serif" font-size="10.00" fill="#000000">/workflow/src/TRDDigitReaderSpec.cxx</text>
</a>
</g>
</g>
<!-- Node58&#45;&gt;Node66 -->
<g id="edge17" class="edge">
<title>Node58&#45;&gt;Node66</title>
<path fill="none" stroke="#191970" d="M801.4237,-258.8614C773.9442,-222.3587 731.5779,-166.081 708.9676,-136.0465"/>
<polygon fill="#191970" stroke="#191970" points="798.9172,-261.3513 807.7278,-267.2355 804.5097,-257.1412 798.9172,-261.3513"/>
</g>
<!-- Node67 -->
<g id="node14" class="node">
<title>Node67</title>
<g id="a_node14"><a xlink:href="../../d7/d40/TRD_2simulation_2src_2Digitizer_8cxx.html" target="_top" xlink:title="/home/runner/work/AliceO2\l/AliceO2/Detectors/TRD\l/simulation/src/Digitizer.cxx">
<polygon fill="none" stroke="#000000" points="823.5,-184 823.5,-225 961.5,-225 961.5,-184 823.5,-184"/>
<text text-anchor="start" x="831.5" y="-213" font-family="Helvetica,sans-Serif" font-size="10.00" fill="#000000">/home/runner/work/AliceO2</text>
<text text-anchor="start" x="831.5" y="-202" font-family="Helvetica,sans-Serif" font-size="10.00" fill="#000000">/AliceO2/Detectors/TRD</text>
<text text-anchor="middle" x="892.5" y="-191" font-family="Helvetica,sans-Serif" font-size="10.00" fill="#000000">/simulation/src/Digitizer.cxx</text>
</a>
</g>
</g>
<!-- Node58&#45;&gt;Node67 -->
<g id="edge14" class="edge">
<title>Node58&#45;&gt;Node67</title>
<path fill="none" stroke="#191970" d="M852.5901,-259.1458C860.9622,-247.6825 870.0272,-235.2705 877.3987,-225.1771"/>
<polygon fill="#191970" stroke="#191970" points="849.7221,-257.1386 846.6506,-267.2784 855.375,-261.2671 849.7221,-257.1386"/>
</g>
<!-- Node58&#45;&gt;Node68 -->
<g id="edge16" class="edge">
<title>Node58&#45;&gt;Node68</title>
<path fill="none" stroke="#191970" d="M907.4173,-263.864C941.7118,-251.1465 980.9408,-236.599 1011.9816,-225.0881"/>
<polygon fill="#191970" stroke="#191970" points="906.0454,-260.6398 897.8863,-267.3984 908.4793,-267.203 906.0454,-260.6398"/>
</g>
<!-- Node60 -->
<g id="node7" class="node">
<title>Node60</title>
<g id="a_node7"><a xlink:href="../../db/dc3/TrapConfigHandler_8cxx.html" target="_top" xlink:title="/home/runner/work/AliceO2\l/AliceO2/Detectors/TRD\l/simulation/src/TrapConfigHandler.cxx">
<polygon fill="none" stroke="#000000" points="181.5,-95 181.5,-136 365.5,-136 365.5,-95 181.5,-95"/>
<text text-anchor="start" x="189.5" y="-124" font-family="Helvetica,sans-Serif" font-size="10.00" fill="#000000">/home/runner/work/AliceO2</text>
<text text-anchor="start" x="189.5" y="-113" font-family="Helvetica,sans-Serif" font-size="10.00" fill="#000000">/AliceO2/Detectors/TRD</text>
<text text-anchor="middle" x="273.5" y="-102" font-family="Helvetica,sans-Serif" font-size="10.00" fill="#000000">/simulation/src/TrapConfigHandler.cxx</text>
</a>
</g>
</g>
<!-- Node59&#45;&gt;Node60 -->
<g id="edge6" class="edge">
<title>Node59&#45;&gt;Node60</title>
<path fill="none" stroke="#191970" d="M434.9167,-174.864C400.3364,-162.1465 360.7805,-147.599 329.481,-136.0881"/>
<polygon fill="#191970" stroke="#191970" points="433.9336,-178.2316 444.5272,-178.3984 436.3499,-171.6618 433.9336,-178.2316"/>
</g>
<!-- Node59&#45;&gt;Node61 -->
<g id="edge7" class="edge">
<title>Node59&#45;&gt;Node61</title>
<path fill="none" stroke="#191970" d="M421.813,-190.1073C352.5578,-178.8199 256.1616,-161.7482 172.5,-142 164.9731,-140.2233 157.1426,-138.2057 149.3738,-136.0956"/>
<polygon fill="#191970" stroke="#191970" points="421.3982,-193.5857 431.8293,-191.7303 422.5179,-186.6758 421.3982,-193.5857"/>
</g>
<!-- Node62 -->
<g id="node9" class="node">
<title>Node62</title>
<g id="a_node9"><a xlink:href="../../dc/d96/TRDTrapSimulatorSpec_8h.html" target="_top" xlink:title="/home/runner/work/AliceO2\l/AliceO2/Detectors/TRD\l/workflow/include/TRDWorkflow\l/TRDTrapSimulatorSpec.h">
<polygon fill="none" stroke="#000000" points="383.5,-89.5 383.5,-141.5 541.5,-141.5 541.5,-89.5 383.5,-89.5"/>
<text text-anchor="start" x="391.5" y="-129.5" font-family="Helvetica,sans-Serif" font-size="10.00" fill="#000000">/home/runner/work/AliceO2</text>
<text text-anchor="start" x="391.5" y="-118.5" font-family="Helvetica,sans-Serif" font-size="10.00" fill="#000000">/AliceO2/Detectors/TRD</text>
<text text-anchor="start" x="391.5" y="-107.5" font-family="Helvetica,sans-Serif" font-size="10.00" fill="#000000">/workflow/include/TRDWorkflow</text>
<text text-anchor="middle" x="462.5" y="-96.5" font-family="Helvetica,sans-Serif" font-size="10.00" fill="#000000">/TRDTrapSimulatorSpec.h</text>
</a>
</g>
</g>
<!-- Node59&#45;&gt;Node62 -->
<g id="edge8" class="edge">
<title>Node59&#45;&gt;Node62</title>
<path fill="none" stroke="#191970" d="M494.6954,-169.5639C489.1349,-160.2264 483.2232,-150.2993 478.0035,-141.5341"/>
<polygon fill="#191970" stroke="#191970" points="491.7612,-171.4773 499.8849,-178.2784 497.7755,-167.8957 491.7612,-171.4773"/>
</g>
<!-- Node59&#45;&gt;Node63 -->
<g id="edge13" class="edge">
<title>Node59&#45;&gt;Node63</title>
<path fill="none" stroke="#191970" d="M535.7806,-169.8455C554.69,-137.9755 581.0631,-94.8014 588.5,-89 614.3737,-68.8164 647.0357,-55.0174 677.9486,-45.6397"/>
<polygon fill="#191970" stroke="#191970" points="532.7437,-168.1049 530.667,-178.4942 538.7693,-171.6676 532.7437,-168.1049"/>
</g>
<!-- Node59&#45;&gt;Node66 -->
<g id="edge12" class="edge">
<title>Node59&#45;&gt;Node66</title>
<path fill="none" stroke="#191970" d="M576.9708,-173.7646C601.9126,-161.2937 630.0539,-147.2231 652.4327,-136.0336"/>
<polygon fill="#191970" stroke="#191970" points="575.3221,-170.6757 567.9431,-178.2784 578.4527,-176.9367 575.3221,-170.6757"/>
</g>
<!-- Node62&#45;&gt;Node63 -->
<g id="edge9" class="edge">
<title>Node62&#45;&gt;Node63</title>
<path fill="none" stroke="#191970" d="M551.6558,-90.087C552.9457,-89.7221 554.2277,-89.3596 555.5,-89 605.3155,-74.9218 661.4289,-59.1957 704.9051,-47.0401"/>
<polygon fill="#191970" stroke="#191970" points="550.3087,-86.8308 541.6412,-92.9238 552.2165,-93.5658 550.3087,-86.8308"/>
</g>
<!-- Node64 -->
<g id="node11" class="node">
<title>Node64</title>
<g id="a_node11"><a xlink:href="../../d2/dc0/TRDTrapSimulatorWorkFlow_8cxx.html" target="_top" xlink:title="/home/runner/work/AliceO2\l/AliceO2/Detectors/TRD\l/workflow/src/TRDTrapSimulatorWork\lFlow.cxx">
<polygon fill="none" stroke="#000000" points="219,-.5 219,-52.5 402,-52.5 402,-.5 219,-.5"/>
<text text-anchor="start" x="227" y="-40.5" font-family="Helvetica,sans-Serif" font-size="10.00" fill="#000000">/home/runner/work/AliceO2</text>
<text text-anchor="start" x="227" y="-29.5" font-family="Helvetica,sans-Serif" font-size="10.00" fill="#000000">/AliceO2/Detectors/TRD</text>
<text text-anchor="start" x="227" y="-18.5" font-family="Helvetica,sans-Serif" font-size="10.00" fill="#000000">/workflow/src/TRDTrapSimulatorWork</text>
<text text-anchor="middle" x="310.5" y="-7.5" font-family="Helvetica,sans-Serif" font-size="10.00" fill="#000000">Flow.cxx</text>
</a>
</g>
</g>
<!-- Node62&#45;&gt;Node64 -->
<g id="edge10" class="edge">
<title>Node62&#45;&gt;Node64</title>
<path fill="none" stroke="#191970" d="M408.7004,-83.9989C391.112,-73.7004 371.7845,-62.3837 354.9628,-52.5341"/>
<polygon fill="#191970" stroke="#191970" points="407.319,-87.2459 417.7171,-89.2784 410.8561,-81.2052 407.319,-87.2459"/>
</g>
<!-- Node65 -->
<g id="node12" class="node">
<title>Node65</title>
<g id="a_node12"><a xlink:href="../../d2/dd7/SimpleDigitizerWorkflow_8cxx.html" target="_top" xlink:title="/home/runner/work/AliceO2\l/AliceO2/Steer/DigitizerWorkflow\l/src/SimpleDigitizerWorkflow.cxx">
<polygon fill="none" stroke="#000000" points="420.5,-6 420.5,-47 582.5,-47 582.5,-6 420.5,-6"/>
<text text-anchor="start" x="428.5" y="-35" font-family="Helvetica,sans-Serif" font-size="10.00" fill="#000000">/home/runner/work/AliceO2</text>
<text text-anchor="start" x="428.5" y="-24" font-family="Helvetica,sans-Serif" font-size="10.00" fill="#000000">/AliceO2/Steer/DigitizerWorkflow</text>
<text text-anchor="middle" x="501.5" y="-13" font-family="Helvetica,sans-Serif" font-size="10.00" fill="#000000">/src/SimpleDigitizerWorkflow.cxx</text>
</a>
</g>
</g>
<!-- Node62&#45;&gt;Node65 -->
<g id="edge11" class="edge">
<title>Node62&#45;&gt;Node65</title>
<path fill="none" stroke="#191970" d="M478.1411,-79.8062C482.9982,-68.722 488.1881,-56.8785 492.4392,-47.1771"/>
<polygon fill="#191970" stroke="#191970" points="474.7983,-78.7144 473.9903,-89.2784 481.2097,-81.524 474.7983,-78.7144"/>
</g>
<!-- Node70&#45;&gt;Node56 -->
<g id="edge24" class="edge">
<title>Node70&#45;&gt;Node56</title>
<path fill="none" stroke="#191970" d="M817.2315,-436.2496C848.9214,-423.9991 886.9603,-409.2943 917.2145,-397.5988"/>
<polygon fill="#191970" stroke="#191970" points="815.6815,-433.0963 807.6162,-439.9667 818.2055,-439.6255 815.6815,-433.0963"/>
</g>
<!-- Node70&#45;&gt;Node57 -->
<g id="edge25" class="edge">
<title>Node70&#45;&gt;Node57</title>
<path fill="none" stroke="#191970" d="M710.7291,-433.6727C698.1851,-423.9291 685.7008,-411.8561 677.5,-398 662.0971,-371.9753 658.6315,-336.4079 658.13,-314.2049"/>
<polygon fill="#191970" stroke="#191970" points="708.8133,-436.6088 718.9365,-439.7347 712.9721,-430.9782 708.8133,-436.6088"/>
</g>
<!-- Node71 -->
<g id="node18" class="node">
<title>Node71</title>
<g id="a_node18"><a xlink:href="../../d6/dc2/LocalT0_8cxx.html" target="_top" xlink:title="/home/runner/work/AliceO2\l/AliceO2/Detectors/TRD\l/base/src/LocalT0.cxx">
<polygon fill="none" stroke="#000000" points="687,-356.5 687,-397.5 822,-397.5 822,-356.5 687,-356.5"/>
<text text-anchor="start" x="695" y="-385.5" font-family="Helvetica,sans-Serif" font-size="10.00" fill="#000000">/home/runner/work/AliceO2</text>
<text text-anchor="start" x="695" y="-374.5" font-family="Helvetica,sans-Serif" font-size="10.00" fill="#000000">/AliceO2/Detectors/TRD</text>
<text text-anchor="middle" x="754.5" y="-363.5" font-family="Helvetica,sans-Serif" font-size="10.00" fill="#000000">/base/src/LocalT0.cxx</text>
</a>
</g>
</g>
<!-- Node70&#45;&gt;Node71 -->
<g id="edge26" class="edge">
<title>Node70&#45;&gt;Node71</title>
<path fill="none" stroke="#191970" d="M754.5,-429.6593C754.5,-419.0064 754.5,-407.3344 754.5,-397.6924"/>
<polygon fill="#191970" stroke="#191970" points="751.0001,-429.8595 754.5,-439.8595 758.0001,-429.8596 751.0001,-429.8595"/>
</g>
<!-- Node72&#45;&gt;Node56 -->
<g id="edge28" class="edge">
<title>Node72&#45;&gt;Node56</title>
<path fill="none" stroke="#191970" d="M955.2688,-429.9918C958.3564,-419.2498 961.7523,-407.4349 964.5525,-397.6924"/>
<polygon fill="#191970" stroke="#191970" points="951.8313,-429.2818 952.4326,-439.8595 958.5589,-431.2155 951.8313,-429.2818"/>
</g>
<!-- Node72&#45;&gt;Node57 -->
<g id="edge29" class="edge">
<title>Node72&#45;&gt;Node57</title>
<path fill="none" stroke="#191970" d="M911.2607,-433.6078C897.8358,-422.9254 882.6191,-410.2738 869.5,-398 850.8984,-380.5969 851.7307,-370.0765 830.5,-356 825.4357,-352.6423 764.9877,-330.9735 717.1656,-314.0805"/>
<polygon fill="#191970" stroke="#191970" points="909.3323,-436.5442 919.3533,-439.9836 913.6643,-431.0457 909.3323,-436.5442"/>
</g>
<!-- Node73 -->
<g id="node20" class="node">
<title>Node73</title>
<g id="a_node20"><a xlink:href="../../dc/da9/LocalVDrift_8cxx.html" target="_top" xlink:title="/home/runner/work/AliceO2\l/AliceO2/Detectors/TRD\l/base/src/LocalVDrift.cxx">
<polygon fill="none" stroke="#000000" points="1081,-356.5 1081,-397.5 1216,-397.5 1216,-356.5 1081,-356.5"/>
<text text-anchor="start" x="1089" y="-385.5" font-family="Helvetica,sans-Serif" font-size="10.00" fill="#000000">/home/runner/work/AliceO2</text>
<text text-anchor="start" x="1089" y="-374.5" font-family="Helvetica,sans-Serif" font-size="10.00" fill="#000000">/AliceO2/Detectors/TRD</text>
<text text-anchor="middle" x="1148.5" y="-363.5" font-family="Helvetica,sans-Serif" font-size="10.00" fill="#000000">/base/src/LocalVDrift.cxx</text>
</a>
</g>
</g>
<!-- Node72&#45;&gt;Node73 -->
<g id="edge30" class="edge">
<title>Node72&#45;&gt;Node73</title>
<path fill="none" stroke="#191970" d="M1005.5491,-436.0911C1035.1081,-423.8724 1070.4968,-409.2439 1098.6682,-397.5988"/>
<polygon fill="#191970" stroke="#191970" points="1004.078,-432.9119 996.1735,-439.9667 1006.7521,-439.381 1004.078,-432.9119"/>
</g>
<!-- Node74&#45;&gt;Node56 -->
<g id="edge32" class="edge">
<title>Node74&#45;&gt;Node56</title>
<path fill="none" stroke="#191970" d="M1092.4192,-435.5072C1067.1702,-423.3906 1037.2163,-409.0162 1013.3177,-397.5476"/>
<polygon fill="#191970" stroke="#191970" points="1090.9588,-438.6885 1101.4888,-439.8595 1093.9874,-432.3775 1090.9588,-438.6885"/>
</g>
<!-- Node75 -->
<g id="node22" class="node">
<title>Node75</title>
<g id="a_node22"><a xlink:href="../../d6/db7/PadStatus_8cxx.html" target="_top" xlink:title="/home/runner/work/AliceO2\l/AliceO2/Detectors/TRD\l/base/src/PadStatus.cxx">
<polygon fill="none" stroke="#000000" points="1234,-356.5 1234,-397.5 1369,-397.5 1369,-356.5 1234,-356.5"/>
<text text-anchor="start" x="1242" y="-385.5" font-family="Helvetica,sans-Serif" font-size="10.00" fill="#000000">/home/runner/work/AliceO2</text>
<text text-anchor="start" x="1242" y="-374.5" font-family="Helvetica,sans-Serif" font-size="10.00" fill="#000000">/AliceO2/Detectors/TRD</text>
<text text-anchor="middle" x="1301.5" y="-363.5" font-family="Helvetica,sans-Serif" font-size="10.00" fill="#000000">/base/src/PadStatus.cxx</text>
</a>
</g>
</g>
<!-- Node74&#45;&gt;Node75 -->
<g id="edge33" class="edge">
<title>Node74&#45;&gt;Node75</title>
<path fill="none" stroke="#191970" d="M1192.3939,-435.0278C1214.9849,-423.0128 1241.5857,-408.8653 1262.8657,-397.5476"/>
<polygon fill="#191970" stroke="#191970" points="1190.4945,-432.0737 1183.309,-439.8595 1193.7815,-438.254 1190.4945,-432.0737"/>
</g>
</g>
</svg>
        <g id="navigator" transform="translate(0 0)" fill="#404254">
                <rect fill="#f2f5e9" fill-opacity="0.5" stroke="#606060" stroke-width=".5" x="0" y="0" width="60" height="60"/>
                <use id="zoomplus" xlink:href="#zoomPlus" x="17" y="9" onmousedown="handleZoom(evt,'in')"/>
                <use id="zoomminus" xlink:href="#zoomMin" x="42" y="9" onmousedown="handleZoom(evt,'out')"/>
                <use id="reset" xlink:href="#resetDef" x="30" y="36" onmousedown="handleReset()"/>
                <g id="arrowUp" xlink:href="#dirArrow" transform="translate(30 24)" onmousedown="handlePan(0,-1)">
                  <use xlink:href="#rim" fill="#404040">
                        <set attributeName="fill" to="#808080" begin="arrowUp.mouseover" end="arrowUp.mouseout"/>
                  </use>
                  <path fill="none" stroke="white" stroke-width="1.5" d="M0,-3.0v7 M-2.5,-0.5L0,-3.0L2.5,-0.5"/>
                </g>
                <g id="arrowRight" xlink:href="#dirArrow" transform="rotate(90) translate(36 -43)" onmousedown="handlePan(1,0)">
                  <use xlink:href="#rim" fill="#404040">
                        <set attributeName="fill" to="#808080" begin="arrowRight.mouseover" end="arrowRight.mouseout"/>
                  </use>
                  <path fill="none" stroke="white" stroke-width="1.5" d="M0,-3.0v7 M-2.5,-0.5L0,-3.0L2.5,-0.5"/>
                </g>
                <g id="arrowDown" xlink:href="#dirArrow" transform="rotate(180) translate(-30 -48)" onmousedown="handlePan(0,1)">
                  <use xlink:href="#rim" fill="#404040">
                        <set attributeName="fill" to="#808080" begin="arrowDown.mouseover" end="arrowDown.mouseout"/>
                  </use>
                  <path fill="none" stroke="white" stroke-width="1.5" d="M0,-3.0v7 M-2.5,-0.5L0,-3.0L2.5,-0.5"/>
                </g>
                <g id="arrowLeft" xlink:href="#dirArrow" transform="rotate(270) translate(-36 17)" onmousedown="handlePan(-1,0)">
                  <use xlink:href="#rim" fill="#404040">
                        <set attributeName="fill" to="#808080" begin="arrowLeft.mouseover" end="arrowLeft.mouseout"/>
                  </use>
                  <path fill="none" stroke="white" stroke-width="1.5" d="M0,-3.0v7 M-2.5,-0.5L0,-3.0L2.5,-0.5"/>
                </g>
        </g>
        <svg viewBox="0 0 15 15" width="100%" height="30px" preserveAspectRatio="xMaxYMin meet">
         <g id="arrow_out" transform="scale(0.3 0.3)">
          <a xlink:href="PadCalibrations_8h__dep__incl_org.svg" target="_base">
           <rect id="button" ry="5" rx="5" y="6" x="6" height="38" width="38"
                fill="#f2f5e9" fill-opacity="0.5" stroke="#606060" stroke-width="1.0"/>
           <path id="arrow"
             d="M 11.500037,31.436501 C 11.940474,20.09759 22.043105,11.32322 32.158766,21.979434 L 37.068811,17.246167 C 37.068811,17.246167 37.088388,32 37.088388,32 L 22.160133,31.978069 C 22.160133,31.978069 26.997745,27.140456 26.997745,27.140456 C 18.528582,18.264221 13.291696,25.230495 11.500037,31.436501 z"
             style="fill:#404040;"/>
          </a>
         </g>
        </svg>
</svg>
