<?xml version="1.0" encoding="UTF-8" standalone="no"?>
<!DOCTYPE svg PUBLIC "-//W3C//DTD SVG 1.1//EN"
 "http://www.w3.org/Graphics/SVG/1.1/DTD/svg11.dtd">
<!-- Generated by graphviz version 2.40.1 (20161225.0304)
 -->
<!-- Title: o2::framework::is_boost_serializable_base&lt; Type, Archive, typename &gt; Pages: 1 -->
<svg width="356pt" height="827pt"
 viewBox="0.00 0.00 356.00 827.00" xmlns="http://www.w3.org/2000/svg" xmlns:xlink="http://www.w3.org/1999/xlink">
<g id="graph0" class="graph" transform="scale(1 1) rotate(0) translate(4 823)">
<title>o2::framework::is_boost_serializable_base&lt; Type, Archive, typename &gt;</title>
<!-- Node0 -->
<g id="node1" class="node">
<title>Node0</title>
<polygon fill="#bfbfbf" stroke="#000000" points="64,-644.5 64,-723.5 195,-723.5 195,-644.5 64,-644.5"/>
<text text-anchor="start" x="72" y="-711.5" font-family="Helvetica,sans-Serif" font-size="10.00" fill="#000000">o2::framework::is_boost</text>
<text text-anchor="start" x="72" y="-700.5" font-family="Helvetica,sans-Serif" font-size="10.00" fill="#000000">_serializable_base&lt; Type,</text>
<text text-anchor="middle" x="129.5" y="-689.5" font-family="Helvetica,sans-Serif" font-size="10.00" fill="#000000"> Archive, typename &gt;</text>
<polyline fill="none" stroke="#000000" points="64,-682.5 195,-682.5 "/>
<text text-anchor="middle" x="129.5" y="-670.5" font-family="Helvetica,sans-Serif" font-size="10.00" fill="#000000"> </text>
<polyline fill="none" stroke="#000000" points="64,-663.5 195,-663.5 "/>
<text text-anchor="middle" x="129.5" y="-651.5" font-family="Helvetica,sans-Serif" font-size="10.00" fill="#000000"> </text>
</g>
<!-- Node2 -->
<g id="node3" class="node">
<title>Node2</title>
<g id="a_node3"><a xlink:href="../../d5/dbf/structo2_1_1framework_1_1is__boost__serializable__base.html" target="_top" xlink:title="{o2::framework::is_boost\l_serializable_base\&lt; Type,\l boost::archive::binary\l_oarchive \&gt;\n||}">
<polygon fill="none" stroke="#000000" points="0,-397.5 0,-487.5 131,-487.5 131,-397.5 0,-397.5"/>
<text text-anchor="start" x="8" y="-475.5" font-family="Helvetica,sans-Serif" font-size="10.00" fill="#000000">o2::framework::is_boost</text>
<text text-anchor="start" x="8" y="-464.5" font-family="Helvetica,sans-Serif" font-size="10.00" fill="#000000">_serializable_base&lt; Type,</text>
<text text-anchor="start" x="8" y="-453.5" font-family="Helvetica,sans-Serif" font-size="10.00" fill="#000000"> boost::archive::binary</text>
<text text-anchor="middle" x="65.5" y="-442.5" font-family="Helvetica,sans-Serif" font-size="10.00" fill="#000000">_oarchive &gt;</text>
<polyline fill="none" stroke="#000000" points="0,-435.5 131,-435.5 "/>
<text text-anchor="middle" x="65.5" y="-423.5" font-family="Helvetica,sans-Serif" font-size="10.00" fill="#000000"> </text>
<polyline fill="none" stroke="#000000" points="0,-416.5 131,-416.5 "/>
<text text-anchor="middle" x="65.5" y="-404.5" font-family="Helvetica,sans-Serif" font-size="10.00" fill="#000000"> </text>
</a>
</g>
</g>
<!-- Node0&#45;&gt;Node2 -->
<g id="edge2" class="edge">
<title>Node0&#45;&gt;Node2</title>
<path fill="none" stroke="#ffa500" d="M72.907,-635.9778C70.8429,-632.7699 69.0148,-629.4398 67.5,-626 48.1118,-581.972 50.8998,-526.0407 56.4484,-487.5664"/>
<polygon fill="#ffa500" stroke="#ffa500" points="70.1566,-638.1468 78.8686,-644.1761 75.818,-634.0299 70.1566,-638.1468"/>
<text text-anchor="start" x="67.5" y="-618" font-family="Helvetica,sans-Serif" font-size="10.00" fill="#000000"> &lt; Type, boost::archive</text>
<text text-anchor="middle" x="118.5" y="-607" font-family="Helvetica,sans-Serif" font-size="10.00" fill="#000000">::binary_oarchive &gt;</text>
</g>
<!-- Node5 -->
<g id="node6" class="node">
<title>Node5</title>
<g id="a_node6"><a xlink:href="../../d5/dbf/structo2_1_1framework_1_1is__boost__serializable__base.html" target="_top" xlink:title="{o2::framework::is_boost\l_serializable_base\&lt; Type,\l Archive \&gt;\n||}">
<polygon fill="none" stroke="#000000" points="132,-506.5 132,-585.5 263,-585.5 263,-506.5 132,-506.5"/>
<text text-anchor="start" x="140" y="-573.5" font-family="Helvetica,sans-Serif" font-size="10.00" fill="#000000">o2::framework::is_boost</text>
<text text-anchor="start" x="140" y="-562.5" font-family="Helvetica,sans-Serif" font-size="10.00" fill="#000000">_serializable_base&lt; Type,</text>
<text text-anchor="middle" x="197.5" y="-551.5" font-family="Helvetica,sans-Serif" font-size="10.00" fill="#000000"> Archive &gt;</text>
<polyline fill="none" stroke="#000000" points="132,-544.5 263,-544.5 "/>
<text text-anchor="middle" x="197.5" y="-532.5" font-family="Helvetica,sans-Serif" font-size="10.00" fill="#000000"> </text>
<polyline fill="none" stroke="#000000" points="132,-525.5 263,-525.5 "/>
<text text-anchor="middle" x="197.5" y="-513.5" font-family="Helvetica,sans-Serif" font-size="10.00" fill="#000000"> </text>
</a>
</g>
</g>
<!-- Node0&#45;&gt;Node5 -->
<g id="edge5" class="edge">
<title>Node0&#45;&gt;Node5</title>
<path fill="none" stroke="#ffa500" d="M167.972,-635.8449C169.9623,-632.5884 171.8268,-629.2922 173.5,-626 179.8729,-613.4612 184.862,-598.9388 188.601,-585.7363"/>
<polygon fill="#ffa500" stroke="#ffa500" points="164.9652,-634.0488 162.4549,-644.342 170.8362,-637.8608 164.9652,-634.0488"/>
<text text-anchor="middle" x="223.5" y="-612.5" font-family="Helvetica,sans-Serif" font-size="10.00" fill="#000000"> &lt; Type, Archive &gt;</text>
</g>
<!-- Node1 -->
<g id="node2" class="node">
<title>Node1</title>
<polygon fill="none" stroke="#bfbfbf" points="98.5,-761.5 98.5,-818.5 160.5,-818.5 160.5,-761.5 98.5,-761.5"/>
<text text-anchor="middle" x="129.5" y="-806.5" font-family="Helvetica,sans-Serif" font-size="10.00" fill="#000000">false_type</text>
<polyline fill="none" stroke="#bfbfbf" points="98.5,-799.5 160.5,-799.5 "/>
<text text-anchor="middle" x="129.5" y="-787.5" font-family="Helvetica,sans-Serif" font-size="10.00" fill="#000000"> </text>
<polyline fill="none" stroke="#bfbfbf" points="98.5,-780.5 160.5,-780.5 "/>
<text text-anchor="middle" x="129.5" y="-768.5" font-family="Helvetica,sans-Serif" font-size="10.00" fill="#000000"> </text>
</g>
<!-- Node1&#45;&gt;Node0 -->
<g id="edge1" class="edge">
<title>Node1&#45;&gt;Node0</title>
<path fill="none" stroke="#191970" d="M129.5,-751.1908C129.5,-742.2839 129.5,-732.7999 129.5,-723.8499"/>
<polygon fill="none" stroke="#191970" points="126.0001,-751.3148 129.5,-761.3149 133.0001,-751.3149 126.0001,-751.3148"/>
</g>
<!-- Node3 -->
<g id="node4" class="node">
<title>Node3</title>
<g id="a_node4"><a xlink:href="../../d2/d70/structo2_1_1framework_1_1is__boost__serializable.html" target="_top" xlink:title="{o2::framework::is_boost\l_serializable\&lt; Type::value\l_type, boost::archive::binary\l_oarchive \&gt;\n||}">
<polygon fill="none" stroke="#000000" points="4.5,-139.5 4.5,-229.5 144.5,-229.5 144.5,-139.5 4.5,-139.5"/>
<text text-anchor="start" x="12.5" y="-217.5" font-family="Helvetica,sans-Serif" font-size="10.00" fill="#000000">o2::framework::is_boost</text>
<text text-anchor="start" x="12.5" y="-206.5" font-family="Helvetica,sans-Serif" font-size="10.00" fill="#000000">_serializable&lt; Type::value</text>
<text text-anchor="start" x="12.5" y="-195.5" font-family="Helvetica,sans-Serif" font-size="10.00" fill="#000000">_type, boost::archive::binary</text>
<text text-anchor="middle" x="74.5" y="-184.5" font-family="Helvetica,sans-Serif" font-size="10.00" fill="#000000">_oarchive &gt;</text>
<polyline fill="none" stroke="#000000" points="4.5,-177.5 144.5,-177.5 "/>
<text text-anchor="middle" x="74.5" y="-165.5" font-family="Helvetica,sans-Serif" font-size="10.00" fill="#000000"> </text>
<polyline fill="none" stroke="#000000" points="4.5,-158.5 144.5,-158.5 "/>
<text text-anchor="middle" x="74.5" y="-146.5" font-family="Helvetica,sans-Serif" font-size="10.00" fill="#000000"> </text>
</a>
</g>
</g>
<!-- Node2&#45;&gt;Node3 -->
<g id="edge3" class="edge">
<title>Node2&#45;&gt;Node3</title>
<path fill="none" stroke="#191970" d="M67.4273,-387.2514C69.0671,-340.2428 71.3933,-273.5578 72.9238,-229.6835"/>
<polygon fill="none" stroke="#191970" points="63.9288,-387.1486 67.078,-397.2646 70.9246,-387.3927 63.9288,-387.1486"/>
</g>
<!-- Node4 -->
<g id="node5" class="node">
<title>Node4</title>
<g id="a_node5"><a xlink:href="../../da/d5c/structo2_1_1framework_1_1is__boost__serializable_3_01Type_00_01boost_1_1archive_1_1binary__oarchf8a18e484fa159a1d92458bf9fe69b23.html" target="_top" xlink:title="{o2::framework::is_boost\l_serializable\&lt; Type, boost\l::archive::binary_oarchive,\l std::void_t\&lt; typename Type\l::value_type \&gt; \&gt;\n||}">
<polygon fill="none" stroke="#000000" points="3.5,-.5 3.5,-101.5 145.5,-101.5 145.5,-.5 3.5,-.5"/>
<text text-anchor="start" x="11.5" y="-89.5" font-family="Helvetica,sans-Serif" font-size="10.00" fill="#000000">o2::framework::is_boost</text>
<text text-anchor="start" x="11.5" y="-78.5" font-family="Helvetica,sans-Serif" font-size="10.00" fill="#000000">_serializable&lt; Type, boost</text>
<text text-anchor="start" x="11.5" y="-67.5" font-family="Helvetica,sans-Serif" font-size="10.00" fill="#000000">::archive::binary_oarchive,</text>
<text text-anchor="start" x="11.5" y="-56.5" font-family="Helvetica,sans-Serif" font-size="10.00" fill="#000000"> std::void_t&lt; typename Type</text>
<text text-anchor="middle" x="74.5" y="-45.5" font-family="Helvetica,sans-Serif" font-size="10.00" fill="#000000">::value_type &gt; &gt;</text>
<polyline fill="none" stroke="#000000" points="3.5,-38.5 145.5,-38.5 "/>
<text text-anchor="middle" x="74.5" y="-26.5" font-family="Helvetica,sans-Serif" font-size="10.00" fill="#000000"> </text>
<polyline fill="none" stroke="#000000" points="3.5,-19.5 145.5,-19.5 "/>
<text text-anchor="middle" x="74.5" y="-7.5" font-family="Helvetica,sans-Serif" font-size="10.00" fill="#000000"> </text>
</a>
</g>
</g>
<!-- Node3&#45;&gt;Node4 -->
<g id="edge4" class="edge">
<title>Node3&#45;&gt;Node4</title>
<path fill="none" stroke="#191970" d="M74.5,-129.175C74.5,-120.0608 74.5,-110.6537 74.5,-101.661"/>
<polygon fill="none" stroke="#191970" points="71.0001,-129.303 74.5,-139.303 78.0001,-129.303 71.0001,-129.303"/>
</g>
<!-- Node6 -->
<g id="node7" class="node">
<title>Node6</title>
<g id="a_node7"><a xlink:href="../../d2/d70/structo2_1_1framework_1_1is__boost__serializable.html" target="_top" xlink:title="{o2::framework::is_boost\l_serializable\&lt; Type::value\l_type, Archive \&gt;\n||}">
<polygon fill="none" stroke="#000000" points="211,-145 211,-224 342,-224 342,-145 211,-145"/>
<text text-anchor="start" x="219" y="-212" font-family="Helvetica,sans-Serif" font-size="10.00" fill="#000000">o2::framework::is_boost</text>
<text text-anchor="start" x="219" y="-201" font-family="Helvetica,sans-Serif" font-size="10.00" fill="#000000">_serializable&lt; Type::value</text>
<text text-anchor="middle" x="276.5" y="-190" font-family="Helvetica,sans-Serif" font-size="10.00" fill="#000000">_type, Archive &gt;</text>
<polyline fill="none" stroke="#000000" points="211,-183 342,-183 "/>
<text text-anchor="middle" x="276.5" y="-171" font-family="Helvetica,sans-Serif" font-size="10.00" fill="#000000"> </text>
<polyline fill="none" stroke="#000000" points="211,-164 342,-164 "/>
<text text-anchor="middle" x="276.5" y="-152" font-family="Helvetica,sans-Serif" font-size="10.00" fill="#000000"> </text>
</a>
</g>
</g>
<!-- Node5&#45;&gt;Node6 -->
<g id="edge6" class="edge">
<title>Node5&#45;&gt;Node6</title>
<path fill="none" stroke="#191970" d="M225.7021,-497.5135C253.5824,-445.8812 293.4851,-360.7742 303.5,-281 305.3269,-266.4476 306.4285,-262.3713 303.5,-248 301.8735,-240.018 299.206,-231.7961 296.1654,-224.0249"/>
<polygon fill="none" stroke="#191970" points="222.546,-495.9901 220.8193,-506.4433 228.6878,-499.3485 222.546,-495.9901"/>
</g>
<!-- Node8 -->
<g id="node9" class="node">
<title>Node8</title>
<g id="a_node9"><a xlink:href="../../d2/d70/structo2_1_1framework_1_1is__boost__serializable.html" target="_top" xlink:title="{o2::framework::is_boost\l_serializable\&lt; Type, Archive,\l typename \&gt;\n||}">
<polygon fill="none" stroke="#000000" points="126,-299.5 126,-378.5 269,-378.5 269,-299.5 126,-299.5"/>
<text text-anchor="start" x="134" y="-366.5" font-family="Helvetica,sans-Serif" font-size="10.00" fill="#000000">o2::framework::is_boost</text>
<text text-anchor="start" x="134" y="-355.5" font-family="Helvetica,sans-Serif" font-size="10.00" fill="#000000">_serializable&lt; Type, Archive,</text>
<text text-anchor="middle" x="197.5" y="-344.5" font-family="Helvetica,sans-Serif" font-size="10.00" fill="#000000"> typename &gt;</text>
<polyline fill="none" stroke="#000000" points="126,-337.5 269,-337.5 "/>
<text text-anchor="middle" x="197.5" y="-325.5" font-family="Helvetica,sans-Serif" font-size="10.00" fill="#000000"> </text>
<polyline fill="none" stroke="#000000" points="126,-318.5 269,-318.5 "/>
<text text-anchor="middle" x="197.5" y="-306.5" font-family="Helvetica,sans-Serif" font-size="10.00" fill="#000000"> </text>
</a>
</g>
</g>
<!-- Node5&#45;&gt;Node8 -->
<g id="edge8" class="edge">
<title>Node5&#45;&gt;Node8</title>
<path fill="none" stroke="#191970" d="M197.5,-495.8132C197.5,-459.8657 197.5,-412.1156 197.5,-378.7892"/>
<polygon fill="none" stroke="#191970" points="194.0001,-496.0883 197.5,-506.0883 201.0001,-496.0884 194.0001,-496.0883"/>
</g>
<!-- Node7 -->
<g id="node8" class="node">
<title>Node7</title>
<g id="a_node8"><a xlink:href="../../d8/ddd/structo2_1_1framework_1_1is__boost__serializable_3_01Type_00_01Archive_00_01std_1_1void__t_3_01t52f9ef0f32611a33ca82db27a4fb33ed.html" target="_top" xlink:title="{o2::framework::is_boost\l_serializable\&lt; Type, Archive,\l std::void_t\&lt; typename Type\l::value_type \&gt; \&gt;\n||}">
<polygon fill="none" stroke="#000000" points="205,-6 205,-96 348,-96 348,-6 205,-6"/>
<text text-anchor="start" x="213" y="-84" font-family="Helvetica,sans-Serif" font-size="10.00" fill="#000000">o2::framework::is_boost</text>
<text text-anchor="start" x="213" y="-73" font-family="Helvetica,sans-Serif" font-size="10.00" fill="#000000">_serializable&lt; Type, Archive,</text>
<text text-anchor="start" x="213" y="-62" font-family="Helvetica,sans-Serif" font-size="10.00" fill="#000000"> std::void_t&lt; typename Type</text>
<text text-anchor="middle" x="276.5" y="-51" font-family="Helvetica,sans-Serif" font-size="10.00" fill="#000000">::value_type &gt; &gt;</text>
<polyline fill="none" stroke="#000000" points="205,-44 348,-44 "/>
<text text-anchor="middle" x="276.5" y="-32" font-family="Helvetica,sans-Serif" font-size="10.00" fill="#000000"> </text>
<polyline fill="none" stroke="#000000" points="205,-25 348,-25 "/>
<text text-anchor="middle" x="276.5" y="-13" font-family="Helvetica,sans-Serif" font-size="10.00" fill="#000000"> </text>
</a>
</g>
</g>
<!-- Node6&#45;&gt;Node7 -->
<g id="edge7" class="edge">
<title>Node6&#45;&gt;Node7</title>
<path fill="none" stroke="#191970" d="M276.5,-134.538C276.5,-122.0271 276.5,-108.6748 276.5,-96.3993"/>
<polygon fill="none" stroke="#191970" points="273.0001,-134.807 276.5,-144.807 280.0001,-134.8071 273.0001,-134.807"/>
</g>
<!-- Node8&#45;&gt;Node3 -->
<g id="edge9" class="edge">
<title>Node8&#45;&gt;Node3</title>
<path fill="none" stroke="#ffa500" d="M117.9026,-298.0781C111.8207,-292.9012 106.2234,-287.2124 101.5,-281 90.3389,-266.3204 83.7916,-247.2527 79.9507,-229.9475"/>
<polygon fill="#ffa500" stroke="#ffa500" points="115.8243,-300.8968 125.8362,-304.3626 120.1708,-295.4097 115.8243,-300.8968"/>
<text text-anchor="start" x="101.5" y="-273" font-family="Helvetica,sans-Serif" font-size="10.00" fill="#000000"> &lt; Type::value_type,</text>
<text text-anchor="start" x="101.5" y="-262" font-family="Helvetica,sans-Serif" font-size="10.00" fill="#000000"> boost::archive::binary</text>
<text text-anchor="middle" x="150" y="-251" font-family="Helvetica,sans-Serif" font-size="10.00" fill="#000000">_oarchive &gt;</text>
</g>
<!-- Node8&#45;&gt;Node6 -->
<g id="edge10" class="edge">
<title>Node8&#45;&gt;Node6</title>
<path fill="none" stroke="#ffa500" d="M200.0154,-289.2877C202.2033,-275.3597 206.0012,-260.5952 212.5,-248 216.878,-239.515 222.8034,-231.4683 229.2902,-224.1327"/>
<polygon fill="#ffa500" stroke="#ffa500" points="196.5409,-288.8643 198.6912,-299.2386 203.4798,-289.7877 196.5409,-288.8643"/>
<text text-anchor="start" x="212.5" y="-267.5" font-family="Helvetica,sans-Serif" font-size="10.00" fill="#000000"> &lt; Type::value_type,</text>
<text text-anchor="middle" x="258" y="-256.5" font-family="Helvetica,sans-Serif" font-size="10.00" fill="#000000"> Archive &gt;</text>
</g>
</g>
</svg>
