<?xml version="1.0" encoding="UTF-8" standalone="no"?>
<!DOCTYPE svg PUBLIC "-//W3C//DTD SVG 1.1//EN"
 "http://www.w3.org/Graphics/SVG/1.1/DTD/svg11.dtd">
<!-- Generated by graphviz version 2.40.1 (20161225.0304)
 -->
<!-- Title: /home/runner/work/AliceO2/AliceO2/DataFormats/simulation/src/MCCompLabel.cxx Pages: 1 -->
<svg width="380pt" height="229pt"
 viewBox="0.00 0.00 379.50 229.00" xmlns="http://www.w3.org/2000/svg" xmlns:xlink="http://www.w3.org/1999/xlink">
<g id="graph0" class="graph" transform="scale(1 1) rotate(0) translate(4 225)">
<title>/home/runner/work/AliceO2/AliceO2/DataFormats/simulation/src/MCCompLabel.cxx</title>
<!-- Node0 -->
<g id="node1" class="node">
<title>Node0</title>
<polygon fill="#bfbfbf" stroke="#000000" points="136.5,-179.5 136.5,-220.5 297.5,-220.5 297.5,-179.5 136.5,-179.5"/>
<text text-anchor="start" x="144.5" y="-208.5" font-family="Helvetica,sans-Serif" font-size="10.00" fill="#000000">/home/runner/work/AliceO2</text>
<text text-anchor="start" x="144.5" y="-197.5" font-family="Helvetica,sans-Serif" font-size="10.00" fill="#000000">/AliceO2/DataFormats/simulation</text>
<text text-anchor="middle" x="217" y="-186.5" font-family="Helvetica,sans-Serif" font-size="10.00" fill="#000000">/src/MCCompLabel.cxx</text>
</g>
<!-- Node1 -->
<g id="node2" class="node">
<title>Node1</title>
<g id="a_node2"><a xlink:href="../../d7/dcd/MCCompLabel_8h.html" target="_top" xlink:title="SimulationDataFormat\l/MCCompLabel.h">
<polygon fill="none" stroke="#000000" points="2,-112.5 2,-142.5 116,-142.5 116,-112.5 2,-112.5"/>
<text text-anchor="start" x="10" y="-130.5" font-family="Helvetica,sans-Serif" font-size="10.00" fill="#000000">SimulationDataFormat</text>
<text text-anchor="middle" x="59" y="-119.5" font-family="Helvetica,sans-Serif" font-size="10.00" fill="#000000">/MCCompLabel.h</text>
</a>
</g>
</g>
<!-- Node0&#45;&gt;Node1 -->
<g id="edge1" class="edge">
<title>Node0&#45;&gt;Node1</title>
<path fill="none" stroke="#191970" d="M172.1462,-179.4183C149.8937,-169.2075 123.1653,-156.943 101.2755,-146.8986"/>
<polygon fill="#191970" stroke="#191970" points="102.4542,-143.5886 91.9056,-142.5991 99.5348,-149.9508 102.4542,-143.5886"/>
</g>
<!-- Node4 -->
<g id="node5" class="node">
<title>Node4</title>
<polygon fill="none" stroke="#bfbfbf" points="134,-118 134,-137 184,-137 184,-118 134,-118"/>
<text text-anchor="middle" x="159" y="-125" font-family="Helvetica,sans-Serif" font-size="10.00" fill="#000000">iomanip</text>
</g>
<!-- Node0&#45;&gt;Node4 -->
<g id="edge4" class="edge">
<title>Node0&#45;&gt;Node4</title>
<path fill="none" stroke="#191970" d="M200.5347,-179.4183C191.848,-168.56 181.3032,-155.379 173.0123,-145.0154"/>
<polygon fill="#191970" stroke="#191970" points="175.6483,-142.7076 166.6683,-137.0853 170.1822,-147.0805 175.6483,-142.7076"/>
</g>
<!-- Node5 -->
<g id="node6" class="node">
<title>Node5</title>
<polygon fill="none" stroke="#bfbfbf" points="202.5,-118 202.5,-137 231.5,-137 231.5,-118 202.5,-118"/>
<text text-anchor="middle" x="217" y="-125" font-family="Helvetica,sans-Serif" font-size="10.00" fill="#000000">ios</text>
</g>
<!-- Node0&#45;&gt;Node5 -->
<g id="edge5" class="edge">
<title>Node0&#45;&gt;Node5</title>
<path fill="none" stroke="#191970" d="M217,-179.4183C217,-169.32 217,-157.213 217,-147.2314"/>
<polygon fill="#191970" stroke="#191970" points="220.5001,-147.0853 217,-137.0853 213.5001,-147.0854 220.5001,-147.0853"/>
</g>
<!-- Node6 -->
<g id="node7" class="node">
<title>Node6</title>
<polygon fill="none" stroke="#bfbfbf" points="250,-118 250,-137 304,-137 304,-118 250,-118"/>
<text text-anchor="middle" x="277" y="-125" font-family="Helvetica,sans-Serif" font-size="10.00" fill="#000000">iostream</text>
</g>
<!-- Node0&#45;&gt;Node6 -->
<g id="edge6" class="edge">
<title>Node0&#45;&gt;Node6</title>
<path fill="none" stroke="#191970" d="M234.0331,-179.4183C243.0193,-168.56 253.9277,-155.379 262.5045,-145.0154"/>
<polygon fill="#191970" stroke="#191970" points="265.388,-147.0208 269.0673,-137.0853 259.9952,-142.5578 265.388,-147.0208"/>
</g>
<!-- Node7 -->
<g id="node8" class="node">
<title>Node7</title>
<polygon fill="none" stroke="#bfbfbf" points="322.5,-118 322.5,-137 371.5,-137 371.5,-118 322.5,-118"/>
<text text-anchor="middle" x="347" y="-125" font-family="Helvetica,sans-Serif" font-size="10.00" fill="#000000">cassert</text>
</g>
<!-- Node0&#45;&gt;Node7 -->
<g id="edge7" class="edge">
<title>Node0&#45;&gt;Node7</title>
<path fill="none" stroke="#191970" d="M253.9051,-179.4183C275.3223,-167.4741 301.7786,-152.7196 321.0073,-141.9959"/>
<polygon fill="#191970" stroke="#191970" points="322.7836,-145.0129 329.8125,-137.0853 319.3741,-138.8993 322.7836,-145.0129"/>
</g>
<!-- Node2 -->
<g id="node3" class="node">
<title>Node2</title>
<g id="a_node3"><a xlink:href="../../d2/d45/GPUCommonRtypes_8h.html" target="_top" xlink:title="GPUCommonRtypes.h">
<polygon fill="none" stroke="#000000" points="0,-56.5 0,-75.5 118,-75.5 118,-56.5 0,-56.5"/>
<text text-anchor="middle" x="59" y="-63.5" font-family="Helvetica,sans-Serif" font-size="10.00" fill="#000000">GPUCommonRtypes.h</text>
</a>
</g>
</g>
<!-- Node1&#45;&gt;Node2 -->
<g id="edge2" class="edge">
<title>Node1&#45;&gt;Node2</title>
<path fill="none" stroke="#191970" d="M59,-112.2977C59,-104.3834 59,-94.6043 59,-86.0759"/>
<polygon fill="#191970" stroke="#191970" points="62.5001,-85.8469 59,-75.8469 55.5001,-85.847 62.5001,-85.8469"/>
</g>
<!-- Node3 -->
<g id="node4" class="node">
<title>Node3</title>
<polygon fill="none" stroke="#bfbfbf" points="31,-.5 31,-19.5 87,-19.5 87,-.5 31,-.5"/>
<text text-anchor="middle" x="59" y="-7.5" font-family="Helvetica,sans-Serif" font-size="10.00" fill="#000000">Rtypes.h</text>
</g>
<!-- Node2&#45;&gt;Node3 -->
<g id="edge3" class="edge">
<title>Node2&#45;&gt;Node3</title>
<path fill="none" stroke="#191970" d="M59,-56.2455C59,-48.9382 59,-38.6944 59,-29.7046"/>
<polygon fill="#191970" stroke="#191970" points="62.5001,-29.6426 59,-19.6427 55.5001,-29.6427 62.5001,-29.6426"/>
</g>
</g>
</svg>
