<?xml version="1.0" encoding="UTF-8" standalone="no"?>
<!DOCTYPE svg PUBLIC "-//W3C//DTD SVG 1.1//EN"
 "http://www.w3.org/Graphics/SVG/1.1/DTD/svg11.dtd">
<!-- Generated by graphviz version 2.40.1 (20161225.0304)
 -->
<!-- Title: /home/runner/work/AliceO2/AliceO2/Generators/include/Generators/GeneratorFromFile.h Pages: 1 -->
<svg width="316pt" height="218pt"
 viewBox="0.00 0.00 316.00 218.00" xmlns="http://www.w3.org/2000/svg" xmlns:xlink="http://www.w3.org/1999/xlink">
<g id="graph0" class="graph" transform="scale(1 1) rotate(0) translate(4 214)">
<title>/home/runner/work/AliceO2/AliceO2/Generators/include/Generators/GeneratorFromFile.h</title>
<!-- Node0 -->
<g id="node1" class="node">
<title>Node0</title>
<polygon fill="#bfbfbf" stroke="#000000" points="6,-168.5 6,-209.5 166,-209.5 166,-168.5 6,-168.5"/>
<text text-anchor="start" x="14" y="-197.5" font-family="Helvetica,sans-Serif" font-size="10.00" fill="#000000">/home/runner/work/AliceO2</text>
<text text-anchor="start" x="14" y="-186.5" font-family="Helvetica,sans-Serif" font-size="10.00" fill="#000000">/AliceO2/Generators/include</text>
<text text-anchor="middle" x="86" y="-175.5" font-family="Helvetica,sans-Serif" font-size="10.00" fill="#000000">/Generators/GeneratorFromFile.h</text>
</g>
<!-- Node1 -->
<g id="node2" class="node">
<title>Node1</title>
<polygon fill="none" stroke="#bfbfbf" points="0,-56.5 0,-75.5 84,-75.5 84,-56.5 0,-56.5"/>
<text text-anchor="middle" x="42" y="-63.5" font-family="Helvetica,sans-Serif" font-size="10.00" fill="#000000">FairGenerator.h</text>
</g>
<!-- Node0&#45;&gt;Node1 -->
<g id="edge1" class="edge">
<title>Node0&#45;&gt;Node1</title>
<path fill="none" stroke="#191970" d="M76.1834,-168.4231C71.2724,-157.703 65.4443,-144.2965 61,-132 55.4272,-116.5811 50.3596,-98.6854 46.8621,-85.4216"/>
<polygon fill="#191970" stroke="#191970" points="50.1976,-84.3385 44.317,-75.5255 43.4182,-86.0822 50.1976,-84.3385"/>
</g>
<!-- Node2 -->
<g id="node3" class="node">
<title>Node2</title>
<g id="a_node3"><a xlink:href="../../d9/d12/Generator_8h.html" target="_top" xlink:title="Generators/Generator.h">
<polygon fill="none" stroke="#000000" points="70.5,-112.5 70.5,-131.5 189.5,-131.5 189.5,-112.5 70.5,-112.5"/>
<text text-anchor="middle" x="130" y="-119.5" font-family="Helvetica,sans-Serif" font-size="10.00" fill="#000000">Generators/Generator.h</text>
</a>
</g>
</g>
<!-- Node0&#45;&gt;Node2 -->
<g id="edge2" class="edge">
<title>Node0&#45;&gt;Node2</title>
<path fill="none" stroke="#191970" d="M99.6807,-168.168C105.535,-159.2536 112.311,-148.9356 117.9705,-140.3177"/>
<polygon fill="#191970" stroke="#191970" points="121.0132,-142.0604 123.577,-131.7805 115.1621,-138.2179 121.0132,-142.0604"/>
</g>
<!-- Node2&#45;&gt;Node1 -->
<g id="edge3" class="edge">
<title>Node2&#45;&gt;Node1</title>
<path fill="none" stroke="#191970" d="M114.6716,-112.2455C101.1697,-103.6534 81.2878,-91.0014 65.7314,-81.1018"/>
<polygon fill="#191970" stroke="#191970" points="67.4685,-78.0587 57.1528,-75.6427 63.7103,-83.9643 67.4685,-78.0587"/>
</g>
<!-- Node3 -->
<g id="node4" class="node">
<title>Node3</title>
<polygon fill="none" stroke="#bfbfbf" points="81,-.5 81,-19.5 145,-19.5 145,-.5 81,-.5"/>
<text text-anchor="middle" x="113" y="-7.5" font-family="Helvetica,sans-Serif" font-size="10.00" fill="#000000">TParticle.h</text>
</g>
<!-- Node2&#45;&gt;Node3 -->
<g id="edge4" class="edge">
<title>Node2&#45;&gt;Node3</title>
<path fill="none" stroke="#191970" d="M128.5506,-112.4509C125.7779,-94.184 119.6718,-53.9553 115.9898,-29.6976"/>
<polygon fill="#191970" stroke="#191970" points="119.4069,-28.8864 114.4457,-19.5249 112.4861,-29.9369 119.4069,-28.8864"/>
</g>
<!-- Node4 -->
<g id="node5" class="node">
<title>Node4</title>
<g id="a_node5"><a xlink:href="../../d7/dac/Trigger_8h.html" target="_top" xlink:title="Generators/Trigger.h">
<polygon fill="none" stroke="#000000" points="140,-56.5 140,-75.5 246,-75.5 246,-56.5 140,-56.5"/>
<text text-anchor="middle" x="193" y="-63.5" font-family="Helvetica,sans-Serif" font-size="10.00" fill="#000000">Generators/Trigger.h</text>
</a>
</g>
</g>
<!-- Node2&#45;&gt;Node4 -->
<g id="edge5" class="edge">
<title>Node2&#45;&gt;Node4</title>
<path fill="none" stroke="#191970" d="M140.9738,-112.2455C150.1882,-104.0549 163.5532,-92.1749 174.4297,-82.5069"/>
<polygon fill="#191970" stroke="#191970" points="177.0032,-84.9023 182.152,-75.6427 172.3526,-79.6704 177.0032,-84.9023"/>
</g>
<!-- Node6 -->
<g id="node7" class="node">
<title>Node6</title>
<polygon fill="none" stroke="#bfbfbf" points="264,-56.5 264,-75.5 308,-75.5 308,-56.5 264,-56.5"/>
<text text-anchor="middle" x="286" y="-63.5" font-family="Helvetica,sans-Serif" font-size="10.00" fill="#000000">vector</text>
</g>
<!-- Node2&#45;&gt;Node6 -->
<g id="edge8" class="edge">
<title>Node2&#45;&gt;Node6</title>
<path fill="none" stroke="#191970" d="M156.8174,-112.3733C183.78,-102.6944 225.3515,-87.7712 254.0166,-77.4812"/>
<polygon fill="#191970" stroke="#191970" points="255.3431,-80.7238 263.5725,-74.0509 252.978,-74.1354 255.3431,-80.7238"/>
</g>
<!-- Node4&#45;&gt;Node3 -->
<g id="edge7" class="edge">
<title>Node4&#45;&gt;Node3</title>
<path fill="none" stroke="#191970" d="M179.0651,-56.2455C166.9053,-47.7337 149.0536,-35.2375 134.9715,-25.3801"/>
<polygon fill="#191970" stroke="#191970" points="136.9747,-22.51 126.7752,-19.6427 132.9605,-28.2447 136.9747,-22.51"/>
</g>
<!-- Node5 -->
<g id="node6" class="node">
<title>Node5</title>
<polygon fill="none" stroke="#bfbfbf" points="163.5,-.5 163.5,-19.5 222.5,-19.5 222.5,-.5 163.5,-.5"/>
<text text-anchor="middle" x="193" y="-7.5" font-family="Helvetica,sans-Serif" font-size="10.00" fill="#000000">functional</text>
</g>
<!-- Node4&#45;&gt;Node5 -->
<g id="edge6" class="edge">
<title>Node4&#45;&gt;Node5</title>
<path fill="none" stroke="#191970" d="M193,-56.2455C193,-48.9382 193,-38.6944 193,-29.7046"/>
<polygon fill="#191970" stroke="#191970" points="196.5001,-29.6426 193,-19.6427 189.5001,-29.6427 196.5001,-29.6426"/>
</g>
</g>
</svg>
