<?xml version="1.0" encoding="UTF-8" standalone="no"?>
<!DOCTYPE svg PUBLIC "-//W3C//DTD SVG 1.1//EN"
 "http://www.w3.org/Graphics/SVG/1.1/DTD/svg11.dtd">
<!-- Generated by graphviz version 2.40.1 (20161225.0304)
 -->
<!-- Title: /home/runner/work/AliceO2/AliceO2/Detectors/TRD/base/src/PadResponse.cxx Pages: 1 -->
<svg width="216pt" height="162pt"
 viewBox="0.00 0.00 215.50 162.00" xmlns="http://www.w3.org/2000/svg" xmlns:xlink="http://www.w3.org/1999/xlink">
<g id="graph0" class="graph" transform="scale(1 1) rotate(0) translate(4 158)">
<title>/home/runner/work/AliceO2/AliceO2/Detectors/TRD/base/src/PadResponse.cxx</title>
<!-- Node0 -->
<g id="node1" class="node">
<title>Node0</title>
<polygon fill="#bfbfbf" stroke="#000000" points="5,-112.5 5,-153.5 145,-153.5 145,-112.5 5,-112.5"/>
<text text-anchor="start" x="13" y="-141.5" font-family="Helvetica,sans-Serif" font-size="10.00" fill="#000000">/home/runner/work/AliceO2</text>
<text text-anchor="start" x="13" y="-130.5" font-family="Helvetica,sans-Serif" font-size="10.00" fill="#000000">/AliceO2/Detectors/TRD</text>
<text text-anchor="middle" x="75" y="-119.5" font-family="Helvetica,sans-Serif" font-size="10.00" fill="#000000">/base/src/PadResponse.cxx</text>
</g>
<!-- Node1 -->
<g id="node2" class="node">
<title>Node1</title>
<g id="a_node2"><a xlink:href="../../db/d66/TRD_2base_2include_2TRDBase_2PadResponse_8h.html" target="_top" xlink:title="TRDBase/PadResponse.h">
<polygon fill="none" stroke="#000000" points="8.5,-56.5 8.5,-75.5 141.5,-75.5 141.5,-56.5 8.5,-56.5"/>
<text text-anchor="middle" x="75" y="-63.5" font-family="Helvetica,sans-Serif" font-size="10.00" fill="#000000">TRDBase/PadResponse.h</text>
</a>
</g>
</g>
<!-- Node0&#45;&gt;Node1 -->
<g id="edge1" class="edge">
<title>Node0&#45;&gt;Node1</title>
<path fill="none" stroke="#191970" d="M75,-112.168C75,-103.8226 75,-94.2471 75,-85.9879"/>
<polygon fill="#191970" stroke="#191970" points="78.5001,-85.7804 75,-75.7805 71.5001,-85.7805 78.5001,-85.7804"/>
</g>
<!-- Node2 -->
<g id="node3" class="node">
<title>Node2</title>
<polygon fill="none" stroke="#bfbfbf" points="0,-.5 0,-19.5 38,-19.5 38,-.5 0,-.5"/>
<text text-anchor="middle" x="19" y="-7.5" font-family="Helvetica,sans-Serif" font-size="10.00" fill="#000000">array</text>
</g>
<!-- Node1&#45;&gt;Node2 -->
<g id="edge2" class="edge">
<title>Node1&#45;&gt;Node2</title>
<path fill="none" stroke="#191970" d="M65.2455,-56.2455C57.1352,-48.1352 45.4075,-36.4075 35.7919,-26.7919"/>
<polygon fill="#191970" stroke="#191970" points="38.1887,-24.2389 28.6427,-19.6427 33.2389,-29.1887 38.1887,-24.2389"/>
</g>
<!-- Node3 -->
<g id="node4" class="node">
<title>Node3</title>
<g id="a_node4"><a xlink:href="../../d6/dc2/DataFormats_2Detectors_2TRD_2include_2DataFormatsTRD_2Constants_8h.html" target="_top" xlink:title="DataFormatsTRD/Constants.h">
<polygon fill="none" stroke="#000000" points="56.5,-.5 56.5,-19.5 207.5,-19.5 207.5,-.5 56.5,-.5"/>
<text text-anchor="middle" x="132" y="-7.5" font-family="Helvetica,sans-Serif" font-size="10.00" fill="#000000">DataFormatsTRD/Constants.h</text>
</a>
</g>
</g>
<!-- Node1&#45;&gt;Node3 -->
<g id="edge3" class="edge">
<title>Node1&#45;&gt;Node3</title>
<path fill="none" stroke="#191970" d="M84.9286,-56.2455C93.1838,-48.1352 105.1209,-36.4075 114.9082,-26.7919"/>
<polygon fill="#191970" stroke="#191970" points="117.5046,-29.1476 122.1851,-19.6427 112.5989,-24.1542 117.5046,-29.1476"/>
</g>
</g>
</svg>
