<?xml version="1.0" encoding="UTF-8" standalone="no"?>
<!DOCTYPE svg PUBLIC "-//W3C//DTD SVG 1.1//EN"
 "http://www.w3.org/Graphics/SVG/1.1/DTD/svg11.dtd">
<!-- Generated by graphviz version 2.40.1 (20161225.0304)
 -->
<!-- Title: /home/runner/work/AliceO2/AliceO2/Detectors/GlobalTracking/include/GlobalTracking/MatchTPCITSParams.h Pages: 1 -->
<!--zoomable 306 -->
<svg id="main" version="1.1" xmlns="http://www.w3.org/2000/svg" xmlns:xlink="http://www.w3.org/1999/xlink" xml:space="preserve" onload="init(evt)">
<style type="text/css"><![CDATA[
.edge:hover path { stroke: red; }
.edge:hover polygon { stroke: red; fill: red; }
]]></style>
<script type="text/javascript"><![CDATA[
var edges = document.getElementsByTagName('g');
if (edges && edges.length) {
  for (var i=0;i<edges.length;i++) {
    if (edges[i].id.substr(0,4)=='edge') {
      edges[i].setAttribute('class','edge');
    }
  }
}
]]></script>
        <defs>
                <circle id="rim" cx="0" cy="0" r="7"/>
                <circle id="rim2" cx="0" cy="0" r="3.5"/>
                <g id="zoomPlus">
                        <use xlink:href="#rim" fill="#404040">
                                <set attributeName="fill" to="#808080" begin="zoomplus.mouseover" end="zoomplus.mouseout"/>
                        </use>
                        <path d="M-4,0h8M0,-4v8" fill="none" stroke="white" stroke-width="1.5" pointer-events="none"/>
                </g>
                <g id="zoomMin">
                        <use xlink:href="#rim" fill="#404040">
                                <set attributeName="fill" to="#808080" begin="zoomminus.mouseover" end="zoomminus.mouseout"/>
                        </use>
                        <path d="M-4,0h8" fill="none" stroke="white" stroke-width="1.5" pointer-events="none"/>
                </g>
                <g id="dirArrow">
                        <path fill="none" stroke="white" stroke-width="1.5" d="M0,-3.0v7 M-2.5,-0.5L0,-3.0L2.5,-0.5"/>
                </g>
               <g id="resetDef">
                       <use xlink:href="#rim2" fill="#404040">
                               <set attributeName="fill" to="#808080" begin="reset.mouseover" end="reset.mouseout"/>
                       </use>
               </g>
        </defs>

<script type="text/javascript">
var viewWidth = 1467;
var viewHeight = 306;
var sectionId = 'dynsection-1';
</script>
<script xlink:href="../../svgpan.js"/>
<svg id="graph" class="graph">
<g id="viewport">
<title>/home/runner/work/AliceO2/AliceO2/Detectors/GlobalTracking/include/GlobalTracking/MatchTPCITSParams.h</title>
<!-- Node78 -->
<g id="node1" class="node">
<title>Node78</title>
<polygon fill="#bfbfbf" stroke="#000000" points="420,-256.5 420,-297.5 647,-297.5 647,-256.5 420,-256.5"/>
<text text-anchor="start" x="428" y="-285.5" font-family="Helvetica,sans-Serif" font-size="10.00" fill="#000000">/home/runner/work/AliceO2</text>
<text text-anchor="start" x="428" y="-274.5" font-family="Helvetica,sans-Serif" font-size="10.00" fill="#000000">/AliceO2/Detectors/GlobalTracking</text>
<text text-anchor="middle" x="533.5" y="-263.5" font-family="Helvetica,sans-Serif" font-size="10.00" fill="#000000">/include/GlobalTracking/MatchTPCITSParams.h</text>
</g>
<!-- Node79 -->
<g id="node2" class="node">
<title>Node79</title>
<g id="a_node2"><a xlink:href="../../df/de7/AODProducerWorkflow_8cxx.html" target="_top" xlink:title="/home/runner/work/AliceO2\l/AliceO2/Detectors/AOD\l/src/AODProducerWorkflow.cxx">
<polygon fill="none" stroke="#000000" points="0,-6 0,-47 157,-47 157,-6 0,-6"/>
<text text-anchor="start" x="8" y="-35" font-family="Helvetica,sans-Serif" font-size="10.00" fill="#000000">/home/runner/work/AliceO2</text>
<text text-anchor="start" x="8" y="-24" font-family="Helvetica,sans-Serif" font-size="10.00" fill="#000000">/AliceO2/Detectors/AOD</text>
<text text-anchor="middle" x="78.5" y="-13" font-family="Helvetica,sans-Serif" font-size="10.00" fill="#000000">/src/AODProducerWorkflow.cxx</text>
</a>
</g>
</g>
<!-- Node78&#45;&gt;Node79 -->
<g id="edge1" class="edge">
<title>Node78&#45;&gt;Node79</title>
<path fill="none" stroke="#191970" d="M417.9955,-253.8016C387.3484,-245.3595 354.901,-234.2713 326.5,-220 232.3228,-172.6766 139.1902,-86.7275 99.0551,-47.2905"/>
<polygon fill="#191970" stroke="#191970" points="417.3099,-257.2413 427.8751,-256.4503 419.1226,-250.4801 417.3099,-257.2413"/>
</g>
<!-- Node80 -->
<g id="node3" class="node">
<title>Node80</title>
<g id="a_node3"><a xlink:href="../../d3/dac/MatchTPCITS_8h.html" target="_top" xlink:title="Class to perform TPC ITS matching. ">
<polygon fill="none" stroke="#000000" points="570,-178.5 570,-219.5 763,-219.5 763,-178.5 570,-178.5"/>
<text text-anchor="start" x="578" y="-207.5" font-family="Helvetica,sans-Serif" font-size="10.00" fill="#000000">/home/runner/work/AliceO2</text>
<text text-anchor="start" x="578" y="-196.5" font-family="Helvetica,sans-Serif" font-size="10.00" fill="#000000">/AliceO2/Detectors/GlobalTracking</text>
<text text-anchor="middle" x="666.5" y="-185.5" font-family="Helvetica,sans-Serif" font-size="10.00" fill="#000000">/include/GlobalTracking/MatchTPCITS.h</text>
</a>
</g>
</g>
<!-- Node78&#45;&gt;Node80 -->
<g id="edge2" class="edge">
<title>Node78&#45;&gt;Node80</title>
<path fill="none" stroke="#191970" d="M577.701,-251.0776C595.2004,-240.8148 615.0297,-229.1856 631.5042,-219.5239"/>
<polygon fill="#191970" stroke="#191970" points="575.6478,-248.2242 568.7924,-256.3022 579.189,-254.2624 575.6478,-248.2242"/>
</g>
<!-- Node88 -->
<g id="node11" class="node">
<title>Node88</title>
<g id="a_node11"><a xlink:href="../../d5/db4/MatchTPCITSWorkflow_8cxx.html" target="_top" xlink:title="/home/runner/work/AliceO2\l/AliceO2/Detectors/GlobalTracking\lWorkflow/src/MatchTPCITSWorkflow.cxx">
<polygon fill="none" stroke="#000000" points="175.5,-6 175.5,-47 375.5,-47 375.5,-6 175.5,-6"/>
<text text-anchor="start" x="183.5" y="-35" font-family="Helvetica,sans-Serif" font-size="10.00" fill="#000000">/home/runner/work/AliceO2</text>
<text text-anchor="start" x="183.5" y="-24" font-family="Helvetica,sans-Serif" font-size="10.00" fill="#000000">/AliceO2/Detectors/GlobalTracking</text>
<text text-anchor="middle" x="275.5" y="-13" font-family="Helvetica,sans-Serif" font-size="10.00" fill="#000000">Workflow/src/MatchTPCITSWorkflow.cxx</text>
</a>
</g>
</g>
<!-- Node78&#45;&gt;Node88 -->
<g id="edge15" class="edge">
<title>Node78&#45;&gt;Node88</title>
<path fill="none" stroke="#191970" d="M454.9361,-252.9002C401.1509,-232.2202 332.8637,-196.9098 294.5,-142 274.7141,-113.6805 272.8277,-72.0398 273.7933,-47.2584"/>
<polygon fill="#191970" stroke="#191970" points="453.8654,-256.2366 464.4577,-256.468 456.3216,-249.6816 453.8654,-256.2366"/>
</g>
<!-- Node89 -->
<g id="node12" class="node">
<title>Node89</title>
<g id="a_node12"><a xlink:href="../../d6/d73/TPCITSMatchingSpec_8cxx.html" target="_top" xlink:title="/home/runner/work/AliceO2\l/AliceO2/Detectors/GlobalTracking\lWorkflow/src/TPCITSMatchingSpec.cxx">
<polygon fill="none" stroke="#000000" points="393.5,-6 393.5,-47 587.5,-47 587.5,-6 393.5,-6"/>
<text text-anchor="start" x="401.5" y="-35" font-family="Helvetica,sans-Serif" font-size="10.00" fill="#000000">/home/runner/work/AliceO2</text>
<text text-anchor="start" x="401.5" y="-24" font-family="Helvetica,sans-Serif" font-size="10.00" fill="#000000">/AliceO2/Detectors/GlobalTracking</text>
<text text-anchor="middle" x="490.5" y="-13" font-family="Helvetica,sans-Serif" font-size="10.00" fill="#000000">Workflow/src/TPCITSMatchingSpec.cxx</text>
</a>
</g>
</g>
<!-- Node78&#45;&gt;Node89 -->
<g id="edge16" class="edge">
<title>Node78&#45;&gt;Node89</title>
<path fill="none" stroke="#191970" d="M532.5452,-246.1343C530.8519,-208.5654 526.1979,-143.4024 513.5,-89 510.1624,-74.7005 504.4758,-59.207 499.5923,-47.2233"/>
<polygon fill="#191970" stroke="#191970" points="529.0599,-246.5674 532.965,-256.4163 536.054,-246.2818 529.0599,-246.5674"/>
</g>
<!-- Node90 -->
<g id="node13" class="node">
<title>Node90</title>
<g id="a_node13"><a xlink:href="../../db/dc9/MatchTPCITSParams_8cxx.html" target="_top" xlink:title="/home/runner/work/AliceO2\l/AliceO2/Detectors/GlobalTracking\l/src/MatchTPCITSParams.cxx">
<polygon fill="none" stroke="#000000" points="781.5,-178.5 781.5,-219.5 949.5,-219.5 949.5,-178.5 781.5,-178.5"/>
<text text-anchor="start" x="789.5" y="-207.5" font-family="Helvetica,sans-Serif" font-size="10.00" fill="#000000">/home/runner/work/AliceO2</text>
<text text-anchor="start" x="789.5" y="-196.5" font-family="Helvetica,sans-Serif" font-size="10.00" fill="#000000">/AliceO2/Detectors/GlobalTracking</text>
<text text-anchor="middle" x="865.5" y="-185.5" font-family="Helvetica,sans-Serif" font-size="10.00" fill="#000000">/src/MatchTPCITSParams.cxx</text>
</a>
</g>
</g>
<!-- Node78&#45;&gt;Node90 -->
<g id="edge14" class="edge">
<title>Node78&#45;&gt;Node90</title>
<path fill="none" stroke="#191970" d="M631.1904,-254.0486C678.8612,-242.8489 735.6359,-229.5102 781.3586,-218.7682"/>
<polygon fill="#191970" stroke="#191970" points="630.0978,-250.71 621.1634,-256.4044 631.6988,-257.5244 630.0978,-250.71"/>
</g>
<!-- Node81 -->
<g id="node4" class="node">
<title>Node81</title>
<g id="a_node4"><a xlink:href="../../d0/d74/MatchTOF_8h.html" target="_top" xlink:title="Class to perform TOF matching to global tracks. ">
<polygon fill="none" stroke="#000000" points="751.5,-95 751.5,-136 927.5,-136 927.5,-95 751.5,-95"/>
<text text-anchor="start" x="759.5" y="-124" font-family="Helvetica,sans-Serif" font-size="10.00" fill="#000000">/home/runner/work/AliceO2</text>
<text text-anchor="start" x="759.5" y="-113" font-family="Helvetica,sans-Serif" font-size="10.00" fill="#000000">/AliceO2/Detectors/GlobalTracking</text>
<text text-anchor="middle" x="839.5" y="-102" font-family="Helvetica,sans-Serif" font-size="10.00" fill="#000000">/include/GlobalTracking/MatchTOF.h</text>
</a>
</g>
</g>
<!-- Node80&#45;&gt;Node81 -->
<g id="edge3" class="edge">
<title>Node80&#45;&gt;Node81</title>
<path fill="none" stroke="#191970" d="M718.2814,-174.0072C743.3854,-161.8906 773.1671,-147.5162 796.9284,-136.0476"/>
<polygon fill="#191970" stroke="#191970" points="716.7485,-170.8607 709.2641,-178.3595 719.7913,-177.1648 716.7485,-170.8607"/>
</g>
<!-- Node83 -->
<g id="node6" class="node">
<title>Node83</title>
<g id="a_node6"><a xlink:href="../../db/d6a/MatchTOF_8cxx.html" target="_top" xlink:title="/home/runner/work/AliceO2\l/AliceO2/Detectors/GlobalTracking\l/src/MatchTOF.cxx">
<polygon fill="none" stroke="#000000" points="605.5,-6 605.5,-47 773.5,-47 773.5,-6 605.5,-6"/>
<text text-anchor="start" x="613.5" y="-35" font-family="Helvetica,sans-Serif" font-size="10.00" fill="#000000">/home/runner/work/AliceO2</text>
<text text-anchor="start" x="613.5" y="-24" font-family="Helvetica,sans-Serif" font-size="10.00" fill="#000000">/AliceO2/Detectors/GlobalTracking</text>
<text text-anchor="middle" x="689.5" y="-13" font-family="Helvetica,sans-Serif" font-size="10.00" fill="#000000">/src/MatchTOF.cxx</text>
</a>
</g>
</g>
<!-- Node80&#45;&gt;Node83 -->
<g id="edge8" class="edge">
<title>Node80&#45;&gt;Node83</title>
<path fill="none" stroke="#191970" d="M670.6247,-168.0646C675.2878,-133.0915 682.7494,-77.1292 686.7516,-47.1128"/>
<polygon fill="#191970" stroke="#191970" points="667.1268,-167.8176 669.2743,-178.1925 674.0654,-168.7428 667.1268,-167.8176"/>
</g>
<!-- Node86 -->
<g id="node9" class="node">
<title>Node86</title>
<g id="a_node9"><a xlink:href="../../dc/d59/MatchTPCITS_8cxx.html" target="_top" xlink:title="/home/runner/work/AliceO2\l/AliceO2/Detectors/GlobalTracking\l/src/MatchTPCITS.cxx">
<polygon fill="none" stroke="#000000" points="945.5,-95 945.5,-136 1113.5,-136 1113.5,-95 945.5,-95"/>
<text text-anchor="start" x="953.5" y="-124" font-family="Helvetica,sans-Serif" font-size="10.00" fill="#000000">/home/runner/work/AliceO2</text>
<text text-anchor="start" x="953.5" y="-113" font-family="Helvetica,sans-Serif" font-size="10.00" fill="#000000">/AliceO2/Detectors/GlobalTracking</text>
<text text-anchor="middle" x="1029.5" y="-102" font-family="Helvetica,sans-Serif" font-size="10.00" fill="#000000">/src/MatchTPCITS.cxx</text>
</a>
</g>
</g>
<!-- Node80&#45;&gt;Node86 -->
<g id="edge9" class="edge">
<title>Node80&#45;&gt;Node86</title>
<path fill="none" stroke="#191970" d="M773.371,-177.228C834.8286,-164.5521 905.7748,-149.6109 936.5,-142 943.9147,-140.1633 951.6315,-138.1424 959.3088,-136.0607"/>
<polygon fill="#191970" stroke="#191970" points="772.2919,-173.8767 763.2037,-179.3223 773.7042,-180.7328 772.2919,-173.8767"/>
</g>
<!-- Node87 -->
<g id="node10" class="node">
<title>Node87</title>
<g id="a_node10"><a xlink:href="../../da/d20/TPCITSMatchingSpec_8h.html" target="_top" xlink:title="/home/runner/work/AliceO2\l/AliceO2/Detectors/GlobalTracking\lWorkflow/include/GlobalTrackingWorkflow\l/TPCITSMatchingSpec.h">
<polygon fill="none" stroke="#000000" points="304,-89.5 304,-141.5 505,-141.5 505,-89.5 304,-89.5"/>
<text text-anchor="start" x="312" y="-129.5" font-family="Helvetica,sans-Serif" font-size="10.00" fill="#000000">/home/runner/work/AliceO2</text>
<text text-anchor="start" x="312" y="-118.5" font-family="Helvetica,sans-Serif" font-size="10.00" fill="#000000">/AliceO2/Detectors/GlobalTracking</text>
<text text-anchor="start" x="312" y="-107.5" font-family="Helvetica,sans-Serif" font-size="10.00" fill="#000000">Workflow/include/GlobalTrackingWorkflow</text>
<text text-anchor="middle" x="404.5" y="-96.5" font-family="Helvetica,sans-Serif" font-size="10.00" fill="#000000">/TPCITSMatchingSpec.h</text>
</a>
</g>
</g>
<!-- Node80&#45;&gt;Node87 -->
<g id="edge10" class="edge">
<title>Node80&#45;&gt;Node87</title>
<path fill="none" stroke="#191970" d="M592.4402,-175.397C559.2821,-164.8294 520.0811,-152.336 486.0833,-141.5008"/>
<polygon fill="#191970" stroke="#191970" points="591.4814,-178.7648 602.072,-178.4667 593.607,-172.0953 591.4814,-178.7648"/>
</g>
<!-- Node82 -->
<g id="node5" class="node">
<title>Node82</title>
<g id="a_node5"><a xlink:href="../../d6/dc9/AODProducerWorkflowSpec_8cxx.html" target="_top" xlink:title="/home/runner/work/AliceO2\l/AliceO2/Detectors/AOD\l/src/AODProducerWorkflowSpec.cxx">
<polygon fill="none" stroke="#000000" points="792,-6 792,-47 971,-47 971,-6 792,-6"/>
<text text-anchor="start" x="800" y="-35" font-family="Helvetica,sans-Serif" font-size="10.00" fill="#000000">/home/runner/work/AliceO2</text>
<text text-anchor="start" x="800" y="-24" font-family="Helvetica,sans-Serif" font-size="10.00" fill="#000000">/AliceO2/Detectors/AOD</text>
<text text-anchor="middle" x="881.5" y="-13" font-family="Helvetica,sans-Serif" font-size="10.00" fill="#000000">/src/AODProducerWorkflowSpec.cxx</text>
</a>
</g>
</g>
<!-- Node81&#45;&gt;Node82 -->
<g id="edge4" class="edge">
<title>Node81&#45;&gt;Node82</title>
<path fill="none" stroke="#191970" d="M853.6141,-85.5915C859.595,-72.9177 866.4139,-58.4682 871.8116,-47.0301"/>
<polygon fill="#191970" stroke="#191970" points="850.3438,-84.3206 849.2412,-94.8579 856.6743,-87.3081 850.3438,-84.3206"/>
</g>
<!-- Node81&#45;&gt;Node83 -->
<g id="edge5" class="edge">
<title>Node81&#45;&gt;Node83</title>
<path fill="none" stroke="#191970" d="M795.8887,-89.6239C773.0437,-76.0692 745.4579,-59.7017 724.1014,-47.0301"/>
<polygon fill="#191970" stroke="#191970" points="794.3239,-92.7652 804.71,-94.8579 797.8958,-86.7451 794.3239,-92.7652"/>
</g>
<!-- Node84 -->
<g id="node7" class="node">
<title>Node84</title>
<g id="a_node7"><a xlink:href="../../d8/d84/RecoWorkflowSpec_8cxx.html" target="_top" xlink:title="/home/runner/work/AliceO2\l/AliceO2/Detectors/GlobalTracking\lWorkflow/tofworkflow/src/RecoWorkflowSpec.cxx">
<polygon fill="none" stroke="#000000" points="989.5,-6 989.5,-47 1225.5,-47 1225.5,-6 989.5,-6"/>
<text text-anchor="start" x="997.5" y="-35" font-family="Helvetica,sans-Serif" font-size="10.00" fill="#000000">/home/runner/work/AliceO2</text>
<text text-anchor="start" x="997.5" y="-24" font-family="Helvetica,sans-Serif" font-size="10.00" fill="#000000">/AliceO2/Detectors/GlobalTracking</text>
<text text-anchor="middle" x="1107.5" y="-13" font-family="Helvetica,sans-Serif" font-size="10.00" fill="#000000">Workflow/tofworkflow/src/RecoWorkflowSpec.cxx</text>
</a>
</g>
</g>
<!-- Node81&#45;&gt;Node84 -->
<g id="edge6" class="edge">
<title>Node81&#45;&gt;Node84</title>
<path fill="none" stroke="#191970" d="M910.9184,-91.7827C952.8556,-77.8558 1005.3395,-60.4264 1045.5262,-47.0808"/>
<polygon fill="#191970" stroke="#191970" points="909.7084,-88.4965 901.3211,-94.9699 911.9146,-95.1398 909.7084,-88.4965"/>
</g>
<!-- Node85 -->
<g id="node8" class="node">
<title>Node85</title>
<g id="a_node8"><a xlink:href="../../d4/d76/RecoWorkflowWithTPCSpec_8cxx.html" target="_top" xlink:title="/home/runner/work/AliceO2\l/AliceO2/Detectors/GlobalTracking\lWorkflow/tofworkflow/src/RecoWorkflowWith\lTPCSpec.cxx">
<polygon fill="none" stroke="#000000" points="1244,-.5 1244,-52.5 1459,-52.5 1459,-.5 1244,-.5"/>
<text text-anchor="start" x="1252" y="-40.5" font-family="Helvetica,sans-Serif" font-size="10.00" fill="#000000">/home/runner/work/AliceO2</text>
<text text-anchor="start" x="1252" y="-29.5" font-family="Helvetica,sans-Serif" font-size="10.00" fill="#000000">/AliceO2/Detectors/GlobalTracking</text>
<text text-anchor="start" x="1252" y="-18.5" font-family="Helvetica,sans-Serif" font-size="10.00" fill="#000000">Workflow/tofworkflow/src/RecoWorkflowWith</text>
<text text-anchor="middle" x="1351.5" y="-7.5" font-family="Helvetica,sans-Serif" font-size="10.00" fill="#000000">TPCSpec.cxx</text>
</a>
</g>
</g>
<!-- Node81&#45;&gt;Node85 -->
<g id="edge7" class="edge">
<title>Node81&#45;&gt;Node85</title>
<path fill="none" stroke="#191970" d="M919.9719,-92.5517C925.5444,-91.2602 931.0928,-90.0593 936.5,-89 1067.4188,-63.3523 1103.0493,-75.7648 1234.5,-53 1237.5782,-52.4669 1240.6974,-51.9053 1243.8422,-51.3204"/>
<polygon fill="#191970" stroke="#191970" points="918.8455,-89.2227 909.9406,-94.9633 920.4817,-96.0288 918.8455,-89.2227"/>
</g>
<!-- Node87&#45;&gt;Node79 -->
<g id="edge11" class="edge">
<title>Node87&#45;&gt;Node79</title>
<path fill="none" stroke="#191970" d="M293.9945,-87.3564C253.7715,-76.8817 208.0009,-64.6939 166.5,-53 159.7427,-51.096 152.7087,-49.0636 145.6926,-47.0033"/>
<polygon fill="#191970" stroke="#191970" points="293.2664,-90.7834 303.8253,-89.9112 295.0272,-84.0084 293.2664,-90.7834"/>
</g>
<!-- Node87&#45;&gt;Node88 -->
<g id="edge12" class="edge">
<title>Node87&#45;&gt;Node88</title>
<path fill="none" stroke="#191970" d="M358.0727,-83.4688C340.5512,-71.3803 321.0942,-57.9564 305.4702,-47.1771"/>
<polygon fill="#191970" stroke="#191970" points="356.2747,-86.4805 366.4935,-89.2784 360.2499,-80.7187 356.2747,-86.4805"/>
</g>
<!-- Node87&#45;&gt;Node89 -->
<g id="edge13" class="edge">
<title>Node87&#45;&gt;Node89</title>
<path fill="none" stroke="#191970" d="M437.052,-81.8125C448.3064,-70.1654 460.5773,-57.4665 470.5199,-47.1771"/>
<polygon fill="#191970" stroke="#191970" points="434.2696,-79.6551 429.8377,-89.2784 439.3035,-84.5193 434.2696,-79.6551"/>
</g>
</g>
</svg>
        <g id="navigator" transform="translate(0 0)" fill="#404254">
                <rect fill="#f2f5e9" fill-opacity="0.5" stroke="#606060" stroke-width=".5" x="0" y="0" width="60" height="60"/>
                <use id="zoomplus" xlink:href="#zoomPlus" x="17" y="9" onmousedown="handleZoom(evt,'in')"/>
                <use id="zoomminus" xlink:href="#zoomMin" x="42" y="9" onmousedown="handleZoom(evt,'out')"/>
                <use id="reset" xlink:href="#resetDef" x="30" y="36" onmousedown="handleReset()"/>
                <g id="arrowUp" xlink:href="#dirArrow" transform="translate(30 24)" onmousedown="handlePan(0,-1)">
                  <use xlink:href="#rim" fill="#404040">
                        <set attributeName="fill" to="#808080" begin="arrowUp.mouseover" end="arrowUp.mouseout"/>
                  </use>
                  <path fill="none" stroke="white" stroke-width="1.5" d="M0,-3.0v7 M-2.5,-0.5L0,-3.0L2.5,-0.5"/>
                </g>
                <g id="arrowRight" xlink:href="#dirArrow" transform="rotate(90) translate(36 -43)" onmousedown="handlePan(1,0)">
                  <use xlink:href="#rim" fill="#404040">
                        <set attributeName="fill" to="#808080" begin="arrowRight.mouseover" end="arrowRight.mouseout"/>
                  </use>
                  <path fill="none" stroke="white" stroke-width="1.5" d="M0,-3.0v7 M-2.5,-0.5L0,-3.0L2.5,-0.5"/>
                </g>
                <g id="arrowDown" xlink:href="#dirArrow" transform="rotate(180) translate(-30 -48)" onmousedown="handlePan(0,1)">
                  <use xlink:href="#rim" fill="#404040">
                        <set attributeName="fill" to="#808080" begin="arrowDown.mouseover" end="arrowDown.mouseout"/>
                  </use>
                  <path fill="none" stroke="white" stroke-width="1.5" d="M0,-3.0v7 M-2.5,-0.5L0,-3.0L2.5,-0.5"/>
                </g>
                <g id="arrowLeft" xlink:href="#dirArrow" transform="rotate(270) translate(-36 17)" onmousedown="handlePan(-1,0)">
                  <use xlink:href="#rim" fill="#404040">
                        <set attributeName="fill" to="#808080" begin="arrowLeft.mouseover" end="arrowLeft.mouseout"/>
                  </use>
                  <path fill="none" stroke="white" stroke-width="1.5" d="M0,-3.0v7 M-2.5,-0.5L0,-3.0L2.5,-0.5"/>
                </g>
        </g>
        <svg viewBox="0 0 15 15" width="100%" height="30px" preserveAspectRatio="xMaxYMin meet">
         <g id="arrow_out" transform="scale(0.3 0.3)">
          <a xlink:href="MatchTPCITSParams_8h__dep__incl_org.svg" target="_base">
           <rect id="button" ry="5" rx="5" y="6" x="6" height="38" width="38"
                fill="#f2f5e9" fill-opacity="0.5" stroke="#606060" stroke-width="1.0"/>
           <path id="arrow"
             d="M 11.500037,31.436501 C 11.940474,20.09759 22.043105,11.32322 32.158766,21.979434 L 37.068811,17.246167 C 37.068811,17.246167 37.088388,32 37.088388,32 L 22.160133,31.978069 C 22.160133,31.978069 26.997745,27.140456 26.997745,27.140456 C 18.528582,18.264221 13.291696,25.230495 11.500037,31.436501 z"
             style="fill:#404040;"/>
          </a>
         </g>
        </svg>
</svg>
