<?xml version="1.0" encoding="UTF-8" standalone="no"?>
<!DOCTYPE svg PUBLIC "-//W3C//DTD SVG 1.1//EN"
 "http://www.w3.org/Graphics/SVG/1.1/DTD/svg11.dtd">
<!-- Generated by graphviz version 2.40.1 (20161225.0304)
 -->
<!-- Title: o2::framework::Output Pages: 1 -->
<!--zoomable 446 -->
<svg id="main" version="1.1" xmlns="http://www.w3.org/2000/svg" xmlns:xlink="http://www.w3.org/1999/xlink" xml:space="preserve" onload="init(evt)">
<style type="text/css"><![CDATA[
.edge:hover path { stroke: red; }
.edge:hover polygon { stroke: red; fill: red; }
]]></style>
<script type="text/javascript"><![CDATA[
var edges = document.getElementsByTagName('g');
if (edges && edges.length) {
  for (var i=0;i<edges.length;i++) {
    if (edges[i].id.substr(0,4)=='edge') {
      edges[i].setAttribute('class','edge');
    }
  }
}
]]></script>
        <defs>
                <circle id="rim" cx="0" cy="0" r="7"/>
                <circle id="rim2" cx="0" cy="0" r="3.5"/>
                <g id="zoomPlus">
                        <use xlink:href="#rim" fill="#404040">
                                <set attributeName="fill" to="#808080" begin="zoomplus.mouseover" end="zoomplus.mouseout"/>
                        </use>
                        <path d="M-4,0h8M0,-4v8" fill="none" stroke="white" stroke-width="1.5" pointer-events="none"/>
                </g>
                <g id="zoomMin">
                        <use xlink:href="#rim" fill="#404040">
                                <set attributeName="fill" to="#808080" begin="zoomminus.mouseover" end="zoomminus.mouseout"/>
                        </use>
                        <path d="M-4,0h8" fill="none" stroke="white" stroke-width="1.5" pointer-events="none"/>
                </g>
                <g id="dirArrow">
                        <path fill="none" stroke="white" stroke-width="1.5" d="M0,-3.0v7 M-2.5,-0.5L0,-3.0L2.5,-0.5"/>
                </g>
               <g id="resetDef">
                       <use xlink:href="#rim2" fill="#404040">
                               <set attributeName="fill" to="#808080" begin="reset.mouseover" end="reset.mouseout"/>
                       </use>
               </g>
        </defs>

<script type="text/javascript">
var viewWidth = 624;
var viewHeight = 446;
var sectionId = 'dynsection-0';
</script>
<script xlink:href="../../svgpan.js"/>
<svg id="graph" class="graph">
<g id="viewport">
<title>o2::framework::Output</title>
<!-- Node1 -->
<g id="node1" class="node">
<title>Node1</title>
<polygon fill="#bfbfbf" stroke="#000000" points="211.5,-.5 211.5,-156.5 325.5,-156.5 325.5,-.5 211.5,-.5"/>
<text text-anchor="middle" x="268.5" y="-144.5" font-family="Helvetica,sans-Serif" font-size="10.00" fill="#000000">o2::framework::Output</text>
<polyline fill="none" stroke="#000000" points="211.5,-137.5 325.5,-137.5 "/>
<text text-anchor="middle" x="268.5" y="-125.5" font-family="Helvetica,sans-Serif" font-size="10.00" fill="#000000"> </text>
<polyline fill="none" stroke="#000000" points="211.5,-118.5 325.5,-118.5 "/>
<text text-anchor="start" x="219.5" y="-106.5" font-family="Helvetica,sans-Serif" font-size="10.00" fill="#000000">+ Output()</text>
<text text-anchor="start" x="219.5" y="-95.5" font-family="Helvetica,sans-Serif" font-size="10.00" fill="#000000">+ Output()</text>
<text text-anchor="start" x="219.5" y="-84.5" font-family="Helvetica,sans-Serif" font-size="10.00" fill="#000000">+ Output()</text>
<text text-anchor="start" x="219.5" y="-73.5" font-family="Helvetica,sans-Serif" font-size="10.00" fill="#000000">+ Output()</text>
<text text-anchor="start" x="219.5" y="-62.5" font-family="Helvetica,sans-Serif" font-size="10.00" fill="#000000">+ Output()</text>
<text text-anchor="start" x="219.5" y="-51.5" font-family="Helvetica,sans-Serif" font-size="10.00" fill="#000000">+ Output()</text>
<text text-anchor="start" x="219.5" y="-40.5" font-family="Helvetica,sans-Serif" font-size="10.00" fill="#000000">+ Output()</text>
<text text-anchor="start" x="219.5" y="-29.5" font-family="Helvetica,sans-Serif" font-size="10.00" fill="#000000">+ operator=()</text>
<text text-anchor="start" x="219.5" y="-18.5" font-family="Helvetica,sans-Serif" font-size="10.00" fill="#000000">+ operator=()</text>
<text text-anchor="start" x="219.5" y="-7.5" font-family="Helvetica,sans-Serif" font-size="10.00" fill="#000000">+ operator==()</text>
</g>
<!-- Node2 -->
<g id="node2" class="node">
<title>Node2</title>
<polygon fill="none" stroke="#bfbfbf" points="0,-292.5 0,-349.5 51,-349.5 51,-292.5 0,-292.5"/>
<text text-anchor="middle" x="25.5" y="-337.5" font-family="Helvetica,sans-Serif" font-size="10.00" fill="#000000">uint32_t</text>
<polyline fill="none" stroke="#bfbfbf" points="0,-330.5 51,-330.5 "/>
<text text-anchor="middle" x="25.5" y="-318.5" font-family="Helvetica,sans-Serif" font-size="10.00" fill="#000000"> </text>
<polyline fill="none" stroke="#bfbfbf" points="0,-311.5 51,-311.5 "/>
<text text-anchor="middle" x="25.5" y="-299.5" font-family="Helvetica,sans-Serif" font-size="10.00" fill="#000000"> </text>
</g>
<!-- Node2&#45;&gt;Node1 -->
<g id="edge1" class="edge">
<title>Node2&#45;&gt;Node1</title>
<path fill="none" stroke="#404040" d="M28.2159,-292.3704C31.8964,-266.9056 40.4995,-229.8082 60.5,-204 96.4194,-157.6504 154.6758,-124.6281 200.4113,-104.1284"/>
<polygon fill="none" stroke="#404040" points="200.4506,-104.1113 204.3505,-98.0457 211.4494,-99.3126 207.5496,-105.3783 200.4506,-104.1113"/>
<text text-anchor="middle" x="111.5" y="-178" font-family="Helvetica,sans-Serif" font-size="10.00" fill="#000000"> +subSpec</text>
</g>
<!-- Node3 -->
<g id="node3" class="node">
<title>Node3</title>
<polygon fill="none" stroke="#bfbfbf" points="69.5,-287 69.5,-355 211.5,-355 211.5,-287 69.5,-287"/>
<text text-anchor="start" x="77.5" y="-343" font-family="Helvetica,sans-Serif" font-size="10.00" fill="#000000">Descriptor&lt; gSizeDataOrigin</text>
<text text-anchor="middle" x="140.5" y="-332" font-family="Helvetica,sans-Serif" font-size="10.00" fill="#000000">String, printDataOrigin &gt;</text>
<polyline fill="none" stroke="#bfbfbf" points="69.5,-325 211.5,-325 "/>
<text text-anchor="middle" x="140.5" y="-313" font-family="Helvetica,sans-Serif" font-size="10.00" fill="#000000"> </text>
<polyline fill="none" stroke="#bfbfbf" points="69.5,-306 211.5,-306 "/>
<text text-anchor="middle" x="140.5" y="-294" font-family="Helvetica,sans-Serif" font-size="10.00" fill="#000000"> </text>
</g>
<!-- Node3&#45;&gt;Node1 -->
<g id="edge2" class="edge">
<title>Node3&#45;&gt;Node1</title>
<path fill="none" stroke="#404040" d="M158.5678,-286.77C174.9235,-255.7836 199.7382,-208.7713 221.655,-167.2494"/>
<polygon fill="none" stroke="#404040" points="221.7034,-167.1574 220.9668,-159.984 227.3051,-156.5451 228.0417,-163.7185 221.7034,-167.1574"/>
<text text-anchor="middle" x="233" y="-178" font-family="Helvetica,sans-Serif" font-size="10.00" fill="#000000"> +origin</text>
</g>
<!-- Node4 -->
<g id="node4" class="node">
<title>Node4</title>
<polygon fill="none" stroke="#bfbfbf" points="229.5,-292.5 229.5,-349.5 307.5,-349.5 307.5,-292.5 229.5,-292.5"/>
<text text-anchor="middle" x="268.5" y="-337.5" font-family="Helvetica,sans-Serif" font-size="10.00" fill="#000000">enum Lifetime</text>
<polyline fill="none" stroke="#bfbfbf" points="229.5,-330.5 307.5,-330.5 "/>
<text text-anchor="middle" x="268.5" y="-318.5" font-family="Helvetica,sans-Serif" font-size="10.00" fill="#000000"> </text>
<polyline fill="none" stroke="#bfbfbf" points="229.5,-311.5 307.5,-311.5 "/>
<text text-anchor="middle" x="268.5" y="-299.5" font-family="Helvetica,sans-Serif" font-size="10.00" fill="#000000"> </text>
</g>
<!-- Node4&#45;&gt;Node1 -->
<g id="edge3" class="edge">
<title>Node4&#45;&gt;Node1</title>
<path fill="none" stroke="#404040" d="M268.5,-292.2298C268.5,-261.8399 268.5,-212.3674 268.5,-168.67"/>
<polygon fill="none" stroke="#404040" points="268.5001,-168.5189 264.5,-162.519 268.5,-156.5189 272.5,-162.5189 268.5001,-168.5189"/>
<text text-anchor="middle" x="289" y="-178" font-family="Helvetica,sans-Serif" font-size="10.00" fill="#000000"> +lifetime</text>
</g>
<!-- Node5 -->
<g id="node5" class="node">
<title>Node5</title>
<polygon fill="none" stroke="#bfbfbf" points="325.5,-287 325.5,-355 491.5,-355 491.5,-287 325.5,-287"/>
<text text-anchor="start" x="333.5" y="-343" font-family="Helvetica,sans-Serif" font-size="10.00" fill="#000000">Descriptor&lt; gSizeDataDescription</text>
<text text-anchor="middle" x="408.5" y="-332" font-family="Helvetica,sans-Serif" font-size="10.00" fill="#000000">String, printDataDescription &gt;</text>
<polyline fill="none" stroke="#bfbfbf" points="325.5,-325 491.5,-325 "/>
<text text-anchor="middle" x="408.5" y="-313" font-family="Helvetica,sans-Serif" font-size="10.00" fill="#000000"> </text>
<polyline fill="none" stroke="#bfbfbf" points="325.5,-306 491.5,-306 "/>
<text text-anchor="middle" x="408.5" y="-294" font-family="Helvetica,sans-Serif" font-size="10.00" fill="#000000"> </text>
</g>
<!-- Node5&#45;&gt;Node1 -->
<g id="edge4" class="edge">
<title>Node5&#45;&gt;Node1</title>
<path fill="none" stroke="#404040" d="M388.7384,-286.77C370.8113,-255.7178 343.5929,-208.5716 319.5841,-166.985"/>
<polygon fill="none" stroke="#404040" points="319.5568,-166.9375 313.0927,-163.7412 313.5569,-156.5451 320.021,-159.7414 319.5568,-166.9375"/>
<text text-anchor="middle" x="358" y="-178" font-family="Helvetica,sans-Serif" font-size="10.00" fill="#000000"> +description</text>
</g>
<!-- Node6 -->
<g id="node6" class="node">
<title>Node6</title>
<g id="a_node6"><a xlink:href="../../d0/d66/structo2_1_1header_1_1Stack.html" target="_top" xlink:title="a move&#45;only header stack with serialized headers This is the flat buffer where all the headers in a m...">
<polygon fill="none" stroke="#000000" points="509.5,-204.5 509.5,-437.5 615.5,-437.5 615.5,-204.5 509.5,-204.5"/>
<text text-anchor="middle" x="562.5" y="-425.5" font-family="Helvetica,sans-Serif" font-size="10.00" fill="#000000">o2::header::Stack</text>
<polyline fill="none" stroke="#000000" points="509.5,-418.5 615.5,-418.5 "/>
<text text-anchor="middle" x="562.5" y="-406.5" font-family="Helvetica,sans-Serif" font-size="10.00" fill="#000000"> </text>
<polyline fill="none" stroke="#000000" points="509.5,-399.5 615.5,-399.5 "/>
<text text-anchor="start" x="517.5" y="-387.5" font-family="Helvetica,sans-Serif" font-size="10.00" fill="#000000">+ Stack()</text>
<text text-anchor="start" x="517.5" y="-376.5" font-family="Helvetica,sans-Serif" font-size="10.00" fill="#000000">+ Stack()</text>
<text text-anchor="start" x="517.5" y="-365.5" font-family="Helvetica,sans-Serif" font-size="10.00" fill="#000000">+ Stack()</text>
<text text-anchor="start" x="517.5" y="-354.5" font-family="Helvetica,sans-Serif" font-size="10.00" fill="#000000">+ operator=()</text>
<text text-anchor="start" x="517.5" y="-343.5" font-family="Helvetica,sans-Serif" font-size="10.00" fill="#000000">+ operator=()</text>
<text text-anchor="start" x="517.5" y="-332.5" font-family="Helvetica,sans-Serif" font-size="10.00" fill="#000000">+ data()</text>
<text text-anchor="start" x="517.5" y="-321.5" font-family="Helvetica,sans-Serif" font-size="10.00" fill="#000000">+ size()</text>
<text text-anchor="start" x="517.5" y="-310.5" font-family="Helvetica,sans-Serif" font-size="10.00" fill="#000000">+ get_allocator()</text>
<text text-anchor="start" x="517.5" y="-299.5" font-family="Helvetica,sans-Serif" font-size="10.00" fill="#000000">+ first()</text>
<text text-anchor="start" x="517.5" y="-288.5" font-family="Helvetica,sans-Serif" font-size="10.00" fill="#000000">+ Stack()</text>
<text text-anchor="start" x="517.5" y="-277.5" font-family="Helvetica,sans-Serif" font-size="10.00" fill="#000000">+ Stack()</text>
<text text-anchor="start" x="517.5" y="-266.5" font-family="Helvetica,sans-Serif" font-size="10.00" fill="#000000">+ firstHeader()</text>
<text text-anchor="start" x="517.5" y="-255.5" font-family="Helvetica,sans-Serif" font-size="10.00" fill="#000000">+ lastHeader()</text>
<text text-anchor="start" x="517.5" y="-244.5" font-family="Helvetica,sans-Serif" font-size="10.00" fill="#000000">+ headerStackSize()</text>
<text text-anchor="start" x="517.5" y="-233.5" font-family="Helvetica,sans-Serif" font-size="10.00" fill="#000000">+ calculateSize()</text>
<text text-anchor="start" x="517.5" y="-222.5" font-family="Helvetica,sans-Serif" font-size="10.00" fill="#000000">+ calculateSize()</text>
<text text-anchor="start" x="517.5" y="-211.5" font-family="Helvetica,sans-Serif" font-size="10.00" fill="#000000">+ calculateSize()</text>
</a>
</g>
</g>
<!-- Node6&#45;&gt;Node1 -->
<g id="edge5" class="edge">
<title>Node6&#45;&gt;Node1</title>
<path fill="none" stroke="#404040" d="M509.3809,-213.8129C506.5355,-210.3875 503.5752,-207.1017 500.5,-204 454.4361,-157.5393 387.528,-123.8483 337.3889,-103.1446"/>
<polygon fill="none" stroke="#404040" points="337.122,-103.0369 330.0606,-104.4989 325.9952,-98.543 333.0565,-97.081 337.122,-103.0369"/>
<text text-anchor="middle" x="511" y="-178" font-family="Helvetica,sans-Serif" font-size="10.00" fill="#000000"> +metaHeader</text>
</g>
</g>
</svg>
        <g id="navigator" transform="translate(0 0)" fill="#404254">
                <rect fill="#f2f5e9" fill-opacity="0.5" stroke="#606060" stroke-width=".5" x="0" y="0" width="60" height="60"/>
                <use id="zoomplus" xlink:href="#zoomPlus" x="17" y="9" onmousedown="handleZoom(evt,'in')"/>
                <use id="zoomminus" xlink:href="#zoomMin" x="42" y="9" onmousedown="handleZoom(evt,'out')"/>
                <use id="reset" xlink:href="#resetDef" x="30" y="36" onmousedown="handleReset()"/>
                <g id="arrowUp" xlink:href="#dirArrow" transform="translate(30 24)" onmousedown="handlePan(0,-1)">
                  <use xlink:href="#rim" fill="#404040">
                        <set attributeName="fill" to="#808080" begin="arrowUp.mouseover" end="arrowUp.mouseout"/>
                  </use>
                  <path fill="none" stroke="white" stroke-width="1.5" d="M0,-3.0v7 M-2.5,-0.5L0,-3.0L2.5,-0.5"/>
                </g>
                <g id="arrowRight" xlink:href="#dirArrow" transform="rotate(90) translate(36 -43)" onmousedown="handlePan(1,0)">
                  <use xlink:href="#rim" fill="#404040">
                        <set attributeName="fill" to="#808080" begin="arrowRight.mouseover" end="arrowRight.mouseout"/>
                  </use>
                  <path fill="none" stroke="white" stroke-width="1.5" d="M0,-3.0v7 M-2.5,-0.5L0,-3.0L2.5,-0.5"/>
                </g>
                <g id="arrowDown" xlink:href="#dirArrow" transform="rotate(180) translate(-30 -48)" onmousedown="handlePan(0,1)">
                  <use xlink:href="#rim" fill="#404040">
                        <set attributeName="fill" to="#808080" begin="arrowDown.mouseover" end="arrowDown.mouseout"/>
                  </use>
                  <path fill="none" stroke="white" stroke-width="1.5" d="M0,-3.0v7 M-2.5,-0.5L0,-3.0L2.5,-0.5"/>
                </g>
                <g id="arrowLeft" xlink:href="#dirArrow" transform="rotate(270) translate(-36 17)" onmousedown="handlePan(-1,0)">
                  <use xlink:href="#rim" fill="#404040">
                        <set attributeName="fill" to="#808080" begin="arrowLeft.mouseover" end="arrowLeft.mouseout"/>
                  </use>
                  <path fill="none" stroke="white" stroke-width="1.5" d="M0,-3.0v7 M-2.5,-0.5L0,-3.0L2.5,-0.5"/>
                </g>
        </g>
        <svg viewBox="0 0 15 15" width="100%" height="30px" preserveAspectRatio="xMaxYMin meet">
         <g id="arrow_out" transform="scale(0.3 0.3)">
          <a xlink:href="structo2_1_1framework_1_1Output__coll__graph_org.svg" target="_base">
           <rect id="button" ry="5" rx="5" y="6" x="6" height="38" width="38"
                fill="#f2f5e9" fill-opacity="0.5" stroke="#606060" stroke-width="1.0"/>
           <path id="arrow"
             d="M 11.500037,31.436501 C 11.940474,20.09759 22.043105,11.32322 32.158766,21.979434 L 37.068811,17.246167 C 37.068811,17.246167 37.088388,32 37.088388,32 L 22.160133,31.978069 C 22.160133,31.978069 26.997745,27.140456 26.997745,27.140456 C 18.528582,18.264221 13.291696,25.230495 11.500037,31.436501 z"
             style="fill:#404040;"/>
          </a>
         </g>
        </svg>
</svg>
