<?xml version="1.0" encoding="UTF-8" standalone="no"?>
<!DOCTYPE svg PUBLIC "-//W3C//DTD SVG 1.1//EN"
 "http://www.w3.org/Graphics/SVG/1.1/DTD/svg11.dtd">
<!-- Generated by graphviz version 2.40.1 (20161225.0304)
 -->
<!-- Title: o2::base::MatLayerCylSetLayout Pages: 1 -->
<!--zoomable 1071 -->
<svg id="main" version="1.1" xmlns="http://www.w3.org/2000/svg" xmlns:xlink="http://www.w3.org/1999/xlink" xml:space="preserve" onload="init(evt)">
<style type="text/css"><![CDATA[
.edge:hover path { stroke: red; }
.edge:hover polygon { stroke: red; fill: red; }
]]></style>
<script type="text/javascript"><![CDATA[
var edges = document.getElementsByTagName('g');
if (edges && edges.length) {
  for (var i=0;i<edges.length;i++) {
    if (edges[i].id.substr(0,4)=='edge') {
      edges[i].setAttribute('class','edge');
    }
  }
}
]]></script>
        <defs>
                <circle id="rim" cx="0" cy="0" r="7"/>
                <circle id="rim2" cx="0" cy="0" r="3.5"/>
                <g id="zoomPlus">
                        <use xlink:href="#rim" fill="#404040">
                                <set attributeName="fill" to="#808080" begin="zoomplus.mouseover" end="zoomplus.mouseout"/>
                        </use>
                        <path d="M-4,0h8M0,-4v8" fill="none" stroke="white" stroke-width="1.5" pointer-events="none"/>
                </g>
                <g id="zoomMin">
                        <use xlink:href="#rim" fill="#404040">
                                <set attributeName="fill" to="#808080" begin="zoomminus.mouseover" end="zoomminus.mouseout"/>
                        </use>
                        <path d="M-4,0h8" fill="none" stroke="white" stroke-width="1.5" pointer-events="none"/>
                </g>
                <g id="dirArrow">
                        <path fill="none" stroke="white" stroke-width="1.5" d="M0,-3.0v7 M-2.5,-0.5L0,-3.0L2.5,-0.5"/>
                </g>
               <g id="resetDef">
                       <use xlink:href="#rim2" fill="#404040">
                               <set attributeName="fill" to="#808080" begin="reset.mouseover" end="reset.mouseout"/>
                       </use>
               </g>
        </defs>

<script type="text/javascript">
var viewWidth = 576;
var viewHeight = 1071;
var sectionId = 'dynsection-0';
</script>
<script xlink:href="../../svgpan.js"/>
<svg id="graph" class="graph">
<g id="viewport">
<title>o2::base::MatLayerCylSetLayout</title>
<!-- Node1 -->
<g id="node1" class="node">
<title>Node1</title>
<polygon fill="#bfbfbf" stroke="#000000" points="233.9831,-.5 233.9831,-68.5 364.9831,-68.5 364.9831,-.5 233.9831,-.5"/>
<text text-anchor="start" x="241.9831" y="-56.5" font-family="Helvetica,sans-Serif" font-size="10.00" fill="#000000">o2::base::MatLayerCylSet</text>
<text text-anchor="middle" x="299.4831" y="-45.5" font-family="Helvetica,sans-Serif" font-size="10.00" fill="#000000">Layout</text>
<polyline fill="none" stroke="#000000" points="233.9831,-38.5 364.9831,-38.5 "/>
<text text-anchor="middle" x="299.4831" y="-26.5" font-family="Helvetica,sans-Serif" font-size="10.00" fill="#000000"> </text>
<polyline fill="none" stroke="#000000" points="233.9831,-19.5 364.9831,-19.5 "/>
<text text-anchor="middle" x="299.4831" y="-7.5" font-family="Helvetica,sans-Serif" font-size="10.00" fill="#000000"> </text>
</g>
<!-- Node2 -->
<g id="node2" class="node">
<title>Node2</title>
<g id="a_node2"><a xlink:href="../../d4/dc3/classfloat.html" target="_top" xlink:title="{float\n||}">
<polygon fill="none" stroke="#000000" points="41.9831,-1005.5 41.9831,-1062.5 76.9831,-1062.5 76.9831,-1005.5 41.9831,-1005.5"/>
<text text-anchor="middle" x="59.4831" y="-1050.5" font-family="Helvetica,sans-Serif" font-size="10.00" fill="#000000">float</text>
<polyline fill="none" stroke="#000000" points="41.9831,-1043.5 76.9831,-1043.5 "/>
<text text-anchor="middle" x="59.4831" y="-1031.5" font-family="Helvetica,sans-Serif" font-size="10.00" fill="#000000"> </text>
<polyline fill="none" stroke="#000000" points="41.9831,-1024.5 76.9831,-1024.5 "/>
<text text-anchor="middle" x="59.4831" y="-1012.5" font-family="Helvetica,sans-Serif" font-size="10.00" fill="#000000"> </text>
</a>
</g>
</g>
<!-- Node2&#45;&gt;Node1 -->
<g id="edge1" class="edge">
<title>Node2&#45;&gt;Node1</title>
<path fill="none" stroke="#404040" d="M46.4988,-1005.38C25.7963,-956.2499 -10.9566,-852.5921 3.4831,-764 52.3416,-464.2361 62.6449,-375.4854 220.4831,-116 228.8068,-102.3158 239.8089,-89.1052 250.9493,-77.447"/>
<polygon fill="none" stroke="#404040" points="251.0132,-77.3825 252.3899,-70.304 259.4534,-68.8524 258.0767,-75.9308 251.0132,-77.3825"/>
<text text-anchor="middle" x="37.4831" y="-822" font-family="Helvetica,sans-Serif" font-size="10.00" fill="#000000"> +mR2Intervals</text>
<text text-anchor="middle" x="37.4831" y="-811" font-family="Helvetica,sans-Serif" font-size="10.00" fill="#000000">+mRMin2</text>
<text text-anchor="middle" x="37.4831" y="-800" font-family="Helvetica,sans-Serif" font-size="10.00" fill="#000000">+mRMax2</text>
<text text-anchor="middle" x="37.4831" y="-789" font-family="Helvetica,sans-Serif" font-size="10.00" fill="#000000">+mZMax</text>
<text text-anchor="middle" x="37.4831" y="-778" font-family="Helvetica,sans-Serif" font-size="10.00" fill="#000000">+mRMin</text>
<text text-anchor="middle" x="37.4831" y="-767" font-family="Helvetica,sans-Serif" font-size="10.00" fill="#000000">+mRMax</text>
</g>
<!-- Node3 -->
<g id="node3" class="node">
<title>Node3</title>
<g id="a_node3"><a xlink:href="../../d1/de6/classo2_1_1base_1_1MatLayerCyl.html" target="_top" xlink:title="{o2::base::MatLayerCyl\n||+ MatLayerCyl()\l+ MatLayerCyl()\l+ ~MatLayerCyl()\l+ MatLayerCyl()\l+ initSegmentation()\l+ initSegmentation()\l+ populateFromTGeo()\l+ populateFromTGeo()\l+ print()\l+ GPUd()\l+ GPUd()\l+ GPUd()\l+ GPUd()\l+ GPUd()\l+ GPUd()\l+ GPUd()\l+ GPUd()\l+ GPUd()\l+ GPUd()\l+ GPUd()\l+ GPUd()\l+ GPUd()\l+ GPUd()\l+ GPUd()\l+ GPUd()\l+ GPUd()\l+ GPUd()\l+ GPUd()\l+ GPUd()\l+ GPUd()\l+ GPUd()\l+ GPUd()\l+ GPUd()\l+ getMeanRMS()\l+ cellsDiffer()\l+ canMergePhiSlices()\l+ optimizePhiSlices()\l+ flatten()\l+ estimateFlatBufferSize()\l+ fixPointers()\l+ setFlatPointer()\l+ estimateFlatBufferSize()\l+ getClassAlignmentBytes()\l+ getBufferAlignmentBytes()\l# GPUd()\l# GPUd()\l# GPUd()\l# GPUd()\l# GPUd()\l# GPUd()\l# GPUd()\l# while()\l# ClassDefNV()\l}">
<polygon fill="none" stroke="#000000" points="229.4831,-116.5 229.4831,-745.5 369.4831,-745.5 369.4831,-116.5 229.4831,-116.5"/>
<text text-anchor="middle" x="299.4831" y="-733.5" font-family="Helvetica,sans-Serif" font-size="10.00" fill="#000000">o2::base::MatLayerCyl</text>
<polyline fill="none" stroke="#000000" points="229.4831,-726.5 369.4831,-726.5 "/>
<text text-anchor="middle" x="299.4831" y="-714.5" font-family="Helvetica,sans-Serif" font-size="10.00" fill="#000000"> </text>
<polyline fill="none" stroke="#000000" points="229.4831,-707.5 369.4831,-707.5 "/>
<text text-anchor="start" x="237.4831" y="-695.5" font-family="Helvetica,sans-Serif" font-size="10.00" fill="#000000">+ MatLayerCyl()</text>
<text text-anchor="start" x="237.4831" y="-684.5" font-family="Helvetica,sans-Serif" font-size="10.00" fill="#000000">+ MatLayerCyl()</text>
<text text-anchor="start" x="237.4831" y="-673.5" font-family="Helvetica,sans-Serif" font-size="10.00" fill="#000000">+ ~MatLayerCyl()</text>
<text text-anchor="start" x="237.4831" y="-662.5" font-family="Helvetica,sans-Serif" font-size="10.00" fill="#000000">+ MatLayerCyl()</text>
<text text-anchor="start" x="237.4831" y="-651.5" font-family="Helvetica,sans-Serif" font-size="10.00" fill="#000000">+ initSegmentation()</text>
<text text-anchor="start" x="237.4831" y="-640.5" font-family="Helvetica,sans-Serif" font-size="10.00" fill="#000000">+ initSegmentation()</text>
<text text-anchor="start" x="237.4831" y="-629.5" font-family="Helvetica,sans-Serif" font-size="10.00" fill="#000000">+ populateFromTGeo()</text>
<text text-anchor="start" x="237.4831" y="-618.5" font-family="Helvetica,sans-Serif" font-size="10.00" fill="#000000">+ populateFromTGeo()</text>
<text text-anchor="start" x="237.4831" y="-607.5" font-family="Helvetica,sans-Serif" font-size="10.00" fill="#000000">+ print()</text>
<text text-anchor="start" x="237.4831" y="-596.5" font-family="Helvetica,sans-Serif" font-size="10.00" fill="#000000">+ GPUd()</text>
<text text-anchor="start" x="237.4831" y="-585.5" font-family="Helvetica,sans-Serif" font-size="10.00" fill="#000000">+ GPUd()</text>
<text text-anchor="start" x="237.4831" y="-574.5" font-family="Helvetica,sans-Serif" font-size="10.00" fill="#000000">+ GPUd()</text>
<text text-anchor="start" x="237.4831" y="-563.5" font-family="Helvetica,sans-Serif" font-size="10.00" fill="#000000">+ GPUd()</text>
<text text-anchor="start" x="237.4831" y="-552.5" font-family="Helvetica,sans-Serif" font-size="10.00" fill="#000000">+ GPUd()</text>
<text text-anchor="start" x="237.4831" y="-541.5" font-family="Helvetica,sans-Serif" font-size="10.00" fill="#000000">+ GPUd()</text>
<text text-anchor="start" x="237.4831" y="-530.5" font-family="Helvetica,sans-Serif" font-size="10.00" fill="#000000">+ GPUd()</text>
<text text-anchor="start" x="237.4831" y="-519.5" font-family="Helvetica,sans-Serif" font-size="10.00" fill="#000000">+ GPUd()</text>
<text text-anchor="start" x="237.4831" y="-508.5" font-family="Helvetica,sans-Serif" font-size="10.00" fill="#000000">+ GPUd()</text>
<text text-anchor="start" x="237.4831" y="-497.5" font-family="Helvetica,sans-Serif" font-size="10.00" fill="#000000">+ GPUd()</text>
<text text-anchor="start" x="237.4831" y="-486.5" font-family="Helvetica,sans-Serif" font-size="10.00" fill="#000000">+ GPUd()</text>
<text text-anchor="start" x="237.4831" y="-475.5" font-family="Helvetica,sans-Serif" font-size="10.00" fill="#000000">+ GPUd()</text>
<text text-anchor="start" x="237.4831" y="-464.5" font-family="Helvetica,sans-Serif" font-size="10.00" fill="#000000">+ GPUd()</text>
<text text-anchor="start" x="237.4831" y="-453.5" font-family="Helvetica,sans-Serif" font-size="10.00" fill="#000000">+ GPUd()</text>
<text text-anchor="start" x="237.4831" y="-442.5" font-family="Helvetica,sans-Serif" font-size="10.00" fill="#000000">+ GPUd()</text>
<text text-anchor="start" x="237.4831" y="-431.5" font-family="Helvetica,sans-Serif" font-size="10.00" fill="#000000">+ GPUd()</text>
<text text-anchor="start" x="237.4831" y="-420.5" font-family="Helvetica,sans-Serif" font-size="10.00" fill="#000000">+ GPUd()</text>
<text text-anchor="start" x="237.4831" y="-409.5" font-family="Helvetica,sans-Serif" font-size="10.00" fill="#000000">+ GPUd()</text>
<text text-anchor="start" x="237.4831" y="-398.5" font-family="Helvetica,sans-Serif" font-size="10.00" fill="#000000">+ GPUd()</text>
<text text-anchor="start" x="237.4831" y="-387.5" font-family="Helvetica,sans-Serif" font-size="10.00" fill="#000000">+ GPUd()</text>
<text text-anchor="start" x="237.4831" y="-376.5" font-family="Helvetica,sans-Serif" font-size="10.00" fill="#000000">+ GPUd()</text>
<text text-anchor="start" x="237.4831" y="-365.5" font-family="Helvetica,sans-Serif" font-size="10.00" fill="#000000">+ GPUd()</text>
<text text-anchor="start" x="237.4831" y="-354.5" font-family="Helvetica,sans-Serif" font-size="10.00" fill="#000000">+ GPUd()</text>
<text text-anchor="start" x="237.4831" y="-343.5" font-family="Helvetica,sans-Serif" font-size="10.00" fill="#000000">+ GPUd()</text>
<text text-anchor="start" x="237.4831" y="-332.5" font-family="Helvetica,sans-Serif" font-size="10.00" fill="#000000">+ getMeanRMS()</text>
<text text-anchor="start" x="237.4831" y="-321.5" font-family="Helvetica,sans-Serif" font-size="10.00" fill="#000000">+ cellsDiffer()</text>
<text text-anchor="start" x="237.4831" y="-310.5" font-family="Helvetica,sans-Serif" font-size="10.00" fill="#000000">+ canMergePhiSlices()</text>
<text text-anchor="start" x="237.4831" y="-299.5" font-family="Helvetica,sans-Serif" font-size="10.00" fill="#000000">+ optimizePhiSlices()</text>
<text text-anchor="start" x="237.4831" y="-288.5" font-family="Helvetica,sans-Serif" font-size="10.00" fill="#000000">+ flatten()</text>
<text text-anchor="start" x="237.4831" y="-277.5" font-family="Helvetica,sans-Serif" font-size="10.00" fill="#000000">+ estimateFlatBufferSize()</text>
<text text-anchor="start" x="237.4831" y="-266.5" font-family="Helvetica,sans-Serif" font-size="10.00" fill="#000000">+ fixPointers()</text>
<text text-anchor="start" x="237.4831" y="-255.5" font-family="Helvetica,sans-Serif" font-size="10.00" fill="#000000">+ setFlatPointer()</text>
<text text-anchor="start" x="237.4831" y="-244.5" font-family="Helvetica,sans-Serif" font-size="10.00" fill="#000000">+ estimateFlatBufferSize()</text>
<text text-anchor="start" x="237.4831" y="-233.5" font-family="Helvetica,sans-Serif" font-size="10.00" fill="#000000">+ getClassAlignmentBytes()</text>
<text text-anchor="start" x="237.4831" y="-222.5" font-family="Helvetica,sans-Serif" font-size="10.00" fill="#000000">+ getBufferAlignmentBytes()</text>
<text text-anchor="start" x="237.4831" y="-211.5" font-family="Helvetica,sans-Serif" font-size="10.00" fill="#000000"># GPUd()</text>
<text text-anchor="start" x="237.4831" y="-200.5" font-family="Helvetica,sans-Serif" font-size="10.00" fill="#000000"># GPUd()</text>
<text text-anchor="start" x="237.4831" y="-189.5" font-family="Helvetica,sans-Serif" font-size="10.00" fill="#000000"># GPUd()</text>
<text text-anchor="start" x="237.4831" y="-178.5" font-family="Helvetica,sans-Serif" font-size="10.00" fill="#000000"># GPUd()</text>
<text text-anchor="start" x="237.4831" y="-167.5" font-family="Helvetica,sans-Serif" font-size="10.00" fill="#000000"># GPUd()</text>
<text text-anchor="start" x="237.4831" y="-156.5" font-family="Helvetica,sans-Serif" font-size="10.00" fill="#000000"># GPUd()</text>
<text text-anchor="start" x="237.4831" y="-145.5" font-family="Helvetica,sans-Serif" font-size="10.00" fill="#000000"># GPUd()</text>
<text text-anchor="start" x="237.4831" y="-134.5" font-family="Helvetica,sans-Serif" font-size="10.00" fill="#000000"># while()</text>
<text text-anchor="start" x="237.4831" y="-123.5" font-family="Helvetica,sans-Serif" font-size="10.00" fill="#000000"># ClassDefNV()</text>
</a>
</g>
</g>
<!-- Node2&#45;&gt;Node3 -->
<g id="edge5" class="edge">
<title>Node2&#45;&gt;Node3</title>
<path fill="none" stroke="#404040" d="M56.9036,-1005.3088C54.4585,-968.2078 53.1376,-901.9517 68.4831,-848 100.7272,-734.6362 168.5813,-618.3554 222.4487,-537.4839"/>
<polygon fill="none" stroke="#404040" points="222.5929,-537.269 222.6149,-530.0579 229.2797,-527.3047 229.2577,-534.5158 222.5929,-537.269"/>
<text text-anchor="middle" x="95.4831" y="-939" font-family="Helvetica,sans-Serif" font-size="10.00" fill="#000000"> #mSliceSin</text>
<text text-anchor="middle" x="95.4831" y="-928" font-family="Helvetica,sans-Serif" font-size="10.00" fill="#000000">#mDPhi</text>
<text text-anchor="middle" x="95.4831" y="-917" font-family="Helvetica,sans-Serif" font-size="10.00" fill="#000000">#mDZInv</text>
<text text-anchor="middle" x="95.4831" y="-906" font-family="Helvetica,sans-Serif" font-size="10.00" fill="#000000">#mZHalf</text>
<text text-anchor="middle" x="95.4831" y="-895" font-family="Helvetica,sans-Serif" font-size="10.00" fill="#000000">#mDPhiInv</text>
<text text-anchor="middle" x="95.4831" y="-884" font-family="Helvetica,sans-Serif" font-size="10.00" fill="#000000">#mRMin2</text>
<text text-anchor="middle" x="95.4831" y="-873" font-family="Helvetica,sans-Serif" font-size="10.00" fill="#000000">#mDZ</text>
<text text-anchor="middle" x="95.4831" y="-862" font-family="Helvetica,sans-Serif" font-size="10.00" fill="#000000">#mRMax2</text>
<text text-anchor="middle" x="95.4831" y="-851" font-family="Helvetica,sans-Serif" font-size="10.00" fill="#000000">#mSliceCos</text>
</g>
<!-- Node8 -->
<g id="node8" class="node">
<title>Node8</title>
<g id="a_node8"><a xlink:href="../../dd/dcd/structo2_1_1base_1_1MatCell.html" target="_top" xlink:title="{o2::base::MatCell\n||+ GPUd()\l+ GPUdDefault()\l+ GPUd()\l+ ClassDefNV()\l}">
<polygon fill="none" stroke="#000000" points="131.4831,-852.5 131.4831,-942.5 225.4831,-942.5 225.4831,-852.5 131.4831,-852.5"/>
<text text-anchor="middle" x="178.4831" y="-930.5" font-family="Helvetica,sans-Serif" font-size="10.00" fill="#000000">o2::base::MatCell</text>
<polyline fill="none" stroke="#000000" points="131.4831,-923.5 225.4831,-923.5 "/>
<text text-anchor="middle" x="178.4831" y="-911.5" font-family="Helvetica,sans-Serif" font-size="10.00" fill="#000000"> </text>
<polyline fill="none" stroke="#000000" points="131.4831,-904.5 225.4831,-904.5 "/>
<text text-anchor="start" x="139.4831" y="-892.5" font-family="Helvetica,sans-Serif" font-size="10.00" fill="#000000">+ GPUd()</text>
<text text-anchor="start" x="139.4831" y="-881.5" font-family="Helvetica,sans-Serif" font-size="10.00" fill="#000000">+ GPUdDefault()</text>
<text text-anchor="start" x="139.4831" y="-870.5" font-family="Helvetica,sans-Serif" font-size="10.00" fill="#000000">+ GPUd()</text>
<text text-anchor="start" x="139.4831" y="-859.5" font-family="Helvetica,sans-Serif" font-size="10.00" fill="#000000">+ ClassDefNV()</text>
</a>
</g>
</g>
<!-- Node2&#45;&gt;Node8 -->
<g id="edge9" class="edge">
<title>Node2&#45;&gt;Node8</title>
<path fill="none" stroke="#404040" d="M77.0597,-1013.7594C89.0126,-1000.0016 105.1912,-981.3932 119.4831,-965 123.2483,-960.6812 127.1506,-956.2087 131.0728,-951.716"/>
<polygon fill="none" stroke="#404040" points="131.2204,-951.5471 132.1543,-944.3967 139.1139,-942.5086 138.1799,-949.659 131.2204,-951.5471"/>
<text text-anchor="middle" x="146.9831" y="-979" font-family="Helvetica,sans-Serif" font-size="10.00" fill="#000000"> +meanRho</text>
<text text-anchor="middle" x="146.9831" y="-968" font-family="Helvetica,sans-Serif" font-size="10.00" fill="#000000">+meanX2X0</text>
</g>
<!-- Node3&#45;&gt;Node1 -->
<g id="edge2" class="edge">
<title>Node3&#45;&gt;Node1</title>
<path fill="none" stroke="#404040" d="M299.4831,-116.1743C299.4831,-103.2794 299.4831,-91.4051 299.4831,-80.9372"/>
<polygon fill="none" stroke="#404040" points="299.4832,-80.892 295.4831,-74.8921 299.4831,-68.892 303.4831,-74.892 299.4832,-80.892"/>
<text text-anchor="middle" x="322.9831" y="-90" font-family="Helvetica,sans-Serif" font-size="10.00" fill="#000000"> +mLayers</text>
</g>
<!-- Node4 -->
<g id="node4" class="node">
<title>Node4</title>
<g id="a_node4"><a xlink:href="../../d8/db1/classo2_1_1gpu_1_1FlatObject.html" target="_top" xlink:title="{FlatObject\n||}">
<polygon fill="none" stroke="#000000" points="243.4831,-869 243.4831,-926 305.4831,-926 305.4831,-869 243.4831,-869"/>
<text text-anchor="middle" x="274.4831" y="-914" font-family="Helvetica,sans-Serif" font-size="10.00" fill="#000000">FlatObject</text>
<polyline fill="none" stroke="#000000" points="243.4831,-907 305.4831,-907 "/>
<text text-anchor="middle" x="274.4831" y="-895" font-family="Helvetica,sans-Serif" font-size="10.00" fill="#000000"> </text>
<polyline fill="none" stroke="#000000" points="243.4831,-888 305.4831,-888 "/>
<text text-anchor="middle" x="274.4831" y="-876" font-family="Helvetica,sans-Serif" font-size="10.00" fill="#000000"> </text>
</a>
</g>
</g>
<!-- Node4&#45;&gt;Node3 -->
<g id="edge3" class="edge">
<title>Node4&#45;&gt;Node3</title>
<path fill="none" stroke="#191970" d="M276.5647,-858.6577C278.0527,-830.8907 280.2115,-790.6079 282.617,-745.7213"/>
<polygon fill="none" stroke="#191970" points="273.0683,-858.4974 276.0281,-868.6704 280.0583,-858.872 273.0683,-858.4974"/>
</g>
<!-- Node5 -->
<g id="node5" class="node">
<title>Node5</title>
<polygon fill="none" stroke="#bfbfbf" points="323.9831,-869 323.9831,-926 364.9831,-926 364.9831,-869 323.9831,-869"/>
<text text-anchor="middle" x="344.4831" y="-914" font-family="Helvetica,sans-Serif" font-size="10.00" fill="#000000">return</text>
<polyline fill="none" stroke="#bfbfbf" points="323.9831,-907 364.9831,-907 "/>
<text text-anchor="middle" x="344.4831" y="-895" font-family="Helvetica,sans-Serif" font-size="10.00" fill="#000000"> </text>
<polyline fill="none" stroke="#bfbfbf" points="323.9831,-888 364.9831,-888 "/>
<text text-anchor="middle" x="344.4831" y="-876" font-family="Helvetica,sans-Serif" font-size="10.00" fill="#000000"> </text>
</g>
<!-- Node5&#45;&gt;Node3 -->
<g id="edge4" class="edge">
<title>Node5&#45;&gt;Node3</title>
<path fill="none" stroke="#404040" d="M335.5362,-868.8615C332.1606,-856.9553 328.6227,-842.9226 326.4831,-830 322.5967,-806.5278 319.267,-782.1903 316.4146,-757.6396"/>
<polygon fill="none" stroke="#404040" points="316.3986,-757.4975 311.7507,-751.9841 315.0523,-745.5732 319.7002,-751.0866 316.3986,-757.4975"/>
<text text-anchor="middle" x="335.9831" y="-794.5" font-family="Helvetica,sans-Serif" font-size="10.00" fill="#000000"> #dir</text>
</g>
<!-- Node6 -->
<g id="node6" class="node">
<title>Node6</title>
<g id="a_node6"><a xlink:href="../../dc/d10/classshort.html" target="_top" xlink:title="{short\n||}">
<polygon fill="none" stroke="#000000" points="383.4831,-869 383.4831,-926 421.4831,-926 421.4831,-869 383.4831,-869"/>
<text text-anchor="middle" x="402.4831" y="-914" font-family="Helvetica,sans-Serif" font-size="10.00" fill="#000000">short</text>
<polyline fill="none" stroke="#000000" points="383.4831,-907 421.4831,-907 "/>
<text text-anchor="middle" x="402.4831" y="-895" font-family="Helvetica,sans-Serif" font-size="10.00" fill="#000000"> </text>
<polyline fill="none" stroke="#000000" points="383.4831,-888 421.4831,-888 "/>
<text text-anchor="middle" x="402.4831" y="-876" font-family="Helvetica,sans-Serif" font-size="10.00" fill="#000000"> </text>
</a>
</g>
</g>
<!-- Node6&#45;&gt;Node3 -->
<g id="edge6" class="edge">
<title>Node6&#45;&gt;Node3</title>
<path fill="none" stroke="#404040" d="M385.6351,-868.7377C379.4228,-857.0501 372.8441,-843.2074 368.4831,-830 360.7766,-806.6608 353.8882,-782.2544 347.738,-757.5076"/>
<polygon fill="none" stroke="#404040" points="347.7087,-757.387 342.4034,-752.503 344.8712,-745.7273 350.1765,-750.6113 347.7087,-757.387"/>
<text text-anchor="middle" x="404.9831" y="-811" font-family="Helvetica,sans-Serif" font-size="10.00" fill="#000000"> #mPhiBin2Slice</text>
<text text-anchor="middle" x="404.9831" y="-800" font-family="Helvetica,sans-Serif" font-size="10.00" fill="#000000">#mNZBins</text>
<text text-anchor="middle" x="404.9831" y="-789" font-family="Helvetica,sans-Serif" font-size="10.00" fill="#000000">#mNPhiSlices</text>
<text text-anchor="middle" x="404.9831" y="-778" font-family="Helvetica,sans-Serif" font-size="10.00" fill="#000000">#mNPhiBins</text>
</g>
<!-- Node7 -->
<g id="node7" class="node">
<title>Node7</title>
<polygon fill="none" stroke="#bfbfbf" points="473.9831,-869 473.9831,-926 502.9831,-926 502.9831,-869 473.9831,-869"/>
<text text-anchor="middle" x="488.4831" y="-914" font-family="Helvetica,sans-Serif" font-size="10.00" fill="#000000">int</text>
<polyline fill="none" stroke="#bfbfbf" points="473.9831,-907 502.9831,-907 "/>
<text text-anchor="middle" x="488.4831" y="-895" font-family="Helvetica,sans-Serif" font-size="10.00" fill="#000000"> </text>
<polyline fill="none" stroke="#bfbfbf" points="473.9831,-888 502.9831,-888 "/>
<text text-anchor="middle" x="488.4831" y="-876" font-family="Helvetica,sans-Serif" font-size="10.00" fill="#000000"> </text>
</g>
<!-- Node7&#45;&gt;Node1 -->
<g id="edge11" class="edge">
<title>Node7&#45;&gt;Node1</title>
<path fill="none" stroke="#404040" d="M494.2242,-868.7199C496.329,-856.792 498.4484,-842.7814 499.4831,-830 501.8498,-800.7623 502.1867,-793.2085 499.4831,-764 472.4792,-472.2692 512.7933,-376.3782 378.4831,-116 371.3549,-102.1812 361.1156,-89.1382 350.3603,-77.7056"/>
<polygon fill="none" stroke="#404040" points="350.1001,-77.4418 343.039,-75.9788 341.6736,-68.8981 348.7348,-70.3611 350.1001,-77.4418"/>
<text text-anchor="middle" x="532.9831" y="-439.5" font-family="Helvetica,sans-Serif" font-size="10.00" fill="#000000"> +mNLayers</text>
<text text-anchor="middle" x="532.9831" y="-428.5" font-family="Helvetica,sans-Serif" font-size="10.00" fill="#000000">+mInterval2LrID</text>
<text text-anchor="middle" x="532.9831" y="-417.5" font-family="Helvetica,sans-Serif" font-size="10.00" fill="#000000">+mNRIntervals</text>
</g>
<!-- Node7&#45;&gt;Node3 -->
<g id="edge7" class="edge">
<title>Node7&#45;&gt;Node3</title>
<path fill="none" stroke="#404040" d="M478.2836,-868.9399C474.0037,-856.9229 468.9845,-842.7877 464.4831,-830 454.1686,-800.699 452.693,-792.9703 441.4831,-764 420.7322,-710.3725 396.6762,-652.5434 374.3281,-600.3656"/>
<polygon fill="none" stroke="#404040" points="374.3205,-600.3478 368.278,-596.4121 369.5869,-589.3208 375.6294,-593.2565 374.3205,-600.3478"/>
<text text-anchor="middle" x="481.9831" y="-805.5" font-family="Helvetica,sans-Serif" font-size="10.00" fill="#000000"> +const</text>
<text text-anchor="middle" x="481.9831" y="-794.5" font-family="Helvetica,sans-Serif" font-size="10.00" fill="#000000">+binMin</text>
<text text-anchor="middle" x="481.9831" y="-783.5" font-family="Helvetica,sans-Serif" font-size="10.00" fill="#000000">#const</text>
</g>
<!-- Node8&#45;&gt;Node3 -->
<g id="edge8" class="edge">
<title>Node8&#45;&gt;Node3</title>
<path fill="none" stroke="#404040" d="M190.195,-852.3461C199.1374,-817.8699 212.2905,-767.1598 226.3989,-712.7667"/>
<polygon fill="none" stroke="#404040" points="226.4099,-712.724 224.0445,-705.9119 229.4228,-701.1084 231.7882,-707.9205 226.4099,-712.724"/>
<text text-anchor="middle" x="231.4831" y="-794.5" font-family="Helvetica,sans-Serif" font-size="10.00" fill="#000000"> #mCells</text>
</g>
<!-- Node9 -->
<g id="node9" class="node">
<title>Node9</title>
<polygon fill="none" stroke="#bfbfbf" points="157.9831,-1005.5 157.9831,-1062.5 198.9831,-1062.5 198.9831,-1005.5 157.9831,-1005.5"/>
<text text-anchor="middle" x="178.4831" y="-1050.5" font-family="Helvetica,sans-Serif" font-size="10.00" fill="#000000">static</text>
<polyline fill="none" stroke="#bfbfbf" points="157.9831,-1043.5 198.9831,-1043.5 "/>
<text text-anchor="middle" x="178.4831" y="-1031.5" font-family="Helvetica,sans-Serif" font-size="10.00" fill="#000000"> </text>
<polyline fill="none" stroke="#bfbfbf" points="157.9831,-1024.5 198.9831,-1024.5 "/>
<text text-anchor="middle" x="178.4831" y="-1012.5" font-family="Helvetica,sans-Serif" font-size="10.00" fill="#000000"> </text>
</g>
<!-- Node9&#45;&gt;Node8 -->
<g id="edge10" class="edge">
<title>Node9&#45;&gt;Node8</title>
<path fill="none" stroke="#404040" d="M178.4831,-1005.3851C178.4831,-990.7198 178.4831,-972.318 178.4831,-954.8866"/>
<polygon fill="none" stroke="#404040" points="178.4832,-954.7333 174.4831,-948.7333 178.4831,-942.7333 182.4831,-948.7333 178.4832,-954.7333"/>
<text text-anchor="middle" x="203.9831" y="-973.5" font-family="Helvetica,sans-Serif" font-size="10.00" fill="#000000"> +NParams</text>
</g>
</g>
</svg>
        <g id="navigator" transform="translate(0 0)" fill="#404254">
                <rect fill="#f2f5e9" fill-opacity="0.5" stroke="#606060" stroke-width=".5" x="0" y="0" width="60" height="60"/>
                <use id="zoomplus" xlink:href="#zoomPlus" x="17" y="9" onmousedown="handleZoom(evt,'in')"/>
                <use id="zoomminus" xlink:href="#zoomMin" x="42" y="9" onmousedown="handleZoom(evt,'out')"/>
                <use id="reset" xlink:href="#resetDef" x="30" y="36" onmousedown="handleReset()"/>
                <g id="arrowUp" xlink:href="#dirArrow" transform="translate(30 24)" onmousedown="handlePan(0,-1)">
                  <use xlink:href="#rim" fill="#404040">
                        <set attributeName="fill" to="#808080" begin="arrowUp.mouseover" end="arrowUp.mouseout"/>
                  </use>
                  <path fill="none" stroke="white" stroke-width="1.5" d="M0,-3.0v7 M-2.5,-0.5L0,-3.0L2.5,-0.5"/>
                </g>
                <g id="arrowRight" xlink:href="#dirArrow" transform="rotate(90) translate(36 -43)" onmousedown="handlePan(1,0)">
                  <use xlink:href="#rim" fill="#404040">
                        <set attributeName="fill" to="#808080" begin="arrowRight.mouseover" end="arrowRight.mouseout"/>
                  </use>
                  <path fill="none" stroke="white" stroke-width="1.5" d="M0,-3.0v7 M-2.5,-0.5L0,-3.0L2.5,-0.5"/>
                </g>
                <g id="arrowDown" xlink:href="#dirArrow" transform="rotate(180) translate(-30 -48)" onmousedown="handlePan(0,1)">
                  <use xlink:href="#rim" fill="#404040">
                        <set attributeName="fill" to="#808080" begin="arrowDown.mouseover" end="arrowDown.mouseout"/>
                  </use>
                  <path fill="none" stroke="white" stroke-width="1.5" d="M0,-3.0v7 M-2.5,-0.5L0,-3.0L2.5,-0.5"/>
                </g>
                <g id="arrowLeft" xlink:href="#dirArrow" transform="rotate(270) translate(-36 17)" onmousedown="handlePan(-1,0)">
                  <use xlink:href="#rim" fill="#404040">
                        <set attributeName="fill" to="#808080" begin="arrowLeft.mouseover" end="arrowLeft.mouseout"/>
                  </use>
                  <path fill="none" stroke="white" stroke-width="1.5" d="M0,-3.0v7 M-2.5,-0.5L0,-3.0L2.5,-0.5"/>
                </g>
        </g>
        <svg viewBox="0 0 15 15" width="100%" height="30px" preserveAspectRatio="xMaxYMin meet">
         <g id="arrow_out" transform="scale(0.3 0.3)">
          <a xlink:href="structo2_1_1base_1_1MatLayerCylSetLayout__coll__graph_org.svg" target="_base">
           <rect id="button" ry="5" rx="5" y="6" x="6" height="38" width="38"
                fill="#f2f5e9" fill-opacity="0.5" stroke="#606060" stroke-width="1.0"/>
           <path id="arrow"
             d="M 11.500037,31.436501 C 11.940474,20.09759 22.043105,11.32322 32.158766,21.979434 L 37.068811,17.246167 C 37.068811,17.246167 37.088388,32 37.088388,32 L 22.160133,31.978069 C 22.160133,31.978069 26.997745,27.140456 26.997745,27.140456 C 18.528582,18.264221 13.291696,25.230495 11.500037,31.436501 z"
             style="fill:#404040;"/>
          </a>
         </g>
        </svg>
</svg>
