<?xml version="1.0" encoding="UTF-8" standalone="no"?>
<!DOCTYPE svg PUBLIC "-//W3C//DTD SVG 1.1//EN"
 "http://www.w3.org/Graphics/SVG/1.1/DTD/svg11.dtd">
<!-- Generated by graphviz version 2.40.1 (20161225.0304)
 -->
<!-- Title: o2::fdd::Triggers Pages: 1 -->
<svg width="274pt" height="226pt"
 viewBox="0.00 0.00 273.50 226.00" xmlns="http://www.w3.org/2000/svg" xmlns:xlink="http://www.w3.org/1999/xlink">
<g id="graph0" class="graph" transform="scale(1 1) rotate(0) translate(4 222)">
<title>o2::fdd::Triggers</title>
<!-- Node1 -->
<g id="node1" class="node">
<title>Node1</title>
<polygon fill="#bfbfbf" stroke="#000000" points="88.5,-.5 88.5,-101.5 178.5,-101.5 178.5,-.5 88.5,-.5"/>
<text text-anchor="middle" x="133.5" y="-89.5" font-family="Helvetica,sans-Serif" font-size="10.00" fill="#000000">o2::fdd::Triggers</text>
<polyline fill="none" stroke="#000000" points="88.5,-82.5 178.5,-82.5 "/>
<text text-anchor="middle" x="133.5" y="-70.5" font-family="Helvetica,sans-Serif" font-size="10.00" fill="#000000"> </text>
<polyline fill="none" stroke="#000000" points="88.5,-63.5 178.5,-63.5 "/>
<text text-anchor="start" x="96.5" y="-51.5" font-family="Helvetica,sans-Serif" font-size="10.00" fill="#000000">+ Triggers()</text>
<text text-anchor="start" x="96.5" y="-40.5" font-family="Helvetica,sans-Serif" font-size="10.00" fill="#000000">+ Triggers()</text>
<text text-anchor="start" x="96.5" y="-29.5" font-family="Helvetica,sans-Serif" font-size="10.00" fill="#000000">+ cleanTriggers()</text>
<text text-anchor="start" x="96.5" y="-18.5" font-family="Helvetica,sans-Serif" font-size="10.00" fill="#000000">+ getTriggers()</text>
<text text-anchor="start" x="96.5" y="-7.5" font-family="Helvetica,sans-Serif" font-size="10.00" fill="#000000">+ ClassDefNV()</text>
</g>
<!-- Node2 -->
<g id="node2" class="node">
<title>Node2</title>
<polygon fill="none" stroke="#bfbfbf" points="0,-160.5 0,-217.5 41,-217.5 41,-160.5 0,-160.5"/>
<text text-anchor="middle" x="20.5" y="-205.5" font-family="Helvetica,sans-Serif" font-size="10.00" fill="#000000">int8_t</text>
<polyline fill="none" stroke="#bfbfbf" points="0,-198.5 41,-198.5 "/>
<text text-anchor="middle" x="20.5" y="-186.5" font-family="Helvetica,sans-Serif" font-size="10.00" fill="#000000"> </text>
<polyline fill="none" stroke="#bfbfbf" points="0,-179.5 41,-179.5 "/>
<text text-anchor="middle" x="20.5" y="-167.5" font-family="Helvetica,sans-Serif" font-size="10.00" fill="#000000"> </text>
</g>
<!-- Node2&#45;&gt;Node1 -->
<g id="edge1" class="edge">
<title>Node2&#45;&gt;Node1</title>
<path fill="none" stroke="#404040" d="M22.4993,-160.2961C24.5323,-147.1299 28.5617,-131.8516 36.5,-120 47.0665,-104.2247 62.5422,-90.8853 78.0425,-80.2652"/>
<polygon fill="none" stroke="#404040" points="78.1169,-80.217 80.97,-73.5943 88.1806,-73.6808 85.3275,-80.3035 78.1169,-80.217"/>
<text text-anchor="middle" x="59" y="-134" font-family="Helvetica,sans-Serif" font-size="10.00" fill="#000000"> +nChanA</text>
<text text-anchor="middle" x="59" y="-123" font-family="Helvetica,sans-Serif" font-size="10.00" fill="#000000">+nChanC</text>
</g>
<!-- Node3 -->
<g id="node3" class="node">
<title>Node3</title>
<polygon fill="none" stroke="#bfbfbf" points="65.5,-160.5 65.5,-217.5 111.5,-217.5 111.5,-160.5 65.5,-160.5"/>
<text text-anchor="middle" x="88.5" y="-205.5" font-family="Helvetica,sans-Serif" font-size="10.00" fill="#000000">uint8_t</text>
<polyline fill="none" stroke="#bfbfbf" points="65.5,-198.5 111.5,-198.5 "/>
<text text-anchor="middle" x="88.5" y="-186.5" font-family="Helvetica,sans-Serif" font-size="10.00" fill="#000000"> </text>
<polyline fill="none" stroke="#bfbfbf" points="65.5,-179.5 111.5,-179.5 "/>
<text text-anchor="middle" x="88.5" y="-167.5" font-family="Helvetica,sans-Serif" font-size="10.00" fill="#000000"> </text>
</g>
<!-- Node3&#45;&gt;Node1 -->
<g id="edge2" class="edge">
<title>Node3&#45;&gt;Node1</title>
<path fill="none" stroke="#404040" d="M85.438,-160.2659C84.9764,-147.6674 85.6492,-132.8536 89.5,-120 90.2167,-117.6076 91.0425,-115.2185 91.9589,-112.8434"/>
<polygon fill="none" stroke="#404040" points="91.9623,-112.8357 90.7465,-105.7278 96.8401,-101.8718 98.0558,-108.9797 91.9623,-112.8357"/>
<text text-anchor="middle" x="123" y="-128.5" font-family="Helvetica,sans-Serif" font-size="10.00" fill="#000000"> +triggersignals</text>
</g>
<!-- Node4 -->
<g id="node4" class="node">
<title>Node4</title>
<polygon fill="none" stroke="#bfbfbf" points="155.5,-160.5 155.5,-217.5 201.5,-217.5 201.5,-160.5 155.5,-160.5"/>
<text text-anchor="middle" x="178.5" y="-205.5" font-family="Helvetica,sans-Serif" font-size="10.00" fill="#000000">int32_t</text>
<polyline fill="none" stroke="#bfbfbf" points="155.5,-198.5 201.5,-198.5 "/>
<text text-anchor="middle" x="178.5" y="-186.5" font-family="Helvetica,sans-Serif" font-size="10.00" fill="#000000"> </text>
<polyline fill="none" stroke="#bfbfbf" points="155.5,-179.5 201.5,-179.5 "/>
<text text-anchor="middle" x="178.5" y="-167.5" font-family="Helvetica,sans-Serif" font-size="10.00" fill="#000000"> </text>
</g>
<!-- Node4&#45;&gt;Node1 -->
<g id="edge3" class="edge">
<title>Node4&#45;&gt;Node1</title>
<path fill="none" stroke="#404040" d="M169.4856,-160.4379C165.5373,-148.0033 160.8266,-133.2688 156.5,-120 155.7807,-117.7941 155.0462,-115.5493 154.3023,-113.2827"/>
<polygon fill="none" stroke="#404040" points="154.2891,-113.2425 148.6118,-108.7963 150.5323,-101.8457 156.2097,-106.2918 154.2891,-113.2425"/>
<text text-anchor="middle" x="181" y="-134" font-family="Helvetica,sans-Serif" font-size="10.00" fill="#000000"> +amplA</text>
<text text-anchor="middle" x="181" y="-123" font-family="Helvetica,sans-Serif" font-size="10.00" fill="#000000">+amplC</text>
</g>
<!-- Node5 -->
<g id="node5" class="node">
<title>Node5</title>
<polygon fill="none" stroke="#bfbfbf" points="219.5,-160.5 219.5,-217.5 265.5,-217.5 265.5,-160.5 219.5,-160.5"/>
<text text-anchor="middle" x="242.5" y="-205.5" font-family="Helvetica,sans-Serif" font-size="10.00" fill="#000000">int16_t</text>
<polyline fill="none" stroke="#bfbfbf" points="219.5,-198.5 265.5,-198.5 "/>
<text text-anchor="middle" x="242.5" y="-186.5" font-family="Helvetica,sans-Serif" font-size="10.00" fill="#000000"> </text>
<polyline fill="none" stroke="#bfbfbf" points="219.5,-179.5 265.5,-179.5 "/>
<text text-anchor="middle" x="242.5" y="-167.5" font-family="Helvetica,sans-Serif" font-size="10.00" fill="#000000"> </text>
</g>
<!-- Node5&#45;&gt;Node1 -->
<g id="edge4" class="edge">
<title>Node5&#45;&gt;Node1</title>
<path fill="none" stroke="#404040" d="M228.6168,-160.3583C221.8143,-147.4995 213.0373,-132.4544 203.5,-120 198.5509,-113.5371 193.0156,-107.0869 187.2845,-100.8692"/>
<polygon fill="none" stroke="#404040" points="187.068,-100.6418 180.0337,-99.0549 178.793,-91.9513 185.8274,-93.5382 187.068,-100.6418"/>
<text text-anchor="middle" x="235" y="-134" font-family="Helvetica,sans-Serif" font-size="10.00" fill="#000000"> +timeA</text>
<text text-anchor="middle" x="235" y="-123" font-family="Helvetica,sans-Serif" font-size="10.00" fill="#000000">+timeC</text>
</g>
</g>
</svg>
