<?xml version="1.0" encoding="UTF-8" standalone="no"?>
<!DOCTYPE svg PUBLIC "-//W3C//DTD SVG 1.1//EN"
 "http://www.w3.org/Graphics/SVG/1.1/DTD/svg11.dtd">
<!-- Generated by graphviz version 2.40.1 (20161225.0304)
 -->
<!-- Title: /home/runner/work/AliceO2/AliceO2/Detectors/MUON/MCH/Raw/Decoder Pages: 1 -->
<!--zoomable 519 -->
<svg id="main" version="1.1" xmlns="http://www.w3.org/2000/svg" xmlns:xlink="http://www.w3.org/1999/xlink" xml:space="preserve" onload="init(evt)">
<style type="text/css"><![CDATA[
.edge:hover path { stroke: red; }
.edge:hover polygon { stroke: red; fill: red; }
]]></style>
<script type="text/javascript"><![CDATA[
var edges = document.getElementsByTagName('g');
if (edges && edges.length) {
  for (var i=0;i<edges.length;i++) {
    if (edges[i].id.substr(0,4)=='edge') {
      edges[i].setAttribute('class','edge');
    }
  }
}
]]></script>
        <defs>
                <circle id="rim" cx="0" cy="0" r="7"/>
                <circle id="rim2" cx="0" cy="0" r="3.5"/>
                <g id="zoomPlus">
                        <use xlink:href="#rim" fill="#404040">
                                <set attributeName="fill" to="#808080" begin="zoomplus.mouseover" end="zoomplus.mouseout"/>
                        </use>
                        <path d="M-4,0h8M0,-4v8" fill="none" stroke="white" stroke-width="1.5" pointer-events="none"/>
                </g>
                <g id="zoomMin">
                        <use xlink:href="#rim" fill="#404040">
                                <set attributeName="fill" to="#808080" begin="zoomminus.mouseover" end="zoomminus.mouseout"/>
                        </use>
                        <path d="M-4,0h8" fill="none" stroke="white" stroke-width="1.5" pointer-events="none"/>
                </g>
                <g id="dirArrow">
                        <path fill="none" stroke="white" stroke-width="1.5" d="M0,-3.0v7 M-2.5,-0.5L0,-3.0L2.5,-0.5"/>
                </g>
               <g id="resetDef">
                       <use xlink:href="#rim2" fill="#404040">
                               <set attributeName="fill" to="#808080" begin="reset.mouseover" end="reset.mouseout"/>
                       </use>
               </g>
        </defs>

<script type="text/javascript">
var viewWidth = 416;
var viewHeight = 519;
var sectionId = 'dynsection-0';
</script>
<script xlink:href="svgpan.js"/>
<svg id="graph" class="graph">
<g id="viewport">
<title>/home/runner/work/AliceO2/AliceO2/Detectors/MUON/MCH/Raw/Decoder</title>
<g id="clust1" class="cluster">
<title>clusterdir_f8de85f281636d081fd2e7e06b0134d2</title>
<g id="a_clust1"><a xlink:href="dir_f8de85f281636d081fd2e7e06b0134d2.html" target="_top" xlink:title="Raw">
<polygon fill="#ddddee" stroke="#000000" points="8,-344 8,-503 166,-503 166,-344 8,-344"/>
<text text-anchor="middle" x="87" y="-491" font-family="Helvetica,sans-Serif" font-size="10.00" fill="#000000">Raw</text>
</a>
</g>
</g>
<g id="clust2" class="cluster">
<title>clusterdir_060542ae88c3eb8c9b22a30de881a7e9</title>
<g id="a_clust2"><a xlink:href="dir_060542ae88c3eb8c9b22a30de881a7e9.html" target="_top">
<polygon fill="#eeeeff" stroke="#000000" points="16,-352 16,-476 158,-476 158,-352 16,-352"/>
</a>
</g>
</g>
<!-- dir_060542ae88c3eb8c9b22a30de881a7e9 -->
<g id="node1" class="node">
<title>dir_060542ae88c3eb8c9b22a30de881a7e9</title>
<text text-anchor="middle" x="123" y="-447.5" font-family="Helvetica,sans-Serif" font-size="10.00" fill="#000000">Decoder</text>
</g>
<!-- dir_10dbadd582c5f56f2a579debde05dc79 -->
<g id="node2" class="node">
<title>dir_10dbadd582c5f56f2a579debde05dc79</title>
<g id="a_node2"><a xlink:href="dir_10dbadd582c5f56f2a579debde05dc79.html" target="_top" xlink:title="include">
<polygon fill="#ffffff" stroke="#ff0000" points="78,-396 24,-396 24,-360 78,-360 78,-396"/>
<text text-anchor="middle" x="51" y="-375.5" font-family="Helvetica,sans-Serif" font-size="10.00" fill="#000000">include</text>
</a>
</g>
</g>
<!-- dir_0cfbacb297625179725e3de4f30c0e94 -->
<g id="node4" class="node">
<title>dir_0cfbacb297625179725e3de4f30c0e94</title>
<g id="a_node4"><a xlink:href="dir_0cfbacb297625179725e3de4f30c0e94.html" target="_top" xlink:title="ElecMap">
<polygon fill="none" stroke="#ff0000" points="113.5,-324 58.5,-324 58.5,-288 113.5,-288 113.5,-324"/>
<text text-anchor="middle" x="86" y="-303.5" font-family="Helvetica,sans-Serif" font-size="10.00" fill="#000000">ElecMap</text>
</a>
</g>
</g>
<!-- dir_10dbadd582c5f56f2a579debde05dc79&#45;&gt;dir_0cfbacb297625179725e3de4f30c0e94 -->
<g id="edge20" class="edge">
<title>dir_10dbadd582c5f56f2a579debde05dc79&#45;&gt;dir_0cfbacb297625179725e3de4f30c0e94</title>
<path fill="none" stroke="#000000" d="M59.832,-359.8314C63.6986,-351.8771 68.3206,-342.369 72.5968,-333.5723"/>
<polygon fill="#000000" stroke="#000000" points="75.8249,-334.9371 77.0491,-324.4133 69.5293,-331.8768 75.8249,-334.9371"/>
<g id="a_edge20&#45;headlabel"><a xlink:href="dir_000633_000465.html" target="_top" xlink:title="2">
<text text-anchor="middle" x="76.807" y="-336.9113" font-family="Helvetica,sans-Serif" font-size="10.00" fill="#000000">2</text>
</a>
</g>
</g>
<!-- dir_55964488a5749f1fcba45aaf4e122cee -->
<g id="node5" class="node">
<title>dir_55964488a5749f1fcba45aaf4e122cee</title>
<g id="a_node5"><a xlink:href="dir_55964488a5749f1fcba45aaf4e122cee.html" target="_top" xlink:title="Common">
<polygon fill="none" stroke="#ff0000" points="145,-180 89,-180 89,-144 145,-144 145,-180"/>
<text text-anchor="middle" x="117" y="-159.5" font-family="Helvetica,sans-Serif" font-size="10.00" fill="#000000">Common</text>
</a>
</g>
</g>
<!-- dir_10dbadd582c5f56f2a579debde05dc79&#45;&gt;dir_55964488a5749f1fcba45aaf4e122cee -->
<g id="edge21" class="edge">
<title>dir_10dbadd582c5f56f2a579debde05dc79&#45;&gt;dir_55964488a5749f1fcba45aaf4e122cee</title>
<path fill="none" stroke="#000000" d="M47.7833,-359.7516C45.1877,-341.3396 42.8753,-312.2445 49,-288 58.3264,-251.0815 80.8399,-213.2295 97.4189,-188.7806"/>
<polygon fill="#000000" stroke="#000000" points="100.4033,-190.6188 103.2231,-180.4061 94.65,-186.6313 100.4033,-190.6188"/>
<g id="a_edge21&#45;headlabel"><a xlink:href="dir_000633_000627.html" target="_top" xlink:title="1">
<text text-anchor="middle" x="100.6893" y="-192.6905" font-family="Helvetica,sans-Serif" font-size="10.00" fill="#000000">1</text>
</a>
</g>
</g>
<!-- dir_5cf327fcf87e9e676182b837d15f78ab -->
<g id="node3" class="node">
<title>dir_5cf327fcf87e9e676182b837d15f78ab</title>
<g id="a_node3"><a xlink:href="dir_5cf327fcf87e9e676182b837d15f78ab.html" target="_top" xlink:title="src">
<polygon fill="#ffffff" stroke="#000000" points="78,-468 24,-468 24,-432 78,-432 78,-468"/>
<text text-anchor="middle" x="51" y="-447.5" font-family="Helvetica,sans-Serif" font-size="10.00" fill="#000000">src</text>
</a>
</g>
</g>
<!-- dir_5cf327fcf87e9e676182b837d15f78ab&#45;&gt;dir_10dbadd582c5f56f2a579debde05dc79 -->
<g id="edge17" class="edge">
<title>dir_5cf327fcf87e9e676182b837d15f78ab&#45;&gt;dir_10dbadd582c5f56f2a579debde05dc79</title>
<path fill="none" stroke="#000000" d="M51,-431.8314C51,-424.131 51,-414.9743 51,-406.4166"/>
<polygon fill="#000000" stroke="#000000" points="54.5001,-406.4132 51,-396.4133 47.5001,-406.4133 54.5001,-406.4132"/>
<g id="a_edge17&#45;headlabel"><a xlink:href="dir_000635_000633.html" target="_top" xlink:title="10">
<text text-anchor="middle" x="57.3393" y="-407.5079" font-family="Helvetica,sans-Serif" font-size="10.00" fill="#000000">10</text>
</a>
</g>
</g>
<!-- dir_5cf327fcf87e9e676182b837d15f78ab&#45;&gt;dir_0cfbacb297625179725e3de4f30c0e94 -->
<g id="edge12" class="edge">
<title>dir_5cf327fcf87e9e676182b837d15f78ab&#45;&gt;dir_0cfbacb297625179725e3de4f30c0e94</title>
<path fill="none" stroke="#000000" d="M66.9905,-431.9169C74.6538,-422.0371 83.0166,-409.1563 87,-396 93.0658,-375.9661 92.5097,-352.2554 90.6009,-334.2014"/>
<polygon fill="#000000" stroke="#000000" points="94.043,-333.521 89.3228,-324.0357 87.0976,-334.3942 94.043,-333.521"/>
<g id="a_edge12&#45;headlabel"><a xlink:href="dir_000635_000465.html" target="_top" xlink:title="3">
<text text-anchor="middle" x="97.3084" y="-334.2334" font-family="Helvetica,sans-Serif" font-size="10.00" fill="#000000">3</text>
</a>
</g>
</g>
<!-- dir_5cf327fcf87e9e676182b837d15f78ab&#45;&gt;dir_55964488a5749f1fcba45aaf4e122cee -->
<g id="edge13" class="edge">
<title>dir_5cf327fcf87e9e676182b837d15f78ab&#45;&gt;dir_55964488a5749f1fcba45aaf4e122cee</title>
<path fill="none" stroke="#000000" d="M35.0095,-431.9169C27.3462,-422.0371 18.9834,-409.1563 15,-396 8.3028,-373.8805 11.1915,-366.7951 15,-344 24.9133,-284.6663 26.2296,-266.4467 59,-216 65.9678,-205.2738 75.5241,-195.2164 84.8698,-186.7568"/>
<polygon fill="#000000" stroke="#000000" points="87.3462,-189.242 92.6093,-180.0468 82.7608,-183.953 87.3462,-189.242"/>
<g id="a_edge13&#45;headlabel"><a xlink:href="dir_000635_000627.html" target="_top" xlink:title="7">
<text text-anchor="middle" x="86.4902" y="-191.242" font-family="Helvetica,sans-Serif" font-size="10.00" fill="#000000">7</text>
</a>
</g>
</g>
<!-- dir_cfadcf1c28477e06298c128044978e91 -->
<g id="node6" class="node">
<title>dir_cfadcf1c28477e06298c128044978e91</title>
<g id="a_node6"><a xlink:href="dir_cfadcf1c28477e06298c128044978e91.html" target="_top" xlink:title="ImplHelpers">
<polygon fill="none" stroke="#000000" points="214.5,-252 145.5,-252 145.5,-216 214.5,-216 214.5,-252"/>
<text text-anchor="middle" x="180" y="-231.5" font-family="Helvetica,sans-Serif" font-size="10.00" fill="#000000">ImplHelpers</text>
</a>
</g>
</g>
<!-- dir_5cf327fcf87e9e676182b837d15f78ab&#45;&gt;dir_cfadcf1c28477e06298c128044978e91 -->
<g id="edge14" class="edge">
<title>dir_5cf327fcf87e9e676182b837d15f78ab&#45;&gt;dir_cfadcf1c28477e06298c128044978e91</title>
<path fill="none" stroke="#000000" d="M78.2322,-435.5791C81.1523,-434.2759 84.1114,-433.0531 87,-432 151.4127,-408.517 194.553,-449.8396 237,-396 269.2474,-355.0974 230.9399,-294.5797 203.3545,-260.265"/>
<polygon fill="#000000" stroke="#000000" points="205.6951,-257.6038 196.6217,-252.1334 200.3033,-262.068 205.6951,-257.6038"/>
<g id="a_edge14&#45;headlabel"><a xlink:href="dir_000635_000639.html" target="_top" xlink:title="8">
<text text-anchor="middle" x="210.1744" y="-256.0618" font-family="Helvetica,sans-Serif" font-size="10.00" fill="#000000">8</text>
</a>
</g>
</g>
<!-- dir_4ab6b4cc6a7edbff49100e9123df213f -->
<g id="node7" class="node">
<title>dir_4ab6b4cc6a7edbff49100e9123df213f</title>
<g id="a_node7"><a xlink:href="dir_4ab6b4cc6a7edbff49100e9123df213f.html" target="_top" xlink:title="Common">
<polygon fill="none" stroke="#ff0000" points="372,-108 316,-108 316,-72 372,-72 372,-108"/>
<text text-anchor="middle" x="344" y="-87.5" font-family="Helvetica,sans-Serif" font-size="10.00" fill="#000000">Common</text>
</a>
</g>
</g>
<!-- dir_5cf327fcf87e9e676182b837d15f78ab&#45;&gt;dir_4ab6b4cc6a7edbff49100e9123df213f -->
<g id="edge15" class="edge">
<title>dir_5cf327fcf87e9e676182b837d15f78ab&#45;&gt;dir_4ab6b4cc6a7edbff49100e9123df213f</title>
<path fill="none" stroke="#000000" d="M78.1733,-435.4101C81.1048,-434.1399 84.0828,-432.971 87,-432 172.2802,-403.6152 207.0978,-439.0449 286,-396 334.0326,-369.796 370,-360.7154 370,-306 370,-306 370,-306 370,-234 370,-193.2738 359.804,-147.0849 352.182,-118.2458"/>
<polygon fill="#000000" stroke="#000000" points="355.5185,-117.1771 349.5139,-108.4481 348.7644,-119.0164 355.5185,-117.1771"/>
<g id="a_edge15&#45;headlabel"><a xlink:href="dir_000635_000035.html" target="_top" xlink:title="1">
<text text-anchor="middle" x="359.2024" y="-117.3995" font-family="Helvetica,sans-Serif" font-size="10.00" fill="#000000">1</text>
</a>
</g>
</g>
<!-- dir_934398cf98861ce15dff28db7cb4f35f -->
<g id="node8" class="node">
<title>dir_934398cf98861ce15dff28db7cb4f35f</title>
<g id="a_node8"><a xlink:href="dir_934398cf98861ce15dff28db7cb4f35f.html" target="_top" xlink:title="Encoder">
<polygon fill="none" stroke="#ff0000" points="228,-396 174,-396 174,-360 228,-360 228,-396"/>
<text text-anchor="middle" x="201" y="-375.5" font-family="Helvetica,sans-Serif" font-size="10.00" fill="#000000">Encoder</text>
</a>
</g>
</g>
<!-- dir_5cf327fcf87e9e676182b837d15f78ab&#45;&gt;dir_934398cf98861ce15dff28db7cb4f35f -->
<g id="edge16" class="edge">
<title>dir_5cf327fcf87e9e676182b837d15f78ab&#45;&gt;dir_934398cf98861ce15dff28db7cb4f35f</title>
<path fill="none" stroke="#000000" d="M78.0963,-436.3747C81.096,-434.8893 84.1099,-433.4068 87,-432 112.8442,-419.4197 142.1537,-405.5449 164.5818,-395.0097"/>
<polygon fill="#000000" stroke="#000000" points="166.1753,-398.1282 173.7424,-390.7126 163.2025,-391.7908 166.1753,-398.1282"/>
<g id="a_edge16&#45;headlabel"><a xlink:href="dir_000635_000489.html" target="_top" xlink:title="2">
<text text-anchor="middle" x="164.1268" y="-399.7252" font-family="Helvetica,sans-Serif" font-size="10.00" fill="#000000">2</text>
</a>
</g>
</g>
<!-- dir_26637d1bd82229bc9ed97f7e706be743 -->
<g id="node9" class="node">
<title>dir_26637d1bd82229bc9ed97f7e706be743</title>
<g id="a_node9"><a xlink:href="dir_26637d1bd82229bc9ed97f7e706be743.html" target="_top" xlink:title="Raw">
<polygon fill="none" stroke="#ff0000" points="325,-180 271,-180 271,-144 325,-144 325,-180"/>
<text text-anchor="middle" x="298" y="-159.5" font-family="Helvetica,sans-Serif" font-size="10.00" fill="#000000">Raw</text>
</a>
</g>
</g>
<!-- dir_5cf327fcf87e9e676182b837d15f78ab&#45;&gt;dir_26637d1bd82229bc9ed97f7e706be743 -->
<g id="edge18" class="edge">
<title>dir_5cf327fcf87e9e676182b837d15f78ab&#45;&gt;dir_26637d1bd82229bc9ed97f7e706be743</title>
<path fill="none" stroke="#000000" d="M78.2036,-435.499C81.1293,-434.2115 84.0975,-433.0142 87,-432 159.9082,-406.5239 203.0302,-451.244 257,-396 311.394,-340.3217 307.8709,-239.5619 302.2629,-190.4501"/>
<polygon fill="#000000" stroke="#000000" points="305.6989,-189.7206 300.9789,-180.2353 298.7535,-190.5937 305.6989,-189.7206"/>
<g id="a_edge18&#45;headlabel"><a xlink:href="dir_000635_000665.html" target="_top" xlink:title="5">
<text text-anchor="middle" x="308.9642" y="-190.4331" font-family="Helvetica,sans-Serif" font-size="10.00" fill="#000000">5</text>
</a>
</g>
</g>
<!-- dir_2171f7ec022c5423887b07c69b2f5b48 -->
<g id="node10" class="node">
<title>dir_2171f7ec022c5423887b07c69b2f5b48</title>
<g id="a_node10"><a xlink:href="dir_2171f7ec022c5423887b07c69b2f5b48.html" target="_top" xlink:title="DataFormats">
<polygon fill="none" stroke="#ff0000" points="353,-36 279,-36 279,0 353,0 353,-36"/>
<text text-anchor="middle" x="316" y="-15.5" font-family="Helvetica,sans-Serif" font-size="10.00" fill="#000000">DataFormats</text>
</a>
</g>
</g>
<!-- dir_5cf327fcf87e9e676182b837d15f78ab&#45;&gt;dir_2171f7ec022c5423887b07c69b2f5b48 -->
<g id="edge19" class="edge">
<title>dir_5cf327fcf87e9e676182b837d15f78ab&#45;&gt;dir_2171f7ec022c5423887b07c69b2f5b48</title>
<path fill="none" stroke="#000000" d="M78.1383,-435.3019C81.0767,-434.0528 84.0658,-432.9184 87,-432 194.1323,-398.4686 239.7456,-452.0647 337,-396 381.1394,-370.5547 408,-356.9485 408,-306 408,-306 408,-306 408,-162 408,-120.2388 404.0436,-106.828 381,-72 373.5902,-60.8009 363.1697,-50.7069 352.8385,-42.3595"/>
<polygon fill="#000000" stroke="#000000" points="354.6931,-39.3706 344.6315,-36.0517 350.4274,-44.9207 354.6931,-39.3706"/>
<g id="a_edge19&#45;headlabel"><a xlink:href="dir_000635_000089.html" target="_top" xlink:title="6">
<text text-anchor="middle" x="359.2734" y="-36.8099" font-family="Helvetica,sans-Serif" font-size="10.00" fill="#000000">6</text>
</a>
</g>
</g>
<!-- dir_0cfbacb297625179725e3de4f30c0e94&#45;&gt;dir_cfadcf1c28477e06298c128044978e91 -->
<g id="edge1" class="edge">
<title>dir_0cfbacb297625179725e3de4f30c0e94&#45;&gt;dir_cfadcf1c28477e06298c128044978e91</title>
<path fill="none" stroke="#000000" d="M109.7202,-287.8314C121.4094,-278.8779 135.6688,-267.9558 148.2809,-258.2955"/>
<polygon fill="#000000" stroke="#000000" points="150.4769,-261.0222 156.2874,-252.1628 146.2203,-255.4651 150.4769,-261.0222"/>
<g id="a_edge1&#45;headlabel"><a xlink:href="dir_000465_000639.html" target="_top" xlink:title="2">
<text text-anchor="middle" x="149.3497" y="-262.962" font-family="Helvetica,sans-Serif" font-size="10.00" fill="#000000">2</text>
</a>
</g>
</g>
<!-- dir_55964488a5749f1fcba45aaf4e122cee&#45;&gt;dir_cfadcf1c28477e06298c128044978e91 -->
<g id="edge2" class="edge">
<title>dir_55964488a5749f1fcba45aaf4e122cee&#45;&gt;dir_cfadcf1c28477e06298c128044978e91</title>
<path fill="none" stroke="#000000" d="M139.0876,-180.4133C147.1687,-188.7389 156.0913,-198.7282 163.6095,-207.8144"/>
<polygon fill="#000000" stroke="#000000" points="161.0613,-210.2307 170.0548,-215.8314 166.5168,-205.8447 161.0613,-210.2307"/>
<g id="a_edge2&#45;headlabel"><a xlink:href="dir_000627_000639.html" target="_top" xlink:title="2">
<text text-anchor="middle" x="156.5962" y="-206.7083" font-family="Helvetica,sans-Serif" font-size="10.00" fill="#000000">2</text>
</a>
</g>
</g>
<!-- dir_cfadcf1c28477e06298c128044978e91&#45;&gt;dir_55964488a5749f1fcba45aaf4e122cee -->
<g id="edge3" class="edge">
<title>dir_cfadcf1c28477e06298c128044978e91&#45;&gt;dir_55964488a5749f1fcba45aaf4e122cee</title>
<path fill="none" stroke="#000000" d="M158.15,-215.8314C150.0857,-207.5386 141.1578,-197.557 133.6122,-188.4533"/>
<polygon fill="#000000" stroke="#000000" points="136.1345,-186.0052 127.1356,-180.4133 130.6832,-190.3965 136.1345,-186.0052"/>
<g id="a_edge3&#45;headlabel"><a xlink:href="dir_000639_000627.html" target="_top" xlink:title="2">
<text text-anchor="middle" x="140.6006" y="-184.5234" font-family="Helvetica,sans-Serif" font-size="10.00" fill="#000000">2</text>
</a>
</g>
</g>
<!-- dir_cfadcf1c28477e06298c128044978e91&#45;&gt;dir_26637d1bd82229bc9ed97f7e706be743 -->
<g id="edge4" class="edge">
<title>dir_cfadcf1c28477e06298c128044978e91&#45;&gt;dir_26637d1bd82229bc9ed97f7e706be743</title>
<path fill="none" stroke="#000000" d="M209.7764,-215.8314C225.5606,-206.2003 245.0781,-194.2913 261.7392,-184.1252"/>
<polygon fill="#000000" stroke="#000000" points="263.9463,-186.8787 270.6597,-178.6822 260.3002,-180.9032 263.9463,-186.8787"/>
<g id="a_edge4&#45;headlabel"><a xlink:href="dir_000639_000665.html" target="_top" xlink:title="1">
<text text-anchor="middle" x="262.3567" y="-188.6746" font-family="Helvetica,sans-Serif" font-size="10.00" fill="#000000">1</text>
</a>
</g>
</g>
<!-- dir_cfadcf1c28477e06298c128044978e91&#45;&gt;dir_2171f7ec022c5423887b07c69b2f5b48 -->
<g id="edge5" class="edge">
<title>dir_cfadcf1c28477e06298c128044978e91&#45;&gt;dir_2171f7ec022c5423887b07c69b2f5b48</title>
<path fill="none" stroke="#000000" d="M181.3395,-215.8273C184.5399,-183.7175 195.1027,-116.1747 229,-72 239.665,-58.1015 255.0111,-46.9014 269.8541,-38.3818"/>
<polygon fill="#000000" stroke="#000000" points="271.8671,-41.2715 278.9845,-33.4234 268.5264,-35.12 271.8671,-41.2715"/>
<g id="a_edge5&#45;headlabel"><a xlink:href="dir_000639_000089.html" target="_top" xlink:title="1">
<text text-anchor="middle" x="270.0632" y="-42.982" font-family="Helvetica,sans-Serif" font-size="10.00" fill="#000000">1</text>
</a>
</g>
</g>
<!-- dir_4ab6b4cc6a7edbff49100e9123df213f&#45;&gt;dir_2171f7ec022c5423887b07c69b2f5b48 -->
<g id="edge6" class="edge">
<title>dir_4ab6b4cc6a7edbff49100e9123df213f&#45;&gt;dir_2171f7ec022c5423887b07c69b2f5b48</title>
<path fill="none" stroke="#000000" d="M330.982,-71.8314C327.1958,-64.0463 323.3721,-54.7729 320.3366,-46.1347"/>
<polygon fill="#000000" stroke="#000000" points="323.5983,-44.8463 317.1847,-36.4133 316.9395,-47.0053 323.5983,-44.8463"/>
<g id="a_edge6&#45;headlabel"><a xlink:href="dir_000035_000089.html" target="_top" xlink:title="2">
<text text-anchor="middle" x="327.4077" y="-44.8901" font-family="Helvetica,sans-Serif" font-size="10.00" fill="#000000">2</text>
</a>
</g>
</g>
<!-- dir_934398cf98861ce15dff28db7cb4f35f&#45;&gt;dir_0cfbacb297625179725e3de4f30c0e94 -->
<g id="edge7" class="edge">
<title>dir_934398cf98861ce15dff28db7cb4f35f&#45;&gt;dir_0cfbacb297625179725e3de4f30c0e94</title>
<path fill="none" stroke="#000000" d="M181.943,-359.6808C175.8331,-354.2849 168.8654,-348.6 162,-344 149.8903,-335.8861 135.8061,-328.3745 123.0758,-322.209"/>
<polygon fill="#000000" stroke="#000000" points="124.1975,-318.8684 113.6599,-317.769 121.2119,-325.1998 124.1975,-318.8684"/>
<g id="a_edge7&#45;headlabel"><a xlink:href="dir_000489_000465.html" target="_top" xlink:title="11">
<text text-anchor="middle" x="128.6597" y="-315.3334" font-family="Helvetica,sans-Serif" font-size="10.00" fill="#000000">11</text>
</a>
</g>
</g>
<!-- dir_934398cf98861ce15dff28db7cb4f35f&#45;&gt;dir_55964488a5749f1fcba45aaf4e122cee -->
<g id="edge8" class="edge">
<title>dir_934398cf98861ce15dff28db7cb4f35f&#45;&gt;dir_55964488a5749f1fcba45aaf4e122cee</title>
<path fill="none" stroke="#000000" d="M189.943,-359.868C175.7983,-335.9526 151.4108,-292.1853 137,-252 129.7735,-231.8483 124.6388,-208.1867 121.3827,-190.1834"/>
<polygon fill="#000000" stroke="#000000" points="124.8282,-189.5671 119.6811,-180.3066 117.9298,-190.7557 124.8282,-189.5671"/>
<g id="a_edge8&#45;headlabel"><a xlink:href="dir_000489_000627.html" target="_top" xlink:title="24">
<text text-anchor="middle" x="128.2365" y="-190.1275" font-family="Helvetica,sans-Serif" font-size="10.00" fill="#000000">24</text>
</a>
</g>
</g>
<!-- dir_934398cf98861ce15dff28db7cb4f35f&#45;&gt;dir_cfadcf1c28477e06298c128044978e91 -->
<g id="edge9" class="edge">
<title>dir_934398cf98861ce15dff28db7cb4f35f&#45;&gt;dir_cfadcf1c28477e06298c128044978e91</title>
<path fill="none" stroke="#000000" d="M198.3403,-359.7623C194.7585,-335.201 188.3486,-291.2474 184.135,-262.3541"/>
<polygon fill="#000000" stroke="#000000" points="187.5446,-261.4798 182.6381,-252.0896 180.6179,-262.4901 187.5446,-261.4798"/>
<g id="a_edge9&#45;headlabel"><a xlink:href="dir_000489_000639.html" target="_top" xlink:title="14">
<text text-anchor="middle" x="190.8728" y="-262.1271" font-family="Helvetica,sans-Serif" font-size="10.00" fill="#000000">14</text>
</a>
</g>
</g>
<!-- dir_934398cf98861ce15dff28db7cb4f35f&#45;&gt;dir_26637d1bd82229bc9ed97f7e706be743 -->
<g id="edge10" class="edge">
<title>dir_934398cf98861ce15dff28db7cb4f35f&#45;&gt;dir_26637d1bd82229bc9ed97f7e706be743</title>
<path fill="none" stroke="#000000" d="M212.242,-359.837C218.4234,-349.5135 226.0264,-336.2408 232,-324 254.3544,-278.1925 275.7656,-222.8173 287.862,-190.1088"/>
<polygon fill="#000000" stroke="#000000" points="291.2924,-190.9201 291.4514,-180.3265 284.7208,-188.5088 291.2924,-190.9201"/>
<g id="a_edge10&#45;headlabel"><a xlink:href="dir_000489_000665.html" target="_top" xlink:title="3">
<text text-anchor="middle" x="292.7197" y="-192.7728" font-family="Helvetica,sans-Serif" font-size="10.00" fill="#000000">3</text>
</a>
</g>
</g>
<!-- dir_934398cf98861ce15dff28db7cb4f35f&#45;&gt;dir_2171f7ec022c5423887b07c69b2f5b48 -->
<g id="edge11" class="edge">
<title>dir_934398cf98861ce15dff28db7cb4f35f&#45;&gt;dir_2171f7ec022c5423887b07c69b2f5b48</title>
<path fill="none" stroke="#000000" d="M204.7633,-359.82C213.1959,-320.1045 234.9996,-222.8404 262,-144 273.9127,-109.2153 291.1136,-70.5262 302.8815,-45.3136"/>
<polygon fill="#000000" stroke="#000000" points="306.1611,-46.5644 307.2555,-36.0262 299.8283,-43.5818 306.1611,-46.5644"/>
<g id="a_edge11&#45;headlabel"><a xlink:href="dir_000489_000089.html" target="_top" xlink:title="5">
<text text-anchor="middle" x="307.1982" y="-48.5261" font-family="Helvetica,sans-Serif" font-size="10.00" fill="#000000">5</text>
</a>
</g>
</g>
<!-- dir_26637d1bd82229bc9ed97f7e706be743&#45;&gt;dir_4ab6b4cc6a7edbff49100e9123df213f -->
<g id="edge22" class="edge">
<title>dir_26637d1bd82229bc9ed97f7e706be743&#45;&gt;dir_4ab6b4cc6a7edbff49100e9123df213f</title>
<path fill="none" stroke="#000000" d="M309.6077,-143.8314C314.7978,-135.7079 321.0232,-125.9637 326.7425,-117.0118"/>
<polygon fill="#000000" stroke="#000000" points="329.8015,-118.7246 332.236,-108.4133 323.9026,-114.9559 329.8015,-118.7246"/>
<g id="a_edge22&#45;headlabel"><a xlink:href="dir_000665_000035.html" target="_top" xlink:title="10">
<text text-anchor="middle" x="330.2589" y="-120.7824" font-family="Helvetica,sans-Serif" font-size="10.00" fill="#000000">10</text>
</a>
</g>
</g>
<!-- dir_26637d1bd82229bc9ed97f7e706be743&#45;&gt;dir_2171f7ec022c5423887b07c69b2f5b48 -->
<g id="edge23" class="edge">
<title>dir_26637d1bd82229bc9ed97f7e706be743&#45;&gt;dir_2171f7ec022c5423887b07c69b2f5b48</title>
<path fill="none" stroke="#000000" d="M299.4775,-143.6877C301.0302,-125.4734 303.7037,-96.7491 307,-72 308.1117,-63.6535 309.5318,-54.6166 310.9137,-46.3669"/>
<polygon fill="#000000" stroke="#000000" points="314.3737,-46.8977 312.6177,-36.4494 307.4748,-45.7123 314.3737,-46.8977"/>
<g id="a_edge23&#45;headlabel"><a xlink:href="dir_000665_000089.html" target="_top" xlink:title="15">
<text text-anchor="middle" x="316.5634" y="-48.4211" font-family="Helvetica,sans-Serif" font-size="10.00" fill="#000000">15</text>
</a>
</g>
</g>
<!-- dir_2171f7ec022c5423887b07c69b2f5b48&#45;&gt;dir_4ab6b4cc6a7edbff49100e9123df213f -->
<g id="edge24" class="edge">
<title>dir_2171f7ec022c5423887b07c69b2f5b48&#45;&gt;dir_4ab6b4cc6a7edbff49100e9123df213f</title>
<path fill="none" stroke="#000000" d="M329.1367,-36.4133C332.9236,-44.2292 336.7394,-53.5113 339.7584,-62.136"/>
<polygon fill="#000000" stroke="#000000" points="336.485,-63.3893 342.8868,-71.8314 343.1468,-61.2397 336.485,-63.3893"/>
<g id="a_edge24&#45;headlabel"><a xlink:href="dir_000089_000035.html" target="_top" xlink:title="39">
<text text-anchor="middle" x="332.6792" y="-58.3403" font-family="Helvetica,sans-Serif" font-size="10.00" fill="#000000">39</text>
</a>
</g>
</g>
</g>
</svg>
        <g id="navigator" transform="translate(0 0)" fill="#404254">
                <rect fill="#f2f5e9" fill-opacity="0.5" stroke="#606060" stroke-width=".5" x="0" y="0" width="60" height="60"/>
                <use id="zoomplus" xlink:href="#zoomPlus" x="17" y="9" onmousedown="handleZoom(evt,'in')"/>
                <use id="zoomminus" xlink:href="#zoomMin" x="42" y="9" onmousedown="handleZoom(evt,'out')"/>
                <use id="reset" xlink:href="#resetDef" x="30" y="36" onmousedown="handleReset()"/>
                <g id="arrowUp" xlink:href="#dirArrow" transform="translate(30 24)" onmousedown="handlePan(0,-1)">
                  <use xlink:href="#rim" fill="#404040">
                        <set attributeName="fill" to="#808080" begin="arrowUp.mouseover" end="arrowUp.mouseout"/>
                  </use>
                  <path fill="none" stroke="white" stroke-width="1.5" d="M0,-3.0v7 M-2.5,-0.5L0,-3.0L2.5,-0.5"/>
                </g>
                <g id="arrowRight" xlink:href="#dirArrow" transform="rotate(90) translate(36 -43)" onmousedown="handlePan(1,0)">
                  <use xlink:href="#rim" fill="#404040">
                        <set attributeName="fill" to="#808080" begin="arrowRight.mouseover" end="arrowRight.mouseout"/>
                  </use>
                  <path fill="none" stroke="white" stroke-width="1.5" d="M0,-3.0v7 M-2.5,-0.5L0,-3.0L2.5,-0.5"/>
                </g>
                <g id="arrowDown" xlink:href="#dirArrow" transform="rotate(180) translate(-30 -48)" onmousedown="handlePan(0,1)">
                  <use xlink:href="#rim" fill="#404040">
                        <set attributeName="fill" to="#808080" begin="arrowDown.mouseover" end="arrowDown.mouseout"/>
                  </use>
                  <path fill="none" stroke="white" stroke-width="1.5" d="M0,-3.0v7 M-2.5,-0.5L0,-3.0L2.5,-0.5"/>
                </g>
                <g id="arrowLeft" xlink:href="#dirArrow" transform="rotate(270) translate(-36 17)" onmousedown="handlePan(-1,0)">
                  <use xlink:href="#rim" fill="#404040">
                        <set attributeName="fill" to="#808080" begin="arrowLeft.mouseover" end="arrowLeft.mouseout"/>
                  </use>
                  <path fill="none" stroke="white" stroke-width="1.5" d="M0,-3.0v7 M-2.5,-0.5L0,-3.0L2.5,-0.5"/>
                </g>
        </g>
        <svg viewBox="0 0 15 15" width="100%" height="30px" preserveAspectRatio="xMaxYMin meet">
         <g id="arrow_out" transform="scale(0.3 0.3)">
          <a xlink:href="dir_060542ae88c3eb8c9b22a30de881a7e9_dep_org.svg" target="_base">
           <rect id="button" ry="5" rx="5" y="6" x="6" height="38" width="38"
                fill="#f2f5e9" fill-opacity="0.5" stroke="#606060" stroke-width="1.0"/>
           <path id="arrow"
             d="M 11.500037,31.436501 C 11.940474,20.09759 22.043105,11.32322 32.158766,21.979434 L 37.068811,17.246167 C 37.068811,17.246167 37.088388,32 37.088388,32 L 22.160133,31.978069 C 22.160133,31.978069 26.997745,27.140456 26.997745,27.140456 C 18.528582,18.264221 13.291696,25.230495 11.500037,31.436501 z"
             style="fill:#404040;"/>
          </a>
         </g>
        </svg>
</svg>
