<?xml version="1.0" encoding="UTF-8" standalone="no"?>
<!DOCTYPE svg PUBLIC "-//W3C//DTD SVG 1.1//EN"
 "http://www.w3.org/Graphics/SVG/1.1/DTD/svg11.dtd">
<!-- Generated by graphviz version 2.40.1 (20161225.0304)
 -->
<!-- Title: /home/runner/work/AliceO2/AliceO2/Detectors/TPC/monitor Pages: 1 -->
<svg width="276pt" height="375pt"
 viewBox="0.00 0.00 275.50 375.00" xmlns="http://www.w3.org/2000/svg" xmlns:xlink="http://www.w3.org/1999/xlink">
<g id="graph0" class="graph" transform="scale(1 1) rotate(0) translate(4 371)">
<title>/home/runner/work/AliceO2/AliceO2/Detectors/TPC/monitor</title>
<g id="clust1" class="cluster">
<title>clusterdir_a597e8e061b11201a1dff411feb10d0b</title>
<g id="a_clust1"><a xlink:href="dir_a597e8e061b11201a1dff411feb10d0b.html" target="_top" xlink:title="TPC">
<polygon fill="#ddddee" stroke="#000000" points="29.5,-200 29.5,-359 259.5,-359 259.5,-200 29.5,-200"/>
<text text-anchor="middle" x="144.5" y="-347" font-family="Helvetica,sans-Serif" font-size="10.00" fill="#000000">TPC</text>
</a>
</g>
</g>
<g id="clust2" class="cluster">
<title>clusterdir_c8aedc994017b243e124cedd663b3bbb</title>
<g id="a_clust2"><a xlink:href="dir_c8aedc994017b243e124cedd663b3bbb.html" target="_top">
<polygon fill="#eeeeff" stroke="#000000" points="37.5,-208 37.5,-332 251.5,-332 251.5,-208 37.5,-208"/>
</a>
</g>
</g>
<!-- dir_c8aedc994017b243e124cedd663b3bbb -->
<g id="node1" class="node">
<title>dir_c8aedc994017b243e124cedd663b3bbb</title>
<text text-anchor="middle" x="216.5" y="-303.5" font-family="Helvetica,sans-Serif" font-size="10.00" fill="#000000">monitor</text>
</g>
<!-- dir_aa18e31672ad680cbed4898267bc1ea1 -->
<g id="node2" class="node">
<title>dir_aa18e31672ad680cbed4898267bc1ea1</title>
<g id="a_node2"><a xlink:href="dir_aa18e31672ad680cbed4898267bc1ea1.html" target="_top" xlink:title="include">
<polygon fill="#ffffff" stroke="#ff0000" points="99.5,-252 45.5,-252 45.5,-216 99.5,-216 99.5,-252"/>
<text text-anchor="middle" x="72.5" y="-231.5" font-family="Helvetica,sans-Serif" font-size="10.00" fill="#000000">include</text>
</a>
</g>
</g>
<!-- dir_4995562033b321477cfe3c34a14a5189 -->
<g id="node5" class="node">
<title>dir_4995562033b321477cfe3c34a14a5189</title>
<g id="a_node5"><a xlink:href="dir_4995562033b321477cfe3c34a14a5189.html" target="_top" xlink:title="calibration">
<polygon fill="none" stroke="#ff0000" points="61,-180 0,-180 0,-144 61,-144 61,-180"/>
<text text-anchor="middle" x="30.5" y="-159.5" font-family="Helvetica,sans-Serif" font-size="10.00" fill="#000000">calibration</text>
</a>
</g>
</g>
<!-- dir_aa18e31672ad680cbed4898267bc1ea1&#45;&gt;dir_4995562033b321477cfe3c34a14a5189 -->
<g id="edge7" class="edge">
<title>dir_aa18e31672ad680cbed4898267bc1ea1&#45;&gt;dir_4995562033b321477cfe3c34a14a5189</title>
<path fill="none" stroke="#000000" d="M61.9016,-215.8314C57.2123,-207.7925 51.5972,-198.1666 46.4202,-189.2918"/>
<polygon fill="#000000" stroke="#000000" points="49.3031,-187.2875 41.2411,-180.4133 43.2566,-190.8146 49.3031,-187.2875"/>
<g id="a_edge7&#45;headlabel"><a xlink:href="dir_000703_000693.html" target="_top" xlink:title="1">
<text text-anchor="middle" x="53.5667" y="-186.4618" font-family="Helvetica,sans-Serif" font-size="10.00" fill="#000000">1</text>
</a>
</g>
</g>
<!-- dir_677b030cc750909e4cd27413873678d8 -->
<g id="node6" class="node">
<title>dir_677b030cc750909e4cd27413873678d8</title>
<g id="a_node6"><a xlink:href="dir_677b030cc750909e4cd27413873678d8.html" target="_top" xlink:title="base">
<polygon fill="none" stroke="#ff0000" points="116.5,-108 62.5,-108 62.5,-72 116.5,-72 116.5,-108"/>
<text text-anchor="middle" x="89.5" y="-87.5" font-family="Helvetica,sans-Serif" font-size="10.00" fill="#000000">base</text>
</a>
</g>
</g>
<!-- dir_aa18e31672ad680cbed4898267bc1ea1&#45;&gt;dir_677b030cc750909e4cd27413873678d8 -->
<g id="edge8" class="edge">
<title>dir_aa18e31672ad680cbed4898267bc1ea1&#45;&gt;dir_677b030cc750909e4cd27413873678d8</title>
<path fill="none" stroke="#000000" d="M74.6531,-215.7623C77.5527,-191.201 82.7416,-147.2474 86.1526,-118.3541"/>
<polygon fill="#000000" stroke="#000000" points="89.6678,-118.431 87.3644,-108.0896 82.7161,-117.6103 89.6678,-118.431"/>
<g id="a_edge8&#45;headlabel"><a xlink:href="dir_000703_000059.html" target="_top" xlink:title="2">
<text text-anchor="middle" x="92.0661" y="-119.8337" font-family="Helvetica,sans-Serif" font-size="10.00" fill="#000000">2</text>
</a>
</g>
</g>
<!-- dir_2712d39f2537201a75009c421509bbae -->
<g id="node3" class="node">
<title>dir_2712d39f2537201a75009c421509bbae</title>
<g id="a_node3"><a xlink:href="dir_2712d39f2537201a75009c421509bbae.html" target="_top" xlink:title="run">
<polygon fill="#ffffff" stroke="#000000" points="171.5,-324 117.5,-324 117.5,-288 171.5,-288 171.5,-324"/>
<text text-anchor="middle" x="144.5" y="-303.5" font-family="Helvetica,sans-Serif" font-size="10.00" fill="#000000">run</text>
</a>
</g>
</g>
<!-- dir_75a22ffed9615d68d9baca3734fb0768 -->
<g id="node4" class="node">
<title>dir_75a22ffed9615d68d9baca3734fb0768</title>
<g id="a_node4"><a xlink:href="dir_75a22ffed9615d68d9baca3734fb0768.html" target="_top" xlink:title="src">
<polygon fill="#ffffff" stroke="#000000" points="99.5,-324 45.5,-324 45.5,-288 99.5,-288 99.5,-324"/>
<text text-anchor="middle" x="72.5" y="-303.5" font-family="Helvetica,sans-Serif" font-size="10.00" fill="#000000">src</text>
</a>
</g>
</g>
<!-- dir_75a22ffed9615d68d9baca3734fb0768&#45;&gt;dir_aa18e31672ad680cbed4898267bc1ea1 -->
<g id="edge2" class="edge">
<title>dir_75a22ffed9615d68d9baca3734fb0768&#45;&gt;dir_aa18e31672ad680cbed4898267bc1ea1</title>
<path fill="none" stroke="#000000" d="M72.5,-287.8314C72.5,-280.131 72.5,-270.9743 72.5,-262.4166"/>
<polygon fill="#000000" stroke="#000000" points="76.0001,-262.4132 72.5,-252.4133 69.0001,-262.4133 76.0001,-262.4132"/>
<g id="a_edge2&#45;headlabel"><a xlink:href="dir_000706_000703.html" target="_top" xlink:title="1">
<text text-anchor="middle" x="78.8393" y="-263.5079" font-family="Helvetica,sans-Serif" font-size="10.00" fill="#000000">1</text>
</a>
</g>
</g>
<!-- dir_75a22ffed9615d68d9baca3734fb0768&#45;&gt;dir_677b030cc750909e4cd27413873678d8 -->
<g id="edge1" class="edge">
<title>dir_75a22ffed9615d68d9baca3734fb0768&#45;&gt;dir_677b030cc750909e4cd27413873678d8</title>
<path fill="none" stroke="#000000" d="M88.4905,-287.9169C96.1538,-278.0371 104.5166,-265.1563 108.5,-252 122.2727,-206.5119 109.8197,-151.0372 99.6089,-118.2224"/>
<polygon fill="#000000" stroke="#000000" points="102.8358,-116.8285 96.4085,-108.4059 96.1805,-118.9983 102.8358,-116.8285"/>
<g id="a_edge1&#45;headlabel"><a xlink:href="dir_000706_000059.html" target="_top" xlink:title="4">
<text text-anchor="middle" x="106.6493" y="-116.866" font-family="Helvetica,sans-Serif" font-size="10.00" fill="#000000">4</text>
</a>
</g>
</g>
<!-- dir_2171f7ec022c5423887b07c69b2f5b48 -->
<g id="node7" class="node">
<title>dir_2171f7ec022c5423887b07c69b2f5b48</title>
<g id="a_node7"><a xlink:href="dir_2171f7ec022c5423887b07c69b2f5b48.html" target="_top" xlink:title="DataFormats">
<polygon fill="none" stroke="#ff0000" points="126.5,-36 52.5,-36 52.5,0 126.5,0 126.5,-36"/>
<text text-anchor="middle" x="89.5" y="-15.5" font-family="Helvetica,sans-Serif" font-size="10.00" fill="#000000">DataFormats</text>
</a>
</g>
</g>
<!-- dir_75a22ffed9615d68d9baca3734fb0768&#45;&gt;dir_2171f7ec022c5423887b07c69b2f5b48 -->
<g id="edge3" class="edge">
<title>dir_75a22ffed9615d68d9baca3734fb0768&#45;&gt;dir_2171f7ec022c5423887b07c69b2f5b48</title>
<path fill="none" stroke="#000000" d="M98.0052,-287.9627C108.9753,-278.6284 120.6145,-266.2089 126.5,-252 135.2298,-230.9244 145.4756,-137.0574 125.5,-72 122.5054,-62.2471 117.1255,-52.6379 111.4223,-44.2908"/>
<polygon fill="#000000" stroke="#000000" points="114.1674,-42.1149 105.4483,-36.0959 108.5109,-46.2385 114.1674,-42.1149"/>
<g id="a_edge3&#45;headlabel"><a xlink:href="dir_000706_000089.html" target="_top" xlink:title="1">
<text text-anchor="middle" x="118.5792" y="-40.847" font-family="Helvetica,sans-Serif" font-size="10.00" fill="#000000">1</text>
</a>
</g>
</g>
<!-- dir_4995562033b321477cfe3c34a14a5189&#45;&gt;dir_677b030cc750909e4cd27413873678d8 -->
<g id="edge4" class="edge">
<title>dir_4995562033b321477cfe3c34a14a5189&#45;&gt;dir_677b030cc750909e4cd27413873678d8</title>
<path fill="none" stroke="#000000" d="M45.3882,-143.8314C52.253,-135.454 60.5301,-125.3531 68.0511,-116.1749"/>
<polygon fill="#000000" stroke="#000000" points="70.7803,-118.3665 74.4114,-108.4133 65.3659,-113.9297 70.7803,-118.3665"/>
<g id="a_edge4&#45;headlabel"><a xlink:href="dir_000693_000059.html" target="_top" xlink:title="25">
<text text-anchor="middle" x="70.6981" y="-120.4464" font-family="Helvetica,sans-Serif" font-size="10.00" fill="#000000">25</text>
</a>
</g>
</g>
<!-- dir_4995562033b321477cfe3c34a14a5189&#45;&gt;dir_2171f7ec022c5423887b07c69b2f5b48 -->
<g id="edge5" class="edge">
<title>dir_4995562033b321477cfe3c34a14a5189&#45;&gt;dir_2171f7ec022c5423887b07c69b2f5b48</title>
<path fill="none" stroke="#000000" d="M33.2861,-143.8153C36.561,-125.2 42.9339,-95.7176 53.5,-72 57.7198,-62.5279 63.5581,-52.8874 69.3059,-44.4236"/>
<polygon fill="#000000" stroke="#000000" points="72.2839,-46.274 75.1914,-36.0859 66.5651,-42.2372 72.2839,-46.274"/>
<g id="a_edge5&#45;headlabel"><a xlink:href="dir_000693_000089.html" target="_top" xlink:title="23">
<text text-anchor="middle" x="72.5306" y="-48.348" font-family="Helvetica,sans-Serif" font-size="10.00" fill="#000000">23</text>
</a>
</g>
</g>
<!-- dir_677b030cc750909e4cd27413873678d8&#45;&gt;dir_2171f7ec022c5423887b07c69b2f5b48 -->
<g id="edge6" class="edge">
<title>dir_677b030cc750909e4cd27413873678d8&#45;&gt;dir_2171f7ec022c5423887b07c69b2f5b48</title>
<path fill="none" stroke="#000000" d="M89.5,-71.8314C89.5,-64.131 89.5,-54.9743 89.5,-46.4166"/>
<polygon fill="#000000" stroke="#000000" points="93.0001,-46.4132 89.5,-36.4133 86.0001,-46.4133 93.0001,-46.4132"/>
<g id="a_edge6&#45;headlabel"><a xlink:href="dir_000059_000089.html" target="_top" xlink:title="21">
<text text-anchor="middle" x="95.8393" y="-47.5079" font-family="Helvetica,sans-Serif" font-size="10.00" fill="#000000">21</text>
</a>
</g>
</g>
</g>
</svg>
