<?xml version="1.0" encoding="UTF-8" standalone="no"?>
<!DOCTYPE svg PUBLIC "-//W3C//DTD SVG 1.1//EN"
 "http://www.w3.org/Graphics/SVG/1.1/DTD/svg11.dtd">
<!-- Generated by graphviz version 2.40.1 (20161225.0304)
 -->
<!-- Title: /home/runner/work/AliceO2/AliceO2/DataFormats/Reconstruction Pages: 1 -->
<svg width="421pt" height="375pt"
 viewBox="0.00 0.00 420.61 375.00" xmlns="http://www.w3.org/2000/svg" xmlns:xlink="http://www.w3.org/1999/xlink">
<g id="graph0" class="graph" transform="scale(1 1) rotate(0) translate(4 371)">
<title>/home/runner/work/AliceO2/AliceO2/DataFormats/Reconstruction</title>
<g id="clust1" class="cluster">
<title>clusterdir_2171f7ec022c5423887b07c69b2f5b48</title>
<g id="a_clust1"><a xlink:href="dir_2171f7ec022c5423887b07c69b2f5b48.html" target="_top" xlink:title="DataFormats">
<polygon fill="#ddddee" stroke="#000000" points="8,-200 8,-359 268,-359 268,-200 8,-200"/>
<text text-anchor="middle" x="138" y="-347" font-family="Helvetica,sans-Serif" font-size="10.00" fill="#000000">DataFormats</text>
</a>
</g>
</g>
<g id="clust2" class="cluster">
<title>clusterdir_d269712cc31e133b892a3b3f6424741a</title>
<g id="a_clust2"><a xlink:href="dir_d269712cc31e133b892a3b3f6424741a.html" target="_top">
<polygon fill="#eeeeff" stroke="#000000" points="16,-208 16,-332 260,-332 260,-208 16,-208"/>
</a>
</g>
</g>
<!-- dir_d269712cc31e133b892a3b3f6424741a -->
<g id="node1" class="node">
<title>dir_d269712cc31e133b892a3b3f6424741a</title>
<text text-anchor="middle" x="210" y="-303.5" font-family="Helvetica,sans-Serif" font-size="10.00" fill="#000000">Reconstruction</text>
</g>
<!-- dir_99c43ad88135ecdb15d6d5c818628268 -->
<g id="node2" class="node">
<title>dir_99c43ad88135ecdb15d6d5c818628268</title>
<g id="a_node2"><a xlink:href="dir_99c43ad88135ecdb15d6d5c818628268.html" target="_top" xlink:title="include">
<polygon fill="#ffffff" stroke="#ff0000" points="122,-252 68,-252 68,-216 122,-216 122,-252"/>
<text text-anchor="middle" x="95" y="-231.5" font-family="Helvetica,sans-Serif" font-size="10.00" fill="#000000">include</text>
</a>
</g>
</g>
<!-- dir_4ab6b4cc6a7edbff49100e9123df213f -->
<g id="node5" class="node">
<title>dir_4ab6b4cc6a7edbff49100e9123df213f</title>
<g id="a_node5"><a xlink:href="dir_4ab6b4cc6a7edbff49100e9123df213f.html" target="_top" xlink:title="Common">
<polygon fill="none" stroke="#ff0000" points="332,-252 276,-252 276,-216 332,-216 332,-252"/>
<text text-anchor="middle" x="304" y="-231.5" font-family="Helvetica,sans-Serif" font-size="10.00" fill="#000000">Common</text>
</a>
</g>
</g>
<!-- dir_99c43ad88135ecdb15d6d5c818628268&#45;&gt;dir_4ab6b4cc6a7edbff49100e9123df213f -->
<g id="edge19" class="edge">
<title>dir_99c43ad88135ecdb15d6d5c818628268&#45;&gt;dir_4ab6b4cc6a7edbff49100e9123df213f</title>
<path fill="none" stroke="#000000" d="M122.3496,-234C170.1566,-234 217.9635,-234 265.7704,-234"/>
<polygon fill="#000000" stroke="#000000" points="265.9719,-237.5001 275.9719,-234 265.9719,-230.5001 265.9719,-237.5001"/>
<g id="a_edge19&#45;headlabel"><a xlink:href="dir_000254_000035.html" target="_top" xlink:title="9">
<text text-anchor="middle" x="262.3773" y="-237.8393" font-family="Helvetica,sans-Serif" font-size="10.00" fill="#000000">9</text>
</a>
</g>
</g>
<!-- dir_2801adc79bf3c286b1b479858d2cade4 -->
<g id="node6" class="node">
<title>dir_2801adc79bf3c286b1b479858d2cade4</title>
<g id="a_node6"><a xlink:href="dir_2801adc79bf3c286b1b479858d2cade4.html" target="_top" xlink:title="Detectors">
<polygon fill="none" stroke="#ff0000" points="275.5,-180 216.5,-180 216.5,-144 275.5,-144 275.5,-180"/>
<text text-anchor="middle" x="246" y="-159.5" font-family="Helvetica,sans-Serif" font-size="10.00" fill="#000000">Detectors</text>
</a>
</g>
</g>
<!-- dir_99c43ad88135ecdb15d6d5c818628268&#45;&gt;dir_2801adc79bf3c286b1b479858d2cade4 -->
<g id="edge20" class="edge">
<title>dir_99c43ad88135ecdb15d6d5c818628268&#45;&gt;dir_2801adc79bf3c286b1b479858d2cade4</title>
<path fill="none" stroke="#000000" d="M122.0863,-218.3771C145.7757,-206.4056 180.2725,-189.9515 206.9227,-177.9093"/>
<polygon fill="#000000" stroke="#000000" points="208.6543,-180.9689 216.3517,-173.6888 205.7944,-174.5798 208.6543,-180.9689"/>
<g id="a_edge20&#45;headlabel"><a xlink:href="dir_000254_000103.html" target="_top" xlink:title="1">
<text text-anchor="middle" x="206.5333" y="-182.5289" font-family="Helvetica,sans-Serif" font-size="10.00" fill="#000000">1</text>
</a>
</g>
</g>
<!-- dir_7924ba4398ae4560cd37376e44666c6d -->
<g id="node7" class="node">
<title>dir_7924ba4398ae4560cd37376e44666c6d</title>
<g id="a_node7"><a xlink:href="dir_7924ba4398ae4560cd37376e44666c6d.html" target="_top" xlink:title="common">
<polygon fill="none" stroke="#ff0000" points="207,-108 153,-108 153,-72 207,-72 207,-108"/>
<text text-anchor="middle" x="180" y="-87.5" font-family="Helvetica,sans-Serif" font-size="10.00" fill="#000000">common</text>
</a>
</g>
</g>
<!-- dir_99c43ad88135ecdb15d6d5c818628268&#45;&gt;dir_7924ba4398ae4560cd37376e44666c6d -->
<g id="edge21" class="edge">
<title>dir_99c43ad88135ecdb15d6d5c818628268&#45;&gt;dir_7924ba4398ae4560cd37376e44666c6d</title>
<path fill="none" stroke="#000000" d="M101.7243,-215.7195C108.9622,-197.0279 121.4196,-167.4858 136,-144 141.9937,-134.3455 149.5157,-124.5028 156.6364,-115.911"/>
<polygon fill="#000000" stroke="#000000" points="159.4642,-117.9885 163.2775,-108.1037 154.1323,-113.453 159.4642,-117.9885"/>
<g id="a_edge21&#45;headlabel"><a xlink:href="dir_000254_000094.html" target="_top" xlink:title="6">
<text text-anchor="middle" x="159.2978" y="-120.0661" font-family="Helvetica,sans-Serif" font-size="10.00" fill="#000000">6</text>
</a>
</g>
</g>
<!-- dir_f511f1e9c03c071966ae594f00bbc5e0 -->
<g id="node8" class="node">
<title>dir_f511f1e9c03c071966ae594f00bbc5e0</title>
<g id="a_node8"><a xlink:href="dir_f511f1e9c03c071966ae594f00bbc5e0.html" target="_top" xlink:title="GPU">
<polygon fill="none" stroke="#ff0000" points="271,-36 217,-36 217,0 271,0 271,-36"/>
<text text-anchor="middle" x="244" y="-15.5" font-family="Helvetica,sans-Serif" font-size="10.00" fill="#000000">GPU</text>
</a>
</g>
</g>
<!-- dir_99c43ad88135ecdb15d6d5c818628268&#45;&gt;dir_f511f1e9c03c071966ae594f00bbc5e0 -->
<g id="edge22" class="edge">
<title>dir_99c43ad88135ecdb15d6d5c818628268&#45;&gt;dir_f511f1e9c03c071966ae594f00bbc5e0</title>
<path fill="none" stroke="#000000" d="M95.4983,-215.9365C97.3613,-183.0904 105.8706,-113.1808 144,-72 161.2427,-53.3774 186.4042,-39.836 207.1738,-30.971"/>
<polygon fill="#000000" stroke="#000000" points="208.7193,-34.1208 216.6622,-27.1094 206.0806,-27.6372 208.7193,-34.1208"/>
<g id="a_edge22&#45;headlabel"><a xlink:href="dir_000254_000783.html" target="_top" xlink:title="7">
<text text-anchor="middle" x="206.4601" y="-35.6056" font-family="Helvetica,sans-Serif" font-size="10.00" fill="#000000">7</text>
</a>
</g>
</g>
<!-- dir_46bf9eb01275b6b66c6fbadfa4838276 -->
<g id="node3" class="node">
<title>dir_46bf9eb01275b6b66c6fbadfa4838276</title>
<g id="a_node3"><a xlink:href="dir_46bf9eb01275b6b66c6fbadfa4838276.html" target="_top" xlink:title="src">
<polygon fill="#ffffff" stroke="#000000" points="150,-324 96,-324 96,-288 150,-288 150,-324"/>
<text text-anchor="middle" x="123" y="-303.5" font-family="Helvetica,sans-Serif" font-size="10.00" fill="#000000">src</text>
</a>
</g>
</g>
<!-- dir_46bf9eb01275b6b66c6fbadfa4838276&#45;&gt;dir_99c43ad88135ecdb15d6d5c818628268 -->
<g id="edge6" class="edge">
<title>dir_46bf9eb01275b6b66c6fbadfa4838276&#45;&gt;dir_99c43ad88135ecdb15d6d5c818628268</title>
<path fill="none" stroke="#000000" d="M115.9344,-287.8314C112.874,-279.9617 109.2221,-270.5712 105.8318,-261.8533"/>
<polygon fill="#000000" stroke="#000000" points="109.0473,-260.4647 102.1607,-252.4133 102.5232,-263.0019 109.0473,-260.4647"/>
<g id="a_edge6&#45;headlabel"><a xlink:href="dir_000286_000254.html" target="_top" xlink:title="18">
<text text-anchor="middle" x="112.9963" y="-260.2859" font-family="Helvetica,sans-Serif" font-size="10.00" fill="#000000">18</text>
</a>
</g>
</g>
<!-- dir_46bf9eb01275b6b66c6fbadfa4838276&#45;&gt;dir_4ab6b4cc6a7edbff49100e9123df213f -->
<g id="edge5" class="edge">
<title>dir_46bf9eb01275b6b66c6fbadfa4838276&#45;&gt;dir_4ab6b4cc6a7edbff49100e9123df213f</title>
<path fill="none" stroke="#000000" d="M150.3125,-292.2618C153.5522,-290.7667 156.8326,-289.3131 160,-288 205.184,-269.2676 218.5408,-270.0542 264,-252 264.7166,-251.7154 265.4391,-251.4252 266.1658,-251.1302"/>
<polygon fill="#000000" stroke="#000000" points="267.8717,-254.2094 275.7271,-247.1001 265.1528,-247.759 267.8717,-254.2094"/>
<g id="a_edge5&#45;headlabel"><a xlink:href="dir_000286_000035.html" target="_top" xlink:title="2">
<text text-anchor="middle" x="265.6621" y="-255.7219" font-family="Helvetica,sans-Serif" font-size="10.00" fill="#000000">2</text>
</a>
</g>
</g>
<!-- dir_46bf9eb01275b6b66c6fbadfa4838276&#45;&gt;dir_f511f1e9c03c071966ae594f00bbc5e0 -->
<g id="edge7" class="edge">
<title>dir_46bf9eb01275b6b66c6fbadfa4838276&#45;&gt;dir_f511f1e9c03c071966ae594f00bbc5e0</title>
<path fill="none" stroke="#000000" d="M150.128,-291.7622C153.4008,-290.3568 156.7394,-289.0609 160,-288 246.7175,-259.7842 297.8799,-316.8434 362,-252 418.669,-194.6918 429.5962,-138.4575 384,-72 371.9766,-54.4757 318.4102,-37.3542 281.1392,-27.2406"/>
<polygon fill="#000000" stroke="#000000" points="281.6702,-23.7604 271.107,-24.5793 279.8753,-30.5264 281.6702,-23.7604"/>
<g id="a_edge7&#45;headlabel"><a xlink:href="dir_000286_000783.html" target="_top" xlink:title="2">
<text text-anchor="middle" x="285.8726" y="-19.4377" font-family="Helvetica,sans-Serif" font-size="10.00" fill="#000000">2</text>
</a>
</g>
</g>
<!-- dir_bcbb2cf9a3d3d83e5515c82071a07177 -->
<g id="node9" class="node">
<title>dir_bcbb2cf9a3d3d83e5515c82071a07177</title>
<g id="a_node9"><a xlink:href="dir_bcbb2cf9a3d3d83e5515c82071a07177.html" target="_top" xlink:title="Framework">
<polygon fill="none" stroke="#ff0000" points="346.5,-108 281.5,-108 281.5,-72 346.5,-72 346.5,-108"/>
<text text-anchor="middle" x="314" y="-87.5" font-family="Helvetica,sans-Serif" font-size="10.00" fill="#000000">Framework</text>
</a>
</g>
</g>
<!-- dir_46bf9eb01275b6b66c6fbadfa4838276&#45;&gt;dir_bcbb2cf9a3d3d83e5515c82071a07177 -->
<g id="edge8" class="edge">
<title>dir_46bf9eb01275b6b66c6fbadfa4838276&#45;&gt;dir_bcbb2cf9a3d3d83e5515c82071a07177</title>
<path fill="none" stroke="#000000" d="M150.1493,-291.8266C153.4182,-290.4096 156.7502,-289.0934 160,-288 237.7381,-261.8448 288.9664,-315.402 341,-252 372.4975,-213.6208 348.6545,-152.5011 330.1827,-117.3332"/>
<polygon fill="#000000" stroke="#000000" points="333.0292,-115.2429 325.1655,-108.1426 326.8851,-118.597 333.0292,-115.2429"/>
<g id="a_edge8&#45;headlabel"><a xlink:href="dir_000286_000062.html" target="_top" xlink:title="2">
<text text-anchor="middle" x="337.2436" y="-114.5376" font-family="Helvetica,sans-Serif" font-size="10.00" fill="#000000">2</text>
</a>
</g>
</g>
<!-- dir_c5b7346fd504360471cc9fe5be83ae72 -->
<g id="node4" class="node">
<title>dir_c5b7346fd504360471cc9fe5be83ae72</title>
<g id="a_node4"><a xlink:href="dir_c5b7346fd504360471cc9fe5be83ae72.html" target="_top" xlink:title="test">
<polygon fill="#ffffff" stroke="#000000" points="78,-324 24,-324 24,-288 78,-288 78,-324"/>
<text text-anchor="middle" x="51" y="-303.5" font-family="Helvetica,sans-Serif" font-size="10.00" fill="#000000">test</text>
</a>
</g>
</g>
<!-- dir_c5b7346fd504360471cc9fe5be83ae72&#45;&gt;dir_99c43ad88135ecdb15d6d5c818628268 -->
<g id="edge18" class="edge">
<title>dir_c5b7346fd504360471cc9fe5be83ae72&#45;&gt;dir_99c43ad88135ecdb15d6d5c818628268</title>
<path fill="none" stroke="#000000" d="M62.1031,-287.8314C67.0674,-279.7079 73.0222,-269.9637 78.4928,-261.0118"/>
<polygon fill="#000000" stroke="#000000" points="81.5194,-262.7712 83.7474,-252.4133 75.5464,-259.121 81.5194,-262.7712"/>
<g id="a_edge18&#45;headlabel"><a xlink:href="dir_000288_000254.html" target="_top" xlink:title="4">
<text text-anchor="middle" x="82.0677" y="-264.8189" font-family="Helvetica,sans-Serif" font-size="10.00" fill="#000000">4</text>
</a>
</g>
</g>
<!-- dir_c5b7346fd504360471cc9fe5be83ae72&#45;&gt;dir_4ab6b4cc6a7edbff49100e9123df213f -->
<g id="edge16" class="edge">
<title>dir_c5b7346fd504360471cc9fe5be83ae72&#45;&gt;dir_4ab6b4cc6a7edbff49100e9123df213f</title>
<path fill="none" stroke="#000000" d="M78.1953,-291.4751C81.1226,-290.1922 84.0935,-289.0026 87,-288 162.8896,-261.8235 187.5923,-276.6233 264,-252 264.7339,-251.7635 265.4723,-251.5176 266.2137,-251.2633"/>
<polygon fill="#000000" stroke="#000000" points="267.7969,-254.4058 275.8993,-247.5792 265.3082,-247.8631 267.7969,-254.4058"/>
<g id="a_edge16&#45;headlabel"><a xlink:href="dir_000288_000035.html" target="_top" xlink:title="1">
<text text-anchor="middle" x="265.4465" y="-255.8374" font-family="Helvetica,sans-Serif" font-size="10.00" fill="#000000">1</text>
</a>
</g>
</g>
<!-- dir_c5b7346fd504360471cc9fe5be83ae72&#45;&gt;dir_7924ba4398ae4560cd37376e44666c6d -->
<g id="edge17" class="edge">
<title>dir_c5b7346fd504360471cc9fe5be83ae72&#45;&gt;dir_7924ba4398ae4560cd37376e44666c6d</title>
<path fill="none" stroke="#000000" d="M78.1837,-290.3588C98.3973,-278.2465 123.6905,-261.9127 131,-252 160.8191,-211.5615 172.6645,-152.8679 177.2433,-118.3477"/>
<polygon fill="#000000" stroke="#000000" points="180.7635,-118.3907 178.4882,-108.0431 173.814,-117.5511 180.7635,-118.3907"/>
<g id="a_edge17&#45;headlabel"><a xlink:href="dir_000288_000094.html" target="_top" xlink:title="1">
<text text-anchor="middle" x="183.1513" y="-119.7998" font-family="Helvetica,sans-Serif" font-size="10.00" fill="#000000">1</text>
</a>
</g>
</g>
<!-- dir_4ab6b4cc6a7edbff49100e9123df213f&#45;&gt;dir_99c43ad88135ecdb15d6d5c818628268 -->
<g id="edge2" class="edge">
<title>dir_4ab6b4cc6a7edbff49100e9123df213f&#45;&gt;dir_99c43ad88135ecdb15d6d5c818628268</title>
<path fill="none" stroke="#000000" d="M275.9719,-234C228.165,-234 180.358,-234 132.5511,-234"/>
<polygon fill="#000000" stroke="#000000" points="132.3496,-230.5001 122.3496,-234 132.3496,-237.5001 132.3496,-230.5001"/>
<g id="a_edge2&#45;headlabel"><a xlink:href="dir_000035_000254.html" target="_top" xlink:title="1">
<text text-anchor="middle" x="135.9442" y="-225.1607" font-family="Helvetica,sans-Serif" font-size="10.00" fill="#000000">1</text>
</a>
</g>
</g>
<!-- dir_4ab6b4cc6a7edbff49100e9123df213f&#45;&gt;dir_2801adc79bf3c286b1b479858d2cade4 -->
<g id="edge1" class="edge">
<title>dir_4ab6b4cc6a7edbff49100e9123df213f&#45;&gt;dir_2801adc79bf3c286b1b479858d2cade4</title>
<path fill="none" stroke="#000000" d="M283.4118,-215.8314C275.9998,-207.6232 267.8566,-197.7606 260.9872,-188.7323"/>
<polygon fill="#000000" stroke="#000000" points="263.6069,-186.3873 254.8569,-180.4133 257.9716,-190.5399 263.6069,-186.3873"/>
<g id="a_edge1&#45;headlabel"><a xlink:href="dir_000035_000103.html" target="_top" xlink:title="1">
<text text-anchor="middle" x="268.025" y="-185.0967" font-family="Helvetica,sans-Serif" font-size="10.00" fill="#000000">1</text>
</a>
</g>
</g>
<!-- dir_4ab6b4cc6a7edbff49100e9123df213f&#45;&gt;dir_f511f1e9c03c071966ae594f00bbc5e0 -->
<g id="edge3" class="edge">
<title>dir_4ab6b4cc6a7edbff49100e9123df213f&#45;&gt;dir_f511f1e9c03c071966ae594f00bbc5e0</title>
<path fill="none" stroke="#000000" d="M313.8737,-215.736C334.646,-184.3509 376.5341,-119.0272 347,-72 332.2332,-48.4868 304.0312,-34.9694 280.7642,-27.3391"/>
<polygon fill="#000000" stroke="#000000" points="281.734,-23.9758 271.1483,-24.4174 279.6989,-30.6735 281.734,-23.9758"/>
<g id="a_edge3&#45;headlabel"><a xlink:href="dir_000035_000783.html" target="_top" xlink:title="11">
<text text-anchor="middle" x="285.9987" y="-19.8041" font-family="Helvetica,sans-Serif" font-size="10.00" fill="#000000">11</text>
</a>
</g>
</g>
<!-- dir_4ab6b4cc6a7edbff49100e9123df213f&#45;&gt;dir_bcbb2cf9a3d3d83e5515c82071a07177 -->
<g id="edge4" class="edge">
<title>dir_4ab6b4cc6a7edbff49100e9123df213f&#45;&gt;dir_bcbb2cf9a3d3d83e5515c82071a07177</title>
<path fill="none" stroke="#000000" d="M300.5933,-215.7623C299.8392,-191.201 302.6168,-147.2474 306.5335,-118.3541"/>
<polygon fill="#000000" stroke="#000000" points="310.0511,-118.5005 308.0855,-108.0896 303.1298,-117.454 310.0511,-118.5005"/>
<g id="a_edge4&#45;headlabel"><a xlink:href="dir_000035_000062.html" target="_top" xlink:title="2">
<text text-anchor="middle" x="312.3212" y="-119.9792" font-family="Helvetica,sans-Serif" font-size="10.00" fill="#000000">2</text>
</a>
</g>
</g>
<!-- dir_2801adc79bf3c286b1b479858d2cade4&#45;&gt;dir_99c43ad88135ecdb15d6d5c818628268 -->
<g id="edge11" class="edge">
<title>dir_2801adc79bf3c286b1b479858d2cade4&#45;&gt;dir_99c43ad88135ecdb15d6d5c818628268</title>
<path fill="none" stroke="#000000" d="M216.2677,-178.9562C191.8826,-191.2084 157.4322,-207.5934 131.4082,-219.2938"/>
<polygon fill="#000000" stroke="#000000" points="129.9487,-216.1123 122.236,-223.3762 132.7951,-222.5075 129.9487,-216.1123"/>
<g id="a_edge11&#45;headlabel"><a xlink:href="dir_000103_000254.html" target="_top" xlink:title="6">
<text text-anchor="middle" x="132.0783" y="-209.5567" font-family="Helvetica,sans-Serif" font-size="10.00" fill="#000000">6</text>
</a>
</g>
</g>
<!-- dir_2801adc79bf3c286b1b479858d2cade4&#45;&gt;dir_4ab6b4cc6a7edbff49100e9123df213f -->
<g id="edge9" class="edge">
<title>dir_2801adc79bf3c286b1b479858d2cade4&#45;&gt;dir_4ab6b4cc6a7edbff49100e9123df213f</title>
<path fill="none" stroke="#000000" d="M266.8089,-180.4133C274.2352,-188.654 282.3728,-198.5245 289.2167,-207.536"/>
<polygon fill="#000000" stroke="#000000" points="286.5727,-209.8484 295.3165,-215.8314 292.2122,-205.7015 286.5727,-209.8484"/>
<g id="a_edge9&#45;headlabel"><a xlink:href="dir_000103_000035.html" target="_top" xlink:title="16">
<text text-anchor="middle" x="282.1558" y="-206.1345" font-family="Helvetica,sans-Serif" font-size="10.00" fill="#000000">16</text>
</a>
</g>
</g>
<!-- dir_2801adc79bf3c286b1b479858d2cade4&#45;&gt;dir_7924ba4398ae4560cd37376e44666c6d -->
<g id="edge10" class="edge">
<title>dir_2801adc79bf3c286b1b479858d2cade4&#45;&gt;dir_7924ba4398ae4560cd37376e44666c6d</title>
<path fill="none" stroke="#000000" d="M229.3454,-143.8314C221.5886,-135.3694 212.2198,-125.1489 203.739,-115.8971"/>
<polygon fill="#000000" stroke="#000000" points="206.2162,-113.4198 196.8788,-108.4133 201.0561,-118.1499 206.2162,-113.4198"/>
<g id="a_edge10&#45;headlabel"><a xlink:href="dir_000103_000094.html" target="_top" xlink:title="48">
<text text-anchor="middle" x="210.7381" y="-111.651" font-family="Helvetica,sans-Serif" font-size="10.00" fill="#000000">48</text>
</a>
</g>
</g>
<!-- dir_2801adc79bf3c286b1b479858d2cade4&#45;&gt;dir_f511f1e9c03c071966ae594f00bbc5e0 -->
<g id="edge12" class="edge">
<title>dir_2801adc79bf3c286b1b479858d2cade4&#45;&gt;dir_f511f1e9c03c071966ae594f00bbc5e0</title>
<path fill="none" stroke="#000000" d="M241.0735,-143.7623C238.2726,-119.201 237.3874,-75.2474 238.8964,-46.3541"/>
<polygon fill="#000000" stroke="#000000" points="242.4078,-46.3037 239.593,-36.0896 235.4238,-45.8297 242.4078,-46.3037"/>
<g id="a_edge12&#45;headlabel"><a xlink:href="dir_000103_000783.html" target="_top" xlink:title="10">
<text text-anchor="middle" x="244.9972" y="-47.5822" font-family="Helvetica,sans-Serif" font-size="10.00" fill="#000000">10</text>
</a>
</g>
</g>
<!-- dir_2801adc79bf3c286b1b479858d2cade4&#45;&gt;dir_bcbb2cf9a3d3d83e5515c82071a07177 -->
<g id="edge13" class="edge">
<title>dir_2801adc79bf3c286b1b479858d2cade4&#45;&gt;dir_bcbb2cf9a3d3d83e5515c82071a07177</title>
<path fill="none" stroke="#000000" d="M257.2069,-143.8314C264.5015,-135.219 274.1788,-124.7851 283.5234,-115.4048"/>
<polygon fill="#000000" stroke="#000000" points="286.2141,-117.6679 290.8944,-108.1628 281.3082,-112.6746 286.2141,-117.6679"/>
<g id="a_edge13&#45;headlabel"><a xlink:href="dir_000103_000062.html" target="_top" xlink:title="18">
<text text-anchor="middle" x="285.6399" y="-119.7124" font-family="Helvetica,sans-Serif" font-size="10.00" fill="#000000">18</text>
</a>
</g>
</g>
<!-- dir_7924ba4398ae4560cd37376e44666c6d&#45;&gt;dir_4ab6b4cc6a7edbff49100e9123df213f -->
<g id="edge14" class="edge">
<title>dir_7924ba4398ae4560cd37376e44666c6d&#45;&gt;dir_4ab6b4cc6a7edbff49100e9123df213f</title>
<path fill="none" stroke="#000000" d="M180.9758,-108.2818C183.0039,-128.3755 189.1941,-160.3988 208,-180 226.297,-199.0707 241.1143,-186.782 264,-200 268.617,-202.6666 273.2127,-205.89 277.5557,-209.2764"/>
<polygon fill="#000000" stroke="#000000" points="275.6013,-212.2023 285.5352,-215.886 280.0667,-206.8115 275.6013,-212.2023"/>
<g id="a_edge14&#45;headlabel"><a xlink:href="dir_000094_000035.html" target="_top" xlink:title="2">
<text text-anchor="middle" x="271.0219" y="-209.5959" font-family="Helvetica,sans-Serif" font-size="10.00" fill="#000000">2</text>
</a>
</g>
</g>
<!-- dir_7924ba4398ae4560cd37376e44666c6d&#45;&gt;dir_f511f1e9c03c071966ae594f00bbc5e0 -->
<g id="edge15" class="edge">
<title>dir_7924ba4398ae4560cd37376e44666c6d&#45;&gt;dir_f511f1e9c03c071966ae594f00bbc5e0</title>
<path fill="none" stroke="#000000" d="M196.1499,-71.8314C203.6717,-63.3694 212.7565,-53.1489 220.9804,-43.8971"/>
<polygon fill="#000000" stroke="#000000" points="223.6049,-46.2127 227.6327,-36.4133 218.373,-41.5621 223.6049,-46.2127"/>
<g id="a_edge15&#45;headlabel"><a xlink:href="dir_000094_000783.html" target="_top" xlink:title="4">
<text text-anchor="middle" x="223.3389" y="-48.2856" font-family="Helvetica,sans-Serif" font-size="10.00" fill="#000000">4</text>
</a>
</g>
</g>
<!-- dir_f511f1e9c03c071966ae594f00bbc5e0&#45;&gt;dir_99c43ad88135ecdb15d6d5c818628268 -->
<g id="edge25" class="edge">
<title>dir_f511f1e9c03c071966ae594f00bbc5e0&#45;&gt;dir_99c43ad88135ecdb15d6d5c818628268</title>
<path fill="none" stroke="#000000" d="M216.9386,-22.2901C187.8563,-28.3204 142.2786,-42.1142 116,-72 83.5843,-108.8652 85.4035,-169.9402 89.9816,-205.6323"/>
<polygon fill="#000000" stroke="#000000" points="86.5622,-206.4426 91.4561,-215.8394 93.4903,-205.4417 86.5622,-206.4426"/>
<g id="a_edge25&#45;headlabel"><a xlink:href="dir_000783_000254.html" target="_top" xlink:title="1">
<text text-anchor="middle" x="83.2383" y="-200.7908" font-family="Helvetica,sans-Serif" font-size="10.00" fill="#000000">1</text>
</a>
</g>
</g>
<!-- dir_f511f1e9c03c071966ae594f00bbc5e0&#45;&gt;dir_4ab6b4cc6a7edbff49100e9123df213f -->
<g id="edge23" class="edge">
<title>dir_f511f1e9c03c071966ae594f00bbc5e0&#45;&gt;dir_4ab6b4cc6a7edbff49100e9123df213f</title>
<path fill="none" stroke="#000000" d="M271.1374,-21.2814C300.4616,-26.6763 345.0239,-40.192 365,-72 392.2267,-115.3532 358.7551,-174.2558 331.4994,-207.7836"/>
<polygon fill="#000000" stroke="#000000" points="328.551,-205.8485 324.7447,-215.736 333.8861,-210.3802 328.551,-205.8485"/>
<g id="a_edge23&#45;headlabel"><a xlink:href="dir_000783_000035.html" target="_top" xlink:title="4">
<text text-anchor="middle" x="328.714" y="-198.7707" font-family="Helvetica,sans-Serif" font-size="10.00" fill="#000000">4</text>
</a>
</g>
</g>
<!-- dir_f511f1e9c03c071966ae594f00bbc5e0&#45;&gt;dir_2801adc79bf3c286b1b479858d2cade4 -->
<g id="edge24" class="edge">
<title>dir_f511f1e9c03c071966ae594f00bbc5e0&#45;&gt;dir_2801adc79bf3c286b1b479858d2cade4</title>
<path fill="none" stroke="#000000" d="M248.9095,-36.0896C251.7182,-60.5727 252.6121,-104.5174 251.1127,-133.4713"/>
<polygon fill="#000000" stroke="#000000" points="247.5996,-133.5498 250.4199,-143.7623 254.5838,-134.02 247.5996,-133.5498"/>
<g id="a_edge24&#45;headlabel"><a xlink:href="dir_000783_000103.html" target="_top" xlink:title="14">
<text text-anchor="middle" x="245.0081" y="-127.2726" font-family="Helvetica,sans-Serif" font-size="10.00" fill="#000000">14</text>
</a>
</g>
</g>
<!-- dir_bcbb2cf9a3d3d83e5515c82071a07177&#45;&gt;dir_4ab6b4cc6a7edbff49100e9123df213f -->
<g id="edge26" class="edge">
<title>dir_bcbb2cf9a3d3d83e5515c82071a07177&#45;&gt;dir_4ab6b4cc6a7edbff49100e9123df213f</title>
<path fill="none" stroke="#000000" d="M317.4021,-108.0896C318.1738,-132.6805 315.3778,-176.905 311.4383,-205.8531"/>
<polygon fill="#000000" stroke="#000000" points="307.9745,-205.3513 309.9397,-215.7623 314.8958,-206.3981 307.9745,-205.3513"/>
<g id="a_edge26&#45;headlabel"><a xlink:href="dir_000062_000035.html" target="_top" xlink:title="8">
<text text-anchor="middle" x="305.7046" y="-198.8726" font-family="Helvetica,sans-Serif" font-size="10.00" fill="#000000">8</text>
</a>
</g>
</g>
<!-- dir_bcbb2cf9a3d3d83e5515c82071a07177&#45;&gt;dir_2801adc79bf3c286b1b479858d2cade4 -->
<g id="edge27" class="edge">
<title>dir_bcbb2cf9a3d3d83e5515c82071a07177&#45;&gt;dir_2801adc79bf3c286b1b479858d2cade4</title>
<path fill="none" stroke="#000000" d="M302.5857,-108.4133C295.3024,-116.9938 285.6978,-127.3414 276.4257,-136.6463"/>
<polygon fill="#000000" stroke="#000000" points="273.7926,-134.3266 269.1117,-143.8314 278.6981,-139.3202 273.7926,-134.3266"/>
<g id="a_edge27&#45;headlabel"><a xlink:href="dir_000062_000103.html" target="_top" xlink:title="2">
<text text-anchor="middle" x="274.3671" y="-127.2822" font-family="Helvetica,sans-Serif" font-size="10.00" fill="#000000">2</text>
</a>
</g>
</g>
</g>
</svg>
