<?xml version="1.0" encoding="UTF-8" standalone="no"?>
<!DOCTYPE svg PUBLIC "-//W3C//DTD SVG 1.1//EN"
 "http://www.w3.org/Graphics/SVG/1.1/DTD/svg11.dtd">
<!-- Generated by graphviz version 2.40.1 (20161225.0304)
 -->
<!-- Title: /home/runner/work/AliceO2/AliceO2/Detectors/MUON/MCH Pages: 1 -->
<svg width="720pt" height="591pt"
 viewBox="0.00 0.00 720.00 591.00" xmlns="http://www.w3.org/2000/svg" xmlns:xlink="http://www.w3.org/1999/xlink">
<g id="graph0" class="graph" transform="scale(1 1) rotate(0) translate(4 587)">
<title>/home/runner/work/AliceO2/AliceO2/Detectors/MUON/MCH</title>
<g id="clust1" class="cluster">
<title>clusterdir_1cc233fd3b1202b9dad36810b41b97af</title>
<g id="a_clust1"><a xlink:href="dir_1cc233fd3b1202b9dad36810b41b97af.html" target="_top" xlink:title="MUON">
<polygon fill="#ddddee" stroke="#000000" points="222,-200 222,-575 582,-575 582,-200 222,-200"/>
<text text-anchor="middle" x="402" y="-563" font-family="Helvetica,sans-Serif" font-size="10.00" fill="#000000">MUON</text>
</a>
</g>
</g>
<g id="clust2" class="cluster">
<title>clusterdir_061f7088060f41729027f6c2fce0273e</title>
<g id="a_clust2"><a xlink:href="dir_061f7088060f41729027f6c2fce0273e.html" target="_top">
<polygon fill="#eeeeff" stroke="#000000" points="230,-208 230,-548 574,-548 574,-208 230,-208"/>
</a>
</g>
</g>
<!-- dir_061f7088060f41729027f6c2fce0273e -->
<g id="node1" class="node">
<title>dir_061f7088060f41729027f6c2fce0273e</title>
<text text-anchor="middle" x="487" y="-519.5" font-family="Helvetica,sans-Serif" font-size="10.00" fill="#000000">MCH</text>
</g>
<!-- dir_1155c84989a046e7de4bf0156dc4b34c -->
<g id="node2" class="node">
<title>dir_1155c84989a046e7de4bf0156dc4b34c</title>
<g id="a_node2"><a xlink:href="dir_1155c84989a046e7de4bf0156dc4b34c.html" target="_top" xlink:title="Base">
<polygon fill="#ffffff" stroke="#ff0000" points="306,-324 252,-324 252,-288 306,-288 306,-324"/>
<text text-anchor="middle" x="279" y="-303.5" font-family="Helvetica,sans-Serif" font-size="10.00" fill="#000000">Base</text>
</a>
</g>
</g>
<!-- dir_888858b226b7bc70f7e8b18d57d75108 -->
<g id="node3" class="node">
<title>dir_888858b226b7bc70f7e8b18d57d75108</title>
<g id="a_node3"><a xlink:href="dir_888858b226b7bc70f7e8b18d57d75108.html" target="_top" xlink:title="Clustering">
<polygon fill="#ffffff" stroke="#ff0000" points="391.5,-468 330.5,-468 330.5,-432 391.5,-432 391.5,-468"/>
<text text-anchor="middle" x="361" y="-447.5" font-family="Helvetica,sans-Serif" font-size="10.00" fill="#000000">Clustering</text>
</a>
</g>
</g>
<!-- dir_888858b226b7bc70f7e8b18d57d75108&#45;&gt;dir_1155c84989a046e7de4bf0156dc4b34c -->
<g id="edge12" class="edge">
<title>dir_888858b226b7bc70f7e8b18d57d75108&#45;&gt;dir_1155c84989a046e7de4bf0156dc4b34c</title>
<path fill="none" stroke="#000000" d="M330.2421,-434.7084C315.2501,-425.5924 298.4548,-412.5525 289,-396 278.3752,-377.3993 276.2277,-353.1025 276.5432,-334.4428"/>
<polygon fill="#000000" stroke="#000000" points="280.0508,-334.3297 276.9682,-324.1932 273.0568,-334.0396 280.0508,-334.3297"/>
<g id="a_edge12&#45;headlabel"><a xlink:href="dir_000602_000150.html" target="_top" xlink:title="2">
<text text-anchor="middle" x="282.7389" y="-335.5388" font-family="Helvetica,sans-Serif" font-size="10.00" fill="#000000">2</text>
</a>
</g>
</g>
<!-- dir_b098e3604916eca5f90f2bb1c75b7880 -->
<g id="node6" class="node">
<title>dir_b098e3604916eca5f90f2bb1c75b7880</title>
<g id="a_node6"><a xlink:href="dir_b098e3604916eca5f90f2bb1c75b7880.html" target="_top" xlink:title="Mapping">
<polygon fill="#ffffff" stroke="#ff0000" points="378,-324 324,-324 324,-288 378,-288 378,-324"/>
<text text-anchor="middle" x="351" y="-303.5" font-family="Helvetica,sans-Serif" font-size="10.00" fill="#000000">Mapping</text>
</a>
</g>
</g>
<!-- dir_888858b226b7bc70f7e8b18d57d75108&#45;&gt;dir_b098e3604916eca5f90f2bb1c75b7880 -->
<g id="edge13" class="edge">
<title>dir_888858b226b7bc70f7e8b18d57d75108&#45;&gt;dir_b098e3604916eca5f90f2bb1c75b7880</title>
<path fill="none" stroke="#000000" d="M391.8957,-441.3396C413.7674,-433.4129 441.5181,-419.2932 455,-396 463.015,-382.1523 463.3076,-373.6742 455,-360 452.9864,-356.6857 416.468,-338.1584 387.2675,-323.7185"/>
<polygon fill="#000000" stroke="#000000" points="388.6139,-320.4802 378.0969,-319.1984 385.5191,-326.7589 388.6139,-320.4802"/>
<g id="a_edge13&#45;headlabel"><a xlink:href="dir_000602_000591.html" target="_top" xlink:title="1">
<text text-anchor="middle" x="393.0934" y="-317.0226" font-family="Helvetica,sans-Serif" font-size="10.00" fill="#000000">1</text>
</a>
</g>
</g>
<!-- dir_6229e1f1a243f5ed3f0013dfa4f13deb -->
<g id="node7" class="node">
<title>dir_6229e1f1a243f5ed3f0013dfa4f13deb</title>
<g id="a_node7"><a xlink:href="dir_6229e1f1a243f5ed3f0013dfa4f13deb.html" target="_top" xlink:title="PreClustering">
<polygon fill="#ffffff" stroke="#ff0000" points="374,-396 298,-396 298,-360 374,-360 374,-396"/>
<text text-anchor="middle" x="336" y="-375.5" font-family="Helvetica,sans-Serif" font-size="10.00" fill="#000000">PreClustering</text>
</a>
</g>
</g>
<!-- dir_888858b226b7bc70f7e8b18d57d75108&#45;&gt;dir_6229e1f1a243f5ed3f0013dfa4f13deb -->
<g id="edge11" class="edge">
<title>dir_888858b226b7bc70f7e8b18d57d75108&#45;&gt;dir_6229e1f1a243f5ed3f0013dfa4f13deb</title>
<path fill="none" stroke="#000000" d="M354.6914,-431.8314C351.9883,-424.0463 348.7684,-414.7729 345.769,-406.1347"/>
<polygon fill="#000000" stroke="#000000" points="348.98,-404.7119 342.3935,-396.4133 342.3673,-407.0081 348.98,-404.7119"/>
<g id="a_edge11&#45;headlabel"><a xlink:href="dir_000602_000623.html" target="_top" xlink:title="1">
<text text-anchor="middle" x="352.8412" y="-404.6764" font-family="Helvetica,sans-Serif" font-size="10.00" fill="#000000">1</text>
</a>
</g>
</g>
<!-- dir_f53aaea7b1f4a3d2e21e52645ea2576d -->
<g id="node4" class="node">
<title>dir_f53aaea7b1f4a3d2e21e52645ea2576d</title>
<g id="a_node4"><a xlink:href="dir_f53aaea7b1f4a3d2e21e52645ea2576d.html" target="_top" xlink:title="Contour">
<polygon fill="#ffffff" stroke="#ff0000" points="378,-252 324,-252 324,-216 378,-216 378,-252"/>
<text text-anchor="middle" x="351" y="-231.5" font-family="Helvetica,sans-Serif" font-size="10.00" fill="#000000">Contour</text>
</a>
</g>
</g>
<!-- dir_99c402c28a3097630798569c9f7e3c70 -->
<g id="node5" class="node">
<title>dir_99c402c28a3097630798569c9f7e3c70</title>
<g id="a_node5"><a xlink:href="dir_99c402c28a3097630798569c9f7e3c70.html" target="_top" xlink:title="Geometry">
<polygon fill="#ffffff" stroke="#ff0000" points="455.5,-324 396.5,-324 396.5,-288 455.5,-288 455.5,-324"/>
<text text-anchor="middle" x="426" y="-303.5" font-family="Helvetica,sans-Serif" font-size="10.00" fill="#000000">Geometry</text>
</a>
</g>
</g>
<!-- dir_4ab6b4cc6a7edbff49100e9123df213f -->
<g id="node12" class="node">
<title>dir_4ab6b4cc6a7edbff49100e9123df213f</title>
<g id="a_node12"><a xlink:href="dir_4ab6b4cc6a7edbff49100e9123df213f.html" target="_top" xlink:title="Common">
<polygon fill="none" stroke="#ff0000" points="214,-252 158,-252 158,-216 214,-216 214,-252"/>
<text text-anchor="middle" x="186" y="-231.5" font-family="Helvetica,sans-Serif" font-size="10.00" fill="#000000">Common</text>
</a>
</g>
</g>
<!-- dir_99c402c28a3097630798569c9f7e3c70&#45;&gt;dir_4ab6b4cc6a7edbff49100e9123df213f -->
<g id="edge5" class="edge">
<title>dir_99c402c28a3097630798569c9f7e3c70&#45;&gt;dir_4ab6b4cc6a7edbff49100e9123df213f</title>
<path fill="none" stroke="#000000" d="M396.4549,-291.5756C393.3,-290.2732 390.1081,-289.0514 387,-288 317.5439,-264.5044 295.5676,-275.1636 226,-252 225.2684,-251.7564 224.5322,-251.5039 223.7928,-251.2437"/>
<polygon fill="#000000" stroke="#000000" points="224.7133,-247.8473 214.1238,-247.5086 222.1908,-254.377 224.7133,-247.8473"/>
<g id="a_edge5&#45;headlabel"><a xlink:href="dir_000256_000035.html" target="_top" xlink:title="1">
<text text-anchor="middle" x="229.0895" y="-243.994" font-family="Helvetica,sans-Serif" font-size="10.00" fill="#000000">1</text>
</a>
</g>
</g>
<!-- dir_37c90836491b695b472bf98d1be8336b -->
<g id="node13" class="node">
<title>dir_37c90836491b695b472bf98d1be8336b</title>
<g id="a_node13"><a xlink:href="dir_37c90836491b695b472bf98d1be8336b.html" target="_top" xlink:title="Base">
<polygon fill="none" stroke="#ff0000" points="489,-36 435,-36 435,0 489,0 489,-36"/>
<text text-anchor="middle" x="462" y="-15.5" font-family="Helvetica,sans-Serif" font-size="10.00" fill="#000000">Base</text>
</a>
</g>
</g>
<!-- dir_99c402c28a3097630798569c9f7e3c70&#45;&gt;dir_37c90836491b695b472bf98d1be8336b -->
<g id="edge6" class="edge">
<title>dir_99c402c28a3097630798569c9f7e3c70&#45;&gt;dir_37c90836491b695b472bf98d1be8336b</title>
<path fill="none" stroke="#000000" d="M438.9508,-287.7628C461.9267,-254.1607 509.0009,-179.3656 526,-108 529.7074,-92.4355 532.7421,-86.5101 526,-72 519.8381,-58.7387 508.638,-47.5619 497.3101,-38.8788"/>
<polygon fill="#000000" stroke="#000000" points="499.2766,-35.9822 489.1093,-33.0028 495.1995,-41.6723 499.2766,-35.9822"/>
<g id="a_edge6&#45;headlabel"><a xlink:href="dir_000256_000300.html" target="_top" xlink:title="4">
<text text-anchor="middle" x="503.8523" y="-33.2678" font-family="Helvetica,sans-Serif" font-size="10.00" fill="#000000">4</text>
</a>
</g>
</g>
<!-- dir_bcbb2cf9a3d3d83e5515c82071a07177 -->
<g id="node15" class="node">
<title>dir_bcbb2cf9a3d3d83e5515c82071a07177</title>
<g id="a_node15"><a xlink:href="dir_bcbb2cf9a3d3d83e5515c82071a07177.html" target="_top" xlink:title="Framework">
<polygon fill="none" stroke="#ff0000" points="402.5,-180 337.5,-180 337.5,-144 402.5,-144 402.5,-180"/>
<text text-anchor="middle" x="370" y="-159.5" font-family="Helvetica,sans-Serif" font-size="10.00" fill="#000000">Framework</text>
</a>
</g>
</g>
<!-- dir_99c402c28a3097630798569c9f7e3c70&#45;&gt;dir_bcbb2cf9a3d3d83e5515c82071a07177 -->
<g id="edge7" class="edge">
<title>dir_99c402c28a3097630798569c9f7e3c70&#45;&gt;dir_bcbb2cf9a3d3d83e5515c82071a07177</title>
<path fill="none" stroke="#000000" d="M419.7463,-287.8511C412.3354,-266.627 399.4211,-230.5114 387,-200 385.5813,-196.515 384.0365,-192.8758 382.4756,-189.2894"/>
<polygon fill="#000000" stroke="#000000" points="385.6362,-187.7825 378.3818,-180.0609 379.2375,-190.6211 385.6362,-187.7825"/>
<g id="a_edge7&#45;headlabel"><a xlink:href="dir_000256_000062.html" target="_top" xlink:title="1">
<text text-anchor="middle" x="389.6891" y="-187.417" font-family="Helvetica,sans-Serif" font-size="10.00" fill="#000000">1</text>
</a>
</g>
</g>
<!-- dir_b098e3604916eca5f90f2bb1c75b7880&#45;&gt;dir_f53aaea7b1f4a3d2e21e52645ea2576d -->
<g id="edge51" class="edge">
<title>dir_b098e3604916eca5f90f2bb1c75b7880&#45;&gt;dir_f53aaea7b1f4a3d2e21e52645ea2576d</title>
<path fill="none" stroke="#000000" d="M351,-287.8314C351,-280.131 351,-270.9743 351,-262.4166"/>
<polygon fill="#000000" stroke="#000000" points="354.5001,-262.4132 351,-252.4133 347.5001,-262.4133 354.5001,-262.4132"/>
<g id="a_edge51&#45;headlabel"><a xlink:href="dir_000591_000283.html" target="_top" xlink:title="13">
<text text-anchor="middle" x="357.3393" y="-263.5079" font-family="Helvetica,sans-Serif" font-size="10.00" fill="#000000">13</text>
</a>
</g>
</g>
<!-- dir_6229e1f1a243f5ed3f0013dfa4f13deb&#45;&gt;dir_1155c84989a046e7de4bf0156dc4b34c -->
<g id="edge1" class="edge">
<title>dir_6229e1f1a243f5ed3f0013dfa4f13deb&#45;&gt;dir_1155c84989a046e7de4bf0156dc4b34c</title>
<path fill="none" stroke="#000000" d="M321.6165,-359.8314C315.0514,-351.5386 307.1493,-341.557 299.9422,-332.4533"/>
<polygon fill="#000000" stroke="#000000" points="302.5284,-330.0813 293.5772,-324.4133 297.0401,-334.4262 302.5284,-330.0813"/>
<g id="a_edge1&#45;headlabel"><a xlink:href="dir_000623_000150.html" target="_top" xlink:title="2">
<text text-anchor="middle" x="306.9857" y="-328.6373" font-family="Helvetica,sans-Serif" font-size="10.00" fill="#000000">2</text>
</a>
</g>
</g>
<!-- dir_6229e1f1a243f5ed3f0013dfa4f13deb&#45;&gt;dir_b098e3604916eca5f90f2bb1c75b7880 -->
<g id="edge2" class="edge">
<title>dir_6229e1f1a243f5ed3f0013dfa4f13deb&#45;&gt;dir_b098e3604916eca5f90f2bb1c75b7880</title>
<path fill="none" stroke="#000000" d="M339.7851,-359.8314C341.3894,-352.131 343.297,-342.9743 345.0799,-334.4166"/>
<polygon fill="#000000" stroke="#000000" points="348.5507,-334.9169 347.1639,-324.4133 341.6979,-333.4892 348.5507,-334.9169"/>
<g id="a_edge2&#45;headlabel"><a xlink:href="dir_000623_000591.html" target="_top" xlink:title="2">
<text text-anchor="middle" x="350.5972" y="-336.5151" font-family="Helvetica,sans-Serif" font-size="10.00" fill="#000000">2</text>
</a>
</g>
</g>
<!-- dir_f8de85f281636d081fd2e7e06b0134d2 -->
<g id="node8" class="node">
<title>dir_f8de85f281636d081fd2e7e06b0134d2</title>
<g id="a_node8"><a xlink:href="dir_f8de85f281636d081fd2e7e06b0134d2.html" target="_top" xlink:title="Raw">
<polygon fill="#ffffff" stroke="#ff0000" points="446,-396 392,-396 392,-360 446,-360 446,-396"/>
<text text-anchor="middle" x="419" y="-375.5" font-family="Helvetica,sans-Serif" font-size="10.00" fill="#000000">Raw</text>
</a>
</g>
</g>
<!-- dir_f8de85f281636d081fd2e7e06b0134d2&#45;&gt;dir_1155c84989a046e7de4bf0156dc4b34c -->
<g id="edge43" class="edge">
<title>dir_f8de85f281636d081fd2e7e06b0134d2&#45;&gt;dir_1155c84989a046e7de4bf0156dc4b34c</title>
<path fill="none" stroke="#000000" d="M391.6742,-363.9468C369.8967,-352.7469 339.2083,-336.9642 315.3569,-324.6978"/>
<polygon fill="#000000" stroke="#000000" points="316.7505,-321.4788 306.2568,-320.0178 313.549,-327.7038 316.7505,-321.4788"/>
<g id="a_edge43&#45;headlabel"><a xlink:href="dir_000464_000150.html" target="_top" xlink:title="5">
<text text-anchor="middle" x="321.2456" y="-318.0978" font-family="Helvetica,sans-Serif" font-size="10.00" fill="#000000">5</text>
</a>
</g>
</g>
<!-- dir_f8de85f281636d081fd2e7e06b0134d2&#45;&gt;dir_b098e3604916eca5f90f2bb1c75b7880 -->
<g id="edge47" class="edge">
<title>dir_f8de85f281636d081fd2e7e06b0134d2&#45;&gt;dir_b098e3604916eca5f90f2bb1c75b7880</title>
<path fill="none" stroke="#000000" d="M401.8407,-359.8314C393.8489,-351.3694 384.1962,-341.1489 375.4584,-331.8971"/>
<polygon fill="#000000" stroke="#000000" points="377.8011,-329.2802 368.3903,-324.4133 372.712,-334.0866 377.8011,-329.2802"/>
<g id="a_edge47&#45;headlabel"><a xlink:href="dir_000464_000591.html" target="_top" xlink:title="1">
<text text-anchor="middle" x="382.3334" y="-327.444" font-family="Helvetica,sans-Serif" font-size="10.00" fill="#000000">1</text>
</a>
</g>
</g>
<!-- dir_f8de85f281636d081fd2e7e06b0134d2&#45;&gt;dir_4ab6b4cc6a7edbff49100e9123df213f -->
<g id="edge42" class="edge">
<title>dir_f8de85f281636d081fd2e7e06b0134d2&#45;&gt;dir_4ab6b4cc6a7edbff49100e9123df213f</title>
<path fill="none" stroke="#000000" d="M391.8,-363.4885C388.8737,-362.2031 385.9043,-361.0091 383,-360 308.8145,-334.2238 267.0511,-377.9729 210,-324 193.3709,-308.2681 187.7939,-282.4154 186.1309,-262.445"/>
<polygon fill="#000000" stroke="#000000" points="189.619,-262.132 185.572,-252.3405 182.6297,-262.5186 189.619,-262.132"/>
<g id="a_edge42&#45;headlabel"><a xlink:href="dir_000464_000035.html" target="_top" xlink:title="1">
<text text-anchor="middle" x="192.6524" y="-263.0643" font-family="Helvetica,sans-Serif" font-size="10.00" fill="#000000">1</text>
</a>
</g>
</g>
<!-- dir_f8de85f281636d081fd2e7e06b0134d2&#45;&gt;dir_bcbb2cf9a3d3d83e5515c82071a07177 -->
<g id="edge44" class="edge">
<title>dir_f8de85f281636d081fd2e7e06b0134d2&#45;&gt;dir_bcbb2cf9a3d3d83e5515c82071a07177</title>
<path fill="none" stroke="#000000" d="M440.3127,-359.7308C449.8134,-350.1756 459.979,-337.6372 465,-324 470.5282,-308.9854 469.4109,-303.38 465,-288 453.4826,-247.8412 421.9766,-210.8163 398.3828,-187.4417"/>
<polygon fill="#000000" stroke="#000000" points="400.6602,-184.7754 391.0358,-180.3456 395.7971,-189.8103 400.6602,-184.7754"/>
<g id="a_edge44&#45;headlabel"><a xlink:href="dir_000464_000062.html" target="_top" xlink:title="2">
<text text-anchor="middle" x="405.2181" y="-182.7304" font-family="Helvetica,sans-Serif" font-size="10.00" fill="#000000">2</text>
</a>
</g>
</g>
<!-- dir_26637d1bd82229bc9ed97f7e706be743 -->
<g id="node16" class="node">
<title>dir_26637d1bd82229bc9ed97f7e706be743</title>
<g id="a_node16"><a xlink:href="dir_26637d1bd82229bc9ed97f7e706be743.html" target="_top" xlink:title="Raw">
<polygon fill="none" stroke="#ff0000" points="82,-324 28,-324 28,-288 82,-288 82,-324"/>
<text text-anchor="middle" x="55" y="-303.5" font-family="Helvetica,sans-Serif" font-size="10.00" fill="#000000">Raw</text>
</a>
</g>
</g>
<!-- dir_f8de85f281636d081fd2e7e06b0134d2&#45;&gt;dir_26637d1bd82229bc9ed97f7e706be743 -->
<g id="edge45" class="edge">
<title>dir_f8de85f281636d081fd2e7e06b0134d2&#45;&gt;dir_26637d1bd82229bc9ed97f7e706be743</title>
<path fill="none" stroke="#000000" d="M391.8423,-363.3626C388.9077,-362.1017 385.9248,-360.9479 383,-360 369.2128,-355.5317 175.0502,-324.8181 92.1187,-311.8056"/>
<polygon fill="#000000" stroke="#000000" points="92.5325,-308.3278 82.111,-310.2365 91.4482,-315.2433 92.5325,-308.3278"/>
<g id="a_edge45&#45;headlabel"><a xlink:href="dir_000464_000665.html" target="_top" xlink:title="11">
<text text-anchor="middle" x="96.5235" y="-303.5794" font-family="Helvetica,sans-Serif" font-size="10.00" fill="#000000">11</text>
</a>
</g>
</g>
<!-- dir_2171f7ec022c5423887b07c69b2f5b48 -->
<g id="node17" class="node">
<title>dir_2171f7ec022c5423887b07c69b2f5b48</title>
<g id="a_node17"><a xlink:href="dir_2171f7ec022c5423887b07c69b2f5b48.html" target="_top" xlink:title="DataFormats">
<polygon fill="none" stroke="#ff0000" points="407,-108 333,-108 333,-72 407,-72 407,-108"/>
<text text-anchor="middle" x="370" y="-87.5" font-family="Helvetica,sans-Serif" font-size="10.00" fill="#000000">DataFormats</text>
</a>
</g>
</g>
<!-- dir_f8de85f281636d081fd2e7e06b0134d2&#45;&gt;dir_2171f7ec022c5423887b07c69b2f5b48 -->
<g id="edge46" class="edge">
<title>dir_f8de85f281636d081fd2e7e06b0134d2&#45;&gt;dir_2171f7ec022c5423887b07c69b2f5b48</title>
<path fill="none" stroke="#000000" d="M446.1372,-361.8061C458.9614,-352.522 472.9733,-339.6048 480,-324 486.5694,-309.4108 483.0871,-303.6994 480,-288 466.6543,-220.1301 419.7161,-152.0495 391.6492,-116.0899"/>
<polygon fill="#000000" stroke="#000000" points="394.248,-113.7343 385.2898,-108.0773 388.765,-118.086 394.248,-113.7343"/>
<g id="a_edge46&#45;headlabel"><a xlink:href="dir_000464_000089.html" target="_top" xlink:title="13">
<text text-anchor="middle" x="398.7066" y="-112.2847" font-family="Helvetica,sans-Serif" font-size="10.00" fill="#000000">13</text>
</a>
</g>
</g>
<!-- dir_e4cb5181a3c884468a78a261ced84e7b -->
<g id="node9" class="node">
<title>dir_e4cb5181a3c884468a78a261ced84e7b</title>
<g id="a_node9"><a xlink:href="dir_e4cb5181a3c884468a78a261ced84e7b.html" target="_top" xlink:title="Simulation">
<polygon fill="#ffffff" stroke="#ff0000" points="566,-396 504,-396 504,-360 566,-360 566,-396"/>
<text text-anchor="middle" x="535" y="-375.5" font-family="Helvetica,sans-Serif" font-size="10.00" fill="#000000">Simulation</text>
</a>
</g>
</g>
<!-- dir_e4cb5181a3c884468a78a261ced84e7b&#45;&gt;dir_1155c84989a046e7de4bf0156dc4b34c -->
<g id="edge17" class="edge">
<title>dir_e4cb5181a3c884468a78a261ced84e7b&#45;&gt;dir_1155c84989a046e7de4bf0156dc4b34c</title>
<path fill="none" stroke="#000000" d="M503.9473,-370.7834C452.8911,-358.8638 353.7463,-335.4737 315.8956,-323.671"/>
<polygon fill="#000000" stroke="#000000" points="316.832,-320.293 306.2378,-320.4056 314.5899,-326.9242 316.832,-320.293"/>
<g id="a_edge17&#45;headlabel"><a xlink:href="dir_000227_000150.html" target="_top" xlink:title="6">
<text text-anchor="middle" x="321.1466" y="-316.2546" font-family="Helvetica,sans-Serif" font-size="10.00" fill="#000000">6</text>
</a>
</g>
</g>
<!-- dir_e4cb5181a3c884468a78a261ced84e7b&#45;&gt;dir_99c402c28a3097630798569c9f7e3c70 -->
<g id="edge18" class="edge">
<title>dir_e4cb5181a3c884468a78a261ced84e7b&#45;&gt;dir_99c402c28a3097630798569c9f7e3c70</title>
<path fill="none" stroke="#000000" d="M507.4947,-359.8314C493.682,-350.7074 476.7744,-339.539 461.9471,-329.7449"/>
<polygon fill="#000000" stroke="#000000" points="463.7696,-326.7541 453.4965,-324.1628 459.9114,-332.5949 463.7696,-326.7541"/>
<g id="a_edge18&#45;headlabel"><a xlink:href="dir_000227_000256.html" target="_top" xlink:title="5">
<text text-anchor="middle" x="468.3338" y="-323.8662" font-family="Helvetica,sans-Serif" font-size="10.00" fill="#000000">5</text>
</a>
</g>
</g>
<!-- dir_e4cb5181a3c884468a78a261ced84e7b&#45;&gt;dir_b098e3604916eca5f90f2bb1c75b7880 -->
<g id="edge22" class="edge">
<title>dir_e4cb5181a3c884468a78a261ced84e7b&#45;&gt;dir_b098e3604916eca5f90f2bb1c75b7880</title>
<path fill="none" stroke="#000000" d="M503.5931,-365.2458C499.0441,-363.4543 494.4101,-361.6595 490,-360 445.006,-343.0693 432.353,-342.5452 388,-324 387.9011,-323.9587 387.8022,-323.9172 387.7031,-323.8756"/>
<polygon fill="#000000" stroke="#000000" points="388.881,-320.5694 378.3204,-319.7193 386.0459,-326.9696 388.881,-320.5694"/>
<g id="a_edge22&#45;headlabel"><a xlink:href="dir_000227_000591.html" target="_top" xlink:title="2">
<text text-anchor="middle" x="393.3176" y="-316.9293" font-family="Helvetica,sans-Serif" font-size="10.00" fill="#000000">2</text>
</a>
</g>
</g>
<!-- dir_e4cb5181a3c884468a78a261ced84e7b&#45;&gt;dir_4ab6b4cc6a7edbff49100e9123df213f -->
<g id="edge16" class="edge">
<title>dir_e4cb5181a3c884468a78a261ced84e7b&#45;&gt;dir_4ab6b4cc6a7edbff49100e9123df213f</title>
<path fill="none" stroke="#000000" d="M503.9279,-370.6056C489.1464,-367.1914 471.2017,-363.196 455,-360 361.2358,-341.504 322.5616,-376.9508 243,-324 220.6384,-309.1176 205.3036,-282.1546 196.2198,-261.6081"/>
<polygon fill="#000000" stroke="#000000" points="199.3408,-259.9986 192.2592,-252.1181 192.8808,-262.6947 199.3408,-259.9986"/>
<g id="a_edge16&#45;headlabel"><a xlink:href="dir_000227_000035.html" target="_top" xlink:title="1">
<text text-anchor="middle" x="203.3454" y="-259.7224" font-family="Helvetica,sans-Serif" font-size="10.00" fill="#000000">1</text>
</a>
</g>
</g>
<!-- dir_e4cb5181a3c884468a78a261ced84e7b&#45;&gt;dir_37c90836491b695b472bf98d1be8336b -->
<g id="edge19" class="edge">
<title>dir_e4cb5181a3c884468a78a261ced84e7b&#45;&gt;dir_37c90836491b695b472bf98d1be8336b</title>
<path fill="none" stroke="#000000" d="M566.1943,-363.0814C607.1761,-341.0522 674,-295.6758 674,-234 674,-234 674,-234 674,-162 674,-78.5109 560.0989,-40.0478 499.2727,-25.4599"/>
<polygon fill="#000000" stroke="#000000" points="499.8112,-21.9925 489.2813,-23.1638 498.2433,-28.8147 499.8112,-21.9925"/>
<g id="a_edge19&#45;headlabel"><a xlink:href="dir_000227_000300.html" target="_top" xlink:title="1">
<text text-anchor="middle" x="503.9504" y="-17.5304" font-family="Helvetica,sans-Serif" font-size="10.00" fill="#000000">1</text>
</a>
</g>
</g>
<!-- dir_f01815b857f9009bea48e2cb39492245 -->
<g id="node14" class="node">
<title>dir_f01815b857f9009bea48e2cb39492245</title>
<g id="a_node14"><a xlink:href="dir_f01815b857f9009bea48e2cb39492245.html" target="_top" xlink:title="Passive">
<polygon fill="none" stroke="#ff0000" points="517,-108 463,-108 463,-72 517,-72 517,-108"/>
<text text-anchor="middle" x="490" y="-87.5" font-family="Helvetica,sans-Serif" font-size="10.00" fill="#000000">Passive</text>
</a>
</g>
</g>
<!-- dir_e4cb5181a3c884468a78a261ced84e7b&#45;&gt;dir_f01815b857f9009bea48e2cb39492245 -->
<g id="edge20" class="edge">
<title>dir_e4cb5181a3c884468a78a261ced84e7b&#45;&gt;dir_f01815b857f9009bea48e2cb39492245</title>
<path fill="none" stroke="#000000" d="M552.7108,-359.6517C560.8942,-349.8946 569.7304,-337.2041 574,-324 598.6135,-247.8805 612.335,-214.217 574,-144 563.9063,-125.5117 544.4724,-112.4091 526.8378,-103.7446"/>
<polygon fill="#000000" stroke="#000000" points="527.8465,-100.3573 517.2967,-99.3815 524.9354,-106.7233 527.8465,-100.3573"/>
<g id="a_edge20&#45;headlabel"><a xlink:href="dir_000227_000677.html" target="_top" xlink:title="6">
<text text-anchor="middle" x="532.2963" y="-96.77" font-family="Helvetica,sans-Serif" font-size="10.00" fill="#000000">6</text>
</a>
</g>
</g>
<!-- dir_e4cb5181a3c884468a78a261ced84e7b&#45;&gt;dir_2171f7ec022c5423887b07c69b2f5b48 -->
<g id="edge21" class="edge">
<title>dir_e4cb5181a3c884468a78a261ced84e7b&#45;&gt;dir_2171f7ec022c5423887b07c69b2f5b48</title>
<path fill="none" stroke="#000000" d="M531.573,-359.7272C522.7877,-317.2436 495.8863,-210.398 437,-144 427.5209,-133.3118 415.775,-123.0739 404.7783,-114.4412"/>
<polygon fill="#000000" stroke="#000000" points="406.6376,-111.4573 396.565,-108.1717 402.3902,-117.0215 406.6376,-111.4573"/>
<g id="a_edge21&#45;headlabel"><a xlink:href="dir_000227_000089.html" target="_top" xlink:title="10">
<text text-anchor="middle" x="411.2176" y="-108.8814" font-family="Helvetica,sans-Serif" font-size="10.00" fill="#000000">10</text>
</a>
</g>
</g>
<!-- dir_09445408fa345a18838fb91740d089d0 -->
<g id="node10" class="node">
<title>dir_09445408fa345a18838fb91740d089d0</title>
<g id="a_node10"><a xlink:href="dir_09445408fa345a18838fb91740d089d0.html" target="_top" xlink:title="Tracking">
<polygon fill="#ffffff" stroke="#ff0000" points="292,-468 238,-468 238,-432 292,-432 292,-468"/>
<text text-anchor="middle" x="265" y="-447.5" font-family="Helvetica,sans-Serif" font-size="10.00" fill="#000000">Tracking</text>
</a>
</g>
</g>
<!-- dir_09445408fa345a18838fb91740d089d0&#45;&gt;dir_1155c84989a046e7de4bf0156dc4b34c -->
<g id="edge15" class="edge">
<title>dir_09445408fa345a18838fb91740d089d0&#45;&gt;dir_1155c84989a046e7de4bf0156dc4b34c</title>
<path fill="none" stroke="#000000" d="M259.2341,-431.9001C254.2338,-413.6036 248.5826,-384.5965 254,-360 255.9805,-351.0081 259.6121,-341.7321 263.5051,-333.4596"/>
<polygon fill="#000000" stroke="#000000" points="266.7516,-334.7939 268.112,-324.2867 260.4962,-331.6522 266.7516,-334.7939"/>
<g id="a_edge15&#45;headlabel"><a xlink:href="dir_000133_000150.html" target="_top" xlink:title="2">
<text text-anchor="middle" x="267.6757" y="-336.7804" font-family="Helvetica,sans-Serif" font-size="10.00" fill="#000000">2</text>
</a>
</g>
</g>
<!-- dir_09445408fa345a18838fb91740d089d0&#45;&gt;dir_4ab6b4cc6a7edbff49100e9123df213f -->
<g id="edge14" class="edge">
<title>dir_09445408fa345a18838fb91740d089d0&#45;&gt;dir_4ab6b4cc6a7edbff49100e9123df213f</title>
<path fill="none" stroke="#000000" d="M249.3044,-431.9305C230.3113,-408.7653 199.3442,-366.4943 187,-324 181.1608,-303.8989 181.1588,-280.1913 182.4839,-262.1556"/>
<polygon fill="#000000" stroke="#000000" points="185.9871,-262.2793 183.4116,-252.0023 179.0161,-261.6423 185.9871,-262.2793"/>
<g id="a_edge14&#45;headlabel"><a xlink:href="dir_000133_000035.html" target="_top" xlink:title="3">
<text text-anchor="middle" x="188.4876" y="-263.6174" font-family="Helvetica,sans-Serif" font-size="10.00" fill="#000000">3</text>
</a>
</g>
</g>
<!-- dir_04ece05d7c7fe751e39bd0511b9068fc -->
<g id="node11" class="node">
<title>dir_04ece05d7c7fe751e39bd0511b9068fc</title>
<g id="a_node11"><a xlink:href="dir_04ece05d7c7fe751e39bd0511b9068fc.html" target="_top" xlink:title="Workflow">
<polygon fill="#ffffff" stroke="#ff0000" points="390,-540 332,-540 332,-504 390,-504 390,-540"/>
<text text-anchor="middle" x="361" y="-519.5" font-family="Helvetica,sans-Serif" font-size="10.00" fill="#000000">Workflow</text>
</a>
</g>
</g>
<!-- dir_04ece05d7c7fe751e39bd0511b9068fc&#45;&gt;dir_1155c84989a046e7de4bf0156dc4b34c -->
<g id="edge27" class="edge">
<title>dir_04ece05d7c7fe751e39bd0511b9068fc&#45;&gt;dir_1155c84989a046e7de4bf0156dc4b34c</title>
<path fill="none" stroke="#000000" d="M347.1902,-503.8161C339.5179,-493.4861 329.946,-480.2138 322,-468 311.8988,-452.4734 311.2407,-447.435 301,-432 289.9429,-415.3345 280.3246,-414.9737 274,-396 267.3398,-376.0193 269.0644,-352.1724 272.1984,-334.0469"/>
<polygon fill="#000000" stroke="#000000" points="275.6574,-334.5961 274.1538,-324.1085 268.7891,-333.2447 275.6574,-334.5961"/>
<g id="a_edge27&#45;headlabel"><a xlink:href="dir_000517_000150.html" target="_top" xlink:title="21">
<text text-anchor="middle" x="277.7494" y="-336.1712" font-family="Helvetica,sans-Serif" font-size="10.00" fill="#000000">21</text>
</a>
</g>
</g>
<!-- dir_04ece05d7c7fe751e39bd0511b9068fc&#45;&gt;dir_888858b226b7bc70f7e8b18d57d75108 -->
<g id="edge29" class="edge">
<title>dir_04ece05d7c7fe751e39bd0511b9068fc&#45;&gt;dir_888858b226b7bc70f7e8b18d57d75108</title>
<path fill="none" stroke="#000000" d="M361,-503.8314C361,-496.131 361,-486.9743 361,-478.4166"/>
<polygon fill="#000000" stroke="#000000" points="364.5001,-478.4132 361,-468.4133 357.5001,-478.4133 364.5001,-478.4132"/>
<g id="a_edge29&#45;headlabel"><a xlink:href="dir_000517_000602.html" target="_top" xlink:title="1">
<text text-anchor="middle" x="367.3393" y="-479.5079" font-family="Helvetica,sans-Serif" font-size="10.00" fill="#000000">1</text>
</a>
</g>
</g>
<!-- dir_04ece05d7c7fe751e39bd0511b9068fc&#45;&gt;dir_b098e3604916eca5f90f2bb1c75b7880 -->
<g id="edge35" class="edge">
<title>dir_04ece05d7c7fe751e39bd0511b9068fc&#45;&gt;dir_b098e3604916eca5f90f2bb1c75b7880</title>
<path fill="none" stroke="#000000" d="M387.4168,-503.781C427.5285,-473.7999 495.8342,-412.1812 463,-360 443.3084,-328.7054 421.2912,-340.0876 388,-324 387.6985,-323.8543 387.3957,-323.7079 387.0916,-323.5609"/>
<polygon fill="#000000" stroke="#000000" points="388.5953,-320.4003 378.0699,-319.1894 385.5429,-326.6998 388.5953,-320.4003"/>
<g id="a_edge35&#45;headlabel"><a xlink:href="dir_000517_000591.html" target="_top" xlink:title="4">
<text text-anchor="middle" x="393.0683" y="-316.9126" font-family="Helvetica,sans-Serif" font-size="10.00" fill="#000000">4</text>
</a>
</g>
</g>
<!-- dir_04ece05d7c7fe751e39bd0511b9068fc&#45;&gt;dir_6229e1f1a243f5ed3f0013dfa4f13deb -->
<g id="edge25" class="edge">
<title>dir_04ece05d7c7fe751e39bd0511b9068fc&#45;&gt;dir_6229e1f1a243f5ed3f0013dfa4f13deb</title>
<path fill="none" stroke="#000000" d="M379.1576,-503.7286C387.549,-493.9911 396.6123,-481.2949 401,-468 406.0144,-452.8061 407.7975,-446.4843 401,-432 395.5409,-420.3676 386.2088,-410.3739 376.2927,-402.2592"/>
<polygon fill="#000000" stroke="#000000" points="378.355,-399.4304 368.2779,-396.1588 374.1154,-405.0005 378.355,-399.4304"/>
<g id="a_edge25&#45;headlabel"><a xlink:href="dir_000517_000623.html" target="_top" xlink:title="1">
<text text-anchor="middle" x="382.9349" y="-396.8482" font-family="Helvetica,sans-Serif" font-size="10.00" fill="#000000">1</text>
</a>
</g>
</g>
<!-- dir_04ece05d7c7fe751e39bd0511b9068fc&#45;&gt;dir_f8de85f281636d081fd2e7e06b0134d2 -->
<g id="edge32" class="edge">
<title>dir_04ece05d7c7fe751e39bd0511b9068fc&#45;&gt;dir_f8de85f281636d081fd2e7e06b0134d2</title>
<path fill="none" stroke="#000000" d="M382.0477,-503.522C391.5826,-493.9174 402.0345,-481.3977 408,-468 416.6711,-448.5261 419.2464,-424.4704 419.7488,-406.1297"/>
<polygon fill="#000000" stroke="#000000" points="423.2491,-406.0991 419.8355,-396.0693 416.2494,-406.0387 423.2491,-406.0991"/>
<g id="a_edge32&#45;headlabel"><a xlink:href="dir_000517_000464.html" target="_top" xlink:title="5">
<text text-anchor="middle" x="426.0574" y="-407.218" font-family="Helvetica,sans-Serif" font-size="10.00" fill="#000000">5</text>
</a>
</g>
</g>
<!-- dir_04ece05d7c7fe751e39bd0511b9068fc&#45;&gt;dir_09445408fa345a18838fb91740d089d0 -->
<g id="edge30" class="edge">
<title>dir_04ece05d7c7fe751e39bd0511b9068fc&#45;&gt;dir_09445408fa345a18838fb91740d089d0</title>
<path fill="none" stroke="#000000" d="M336.7751,-503.8314C324.8372,-494.8779 310.2744,-483.9558 297.394,-474.2955"/>
<polygon fill="#000000" stroke="#000000" points="299.3171,-471.3629 289.2171,-468.1628 295.1171,-476.9629 299.3171,-471.3629"/>
<g id="a_edge30&#45;headlabel"><a xlink:href="dir_000517_000133.html" target="_top" xlink:title="15">
<text text-anchor="middle" x="303.8964" y="-468.7482" font-family="Helvetica,sans-Serif" font-size="10.00" fill="#000000">15</text>
</a>
</g>
</g>
<!-- dir_04ece05d7c7fe751e39bd0511b9068fc&#45;&gt;dir_4ab6b4cc6a7edbff49100e9123df213f -->
<g id="edge26" class="edge">
<title>dir_04ece05d7c7fe751e39bd0511b9068fc&#45;&gt;dir_4ab6b4cc6a7edbff49100e9123df213f</title>
<path fill="none" stroke="#000000" d="M331.9148,-516.879C302.4766,-510.2987 257.3669,-496.1839 229,-468 170.0147,-409.3953 171.8908,-370.9244 178,-288 178.6169,-279.6264 179.7649,-270.5812 181.0026,-262.3322"/>
<polygon fill="#000000" stroke="#000000" points="184.4648,-262.8463 182.585,-252.4196 177.5523,-261.7428 184.4648,-262.8463"/>
<g id="a_edge26&#45;headlabel"><a xlink:href="dir_000517_000035.html" target="_top" xlink:title="3">
<text text-anchor="middle" x="186.702" y="-264.3436" font-family="Helvetica,sans-Serif" font-size="10.00" fill="#000000">3</text>
</a>
</g>
</g>
<!-- dir_04ece05d7c7fe751e39bd0511b9068fc&#45;&gt;dir_37c90836491b695b472bf98d1be8336b -->
<g id="edge28" class="edge">
<title>dir_04ece05d7c7fe751e39bd0511b9068fc&#45;&gt;dir_37c90836491b695b472bf98d1be8336b</title>
<path fill="none" stroke="#000000" d="M390.0224,-516.5989C474.1176,-500.1291 712,-447.4067 712,-378 712,-378 712,-378 712,-162 712,-65.0481 569.0754,-32.3837 499.3589,-22.2176"/>
<polygon fill="#000000" stroke="#000000" points="499.614,-18.7198 489.2303,-20.8242 498.6599,-25.6545 499.614,-18.7198"/>
<g id="a_edge28&#45;headlabel"><a xlink:href="dir_000517_000300.html" target="_top" xlink:title="1">
<text text-anchor="middle" x="503.562" y="-13.8968" font-family="Helvetica,sans-Serif" font-size="10.00" fill="#000000">1</text>
</a>
</g>
</g>
<!-- dir_04ece05d7c7fe751e39bd0511b9068fc&#45;&gt;dir_bcbb2cf9a3d3d83e5515c82071a07177 -->
<g id="edge31" class="edge">
<title>dir_04ece05d7c7fe751e39bd0511b9068fc&#45;&gt;dir_bcbb2cf9a3d3d83e5515c82071a07177</title>
<path fill="none" stroke="#000000" d="M331.9915,-519.2941C267.2219,-512.8331 113.0666,-495.0047 69,-468 26.0248,-441.6641 0,-428.4028 0,-378 0,-378 0,-378 0,-306 0,-244.485 35.1157,-229.6745 89,-200 129.0937,-177.9201 259.2054,-167.8671 327.4052,-164.0188"/>
<polygon fill="#000000" stroke="#000000" points="327.6034,-167.5133 337.3982,-163.4744 327.2226,-160.5236 327.6034,-167.5133"/>
<g id="a_edge31&#45;headlabel"><a xlink:href="dir_000517_000062.html" target="_top" xlink:title="178">
<text text-anchor="middle" x="324.1686" y="-168.0438" font-family="Helvetica,sans-Serif" font-size="10.00" fill="#000000">178</text>
</a>
</g>
</g>
<!-- dir_04ece05d7c7fe751e39bd0511b9068fc&#45;&gt;dir_26637d1bd82229bc9ed97f7e706be743 -->
<g id="edge33" class="edge">
<title>dir_04ece05d7c7fe751e39bd0511b9068fc&#45;&gt;dir_26637d1bd82229bc9ed97f7e706be743</title>
<path fill="none" stroke="#000000" d="M331.5345,-519.8819C269.7628,-514.8436 129.6294,-500.0893 96,-468 59.4785,-433.151 53.6624,-370.8349 53.6836,-334.4891"/>
<polygon fill="#000000" stroke="#000000" points="57.1893,-334.1572 53.8501,-324.1024 50.1902,-334.045 57.1893,-334.1572"/>
<g id="a_edge33&#45;headlabel"><a xlink:href="dir_000517_000665.html" target="_top" xlink:title="2">
<text text-anchor="middle" x="59.9707" y="-335.2968" font-family="Helvetica,sans-Serif" font-size="10.00" fill="#000000">2</text>
</a>
</g>
</g>
<!-- dir_04ece05d7c7fe751e39bd0511b9068fc&#45;&gt;dir_2171f7ec022c5423887b07c69b2f5b48 -->
<g id="edge34" class="edge">
<title>dir_04ece05d7c7fe751e39bd0511b9068fc&#45;&gt;dir_2171f7ec022c5423887b07c69b2f5b48</title>
<path fill="none" stroke="#000000" d="M390.0609,-511.2543C453.3467,-486.9542 598,-426.1454 598,-378 598,-378 598,-378 598,-306 598,-206.9969 483.305,-139.773 416.6119,-109.0523"/>
<polygon fill="#000000" stroke="#000000" points="417.6947,-105.7014 407.1396,-104.7852 414.8196,-112.0837 417.6947,-105.7014"/>
<g id="a_edge34&#45;headlabel"><a xlink:href="dir_000517_000089.html" target="_top" xlink:title="8">
<text text-anchor="middle" x="422.1383" y="-102.0891" font-family="Helvetica,sans-Serif" font-size="10.00" fill="#000000">8</text>
</a>
</g>
</g>
<!-- dir_4ab6b4cc6a7edbff49100e9123df213f&#45;&gt;dir_bcbb2cf9a3d3d83e5515c82071a07177 -->
<g id="edge3" class="edge">
<title>dir_4ab6b4cc6a7edbff49100e9123df213f&#45;&gt;dir_bcbb2cf9a3d3d83e5515c82071a07177</title>
<path fill="none" stroke="#000000" d="M195.3506,-215.84C201.3553,-210.067 209.0746,-204.1191 217,-200 248.3734,-183.6942 259.8151,-189.0314 294,-180 304.7879,-177.1499 316.542,-174.0054 327.5768,-171.1528"/>
<polygon fill="#000000" stroke="#000000" points="328.6355,-174.4949 337.4602,-168.6319 326.9054,-167.712 328.6355,-174.4949"/>
<g id="a_edge3&#45;headlabel"><a xlink:href="dir_000035_000062.html" target="_top" xlink:title="2">
<text text-anchor="middle" x="325.8541" y="-175.6344" font-family="Helvetica,sans-Serif" font-size="10.00" fill="#000000">2</text>
</a>
</g>
</g>
<!-- dir_4ab6b4cc6a7edbff49100e9123df213f&#45;&gt;dir_2171f7ec022c5423887b07c69b2f5b48 -->
<g id="edge4" class="edge">
<title>dir_4ab6b4cc6a7edbff49100e9123df213f&#45;&gt;dir_2171f7ec022c5423887b07c69b2f5b48</title>
<path fill="none" stroke="#000000" d="M198.3676,-215.7936C204.0775,-210.6238 210.7555,-205.0333 217,-200 254.7247,-169.5924 299.1797,-135.957 330.5714,-113.9843"/>
<polygon fill="#000000" stroke="#000000" points="332.831,-116.677 339.0626,-108.1085 328.8478,-110.9207 332.831,-116.677"/>
<g id="a_edge4&#45;headlabel"><a xlink:href="dir_000035_000089.html" target="_top" xlink:title="2">
<text text-anchor="middle" x="331.4907" y="-118.5572" font-family="Helvetica,sans-Serif" font-size="10.00" fill="#000000">2</text>
</a>
</g>
</g>
<!-- dir_37c90836491b695b472bf98d1be8336b&#45;&gt;dir_4ab6b4cc6a7edbff49100e9123df213f -->
<g id="edge8" class="edge">
<title>dir_37c90836491b695b472bf98d1be8336b&#45;&gt;dir_4ab6b4cc6a7edbff49100e9123df213f</title>
<path fill="none" stroke="#000000" d="M434.8487,-25.1789C405.899,-33.5955 359.4367,-49.3366 324,-72 268.9086,-107.2335 224.0284,-171.1885 201.5752,-207.3055"/>
<polygon fill="#000000" stroke="#000000" points="198.5802,-205.4946 196.3575,-215.8536 204.555,-209.1417 198.5802,-205.4946"/>
<g id="a_edge8&#45;headlabel"><a xlink:href="dir_000300_000035.html" target="_top" xlink:title="16">
<text text-anchor="middle" x="198.0295" y="-198.4471" font-family="Helvetica,sans-Serif" font-size="10.00" fill="#000000">16</text>
</a>
</g>
</g>
<!-- dir_37c90836491b695b472bf98d1be8336b&#45;&gt;dir_bcbb2cf9a3d3d83e5515c82071a07177 -->
<g id="edge9" class="edge">
<title>dir_37c90836491b695b472bf98d1be8336b&#45;&gt;dir_bcbb2cf9a3d3d83e5515c82071a07177</title>
<path fill="none" stroke="#000000" d="M454.1817,-36.2785C445.843,-54.9685 431.6954,-84.5094 416,-108 409.5045,-117.7216 401.5003,-127.6593 393.9998,-136.3158"/>
<polygon fill="#000000" stroke="#000000" points="391.3246,-134.0573 387.3109,-143.8625 396.5632,-138.7004 391.3246,-134.0573"/>
<g id="a_edge9&#45;headlabel"><a xlink:href="dir_000300_000062.html" target="_top" xlink:title="1">
<text text-anchor="middle" x="391.5841" y="-126.984" font-family="Helvetica,sans-Serif" font-size="10.00" fill="#000000">1</text>
</a>
</g>
</g>
<!-- dir_37c90836491b695b472bf98d1be8336b&#45;&gt;dir_2171f7ec022c5423887b07c69b2f5b48 -->
<g id="edge10" class="edge">
<title>dir_37c90836491b695b472bf98d1be8336b&#45;&gt;dir_2171f7ec022c5423887b07c69b2f5b48</title>
<path fill="none" stroke="#000000" d="M444.7438,-36.1628C434.1772,-45.1154 420.3784,-56.0374 407.475,-65.6982"/>
<polygon fill="#000000" stroke="#000000" points="405.134,-63.076 399.1679,-71.8314 409.2917,-68.7075 405.134,-63.076"/>
<g id="a_edge10&#45;headlabel"><a xlink:href="dir_000300_000089.html" target="_top" xlink:title="15">
<text text-anchor="middle" x="406.3394" y="-56.1568" font-family="Helvetica,sans-Serif" font-size="10.00" fill="#000000">15</text>
</a>
</g>
</g>
<!-- dir_f01815b857f9009bea48e2cb39492245&#45;&gt;dir_4ab6b4cc6a7edbff49100e9123df213f -->
<g id="edge23" class="edge">
<title>dir_f01815b857f9009bea48e2cb39492245&#45;&gt;dir_4ab6b4cc6a7edbff49100e9123df213f</title>
<path fill="none" stroke="#000000" d="M480.0516,-108.1309C467.3231,-129.3663 443.1468,-163.7089 412,-180 338.3259,-218.5346 302.3907,-167.1785 226,-200 220.5281,-202.351 215.2436,-205.717 210.4072,-209.4266"/>
<polygon fill="#000000" stroke="#000000" points="208.1387,-206.7612 202.7371,-215.8757 212.6436,-212.119 208.1387,-206.7612"/>
<g id="a_edge23&#45;headlabel"><a xlink:href="dir_000677_000035.html" target="_top" xlink:title="5">
<text text-anchor="middle" x="209.0628" y="-199.7747" font-family="Helvetica,sans-Serif" font-size="10.00" fill="#000000">5</text>
</a>
</g>
</g>
<!-- dir_f01815b857f9009bea48e2cb39492245&#45;&gt;dir_37c90836491b695b472bf98d1be8336b -->
<g id="edge24" class="edge">
<title>dir_f01815b857f9009bea48e2cb39492245&#45;&gt;dir_37c90836491b695b472bf98d1be8336b</title>
<path fill="none" stroke="#000000" d="M482.9344,-71.8314C479.874,-63.9617 476.2221,-54.5712 472.8318,-45.8533"/>
<polygon fill="#000000" stroke="#000000" points="476.0473,-44.4647 469.1607,-36.4133 469.5232,-47.0019 476.0473,-44.4647"/>
<g id="a_edge24&#45;headlabel"><a xlink:href="dir_000677_000300.html" target="_top" xlink:title="19">
<text text-anchor="middle" x="479.9963" y="-44.2859" font-family="Helvetica,sans-Serif" font-size="10.00" fill="#000000">19</text>
</a>
</g>
</g>
<!-- dir_bcbb2cf9a3d3d83e5515c82071a07177&#45;&gt;dir_4ab6b4cc6a7edbff49100e9123df213f -->
<g id="edge36" class="edge">
<title>dir_bcbb2cf9a3d3d83e5515c82071a07177&#45;&gt;dir_4ab6b4cc6a7edbff49100e9123df213f</title>
<path fill="none" stroke="#000000" d="M337.3634,-173.1922C329.1032,-175.4584 320.2679,-177.8157 312,-180 277.8151,-189.0314 266.3734,-183.6942 235,-200 230.0466,-202.5744 225.1738,-205.8633 220.5031,-209.3773"/>
<polygon fill="#000000" stroke="#000000" points="218.0082,-206.8884 212.3408,-215.84 222.3535,-212.3765 218.0082,-206.8884"/>
<g id="a_edge36&#45;headlabel"><a xlink:href="dir_000062_000035.html" target="_top" xlink:title="8">
<text text-anchor="middle" x="219.0639" y="-199.9311" font-family="Helvetica,sans-Serif" font-size="10.00" fill="#000000">8</text>
</a>
</g>
</g>
<!-- dir_bcbb2cf9a3d3d83e5515c82071a07177&#45;&gt;dir_f01815b857f9009bea48e2cb39492245 -->
<g id="edge37" class="edge">
<title>dir_bcbb2cf9a3d3d83e5515c82071a07177&#45;&gt;dir_f01815b857f9009bea48e2cb39492245</title>
<path fill="none" stroke="#000000" d="M400.2811,-143.8314C416.5997,-134.0402 436.8421,-121.8947 453.9673,-111.6196"/>
<polygon fill="#000000" stroke="#000000" points="455.827,-114.5855 462.6012,-106.4393 452.2255,-108.5831 455.827,-114.5855"/>
<g id="a_edge37&#45;headlabel"><a xlink:href="dir_000062_000677.html" target="_top" xlink:title="2">
<text text-anchor="middle" x="454.2054" y="-116.3695" font-family="Helvetica,sans-Serif" font-size="10.00" fill="#000000">2</text>
</a>
</g>
</g>
<!-- dir_bcbb2cf9a3d3d83e5515c82071a07177&#45;&gt;dir_2171f7ec022c5423887b07c69b2f5b48 -->
<g id="edge38" class="edge">
<title>dir_bcbb2cf9a3d3d83e5515c82071a07177&#45;&gt;dir_2171f7ec022c5423887b07c69b2f5b48</title>
<path fill="none" stroke="#000000" d="M364.0476,-143.8314C363.2972,-136.131 363.0763,-126.9743 363.3849,-118.4166"/>
<polygon fill="#000000" stroke="#000000" points="366.8792,-118.6161 364.024,-108.4133 359.8935,-118.1697 366.8792,-118.6161"/>
<g id="a_edge38&#45;headlabel"><a xlink:href="dir_000062_000089.html" target="_top" xlink:title="73">
<text text-anchor="middle" x="369.4836" y="-119.8844" font-family="Helvetica,sans-Serif" font-size="10.00" fill="#000000">73</text>
</a>
</g>
</g>
<!-- dir_26637d1bd82229bc9ed97f7e706be743&#45;&gt;dir_4ab6b4cc6a7edbff49100e9123df213f -->
<g id="edge39" class="edge">
<title>dir_26637d1bd82229bc9ed97f7e706be743&#45;&gt;dir_4ab6b4cc6a7edbff49100e9123df213f</title>
<path fill="none" stroke="#000000" d="M82.1433,-291.0816C101.5535,-280.4134 127.9023,-265.9316 149.2028,-254.2244"/>
<polygon fill="#000000" stroke="#000000" points="150.9099,-257.28 157.9876,-249.3961 147.5382,-251.1455 150.9099,-257.28"/>
<g id="a_edge39&#45;headlabel"><a xlink:href="dir_000665_000035.html" target="_top" xlink:title="10">
<text text-anchor="middle" x="149.1273" y="-258.9996" font-family="Helvetica,sans-Serif" font-size="10.00" fill="#000000">10</text>
</a>
</g>
</g>
<!-- dir_26637d1bd82229bc9ed97f7e706be743&#45;&gt;dir_bcbb2cf9a3d3d83e5515c82071a07177 -->
<g id="edge40" class="edge">
<title>dir_26637d1bd82229bc9ed97f7e706be743&#45;&gt;dir_bcbb2cf9a3d3d83e5515c82071a07177</title>
<path fill="none" stroke="#000000" d="M65.4618,-287.9949C80.5848,-263.7382 110.9578,-221.1697 149,-200 178.8815,-183.3716 271.826,-171.6701 327.2087,-165.9643"/>
<polygon fill="#000000" stroke="#000000" points="327.8227,-169.4202 337.4218,-164.9361 327.1214,-162.4554 327.8227,-169.4202"/>
<g id="a_edge40&#45;headlabel"><a xlink:href="dir_000665_000062.html" target="_top" xlink:title="25">
<text text-anchor="middle" x="324.5305" y="-170.1052" font-family="Helvetica,sans-Serif" font-size="10.00" fill="#000000">25</text>
</a>
</g>
</g>
<!-- dir_26637d1bd82229bc9ed97f7e706be743&#45;&gt;dir_2171f7ec022c5423887b07c69b2f5b48 -->
<g id="edge41" class="edge">
<title>dir_26637d1bd82229bc9ed97f7e706be743&#45;&gt;dir_2171f7ec022c5423887b07c69b2f5b48</title>
<path fill="none" stroke="#000000" d="M56.1446,-287.8853C58.545,-264.6726 65.979,-224.5124 89,-200 152.021,-132.896 260.9179,-106.0865 323.0206,-95.8708"/>
<polygon fill="#000000" stroke="#000000" points="323.6045,-99.3221 332.9414,-94.3149 322.5198,-92.4067 323.6045,-99.3221"/>
<g id="a_edge41&#45;headlabel"><a xlink:href="dir_000665_000089.html" target="_top" xlink:title="15">
<text text-anchor="middle" x="320.4931" y="-100.184" font-family="Helvetica,sans-Serif" font-size="10.00" fill="#000000">15</text>
</a>
</g>
</g>
<!-- dir_2171f7ec022c5423887b07c69b2f5b48&#45;&gt;dir_4ab6b4cc6a7edbff49100e9123df213f -->
<g id="edge48" class="edge">
<title>dir_2171f7ec022c5423887b07c69b2f5b48&#45;&gt;dir_4ab6b4cc6a7edbff49100e9123df213f</title>
<path fill="none" stroke="#000000" d="M351.6948,-108.3003C325.3056,-129.8241 276.149,-166.8323 235,-200 230.8311,-203.3603 226.469,-206.9689 222.1131,-210.535"/>
<polygon fill="#000000" stroke="#000000" points="219.8904,-207.8312 214.3224,-216.8449 224.2962,-213.2708 219.8904,-207.8312"/>
<g id="a_edge48&#45;headlabel"><a xlink:href="dir_000089_000035.html" target="_top" xlink:title="39">
<text text-anchor="middle" x="220.8968" y="-200.8624" font-family="Helvetica,sans-Serif" font-size="10.00" fill="#000000">39</text>
</a>
</g>
</g>
<!-- dir_2171f7ec022c5423887b07c69b2f5b48&#45;&gt;dir_37c90836491b695b472bf98d1be8336b -->
<g id="edge49" class="edge">
<title>dir_2171f7ec022c5423887b07c69b2f5b48&#45;&gt;dir_37c90836491b695b472bf98d1be8336b</title>
<path fill="none" stroke="#000000" d="M387.2631,-71.8314C398.4203,-62.3787 413.1794,-50.7316 426.6828,-40.6918"/>
<polygon fill="#000000" stroke="#000000" points="428.8869,-43.4158 434.8849,-34.6822 424.7497,-37.7692 428.8869,-43.4158"/>
<g id="a_edge49&#45;headlabel"><a xlink:href="dir_000089_000300.html" target="_top" xlink:title="1">
<text text-anchor="middle" x="427.6654" y="-45.3306" font-family="Helvetica,sans-Serif" font-size="10.00" fill="#000000">1</text>
</a>
</g>
</g>
<!-- dir_2171f7ec022c5423887b07c69b2f5b48&#45;&gt;dir_bcbb2cf9a3d3d83e5515c82071a07177 -->
<g id="edge50" class="edge">
<title>dir_2171f7ec022c5423887b07c69b2f5b48&#45;&gt;dir_bcbb2cf9a3d3d83e5515c82071a07177</title>
<path fill="none" stroke="#000000" d="M375.976,-108.4133C376.7071,-116.0593 376.9203,-125.1084 376.6155,-133.5726"/>
<polygon fill="#000000" stroke="#000000" points="373.1048,-133.6264 375.9524,-143.8314 380.0902,-134.078 373.1048,-133.6264"/>
<g id="a_edge50&#45;headlabel"><a xlink:href="dir_000089_000062.html" target="_top" xlink:title="22">
<text text-anchor="middle" x="370.5032" y="-127.3562" font-family="Helvetica,sans-Serif" font-size="10.00" fill="#000000">22</text>
</a>
</g>
</g>
</g>
</svg>
