<?xml version="1.0" encoding="UTF-8" standalone="no"?>
<!DOCTYPE svg PUBLIC "-//W3C//DTD SVG 1.1//EN"
 "http://www.w3.org/Graphics/SVG/1.1/DTD/svg11.dtd">
<!-- Generated by graphviz version 2.40.1 (20161225.0304)
 -->
<!-- Title: /home/runner/work/AliceO2/AliceO2/Detectors/ITSMFT/MFT/workflow Pages: 1 -->
<!--zoomable 591 -->
<svg id="main" version="1.1" xmlns="http://www.w3.org/2000/svg" xmlns:xlink="http://www.w3.org/1999/xlink" xml:space="preserve" onload="init(evt)">
<style type="text/css"><![CDATA[
.edge:hover path { stroke: red; }
.edge:hover polygon { stroke: red; fill: red; }
]]></style>
<script type="text/javascript"><![CDATA[
var edges = document.getElementsByTagName('g');
if (edges && edges.length) {
  for (var i=0;i<edges.length;i++) {
    if (edges[i].id.substr(0,4)=='edge') {
      edges[i].setAttribute('class','edge');
    }
  }
}
]]></script>
        <defs>
                <circle id="rim" cx="0" cy="0" r="7"/>
                <circle id="rim2" cx="0" cy="0" r="3.5"/>
                <g id="zoomPlus">
                        <use xlink:href="#rim" fill="#404040">
                                <set attributeName="fill" to="#808080" begin="zoomplus.mouseover" end="zoomplus.mouseout"/>
                        </use>
                        <path d="M-4,0h8M0,-4v8" fill="none" stroke="white" stroke-width="1.5" pointer-events="none"/>
                </g>
                <g id="zoomMin">
                        <use xlink:href="#rim" fill="#404040">
                                <set attributeName="fill" to="#808080" begin="zoomminus.mouseover" end="zoomminus.mouseout"/>
                        </use>
                        <path d="M-4,0h8" fill="none" stroke="white" stroke-width="1.5" pointer-events="none"/>
                </g>
                <g id="dirArrow">
                        <path fill="none" stroke="white" stroke-width="1.5" d="M0,-3.0v7 M-2.5,-0.5L0,-3.0L2.5,-0.5"/>
                </g>
               <g id="resetDef">
                       <use xlink:href="#rim2" fill="#404040">
                               <set attributeName="fill" to="#808080" begin="reset.mouseover" end="reset.mouseout"/>
                       </use>
               </g>
        </defs>

<script type="text/javascript">
var viewWidth = 462;
var viewHeight = 591;
var sectionId = 'dynsection-0';
</script>
<script xlink:href="svgpan.js"/>
<svg id="graph" class="graph">
<g id="viewport">
<title>/home/runner/work/AliceO2/AliceO2/Detectors/ITSMFT/MFT/workflow</title>
<g id="clust1" class="cluster">
<title>clusterdir_f39d1cd569ca2d16022b762a0e4a53c8</title>
<g id="a_clust1"><a xlink:href="dir_f39d1cd569ca2d16022b762a0e4a53c8.html" target="_top" xlink:title="MFT">
<polygon fill="#ddddee" stroke="#000000" points="166,-416 166,-575 326,-575 326,-416 166,-416"/>
<text text-anchor="middle" x="246" y="-563" font-family="Helvetica,sans-Serif" font-size="10.00" fill="#000000">MFT</text>
</a>
</g>
</g>
<g id="clust2" class="cluster">
<title>clusterdir_d0619917fd3ee0979a990dc471c60823</title>
<g id="a_clust2"><a xlink:href="dir_d0619917fd3ee0979a990dc471c60823.html" target="_top">
<polygon fill="#eeeeff" stroke="#000000" points="174,-424 174,-548 318,-548 318,-424 174,-424"/>
</a>
</g>
</g>
<!-- dir_d0619917fd3ee0979a990dc471c60823 -->
<g id="node1" class="node">
<title>dir_d0619917fd3ee0979a990dc471c60823</title>
<text text-anchor="middle" x="282" y="-519.5" font-family="Helvetica,sans-Serif" font-size="10.00" fill="#000000">workflow</text>
</g>
<!-- dir_d168fbf481e8f7fe2895d8d2e97998ae -->
<g id="node2" class="node">
<title>dir_d168fbf481e8f7fe2895d8d2e97998ae</title>
<g id="a_node2"><a xlink:href="dir_d168fbf481e8f7fe2895d8d2e97998ae.html" target="_top" xlink:title="include">
<polygon fill="#ffffff" stroke="#ff0000" points="291,-468 237,-468 237,-432 291,-432 291,-468"/>
<text text-anchor="middle" x="264" y="-447.5" font-family="Helvetica,sans-Serif" font-size="10.00" fill="#000000">include</text>
</a>
</g>
</g>
<!-- dir_85bf31a2e8d306e7598ffcb73f8df6bf -->
<g id="node6" class="node">
<title>dir_85bf31a2e8d306e7598ffcb73f8df6bf</title>
<g id="a_node6"><a xlink:href="dir_85bf31a2e8d306e7598ffcb73f8df6bf.html" target="_top" xlink:title="common">
<polygon fill="none" stroke="#ff0000" points="198,-324 144,-324 144,-288 198,-288 198,-324"/>
<text text-anchor="middle" x="171" y="-303.5" font-family="Helvetica,sans-Serif" font-size="10.00" fill="#000000">common</text>
</a>
</g>
</g>
<!-- dir_d168fbf481e8f7fe2895d8d2e97998ae&#45;&gt;dir_85bf31a2e8d306e7598ffcb73f8df6bf -->
<g id="edge17" class="edge">
<title>dir_d168fbf481e8f7fe2895d8d2e97998ae&#45;&gt;dir_85bf31a2e8d306e7598ffcb73f8df6bf</title>
<path fill="none" stroke="#000000" d="M252.2215,-431.7623C236.0795,-406.7682 206.968,-361.6924 188.3347,-332.8409"/>
<polygon fill="#000000" stroke="#000000" points="191.0483,-330.5912 182.6829,-324.0896 185.168,-334.3889 191.0483,-330.5912"/>
<g id="a_edge17&#45;headlabel"><a xlink:href="dir_000444_000071.html" target="_top" xlink:title="1">
<text text-anchor="middle" x="195.3835" y="-329.5704" font-family="Helvetica,sans-Serif" font-size="10.00" fill="#000000">1</text>
</a>
</g>
</g>
<!-- dir_0a8d7fd788ce6274650fdef0765535ce -->
<g id="node7" class="node">
<title>dir_0a8d7fd788ce6274650fdef0765535ce</title>
<g id="a_node7"><a xlink:href="dir_0a8d7fd788ce6274650fdef0765535ce.html" target="_top" xlink:title="tracking">
<polygon fill="none" stroke="#ff0000" points="329,-396 275,-396 275,-360 329,-360 329,-396"/>
<text text-anchor="middle" x="302" y="-375.5" font-family="Helvetica,sans-Serif" font-size="10.00" fill="#000000">tracking</text>
</a>
</g>
</g>
<!-- dir_d168fbf481e8f7fe2895d8d2e97998ae&#45;&gt;dir_0a8d7fd788ce6274650fdef0765535ce -->
<g id="edge18" class="edge">
<title>dir_d168fbf481e8f7fe2895d8d2e97998ae&#45;&gt;dir_0a8d7fd788ce6274650fdef0765535ce</title>
<path fill="none" stroke="#000000" d="M273.589,-431.8314C277.8317,-423.7925 282.9121,-414.1666 287.596,-405.2918"/>
<polygon fill="#000000" stroke="#000000" points="290.7096,-406.8908 292.2819,-396.4133 284.5189,-403.6235 290.7096,-406.8908"/>
<g id="a_edge18&#45;headlabel"><a xlink:href="dir_000444_000128.html" target="_top" xlink:title="1">
<text text-anchor="middle" x="291.5428" y="-408.895" font-family="Helvetica,sans-Serif" font-size="10.00" fill="#000000">1</text>
</a>
</g>
</g>
<!-- dir_bcbb2cf9a3d3d83e5515c82071a07177 -->
<g id="node8" class="node">
<title>dir_bcbb2cf9a3d3d83e5515c82071a07177</title>
<g id="a_node8"><a xlink:href="dir_bcbb2cf9a3d3d83e5515c82071a07177.html" target="_top" xlink:title="Framework">
<polygon fill="none" stroke="#ff0000" points="395.5,-180 330.5,-180 330.5,-144 395.5,-144 395.5,-180"/>
<text text-anchor="middle" x="363" y="-159.5" font-family="Helvetica,sans-Serif" font-size="10.00" fill="#000000">Framework</text>
</a>
</g>
</g>
<!-- dir_d168fbf481e8f7fe2895d8d2e97998ae&#45;&gt;dir_bcbb2cf9a3d3d83e5515c82071a07177 -->
<g id="edge19" class="edge">
<title>dir_d168fbf481e8f7fe2895d8d2e97998ae&#45;&gt;dir_bcbb2cf9a3d3d83e5515c82071a07177</title>
<path fill="none" stroke="#000000" d="M291.0301,-437.4078C307.4147,-428.2967 327.1827,-414.3621 338,-396 376.5746,-330.5208 372.2911,-236.6553 367.0657,-190.2247"/>
<polygon fill="#000000" stroke="#000000" points="370.5367,-189.7744 365.8472,-180.2739 363.5886,-190.6252 370.5367,-189.7744"/>
<g id="a_edge19&#45;headlabel"><a xlink:href="dir_000444_000062.html" target="_top" xlink:title="12">
<text text-anchor="middle" x="373.7918" y="-190.4973" font-family="Helvetica,sans-Serif" font-size="10.00" fill="#000000">12</text>
</a>
</g>
</g>
<!-- dir_2171f7ec022c5423887b07c69b2f5b48 -->
<g id="node9" class="node">
<title>dir_2171f7ec022c5423887b07c69b2f5b48</title>
<g id="a_node9"><a xlink:href="dir_2171f7ec022c5423887b07c69b2f5b48.html" target="_top" xlink:title="DataFormats">
<polygon fill="none" stroke="#ff0000" points="254,-108 180,-108 180,-72 254,-72 254,-108"/>
<text text-anchor="middle" x="217" y="-87.5" font-family="Helvetica,sans-Serif" font-size="10.00" fill="#000000">DataFormats</text>
</a>
</g>
</g>
<!-- dir_d168fbf481e8f7fe2895d8d2e97998ae&#45;&gt;dir_2171f7ec022c5423887b07c69b2f5b48 -->
<g id="edge20" class="edge">
<title>dir_d168fbf481e8f7fe2895d8d2e97998ae&#45;&gt;dir_2171f7ec022c5423887b07c69b2f5b48</title>
<path fill="none" stroke="#000000" d="M236.8361,-438.8091C193.6103,-418.9814 114,-373.3254 114,-306 114,-306 114,-306 114,-234 114,-184.7637 154.3277,-140.7636 184.5151,-114.7245"/>
<polygon fill="#000000" stroke="#000000" points="186.9078,-117.286 192.3289,-108.1831 182.4144,-111.9185 186.9078,-117.286"/>
<g id="a_edge20&#45;headlabel"><a xlink:href="dir_000444_000089.html" target="_top" xlink:title="2">
<text text-anchor="middle" x="185.9741" y="-119.2705" font-family="Helvetica,sans-Serif" font-size="10.00" fill="#000000">2</text>
</a>
</g>
</g>
<!-- dir_3b0d0f2b55fd134f322df5ea2a269c70 -->
<g id="node3" class="node">
<title>dir_3b0d0f2b55fd134f322df5ea2a269c70</title>
<g id="a_node3"><a xlink:href="dir_3b0d0f2b55fd134f322df5ea2a269c70.html" target="_top" xlink:title="src">
<polygon fill="#ffffff" stroke="#000000" points="236,-540 182,-540 182,-504 236,-504 236,-540"/>
<text text-anchor="middle" x="209" y="-519.5" font-family="Helvetica,sans-Serif" font-size="10.00" fill="#000000">src</text>
</a>
</g>
</g>
<!-- dir_3b0d0f2b55fd134f322df5ea2a269c70&#45;&gt;dir_d168fbf481e8f7fe2895d8d2e97998ae -->
<g id="edge4" class="edge">
<title>dir_3b0d0f2b55fd134f322df5ea2a269c70&#45;&gt;dir_d168fbf481e8f7fe2895d8d2e97998ae</title>
<path fill="none" stroke="#000000" d="M222.8788,-503.8314C229.2136,-495.5386 236.8384,-485.557 243.7926,-476.4533"/>
<polygon fill="#000000" stroke="#000000" points="246.6452,-478.4847 249.9343,-468.4133 241.0825,-474.2353 246.6452,-478.4847"/>
<g id="a_edge4&#45;headlabel"><a xlink:href="dir_000454_000444.html" target="_top" xlink:title="12">
<text text-anchor="middle" x="246.7195" y="-480.5647" font-family="Helvetica,sans-Serif" font-size="10.00" fill="#000000">12</text>
</a>
</g>
</g>
<!-- dir_4ab6b4cc6a7edbff49100e9123df213f -->
<g id="node4" class="node">
<title>dir_4ab6b4cc6a7edbff49100e9123df213f</title>
<g id="a_node4"><a xlink:href="dir_4ab6b4cc6a7edbff49100e9123df213f.html" target="_top" xlink:title="Common">
<polygon fill="none" stroke="#ff0000" points="274,-252 218,-252 218,-216 274,-216 274,-252"/>
<text text-anchor="middle" x="246" y="-231.5" font-family="Helvetica,sans-Serif" font-size="10.00" fill="#000000">Common</text>
</a>
</g>
</g>
<!-- dir_3b0d0f2b55fd134f322df5ea2a269c70&#45;&gt;dir_4ab6b4cc6a7edbff49100e9123df213f -->
<g id="edge1" class="edge">
<title>dir_3b0d0f2b55fd134f322df5ea2a269c70&#45;&gt;dir_4ab6b4cc6a7edbff49100e9123df213f</title>
<path fill="none" stroke="#000000" d="M211.3145,-503.9843C217.5699,-455.2939 234.8491,-320.7961 242.3954,-262.0573"/>
<polygon fill="#000000" stroke="#000000" points="245.8835,-262.3734 243.6864,-252.0089 238.9406,-261.4813 245.8835,-262.3734"/>
<g id="a_edge1&#45;headlabel"><a xlink:href="dir_000454_000035.html" target="_top" xlink:title="3">
<text text-anchor="middle" x="248.2417" y="-263.8005" font-family="Helvetica,sans-Serif" font-size="10.00" fill="#000000">3</text>
</a>
</g>
</g>
<!-- dir_37c90836491b695b472bf98d1be8336b -->
<g id="node5" class="node">
<title>dir_37c90836491b695b472bf98d1be8336b</title>
<g id="a_node5"><a xlink:href="dir_37c90836491b695b472bf98d1be8336b.html" target="_top" xlink:title="Base">
<polygon fill="none" stroke="#ff0000" points="211,-36 157,-36 157,0 211,0 211,-36"/>
<text text-anchor="middle" x="184" y="-15.5" font-family="Helvetica,sans-Serif" font-size="10.00" fill="#000000">Base</text>
</a>
</g>
</g>
<!-- dir_3b0d0f2b55fd134f322df5ea2a269c70&#45;&gt;dir_37c90836491b695b472bf98d1be8336b -->
<g id="edge2" class="edge">
<title>dir_3b0d0f2b55fd134f322df5ea2a269c70&#45;&gt;dir_37c90836491b695b472bf98d1be8336b</title>
<path fill="none" stroke="#000000" d="M181.8471,-519.6031C146.2827,-515.1476 83.7877,-502.6286 44,-468 10.4145,-438.7693 0,-422.5244 0,-378 0,-378 0,-378 0,-162 0,-87.9166 93.6474,-46.2476 147.3243,-28.4484"/>
<polygon fill="#000000" stroke="#000000" points="148.3926,-31.7815 156.8502,-25.4003 146.2592,-25.1145 148.3926,-31.7815"/>
<g id="a_edge2&#45;headlabel"><a xlink:href="dir_000454_000300.html" target="_top" xlink:title="3">
<text text-anchor="middle" x="145.8342" y="-33.0811" font-family="Helvetica,sans-Serif" font-size="10.00" fill="#000000">3</text>
</a>
</g>
</g>
<!-- dir_3b0d0f2b55fd134f322df5ea2a269c70&#45;&gt;dir_85bf31a2e8d306e7598ffcb73f8df6bf -->
<g id="edge3" class="edge">
<title>dir_3b0d0f2b55fd134f322df5ea2a269c70&#45;&gt;dir_85bf31a2e8d306e7598ffcb73f8df6bf</title>
<path fill="none" stroke="#000000" d="M203.715,-503.6189C200.8583,-493.2272 197.4289,-479.9589 195,-468 185.5432,-421.4382 178.206,-366.6349 174.2508,-334.1903"/>
<polygon fill="#000000" stroke="#000000" points="177.7054,-333.6015 173.041,-324.0887 170.7551,-334.4339 177.7054,-333.6015"/>
<g id="a_edge3&#45;headlabel"><a xlink:href="dir_000454_000071.html" target="_top" xlink:title="4">
<text text-anchor="middle" x="180.9519" y="-334.333" font-family="Helvetica,sans-Serif" font-size="10.00" fill="#000000">4</text>
</a>
</g>
</g>
<!-- dir_3b0d0f2b55fd134f322df5ea2a269c70&#45;&gt;dir_0a8d7fd788ce6274650fdef0765535ce -->
<g id="edge5" class="edge">
<title>dir_3b0d0f2b55fd134f322df5ea2a269c70&#45;&gt;dir_0a8d7fd788ce6274650fdef0765535ce</title>
<path fill="none" stroke="#000000" d="M236.2292,-507.5908C261.6731,-493.8524 296.2932,-474.3449 300,-468 310.7924,-449.5265 310.6144,-425.0745 308.1126,-406.3206"/>
<polygon fill="#000000" stroke="#000000" points="311.5424,-405.6055 306.4877,-396.2942 304.6326,-406.7253 311.5424,-405.6055"/>
<g id="a_edge5&#45;headlabel"><a xlink:href="dir_000454_000128.html" target="_top" xlink:title="5">
<text text-anchor="middle" x="314.9201" y="-406.1996" font-family="Helvetica,sans-Serif" font-size="10.00" fill="#000000">5</text>
</a>
</g>
</g>
<!-- dir_3b0d0f2b55fd134f322df5ea2a269c70&#45;&gt;dir_bcbb2cf9a3d3d83e5515c82071a07177 -->
<g id="edge6" class="edge">
<title>dir_3b0d0f2b55fd134f322df5ea2a269c70&#45;&gt;dir_bcbb2cf9a3d3d83e5515c82071a07177</title>
<path fill="none" stroke="#000000" d="M236.1188,-508.4206C239.1144,-506.9266 242.1211,-505.4296 245,-504 342.1457,-455.7603 454,-486.4636 454,-378 454,-378 454,-378 454,-306 454,-258.4235 418.0633,-213.776 391.3564,-187.1645"/>
<polygon fill="#000000" stroke="#000000" points="393.7265,-184.5876 384.106,-180.1496 388.8591,-189.6184 393.7265,-184.5876"/>
<g id="a_edge6&#45;headlabel"><a xlink:href="dir_000454_000062.html" target="_top" xlink:title="13">
<text text-anchor="middle" x="398.2841" y="-182.5465" font-family="Helvetica,sans-Serif" font-size="10.00" fill="#000000">13</text>
</a>
</g>
</g>
<!-- dir_3b0d0f2b55fd134f322df5ea2a269c70&#45;&gt;dir_2171f7ec022c5423887b07c69b2f5b48 -->
<g id="edge7" class="edge">
<title>dir_3b0d0f2b55fd134f322df5ea2a269c70&#45;&gt;dir_2171f7ec022c5423887b07c69b2f5b48</title>
<path fill="none" stroke="#000000" d="M181.9045,-513.3372C133.6872,-496.0312 38,-452.3244 38,-378 38,-378 38,-378 38,-234 38,-166.0397 117.302,-124.7526 170.3387,-104.7394"/>
<polygon fill="#000000" stroke="#000000" points="171.7155,-107.9629 179.9111,-101.2485 169.3171,-101.3865 171.7155,-107.9629"/>
<g id="a_edge7&#45;headlabel"><a xlink:href="dir_000454_000089.html" target="_top" xlink:title="30">
<text text-anchor="middle" x="169.3112" y="-109.3618" font-family="Helvetica,sans-Serif" font-size="10.00" fill="#000000">30</text>
</a>
</g>
</g>
<!-- dir_4ab6b4cc6a7edbff49100e9123df213f&#45;&gt;dir_bcbb2cf9a3d3d83e5515c82071a07177 -->
<g id="edge8" class="edge">
<title>dir_4ab6b4cc6a7edbff49100e9123df213f&#45;&gt;dir_bcbb2cf9a3d3d83e5515c82071a07177</title>
<path fill="none" stroke="#000000" d="M269.5716,-215.8314C284.4197,-206.1111 303.8821,-194.0706 321.2417,-183.8433"/>
<polygon fill="#000000" stroke="#000000" points="323.217,-186.7431 330.0925,-178.6822 319.6908,-180.6961 323.217,-186.7431"/>
<g id="a_edge8&#45;headlabel"><a xlink:href="dir_000035_000062.html" target="_top" xlink:title="2">
<text text-anchor="middle" x="321.5419" y="-188.5065" font-family="Helvetica,sans-Serif" font-size="10.00" fill="#000000">2</text>
</a>
</g>
</g>
<!-- dir_4ab6b4cc6a7edbff49100e9123df213f&#45;&gt;dir_2171f7ec022c5423887b07c69b2f5b48 -->
<g id="edge9" class="edge">
<title>dir_4ab6b4cc6a7edbff49100e9123df213f&#45;&gt;dir_2171f7ec022c5423887b07c69b2f5b48</title>
<path fill="none" stroke="#000000" d="M237.654,-215.7623C230.2478,-191.201 221.1213,-147.2474 217.2128,-118.3541"/>
<polygon fill="#000000" stroke="#000000" points="220.648,-117.603 215.9848,-108.0896 213.6975,-118.4346 220.648,-117.603"/>
<g id="a_edge9&#45;headlabel"><a xlink:href="dir_000035_000089.html" target="_top" xlink:title="2">
<text text-anchor="middle" x="223.8941" y="-118.3349" font-family="Helvetica,sans-Serif" font-size="10.00" fill="#000000">2</text>
</a>
</g>
</g>
<!-- dir_37c90836491b695b472bf98d1be8336b&#45;&gt;dir_4ab6b4cc6a7edbff49100e9123df213f -->
<g id="edge10" class="edge">
<title>dir_37c90836491b695b472bf98d1be8336b&#45;&gt;dir_4ab6b4cc6a7edbff49100e9123df213f</title>
<path fill="none" stroke="#000000" d="M177.0602,-36.2019C171.0532,-54.5777 164.3001,-83.6453 171,-108 181.389,-145.765 206.3814,-183.6488 224.6709,-207.8672"/>
<polygon fill="#000000" stroke="#000000" points="221.9447,-210.0635 230.8256,-215.8411 227.486,-205.7863 221.9447,-210.0635"/>
<g id="a_edge10&#45;headlabel"><a xlink:href="dir_000300_000035.html" target="_top" xlink:title="16">
<text text-anchor="middle" x="217.5008" y="-206.4528" font-family="Helvetica,sans-Serif" font-size="10.00" fill="#000000">16</text>
</a>
</g>
</g>
<!-- dir_37c90836491b695b472bf98d1be8336b&#45;&gt;dir_bcbb2cf9a3d3d83e5515c82071a07177 -->
<g id="edge11" class="edge">
<title>dir_37c90836491b695b472bf98d1be8336b&#45;&gt;dir_bcbb2cf9a3d3d83e5515c82071a07177</title>
<path fill="none" stroke="#000000" d="M211.3273,-35.3836C226.8405,-45.569 246.4127,-58.9608 263,-72 289.2614,-92.644 317.3902,-118.3108 337.1039,-136.9455"/>
<polygon fill="#000000" stroke="#000000" points="334.8275,-139.6107 344.4856,-143.9665 339.6518,-134.5386 334.8275,-139.6107"/>
<g id="a_edge11&#45;headlabel"><a xlink:href="dir_000300_000062.html" target="_top" xlink:title="1">
<text text-anchor="middle" x="330.2662" y="-136.6907" font-family="Helvetica,sans-Serif" font-size="10.00" fill="#000000">1</text>
</a>
</g>
</g>
<!-- dir_37c90836491b695b472bf98d1be8336b&#45;&gt;dir_2171f7ec022c5423887b07c69b2f5b48 -->
<g id="edge12" class="edge">
<title>dir_37c90836491b695b472bf98d1be8336b&#45;&gt;dir_2171f7ec022c5423887b07c69b2f5b48</title>
<path fill="none" stroke="#000000" d="M198.4154,-36.4133C202.7921,-44.3141 207.3025,-53.7132 210.941,-62.417"/>
<polygon fill="#000000" stroke="#000000" points="207.7216,-63.7944 214.6251,-71.8314 214.2402,-61.2435 207.7216,-63.7944"/>
<g id="a_edge12&#45;headlabel"><a xlink:href="dir_000300_000089.html" target="_top" xlink:title="15">
<text text-anchor="middle" x="203.7677" y="-58.9817" font-family="Helvetica,sans-Serif" font-size="10.00" fill="#000000">15</text>
</a>
</g>
</g>
<!-- dir_85bf31a2e8d306e7598ffcb73f8df6bf&#45;&gt;dir_4ab6b4cc6a7edbff49100e9123df213f -->
<g id="edge13" class="edge">
<title>dir_85bf31a2e8d306e7598ffcb73f8df6bf&#45;&gt;dir_4ab6b4cc6a7edbff49100e9123df213f</title>
<path fill="none" stroke="#000000" d="M189.9257,-287.8314C198.9857,-279.1337 209.9809,-268.5783 219.8265,-259.1265"/>
<polygon fill="#000000" stroke="#000000" points="222.2904,-261.613 227.0804,-252.1628 217.4426,-256.5633 222.2904,-261.613"/>
<g id="a_edge13&#45;headlabel"><a xlink:href="dir_000071_000035.html" target="_top" xlink:title="21">
<text text-anchor="middle" x="221.6636" y="-263.6506" font-family="Helvetica,sans-Serif" font-size="10.00" fill="#000000">21</text>
</a>
</g>
</g>
<!-- dir_85bf31a2e8d306e7598ffcb73f8df6bf&#45;&gt;dir_37c90836491b695b472bf98d1be8336b -->
<g id="edge14" class="edge">
<title>dir_85bf31a2e8d306e7598ffcb73f8df6bf&#45;&gt;dir_37c90836491b695b472bf98d1be8336b</title>
<path fill="none" stroke="#000000" d="M167.945,-287.9064C161.8147,-248.361 149.7667,-151.4112 164,-72 165.5973,-63.0882 168.5674,-53.7238 171.7391,-45.3422"/>
<polygon fill="#000000" stroke="#000000" points="174.996,-46.6241 175.4849,-36.0406 168.5027,-44.0093 174.996,-46.6241"/>
<g id="a_edge14&#45;headlabel"><a xlink:href="dir_000071_000300.html" target="_top" xlink:title="3">
<text text-anchor="middle" x="176.287" y="-48.5191" font-family="Helvetica,sans-Serif" font-size="10.00" fill="#000000">3</text>
</a>
</g>
</g>
<!-- dir_85bf31a2e8d306e7598ffcb73f8df6bf&#45;&gt;dir_bcbb2cf9a3d3d83e5515c82071a07177 -->
<g id="edge15" class="edge">
<title>dir_85bf31a2e8d306e7598ffcb73f8df6bf&#45;&gt;dir_bcbb2cf9a3d3d83e5515c82071a07177</title>
<path fill="none" stroke="#000000" d="M198.0017,-296.4743C221.7843,-287.3025 256.6418,-271.901 283,-252 306.9802,-233.8944 329.251,-207.7495 344.1728,-188.2997"/>
<polygon fill="#000000" stroke="#000000" points="347.0857,-190.2495 350.2962,-180.1527 341.49,-186.0437 347.0857,-190.2495"/>
<g id="a_edge15&#45;headlabel"><a xlink:href="dir_000071_000062.html" target="_top" xlink:title="35">
<text text-anchor="middle" x="347.1957" y="-192.3288" font-family="Helvetica,sans-Serif" font-size="10.00" fill="#000000">35</text>
</a>
</g>
</g>
<!-- dir_85bf31a2e8d306e7598ffcb73f8df6bf&#45;&gt;dir_2171f7ec022c5423887b07c69b2f5b48 -->
<g id="edge16" class="edge">
<title>dir_85bf31a2e8d306e7598ffcb73f8df6bf&#45;&gt;dir_2171f7ec022c5423887b07c69b2f5b48</title>
<path fill="none" stroke="#000000" d="M170.8969,-287.9555C175.4642,-250.235 193.8275,-162.8188 206.3659,-117.8399"/>
<polygon fill="#000000" stroke="#000000" points="209.7536,-118.7244 209.1806,-108.1451 203.0312,-116.7726 209.7536,-118.7244"/>
<g id="a_edge16&#45;headlabel"><a xlink:href="dir_000071_000089.html" target="_top" xlink:title="74">
<text text-anchor="middle" x="211.4781" y="-120.4681" font-family="Helvetica,sans-Serif" font-size="10.00" fill="#000000">74</text>
</a>
</g>
</g>
<!-- dir_0a8d7fd788ce6274650fdef0765535ce&#45;&gt;dir_4ab6b4cc6a7edbff49100e9123df213f -->
<g id="edge21" class="edge">
<title>dir_0a8d7fd788ce6274650fdef0765535ce&#45;&gt;dir_4ab6b4cc6a7edbff49100e9123df213f</title>
<path fill="none" stroke="#000000" d="M294.9076,-359.7623C285.2718,-334.9846 267.9611,-290.4714 256.731,-261.5939"/>
<polygon fill="#000000" stroke="#000000" points="259.9214,-260.1411 253.0349,-252.0896 253.3974,-262.6783 259.9214,-260.1411"/>
<g id="a_edge21&#45;headlabel"><a xlink:href="dir_000128_000035.html" target="_top" xlink:title="12">
<text text-anchor="middle" x="263.8704" y="-259.9622" font-family="Helvetica,sans-Serif" font-size="10.00" fill="#000000">12</text>
</a>
</g>
</g>
<!-- dir_0a8d7fd788ce6274650fdef0765535ce&#45;&gt;dir_85bf31a2e8d306e7598ffcb73f8df6bf -->
<g id="edge22" class="edge">
<title>dir_0a8d7fd788ce6274650fdef0765535ce&#45;&gt;dir_85bf31a2e8d306e7598ffcb73f8df6bf</title>
<path fill="none" stroke="#000000" d="M274.8567,-363.0816C255.1842,-352.2692 228.3843,-337.5395 206.9364,-325.7513"/>
<polygon fill="#000000" stroke="#000000" points="208.5579,-322.6488 198.1085,-320.8993 205.1863,-328.7833 208.5579,-322.6488"/>
<g id="a_edge22&#45;headlabel"><a xlink:href="dir_000128_000071.html" target="_top" xlink:title="2">
<text text-anchor="middle" x="213.0756" y="-319.3919" font-family="Helvetica,sans-Serif" font-size="10.00" fill="#000000">2</text>
</a>
</g>
</g>
<!-- dir_0a8d7fd788ce6274650fdef0765535ce&#45;&gt;dir_bcbb2cf9a3d3d83e5515c82071a07177 -->
<g id="edge23" class="edge">
<title>dir_0a8d7fd788ce6274650fdef0765535ce&#45;&gt;dir_bcbb2cf9a3d3d83e5515c82071a07177</title>
<path fill="none" stroke="#000000" d="M307.0959,-359.9555C317.7485,-322.235 342.4354,-234.8188 355.1378,-189.8399"/>
<polygon fill="#000000" stroke="#000000" points="358.5261,-190.7199 357.8757,-180.1451 351.7896,-188.8174 358.5261,-190.7199"/>
<g id="a_edge23&#45;headlabel"><a xlink:href="dir_000128_000062.html" target="_top" xlink:title="1">
<text text-anchor="middle" x="360.2817" y="-192.4509" font-family="Helvetica,sans-Serif" font-size="10.00" fill="#000000">1</text>
</a>
</g>
</g>
<!-- dir_0a8d7fd788ce6274650fdef0765535ce&#45;&gt;dir_2171f7ec022c5423887b07c69b2f5b48 -->
<g id="edge24" class="edge">
<title>dir_0a8d7fd788ce6274650fdef0765535ce&#45;&gt;dir_2171f7ec022c5423887b07c69b2f5b48</title>
<path fill="none" stroke="#000000" d="M301.436,-359.7343C300.1514,-329.429 296.0221,-267.0359 283,-216 274.4709,-182.5728 270.2907,-174.4095 254,-144 249.0611,-134.7806 242.8914,-125.2111 237.0142,-116.7346"/>
<polygon fill="#000000" stroke="#000000" points="239.7058,-114.4801 231.0592,-108.3574 234.0004,-118.5358 239.7058,-114.4801"/>
<g id="a_edge24&#45;headlabel"><a xlink:href="dir_000128_000089.html" target="_top" xlink:title="20">
<text text-anchor="middle" x="244.1026" y="-113.2649" font-family="Helvetica,sans-Serif" font-size="10.00" fill="#000000">20</text>
</a>
</g>
</g>
<!-- dir_bcbb2cf9a3d3d83e5515c82071a07177&#45;&gt;dir_4ab6b4cc6a7edbff49100e9123df213f -->
<g id="edge25" class="edge">
<title>dir_bcbb2cf9a3d3d83e5515c82071a07177&#45;&gt;dir_4ab6b4cc6a7edbff49100e9123df213f</title>
<path fill="none" stroke="#000000" d="M339.3751,-180.2035C323.0992,-190.8566 301.297,-204.2875 282.7955,-215.0643"/>
<polygon fill="#000000" stroke="#000000" points="280.9373,-212.0954 274.0168,-220.1177 284.4296,-218.1621 280.9373,-212.0954"/>
<g id="a_edge25&#45;headlabel"><a xlink:href="dir_000062_000035.html" target="_top" xlink:title="8">
<text text-anchor="middle" x="282.6362" y="-205.3414" font-family="Helvetica,sans-Serif" font-size="10.00" fill="#000000">8</text>
</a>
</g>
</g>
<!-- dir_bcbb2cf9a3d3d83e5515c82071a07177&#45;&gt;dir_2171f7ec022c5423887b07c69b2f5b48 -->
<g id="edge26" class="edge">
<title>dir_bcbb2cf9a3d3d83e5515c82071a07177&#45;&gt;dir_2171f7ec022c5423887b07c69b2f5b48</title>
<path fill="none" stroke="#000000" d="M330.4928,-148.6261C308.6163,-138.5376 279.765,-124.4625 256.575,-112.6322"/>
<polygon fill="#000000" stroke="#000000" points="258.1629,-109.5131 247.6689,-108.0543 254.9627,-115.7388 258.1629,-109.5131"/>
<g id="a_edge26&#45;headlabel"><a xlink:href="dir_000062_000089.html" target="_top" xlink:title="73">
<text text-anchor="middle" x="262.6578" y="-106.1312" font-family="Helvetica,sans-Serif" font-size="10.00" fill="#000000">73</text>
</a>
</g>
</g>
<!-- dir_2171f7ec022c5423887b07c69b2f5b48&#45;&gt;dir_4ab6b4cc6a7edbff49100e9123df213f -->
<g id="edge27" class="edge">
<title>dir_2171f7ec022c5423887b07c69b2f5b48&#45;&gt;dir_4ab6b4cc6a7edbff49100e9123df213f</title>
<path fill="none" stroke="#000000" d="M225.3013,-108.0896C232.7006,-132.5727 241.8341,-176.5174 245.7636,-205.4713"/>
<polygon fill="#000000" stroke="#000000" points="242.332,-206.2514 247.0003,-215.7623 249.282,-205.4161 242.332,-206.2514"/>
<g id="a_edge27&#45;headlabel"><a xlink:href="dir_000089_000035.html" target="_top" xlink:title="39">
<text text-anchor="middle" x="239.0842" y="-200.5212" font-family="Helvetica,sans-Serif" font-size="10.00" fill="#000000">39</text>
</a>
</g>
</g>
<!-- dir_2171f7ec022c5423887b07c69b2f5b48&#45;&gt;dir_37c90836491b695b472bf98d1be8336b -->
<g id="edge28" class="edge">
<title>dir_2171f7ec022c5423887b07c69b2f5b48&#45;&gt;dir_37c90836491b695b472bf98d1be8336b</title>
<path fill="none" stroke="#000000" d="M202.7203,-71.8314C198.3465,-63.9617 193.8286,-54.5712 190.1721,-45.8533"/>
<polygon fill="#000000" stroke="#000000" points="193.3777,-44.4409 186.4634,-36.4133 186.8625,-47.0006 193.3777,-44.4409"/>
<g id="a_edge28&#45;headlabel"><a xlink:href="dir_000089_000300.html" target="_top" xlink:title="1">
<text text-anchor="middle" x="197.3347" y="-44.2484" font-family="Helvetica,sans-Serif" font-size="10.00" fill="#000000">1</text>
</a>
</g>
</g>
<!-- dir_2171f7ec022c5423887b07c69b2f5b48&#45;&gt;dir_85bf31a2e8d306e7598ffcb73f8df6bf -->
<g id="edge29" class="edge">
<title>dir_2171f7ec022c5423887b07c69b2f5b48&#45;&gt;dir_85bf31a2e8d306e7598ffcb73f8df6bf</title>
<path fill="none" stroke="#000000" d="M217.0909,-108.1451C212.4991,-145.9537 194.1288,-233.3762 181.6007,-278.2797"/>
<polygon fill="#000000" stroke="#000000" points="178.2186,-277.376 178.7887,-287.9555 184.9405,-279.3296 178.2186,-277.376"/>
<g id="a_edge29&#45;headlabel"><a xlink:href="dir_000089_000071.html" target="_top" xlink:title="1">
<text text-anchor="middle" x="176.4952" y="-270.6319" font-family="Helvetica,sans-Serif" font-size="10.00" fill="#000000">1</text>
</a>
</g>
</g>
<!-- dir_2171f7ec022c5423887b07c69b2f5b48&#45;&gt;dir_bcbb2cf9a3d3d83e5515c82071a07177 -->
<g id="edge30" class="edge">
<title>dir_2171f7ec022c5423887b07c69b2f5b48&#45;&gt;dir_bcbb2cf9a3d3d83e5515c82071a07177</title>
<path fill="none" stroke="#000000" d="M254.0492,-105.479C275.1933,-115.3249 301.6155,-128.2458 323.1904,-139.2481"/>
<polygon fill="#000000" stroke="#000000" points="321.6163,-142.3742 332.1104,-143.8314 324.8154,-136.148 321.6163,-142.3742"/>
<g id="a_edge30&#45;headlabel"><a xlink:href="dir_000089_000062.html" target="_top" xlink:title="22">
<text text-anchor="middle" x="317.1214" y="-140.7569" font-family="Helvetica,sans-Serif" font-size="10.00" fill="#000000">22</text>
</a>
</g>
</g>
</g>
</svg>
        <g id="navigator" transform="translate(0 0)" fill="#404254">
                <rect fill="#f2f5e9" fill-opacity="0.5" stroke="#606060" stroke-width=".5" x="0" y="0" width="60" height="60"/>
                <use id="zoomplus" xlink:href="#zoomPlus" x="17" y="9" onmousedown="handleZoom(evt,'in')"/>
                <use id="zoomminus" xlink:href="#zoomMin" x="42" y="9" onmousedown="handleZoom(evt,'out')"/>
                <use id="reset" xlink:href="#resetDef" x="30" y="36" onmousedown="handleReset()"/>
                <g id="arrowUp" xlink:href="#dirArrow" transform="translate(30 24)" onmousedown="handlePan(0,-1)">
                  <use xlink:href="#rim" fill="#404040">
                        <set attributeName="fill" to="#808080" begin="arrowUp.mouseover" end="arrowUp.mouseout"/>
                  </use>
                  <path fill="none" stroke="white" stroke-width="1.5" d="M0,-3.0v7 M-2.5,-0.5L0,-3.0L2.5,-0.5"/>
                </g>
                <g id="arrowRight" xlink:href="#dirArrow" transform="rotate(90) translate(36 -43)" onmousedown="handlePan(1,0)">
                  <use xlink:href="#rim" fill="#404040">
                        <set attributeName="fill" to="#808080" begin="arrowRight.mouseover" end="arrowRight.mouseout"/>
                  </use>
                  <path fill="none" stroke="white" stroke-width="1.5" d="M0,-3.0v7 M-2.5,-0.5L0,-3.0L2.5,-0.5"/>
                </g>
                <g id="arrowDown" xlink:href="#dirArrow" transform="rotate(180) translate(-30 -48)" onmousedown="handlePan(0,1)">
                  <use xlink:href="#rim" fill="#404040">
                        <set attributeName="fill" to="#808080" begin="arrowDown.mouseover" end="arrowDown.mouseout"/>
                  </use>
                  <path fill="none" stroke="white" stroke-width="1.5" d="M0,-3.0v7 M-2.5,-0.5L0,-3.0L2.5,-0.5"/>
                </g>
                <g id="arrowLeft" xlink:href="#dirArrow" transform="rotate(270) translate(-36 17)" onmousedown="handlePan(-1,0)">
                  <use xlink:href="#rim" fill="#404040">
                        <set attributeName="fill" to="#808080" begin="arrowLeft.mouseover" end="arrowLeft.mouseout"/>
                  </use>
                  <path fill="none" stroke="white" stroke-width="1.5" d="M0,-3.0v7 M-2.5,-0.5L0,-3.0L2.5,-0.5"/>
                </g>
        </g>
        <svg viewBox="0 0 15 15" width="100%" height="30px" preserveAspectRatio="xMaxYMin meet">
         <g id="arrow_out" transform="scale(0.3 0.3)">
          <a xlink:href="dir_d0619917fd3ee0979a990dc471c60823_dep_org.svg" target="_base">
           <rect id="button" ry="5" rx="5" y="6" x="6" height="38" width="38"
                fill="#f2f5e9" fill-opacity="0.5" stroke="#606060" stroke-width="1.0"/>
           <path id="arrow"
             d="M 11.500037,31.436501 C 11.940474,20.09759 22.043105,11.32322 32.158766,21.979434 L 37.068811,17.246167 C 37.068811,17.246167 37.088388,32 37.088388,32 L 22.160133,31.978069 C 22.160133,31.978069 26.997745,27.140456 26.997745,27.140456 C 18.528582,18.264221 13.291696,25.230495 11.500037,31.436501 z"
             style="fill:#404040;"/>
          </a>
         </g>
        </svg>
</svg>
