<?xml version="1.0" encoding="UTF-8" standalone="no"?>
<!DOCTYPE svg PUBLIC "-//W3C//DTD SVG 1.1//EN"
 "http://www.w3.org/Graphics/SVG/1.1/DTD/svg11.dtd">
<!-- Generated by graphviz version 2.40.1 (20161225.0304)
 -->
<!-- Title: /home/runner/work/AliceO2/AliceO2/Detectors/MUON/MCH/Simulation/include/MCHSimulation Pages: 1 -->
<svg width="195pt" height="295pt"
 viewBox="0.00 0.00 195.00 295.00" xmlns="http://www.w3.org/2000/svg" xmlns:xlink="http://www.w3.org/1999/xlink">
<g id="graph0" class="graph" transform="scale(1 1) rotate(0) translate(4 291)">
<title>/home/runner/work/AliceO2/AliceO2/Detectors/MUON/MCH/Simulation/include/MCHSimulation</title>
<g id="clust1" class="cluster">
<title>clusterdir_3dca47489aa3153ac3c60c079f5f624d</title>
<g id="a_clust1"><a xlink:href="dir_3dca47489aa3153ac3c60c079f5f624d.html" target="_top" xlink:title="include">
<polygon fill="#ddddee" stroke="#000000" points="77,-208 77,-279 179,-279 179,-208 77,-208"/>
<text text-anchor="middle" x="128" y="-267" font-family="Helvetica,sans-Serif" font-size="10.00" fill="#000000">include</text>
</a>
</g>
</g>
<!-- dir_f643931fe0624a51e13d41070e49a954 -->
<g id="node1" class="node">
<title>dir_f643931fe0624a51e13d41070e49a954</title>
<g id="a_node1"><a xlink:href="dir_f643931fe0624a51e13d41070e49a954.html" target="_top" xlink:title="MCHSimulation">
<polygon fill="#eeeeff" stroke="#000000" points="171,-252 85,-252 85,-216 171,-216 171,-252"/>
<text text-anchor="middle" x="128" y="-231.5" font-family="Helvetica,sans-Serif" font-size="10.00" fill="#000000">MCHSimulation</text>
</a>
</g>
</g>
<!-- dir_4ab6b4cc6a7edbff49100e9123df213f -->
<g id="node2" class="node">
<title>dir_4ab6b4cc6a7edbff49100e9123df213f</title>
<g id="a_node2"><a xlink:href="dir_4ab6b4cc6a7edbff49100e9123df213f.html" target="_top" xlink:title="Common">
<polygon fill="none" stroke="#ff0000" points="56,-180 0,-180 0,-144 56,-144 56,-180"/>
<text text-anchor="middle" x="28" y="-159.5" font-family="Helvetica,sans-Serif" font-size="10.00" fill="#000000">Common</text>
</a>
</g>
</g>
<!-- dir_f643931fe0624a51e13d41070e49a954&#45;&gt;dir_4ab6b4cc6a7edbff49100e9123df213f -->
<g id="edge4" class="edge">
<title>dir_f643931fe0624a51e13d41070e49a954&#45;&gt;dir_4ab6b4cc6a7edbff49100e9123df213f</title>
<path fill="none" stroke="#000000" d="M102.7658,-215.8314C90.212,-206.7927 74.8717,-195.7476 61.3609,-186.0198"/>
<polygon fill="#000000" stroke="#000000" points="63.3866,-183.1655 53.2261,-180.1628 59.2964,-188.8463 63.3866,-183.1655"/>
<g id="a_edge4&#45;headlabel"><a xlink:href="dir_000229_000035.html" target="_top" xlink:title="1">
<text text-anchor="middle" x="67.9627" y="-180.4617" font-family="Helvetica,sans-Serif" font-size="10.00" fill="#000000">1</text>
</a>
</g>
</g>
<!-- dir_1155c84989a046e7de4bf0156dc4b34c -->
<g id="node3" class="node">
<title>dir_1155c84989a046e7de4bf0156dc4b34c</title>
<g id="a_node3"><a xlink:href="dir_1155c84989a046e7de4bf0156dc4b34c.html" target="_top" xlink:title="Base">
<polygon fill="none" stroke="#ff0000" points="128,-180 74,-180 74,-144 128,-144 128,-180"/>
<text text-anchor="middle" x="101" y="-159.5" font-family="Helvetica,sans-Serif" font-size="10.00" fill="#000000">Base</text>
</a>
</g>
</g>
<!-- dir_f643931fe0624a51e13d41070e49a954&#45;&gt;dir_1155c84989a046e7de4bf0156dc4b34c -->
<g id="edge5" class="edge">
<title>dir_f643931fe0624a51e13d41070e49a954&#45;&gt;dir_1155c84989a046e7de4bf0156dc4b34c</title>
<path fill="none" stroke="#000000" d="M121.1868,-215.8314C118.2356,-207.9617 114.7142,-198.5712 111.445,-189.8533"/>
<polygon fill="#000000" stroke="#000000" points="114.6934,-188.5476 107.905,-180.4133 108.1391,-191.0055 114.6934,-188.5476"/>
<g id="a_edge5&#45;headlabel"><a xlink:href="dir_000229_000150.html" target="_top" xlink:title="2">
<text text-anchor="middle" x="118.614" y="-188.4164" font-family="Helvetica,sans-Serif" font-size="10.00" fill="#000000">2</text>
</a>
</g>
</g>
<!-- dir_37c90836491b695b472bf98d1be8336b -->
<g id="node4" class="node">
<title>dir_37c90836491b695b472bf98d1be8336b</title>
<g id="a_node4"><a xlink:href="dir_37c90836491b695b472bf98d1be8336b.html" target="_top" xlink:title="Base">
<polygon fill="none" stroke="#ff0000" points="120,-36 66,-36 66,0 120,0 120,-36"/>
<text text-anchor="middle" x="93" y="-15.5" font-family="Helvetica,sans-Serif" font-size="10.00" fill="#000000">Base</text>
</a>
</g>
</g>
<!-- dir_f643931fe0624a51e13d41070e49a954&#45;&gt;dir_37c90836491b695b472bf98d1be8336b -->
<g id="edge6" class="edge">
<title>dir_f643931fe0624a51e13d41070e49a954&#45;&gt;dir_37c90836491b695b472bf98d1be8336b</title>
<path fill="none" stroke="#000000" d="M139.3196,-215.7678C144.9396,-205.6415 151.1294,-192.5789 154,-180 157.5597,-164.401 155.6403,-159.9157 154,-144 150.649,-111.4852 153.3789,-101.3546 139,-72 134.0735,-61.9425 126.8425,-52.2164 119.5659,-43.8553"/>
<polygon fill="#000000" stroke="#000000" points="121.9803,-41.3091 112.6492,-36.291 116.8144,-46.0328 121.9803,-41.3091"/>
<g id="a_edge6&#45;headlabel"><a xlink:href="dir_000229_000300.html" target="_top" xlink:title="1">
<text text-anchor="middle" x="126.5013" y="-39.5458" font-family="Helvetica,sans-Serif" font-size="10.00" fill="#000000">1</text>
</a>
</g>
</g>
<!-- dir_2171f7ec022c5423887b07c69b2f5b48 -->
<g id="node5" class="node">
<title>dir_2171f7ec022c5423887b07c69b2f5b48</title>
<g id="a_node5"><a xlink:href="dir_2171f7ec022c5423887b07c69b2f5b48.html" target="_top" xlink:title="DataFormats">
<polygon fill="none" stroke="#ff0000" points="130,-108 56,-108 56,-72 130,-72 130,-108"/>
<text text-anchor="middle" x="93" y="-87.5" font-family="Helvetica,sans-Serif" font-size="10.00" fill="#000000">DataFormats</text>
</a>
</g>
</g>
<!-- dir_f643931fe0624a51e13d41070e49a954&#45;&gt;dir_2171f7ec022c5423887b07c69b2f5b48 -->
<g id="edge7" class="edge">
<title>dir_f643931fe0624a51e13d41070e49a954&#45;&gt;dir_2171f7ec022c5423887b07c69b2f5b48</title>
<path fill="none" stroke="#000000" d="M134.2997,-215.8571C139.7306,-197.2751 145.4753,-167.8188 137,-144 133.4122,-133.9169 127.0465,-124.3517 120.2524,-116.1515"/>
<polygon fill="#000000" stroke="#000000" points="122.6596,-113.591 113.4026,-108.4375 117.4253,-118.2389 122.6596,-113.591"/>
<g id="a_edge7&#45;headlabel"><a xlink:href="dir_000229_000089.html" target="_top" xlink:title="3">
<text text-anchor="middle" x="127.1694" y="-111.8936" font-family="Helvetica,sans-Serif" font-size="10.00" fill="#000000">3</text>
</a>
</g>
</g>
<!-- dir_4ab6b4cc6a7edbff49100e9123df213f&#45;&gt;dir_2171f7ec022c5423887b07c69b2f5b48 -->
<g id="edge1" class="edge">
<title>dir_4ab6b4cc6a7edbff49100e9123df213f&#45;&gt;dir_2171f7ec022c5423887b07c69b2f5b48</title>
<path fill="none" stroke="#000000" d="M38.4499,-143.8314C45.3326,-135.2848 54.4872,-124.9443 63.3768,-115.6198"/>
<polygon fill="#000000" stroke="#000000" points="65.9275,-118.0174 70.4009,-108.4133 60.9146,-113.1315 65.9275,-118.0174"/>
<g id="a_edge1&#45;headlabel"><a xlink:href="dir_000035_000089.html" target="_top" xlink:title="2">
<text text-anchor="middle" x="65.4518" y="-120.0733" font-family="Helvetica,sans-Serif" font-size="10.00" fill="#000000">2</text>
</a>
</g>
</g>
<!-- dir_37c90836491b695b472bf98d1be8336b&#45;&gt;dir_4ab6b4cc6a7edbff49100e9123df213f -->
<g id="edge2" class="edge">
<title>dir_37c90836491b695b472bf98d1be8336b&#45;&gt;dir_4ab6b4cc6a7edbff49100e9123df213f</title>
<path fill="none" stroke="#000000" d="M73.3657,-36.2983C64.0335,-46.0427 53.5186,-58.7369 47,-72 37.461,-91.4086 32.6973,-115.4681 30.326,-133.8268"/>
<polygon fill="#000000" stroke="#000000" points="26.8329,-133.5694 29.1883,-143.8991 33.7887,-134.3552 26.8329,-133.5694"/>
<g id="a_edge2&#45;headlabel"><a xlink:href="dir_000300_000035.html" target="_top" xlink:title="16">
<text text-anchor="middle" x="24.4149" y="-127.1789" font-family="Helvetica,sans-Serif" font-size="10.00" fill="#000000">16</text>
</a>
</g>
</g>
<!-- dir_37c90836491b695b472bf98d1be8336b&#45;&gt;dir_2171f7ec022c5423887b07c69b2f5b48 -->
<g id="edge3" class="edge">
<title>dir_37c90836491b695b472bf98d1be8336b&#45;&gt;dir_2171f7ec022c5423887b07c69b2f5b48</title>
<path fill="none" stroke="#000000" d="M98.976,-36.4133C99.7071,-44.0593 99.9203,-53.1084 99.6155,-61.5726"/>
<polygon fill="#000000" stroke="#000000" points="96.1048,-61.6264 98.9524,-71.8314 103.0902,-62.078 96.1048,-61.6264"/>
<g id="a_edge3&#45;headlabel"><a xlink:href="dir_000300_000089.html" target="_top" xlink:title="15">
<text text-anchor="middle" x="93.5032" y="-55.3562" font-family="Helvetica,sans-Serif" font-size="10.00" fill="#000000">15</text>
</a>
</g>
</g>
<!-- dir_2171f7ec022c5423887b07c69b2f5b48&#45;&gt;dir_4ab6b4cc6a7edbff49100e9123df213f -->
<g id="edge8" class="edge">
<title>dir_2171f7ec022c5423887b07c69b2f5b48&#45;&gt;dir_4ab6b4cc6a7edbff49100e9123df213f</title>
<path fill="none" stroke="#000000" d="M82.3529,-108.4133C75.4271,-116.9938 66.2537,-127.3414 57.3693,-136.6463"/>
<polygon fill="#000000" stroke="#000000" points="54.836,-134.2309 50.3546,-143.8314 59.8448,-139.1209 54.836,-134.2309"/>
<g id="a_edge8&#45;headlabel"><a xlink:href="dir_000089_000035.html" target="_top" xlink:title="39">
<text text-anchor="middle" x="55.3154" y="-127.1754" font-family="Helvetica,sans-Serif" font-size="10.00" fill="#000000">39</text>
</a>
</g>
</g>
<!-- dir_2171f7ec022c5423887b07c69b2f5b48&#45;&gt;dir_37c90836491b695b472bf98d1be8336b -->
<g id="edge9" class="edge">
<title>dir_2171f7ec022c5423887b07c69b2f5b48&#45;&gt;dir_37c90836491b695b472bf98d1be8336b</title>
<path fill="none" stroke="#000000" d="M87.0476,-71.8314C86.2972,-64.131 86.0763,-54.9743 86.3849,-46.4166"/>
<polygon fill="#000000" stroke="#000000" points="89.8792,-46.6161 87.024,-36.4133 82.8935,-46.1697 89.8792,-46.6161"/>
<g id="a_edge9&#45;headlabel"><a xlink:href="dir_000089_000300.html" target="_top" xlink:title="1">
<text text-anchor="middle" x="92.4836" y="-47.8844" font-family="Helvetica,sans-Serif" font-size="10.00" fill="#000000">1</text>
</a>
</g>
</g>
</g>
</svg>
