<?xml version="1.0" encoding="UTF-8" standalone="no"?>
<!DOCTYPE svg PUBLIC "-//W3C//DTD SVG 1.1//EN"
 "http://www.w3.org/Graphics/SVG/1.1/DTD/svg11.dtd">
<!-- Generated by graphviz version 2.40.1 (20161225.0304)
 -->
<!-- Title: /home/runner/work/AliceO2/AliceO2/Detectors/HMPID Pages: 1 -->
<svg width="206pt" height="375pt"
 viewBox="0.00 0.00 206.00 375.00" xmlns="http://www.w3.org/2000/svg" xmlns:xlink="http://www.w3.org/1999/xlink">
<g id="graph0" class="graph" transform="scale(1 1) rotate(0) translate(4 371)">
<title>/home/runner/work/AliceO2/AliceO2/Detectors/HMPID</title>
<g id="clust1" class="cluster">
<title>clusterdir_051dca18e802f8e9474f2e30d29c04e0</title>
<g id="a_clust1"><a xlink:href="dir_051dca18e802f8e9474f2e30d29c04e0.html" target="_top" xlink:title="Detectors">
<polygon fill="#ddddee" stroke="#000000" points="24,-200 24,-359 190,-359 190,-200 24,-200"/>
<text text-anchor="middle" x="107" y="-347" font-family="Helvetica,sans-Serif" font-size="10.00" fill="#000000">Detectors</text>
</a>
</g>
</g>
<g id="clust2" class="cluster">
<title>clusterdir_c91fbefb38f56c1db7a8c31815b8a131</title>
<g id="a_clust2"><a xlink:href="dir_c91fbefb38f56c1db7a8c31815b8a131.html" target="_top">
<polygon fill="#eeeeff" stroke="#000000" points="32,-208 32,-332 182,-332 182,-208 32,-208"/>
</a>
</g>
</g>
<!-- dir_c91fbefb38f56c1db7a8c31815b8a131 -->
<g id="node1" class="node">
<title>dir_c91fbefb38f56c1db7a8c31815b8a131</title>
<text text-anchor="middle" x="147" y="-303.5" font-family="Helvetica,sans-Serif" font-size="10.00" fill="#000000">HMPID</text>
</g>
<!-- dir_939a9b59c9e8f57b8b7a2a3b29b6e0eb -->
<g id="node2" class="node">
<title>dir_939a9b59c9e8f57b8b7a2a3b29b6e0eb</title>
<g id="a_node2"><a xlink:href="dir_939a9b59c9e8f57b8b7a2a3b29b6e0eb.html" target="_top" xlink:title="base">
<polygon fill="#ffffff" stroke="#ff0000" points="94,-252 40,-252 40,-216 94,-216 94,-252"/>
<text text-anchor="middle" x="67" y="-231.5" font-family="Helvetica,sans-Serif" font-size="10.00" fill="#000000">base</text>
</a>
</g>
</g>
<!-- dir_4ab6b4cc6a7edbff49100e9123df213f -->
<g id="node4" class="node">
<title>dir_4ab6b4cc6a7edbff49100e9123df213f</title>
<g id="a_node4"><a xlink:href="dir_4ab6b4cc6a7edbff49100e9123df213f.html" target="_top" xlink:title="Common">
<polygon fill="none" stroke="#ff0000" points="56,-180 0,-180 0,-144 56,-144 56,-180"/>
<text text-anchor="middle" x="28" y="-159.5" font-family="Helvetica,sans-Serif" font-size="10.00" fill="#000000">Common</text>
</a>
</g>
</g>
<!-- dir_939a9b59c9e8f57b8b7a2a3b29b6e0eb&#45;&gt;dir_4ab6b4cc6a7edbff49100e9123df213f -->
<g id="edge7" class="edge">
<title>dir_939a9b59c9e8f57b8b7a2a3b29b6e0eb&#45;&gt;dir_4ab6b4cc6a7edbff49100e9123df213f</title>
<path fill="none" stroke="#000000" d="M57.1587,-215.8314C52.8043,-207.7925 47.5902,-198.1666 42.7831,-189.2918"/>
<polygon fill="#000000" stroke="#000000" points="45.8143,-187.5392 37.9739,-180.4133 39.6592,-190.8732 45.8143,-187.5392"/>
<g id="a_edge7&#45;headlabel"><a xlink:href="dir_000147_000035.html" target="_top" xlink:title="1">
<text text-anchor="middle" x="50.0228" y="-186.8476" font-family="Helvetica,sans-Serif" font-size="10.00" fill="#000000">1</text>
</a>
</g>
</g>
<!-- dir_2171f7ec022c5423887b07c69b2f5b48 -->
<g id="node6" class="node">
<title>dir_2171f7ec022c5423887b07c69b2f5b48</title>
<g id="a_node6"><a xlink:href="dir_2171f7ec022c5423887b07c69b2f5b48.html" target="_top" xlink:title="DataFormats">
<polygon fill="none" stroke="#ff0000" points="126,-108 52,-108 52,-72 126,-72 126,-108"/>
<text text-anchor="middle" x="89" y="-87.5" font-family="Helvetica,sans-Serif" font-size="10.00" fill="#000000">DataFormats</text>
</a>
</g>
</g>
<!-- dir_939a9b59c9e8f57b8b7a2a3b29b6e0eb&#45;&gt;dir_2171f7ec022c5423887b07c69b2f5b48 -->
<g id="edge8" class="edge">
<title>dir_939a9b59c9e8f57b8b7a2a3b29b6e0eb&#45;&gt;dir_2171f7ec022c5423887b07c69b2f5b48</title>
<path fill="none" stroke="#000000" d="M69.7863,-215.7623C73.5387,-191.201 80.2539,-147.2474 84.6681,-118.3541"/>
<polygon fill="#000000" stroke="#000000" points="88.1858,-118.5035 86.2363,-108.0896 81.2661,-117.4463 88.1858,-118.5035"/>
<g id="a_edge8&#45;headlabel"><a xlink:href="dir_000147_000089.html" target="_top" xlink:title="2">
<text text-anchor="middle" x="90.4497" y="-119.9857" font-family="Helvetica,sans-Serif" font-size="10.00" fill="#000000">2</text>
</a>
</g>
</g>
<!-- dir_500f0d71cadd529ffa10e3c2241cfe90 -->
<g id="node3" class="node">
<title>dir_500f0d71cadd529ffa10e3c2241cfe90</title>
<g id="a_node3"><a xlink:href="dir_500f0d71cadd529ffa10e3c2241cfe90.html" target="_top" xlink:title="simulation">
<polygon fill="#ffffff" stroke="#ff0000" points="101.5,-324 40.5,-324 40.5,-288 101.5,-288 101.5,-324"/>
<text text-anchor="middle" x="71" y="-303.5" font-family="Helvetica,sans-Serif" font-size="10.00" fill="#000000">simulation</text>
</a>
</g>
</g>
<!-- dir_500f0d71cadd529ffa10e3c2241cfe90&#45;&gt;dir_939a9b59c9e8f57b8b7a2a3b29b6e0eb -->
<g id="edge5" class="edge">
<title>dir_500f0d71cadd529ffa10e3c2241cfe90&#45;&gt;dir_939a9b59c9e8f57b8b7a2a3b29b6e0eb</title>
<path fill="none" stroke="#000000" d="M69.9906,-287.8314C69.5628,-280.131 69.0541,-270.9743 68.5787,-262.4166"/>
<polygon fill="#000000" stroke="#000000" points="72.0724,-262.2037 68.023,-252.4133 65.0831,-262.592 72.0724,-262.2037"/>
<g id="a_edge5&#45;headlabel"><a xlink:href="dir_000319_000147.html" target="_top" xlink:title="4">
<text text-anchor="middle" x="75.1066" y="-263.1353" font-family="Helvetica,sans-Serif" font-size="10.00" fill="#000000">4</text>
</a>
</g>
</g>
<!-- dir_37c90836491b695b472bf98d1be8336b -->
<g id="node5" class="node">
<title>dir_37c90836491b695b472bf98d1be8336b</title>
<g id="a_node5"><a xlink:href="dir_37c90836491b695b472bf98d1be8336b.html" target="_top" xlink:title="Base">
<polygon fill="none" stroke="#ff0000" points="116,-36 62,-36 62,0 116,0 116,-36"/>
<text text-anchor="middle" x="89" y="-15.5" font-family="Helvetica,sans-Serif" font-size="10.00" fill="#000000">Base</text>
</a>
</g>
</g>
<!-- dir_500f0d71cadd529ffa10e3c2241cfe90&#45;&gt;dir_37c90836491b695b472bf98d1be8336b -->
<g id="edge4" class="edge">
<title>dir_500f0d71cadd529ffa10e3c2241cfe90&#45;&gt;dir_37c90836491b695b472bf98d1be8336b</title>
<path fill="none" stroke="#000000" d="M92.798,-287.9735C102.8324,-278.3885 113.8525,-265.7532 120,-252 146.258,-193.2551 131.6622,-172.2597 135,-108 135.83,-92.0215 140.5282,-87.0146 135,-72 131.195,-61.6656 124.4356,-51.9621 117.25,-43.7098"/>
<polygon fill="#000000" stroke="#000000" points="119.692,-41.1965 110.3127,-36.2692 114.5721,-45.9701 119.692,-41.1965"/>
<g id="a_edge4&#45;headlabel"><a xlink:href="dir_000319_000300.html" target="_top" xlink:title="2">
<text text-anchor="middle" x="124.22" y="-39.3895" font-family="Helvetica,sans-Serif" font-size="10.00" fill="#000000">2</text>
</a>
</g>
</g>
<!-- dir_500f0d71cadd529ffa10e3c2241cfe90&#45;&gt;dir_2171f7ec022c5423887b07c69b2f5b48 -->
<g id="edge6" class="edge">
<title>dir_500f0d71cadd529ffa10e3c2241cfe90&#45;&gt;dir_2171f7ec022c5423887b07c69b2f5b48</title>
<path fill="none" stroke="#000000" d="M85.2359,-287.6423C92.0539,-277.6872 99.4862,-264.8222 103,-252 115.5225,-206.305 105.6077,-150.8947 97.2934,-118.1488"/>
<polygon fill="#000000" stroke="#000000" points="100.6399,-117.1144 94.6806,-108.3545 93.8764,-118.9187 100.6399,-117.1144"/>
<g id="a_edge6&#45;headlabel"><a xlink:href="dir_000319_000089.html" target="_top" xlink:title="4">
<text text-anchor="middle" x="104.3097" y="-117.3558" font-family="Helvetica,sans-Serif" font-size="10.00" fill="#000000">4</text>
</a>
</g>
</g>
<!-- dir_4ab6b4cc6a7edbff49100e9123df213f&#45;&gt;dir_2171f7ec022c5423887b07c69b2f5b48 -->
<g id="edge1" class="edge">
<title>dir_4ab6b4cc6a7edbff49100e9123df213f&#45;&gt;dir_2171f7ec022c5423887b07c69b2f5b48</title>
<path fill="none" stroke="#000000" d="M37.4405,-143.8314C43.785,-135.3694 52.2588,-125.1489 60.5514,-115.8971"/>
<polygon fill="#000000" stroke="#000000" points="63.238,-118.1462 67.4239,-108.4133 58.0821,-113.4115 63.238,-118.1462"/>
<g id="a_edge1&#45;headlabel"><a xlink:href="dir_000035_000089.html" target="_top" xlink:title="2">
<text text-anchor="middle" x="62.8979" y="-120.2142" font-family="Helvetica,sans-Serif" font-size="10.00" fill="#000000">2</text>
</a>
</g>
</g>
<!-- dir_37c90836491b695b472bf98d1be8336b&#45;&gt;dir_4ab6b4cc6a7edbff49100e9123df213f -->
<g id="edge2" class="edge">
<title>dir_37c90836491b695b472bf98d1be8336b&#45;&gt;dir_4ab6b4cc6a7edbff49100e9123df213f</title>
<path fill="none" stroke="#000000" d="M69.1236,-36.1825C59.7296,-45.8974 49.2326,-58.6001 43,-72 33.9531,-91.4505 30.2802,-115.5076 28.8273,-133.8547"/>
<polygon fill="#000000" stroke="#000000" points="25.3289,-133.7223 28.2045,-143.9194 32.3155,-134.1547 25.3289,-133.7223"/>
<g id="a_edge2&#45;headlabel"><a xlink:href="dir_000300_000035.html" target="_top" xlink:title="16">
<text text-anchor="middle" x="22.7169" y="-127.4592" font-family="Helvetica,sans-Serif" font-size="10.00" fill="#000000">16</text>
</a>
</g>
</g>
<!-- dir_37c90836491b695b472bf98d1be8336b&#45;&gt;dir_2171f7ec022c5423887b07c69b2f5b48 -->
<g id="edge3" class="edge">
<title>dir_37c90836491b695b472bf98d1be8336b&#45;&gt;dir_2171f7ec022c5423887b07c69b2f5b48</title>
<path fill="none" stroke="#000000" d="M94.976,-36.4133C95.7071,-44.0593 95.9203,-53.1084 95.6155,-61.5726"/>
<polygon fill="#000000" stroke="#000000" points="92.1048,-61.6264 94.9524,-71.8314 99.0902,-62.078 92.1048,-61.6264"/>
<g id="a_edge3&#45;headlabel"><a xlink:href="dir_000300_000089.html" target="_top" xlink:title="15">
<text text-anchor="middle" x="89.5032" y="-55.3562" font-family="Helvetica,sans-Serif" font-size="10.00" fill="#000000">15</text>
</a>
</g>
</g>
<!-- dir_2171f7ec022c5423887b07c69b2f5b48&#45;&gt;dir_4ab6b4cc6a7edbff49100e9123df213f -->
<g id="edge9" class="edge">
<title>dir_2171f7ec022c5423887b07c69b2f5b48&#45;&gt;dir_4ab6b4cc6a7edbff49100e9123df213f</title>
<path fill="none" stroke="#000000" d="M79.3759,-108.4133C72.9906,-116.9088 64.4983,-127.1366 56.2094,-136.3696"/>
<polygon fill="#000000" stroke="#000000" points="53.5396,-134.1021 49.3453,-143.8314 58.6914,-138.8412 53.5396,-134.1021"/>
<g id="a_edge9&#45;headlabel"><a xlink:href="dir_000089_000035.html" target="_top" xlink:title="39">
<text text-anchor="middle" x="53.8835" y="-127.0344" font-family="Helvetica,sans-Serif" font-size="10.00" fill="#000000">39</text>
</a>
</g>
</g>
<!-- dir_2171f7ec022c5423887b07c69b2f5b48&#45;&gt;dir_37c90836491b695b472bf98d1be8336b -->
<g id="edge10" class="edge">
<title>dir_2171f7ec022c5423887b07c69b2f5b48&#45;&gt;dir_37c90836491b695b472bf98d1be8336b</title>
<path fill="none" stroke="#000000" d="M83.0476,-71.8314C82.2972,-64.131 82.0763,-54.9743 82.3849,-46.4166"/>
<polygon fill="#000000" stroke="#000000" points="85.8792,-46.6161 83.024,-36.4133 78.8935,-46.1697 85.8792,-46.6161"/>
<g id="a_edge10&#45;headlabel"><a xlink:href="dir_000089_000300.html" target="_top" xlink:title="1">
<text text-anchor="middle" x="88.4836" y="-47.8844" font-family="Helvetica,sans-Serif" font-size="10.00" fill="#000000">1</text>
</a>
</g>
</g>
</g>
</svg>
