<?xml version="1.0" encoding="UTF-8" standalone="no"?>
<!DOCTYPE svg PUBLIC "-//W3C//DTD SVG 1.1//EN"
 "http://www.w3.org/Graphics/SVG/1.1/DTD/svg11.dtd">
<!-- Generated by graphviz version 2.40.1 (20161225.0304)
 -->
<!-- Title: /home/runner/work/AliceO2/AliceO2/Detectors/FIT Pages: 1 -->
<!--zoomable 473 -->
<svg id="main" version="1.1" xmlns="http://www.w3.org/2000/svg" xmlns:xlink="http://www.w3.org/1999/xlink" xml:space="preserve" onload="init(evt)">
<style type="text/css"><![CDATA[
.edge:hover path { stroke: red; }
.edge:hover polygon { stroke: red; fill: red; }
]]></style>
<script type="text/javascript"><![CDATA[
var edges = document.getElementsByTagName('g');
if (edges && edges.length) {
  for (var i=0;i<edges.length;i++) {
    if (edges[i].id.substr(0,4)=='edge') {
      edges[i].setAttribute('class','edge');
    }
  }
}
]]></script>
        <defs>
                <circle id="rim" cx="0" cy="0" r="7"/>
                <circle id="rim2" cx="0" cy="0" r="3.5"/>
                <g id="zoomPlus">
                        <use xlink:href="#rim" fill="#404040">
                                <set attributeName="fill" to="#808080" begin="zoomplus.mouseover" end="zoomplus.mouseout"/>
                        </use>
                        <path d="M-4,0h8M0,-4v8" fill="none" stroke="white" stroke-width="1.5" pointer-events="none"/>
                </g>
                <g id="zoomMin">
                        <use xlink:href="#rim" fill="#404040">
                                <set attributeName="fill" to="#808080" begin="zoomminus.mouseover" end="zoomminus.mouseout"/>
                        </use>
                        <path d="M-4,0h8" fill="none" stroke="white" stroke-width="1.5" pointer-events="none"/>
                </g>
                <g id="dirArrow">
                        <path fill="none" stroke="white" stroke-width="1.5" d="M0,-3.0v7 M-2.5,-0.5L0,-3.0L2.5,-0.5"/>
                </g>
               <g id="resetDef">
                       <use xlink:href="#rim2" fill="#404040">
                               <set attributeName="fill" to="#808080" begin="reset.mouseover" end="reset.mouseout"/>
                       </use>
               </g>
        </defs>

<script type="text/javascript">
var viewWidth = 752;
var viewHeight = 473;
var sectionId = 'dynsection-0';
</script>
<script xlink:href="svgpan.js"/>
<svg id="graph" class="graph">
<g id="viewport">
<title>/home/runner/work/AliceO2/AliceO2/Detectors/FIT</title>
<g id="clust1" class="cluster">
<title>clusterdir_051dca18e802f8e9474f2e30d29c04e0</title>
<g id="a_clust1"><a xlink:href="dir_051dca18e802f8e9474f2e30d29c04e0.html" target="_top" xlink:title="Detectors">
<polygon fill="#ddddee" stroke="#000000" points="228,-272 228,-431 602,-431 602,-272 228,-272"/>
<text text-anchor="middle" x="415" y="-419" font-family="Helvetica,sans-Serif" font-size="10.00" fill="#000000">Detectors</text>
</a>
</g>
</g>
<g id="clust2" class="cluster">
<title>clusterdir_d14e88a79bca429480864605ee348cef</title>
<g id="a_clust2"><a xlink:href="dir_d14e88a79bca429480864605ee348cef.html" target="_top">
<polygon fill="#eeeeff" stroke="#000000" points="236,-280 236,-404 594,-404 594,-280 236,-280"/>
</a>
</g>
</g>
<!-- dir_d14e88a79bca429480864605ee348cef -->
<g id="node1" class="node">
<title>dir_d14e88a79bca429480864605ee348cef</title>
<text text-anchor="middle" x="559" y="-375.5" font-family="Helvetica,sans-Serif" font-size="10.00" fill="#000000">FIT</text>
</g>
<!-- dir_e149fd8c00f4d2e1086cfbf4d58a065a -->
<g id="node2" class="node">
<title>dir_e149fd8c00f4d2e1086cfbf4d58a065a</title>
<g id="a_node2"><a xlink:href="dir_e149fd8c00f4d2e1086cfbf4d58a065a.html" target="_top" xlink:title="common">
<polygon fill="#ffffff" stroke="#ff0000" points="514,-396 460,-396 460,-360 514,-360 514,-396"/>
<text text-anchor="middle" x="487" y="-375.5" font-family="Helvetica,sans-Serif" font-size="10.00" fill="#000000">common</text>
</a>
</g>
</g>
<!-- dir_a5b1c90a9b4d60b6556bfe35a03caaa0 -->
<g id="node3" class="node">
<title>dir_a5b1c90a9b4d60b6556bfe35a03caaa0</title>
<g id="a_node3"><a xlink:href="dir_a5b1c90a9b4d60b6556bfe35a03caaa0.html" target="_top" xlink:title="FDD">
<polygon fill="#ffffff" stroke="#ff0000" points="298,-396 244,-396 244,-360 298,-360 298,-396"/>
<text text-anchor="middle" x="271" y="-375.5" font-family="Helvetica,sans-Serif" font-size="10.00" fill="#000000">FDD</text>
</a>
</g>
</g>
<!-- dir_4ab6b4cc6a7edbff49100e9123df213f -->
<g id="node7" class="node">
<title>dir_4ab6b4cc6a7edbff49100e9123df213f</title>
<g id="a_node7"><a xlink:href="dir_4ab6b4cc6a7edbff49100e9123df213f.html" target="_top" xlink:title="Common">
<polygon fill="none" stroke="#ff0000" points="726,-324 670,-324 670,-288 726,-288 726,-324"/>
<text text-anchor="middle" x="698" y="-303.5" font-family="Helvetica,sans-Serif" font-size="10.00" fill="#000000">Common</text>
</a>
</g>
</g>
<!-- dir_a5b1c90a9b4d60b6556bfe35a03caaa0&#45;&gt;dir_4ab6b4cc6a7edbff49100e9123df213f -->
<g id="edge25" class="edge">
<title>dir_a5b1c90a9b4d60b6556bfe35a03caaa0&#45;&gt;dir_4ab6b4cc6a7edbff49100e9123df213f</title>
<path fill="none" stroke="#000000" d="M298.1198,-363.2416C301.0618,-362.0043 304.0568,-360.8891 307,-360 431.7515,-322.3147 469.1556,-343.5506 598,-324 618.4544,-320.8963 641.1556,-316.8585 659.7518,-313.3939"/>
<polygon fill="#000000" stroke="#000000" points="660.4398,-316.8259 669.6204,-311.5376 659.1458,-309.9466 660.4398,-316.8259"/>
<g id="a_edge25&#45;headlabel"><a xlink:href="dir_000180_000035.html" target="_top" xlink:title="10">
<text text-anchor="middle" x="657.432" y="-317.7807" font-family="Helvetica,sans-Serif" font-size="10.00" fill="#000000">10</text>
</a>
</g>
</g>
<!-- dir_b05a5fa85f84bfc9013183c9d87f9a36 -->
<g id="node8" class="node">
<title>dir_b05a5fa85f84bfc9013183c9d87f9a36</title>
<g id="a_node8"><a xlink:href="dir_b05a5fa85f84bfc9013183c9d87f9a36.html" target="_top" xlink:title="Utilities">
<polygon fill="none" stroke="#ff0000" points="394,-36 340,-36 340,0 394,0 394,-36"/>
<text text-anchor="middle" x="367" y="-15.5" font-family="Helvetica,sans-Serif" font-size="10.00" fill="#000000">Utilities</text>
</a>
</g>
</g>
<!-- dir_a5b1c90a9b4d60b6556bfe35a03caaa0&#45;&gt;dir_b05a5fa85f84bfc9013183c9d87f9a36 -->
<g id="edge26" class="edge">
<title>dir_a5b1c90a9b4d60b6556bfe35a03caaa0&#45;&gt;dir_b05a5fa85f84bfc9013183c9d87f9a36</title>
<path fill="none" stroke="#000000" d="M243.7747,-376.2042C175.0528,-370.0514 0,-343.62 0,-234 0,-234 0,-234 0,-162 0,-105.7448 39.4019,-98.5456 89,-72 130.2495,-49.9227 263.8144,-30.8261 329.6363,-22.4801"/>
<polygon fill="#000000" stroke="#000000" points="330.1061,-25.9487 339.5941,-21.2342 329.2369,-19.0029 330.1061,-25.9487"/>
<g id="a_edge26&#45;headlabel"><a xlink:href="dir_000180_000606.html" target="_top" xlink:title="1">
<text text-anchor="middle" x="326.8918" y="-26.7123" font-family="Helvetica,sans-Serif" font-size="10.00" fill="#000000">1</text>
</a>
</g>
</g>
<!-- dir_37c90836491b695b472bf98d1be8336b -->
<g id="node9" class="node">
<title>dir_37c90836491b695b472bf98d1be8336b</title>
<g id="a_node9"><a xlink:href="dir_37c90836491b695b472bf98d1be8336b.html" target="_top" xlink:title="Base">
<polygon fill="none" stroke="#ff0000" points="362,-108 308,-108 308,-72 362,-72 362,-108"/>
<text text-anchor="middle" x="335" y="-87.5" font-family="Helvetica,sans-Serif" font-size="10.00" fill="#000000">Base</text>
</a>
</g>
</g>
<!-- dir_a5b1c90a9b4d60b6556bfe35a03caaa0&#45;&gt;dir_37c90836491b695b472bf98d1be8336b -->
<g id="edge27" class="edge">
<title>dir_a5b1c90a9b4d60b6556bfe35a03caaa0&#45;&gt;dir_37c90836491b695b472bf98d1be8336b</title>
<path fill="none" stroke="#000000" d="M246.1549,-359.763C234.9916,-350.3017 222.638,-337.8335 215,-324 176.0934,-253.5352 149.4621,-210.3725 195,-144 207.0234,-126.4757 260.5898,-109.3542 297.8608,-99.2406"/>
<polygon fill="#000000" stroke="#000000" points="299.1247,-102.5264 307.893,-96.5793 297.3298,-95.7604 299.1247,-102.5264"/>
<g id="a_edge27&#45;headlabel"><a xlink:href="dir_000180_000300.html" target="_top" xlink:title="2">
<text text-anchor="middle" x="296.3782" y="-103.6924" font-family="Helvetica,sans-Serif" font-size="10.00" fill="#000000">2</text>
</a>
</g>
</g>
<!-- dir_bcbb2cf9a3d3d83e5515c82071a07177 -->
<g id="node10" class="node">
<title>dir_bcbb2cf9a3d3d83e5515c82071a07177</title>
<g id="a_node10"><a xlink:href="dir_bcbb2cf9a3d3d83e5515c82071a07177.html" target="_top" xlink:title="Framework">
<polygon fill="none" stroke="#ff0000" points="555.5,-252 490.5,-252 490.5,-216 555.5,-216 555.5,-252"/>
<text text-anchor="middle" x="523" y="-231.5" font-family="Helvetica,sans-Serif" font-size="10.00" fill="#000000">Framework</text>
</a>
</g>
</g>
<!-- dir_a5b1c90a9b4d60b6556bfe35a03caaa0&#45;&gt;dir_bcbb2cf9a3d3d83e5515c82071a07177 -->
<g id="edge28" class="edge">
<title>dir_a5b1c90a9b4d60b6556bfe35a03caaa0&#45;&gt;dir_bcbb2cf9a3d3d83e5515c82071a07177</title>
<path fill="none" stroke="#000000" d="M298.1707,-363.4023C301.1027,-362.1336 304.0815,-360.9672 307,-360 393.5628,-331.3133 445.232,-389.1897 509,-324 524.6528,-307.9982 527.2755,-282.1741 526.4923,-262.2832"/>
<polygon fill="#000000" stroke="#000000" points="529.9784,-261.9594 525.7959,-252.2251 522.9951,-262.443 529.9784,-261.9594"/>
<g id="a_edge28&#45;headlabel"><a xlink:href="dir_000180_000062.html" target="_top" xlink:title="36">
<text text-anchor="middle" x="533.0591" y="-262.8493" font-family="Helvetica,sans-Serif" font-size="10.00" fill="#000000">36</text>
</a>
</g>
</g>
<!-- dir_26637d1bd82229bc9ed97f7e706be743 -->
<g id="node11" class="node">
<title>dir_26637d1bd82229bc9ed97f7e706be743</title>
<g id="a_node11"><a xlink:href="dir_26637d1bd82229bc9ed97f7e706be743.html" target="_top" xlink:title="Raw">
<polygon fill="none" stroke="#ff0000" points="667,-396 613,-396 613,-360 667,-360 667,-396"/>
<text text-anchor="middle" x="640" y="-375.5" font-family="Helvetica,sans-Serif" font-size="10.00" fill="#000000">Raw</text>
</a>
</g>
</g>
<!-- dir_a5b1c90a9b4d60b6556bfe35a03caaa0&#45;&gt;dir_26637d1bd82229bc9ed97f7e706be743 -->
<g id="edge29" class="edge">
<title>dir_a5b1c90a9b4d60b6556bfe35a03caaa0&#45;&gt;dir_26637d1bd82229bc9ed97f7e706be743</title>
<path fill="none" stroke="#000000" d="M276.7294,-396.0384C283.2342,-413.1355 295.6695,-437.8155 316,-449 342.577,-463.6209 562.0101,-462.8441 589,-449 606.7809,-439.8795 619.7629,-421.3582 628.1785,-405.5193"/>
<polygon fill="#000000" stroke="#000000" points="631.5351,-406.6274 632.8305,-396.1121 625.2603,-403.5245 631.5351,-406.6274"/>
<g id="a_edge29&#45;headlabel"><a xlink:href="dir_000180_000665.html" target="_top" xlink:title="4">
<text text-anchor="middle" x="632.4868" y="-408.6081" font-family="Helvetica,sans-Serif" font-size="10.00" fill="#000000">4</text>
</a>
</g>
</g>
<!-- dir_2171f7ec022c5423887b07c69b2f5b48 -->
<g id="node12" class="node">
<title>dir_2171f7ec022c5423887b07c69b2f5b48</title>
<g id="a_node12"><a xlink:href="dir_2171f7ec022c5423887b07c69b2f5b48.html" target="_top" xlink:title="DataFormats">
<polygon fill="none" stroke="#ff0000" points="436,-180 362,-180 362,-144 436,-144 436,-180"/>
<text text-anchor="middle" x="399" y="-159.5" font-family="Helvetica,sans-Serif" font-size="10.00" fill="#000000">DataFormats</text>
</a>
</g>
</g>
<!-- dir_a5b1c90a9b4d60b6556bfe35a03caaa0&#45;&gt;dir_2171f7ec022c5423887b07c69b2f5b48 -->
<g id="edge30" class="edge">
<title>dir_a5b1c90a9b4d60b6556bfe35a03caaa0&#45;&gt;dir_2171f7ec022c5423887b07c69b2f5b48</title>
<path fill="none" stroke="#000000" d="M243.883,-370.8453C221.2741,-363.2882 190.5021,-348.9245 176,-324 164.3772,-304.0241 165.5769,-292.6272 176,-272 209.1746,-206.3478 296.9822,-179.3592 351.9977,-168.6507"/>
<polygon fill="#000000" stroke="#000000" points="352.6664,-172.0865 361.8681,-166.835 351.3999,-165.202 352.6664,-172.0865"/>
<g id="a_edge30&#45;headlabel"><a xlink:href="dir_000180_000089.html" target="_top" xlink:title="43">
<text text-anchor="middle" x="349.6447" y="-173.0292" font-family="Helvetica,sans-Serif" font-size="10.00" fill="#000000">43</text>
</a>
</g>
</g>
<!-- dir_732f729910dd598014f768fa2866f334 -->
<g id="node4" class="node">
<title>dir_732f729910dd598014f768fa2866f334</title>
<g id="a_node4"><a xlink:href="dir_732f729910dd598014f768fa2866f334.html" target="_top" xlink:title="FT0">
<polygon fill="#ffffff" stroke="#ff0000" points="442,-396 388,-396 388,-360 442,-360 442,-396"/>
<text text-anchor="middle" x="415" y="-375.5" font-family="Helvetica,sans-Serif" font-size="10.00" fill="#000000">FT0</text>
</a>
</g>
</g>
<!-- dir_9742c4beffa63bb41af6c796ac2f5cf0 -->
<g id="node6" class="node">
<title>dir_9742c4beffa63bb41af6c796ac2f5cf0</title>
<g id="a_node6"><a xlink:href="dir_9742c4beffa63bb41af6c796ac2f5cf0.html" target="_top" xlink:title="raw">
<polygon fill="#ffffff" stroke="#ff0000" points="500,-324 446,-324 446,-288 500,-288 500,-324"/>
<text text-anchor="middle" x="473" y="-303.5" font-family="Helvetica,sans-Serif" font-size="10.00" fill="#000000">raw</text>
</a>
</g>
</g>
<!-- dir_732f729910dd598014f768fa2866f334&#45;&gt;dir_9742c4beffa63bb41af6c796ac2f5cf0 -->
<g id="edge19" class="edge">
<title>dir_732f729910dd598014f768fa2866f334&#45;&gt;dir_9742c4beffa63bb41af6c796ac2f5cf0</title>
<path fill="none" stroke="#000000" d="M429.6358,-359.8314C436.3161,-351.5386 444.3568,-341.557 451.6904,-332.4533"/>
<polygon fill="#000000" stroke="#000000" points="454.6194,-334.3965 458.1671,-324.4133 449.1681,-330.0052 454.6194,-334.3965"/>
<g id="a_edge19&#45;headlabel"><a xlink:href="dir_000312_000526.html" target="_top" xlink:title="3">
<text text-anchor="middle" x="454.5755" y="-336.4769" font-family="Helvetica,sans-Serif" font-size="10.00" fill="#000000">3</text>
</a>
</g>
</g>
<!-- dir_732f729910dd598014f768fa2866f334&#45;&gt;dir_4ab6b4cc6a7edbff49100e9123df213f -->
<g id="edge16" class="edge">
<title>dir_732f729910dd598014f768fa2866f334&#45;&gt;dir_4ab6b4cc6a7edbff49100e9123df213f</title>
<path fill="none" stroke="#000000" d="M442.2074,-363.5099C445.1323,-362.2203 448.0994,-361.0195 451,-360 522.6316,-334.8236 543.8505,-340.3336 618,-324 631.7377,-320.9739 646.7891,-317.6021 660.0934,-314.6023"/>
<polygon fill="#000000" stroke="#000000" points="660.8928,-318.01 669.8759,-312.3928 659.3505,-311.182 660.8928,-318.01"/>
<g id="a_edge16&#45;headlabel"><a xlink:href="dir_000312_000035.html" target="_top" xlink:title="16">
<text text-anchor="middle" x="658.012" y="-319.0714" font-family="Helvetica,sans-Serif" font-size="10.00" fill="#000000">16</text>
</a>
</g>
</g>
<!-- dir_732f729910dd598014f768fa2866f334&#45;&gt;dir_b05a5fa85f84bfc9013183c9d87f9a36 -->
<g id="edge17" class="edge">
<title>dir_732f729910dd598014f768fa2866f334&#45;&gt;dir_b05a5fa85f84bfc9013183c9d87f9a36</title>
<path fill="none" stroke="#000000" d="M399.0369,-359.997C390.7272,-349.9377 380.8925,-336.8662 374,-324 326.0126,-234.4214 315.9021,-208.2069 299,-108 296.3388,-92.2229 292.0431,-86.4084 299,-72 305.9235,-57.6608 318.7099,-45.9615 331.3425,-37.1646"/>
<polygon fill="#000000" stroke="#000000" points="333.5144,-39.9273 339.9896,-31.5415 329.6982,-34.059 333.5144,-39.9273"/>
<g id="a_edge17&#45;headlabel"><a xlink:href="dir_000312_000606.html" target="_top" xlink:title="1">
<text text-anchor="middle" x="332.0488" y="-41.7671" font-family="Helvetica,sans-Serif" font-size="10.00" fill="#000000">1</text>
</a>
</g>
</g>
<!-- dir_732f729910dd598014f768fa2866f334&#45;&gt;dir_37c90836491b695b472bf98d1be8336b -->
<g id="edge18" class="edge">
<title>dir_732f729910dd598014f768fa2866f334&#45;&gt;dir_37c90836491b695b472bf98d1be8336b</title>
<path fill="none" stroke="#000000" d="M407.8242,-359.6199C403.8603,-349.2285 398.9535,-335.9602 395,-324 374.0764,-260.7019 368.8854,-244.7464 353,-180 347.9454,-159.3983 343.2802,-135.8853 339.9663,-118.0601"/>
<polygon fill="#000000" stroke="#000000" points="343.3741,-117.238 338.1324,-108.0306 336.4883,-118.4971 343.3741,-117.238"/>
<g id="a_edge18&#45;headlabel"><a xlink:href="dir_000312_000300.html" target="_top" xlink:title="2">
<text text-anchor="middle" x="346.8136" y="-117.7633" font-family="Helvetica,sans-Serif" font-size="10.00" fill="#000000">2</text>
</a>
</g>
</g>
<!-- dir_732f729910dd598014f768fa2866f334&#45;&gt;dir_bcbb2cf9a3d3d83e5515c82071a07177 -->
<g id="edge20" class="edge">
<title>dir_732f729910dd598014f768fa2866f334&#45;&gt;dir_bcbb2cf9a3d3d83e5515c82071a07177</title>
<path fill="none" stroke="#000000" d="M442.2728,-363.6875C445.185,-362.3632 448.1311,-361.1058 451,-360 506.541,-338.592 544.0088,-371.4104 580,-324 593.9741,-305.5922 590.9052,-292.3765 580,-272 576.2119,-264.9219 570.4587,-258.9346 564.0399,-253.9548"/>
<polygon fill="#000000" stroke="#000000" points="565.8729,-250.9675 555.6514,-248.1798 561.9035,-256.7333 565.8729,-250.9675"/>
<g id="a_edge20&#45;headlabel"><a xlink:href="dir_000312_000062.html" target="_top" xlink:title="66">
<text text-anchor="middle" x="570.4437" y="-248.1672" font-family="Helvetica,sans-Serif" font-size="10.00" fill="#000000">66</text>
</a>
</g>
</g>
<!-- dir_732f729910dd598014f768fa2866f334&#45;&gt;dir_26637d1bd82229bc9ed97f7e706be743 -->
<g id="edge21" class="edge">
<title>dir_732f729910dd598014f768fa2866f334&#45;&gt;dir_26637d1bd82229bc9ed97f7e706be743</title>
<path fill="none" stroke="#000000" d="M420.7294,-396.0384C427.2342,-413.1355 439.6695,-437.8155 460,-449 485.1168,-462.8176 563.4931,-462.0834 589,-449 606.7809,-439.8795 619.7629,-421.3582 628.1785,-405.5193"/>
<polygon fill="#000000" stroke="#000000" points="631.5351,-406.6274 632.8305,-396.1121 625.2603,-403.5245 631.5351,-406.6274"/>
<g id="a_edge21&#45;headlabel"><a xlink:href="dir_000312_000665.html" target="_top" xlink:title="6">
<text text-anchor="middle" x="632.4868" y="-408.6081" font-family="Helvetica,sans-Serif" font-size="10.00" fill="#000000">6</text>
</a>
</g>
</g>
<!-- dir_732f729910dd598014f768fa2866f334&#45;&gt;dir_2171f7ec022c5423887b07c69b2f5b48 -->
<g id="edge22" class="edge">
<title>dir_732f729910dd598014f768fa2866f334&#45;&gt;dir_2171f7ec022c5423887b07c69b2f5b48</title>
<path fill="none" stroke="#000000" d="M410.4496,-359.6307C408.0806,-349.2427 405.3941,-335.9742 404,-324 398.5622,-277.2936 398.0931,-222.5345 398.423,-190.138"/>
<polygon fill="#000000" stroke="#000000" points="401.9237,-190.099 398.5595,-180.0526 394.9244,-190.0043 401.9237,-190.099"/>
<g id="a_edge22&#45;headlabel"><a xlink:href="dir_000312_000089.html" target="_top" xlink:title="80">
<text text-anchor="middle" x="404.7142" y="-191.2317" font-family="Helvetica,sans-Serif" font-size="10.00" fill="#000000">80</text>
</a>
</g>
</g>
<!-- dir_47779a59737632a3da2336a4e8799b86 -->
<g id="node5" class="node">
<title>dir_47779a59737632a3da2336a4e8799b86</title>
<g id="a_node5"><a xlink:href="dir_47779a59737632a3da2336a4e8799b86.html" target="_top" xlink:title="FV0">
<polygon fill="#ffffff" stroke="#ff0000" points="370,-396 316,-396 316,-360 370,-360 370,-396"/>
<text text-anchor="middle" x="343" y="-375.5" font-family="Helvetica,sans-Serif" font-size="10.00" fill="#000000">FV0</text>
</a>
</g>
</g>
<!-- dir_47779a59737632a3da2336a4e8799b86&#45;&gt;dir_4ab6b4cc6a7edbff49100e9123df213f -->
<g id="edge10" class="edge">
<title>dir_47779a59737632a3da2336a4e8799b86&#45;&gt;dir_4ab6b4cc6a7edbff49100e9123df213f</title>
<path fill="none" stroke="#000000" d="M370.1574,-363.3619C373.0921,-362.1011 376.0751,-360.9476 379,-360 472.8384,-329.6005 500.7908,-340.7376 598,-324 618.3885,-320.4895 641.0842,-316.4176 659.6938,-313.0355"/>
<polygon fill="#000000" stroke="#000000" points="660.361,-316.4717 669.5715,-311.2355 659.106,-309.5851 660.361,-316.4717"/>
<g id="a_edge10&#45;headlabel"><a xlink:href="dir_000184_000035.html" target="_top" xlink:title="9">
<text text-anchor="middle" x="657.3336" y="-317.4093" font-family="Helvetica,sans-Serif" font-size="10.00" fill="#000000">9</text>
</a>
</g>
</g>
<!-- dir_47779a59737632a3da2336a4e8799b86&#45;&gt;dir_b05a5fa85f84bfc9013183c9d87f9a36 -->
<g id="edge11" class="edge">
<title>dir_47779a59737632a3da2336a4e8799b86&#45;&gt;dir_b05a5fa85f84bfc9013183c9d87f9a36</title>
<path fill="none" stroke="#000000" d="M315.9987,-364.1706C312.9812,-362.7234 309.9372,-361.3057 307,-360 200.1375,-312.4936 76,-350.9463 76,-234 76,-234 76,-234 76,-162 76,-113.4273 97.8995,-99.4091 138,-72 168.953,-50.8433 273.2689,-32.2615 329.8161,-23.4407"/>
<polygon fill="#000000" stroke="#000000" points="330.4376,-26.8864 339.7904,-21.9089 329.3749,-19.9675 330.4376,-26.8864"/>
<g id="a_edge11&#45;headlabel"><a xlink:href="dir_000184_000606.html" target="_top" xlink:title="1">
<text text-anchor="middle" x="327.3156" y="-27.7384" font-family="Helvetica,sans-Serif" font-size="10.00" fill="#000000">1</text>
</a>
</g>
</g>
<!-- dir_47779a59737632a3da2336a4e8799b86&#45;&gt;dir_37c90836491b695b472bf98d1be8336b -->
<g id="edge12" class="edge">
<title>dir_47779a59737632a3da2336a4e8799b86&#45;&gt;dir_37c90836491b695b472bf98d1be8336b</title>
<path fill="none" stroke="#000000" d="M315.8159,-363.9946C292.7,-351.7085 261.7496,-334.249 252,-324 227.0612,-297.7837 222.6996,-287.1219 214,-252 202.4593,-205.408 187.875,-184.2677 214,-144 232.3991,-115.6406 269.5463,-102.0459 297.8546,-95.6099"/>
<polygon fill="#000000" stroke="#000000" points="298.7478,-98.9993 307.8329,-93.5485 297.3316,-92.1441 298.7478,-98.9993"/>
<g id="a_edge12&#45;headlabel"><a xlink:href="dir_000184_000300.html" target="_top" xlink:title="2">
<text text-anchor="middle" x="295.802" y="-100.0071" font-family="Helvetica,sans-Serif" font-size="10.00" fill="#000000">2</text>
</a>
</g>
</g>
<!-- dir_47779a59737632a3da2336a4e8799b86&#45;&gt;dir_bcbb2cf9a3d3d83e5515c82071a07177 -->
<g id="edge13" class="edge">
<title>dir_47779a59737632a3da2336a4e8799b86&#45;&gt;dir_bcbb2cf9a3d3d83e5515c82071a07177</title>
<path fill="none" stroke="#000000" d="M370.2127,-363.525C373.1366,-362.2324 376.1019,-361.0268 379,-360 448.9306,-335.2229 495.5395,-381.8413 542,-324 556.1805,-306.3459 548.8228,-280.6369 539.4362,-261.2124"/>
<polygon fill="#000000" stroke="#000000" points="542.4836,-259.4868 534.7507,-252.2444 536.2794,-262.7284 542.4836,-259.4868"/>
<g id="a_edge13&#45;headlabel"><a xlink:href="dir_000184_000062.html" target="_top" xlink:title="22">
<text text-anchor="middle" x="546.6646" y="-258.858" font-family="Helvetica,sans-Serif" font-size="10.00" fill="#000000">22</text>
</a>
</g>
</g>
<!-- dir_47779a59737632a3da2336a4e8799b86&#45;&gt;dir_26637d1bd82229bc9ed97f7e706be743 -->
<g id="edge14" class="edge">
<title>dir_47779a59737632a3da2336a4e8799b86&#45;&gt;dir_26637d1bd82229bc9ed97f7e706be743</title>
<path fill="none" stroke="#000000" d="M348.7294,-396.0384C355.2342,-413.1355 367.6695,-437.8155 388,-449 427.1354,-470.5297 549.2567,-469.3858 589,-449 606.7809,-439.8795 619.7629,-421.3582 628.1785,-405.5193"/>
<polygon fill="#000000" stroke="#000000" points="631.5351,-406.6274 632.8305,-396.1121 625.2603,-403.5245 631.5351,-406.6274"/>
<g id="a_edge14&#45;headlabel"><a xlink:href="dir_000184_000665.html" target="_top" xlink:title="4">
<text text-anchor="middle" x="632.4868" y="-408.6081" font-family="Helvetica,sans-Serif" font-size="10.00" fill="#000000">4</text>
</a>
</g>
</g>
<!-- dir_47779a59737632a3da2336a4e8799b86&#45;&gt;dir_2171f7ec022c5423887b07c69b2f5b48 -->
<g id="edge15" class="edge">
<title>dir_47779a59737632a3da2336a4e8799b86&#45;&gt;dir_2171f7ec022c5423887b07c69b2f5b48</title>
<path fill="none" stroke="#000000" d="M335.3944,-359.8519C323.5586,-328.6418 304.4123,-263.5747 328,-216 333.9752,-203.9485 344.0692,-193.8585 354.7993,-185.7863"/>
<polygon fill="#000000" stroke="#000000" points="356.8776,-188.6039 363.0709,-180.0077 352.8687,-182.8655 356.8776,-188.6039"/>
<g id="a_edge15&#45;headlabel"><a xlink:href="dir_000184_000089.html" target="_top" xlink:title="29">
<text text-anchor="middle" x="355.5569" y="-190.49" font-family="Helvetica,sans-Serif" font-size="10.00" fill="#000000">29</text>
</a>
</g>
</g>
<!-- dir_9742c4beffa63bb41af6c796ac2f5cf0&#45;&gt;dir_bcbb2cf9a3d3d83e5515c82071a07177 -->
<g id="edge23" class="edge">
<title>dir_9742c4beffa63bb41af6c796ac2f5cf0&#45;&gt;dir_bcbb2cf9a3d3d83e5515c82071a07177</title>
<path fill="none" stroke="#000000" d="M485.6171,-287.8314C491.3172,-279.6232 498.1663,-269.7606 504.4359,-260.7323"/>
<polygon fill="#000000" stroke="#000000" points="507.3838,-262.6234 510.213,-252.4133 501.6342,-258.6306 507.3838,-262.6234"/>
<g id="a_edge23&#45;headlabel"><a xlink:href="dir_000526_000062.html" target="_top" xlink:title="2">
<text text-anchor="middle" x="507.6656" y="-264.6954" font-family="Helvetica,sans-Serif" font-size="10.00" fill="#000000">2</text>
</a>
</g>
</g>
<!-- dir_9742c4beffa63bb41af6c796ac2f5cf0&#45;&gt;dir_2171f7ec022c5423887b07c69b2f5b48 -->
<g id="edge24" class="edge">
<title>dir_9742c4beffa63bb41af6c796ac2f5cf0&#45;&gt;dir_2171f7ec022c5423887b07c69b2f5b48</title>
<path fill="none" stroke="#000000" d="M465.4614,-287.7603C457.6761,-269.3551 444.8807,-240.2651 432,-216 427.1826,-206.9248 421.4812,-197.2741 416.1845,-188.6793"/>
<polygon fill="#000000" stroke="#000000" points="419.135,-186.7961 410.8653,-180.1732 413.1999,-190.5076 419.135,-186.7961"/>
<g id="a_edge24&#45;headlabel"><a xlink:href="dir_000526_000089.html" target="_top" xlink:title="4">
<text text-anchor="middle" x="423.4481" y="-185.8385" font-family="Helvetica,sans-Serif" font-size="10.00" fill="#000000">4</text>
</a>
</g>
</g>
<!-- dir_4ab6b4cc6a7edbff49100e9123df213f&#45;&gt;dir_bcbb2cf9a3d3d83e5515c82071a07177 -->
<g id="edge1" class="edge">
<title>dir_4ab6b4cc6a7edbff49100e9123df213f&#45;&gt;dir_bcbb2cf9a3d3d83e5515c82071a07177</title>
<path fill="none" stroke="#000000" d="M670.6969,-287.7454C663.3514,-281.9648 655.2604,-276.0363 647,-272 614.6341,-256.1851 600.8398,-262.2334 565.6481,-253.1287"/>
<polygon fill="#000000" stroke="#000000" points="566.2483,-249.6609 555.6727,-250.2984 564.3376,-256.3951 566.2483,-249.6609"/>
<g id="a_edge1&#45;headlabel"><a xlink:href="dir_000035_000062.html" target="_top" xlink:title="2">
<text text-anchor="middle" x="570.4814" y="-245.4105" font-family="Helvetica,sans-Serif" font-size="10.00" fill="#000000">2</text>
</a>
</g>
</g>
<!-- dir_4ab6b4cc6a7edbff49100e9123df213f&#45;&gt;dir_2171f7ec022c5423887b07c69b2f5b48 -->
<g id="edge2" class="edge">
<title>dir_4ab6b4cc6a7edbff49100e9123df213f&#45;&gt;dir_2171f7ec022c5423887b07c69b2f5b48</title>
<path fill="none" stroke="#000000" d="M669.883,-289.8272C635.1378,-267.038 578.5425,-227.0204 556,-216 520.4997,-198.6448 478.0988,-184.9601 446.2253,-175.7092"/>
<polygon fill="#000000" stroke="#000000" points="446.8457,-172.2464 436.2687,-172.8624 444.9213,-178.9767 446.8457,-172.2464"/>
<g id="a_edge2&#45;headlabel"><a xlink:href="dir_000035_000089.html" target="_top" xlink:title="2">
<text text-anchor="middle" x="451.0823" y="-168.0046" font-family="Helvetica,sans-Serif" font-size="10.00" fill="#000000">2</text>
</a>
</g>
</g>
<!-- dir_b05a5fa85f84bfc9013183c9d87f9a36&#45;&gt;dir_4ab6b4cc6a7edbff49100e9123df213f -->
<g id="edge3" class="edge">
<title>dir_b05a5fa85f84bfc9013183c9d87f9a36&#45;&gt;dir_4ab6b4cc6a7edbff49100e9123df213f</title>
<path fill="none" stroke="#000000" d="M394.2446,-31.4811C448.5623,-59.4648 571.7448,-128.598 649,-216 665.4548,-234.616 678.539,-259.7052 687.0331,-278.6647"/>
<polygon fill="#000000" stroke="#000000" points="683.8684,-280.1646 691.0501,-287.9539 690.2934,-277.3861 683.8684,-280.1646"/>
<g id="a_edge3&#45;headlabel"><a xlink:href="dir_000606_000035.html" target="_top" xlink:title="1">
<text text-anchor="middle" x="679.8357" y="-275.4922" font-family="Helvetica,sans-Serif" font-size="10.00" fill="#000000">1</text>
</a>
</g>
</g>
<!-- dir_b05a5fa85f84bfc9013183c9d87f9a36&#45;&gt;dir_bcbb2cf9a3d3d83e5515c82071a07177 -->
<g id="edge4" class="edge">
<title>dir_b05a5fa85f84bfc9013183c9d87f9a36&#45;&gt;dir_bcbb2cf9a3d3d83e5515c82071a07177</title>
<path fill="none" stroke="#000000" d="M385.0699,-36.0976C407.9751,-59.6277 447.8605,-102.6227 476,-144 489.5281,-163.8923 501.9897,-188.1528 510.6773,-206.471"/>
<polygon fill="#000000" stroke="#000000" points="507.5859,-208.1237 514.9799,-215.7119 513.9318,-205.169 507.5859,-208.1237"/>
<g id="a_edge4&#45;headlabel"><a xlink:href="dir_000606_000062.html" target="_top" xlink:title="99">
<text text-anchor="middle" x="503.4948" y="-203.5635" font-family="Helvetica,sans-Serif" font-size="10.00" fill="#000000">99</text>
</a>
</g>
</g>
<!-- dir_b05a5fa85f84bfc9013183c9d87f9a36&#45;&gt;dir_2171f7ec022c5423887b07c69b2f5b48 -->
<g id="edge5" class="edge">
<title>dir_b05a5fa85f84bfc9013183c9d87f9a36&#45;&gt;dir_2171f7ec022c5423887b07c69b2f5b48</title>
<path fill="none" stroke="#000000" d="M375.6782,-36.0896C383.6223,-60.6805 393.7251,-104.905 398.2288,-133.8531"/>
<polygon fill="#000000" stroke="#000000" points="394.7636,-134.3462 399.6203,-143.7623 401.6956,-133.3727 394.7636,-134.3462"/>
<g id="a_edge5&#45;headlabel"><a xlink:href="dir_000606_000089.html" target="_top" xlink:title="59">
<text text-anchor="middle" x="391.4521" y="-128.6814" font-family="Helvetica,sans-Serif" font-size="10.00" fill="#000000">59</text>
</a>
</g>
</g>
<!-- dir_37c90836491b695b472bf98d1be8336b&#45;&gt;dir_4ab6b4cc6a7edbff49100e9123df213f -->
<g id="edge6" class="edge">
<title>dir_37c90836491b695b472bf98d1be8336b&#45;&gt;dir_4ab6b4cc6a7edbff49100e9123df213f</title>
<path fill="none" stroke="#000000" d="M362.3804,-97.6175C415.3497,-113.3042 533.858,-153.1078 616,-216 639.9766,-234.3577 662.7291,-260.2538 678.157,-279.5579"/>
<polygon fill="#000000" stroke="#000000" points="675.5789,-281.9421 684.5053,-287.6491 681.0861,-277.6211 675.5789,-281.9421"/>
<g id="a_edge6&#45;headlabel"><a xlink:href="dir_000300_000035.html" target="_top" xlink:title="16">
<text text-anchor="middle" x="671.1262" y="-278.3666" font-family="Helvetica,sans-Serif" font-size="10.00" fill="#000000">16</text>
</a>
</g>
</g>
<!-- dir_37c90836491b695b472bf98d1be8336b&#45;&gt;dir_b05a5fa85f84bfc9013183c9d87f9a36 -->
<g id="edge7" class="edge">
<title>dir_37c90836491b695b472bf98d1be8336b&#45;&gt;dir_b05a5fa85f84bfc9013183c9d87f9a36</title>
<path fill="none" stroke="#000000" d="M343.075,-71.8314C346.6102,-63.8771 350.836,-54.369 354.7456,-45.5723"/>
<polygon fill="#000000" stroke="#000000" points="357.9532,-46.9729 358.8163,-36.4133 351.5565,-44.1299 357.9532,-46.9729"/>
<g id="a_edge7&#45;headlabel"><a xlink:href="dir_000300_000606.html" target="_top" xlink:title="1">
<text text-anchor="middle" x="359.0879" y="-48.9108" font-family="Helvetica,sans-Serif" font-size="10.00" fill="#000000">1</text>
</a>
</g>
</g>
<!-- dir_37c90836491b695b472bf98d1be8336b&#45;&gt;dir_bcbb2cf9a3d3d83e5515c82071a07177 -->
<g id="edge8" class="edge">
<title>dir_37c90836491b695b472bf98d1be8336b&#45;&gt;dir_bcbb2cf9a3d3d83e5515c82071a07177</title>
<path fill="none" stroke="#000000" d="M362.0303,-99.7229C385.4088,-108.9262 419.3854,-124.2625 445,-144 468.5405,-162.1392 490.2349,-188.2801 504.7356,-207.7197"/>
<polygon fill="#000000" stroke="#000000" points="501.9584,-209.8513 510.6833,-215.8619 507.6109,-205.7223 501.9584,-209.8513"/>
<g id="a_edge8&#45;headlabel"><a xlink:href="dir_000300_000062.html" target="_top" xlink:title="1">
<text text-anchor="middle" x="497.5454" y="-206.1234" font-family="Helvetica,sans-Serif" font-size="10.00" fill="#000000">1</text>
</a>
</g>
</g>
<!-- dir_37c90836491b695b472bf98d1be8336b&#45;&gt;dir_2171f7ec022c5423887b07c69b2f5b48 -->
<g id="edge9" class="edge">
<title>dir_37c90836491b695b472bf98d1be8336b&#45;&gt;dir_2171f7ec022c5423887b07c69b2f5b48</title>
<path fill="none" stroke="#000000" d="M357.3434,-108.4133C365.54,-116.7389 374.6014,-126.7282 382.2458,-135.8144"/>
<polygon fill="#000000" stroke="#000000" points="379.7623,-138.3063 388.8025,-143.8314 385.1809,-133.8747 379.7623,-138.3063"/>
<g id="a_edge9&#45;headlabel"><a xlink:href="dir_000300_000089.html" target="_top" xlink:title="15">
<text text-anchor="middle" x="375.2888" y="-134.8213" font-family="Helvetica,sans-Serif" font-size="10.00" fill="#000000">15</text>
</a>
</g>
</g>
<!-- dir_bcbb2cf9a3d3d83e5515c82071a07177&#45;&gt;dir_4ab6b4cc6a7edbff49100e9123df213f -->
<g id="edge31" class="edge">
<title>dir_bcbb2cf9a3d3d83e5515c82071a07177&#45;&gt;dir_4ab6b4cc6a7edbff49100e9123df213f</title>
<path fill="none" stroke="#000000" d="M555.5262,-243.8925C563.2606,-246.7248 571.3971,-249.6721 579,-252 616.5227,-263.4889 629.7418,-254.7718 665,-272 670.1628,-274.5227 675.2593,-277.7845 679.9026,-281.2874"/>
<polygon fill="#000000" stroke="#000000" points="677.7561,-284.0543 687.6872,-287.7454 682.2254,-278.6668 677.7561,-284.0543"/>
<g id="a_edge31&#45;headlabel"><a xlink:href="dir_000062_000035.html" target="_top" xlink:title="8">
<text text-anchor="middle" x="673.1767" y="-281.4445" font-family="Helvetica,sans-Serif" font-size="10.00" fill="#000000">8</text>
</a>
</g>
</g>
<!-- dir_bcbb2cf9a3d3d83e5515c82071a07177&#45;&gt;dir_2171f7ec022c5423887b07c69b2f5b48 -->
<g id="edge32" class="edge">
<title>dir_bcbb2cf9a3d3d83e5515c82071a07177&#45;&gt;dir_2171f7ec022c5423887b07c69b2f5b48</title>
<path fill="none" stroke="#000000" d="M490.4154,-218.3771C472.7826,-208.7973 451.1068,-196.3471 433.2374,-185.5842"/>
<polygon fill="#000000" stroke="#000000" points="434.6434,-182.3427 424.2814,-180.1338 431.0043,-188.3224 434.6434,-182.3427"/>
<g id="a_edge32&#45;headlabel"><a xlink:href="dir_000062_000089.html" target="_top" xlink:title="73">
<text text-anchor="middle" x="439.1901" y="-179.2859" font-family="Helvetica,sans-Serif" font-size="10.00" fill="#000000">73</text>
</a>
</g>
</g>
<!-- dir_26637d1bd82229bc9ed97f7e706be743&#45;&gt;dir_4ab6b4cc6a7edbff49100e9123df213f -->
<g id="edge33" class="edge">
<title>dir_26637d1bd82229bc9ed97f7e706be743&#45;&gt;dir_4ab6b4cc6a7edbff49100e9123df213f</title>
<path fill="none" stroke="#000000" d="M654.6358,-359.8314C661.3161,-351.5386 669.3568,-341.557 676.6904,-332.4533"/>
<polygon fill="#000000" stroke="#000000" points="679.6194,-334.3965 683.1671,-324.4133 674.1681,-330.0052 679.6194,-334.3965"/>
<g id="a_edge33&#45;headlabel"><a xlink:href="dir_000665_000035.html" target="_top" xlink:title="10">
<text text-anchor="middle" x="679.5755" y="-336.4769" font-family="Helvetica,sans-Serif" font-size="10.00" fill="#000000">10</text>
</a>
</g>
</g>
<!-- dir_26637d1bd82229bc9ed97f7e706be743&#45;&gt;dir_bcbb2cf9a3d3d83e5515c82071a07177 -->
<g id="edge34" class="edge">
<title>dir_26637d1bd82229bc9ed97f7e706be743&#45;&gt;dir_bcbb2cf9a3d3d83e5515c82071a07177</title>
<path fill="none" stroke="#000000" d="M636.8961,-359.776C632.146,-336.8132 621.0792,-297.2994 598,-272 592.8353,-266.3385 579.2902,-258.9285 565.108,-252.1568"/>
<polygon fill="#000000" stroke="#000000" points="566.3219,-248.8616 555.778,-247.8238 563.3734,-255.2103 566.3219,-248.8616"/>
<g id="a_edge34&#45;headlabel"><a xlink:href="dir_000665_000062.html" target="_top" xlink:title="25">
<text text-anchor="middle" x="570.778" y="-245.3005" font-family="Helvetica,sans-Serif" font-size="10.00" fill="#000000">25</text>
</a>
</g>
</g>
<!-- dir_26637d1bd82229bc9ed97f7e706be743&#45;&gt;dir_2171f7ec022c5423887b07c69b2f5b48 -->
<g id="edge35" class="edge">
<title>dir_26637d1bd82229bc9ed97f7e706be743&#45;&gt;dir_2171f7ec022c5423887b07c69b2f5b48</title>
<path fill="none" stroke="#000000" d="M667.117,-370.8453C689.7259,-363.2882 720.4979,-348.9245 735,-324 746.6228,-304.0241 747.3834,-291.5135 735,-272 703.4753,-222.3239 530.7418,-185.3619 445.9681,-169.9296"/>
<polygon fill="#000000" stroke="#000000" points="446.5424,-166.4768 436.0813,-168.1549 445.3056,-173.3667 446.5424,-166.4768"/>
<g id="a_edge35&#45;headlabel"><a xlink:href="dir_000665_000089.html" target="_top" xlink:title="15">
<text text-anchor="middle" x="450.5821" y="-161.8172" font-family="Helvetica,sans-Serif" font-size="10.00" fill="#000000">15</text>
</a>
</g>
</g>
<!-- dir_2171f7ec022c5423887b07c69b2f5b48&#45;&gt;dir_a5b1c90a9b4d60b6556bfe35a03caaa0 -->
<g id="edge41" class="edge">
<title>dir_2171f7ec022c5423887b07c69b2f5b48&#45;&gt;dir_a5b1c90a9b4d60b6556bfe35a03caaa0</title>
<path fill="none" stroke="#000000" d="M361.6833,-177.5238C344.5197,-186.4292 325.2879,-199.2136 313,-216 283.6542,-256.089 274.7728,-314.9 272.1103,-349.5367"/>
<polygon fill="#000000" stroke="#000000" points="268.5943,-349.6748 271.4463,-359.8785 275.5799,-350.1234 268.5943,-349.6748"/>
<g id="a_edge41&#45;headlabel"><a xlink:href="dir_000089_000180.html" target="_top" xlink:title="2">
<text text-anchor="middle" x="265.9911" y="-343.4057" font-family="Helvetica,sans-Serif" font-size="10.00" fill="#000000">2</text>
</a>
</g>
</g>
<!-- dir_2171f7ec022c5423887b07c69b2f5b48&#45;&gt;dir_732f729910dd598014f768fa2866f334 -->
<g id="edge40" class="edge">
<title>dir_2171f7ec022c5423887b07c69b2f5b48&#45;&gt;dir_732f729910dd598014f768fa2866f334</title>
<path fill="none" stroke="#000000" d="M400.8246,-180.4847C401.8252,-190.9088 403.0512,-204.175 404,-216 407.7473,-262.7044 411.2656,-317.0516 413.2726,-349.4295"/>
<polygon fill="#000000" stroke="#000000" points="409.7861,-349.7585 413.8935,-359.5248 416.7729,-349.3288 409.7861,-349.7585"/>
<g id="a_edge40&#45;headlabel"><a xlink:href="dir_000089_000312.html" target="_top" xlink:title="1">
<text text-anchor="middle" x="406.7317" y="-343.8449" font-family="Helvetica,sans-Serif" font-size="10.00" fill="#000000">1</text>
</a>
</g>
</g>
<!-- dir_2171f7ec022c5423887b07c69b2f5b48&#45;&gt;dir_47779a59737632a3da2336a4e8799b86 -->
<g id="edge39" class="edge">
<title>dir_2171f7ec022c5423887b07c69b2f5b48&#45;&gt;dir_47779a59737632a3da2336a4e8799b86</title>
<path fill="none" stroke="#000000" d="M394.2957,-180.1451C384.5141,-217.8741 361.9238,-305.0083 350.2604,-349.9956"/>
<polygon fill="#000000" stroke="#000000" points="346.7999,-349.3971 347.6782,-359.9555 353.5759,-351.1539 346.7999,-349.3971"/>
<g id="a_edge39&#45;headlabel"><a xlink:href="dir_000089_000184.html" target="_top" xlink:title="2">
<text text-anchor="middle" x="344.9535" y="-342.705" font-family="Helvetica,sans-Serif" font-size="10.00" fill="#000000">2</text>
</a>
</g>
</g>
<!-- dir_2171f7ec022c5423887b07c69b2f5b48&#45;&gt;dir_4ab6b4cc6a7edbff49100e9123df213f -->
<g id="edge36" class="edge">
<title>dir_2171f7ec022c5423887b07c69b2f5b48&#45;&gt;dir_4ab6b4cc6a7edbff49100e9123df213f</title>
<path fill="none" stroke="#000000" d="M436.2433,-169.2153C472.7628,-177.8562 528.9401,-193.9713 574,-216 594.0329,-225.7936 640.9585,-258.4872 671.152,-281.6391"/>
<polygon fill="#000000" stroke="#000000" points="669.1458,-284.5127 679.1882,-287.8892 673.4432,-278.9871 669.1458,-284.5127"/>
<g id="a_edge36&#45;headlabel"><a xlink:href="dir_000089_000035.html" target="_top" xlink:title="39">
<text text-anchor="middle" x="664.5652" y="-282.0472" font-family="Helvetica,sans-Serif" font-size="10.00" fill="#000000">39</text>
</a>
</g>
</g>
<!-- dir_2171f7ec022c5423887b07c69b2f5b48&#45;&gt;dir_b05a5fa85f84bfc9013183c9d87f9a36 -->
<g id="edge37" class="edge">
<title>dir_2171f7ec022c5423887b07c69b2f5b48&#45;&gt;dir_b05a5fa85f84bfc9013183c9d87f9a36</title>
<path fill="none" stroke="#000000" d="M390.274,-143.7623C382.3561,-119.201 372.3139,-75.2474 367.8035,-46.3541"/>
<polygon fill="#000000" stroke="#000000" points="371.2187,-45.5055 366.3616,-36.0896 364.2868,-46.4793 371.2187,-45.5055"/>
<g id="a_edge37&#45;headlabel"><a xlink:href="dir_000089_000606.html" target="_top" xlink:title="1">
<text text-anchor="middle" x="374.5303" y="-46.1702" font-family="Helvetica,sans-Serif" font-size="10.00" fill="#000000">1</text>
</a>
</g>
</g>
<!-- dir_2171f7ec022c5423887b07c69b2f5b48&#45;&gt;dir_37c90836491b695b472bf98d1be8336b -->
<g id="edge38" class="edge">
<title>dir_2171f7ec022c5423887b07c69b2f5b48&#45;&gt;dir_37c90836491b695b472bf98d1be8336b</title>
<path fill="none" stroke="#000000" d="M376.8977,-143.8314C368.6348,-135.454 359.4665,-125.3531 351.7452,-116.1749"/>
<polygon fill="#000000" stroke="#000000" points="354.4341,-113.9341 345.3913,-108.4133 349.0175,-118.3683 354.4341,-113.9341"/>
<g id="a_edge38&#45;headlabel"><a xlink:href="dir_000089_000300.html" target="_top" xlink:title="1">
<text text-anchor="middle" x="358.908" y="-112.4171" font-family="Helvetica,sans-Serif" font-size="10.00" fill="#000000">1</text>
</a>
</g>
</g>
<!-- dir_2171f7ec022c5423887b07c69b2f5b48&#45;&gt;dir_bcbb2cf9a3d3d83e5515c82071a07177 -->
<g id="edge42" class="edge">
<title>dir_2171f7ec022c5423887b07c69b2f5b48&#45;&gt;dir_bcbb2cf9a3d3d83e5515c82071a07177</title>
<path fill="none" stroke="#000000" d="M436.2323,-180.1628C452.9889,-189.3712 472.5764,-200.6631 488.9407,-210.5232"/>
<polygon fill="#000000" stroke="#000000" points="487.3001,-213.6219 497.662,-215.8314 490.9395,-207.6424 487.3001,-213.6219"/>
<g id="a_edge42&#45;headlabel"><a xlink:href="dir_000089_000062.html" target="_top" xlink:title="22">
<text text-anchor="middle" x="482.7533" y="-211.6783" font-family="Helvetica,sans-Serif" font-size="10.00" fill="#000000">22</text>
</a>
</g>
</g>
</g>
</svg>
        <g id="navigator" transform="translate(0 0)" fill="#404254">
                <rect fill="#f2f5e9" fill-opacity="0.5" stroke="#606060" stroke-width=".5" x="0" y="0" width="60" height="60"/>
                <use id="zoomplus" xlink:href="#zoomPlus" x="17" y="9" onmousedown="handleZoom(evt,'in')"/>
                <use id="zoomminus" xlink:href="#zoomMin" x="42" y="9" onmousedown="handleZoom(evt,'out')"/>
                <use id="reset" xlink:href="#resetDef" x="30" y="36" onmousedown="handleReset()"/>
                <g id="arrowUp" xlink:href="#dirArrow" transform="translate(30 24)" onmousedown="handlePan(0,-1)">
                  <use xlink:href="#rim" fill="#404040">
                        <set attributeName="fill" to="#808080" begin="arrowUp.mouseover" end="arrowUp.mouseout"/>
                  </use>
                  <path fill="none" stroke="white" stroke-width="1.5" d="M0,-3.0v7 M-2.5,-0.5L0,-3.0L2.5,-0.5"/>
                </g>
                <g id="arrowRight" xlink:href="#dirArrow" transform="rotate(90) translate(36 -43)" onmousedown="handlePan(1,0)">
                  <use xlink:href="#rim" fill="#404040">
                        <set attributeName="fill" to="#808080" begin="arrowRight.mouseover" end="arrowRight.mouseout"/>
                  </use>
                  <path fill="none" stroke="white" stroke-width="1.5" d="M0,-3.0v7 M-2.5,-0.5L0,-3.0L2.5,-0.5"/>
                </g>
                <g id="arrowDown" xlink:href="#dirArrow" transform="rotate(180) translate(-30 -48)" onmousedown="handlePan(0,1)">
                  <use xlink:href="#rim" fill="#404040">
                        <set attributeName="fill" to="#808080" begin="arrowDown.mouseover" end="arrowDown.mouseout"/>
                  </use>
                  <path fill="none" stroke="white" stroke-width="1.5" d="M0,-3.0v7 M-2.5,-0.5L0,-3.0L2.5,-0.5"/>
                </g>
                <g id="arrowLeft" xlink:href="#dirArrow" transform="rotate(270) translate(-36 17)" onmousedown="handlePan(-1,0)">
                  <use xlink:href="#rim" fill="#404040">
                        <set attributeName="fill" to="#808080" begin="arrowLeft.mouseover" end="arrowLeft.mouseout"/>
                  </use>
                  <path fill="none" stroke="white" stroke-width="1.5" d="M0,-3.0v7 M-2.5,-0.5L0,-3.0L2.5,-0.5"/>
                </g>
        </g>
        <svg viewBox="0 0 15 15" width="100%" height="30px" preserveAspectRatio="xMaxYMin meet">
         <g id="arrow_out" transform="scale(0.3 0.3)">
          <a xlink:href="dir_d14e88a79bca429480864605ee348cef_dep_org.svg" target="_base">
           <rect id="button" ry="5" rx="5" y="6" x="6" height="38" width="38"
                fill="#f2f5e9" fill-opacity="0.5" stroke="#606060" stroke-width="1.0"/>
           <path id="arrow"
             d="M 11.500037,31.436501 C 11.940474,20.09759 22.043105,11.32322 32.158766,21.979434 L 37.068811,17.246167 C 37.068811,17.246167 37.088388,32 37.088388,32 L 22.160133,31.978069 C 22.160133,31.978069 26.997745,27.140456 26.997745,27.140456 C 18.528582,18.264221 13.291696,25.230495 11.500037,31.436501 z"
             style="fill:#404040;"/>
          </a>
         </g>
        </svg>
</svg>
