<?xml version="1.0" encoding="UTF-8" standalone="no"?>
<!DOCTYPE svg PUBLIC "-//W3C//DTD SVG 1.1//EN"
 "http://www.w3.org/Graphics/SVG/1.1/DTD/svg11.dtd">
<!-- Generated by graphviz version 2.40.1 (20161225.0304)
 -->
<!-- Title: /home/runner/work/AliceO2/AliceO2/Analysis/Tutorials/src Pages: 1 -->
<svg width="425pt" height="439pt"
 viewBox="0.00 0.00 425.00 439.00" xmlns="http://www.w3.org/2000/svg" xmlns:xlink="http://www.w3.org/1999/xlink">
<g id="graph0" class="graph" transform="scale(1 1) rotate(0) translate(4 435)">
<title>/home/runner/work/AliceO2/AliceO2/Analysis/Tutorials/src</title>
<g id="clust1" class="cluster">
<title>clusterdir_6e355b58bf8669476ee36a32071bc3eb</title>
<g id="a_clust1"><a xlink:href="dir_6e355b58bf8669476ee36a32071bc3eb.html" target="_top" xlink:title="Tutorials">
<polygon fill="#ddddee" stroke="#000000" points="184,-352 184,-423 254,-423 254,-352 184,-352"/>
<text text-anchor="middle" x="219" y="-411" font-family="Helvetica,sans-Serif" font-size="10.00" fill="#000000">Tutorials</text>
</a>
</g>
</g>
<!-- dir_75e6eb4f8361c04b3062a7d58db1db64 -->
<g id="node1" class="node">
<title>dir_75e6eb4f8361c04b3062a7d58db1db64</title>
<g id="a_node1"><a xlink:href="dir_75e6eb4f8361c04b3062a7d58db1db64.html" target="_top" xlink:title="src">
<polygon fill="#eeeeff" stroke="#000000" points="246,-396 192,-396 192,-360 246,-360 246,-396"/>
<text text-anchor="middle" x="219" y="-375.5" font-family="Helvetica,sans-Serif" font-size="10.00" fill="#000000">src</text>
</a>
</g>
</g>
<!-- dir_ad5eba3530a5ccfc7373dd7961357f6a -->
<g id="node2" class="node">
<title>dir_ad5eba3530a5ccfc7373dd7961357f6a</title>
<g id="a_node2"><a xlink:href="dir_ad5eba3530a5ccfc7373dd7961357f6a.html" target="_top" xlink:title="include">
<polygon fill="none" stroke="#ff0000" points="54,-324 0,-324 0,-288 54,-288 54,-324"/>
<text text-anchor="middle" x="27" y="-303.5" font-family="Helvetica,sans-Serif" font-size="10.00" fill="#000000">include</text>
</a>
</g>
</g>
<!-- dir_75e6eb4f8361c04b3062a7d58db1db64&#45;&gt;dir_ad5eba3530a5ccfc7373dd7961357f6a -->
<g id="edge10" class="edge">
<title>dir_75e6eb4f8361c04b3062a7d58db1db64&#45;&gt;dir_ad5eba3530a5ccfc7373dd7961357f6a</title>
<path fill="none" stroke="#000000" d="M191.7815,-368.9105C161.3806,-358.6093 110.8147,-341.0296 68,-324 66.6005,-323.4433 65.1779,-322.8678 63.7439,-322.2795"/>
<polygon fill="#000000" stroke="#000000" points="64.8091,-318.9305 54.2346,-318.2751 62.0924,-325.3818 64.8091,-318.9305"/>
<g id="a_edge10&#45;headlabel"><a xlink:href="dir_000027_000025.html" target="_top" xlink:title="2">
<text text-anchor="middle" x="69.2239" y="-315.2087" font-family="Helvetica,sans-Serif" font-size="10.00" fill="#000000">2</text>
</a>
</g>
</g>
<!-- dir_4ab6b4cc6a7edbff49100e9123df213f -->
<g id="node3" class="node">
<title>dir_4ab6b4cc6a7edbff49100e9123df213f</title>
<g id="a_node3"><a xlink:href="dir_4ab6b4cc6a7edbff49100e9123df213f.html" target="_top" xlink:title="Common">
<polygon fill="none" stroke="#ff0000" points="275,-180 219,-180 219,-144 275,-144 275,-180"/>
<text text-anchor="middle" x="247" y="-159.5" font-family="Helvetica,sans-Serif" font-size="10.00" fill="#000000">Common</text>
</a>
</g>
</g>
<!-- dir_75e6eb4f8361c04b3062a7d58db1db64&#45;&gt;dir_4ab6b4cc6a7edbff49100e9123df213f -->
<g id="edge11" class="edge">
<title>dir_75e6eb4f8361c04b3062a7d58db1db64&#45;&gt;dir_4ab6b4cc6a7edbff49100e9123df213f</title>
<path fill="none" stroke="#000000" d="M221.3391,-359.9555C226.2185,-322.3144 237.5128,-235.1867 243.3542,-190.1246"/>
<polygon fill="#000000" stroke="#000000" points="246.8332,-190.5121 244.6479,-180.1451 239.8913,-189.6121 246.8332,-190.5121"/>
<g id="a_edge11&#45;headlabel"><a xlink:href="dir_000027_000035.html" target="_top" xlink:title="1">
<text text-anchor="middle" x="249.1869" y="-191.9418" font-family="Helvetica,sans-Serif" font-size="10.00" fill="#000000">1</text>
</a>
</g>
</g>
<!-- dir_6af676bf18881990e4083e191d0e63e0 -->
<g id="node4" class="node">
<title>dir_6af676bf18881990e4083e191d0e63e0</title>
<g id="a_node4"><a xlink:href="dir_6af676bf18881990e4083e191d0e63e0.html" target="_top" xlink:title="CCDB">
<polygon fill="none" stroke="#ff0000" points="164,-252 110,-252 110,-216 164,-216 164,-252"/>
<text text-anchor="middle" x="137" y="-231.5" font-family="Helvetica,sans-Serif" font-size="10.00" fill="#000000">CCDB</text>
</a>
</g>
</g>
<!-- dir_75e6eb4f8361c04b3062a7d58db1db64&#45;&gt;dir_6af676bf18881990e4083e191d0e63e0 -->
<g id="edge12" class="edge">
<title>dir_75e6eb4f8361c04b3062a7d58db1db64&#45;&gt;dir_6af676bf18881990e4083e191d0e63e0</title>
<path fill="none" stroke="#000000" d="M208.6146,-359.7623C194.3819,-334.7682 168.7137,-289.6924 152.2844,-260.8409"/>
<polygon fill="#000000" stroke="#000000" points="155.2909,-259.0475 147.301,-252.0896 149.208,-262.5114 155.2909,-259.0475"/>
<g id="a_edge12&#45;headlabel"><a xlink:href="dir_000027_000028.html" target="_top" xlink:title="3">
<text text-anchor="middle" x="159.5369" y="-258.2662" font-family="Helvetica,sans-Serif" font-size="10.00" fill="#000000">3</text>
</a>
</g>
</g>
<!-- dir_f41dd59f861c855ea21b0dc3111cb7b0 -->
<g id="node5" class="node">
<title>dir_f41dd59f861c855ea21b0dc3111cb7b0</title>
<g id="a_node5"><a xlink:href="dir_f41dd59f861c855ea21b0dc3111cb7b0.html" target="_top" xlink:title="DataModel">
<polygon fill="none" stroke="#ff0000" points="311,-324 247,-324 247,-288 311,-288 311,-324"/>
<text text-anchor="middle" x="279" y="-303.5" font-family="Helvetica,sans-Serif" font-size="10.00" fill="#000000">DataModel</text>
</a>
</g>
</g>
<!-- dir_75e6eb4f8361c04b3062a7d58db1db64&#45;&gt;dir_f41dd59f861c855ea21b0dc3111cb7b0 -->
<g id="edge13" class="edge">
<title>dir_75e6eb4f8361c04b3062a7d58db1db64&#45;&gt;dir_f41dd59f861c855ea21b0dc3111cb7b0</title>
<path fill="none" stroke="#000000" d="M234.1405,-359.8314C241.1217,-351.454 249.5391,-341.3531 257.1876,-332.1749"/>
<polygon fill="#000000" stroke="#000000" points="259.9425,-334.3362 263.6556,-324.4133 254.5649,-329.8548 259.9425,-334.3362"/>
<g id="a_edge13&#45;headlabel"><a xlink:href="dir_000027_000009.html" target="_top" xlink:title="2">
<text text-anchor="middle" x="259.8225" y="-336.4152" font-family="Helvetica,sans-Serif" font-size="10.00" fill="#000000">2</text>
</a>
</g>
</g>
<!-- dir_8d04f135a1eb0fdc4d561ef87bbea216 -->
<g id="node6" class="node">
<title>dir_8d04f135a1eb0fdc4d561ef87bbea216</title>
<g id="a_node6"><a xlink:href="dir_8d04f135a1eb0fdc4d561ef87bbea216.html" target="_top" xlink:title="Core">
<polygon fill="none" stroke="#ff0000" points="350,-252 296,-252 296,-216 350,-216 350,-252"/>
<text text-anchor="middle" x="323" y="-231.5" font-family="Helvetica,sans-Serif" font-size="10.00" fill="#000000">Core</text>
</a>
</g>
</g>
<!-- dir_75e6eb4f8361c04b3062a7d58db1db64&#45;&gt;dir_8d04f135a1eb0fdc4d561ef87bbea216 -->
<g id="edge14" class="edge">
<title>dir_75e6eb4f8361c04b3062a7d58db1db64&#45;&gt;dir_8d04f135a1eb0fdc4d561ef87bbea216</title>
<path fill="none" stroke="#000000" d="M246.1557,-371.6358C270.1273,-364.4442 303.7188,-350.1681 320,-324 331.3753,-305.7169 331.3786,-281.055 328.954,-262.1706"/>
<polygon fill="#000000" stroke="#000000" points="332.3781,-261.4147 327.364,-252.0815 325.4635,-262.5045 332.3781,-261.4147"/>
<g id="a_edge14&#45;headlabel"><a xlink:href="dir_000027_000005.html" target="_top" xlink:title="3">
<text text-anchor="middle" x="335.7423" y="-262.0235" font-family="Helvetica,sans-Serif" font-size="10.00" fill="#000000">3</text>
</a>
</g>
</g>
<!-- dir_bcbb2cf9a3d3d83e5515c82071a07177 -->
<g id="node7" class="node">
<title>dir_bcbb2cf9a3d3d83e5515c82071a07177</title>
<g id="a_node7"><a xlink:href="dir_bcbb2cf9a3d3d83e5515c82071a07177.html" target="_top" xlink:title="Framework">
<polygon fill="none" stroke="#ff0000" points="256.5,-108 191.5,-108 191.5,-72 256.5,-72 256.5,-108"/>
<text text-anchor="middle" x="224" y="-87.5" font-family="Helvetica,sans-Serif" font-size="10.00" fill="#000000">Framework</text>
</a>
</g>
</g>
<!-- dir_75e6eb4f8361c04b3062a7d58db1db64&#45;&gt;dir_bcbb2cf9a3d3d83e5515c82071a07177 -->
<g id="edge15" class="edge">
<title>dir_75e6eb4f8361c04b3062a7d58db1db64&#45;&gt;dir_bcbb2cf9a3d3d83e5515c82071a07177</title>
<path fill="none" stroke="#000000" d="M191.8404,-361.4213C151.1031,-334.2151 80.9719,-276.9927 101,-216 115.4276,-172.0629 155.7548,-136.0545 186.3341,-113.9468"/>
<polygon fill="#000000" stroke="#000000" points="188.5038,-116.6999 194.6709,-108.0849 184.4775,-110.9737 188.5038,-116.6999"/>
<g id="a_edge15&#45;headlabel"><a xlink:href="dir_000027_000062.html" target="_top" xlink:title="91">
<text text-anchor="middle" x="187.1964" y="-118.59" font-family="Helvetica,sans-Serif" font-size="10.00" fill="#000000">91</text>
</a>
</g>
</g>
<!-- dir_2171f7ec022c5423887b07c69b2f5b48 -->
<g id="node8" class="node">
<title>dir_2171f7ec022c5423887b07c69b2f5b48</title>
<g id="a_node8"><a xlink:href="dir_2171f7ec022c5423887b07c69b2f5b48.html" target="_top" xlink:title="DataFormats">
<polygon fill="none" stroke="#ff0000" points="331,-36 257,-36 257,0 331,0 331,-36"/>
<text text-anchor="middle" x="294" y="-15.5" font-family="Helvetica,sans-Serif" font-size="10.00" fill="#000000">DataFormats</text>
</a>
</g>
</g>
<!-- dir_75e6eb4f8361c04b3062a7d58db1db64&#45;&gt;dir_2171f7ec022c5423887b07c69b2f5b48 -->
<g id="edge16" class="edge">
<title>dir_75e6eb4f8361c04b3062a7d58db1db64&#45;&gt;dir_2171f7ec022c5423887b07c69b2f5b48</title>
<path fill="none" stroke="#000000" d="M246.1159,-371.8148C300.3431,-357.6658 417,-317.5215 417,-234 417,-234 417,-234 417,-162 417,-109.646 369.4118,-66.7084 333.4361,-41.7285"/>
<polygon fill="#000000" stroke="#000000" points="335.2873,-38.7555 325.0381,-36.0714 331.3764,-44.5612 335.2873,-38.7555"/>
<g id="a_edge16&#45;headlabel"><a xlink:href="dir_000027_000089.html" target="_top" xlink:title="1">
<text text-anchor="middle" x="339.8548" y="-35.909" font-family="Helvetica,sans-Serif" font-size="10.00" fill="#000000">1</text>
</a>
</g>
</g>
<!-- dir_4ab6b4cc6a7edbff49100e9123df213f&#45;&gt;dir_bcbb2cf9a3d3d83e5515c82071a07177 -->
<g id="edge1" class="edge">
<title>dir_4ab6b4cc6a7edbff49100e9123df213f&#45;&gt;dir_bcbb2cf9a3d3d83e5515c82071a07177</title>
<path fill="none" stroke="#000000" d="M235.2437,-143.8314C231.9982,-136.0463 228.8184,-126.7729 226.3828,-118.1347"/>
<polygon fill="#000000" stroke="#000000" points="229.7666,-117.2396 223.906,-108.4133 222.9833,-118.9678 229.7666,-117.2396"/>
<g id="a_edge1&#45;headlabel"><a xlink:href="dir_000035_000062.html" target="_top" xlink:title="2">
<text text-anchor="middle" x="233.4054" y="-117.522" font-family="Helvetica,sans-Serif" font-size="10.00" fill="#000000">2</text>
</a>
</g>
</g>
<!-- dir_4ab6b4cc6a7edbff49100e9123df213f&#45;&gt;dir_2171f7ec022c5423887b07c69b2f5b48 -->
<g id="edge2" class="edge">
<title>dir_4ab6b4cc6a7edbff49100e9123df213f&#45;&gt;dir_2171f7ec022c5423887b07c69b2f5b48</title>
<path fill="none" stroke="#000000" d="M245.7486,-143.5631C248.397,-133.1539 253.0612,-119.8868 257,-108 263.8731,-87.2578 271.1944,-63.6667 277.9035,-45.8426"/>
<polygon fill="#000000" stroke="#000000" points="281.241,-46.9207 281.6677,-36.3344 274.7324,-44.344 281.241,-46.9207"/>
<g id="a_edge2&#45;headlabel"><a xlink:href="dir_000035_000089.html" target="_top" xlink:title="2">
<text text-anchor="middle" x="282.5578" y="-48.808" font-family="Helvetica,sans-Serif" font-size="10.00" fill="#000000">2</text>
</a>
</g>
</g>
<!-- dir_6af676bf18881990e4083e191d0e63e0&#45;&gt;dir_4ab6b4cc6a7edbff49100e9123df213f -->
<g id="edge3" class="edge">
<title>dir_6af676bf18881990e4083e191d0e63e0&#45;&gt;dir_4ab6b4cc6a7edbff49100e9123df213f</title>
<path fill="none" stroke="#000000" d="M164.191,-216.2022C178.2315,-207.0121 195.553,-195.6744 210.7187,-185.7478"/>
<polygon fill="#000000" stroke="#000000" points="212.9075,-188.4982 219.3577,-180.0931 209.0739,-182.6413 212.9075,-188.4982"/>
<g id="a_edge3&#45;headlabel"><a xlink:href="dir_000028_000035.html" target="_top" xlink:title="4">
<text text-anchor="middle" x="211.4549" y="-190.3424" font-family="Helvetica,sans-Serif" font-size="10.00" fill="#000000">4</text>
</a>
</g>
</g>
<!-- dir_6af676bf18881990e4083e191d0e63e0&#45;&gt;dir_bcbb2cf9a3d3d83e5515c82071a07177 -->
<g id="edge4" class="edge">
<title>dir_6af676bf18881990e4083e191d0e63e0&#45;&gt;dir_bcbb2cf9a3d3d83e5515c82071a07177</title>
<path fill="none" stroke="#000000" d="M143.1989,-215.9575C150.0524,-197.1972 162.1173,-167.3622 177,-144 183.2374,-134.2088 191.1802,-124.3737 198.7535,-115.8301"/>
<polygon fill="#000000" stroke="#000000" points="201.3912,-118.132 205.5452,-108.3854 196.2199,-113.4142 201.3912,-118.132"/>
<g id="a_edge4&#45;headlabel"><a xlink:href="dir_000028_000062.html" target="_top" xlink:title="2">
<text text-anchor="middle" x="201.0662" y="-120.2011" font-family="Helvetica,sans-Serif" font-size="10.00" fill="#000000">2</text>
</a>
</g>
</g>
<!-- dir_f41dd59f861c855ea21b0dc3111cb7b0&#45;&gt;dir_4ab6b4cc6a7edbff49100e9123df213f -->
<g id="edge5" class="edge">
<title>dir_f41dd59f861c855ea21b0dc3111cb7b0&#45;&gt;dir_4ab6b4cc6a7edbff49100e9123df213f</title>
<path fill="none" stroke="#000000" d="M274.9472,-287.7623C269.4651,-263.0928 259.6355,-218.8598 253.2162,-189.9731"/>
<polygon fill="#000000" stroke="#000000" points="256.606,-189.0922 251.0199,-180.0896 249.7726,-190.6108 256.606,-189.0922"/>
<g id="a_edge5&#45;headlabel"><a xlink:href="dir_000009_000035.html" target="_top" xlink:title="1">
<text text-anchor="middle" x="260.1573" y="-189.4853" font-family="Helvetica,sans-Serif" font-size="10.00" fill="#000000">1</text>
</a>
</g>
</g>
<!-- dir_f41dd59f861c855ea21b0dc3111cb7b0&#45;&gt;dir_6af676bf18881990e4083e191d0e63e0 -->
<g id="edge6" class="edge">
<title>dir_f41dd59f861c855ea21b0dc3111cb7b0&#45;&gt;dir_6af676bf18881990e4083e191d0e63e0</title>
<path fill="none" stroke="#000000" d="M246.778,-289.6621C224.9146,-278.5764 195.9744,-263.9025 173.2975,-252.4044"/>
<polygon fill="#000000" stroke="#000000" points="174.8178,-249.2511 164.316,-247.8504 171.6522,-255.4944 174.8178,-249.2511"/>
<g id="a_edge6&#45;headlabel"><a xlink:href="dir_000009_000028.html" target="_top" xlink:title="2">
<text text-anchor="middle" x="179.3078" y="-245.8443" font-family="Helvetica,sans-Serif" font-size="10.00" fill="#000000">2</text>
</a>
</g>
</g>
<!-- dir_f41dd59f861c855ea21b0dc3111cb7b0&#45;&gt;dir_8d04f135a1eb0fdc4d561ef87bbea216 -->
<g id="edge7" class="edge">
<title>dir_f41dd59f861c855ea21b0dc3111cb7b0&#45;&gt;dir_8d04f135a1eb0fdc4d561ef87bbea216</title>
<path fill="none" stroke="#000000" d="M290.1031,-287.8314C295.0674,-279.7079 301.0222,-269.9637 306.4928,-261.0118"/>
<polygon fill="#000000" stroke="#000000" points="309.5194,-262.7712 311.7474,-252.4133 303.5464,-259.121 309.5194,-262.7712"/>
<g id="a_edge7&#45;headlabel"><a xlink:href="dir_000009_000005.html" target="_top" xlink:title="3">
<text text-anchor="middle" x="310.0677" y="-264.8189" font-family="Helvetica,sans-Serif" font-size="10.00" fill="#000000">3</text>
</a>
</g>
</g>
<!-- dir_f41dd59f861c855ea21b0dc3111cb7b0&#45;&gt;dir_bcbb2cf9a3d3d83e5515c82071a07177 -->
<g id="edge8" class="edge">
<title>dir_f41dd59f861c855ea21b0dc3111cb7b0&#45;&gt;dir_bcbb2cf9a3d3d83e5515c82071a07177</title>
<path fill="none" stroke="#000000" d="M265.0231,-287.6281C248.1263,-264.151 220.634,-221.5583 210,-180 204.7326,-159.4146 208.8522,-135.6429 213.9557,-117.7015"/>
<polygon fill="#000000" stroke="#000000" points="217.3029,-118.7241 216.9244,-108.136 210.6175,-116.6492 217.3029,-118.7241"/>
<g id="a_edge8&#45;headlabel"><a xlink:href="dir_000009_000062.html" target="_top" xlink:title="19">
<text text-anchor="middle" x="218.9492" y="-120.4987" font-family="Helvetica,sans-Serif" font-size="10.00" fill="#000000">19</text>
</a>
</g>
</g>
<!-- dir_f41dd59f861c855ea21b0dc3111cb7b0&#45;&gt;dir_2171f7ec022c5423887b07c69b2f5b48 -->
<g id="edge9" class="edge">
<title>dir_f41dd59f861c855ea21b0dc3111cb7b0&#45;&gt;dir_2171f7ec022c5423887b07c69b2f5b48</title>
<path fill="none" stroke="#000000" d="M311.0409,-293.4094C328.6205,-284.6504 348.855,-271.0878 359,-252 396.1028,-182.1914 343.9871,-89.1141 313.4405,-44.3014"/>
<polygon fill="#000000" stroke="#000000" points="316.2438,-42.2024 307.6516,-36.0036 310.5028,-46.2076 316.2438,-42.2024"/>
<g id="a_edge9&#45;headlabel"><a xlink:href="dir_000009_000089.html" target="_top" xlink:title="5">
<text text-anchor="middle" x="320.6291" y="-41.026" font-family="Helvetica,sans-Serif" font-size="10.00" fill="#000000">5</text>
</a>
</g>
</g>
<!-- dir_8d04f135a1eb0fdc4d561ef87bbea216&#45;&gt;dir_4ab6b4cc6a7edbff49100e9123df213f -->
<g id="edge17" class="edge">
<title>dir_8d04f135a1eb0fdc4d561ef87bbea216&#45;&gt;dir_4ab6b4cc6a7edbff49100e9123df213f</title>
<path fill="none" stroke="#000000" d="M303.822,-215.8314C294.6412,-207.1337 283.4994,-196.5783 273.5224,-187.1265"/>
<polygon fill="#000000" stroke="#000000" points="275.8385,-184.4995 266.1719,-180.1628 271.0243,-189.5811 275.8385,-184.4995"/>
<g id="a_edge17&#45;headlabel"><a xlink:href="dir_000005_000035.html" target="_top" xlink:title="1">
<text text-anchor="middle" x="280.4007" y="-182.4104" font-family="Helvetica,sans-Serif" font-size="10.00" fill="#000000">1</text>
</a>
</g>
</g>
<!-- dir_8d04f135a1eb0fdc4d561ef87bbea216&#45;&gt;dir_bcbb2cf9a3d3d83e5515c82071a07177 -->
<g id="edge18" class="edge">
<title>dir_8d04f135a1eb0fdc4d561ef87bbea216&#45;&gt;dir_bcbb2cf9a3d3d83e5515c82071a07177</title>
<path fill="none" stroke="#000000" d="M317.7148,-215.9192C311.5854,-196.8603 300.2056,-166.5353 284,-144 276.3173,-133.3165 266.1983,-123.2053 256.4639,-114.6839"/>
<polygon fill="#000000" stroke="#000000" points="258.6929,-111.9852 248.7934,-108.2101 254.1781,-117.3346 258.6929,-111.9852"/>
<g id="a_edge18&#45;headlabel"><a xlink:href="dir_000005_000062.html" target="_top" xlink:title="12">
<text text-anchor="middle" x="263.2712" y="-109.6338" font-family="Helvetica,sans-Serif" font-size="10.00" fill="#000000">12</text>
</a>
</g>
</g>
<!-- dir_8d04f135a1eb0fdc4d561ef87bbea216&#45;&gt;dir_2171f7ec022c5423887b07c69b2f5b48 -->
<g id="edge19" class="edge">
<title>dir_8d04f135a1eb0fdc4d561ef87bbea216&#45;&gt;dir_2171f7ec022c5423887b07c69b2f5b48</title>
<path fill="none" stroke="#000000" d="M320.5774,-215.9555C315.5237,-178.3144 303.826,-91.1867 297.776,-46.1246"/>
<polygon fill="#000000" stroke="#000000" points="301.2358,-45.5904 296.4361,-36.1451 294.298,-46.5219 301.2358,-45.5904"/>
<g id="a_edge19&#45;headlabel"><a xlink:href="dir_000005_000089.html" target="_top" xlink:title="2">
<text text-anchor="middle" x="304.528" y="-46.2753" font-family="Helvetica,sans-Serif" font-size="10.00" fill="#000000">2</text>
</a>
</g>
</g>
<!-- dir_bcbb2cf9a3d3d83e5515c82071a07177&#45;&gt;dir_4ab6b4cc6a7edbff49100e9123df213f -->
<g id="edge20" class="edge">
<title>dir_bcbb2cf9a3d3d83e5515c82071a07177&#45;&gt;dir_4ab6b4cc6a7edbff49100e9123df213f</title>
<path fill="none" stroke="#000000" d="M235.858,-108.4133C239.1021,-116.2292 242.2734,-125.5113 244.6934,-134.136"/>
<polygon fill="#000000" stroke="#000000" points="241.3007,-134.9965 247.1485,-143.8314 248.0866,-133.2781 241.3007,-134.9965"/>
<g id="a_edge20&#45;headlabel"><a xlink:href="dir_000062_000035.html" target="_top" xlink:title="8">
<text text-anchor="middle" x="237.666" y="-129.7089" font-family="Helvetica,sans-Serif" font-size="10.00" fill="#000000">8</text>
</a>
</g>
</g>
<!-- dir_bcbb2cf9a3d3d83e5515c82071a07177&#45;&gt;dir_2171f7ec022c5423887b07c69b2f5b48 -->
<g id="edge21" class="edge">
<title>dir_bcbb2cf9a3d3d83e5515c82071a07177&#45;&gt;dir_2171f7ec022c5423887b07c69b2f5b48</title>
<path fill="none" stroke="#000000" d="M235.7116,-71.8314C243.32,-63.1337 253.4101,-52.5783 263.1029,-43.1265"/>
<polygon fill="#000000" stroke="#000000" points="265.5783,-45.6021 270.3899,-36.1628 260.7421,-40.5414 265.5783,-45.6021"/>
<g id="a_edge21&#45;headlabel"><a xlink:href="dir_000062_000089.html" target="_top" xlink:title="73">
<text text-anchor="middle" x="264.9412" y="-47.6382" font-family="Helvetica,sans-Serif" font-size="10.00" fill="#000000">73</text>
</a>
</g>
</g>
<!-- dir_2171f7ec022c5423887b07c69b2f5b48&#45;&gt;dir_4ab6b4cc6a7edbff49100e9123df213f -->
<g id="edge22" class="edge">
<title>dir_2171f7ec022c5423887b07c69b2f5b48&#45;&gt;dir_4ab6b4cc6a7edbff49100e9123df213f</title>
<path fill="none" stroke="#000000" d="M295.355,-36.3344C292.003,-54.5656 283.1838,-83.3023 275,-108 272.169,-116.5436 268.9632,-125.8004 265.6037,-134.1964"/>
<polygon fill="#000000" stroke="#000000" points="262.3122,-132.9921 261.6024,-143.5631 268.7495,-135.742 262.3122,-132.9921"/>
<g id="a_edge22&#45;headlabel"><a xlink:href="dir_000089_000035.html" target="_top" xlink:title="39">
<text text-anchor="middle" x="261.1132" y="-126.0711" font-family="Helvetica,sans-Serif" font-size="10.00" fill="#000000">39</text>
</a>
</g>
</g>
<!-- dir_2171f7ec022c5423887b07c69b2f5b48&#45;&gt;dir_bcbb2cf9a3d3d83e5515c82071a07177 -->
<g id="edge23" class="edge">
<title>dir_2171f7ec022c5423887b07c69b2f5b48&#45;&gt;dir_bcbb2cf9a3d3d83e5515c82071a07177</title>
<path fill="none" stroke="#000000" d="M282.0742,-36.4133C274.4781,-45.0787 264.4644,-55.5464 254.847,-64.9223"/>
<polygon fill="#000000" stroke="#000000" points="252.4284,-62.3924 247.6163,-71.8314 257.2644,-67.4534 252.4284,-62.3924"/>
<g id="a_edge23&#45;headlabel"><a xlink:href="dir_000089_000062.html" target="_top" xlink:title="22">
<text text-anchor="middle" x="253.0659" y="-55.3563" font-family="Helvetica,sans-Serif" font-size="10.00" fill="#000000">22</text>
</a>
</g>
</g>
</g>
</svg>
