<?xml version="1.0" encoding="UTF-8" standalone="no"?>
<!DOCTYPE svg PUBLIC "-//W3C//DTD SVG 1.1//EN"
 "http://www.w3.org/Graphics/SVG/1.1/DTD/svg11.dtd">
<!-- Generated by graphviz version 2.40.1 (20161225.0304)
 -->
<!-- Title: /home/runner/work/AliceO2/AliceO2/DataFormats/Detectors/PHOS/include Pages: 1 -->
<svg width="230pt" height="303pt"
 viewBox="0.00 0.00 230.00 303.00" xmlns="http://www.w3.org/2000/svg" xmlns:xlink="http://www.w3.org/1999/xlink">
<g id="graph0" class="graph" transform="scale(1 1) rotate(0) translate(4 299)">
<title>/home/runner/work/AliceO2/AliceO2/DataFormats/Detectors/PHOS/include</title>
<g id="clust1" class="cluster">
<title>clusterdir_e5e5ca9c830b257d79f36e1c8dc05235</title>
<g id="a_clust1"><a xlink:href="dir_e5e5ca9c830b257d79f36e1c8dc05235.html" target="_top" xlink:title="PHOS">
<polygon fill="#ddddee" stroke="#000000" points="8,-200 8,-287 214,-287 214,-200 8,-200"/>
<text text-anchor="middle" x="111" y="-275" font-family="Helvetica,sans-Serif" font-size="10.00" fill="#000000">PHOS</text>
</a>
</g>
</g>
<g id="clust2" class="cluster">
<title>clusterdir_427c2eff105bc1376ef7a4852ee5377f</title>
<g id="a_clust2"><a xlink:href="dir_427c2eff105bc1376ef7a4852ee5377f.html" target="_top">
<polygon fill="#eeeeff" stroke="#000000" points="16,-208 16,-260 206,-260 206,-208 16,-208"/>
</a>
</g>
</g>
<!-- dir_427c2eff105bc1376ef7a4852ee5377f -->
<g id="node1" class="node">
<title>dir_427c2eff105bc1376ef7a4852ee5377f</title>
<text text-anchor="middle" x="171" y="-231.5" font-family="Helvetica,sans-Serif" font-size="10.00" fill="#000000">include</text>
</g>
<!-- dir_4cee20cdb1a883f5fd442e94309f5641 -->
<g id="node2" class="node">
<title>dir_4cee20cdb1a883f5fd442e94309f5641</title>
<g id="a_node2"><a xlink:href="dir_4cee20cdb1a883f5fd442e94309f5641.html" target="_top" xlink:title="DataFormatsPHOS">
<polygon fill="#ffffff" stroke="#000000" points="126,-252 24,-252 24,-216 126,-216 126,-252"/>
<text text-anchor="middle" x="75" y="-231.5" font-family="Helvetica,sans-Serif" font-size="10.00" fill="#000000">DataFormatsPHOS</text>
</a>
</g>
</g>
<!-- dir_183e7c4434404fe9096e1bd8673e1fcf -->
<g id="node3" class="node">
<title>dir_183e7c4434404fe9096e1bd8673e1fcf</title>
<g id="a_node3"><a xlink:href="dir_183e7c4434404fe9096e1bd8673e1fcf.html" target="_top" xlink:title="Headers">
<polygon fill="none" stroke="#ff0000" points="63,-36 9,-36 9,0 63,0 63,-36"/>
<text text-anchor="middle" x="36" y="-15.5" font-family="Helvetica,sans-Serif" font-size="10.00" fill="#000000">Headers</text>
</a>
</g>
</g>
<!-- dir_4cee20cdb1a883f5fd442e94309f5641&#45;&gt;dir_183e7c4434404fe9096e1bd8673e1fcf -->
<g id="edge1" class="edge">
<title>dir_4cee20cdb1a883f5fd442e94309f5641&#45;&gt;dir_183e7c4434404fe9096e1bd8673e1fcf</title>
<path fill="none" stroke="#000000" d="M65.6496,-215.8288C53.8973,-191.8712 34.3717,-148.0582 27,-108 24.1042,-92.2642 25.6803,-87.9455 27,-72 27.6945,-63.6085 28.9862,-54.5578 30.3786,-46.3092"/>
<polygon fill="#000000" stroke="#000000" points="33.8353,-46.8612 32.1587,-36.3999 26.9456,-45.6235 33.8353,-46.8612"/>
<g id="a_edge1&#45;headlabel"><a xlink:href="dir_000121_000097.html" target="_top" xlink:title="1">
<text text-anchor="middle" x="35.9944" y="-48.4012" font-family="Helvetica,sans-Serif" font-size="10.00" fill="#000000">1</text>
</a>
</g>
</g>
<!-- dir_047746f9f311f49446db9474b7431d0d -->
<g id="node4" class="node">
<title>dir_047746f9f311f49446db9474b7431d0d</title>
<g id="a_node4"><a xlink:href="dir_047746f9f311f49446db9474b7431d0d.html" target="_top" xlink:title="simulation">
<polygon fill="none" stroke="#ff0000" points="135.5,-180 74.5,-180 74.5,-144 135.5,-144 135.5,-180"/>
<text text-anchor="middle" x="105" y="-159.5" font-family="Helvetica,sans-Serif" font-size="10.00" fill="#000000">simulation</text>
</a>
</g>
</g>
<!-- dir_4cee20cdb1a883f5fd442e94309f5641&#45;&gt;dir_047746f9f311f49446db9474b7431d0d -->
<g id="edge2" class="edge">
<title>dir_4cee20cdb1a883f5fd442e94309f5641&#45;&gt;dir_047746f9f311f49446db9474b7431d0d</title>
<path fill="none" stroke="#000000" d="M82.5703,-215.8314C85.8493,-207.9617 89.762,-198.5712 93.3945,-189.8533"/>
<polygon fill="#000000" stroke="#000000" points="96.7124,-190.9902 97.3278,-180.4133 90.2508,-188.2979 96.7124,-190.9902"/>
<g id="a_edge2&#45;headlabel"><a xlink:href="dir_000121_000266.html" target="_top" xlink:title="1">
<text text-anchor="middle" x="97.9507" y="-192.9003" font-family="Helvetica,sans-Serif" font-size="10.00" fill="#000000">1</text>
</a>
</g>
</g>
<!-- dir_74593c7a91e03746ae2a516888bf9494 -->
<g id="node5" class="node">
<title>dir_74593c7a91e03746ae2a516888bf9494</title>
<g id="a_node5"><a xlink:href="dir_74593c7a91e03746ae2a516888bf9494.html" target="_top" xlink:title="Common">
<polygon fill="none" stroke="#ff0000" points="92,-108 36,-108 36,-72 92,-72 92,-108"/>
<text text-anchor="middle" x="64" y="-87.5" font-family="Helvetica,sans-Serif" font-size="10.00" fill="#000000">Common</text>
</a>
</g>
</g>
<!-- dir_4cee20cdb1a883f5fd442e94309f5641&#45;&gt;dir_74593c7a91e03746ae2a516888bf9494 -->
<g id="edge3" class="edge">
<title>dir_4cee20cdb1a883f5fd442e94309f5641&#45;&gt;dir_74593c7a91e03746ae2a516888bf9494</title>
<path fill="none" stroke="#000000" d="M70.7839,-215.6172C68.6055,-205.225 66.1648,-191.9567 65,-180 62.9957,-159.4253 62.7958,-136.0808 63.0708,-118.3237"/>
<polygon fill="#000000" stroke="#000000" points="66.57,-118.3938 63.2844,-108.3213 59.5716,-118.2442 66.57,-118.3938"/>
<g id="a_edge3&#45;headlabel"><a xlink:href="dir_000121_000104.html" target="_top" xlink:title="1">
<text text-anchor="middle" x="69.3319" y="-119.5481" font-family="Helvetica,sans-Serif" font-size="10.00" fill="#000000">1</text>
</a>
</g>
</g>
<!-- dir_7924ba4398ae4560cd37376e44666c6d -->
<g id="node6" class="node">
<title>dir_7924ba4398ae4560cd37376e44666c6d</title>
<g id="a_node6"><a xlink:href="dir_7924ba4398ae4560cd37376e44666c6d.html" target="_top" xlink:title="common">
<polygon fill="none" stroke="#ff0000" points="177,-108 123,-108 123,-72 177,-72 177,-108"/>
<text text-anchor="middle" x="150" y="-87.5" font-family="Helvetica,sans-Serif" font-size="10.00" fill="#000000">common</text>
</a>
</g>
</g>
<!-- dir_4cee20cdb1a883f5fd442e94309f5641&#45;&gt;dir_7924ba4398ae4560cd37376e44666c6d -->
<g id="edge4" class="edge">
<title>dir_4cee20cdb1a883f5fd442e94309f5641&#45;&gt;dir_7924ba4398ae4560cd37376e44666c6d</title>
<path fill="none" stroke="#000000" d="M109.0935,-215.7739C122.3345,-206.84 136.1745,-194.79 144,-180 153.979,-161.1397 155.035,-136.8597 153.8397,-118.2724"/>
<polygon fill="#000000" stroke="#000000" points="157.3041,-117.7183 152.9261,-108.0703 150.332,-118.3426 157.3041,-117.7183"/>
<g id="a_edge4&#45;headlabel"><a xlink:href="dir_000121_000094.html" target="_top" xlink:title="3">
<text text-anchor="middle" x="160.4526" y="-118.5454" font-family="Helvetica,sans-Serif" font-size="10.00" fill="#000000">3</text>
</a>
</g>
</g>
<!-- dir_047746f9f311f49446db9474b7431d0d&#45;&gt;dir_74593c7a91e03746ae2a516888bf9494 -->
<g id="edge5" class="edge">
<title>dir_047746f9f311f49446db9474b7431d0d&#45;&gt;dir_74593c7a91e03746ae2a516888bf9494</title>
<path fill="none" stroke="#000000" d="M94.654,-143.8314C90.0763,-135.7925 84.5948,-126.1666 79.5412,-117.2918"/>
<polygon fill="#000000" stroke="#000000" points="82.4752,-115.3712 74.4853,-108.4133 76.3923,-118.8351 82.4752,-115.3712"/>
<g id="a_edge5&#45;headlabel"><a xlink:href="dir_000266_000104.html" target="_top" xlink:title="6">
<text text-anchor="middle" x="86.7212" y="-114.5899" font-family="Helvetica,sans-Serif" font-size="10.00" fill="#000000">6</text>
</a>
</g>
</g>
<!-- dir_047746f9f311f49446db9474b7431d0d&#45;&gt;dir_7924ba4398ae4560cd37376e44666c6d -->
<g id="edge6" class="edge">
<title>dir_047746f9f311f49446db9474b7431d0d&#45;&gt;dir_7924ba4398ae4560cd37376e44666c6d</title>
<path fill="none" stroke="#000000" d="M116.3554,-143.8314C121.4326,-135.7079 127.5227,-125.9637 133.1176,-117.0118"/>
<polygon fill="#000000" stroke="#000000" points="136.1597,-118.7483 138.4917,-108.4133 130.2237,-115.0383 136.1597,-118.7483"/>
<g id="a_edge6&#45;headlabel"><a xlink:href="dir_000266_000094.html" target="_top" xlink:title="2">
<text text-anchor="middle" x="136.6623" y="-120.8013" font-family="Helvetica,sans-Serif" font-size="10.00" fill="#000000">2</text>
</a>
</g>
</g>
<!-- dir_74593c7a91e03746ae2a516888bf9494&#45;&gt;dir_183e7c4434404fe9096e1bd8673e1fcf -->
<g id="edge7" class="edge">
<title>dir_74593c7a91e03746ae2a516888bf9494&#45;&gt;dir_183e7c4434404fe9096e1bd8673e1fcf</title>
<path fill="none" stroke="#000000" d="M56.9344,-71.8314C53.874,-63.9617 50.2221,-54.5712 46.8318,-45.8533"/>
<polygon fill="#000000" stroke="#000000" points="50.0473,-44.4647 43.1607,-36.4133 43.5232,-47.0019 50.0473,-44.4647"/>
<g id="a_edge7&#45;headlabel"><a xlink:href="dir_000104_000097.html" target="_top" xlink:title="1">
<text text-anchor="middle" x="53.9963" y="-44.2859" font-family="Helvetica,sans-Serif" font-size="10.00" fill="#000000">1</text>
</a>
</g>
</g>
</g>
</svg>
