<?xml version="1.0" encoding="UTF-8" standalone="no"?>
<!DOCTYPE svg PUBLIC "-//W3C//DTD SVG 1.1//EN"
 "http://www.w3.org/Graphics/SVG/1.1/DTD/svg11.dtd">
<!-- Generated by graphviz version 2.40.1 (20161225.0304)
 -->
<!-- Title: /home/runner/work/AliceO2/AliceO2/Detectors/TPC/calibration/run Pages: 1 -->
<!--zoomable 511 -->
<svg id="main" version="1.1" xmlns="http://www.w3.org/2000/svg" xmlns:xlink="http://www.w3.org/1999/xlink" xml:space="preserve" onload="init(evt)">
<style type="text/css"><![CDATA[
.edge:hover path { stroke: red; }
.edge:hover polygon { stroke: red; fill: red; }
]]></style>
<script type="text/javascript"><![CDATA[
var edges = document.getElementsByTagName('g');
if (edges && edges.length) {
  for (var i=0;i<edges.length;i++) {
    if (edges[i].id.substr(0,4)=='edge') {
      edges[i].setAttribute('class','edge');
    }
  }
}
]]></script>
        <defs>
                <circle id="rim" cx="0" cy="0" r="7"/>
                <circle id="rim2" cx="0" cy="0" r="3.5"/>
                <g id="zoomPlus">
                        <use xlink:href="#rim" fill="#404040">
                                <set attributeName="fill" to="#808080" begin="zoomplus.mouseover" end="zoomplus.mouseout"/>
                        </use>
                        <path d="M-4,0h8M0,-4v8" fill="none" stroke="white" stroke-width="1.5" pointer-events="none"/>
                </g>
                <g id="zoomMin">
                        <use xlink:href="#rim" fill="#404040">
                                <set attributeName="fill" to="#808080" begin="zoomminus.mouseover" end="zoomminus.mouseout"/>
                        </use>
                        <path d="M-4,0h8" fill="none" stroke="white" stroke-width="1.5" pointer-events="none"/>
                </g>
                <g id="dirArrow">
                        <path fill="none" stroke="white" stroke-width="1.5" d="M0,-3.0v7 M-2.5,-0.5L0,-3.0L2.5,-0.5"/>
                </g>
               <g id="resetDef">
                       <use xlink:href="#rim2" fill="#404040">
                               <set attributeName="fill" to="#808080" begin="reset.mouseover" end="reset.mouseout"/>
                       </use>
               </g>
        </defs>

<script type="text/javascript">
var viewWidth = 370;
var viewHeight = 511;
var sectionId = 'dynsection-0';
</script>
<script xlink:href="svgpan.js"/>
<svg id="graph" class="graph">
<g id="viewport">
<title>/home/runner/work/AliceO2/AliceO2/Detectors/TPC/calibration/run</title>
<g id="clust1" class="cluster">
<title>clusterdir_4995562033b321477cfe3c34a14a5189</title>
<g id="a_clust1"><a xlink:href="dir_4995562033b321477cfe3c34a14a5189.html" target="_top" xlink:title="calibration">
<polygon fill="#ddddee" stroke="#000000" points="127,-424 127,-495 197,-495 197,-424 127,-424"/>
<text text-anchor="middle" x="162" y="-483" font-family="Helvetica,sans-Serif" font-size="10.00" fill="#000000">calibration</text>
</a>
</g>
</g>
<!-- dir_f282d1da34b97e1c0e067a2536157d8a -->
<g id="node1" class="node">
<title>dir_f282d1da34b97e1c0e067a2536157d8a</title>
<g id="a_node1"><a xlink:href="dir_f282d1da34b97e1c0e067a2536157d8a.html" target="_top" xlink:title="run">
<polygon fill="#eeeeff" stroke="#000000" points="189,-468 135,-468 135,-432 189,-432 189,-468"/>
<text text-anchor="middle" x="162" y="-447.5" font-family="Helvetica,sans-Serif" font-size="10.00" fill="#000000">run</text>
</a>
</g>
</g>
<!-- dir_4ab6b4cc6a7edbff49100e9123df213f -->
<g id="node2" class="node">
<title>dir_4ab6b4cc6a7edbff49100e9123df213f</title>
<g id="a_node2"><a xlink:href="dir_4ab6b4cc6a7edbff49100e9123df213f.html" target="_top" xlink:title="Common">
<polygon fill="none" stroke="#ff0000" points="142,-180 86,-180 86,-144 142,-144 142,-180"/>
<text text-anchor="middle" x="114" y="-159.5" font-family="Helvetica,sans-Serif" font-size="10.00" fill="#000000">Common</text>
</a>
</g>
</g>
<!-- dir_f282d1da34b97e1c0e067a2536157d8a&#45;&gt;dir_4ab6b4cc6a7edbff49100e9123df213f -->
<g id="edge7" class="edge">
<title>dir_f282d1da34b97e1c0e067a2536157d8a&#45;&gt;dir_4ab6b4cc6a7edbff49100e9123df213f</title>
<path fill="none" stroke="#000000" d="M134.9774,-434.6789C121.4784,-425.4052 106.4641,-412.2286 99,-396 67.438,-327.3772 89.5076,-235.3031 104.0456,-189.8216"/>
<polygon fill="#000000" stroke="#000000" points="107.4523,-190.6679 107.2769,-180.0745 100.8079,-188.4651 107.4523,-190.6679"/>
<g id="a_edge7&#45;headlabel"><a xlink:href="dir_000696_000035.html" target="_top" xlink:title="1">
<text text-anchor="middle" x="109.0163" y="-192.4733" font-family="Helvetica,sans-Serif" font-size="10.00" fill="#000000">1</text>
</a>
</g>
</g>
<!-- dir_a5de047958dd458e809773c6ffaa8478 -->
<g id="node3" class="node">
<title>dir_a5de047958dd458e809773c6ffaa8478</title>
<g id="a_node3"><a xlink:href="dir_a5de047958dd458e809773c6ffaa8478.html" target="_top" xlink:title="reconstruction">
<polygon fill="none" stroke="#ff0000" points="296,-324 218,-324 218,-288 296,-288 296,-324"/>
<text text-anchor="middle" x="257" y="-303.5" font-family="Helvetica,sans-Serif" font-size="10.00" fill="#000000">reconstruction</text>
</a>
</g>
</g>
<!-- dir_f282d1da34b97e1c0e067a2536157d8a&#45;&gt;dir_a5de047958dd458e809773c6ffaa8478 -->
<g id="edge8" class="edge">
<title>dir_f282d1da34b97e1c0e067a2536157d8a&#45;&gt;dir_a5de047958dd458e809773c6ffaa8478</title>
<path fill="none" stroke="#000000" d="M176.9875,-431.9442C185.2861,-421.6543 195.592,-408.3794 204,-396 217.9681,-375.4344 232.1762,-351.0832 242.3609,-332.8997"/>
<polygon fill="#000000" stroke="#000000" points="245.5046,-334.4479 247.2975,-324.0059 239.3842,-331.0507 245.5046,-334.4479"/>
<g id="a_edge8&#45;headlabel"><a xlink:href="dir_000696_000412.html" target="_top" xlink:title="1">
<text text-anchor="middle" x="246.2426" y="-336.4688" font-family="Helvetica,sans-Serif" font-size="10.00" fill="#000000">1</text>
</a>
</g>
</g>
<!-- dir_2168d348e8784d0b706f7ff616321664 -->
<g id="node4" class="node">
<title>dir_2168d348e8784d0b706f7ff616321664</title>
<g id="a_node4"><a xlink:href="dir_2168d348e8784d0b706f7ff616321664.html" target="_top" xlink:title="include">
<polygon fill="none" stroke="#ff0000" points="162,-396 108,-396 108,-360 162,-360 162,-396"/>
<text text-anchor="middle" x="135" y="-375.5" font-family="Helvetica,sans-Serif" font-size="10.00" fill="#000000">include</text>
</a>
</g>
</g>
<!-- dir_f282d1da34b97e1c0e067a2536157d8a&#45;&gt;dir_2168d348e8784d0b706f7ff616321664 -->
<g id="edge9" class="edge">
<title>dir_f282d1da34b97e1c0e067a2536157d8a&#45;&gt;dir_2168d348e8784d0b706f7ff616321664</title>
<path fill="none" stroke="#000000" d="M155.1868,-431.8314C152.2356,-423.9617 148.7142,-414.5712 145.445,-405.8533"/>
<polygon fill="#000000" stroke="#000000" points="148.6934,-404.5476 141.905,-396.4133 142.1391,-407.0055 148.6934,-404.5476"/>
<g id="a_edge9&#45;headlabel"><a xlink:href="dir_000696_000694.html" target="_top" xlink:title="1">
<text text-anchor="middle" x="152.614" y="-404.4164" font-family="Helvetica,sans-Serif" font-size="10.00" fill="#000000">1</text>
</a>
</g>
</g>
<!-- dir_bcbb2cf9a3d3d83e5515c82071a07177 -->
<g id="node5" class="node">
<title>dir_bcbb2cf9a3d3d83e5515c82071a07177</title>
<g id="a_node5"><a xlink:href="dir_bcbb2cf9a3d3d83e5515c82071a07177.html" target="_top" xlink:title="Framework">
<polygon fill="none" stroke="#ff0000" points="216.5,-108 151.5,-108 151.5,-72 216.5,-72 216.5,-108"/>
<text text-anchor="middle" x="184" y="-87.5" font-family="Helvetica,sans-Serif" font-size="10.00" fill="#000000">Framework</text>
</a>
</g>
</g>
<!-- dir_f282d1da34b97e1c0e067a2536157d8a&#45;&gt;dir_bcbb2cf9a3d3d83e5515c82071a07177 -->
<g id="edge10" class="edge">
<title>dir_f282d1da34b97e1c0e067a2536157d8a&#45;&gt;dir_bcbb2cf9a3d3d83e5515c82071a07177</title>
<path fill="none" stroke="#000000" d="M165.5218,-431.5681C167.3971,-421.1605 169.5992,-407.8932 171,-396 182.2564,-300.4294 182.6647,-276.1734 186,-180 186.7133,-159.4336 186.1637,-136.2141 185.4617,-118.5116"/>
<polygon fill="#000000" stroke="#000000" points="188.9477,-118.1131 185.0148,-108.2753 181.9544,-118.4185 188.9477,-118.1131"/>
<g id="a_edge10&#45;headlabel"><a xlink:href="dir_000696_000062.html" target="_top" xlink:title="10">
<text text-anchor="middle" x="191.941" y="-119.0805" font-family="Helvetica,sans-Serif" font-size="10.00" fill="#000000">10</text>
</a>
</g>
</g>
<!-- dir_26637d1bd82229bc9ed97f7e706be743 -->
<g id="node6" class="node">
<title>dir_26637d1bd82229bc9ed97f7e706be743</title>
<g id="a_node6"><a xlink:href="dir_26637d1bd82229bc9ed97f7e706be743.html" target="_top" xlink:title="Raw">
<polygon fill="none" stroke="#ff0000" points="348,-252 294,-252 294,-216 348,-216 348,-252"/>
<text text-anchor="middle" x="321" y="-231.5" font-family="Helvetica,sans-Serif" font-size="10.00" fill="#000000">Raw</text>
</a>
</g>
</g>
<!-- dir_f282d1da34b97e1c0e067a2536157d8a&#45;&gt;dir_26637d1bd82229bc9ed97f7e706be743 -->
<g id="edge11" class="edge">
<title>dir_f282d1da34b97e1c0e067a2536157d8a&#45;&gt;dir_26637d1bd82229bc9ed97f7e706be743</title>
<path fill="none" stroke="#000000" d="M189.0754,-434.5676C222.411,-413.9893 277.9273,-374.2492 305,-324 315.1936,-305.0798 319.0798,-280.992 320.4793,-262.4983"/>
<polygon fill="#000000" stroke="#000000" points="323.9836,-262.5163 321.0448,-252.3372 316.9945,-262.1272 323.9836,-262.5163"/>
<g id="a_edge11&#45;headlabel"><a xlink:href="dir_000696_000665.html" target="_top" xlink:title="1">
<text text-anchor="middle" x="326.6189" y="-263.7631" font-family="Helvetica,sans-Serif" font-size="10.00" fill="#000000">1</text>
</a>
</g>
</g>
<!-- dir_2171f7ec022c5423887b07c69b2f5b48 -->
<g id="node7" class="node">
<title>dir_2171f7ec022c5423887b07c69b2f5b48</title>
<g id="a_node7"><a xlink:href="dir_2171f7ec022c5423887b07c69b2f5b48.html" target="_top" xlink:title="DataFormats">
<polygon fill="none" stroke="#ff0000" points="186,-36 112,-36 112,0 186,0 186,-36"/>
<text text-anchor="middle" x="149" y="-15.5" font-family="Helvetica,sans-Serif" font-size="10.00" fill="#000000">DataFormats</text>
</a>
</g>
</g>
<!-- dir_f282d1da34b97e1c0e067a2536157d8a&#45;&gt;dir_2171f7ec022c5423887b07c69b2f5b48 -->
<g id="edge12" class="edge">
<title>dir_f282d1da34b97e1c0e067a2536157d8a&#45;&gt;dir_2171f7ec022c5423887b07c69b2f5b48</title>
<path fill="none" stroke="#000000" d="M134.8848,-440.333C88.7674,-421.9515 0,-377.3088 0,-306 0,-306 0,-306 0,-162 0,-104.0651 58.9658,-62.0347 102.7088,-38.8256"/>
<polygon fill="#000000" stroke="#000000" points="104.4918,-41.8445 111.7854,-34.1598 101.2915,-35.6189 104.4918,-41.8445"/>
<g id="a_edge12&#45;headlabel"><a xlink:href="dir_000696_000089.html" target="_top" xlink:title="1">
<text text-anchor="middle" x="102.5929" y="-43.513" font-family="Helvetica,sans-Serif" font-size="10.00" fill="#000000">1</text>
</a>
</g>
</g>
<!-- dir_4ab6b4cc6a7edbff49100e9123df213f&#45;&gt;dir_bcbb2cf9a3d3d83e5515c82071a07177 -->
<g id="edge1" class="edge">
<title>dir_4ab6b4cc6a7edbff49100e9123df213f&#45;&gt;dir_bcbb2cf9a3d3d83e5515c82071a07177</title>
<path fill="none" stroke="#000000" d="M125.7116,-143.8314C133.32,-135.1337 143.4101,-124.5783 153.1029,-115.1265"/>
<polygon fill="#000000" stroke="#000000" points="155.5783,-117.6021 160.3899,-108.1628 150.7421,-112.5414 155.5783,-117.6021"/>
<g id="a_edge1&#45;headlabel"><a xlink:href="dir_000035_000062.html" target="_top" xlink:title="2">
<text text-anchor="middle" x="154.9412" y="-119.6382" font-family="Helvetica,sans-Serif" font-size="10.00" fill="#000000">2</text>
</a>
</g>
</g>
<!-- dir_4ab6b4cc6a7edbff49100e9123df213f&#45;&gt;dir_2171f7ec022c5423887b07c69b2f5b48 -->
<g id="edge2" class="edge">
<title>dir_4ab6b4cc6a7edbff49100e9123df213f&#45;&gt;dir_2171f7ec022c5423887b07c69b2f5b48</title>
<path fill="none" stroke="#000000" d="M113.7596,-143.7623C117.285,-119.0928 127.7698,-74.8598 136.7289,-45.9731"/>
<polygon fill="#000000" stroke="#000000" points="140.1789,-46.6819 139.9449,-36.0896 133.5224,-44.5159 140.1789,-46.6819"/>
<g id="a_edge2&#45;headlabel"><a xlink:href="dir_000035_000089.html" target="_top" xlink:title="2">
<text text-anchor="middle" x="141.7666" y="-48.4786" font-family="Helvetica,sans-Serif" font-size="10.00" fill="#000000">2</text>
</a>
</g>
</g>
<!-- dir_a5de047958dd458e809773c6ffaa8478&#45;&gt;dir_4ab6b4cc6a7edbff49100e9123df213f -->
<g id="edge3" class="edge">
<title>dir_a5de047958dd458e809773c6ffaa8478&#45;&gt;dir_4ab6b4cc6a7edbff49100e9123df213f</title>
<path fill="none" stroke="#000000" d="M238.889,-287.7623C213.6387,-262.3354 167.7494,-216.1253 139.1808,-187.3569"/>
<polygon fill="#000000" stroke="#000000" points="141.4939,-184.7191 131.964,-180.0896 136.5269,-189.6516 141.4939,-184.7191"/>
<g id="a_edge3&#45;headlabel"><a xlink:href="dir_000412_000035.html" target="_top" xlink:title="2">
<text text-anchor="middle" x="146.0414" y="-182.769" font-family="Helvetica,sans-Serif" font-size="10.00" fill="#000000">2</text>
</a>
</g>
</g>
<!-- dir_a5de047958dd458e809773c6ffaa8478&#45;&gt;dir_bcbb2cf9a3d3d83e5515c82071a07177 -->
<g id="edge4" class="edge">
<title>dir_a5de047958dd458e809773c6ffaa8478&#45;&gt;dir_bcbb2cf9a3d3d83e5515c82071a07177</title>
<path fill="none" stroke="#000000" d="M255.4493,-287.7785C252.3169,-257.0075 243.5957,-193.2833 222,-144 217.834,-134.4928 211.8611,-124.9554 205.8807,-116.5986"/>
<polygon fill="#000000" stroke="#000000" points="208.515,-114.2772 199.7212,-108.368 202.9106,-118.4713 208.515,-114.2772"/>
<g id="a_edge4&#45;headlabel"><a xlink:href="dir_000412_000062.html" target="_top" xlink:title="2">
<text text-anchor="middle" x="212.942" y="-112.9539" font-family="Helvetica,sans-Serif" font-size="10.00" fill="#000000">2</text>
</a>
</g>
</g>
<!-- dir_a5de047958dd458e809773c6ffaa8478&#45;&gt;dir_26637d1bd82229bc9ed97f7e706be743 -->
<g id="edge5" class="edge">
<title>dir_a5de047958dd458e809773c6ffaa8478&#45;&gt;dir_26637d1bd82229bc9ed97f7e706be743</title>
<path fill="none" stroke="#000000" d="M273.1499,-287.8314C280.6717,-279.3694 289.7565,-269.1489 297.9804,-259.8971"/>
<polygon fill="#000000" stroke="#000000" points="300.6049,-262.2127 304.6327,-252.4133 295.373,-257.5621 300.6049,-262.2127"/>
<g id="a_edge5&#45;headlabel"><a xlink:href="dir_000412_000665.html" target="_top" xlink:title="3">
<text text-anchor="middle" x="300.3389" y="-264.2856" font-family="Helvetica,sans-Serif" font-size="10.00" fill="#000000">3</text>
</a>
</g>
</g>
<!-- dir_a5de047958dd458e809773c6ffaa8478&#45;&gt;dir_2171f7ec022c5423887b07c69b2f5b48 -->
<g id="edge6" class="edge">
<title>dir_a5de047958dd458e809773c6ffaa8478&#45;&gt;dir_2171f7ec022c5423887b07c69b2f5b48</title>
<path fill="none" stroke="#000000" d="M296.0253,-295.7344C318.0812,-287.714 343.8097,-274.1134 357,-252 365.1964,-238.2589 360.5009,-231.6123 357,-216 340.6892,-143.2615 328.9168,-118.9316 271,-72 248.9356,-54.1206 220.0218,-40.9809 195.8806,-32.142"/>
<polygon fill="#000000" stroke="#000000" points="196.7992,-28.7548 186.2044,-28.7324 194.4728,-35.357 196.7992,-28.7548"/>
<g id="a_edge6&#45;headlabel"><a xlink:href="dir_000412_000089.html" target="_top" xlink:title="48">
<text text-anchor="middle" x="201.1331" y="-24.7715" font-family="Helvetica,sans-Serif" font-size="10.00" fill="#000000">48</text>
</a>
</g>
</g>
<!-- dir_2168d348e8784d0b706f7ff616321664&#45;&gt;dir_4ab6b4cc6a7edbff49100e9123df213f -->
<g id="edge13" class="edge">
<title>dir_2168d348e8784d0b706f7ff616321664&#45;&gt;dir_4ab6b4cc6a7edbff49100e9123df213f</title>
<path fill="none" stroke="#000000" d="M133.2457,-359.9555C129.5861,-322.3144 121.1154,-235.1867 116.7343,-190.1246"/>
<polygon fill="#000000" stroke="#000000" points="120.2154,-189.7594 115.7641,-180.1451 113.2483,-190.4369 120.2154,-189.7594"/>
<g id="a_edge13&#45;headlabel"><a xlink:href="dir_000694_000035.html" target="_top" xlink:title="7">
<text text-anchor="middle" x="123.3891" y="-190.5625" font-family="Helvetica,sans-Serif" font-size="10.00" fill="#000000">7</text>
</a>
</g>
</g>
<!-- dir_2168d348e8784d0b706f7ff616321664&#45;&gt;dir_a5de047958dd458e809773c6ffaa8478 -->
<g id="edge14" class="edge">
<title>dir_2168d348e8784d0b706f7ff616321664&#45;&gt;dir_a5de047958dd458e809773c6ffaa8478</title>
<path fill="none" stroke="#000000" d="M162.0758,-362.0209C178.3643,-352.408 199.3846,-340.0025 217.5027,-329.3099"/>
<polygon fill="#000000" stroke="#000000" points="219.2973,-332.3149 226.1305,-324.2181 215.7395,-326.2864 219.2973,-332.3149"/>
<g id="a_edge14&#45;headlabel"><a xlink:href="dir_000694_000412.html" target="_top" xlink:title="4">
<text text-anchor="middle" x="217.6447" y="-334.087" font-family="Helvetica,sans-Serif" font-size="10.00" fill="#000000">4</text>
</a>
</g>
</g>
<!-- dir_2168d348e8784d0b706f7ff616321664&#45;&gt;dir_bcbb2cf9a3d3d83e5515c82071a07177 -->
<g id="edge15" class="edge">
<title>dir_2168d348e8784d0b706f7ff616321664&#45;&gt;dir_bcbb2cf9a3d3d83e5515c82071a07177</title>
<path fill="none" stroke="#000000" d="M138.0652,-359.9843C146.3493,-311.2939 169.2326,-176.7961 179.2264,-118.0573"/>
<polygon fill="#000000" stroke="#000000" points="182.709,-118.4543 180.936,-108.0089 175.8082,-117.2801 182.709,-118.4543"/>
<g id="a_edge15&#45;headlabel"><a xlink:href="dir_000694_000062.html" target="_top" xlink:title="1">
<text text-anchor="middle" x="184.9053" y="-119.9742" font-family="Helvetica,sans-Serif" font-size="10.00" fill="#000000">1</text>
</a>
</g>
</g>
<!-- dir_2168d348e8784d0b706f7ff616321664&#45;&gt;dir_2171f7ec022c5423887b07c69b2f5b48 -->
<g id="edge16" class="edge">
<title>dir_2168d348e8784d0b706f7ff616321664&#45;&gt;dir_2171f7ec022c5423887b07c69b2f5b48</title>
<path fill="none" stroke="#000000" d="M124.142,-359.7426C102.0577,-320.2733 55.7295,-224.0953 77,-144 86.9061,-106.698 110.7378,-68.9215 128.2821,-44.5951"/>
<polygon fill="#000000" stroke="#000000" points="131.3054,-46.3925 134.4239,-36.267 125.6717,-42.2377 131.3054,-46.3925"/>
<g id="a_edge16&#45;headlabel"><a xlink:href="dir_000694_000089.html" target="_top" xlink:title="8">
<text text-anchor="middle" x="131.457" y="-48.4707" font-family="Helvetica,sans-Serif" font-size="10.00" fill="#000000">8</text>
</a>
</g>
</g>
<!-- dir_bcbb2cf9a3d3d83e5515c82071a07177&#45;&gt;dir_4ab6b4cc6a7edbff49100e9123df213f -->
<g id="edge17" class="edge">
<title>dir_bcbb2cf9a3d3d83e5515c82071a07177&#45;&gt;dir_4ab6b4cc6a7edbff49100e9123df213f</title>
<path fill="none" stroke="#000000" d="M172.0742,-108.4133C164.4781,-117.0787 154.4644,-127.5464 144.847,-136.9223"/>
<polygon fill="#000000" stroke="#000000" points="142.4284,-134.3924 137.6163,-143.8314 147.2644,-139.4534 142.4284,-134.3924"/>
<g id="a_edge17&#45;headlabel"><a xlink:href="dir_000062_000035.html" target="_top" xlink:title="8">
<text text-anchor="middle" x="143.0659" y="-127.3563" font-family="Helvetica,sans-Serif" font-size="10.00" fill="#000000">8</text>
</a>
</g>
</g>
<!-- dir_bcbb2cf9a3d3d83e5515c82071a07177&#45;&gt;dir_2171f7ec022c5423887b07c69b2f5b48 -->
<g id="edge18" class="edge">
<title>dir_bcbb2cf9a3d3d83e5515c82071a07177&#45;&gt;dir_2171f7ec022c5423887b07c69b2f5b48</title>
<path fill="none" stroke="#000000" d="M169.2156,-71.8314C164.6232,-63.9617 159.8445,-54.5712 155.9458,-45.8533"/>
<polygon fill="#000000" stroke="#000000" points="159.0785,-44.2738 151.9749,-36.4133 152.6262,-46.9881 159.0785,-44.2738"/>
<g id="a_edge18&#45;headlabel"><a xlink:href="dir_000062_000089.html" target="_top" xlink:title="73">
<text text-anchor="middle" x="163.0894" y="-43.9864" font-family="Helvetica,sans-Serif" font-size="10.00" fill="#000000">73</text>
</a>
</g>
</g>
<!-- dir_26637d1bd82229bc9ed97f7e706be743&#45;&gt;dir_4ab6b4cc6a7edbff49100e9123df213f -->
<g id="edge19" class="edge">
<title>dir_26637d1bd82229bc9ed97f7e706be743&#45;&gt;dir_4ab6b4cc6a7edbff49100e9123df213f</title>
<path fill="none" stroke="#000000" d="M293.9384,-224.5873C257.5925,-211.9452 192.8322,-189.4199 151.7196,-175.1199"/>
<polygon fill="#000000" stroke="#000000" points="152.6564,-171.7401 142.0616,-171.7606 150.3567,-178.3516 152.6564,-171.7401"/>
<g id="a_edge19&#45;headlabel"><a xlink:href="dir_000665_000035.html" target="_top" xlink:title="10">
<text text-anchor="middle" x="156.9843" y="-167.7392" font-family="Helvetica,sans-Serif" font-size="10.00" fill="#000000">10</text>
</a>
</g>
</g>
<!-- dir_26637d1bd82229bc9ed97f7e706be743&#45;&gt;dir_bcbb2cf9a3d3d83e5515c82071a07177 -->
<g id="edge20" class="edge">
<title>dir_26637d1bd82229bc9ed97f7e706be743&#45;&gt;dir_bcbb2cf9a3d3d83e5515c82071a07177</title>
<path fill="none" stroke="#000000" d="M315.4468,-215.9494C308.6898,-196.3562 295.6864,-165.0543 276,-144 262.0189,-129.0474 242.9603,-116.9401 225.815,-108.0086"/>
<polygon fill="#000000" stroke="#000000" points="227.0417,-104.7092 216.5312,-103.3755 223.916,-110.9726 227.0417,-104.7092"/>
<g id="a_edge20&#45;headlabel"><a xlink:href="dir_000665_000062.html" target="_top" xlink:title="25">
<text text-anchor="middle" x="231.5259" y="-101.2738" font-family="Helvetica,sans-Serif" font-size="10.00" fill="#000000">25</text>
</a>
</g>
</g>
<!-- dir_26637d1bd82229bc9ed97f7e706be743&#45;&gt;dir_2171f7ec022c5423887b07c69b2f5b48 -->
<g id="edge21" class="edge">
<title>dir_26637d1bd82229bc9ed97f7e706be743&#45;&gt;dir_2171f7ec022c5423887b07c69b2f5b48</title>
<path fill="none" stroke="#000000" d="M320.3619,-215.9737C318.9932,-196.9603 314.7867,-166.673 302,-144 276.4442,-98.6852 227.7103,-62.9478 192.0885,-41.2803"/>
<polygon fill="#000000" stroke="#000000" points="193.7211,-38.1791 183.3368,-36.0775 190.144,-44.1961 193.7211,-38.1791"/>
<g id="a_edge21&#45;headlabel"><a xlink:href="dir_000665_000089.html" target="_top" xlink:title="15">
<text text-anchor="middle" x="198.2618" y="-35.0753" font-family="Helvetica,sans-Serif" font-size="10.00" fill="#000000">15</text>
</a>
</g>
</g>
<!-- dir_2171f7ec022c5423887b07c69b2f5b48&#45;&gt;dir_4ab6b4cc6a7edbff49100e9123df213f -->
<g id="edge22" class="edge">
<title>dir_2171f7ec022c5423887b07c69b2f5b48&#45;&gt;dir_4ab6b4cc6a7edbff49100e9123df213f</title>
<path fill="none" stroke="#000000" d="M149.2615,-36.0896C145.7487,-60.7884 135.1981,-105.2933 126.2071,-134.2331"/>
<polygon fill="#000000" stroke="#000000" points="122.8724,-133.17 123.1059,-143.7623 129.5288,-135.3363 122.8724,-133.17"/>
<g id="a_edge22&#45;headlabel"><a xlink:href="dir_000089_000035.html" target="_top" xlink:title="39">
<text text-anchor="middle" x="121.2848" y="-126.3733" font-family="Helvetica,sans-Serif" font-size="10.00" fill="#000000">39</text>
</a>
</g>
</g>
<!-- dir_2171f7ec022c5423887b07c69b2f5b48&#45;&gt;dir_bcbb2cf9a3d3d83e5515c82071a07177 -->
<g id="edge23" class="edge">
<title>dir_2171f7ec022c5423887b07c69b2f5b48&#45;&gt;dir_bcbb2cf9a3d3d83e5515c82071a07177</title>
<path fill="none" stroke="#000000" d="M163.9269,-36.4133C168.5231,-44.3141 173.2945,-53.7132 177.1748,-62.417"/>
<polygon fill="#000000" stroke="#000000" points="174.0271,-63.9614 181.1204,-71.8314 180.4831,-61.2557 174.0271,-63.9614"/>
<g id="a_edge23&#45;headlabel"><a xlink:href="dir_000089_000062.html" target="_top" xlink:title="22">
<text text-anchor="middle" x="170.0192" y="-59.2436" font-family="Helvetica,sans-Serif" font-size="10.00" fill="#000000">22</text>
</a>
</g>
</g>
</g>
</svg>
        <g id="navigator" transform="translate(0 0)" fill="#404254">
                <rect fill="#f2f5e9" fill-opacity="0.5" stroke="#606060" stroke-width=".5" x="0" y="0" width="60" height="60"/>
                <use id="zoomplus" xlink:href="#zoomPlus" x="17" y="9" onmousedown="handleZoom(evt,'in')"/>
                <use id="zoomminus" xlink:href="#zoomMin" x="42" y="9" onmousedown="handleZoom(evt,'out')"/>
                <use id="reset" xlink:href="#resetDef" x="30" y="36" onmousedown="handleReset()"/>
                <g id="arrowUp" xlink:href="#dirArrow" transform="translate(30 24)" onmousedown="handlePan(0,-1)">
                  <use xlink:href="#rim" fill="#404040">
                        <set attributeName="fill" to="#808080" begin="arrowUp.mouseover" end="arrowUp.mouseout"/>
                  </use>
                  <path fill="none" stroke="white" stroke-width="1.5" d="M0,-3.0v7 M-2.5,-0.5L0,-3.0L2.5,-0.5"/>
                </g>
                <g id="arrowRight" xlink:href="#dirArrow" transform="rotate(90) translate(36 -43)" onmousedown="handlePan(1,0)">
                  <use xlink:href="#rim" fill="#404040">
                        <set attributeName="fill" to="#808080" begin="arrowRight.mouseover" end="arrowRight.mouseout"/>
                  </use>
                  <path fill="none" stroke="white" stroke-width="1.5" d="M0,-3.0v7 M-2.5,-0.5L0,-3.0L2.5,-0.5"/>
                </g>
                <g id="arrowDown" xlink:href="#dirArrow" transform="rotate(180) translate(-30 -48)" onmousedown="handlePan(0,1)">
                  <use xlink:href="#rim" fill="#404040">
                        <set attributeName="fill" to="#808080" begin="arrowDown.mouseover" end="arrowDown.mouseout"/>
                  </use>
                  <path fill="none" stroke="white" stroke-width="1.5" d="M0,-3.0v7 M-2.5,-0.5L0,-3.0L2.5,-0.5"/>
                </g>
                <g id="arrowLeft" xlink:href="#dirArrow" transform="rotate(270) translate(-36 17)" onmousedown="handlePan(-1,0)">
                  <use xlink:href="#rim" fill="#404040">
                        <set attributeName="fill" to="#808080" begin="arrowLeft.mouseover" end="arrowLeft.mouseout"/>
                  </use>
                  <path fill="none" stroke="white" stroke-width="1.5" d="M0,-3.0v7 M-2.5,-0.5L0,-3.0L2.5,-0.5"/>
                </g>
        </g>
        <svg viewBox="0 0 15 15" width="100%" height="30px" preserveAspectRatio="xMaxYMin meet">
         <g id="arrow_out" transform="scale(0.3 0.3)">
          <a xlink:href="dir_f282d1da34b97e1c0e067a2536157d8a_dep_org.svg" target="_base">
           <rect id="button" ry="5" rx="5" y="6" x="6" height="38" width="38"
                fill="#f2f5e9" fill-opacity="0.5" stroke="#606060" stroke-width="1.0"/>
           <path id="arrow"
             d="M 11.500037,31.436501 C 11.940474,20.09759 22.043105,11.32322 32.158766,21.979434 L 37.068811,17.246167 C 37.068811,17.246167 37.088388,32 37.088388,32 L 22.160133,31.978069 C 22.160133,31.978069 26.997745,27.140456 26.997745,27.140456 C 18.528582,18.264221 13.291696,25.230495 11.500037,31.436501 z"
             style="fill:#404040;"/>
          </a>
         </g>
        </svg>
</svg>
