<?xml version="1.0" encoding="UTF-8" standalone="no"?>
<!DOCTYPE svg PUBLIC "-//W3C//DTD SVG 1.1//EN"
 "http://www.w3.org/Graphics/SVG/1.1/DTD/svg11.dtd">
<!-- Generated by graphviz version 2.40.1 (20161225.0304)
 -->
<!-- Title: /home/runner/work/AliceO2/AliceO2/Detectors/DCS/testWorkflow Pages: 1 -->
<svg width="195pt" height="295pt"
 viewBox="0.00 0.00 194.79 295.00" xmlns="http://www.w3.org/2000/svg" xmlns:xlink="http://www.w3.org/1999/xlink">
<g id="graph0" class="graph" transform="scale(1 1) rotate(0) translate(4 291)">
<title>/home/runner/work/AliceO2/AliceO2/Detectors/DCS/testWorkflow</title>
<g id="clust1" class="cluster">
<title>clusterdir_ca1300042d29623fa0e05e87bb12f4ef</title>
<g id="a_clust1"><a xlink:href="dir_ca1300042d29623fa0e05e87bb12f4ef.html" target="_top" xlink:title="DCS">
<polygon fill="#ddddee" stroke="#000000" points="73.5,-208 73.5,-279 163.5,-279 163.5,-208 73.5,-208"/>
<text text-anchor="middle" x="118.5" y="-267" font-family="Helvetica,sans-Serif" font-size="10.00" fill="#000000">DCS</text>
</a>
</g>
</g>
<!-- dir_d89695b0df86a35291164b965ae6703a -->
<g id="node1" class="node">
<title>dir_d89695b0df86a35291164b965ae6703a</title>
<g id="a_node1"><a xlink:href="dir_d89695b0df86a35291164b965ae6703a.html" target="_top" xlink:title="testWorkflow">
<polygon fill="#eeeeff" stroke="#000000" points="155.5,-252 81.5,-252 81.5,-216 155.5,-216 155.5,-252"/>
<text text-anchor="middle" x="118.5" y="-231.5" font-family="Helvetica,sans-Serif" font-size="10.00" fill="#000000">testWorkflow</text>
</a>
</g>
</g>
<!-- dir_2f1defcce8b8bdfe202c8bfd41228d47 -->
<g id="node2" class="node">
<title>dir_2f1defcce8b8bdfe202c8bfd41228d47</title>
<g id="a_node2"><a xlink:href="dir_2f1defcce8b8bdfe202c8bfd41228d47.html" target="_top" xlink:title="Calibration">
<polygon fill="none" stroke="#ff0000" points="63,-180 0,-180 0,-144 63,-144 63,-180"/>
<text text-anchor="middle" x="31.5" y="-159.5" font-family="Helvetica,sans-Serif" font-size="10.00" fill="#000000">Calibration</text>
</a>
</g>
</g>
<!-- dir_d89695b0df86a35291164b965ae6703a&#45;&gt;dir_2f1defcce8b8bdfe202c8bfd41228d47 -->
<g id="edge1" class="edge">
<title>dir_d89695b0df86a35291164b965ae6703a&#45;&gt;dir_2f1defcce8b8bdfe202c8bfd41228d47</title>
<path fill="none" stroke="#000000" d="M96.5462,-215.8314C85.8305,-206.9632 72.7811,-196.1637 61.191,-186.5718"/>
<polygon fill="#000000" stroke="#000000" points="63.3822,-183.8422 53.4467,-180.1628 58.9192,-189.2349 63.3822,-183.8422"/>
<g id="a_edge1&#45;headlabel"><a xlink:href="dir_000463_000049.html" target="_top" xlink:title="1">
<text text-anchor="middle" x="67.9617" y="-181.4466" font-family="Helvetica,sans-Serif" font-size="10.00" fill="#000000">1</text>
</a>
</g>
</g>
<!-- dir_6af676bf18881990e4083e191d0e63e0 -->
<g id="node3" class="node">
<title>dir_6af676bf18881990e4083e191d0e63e0</title>
<g id="a_node3"><a xlink:href="dir_6af676bf18881990e4083e191d0e63e0.html" target="_top" xlink:title="CCDB">
<polygon fill="none" stroke="#ff0000" points="118.5,-108 64.5,-108 64.5,-72 118.5,-72 118.5,-108"/>
<text text-anchor="middle" x="91.5" y="-87.5" font-family="Helvetica,sans-Serif" font-size="10.00" fill="#000000">CCDB</text>
</a>
</g>
</g>
<!-- dir_d89695b0df86a35291164b965ae6703a&#45;&gt;dir_6af676bf18881990e4083e191d0e63e0 -->
<g id="edge2" class="edge">
<title>dir_d89695b0df86a35291164b965ae6703a&#45;&gt;dir_6af676bf18881990e4083e191d0e63e0</title>
<path fill="none" stroke="#000000" d="M115.0804,-215.7623C110.4549,-191.0928 102.1612,-146.8598 96.745,-117.9731"/>
<polygon fill="#000000" stroke="#000000" points="100.1748,-117.2733 94.8918,-108.0896 93.2947,-118.5634 100.1748,-117.2733"/>
<g id="a_edge2&#45;headlabel"><a xlink:href="dir_000463_000028.html" target="_top" xlink:title="1">
<text text-anchor="middle" x="103.6278" y="-117.7831" font-family="Helvetica,sans-Serif" font-size="10.00" fill="#000000">1</text>
</a>
</g>
</g>
<!-- dir_c95f3e1f9928aa536053908b0b0602c6 -->
<g id="node4" class="node">
<title>dir_c95f3e1f9928aa536053908b0b0602c6</title>
<g id="a_node4"><a xlink:href="dir_c95f3e1f9928aa536053908b0b0602c6.html" target="_top" xlink:title="include">
<polygon fill="none" stroke="#ff0000" points="173.5,-180 119.5,-180 119.5,-144 173.5,-144 173.5,-180"/>
<text text-anchor="middle" x="146.5" y="-159.5" font-family="Helvetica,sans-Serif" font-size="10.00" fill="#000000">include</text>
</a>
</g>
</g>
<!-- dir_d89695b0df86a35291164b965ae6703a&#45;&gt;dir_c95f3e1f9928aa536053908b0b0602c6 -->
<g id="edge3" class="edge">
<title>dir_d89695b0df86a35291164b965ae6703a&#45;&gt;dir_c95f3e1f9928aa536053908b0b0602c6</title>
<path fill="none" stroke="#000000" d="M125.5656,-215.8314C128.626,-207.9617 132.2779,-198.5712 135.6682,-189.8533"/>
<polygon fill="#000000" stroke="#000000" points="138.9768,-191.0019 139.3393,-180.4133 132.4527,-188.4647 138.9768,-191.0019"/>
<g id="a_edge3&#45;headlabel"><a xlink:href="dir_000463_000085.html" target="_top" xlink:title="22">
<text text-anchor="middle" x="140.3202" y="-192.8812" font-family="Helvetica,sans-Serif" font-size="10.00" fill="#000000">22</text>
</a>
</g>
</g>
<!-- dir_bcbb2cf9a3d3d83e5515c82071a07177 -->
<g id="node5" class="node">
<title>dir_bcbb2cf9a3d3d83e5515c82071a07177</title>
<g id="a_node5"><a xlink:href="dir_bcbb2cf9a3d3d83e5515c82071a07177.html" target="_top" xlink:title="Framework">
<polygon fill="none" stroke="#ff0000" points="151,-36 86,-36 86,0 151,0 151,-36"/>
<text text-anchor="middle" x="118.5" y="-15.5" font-family="Helvetica,sans-Serif" font-size="10.00" fill="#000000">Framework</text>
</a>
</g>
</g>
<!-- dir_d89695b0df86a35291164b965ae6703a&#45;&gt;dir_bcbb2cf9a3d3d83e5515c82071a07177 -->
<g id="edge4" class="edge">
<title>dir_d89695b0df86a35291164b965ae6703a&#45;&gt;dir_bcbb2cf9a3d3d83e5515c82071a07177</title>
<path fill="none" stroke="#000000" d="M149.9561,-215.9802C162.5312,-206.9479 175.6389,-194.7662 182.5,-180 189.2421,-165.4899 186.176,-159.572 182.5,-144 173.8146,-107.208 152.4005,-69.061 136.7259,-44.5178"/>
<polygon fill="#000000" stroke="#000000" points="139.6411,-42.5806 131.2449,-36.1187 133.7788,-46.4061 139.6411,-42.5806"/>
<g id="a_edge4&#45;headlabel"><a xlink:href="dir_000463_000062.html" target="_top" xlink:title="45">
<text text-anchor="middle" x="143.9832" y="-41.5392" font-family="Helvetica,sans-Serif" font-size="10.00" fill="#000000">45</text>
</a>
</g>
</g>
<!-- dir_2f1defcce8b8bdfe202c8bfd41228d47&#45;&gt;dir_6af676bf18881990e4083e191d0e63e0 -->
<g id="edge5" class="edge">
<title>dir_2f1defcce8b8bdfe202c8bfd41228d47&#45;&gt;dir_6af676bf18881990e4083e191d0e63e0</title>
<path fill="none" stroke="#000000" d="M46.6405,-143.8314C53.6217,-135.454 62.0391,-125.3531 69.6876,-116.1749"/>
<polygon fill="#000000" stroke="#000000" points="72.4425,-118.3362 76.1556,-108.4133 67.0649,-113.8548 72.4425,-118.3362"/>
<g id="a_edge5&#45;headlabel"><a xlink:href="dir_000049_000028.html" target="_top" xlink:title="9">
<text text-anchor="middle" x="72.3225" y="-120.4152" font-family="Helvetica,sans-Serif" font-size="10.00" fill="#000000">9</text>
</a>
</g>
</g>
<!-- dir_2f1defcce8b8bdfe202c8bfd41228d47&#45;&gt;dir_bcbb2cf9a3d3d83e5515c82071a07177 -->
<g id="edge6" class="edge">
<title>dir_2f1defcce8b8bdfe202c8bfd41228d47&#45;&gt;dir_bcbb2cf9a3d3d83e5515c82071a07177</title>
<path fill="none" stroke="#000000" d="M33.1451,-143.8313C35.5748,-124.6989 41.4676,-94.3132 55.5,-72 62.5195,-60.8382 72.5732,-50.7548 82.594,-42.4056"/>
<polygon fill="#000000" stroke="#000000" points="84.8978,-45.0458 90.5649,-36.094 80.5523,-39.5579 84.8978,-45.0458"/>
<g id="a_edge6&#45;headlabel"><a xlink:href="dir_000049_000062.html" target="_top" xlink:title="19">
<text text-anchor="middle" x="83.8423" y="-47.0032" font-family="Helvetica,sans-Serif" font-size="10.00" fill="#000000">19</text>
</a>
</g>
</g>
<!-- dir_6af676bf18881990e4083e191d0e63e0&#45;&gt;dir_bcbb2cf9a3d3d83e5515c82071a07177 -->
<g id="edge7" class="edge">
<title>dir_6af676bf18881990e4083e191d0e63e0&#45;&gt;dir_bcbb2cf9a3d3d83e5515c82071a07177</title>
<path fill="none" stroke="#000000" d="M98.3132,-71.8314C101.2644,-63.9617 104.7858,-54.5712 108.055,-45.8533"/>
<polygon fill="#000000" stroke="#000000" points="111.3609,-47.0055 111.595,-36.4133 104.8066,-44.5476 111.3609,-47.0055"/>
<g id="a_edge7&#45;headlabel"><a xlink:href="dir_000028_000062.html" target="_top" xlink:title="2">
<text text-anchor="middle" x="112.7573" y="-48.8682" font-family="Helvetica,sans-Serif" font-size="10.00" fill="#000000">2</text>
</a>
</g>
</g>
<!-- dir_c95f3e1f9928aa536053908b0b0602c6&#45;&gt;dir_6af676bf18881990e4083e191d0e63e0 -->
<g id="edge8" class="edge">
<title>dir_c95f3e1f9928aa536053908b0b0602c6&#45;&gt;dir_6af676bf18881990e4083e191d0e63e0</title>
<path fill="none" stroke="#000000" d="M132.6212,-143.8314C126.2864,-135.5386 118.6616,-125.557 111.7074,-116.4533"/>
<polygon fill="#000000" stroke="#000000" points="114.4175,-114.2353 105.5657,-108.4133 108.8548,-118.4847 114.4175,-114.2353"/>
<g id="a_edge8&#45;headlabel"><a xlink:href="dir_000085_000028.html" target="_top" xlink:title="2">
<text text-anchor="middle" x="118.8558" y="-112.8683" font-family="Helvetica,sans-Serif" font-size="10.00" fill="#000000">2</text>
</a>
</g>
</g>
<!-- dir_c95f3e1f9928aa536053908b0b0602c6&#45;&gt;dir_bcbb2cf9a3d3d83e5515c82071a07177 -->
<g id="edge9" class="edge">
<title>dir_c95f3e1f9928aa536053908b0b0602c6&#45;&gt;dir_bcbb2cf9a3d3d83e5515c82071a07177</title>
<path fill="none" stroke="#000000" d="M142.9538,-143.7623C138.1569,-119.0928 129.5561,-74.8598 123.9392,-45.9731"/>
<polygon fill="#000000" stroke="#000000" points="127.3619,-45.2377 122.0174,-36.0896 120.4905,-46.5738 127.3619,-45.2377"/>
<g id="a_edge9&#45;headlabel"><a xlink:href="dir_000085_000062.html" target="_top" xlink:title="1">
<text text-anchor="middle" x="130.835" y="-45.7243" font-family="Helvetica,sans-Serif" font-size="10.00" fill="#000000">1</text>
</a>
</g>
</g>
</g>
</svg>
