<?xml version="1.0" encoding="UTF-8" standalone="no"?>
<!DOCTYPE svg PUBLIC "-//W3C//DTD SVG 1.1//EN"
 "http://www.w3.org/Graphics/SVG/1.1/DTD/svg11.dtd">
<!-- Generated by graphviz version 2.40.1 (20161225.0304)
 -->
<!-- Title: /home/runner/work/AliceO2/AliceO2/DataFormats/Detectors/ZDC Pages: 1 -->
<svg width="242pt" height="303pt"
 viewBox="0.00 0.00 241.50 303.00" xmlns="http://www.w3.org/2000/svg" xmlns:xlink="http://www.w3.org/1999/xlink">
<g id="graph0" class="graph" transform="scale(1 1) rotate(0) translate(4 299)">
<title>/home/runner/work/AliceO2/AliceO2/DataFormats/Detectors/ZDC</title>
<g id="clust1" class="cluster">
<title>clusterdir_2801adc79bf3c286b1b479858d2cade4</title>
<g id="a_clust1"><a xlink:href="dir_2801adc79bf3c286b1b479858d2cade4.html" target="_top" xlink:title="Detectors">
<polygon fill="#ddddee" stroke="#000000" points="8,-128 8,-287 166,-287 166,-128 8,-128"/>
<text text-anchor="middle" x="87" y="-275" font-family="Helvetica,sans-Serif" font-size="10.00" fill="#000000">Detectors</text>
</a>
</g>
</g>
<g id="clust2" class="cluster">
<title>clusterdir_b6eb3a833d010b8ef0c8524bb0dfb6b1</title>
<g id="a_clust2"><a xlink:href="dir_b6eb3a833d010b8ef0c8524bb0dfb6b1.html" target="_top">
<polygon fill="#eeeeff" stroke="#000000" points="16,-136 16,-260 158,-260 158,-136 16,-136"/>
</a>
</g>
</g>
<!-- dir_b6eb3a833d010b8ef0c8524bb0dfb6b1 -->
<g id="node1" class="node">
<title>dir_b6eb3a833d010b8ef0c8524bb0dfb6b1</title>
<text text-anchor="middle" x="123" y="-231.5" font-family="Helvetica,sans-Serif" font-size="10.00" fill="#000000">ZDC</text>
</g>
<!-- dir_64d738a0161f08f47d3d8d07e1b435f8 -->
<g id="node2" class="node">
<title>dir_64d738a0161f08f47d3d8d07e1b435f8</title>
<g id="a_node2"><a xlink:href="dir_64d738a0161f08f47d3d8d07e1b435f8.html" target="_top" xlink:title="include">
<polygon fill="#ffffff" stroke="#ff0000" points="136,-180 82,-180 82,-144 136,-144 136,-180"/>
<text text-anchor="middle" x="109" y="-159.5" font-family="Helvetica,sans-Serif" font-size="10.00" fill="#000000">include</text>
</a>
</g>
</g>
<!-- dir_4ab6b4cc6a7edbff49100e9123df213f -->
<g id="node4" class="node">
<title>dir_4ab6b4cc6a7edbff49100e9123df213f</title>
<g id="a_node4"><a xlink:href="dir_4ab6b4cc6a7edbff49100e9123df213f.html" target="_top" xlink:title="Common">
<polygon fill="none" stroke="#ff0000" points="184,-36 128,-36 128,0 184,0 184,-36"/>
<text text-anchor="middle" x="156" y="-15.5" font-family="Helvetica,sans-Serif" font-size="10.00" fill="#000000">Common</text>
</a>
</g>
</g>
<!-- dir_64d738a0161f08f47d3d8d07e1b435f8&#45;&gt;dir_4ab6b4cc6a7edbff49100e9123df213f -->
<g id="edge6" class="edge">
<title>dir_64d738a0161f08f47d3d8d07e1b435f8&#45;&gt;dir_4ab6b4cc6a7edbff49100e9123df213f</title>
<path fill="none" stroke="#000000" d="M108.7827,-143.8348C109.1146,-125.2351 111.1954,-95.7649 120,-72 123.5444,-62.4332 129.0852,-52.8784 134.7667,-44.524"/>
<polygon fill="#000000" stroke="#000000" points="137.679,-46.4687 140.6607,-36.302 131.9898,-42.3903 137.679,-46.4687"/>
<g id="a_edge6&#45;headlabel"><a xlink:href="dir_000218_000035.html" target="_top" xlink:title="1">
<text text-anchor="middle" x="137.8924" y="-48.5444" font-family="Helvetica,sans-Serif" font-size="10.00" fill="#000000">1</text>
</a>
</g>
</g>
<!-- dir_051dca18e802f8e9474f2e30d29c04e0 -->
<g id="node5" class="node">
<title>dir_051dca18e802f8e9474f2e30d29c04e0</title>
<g id="a_node5"><a xlink:href="dir_051dca18e802f8e9474f2e30d29c04e0.html" target="_top" xlink:title="Detectors">
<polygon fill="none" stroke="#ff0000" points="233.5,-180 174.5,-180 174.5,-144 233.5,-144 233.5,-180"/>
<text text-anchor="middle" x="204" y="-159.5" font-family="Helvetica,sans-Serif" font-size="10.00" fill="#000000">Detectors</text>
</a>
</g>
</g>
<!-- dir_64d738a0161f08f47d3d8d07e1b435f8&#45;&gt;dir_051dca18e802f8e9474f2e30d29c04e0 -->
<g id="edge7" class="edge">
<title>dir_64d738a0161f08f47d3d8d07e1b435f8&#45;&gt;dir_051dca18e802f8e9474f2e30d29c04e0</title>
<path fill="none" stroke="#000000" d="M136.0898,-162C145.4408,-162 154.7917,-162 164.1426,-162"/>
<polygon fill="#000000" stroke="#000000" points="164.2893,-165.5001 174.2893,-162 164.2893,-158.5001 164.2893,-165.5001"/>
<g id="a_edge7&#45;headlabel"><a xlink:href="dir_000218_000048.html" target="_top" xlink:title="5">
<text text-anchor="middle" x="160.6947" y="-165.8393" font-family="Helvetica,sans-Serif" font-size="10.00" fill="#000000">5</text>
</a>
</g>
</g>
<!-- dir_7924ba4398ae4560cd37376e44666c6d -->
<g id="node6" class="node">
<title>dir_7924ba4398ae4560cd37376e44666c6d</title>
<g id="a_node6"><a xlink:href="dir_7924ba4398ae4560cd37376e44666c6d.html" target="_top" xlink:title="common">
<polygon fill="none" stroke="#ff0000" points="183,-108 129,-108 129,-72 183,-72 183,-108"/>
<text text-anchor="middle" x="156" y="-87.5" font-family="Helvetica,sans-Serif" font-size="10.00" fill="#000000">common</text>
</a>
</g>
</g>
<!-- dir_64d738a0161f08f47d3d8d07e1b435f8&#45;&gt;dir_7924ba4398ae4560cd37376e44666c6d -->
<g id="edge8" class="edge">
<title>dir_64d738a0161f08f47d3d8d07e1b435f8&#45;&gt;dir_7924ba4398ae4560cd37376e44666c6d</title>
<path fill="none" stroke="#000000" d="M120.8601,-143.8314C126.1629,-135.7079 132.5237,-125.9637 138.3673,-117.0118"/>
<polygon fill="#000000" stroke="#000000" points="141.4448,-118.7003 143.9802,-108.4133 135.5831,-114.8739 141.4448,-118.7003"/>
<g id="a_edge8&#45;headlabel"><a xlink:href="dir_000218_000094.html" target="_top" xlink:title="5">
<text text-anchor="middle" x="141.8575" y="-120.7623" font-family="Helvetica,sans-Serif" font-size="10.00" fill="#000000">5</text>
</a>
</g>
</g>
<!-- dir_1483d8f0070fd38dee27d1b3d5b3b541 -->
<g id="node3" class="node">
<title>dir_1483d8f0070fd38dee27d1b3d5b3b541</title>
<g id="a_node3"><a xlink:href="dir_1483d8f0070fd38dee27d1b3d5b3b541.html" target="_top" xlink:title="src">
<polygon fill="#ffffff" stroke="#000000" points="78,-252 24,-252 24,-216 78,-216 78,-252"/>
<text text-anchor="middle" x="51" y="-231.5" font-family="Helvetica,sans-Serif" font-size="10.00" fill="#000000">src</text>
</a>
</g>
</g>
<!-- dir_1483d8f0070fd38dee27d1b3d5b3b541&#45;&gt;dir_64d738a0161f08f47d3d8d07e1b435f8 -->
<g id="edge4" class="edge">
<title>dir_1483d8f0070fd38dee27d1b3d5b3b541&#45;&gt;dir_64d738a0161f08f47d3d8d07e1b435f8</title>
<path fill="none" stroke="#000000" d="M65.6358,-215.8314C72.3161,-207.5386 80.3568,-197.557 87.6904,-188.4533"/>
<polygon fill="#000000" stroke="#000000" points="90.6194,-190.3965 94.1671,-180.4133 85.1681,-186.0052 90.6194,-190.3965"/>
<g id="a_edge4&#45;headlabel"><a xlink:href="dir_000234_000218.html" target="_top" xlink:title="6">
<text text-anchor="middle" x="90.5755" y="-192.4769" font-family="Helvetica,sans-Serif" font-size="10.00" fill="#000000">6</text>
</a>
</g>
</g>
<!-- dir_051dca18e802f8e9474f2e30d29c04e0&#45;&gt;dir_64d738a0161f08f47d3d8d07e1b435f8 -->
<g id="edge3" class="edge">
<title>dir_051dca18e802f8e9474f2e30d29c04e0&#45;&gt;dir_64d738a0161f08f47d3d8d07e1b435f8</title>
<path fill="none" stroke="#000000" d="M174.2893,-162C164.9384,-162 155.5875,-162 146.2366,-162"/>
<polygon fill="#000000" stroke="#000000" points="146.0899,-158.5001 136.0898,-162 146.0898,-165.5001 146.0899,-158.5001"/>
<g id="a_edge3&#45;headlabel"><a xlink:href="dir_000048_000218.html" target="_top" xlink:title="2">
<text text-anchor="middle" x="149.6845" y="-153.1607" font-family="Helvetica,sans-Serif" font-size="10.00" fill="#000000">2</text>
</a>
</g>
</g>
<!-- dir_051dca18e802f8e9474f2e30d29c04e0&#45;&gt;dir_4ab6b4cc6a7edbff49100e9123df213f -->
<g id="edge1" class="edge">
<title>dir_051dca18e802f8e9474f2e30d29c04e0&#45;&gt;dir_4ab6b4cc6a7edbff49100e9123df213f</title>
<path fill="none" stroke="#000000" d="M203.9652,-143.8285C203.3866,-125.2237 200.9469,-95.7495 192,-72 188.4034,-62.4528 182.8473,-52.9037 177.1678,-44.5484"/>
<polygon fill="#000000" stroke="#000000" points="179.9476,-42.4186 171.2815,-36.3236 174.2552,-46.4926 179.9476,-42.4186"/>
<g id="a_edge1&#45;headlabel"><a xlink:href="dir_000048_000035.html" target="_top" xlink:title="330">
<text text-anchor="middle" x="184.3485" y="-41.1893" font-family="Helvetica,sans-Serif" font-size="10.00" fill="#000000">330</text>
</a>
</g>
</g>
<!-- dir_051dca18e802f8e9474f2e30d29c04e0&#45;&gt;dir_7924ba4398ae4560cd37376e44666c6d -->
<g id="edge2" class="edge">
<title>dir_051dca18e802f8e9474f2e30d29c04e0&#45;&gt;dir_7924ba4398ae4560cd37376e44666c6d</title>
<path fill="none" stroke="#000000" d="M191.8876,-143.8314C186.4719,-135.7079 179.9758,-125.9637 174.0079,-117.0118"/>
<polygon fill="#000000" stroke="#000000" points="176.7347,-114.7923 168.2755,-108.4133 170.9104,-118.6753 176.7347,-114.7923"/>
<g id="a_edge2&#45;headlabel"><a xlink:href="dir_000048_000094.html" target="_top" xlink:title="79">
<text text-anchor="middle" x="181.091" y="-113.7083" font-family="Helvetica,sans-Serif" font-size="10.00" fill="#000000">79</text>
</a>
</g>
</g>
<!-- dir_7924ba4398ae4560cd37376e44666c6d&#45;&gt;dir_4ab6b4cc6a7edbff49100e9123df213f -->
<g id="edge5" class="edge">
<title>dir_7924ba4398ae4560cd37376e44666c6d&#45;&gt;dir_4ab6b4cc6a7edbff49100e9123df213f</title>
<path fill="none" stroke="#000000" d="M156,-71.8314C156,-64.131 156,-54.9743 156,-46.4166"/>
<polygon fill="#000000" stroke="#000000" points="159.5001,-46.4132 156,-36.4133 152.5001,-46.4133 159.5001,-46.4132"/>
<g id="a_edge5&#45;headlabel"><a xlink:href="dir_000094_000035.html" target="_top" xlink:title="2">
<text text-anchor="middle" x="162.3393" y="-47.5079" font-family="Helvetica,sans-Serif" font-size="10.00" fill="#000000">2</text>
</a>
</g>
</g>
</g>
</svg>
