<?xml version="1.0" encoding="UTF-8" standalone="no"?>
<!DOCTYPE svg PUBLIC "-//W3C//DTD SVG 1.1//EN"
 "http://www.w3.org/Graphics/SVG/1.1/DTD/svg11.dtd">
<!-- Generated by graphviz version 2.40.1 (20161225.0304)
 -->
<!-- Title: /home/runner/work/AliceO2/AliceO2/DataFormats/Reconstruction/test Pages: 1 -->
<svg width="142pt" height="295pt"
 viewBox="0.00 0.00 142.00 295.00" xmlns="http://www.w3.org/2000/svg" xmlns:xlink="http://www.w3.org/1999/xlink">
<g id="graph0" class="graph" transform="scale(1 1) rotate(0) translate(4 291)">
<title>/home/runner/work/AliceO2/AliceO2/DataFormats/Reconstruction/test</title>
<g id="clust1" class="cluster">
<title>clusterdir_d269712cc31e133b892a3b3f6424741a</title>
<g id="a_clust1"><a xlink:href="dir_d269712cc31e133b892a3b3f6424741a.html" target="_top" xlink:title="Reconstruction">
<polygon fill="#ddddee" stroke="#000000" points="43,-208 43,-279 126,-279 126,-208 43,-208"/>
<text text-anchor="middle" x="84.5" y="-267" font-family="Helvetica,sans-Serif" font-size="10.00" fill="#000000">Reconstruction</text>
</a>
</g>
</g>
<!-- dir_c5b7346fd504360471cc9fe5be83ae72 -->
<g id="node1" class="node">
<title>dir_c5b7346fd504360471cc9fe5be83ae72</title>
<g id="a_node1"><a xlink:href="dir_c5b7346fd504360471cc9fe5be83ae72.html" target="_top" xlink:title="test">
<polygon fill="#eeeeff" stroke="#000000" points="111,-252 57,-252 57,-216 111,-216 111,-252"/>
<text text-anchor="middle" x="84" y="-231.5" font-family="Helvetica,sans-Serif" font-size="10.00" fill="#000000">test</text>
</a>
</g>
</g>
<!-- dir_4ab6b4cc6a7edbff49100e9123df213f -->
<g id="node2" class="node">
<title>dir_4ab6b4cc6a7edbff49100e9123df213f</title>
<g id="a_node2"><a xlink:href="dir_4ab6b4cc6a7edbff49100e9123df213f.html" target="_top" xlink:title="Common">
<polygon fill="none" stroke="#ff0000" points="56,-180 0,-180 0,-144 56,-144 56,-180"/>
<text text-anchor="middle" x="28" y="-159.5" font-family="Helvetica,sans-Serif" font-size="10.00" fill="#000000">Common</text>
</a>
</g>
</g>
<!-- dir_c5b7346fd504360471cc9fe5be83ae72&#45;&gt;dir_4ab6b4cc6a7edbff49100e9123df213f -->
<g id="edge3" class="edge">
<title>dir_c5b7346fd504360471cc9fe5be83ae72&#45;&gt;dir_4ab6b4cc6a7edbff49100e9123df213f</title>
<path fill="none" stroke="#000000" d="M69.8688,-215.8314C63.4189,-207.5386 55.6555,-197.557 48.5748,-188.4533"/>
<polygon fill="#000000" stroke="#000000" points="51.2236,-186.158 42.3214,-180.4133 45.6981,-190.4556 51.2236,-186.158"/>
<g id="a_edge3&#45;headlabel"><a xlink:href="dir_000288_000035.html" target="_top" xlink:title="1">
<text text-anchor="middle" x="55.6716" y="-184.7523" font-family="Helvetica,sans-Serif" font-size="10.00" fill="#000000">1</text>
</a>
</g>
</g>
<!-- dir_7924ba4398ae4560cd37376e44666c6d -->
<g id="node3" class="node">
<title>dir_7924ba4398ae4560cd37376e44666c6d</title>
<g id="a_node3"><a xlink:href="dir_7924ba4398ae4560cd37376e44666c6d.html" target="_top" xlink:title="common">
<polygon fill="none" stroke="#ff0000" points="94,-36 40,-36 40,0 94,0 94,-36"/>
<text text-anchor="middle" x="67" y="-15.5" font-family="Helvetica,sans-Serif" font-size="10.00" fill="#000000">common</text>
</a>
</g>
</g>
<!-- dir_c5b7346fd504360471cc9fe5be83ae72&#45;&gt;dir_7924ba4398ae4560cd37376e44666c6d -->
<g id="edge4" class="edge">
<title>dir_c5b7346fd504360471cc9fe5be83ae72&#45;&gt;dir_7924ba4398ae4560cd37376e44666c6d</title>
<path fill="none" stroke="#000000" d="M90.9085,-215.5941C101.3171,-185.0872 118.2632,-122.4111 103,-72 100.0436,-62.2355 94.6748,-52.6229 88.97,-44.2762"/>
<polygon fill="#000000" stroke="#000000" points="91.7129,-42.0973 82.9905,-36.0831 86.0586,-46.2239 91.7129,-42.0973"/>
<g id="a_edge4&#45;headlabel"><a xlink:href="dir_000288_000094.html" target="_top" xlink:title="1">
<text text-anchor="middle" x="96.1253" y="-40.827" font-family="Helvetica,sans-Serif" font-size="10.00" fill="#000000">1</text>
</a>
</g>
</g>
<!-- dir_99c43ad88135ecdb15d6d5c818628268 -->
<g id="node4" class="node">
<title>dir_99c43ad88135ecdb15d6d5c818628268</title>
<g id="a_node4"><a xlink:href="dir_99c43ad88135ecdb15d6d5c818628268.html" target="_top" xlink:title="include">
<polygon fill="none" stroke="#ff0000" points="94,-108 40,-108 40,-72 94,-72 94,-108"/>
<text text-anchor="middle" x="67" y="-87.5" font-family="Helvetica,sans-Serif" font-size="10.00" fill="#000000">include</text>
</a>
</g>
</g>
<!-- dir_c5b7346fd504360471cc9fe5be83ae72&#45;&gt;dir_99c43ad88135ecdb15d6d5c818628268 -->
<g id="edge5" class="edge">
<title>dir_c5b7346fd504360471cc9fe5be83ae72&#45;&gt;dir_99c43ad88135ecdb15d6d5c818628268</title>
<path fill="none" stroke="#000000" d="M81.8469,-215.7623C78.9473,-191.201 73.7584,-147.2474 70.3474,-118.3541"/>
<polygon fill="#000000" stroke="#000000" points="73.7839,-117.6103 69.1356,-108.0896 66.8322,-118.431 73.7839,-117.6103"/>
<g id="a_edge5&#45;headlabel"><a xlink:href="dir_000288_000254.html" target="_top" xlink:title="4">
<text text-anchor="middle" x="77.025" y="-118.3473" font-family="Helvetica,sans-Serif" font-size="10.00" fill="#000000">4</text>
</a>
</g>
</g>
<!-- dir_4ab6b4cc6a7edbff49100e9123df213f&#45;&gt;dir_99c43ad88135ecdb15d6d5c818628268 -->
<g id="edge1" class="edge">
<title>dir_4ab6b4cc6a7edbff49100e9123df213f&#45;&gt;dir_99c43ad88135ecdb15d6d5c818628268</title>
<path fill="none" stroke="#000000" d="M31.889,-143.8314C35.4975,-135.7079 40.5733,-125.9637 45.8092,-117.0118"/>
<polygon fill="#000000" stroke="#000000" points="48.8341,-118.7738 51.0501,-108.4133 42.8569,-115.1305 48.8341,-118.7738"/>
<g id="a_edge1&#45;headlabel"><a xlink:href="dir_000035_000254.html" target="_top" xlink:title="1">
<text text-anchor="middle" x="49.3877" y="-120.8209" font-family="Helvetica,sans-Serif" font-size="10.00" fill="#000000">1</text>
</a>
</g>
</g>
<!-- dir_7924ba4398ae4560cd37376e44666c6d&#45;&gt;dir_4ab6b4cc6a7edbff49100e9123df213f -->
<g id="edge2" class="edge">
<title>dir_7924ba4398ae4560cd37376e44666c6d&#45;&gt;dir_4ab6b4cc6a7edbff49100e9123df213f</title>
<path fill="none" stroke="#000000" d="M51.1892,-36.1391C43.575,-46.0343 35.202,-58.9118 31,-72 24.5981,-91.9399 24.0746,-115.6549 25.0305,-133.7345"/>
<polygon fill="#000000" stroke="#000000" points="21.554,-134.1909 25.754,-143.9176 28.5364,-133.6947 21.554,-134.1909"/>
<g id="a_edge2&#45;headlabel"><a xlink:href="dir_000094_000035.html" target="_top" xlink:title="2">
<text text-anchor="middle" x="18.4672" y="-128.3065" font-family="Helvetica,sans-Serif" font-size="10.00" fill="#000000">2</text>
</a>
</g>
</g>
<!-- dir_99c43ad88135ecdb15d6d5c818628268&#45;&gt;dir_4ab6b4cc6a7edbff49100e9123df213f -->
<g id="edge6" class="edge">
<title>dir_99c43ad88135ecdb15d6d5c818628268&#45;&gt;dir_4ab6b4cc6a7edbff49100e9123df213f</title>
<path fill="none" stroke="#000000" d="M63.0022,-108.4133C59.3643,-116.569 54.2724,-126.3212 49.0334,-135.257"/>
<polygon fill="#000000" stroke="#000000" points="46.0216,-133.4734 43.7937,-143.8314 51.9947,-137.1235 46.0216,-133.4734"/>
<g id="a_edge6&#45;headlabel"><a xlink:href="dir_000254_000035.html" target="_top" xlink:title="9">
<text text-anchor="middle" x="45.4732" y="-126.4257" font-family="Helvetica,sans-Serif" font-size="10.00" fill="#000000">9</text>
</a>
</g>
</g>
<!-- dir_99c43ad88135ecdb15d6d5c818628268&#45;&gt;dir_7924ba4398ae4560cd37376e44666c6d -->
<g id="edge7" class="edge">
<title>dir_99c43ad88135ecdb15d6d5c818628268&#45;&gt;dir_7924ba4398ae4560cd37376e44666c6d</title>
<path fill="none" stroke="#000000" d="M67,-71.8314C67,-64.131 67,-54.9743 67,-46.4166"/>
<polygon fill="#000000" stroke="#000000" points="70.5001,-46.4132 67,-36.4133 63.5001,-46.4133 70.5001,-46.4132"/>
<g id="a_edge7&#45;headlabel"><a xlink:href="dir_000254_000094.html" target="_top" xlink:title="6">
<text text-anchor="middle" x="73.3393" y="-47.5079" font-family="Helvetica,sans-Serif" font-size="10.00" fill="#000000">6</text>
</a>
</g>
</g>
</g>
</svg>
