<?xml version="1.0" encoding="UTF-8" standalone="no"?>
<!DOCTYPE svg PUBLIC "-//W3C//DTD SVG 1.1//EN"
 "http://www.w3.org/Graphics/SVG/1.1/DTD/svg11.dtd">
<!-- Generated by graphviz version 2.40.1 (20161225.0304)
 -->
<!-- Title: /home/runner/work/AliceO2/AliceO2/Detectors/CPV/simulation Pages: 1 -->
<svg width="366pt" height="519pt"
 viewBox="0.00 0.00 366.00 519.00" xmlns="http://www.w3.org/2000/svg" xmlns:xlink="http://www.w3.org/1999/xlink">
<g id="graph0" class="graph" transform="scale(1 1) rotate(0) translate(4 515)">
<title>/home/runner/work/AliceO2/AliceO2/Detectors/CPV/simulation</title>
<g id="clust1" class="cluster">
<title>clusterdir_860de54695a0456b93a4bb1fd951d826</title>
<g id="a_clust1"><a xlink:href="dir_860de54695a0456b93a4bb1fd951d826.html" target="_top" xlink:title="CPV">
<polygon fill="#ddddee" stroke="#000000" points="146,-344 146,-503 312,-503 312,-344 146,-344"/>
<text text-anchor="middle" x="229" y="-491" font-family="Helvetica,sans-Serif" font-size="10.00" fill="#000000">CPV</text>
</a>
</g>
</g>
<g id="clust2" class="cluster">
<title>clusterdir_a740963330d1efa3e28509f70022bd98</title>
<g id="a_clust2"><a xlink:href="dir_a740963330d1efa3e28509f70022bd98.html" target="_top">
<polygon fill="#eeeeff" stroke="#000000" points="154,-352 154,-476 304,-476 304,-352 154,-352"/>
</a>
</g>
</g>
<!-- dir_a740963330d1efa3e28509f70022bd98 -->
<g id="node1" class="node">
<title>dir_a740963330d1efa3e28509f70022bd98</title>
<text text-anchor="middle" x="265" y="-447.5" font-family="Helvetica,sans-Serif" font-size="10.00" fill="#000000">simulation</text>
</g>
<!-- dir_6293adb0b35b98834b78d8c1784ec891 -->
<g id="node2" class="node">
<title>dir_6293adb0b35b98834b78d8c1784ec891</title>
<g id="a_node2"><a xlink:href="dir_6293adb0b35b98834b78d8c1784ec891.html" target="_top" xlink:title="include">
<polygon fill="#ffffff" stroke="#ff0000" points="216,-396 162,-396 162,-360 216,-360 216,-396"/>
<text text-anchor="middle" x="189" y="-375.5" font-family="Helvetica,sans-Serif" font-size="10.00" fill="#000000">include</text>
</a>
</g>
</g>
<!-- dir_09ac740ef76ce36f9a01e5a702df673a -->
<g id="node4" class="node">
<title>dir_09ac740ef76ce36f9a01e5a702df673a</title>
<g id="a_node4"><a xlink:href="dir_09ac740ef76ce36f9a01e5a702df673a.html" target="_top" xlink:title="calib">
<polygon fill="none" stroke="#ff0000" points="120,-324 66,-324 66,-288 120,-288 120,-324"/>
<text text-anchor="middle" x="93" y="-303.5" font-family="Helvetica,sans-Serif" font-size="10.00" fill="#000000">calib</text>
</a>
</g>
</g>
<!-- dir_6293adb0b35b98834b78d8c1784ec891&#45;&gt;dir_09ac740ef76ce36f9a01e5a702df673a -->
<g id="edge1" class="edge">
<title>dir_6293adb0b35b98834b78d8c1784ec891&#45;&gt;dir_09ac740ef76ce36f9a01e5a702df673a</title>
<path fill="none" stroke="#000000" d="M164.7751,-359.8314C152.8372,-350.8779 138.2744,-339.9558 125.394,-330.2955"/>
<polygon fill="#000000" stroke="#000000" points="127.3171,-327.3629 117.2171,-324.1628 123.1171,-332.9629 127.3171,-327.3629"/>
<g id="a_edge1&#45;headlabel"><a xlink:href="dir_000304_000388.html" target="_top" xlink:title="1">
<text text-anchor="middle" x="131.8964" y="-324.7482" font-family="Helvetica,sans-Serif" font-size="10.00" fill="#000000">1</text>
</a>
</g>
</g>
<!-- dir_4ab6b4cc6a7edbff49100e9123df213f -->
<g id="node5" class="node">
<title>dir_4ab6b4cc6a7edbff49100e9123df213f</title>
<g id="a_node5"><a xlink:href="dir_4ab6b4cc6a7edbff49100e9123df213f.html" target="_top" xlink:title="Common">
<polygon fill="none" stroke="#ff0000" points="207,-180 151,-180 151,-144 207,-144 207,-180"/>
<text text-anchor="middle" x="179" y="-159.5" font-family="Helvetica,sans-Serif" font-size="10.00" fill="#000000">Common</text>
</a>
</g>
</g>
<!-- dir_6293adb0b35b98834b78d8c1784ec891&#45;&gt;dir_4ab6b4cc6a7edbff49100e9123df213f -->
<g id="edge2" class="edge">
<title>dir_6293adb0b35b98834b78d8c1784ec891&#45;&gt;dir_4ab6b4cc6a7edbff49100e9123df213f</title>
<path fill="none" stroke="#000000" d="M196.9524,-359.6721C209.0118,-329.2773 229.0109,-266.7587 214,-216 211.1312,-206.2994 205.9132,-196.7055 200.3667,-188.3563"/>
<polygon fill="#000000" stroke="#000000" points="203.1909,-186.2881 194.5525,-180.1538 197.4801,-190.3362 203.1909,-186.2881"/>
<g id="a_edge2&#45;headlabel"><a xlink:href="dir_000304_000035.html" target="_top" xlink:title="1">
<text text-anchor="middle" x="207.5859" y="-185.0787" font-family="Helvetica,sans-Serif" font-size="10.00" fill="#000000">1</text>
</a>
</g>
</g>
<!-- dir_37c90836491b695b472bf98d1be8336b -->
<g id="node7" class="node">
<title>dir_37c90836491b695b472bf98d1be8336b</title>
<g id="a_node7"><a xlink:href="dir_37c90836491b695b472bf98d1be8336b.html" target="_top" xlink:title="Base">
<polygon fill="none" stroke="#ff0000" points="271,-36 217,-36 217,0 271,0 271,-36"/>
<text text-anchor="middle" x="244" y="-15.5" font-family="Helvetica,sans-Serif" font-size="10.00" fill="#000000">Base</text>
</a>
</g>
</g>
<!-- dir_6293adb0b35b98834b78d8c1784ec891&#45;&gt;dir_37c90836491b695b472bf98d1be8336b -->
<g id="edge3" class="edge">
<title>dir_6293adb0b35b98834b78d8c1784ec891&#45;&gt;dir_37c90836491b695b472bf98d1be8336b</title>
<path fill="none" stroke="#000000" d="M210.5698,-359.9468C238.043,-334.7991 282,-286.3785 282,-234 282,-234 282,-234 282,-162 282,-120.3681 266.9672,-74.14 255.8119,-45.567"/>
<polygon fill="#000000" stroke="#000000" points="259.0368,-44.2055 252.0588,-36.2332 252.5422,-46.817 259.0368,-44.2055"/>
<g id="a_edge3&#45;headlabel"><a xlink:href="dir_000304_000300.html" target="_top" xlink:title="1">
<text text-anchor="middle" x="263.0121" y="-43.9814" font-family="Helvetica,sans-Serif" font-size="10.00" fill="#000000">1</text>
</a>
</g>
</g>
<!-- dir_9f065a6c27ad05d142739bd8f4136180 -->
<g id="node8" class="node">
<title>dir_9f065a6c27ad05d142739bd8f4136180</title>
<g id="a_node8"><a xlink:href="dir_9f065a6c27ad05d142739bd8f4136180.html" target="_top" xlink:title="base">
<polygon fill="none" stroke="#ff0000" points="122,-36 68,-36 68,0 122,0 122,-36"/>
<text text-anchor="middle" x="95" y="-15.5" font-family="Helvetica,sans-Serif" font-size="10.00" fill="#000000">base</text>
</a>
</g>
</g>
<!-- dir_6293adb0b35b98834b78d8c1784ec891&#45;&gt;dir_9f065a6c27ad05d142739bd8f4136180 -->
<g id="edge4" class="edge">
<title>dir_6293adb0b35b98834b78d8c1784ec891&#45;&gt;dir_9f065a6c27ad05d142739bd8f4136180</title>
<path fill="none" stroke="#000000" d="M161.8351,-374.4709C131.5904,-369.057 83.488,-355.7515 57,-324 30.8116,-292.6077 38,-274.8816 38,-234 38,-234 38,-234 38,-162 38,-118.7597 60.4945,-73.0187 77.2212,-44.9832"/>
<polygon fill="#000000" stroke="#000000" points="80.3756,-46.5353 82.6318,-36.1834 74.4126,-42.8688 80.3756,-46.5353"/>
<g id="a_edge4&#45;headlabel"><a xlink:href="dir_000304_000221.html" target="_top" xlink:title="3">
<text text-anchor="middle" x="80.9115" y="-48.5845" font-family="Helvetica,sans-Serif" font-size="10.00" fill="#000000">3</text>
</a>
</g>
</g>
<!-- dir_2171f7ec022c5423887b07c69b2f5b48 -->
<g id="node9" class="node">
<title>dir_2171f7ec022c5423887b07c69b2f5b48</title>
<g id="a_node9"><a xlink:href="dir_2171f7ec022c5423887b07c69b2f5b48.html" target="_top" xlink:title="DataFormats">
<polygon fill="none" stroke="#ff0000" points="216,-108 142,-108 142,-72 216,-72 216,-108"/>
<text text-anchor="middle" x="179" y="-87.5" font-family="Helvetica,sans-Serif" font-size="10.00" fill="#000000">DataFormats</text>
</a>
</g>
</g>
<!-- dir_6293adb0b35b98834b78d8c1784ec891&#45;&gt;dir_2171f7ec022c5423887b07c69b2f5b48 -->
<g id="edge5" class="edge">
<title>dir_6293adb0b35b98834b78d8c1784ec891&#45;&gt;dir_2171f7ec022c5423887b07c69b2f5b48</title>
<path fill="none" stroke="#000000" d="M179.843,-359.8044C168.334,-335.8202 149.2136,-291.9787 142,-252 133.4767,-204.7628 127.7987,-189.8511 142,-144 145.0445,-134.1704 150.5641,-124.5387 156.4271,-116.1946"/>
<polygon fill="#000000" stroke="#000000" points="159.3663,-118.1092 162.5719,-108.011 153.7686,-113.9061 159.3663,-118.1092"/>
<g id="a_edge5&#45;headlabel"><a xlink:href="dir_000304_000089.html" target="_top" xlink:title="3">
<text text-anchor="middle" x="159.4785" y="-120.1885" font-family="Helvetica,sans-Serif" font-size="10.00" fill="#000000">3</text>
</a>
</g>
</g>
<!-- dir_47d1353bed2225f1f068cbf1d7fab245 -->
<g id="node3" class="node">
<title>dir_47d1353bed2225f1f068cbf1d7fab245</title>
<g id="a_node3"><a xlink:href="dir_47d1353bed2225f1f068cbf1d7fab245.html" target="_top" xlink:title="src">
<polygon fill="#ffffff" stroke="#000000" points="216,-468 162,-468 162,-432 216,-432 216,-468"/>
<text text-anchor="middle" x="189" y="-447.5" font-family="Helvetica,sans-Serif" font-size="10.00" fill="#000000">src</text>
</a>
</g>
</g>
<!-- dir_47d1353bed2225f1f068cbf1d7fab245&#45;&gt;dir_6293adb0b35b98834b78d8c1784ec891 -->
<g id="edge14" class="edge">
<title>dir_47d1353bed2225f1f068cbf1d7fab245&#45;&gt;dir_6293adb0b35b98834b78d8c1784ec891</title>
<path fill="none" stroke="#000000" d="M189,-431.8314C189,-424.131 189,-414.9743 189,-406.4166"/>
<polygon fill="#000000" stroke="#000000" points="192.5001,-406.4132 189,-396.4133 185.5001,-406.4133 192.5001,-406.4132"/>
<g id="a_edge14&#45;headlabel"><a xlink:href="dir_000352_000304.html" target="_top" xlink:title="4">
<text text-anchor="middle" x="195.3393" y="-407.5079" font-family="Helvetica,sans-Serif" font-size="10.00" fill="#000000">4</text>
</a>
</g>
</g>
<!-- dir_6af676bf18881990e4083e191d0e63e0 -->
<g id="node6" class="node">
<title>dir_6af676bf18881990e4083e191d0e63e0</title>
<g id="a_node6"><a xlink:href="dir_6af676bf18881990e4083e191d0e63e0.html" target="_top" xlink:title="CCDB">
<polygon fill="none" stroke="#ff0000" points="205,-252 151,-252 151,-216 205,-216 205,-252"/>
<text text-anchor="middle" x="178" y="-231.5" font-family="Helvetica,sans-Serif" font-size="10.00" fill="#000000">CCDB</text>
</a>
</g>
</g>
<!-- dir_47d1353bed2225f1f068cbf1d7fab245&#45;&gt;dir_6af676bf18881990e4083e191d0e63e0 -->
<g id="edge15" class="edge">
<title>dir_47d1353bed2225f1f068cbf1d7fab245&#45;&gt;dir_6af676bf18881990e4083e191d0e63e0</title>
<path fill="none" stroke="#000000" d="M204.9905,-431.9169C212.6538,-422.0371 221.0166,-409.1563 225,-396 231.6972,-373.8805 229.6344,-366.6417 225,-344 218.9419,-314.4028 204.592,-282.9227 193.3303,-261.257"/>
<polygon fill="#000000" stroke="#000000" points="196.3609,-259.5017 188.5704,-252.3212 190.1827,-262.7927 196.3609,-259.5017"/>
<g id="a_edge15&#45;headlabel"><a xlink:href="dir_000352_000028.html" target="_top" xlink:title="1">
<text text-anchor="middle" x="200.5567" y="-258.8394" font-family="Helvetica,sans-Serif" font-size="10.00" fill="#000000">1</text>
</a>
</g>
</g>
<!-- dir_47d1353bed2225f1f068cbf1d7fab245&#45;&gt;dir_37c90836491b695b472bf98d1be8336b -->
<g id="edge16" class="edge">
<title>dir_47d1353bed2225f1f068cbf1d7fab245&#45;&gt;dir_37c90836491b695b472bf98d1be8336b</title>
<path fill="none" stroke="#000000" d="M216.0624,-436.3041C219.0685,-434.8318 222.0931,-433.3718 225,-432 260.6274,-415.1866 276.7106,-422.3464 306,-396 340.3458,-365.1052 358,-352.1966 358,-306 358,-306 358,-306 358,-162 358,-110.5591 312.7264,-66.7654 279.2409,-41.4096"/>
<polygon fill="#000000" stroke="#000000" points="281.1475,-38.4672 271.0164,-35.367 277.0029,-44.1084 281.1475,-38.4672"/>
<g id="a_edge16&#45;headlabel"><a xlink:href="dir_000352_000300.html" target="_top" xlink:title="1">
<text text-anchor="middle" x="285.7254" y="-35.8074" font-family="Helvetica,sans-Serif" font-size="10.00" fill="#000000">1</text>
</a>
</g>
</g>
<!-- dir_47d1353bed2225f1f068cbf1d7fab245&#45;&gt;dir_9f065a6c27ad05d142739bd8f4136180 -->
<g id="edge17" class="edge">
<title>dir_47d1353bed2225f1f068cbf1d7fab245&#45;&gt;dir_9f065a6c27ad05d142739bd8f4136180</title>
<path fill="none" stroke="#000000" d="M161.9209,-443.0699C109.6607,-427.8856 0,-386.4398 0,-306 0,-306 0,-306 0,-162 0,-114.0912 37.0913,-69.8312 64.921,-43.3654"/>
<polygon fill="#000000" stroke="#000000" points="67.5108,-45.7382 72.4863,-36.3843 62.7636,-40.5938 67.5108,-45.7382"/>
<g id="a_edge17&#45;headlabel"><a xlink:href="dir_000352_000221.html" target="_top" xlink:title="4">
<text text-anchor="middle" x="66.7945" y="-47.7625" font-family="Helvetica,sans-Serif" font-size="10.00" fill="#000000">4</text>
</a>
</g>
</g>
<!-- dir_47d1353bed2225f1f068cbf1d7fab245&#45;&gt;dir_2171f7ec022c5423887b07c69b2f5b48 -->
<g id="edge18" class="edge">
<title>dir_47d1353bed2225f1f068cbf1d7fab245&#45;&gt;dir_2171f7ec022c5423887b07c69b2f5b48</title>
<path fill="none" stroke="#000000" d="M216.1433,-435.9146C254.514,-413.8281 320,-367.1728 320,-306 320,-306 320,-306 320,-234 320,-178.5848 266.0323,-136.6208 224.873,-112.6746"/>
<polygon fill="#000000" stroke="#000000" points="226.4757,-109.5602 216.0461,-107.6962 223.0369,-115.6573 226.4757,-109.5602"/>
<g id="a_edge18&#45;headlabel"><a xlink:href="dir_000352_000089.html" target="_top" xlink:title="2">
<text text-anchor="middle" x="231.0014" y="-106.3529" font-family="Helvetica,sans-Serif" font-size="10.00" fill="#000000">2</text>
</a>
</g>
</g>
<!-- dir_09ac740ef76ce36f9a01e5a702df673a&#45;&gt;dir_6af676bf18881990e4083e191d0e63e0 -->
<g id="edge6" class="edge">
<title>dir_09ac740ef76ce36f9a01e5a702df673a&#45;&gt;dir_6af676bf18881990e4083e191d0e63e0</title>
<path fill="none" stroke="#000000" d="M114.4491,-287.8314C124.8178,-279.0485 137.4229,-268.3712 148.6646,-258.8489"/>
<polygon fill="#000000" stroke="#000000" points="151.1895,-261.297 156.5578,-252.1628 146.6651,-255.9556 151.1895,-261.297"/>
<g id="a_edge6&#45;headlabel"><a xlink:href="dir_000388_000028.html" target="_top" xlink:title="1">
<text text-anchor="middle" x="150.2818" y="-263.2868" font-family="Helvetica,sans-Serif" font-size="10.00" fill="#000000">1</text>
</a>
</g>
</g>
<!-- dir_09ac740ef76ce36f9a01e5a702df673a&#45;&gt;dir_9f065a6c27ad05d142739bd8f4136180 -->
<g id="edge7" class="edge">
<title>dir_09ac740ef76ce36f9a01e5a702df673a&#45;&gt;dir_9f065a6c27ad05d142739bd8f4136180</title>
<path fill="none" stroke="#000000" d="M93.1251,-287.9843C93.4632,-239.2939 94.3972,-104.7961 94.8052,-46.0573"/>
<polygon fill="#000000" stroke="#000000" points="98.3053,-46.033 94.8749,-36.0089 91.3055,-45.9843 98.3053,-46.033"/>
<g id="a_edge7&#45;headlabel"><a xlink:href="dir_000388_000221.html" target="_top" xlink:title="2">
<text text-anchor="middle" x="101.1197" y="-47.1472" font-family="Helvetica,sans-Serif" font-size="10.00" fill="#000000">2</text>
</a>
</g>
</g>
<!-- dir_4ab6b4cc6a7edbff49100e9123df213f&#45;&gt;dir_2171f7ec022c5423887b07c69b2f5b48 -->
<g id="edge8" class="edge">
<title>dir_4ab6b4cc6a7edbff49100e9123df213f&#45;&gt;dir_2171f7ec022c5423887b07c69b2f5b48</title>
<path fill="none" stroke="#000000" d="M173.0476,-143.8314C172.2972,-136.131 172.0763,-126.9743 172.3849,-118.4166"/>
<polygon fill="#000000" stroke="#000000" points="175.8792,-118.6161 173.024,-108.4133 168.8935,-118.1697 175.8792,-118.6161"/>
<g id="a_edge8&#45;headlabel"><a xlink:href="dir_000035_000089.html" target="_top" xlink:title="2">
<text text-anchor="middle" x="178.4836" y="-119.8844" font-family="Helvetica,sans-Serif" font-size="10.00" fill="#000000">2</text>
</a>
</g>
</g>
<!-- dir_6af676bf18881990e4083e191d0e63e0&#45;&gt;dir_4ab6b4cc6a7edbff49100e9123df213f -->
<g id="edge9" class="edge">
<title>dir_6af676bf18881990e4083e191d0e63e0&#45;&gt;dir_4ab6b4cc6a7edbff49100e9123df213f</title>
<path fill="none" stroke="#000000" d="M178.2523,-215.8314C178.3593,-208.131 178.4865,-198.9743 178.6053,-190.4166"/>
<polygon fill="#000000" stroke="#000000" points="182.1049,-190.4609 178.7443,-180.4133 175.1056,-190.3637 182.1049,-190.4609"/>
<g id="a_edge9&#45;headlabel"><a xlink:href="dir_000028_000035.html" target="_top" xlink:title="4">
<text text-anchor="middle" x="184.8941" y="-191.5946" font-family="Helvetica,sans-Serif" font-size="10.00" fill="#000000">4</text>
</a>
</g>
</g>
<!-- dir_37c90836491b695b472bf98d1be8336b&#45;&gt;dir_4ab6b4cc6a7edbff49100e9123df213f -->
<g id="edge10" class="edge">
<title>dir_37c90836491b695b472bf98d1be8336b&#45;&gt;dir_4ab6b4cc6a7edbff49100e9123df213f</title>
<path fill="none" stroke="#000000" d="M242.8117,-36.1009C240.9887,-54.9088 236.4112,-84.7823 225,-108 220.0601,-118.051 212.8253,-127.7752 205.5493,-136.1365"/>
<polygon fill="#000000" stroke="#000000" points="202.7977,-133.9591 198.6343,-143.7017 207.9645,-138.6819 202.7977,-133.9591"/>
<g id="a_edge10&#45;headlabel"><a xlink:href="dir_000300_000035.html" target="_top" xlink:title="16">
<text text-anchor="middle" x="203.1272" y="-126.8904" font-family="Helvetica,sans-Serif" font-size="10.00" fill="#000000">16</text>
</a>
</g>
</g>
<!-- dir_37c90836491b695b472bf98d1be8336b&#45;&gt;dir_2171f7ec022c5423887b07c69b2f5b48 -->
<g id="edge11" class="edge">
<title>dir_37c90836491b695b472bf98d1be8336b&#45;&gt;dir_2171f7ec022c5423887b07c69b2f5b48</title>
<path fill="none" stroke="#000000" d="M233.3529,-36.4133C226.4271,-44.9938 217.2537,-55.3414 208.3693,-64.6463"/>
<polygon fill="#000000" stroke="#000000" points="205.836,-62.2309 201.3546,-71.8314 210.8448,-67.1209 205.836,-62.2309"/>
<g id="a_edge11&#45;headlabel"><a xlink:href="dir_000300_000089.html" target="_top" xlink:title="15">
<text text-anchor="middle" x="206.3154" y="-55.1754" font-family="Helvetica,sans-Serif" font-size="10.00" fill="#000000">15</text>
</a>
</g>
</g>
<!-- dir_9f065a6c27ad05d142739bd8f4136180&#45;&gt;dir_4ab6b4cc6a7edbff49100e9123df213f -->
<g id="edge12" class="edge">
<title>dir_9f065a6c27ad05d142739bd8f4136180&#45;&gt;dir_4ab6b4cc6a7edbff49100e9123df213f</title>
<path fill="none" stroke="#000000" d="M100.7747,-36.0322C107.1924,-54.7841 118.579,-84.6124 133,-108 138.9759,-117.6916 146.6351,-127.4261 153.9823,-135.9084"/>
<polygon fill="#000000" stroke="#000000" points="151.5938,-138.4884 160.8658,-143.615 156.8145,-133.8253 151.5938,-138.4884"/>
<g id="a_edge12&#45;headlabel"><a xlink:href="dir_000221_000035.html" target="_top" xlink:title="3">
<text text-anchor="middle" x="147.0817" y="-135.1989" font-family="Helvetica,sans-Serif" font-size="10.00" fill="#000000">3</text>
</a>
</g>
</g>
<!-- dir_9f065a6c27ad05d142739bd8f4136180&#45;&gt;dir_2171f7ec022c5423887b07c69b2f5b48 -->
<g id="edge13" class="edge">
<title>dir_9f065a6c27ad05d142739bd8f4136180&#45;&gt;dir_2171f7ec022c5423887b07c69b2f5b48</title>
<path fill="none" stroke="#000000" d="M122.1418,-36.1628C133.136,-44.8596 145.6227,-55.4149 156.1472,-64.8672"/>
<polygon fill="#000000" stroke="#000000" points="154.016,-67.6612 163.7556,-71.8314 158.7423,-62.4977 154.016,-67.6612"/>
<g id="a_edge13&#45;headlabel"><a xlink:href="dir_000221_000089.html" target="_top" xlink:title="1">
<text text-anchor="middle" x="149.4474" y="-64.8286" font-family="Helvetica,sans-Serif" font-size="10.00" fill="#000000">1</text>
</a>
</g>
</g>
<!-- dir_2171f7ec022c5423887b07c69b2f5b48&#45;&gt;dir_4ab6b4cc6a7edbff49100e9123df213f -->
<g id="edge19" class="edge">
<title>dir_2171f7ec022c5423887b07c69b2f5b48&#45;&gt;dir_4ab6b4cc6a7edbff49100e9123df213f</title>
<path fill="none" stroke="#000000" d="M184.976,-108.4133C185.7071,-116.0593 185.9203,-125.1084 185.6155,-133.5726"/>
<polygon fill="#000000" stroke="#000000" points="182.1048,-133.6264 184.9524,-143.8314 189.0902,-134.078 182.1048,-133.6264"/>
<g id="a_edge19&#45;headlabel"><a xlink:href="dir_000089_000035.html" target="_top" xlink:title="39">
<text text-anchor="middle" x="179.5032" y="-127.3562" font-family="Helvetica,sans-Serif" font-size="10.00" fill="#000000">39</text>
</a>
</g>
</g>
<!-- dir_2171f7ec022c5423887b07c69b2f5b48&#45;&gt;dir_37c90836491b695b472bf98d1be8336b -->
<g id="edge20" class="edge">
<title>dir_2171f7ec022c5423887b07c69b2f5b48&#45;&gt;dir_37c90836491b695b472bf98d1be8336b</title>
<path fill="none" stroke="#000000" d="M189.4499,-71.8314C196.3326,-63.2848 205.4872,-52.9443 214.3768,-43.6198"/>
<polygon fill="#000000" stroke="#000000" points="216.9275,-46.0174 221.4009,-36.4133 211.9146,-41.1315 216.9275,-46.0174"/>
<g id="a_edge20&#45;headlabel"><a xlink:href="dir_000089_000300.html" target="_top" xlink:title="1">
<text text-anchor="middle" x="216.4518" y="-48.0733" font-family="Helvetica,sans-Serif" font-size="10.00" fill="#000000">1</text>
</a>
</g>
</g>
<!-- dir_2171f7ec022c5423887b07c69b2f5b48&#45;&gt;dir_9f065a6c27ad05d142739bd8f4136180 -->
<g id="edge21" class="edge">
<title>dir_2171f7ec022c5423887b07c69b2f5b48&#45;&gt;dir_9f065a6c27ad05d142739bd8f4136180</title>
<path fill="none" stroke="#000000" d="M151.8509,-71.8314C140.856,-63.1337 128.3693,-52.5783 117.8457,-43.1265"/>
<polygon fill="#000000" stroke="#000000" points="119.9777,-40.3331 110.2381,-36.1628 115.2513,-45.4966 119.9777,-40.3331"/>
<g id="a_edge21&#45;headlabel"><a xlink:href="dir_000089_000221.html" target="_top" xlink:title="3">
<text text-anchor="middle" x="124.5463" y="-38.1659" font-family="Helvetica,sans-Serif" font-size="10.00" fill="#000000">3</text>
</a>
</g>
</g>
</g>
</svg>
