<?xml version="1.0" encoding="UTF-8" standalone="no"?>
<!DOCTYPE svg PUBLIC "-//W3C//DTD SVG 1.1//EN"
 "http://www.w3.org/Graphics/SVG/1.1/DTD/svg11.dtd">
<!-- Generated by graphviz version 2.40.1 (20161225.0304)
 -->
<!-- Title: /home/runner/work/AliceO2/AliceO2/Detectors/TOF/base/include/TOFBase Pages: 1 -->
<svg width="129pt" height="295pt"
 viewBox="0.00 0.00 129.00 295.00" xmlns="http://www.w3.org/2000/svg" xmlns:xlink="http://www.w3.org/1999/xlink">
<g id="graph0" class="graph" transform="scale(1 1) rotate(0) translate(4 291)">
<title>/home/runner/work/AliceO2/AliceO2/Detectors/TOF/base/include/TOFBase</title>
<g id="clust1" class="cluster">
<title>clusterdir_d753b02bfa7fb123a627ed157eb63f80</title>
<g id="a_clust1"><a xlink:href="dir_d753b02bfa7fb123a627ed157eb63f80.html" target="_top" xlink:title="include">
<polygon fill="#ddddee" stroke="#000000" points="37,-208 37,-279 113,-279 113,-208 37,-208"/>
<text text-anchor="middle" x="75" y="-267" font-family="Helvetica,sans-Serif" font-size="10.00" fill="#000000">include</text>
</a>
</g>
</g>
<!-- dir_4425eecdb0ee984ace8f5a958a65aa46 -->
<g id="node1" class="node">
<title>dir_4425eecdb0ee984ace8f5a958a65aa46</title>
<g id="a_node1"><a xlink:href="dir_4425eecdb0ee984ace8f5a958a65aa46.html" target="_top" xlink:title="TOFBase">
<polygon fill="#eeeeff" stroke="#000000" points="104.5,-252 45.5,-252 45.5,-216 104.5,-216 104.5,-252"/>
<text text-anchor="middle" x="75" y="-231.5" font-family="Helvetica,sans-Serif" font-size="10.00" fill="#000000">TOFBase</text>
</a>
</g>
</g>
<!-- dir_4ab6b4cc6a7edbff49100e9123df213f -->
<g id="node2" class="node">
<title>dir_4ab6b4cc6a7edbff49100e9123df213f</title>
<g id="a_node2"><a xlink:href="dir_4ab6b4cc6a7edbff49100e9123df213f.html" target="_top" xlink:title="Common">
<polygon fill="none" stroke="#ff0000" points="56,-108 0,-108 0,-72 56,-72 56,-108"/>
<text text-anchor="middle" x="28" y="-87.5" font-family="Helvetica,sans-Serif" font-size="10.00" fill="#000000">Common</text>
</a>
</g>
</g>
<!-- dir_4425eecdb0ee984ace8f5a958a65aa46&#45;&gt;dir_4ab6b4cc6a7edbff49100e9123df213f -->
<g id="edge2" class="edge">
<title>dir_4425eecdb0ee984ace8f5a958a65aa46&#45;&gt;dir_4ab6b4cc6a7edbff49100e9123df213f</title>
<path fill="none" stroke="#000000" d="M59.6607,-215.698C52.1755,-205.7582 43.7756,-192.8899 39,-180 31.6743,-160.2269 29.0033,-136.5041 28.1215,-118.3793"/>
<polygon fill="#000000" stroke="#000000" points="31.6124,-118.0436 27.7827,-108.1652 24.6163,-118.2758 31.6124,-118.0436"/>
<g id="a_edge2&#45;headlabel"><a xlink:href="dir_000156_000035.html" target="_top" xlink:title="2">
<text text-anchor="middle" x="34.5692" y="-119.0422" font-family="Helvetica,sans-Serif" font-size="10.00" fill="#000000">2</text>
</a>
</g>
</g>
<!-- dir_26637d1bd82229bc9ed97f7e706be743 -->
<g id="node3" class="node">
<title>dir_26637d1bd82229bc9ed97f7e706be743</title>
<g id="a_node3"><a xlink:href="dir_26637d1bd82229bc9ed97f7e706be743.html" target="_top" xlink:title="Raw">
<polygon fill="none" stroke="#ff0000" points="102,-180 48,-180 48,-144 102,-144 102,-180"/>
<text text-anchor="middle" x="75" y="-159.5" font-family="Helvetica,sans-Serif" font-size="10.00" fill="#000000">Raw</text>
</a>
</g>
</g>
<!-- dir_4425eecdb0ee984ace8f5a958a65aa46&#45;&gt;dir_26637d1bd82229bc9ed97f7e706be743 -->
<g id="edge3" class="edge">
<title>dir_4425eecdb0ee984ace8f5a958a65aa46&#45;&gt;dir_26637d1bd82229bc9ed97f7e706be743</title>
<path fill="none" stroke="#000000" d="M75,-215.8314C75,-208.131 75,-198.9743 75,-190.4166"/>
<polygon fill="#000000" stroke="#000000" points="78.5001,-190.4132 75,-180.4133 71.5001,-190.4133 78.5001,-190.4132"/>
<g id="a_edge3&#45;headlabel"><a xlink:href="dir_000156_000665.html" target="_top" xlink:title="2">
<text text-anchor="middle" x="81.3393" y="-191.5079" font-family="Helvetica,sans-Serif" font-size="10.00" fill="#000000">2</text>
</a>
</g>
</g>
<!-- dir_2171f7ec022c5423887b07c69b2f5b48 -->
<g id="node4" class="node">
<title>dir_2171f7ec022c5423887b07c69b2f5b48</title>
<g id="a_node4"><a xlink:href="dir_2171f7ec022c5423887b07c69b2f5b48.html" target="_top" xlink:title="DataFormats">
<polygon fill="none" stroke="#ff0000" points="93,-36 19,-36 19,0 93,0 93,-36"/>
<text text-anchor="middle" x="56" y="-15.5" font-family="Helvetica,sans-Serif" font-size="10.00" fill="#000000">DataFormats</text>
</a>
</g>
</g>
<!-- dir_4425eecdb0ee984ace8f5a958a65aa46&#45;&gt;dir_2171f7ec022c5423887b07c69b2f5b48 -->
<g id="edge4" class="edge">
<title>dir_4425eecdb0ee984ace8f5a958a65aa46&#45;&gt;dir_2171f7ec022c5423887b07c69b2f5b48</title>
<path fill="none" stroke="#000000" d="M90.9905,-215.9169C98.6538,-206.0371 107.0166,-193.1563 111,-180 115.6365,-164.6865 114.0445,-159.7077 111,-144 104.0329,-108.0546 85.6665,-69.9448 72.0641,-45.1717"/>
<polygon fill="#000000" stroke="#000000" points="75.0656,-43.3683 67.1177,-36.3624 68.9619,-46.7955 75.0656,-43.3683"/>
<g id="a_edge4&#45;headlabel"><a xlink:href="dir_000156_000089.html" target="_top" xlink:title="3">
<text text-anchor="middle" x="79.3011" y="-42.6126" font-family="Helvetica,sans-Serif" font-size="10.00" fill="#000000">3</text>
</a>
</g>
</g>
<!-- dir_4ab6b4cc6a7edbff49100e9123df213f&#45;&gt;dir_2171f7ec022c5423887b07c69b2f5b48 -->
<g id="edge1" class="edge">
<title>dir_4ab6b4cc6a7edbff49100e9123df213f&#45;&gt;dir_2171f7ec022c5423887b07c69b2f5b48</title>
<path fill="none" stroke="#000000" d="M29.1132,-71.8314C31.4313,-63.8771 34.9188,-54.369 38.6946,-45.5723"/>
<polygon fill="#000000" stroke="#000000" points="41.9062,-46.9648 42.8633,-36.4133 35.5351,-44.065 41.9062,-46.9648"/>
<g id="a_edge1&#45;headlabel"><a xlink:href="dir_000035_000089.html" target="_top" xlink:title="2">
<text text-anchor="middle" x="43.0014" y="-48.9126" font-family="Helvetica,sans-Serif" font-size="10.00" fill="#000000">2</text>
</a>
</g>
</g>
<!-- dir_26637d1bd82229bc9ed97f7e706be743&#45;&gt;dir_4ab6b4cc6a7edbff49100e9123df213f -->
<g id="edge5" class="edge">
<title>dir_26637d1bd82229bc9ed97f7e706be743&#45;&gt;dir_4ab6b4cc6a7edbff49100e9123df213f</title>
<path fill="none" stroke="#000000" d="M63.1399,-143.8314C57.8371,-135.7079 51.4763,-125.9637 45.6327,-117.0118"/>
<polygon fill="#000000" stroke="#000000" points="48.4169,-114.8739 40.0198,-108.4133 42.5552,-118.7003 48.4169,-114.8739"/>
<g id="a_edge5&#45;headlabel"><a xlink:href="dir_000665_000035.html" target="_top" xlink:title="10">
<text text-anchor="middle" x="52.7593" y="-113.8319" font-family="Helvetica,sans-Serif" font-size="10.00" fill="#000000">10</text>
</a>
</g>
</g>
<!-- dir_26637d1bd82229bc9ed97f7e706be743&#45;&gt;dir_2171f7ec022c5423887b07c69b2f5b48 -->
<g id="edge6" class="edge">
<title>dir_26637d1bd82229bc9ed97f7e706be743&#45;&gt;dir_2171f7ec022c5423887b07c69b2f5b48</title>
<path fill="none" stroke="#000000" d="M73.2609,-143.6921C71.4616,-125.4811 68.4362,-96.7593 65,-72 63.8425,-63.6597 62.4083,-54.6248 61.0275,-46.3749"/>
<polygon fill="#000000" stroke="#000000" points="64.467,-45.7235 59.3319,-36.4563 57.5671,-46.9031 64.467,-45.7235"/>
<g id="a_edge6&#45;headlabel"><a xlink:href="dir_000665_000089.html" target="_top" xlink:title="15">
<text text-anchor="middle" x="67.8713" y="-46.2883" font-family="Helvetica,sans-Serif" font-size="10.00" fill="#000000">15</text>
</a>
</g>
</g>
<!-- dir_2171f7ec022c5423887b07c69b2f5b48&#45;&gt;dir_4ab6b4cc6a7edbff49100e9123df213f -->
<g id="edge7" class="edge">
<title>dir_2171f7ec022c5423887b07c69b2f5b48&#45;&gt;dir_4ab6b4cc6a7edbff49100e9123df213f</title>
<path fill="none" stroke="#000000" d="M54.8153,-36.4133C52.4733,-44.3991 48.971,-53.9155 45.1894,-62.6975"/>
<polygon fill="#000000" stroke="#000000" points="41.9886,-61.2811 41.018,-71.8314 48.356,-64.1891 41.9886,-61.2811"/>
<g id="a_edge7&#45;headlabel"><a xlink:href="dir_000089_000035.html" target="_top" xlink:title="39">
<text text-anchor="middle" x="40.8992" y="-54.3318" font-family="Helvetica,sans-Serif" font-size="10.00" fill="#000000">39</text>
</a>
</g>
</g>
</g>
</svg>
