<?xml version="1.0" encoding="UTF-8" standalone="no"?>
<!DOCTYPE svg PUBLIC "-//W3C//DTD SVG 1.1//EN"
 "http://www.w3.org/Graphics/SVG/1.1/DTD/svg11.dtd">
<!-- Generated by graphviz version 2.40.1 (20161225.0304)
 -->
<!-- Title: Graphical Class Hierarchy Pages: 1 -->
<svg width="637pt" height="1346pt"
 viewBox="0.00 0.00 637.00 1345.50" xmlns="http://www.w3.org/2000/svg" xmlns:xlink="http://www.w3.org/1999/xlink">
<g id="graph0" class="graph" transform="scale(1 1) rotate(0) translate(4 1341.5)">
<title>Graphical Class Hierarchy</title>
<!-- Node2001 -->
<g id="node1" class="node">
<title>Node2001</title>
<polygon fill="none" stroke="#bfbfbf" points="0,-605 0,-624 62,-624 62,-605 0,-605"/>
<text text-anchor="middle" x="31" y="-612" font-family="Helvetica,sans-Serif" font-size="10.00" fill="#000000">false_type</text>
</g>
<!-- Node0 -->
<g id="node2" class="node">
<title>Node0</title>
<g id="a_node2"><a xlink:href="d3/de1/structo2_1_1framework_1_1has__root__dictionary.html" target="_top" xlink:title="o2::framework::has\l_root_dictionary\&lt; T\l::value_type \&gt;">
<polygon fill="none" stroke="#000000" points="134,-1267 134,-1308 235,-1308 235,-1267 134,-1267"/>
<text text-anchor="start" x="142" y="-1296" font-family="Helvetica,sans-Serif" font-size="10.00" fill="#000000">o2::framework::has</text>
<text text-anchor="start" x="142" y="-1285" font-family="Helvetica,sans-Serif" font-size="10.00" fill="#000000">_root_dictionary&lt; T</text>
<text text-anchor="middle" x="184.5" y="-1274" font-family="Helvetica,sans-Serif" font-size="10.00" fill="#000000">::value_type &gt;</text>
</a>
</g>
</g>
<!-- Node2001&#45;&gt;Node0 -->
<g id="edge1" class="edge">
<title>Node2001&#45;&gt;Node0</title>
<path fill="none" stroke="#191970" d="M32.2347,-634.1081C38.5555,-732.5404 68.1552,-1170.1399 98,-1222.5 108.6045,-1241.1046 126.9176,-1256.0292 143.9709,-1266.8619"/>
<polygon fill="#191970" stroke="#191970" points="35.7231,-633.8137 31.5948,-624.0563 28.7373,-634.2585 35.7231,-633.8137"/>
</g>
<!-- Node2004 -->
<g id="node4" class="node">
<title>Node2004</title>
<g id="a_node4"><a xlink:href="d5/dbf/structo2_1_1framework_1_1is__boost__serializable__base.html" target="_top" xlink:title="o2::framework::is_boost\l_serializable_base\&lt; Type,\l Archive \&gt;">
<polygon fill="none" stroke="#000000" points="119,-1172 119,-1213 250,-1213 250,-1172 119,-1172"/>
<text text-anchor="start" x="127" y="-1201" font-family="Helvetica,sans-Serif" font-size="10.00" fill="#000000">o2::framework::is_boost</text>
<text text-anchor="start" x="127" y="-1190" font-family="Helvetica,sans-Serif" font-size="10.00" fill="#000000">_serializable_base&lt; Type,</text>
<text text-anchor="middle" x="184.5" y="-1179" font-family="Helvetica,sans-Serif" font-size="10.00" fill="#000000"> Archive &gt;</text>
</a>
</g>
</g>
<!-- Node2001&#45;&gt;Node2004 -->
<g id="edge3" class="edge">
<title>Node2001&#45;&gt;Node2004</title>
<path fill="none" stroke="#191970" d="M32.1855,-634.0368C37.9686,-726.7198 64.312,-1119.3498 98,-1161.5 103.5775,-1168.4785 110.8539,-1173.8872 118.8192,-1178.0792"/>
<polygon fill="#191970" stroke="#191970" points="35.6788,-633.8179 31.5701,-624.0522 28.692,-634.2486 35.6788,-633.8179"/>
</g>
<!-- Node2008 -->
<g id="node8" class="node">
<title>Node2008</title>
<g id="a_node8"><a xlink:href="d5/dbf/structo2_1_1framework_1_1is__boost__serializable__base.html" target="_top" xlink:title="o2::framework::is_boost\l_serializable_base\&lt; Type,\l boost::archive::binary\l_oarchive \&gt;">
<polygon fill="none" stroke="#000000" points="119,-1100.5 119,-1152.5 250,-1152.5 250,-1100.5 119,-1100.5"/>
<text text-anchor="start" x="127" y="-1140.5" font-family="Helvetica,sans-Serif" font-size="10.00" fill="#000000">o2::framework::is_boost</text>
<text text-anchor="start" x="127" y="-1129.5" font-family="Helvetica,sans-Serif" font-size="10.00" fill="#000000">_serializable_base&lt; Type,</text>
<text text-anchor="start" x="127" y="-1118.5" font-family="Helvetica,sans-Serif" font-size="10.00" fill="#000000"> boost::archive::binary</text>
<text text-anchor="middle" x="184.5" y="-1107.5" font-family="Helvetica,sans-Serif" font-size="10.00" fill="#000000">_oarchive &gt;</text>
</a>
</g>
</g>
<!-- Node2001&#45;&gt;Node2008 -->
<g id="edge7" class="edge">
<title>Node2001&#45;&gt;Node2008</title>
<path fill="none" stroke="#191970" d="M31.2495,-634.5308C32.6352,-715.4686 41.5654,-1017.5029 98,-1090.5 103.5714,-1097.7065 110.8444,-1103.4828 118.8081,-1108.1097"/>
<polygon fill="#191970" stroke="#191970" points="34.7449,-634.1932 31.095,-624.247 27.7457,-634.2984 34.7449,-634.1932"/>
</g>
<!-- Node2011 -->
<g id="node11" class="node">
<title>Node2011</title>
<g id="a_node11"><a xlink:href="dc/d79/structis__const__str.html" target="_top" xlink:title="is_const_str\&lt; typename \&gt;">
<polygon fill="none" stroke="#000000" points="119,-1062 119,-1081 250,-1081 250,-1062 119,-1062"/>
<text text-anchor="middle" x="184.5" y="-1069" font-family="Helvetica,sans-Serif" font-size="10.00" fill="#000000">is_const_str&lt; typename &gt;</text>
</a>
</g>
</g>
<!-- Node2001&#45;&gt;Node2011 -->
<g id="edge10" class="edge">
<title>Node2001&#45;&gt;Node2011</title>
<path fill="none" stroke="#191970" d="M31.2003,-634.6171C32.3909,-712.0612 40.6548,-989.6787 98,-1051.5 103.7652,-1057.7152 111.0459,-1062.183 118.9247,-1065.3673"/>
<polygon fill="#191970" stroke="#191970" points="34.6964,-634.283 31.0672,-624.3292 27.697,-634.3737 34.6964,-634.283"/>
</g>
<!-- Node2012 -->
<g id="node12" class="node">
<title>Node2012</title>
<g id="a_node12"><a xlink:href="d4/df6/structnlohmann_1_1detail_1_1is__basic__json.html" target="_top" xlink:title="nlohmann::detail::is\l_basic_json\&lt; typename \&gt;">
<polygon fill="none" stroke="#000000" points="120,-1012.5 120,-1042.5 249,-1042.5 249,-1012.5 120,-1012.5"/>
<text text-anchor="start" x="128" y="-1030.5" font-family="Helvetica,sans-Serif" font-size="10.00" fill="#000000">nlohmann::detail::is</text>
<text text-anchor="middle" x="184.5" y="-1019.5" font-family="Helvetica,sans-Serif" font-size="10.00" fill="#000000">_basic_json&lt; typename &gt;</text>
</a>
</g>
</g>
<!-- Node2001&#45;&gt;Node2012 -->
<g id="edge11" class="edge">
<title>Node2001&#45;&gt;Node2012</title>
<path fill="none" stroke="#191970" d="M31.73,-634.5301C34.7351,-705.9964 48.4365,-947.1412 98,-1002.5 103.9434,-1009.1384 111.5285,-1014.06 119.7295,-1017.7002"/>
<polygon fill="#191970" stroke="#191970" points="35.2153,-634.0874 31.3232,-624.2334 28.2208,-634.3638 35.2153,-634.0874"/>
</g>
<!-- Node2013 -->
<g id="node13" class="node">
<title>Node2013</title>
<g id="a_node13"><a xlink:href="dd/d13/structnlohmann_1_1detail_1_1is__compatible__integer__type__impl.html" target="_top" xlink:title="nlohmann::detail::is\l_compatible_integer_type\l_impl\&lt; bool, typename, typename \&gt;">
<polygon fill="none" stroke="#000000" points="98,-952 98,-993 271,-993 271,-952 98,-952"/>
<text text-anchor="start" x="106" y="-981" font-family="Helvetica,sans-Serif" font-size="10.00" fill="#000000">nlohmann::detail::is</text>
<text text-anchor="start" x="106" y="-970" font-family="Helvetica,sans-Serif" font-size="10.00" fill="#000000">_compatible_integer_type</text>
<text text-anchor="middle" x="184.5" y="-959" font-family="Helvetica,sans-Serif" font-size="10.00" fill="#000000">_impl&lt; bool, typename, typename &gt;</text>
</a>
</g>
</g>
<!-- Node2001&#45;&gt;Node2013 -->
<g id="edge12" class="edge">
<title>Node2001&#45;&gt;Node2013</title>
<path fill="none" stroke="#191970" d="M32.5606,-634.5023C37.9062,-698.1774 57.4332,-894.72 98,-941.5 101.449,-945.4772 105.4461,-948.9442 109.7928,-951.9663"/>
<polygon fill="#191970" stroke="#191970" points="36.024,-633.9088 31.7256,-624.2251 29.047,-634.4757 36.024,-633.9088"/>
</g>
<!-- Node2014 -->
<g id="node14" class="node">
<title>Node2014</title>
<g id="a_node14"><a xlink:href="dc/da5/structnlohmann_1_1detail_1_1is__compatible__object__type__impl.html" target="_top" xlink:title="nlohmann::detail::is\l_compatible_object_type\l_impl\&lt; B, RealType, Compatible\lObjectType \&gt;">
<polygon fill="none" stroke="#000000" points="105,-880.5 105,-932.5 264,-932.5 264,-880.5 105,-880.5"/>
<text text-anchor="start" x="113" y="-920.5" font-family="Helvetica,sans-Serif" font-size="10.00" fill="#000000">nlohmann::detail::is</text>
<text text-anchor="start" x="113" y="-909.5" font-family="Helvetica,sans-Serif" font-size="10.00" fill="#000000">_compatible_object_type</text>
<text text-anchor="start" x="113" y="-898.5" font-family="Helvetica,sans-Serif" font-size="10.00" fill="#000000">_impl&lt; B, RealType, Compatible</text>
<text text-anchor="middle" x="184.5" y="-887.5" font-family="Helvetica,sans-Serif" font-size="10.00" fill="#000000">ObjectType &gt;</text>
</a>
</g>
</g>
<!-- Node2001&#45;&gt;Node2014 -->
<g id="edge13" class="edge">
<title>Node2001&#45;&gt;Node2014</title>
<path fill="none" stroke="#191970" d="M33.8524,-634.176C41.9612,-687.7153 66.6032,-834.4267 98,-870.5 101.2037,-874.1809 104.8444,-877.4934 108.7757,-880.4735"/>
<polygon fill="#191970" stroke="#191970" points="37.3077,-633.6161 32.3765,-624.2388 30.3836,-634.6445 37.3077,-633.6161"/>
</g>
<!-- Node2015 -->
<g id="node15" class="node">
<title>Node2015</title>
<g id="a_node15"><a xlink:href="d2/db3/structnlohmann_1_1detail_1_1is__complete__type.html" target="_top" xlink:title="nlohmann::detail::is\l_complete_type\&lt; T, typename \&gt;">
<polygon fill="none" stroke="#000000" points="105.5,-831.5 105.5,-861.5 263.5,-861.5 263.5,-831.5 105.5,-831.5"/>
<text text-anchor="start" x="113.5" y="-849.5" font-family="Helvetica,sans-Serif" font-size="10.00" fill="#000000">nlohmann::detail::is</text>
<text text-anchor="middle" x="184.5" y="-838.5" font-family="Helvetica,sans-Serif" font-size="10.00" fill="#000000">_complete_type&lt; T, typename &gt;</text>
</a>
</g>
</g>
<!-- Node2001&#45;&gt;Node2015 -->
<g id="edge14" class="edge">
<title>Node2001&#45;&gt;Node2015</title>
<path fill="none" stroke="#191970" d="M34.9166,-634.1637C44.525,-680.5402 70.4936,-794.8514 98,-821.5 101.9295,-825.307 106.4014,-828.5403 111.1939,-831.2856"/>
<polygon fill="#191970" stroke="#191970" points="38.3057,-633.2661 32.8818,-624.1649 31.4463,-634.662 38.3057,-633.2661"/>
</g>
<!-- Node2016 -->
<g id="node16" class="node">
<title>Node2016</title>
<g id="a_node16"><a xlink:href="dd/d82/structo2_1_1experimental_1_1histhelpers_1_1is__shared__ptr.html" target="_top" xlink:title="o2::experimental::histhelpers\l::is_shared_ptr\&lt; T \&gt;">
<polygon fill="none" stroke="#000000" points="113.5,-782.5 113.5,-812.5 255.5,-812.5 255.5,-782.5 113.5,-782.5"/>
<text text-anchor="start" x="121.5" y="-800.5" font-family="Helvetica,sans-Serif" font-size="10.00" fill="#000000">o2::experimental::histhelpers</text>
<text text-anchor="middle" x="184.5" y="-789.5" font-family="Helvetica,sans-Serif" font-size="10.00" fill="#000000">::is_shared_ptr&lt; T &gt;</text>
</a>
</g>
</g>
<!-- Node2001&#45;&gt;Node2016 -->
<g id="edge15" class="edge">
<title>Node2001&#45;&gt;Node2016</title>
<path fill="none" stroke="#191970" d="M33.8211,-634.2751C39.6433,-667.7075 56.1438,-735.377 98,-772.5 102.561,-776.5453 107.7399,-779.9382 113.2425,-782.7837"/>
<polygon fill="#191970" stroke="#191970" points="37.2683,-633.666 32.2348,-624.3432 30.3559,-634.7701 37.2683,-633.666"/>
</g>
<!-- Node2017 -->
<g id="node17" class="node">
<title>Node2017</title>
<g id="a_node17"><a xlink:href="da/d82/structo2_1_1framework_1_1always__static__assert.html" target="_top" xlink:title="o2::framework::always\l_static_assert\&lt; T \&gt;">
<polygon fill="none" stroke="#000000" points="126.5,-733.5 126.5,-763.5 242.5,-763.5 242.5,-733.5 126.5,-733.5"/>
<text text-anchor="start" x="134.5" y="-751.5" font-family="Helvetica,sans-Serif" font-size="10.00" fill="#000000">o2::framework::always</text>
<text text-anchor="middle" x="184.5" y="-740.5" font-family="Helvetica,sans-Serif" font-size="10.00" fill="#000000">_static_assert&lt; T &gt;</text>
</a>
</g>
</g>
<!-- Node2001&#45;&gt;Node2017 -->
<g id="edge16" class="edge">
<title>Node2001&#45;&gt;Node2017</title>
<path fill="none" stroke="#191970" d="M37.7157,-633.5893C47.2939,-658.0448 67.2043,-700.0646 98,-723.5 106.3345,-729.8426 116.2314,-734.5776 126.302,-738.1121"/>
<polygon fill="#191970" stroke="#191970" points="40.9144,-632.1498 34.1404,-624.0034 34.3557,-634.5961 40.9144,-632.1498"/>
</g>
<!-- Node2018 -->
<g id="node18" class="node">
<title>Node2018</title>
<g id="a_node18"><a xlink:href="dc/da1/structo2_1_1framework_1_1can__assign.html" target="_top" xlink:title="o2::framework::can\l_assign\&lt; From, To, _ \&gt;">
<polygon fill="none" stroke="#000000" points="125,-684.5 125,-714.5 244,-714.5 244,-684.5 125,-684.5"/>
<text text-anchor="start" x="133" y="-702.5" font-family="Helvetica,sans-Serif" font-size="10.00" fill="#000000">o2::framework::can</text>
<text text-anchor="middle" x="184.5" y="-691.5" font-family="Helvetica,sans-Serif" font-size="10.00" fill="#000000">_assign&lt; From, To, _ &gt;</text>
</a>
</g>
</g>
<!-- Node2001&#45;&gt;Node2018 -->
<g id="edge17" class="edge">
<title>Node2001&#45;&gt;Node2018</title>
<path fill="none" stroke="#191970" d="M46.071,-631.7094C58.7044,-645.1452 77.8659,-663.3474 98,-674.5 106.3413,-679.1204 115.6188,-682.9583 124.9127,-686.1244"/>
<polygon fill="#191970" stroke="#191970" points="48.4233,-629.0946 39.0982,-624.0653 43.2517,-633.8121 48.4233,-629.0946"/>
</g>
<!-- Node2019 -->
<g id="node19" class="node">
<title>Node2019</title>
<g id="a_node19"><a xlink:href="da/d77/structo2_1_1framework_1_1detail_1_1is__noarg__callable__t.html" target="_top" xlink:title="o2::framework::detail\l::is_noarg_callable_t\l\&lt; T, typename \&gt;">
<polygon fill="none" stroke="#000000" points="130.5,-624 130.5,-665 238.5,-665 238.5,-624 130.5,-624"/>
<text text-anchor="start" x="138.5" y="-653" font-family="Helvetica,sans-Serif" font-size="10.00" fill="#000000">o2::framework::detail</text>
<text text-anchor="start" x="138.5" y="-642" font-family="Helvetica,sans-Serif" font-size="10.00" fill="#000000">::is_noarg_callable_t</text>
<text text-anchor="middle" x="184.5" y="-631" font-family="Helvetica,sans-Serif" font-size="10.00" fill="#000000">&lt; T, typename &gt;</text>
</a>
</g>
</g>
<!-- Node2001&#45;&gt;Node2019 -->
<g id="edge18" class="edge">
<title>Node2001&#45;&gt;Node2019</title>
<path fill="none" stroke="#191970" d="M71.9355,-622.5004C89.9023,-626.0119 111.2444,-630.1829 130.4896,-633.9442"/>
<polygon fill="#191970" stroke="#191970" points="72.5487,-619.0541 62.063,-620.5709 71.206,-625.9241 72.5487,-619.0541"/>
</g>
<!-- Node2020 -->
<g id="node20" class="node">
<title>Node2020</title>
<g id="a_node20"><a xlink:href="d7/df3/structo2_1_1framework_1_1has__messageable__value__type.html" target="_top" xlink:title="o2::framework::has\l_messageable_value_type\l\&lt; T, _ \&gt;">
<polygon fill="none" stroke="#000000" points="118.5,-564 118.5,-605 250.5,-605 250.5,-564 118.5,-564"/>
<text text-anchor="start" x="126.5" y="-593" font-family="Helvetica,sans-Serif" font-size="10.00" fill="#000000">o2::framework::has</text>
<text text-anchor="start" x="126.5" y="-582" font-family="Helvetica,sans-Serif" font-size="10.00" fill="#000000">_messageable_value_type</text>
<text text-anchor="middle" x="184.5" y="-571" font-family="Helvetica,sans-Serif" font-size="10.00" fill="#000000">&lt; T, _ &gt;</text>
</a>
</g>
</g>
<!-- Node2001&#45;&gt;Node2020 -->
<g id="edge19" class="edge">
<title>Node2001&#45;&gt;Node2020</title>
<path fill="none" stroke="#191970" d="M72.0094,-606.4851C86.2342,-603.705 102.5679,-600.5128 118.2989,-597.4383"/>
<polygon fill="#191970" stroke="#191970" points="71.206,-603.0759 62.063,-608.4291 72.5487,-609.9459 71.206,-603.0759"/>
</g>
<!-- Node2021 -->
<g id="node21" class="node">
<title>Node2021</title>
<g id="a_node21"><a xlink:href="d3/de1/structo2_1_1framework_1_1has__root__dictionary.html" target="_top" xlink:title="o2::framework::has\l_root_dictionary\&lt; T, _ \&gt;">
<polygon fill="none" stroke="#000000" points="124,-514.5 124,-544.5 245,-544.5 245,-514.5 124,-514.5"/>
<text text-anchor="start" x="132" y="-532.5" font-family="Helvetica,sans-Serif" font-size="10.00" fill="#000000">o2::framework::has</text>
<text text-anchor="middle" x="184.5" y="-521.5" font-family="Helvetica,sans-Serif" font-size="10.00" fill="#000000">_root_dictionary&lt; T, _ &gt;</text>
</a>
</g>
</g>
<!-- Node2001&#45;&gt;Node2021 -->
<g id="edge20" class="edge">
<title>Node2001&#45;&gt;Node2021</title>
<path fill="none" stroke="#191970" d="M46.071,-597.2906C58.7044,-583.8548 77.8659,-565.6526 98,-554.5 106.0679,-550.0311 115.0115,-546.2942 123.9986,-543.1892"/>
<polygon fill="#191970" stroke="#191970" points="43.2517,-595.1879 39.0982,-604.9347 48.4233,-599.9054 43.2517,-595.1879"/>
</g>
<!-- Node2022 -->
<g id="node22" class="node">
<title>Node2022</title>
<g id="a_node22"><a xlink:href="d5/df9/structo2_1_1framework_1_1has__root__setowner.html" target="_top" xlink:title="o2::framework::has\l_root_setowner\&lt; T, _ \&gt;">
<polygon fill="none" stroke="#000000" points="125,-465.5 125,-495.5 244,-495.5 244,-465.5 125,-465.5"/>
<text text-anchor="start" x="133" y="-483.5" font-family="Helvetica,sans-Serif" font-size="10.00" fill="#000000">o2::framework::has</text>
<text text-anchor="middle" x="184.5" y="-472.5" font-family="Helvetica,sans-Serif" font-size="10.00" fill="#000000">_root_setowner&lt; T, _ &gt;</text>
</a>
</g>
</g>
<!-- Node2001&#45;&gt;Node2022 -->
<g id="edge21" class="edge">
<title>Node2001&#45;&gt;Node2022</title>
<path fill="none" stroke="#191970" d="M37.6289,-595.1861C47.1129,-570.4524 66.9209,-527.9887 98,-504.5 105.9573,-498.4861 115.3421,-493.9792 124.9435,-490.6016"/>
<polygon fill="#191970" stroke="#191970" points="34.2307,-594.2888 34.0937,-604.8827 40.8073,-596.6865 34.2307,-594.2888"/>
</g>
<!-- Node2023 -->
<g id="node23" class="node">
<title>Node2023</title>
<g id="a_node23"><a xlink:href="d5/dbf/structo2_1_1framework_1_1is__boost__serializable__base.html" target="_top" xlink:title="o2::framework::is_boost\l_serializable_base\&lt; Type,\l Archive, typename \&gt;">
<polygon fill="none" stroke="#000000" points="119,-405 119,-446 250,-446 250,-405 119,-405"/>
<text text-anchor="start" x="127" y="-434" font-family="Helvetica,sans-Serif" font-size="10.00" fill="#000000">o2::framework::is_boost</text>
<text text-anchor="start" x="127" y="-423" font-family="Helvetica,sans-Serif" font-size="10.00" fill="#000000">_serializable_base&lt; Type,</text>
<text text-anchor="middle" x="184.5" y="-412" font-family="Helvetica,sans-Serif" font-size="10.00" fill="#000000"> Archive, typename &gt;</text>
</a>
</g>
</g>
<!-- Node2001&#45;&gt;Node2023 -->
<g id="edge22" class="edge">
<title>Node2001&#45;&gt;Node2023</title>
<path fill="none" stroke="#191970" d="M33.9943,-594.8346C40.0765,-561.5432 56.9565,-493.9601 98,-455.5 104.0312,-449.8484 111.1812,-445.255 118.7466,-441.523"/>
<polygon fill="#191970" stroke="#191970" points="30.5393,-594.2755 32.3263,-604.7185 37.4417,-595.4404 30.5393,-594.2755"/>
</g>
<!-- Node2024 -->
<g id="node24" class="node">
<title>Node2024</title>
<g id="a_node24"><a xlink:href="d5/dc1/structo2_1_1framework_1_1is__bounded__array.html" target="_top" xlink:title="o2::framework::is_bounded\l_array\&lt; T \&gt;">
<polygon fill="none" stroke="#000000" points="117.5,-355.5 117.5,-385.5 251.5,-385.5 251.5,-355.5 117.5,-355.5"/>
<text text-anchor="start" x="125.5" y="-373.5" font-family="Helvetica,sans-Serif" font-size="10.00" fill="#000000">o2::framework::is_bounded</text>
<text text-anchor="middle" x="184.5" y="-362.5" font-family="Helvetica,sans-Serif" font-size="10.00" fill="#000000">_array&lt; T &gt;</text>
</a>
</g>
</g>
<!-- Node2001&#45;&gt;Node2024 -->
<g id="edge23" class="edge">
<title>Node2001&#45;&gt;Node2024</title>
<path fill="none" stroke="#191970" d="M34.575,-594.681C43.6805,-546.2878 69.0818,-423.9722 98,-395.5 103.5695,-390.0164 110.2632,-385.7211 117.4294,-382.3592"/>
<polygon fill="#191970" stroke="#191970" points="31.0791,-594.339 32.7059,-604.8082 37.9628,-595.6096 31.0791,-594.339"/>
</g>
<!-- Node2025 -->
<g id="node25" class="node">
<title>Node2025</title>
<g id="a_node25"><a xlink:href="dc/d9b/structo2_1_1framework_1_1is__container.html" target="_top" xlink:title="o2::framework::is_container\l\&lt; T, _ \&gt;">
<polygon fill="none" stroke="#000000" points="116,-306.5 116,-336.5 253,-336.5 253,-306.5 116,-306.5"/>
<text text-anchor="start" x="124" y="-324.5" font-family="Helvetica,sans-Serif" font-size="10.00" fill="#000000">o2::framework::is_container</text>
<text text-anchor="middle" x="184.5" y="-313.5" font-family="Helvetica,sans-Serif" font-size="10.00" fill="#000000">&lt; T, _ &gt;</text>
</a>
</g>
</g>
<!-- Node2001&#45;&gt;Node2025 -->
<g id="edge24" class="edge">
<title>Node2001&#45;&gt;Node2025</title>
<path fill="none" stroke="#191970" d="M33.341,-594.7236C40.3386,-538.8674 62.8175,-381.629 98,-345.5 103.1102,-340.2523 109.2597,-336.1225 115.8945,-332.8771"/>
<polygon fill="#191970" stroke="#191970" points="29.8545,-594.401 32.1161,-604.7516 36.8028,-595.2498 29.8545,-594.401"/>
</g>
<!-- Node2026 -->
<g id="node26" class="node">
<title>Node2026</title>
<g id="a_node26"><a xlink:href="da/dee/structo2_1_1framework_1_1is__forced__non__messageable.html" target="_top" xlink:title="o2::framework::is_forced\l_non_messageable\&lt; T, _ \&gt;">
<polygon fill="none" stroke="#000000" points="116.5,-257.5 116.5,-287.5 252.5,-287.5 252.5,-257.5 116.5,-257.5"/>
<text text-anchor="start" x="124.5" y="-275.5" font-family="Helvetica,sans-Serif" font-size="10.00" fill="#000000">o2::framework::is_forced</text>
<text text-anchor="middle" x="184.5" y="-264.5" font-family="Helvetica,sans-Serif" font-size="10.00" fill="#000000">_non_messageable&lt; T, _ &gt;</text>
</a>
</g>
</g>
<!-- Node2001&#45;&gt;Node2026 -->
<g id="edge25" class="edge">
<title>Node2001&#45;&gt;Node2026</title>
<path fill="none" stroke="#191970" d="M32.5035,-594.9218C37.6757,-532.6156 56.7357,-340.4492 98,-296.5 103.1204,-291.0464 109.3617,-286.7942 116.1235,-283.4845"/>
<polygon fill="#191970" stroke="#191970" points="29.0076,-594.7317 31.6971,-604.9795 35.9852,-595.2912 29.0076,-594.7317"/>
</g>
<!-- Node2027 -->
<g id="node27" class="node">
<title>Node2027</title>
<g id="a_node27"><a xlink:href="dd/dca/structo2_1_1framework_1_1is__messageable_3_01gsl_1_1span_3_01T_01_4_01_4.html" target="_top" xlink:title="o2::framework::is_messageable\l\&lt; gsl::span\&lt; T \&gt; \&gt;">
<polygon fill="none" stroke="#000000" points="107,-208.5 107,-238.5 262,-238.5 262,-208.5 107,-208.5"/>
<text text-anchor="start" x="115" y="-226.5" font-family="Helvetica,sans-Serif" font-size="10.00" fill="#000000">o2::framework::is_messageable</text>
<text text-anchor="middle" x="184.5" y="-215.5" font-family="Helvetica,sans-Serif" font-size="10.00" fill="#000000">&lt; gsl::span&lt; T &gt; &gt;</text>
</a>
</g>
</g>
<!-- Node2001&#45;&gt;Node2027 -->
<g id="edge26" class="edge">
<title>Node2001&#45;&gt;Node2027</title>
<path fill="none" stroke="#191970" d="M31.9164,-594.6586C35.4893,-525.9067 50.711,-299.2527 98,-247.5 101.1538,-244.0485 104.7563,-241.0764 108.6591,-238.5186"/>
<polygon fill="#191970" stroke="#191970" points="28.4062,-594.7806 31.4093,-604.9409 35.3977,-595.1255 28.4062,-594.7806"/>
</g>
<!-- Node2028 -->
<g id="node28" class="node">
<title>Node2028</title>
<g id="a_node28"><a xlink:href="d2/d79/structo2_1_1framework_1_1is__span.html" target="_top" xlink:title="o2::framework::is_span\l\&lt; T, _ \&gt;">
<polygon fill="none" stroke="#000000" points="125,-159.5 125,-189.5 244,-189.5 244,-159.5 125,-159.5"/>
<text text-anchor="start" x="133" y="-177.5" font-family="Helvetica,sans-Serif" font-size="10.00" fill="#000000">o2::framework::is_span</text>
<text text-anchor="middle" x="184.5" y="-166.5" font-family="Helvetica,sans-Serif" font-size="10.00" fill="#000000">&lt; T, _ &gt;</text>
</a>
</g>
</g>
<!-- Node2001&#45;&gt;Node2028 -->
<g id="edge27" class="edge">
<title>Node2001&#45;&gt;Node2028</title>
<path fill="none" stroke="#191970" d="M31.4528,-594.4733C33.5487,-519.7049 44.6371,-258.1388 98,-198.5 105.1705,-190.4862 114.7596,-185.0488 124.9426,-181.3812"/>
<polygon fill="#191970" stroke="#191970" points="27.9453,-594.7236 31.1885,-604.8098 34.943,-594.9025 27.9453,-594.7236"/>
</g>
<!-- Node2029 -->
<g id="node29" class="node">
<title>Node2029</title>
<g id="a_node29"><a xlink:href="d8/d85/structo2_1_1framework_1_1is__specialization.html" target="_top" xlink:title="o2::framework::is_specialization\l\&lt; T, Ref \&gt;">
<polygon fill="none" stroke="#000000" points="106,-110.5 106,-140.5 263,-140.5 263,-110.5 106,-110.5"/>
<text text-anchor="start" x="114" y="-128.5" font-family="Helvetica,sans-Serif" font-size="10.00" fill="#000000">o2::framework::is_specialization</text>
<text text-anchor="middle" x="184.5" y="-117.5" font-family="Helvetica,sans-Serif" font-size="10.00" fill="#000000">&lt; T, Ref &gt;</text>
</a>
</g>
</g>
<!-- Node2001&#45;&gt;Node2029 -->
<g id="edge28" class="edge">
<title>Node2001&#45;&gt;Node2029</title>
<path fill="none" stroke="#191970" d="M32.5777,-594.7426C39.477,-510.4425 67.9937,-183.6002 98,-149.5 100.9856,-146.107 104.4049,-143.1748 108.1211,-140.6424"/>
<polygon fill="#191970" stroke="#191970" points="29.0837,-594.528 31.7652,-604.7779 36.0609,-595.0929 29.0837,-594.528"/>
</g>
<!-- Node2030 -->
<g id="node30" class="node">
<title>Node2030</title>
<g id="a_node30"><a xlink:href="d3/dd8/structo2_1_1framework_1_1MakeRootTreeWriterSpec_1_1StringAssignable.html" target="_top" xlink:title="helper for the constructor selection below ">
<polygon fill="none" stroke="#000000" points="110,-50 110,-91 259,-91 259,-50 110,-50"/>
<text text-anchor="start" x="118" y="-79" font-family="Helvetica,sans-Serif" font-size="10.00" fill="#000000">o2::framework::MakeRootTree</text>
<text text-anchor="start" x="118" y="-68" font-family="Helvetica,sans-Serif" font-size="10.00" fill="#000000">WriterSpec::StringAssignable</text>
<text text-anchor="middle" x="184.5" y="-57" font-family="Helvetica,sans-Serif" font-size="10.00" fill="#000000">&lt; T, _ &gt;</text>
</a>
</g>
</g>
<!-- Node2001&#45;&gt;Node2030 -->
<g id="edge29" class="edge">
<title>Node2001&#45;&gt;Node2030</title>
<path fill="none" stroke="#191970" d="M32.3727,-594.4561C38.7064,-504.3671 66.1586,-139.6117 98,-100.5 101.412,-96.309 105.4434,-92.702 109.8696,-89.5979"/>
<polygon fill="#191970" stroke="#191970" points="28.8648,-594.4503 31.663,-604.6689 35.8479,-594.9356 28.8648,-594.4503"/>
</g>
<!-- Node2031 -->
<g id="node31" class="node">
<title>Node2031</title>
<g id="a_node31"><a xlink:href="d9/d11/structo2_1_1soa_1_1is__index.html" target="_top" xlink:title="o2::soa::is_index\&lt;\l T, Ref \&gt;">
<polygon fill="none" stroke="#000000" points="136,-.5 136,-30.5 233,-30.5 233,-.5 136,-.5"/>
<text text-anchor="start" x="144" y="-18.5" font-family="Helvetica,sans-Serif" font-size="10.00" fill="#000000">o2::soa::is_index&lt;</text>
<text text-anchor="middle" x="184.5" y="-7.5" font-family="Helvetica,sans-Serif" font-size="10.00" fill="#000000"> T, Ref &gt;</text>
</a>
</g>
</g>
<!-- Node2001&#45;&gt;Node2031 -->
<g id="edge30" class="edge">
<title>Node2001&#45;&gt;Node2031</title>
<path fill="none" stroke="#191970" d="M32.0146,-594.865C37.1311,-499.092 61.3108,-83.8102 98,-40.5 107.4979,-29.2881 121.6832,-22.9393 135.8332,-19.3939"/>
<polygon fill="#191970" stroke="#191970" points="28.5162,-594.744 31.4856,-604.9142 35.5066,-595.1121 28.5162,-594.744"/>
</g>
<!-- Node1 -->
<g id="node3" class="node">
<title>Node1</title>
<g id="a_node3"><a xlink:href="d5/d6d/classo2_1_1framework_1_1has__root__dictionary_3_01T_00_01typename_01std_1_1enable__if_3_01is__co3a14f09bcf42c805e484bfdd1c1dadfb.html" target="_top" xlink:title="o2::framework::has\l_root_dictionary\&lt; T,\l typename std::enable\l_if\&lt; is_container\&lt; T \&gt;\l::value \&gt;::type \&gt;">
<polygon fill="none" stroke="#000000" points="322,-1274 322,-1337 435,-1337 435,-1274 322,-1274"/>
<text text-anchor="start" x="330" y="-1325" font-family="Helvetica,sans-Serif" font-size="10.00" fill="#000000">o2::framework::has</text>
<text text-anchor="start" x="330" y="-1314" font-family="Helvetica,sans-Serif" font-size="10.00" fill="#000000">_root_dictionary&lt; T,</text>
<text text-anchor="start" x="330" y="-1303" font-family="Helvetica,sans-Serif" font-size="10.00" fill="#000000"> typename std::enable</text>
<text text-anchor="start" x="330" y="-1292" font-family="Helvetica,sans-Serif" font-size="10.00" fill="#000000">_if&lt; is_container&lt; T &gt;</text>
<text text-anchor="middle" x="378.5" y="-1281" font-family="Helvetica,sans-Serif" font-size="10.00" fill="#000000">::value &gt;::type &gt;</text>
</a>
</g>
</g>
<!-- Node0&#45;&gt;Node1 -->
<g id="edge2" class="edge">
<title>Node0&#45;&gt;Node1</title>
<path fill="none" stroke="#191970" d="M245.4578,-1293.1559C269.9118,-1295.4248 297.9286,-1298.0243 321.9253,-1300.2508"/>
<polygon fill="#191970" stroke="#191970" points="245.4984,-1289.6447 235.2178,-1292.2058 244.8517,-1296.6148 245.4984,-1289.6447"/>
</g>
<!-- Node2005 -->
<g id="node5" class="node">
<title>Node2005</title>
<g id="a_node5"><a xlink:href="d2/d70/structo2_1_1framework_1_1is__boost__serializable.html" target="_top" xlink:title="o2::framework::is_boost\l_serializable\&lt; Type::value\l_type, Archive \&gt;">
<polygon fill="none" stroke="#000000" points="313,-1214 313,-1255 444,-1255 444,-1214 313,-1214"/>
<text text-anchor="start" x="321" y="-1243" font-family="Helvetica,sans-Serif" font-size="10.00" fill="#000000">o2::framework::is_boost</text>
<text text-anchor="start" x="321" y="-1232" font-family="Helvetica,sans-Serif" font-size="10.00" fill="#000000">_serializable&lt; Type::value</text>
<text text-anchor="middle" x="378.5" y="-1221" font-family="Helvetica,sans-Serif" font-size="10.00" fill="#000000">_type, Archive &gt;</text>
</a>
</g>
</g>
<!-- Node2004&#45;&gt;Node2005 -->
<g id="edge4" class="edge">
<title>Node2004&#45;&gt;Node2005</title>
<path fill="none" stroke="#191970" d="M260.2809,-1208.9062C277.655,-1212.6676 295.9843,-1216.6358 312.8881,-1220.2954"/>
<polygon fill="#191970" stroke="#191970" points="260.6937,-1205.4145 250.1796,-1206.7193 259.2125,-1212.256 260.6937,-1205.4145"/>
</g>
<!-- Node2007 -->
<g id="node7" class="node">
<title>Node2007</title>
<g id="a_node7"><a xlink:href="d2/d70/structo2_1_1framework_1_1is__boost__serializable.html" target="_top" xlink:title="o2::framework::is_boost\l_serializable\&lt; Type, Archive,\l typename \&gt;">
<polygon fill="none" stroke="#000000" points="307,-1154 307,-1195 450,-1195 450,-1154 307,-1154"/>
<text text-anchor="start" x="315" y="-1183" font-family="Helvetica,sans-Serif" font-size="10.00" fill="#000000">o2::framework::is_boost</text>
<text text-anchor="start" x="315" y="-1172" font-family="Helvetica,sans-Serif" font-size="10.00" fill="#000000">_serializable&lt; Type, Archive,</text>
<text text-anchor="middle" x="378.5" y="-1161" font-family="Helvetica,sans-Serif" font-size="10.00" fill="#000000"> typename &gt;</text>
</a>
</g>
</g>
<!-- Node2004&#45;&gt;Node2007 -->
<g id="edge6" class="edge">
<title>Node2004&#45;&gt;Node2007</title>
<path fill="none" stroke="#191970" d="M260.1591,-1185.4801C275.5367,-1184.0533 291.6672,-1182.5567 306.8988,-1181.1434"/>
<polygon fill="#191970" stroke="#191970" points="259.8134,-1181.997 250.1796,-1186.406 260.4602,-1188.9671 259.8134,-1181.997"/>
</g>
<!-- Node2006 -->
<g id="node6" class="node">
<title>Node2006</title>
<g id="a_node6"><a xlink:href="d8/ddd/structo2_1_1framework_1_1is__boost__serializable_3_01Type_00_01Archive_00_01std_1_1void__t_3_01t52f9ef0f32611a33ca82db27a4fb33ed.html" target="_top" xlink:title="o2::framework::is_boost\l_serializable\&lt; Type, Archive,\l std::void_t\&lt; typename Type\l::value_type \&gt; \&gt;">
<polygon fill="none" stroke="#000000" points="486,-1208.5 486,-1260.5 629,-1260.5 629,-1208.5 486,-1208.5"/>
<text text-anchor="start" x="494" y="-1248.5" font-family="Helvetica,sans-Serif" font-size="10.00" fill="#000000">o2::framework::is_boost</text>
<text text-anchor="start" x="494" y="-1237.5" font-family="Helvetica,sans-Serif" font-size="10.00" fill="#000000">_serializable&lt; Type, Archive,</text>
<text text-anchor="start" x="494" y="-1226.5" font-family="Helvetica,sans-Serif" font-size="10.00" fill="#000000"> std::void_t&lt; typename Type</text>
<text text-anchor="middle" x="557.5" y="-1215.5" font-family="Helvetica,sans-Serif" font-size="10.00" fill="#000000">::value_type &gt; &gt;</text>
</a>
</g>
</g>
<!-- Node2005&#45;&gt;Node2006 -->
<g id="edge5" class="edge">
<title>Node2005&#45;&gt;Node2006</title>
<path fill="none" stroke="#191970" d="M454.4405,-1234.5C464.8494,-1234.5 475.5089,-1234.5 485.8379,-1234.5"/>
<polygon fill="#191970" stroke="#191970" points="454.1366,-1231.0001 444.1366,-1234.5 454.1365,-1238.0001 454.1366,-1231.0001"/>
</g>
<!-- Node2009 -->
<g id="node9" class="node">
<title>Node2009</title>
<g id="a_node9"><a xlink:href="d2/d70/structo2_1_1framework_1_1is__boost__serializable.html" target="_top" xlink:title="o2::framework::is_boost\l_serializable\&lt; Type::value\l_type, boost::archive::binary\l_oarchive \&gt;">
<polygon fill="none" stroke="#000000" points="308.5,-1082.5 308.5,-1134.5 448.5,-1134.5 448.5,-1082.5 308.5,-1082.5"/>
<text text-anchor="start" x="316.5" y="-1122.5" font-family="Helvetica,sans-Serif" font-size="10.00" fill="#000000">o2::framework::is_boost</text>
<text text-anchor="start" x="316.5" y="-1111.5" font-family="Helvetica,sans-Serif" font-size="10.00" fill="#000000">_serializable&lt; Type::value</text>
<text text-anchor="start" x="316.5" y="-1100.5" font-family="Helvetica,sans-Serif" font-size="10.00" fill="#000000">_type, boost::archive::binary</text>
<text text-anchor="middle" x="378.5" y="-1089.5" font-family="Helvetica,sans-Serif" font-size="10.00" fill="#000000">_oarchive &gt;</text>
</a>
</g>
</g>
<!-- Node2008&#45;&gt;Node2009 -->
<g id="edge8" class="edge">
<title>Node2008&#45;&gt;Node2009</title>
<path fill="none" stroke="#191970" d="M260.4027,-1119.4575C276.1589,-1117.9956 292.6956,-1116.4612 308.2387,-1115.0191"/>
<polygon fill="#191970" stroke="#191970" points="259.8134,-1115.997 250.1796,-1120.406 260.4602,-1122.9671 259.8134,-1115.997"/>
</g>
<!-- Node2010 -->
<g id="node10" class="node">
<title>Node2010</title>
<g id="a_node10"><a xlink:href="da/d5c/structo2_1_1framework_1_1is__boost__serializable_3_01Type_00_01boost_1_1archive_1_1binary__oarchf8a18e484fa159a1d92458bf9fe69b23.html" target="_top" xlink:title="o2::framework::is_boost\l_serializable\&lt; Type, boost\l::archive::binary_oarchive,\l std::void_t\&lt; typename Type\l::value_type \&gt; \&gt;">
<polygon fill="none" stroke="#000000" points="486.5,-1077 486.5,-1140 628.5,-1140 628.5,-1077 486.5,-1077"/>
<text text-anchor="start" x="494.5" y="-1128" font-family="Helvetica,sans-Serif" font-size="10.00" fill="#000000">o2::framework::is_boost</text>
<text text-anchor="start" x="494.5" y="-1117" font-family="Helvetica,sans-Serif" font-size="10.00" fill="#000000">_serializable&lt; Type, boost</text>
<text text-anchor="start" x="494.5" y="-1106" font-family="Helvetica,sans-Serif" font-size="10.00" fill="#000000">::archive::binary_oarchive,</text>
<text text-anchor="start" x="494.5" y="-1095" font-family="Helvetica,sans-Serif" font-size="10.00" fill="#000000"> std::void_t&lt; typename Type</text>
<text text-anchor="middle" x="557.5" y="-1084" font-family="Helvetica,sans-Serif" font-size="10.00" fill="#000000">::value_type &gt; &gt;</text>
</a>
</g>
</g>
<!-- Node2009&#45;&gt;Node2010 -->
<g id="edge9" class="edge">
<title>Node2009&#45;&gt;Node2010</title>
<path fill="none" stroke="#191970" d="M458.95,-1108.5C468.0661,-1108.5 477.3088,-1108.5 486.2944,-1108.5"/>
<polygon fill="#191970" stroke="#191970" points="458.7318,-1105.0001 448.7318,-1108.5 458.7318,-1112.0001 458.7318,-1105.0001"/>
</g>
</g>
</svg>
