<?xml version="1.0" encoding="UTF-8" standalone="no"?>
<!DOCTYPE svg PUBLIC "-//W3C//DTD SVG 1.1//EN"
 "http://www.w3.org/Graphics/SVG/1.1/DTD/svg11.dtd">
<!-- Generated by graphviz version 2.40.1 (20161225.0304)
 -->
<!-- Title: Graphical Class Hierarchy Pages: 1 -->
<svg width="311pt" height="218pt"
 viewBox="0.00 0.00 311.00 218.00" xmlns="http://www.w3.org/2000/svg" xmlns:xlink="http://www.w3.org/1999/xlink">
<g id="graph0" class="graph" transform="scale(1 1) rotate(0) translate(4 214)">
<title>Graphical Class Hierarchy</title>
<!-- Node3238 -->
<g id="node1" class="node">
<title>Node3238</title>
<g id="a_node1"><a xlink:href="d9/d9e/classAliHLTProcessor.html" target="_top" xlink:title="AliHLTProcessor">
<polygon fill="none" stroke="#000000" points="0,-95.5 0,-114.5 91,-114.5 91,-95.5 0,-95.5"/>
<text text-anchor="middle" x="45.5" y="-102.5" font-family="Helvetica,sans-Serif" font-size="10.00" fill="#000000">AliHLTProcessor</text>
</a>
</g>
</g>
<!-- Node3239 -->
<g id="node2" class="node">
<title>Node3239</title>
<g id="a_node2"><a xlink:href="d9/d09/classAliHLTGPUDumpComponent.html" target="_top" xlink:title="AliHLTGPUDumpComponent">
<polygon fill="none" stroke="#000000" points="142.5,-152.5 142.5,-171.5 287.5,-171.5 287.5,-152.5 142.5,-152.5"/>
<text text-anchor="middle" x="215" y="-159.5" font-family="Helvetica,sans-Serif" font-size="10.00" fill="#000000">AliHLTGPUDumpComponent</text>
</a>
</g>
</g>
<!-- Node3238&#45;&gt;Node3239 -->
<g id="edge1" class="edge">
<title>Node3238&#45;&gt;Node3239</title>
<path fill="none" stroke="#191970" d="M72.2168,-119.3089C87.8339,-127.1989 108.129,-136.6527 127,-143 137.9626,-146.6873 149.9404,-149.8305 161.4306,-152.436"/>
<polygon fill="#191970" stroke="#191970" points="73.6448,-116.1075 63.152,-114.6402 70.4396,-122.3306 73.6448,-116.1075"/>
</g>
<!-- Node1 -->
<g id="node3" class="node">
<title>Node1</title>
<g id="a_node3"><a xlink:href="db/dc1/classAliHLTTPCClusterStatComponent.html" target="_top" xlink:title="AliHLTTPCClusterStatComponent">
<polygon fill="none" stroke="#000000" points="131.5,-190.5 131.5,-209.5 298.5,-209.5 298.5,-190.5 131.5,-190.5"/>
<text text-anchor="middle" x="215" y="-197.5" font-family="Helvetica,sans-Serif" font-size="10.00" fill="#000000">AliHLTTPCClusterStatComponent</text>
</a>
</g>
</g>
<!-- Node3238&#45;&gt;Node1 -->
<g id="edge2" class="edge">
<title>Node3238&#45;&gt;Node1</title>
<path fill="none" stroke="#191970" d="M59.2804,-122.4863C74.1007,-140.0486 99.2978,-166.5227 127,-181 134.4802,-184.9092 142.7202,-188.0146 151.0667,-190.4814"/>
<polygon fill="#191970" stroke="#191970" points="61.9202,-120.1858 52.873,-114.6723 56.5073,-124.6243 61.9202,-120.1858"/>
</g>
<!-- Node3240 -->
<g id="node4" class="node">
<title>Node3240</title>
<g id="a_node4"><a xlink:href="d1/d77/classGPUTPCGlobalMergerComponent.html" target="_top" xlink:title="GPUTPCGlobalMergerComponent">
<polygon fill="none" stroke="#000000" points="131.5,-114.5 131.5,-133.5 298.5,-133.5 298.5,-114.5 131.5,-114.5"/>
<text text-anchor="middle" x="215" y="-121.5" font-family="Helvetica,sans-Serif" font-size="10.00" fill="#000000">GPUTPCGlobalMergerComponent</text>
</a>
</g>
</g>
<!-- Node3238&#45;&gt;Node3240 -->
<g id="edge3" class="edge">
<title>Node3238&#45;&gt;Node3240</title>
<path fill="none" stroke="#191970" d="M101.4841,-111.2755C111.0305,-112.3456 121.1294,-113.4776 131.2102,-114.6076"/>
<polygon fill="#191970" stroke="#191970" points="101.6968,-107.7775 91.3691,-110.1417 100.917,-114.7339 101.6968,-107.7775"/>
</g>
<!-- Node3241 -->
<g id="node5" class="node">
<title>Node3241</title>
<g id="a_node5"><a xlink:href="d6/d5b/classGPUTPCTrackerComponent.html" target="_top" xlink:title="GPUTPCTrackerComponent">
<polygon fill="none" stroke="#000000" points="144,-76.5 144,-95.5 286,-95.5 286,-76.5 144,-76.5"/>
<text text-anchor="middle" x="215" y="-83.5" font-family="Helvetica,sans-Serif" font-size="10.00" fill="#000000">GPUTPCTrackerComponent</text>
</a>
</g>
</g>
<!-- Node3238&#45;&gt;Node3241 -->
<g id="edge4" class="edge">
<title>Node3238&#45;&gt;Node3241</title>
<path fill="none" stroke="#191970" d="M101.4987,-98.7229C115.0646,-97.2022 129.7455,-95.5565 143.9043,-93.9694"/>
<polygon fill="#191970" stroke="#191970" points="100.917,-95.2661 91.3691,-99.8583 101.6968,-102.2225 100.917,-95.2661"/>
</g>
<!-- Node3242 -->
<g id="node6" class="node">
<title>Node3242</title>
<g id="a_node6"><a xlink:href="df/d66/classGPUTRDTrackerComponent.html" target="_top" xlink:title="GPUTRDTrackerComponent">
<polygon fill="none" stroke="#000000" points="143.5,-38.5 143.5,-57.5 286.5,-57.5 286.5,-38.5 143.5,-38.5"/>
<text text-anchor="middle" x="215" y="-45.5" font-family="Helvetica,sans-Serif" font-size="10.00" fill="#000000">GPUTRDTrackerComponent</text>
</a>
</g>
</g>
<!-- Node3238&#45;&gt;Node3242 -->
<g id="edge5" class="edge">
<title>Node3238&#45;&gt;Node3242</title>
<path fill="none" stroke="#191970" d="M72.2168,-90.6911C87.8339,-82.8011 108.129,-73.3473 127,-67 137.9626,-63.3127 149.9404,-60.1695 161.4306,-57.564"/>
<polygon fill="#191970" stroke="#191970" points="70.4396,-87.6694 63.152,-95.3598 73.6448,-93.8925 70.4396,-87.6694"/>
</g>
<!-- Node3243 -->
<g id="node7" class="node">
<title>Node3243</title>
<g id="a_node7"><a xlink:href="d2/d96/classGPUTRDTrackletReaderComponent.html" target="_top" xlink:title="GPUTRDTrackletReaderComponent">
<polygon fill="none" stroke="#000000" points="127,-.5 127,-19.5 303,-19.5 303,-.5 127,-.5"/>
<text text-anchor="middle" x="215" y="-7.5" font-family="Helvetica,sans-Serif" font-size="10.00" fill="#000000">GPUTRDTrackletReaderComponent</text>
</a>
</g>
</g>
<!-- Node3238&#45;&gt;Node3243 -->
<g id="edge6" class="edge">
<title>Node3238&#45;&gt;Node3243</title>
<path fill="none" stroke="#191970" d="M59.2804,-87.5137C74.1007,-69.9514 99.2978,-43.4773 127,-29 134.4802,-25.0908 142.7202,-21.9854 151.0667,-19.5186"/>
<polygon fill="#191970" stroke="#191970" points="56.5073,-85.3757 52.873,-95.3277 61.9202,-89.8142 56.5073,-85.3757"/>
</g>
<!-- Node0 -->
<g id="node8" class="node">
<title>Node0</title>
<g id="a_node8"><a xlink:href="da/d86/classAliOptionParser.html" target="_top" xlink:title="AliOptionParser">
<polygon fill="none" stroke="#000000" points="3,-190.5 3,-209.5 88,-209.5 88,-190.5 3,-190.5"/>
<text text-anchor="middle" x="45.5" y="-197.5" font-family="Helvetica,sans-Serif" font-size="10.00" fill="#000000">AliOptionParser</text>
</a>
</g>
</g>
<!-- Node0&#45;&gt;Node1 -->
<g id="edge7" class="edge">
<title>Node0&#45;&gt;Node1</title>
<path fill="none" stroke="#191970" d="M98.4373,-200C108.8827,-200 120.0824,-200 131.2587,-200"/>
<polygon fill="#191970" stroke="#191970" points="98.272,-196.5001 88.272,-200 98.272,-203.5001 98.272,-196.5001"/>
</g>
</g>
</svg>
