<?xml version="1.0" encoding="UTF-8" standalone="no"?>
<!DOCTYPE svg PUBLIC "-//W3C//DTD SVG 1.1//EN"
 "http://www.w3.org/Graphics/SVG/1.1/DTD/svg11.dtd">
<!-- Generated by graphviz version 2.40.1 (20161225.0304)
 -->
<!-- Title: Graphical Class Hierarchy Pages: 1 -->
<svg width="310pt" height="66pt"
 viewBox="0.00 0.00 310.00 66.00" xmlns="http://www.w3.org/2000/svg" xmlns:xlink="http://www.w3.org/1999/xlink">
<g id="graph0" class="graph" transform="scale(1 1) rotate(0) translate(4 62)">
<title>Graphical Class Hierarchy</title>
<!-- Node0 -->
<g id="node1" class="node">
<title>Node0</title>
<g id="a_node1"><a xlink:href="d9/d4f/structo2_1_1soa_1_1IndexPolicyBase.html" target="_top" xlink:title="o2::soa::IndexPolicyBase">
<polygon fill="none" stroke="#000000" points="0,-19.5 0,-38.5 128,-38.5 128,-19.5 0,-19.5"/>
<text text-anchor="middle" x="64" y="-26.5" font-family="Helvetica,sans-Serif" font-size="10.00" fill="#000000">o2::soa::IndexPolicyBase</text>
</a>
</g>
</g>
<!-- Node1 -->
<g id="node2" class="node">
<title>Node1</title>
<g id="a_node2"><a xlink:href="db/dc2/structo2_1_1soa_1_1DefaultIndexPolicy.html" target="_top" xlink:title="o2::soa::DefaultIndexPolicy">
<polygon fill="none" stroke="#000000" points="164.5,-38.5 164.5,-57.5 301.5,-57.5 301.5,-38.5 164.5,-38.5"/>
<text text-anchor="middle" x="233" y="-45.5" font-family="Helvetica,sans-Serif" font-size="10.00" fill="#000000">o2::soa::DefaultIndexPolicy</text>
</a>
</g>
</g>
<!-- Node0&#45;&gt;Node1 -->
<g id="edge1" class="edge">
<title>Node0&#45;&gt;Node1</title>
<path fill="none" stroke="#191970" d="M138.3996,-37.3645C147.0144,-38.333 155.7712,-39.3175 164.305,-40.2769"/>
<polygon fill="#191970" stroke="#191970" points="138.7022,-33.8765 128.3738,-36.2373 137.9201,-40.8327 138.7022,-33.8765"/>
</g>
<!-- Node2 -->
<g id="node3" class="node">
<title>Node2</title>
<g id="a_node3"><a xlink:href="de/d90/structo2_1_1soa_1_1FilteredIndexPolicy.html" target="_top" xlink:title="o2::soa::FilteredIndexPolicy">
<polygon fill="none" stroke="#000000" points="164,-.5 164,-19.5 302,-19.5 302,-.5 164,-.5"/>
<text text-anchor="middle" x="233" y="-7.5" font-family="Helvetica,sans-Serif" font-size="10.00" fill="#000000">o2::soa::FilteredIndexPolicy</text>
</a>
</g>
</g>
<!-- Node0&#45;&gt;Node2 -->
<g id="edge2" class="edge">
<title>Node0&#45;&gt;Node2</title>
<path fill="none" stroke="#191970" d="M138.5155,-20.6225C146.9026,-19.6796 155.4228,-18.7217 163.7393,-17.7867"/>
<polygon fill="#191970" stroke="#191970" points="137.9201,-17.1673 128.3738,-21.7627 138.7022,-24.1235 137.9201,-17.1673"/>
</g>
</g>
</svg>
