<?xml version="1.0" encoding="UTF-8" standalone="no"?>
<!DOCTYPE svg PUBLIC "-//W3C//DTD SVG 1.1//EN"
 "http://www.w3.org/Graphics/SVG/1.1/DTD/svg11.dtd">
<!-- Generated by graphviz version 2.40.1 (20161225.0304)
 -->
<!-- Title: Graphical Class Hierarchy Pages: 1 -->
<svg width="125pt" height="66pt"
 viewBox="0.00 0.00 125.00 66.00" xmlns="http://www.w3.org/2000/svg" xmlns:xlink="http://www.w3.org/1999/xlink">
<g id="graph0" class="graph" transform="scale(1 1) rotate(0) translate(4 62)">
<title>Graphical Class Hierarchy</title>
<!-- Node0 -->
<g id="node1" class="node">
<title>Node0</title>
<g id="a_node1"><a xlink:href="d8/d5d/classFoo.html" target="_top" xlink:title="Dummy boost&#45;serializable struct to perform some tests. ">
<polygon fill="none" stroke="#000000" points="0,-19.5 0,-38.5 33,-38.5 33,-19.5 0,-19.5"/>
<text text-anchor="middle" x="16.5" y="-26.5" font-family="Helvetica,sans-Serif" font-size="10.00" fill="#000000">Foo</text>
</a>
</g>
</g>
<!-- Node1 -->
<g id="node2" class="node">
<title>Node1</title>
<g id="a_node2"><a xlink:href="d0/d99/structBar.html" target="_top" xlink:title="Bar">
<polygon fill="none" stroke="#000000" points="77,-38.5 77,-57.5 109,-57.5 109,-38.5 77,-38.5"/>
<text text-anchor="middle" x="93" y="-45.5" font-family="Helvetica,sans-Serif" font-size="10.00" fill="#000000">Bar</text>
</a>
</g>
</g>
<!-- Node0&#45;&gt;Node1 -->
<g id="edge1" class="edge">
<title>Node0&#45;&gt;Node1</title>
<path fill="none" stroke="#191970" d="M42.9359,-35.5658C54.2571,-38.3776 67.1095,-41.5697 76.9573,-44.0155"/>
<polygon fill="#191970" stroke="#191970" points="43.6482,-32.1364 33.0994,-33.1227 41.9608,-38.93 43.6482,-32.1364"/>
</g>
<!-- Node2 -->
<g id="node3" class="node">
<title>Node2</title>
<g id="a_node3"><a xlink:href="df/d5c/structFooBar.html" target="_top" xlink:title="FooBar">
<polygon fill="none" stroke="#000000" points="69,-.5 69,-19.5 117,-19.5 117,-.5 69,-.5"/>
<text text-anchor="middle" x="93" y="-7.5" font-family="Helvetica,sans-Serif" font-size="10.00" fill="#000000">FooBar</text>
</a>
</g>
</g>
<!-- Node0&#45;&gt;Node2 -->
<g id="edge2" class="edge">
<title>Node0&#45;&gt;Node2</title>
<path fill="none" stroke="#191970" d="M42.8492,-22.4557C51.2961,-20.3578 60.6029,-18.0463 68.8819,-15.9901"/>
<polygon fill="#191970" stroke="#191970" points="41.9608,-19.07 33.0994,-24.8773 43.6482,-25.8636 41.9608,-19.07"/>
</g>
</g>
</svg>
