<?xml version="1.0" encoding="UTF-8" standalone="no"?>
<!DOCTYPE svg PUBLIC "-//W3C//DTD SVG 1.1//EN"
 "http://www.w3.org/Graphics/SVG/1.1/DTD/svg11.dtd">
<!-- Generated by graphviz version 2.40.1 (20161225.0304)
 -->
<!-- Title: Graphical Class Hierarchy Pages: 1 -->
<svg width="300pt" height="88pt"
 viewBox="0.00 0.00 300.00 88.00" xmlns="http://www.w3.org/2000/svg" xmlns:xlink="http://www.w3.org/1999/xlink">
<g id="graph0" class="graph" transform="scale(1 1) rotate(0) translate(4 84)">
<title>Graphical Class Hierarchy</title>
<!-- Node0 -->
<g id="node1" class="node">
<title>Node0</title>
<g id="a_node1"><a xlink:href="d8/d83/classo2_1_1emcal_1_1CaloRawFitter.html" target="_top" xlink:title="o2::emcal::CaloRawFitter">
<polygon fill="none" stroke="#000000" points="0,-30 0,-49 128,-49 128,-30 0,-30"/>
<text text-anchor="middle" x="64" y="-37" font-family="Helvetica,sans-Serif" font-size="10.00" fill="#000000">o2::emcal::CaloRawFitter</text>
</a>
</g>
</g>
<!-- Node1 -->
<g id="node2" class="node">
<title>Node1</title>
<g id="a_node2"><a xlink:href="d5/d31/classo2_1_1emcal_1_1CaloRawFitterGamma2.html" target="_top" xlink:title="Raw data fitting: Gamma&#45;2 function. ">
<polygon fill="none" stroke="#000000" points="164,-49.5 164,-79.5 292,-79.5 292,-49.5 164,-49.5"/>
<text text-anchor="start" x="172" y="-67.5" font-family="Helvetica,sans-Serif" font-size="10.00" fill="#000000">o2::emcal::CaloRawFitter</text>
<text text-anchor="middle" x="228" y="-56.5" font-family="Helvetica,sans-Serif" font-size="10.00" fill="#000000">Gamma2</text>
</a>
</g>
</g>
<!-- Node0&#45;&gt;Node1 -->
<g id="edge1" class="edge">
<title>Node0&#45;&gt;Node1</title>
<path fill="none" stroke="#191970" d="M136.6074,-50.5682C145.6666,-51.9492 154.8807,-53.3538 163.7996,-54.7134"/>
<polygon fill="#191970" stroke="#191970" points="136.8825,-47.0698 126.4692,-49.0227 135.8275,-53.9898 136.8825,-47.0698"/>
</g>
<!-- Node2 -->
<g id="node3" class="node">
<title>Node2</title>
<g id="a_node3"><a xlink:href="d7/dd6/classo2_1_1emcal_1_1CaloRawFitterStandard.html" target="_top" xlink:title="Raw data fitting: standard TMinuit fit. ">
<polygon fill="none" stroke="#000000" points="164,-.5 164,-30.5 292,-30.5 292,-.5 164,-.5"/>
<text text-anchor="start" x="172" y="-18.5" font-family="Helvetica,sans-Serif" font-size="10.00" fill="#000000">o2::emcal::CaloRawFitter</text>
<text text-anchor="middle" x="228" y="-7.5" font-family="Helvetica,sans-Serif" font-size="10.00" fill="#000000">Standard</text>
</a>
</g>
</g>
<!-- Node0&#45;&gt;Node2 -->
<g id="edge2" class="edge">
<title>Node0&#45;&gt;Node2</title>
<path fill="none" stroke="#191970" d="M138.2859,-28.6289C146.8158,-27.3806 155.4581,-26.1159 163.8391,-24.8894"/>
<polygon fill="#191970" stroke="#191970" points="137.7342,-25.1723 128.3464,-30.0834 138.7479,-32.0985 137.7342,-25.1723"/>
</g>
</g>
</svg>
