<?xml version="1.0" encoding="UTF-8" standalone="no"?>
<!DOCTYPE svg PUBLIC "-//W3C//DTD SVG 1.1//EN"
 "http://www.w3.org/Graphics/SVG/1.1/DTD/svg11.dtd">
<!-- Generated by graphviz version 2.40.1 (20161225.0304)
 -->
<!-- Title: Graphical Class Hierarchy Pages: 1 -->
<svg width="331pt" height="100pt"
 viewBox="0.00 0.00 331.00 99.50" xmlns="http://www.w3.org/2000/svg" xmlns:xlink="http://www.w3.org/1999/xlink">
<g id="graph0" class="graph" transform="scale(1 1) rotate(0) translate(4 95.5)">
<title>Graphical Class Hierarchy</title>
<!-- Node1864 -->
<g id="node1" class="node">
<title>Node1864</title>
<g id="a_node1"><a xlink:href="dd/d48/classGPUCA__NAMESPACE_1_1gpu_1_1GPUChain.html" target="_top" xlink:title="GPUCA_NAMESPACE::gpu\l::GPUChain">
<polygon fill="none" stroke="#000000" points=".5,-61 .5,-91 143.5,-91 143.5,-61 .5,-61"/>
<text text-anchor="start" x="8.5" y="-79" font-family="Helvetica,sans-Serif" font-size="10.00" fill="#000000">GPUCA_NAMESPACE::gpu</text>
<text text-anchor="middle" x="72" y="-68" font-family="Helvetica,sans-Serif" font-size="10.00" fill="#000000">::GPUChain</text>
</a>
</g>
</g>
<!-- Node1865 -->
<g id="node2" class="node">
<title>Node1865</title>
<g id="a_node2"><a xlink:href="db/d8f/classGPUCA__NAMESPACE_1_1gpu_1_1GPUChainITS.html" target="_top" xlink:title="GPUCA_NAMESPACE::gpu\l::GPUChainITS">
<polygon fill="none" stroke="#000000" points="180,-61 180,-91 323,-91 323,-61 180,-61"/>
<text text-anchor="start" x="188" y="-79" font-family="Helvetica,sans-Serif" font-size="10.00" fill="#000000">GPUCA_NAMESPACE::gpu</text>
<text text-anchor="middle" x="251.5" y="-68" font-family="Helvetica,sans-Serif" font-size="10.00" fill="#000000">::GPUChainITS</text>
</a>
</g>
</g>
<!-- Node1864&#45;&gt;Node1865 -->
<g id="edge1" class="edge">
<title>Node1864&#45;&gt;Node1865</title>
<path fill="none" stroke="#191970" d="M153.8542,-76C162.5454,-76 171.3361,-76 179.8969,-76"/>
<polygon fill="#191970" stroke="#191970" points="153.717,-72.5001 143.717,-76 153.717,-79.5001 153.717,-72.5001"/>
</g>
<!-- Node1 -->
<g id="node3" class="node">
<title>Node1</title>
<g id="a_node3"><a xlink:href="d5/d5f/classGPUCA__NAMESPACE_1_1gpu_1_1GPUChainTracking.html" target="_top" xlink:title="GPUCA_NAMESPACE::gpu\l::GPUChainTracking">
<polygon fill="none" stroke="#000000" points="180,-9 180,-39 323,-39 323,-9 180,-9"/>
<text text-anchor="start" x="188" y="-27" font-family="Helvetica,sans-Serif" font-size="10.00" fill="#000000">GPUCA_NAMESPACE::gpu</text>
<text text-anchor="middle" x="251.5" y="-16" font-family="Helvetica,sans-Serif" font-size="10.00" fill="#000000">::GPUChainTracking</text>
</a>
</g>
</g>
<!-- Node1864&#45;&gt;Node1 -->
<g id="edge2" class="edge">
<title>Node1864&#45;&gt;Node1</title>
<path fill="none" stroke="#191970" d="M133.6172,-58.1499C155.1375,-51.9156 179.0585,-44.9858 199.6978,-39.0068"/>
<polygon fill="#191970" stroke="#191970" points="132.55,-54.8151 123.9188,-60.9594 134.4978,-61.5386 132.55,-54.8151"/>
</g>
<!-- Node0 -->
<g id="node4" class="node">
<title>Node0</title>
<g id="a_node4"><a xlink:href="d2/dab/classGPUCA__NAMESPACE_1_1gpu_1_1GPUReconstructionHelpers_1_1helperDelegateBase.html" target="_top" xlink:title="GPUCA_NAMESPACE::gpu\l::GPUReconstructionHelpers\l::helperDelegateBase">
<polygon fill="none" stroke="#000000" points="0,-.5 0,-41.5 144,-41.5 144,-.5 0,-.5"/>
<text text-anchor="start" x="8" y="-29.5" font-family="Helvetica,sans-Serif" font-size="10.00" fill="#000000">GPUCA_NAMESPACE::gpu</text>
<text text-anchor="start" x="8" y="-18.5" font-family="Helvetica,sans-Serif" font-size="10.00" fill="#000000">::GPUReconstructionHelpers</text>
<text text-anchor="middle" x="72" y="-7.5" font-family="Helvetica,sans-Serif" font-size="10.00" fill="#000000">::helperDelegateBase</text>
</a>
</g>
</g>
<!-- Node0&#45;&gt;Node1 -->
<g id="edge3" class="edge">
<title>Node0&#45;&gt;Node1</title>
<path fill="none" stroke="#8b1a1a" d="M154.2599,-22.3748C162.8532,-22.5184 171.5386,-22.6636 179.9982,-22.805"/>
<polygon fill="#8b1a1a" stroke="#8b1a1a" points="154.2907,-18.8749 144.2336,-22.2072 154.1737,-25.874 154.2907,-18.8749"/>
</g>
</g>
</svg>
