<?xml version="1.0" encoding="UTF-8" standalone="no"?>
<!DOCTYPE svg PUBLIC "-//W3C//DTD SVG 1.1//EN"
 "http://www.w3.org/Graphics/SVG/1.1/DTD/svg11.dtd">
<!-- Generated by graphviz version 2.40.1 (20161225.0304)
 -->
<!-- Title: /home/runner/work/AliceO2/AliceO2/Detectors/TOF/calibration/src/TOFCalibCollector.cxx Pages: 1 -->
<svg width="2056pt" height="497pt"
 viewBox="0.00 0.00 2055.50 497.00" xmlns="http://www.w3.org/2000/svg" xmlns:xlink="http://www.w3.org/1999/xlink">
<g id="graph0" class="graph" transform="scale(1 1) rotate(0) translate(4 493)">
<title>/home/runner/work/AliceO2/AliceO2/Detectors/TOF/calibration/src/TOFCalibCollector.cxx</title>
<!-- Node0 -->
<g id="node1" class="node">
<title>Node0</title>
<polygon fill="#bfbfbf" stroke="#000000" points="1713.5,-447.5 1713.5,-488.5 1896.5,-488.5 1896.5,-447.5 1713.5,-447.5"/>
<text text-anchor="start" x="1721.5" y="-476.5" font-family="Helvetica,sans-Serif" font-size="10.00" fill="#000000">/home/runner/work/AliceO2</text>
<text text-anchor="start" x="1721.5" y="-465.5" font-family="Helvetica,sans-Serif" font-size="10.00" fill="#000000">/AliceO2/Detectors/TOF</text>
<text text-anchor="middle" x="1805" y="-454.5" font-family="Helvetica,sans-Serif" font-size="10.00" fill="#000000">/calibration/src/TOFCalibCollector.cxx</text>
</g>
<!-- Node1 -->
<g id="node2" class="node">
<title>Node1</title>
<g id="a_node2"><a xlink:href="../../dd/d2a/TOFCalibCollector_8h.html" target="_top" xlink:title="TOFCalibration/TOFCalibCollector.h">
<polygon fill="none" stroke="#000000" points="1650.5,-391.5 1650.5,-410.5 1825.5,-410.5 1825.5,-391.5 1650.5,-391.5"/>
<text text-anchor="middle" x="1738" y="-398.5" font-family="Helvetica,sans-Serif" font-size="10.00" fill="#000000">TOFCalibration/TOFCalibCollector.h</text>
</a>
</g>
</g>
<!-- Node0&#45;&gt;Node1 -->
<g id="edge1" class="edge">
<title>Node0&#45;&gt;Node1</title>
<path fill="none" stroke="#191970" d="M1784.168,-447.168C1774.7794,-437.7794 1763.834,-426.834 1754.9574,-417.9574"/>
<polygon fill="#191970" stroke="#191970" points="1757.3265,-415.3767 1747.7805,-410.7805 1752.3767,-420.3265 1757.3265,-415.3767"/>
</g>
<!-- Node6 -->
<g id="node7" class="node">
<title>Node6</title>
<g id="a_node7"><a xlink:href="../../dd/da4/Logger_8h.html" target="_top" xlink:title="Framework/Logger.h">
<polygon fill="none" stroke="#000000" points="1817,-196 1817,-215 1923,-215 1923,-196 1817,-196"/>
<text text-anchor="middle" x="1870" y="-203" font-family="Helvetica,sans-Serif" font-size="10.00" fill="#000000">Framework/Logger.h</text>
</a>
</g>
</g>
<!-- Node0&#45;&gt;Node6 -->
<g id="edge68" class="edge">
<title>Node0&#45;&gt;Node6</title>
<path fill="none" stroke="#191970" d="M1817.9114,-447.3282C1823.9482,-436.8069 1830.7308,-423.6041 1835,-411 1857.3067,-345.1436 1865.8447,-262.3918 1868.7166,-225.1967"/>
<polygon fill="#191970" stroke="#191970" points="1872.2102,-225.41 1869.435,-215.1851 1865.2282,-224.9089 1872.2102,-225.41"/>
</g>
<!-- Node29 -->
<g id="node30" class="node">
<title>Node29</title>
<polygon fill="none" stroke="#bfbfbf" points="1530.5,-.5 1530.5,-19.5 1579.5,-19.5 1579.5,-.5 1530.5,-.5"/>
<text text-anchor="middle" x="1555" y="-7.5" font-family="Helvetica,sans-Serif" font-size="10.00" fill="#000000">cassert</text>
</g>
<!-- Node0&#45;&gt;Node29 -->
<g id="edge69" class="edge">
<title>Node0&#45;&gt;Node29</title>
<path fill="none" stroke="#191970" d="M1713.0553,-457.3712C1597.6978,-441.9249 1409.8595,-409.0604 1368,-355 1359.5648,-344.1062 1363.8006,-337.1222 1368,-324 1407.4318,-200.7851 1483.7112,-204.8859 1537,-87 1545.3272,-68.5785 1550.0303,-45.8719 1552.5233,-29.9054"/>
<polygon fill="#191970" stroke="#191970" points="1556.0418,-30.0181 1553.9682,-19.6282 1549.11,-29.0435 1556.0418,-30.0181"/>
</g>
<!-- Node42 -->
<g id="node43" class="node">
<title>Node42</title>
<polygon fill="none" stroke="#bfbfbf" points="0,-62 0,-81 54,-81 54,-62 0,-62"/>
<text text-anchor="middle" x="27" y="-69" font-family="Helvetica,sans-Serif" font-size="10.00" fill="#000000">iostream</text>
</g>
<!-- Node0&#45;&gt;Node42 -->
<g id="edge70" class="edge">
<title>Node0&#45;&gt;Node42</title>
<path fill="none" stroke="#191970" d="M1713.4677,-466.1571C1352.2004,-458.291 45,-423.9908 45,-339.5 45,-339.5 45,-339.5 45,-205.5 45,-164.6059 36.6635,-117.3117 31.3372,-91.2681"/>
<polygon fill="#191970" stroke="#191970" points="34.6998,-90.2516 29.2072,-81.1918 27.8511,-91.6995 34.6998,-90.2516"/>
</g>
<!-- Node49 -->
<g id="node50" class="node">
<title>Node49</title>
<polygon fill="none" stroke="#bfbfbf" points="1900,-391.5 1900,-410.5 1952,-410.5 1952,-391.5 1900,-391.5"/>
<text text-anchor="middle" x="1926" y="-398.5" font-family="Helvetica,sans-Serif" font-size="10.00" fill="#000000">sstream</text>
</g>
<!-- Node0&#45;&gt;Node49 -->
<g id="edge71" class="edge">
<title>Node0&#45;&gt;Node49</title>
<path fill="none" stroke="#191970" d="M1842.2913,-447.3511C1860.7501,-437.1301 1882.6063,-425.0279 1899.3562,-415.7532"/>
<polygon fill="#191970" stroke="#191970" points="1901.5111,-418.5608 1908.564,-410.6546 1898.1201,-412.4369 1901.5111,-418.5608"/>
</g>
<!-- Node50 -->
<g id="node51" class="node">
<title>Node50</title>
<polygon fill="none" stroke="#bfbfbf" points="1970.5,-391.5 1970.5,-410.5 2047.5,-410.5 2047.5,-391.5 1970.5,-391.5"/>
<text text-anchor="middle" x="2009" y="-398.5" font-family="Helvetica,sans-Serif" font-size="10.00" fill="#000000">TStopwatch.h</text>
</g>
<!-- Node0&#45;&gt;Node50 -->
<g id="edge72" class="edge">
<title>Node0&#45;&gt;Node50</title>
<path fill="none" stroke="#191970" d="M1867.5931,-447.4425C1901.1194,-436.4314 1941.3577,-423.2158 1970.3235,-413.7026"/>
<polygon fill="#191970" stroke="#191970" points="1971.6609,-416.9473 1980.0695,-410.5017 1969.4766,-410.2968 1971.6609,-416.9473"/>
</g>
<!-- Node2 -->
<g id="node3" class="node">
<title>Node2</title>
<g id="a_node3"><a xlink:href="../../dc/df2/TimeSlotCalibration_8h.html" target="_top" xlink:title="DetectorsCalibration\l/TimeSlotCalibration.h">
<polygon fill="none" stroke="#000000" points="1539.5,-324.5 1539.5,-354.5 1652.5,-354.5 1652.5,-324.5 1539.5,-324.5"/>
<text text-anchor="start" x="1547.5" y="-342.5" font-family="Helvetica,sans-Serif" font-size="10.00" fill="#000000">DetectorsCalibration</text>
<text text-anchor="middle" x="1596" y="-331.5" font-family="Helvetica,sans-Serif" font-size="10.00" fill="#000000">/TimeSlotCalibration.h</text>
</a>
</g>
</g>
<!-- Node1&#45;&gt;Node2 -->
<g id="edge2" class="edge">
<title>Node1&#45;&gt;Node2</title>
<path fill="none" stroke="#191970" d="M1715.8125,-391.3906C1695.6158,-382.6435 1665.2056,-369.4728 1640.077,-358.5897"/>
<polygon fill="#191970" stroke="#191970" points="1641.3045,-355.3072 1630.7371,-354.5446 1638.5224,-361.7306 1641.3045,-355.3072"/>
</g>
<!-- Node3 -->
<g id="node4" class="node">
<title>Node3</title>
<g id="a_node4"><a xlink:href="../../dd/d77/TimeSlot_8h.html" target="_top" xlink:title="DetectorsCalibration\l/TimeSlot.h">
<polygon fill="none" stroke="#000000" points="1736,-257.5 1736,-287.5 1842,-287.5 1842,-257.5 1736,-257.5"/>
<text text-anchor="start" x="1744" y="-275.5" font-family="Helvetica,sans-Serif" font-size="10.00" fill="#000000">DetectorsCalibration</text>
<text text-anchor="middle" x="1789" y="-264.5" font-family="Helvetica,sans-Serif" font-size="10.00" fill="#000000">/TimeSlot.h</text>
</a>
</g>
</g>
<!-- Node1&#45;&gt;Node3 -->
<g id="edge10" class="edge">
<title>Node1&#45;&gt;Node3</title>
<path fill="none" stroke="#191970" d="M1767.9458,-391.4983C1785.0054,-384.3713 1804.9324,-372.7417 1815,-355 1825.4433,-336.5962 1816.5134,-313.4579 1806.3731,-296.3726"/>
<polygon fill="#191970" stroke="#191970" points="1809.0743,-294.1011 1800.7304,-287.572 1803.1816,-297.8794 1809.0743,-294.1011"/>
</g>
<!-- Node10 -->
<g id="node11" class="node">
<title>Node10</title>
<g id="a_node11"><a xlink:href="../../d6/d9c/CalibInfoTOF_8h.html" target="_top" xlink:title="Class to store the output of the matching to TOF for calibration. ">
<polygon fill="none" stroke="#000000" points="1900.5,-257.5 1900.5,-287.5 2035.5,-287.5 2035.5,-257.5 1900.5,-257.5"/>
<text text-anchor="start" x="1908.5" y="-275.5" font-family="Helvetica,sans-Serif" font-size="10.00" fill="#000000">DataFormatsTOF/CalibInfo</text>
<text text-anchor="middle" x="1968" y="-264.5" font-family="Helvetica,sans-Serif" font-size="10.00" fill="#000000">TOF.h</text>
</a>
</g>
</g>
<!-- Node1&#45;&gt;Node10 -->
<g id="edge11" class="edge">
<title>Node1&#45;&gt;Node10</title>
<path fill="none" stroke="#191970" d="M1758.568,-391.4278C1777.5804,-382.4385 1806.507,-368.4023 1831,-355 1867.3253,-335.1232 1907.8236,-310.4056 1935.3039,-293.2336"/>
<polygon fill="#191970" stroke="#191970" points="1937.4873,-295.9957 1944.0993,-287.7173 1933.768,-290.0655 1937.4873,-295.9957"/>
</g>
<!-- Node11 -->
<g id="node12" class="node">
<title>Node11</title>
<g id="a_node12"><a xlink:href="../../d4/d54/Geo_8h.html" target="_top" xlink:title="TOFBase/Geo.h">
<polygon fill="none" stroke="#000000" points="1377,-330 1377,-349 1465,-349 1465,-330 1377,-330"/>
<text text-anchor="middle" x="1421" y="-337" font-family="Helvetica,sans-Serif" font-size="10.00" fill="#000000">TOFBase/Geo.h</text>
</a>
</g>
</g>
<!-- Node1&#45;&gt;Node11 -->
<g id="edge13" class="edge">
<title>Node1&#45;&gt;Node11</title>
<path fill="none" stroke="#191970" d="M1671.1293,-391.4677C1617.51,-383.3165 1540.499,-370.4661 1474,-355 1469.8506,-354.0349 1465.5448,-352.9379 1461.2619,-351.7837"/>
<polygon fill="#191970" stroke="#191970" points="1461.9676,-348.3468 1451.3944,-349.0223 1460.0811,-355.0879 1461.9676,-348.3468"/>
</g>
<!-- Node47 -->
<g id="node48" class="node">
<title>Node47</title>
<g id="a_node48"><a xlink:href="../../d4/d78/CalibInfoTOFshort_8h.html" target="_top" xlink:title="Class to store the output of the matching to TOF for calibration (no channel info, available in CalibInfoTOF.h) ">
<polygon fill="none" stroke="#000000" points="1670.5,-324.5 1670.5,-354.5 1805.5,-354.5 1805.5,-324.5 1670.5,-324.5"/>
<text text-anchor="start" x="1678.5" y="-342.5" font-family="Helvetica,sans-Serif" font-size="10.00" fill="#000000">DataFormatsTOF/CalibInfo</text>
<text text-anchor="middle" x="1738" y="-331.5" font-family="Helvetica,sans-Serif" font-size="10.00" fill="#000000">TOFshort.h</text>
</a>
</g>
</g>
<!-- Node1&#45;&gt;Node47 -->
<g id="edge65" class="edge">
<title>Node1&#45;&gt;Node47</title>
<path fill="none" stroke="#191970" d="M1738,-391.3906C1738,-384.2234 1738,-374.0862 1738,-364.671"/>
<polygon fill="#191970" stroke="#191970" points="1741.5001,-364.5446 1738,-354.5446 1734.5001,-364.5446 1741.5001,-364.5446"/>
</g>
<!-- Node48 -->
<g id="node49" class="node">
<title>Node48</title>
<polygon fill="none" stroke="#bfbfbf" points="1483,-330 1483,-349 1521,-349 1521,-330 1483,-330"/>
<text text-anchor="middle" x="1502" y="-337" font-family="Helvetica,sans-Serif" font-size="10.00" fill="#000000">array</text>
</g>
<!-- Node1&#45;&gt;Node48 -->
<g id="edge67" class="edge">
<title>Node1&#45;&gt;Node48</title>
<path fill="none" stroke="#191970" d="M1672.4215,-391.4805C1630.7605,-384.2265 1576.18,-372.4675 1530,-355 1528.8015,-354.5467 1527.5916,-354.0492 1526.3823,-353.5193"/>
<polygon fill="#191970" stroke="#191970" points="1527.8287,-350.3298 1517.3159,-349.0139 1524.7136,-356.5984 1527.8287,-350.3298"/>
</g>
<!-- Node2&#45;&gt;Node3 -->
<g id="edge3" class="edge">
<title>Node2&#45;&gt;Node3</title>
<path fill="none" stroke="#191970" d="M1639.313,-324.4639C1667.8942,-314.5419 1705.5278,-301.4774 1735.9094,-290.9304"/>
<polygon fill="#191970" stroke="#191970" points="1737.199,-294.1877 1745.4981,-287.6017 1734.9033,-287.5748 1737.199,-294.1877"/>
</g>
<!-- Node8 -->
<g id="node9" class="node">
<title>Node8</title>
<polygon fill="none" stroke="#bfbfbf" points="1636.5,-263 1636.5,-282 1679.5,-282 1679.5,-263 1636.5,-263"/>
<text text-anchor="middle" x="1658" y="-270" font-family="Helvetica,sans-Serif" font-size="10.00" fill="#000000">deque</text>
</g>
<!-- Node2&#45;&gt;Node8 -->
<g id="edge8" class="edge">
<title>Node2&#45;&gt;Node8</title>
<path fill="none" stroke="#191970" d="M1610.0688,-324.2967C1619.6349,-313.9591 1632.3038,-300.2684 1642.2143,-289.5588"/>
<polygon fill="#191970" stroke="#191970" points="1644.935,-291.7718 1649.1581,-282.055 1639.7973,-287.0175 1644.935,-291.7718"/>
</g>
<!-- Node9 -->
<g id="node10" class="node">
<title>Node9</title>
<polygon fill="none" stroke="#bfbfbf" points="1573.5,-263 1573.5,-282 1618.5,-282 1618.5,-263 1573.5,-263"/>
<text text-anchor="middle" x="1596" y="-270" font-family="Helvetica,sans-Serif" font-size="10.00" fill="#000000">gsl/gsl</text>
</g>
<!-- Node2&#45;&gt;Node9 -->
<g id="edge9" class="edge">
<title>Node2&#45;&gt;Node9</title>
<path fill="none" stroke="#191970" d="M1596,-324.2967C1596,-314.7699 1596,-302.3954 1596,-292.1306"/>
<polygon fill="#191970" stroke="#191970" points="1599.5001,-292.0549 1596,-282.055 1592.5001,-292.055 1599.5001,-292.0549"/>
</g>
<!-- Node4 -->
<g id="node5" class="node">
<title>Node4</title>
<polygon fill="none" stroke="#bfbfbf" points="1602,-.5 1602,-19.5 1654,-19.5 1654,-.5 1602,-.5"/>
<text text-anchor="middle" x="1628" y="-7.5" font-family="Helvetica,sans-Serif" font-size="10.00" fill="#000000">memory</text>
</g>
<!-- Node3&#45;&gt;Node4 -->
<g id="edge4" class="edge">
<title>Node3&#45;&gt;Node4</title>
<path fill="none" stroke="#191970" d="M1779.6481,-257.2523C1751.7756,-211.8081 1669.3402,-77.4026 1639.1996,-28.2602"/>
<polygon fill="#191970" stroke="#191970" points="1642.1122,-26.3146 1633.9004,-19.6202 1636.1452,-29.9745 1642.1122,-26.3146"/>
</g>
<!-- Node5 -->
<g id="node6" class="node">
<title>Node5</title>
<polygon fill="none" stroke="#bfbfbf" points="1676,-.5 1676,-19.5 1732,-19.5 1732,-.5 1676,-.5"/>
<text text-anchor="middle" x="1704" y="-7.5" font-family="Helvetica,sans-Serif" font-size="10.00" fill="#000000">Rtypes.h</text>
</g>
<!-- Node3&#45;&gt;Node5 -->
<g id="edge5" class="edge">
<title>Node3&#45;&gt;Node5</title>
<path fill="none" stroke="#191970" d="M1784.743,-257.4159C1774.6569,-221.9933 1748.1816,-130.8334 1722,-56 1718.8936,-47.1212 1715.1447,-37.4061 1711.8741,-29.2013"/>
<polygon fill="#191970" stroke="#191970" points="1715.0638,-27.7529 1708.0716,-19.793 1708.5739,-30.376 1715.0638,-27.7529"/>
</g>
<!-- Node3&#45;&gt;Node6 -->
<g id="edge6" class="edge">
<title>Node3&#45;&gt;Node6</title>
<path fill="none" stroke="#191970" d="M1807.3802,-257.2967C1820.2454,-246.6551 1837.4063,-232.4602 1850.5096,-221.6217"/>
<polygon fill="#191970" stroke="#191970" points="1852.9737,-224.1257 1858.4485,-215.055 1848.5121,-218.7318 1852.9737,-224.1257"/>
</g>
<!-- Node7 -->
<g id="node8" class="node">
<title>Node7</title>
<polygon fill="none" stroke="#bfbfbf" points="1821.5,-129 1821.5,-148 1918.5,-148 1918.5,-129 1821.5,-129"/>
<text text-anchor="middle" x="1870" y="-136" font-family="Helvetica,sans-Serif" font-size="10.00" fill="#000000">fairlogger/Logger.h</text>
</g>
<!-- Node6&#45;&gt;Node7 -->
<g id="edge7" class="edge">
<title>Node6&#45;&gt;Node7</title>
<path fill="none" stroke="#191970" d="M1870,-195.9005C1870,-186.149 1870,-170.7597 1870,-158.3695"/>
<polygon fill="#191970" stroke="#191970" points="1873.5001,-158.0816 1870,-148.0817 1866.5001,-158.0817 1873.5001,-158.0816"/>
</g>
<!-- Node10&#45;&gt;Node5 -->
<g id="edge12" class="edge">
<title>Node10&#45;&gt;Node5</title>
<path fill="none" stroke="#191970" d="M1967.8673,-257.105C1966.833,-227.7771 1960.7071,-163.239 1928,-123 1879.6793,-63.5518 1792.0213,-32.4514 1741.8874,-18.8077"/>
<polygon fill="#191970" stroke="#191970" points="1742.6463,-15.3883 1732.0851,-16.2328 1740.8678,-22.1586 1742.6463,-15.3883"/>
</g>
<!-- Node11&#45;&gt;Node5 -->
<g id="edge14" class="edge">
<title>Node11&#45;&gt;Node5</title>
<path fill="none" stroke="#191970" d="M1436.3255,-329.832C1464.9722,-311.25 1527.5694,-268.1876 1570,-221 1626.9989,-157.6109 1675.4256,-67.2599 1694.8724,-28.6528"/>
<polygon fill="#191970" stroke="#191970" points="1698.0562,-30.1107 1699.377,-19.5985 1691.789,-26.9927 1698.0562,-30.1107"/>
</g>
<!-- Node12 -->
<g id="node13" class="node">
<title>Node12</title>
<g id="a_node13"><a xlink:href="../../d4/dc6/LHCConstants_8h.html" target="_top" xlink:title="Header to collect LHC related constants. ">
<polygon fill="none" stroke="#000000" points="754,-62 754,-81 932,-81 932,-62 754,-62"/>
<text text-anchor="middle" x="843" y="-69" font-family="Helvetica,sans-Serif" font-size="10.00" fill="#000000">CommonConstants/LHCConstants.h</text>
</a>
</g>
</g>
<!-- Node11&#45;&gt;Node12 -->
<g id="edge15" class="edge">
<title>Node11&#45;&gt;Node12</title>
<path fill="none" stroke="#191970" d="M1376.98,-338.2786C1190.8961,-332.6194 468.8181,-305.5255 260,-221 215.4116,-202.9515 195.9938,-197.2797 175,-154 113.9008,-28.0414 28.9773,-138.824 669,-87 693.1773,-85.0423 719.2314,-82.7949 743.6296,-80.63"/>
<polygon fill="#191970" stroke="#191970" points="743.9607,-84.1145 753.6107,-79.7408 743.3395,-77.1421 743.9607,-84.1145"/>
</g>
<!-- Node13 -->
<g id="node14" class="node">
<title>Node13</title>
<g id="a_node14"><a xlink:href="../../d1/dec/HBFUtils_8h.html" target="_top" xlink:title="DetectorsRaw/HBFUtils.h">
<polygon fill="none" stroke="#000000" points="993.5,-263 993.5,-282 1124.5,-282 1124.5,-263 993.5,-263"/>
<text text-anchor="middle" x="1059" y="-270" font-family="Helvetica,sans-Serif" font-size="10.00" fill="#000000">DetectorsRaw/HBFUtils.h</text>
</a>
</g>
</g>
<!-- Node11&#45;&gt;Node13 -->
<g id="edge16" class="edge">
<title>Node11&#45;&gt;Node13</title>
<path fill="none" stroke="#191970" d="M1376.9736,-331.3515C1312.8176,-319.4773 1193.3701,-297.3696 1120.5423,-283.8904"/>
<polygon fill="#191970" stroke="#191970" points="1121.056,-280.4261 1110.586,-282.0477 1119.782,-287.3092 1121.056,-280.4261"/>
</g>
<!-- Node13&#45;&gt;Node5 -->
<g id="edge17" class="edge">
<title>Node13&#45;&gt;Node5</title>
<path fill="none" stroke="#191970" d="M1085.7366,-262.9949C1158.8021,-236.8332 1367.6746,-160.7973 1537,-87 1585.7477,-65.7542 1641.7551,-39.5597 1674.9403,-23.8495"/>
<polygon fill="#191970" stroke="#191970" points="1676.5364,-26.9662 1684.0717,-19.5184 1673.5365,-20.6416 1676.5364,-26.9662"/>
</g>
<!-- Node14 -->
<g id="node15" class="node">
<title>Node14</title>
<g id="a_node15"><a xlink:href="../../d6/dec/Raw_2include_2DetectorsRaw_2RDHUtils_8h.html" target="_top" xlink:title="DetectorsRaw/RDHUtils.h">
<polygon fill="none" stroke="#000000" points="992,-196 992,-215 1126,-215 1126,-196 992,-196"/>
<text text-anchor="middle" x="1059" y="-203" font-family="Helvetica,sans-Serif" font-size="10.00" fill="#000000">DetectorsRaw/RDHUtils.h</text>
</a>
</g>
</g>
<!-- Node13&#45;&gt;Node14 -->
<g id="edge18" class="edge">
<title>Node13&#45;&gt;Node14</title>
<path fill="none" stroke="#191970" d="M1059,-262.9005C1059,-253.149 1059,-237.7597 1059,-225.3695"/>
<polygon fill="#191970" stroke="#191970" points="1062.5001,-225.0816 1059,-215.0817 1055.5001,-225.0817 1062.5001,-225.0816"/>
</g>
<!-- Node24 -->
<g id="node25" class="node">
<title>Node24</title>
<g id="a_node25"><a xlink:href="../../d9/d80/InteractionRecord_8h.html" target="_top" xlink:title="CommonDataFormat/Interaction\lRecord.h">
<polygon fill="none" stroke="#000000" points="1164.5,-123.5 1164.5,-153.5 1321.5,-153.5 1321.5,-123.5 1164.5,-123.5"/>
<text text-anchor="start" x="1172.5" y="-141.5" font-family="Helvetica,sans-Serif" font-size="10.00" fill="#000000">CommonDataFormat/Interaction</text>
<text text-anchor="middle" x="1243" y="-130.5" font-family="Helvetica,sans-Serif" font-size="10.00" fill="#000000">Record.h</text>
</a>
</g>
</g>
<!-- Node13&#45;&gt;Node24 -->
<g id="edge62" class="edge">
<title>Node13&#45;&gt;Node24</title>
<path fill="none" stroke="#191970" d="M1073.7395,-262.8701C1089.1767,-252.7015 1114.0447,-236.0852 1135,-221 1162.8932,-200.9203 1194.0101,-176.981 1215.6515,-160.0754"/>
<polygon fill="#191970" stroke="#191970" points="1218.0249,-162.6622 1223.7391,-153.7403 1213.7084,-157.1515 1218.0249,-162.6622"/>
</g>
<!-- Node36 -->
<g id="node37" class="node">
<title>Node36</title>
<g id="a_node37"><a xlink:href="../../db/d2c/ConfigurableParam_8h.html" target="_top" xlink:title="CommonUtils/Configurable\lParam.h">
<polygon fill="none" stroke="#000000" points="324,-123.5 324,-153.5 458,-153.5 458,-123.5 324,-123.5"/>
<text text-anchor="start" x="332" y="-141.5" font-family="Helvetica,sans-Serif" font-size="10.00" fill="#000000">CommonUtils/Configurable</text>
<text text-anchor="middle" x="391" y="-130.5" font-family="Helvetica,sans-Serif" font-size="10.00" fill="#000000">Param.h</text>
</a>
</g>
</g>
<!-- Node13&#45;&gt;Node36 -->
<g id="edge49" class="edge">
<title>Node13&#45;&gt;Node36</title>
<path fill="none" stroke="#191970" d="M993.4837,-263.886C926.8809,-254.7447 820.8544,-239.1334 730,-221 634.0359,-201.8468 524.1847,-174.0119 456.1919,-156.0806"/>
<polygon fill="#191970" stroke="#191970" points="457.0331,-152.6828 446.4706,-153.5091 455.243,-159.4501 457.0331,-152.6828"/>
</g>
<!-- Node43 -->
<g id="node44" class="node">
<title>Node43</title>
<g id="a_node44"><a xlink:href="../../da/d6b/ConfigurableParamHelper_8h.html" target="_top" xlink:title="CommonUtils/Configurable\lParamHelper.h">
<polygon fill="none" stroke="#000000" points="269,-190.5 269,-220.5 403,-220.5 403,-190.5 269,-190.5"/>
<text text-anchor="start" x="277" y="-208.5" font-family="Helvetica,sans-Serif" font-size="10.00" fill="#000000">CommonUtils/Configurable</text>
<text text-anchor="middle" x="336" y="-197.5" font-family="Helvetica,sans-Serif" font-size="10.00" fill="#000000">ParamHelper.h</text>
</a>
</g>
</g>
<!-- Node13&#45;&gt;Node43 -->
<g id="edge56" class="edge">
<title>Node13&#45;&gt;Node43</title>
<path fill="none" stroke="#191970" d="M993.243,-266.4063C859.3909,-254.0023 555.8856,-225.8767 413.049,-212.6401"/>
<polygon fill="#191970" stroke="#191970" points="413.3272,-209.151 403.0469,-211.7132 412.6813,-216.1211 413.3272,-209.151"/>
</g>
<!-- Node46 -->
<g id="node47" class="node">
<title>Node46</title>
<g id="a_node47"><a xlink:href="../../de/da4/Triggers_8h.html" target="_top" xlink:title="Definition of the 32 Central Trigger System (CTS) Trigger Types defined in https://twiki.cern.ch/twiki/pub/ALICE/NoteForFEDevelopers/CTS_CRU_FE_interface.pdf. ">
<polygon fill="none" stroke="#000000" points="739,-196 739,-215 887,-215 887,-196 739,-196"/>
<text text-anchor="middle" x="813" y="-203" font-family="Helvetica,sans-Serif" font-size="10.00" fill="#000000">CommonConstants/Triggers.h</text>
</a>
</g>
</g>
<!-- Node13&#45;&gt;Node46 -->
<g id="edge63" class="edge">
<title>Node13&#45;&gt;Node46</title>
<path fill="none" stroke="#191970" d="M1024.0154,-262.9717C980.4237,-251.0991 905.8591,-230.7909 858.0396,-217.7669"/>
<polygon fill="#191970" stroke="#191970" points="858.8305,-214.3549 848.2622,-215.1039 856.9909,-221.1088 858.8305,-214.3549"/>
</g>
<!-- Node15 -->
<g id="node16" class="node">
<title>Node15</title>
<g id="a_node16"><a xlink:href="../../df/d21/GPUCommonDef_8h.html" target="_top" xlink:title="GPUCommonDef.h">
<polygon fill="none" stroke="#000000" points="558,-62 558,-81 660,-81 660,-62 558,-62"/>
<text text-anchor="middle" x="609" y="-69" font-family="Helvetica,sans-Serif" font-size="10.00" fill="#000000">GPUCommonDef.h</text>
</a>
</g>
</g>
<!-- Node14&#45;&gt;Node15 -->
<g id="edge19" class="edge">
<title>Node14&#45;&gt;Node15</title>
<path fill="none" stroke="#191970" d="M991.8421,-197.6859C896.9849,-186.3432 732.4192,-165.428 707,-154 672.9223,-138.6793 641.3665,-107.9372 623.6987,-88.6124"/>
<polygon fill="#191970" stroke="#191970" points="626.2765,-86.2443 617.0101,-81.1076 621.0507,-90.9017 626.2765,-86.2443"/>
</g>
<!-- Node18 -->
<g id="node19" class="node">
<title>Node18</title>
<g id="a_node19"><a xlink:href="../../d2/d45/GPUCommonRtypes_8h.html" target="_top" xlink:title="GPUCommonRtypes.h">
<polygon fill="none" stroke="#000000" points="1410,-62 1410,-81 1528,-81 1528,-62 1410,-62"/>
<text text-anchor="middle" x="1469" y="-69" font-family="Helvetica,sans-Serif" font-size="10.00" fill="#000000">GPUCommonRtypes.h</text>
</a>
</g>
</g>
<!-- Node14&#45;&gt;Node18 -->
<g id="edge22" class="edge">
<title>Node14&#45;&gt;Node18</title>
<path fill="none" stroke="#191970" d="M1126.1944,-199.2983C1182.1346,-192.6 1263.1486,-179.2945 1330,-154 1374.8435,-137.0326 1421.744,-105.9656 1447.9813,-87.177"/>
<polygon fill="#191970" stroke="#191970" points="1450.3305,-89.7965 1456.3628,-81.0866 1446.2156,-84.1337 1450.3305,-89.7965"/>
</g>
<!-- Node19 -->
<g id="node20" class="node">
<title>Node19</title>
<g id="a_node20"><a xlink:href="../../d4/dee/RAWDataHeader_8h.html" target="_top" xlink:title="Definition of the RAW Data Header. ">
<polygon fill="none" stroke="#000000" points="950.5,-62 950.5,-81 1091.5,-81 1091.5,-62 950.5,-62"/>
<text text-anchor="middle" x="1021" y="-69" font-family="Helvetica,sans-Serif" font-size="10.00" fill="#000000">Headers/RAWDataHeader.h</text>
</a>
</g>
</g>
<!-- Node14&#45;&gt;Node19 -->
<g id="edge24" class="edge">
<title>Node14&#45;&gt;Node19</title>
<path fill="none" stroke="#191970" d="M1054.9812,-195.7525C1050.8495,-185.4879 1044.4132,-168.7945 1040,-154 1033.7188,-132.9436 1028.2942,-108.3448 1024.8677,-91.522"/>
<polygon fill="#191970" stroke="#191970" points="1028.21,-90.3835 1022.8289,-81.2569 1021.3442,-91.7472 1028.21,-90.3835"/>
</g>
<!-- Node21 -->
<g id="node22" class="node">
<title>Node21</title>
<g id="a_node22"><a xlink:href="../../d6/d89/RDHAny_8h.html" target="_top" xlink:title="Headers/RDHAny.h">
<polygon fill="none" stroke="#000000" points="716,-129 716,-148 820,-148 820,-129 716,-129"/>
<text text-anchor="middle" x="768" y="-136" font-family="Helvetica,sans-Serif" font-size="10.00" fill="#000000">Headers/RDHAny.h</text>
</a>
</g>
</g>
<!-- Node14&#45;&gt;Node21 -->
<g id="edge26" class="edge">
<title>Node14&#45;&gt;Node21</title>
<path fill="none" stroke="#191970" d="M1017.6158,-195.9717C965.5106,-183.975 875.9963,-163.3651 819.5139,-150.3606"/>
<polygon fill="#191970" stroke="#191970" points="820.2429,-146.9369 809.7125,-148.1039 818.6723,-153.7585 820.2429,-146.9369"/>
</g>
<!-- Node14&#45;&gt;Node24 -->
<g id="edge31" class="edge">
<title>Node14&#45;&gt;Node24</title>
<path fill="none" stroke="#191970" d="M1085.3627,-195.9005C1113.1569,-185.7798 1157.6285,-169.5864 1192.261,-156.9756"/>
<polygon fill="#191970" stroke="#191970" points="1193.5473,-160.2321 1201.7462,-153.5218 1191.1522,-153.6546 1193.5473,-160.2321"/>
</g>
<!-- Node27 -->
<g id="node28" class="node">
<title>Node27</title>
<g id="a_node28"><a xlink:href="../../d7/d34/DAQID_8h.html" target="_top" xlink:title="Headers/DAQID.h">
<polygon fill="none" stroke="#000000" points="1049.5,-129 1049.5,-148 1146.5,-148 1146.5,-129 1049.5,-129"/>
<text text-anchor="middle" x="1098" y="-136" font-family="Helvetica,sans-Serif" font-size="10.00" fill="#000000">Headers/DAQID.h</text>
</a>
</g>
</g>
<!-- Node14&#45;&gt;Node27 -->
<g id="edge37" class="edge">
<title>Node14&#45;&gt;Node27</title>
<path fill="none" stroke="#191970" d="M1064.5877,-195.9005C1070.4957,-185.751 1079.9587,-169.4941 1087.3082,-156.8679"/>
<polygon fill="#191970" stroke="#191970" points="1090.4167,-158.4849 1092.4226,-148.0817 1084.367,-154.9634 1090.4167,-158.4849"/>
</g>
<!-- Node16 -->
<g id="node17" class="node">
<title>Node16</title>
<g id="a_node17"><a xlink:href="../../d5/d93/GPUCommonDefSettings_8h.html" target="_top" xlink:title="GPUCommonDefSettings.h">
<polygon fill="none" stroke="#000000" points="467,-.5 467,-19.5 605,-19.5 605,-.5 467,-.5"/>
<text text-anchor="middle" x="536" y="-7.5" font-family="Helvetica,sans-Serif" font-size="10.00" fill="#000000">GPUCommonDefSettings.h</text>
</a>
</g>
</g>
<!-- Node15&#45;&gt;Node16 -->
<g id="edge20" class="edge">
<title>Node15&#45;&gt;Node16</title>
<path fill="none" stroke="#191970" d="M597.5938,-61.8906C586.3031,-52.3786 568.8033,-37.6357 555.3381,-26.2917"/>
<polygon fill="#191970" stroke="#191970" points="557.4699,-23.5111 547.5671,-19.7449 552.9598,-28.8646 557.4699,-23.5111"/>
</g>
<!-- Node17 -->
<g id="node18" class="node">
<title>Node17</title>
<g id="a_node18"><a xlink:href="../../da/d5a/GPUCommonDefAPI_8h.html" target="_top" xlink:title="GPUCommonDefAPI.h">
<polygon fill="none" stroke="#000000" points="623.5,-.5 623.5,-19.5 742.5,-19.5 742.5,-.5 623.5,-.5"/>
<text text-anchor="middle" x="683" y="-7.5" font-family="Helvetica,sans-Serif" font-size="10.00" fill="#000000">GPUCommonDefAPI.h</text>
</a>
</g>
</g>
<!-- Node15&#45;&gt;Node17 -->
<g id="edge21" class="edge">
<title>Node15&#45;&gt;Node17</title>
<path fill="none" stroke="#191970" d="M620.5625,-61.8906C632.0079,-52.3786 649.7473,-37.6357 663.397,-26.2917"/>
<polygon fill="#191970" stroke="#191970" points="665.8208,-28.8283 671.2745,-19.7449 661.3467,-23.4447 665.8208,-28.8283"/>
</g>
<!-- Node18&#45;&gt;Node5 -->
<g id="edge23" class="edge">
<title>Node18&#45;&gt;Node5</title>
<path fill="none" stroke="#191970" d="M1505.4609,-61.9581C1549.1163,-50.5334 1621.8705,-31.4935 1666.1377,-19.9086"/>
<polygon fill="#191970" stroke="#191970" points="1667.1485,-23.2621 1675.9365,-17.3443 1665.3762,-16.4901 1667.1485,-23.2621"/>
</g>
<!-- Node20 -->
<g id="node21" class="node">
<title>Node20</title>
<polygon fill="none" stroke="#bfbfbf" points="911,-.5 911,-19.5 957,-19.5 957,-.5 911,-.5"/>
<text text-anchor="middle" x="934" y="-7.5" font-family="Helvetica,sans-Serif" font-size="10.00" fill="#000000">cstdint</text>
</g>
<!-- Node19&#45;&gt;Node20 -->
<g id="edge25" class="edge">
<title>Node19&#45;&gt;Node20</title>
<path fill="none" stroke="#191970" d="M1007.4063,-61.8906C993.6157,-52.1421 972.0528,-36.8994 955.859,-25.4521"/>
<polygon fill="#191970" stroke="#191970" points="957.6844,-22.4563 947.4983,-19.5419 953.6437,-28.1723 957.6844,-22.4563"/>
</g>
<!-- Node21&#45;&gt;Node15 -->
<g id="edge27" class="edge">
<title>Node21&#45;&gt;Node15</title>
<path fill="none" stroke="#191970" d="M745.2192,-128.9005C717.945,-117.4077 672.0868,-98.0838 641.1986,-85.068"/>
<polygon fill="#191970" stroke="#191970" points="642.313,-81.7395 631.7386,-81.0817 639.5947,-88.1902 642.313,-81.7395"/>
</g>
<!-- Node21&#45;&gt;Node19 -->
<g id="edge28" class="edge">
<title>Node21&#45;&gt;Node19</title>
<path fill="none" stroke="#191970" d="M803.98,-128.9717C848.906,-117.0743 925.8195,-96.7059 974.9871,-83.6852"/>
<polygon fill="#191970" stroke="#191970" points="975.9637,-87.0473 984.7345,-81.1039 974.1717,-80.2806 975.9637,-87.0473"/>
</g>
<!-- Node22 -->
<g id="node23" class="node">
<title>Node22</title>
<polygon fill="none" stroke="#bfbfbf" points="478,-62 478,-81 540,-81 540,-62 478,-62"/>
<text text-anchor="middle" x="509" y="-69" font-family="Helvetica,sans-Serif" font-size="10.00" fill="#000000">type_traits</text>
</g>
<!-- Node21&#45;&gt;Node22 -->
<g id="edge29" class="edge">
<title>Node21&#45;&gt;Node22</title>
<path fill="none" stroke="#191970" d="M718.7688,-128.9623C674.0372,-119.8162 606.457,-104.7939 549,-87 546.5723,-86.2482 544.081,-85.4213 541.5863,-84.5529"/>
<polygon fill="#191970" stroke="#191970" points="542.6681,-81.2218 532.0744,-81.0676 540.2597,-87.7944 542.6681,-81.2218"/>
</g>
<!-- Node23 -->
<g id="node24" class="node">
<title>Node23</title>
<polygon fill="none" stroke="#bfbfbf" points="975.5,-.5 975.5,-19.5 1034.5,-19.5 1034.5,-.5 975.5,-.5"/>
<text text-anchor="middle" x="1005" y="-7.5" font-family="Helvetica,sans-Serif" font-size="10.00" fill="#000000">stdexcept</text>
</g>
<!-- Node21&#45;&gt;Node23 -->
<g id="edge30" class="edge">
<title>Node21&#45;&gt;Node23</title>
<path fill="none" stroke="#191970" d="M760.3576,-128.9044C748.0076,-112.1739 726.7958,-77.4095 745,-56 775.4695,-20.1655 902.2991,-29.016 965.0394,-19.7261"/>
<polygon fill="#191970" stroke="#191970" points="966.0162,-23.1078 975.2537,-17.9196 964.7969,-16.2148 966.0162,-23.1078"/>
</g>
<!-- Node24&#45;&gt;Node12 -->
<g id="edge36" class="edge">
<title>Node24&#45;&gt;Node12</title>
<path fill="none" stroke="#191970" d="M1164.325,-124.5993C1161.176,-124.0566 1158.0584,-123.5217 1155,-123 1071.568,-108.7669 975.4728,-92.9994 912.2243,-82.7074"/>
<polygon fill="#191970" stroke="#191970" points="912.4065,-79.1911 901.9744,-81.0406 911.2829,-86.1004 912.4065,-79.1911"/>
</g>
<!-- Node24&#45;&gt;Node18 -->
<g id="edge32" class="edge">
<title>Node24&#45;&gt;Node18</title>
<path fill="none" stroke="#191970" d="M1293.7188,-123.4639C1333.9787,-111.5284 1389.5776,-95.0456 1427.2818,-83.8678"/>
<polygon fill="#191970" stroke="#191970" points="1428.3447,-87.2033 1436.9374,-81.0053 1426.355,-80.492 1428.3447,-87.2033"/>
</g>
<!-- Node24&#45;&gt;Node20 -->
<g id="edge34" class="edge">
<title>Node24&#45;&gt;Node20</title>
<path fill="none" stroke="#191970" d="M1207.8097,-123.3376C1187.1784,-113.8995 1160.9419,-100.9314 1139,-87 1120.3074,-75.1317 1119.7708,-65.9692 1100,-56 1047.6253,-29.5907 1027.2297,-36.4125 966.689,-20.0349"/>
<polygon fill="#191970" stroke="#191970" points="967.6125,-16.6588 957.0384,-17.3216 965.7178,-23.3976 967.6125,-16.6588"/>
</g>
<!-- Node25 -->
<g id="node26" class="node">
<title>Node25</title>
<polygon fill="none" stroke="#bfbfbf" points="1346.5,-62 1346.5,-81 1391.5,-81 1391.5,-62 1346.5,-62"/>
<text text-anchor="middle" x="1369" y="-69" font-family="Helvetica,sans-Serif" font-size="10.00" fill="#000000">iosfwd</text>
</g>
<!-- Node24&#45;&gt;Node25 -->
<g id="edge33" class="edge">
<title>Node24&#45;&gt;Node25</title>
<path fill="none" stroke="#191970" d="M1271.2769,-123.4639C1292.418,-112.2222 1321.1458,-96.9463 1341.9784,-85.8686"/>
<polygon fill="#191970" stroke="#191970" points="1343.7528,-88.8892 1350.9389,-81.1039 1340.4663,-82.7087 1343.7528,-88.8892"/>
</g>
<!-- Node26 -->
<g id="node27" class="node">
<title>Node26</title>
<polygon fill="none" stroke="#bfbfbf" points="1284,-62 1284,-81 1328,-81 1328,-62 1284,-62"/>
<text text-anchor="middle" x="1306" y="-69" font-family="Helvetica,sans-Serif" font-size="10.00" fill="#000000">cmath</text>
</g>
<!-- Node24&#45;&gt;Node26 -->
<g id="edge35" class="edge">
<title>Node24&#45;&gt;Node26</title>
<path fill="none" stroke="#191970" d="M1257.2957,-123.2967C1267.0161,-112.9591 1279.8894,-99.2684 1289.9597,-88.5588"/>
<polygon fill="#191970" stroke="#191970" points="1292.715,-90.7378 1297.0155,-81.055 1287.6154,-85.9426 1292.715,-90.7378"/>
</g>
<!-- Node28 -->
<g id="node29" class="node">
<title>Node28</title>
<g id="a_node29"><a xlink:href="../../dc/dcd/DataHeader_8h.html" target="_top" xlink:title="Headers/DataHeader.h">
<polygon fill="none" stroke="#000000" points="1148.5,-62 1148.5,-81 1265.5,-81 1265.5,-62 1148.5,-62"/>
<text text-anchor="middle" x="1207" y="-69" font-family="Helvetica,sans-Serif" font-size="10.00" fill="#000000">Headers/DataHeader.h</text>
</a>
</g>
</g>
<!-- Node27&#45;&gt;Node28 -->
<g id="edge38" class="edge">
<title>Node27&#45;&gt;Node28</title>
<path fill="none" stroke="#191970" d="M1113.617,-128.9005C1131.6669,-117.8057 1161.5896,-99.4128 1182.6908,-86.4424"/>
<polygon fill="#191970" stroke="#191970" points="1184.7255,-89.3001 1191.4119,-81.0817 1181.0598,-83.3366 1184.7255,-89.3001"/>
</g>
<!-- Node28&#45;&gt;Node4 -->
<g id="edge40" class="edge">
<title>Node28&#45;&gt;Node4</title>
<path fill="none" stroke="#191970" d="M1245.3316,-61.9877C1254.9746,-59.8089 1265.3322,-57.6509 1275,-56 1413.4654,-32.3552 1450.865,-45.5043 1589,-20 1589.9022,-19.8334 1590.8143,-19.6577 1591.7331,-19.4741"/>
<polygon fill="#191970" stroke="#191970" points="1592.6697,-22.8515 1601.6754,-17.2705 1591.1549,-16.0173 1592.6697,-22.8515"/>
</g>
<!-- Node28&#45;&gt;Node20 -->
<g id="edge39" class="edge">
<title>Node28&#45;&gt;Node20</title>
<path fill="none" stroke="#191970" d="M1162.2192,-61.9852C1102.391,-49.2664 1000.6854,-27.6196 967.1998,-19.9391"/>
<polygon fill="#191970" stroke="#191970" points="967.8878,-16.5048 957.3466,-17.5692 966.2509,-23.3107 967.8878,-16.5048"/>
</g>
<!-- Node28&#45;&gt;Node23 -->
<g id="edge44" class="edge">
<title>Node28&#45;&gt;Node23</title>
<path fill="none" stroke="#191970" d="M1175.4375,-61.8906C1140.0922,-51.1296 1082.7573,-33.6736 1044.4746,-22.0182"/>
<polygon fill="#191970" stroke="#191970" points="1045.2831,-18.6059 1034.6973,-19.0415 1043.2443,-25.3024 1045.2831,-18.6059"/>
</g>
<!-- Node28&#45;&gt;Node29 -->
<g id="edge41" class="edge">
<title>Node28&#45;&gt;Node29</title>
<path fill="none" stroke="#191970" d="M1246.4435,-61.9558C1255.7769,-59.8511 1265.7161,-57.7346 1275,-56 1380.436,-36.3002 1411.2691,-43.2068 1520.1464,-19.9183"/>
<polygon fill="#191970" stroke="#191970" points="1521.195,-23.2721 1530.222,-17.7256 1519.7064,-16.4322 1521.195,-23.2721"/>
</g>
<!-- Node30 -->
<g id="node31" class="node">
<title>Node30</title>
<polygon fill="none" stroke="#bfbfbf" points="1115,-.5 1115,-19.5 1161,-19.5 1161,-.5 1115,-.5"/>
<text text-anchor="middle" x="1138" y="-7.5" font-family="Helvetica,sans-Serif" font-size="10.00" fill="#000000">cstring</text>
</g>
<!-- Node28&#45;&gt;Node30 -->
<g id="edge42" class="edge">
<title>Node28&#45;&gt;Node30</title>
<path fill="none" stroke="#191970" d="M1196.2188,-61.8906C1185.6474,-52.4683 1169.3175,-37.9134 1156.6397,-26.6137"/>
<polygon fill="#191970" stroke="#191970" points="1158.7272,-23.7858 1148.9333,-19.7449 1154.0696,-29.0114 1158.7272,-23.7858"/>
</g>
<!-- Node31 -->
<g id="node32" class="node">
<title>Node31</title>
<polygon fill="none" stroke="#bfbfbf" points="1179,-.5 1179,-19.5 1235,-19.5 1235,-.5 1179,-.5"/>
<text text-anchor="middle" x="1207" y="-7.5" font-family="Helvetica,sans-Serif" font-size="10.00" fill="#000000">algorithm</text>
</g>
<!-- Node28&#45;&gt;Node31 -->
<g id="edge43" class="edge">
<title>Node28&#45;&gt;Node31</title>
<path fill="none" stroke="#191970" d="M1207,-61.8906C1207,-53.3657 1207,-40.6392 1207,-29.9235"/>
<polygon fill="#191970" stroke="#191970" points="1210.5001,-29.7448 1207,-19.7449 1203.5001,-29.7449 1210.5001,-29.7448"/>
</g>
<!-- Node32 -->
<g id="node33" class="node">
<title>Node32</title>
<polygon fill="none" stroke="#bfbfbf" points="1253.5,-.5 1253.5,-19.5 1294.5,-19.5 1294.5,-.5 1253.5,-.5"/>
<text text-anchor="middle" x="1274" y="-7.5" font-family="Helvetica,sans-Serif" font-size="10.00" fill="#000000">string</text>
</g>
<!-- Node28&#45;&gt;Node32 -->
<g id="edge45" class="edge">
<title>Node28&#45;&gt;Node32</title>
<path fill="none" stroke="#191970" d="M1217.4688,-61.8906C1227.7337,-52.4683 1243.5903,-37.9134 1255.9006,-26.6137"/>
<polygon fill="#191970" stroke="#191970" points="1258.3834,-29.0856 1263.3837,-19.7449 1253.6499,-23.9287 1258.3834,-29.0856"/>
</g>
<!-- Node33 -->
<g id="node34" class="node">
<title>Node33</title>
<polygon fill="none" stroke="#bfbfbf" points="1312.5,-.5 1312.5,-19.5 1357.5,-19.5 1357.5,-.5 1312.5,-.5"/>
<text text-anchor="middle" x="1335" y="-7.5" font-family="Helvetica,sans-Serif" font-size="10.00" fill="#000000">climits</text>
</g>
<!-- Node28&#45;&gt;Node33 -->
<g id="edge46" class="edge">
<title>Node28&#45;&gt;Node33</title>
<path fill="none" stroke="#191970" d="M1227,-61.8906C1248.2289,-51.6908 1281.9762,-35.4763 1306.096,-23.8875"/>
<polygon fill="#191970" stroke="#191970" points="1307.6426,-27.0275 1315.1404,-19.5419 1304.6111,-20.7179 1307.6426,-27.0275"/>
</g>
<!-- Node34 -->
<g id="node35" class="node">
<title>Node34</title>
<g id="a_node35"><a xlink:href="../../d7/df8/Types_8h.html" target="_top" xlink:title="MemoryResources/Types.h">
<polygon fill="none" stroke="#000000" points="1375.5,-.5 1375.5,-19.5 1512.5,-19.5 1512.5,-.5 1375.5,-.5"/>
<text text-anchor="middle" x="1444" y="-7.5" font-family="Helvetica,sans-Serif" font-size="10.00" fill="#000000">MemoryResources/Types.h</text>
</a>
</g>
</g>
<!-- Node28&#45;&gt;Node34 -->
<g id="edge47" class="edge">
<title>Node28&#45;&gt;Node34</title>
<path fill="none" stroke="#191970" d="M1243.7712,-61.9581C1285.1106,-51.2308 1352.3233,-33.7895 1397.3322,-22.11"/>
<polygon fill="#191970" stroke="#191970" points="1398.3422,-25.4639 1407.1425,-19.5643 1396.584,-18.6883 1398.3422,-25.4639"/>
</g>
<!-- Node35 -->
<g id="node36" class="node">
<title>Node35</title>
<polygon fill="none" stroke="#bfbfbf" points="1053,-.5 1053,-19.5 1097,-19.5 1097,-.5 1053,-.5"/>
<text text-anchor="middle" x="1075" y="-7.5" font-family="Helvetica,sans-Serif" font-size="10.00" fill="#000000">cerrno</text>
</g>
<!-- Node28&#45;&gt;Node35 -->
<g id="edge48" class="edge">
<title>Node28&#45;&gt;Node35</title>
<path fill="none" stroke="#191970" d="M1186.375,-61.8906C1164.4827,-51.6908 1129.6807,-35.4763 1104.8073,-23.8875"/>
<polygon fill="#191970" stroke="#191970" points="1106.0228,-20.5926 1095.4802,-19.5419 1103.0665,-26.9377 1106.0228,-20.5926"/>
</g>
<!-- Node37 -->
<g id="node38" class="node">
<title>Node37</title>
<polygon fill="none" stroke="#bfbfbf" points="142,-62 142,-81 186,-81 186,-62 142,-62"/>
<text text-anchor="middle" x="164" y="-69" font-family="Helvetica,sans-Serif" font-size="10.00" fill="#000000">vector</text>
</g>
<!-- Node36&#45;&gt;Node37 -->
<g id="edge50" class="edge">
<title>Node36&#45;&gt;Node37</title>
<path fill="none" stroke="#191970" d="M323.7034,-124.4482C285.3773,-115.5505 236.8132,-102.7528 195,-87 193.6275,-86.4829 192.2353,-85.9238 190.8396,-85.3353"/>
<polygon fill="#191970" stroke="#191970" points="192.2981,-82.1537 181.7499,-81.1601 189.3763,-88.5147 192.2981,-82.1537"/>
</g>
<!-- Node38 -->
<g id="node39" class="node">
<title>Node38</title>
<polygon fill="none" stroke="#bfbfbf" points="204.5,-62 204.5,-81 239.5,-81 239.5,-62 204.5,-62"/>
<text text-anchor="middle" x="222" y="-69" font-family="Helvetica,sans-Serif" font-size="10.00" fill="#000000">map</text>
</g>
<!-- Node36&#45;&gt;Node38 -->
<g id="edge51" class="edge">
<title>Node36&#45;&gt;Node38</title>
<path fill="none" stroke="#191970" d="M342.0715,-123.4685C314.0059,-114.2107 278.4159,-101.3799 248,-87 247.3052,-86.6715 246.6049,-86.33 245.902,-85.9779"/>
<polygon fill="#191970" stroke="#191970" points="247.3065,-82.7565 236.855,-81.019 243.9418,-88.8948 247.3065,-82.7565"/>
</g>
<!-- Node39 -->
<g id="node40" class="node">
<title>Node39</title>
<polygon fill="none" stroke="#bfbfbf" points="257.5,-62 257.5,-81 340.5,-81 340.5,-62 257.5,-62"/>
<text text-anchor="middle" x="299" y="-69" font-family="Helvetica,sans-Serif" font-size="10.00" fill="#000000">unordered_map</text>
</g>
<!-- Node36&#45;&gt;Node39 -->
<g id="edge52" class="edge">
<title>Node36&#45;&gt;Node39</title>
<path fill="none" stroke="#191970" d="M370.1238,-123.2967C355.2331,-112.4524 335.2757,-97.9182 320.2919,-87.006"/>
<polygon fill="#191970" stroke="#191970" points="322.2643,-84.1127 312.1203,-81.055 318.1434,-89.7712 322.2643,-84.1127"/>
</g>
<!-- Node40 -->
<g id="node41" class="node">
<title>Node40</title>
<polygon fill="none" stroke="#bfbfbf" points="358.5,-56.5 358.5,-86.5 459.5,-86.5 459.5,-56.5 358.5,-56.5"/>
<text text-anchor="start" x="366.5" y="-74.5" font-family="Helvetica,sans-Serif" font-size="10.00" fill="#000000">boost/property_tree</text>
<text text-anchor="middle" x="409" y="-63.5" font-family="Helvetica,sans-Serif" font-size="10.00" fill="#000000">/ptree.hpp</text>
</g>
<!-- Node36&#45;&gt;Node40 -->
<g id="edge53" class="edge">
<title>Node36&#45;&gt;Node40</title>
<path fill="none" stroke="#191970" d="M395.0845,-123.2967C397.2248,-115.3299 399.9001,-105.3718 402.3316,-96.3213"/>
<polygon fill="#191970" stroke="#191970" points="405.7172,-97.2088 404.9317,-86.6432 398.9569,-95.3926 405.7172,-97.2088"/>
</g>
<!-- Node41 -->
<g id="node42" class="node">
<title>Node41</title>
<polygon fill="none" stroke="#bfbfbf" points="72.5,-62 72.5,-81 123.5,-81 123.5,-62 72.5,-62"/>
<text text-anchor="middle" x="98" y="-69" font-family="Helvetica,sans-Serif" font-size="10.00" fill="#000000">typeinfo</text>
</g>
<!-- Node36&#45;&gt;Node41 -->
<g id="edge54" class="edge">
<title>Node36&#45;&gt;Node41</title>
<path fill="none" stroke="#191970" d="M323.8101,-124.9653C320.4932,-124.3001 317.2091,-123.6421 314,-123 233.5741,-106.9071 211.1948,-111.7565 133,-87 131.0993,-86.3982 129.1634,-85.7247 127.2267,-85.0044"/>
<polygon fill="#191970" stroke="#191970" points="128.2772,-81.6533 117.6953,-81.1296 125.641,-88.1379 128.2772,-81.6533"/>
</g>
<!-- Node36&#45;&gt;Node42 -->
<g id="edge55" class="edge">
<title>Node36&#45;&gt;Node42</title>
<path fill="none" stroke="#191970" d="M323.8499,-124.7517C320.5224,-124.143 317.2252,-123.5555 314,-123 202.9379,-103.8726 171.4775,-117.5495 63,-87 60.8181,-86.3855 58.5944,-85.6685 56.3768,-84.886"/>
<polygon fill="#191970" stroke="#191970" points="57.4294,-81.5395 46.8417,-81.1516 54.8766,-88.0574 57.4294,-81.5395"/>
</g>
<!-- Node43&#45;&gt;Node22 -->
<g id="edge59" class="edge">
<title>Node43&#45;&gt;Node22</title>
<path fill="none" stroke="#191970" d="M400.4771,-190.4339C423.5196,-182.5624 448.3655,-170.9208 467,-154 485.8985,-136.8395 497.5137,-109.2163 503.6085,-90.7185"/>
<polygon fill="#191970" stroke="#191970" points="506.994,-91.6162 506.5725,-81.0298 500.3002,-89.5684 506.994,-91.6162"/>
</g>
<!-- Node43&#45;&gt;Node36 -->
<g id="edge57" class="edge">
<title>Node43&#45;&gt;Node36</title>
<path fill="none" stroke="#191970" d="M348.4804,-190.2967C355.4421,-181.816 364.2564,-171.0785 372.0524,-161.5817"/>
<polygon fill="#191970" stroke="#191970" points="374.9293,-163.5932 378.569,-153.6432 369.5188,-159.1517 374.9293,-163.5932"/>
</g>
<!-- Node43&#45;&gt;Node41 -->
<g id="edge60" class="edge">
<title>Node43&#45;&gt;Node41</title>
<path fill="none" stroke="#191970" d="M268.8277,-192.1738C238.5858,-184.1823 203.3846,-171.9832 175,-154 147.9768,-136.8792 124.1009,-108.0364 110.3508,-89.3895"/>
<polygon fill="#191970" stroke="#191970" points="113.1156,-87.2389 104.4447,-81.1506 107.4264,-91.3173 113.1156,-87.2389"/>
</g>
<!-- Node44 -->
<g id="node45" class="node">
<title>Node44</title>
<polygon fill="none" stroke="#bfbfbf" points="184,-129 184,-148 240,-148 240,-129 184,-129"/>
<text text-anchor="middle" x="212" y="-136" font-family="Helvetica,sans-Serif" font-size="10.00" fill="#000000">TClass.h</text>
</g>
<!-- Node43&#45;&gt;Node44 -->
<g id="edge58" class="edge">
<title>Node43&#45;&gt;Node44</title>
<path fill="none" stroke="#191970" d="M308.172,-190.4639C287.3664,-179.2222 259.0946,-163.9463 238.5927,-152.8686"/>
<polygon fill="#191970" stroke="#191970" points="240.2361,-149.7784 229.7744,-148.1039 236.9085,-155.9369 240.2361,-149.7784"/>
</g>
<!-- Node45 -->
<g id="node46" class="node">
<title>Node45</title>
<polygon fill="none" stroke="#bfbfbf" points="258.5,-129 258.5,-148 305.5,-148 305.5,-129 258.5,-129"/>
<text text-anchor="middle" x="282" y="-136" font-family="Helvetica,sans-Serif" font-size="10.00" fill="#000000">TFile.h</text>
</g>
<!-- Node43&#45;&gt;Node45 -->
<g id="edge61" class="edge">
<title>Node43&#45;&gt;Node45</title>
<path fill="none" stroke="#191970" d="M323.7466,-190.2967C315.4965,-180.0605 304.5966,-166.5366 296.0034,-155.8746"/>
<polygon fill="#191970" stroke="#191970" points="298.7014,-153.6446 289.701,-148.055 293.2512,-158.0373 298.7014,-153.6446"/>
</g>
<!-- Node46&#45;&gt;Node20 -->
<g id="edge64" class="edge">
<title>Node46&#45;&gt;Node20</title>
<path fill="none" stroke="#191970" d="M769.068,-195.9633C746.3644,-188.5671 720.6233,-175.765 707,-154 688.7682,-124.8724 732.6663,-57.1391 734,-56 758.8499,-34.7747 850.7895,-20.3476 900.904,-13.8752"/>
<polygon fill="#191970" stroke="#191970" points="901.4387,-17.3356 910.9238,-12.6152 900.5652,-10.3903 901.4387,-17.3356"/>
</g>
<!-- Node47&#45;&gt;Node5 -->
<g id="edge66" class="edge">
<title>Node47&#45;&gt;Node5</title>
<path fill="none" stroke="#191970" d="M1732.3572,-324.4729C1723.667,-299.9428 1708,-249.6036 1708,-205.5 1708,-205.5 1708,-205.5 1708,-138.5 1708,-99.9826 1706.1823,-55.0023 1704.9976,-29.7753"/>
<polygon fill="#191970" stroke="#191970" points="1708.4878,-29.487 1704.5066,-19.6687 1701.4961,-29.8268 1708.4878,-29.487"/>
</g>
</g>
</svg>
