<?xml version="1.0" encoding="UTF-8" standalone="no"?>
<!DOCTYPE svg PUBLIC "-//W3C//DTD SVG 1.1//EN"
 "http://www.w3.org/Graphics/SVG/1.1/DTD/svg11.dtd">
<!-- Generated by graphviz version 2.40.1 (20161225.0304)
 -->
<!-- Title: /home/runner/work/AliceO2/AliceO2/Detectors/MUON/MID/Base/include/MIDBase/GeometryTransformer.h Pages: 1 -->
<svg width="1850pt" height="296pt"
 viewBox="0.00 0.00 1850.00 296.00" xmlns="http://www.w3.org/2000/svg" xmlns:xlink="http://www.w3.org/1999/xlink">
<g id="graph0" class="graph" transform="scale(1 1) rotate(0) translate(4 292)">
<title>/home/runner/work/AliceO2/AliceO2/Detectors/MUON/MID/Base/include/MIDBase/GeometryTransformer.h</title>
<!-- Node0 -->
<g id="node1" class="node">
<title>Node0</title>
<polygon fill="#bfbfbf" stroke="#000000" points="31,-235.5 31,-287.5 173,-287.5 173,-235.5 31,-235.5"/>
<text text-anchor="start" x="39" y="-275.5" font-family="Helvetica,sans-Serif" font-size="10.00" fill="#000000">/home/runner/work/AliceO2</text>
<text text-anchor="start" x="39" y="-264.5" font-family="Helvetica,sans-Serif" font-size="10.00" fill="#000000">/AliceO2/Detectors/MUON</text>
<text text-anchor="start" x="39" y="-253.5" font-family="Helvetica,sans-Serif" font-size="10.00" fill="#000000">/MID/Base/include/MIDBase</text>
<text text-anchor="middle" x="102" y="-242.5" font-family="Helvetica,sans-Serif" font-size="10.00" fill="#000000">/GeometryTransformer.h</text>
</g>
<!-- Node1 -->
<g id="node2" class="node">
<title>Node1</title>
<polygon fill="none" stroke="#bfbfbf" points="0,-118 0,-137 38,-137 38,-118 0,-118"/>
<text text-anchor="middle" x="19" y="-125" font-family="Helvetica,sans-Serif" font-size="10.00" fill="#000000">array</text>
</g>
<!-- Node0&#45;&gt;Node1 -->
<g id="edge1" class="edge">
<title>Node0&#45;&gt;Node1</title>
<path fill="none" stroke="#191970" d="M48.2811,-235.3285C34.6187,-225.8882 21.6513,-213.8189 14,-199 5.7311,-182.9851 8.4199,-162.2036 12.3138,-147.1761"/>
<polygon fill="#191970" stroke="#191970" points="15.7249,-147.984 15.2226,-137.4011 9.0157,-145.9874 15.7249,-147.984"/>
</g>
<!-- Node2 -->
<g id="node3" class="node">
<title>Node2</title>
<g id="a_node3"><a xlink:href="../../dc/de4/DetectorParameters_8h.html" target="_top" xlink:title="Useful detector parameters for MID. ">
<polygon fill="none" stroke="#000000" points="23.5,-179.5 23.5,-198.5 180.5,-198.5 180.5,-179.5 23.5,-179.5"/>
<text text-anchor="middle" x="102" y="-186.5" font-family="Helvetica,sans-Serif" font-size="10.00" fill="#000000">MIDBase/DetectorParameters.h</text>
</a>
</g>
</g>
<!-- Node0&#45;&gt;Node2 -->
<g id="edge2" class="edge">
<title>Node0&#45;&gt;Node2</title>
<path fill="none" stroke="#191970" d="M102,-235.3258C102,-226.5142 102,-216.8397 102,-208.621"/>
<polygon fill="#191970" stroke="#191970" points="105.5001,-208.534 102,-198.534 98.5001,-208.534 105.5001,-208.534"/>
</g>
<!-- Node4 -->
<g id="node5" class="node">
<title>Node4</title>
<g id="a_node5"><a xlink:href="../../dc/d73/Cartesian_8h.html" target="_top" xlink:title="MathUtils/Cartesian.h">
<polygon fill="none" stroke="#000000" points="1030,-179.5 1030,-198.5 1142,-198.5 1142,-179.5 1030,-179.5"/>
<text text-anchor="middle" x="1086" y="-186.5" font-family="Helvetica,sans-Serif" font-size="10.00" fill="#000000">MathUtils/Cartesian.h</text>
</a>
</g>
</g>
<!-- Node0&#45;&gt;Node4 -->
<g id="edge5" class="edge">
<title>Node0&#45;&gt;Node4</title>
<path fill="none" stroke="#191970" d="M173.1627,-256.2568C356.3459,-242.7601 842.1735,-206.9649 1019.779,-193.8791"/>
<polygon fill="#191970" stroke="#191970" points="1020.0537,-197.3684 1029.7694,-193.143 1019.5392,-190.3874 1020.0537,-197.3684"/>
</g>
<!-- Node2&#45;&gt;Node1 -->
<g id="edge3" class="edge">
<title>Node2&#45;&gt;Node1</title>
<path fill="none" stroke="#191970" d="M89.0313,-179.3906C75.9966,-169.7324 55.6836,-154.6812 40.2845,-143.271"/>
<polygon fill="#191970" stroke="#191970" points="41.9961,-140.1832 31.8777,-137.0419 37.8287,-145.8075 41.9961,-140.1832"/>
</g>
<!-- Node3 -->
<g id="node4" class="node">
<title>Node3</title>
<polygon fill="none" stroke="#bfbfbf" points="68.5,-118 68.5,-137 109.5,-137 109.5,-118 68.5,-118"/>
<text text-anchor="middle" x="89" y="-125" font-family="Helvetica,sans-Serif" font-size="10.00" fill="#000000">string</text>
</g>
<!-- Node2&#45;&gt;Node3 -->
<g id="edge4" class="edge">
<title>Node2&#45;&gt;Node3</title>
<path fill="none" stroke="#191970" d="M99.9688,-179.3906C98.1478,-170.776 95.4198,-157.8708 93.1401,-147.0858"/>
<polygon fill="#191970" stroke="#191970" points="96.5524,-146.3048 91.0599,-137.2449 89.7038,-147.7525 96.5524,-146.3048"/>
</g>
<!-- Node5 -->
<g id="node6" class="node">
<title>Node5</title>
<g id="a_node6"><a xlink:href="../../df/d21/GPUCommonDef_8h.html" target="_top" xlink:title="GPUCommonDef.h">
<polygon fill="none" stroke="#000000" points="1592,-56.5 1592,-75.5 1694,-75.5 1694,-56.5 1592,-56.5"/>
<text text-anchor="middle" x="1643" y="-63.5" font-family="Helvetica,sans-Serif" font-size="10.00" fill="#000000">GPUCommonDef.h</text>
</a>
</g>
</g>
<!-- Node4&#45;&gt;Node5 -->
<g id="edge6" class="edge">
<title>Node4&#45;&gt;Node5</title>
<path fill="none" stroke="#191970" d="M1142.2433,-186.67C1286.3817,-180.428 1658.9812,-162.4758 1677,-143 1692.8631,-125.8542 1675.6614,-100.1003 1660.501,-83.1725"/>
<polygon fill="#191970" stroke="#191970" points="1662.7935,-80.5029 1653.3765,-75.6478 1657.7104,-85.3157 1662.7935,-80.5029"/>
</g>
<!-- Node8 -->
<g id="node9" class="node">
<title>Node8</title>
<g id="a_node9"><a xlink:href="../../d2/d45/GPUCommonRtypes_8h.html" target="_top" xlink:title="GPUCommonRtypes.h">
<polygon fill="none" stroke="#000000" points="1724,-118 1724,-137 1842,-137 1842,-118 1724,-118"/>
<text text-anchor="middle" x="1783" y="-125" font-family="Helvetica,sans-Serif" font-size="10.00" fill="#000000">GPUCommonRtypes.h</text>
</a>
</g>
</g>
<!-- Node4&#45;&gt;Node8 -->
<g id="edge9" class="edge">
<title>Node4&#45;&gt;Node8</title>
<path fill="none" stroke="#191970" d="M1142.2087,-187.4104C1251.8849,-183.7453 1501.9041,-172.6231 1710,-143 1717.4917,-141.9335 1725.3647,-140.5469 1733.0551,-139.0417"/>
<polygon fill="#191970" stroke="#191970" points="1733.9132,-142.4388 1743.0124,-137.0116 1732.5147,-135.5799 1733.9132,-142.4388"/>
</g>
<!-- Node10 -->
<g id="node11" class="node">
<title>Node10</title>
<polygon fill="none" stroke="#bfbfbf" points="127.5,-112.5 127.5,-142.5 278.5,-142.5 278.5,-112.5 127.5,-112.5"/>
<text text-anchor="start" x="135.5" y="-130.5" font-family="Helvetica,sans-Serif" font-size="10.00" fill="#000000">Math/GenVector/Displacement</text>
<text text-anchor="middle" x="203" y="-119.5" font-family="Helvetica,sans-Serif" font-size="10.00" fill="#000000">Vector3D.h</text>
</g>
<!-- Node4&#45;&gt;Node10 -->
<g id="edge11" class="edge">
<title>Node4&#45;&gt;Node10</title>
<path fill="none" stroke="#191970" d="M1029.6767,-188.1271C900.4812,-185.6134 572.7592,-176.3289 289.005,-143.0182"/>
<polygon fill="#191970" stroke="#191970" points="289.2726,-139.5255 278.9299,-141.8231 288.448,-146.4768 289.2726,-139.5255"/>
</g>
<!-- Node11 -->
<g id="node12" class="node">
<title>Node11</title>
<polygon fill="none" stroke="#bfbfbf" points="297,-118 297,-137 473,-137 473,-118 297,-118"/>
<text text-anchor="middle" x="385" y="-125" font-family="Helvetica,sans-Serif" font-size="10.00" fill="#000000">Math/GenVector/PositionVector3D.h</text>
</g>
<!-- Node4&#45;&gt;Node11 -->
<g id="edge12" class="edge">
<title>Node4&#45;&gt;Node11</title>
<path fill="none" stroke="#191970" d="M1029.9631,-186.319C922.9836,-180.8509 682.3658,-166.8684 481,-143 470.6456,-141.7727 459.6996,-140.2354 449.0503,-138.6091"/>
<polygon fill="#191970" stroke="#191970" points="449.3809,-135.1183 438.9599,-137.0298 448.2984,-142.0341 449.3809,-135.1183"/>
</g>
<!-- Node12 -->
<g id="node13" class="node">
<title>Node12</title>
<polygon fill="none" stroke="#bfbfbf" points="490.5,-118 490.5,-137 639.5,-137 639.5,-118 490.5,-118"/>
<text text-anchor="middle" x="565" y="-125" font-family="Helvetica,sans-Serif" font-size="10.00" fill="#000000">Math/GenVector/Rotation3D.h</text>
</g>
<!-- Node4&#45;&gt;Node12 -->
<g id="edge13" class="edge">
<title>Node4&#45;&gt;Node12</title>
<path fill="none" stroke="#191970" d="M1029.9509,-184.5014C946.6318,-177.4974 785.2797,-162.7157 649,-143 640.6664,-141.7944 631.8971,-140.361 623.2954,-138.8603"/>
<polygon fill="#191970" stroke="#191970" points="623.7705,-135.3898 613.3109,-137.0772 622.5398,-142.2808 623.7705,-135.3898"/>
</g>
<!-- Node13 -->
<g id="node14" class="node">
<title>Node13</title>
<polygon fill="none" stroke="#bfbfbf" points="658,-118 658,-137 814,-137 814,-118 658,-118"/>
<text text-anchor="middle" x="736" y="-125" font-family="Helvetica,sans-Serif" font-size="10.00" fill="#000000">Math/GenVector/Transform3D.h</text>
</g>
<!-- Node4&#45;&gt;Node13 -->
<g id="edge14" class="edge">
<title>Node4&#45;&gt;Node13</title>
<path fill="none" stroke="#191970" d="M1031.3388,-179.4913C978.1372,-170.2242 895.0082,-155.7118 823,-143 815.3514,-141.6498 807.3256,-140.2274 799.3709,-138.8143"/>
<polygon fill="#191970" stroke="#191970" points="799.825,-135.3402 789.3667,-137.0353 798.5994,-142.2321 799.825,-135.3402"/>
</g>
<!-- Node14 -->
<g id="node15" class="node">
<title>Node14</title>
<polygon fill="none" stroke="#bfbfbf" points="832,-118 832,-137 992,-137 992,-118 832,-118"/>
<text text-anchor="middle" x="912" y="-125" font-family="Helvetica,sans-Serif" font-size="10.00" fill="#000000">Math/GenVector/Translation3D.h</text>
</g>
<!-- Node4&#45;&gt;Node14 -->
<g id="edge15" class="edge">
<title>Node4&#45;&gt;Node14</title>
<path fill="none" stroke="#191970" d="M1058.8125,-179.3906C1029.1883,-168.92 981.6313,-152.1111 948.7082,-140.4745"/>
<polygon fill="#191970" stroke="#191970" points="949.5914,-137.0745 938.9966,-137.0419 947.2586,-143.6744 949.5914,-137.0745"/>
</g>
<!-- Node15 -->
<g id="node16" class="node">
<title>Node15</title>
<polygon fill="none" stroke="#bfbfbf" points="1010.5,-112.5 1010.5,-142.5 1161.5,-142.5 1161.5,-112.5 1010.5,-112.5"/>
<text text-anchor="start" x="1018.5" y="-130.5" font-family="Helvetica,sans-Serif" font-size="10.00" fill="#000000">Math/GenVector/Displacement</text>
<text text-anchor="middle" x="1086" y="-119.5" font-family="Helvetica,sans-Serif" font-size="10.00" fill="#000000">Vector2D.h</text>
</g>
<!-- Node4&#45;&gt;Node15 -->
<g id="edge16" class="edge">
<title>Node4&#45;&gt;Node15</title>
<path fill="none" stroke="#191970" d="M1086,-179.3906C1086,-172.2234 1086,-162.0862 1086,-152.671"/>
<polygon fill="#191970" stroke="#191970" points="1089.5001,-152.5446 1086,-142.5446 1082.5001,-152.5446 1089.5001,-152.5446"/>
</g>
<!-- Node16 -->
<g id="node17" class="node">
<title>Node16</title>
<polygon fill="none" stroke="#bfbfbf" points="1180,-118 1180,-137 1356,-137 1356,-118 1180,-118"/>
<text text-anchor="middle" x="1268" y="-125" font-family="Helvetica,sans-Serif" font-size="10.00" fill="#000000">Math/GenVector/PositionVector2D.h</text>
</g>
<!-- Node4&#45;&gt;Node16 -->
<g id="edge17" class="edge">
<title>Node4&#45;&gt;Node16</title>
<path fill="none" stroke="#191970" d="M1114.4375,-179.3906C1145.5572,-168.8749 1195.5964,-151.966 1230.0485,-140.3243"/>
<polygon fill="#191970" stroke="#191970" points="1231.4089,-143.5591 1239.7622,-137.0419 1229.168,-136.9274 1231.4089,-143.5591"/>
</g>
<!-- Node17 -->
<g id="node18" class="node">
<title>Node17</title>
<polygon fill="none" stroke="#bfbfbf" points="1374,-118 1374,-137 1450,-137 1450,-118 1374,-118"/>
<text text-anchor="middle" x="1412" y="-125" font-family="Helvetica,sans-Serif" font-size="10.00" fill="#000000">TGeoMatrix.h</text>
</g>
<!-- Node4&#45;&gt;Node17 -->
<g id="edge18" class="edge">
<title>Node4&#45;&gt;Node17</title>
<path fill="none" stroke="#191970" d="M1142.0981,-182.3535C1198.8081,-175.0278 1288.7233,-161.7454 1365,-143 1368.4418,-142.1542 1371.9947,-141.1785 1375.5336,-140.1367"/>
<polygon fill="#191970" stroke="#191970" points="1376.8563,-143.3908 1385.3658,-137.079 1374.7775,-136.7066 1376.8563,-143.3908"/>
</g>
<!-- Node18 -->
<g id="node19" class="node">
<title>Node18</title>
<polygon fill="none" stroke="#bfbfbf" points="1468.5,-118 1468.5,-137 1513.5,-137 1513.5,-118 1468.5,-118"/>
<text text-anchor="middle" x="1491" y="-125" font-family="Helvetica,sans-Serif" font-size="10.00" fill="#000000">iosfwd</text>
</g>
<!-- Node4&#45;&gt;Node18 -->
<g id="edge19" class="edge">
<title>Node4&#45;&gt;Node18</title>
<path fill="none" stroke="#191970" d="M1142.0782,-184.3517C1231.1837,-176.5845 1400.9563,-160.1244 1459,-143 1460.865,-142.4498 1462.7556,-141.8003 1464.6371,-141.0843"/>
<polygon fill="#191970" stroke="#191970" points="1466.0313,-144.2947 1473.8101,-137.1016 1463.2435,-137.8737 1466.0313,-144.2947"/>
</g>
<!-- Node19 -->
<g id="node20" class="node">
<title>Node19</title>
<g id="a_node20"><a xlink:href="../../d1/da8/GPUROOTCartesianFwd_8h.html" target="_top" xlink:title="GPUROOTCartesianFwd.h">
<polygon fill="none" stroke="#000000" points="1532,-118 1532,-137 1668,-137 1668,-118 1532,-118"/>
<text text-anchor="middle" x="1600" y="-125" font-family="Helvetica,sans-Serif" font-size="10.00" fill="#000000">GPUROOTCartesianFwd.h</text>
</a>
</g>
</g>
<!-- Node4&#45;&gt;Node19 -->
<g id="edge20" class="edge">
<title>Node4&#45;&gt;Node19</title>
<path fill="none" stroke="#191970" d="M1142.3027,-184.7089C1225.5761,-177.9895 1386.3572,-163.5891 1522,-143 1529.6782,-141.8345 1537.748,-140.4329 1545.6666,-138.9552"/>
<polygon fill="#191970" stroke="#191970" points="1546.4135,-142.3758 1555.5751,-137.0547 1545.0948,-135.5011 1546.4135,-142.3758"/>
</g>
<!-- Node6 -->
<g id="node7" class="node">
<title>Node6</title>
<g id="a_node7"><a xlink:href="../../d5/d93/GPUCommonDefSettings_8h.html" target="_top" xlink:title="GPUCommonDefSettings.h">
<polygon fill="none" stroke="#000000" points="1501,-.5 1501,-19.5 1639,-19.5 1639,-.5 1501,-.5"/>
<text text-anchor="middle" x="1570" y="-7.5" font-family="Helvetica,sans-Serif" font-size="10.00" fill="#000000">GPUCommonDefSettings.h</text>
</a>
</g>
</g>
<!-- Node5&#45;&gt;Node6 -->
<g id="edge7" class="edge">
<title>Node5&#45;&gt;Node6</title>
<path fill="none" stroke="#191970" d="M1630.2844,-56.2455C1619.398,-47.8943 1603.5117,-35.7076 1590.78,-25.9408"/>
<polygon fill="#191970" stroke="#191970" points="1592.6346,-22.9523 1582.5699,-19.6427 1588.3739,-28.5063 1592.6346,-22.9523"/>
</g>
<!-- Node7 -->
<g id="node8" class="node">
<title>Node7</title>
<g id="a_node8"><a xlink:href="../../da/d5a/GPUCommonDefAPI_8h.html" target="_top" xlink:title="GPUCommonDefAPI.h">
<polygon fill="none" stroke="#000000" points="1657.5,-.5 1657.5,-19.5 1776.5,-19.5 1776.5,-.5 1657.5,-.5"/>
<text text-anchor="middle" x="1717" y="-7.5" font-family="Helvetica,sans-Serif" font-size="10.00" fill="#000000">GPUCommonDefAPI.h</text>
</a>
</g>
</g>
<!-- Node5&#45;&gt;Node7 -->
<g id="edge8" class="edge">
<title>Node5&#45;&gt;Node7</title>
<path fill="none" stroke="#191970" d="M1655.8898,-56.2455C1666.9254,-47.8943 1683.0292,-35.7076 1695.9353,-25.9408"/>
<polygon fill="#191970" stroke="#191970" points="1698.3959,-28.4681 1704.2579,-19.6427 1694.1717,-22.8862 1698.3959,-28.4681"/>
</g>
<!-- Node9 -->
<g id="node10" class="node">
<title>Node9</title>
<polygon fill="none" stroke="#bfbfbf" points="1755,-56.5 1755,-75.5 1811,-75.5 1811,-56.5 1755,-56.5"/>
<text text-anchor="middle" x="1783" y="-63.5" font-family="Helvetica,sans-Serif" font-size="10.00" fill="#000000">Rtypes.h</text>
</g>
<!-- Node8&#45;&gt;Node9 -->
<g id="edge10" class="edge">
<title>Node8&#45;&gt;Node9</title>
<path fill="none" stroke="#191970" d="M1783,-117.8906C1783,-109.3657 1783,-96.6392 1783,-85.9235"/>
<polygon fill="#191970" stroke="#191970" points="1786.5001,-85.7448 1783,-75.7449 1779.5001,-85.7449 1786.5001,-85.7448"/>
</g>
<!-- Node19&#45;&gt;Node5 -->
<g id="edge21" class="edge">
<title>Node19&#45;&gt;Node5</title>
<path fill="none" stroke="#191970" d="M1606.7188,-117.8906C1612.993,-108.917 1622.5223,-95.2879 1630.2404,-84.2491"/>
<polygon fill="#191970" stroke="#191970" points="1633.3247,-85.9459 1636.1865,-75.7449 1627.5879,-81.9348 1633.3247,-85.9459"/>
</g>
</g>
</svg>
