<?xml version="1.0" encoding="UTF-8" standalone="no"?>
<!DOCTYPE svg PUBLIC "-//W3C//DTD SVG 1.1//EN"
 "http://www.w3.org/Graphics/SVG/1.1/DTD/svg11.dtd">
<!-- Generated by graphviz version 2.40.1 (20161225.0304)
 -->
<!-- Title: o2::mergers::ConfigEntry&lt; V, P &gt; Pages: 1 -->
<svg width="604pt" height="215pt"
 viewBox="0.00 0.00 604.00 215.00" xmlns="http://www.w3.org/2000/svg" xmlns:xlink="http://www.w3.org/1999/xlink">
<g id="graph0" class="graph" transform="scale(1 1) rotate(0) translate(4 211)">
<title>o2::mergers::ConfigEntry&lt; V, P &gt;</title>
<!-- Node0 -->
<g id="node1" class="node">
<title>Node0</title>
<polygon fill="#bfbfbf" stroke="#000000" points="225,-127.5 225,-206.5 351,-206.5 351,-127.5 225,-127.5"/>
<text text-anchor="start" x="233" y="-194.5" font-family="Helvetica,sans-Serif" font-size="10.00" fill="#000000">o2::mergers::ConfigEntry</text>
<text text-anchor="middle" x="288" y="-183.5" font-family="Helvetica,sans-Serif" font-size="10.00" fill="#000000">&lt; V, P &gt;</text>
<polyline fill="none" stroke="#000000" points="225,-176.5 351,-176.5 "/>
<text text-anchor="start" x="233" y="-164.5" font-family="Helvetica,sans-Serif" font-size="10.00" fill="#000000">+ value</text>
<text text-anchor="start" x="233" y="-153.5" font-family="Helvetica,sans-Serif" font-size="10.00" fill="#000000">+ param</text>
<polyline fill="none" stroke="#000000" points="225,-146.5 351,-146.5 "/>
<text text-anchor="middle" x="288" y="-134.5" font-family="Helvetica,sans-Serif" font-size="10.00" fill="#000000"> </text>
</g>
<!-- Node1 -->
<g id="node2" class="node">
<title>Node1</title>
<g id="a_node2"><a xlink:href="../../d1/d9c/structo2_1_1mergers_1_1ConfigEntry.html" target="_top" xlink:title="{o2::mergers::ConfigEntry\l\&lt; TopologySize, int \&gt;\n|+ value\l+ param\l|}">
<polygon fill="none" stroke="#000000" points="0,-.5 0,-79.5 126,-79.5 126,-.5 0,-.5"/>
<text text-anchor="start" x="8" y="-67.5" font-family="Helvetica,sans-Serif" font-size="10.00" fill="#000000">o2::mergers::ConfigEntry</text>
<text text-anchor="middle" x="63" y="-56.5" font-family="Helvetica,sans-Serif" font-size="10.00" fill="#000000">&lt; TopologySize, int &gt;</text>
<polyline fill="none" stroke="#000000" points="0,-49.5 126,-49.5 "/>
<text text-anchor="start" x="8" y="-37.5" font-family="Helvetica,sans-Serif" font-size="10.00" fill="#000000">+ value</text>
<text text-anchor="start" x="8" y="-26.5" font-family="Helvetica,sans-Serif" font-size="10.00" fill="#000000">+ param</text>
<polyline fill="none" stroke="#000000" points="0,-19.5 126,-19.5 "/>
<text text-anchor="middle" x="63" y="-7.5" font-family="Helvetica,sans-Serif" font-size="10.00" fill="#000000"> </text>
</a>
</g>
</g>
<!-- Node0&#45;&gt;Node1 -->
<g id="edge1" class="edge">
<title>Node0&#45;&gt;Node1</title>
<path fill="none" stroke="#ffa500" d="M214.9561,-151.8707C183.2046,-142.9182 146.7722,-129.2515 118,-109 106.8508,-101.1526 96.8062,-90.4219 88.4457,-79.7612"/>
<polygon fill="#ffa500" stroke="#ffa500" points="214.0784,-155.2591 224.646,-154.4998 215.9115,-148.5033 214.0784,-155.2591"/>
<text text-anchor="middle" x="166.5" y="-101" font-family="Helvetica,sans-Serif" font-size="10.00" fill="#000000"> &lt; TopologySize, int &gt;</text>
</g>
<!-- Node2 -->
<g id="node3" class="node">
<title>Node2</title>
<g id="a_node3"><a xlink:href="../../d1/d9c/structo2_1_1mergers_1_1ConfigEntry.html" target="_top" xlink:title="{o2::mergers::ConfigEntry\l\&lt; InputObjectsTimespan \&gt;\n|+ value\l+ param\l|}">
<polygon fill="none" stroke="#000000" points="144.5,-.5 144.5,-79.5 277.5,-79.5 277.5,-.5 144.5,-.5"/>
<text text-anchor="start" x="152.5" y="-67.5" font-family="Helvetica,sans-Serif" font-size="10.00" fill="#000000">o2::mergers::ConfigEntry</text>
<text text-anchor="middle" x="211" y="-56.5" font-family="Helvetica,sans-Serif" font-size="10.00" fill="#000000">&lt; InputObjectsTimespan &gt;</text>
<polyline fill="none" stroke="#000000" points="144.5,-49.5 277.5,-49.5 "/>
<text text-anchor="start" x="152.5" y="-37.5" font-family="Helvetica,sans-Serif" font-size="10.00" fill="#000000">+ value</text>
<text text-anchor="start" x="152.5" y="-26.5" font-family="Helvetica,sans-Serif" font-size="10.00" fill="#000000">+ param</text>
<polyline fill="none" stroke="#000000" points="144.5,-19.5 277.5,-19.5 "/>
<text text-anchor="middle" x="211" y="-7.5" font-family="Helvetica,sans-Serif" font-size="10.00" fill="#000000"> </text>
</a>
</g>
</g>
<!-- Node0&#45;&gt;Node2 -->
<g id="edge2" class="edge">
<title>Node0&#45;&gt;Node2</title>
<path fill="none" stroke="#ffa500" d="M229.7217,-119.2926C227.2373,-115.9789 224.9686,-112.5425 223,-109 218.0979,-100.1786 215.113,-89.8243 213.3176,-79.8582"/>
<polygon fill="#ffa500" stroke="#ffa500" points="227.2327,-121.7758 236.2934,-127.2673 232.6348,-117.3241 227.2327,-121.7758"/>
<text text-anchor="middle" x="283" y="-101" font-family="Helvetica,sans-Serif" font-size="10.00" fill="#000000"> &lt; InputObjectsTimespan &gt;</text>
</g>
<!-- Node3 -->
<g id="node4" class="node">
<title>Node3</title>
<g id="a_node4"><a xlink:href="../../d1/d9c/structo2_1_1mergers_1_1ConfigEntry.html" target="_top" xlink:title="{o2::mergers::ConfigEntry\l\&lt; MergedObjectTimespan \&gt;\n|+ value\l+ param\l|}">
<polygon fill="none" stroke="#000000" points="296,-.5 296,-79.5 434,-79.5 434,-.5 296,-.5"/>
<text text-anchor="start" x="304" y="-67.5" font-family="Helvetica,sans-Serif" font-size="10.00" fill="#000000">o2::mergers::ConfigEntry</text>
<text text-anchor="middle" x="365" y="-56.5" font-family="Helvetica,sans-Serif" font-size="10.00" fill="#000000">&lt; MergedObjectTimespan &gt;</text>
<polyline fill="none" stroke="#000000" points="296,-49.5 434,-49.5 "/>
<text text-anchor="start" x="304" y="-37.5" font-family="Helvetica,sans-Serif" font-size="10.00" fill="#000000">+ value</text>
<text text-anchor="start" x="304" y="-26.5" font-family="Helvetica,sans-Serif" font-size="10.00" fill="#000000">+ param</text>
<polyline fill="none" stroke="#000000" points="296,-19.5 434,-19.5 "/>
<text text-anchor="middle" x="365" y="-7.5" font-family="Helvetica,sans-Serif" font-size="10.00" fill="#000000"> </text>
</a>
</g>
</g>
<!-- Node0&#45;&gt;Node3 -->
<g id="edge3" class="edge">
<title>Node0&#45;&gt;Node3</title>
<path fill="none" stroke="#ffa500" d="M336.217,-119.231C338.6657,-115.8848 340.9537,-112.4627 343,-109 348.3094,-100.0157 352.4886,-89.6041 355.7123,-79.635"/>
<polygon fill="#ffa500" stroke="#ffa500" points="333.252,-117.3406 329.8452,-127.3728 338.7646,-121.6548 333.252,-117.3406"/>
<text text-anchor="middle" x="411.5" y="-101" font-family="Helvetica,sans-Serif" font-size="10.00" fill="#000000"> &lt; MergedObjectTimespan &gt;</text>
</g>
<!-- Node4 -->
<g id="node5" class="node">
<title>Node4</title>
<g id="a_node5"><a xlink:href="../../d1/d9c/structo2_1_1mergers_1_1ConfigEntry.html" target="_top" xlink:title="{o2::mergers::ConfigEntry\l\&lt; PublicationDecision \&gt;\n|+ value\l+ param\l|}">
<polygon fill="none" stroke="#000000" points="452,-.5 452,-79.5 578,-79.5 578,-.5 452,-.5"/>
<text text-anchor="start" x="460" y="-67.5" font-family="Helvetica,sans-Serif" font-size="10.00" fill="#000000">o2::mergers::ConfigEntry</text>
<text text-anchor="middle" x="515" y="-56.5" font-family="Helvetica,sans-Serif" font-size="10.00" fill="#000000">&lt; PublicationDecision &gt;</text>
<polyline fill="none" stroke="#000000" points="452,-49.5 578,-49.5 "/>
<text text-anchor="start" x="460" y="-37.5" font-family="Helvetica,sans-Serif" font-size="10.00" fill="#000000">+ value</text>
<text text-anchor="start" x="460" y="-26.5" font-family="Helvetica,sans-Serif" font-size="10.00" fill="#000000">+ param</text>
<polyline fill="none" stroke="#000000" points="452,-19.5 578,-19.5 "/>
<text text-anchor="middle" x="515" y="-7.5" font-family="Helvetica,sans-Serif" font-size="10.00" fill="#000000"> </text>
</a>
</g>
</g>
<!-- Node0&#45;&gt;Node4 -->
<g id="edge4" class="edge">
<title>Node0&#45;&gt;Node4</title>
<path fill="none" stroke="#ffa500" d="M361.157,-158.2723C399.3911,-150.5761 444.9668,-136.1212 478,-109 487.455,-101.2372 494.835,-90.4045 500.4304,-79.6198"/>
<polygon fill="#ffa500" stroke="#ffa500" points="360.271,-154.8778 351.0971,-160.1778 361.5739,-161.7555 360.271,-154.8778"/>
<text text-anchor="middle" x="542" y="-101" font-family="Helvetica,sans-Serif" font-size="10.00" fill="#000000"> &lt; PublicationDecision &gt;</text>
</g>
</g>
</svg>
