<?xml version="1.0" encoding="UTF-8" standalone="no"?>
<!DOCTYPE svg PUBLIC "-//W3C//DTD SVG 1.1//EN"
 "http://www.w3.org/Graphics/SVG/1.1/DTD/svg11.dtd">
<!-- Generated by graphviz version 2.40.1 (20161225.0304)
 -->
<!-- Title: o2::ft0::RawReaderFT0 Pages: 1 -->
<svg width="515pt" height="696pt"
 viewBox="0.00 0.00 514.50 696.00" xmlns="http://www.w3.org/2000/svg" xmlns:xlink="http://www.w3.org/1999/xlink">
<g id="graph0" class="graph" transform="scale(1 1) rotate(0) translate(4 692)">
<title>o2::ft0::RawReaderFT0</title>
<!-- Node4 -->
<g id="node1" class="node">
<title>Node4</title>
<polygon fill="#bfbfbf" stroke="#000000" points="202,-.5 202,-134.5 321,-134.5 321,-.5 202,-.5"/>
<text text-anchor="middle" x="261.5" y="-122.5" font-family="Helvetica,sans-Serif" font-size="10.00" fill="#000000">o2::ft0::RawReaderFT0</text>
<polyline fill="none" stroke="#000000" points="202,-115.5 321,-115.5 "/>
<text text-anchor="middle" x="261.5" y="-103.5" font-family="Helvetica,sans-Serif" font-size="10.00" fill="#000000"> </text>
<polyline fill="none" stroke="#000000" points="202,-96.5 321,-96.5 "/>
<text text-anchor="start" x="210" y="-84.5" font-family="Helvetica,sans-Serif" font-size="10.00" fill="#000000">+ RawReaderFT0()</text>
<text text-anchor="start" x="210" y="-73.5" font-family="Helvetica,sans-Serif" font-size="10.00" fill="#000000">+ RawReaderFT0()</text>
<text text-anchor="start" x="210" y="-62.5" font-family="Helvetica,sans-Serif" font-size="10.00" fill="#000000">+ RawReaderFT0()</text>
<text text-anchor="start" x="210" y="-51.5" font-family="Helvetica,sans-Serif" font-size="10.00" fill="#000000">+ ~RawReaderFT0()</text>
<text text-anchor="start" x="210" y="-40.5" font-family="Helvetica,sans-Serif" font-size="10.00" fill="#000000">+ clear()</text>
<text text-anchor="start" x="210" y="-29.5" font-family="Helvetica,sans-Serif" font-size="10.00" fill="#000000">+ accumulateDigits()</text>
<text text-anchor="start" x="210" y="-18.5" font-family="Helvetica,sans-Serif" font-size="10.00" fill="#000000">+ makeSnapshot()</text>
<text text-anchor="start" x="210" y="-7.5" font-family="Helvetica,sans-Serif" font-size="10.00" fill="#000000">+ prepareOutputSpec()</text>
</g>
<!-- Node5 -->
<g id="node2" class="node">
<title>Node5</title>
<g id="a_node2"><a xlink:href="../../d8/d79/classo2_1_1ft0_1_1RawReaderFT0Base.html" target="_top" xlink:title="{RawReaderFT0BaseNorm\n||+ RawReaderFT0Base()\l+ ~RawReaderFT0Base()\l+ process()\l}">
<polygon fill="none" stroke="#000000" points="46.5,-182.5 46.5,-261.5 178.5,-261.5 178.5,-182.5 46.5,-182.5"/>
<text text-anchor="middle" x="112.5" y="-249.5" font-family="Helvetica,sans-Serif" font-size="10.00" fill="#000000">RawReaderFT0BaseNorm</text>
<polyline fill="none" stroke="#000000" points="46.5,-242.5 178.5,-242.5 "/>
<text text-anchor="middle" x="112.5" y="-230.5" font-family="Helvetica,sans-Serif" font-size="10.00" fill="#000000"> </text>
<polyline fill="none" stroke="#000000" points="46.5,-223.5 178.5,-223.5 "/>
<text text-anchor="start" x="54.5" y="-211.5" font-family="Helvetica,sans-Serif" font-size="10.00" fill="#000000">+ RawReaderFT0Base()</text>
<text text-anchor="start" x="54.5" y="-200.5" font-family="Helvetica,sans-Serif" font-size="10.00" fill="#000000">+ ~RawReaderFT0Base()</text>
<text text-anchor="start" x="54.5" y="-189.5" font-family="Helvetica,sans-Serif" font-size="10.00" fill="#000000">+ process()</text>
</a>
</g>
</g>
<!-- Node5&#45;&gt;Node4 -->
<g id="edge1" class="edge">
<title>Node5&#45;&gt;Node4</title>
<path fill="none" stroke="#191970" d="M157.9526,-174.8696C171.7948,-160.5164 187.2233,-144.5184 201.855,-129.3466"/>
<polygon fill="none" stroke="#191970" points="155.2937,-172.5847 150.8712,-182.2124 160.3323,-177.444 155.2937,-172.5847"/>
</g>
<!-- Node6 -->
<g id="node3" class="node">
<title>Node6</title>
<g id="a_node3"><a xlink:href="../../df/de1/classo2_1_1fit_1_1RawReaderBase.html" target="_top" xlink:title="{o2::fit::RawReaderBase\l\&lt; DigitBlockFT0type \&gt;\n||+ RawReaderBase()\l+ ~RawReaderBase()\l+ decodeBlocks()\l+ processBinaryData()\l+ getDigits()\l}">
<polygon fill="none" stroke="#000000" points="51.5,-299.5 51.5,-411.5 173.5,-411.5 173.5,-299.5 51.5,-299.5"/>
<text text-anchor="start" x="59.5" y="-399.5" font-family="Helvetica,sans-Serif" font-size="10.00" fill="#000000">o2::fit::RawReaderBase</text>
<text text-anchor="middle" x="112.5" y="-388.5" font-family="Helvetica,sans-Serif" font-size="10.00" fill="#000000">&lt; DigitBlockFT0type &gt;</text>
<polyline fill="none" stroke="#000000" points="51.5,-381.5 173.5,-381.5 "/>
<text text-anchor="middle" x="112.5" y="-369.5" font-family="Helvetica,sans-Serif" font-size="10.00" fill="#000000"> </text>
<polyline fill="none" stroke="#000000" points="51.5,-362.5 173.5,-362.5 "/>
<text text-anchor="start" x="59.5" y="-350.5" font-family="Helvetica,sans-Serif" font-size="10.00" fill="#000000">+ RawReaderBase()</text>
<text text-anchor="start" x="59.5" y="-339.5" font-family="Helvetica,sans-Serif" font-size="10.00" fill="#000000">+ ~RawReaderBase()</text>
<text text-anchor="start" x="59.5" y="-328.5" font-family="Helvetica,sans-Serif" font-size="10.00" fill="#000000">+ decodeBlocks()</text>
<text text-anchor="start" x="59.5" y="-317.5" font-family="Helvetica,sans-Serif" font-size="10.00" fill="#000000">+ processBinaryData()</text>
<text text-anchor="start" x="59.5" y="-306.5" font-family="Helvetica,sans-Serif" font-size="10.00" fill="#000000">+ getDigits()</text>
</a>
</g>
</g>
<!-- Node6&#45;&gt;Node5 -->
<g id="edge2" class="edge">
<title>Node6&#45;&gt;Node5</title>
<path fill="none" stroke="#191970" d="M112.5,-289.0887C112.5,-279.6692 112.5,-270.2406 112.5,-261.5534"/>
<polygon fill="none" stroke="#191970" points="109.0001,-289.2709 112.5,-299.2709 116.0001,-289.2709 109.0001,-289.2709"/>
</g>
<!-- Node7 -->
<g id="node4" class="node">
<title>Node7</title>
<g id="a_node4"><a xlink:href="../../d8/da5/classstd_1_1map_3_01o2_1_1InteractionRecord_00_01DigitBlockFT0type_01_4.html" target="_top" xlink:title="{map\&lt; o2::InteractionRecord,\l DigitBlockFT0type \&gt;\n||}">
<polygon fill="none" stroke="#000000" points="0,-481.5 0,-549.5 141,-549.5 141,-481.5 0,-481.5"/>
<text text-anchor="start" x="8" y="-537.5" font-family="Helvetica,sans-Serif" font-size="10.00" fill="#000000">map&lt; o2::InteractionRecord,</text>
<text text-anchor="middle" x="70.5" y="-526.5" font-family="Helvetica,sans-Serif" font-size="10.00" fill="#000000"> DigitBlockFT0type &gt;</text>
<polyline fill="none" stroke="#000000" points="0,-519.5 141,-519.5 "/>
<text text-anchor="middle" x="70.5" y="-507.5" font-family="Helvetica,sans-Serif" font-size="10.00" fill="#000000"> </text>
<polyline fill="none" stroke="#000000" points="0,-500.5 141,-500.5 "/>
<text text-anchor="middle" x="70.5" y="-488.5" font-family="Helvetica,sans-Serif" font-size="10.00" fill="#000000"> </text>
</a>
</g>
</g>
<!-- Node7&#45;&gt;Node6 -->
<g id="edge3" class="edge">
<title>Node7&#45;&gt;Node6</title>
<path fill="none" stroke="#404040" d="M79.5101,-481.176C83.9221,-464.3681 89.3961,-443.5149 94.6087,-423.6573"/>
<polygon fill="none" stroke="#404040" points="94.676,-423.4008 92.3305,-416.5818 97.7228,-411.794 100.0683,-418.613 94.676,-423.4008"/>
<text text-anchor="middle" x="124.5" y="-433" font-family="Helvetica,sans-Serif" font-size="10.00" fill="#000000"> +mMapDigits</text>
</g>
<!-- Node8 -->
<g id="node5" class="node">
<title>Node8</title>
<g id="a_node5"><a xlink:href="../../df/de1/classo2_1_1fit_1_1RawReaderBase.html" target="_top" xlink:title="{o2::fit::RawReaderBase\l\&lt; DigitBlockType \&gt;\n||+ RawReaderBase()\l+ ~RawReaderBase()\l+ decodeBlocks()\l+ processBinaryData()\l+ getDigits()\l}">
<polygon fill="none" stroke="#000000" points="159.5,-459.5 159.5,-571.5 281.5,-571.5 281.5,-459.5 159.5,-459.5"/>
<text text-anchor="start" x="167.5" y="-559.5" font-family="Helvetica,sans-Serif" font-size="10.00" fill="#000000">o2::fit::RawReaderBase</text>
<text text-anchor="middle" x="220.5" y="-548.5" font-family="Helvetica,sans-Serif" font-size="10.00" fill="#000000">&lt; DigitBlockType &gt;</text>
<polyline fill="none" stroke="#000000" points="159.5,-541.5 281.5,-541.5 "/>
<text text-anchor="middle" x="220.5" y="-529.5" font-family="Helvetica,sans-Serif" font-size="10.00" fill="#000000"> </text>
<polyline fill="none" stroke="#000000" points="159.5,-522.5 281.5,-522.5 "/>
<text text-anchor="start" x="167.5" y="-510.5" font-family="Helvetica,sans-Serif" font-size="10.00" fill="#000000">+ RawReaderBase()</text>
<text text-anchor="start" x="167.5" y="-499.5" font-family="Helvetica,sans-Serif" font-size="10.00" fill="#000000">+ ~RawReaderBase()</text>
<text text-anchor="start" x="167.5" y="-488.5" font-family="Helvetica,sans-Serif" font-size="10.00" fill="#000000">+ decodeBlocks()</text>
<text text-anchor="start" x="167.5" y="-477.5" font-family="Helvetica,sans-Serif" font-size="10.00" fill="#000000">+ processBinaryData()</text>
<text text-anchor="start" x="167.5" y="-466.5" font-family="Helvetica,sans-Serif" font-size="10.00" fill="#000000">+ getDigits()</text>
</a>
</g>
</g>
<!-- Node8&#45;&gt;Node6 -->
<g id="edge4" class="edge">
<title>Node8&#45;&gt;Node6</title>
<path fill="none" stroke="#ffa500" d="M176.7516,-450.6876C168.0244,-437.7583 158.9262,-424.2796 150.4148,-411.6701"/>
<polygon fill="#ffa500" stroke="#ffa500" points="173.9275,-452.7597 182.4232,-459.09 179.7294,-448.8433 173.9275,-452.7597"/>
<text text-anchor="middle" x="222" y="-433" font-family="Helvetica,sans-Serif" font-size="10.00" fill="#000000"> &lt; DigitBlockFT0type &gt;</text>
</g>
<!-- Node9 -->
<g id="node6" class="node">
<title>Node9</title>
<polygon fill="none" stroke="#bfbfbf" points="150,-619.5 150,-687.5 291,-687.5 291,-619.5 150,-619.5"/>
<text text-anchor="start" x="158" y="-675.5" font-family="Helvetica,sans-Serif" font-size="10.00" fill="#000000">map&lt; o2::InteractionRecord,</text>
<text text-anchor="middle" x="220.5" y="-664.5" font-family="Helvetica,sans-Serif" font-size="10.00" fill="#000000"> DigitBlockType &gt;</text>
<polyline fill="none" stroke="#bfbfbf" points="150,-657.5 291,-657.5 "/>
<text text-anchor="middle" x="220.5" y="-645.5" font-family="Helvetica,sans-Serif" font-size="10.00" fill="#000000"> </text>
<polyline fill="none" stroke="#bfbfbf" points="150,-638.5 291,-638.5 "/>
<text text-anchor="middle" x="220.5" y="-626.5" font-family="Helvetica,sans-Serif" font-size="10.00" fill="#000000"> </text>
</g>
<!-- Node9&#45;&gt;Node8 -->
<g id="edge5" class="edge">
<title>Node9&#45;&gt;Node8</title>
<path fill="none" stroke="#404040" d="M220.5,-619.3876C220.5,-608.5526 220.5,-596.1601 220.5,-583.7976"/>
<polygon fill="none" stroke="#404040" points="220.5001,-583.504 216.5,-577.504 220.5,-571.504 224.5,-577.5039 220.5001,-583.504"/>
<text text-anchor="middle" x="251.5" y="-593" font-family="Helvetica,sans-Serif" font-size="10.00" fill="#000000"> +mMapDigits</text>
</g>
<!-- Node10 -->
<g id="node7" class="node">
<title>Node10</title>
<polygon fill="none" stroke="#bfbfbf" points="197,-193.5 197,-250.5 232,-250.5 232,-193.5 197,-193.5"/>
<text text-anchor="middle" x="214.5" y="-238.5" font-family="Helvetica,sans-Serif" font-size="10.00" fill="#000000">bool</text>
<polyline fill="none" stroke="#bfbfbf" points="197,-231.5 232,-231.5 "/>
<text text-anchor="middle" x="214.5" y="-219.5" font-family="Helvetica,sans-Serif" font-size="10.00" fill="#000000"> </text>
<polyline fill="none" stroke="#bfbfbf" points="197,-212.5 232,-212.5 "/>
<text text-anchor="middle" x="214.5" y="-200.5" font-family="Helvetica,sans-Serif" font-size="10.00" fill="#000000"> </text>
</g>
<!-- Node10&#45;&gt;Node4 -->
<g id="edge6" class="edge">
<title>Node10&#45;&gt;Node4</title>
<path fill="none" stroke="#404040" d="M215.2466,-193.4041C216.1231,-180.8313 217.9115,-165.9993 221.5,-153 222.1214,-150.7489 222.7976,-148.4835 223.5205,-146.2124"/>
<polygon fill="none" stroke="#404040" points="223.5324,-146.1781 221.7334,-139.195 227.4874,-134.8485 229.2864,-141.8317 223.5324,-146.1781"/>
<text text-anchor="middle" x="254" y="-156" font-family="Helvetica,sans-Serif" font-size="10.00" fill="#000000"> +mDumpData</text>
</g>
<!-- Node11 -->
<g id="node8" class="node">
<title>Node11</title>
<polygon fill="none" stroke="#bfbfbf" points="250.5,-193.5 250.5,-250.5 366.5,-250.5 366.5,-193.5 250.5,-193.5"/>
<text text-anchor="middle" x="308.5" y="-238.5" font-family="Helvetica,sans-Serif" font-size="10.00" fill="#000000">vector&lt; o2::ft0::Digit &gt;</text>
<polyline fill="none" stroke="#bfbfbf" points="250.5,-231.5 366.5,-231.5 "/>
<text text-anchor="middle" x="308.5" y="-219.5" font-family="Helvetica,sans-Serif" font-size="10.00" fill="#000000"> </text>
<polyline fill="none" stroke="#bfbfbf" points="250.5,-212.5 366.5,-212.5 "/>
<text text-anchor="middle" x="308.5" y="-200.5" font-family="Helvetica,sans-Serif" font-size="10.00" fill="#000000"> </text>
</g>
<!-- Node11&#45;&gt;Node4 -->
<g id="edge7" class="edge">
<title>Node11&#45;&gt;Node4</title>
<path fill="none" stroke="#404040" d="M299.7698,-193.3018C295.6716,-179.8301 290.5656,-163.0455 285.4321,-146.1705"/>
<polygon fill="none" stroke="#404040" points="285.3783,-145.9935 279.8052,-141.4174 281.8858,-134.513 287.4589,-139.089 285.3783,-145.9935"/>
<text text-anchor="middle" x="321" y="-156" font-family="Helvetica,sans-Serif" font-size="10.00" fill="#000000"> +mVecDigits</text>
</g>
<!-- Node12 -->
<g id="node9" class="node">
<title>Node12</title>
<polygon fill="none" stroke="#bfbfbf" points="384.5,-188 384.5,-256 506.5,-256 506.5,-188 384.5,-188"/>
<text text-anchor="start" x="392.5" y="-244" font-family="Helvetica,sans-Serif" font-size="10.00" fill="#000000">vector&lt; o2::ft0::Channel</text>
<text text-anchor="middle" x="445.5" y="-233" font-family="Helvetica,sans-Serif" font-size="10.00" fill="#000000">Data &gt;</text>
<polyline fill="none" stroke="#bfbfbf" points="384.5,-226 506.5,-226 "/>
<text text-anchor="middle" x="445.5" y="-214" font-family="Helvetica,sans-Serif" font-size="10.00" fill="#000000"> </text>
<polyline fill="none" stroke="#bfbfbf" points="384.5,-207 506.5,-207 "/>
<text text-anchor="middle" x="445.5" y="-195" font-family="Helvetica,sans-Serif" font-size="10.00" fill="#000000"> </text>
</g>
<!-- Node12&#45;&gt;Node4 -->
<g id="edge8" class="edge">
<title>Node12&#45;&gt;Node4</title>
<path fill="none" stroke="#404040" d="M404.6644,-187.7114C382.884,-169.423 355.4938,-146.4241 330.518,-125.4526"/>
<polygon fill="none" stroke="#404040" points="330.2706,-125.2449 323.1035,-124.45 321.0807,-117.5283 328.2479,-118.3233 330.2706,-125.2449"/>
<text text-anchor="middle" x="420.5" y="-156" font-family="Helvetica,sans-Serif" font-size="10.00" fill="#000000"> +mVecChannelData</text>
</g>
</g>
</svg>
