<?xml version="1.0" encoding="UTF-8" standalone="no"?>
<!DOCTYPE svg PUBLIC "-//W3C//DTD SVG 1.1//EN"
 "http://www.w3.org/Graphics/SVG/1.1/DTD/svg11.dtd">
<!-- Generated by graphviz version 2.40.1 (20161225.0304)
 -->
<!-- Title: /home/runner/work/AliceO2/AliceO2/Detectors/MUON/MCH/Tracking/src/Cluster.cxx Pages: 1 -->
<svg width="254pt" height="218pt"
 viewBox="0.00 0.00 253.50 218.00" xmlns="http://www.w3.org/2000/svg" xmlns:xlink="http://www.w3.org/1999/xlink">
<g id="graph0" class="graph" transform="scale(1 1) rotate(0) translate(4 214)">
<title>/home/runner/work/AliceO2/AliceO2/Detectors/MUON/MCH/Tracking/src/Cluster.cxx</title>
<!-- Node0 -->
<g id="node1" class="node">
<title>Node0</title>
<polygon fill="#bfbfbf" stroke="#000000" points="0,-168.5 0,-209.5 153,-209.5 153,-168.5 0,-168.5"/>
<text text-anchor="start" x="8" y="-197.5" font-family="Helvetica,sans-Serif" font-size="10.00" fill="#000000">/home/runner/work/AliceO2</text>
<text text-anchor="start" x="8" y="-186.5" font-family="Helvetica,sans-Serif" font-size="10.00" fill="#000000">/AliceO2/Detectors/MUON</text>
<text text-anchor="middle" x="76.5" y="-175.5" font-family="Helvetica,sans-Serif" font-size="10.00" fill="#000000">/MCH/Tracking/src/Cluster.cxx</text>
</g>
<!-- Node1 -->
<g id="node2" class="node">
<title>Node1</title>
<g id="a_node2"><a xlink:href="../../d3/d5c/Detectors_2MUON_2MCH_2Tracking_2include_2MCHTracking_2Cluster_8h.html" target="_top" xlink:title="MCHTracking/Cluster.h">
<polygon fill="none" stroke="#000000" points="16.5,-112.5 16.5,-131.5 136.5,-131.5 136.5,-112.5 16.5,-112.5"/>
<text text-anchor="middle" x="76.5" y="-119.5" font-family="Helvetica,sans-Serif" font-size="10.00" fill="#000000">MCHTracking/Cluster.h</text>
</a>
</g>
</g>
<!-- Node0&#45;&gt;Node1 -->
<g id="edge1" class="edge">
<title>Node0&#45;&gt;Node1</title>
<path fill="none" stroke="#191970" d="M76.5,-168.168C76.5,-159.8226 76.5,-150.2471 76.5,-141.9879"/>
<polygon fill="#191970" stroke="#191970" points="80.0001,-141.7804 76.5,-131.7805 73.0001,-141.7805 80.0001,-141.7804"/>
</g>
<!-- Node2 -->
<g id="node3" class="node">
<title>Node2</title>
<polygon fill="none" stroke="#bfbfbf" points="76.5,-.5 76.5,-19.5 130.5,-19.5 130.5,-.5 76.5,-.5"/>
<text text-anchor="middle" x="103.5" y="-7.5" font-family="Helvetica,sans-Serif" font-size="10.00" fill="#000000">iostream</text>
</g>
<!-- Node1&#45;&gt;Node2 -->
<g id="edge2" class="edge">
<title>Node1&#45;&gt;Node2</title>
<path fill="none" stroke="#191970" d="M66.3307,-112.1051C54.3086,-99.1486 37.055,-75.7592 46.5,-56 52.6448,-43.1449 64.3299,-32.7306 75.5285,-25.0832"/>
<polygon fill="#191970" stroke="#191970" points="77.7041,-27.8488 84.29,-19.5495 73.9661,-21.9304 77.7041,-27.8488"/>
</g>
<!-- Node3 -->
<g id="node4" class="node">
<title>Node3</title>
<polygon fill="none" stroke="#bfbfbf" points="56,-56.5 56,-75.5 97,-75.5 97,-56.5 56,-56.5"/>
<text text-anchor="middle" x="76.5" y="-63.5" font-family="Helvetica,sans-Serif" font-size="10.00" fill="#000000">string</text>
</g>
<!-- Node1&#45;&gt;Node3 -->
<g id="edge3" class="edge">
<title>Node1&#45;&gt;Node3</title>
<path fill="none" stroke="#191970" d="M76.5,-112.2455C76.5,-104.9382 76.5,-94.6944 76.5,-85.7046"/>
<polygon fill="#191970" stroke="#191970" points="80.0001,-85.6426 76.5,-75.6427 73.0001,-85.6427 80.0001,-85.6426"/>
</g>
<!-- Node4 -->
<g id="node5" class="node">
<title>Node4</title>
<g id="a_node5"><a xlink:href="../../d3/db8/ClusterBlock_8h.html" target="_top" xlink:title="Definition of the MCH cluster minimal structure. ">
<polygon fill="none" stroke="#000000" points="115.5,-56.5 115.5,-75.5 245.5,-75.5 245.5,-56.5 115.5,-56.5"/>
<text text-anchor="middle" x="180.5" y="-63.5" font-family="Helvetica,sans-Serif" font-size="10.00" fill="#000000">MCHBase/ClusterBlock.h</text>
</a>
</g>
</g>
<!-- Node1&#45;&gt;Node4 -->
<g id="edge4" class="edge">
<title>Node1&#45;&gt;Node4</title>
<path fill="none" stroke="#191970" d="M94.6154,-112.2455C110.945,-103.4527 135.171,-90.4079 153.7339,-80.4125"/>
<polygon fill="#191970" stroke="#191970" points="155.4468,-83.4654 162.5922,-75.6427 152.1281,-77.3021 155.4468,-83.4654"/>
</g>
<!-- Node4&#45;&gt;Node2 -->
<g id="edge5" class="edge">
<title>Node4&#45;&gt;Node2</title>
<path fill="none" stroke="#191970" d="M167.0876,-56.2455C155.4943,-47.814 138.5252,-35.4729 125.0322,-25.6598"/>
<polygon fill="#191970" stroke="#191970" points="126.9047,-22.6938 116.7587,-19.6427 122.7874,-28.355 126.9047,-22.6938"/>
</g>
</g>
</svg>
