<?xml version="1.0" encoding="UTF-8" standalone="no"?>
<!DOCTYPE svg PUBLIC "-//W3C//DTD SVG 1.1//EN"
 "http://www.w3.org/Graphics/SVG/1.1/DTD/svg11.dtd">
<!-- Generated by graphviz version 2.40.1 (20161225.0304)
 -->
<!-- Title: /home/runner/work/AliceO2/AliceO2/Utilities/Mergers/src/MergerAlgorithm.cxx Pages: 1 -->
<svg width="751pt" height="218pt"
 viewBox="0.00 0.00 750.50 218.00" xmlns="http://www.w3.org/2000/svg" xmlns:xlink="http://www.w3.org/1999/xlink">
<g id="graph0" class="graph" transform="scale(1 1) rotate(0) translate(4 214)">
<title>/home/runner/work/AliceO2/AliceO2/Utilities/Mergers/src/MergerAlgorithm.cxx</title>
<!-- Node0 -->
<g id="node1" class="node">
<title>Node0</title>
<polygon fill="#bfbfbf" stroke="#000000" points="299.5,-168.5 299.5,-209.5 434.5,-209.5 434.5,-168.5 299.5,-168.5"/>
<text text-anchor="start" x="307.5" y="-197.5" font-family="Helvetica,sans-Serif" font-size="10.00" fill="#000000">/home/runner/work/AliceO2</text>
<text text-anchor="start" x="307.5" y="-186.5" font-family="Helvetica,sans-Serif" font-size="10.00" fill="#000000">/AliceO2/Utilities/Mergers</text>
<text text-anchor="middle" x="367" y="-175.5" font-family="Helvetica,sans-Serif" font-size="10.00" fill="#000000">/src/MergerAlgorithm.cxx</text>
</g>
<!-- Node1 -->
<g id="node2" class="node">
<title>Node1</title>
<g id="a_node2"><a xlink:href="../../d4/d78/MergerAlgorithm_8h.html" target="_top" xlink:title="Algorithms for merging objects. ">
<polygon fill="none" stroke="#000000" points="0,-112.5 0,-131.5 134,-131.5 134,-112.5 0,-112.5"/>
<text text-anchor="middle" x="67" y="-119.5" font-family="Helvetica,sans-Serif" font-size="10.00" fill="#000000">Mergers/MergerAlgorithm.h</text>
</a>
</g>
</g>
<!-- Node0&#45;&gt;Node1 -->
<g id="edge1" class="edge">
<title>Node0&#45;&gt;Node1</title>
<path fill="none" stroke="#191970" d="M299.3001,-173.8804C244.9764,-161.7481 169.7944,-144.9574 119.8427,-133.8015"/>
<polygon fill="#191970" stroke="#191970" points="120.4155,-130.3433 109.893,-131.5794 118.8897,-137.175 120.4155,-130.3433"/>
</g>
<!-- Node2 -->
<g id="node3" class="node">
<title>Node2</title>
<g id="a_node3"><a xlink:href="../../de/d80/MergeInterface_8h.html" target="_top" xlink:title="Definition of O2 Mergers merging interface, v0.1. ">
<polygon fill="none" stroke="#000000" points="50,-56.5 50,-75.5 178,-75.5 178,-56.5 50,-56.5"/>
<text text-anchor="middle" x="114" y="-63.5" font-family="Helvetica,sans-Serif" font-size="10.00" fill="#000000">Mergers/MergeInterface.h</text>
</a>
</g>
</g>
<!-- Node0&#45;&gt;Node2 -->
<g id="edge4" class="edge">
<title>Node0&#45;&gt;Node2</title>
<path fill="none" stroke="#191970" d="M299.2172,-176.4817C262.4575,-167.7159 217.2618,-153.6193 181,-132 159.6632,-119.279 140.0235,-98.3675 127.5996,-83.4937"/>
<polygon fill="#191970" stroke="#191970" points="130.1734,-81.1104 121.1602,-75.5414 124.7333,-85.5156 130.1734,-81.1104"/>
</g>
<!-- Node4 -->
<g id="node5" class="node">
<title>Node4</title>
<polygon fill="none" stroke="#bfbfbf" points="190,-112.5 190,-131.5 234,-131.5 234,-112.5 190,-112.5"/>
<text text-anchor="middle" x="212" y="-119.5" font-family="Helvetica,sans-Serif" font-size="10.00" fill="#000000">TH1.h</text>
</g>
<!-- Node0&#45;&gt;Node4 -->
<g id="edge5" class="edge">
<title>Node0&#45;&gt;Node4</title>
<path fill="none" stroke="#191970" d="M319.2301,-168.3511C294.7006,-157.748 265.4876,-145.1204 243.7521,-135.7251"/>
<polygon fill="#191970" stroke="#191970" points="244.9033,-132.4098 234.3354,-131.6546 242.1258,-138.8352 244.9033,-132.4098"/>
</g>
<!-- Node5 -->
<g id="node6" class="node">
<title>Node5</title>
<polygon fill="none" stroke="#bfbfbf" points="252,-112.5 252,-131.5 296,-131.5 296,-112.5 252,-112.5"/>
<text text-anchor="middle" x="274" y="-119.5" font-family="Helvetica,sans-Serif" font-size="10.00" fill="#000000">TH2.h</text>
</g>
<!-- Node0&#45;&gt;Node5 -->
<g id="edge6" class="edge">
<title>Node0&#45;&gt;Node5</title>
<path fill="none" stroke="#191970" d="M338.3381,-168.3511C324.5485,-158.4167 308.2921,-146.7051 295.5702,-137.5398"/>
<polygon fill="#191970" stroke="#191970" points="297.5608,-134.6602 287.4012,-131.6546 293.469,-140.3398 297.5608,-134.6602"/>
</g>
<!-- Node6 -->
<g id="node7" class="node">
<title>Node6</title>
<polygon fill="none" stroke="#bfbfbf" points="314,-112.5 314,-131.5 358,-131.5 358,-112.5 314,-112.5"/>
<text text-anchor="middle" x="336" y="-119.5" font-family="Helvetica,sans-Serif" font-size="10.00" fill="#000000">TH3.h</text>
</g>
<!-- Node0&#45;&gt;Node6 -->
<g id="edge7" class="edge">
<title>Node0&#45;&gt;Node6</title>
<path fill="none" stroke="#191970" d="M357.3613,-168.168C353.3245,-159.4433 348.6656,-149.374 344.7309,-140.87"/>
<polygon fill="#191970" stroke="#191970" points="347.901,-139.3864 340.5253,-131.7805 341.548,-142.3258 347.901,-139.3864"/>
</g>
<!-- Node7 -->
<g id="node8" class="node">
<title>Node7</title>
<polygon fill="none" stroke="#bfbfbf" points="376,-112.5 376,-131.5 420,-131.5 420,-112.5 376,-112.5"/>
<text text-anchor="middle" x="398" y="-119.5" font-family="Helvetica,sans-Serif" font-size="10.00" fill="#000000">THn.h</text>
</g>
<!-- Node0&#45;&gt;Node7 -->
<g id="edge8" class="edge">
<title>Node0&#45;&gt;Node7</title>
<path fill="none" stroke="#191970" d="M376.6387,-168.168C380.6755,-159.4433 385.3344,-149.374 389.2691,-140.87"/>
<polygon fill="#191970" stroke="#191970" points="392.452,-142.3258 393.4747,-131.7805 386.099,-139.3864 392.452,-142.3258"/>
</g>
<!-- Node8 -->
<g id="node9" class="node">
<title>Node8</title>
<polygon fill="none" stroke="#bfbfbf" points="438,-112.5 438,-131.5 488,-131.5 488,-112.5 438,-112.5"/>
<text text-anchor="middle" x="463" y="-119.5" font-family="Helvetica,sans-Serif" font-size="10.00" fill="#000000">TTree.h</text>
</g>
<!-- Node0&#45;&gt;Node8 -->
<g id="edge9" class="edge">
<title>Node0&#45;&gt;Node8</title>
<path fill="none" stroke="#191970" d="M396.5865,-168.3511C410.8209,-158.4167 427.6017,-146.7051 440.734,-137.5398"/>
<polygon fill="#191970" stroke="#191970" points="442.9693,-140.248 449.1665,-131.6546 438.963,-134.5077 442.9693,-140.248"/>
</g>
<!-- Node9 -->
<g id="node10" class="node">
<title>Node9</title>
<polygon fill="none" stroke="#bfbfbf" points="506,-112.5 506,-131.5 580,-131.5 580,-112.5 506,-112.5"/>
<text text-anchor="middle" x="543" y="-119.5" font-family="Helvetica,sans-Serif" font-size="10.00" fill="#000000">THnSparse.h</text>
</g>
<!-- Node0&#45;&gt;Node9 -->
<g id="edge10" class="edge">
<title>Node0&#45;&gt;Node9</title>
<path fill="none" stroke="#191970" d="M421.2419,-168.3511C449.5966,-157.557 483.4628,-144.6647 508.2717,-135.2204"/>
<polygon fill="#191970" stroke="#191970" points="509.5381,-138.4835 517.6386,-131.6546 507.0476,-131.9414 509.5381,-138.4835"/>
</g>
<!-- Node10 -->
<g id="node11" class="node">
<title>Node10</title>
<polygon fill="none" stroke="#bfbfbf" points="598.5,-112.5 598.5,-131.5 667.5,-131.5 667.5,-112.5 598.5,-112.5"/>
<text text-anchor="middle" x="633" y="-119.5" font-family="Helvetica,sans-Serif" font-size="10.00" fill="#000000">TObjArray.h</text>
</g>
<!-- Node0&#45;&gt;Node10 -->
<g id="edge11" class="edge">
<title>Node0&#45;&gt;Node10</title>
<path fill="none" stroke="#191970" d="M434.8113,-171.9197C483.0169,-159.7777 546.4018,-143.8123 588.3604,-133.2438"/>
<polygon fill="#191970" stroke="#191970" points="589.4395,-136.5814 598.2817,-130.7448 587.7296,-129.7934 589.4395,-136.5814"/>
</g>
<!-- Node11 -->
<g id="node12" class="node">
<title>Node11</title>
<polygon fill="none" stroke="#bfbfbf" points="685.5,-112.5 685.5,-131.5 742.5,-131.5 742.5,-112.5 685.5,-112.5"/>
<text text-anchor="middle" x="714" y="-119.5" font-family="Helvetica,sans-Serif" font-size="10.00" fill="#000000">TGraph.h</text>
</g>
<!-- Node0&#45;&gt;Node11 -->
<g id="edge12" class="edge">
<title>Node0&#45;&gt;Node11</title>
<path fill="none" stroke="#191970" d="M434.7523,-178.1899C495.4975,-168.1228 587.2256,-151.9978 675.4674,-132.2247"/>
<polygon fill="#191970" stroke="#191970" points="676.3923,-135.604 685.3748,-129.9857 674.8492,-128.7762 676.3923,-135.604"/>
</g>
<!-- Node1&#45;&gt;Node2 -->
<g id="edge2" class="edge">
<title>Node1&#45;&gt;Node2</title>
<path fill="none" stroke="#191970" d="M75.1868,-112.2455C81.8589,-104.2958 91.4479,-92.8706 99.4253,-83.3656"/>
<polygon fill="#191970" stroke="#191970" points="102.1592,-85.5525 105.907,-75.6427 96.7974,-81.0524 102.1592,-85.5525"/>
</g>
<!-- Node3 -->
<g id="node4" class="node">
<title>Node3</title>
<polygon fill="none" stroke="#bfbfbf" points="86,-.5 86,-19.5 142,-19.5 142,-.5 86,-.5"/>
<text text-anchor="middle" x="114" y="-7.5" font-family="Helvetica,sans-Serif" font-size="10.00" fill="#000000">Rtypes.h</text>
</g>
<!-- Node2&#45;&gt;Node3 -->
<g id="edge3" class="edge">
<title>Node2&#45;&gt;Node3</title>
<path fill="none" stroke="#191970" d="M114,-56.2455C114,-48.9382 114,-38.6944 114,-29.7046"/>
<polygon fill="#191970" stroke="#191970" points="117.5001,-29.6426 114,-19.6427 110.5001,-29.6427 117.5001,-29.6426"/>
</g>
</g>
</svg>
