<?xml version="1.0" encoding="UTF-8" standalone="no"?>
<!DOCTYPE svg PUBLIC "-//W3C//DTD SVG 1.1//EN"
 "http://www.w3.org/Graphics/SVG/1.1/DTD/svg11.dtd">
<!-- Generated by graphviz version 2.40.1 (20161225.0304)
 -->
<!-- Title: /home/runner/work/AliceO2/AliceO2/Detectors/ITSMFT/common/reconstruction/include/ITSMFTReconstruction/PixelReader.h Pages: 1 -->
<svg width="2535pt" height="339pt"
 viewBox="0.00 0.00 2534.50 339.00" xmlns="http://www.w3.org/2000/svg" xmlns:xlink="http://www.w3.org/1999/xlink">
<g id="graph0" class="graph" transform="scale(1 1) rotate(0) translate(4 335)">
<title>/home/runner/work/AliceO2/AliceO2/Detectors/ITSMFT/common/reconstruction/include/ITSMFTReconstruction/PixelReader.h</title>
<!-- Node27 -->
<g id="node1" class="node">
<title>Node27</title>
<polygon fill="#bfbfbf" stroke="#000000" points="1331.5,-278.5 1331.5,-330.5 1517.5,-330.5 1517.5,-278.5 1331.5,-278.5"/>
<text text-anchor="start" x="1339.5" y="-318.5" font-family="Helvetica,sans-Serif" font-size="10.00" fill="#000000">/home/runner/work/AliceO2</text>
<text text-anchor="start" x="1339.5" y="-307.5" font-family="Helvetica,sans-Serif" font-size="10.00" fill="#000000">/AliceO2/Detectors/ITSMFT</text>
<text text-anchor="start" x="1339.5" y="-296.5" font-family="Helvetica,sans-Serif" font-size="10.00" fill="#000000">/common/reconstruction/include</text>
<text text-anchor="middle" x="1424.5" y="-285.5" font-family="Helvetica,sans-Serif" font-size="10.00" fill="#000000">/ITSMFTReconstruction/PixelReader.h</text>
</g>
<!-- Node28 -->
<g id="node2" class="node">
<title>Node28</title>
<g id="a_node2"><a xlink:href="../../d6/d04/ITSMFT_2common_2reconstruction_2include_2ITSMFTReconstruction_2Clusterer_8h.html" target="_top" xlink:title="/home/runner/work/AliceO2\l/AliceO2/Detectors/ITSMFT\l/common/reconstruction/include\l/ITSMFTReconstruction/Clusterer.h">
<polygon fill="none" stroke="#000000" points="922,-189.5 922,-241.5 1095,-241.5 1095,-189.5 922,-189.5"/>
<text text-anchor="start" x="930" y="-229.5" font-family="Helvetica,sans-Serif" font-size="10.00" fill="#000000">/home/runner/work/AliceO2</text>
<text text-anchor="start" x="930" y="-218.5" font-family="Helvetica,sans-Serif" font-size="10.00" fill="#000000">/AliceO2/Detectors/ITSMFT</text>
<text text-anchor="start" x="930" y="-207.5" font-family="Helvetica,sans-Serif" font-size="10.00" fill="#000000">/common/reconstruction/include</text>
<text text-anchor="middle" x="1008.5" y="-196.5" font-family="Helvetica,sans-Serif" font-size="10.00" fill="#000000">/ITSMFTReconstruction/Clusterer.h</text>
</a>
</g>
</g>
<!-- Node27&#45;&gt;Node28 -->
<g id="edge1" class="edge">
<title>Node27&#45;&gt;Node28</title>
<path fill="none" stroke="#191970" d="M1321.3002,-282.4212C1251.7655,-267.5448 1161.0783,-248.143 1095.2666,-234.063"/>
<polygon fill="#191970" stroke="#191970" points="1320.8895,-285.9125 1331.4005,-284.5821 1322.354,-279.0674 1320.8895,-285.9125"/>
</g>
<!-- Node34 -->
<g id="node8" class="node">
<title>Node34</title>
<g id="a_node8"><a xlink:href="../../d6/d67/ITSMFT_2ITS_2reconstruction_2include_2ITSReconstruction_2ClustererTask_8h.html" target="_top" xlink:title="/home/runner/work/AliceO2\l/AliceO2/Detectors/ITSMFT\l/ITS/reconstruction/include\l/ITSReconstruction/ClustererTask.h">
<polygon fill="none" stroke="#000000" points="1460.5,-95 1460.5,-147 1634.5,-147 1634.5,-95 1460.5,-95"/>
<text text-anchor="start" x="1468.5" y="-135" font-family="Helvetica,sans-Serif" font-size="10.00" fill="#000000">/home/runner/work/AliceO2</text>
<text text-anchor="start" x="1468.5" y="-124" font-family="Helvetica,sans-Serif" font-size="10.00" fill="#000000">/AliceO2/Detectors/ITSMFT</text>
<text text-anchor="start" x="1468.5" y="-113" font-family="Helvetica,sans-Serif" font-size="10.00" fill="#000000">/ITS/reconstruction/include</text>
<text text-anchor="middle" x="1547.5" y="-102" font-family="Helvetica,sans-Serif" font-size="10.00" fill="#000000">/ITSReconstruction/ClustererTask.h</text>
</a>
</g>
</g>
<!-- Node27&#45;&gt;Node34 -->
<g id="edge40" class="edge">
<title>Node27&#45;&gt;Node34</title>
<path fill="none" stroke="#191970" d="M1451.018,-270.3148C1457.8463,-261.2229 1465.0765,-251.333 1471.5,-242 1493.4404,-210.1218 1516.8626,-172.1633 1531.8134,-147.3724"/>
<polygon fill="#191970" stroke="#191970" points="1448.1413,-268.3161 1444.8948,-278.4013 1453.7219,-272.5418 1448.1413,-268.3161"/>
</g>
<!-- Node39 -->
<g id="node13" class="node">
<title>Node39</title>
<g id="a_node13"><a xlink:href="../../db/d12/ITSMFT_2MFT_2reconstruction_2include_2MFTReconstruction_2ClustererTask_8h.html" target="_top" xlink:title="/home/runner/work/AliceO2\l/AliceO2/Detectors/ITSMFT\l/MFT/reconstruction/include\l/MFTReconstruction/ClustererTask.h">
<polygon fill="none" stroke="#000000" points="1653,-95 1653,-147 1832,-147 1832,-95 1653,-95"/>
<text text-anchor="start" x="1661" y="-135" font-family="Helvetica,sans-Serif" font-size="10.00" fill="#000000">/home/runner/work/AliceO2</text>
<text text-anchor="start" x="1661" y="-124" font-family="Helvetica,sans-Serif" font-size="10.00" fill="#000000">/AliceO2/Detectors/ITSMFT</text>
<text text-anchor="start" x="1661" y="-113" font-family="Helvetica,sans-Serif" font-size="10.00" fill="#000000">/MFT/reconstruction/include</text>
<text text-anchor="middle" x="1742.5" y="-102" font-family="Helvetica,sans-Serif" font-size="10.00" fill="#000000">/MFTReconstruction/ClustererTask.h</text>
</a>
</g>
</g>
<!-- Node27&#45;&gt;Node39 -->
<g id="edge41" class="edge">
<title>Node27&#45;&gt;Node39</title>
<path fill="none" stroke="#191970" d="M1478.531,-273.3218C1540.1579,-237.7603 1639.8152,-180.2536 1697.4321,-147.0062"/>
<polygon fill="#191970" stroke="#191970" points="1476.636,-270.3742 1469.7239,-278.4038 1480.1347,-276.4372 1476.636,-270.3742"/>
</g>
<!-- Node44 -->
<g id="node18" class="node">
<title>Node44</title>
<g id="a_node18"><a xlink:href="../../d4/d75/DigitPixelReader_8h.html" target="_top" xlink:title="Definition of the Alpide pixel reader for MC digits processing. ">
<polygon fill="none" stroke="#000000" points="1698.5,-189.5 1698.5,-241.5 1904.5,-241.5 1904.5,-189.5 1698.5,-189.5"/>
<text text-anchor="start" x="1706.5" y="-229.5" font-family="Helvetica,sans-Serif" font-size="10.00" fill="#000000">/home/runner/work/AliceO2</text>
<text text-anchor="start" x="1706.5" y="-218.5" font-family="Helvetica,sans-Serif" font-size="10.00" fill="#000000">/AliceO2/Detectors/ITSMFT</text>
<text text-anchor="start" x="1706.5" y="-207.5" font-family="Helvetica,sans-Serif" font-size="10.00" fill="#000000">/common/reconstruction/include</text>
<text text-anchor="middle" x="1801.5" y="-196.5" font-family="Helvetica,sans-Serif" font-size="10.00" fill="#000000">/ITSMFTReconstruction/DigitPixelReader.h</text>
</a>
</g>
</g>
<!-- Node27&#45;&gt;Node44 -->
<g id="edge17" class="edge">
<title>Node27&#45;&gt;Node44</title>
<path fill="none" stroke="#191970" d="M1527.4756,-280.1901C1580.6235,-267.6433 1645.2825,-252.3789 1698.4422,-239.8293"/>
<polygon fill="#191970" stroke="#191970" points="1526.6193,-276.796 1517.691,-282.5 1528.2277,-283.6087 1526.6193,-276.796"/>
</g>
<!-- Node47 -->
<g id="node21" class="node">
<title>Node47</title>
<g id="a_node21"><a xlink:href="../../d7/d6e/RawPixelDecoder_8h.html" target="_top" xlink:title="Definition of the Alpide pixel reader for raw data processing. ">
<polygon fill="none" stroke="#000000" points="192.5,-189.5 192.5,-241.5 404.5,-241.5 404.5,-189.5 192.5,-189.5"/>
<text text-anchor="start" x="200.5" y="-229.5" font-family="Helvetica,sans-Serif" font-size="10.00" fill="#000000">/home/runner/work/AliceO2</text>
<text text-anchor="start" x="200.5" y="-218.5" font-family="Helvetica,sans-Serif" font-size="10.00" fill="#000000">/AliceO2/Detectors/ITSMFT</text>
<text text-anchor="start" x="200.5" y="-207.5" font-family="Helvetica,sans-Serif" font-size="10.00" fill="#000000">/common/reconstruction/include</text>
<text text-anchor="middle" x="298.5" y="-196.5" font-family="Helvetica,sans-Serif" font-size="10.00" fill="#000000">/ITSMFTReconstruction/RawPixelDecoder.h</text>
</a>
</g>
</g>
<!-- Node27&#45;&gt;Node47 -->
<g id="edge25" class="edge">
<title>Node27&#45;&gt;Node47</title>
<path fill="none" stroke="#191970" d="M1321.1362,-296.33C1107.7638,-279.4649 620.5127,-240.9522 404.7204,-223.8958"/>
<polygon fill="#191970" stroke="#191970" points="1321.152,-299.8421 1331.3967,-297.141 1321.7036,-292.8639 1321.152,-299.8421"/>
</g>
<!-- Node51 -->
<g id="node25" class="node">
<title>Node51</title>
<g id="a_node25"><a xlink:href="../../dd/db8/RawPixelReader_8h.html" target="_top" xlink:title="Definition of the Alpide pixel reader for raw data processing. ">
<polygon fill="none" stroke="#000000" points="1256.5,-189.5 1256.5,-241.5 1462.5,-241.5 1462.5,-189.5 1256.5,-189.5"/>
<text text-anchor="start" x="1264.5" y="-229.5" font-family="Helvetica,sans-Serif" font-size="10.00" fill="#000000">/home/runner/work/AliceO2</text>
<text text-anchor="start" x="1264.5" y="-218.5" font-family="Helvetica,sans-Serif" font-size="10.00" fill="#000000">/AliceO2/Detectors/ITSMFT</text>
<text text-anchor="start" x="1264.5" y="-207.5" font-family="Helvetica,sans-Serif" font-size="10.00" fill="#000000">/common/reconstruction/include</text>
<text text-anchor="middle" x="1359.5" y="-196.5" font-family="Helvetica,sans-Serif" font-size="10.00" fill="#000000">/ITSMFTReconstruction/RawPixelReader.h</text>
</a>
</g>
</g>
<!-- Node27&#45;&gt;Node51 -->
<g id="edge31" class="edge">
<title>Node27&#45;&gt;Node51</title>
<path fill="none" stroke="#191970" d="M1399.4061,-270.1407C1392.4647,-260.6363 1385.0472,-250.4801 1378.5137,-241.5341"/>
<polygon fill="#191970" stroke="#191970" points="1396.625,-272.2671 1405.3494,-278.2784 1402.2779,-268.1386 1396.625,-272.2671"/>
</g>
<!-- Node29 -->
<g id="node3" class="node">
<title>Node29</title>
<g id="a_node3"><a xlink:href="../../de/d69/ITSMFT_2common_2reconstruction_2src_2Clusterer_8cxx.html" target="_top" xlink:title="/home/runner/work/AliceO2\l/AliceO2/Detectors/ITSMFT\l/common/reconstruction/src\l/Clusterer.cxx">
<polygon fill="none" stroke="#000000" points="474,-95 474,-147 613,-147 613,-95 474,-95"/>
<text text-anchor="start" x="482" y="-135" font-family="Helvetica,sans-Serif" font-size="10.00" fill="#000000">/home/runner/work/AliceO2</text>
<text text-anchor="start" x="482" y="-124" font-family="Helvetica,sans-Serif" font-size="10.00" fill="#000000">/AliceO2/Detectors/ITSMFT</text>
<text text-anchor="start" x="482" y="-113" font-family="Helvetica,sans-Serif" font-size="10.00" fill="#000000">/common/reconstruction/src</text>
<text text-anchor="middle" x="543.5" y="-102" font-family="Helvetica,sans-Serif" font-size="10.00" fill="#000000">/Clusterer.cxx</text>
</a>
</g>
</g>
<!-- Node28&#45;&gt;Node29 -->
<g id="edge2" class="edge">
<title>Node28&#45;&gt;Node29</title>
<path fill="none" stroke="#191970" d="M912.0083,-206.1343C832.8988,-196.9808 718.5557,-180.3544 621.5,-153 615.4421,-151.2926 609.2186,-149.256 603.0561,-147.0489"/>
<polygon fill="#191970" stroke="#191970" points="911.6295,-209.6137 921.9614,-207.268 912.4218,-202.6587 911.6295,-209.6137"/>
</g>
<!-- Node30 -->
<g id="node4" class="node">
<title>Node30</title>
<g id="a_node4"><a xlink:href="../../d6/d14/STFDecoderSpec_8cxx.html" target="_top" xlink:title="Device to decode ITS or MFT raw data from STF. ">
<polygon fill="none" stroke="#000000" points="157,-6 157,-47 372,-47 372,-6 157,-6"/>
<text text-anchor="start" x="165" y="-35" font-family="Helvetica,sans-Serif" font-size="10.00" fill="#000000">/home/runner/work/AliceO2</text>
<text text-anchor="start" x="165" y="-24" font-family="Helvetica,sans-Serif" font-size="10.00" fill="#000000">/AliceO2/Detectors/ITSMFT</text>
<text text-anchor="middle" x="264.5" y="-13" font-family="Helvetica,sans-Serif" font-size="10.00" fill="#000000">/common/workflow/src/STFDecoderSpec.cxx</text>
</a>
</g>
</g>
<!-- Node28&#45;&gt;Node30 -->
<g id="edge3" class="edge">
<title>Node28&#45;&gt;Node30</title>
<path fill="none" stroke="#191970" d="M911.6762,-208.9914C765.4367,-198.472 501.2844,-176.5232 464.5,-153 436.4377,-135.0545 451.043,-110.3796 425.5,-89 403.0823,-70.2363 374.387,-56.6994 347.4475,-47.1297"/>
<polygon fill="#191970" stroke="#191970" points="911.7728,-212.5072 921.9969,-209.7289 912.2718,-205.525 911.7728,-212.5072"/>
</g>
<!-- Node31 -->
<g id="node5" class="node">
<title>Node31</title>
<g id="a_node5"><a xlink:href="../../dd/d69/TestDataReader_8h.html" target="_top" xlink:title="/home/runner/work/AliceO2\l/AliceO2/Detectors/ITSMFT\l/ITS/QC/TestDataReaderWorkflow\l/include/ITSQCDataReaderWorkflow\l/TestDataReader.h">
<polygon fill="none" stroke="#000000" points="1018.5,-89.5 1018.5,-152.5 1196.5,-152.5 1196.5,-89.5 1018.5,-89.5"/>
<text text-anchor="start" x="1026.5" y="-140.5" font-family="Helvetica,sans-Serif" font-size="10.00" fill="#000000">/home/runner/work/AliceO2</text>
<text text-anchor="start" x="1026.5" y="-129.5" font-family="Helvetica,sans-Serif" font-size="10.00" fill="#000000">/AliceO2/Detectors/ITSMFT</text>
<text text-anchor="start" x="1026.5" y="-118.5" font-family="Helvetica,sans-Serif" font-size="10.00" fill="#000000">/ITS/QC/TestDataReaderWorkflow</text>
<text text-anchor="start" x="1026.5" y="-107.5" font-family="Helvetica,sans-Serif" font-size="10.00" fill="#000000">/include/ITSQCDataReaderWorkflow</text>
<text text-anchor="middle" x="1107.5" y="-96.5" font-family="Helvetica,sans-Serif" font-size="10.00" fill="#000000">/TestDataReader.h</text>
</a>
</g>
</g>
<!-- Node28&#45;&gt;Node31 -->
<g id="edge4" class="edge">
<title>Node28&#45;&gt;Node31</title>
<path fill="none" stroke="#191970" d="M1043.3046,-182.2774C1053.3675,-172.6719 1064.3215,-162.2158 1074.2849,-152.7054"/>
<polygon fill="#191970" stroke="#191970" points="1040.6312,-179.9908 1035.8143,-189.4273 1045.4645,-185.0543 1040.6312,-179.9908"/>
</g>
<!-- Node28&#45;&gt;Node34 -->
<g id="edge7" class="edge">
<title>Node28&#45;&gt;Node34</title>
<path fill="none" stroke="#191970" d="M1105.1284,-203.9505C1215.0642,-190.4426 1387.6198,-168.0214 1451.5,-153 1458.8537,-151.2708 1466.4456,-149.2196 1473.9881,-147.0035"/>
<polygon fill="#191970" stroke="#191970" points="1104.5206,-200.4987 1095.0206,-205.1891 1105.372,-207.4468 1104.5206,-200.4987"/>
</g>
<!-- Node36 -->
<g id="node10" class="node">
<title>Node36</title>
<g id="a_node10"><a xlink:href="../../d4/dcc/ITSMFT_2ITS_2workflow_2include_2ITSWorkflow_2ClustererSpec_8h.html" target="_top" xlink:title="/home/runner/work/AliceO2\l/AliceO2/Detectors/ITSMFT\l/ITS/workflow/include/ITSWorkflow\l/ClustererSpec.h">
<polygon fill="none" stroke="#000000" points="631,-95 631,-147 802,-147 802,-95 631,-95"/>
<text text-anchor="start" x="639" y="-135" font-family="Helvetica,sans-Serif" font-size="10.00" fill="#000000">/home/runner/work/AliceO2</text>
<text text-anchor="start" x="639" y="-124" font-family="Helvetica,sans-Serif" font-size="10.00" fill="#000000">/AliceO2/Detectors/ITSMFT</text>
<text text-anchor="start" x="639" y="-113" font-family="Helvetica,sans-Serif" font-size="10.00" fill="#000000">/ITS/workflow/include/ITSWorkflow</text>
<text text-anchor="middle" x="716.5" y="-102" font-family="Helvetica,sans-Serif" font-size="10.00" fill="#000000">/ClustererSpec.h</text>
</a>
</g>
</g>
<!-- Node28&#45;&gt;Node36 -->
<g id="edge9" class="edge">
<title>Node28&#45;&gt;Node36</title>
<path fill="none" stroke="#191970" d="M915.4002,-186.335C882.5293,-175.9393 845.3336,-164.0644 811.5,-153 805.6277,-151.0796 799.5573,-149.0765 793.4565,-147.0505"/>
<polygon fill="#191970" stroke="#191970" points="914.4109,-189.6929 925.0007,-189.3681 916.5197,-183.0181 914.4109,-189.6929"/>
</g>
<!-- Node28&#45;&gt;Node39 -->
<g id="edge12" class="edge">
<title>Node28&#45;&gt;Node39</title>
<path fill="none" stroke="#191970" d="M1105.0294,-204.3577C1148.5413,-199.4484 1200.5838,-193.7331 1247.5,-189 1423.3333,-171.2613 1470.355,-188.395 1643.5,-153 1651.4637,-151.372 1659.6866,-149.3276 1667.8317,-147.0635"/>
<polygon fill="#191970" stroke="#191970" points="1104.5664,-200.8877 1095.0231,-205.4894 1105.3532,-207.8433 1104.5664,-200.8877"/>
</g>
<!-- Node41 -->
<g id="node15" class="node">
<title>Node41</title>
<g id="a_node15"><a xlink:href="../../d4/d5e/ITSMFT_2MFT_2workflow_2include_2MFTWorkflow_2ClustererSpec_8h.html" target="_top" xlink:title="/home/runner/work/AliceO2\l/AliceO2/Detectors/ITSMFT\l/MFT/workflow/include/MFTWorkflow\l/ClustererSpec.h">
<polygon fill="none" stroke="#000000" points="820.5,-95 820.5,-147 1000.5,-147 1000.5,-95 820.5,-95"/>
<text text-anchor="start" x="828.5" y="-135" font-family="Helvetica,sans-Serif" font-size="10.00" fill="#000000">/home/runner/work/AliceO2</text>
<text text-anchor="start" x="828.5" y="-124" font-family="Helvetica,sans-Serif" font-size="10.00" fill="#000000">/AliceO2/Detectors/ITSMFT</text>
<text text-anchor="start" x="828.5" y="-113" font-family="Helvetica,sans-Serif" font-size="10.00" fill="#000000">/MFT/workflow/include/MFTWorkflow</text>
<text text-anchor="middle" x="910.5" y="-102" font-family="Helvetica,sans-Serif" font-size="10.00" fill="#000000">/ClustererSpec.h</text>
</a>
</g>
</g>
<!-- Node28&#45;&gt;Node41 -->
<g id="edge14" class="edge">
<title>Node28&#45;&gt;Node41</title>
<path fill="none" stroke="#191970" d="M974.2272,-182.4512C962.2955,-170.9457 949.0794,-158.2016 937.7903,-147.3157"/>
<polygon fill="#191970" stroke="#191970" points="971.8337,-185.0054 981.4616,-189.4273 976.6927,-179.9665 971.8337,-185.0054"/>
</g>
<!-- Node32 -->
<g id="node6" class="node">
<title>Node32</title>
<g id="a_node6"><a xlink:href="../../d0/dd9/TestDataReader_8cxx.html" target="_top" xlink:title="/home/runner/work/AliceO2\l/AliceO2/Detectors/ITSMFT\l/ITS/QC/TestDataReaderWorkflow\l/src/TestDataReader.cxx">
<polygon fill="none" stroke="#000000" points="1008.5,-.5 1008.5,-52.5 1178.5,-52.5 1178.5,-.5 1008.5,-.5"/>
<text text-anchor="start" x="1016.5" y="-40.5" font-family="Helvetica,sans-Serif" font-size="10.00" fill="#000000">/home/runner/work/AliceO2</text>
<text text-anchor="start" x="1016.5" y="-29.5" font-family="Helvetica,sans-Serif" font-size="10.00" fill="#000000">/AliceO2/Detectors/ITSMFT</text>
<text text-anchor="start" x="1016.5" y="-18.5" font-family="Helvetica,sans-Serif" font-size="10.00" fill="#000000">/ITS/QC/TestDataReaderWorkflow</text>
<text text-anchor="middle" x="1093.5" y="-7.5" font-family="Helvetica,sans-Serif" font-size="10.00" fill="#000000">/src/TestDataReader.cxx</text>
</a>
</g>
</g>
<!-- Node31&#45;&gt;Node32 -->
<g id="edge5" class="edge">
<title>Node31&#45;&gt;Node32</title>
<path fill="none" stroke="#191970" d="M1101.3142,-79.2457C1099.9742,-70.2008 1098.5939,-60.8836 1097.3732,-52.6442"/>
<polygon fill="#191970" stroke="#191970" points="1097.8715,-79.8909 1102.7993,-89.27 1104.7959,-78.865 1097.8715,-79.8909"/>
</g>
<!-- Node33 -->
<g id="node7" class="node">
<title>Node33</title>
<g id="a_node7"><a xlink:href="../../d1/dc6/TestDataReaderWorkflow_8cxx.html" target="_top" xlink:title="/home/runner/work/AliceO2\l/AliceO2/Detectors/ITSMFT\l/ITS/QC/TestDataReaderWorkflow\l/src/TestDataReaderWorkflow.cxx">
<polygon fill="none" stroke="#000000" points="820.5,-.5 820.5,-52.5 990.5,-52.5 990.5,-.5 820.5,-.5"/>
<text text-anchor="start" x="828.5" y="-40.5" font-family="Helvetica,sans-Serif" font-size="10.00" fill="#000000">/home/runner/work/AliceO2</text>
<text text-anchor="start" x="828.5" y="-29.5" font-family="Helvetica,sans-Serif" font-size="10.00" fill="#000000">/AliceO2/Detectors/ITSMFT</text>
<text text-anchor="start" x="828.5" y="-18.5" font-family="Helvetica,sans-Serif" font-size="10.00" fill="#000000">/ITS/QC/TestDataReaderWorkflow</text>
<text text-anchor="middle" x="905.5" y="-7.5" font-family="Helvetica,sans-Serif" font-size="10.00" fill="#000000">/src/TestDataReaderWorkflow.cxx</text>
</a>
</g>
</g>
<!-- Node31&#45;&gt;Node33 -->
<g id="edge6" class="edge">
<title>Node31&#45;&gt;Node33</title>
<path fill="none" stroke="#191970" d="M1030.8437,-85.1385C1007.6896,-74.3065 982.7205,-62.6254 961.2086,-52.5617"/>
<polygon fill="#191970" stroke="#191970" points="1029.4151,-88.3342 1039.9561,-89.4015 1032.3814,-81.9937 1029.4151,-88.3342"/>
</g>
<!-- Node35 -->
<g id="node9" class="node">
<title>Node35</title>
<g id="a_node9"><a xlink:href="../../d8/d95/ITSMFT_2ITS_2reconstruction_2src_2ClustererTask_8cxx.html" target="_top" xlink:title="/home/runner/work/AliceO2\l/AliceO2/Detectors/ITSMFT\l/ITS/reconstruction/src/Clusterer\lTask.cxx">
<polygon fill="none" stroke="#000000" points="2185,-.5 2185,-52.5 2344,-52.5 2344,-.5 2185,-.5"/>
<text text-anchor="start" x="2193" y="-40.5" font-family="Helvetica,sans-Serif" font-size="10.00" fill="#000000">/home/runner/work/AliceO2</text>
<text text-anchor="start" x="2193" y="-29.5" font-family="Helvetica,sans-Serif" font-size="10.00" fill="#000000">/AliceO2/Detectors/ITSMFT</text>
<text text-anchor="start" x="2193" y="-18.5" font-family="Helvetica,sans-Serif" font-size="10.00" fill="#000000">/ITS/reconstruction/src/Clusterer</text>
<text text-anchor="middle" x="2264.5" y="-7.5" font-family="Helvetica,sans-Serif" font-size="10.00" fill="#000000">Task.cxx</text>
</a>
</g>
</g>
<!-- Node34&#45;&gt;Node35 -->
<g id="edge8" class="edge">
<title>Node34&#45;&gt;Node35</title>
<path fill="none" stroke="#191970" d="M1629.4974,-92.3774C1634.5405,-91.1072 1639.5686,-89.9643 1644.5,-89 1877.0801,-43.5196 1943.345,-95.435 2176.5,-53 2179.1686,-52.5143 2181.8708,-51.9763 2184.5905,-51.395"/>
<polygon fill="#191970" stroke="#191970" points="1628.5627,-89.0042 1619.8025,-94.9632 1630.3667,-95.7678 1628.5627,-89.0042"/>
</g>
<!-- Node37 -->
<g id="node11" class="node">
<title>Node37</title>
<g id="a_node11"><a xlink:href="../../d3/da3/ITSMFT_2ITS_2workflow_2src_2ClustererSpec_8cxx.html" target="_top" xlink:title="/home/runner/work/AliceO2\l/AliceO2/Detectors/ITSMFT\l/ITS/workflow/src/ClustererSpec.cxx">
<polygon fill="none" stroke="#000000" points="1196.5,-6 1196.5,-47 1374.5,-47 1374.5,-6 1196.5,-6"/>
<text text-anchor="start" x="1204.5" y="-35" font-family="Helvetica,sans-Serif" font-size="10.00" fill="#000000">/home/runner/work/AliceO2</text>
<text text-anchor="start" x="1204.5" y="-24" font-family="Helvetica,sans-Serif" font-size="10.00" fill="#000000">/AliceO2/Detectors/ITSMFT</text>
<text text-anchor="middle" x="1285.5" y="-13" font-family="Helvetica,sans-Serif" font-size="10.00" fill="#000000">/ITS/workflow/src/ClustererSpec.cxx</text>
</a>
</g>
</g>
<!-- Node36&#45;&gt;Node37 -->
<g id="edge10" class="edge">
<title>Node36&#45;&gt;Node37</title>
<path fill="none" stroke="#191970" d="M798.0348,-92.2114C802.5629,-91.0277 807.072,-89.9446 811.5,-89 975.681,-53.9753 1022.3301,-83.0171 1187.5,-53 1196.5173,-51.3612 1205.9147,-49.2949 1215.1659,-47.0422"/>
<polygon fill="#191970" stroke="#191970" points="796.8246,-88.9145 788.1161,-94.9487 798.6869,-95.6623 796.8246,-88.9145"/>
</g>
<!-- Node38 -->
<g id="node12" class="node">
<title>Node38</title>
<g id="a_node12"><a xlink:href="../../d5/d99/ITSMFT_2ITS_2workflow_2src_2RecoWorkflow_8cxx.html" target="_top" xlink:title="/home/runner/work/AliceO2\l/AliceO2/Detectors/ITSMFT\l/ITS/workflow/src/RecoWorkflow.cxx">
<polygon fill="none" stroke="#000000" points="418.5,-6 418.5,-47 598.5,-47 598.5,-6 418.5,-6"/>
<text text-anchor="start" x="426.5" y="-35" font-family="Helvetica,sans-Serif" font-size="10.00" fill="#000000">/home/runner/work/AliceO2</text>
<text text-anchor="start" x="426.5" y="-24" font-family="Helvetica,sans-Serif" font-size="10.00" fill="#000000">/AliceO2/Detectors/ITSMFT</text>
<text text-anchor="middle" x="508.5" y="-13" font-family="Helvetica,sans-Serif" font-size="10.00" fill="#000000">/ITS/workflow/src/RecoWorkflow.cxx</text>
</a>
</g>
</g>
<!-- Node36&#45;&gt;Node38 -->
<g id="edge11" class="edge">
<title>Node36&#45;&gt;Node38</title>
<path fill="none" stroke="#191970" d="M649.9871,-90.7814C618.6087,-76.5253 581.9741,-59.8813 553.8453,-47.1016"/>
<polygon fill="#191970" stroke="#191970" points="648.5603,-93.9774 659.1125,-94.9273 651.4558,-87.6043 648.5603,-93.9774"/>
</g>
<!-- Node40 -->
<g id="node14" class="node">
<title>Node40</title>
<g id="a_node14"><a xlink:href="../../d9/d5e/ITSMFT_2MFT_2reconstruction_2src_2ClustererTask_8cxx.html" target="_top" xlink:title="/home/runner/work/AliceO2\l/AliceO2/Detectors/ITSMFT\l/MFT/reconstruction/src/Clusterer\lTask.cxx">
<polygon fill="none" stroke="#000000" points="2362.5,-.5 2362.5,-52.5 2526.5,-52.5 2526.5,-.5 2362.5,-.5"/>
<text text-anchor="start" x="2370.5" y="-40.5" font-family="Helvetica,sans-Serif" font-size="10.00" fill="#000000">/home/runner/work/AliceO2</text>
<text text-anchor="start" x="2370.5" y="-29.5" font-family="Helvetica,sans-Serif" font-size="10.00" fill="#000000">/AliceO2/Detectors/ITSMFT</text>
<text text-anchor="start" x="2370.5" y="-18.5" font-family="Helvetica,sans-Serif" font-size="10.00" fill="#000000">/MFT/reconstruction/src/Clusterer</text>
<text text-anchor="middle" x="2444.5" y="-7.5" font-family="Helvetica,sans-Serif" font-size="10.00" fill="#000000">Task.cxx</text>
</a>
</g>
</g>
<!-- Node39&#45;&gt;Node40 -->
<g id="edge13" class="edge">
<title>Node39&#45;&gt;Node40</title>
<path fill="none" stroke="#191970" d="M1842.3641,-101.1011C1867.1666,-96.6403 1893.7391,-92.2677 1918.5,-89 2110.8267,-63.6186 2162.744,-88.2977 2353.5,-53 2356.4124,-52.4611 2359.3652,-51.8669 2362.3382,-51.228"/>
<polygon fill="#191970" stroke="#191970" points="1841.4341,-97.7128 1832.2226,-102.9472 1842.6878,-104.5996 1841.4341,-97.7128"/>
</g>
<!-- Node42 -->
<g id="node16" class="node">
<title>Node42</title>
<g id="a_node16"><a xlink:href="../../d4/d8b/ITSMFT_2MFT_2workflow_2src_2ClustererSpec_8cxx.html" target="_top" xlink:title="/home/runner/work/AliceO2\l/AliceO2/Detectors/ITSMFT\l/MFT/workflow/src/ClustererSpec.cxx">
<polygon fill="none" stroke="#000000" points="1392.5,-6 1392.5,-47 1574.5,-47 1574.5,-6 1392.5,-6"/>
<text text-anchor="start" x="1400.5" y="-35" font-family="Helvetica,sans-Serif" font-size="10.00" fill="#000000">/home/runner/work/AliceO2</text>
<text text-anchor="start" x="1400.5" y="-24" font-family="Helvetica,sans-Serif" font-size="10.00" fill="#000000">/AliceO2/Detectors/ITSMFT</text>
<text text-anchor="middle" x="1483.5" y="-13" font-family="Helvetica,sans-Serif" font-size="10.00" fill="#000000">/MFT/workflow/src/ClustererSpec.cxx</text>
</a>
</g>
</g>
<!-- Node41&#45;&gt;Node42 -->
<g id="edge15" class="edge">
<title>Node41&#45;&gt;Node42</title>
<path fill="none" stroke="#191970" d="M995.1173,-92.3292C999.9563,-91.1025 1004.7741,-89.9791 1009.5,-89 1173.0178,-55.1212 1219.1333,-82.486 1383.5,-53 1392.6926,-51.3509 1402.2768,-49.2784 1411.714,-47.0225"/>
<polygon fill="#191970" stroke="#191970" points="993.9379,-89.0213 985.1772,-94.9795 995.7414,-95.785 993.9379,-89.0213"/>
</g>
<!-- Node43 -->
<g id="node17" class="node">
<title>Node43</title>
<g id="a_node17"><a xlink:href="../../d1/df6/ITSMFT_2MFT_2workflow_2src_2RecoWorkflow_8cxx.html" target="_top" xlink:title="/home/runner/work/AliceO2\l/AliceO2/Detectors/ITSMFT\l/MFT/workflow/src/RecoWorkflow.cxx">
<polygon fill="none" stroke="#000000" points="617,-6 617,-47 802,-47 802,-6 617,-6"/>
<text text-anchor="start" x="625" y="-35" font-family="Helvetica,sans-Serif" font-size="10.00" fill="#000000">/home/runner/work/AliceO2</text>
<text text-anchor="start" x="625" y="-24" font-family="Helvetica,sans-Serif" font-size="10.00" fill="#000000">/AliceO2/Detectors/ITSMFT</text>
<text text-anchor="middle" x="709.5" y="-13" font-family="Helvetica,sans-Serif" font-size="10.00" fill="#000000">/MFT/workflow/src/RecoWorkflow.cxx</text>
</a>
</g>
</g>
<!-- Node41&#45;&gt;Node43 -->
<g id="edge16" class="edge">
<title>Node41&#45;&gt;Node43</title>
<path fill="none" stroke="#191970" d="M845.8348,-90.5977C815.5994,-76.3825 780.3847,-59.8264 753.3193,-47.1016"/>
<polygon fill="#191970" stroke="#191970" points="844.5049,-93.8399 855.0438,-94.9273 847.4832,-87.5051 844.5049,-93.8399"/>
</g>
<!-- Node44&#45;&gt;Node31 -->
<g id="edge19" class="edge">
<title>Node44&#45;&gt;Node31</title>
<path fill="none" stroke="#191970" d="M1688.3295,-206.8188C1575.2001,-197.2043 1396.5297,-179.476 1243.5,-153 1228.323,-150.3742 1212.3075,-147.0822 1196.8033,-143.616"/>
<polygon fill="#191970" stroke="#191970" points="1688.1323,-210.3145 1698.391,-207.6672 1688.7205,-203.3393 1688.1323,-210.3145"/>
</g>
<!-- Node44&#45;&gt;Node34 -->
<g id="edge21" class="edge">
<title>Node44&#45;&gt;Node34</title>
<path fill="none" stroke="#191970" d="M1721.7134,-185.8156C1688.3973,-173.4205 1650.0269,-159.1449 1617.7908,-147.1515"/>
<polygon fill="#191970" stroke="#191970" points="1720.8282,-189.2206 1731.421,-189.4273 1723.2691,-182.66 1720.8282,-189.2206"/>
</g>
<!-- Node44&#45;&gt;Node37 -->
<g id="edge22" class="edge">
<title>Node44&#45;&gt;Node37</title>
<path fill="none" stroke="#191970" d="M1828.6336,-181.1821C1847.3006,-153.1958 1864.8808,-114.2907 1841.5,-89 1806.8482,-51.5176 1433.799,-61.6998 1383.5,-53 1374.2954,-51.408 1364.7017,-49.3393 1355.2744,-47.0596"/>
<polygon fill="#191970" stroke="#191970" points="1825.691,-179.283 1822.8496,-189.4898 1831.4358,-183.2827 1825.691,-179.283"/>
</g>
<!-- Node44&#45;&gt;Node39 -->
<g id="edge23" class="edge">
<title>Node44&#45;&gt;Node39</title>
<path fill="none" stroke="#191970" d="M1779.8449,-180.8151C1772.935,-169.7475 1765.4058,-157.6881 1758.9299,-147.3157"/>
<polygon fill="#191970" stroke="#191970" points="1776.9569,-182.7984 1785.2218,-189.4273 1782.8947,-179.0912 1776.9569,-182.7984"/>
</g>
<!-- Node44&#45;&gt;Node42 -->
<g id="edge24" class="edge">
<title>Node44&#45;&gt;Node42</title>
<path fill="none" stroke="#191970" d="M1852.1088,-182.4597C1861.1861,-174.0176 1869.3771,-164.13 1874.5,-153 1886.393,-127.1612 1893.3381,-110.3122 1874.5,-89 1831.3462,-40.1786 1647.4739,-65.3742 1583.5,-53 1574.6832,-51.2946 1565.4958,-49.2445 1556.4189,-47.0494"/>
<polygon fill="#191970" stroke="#191970" points="1849.5883,-180.0126 1844.3233,-189.2066 1854.1726,-185.3026 1849.5883,-180.0126"/>
</g>
<!-- Node45 -->
<g id="node19" class="node">
<title>Node45</title>
<g id="a_node19"><a xlink:href="../../d5/d1b/DigitPixelReader_8cxx.html" target="_top" xlink:title="Implementation of the Alpide pixel reader for MC digits processing. ">
<polygon fill="none" stroke="#000000" points="1927,-95 1927,-147 2066,-147 2066,-95 1927,-95"/>
<text text-anchor="start" x="1935" y="-135" font-family="Helvetica,sans-Serif" font-size="10.00" fill="#000000">/home/runner/work/AliceO2</text>
<text text-anchor="start" x="1935" y="-124" font-family="Helvetica,sans-Serif" font-size="10.00" fill="#000000">/AliceO2/Detectors/ITSMFT</text>
<text text-anchor="start" x="1935" y="-113" font-family="Helvetica,sans-Serif" font-size="10.00" fill="#000000">/common/reconstruction/src</text>
<text text-anchor="middle" x="1996.5" y="-102" font-family="Helvetica,sans-Serif" font-size="10.00" fill="#000000">/DigitPixelReader.cxx</text>
</a>
</g>
</g>
<!-- Node44&#45;&gt;Node45 -->
<g id="edge18" class="edge">
<title>Node44&#45;&gt;Node45</title>
<path fill="none" stroke="#191970" d="M1864.4054,-185.0151C1889.5929,-172.8088 1918.3195,-158.8875 1942.5366,-147.1515"/>
<polygon fill="#191970" stroke="#191970" points="1862.7734,-181.9166 1855.3008,-189.4273 1865.8262,-188.2159 1862.7734,-181.9166"/>
</g>
<!-- Node46 -->
<g id="node20" class="node">
<title>Node46</title>
<g id="a_node20"><a xlink:href="../../d9/da7/TestDataGetter_8cxx.html" target="_top" xlink:title="/home/runner/work/AliceO2\l/AliceO2/Detectors/ITSMFT\l/ITS/QC/TestDataReaderWorkflow\l/src/TestDataGetter.cxx">
<polygon fill="none" stroke="#000000" points="2084.5,-95 2084.5,-147 2254.5,-147 2254.5,-95 2084.5,-95"/>
<text text-anchor="start" x="2092.5" y="-135" font-family="Helvetica,sans-Serif" font-size="10.00" fill="#000000">/home/runner/work/AliceO2</text>
<text text-anchor="start" x="2092.5" y="-124" font-family="Helvetica,sans-Serif" font-size="10.00" fill="#000000">/AliceO2/Detectors/ITSMFT</text>
<text text-anchor="start" x="2092.5" y="-113" font-family="Helvetica,sans-Serif" font-size="10.00" fill="#000000">/ITS/QC/TestDataReaderWorkflow</text>
<text text-anchor="middle" x="2169.5" y="-102" font-family="Helvetica,sans-Serif" font-size="10.00" fill="#000000">/src/TestDataGetter.cxx</text>
</a>
</g>
</g>
<!-- Node44&#45;&gt;Node46 -->
<g id="edge20" class="edge">
<title>Node44&#45;&gt;Node46</title>
<path fill="none" stroke="#191970" d="M1914.4192,-192.5071C1964.1217,-181.6772 2023.0202,-167.8747 2075.5,-153 2081.9685,-151.1666 2088.6477,-149.1491 2095.3233,-147.0462"/>
<polygon fill="#191970" stroke="#191970" points="1913.6382,-189.0951 1904.6059,-194.6329 1915.1203,-195.9364 1913.6382,-189.0951"/>
</g>
<!-- Node47&#45;&gt;Node30 -->
<g id="edge30" class="edge">
<title>Node47&#45;&gt;Node30</title>
<path fill="none" stroke="#191970" d="M278.478,-180.2895C274.437,-171.6234 270.7441,-162.1875 268.5,-153 259.5846,-116.4996 260.7949,-72.3194 262.5815,-47.005"/>
<polygon fill="#191970" stroke="#191970" points="275.3822,-181.9254 282.9473,-189.3429 281.659,-178.8267 275.3822,-181.9254"/>
</g>
<!-- Node48 -->
<g id="node22" class="node">
<title>Node48</title>
<g id="a_node22"><a xlink:href="../../dd/df6/RawPixelDecoder_8cxx.html" target="_top" xlink:title="Alpide pixel reader for raw data processing. ">
<polygon fill="none" stroke="#000000" points="278,-95 278,-147 417,-147 417,-95 278,-95"/>
<text text-anchor="start" x="286" y="-135" font-family="Helvetica,sans-Serif" font-size="10.00" fill="#000000">/home/runner/work/AliceO2</text>
<text text-anchor="start" x="286" y="-124" font-family="Helvetica,sans-Serif" font-size="10.00" fill="#000000">/AliceO2/Detectors/ITSMFT</text>
<text text-anchor="start" x="286" y="-113" font-family="Helvetica,sans-Serif" font-size="10.00" fill="#000000">/common/reconstruction/src</text>
<text text-anchor="middle" x="347.5" y="-102" font-family="Helvetica,sans-Serif" font-size="10.00" fill="#000000">/RawPixelDecoder.cxx</text>
</a>
</g>
</g>
<!-- Node47&#45;&gt;Node48 -->
<g id="edge26" class="edge">
<title>Node47&#45;&gt;Node48</title>
<path fill="none" stroke="#191970" d="M316.6554,-180.4861C322.3472,-169.5089 328.5298,-157.5854 333.8548,-147.3157"/>
<polygon fill="#191970" stroke="#191970" points="313.5153,-178.9386 312.0192,-189.4273 319.7295,-182.1609 313.5153,-178.9386"/>
</g>
<!-- Node49 -->
<g id="node23" class="node">
<title>Node49</title>
<g id="a_node23"><a xlink:href="../../d0/d26/STFDecoderSpec_8h.html" target="_top" xlink:title="Device to decode ITS/MFT raw data from STF. ">
<polygon fill="none" stroke="#000000" points="35.5,-95 35.5,-147 221.5,-147 221.5,-95 35.5,-95"/>
<text text-anchor="start" x="43.5" y="-135" font-family="Helvetica,sans-Serif" font-size="10.00" fill="#000000">/home/runner/work/AliceO2</text>
<text text-anchor="start" x="43.5" y="-124" font-family="Helvetica,sans-Serif" font-size="10.00" fill="#000000">/AliceO2/Detectors/ITSMFT</text>
<text text-anchor="start" x="43.5" y="-113" font-family="Helvetica,sans-Serif" font-size="10.00" fill="#000000">/common/workflow/include</text>
<text text-anchor="middle" x="128.5" y="-102" font-family="Helvetica,sans-Serif" font-size="10.00" fill="#000000">/ITSMFTWorkflow/STFDecoderSpec.h</text>
</a>
</g>
</g>
<!-- Node47&#45;&gt;Node49 -->
<g id="edge27" class="edge">
<title>Node47&#45;&gt;Node49</title>
<path fill="none" stroke="#191970" d="M242.791,-184.5324C221.0427,-172.4429 196.3796,-158.7331 175.545,-147.1515"/>
<polygon fill="#191970" stroke="#191970" points="241.1558,-187.6278 251.5967,-189.4273 244.5569,-181.5095 241.1558,-187.6278"/>
</g>
<!-- Node49&#45;&gt;Node30 -->
<g id="edge29" class="edge">
<title>Node49&#45;&gt;Node30</title>
<path fill="none" stroke="#191970" d="M174.3816,-89.1191C194.348,-75.2453 217.1697,-59.3876 234.8511,-47.1016"/>
<polygon fill="#191970" stroke="#191970" points="172.2376,-86.3468 166.0226,-94.9273 176.2319,-92.0953 172.2376,-86.3468"/>
</g>
<!-- Node50 -->
<g id="node24" class="node">
<title>Node50</title>
<g id="a_node24"><a xlink:href="../../dd/d1f/stf-decoder-workflow_8cxx.html" target="_top" xlink:title="/home/runner/work/AliceO2\l/AliceO2/Detectors/ITSMFT\l/common/workflow/src/stf\l&#45;decoder&#45;workflow.cxx">
<polygon fill="none" stroke="#000000" points="0,-.5 0,-52.5 139,-52.5 139,-.5 0,-.5"/>
<text text-anchor="start" x="8" y="-40.5" font-family="Helvetica,sans-Serif" font-size="10.00" fill="#000000">/home/runner/work/AliceO2</text>
<text text-anchor="start" x="8" y="-29.5" font-family="Helvetica,sans-Serif" font-size="10.00" fill="#000000">/AliceO2/Detectors/ITSMFT</text>
<text text-anchor="start" x="8" y="-18.5" font-family="Helvetica,sans-Serif" font-size="10.00" fill="#000000">/common/workflow/src/stf</text>
<text text-anchor="middle" x="69.5" y="-7.5" font-family="Helvetica,sans-Serif" font-size="10.00" fill="#000000">&#45;decoder&#45;workflow.cxx</text>
</a>
</g>
</g>
<!-- Node49&#45;&gt;Node50 -->
<g id="edge28" class="edge">
<title>Node49&#45;&gt;Node50</title>
<path fill="none" stroke="#191970" d="M106.8449,-86.3151C99.935,-75.2475 92.4058,-63.1881 85.9299,-52.8157"/>
<polygon fill="#191970" stroke="#191970" points="103.9569,-88.2984 112.2218,-94.9273 109.8947,-84.5912 103.9569,-88.2984"/>
</g>
<!-- Node51&#45;&gt;Node31 -->
<g id="edge36" class="edge">
<title>Node51&#45;&gt;Node31</title>
<path fill="none" stroke="#191970" d="M1280.5341,-185.8878C1252.255,-175.2831 1220.2853,-163.2945 1191.5889,-152.5333"/>
<polygon fill="#191970" stroke="#191970" points="1279.3806,-189.1932 1289.9728,-189.4273 1281.8385,-182.6389 1279.3806,-189.1932"/>
</g>
<!-- Node51&#45;&gt;Node32 -->
<g id="edge37" class="edge">
<title>Node51&#45;&gt;Node32</title>
<path fill="none" stroke="#191970" d="M1287.2581,-184.4141C1271.7332,-175.6806 1256.1963,-165.1787 1243.5,-153 1219.6269,-130.1003 1229.203,-112.0757 1205.5,-89 1190.5821,-74.477 1171.6209,-62.2253 1153.5599,-52.5231"/>
<polygon fill="#191970" stroke="#191970" points="1285.9159,-187.6675 1296.3761,-189.3513 1289.249,-181.5119 1285.9159,-187.6675"/>
</g>
<!-- Node51&#45;&gt;Node34 -->
<g id="edge38" class="edge">
<title>Node51&#45;&gt;Node34</title>
<path fill="none" stroke="#191970" d="M1420.467,-184.8544C1444.6734,-172.6868 1472.2284,-158.836 1495.4737,-147.1515"/>
<polygon fill="#191970" stroke="#191970" points="1418.7323,-181.8089 1411.3695,-189.4273 1421.8762,-188.0633 1418.7323,-181.8089"/>
</g>
<!-- Node51&#45;&gt;Node39 -->
<g id="edge39" class="edge">
<title>Node51&#45;&gt;Node39</title>
<path fill="none" stroke="#191970" d="M1472.5891,-193.2142C1524.8846,-182.2443 1587.6512,-168.1339 1643.5,-153 1650.2994,-151.1575 1657.3247,-149.1337 1664.3494,-147.0266"/>
<polygon fill="#191970" stroke="#191970" points="1471.6874,-189.8269 1462.613,-195.2955 1473.1171,-196.6794 1471.6874,-189.8269"/>
</g>
<!-- Node52 -->
<g id="node26" class="node">
<title>Node52</title>
<g id="a_node26"><a xlink:href="../../df/d56/MC2RawEncoder_8h.html" target="_top" xlink:title="Definition of the ITS/MFT Alpide pixel MC&#45;&gt;raw converter. ">
<polygon fill="none" stroke="#000000" points="1252.5,-95 1252.5,-147 1442.5,-147 1442.5,-95 1252.5,-95"/>
<text text-anchor="start" x="1260.5" y="-135" font-family="Helvetica,sans-Serif" font-size="10.00" fill="#000000">/home/runner/work/AliceO2</text>
<text text-anchor="start" x="1260.5" y="-124" font-family="Helvetica,sans-Serif" font-size="10.00" fill="#000000">/AliceO2/Detectors/ITSMFT</text>
<text text-anchor="start" x="1260.5" y="-113" font-family="Helvetica,sans-Serif" font-size="10.00" fill="#000000">/common/simulation/include</text>
<text text-anchor="middle" x="1347.5" y="-102" font-family="Helvetica,sans-Serif" font-size="10.00" fill="#000000">/ITSMFTSimulation/MC2RawEncoder.h</text>
</a>
</g>
</g>
<!-- Node51&#45;&gt;Node52 -->
<g id="edge32" class="edge">
<title>Node51&#45;&gt;Node52</title>
<path fill="none" stroke="#191970" d="M1354.928,-179.4957C1353.5692,-168.795 1352.1066,-157.2773 1350.8417,-147.3157"/>
<polygon fill="#191970" stroke="#191970" points="1351.4573,-179.9479 1356.1892,-189.4273 1358.4015,-179.066 1351.4573,-179.9479"/>
</g>
<!-- Node53 -->
<g id="node27" class="node">
<title>Node53</title>
<g id="a_node27"><a xlink:href="../../d8/d6b/MC2RawEncoder_8cxx.html" target="_top" xlink:title="/home/runner/work/AliceO2\l/AliceO2/Detectors/ITSMFT\l/common/simulation/src/MC2RawEncoder.cxx">
<polygon fill="none" stroke="#000000" points="1592.5,-6 1592.5,-47 1812.5,-47 1812.5,-6 1592.5,-6"/>
<text text-anchor="start" x="1600.5" y="-35" font-family="Helvetica,sans-Serif" font-size="10.00" fill="#000000">/home/runner/work/AliceO2</text>
<text text-anchor="start" x="1600.5" y="-24" font-family="Helvetica,sans-Serif" font-size="10.00" fill="#000000">/AliceO2/Detectors/ITSMFT</text>
<text text-anchor="middle" x="1702.5" y="-13" font-family="Helvetica,sans-Serif" font-size="10.00" fill="#000000">/common/simulation/src/MC2RawEncoder.cxx</text>
</a>
</g>
</g>
<!-- Node52&#45;&gt;Node53 -->
<g id="edge33" class="edge">
<title>Node52&#45;&gt;Node53</title>
<path fill="none" stroke="#191970" d="M1440.6072,-92.0812C1444.2813,-91.0258 1447.9225,-89.995 1451.5,-89 1505.581,-73.9587 1566.6916,-58.705 1615.073,-47.0324"/>
<polygon fill="#191970" stroke="#191970" points="1439.4518,-88.7721 1430.8261,-94.9241 1441.4056,-95.4939 1439.4518,-88.7721"/>
</g>
<!-- Node54 -->
<g id="node28" class="node">
<title>Node54</title>
<g id="a_node28"><a xlink:href="../../db/d7a/ITSMFT_2ITS_2simulation_2src_2digi2raw_8cxx.html" target="_top" xlink:title="/home/runner/work/AliceO2\l/AliceO2/Detectors/ITSMFT\l/ITS/simulation/src/digi2raw.cxx">
<polygon fill="none" stroke="#000000" points="1831,-6 1831,-47 1988,-47 1988,-6 1831,-6"/>
<text text-anchor="start" x="1839" y="-35" font-family="Helvetica,sans-Serif" font-size="10.00" fill="#000000">/home/runner/work/AliceO2</text>
<text text-anchor="start" x="1839" y="-24" font-family="Helvetica,sans-Serif" font-size="10.00" fill="#000000">/AliceO2/Detectors/ITSMFT</text>
<text text-anchor="middle" x="1909.5" y="-13" font-family="Helvetica,sans-Serif" font-size="10.00" fill="#000000">/ITS/simulation/src/digi2raw.cxx</text>
</a>
</g>
</g>
<!-- Node52&#45;&gt;Node54 -->
<g id="edge34" class="edge">
<title>Node52&#45;&gt;Node54</title>
<path fill="none" stroke="#191970" d="M1436.2011,-92.4145C1441.3515,-91.1586 1446.4771,-90.0064 1451.5,-89 1613.5012,-56.5408 1659.4022,-84.973 1821.5,-53 1829.64,-51.3944 1838.104,-49.3477 1846.4245,-47.1054"/>
<polygon fill="#191970" stroke="#191970" points="1435.1098,-89.0808 1426.2868,-94.9464 1436.8419,-95.8632 1435.1098,-89.0808"/>
</g>
<!-- Node55 -->
<g id="node29" class="node">
<title>Node55</title>
<g id="a_node29"><a xlink:href="../../d2/da1/ITSMFT_2MFT_2simulation_2src_2digi2raw_8cxx.html" target="_top" xlink:title="/home/runner/work/AliceO2\l/AliceO2/Detectors/ITSMFT\l/MFT/simulation/src/digi2raw.cxx">
<polygon fill="none" stroke="#000000" points="2006,-6 2006,-47 2167,-47 2167,-6 2006,-6"/>
<text text-anchor="start" x="2014" y="-35" font-family="Helvetica,sans-Serif" font-size="10.00" fill="#000000">/home/runner/work/AliceO2</text>
<text text-anchor="start" x="2014" y="-24" font-family="Helvetica,sans-Serif" font-size="10.00" fill="#000000">/AliceO2/Detectors/ITSMFT</text>
<text text-anchor="middle" x="2086.5" y="-13" font-family="Helvetica,sans-Serif" font-size="10.00" fill="#000000">/MFT/simulation/src/digi2raw.cxx</text>
</a>
</g>
</g>
<!-- Node52&#45;&gt;Node55 -->
<g id="edge35" class="edge">
<title>Node52&#45;&gt;Node55</title>
<path fill="none" stroke="#191970" d="M1435.0543,-92.4884C1440.5869,-91.1758 1446.1007,-89.9946 1451.5,-89 1690.6695,-44.9423 1758.1324,-95.9684 1997.5,-53 2006.0688,-51.4618 2014.9827,-49.3935 2023.7147,-47.087"/>
<polygon fill="#191970" stroke="#191970" points="1433.9467,-89.1576 1425.0958,-94.9811 1435.6464,-95.9481 1433.9467,-89.1576"/>
</g>
</g>
</svg>
