<?xml version="1.0" encoding="UTF-8" standalone="no"?>
<!DOCTYPE svg PUBLIC "-//W3C//DTD SVG 1.1//EN"
 "http://www.w3.org/Graphics/SVG/1.1/DTD/svg11.dtd">
<!-- Generated by graphviz version 2.40.1 (20161225.0304)
 -->
<!-- Title: /home/runner/work/AliceO2/AliceO2/Detectors/MUON/MID/Simulation/include/MIDSimulation/ClusterLabeler.h Pages: 1 -->
<svg width="630pt" height="139pt"
 viewBox="0.00 0.00 630.00 139.00" xmlns="http://www.w3.org/2000/svg" xmlns:xlink="http://www.w3.org/1999/xlink">
<g id="graph0" class="graph" transform="scale(1 1) rotate(0) translate(4 135)">
<title>/home/runner/work/AliceO2/AliceO2/Detectors/MUON/MID/Simulation/include/MIDSimulation/ClusterLabeler.h</title>
<!-- Node18 -->
<g id="node1" class="node">
<title>Node18</title>
<polygon fill="#bfbfbf" stroke="#000000" points="223,-78.5 223,-130.5 381,-130.5 381,-78.5 223,-78.5"/>
<text text-anchor="start" x="231" y="-118.5" font-family="Helvetica,sans-Serif" font-size="10.00" fill="#000000">/home/runner/work/AliceO2</text>
<text text-anchor="start" x="231" y="-107.5" font-family="Helvetica,sans-Serif" font-size="10.00" fill="#000000">/AliceO2/Detectors/MUON</text>
<text text-anchor="start" x="231" y="-96.5" font-family="Helvetica,sans-Serif" font-size="10.00" fill="#000000">/MID/Simulation/include</text>
<text text-anchor="middle" x="302" y="-85.5" font-family="Helvetica,sans-Serif" font-size="10.00" fill="#000000">/MIDSimulation/ClusterLabeler.h</text>
</g>
<!-- Node19 -->
<g id="node2" class="node">
<title>Node19</title>
<g id="a_node2"><a xlink:href="../../dd/de0/ClusterLabeler_8cxx.html" target="_top" xlink:title="Implementation of the ClusterLabeler for MID. ">
<polygon fill="none" stroke="#000000" points="0,-.5 0,-41.5 188,-41.5 188,-.5 0,-.5"/>
<text text-anchor="start" x="8" y="-29.5" font-family="Helvetica,sans-Serif" font-size="10.00" fill="#000000">/home/runner/work/AliceO2</text>
<text text-anchor="start" x="8" y="-18.5" font-family="Helvetica,sans-Serif" font-size="10.00" fill="#000000">/AliceO2/Detectors/MUON</text>
<text text-anchor="middle" x="94" y="-7.5" font-family="Helvetica,sans-Serif" font-size="10.00" fill="#000000">/MID/Simulation/src/ClusterLabeler.cxx</text>
</a>
</g>
</g>
<!-- Node18&#45;&gt;Node19 -->
<g id="edge1" class="edge">
<title>Node18&#45;&gt;Node19</title>
<path fill="none" stroke="#191970" d="M227.5392,-74.6083C200.2833,-63.6666 170.0757,-51.54 145.2948,-41.5919"/>
<polygon fill="#191970" stroke="#191970" points="226.459,-77.9461 237.0431,-78.4235 229.0669,-71.45 226.459,-77.9461"/>
</g>
<!-- Node20 -->
<g id="node3" class="node">
<title>Node20</title>
<g id="a_node3"><a xlink:href="../../d6/d45/testSimulation_8cxx.html" target="_top" xlink:title="/home/runner/work/AliceO2\l/AliceO2/Detectors/MUON\l/MID/Simulation/test/testSimulation.cxx">
<polygon fill="none" stroke="#000000" points="206.5,-.5 206.5,-41.5 397.5,-41.5 397.5,-.5 206.5,-.5"/>
<text text-anchor="start" x="214.5" y="-29.5" font-family="Helvetica,sans-Serif" font-size="10.00" fill="#000000">/home/runner/work/AliceO2</text>
<text text-anchor="start" x="214.5" y="-18.5" font-family="Helvetica,sans-Serif" font-size="10.00" fill="#000000">/AliceO2/Detectors/MUON</text>
<text text-anchor="middle" x="302" y="-7.5" font-family="Helvetica,sans-Serif" font-size="10.00" fill="#000000">/MID/Simulation/test/testSimulation.cxx</text>
</a>
</g>
</g>
<!-- Node18&#45;&gt;Node20 -->
<g id="edge2" class="edge">
<title>Node18&#45;&gt;Node20</title>
<path fill="none" stroke="#191970" d="M302,-67.8168C302,-58.8649 302,-49.5976 302,-41.6941"/>
<polygon fill="#191970" stroke="#191970" points="298.5001,-68.08 302,-78.0801 305.5001,-68.0801 298.5001,-68.08"/>
</g>
<!-- Node21 -->
<g id="node4" class="node">
<title>Node21</title>
<g id="a_node4"><a xlink:href="../../d3/d1e/ClusterizerMCSpec_8cxx.html" target="_top" xlink:title="Data processor spec for MID MC clustering device. ">
<polygon fill="none" stroke="#000000" points="416,-.5 416,-41.5 622,-41.5 622,-.5 416,-.5"/>
<text text-anchor="start" x="424" y="-29.5" font-family="Helvetica,sans-Serif" font-size="10.00" fill="#000000">/home/runner/work/AliceO2</text>
<text text-anchor="start" x="424" y="-18.5" font-family="Helvetica,sans-Serif" font-size="10.00" fill="#000000">/AliceO2/Detectors/MUON</text>
<text text-anchor="middle" x="519" y="-7.5" font-family="Helvetica,sans-Serif" font-size="10.00" fill="#000000">/MID/Workflow/src/ClusterizerMCSpec.cxx</text>
</a>
</g>
</g>
<!-- Node18&#45;&gt;Node21 -->
<g id="edge3" class="edge">
<title>Node18&#45;&gt;Node21</title>
<path fill="none" stroke="#191970" d="M379.3104,-74.7515C407.8426,-63.7725 439.5197,-51.5834 465.4857,-41.5919"/>
<polygon fill="#191970" stroke="#191970" points="377.8435,-71.5657 369.7676,-78.4235 380.3574,-78.0988 377.8435,-71.5657"/>
</g>
</g>
</svg>
