<?xml version="1.0" encoding="UTF-8" standalone="no"?>
<!DOCTYPE svg PUBLIC "-//W3C//DTD SVG 1.1//EN"
 "http://www.w3.org/Graphics/SVG/1.1/DTD/svg11.dtd">
<!-- Generated by graphviz version 2.40.1 (20161225.0304)
 -->
<!-- Title: o2::phos::CTFHelper::Iter_time Pages: 1 -->
<svg width="160pt" height="409pt"
 viewBox="0.00 0.00 159.50 409.00" xmlns="http://www.w3.org/2000/svg" xmlns:xlink="http://www.w3.org/1999/xlink">
<g id="graph0" class="graph" transform="scale(1 1) rotate(0) translate(4 405)">
<title>o2::phos::CTFHelper::Iter_time</title>
<!-- Node2 -->
<g id="node1" class="node">
<title>Node2</title>
<polygon fill="#bfbfbf" stroke="#000000" points="9.5,-.5 9.5,-68.5 117.5,-68.5 117.5,-.5 9.5,-.5"/>
<text text-anchor="start" x="17.5" y="-56.5" font-family="Helvetica,sans-Serif" font-size="10.00" fill="#000000">o2::phos::CTFHelper</text>
<text text-anchor="middle" x="63.5" y="-45.5" font-family="Helvetica,sans-Serif" font-size="10.00" fill="#000000">::Iter_time</text>
<polyline fill="none" stroke="#000000" points="9.5,-38.5 117.5,-38.5 "/>
<text text-anchor="middle" x="63.5" y="-26.5" font-family="Helvetica,sans-Serif" font-size="10.00" fill="#000000"> </text>
<polyline fill="none" stroke="#000000" points="9.5,-19.5 117.5,-19.5 "/>
<text text-anchor="start" x="17.5" y="-7.5" font-family="Helvetica,sans-Serif" font-size="10.00" fill="#000000">+ operator*()</text>
</g>
<!-- Node3 -->
<g id="node2" class="node">
<title>Node3</title>
<g id="a_node2"><a xlink:href="../../d7/da3/classo2_1_1phos_1_1CTFHelper_1_1__Iter.html" target="_top" xlink:title="{o2::phos::CTFHelper\l::_Iter\&lt; Iter_time,\l Cell, uint16_t \&gt;\n||+ _Iter()\l+ _Iter()\l+ operator++()\l+ operator&#45;&#45;()\l+ operator&#45;()\l+ operator&#45;()\l+ operator&#45;()\l+ operator!=()\l+ operator==()\l+ operator\&gt;()\l+ operator\&lt;()\l}">
<polygon fill="none" stroke="#000000" points="9.5,-106.5 9.5,-295.5 117.5,-295.5 117.5,-106.5 9.5,-106.5"/>
<text text-anchor="start" x="17.5" y="-283.5" font-family="Helvetica,sans-Serif" font-size="10.00" fill="#000000">o2::phos::CTFHelper</text>
<text text-anchor="start" x="17.5" y="-272.5" font-family="Helvetica,sans-Serif" font-size="10.00" fill="#000000">::_Iter&lt; Iter_time,</text>
<text text-anchor="middle" x="63.5" y="-261.5" font-family="Helvetica,sans-Serif" font-size="10.00" fill="#000000"> Cell, uint16_t &gt;</text>
<polyline fill="none" stroke="#000000" points="9.5,-254.5 117.5,-254.5 "/>
<text text-anchor="middle" x="63.5" y="-242.5" font-family="Helvetica,sans-Serif" font-size="10.00" fill="#000000"> </text>
<polyline fill="none" stroke="#000000" points="9.5,-235.5 117.5,-235.5 "/>
<text text-anchor="start" x="17.5" y="-223.5" font-family="Helvetica,sans-Serif" font-size="10.00" fill="#000000">+ _Iter()</text>
<text text-anchor="start" x="17.5" y="-212.5" font-family="Helvetica,sans-Serif" font-size="10.00" fill="#000000">+ _Iter()</text>
<text text-anchor="start" x="17.5" y="-201.5" font-family="Helvetica,sans-Serif" font-size="10.00" fill="#000000">+ operator++()</text>
<text text-anchor="start" x="17.5" y="-190.5" font-family="Helvetica,sans-Serif" font-size="10.00" fill="#000000">+ operator&#45;&#45;()</text>
<text text-anchor="start" x="17.5" y="-179.5" font-family="Helvetica,sans-Serif" font-size="10.00" fill="#000000">+ operator&#45;()</text>
<text text-anchor="start" x="17.5" y="-168.5" font-family="Helvetica,sans-Serif" font-size="10.00" fill="#000000">+ operator&#45;()</text>
<text text-anchor="start" x="17.5" y="-157.5" font-family="Helvetica,sans-Serif" font-size="10.00" fill="#000000">+ operator&#45;()</text>
<text text-anchor="start" x="17.5" y="-146.5" font-family="Helvetica,sans-Serif" font-size="10.00" fill="#000000">+ operator!=()</text>
<text text-anchor="start" x="17.5" y="-135.5" font-family="Helvetica,sans-Serif" font-size="10.00" fill="#000000">+ operator==()</text>
<text text-anchor="start" x="17.5" y="-124.5" font-family="Helvetica,sans-Serif" font-size="10.00" fill="#000000">+ operator&gt;()</text>
<text text-anchor="start" x="17.5" y="-113.5" font-family="Helvetica,sans-Serif" font-size="10.00" fill="#000000">+ operator&lt;()</text>
</a>
</g>
</g>
<!-- Node3&#45;&gt;Node2 -->
<g id="edge1" class="edge">
<title>Node3&#45;&gt;Node2</title>
<path fill="none" stroke="#191970" d="M63.5,-95.9018C63.5,-86.2608 63.5,-77.0404 63.5,-68.8096"/>
<polygon fill="none" stroke="#191970" points="60.0001,-96.0772 63.5,-106.0773 67.0001,-96.0773 60.0001,-96.0772"/>
</g>
<!-- Node4 -->
<g id="node3" class="node">
<title>Node4</title>
<polygon fill="none" stroke="#bfbfbf" points="0,-343.5 0,-400.5 43,-400.5 43,-343.5 0,-343.5"/>
<text text-anchor="middle" x="21.5" y="-388.5" font-family="Helvetica,sans-Serif" font-size="10.00" fill="#000000">size_t</text>
<polyline fill="none" stroke="#bfbfbf" points="0,-381.5 43,-381.5 "/>
<text text-anchor="middle" x="21.5" y="-369.5" font-family="Helvetica,sans-Serif" font-size="10.00" fill="#000000"> </text>
<polyline fill="none" stroke="#bfbfbf" points="0,-362.5 43,-362.5 "/>
<text text-anchor="middle" x="21.5" y="-350.5" font-family="Helvetica,sans-Serif" font-size="10.00" fill="#000000"> </text>
</g>
<!-- Node4&#45;&gt;Node3 -->
<g id="edge2" class="edge">
<title>Node4&#45;&gt;Node3</title>
<path fill="none" stroke="#404040" d="M28.5299,-343.3784C31.0765,-333.0098 34.1249,-320.5988 37.3456,-307.4858"/>
<polygon fill="none" stroke="#404040" points="37.3497,-307.4688 34.8963,-300.6879 40.2121,-295.8152 42.6654,-302.5961 37.3497,-307.4688"/>
<text text-anchor="middle" x="56" y="-317" font-family="Helvetica,sans-Serif" font-size="10.00" fill="#000000"> #mIndex</text>
</g>
<!-- Node5 -->
<g id="node4" class="node">
<title>Node5</title>
<polygon fill="none" stroke="#bfbfbf" points="61.5,-343.5 61.5,-400.5 151.5,-400.5 151.5,-343.5 61.5,-343.5"/>
<text text-anchor="middle" x="106.5" y="-388.5" font-family="Helvetica,sans-Serif" font-size="10.00" fill="#000000">span&lt; const D &gt;</text>
<polyline fill="none" stroke="#bfbfbf" points="61.5,-381.5 151.5,-381.5 "/>
<text text-anchor="middle" x="106.5" y="-369.5" font-family="Helvetica,sans-Serif" font-size="10.00" fill="#000000"> </text>
<polyline fill="none" stroke="#bfbfbf" points="61.5,-362.5 151.5,-362.5 "/>
<text text-anchor="middle" x="106.5" y="-350.5" font-family="Helvetica,sans-Serif" font-size="10.00" fill="#000000"> </text>
</g>
<!-- Node5&#45;&gt;Node3 -->
<g id="edge3" class="edge">
<title>Node5&#45;&gt;Node3</title>
<path fill="none" stroke="#404040" d="M99.3028,-343.3784C96.6955,-333.0098 93.5745,-320.5988 90.2771,-307.4858"/>
<polygon fill="none" stroke="#404040" points="90.2689,-307.4529 84.9264,-302.6096 87.3424,-295.8152 92.6849,-300.6585 90.2689,-307.4529"/>
<text text-anchor="middle" x="112.5" y="-317" font-family="Helvetica,sans-Serif" font-size="10.00" fill="#000000"> #mData</text>
</g>
</g>
</svg>
