<?xml version="1.0" encoding="UTF-8" standalone="no"?>
<!DOCTYPE svg PUBLIC "-//W3C//DTD SVG 1.1//EN"
 "http://www.w3.org/Graphics/SVG/1.1/DTD/svg11.dtd">
<!-- Generated by graphviz version 2.40.1 (20161225.0304)
 -->
<!-- Title: AliHLTHOMERWriter::TBlockData Pages: 1 -->
<svg width="146pt" height="182pt"
 viewBox="0.00 0.00 145.50 182.00" xmlns="http://www.w3.org/2000/svg" xmlns:xlink="http://www.w3.org/1999/xlink">
<g id="graph0" class="graph" transform="scale(1 1) rotate(0) translate(4 178)">
<title>AliHLTHOMERWriter::TBlockData</title>
<!-- Node1 -->
<g id="node1" class="node">
<title>Node1</title>
<polygon fill="#bfbfbf" stroke="#000000" points=".5,-.5 .5,-68.5 116.5,-68.5 116.5,-.5 .5,-.5"/>
<text text-anchor="start" x="8.5" y="-56.5" font-family="Helvetica,sans-Serif" font-size="10.00" fill="#000000">AliHLTHOMERWriter::</text>
<text text-anchor="middle" x="58.5" y="-45.5" font-family="Helvetica,sans-Serif" font-size="10.00" fill="#000000">TBlockData</text>
<polyline fill="none" stroke="#000000" points=".5,-38.5 116.5,-38.5 "/>
<text text-anchor="middle" x="58.5" y="-26.5" font-family="Helvetica,sans-Serif" font-size="10.00" fill="#000000"> </text>
<polyline fill="none" stroke="#000000" points=".5,-19.5 116.5,-19.5 "/>
<text text-anchor="middle" x="58.5" y="-7.5" font-family="Helvetica,sans-Serif" font-size="10.00" fill="#000000"> </text>
</g>
<!-- Node2 -->
<g id="node2" class="node">
<title>Node2</title>
<polygon fill="none" stroke="#bfbfbf" points="0,-116.5 0,-173.5 41,-173.5 41,-116.5 0,-116.5"/>
<text text-anchor="middle" x="20.5" y="-161.5" font-family="Helvetica,sans-Serif" font-size="10.00" fill="#000000">const</text>
<polyline fill="none" stroke="#bfbfbf" points="0,-154.5 41,-154.5 "/>
<text text-anchor="middle" x="20.5" y="-142.5" font-family="Helvetica,sans-Serif" font-size="10.00" fill="#000000"> </text>
<polyline fill="none" stroke="#bfbfbf" points="0,-135.5 41,-135.5 "/>
<text text-anchor="middle" x="20.5" y="-123.5" font-family="Helvetica,sans-Serif" font-size="10.00" fill="#000000"> </text>
</g>
<!-- Node2&#45;&gt;Node1 -->
<g id="edge1" class="edge">
<title>Node2&#45;&gt;Node1</title>
<path fill="none" stroke="#404040" d="M30.3849,-116.2559C34.1844,-105.2071 38.6214,-92.305 42.8328,-80.0586"/>
<polygon fill="none" stroke="#404040" points="42.8708,-79.9478 41.0395,-72.9731 46.7733,-68.6001 48.6046,-75.5748 42.8708,-79.9478"/>
<text text-anchor="middle" x="56.5" y="-90" font-family="Helvetica,sans-Serif" font-size="10.00" fill="#000000"> +fData</text>
</g>
<!-- Node3 -->
<g id="node3" class="node">
<title>Node3</title>
<polygon fill="none" stroke="#bfbfbf" points="59,-116.5 59,-173.5 134,-173.5 134,-116.5 59,-116.5"/>
<text text-anchor="middle" x="96.5" y="-161.5" font-family="Helvetica,sans-Serif" font-size="10.00" fill="#000000">homer_uint64</text>
<polyline fill="none" stroke="#bfbfbf" points="59,-154.5 134,-154.5 "/>
<text text-anchor="middle" x="96.5" y="-142.5" font-family="Helvetica,sans-Serif" font-size="10.00" fill="#000000"> </text>
<polyline fill="none" stroke="#bfbfbf" points="59,-135.5 134,-135.5 "/>
<text text-anchor="middle" x="96.5" y="-123.5" font-family="Helvetica,sans-Serif" font-size="10.00" fill="#000000"> </text>
</g>
<!-- Node3&#45;&gt;Node1 -->
<g id="edge2" class="edge">
<title>Node3&#45;&gt;Node1</title>
<path fill="none" stroke="#404040" d="M86.6151,-116.2559C82.8156,-105.2071 78.3786,-92.305 74.1672,-80.0586"/>
<polygon fill="none" stroke="#404040" points="74.1292,-79.9478 68.3954,-75.5748 70.2267,-68.6001 75.9605,-72.9731 74.1292,-79.9478"/>
<text text-anchor="middle" x="108.5" y="-90" font-family="Helvetica,sans-Serif" font-size="10.00" fill="#000000"> +fDescriptor</text>
</g>
</g>
</svg>
