<?xml version="1.0" encoding="UTF-8" standalone="no"?>
<!DOCTYPE svg PUBLIC "-//W3C//DTD SVG 1.1//EN"
 "http://www.w3.org/Graphics/SVG/1.1/DTD/svg11.dtd">
<!-- Generated by graphviz version 2.40.1 (20161225.0304)
 -->
<!-- Title: o2::utilities::DataSamplingHeader Pages: 1 -->
<svg width="1177pt" height="1069pt"
 viewBox="0.00 0.00 1176.88 1069.00" xmlns="http://www.w3.org/2000/svg" xmlns:xlink="http://www.w3.org/1999/xlink">
<g id="graph0" class="graph" transform="scale(1 1) rotate(0) translate(4 1065)">
<title>o2::utilities::DataSamplingHeader</title>
<!-- Node2 -->
<g id="node1" class="node">
<title>Node2</title>
<polygon fill="#bfbfbf" stroke="#000000" points="458.3781,-.5 458.3781,-112.5 589.3781,-112.5 589.3781,-.5 458.3781,-.5"/>
<text text-anchor="start" x="466.3781" y="-100.5" font-family="Helvetica,sans-Serif" font-size="10.00" fill="#000000">o2::utilities::DataSampling</text>
<text text-anchor="middle" x="523.8781" y="-89.5" font-family="Helvetica,sans-Serif" font-size="10.00" fill="#000000">Header</text>
<polyline fill="none" stroke="#000000" points="458.3781,-82.5 589.3781,-82.5 "/>
<text text-anchor="middle" x="523.8781" y="-70.5" font-family="Helvetica,sans-Serif" font-size="10.00" fill="#000000"> </text>
<polyline fill="none" stroke="#000000" points="458.3781,-63.5 589.3781,-63.5 "/>
<text text-anchor="start" x="466.3781" y="-51.5" font-family="Helvetica,sans-Serif" font-size="10.00" fill="#000000">+ DataSamplingHeader()</text>
<text text-anchor="start" x="466.3781" y="-40.5" font-family="Helvetica,sans-Serif" font-size="10.00" fill="#000000">+ DataSamplingHeader()</text>
<text text-anchor="start" x="466.3781" y="-29.5" font-family="Helvetica,sans-Serif" font-size="10.00" fill="#000000">+ DataSamplingHeader()</text>
<text text-anchor="start" x="466.3781" y="-18.5" font-family="Helvetica,sans-Serif" font-size="10.00" fill="#000000">+ operator=()</text>
<text text-anchor="start" x="466.3781" y="-7.5" font-family="Helvetica,sans-Serif" font-size="10.00" fill="#000000">+ Get()</text>
</g>
<!-- Node3 -->
<g id="node2" class="node">
<title>Node3</title>
<g id="a_node2"><a xlink:href="../../d8/dbd/structo2_1_1header_1_1BaseHeader.html" target="_top" xlink:title="the base header struct Every header type must begin (i.e. derive) with this. Don&#39;t use this struct di...">
<polygon fill="none" stroke="#000000" points="446.3781,-160.5 446.3781,-327.5 601.3781,-327.5 601.3781,-160.5 446.3781,-160.5"/>
<text text-anchor="middle" x="523.8781" y="-315.5" font-family="Helvetica,sans-Serif" font-size="10.00" fill="#000000">o2::header::BaseHeader</text>
<polyline fill="none" stroke="#000000" points="446.3781,-308.5 601.3781,-308.5 "/>
<text text-anchor="middle" x="523.8781" y="-296.5" font-family="Helvetica,sans-Serif" font-size="10.00" fill="#000000"> </text>
<polyline fill="none" stroke="#000000" points="446.3781,-289.5 601.3781,-289.5 "/>
<text text-anchor="start" x="454.3781" y="-277.5" font-family="Helvetica,sans-Serif" font-size="10.00" fill="#000000">+ BaseHeader()</text>
<text text-anchor="start" x="454.3781" y="-266.5" font-family="Helvetica,sans-Serif" font-size="10.00" fill="#000000">+ BaseHeader()</text>
<text text-anchor="start" x="454.3781" y="-255.5" font-family="Helvetica,sans-Serif" font-size="10.00" fill="#000000">+ BaseHeader()</text>
<text text-anchor="start" x="454.3781" y="-244.5" font-family="Helvetica,sans-Serif" font-size="10.00" fill="#000000">+ size()</text>
<text text-anchor="start" x="454.3781" y="-233.5" font-family="Helvetica,sans-Serif" font-size="10.00" fill="#000000">+ data()</text>
<text text-anchor="start" x="454.3781" y="-222.5" font-family="Helvetica,sans-Serif" font-size="10.00" fill="#000000">+ next()</text>
<text text-anchor="start" x="454.3781" y="-211.5" font-family="Helvetica,sans-Serif" font-size="10.00" fill="#000000">+ next()</text>
<text text-anchor="start" x="454.3781" y="-200.5" font-family="Helvetica,sans-Serif" font-size="10.00" fill="#000000">+ sanityCheck()</text>
<text text-anchor="start" x="454.3781" y="-189.5" font-family="Helvetica,sans-Serif" font-size="10.00" fill="#000000">+ throwInconsistentStackError()</text>
<text text-anchor="start" x="454.3781" y="-178.5" font-family="Helvetica,sans-Serif" font-size="10.00" fill="#000000">+ get()</text>
<text text-anchor="start" x="454.3781" y="-167.5" font-family="Helvetica,sans-Serif" font-size="10.00" fill="#000000">+ get()</text>
</a>
</g>
</g>
<!-- Node3&#45;&gt;Node2 -->
<g id="edge1" class="edge">
<title>Node3&#45;&gt;Node2</title>
<path fill="none" stroke="#191970" d="M523.8781,-150.1C523.8781,-137.2415 523.8781,-124.3866 523.8781,-112.5032"/>
<polygon fill="none" stroke="#191970" points="520.3782,-150.3946 523.8781,-160.3947 527.3782,-150.3947 520.3782,-150.3946"/>
</g>
<!-- Node4 -->
<g id="node3" class="node">
<title>Node4</title>
<g id="a_node3"><a xlink:href="../../d9/db3/structo2_1_1header_1_1Descriptor.html" target="_top" xlink:title="{o2::header::Descriptor\l\&lt; gSizeHeaderDescriptionString \&gt;\n||+ Descriptor()\l+ Descriptor()\l+ Descriptor()\l+ Descriptor()\l+ operator=()\l+ operator ItgType()\l+ runtimeInit()\l+ operator==()\l+ operator==()\l+ operator\&lt;()\l+ operator!=()\l+ operator!=()\l+ as()\l+ print()\l}">
<polygon fill="none" stroke="#000000" points="562.8781,-441.5 562.8781,-652.5 728.8781,-652.5 728.8781,-441.5 562.8781,-441.5"/>
<text text-anchor="start" x="570.8781" y="-640.5" font-family="Helvetica,sans-Serif" font-size="10.00" fill="#000000">o2::header::Descriptor</text>
<text text-anchor="middle" x="645.8781" y="-629.5" font-family="Helvetica,sans-Serif" font-size="10.00" fill="#000000">&lt; gSizeHeaderDescriptionString &gt;</text>
<polyline fill="none" stroke="#000000" points="562.8781,-622.5 728.8781,-622.5 "/>
<text text-anchor="middle" x="645.8781" y="-610.5" font-family="Helvetica,sans-Serif" font-size="10.00" fill="#000000"> </text>
<polyline fill="none" stroke="#000000" points="562.8781,-603.5 728.8781,-603.5 "/>
<text text-anchor="start" x="570.8781" y="-591.5" font-family="Helvetica,sans-Serif" font-size="10.00" fill="#000000">+ Descriptor()</text>
<text text-anchor="start" x="570.8781" y="-580.5" font-family="Helvetica,sans-Serif" font-size="10.00" fill="#000000">+ Descriptor()</text>
<text text-anchor="start" x="570.8781" y="-569.5" font-family="Helvetica,sans-Serif" font-size="10.00" fill="#000000">+ Descriptor()</text>
<text text-anchor="start" x="570.8781" y="-558.5" font-family="Helvetica,sans-Serif" font-size="10.00" fill="#000000">+ Descriptor()</text>
<text text-anchor="start" x="570.8781" y="-547.5" font-family="Helvetica,sans-Serif" font-size="10.00" fill="#000000">+ operator=()</text>
<text text-anchor="start" x="570.8781" y="-536.5" font-family="Helvetica,sans-Serif" font-size="10.00" fill="#000000">+ operator ItgType()</text>
<text text-anchor="start" x="570.8781" y="-525.5" font-family="Helvetica,sans-Serif" font-size="10.00" fill="#000000">+ runtimeInit()</text>
<text text-anchor="start" x="570.8781" y="-514.5" font-family="Helvetica,sans-Serif" font-size="10.00" fill="#000000">+ operator==()</text>
<text text-anchor="start" x="570.8781" y="-503.5" font-family="Helvetica,sans-Serif" font-size="10.00" fill="#000000">+ operator==()</text>
<text text-anchor="start" x="570.8781" y="-492.5" font-family="Helvetica,sans-Serif" font-size="10.00" fill="#000000">+ operator&lt;()</text>
<text text-anchor="start" x="570.8781" y="-481.5" font-family="Helvetica,sans-Serif" font-size="10.00" fill="#000000">+ operator!=()</text>
<text text-anchor="start" x="570.8781" y="-470.5" font-family="Helvetica,sans-Serif" font-size="10.00" fill="#000000">+ operator!=()</text>
<text text-anchor="start" x="570.8781" y="-459.5" font-family="Helvetica,sans-Serif" font-size="10.00" fill="#000000">+ as()</text>
<text text-anchor="start" x="570.8781" y="-448.5" font-family="Helvetica,sans-Serif" font-size="10.00" fill="#000000">+ print()</text>
</a>
</g>
</g>
<!-- Node4&#45;&gt;Node3 -->
<g id="edge2" class="edge">
<title>Node4&#45;&gt;Node3</title>
<path fill="none" stroke="#404040" d="M646.0076,-441.4585C642.7399,-409.5874 635.7493,-375.3028 621.8781,-346 618.1941,-338.2175 613.6809,-330.6535 608.6347,-323.394"/>
<polygon fill="none" stroke="#404040" points="608.5916,-323.3359 601.8065,-320.894 601.4509,-313.6916 608.236,-316.1335 608.5916,-323.3359"/>
<text text-anchor="middle" x="672.3781" y="-382" font-family="Helvetica,sans-Serif" font-size="10.00" fill="#000000"> +description</text>
</g>
<!-- Node5 -->
<g id="node4" class="node">
<title>Node5</title>
<polygon fill="none" stroke="#bfbfbf" points="405.3781,-1003.5 405.3781,-1060.5 502.3781,-1060.5 502.3781,-1003.5 405.3781,-1003.5"/>
<text text-anchor="middle" x="453.8781" y="-1048.5" font-family="Helvetica,sans-Serif" font-size="10.00" fill="#000000">anonymous:+@87</text>
<polyline fill="none" stroke="#bfbfbf" points="405.3781,-1041.5 502.3781,-1041.5 "/>
<text text-anchor="middle" x="453.8781" y="-1029.5" font-family="Helvetica,sans-Serif" font-size="10.00" fill="#000000"> </text>
<polyline fill="none" stroke="#bfbfbf" points="405.3781,-1022.5 502.3781,-1022.5 "/>
<text text-anchor="middle" x="453.8781" y="-1010.5" font-family="Helvetica,sans-Serif" font-size="10.00" fill="#000000"> </text>
</g>
<!-- Node5&#45;&gt;Node4 -->
<g id="edge3" class="edge">
<title>Node5&#45;&gt;Node4</title>
<path fill="none" stroke="#404040" d="M447.6805,-1003.3399C430.497,-922.3142 384.9238,-695.8272 406.8781,-671 426.6722,-648.6157 508.1227,-664.8869 551.575,-651.7303"/>
<polygon fill="none" stroke="#404040" points="551.6268,-651.7093 555.6747,-645.7414 562.7403,-647.1826 558.6925,-653.1504 551.6268,-651.7093"/>
<text text-anchor="middle" x="448.3781" y="-825.5" font-family="Helvetica,sans-Serif" font-size="10.00" fill="#000000"> +@87</text>
</g>
<!-- Node9 -->
<g id="node8" class="node">
<title>Node9</title>
<g id="a_node8"><a xlink:href="../../d9/db3/structo2_1_1header_1_1Descriptor.html" target="_top" xlink:title="{o2::header::Descriptor\l\&lt; N, PrinterPolicy \&gt;\n||+ Descriptor()\l+ Descriptor()\l+ Descriptor()\l+ operator=()\l+ operator ItgType()\l+ Descriptor()\l+ runtimeInit()\l+ operator==()\l+ operator\&lt;()\l+ operator!=()\l+ operator==()\l+ operator!=()\l+ as()\l+ print()\l}">
<polygon fill="none" stroke="#000000" points="494.3781,-722.5 494.3781,-933.5 607.3781,-933.5 607.3781,-722.5 494.3781,-722.5"/>
<text text-anchor="start" x="502.3781" y="-921.5" font-family="Helvetica,sans-Serif" font-size="10.00" fill="#000000">o2::header::Descriptor</text>
<text text-anchor="middle" x="550.8781" y="-910.5" font-family="Helvetica,sans-Serif" font-size="10.00" fill="#000000">&lt; N, PrinterPolicy &gt;</text>
<polyline fill="none" stroke="#000000" points="494.3781,-903.5 607.3781,-903.5 "/>
<text text-anchor="middle" x="550.8781" y="-891.5" font-family="Helvetica,sans-Serif" font-size="10.00" fill="#000000"> </text>
<polyline fill="none" stroke="#000000" points="494.3781,-884.5 607.3781,-884.5 "/>
<text text-anchor="start" x="502.3781" y="-872.5" font-family="Helvetica,sans-Serif" font-size="10.00" fill="#000000">+ Descriptor()</text>
<text text-anchor="start" x="502.3781" y="-861.5" font-family="Helvetica,sans-Serif" font-size="10.00" fill="#000000">+ Descriptor()</text>
<text text-anchor="start" x="502.3781" y="-850.5" font-family="Helvetica,sans-Serif" font-size="10.00" fill="#000000">+ Descriptor()</text>
<text text-anchor="start" x="502.3781" y="-839.5" font-family="Helvetica,sans-Serif" font-size="10.00" fill="#000000">+ operator=()</text>
<text text-anchor="start" x="502.3781" y="-828.5" font-family="Helvetica,sans-Serif" font-size="10.00" fill="#000000">+ operator ItgType()</text>
<text text-anchor="start" x="502.3781" y="-817.5" font-family="Helvetica,sans-Serif" font-size="10.00" fill="#000000">+ Descriptor()</text>
<text text-anchor="start" x="502.3781" y="-806.5" font-family="Helvetica,sans-Serif" font-size="10.00" fill="#000000">+ runtimeInit()</text>
<text text-anchor="start" x="502.3781" y="-795.5" font-family="Helvetica,sans-Serif" font-size="10.00" fill="#000000">+ operator==()</text>
<text text-anchor="start" x="502.3781" y="-784.5" font-family="Helvetica,sans-Serif" font-size="10.00" fill="#000000">+ operator&lt;()</text>
<text text-anchor="start" x="502.3781" y="-773.5" font-family="Helvetica,sans-Serif" font-size="10.00" fill="#000000">+ operator!=()</text>
<text text-anchor="start" x="502.3781" y="-762.5" font-family="Helvetica,sans-Serif" font-size="10.00" fill="#000000">+ operator==()</text>
<text text-anchor="start" x="502.3781" y="-751.5" font-family="Helvetica,sans-Serif" font-size="10.00" fill="#000000">+ operator!=()</text>
<text text-anchor="start" x="502.3781" y="-740.5" font-family="Helvetica,sans-Serif" font-size="10.00" fill="#000000">+ as()</text>
<text text-anchor="start" x="502.3781" y="-729.5" font-family="Helvetica,sans-Serif" font-size="10.00" fill="#000000">+ print()</text>
</a>
</g>
</g>
<!-- Node5&#45;&gt;Node9 -->
<g id="edge8" class="edge">
<title>Node5&#45;&gt;Node9</title>
<path fill="none" stroke="#404040" d="M467.5701,-1003.2045C475.1202,-987.3259 485.0489,-966.445 495.4108,-944.6528"/>
<polygon fill="none" stroke="#404040" points="495.5375,-944.3864 494.5016,-937.2501 500.6905,-933.5491 501.7264,-940.6854 495.5375,-944.3864"/>
<text text-anchor="middle" x="506.3781" y="-966" font-family="Helvetica,sans-Serif" font-size="10.00" fill="#000000"> +@87</text>
</g>
<!-- Node11 -->
<g id="node10" class="node">
<title>Node11</title>
<g id="a_node10"><a xlink:href="../../d9/db3/structo2_1_1header_1_1Descriptor.html" target="_top" xlink:title="{o2::header::Descriptor\l\&lt; gSizeSerializationMethodString \&gt;\n||+ Descriptor()\l+ Descriptor()\l+ Descriptor()\l+ Descriptor()\l+ operator=()\l+ operator ItgType()\l+ runtimeInit()\l+ operator==()\l+ operator==()\l+ operator\&lt;()\l+ operator!=()\l+ operator!=()\l+ as()\l+ print()\l}">
<polygon fill="none" stroke="#000000" points="746.8781,-441.5 746.8781,-652.5 916.8781,-652.5 916.8781,-441.5 746.8781,-441.5"/>
<text text-anchor="start" x="754.8781" y="-640.5" font-family="Helvetica,sans-Serif" font-size="10.00" fill="#000000">o2::header::Descriptor</text>
<text text-anchor="middle" x="831.8781" y="-629.5" font-family="Helvetica,sans-Serif" font-size="10.00" fill="#000000">&lt; gSizeSerializationMethodString &gt;</text>
<polyline fill="none" stroke="#000000" points="746.8781,-622.5 916.8781,-622.5 "/>
<text text-anchor="middle" x="831.8781" y="-610.5" font-family="Helvetica,sans-Serif" font-size="10.00" fill="#000000"> </text>
<polyline fill="none" stroke="#000000" points="746.8781,-603.5 916.8781,-603.5 "/>
<text text-anchor="start" x="754.8781" y="-591.5" font-family="Helvetica,sans-Serif" font-size="10.00" fill="#000000">+ Descriptor()</text>
<text text-anchor="start" x="754.8781" y="-580.5" font-family="Helvetica,sans-Serif" font-size="10.00" fill="#000000">+ Descriptor()</text>
<text text-anchor="start" x="754.8781" y="-569.5" font-family="Helvetica,sans-Serif" font-size="10.00" fill="#000000">+ Descriptor()</text>
<text text-anchor="start" x="754.8781" y="-558.5" font-family="Helvetica,sans-Serif" font-size="10.00" fill="#000000">+ Descriptor()</text>
<text text-anchor="start" x="754.8781" y="-547.5" font-family="Helvetica,sans-Serif" font-size="10.00" fill="#000000">+ operator=()</text>
<text text-anchor="start" x="754.8781" y="-536.5" font-family="Helvetica,sans-Serif" font-size="10.00" fill="#000000">+ operator ItgType()</text>
<text text-anchor="start" x="754.8781" y="-525.5" font-family="Helvetica,sans-Serif" font-size="10.00" fill="#000000">+ runtimeInit()</text>
<text text-anchor="start" x="754.8781" y="-514.5" font-family="Helvetica,sans-Serif" font-size="10.00" fill="#000000">+ operator==()</text>
<text text-anchor="start" x="754.8781" y="-503.5" font-family="Helvetica,sans-Serif" font-size="10.00" fill="#000000">+ operator==()</text>
<text text-anchor="start" x="754.8781" y="-492.5" font-family="Helvetica,sans-Serif" font-size="10.00" fill="#000000">+ operator&lt;()</text>
<text text-anchor="start" x="754.8781" y="-481.5" font-family="Helvetica,sans-Serif" font-size="10.00" fill="#000000">+ operator!=()</text>
<text text-anchor="start" x="754.8781" y="-470.5" font-family="Helvetica,sans-Serif" font-size="10.00" fill="#000000">+ operator!=()</text>
<text text-anchor="start" x="754.8781" y="-459.5" font-family="Helvetica,sans-Serif" font-size="10.00" fill="#000000">+ as()</text>
<text text-anchor="start" x="754.8781" y="-448.5" font-family="Helvetica,sans-Serif" font-size="10.00" fill="#000000">+ print()</text>
</a>
</g>
</g>
<!-- Node5&#45;&gt;Node11 -->
<g id="edge15" class="edge">
<title>Node5&#45;&gt;Node11</title>
<path fill="none" stroke="#404040" d="M502.4135,-1030.0872C609.2564,-1025.4012 857.4425,-1011.7318 883.8781,-985 896.7261,-972.008 909.2238,-850.1599 888.8781,-722 885.8702,-703.053 881.138,-683.3677 875.6557,-664.3324"/>
<polygon fill="none" stroke="#404040" points="875.5798,-664.0773 870.0334,-659.469 872.154,-652.5767 877.7005,-657.1851 875.5798,-664.0773"/>
<text text-anchor="middle" x="915.3781" y="-825.5" font-family="Helvetica,sans-Serif" font-size="10.00" fill="#000000"> +@87</text>
</g>
<!-- Node15 -->
<g id="node14" class="node">
<title>Node15</title>
<g id="a_node14"><a xlink:href="../../d9/db3/structo2_1_1header_1_1Descriptor.html" target="_top" xlink:title="{o2::header::Descriptor\l\&lt; deviceIDTypeSize \&gt;\n||+ Descriptor()\l+ Descriptor()\l+ Descriptor()\l+ Descriptor()\l+ operator=()\l+ operator ItgType()\l+ runtimeInit()\l+ operator==()\l+ operator==()\l+ operator\&lt;()\l+ operator!=()\l+ operator!=()\l+ as()\l+ print()\l}">
<polygon fill="none" stroke="#000000" points="140.3781,-441.5 140.3781,-652.5 255.3781,-652.5 255.3781,-441.5 140.3781,-441.5"/>
<text text-anchor="start" x="148.3781" y="-640.5" font-family="Helvetica,sans-Serif" font-size="10.00" fill="#000000">o2::header::Descriptor</text>
<text text-anchor="middle" x="197.8781" y="-629.5" font-family="Helvetica,sans-Serif" font-size="10.00" fill="#000000">&lt; deviceIDTypeSize &gt;</text>
<polyline fill="none" stroke="#000000" points="140.3781,-622.5 255.3781,-622.5 "/>
<text text-anchor="middle" x="197.8781" y="-610.5" font-family="Helvetica,sans-Serif" font-size="10.00" fill="#000000"> </text>
<polyline fill="none" stroke="#000000" points="140.3781,-603.5 255.3781,-603.5 "/>
<text text-anchor="start" x="148.3781" y="-591.5" font-family="Helvetica,sans-Serif" font-size="10.00" fill="#000000">+ Descriptor()</text>
<text text-anchor="start" x="148.3781" y="-580.5" font-family="Helvetica,sans-Serif" font-size="10.00" fill="#000000">+ Descriptor()</text>
<text text-anchor="start" x="148.3781" y="-569.5" font-family="Helvetica,sans-Serif" font-size="10.00" fill="#000000">+ Descriptor()</text>
<text text-anchor="start" x="148.3781" y="-558.5" font-family="Helvetica,sans-Serif" font-size="10.00" fill="#000000">+ Descriptor()</text>
<text text-anchor="start" x="148.3781" y="-547.5" font-family="Helvetica,sans-Serif" font-size="10.00" fill="#000000">+ operator=()</text>
<text text-anchor="start" x="148.3781" y="-536.5" font-family="Helvetica,sans-Serif" font-size="10.00" fill="#000000">+ operator ItgType()</text>
<text text-anchor="start" x="148.3781" y="-525.5" font-family="Helvetica,sans-Serif" font-size="10.00" fill="#000000">+ runtimeInit()</text>
<text text-anchor="start" x="148.3781" y="-514.5" font-family="Helvetica,sans-Serif" font-size="10.00" fill="#000000">+ operator==()</text>
<text text-anchor="start" x="148.3781" y="-503.5" font-family="Helvetica,sans-Serif" font-size="10.00" fill="#000000">+ operator==()</text>
<text text-anchor="start" x="148.3781" y="-492.5" font-family="Helvetica,sans-Serif" font-size="10.00" fill="#000000">+ operator&lt;()</text>
<text text-anchor="start" x="148.3781" y="-481.5" font-family="Helvetica,sans-Serif" font-size="10.00" fill="#000000">+ operator!=()</text>
<text text-anchor="start" x="148.3781" y="-470.5" font-family="Helvetica,sans-Serif" font-size="10.00" fill="#000000">+ operator!=()</text>
<text text-anchor="start" x="148.3781" y="-459.5" font-family="Helvetica,sans-Serif" font-size="10.00" fill="#000000">+ as()</text>
<text text-anchor="start" x="148.3781" y="-448.5" font-family="Helvetica,sans-Serif" font-size="10.00" fill="#000000">+ print()</text>
</a>
</g>
</g>
<!-- Node5&#45;&gt;Node15 -->
<g id="edge24" class="edge">
<title>Node5&#45;&gt;Node15</title>
<path fill="none" stroke="#404040" d="M405.1007,-1009.9169C374.3251,-993.4152 336.4434,-967.8742 314.8781,-934 263.0999,-852.6684 297.3288,-814.1215 268.8781,-722 263.0145,-703.014 255.9479,-683.2094 248.5766,-664.038"/>
<polygon fill="none" stroke="#404040" points="248.5675,-664.0145 242.661,-659.8775 244.2081,-652.8343 250.1145,-656.9712 248.5675,-664.0145"/>
<text text-anchor="middle" x="330.3781" y="-825.5" font-family="Helvetica,sans-Serif" font-size="10.00" fill="#000000"> +@87</text>
</g>
<!-- Node6 -->
<g id="node5" class="node">
<title>Node6</title>
<polygon fill="none" stroke="#bfbfbf" points="841.8781,-1003.5 841.8781,-1060.5 879.8781,-1060.5 879.8781,-1003.5 841.8781,-1003.5"/>
<text text-anchor="middle" x="860.8781" y="-1048.5" font-family="Helvetica,sans-Serif" font-size="10.00" fill="#000000">Type</text>
<polyline fill="none" stroke="#bfbfbf" points="841.8781,-1041.5 879.8781,-1041.5 "/>
<text text-anchor="middle" x="860.8781" y="-1029.5" font-family="Helvetica,sans-Serif" font-size="10.00" fill="#000000"> </text>
<polyline fill="none" stroke="#bfbfbf" points="841.8781,-1022.5 879.8781,-1022.5 "/>
<text text-anchor="middle" x="860.8781" y="-1010.5" font-family="Helvetica,sans-Serif" font-size="10.00" fill="#000000"> </text>
</g>
<!-- Node6&#45;&gt;Node4 -->
<g id="edge4" class="edge">
<title>Node6&#45;&gt;Node4</title>
<path fill="none" stroke="#404040" d="M880.0454,-1019.2085C890.7161,-1010.8787 903.0022,-998.977 908.8781,-985 914.562,-971.4795 916.8417,-964.3164 908.8781,-952 898.293,-935.6292 880.3161,-949.7867 868.8781,-934 834.3937,-886.4048 881.024,-713.9276 840.8781,-671 811.5537,-639.6437 783.0314,-670.3782 740.055,-652.9407"/>
<polygon fill="none" stroke="#404040" points="739.8971,-652.8633 732.749,-653.8152 729.1212,-647.5831 736.2692,-646.6312 739.8971,-652.8633"/>
<text text-anchor="middle" x="878.8781" y="-825.5" font-family="Helvetica,sans-Serif" font-size="10.00" fill="#000000"> +itg</text>
</g>
<!-- Node6&#45;&gt;Node9 -->
<g id="edge9" class="edge">
<title>Node6&#45;&gt;Node9</title>
<path fill="none" stroke="#404040" d="M841.5898,-1023.776C821.8201,-1015.0682 790.4401,-1000.466 764.8781,-985 713.2328,-953.7526 658.4069,-913.3743 617.1788,-881.392"/>
<polygon fill="none" stroke="#404040" points="616.9969,-881.2502 609.8057,-880.7149 607.534,-873.8709 614.7252,-874.4062 616.9969,-881.2502"/>
<text text-anchor="middle" x="774.8781" y="-966" font-family="Helvetica,sans-Serif" font-size="10.00" fill="#000000"> +itg</text>
</g>
<!-- Node6&#45;&gt;Node11 -->
<g id="edge16" class="edge">
<title>Node6&#45;&gt;Node11</title>
<path fill="none" stroke="#404040" d="M880.0527,-1025.3944C897.7219,-1018.2697 923.2098,-1005.1598 936.8781,-985 972.0313,-933.1515 973.6279,-862.2742 945.8781,-722 941.6923,-700.8411 933.2968,-680.0667 922.8737,-660.6405"/>
<polygon fill="none" stroke="#404040" points="922.7687,-660.4536 916.3417,-657.1834 916.8885,-649.993 923.3154,-653.2632 922.7687,-660.4536"/>
<text text-anchor="middle" x="974.8781" y="-825.5" font-family="Helvetica,sans-Serif" font-size="10.00" fill="#000000"> +itg</text>
</g>
<!-- Node6&#45;&gt;Node15 -->
<g id="edge25" class="edge">
<title>Node6&#45;&gt;Node15</title>
<path fill="none" stroke="#404040" d="M841.6683,-1014.6828C833.9976,-1006.5189 826.0156,-996.1314 821.8781,-985 809.7203,-952.2912 840.3858,-695.8406 815.8781,-671 774.7998,-629.3637 358.8529,-678.6014 266.6471,-651.9399"/>
<polygon fill="none" stroke="#404040" points="266.6047,-651.9228 259.5442,-653.3891 255.4752,-647.4356 262.5356,-645.9694 266.6047,-651.9228"/>
<text text-anchor="middle" x="835.8781" y="-825.5" font-family="Helvetica,sans-Serif" font-size="10.00" fill="#000000"> +itg</text>
</g>
<!-- Node7 -->
<g id="node6" class="node">
<title>Node7</title>
<polygon fill="none" stroke="#bfbfbf" points="226.3781,-1003.5 226.3781,-1060.5 261.3781,-1060.5 261.3781,-1003.5 226.3781,-1003.5"/>
<text text-anchor="middle" x="243.8781" y="-1048.5" font-family="Helvetica,sans-Serif" font-size="10.00" fill="#000000">char</text>
<polyline fill="none" stroke="#bfbfbf" points="226.3781,-1041.5 261.3781,-1041.5 "/>
<text text-anchor="middle" x="243.8781" y="-1029.5" font-family="Helvetica,sans-Serif" font-size="10.00" fill="#000000"> </text>
<polyline fill="none" stroke="#bfbfbf" points="226.3781,-1022.5 261.3781,-1022.5 "/>
<text text-anchor="middle" x="243.8781" y="-1010.5" font-family="Helvetica,sans-Serif" font-size="10.00" fill="#000000"> </text>
</g>
<!-- Node7&#45;&gt;Node3 -->
<g id="edge13" class="edge">
<title>Node7&#45;&gt;Node3</title>
<path fill="none" stroke="#404040" d="M226.3721,-1027.4214C191.4231,-1017.2597 113.4018,-989.2338 78.8781,-934 -37.9011,-747.1674 -28.3236,-593.311 130.8781,-441 153.7785,-419.0908 169.8422,-433.1137 199.8781,-423 284.2815,-394.5797 301.3006,-376.7644 384.8781,-346 405.9618,-338.2392 415.7174,-340.6351 435.6489,-330.5373"/>
<polygon fill="none" stroke="#404040" points="435.9043,-330.3926 439.1529,-323.9547 446.3451,-324.4773 443.0964,-330.9153 435.9043,-330.3926"/>
<text text-anchor="middle" x="32.3781" y="-685" font-family="Helvetica,sans-Serif" font-size="10.00" fill="#000000"> +magicString</text>
</g>
<!-- Node7&#45;&gt;Node4 -->
<g id="edge5" class="edge">
<title>Node7&#45;&gt;Node4</title>
<path fill="none" stroke="#404040" d="M240.0664,-1003.3101C231.6617,-935.5776 214.5128,-767.9828 243.8781,-722 272.8819,-676.5833 301.8316,-684.9666 353.8781,-671 435.9636,-648.9725 470.6955,-689.4878 551.6266,-652.7548"/>
<polygon fill="none" stroke="#404040" points="552.0187,-652.5647 555.6712,-646.3471 562.8154,-647.3273 559.1628,-653.5449 552.0187,-652.5647"/>
<text text-anchor="middle" x="254.3781" y="-825.5" font-family="Helvetica,sans-Serif" font-size="10.00" fill="#000000"> +str</text>
</g>
<!-- Node7&#45;&gt;Node9 -->
<g id="edge10" class="edge">
<title>Node7&#45;&gt;Node9</title>
<path fill="none" stroke="#404040" d="M261.5597,-1027.6577C301.2581,-1017.2032 398.9856,-987.46 462.8781,-934 470.7229,-927.4361 478.4025,-920.1071 485.7532,-912.4518"/>
<polygon fill="none" stroke="#404040" points="486.0514,-912.131 487.2066,-905.013 494.2214,-903.3416 493.0662,-910.4596 486.0514,-912.131"/>
<text text-anchor="middle" x="447.3781" y="-966" font-family="Helvetica,sans-Serif" font-size="10.00" fill="#000000"> +str</text>
</g>
<!-- Node7&#45;&gt;Node11 -->
<g id="edge17" class="edge">
<title>Node7&#45;&gt;Node11</title>
<path fill="none" stroke="#404040" d="M261.3917,-1020.8297C284.9511,-1004.7574 326.1651,-972.7391 345.8781,-934 372.6313,-881.426 338.4214,-710.8907 381.8781,-671 409.1748,-645.9432 665.7397,-667.0288 735.1474,-651.9368"/>
<polygon fill="none" stroke="#404040" points="735.2531,-651.9033 739.763,-646.2766 746.6916,-648.2755 742.1816,-653.9022 735.2531,-651.9033"/>
<text text-anchor="middle" x="372.3781" y="-825.5" font-family="Helvetica,sans-Serif" font-size="10.00" fill="#000000"> +str</text>
</g>
<!-- Node7&#45;&gt;Node15 -->
<g id="edge26" class="edge">
<title>Node7&#45;&gt;Node15</title>
<path fill="none" stroke="#404040" d="M227.6545,-1003.4546C217.7931,-984.4398 206.1219,-958.5282 200.8781,-934 181.8779,-845.1253 182.1185,-742.1265 186.5718,-664.7412"/>
<polygon fill="none" stroke="#404040" points="186.585,-664.5248 182.9602,-658.2909 187.3204,-652.5473 190.9452,-658.7812 186.585,-664.5248"/>
<text text-anchor="middle" x="211.3781" y="-825.5" font-family="Helvetica,sans-Serif" font-size="10.00" fill="#000000"> +str</text>
</g>
<!-- Node8 -->
<g id="node7" class="node">
<title>Node8</title>
<polygon fill="none" stroke="#bfbfbf" points="1019.3781,-1003.5 1019.3781,-1060.5 1048.3781,-1060.5 1048.3781,-1003.5 1019.3781,-1003.5"/>
<text text-anchor="middle" x="1033.8781" y="-1048.5" font-family="Helvetica,sans-Serif" font-size="10.00" fill="#000000">int</text>
<polyline fill="none" stroke="#bfbfbf" points="1019.3781,-1041.5 1048.3781,-1041.5 "/>
<text text-anchor="middle" x="1033.8781" y="-1029.5" font-family="Helvetica,sans-Serif" font-size="10.00" fill="#000000"> </text>
<polyline fill="none" stroke="#bfbfbf" points="1019.3781,-1022.5 1048.3781,-1022.5 "/>
<text text-anchor="middle" x="1033.8781" y="-1010.5" font-family="Helvetica,sans-Serif" font-size="10.00" fill="#000000"> </text>
</g>
<!-- Node8&#45;&gt;Node4 -->
<g id="edge6" class="edge">
<title>Node8&#45;&gt;Node4</title>
<path fill="none" stroke="#404040" d="M1033.286,-1003.4708C1031.3257,-935.3095 1023.0484,-765.438 988.8781,-722 979.4764,-710.0483 876.5616,-674.9535 861.8781,-671 811.5703,-657.4548 789.6353,-676.8704 739.7777,-653.2238"/>
<polygon fill="none" stroke="#404040" points="739.7237,-653.196 732.5579,-654.0028 729.0571,-647.6984 736.2229,-646.8917 739.7237,-653.196"/>
<text text-anchor="middle" x="1055.3781" y="-836.5" font-family="Helvetica,sans-Serif" font-size="10.00" fill="#000000"> +arraySize</text>
<text text-anchor="middle" x="1055.3781" y="-825.5" font-family="Helvetica,sans-Serif" font-size="10.00" fill="#000000">+size</text>
<text text-anchor="middle" x="1055.3781" y="-814.5" font-family="Helvetica,sans-Serif" font-size="10.00" fill="#000000">+bitcount</text>
</g>
<!-- Node8&#45;&gt;Node9 -->
<g id="edge11" class="edge">
<title>Node8&#45;&gt;Node9</title>
<path fill="none" stroke="#404040" d="M1019.2363,-1026.8484C979.7423,-1012.8601 867.8664,-972.623 776.8781,-934 723.0018,-911.1304 663.0716,-882.8893 618.4697,-861.3092"/>
<polygon fill="none" stroke="#404040" points="618.2697,-861.2122 611.1254,-862.1916 607.4735,-855.9736 614.6178,-854.9942 618.2697,-861.2122"/>
<text text-anchor="middle" x="928.3781" y="-977" font-family="Helvetica,sans-Serif" font-size="10.00" fill="#000000"> +arraySize</text>
<text text-anchor="middle" x="928.3781" y="-966" font-family="Helvetica,sans-Serif" font-size="10.00" fill="#000000">+size</text>
<text text-anchor="middle" x="928.3781" y="-955" font-family="Helvetica,sans-Serif" font-size="10.00" fill="#000000">+bitcount</text>
</g>
<!-- Node8&#45;&gt;Node11 -->
<g id="edge18" class="edge">
<title>Node8&#45;&gt;Node11</title>
<path fill="none" stroke="#404040" d="M1048.4593,-1013.0228C1061.958,-994.164 1081.0812,-963.8238 1088.8781,-934 1112.7099,-842.8415 1140.8345,-800.6025 1088.8781,-722 1045.7243,-656.7145 990.5093,-698.5579 926.8781,-653 926.7745,-652.9258 926.6709,-652.8515 926.5674,-652.7771"/>
<polygon fill="none" stroke="#404040" points="926.5778,-652.785 919.3815,-652.3234 917.0398,-645.5031 924.2361,-645.9647 926.5778,-652.785"/>
<text text-anchor="middle" x="1143.3781" y="-836.5" font-family="Helvetica,sans-Serif" font-size="10.00" fill="#000000"> +arraySize</text>
<text text-anchor="middle" x="1143.3781" y="-825.5" font-family="Helvetica,sans-Serif" font-size="10.00" fill="#000000">+size</text>
<text text-anchor="middle" x="1143.3781" y="-814.5" font-family="Helvetica,sans-Serif" font-size="10.00" fill="#000000">+bitcount</text>
</g>
<!-- Node9&#45;&gt;Node4 -->
<g id="edge7" class="edge">
<title>Node9&#45;&gt;Node4</title>
<path fill="none" stroke="#ffa500" d="M543.2355,-711.9403C544.7525,-697.9194 547.4683,-683.98 551.8781,-671 554.7458,-662.5591 558.4362,-654.2339 562.6894,-646.1349"/>
<polygon fill="#ffa500" stroke="#ffa500" points="539.727,-711.8829 542.3356,-722.1516 546.7,-712.4975 539.727,-711.8829"/>
<text text-anchor="start" x="551.8781" y="-690.5" font-family="Helvetica,sans-Serif" font-size="10.00" fill="#000000"> &lt; gSizeHeaderDescription</text>
<text text-anchor="middle" x="610.8781" y="-679.5" font-family="Helvetica,sans-Serif" font-size="10.00" fill="#000000">String &gt;</text>
</g>
<!-- Node9&#45;&gt;Node11 -->
<g id="edge19" class="edge">
<title>Node9&#45;&gt;Node11</title>
<path fill="none" stroke="#ffa500" d="M615.0896,-770.6403C651.8386,-737.144 698.3515,-693.6 737.8781,-653 740.7949,-650.004 743.7389,-646.9384 746.6935,-643.8258"/>
<polygon fill="#ffa500" stroke="#ffa500" points="612.4458,-768.3137 607.402,-777.6309 617.1553,-773.4927 612.4458,-768.3137"/>
<text text-anchor="start" x="718.8781" y="-690.5" font-family="Helvetica,sans-Serif" font-size="10.00" fill="#000000"> &lt; gSizeSerializationMethod</text>
<text text-anchor="middle" x="780.3781" y="-679.5" font-family="Helvetica,sans-Serif" font-size="10.00" fill="#000000">String &gt;</text>
</g>
<!-- Node9&#45;&gt;Node15 -->
<g id="edge28" class="edge">
<title>Node9&#45;&gt;Node15</title>
<path fill="none" stroke="#ffa500" d="M486.9176,-742.0016C479.3352,-734.6565 471.2833,-727.8226 462.8781,-722 385.9283,-668.6935 337.0287,-711.4111 263.8781,-653 260.9982,-650.7004 258.2098,-648.2388 255.5134,-645.6468"/>
<polygon fill="#ffa500" stroke="#ffa500" points="484.8165,-744.8541 494.3391,-749.4986 489.7912,-739.9295 484.8165,-744.8541"/>
<text text-anchor="middle" x="479.8781" y="-685" font-family="Helvetica,sans-Serif" font-size="10.00" fill="#000000"> &lt; deviceIDTypeSize &gt;</text>
</g>
<!-- Node10 -->
<g id="node9" class="node">
<title>Node10</title>
<polygon fill="none" stroke="#bfbfbf" points="273.3781,-518.5 273.3781,-575.5 370.3781,-575.5 370.3781,-518.5 273.3781,-518.5"/>
<text text-anchor="middle" x="321.8781" y="-563.5" font-family="Helvetica,sans-Serif" font-size="10.00" fill="#000000">anonymous:+@89</text>
<polyline fill="none" stroke="#bfbfbf" points="273.3781,-556.5 370.3781,-556.5 "/>
<text text-anchor="middle" x="321.8781" y="-544.5" font-family="Helvetica,sans-Serif" font-size="10.00" fill="#000000"> </text>
<polyline fill="none" stroke="#bfbfbf" points="273.3781,-537.5 370.3781,-537.5 "/>
<text text-anchor="middle" x="321.8781" y="-525.5" font-family="Helvetica,sans-Serif" font-size="10.00" fill="#000000"> </text>
</g>
<!-- Node10&#45;&gt;Node3 -->
<g id="edge12" class="edge">
<title>Node10&#45;&gt;Node3</title>
<path fill="none" stroke="#404040" d="M337.1792,-518.1075C348.5527,-496.739 364.52,-466.9651 378.8781,-441 402.3804,-398.4987 404.5537,-385.4518 432.8781,-346 434.9217,-343.1535 437.0323,-340.2961 439.1954,-337.4384"/>
<polygon fill="none" stroke="#404040" points="439.3696,-337.2141 439.8912,-330.0218 446.7308,-327.7371 446.2092,-334.9293 439.3696,-337.2141"/>
<text text-anchor="middle" x="448.3781" y="-382" font-family="Helvetica,sans-Serif" font-size="10.00" fill="#000000"> +@89</text>
</g>
<!-- Node11&#45;&gt;Node3 -->
<g id="edge14" class="edge">
<title>Node11&#45;&gt;Node3</title>
<path fill="none" stroke="#404040" d="M746.7705,-450.8654C735.5856,-437.6615 727.1661,-427.1772 724.8781,-423 707.7203,-391.6749 724.0673,-373.9874 701.8781,-346 678.6183,-316.6623 644.4486,-294.2199 612.2502,-277.9567"/>
<polygon fill="none" stroke="#404040" points="612.2107,-277.9375 605.0644,-278.9026 601.425,-272.6772 608.5712,-271.7121 612.2107,-277.9375"/>
<text text-anchor="middle" x="755.3781" y="-382" font-family="Helvetica,sans-Serif" font-size="10.00" fill="#000000"> +serialization</text>
</g>
<!-- Node12 -->
<g id="node11" class="node">
<title>Node12</title>
<polygon fill="none" stroke="#bfbfbf" points="388.3781,-518.5 388.3781,-575.5 485.3781,-575.5 485.3781,-518.5 388.3781,-518.5"/>
<text text-anchor="middle" x="436.8781" y="-563.5" font-family="Helvetica,sans-Serif" font-size="10.00" fill="#000000">anonymous:+@91</text>
<polyline fill="none" stroke="#bfbfbf" points="388.3781,-556.5 485.3781,-556.5 "/>
<text text-anchor="middle" x="436.8781" y="-544.5" font-family="Helvetica,sans-Serif" font-size="10.00" fill="#000000"> </text>
<polyline fill="none" stroke="#bfbfbf" points="388.3781,-537.5 485.3781,-537.5 "/>
<text text-anchor="middle" x="436.8781" y="-525.5" font-family="Helvetica,sans-Serif" font-size="10.00" fill="#000000"> </text>
</g>
<!-- Node12&#45;&gt;Node3 -->
<g id="edge20" class="edge">
<title>Node12&#45;&gt;Node3</title>
<path fill="none" stroke="#404040" d="M443.5911,-518.181C452.8919,-478.9764 470.6251,-406.756 488.8781,-346 489.5548,-343.7475 490.2494,-341.4705 490.9585,-339.1767"/>
<polygon fill="none" stroke="#404040" points="490.9987,-339.049 488.989,-332.1236 494.6088,-327.6049 496.6185,-334.5303 490.9987,-339.049"/>
<text text-anchor="middle" x="504.3781" y="-382" font-family="Helvetica,sans-Serif" font-size="10.00" fill="#000000"> +@91</text>
</g>
<!-- Node13 -->
<g id="node12" class="node">
<title>Node13</title>
<g id="a_node12"><a xlink:href="../../d3/d87/classuint32__t.html" target="_top" xlink:title="{uint32_t\n||}">
<polygon fill="none" stroke="#000000" points="935.3781,-518.5 935.3781,-575.5 986.3781,-575.5 986.3781,-518.5 935.3781,-518.5"/>
<text text-anchor="middle" x="960.8781" y="-563.5" font-family="Helvetica,sans-Serif" font-size="10.00" fill="#000000">uint32_t</text>
<polyline fill="none" stroke="#000000" points="935.3781,-556.5 986.3781,-556.5 "/>
<text text-anchor="middle" x="960.8781" y="-544.5" font-family="Helvetica,sans-Serif" font-size="10.00" fill="#000000"> </text>
<polyline fill="none" stroke="#000000" points="935.3781,-537.5 986.3781,-537.5 "/>
<text text-anchor="middle" x="960.8781" y="-525.5" font-family="Helvetica,sans-Serif" font-size="10.00" fill="#000000"> </text>
</a>
</g>
</g>
<!-- Node13&#45;&gt;Node2 -->
<g id="edge30" class="edge">
<title>Node13&#45;&gt;Node2</title>
<path fill="none" stroke="#404040" d="M956.0172,-518.2217C947.8905,-476.8146 928.3895,-399.5333 888.8781,-346 809.9313,-239.0362 681.8903,-150.0813 600.3453,-100.1056"/>
<polygon fill="none" stroke="#404040" points="599.9085,-99.8404 592.7038,-100.1451 589.6515,-93.6118 596.8562,-93.3071 599.9085,-99.8404"/>
<text text-anchor="middle" x="930.3781" y="-247" font-family="Helvetica,sans-Serif" font-size="10.00" fill="#000000"> +totalEvaluatedMessages</text>
<text text-anchor="middle" x="930.3781" y="-236" font-family="Helvetica,sans-Serif" font-size="10.00" fill="#000000">+totalAcceptedMessages</text>
</g>
<!-- Node13&#45;&gt;Node3 -->
<g id="edge21" class="edge">
<title>Node13&#45;&gt;Node3</title>
<path fill="none" stroke="#404040" d="M959.3762,-518.1527C956.488,-493.8295 948.3655,-460.0281 925.8781,-441 885.7152,-407.0155 848.55,-457.5563 808.8781,-423 781.9462,-399.5409 810.0901,-372.257 785.8781,-346 741.0075,-297.3396 670.1593,-271.6106 613.4447,-258.1727"/>
<polygon fill="none" stroke="#404040" points="613.2758,-258.1346 606.5414,-260.7128 601.5713,-255.488 608.3058,-252.9098 613.2758,-258.1346"/>
<text text-anchor="middle" x="848.8781" y="-415" font-family="Helvetica,sans-Serif" font-size="10.00" fill="#000000"> +headerVersion</text>
<text text-anchor="middle" x="848.8781" y="-404" font-family="Helvetica,sans-Serif" font-size="10.00" fill="#000000">+headerSize</text>
<text text-anchor="middle" x="848.8781" y="-393" font-family="Helvetica,sans-Serif" font-size="10.00" fill="#000000">+sMagicString</text>
<text text-anchor="middle" x="848.8781" y="-382" font-family="Helvetica,sans-Serif" font-size="10.00" fill="#000000">+flagsNextHeader</text>
<text text-anchor="middle" x="848.8781" y="-371" font-family="Helvetica,sans-Serif" font-size="10.00" fill="#000000">+magicStringInt</text>
<text text-anchor="middle" x="848.8781" y="-360" font-family="Helvetica,sans-Serif" font-size="10.00" fill="#000000">+flagsUnused</text>
<text text-anchor="middle" x="848.8781" y="-349" font-family="Helvetica,sans-Serif" font-size="10.00" fill="#000000">+flags</text>
</g>
<!-- Node14 -->
<g id="node13" class="node">
<title>Node14</title>
<polygon fill="none" stroke="#bfbfbf" points="503.3781,-518.5 503.3781,-575.5 544.3781,-575.5 544.3781,-518.5 503.3781,-518.5"/>
<text text-anchor="middle" x="523.8781" y="-563.5" font-family="Helvetica,sans-Serif" font-size="10.00" fill="#000000">const</text>
<polyline fill="none" stroke="#bfbfbf" points="503.3781,-556.5 544.3781,-556.5 "/>
<text text-anchor="middle" x="523.8781" y="-544.5" font-family="Helvetica,sans-Serif" font-size="10.00" fill="#000000"> </text>
<polyline fill="none" stroke="#bfbfbf" points="503.3781,-537.5 544.3781,-537.5 "/>
<text text-anchor="middle" x="523.8781" y="-525.5" font-family="Helvetica,sans-Serif" font-size="10.00" fill="#000000"> </text>
</g>
<!-- Node14&#45;&gt;Node3 -->
<g id="edge22" class="edge">
<title>Node14&#45;&gt;Node3</title>
<path fill="none" stroke="#404040" d="M523.8781,-518.4945C523.8781,-477.9586 523.8781,-401.7139 523.8781,-339.8486"/>
<polygon fill="none" stroke="#404040" points="523.8782,-339.6821 519.8781,-333.6821 523.8781,-327.6821 527.8781,-333.6821 523.8782,-339.6821"/>
<text text-anchor="middle" x="572.3781" y="-393" font-family="Helvetica,sans-Serif" font-size="10.00" fill="#000000"> +sHeaderType</text>
<text text-anchor="middle" x="572.3781" y="-382" font-family="Helvetica,sans-Serif" font-size="10.00" fill="#000000">+sSerializationMethod</text>
<text text-anchor="middle" x="572.3781" y="-371" font-family="Helvetica,sans-Serif" font-size="10.00" fill="#000000">+sVersion</text>
</g>
<!-- Node15&#45;&gt;Node2 -->
<g id="edge23" class="edge">
<title>Node15&#45;&gt;Node2</title>
<path fill="none" stroke="#404040" d="M234.3567,-441.217C266.2444,-358.793 318.3404,-244.541 387.8781,-160 404.9587,-139.2341 426.9885,-120.2007 448.3233,-104.2752"/>
<polygon fill="none" stroke="#404040" points="448.3586,-104.2494 450.8517,-97.483 458.0565,-97.1817 455.5635,-103.9482 448.3586,-104.2494"/>
<text text-anchor="middle" x="412.3781" y="-241.5" font-family="Helvetica,sans-Serif" font-size="10.00" fill="#000000"> +deviceID</text>
</g>
<!-- Node16 -->
<g id="node15" class="node">
<title>Node16</title>
<polygon fill="none" stroke="#bfbfbf" points="88.3781,-799.5 88.3781,-856.5 129.3781,-856.5 129.3781,-799.5 88.3781,-799.5"/>
<text text-anchor="middle" x="108.8781" y="-844.5" font-family="Helvetica,sans-Serif" font-size="10.00" fill="#000000">static</text>
<polyline fill="none" stroke="#bfbfbf" points="88.3781,-837.5 129.3781,-837.5 "/>
<text text-anchor="middle" x="108.8781" y="-825.5" font-family="Helvetica,sans-Serif" font-size="10.00" fill="#000000"> </text>
<polyline fill="none" stroke="#bfbfbf" points="88.3781,-818.5 129.3781,-818.5 "/>
<text text-anchor="middle" x="108.8781" y="-806.5" font-family="Helvetica,sans-Serif" font-size="10.00" fill="#000000"> </text>
</g>
<!-- Node16&#45;&gt;Node2 -->
<g id="edge31" class="edge">
<title>Node16&#45;&gt;Node2</title>
<path fill="none" stroke="#404040" d="M105.0237,-799.4939C95.8686,-722.8271 78.1481,-507.1337 142.8781,-346 181.2484,-250.4841 200.0403,-223.7244 280.8781,-160 330.0726,-121.22 395.9604,-94.3557 446.7169,-77.7328"/>
<polygon fill="none" stroke="#404040" points="446.8573,-77.688 451.3544,-72.051 458.2875,-74.034 453.7904,-79.6711 446.8573,-77.688"/>
<text text-anchor="middle" x="191.3781" y="-398.5" font-family="Helvetica,sans-Serif" font-size="10.00" fill="#000000"> +sHeaderType</text>
<text text-anchor="middle" x="191.3781" y="-387.5" font-family="Helvetica,sans-Serif" font-size="10.00" fill="#000000">+deviceIDTypeSize</text>
<text text-anchor="middle" x="191.3781" y="-376.5" font-family="Helvetica,sans-Serif" font-size="10.00" fill="#000000">+sSerializationMethod</text>
<text text-anchor="middle" x="191.3781" y="-365.5" font-family="Helvetica,sans-Serif" font-size="10.00" fill="#000000">+sVersion</text>
</g>
<!-- Node16&#45;&gt;Node15 -->
<g id="edge27" class="edge">
<title>Node16&#45;&gt;Node15</title>
<path fill="none" stroke="#404040" d="M110.4182,-799.2655C112.7822,-767.2716 118.6421,-714.3569 132.8781,-671 133.8235,-668.1206 134.8311,-665.2275 135.8924,-662.3289"/>
<polygon fill="none" stroke="#404040" points="135.8937,-662.3255 134.3355,-655.2848 140.2354,-651.1385 141.7936,-658.1793 135.8937,-662.3255"/>
<text text-anchor="middle" x="158.3781" y="-696" font-family="Helvetica,sans-Serif" font-size="10.00" fill="#000000"> +arraySize</text>
<text text-anchor="middle" x="158.3781" y="-685" font-family="Helvetica,sans-Serif" font-size="10.00" fill="#000000">+size</text>
<text text-anchor="middle" x="158.3781" y="-674" font-family="Helvetica,sans-Serif" font-size="10.00" fill="#000000">+bitcount</text>
</g>
<!-- Node17 -->
<g id="node16" class="node">
<title>Node17</title>
<g id="a_node16"><a xlink:href="../../d6/d30/classuint64__t.html" target="_top" xlink:title="{uint64_t\n||}">
<polygon fill="none" stroke="#000000" points="1038.3781,-215.5 1038.3781,-272.5 1089.3781,-272.5 1089.3781,-215.5 1038.3781,-215.5"/>
<text text-anchor="middle" x="1063.8781" y="-260.5" font-family="Helvetica,sans-Serif" font-size="10.00" fill="#000000">uint64_t</text>
<polyline fill="none" stroke="#000000" points="1038.3781,-253.5 1089.3781,-253.5 "/>
<text text-anchor="middle" x="1063.8781" y="-241.5" font-family="Helvetica,sans-Serif" font-size="10.00" fill="#000000"> </text>
<polyline fill="none" stroke="#000000" points="1038.3781,-234.5 1089.3781,-234.5 "/>
<text text-anchor="middle" x="1063.8781" y="-222.5" font-family="Helvetica,sans-Serif" font-size="10.00" fill="#000000"> </text>
</a>
</g>
</g>
<!-- Node17&#45;&gt;Node2 -->
<g id="edge29" class="edge">
<title>Node17&#45;&gt;Node2</title>
<path fill="none" stroke="#404040" d="M1056.8675,-215.2112C1050.9778,-196.9036 1040.7427,-174.0763 1023.8781,-160 960.6507,-107.2264 725.7934,-76.5353 601.7645,-63.6731"/>
<polygon fill="none" stroke="#404040" points="601.6912,-63.6657 595.3161,-67.0358 589.7532,-62.4473 596.1283,-59.0772 601.6912,-63.6657"/>
<text text-anchor="middle" x="1025.8781" y="-134" font-family="Helvetica,sans-Serif" font-size="10.00" fill="#000000"> +sampleTimeUs</text>
</g>
</g>
</svg>
