<?xml version="1.0" encoding="UTF-8" standalone="no"?>
<!DOCTYPE svg PUBLIC "-//W3C//DTD SVG 1.1//EN"
 "http://www.w3.org/Graphics/SVG/1.1/DTD/svg11.dtd">
<!-- Generated by graphviz version 2.40.1 (20161225.0304)
 -->
<!-- Title: /home/runner/work/AliceO2/AliceO2/DataFormats/Detectors/CPV/include/DataFormatsCPV/TriggerRecord.h Pages: 1 -->
<svg width="562pt" height="240pt"
 viewBox="0.00 0.00 562.00 240.00" xmlns="http://www.w3.org/2000/svg" xmlns:xlink="http://www.w3.org/1999/xlink">
<g id="graph0" class="graph" transform="scale(1 1) rotate(0) translate(4 236)">
<title>/home/runner/work/AliceO2/AliceO2/DataFormats/Detectors/CPV/include/DataFormatsCPV/TriggerRecord.h</title>
<!-- Node0 -->
<g id="node1" class="node">
<title>Node0</title>
<polygon fill="#bfbfbf" stroke="#000000" points="0,-179.5 0,-231.5 160,-231.5 160,-179.5 0,-179.5"/>
<text text-anchor="start" x="8" y="-219.5" font-family="Helvetica,sans-Serif" font-size="10.00" fill="#000000">/home/runner/work/AliceO2</text>
<text text-anchor="start" x="8" y="-208.5" font-family="Helvetica,sans-Serif" font-size="10.00" fill="#000000">/AliceO2/DataFormats/Detectors</text>
<text text-anchor="start" x="8" y="-197.5" font-family="Helvetica,sans-Serif" font-size="10.00" fill="#000000">/CPV/include/DataFormatsCPV</text>
<text text-anchor="middle" x="80" y="-186.5" font-family="Helvetica,sans-Serif" font-size="10.00" fill="#000000">/TriggerRecord.h</text>
</g>
<!-- Node1 -->
<g id="node2" class="node">
<title>Node1</title>
<polygon fill="none" stroke="#bfbfbf" points="14.5,-56.5 14.5,-75.5 59.5,-75.5 59.5,-56.5 14.5,-56.5"/>
<text text-anchor="middle" x="37" y="-63.5" font-family="Helvetica,sans-Serif" font-size="10.00" fill="#000000">iosfwd</text>
</g>
<!-- Node0&#45;&gt;Node1 -->
<g id="edge1" class="edge">
<title>Node0&#45;&gt;Node1</title>
<path fill="none" stroke="#191970" d="M57.4444,-179.2911C49.7389,-168.7279 42.0482,-155.9794 38,-143 32.1702,-124.3085 32.6833,-101.8027 34.1901,-85.9641"/>
<polygon fill="#191970" stroke="#191970" points="37.6981,-86.0989 35.3863,-75.7594 30.7457,-85.2839 37.6981,-86.0989"/>
</g>
<!-- Node2 -->
<g id="node3" class="node">
<title>Node2</title>
<polygon fill="none" stroke="#bfbfbf" points="33,-.5 33,-19.5 89,-19.5 89,-.5 33,-.5"/>
<text text-anchor="middle" x="61" y="-7.5" font-family="Helvetica,sans-Serif" font-size="10.00" fill="#000000">Rtypes.h</text>
</g>
<!-- Node0&#45;&gt;Node2 -->
<g id="edge2" class="edge">
<title>Node0&#45;&gt;Node2</title>
<path fill="none" stroke="#191970" d="M55.1608,-179.3313C46.0111,-168.6747 36.1472,-155.8513 29,-143 13.6978,-115.4854 11.1818,-107.0541 6,-76 4.537,-67.2323 2.2369,-64.053 6,-56 11.9463,-43.2749 23.3358,-32.8307 34.215,-25.129"/>
<polygon fill="#191970" stroke="#191970" points="36.277,-27.9622 42.7167,-19.5491 32.436,-22.1101 36.277,-27.9622"/>
</g>
<!-- Node3 -->
<g id="node4" class="node">
<title>Node3</title>
<g id="a_node4"><a xlink:href="../../d9/d80/InteractionRecord_8h.html" target="_top" xlink:title="CommonDataFormat/Interaction\lRecord.h">
<polygon fill="none" stroke="#000000" points="257.5,-112.5 257.5,-142.5 414.5,-142.5 414.5,-112.5 257.5,-112.5"/>
<text text-anchor="start" x="265.5" y="-130.5" font-family="Helvetica,sans-Serif" font-size="10.00" fill="#000000">CommonDataFormat/Interaction</text>
<text text-anchor="middle" x="336" y="-119.5" font-family="Helvetica,sans-Serif" font-size="10.00" fill="#000000">Record.h</text>
</a>
</g>
</g>
<!-- Node0&#45;&gt;Node3 -->
<g id="edge3" class="edge">
<title>Node0&#45;&gt;Node3</title>
<path fill="none" stroke="#191970" d="M160.2976,-181.0343C197.9332,-169.5672 241.9893,-156.1439 276.5711,-145.6073"/>
<polygon fill="#191970" stroke="#191970" points="277.9741,-148.8387 286.5198,-142.576 275.9338,-142.1426 277.9741,-148.8387"/>
</g>
<!-- Node8 -->
<g id="node9" class="node">
<title>Node8</title>
<g id="a_node9"><a xlink:href="../../de/d64/RangeReference_8h.html" target="_top" xlink:title="Class to refer to the 1st entry and N elements of some group in the continuous container. ">
<polygon fill="none" stroke="#000000" points="46.5,-118 46.5,-137 239.5,-137 239.5,-118 46.5,-118"/>
<text text-anchor="middle" x="143" y="-125" font-family="Helvetica,sans-Serif" font-size="10.00" fill="#000000">CommonDataFormat/RangeReference.h</text>
</a>
</g>
</g>
<!-- Node0&#45;&gt;Node8 -->
<g id="edge10" class="edge">
<title>Node0&#45;&gt;Node8</title>
<path fill="none" stroke="#191970" d="M101.3289,-179.0928C110.3848,-167.8808 120.697,-155.1133 128.7973,-145.0843"/>
<polygon fill="#191970" stroke="#191970" points="131.6986,-147.0625 135.2592,-137.0839 126.253,-142.6641 131.6986,-147.0625"/>
</g>
<!-- Node3&#45;&gt;Node1 -->
<g id="edge6" class="edge">
<title>Node3&#45;&gt;Node1</title>
<path fill="none" stroke="#191970" d="M257.4956,-113.3346C205.5367,-103.6338 135.9899,-90.0277 75,-76 73.3089,-75.611 71.5786,-75.2006 69.8337,-74.7769"/>
<polygon fill="#191970" stroke="#191970" points="70.4026,-71.3109 59.8504,-72.2606 68.6917,-78.0986 70.4026,-71.3109"/>
</g>
<!-- Node4 -->
<g id="node5" class="node">
<title>Node4</title>
<g id="a_node5"><a xlink:href="../../d2/d45/GPUCommonRtypes_8h.html" target="_top" xlink:title="GPUCommonRtypes.h">
<polygon fill="none" stroke="#000000" points="84,-56.5 84,-75.5 202,-75.5 202,-56.5 84,-56.5"/>
<text text-anchor="middle" x="143" y="-63.5" font-family="Helvetica,sans-Serif" font-size="10.00" fill="#000000">GPUCommonRtypes.h</text>
</a>
</g>
</g>
<!-- Node3&#45;&gt;Node4 -->
<g id="edge4" class="edge">
<title>Node3&#45;&gt;Node4</title>
<path fill="none" stroke="#191970" d="M288.7869,-112.4554C256.1606,-102.059 213.2596,-88.3884 182.4559,-78.5727"/>
<polygon fill="#191970" stroke="#191970" points="183.4988,-75.2317 172.9081,-75.5303 181.3735,-81.9013 183.4988,-75.2317"/>
</g>
<!-- Node5 -->
<g id="node6" class="node">
<title>Node5</title>
<polygon fill="none" stroke="#bfbfbf" points="250,-56.5 250,-75.5 296,-75.5 296,-56.5 250,-56.5"/>
<text text-anchor="middle" x="273" y="-63.5" font-family="Helvetica,sans-Serif" font-size="10.00" fill="#000000">cstdint</text>
</g>
<!-- Node3&#45;&gt;Node5 -->
<g id="edge7" class="edge">
<title>Node3&#45;&gt;Node5</title>
<path fill="none" stroke="#191970" d="M320.427,-112.2977C311.3175,-103.4052 299.7966,-92.1586 290.3909,-82.9769"/>
<polygon fill="#191970" stroke="#191970" points="292.6878,-80.3278 283.0871,-75.8469 287.798,-85.3368 292.6878,-80.3278"/>
</g>
<!-- Node6 -->
<g id="node7" class="node">
<title>Node6</title>
<polygon fill="none" stroke="#bfbfbf" points="314,-56.5 314,-75.5 358,-75.5 358,-56.5 314,-56.5"/>
<text text-anchor="middle" x="336" y="-63.5" font-family="Helvetica,sans-Serif" font-size="10.00" fill="#000000">cmath</text>
</g>
<!-- Node3&#45;&gt;Node6 -->
<g id="edge8" class="edge">
<title>Node3&#45;&gt;Node6</title>
<path fill="none" stroke="#191970" d="M336,-112.2977C336,-104.3834 336,-94.6043 336,-86.0759"/>
<polygon fill="#191970" stroke="#191970" points="339.5001,-85.8469 336,-75.8469 332.5001,-85.847 339.5001,-85.8469"/>
</g>
<!-- Node7 -->
<g id="node8" class="node">
<title>Node7</title>
<g id="a_node8"><a xlink:href="../../d4/dc6/LHCConstants_8h.html" target="_top" xlink:title="Header to collect LHC related constants. ">
<polygon fill="none" stroke="#000000" points="376,-56.5 376,-75.5 554,-75.5 554,-56.5 376,-56.5"/>
<text text-anchor="middle" x="465" y="-63.5" font-family="Helvetica,sans-Serif" font-size="10.00" fill="#000000">CommonConstants/LHCConstants.h</text>
</a>
</g>
</g>
<!-- Node3&#45;&gt;Node7 -->
<g id="edge9" class="edge">
<title>Node3&#45;&gt;Node7</title>
<path fill="none" stroke="#191970" d="M367.557,-112.4554C388.4201,-102.509 415.5691,-89.5659 435.9098,-79.8686"/>
<polygon fill="#191970" stroke="#191970" points="437.4891,-82.9931 445.0096,-75.5303 434.4767,-76.6744 437.4891,-82.9931"/>
</g>
<!-- Node4&#45;&gt;Node2 -->
<g id="edge5" class="edge">
<title>Node4&#45;&gt;Node2</title>
<path fill="none" stroke="#191970" d="M128.7167,-56.2455C116.253,-47.7337 97.9549,-35.2375 83.5208,-25.3801"/>
<polygon fill="#191970" stroke="#191970" points="85.3515,-22.392 75.1196,-19.6427 81.4038,-28.1726 85.3515,-22.392"/>
</g>
<!-- Node8&#45;&gt;Node4 -->
<g id="edge11" class="edge">
<title>Node8&#45;&gt;Node4</title>
<path fill="none" stroke="#191970" d="M143,-117.8906C143,-109.3657 143,-96.6392 143,-85.9235"/>
<polygon fill="#191970" stroke="#191970" points="146.5001,-85.7448 143,-75.7449 139.5001,-85.7449 146.5001,-85.7448"/>
</g>
</g>
</svg>
