<?xml version="1.0" encoding="UTF-8" standalone="no"?>
<!DOCTYPE svg PUBLIC "-//W3C//DTD SVG 1.1//EN"
 "http://www.w3.org/Graphics/SVG/1.1/DTD/svg11.dtd">
<!-- Generated by graphviz version 2.40.1 (20161225.0304)
 -->
<!-- Title: /home/runner/work/AliceO2/AliceO2/Framework/Core/include/Framework/DPLBoostSerializer.h Pages: 1 -->
<svg width="3629pt" height="285pt"
 viewBox="0.00 0.00 3628.50 285.00" xmlns="http://www.w3.org/2000/svg" xmlns:xlink="http://www.w3.org/1999/xlink">
<g id="graph0" class="graph" transform="scale(1 1) rotate(0) translate(4 281)">
<title>/home/runner/work/AliceO2/AliceO2/Framework/Core/include/Framework/DPLBoostSerializer.h</title>
<!-- Node0 -->
<g id="node1" class="node">
<title>Node0</title>
<polygon fill="#bfbfbf" stroke="#000000" points="904.5,-235.5 904.5,-276.5 1103.5,-276.5 1103.5,-235.5 904.5,-235.5"/>
<text text-anchor="start" x="912.5" y="-264.5" font-family="Helvetica,sans-Serif" font-size="10.00" fill="#000000">/home/runner/work/AliceO2</text>
<text text-anchor="start" x="912.5" y="-253.5" font-family="Helvetica,sans-Serif" font-size="10.00" fill="#000000">/AliceO2/Framework/Core</text>
<text text-anchor="middle" x="1004" y="-242.5" font-family="Helvetica,sans-Serif" font-size="10.00" fill="#000000">/include/Framework/DPLBoostSerializer.h</text>
</g>
<!-- Node1 -->
<g id="node2" class="node">
<title>Node1</title>
<g id="a_node2"><a xlink:href="../../d5/dfb/DataRef_8h.html" target="_top" xlink:title="Framework/DataRef.h">
<polygon fill="none" stroke="#000000" points="779.5,-179.5 779.5,-198.5 892.5,-198.5 892.5,-179.5 779.5,-179.5"/>
<text text-anchor="middle" x="836" y="-186.5" font-family="Helvetica,sans-Serif" font-size="10.00" fill="#000000">Framework/DataRef.h</text>
</a>
</g>
</g>
<!-- Node0&#45;&gt;Node1 -->
<g id="edge1" class="edge">
<title>Node0&#45;&gt;Node1</title>
<path fill="none" stroke="#191970" d="M952.2236,-235.3511C925.3973,-224.6525 893.4027,-211.8928 869.7804,-202.472"/>
<polygon fill="#191970" stroke="#191970" points="870.7938,-199.1081 860.2086,-198.6546 868.2007,-205.6101 870.7938,-199.1081"/>
</g>
<!-- Node2 -->
<g id="node3" class="node">
<title>Node2</title>
<g id="a_node3"><a xlink:href="../../d3/ddf/Output_8h.html" target="_top" xlink:title="Framework/Output.h">
<polygon fill="none" stroke="#000000" points="911,-179.5 911,-198.5 1017,-198.5 1017,-179.5 911,-179.5"/>
<text text-anchor="middle" x="964" y="-186.5" font-family="Helvetica,sans-Serif" font-size="10.00" fill="#000000">Framework/Output.h</text>
</a>
</g>
</g>
<!-- Node0&#45;&gt;Node2 -->
<g id="edge2" class="edge">
<title>Node0&#45;&gt;Node2</title>
<path fill="none" stroke="#191970" d="M991.563,-235.168C986.2976,-226.3484 980.2119,-216.155 975.1005,-207.5933"/>
<polygon fill="#191970" stroke="#191970" points="977.9704,-205.5725 969.8391,-198.7805 971.9601,-209.1609 977.9704,-205.5725"/>
</g>
<!-- Node29 -->
<g id="node30" class="node">
<title>Node29</title>
<g id="a_node30"><a xlink:href="../../d7/d91/BoostSerializer_8h.html" target="_top" xlink:title="Templatised boost serializer/deserializer for containers and base types. ">
<polygon fill="none" stroke="#000000" points="2634,-67.5 2634,-86.5 2788,-86.5 2788,-67.5 2634,-67.5"/>
<text text-anchor="middle" x="2711" y="-74.5" font-family="Helvetica,sans-Serif" font-size="10.00" fill="#000000">CommonUtils/BoostSerializer.h</text>
</a>
</g>
</g>
<!-- Node0&#45;&gt;Node29 -->
<g id="edge33" class="edge">
<title>Node0&#45;&gt;Node29</title>
<path fill="none" stroke="#191970" d="M1013.7988,-235.2235C1023.6709,-216.8974 1040.7654,-191.2547 1064,-179 1202.3424,-106.0335 2303.1502,-83.3306 2623.7082,-78.2336"/>
<polygon fill="#191970" stroke="#191970" points="2623.929,-81.7307 2633.8727,-78.0738 2623.8188,-74.7316 2623.929,-81.7307"/>
</g>
<!-- Node44 -->
<g id="node45" class="node">
<title>Node44</title>
<g id="a_node45"><a xlink:href="../../de/d6a/ProcessingContext_8h.html" target="_top" xlink:title="ProcessingContext.h">
<polygon fill="none" stroke="#000000" points="1073,-179.5 1073,-198.5 1181,-198.5 1181,-179.5 1073,-179.5"/>
<text text-anchor="middle" x="1127" y="-186.5" font-family="Helvetica,sans-Serif" font-size="10.00" fill="#000000">ProcessingContext.h</text>
</a>
</g>
</g>
<!-- Node0&#45;&gt;Node44 -->
<g id="edge51" class="edge">
<title>Node0&#45;&gt;Node44</title>
<path fill="none" stroke="#191970" d="M1041.9077,-235.3511C1060.847,-225.0346 1083.3046,-212.8015 1100.3919,-203.4939"/>
<polygon fill="#191970" stroke="#191970" points="1102.1684,-206.5118 1109.2758,-198.6546 1098.8199,-200.3646 1102.1684,-206.5118"/>
</g>
<!-- Node3 -->
<g id="node4" class="node">
<title>Node3</title>
<g id="a_node4"><a xlink:href="../../dc/dcd/DataHeader_8h.html" target="_top" xlink:title="Headers/DataHeader.h">
<polygon fill="none" stroke="#000000" points="349.5,-67.5 349.5,-86.5 466.5,-86.5 466.5,-67.5 349.5,-67.5"/>
<text text-anchor="middle" x="408" y="-74.5" font-family="Helvetica,sans-Serif" font-size="10.00" fill="#000000">Headers/DataHeader.h</text>
</a>
</g>
</g>
<!-- Node2&#45;&gt;Node3 -->
<g id="edge3" class="edge">
<title>Node2&#45;&gt;Node3</title>
<path fill="none" stroke="#191970" d="M954.8048,-179.2957C939.8837,-164.2569 908.7516,-135.731 876,-123 804.976,-95.3921 588.6885,-83.588 476.7512,-79.2193"/>
<polygon fill="#191970" stroke="#191970" points="476.7064,-75.7152 466.5804,-78.8317 476.4398,-82.7101 476.7064,-75.7152"/>
</g>
<!-- Node14 -->
<g id="node15" class="node">
<title>Node14</title>
<g id="a_node15"><a xlink:href="../../dc/dca/Lifetime_8h.html" target="_top" xlink:title="Framework/Lifetime.h">
<polygon fill="none" stroke="#000000" points="755.5,-123.5 755.5,-142.5 866.5,-142.5 866.5,-123.5 755.5,-123.5"/>
<text text-anchor="middle" x="811" y="-130.5" font-family="Helvetica,sans-Serif" font-size="10.00" fill="#000000">Framework/Lifetime.h</text>
</a>
</g>
</g>
<!-- Node2&#45;&gt;Node14 -->
<g id="edge14" class="edge">
<title>Node2&#45;&gt;Node14</title>
<path fill="none" stroke="#191970" d="M937.6984,-179.3733C912.5872,-170.1822 874.5562,-156.2624 846.7128,-146.0713"/>
<polygon fill="#191970" stroke="#191970" points="847.5522,-142.6516 836.9584,-142.5011 845.1462,-149.2251 847.5522,-142.6516"/>
</g>
<!-- Node15 -->
<g id="node16" class="node">
<title>Node15</title>
<g id="a_node16"><a xlink:href="../../d4/d00/Headers_2include_2Headers_2Stack_8h.html" target="_top" xlink:title="Headers/Stack.h">
<polygon fill="none" stroke="#000000" points="923,-123.5 923,-142.5 1013,-142.5 1013,-123.5 923,-123.5"/>
<text text-anchor="middle" x="968" y="-130.5" font-family="Helvetica,sans-Serif" font-size="10.00" fill="#000000">Headers/Stack.h</text>
</a>
</g>
</g>
<!-- Node2&#45;&gt;Node15 -->
<g id="edge15" class="edge">
<title>Node2&#45;&gt;Node15</title>
<path fill="none" stroke="#191970" d="M964.6967,-179.2455C965.2187,-171.9382 965.9504,-161.6944 966.5925,-152.7046"/>
<polygon fill="#191970" stroke="#191970" points="970.0898,-152.8667 967.3112,-142.6427 963.1076,-152.3679 970.0898,-152.8667"/>
</g>
<!-- Node4 -->
<g id="node5" class="node">
<title>Node4</title>
<polygon fill="none" stroke="#bfbfbf" points="0,-6 0,-25 46,-25 46,-6 0,-6"/>
<text text-anchor="middle" x="23" y="-13" font-family="Helvetica,sans-Serif" font-size="10.00" fill="#000000">cstdint</text>
</g>
<!-- Node3&#45;&gt;Node4 -->
<g id="edge4" class="edge">
<title>Node3&#45;&gt;Node4</title>
<path fill="none" stroke="#191970" d="M349.3358,-75.0967C278.3019,-71.4926 155.668,-61.0763 55,-31 53.1369,-30.4434 51.2478,-29.789 49.3673,-29.0695"/>
<polygon fill="#191970" stroke="#191970" points="50.7627,-25.8597 40.1967,-25.0785 47.9694,-32.2783 50.7627,-25.8597"/>
</g>
<!-- Node5 -->
<g id="node6" class="node">
<title>Node5</title>
<polygon fill="none" stroke="#bfbfbf" points="64,-6 64,-25 116,-25 116,-6 64,-6"/>
<text text-anchor="middle" x="90" y="-13" font-family="Helvetica,sans-Serif" font-size="10.00" fill="#000000">memory</text>
</g>
<!-- Node3&#45;&gt;Node5 -->
<g id="edge5" class="edge">
<title>Node3&#45;&gt;Node5</title>
<path fill="none" stroke="#191970" d="M349.3005,-71.879C291.3734,-65.8003 200.7432,-53.5216 125,-31 122.878,-30.369 120.7156,-29.6398 118.5593,-28.8486"/>
<polygon fill="#191970" stroke="#191970" points="119.8709,-25.6037 109.2883,-25.0954 117.2441,-32.0922 119.8709,-25.6037"/>
</g>
<!-- Node6 -->
<g id="node7" class="node">
<title>Node6</title>
<polygon fill="none" stroke="#bfbfbf" points="134.5,-6 134.5,-25 183.5,-25 183.5,-6 134.5,-6"/>
<text text-anchor="middle" x="159" y="-13" font-family="Helvetica,sans-Serif" font-size="10.00" fill="#000000">cassert</text>
</g>
<!-- Node3&#45;&gt;Node6 -->
<g id="edge6" class="edge">
<title>Node3&#45;&gt;Node6</title>
<path fill="none" stroke="#191970" d="M349.1439,-67.9589C305.4124,-60.3911 244.6453,-48.072 193,-31 191.1522,-30.3892 189.2705,-29.7087 187.3883,-28.9832"/>
<polygon fill="#191970" stroke="#191970" points="188.7024,-25.739 178.1272,-25.0954 185.9929,-32.1933 188.7024,-25.739"/>
</g>
<!-- Node7 -->
<g id="node8" class="node">
<title>Node7</title>
<polygon fill="none" stroke="#bfbfbf" points="479,-6 479,-25 525,-25 525,-6 479,-6"/>
<text text-anchor="middle" x="502" y="-13" font-family="Helvetica,sans-Serif" font-size="10.00" fill="#000000">cstring</text>
</g>
<!-- Node3&#45;&gt;Node7 -->
<g id="edge7" class="edge">
<title>Node3&#45;&gt;Node7</title>
<path fill="none" stroke="#191970" d="M422.6875,-67.3906C437.7256,-57.5519 461.3176,-42.1167 478.8667,-30.6351"/>
<polygon fill="#191970" stroke="#191970" points="480.9637,-33.4457 487.4156,-25.0419 477.1313,-27.588 480.9637,-33.4457"/>
</g>
<!-- Node8 -->
<g id="node9" class="node">
<title>Node8</title>
<polygon fill="none" stroke="#bfbfbf" points="202,-6 202,-25 258,-25 258,-6 202,-6"/>
<text text-anchor="middle" x="230" y="-13" font-family="Helvetica,sans-Serif" font-size="10.00" fill="#000000">algorithm</text>
</g>
<!-- Node3&#45;&gt;Node8 -->
<g id="edge8" class="edge">
<title>Node3&#45;&gt;Node8</title>
<path fill="none" stroke="#191970" d="M376.3859,-67.494C347.6419,-58.6603 304.1666,-44.8215 267,-31 265.1886,-30.3264 263.3351,-29.6166 261.4699,-28.8866"/>
<polygon fill="#191970" stroke="#191970" points="262.7711,-25.6375 252.188,-25.1395 260.1507,-32.1285 262.7711,-25.6375"/>
</g>
<!-- Node9 -->
<g id="node10" class="node">
<title>Node9</title>
<polygon fill="none" stroke="#bfbfbf" points="276.5,-6 276.5,-25 335.5,-25 335.5,-6 276.5,-6"/>
<text text-anchor="middle" x="306" y="-13" font-family="Helvetica,sans-Serif" font-size="10.00" fill="#000000">stdexcept</text>
</g>
<!-- Node3&#45;&gt;Node9 -->
<g id="edge9" class="edge">
<title>Node3&#45;&gt;Node9</title>
<path fill="none" stroke="#191970" d="M392.0625,-67.3906C375.5949,-57.4616 349.6742,-41.833 330.5796,-30.3201"/>
<polygon fill="#191970" stroke="#191970" points="332.1966,-27.2081 321.8256,-25.0419 328.5822,-33.2027 332.1966,-27.2081"/>
</g>
<!-- Node10 -->
<g id="node11" class="node">
<title>Node10</title>
<polygon fill="none" stroke="#bfbfbf" points="543.5,-6 543.5,-25 584.5,-25 584.5,-6 543.5,-6"/>
<text text-anchor="middle" x="564" y="-13" font-family="Helvetica,sans-Serif" font-size="10.00" fill="#000000">string</text>
</g>
<!-- Node3&#45;&gt;Node10 -->
<g id="edge10" class="edge">
<title>Node3&#45;&gt;Node10</title>
<path fill="none" stroke="#191970" d="M437.4403,-67.4345C463.2439,-58.7721 501.5862,-45.2219 534,-31 535.02,-30.5525 536.0538,-30.086 537.0939,-29.6058"/>
<polygon fill="#191970" stroke="#191970" points="538.9615,-32.589 546.4135,-25.0578 535.8915,-26.2981 538.9615,-32.589"/>
</g>
<!-- Node11 -->
<g id="node12" class="node">
<title>Node11</title>
<polygon fill="none" stroke="#bfbfbf" points="353.5,-6 353.5,-25 398.5,-25 398.5,-6 353.5,-6"/>
<text text-anchor="middle" x="376" y="-13" font-family="Helvetica,sans-Serif" font-size="10.00" fill="#000000">climits</text>
</g>
<!-- Node3&#45;&gt;Node11 -->
<g id="edge11" class="edge">
<title>Node3&#45;&gt;Node11</title>
<path fill="none" stroke="#191970" d="M403,-67.3906C398.4242,-58.5965 391.5219,-45.3312 385.8417,-34.4145"/>
<polygon fill="#191970" stroke="#191970" points="388.7912,-32.5003 381.0705,-25.2449 382.5815,-35.7314 388.7912,-32.5003"/>
</g>
<!-- Node12 -->
<g id="node13" class="node">
<title>Node12</title>
<g id="a_node13"><a xlink:href="../../d7/df8/Types_8h.html" target="_top" xlink:title="MemoryResources/Types.h">
<polygon fill="none" stroke="#000000" points="602.5,-6 602.5,-25 739.5,-25 739.5,-6 602.5,-6"/>
<text text-anchor="middle" x="671" y="-13" font-family="Helvetica,sans-Serif" font-size="10.00" fill="#000000">MemoryResources/Types.h</text>
</a>
</g>
</g>
<!-- Node3&#45;&gt;Node12 -->
<g id="edge12" class="edge">
<title>Node3&#45;&gt;Node12</title>
<path fill="none" stroke="#191970" d="M448.8052,-67.4581C494.9689,-56.6632 570.2072,-39.0694 620.154,-27.3899"/>
<polygon fill="#191970" stroke="#191970" points="621.1587,-30.7494 630.0991,-25.0643 619.5648,-23.9333 621.1587,-30.7494"/>
</g>
<!-- Node13 -->
<g id="node14" class="node">
<title>Node13</title>
<polygon fill="none" stroke="#bfbfbf" points="417,-6 417,-25 461,-25 461,-6 417,-6"/>
<text text-anchor="middle" x="439" y="-13" font-family="Helvetica,sans-Serif" font-size="10.00" fill="#000000">cerrno</text>
</g>
<!-- Node3&#45;&gt;Node13 -->
<g id="edge13" class="edge">
<title>Node3&#45;&gt;Node13</title>
<path fill="none" stroke="#191970" d="M412.8438,-67.3906C417.2766,-58.5965 423.9631,-45.3312 429.4659,-34.4145"/>
<polygon fill="#191970" stroke="#191970" points="432.7122,-35.75 434.088,-25.2449 426.4614,-32.5992 432.7122,-35.75"/>
</g>
<!-- Node15&#45;&gt;Node3 -->
<g id="edge32" class="edge">
<title>Node15&#45;&gt;Node3</title>
<path fill="none" stroke="#191970" d="M922.9553,-125.0013C918.2504,-124.2748 913.5328,-123.5914 909,-123 755.2383,-102.9402 573.7992,-88.5804 477.0168,-81.6621"/>
<polygon fill="#191970" stroke="#191970" points="477.0026,-78.1523 466.7799,-80.9355 476.507,-85.1348 477.0026,-78.1523"/>
</g>
<!-- Node16 -->
<g id="node17" class="node">
<title>Node16</title>
<g id="a_node17"><a xlink:href="../../dc/d03/MemoryResources_8h.html" target="_top" xlink:title="MemoryResources/MemoryResources.h">
<polygon fill="none" stroke="#000000" points="1246.5,-67.5 1246.5,-86.5 1439.5,-86.5 1439.5,-67.5 1246.5,-67.5"/>
<text text-anchor="middle" x="1343" y="-74.5" font-family="Helvetica,sans-Serif" font-size="10.00" fill="#000000">MemoryResources/MemoryResources.h</text>
</a>
</g>
</g>
<!-- Node15&#45;&gt;Node16 -->
<g id="edge16" class="edge">
<title>Node15&#45;&gt;Node16</title>
<path fill="none" stroke="#191970" d="M1013.0726,-125.7838C1019.0983,-124.8372 1025.1981,-123.8881 1031,-123 1111.3621,-110.6983 1203.464,-97.1917 1266.652,-88.0165"/>
<polygon fill="#191970" stroke="#191970" points="1267.5354,-91.4251 1276.9292,-86.5254 1266.5302,-84.4976 1267.5354,-91.4251"/>
</g>
<!-- Node16&#45;&gt;Node7 -->
<g id="edge21" class="edge">
<title>Node16&#45;&gt;Node7</title>
<path fill="none" stroke="#191970" d="M1246.1574,-76.236C1061.5481,-73.9987 665.9117,-65.236 534,-31 532.0282,-30.4883 530.0331,-29.8509 528.0533,-29.1288"/>
<polygon fill="#191970" stroke="#191970" points="529.0317,-25.7395 518.4626,-25.0014 526.2646,-32.1694 529.0317,-25.7395"/>
</g>
<!-- Node16&#45;&gt;Node10 -->
<g id="edge22" class="edge">
<title>Node16&#45;&gt;Node10</title>
<path fill="none" stroke="#191970" d="M1246.3657,-76.1858C1072.3001,-73.8729 713.0226,-65.0009 593,-31 591.5239,-30.5818 590.0381,-30.0806 588.5609,-29.5185"/>
<polygon fill="#191970" stroke="#191970" points="589.677,-26.1785 579.1315,-25.1573 586.7385,-32.5319 589.677,-26.1785"/>
</g>
<!-- Node16&#45;&gt;Node12 -->
<g id="edge31" class="edge">
<title>Node16&#45;&gt;Node12</title>
<path fill="none" stroke="#191970" d="M1246.4295,-73.053C1128.5821,-67.424 923.4526,-55.0017 749,-31 740.9291,-29.8896 732.4348,-28.4676 724.141,-26.9366"/>
<polygon fill="#191970" stroke="#191970" points="724.6453,-23.4697 714.1658,-25.0287 723.3303,-30.345 724.6453,-23.4697"/>
</g>
<!-- Node17 -->
<g id="node18" class="node">
<title>Node17</title>
<polygon fill="none" stroke="#bfbfbf" points="932,-.5 932,-30.5 1032,-30.5 1032,-.5 932,-.5"/>
<text text-anchor="start" x="940" y="-18.5" font-family="Helvetica,sans-Serif" font-size="10.00" fill="#000000">boost/container/flat</text>
<text text-anchor="middle" x="982" y="-7.5" font-family="Helvetica,sans-Serif" font-size="10.00" fill="#000000">_map.hpp</text>
</g>
<!-- Node16&#45;&gt;Node17 -->
<g id="edge17" class="edge">
<title>Node16&#45;&gt;Node17</title>
<path fill="none" stroke="#191970" d="M1265.326,-67.4682C1206.4821,-59.716 1123.4833,-47.6503 1042.0484,-31.0956"/>
<polygon fill="#191970" stroke="#191970" points="1042.627,-27.6414 1032.1268,-29.0545 1041.2164,-34.4978 1042.627,-27.6414"/>
</g>
<!-- Node18 -->
<g id="node19" class="node">
<title>Node18</title>
<polygon fill="none" stroke="#bfbfbf" points="1050,-.5 1050,-30.5 1166,-30.5 1166,-.5 1050,-.5"/>
<text text-anchor="start" x="1058" y="-18.5" font-family="Helvetica,sans-Serif" font-size="10.00" fill="#000000">boost/container/pmr</text>
<text text-anchor="middle" x="1108" y="-7.5" font-family="Helvetica,sans-Serif" font-size="10.00" fill="#000000">/memory_resource.hpp</text>
</g>
<!-- Node16&#45;&gt;Node18 -->
<g id="edge18" class="edge">
<title>Node16&#45;&gt;Node18</title>
<path fill="none" stroke="#191970" d="M1306.5391,-67.4581C1271.6148,-58.3183 1218.0672,-44.3048 1175.3804,-33.1336"/>
<polygon fill="#191970" stroke="#191970" points="1176.1771,-29.7243 1165.6167,-30.5784 1174.4048,-36.4962 1176.1771,-29.7243"/>
</g>
<!-- Node19 -->
<g id="node20" class="node">
<title>Node19</title>
<polygon fill="none" stroke="#bfbfbf" points="1184,-.5 1184,-30.5 1340,-30.5 1340,-.5 1184,-.5"/>
<text text-anchor="start" x="1192" y="-18.5" font-family="Helvetica,sans-Serif" font-size="10.00" fill="#000000">boost/container/pmr</text>
<text text-anchor="middle" x="1262" y="-7.5" font-family="Helvetica,sans-Serif" font-size="10.00" fill="#000000">/monotonic_buffer_resource.hpp</text>
</g>
<!-- Node16&#45;&gt;Node19 -->
<g id="edge19" class="edge">
<title>Node16&#45;&gt;Node19</title>
<path fill="none" stroke="#191970" d="M1330.3438,-67.3906C1319.5844,-59.2215 1303.7435,-47.1941 1290.0209,-36.7752"/>
<polygon fill="#191970" stroke="#191970" points="1291.8958,-33.8042 1281.8148,-30.5446 1287.6628,-39.3793 1291.8958,-33.8042"/>
</g>
<!-- Node20 -->
<g id="node21" class="node">
<title>Node20</title>
<polygon fill="none" stroke="#bfbfbf" points="1358.5,-.5 1358.5,-30.5 1491.5,-30.5 1491.5,-.5 1358.5,-.5"/>
<text text-anchor="start" x="1366.5" y="-18.5" font-family="Helvetica,sans-Serif" font-size="10.00" fill="#000000">boost/container/pmr</text>
<text text-anchor="middle" x="1425" y="-7.5" font-family="Helvetica,sans-Serif" font-size="10.00" fill="#000000">/polymorphic_allocator.hpp</text>
</g>
<!-- Node16&#45;&gt;Node20 -->
<g id="edge20" class="edge">
<title>Node16&#45;&gt;Node20</title>
<path fill="none" stroke="#191970" d="M1355.8125,-67.3906C1366.7047,-59.2215 1382.7412,-47.1941 1396.6331,-36.7752"/>
<polygon fill="#191970" stroke="#191970" points="1399.0405,-39.3446 1404.9405,-30.5446 1394.8405,-33.7446 1399.0405,-39.3446"/>
</g>
<!-- Node21 -->
<g id="node22" class="node">
<title>Node21</title>
<polygon fill="none" stroke="#bfbfbf" points="2030,-6 2030,-25 2092,-25 2092,-6 2030,-6"/>
<text text-anchor="middle" x="2061" y="-13" font-family="Helvetica,sans-Serif" font-size="10.00" fill="#000000">type_traits</text>
</g>
<!-- Node16&#45;&gt;Node21 -->
<g id="edge23" class="edge">
<title>Node16&#45;&gt;Node21</title>
<path fill="none" stroke="#191970" d="M1439.781,-74.0257C1599.9294,-68.5012 1913.1016,-54.9825 2021,-31 2024.0285,-30.3269 2027.1305,-29.4624 2030.2019,-28.4867"/>
<polygon fill="#191970" stroke="#191970" points="2031.5263,-31.7306 2039.781,-25.0891 2029.1862,-25.1333 2031.5263,-31.7306"/>
</g>
<!-- Node22 -->
<g id="node23" class="node">
<title>Node22</title>
<polygon fill="none" stroke="#bfbfbf" points="2110,-6 2110,-25 2150,-25 2150,-6 2110,-6"/>
<text text-anchor="middle" x="2130" y="-13" font-family="Helvetica,sans-Serif" font-size="10.00" fill="#000000">utility</text>
</g>
<!-- Node16&#45;&gt;Node22 -->
<g id="edge24" class="edge">
<title>Node16&#45;&gt;Node22</title>
<path fill="none" stroke="#191970" d="M1439.6312,-76.2605C1615.1593,-74.07 1979.453,-65.3904 2101,-31 2102.4763,-30.5823 2103.9622,-30.0815 2105.4395,-29.5196"/>
<polygon fill="#191970" stroke="#191970" points="2107.2614,-32.5332 2114.8691,-25.1593 2104.3235,-26.1796 2107.2614,-32.5332"/>
</g>
<!-- Node23 -->
<g id="node24" class="node">
<title>Node23</title>
<polygon fill="none" stroke="#bfbfbf" points="2168,-6 2168,-25 2212,-25 2212,-6 2168,-6"/>
<text text-anchor="middle" x="2190" y="-13" font-family="Helvetica,sans-Serif" font-size="10.00" fill="#000000">vector</text>
</g>
<!-- Node16&#45;&gt;Node23 -->
<g id="edge25" class="edge">
<title>Node16&#45;&gt;Node23</title>
<path fill="none" stroke="#191970" d="M1439.6062,-73.7532C1640.6772,-66.6764 2091.1668,-49.0437 2159,-31 2160.9189,-30.4896 2162.8583,-29.8532 2164.7809,-29.1317"/>
<polygon fill="#191970" stroke="#191970" points="2166.3603,-32.2601 2174.0823,-25.0059 2163.522,-25.8613 2166.3603,-32.2601"/>
</g>
<!-- Node24 -->
<g id="node25" class="node">
<title>Node24</title>
<polygon fill="none" stroke="#bfbfbf" points="1509.5,-6 1509.5,-25 1592.5,-25 1592.5,-6 1509.5,-6"/>
<text text-anchor="middle" x="1551" y="-13" font-family="Helvetica,sans-Serif" font-size="10.00" fill="#000000">unordered_map</text>
</g>
<!-- Node16&#45;&gt;Node24 -->
<g id="edge26" class="edge">
<title>Node16&#45;&gt;Node24</title>
<path fill="none" stroke="#191970" d="M1376.3394,-67.4749C1408.3503,-58.2865 1458.0441,-43.9102 1501,-31 1504.1768,-30.0452 1507.4641,-29.0476 1510.7659,-28.0388"/>
<polygon fill="#191970" stroke="#191970" points="1512.0881,-31.2941 1520.6184,-25.0104 1510.0314,-24.603 1512.0881,-31.2941"/>
</g>
<!-- Node25 -->
<g id="node26" class="node">
<title>Node25</title>
<polygon fill="none" stroke="#bfbfbf" points="1610.5,-6 1610.5,-25 1707.5,-25 1707.5,-6 1610.5,-6"/>
<text text-anchor="middle" x="1659" y="-13" font-family="Helvetica,sans-Serif" font-size="10.00" fill="#000000">FairMQMessage.h</text>
</g>
<!-- Node16&#45;&gt;Node25 -->
<g id="edge27" class="edge">
<title>Node16&#45;&gt;Node25</title>
<path fill="none" stroke="#191970" d="M1405.5894,-67.4986C1458.2414,-59.1203 1535.3801,-45.9424 1602,-31 1606.6343,-29.9606 1611.4573,-28.7899 1616.2491,-27.5696"/>
<polygon fill="#191970" stroke="#191970" points="1617.185,-30.9426 1625.9705,-25.021 1615.4098,-24.1714 1617.185,-30.9426"/>
</g>
<!-- Node26 -->
<g id="node27" class="node">
<title>Node26</title>
<polygon fill="none" stroke="#bfbfbf" points="1725.5,-6 1725.5,-25 1856.5,-25 1856.5,-6 1725.5,-6"/>
<text text-anchor="middle" x="1791" y="-13" font-family="Helvetica,sans-Serif" font-size="10.00" fill="#000000">FairMQTransportFactory.h</text>
</g>
<!-- Node16&#45;&gt;Node26 -->
<g id="edge28" class="edge">
<title>Node16&#45;&gt;Node26</title>
<path fill="none" stroke="#191970" d="M1438.6242,-67.4793C1514.3798,-59.3975 1622.7753,-46.6343 1717,-31 1723.8731,-29.8596 1731.0772,-28.5257 1738.1797,-27.1277"/>
<polygon fill="#191970" stroke="#191970" points="1739.3545,-30.4611 1748.4624,-25.0486 1737.9671,-23.5999 1739.3545,-30.4611"/>
</g>
<!-- Node27 -->
<g id="node28" class="node">
<title>Node27</title>
<polygon fill="none" stroke="#bfbfbf" points="1874.5,-6 1874.5,-25 2011.5,-25 2011.5,-6 1874.5,-6"/>
<text text-anchor="middle" x="1943" y="-13" font-family="Helvetica,sans-Serif" font-size="10.00" fill="#000000">fairmq/MemoryResources.h</text>
</g>
<!-- Node16&#45;&gt;Node27 -->
<g id="edge29" class="edge">
<title>Node16&#45;&gt;Node27</title>
<path fill="none" stroke="#191970" d="M1439.7633,-71.712C1545.0181,-65.2101 1718.0452,-52.3311 1866,-31 1873.7817,-29.8781 1881.9639,-28.4753 1889.9716,-26.9751"/>
<polygon fill="#191970" stroke="#191970" points="1890.8262,-30.3747 1899.978,-25.0365 1889.4948,-23.5025 1890.8262,-30.3747"/>
</g>
<!-- Node28 -->
<g id="node29" class="node">
<title>Node28</title>
<polygon fill="none" stroke="#bfbfbf" points="758,-6 758,-25 914,-25 914,-6 758,-6"/>
<text text-anchor="middle" x="836" y="-13" font-family="Helvetica,sans-Serif" font-size="10.00" fill="#000000">fairmq/MemoryResourceTools.h</text>
</g>
<!-- Node16&#45;&gt;Node28 -->
<g id="edge30" class="edge">
<title>Node16&#45;&gt;Node28</title>
<path fill="none" stroke="#191970" d="M1246.4333,-68.2839C1161.1552,-60.1438 1033.5443,-46.8826 923,-31 914.2834,-29.7476 905.102,-28.2777 896.1023,-26.7506"/>
<polygon fill="#191970" stroke="#191970" points="896.5036,-23.2681 886.0531,-25.0108 895.3095,-30.1655 896.5036,-23.2681"/>
</g>
<!-- Node29&#45;&gt;Node21 -->
<g id="edge35" class="edge">
<title>Node29&#45;&gt;Node21</title>
<path fill="none" stroke="#191970" d="M2633.7834,-74.0074C2493.0825,-68.0849 2200.3131,-53.4667 2101,-31 2097.9741,-30.3155 2094.8738,-29.4433 2091.8035,-28.4627"/>
<polygon fill="#191970" stroke="#191970" points="2092.8207,-25.1098 2082.226,-25.058 2090.4759,-31.7054 2092.8207,-25.1098"/>
</g>
<!-- Node29&#45;&gt;Node22 -->
<g id="edge34" class="edge">
<title>Node29&#45;&gt;Node22</title>
<path fill="none" stroke="#191970" d="M2633.9794,-74.4336C2503.7819,-69.4531 2245.8712,-56.6396 2159,-31 2157.5285,-30.5657 2156.0464,-30.0518 2154.5721,-29.4797"/>
<polygon fill="#191970" stroke="#191970" points="2155.6937,-26.141 2145.1513,-25.089 2152.7366,-32.4858 2155.6937,-26.141"/>
</g>
<!-- Node29&#45;&gt;Node23 -->
<g id="edge37" class="edge">
<title>Node29&#45;&gt;Node23</title>
<path fill="none" stroke="#191970" d="M2633.6853,-73.0867C2515.9261,-66.5582 2297.3504,-52.0512 2222,-31 2220.0826,-30.4643 2218.1405,-29.8176 2216.2103,-29.0964"/>
<polygon fill="#191970" stroke="#191970" points="2217.3959,-25.7959 2206.8282,-25.0378 2214.6167,-32.2205 2217.3959,-25.7959"/>
</g>
<!-- Node30 -->
<g id="node31" class="node">
<title>Node30</title>
<polygon fill="none" stroke="#bfbfbf" points="3535,-6 3535,-25 3573,-25 3573,-6 3535,-6"/>
<text text-anchor="middle" x="3554" y="-13" font-family="Helvetica,sans-Serif" font-size="10.00" fill="#000000">array</text>
</g>
<!-- Node29&#45;&gt;Node30 -->
<g id="edge36" class="edge">
<title>Node29&#45;&gt;Node30</title>
<path fill="none" stroke="#191970" d="M2788.2273,-74.6034C2977.919,-68.4374 3456.3879,-51.0913 3526,-31 3527.468,-30.5763 3528.9438,-30.0648 3530.4086,-29.4892"/>
<polygon fill="#191970" stroke="#191970" points="3532.2242,-32.4998 3539.7206,-25.0128 3529.1914,-26.1909 3532.2242,-32.4998"/>
</g>
<!-- Node31 -->
<g id="node32" class="node">
<title>Node31</title>
<polygon fill="none" stroke="#bfbfbf" points="3591.5,-6 3591.5,-25 3620.5,-25 3620.5,-6 3591.5,-6"/>
<text text-anchor="middle" x="3606" y="-13" font-family="Helvetica,sans-Serif" font-size="10.00" fill="#000000">list</text>
</g>
<!-- Node29&#45;&gt;Node31 -->
<g id="edge38" class="edge">
<title>Node29&#45;&gt;Node31</title>
<path fill="none" stroke="#191970" d="M2788.1203,-75.1973C2987.1365,-70.224 3507.6719,-55.0638 3582,-31 3583.0382,-30.6639 3584.0751,-30.2711 3585.1035,-29.8338"/>
<polygon fill="#191970" stroke="#191970" points="3586.8172,-32.8859 3593.9233,-25.0276 3583.4677,-26.7393 3586.8172,-32.8859"/>
</g>
<!-- Node32 -->
<g id="node33" class="node">
<title>Node32</title>
<polygon fill="none" stroke="#bfbfbf" points="2230.5,-6 2230.5,-25 2265.5,-25 2265.5,-6 2230.5,-6"/>
<text text-anchor="middle" x="2248" y="-13" font-family="Helvetica,sans-Serif" font-size="10.00" fill="#000000">map</text>
</g>
<!-- Node29&#45;&gt;Node32 -->
<g id="edge39" class="edge">
<title>Node29&#45;&gt;Node32</title>
<path fill="none" stroke="#191970" d="M2633.9845,-72.7139C2527.1507,-66.113 2339.8101,-51.9841 2275,-31 2273.7562,-30.5973 2272.5065,-30.1323 2271.2629,-29.6204"/>
<polygon fill="#191970" stroke="#191970" points="2272.5671,-26.3599 2262.0557,-25.0333 2269.4456,-32.6254 2272.5671,-26.3599"/>
</g>
<!-- Node33 -->
<g id="node34" class="node">
<title>Node33</title>
<polygon fill="none" stroke="#bfbfbf" points="2284,-6 2284,-25 2314,-25 2314,-6 2284,-6"/>
<text text-anchor="middle" x="2299" y="-13" font-family="Helvetica,sans-Serif" font-size="10.00" fill="#000000">set</text>
</g>
<!-- Node29&#45;&gt;Node33 -->
<g id="edge40" class="edge">
<title>Node29&#45;&gt;Node33</title>
<path fill="none" stroke="#191970" d="M2633.7502,-71.9903C2537.3581,-65.0221 2378.443,-50.97 2323,-31 2322.1425,-30.6911 2321.2845,-30.3468 2320.4304,-29.9736"/>
<polygon fill="#191970" stroke="#191970" points="2322.0902,-26.8922 2311.6352,-25.1766 2318.7385,-33.0376 2322.0902,-26.8922"/>
</g>
<!-- Node34 -->
<g id="node35" class="node">
<title>Node34</title>
<polygon fill="none" stroke="#bfbfbf" points="2332,-.5 2332,-30.5 2436,-30.5 2436,-.5 2332,-.5"/>
<text text-anchor="start" x="2340" y="-18.5" font-family="Helvetica,sans-Serif" font-size="10.00" fill="#000000">boost/archive/binary</text>
<text text-anchor="middle" x="2384" y="-7.5" font-family="Helvetica,sans-Serif" font-size="10.00" fill="#000000">_iarchive.hpp</text>
</g>
<!-- Node29&#45;&gt;Node34 -->
<g id="edge41" class="edge">
<title>Node29&#45;&gt;Node34</title>
<path fill="none" stroke="#191970" d="M2647.8543,-67.4946C2596.114,-59.3833 2520.7942,-46.841 2446.219,-31.1718"/>
<polygon fill="#191970" stroke="#191970" points="2446.6896,-27.6938 2436.1809,-29.0425 2445.237,-34.5415 2446.6896,-27.6938"/>
</g>
<!-- Node35 -->
<g id="node36" class="node">
<title>Node35</title>
<polygon fill="none" stroke="#bfbfbf" points="2454,-.5 2454,-30.5 2558,-30.5 2558,-.5 2454,-.5"/>
<text text-anchor="start" x="2462" y="-18.5" font-family="Helvetica,sans-Serif" font-size="10.00" fill="#000000">boost/archive/binary</text>
<text text-anchor="middle" x="2506" y="-7.5" font-family="Helvetica,sans-Serif" font-size="10.00" fill="#000000">_oarchive.hpp</text>
</g>
<!-- Node29&#45;&gt;Node35 -->
<g id="edge42" class="edge">
<title>Node29&#45;&gt;Node35</title>
<path fill="none" stroke="#191970" d="M2678.9688,-67.3906C2648.784,-58.3352 2602.7967,-44.539 2565.8262,-33.4479"/>
<polygon fill="#191970" stroke="#191970" points="2566.7327,-30.0657 2556.1486,-30.5446 2564.7212,-36.7705 2566.7327,-30.0657"/>
</g>
<!-- Node36 -->
<g id="node37" class="node">
<title>Node36</title>
<polygon fill="none" stroke="#bfbfbf" points="2576,-.5 2576,-30.5 2712,-30.5 2712,-.5 2576,-.5"/>
<text text-anchor="start" x="2584" y="-18.5" font-family="Helvetica,sans-Serif" font-size="10.00" fill="#000000">boost/serialization</text>
<text text-anchor="middle" x="2644" y="-7.5" font-family="Helvetica,sans-Serif" font-size="10.00" fill="#000000">/is_bitwise_serializable.hpp</text>
</g>
<!-- Node29&#45;&gt;Node36 -->
<g id="edge43" class="edge">
<title>Node29&#45;&gt;Node36</title>
<path fill="none" stroke="#191970" d="M2700.5313,-67.3906C2691.7995,-59.3756 2679.0215,-47.6466 2667.8221,-37.3666"/>
<polygon fill="#191970" stroke="#191970" points="2670.1238,-34.7284 2660.39,-30.5446 2665.3903,-39.8853 2670.1238,-34.7284"/>
</g>
<!-- Node37 -->
<g id="node38" class="node">
<title>Node37</title>
<polygon fill="none" stroke="#bfbfbf" points="2730.5,-.5 2730.5,-30.5 2825.5,-30.5 2825.5,-.5 2730.5,-.5"/>
<text text-anchor="start" x="2738.5" y="-18.5" font-family="Helvetica,sans-Serif" font-size="10.00" fill="#000000">boost/serialization</text>
<text text-anchor="middle" x="2778" y="-7.5" font-family="Helvetica,sans-Serif" font-size="10.00" fill="#000000">/serialization.hpp</text>
</g>
<!-- Node29&#45;&gt;Node37 -->
<g id="edge44" class="edge">
<title>Node29&#45;&gt;Node37</title>
<path fill="none" stroke="#191970" d="M2721.4688,-67.3906C2730.2005,-59.3756 2742.9785,-47.6466 2754.1779,-37.3666"/>
<polygon fill="#191970" stroke="#191970" points="2756.6097,-39.8853 2761.61,-30.5446 2751.8762,-34.7284 2756.6097,-39.8853"/>
</g>
<!-- Node38 -->
<g id="node39" class="node">
<title>Node38</title>
<polygon fill="none" stroke="#bfbfbf" points="2843.5,-.5 2843.5,-30.5 2938.5,-30.5 2938.5,-.5 2843.5,-.5"/>
<text text-anchor="start" x="2851.5" y="-18.5" font-family="Helvetica,sans-Serif" font-size="10.00" fill="#000000">boost/serialization</text>
<text text-anchor="middle" x="2891" y="-7.5" font-family="Helvetica,sans-Serif" font-size="10.00" fill="#000000">/array.hpp</text>
</g>
<!-- Node29&#45;&gt;Node38 -->
<g id="edge45" class="edge">
<title>Node29&#45;&gt;Node38</title>
<path fill="none" stroke="#191970" d="M2739.125,-67.3906C2765.2903,-58.4508 2804.9791,-44.8905 2837.2227,-33.8739"/>
<polygon fill="#191970" stroke="#191970" points="2838.6358,-37.0898 2846.967,-30.5446 2836.3725,-30.4658 2838.6358,-37.0898"/>
</g>
<!-- Node39 -->
<g id="node40" class="node">
<title>Node39</title>
<polygon fill="none" stroke="#bfbfbf" points="2956.5,-.5 2956.5,-30.5 3051.5,-30.5 3051.5,-.5 2956.5,-.5"/>
<text text-anchor="start" x="2964.5" y="-18.5" font-family="Helvetica,sans-Serif" font-size="10.00" fill="#000000">boost/serialization</text>
<text text-anchor="middle" x="3004" y="-7.5" font-family="Helvetica,sans-Serif" font-size="10.00" fill="#000000">/vector.hpp</text>
</g>
<!-- Node29&#45;&gt;Node39 -->
<g id="edge46" class="edge">
<title>Node29&#45;&gt;Node39</title>
<path fill="none" stroke="#191970" d="M2766.8104,-67.4414C2812.7451,-59.2851 2879.7481,-46.7279 2946.5537,-31.2508"/>
<polygon fill="#191970" stroke="#191970" points="2947.4663,-34.6319 2956.4064,-28.9463 2945.872,-27.8158 2947.4663,-34.6319"/>
</g>
<!-- Node40 -->
<g id="node41" class="node">
<title>Node40</title>
<polygon fill="none" stroke="#bfbfbf" points="3069.5,-.5 3069.5,-30.5 3164.5,-30.5 3164.5,-.5 3069.5,-.5"/>
<text text-anchor="start" x="3077.5" y="-18.5" font-family="Helvetica,sans-Serif" font-size="10.00" fill="#000000">boost/serialization</text>
<text text-anchor="middle" x="3117" y="-7.5" font-family="Helvetica,sans-Serif" font-size="10.00" fill="#000000">/list.hpp</text>
</g>
<!-- Node29&#45;&gt;Node40 -->
<g id="edge47" class="edge">
<title>Node29&#45;&gt;Node40</title>
<path fill="none" stroke="#191970" d="M2788.3237,-69.9625C2857.2898,-62.9719 2961.1038,-50.698 3059.6269,-31.1262"/>
<polygon fill="#191970" stroke="#191970" points="3060.3387,-34.5532 3069.4502,-29.1466 3058.9559,-27.6911 3060.3387,-34.5532"/>
</g>
<!-- Node41 -->
<g id="node42" class="node">
<title>Node41</title>
<polygon fill="none" stroke="#bfbfbf" points="3182.5,-.5 3182.5,-30.5 3277.5,-30.5 3277.5,-.5 3182.5,-.5"/>
<text text-anchor="start" x="3190.5" y="-18.5" font-family="Helvetica,sans-Serif" font-size="10.00" fill="#000000">boost/serialization</text>
<text text-anchor="middle" x="3230" y="-7.5" font-family="Helvetica,sans-Serif" font-size="10.00" fill="#000000">/map.hpp</text>
</g>
<!-- Node29&#45;&gt;Node41 -->
<g id="edge48" class="edge">
<title>Node29&#45;&gt;Node41</title>
<path fill="none" stroke="#191970" d="M2788.1691,-73.3748C2878.3751,-68.2307 3032.1852,-56.6447 3172.3997,-31.1135"/>
<polygon fill="#191970" stroke="#191970" points="3173.2738,-34.5113 3182.4706,-29.251 3172.0008,-27.628 3173.2738,-34.5113"/>
</g>
<!-- Node42 -->
<g id="node43" class="node">
<title>Node42</title>
<polygon fill="none" stroke="#bfbfbf" points="3295.5,-.5 3295.5,-30.5 3390.5,-30.5 3390.5,-.5 3295.5,-.5"/>
<text text-anchor="start" x="3303.5" y="-18.5" font-family="Helvetica,sans-Serif" font-size="10.00" fill="#000000">boost/serialization</text>
<text text-anchor="middle" x="3343" y="-7.5" font-family="Helvetica,sans-Serif" font-size="10.00" fill="#000000">/set.hpp</text>
</g>
<!-- Node29&#45;&gt;Node42 -->
<g id="edge49" class="edge">
<title>Node29&#45;&gt;Node42</title>
<path fill="none" stroke="#191970" d="M2788.4557,-75.4839C2897.596,-72.3126 3102.8306,-62.5572 3285.4272,-31.0748"/>
<polygon fill="#191970" stroke="#191970" points="3286.2354,-34.4867 3295.4822,-29.315 3285.0285,-27.5915 3286.2354,-34.4867"/>
</g>
<!-- Node43 -->
<g id="node44" class="node">
<title>Node43</title>
<polygon fill="none" stroke="#bfbfbf" points="3409,-6 3409,-25 3517,-25 3517,-6 3409,-6"/>
<text text-anchor="middle" x="3463" y="-13" font-family="Helvetica,sans-Serif" font-size="10.00" fill="#000000">boost/type_traits.hpp</text>
</g>
<!-- Node29&#45;&gt;Node43 -->
<g id="edge50" class="edge">
<title>Node29&#45;&gt;Node43</title>
<path fill="none" stroke="#191970" d="M2788.2606,-73.5454C2942.5729,-66.365 3284.051,-48.993 3400,-31 3406.2087,-30.0365 3412.7029,-28.757 3419.0633,-27.3449"/>
<polygon fill="#191970" stroke="#191970" points="3419.9499,-30.7321 3428.8879,-25.0432 3418.3531,-23.9166 3419.9499,-30.7321"/>
</g>
</g>
</svg>
