<?xml version="1.0" encoding="UTF-8" standalone="no"?>
<!DOCTYPE svg PUBLIC "-//W3C//DTD SVG 1.1//EN"
 "http://www.w3.org/Graphics/SVG/1.1/DTD/svg11.dtd">
<!-- Generated by graphviz version 2.40.1 (20161225.0304)
 -->
<!-- Title: /home/runner/work/AliceO2/AliceO2/GPU/TPCFastTransformation/TPCFastSpaceChargeCorrection.cxx Pages: 1 -->
<svg width="988pt" height="498pt"
 viewBox="0.00 0.00 988.00 498.00" xmlns="http://www.w3.org/2000/svg" xmlns:xlink="http://www.w3.org/1999/xlink">
<g id="graph0" class="graph" transform="scale(1 1) rotate(0) translate(4 494)">
<title>/home/runner/work/AliceO2/AliceO2/GPU/TPCFastTransformation/TPCFastSpaceChargeCorrection.cxx</title>
<!-- Node0 -->
<g id="node1" class="node">
<title>Node0</title>
<polygon fill="#bfbfbf" stroke="#000000" points="409.5,-448.5 409.5,-489.5 596.5,-489.5 596.5,-448.5 409.5,-448.5"/>
<text text-anchor="start" x="417.5" y="-477.5" font-family="Helvetica,sans-Serif" font-size="10.00" fill="#000000">/home/runner/work/AliceO2</text>
<text text-anchor="start" x="417.5" y="-466.5" font-family="Helvetica,sans-Serif" font-size="10.00" fill="#000000">/AliceO2/GPU/TPCFastTransformation</text>
<text text-anchor="middle" x="503" y="-455.5" font-family="Helvetica,sans-Serif" font-size="10.00" fill="#000000">/TPCFastSpaceChargeCorrection.cxx</text>
</g>
<!-- Node1 -->
<g id="node2" class="node">
<title>Node1</title>
<g id="a_node2"><a xlink:href="../../d8/d93/TPCFastSpaceChargeCorrection_8h.html" target="_top" xlink:title="Definition of TPCFastSpaceChargeCorrection class. ">
<polygon fill="none" stroke="#000000" points="132.5,-392.5 132.5,-411.5 301.5,-411.5 301.5,-392.5 132.5,-392.5"/>
<text text-anchor="middle" x="217" y="-399.5" font-family="Helvetica,sans-Serif" font-size="10.00" fill="#000000">TPCFastSpaceChargeCorrection.h</text>
</a>
</g>
</g>
<!-- Node0&#45;&gt;Node1 -->
<g id="edge1" class="edge">
<title>Node0&#45;&gt;Node1</title>
<path fill="none" stroke="#191970" d="M415.2469,-448.4425C366.8076,-437.0948 308.3742,-423.4058 267.5439,-413.8407"/>
<polygon fill="#191970" stroke="#191970" points="268.0942,-410.3749 257.5594,-411.5017 266.4975,-417.1904 268.0942,-410.3749"/>
</g>
<!-- Node16 -->
<g id="node17" class="node">
<title>Node16</title>
<polygon fill="none" stroke="#bfbfbf" points="84,-.5 84,-19.5 138,-19.5 138,-.5 84,-.5"/>
<text text-anchor="middle" x="111" y="-7.5" font-family="Helvetica,sans-Serif" font-size="10.00" fill="#000000">iostream</text>
</g>
<!-- Node0&#45;&gt;Node16 -->
<g id="edge33" class="edge">
<title>Node0&#45;&gt;Node16</title>
<path fill="none" stroke="#191970" d="M409.2742,-465.1065C263.7487,-456.4707 0,-429.3255 0,-346 0,-346 0,-346 0,-122 0,-90.7875 3.4989,-79.5356 24,-56 37.3508,-40.673 57.0819,-29.6571 74.3798,-22.2556"/>
<polygon fill="#191970" stroke="#191970" points="75.7135,-25.4917 83.6834,-18.511 73.0998,-18.9979 75.7135,-25.4917"/>
</g>
<!-- Node22 -->
<g id="node23" class="node">
<title>Node22</title>
<polygon fill="none" stroke="#bfbfbf" points="908,-280.5 908,-299.5 952,-299.5 952,-280.5 908,-280.5"/>
<text text-anchor="middle" x="930" y="-287.5" font-family="Helvetica,sans-Serif" font-size="10.00" fill="#000000">cmath</text>
</g>
<!-- Node0&#45;&gt;Node22 -->
<g id="edge34" class="edge">
<title>Node0&#45;&gt;Node22</title>
<path fill="none" stroke="#191970" d="M596.8457,-458.1847C678.3972,-445.0092 796.5306,-416.4874 882,-356 899.1017,-343.8969 912.4622,-323.7544 920.6973,-308.8985"/>
<polygon fill="#191970" stroke="#191970" points="924.0174,-310.1036 925.5627,-299.6221 917.8183,-306.8522 924.0174,-310.1036"/>
</g>
<!-- Node23 -->
<g id="node24" class="node">
<title>Node23</title>
<g id="a_node24"><a xlink:href="../../d0/d70/ChebyshevFit1D_8h.html" target="_top" xlink:title="Definition of ChebyshevFit1D class. ">
<polygon fill="none" stroke="#000000" points="454,-336.5 454,-355.5 552,-355.5 552,-336.5 454,-336.5"/>
<text text-anchor="middle" x="503" y="-343.5" font-family="Helvetica,sans-Serif" font-size="10.00" fill="#000000">ChebyshevFit1D.h</text>
</a>
</g>
</g>
<!-- Node0&#45;&gt;Node23 -->
<g id="edge35" class="edge">
<title>Node0&#45;&gt;Node23</title>
<path fill="none" stroke="#191970" d="M503,-448.4126C503,-425.3618 503,-388.2774 503,-365.6259"/>
<polygon fill="#191970" stroke="#191970" points="506.5001,-365.5181 503,-355.5182 499.5001,-365.5182 506.5001,-365.5181"/>
</g>
<!-- Node25 -->
<g id="node26" class="node">
<title>Node25</title>
<g id="a_node26"><a xlink:href="../../da/da3/Spline2DHelper_8h.html" target="_top" xlink:title="Definition of Spline2DHelper class. ">
<polygon fill="none" stroke="#000000" points="590.5,-392.5 590.5,-411.5 683.5,-411.5 683.5,-392.5 590.5,-392.5"/>
<text text-anchor="middle" x="637" y="-399.5" font-family="Helvetica,sans-Serif" font-size="10.00" fill="#000000">Spline2DHelper.h</text>
</a>
</g>
</g>
<!-- Node0&#45;&gt;Node25 -->
<g id="edge38" class="edge">
<title>Node0&#45;&gt;Node25</title>
<path fill="none" stroke="#191970" d="M544.2978,-448.3511C565.1219,-437.9391 589.8503,-425.5748 608.5279,-416.2361"/>
<polygon fill="#191970" stroke="#191970" points="610.3117,-419.2573 617.6907,-411.6546 607.1812,-412.9963 610.3117,-419.2573"/>
</g>
<!-- Node2 -->
<g id="node3" class="node">
<title>Node2</title>
<g id="a_node3"><a xlink:href="../../dd/d27/Spline2D_8h.html" target="_top" xlink:title="Definition of Spline2D class. ">
<polygon fill="none" stroke="#000000" points="322.5,-336.5 322.5,-355.5 387.5,-355.5 387.5,-336.5 322.5,-336.5"/>
<text text-anchor="middle" x="355" y="-343.5" font-family="Helvetica,sans-Serif" font-size="10.00" fill="#000000">Spline2D.h</text>
</a>
</g>
</g>
<!-- Node1&#45;&gt;Node2 -->
<g id="edge2" class="edge">
<title>Node1&#45;&gt;Node2</title>
<path fill="none" stroke="#191970" d="M240.723,-392.3733C263.1737,-383.2629 297.0739,-369.5062 322.1255,-359.3404"/>
<polygon fill="#191970" stroke="#191970" points="323.6365,-362.5045 331.5865,-355.5011 321.0043,-356.0182 323.6365,-362.5045"/>
</g>
<!-- Node5 -->
<g id="node6" class="node">
<title>Node5</title>
<g id="a_node6"><a xlink:href="../../df/d21/GPUCommonDef_8h.html" target="_top" xlink:title="GPUCommonDef.h">
<polygon fill="none" stroke="#000000" points="437,-56.5 437,-75.5 539,-75.5 539,-56.5 437,-56.5"/>
<text text-anchor="middle" x="488" y="-63.5" font-family="Helvetica,sans-Serif" font-size="10.00" fill="#000000">GPUCommonDef.h</text>
</a>
</g>
</g>
<!-- Node1&#45;&gt;Node5 -->
<g id="edge32" class="edge">
<title>Node1&#45;&gt;Node5</title>
<path fill="none" stroke="#191970" d="M217.3685,-392.2837C219.4553,-351.5228 233.0834,-192.7102 320,-112 335.712,-97.4099 385.5671,-84.8689 426.918,-76.5838"/>
<polygon fill="#191970" stroke="#191970" points="427.8065,-79.9764 436.949,-74.6224 426.4632,-73.1065 427.8065,-79.9764"/>
</g>
<!-- Node8 -->
<g id="node9" class="node">
<title>Node8</title>
<g id="a_node9"><a xlink:href="../../db/dff/FlatObject_8h.html" target="_top" xlink:title="Definition of FlatObject class. ">
<polygon fill="none" stroke="#000000" points="174,-112.5 174,-131.5 244,-131.5 244,-112.5 174,-112.5"/>
<text text-anchor="middle" x="209" y="-119.5" font-family="Helvetica,sans-Serif" font-size="10.00" fill="#000000">FlatObject.h</text>
</a>
</g>
</g>
<!-- Node1&#45;&gt;Node8 -->
<g id="edge31" class="edge">
<title>Node1&#45;&gt;Node8</title>
<path fill="none" stroke="#191970" d="M207.7813,-392.4119C191.1875,-374.0983 158,-332.1966 158,-290 158,-290 158,-290 158,-234 158,-198.0802 179.9955,-161.0352 195.0967,-139.8345"/>
<polygon fill="#191970" stroke="#191970" points="198.1163,-141.638 201.2542,-131.5185 192.4906,-137.4725 198.1163,-141.638"/>
</g>
<!-- Node21 -->
<g id="node22" class="node">
<title>Node21</title>
<g id="a_node22"><a xlink:href="../../d5/dde/TPCFastTransformGeo_8h.html" target="_top" xlink:title="Definition of TPCFastTransformGeo class. ">
<polygon fill="none" stroke="#000000" points="28.5,-112.5 28.5,-131.5 155.5,-131.5 155.5,-112.5 28.5,-112.5"/>
<text text-anchor="middle" x="92" y="-119.5" font-family="Helvetica,sans-Serif" font-size="10.00" fill="#000000">TPCFastTransformGeo.h</text>
</a>
</g>
</g>
<!-- Node1&#45;&gt;Node21 -->
<g id="edge28" class="edge">
<title>Node1&#45;&gt;Node21</title>
<path fill="none" stroke="#191970" d="M195.8605,-392.4901C163.6548,-376.3882 106,-340.5089 106,-290 106,-290 106,-290 106,-234 106,-201.311 100.0554,-163.6669 95.9134,-141.4058"/>
<polygon fill="#191970" stroke="#191970" points="99.3403,-140.692 94.0059,-131.5381 92.4676,-142.0207 99.3403,-140.692"/>
</g>
<!-- Node3 -->
<g id="node4" class="node">
<title>Node3</title>
<g id="a_node4"><a xlink:href="../../de/da6/Spline1D_8h.html" target="_top" xlink:title="Definition of Spline1D class. ">
<polygon fill="none" stroke="#000000" points="387.5,-224.5 387.5,-243.5 452.5,-243.5 452.5,-224.5 387.5,-224.5"/>
<text text-anchor="middle" x="420" y="-231.5" font-family="Helvetica,sans-Serif" font-size="10.00" fill="#000000">Spline1D.h</text>
</a>
</g>
</g>
<!-- Node2&#45;&gt;Node3 -->
<g id="edge3" class="edge">
<title>Node2&#45;&gt;Node3</title>
<path fill="none" stroke="#191970" d="M360.5419,-336.4509C371.3351,-317.8533 395.3395,-276.4919 409.3235,-252.3964"/>
<polygon fill="#191970" stroke="#191970" points="412.4798,-253.9307 414.4722,-243.5249 406.4255,-250.417 412.4798,-253.9307"/>
</g>
<!-- Node2&#45;&gt;Node5 -->
<g id="edge27" class="edge">
<title>Node2&#45;&gt;Node5</title>
<path fill="none" stroke="#191970" d="M369.8574,-336.421C393.4571,-320.3591 439.169,-285.6297 462,-244 490.3341,-192.3361 491.0262,-120.1408 489.4303,-85.7395"/>
<polygon fill="#191970" stroke="#191970" points="492.9156,-85.3849 488.838,-75.6062 485.9276,-85.7934 492.9156,-85.3849"/>
</g>
<!-- Node2&#45;&gt;Node8 -->
<g id="edge26" class="edge">
<title>Node2&#45;&gt;Node8</title>
<path fill="none" stroke="#191970" d="M328.0411,-336.386C310.5021,-328.8986 288.3106,-316.9138 274,-300 233.5417,-252.1819 217.3098,-177.0336 211.6473,-141.6574"/>
<polygon fill="#191970" stroke="#191970" points="215.093,-141.0321 210.163,-131.6542 208.1688,-142.0596 215.093,-141.0321"/>
</g>
<!-- Node20 -->
<g id="node21" class="node">
<title>Node20</title>
<g id="a_node21"><a xlink:href="../../d7/d2f/Spline2DSpec_8h.html" target="_top" xlink:title="Definition of Spline2DSpec class. ">
<polygon fill="none" stroke="#000000" points="283.5,-280.5 283.5,-299.5 370.5,-299.5 370.5,-280.5 283.5,-280.5"/>
<text text-anchor="middle" x="327" y="-287.5" font-family="Helvetica,sans-Serif" font-size="10.00" fill="#000000">Spline2DSpec.h</text>
</a>
</g>
</g>
<!-- Node2&#45;&gt;Node20 -->
<g id="edge21" class="edge">
<title>Node2&#45;&gt;Node20</title>
<path fill="none" stroke="#191970" d="M350.1228,-336.2455C346.3487,-328.6973 341.0079,-318.0158 336.4099,-308.8197"/>
<polygon fill="#191970" stroke="#191970" points="339.424,-307.0217 331.8213,-299.6427 333.163,-310.1522 339.424,-307.0217"/>
</g>
<!-- Node4 -->
<g id="node5" class="node">
<title>Node4</title>
<g id="a_node5"><a xlink:href="../../d0/d51/Spline1DSpec_8h.html" target="_top" xlink:title="Definition of Spline1DSpec class. ">
<polygon fill="none" stroke="#000000" points="376.5,-168.5 376.5,-187.5 463.5,-187.5 463.5,-168.5 376.5,-168.5"/>
<text text-anchor="middle" x="420" y="-175.5" font-family="Helvetica,sans-Serif" font-size="10.00" fill="#000000">Spline1DSpec.h</text>
</a>
</g>
</g>
<!-- Node3&#45;&gt;Node4 -->
<g id="edge4" class="edge">
<title>Node3&#45;&gt;Node4</title>
<path fill="none" stroke="#191970" d="M420,-224.2455C420,-216.9382 420,-206.6944 420,-197.7046"/>
<polygon fill="#191970" stroke="#191970" points="423.5001,-197.6426 420,-187.6427 416.5001,-197.6427 423.5001,-197.6426"/>
</g>
<!-- Node4&#45;&gt;Node5 -->
<g id="edge5" class="edge">
<title>Node4&#45;&gt;Node5</title>
<path fill="none" stroke="#191970" d="M425.7976,-168.4509C437.1392,-149.7707 462.4249,-108.1238 477.0252,-84.0761"/>
<polygon fill="#191970" stroke="#191970" points="480.019,-85.8892 482.217,-75.5249 474.0354,-82.2563 480.019,-85.8892"/>
</g>
<!-- Node4&#45;&gt;Node8 -->
<g id="edge8" class="edge">
<title>Node4&#45;&gt;Node8</title>
<path fill="none" stroke="#191970" d="M383.7278,-168.3733C347.8178,-158.8426 292.7493,-144.2273 254.0538,-133.9574"/>
<polygon fill="#191970" stroke="#191970" points="254.661,-130.4974 244.0977,-131.315 252.8653,-137.2632 254.661,-130.4974"/>
</g>
<!-- Node18 -->
<g id="node19" class="node">
<title>Node18</title>
<g id="a_node19"><a xlink:href="../../db/d04/SplineUtil_8h.html" target="_top" xlink:title="SplineUtil.h">
<polygon fill="none" stroke="#000000" points="343.5,-112.5 343.5,-131.5 410.5,-131.5 410.5,-112.5 343.5,-112.5"/>
<text text-anchor="middle" x="377" y="-119.5" font-family="Helvetica,sans-Serif" font-size="10.00" fill="#000000">SplineUtil.h</text>
</a>
</g>
</g>
<!-- Node4&#45;&gt;Node18 -->
<g id="edge19" class="edge">
<title>Node4&#45;&gt;Node18</title>
<path fill="none" stroke="#191970" d="M412.51,-168.2455C406.4674,-160.3761 397.8097,-149.101 390.5559,-139.6542"/>
<polygon fill="#191970" stroke="#191970" points="393.2705,-137.4426 384.4042,-131.6427 387.7185,-141.7058 393.2705,-137.4426"/>
</g>
<!-- Node19 -->
<g id="node20" class="node">
<title>Node19</title>
<polygon fill="none" stroke="#bfbfbf" points="596.5,-112.5 596.5,-131.5 655.5,-131.5 655.5,-112.5 596.5,-112.5"/>
<text text-anchor="middle" x="626" y="-119.5" font-family="Helvetica,sans-Serif" font-size="10.00" fill="#000000">functional</text>
</g>
<!-- Node4&#45;&gt;Node19 -->
<g id="edge20" class="edge">
<title>Node4&#45;&gt;Node19</title>
<path fill="none" stroke="#191970" d="M455.4127,-168.3733C491.9501,-158.4408 548.8028,-142.9856 586.7051,-132.6821"/>
<polygon fill="#191970" stroke="#191970" points="587.6525,-136.0517 596.3842,-130.0509 585.8162,-129.2968 587.6525,-136.0517"/>
</g>
<!-- Node6 -->
<g id="node7" class="node">
<title>Node6</title>
<g id="a_node7"><a xlink:href="../../d5/d93/GPUCommonDefSettings_8h.html" target="_top" xlink:title="GPUCommonDefSettings.h">
<polygon fill="none" stroke="#000000" points="518,-.5 518,-19.5 656,-19.5 656,-.5 518,-.5"/>
<text text-anchor="middle" x="587" y="-7.5" font-family="Helvetica,sans-Serif" font-size="10.00" fill="#000000">GPUCommonDefSettings.h</text>
</a>
</g>
</g>
<!-- Node5&#45;&gt;Node6 -->
<g id="edge6" class="edge">
<title>Node5&#45;&gt;Node6</title>
<path fill="none" stroke="#191970" d="M505.2445,-56.2455C520.5761,-47.5731 543.2199,-34.7645 560.7916,-24.825"/>
<polygon fill="#191970" stroke="#191970" points="562.9724,-27.6126 569.9531,-19.6427 559.5259,-21.5198 562.9724,-27.6126"/>
</g>
<!-- Node7 -->
<g id="node8" class="node">
<title>Node7</title>
<g id="a_node8"><a xlink:href="../../da/d5a/GPUCommonDefAPI_8h.html" target="_top" xlink:title="GPUCommonDefAPI.h">
<polygon fill="none" stroke="#000000" points="380.5,-.5 380.5,-19.5 499.5,-19.5 499.5,-.5 380.5,-.5"/>
<text text-anchor="middle" x="440" y="-7.5" font-family="Helvetica,sans-Serif" font-size="10.00" fill="#000000">GPUCommonDefAPI.h</text>
</a>
</g>
</g>
<!-- Node5&#45;&gt;Node7 -->
<g id="edge7" class="edge">
<title>Node5&#45;&gt;Node7</title>
<path fill="none" stroke="#191970" d="M479.639,-56.2455C472.825,-48.2958 463.0319,-36.8706 454.8848,-27.3656"/>
<polygon fill="#191970" stroke="#191970" points="457.4305,-24.9575 448.2651,-19.6427 452.1157,-29.513 457.4305,-24.9575"/>
</g>
<!-- Node8&#45;&gt;Node5 -->
<g id="edge13" class="edge">
<title>Node8&#45;&gt;Node5</title>
<path fill="none" stroke="#191970" d="M244.0604,-114.8275C248.7464,-113.8739 253.4895,-112.9113 258,-112 316.5684,-100.1668 383.559,-86.7862 430.0755,-77.5196"/>
<polygon fill="#191970" stroke="#191970" points="430.8491,-80.9344 439.9728,-75.5485 429.4818,-74.0692 430.8491,-80.9344"/>
</g>
<!-- Node9 -->
<g id="node10" class="node">
<title>Node9</title>
<polygon fill="none" stroke="#bfbfbf" points="103.5,-56.5 103.5,-75.5 152.5,-75.5 152.5,-56.5 103.5,-56.5"/>
<text text-anchor="middle" x="128" y="-63.5" font-family="Helvetica,sans-Serif" font-size="10.00" fill="#000000">cstddef</text>
</g>
<!-- Node8&#45;&gt;Node9 -->
<g id="edge9" class="edge">
<title>Node8&#45;&gt;Node9</title>
<path fill="none" stroke="#191970" d="M194.8909,-112.2455C182.5791,-103.7337 164.5042,-91.2375 150.2462,-81.3801"/>
<polygon fill="#191970" stroke="#191970" points="152.1634,-78.4506 141.9474,-75.6427 148.1826,-84.2085 152.1634,-78.4506"/>
</g>
<!-- Node10 -->
<g id="node11" class="node">
<title>Node10</title>
<polygon fill="none" stroke="#bfbfbf" points="33,-56.5 33,-75.5 85,-75.5 85,-56.5 33,-56.5"/>
<text text-anchor="middle" x="59" y="-63.5" font-family="Helvetica,sans-Serif" font-size="10.00" fill="#000000">memory</text>
</g>
<!-- Node8&#45;&gt;Node10 -->
<g id="edge10" class="edge">
<title>Node8&#45;&gt;Node10</title>
<path fill="none" stroke="#191970" d="M183.2141,-112.3733C158.5953,-103.1822 121.31,-89.2624 94.0125,-79.0713"/>
<polygon fill="#191970" stroke="#191970" points="95.042,-75.7198 84.4494,-75.5011 92.5937,-82.2777 95.042,-75.7198"/>
</g>
<!-- Node11 -->
<g id="node12" class="node">
<title>Node11</title>
<polygon fill="none" stroke="#bfbfbf" points="171,-56.5 171,-75.5 217,-75.5 217,-56.5 171,-56.5"/>
<text text-anchor="middle" x="194" y="-63.5" font-family="Helvetica,sans-Serif" font-size="10.00" fill="#000000">cstring</text>
</g>
<!-- Node8&#45;&gt;Node11 -->
<g id="edge11" class="edge">
<title>Node8&#45;&gt;Node11</title>
<path fill="none" stroke="#191970" d="M206.3872,-112.2455C204.4084,-104.8579 201.6256,-94.4689 199.1988,-85.4087"/>
<polygon fill="#191970" stroke="#191970" points="202.5511,-84.3966 196.5829,-75.6427 195.7895,-86.2078 202.5511,-84.3966"/>
</g>
<!-- Node12 -->
<g id="node13" class="node">
<title>Node12</title>
<polygon fill="none" stroke="#bfbfbf" points="369.5,-56.5 369.5,-75.5 418.5,-75.5 418.5,-56.5 369.5,-56.5"/>
<text text-anchor="middle" x="394" y="-63.5" font-family="Helvetica,sans-Serif" font-size="10.00" fill="#000000">cassert</text>
</g>
<!-- Node8&#45;&gt;Node12 -->
<g id="edge12" class="edge">
<title>Node8&#45;&gt;Node12</title>
<path fill="none" stroke="#191970" d="M240.8026,-112.3733C273.8518,-102.3692 325.4093,-86.7626 359.4442,-76.4601"/>
<polygon fill="#191970" stroke="#191970" points="360.8472,-79.6923 369.4043,-73.4452 358.8191,-72.9926 360.8472,-79.6923"/>
</g>
<!-- Node13 -->
<g id="node14" class="node">
<title>Node13</title>
<g id="a_node14"><a xlink:href="../../d2/d45/GPUCommonRtypes_8h.html" target="_top" xlink:title="GPUCommonRtypes.h">
<polygon fill="none" stroke="#000000" points="821,-56.5 821,-75.5 939,-75.5 939,-56.5 821,-56.5"/>
<text text-anchor="middle" x="880" y="-63.5" font-family="Helvetica,sans-Serif" font-size="10.00" fill="#000000">GPUCommonRtypes.h</text>
</a>
</g>
</g>
<!-- Node8&#45;&gt;Node13 -->
<g id="edge14" class="edge">
<title>Node8&#45;&gt;Node13</title>
<path fill="none" stroke="#191970" d="M244.1311,-119.068C350.2147,-110.2146 668.687,-83.6357 810.5313,-71.7977"/>
<polygon fill="#191970" stroke="#191970" points="811.1681,-75.2568 820.8423,-70.9372 810.5858,-68.2811 811.1681,-75.2568"/>
</g>
<!-- Node15 -->
<g id="node16" class="node">
<title>Node15</title>
<g id="a_node16"><a xlink:href="../../df/d5b/GPUCommonLogger_8h.html" target="_top" xlink:title="GPUCommonLogger.h">
<polygon fill="none" stroke="#000000" points="235,-56.5 235,-75.5 351,-75.5 351,-56.5 235,-56.5"/>
<text text-anchor="middle" x="293" y="-63.5" font-family="Helvetica,sans-Serif" font-size="10.00" fill="#000000">GPUCommonLogger.h</text>
</a>
</g>
</g>
<!-- Node8&#45;&gt;Node15 -->
<g id="edge16" class="edge">
<title>Node8&#45;&gt;Node15</title>
<path fill="none" stroke="#191970" d="M223.6317,-112.2455C236.3994,-103.7337 255.1438,-91.2375 269.9299,-81.3801"/>
<polygon fill="#191970" stroke="#191970" points="272.1569,-84.1019 278.536,-75.6427 268.274,-78.2775 272.1569,-84.1019"/>
</g>
<!-- Node14 -->
<g id="node15" class="node">
<title>Node14</title>
<polygon fill="none" stroke="#bfbfbf" points="852,-.5 852,-19.5 908,-19.5 908,-.5 852,-.5"/>
<text text-anchor="middle" x="880" y="-7.5" font-family="Helvetica,sans-Serif" font-size="10.00" fill="#000000">Rtypes.h</text>
</g>
<!-- Node13&#45;&gt;Node14 -->
<g id="edge15" class="edge">
<title>Node13&#45;&gt;Node14</title>
<path fill="none" stroke="#191970" d="M880,-56.2455C880,-48.9382 880,-38.6944 880,-29.7046"/>
<polygon fill="#191970" stroke="#191970" points="883.5001,-29.6426 880,-19.6427 876.5001,-29.6427 883.5001,-29.6426"/>
</g>
<!-- Node15&#45;&gt;Node16 -->
<g id="edge17" class="edge">
<title>Node15&#45;&gt;Node16</title>
<path fill="none" stroke="#191970" d="M261.7131,-56.3733C230.1209,-46.6526 181.3375,-31.6423 147.8817,-21.3482"/>
<polygon fill="#191970" stroke="#191970" points="148.6141,-17.9117 138.027,-18.316 146.5554,-24.6021 148.6141,-17.9117"/>
</g>
<!-- Node17 -->
<g id="node18" class="node">
<title>Node17</title>
<polygon fill="none" stroke="#bfbfbf" points="271.5,-.5 271.5,-19.5 314.5,-19.5 314.5,-.5 271.5,-.5"/>
<text text-anchor="middle" x="293" y="-7.5" font-family="Helvetica,sans-Serif" font-size="10.00" fill="#000000">cstdio</text>
</g>
<!-- Node15&#45;&gt;Node17 -->
<g id="edge18" class="edge">
<title>Node15&#45;&gt;Node17</title>
<path fill="none" stroke="#191970" d="M293,-56.2455C293,-48.9382 293,-38.6944 293,-29.7046"/>
<polygon fill="#191970" stroke="#191970" points="296.5001,-29.6426 293,-19.6427 289.5001,-29.6427 296.5001,-29.6426"/>
</g>
<!-- Node20&#45;&gt;Node3 -->
<g id="edge22" class="edge">
<title>Node20&#45;&gt;Node3</title>
<path fill="none" stroke="#191970" d="M343.1994,-280.2455C357.6018,-271.5731 378.8732,-258.7645 395.3799,-248.825"/>
<polygon fill="#191970" stroke="#191970" points="397.225,-251.7996 403.9863,-243.6427 393.614,-245.8028 397.225,-251.7996"/>
</g>
<!-- Node20&#45;&gt;Node5 -->
<g id="edge24" class="edge">
<title>Node20&#45;&gt;Node5</title>
<path fill="none" stroke="#191970" d="M323.8645,-280.2125C315.1804,-251.0465 293.9951,-163.5544 334,-112 345.738,-96.8732 389.1477,-84.7452 426.8987,-76.748"/>
<polygon fill="#191970" stroke="#191970" points="427.7651,-80.1432 436.857,-74.7038 426.3574,-73.2862 427.7651,-80.1432"/>
</g>
<!-- Node20&#45;&gt;Node8 -->
<g id="edge23" class="edge">
<title>Node20&#45;&gt;Node8</title>
<path fill="none" stroke="#191970" d="M320.3177,-280.4862C301.3417,-253.4695 246.8868,-175.9405 221.8607,-140.3102"/>
<polygon fill="#191970" stroke="#191970" points="224.5148,-137.9993 215.9029,-131.8279 218.7865,-142.0228 224.5148,-137.9993"/>
</g>
<!-- Node20&#45;&gt;Node18 -->
<g id="edge25" class="edge">
<title>Node20&#45;&gt;Node18</title>
<path fill="none" stroke="#191970" d="M329.8315,-280.4862C337.7695,-253.8144 360.3596,-177.9117 371.1384,-141.695"/>
<polygon fill="#191970" stroke="#191970" points="374.577,-142.4108 374.075,-131.8279 367.8678,-140.414 374.577,-142.4108"/>
</g>
<!-- Node21&#45;&gt;Node5 -->
<g id="edge29" class="edge">
<title>Node21&#45;&gt;Node5</title>
<path fill="none" stroke="#191970" d="M155.7012,-113.2734C158.8453,-112.8428 161.9583,-112.4165 165,-112 278.6919,-96.4317 309.6795,-93.8354 426.862,-76.1404"/>
<polygon fill="#191970" stroke="#191970" points="427.5901,-79.5701 436.953,-74.6117 426.5416,-72.6491 427.5901,-79.5701"/>
</g>
<!-- Node21&#45;&gt;Node10 -->
<g id="edge30" class="edge">
<title>Node21&#45;&gt;Node10</title>
<path fill="none" stroke="#191970" d="M86.2518,-112.2455C81.7565,-104.617 75.3752,-93.7881 69.9175,-84.5267"/>
<polygon fill="#191970" stroke="#191970" points="72.7747,-82.4811 64.6823,-75.6427 66.7439,-86.035 72.7747,-82.4811"/>
</g>
<!-- Node23&#45;&gt;Node5 -->
<g id="edge36" class="edge">
<title>Node23&#45;&gt;Node5</title>
<path fill="none" stroke="#191970" d="M506.9839,-336.3019C514.4944,-317.1145 530,-272.8029 530,-234 530,-234 530,-234 530,-178 530,-143.2434 512.0481,-106.0613 499.6174,-84.4811"/>
<polygon fill="#191970" stroke="#191970" points="502.5177,-82.5116 494.3789,-75.7285 496.5113,-86.1065 502.5177,-82.5116"/>
</g>
<!-- Node24 -->
<g id="node25" class="node">
<title>Node24</title>
<polygon fill="none" stroke="#bfbfbf" points="634,-280.5 634,-299.5 678,-299.5 678,-280.5 634,-280.5"/>
<text text-anchor="middle" x="656" y="-287.5" font-family="Helvetica,sans-Serif" font-size="10.00" fill="#000000">vector</text>
</g>
<!-- Node23&#45;&gt;Node24 -->
<g id="edge37" class="edge">
<title>Node23&#45;&gt;Node24</title>
<path fill="none" stroke="#191970" d="M529.3016,-336.3733C555.4781,-326.7923 595.6939,-312.0728 623.7741,-301.7951"/>
<polygon fill="#191970" stroke="#191970" points="625.3342,-304.9512 633.5219,-298.2273 622.9282,-298.3777 625.3342,-304.9512"/>
</g>
<!-- Node25&#45;&gt;Node2 -->
<g id="edge44" class="edge">
<title>Node25&#45;&gt;Node2</title>
<path fill="none" stroke="#191970" d="M590.4334,-392.7527C536.7559,-382.0934 449.2856,-364.7234 397.4239,-354.4246"/>
<polygon fill="#191970" stroke="#191970" points="398.0371,-350.9781 387.5469,-352.4632 396.6736,-357.844 398.0371,-350.9781"/>
</g>
<!-- Node25&#45;&gt;Node3 -->
<g id="edge43" class="edge">
<title>Node25&#45;&gt;Node3</title>
<path fill="none" stroke="#191970" d="M590.2818,-396.5839C540.0911,-389.7979 464.8415,-376.508 445,-356 418.4282,-328.5357 416.631,-280.8391 418.0647,-253.9403"/>
<polygon fill="#191970" stroke="#191970" points="421.5671,-254.0361 418.8142,-243.8052 414.5862,-253.5198 421.5671,-254.0361"/>
</g>
<!-- Node25&#45;&gt;Node5 -->
<g id="edge41" class="edge">
<title>Node25&#45;&gt;Node5</title>
<path fill="none" stroke="#191970" d="M629.8757,-392.3499C612.2463,-367.4844 568,-298.6383 568,-234 568,-234 568,-234 568,-178 568,-137.601 533.1081,-101.7136 509.4106,-81.9987"/>
<polygon fill="#191970" stroke="#191970" points="511.5639,-79.2391 501.5709,-75.7189 507.1875,-84.7024 511.5639,-79.2391"/>
</g>
<!-- Node25&#45;&gt;Node13 -->
<g id="edge42" class="edge">
<title>Node25&#45;&gt;Node13</title>
<path fill="none" stroke="#191970" d="M683.6155,-396.6818C777.398,-384.6813 980,-351.6249 980,-290 980,-290 980,-290 980,-178 980,-134.0606 936.6447,-99.4269 907.0285,-80.8942"/>
<polygon fill="#191970" stroke="#191970" points="908.7145,-77.824 898.3415,-75.6672 905.1055,-83.8219 908.7145,-77.824"/>
</g>
<!-- Node25&#45;&gt;Node19 -->
<g id="edge53" class="edge">
<title>Node25&#45;&gt;Node19</title>
<path fill="none" stroke="#191970" d="M635.5006,-392.4705C632.7517,-374.4629 627.0034,-334.1758 625,-300 621.6351,-242.5992 623.6897,-174.6088 625.0635,-141.7439"/>
<polygon fill="#191970" stroke="#191970" points="628.5641,-141.8043 625.511,-131.659 621.571,-141.4939 628.5641,-141.8043"/>
</g>
<!-- Node25&#45;&gt;Node22 -->
<g id="edge39" class="edge">
<title>Node25&#45;&gt;Node22</title>
<path fill="none" stroke="#191970" d="M683.6762,-398.9047C729.1955,-394.3577 799.3594,-383.2072 854,-356 878.0223,-344.0386 900.5715,-322.679 914.7711,-307.5002"/>
<polygon fill="#191970" stroke="#191970" points="917.6285,-309.5598 921.7571,-299.8024 912.4449,-304.8555 917.6285,-309.5598"/>
</g>
<!-- Node25&#45;&gt;Node24 -->
<g id="edge40" class="edge">
<title>Node25&#45;&gt;Node24</title>
<path fill="none" stroke="#191970" d="M638.6199,-392.4509C641.7188,-374.184 648.5433,-333.9553 652.6584,-309.6976"/>
<polygon fill="#191970" stroke="#191970" points="656.1623,-309.9694 654.3842,-299.5249 649.2609,-308.7986 656.1623,-309.9694"/>
</g>
<!-- Node26 -->
<g id="node27" class="node">
<title>Node26</title>
<g id="a_node27"><a xlink:href="../../de/dc8/Spline1DHelper_8h.html" target="_top" xlink:title="Definition of Spline1DHelper class. ">
<polygon fill="none" stroke="#000000" points="751.5,-336.5 751.5,-355.5 844.5,-355.5 844.5,-336.5 751.5,-336.5"/>
<text text-anchor="middle" x="798" y="-343.5" font-family="Helvetica,sans-Serif" font-size="10.00" fill="#000000">Spline1DHelper.h</text>
</a>
</g>
</g>
<!-- Node25&#45;&gt;Node26 -->
<g id="edge45" class="edge">
<title>Node25&#45;&gt;Node26</title>
<path fill="none" stroke="#191970" d="M664.6769,-392.3733C691.3328,-383.1016 731.8238,-369.0178 761.1884,-358.804"/>
<polygon fill="#191970" stroke="#191970" points="762.3891,-362.0921 770.6843,-355.5011 760.0895,-355.4807 762.3891,-362.0921"/>
</g>
<!-- Node27 -->
<g id="node28" class="node">
<title>Node27</title>
<polygon fill="none" stroke="#bfbfbf" points="696.5,-280.5 696.5,-299.5 737.5,-299.5 737.5,-280.5 696.5,-280.5"/>
<text text-anchor="middle" x="717" y="-287.5" font-family="Helvetica,sans-Serif" font-size="10.00" fill="#000000">string</text>
</g>
<!-- Node25&#45;&gt;Node27 -->
<g id="edge54" class="edge">
<title>Node25&#45;&gt;Node27</title>
<path fill="none" stroke="#191970" d="M643.8208,-392.4509C657.2228,-373.688 687.1752,-331.7548 704.3157,-307.758"/>
<polygon fill="#191970" stroke="#191970" points="707.2322,-309.6966 710.1965,-299.5249 701.536,-305.6279 707.2322,-309.6966"/>
</g>
<!-- Node26&#45;&gt;Node3 -->
<g id="edge50" class="edge">
<title>Node26&#45;&gt;Node3</title>
<path fill="none" stroke="#191970" d="M793.6338,-336.4509C786.3057,-321.6249 770.0383,-293.3852 747,-280 699.5971,-252.4589 540.5107,-240.3946 463.073,-236.0538"/>
<polygon fill="#191970" stroke="#191970" points="462.8831,-232.5385 452.7082,-235.4918 462.504,-239.5282 462.8831,-232.5385"/>
</g>
<!-- Node26&#45;&gt;Node5 -->
<g id="edge48" class="edge">
<title>Node26&#45;&gt;Node5</title>
<path fill="none" stroke="#191970" d="M804.6827,-336.3152C816.9915,-317.5029 842,-274.3199 842,-234 842,-234 842,-234 842,-178 842,-117.3153 650.5088,-85.311 549.2036,-72.6257"/>
<polygon fill="#191970" stroke="#191970" points="549.4482,-69.1295 539.0966,-71.3867 548.5964,-76.0775 549.4482,-69.1295"/>
</g>
<!-- Node26&#45;&gt;Node13 -->
<g id="edge49" class="edge">
<title>Node26&#45;&gt;Node13</title>
<path fill="none" stroke="#191970" d="M814.5825,-336.4189C827.469,-328.2187 844.9535,-315.3262 856,-300 874.2503,-274.6791 880,-265.2125 880,-234 880,-234 880,-234 880,-178 880,-145.7116 880,-108.1872 880,-85.8048"/>
<polygon fill="#191970" stroke="#191970" points="883.5001,-85.5883 880,-75.5884 876.5001,-85.5884 883.5001,-85.5883"/>
</g>
<!-- Node26&#45;&gt;Node19 -->
<g id="edge51" class="edge">
<title>Node26&#45;&gt;Node19</title>
<path fill="none" stroke="#191970" d="M795.3461,-336.0705C791.492,-322.6686 783.5247,-298.3573 772,-280 735.3335,-221.595 675.6087,-165.2471 645.1614,-138.3715"/>
<polygon fill="#191970" stroke="#191970" points="647.2301,-135.5316 637.3935,-131.5955 642.6286,-140.8066 647.2301,-135.5316"/>
</g>
<!-- Node26&#45;&gt;Node22 -->
<g id="edge46" class="edge">
<title>Node26&#45;&gt;Node22</title>
<path fill="none" stroke="#191970" d="M820.6916,-336.3733C842.0711,-327.3032 874.3057,-313.6279 898.2362,-303.4755"/>
<polygon fill="#191970" stroke="#191970" points="899.7656,-306.6287 907.6045,-299.5011 897.0317,-300.1846 899.7656,-306.6287"/>
</g>
<!-- Node26&#45;&gt;Node24 -->
<g id="edge47" class="edge">
<title>Node26&#45;&gt;Node24</title>
<path fill="none" stroke="#191970" d="M773.5893,-336.3733C749.8232,-327.0007 713.5879,-312.7107 687.6253,-302.472"/>
<polygon fill="#191970" stroke="#191970" points="688.8121,-299.1777 678.2253,-298.7649 686.244,-305.6896 688.8121,-299.1777"/>
</g>
<!-- Node26&#45;&gt;Node27 -->
<g id="edge52" class="edge">
<title>Node26&#45;&gt;Node27</title>
<path fill="none" stroke="#191970" d="M783.8909,-336.2455C771.5791,-327.7337 753.5042,-315.2375 739.2462,-305.3801"/>
<polygon fill="#191970" stroke="#191970" points="741.1634,-302.4506 730.9474,-299.6427 737.1826,-308.2085 741.1634,-302.4506"/>
</g>
</g>
</svg>
