<?xml version="1.0" encoding="UTF-8" standalone="no"?>
<!DOCTYPE svg PUBLIC "-//W3C//DTD SVG 1.1//EN"
 "http://www.w3.org/Graphics/SVG/1.1/DTD/svg11.dtd">
<!-- Generated by graphviz version 2.40.1 (20161225.0304)
 -->
<!-- Title: GPUCA_NAMESPACE::gpu::GPUTPCCompressionGatherKernels Pages: 1 -->
<!--zoomable 683 -->
<svg id="main" version="1.1" xmlns="http://www.w3.org/2000/svg" xmlns:xlink="http://www.w3.org/1999/xlink" xml:space="preserve" onload="init(evt)">
<style type="text/css"><![CDATA[
.edge:hover path { stroke: red; }
.edge:hover polygon { stroke: red; fill: red; }
]]></style>
<script type="text/javascript"><![CDATA[
var edges = document.getElementsByTagName('g');
if (edges && edges.length) {
  for (var i=0;i<edges.length;i++) {
    if (edges[i].id.substr(0,4)=='edge') {
      edges[i].setAttribute('class','edge');
    }
  }
}
]]></script>
        <defs>
                <circle id="rim" cx="0" cy="0" r="7"/>
                <circle id="rim2" cx="0" cy="0" r="3.5"/>
                <g id="zoomPlus">
                        <use xlink:href="#rim" fill="#404040">
                                <set attributeName="fill" to="#808080" begin="zoomplus.mouseover" end="zoomplus.mouseout"/>
                        </use>
                        <path d="M-4,0h8M0,-4v8" fill="none" stroke="white" stroke-width="1.5" pointer-events="none"/>
                </g>
                <g id="zoomMin">
                        <use xlink:href="#rim" fill="#404040">
                                <set attributeName="fill" to="#808080" begin="zoomminus.mouseover" end="zoomminus.mouseout"/>
                        </use>
                        <path d="M-4,0h8" fill="none" stroke="white" stroke-width="1.5" pointer-events="none"/>
                </g>
                <g id="dirArrow">
                        <path fill="none" stroke="white" stroke-width="1.5" d="M0,-3.0v7 M-2.5,-0.5L0,-3.0L2.5,-0.5"/>
                </g>
               <g id="resetDef">
                       <use xlink:href="#rim2" fill="#404040">
                               <set attributeName="fill" to="#808080" begin="reset.mouseover" end="reset.mouseout"/>
                       </use>
               </g>
        </defs>

<script type="text/javascript">
var viewWidth = 465;
var viewHeight = 683;
var sectionId = 'dynsection-1';
</script>
<script xlink:href="../../svgpan.js"/>
<svg id="graph" class="graph">
<g id="viewport">
<title>GPUCA_NAMESPACE::gpu::GPUTPCCompressionGatherKernels</title>
<!-- Node2 -->
<g id="node1" class="node">
<title>Node2</title>
<polygon fill="#bfbfbf" stroke="#000000" points="177.8382,-.5 177.8382,-277.5 362.8382,-277.5 362.8382,-.5 177.8382,-.5"/>
<text text-anchor="start" x="185.8382" y="-265.5" font-family="Helvetica,sans-Serif" font-size="10.00" fill="#000000">GPUCA_NAMESPACE::gpu</text>
<text text-anchor="middle" x="270.3382" y="-254.5" font-family="Helvetica,sans-Serif" font-size="10.00" fill="#000000">::GPUTPCCompressionGatherKernels</text>
<polyline fill="none" stroke="#000000" points="177.8382,-247.5 362.8382,-247.5 "/>
<text text-anchor="start" x="185.8382" y="-235.5" font-family="Helvetica,sans-Serif" font-size="10.00" fill="#000000">+ dst</text>
<text text-anchor="start" x="185.8382" y="-224.5" font-family="Helvetica,sans-Serif" font-size="10.00" fill="#000000">+ srcOffets</text>
<text text-anchor="start" x="185.8382" y="-213.5" font-family="Helvetica,sans-Serif" font-size="10.00" fill="#000000">+ diff</text>
<text text-anchor="start" x="185.8382" y="-202.5" font-family="Helvetica,sans-Serif" font-size="10.00" fill="#000000">+ end</text>
<text text-anchor="start" x="185.8382" y="-191.5" font-family="Helvetica,sans-Serif" font-size="10.00" fill="#000000">+ nWarps</text>
<polyline fill="none" stroke="#000000" points="177.8382,-184.5 362.8382,-184.5 "/>
<text text-anchor="start" x="185.8382" y="-172.5" font-family="Helvetica,sans-Serif" font-size="10.00" fill="#000000">+ GPUd()</text>
<text text-anchor="start" x="185.8382" y="-161.5" font-family="Helvetica,sans-Serif" font-size="10.00" fill="#000000">+ GPUsharedref()</text>
<text text-anchor="start" x="185.8382" y="-150.5" font-family="Helvetica,sans-Serif" font-size="10.00" fill="#000000">+ GPUrestrict()</text>
<text text-anchor="start" x="185.8382" y="-139.5" font-family="Helvetica,sans-Serif" font-size="10.00" fill="#000000">+ GPUdi()</text>
<text text-anchor="start" x="185.8382" y="-128.5" font-family="Helvetica,sans-Serif" font-size="10.00" fill="#000000">+ GPUdi()</text>
<text text-anchor="start" x="185.8382" y="-117.5" font-family="Helvetica,sans-Serif" font-size="10.00" fill="#000000">+ GPUgeneric()</text>
<text text-anchor="start" x="185.8382" y="-106.5" font-family="Helvetica,sans-Serif" font-size="10.00" fill="#000000">+ GPUdi()</text>
<text text-anchor="start" x="185.8382" y="-95.5" font-family="Helvetica,sans-Serif" font-size="10.00" fill="#000000">+ GPUdi()</text>
<text text-anchor="start" x="185.8382" y="-84.5" font-family="Helvetica,sans-Serif" font-size="10.00" fill="#000000">+ GPUdi()</text>
<text text-anchor="start" x="185.8382" y="-73.5" font-family="Helvetica,sans-Serif" font-size="10.00" fill="#000000">+ GPUdi()</text>
<text text-anchor="start" x="185.8382" y="-62.5" font-family="Helvetica,sans-Serif" font-size="10.00" fill="#000000">+ GPUdii()</text>
<text text-anchor="start" x="185.8382" y="-51.5" font-family="Helvetica,sans-Serif" font-size="10.00" fill="#000000">+ GPUsharedref()</text>
<text text-anchor="start" x="185.8382" y="-40.5" font-family="Helvetica,sans-Serif" font-size="10.00" fill="#000000">+ GPUrestrict()</text>
<text text-anchor="start" x="185.8382" y="-29.5" font-family="Helvetica,sans-Serif" font-size="10.00" fill="#000000">+ GPUdii()</text>
<text text-anchor="start" x="185.8382" y="-18.5" font-family="Helvetica,sans-Serif" font-size="10.00" fill="#000000">+ GPUsharedref()</text>
<text text-anchor="start" x="185.8382" y="-7.5" font-family="Helvetica,sans-Serif" font-size="10.00" fill="#000000">+ GPUrestrict()</text>
</g>
<!-- Node3 -->
<g id="node2" class="node">
<title>Node3</title>
<g id="a_node2"><a xlink:href="../../d3/d60/classGPUCA__NAMESPACE_1_1gpu_1_1GPUKernelTemplate.html" target="_top" xlink:title="{GPUCA_NAMESPACE::gpu\l::GPUKernelTemplate\n||+ GPUconstantref()\l+ GPUhdi()\l+ GPUhdi()\l+ GPUd()\l+ GPUsharedref()\l}">
<polygon fill="none" stroke="#000000" points="69.8382,-435.5 69.8382,-547.5 212.8382,-547.5 212.8382,-435.5 69.8382,-435.5"/>
<text text-anchor="start" x="77.8382" y="-535.5" font-family="Helvetica,sans-Serif" font-size="10.00" fill="#000000">GPUCA_NAMESPACE::gpu</text>
<text text-anchor="middle" x="141.3382" y="-524.5" font-family="Helvetica,sans-Serif" font-size="10.00" fill="#000000">::GPUKernelTemplate</text>
<polyline fill="none" stroke="#000000" points="69.8382,-517.5 212.8382,-517.5 "/>
<text text-anchor="middle" x="141.3382" y="-505.5" font-family="Helvetica,sans-Serif" font-size="10.00" fill="#000000"> </text>
<polyline fill="none" stroke="#000000" points="69.8382,-498.5 212.8382,-498.5 "/>
<text text-anchor="start" x="77.8382" y="-486.5" font-family="Helvetica,sans-Serif" font-size="10.00" fill="#000000">+ GPUconstantref()</text>
<text text-anchor="start" x="77.8382" y="-475.5" font-family="Helvetica,sans-Serif" font-size="10.00" fill="#000000">+ GPUhdi()</text>
<text text-anchor="start" x="77.8382" y="-464.5" font-family="Helvetica,sans-Serif" font-size="10.00" fill="#000000">+ GPUhdi()</text>
<text text-anchor="start" x="77.8382" y="-453.5" font-family="Helvetica,sans-Serif" font-size="10.00" fill="#000000">+ GPUd()</text>
<text text-anchor="start" x="77.8382" y="-442.5" font-family="Helvetica,sans-Serif" font-size="10.00" fill="#000000">+ GPUsharedref()</text>
</a>
</g>
</g>
<!-- Node3&#45;&gt;Node2 -->
<g id="edge1" class="edge">
<title>Node3&#45;&gt;Node2</title>
<path fill="none" stroke="#191970" d="M165.3893,-425.7792C180.637,-384.114 200.9413,-328.6313 219.6261,-277.5737"/>
<polygon fill="none" stroke="#191970" points="162.0712,-424.6618 161.9213,-435.2556 168.6449,-427.0675 162.0712,-424.6618"/>
</g>
<!-- Node4 -->
<g id="node3" class="node">
<title>Node4</title>
<polygon fill="none" stroke="#bfbfbf" points="5.8382,-617.5 5.8382,-674.5 34.8382,-674.5 34.8382,-617.5 5.8382,-617.5"/>
<text text-anchor="middle" x="20.3382" y="-662.5" font-family="Helvetica,sans-Serif" font-size="10.00" fill="#000000">int</text>
<polyline fill="none" stroke="#bfbfbf" points="5.8382,-655.5 34.8382,-655.5 "/>
<text text-anchor="middle" x="20.3382" y="-643.5" font-family="Helvetica,sans-Serif" font-size="10.00" fill="#000000"> </text>
<polyline fill="none" stroke="#bfbfbf" points="5.8382,-636.5 34.8382,-636.5 "/>
<text text-anchor="middle" x="20.3382" y="-624.5" font-family="Helvetica,sans-Serif" font-size="10.00" fill="#000000"> </text>
</g>
<!-- Node4&#45;&gt;Node2 -->
<g id="edge4" class="edge">
<title>Node4&#45;&gt;Node2</title>
<path fill="none" stroke="#404040" d="M12.6691,-617.2458C3.0205,-575.5706 -9.6838,-496.631 13.3382,-435 44.5336,-351.4885 111.0934,-275.9406 168.6587,-222.0718"/>
<polygon fill="none" stroke="#404040" points="168.9991,-221.7574 170.692,-214.7478 177.8136,-213.6145 176.1206,-220.6241 168.9991,-221.7574"/>
<text text-anchor="middle" x="36.8382" y="-500" font-family="Helvetica,sans-Serif" font-size="10.00" fill="#000000"> +iThread</text>
<text text-anchor="middle" x="36.8382" y="-489" font-family="Helvetica,sans-Serif" font-size="10.00" fill="#000000">+iBlock</text>
<text text-anchor="middle" x="36.8382" y="-478" font-family="Helvetica,sans-Serif" font-size="10.00" fill="#000000">+nThreads</text>
</g>
<!-- Node4&#45;&gt;Node3 -->
<g id="edge2" class="edge">
<title>Node4&#45;&gt;Node3</title>
<path fill="none" stroke="#404040" d="M34.9337,-627.3637C48.5889,-609.9279 69.8129,-582.8278 89.7243,-557.4038"/>
<polygon fill="none" stroke="#404040" points="89.8737,-557.213 90.424,-550.0229 97.2727,-547.7655 96.7224,-554.9556 89.8737,-557.213"/>
<text text-anchor="middle" x="104.8382" y="-591" font-family="Helvetica,sans-Serif" font-size="10.00" fill="#000000"> +iThread</text>
<text text-anchor="middle" x="104.8382" y="-580" font-family="Helvetica,sans-Serif" font-size="10.00" fill="#000000">+iBlock</text>
<text text-anchor="middle" x="104.8382" y="-569" font-family="Helvetica,sans-Serif" font-size="10.00" fill="#000000">+nThreads</text>
</g>
<!-- Node5 -->
<g id="node4" class="node">
<title>Node5</title>
<polygon fill="none" stroke="#bfbfbf" points="231.3382,-463 231.3382,-520 309.3382,-520 309.3382,-463 231.3382,-463"/>
<text text-anchor="middle" x="270.3382" y="-508" font-family="Helvetica,sans-Serif" font-size="10.00" fill="#000000">const Scalar *</text>
<polyline fill="none" stroke="#bfbfbf" points="231.3382,-501 309.3382,-501 "/>
<text text-anchor="middle" x="270.3382" y="-489" font-family="Helvetica,sans-Serif" font-size="10.00" fill="#000000"> </text>
<polyline fill="none" stroke="#bfbfbf" points="231.3382,-482 309.3382,-482 "/>
<text text-anchor="middle" x="270.3382" y="-470" font-family="Helvetica,sans-Serif" font-size="10.00" fill="#000000"> </text>
</g>
<!-- Node5&#45;&gt;Node2 -->
<g id="edge3" class="edge">
<title>Node5&#45;&gt;Node2</title>
<path fill="none" stroke="#404040" d="M270.3382,-462.952C270.3382,-424.9945 270.3382,-355.0972 270.3382,-289.9197"/>
<polygon fill="none" stroke="#404040" points="270.3383,-289.8133 266.3383,-283.8133 270.3382,-277.8133 274.3383,-283.8133 270.3383,-289.8133"/>
<text text-anchor="middle" x="281.8382" y="-354" font-family="Helvetica,sans-Serif" font-size="10.00" fill="#000000"> +src</text>
</g>
<!-- Node6 -->
<g id="node5" class="node">
<title>Node6</title>
<polygon fill="none" stroke="#bfbfbf" points="327.3382,-463 327.3382,-520 383.3382,-520 383.3382,-463 327.3382,-463"/>
<text text-anchor="middle" x="355.3382" y="-508" font-family="Helvetica,sans-Serif" font-size="10.00" fill="#000000">unsigned</text>
<polyline fill="none" stroke="#bfbfbf" points="327.3382,-501 383.3382,-501 "/>
<text text-anchor="middle" x="355.3382" y="-489" font-family="Helvetica,sans-Serif" font-size="10.00" fill="#000000"> </text>
<polyline fill="none" stroke="#bfbfbf" points="327.3382,-482 383.3382,-482 "/>
<text text-anchor="middle" x="355.3382" y="-470" font-family="Helvetica,sans-Serif" font-size="10.00" fill="#000000"> </text>
</g>
<!-- Node6&#45;&gt;Node2 -->
<g id="edge5" class="edge">
<title>Node6&#45;&gt;Node2</title>
<path fill="none" stroke="#404040" d="M348.4543,-462.952C339.2825,-424.9158 322.3768,-354.8071 306.6324,-289.5141"/>
<polygon fill="none" stroke="#404040" points="306.624,-289.4789 301.3289,-284.5838 303.811,-277.8133 309.106,-282.7084 306.624,-289.4789"/>
<text text-anchor="middle" x="359.8382" y="-365" font-family="Helvetica,sans-Serif" font-size="10.00" fill="#000000"> +iThread</text>
<text text-anchor="middle" x="359.8382" y="-354" font-family="Helvetica,sans-Serif" font-size="10.00" fill="#000000">+size</text>
<text text-anchor="middle" x="359.8382" y="-343" font-family="Helvetica,sans-Serif" font-size="10.00" fill="#000000">+nThreads</text>
</g>
<!-- Node7 -->
<g id="node6" class="node">
<title>Node7</title>
<polygon fill="none" stroke="#bfbfbf" points="405.8382,-463 405.8382,-520 434.8382,-520 434.8382,-463 405.8382,-463"/>
<text text-anchor="middle" x="420.3382" y="-508" font-family="Helvetica,sans-Serif" font-size="10.00" fill="#000000">T</text>
<polyline fill="none" stroke="#bfbfbf" points="405.8382,-501 434.8382,-501 "/>
<text text-anchor="middle" x="420.3382" y="-489" font-family="Helvetica,sans-Serif" font-size="10.00" fill="#000000"> </text>
<polyline fill="none" stroke="#bfbfbf" points="405.8382,-482 434.8382,-482 "/>
<text text-anchor="middle" x="420.3382" y="-470" font-family="Helvetica,sans-Serif" font-size="10.00" fill="#000000"> </text>
</g>
<!-- Node7&#45;&gt;Node2 -->
<g id="edge6" class="edge">
<title>Node7&#45;&gt;Node2</title>
<path fill="none" stroke="#404040" d="M419.6741,-462.8115C417.8517,-423.6284 411.2108,-351.8665 387.3382,-296 382.276,-284.1534 376.1484,-272.3735 369.3819,-260.9002"/>
<polygon fill="none" stroke="#404040" points="369.2573,-260.6963 362.7156,-257.6621 363.0003,-250.4566 369.542,-253.4908 369.2573,-260.6963"/>
<text text-anchor="middle" x="436.3382" y="-409" font-family="Helvetica,sans-Serif" font-size="10.00" fill="#000000"> +iThread</text>
<text text-anchor="middle" x="436.3382" y="-398" font-family="Helvetica,sans-Serif" font-size="10.00" fill="#000000">+iBlock</text>
<text text-anchor="middle" x="436.3382" y="-387" font-family="Helvetica,sans-Serif" font-size="10.00" fill="#000000">+iWarp</text>
<text text-anchor="middle" x="436.3382" y="-376" font-family="Helvetica,sans-Serif" font-size="10.00" fill="#000000">+nLanes</text>
<text text-anchor="middle" x="436.3382" y="-365" font-family="Helvetica,sans-Serif" font-size="10.00" fill="#000000">+start</text>
<text text-anchor="middle" x="436.3382" y="-354" font-family="Helvetica,sans-Serif" font-size="10.00" fill="#000000">+nums</text>
<text text-anchor="middle" x="436.3382" y="-343" font-family="Helvetica,sans-Serif" font-size="10.00" fill="#000000">+nBlocks</text>
<text text-anchor="middle" x="436.3382" y="-332" font-family="Helvetica,sans-Serif" font-size="10.00" fill="#000000">+iLane</text>
<text text-anchor="middle" x="436.3382" y="-321" font-family="Helvetica,sans-Serif" font-size="10.00" fill="#000000">+src</text>
<text text-anchor="middle" x="436.3382" y="-310" font-family="Helvetica,sans-Serif" font-size="10.00" fill="#000000">+nTracks</text>
<text text-anchor="middle" x="436.3382" y="-299" font-family="Helvetica,sans-Serif" font-size="10.00" fill="#000000">...</text>
</g>
</g>
</svg>
        <g id="navigator" transform="translate(0 0)" fill="#404254">
                <rect fill="#f2f5e9" fill-opacity="0.5" stroke="#606060" stroke-width=".5" x="0" y="0" width="60" height="60"/>
                <use id="zoomplus" xlink:href="#zoomPlus" x="17" y="9" onmousedown="handleZoom(evt,'in')"/>
                <use id="zoomminus" xlink:href="#zoomMin" x="42" y="9" onmousedown="handleZoom(evt,'out')"/>
                <use id="reset" xlink:href="#resetDef" x="30" y="36" onmousedown="handleReset()"/>
                <g id="arrowUp" xlink:href="#dirArrow" transform="translate(30 24)" onmousedown="handlePan(0,-1)">
                  <use xlink:href="#rim" fill="#404040">
                        <set attributeName="fill" to="#808080" begin="arrowUp.mouseover" end="arrowUp.mouseout"/>
                  </use>
                  <path fill="none" stroke="white" stroke-width="1.5" d="M0,-3.0v7 M-2.5,-0.5L0,-3.0L2.5,-0.5"/>
                </g>
                <g id="arrowRight" xlink:href="#dirArrow" transform="rotate(90) translate(36 -43)" onmousedown="handlePan(1,0)">
                  <use xlink:href="#rim" fill="#404040">
                        <set attributeName="fill" to="#808080" begin="arrowRight.mouseover" end="arrowRight.mouseout"/>
                  </use>
                  <path fill="none" stroke="white" stroke-width="1.5" d="M0,-3.0v7 M-2.5,-0.5L0,-3.0L2.5,-0.5"/>
                </g>
                <g id="arrowDown" xlink:href="#dirArrow" transform="rotate(180) translate(-30 -48)" onmousedown="handlePan(0,1)">
                  <use xlink:href="#rim" fill="#404040">
                        <set attributeName="fill" to="#808080" begin="arrowDown.mouseover" end="arrowDown.mouseout"/>
                  </use>
                  <path fill="none" stroke="white" stroke-width="1.5" d="M0,-3.0v7 M-2.5,-0.5L0,-3.0L2.5,-0.5"/>
                </g>
                <g id="arrowLeft" xlink:href="#dirArrow" transform="rotate(270) translate(-36 17)" onmousedown="handlePan(-1,0)">
                  <use xlink:href="#rim" fill="#404040">
                        <set attributeName="fill" to="#808080" begin="arrowLeft.mouseover" end="arrowLeft.mouseout"/>
                  </use>
                  <path fill="none" stroke="white" stroke-width="1.5" d="M0,-3.0v7 M-2.5,-0.5L0,-3.0L2.5,-0.5"/>
                </g>
        </g>
        <svg viewBox="0 0 15 15" width="100%" height="30px" preserveAspectRatio="xMaxYMin meet">
         <g id="arrow_out" transform="scale(0.3 0.3)">
          <a xlink:href="classGPUCA__NAMESPACE_1_1gpu_1_1GPUTPCCompressionGatherKernels__coll__graph_org.svg" target="_base">
           <rect id="button" ry="5" rx="5" y="6" x="6" height="38" width="38"
                fill="#f2f5e9" fill-opacity="0.5" stroke="#606060" stroke-width="1.0"/>
           <path id="arrow"
             d="M 11.500037,31.436501 C 11.940474,20.09759 22.043105,11.32322 32.158766,21.979434 L 37.068811,17.246167 C 37.068811,17.246167 37.088388,32 37.088388,32 L 22.160133,31.978069 C 22.160133,31.978069 26.997745,27.140456 26.997745,27.140456 C 18.528582,18.264221 13.291696,25.230495 11.500037,31.436501 z"
             style="fill:#404040;"/>
          </a>
         </g>
        </svg>
</svg>
