<?xml version="1.0" encoding="UTF-8" standalone="no"?>
<!DOCTYPE svg PUBLIC "-//W3C//DTD SVG 1.1//EN"
 "http://www.w3.org/Graphics/SVG/1.1/DTD/svg11.dtd">
<!-- Generated by graphviz version 2.40.1 (20161225.0304)
 -->
<!-- Title: o2::soa::FilteredIndexPolicy Pages: 1 -->
<svg width="157pt" height="453pt"
 viewBox="0.00 0.00 157.00 453.00" xmlns="http://www.w3.org/2000/svg" xmlns:xlink="http://www.w3.org/1999/xlink">
<g id="graph0" class="graph" transform="scale(1 1) rotate(0) translate(4 449)">
<title>o2::soa::FilteredIndexPolicy</title>
<!-- Node2 -->
<g id="node1" class="node">
<title>Node2</title>
<polygon fill="#bfbfbf" stroke="#000000" points="0,-.5 0,-244.5 138,-244.5 138,-.5 0,-.5"/>
<text text-anchor="middle" x="69" y="-232.5" font-family="Helvetica,sans-Serif" font-size="10.00" fill="#000000">o2::soa::FilteredIndexPolicy</text>
<polyline fill="none" stroke="#000000" points="0,-225.5 138,-225.5 "/>
<text text-anchor="middle" x="69" y="-213.5" font-family="Helvetica,sans-Serif" font-size="10.00" fill="#000000"> </text>
<polyline fill="none" stroke="#000000" points="0,-206.5 138,-206.5 "/>
<text text-anchor="start" x="8" y="-194.5" font-family="Helvetica,sans-Serif" font-size="10.00" fill="#000000">+ FilteredIndexPolicy()</text>
<text text-anchor="start" x="8" y="-183.5" font-family="Helvetica,sans-Serif" font-size="10.00" fill="#000000">+ FilteredIndexPolicy()</text>
<text text-anchor="start" x="8" y="-172.5" font-family="Helvetica,sans-Serif" font-size="10.00" fill="#000000">+ FilteredIndexPolicy()</text>
<text text-anchor="start" x="8" y="-161.5" font-family="Helvetica,sans-Serif" font-size="10.00" fill="#000000">+ FilteredIndexPolicy()</text>
<text text-anchor="start" x="8" y="-150.5" font-family="Helvetica,sans-Serif" font-size="10.00" fill="#000000">+ operator=()</text>
<text text-anchor="start" x="8" y="-139.5" font-family="Helvetica,sans-Serif" font-size="10.00" fill="#000000">+ operator=()</text>
<text text-anchor="start" x="8" y="-128.5" font-family="Helvetica,sans-Serif" font-size="10.00" fill="#000000">+ getIndices()</text>
<text text-anchor="start" x="8" y="-117.5" font-family="Helvetica,sans-Serif" font-size="10.00" fill="#000000">+ getOffsets()</text>
<text text-anchor="start" x="8" y="-106.5" font-family="Helvetica,sans-Serif" font-size="10.00" fill="#000000">+ limitRange()</text>
<text text-anchor="start" x="8" y="-95.5" font-family="Helvetica,sans-Serif" font-size="10.00" fill="#000000">+ setCursor()</text>
<text text-anchor="start" x="8" y="-84.5" font-family="Helvetica,sans-Serif" font-size="10.00" fill="#000000">+ moveByIndex()</text>
<text text-anchor="start" x="8" y="-73.5" font-family="Helvetica,sans-Serif" font-size="10.00" fill="#000000">+ operator!=()</text>
<text text-anchor="start" x="8" y="-62.5" font-family="Helvetica,sans-Serif" font-size="10.00" fill="#000000">+ operator==()</text>
<text text-anchor="start" x="8" y="-51.5" font-family="Helvetica,sans-Serif" font-size="10.00" fill="#000000">+ operator!=()</text>
<text text-anchor="start" x="8" y="-40.5" font-family="Helvetica,sans-Serif" font-size="10.00" fill="#000000">+ operator==()</text>
<text text-anchor="start" x="8" y="-29.5" font-family="Helvetica,sans-Serif" font-size="10.00" fill="#000000">+ moveToEnd()</text>
<text text-anchor="start" x="8" y="-18.5" font-family="Helvetica,sans-Serif" font-size="10.00" fill="#000000">+ getSelectionRow()</text>
<text text-anchor="start" x="8" y="-7.5" font-family="Helvetica,sans-Serif" font-size="10.00" fill="#000000">+ size()</text>
</g>
<!-- Node3 -->
<g id="node2" class="node">
<title>Node3</title>
<g id="a_node2"><a xlink:href="../../d9/d4f/structo2_1_1soa_1_1IndexPolicyBase.html" target="_top" xlink:title="{o2::soa::IndexPolicyBase\n||}">
<polygon fill="none" stroke="#000000" points="5,-282.5 5,-339.5 133,-339.5 133,-282.5 5,-282.5"/>
<text text-anchor="middle" x="69" y="-327.5" font-family="Helvetica,sans-Serif" font-size="10.00" fill="#000000">o2::soa::IndexPolicyBase</text>
<polyline fill="none" stroke="#000000" points="5,-320.5 133,-320.5 "/>
<text text-anchor="middle" x="69" y="-308.5" font-family="Helvetica,sans-Serif" font-size="10.00" fill="#000000"> </text>
<polyline fill="none" stroke="#000000" points="5,-301.5 133,-301.5 "/>
<text text-anchor="middle" x="69" y="-289.5" font-family="Helvetica,sans-Serif" font-size="10.00" fill="#000000"> </text>
</a>
</g>
</g>
<!-- Node3&#45;&gt;Node2 -->
<g id="edge1" class="edge">
<title>Node3&#45;&gt;Node2</title>
<path fill="none" stroke="#191970" d="M69,-272.2731C69,-263.8885 69,-254.5928 69,-244.8567"/>
<polygon fill="none" stroke="#191970" points="65.5001,-272.3709 69,-282.3709 72.5001,-272.3709 65.5001,-272.3709"/>
</g>
<!-- Node4 -->
<g id="node3" class="node">
<title>Node4</title>
<g id="a_node3"><a xlink:href="../../d6/d30/classuint64__t.html" target="_top" xlink:title="{uint64_t\n||}">
<polygon fill="none" stroke="#000000" points="9.5,-387.5 9.5,-444.5 60.5,-444.5 60.5,-387.5 9.5,-387.5"/>
<text text-anchor="middle" x="35" y="-432.5" font-family="Helvetica,sans-Serif" font-size="10.00" fill="#000000">uint64_t</text>
<polyline fill="none" stroke="#000000" points="9.5,-425.5 60.5,-425.5 "/>
<text text-anchor="middle" x="35" y="-413.5" font-family="Helvetica,sans-Serif" font-size="10.00" fill="#000000"> </text>
<polyline fill="none" stroke="#000000" points="9.5,-406.5 60.5,-406.5 "/>
<text text-anchor="middle" x="35" y="-394.5" font-family="Helvetica,sans-Serif" font-size="10.00" fill="#000000"> </text>
</a>
</g>
</g>
<!-- Node4&#45;&gt;Node3 -->
<g id="edge2" class="edge">
<title>Node4&#45;&gt;Node3</title>
<path fill="none" stroke="#404040" d="M32.1788,-387.4208C32.1004,-377.8658 32.9763,-367.2891 36,-358 36.84,-355.4195 37.8744,-352.8564 39.0524,-350.3363"/>
<polygon fill="none" stroke="#404040" points="39.1628,-350.1369 38.5721,-342.95 44.979,-339.6405 45.5697,-346.8274 39.1628,-350.1369"/>
<text text-anchor="middle" x="58.5" y="-361" font-family="Helvetica,sans-Serif" font-size="10.00" fill="#000000"> +mOffset</text>
</g>
<!-- Node5 -->
<g id="node4" class="node">
<title>Node5</title>
<polygon fill="none" stroke="#bfbfbf" points="80,-387.5 80,-444.5 126,-444.5 126,-387.5 80,-387.5"/>
<text text-anchor="middle" x="103" y="-432.5" font-family="Helvetica,sans-Serif" font-size="10.00" fill="#000000">int64_t</text>
<polyline fill="none" stroke="#bfbfbf" points="80,-425.5 126,-425.5 "/>
<text text-anchor="middle" x="103" y="-413.5" font-family="Helvetica,sans-Serif" font-size="10.00" fill="#000000"> </text>
<polyline fill="none" stroke="#bfbfbf" points="80,-406.5 126,-406.5 "/>
<text text-anchor="middle" x="103" y="-394.5" font-family="Helvetica,sans-Serif" font-size="10.00" fill="#000000"> </text>
</g>
<!-- Node5&#45;&gt;Node3 -->
<g id="edge3" class="edge">
<title>Node5&#45;&gt;Node3</title>
<path fill="none" stroke="#404040" d="M93.7094,-387.3083C90.1113,-376.1966 85.9286,-363.2796 82.0389,-351.2673"/>
<polygon fill="none" stroke="#404040" points="81.9762,-351.0734 76.3224,-346.5975 78.2794,-339.657 83.9333,-344.133 81.9762,-351.0734"/>
<text text-anchor="middle" x="118" y="-361" font-family="Helvetica,sans-Serif" font-size="10.00" fill="#000000"> +mRowIndex</text>
</g>
</g>
</svg>
