<?xml version="1.0" encoding="UTF-8" standalone="no"?>
<!DOCTYPE svg PUBLIC "-//W3C//DTD SVG 1.1//EN"
 "http://www.w3.org/Graphics/SVG/1.1/DTD/svg11.dtd">
<!-- Generated by graphviz version 2.40.1 (20161225.0304)
 -->
<!-- Title: /home/runner/work/AliceO2/AliceO2/Framework/Core/src/DataRelayerHelpers.h Pages: 1 -->
<svg width="2966pt" height="419pt"
 viewBox="0.00 0.00 2965.50 419.00" xmlns="http://www.w3.org/2000/svg" xmlns:xlink="http://www.w3.org/1999/xlink">
<g id="graph0" class="graph" transform="scale(1 1) rotate(0) translate(4 415)">
<title>/home/runner/work/AliceO2/AliceO2/Framework/Core/src/DataRelayerHelpers.h</title>
<!-- Node0 -->
<g id="node1" class="node">
<title>Node0</title>
<polygon fill="#bfbfbf" stroke="#000000" points="2056,-369.5 2056,-410.5 2191,-410.5 2191,-369.5 2056,-369.5"/>
<text text-anchor="start" x="2064" y="-398.5" font-family="Helvetica,sans-Serif" font-size="10.00" fill="#000000">/home/runner/work/AliceO2</text>
<text text-anchor="start" x="2064" y="-387.5" font-family="Helvetica,sans-Serif" font-size="10.00" fill="#000000">/AliceO2/Framework/Core</text>
<text text-anchor="middle" x="2123.5" y="-376.5" font-family="Helvetica,sans-Serif" font-size="10.00" fill="#000000">/src/DataRelayerHelpers.h</text>
</g>
<!-- Node1 -->
<g id="node2" class="node">
<title>Node1</title>
<g id="a_node2"><a xlink:href="../../d5/d19/InputRoute_8h.html" target="_top" xlink:title="Framework/InputRoute.h">
<polygon fill="none" stroke="#000000" points="2726,-313.5 2726,-332.5 2851,-332.5 2851,-313.5 2726,-313.5"/>
<text text-anchor="middle" x="2788.5" y="-320.5" font-family="Helvetica,sans-Serif" font-size="10.00" fill="#000000">Framework/InputRoute.h</text>
</a>
</g>
</g>
<!-- Node0&#45;&gt;Node1 -->
<g id="edge1" class="edge">
<title>Node0&#45;&gt;Node1</title>
<path fill="none" stroke="#191970" d="M2191.2321,-383.1759C2317.0939,-370.495 2585.9872,-343.4035 2715.6317,-330.3416"/>
<polygon fill="#191970" stroke="#191970" points="2716.2538,-333.7968 2725.8525,-329.3119 2715.552,-326.832 2716.2538,-333.7968"/>
</g>
<!-- Node32 -->
<g id="node33" class="node">
<title>Node32</title>
<polygon fill="none" stroke="#bfbfbf" points="1486.5,-6 1486.5,-25 1530.5,-25 1530.5,-6 1486.5,-6"/>
<text text-anchor="middle" x="1508.5" y="-13" font-family="Helvetica,sans-Serif" font-size="10.00" fill="#000000">vector</text>
</g>
<!-- Node0&#45;&gt;Node32 -->
<g id="edge77" class="edge">
<title>Node0&#45;&gt;Node32</title>
<path fill="none" stroke="#191970" d="M2055.8705,-384.3604C1888.5191,-369.5003 1468.5,-326.2977 1468.5,-267 1468.5,-267 1468.5,-267 1468.5,-138.5 1468.5,-99.7932 1486.6355,-57.4455 1498.4837,-33.9092"/>
<polygon fill="#191970" stroke="#191970" points="1501.5884,-35.5251 1503.1054,-25.0394 1495.3805,-32.2904 1501.5884,-35.5251"/>
</g>
<!-- Node2 -->
<g id="node3" class="node">
<title>Node2</title>
<g id="a_node3"><a xlink:href="../../d2/dd9/ExpirationHandler_8h.html" target="_top" xlink:title="Framework/ExpirationHandler.h">
<polygon fill="none" stroke="#000000" points="2591.5,-257.5 2591.5,-276.5 2745.5,-276.5 2745.5,-257.5 2591.5,-257.5"/>
<text text-anchor="middle" x="2668.5" y="-264.5" font-family="Helvetica,sans-Serif" font-size="10.00" fill="#000000">Framework/ExpirationHandler.h</text>
</a>
</g>
</g>
<!-- Node1&#45;&gt;Node2 -->
<g id="edge2" class="edge">
<title>Node1&#45;&gt;Node2</title>
<path fill="none" stroke="#191970" d="M2767.8713,-313.3733C2748.6081,-304.3838 2719.6514,-290.8706 2697.9581,-280.7471"/>
<polygon fill="#191970" stroke="#191970" points="2699.4015,-277.5584 2688.8595,-276.5011 2696.4413,-283.9017 2699.4015,-277.5584"/>
</g>
<!-- Node6 -->
<g id="node7" class="node">
<title>Node6</title>
<polygon fill="none" stroke="#bfbfbf" points="2870,-196 2870,-215 2929,-215 2929,-196 2870,-196"/>
<text text-anchor="middle" x="2899.5" y="-203" font-family="Helvetica,sans-Serif" font-size="10.00" fill="#000000">functional</text>
</g>
<!-- Node1&#45;&gt;Node6 -->
<g id="edge75" class="edge">
<title>Node1&#45;&gt;Node6</title>
<path fill="none" stroke="#191970" d="M2833.3309,-313.4694C2853.9532,-306.747 2876.8236,-295.5164 2890.5,-277 2901.386,-262.2614 2902.7622,-240.9858 2901.9465,-225.4762"/>
<polygon fill="#191970" stroke="#191970" points="2905.4217,-225.0376 2901.0699,-215.3778 2898.4479,-225.6431 2905.4217,-225.0376"/>
</g>
<!-- Node7 -->
<g id="node8" class="node">
<title>Node7</title>
<g id="a_node8"><a xlink:href="../../d5/d3f/InputSpec_8h.html" target="_top" xlink:title="Framework/InputSpec.h">
<polygon fill="none" stroke="#000000" points="2396,-257.5 2396,-276.5 2517,-276.5 2517,-257.5 2396,-257.5"/>
<text text-anchor="middle" x="2456.5" y="-264.5" font-family="Helvetica,sans-Serif" font-size="10.00" fill="#000000">Framework/InputSpec.h</text>
</a>
</g>
</g>
<!-- Node1&#45;&gt;Node7 -->
<g id="edge7" class="edge">
<title>Node1&#45;&gt;Node7</title>
<path fill="none" stroke="#191970" d="M2731.8044,-313.4369C2673.9109,-303.6717 2584.0872,-288.5207 2522.9034,-278.2006"/>
<polygon fill="#191970" stroke="#191970" points="2523.4046,-274.7358 2512.9618,-276.5237 2522.2403,-281.6383 2523.4046,-274.7358"/>
</g>
<!-- Node15 -->
<g id="node16" class="node">
<title>Node15</title>
<polygon fill="none" stroke="#bfbfbf" points="2627,-6 2627,-25 2668,-25 2668,-6 2627,-6"/>
<text text-anchor="middle" x="2647.5" y="-13" font-family="Helvetica,sans-Serif" font-size="10.00" fill="#000000">string</text>
</g>
<!-- Node1&#45;&gt;Node15 -->
<g id="edge74" class="edge">
<title>Node1&#45;&gt;Node15</title>
<path fill="none" stroke="#191970" d="M2830.2753,-313.4506C2880.321,-299.2472 2957.5,-267.3214 2957.5,-205.5 2957.5,-205.5 2957.5,-205.5 2957.5,-138.5 2957.5,-78.9142 2757.1201,-35.6346 2678.5639,-20.9569"/>
<polygon fill="#191970" stroke="#191970" points="2678.7889,-17.4398 2668.3213,-19.077 2677.5251,-24.3248 2678.7889,-17.4398"/>
</g>
<!-- Node48 -->
<g id="node49" class="node">
<title>Node48</title>
<polygon fill="none" stroke="#bfbfbf" points="2764,-257.5 2764,-276.5 2813,-276.5 2813,-257.5 2764,-257.5"/>
<text text-anchor="middle" x="2788.5" y="-264.5" font-family="Helvetica,sans-Serif" font-size="10.00" fill="#000000">cstddef</text>
</g>
<!-- Node1&#45;&gt;Node48 -->
<g id="edge73" class="edge">
<title>Node1&#45;&gt;Node48</title>
<path fill="none" stroke="#191970" d="M2788.5,-313.2455C2788.5,-305.9382 2788.5,-295.6944 2788.5,-286.7046"/>
<polygon fill="#191970" stroke="#191970" points="2792.0001,-286.6426 2788.5,-276.6427 2785.0001,-286.6427 2792.0001,-286.6426"/>
</g>
<!-- Node49 -->
<g id="node50" class="node">
<title>Node49</title>
<polygon fill="none" stroke="#bfbfbf" points="2831.5,-257.5 2831.5,-276.5 2881.5,-276.5 2881.5,-257.5 2831.5,-257.5"/>
<text text-anchor="middle" x="2856.5" y="-264.5" font-family="Helvetica,sans-Serif" font-size="10.00" fill="#000000">optional</text>
</g>
<!-- Node1&#45;&gt;Node49 -->
<g id="edge76" class="edge">
<title>Node1&#45;&gt;Node49</title>
<path fill="none" stroke="#191970" d="M2800.3447,-313.2455C2810.388,-304.9746 2824.9995,-292.9416 2836.8004,-283.2232"/>
<polygon fill="#191970" stroke="#191970" points="2839.2967,-285.7015 2844.791,-276.6427 2834.8467,-280.298 2839.2967,-285.7015"/>
</g>
<!-- Node3 -->
<g id="node4" class="node">
<title>Node3</title>
<g id="a_node4"><a xlink:href="../../dc/dca/Lifetime_8h.html" target="_top" xlink:title="Framework/Lifetime.h">
<polygon fill="none" stroke="#000000" points="2542,-196 2542,-215 2653,-215 2653,-196 2542,-196"/>
<text text-anchor="middle" x="2597.5" y="-203" font-family="Helvetica,sans-Serif" font-size="10.00" fill="#000000">Framework/Lifetime.h</text>
</a>
</g>
</g>
<!-- Node2&#45;&gt;Node3 -->
<g id="edge3" class="edge">
<title>Node2&#45;&gt;Node3</title>
<path fill="none" stroke="#191970" d="M2657.4063,-257.3906C2646.5285,-247.9683 2629.7252,-233.4134 2616.68,-222.1137"/>
<polygon fill="#191970" stroke="#191970" points="2618.6004,-219.1466 2608.7502,-215.2449 2614.0173,-224.4377 2618.6004,-219.1466"/>
</g>
<!-- Node4 -->
<g id="node5" class="node">
<title>Node4</title>
<g id="a_node5"><a xlink:href="../../d7/d87/RoutingIndices_8h.html" target="_top" xlink:title="Framework/RoutingIndices.h">
<polygon fill="none" stroke="#000000" points="2709.5,-196 2709.5,-215 2851.5,-215 2851.5,-196 2709.5,-196"/>
<text text-anchor="middle" x="2780.5" y="-203" font-family="Helvetica,sans-Serif" font-size="10.00" fill="#000000">Framework/RoutingIndices.h</text>
</a>
</g>
</g>
<!-- Node2&#45;&gt;Node4 -->
<g id="edge4" class="edge">
<title>Node2&#45;&gt;Node4</title>
<path fill="none" stroke="#191970" d="M2686,-257.3906C2704.2465,-247.3713 2733.0624,-231.5483 2754.0806,-220.0071"/>
<polygon fill="#191970" stroke="#191970" points="2756.042,-222.923 2763.1229,-215.0419 2752.6728,-216.7872 2756.042,-222.923"/>
</g>
<!-- Node5 -->
<g id="node6" class="node">
<title>Node5</title>
<polygon fill="none" stroke="#bfbfbf" points="2562.5,-6 2562.5,-25 2608.5,-25 2608.5,-6 2562.5,-6"/>
<text text-anchor="middle" x="2585.5" y="-13" font-family="Helvetica,sans-Serif" font-size="10.00" fill="#000000">cstdint</text>
</g>
<!-- Node2&#45;&gt;Node5 -->
<g id="edge5" class="edge">
<title>Node2&#45;&gt;Node5</title>
<path fill="none" stroke="#191970" d="M2668.6027,-257.3504C2668.542,-242.6004 2667.5609,-213.6664 2661.5,-190 2646.2617,-130.4976 2613.0833,-65.4039 2596.0516,-34.2099"/>
<polygon fill="#191970" stroke="#191970" points="2599.0376,-32.3772 2591.1324,-25.3232 2592.9133,-35.7673 2599.0376,-32.3772"/>
</g>
<!-- Node2&#45;&gt;Node6 -->
<g id="edge6" class="edge">
<title>Node2&#45;&gt;Node6</title>
<path fill="none" stroke="#191970" d="M2716.7585,-257.4415C2755.9053,-249.2105 2812.3016,-236.2653 2860.5,-221 2862.7856,-220.2761 2865.1281,-219.4822 2867.4749,-218.6482"/>
<polygon fill="#191970" stroke="#191970" points="2868.879,-221.8598 2877.0133,-215.0713 2866.421,-215.3055 2868.879,-221.8598"/>
</g>
<!-- Node7&#45;&gt;Node3 -->
<g id="edge8" class="edge">
<title>Node7&#45;&gt;Node3</title>
<path fill="none" stroke="#191970" d="M2478.5313,-257.3906C2502.1231,-247.1005 2539.7501,-230.6888 2566.3633,-219.0809"/>
<polygon fill="#191970" stroke="#191970" points="2567.8567,-222.248 2575.6235,-215.0419 2565.0581,-215.8318 2567.8567,-222.248"/>
</g>
<!-- Node8 -->
<g id="node9" class="node">
<title>Node8</title>
<g id="a_node9"><a xlink:href="../../d0/d1b/ConcreteDataMatcher_8h.html" target="_top" xlink:title="Framework/ConcreteDataMatcher.h">
<polygon fill="none" stroke="#000000" points="1535,-129 1535,-148 1708,-148 1708,-129 1535,-129"/>
<text text-anchor="middle" x="1621.5" y="-136" font-family="Helvetica,sans-Serif" font-size="10.00" fill="#000000">Framework/ConcreteDataMatcher.h</text>
</a>
</g>
</g>
<!-- Node7&#45;&gt;Node8 -->
<g id="edge9" class="edge">
<title>Node7&#45;&gt;Node8</title>
<path fill="none" stroke="#191970" d="M2395.9812,-260.8845C2320.3592,-252.9778 2187.0649,-238.1675 2073.5,-221 1930.8224,-199.4315 1764.0911,-167.1507 1678.5421,-150.0665"/>
<polygon fill="#191970" stroke="#191970" points="1679.0113,-146.591 1668.5188,-148.0601 1677.6373,-153.4549 1679.0113,-146.591"/>
</g>
<!-- Node7&#45;&gt;Node15 -->
<g id="edge70" class="edge">
<title>Node7&#45;&gt;Node15</title>
<path fill="none" stroke="#191970" d="M2465.5187,-257.4263C2483.9336,-237.9432 2524.7747,-195.0886 2532.5,-190 2569.168,-165.8471 2596.8506,-188.1088 2624.5,-154 2652.278,-119.7326 2652.2758,-64.6979 2649.8889,-35.384"/>
<polygon fill="#191970" stroke="#191970" points="2653.3463,-34.7822 2648.8716,-25.1787 2646.3808,-35.4765 2653.3463,-34.7822"/>
</g>
<!-- Node19 -->
<g id="node20" class="node">
<title>Node19</title>
<g id="a_node20"><a xlink:href="../../d3/da3/DataDescriptorMatcher_8h.html" target="_top" xlink:title="Framework/DataDescriptor\lMatcher.h">
<polygon fill="none" stroke="#000000" points="2082.5,-190.5 2082.5,-220.5 2216.5,-220.5 2216.5,-190.5 2082.5,-190.5"/>
<text text-anchor="start" x="2090.5" y="-208.5" font-family="Helvetica,sans-Serif" font-size="10.00" fill="#000000">Framework/DataDescriptor</text>
<text text-anchor="middle" x="2149.5" y="-197.5" font-family="Helvetica,sans-Serif" font-size="10.00" fill="#000000">Matcher.h</text>
</a>
</g>
</g>
<!-- Node7&#45;&gt;Node19 -->
<g id="edge21" class="edge">
<title>Node7&#45;&gt;Node19</title>
<path fill="none" stroke="#191970" d="M2408.8681,-257.4581C2360.2509,-247.7188 2284.0081,-232.4454 2226.7448,-220.9741"/>
<polygon fill="#191970" stroke="#191970" points="2227.1383,-217.4835 2216.6456,-218.951 2225.7633,-224.3471 2227.1383,-217.4835"/>
</g>
<!-- Node40 -->
<g id="node41" class="node">
<title>Node40</title>
<polygon fill="none" stroke="#bfbfbf" points="2395.5,-129 2395.5,-148 2441.5,-148 2441.5,-129 2395.5,-129"/>
<text text-anchor="middle" x="2418.5" y="-136" font-family="Helvetica,sans-Serif" font-size="10.00" fill="#000000">variant</text>
</g>
<!-- Node7&#45;&gt;Node40 -->
<g id="edge72" class="edge">
<title>Node7&#45;&gt;Node40</title>
<path fill="none" stroke="#191970" d="M2453.6438,-257.3416C2447.4268,-236.3184 2432.5644,-186.0598 2424.2972,-158.1038"/>
<polygon fill="#191970" stroke="#191970" points="2427.5815,-156.8674 2421.3893,-148.2705 2420.8689,-158.8525 2427.5815,-156.8674"/>
</g>
<!-- Node42 -->
<g id="node43" class="node">
<title>Node42</title>
<g id="a_node43"><a xlink:href="../../d0/d1c/ConfigParamSpec_8h.html" target="_top" xlink:title="Framework/ConfigParamSpec.h">
<polygon fill="none" stroke="#000000" points="2459.5,-129 2459.5,-148 2615.5,-148 2615.5,-129 2459.5,-129"/>
<text text-anchor="middle" x="2537.5" y="-136" font-family="Helvetica,sans-Serif" font-size="10.00" fill="#000000">Framework/ConfigParamSpec.h</text>
</a>
</g>
</g>
<!-- Node7&#45;&gt;Node42 -->
<g id="edge57" class="edge">
<title>Node7&#45;&gt;Node42</title>
<path fill="none" stroke="#191970" d="M2461.4175,-257.2894C2469.039,-242.4598 2484.4038,-213.4233 2499.5,-190 2506.966,-178.4158 2516.1175,-165.9676 2523.5687,-156.2119"/>
<polygon fill="#191970" stroke="#191970" points="2526.4849,-158.1623 2529.8365,-148.1116 2520.9487,-153.8786 2526.4849,-158.1623"/>
</g>
<!-- Node47 -->
<g id="node48" class="node">
<title>Node47</title>
<polygon fill="none" stroke="#bfbfbf" points="2357.5,-196 2357.5,-215 2409.5,-215 2409.5,-196 2357.5,-196"/>
<text text-anchor="middle" x="2383.5" y="-203" font-family="Helvetica,sans-Serif" font-size="10.00" fill="#000000">ostream</text>
</g>
<!-- Node7&#45;&gt;Node47 -->
<g id="edge71" class="edge">
<title>Node7&#45;&gt;Node47</title>
<path fill="none" stroke="#191970" d="M2445.0938,-257.3906C2433.8031,-247.8786 2416.3033,-233.1357 2402.8381,-221.7917"/>
<polygon fill="#191970" stroke="#191970" points="2404.9699,-219.0111 2395.0671,-215.2449 2400.4598,-224.3646 2404.9699,-219.0111"/>
</g>
<!-- Node9 -->
<g id="node10" class="node">
<title>Node9</title>
<g id="a_node10"><a xlink:href="../../dc/dcd/DataHeader_8h.html" target="_top" xlink:title="Headers/DataHeader.h">
<polygon fill="none" stroke="#000000" points="1755,-67.5 1755,-86.5 1872,-86.5 1872,-67.5 1755,-67.5"/>
<text text-anchor="middle" x="1813.5" y="-74.5" font-family="Helvetica,sans-Serif" font-size="10.00" fill="#000000">Headers/DataHeader.h</text>
</a>
</g>
</g>
<!-- Node8&#45;&gt;Node9 -->
<g id="edge10" class="edge">
<title>Node8&#45;&gt;Node9</title>
<path fill="none" stroke="#191970" d="M1651.5,-128.8906C1684.4705,-118.3298 1737.5717,-101.3208 1773.9303,-89.6747"/>
<polygon fill="#191970" stroke="#191970" points="1775.255,-92.9256 1783.7107,-86.5419 1773.1196,-86.2592 1775.255,-92.9256"/>
</g>
<!-- Node9&#45;&gt;Node5 -->
<g id="edge11" class="edge">
<title>Node9&#45;&gt;Node5</title>
<path fill="none" stroke="#191970" d="M1872.2086,-74.6146C2035.5104,-67.8008 2487.394,-47.6686 2552.5,-31 2554.4775,-30.4937 2556.4805,-29.869 2558.4712,-29.1637"/>
<polygon fill="#191970" stroke="#191970" points="2560.2564,-32.212 2568.1468,-25.1414 2557.5693,-25.7483 2560.2564,-32.212"/>
</g>
<!-- Node10 -->
<g id="node11" class="node">
<title>Node10</title>
<polygon fill="none" stroke="#bfbfbf" points="1889.5,-6 1889.5,-25 1941.5,-25 1941.5,-6 1889.5,-6"/>
<text text-anchor="middle" x="1915.5" y="-13" font-family="Helvetica,sans-Serif" font-size="10.00" fill="#000000">memory</text>
</g>
<!-- Node9&#45;&gt;Node10 -->
<g id="edge12" class="edge">
<title>Node9&#45;&gt;Node10</title>
<path fill="none" stroke="#191970" d="M1829.4375,-67.3906C1845.9051,-57.4616 1871.8258,-41.833 1890.9204,-30.3201"/>
<polygon fill="#191970" stroke="#191970" points="1892.9178,-33.2027 1899.6744,-25.0419 1889.3034,-27.2081 1892.9178,-33.2027"/>
</g>
<!-- Node11 -->
<g id="node12" class="node">
<title>Node11</title>
<polygon fill="none" stroke="#bfbfbf" points="1960,-6 1960,-25 2009,-25 2009,-6 1960,-6"/>
<text text-anchor="middle" x="1984.5" y="-13" font-family="Helvetica,sans-Serif" font-size="10.00" fill="#000000">cassert</text>
</g>
<!-- Node9&#45;&gt;Node11 -->
<g id="edge13" class="edge">
<title>Node9&#45;&gt;Node11</title>
<path fill="none" stroke="#191970" d="M1844.8456,-67.4953C1872.831,-58.769 1914.7922,-45.0901 1950.5,-31 1952.0765,-30.3779 1953.6853,-29.7214 1955.3034,-29.0439"/>
<polygon fill="#191970" stroke="#191970" points="1956.7447,-32.2338 1964.5125,-25.0288 1953.947,-25.8172 1956.7447,-32.2338"/>
</g>
<!-- Node12 -->
<g id="node13" class="node">
<title>Node12</title>
<polygon fill="none" stroke="#bfbfbf" points="1684.5,-6 1684.5,-25 1730.5,-25 1730.5,-6 1684.5,-6"/>
<text text-anchor="middle" x="1707.5" y="-13" font-family="Helvetica,sans-Serif" font-size="10.00" fill="#000000">cstring</text>
</g>
<!-- Node9&#45;&gt;Node12 -->
<g id="edge14" class="edge">
<title>Node9&#45;&gt;Node12</title>
<path fill="none" stroke="#191970" d="M1796.9375,-67.3906C1779.7463,-57.4165 1752.6418,-41.6908 1732.7734,-30.1633"/>
<polygon fill="#191970" stroke="#191970" points="1734.3523,-27.033 1723.9462,-25.0419 1730.8394,-33.0877 1734.3523,-27.033"/>
</g>
<!-- Node13 -->
<g id="node14" class="node">
<title>Node13</title>
<polygon fill="none" stroke="#bfbfbf" points="1610.5,-6 1610.5,-25 1666.5,-25 1666.5,-6 1610.5,-6"/>
<text text-anchor="middle" x="1638.5" y="-13" font-family="Helvetica,sans-Serif" font-size="10.00" fill="#000000">algorithm</text>
</g>
<!-- Node9&#45;&gt;Node13 -->
<g id="edge15" class="edge">
<title>Node9&#45;&gt;Node13</title>
<path fill="none" stroke="#191970" d="M1782.5744,-67.423C1754.4526,-58.5416 1711.9091,-44.6725 1675.5,-31 1673.6907,-30.3206 1671.8389,-29.6063 1669.9751,-28.8728"/>
<polygon fill="#191970" stroke="#191970" points="1671.2794,-25.6249 1660.6967,-25.1161 1668.6523,-32.1132 1671.2794,-25.6249"/>
</g>
<!-- Node14 -->
<g id="node15" class="node">
<title>Node14</title>
<polygon fill="none" stroke="#bfbfbf" points="1749,-6 1749,-25 1808,-25 1808,-6 1749,-6"/>
<text text-anchor="middle" x="1778.5" y="-13" font-family="Helvetica,sans-Serif" font-size="10.00" fill="#000000">stdexcept</text>
</g>
<!-- Node9&#45;&gt;Node14 -->
<g id="edge16" class="edge">
<title>Node9&#45;&gt;Node14</title>
<path fill="none" stroke="#191970" d="M1808.0313,-67.3906C1802.9754,-58.5068 1795.3228,-45.0601 1789.0746,-34.0811"/>
<polygon fill="#191970" stroke="#191970" points="1792.034,-32.2048 1784.0459,-25.2449 1785.9502,-35.6672 1792.034,-32.2048"/>
</g>
<!-- Node9&#45;&gt;Node15 -->
<g id="edge17" class="edge">
<title>Node9&#45;&gt;Node15</title>
<path fill="none" stroke="#191970" d="M1872.0848,-75.0606C2045.1187,-69.135 2546.2787,-50.4829 2617.5,-31 2619.2105,-30.5321 2620.9357,-29.9583 2622.6482,-29.3103"/>
<polygon fill="#191970" stroke="#191970" points="2624.4688,-32.3275 2632.1267,-25.0058 2621.5744,-25.9539 2624.4688,-32.3275"/>
</g>
<!-- Node16 -->
<g id="node17" class="node">
<title>Node16</title>
<polygon fill="none" stroke="#bfbfbf" points="1826,-6 1826,-25 1871,-25 1871,-6 1826,-6"/>
<text text-anchor="middle" x="1848.5" y="-13" font-family="Helvetica,sans-Serif" font-size="10.00" fill="#000000">climits</text>
</g>
<!-- Node9&#45;&gt;Node16 -->
<g id="edge18" class="edge">
<title>Node9&#45;&gt;Node16</title>
<path fill="none" stroke="#191970" d="M1818.9688,-67.3906C1824.0246,-58.5068 1831.6772,-45.0601 1837.9254,-34.0811"/>
<polygon fill="#191970" stroke="#191970" points="1841.0498,-35.6672 1842.9541,-25.2449 1834.966,-32.2048 1841.0498,-35.6672"/>
</g>
<!-- Node17 -->
<g id="node18" class="node">
<title>Node17</title>
<g id="a_node18"><a xlink:href="../../d7/df8/Types_8h.html" target="_top" xlink:title="MemoryResources/Types.h">
<polygon fill="none" stroke="#000000" points="1331,-6 1331,-25 1468,-25 1468,-6 1331,-6"/>
<text text-anchor="middle" x="1399.5" y="-13" font-family="Helvetica,sans-Serif" font-size="10.00" fill="#000000">MemoryResources/Types.h</text>
</a>
</g>
</g>
<!-- Node9&#45;&gt;Node17 -->
<g id="edge19" class="edge">
<title>Node9&#45;&gt;Node17</title>
<path fill="none" stroke="#191970" d="M1754.7649,-70.0446C1687.5718,-61.8359 1574.3268,-47.2336 1477.5,-31 1470.2918,-29.7915 1462.7294,-28.42 1455.2675,-27.0046"/>
<polygon fill="#191970" stroke="#191970" points="1455.6796,-23.5196 1445.1971,-25.0585 1454.3514,-30.3924 1455.6796,-23.5196"/>
</g>
<!-- Node18 -->
<g id="node19" class="node">
<title>Node18</title>
<polygon fill="none" stroke="#bfbfbf" points="1548.5,-6 1548.5,-25 1592.5,-25 1592.5,-6 1548.5,-6"/>
<text text-anchor="middle" x="1570.5" y="-13" font-family="Helvetica,sans-Serif" font-size="10.00" fill="#000000">cerrno</text>
</g>
<!-- Node9&#45;&gt;Node18 -->
<g id="edge20" class="edge">
<title>Node9&#45;&gt;Node18</title>
<path fill="none" stroke="#191970" d="M1754.83,-68.3283C1711.6531,-60.9772 1651.9425,-48.7672 1601.5,-31 1600.0811,-30.5002 1598.6438,-29.9503 1597.205,-29.3647"/>
<polygon fill="#191970" stroke="#191970" points="1598.4253,-26.0751 1587.872,-25.1374 1595.5371,-32.4515 1598.4253,-26.0751"/>
</g>
<!-- Node19&#45;&gt;Node5 -->
<g id="edge51" class="edge">
<title>Node19&#45;&gt;Node5</title>
<path fill="none" stroke="#191970" d="M2184.5864,-190.429C2225.0005,-173.2759 2293.5459,-144.8145 2353.5,-123 2402.2372,-105.2668 2417.2222,-108.3211 2464.5,-87 2500.4348,-70.7943 2539.2033,-46.5675 2562.9177,-30.8973"/>
<polygon fill="#191970" stroke="#191970" points="2565.1529,-33.6133 2571.5239,-25.1481 2561.2645,-27.7926 2565.1529,-33.6133"/>
</g>
<!-- Node19&#45;&gt;Node8 -->
<g id="edge22" class="edge">
<title>Node19&#45;&gt;Node8</title>
<path fill="none" stroke="#191970" d="M2082.4138,-198.3737C1997.3792,-189.1407 1846.3408,-172.0731 1717.5,-154 1708.0075,-152.6684 1698.0034,-151.1651 1688.1817,-149.6317"/>
<polygon fill="#191970" stroke="#191970" points="1688.4653,-146.1331 1678.0414,-148.0287 1687.3723,-153.0473 1688.4653,-146.1331"/>
</g>
<!-- Node19&#45;&gt;Node9 -->
<g id="edge31" class="edge">
<title>Node19&#45;&gt;Node9</title>
<path fill="none" stroke="#191970" d="M2082.3633,-198.7817C2034.9828,-192.0909 1971.0268,-179.0358 1919.5,-154 1899.8957,-144.4747 1898.9886,-136.0081 1881.5,-123 1867.0974,-112.2872 1850.4087,-100.9822 1837.1688,-92.2602"/>
<polygon fill="#191970" stroke="#191970" points="1838.9093,-89.2166 1828.6242,-86.6737 1835.0787,-95.0754 1838.9093,-89.2166"/>
</g>
<!-- Node19&#45;&gt;Node15 -->
<g id="edge53" class="edge">
<title>Node19&#45;&gt;Node15</title>
<path fill="none" stroke="#191970" d="M2213.1549,-190.425C2247.5762,-181.4451 2290.4948,-168.8967 2327.5,-154 2354.9786,-142.9384 2359.1868,-134.4639 2386.5,-123 2434.7116,-102.7647 2449.8555,-106.1714 2498.5,-87 2542.1487,-69.7975 2590.8267,-45.4001 2620.3014,-30.0172"/>
<polygon fill="#191970" stroke="#191970" points="2622.3021,-32.9197 2629.526,-25.1695 2619.0457,-26.7233 2622.3021,-32.9197"/>
</g>
<!-- Node20 -->
<g id="node21" class="node">
<title>Node20</title>
<g id="a_node21"><a xlink:href="../../d6/dc9/DataProcessingHeader_8h.html" target="_top" xlink:title="Framework/DataProcessing\lHeader.h">
<polygon fill="none" stroke="#000000" points="2080.5,-123.5 2080.5,-153.5 2218.5,-153.5 2218.5,-123.5 2080.5,-123.5"/>
<text text-anchor="start" x="2088.5" y="-141.5" font-family="Helvetica,sans-Serif" font-size="10.00" fill="#000000">Framework/DataProcessing</text>
<text text-anchor="middle" x="2149.5" y="-130.5" font-family="Helvetica,sans-Serif" font-size="10.00" fill="#000000">Header.h</text>
</a>
</g>
</g>
<!-- Node19&#45;&gt;Node20 -->
<g id="edge23" class="edge">
<title>Node19&#45;&gt;Node20</title>
<path fill="none" stroke="#191970" d="M2149.5,-190.2967C2149.5,-182.5013 2149.5,-172.7991 2149.5,-163.9064"/>
<polygon fill="#191970" stroke="#191970" points="2153.0001,-163.6431 2149.5,-153.6432 2146.0001,-163.6432 2153.0001,-163.6431"/>
</g>
<!-- Node23 -->
<g id="node24" class="node">
<title>Node23</title>
<g id="a_node24"><a xlink:href="../../d1/d76/RuntimeError_8h.html" target="_top" xlink:title="Framework/RuntimeError.h">
<polygon fill="none" stroke="#000000" points="2107.5,-6 2107.5,-25 2241.5,-25 2241.5,-6 2107.5,-6"/>
<text text-anchor="middle" x="2174.5" y="-13" font-family="Helvetica,sans-Serif" font-size="10.00" fill="#000000">Framework/RuntimeError.h</text>
</a>
</g>
</g>
<!-- Node19&#45;&gt;Node23 -->
<g id="edge30" class="edge">
<title>Node19&#45;&gt;Node23</title>
<path fill="none" stroke="#191970" d="M2187.1912,-190.3598C2202.5961,-182.0741 2218.8118,-170.1476 2227.5,-154 2249.7351,-112.6747 2213.4387,-59.9843 2190.6882,-33.0627"/>
<polygon fill="#191970" stroke="#191970" points="2193.0898,-30.4925 2183.869,-25.2745 2187.8233,-35.1037 2193.0898,-30.4925"/>
</g>
<!-- Node24 -->
<g id="node25" class="node">
<title>Node24</title>
<g id="a_node25"><a xlink:href="../../d4/d00/Headers_2include_2Headers_2Stack_8h.html" target="_top" xlink:title="Headers/Stack.h">
<polygon fill="none" stroke="#000000" points="1726.5,-129 1726.5,-148 1816.5,-148 1816.5,-129 1726.5,-129"/>
<text text-anchor="middle" x="1771.5" y="-136" font-family="Helvetica,sans-Serif" font-size="10.00" fill="#000000">Headers/Stack.h</text>
</a>
</g>
</g>
<!-- Node19&#45;&gt;Node24 -->
<g id="edge32" class="edge">
<title>Node19&#45;&gt;Node24</title>
<path fill="none" stroke="#191970" d="M2082.3445,-197.2569C2016.5035,-188.6051 1913.4886,-173.5445 1825.5,-154 1821.0963,-153.0218 1816.5213,-151.8912 1811.9805,-150.6951"/>
<polygon fill="#191970" stroke="#191970" points="1812.7443,-147.2754 1802.1746,-148.0059 1810.8928,-154.0261 1812.7443,-147.2754"/>
</g>
<!-- Node19&#45;&gt;Node32 -->
<g id="edge55" class="edge">
<title>Node19&#45;&gt;Node32</title>
<path fill="none" stroke="#191970" d="M2082.3512,-204.6552C1929.3563,-202.074 1565.0071,-191.9657 1525.5,-154 1493.4527,-123.2031 1498.6088,-65.4121 1504.103,-35.1371"/>
<polygon fill="#191970" stroke="#191970" points="1507.5352,-35.8226 1506.0743,-25.329 1500.6724,-34.4433 1507.5352,-35.8226"/>
</g>
<!-- Node38 -->
<g id="node39" class="node">
<title>Node38</title>
<polygon fill="none" stroke="#bfbfbf" points="1834.5,-129 1834.5,-148 1872.5,-148 1872.5,-129 1834.5,-129"/>
<text text-anchor="middle" x="1853.5" y="-136" font-family="Helvetica,sans-Serif" font-size="10.00" fill="#000000">array</text>
</g>
<!-- Node19&#45;&gt;Node38 -->
<g id="edge50" class="edge">
<title>Node19&#45;&gt;Node38</title>
<path fill="none" stroke="#191970" d="M2082.4173,-197.0096C2028.5723,-189.0941 1951.5029,-175.2705 1886.5,-154 1884.6501,-153.3947 1882.7686,-152.7112 1880.8896,-151.9769"/>
<polygon fill="#191970" stroke="#191970" points="1882.244,-148.7495 1871.6749,-148.0108 1879.4765,-155.1792 1882.244,-148.7495"/>
</g>
<!-- Node39 -->
<g id="node40" class="node">
<title>Node39</title>
<polygon fill="none" stroke="#bfbfbf" points="2260,-6 2260,-25 2305,-25 2305,-6 2260,-6"/>
<text text-anchor="middle" x="2282.5" y="-13" font-family="Helvetica,sans-Serif" font-size="10.00" fill="#000000">iosfwd</text>
</g>
<!-- Node19&#45;&gt;Node39 -->
<g id="edge52" class="edge">
<title>Node19&#45;&gt;Node39</title>
<path fill="none" stroke="#191970" d="M2194.4632,-190.4912C2212.6883,-182.3272 2232.4675,-170.459 2245.5,-154 2273.461,-118.6875 2280.3798,-64.0853 2282.0336,-35.1147"/>
<polygon fill="#191970" stroke="#191970" points="2285.5341,-35.1739 2282.4508,-25.0377 2278.54,-34.8843 2285.5341,-35.1739"/>
</g>
<!-- Node19&#45;&gt;Node40 -->
<g id="edge54" class="edge">
<title>Node19&#45;&gt;Node40</title>
<path fill="none" stroke="#191970" d="M2216.5862,-193.8929C2263.3716,-185.0039 2326.9407,-171.331 2381.5,-154 2383.6572,-153.3147 2385.8631,-152.5537 2388.0704,-151.7471"/>
<polygon fill="#191970" stroke="#191970" points="2389.5744,-154.917 2397.6111,-148.0132 2387.0233,-148.3984 2389.5744,-154.917"/>
</g>
<!-- Node41 -->
<g id="node42" class="node">
<title>Node41</title>
<polygon fill="none" stroke="#bfbfbf" points="1928.5,-129 1928.5,-148 2062.5,-148 2062.5,-129 1928.5,-129"/>
<text text-anchor="middle" x="1995.5" y="-136" font-family="Helvetica,sans-Serif" font-size="10.00" fill="#000000">DataDescriptorMatcher.inc</text>
</g>
<!-- Node19&#45;&gt;Node41 -->
<g id="edge56" class="edge">
<title>Node19&#45;&gt;Node41</title>
<path fill="none" stroke="#191970" d="M2114.9394,-190.4639C2088.5182,-178.969 2052.4021,-163.2561 2026.8209,-152.1266"/>
<polygon fill="#191970" stroke="#191970" points="2028.1408,-148.884 2017.5747,-148.1039 2025.3481,-155.3028 2028.1408,-148.884"/>
</g>
<!-- Node20&#45;&gt;Node5 -->
<g id="edge25" class="edge">
<title>Node20&#45;&gt;Node5</title>
<path fill="none" stroke="#191970" d="M2218.5725,-130.5262C2275.7378,-122.7983 2358.6043,-108.9725 2428.5,-87 2448.9923,-80.558 2452.9277,-75.852 2472.5,-67 2508.0253,-50.9329 2517.0757,-47.2885 2552.5,-31 2553.6645,-30.4645 2554.8513,-29.9168 2556.0496,-29.3621"/>
<polygon fill="#191970" stroke="#191970" points="2557.6941,-32.4572 2565.2799,-25.0608 2554.7373,-26.1122 2557.6941,-32.4572"/>
</g>
<!-- Node20&#45;&gt;Node9 -->
<g id="edge24" class="edge">
<title>Node20&#45;&gt;Node9</title>
<path fill="none" stroke="#191970" d="M2080.1912,-124.6534C2077.2558,-124.0903 2074.3492,-123.537 2071.5,-123 2006.0058,-110.6552 1930.9899,-97.3766 1878.793,-88.2749"/>
<polygon fill="#191970" stroke="#191970" points="1879.1196,-84.7792 1868.6674,-86.5117 1877.9187,-91.6754 1879.1196,-84.7792"/>
</g>
<!-- Node20&#45;&gt;Node10 -->
<g id="edge27" class="edge">
<title>Node20&#45;&gt;Node10</title>
<path fill="none" stroke="#191970" d="M2120.807,-123.4178C2075.3278,-99.5121 1987.2893,-53.2354 1942.7375,-29.8171"/>
<polygon fill="#191970" stroke="#191970" points="1944.147,-26.604 1933.6669,-25.0493 1940.89,-32.8002 1944.147,-26.604"/>
</g>
<!-- Node20&#45;&gt;Node11 -->
<g id="edge28" class="edge">
<title>Node20&#45;&gt;Node11</title>
<path fill="none" stroke="#191970" d="M2129.2678,-123.4178C2097.8042,-99.9631 2037.4526,-54.9737 2005.5165,-31.1668"/>
<polygon fill="#191970" stroke="#191970" points="2007.4193,-28.2198 1997.31,-25.0493 2003.2356,-33.8321 2007.4193,-28.2198"/>
</g>
<!-- Node21 -->
<g id="node22" class="node">
<title>Node21</title>
<polygon fill="none" stroke="#bfbfbf" points="2098,-67.5 2098,-86.5 2141,-86.5 2141,-67.5 2098,-67.5"/>
<text text-anchor="middle" x="2119.5" y="-74.5" font-family="Helvetica,sans-Serif" font-size="10.00" fill="#000000">cstdio</text>
</g>
<!-- Node20&#45;&gt;Node21 -->
<g id="edge26" class="edge">
<title>Node20&#45;&gt;Node21</title>
<path fill="none" stroke="#191970" d="M2142.0843,-123.2977C2138.0501,-115.0277 2133.0227,-104.7215 2128.736,-95.9339"/>
<polygon fill="#191970" stroke="#191970" points="2131.8334,-94.3001 2124.3034,-86.8469 2125.542,-97.3691 2131.8334,-94.3001"/>
</g>
<!-- Node22 -->
<g id="node23" class="node">
<title>Node22</title>
<polygon fill="none" stroke="#bfbfbf" points="2159.5,-67.5 2159.5,-86.5 2205.5,-86.5 2205.5,-67.5 2159.5,-67.5"/>
<text text-anchor="middle" x="2182.5" y="-74.5" font-family="Helvetica,sans-Serif" font-size="10.00" fill="#000000">chrono</text>
</g>
<!-- Node20&#45;&gt;Node22 -->
<g id="edge29" class="edge">
<title>Node20&#45;&gt;Node22</title>
<path fill="none" stroke="#191970" d="M2157.6573,-123.2977C2162.0949,-115.0277 2167.625,-104.7215 2172.3404,-95.9339"/>
<polygon fill="#191970" stroke="#191970" points="2175.5721,-97.3134 2177.2163,-86.8469 2169.404,-94.0037 2175.5721,-97.3134"/>
</g>
<!-- Node24&#45;&gt;Node9 -->
<g id="edge49" class="edge">
<title>Node24&#45;&gt;Node9</title>
<path fill="none" stroke="#191970" d="M1778.0625,-128.8906C1784.1908,-119.917 1793.4985,-106.2879 1801.0372,-95.2491"/>
<polygon fill="#191970" stroke="#191970" points="1804.0956,-96.9768 1806.845,-86.7449 1798.315,-93.029 1804.0956,-96.9768"/>
</g>
<!-- Node25 -->
<g id="node26" class="node">
<title>Node25</title>
<g id="a_node26"><a xlink:href="../../dc/d03/MemoryResources_8h.html" target="_top" xlink:title="MemoryResources/MemoryResources.h">
<polygon fill="none" stroke="#000000" points="1043,-67.5 1043,-86.5 1236,-86.5 1236,-67.5 1043,-67.5"/>
<text text-anchor="middle" x="1139.5" y="-74.5" font-family="Helvetica,sans-Serif" font-size="10.00" fill="#000000">MemoryResources/MemoryResources.h</text>
</a>
</g>
</g>
<!-- Node24&#45;&gt;Node25 -->
<g id="edge33" class="edge">
<title>Node24&#45;&gt;Node25</title>
<path fill="none" stroke="#191970" d="M1741.7745,-128.9804C1733.6525,-126.6937 1724.8005,-124.4858 1716.5,-123 1554.2242,-93.9526 1362.9841,-83.2436 1246.539,-79.2981"/>
<polygon fill="#191970" stroke="#191970" points="1246.3123,-75.7889 1236.2029,-78.959 1246.0828,-82.7851 1246.3123,-75.7889"/>
</g>
<!-- Node25&#45;&gt;Node12 -->
<g id="edge38" class="edge">
<title>Node25&#45;&gt;Node12</title>
<path fill="none" stroke="#191970" d="M1236.134,-72.929C1367.5249,-66.669 1595.3509,-53.0388 1675.5,-31 1677.4195,-30.4722 1679.3633,-29.8314 1681.2947,-29.1144"/>
<polygon fill="#191970" stroke="#191970" points="1682.884,-32.2406 1690.6794,-25.0655 1680.111,-25.8133 1682.884,-32.2406"/>
</g>
<!-- Node25&#45;&gt;Node15 -->
<g id="edge39" class="edge">
<title>Node25&#45;&gt;Node15</title>
<path fill="none" stroke="#191970" d="M1236.2274,-75.1669C1554.2002,-68.9867 2550.7392,-48.3317 2617.5,-31 2619.2165,-30.5544 2620.9462,-29.9977 2622.662,-29.3623"/>
<polygon fill="#191970" stroke="#191970" points="2624.4683,-32.3874 2632.1491,-25.0897 2621.5938,-26.0049 2624.4683,-32.3874"/>
</g>
<!-- Node25&#45;&gt;Node17 -->
<g id="edge48" class="edge">
<title>Node25&#45;&gt;Node17</title>
<path fill="none" stroke="#191970" d="M1179.8397,-67.4581C1225.4768,-56.6632 1299.857,-39.0694 1349.234,-27.3899"/>
<polygon fill="#191970" stroke="#191970" points="1350.1398,-30.7722 1359.0656,-25.0643 1348.5285,-23.9602 1350.1398,-30.7722"/>
</g>
<!-- Node26 -->
<g id="node27" class="node">
<title>Node26</title>
<polygon fill="none" stroke="#bfbfbf" points="593.5,-.5 593.5,-30.5 693.5,-30.5 693.5,-.5 593.5,-.5"/>
<text text-anchor="start" x="601.5" y="-18.5" font-family="Helvetica,sans-Serif" font-size="10.00" fill="#000000">boost/container/flat</text>
<text text-anchor="middle" x="643.5" y="-7.5" font-family="Helvetica,sans-Serif" font-size="10.00" fill="#000000">_map.hpp</text>
</g>
<!-- Node25&#45;&gt;Node26 -->
<g id="edge34" class="edge">
<title>Node25&#45;&gt;Node26</title>
<path fill="none" stroke="#191970" d="M1042.9941,-71.0719C956.3892,-64.7795 825.737,-52.887 703.5065,-31.0139"/>
<polygon fill="#191970" stroke="#191970" points="704.0599,-27.5572 693.5956,-29.2148 702.8096,-34.4447 704.0599,-27.5572"/>
</g>
<!-- Node27 -->
<g id="node28" class="node">
<title>Node27</title>
<polygon fill="none" stroke="#bfbfbf" points="711.5,-.5 711.5,-30.5 827.5,-30.5 827.5,-.5 711.5,-.5"/>
<text text-anchor="start" x="719.5" y="-18.5" font-family="Helvetica,sans-Serif" font-size="10.00" fill="#000000">boost/container/pmr</text>
<text text-anchor="middle" x="769.5" y="-7.5" font-family="Helvetica,sans-Serif" font-size="10.00" fill="#000000">/memory_resource.hpp</text>
</g>
<!-- Node25&#45;&gt;Node27 -->
<g id="edge35" class="edge">
<title>Node25&#45;&gt;Node27</title>
<path fill="none" stroke="#191970" d="M1066.3764,-67.4999C1007.1829,-59.4414 921.4578,-46.9417 837.5084,-31.1115"/>
<polygon fill="#191970" stroke="#191970" points="838.025,-27.6471 827.5469,-29.2156 836.7161,-34.5236 838.025,-27.6471"/>
</g>
<!-- Node28 -->
<g id="node29" class="node">
<title>Node28</title>
<polygon fill="none" stroke="#bfbfbf" points="845.5,-.5 845.5,-30.5 1001.5,-30.5 1001.5,-.5 845.5,-.5"/>
<text text-anchor="start" x="853.5" y="-18.5" font-family="Helvetica,sans-Serif" font-size="10.00" fill="#000000">boost/container/pmr</text>
<text text-anchor="middle" x="923.5" y="-7.5" font-family="Helvetica,sans-Serif" font-size="10.00" fill="#000000">/monotonic_buffer_resource.hpp</text>
</g>
<!-- Node25&#45;&gt;Node28 -->
<g id="edge36" class="edge">
<title>Node25&#45;&gt;Node28</title>
<path fill="none" stroke="#191970" d="M1105.75,-67.3906C1073.8103,-58.2967 1025.078,-44.4215 986.0396,-33.3064"/>
<polygon fill="#191970" stroke="#191970" points="986.9158,-29.9168 976.3395,-30.5446 984.9988,-36.6493 986.9158,-29.9168"/>
</g>
<!-- Node29 -->
<g id="node30" class="node">
<title>Node29</title>
<polygon fill="none" stroke="#bfbfbf" points="1020,-.5 1020,-30.5 1153,-30.5 1153,-.5 1020,-.5"/>
<text text-anchor="start" x="1028" y="-18.5" font-family="Helvetica,sans-Serif" font-size="10.00" fill="#000000">boost/container/pmr</text>
<text text-anchor="middle" x="1086.5" y="-7.5" font-family="Helvetica,sans-Serif" font-size="10.00" fill="#000000">/polymorphic_allocator.hpp</text>
</g>
<!-- Node25&#45;&gt;Node29 -->
<g id="edge37" class="edge">
<title>Node25&#45;&gt;Node29</title>
<path fill="none" stroke="#191970" d="M1131.2188,-67.3906C1124.5108,-59.6068 1114.7841,-48.3202 1106.1141,-38.2597"/>
<polygon fill="#191970" stroke="#191970" points="1108.6448,-35.8349 1099.4653,-30.5446 1103.3422,-40.4046 1108.6448,-35.8349"/>
</g>
<!-- Node30 -->
<g id="node31" class="node">
<title>Node30</title>
<polygon fill="none" stroke="#bfbfbf" points="2027.5,-6 2027.5,-25 2089.5,-25 2089.5,-6 2027.5,-6"/>
<text text-anchor="middle" x="2058.5" y="-13" font-family="Helvetica,sans-Serif" font-size="10.00" fill="#000000">type_traits</text>
</g>
<!-- Node25&#45;&gt;Node30 -->
<g id="edge40" class="edge">
<title>Node25&#45;&gt;Node30</title>
<path fill="none" stroke="#191970" d="M1236.33,-75.6866C1432.5362,-72.4088 1870.8232,-61.7869 2017.5,-31 2020.7024,-30.3278 2023.9858,-29.4442 2027.2325,-28.439"/>
<polygon fill="#191970" stroke="#191970" points="2028.4386,-31.7254 2036.7454,-25.1491 2026.1507,-25.1098 2028.4386,-31.7254"/>
</g>
<!-- Node31 -->
<g id="node32" class="node">
<title>Node31</title>
<polygon fill="none" stroke="#bfbfbf" points="1171.5,-6 1171.5,-25 1211.5,-25 1211.5,-6 1171.5,-6"/>
<text text-anchor="middle" x="1191.5" y="-13" font-family="Helvetica,sans-Serif" font-size="10.00" fill="#000000">utility</text>
</g>
<!-- Node25&#45;&gt;Node31 -->
<g id="edge41" class="edge">
<title>Node25&#45;&gt;Node31</title>
<path fill="none" stroke="#191970" d="M1147.625,-67.3906C1155.3642,-58.2376 1167.1987,-44.2409 1176.6272,-33.09"/>
<polygon fill="#191970" stroke="#191970" points="1179.4765,-35.1409 1183.2604,-25.2449 1174.1311,-30.6213 1179.4765,-35.1409"/>
</g>
<!-- Node25&#45;&gt;Node32 -->
<g id="edge42" class="edge">
<title>Node25&#45;&gt;Node32</title>
<path fill="none" stroke="#191970" d="M1236.3616,-71.8907C1304.6612,-66.3396 1397.6453,-54.8205 1476.5,-31 1478.3614,-30.4377 1480.2492,-29.7791 1482.1288,-29.0564"/>
<polygon fill="#191970" stroke="#191970" points="1483.53,-32.2638 1491.2971,-25.0581 1480.7317,-25.8474 1483.53,-32.2638"/>
</g>
<!-- Node33 -->
<g id="node34" class="node">
<title>Node33</title>
<polygon fill="none" stroke="#bfbfbf" points="1230,-6 1230,-25 1313,-25 1313,-6 1230,-6"/>
<text text-anchor="middle" x="1271.5" y="-13" font-family="Helvetica,sans-Serif" font-size="10.00" fill="#000000">unordered_map</text>
</g>
<!-- Node25&#45;&gt;Node33 -->
<g id="edge43" class="edge">
<title>Node25&#45;&gt;Node33</title>
<path fill="none" stroke="#191970" d="M1160.125,-67.3906C1182.0173,-57.1908 1216.8193,-40.9763 1241.6927,-29.3875"/>
<polygon fill="#191970" stroke="#191970" points="1243.4335,-32.4377 1251.0198,-25.0419 1240.4772,-26.0926 1243.4335,-32.4377"/>
</g>
<!-- Node34 -->
<g id="node35" class="node">
<title>Node34</title>
<polygon fill="none" stroke="#bfbfbf" points="0,-6 0,-25 97,-25 97,-6 0,-6"/>
<text text-anchor="middle" x="48.5" y="-13" font-family="Helvetica,sans-Serif" font-size="10.00" fill="#000000">FairMQMessage.h</text>
</g>
<!-- Node25&#45;&gt;Node34 -->
<g id="edge44" class="edge">
<title>Node25&#45;&gt;Node34</title>
<path fill="none" stroke="#191970" d="M1042.7723,-75.4254C821.5975,-71.3823 284.2582,-58.9286 105.5,-31 99.9906,-30.1392 94.25,-28.9448 88.6251,-27.5974"/>
<polygon fill="#191970" stroke="#191970" points="89.2566,-24.146 78.7001,-25.0457 87.5136,-30.9255 89.2566,-24.146"/>
</g>
<!-- Node35 -->
<g id="node36" class="node">
<title>Node35</title>
<polygon fill="none" stroke="#bfbfbf" points="115,-6 115,-25 246,-25 246,-6 115,-6"/>
<text text-anchor="middle" x="180.5" y="-13" font-family="Helvetica,sans-Serif" font-size="10.00" fill="#000000">FairMQTransportFactory.h</text>
</g>
<!-- Node25&#45;&gt;Node35 -->
<g id="edge45" class="edge">
<title>Node25&#45;&gt;Node35</title>
<path fill="none" stroke="#191970" d="M1042.9687,-73.8694C846.1628,-67.1767 404.4962,-50.4885 254.5,-31 246.629,-29.9774 238.3477,-28.573 230.289,-27.0244"/>
<polygon fill="#191970" stroke="#191970" points="230.7421,-23.5454 220.248,-25.0034 229.3608,-30.4078 230.7421,-23.5454"/>
</g>
<!-- Node36 -->
<g id="node37" class="node">
<title>Node36</title>
<polygon fill="none" stroke="#bfbfbf" points="264,-6 264,-25 401,-25 401,-6 264,-6"/>
<text text-anchor="middle" x="332.5" y="-13" font-family="Helvetica,sans-Serif" font-size="10.00" fill="#000000">fairmq/MemoryResources.h</text>
</g>
<!-- Node25&#45;&gt;Node36 -->
<g id="edge46" class="edge">
<title>Node25&#45;&gt;Node36</title>
<path fill="none" stroke="#191970" d="M1042.9964,-74.9963C903.0664,-71.1662 635.9084,-60.3752 410.5,-31 402.3241,-29.9345 393.7181,-28.5227 385.3276,-26.984"/>
<polygon fill="#191970" stroke="#191970" points="385.7221,-23.4962 375.2432,-25.0591 384.4096,-30.3721 385.7221,-23.4962"/>
</g>
<!-- Node37 -->
<g id="node38" class="node">
<title>Node37</title>
<polygon fill="none" stroke="#bfbfbf" points="419.5,-6 419.5,-25 575.5,-25 575.5,-6 419.5,-6"/>
<text text-anchor="middle" x="497.5" y="-13" font-family="Helvetica,sans-Serif" font-size="10.00" fill="#000000">fairmq/MemoryResourceTools.h</text>
</g>
<!-- Node25&#45;&gt;Node37 -->
<g id="edge47" class="edge">
<title>Node25&#45;&gt;Node37</title>
<path fill="none" stroke="#191970" d="M1042.957,-71.7471C932.0089,-65.0737 744.6112,-51.8515 584.5,-31 575.4503,-29.8214 565.909,-28.3537 556.593,-26.7948"/>
<polygon fill="#191970" stroke="#191970" points="557.0553,-23.323 546.6066,-25.0769 555.8685,-30.2217 557.0553,-23.323"/>
</g>
<!-- Node42&#45;&gt;Node15 -->
<g id="edge69" class="edge">
<title>Node42&#45;&gt;Node15</title>
<path fill="none" stroke="#191970" d="M2546.1315,-128.8484C2564.6863,-108.1008 2608.5871,-59.0117 2632.0624,-32.762"/>
<polygon fill="#191970" stroke="#191970" points="2634.8513,-34.894 2638.9086,-25.1068 2629.6335,-30.2276 2634.8513,-34.894"/>
</g>
<!-- Node43 -->
<g id="node44" class="node">
<title>Node43</title>
<g id="a_node44"><a xlink:href="../../de/d56/Variant_8h.html" target="_top" xlink:title="Framework/Variant.h">
<polygon fill="none" stroke="#000000" points="2313,-67.5 2313,-86.5 2420,-86.5 2420,-67.5 2313,-67.5"/>
<text text-anchor="middle" x="2366.5" y="-74.5" font-family="Helvetica,sans-Serif" font-size="10.00" fill="#000000">Framework/Variant.h</text>
</a>
</g>
</g>
<!-- Node42&#45;&gt;Node43 -->
<g id="edge58" class="edge">
<title>Node42&#45;&gt;Node43</title>
<path fill="none" stroke="#191970" d="M2510.7813,-128.8906C2481.6679,-118.42 2434.9308,-101.6111 2402.5753,-89.9745"/>
<polygon fill="#191970" stroke="#191970" points="2403.6256,-86.6328 2393.0311,-86.5419 2401.2565,-93.2197 2403.6256,-86.6328"/>
</g>
<!-- Node43&#45;&gt;Node5 -->
<g id="edge62" class="edge">
<title>Node43&#45;&gt;Node5</title>
<path fill="none" stroke="#191970" d="M2416.2294,-67.483C2454.1454,-59.563 2507.3536,-47.0096 2552.5,-31 2554.1406,-30.4182 2555.8095,-29.7826 2557.4817,-29.1114"/>
<polygon fill="#191970" stroke="#191970" points="2559.1473,-32.2037 2566.9211,-25.0052 2556.355,-25.7847 2559.1473,-32.2037"/>
</g>
<!-- Node43&#45;&gt;Node12 -->
<g id="edge61" class="edge">
<title>Node43&#45;&gt;Node12</title>
<path fill="none" stroke="#191970" d="M2312.7868,-73.3282C2163.4433,-63.0844 1753.2867,-34.6993 1739.5,-31 1737.5772,-30.4841 1735.6311,-29.8521 1733.6979,-29.1416"/>
<polygon fill="#191970" stroke="#191970" points="1734.8787,-25.8396 1724.3092,-25.1074 1732.1152,-32.271 1734.8787,-25.8396"/>
</g>
<!-- Node43&#45;&gt;Node15 -->
<g id="edge68" class="edge">
<title>Node43&#45;&gt;Node15</title>
<path fill="none" stroke="#191970" d="M2420.0554,-71.8253C2471.6796,-65.7639 2551.4682,-53.5492 2617.5,-31 2618.9216,-30.5145 2620.3593,-29.9709 2621.7954,-29.3857"/>
<polygon fill="#191970" stroke="#191970" points="2623.4619,-32.4712 2631.0671,-25.0948 2620.5218,-26.1185 2623.4619,-32.4712"/>
</g>
<!-- Node43&#45;&gt;Node23 -->
<g id="edge59" class="edge">
<title>Node43&#45;&gt;Node23</title>
<path fill="none" stroke="#191970" d="M2336.5,-67.3906C2303.5295,-56.8298 2250.4283,-39.8208 2214.0697,-28.1747"/>
<polygon fill="#191970" stroke="#191970" points="2214.8804,-24.7592 2204.2893,-25.0419 2212.745,-31.4256 2214.8804,-24.7592"/>
</g>
<!-- Node43&#45;&gt;Node30 -->
<g id="edge60" class="edge">
<title>Node43&#45;&gt;Node30</title>
<path fill="none" stroke="#191970" d="M2312.9268,-71.004C2258.3281,-64.1508 2171.5274,-51.1979 2098.5,-31 2095.8979,-30.2803 2093.2307,-29.4537 2090.569,-28.5648"/>
<polygon fill="#191970" stroke="#191970" points="2091.6745,-25.2429 2081.08,-25.1529 2089.306,-31.8301 2091.6745,-25.2429"/>
</g>
<!-- Node43&#45;&gt;Node32 -->
<g id="edge67" class="edge">
<title>Node43&#45;&gt;Node32</title>
<path fill="none" stroke="#191970" d="M2312.6956,-73.297C2283.6242,-71.3374 2247.103,-68.9418 2214.5,-67 2064.5525,-58.0693 1684.7236,-69.394 1539.5,-31 1537.5803,-30.4925 1535.6404,-29.8582 1533.7174,-29.1384"/>
<polygon fill="#191970" stroke="#191970" points="1534.9756,-25.8677 1524.4151,-25.0159 1532.1395,-32.2675 1534.9756,-25.8677"/>
</g>
<!-- Node43&#45;&gt;Node39 -->
<g id="edge64" class="edge">
<title>Node43&#45;&gt;Node39</title>
<path fill="none" stroke="#191970" d="M2353.375,-67.3906C2340.06,-57.6421 2319.2406,-42.3994 2303.6053,-30.9521"/>
<polygon fill="#191970" stroke="#191970" points="2305.6691,-28.1253 2295.5328,-25.0419 2301.5339,-33.7734 2305.6691,-28.1253"/>
</g>
<!-- Node44 -->
<g id="node45" class="node">
<title>Node44</title>
<polygon fill="none" stroke="#bfbfbf" points="2408,-6 2408,-25 2453,-25 2453,-6 2408,-6"/>
<text text-anchor="middle" x="2430.5" y="-13" font-family="Helvetica,sans-Serif" font-size="10.00" fill="#000000">cstdlib</text>
</g>
<!-- Node43&#45;&gt;Node44 -->
<g id="edge63" class="edge">
<title>Node43&#45;&gt;Node44</title>
<path fill="none" stroke="#191970" d="M2376.5,-67.3906C2386.2119,-58.0581 2401.1639,-43.6902 2412.8741,-32.4374"/>
<polygon fill="#191970" stroke="#191970" points="2415.5736,-34.6974 2420.359,-25.2449 2410.7234,-29.65 2415.5736,-34.6974"/>
</g>
<!-- Node45 -->
<g id="node46" class="node">
<title>Node45</title>
<polygon fill="none" stroke="#bfbfbf" points="2471,-6 2471,-25 2544,-25 2544,-6 2471,-6"/>
<text text-anchor="middle" x="2507.5" y="-13" font-family="Helvetica,sans-Serif" font-size="10.00" fill="#000000">initializer_list</text>
</g>
<!-- Node43&#45;&gt;Node45 -->
<g id="edge65" class="edge">
<title>Node43&#45;&gt;Node45</title>
<path fill="none" stroke="#191970" d="M2388.5313,-67.3906C2412.1231,-57.1005 2449.7501,-40.6888 2476.3633,-29.0809"/>
<polygon fill="#191970" stroke="#191970" points="2477.8567,-32.248 2485.6235,-25.0419 2475.0581,-25.8318 2477.8567,-32.248"/>
</g>
<!-- Node46 -->
<g id="node47" class="node">
<title>Node46</title>
<polygon fill="none" stroke="#bfbfbf" points="2323.5,-6 2323.5,-25 2389.5,-25 2389.5,-6 2323.5,-6"/>
<text text-anchor="middle" x="2356.5" y="-13" font-family="Helvetica,sans-Serif" font-size="10.00" fill="#000000">string_view</text>
</g>
<!-- Node43&#45;&gt;Node46 -->
<g id="edge66" class="edge">
<title>Node43&#45;&gt;Node46</title>
<path fill="none" stroke="#191970" d="M2364.9375,-67.3906C2363.5513,-58.8657 2361.482,-46.1392 2359.7396,-35.4235"/>
<polygon fill="#191970" stroke="#191970" points="2363.1442,-34.5535 2358.0845,-25.2449 2356.2349,-35.677 2363.1442,-34.5535"/>
</g>
</g>
</svg>
