<?xml version="1.0" encoding="UTF-8" standalone="no"?>
<!DOCTYPE svg PUBLIC "-//W3C//DTD SVG 1.1//EN"
 "http://www.w3.org/Graphics/SVG/1.1/DTD/svg11.dtd">
<!-- Generated by graphviz version 2.40.1 (20161225.0304)
 -->
<!-- Title: /home/runner/work/AliceO2/AliceO2/Detectors/FIT/FDD/reconstruction/include/FDDReconstruction/ReadRaw.h Pages: 1 -->
<!--zoomable 296 -->
<svg id="main" version="1.1" xmlns="http://www.w3.org/2000/svg" xmlns:xlink="http://www.w3.org/1999/xlink" xml:space="preserve" onload="init(evt)">
<style type="text/css"><![CDATA[
.edge:hover path { stroke: red; }
.edge:hover polygon { stroke: red; fill: red; }
]]></style>
<script type="text/javascript"><![CDATA[
var edges = document.getElementsByTagName('g');
if (edges && edges.length) {
  for (var i=0;i<edges.length;i++) {
    if (edges[i].id.substr(0,4)=='edge') {
      edges[i].setAttribute('class','edge');
    }
  }
}
]]></script>
        <defs>
                <circle id="rim" cx="0" cy="0" r="7"/>
                <circle id="rim2" cx="0" cy="0" r="3.5"/>
                <g id="zoomPlus">
                        <use xlink:href="#rim" fill="#404040">
                                <set attributeName="fill" to="#808080" begin="zoomplus.mouseover" end="zoomplus.mouseout"/>
                        </use>
                        <path d="M-4,0h8M0,-4v8" fill="none" stroke="white" stroke-width="1.5" pointer-events="none"/>
                </g>
                <g id="zoomMin">
                        <use xlink:href="#rim" fill="#404040">
                                <set attributeName="fill" to="#808080" begin="zoomminus.mouseover" end="zoomminus.mouseout"/>
                        </use>
                        <path d="M-4,0h8" fill="none" stroke="white" stroke-width="1.5" pointer-events="none"/>
                </g>
                <g id="dirArrow">
                        <path fill="none" stroke="white" stroke-width="1.5" d="M0,-3.0v7 M-2.5,-0.5L0,-3.0L2.5,-0.5"/>
                </g>
               <g id="resetDef">
                       <use xlink:href="#rim2" fill="#404040">
                               <set attributeName="fill" to="#808080" begin="reset.mouseover" end="reset.mouseout"/>
                       </use>
               </g>
        </defs>

<script type="text/javascript">
var viewWidth = 1826;
var viewHeight = 296;
var sectionId = 'dynsection-0';
</script>
<script xlink:href="../../svgpan.js"/>
<svg id="graph" class="graph">
<g id="viewport">
<title>/home/runner/work/AliceO2/AliceO2/Detectors/FIT/FDD/reconstruction/include/FDDReconstruction/ReadRaw.h</title>
<!-- Node0 -->
<g id="node1" class="node">
<title>Node0</title>
<polygon fill="#bfbfbf" stroke="#000000" points="937,-235.5 937,-287.5 1098,-287.5 1098,-235.5 937,-235.5"/>
<text text-anchor="start" x="945" y="-275.5" font-family="Helvetica,sans-Serif" font-size="10.00" fill="#000000">/home/runner/work/AliceO2</text>
<text text-anchor="start" x="945" y="-264.5" font-family="Helvetica,sans-Serif" font-size="10.00" fill="#000000">/AliceO2/Detectors/FIT</text>
<text text-anchor="start" x="945" y="-253.5" font-family="Helvetica,sans-Serif" font-size="10.00" fill="#000000">/FDD/reconstruction/include</text>
<text text-anchor="middle" x="1017.5" y="-242.5" font-family="Helvetica,sans-Serif" font-size="10.00" fill="#000000">/FDDReconstruction/ReadRaw.h</text>
</g>
<!-- Node1 -->
<g id="node2" class="node">
<title>Node1</title>
<polygon fill="none" stroke="#bfbfbf" points="539.5,-179.5 539.5,-198.5 589.5,-198.5 589.5,-179.5 539.5,-179.5"/>
<text text-anchor="middle" x="564.5" y="-186.5" font-family="Helvetica,sans-Serif" font-size="10.00" fill="#000000">fstream</text>
</g>
<!-- Node0&#45;&gt;Node1 -->
<g id="edge1" class="edge">
<title>Node0&#45;&gt;Node1</title>
<path fill="none" stroke="#191970" d="M936.9638,-252.8331C854.3936,-243.1895 722.2261,-225.6549 599.5917,-199.0029"/>
<polygon fill="#191970" stroke="#191970" points="600.1688,-195.5463 589.6506,-196.8175 598.6658,-202.383 600.1688,-195.5463"/>
</g>
<!-- Node2 -->
<g id="node3" class="node">
<title>Node2</title>
<polygon fill="none" stroke="#bfbfbf" points="1191.5,-56.5 1191.5,-75.5 1245.5,-75.5 1245.5,-56.5 1191.5,-56.5"/>
<text text-anchor="middle" x="1218.5" y="-63.5" font-family="Helvetica,sans-Serif" font-size="10.00" fill="#000000">iostream</text>
</g>
<!-- Node0&#45;&gt;Node2 -->
<g id="edge2" class="edge">
<title>Node0&#45;&gt;Node2</title>
<path fill="none" stroke="#191970" d="M1098.0444,-238.9829C1120.7508,-229.555 1144.0038,-216.5768 1161.5,-199 1193.4174,-166.9354 1208.6369,-114.1635 1214.8562,-85.6878"/>
<polygon fill="#191970" stroke="#191970" points="1218.3166,-86.2339 1216.8751,-75.7376 1211.4564,-84.8418 1218.3166,-86.2339"/>
</g>
<!-- Node3 -->
<g id="node4" class="node">
<title>Node3</title>
<polygon fill="none" stroke="#bfbfbf" points="1719.5,-56.5 1719.5,-75.5 1769.5,-75.5 1769.5,-56.5 1719.5,-56.5"/>
<text text-anchor="middle" x="1744.5" y="-63.5" font-family="Helvetica,sans-Serif" font-size="10.00" fill="#000000">iomanip</text>
</g>
<!-- Node0&#45;&gt;Node3 -->
<g id="edge3" class="edge">
<title>Node0&#45;&gt;Node3</title>
<path fill="none" stroke="#191970" d="M1098.2642,-257.6359C1260.8104,-248.3111 1619.84,-219.4172 1712.5,-143 1729.8878,-128.6602 1737.9619,-103.2834 1741.6198,-85.5977"/>
<polygon fill="#191970" stroke="#191970" points="1745.0666,-86.2053 1743.3704,-75.7471 1738.1745,-84.9804 1745.0666,-86.2053"/>
</g>
<!-- Node4 -->
<g id="node5" class="node">
<title>Node4</title>
<polygon fill="none" stroke="#bfbfbf" points="799,-179.5 799,-198.5 834,-198.5 834,-179.5 799,-179.5"/>
<text text-anchor="middle" x="816.5" y="-186.5" font-family="Helvetica,sans-Serif" font-size="10.00" fill="#000000">map</text>
</g>
<!-- Node0&#45;&gt;Node4 -->
<g id="edge4" class="edge">
<title>Node0&#45;&gt;Node4</title>
<path fill="none" stroke="#191970" d="M945.2184,-235.4283C910.0453,-222.7415 869.8541,-208.2446 843.8751,-198.8741"/>
<polygon fill="#191970" stroke="#191970" points="844.92,-195.5303 834.3257,-195.4297 842.5449,-202.1151 844.92,-195.5303"/>
</g>
<!-- Node5 -->
<g id="node6" class="node">
<title>Node5</title>
<polygon fill="none" stroke="#bfbfbf" points="1777,-.5 1777,-19.5 1818,-19.5 1818,-.5 1777,-.5"/>
<text text-anchor="middle" x="1797.5" y="-7.5" font-family="Helvetica,sans-Serif" font-size="10.00" fill="#000000">string</text>
</g>
<!-- Node0&#45;&gt;Node5 -->
<g id="edge5" class="edge">
<title>Node0&#45;&gt;Node5</title>
<path fill="none" stroke="#191970" d="M1098.1784,-256.7029C1239.5271,-247.7107 1526.0864,-226.7005 1622.5,-199 1676.7548,-183.4121 1694.5759,-180.8013 1736.5,-143 1770.6437,-112.214 1786.9979,-58.4871 1793.651,-29.6407"/>
<polygon fill="#191970" stroke="#191970" points="1797.1338,-30.0917 1795.8066,-19.5803 1790.2891,-28.6251 1797.1338,-30.0917"/>
</g>
<!-- Node6 -->
<g id="node7" class="node">
<title>Node6</title>
<polygon fill="none" stroke="#bfbfbf" points="890.5,-179.5 890.5,-198.5 942.5,-198.5 942.5,-179.5 890.5,-179.5"/>
<text text-anchor="middle" x="916.5" y="-186.5" font-family="Helvetica,sans-Serif" font-size="10.00" fill="#000000">sstream</text>
</g>
<!-- Node0&#45;&gt;Node6 -->
<g id="edge6" class="edge">
<title>Node0&#45;&gt;Node6</title>
<path fill="none" stroke="#191970" d="M981.0367,-235.3258C966.6687,-225.0122 950.654,-213.5165 938.1721,-204.5567"/>
<polygon fill="#191970" stroke="#191970" points="939.9466,-201.5221 929.7819,-198.534 935.8646,-207.2087 939.9466,-201.5221"/>
</g>
<!-- Node7 -->
<g id="node8" class="node">
<title>Node7</title>
<polygon fill="none" stroke="#bfbfbf" points="960.5,-179.5 960.5,-198.5 1004.5,-198.5 1004.5,-179.5 960.5,-179.5"/>
<text text-anchor="middle" x="982.5" y="-186.5" font-family="Helvetica,sans-Serif" font-size="10.00" fill="#000000">vector</text>
</g>
<!-- Node0&#45;&gt;Node7 -->
<g id="edge7" class="edge">
<title>Node0&#45;&gt;Node7</title>
<path fill="none" stroke="#191970" d="M1004.8642,-235.3258C1000.4653,-226.2138 995.6209,-216.179 991.5689,-207.7857"/>
<polygon fill="#191970" stroke="#191970" points="994.6021,-206.0179 987.1026,-198.534 988.2982,-209.0612 994.6021,-206.0179"/>
</g>
<!-- Node8 -->
<g id="node9" class="node">
<title>Node8</title>
<polygon fill="none" stroke="#bfbfbf" points="1022.5,-179.5 1022.5,-198.5 1084.5,-198.5 1084.5,-179.5 1022.5,-179.5"/>
<text text-anchor="middle" x="1053.5" y="-186.5" font-family="Helvetica,sans-Serif" font-size="10.00" fill="#000000">TBranch.h</text>
</g>
<!-- Node0&#45;&gt;Node8 -->
<g id="edge8" class="edge">
<title>Node0&#45;&gt;Node8</title>
<path fill="none" stroke="#191970" d="M1030.4968,-235.3258C1035.0712,-226.1136 1040.1138,-215.9584 1044.309,-207.5096"/>
<polygon fill="#191970" stroke="#191970" points="1047.4532,-209.0472 1048.7659,-198.534 1041.1836,-205.934 1047.4532,-209.0472"/>
</g>
<!-- Node9 -->
<g id="node10" class="node">
<title>Node9</title>
<polygon fill="none" stroke="#bfbfbf" points="1102.5,-179.5 1102.5,-198.5 1152.5,-198.5 1152.5,-179.5 1102.5,-179.5"/>
<text text-anchor="middle" x="1127.5" y="-186.5" font-family="Helvetica,sans-Serif" font-size="10.00" fill="#000000">TTree.h</text>
</g>
<!-- Node0&#45;&gt;Node9 -->
<g id="edge9" class="edge">
<title>Node0&#45;&gt;Node9</title>
<path fill="none" stroke="#191970" d="M1057.2125,-235.3258C1073.1647,-224.8119 1090.9806,-213.0696 1104.6842,-204.0377"/>
<polygon fill="#191970" stroke="#191970" points="1106.6111,-206.9595 1113.0346,-198.534 1102.7589,-201.1148 1106.6111,-206.9595"/>
</g>
<!-- Node10 -->
<g id="node11" class="node">
<title>Node10</title>
<g id="a_node11"><a xlink:href="../../d9/d80/InteractionRecord_8h.html" target="_top" xlink:title="CommonDataFormat/Interaction\lRecord.h">
<polygon fill="none" stroke="#000000" points="930,-112.5 930,-142.5 1087,-142.5 1087,-112.5 930,-112.5"/>
<text text-anchor="start" x="938" y="-130.5" font-family="Helvetica,sans-Serif" font-size="10.00" fill="#000000">CommonDataFormat/Interaction</text>
<text text-anchor="middle" x="1008.5" y="-119.5" font-family="Helvetica,sans-Serif" font-size="10.00" fill="#000000">Record.h</text>
</a>
</g>
</g>
<!-- Node0&#45;&gt;Node10 -->
<g id="edge10" class="edge">
<title>Node0&#45;&gt;Node10</title>
<path fill="none" stroke="#191970" d="M936.7398,-241.8879C915.1339,-232.5597 894.2606,-218.9078 881.5,-199 865.4683,-173.989 890.8558,-156.8801 923.0421,-145.6859"/>
<polygon fill="#191970" stroke="#191970" points="924.3061,-148.9556 932.7391,-142.5419 922.1471,-142.2968 924.3061,-148.9556"/>
</g>
<!-- Node17 -->
<g id="node18" class="node">
<title>Node17</title>
<g id="a_node18"><a xlink:href="../../d9/dc4/DataFormats_2Detectors_2FIT_2FDD_2include_2DataFormatsFDD_2Digit_8h.html" target="_top" xlink:title="DataFormatsFDD/Digit.h">
<polygon fill="none" stroke="#000000" points="607.5,-179.5 607.5,-198.5 733.5,-198.5 733.5,-179.5 607.5,-179.5"/>
<text text-anchor="middle" x="670.5" y="-186.5" font-family="Helvetica,sans-Serif" font-size="10.00" fill="#000000">DataFormatsFDD/Digit.h</text>
</a>
</g>
</g>
<!-- Node0&#45;&gt;Node17 -->
<g id="edge17" class="edge">
<title>Node0&#45;&gt;Node17</title>
<path fill="none" stroke="#191970" d="M936.5819,-244.5935C871.9705,-231.094 783.1339,-212.533 726.2575,-200.6496"/>
<polygon fill="#191970" stroke="#191970" points="726.8749,-197.2031 716.3705,-198.5839 725.4433,-204.0552 726.8749,-197.2031"/>
</g>
<!-- Node23 -->
<g id="node24" class="node">
<title>Node23</title>
<g id="a_node24"><a xlink:href="../../d1/d18/FIT_2FDD_2include_2DataFormatsFDD_2ChannelData_8h.html" target="_top" xlink:title="DataFormatsFDD/ChannelData.h">
<polygon fill="none" stroke="#000000" points="710,-118 710,-137 873,-137 873,-118 710,-118"/>
<text text-anchor="middle" x="791.5" y="-125" font-family="Helvetica,sans-Serif" font-size="10.00" fill="#000000">DataFormatsFDD/ChannelData.h</text>
</a>
</g>
</g>
<!-- Node0&#45;&gt;Node23 -->
<g id="edge33" class="edge">
<title>Node0&#45;&gt;Node23</title>
<path fill="none" stroke="#191970" d="M936.8551,-249.8886C878.7845,-239.6848 807.609,-222.7411 789.5,-199 778.3631,-184.3994 780.7597,-162.8095 784.7709,-147.1766"/>
<polygon fill="#191970" stroke="#191970" points="788.1634,-148.0474 787.6593,-137.4645 781.4538,-146.0518 788.1634,-148.0474"/>
</g>
<!-- Node27 -->
<g id="node28" class="node">
<title>Node27</title>
<g id="a_node28"><a xlink:href="../../d6/dfc/FDD_2include_2DataFormatsFDD_2LookUpTable_8h.html" target="_top" xlink:title="DataFormatsFDD/LookUpTable.h">
<polygon fill="none" stroke="#000000" points="1491.5,-118 1491.5,-137 1655.5,-137 1655.5,-118 1491.5,-118"/>
<text text-anchor="middle" x="1573.5" y="-125" font-family="Helvetica,sans-Serif" font-size="10.00" fill="#000000">DataFormatsFDD/LookUpTable.h</text>
</a>
</g>
</g>
<!-- Node0&#45;&gt;Node27 -->
<g id="edge34" class="edge">
<title>Node0&#45;&gt;Node27</title>
<path fill="none" stroke="#191970" d="M1098.2495,-253.3169C1175.548,-244.2775 1294.9348,-227.1476 1395.5,-199 1449.7312,-183.821 1509.984,-157.4975 1544.6405,-141.3756"/>
<polygon fill="#191970" stroke="#191970" points="1546.1464,-144.5352 1553.7104,-137.1166 1543.171,-138.199 1546.1464,-144.5352"/>
</g>
<!-- Node35 -->
<g id="node36" class="node">
<title>Node35</title>
<g id="a_node36"><a xlink:href="../../d0/ddf/FDD_2include_2DataFormatsFDD_2RawEventData_8h.html" target="_top" xlink:title="DataFormatsFDD/RawEventData.h">
<polygon fill="none" stroke="#000000" points="1214,-179.5 1214,-198.5 1387,-198.5 1387,-179.5 1214,-179.5"/>
<text text-anchor="middle" x="1300.5" y="-186.5" font-family="Helvetica,sans-Serif" font-size="10.00" fill="#000000">DataFormatsFDD/RawEventData.h</text>
</a>
</g>
</g>
<!-- Node0&#45;&gt;Node35 -->
<g id="edge47" class="edge">
<title>Node0&#45;&gt;Node35</title>
<path fill="none" stroke="#191970" d="M1098.2177,-240.8214C1148.432,-227.9573 1211.2551,-211.8631 1253.4527,-201.0528"/>
<polygon fill="#191970" stroke="#191970" points="1254.3681,-204.4314 1263.1866,-198.5591 1252.6308,-197.6503 1254.3681,-204.4314"/>
</g>
<!-- Node11 -->
<g id="node12" class="node">
<title>Node11</title>
<g id="a_node12"><a xlink:href="../../d2/d45/GPUCommonRtypes_8h.html" target="_top" xlink:title="GPUCommonRtypes.h">
<polygon fill="none" stroke="#000000" points="514.5,-56.5 514.5,-75.5 632.5,-75.5 632.5,-56.5 514.5,-56.5"/>
<text text-anchor="middle" x="573.5" y="-63.5" font-family="Helvetica,sans-Serif" font-size="10.00" fill="#000000">GPUCommonRtypes.h</text>
</a>
</g>
</g>
<!-- Node10&#45;&gt;Node11 -->
<g id="edge11" class="edge">
<title>Node10&#45;&gt;Node11</title>
<path fill="none" stroke="#191970" d="M929.9767,-116.3984C848.1217,-104.8258 721.0781,-86.8645 642.8223,-75.8007"/>
<polygon fill="#191970" stroke="#191970" points="642.9768,-72.2879 632.5853,-74.3534 641.9969,-79.2189 642.9768,-72.2879"/>
</g>
<!-- Node13 -->
<g id="node14" class="node">
<title>Node13</title>
<polygon fill="none" stroke="#bfbfbf" points="794,-56.5 794,-75.5 839,-75.5 839,-56.5 794,-56.5"/>
<text text-anchor="middle" x="816.5" y="-63.5" font-family="Helvetica,sans-Serif" font-size="10.00" fill="#000000">iosfwd</text>
</g>
<!-- Node10&#45;&gt;Node13 -->
<g id="edge13" class="edge">
<title>Node10&#45;&gt;Node13</title>
<path fill="none" stroke="#191970" d="M961.5315,-112.4554C926.6215,-101.2733 879.8867,-86.3035 849.0199,-76.4165"/>
<polygon fill="#191970" stroke="#191970" points="849.7914,-72.9886 839.2004,-73.2712 847.6561,-79.6549 849.7914,-72.9886"/>
</g>
<!-- Node14 -->
<g id="node15" class="node">
<title>Node14</title>
<polygon fill="none" stroke="#bfbfbf" points="1221.5,-.5 1221.5,-19.5 1267.5,-19.5 1267.5,-.5 1221.5,-.5"/>
<text text-anchor="middle" x="1244.5" y="-7.5" font-family="Helvetica,sans-Serif" font-size="10.00" fill="#000000">cstdint</text>
</g>
<!-- Node10&#45;&gt;Node14 -->
<g id="edge14" class="edge">
<title>Node10&#45;&gt;Node14</title>
<path fill="none" stroke="#191970" d="M1038.8697,-112.3795C1084.7985,-89.5124 1171.3042,-46.4428 1216.0632,-24.1581"/>
<polygon fill="#191970" stroke="#191970" points="1217.8171,-27.1948 1225.209,-19.6046 1214.6972,-20.9285 1217.8171,-27.1948"/>
</g>
<!-- Node15 -->
<g id="node16" class="node">
<title>Node15</title>
<polygon fill="none" stroke="#bfbfbf" points="857.5,-56.5 857.5,-75.5 901.5,-75.5 901.5,-56.5 857.5,-56.5"/>
<text text-anchor="middle" x="879.5" y="-63.5" font-family="Helvetica,sans-Serif" font-size="10.00" fill="#000000">cmath</text>
</g>
<!-- Node10&#45;&gt;Node15 -->
<g id="edge15" class="edge">
<title>Node10&#45;&gt;Node15</title>
<path fill="none" stroke="#191970" d="M976.943,-112.4554C956.0799,-102.509 928.9309,-89.5659 908.5902,-79.8686"/>
<polygon fill="#191970" stroke="#191970" points="910.0233,-76.6744 899.4904,-75.5303 907.0109,-82.9931 910.0233,-76.6744"/>
</g>
<!-- Node16 -->
<g id="node17" class="node">
<title>Node16</title>
<g id="a_node17"><a xlink:href="../../d4/dc6/LHCConstants_8h.html" target="_top" xlink:title="Header to collect LHC related constants. ">
<polygon fill="none" stroke="#000000" points="919.5,-56.5 919.5,-75.5 1097.5,-75.5 1097.5,-56.5 919.5,-56.5"/>
<text text-anchor="middle" x="1008.5" y="-63.5" font-family="Helvetica,sans-Serif" font-size="10.00" fill="#000000">CommonConstants/LHCConstants.h</text>
</a>
</g>
</g>
<!-- Node10&#45;&gt;Node16 -->
<g id="edge16" class="edge">
<title>Node10&#45;&gt;Node16</title>
<path fill="none" stroke="#191970" d="M1008.5,-112.2977C1008.5,-104.3834 1008.5,-94.6043 1008.5,-86.0759"/>
<polygon fill="#191970" stroke="#191970" points="1012.0001,-85.8469 1008.5,-75.8469 1005.0001,-85.847 1012.0001,-85.8469"/>
</g>
<!-- Node12 -->
<g id="node13" class="node">
<title>Node12</title>
<polygon fill="none" stroke="#bfbfbf" points="737.5,-.5 737.5,-19.5 793.5,-19.5 793.5,-.5 737.5,-.5"/>
<text text-anchor="middle" x="765.5" y="-7.5" font-family="Helvetica,sans-Serif" font-size="10.00" fill="#000000">Rtypes.h</text>
</g>
<!-- Node11&#45;&gt;Node12 -->
<g id="edge12" class="edge">
<title>Node11&#45;&gt;Node12</title>
<path fill="none" stroke="#191970" d="M606.506,-56.3733C640.0753,-46.5822 692.0437,-31.4247 727.3557,-21.1254"/>
<polygon fill="#191970" stroke="#191970" points="728.6723,-24.3873 737.2922,-18.2273 726.7122,-17.6673 728.6723,-24.3873"/>
</g>
<!-- Node17&#45;&gt;Node10 -->
<g id="edge20" class="edge">
<title>Node17&#45;&gt;Node10</title>
<path fill="none" stroke="#191970" d="M722.9416,-179.4581C775.4805,-169.8985 857.3224,-155.0072 919.9445,-143.6129"/>
<polygon fill="#191970" stroke="#191970" points="920.6106,-147.0493 929.8225,-141.8156 919.3574,-140.1623 920.6106,-147.0493"/>
</g>
<!-- Node17&#45;&gt;Node12 -->
<g id="edge30" class="edge">
<title>Node17&#45;&gt;Node12</title>
<path fill="none" stroke="#191970" d="M607.3025,-180.0751C604.3282,-179.7015 601.3825,-179.341 598.5,-179 557.7005,-174.1731 258.1004,-173.4322 230.5,-143 221.244,-132.7944 221.7837,-122.6702 230.5,-112 293.5202,-34.8532 615.2248,-15.6017 727.0971,-11.2042"/>
<polygon fill="#191970" stroke="#191970" points="727.3908,-14.6958 737.2527,-10.8236 727.1286,-7.7007 727.3908,-14.6958"/>
</g>
<!-- Node17&#45;&gt;Node13 -->
<g id="edge29" class="edge">
<title>Node17&#45;&gt;Node13</title>
<path fill="none" stroke="#191970" d="M733.5375,-183.852C788.816,-177.8743 863.1554,-165.7748 881.5,-143 890.1427,-132.2701 887.8313,-124.2369 881.5,-112 874.3942,-98.2662 861.0893,-87.7522 848.3588,-80.2661"/>
<polygon fill="#191970" stroke="#191970" points="849.7466,-77.0373 839.2874,-75.3475 846.4101,-83.1909 849.7466,-77.0373"/>
</g>
<!-- Node18 -->
<g id="node19" class="node">
<title>Node18</title>
<g id="a_node19"><a xlink:href="../../de/d64/RangeReference_8h.html" target="_top" xlink:title="Class to refer to the 1st entry and N elements of some group in the continuous container. ">
<polygon fill="none" stroke="#000000" points="428,-118 428,-137 621,-137 621,-118 428,-118"/>
<text text-anchor="middle" x="524.5" y="-125" font-family="Helvetica,sans-Serif" font-size="10.00" fill="#000000">CommonDataFormat/RangeReference.h</text>
</a>
</g>
</g>
<!-- Node17&#45;&gt;Node18 -->
<g id="edge18" class="edge">
<title>Node17&#45;&gt;Node18</title>
<path fill="none" stroke="#191970" d="M647.6875,-179.3906C623.1519,-169.0554 583.9558,-152.5447 556.3789,-140.9284"/>
<polygon fill="#191970" stroke="#191970" points="557.7268,-137.6984 547.1523,-137.0419 555.0094,-144.1495 557.7268,-137.6984"/>
</g>
<!-- Node19 -->
<g id="node20" class="node">
<title>Node19</title>
<g id="a_node20"><a xlink:href="../../df/d5d/common_2include_2CommonDataFormat_2TimeStamp_8h.html" target="_top" xlink:title="CommonDataFormat/TimeStamp.h">
<polygon fill="none" stroke="#000000" points="239.5,-118 239.5,-137 409.5,-137 409.5,-118 239.5,-118"/>
<text text-anchor="middle" x="324.5" y="-125" font-family="Helvetica,sans-Serif" font-size="10.00" fill="#000000">CommonDataFormat/TimeStamp.h</text>
</a>
</g>
</g>
<!-- Node17&#45;&gt;Node19 -->
<g id="edge21" class="edge">
<title>Node17&#45;&gt;Node19</title>
<path fill="none" stroke="#191970" d="M616.8171,-179.4581C555.1071,-168.4894 453.9053,-150.5012 388.2455,-138.8305"/>
<polygon fill="#191970" stroke="#191970" points="388.4823,-135.3178 378.0241,-137.0137 387.2573,-142.2098 388.4823,-135.3178"/>
</g>
<!-- Node17&#45;&gt;Node23 -->
<g id="edge26" class="edge">
<title>Node17&#45;&gt;Node23</title>
<path fill="none" stroke="#191970" d="M689.4063,-179.3906C709.2966,-169.2811 740.8123,-153.2628 763.5692,-141.6962"/>
<polygon fill="#191970" stroke="#191970" points="765.3978,-144.693 772.7265,-137.0419 762.226,-138.4528 765.3978,-144.693"/>
</g>
<!-- Node25 -->
<g id="node26" class="node">
<title>Node25</title>
<polygon fill="none" stroke="#bfbfbf" points="639,-118 639,-137 692,-137 692,-118 639,-118"/>
<text text-anchor="middle" x="665.5" y="-125" font-family="Helvetica,sans-Serif" font-size="10.00" fill="#000000">gsl/span</text>
</g>
<!-- Node17&#45;&gt;Node25 -->
<g id="edge31" class="edge">
<title>Node17&#45;&gt;Node25</title>
<path fill="none" stroke="#191970" d="M669.7188,-179.3906C669.0257,-170.8657 667.991,-158.1392 667.1198,-147.4235"/>
<polygon fill="#191970" stroke="#191970" points="670.5912,-146.9283 666.2923,-137.2449 663.6142,-147.4956 670.5912,-146.9283"/>
</g>
<!-- Node26 -->
<g id="node27" class="node">
<title>Node26</title>
<polygon fill="none" stroke="#bfbfbf" points="142,-118 142,-137 183,-137 183,-118 142,-118"/>
<text text-anchor="middle" x="162.5" y="-125" font-family="Helvetica,sans-Serif" font-size="10.00" fill="#000000">bitset</text>
</g>
<!-- Node17&#45;&gt;Node26 -->
<g id="edge32" class="edge">
<title>Node17&#45;&gt;Node26</title>
<path fill="none" stroke="#191970" d="M607.3059,-180.0466C604.3307,-179.6805 601.3838,-179.3295 598.5,-179 420.7178,-158.6859 370.7329,-187.8277 197.5,-143 195.1658,-142.396 192.7902,-141.6518 190.4319,-140.8194"/>
<polygon fill="#191970" stroke="#191970" points="191.5688,-137.5045 180.9844,-137.0334 188.9648,-144.0022 191.5688,-137.5045"/>
</g>
<!-- Node18&#45;&gt;Node11 -->
<g id="edge19" class="edge">
<title>Node18&#45;&gt;Node11</title>
<path fill="none" stroke="#191970" d="M532.1563,-117.8906C539.4489,-108.7376 550.6007,-94.7409 559.4852,-83.59"/>
<polygon fill="#191970" stroke="#191970" points="562.2417,-85.747 565.7358,-75.7449 556.767,-81.3849 562.2417,-85.747"/>
</g>
<!-- Node19&#45;&gt;Node11 -->
<g id="edge22" class="edge">
<title>Node19&#45;&gt;Node11</title>
<path fill="none" stroke="#191970" d="M363.133,-117.9581C406.7481,-107.1857 477.7753,-89.6428 525.0641,-77.9631"/>
<polygon fill="#191970" stroke="#191970" points="525.9073,-81.3601 534.7763,-75.5643 524.2288,-74.5643 525.9073,-81.3601"/>
</g>
<!-- Node20 -->
<g id="node21" class="node">
<title>Node20</title>
<g id="a_node21"><a xlink:href="../../df/d21/GPUCommonDef_8h.html" target="_top" xlink:title="GPUCommonDef.h">
<polygon fill="none" stroke="#000000" points="81.5,-56.5 81.5,-75.5 183.5,-75.5 183.5,-56.5 81.5,-56.5"/>
<text text-anchor="middle" x="132.5" y="-63.5" font-family="Helvetica,sans-Serif" font-size="10.00" fill="#000000">GPUCommonDef.h</text>
</a>
</g>
</g>
<!-- Node19&#45;&gt;Node20 -->
<g id="edge23" class="edge">
<title>Node19&#45;&gt;Node20</title>
<path fill="none" stroke="#191970" d="M294.5,-117.8906C261.5295,-107.3298 208.4283,-90.3208 172.0697,-78.6747"/>
<polygon fill="#191970" stroke="#191970" points="172.8804,-75.2592 162.2893,-75.5419 170.745,-81.9256 172.8804,-75.2592"/>
</g>
<!-- Node21 -->
<g id="node22" class="node">
<title>Node21</title>
<g id="a_node22"><a xlink:href="../../d5/d93/GPUCommonDefSettings_8h.html" target="_top" xlink:title="GPUCommonDefSettings.h">
<polygon fill="none" stroke="#000000" points="137.5,-.5 137.5,-19.5 275.5,-19.5 275.5,-.5 137.5,-.5"/>
<text text-anchor="middle" x="206.5" y="-7.5" font-family="Helvetica,sans-Serif" font-size="10.00" fill="#000000">GPUCommonDefSettings.h</text>
</a>
</g>
</g>
<!-- Node20&#45;&gt;Node21 -->
<g id="edge24" class="edge">
<title>Node20&#45;&gt;Node21</title>
<path fill="none" stroke="#191970" d="M145.3898,-56.2455C156.4254,-47.8943 172.5292,-35.7076 185.4353,-25.9408"/>
<polygon fill="#191970" stroke="#191970" points="187.8959,-28.4681 193.7579,-19.6427 183.6717,-22.8862 187.8959,-28.4681"/>
</g>
<!-- Node22 -->
<g id="node23" class="node">
<title>Node22</title>
<g id="a_node23"><a xlink:href="../../da/d5a/GPUCommonDefAPI_8h.html" target="_top" xlink:title="GPUCommonDefAPI.h">
<polygon fill="none" stroke="#000000" points="0,-.5 0,-19.5 119,-19.5 119,-.5 0,-.5"/>
<text text-anchor="middle" x="59.5" y="-7.5" font-family="Helvetica,sans-Serif" font-size="10.00" fill="#000000">GPUCommonDefAPI.h</text>
</a>
</g>
</g>
<!-- Node20&#45;&gt;Node22 -->
<g id="edge25" class="edge">
<title>Node20&#45;&gt;Node22</title>
<path fill="none" stroke="#191970" d="M119.7844,-56.2455C108.898,-47.8943 93.0117,-35.7076 80.28,-25.9408"/>
<polygon fill="#191970" stroke="#191970" points="82.1346,-22.9523 72.0699,-19.6427 77.8739,-28.5063 82.1346,-22.9523"/>
</g>
<!-- Node23&#45;&gt;Node12 -->
<g id="edge28" class="edge">
<title>Node23&#45;&gt;Node12</title>
<path fill="none" stroke="#191970" d="M789.3723,-117.8845C785.1253,-98.6913 775.5207,-55.286 769.8738,-29.7663"/>
<polygon fill="#191970" stroke="#191970" points="773.235,-28.756 767.6571,-19.7484 766.4003,-30.2684 773.235,-28.756"/>
</g>
<!-- Node24 -->
<g id="node25" class="node">
<title>Node24</title>
<polygon fill="none" stroke="#bfbfbf" points="699.5,-56.5 699.5,-75.5 737.5,-75.5 737.5,-56.5 699.5,-56.5"/>
<text text-anchor="middle" x="718.5" y="-63.5" font-family="Helvetica,sans-Serif" font-size="10.00" fill="#000000">array</text>
</g>
<!-- Node23&#45;&gt;Node24 -->
<g id="edge27" class="edge">
<title>Node23&#45;&gt;Node24</title>
<path fill="none" stroke="#191970" d="M780.0938,-117.8906C768.8031,-108.3786 751.3033,-93.6357 737.8381,-82.2917"/>
<polygon fill="#191970" stroke="#191970" points="739.9699,-79.5111 730.0671,-75.7449 735.4598,-84.8646 739.9699,-79.5111"/>
</g>
<!-- Node27&#45;&gt;Node2 -->
<g id="edge37" class="edge">
<title>Node27&#45;&gt;Node2</title>
<path fill="none" stroke="#191970" d="M1518.1717,-117.9972C1506.4001,-115.9975 1494.0414,-113.9145 1482.5,-112 1383.4591,-95.5712 1357.9002,-95.9101 1259.5,-76 1258.2478,-75.7466 1256.9759,-75.4814 1255.6929,-75.207"/>
<polygon fill="#191970" stroke="#191970" points="1256.3046,-71.7572 1245.7796,-72.9724 1254.7652,-78.5858 1256.3046,-71.7572"/>
</g>
<!-- Node27&#45;&gt;Node3 -->
<g id="edge38" class="edge">
<title>Node27&#45;&gt;Node3</title>
<path fill="none" stroke="#191970" d="M1600.2188,-117.8906C1629.7578,-107.2669 1677.4396,-90.1182 1709.8345,-78.4674"/>
<polygon fill="#191970" stroke="#191970" points="1711.1348,-81.7193 1719.3602,-75.0415 1708.7658,-75.1324 1711.1348,-81.7193"/>
</g>
<!-- Node27&#45;&gt;Node12 -->
<g id="edge35" class="edge">
<title>Node27&#45;&gt;Node12</title>
<path fill="none" stroke="#191970" d="M1526.4789,-117.9402C1478.0102,-107.9619 1400.3089,-91.6193 1333.5,-76 1298.2322,-67.7547 1290.1913,-62.1588 1254.5,-56 1088.0658,-27.2806 886.4492,-15.4654 803.7221,-11.5887"/>
<polygon fill="#191970" stroke="#191970" points="803.6912,-8.0837 793.5419,-11.1239 803.3718,-15.0764 803.6912,-8.0837"/>
</g>
<!-- Node28 -->
<g id="node29" class="node">
<title>Node28</title>
<polygon fill="none" stroke="#bfbfbf" points="1528,-56.5 1528,-75.5 1577,-75.5 1577,-56.5 1528,-56.5"/>
<text text-anchor="middle" x="1552.5" y="-63.5" font-family="Helvetica,sans-Serif" font-size="10.00" fill="#000000">cassert</text>
</g>
<!-- Node27&#45;&gt;Node28 -->
<g id="edge36" class="edge">
<title>Node27&#45;&gt;Node28</title>
<path fill="none" stroke="#191970" d="M1570.2188,-117.8906C1567.2465,-109.1862 1562.7786,-96.1015 1559.073,-85.2494"/>
<polygon fill="#191970" stroke="#191970" points="1562.3712,-84.0773 1555.8275,-75.7449 1555.7468,-86.3394 1562.3712,-84.0773"/>
</g>
<!-- Node29 -->
<g id="node30" class="node">
<title>Node29</title>
<g id="a_node30"><a xlink:href="../../dd/da4/Logger_8h.html" target="_top" xlink:title="Framework/Logger.h">
<polygon fill="none" stroke="#000000" points="1595.5,-56.5 1595.5,-75.5 1701.5,-75.5 1701.5,-56.5 1595.5,-56.5"/>
<text text-anchor="middle" x="1648.5" y="-63.5" font-family="Helvetica,sans-Serif" font-size="10.00" fill="#000000">Framework/Logger.h</text>
</a>
</g>
</g>
<!-- Node27&#45;&gt;Node29 -->
<g id="edge39" class="edge">
<title>Node27&#45;&gt;Node29</title>
<path fill="none" stroke="#191970" d="M1585.2188,-117.8906C1596.8188,-108.3786 1614.7979,-93.6357 1628.6321,-82.2917"/>
<polygon fill="#191970" stroke="#191970" points="1631.1026,-84.7921 1636.616,-75.7449 1626.664,-79.3792 1631.1026,-84.7921"/>
</g>
<!-- Node31 -->
<g id="node32" class="node">
<title>Node31</title>
<g id="a_node32"><a xlink:href="../../d9/d15/Detectors_2FIT_2FDD_2base_2include_2FDDBase_2Constants_8h.html" target="_top" xlink:title="FDDBase/Constants.h">
<polygon fill="none" stroke="#000000" points="1342.5,-56.5 1342.5,-75.5 1458.5,-75.5 1458.5,-56.5 1342.5,-56.5"/>
<text text-anchor="middle" x="1400.5" y="-63.5" font-family="Helvetica,sans-Serif" font-size="10.00" fill="#000000">FDDBase/Constants.h</text>
</a>
</g>
</g>
<!-- Node27&#45;&gt;Node31 -->
<g id="edge41" class="edge">
<title>Node27&#45;&gt;Node31</title>
<path fill="none" stroke="#191970" d="M1546.4688,-117.8906C1517.0149,-107.42 1469.7311,-90.6111 1436.9973,-78.9745"/>
<polygon fill="#191970" stroke="#191970" points="1437.9361,-75.5937 1427.3414,-75.5419 1435.5914,-82.1893 1437.9361,-75.5937"/>
</g>
<!-- Node30 -->
<g id="node31" class="node">
<title>Node30</title>
<polygon fill="none" stroke="#bfbfbf" points="1661,-.5 1661,-19.5 1758,-19.5 1758,-.5 1661,-.5"/>
<text text-anchor="middle" x="1709.5" y="-7.5" font-family="Helvetica,sans-Serif" font-size="10.00" fill="#000000">fairlogger/Logger.h</text>
</g>
<!-- Node29&#45;&gt;Node30 -->
<g id="edge40" class="edge">
<title>Node29&#45;&gt;Node30</title>
<path fill="none" stroke="#191970" d="M1659.1254,-56.2455C1668.0473,-48.0549 1680.988,-36.1749 1691.5192,-26.5069"/>
<polygon fill="#191970" stroke="#191970" points="1693.9968,-28.9837 1698.9964,-19.6427 1689.2629,-23.8271 1693.9968,-28.9837"/>
</g>
<!-- Node31&#45;&gt;Node5 -->
<g id="edge45" class="edge">
<title>Node31&#45;&gt;Node5</title>
<path fill="none" stroke="#191970" d="M1458.6687,-60.1223C1542.7064,-51.4019 1694.981,-34.6879 1766.9731,-19.6353"/>
<polygon fill="#191970" stroke="#191970" points="1767.9818,-22.9971 1776.9947,-17.4277 1766.4758,-16.161 1767.9818,-22.9971"/>
</g>
<!-- Node31&#45;&gt;Node14 -->
<g id="edge43" class="edge">
<title>Node31&#45;&gt;Node14</title>
<path fill="none" stroke="#191970" d="M1373.6826,-56.3733C1347.0317,-46.8062 1306.1077,-32.1156 1277.4827,-21.8399"/>
<polygon fill="#191970" stroke="#191970" points="1278.5086,-18.4896 1267.9141,-18.4051 1276.1435,-25.078 1278.5086,-18.4896"/>
</g>
<!-- Node32 -->
<g id="node33" class="node">
<title>Node32</title>
<g id="a_node33"><a xlink:href="../../d3/d9d/PhysicsConstants_8h.html" target="_top" xlink:title="Header to collect physics constants. ">
<polygon fill="none" stroke="#000000" points="1450,-.5 1450,-19.5 1643,-19.5 1643,-.5 1450,-.5"/>
<text text-anchor="middle" x="1546.5" y="-7.5" font-family="Helvetica,sans-Serif" font-size="10.00" fill="#000000">CommonConstants/PhysicsConstants.h</text>
</a>
</g>
</g>
<!-- Node31&#45;&gt;Node32 -->
<g id="edge42" class="edge">
<title>Node31&#45;&gt;Node32</title>
<path fill="none" stroke="#191970" d="M1425.5983,-56.3733C1449.4555,-47.2226 1485.5335,-33.3844 1512.071,-23.2057"/>
<polygon fill="#191970" stroke="#191970" points="1513.6459,-26.3503 1521.7292,-19.5011 1511.139,-19.8145 1513.6459,-26.3503"/>
</g>
<!-- Node33 -->
<g id="node34" class="node">
<title>Node33</title>
<polygon fill="none" stroke="#bfbfbf" points="1285.5,-.5 1285.5,-19.5 1351.5,-19.5 1351.5,-.5 1285.5,-.5"/>
<text text-anchor="middle" x="1318.5" y="-7.5" font-family="Helvetica,sans-Serif" font-size="10.00" fill="#000000">string_view</text>
</g>
<!-- Node31&#45;&gt;Node33 -->
<g id="edge44" class="edge">
<title>Node31&#45;&gt;Node33</title>
<path fill="none" stroke="#191970" d="M1386.2167,-56.2455C1373.753,-47.7337 1355.4549,-35.2375 1341.0208,-25.3801"/>
<polygon fill="#191970" stroke="#191970" points="1342.8515,-22.392 1332.6196,-19.6427 1338.9038,-28.1726 1342.8515,-22.392"/>
</g>
<!-- Node34 -->
<g id="node35" class="node">
<title>Node34</title>
<polygon fill="none" stroke="#bfbfbf" points="1369.5,-.5 1369.5,-19.5 1431.5,-19.5 1431.5,-.5 1369.5,-.5"/>
<text text-anchor="middle" x="1400.5" y="-7.5" font-family="Helvetica,sans-Serif" font-size="10.00" fill="#000000">type_traits</text>
</g>
<!-- Node31&#45;&gt;Node34 -->
<g id="edge46" class="edge">
<title>Node31&#45;&gt;Node34</title>
<path fill="none" stroke="#191970" d="M1400.5,-56.2455C1400.5,-48.9382 1400.5,-38.6944 1400.5,-29.7046"/>
<polygon fill="#191970" stroke="#191970" points="1404.0001,-29.6426 1400.5,-19.6427 1397.0001,-29.6427 1404.0001,-29.6426"/>
</g>
<!-- Node35&#45;&gt;Node2 -->
<g id="edge55" class="edge">
<title>Node35&#45;&gt;Node2</title>
<path fill="none" stroke="#191970" d="M1268.7809,-179.3774C1251.3119,-172.2951 1231.0809,-160.7535 1220.5,-143 1210.2649,-125.8267 1211.302,-102.4514 1213.9363,-85.9745"/>
<polygon fill="#191970" stroke="#191970" points="1217.4355,-86.313 1215.8963,-75.8306 1210.5627,-84.985 1217.4355,-86.313"/>
</g>
<!-- Node35&#45;&gt;Node3 -->
<g id="edge56" class="edge">
<title>Node35&#45;&gt;Node3</title>
<path fill="none" stroke="#191970" d="M1387.224,-185.9873C1483.6988,-181.3453 1632.4554,-169.9596 1681.5,-143 1705.7653,-129.6615 1724.3453,-102.8329 1734.8449,-84.6406"/>
<polygon fill="#191970" stroke="#191970" points="1738.0845,-86.0125 1739.8314,-75.5627 1731.9492,-82.6423 1738.0845,-86.0125"/>
</g>
<!-- Node35&#45;&gt;Node10 -->
<g id="edge53" class="edge">
<title>Node35&#45;&gt;Node10</title>
<path fill="none" stroke="#191970" d="M1255.1954,-179.4581C1211.0852,-170.1678 1143.0658,-155.8418 1089.6134,-144.5838"/>
<polygon fill="#191970" stroke="#191970" points="1090.3179,-141.1555 1079.8112,-142.5193 1088.8752,-148.0052 1090.3179,-141.1555"/>
</g>
<!-- Node35&#45;&gt;Node12 -->
<g id="edge58" class="edge">
<title>Node35&#45;&gt;Node12</title>
<path fill="none" stroke="#191970" d="M1277.7295,-179.4782C1258.5803,-171.0405 1230.8331,-157.7896 1208.5,-143 1158.8218,-110.1017 1160.9018,-80.3037 1106.5,-56 1052.9753,-32.0881 881.0865,-17.8032 803.7882,-12.4389"/>
<polygon fill="#191970" stroke="#191970" points="803.7456,-8.928 793.531,-11.7411 803.2704,-15.9118 803.7456,-8.928"/>
</g>
<!-- Node35&#45;&gt;Node23 -->
<g id="edge49" class="edge">
<title>Node35&#45;&gt;Node23</title>
<path fill="none" stroke="#191970" d="M1221.8059,-179.4918C1129.4978,-168.3386 976.8482,-149.8947 880.3593,-138.2364"/>
<polygon fill="#191970" stroke="#191970" points="880.6791,-134.7497 870.3315,-137.0248 879.8394,-141.6992 880.6791,-134.7497"/>
</g>
<!-- Node35&#45;&gt;Node27 -->
<g id="edge52" class="edge">
<title>Node35&#45;&gt;Node27</title>
<path fill="none" stroke="#191970" d="M1342.8567,-179.4581C1390.8757,-168.6406 1469.201,-150.9959 1521.045,-139.3168"/>
<polygon fill="#191970" stroke="#191970" points="1522.0576,-142.6765 1531.0439,-137.0643 1520.5192,-135.8476 1522.0576,-142.6765"/>
</g>
<!-- Node35&#45;&gt;Node29 -->
<g id="edge54" class="edge">
<title>Node35&#45;&gt;Node29</title>
<path fill="none" stroke="#191970" d="M1387.3914,-183.9692C1489.216,-177.1686 1646.4399,-163.486 1664.5,-143 1678.6143,-126.9898 1669.5256,-101.8215 1660.308,-84.6492"/>
<polygon fill="#191970" stroke="#191970" points="1663.0934,-82.4766 1655.0403,-75.592 1657.0424,-85.9959 1663.0934,-82.4766"/>
</g>
<!-- Node35&#45;&gt;Node31 -->
<g id="edge48" class="edge">
<title>Node35&#45;&gt;Node31</title>
<path fill="none" stroke="#191970" d="M1327.6359,-179.438C1344.8794,-172.0316 1366.3537,-160.1191 1379.5,-143 1392.254,-126.3918 1397.2682,-102.5584 1399.2359,-85.8182"/>
<polygon fill="#191970" stroke="#191970" points="1402.7507,-85.8135 1400.1692,-75.538 1395.7793,-85.1806 1402.7507,-85.8135"/>
</g>
<!-- Node36 -->
<g id="node37" class="node">
<title>Node36</title>
<g id="a_node37"><a xlink:href="../../d4/dee/RAWDataHeader_8h.html" target="_top" xlink:title="Definition of the RAW Data Header. ">
<polygon fill="none" stroke="#000000" points="1230,-118 1230,-137 1371,-137 1371,-118 1230,-118"/>
<text text-anchor="middle" x="1300.5" y="-125" font-family="Helvetica,sans-Serif" font-size="10.00" fill="#000000">Headers/RAWDataHeader.h</text>
</a>
</g>
</g>
<!-- Node35&#45;&gt;Node36 -->
<g id="edge50" class="edge">
<title>Node35&#45;&gt;Node36</title>
<path fill="none" stroke="#191970" d="M1300.5,-179.3906C1300.5,-170.8657 1300.5,-158.1392 1300.5,-147.4235"/>
<polygon fill="#191970" stroke="#191970" points="1304.0001,-147.2448 1300.5,-137.2449 1297.0001,-147.2449 1304.0001,-147.2448"/>
</g>
<!-- Node37 -->
<g id="node38" class="node">
<title>Node37</title>
<polygon fill="none" stroke="#bfbfbf" points="1427.5,-118 1427.5,-137 1473.5,-137 1473.5,-118 1427.5,-118"/>
<text text-anchor="middle" x="1450.5" y="-125" font-family="Helvetica,sans-Serif" font-size="10.00" fill="#000000">cstring</text>
</g>
<!-- Node35&#45;&gt;Node37 -->
<g id="edge57" class="edge">
<title>Node35&#45;&gt;Node37</title>
<path fill="none" stroke="#191970" d="M1324.3373,-179.3778C1347.2263,-170.1191 1382.7635,-155.6938 1413.5,-143 1415.0932,-142.342 1416.7242,-141.6664 1418.3707,-140.9827"/>
<polygon fill="#191970" stroke="#191970" points="1419.9335,-144.1233 1427.8169,-137.045 1417.2401,-137.6621 1419.9335,-144.1233"/>
</g>
<!-- Node36&#45;&gt;Node14 -->
<g id="edge51" class="edge">
<title>Node36&#45;&gt;Node14</title>
<path fill="none" stroke="#191970" d="M1295.9173,-117.8845C1286.6879,-98.5192 1265.7111,-54.5055 1253.5954,-29.084"/>
<polygon fill="#191970" stroke="#191970" points="1256.6079,-27.2697 1249.146,-19.7484 1250.2889,-30.2814 1256.6079,-27.2697"/>
</g>
</g>
</svg>
        <g id="navigator" transform="translate(0 0)" fill="#404254">
                <rect fill="#f2f5e9" fill-opacity="0.5" stroke="#606060" stroke-width=".5" x="0" y="0" width="60" height="60"/>
                <use id="zoomplus" xlink:href="#zoomPlus" x="17" y="9" onmousedown="handleZoom(evt,'in')"/>
                <use id="zoomminus" xlink:href="#zoomMin" x="42" y="9" onmousedown="handleZoom(evt,'out')"/>
                <use id="reset" xlink:href="#resetDef" x="30" y="36" onmousedown="handleReset()"/>
                <g id="arrowUp" xlink:href="#dirArrow" transform="translate(30 24)" onmousedown="handlePan(0,-1)">
                  <use xlink:href="#rim" fill="#404040">
                        <set attributeName="fill" to="#808080" begin="arrowUp.mouseover" end="arrowUp.mouseout"/>
                  </use>
                  <path fill="none" stroke="white" stroke-width="1.5" d="M0,-3.0v7 M-2.5,-0.5L0,-3.0L2.5,-0.5"/>
                </g>
                <g id="arrowRight" xlink:href="#dirArrow" transform="rotate(90) translate(36 -43)" onmousedown="handlePan(1,0)">
                  <use xlink:href="#rim" fill="#404040">
                        <set attributeName="fill" to="#808080" begin="arrowRight.mouseover" end="arrowRight.mouseout"/>
                  </use>
                  <path fill="none" stroke="white" stroke-width="1.5" d="M0,-3.0v7 M-2.5,-0.5L0,-3.0L2.5,-0.5"/>
                </g>
                <g id="arrowDown" xlink:href="#dirArrow" transform="rotate(180) translate(-30 -48)" onmousedown="handlePan(0,1)">
                  <use xlink:href="#rim" fill="#404040">
                        <set attributeName="fill" to="#808080" begin="arrowDown.mouseover" end="arrowDown.mouseout"/>
                  </use>
                  <path fill="none" stroke="white" stroke-width="1.5" d="M0,-3.0v7 M-2.5,-0.5L0,-3.0L2.5,-0.5"/>
                </g>
                <g id="arrowLeft" xlink:href="#dirArrow" transform="rotate(270) translate(-36 17)" onmousedown="handlePan(-1,0)">
                  <use xlink:href="#rim" fill="#404040">
                        <set attributeName="fill" to="#808080" begin="arrowLeft.mouseover" end="arrowLeft.mouseout"/>
                  </use>
                  <path fill="none" stroke="white" stroke-width="1.5" d="M0,-3.0v7 M-2.5,-0.5L0,-3.0L2.5,-0.5"/>
                </g>
        </g>
        <svg viewBox="0 0 15 15" width="100%" height="30px" preserveAspectRatio="xMaxYMin meet">
         <g id="arrow_out" transform="scale(0.3 0.3)">
          <a xlink:href="FDD_2reconstruction_2include_2FDDReconstruction_2ReadRaw_8h__incl_org.svg" target="_base">
           <rect id="button" ry="5" rx="5" y="6" x="6" height="38" width="38"
                fill="#f2f5e9" fill-opacity="0.5" stroke="#606060" stroke-width="1.0"/>
           <path id="arrow"
             d="M 11.500037,31.436501 C 11.940474,20.09759 22.043105,11.32322 32.158766,21.979434 L 37.068811,17.246167 C 37.068811,17.246167 37.088388,32 37.088388,32 L 22.160133,31.978069 C 22.160133,31.978069 26.997745,27.140456 26.997745,27.140456 C 18.528582,18.264221 13.291696,25.230495 11.500037,31.436501 z"
             style="fill:#404040;"/>
          </a>
         </g>
        </svg>
</svg>
