<?xml version="1.0" encoding="UTF-8" standalone="no"?>
<!DOCTYPE svg PUBLIC "-//W3C//DTD SVG 1.1//EN"
 "http://www.w3.org/Graphics/SVG/1.1/DTD/svg11.dtd">
<!-- Generated by graphviz version 2.40.1 (20161225.0304)
 -->
<!-- Title: /home/runner/work/AliceO2/AliceO2/Detectors/MUON/MID/Base/src/Mapping.cxx Pages: 1 -->
<svg width="610pt" height="218pt"
 viewBox="0.00 0.00 610.00 218.00" xmlns="http://www.w3.org/2000/svg" xmlns:xlink="http://www.w3.org/1999/xlink">
<g id="graph0" class="graph" transform="scale(1 1) rotate(0) translate(4 214)">
<title>/home/runner/work/AliceO2/AliceO2/Detectors/MUON/MID/Base/src/Mapping.cxx</title>
<!-- Node0 -->
<g id="node1" class="node">
<title>Node0</title>
<polygon fill="#bfbfbf" stroke="#000000" points="149.5,-168.5 149.5,-209.5 288.5,-209.5 288.5,-168.5 149.5,-168.5"/>
<text text-anchor="start" x="157.5" y="-197.5" font-family="Helvetica,sans-Serif" font-size="10.00" fill="#000000">/home/runner/work/AliceO2</text>
<text text-anchor="start" x="157.5" y="-186.5" font-family="Helvetica,sans-Serif" font-size="10.00" fill="#000000">/AliceO2/Detectors/MUON</text>
<text text-anchor="middle" x="219" y="-175.5" font-family="Helvetica,sans-Serif" font-size="10.00" fill="#000000">/MID/Base/src/Mapping.cxx</text>
</g>
<!-- Node1 -->
<g id="node2" class="node">
<title>Node1</title>
<g id="a_node2"><a xlink:href="../../d3/d07/MUON_2MID_2Base_2include_2MIDBase_2Mapping_8h.html" target="_top" xlink:title="Mapping for MID. ">
<polygon fill="none" stroke="#000000" points="0,-112.5 0,-131.5 106,-131.5 106,-112.5 0,-112.5"/>
<text text-anchor="middle" x="53" y="-119.5" font-family="Helvetica,sans-Serif" font-size="10.00" fill="#000000">MIDBase/Mapping.h</text>
</a>
</g>
</g>
<!-- Node0&#45;&gt;Node1 -->
<g id="edge1" class="edge">
<title>Node0&#45;&gt;Node1</title>
<path fill="none" stroke="#191970" d="M167.84,-168.3511C141.333,-157.6525 109.7194,-144.8928 86.3783,-135.472"/>
<polygon fill="#191970" stroke="#191970" points="87.5036,-132.1519 76.9204,-131.6546 84.8836,-138.6431 87.5036,-132.1519"/>
</g>
<!-- Node5 -->
<g id="node6" class="node">
<title>Node5</title>
<polygon fill="none" stroke="#bfbfbf" points="124.5,-112.5 124.5,-131.5 173.5,-131.5 173.5,-112.5 124.5,-112.5"/>
<text text-anchor="middle" x="149" y="-119.5" font-family="Helvetica,sans-Serif" font-size="10.00" fill="#000000">cassert</text>
</g>
<!-- Node0&#45;&gt;Node5 -->
<g id="edge6" class="edge">
<title>Node0&#45;&gt;Node5</title>
<path fill="none" stroke="#191970" d="M197.2353,-168.168C187.4262,-158.7794 175.9907,-147.834 166.7167,-138.9574"/>
<polygon fill="#191970" stroke="#191970" points="168.8627,-136.1666 159.2184,-131.7805 164.0225,-141.2235 168.8627,-136.1666"/>
</g>
<!-- Node6 -->
<g id="node7" class="node">
<title>Node6</title>
<polygon fill="none" stroke="#bfbfbf" points="192,-112.5 192,-131.5 246,-131.5 246,-112.5 192,-112.5"/>
<text text-anchor="middle" x="219" y="-119.5" font-family="Helvetica,sans-Serif" font-size="10.00" fill="#000000">iostream</text>
</g>
<!-- Node0&#45;&gt;Node6 -->
<g id="edge7" class="edge">
<title>Node0&#45;&gt;Node6</title>
<path fill="none" stroke="#191970" d="M219,-168.168C219,-159.8226 219,-150.2471 219,-141.9879"/>
<polygon fill="#191970" stroke="#191970" points="222.5001,-141.7804 219,-131.7805 215.5001,-141.7805 222.5001,-141.7804"/>
</g>
<!-- Node7 -->
<g id="node8" class="node">
<title>Node7</title>
<g id="a_node8"><a xlink:href="../../dc/de4/DetectorParameters_8h.html" target="_top" xlink:title="Useful detector parameters for MID. ">
<polygon fill="none" stroke="#000000" points="264.5,-112.5 264.5,-131.5 421.5,-131.5 421.5,-112.5 264.5,-112.5"/>
<text text-anchor="middle" x="343" y="-119.5" font-family="Helvetica,sans-Serif" font-size="10.00" fill="#000000">MIDBase/DetectorParameters.h</text>
</a>
</g>
</g>
<!-- Node0&#45;&gt;Node7 -->
<g id="edge8" class="edge">
<title>Node0&#45;&gt;Node7</title>
<path fill="none" stroke="#191970" d="M257.2159,-168.3511C276.3091,-158.0346 298.9494,-145.8015 316.1755,-136.4939"/>
<polygon fill="#191970" stroke="#191970" points="317.9976,-139.4876 325.1317,-131.6546 314.67,-133.3291 317.9976,-139.4876"/>
</g>
<!-- Node9 -->
<g id="node10" class="node">
<title>Node9</title>
<g id="a_node10"><a xlink:href="../../db/db5/GeometryParameters_8h.html" target="_top" xlink:title="Useful geometrical parameters for MID. ">
<polygon fill="none" stroke="#000000" points="440,-112.5 440,-131.5 602,-131.5 602,-112.5 440,-112.5"/>
<text text-anchor="middle" x="521" y="-119.5" font-family="Helvetica,sans-Serif" font-size="10.00" fill="#000000">MIDBase/GeometryParameters.h</text>
</a>
</g>
</g>
<!-- Node0&#45;&gt;Node9 -->
<g id="edge11" class="edge">
<title>Node0&#45;&gt;Node9</title>
<path fill="none" stroke="#191970" d="M288.6641,-173.5447C343.2583,-161.4328 418.0712,-144.8352 467.8937,-133.7819"/>
<polygon fill="#191970" stroke="#191970" points="468.8159,-137.1625 477.8204,-131.5796 467.2997,-130.3286 468.8159,-137.1625"/>
</g>
<!-- Node2 -->
<g id="node3" class="node">
<title>Node2</title>
<polygon fill="none" stroke="#bfbfbf" points="252,-.5 252,-19.5 290,-19.5 290,-.5 252,-.5"/>
<text text-anchor="middle" x="271" y="-7.5" font-family="Helvetica,sans-Serif" font-size="10.00" fill="#000000">array</text>
</g>
<!-- Node1&#45;&gt;Node2 -->
<g id="edge2" class="edge">
<title>Node1&#45;&gt;Node2</title>
<path fill="none" stroke="#191970" d="M52.8976,-112.3869C53.2929,-97.9911 56.2528,-70.932 72,-56 96.2716,-32.9849 192.8434,-18.9095 241.9717,-13.0969"/>
<polygon fill="#191970" stroke="#191970" points="242.4362,-16.5667 251.9725,-11.9506 241.6389,-9.6122 242.4362,-16.5667"/>
</g>
<!-- Node3 -->
<g id="node4" class="node">
<title>Node3</title>
<polygon fill="none" stroke="#bfbfbf" points="81,-56.5 81,-75.5 125,-75.5 125,-56.5 81,-56.5"/>
<text text-anchor="middle" x="103" y="-63.5" font-family="Helvetica,sans-Serif" font-size="10.00" fill="#000000">vector</text>
</g>
<!-- Node1&#45;&gt;Node3 -->
<g id="edge3" class="edge">
<title>Node1&#45;&gt;Node3</title>
<path fill="none" stroke="#191970" d="M61.7093,-112.2455C68.8073,-104.2958 79.0084,-92.8706 87.495,-83.3656"/>
<polygon fill="#191970" stroke="#191970" points="90.3411,-85.4331 94.3905,-75.6427 85.1195,-80.771 90.3411,-85.4331"/>
</g>
<!-- Node4 -->
<g id="node5" class="node">
<title>Node4</title>
<g id="a_node5"><a xlink:href="../../d7/d0a/MpArea_8h.html" target="_top" xlink:title="Mapping area for MID. ">
<polygon fill="none" stroke="#000000" points="175.5,-56.5 175.5,-75.5 278.5,-75.5 278.5,-56.5 175.5,-56.5"/>
<text text-anchor="middle" x="227" y="-63.5" font-family="Helvetica,sans-Serif" font-size="10.00" fill="#000000">MIDBase/MpArea.h</text>
</a>
</g>
</g>
<!-- Node1&#45;&gt;Node4 -->
<g id="edge4" class="edge">
<title>Node1&#45;&gt;Node4</title>
<path fill="none" stroke="#191970" d="M82.9117,-112.3733C111.8452,-103.0613 155.8611,-88.8953 187.6293,-78.671"/>
<polygon fill="#191970" stroke="#191970" points="189.0318,-81.8965 197.4787,-75.5011 186.8872,-75.2331 189.0318,-81.8965"/>
</g>
<!-- Node4&#45;&gt;Node2 -->
<g id="edge5" class="edge">
<title>Node4&#45;&gt;Node2</title>
<path fill="none" stroke="#191970" d="M234.6642,-56.2455C240.8473,-48.3761 249.7063,-37.101 257.1289,-27.6542"/>
<polygon fill="#191970" stroke="#191970" points="259.9975,-29.6683 263.4236,-19.6427 254.4932,-25.3435 259.9975,-29.6683"/>
</g>
<!-- Node7&#45;&gt;Node2 -->
<g id="edge9" class="edge">
<title>Node7&#45;&gt;Node2</title>
<path fill="none" stroke="#191970" d="M336.8613,-112.4509C324.8526,-93.7707 298.0796,-52.1238 282.6204,-28.0761"/>
<polygon fill="#191970" stroke="#191970" points="285.4749,-26.044 277.1231,-19.5249 279.5866,-29.8294 285.4749,-26.044"/>
</g>
<!-- Node8 -->
<g id="node9" class="node">
<title>Node8</title>
<polygon fill="none" stroke="#bfbfbf" points="349.5,-56.5 349.5,-75.5 390.5,-75.5 390.5,-56.5 349.5,-56.5"/>
<text text-anchor="middle" x="370" y="-63.5" font-family="Helvetica,sans-Serif" font-size="10.00" fill="#000000">string</text>
</g>
<!-- Node7&#45;&gt;Node8 -->
<g id="edge10" class="edge">
<title>Node7&#45;&gt;Node8</title>
<path fill="none" stroke="#191970" d="M347.703,-112.2455C351.3424,-104.6973 356.4924,-94.0158 360.9262,-84.8197"/>
<polygon fill="#191970" stroke="#191970" points="364.1605,-86.1704 365.3509,-75.6427 357.8551,-83.1303 364.1605,-86.1704"/>
</g>
<!-- Node9&#45;&gt;Node2 -->
<g id="edge12" class="edge">
<title>Node9&#45;&gt;Node2</title>
<path fill="none" stroke="#191970" d="M505.2081,-112.4542C482.3189,-98.852 438.3513,-73.5944 399,-56 365.696,-41.1094 325.9721,-27.4384 299.706,-18.938"/>
<polygon fill="#191970" stroke="#191970" points="300.5949,-15.5477 290.004,-15.8355 298.4627,-22.2151 300.5949,-15.5477"/>
</g>
<!-- Node9&#45;&gt;Node8 -->
<g id="edge13" class="edge">
<title>Node9&#45;&gt;Node8</title>
<path fill="none" stroke="#191970" d="M495.0422,-112.3733C468.7573,-102.6252 428.129,-87.5578 400.3656,-77.2614"/>
<polygon fill="#191970" stroke="#191970" points="401.3624,-73.8982 390.7694,-73.7026 398.9283,-80.4614 401.3624,-73.8982"/>
</g>
</g>
</svg>
