<?xml version="1.0" encoding="UTF-8" standalone="no"?>
<!DOCTYPE svg PUBLIC "-//W3C//DTD SVG 1.1//EN"
 "http://www.w3.org/Graphics/SVG/1.1/DTD/svg11.dtd">
<!-- Generated by graphviz version 2.40.1 (20161225.0304)
 -->
<!-- Title: /home/runner/work/AliceO2/AliceO2/Common/MathUtils/src/Cartesian.cxx Pages: 1 -->
<svg width="1723pt" height="285pt"
 viewBox="0.00 0.00 1723.00 285.00" xmlns="http://www.w3.org/2000/svg" xmlns:xlink="http://www.w3.org/1999/xlink">
<g id="graph0" class="graph" transform="scale(1 1) rotate(0) translate(4 281)">
<title>/home/runner/work/AliceO2/AliceO2/Common/MathUtils/src/Cartesian.cxx</title>
<!-- Node0 -->
<g id="node1" class="node">
<title>Node0</title>
<polygon fill="#bfbfbf" stroke="#000000" points="749,-235.5 749,-276.5 891,-276.5 891,-235.5 749,-235.5"/>
<text text-anchor="start" x="757" y="-264.5" font-family="Helvetica,sans-Serif" font-size="10.00" fill="#000000">/home/runner/work/AliceO2</text>
<text text-anchor="start" x="757" y="-253.5" font-family="Helvetica,sans-Serif" font-size="10.00" fill="#000000">/AliceO2/Common/MathUtils</text>
<text text-anchor="middle" x="820" y="-242.5" font-family="Helvetica,sans-Serif" font-size="10.00" fill="#000000">/src/Cartesian.cxx</text>
</g>
<!-- Node1 -->
<g id="node2" class="node">
<title>Node1</title>
<polygon fill="none" stroke="#bfbfbf" points="743,-179.5 743,-198.5 797,-198.5 797,-179.5 743,-179.5"/>
<text text-anchor="middle" x="770" y="-186.5" font-family="Helvetica,sans-Serif" font-size="10.00" fill="#000000">iostream</text>
</g>
<!-- Node0&#45;&gt;Node1 -->
<g id="edge1" class="edge">
<title>Node0&#45;&gt;Node1</title>
<path fill="none" stroke="#191970" d="M804.4538,-235.168C797.7304,-226.1587 789.9372,-215.7159 783.4651,-207.0432"/>
<polygon fill="#191970" stroke="#191970" points="786.0848,-204.7015 777.2989,-198.7805 780.4747,-208.8881 786.0848,-204.7015"/>
</g>
<!-- Node2 -->
<g id="node3" class="node">
<title>Node2</title>
<g id="a_node3"><a xlink:href="../../dc/d73/Cartesian_8h.html" target="_top" xlink:title="MathUtils/Cartesian.h">
<polygon fill="none" stroke="#000000" points="815,-179.5 815,-198.5 927,-198.5 927,-179.5 815,-179.5"/>
<text text-anchor="middle" x="871" y="-186.5" font-family="Helvetica,sans-Serif" font-size="10.00" fill="#000000">MathUtils/Cartesian.h</text>
</a>
</g>
</g>
<!-- Node0&#45;&gt;Node2 -->
<g id="edge2" class="edge">
<title>Node0&#45;&gt;Node2</title>
<path fill="none" stroke="#191970" d="M835.8572,-235.168C842.7872,-226.0639 850.8315,-215.4959 857.4736,-206.7699"/>
<polygon fill="#191970" stroke="#191970" points="860.2832,-208.8574 863.5552,-198.7805 854.7133,-204.6176 860.2832,-208.8574"/>
</g>
<!-- Node3 -->
<g id="node4" class="node">
<title>Node3</title>
<g id="a_node4"><a xlink:href="../../df/d21/GPUCommonDef_8h.html" target="_top" xlink:title="GPUCommonDef.h">
<polygon fill="none" stroke="#000000" points="850,-56.5 850,-75.5 952,-75.5 952,-56.5 850,-56.5"/>
<text text-anchor="middle" x="901" y="-63.5" font-family="Helvetica,sans-Serif" font-size="10.00" fill="#000000">GPUCommonDef.h</text>
</a>
</g>
</g>
<!-- Node2&#45;&gt;Node3 -->
<g id="edge3" class="edge">
<title>Node2&#45;&gt;Node3</title>
<path fill="none" stroke="#191970" d="M814.6729,-179.9942C811.7431,-179.6323 808.8388,-179.2975 806,-179 735.1644,-171.5763 214.928,-194.7575 166,-143 156.5352,-132.9878 156.5668,-122.042 166,-112 188.934,-87.5858 666.9918,-72.3144 839.559,-67.58"/>
<polygon fill="#191970" stroke="#191970" points="839.8448,-71.0736 849.7459,-67.303 839.6545,-64.0762 839.8448,-71.0736"/>
</g>
<!-- Node6 -->
<g id="node7" class="node">
<title>Node6</title>
<g id="a_node7"><a xlink:href="../../d2/d45/GPUCommonRtypes_8h.html" target="_top" xlink:title="GPUCommonRtypes.h">
<polygon fill="none" stroke="#000000" points="0,-118 0,-137 118,-137 118,-118 0,-118"/>
<text text-anchor="middle" x="59" y="-125" font-family="Helvetica,sans-Serif" font-size="10.00" fill="#000000">GPUCommonRtypes.h</text>
</a>
</g>
</g>
<!-- Node2&#45;&gt;Node6 -->
<g id="edge6" class="edge">
<title>Node2&#45;&gt;Node6</title>
<path fill="none" stroke="#191970" d="M814.6739,-179.9844C811.7438,-179.625 808.8392,-179.2935 806,-179 507.6075,-148.1547 429.4008,-182.2722 132,-143 124.3233,-141.9863 116.2523,-140.6011 108.3894,-139.0731"/>
<polygon fill="#191970" stroke="#191970" points="109.0836,-135.6427 98.5865,-137.0785 107.6879,-142.5022 109.0836,-135.6427"/>
</g>
<!-- Node8 -->
<g id="node9" class="node">
<title>Node8</title>
<polygon fill="none" stroke="#bfbfbf" points="174.5,-112.5 174.5,-142.5 325.5,-142.5 325.5,-112.5 174.5,-112.5"/>
<text text-anchor="start" x="182.5" y="-130.5" font-family="Helvetica,sans-Serif" font-size="10.00" fill="#000000">Math/GenVector/Displacement</text>
<text text-anchor="middle" x="250" y="-119.5" font-family="Helvetica,sans-Serif" font-size="10.00" fill="#000000">Vector3D.h</text>
</g>
<!-- Node2&#45;&gt;Node8 -->
<g id="edge8" class="edge">
<title>Node2&#45;&gt;Node8</title>
<path fill="none" stroke="#191970" d="M814.6653,-180.0638C811.7374,-179.6837 808.8357,-179.326 806,-179 600.6889,-155.3955 544.9494,-169.4133 336.0055,-143.0389"/>
<polygon fill="#191970" stroke="#191970" points="336.3018,-139.5484 325.9387,-141.7521 335.4142,-146.4919 336.3018,-139.5484"/>
</g>
<!-- Node9 -->
<g id="node10" class="node">
<title>Node9</title>
<polygon fill="none" stroke="#bfbfbf" points="344,-118 344,-137 520,-137 520,-118 344,-118"/>
<text text-anchor="middle" x="432" y="-125" font-family="Helvetica,sans-Serif" font-size="10.00" fill="#000000">Math/GenVector/PositionVector3D.h</text>
</g>
<!-- Node2&#45;&gt;Node9 -->
<g id="edge9" class="edge">
<title>Node2&#45;&gt;Node9</title>
<path fill="none" stroke="#191970" d="M814.9925,-180.2983C811.9517,-179.8525 808.9391,-179.417 806,-179 683.0846,-161.5601 651.8643,-160.7966 529,-143 519.6051,-141.6392 509.7098,-140.1373 499.9758,-138.6201"/>
<polygon fill="#191970" stroke="#191970" points="500.3404,-135.1345 489.9181,-137.0387 499.2531,-142.0495 500.3404,-135.1345"/>
</g>
<!-- Node10 -->
<g id="node11" class="node">
<title>Node10</title>
<polygon fill="none" stroke="#bfbfbf" points="537.5,-118 537.5,-137 686.5,-137 686.5,-118 537.5,-118"/>
<text text-anchor="middle" x="612" y="-125" font-family="Helvetica,sans-Serif" font-size="10.00" fill="#000000">Math/GenVector/Rotation3D.h</text>
</g>
<!-- Node2&#45;&gt;Node10 -->
<g id="edge10" class="edge">
<title>Node2&#45;&gt;Node10</title>
<path fill="none" stroke="#191970" d="M830.8154,-179.4581C785.3539,-168.6632 711.2598,-151.0694 662.0727,-139.3899"/>
<polygon fill="#191970" stroke="#191970" points="662.8169,-135.9693 652.2788,-137.0643 661.1997,-142.78 662.8169,-135.9693"/>
</g>
<!-- Node11 -->
<g id="node12" class="node">
<title>Node11</title>
<polygon fill="none" stroke="#bfbfbf" points="705,-118 705,-137 861,-137 861,-118 705,-118"/>
<text text-anchor="middle" x="783" y="-125" font-family="Helvetica,sans-Serif" font-size="10.00" fill="#000000">Math/GenVector/Transform3D.h</text>
</g>
<!-- Node2&#45;&gt;Node11 -->
<g id="edge11" class="edge">
<title>Node2&#45;&gt;Node11</title>
<path fill="none" stroke="#191970" d="M857.25,-179.3906C843.3009,-169.6421 821.4902,-154.3994 805.1103,-142.9521"/>
<polygon fill="#191970" stroke="#191970" points="806.8551,-139.9015 796.6534,-137.0419 802.8452,-145.6392 806.8551,-139.9015"/>
</g>
<!-- Node12 -->
<g id="node13" class="node">
<title>Node12</title>
<polygon fill="none" stroke="#bfbfbf" points="879,-118 879,-137 1039,-137 1039,-118 879,-118"/>
<text text-anchor="middle" x="959" y="-125" font-family="Helvetica,sans-Serif" font-size="10.00" fill="#000000">Math/GenVector/Translation3D.h</text>
</g>
<!-- Node2&#45;&gt;Node12 -->
<g id="edge12" class="edge">
<title>Node2&#45;&gt;Node12</title>
<path fill="none" stroke="#191970" d="M884.75,-179.3906C898.6991,-169.6421 920.5098,-154.3994 936.8897,-142.9521"/>
<polygon fill="#191970" stroke="#191970" points="939.1548,-145.6392 945.3466,-137.0419 935.1449,-139.9015 939.1548,-145.6392"/>
</g>
<!-- Node13 -->
<g id="node14" class="node">
<title>Node13</title>
<polygon fill="none" stroke="#bfbfbf" points="1057.5,-112.5 1057.5,-142.5 1208.5,-142.5 1208.5,-112.5 1057.5,-112.5"/>
<text text-anchor="start" x="1065.5" y="-130.5" font-family="Helvetica,sans-Serif" font-size="10.00" fill="#000000">Math/GenVector/Displacement</text>
<text text-anchor="middle" x="1133" y="-119.5" font-family="Helvetica,sans-Serif" font-size="10.00" fill="#000000">Vector2D.h</text>
</g>
<!-- Node2&#45;&gt;Node13 -->
<g id="edge13" class="edge">
<title>Node2&#45;&gt;Node13</title>
<path fill="none" stroke="#191970" d="M911.65,-179.4581C950.8999,-170.2449 1011.2479,-156.0792 1059.0235,-144.8647"/>
<polygon fill="#191970" stroke="#191970" points="1060.0797,-148.212 1069.0153,-142.5193 1058.48,-141.3972 1060.0797,-148.212"/>
</g>
<!-- Node14 -->
<g id="node15" class="node">
<title>Node14</title>
<polygon fill="none" stroke="#bfbfbf" points="1227,-118 1227,-137 1403,-137 1403,-118 1227,-118"/>
<text text-anchor="middle" x="1315" y="-125" font-family="Helvetica,sans-Serif" font-size="10.00" fill="#000000">Math/GenVector/PositionVector2D.h</text>
</g>
<!-- Node2&#45;&gt;Node14 -->
<g id="edge14" class="edge">
<title>Node2&#45;&gt;Node14</title>
<path fill="none" stroke="#191970" d="M927.2584,-182.0103C995.9477,-173.3682 1115.6265,-157.9622 1218,-143 1227.3931,-141.6272 1237.2875,-140.1185 1247.021,-138.598"/>
<polygon fill="#191970" stroke="#191970" points="1247.7445,-142.0273 1257.0784,-137.0144 1246.6557,-135.1125 1247.7445,-142.0273"/>
</g>
<!-- Node15 -->
<g id="node16" class="node">
<title>Node15</title>
<polygon fill="none" stroke="#bfbfbf" points="1421,-118 1421,-137 1497,-137 1497,-118 1421,-118"/>
<text text-anchor="middle" x="1459" y="-125" font-family="Helvetica,sans-Serif" font-size="10.00" fill="#000000">TGeoMatrix.h</text>
</g>
<!-- Node2&#45;&gt;Node15 -->
<g id="edge15" class="edge">
<title>Node2&#45;&gt;Node15</title>
<path fill="none" stroke="#191970" d="M927.196,-185.8911C1046.2511,-179.032 1320.4563,-161.7179 1412,-143 1415.8669,-142.2093 1419.8595,-141.2033 1423.808,-140.0847"/>
<polygon fill="#191970" stroke="#191970" points="1424.9024,-143.41 1433.4359,-137.1307 1422.8492,-136.7179 1424.9024,-143.41"/>
</g>
<!-- Node16 -->
<g id="node17" class="node">
<title>Node16</title>
<polygon fill="none" stroke="#bfbfbf" points="1515.5,-118 1515.5,-137 1560.5,-137 1560.5,-118 1515.5,-118"/>
<text text-anchor="middle" x="1538" y="-125" font-family="Helvetica,sans-Serif" font-size="10.00" fill="#000000">iosfwd</text>
</g>
<!-- Node2&#45;&gt;Node16 -->
<g id="edge16" class="edge">
<title>Node2&#45;&gt;Node16</title>
<path fill="none" stroke="#191970" d="M927.4474,-187.6337C1061.8403,-183.943 1397.6297,-172.0253 1506,-143 1507.923,-142.485 1509.8693,-141.8537 1511.8026,-141.1437"/>
<polygon fill="#191970" stroke="#191970" points="1513.3849,-144.2733 1521.1917,-137.1106 1510.6221,-137.8416 1513.3849,-144.2733"/>
</g>
<!-- Node17 -->
<g id="node18" class="node">
<title>Node17</title>
<g id="a_node18"><a xlink:href="../../d1/da8/GPUROOTCartesianFwd_8h.html" target="_top" xlink:title="GPUROOTCartesianFwd.h">
<polygon fill="none" stroke="#000000" points="1579,-118 1579,-137 1715,-137 1715,-118 1579,-118"/>
<text text-anchor="middle" x="1647" y="-125" font-family="Helvetica,sans-Serif" font-size="10.00" fill="#000000">GPUROOTCartesianFwd.h</text>
</a>
</g>
</g>
<!-- Node2&#45;&gt;Node17 -->
<g id="edge17" class="edge">
<title>Node2&#45;&gt;Node17</title>
<path fill="none" stroke="#191970" d="M927.426,-187.8278C1046.597,-184.7947 1332.5051,-174.5759 1570,-143 1578.0723,-141.9268 1586.5687,-140.5108 1594.8519,-138.9703"/>
<polygon fill="#191970" stroke="#191970" points="1595.6541,-142.3801 1604.8072,-137.0443 1594.3244,-135.5076 1595.6541,-142.3801"/>
</g>
<!-- Node4 -->
<g id="node5" class="node">
<title>Node4</title>
<g id="a_node5"><a xlink:href="../../d5/d93/GPUCommonDefSettings_8h.html" target="_top" xlink:title="GPUCommonDefSettings.h">
<polygon fill="none" stroke="#000000" points="759,-.5 759,-19.5 897,-19.5 897,-.5 759,-.5"/>
<text text-anchor="middle" x="828" y="-7.5" font-family="Helvetica,sans-Serif" font-size="10.00" fill="#000000">GPUCommonDefSettings.h</text>
</a>
</g>
</g>
<!-- Node3&#45;&gt;Node4 -->
<g id="edge4" class="edge">
<title>Node3&#45;&gt;Node4</title>
<path fill="none" stroke="#191970" d="M888.2844,-56.2455C877.398,-47.8943 861.5117,-35.7076 848.78,-25.9408"/>
<polygon fill="#191970" stroke="#191970" points="850.6346,-22.9523 840.5699,-19.6427 846.3739,-28.5063 850.6346,-22.9523"/>
</g>
<!-- Node5 -->
<g id="node6" class="node">
<title>Node5</title>
<g id="a_node6"><a xlink:href="../../da/d5a/GPUCommonDefAPI_8h.html" target="_top" xlink:title="GPUCommonDefAPI.h">
<polygon fill="none" stroke="#000000" points="915.5,-.5 915.5,-19.5 1034.5,-19.5 1034.5,-.5 915.5,-.5"/>
<text text-anchor="middle" x="975" y="-7.5" font-family="Helvetica,sans-Serif" font-size="10.00" fill="#000000">GPUCommonDefAPI.h</text>
</a>
</g>
</g>
<!-- Node3&#45;&gt;Node5 -->
<g id="edge5" class="edge">
<title>Node3&#45;&gt;Node5</title>
<path fill="none" stroke="#191970" d="M913.8898,-56.2455C924.9254,-47.8943 941.0292,-35.7076 953.9353,-25.9408"/>
<polygon fill="#191970" stroke="#191970" points="956.3959,-28.4681 962.2579,-19.6427 952.1717,-22.8862 956.3959,-28.4681"/>
</g>
<!-- Node7 -->
<g id="node8" class="node">
<title>Node7</title>
<polygon fill="none" stroke="#bfbfbf" points="31,-56.5 31,-75.5 87,-75.5 87,-56.5 31,-56.5"/>
<text text-anchor="middle" x="59" y="-63.5" font-family="Helvetica,sans-Serif" font-size="10.00" fill="#000000">Rtypes.h</text>
</g>
<!-- Node6&#45;&gt;Node7 -->
<g id="edge7" class="edge">
<title>Node6&#45;&gt;Node7</title>
<path fill="none" stroke="#191970" d="M59,-117.8906C59,-109.3657 59,-96.6392 59,-85.9235"/>
<polygon fill="#191970" stroke="#191970" points="62.5001,-85.7448 59,-75.7449 55.5001,-85.7449 62.5001,-85.7448"/>
</g>
<!-- Node17&#45;&gt;Node3 -->
<g id="edge18" class="edge">
<title>Node17&#45;&gt;Node3</title>
<path fill="none" stroke="#191970" d="M1604.8041,-117.9783C1593.5449,-115.7198 1581.3523,-113.5263 1570,-112 1347.3969,-82.0712 1080.355,-71.1269 962.281,-67.5507"/>
<polygon fill="#191970" stroke="#191970" points="962.1017,-64.044 952.0026,-67.2468 961.8947,-71.041 962.1017,-64.044"/>
</g>
</g>
</svg>
