<?xml version="1.0" encoding="UTF-8" standalone="no"?>
<!DOCTYPE svg PUBLIC "-//W3C//DTD SVG 1.1//EN"
 "http://www.w3.org/Graphics/SVG/1.1/DTD/svg11.dtd">
<!-- Generated by graphviz version 2.40.1 (20161225.0304)
 -->
<!-- Title: /home/runner/work/AliceO2/AliceO2/Framework/Core/include/Framework/ArrowContext.h Pages: 1 -->
<svg width="493pt" height="128pt"
 viewBox="0.00 0.00 492.50 128.00" xmlns="http://www.w3.org/2000/svg" xmlns:xlink="http://www.w3.org/1999/xlink">
<g id="graph0" class="graph" transform="scale(1 1) rotate(0) translate(4 124)">
<title>/home/runner/work/AliceO2/AliceO2/Framework/Core/include/Framework/ArrowContext.h</title>
<!-- Node7 -->
<g id="node1" class="node">
<title>Node7</title>
<polygon fill="#bfbfbf" stroke="#000000" points="177.5,-78.5 177.5,-119.5 350.5,-119.5 350.5,-78.5 177.5,-78.5"/>
<text text-anchor="start" x="185.5" y="-107.5" font-family="Helvetica,sans-Serif" font-size="10.00" fill="#000000">/home/runner/work/AliceO2</text>
<text text-anchor="start" x="185.5" y="-96.5" font-family="Helvetica,sans-Serif" font-size="10.00" fill="#000000">/AliceO2/Framework/Core</text>
<text text-anchor="middle" x="264" y="-85.5" font-family="Helvetica,sans-Serif" font-size="10.00" fill="#000000">/include/Framework/ArrowContext.h</text>
</g>
<!-- Node8 -->
<g id="node2" class="node">
<title>Node8</title>
<g id="a_node2"><a xlink:href="../../d9/d10/CommonMessageBackends_8cxx.html" target="_top" xlink:title="/home/runner/work/AliceO2\l/AliceO2/Framework/Core\l/src/CommonMessageBackends.cxx">
<polygon fill="none" stroke="#000000" points="0,-.5 0,-41.5 178,-41.5 178,-.5 0,-.5"/>
<text text-anchor="start" x="8" y="-29.5" font-family="Helvetica,sans-Serif" font-size="10.00" fill="#000000">/home/runner/work/AliceO2</text>
<text text-anchor="start" x="8" y="-18.5" font-family="Helvetica,sans-Serif" font-size="10.00" fill="#000000">/AliceO2/Framework/Core</text>
<text text-anchor="middle" x="89" y="-7.5" font-family="Helvetica,sans-Serif" font-size="10.00" fill="#000000">/src/CommonMessageBackends.cxx</text>
</a>
</g>
</g>
<!-- Node7&#45;&gt;Node8 -->
<g id="edge1" class="edge">
<title>Node7&#45;&gt;Node8</title>
<path fill="none" stroke="#191970" d="M208.363,-74.2018C184.7361,-63.671 157.5195,-51.5401 135.0471,-41.5239"/>
<polygon fill="#191970" stroke="#191970" points="207.004,-77.4279 217.5627,-78.3022 209.8537,-71.0343 207.004,-77.4279"/>
</g>
<!-- Node9 -->
<g id="node3" class="node">
<title>Node9</title>
<g id="a_node3"><a xlink:href="../../db/d9d/DataAllocator_8cxx.html" target="_top" xlink:title="/home/runner/work/AliceO2\l/AliceO2/Framework/Core\l/src/DataAllocator.cxx">
<polygon fill="none" stroke="#000000" points="196.5,-.5 196.5,-41.5 331.5,-41.5 331.5,-.5 196.5,-.5"/>
<text text-anchor="start" x="204.5" y="-29.5" font-family="Helvetica,sans-Serif" font-size="10.00" fill="#000000">/home/runner/work/AliceO2</text>
<text text-anchor="start" x="204.5" y="-18.5" font-family="Helvetica,sans-Serif" font-size="10.00" fill="#000000">/AliceO2/Framework/Core</text>
<text text-anchor="middle" x="264" y="-7.5" font-family="Helvetica,sans-Serif" font-size="10.00" fill="#000000">/src/DataAllocator.cxx</text>
</a>
</g>
</g>
<!-- Node7&#45;&gt;Node9 -->
<g id="edge2" class="edge">
<title>Node7&#45;&gt;Node9</title>
<path fill="none" stroke="#191970" d="M264,-68.0789C264,-59.2178 264,-49.7747 264,-41.6898"/>
<polygon fill="#191970" stroke="#191970" points="260.5001,-68.0974 264,-78.0974 267.5001,-68.0975 260.5001,-68.0974"/>
</g>
<!-- Node10 -->
<g id="node4" class="node">
<title>Node10</title>
<g id="a_node4"><a xlink:href="../../dd/dd9/DataProcessor_8cxx.html" target="_top" xlink:title="/home/runner/work/AliceO2\l/AliceO2/Framework/Core\l/src/DataProcessor.cxx">
<polygon fill="none" stroke="#000000" points="349.5,-.5 349.5,-41.5 484.5,-41.5 484.5,-.5 349.5,-.5"/>
<text text-anchor="start" x="357.5" y="-29.5" font-family="Helvetica,sans-Serif" font-size="10.00" fill="#000000">/home/runner/work/AliceO2</text>
<text text-anchor="start" x="357.5" y="-18.5" font-family="Helvetica,sans-Serif" font-size="10.00" fill="#000000">/AliceO2/Framework/Core</text>
<text text-anchor="middle" x="417" y="-7.5" font-family="Helvetica,sans-Serif" font-size="10.00" fill="#000000">/src/DataProcessor.cxx</text>
</a>
</g>
</g>
<!-- Node7&#45;&gt;Node10 -->
<g id="edge3" class="edge">
<title>Node7&#45;&gt;Node10</title>
<path fill="none" stroke="#191970" d="M313.7424,-73.6411C334.1403,-63.2422 357.4421,-51.3628 376.7417,-41.5239"/>
<polygon fill="#191970" stroke="#191970" points="311.9189,-70.6421 304.5995,-78.3022 315.0982,-76.8785 311.9189,-70.6421"/>
</g>
</g>
</svg>
