<?xml version="1.0" encoding="UTF-8" standalone="no"?>
<!DOCTYPE svg PUBLIC "-//W3C//DTD SVG 1.1//EN"
 "http://www.w3.org/Graphics/SVG/1.1/DTD/svg11.dtd">
<!-- Generated by graphviz version 2.40.1 (20161225.0304)
 -->
<!-- Title: /home/runner/work/AliceO2/AliceO2/Generators/include/Generators/Trigger.h Pages: 1 -->
<svg width="1328pt" height="362pt"
 viewBox="0.00 0.00 1328.00 362.00" xmlns="http://www.w3.org/2000/svg" xmlns:xlink="http://www.w3.org/1999/xlink">
<g id="graph0" class="graph" transform="scale(1 1) rotate(0) translate(4 358)">
<title>/home/runner/work/AliceO2/AliceO2/Generators/include/Generators/Trigger.h</title>
<!-- Node3 -->
<g id="node1" class="node">
<title>Node3</title>
<polygon fill="#bfbfbf" stroke="#000000" points="816,-312.5 816,-353.5 955,-353.5 955,-312.5 816,-312.5"/>
<text text-anchor="start" x="824" y="-341.5" font-family="Helvetica,sans-Serif" font-size="10.00" fill="#000000">/home/runner/work/AliceO2</text>
<text text-anchor="start" x="824" y="-330.5" font-family="Helvetica,sans-Serif" font-size="10.00" fill="#000000">/AliceO2/Generators/include</text>
<text text-anchor="middle" x="885.5" y="-319.5" font-family="Helvetica,sans-Serif" font-size="10.00" fill="#000000">/Generators/Trigger.h</text>
</g>
<!-- Node4 -->
<g id="node2" class="node">
<title>Node4</title>
<g id="a_node2"><a xlink:href="../../d9/d12/Generator_8h.html" target="_top" xlink:title="/home/runner/work/AliceO2\l/AliceO2/Generators/include\l/Generators/Generator.h">
<polygon fill="none" stroke="#000000" points="767,-234.5 767,-275.5 906,-275.5 906,-234.5 767,-234.5"/>
<text text-anchor="start" x="775" y="-263.5" font-family="Helvetica,sans-Serif" font-size="10.00" fill="#000000">/home/runner/work/AliceO2</text>
<text text-anchor="start" x="775" y="-252.5" font-family="Helvetica,sans-Serif" font-size="10.00" fill="#000000">/AliceO2/Generators/include</text>
<text text-anchor="middle" x="836.5" y="-241.5" font-family="Helvetica,sans-Serif" font-size="10.00" fill="#000000">/Generators/Generator.h</text>
</a>
</g>
</g>
<!-- Node3&#45;&gt;Node4 -->
<g id="edge1" class="edge">
<title>Node3&#45;&gt;Node4</title>
<path fill="none" stroke="#191970" d="M866.9793,-303.5181C861.1559,-294.2482 854.8525,-284.2141 849.4974,-275.6898"/>
<polygon fill="#191970" stroke="#191970" points="864.0856,-305.4915 872.3689,-312.0974 870.0131,-301.7678 864.0856,-305.4915"/>
</g>
<!-- Node19 -->
<g id="node17" class="node">
<title>Node19</title>
<g id="a_node17"><a xlink:href="../../d6/d2d/Generator_8cxx.html" target="_top" xlink:title="/home/runner/work/AliceO2\l/AliceO2/Generators/src\l/Generator.cxx">
<polygon fill="none" stroke="#000000" points="1172,-156.5 1172,-197.5 1307,-197.5 1307,-156.5 1172,-156.5"/>
<text text-anchor="start" x="1180" y="-185.5" font-family="Helvetica,sans-Serif" font-size="10.00" fill="#000000">/home/runner/work/AliceO2</text>
<text text-anchor="start" x="1180" y="-174.5" font-family="Helvetica,sans-Serif" font-size="10.00" fill="#000000">/AliceO2/Generators/src</text>
<text text-anchor="middle" x="1239.5" y="-163.5" font-family="Helvetica,sans-Serif" font-size="10.00" fill="#000000">/Generator.cxx</text>
</a>
</g>
</g>
<!-- Node3&#45;&gt;Node19 -->
<g id="edge22" class="edge">
<title>Node3&#45;&gt;Node19</title>
<path fill="none" stroke="#191970" d="M902.0932,-303.7691C917.3949,-277.8595 939.7574,-242.8038 953.5,-234 1032.8673,-183.1553 1070.4825,-218.4237 1162.5,-198 1165.6112,-197.3094 1168.785,-196.5735 1171.9848,-195.8058"/>
<polygon fill="#191970" stroke="#191970" points="899.0188,-302.0933 897.001,-312.4943 905.0645,-305.6218 899.0188,-302.0933"/>
</g>
<!-- Node21 -->
<g id="node19" class="node">
<title>Node21</title>
<g id="a_node19"><a xlink:href="../../d9/dc0/TriggerParticle_8h.html" target="_top" xlink:title="/home/runner/work/AliceO2\l/AliceO2/Generators/include\l/Generators/TriggerParticle.h">
<polygon fill="none" stroke="#000000" points="131.5,-234.5 131.5,-275.5 273.5,-275.5 273.5,-234.5 131.5,-234.5"/>
<text text-anchor="start" x="139.5" y="-263.5" font-family="Helvetica,sans-Serif" font-size="10.00" fill="#000000">/home/runner/work/AliceO2</text>
<text text-anchor="start" x="139.5" y="-252.5" font-family="Helvetica,sans-Serif" font-size="10.00" fill="#000000">/AliceO2/Generators/include</text>
<text text-anchor="middle" x="202.5" y="-241.5" font-family="Helvetica,sans-Serif" font-size="10.00" fill="#000000">/Generators/TriggerParticle.h</text>
</a>
</g>
</g>
<!-- Node3&#45;&gt;Node21 -->
<g id="edge19" class="edge">
<title>Node3&#45;&gt;Node21</title>
<path fill="none" stroke="#191970" d="M805.7112,-323.888C671.3271,-308.541 401.9737,-277.7803 273.6434,-263.1247"/>
<polygon fill="#191970" stroke="#191970" points="805.6019,-327.3981 815.9345,-325.0555 806.3962,-320.4433 805.6019,-327.3981"/>
</g>
<!-- Node23 -->
<g id="node21" class="node">
<title>Node23</title>
<g id="a_node21"><a xlink:href="../../d7/d96/Trigger_8cxx.html" target="_top" xlink:title="/home/runner/work/AliceO2\l/AliceO2/Generators/src\l/Trigger.cxx">
<polygon fill="none" stroke="#000000" points="963,-234.5 963,-275.5 1098,-275.5 1098,-234.5 963,-234.5"/>
<text text-anchor="start" x="971" y="-263.5" font-family="Helvetica,sans-Serif" font-size="10.00" fill="#000000">/home/runner/work/AliceO2</text>
<text text-anchor="start" x="971" y="-252.5" font-family="Helvetica,sans-Serif" font-size="10.00" fill="#000000">/AliceO2/Generators/src</text>
<text text-anchor="middle" x="1030.5" y="-241.5" font-family="Helvetica,sans-Serif" font-size="10.00" fill="#000000">/Trigger.cxx</text>
</a>
</g>
</g>
<!-- Node3&#45;&gt;Node23 -->
<g id="edge23" class="edge">
<title>Node3&#45;&gt;Node23</title>
<path fill="none" stroke="#191970" d="M932.9029,-307.5005C952.1717,-297.1352 974.1386,-285.3185 992.3467,-275.5239"/>
<polygon fill="#191970" stroke="#191970" points="931.1252,-304.4825 923.9767,-312.3022 934.4414,-310.6471 931.1252,-304.4825"/>
</g>
<!-- Node5 -->
<g id="node3" class="node">
<title>Node5</title>
<g id="a_node3"><a xlink:href="../../de/daf/GeneratorFromFile_8h.html" target="_top" xlink:title="/home/runner/work/AliceO2\l/AliceO2/Generators/include\l/Generators/GeneratorFromFile.h">
<polygon fill="none" stroke="#000000" points="494.5,-156.5 494.5,-197.5 654.5,-197.5 654.5,-156.5 494.5,-156.5"/>
<text text-anchor="start" x="502.5" y="-185.5" font-family="Helvetica,sans-Serif" font-size="10.00" fill="#000000">/home/runner/work/AliceO2</text>
<text text-anchor="start" x="502.5" y="-174.5" font-family="Helvetica,sans-Serif" font-size="10.00" fill="#000000">/AliceO2/Generators/include</text>
<text text-anchor="middle" x="574.5" y="-163.5" font-family="Helvetica,sans-Serif" font-size="10.00" fill="#000000">/Generators/GeneratorFromFile.h</text>
</a>
</g>
</g>
<!-- Node4&#45;&gt;Node5 -->
<g id="edge2" class="edge">
<title>Node4&#45;&gt;Node5</title>
<path fill="none" stroke="#191970" d="M757.28,-231.4154C721.0512,-220.6297 678.5252,-207.9693 643.6132,-197.5757"/>
<polygon fill="#191970" stroke="#191970" points="756.7369,-234.9055 767.3199,-234.4044 758.7343,-228.1965 756.7369,-234.9055"/>
</g>
<!-- Node11 -->
<g id="node9" class="node">
<title>Node11</title>
<g id="a_node9"><a xlink:href="../../d1/dfe/GeneratorHepMC_8h.html" target="_top" xlink:title="/home/runner/work/AliceO2\l/AliceO2/Generators/include\l/Generators/GeneratorHepMC.h">
<polygon fill="none" stroke="#000000" points="673,-156.5 673,-197.5 828,-197.5 828,-156.5 673,-156.5"/>
<text text-anchor="start" x="681" y="-185.5" font-family="Helvetica,sans-Serif" font-size="10.00" fill="#000000">/home/runner/work/AliceO2</text>
<text text-anchor="start" x="681" y="-174.5" font-family="Helvetica,sans-Serif" font-size="10.00" fill="#000000">/AliceO2/Generators/include</text>
<text text-anchor="middle" x="750.5" y="-163.5" font-family="Helvetica,sans-Serif" font-size="10.00" fill="#000000">/Generators/GeneratorHepMC.h</text>
</a>
</g>
</g>
<!-- Node4&#45;&gt;Node11 -->
<g id="edge8" class="edge">
<title>Node4&#45;&gt;Node11</title>
<path fill="none" stroke="#191970" d="M805.8807,-227.229C795.1487,-217.4953 783.2918,-206.7414 773.3118,-197.6898"/>
<polygon fill="#191970" stroke="#191970" points="803.695,-229.9718 813.4536,-234.0974 808.3977,-224.7867 803.695,-229.9718"/>
</g>
<!-- Node13 -->
<g id="node11" class="node">
<title>Node13</title>
<g id="a_node11"><a xlink:href="../../d8/da5/GeneratorPythia8_8h.html" target="_top" xlink:title="/home/runner/work/AliceO2\l/AliceO2/Generators/include\l/Generators/GeneratorPythia8.h">
<polygon fill="none" stroke="#000000" points="846,-156.5 846,-197.5 1001,-197.5 1001,-156.5 846,-156.5"/>
<text text-anchor="start" x="854" y="-185.5" font-family="Helvetica,sans-Serif" font-size="10.00" fill="#000000">/home/runner/work/AliceO2</text>
<text text-anchor="start" x="854" y="-174.5" font-family="Helvetica,sans-Serif" font-size="10.00" fill="#000000">/AliceO2/Generators/include</text>
<text text-anchor="middle" x="923.5" y="-163.5" font-family="Helvetica,sans-Serif" font-size="10.00" fill="#000000">/Generators/GeneratorPythia8.h</text>
</a>
</g>
</g>
<!-- Node4&#45;&gt;Node13 -->
<g id="edge10" class="edge">
<title>Node4&#45;&gt;Node13</title>
<path fill="none" stroke="#191970" d="M867.4753,-227.229C878.3322,-217.4953 890.3269,-206.7414 900.4229,-197.6898"/>
<polygon fill="#191970" stroke="#191970" points="864.9237,-224.8159 859.8144,-234.0974 869.5965,-230.028 864.9237,-224.8159"/>
</g>
<!-- Node15 -->
<g id="node13" class="node">
<title>Node15</title>
<g id="a_node13"><a xlink:href="../../d2/d3c/GeneratorTGenerator_8h.html" target="_top" xlink:title="/home/runner/work/AliceO2\l/AliceO2/Generators/include\l/Generators/GeneratorTGenerator.h">
<polygon fill="none" stroke="#000000" points="300.5,-156.5 300.5,-197.5 470.5,-197.5 470.5,-156.5 300.5,-156.5"/>
<text text-anchor="start" x="308.5" y="-185.5" font-family="Helvetica,sans-Serif" font-size="10.00" fill="#000000">/home/runner/work/AliceO2</text>
<text text-anchor="start" x="308.5" y="-174.5" font-family="Helvetica,sans-Serif" font-size="10.00" fill="#000000">/AliceO2/Generators/include</text>
<text text-anchor="middle" x="385.5" y="-163.5" font-family="Helvetica,sans-Serif" font-size="10.00" fill="#000000">/Generators/GeneratorTGenerator.h</text>
</a>
</g>
</g>
<!-- Node4&#45;&gt;Node15 -->
<g id="edge12" class="edge">
<title>Node4&#45;&gt;Node15</title>
<path fill="none" stroke="#191970" d="M756.4936,-243.08C685.2324,-232.2077 578.2026,-215.2515 485.5,-198 480.6167,-197.0912 475.6053,-196.1301 470.5523,-195.1388"/>
<polygon fill="#191970" stroke="#191970" points="756.3293,-246.5952 766.7421,-244.6393 757.3823,-239.6748 756.3293,-246.5952"/>
</g>
<!-- Node4&#45;&gt;Node19 -->
<g id="edge17" class="edge">
<title>Node4&#45;&gt;Node19</title>
<path fill="none" stroke="#191970" d="M916.0413,-234.9059C917.5383,-234.5956 919.0257,-234.2932 920.5,-234 1027.1502,-212.7883 1056.0815,-220.3448 1162.5,-198 1165.4833,-197.3736 1168.5226,-196.6997 1171.5861,-195.9913"/>
<polygon fill="#191970" stroke="#191970" points="915.0928,-231.5299 906.0542,-237.0576 916.5671,-238.3729 915.0928,-231.5299"/>
</g>
<!-- Node20 -->
<g id="node18" class="node">
<title>Node20</title>
<g id="a_node18"><a xlink:href="../../dc/d20/PrimaryGenerator_8cxx.html" target="_top" xlink:title="/home/runner/work/AliceO2\l/AliceO2/Generators/src\l/PrimaryGenerator.cxx">
<polygon fill="none" stroke="#000000" points="1019,-156.5 1019,-197.5 1154,-197.5 1154,-156.5 1019,-156.5"/>
<text text-anchor="start" x="1027" y="-185.5" font-family="Helvetica,sans-Serif" font-size="10.00" fill="#000000">/home/runner/work/AliceO2</text>
<text text-anchor="start" x="1027" y="-174.5" font-family="Helvetica,sans-Serif" font-size="10.00" fill="#000000">/AliceO2/Generators/src</text>
<text text-anchor="middle" x="1086.5" y="-163.5" font-family="Helvetica,sans-Serif" font-size="10.00" fill="#000000">/PrimaryGenerator.cxx</text>
</a>
</g>
</g>
<!-- Node4&#45;&gt;Node20 -->
<g id="edge18" class="edge">
<title>Node4&#45;&gt;Node20</title>
<path fill="none" stroke="#191970" d="M912.0916,-231.4154C946.6611,-220.6297 987.2393,-207.9693 1020.5523,-197.5757"/>
<polygon fill="#191970" stroke="#191970" points="911.0153,-228.0848 902.5116,-234.4044 913.1002,-234.7671 911.0153,-228.0848"/>
</g>
<!-- Node6 -->
<g id="node4" class="node">
<title>Node6</title>
<g id="a_node4"><a xlink:href="../../d7/d11/o2__sim__tpc_8cxx.html" target="_top" xlink:title="/home/runner/work/AliceO2\l/AliceO2/Framework/TestWorkflows\l/src/o2_sim_tpc.cxx">
<polygon fill="none" stroke="#000000" points="479,-78.5 479,-119.5 654,-119.5 654,-78.5 479,-78.5"/>
<text text-anchor="start" x="487" y="-107.5" font-family="Helvetica,sans-Serif" font-size="10.00" fill="#000000">/home/runner/work/AliceO2</text>
<text text-anchor="start" x="487" y="-96.5" font-family="Helvetica,sans-Serif" font-size="10.00" fill="#000000">/AliceO2/Framework/TestWorkflows</text>
<text text-anchor="middle" x="566.5" y="-85.5" font-family="Helvetica,sans-Serif" font-size="10.00" fill="#000000">/src/o2_sim_tpc.cxx</text>
</a>
</g>
</g>
<!-- Node5&#45;&gt;Node6 -->
<g id="edge3" class="edge">
<title>Node5&#45;&gt;Node6</title>
<path fill="none" stroke="#191970" d="M571.3286,-146.0789C570.4198,-137.2178 569.4513,-127.7747 568.622,-119.6898"/>
<polygon fill="#191970" stroke="#191970" points="567.854,-146.5067 572.3561,-156.0974 574.8175,-145.7925 567.854,-146.5067"/>
</g>
<!-- Node7 -->
<g id="node5" class="node">
<title>Node7</title>
<g id="a_node5"><a xlink:href="../../d0/d83/GeneratorFactory_8cxx.html" target="_top" xlink:title="/home/runner/work/AliceO2\l/AliceO2/Generators/src\l/GeneratorFactory.cxx">
<polygon fill="none" stroke="#000000" points="0,-78.5 0,-119.5 135,-119.5 135,-78.5 0,-78.5"/>
<text text-anchor="start" x="8" y="-107.5" font-family="Helvetica,sans-Serif" font-size="10.00" fill="#000000">/home/runner/work/AliceO2</text>
<text text-anchor="start" x="8" y="-96.5" font-family="Helvetica,sans-Serif" font-size="10.00" fill="#000000">/AliceO2/Generators/src</text>
<text text-anchor="middle" x="67.5" y="-85.5" font-family="Helvetica,sans-Serif" font-size="10.00" fill="#000000">/GeneratorFactory.cxx</text>
</a>
</g>
</g>
<!-- Node5&#45;&gt;Node7 -->
<g id="edge4" class="edge">
<title>Node5&#45;&gt;Node7</title>
<path fill="none" stroke="#191970" d="M484.0656,-156.7669C482.5335,-156.5031 481.0107,-156.2471 479.5,-156 331.2819,-131.7543 291.0372,-148.0933 143.5,-120 140.8105,-119.4879 138.0775,-118.9276 135.324,-118.3298"/>
<polygon fill="#191970" stroke="#191970" points="483.8211,-160.2793 494.2841,-158.6127 485.0655,-153.3908 483.8211,-160.2793"/>
</g>
<!-- Node8 -->
<g id="node6" class="node">
<title>Node8</title>
<g id="a_node6"><a xlink:href="../../d2/d60/GeneratorFromFile_8cxx.html" target="_top" xlink:title="/home/runner/work/AliceO2\l/AliceO2/Generators/src\l/GeneratorFromFile.cxx">
<polygon fill="none" stroke="#000000" points="672,-78.5 672,-119.5 807,-119.5 807,-78.5 672,-78.5"/>
<text text-anchor="start" x="680" y="-107.5" font-family="Helvetica,sans-Serif" font-size="10.00" fill="#000000">/home/runner/work/AliceO2</text>
<text text-anchor="start" x="680" y="-96.5" font-family="Helvetica,sans-Serif" font-size="10.00" fill="#000000">/AliceO2/Generators/src</text>
<text text-anchor="middle" x="739.5" y="-85.5" font-family="Helvetica,sans-Serif" font-size="10.00" fill="#000000">/GeneratorFromFile.cxx</text>
</a>
</g>
</g>
<!-- Node5&#45;&gt;Node8 -->
<g id="edge5" class="edge">
<title>Node5&#45;&gt;Node8</title>
<path fill="none" stroke="#191970" d="M627.55,-151.9218C649.6883,-141.4564 675.0834,-129.4515 696.0841,-119.5239"/>
<polygon fill="#191970" stroke="#191970" points="625.8287,-148.8641 618.2838,-156.3022 628.8204,-155.1926 625.8287,-148.8641"/>
</g>
<!-- Node9 -->
<g id="node7" class="node">
<title>Node9</title>
<g id="a_node7"><a xlink:href="../../dc/d50/O2PrimaryServerDevice_8h.html" target="_top" xlink:title="/home/runner/work/AliceO2\l/AliceO2/run/O2PrimaryServerDevice.h">
<polygon fill="none" stroke="#000000" points="825.5,-84 825.5,-114 1013.5,-114 1013.5,-84 825.5,-84"/>
<text text-anchor="start" x="833.5" y="-102" font-family="Helvetica,sans-Serif" font-size="10.00" fill="#000000">/home/runner/work/AliceO2</text>
<text text-anchor="middle" x="919.5" y="-91" font-family="Helvetica,sans-Serif" font-size="10.00" fill="#000000">/AliceO2/run/O2PrimaryServerDevice.h</text>
</a>
</g>
</g>
<!-- Node5&#45;&gt;Node9 -->
<g id="edge6" class="edge">
<title>Node5&#45;&gt;Node9</title>
<path fill="none" stroke="#191970" d="M664.3007,-155.8277C733.4312,-140.0126 801.7239,-124.8572 850.9934,-114.0071"/>
<polygon fill="#191970" stroke="#191970" points="663.5083,-152.4184 654.5424,-158.0632 665.0715,-159.2417 663.5083,-152.4184"/>
</g>
<!-- Node10 -->
<g id="node8" class="node">
<title>Node10</title>
<g id="a_node8"><a xlink:href="../../db/d8f/O2PrimaryServerDeviceRunner_8cxx.html" target="_top" xlink:title="/home/runner/work/AliceO2\l/AliceO2/run/O2PrimaryServerDevice\lRunner.cxx">
<polygon fill="none" stroke="#000000" points="830,-.5 830,-41.5 1009,-41.5 1009,-.5 830,-.5"/>
<text text-anchor="start" x="838" y="-29.5" font-family="Helvetica,sans-Serif" font-size="10.00" fill="#000000">/home/runner/work/AliceO2</text>
<text text-anchor="start" x="838" y="-18.5" font-family="Helvetica,sans-Serif" font-size="10.00" fill="#000000">/AliceO2/run/O2PrimaryServerDevice</text>
<text text-anchor="middle" x="919.5" y="-7.5" font-family="Helvetica,sans-Serif" font-size="10.00" fill="#000000">Runner.cxx</text>
</a>
</g>
</g>
<!-- Node9&#45;&gt;Node10 -->
<g id="edge7" class="edge">
<title>Node9&#45;&gt;Node10</title>
<path fill="none" stroke="#191970" d="M919.5,-73.8044C919.5,-63.3919 919.5,-51.4721 919.5,-41.5956"/>
<polygon fill="#191970" stroke="#191970" points="916.0001,-73.9608 919.5,-83.9608 923.0001,-73.9608 916.0001,-73.9608"/>
</g>
<!-- Node12 -->
<g id="node10" class="node">
<title>Node12</title>
<g id="a_node10"><a xlink:href="../../d9/d91/GeneratorHepMC_8cxx.html" target="_top" xlink:title="/home/runner/work/AliceO2\l/AliceO2/Generators/src\l/GeneratorHepMC.cxx">
<polygon fill="none" stroke="#000000" points="1032,-78.5 1032,-119.5 1167,-119.5 1167,-78.5 1032,-78.5"/>
<text text-anchor="start" x="1040" y="-107.5" font-family="Helvetica,sans-Serif" font-size="10.00" fill="#000000">/home/runner/work/AliceO2</text>
<text text-anchor="start" x="1040" y="-96.5" font-family="Helvetica,sans-Serif" font-size="10.00" fill="#000000">/AliceO2/Generators/src</text>
<text text-anchor="middle" x="1099.5" y="-85.5" font-family="Helvetica,sans-Serif" font-size="10.00" fill="#000000">/GeneratorHepMC.cxx</text>
</a>
</g>
</g>
<!-- Node11&#45;&gt;Node12 -->
<g id="edge9" class="edge">
<title>Node11&#45;&gt;Node12</title>
<path fill="none" stroke="#191970" d="M838.0721,-155.7072C920.4523,-138.0604 943.5352,-138.3823 1022.5,-120 1025.604,-119.2774 1028.7717,-118.5152 1031.9667,-117.7262"/>
<polygon fill="#191970" stroke="#191970" points="837.3087,-152.2913 828.2766,-157.8297 838.791,-159.1326 837.3087,-152.2913"/>
</g>
<!-- Node14 -->
<g id="node12" class="node">
<title>Node14</title>
<g id="a_node12"><a xlink:href="../../dc/d91/GeneratorPythia8_8cxx.html" target="_top" xlink:title="/home/runner/work/AliceO2\l/AliceO2/Generators/src\l/GeneratorPythia8.cxx">
<polygon fill="none" stroke="#000000" points="1185,-78.5 1185,-119.5 1320,-119.5 1320,-78.5 1185,-78.5"/>
<text text-anchor="start" x="1193" y="-107.5" font-family="Helvetica,sans-Serif" font-size="10.00" fill="#000000">/home/runner/work/AliceO2</text>
<text text-anchor="start" x="1193" y="-96.5" font-family="Helvetica,sans-Serif" font-size="10.00" fill="#000000">/AliceO2/Generators/src</text>
<text text-anchor="middle" x="1252.5" y="-85.5" font-family="Helvetica,sans-Serif" font-size="10.00" fill="#000000">/GeneratorPythia8.cxx</text>
</a>
</g>
</g>
<!-- Node13&#45;&gt;Node14 -->
<g id="edge11" class="edge">
<title>Node13&#45;&gt;Node14</title>
<path fill="none" stroke="#191970" d="M1011.0476,-155.6741C1084.7225,-138.9254 1105.177,-137.2022 1175.5,-120 1178.5957,-119.2427 1181.7566,-118.452 1184.9462,-117.64"/>
<polygon fill="#191970" stroke="#191970" points="1010.2604,-152.2637 1001.2942,-157.908 1011.8232,-159.087 1010.2604,-152.2637"/>
</g>
<!-- Node15&#45;&gt;Node7 -->
<g id="edge15" class="edge">
<title>Node15&#45;&gt;Node7</title>
<path fill="none" stroke="#191970" d="M290.4919,-155.5075C245.7885,-145.1684 191.8042,-132.3575 143.5,-120 140.715,-119.2875 137.8755,-118.5506 135.0092,-117.7981"/>
<polygon fill="#191970" stroke="#191970" points="289.938,-158.9716 300.469,-157.8097 291.512,-152.1508 289.938,-158.9716"/>
</g>
<!-- Node16 -->
<g id="node14" class="node">
<title>Node16</title>
<g id="a_node14"><a xlink:href="../../d1/d4a/GeneratorPythia6_8h.html" target="_top" xlink:title="/home/runner/work/AliceO2\l/AliceO2/Generators/include\l/Generators/GeneratorPythia6.h">
<polygon fill="none" stroke="#000000" points="153,-78.5 153,-119.5 308,-119.5 308,-78.5 153,-78.5"/>
<text text-anchor="start" x="161" y="-107.5" font-family="Helvetica,sans-Serif" font-size="10.00" fill="#000000">/home/runner/work/AliceO2</text>
<text text-anchor="start" x="161" y="-96.5" font-family="Helvetica,sans-Serif" font-size="10.00" fill="#000000">/AliceO2/Generators/include</text>
<text text-anchor="middle" x="230.5" y="-85.5" font-family="Helvetica,sans-Serif" font-size="10.00" fill="#000000">/Generators/GeneratorPythia6.h</text>
</a>
</g>
</g>
<!-- Node15&#45;&gt;Node16 -->
<g id="edge13" class="edge">
<title>Node15&#45;&gt;Node16</title>
<path fill="none" stroke="#191970" d="M335.3865,-151.7816C314.6556,-141.3493 290.9245,-129.4072 271.2846,-119.5239"/>
<polygon fill="#191970" stroke="#191970" points="333.8637,-154.9334 344.3698,-156.3022 337.0104,-148.6805 333.8637,-154.9334"/>
</g>
<!-- Node18 -->
<g id="node16" class="node">
<title>Node18</title>
<g id="a_node16"><a xlink:href="../../d8/de5/GeneratorTGenerator_8cxx.html" target="_top" xlink:title="/home/runner/work/AliceO2\l/AliceO2/Generators/src\l/GeneratorTGenerator.cxx">
<polygon fill="none" stroke="#000000" points="326,-78.5 326,-119.5 461,-119.5 461,-78.5 326,-78.5"/>
<text text-anchor="start" x="334" y="-107.5" font-family="Helvetica,sans-Serif" font-size="10.00" fill="#000000">/home/runner/work/AliceO2</text>
<text text-anchor="start" x="334" y="-96.5" font-family="Helvetica,sans-Serif" font-size="10.00" fill="#000000">/AliceO2/Generators/src</text>
<text text-anchor="middle" x="393.5" y="-85.5" font-family="Helvetica,sans-Serif" font-size="10.00" fill="#000000">/GeneratorTGenerator.cxx</text>
</a>
</g>
</g>
<!-- Node15&#45;&gt;Node18 -->
<g id="edge16" class="edge">
<title>Node15&#45;&gt;Node18</title>
<path fill="none" stroke="#191970" d="M388.6714,-146.0789C389.5802,-137.2178 390.5487,-127.7747 391.378,-119.6898"/>
<polygon fill="#191970" stroke="#191970" points="385.1825,-145.7925 387.6439,-156.0974 392.146,-146.5067 385.1825,-145.7925"/>
</g>
<!-- Node17 -->
<g id="node15" class="node">
<title>Node17</title>
<g id="a_node15"><a xlink:href="../../d7/dab/GeneratorPythia6_8cxx.html" target="_top" xlink:title="/home/runner/work/AliceO2\l/AliceO2/Generators/src\l/GeneratorPythia6.cxx">
<polygon fill="none" stroke="#000000" points="163,-.5 163,-41.5 298,-41.5 298,-.5 163,-.5"/>
<text text-anchor="start" x="171" y="-29.5" font-family="Helvetica,sans-Serif" font-size="10.00" fill="#000000">/home/runner/work/AliceO2</text>
<text text-anchor="start" x="171" y="-18.5" font-family="Helvetica,sans-Serif" font-size="10.00" fill="#000000">/AliceO2/Generators/src</text>
<text text-anchor="middle" x="230.5" y="-7.5" font-family="Helvetica,sans-Serif" font-size="10.00" fill="#000000">/GeneratorPythia6.cxx</text>
</a>
</g>
</g>
<!-- Node16&#45;&gt;Node17 -->
<g id="edge14" class="edge">
<title>Node16&#45;&gt;Node17</title>
<path fill="none" stroke="#191970" d="M230.5,-68.0789C230.5,-59.2178 230.5,-49.7747 230.5,-41.6898"/>
<polygon fill="#191970" stroke="#191970" points="227.0001,-68.0974 230.5,-78.0974 234.0001,-68.0975 227.0001,-68.0974"/>
</g>
<!-- Node21&#45;&gt;Node7 -->
<g id="edge20" class="edge">
<title>Node21&#45;&gt;Node7</title>
<path fill="none" stroke="#191970" d="M160.3752,-228.5206C148.266,-219.7182 135.6131,-209.2607 125.5,-198 103.9377,-173.9909 86.439,-140.7236 76.4955,-119.53"/>
<polygon fill="#191970" stroke="#191970" points="158.4431,-231.4408 168.6337,-234.3396 162.4751,-225.7186 158.4431,-231.4408"/>
</g>
<!-- Node22 -->
<g id="node20" class="node">
<title>Node22</title>
<g id="a_node20"><a xlink:href="../../db/d40/TriggerParticle_8cxx.html" target="_top" xlink:title="/home/runner/work/AliceO2\l/AliceO2/Generators/src\l/TriggerParticle.cxx">
<polygon fill="none" stroke="#000000" points="135,-156.5 135,-197.5 270,-197.5 270,-156.5 135,-156.5"/>
<text text-anchor="start" x="143" y="-185.5" font-family="Helvetica,sans-Serif" font-size="10.00" fill="#000000">/home/runner/work/AliceO2</text>
<text text-anchor="start" x="143" y="-174.5" font-family="Helvetica,sans-Serif" font-size="10.00" fill="#000000">/AliceO2/Generators/src</text>
<text text-anchor="middle" x="202.5" y="-163.5" font-family="Helvetica,sans-Serif" font-size="10.00" fill="#000000">/TriggerParticle.cxx</text>
</a>
</g>
</g>
<!-- Node21&#45;&gt;Node22 -->
<g id="edge21" class="edge">
<title>Node21&#45;&gt;Node22</title>
<path fill="none" stroke="#191970" d="M202.5,-224.0789C202.5,-215.2178 202.5,-205.7747 202.5,-197.6898"/>
<polygon fill="#191970" stroke="#191970" points="199.0001,-224.0974 202.5,-234.0974 206.0001,-224.0975 199.0001,-224.0974"/>
</g>
</g>
</svg>
