<?xml version="1.0" encoding="UTF-8" standalone="no"?>
<!DOCTYPE svg PUBLIC "-//W3C//DTD SVG 1.1//EN"
 "http://www.w3.org/Graphics/SVG/1.1/DTD/svg11.dtd">
<!-- Generated by graphviz version 2.40.1 (20161225.0304)
 -->
<!-- Title: o2::AliceHLT::RawCluster Pages: 1 -->
<svg width="226pt" height="314pt"
 viewBox="0.00 0.00 225.50 314.00" xmlns="http://www.w3.org/2000/svg" xmlns:xlink="http://www.w3.org/1999/xlink">
<g id="graph0" class="graph" transform="scale(1 1) rotate(0) translate(4 310)">
<title>o2::AliceHLT::RawCluster</title>
<!-- Node1 -->
<g id="node1" class="node">
<title>Node1</title>
<polygon fill="#bfbfbf" stroke="#000000" points="24,-.5 24,-167.5 155,-167.5 155,-.5 24,-.5"/>
<text text-anchor="middle" x="89.5" y="-155.5" font-family="Helvetica,sans-Serif" font-size="10.00" fill="#000000">o2::AliceHLT::RawCluster</text>
<polyline fill="none" stroke="#000000" points="24,-148.5 155,-148.5 "/>
<text text-anchor="middle" x="89.5" y="-136.5" font-family="Helvetica,sans-Serif" font-size="10.00" fill="#000000"> </text>
<polyline fill="none" stroke="#000000" points="24,-129.5 155,-129.5 "/>
<text text-anchor="start" x="32" y="-117.5" font-family="Helvetica,sans-Serif" font-size="10.00" fill="#000000">+ GetPadRow()</text>
<text text-anchor="start" x="32" y="-106.5" font-family="Helvetica,sans-Serif" font-size="10.00" fill="#000000">+ GetPad()</text>
<text text-anchor="start" x="32" y="-95.5" font-family="Helvetica,sans-Serif" font-size="10.00" fill="#000000">+ GetTime()</text>
<text text-anchor="start" x="32" y="-84.5" font-family="Helvetica,sans-Serif" font-size="10.00" fill="#000000">+ GetSigmaPad2()</text>
<text text-anchor="start" x="32" y="-73.5" font-family="Helvetica,sans-Serif" font-size="10.00" fill="#000000">+ GetSigmaTime2()</text>
<text text-anchor="start" x="32" y="-62.5" font-family="Helvetica,sans-Serif" font-size="10.00" fill="#000000">+ GetCharge()</text>
<text text-anchor="start" x="32" y="-51.5" font-family="Helvetica,sans-Serif" font-size="10.00" fill="#000000">+ GetQMax()</text>
<text text-anchor="start" x="32" y="-40.5" font-family="Helvetica,sans-Serif" font-size="10.00" fill="#000000">+ GetFlagSplitPad()</text>
<text text-anchor="start" x="32" y="-29.5" font-family="Helvetica,sans-Serif" font-size="10.00" fill="#000000">+ GetFlagSplitTime()</text>
<text text-anchor="start" x="32" y="-18.5" font-family="Helvetica,sans-Serif" font-size="10.00" fill="#000000">+ GetFlagSplitAny()</text>
<text text-anchor="start" x="32" y="-7.5" font-family="Helvetica,sans-Serif" font-size="10.00" fill="#000000">+ GetFlags()</text>
</g>
<!-- Node2 -->
<g id="node2" class="node">
<title>Node2</title>
<polygon fill="none" stroke="#bfbfbf" points="0,-248.5 0,-305.5 51,-305.5 51,-248.5 0,-248.5"/>
<text text-anchor="middle" x="25.5" y="-293.5" font-family="Helvetica,sans-Serif" font-size="10.00" fill="#000000">uint16_t</text>
<polyline fill="none" stroke="#bfbfbf" points="0,-286.5 51,-286.5 "/>
<text text-anchor="middle" x="25.5" y="-274.5" font-family="Helvetica,sans-Serif" font-size="10.00" fill="#000000"> </text>
<polyline fill="none" stroke="#bfbfbf" points="0,-267.5 51,-267.5 "/>
<text text-anchor="middle" x="25.5" y="-255.5" font-family="Helvetica,sans-Serif" font-size="10.00" fill="#000000"> </text>
</g>
<!-- Node2&#45;&gt;Node1 -->
<g id="edge1" class="edge">
<title>Node2&#45;&gt;Node1</title>
<path fill="none" stroke="#404040" d="M29.8993,-248.3188C33.0663,-230.2015 37.9383,-206.4377 44.5,-186 45.2627,-183.6244 46.0627,-181.2295 46.8943,-178.8231"/>
<polygon fill="none" stroke="#404040" points="46.9061,-178.7902 45.19,-171.7863 50.9952,-167.5084 52.7113,-174.5123 46.9061,-178.7902"/>
<text text-anchor="middle" x="65" y="-216.5" font-family="Helvetica,sans-Serif" font-size="10.00" fill="#000000"> +fQMax</text>
<text text-anchor="middle" x="65" y="-205.5" font-family="Helvetica,sans-Serif" font-size="10.00" fill="#000000">+fCharge</text>
<text text-anchor="middle" x="65" y="-194.5" font-family="Helvetica,sans-Serif" font-size="10.00" fill="#000000">+fFlags</text>
</g>
<!-- Node3 -->
<g id="node3" class="node">
<title>Node3</title>
<g id="a_node3"><a xlink:href="../../d4/dc3/classfloat.html" target="_top" xlink:title="{float\n||}">
<polygon fill="none" stroke="#000000" points="72,-248.5 72,-305.5 107,-305.5 107,-248.5 72,-248.5"/>
<text text-anchor="middle" x="89.5" y="-293.5" font-family="Helvetica,sans-Serif" font-size="10.00" fill="#000000">float</text>
<polyline fill="none" stroke="#000000" points="72,-286.5 107,-286.5 "/>
<text text-anchor="middle" x="89.5" y="-274.5" font-family="Helvetica,sans-Serif" font-size="10.00" fill="#000000"> </text>
<polyline fill="none" stroke="#000000" points="72,-267.5 107,-267.5 "/>
<text text-anchor="middle" x="89.5" y="-255.5" font-family="Helvetica,sans-Serif" font-size="10.00" fill="#000000"> </text>
</a>
</g>
</g>
<!-- Node3&#45;&gt;Node1 -->
<g id="edge2" class="edge">
<title>Node3&#45;&gt;Node1</title>
<path fill="none" stroke="#404040" d="M89.5,-248.1059C89.5,-229.7609 89.5,-204.8652 89.5,-180.0126"/>
<polygon fill="none" stroke="#404040" points="89.5001,-179.8446 85.5,-173.8446 89.5,-167.8446 93.5,-173.8445 89.5001,-179.8446"/>
<text text-anchor="middle" x="121.5" y="-222" font-family="Helvetica,sans-Serif" font-size="10.00" fill="#000000"> +fTime</text>
<text text-anchor="middle" x="121.5" y="-211" font-family="Helvetica,sans-Serif" font-size="10.00" fill="#000000">+fPad</text>
<text text-anchor="middle" x="121.5" y="-200" font-family="Helvetica,sans-Serif" font-size="10.00" fill="#000000">+fSigmaTime2</text>
<text text-anchor="middle" x="121.5" y="-189" font-family="Helvetica,sans-Serif" font-size="10.00" fill="#000000">+fSigmaPad2</text>
</g>
<!-- Node4 -->
<g id="node4" class="node">
<title>Node4</title>
<polygon fill="none" stroke="#bfbfbf" points="153.5,-248.5 153.5,-305.5 199.5,-305.5 199.5,-248.5 153.5,-248.5"/>
<text text-anchor="middle" x="176.5" y="-293.5" font-family="Helvetica,sans-Serif" font-size="10.00" fill="#000000">int16_t</text>
<polyline fill="none" stroke="#bfbfbf" points="153.5,-286.5 199.5,-286.5 "/>
<text text-anchor="middle" x="176.5" y="-274.5" font-family="Helvetica,sans-Serif" font-size="10.00" fill="#000000"> </text>
<polyline fill="none" stroke="#bfbfbf" points="153.5,-267.5 199.5,-267.5 "/>
<text text-anchor="middle" x="176.5" y="-255.5" font-family="Helvetica,sans-Serif" font-size="10.00" fill="#000000"> </text>
</g>
<!-- Node4&#45;&gt;Node1 -->
<g id="edge3" class="edge">
<title>Node4&#45;&gt;Node1</title>
<path fill="none" stroke="#404040" d="M172.0829,-248.3517C168.6553,-230.0347 163.0274,-206.0413 154.5,-186 153.4479,-183.5274 152.3386,-181.0471 151.1804,-178.5661"/>
<polygon fill="none" stroke="#404040" points="151.1299,-178.4636 144.8861,-174.8558 145.815,-167.7048 152.0587,-171.3126 151.1299,-178.4636"/>
<text text-anchor="middle" x="192.5" y="-205.5" font-family="Helvetica,sans-Serif" font-size="10.00" fill="#000000"> +fPadRow</text>
</g>
</g>
</svg>
