<?xml version="1.0" encoding="UTF-8" standalone="no"?>
<!DOCTYPE svg PUBLIC "-//W3C//DTD SVG 1.1//EN"
 "http://www.w3.org/Graphics/SVG/1.1/DTD/svg11.dtd">
<!-- Generated by graphviz version 2.40.1 (20161225.0304)
 -->
<!-- Title: /home/runner/work/AliceO2/AliceO2/Detectors/PHOS/calib/include/PHOSCalib/BadChannelMap.h Pages: 1 -->
<svg width="495pt" height="173pt"
 viewBox="0.00 0.00 495.00 173.00" xmlns="http://www.w3.org/2000/svg" xmlns:xlink="http://www.w3.org/1999/xlink">
<g id="graph0" class="graph" transform="scale(1 1) rotate(0) translate(4 169)">
<title>/home/runner/work/AliceO2/AliceO2/Detectors/PHOS/calib/include/PHOSCalib/BadChannelMap.h</title>
<!-- Node0 -->
<g id="node1" class="node">
<title>Node0</title>
<polygon fill="#bfbfbf" stroke="#000000" points="34,-112.5 34,-164.5 169,-164.5 169,-112.5 34,-112.5"/>
<text text-anchor="start" x="42" y="-152.5" font-family="Helvetica,sans-Serif" font-size="10.00" fill="#000000">/home/runner/work/AliceO2</text>
<text text-anchor="start" x="42" y="-141.5" font-family="Helvetica,sans-Serif" font-size="10.00" fill="#000000">/AliceO2/Detectors/PHOS</text>
<text text-anchor="start" x="42" y="-130.5" font-family="Helvetica,sans-Serif" font-size="10.00" fill="#000000">/calib/include/PHOSCalib</text>
<text text-anchor="middle" x="101.5" y="-119.5" font-family="Helvetica,sans-Serif" font-size="10.00" fill="#000000">/BadChannelMap.h</text>
</g>
<!-- Node1 -->
<g id="node2" class="node">
<title>Node1</title>
<polygon fill="none" stroke="#bfbfbf" points="0,-.5 0,-19.5 45,-19.5 45,-.5 0,-.5"/>
<text text-anchor="middle" x="22.5" y="-7.5" font-family="Helvetica,sans-Serif" font-size="10.00" fill="#000000">iosfwd</text>
</g>
<!-- Node0&#45;&gt;Node1 -->
<g id="edge1" class="edge">
<title>Node0&#45;&gt;Node1</title>
<path fill="none" stroke="#191970" d="M68.5892,-112.4143C57.5643,-102.1404 46.1454,-89.5531 38.5,-76 30.4444,-61.7196 26.4193,-43.4785 24.4229,-29.7936"/>
<polygon fill="#191970" stroke="#191970" points="27.8598,-29.0617 23.1792,-19.5568 20.9109,-29.906 27.8598,-29.0617"/>
</g>
<!-- Node2 -->
<g id="node3" class="node">
<title>Node2</title>
<polygon fill="none" stroke="#bfbfbf" points="48,-56.5 48,-75.5 89,-75.5 89,-56.5 48,-56.5"/>
<text text-anchor="middle" x="68.5" y="-63.5" font-family="Helvetica,sans-Serif" font-size="10.00" fill="#000000">bitset</text>
</g>
<!-- Node0&#45;&gt;Node2 -->
<g id="edge2" class="edge">
<title>Node0&#45;&gt;Node2</title>
<path fill="none" stroke="#191970" d="M89.5862,-112.3258C85.4387,-103.2138 80.8711,-93.179 77.0507,-84.7857"/>
<polygon fill="#191970" stroke="#191970" points="80.168,-83.1855 72.8396,-75.534 73.7969,-86.0855 80.168,-83.1855"/>
</g>
<!-- Node3 -->
<g id="node4" class="node">
<title>Node3</title>
<polygon fill="none" stroke="#bfbfbf" points="107.5,-56.5 107.5,-75.5 163.5,-75.5 163.5,-56.5 107.5,-56.5"/>
<text text-anchor="middle" x="135.5" y="-63.5" font-family="Helvetica,sans-Serif" font-size="10.00" fill="#000000">Rtypes.h</text>
</g>
<!-- Node0&#45;&gt;Node3 -->
<g id="edge3" class="edge">
<title>Node0&#45;&gt;Node3</title>
<path fill="none" stroke="#191970" d="M113.7748,-112.3258C118.048,-103.2138 122.754,-93.179 126.6902,-84.7857"/>
<polygon fill="#191970" stroke="#191970" points="129.9517,-86.0739 131.0289,-75.534 123.614,-83.1018 129.9517,-86.0739"/>
</g>
<!-- Node4 -->
<g id="node5" class="node">
<title>Node4</title>
<g id="a_node5"><a xlink:href="../../d7/d44/TObjectWrapper_8h.html" target="_top" xlink:title="CCDB/TObjectWrapper.h">
<polygon fill="none" stroke="#000000" points="181.5,-56.5 181.5,-75.5 309.5,-75.5 309.5,-56.5 181.5,-56.5"/>
<text text-anchor="middle" x="245.5" y="-63.5" font-family="Helvetica,sans-Serif" font-size="10.00" fill="#000000">CCDB/TObjectWrapper.h</text>
</a>
</g>
</g>
<!-- Node0&#45;&gt;Node4 -->
<g id="edge4" class="edge">
<title>Node0&#45;&gt;Node4</title>
<path fill="none" stroke="#191970" d="M153.4873,-112.3258C174.9668,-101.5115 199.0276,-89.3976 217.1563,-80.2703"/>
<polygon fill="#191970" stroke="#191970" points="219.2056,-83.1571 226.5635,-75.534 216.0577,-76.9048 219.2056,-83.1571"/>
</g>
<!-- Node4&#45;&gt;Node1 -->
<g id="edge8" class="edge">
<title>Node4&#45;&gt;Node1</title>
<path fill="none" stroke="#191970" d="M203.691,-56.4232C165.2968,-47.4868 106.8893,-33.5341 56.5,-20 56.0395,-19.8763 55.5757,-19.7509 55.1092,-19.6241"/>
<polygon fill="#191970" stroke="#191970" points="55.7101,-16.1574 45.136,-16.8197 53.8152,-22.896 55.7101,-16.1574"/>
</g>
<!-- Node5 -->
<g id="node6" class="node">
<title>Node5</title>
<polygon fill="none" stroke="#bfbfbf" points="65.5,-.5 65.5,-19.5 121.5,-19.5 121.5,-.5 65.5,-.5"/>
<text text-anchor="middle" x="93.5" y="-7.5" font-family="Helvetica,sans-Serif" font-size="10.00" fill="#000000">TClass.h</text>
</g>
<!-- Node4&#45;&gt;Node5 -->
<g id="edge5" class="edge">
<title>Node4&#45;&gt;Node5</title>
<path fill="none" stroke="#191970" d="M219.3703,-56.3733C194.4232,-47.1822 156.6408,-33.2624 128.9794,-23.0713"/>
<polygon fill="#191970" stroke="#191970" points="129.8822,-19.674 119.2888,-19.5011 127.4622,-26.2424 129.8822,-19.674"/>
</g>
<!-- Node6 -->
<g id="node7" class="node">
<title>Node6</title>
<polygon fill="none" stroke="#bfbfbf" points="140,-.5 140,-19.5 199,-19.5 199,-.5 140,-.5"/>
<text text-anchor="middle" x="169.5" y="-7.5" font-family="Helvetica,sans-Serif" font-size="10.00" fill="#000000">TObject.h</text>
</g>
<!-- Node4&#45;&gt;Node6 -->
<g id="edge6" class="edge">
<title>Node4&#45;&gt;Node6</title>
<path fill="none" stroke="#191970" d="M232.2618,-56.2455C220.819,-47.814 204.0704,-35.4729 190.7525,-25.6598"/>
<polygon fill="#191970" stroke="#191970" points="192.7133,-22.757 182.5865,-19.6427 188.5609,-28.3924 192.7133,-22.757"/>
</g>
<!-- Node7 -->
<g id="node8" class="node">
<title>Node7</title>
<polygon fill="none" stroke="#bfbfbf" points="217,-.5 217,-19.5 270,-19.5 270,-.5 217,-.5"/>
<text text-anchor="middle" x="243.5" y="-7.5" font-family="Helvetica,sans-Serif" font-size="10.00" fill="#000000">cxxabi.h</text>
</g>
<!-- Node4&#45;&gt;Node7 -->
<g id="edge7" class="edge">
<title>Node4&#45;&gt;Node7</title>
<path fill="none" stroke="#191970" d="M245.1516,-56.2455C244.8907,-48.9382 244.5248,-38.6944 244.2037,-29.7046"/>
<polygon fill="#191970" stroke="#191970" points="247.6992,-29.5113 243.8444,-19.6427 240.7036,-29.7613 247.6992,-29.5113"/>
</g>
<!-- Node8 -->
<g id="node9" class="node">
<title>Node8</title>
<polygon fill="none" stroke="#bfbfbf" points="288.5,-.5 288.5,-19.5 340.5,-19.5 340.5,-.5 288.5,-.5"/>
<text text-anchor="middle" x="314.5" y="-7.5" font-family="Helvetica,sans-Serif" font-size="10.00" fill="#000000">memory</text>
</g>
<!-- Node4&#45;&gt;Node8 -->
<g id="edge9" class="edge">
<title>Node4&#45;&gt;Node8</title>
<path fill="none" stroke="#191970" d="M257.5189,-56.2455C267.7098,-47.9746 282.5362,-35.9416 294.5107,-26.2232"/>
<polygon fill="#191970" stroke="#191970" points="297.0598,-28.662 302.6188,-19.6427 292.6486,-23.2268 297.0598,-28.662"/>
</g>
<!-- Node9 -->
<g id="node10" class="node">
<title>Node9</title>
<polygon fill="none" stroke="#bfbfbf" points="359,-.5 359,-19.5 418,-19.5 418,-.5 359,-.5"/>
<text text-anchor="middle" x="388.5" y="-7.5" font-family="Helvetica,sans-Serif" font-size="10.00" fill="#000000">stdexcept</text>
</g>
<!-- Node4&#45;&gt;Node9 -->
<g id="edge10" class="edge">
<title>Node4&#45;&gt;Node9</title>
<path fill="none" stroke="#191970" d="M270.0826,-56.3733C293.4496,-47.2226 328.7862,-33.3844 354.7784,-23.2057"/>
<polygon fill="#191970" stroke="#191970" points="356.203,-26.4066 364.2382,-19.5011 353.6505,-19.8886 356.203,-26.4066"/>
</g>
<!-- Node10 -->
<g id="node11" class="node">
<title>Node10</title>
<polygon fill="none" stroke="#bfbfbf" points="436,-.5 436,-19.5 487,-19.5 487,-.5 436,-.5"/>
<text text-anchor="middle" x="461.5" y="-7.5" font-family="Helvetica,sans-Serif" font-size="10.00" fill="#000000">typeinfo</text>
</g>
<!-- Node4&#45;&gt;Node10 -->
<g id="edge11" class="edge">
<title>Node4&#45;&gt;Node10</title>
<path fill="none" stroke="#191970" d="M285.0226,-56.4758C319.8737,-47.9736 372.2604,-34.9427 426.1841,-20.2961"/>
<polygon fill="#191970" stroke="#191970" points="427.185,-23.651 435.9103,-17.641 425.3415,-16.8981 427.185,-23.651"/>
</g>
</g>
</svg>
