<?xml version="1.0" encoding="UTF-8" standalone="no"?>
<!DOCTYPE svg PUBLIC "-//W3C//DTD SVG 1.1//EN"
 "http://www.w3.org/Graphics/SVG/1.1/DTD/svg11.dtd">
<!-- Generated by graphviz version 2.40.1 (20161225.0304)
 -->
<!-- Title: hmm_vec4 Pages: 1 -->
<!--zoomable 741 -->
<svg id="main" version="1.1" xmlns="http://www.w3.org/2000/svg" xmlns:xlink="http://www.w3.org/1999/xlink" xml:space="preserve" onload="init(evt)">
<style type="text/css"><![CDATA[
.edge:hover path { stroke: red; }
.edge:hover polygon { stroke: red; fill: red; }
]]></style>
<script type="text/javascript"><![CDATA[
var edges = document.getElementsByTagName('g');
if (edges && edges.length) {
  for (var i=0;i<edges.length;i++) {
    if (edges[i].id.substr(0,4)=='edge') {
      edges[i].setAttribute('class','edge');
    }
  }
}
]]></script>
        <defs>
                <circle id="rim" cx="0" cy="0" r="7"/>
                <circle id="rim2" cx="0" cy="0" r="3.5"/>
                <g id="zoomPlus">
                        <use xlink:href="#rim" fill="#404040">
                                <set attributeName="fill" to="#808080" begin="zoomplus.mouseover" end="zoomplus.mouseout"/>
                        </use>
                        <path d="M-4,0h8M0,-4v8" fill="none" stroke="white" stroke-width="1.5" pointer-events="none"/>
                </g>
                <g id="zoomMin">
                        <use xlink:href="#rim" fill="#404040">
                                <set attributeName="fill" to="#808080" begin="zoomminus.mouseover" end="zoomminus.mouseout"/>
                        </use>
                        <path d="M-4,0h8" fill="none" stroke="white" stroke-width="1.5" pointer-events="none"/>
                </g>
                <g id="dirArrow">
                        <path fill="none" stroke="white" stroke-width="1.5" d="M0,-3.0v7 M-2.5,-0.5L0,-3.0L2.5,-0.5"/>
                </g>
               <g id="resetDef">
                       <use xlink:href="#rim2" fill="#404040">
                               <set attributeName="fill" to="#808080" begin="reset.mouseover" end="reset.mouseout"/>
                       </use>
               </g>
        </defs>

<script type="text/javascript">
var viewWidth = 1838;
var viewHeight = 741;
var sectionId = 'dynsection-0';
</script>
<script xlink:href="../../svgpan.js"/>
<svg id="graph" class="graph">
<g id="viewport">
<title>hmm_vec4</title>
<!-- Node1 -->
<g id="node1" class="node">
<title>Node1</title>
<polygon fill="#bfbfbf" stroke="#000000" points="1326.5,-.5 1326.5,-101.5 1391.5,-101.5 1391.5,-.5 1326.5,-.5"/>
<text text-anchor="middle" x="1359" y="-89.5" font-family="Helvetica,sans-Serif" font-size="10.00" fill="#000000">hmm_vec4</text>
<polyline fill="none" stroke="#000000" points="1326.5,-82.5 1391.5,-82.5 "/>
<text text-anchor="start" x="1334.5" y="-70.5" font-family="Helvetica,sans-Serif" font-size="10.00" fill="#000000">+ X</text>
<text text-anchor="start" x="1334.5" y="-59.5" font-family="Helvetica,sans-Serif" font-size="10.00" fill="#000000">+ Y</text>
<text text-anchor="start" x="1334.5" y="-48.5" font-family="Helvetica,sans-Serif" font-size="10.00" fill="#000000">+ Z</text>
<text text-anchor="start" x="1334.5" y="-37.5" font-family="Helvetica,sans-Serif" font-size="10.00" fill="#000000">+ W</text>
<text text-anchor="start" x="1334.5" y="-26.5" font-family="Helvetica,sans-Serif" font-size="10.00" fill="#000000">+ G</text>
<polyline fill="none" stroke="#000000" points="1326.5,-19.5 1391.5,-19.5 "/>
<text text-anchor="middle" x="1359" y="-7.5" font-family="Helvetica,sans-Serif" font-size="10.00" fill="#000000"> </text>
</g>
<!-- Node2 -->
<g id="node2" class="node">
<title>Node2</title>
<g id="a_node2"><a xlink:href="../../dc/db2/unionhmm__vec2.html" target="_top" xlink:title="{hmm_vec2\n||}">
<polygon fill="none" stroke="#000000" points="198.5,-451 198.5,-508 263.5,-508 263.5,-451 198.5,-451"/>
<text text-anchor="middle" x="231" y="-496" font-family="Helvetica,sans-Serif" font-size="10.00" fill="#000000">hmm_vec2</text>
<polyline fill="none" stroke="#000000" points="198.5,-489 263.5,-489 "/>
<text text-anchor="middle" x="231" y="-477" font-family="Helvetica,sans-Serif" font-size="10.00" fill="#000000"> </text>
<polyline fill="none" stroke="#000000" points="198.5,-470 263.5,-470 "/>
<text text-anchor="middle" x="231" y="-458" font-family="Helvetica,sans-Serif" font-size="10.00" fill="#000000"> </text>
</a>
</g>
</g>
<!-- Node2&#45;&gt;Node1 -->
<g id="edge1" class="edge">
<title>Node2&#45;&gt;Node1</title>
<path fill="none" stroke="#404040" d="M224.8324,-450.6569C217.0962,-405.9751 209.7095,-319.8835 254,-269 396.7528,-104.9975 1125.3825,-61.4209 1314.2433,-52.8056"/>
<polygon fill="none" stroke="#404040" points="1314.405,-52.7985 1320.2216,-48.5362 1326.3932,-52.266 1320.5766,-56.5283 1314.405,-52.7985"/>
<text text-anchor="middle" x="487.5" y="-214" font-family="Helvetica,sans-Serif" font-size="10.00" fill="#000000"> +ZW</text>
<text text-anchor="middle" x="487.5" y="-203" font-family="Helvetica,sans-Serif" font-size="10.00" fill="#000000">+YZ</text>
<text text-anchor="middle" x="487.5" y="-192" font-family="Helvetica,sans-Serif" font-size="10.00" fill="#000000">+XY</text>
</g>
<!-- Node8 -->
<g id="node8" class="node">
<title>Node8</title>
<g id="a_node8"><a xlink:href="../../d9/dfd/unionhmm__vec3.html" target="_top" xlink:title="{hmm_vec3\n|+ X\l+ Y\l+ Z\l+ G\l|}">
<polygon fill="none" stroke="#000000" points="720.5,-160.5 720.5,-250.5 785.5,-250.5 785.5,-160.5 720.5,-160.5"/>
<text text-anchor="middle" x="753" y="-238.5" font-family="Helvetica,sans-Serif" font-size="10.00" fill="#000000">hmm_vec3</text>
<polyline fill="none" stroke="#000000" points="720.5,-231.5 785.5,-231.5 "/>
<text text-anchor="start" x="728.5" y="-219.5" font-family="Helvetica,sans-Serif" font-size="10.00" fill="#000000">+ X</text>
<text text-anchor="start" x="728.5" y="-208.5" font-family="Helvetica,sans-Serif" font-size="10.00" fill="#000000">+ Y</text>
<text text-anchor="start" x="728.5" y="-197.5" font-family="Helvetica,sans-Serif" font-size="10.00" fill="#000000">+ Z</text>
<text text-anchor="start" x="728.5" y="-186.5" font-family="Helvetica,sans-Serif" font-size="10.00" fill="#000000">+ G</text>
<polyline fill="none" stroke="#000000" points="720.5,-179.5 785.5,-179.5 "/>
<text text-anchor="middle" x="753" y="-167.5" font-family="Helvetica,sans-Serif" font-size="10.00" fill="#000000"> </text>
</a>
</g>
</g>
<!-- Node2&#45;&gt;Node8 -->
<g id="edge8" class="edge">
<title>Node2&#45;&gt;Node8</title>
<path fill="none" stroke="#404040" d="M239.81,-450.9665C256.4307,-399.0253 293.4865,-292.2382 324,-269 383.75,-223.4962 610.9183,-210.3504 708.2728,-206.7644"/>
<polygon fill="none" stroke="#404040" points="708.3087,-206.7632 714.166,-202.557 720.3015,-206.346 714.4442,-210.5522 708.3087,-206.7632"/>
<text text-anchor="middle" x="337" y="-349" font-family="Helvetica,sans-Serif" font-size="10.00" fill="#000000"> +VW</text>
<text text-anchor="middle" x="337" y="-338" font-family="Helvetica,sans-Serif" font-size="10.00" fill="#000000">+UV</text>
<text text-anchor="middle" x="337" y="-327" font-family="Helvetica,sans-Serif" font-size="10.00" fill="#000000">+YZ</text>
<text text-anchor="middle" x="337" y="-316" font-family="Helvetica,sans-Serif" font-size="10.00" fill="#000000">+XY</text>
</g>
<!-- Node3 -->
<g id="node3" class="node">
<title>Node3</title>
<polygon fill="none" stroke="#bfbfbf" points="0,-675.5 0,-732.5 102,-732.5 102,-675.5 0,-675.5"/>
<text text-anchor="middle" x="51" y="-720.5" font-family="Helvetica,sans-Serif" font-size="10.00" fill="#000000">anonymous:+@282</text>
<polyline fill="none" stroke="#bfbfbf" points="0,-713.5 102,-713.5 "/>
<text text-anchor="middle" x="51" y="-701.5" font-family="Helvetica,sans-Serif" font-size="10.00" fill="#000000"> </text>
<polyline fill="none" stroke="#bfbfbf" points="0,-694.5 102,-694.5 "/>
<text text-anchor="middle" x="51" y="-682.5" font-family="Helvetica,sans-Serif" font-size="10.00" fill="#000000"> </text>
</g>
<!-- Node3&#45;&gt;Node2 -->
<g id="edge2" class="edge">
<title>Node3&#45;&gt;Node2</title>
<path fill="none" stroke="#404040" d="M66.2245,-675.2861C83.1371,-644.6677 112.2726,-595.52 144,-558 157.4891,-542.0482 174.1549,-526.263 189.2785,-513.0775"/>
<polygon fill="none" stroke="#404040" points="189.3365,-513.0278 191.2942,-506.0875 198.4536,-505.2253 196.4959,-512.1656 189.3365,-513.0278"/>
<text text-anchor="middle" x="162" y="-605" font-family="Helvetica,sans-Serif" font-size="10.00" fill="#000000"> +@282</text>
</g>
<!-- Node4 -->
<g id="node4" class="node">
<title>Node4</title>
<g id="a_node4"><a xlink:href="../../d4/dc3/classfloat.html" target="_top" xlink:title="{float\n||}">
<polygon fill="none" stroke="#000000" points="1122.5,-675.5 1122.5,-732.5 1157.5,-732.5 1157.5,-675.5 1122.5,-675.5"/>
<text text-anchor="middle" x="1140" y="-720.5" font-family="Helvetica,sans-Serif" font-size="10.00" fill="#000000">float</text>
<polyline fill="none" stroke="#000000" points="1122.5,-713.5 1157.5,-713.5 "/>
<text text-anchor="middle" x="1140" y="-701.5" font-family="Helvetica,sans-Serif" font-size="10.00" fill="#000000"> </text>
<polyline fill="none" stroke="#000000" points="1122.5,-694.5 1157.5,-694.5 "/>
<text text-anchor="middle" x="1140" y="-682.5" font-family="Helvetica,sans-Serif" font-size="10.00" fill="#000000"> </text>
</a>
</g>
</g>
<!-- Node4&#45;&gt;Node1 -->
<g id="edge17" class="edge">
<title>Node4&#45;&gt;Node1</title>
<path fill="none" stroke="#404040" d="M1150.5882,-675.3786C1162.1795,-642.9688 1180.5091,-588.3719 1191,-540 1227.081,-373.6367 1160.4629,-311.0314 1239,-160 1256.6738,-126.0123 1289.4764,-97.353 1316.3242,-77.964"/>
<polygon fill="none" stroke="#404040" points="1316.448,-77.8774 1319.0691,-71.1595 1326.2784,-70.9951 1323.6573,-77.713 1316.448,-77.8774"/>
<text text-anchor="middle" x="1228" y="-393" font-family="Helvetica,sans-Serif" font-size="10.00" fill="#000000"> +Ignored0_</text>
<text text-anchor="middle" x="1228" y="-382" font-family="Helvetica,sans-Serif" font-size="10.00" fill="#000000">+Ignored2_</text>
<text text-anchor="middle" x="1228" y="-371" font-family="Helvetica,sans-Serif" font-size="10.00" fill="#000000">+Ignored1_</text>
<text text-anchor="middle" x="1228" y="-360" font-family="Helvetica,sans-Serif" font-size="10.00" fill="#000000">+Ignored4_</text>
<text text-anchor="middle" x="1228" y="-349" font-family="Helvetica,sans-Serif" font-size="10.00" fill="#000000">+Ignored3_</text>
<text text-anchor="middle" x="1228" y="-338" font-family="Helvetica,sans-Serif" font-size="10.00" fill="#000000">+A</text>
<text text-anchor="middle" x="1228" y="-327" font-family="Helvetica,sans-Serif" font-size="10.00" fill="#000000">+R</text>
<text text-anchor="middle" x="1228" y="-316" font-family="Helvetica,sans-Serif" font-size="10.00" fill="#000000">+Elements</text>
<text text-anchor="middle" x="1228" y="-305" font-family="Helvetica,sans-Serif" font-size="10.00" fill="#000000">+B</text>
<text text-anchor="start" x="1202" y="-294" font-family="Helvetica,sans-Serif" font-size="10.00" fill="#000000">+Ignored5</text>
<text text-anchor="middle" x="1228" y="-283" font-family="Helvetica,sans-Serif" font-size="10.00" fill="#000000">_</text>
<text text-anchor="middle" x="1228" y="-272" font-family="Helvetica,sans-Serif" font-size="10.00" fill="#000000">...</text>
</g>
<!-- Node4&#45;&gt;Node2 -->
<g id="edge3" class="edge">
<title>Node4&#45;&gt;Node2</title>
<path fill="none" stroke="#404040" d="M1122.2996,-699.7426C1042.5793,-680.6975 708.6792,-602.3161 431,-558 396.1034,-552.4307 303.3335,-558.1292 273,-540 264.1827,-534.7302 256.7633,-526.81 250.7327,-518.4217"/>
<polygon fill="none" stroke="#404040" points="250.5784,-518.1829 243.9622,-515.3148 244.0649,-508.1044 250.6811,-510.9725 250.5784,-518.1829"/>
<text text-anchor="middle" x="945" y="-649" font-family="Helvetica,sans-Serif" font-size="10.00" fill="#000000"> +Height</text>
<text text-anchor="middle" x="945" y="-638" font-family="Helvetica,sans-Serif" font-size="10.00" fill="#000000">+Elements</text>
<text text-anchor="middle" x="945" y="-627" font-family="Helvetica,sans-Serif" font-size="10.00" fill="#000000">+U</text>
<text text-anchor="middle" x="945" y="-616" font-family="Helvetica,sans-Serif" font-size="10.00" fill="#000000">+V</text>
<text text-anchor="middle" x="945" y="-605" font-family="Helvetica,sans-Serif" font-size="10.00" fill="#000000">+Width</text>
<text text-anchor="middle" x="945" y="-594" font-family="Helvetica,sans-Serif" font-size="10.00" fill="#000000">+X</text>
<text text-anchor="middle" x="945" y="-583" font-family="Helvetica,sans-Serif" font-size="10.00" fill="#000000">+Y</text>
<text text-anchor="middle" x="945" y="-572" font-family="Helvetica,sans-Serif" font-size="10.00" fill="#000000">+Left</text>
<text text-anchor="middle" x="945" y="-561" font-family="Helvetica,sans-Serif" font-size="10.00" fill="#000000">+Right</text>
</g>
<!-- Node4&#45;&gt;Node8 -->
<g id="edge12" class="edge">
<title>Node4&#45;&gt;Node8</title>
<path fill="none" stroke="#404040" d="M1139.9233,-675.3851C1139.0446,-587.5463 1131.4113,-324.3735 1072,-269 1032.7722,-232.4383 876.1675,-215.1754 797.9417,-208.6999"/>
<polygon fill="none" stroke="#404040" points="797.6016,-208.6729 791.3021,-212.1824 785.6397,-207.7173 791.9392,-204.2078 797.6016,-208.6729"/>
<text text-anchor="middle" x="1161" y="-532" font-family="Helvetica,sans-Serif" font-size="10.00" fill="#000000"> +Ignored0_</text>
<text text-anchor="middle" x="1161" y="-521" font-family="Helvetica,sans-Serif" font-size="10.00" fill="#000000">+Ignored2_</text>
<text text-anchor="middle" x="1161" y="-510" font-family="Helvetica,sans-Serif" font-size="10.00" fill="#000000">+Ignored1_</text>
<text text-anchor="middle" x="1161" y="-499" font-family="Helvetica,sans-Serif" font-size="10.00" fill="#000000">+Ignored3_</text>
<text text-anchor="middle" x="1161" y="-488" font-family="Helvetica,sans-Serif" font-size="10.00" fill="#000000">+R</text>
<text text-anchor="middle" x="1161" y="-477" font-family="Helvetica,sans-Serif" font-size="10.00" fill="#000000">+Elements</text>
<text text-anchor="middle" x="1161" y="-466" font-family="Helvetica,sans-Serif" font-size="10.00" fill="#000000">+B</text>
<text text-anchor="middle" x="1161" y="-455" font-family="Helvetica,sans-Serif" font-size="10.00" fill="#000000">+U</text>
<text text-anchor="middle" x="1161" y="-444" font-family="Helvetica,sans-Serif" font-size="10.00" fill="#000000">+V</text>
<text text-anchor="middle" x="1161" y="-433" font-family="Helvetica,sans-Serif" font-size="10.00" fill="#000000">+W</text>
<text text-anchor="middle" x="1161" y="-422" font-family="Helvetica,sans-Serif" font-size="10.00" fill="#000000">...</text>
</g>
<!-- Node5 -->
<g id="node5" class="node">
<title>Node5</title>
<polygon fill="none" stroke="#bfbfbf" points="120,-675.5 120,-732.5 222,-732.5 222,-675.5 120,-675.5"/>
<text text-anchor="middle" x="171" y="-720.5" font-family="Helvetica,sans-Serif" font-size="10.00" fill="#000000">anonymous:+@276</text>
<polyline fill="none" stroke="#bfbfbf" points="120,-713.5 222,-713.5 "/>
<text text-anchor="middle" x="171" y="-701.5" font-family="Helvetica,sans-Serif" font-size="10.00" fill="#000000"> </text>
<polyline fill="none" stroke="#bfbfbf" points="120,-694.5 222,-694.5 "/>
<text text-anchor="middle" x="171" y="-682.5" font-family="Helvetica,sans-Serif" font-size="10.00" fill="#000000"> </text>
</g>
<!-- Node5&#45;&gt;Node2 -->
<g id="edge4" class="edge">
<title>Node5&#45;&gt;Node2</title>
<path fill="none" stroke="#404040" d="M178.7211,-675.1101C189.2743,-635.6236 208.2539,-564.6083 220.2092,-519.8755"/>
<polygon fill="none" stroke="#404040" points="220.2101,-519.8721 217.8949,-513.0427 223.3085,-508.279 225.6237,-515.1083 220.2101,-519.8721"/>
<text text-anchor="middle" x="228" y="-605" font-family="Helvetica,sans-Serif" font-size="10.00" fill="#000000"> +@276</text>
</g>
<!-- Node6 -->
<g id="node6" class="node">
<title>Node6</title>
<polygon fill="none" stroke="#bfbfbf" points="240,-675.5 240,-732.5 342,-732.5 342,-675.5 240,-675.5"/>
<text text-anchor="middle" x="291" y="-720.5" font-family="Helvetica,sans-Serif" font-size="10.00" fill="#000000">anonymous:+@278</text>
<polyline fill="none" stroke="#bfbfbf" points="240,-713.5 342,-713.5 "/>
<text text-anchor="middle" x="291" y="-701.5" font-family="Helvetica,sans-Serif" font-size="10.00" fill="#000000"> </text>
<polyline fill="none" stroke="#bfbfbf" points="240,-694.5 342,-694.5 "/>
<text text-anchor="middle" x="291" y="-682.5" font-family="Helvetica,sans-Serif" font-size="10.00" fill="#000000"> </text>
</g>
<!-- Node6&#45;&gt;Node2 -->
<g id="edge5" class="edge">
<title>Node6&#45;&gt;Node2</title>
<path fill="none" stroke="#404040" d="M283.2789,-675.1101C272.7257,-635.6236 253.7461,-564.6083 241.7908,-519.8755"/>
<polygon fill="none" stroke="#404040" points="241.7899,-519.8721 236.3763,-515.1083 238.6915,-508.279 244.1051,-513.0427 241.7899,-519.8721"/>
<text text-anchor="middle" x="297" y="-605" font-family="Helvetica,sans-Serif" font-size="10.00" fill="#000000"> +@278</text>
</g>
<!-- Node7 -->
<g id="node7" class="node">
<title>Node7</title>
<polygon fill="none" stroke="#bfbfbf" points="360,-675.5 360,-732.5 462,-732.5 462,-675.5 360,-675.5"/>
<text text-anchor="middle" x="411" y="-720.5" font-family="Helvetica,sans-Serif" font-size="10.00" fill="#000000">anonymous:+@280</text>
<polyline fill="none" stroke="#bfbfbf" points="360,-713.5 462,-713.5 "/>
<text text-anchor="middle" x="411" y="-701.5" font-family="Helvetica,sans-Serif" font-size="10.00" fill="#000000"> </text>
<polyline fill="none" stroke="#bfbfbf" points="360,-694.5 462,-694.5 "/>
<text text-anchor="middle" x="411" y="-682.5" font-family="Helvetica,sans-Serif" font-size="10.00" fill="#000000"> </text>
</g>
<!-- Node7&#45;&gt;Node2 -->
<g id="edge6" class="edge">
<title>Node7&#45;&gt;Node2</title>
<path fill="none" stroke="#404040" d="M399.613,-675.4726C385.2925,-642.9235 357.7948,-590.0676 319,-558 302.0786,-544.0128 290.2287,-553.6068 273,-540 265.3802,-533.9821 258.5853,-526.2109 252.7965,-518.2563"/>
<polygon fill="none" stroke="#404040" points="252.7247,-518.1497 246.0537,-515.4113 246.0156,-508.2003 252.6866,-510.9386 252.7247,-518.1497"/>
<text text-anchor="middle" x="409" y="-605" font-family="Helvetica,sans-Serif" font-size="10.00" fill="#000000"> +@280</text>
</g>
<!-- Node8&#45;&gt;Node1 -->
<g id="edge7" class="edge">
<title>Node8&#45;&gt;Node1</title>
<path fill="none" stroke="#404040" d="M785.5812,-197.1934C887.1035,-171.3103 1197.8816,-92.0772 1314.3229,-62.3905"/>
<polygon fill="none" stroke="#404040" points="1314.6297,-62.3123 1319.4555,-56.954 1326.2577,-59.3477 1321.4319,-64.706 1314.6297,-62.3123"/>
<text text-anchor="middle" x="1090.5" y="-134" font-family="Helvetica,sans-Serif" font-size="10.00" fill="#000000"> +RGB</text>
<text text-anchor="middle" x="1090.5" y="-123" font-family="Helvetica,sans-Serif" font-size="10.00" fill="#000000">+XYZ</text>
</g>
<!-- Node9 -->
<g id="node9" class="node">
<title>Node9</title>
<polygon fill="none" stroke="#bfbfbf" points="282,-451 282,-508 384,-508 384,-451 282,-451"/>
<text text-anchor="middle" x="333" y="-496" font-family="Helvetica,sans-Serif" font-size="10.00" fill="#000000">anonymous:+@292</text>
<polyline fill="none" stroke="#bfbfbf" points="282,-489 384,-489 "/>
<text text-anchor="middle" x="333" y="-477" font-family="Helvetica,sans-Serif" font-size="10.00" fill="#000000"> </text>
<polyline fill="none" stroke="#bfbfbf" points="282,-470 384,-470 "/>
<text text-anchor="middle" x="333" y="-458" font-family="Helvetica,sans-Serif" font-size="10.00" fill="#000000"> </text>
</g>
<!-- Node9&#45;&gt;Node8 -->
<g id="edge9" class="edge">
<title>Node9&#45;&gt;Node8</title>
<path fill="none" stroke="#404040" d="M338.6757,-450.8811C349.3689,-404.8979 377.0397,-315.0674 437,-269 478.9809,-236.7461 631.5366,-217.4811 708.2752,-209.6246"/>
<polygon fill="none" stroke="#404040" points="708.4136,-209.6109 713.9864,-205.0344 720.3543,-208.4183 714.7815,-212.9948 708.4136,-209.6109"/>
<text text-anchor="middle" x="455" y="-332.5" font-family="Helvetica,sans-Serif" font-size="10.00" fill="#000000"> +@292</text>
</g>
<!-- Node10 -->
<g id="node10" class="node">
<title>Node10</title>
<polygon fill="none" stroke="#bfbfbf" points="402,-451 402,-508 504,-508 504,-451 402,-451"/>
<text text-anchor="middle" x="453" y="-496" font-family="Helvetica,sans-Serif" font-size="10.00" fill="#000000">anonymous:+@294</text>
<polyline fill="none" stroke="#bfbfbf" points="402,-489 504,-489 "/>
<text text-anchor="middle" x="453" y="-477" font-family="Helvetica,sans-Serif" font-size="10.00" fill="#000000"> </text>
<polyline fill="none" stroke="#bfbfbf" points="402,-470 504,-470 "/>
<text text-anchor="middle" x="453" y="-458" font-family="Helvetica,sans-Serif" font-size="10.00" fill="#000000"> </text>
</g>
<!-- Node10&#45;&gt;Node8 -->
<g id="edge10" class="edge">
<title>Node10&#45;&gt;Node8</title>
<path fill="none" stroke="#404040" d="M459.945,-450.938C472.3596,-405.8506 502.6001,-318.256 560,-269 602.2715,-232.7259 665.829,-217.0412 708.3281,-210.3472"/>
<polygon fill="none" stroke="#404040" points="708.3816,-210.3395 713.7451,-205.5194 720.2573,-208.6165 714.8938,-213.4365 708.3816,-210.3395"/>
<text text-anchor="middle" x="578" y="-332.5" font-family="Helvetica,sans-Serif" font-size="10.00" fill="#000000"> +@294</text>
</g>
<!-- Node11 -->
<g id="node11" class="node">
<title>Node11</title>
<polygon fill="none" stroke="#bfbfbf" points="522,-451 522,-508 624,-508 624,-451 522,-451"/>
<text text-anchor="middle" x="573" y="-496" font-family="Helvetica,sans-Serif" font-size="10.00" fill="#000000">anonymous:+@284</text>
<polyline fill="none" stroke="#bfbfbf" points="522,-489 624,-489 "/>
<text text-anchor="middle" x="573" y="-477" font-family="Helvetica,sans-Serif" font-size="10.00" fill="#000000"> </text>
<polyline fill="none" stroke="#bfbfbf" points="522,-470 624,-470 "/>
<text text-anchor="middle" x="573" y="-458" font-family="Helvetica,sans-Serif" font-size="10.00" fill="#000000"> </text>
</g>
<!-- Node11&#45;&gt;Node8 -->
<g id="edge11" class="edge">
<title>Node11&#45;&gt;Node8</title>
<path fill="none" stroke="#404040" d="M581.4695,-450.9209C595.1686,-408.0879 625.3482,-326.176 671,-269 682.0293,-255.1865 696.6584,-242.6293 710.5044,-232.3961"/>
<polygon fill="none" stroke="#404040" points="710.6053,-232.3244 713.1775,-225.5876 720.3853,-225.3708 717.8132,-232.1076 710.6053,-232.3244"/>
<text text-anchor="middle" x="689" y="-332.5" font-family="Helvetica,sans-Serif" font-size="10.00" fill="#000000"> +@284</text>
</g>
<!-- Node12 -->
<g id="node12" class="node">
<title>Node12</title>
<polygon fill="none" stroke="#bfbfbf" points="642,-451 642,-508 744,-508 744,-451 642,-451"/>
<text text-anchor="middle" x="693" y="-496" font-family="Helvetica,sans-Serif" font-size="10.00" fill="#000000">anonymous:+@296</text>
<polyline fill="none" stroke="#bfbfbf" points="642,-489 744,-489 "/>
<text text-anchor="middle" x="693" y="-477" font-family="Helvetica,sans-Serif" font-size="10.00" fill="#000000"> </text>
<polyline fill="none" stroke="#bfbfbf" points="642,-470 744,-470 "/>
<text text-anchor="middle" x="693" y="-458" font-family="Helvetica,sans-Serif" font-size="10.00" fill="#000000"> </text>
</g>
<!-- Node12&#45;&gt;Node8 -->
<g id="edge13" class="edge">
<title>Node12&#45;&gt;Node8</title>
<path fill="none" stroke="#404040" d="M699.2513,-450.9526C708.9747,-406.5488 727.9116,-320.0703 740.51,-262.5377"/>
<polygon fill="none" stroke="#404040" points="740.5296,-262.448 737.9056,-255.7312 743.0966,-250.7257 745.7205,-257.4425 740.5296,-262.448"/>
<text text-anchor="middle" x="757" y="-332.5" font-family="Helvetica,sans-Serif" font-size="10.00" fill="#000000"> +@296</text>
</g>
<!-- Node13 -->
<g id="node13" class="node">
<title>Node13</title>
<polygon fill="none" stroke="#bfbfbf" points="762,-451 762,-508 864,-508 864,-451 762,-451"/>
<text text-anchor="middle" x="813" y="-496" font-family="Helvetica,sans-Serif" font-size="10.00" fill="#000000">anonymous:+@286</text>
<polyline fill="none" stroke="#bfbfbf" points="762,-489 864,-489 "/>
<text text-anchor="middle" x="813" y="-477" font-family="Helvetica,sans-Serif" font-size="10.00" fill="#000000"> </text>
<polyline fill="none" stroke="#bfbfbf" points="762,-470 864,-470 "/>
<text text-anchor="middle" x="813" y="-458" font-family="Helvetica,sans-Serif" font-size="10.00" fill="#000000"> </text>
</g>
<!-- Node13&#45;&gt;Node8 -->
<g id="edge14" class="edge">
<title>Node13&#45;&gt;Node8</title>
<path fill="none" stroke="#404040" d="M810.4612,-450.7932C806.3704,-409.8526 796.9041,-332.6067 779,-269 778.3706,-266.7639 777.6862,-264.5001 776.9589,-262.2257"/>
<polygon fill="none" stroke="#404040" points="776.9449,-262.185 771.2025,-257.8233 773.0201,-250.845 778.7625,-255.2068 776.9449,-262.185"/>
<text text-anchor="middle" x="823" y="-332.5" font-family="Helvetica,sans-Serif" font-size="10.00" fill="#000000"> +@286</text>
</g>
<!-- Node14 -->
<g id="node14" class="node">
<title>Node14</title>
<polygon fill="none" stroke="#bfbfbf" points="882,-451 882,-508 984,-508 984,-451 882,-451"/>
<text text-anchor="middle" x="933" y="-496" font-family="Helvetica,sans-Serif" font-size="10.00" fill="#000000">anonymous:+@288</text>
<polyline fill="none" stroke="#bfbfbf" points="882,-489 984,-489 "/>
<text text-anchor="middle" x="933" y="-477" font-family="Helvetica,sans-Serif" font-size="10.00" fill="#000000"> </text>
<polyline fill="none" stroke="#bfbfbf" points="882,-470 984,-470 "/>
<text text-anchor="middle" x="933" y="-458" font-family="Helvetica,sans-Serif" font-size="10.00" fill="#000000"> </text>
</g>
<!-- Node14&#45;&gt;Node8 -->
<g id="edge15" class="edge">
<title>Node14&#45;&gt;Node8</title>
<path fill="none" stroke="#404040" d="M926.5733,-450.9387C915.7271,-407.7659 890.4038,-324.9957 845,-269 831.8649,-252.8007 813.5463,-239.0123 796.7103,-228.4651"/>
<polygon fill="none" stroke="#404040" points="796.2253,-228.1747 789.0227,-228.5237 785.9302,-222.0094 793.1329,-221.6603 796.2253,-228.1747"/>
<text text-anchor="middle" x="930" y="-332.5" font-family="Helvetica,sans-Serif" font-size="10.00" fill="#000000"> +@288</text>
</g>
<!-- Node15 -->
<g id="node15" class="node">
<title>Node15</title>
<polygon fill="none" stroke="#bfbfbf" points="1002,-451 1002,-508 1104,-508 1104,-451 1002,-451"/>
<text text-anchor="middle" x="1053" y="-496" font-family="Helvetica,sans-Serif" font-size="10.00" fill="#000000">anonymous:+@290</text>
<polyline fill="none" stroke="#bfbfbf" points="1002,-489 1104,-489 "/>
<text text-anchor="middle" x="1053" y="-477" font-family="Helvetica,sans-Serif" font-size="10.00" fill="#000000"> </text>
<polyline fill="none" stroke="#bfbfbf" points="1002,-470 1104,-470 "/>
<text text-anchor="middle" x="1053" y="-458" font-family="Helvetica,sans-Serif" font-size="10.00" fill="#000000"> </text>
</g>
<!-- Node15&#45;&gt;Node8 -->
<g id="edge16" class="edge">
<title>Node15&#45;&gt;Node8</title>
<path fill="none" stroke="#404040" d="M1046.9668,-450.9005C1035.9728,-405.7611 1008.4132,-318.0959 952,-269 908.3348,-230.9986 841.7564,-215.6991 797.8138,-209.5655"/>
<polygon fill="none" stroke="#404040" points="797.6863,-209.5493 791.2297,-212.7605 785.7822,-208.0355 792.2389,-204.8244 797.6863,-209.5493"/>
<text text-anchor="middle" x="1050" y="-332.5" font-family="Helvetica,sans-Serif" font-size="10.00" fill="#000000"> +@290</text>
</g>
<!-- Node16 -->
<g id="node16" class="node">
<title>Node16</title>
<polygon fill="none" stroke="#bfbfbf" points="1248,-177 1248,-234 1350,-234 1350,-177 1248,-177"/>
<text text-anchor="middle" x="1299" y="-222" font-family="Helvetica,sans-Serif" font-size="10.00" fill="#000000">anonymous:+@298</text>
<polyline fill="none" stroke="#bfbfbf" points="1248,-215 1350,-215 "/>
<text text-anchor="middle" x="1299" y="-203" font-family="Helvetica,sans-Serif" font-size="10.00" fill="#000000"> </text>
<polyline fill="none" stroke="#bfbfbf" points="1248,-196 1350,-196 "/>
<text text-anchor="middle" x="1299" y="-184" font-family="Helvetica,sans-Serif" font-size="10.00" fill="#000000"> </text>
</g>
<!-- Node16&#45;&gt;Node1 -->
<g id="edge18" class="edge">
<title>Node16&#45;&gt;Node1</title>
<path fill="none" stroke="#404040" d="M1310.1449,-176.8018C1317.1,-158.8925 1326.3288,-135.1282 1334.8912,-113.0802"/>
<polygon fill="none" stroke="#404040" points="1334.9482,-112.9331 1333.3916,-105.892 1339.2924,-101.747 1340.849,-108.7882 1334.9482,-112.9331"/>
<text text-anchor="middle" x="1349" y="-128.5" font-family="Helvetica,sans-Serif" font-size="10.00" fill="#000000"> +@298</text>
</g>
<!-- Node17 -->
<g id="node17" class="node">
<title>Node17</title>
<polygon fill="none" stroke="#bfbfbf" points="1368,-177 1368,-234 1470,-234 1470,-177 1368,-177"/>
<text text-anchor="middle" x="1419" y="-222" font-family="Helvetica,sans-Serif" font-size="10.00" fill="#000000">anonymous:+@302</text>
<polyline fill="none" stroke="#bfbfbf" points="1368,-215 1470,-215 "/>
<text text-anchor="middle" x="1419" y="-203" font-family="Helvetica,sans-Serif" font-size="10.00" fill="#000000"> </text>
<polyline fill="none" stroke="#bfbfbf" points="1368,-196 1470,-196 "/>
<text text-anchor="middle" x="1419" y="-184" font-family="Helvetica,sans-Serif" font-size="10.00" fill="#000000"> </text>
</g>
<!-- Node17&#45;&gt;Node1 -->
<g id="edge19" class="edge">
<title>Node17&#45;&gt;Node1</title>
<path fill="none" stroke="#404040" d="M1407.8551,-176.8018C1400.9,-158.8925 1391.6712,-135.1282 1383.1088,-113.0802"/>
<polygon fill="none" stroke="#404040" points="1383.0518,-112.9331 1377.151,-108.7882 1378.7076,-101.747 1384.6084,-105.892 1383.0518,-112.9331"/>
<text text-anchor="middle" x="1411" y="-128.5" font-family="Helvetica,sans-Serif" font-size="10.00" fill="#000000"> +@302</text>
</g>
<!-- Node18 -->
<g id="node18" class="node">
<title>Node18</title>
<polygon fill="none" stroke="#bfbfbf" points="1488,-177 1488,-234 1590,-234 1590,-177 1488,-177"/>
<text text-anchor="middle" x="1539" y="-222" font-family="Helvetica,sans-Serif" font-size="10.00" fill="#000000">anonymous:+@300</text>
<polyline fill="none" stroke="#bfbfbf" points="1488,-215 1590,-215 "/>
<text text-anchor="middle" x="1539" y="-203" font-family="Helvetica,sans-Serif" font-size="10.00" fill="#000000"> </text>
<polyline fill="none" stroke="#bfbfbf" points="1488,-196 1590,-196 "/>
<text text-anchor="middle" x="1539" y="-184" font-family="Helvetica,sans-Serif" font-size="10.00" fill="#000000"> </text>
</g>
<!-- Node18&#45;&gt;Node1 -->
<g id="edge20" class="edge">
<title>Node18&#45;&gt;Node1</title>
<path fill="none" stroke="#404040" d="M1505.5652,-176.8018C1476.0811,-151.4947 1432.9765,-114.4965 1401.1398,-87.17"/>
<polygon fill="none" stroke="#404040" points="1400.7545,-86.8393 1393.5964,-85.9667 1391.6488,-79.0236 1398.8069,-79.8962 1400.7545,-86.8393"/>
<text text-anchor="middle" x="1477" y="-128.5" font-family="Helvetica,sans-Serif" font-size="10.00" fill="#000000"> +@300</text>
</g>
<!-- Node19 -->
<g id="node19" class="node">
<title>Node19</title>
<polygon fill="none" stroke="#bfbfbf" points="1608,-177 1608,-234 1710,-234 1710,-177 1608,-177"/>
<text text-anchor="middle" x="1659" y="-222" font-family="Helvetica,sans-Serif" font-size="10.00" fill="#000000">anonymous:+@304</text>
<polyline fill="none" stroke="#bfbfbf" points="1608,-215 1710,-215 "/>
<text text-anchor="middle" x="1659" y="-203" font-family="Helvetica,sans-Serif" font-size="10.00" fill="#000000"> </text>
<polyline fill="none" stroke="#bfbfbf" points="1608,-196 1710,-196 "/>
<text text-anchor="middle" x="1659" y="-184" font-family="Helvetica,sans-Serif" font-size="10.00" fill="#000000"> </text>
</g>
<!-- Node19&#45;&gt;Node1 -->
<g id="edge21" class="edge">
<title>Node19&#45;&gt;Node1</title>
<path fill="none" stroke="#404040" d="M1624.0623,-176.9568C1616.059,-171.0046 1607.4219,-165.0205 1599,-160 1533.6786,-121.0604 1452.0323,-86.7451 1402.7797,-67.4586"/>
<polygon fill="none" stroke="#404040" points="1402.7715,-67.4555 1395.7309,-69.0146 1391.5839,-63.1152 1398.6244,-61.5562 1402.7715,-67.4555"/>
<text text-anchor="middle" x="1579" y="-128.5" font-family="Helvetica,sans-Serif" font-size="10.00" fill="#000000"> +@304</text>
</g>
<!-- Node20 -->
<g id="node20" class="node">
<title>Node20</title>
<polygon fill="none" stroke="#bfbfbf" points="1728,-177 1728,-234 1830,-234 1830,-177 1728,-177"/>
<text text-anchor="middle" x="1779" y="-222" font-family="Helvetica,sans-Serif" font-size="10.00" fill="#000000">anonymous:+@306</text>
<polyline fill="none" stroke="#bfbfbf" points="1728,-215 1830,-215 "/>
<text text-anchor="middle" x="1779" y="-203" font-family="Helvetica,sans-Serif" font-size="10.00" fill="#000000"> </text>
<polyline fill="none" stroke="#bfbfbf" points="1728,-196 1830,-196 "/>
<text text-anchor="middle" x="1779" y="-184" font-family="Helvetica,sans-Serif" font-size="10.00" fill="#000000"> </text>
</g>
<!-- Node20&#45;&gt;Node1 -->
<g id="edge22" class="edge">
<title>Node20&#45;&gt;Node1</title>
<path fill="none" stroke="#404040" d="M1745.0614,-176.7929C1736.8632,-170.7143 1727.8921,-164.7181 1719,-160 1613.0216,-103.7688 1473.7453,-72.1088 1403.5454,-58.7133"/>
<polygon fill="none" stroke="#404040" points="1403.4661,-58.6986 1396.834,-61.5297 1391.6699,-56.4966 1398.302,-53.6655 1403.4661,-58.6986"/>
<text text-anchor="middle" x="1691" y="-128.5" font-family="Helvetica,sans-Serif" font-size="10.00" fill="#000000"> +@306</text>
</g>
</g>
</svg>
        <g id="navigator" transform="translate(0 0)" fill="#404254">
                <rect fill="#f2f5e9" fill-opacity="0.5" stroke="#606060" stroke-width=".5" x="0" y="0" width="60" height="60"/>
                <use id="zoomplus" xlink:href="#zoomPlus" x="17" y="9" onmousedown="handleZoom(evt,'in')"/>
                <use id="zoomminus" xlink:href="#zoomMin" x="42" y="9" onmousedown="handleZoom(evt,'out')"/>
                <use id="reset" xlink:href="#resetDef" x="30" y="36" onmousedown="handleReset()"/>
                <g id="arrowUp" xlink:href="#dirArrow" transform="translate(30 24)" onmousedown="handlePan(0,-1)">
                  <use xlink:href="#rim" fill="#404040">
                        <set attributeName="fill" to="#808080" begin="arrowUp.mouseover" end="arrowUp.mouseout"/>
                  </use>
                  <path fill="none" stroke="white" stroke-width="1.5" d="M0,-3.0v7 M-2.5,-0.5L0,-3.0L2.5,-0.5"/>
                </g>
                <g id="arrowRight" xlink:href="#dirArrow" transform="rotate(90) translate(36 -43)" onmousedown="handlePan(1,0)">
                  <use xlink:href="#rim" fill="#404040">
                        <set attributeName="fill" to="#808080" begin="arrowRight.mouseover" end="arrowRight.mouseout"/>
                  </use>
                  <path fill="none" stroke="white" stroke-width="1.5" d="M0,-3.0v7 M-2.5,-0.5L0,-3.0L2.5,-0.5"/>
                </g>
                <g id="arrowDown" xlink:href="#dirArrow" transform="rotate(180) translate(-30 -48)" onmousedown="handlePan(0,1)">
                  <use xlink:href="#rim" fill="#404040">
                        <set attributeName="fill" to="#808080" begin="arrowDown.mouseover" end="arrowDown.mouseout"/>
                  </use>
                  <path fill="none" stroke="white" stroke-width="1.5" d="M0,-3.0v7 M-2.5,-0.5L0,-3.0L2.5,-0.5"/>
                </g>
                <g id="arrowLeft" xlink:href="#dirArrow" transform="rotate(270) translate(-36 17)" onmousedown="handlePan(-1,0)">
                  <use xlink:href="#rim" fill="#404040">
                        <set attributeName="fill" to="#808080" begin="arrowLeft.mouseover" end="arrowLeft.mouseout"/>
                  </use>
                  <path fill="none" stroke="white" stroke-width="1.5" d="M0,-3.0v7 M-2.5,-0.5L0,-3.0L2.5,-0.5"/>
                </g>
        </g>
        <svg viewBox="0 0 15 15" width="100%" height="30px" preserveAspectRatio="xMaxYMin meet">
         <g id="arrow_out" transform="scale(0.3 0.3)">
          <a xlink:href="unionhmm__vec4__coll__graph_org.svg" target="_base">
           <rect id="button" ry="5" rx="5" y="6" x="6" height="38" width="38"
                fill="#f2f5e9" fill-opacity="0.5" stroke="#606060" stroke-width="1.0"/>
           <path id="arrow"
             d="M 11.500037,31.436501 C 11.940474,20.09759 22.043105,11.32322 32.158766,21.979434 L 37.068811,17.246167 C 37.068811,17.246167 37.088388,32 37.088388,32 L 22.160133,31.978069 C 22.160133,31.978069 26.997745,27.140456 26.997745,27.140456 C 18.528582,18.264221 13.291696,25.230495 11.500037,31.436501 z"
             style="fill:#404040;"/>
          </a>
         </g>
        </svg>
</svg>
