<?xml version="1.0" encoding="UTF-8" standalone="no"?>
<!DOCTYPE svg PUBLIC "-//W3C//DTD SVG 1.1//EN"
 "http://www.w3.org/Graphics/SVG/1.1/DTD/svg11.dtd">
<!-- Generated by graphviz version 2.40.1 (20161225.0304)
 -->
<!-- Title: /home/runner/work/AliceO2/AliceO2/Generators/src/Generator.cxx Pages: 1 -->
<svg width="727pt" height="218pt"
 viewBox="0.00 0.00 727.29 218.00" xmlns="http://www.w3.org/2000/svg" xmlns:xlink="http://www.w3.org/1999/xlink">
<g id="graph0" class="graph" transform="scale(1 1) rotate(0) translate(4 214)">
<title>/home/runner/work/AliceO2/AliceO2/Generators/src/Generator.cxx</title>
<!-- Node0 -->
<g id="node1" class="node">
<title>Node0</title>
<polygon fill="#bfbfbf" stroke="#000000" points="334.2868,-168.5 334.2868,-209.5 469.2868,-209.5 469.2868,-168.5 334.2868,-168.5"/>
<text text-anchor="start" x="342.2868" y="-197.5" font-family="Helvetica,sans-Serif" font-size="10.00" fill="#000000">/home/runner/work/AliceO2</text>
<text text-anchor="start" x="342.2868" y="-186.5" font-family="Helvetica,sans-Serif" font-size="10.00" fill="#000000">/AliceO2/Generators/src</text>
<text text-anchor="middle" x="401.7868" y="-175.5" font-family="Helvetica,sans-Serif" font-size="10.00" fill="#000000">/Generator.cxx</text>
</g>
<!-- Node1 -->
<g id="node2" class="node">
<title>Node1</title>
<g id="a_node2"><a xlink:href="../../d9/d12/Generator_8h.html" target="_top" xlink:title="Generators/Generator.h">
<polygon fill="none" stroke="#000000" points="98.2868,-112.5 98.2868,-131.5 217.2868,-131.5 217.2868,-112.5 98.2868,-112.5"/>
<text text-anchor="middle" x="157.7868" y="-119.5" font-family="Helvetica,sans-Serif" font-size="10.00" fill="#000000">Generators/Generator.h</text>
</a>
</g>
</g>
<!-- Node0&#45;&gt;Node1 -->
<g id="edge1" class="edge">
<title>Node0&#45;&gt;Node1</title>
<path fill="none" stroke="#191970" d="M334.1432,-170.4257C292.1167,-158.8857 239.2728,-144.3752 202.4384,-134.2609"/>
<polygon fill="#191970" stroke="#191970" points="203.0659,-130.8037 192.496,-131.5308 201.2123,-137.5538 203.0659,-130.8037"/>
</g>
<!-- Node3 -->
<g id="node4" class="node">
<title>Node3</title>
<polygon fill="none" stroke="#bfbfbf" points="154.7868,-.5 154.7868,-19.5 218.7868,-19.5 218.7868,-.5 154.7868,-.5"/>
<text text-anchor="middle" x="186.7868" y="-7.5" font-family="Helvetica,sans-Serif" font-size="10.00" fill="#000000">TParticle.h</text>
</g>
<!-- Node0&#45;&gt;Node3 -->
<g id="edge15" class="edge">
<title>Node0&#45;&gt;Node3</title>
<path fill="none" stroke="#191970" d="M333.9835,-184.5285C269.0798,-178.4449 169.403,-164.3248 88.7868,-132 46.797,-115.1633 25.2421,-115.8283 3.7868,-76 -.4288,-68.1744 -1.679,-63.0098 3.7868,-56 20.9115,-34.038 96.0115,-20.9576 144.5236,-14.6488"/>
<polygon fill="#191970" stroke="#191970" points="145.2523,-18.085 154.7395,-13.3686 144.3818,-11.1393 145.2523,-18.085"/>
</g>
<!-- Node4 -->
<g id="node5" class="node">
<title>Node4</title>
<g id="a_node5"><a xlink:href="../../d7/dac/Trigger_8h.html" target="_top" xlink:title="Generators/Trigger.h">
<polygon fill="none" stroke="#000000" points="214.7868,-56.5 214.7868,-75.5 320.7868,-75.5 320.7868,-56.5 214.7868,-56.5"/>
<text text-anchor="middle" x="267.7868" y="-63.5" font-family="Helvetica,sans-Serif" font-size="10.00" fill="#000000">Generators/Trigger.h</text>
</a>
</g>
</g>
<!-- Node0&#45;&gt;Node4 -->
<g id="edge8" class="edge">
<title>Node0&#45;&gt;Node4</title>
<path fill="none" stroke="#191970" d="M334.2767,-177.5307C308.0175,-169.4131 280.5117,-155.574 264.7868,-132 255.7585,-118.4651 257.656,-99.6669 261.1435,-85.5931"/>
<polygon fill="#191970" stroke="#191970" points="264.5255,-86.4972 263.9657,-75.9172 257.8055,-84.5371 264.5255,-86.4972"/>
</g>
<!-- Node7 -->
<g id="node8" class="node">
<title>Node7</title>
<g id="a_node8"><a xlink:href="../../d4/dd2/PrimaryGenerator_8h.html" target="_top" xlink:title="Generators/PrimaryGenerator.h">
<polygon fill="none" stroke="#000000" points="273.7868,-112.5 273.7868,-131.5 425.7868,-131.5 425.7868,-112.5 273.7868,-112.5"/>
<text text-anchor="middle" x="349.7868" y="-119.5" font-family="Helvetica,sans-Serif" font-size="10.00" fill="#000000">Generators/PrimaryGenerator.h</text>
</a>
</g>
</g>
<!-- Node0&#45;&gt;Node7 -->
<g id="edge9" class="edge">
<title>Node0&#45;&gt;Node7</title>
<path fill="none" stroke="#191970" d="M385.6187,-168.168C378.5528,-159.0639 370.3508,-148.4959 363.5784,-139.7699"/>
<polygon fill="#191970" stroke="#191970" points="366.2739,-137.5344 357.3776,-131.7805 360.744,-141.8263 366.2739,-137.5344"/>
</g>
<!-- Node8 -->
<g id="node9" class="node">
<title>Node8</title>
<polygon fill="none" stroke="#bfbfbf" points="377.7868,-56.5 377.7868,-75.5 495.7868,-75.5 495.7868,-56.5 377.7868,-56.5"/>
<text text-anchor="middle" x="436.7868" y="-63.5" font-family="Helvetica,sans-Serif" font-size="10.00" fill="#000000">FairPrimaryGenerator.h</text>
</g>
<!-- Node0&#45;&gt;Node8 -->
<g id="edge11" class="edge">
<title>Node0&#45;&gt;Node8</title>
<path fill="none" stroke="#191970" d="M416.9936,-168.4794C423.7897,-158.1007 431.0898,-144.9765 434.7868,-132 439.0625,-116.9924 439.3566,-99.2838 438.6945,-85.99"/>
<polygon fill="#191970" stroke="#191970" points="442.1569,-85.3435 437.9425,-75.6229 435.1752,-85.8499 442.1569,-85.3435"/>
</g>
<!-- Node9 -->
<g id="node10" class="node">
<title>Node9</title>
<polygon fill="none" stroke="#bfbfbf" points="482.2868,-112.5 482.2868,-131.5 553.2868,-131.5 553.2868,-112.5 482.2868,-112.5"/>
<text text-anchor="middle" x="517.7868" y="-119.5" font-family="Helvetica,sans-Serif" font-size="10.00" fill="#000000">FairLogger.h</text>
</g>
<!-- Node0&#45;&gt;Node9 -->
<g id="edge12" class="edge">
<title>Node0&#45;&gt;Node9</title>
<path fill="none" stroke="#191970" d="M437.5372,-168.3511C455.2332,-158.1301 476.1863,-146.0279 492.244,-136.7532"/>
<polygon fill="#191970" stroke="#191970" points="494.1625,-139.687 501.0713,-131.6546 490.6614,-133.6254 494.1625,-139.687"/>
</g>
<!-- Node10 -->
<g id="node11" class="node">
<title>Node10</title>
<polygon fill="none" stroke="#bfbfbf" points="571.7868,-112.5 571.7868,-131.5 615.7868,-131.5 615.7868,-112.5 571.7868,-112.5"/>
<text text-anchor="middle" x="593.7868" y="-119.5" font-family="Helvetica,sans-Serif" font-size="10.00" fill="#000000">cmath</text>
</g>
<!-- Node0&#45;&gt;Node10 -->
<g id="edge13" class="edge">
<title>Node0&#45;&gt;Node10</title>
<path fill="none" stroke="#191970" d="M460.698,-168.4425C494.0779,-156.7943 534.5272,-142.6792 562.0078,-133.0896"/>
<polygon fill="#191970" stroke="#191970" points="563.2199,-136.3737 571.5083,-129.7743 560.9135,-129.7645 563.2199,-136.3737"/>
</g>
<!-- Node11 -->
<g id="node12" class="node">
<title>Node11</title>
<polygon fill="none" stroke="#bfbfbf" points="634.2868,-112.5 634.2868,-131.5 719.2868,-131.5 719.2868,-112.5 634.2868,-112.5"/>
<text text-anchor="middle" x="676.7868" y="-119.5" font-family="Helvetica,sans-Serif" font-size="10.00" fill="#000000">TClonesArray.h</text>
</g>
<!-- Node0&#45;&gt;Node11 -->
<g id="edge14" class="edge">
<title>Node0&#45;&gt;Node11</title>
<path fill="none" stroke="#191970" d="M469.4116,-172.5241C518.395,-160.59 583.492,-144.73 627.5885,-133.9865"/>
<polygon fill="#191970" stroke="#191970" points="628.6061,-137.341 637.4934,-131.5733 626.949,-130.54 628.6061,-137.341"/>
</g>
<!-- Node2 -->
<g id="node3" class="node">
<title>Node2</title>
<polygon fill="none" stroke="#bfbfbf" points="12.7868,-56.5 12.7868,-75.5 96.7868,-75.5 96.7868,-56.5 12.7868,-56.5"/>
<text text-anchor="middle" x="54.7868" y="-63.5" font-family="Helvetica,sans-Serif" font-size="10.00" fill="#000000">FairGenerator.h</text>
</g>
<!-- Node1&#45;&gt;Node2 -->
<g id="edge2" class="edge">
<title>Node1&#45;&gt;Node2</title>
<path fill="none" stroke="#191970" d="M139.8456,-112.2455C123.7468,-103.4928 99.8989,-90.527 81.5477,-80.5496"/>
<polygon fill="#191970" stroke="#191970" points="82.9797,-77.3444 72.5225,-75.6427 79.6361,-83.4942 82.9797,-77.3444"/>
</g>
<!-- Node1&#45;&gt;Node3 -->
<g id="edge3" class="edge">
<title>Node1&#45;&gt;Node3</title>
<path fill="none" stroke="#191970" d="M160.2593,-112.4509C165.0106,-94.1013 175.4999,-53.5908 181.7715,-29.3693"/>
<polygon fill="#191970" stroke="#191970" points="185.2021,-30.083 184.3206,-19.5249 178.4256,-28.3283 185.2021,-30.083"/>
</g>
<!-- Node1&#45;&gt;Node4 -->
<g id="edge4" class="edge">
<title>Node1&#45;&gt;Node4</title>
<path fill="none" stroke="#191970" d="M176.9474,-112.2455C194.2979,-103.4125 220.0769,-90.2887 239.7451,-80.2758"/>
<polygon fill="#191970" stroke="#191970" points="241.5221,-83.2986 248.8459,-75.6427 238.3463,-77.0605 241.5221,-83.2986"/>
</g>
<!-- Node6 -->
<g id="node7" class="node">
<title>Node6</title>
<polygon fill="none" stroke="#bfbfbf" points="114.7868,-56.5 114.7868,-75.5 158.7868,-75.5 158.7868,-56.5 114.7868,-56.5"/>
<text text-anchor="middle" x="136.7868" y="-63.5" font-family="Helvetica,sans-Serif" font-size="10.00" fill="#000000">vector</text>
</g>
<!-- Node1&#45;&gt;Node6 -->
<g id="edge7" class="edge">
<title>Node1&#45;&gt;Node6</title>
<path fill="none" stroke="#191970" d="M154.1289,-112.2455C151.3284,-104.7776 147.3778,-94.2427 143.9545,-85.1137"/>
<polygon fill="#191970" stroke="#191970" points="147.1913,-83.777 140.4028,-75.6427 140.637,-86.2349 147.1913,-83.777"/>
</g>
<!-- Node4&#45;&gt;Node3 -->
<g id="edge6" class="edge">
<title>Node4&#45;&gt;Node3</title>
<path fill="none" stroke="#191970" d="M253.6777,-56.2455C241.366,-47.7337 223.291,-35.2375 209.033,-25.3801"/>
<polygon fill="#191970" stroke="#191970" points="210.9503,-22.4506 200.7343,-19.6427 206.9695,-28.2085 210.9503,-22.4506"/>
</g>
<!-- Node5 -->
<g id="node6" class="node">
<title>Node5</title>
<polygon fill="none" stroke="#bfbfbf" points="238.2868,-.5 238.2868,-19.5 297.2868,-19.5 297.2868,-.5 238.2868,-.5"/>
<text text-anchor="middle" x="267.7868" y="-7.5" font-family="Helvetica,sans-Serif" font-size="10.00" fill="#000000">functional</text>
</g>
<!-- Node4&#45;&gt;Node5 -->
<g id="edge5" class="edge">
<title>Node4&#45;&gt;Node5</title>
<path fill="none" stroke="#191970" d="M267.7868,-56.2455C267.7868,-48.9382 267.7868,-38.6944 267.7868,-29.7046"/>
<polygon fill="#191970" stroke="#191970" points="271.2869,-29.6426 267.7868,-19.6427 264.2869,-29.6427 271.2869,-29.6426"/>
</g>
<!-- Node7&#45;&gt;Node8 -->
<g id="edge10" class="edge">
<title>Node7&#45;&gt;Node8</title>
<path fill="none" stroke="#191970" d="M364.9411,-112.2455C378.2895,-103.6534 397.9454,-91.0014 413.3251,-81.1018"/>
<polygon fill="#191970" stroke="#191970" points="415.292,-83.9982 421.8062,-75.6427 411.5032,-78.1121 415.292,-83.9982"/>
</g>
</g>
</svg>
