<?xml version="1.0" encoding="UTF-8" standalone="no"?>
<!DOCTYPE svg PUBLIC "-//W3C//DTD SVG 1.1//EN"
 "http://www.w3.org/Graphics/SVG/1.1/DTD/svg11.dtd">
<!-- Generated by graphviz version 2.40.1 (20161225.0304)
 -->
<!-- Title: /home/runner/work/AliceO2/AliceO2/GPU/GPUTracking/Standalone/makefiles/opencl_obtain_program.h Pages: 1 -->
<svg width="289pt" height="117pt"
 viewBox="0.00 0.00 289.00 117.00" xmlns="http://www.w3.org/2000/svg" xmlns:xlink="http://www.w3.org/1999/xlink">
<g id="graph0" class="graph" transform="scale(1 1) rotate(0) translate(4 113)">
<title>/home/runner/work/AliceO2/AliceO2/GPU/GPUTracking/Standalone/makefiles/opencl_obtain_program.h</title>
<!-- Node0 -->
<g id="node1" class="node">
<title>Node0</title>
<polygon fill="#bfbfbf" stroke="#000000" points="37,-56.5 37,-108.5 182,-108.5 182,-56.5 37,-56.5"/>
<text text-anchor="start" x="45" y="-96.5" font-family="Helvetica,sans-Serif" font-size="10.00" fill="#000000">/home/runner/work/AliceO2</text>
<text text-anchor="start" x="45" y="-85.5" font-family="Helvetica,sans-Serif" font-size="10.00" fill="#000000">/AliceO2/GPU/GPUTracking</text>
<text text-anchor="start" x="45" y="-74.5" font-family="Helvetica,sans-Serif" font-size="10.00" fill="#000000">/Standalone/makefiles/opencl</text>
<text text-anchor="middle" x="109.5" y="-63.5" font-family="Helvetica,sans-Serif" font-size="10.00" fill="#000000">_obtain_program.h</text>
</g>
<!-- Node1 -->
<g id="node2" class="node">
<title>Node1</title>
<polygon fill="none" stroke="#bfbfbf" points="0,-.5 0,-19.5 69,-19.5 69,-.5 0,-.5"/>
<text text-anchor="middle" x="34.5" y="-7.5" font-family="Helvetica,sans-Serif" font-size="10.00" fill="#000000">CL/opencl.h</text>
</g>
<!-- Node0&#45;&gt;Node1 -->
<g id="edge1" class="edge">
<title>Node0&#45;&gt;Node1</title>
<path fill="none" stroke="#191970" d="M82.4233,-56.3258C72.1683,-46.4127 60.7837,-35.4075 51.6847,-26.6118"/>
<polygon fill="#191970" stroke="#191970" points="53.9853,-23.9678 44.3628,-19.534 49.1201,-29.0007 53.9853,-23.9678"/>
</g>
<!-- Node2 -->
<g id="node3" class="node">
<title>Node2</title>
<polygon fill="none" stroke="#bfbfbf" points="87.5,-.5 87.5,-19.5 131.5,-19.5 131.5,-.5 87.5,-.5"/>
<text text-anchor="middle" x="109.5" y="-7.5" font-family="Helvetica,sans-Serif" font-size="10.00" fill="#000000">vector</text>
</g>
<!-- Node0&#45;&gt;Node2 -->
<g id="edge2" class="edge">
<title>Node0&#45;&gt;Node2</title>
<path fill="none" stroke="#191970" d="M109.5,-56.3258C109.5,-47.5142 109.5,-37.8397 109.5,-29.621"/>
<polygon fill="#191970" stroke="#191970" points="113.0001,-29.534 109.5,-19.534 106.0001,-29.534 113.0001,-29.534"/>
</g>
<!-- Node3 -->
<g id="node4" class="node">
<title>Node3</title>
<g id="a_node4"><a xlink:href="../../dd/d68/opencl__compiler__structs_8h.html" target="_top" xlink:title="opencl_compiler_structs.h">
<polygon fill="none" stroke="#000000" points="150,-.5 150,-19.5 281,-19.5 281,-.5 150,-.5"/>
<text text-anchor="middle" x="215.5" y="-7.5" font-family="Helvetica,sans-Serif" font-size="10.00" fill="#000000">opencl_compiler_structs.h</text>
</a>
</g>
</g>
<!-- Node0&#45;&gt;Node3 -->
<g id="edge3" class="edge">
<title>Node0&#45;&gt;Node3</title>
<path fill="none" stroke="#191970" d="M147.7684,-56.3258C162.9941,-45.912 179.9818,-34.2931 193.1355,-25.2965"/>
<polygon fill="#191970" stroke="#191970" points="195.2825,-28.0684 201.5606,-19.534 191.3307,-22.2906 195.2825,-28.0684"/>
</g>
</g>
</svg>
