<?xml version="1.0" encoding="UTF-8" standalone="no"?>
<!DOCTYPE svg PUBLIC "-//W3C//DTD SVG 1.1//EN"
 "http://www.w3.org/Graphics/SVG/1.1/DTD/svg11.dtd">
<!-- Generated by graphviz version 2.40.1 (20161225.0304)
 -->
<!-- Title: DTask Pages: 1 -->
<!--zoomable 1105 -->
<svg id="main" version="1.1" xmlns="http://www.w3.org/2000/svg" xmlns:xlink="http://www.w3.org/1999/xlink" xml:space="preserve" onload="init(evt)">
<style type="text/css"><![CDATA[
.edge:hover path { stroke: red; }
.edge:hover polygon { stroke: red; fill: red; }
]]></style>
<script type="text/javascript"><![CDATA[
var edges = document.getElementsByTagName('g');
if (edges && edges.length) {
  for (var i=0;i<edges.length;i++) {
    if (edges[i].id.substr(0,4)=='edge') {
      edges[i].setAttribute('class','edge');
    }
  }
}
]]></script>
        <defs>
                <circle id="rim" cx="0" cy="0" r="7"/>
                <circle id="rim2" cx="0" cy="0" r="3.5"/>
                <g id="zoomPlus">
                        <use xlink:href="#rim" fill="#404040">
                                <set attributeName="fill" to="#808080" begin="zoomplus.mouseover" end="zoomplus.mouseout"/>
                        </use>
                        <path d="M-4,0h8M0,-4v8" fill="none" stroke="white" stroke-width="1.5" pointer-events="none"/>
                </g>
                <g id="zoomMin">
                        <use xlink:href="#rim" fill="#404040">
                                <set attributeName="fill" to="#808080" begin="zoomminus.mouseover" end="zoomminus.mouseout"/>
                        </use>
                        <path d="M-4,0h8" fill="none" stroke="white" stroke-width="1.5" pointer-events="none"/>
                </g>
                <g id="dirArrow">
                        <path fill="none" stroke="white" stroke-width="1.5" d="M0,-3.0v7 M-2.5,-0.5L0,-3.0L2.5,-0.5"/>
                </g>
               <g id="resetDef">
                       <use xlink:href="#rim2" fill="#404040">
                               <set attributeName="fill" to="#808080" begin="reset.mouseover" end="reset.mouseout"/>
                       </use>
               </g>
        </defs>

<script type="text/javascript">
var viewWidth = 941;
var viewHeight = 1105;
var sectionId = 'dynsection-0';
</script>
<script xlink:href="../../svgpan.js"/>
<svg id="graph" class="graph">
<g id="viewport">
<title>DTask</title>
<!-- Node1 -->
<g id="node1" class="node">
<title>Node1</title>
<polygon fill="#bfbfbf" stroke="#000000" points="667.5,-.5 667.5,-123.5 733.5,-123.5 733.5,-.5 667.5,-.5"/>
<text text-anchor="middle" x="700.5" y="-111.5" font-family="Helvetica,sans-Serif" font-size="10.00" fill="#000000">DTask</text>
<polyline fill="none" stroke="#000000" points="667.5,-104.5 733.5,-104.5 "/>
<text text-anchor="middle" x="700.5" y="-92.5" font-family="Helvetica,sans-Serif" font-size="10.00" fill="#000000"> </text>
<polyline fill="none" stroke="#000000" points="667.5,-85.5 733.5,-85.5 "/>
<text text-anchor="start" x="675.5" y="-73.5" font-family="Helvetica,sans-Serif" font-size="10.00" fill="#000000">+ process()</text>
<text text-anchor="start" x="675.5" y="-62.5" font-family="Helvetica,sans-Serif" font-size="10.00" fill="#000000">+ init()</text>
<text text-anchor="start" x="675.5" y="-51.5" font-family="Helvetica,sans-Serif" font-size="10.00" fill="#000000">+ process()</text>
<text text-anchor="start" x="675.5" y="-40.5" font-family="Helvetica,sans-Serif" font-size="10.00" fill="#000000">+ init()</text>
<text text-anchor="start" x="675.5" y="-29.5" font-family="Helvetica,sans-Serif" font-size="10.00" fill="#000000">+ process()</text>
<text text-anchor="start" x="675.5" y="-18.5" font-family="Helvetica,sans-Serif" font-size="10.00" fill="#000000">+ process()</text>
<text text-anchor="start" x="675.5" y="-7.5" font-family="Helvetica,sans-Serif" font-size="10.00" fill="#000000">+ process()</text>
</g>
<!-- Node2 -->
<g id="node2" class="node">
<title>Node2</title>
<g id="a_node2"><a xlink:href="../../d8/d34/classo2_1_1framework_1_1HistogramRegistry.html" target="_top" xlink:title="{o2::framework::Histogram\lRegistry\n||+ HistogramRegistry()\l+ add()\l+ add()\l+ add()\l+ addClone()\l+ contains()\l+ get()\l+ operator()()\l+ spec()\l+ ref()\l+ setHash()\l+ operator*()\l+ fill()\l+ fill()\l+ getSize()\l+ getSize()\l+ print()\l}">
<polygon fill="none" stroke="#000000" points="802.5,-368.5 802.5,-612.5 932.5,-612.5 932.5,-368.5 802.5,-368.5"/>
<text text-anchor="start" x="810.5" y="-600.5" font-family="Helvetica,sans-Serif" font-size="10.00" fill="#000000">o2::framework::Histogram</text>
<text text-anchor="middle" x="867.5" y="-589.5" font-family="Helvetica,sans-Serif" font-size="10.00" fill="#000000">Registry</text>
<polyline fill="none" stroke="#000000" points="802.5,-582.5 932.5,-582.5 "/>
<text text-anchor="middle" x="867.5" y="-570.5" font-family="Helvetica,sans-Serif" font-size="10.00" fill="#000000"> </text>
<polyline fill="none" stroke="#000000" points="802.5,-563.5 932.5,-563.5 "/>
<text text-anchor="start" x="810.5" y="-551.5" font-family="Helvetica,sans-Serif" font-size="10.00" fill="#000000">+ HistogramRegistry()</text>
<text text-anchor="start" x="810.5" y="-540.5" font-family="Helvetica,sans-Serif" font-size="10.00" fill="#000000">+ add()</text>
<text text-anchor="start" x="810.5" y="-529.5" font-family="Helvetica,sans-Serif" font-size="10.00" fill="#000000">+ add()</text>
<text text-anchor="start" x="810.5" y="-518.5" font-family="Helvetica,sans-Serif" font-size="10.00" fill="#000000">+ add()</text>
<text text-anchor="start" x="810.5" y="-507.5" font-family="Helvetica,sans-Serif" font-size="10.00" fill="#000000">+ addClone()</text>
<text text-anchor="start" x="810.5" y="-496.5" font-family="Helvetica,sans-Serif" font-size="10.00" fill="#000000">+ contains()</text>
<text text-anchor="start" x="810.5" y="-485.5" font-family="Helvetica,sans-Serif" font-size="10.00" fill="#000000">+ get()</text>
<text text-anchor="start" x="810.5" y="-474.5" font-family="Helvetica,sans-Serif" font-size="10.00" fill="#000000">+ operator()()</text>
<text text-anchor="start" x="810.5" y="-463.5" font-family="Helvetica,sans-Serif" font-size="10.00" fill="#000000">+ spec()</text>
<text text-anchor="start" x="810.5" y="-452.5" font-family="Helvetica,sans-Serif" font-size="10.00" fill="#000000">+ ref()</text>
<text text-anchor="start" x="810.5" y="-441.5" font-family="Helvetica,sans-Serif" font-size="10.00" fill="#000000">+ setHash()</text>
<text text-anchor="start" x="810.5" y="-430.5" font-family="Helvetica,sans-Serif" font-size="10.00" fill="#000000">+ operator*()</text>
<text text-anchor="start" x="810.5" y="-419.5" font-family="Helvetica,sans-Serif" font-size="10.00" fill="#000000">+ fill()</text>
<text text-anchor="start" x="810.5" y="-408.5" font-family="Helvetica,sans-Serif" font-size="10.00" fill="#000000">+ fill()</text>
<text text-anchor="start" x="810.5" y="-397.5" font-family="Helvetica,sans-Serif" font-size="10.00" fill="#000000">+ getSize()</text>
<text text-anchor="start" x="810.5" y="-386.5" font-family="Helvetica,sans-Serif" font-size="10.00" fill="#000000">+ getSize()</text>
<text text-anchor="start" x="810.5" y="-375.5" font-family="Helvetica,sans-Serif" font-size="10.00" fill="#000000">+ print()</text>
</a>
</g>
</g>
<!-- Node2&#45;&gt;Node1 -->
<g id="edge1" class="edge">
<title>Node2&#45;&gt;Node1</title>
<path fill="none" stroke="#404040" d="M842.2956,-368.1385C825.2974,-299.3175 799.1992,-213.1906 762.5,-142 756.5816,-130.5192 748.9501,-119.0356 741.0774,-108.4975"/>
<polygon fill="none" stroke="#404040" points="740.8495,-108.2032 734.0136,-105.9076 733.5034,-98.7145 740.3393,-101.0101 740.8495,-108.2032"/>
<text text-anchor="middle" x="861" y="-263.5" font-family="Helvetica,sans-Serif" font-size="10.00" fill="#000000"> +etaStudy</text>
<text text-anchor="middle" x="861" y="-252.5" font-family="Helvetica,sans-Serif" font-size="10.00" fill="#000000">+spectra</text>
</g>
<!-- Node3 -->
<g id="node3" class="node">
<title>Node3</title>
<polygon fill="none" stroke="#bfbfbf" points="765,-874 765,-931 816,-931 816,-874 765,-874"/>
<text text-anchor="middle" x="790.5" y="-919" font-family="Helvetica,sans-Serif" font-size="10.00" fill="#000000">uint32_t</text>
<polyline fill="none" stroke="#bfbfbf" points="765,-912 816,-912 "/>
<text text-anchor="middle" x="790.5" y="-900" font-family="Helvetica,sans-Serif" font-size="10.00" fill="#000000"> </text>
<polyline fill="none" stroke="#bfbfbf" points="765,-893 816,-893 "/>
<text text-anchor="middle" x="790.5" y="-881" font-family="Helvetica,sans-Serif" font-size="10.00" fill="#000000"> </text>
</g>
<!-- Node3&#45;&gt;Node2 -->
<g id="edge2" class="edge">
<title>Node3&#45;&gt;Node2</title>
<path fill="none" stroke="#404040" d="M811.6731,-873.81C825.1155,-853.8988 841.4463,-826.1674 849.5,-799 865.9445,-743.5278 871.7284,-680.045 872.9152,-625.145"/>
<polygon fill="none" stroke="#404040" points="872.9199,-624.8417 869.0145,-618.7796 873.1082,-612.8431 877.0136,-618.9052 872.9199,-624.8417"/>
<text text-anchor="middle" x="860.5" y="-820" font-family="Helvetica,sans-Serif" font-size="10.00" fill="#000000"> +lookup</text>
</g>
<!-- Node5 -->
<g id="node5" class="node">
<title>Node5</title>
<g id="a_node5"><a xlink:href="../../d4/d79/structo2_1_1framework_1_1OutputObj.html" target="_top" xlink:title="{o2::framework::OutputObj\l\&lt; TList \&gt;\n||+ spec()\l+ OutputObj()\l+ OutputObj()\l+ setObject()\l+ setObject()\l+ setObject()\l+ setObject()\l+ setHash()\l+ operator&#45;\&gt;()\l+ operator*()\l+ ref()\l}">
<polygon fill="none" stroke="#000000" points="440,-171.5 440,-349.5 569,-349.5 569,-171.5 440,-171.5"/>
<text text-anchor="start" x="448" y="-337.5" font-family="Helvetica,sans-Serif" font-size="10.00" fill="#000000">o2::framework::OutputObj</text>
<text text-anchor="middle" x="504.5" y="-326.5" font-family="Helvetica,sans-Serif" font-size="10.00" fill="#000000">&lt; TList &gt;</text>
<polyline fill="none" stroke="#000000" points="440,-319.5 569,-319.5 "/>
<text text-anchor="middle" x="504.5" y="-307.5" font-family="Helvetica,sans-Serif" font-size="10.00" fill="#000000"> </text>
<polyline fill="none" stroke="#000000" points="440,-300.5 569,-300.5 "/>
<text text-anchor="start" x="448" y="-288.5" font-family="Helvetica,sans-Serif" font-size="10.00" fill="#000000">+ spec()</text>
<text text-anchor="start" x="448" y="-277.5" font-family="Helvetica,sans-Serif" font-size="10.00" fill="#000000">+ OutputObj()</text>
<text text-anchor="start" x="448" y="-266.5" font-family="Helvetica,sans-Serif" font-size="10.00" fill="#000000">+ OutputObj()</text>
<text text-anchor="start" x="448" y="-255.5" font-family="Helvetica,sans-Serif" font-size="10.00" fill="#000000">+ setObject()</text>
<text text-anchor="start" x="448" y="-244.5" font-family="Helvetica,sans-Serif" font-size="10.00" fill="#000000">+ setObject()</text>
<text text-anchor="start" x="448" y="-233.5" font-family="Helvetica,sans-Serif" font-size="10.00" fill="#000000">+ setObject()</text>
<text text-anchor="start" x="448" y="-222.5" font-family="Helvetica,sans-Serif" font-size="10.00" fill="#000000">+ setObject()</text>
<text text-anchor="start" x="448" y="-211.5" font-family="Helvetica,sans-Serif" font-size="10.00" fill="#000000">+ setHash()</text>
<text text-anchor="start" x="448" y="-200.5" font-family="Helvetica,sans-Serif" font-size="10.00" fill="#000000">+ operator&#45;&gt;()</text>
<text text-anchor="start" x="448" y="-189.5" font-family="Helvetica,sans-Serif" font-size="10.00" fill="#000000">+ operator*()</text>
<text text-anchor="start" x="448" y="-178.5" font-family="Helvetica,sans-Serif" font-size="10.00" fill="#000000">+ ref()</text>
</a>
</g>
</g>
<!-- Node3&#45;&gt;Node5 -->
<g id="edge8" class="edge">
<title>Node3&#45;&gt;Node5</title>
<path fill="none" stroke="#404040" d="M788.2696,-873.9466C786.6518,-853.1632 784.4199,-824.3389 782.5,-799 778.8719,-751.1166 781.767,-404.4467 750.5,-368 727.3347,-340.9972 705.8203,-362.4714 672.5,-350 641.0762,-338.2384 608.1529,-321.7286 579.8621,-306.0868"/>
<polygon fill="none" stroke="#404040" points="579.7278,-306.0116 572.5382,-306.5685 569.259,-300.1462 576.4486,-299.5893 579.7278,-306.0116"/>
<text text-anchor="middle" x="814" y="-712.5" font-family="Helvetica,sans-Serif" font-size="10.00" fill="#000000"> +mTaskHash</text>
</g>
<!-- Node15 -->
<g id="node15" class="node">
<title>Node15</title>
<g id="a_node15"><a xlink:href="../../d4/d79/structo2_1_1framework_1_1OutputObj.html" target="_top" xlink:title="{o2::framework::OutputObj\&lt; T \&gt;\n||+ OutputObj()\l+ OutputObj()\l+ setObject()\l+ setObject()\l+ setObject()\l+ setObject()\l+ setHash()\l+ spec()\l+ operator&#45;\&gt;()\l+ operator*()\l+ ref()\l}">
<polygon fill="none" stroke="#000000" points="428,-631.5 428,-798.5 581,-798.5 581,-631.5 428,-631.5"/>
<text text-anchor="middle" x="504.5" y="-786.5" font-family="Helvetica,sans-Serif" font-size="10.00" fill="#000000">o2::framework::OutputObj&lt; T &gt;</text>
<polyline fill="none" stroke="#000000" points="428,-779.5 581,-779.5 "/>
<text text-anchor="middle" x="504.5" y="-767.5" font-family="Helvetica,sans-Serif" font-size="10.00" fill="#000000"> </text>
<polyline fill="none" stroke="#000000" points="428,-760.5 581,-760.5 "/>
<text text-anchor="start" x="436" y="-748.5" font-family="Helvetica,sans-Serif" font-size="10.00" fill="#000000">+ OutputObj()</text>
<text text-anchor="start" x="436" y="-737.5" font-family="Helvetica,sans-Serif" font-size="10.00" fill="#000000">+ OutputObj()</text>
<text text-anchor="start" x="436" y="-726.5" font-family="Helvetica,sans-Serif" font-size="10.00" fill="#000000">+ setObject()</text>
<text text-anchor="start" x="436" y="-715.5" font-family="Helvetica,sans-Serif" font-size="10.00" fill="#000000">+ setObject()</text>
<text text-anchor="start" x="436" y="-704.5" font-family="Helvetica,sans-Serif" font-size="10.00" fill="#000000">+ setObject()</text>
<text text-anchor="start" x="436" y="-693.5" font-family="Helvetica,sans-Serif" font-size="10.00" fill="#000000">+ setObject()</text>
<text text-anchor="start" x="436" y="-682.5" font-family="Helvetica,sans-Serif" font-size="10.00" fill="#000000">+ setHash()</text>
<text text-anchor="start" x="436" y="-671.5" font-family="Helvetica,sans-Serif" font-size="10.00" fill="#000000">+ spec()</text>
<text text-anchor="start" x="436" y="-660.5" font-family="Helvetica,sans-Serif" font-size="10.00" fill="#000000">+ operator&#45;&gt;()</text>
<text text-anchor="start" x="436" y="-649.5" font-family="Helvetica,sans-Serif" font-size="10.00" fill="#000000">+ operator*()</text>
<text text-anchor="start" x="436" y="-638.5" font-family="Helvetica,sans-Serif" font-size="10.00" fill="#000000">+ ref()</text>
</a>
</g>
</g>
<!-- Node3&#45;&gt;Node15 -->
<g id="edge19" class="edge">
<title>Node3&#45;&gt;Node15</title>
<path fill="none" stroke="#404040" d="M764.9868,-891.5271C726.5488,-874.4412 652.2502,-839.2315 595.5,-799 593.9927,-797.9314 592.484,-796.8399 590.9757,-795.7282"/>
<polygon fill="none" stroke="#404040" points="590.5753,-795.4217 583.3796,-794.9508 581.0467,-788.1274 588.2425,-788.5984 590.5753,-795.4217"/>
<text text-anchor="middle" x="668" y="-820" font-family="Helvetica,sans-Serif" font-size="10.00" fill="#000000"> +mTaskHash</text>
</g>
<!-- Node4 -->
<g id="node4" class="node">
<title>Node4</title>
<polygon fill="none" stroke="#bfbfbf" points="681.5,-232 681.5,-289 719.5,-289 719.5,-232 681.5,-232"/>
<text text-anchor="middle" x="700.5" y="-277" font-family="Helvetica,sans-Serif" font-size="10.00" fill="#000000">Filter</text>
<polyline fill="none" stroke="#bfbfbf" points="681.5,-270 719.5,-270 "/>
<text text-anchor="middle" x="700.5" y="-258" font-family="Helvetica,sans-Serif" font-size="10.00" fill="#000000"> </text>
<polyline fill="none" stroke="#bfbfbf" points="681.5,-251 719.5,-251 "/>
<text text-anchor="middle" x="700.5" y="-239" font-family="Helvetica,sans-Serif" font-size="10.00" fill="#000000"> </text>
</g>
<!-- Node4&#45;&gt;Node1 -->
<g id="edge3" class="edge">
<title>Node4&#45;&gt;Node1</title>
<path fill="none" stroke="#404040" d="M700.5,-231.6364C700.5,-206.5458 700.5,-169.0905 700.5,-135.7524"/>
<polygon fill="none" stroke="#404040" points="700.5001,-135.6867 696.5,-129.6868 700.5,-123.6867 704.5,-129.6867 700.5001,-135.6867"/>
<text text-anchor="middle" x="729.5" y="-145" font-family="Helvetica,sans-Serif" font-size="10.00" fill="#000000"> +notTracklet</text>
</g>
<!-- Node5&#45;&gt;Node1 -->
<g id="edge4" class="edge">
<title>Node5&#45;&gt;Node1</title>
<path fill="none" stroke="#404040" d="M569.2209,-194.9535C598.7741,-165.0235 632.9089,-130.4532 658.9628,-104.0671"/>
<polygon fill="none" stroke="#404040" points="659.0389,-103.9899 660.4083,-96.91 667.4703,-95.451 666.1009,-102.5309 659.0389,-103.9899"/>
<text text-anchor="middle" x="631.5" y="-145" font-family="Helvetica,sans-Serif" font-size="10.00" fill="#000000"> +list</text>
</g>
<!-- Node6 -->
<g id="node6" class="node">
<title>Node6</title>
<polygon fill="none" stroke="#bfbfbf" points="0,-874 0,-931 113,-931 113,-874 0,-874"/>
<text text-anchor="middle" x="56.5" y="-919" font-family="Helvetica,sans-Serif" font-size="10.00" fill="#000000">OutputObjSourceType</text>
<polyline fill="none" stroke="#bfbfbf" points="0,-912 113,-912 "/>
<text text-anchor="middle" x="56.5" y="-900" font-family="Helvetica,sans-Serif" font-size="10.00" fill="#000000"> </text>
<polyline fill="none" stroke="#bfbfbf" points="0,-893 113,-893 "/>
<text text-anchor="middle" x="56.5" y="-881" font-family="Helvetica,sans-Serif" font-size="10.00" fill="#000000"> </text>
</g>
<!-- Node6&#45;&gt;Node5 -->
<g id="edge5" class="edge">
<title>Node6&#45;&gt;Node5</title>
<path fill="none" stroke="#404040" d="M53.7051,-873.9559C46.7559,-785.9472 38.16,-515.8273 175.5,-368 210.0214,-330.8426 342.0731,-295.9455 428.0186,-276.4848"/>
<polygon fill="none" stroke="#404040" points="428.1146,-276.4634 433.0961,-271.2496 439.8249,-273.8426 434.8433,-279.0565 428.1146,-276.4634"/>
<text text-anchor="middle" x="93" y="-712.5" font-family="Helvetica,sans-Serif" font-size="10.00" fill="#000000"> +sourceType</text>
</g>
<!-- Node6&#45;&gt;Node15 -->
<g id="edge17" class="edge">
<title>Node6&#45;&gt;Node15</title>
<path fill="none" stroke="#404040" d="M83.3346,-873.7743C94.2684,-863.6071 107.6018,-852.9747 121.5,-846 175.573,-818.864 194.8089,-826.86 254.5,-817 324.6672,-805.4095 348.8287,-828.5871 413.5,-799 414.722,-798.4409 415.9385,-797.8591 417.1492,-797.256"/>
<polygon fill="none" stroke="#404040" points="417.3866,-797.124 420.6857,-790.7118 427.8735,-791.2909 424.5744,-797.7031 417.3866,-797.124"/>
<text text-anchor="middle" x="285" y="-820" font-family="Helvetica,sans-Serif" font-size="10.00" fill="#000000"> +sourceType</text>
</g>
<!-- Node7 -->
<g id="node7" class="node">
<title>Node7</title>
<polygon fill="none" stroke="#bfbfbf" points="236.5,-686.5 236.5,-743.5 338.5,-743.5 338.5,-686.5 236.5,-686.5"/>
<text text-anchor="middle" x="287.5" y="-731.5" font-family="Helvetica,sans-Serif" font-size="10.00" fill="#000000">shared_ptr&lt; TList &gt;</text>
<polyline fill="none" stroke="#bfbfbf" points="236.5,-724.5 338.5,-724.5 "/>
<text text-anchor="middle" x="287.5" y="-712.5" font-family="Helvetica,sans-Serif" font-size="10.00" fill="#000000"> </text>
<polyline fill="none" stroke="#bfbfbf" points="236.5,-705.5 338.5,-705.5 "/>
<text text-anchor="middle" x="287.5" y="-693.5" font-family="Helvetica,sans-Serif" font-size="10.00" fill="#000000"> </text>
</g>
<!-- Node7&#45;&gt;Node5 -->
<g id="edge6" class="edge">
<title>Node7&#45;&gt;Node5</title>
<path fill="none" stroke="#404040" d="M282.5201,-686.1549C273.2009,-622.8992 259.5088,-469.5463 324.5,-368 348.5054,-330.4925 390.677,-304.2827 428.1687,-287.1387"/>
<polygon fill="none" stroke="#404040" points="428.6411,-286.9314 432.5266,-280.8566 439.6285,-282.1067 435.743,-288.1815 428.6411,-286.9314"/>
<text text-anchor="middle" x="342.5" y="-488" font-family="Helvetica,sans-Serif" font-size="10.00" fill="#000000"> +object</text>
</g>
<!-- Node8 -->
<g id="node8" class="node">
<title>Node8</title>
<polygon fill="none" stroke="#bfbfbf" points="278.5,-874 278.5,-931 404.5,-931 404.5,-874 278.5,-874"/>
<text text-anchor="middle" x="341.5" y="-919" font-family="Helvetica,sans-Serif" font-size="10.00" fill="#000000">OutputObjHandlingPolicy</text>
<polyline fill="none" stroke="#bfbfbf" points="278.5,-912 404.5,-912 "/>
<text text-anchor="middle" x="341.5" y="-900" font-family="Helvetica,sans-Serif" font-size="10.00" fill="#000000"> </text>
<polyline fill="none" stroke="#bfbfbf" points="278.5,-893 404.5,-893 "/>
<text text-anchor="middle" x="341.5" y="-881" font-family="Helvetica,sans-Serif" font-size="10.00" fill="#000000"> </text>
</g>
<!-- Node8&#45;&gt;Node5 -->
<g id="edge7" class="edge">
<title>Node8&#45;&gt;Node5</title>
<path fill="none" stroke="#404040" d="M349.8043,-873.6874C353.5175,-859.9491 357.6828,-843.2253 360.5,-828 376.5388,-741.3211 364.612,-717.1029 383.5,-631 403.9375,-537.8336 438.5536,-434.9364 465.5379,-361.271"/>
<polygon fill="none" stroke="#404040" points="465.6506,-360.965 463.9719,-353.9519 469.7998,-349.7051 471.4785,-356.7181 465.6506,-360.965"/>
<text text-anchor="middle" x="401" y="-712.5" font-family="Helvetica,sans-Serif" font-size="10.00" fill="#000000"> +policy</text>
</g>
<!-- Node8&#45;&gt;Node15 -->
<g id="edge18" class="edge">
<title>Node8&#45;&gt;Node15</title>
<path fill="none" stroke="#404040" d="M366.6115,-873.614C382.132,-855.7607 403.0038,-831.7517 423.8056,-807.8233"/>
<polygon fill="none" stroke="#404040" points="423.8904,-807.7257 424.8082,-800.5732 431.7634,-798.6694 430.8457,-805.8219 423.8904,-807.7257"/>
<text text-anchor="middle" x="431" y="-820" font-family="Helvetica,sans-Serif" font-size="10.00" fill="#000000"> +policy</text>
</g>
<!-- Node9 -->
<g id="node9" class="node">
<title>Node9</title>
<polygon fill="none" stroke="#bfbfbf" points="530,-1023 530,-1080 559,-1080 559,-1023 530,-1023"/>
<text text-anchor="middle" x="544.5" y="-1068" font-family="Helvetica,sans-Serif" font-size="10.00" fill="#000000">int</text>
<polyline fill="none" stroke="#bfbfbf" points="530,-1061 559,-1061 "/>
<text text-anchor="middle" x="544.5" y="-1049" font-family="Helvetica,sans-Serif" font-size="10.00" fill="#000000"> </text>
<polyline fill="none" stroke="#bfbfbf" points="530,-1042 559,-1042 "/>
<text text-anchor="middle" x="544.5" y="-1030" font-family="Helvetica,sans-Serif" font-size="10.00" fill="#000000"> </text>
</g>
<!-- Node9&#45;&gt;Node5 -->
<g id="edge9" class="edge">
<title>Node9&#45;&gt;Node5</title>
<path fill="none" stroke="#404040" d="M559.2793,-1041.2555C600.4922,-1011.3213 713.0695,-919.6032 703.5,-817 684.3702,-611.8932 683.4956,-550.7857 588.5,-368 584.7574,-360.7986 580.5117,-353.5991 575.9647,-346.5299"/>
<polygon fill="none" stroke="#404040" points="575.7816,-346.256 569.1212,-343.4922 569.1108,-336.281 575.7712,-339.0449 575.7816,-346.256"/>
<text text-anchor="middle" x="718.5" y="-820" font-family="Helvetica,sans-Serif" font-size="10.00" fill="#000000"> +label</text>
</g>
<!-- Node11 -->
<g id="node11" class="node">
<title>Node11</title>
<g id="a_node11"><a xlink:href="../../da/d96/structo2_1_1framework_1_1InputSpec.html" target="_top" xlink:title="{o2::framework::InputSpec\n||+ InputSpec()\l+ InputSpec()\l+ InputSpec()\l+ InputSpec()\l+ InputSpec()\l+ operator==()\l}">
<polygon fill="none" stroke="#000000" points="131,-846.5 131,-958.5 260,-958.5 260,-846.5 131,-846.5"/>
<text text-anchor="middle" x="195.5" y="-946.5" font-family="Helvetica,sans-Serif" font-size="10.00" fill="#000000">o2::framework::InputSpec</text>
<polyline fill="none" stroke="#000000" points="131,-939.5 260,-939.5 "/>
<text text-anchor="middle" x="195.5" y="-927.5" font-family="Helvetica,sans-Serif" font-size="10.00" fill="#000000"> </text>
<polyline fill="none" stroke="#000000" points="131,-920.5 260,-920.5 "/>
<text text-anchor="start" x="139" y="-908.5" font-family="Helvetica,sans-Serif" font-size="10.00" fill="#000000">+ InputSpec()</text>
<text text-anchor="start" x="139" y="-897.5" font-family="Helvetica,sans-Serif" font-size="10.00" fill="#000000">+ InputSpec()</text>
<text text-anchor="start" x="139" y="-886.5" font-family="Helvetica,sans-Serif" font-size="10.00" fill="#000000">+ InputSpec()</text>
<text text-anchor="start" x="139" y="-875.5" font-family="Helvetica,sans-Serif" font-size="10.00" fill="#000000">+ InputSpec()</text>
<text text-anchor="start" x="139" y="-864.5" font-family="Helvetica,sans-Serif" font-size="10.00" fill="#000000">+ InputSpec()</text>
<text text-anchor="start" x="139" y="-853.5" font-family="Helvetica,sans-Serif" font-size="10.00" fill="#000000">+ operator==()</text>
</a>
</g>
</g>
<!-- Node9&#45;&gt;Node11 -->
<g id="edge15" class="edge">
<title>Node9&#45;&gt;Node11</title>
<path fill="none" stroke="#404040" d="M529.8055,-1046.575C479.6786,-1029.7725 316.3776,-975.0177 271.2609,-958.1676"/>
<polygon fill="none" stroke="#404040" points="271.2045,-958.1448 264.1415,-959.599 260.0827,-953.6386 267.1457,-952.1844 271.2045,-958.1448"/>
<text text-anchor="middle" x="372.5" y="-980" font-family="Helvetica,sans-Serif" font-size="10.00" fill="#000000"> +binding</text>
</g>
<!-- Node9&#45;&gt;Node15 -->
<g id="edge20" class="edge">
<title>Node9&#45;&gt;Node15</title>
<path fill="none" stroke="#404040" d="M541.0896,-1022.8102C535.571,-976.3848 524.44,-882.7449 515.8966,-810.874"/>
<polygon fill="none" stroke="#404040" points="515.858,-810.5485 511.1777,-805.0627 514.4414,-798.6324 519.1218,-804.1183 515.858,-810.5485"/>
<text text-anchor="middle" x="548.5" y="-900" font-family="Helvetica,sans-Serif" font-size="10.00" fill="#000000"> +label</text>
</g>
<!-- Node10 -->
<g id="node10" class="node">
<title>Node10</title>
<polygon fill="none" stroke="#bfbfbf" points="596,-874 596,-931 631,-931 631,-874 596,-874"/>
<text text-anchor="middle" x="613.5" y="-919" font-family="Helvetica,sans-Serif" font-size="10.00" fill="#000000">bool</text>
<polyline fill="none" stroke="#bfbfbf" points="596,-912 631,-912 "/>
<text text-anchor="middle" x="613.5" y="-900" font-family="Helvetica,sans-Serif" font-size="10.00" fill="#000000"> </text>
<polyline fill="none" stroke="#bfbfbf" points="596,-893 631,-893 "/>
<text text-anchor="middle" x="613.5" y="-881" font-family="Helvetica,sans-Serif" font-size="10.00" fill="#000000"> </text>
</g>
<!-- Node10&#45;&gt;Node5 -->
<g id="edge10" class="edge">
<title>Node10&#45;&gt;Node5</title>
<path fill="none" stroke="#404040" d="M613.4094,-873.7617C612.4689,-792.6279 604.9849,-555.5307 551.5,-368 550.8506,-365.7229 550.1632,-363.4309 549.4427,-361.1302"/>
<polygon fill="none" stroke="#404040" points="549.3869,-360.9629 543.6923,-356.5388 545.5859,-349.5807 551.2804,-354.0048 549.3869,-360.9629"/>
<text text-anchor="middle" x="638" y="-712.5" font-family="Helvetica,sans-Serif" font-size="10.00" fill="#000000"> +isdangling</text>
</g>
<!-- Node10&#45;&gt;Node15 -->
<g id="edge22" class="edge">
<title>Node10&#45;&gt;Node15</title>
<path fill="none" stroke="#404040" d="M599.0209,-873.7137C593.4161,-864.2319 586.4287,-854.0624 578.5,-846 568.1269,-835.4519 559.9515,-839.3813 550.5,-828 545.7046,-822.2254 541.3553,-815.8842 537.4206,-809.244"/>
<polygon fill="none" stroke="#404040" points="537.352,-809.119 530.9573,-805.7862 531.5742,-798.6015 537.9689,-801.9343 537.352,-809.119"/>
<text text-anchor="middle" x="577" y="-820" font-family="Helvetica,sans-Serif" font-size="10.00" fill="#000000"> +isdangling</text>
</g>
<!-- Node11&#45;&gt;Node5 -->
<g id="edge11" class="edge">
<title>Node11&#45;&gt;Node5</title>
<path fill="none" stroke="#404040" d="M185.6652,-846.2849C170.3919,-739.4234 153.8384,-505.4012 271.5,-368 311.7565,-320.9898 376.9405,-293.3435 428.1403,-277.889"/>
<polygon fill="none" stroke="#404040" points="428.3075,-277.8405 432.9549,-272.3268 439.832,-274.496 435.1846,-280.0098 428.3075,-277.8405"/>
<text text-anchor="middle" x="196" y="-712.5" font-family="Helvetica,sans-Serif" font-size="10.00" fill="#000000"> +spec</text>
</g>
<!-- Node11&#45;&gt;Node15 -->
<g id="edge23" class="edge">
<title>Node11&#45;&gt;Node15</title>
<path fill="none" stroke="#404040" d="M260.064,-851.326C263.1987,-849.4411 266.3521,-847.654 269.5,-846 329.0966,-814.6856 355.4289,-833.0602 413.5,-799 414.8562,-798.2046 416.2091,-797.3861 417.5579,-796.5464"/>
<polygon fill="none" stroke="#404040" points="417.8124,-796.3771 420.5908,-789.7227 427.8019,-789.728 425.0235,-796.3824 417.8124,-796.3771"/>
<text text-anchor="middle" x="387" y="-820" font-family="Helvetica,sans-Serif" font-size="10.00" fill="#000000"> +spec</text>
</g>
<!-- Node12 -->
<g id="node12" class="node">
<title>Node12</title>
<polygon fill="none" stroke="#bfbfbf" points="23,-1017.5 23,-1085.5 138,-1085.5 138,-1017.5 23,-1017.5"/>
<text text-anchor="start" x="31" y="-1073.5" font-family="Helvetica,sans-Serif" font-size="10.00" fill="#000000">vector&lt; o2::framework</text>
<text text-anchor="middle" x="80.5" y="-1062.5" font-family="Helvetica,sans-Serif" font-size="10.00" fill="#000000">::ConfigParamSpec &gt;</text>
<polyline fill="none" stroke="#bfbfbf" points="23,-1055.5 138,-1055.5 "/>
<text text-anchor="middle" x="80.5" y="-1043.5" font-family="Helvetica,sans-Serif" font-size="10.00" fill="#000000"> </text>
<polyline fill="none" stroke="#bfbfbf" points="23,-1036.5 138,-1036.5 "/>
<text text-anchor="middle" x="80.5" y="-1024.5" font-family="Helvetica,sans-Serif" font-size="10.00" fill="#000000"> </text>
</g>
<!-- Node12&#45;&gt;Node11 -->
<g id="edge12" class="edge">
<title>Node12&#45;&gt;Node11</title>
<path fill="none" stroke="#404040" d="M106.8833,-1017.3164C118.0808,-1002.8084 131.5312,-985.3813 144.5305,-968.5387"/>
<polygon fill="none" stroke="#404040" points="144.7798,-968.2157 145.2793,-961.0219 152.1118,-958.716 151.6123,-965.9099 144.7798,-968.2157"/>
<text text-anchor="middle" x="163.5" y="-980" font-family="Helvetica,sans-Serif" font-size="10.00" fill="#000000"> +metadata</text>
</g>
<!-- Node13 -->
<g id="node13" class="node">
<title>Node13</title>
<polygon fill="none" stroke="#bfbfbf" points="156.5,-1023 156.5,-1080 234.5,-1080 234.5,-1023 156.5,-1023"/>
<text text-anchor="middle" x="195.5" y="-1068" font-family="Helvetica,sans-Serif" font-size="10.00" fill="#000000">enum Lifetime</text>
<polyline fill="none" stroke="#bfbfbf" points="156.5,-1061 234.5,-1061 "/>
<text text-anchor="middle" x="195.5" y="-1049" font-family="Helvetica,sans-Serif" font-size="10.00" fill="#000000"> </text>
<polyline fill="none" stroke="#bfbfbf" points="156.5,-1042 234.5,-1042 "/>
<text text-anchor="middle" x="195.5" y="-1030" font-family="Helvetica,sans-Serif" font-size="10.00" fill="#000000"> </text>
</g>
<!-- Node13&#45;&gt;Node11 -->
<g id="edge13" class="edge">
<title>Node13&#45;&gt;Node11</title>
<path fill="none" stroke="#404040" d="M195.5,-1022.7713C195.5,-1007.9277 195.5,-989.1262 195.5,-970.825"/>
<polygon fill="none" stroke="#404040" points="195.5001,-970.6049 191.5,-964.605 195.5,-958.6049 199.5,-964.6049 195.5001,-970.6049"/>
<text text-anchor="middle" x="216" y="-980" font-family="Helvetica,sans-Serif" font-size="10.00" fill="#000000"> +lifetime</text>
</g>
<!-- Node14 -->
<g id="node14" class="node">
<title>Node14</title>
<polygon fill="none" stroke="#bfbfbf" points="253,-1006.5 253,-1096.5 400,-1096.5 400,-1006.5 253,-1006.5"/>
<text text-anchor="start" x="261" y="-1084.5" font-family="Helvetica,sans-Serif" font-size="10.00" fill="#000000">variant&lt; o2::framework</text>
<text text-anchor="start" x="261" y="-1073.5" font-family="Helvetica,sans-Serif" font-size="10.00" fill="#000000">::ConcreteDataMatcher,</text>
<text text-anchor="start" x="261" y="-1062.5" font-family="Helvetica,sans-Serif" font-size="10.00" fill="#000000"> o2::framework::data_matcher</text>
<text text-anchor="middle" x="326.5" y="-1051.5" font-family="Helvetica,sans-Serif" font-size="10.00" fill="#000000">::DataDescriptorMatcher &gt;</text>
<polyline fill="none" stroke="#bfbfbf" points="253,-1044.5 400,-1044.5 "/>
<text text-anchor="middle" x="326.5" y="-1032.5" font-family="Helvetica,sans-Serif" font-size="10.00" fill="#000000"> </text>
<polyline fill="none" stroke="#bfbfbf" points="253,-1025.5 400,-1025.5 "/>
<text text-anchor="middle" x="326.5" y="-1013.5" font-family="Helvetica,sans-Serif" font-size="10.00" fill="#000000"> </text>
</g>
<!-- Node14&#45;&gt;Node11 -->
<g id="edge14" class="edge">
<title>Node14&#45;&gt;Node11</title>
<path fill="none" stroke="#404040" d="M286.8402,-1006.3907C276.175,-994.2601 264.4212,-980.8913 252.9971,-967.8975"/>
<polygon fill="none" stroke="#404040" points="252.6807,-967.5375 245.7149,-965.6726 244.7572,-958.5254 251.723,-960.3903 252.6807,-967.5375"/>
<text text-anchor="middle" x="292" y="-980" font-family="Helvetica,sans-Serif" font-size="10.00" fill="#000000"> +matcher</text>
</g>
<!-- Node15&#45;&gt;Node5 -->
<g id="edge16" class="edge">
<title>Node15&#45;&gt;Node5</title>
<path fill="none" stroke="#ffa500" d="M504.5,-621.3491C504.5,-541.7333 504.5,-428.1944 504.5,-349.8367"/>
<polygon fill="#ffa500" stroke="#ffa500" points="501.0001,-621.373 504.5,-631.373 508.0001,-621.373 501.0001,-621.373"/>
<text text-anchor="middle" x="526" y="-488" font-family="Helvetica,sans-Serif" font-size="10.00" fill="#000000"> &lt; TList &gt;</text>
</g>
<!-- Node16 -->
<g id="node16" class="node">
<title>Node16</title>
<polygon fill="none" stroke="#bfbfbf" points="422.5,-874 422.5,-931 508.5,-931 508.5,-874 422.5,-874"/>
<text text-anchor="middle" x="465.5" y="-919" font-family="Helvetica,sans-Serif" font-size="10.00" fill="#000000">shared_ptr&lt; T &gt;</text>
<polyline fill="none" stroke="#bfbfbf" points="422.5,-912 508.5,-912 "/>
<text text-anchor="middle" x="465.5" y="-900" font-family="Helvetica,sans-Serif" font-size="10.00" fill="#000000"> </text>
<polyline fill="none" stroke="#bfbfbf" points="422.5,-893 508.5,-893 "/>
<text text-anchor="middle" x="465.5" y="-881" font-family="Helvetica,sans-Serif" font-size="10.00" fill="#000000"> </text>
</g>
<!-- Node16&#45;&gt;Node15 -->
<g id="edge21" class="edge">
<title>Node16&#45;&gt;Node15</title>
<path fill="none" stroke="#404040" d="M463.3904,-873.76C462.7705,-857.055 463.0205,-835.68 466.5,-817 466.9042,-814.8302 467.3506,-812.646 467.8345,-810.4534"/>
<polygon fill="none" stroke="#404040" points="467.8658,-810.3268 465.4272,-803.5405 470.7535,-798.6794 473.1921,-805.4657 467.8658,-810.3268"/>
<text text-anchor="middle" x="484.5" y="-820" font-family="Helvetica,sans-Serif" font-size="10.00" fill="#000000"> +object</text>
</g>
</g>
</svg>
        <g id="navigator" transform="translate(0 0)" fill="#404254">
                <rect fill="#f2f5e9" fill-opacity="0.5" stroke="#606060" stroke-width=".5" x="0" y="0" width="60" height="60"/>
                <use id="zoomplus" xlink:href="#zoomPlus" x="17" y="9" onmousedown="handleZoom(evt,'in')"/>
                <use id="zoomminus" xlink:href="#zoomMin" x="42" y="9" onmousedown="handleZoom(evt,'out')"/>
                <use id="reset" xlink:href="#resetDef" x="30" y="36" onmousedown="handleReset()"/>
                <g id="arrowUp" xlink:href="#dirArrow" transform="translate(30 24)" onmousedown="handlePan(0,-1)">
                  <use xlink:href="#rim" fill="#404040">
                        <set attributeName="fill" to="#808080" begin="arrowUp.mouseover" end="arrowUp.mouseout"/>
                  </use>
                  <path fill="none" stroke="white" stroke-width="1.5" d="M0,-3.0v7 M-2.5,-0.5L0,-3.0L2.5,-0.5"/>
                </g>
                <g id="arrowRight" xlink:href="#dirArrow" transform="rotate(90) translate(36 -43)" onmousedown="handlePan(1,0)">
                  <use xlink:href="#rim" fill="#404040">
                        <set attributeName="fill" to="#808080" begin="arrowRight.mouseover" end="arrowRight.mouseout"/>
                  </use>
                  <path fill="none" stroke="white" stroke-width="1.5" d="M0,-3.0v7 M-2.5,-0.5L0,-3.0L2.5,-0.5"/>
                </g>
                <g id="arrowDown" xlink:href="#dirArrow" transform="rotate(180) translate(-30 -48)" onmousedown="handlePan(0,1)">
                  <use xlink:href="#rim" fill="#404040">
                        <set attributeName="fill" to="#808080" begin="arrowDown.mouseover" end="arrowDown.mouseout"/>
                  </use>
                  <path fill="none" stroke="white" stroke-width="1.5" d="M0,-3.0v7 M-2.5,-0.5L0,-3.0L2.5,-0.5"/>
                </g>
                <g id="arrowLeft" xlink:href="#dirArrow" transform="rotate(270) translate(-36 17)" onmousedown="handlePan(-1,0)">
                  <use xlink:href="#rim" fill="#404040">
                        <set attributeName="fill" to="#808080" begin="arrowLeft.mouseover" end="arrowLeft.mouseout"/>
                  </use>
                  <path fill="none" stroke="white" stroke-width="1.5" d="M0,-3.0v7 M-2.5,-0.5L0,-3.0L2.5,-0.5"/>
                </g>
        </g>
        <svg viewBox="0 0 15 15" width="100%" height="30px" preserveAspectRatio="xMaxYMin meet">
         <g id="arrow_out" transform="scale(0.3 0.3)">
          <a xlink:href="structDTask__coll__graph_org.svg" target="_base">
           <rect id="button" ry="5" rx="5" y="6" x="6" height="38" width="38"
                fill="#f2f5e9" fill-opacity="0.5" stroke="#606060" stroke-width="1.0"/>
           <path id="arrow"
             d="M 11.500037,31.436501 C 11.940474,20.09759 22.043105,11.32322 32.158766,21.979434 L 37.068811,17.246167 C 37.068811,17.246167 37.088388,32 37.088388,32 L 22.160133,31.978069 C 22.160133,31.978069 26.997745,27.140456 26.997745,27.140456 C 18.528582,18.264221 13.291696,25.230495 11.500037,31.436501 z"
             style="fill:#404040;"/>
          </a>
         </g>
        </svg>
</svg>
