<?xml version="1.0" encoding="UTF-8" standalone="no"?>
<!DOCTYPE svg PUBLIC "-//W3C//DTD SVG 1.1//EN"
 "http://www.w3.org/Graphics/SVG/1.1/DTD/svg11.dtd">
<!-- Generated by graphviz version 2.40.1 (20161225.0304)
 -->
<!-- Title: /home/runner/work/AliceO2/AliceO2/Common/Field/test/testMagneticField.cxx Pages: 1 -->
<!--zoomable 397 -->
<svg id="main" version="1.1" xmlns="http://www.w3.org/2000/svg" xmlns:xlink="http://www.w3.org/1999/xlink" xml:space="preserve" onload="init(evt)">
<style type="text/css"><![CDATA[
.edge:hover path { stroke: red; }
.edge:hover polygon { stroke: red; fill: red; }
]]></style>
<script type="text/javascript"><![CDATA[
var edges = document.getElementsByTagName('g');
if (edges && edges.length) {
  for (var i=0;i<edges.length;i++) {
    if (edges[i].id.substr(0,4)=='edge') {
      edges[i].setAttribute('class','edge');
    }
  }
}
]]></script>
        <defs>
                <circle id="rim" cx="0" cy="0" r="7"/>
                <circle id="rim2" cx="0" cy="0" r="3.5"/>
                <g id="zoomPlus">
                        <use xlink:href="#rim" fill="#404040">
                                <set attributeName="fill" to="#808080" begin="zoomplus.mouseover" end="zoomplus.mouseout"/>
                        </use>
                        <path d="M-4,0h8M0,-4v8" fill="none" stroke="white" stroke-width="1.5" pointer-events="none"/>
                </g>
                <g id="zoomMin">
                        <use xlink:href="#rim" fill="#404040">
                                <set attributeName="fill" to="#808080" begin="zoomminus.mouseover" end="zoomminus.mouseout"/>
                        </use>
                        <path d="M-4,0h8" fill="none" stroke="white" stroke-width="1.5" pointer-events="none"/>
                </g>
                <g id="dirArrow">
                        <path fill="none" stroke="white" stroke-width="1.5" d="M0,-3.0v7 M-2.5,-0.5L0,-3.0L2.5,-0.5"/>
                </g>
               <g id="resetDef">
                       <use xlink:href="#rim2" fill="#404040">
                               <set attributeName="fill" to="#808080" begin="reset.mouseover" end="reset.mouseout"/>
                       </use>
               </g>
        </defs>

<script type="text/javascript">
var viewWidth = 2386;
var viewHeight = 397;
var sectionId = 'dynsection-0';
</script>
<script xlink:href="../../svgpan.js"/>
<svg id="graph" class="graph">
<g id="viewport">
<title>/home/runner/work/AliceO2/AliceO2/Common/Field/test/testMagneticField.cxx</title>
<!-- Node0 -->
<g id="node1" class="node">
<title>Node0</title>
<polygon fill="#bfbfbf" stroke="#000000" points="637.2338,-347.5 637.2338,-388.5 777.2338,-388.5 777.2338,-347.5 637.2338,-347.5"/>
<text text-anchor="start" x="645.2338" y="-376.5" font-family="Helvetica,sans-Serif" font-size="10.00" fill="#000000">/home/runner/work/AliceO2</text>
<text text-anchor="start" x="645.2338" y="-365.5" font-family="Helvetica,sans-Serif" font-size="10.00" fill="#000000">/AliceO2/Common/Field/test</text>
<text text-anchor="middle" x="707.2338" y="-354.5" font-family="Helvetica,sans-Serif" font-size="10.00" fill="#000000">/testMagneticField.cxx</text>
</g>
<!-- Node1 -->
<g id="node2" class="node">
<title>Node1</title>
<polygon fill="none" stroke="#bfbfbf" points="340.7338,-291.5 340.7338,-310.5 459.7338,-310.5 459.7338,-291.5 340.7338,-291.5"/>
<text text-anchor="middle" x="400.2338" y="-298.5" font-family="Helvetica,sans-Serif" font-size="10.00" fill="#000000">boost/test/unit_test.hpp</text>
</g>
<!-- Node0&#45;&gt;Node1 -->
<g id="edge1" class="edge">
<title>Node0&#45;&gt;Node1</title>
<path fill="none" stroke="#191970" d="M637.1867,-352.7128C581.4415,-340.5469 504.5992,-323.7768 453.7194,-312.6728"/>
<polygon fill="#191970" stroke="#191970" points="454.4199,-309.2433 443.9036,-310.5305 452.9273,-316.0823 454.4199,-309.2433"/>
</g>
<!-- Node2 -->
<g id="node3" class="node">
<title>Node2</title>
<polygon fill="none" stroke="#bfbfbf" points="478.2338,-291.5 478.2338,-310.5 532.2338,-310.5 532.2338,-291.5 478.2338,-291.5"/>
<text text-anchor="middle" x="505.2338" y="-298.5" font-family="Helvetica,sans-Serif" font-size="10.00" fill="#000000">iostream</text>
</g>
<!-- Node0&#45;&gt;Node2 -->
<g id="edge2" class="edge">
<title>Node0&#45;&gt;Node2</title>
<path fill="none" stroke="#191970" d="M645.2544,-347.4425C611.4343,-336.2249 570.7165,-322.7195 541.9297,-313.1714"/>
<polygon fill="#191970" stroke="#191970" points="542.8693,-309.7956 532.2759,-309.9694 540.6655,-316.4397 542.8693,-309.7956"/>
</g>
<!-- Node3 -->
<g id="node4" class="node">
<title>Node3</title>
<g id="a_node4"><a xlink:href="../../db/d4b/MagneticField_8h.html" target="_top" xlink:title="Definition of the MagF class. ">
<polygon fill="none" stroke="#000000" points="550.2338,-291.5 550.2338,-310.5 660.2338,-310.5 660.2338,-291.5 550.2338,-291.5"/>
<text text-anchor="middle" x="605.2338" y="-298.5" font-family="Helvetica,sans-Serif" font-size="10.00" fill="#000000">Field/MagneticField.h</text>
</a>
</g>
</g>
<!-- Node0&#45;&gt;Node3 -->
<g id="edge3" class="edge">
<title>Node0&#45;&gt;Node3</title>
<path fill="none" stroke="#191970" d="M675.7982,-347.3511C660.5287,-337.3212 642.5014,-325.4797 628.4901,-316.2762"/>
<polygon fill="#191970" stroke="#191970" points="630.2117,-313.2195 619.9319,-310.6546 626.3685,-319.0702 630.2117,-313.2195"/>
</g>
<!-- Node16 -->
<g id="node17" class="node">
<title>Node16</title>
<g id="a_node17"><a xlink:href="../../da/df4/MagFieldFast_8h.html" target="_top" xlink:title="Definition of the fast magnetic field parametrization MagFieldFast. ">
<polygon fill="none" stroke="#000000" points="663.2338,-235.5 663.2338,-254.5 771.2338,-254.5 771.2338,-235.5 663.2338,-235.5"/>
<text text-anchor="middle" x="717.2338" y="-242.5" font-family="Helvetica,sans-Serif" font-size="10.00" fill="#000000">Field/MagFieldFast.h</text>
</a>
</g>
</g>
<!-- Node0&#45;&gt;Node16 -->
<g id="edge48" class="edge">
<title>Node0&#45;&gt;Node16</title>
<path fill="none" stroke="#191970" d="M708.3284,-347.3921C709.2117,-331.8744 710.5778,-310.0849 712.2338,-291 712.9882,-282.3067 714.0026,-272.7087 714.9206,-264.5391"/>
<polygon fill="#191970" stroke="#191970" points="718.4092,-264.8384 716.079,-254.503 711.4553,-264.0356 718.4092,-264.8384"/>
</g>
<!-- Node34 -->
<g id="node35" class="node">
<title>Node34</title>
<polygon fill="none" stroke="#bfbfbf" points="789.2338,-235.5 789.2338,-254.5 841.2338,-254.5 841.2338,-235.5 789.2338,-235.5"/>
<text text-anchor="middle" x="815.2338" y="-242.5" font-family="Helvetica,sans-Serif" font-size="10.00" fill="#000000">memory</text>
</g>
<!-- Node0&#45;&gt;Node34 -->
<g id="edge49" class="edge">
<title>Node0&#45;&gt;Node34</title>
<path fill="none" stroke="#191970" d="M714.341,-347.307C720.7787,-330.7318 731.5135,-307.5881 746.2338,-291 757.492,-278.3133 773.0015,-267.5613 786.4649,-259.6502"/>
<polygon fill="#191970" stroke="#191970" points="788.3792,-262.5893 795.3815,-254.6382 784.9493,-256.4872 788.3792,-262.5893"/>
</g>
<!-- Node35 -->
<g id="node36" class="node">
<title>Node35</title>
<polygon fill="none" stroke="#bfbfbf" points="754.7338,-291.5 754.7338,-310.5 825.7338,-310.5 825.7338,-291.5 754.7338,-291.5"/>
<text text-anchor="middle" x="790.2338" y="-298.5" font-family="Helvetica,sans-Serif" font-size="10.00" fill="#000000">FairLogger.h</text>
</g>
<!-- Node0&#45;&gt;Node35 -->
<g id="edge50" class="edge">
<title>Node0&#45;&gt;Node35</title>
<path fill="none" stroke="#191970" d="M733.0406,-347.168C745.0237,-337.4949 759.0541,-326.1692 770.2194,-317.1562"/>
<polygon fill="#191970" stroke="#191970" points="772.535,-319.7851 778.1177,-310.7805 768.1381,-314.3383 772.535,-319.7851"/>
</g>
<!-- Node36 -->
<g id="node37" class="node">
<title>Node36</title>
<polygon fill="none" stroke="#bfbfbf" points="843.7338,-291.5 843.7338,-310.5 920.7338,-310.5 920.7338,-291.5 843.7338,-291.5"/>
<text text-anchor="middle" x="882.2338" y="-298.5" font-family="Helvetica,sans-Serif" font-size="10.00" fill="#000000">TStopwatch.h</text>
</g>
<!-- Node0&#45;&gt;Node36 -->
<g id="edge51" class="edge">
<title>Node0&#45;&gt;Node36</title>
<path fill="none" stroke="#191970" d="M761.1676,-347.3511C789.2364,-336.6047 822.737,-323.7788 847.3749,-314.346"/>
<polygon fill="#191970" stroke="#191970" points="848.929,-317.4988 857.0165,-310.6546 846.4261,-310.9615 848.929,-317.4988"/>
</g>
<!-- Node37 -->
<g id="node38" class="node">
<title>Node37</title>
<polygon fill="none" stroke="#bfbfbf" points="939.2338,-291.5 939.2338,-310.5 1007.2338,-310.5 1007.2338,-291.5 939.2338,-291.5"/>
<text text-anchor="middle" x="973.2338" y="-298.5" font-family="Helvetica,sans-Serif" font-size="10.00" fill="#000000">TRandom.h</text>
</g>
<!-- Node0&#45;&gt;Node37 -->
<g id="edge52" class="edge">
<title>Node0&#45;&gt;Node37</title>
<path fill="none" stroke="#191970" d="M777.4702,-350.3089C825.6751,-338.1671 888.1528,-322.4302 929.407,-312.0391"/>
<polygon fill="#191970" stroke="#191970" points="930.3165,-315.4194 939.1588,-309.5828 928.6067,-308.6314 930.3165,-315.4194"/>
</g>
<!-- Node4 -->
<g id="node5" class="node">
<title>Node4</title>
<polygon fill="none" stroke="#bfbfbf" points="545.2338,-235.5 545.2338,-254.5 607.2338,-254.5 607.2338,-235.5 545.2338,-235.5"/>
<text text-anchor="middle" x="576.2338" y="-242.5" font-family="Helvetica,sans-Serif" font-size="10.00" fill="#000000">FairField.h</text>
</g>
<!-- Node3&#45;&gt;Node4 -->
<g id="edge4" class="edge">
<title>Node3&#45;&gt;Node4</title>
<path fill="none" stroke="#191970" d="M600.1824,-291.2455C596.2319,-283.617 590.6241,-272.7881 585.8281,-263.5267"/>
<polygon fill="#191970" stroke="#191970" points="588.934,-261.9131 581.2274,-254.6427 582.718,-265.1321 588.934,-261.9131"/>
</g>
<!-- Node5 -->
<g id="node6" class="node">
<title>Node5</title>
<g id="a_node6"><a xlink:href="../../d3/d91/MagFieldParam_8h.html" target="_top" xlink:title="Definition of the MagFieldParam: container for ALICE mag. field parameters. ">
<polygon fill="none" stroke="#000000" points="90.7338,-235.5 90.7338,-254.5 207.7338,-254.5 207.7338,-235.5 90.7338,-235.5"/>
<text text-anchor="middle" x="149.2338" y="-242.5" font-family="Helvetica,sans-Serif" font-size="10.00" fill="#000000">Field/MagFieldParam.h</text>
</a>
</g>
</g>
<!-- Node3&#45;&gt;Node5 -->
<g id="edge5" class="edge">
<title>Node3&#45;&gt;Node5</title>
<path fill="none" stroke="#191970" d="M550.0955,-292.2478C547.0995,-291.815 544.1308,-291.3962 541.2338,-291 428.1799,-275.5401 296.3393,-260.7292 217.989,-252.2644"/>
<polygon fill="#191970" stroke="#191970" points="218.0831,-248.7543 207.7657,-251.1631 217.3333,-255.7141 218.0831,-248.7543"/>
</g>
<!-- Node8 -->
<g id="node9" class="node">
<title>Node8</title>
<g id="a_node9"><a xlink:href="../../dd/dfb/MagneticWrapperChebyshev_8h.html" target="_top" xlink:title="Field/MagneticWrapperChebyshev.h">
<polygon fill="none" stroke="#000000" points="268.7338,-235.5 268.7338,-254.5 443.7338,-254.5 443.7338,-235.5 268.7338,-235.5"/>
<text text-anchor="middle" x="356.2338" y="-242.5" font-family="Helvetica,sans-Serif" font-size="10.00" fill="#000000">Field/MagneticWrapperChebyshev.h</text>
</a>
</g>
</g>
<!-- Node3&#45;&gt;Node8 -->
<g id="edge8" class="edge">
<title>Node3&#45;&gt;Node8</title>
<path fill="none" stroke="#191970" d="M562.7121,-291.4369C520.0977,-281.8529 454.4163,-267.0812 408.6129,-256.78"/>
<polygon fill="#191970" stroke="#191970" points="409.1045,-253.3032 398.5802,-254.5237 407.5685,-260.1326 409.1045,-253.3032"/>
</g>
<!-- Node10 -->
<g id="node11" class="node">
<title>Node10</title>
<polygon fill="none" stroke="#bfbfbf" points="176.2338,-56.5 176.2338,-75.5 238.2338,-75.5 238.2338,-56.5 176.2338,-56.5"/>
<text text-anchor="middle" x="207.2338" y="-63.5" font-family="Helvetica,sans-Serif" font-size="10.00" fill="#000000">TNamed.h</text>
</g>
<!-- Node3&#45;&gt;Node10 -->
<g id="edge46" class="edge">
<title>Node3&#45;&gt;Node10</title>
<path fill="none" stroke="#191970" d="M550.1127,-292.1119C547.1123,-291.7141 544.1379,-291.34 541.2338,-291 439.3947,-279.0767 177.2055,-291.0947 81.2338,-255 42.2965,-240.3558 24.8777,-236.1884 6.2338,-199 -29.2624,-128.1968 97.6178,-89.3853 166.1618,-73.9647"/>
<polygon fill="#191970" stroke="#191970" points="167.2001,-77.3207 176.2268,-71.7736 165.7111,-70.4809 167.2001,-77.3207"/>
</g>
<!-- Node15 -->
<g id="node16" class="node">
<title>Node15</title>
<polygon fill="none" stroke="#bfbfbf" points="569.2338,-56.5 569.2338,-75.5 625.2338,-75.5 625.2338,-56.5 569.2338,-56.5"/>
<text text-anchor="middle" x="597.2338" y="-63.5" font-family="Helvetica,sans-Serif" font-size="10.00" fill="#000000">Rtypes.h</text>
</g>
<!-- Node3&#45;&gt;Node15 -->
<g id="edge45" class="edge">
<title>Node3&#45;&gt;Node15</title>
<path fill="none" stroke="#191970" d="M608.2713,-291.2499C610.9773,-282.0202 614.7339,-267.7215 616.2338,-255 623.4846,-193.5023 609.8765,-120.537 602.1081,-86.0132"/>
<polygon fill="#191970" stroke="#191970" points="605.4176,-84.7935 599.736,-75.8509 598.6008,-86.3847 605.4176,-84.7935"/>
</g>
<!-- Node3&#45;&gt;Node16 -->
<g id="edge24" class="edge">
<title>Node3&#45;&gt;Node16</title>
<path fill="none" stroke="#191970" d="M624.4873,-291.3733C642.305,-282.4644 669.0085,-269.1127 689.1933,-259.0203"/>
<polygon fill="#191970" stroke="#191970" points="690.8526,-262.1038 698.2316,-254.5011 687.722,-255.8428 690.8526,-262.1038"/>
</g>
<!-- Node33 -->
<g id="node34" class="node">
<title>Node33</title>
<polygon fill="none" stroke="#bfbfbf" points="461.7338,-235.5 461.7338,-254.5 526.7338,-254.5 526.7338,-235.5 461.7338,-235.5"/>
<text text-anchor="middle" x="494.2338" y="-242.5" font-family="Helvetica,sans-Serif" font-size="10.00" fill="#000000">TSystem.h</text>
</g>
<!-- Node3&#45;&gt;Node33 -->
<g id="edge44" class="edge">
<title>Node3&#45;&gt;Node33</title>
<path fill="none" stroke="#191970" d="M586.1523,-291.3733C568.4937,-282.4644 542.0286,-269.1127 522.0241,-259.0203"/>
<polygon fill="#191970" stroke="#191970" points="523.5711,-255.8806 513.0664,-254.5011 520.418,-262.1303 523.5711,-255.8806"/>
</g>
<!-- Node3&#45;&gt;Node34 -->
<g id="edge47" class="edge">
<title>Node3&#45;&gt;Node34</title>
<path fill="none" stroke="#191970" d="M642.506,-291.4476C675.8985,-282.835 726.461,-269.6606 779.04,-255.2914"/>
<polygon fill="#191970" stroke="#191970" points="780.1582,-258.6141 788.8774,-252.5953 778.3079,-251.863 780.1582,-258.6141"/>
</g>
<!-- Node6 -->
<g id="node7" class="node">
<title>Node6</title>
<polygon fill="none" stroke="#bfbfbf" points="15.7338,-179.5 15.7338,-198.5 120.7338,-198.5 120.7338,-179.5 15.7338,-179.5"/>
<text text-anchor="middle" x="68.2338" y="-186.5" font-family="Helvetica,sans-Serif" font-size="10.00" fill="#000000">FairParGenericSet.h</text>
</g>
<!-- Node5&#45;&gt;Node6 -->
<g id="edge6" class="edge">
<title>Node5&#45;&gt;Node6</title>
<path fill="none" stroke="#191970" d="M135.1247,-235.2455C122.813,-226.7337 104.7381,-214.2375 90.48,-204.3801"/>
<polygon fill="#191970" stroke="#191970" points="92.3973,-201.4506 82.1813,-198.6427 88.4165,-207.2085 92.3973,-201.4506"/>
</g>
<!-- Node7 -->
<g id="node8" class="node">
<title>Node7</title>
<polygon fill="none" stroke="#bfbfbf" points="103.2338,-118 103.2338,-137 159.2338,-137 159.2338,-118 103.2338,-118"/>
<text text-anchor="middle" x="131.2338" y="-125" font-family="Helvetica,sans-Serif" font-size="10.00" fill="#000000">TString.h</text>
</g>
<!-- Node5&#45;&gt;Node7 -->
<g id="edge7" class="edge">
<title>Node5&#45;&gt;Node7</title>
<path fill="none" stroke="#191970" d="M147.7608,-235.3845C144.8206,-216.1913 138.1713,-172.786 134.2619,-147.2663"/>
<polygon fill="#191970" stroke="#191970" points="137.7012,-146.6031 132.7272,-137.2484 130.7819,-147.6631 137.7012,-146.6031"/>
</g>
<!-- Node9 -->
<g id="node10" class="node">
<title>Node9</title>
<polygon fill="none" stroke="#bfbfbf" points="217.7338,-179.5 217.7338,-198.5 270.7338,-198.5 270.7338,-179.5 217.7338,-179.5"/>
<text text-anchor="middle" x="244.2338" y="-186.5" font-family="Helvetica,sans-Serif" font-size="10.00" fill="#000000">TMath.h</text>
</g>
<!-- Node8&#45;&gt;Node9 -->
<g id="edge9" class="edge">
<title>Node8&#45;&gt;Node9</title>
<path fill="none" stroke="#191970" d="M336.9804,-235.3733C319.1627,-226.4644 292.4592,-213.1127 272.2744,-203.0203"/>
<polygon fill="#191970" stroke="#191970" points="273.7456,-199.8428 263.2361,-198.5011 270.6151,-206.1038 273.7456,-199.8428"/>
</g>
<!-- Node8&#45;&gt;Node10 -->
<g id="edge10" class="edge">
<title>Node8&#45;&gt;Node10</title>
<path fill="none" stroke="#191970" d="M303.8358,-235.4731C266.1138,-227.429 219.9,-214.7185 208.2338,-199 183.4498,-165.607 193.0416,-113.3757 200.9086,-85.3374"/>
<polygon fill="#191970" stroke="#191970" points="204.3235,-86.1362 203.8659,-75.5513 197.6227,-84.1113 204.3235,-86.1362"/>
</g>
<!-- Node11 -->
<g id="node12" class="node">
<title>Node11</title>
<polygon fill="none" stroke="#bfbfbf" points="499.7338,-118 499.7338,-137 568.7338,-137 568.7338,-118 499.7338,-118"/>
<text text-anchor="middle" x="534.2338" y="-125" font-family="Helvetica,sans-Serif" font-size="10.00" fill="#000000">TObjArray.h</text>
</g>
<!-- Node8&#45;&gt;Node11 -->
<g id="edge11" class="edge">
<title>Node8&#45;&gt;Node11</title>
<path fill="none" stroke="#191970" d="M378.0309,-235.432C396.7095,-226.8686 424.0326,-213.4634 446.2338,-199 472.031,-182.194 499.1541,-159.2345 516.3536,-143.9139"/>
<polygon fill="#191970" stroke="#191970" points="518.8655,-146.3618 523.9505,-137.0669 514.179,-141.162 518.8655,-146.3618"/>
</g>
<!-- Node12 -->
<g id="node13" class="node">
<title>Node12</title>
<g id="a_node13"><a xlink:href="../../d8/d64/Chebyshev3D_8h.html" target="_top" xlink:title="MathUtils/Chebyshev3D.h">
<polygon fill="none" stroke="#000000" points="289.2338,-179.5 289.2338,-198.5 421.2338,-198.5 421.2338,-179.5 289.2338,-179.5"/>
<text text-anchor="middle" x="355.2338" y="-186.5" font-family="Helvetica,sans-Serif" font-size="10.00" fill="#000000">MathUtils/Chebyshev3D.h</text>
</a>
</g>
</g>
<!-- Node8&#45;&gt;Node12 -->
<g id="edge12" class="edge">
<title>Node8&#45;&gt;Node12</title>
<path fill="none" stroke="#191970" d="M356.0597,-235.2455C355.9292,-227.9382 355.7462,-217.6944 355.5857,-208.7046"/>
<polygon fill="#191970" stroke="#191970" points="359.0841,-208.5786 355.406,-198.6427 352.0852,-208.7036 359.0841,-208.5786"/>
</g>
<!-- Node14 -->
<g id="node15" class="node">
<title>Node14</title>
<g id="a_node15"><a xlink:href="../../d4/d08/Chebyshev3DCalc_8h.html" target="_top" xlink:title="MathUtils/Chebyshev3DCalc.h">
<polygon fill="none" stroke="#000000" points="291.2338,-118 291.2338,-137 443.2338,-137 443.2338,-118 291.2338,-118"/>
<text text-anchor="middle" x="367.2338" y="-125" font-family="Helvetica,sans-Serif" font-size="10.00" fill="#000000">MathUtils/Chebyshev3DCalc.h</text>
</a>
</g>
</g>
<!-- Node8&#45;&gt;Node14 -->
<g id="edge22" class="edge">
<title>Node8&#45;&gt;Node14</title>
<path fill="none" stroke="#191970" d="M384.6719,-235.3621C401.1617,-228.1374 420.5329,-216.4529 430.2338,-199 442.526,-176.8854 417.6495,-155.6767 395.6254,-142.1834"/>
<polygon fill="#191970" stroke="#191970" points="397.1964,-139.0487 386.7892,-137.0634 393.6869,-145.1054 397.1964,-139.0487"/>
</g>
<!-- Node8&#45;&gt;Node15 -->
<g id="edge23" class="edge">
<title>Node8&#45;&gt;Node15</title>
<path fill="none" stroke="#191970" d="M407.6383,-235.4303C458.7262,-223.1259 535.3346,-196.6018 577.2338,-143 590.0884,-126.5551 594.7359,-102.6922 596.3864,-85.9004"/>
<polygon fill="#191970" stroke="#191970" points="599.9018,-85.8046 597.1143,-75.5831 592.9191,-85.312 599.9018,-85.8046"/>
</g>
<!-- Node12&#45;&gt;Node7 -->
<g id="edge21" class="edge">
<title>Node12&#45;&gt;Node7</title>
<path fill="none" stroke="#191970" d="M320.2338,-179.3906C279.1975,-168.1239 211.4312,-149.5185 169.1683,-137.915"/>
<polygon fill="#191970" stroke="#191970" points="169.8335,-134.4682 159.2636,-135.1957 167.9801,-141.2184 169.8335,-134.4682"/>
</g>
<!-- Node12&#45;&gt;Node10 -->
<g id="edge13" class="edge">
<title>Node12&#45;&gt;Node10</title>
<path fill="none" stroke="#191970" d="M332.412,-179.3698C314.6557,-171.2276 289.9687,-158.4366 271.2338,-143 250.1798,-125.6525 230.8875,-100.6366 219.1093,-83.8738"/>
<polygon fill="#191970" stroke="#191970" points="221.9171,-81.7795 213.3754,-75.5113 216.1438,-85.7381 221.9171,-81.7795"/>
</g>
<!-- Node12&#45;&gt;Node11 -->
<g id="edge14" class="edge">
<title>Node12&#45;&gt;Node11</title>
<path fill="none" stroke="#191970" d="M383.2026,-179.3906C413.8094,-168.8749 463.0237,-151.966 496.9079,-140.3243"/>
<polygon fill="#191970" stroke="#191970" points="498.1414,-143.6014 506.4615,-137.0419 495.8668,-136.9812 498.1414,-143.6014"/>
</g>
<!-- Node13 -->
<g id="node14" class="node">
<title>Node13</title>
<polygon fill="none" stroke="#bfbfbf" points="258.7338,-56.5 258.7338,-75.5 301.7338,-75.5 301.7338,-56.5 258.7338,-56.5"/>
<text text-anchor="middle" x="280.2338" y="-63.5" font-family="Helvetica,sans-Serif" font-size="10.00" fill="#000000">cstdio</text>
</g>
<!-- Node12&#45;&gt;Node13 -->
<g id="edge15" class="edge">
<title>Node12&#45;&gt;Node13</title>
<path fill="none" stroke="#191970" d="M327.6943,-179.3399C311.4044,-172.0566 292.0856,-160.3171 282.2338,-143 272.3481,-125.6232 273.3266,-102.2821 275.8515,-85.8689"/>
<polygon fill="#191970" stroke="#191970" points="279.342,-86.243 277.7322,-75.7712 272.4603,-84.9613 279.342,-86.243"/>
</g>
<!-- Node12&#45;&gt;Node14 -->
<g id="edge16" class="edge">
<title>Node12&#45;&gt;Node14</title>
<path fill="none" stroke="#191970" d="M357.1088,-179.3906C358.7898,-170.776 361.3078,-157.8708 363.4122,-147.0858"/>
<polygon fill="#191970" stroke="#191970" points="366.8524,-147.7301 365.3324,-137.2449 359.982,-146.3895 366.8524,-147.7301"/>
</g>
<!-- Node12&#45;&gt;Node15 -->
<g id="edge20" class="edge">
<title>Node12&#45;&gt;Node15</title>
<path fill="none" stroke="#191970" d="M379.6017,-179.3842C399.7495,-170.984 428.7577,-157.8349 452.2338,-143 470.6593,-131.3567 471.5973,-123.3023 490.2338,-112 512.1743,-98.6939 538.6557,-87.2762 559.7845,-79.1444"/>
<polygon fill="#191970" stroke="#191970" points="561.2541,-82.3311 569.381,-75.5337 558.789,-75.7795 561.2541,-82.3311"/>
</g>
<!-- Node14&#45;&gt;Node10 -->
<g id="edge17" class="edge">
<title>Node14&#45;&gt;Node10</title>
<path fill="none" stroke="#191970" d="M342.2338,-117.8906C315.2281,-107.5103 272.0154,-90.9004 241.7745,-79.2766"/>
<polygon fill="#191970" stroke="#191970" points="242.6483,-75.8628 232.0583,-75.5419 240.1367,-82.3968 242.6483,-75.8628"/>
</g>
<!-- Node14&#45;&gt;Node13 -->
<g id="edge18" class="edge">
<title>Node14&#45;&gt;Node13</title>
<path fill="none" stroke="#191970" d="M353.6401,-117.8906C339.8495,-108.1421 318.2866,-92.8994 302.0929,-81.4521"/>
<polygon fill="#191970" stroke="#191970" points="303.9183,-78.4563 293.7321,-75.5419 299.8776,-84.1723 303.9183,-78.4563"/>
</g>
<!-- Node14&#45;&gt;Node15 -->
<g id="edge19" class="edge">
<title>Node14&#45;&gt;Node15</title>
<path fill="none" stroke="#191970" d="M402.919,-117.9581C445.3219,-106.6199 515.7749,-87.7814 559.1881,-76.1731"/>
<polygon fill="#191970" stroke="#191970" points="560.323,-79.4927 569.0794,-73.5282 558.5147,-72.7303 560.323,-79.4927"/>
</g>
<!-- Node17 -->
<g id="node18" class="node">
<title>Node17</title>
<g id="a_node18"><a xlink:href="../../d2/d45/GPUCommonRtypes_8h.html" target="_top" xlink:title="GPUCommonRtypes.h">
<polygon fill="none" stroke="#000000" points="663.2338,-118 663.2338,-137 781.2338,-137 781.2338,-118 663.2338,-118"/>
<text text-anchor="middle" x="722.2338" y="-125" font-family="Helvetica,sans-Serif" font-size="10.00" fill="#000000">GPUCommonRtypes.h</text>
</a>
</g>
</g>
<!-- Node16&#45;&gt;Node17 -->
<g id="edge25" class="edge">
<title>Node16&#45;&gt;Node17</title>
<path fill="none" stroke="#191970" d="M717.643,-235.3845C718.4597,-216.1913 720.3068,-172.786 721.3927,-147.2663"/>
<polygon fill="#191970" stroke="#191970" points="724.8906,-147.3882 721.819,-137.2484 717.8969,-147.0905 724.8906,-147.3882"/>
</g>
<!-- Node18 -->
<g id="node19" class="node">
<title>Node18</title>
<g id="a_node19"><a xlink:href="../../dc/d73/Cartesian_8h.html" target="_top" xlink:title="MathUtils/Cartesian.h">
<polygon fill="none" stroke="#000000" points="1283.2338,-179.5 1283.2338,-198.5 1395.2338,-198.5 1395.2338,-179.5 1283.2338,-179.5"/>
<text text-anchor="middle" x="1339.2338" y="-186.5" font-family="Helvetica,sans-Serif" font-size="10.00" fill="#000000">MathUtils/Cartesian.h</text>
</a>
</g>
</g>
<!-- Node16&#45;&gt;Node18 -->
<g id="edge27" class="edge">
<title>Node16&#45;&gt;Node18</title>
<path fill="none" stroke="#191970" d="M771.4937,-236.1215C774.4472,-235.7213 777.3751,-235.344 780.2338,-235 957.7706,-213.6358 1168.2403,-199.2522 1273.0434,-192.8276"/>
<polygon fill="#191970" stroke="#191970" points="1273.3876,-196.3132 1283.1565,-192.2123 1272.9624,-189.3261 1273.3876,-196.3132"/>
</g>
<!-- Node32 -->
<g id="node33" class="node">
<title>Node32</title>
<polygon fill="none" stroke="#bfbfbf" points="745.7338,-179.5 745.7338,-198.5 786.7338,-198.5 786.7338,-179.5 745.7338,-179.5"/>
<text text-anchor="middle" x="766.2338" y="-186.5" font-family="Helvetica,sans-Serif" font-size="10.00" fill="#000000">string</text>
</g>
<!-- Node16&#45;&gt;Node32 -->
<g id="edge43" class="edge">
<title>Node16&#45;&gt;Node32</title>
<path fill="none" stroke="#191970" d="M725.769,-235.2455C732.725,-227.2958 742.7221,-215.8706 751.039,-206.3656"/>
<polygon fill="#191970" stroke="#191970" points="753.8455,-208.4732 757.7965,-198.6427 748.5774,-203.8637 753.8455,-208.4732"/>
</g>
<!-- Node17&#45;&gt;Node15 -->
<g id="edge26" class="edge">
<title>Node17&#45;&gt;Node15</title>
<path fill="none" stroke="#191970" d="M702.7026,-117.8906C682.063,-107.7359 649.3063,-91.6196 625.7736,-80.0416"/>
<polygon fill="#191970" stroke="#191970" points="627.1459,-76.8161 616.6279,-75.5419 624.0556,-83.0971 627.1459,-76.8161"/>
</g>
<!-- Node18&#45;&gt;Node17 -->
<g id="edge31" class="edge">
<title>Node18&#45;&gt;Node17</title>
<path fill="none" stroke="#191970" d="M1282.9232,-186.8243C1183.2838,-182.4075 969.5885,-170.3859 791.2338,-143 784.4664,-141.9609 777.3732,-140.639 770.4172,-139.2068"/>
<polygon fill="#191970" stroke="#191970" points="770.8902,-135.7286 760.378,-137.0496 769.4196,-142.5724 770.8902,-135.7286"/>
</g>
<!-- Node19 -->
<g id="node20" class="node">
<title>Node19</title>
<g id="a_node20"><a xlink:href="../../df/d21/GPUCommonDef_8h.html" target="_top" xlink:title="GPUCommonDef.h">
<polygon fill="none" stroke="#000000" points="1540.2338,-56.5 1540.2338,-75.5 1642.2338,-75.5 1642.2338,-56.5 1540.2338,-56.5"/>
<text text-anchor="middle" x="1591.2338" y="-63.5" font-family="Helvetica,sans-Serif" font-size="10.00" fill="#000000">GPUCommonDef.h</text>
</a>
</g>
</g>
<!-- Node18&#45;&gt;Node19 -->
<g id="edge28" class="edge">
<title>Node18&#45;&gt;Node19</title>
<path fill="none" stroke="#191970" d="M1283.1764,-187.332C1169.1823,-183.3607 918.9139,-171.4649 893.2338,-143 884.0048,-132.7701 883.8173,-122.0576 893.2338,-112 914.8545,-88.9076 1363.7814,-72.9299 1530.0239,-67.7853"/>
<polygon fill="#191970" stroke="#191970" points="1530.1997,-71.2817 1540.0876,-67.4765 1529.9849,-64.285 1530.1997,-71.2817"/>
</g>
<!-- Node22 -->
<g id="node23" class="node">
<title>Node22</title>
<polygon fill="none" stroke="#bfbfbf" points="901.7338,-112.5 901.7338,-142.5 1052.7338,-142.5 1052.7338,-112.5 901.7338,-112.5"/>
<text text-anchor="start" x="909.7338" y="-130.5" font-family="Helvetica,sans-Serif" font-size="10.00" fill="#000000">Math/GenVector/Displacement</text>
<text text-anchor="middle" x="977.2338" y="-119.5" font-family="Helvetica,sans-Serif" font-size="10.00" fill="#000000">Vector3D.h</text>
</g>
<!-- Node18&#45;&gt;Node22 -->
<g id="edge32" class="edge">
<title>Node18&#45;&gt;Node22</title>
<path fill="none" stroke="#191970" d="M1283.2178,-179.9642C1229.4206,-171.2261 1145.5806,-157.451 1062.8483,-143.0914"/>
<polygon fill="#191970" stroke="#191970" points="1063.2185,-139.6033 1052.7665,-141.3376 1062.0187,-146.4997 1063.2185,-139.6033"/>
</g>
<!-- Node23 -->
<g id="node24" class="node">
<title>Node23</title>
<polygon fill="none" stroke="#bfbfbf" points="1071.2338,-118 1071.2338,-137 1247.2338,-137 1247.2338,-118 1071.2338,-118"/>
<text text-anchor="middle" x="1159.2338" y="-125" font-family="Helvetica,sans-Serif" font-size="10.00" fill="#000000">Math/GenVector/PositionVector3D.h</text>
</g>
<!-- Node18&#45;&gt;Node23 -->
<g id="edge33" class="edge">
<title>Node18&#45;&gt;Node23</title>
<path fill="none" stroke="#191970" d="M1311.1088,-179.3906C1280.3311,-168.8749 1230.8418,-151.966 1196.7683,-140.3243"/>
<polygon fill="#191970" stroke="#191970" points="1197.7559,-136.9631 1187.1613,-137.0419 1195.4926,-143.5871 1197.7559,-136.9631"/>
</g>
<!-- Node24 -->
<g id="node25" class="node">
<title>Node24</title>
<polygon fill="none" stroke="#bfbfbf" points="1264.7338,-118 1264.7338,-137 1413.7338,-137 1413.7338,-118 1264.7338,-118"/>
<text text-anchor="middle" x="1339.2338" y="-125" font-family="Helvetica,sans-Serif" font-size="10.00" fill="#000000">Math/GenVector/Rotation3D.h</text>
</g>
<!-- Node18&#45;&gt;Node24 -->
<g id="edge34" class="edge">
<title>Node18&#45;&gt;Node24</title>
<path fill="none" stroke="#191970" d="M1339.2338,-179.3906C1339.2338,-170.8657 1339.2338,-158.1392 1339.2338,-147.4235"/>
<polygon fill="#191970" stroke="#191970" points="1342.7339,-147.2448 1339.2338,-137.2449 1335.7339,-147.2449 1342.7339,-147.2448"/>
</g>
<!-- Node25 -->
<g id="node26" class="node">
<title>Node25</title>
<polygon fill="none" stroke="#bfbfbf" points="1432.2338,-118 1432.2338,-137 1588.2338,-137 1588.2338,-118 1432.2338,-118"/>
<text text-anchor="middle" x="1510.2338" y="-125" font-family="Helvetica,sans-Serif" font-size="10.00" fill="#000000">Math/GenVector/Transform3D.h</text>
</g>
<!-- Node18&#45;&gt;Node25 -->
<g id="edge35" class="edge">
<title>Node18&#45;&gt;Node25</title>
<path fill="none" stroke="#191970" d="M1365.9526,-179.3906C1395.066,-168.92 1441.8031,-152.1111 1474.1585,-140.4745"/>
<polygon fill="#191970" stroke="#191970" points="1475.4773,-143.7197 1483.7027,-137.0419 1473.1083,-137.1328 1475.4773,-143.7197"/>
</g>
<!-- Node26 -->
<g id="node27" class="node">
<title>Node26</title>
<polygon fill="none" stroke="#bfbfbf" points="1606.2338,-118 1606.2338,-137 1766.2338,-137 1766.2338,-118 1606.2338,-118"/>
<text text-anchor="middle" x="1686.2338" y="-125" font-family="Helvetica,sans-Serif" font-size="10.00" fill="#000000">Math/GenVector/Translation3D.h</text>
</g>
<!-- Node18&#45;&gt;Node26 -->
<g id="edge36" class="edge">
<title>Node18&#45;&gt;Node26</title>
<path fill="none" stroke="#191970" d="M1393.0719,-179.4581C1454.9603,-168.4894 1556.4545,-150.5012 1622.3041,-138.8305"/>
<polygon fill="#191970" stroke="#191970" points="1623.3193,-142.2052 1632.555,-137.0137 1622.0977,-135.3126 1623.3193,-142.2052"/>
</g>
<!-- Node27 -->
<g id="node28" class="node">
<title>Node27</title>
<polygon fill="none" stroke="#bfbfbf" points="1784.7338,-112.5 1784.7338,-142.5 1935.7338,-142.5 1935.7338,-112.5 1784.7338,-112.5"/>
<text text-anchor="start" x="1792.7338" y="-130.5" font-family="Helvetica,sans-Serif" font-size="10.00" fill="#000000">Math/GenVector/Displacement</text>
<text text-anchor="middle" x="1860.2338" y="-119.5" font-family="Helvetica,sans-Serif" font-size="10.00" fill="#000000">Vector2D.h</text>
</g>
<!-- Node18&#45;&gt;Node27 -->
<g id="edge37" class="edge">
<title>Node18&#45;&gt;Node27</title>
<path fill="none" stroke="#191970" d="M1395.4949,-184.4274C1476.7657,-177.521 1631.9417,-163.2087 1774.0707,-143.1006"/>
<polygon fill="#191970" stroke="#191970" points="1774.8754,-146.5213 1784.2802,-141.6429 1773.8859,-139.5916 1774.8754,-146.5213"/>
</g>
<!-- Node28 -->
<g id="node29" class="node">
<title>Node28</title>
<polygon fill="none" stroke="#bfbfbf" points="1954.2338,-118 1954.2338,-137 2130.2338,-137 2130.2338,-118 1954.2338,-118"/>
<text text-anchor="middle" x="2042.2338" y="-125" font-family="Helvetica,sans-Serif" font-size="10.00" fill="#000000">Math/GenVector/PositionVector2D.h</text>
</g>
<!-- Node18&#45;&gt;Node28 -->
<g id="edge38" class="edge">
<title>Node18&#45;&gt;Node28</title>
<path fill="none" stroke="#191970" d="M1395.3599,-186.2937C1502.5103,-180.7829 1743.5163,-166.7314 1945.2338,-143 1955.6945,-141.7693 1966.7536,-140.2303 1977.5136,-138.6033"/>
<polygon fill="#191970" stroke="#191970" points="1978.3627,-142.0136 1987.7088,-137.0237 1977.2908,-135.0962 1978.3627,-142.0136"/>
</g>
<!-- Node29 -->
<g id="node30" class="node">
<title>Node29</title>
<polygon fill="none" stroke="#bfbfbf" points="2148.2338,-118 2148.2338,-137 2224.2338,-137 2224.2338,-118 2148.2338,-118"/>
<text text-anchor="middle" x="2186.2338" y="-125" font-family="Helvetica,sans-Serif" font-size="10.00" fill="#000000">TGeoMatrix.h</text>
</g>
<!-- Node18&#45;&gt;Node29 -->
<g id="edge39" class="edge">
<title>Node18&#45;&gt;Node29</title>
<path fill="none" stroke="#191970" d="M1395.504,-187.6724C1553.048,-183.6524 1996.3313,-170.1862 2139.2338,-143 2143.2036,-142.2448 2147.301,-141.2439 2151.3453,-140.1131"/>
<polygon fill="#191970" stroke="#191970" points="2152.6482,-143.3747 2161.1856,-137.1006 2150.5991,-136.6813 2152.6482,-143.3747"/>
</g>
<!-- Node30 -->
<g id="node31" class="node">
<title>Node30</title>
<polygon fill="none" stroke="#bfbfbf" points="799.7338,-118 799.7338,-137 844.7338,-137 844.7338,-118 799.7338,-118"/>
<text text-anchor="middle" x="822.2338" y="-125" font-family="Helvetica,sans-Serif" font-size="10.00" fill="#000000">iosfwd</text>
</g>
<!-- Node18&#45;&gt;Node30 -->
<g id="edge40" class="edge">
<title>Node18&#45;&gt;Node30</title>
<path fill="none" stroke="#191970" d="M1283.1086,-185.7456C1174.2484,-179.0838 938.1933,-162.8361 859.2338,-143 856.7515,-142.3764 854.2194,-141.6124 851.703,-140.7612"/>
<polygon fill="#191970" stroke="#191970" points="852.8046,-137.4357 842.2134,-137.1584 850.3199,-143.98 852.8046,-137.4357"/>
</g>
<!-- Node31 -->
<g id="node32" class="node">
<title>Node31</title>
<g id="a_node32"><a xlink:href="../../d1/da8/GPUROOTCartesianFwd_8h.html" target="_top" xlink:title="GPUROOTCartesianFwd.h">
<polygon fill="none" stroke="#000000" points="2242.2338,-118 2242.2338,-137 2378.2338,-137 2378.2338,-118 2242.2338,-118"/>
<text text-anchor="middle" x="2310.2338" y="-125" font-family="Helvetica,sans-Serif" font-size="10.00" fill="#000000">GPUROOTCartesianFwd.h</text>
</a>
</g>
</g>
<!-- Node18&#45;&gt;Node31 -->
<g id="edge41" class="edge">
<title>Node18&#45;&gt;Node31</title>
<path fill="none" stroke="#191970" d="M1395.4983,-187.1912C1565.1424,-181.5654 2069.974,-163.5188 2233.2338,-143 2241.4098,-141.9724 2250.0164,-140.5663 2258.3947,-139.0176"/>
<polygon fill="#191970" stroke="#191970" points="2259.3024,-142.407 2268.457,-137.0737 2257.9746,-135.5341 2259.3024,-142.407"/>
</g>
<!-- Node20 -->
<g id="node21" class="node">
<title>Node20</title>
<g id="a_node21"><a xlink:href="../../d5/d93/GPUCommonDefSettings_8h.html" target="_top" xlink:title="GPUCommonDefSettings.h">
<polygon fill="none" stroke="#000000" points="1448.2338,-.5 1448.2338,-19.5 1586.2338,-19.5 1586.2338,-.5 1448.2338,-.5"/>
<text text-anchor="middle" x="1517.2338" y="-7.5" font-family="Helvetica,sans-Serif" font-size="10.00" fill="#000000">GPUCommonDefSettings.h</text>
</a>
</g>
</g>
<!-- Node19&#45;&gt;Node20 -->
<g id="edge29" class="edge">
<title>Node19&#45;&gt;Node20</title>
<path fill="none" stroke="#191970" d="M1578.344,-56.2455C1567.3085,-47.8943 1551.2046,-35.7076 1538.2985,-25.9408"/>
<polygon fill="#191970" stroke="#191970" points="1540.0621,-22.8862 1529.9759,-19.6427 1535.838,-28.4681 1540.0621,-22.8862"/>
</g>
<!-- Node21 -->
<g id="node22" class="node">
<title>Node21</title>
<g id="a_node22"><a xlink:href="../../da/d5a/GPUCommonDefAPI_8h.html" target="_top" xlink:title="GPUCommonDefAPI.h">
<polygon fill="none" stroke="#000000" points="1604.7338,-.5 1604.7338,-19.5 1723.7338,-19.5 1723.7338,-.5 1604.7338,-.5"/>
<text text-anchor="middle" x="1664.2338" y="-7.5" font-family="Helvetica,sans-Serif" font-size="10.00" fill="#000000">GPUCommonDefAPI.h</text>
</a>
</g>
</g>
<!-- Node19&#45;&gt;Node21 -->
<g id="edge30" class="edge">
<title>Node19&#45;&gt;Node21</title>
<path fill="none" stroke="#191970" d="M1603.9495,-56.2455C1614.8359,-47.8943 1630.7221,-35.7076 1643.4538,-25.9408"/>
<polygon fill="#191970" stroke="#191970" points="1645.8599,-28.5063 1651.6639,-19.6427 1641.5993,-22.9523 1645.8599,-28.5063"/>
</g>
<!-- Node31&#45;&gt;Node19 -->
<g id="edge42" class="edge">
<title>Node31&#45;&gt;Node19</title>
<path fill="none" stroke="#191970" d="M2267.6325,-117.9198C2256.4856,-115.6895 2244.4488,-113.5243 2233.2338,-112 2021.4386,-83.214 1767.7263,-71.7639 1652.9774,-67.8141"/>
<polygon fill="#191970" stroke="#191970" points="1652.7546,-64.3047 1642.6423,-67.4659 1652.5187,-71.3008 1652.7546,-64.3047"/>
</g>
</g>
</svg>
        <g id="navigator" transform="translate(0 0)" fill="#404254">
                <rect fill="#f2f5e9" fill-opacity="0.5" stroke="#606060" stroke-width=".5" x="0" y="0" width="60" height="60"/>
                <use id="zoomplus" xlink:href="#zoomPlus" x="17" y="9" onmousedown="handleZoom(evt,'in')"/>
                <use id="zoomminus" xlink:href="#zoomMin" x="42" y="9" onmousedown="handleZoom(evt,'out')"/>
                <use id="reset" xlink:href="#resetDef" x="30" y="36" onmousedown="handleReset()"/>
                <g id="arrowUp" xlink:href="#dirArrow" transform="translate(30 24)" onmousedown="handlePan(0,-1)">
                  <use xlink:href="#rim" fill="#404040">
                        <set attributeName="fill" to="#808080" begin="arrowUp.mouseover" end="arrowUp.mouseout"/>
                  </use>
                  <path fill="none" stroke="white" stroke-width="1.5" d="M0,-3.0v7 M-2.5,-0.5L0,-3.0L2.5,-0.5"/>
                </g>
                <g id="arrowRight" xlink:href="#dirArrow" transform="rotate(90) translate(36 -43)" onmousedown="handlePan(1,0)">
                  <use xlink:href="#rim" fill="#404040">
                        <set attributeName="fill" to="#808080" begin="arrowRight.mouseover" end="arrowRight.mouseout"/>
                  </use>
                  <path fill="none" stroke="white" stroke-width="1.5" d="M0,-3.0v7 M-2.5,-0.5L0,-3.0L2.5,-0.5"/>
                </g>
                <g id="arrowDown" xlink:href="#dirArrow" transform="rotate(180) translate(-30 -48)" onmousedown="handlePan(0,1)">
                  <use xlink:href="#rim" fill="#404040">
                        <set attributeName="fill" to="#808080" begin="arrowDown.mouseover" end="arrowDown.mouseout"/>
                  </use>
                  <path fill="none" stroke="white" stroke-width="1.5" d="M0,-3.0v7 M-2.5,-0.5L0,-3.0L2.5,-0.5"/>
                </g>
                <g id="arrowLeft" xlink:href="#dirArrow" transform="rotate(270) translate(-36 17)" onmousedown="handlePan(-1,0)">
                  <use xlink:href="#rim" fill="#404040">
                        <set attributeName="fill" to="#808080" begin="arrowLeft.mouseover" end="arrowLeft.mouseout"/>
                  </use>
                  <path fill="none" stroke="white" stroke-width="1.5" d="M0,-3.0v7 M-2.5,-0.5L0,-3.0L2.5,-0.5"/>
                </g>
        </g>
        <svg viewBox="0 0 15 15" width="100%" height="30px" preserveAspectRatio="xMaxYMin meet">
         <g id="arrow_out" transform="scale(0.3 0.3)">
          <a xlink:href="testMagneticField_8cxx__incl_org.svg" target="_base">
           <rect id="button" ry="5" rx="5" y="6" x="6" height="38" width="38"
                fill="#f2f5e9" fill-opacity="0.5" stroke="#606060" stroke-width="1.0"/>
           <path id="arrow"
             d="M 11.500037,31.436501 C 11.940474,20.09759 22.043105,11.32322 32.158766,21.979434 L 37.068811,17.246167 C 37.068811,17.246167 37.088388,32 37.088388,32 L 22.160133,31.978069 C 22.160133,31.978069 26.997745,27.140456 26.997745,27.140456 C 18.528582,18.264221 13.291696,25.230495 11.500037,31.436501 z"
             style="fill:#404040;"/>
          </a>
         </g>
        </svg>
</svg>
