<?xml version="1.0" encoding="UTF-8" standalone="no"?>
<!DOCTYPE svg PUBLIC "-//W3C//DTD SVG 1.1//EN"
 "http://www.w3.org/Graphics/SVG/1.1/DTD/svg11.dtd">
<!-- Generated by graphviz version 2.40.1 (20161225.0304)
 -->
<!-- Title: /home/runner/work/AliceO2/AliceO2/DataFormats/Detectors/PHOS/include/DataFormatsPHOS/Cell.h Pages: 1 -->
<!--zoomable 495 -->
<svg id="main" version="1.1" xmlns="http://www.w3.org/2000/svg" xmlns:xlink="http://www.w3.org/1999/xlink" xml:space="preserve" onload="init(evt)">
<style type="text/css"><![CDATA[
.edge:hover path { stroke: red; }
.edge:hover polygon { stroke: red; fill: red; }
]]></style>
<script type="text/javascript"><![CDATA[
var edges = document.getElementsByTagName('g');
if (edges && edges.length) {
  for (var i=0;i<edges.length;i++) {
    if (edges[i].id.substr(0,4)=='edge') {
      edges[i].setAttribute('class','edge');
    }
  }
}
]]></script>
        <defs>
                <circle id="rim" cx="0" cy="0" r="7"/>
                <circle id="rim2" cx="0" cy="0" r="3.5"/>
                <g id="zoomPlus">
                        <use xlink:href="#rim" fill="#404040">
                                <set attributeName="fill" to="#808080" begin="zoomplus.mouseover" end="zoomplus.mouseout"/>
                        </use>
                        <path d="M-4,0h8M0,-4v8" fill="none" stroke="white" stroke-width="1.5" pointer-events="none"/>
                </g>
                <g id="zoomMin">
                        <use xlink:href="#rim" fill="#404040">
                                <set attributeName="fill" to="#808080" begin="zoomminus.mouseover" end="zoomminus.mouseout"/>
                        </use>
                        <path d="M-4,0h8" fill="none" stroke="white" stroke-width="1.5" pointer-events="none"/>
                </g>
                <g id="dirArrow">
                        <path fill="none" stroke="white" stroke-width="1.5" d="M0,-3.0v7 M-2.5,-0.5L0,-3.0L2.5,-0.5"/>
                </g>
               <g id="resetDef">
                       <use xlink:href="#rim2" fill="#404040">
                               <set attributeName="fill" to="#808080" begin="reset.mouseover" end="reset.mouseout"/>
                       </use>
               </g>
        </defs>

<script type="text/javascript">
var viewWidth = 1630;
var viewHeight = 495;
var sectionId = 'dynsection-1';
</script>
<script xlink:href="../../svgpan.js"/>
<svg id="graph" class="graph">
<g id="viewport">
<title>/home/runner/work/AliceO2/AliceO2/DataFormats/Detectors/PHOS/include/DataFormatsPHOS/Cell.h</title>
<!-- Node3 -->
<g id="node1" class="node">
<title>Node3</title>
<polygon fill="#bfbfbf" stroke="#000000" points="861.5,-445.5 861.5,-486.5 1060.5,-486.5 1060.5,-445.5 861.5,-445.5"/>
<text text-anchor="start" x="869.5" y="-474.5" font-family="Helvetica,sans-Serif" font-size="10.00" fill="#000000">/home/runner/work/AliceO2</text>
<text text-anchor="start" x="869.5" y="-463.5" font-family="Helvetica,sans-Serif" font-size="10.00" fill="#000000">/AliceO2/DataFormats/Detectors</text>
<text text-anchor="middle" x="961" y="-452.5" font-family="Helvetica,sans-Serif" font-size="10.00" fill="#000000">/PHOS/include/DataFormatsPHOS/Cell.h</text>
</g>
<!-- Node4 -->
<g id="node2" class="node">
<title>Node4</title>
<g id="a_node2"><a xlink:href="../../d7/de5/PHOS_2include_2DataFormatsPHOS_2CTF_8h.html" target="_top" xlink:title="/home/runner/work/AliceO2\l/AliceO2/DataFormats/Detectors\l/PHOS/include/DataFormatsPHOS/CTF.h">
<polygon fill="none" stroke="#000000" points="386.5,-362 386.5,-403 587.5,-403 587.5,-362 386.5,-362"/>
<text text-anchor="start" x="394.5" y="-391" font-family="Helvetica,sans-Serif" font-size="10.00" fill="#000000">/home/runner/work/AliceO2</text>
<text text-anchor="start" x="394.5" y="-380" font-family="Helvetica,sans-Serif" font-size="10.00" fill="#000000">/AliceO2/DataFormats/Detectors</text>
<text text-anchor="middle" x="487" y="-369" font-family="Helvetica,sans-Serif" font-size="10.00" fill="#000000">/PHOS/include/DataFormatsPHOS/CTF.h</text>
</a>
</g>
</g>
<!-- Node3&#45;&gt;Node4 -->
<g id="edge1" class="edge">
<title>Node3&#45;&gt;Node4</title>
<path fill="none" stroke="#191970" d="M851.1714,-450.3343C780.4038,-439.7793 686.5291,-424.9176 604,-409 594.4907,-407.1659 584.5757,-405.1238 574.7162,-403.0097"/>
<polygon fill="#191970" stroke="#191970" points="851.035,-453.8523 861.4408,-451.8599 852.0637,-446.9283 851.035,-453.8523"/>
</g>
<!-- Node19 -->
<g id="node17" class="node">
<title>Node19</title>
<g id="a_node17"><a xlink:href="../../d4/de8/PHOS_2src_2Cell_8cxx.html" target="_top" xlink:title="/home/runner/work/AliceO2\l/AliceO2/DataFormats/Detectors\l/PHOS/src/Cell.cxx">
<polygon fill="none" stroke="#000000" points="613,-362 613,-403 773,-403 773,-362 613,-362"/>
<text text-anchor="start" x="621" y="-391" font-family="Helvetica,sans-Serif" font-size="10.00" fill="#000000">/home/runner/work/AliceO2</text>
<text text-anchor="start" x="621" y="-380" font-family="Helvetica,sans-Serif" font-size="10.00" fill="#000000">/AliceO2/DataFormats/Detectors</text>
<text text-anchor="middle" x="693" y="-369" font-family="Helvetica,sans-Serif" font-size="10.00" fill="#000000">/PHOS/src/Cell.cxx</text>
</a>
</g>
</g>
<!-- Node3&#45;&gt;Node19 -->
<g id="edge18" class="edge">
<title>Node3&#45;&gt;Node19</title>
<path fill="none" stroke="#191970" d="M885.4454,-442.4597C845.682,-430.0707 797.3792,-415.0211 759.1135,-403.0988"/>
<polygon fill="#191970" stroke="#191970" points="884.5081,-445.8335 895.0966,-445.4667 886.5904,-439.1504 884.5081,-445.8335"/>
</g>
<!-- Node20 -->
<g id="node18" class="node">
<title>Node20</title>
<g id="a_node18"><a xlink:href="../../da/de6/PHOS_2test_2testCell_8cxx.html" target="_top" xlink:title="/home/runner/work/AliceO2\l/AliceO2/DataFormats/Detectors\l/PHOS/test/testCell.cxx">
<polygon fill="none" stroke="#000000" points="791,-362 791,-403 951,-403 951,-362 791,-362"/>
<text text-anchor="start" x="799" y="-391" font-family="Helvetica,sans-Serif" font-size="10.00" fill="#000000">/home/runner/work/AliceO2</text>
<text text-anchor="start" x="799" y="-380" font-family="Helvetica,sans-Serif" font-size="10.00" fill="#000000">/AliceO2/DataFormats/Detectors</text>
<text text-anchor="middle" x="871" y="-369" font-family="Helvetica,sans-Serif" font-size="10.00" fill="#000000">/PHOS/test/testCell.cxx</text>
</a>
</g>
</g>
<!-- Node3&#45;&gt;Node20 -->
<g id="edge19" class="edge">
<title>Node3&#45;&gt;Node20</title>
<path fill="none" stroke="#191970" d="M931.3072,-438.4517C918.921,-426.9601 904.7784,-413.8388 893.3032,-403.1924"/>
<polygon fill="#191970" stroke="#191970" points="929.0414,-441.1239 938.7528,-445.3595 933.8024,-435.9923 929.0414,-441.1239"/>
</g>
<!-- Node21 -->
<g id="node19" class="node">
<title>Node21</title>
<g id="a_node19"><a xlink:href="../../d1/d34/PHOS_2reconstruction_2include_2PHOSReconstruction_2Clusterer_8h.html" target="_top" xlink:title="/home/runner/work/AliceO2\l/AliceO2/Detectors/PHOS\l/reconstruction/include\l/PHOSReconstruction/Clusterer.h">
<polygon fill="none" stroke="#000000" points="969.5,-356.5 969.5,-408.5 1134.5,-408.5 1134.5,-356.5 969.5,-356.5"/>
<text text-anchor="start" x="977.5" y="-396.5" font-family="Helvetica,sans-Serif" font-size="10.00" fill="#000000">/home/runner/work/AliceO2</text>
<text text-anchor="start" x="977.5" y="-385.5" font-family="Helvetica,sans-Serif" font-size="10.00" fill="#000000">/AliceO2/Detectors/PHOS</text>
<text text-anchor="start" x="977.5" y="-374.5" font-family="Helvetica,sans-Serif" font-size="10.00" fill="#000000">/reconstruction/include</text>
<text text-anchor="middle" x="1052" y="-363.5" font-family="Helvetica,sans-Serif" font-size="10.00" fill="#000000">/PHOSReconstruction/Clusterer.h</text>
</a>
</g>
</g>
<!-- Node3&#45;&gt;Node21 -->
<g id="edge20" class="edge">
<title>Node3&#45;&gt;Node21</title>
<path fill="none" stroke="#191970" d="M990.8869,-438.5763C1001.3984,-428.9311 1013.1751,-418.1251 1023.5638,-408.5925"/>
<polygon fill="#191970" stroke="#191970" points="988.4963,-436.0197 983.4944,-445.3595 993.2289,-441.1775 988.4963,-436.0197"/>
</g>
<!-- Node26 -->
<g id="node24" class="node">
<title>Node26</title>
<g id="a_node24"><a xlink:href="../../d5/d29/PHOS_2workflow_2include_2PHOSWorkflow_2CellConverterSpec_8h.html" target="_top" xlink:title="/home/runner/work/AliceO2\l/AliceO2/Detectors/PHOS\l/workflow/include/PHOSWorkflow\l/CellConverterSpec.h">
<polygon fill="none" stroke="#000000" points="1152.5,-356.5 1152.5,-408.5 1317.5,-408.5 1317.5,-356.5 1152.5,-356.5"/>
<text text-anchor="start" x="1160.5" y="-396.5" font-family="Helvetica,sans-Serif" font-size="10.00" fill="#000000">/home/runner/work/AliceO2</text>
<text text-anchor="start" x="1160.5" y="-385.5" font-family="Helvetica,sans-Serif" font-size="10.00" fill="#000000">/AliceO2/Detectors/PHOS</text>
<text text-anchor="start" x="1160.5" y="-374.5" font-family="Helvetica,sans-Serif" font-size="10.00" fill="#000000">/workflow/include/PHOSWorkflow</text>
<text text-anchor="middle" x="1235" y="-363.5" font-family="Helvetica,sans-Serif" font-size="10.00" fill="#000000">/CellConverterSpec.h</text>
</a>
</g>
</g>
<!-- Node3&#45;&gt;Node26 -->
<g id="edge25" class="edge">
<title>Node3&#45;&gt;Node26</title>
<path fill="none" stroke="#191970" d="M1038.2394,-442.4617C1073.8675,-431.6042 1116.2023,-418.7029 1152.459,-407.6539"/>
<polygon fill="#191970" stroke="#191970" points="1036.9243,-439.2035 1028.3789,-445.4667 1038.9649,-445.8995 1036.9243,-439.2035"/>
</g>
<!-- Node28 -->
<g id="node26" class="node">
<title>Node28</title>
<g id="a_node26"><a xlink:href="../../d7/da1/PHOS_2workflow_2include_2PHOSWorkflow_2RawToCellConverterSpec_8h.html" target="_top" xlink:title="/home/runner/work/AliceO2\l/AliceO2/Detectors/PHOS\l/workflow/include/PHOSWorkflow\l/RawToCellConverterSpec.h">
<polygon fill="none" stroke="#000000" points="1341.5,-356.5 1341.5,-408.5 1506.5,-408.5 1506.5,-356.5 1341.5,-356.5"/>
<text text-anchor="start" x="1349.5" y="-396.5" font-family="Helvetica,sans-Serif" font-size="10.00" fill="#000000">/home/runner/work/AliceO2</text>
<text text-anchor="start" x="1349.5" y="-385.5" font-family="Helvetica,sans-Serif" font-size="10.00" fill="#000000">/AliceO2/Detectors/PHOS</text>
<text text-anchor="start" x="1349.5" y="-374.5" font-family="Helvetica,sans-Serif" font-size="10.00" fill="#000000">/workflow/include/PHOSWorkflow</text>
<text text-anchor="middle" x="1424" y="-363.5" font-family="Helvetica,sans-Serif" font-size="10.00" fill="#000000">/RawToCellConverterSpec.h</text>
</a>
</g>
</g>
<!-- Node3&#45;&gt;Node28 -->
<g id="edge28" class="edge">
<title>Node3&#45;&gt;Node28</title>
<path fill="none" stroke="#191970" d="M1070.7824,-452.0423C1143.546,-442.0103 1240.9198,-427.09 1326,-409 1330.9995,-407.937 1336.1239,-406.7748 1341.2807,-405.5494"/>
<polygon fill="#191970" stroke="#191970" points="1070.115,-448.6009 1060.6823,-453.4252 1071.0647,-455.5362 1070.115,-448.6009"/>
</g>
<!-- Node5 -->
<g id="node3" class="node">
<title>Node5</title>
<g id="a_node3"><a xlink:href="../../d9/d8e/PHOS_2src_2CTF_8cxx.html" target="_top" xlink:title="/home/runner/work/AliceO2\l/AliceO2/DataFormats/Detectors\l/PHOS/src/CTF.cxx">
<polygon fill="none" stroke="#000000" points="0,-273 0,-314 160,-314 160,-273 0,-273"/>
<text text-anchor="start" x="8" y="-302" font-family="Helvetica,sans-Serif" font-size="10.00" fill="#000000">/home/runner/work/AliceO2</text>
<text text-anchor="start" x="8" y="-291" font-family="Helvetica,sans-Serif" font-size="10.00" fill="#000000">/AliceO2/DataFormats/Detectors</text>
<text text-anchor="middle" x="80" y="-280" font-family="Helvetica,sans-Serif" font-size="10.00" fill="#000000">/PHOS/src/CTF.cxx</text>
</a>
</g>
</g>
<!-- Node4&#45;&gt;Node5 -->
<g id="edge2" class="edge">
<title>Node4&#45;&gt;Node5</title>
<path fill="none" stroke="#191970" d="M376.5869,-362.6218C316.4439,-351.2498 240.858,-336.0736 174,-320 166.4165,-318.1768 158.5233,-316.1532 150.6766,-314.0601"/>
<polygon fill="#191970" stroke="#191970" points="376.0087,-366.0743 386.4837,-364.4852 377.304,-359.1952 376.0087,-366.0743"/>
</g>
<!-- Node6 -->
<g id="node4" class="node">
<title>Node6</title>
<g id="a_node4"><a xlink:href="../../d5/de3/test__ctf__io__phos_8cxx.html" target="_top" xlink:title="/home/runner/work/AliceO2\l/AliceO2/Detectors/CTF\l/test/test_ctf_io_phos.cxx">
<polygon fill="none" stroke="#000000" points="135.5,-95 135.5,-136 270.5,-136 270.5,-95 135.5,-95"/>
<text text-anchor="start" x="143.5" y="-124" font-family="Helvetica,sans-Serif" font-size="10.00" fill="#000000">/home/runner/work/AliceO2</text>
<text text-anchor="start" x="143.5" y="-113" font-family="Helvetica,sans-Serif" font-size="10.00" fill="#000000">/AliceO2/Detectors/CTF</text>
<text text-anchor="middle" x="203" y="-102" font-family="Helvetica,sans-Serif" font-size="10.00" fill="#000000">/test/test_ctf_io_phos.cxx</text>
</a>
</g>
</g>
<!-- Node4&#45;&gt;Node6 -->
<g id="edge3" class="edge">
<title>Node4&#45;&gt;Node6</title>
<path fill="none" stroke="#191970" d="M376.115,-371.7132C307.5541,-362.5145 228.6348,-346.4619 207,-320 163.3955,-266.6665 183.5819,-176.7264 195.9174,-136.2899"/>
<polygon fill="#191970" stroke="#191970" points="375.7788,-375.1989 386.1473,-373.0211 376.6837,-368.2576 375.7788,-375.1989"/>
</g>
<!-- Node7 -->
<g id="node5" class="node">
<title>Node7</title>
<g id="a_node5"><a xlink:href="../../d8/d12/CTFReaderSpec_8cxx.html" target="_top" xlink:title="/home/runner/work/AliceO2\l/AliceO2/Detectors/CTF\l/workflow/src/CTFReaderSpec.cxx">
<polygon fill="none" stroke="#000000" points="216,-273 216,-314 386,-314 386,-273 216,-273"/>
<text text-anchor="start" x="224" y="-302" font-family="Helvetica,sans-Serif" font-size="10.00" fill="#000000">/home/runner/work/AliceO2</text>
<text text-anchor="start" x="224" y="-291" font-family="Helvetica,sans-Serif" font-size="10.00" fill="#000000">/AliceO2/Detectors/CTF</text>
<text text-anchor="middle" x="301" y="-280" font-family="Helvetica,sans-Serif" font-size="10.00" fill="#000000">/workflow/src/CTFReaderSpec.cxx</text>
</a>
</g>
</g>
<!-- Node4&#45;&gt;Node7 -->
<g id="edge4" class="edge">
<title>Node4&#45;&gt;Node7</title>
<path fill="none" stroke="#191970" d="M434.7933,-357.5194C406.1115,-343.7953 370.9737,-326.982 343.9057,-314.0301"/>
<polygon fill="#191970" stroke="#191970" points="433.3291,-360.6988 443.8604,-361.8579 436.3505,-354.3844 433.3291,-360.6988"/>
</g>
<!-- Node8 -->
<g id="node6" class="node">
<title>Node8</title>
<g id="a_node6"><a xlink:href="../../d4/dd7/CTFWriterSpec_8cxx.html" target="_top" xlink:title="/home/runner/work/AliceO2\l/AliceO2/Detectors/CTF\l/workflow/src/CTFWriterSpec.cxx">
<polygon fill="none" stroke="#000000" points="404.5,-273 404.5,-314 569.5,-314 569.5,-273 404.5,-273"/>
<text text-anchor="start" x="412.5" y="-302" font-family="Helvetica,sans-Serif" font-size="10.00" fill="#000000">/home/runner/work/AliceO2</text>
<text text-anchor="start" x="412.5" y="-291" font-family="Helvetica,sans-Serif" font-size="10.00" fill="#000000">/AliceO2/Detectors/CTF</text>
<text text-anchor="middle" x="487" y="-280" font-family="Helvetica,sans-Serif" font-size="10.00" fill="#000000">/workflow/src/CTFWriterSpec.cxx</text>
</a>
</g>
</g>
<!-- Node4&#45;&gt;Node8 -->
<g id="edge5" class="edge">
<title>Node4&#45;&gt;Node8</title>
<path fill="none" stroke="#191970" d="M487,-351.844C487,-339.3522 487,-325.2439 487,-314.0301"/>
<polygon fill="#191970" stroke="#191970" points="483.5001,-351.8579 487,-361.8579 490.5001,-351.8579 483.5001,-351.8579"/>
</g>
<!-- Node9 -->
<g id="node7" class="node">
<title>Node9</title>
<g id="a_node7"><a xlink:href="../../d9/d44/PHOS_2reconstruction_2include_2PHOSReconstruction_2CTFCoder_8h.html" target="_top" xlink:title="/home/runner/work/AliceO2\l/AliceO2/Detectors/PHOS\l/reconstruction/include\l/PHOSReconstruction/CTFCoder.h">
<polygon fill="none" stroke="#000000" points="483.5,-178.5 483.5,-230.5 654.5,-230.5 654.5,-178.5 483.5,-178.5"/>
<text text-anchor="start" x="491.5" y="-218.5" font-family="Helvetica,sans-Serif" font-size="10.00" fill="#000000">/home/runner/work/AliceO2</text>
<text text-anchor="start" x="491.5" y="-207.5" font-family="Helvetica,sans-Serif" font-size="10.00" fill="#000000">/AliceO2/Detectors/PHOS</text>
<text text-anchor="start" x="491.5" y="-196.5" font-family="Helvetica,sans-Serif" font-size="10.00" fill="#000000">/reconstruction/include</text>
<text text-anchor="middle" x="569" y="-185.5" font-family="Helvetica,sans-Serif" font-size="10.00" fill="#000000">/PHOSReconstruction/CTFCoder.h</text>
</a>
</g>
</g>
<!-- Node4&#45;&gt;Node9 -->
<g id="edge6" class="edge">
<title>Node4&#45;&gt;Node9</title>
<path fill="none" stroke="#191970" d="M543.0887,-356.2913C557.0024,-346.9144 570.1641,-334.8879 578,-320 592.6136,-292.2349 586.0748,-255.419 578.7365,-230.8932"/>
<polygon fill="#191970" stroke="#191970" points="540.9613,-353.495 534.3692,-361.7893 544.6948,-359.4162 540.9613,-353.495"/>
</g>
<!-- Node17 -->
<g id="node15" class="node">
<title>Node17</title>
<g id="a_node15"><a xlink:href="../../d7/d1b/PHOS_2reconstruction_2include_2PHOSReconstruction_2CTFHelper_8h.html" target="_top" xlink:title="/home/runner/work/AliceO2\l/AliceO2/Detectors/PHOS\l/reconstruction/include\l/PHOSReconstruction/CTFHelper.h">
<polygon fill="none" stroke="#000000" points="626.5,-267.5 626.5,-319.5 799.5,-319.5 799.5,-267.5 626.5,-267.5"/>
<text text-anchor="start" x="634.5" y="-307.5" font-family="Helvetica,sans-Serif" font-size="10.00" fill="#000000">/home/runner/work/AliceO2</text>
<text text-anchor="start" x="634.5" y="-296.5" font-family="Helvetica,sans-Serif" font-size="10.00" fill="#000000">/AliceO2/Detectors/PHOS</text>
<text text-anchor="start" x="634.5" y="-285.5" font-family="Helvetica,sans-Serif" font-size="10.00" fill="#000000">/reconstruction/include</text>
<text text-anchor="middle" x="713" y="-274.5" font-family="Helvetica,sans-Serif" font-size="10.00" fill="#000000">/PHOSReconstruction/CTFHelper.h</text>
</a>
</g>
</g>
<!-- Node4&#45;&gt;Node17 -->
<g id="edge15" class="edge">
<title>Node4&#45;&gt;Node17</title>
<path fill="none" stroke="#191970" d="M548.7791,-358.171C579.2176,-346.1842 615.9454,-331.7206 646.9419,-319.514"/>
<polygon fill="#191970" stroke="#191970" points="547.1548,-355.049 539.1327,-361.9699 549.7197,-361.5622 547.1548,-355.049"/>
</g>
<!-- Node9&#45;&gt;Node6 -->
<g id="edge7" class="edge">
<title>Node9&#45;&gt;Node6</title>
<path fill="none" stroke="#191970" d="M473.1415,-184.1909C420.1431,-172.5922 353.2209,-157.3378 294,-142 286.5132,-140.061 278.7082,-137.9407 270.9541,-135.7711"/>
<polygon fill="#191970" stroke="#191970" points="472.6931,-187.6753 483.2093,-186.3869 474.185,-180.8361 472.6931,-187.6753"/>
</g>
<!-- Node10 -->
<g id="node8" class="node">
<title>Node10</title>
<g id="a_node8"><a xlink:href="../../da/daa/PHOS_2reconstruction_2src_2CTFCoder_8cxx.html" target="_top" xlink:title="/home/runner/work/AliceO2\l/AliceO2/Detectors/PHOS\l/reconstruction/src/CTFCoder.cxx">
<polygon fill="none" stroke="#000000" points="303.5,-95 303.5,-136 468.5,-136 468.5,-95 303.5,-95"/>
<text text-anchor="start" x="311.5" y="-124" font-family="Helvetica,sans-Serif" font-size="10.00" fill="#000000">/home/runner/work/AliceO2</text>
<text text-anchor="start" x="311.5" y="-113" font-family="Helvetica,sans-Serif" font-size="10.00" fill="#000000">/AliceO2/Detectors/PHOS</text>
<text text-anchor="middle" x="386" y="-102" font-family="Helvetica,sans-Serif" font-size="10.00" fill="#000000">/reconstruction/src/CTFCoder.cxx</text>
</a>
</g>
</g>
<!-- Node9&#45;&gt;Node10 -->
<g id="edge8" class="edge">
<title>Node9&#45;&gt;Node10</title>
<path fill="none" stroke="#191970" d="M505.8025,-173.7646C480.1601,-161.2937 451.2283,-147.2231 428.2209,-136.0336"/>
<polygon fill="#191970" stroke="#191970" points="504.5601,-177.0523 515.0837,-178.2784 507.6216,-170.7573 504.5601,-177.0523"/>
</g>
<!-- Node11 -->
<g id="node9" class="node">
<title>Node11</title>
<g id="a_node9"><a xlink:href="../../d6/d50/PHOS_2workflow_2include_2PHOSWorkflow_2EntropyDecoderSpec_8h.html" target="_top" xlink:title="/home/runner/work/AliceO2\l/AliceO2/Detectors/PHOS\l/workflow/include/PHOSWorkflow\l/EntropyDecoderSpec.h">
<polygon fill="none" stroke="#000000" points="486.5,-89.5 486.5,-141.5 651.5,-141.5 651.5,-89.5 486.5,-89.5"/>
<text text-anchor="start" x="494.5" y="-129.5" font-family="Helvetica,sans-Serif" font-size="10.00" fill="#000000">/home/runner/work/AliceO2</text>
<text text-anchor="start" x="494.5" y="-118.5" font-family="Helvetica,sans-Serif" font-size="10.00" fill="#000000">/AliceO2/Detectors/PHOS</text>
<text text-anchor="start" x="494.5" y="-107.5" font-family="Helvetica,sans-Serif" font-size="10.00" fill="#000000">/workflow/include/PHOSWorkflow</text>
<text text-anchor="middle" x="569" y="-96.5" font-family="Helvetica,sans-Serif" font-size="10.00" fill="#000000">/EntropyDecoderSpec.h</text>
</a>
</g>
</g>
<!-- Node9&#45;&gt;Node11 -->
<g id="edge9" class="edge">
<title>Node9&#45;&gt;Node11</title>
<path fill="none" stroke="#191970" d="M569,-168.1155C569,-159.2061 569,-149.8475 569,-141.5341"/>
<polygon fill="#191970" stroke="#191970" points="565.5001,-168.2784 569,-178.2784 572.5001,-168.2785 565.5001,-168.2784"/>
</g>
<!-- Node14 -->
<g id="node12" class="node">
<title>Node14</title>
<g id="a_node12"><a xlink:href="../../df/dbe/PHOS_2workflow_2include_2PHOSWorkflow_2EntropyEncoderSpec_8h.html" target="_top" xlink:title="/home/runner/work/AliceO2\l/AliceO2/Detectors/PHOS\l/workflow/include/PHOSWorkflow\l/EntropyEncoderSpec.h">
<polygon fill="none" stroke="#000000" points="673.5,-89.5 673.5,-141.5 838.5,-141.5 838.5,-89.5 673.5,-89.5"/>
<text text-anchor="start" x="681.5" y="-129.5" font-family="Helvetica,sans-Serif" font-size="10.00" fill="#000000">/home/runner/work/AliceO2</text>
<text text-anchor="start" x="681.5" y="-118.5" font-family="Helvetica,sans-Serif" font-size="10.00" fill="#000000">/AliceO2/Detectors/PHOS</text>
<text text-anchor="start" x="681.5" y="-107.5" font-family="Helvetica,sans-Serif" font-size="10.00" fill="#000000">/workflow/include/PHOSWorkflow</text>
<text text-anchor="middle" x="756" y="-96.5" font-family="Helvetica,sans-Serif" font-size="10.00" fill="#000000">/EntropyEncoderSpec.h</text>
</a>
</g>
</g>
<!-- Node9&#45;&gt;Node14 -->
<g id="edge12" class="edge">
<title>Node9&#45;&gt;Node14</title>
<path fill="none" stroke="#191970" d="M633.1587,-173.9646C655.2833,-163.4347 679.8469,-151.744 701.1583,-141.6011"/>
<polygon fill="#191970" stroke="#191970" points="631.368,-170.9406 623.8426,-178.3984 634.3763,-177.2612 631.368,-170.9406"/>
</g>
<!-- Node12 -->
<g id="node10" class="node">
<title>Node12</title>
<g id="a_node10"><a xlink:href="../../dc/d55/ctf-reader-workflow_8cxx.html" target="_top" xlink:title="/home/runner/work/AliceO2\l/AliceO2/Detectors/CTF\l/workflow/src/ctf&#45;reader\l&#45;workflow.cxx">
<polygon fill="none" stroke="#000000" points="320.5,-.5 320.5,-52.5 455.5,-52.5 455.5,-.5 320.5,-.5"/>
<text text-anchor="start" x="328.5" y="-40.5" font-family="Helvetica,sans-Serif" font-size="10.00" fill="#000000">/home/runner/work/AliceO2</text>
<text text-anchor="start" x="328.5" y="-29.5" font-family="Helvetica,sans-Serif" font-size="10.00" fill="#000000">/AliceO2/Detectors/CTF</text>
<text text-anchor="start" x="328.5" y="-18.5" font-family="Helvetica,sans-Serif" font-size="10.00" fill="#000000">/workflow/src/ctf&#45;reader</text>
<text text-anchor="middle" x="388" y="-7.5" font-family="Helvetica,sans-Serif" font-size="10.00" fill="#000000">&#45;workflow.cxx</text>
</a>
</g>
</g>
<!-- Node11&#45;&gt;Node12 -->
<g id="edge10" class="edge">
<title>Node11&#45;&gt;Node12</title>
<path fill="none" stroke="#191970" d="M506.6606,-84.8469C485.261,-74.3245 461.5283,-62.6548 440.9459,-52.5341"/>
<polygon fill="#191970" stroke="#191970" points="505.1548,-88.0067 515.673,-89.2784 508.2436,-81.725 505.1548,-88.0067"/>
</g>
<!-- Node13 -->
<g id="node11" class="node">
<title>Node13</title>
<g id="a_node11"><a xlink:href="../../d5/dda/PHOS_2workflow_2src_2EntropyDecoderSpec_8cxx.html" target="_top" xlink:title="/home/runner/work/AliceO2\l/AliceO2/Detectors/PHOS\l/workflow/src/EntropyDecoderSpec.cxx">
<polygon fill="none" stroke="#000000" points="474,-6 474,-47 664,-47 664,-6 474,-6"/>
<text text-anchor="start" x="482" y="-35" font-family="Helvetica,sans-Serif" font-size="10.00" fill="#000000">/home/runner/work/AliceO2</text>
<text text-anchor="start" x="482" y="-24" font-family="Helvetica,sans-Serif" font-size="10.00" fill="#000000">/AliceO2/Detectors/PHOS</text>
<text text-anchor="middle" x="569" y="-13" font-family="Helvetica,sans-Serif" font-size="10.00" fill="#000000">/workflow/src/EntropyDecoderSpec.cxx</text>
</a>
</g>
</g>
<!-- Node11&#45;&gt;Node13 -->
<g id="edge11" class="edge">
<title>Node11&#45;&gt;Node13</title>
<path fill="none" stroke="#191970" d="M569,-79.1335C569,-68.2443 569,-56.6825 569,-47.1771"/>
<polygon fill="#191970" stroke="#191970" points="565.5001,-79.2784 569,-89.2784 572.5001,-79.2785 565.5001,-79.2784"/>
</g>
<!-- Node15 -->
<g id="node13" class="node">
<title>Node15</title>
<g id="a_node13"><a xlink:href="../../d8/d84/PHOS_2workflow_2src_2entropy-encoder-workflow_8cxx.html" target="_top" xlink:title="/home/runner/work/AliceO2\l/AliceO2/Detectors/PHOS\l/workflow/src/entropy&#45;encoder\l&#45;workflow.cxx">
<polygon fill="none" stroke="#000000" points="682,-.5 682,-52.5 830,-52.5 830,-.5 682,-.5"/>
<text text-anchor="start" x="690" y="-40.5" font-family="Helvetica,sans-Serif" font-size="10.00" fill="#000000">/home/runner/work/AliceO2</text>
<text text-anchor="start" x="690" y="-29.5" font-family="Helvetica,sans-Serif" font-size="10.00" fill="#000000">/AliceO2/Detectors/PHOS</text>
<text text-anchor="start" x="690" y="-18.5" font-family="Helvetica,sans-Serif" font-size="10.00" fill="#000000">/workflow/src/entropy&#45;encoder</text>
<text text-anchor="middle" x="756" y="-7.5" font-family="Helvetica,sans-Serif" font-size="10.00" fill="#000000">&#45;workflow.cxx</text>
</a>
</g>
</g>
<!-- Node14&#45;&gt;Node15 -->
<g id="edge13" class="edge">
<title>Node14&#45;&gt;Node15</title>
<path fill="none" stroke="#191970" d="M756,-79.1155C756,-70.2061 756,-60.8475 756,-52.5341"/>
<polygon fill="#191970" stroke="#191970" points="752.5001,-79.2784 756,-89.2784 759.5001,-79.2785 752.5001,-79.2784"/>
</g>
<!-- Node16 -->
<g id="node14" class="node">
<title>Node16</title>
<g id="a_node14"><a xlink:href="../../d9/d6c/PHOS_2workflow_2src_2EntropyEncoderSpec_8cxx.html" target="_top" xlink:title="/home/runner/work/AliceO2\l/AliceO2/Detectors/PHOS\l/workflow/src/EntropyEncoderSpec.cxx">
<polygon fill="none" stroke="#000000" points="848.5,-6 848.5,-47 1037.5,-47 1037.5,-6 848.5,-6"/>
<text text-anchor="start" x="856.5" y="-35" font-family="Helvetica,sans-Serif" font-size="10.00" fill="#000000">/home/runner/work/AliceO2</text>
<text text-anchor="start" x="856.5" y="-24" font-family="Helvetica,sans-Serif" font-size="10.00" fill="#000000">/AliceO2/Detectors/PHOS</text>
<text text-anchor="middle" x="943" y="-13" font-family="Helvetica,sans-Serif" font-size="10.00" fill="#000000">/workflow/src/EntropyEncoderSpec.cxx</text>
</a>
</g>
</g>
<!-- Node14&#45;&gt;Node16 -->
<g id="edge14" class="edge">
<title>Node14&#45;&gt;Node16</title>
<path fill="none" stroke="#191970" d="M819.987,-85.0463C846.2934,-72.5262 876.0727,-58.3531 899.7419,-47.0881"/>
<polygon fill="#191970" stroke="#191970" points="818.368,-81.9406 810.8426,-89.3984 821.3763,-88.2612 818.368,-81.9406"/>
</g>
<!-- Node17&#45;&gt;Node9 -->
<g id="edge16" class="edge">
<title>Node17&#45;&gt;Node9</title>
<path fill="none" stroke="#191970" d="M662.032,-261.9989C645.3692,-251.7004 627.059,-240.3837 611.1227,-230.5341"/>
<polygon fill="#191970" stroke="#191970" points="660.2275,-264.9982 670.5741,-267.2784 663.9078,-259.0437 660.2275,-264.9982"/>
</g>
<!-- Node18 -->
<g id="node16" class="node">
<title>Node18</title>
<g id="a_node16"><a xlink:href="../../d8/d21/PHOS_2reconstruction_2src_2CTFHelper_8cxx.html" target="_top" xlink:title="/home/runner/work/AliceO2\l/AliceO2/Detectors/PHOS\l/reconstruction/src/CTFHelper.cxx">
<polygon fill="none" stroke="#000000" points="672.5,-184 672.5,-225 839.5,-225 839.5,-184 672.5,-184"/>
<text text-anchor="start" x="680.5" y="-213" font-family="Helvetica,sans-Serif" font-size="10.00" fill="#000000">/home/runner/work/AliceO2</text>
<text text-anchor="start" x="680.5" y="-202" font-family="Helvetica,sans-Serif" font-size="10.00" fill="#000000">/AliceO2/Detectors/PHOS</text>
<text text-anchor="middle" x="756" y="-191" font-family="Helvetica,sans-Serif" font-size="10.00" fill="#000000">/reconstruction/src/CTFHelper.cxx</text>
</a>
</g>
</g>
<!-- Node17&#45;&gt;Node18 -->
<g id="edge17" class="edge">
<title>Node17&#45;&gt;Node18</title>
<path fill="none" stroke="#191970" d="M730.0832,-258.1418C735.4849,-246.9615 741.2754,-234.9765 746.0099,-225.1771"/>
<polygon fill="#191970" stroke="#191970" points="726.8678,-256.7516 725.6688,-267.2784 733.1707,-259.7969 726.8678,-256.7516"/>
</g>
<!-- Node22 -->
<g id="node20" class="node">
<title>Node22</title>
<g id="a_node20"><a xlink:href="../../d2/d52/PHOS_2reconstruction_2src_2Clusterer_8cxx.html" target="_top" xlink:title="/home/runner/work/AliceO2\l/AliceO2/Detectors/PHOS\l/reconstruction/src/Clusterer.cxx">
<polygon fill="none" stroke="#000000" points="817.5,-273 817.5,-314 976.5,-314 976.5,-273 817.5,-273"/>
<text text-anchor="start" x="825.5" y="-302" font-family="Helvetica,sans-Serif" font-size="10.00" fill="#000000">/home/runner/work/AliceO2</text>
<text text-anchor="start" x="825.5" y="-291" font-family="Helvetica,sans-Serif" font-size="10.00" fill="#000000">/AliceO2/Detectors/PHOS</text>
<text text-anchor="middle" x="897" y="-280" font-family="Helvetica,sans-Serif" font-size="10.00" fill="#000000">/reconstruction/src/Clusterer.cxx</text>
</a>
</g>
</g>
<!-- Node21&#45;&gt;Node22 -->
<g id="edge21" class="edge">
<title>Node21&#45;&gt;Node22</title>
<path fill="none" stroke="#191970" d="M997.6133,-351.2715C976.1091,-338.9239 951.9916,-325.0758 932.7608,-314.0336"/>
<polygon fill="#191970" stroke="#191970" points="995.9183,-354.3342 1006.3332,-356.2784 999.404,-348.2637 995.9183,-354.3342"/>
</g>
<!-- Node23 -->
<g id="node21" class="node">
<title>Node23</title>
<g id="a_node21"><a xlink:href="../../d3/d8c/PHOS_2workflow_2include_2PHOSWorkflow_2ClusterizerSpec_8h.html" target="_top" xlink:title="/home/runner/work/AliceO2\l/AliceO2/Detectors/PHOS\l/workflow/include/PHOSWorkflow\l/ClusterizerSpec.h">
<polygon fill="none" stroke="#000000" points="994.5,-267.5 994.5,-319.5 1159.5,-319.5 1159.5,-267.5 994.5,-267.5"/>
<text text-anchor="start" x="1002.5" y="-307.5" font-family="Helvetica,sans-Serif" font-size="10.00" fill="#000000">/home/runner/work/AliceO2</text>
<text text-anchor="start" x="1002.5" y="-296.5" font-family="Helvetica,sans-Serif" font-size="10.00" fill="#000000">/AliceO2/Detectors/PHOS</text>
<text text-anchor="start" x="1002.5" y="-285.5" font-family="Helvetica,sans-Serif" font-size="10.00" fill="#000000">/workflow/include/PHOSWorkflow</text>
<text text-anchor="middle" x="1077" y="-274.5" font-family="Helvetica,sans-Serif" font-size="10.00" fill="#000000">/ClusterizerSpec.h</text>
</a>
</g>
</g>
<!-- Node21&#45;&gt;Node23 -->
<g id="edge22" class="edge">
<title>Node21&#45;&gt;Node23</title>
<path fill="none" stroke="#191970" d="M1062.1388,-346.4059C1064.6658,-337.4097 1067.3264,-327.9379 1069.687,-319.5341"/>
<polygon fill="#191970" stroke="#191970" points="1058.7004,-345.7045 1059.3656,-356.2784 1065.4396,-347.5976 1058.7004,-345.7045"/>
</g>
<!-- Node24 -->
<g id="node22" class="node">
<title>Node24</title>
<g id="a_node22"><a xlink:href="../../da/df8/PHOS_2workflow_2src_2ClusterizerSpec_8cxx.html" target="_top" xlink:title="/home/runner/work/AliceO2\l/AliceO2/Detectors/PHOS\l/workflow/src/ClusterizerSpec.cxx">
<polygon fill="none" stroke="#000000" points="957.5,-184 957.5,-225 1124.5,-225 1124.5,-184 957.5,-184"/>
<text text-anchor="start" x="965.5" y="-213" font-family="Helvetica,sans-Serif" font-size="10.00" fill="#000000">/home/runner/work/AliceO2</text>
<text text-anchor="start" x="965.5" y="-202" font-family="Helvetica,sans-Serif" font-size="10.00" fill="#000000">/AliceO2/Detectors/PHOS</text>
<text text-anchor="middle" x="1041" y="-191" font-family="Helvetica,sans-Serif" font-size="10.00" fill="#000000">/workflow/src/ClusterizerSpec.cxx</text>
</a>
</g>
</g>
<!-- Node23&#45;&gt;Node24 -->
<g id="edge23" class="edge">
<title>Node23&#45;&gt;Node24</title>
<path fill="none" stroke="#191970" d="M1062.562,-257.8062C1058.0786,-246.722 1053.2879,-234.8785 1049.3638,-225.1771"/>
<polygon fill="#191970" stroke="#191970" points="1059.399,-259.3205 1066.3935,-267.2784 1065.8883,-256.6956 1059.399,-259.3205"/>
</g>
<!-- Node25 -->
<g id="node23" class="node">
<title>Node25</title>
<g id="a_node23"><a xlink:href="../../d8/d7e/PHOS_2workflow_2src_2RecoWorkflow_8cxx.html" target="_top" xlink:title="/home/runner/work/AliceO2\l/AliceO2/Detectors/PHOS\l/workflow/src/RecoWorkflow.cxx">
<polygon fill="none" stroke="#000000" points="1142.5,-184 1142.5,-225 1303.5,-225 1303.5,-184 1142.5,-184"/>
<text text-anchor="start" x="1150.5" y="-213" font-family="Helvetica,sans-Serif" font-size="10.00" fill="#000000">/home/runner/work/AliceO2</text>
<text text-anchor="start" x="1150.5" y="-202" font-family="Helvetica,sans-Serif" font-size="10.00" fill="#000000">/AliceO2/Detectors/PHOS</text>
<text text-anchor="middle" x="1223" y="-191" font-family="Helvetica,sans-Serif" font-size="10.00" fill="#000000">/workflow/src/RecoWorkflow.cxx</text>
</a>
</g>
</g>
<!-- Node23&#45;&gt;Node25 -->
<g id="edge24" class="edge">
<title>Node23&#45;&gt;Node25</title>
<path fill="none" stroke="#191970" d="M1128.7356,-261.9626C1148.7747,-249.7469 1171.1562,-236.1034 1189.0802,-225.1771"/>
<polygon fill="#191970" stroke="#191970" points="1126.732,-259.0848 1120.0152,-267.2784 1130.3755,-265.0619 1126.732,-259.0848"/>
</g>
<!-- Node26&#45;&gt;Node25 -->
<g id="edge27" class="edge">
<title>Node26&#45;&gt;Node25</title>
<path fill="none" stroke="#191970" d="M1215.9889,-346.9391C1212.2731,-338.3522 1208.9323,-329.0392 1207,-320 1199.9753,-287.1381 1208.7883,-248.3296 1215.8532,-225.1039"/>
<polygon fill="#191970" stroke="#191970" points="1212.9253,-348.654 1220.2883,-356.2722 1219.2832,-345.7251 1212.9253,-348.654"/>
</g>
<!-- Node27 -->
<g id="node25" class="node">
<title>Node27</title>
<g id="a_node25"><a xlink:href="../../d1/d69/PHOS_2workflow_2src_2CellConverterSpec_8cxx.html" target="_top" xlink:title="/home/runner/work/AliceO2\l/AliceO2/Detectors/PHOS\l/workflow/src/CellConverterSpec.cxx">
<polygon fill="none" stroke="#000000" points="1216.5,-273 1216.5,-314 1395.5,-314 1395.5,-273 1216.5,-273"/>
<text text-anchor="start" x="1224.5" y="-302" font-family="Helvetica,sans-Serif" font-size="10.00" fill="#000000">/home/runner/work/AliceO2</text>
<text text-anchor="start" x="1224.5" y="-291" font-family="Helvetica,sans-Serif" font-size="10.00" fill="#000000">/AliceO2/Detectors/PHOS</text>
<text text-anchor="middle" x="1306" y="-280" font-family="Helvetica,sans-Serif" font-size="10.00" fill="#000000">/workflow/src/CellConverterSpec.cxx</text>
</a>
</g>
</g>
<!-- Node26&#45;&gt;Node27 -->
<g id="edge26" class="edge">
<title>Node26&#45;&gt;Node27</title>
<path fill="none" stroke="#191970" d="M1262.4062,-348.1458C1271.551,-336.6825 1281.4528,-324.2705 1289.5048,-314.1771"/>
<polygon fill="#191970" stroke="#191970" points="1259.4186,-346.2785 1255.9183,-356.2784 1264.8906,-350.6439 1259.4186,-346.2785"/>
</g>
<!-- Node28&#45;&gt;Node25 -->
<g id="edge30" class="edge">
<title>Node28&#45;&gt;Node25</title>
<path fill="none" stroke="#191970" d="M1426.7732,-346.2144C1426.7112,-321.2093 1422.4604,-288.7009 1404,-267 1390.2679,-250.8574 1345.3171,-235.2912 1303.6506,-223.7314"/>
<polygon fill="#191970" stroke="#191970" points="1423.2699,-346.3511 1426.5724,-356.418 1430.2685,-346.4888 1423.2699,-346.3511"/>
</g>
<!-- Node29 -->
<g id="node27" class="node">
<title>Node29</title>
<g id="a_node27"><a xlink:href="../../d9/d48/PHOS_2workflow_2src_2RawToCellConverterSpec_8cxx.html" target="_top" xlink:title="/home/runner/work/AliceO2\l/AliceO2/Detectors/PHOS\l/workflow/src/RawToCellConverter\lSpec.cxx">
<polygon fill="none" stroke="#000000" points="1452,-267.5 1452,-319.5 1622,-319.5 1622,-267.5 1452,-267.5"/>
<text text-anchor="start" x="1460" y="-307.5" font-family="Helvetica,sans-Serif" font-size="10.00" fill="#000000">/home/runner/work/AliceO2</text>
<text text-anchor="start" x="1460" y="-296.5" font-family="Helvetica,sans-Serif" font-size="10.00" fill="#000000">/AliceO2/Detectors/PHOS</text>
<text text-anchor="start" x="1460" y="-285.5" font-family="Helvetica,sans-Serif" font-size="10.00" fill="#000000">/workflow/src/RawToCellConverter</text>
<text text-anchor="middle" x="1537" y="-274.5" font-family="Helvetica,sans-Serif" font-size="10.00" fill="#000000">Spec.cxx</text>
</a>
</g>
</g>
<!-- Node28&#45;&gt;Node29 -->
<g id="edge29" class="edge">
<title>Node28&#45;&gt;Node29</title>
<path fill="none" stroke="#191970" d="M1465.4403,-349.8612C1478.1234,-339.8718 1491.8987,-329.0222 1503.9454,-319.5341"/>
<polygon fill="#191970" stroke="#191970" points="1462.9829,-347.3414 1457.2925,-356.2784 1467.3141,-352.8406 1462.9829,-347.3414"/>
</g>
</g>
</svg>
        <g id="navigator" transform="translate(0 0)" fill="#404254">
                <rect fill="#f2f5e9" fill-opacity="0.5" stroke="#606060" stroke-width=".5" x="0" y="0" width="60" height="60"/>
                <use id="zoomplus" xlink:href="#zoomPlus" x="17" y="9" onmousedown="handleZoom(evt,'in')"/>
                <use id="zoomminus" xlink:href="#zoomMin" x="42" y="9" onmousedown="handleZoom(evt,'out')"/>
                <use id="reset" xlink:href="#resetDef" x="30" y="36" onmousedown="handleReset()"/>
                <g id="arrowUp" xlink:href="#dirArrow" transform="translate(30 24)" onmousedown="handlePan(0,-1)">
                  <use xlink:href="#rim" fill="#404040">
                        <set attributeName="fill" to="#808080" begin="arrowUp.mouseover" end="arrowUp.mouseout"/>
                  </use>
                  <path fill="none" stroke="white" stroke-width="1.5" d="M0,-3.0v7 M-2.5,-0.5L0,-3.0L2.5,-0.5"/>
                </g>
                <g id="arrowRight" xlink:href="#dirArrow" transform="rotate(90) translate(36 -43)" onmousedown="handlePan(1,0)">
                  <use xlink:href="#rim" fill="#404040">
                        <set attributeName="fill" to="#808080" begin="arrowRight.mouseover" end="arrowRight.mouseout"/>
                  </use>
                  <path fill="none" stroke="white" stroke-width="1.5" d="M0,-3.0v7 M-2.5,-0.5L0,-3.0L2.5,-0.5"/>
                </g>
                <g id="arrowDown" xlink:href="#dirArrow" transform="rotate(180) translate(-30 -48)" onmousedown="handlePan(0,1)">
                  <use xlink:href="#rim" fill="#404040">
                        <set attributeName="fill" to="#808080" begin="arrowDown.mouseover" end="arrowDown.mouseout"/>
                  </use>
                  <path fill="none" stroke="white" stroke-width="1.5" d="M0,-3.0v7 M-2.5,-0.5L0,-3.0L2.5,-0.5"/>
                </g>
                <g id="arrowLeft" xlink:href="#dirArrow" transform="rotate(270) translate(-36 17)" onmousedown="handlePan(-1,0)">
                  <use xlink:href="#rim" fill="#404040">
                        <set attributeName="fill" to="#808080" begin="arrowLeft.mouseover" end="arrowLeft.mouseout"/>
                  </use>
                  <path fill="none" stroke="white" stroke-width="1.5" d="M0,-3.0v7 M-2.5,-0.5L0,-3.0L2.5,-0.5"/>
                </g>
        </g>
        <svg viewBox="0 0 15 15" width="100%" height="30px" preserveAspectRatio="xMaxYMin meet">
         <g id="arrow_out" transform="scale(0.3 0.3)">
          <a xlink:href="DataFormats_2Detectors_2PHOS_2include_2DataFormatsPHOS_2Cell_8h__dep__incl_org.svg" target="_base">
           <rect id="button" ry="5" rx="5" y="6" x="6" height="38" width="38"
                fill="#f2f5e9" fill-opacity="0.5" stroke="#606060" stroke-width="1.0"/>
           <path id="arrow"
             d="M 11.500037,31.436501 C 11.940474,20.09759 22.043105,11.32322 32.158766,21.979434 L 37.068811,17.246167 C 37.068811,17.246167 37.088388,32 37.088388,32 L 22.160133,31.978069 C 22.160133,31.978069 26.997745,27.140456 26.997745,27.140456 C 18.528582,18.264221 13.291696,25.230495 11.500037,31.436501 z"
             style="fill:#404040;"/>
          </a>
         </g>
        </svg>
</svg>
