<?xml version="1.0" encoding="UTF-8" standalone="no"?>
<!DOCTYPE svg PUBLIC "-//W3C//DTD SVG 1.1//EN"
 "http://www.w3.org/Graphics/SVG/1.1/DTD/svg11.dtd">
<!-- Generated by graphviz version 2.40.1 (20161225.0304)
 -->
<!-- Title: GPUCA_NAMESPACE::gpu::GPUTPCCFChainContext::FragmentData Pages: 1 -->
<svg width="365pt" height="353pt"
 viewBox="0.00 0.00 364.50 353.00" xmlns="http://www.w3.org/2000/svg" xmlns:xlink="http://www.w3.org/1999/xlink">
<g id="graph0" class="graph" transform="scale(1 1) rotate(0) translate(4 349)">
<title>GPUCA_NAMESPACE::gpu::GPUTPCCFChainContext::FragmentData</title>
<!-- Node1 -->
<g id="node1" class="node">
<title>Node1</title>
<polygon fill="#bfbfbf" stroke="#000000" points="70.5,-.5 70.5,-79.5 213.5,-79.5 213.5,-.5 70.5,-.5"/>
<text text-anchor="start" x="78.5" y="-67.5" font-family="Helvetica,sans-Serif" font-size="10.00" fill="#000000">GPUCA_NAMESPACE::gpu</text>
<text text-anchor="start" x="78.5" y="-56.5" font-family="Helvetica,sans-Serif" font-size="10.00" fill="#000000">::GPUTPCCFChainContext</text>
<text text-anchor="middle" x="142" y="-45.5" font-family="Helvetica,sans-Serif" font-size="10.00" fill="#000000">::FragmentData</text>
<polyline fill="none" stroke="#000000" points="70.5,-38.5 213.5,-38.5 "/>
<text text-anchor="middle" x="142" y="-26.5" font-family="Helvetica,sans-Serif" font-size="10.00" fill="#000000"> </text>
<polyline fill="none" stroke="#000000" points="70.5,-19.5 213.5,-19.5 "/>
<text text-anchor="middle" x="142" y="-7.5" font-family="Helvetica,sans-Serif" font-size="10.00" fill="#000000"> </text>
</g>
<!-- Node2 -->
<g id="node2" class="node">
<title>Node2</title>
<g id="a_node2"><a xlink:href="../../dc/dc6/structGPUCA__NAMESPACE_1_1gpu_1_1GPUTPCClusterFinder_1_1MinMaxCN.html" target="_top" xlink:title="{GPUCA_NAMESPACE::gpu\l::GPUTPCClusterFinder\l::MinMaxCN\n||}">
<polygon fill="none" stroke="#000000" points="70.5,-127.5 70.5,-206.5 213.5,-206.5 213.5,-127.5 70.5,-127.5"/>
<text text-anchor="start" x="78.5" y="-194.5" font-family="Helvetica,sans-Serif" font-size="10.00" fill="#000000">GPUCA_NAMESPACE::gpu</text>
<text text-anchor="start" x="78.5" y="-183.5" font-family="Helvetica,sans-Serif" font-size="10.00" fill="#000000">::GPUTPCClusterFinder</text>
<text text-anchor="middle" x="142" y="-172.5" font-family="Helvetica,sans-Serif" font-size="10.00" fill="#000000">::MinMaxCN</text>
<polyline fill="none" stroke="#000000" points="70.5,-165.5 213.5,-165.5 "/>
<text text-anchor="middle" x="142" y="-153.5" font-family="Helvetica,sans-Serif" font-size="10.00" fill="#000000"> </text>
<polyline fill="none" stroke="#000000" points="70.5,-146.5 213.5,-146.5 "/>
<text text-anchor="middle" x="142" y="-134.5" font-family="Helvetica,sans-Serif" font-size="10.00" fill="#000000"> </text>
</a>
</g>
</g>
<!-- Node2&#45;&gt;Node1 -->
<g id="edge1" class="edge">
<title>Node2&#45;&gt;Node1</title>
<path fill="none" stroke="#404040" d="M142,-127.1649C142,-115.935 142,-103.5529 142,-91.7342"/>
<polygon fill="none" stroke="#404040" points="142.0001,-91.6938 138,-85.6938 142,-79.6938 146,-85.6938 142.0001,-91.6938"/>
<text text-anchor="middle" x="171.5" y="-101" font-family="Helvetica,sans-Serif" font-size="10.00" fill="#000000"> +minMaxCN</text>
</g>
<!-- Node3 -->
<g id="node3" class="node">
<title>Node3</title>
<polygon fill="none" stroke="#bfbfbf" points="0,-287.5 0,-344.5 56,-344.5 56,-287.5 0,-287.5"/>
<text text-anchor="middle" x="28" y="-332.5" font-family="Helvetica,sans-Serif" font-size="10.00" fill="#000000">unsigned</text>
<polyline fill="none" stroke="#bfbfbf" points="0,-325.5 56,-325.5 "/>
<text text-anchor="middle" x="28" y="-313.5" font-family="Helvetica,sans-Serif" font-size="10.00" fill="#000000"> </text>
<polyline fill="none" stroke="#bfbfbf" points="0,-306.5 56,-306.5 "/>
<text text-anchor="middle" x="28" y="-294.5" font-family="Helvetica,sans-Serif" font-size="10.00" fill="#000000"> </text>
</g>
<!-- Node3&#45;&gt;Node1 -->
<g id="edge4" class="edge">
<title>Node3&#45;&gt;Node1</title>
<path fill="none" stroke="#404040" d="M18.6529,-287.2307C7.8316,-248.4732 -5.3633,-178.4258 21,-127 30.0415,-109.3631 44.5059,-94.4915 60.3383,-82.3093"/>
<polygon fill="none" stroke="#404040" points="60.6165,-82.1079 63.131,-75.3494 70.3368,-75.071 67.8223,-81.8295 60.6165,-82.1079"/>
<text text-anchor="middle" x="41" y="-170" font-family="Helvetica,sans-Serif" font-size="10.00" fill="#000000"> +nDigits</text>
<text text-anchor="middle" x="41" y="-159" font-family="Helvetica,sans-Serif" font-size="10.00" fill="#000000">+nPages</text>
</g>
<!-- Node3&#45;&gt;Node2 -->
<g id="edge2" class="edge">
<title>Node3&#45;&gt;Node2</title>
<path fill="none" stroke="#404040" d="M49.9803,-287.2713C65.3226,-267.2186 86.1915,-239.9427 104.177,-216.4354"/>
<polygon fill="none" stroke="#404040" points="104.3922,-216.1541 104.8613,-208.9582 111.684,-206.6236 111.2149,-213.8194 104.3922,-216.1541"/>
<text text-anchor="middle" x="114" y="-261" font-family="Helvetica,sans-Serif" font-size="10.00" fill="#000000"> +maxN</text>
<text text-anchor="middle" x="114" y="-250" font-family="Helvetica,sans-Serif" font-size="10.00" fill="#000000">+minN</text>
<text text-anchor="middle" x="114" y="-239" font-family="Helvetica,sans-Serif" font-size="10.00" fill="#000000">+maxC</text>
<text text-anchor="middle" x="114" y="-228" font-family="Helvetica,sans-Serif" font-size="10.00" fill="#000000">+minC</text>
</g>
<!-- Node4 -->
<g id="node4" class="node">
<title>Node4</title>
<polygon fill="none" stroke="#bfbfbf" points="231.5,-138.5 231.5,-195.5 356.5,-195.5 356.5,-138.5 231.5,-138.5"/>
<text text-anchor="middle" x="294" y="-183.5" font-family="Helvetica,sans-Serif" font-size="10.00" fill="#000000">vector&lt; unsigned short &gt;</text>
<polyline fill="none" stroke="#bfbfbf" points="231.5,-176.5 356.5,-176.5 "/>
<text text-anchor="middle" x="294" y="-164.5" font-family="Helvetica,sans-Serif" font-size="10.00" fill="#000000"> </text>
<polyline fill="none" stroke="#bfbfbf" points="231.5,-157.5 356.5,-157.5 "/>
<text text-anchor="middle" x="294" y="-145.5" font-family="Helvetica,sans-Serif" font-size="10.00" fill="#000000"> </text>
</g>
<!-- Node4&#45;&gt;Node1 -->
<g id="edge3" class="edge">
<title>Node4&#45;&gt;Node1</title>
<path fill="none" stroke="#404040" d="M259.8882,-138.4987C241.899,-123.4683 219.3564,-104.6333 198.8147,-87.4701"/>
<polygon fill="none" stroke="#404040" points="198.7496,-87.4158 191.5805,-86.6383 189.5409,-79.7216 196.71,-80.4991 198.7496,-87.4158"/>
<text text-anchor="middle" x="250" y="-101" font-family="Helvetica,sans-Serif" font-size="10.00" fill="#000000"> +pageDigits</text>
</g>
</g>
</svg>
