<?xml version="1.0" encoding="UTF-8" standalone="no"?>
<!DOCTYPE svg PUBLIC "-//W3C//DTD SVG 1.1//EN"
 "http://www.w3.org/Graphics/SVG/1.1/DTD/svg11.dtd">
<!-- Generated by graphviz version 2.40.1 (20161225.0304)
 -->
<!-- Title: /home/runner/work/AliceO2/AliceO2/Detectors/FIT/FV0/simulation/src/digit2raw.cxx Pages: 1 -->
<svg width="3170pt" height="598pt"
 viewBox="0.00 0.00 3169.50 598.00" xmlns="http://www.w3.org/2000/svg" xmlns:xlink="http://www.w3.org/1999/xlink">
<g id="graph0" class="graph" transform="scale(1 1) rotate(0) translate(4 594)">
<title>/home/runner/work/AliceO2/AliceO2/Detectors/FIT/FV0/simulation/src/digit2raw.cxx</title>
<!-- Node0 -->
<g id="node1" class="node">
<title>Node0</title>
<polygon fill="#bfbfbf" stroke="#000000" points="724.5,-548.5 724.5,-589.5 886.5,-589.5 886.5,-548.5 724.5,-548.5"/>
<text text-anchor="start" x="732.5" y="-577.5" font-family="Helvetica,sans-Serif" font-size="10.00" fill="#000000">/home/runner/work/AliceO2</text>
<text text-anchor="start" x="732.5" y="-566.5" font-family="Helvetica,sans-Serif" font-size="10.00" fill="#000000">/AliceO2/Detectors/FIT</text>
<text text-anchor="middle" x="805.5" y="-555.5" font-family="Helvetica,sans-Serif" font-size="10.00" fill="#000000">/FV0/simulation/src/digit2raw.cxx</text>
</g>
<!-- Node1 -->
<g id="node2" class="node">
<title>Node1</title>
<polygon fill="none" stroke="#bfbfbf" points="271.5,-492.5 271.5,-511.5 405.5,-511.5 405.5,-492.5 271.5,-492.5"/>
<text text-anchor="middle" x="338.5" y="-499.5" font-family="Helvetica,sans-Serif" font-size="10.00" fill="#000000">boost/program_options.hpp</text>
</g>
<!-- Node0&#45;&gt;Node1 -->
<g id="edge1" class="edge">
<title>Node0&#45;&gt;Node1</title>
<path fill="none" stroke="#191970" d="M724.4215,-557.3678C637.4538,-544.8906 500.3867,-525.2257 415.1619,-512.9986"/>
<polygon fill="#191970" stroke="#191970" points="415.4283,-509.5011 405.0325,-511.5454 414.4341,-516.4301 415.4283,-509.5011"/>
</g>
<!-- Node2 -->
<g id="node3" class="node">
<title>Node2</title>
<polygon fill="none" stroke="#bfbfbf" points="424,-492.5 424,-511.5 489,-511.5 489,-492.5 424,-492.5"/>
<text text-anchor="middle" x="456.5" y="-499.5" font-family="Helvetica,sans-Serif" font-size="10.00" fill="#000000">TSystem.h</text>
</g>
<!-- Node0&#45;&gt;Node2 -->
<g id="edge2" class="edge">
<title>Node0&#45;&gt;Node2</title>
<path fill="none" stroke="#191970" d="M724.3282,-554.2049C663.4742,-542.9856 578.1765,-526.9895 503.5,-512 502.0431,-511.7076 500.5614,-511.4074 499.0653,-511.102"/>
<polygon fill="#191970" stroke="#191970" points="499.598,-507.6381 489.0959,-509.0371 498.1782,-514.4926 499.598,-507.6381"/>
</g>
<!-- Node3 -->
<g id="node4" class="node">
<title>Node3</title>
<polygon fill="none" stroke="#bfbfbf" points="1386,-241 1386,-260 1433,-260 1433,-241 1386,-241"/>
<text text-anchor="middle" x="1409.5" y="-248" font-family="Helvetica,sans-Serif" font-size="10.00" fill="#000000">TFile.h</text>
</g>
<!-- Node0&#45;&gt;Node3 -->
<g id="edge3" class="edge">
<title>Node0&#45;&gt;Node3</title>
<path fill="none" stroke="#191970" d="M795.4346,-548.4573C777.2984,-508.1452 745.1224,-418.3194 791.5,-369 880.7245,-274.1159 1270.9421,-409.299 1376.5,-333 1396.5661,-318.4959 1404.4425,-289.7503 1407.5266,-270.3218"/>
<polygon fill="#191970" stroke="#191970" points="1411.0321,-270.5039 1408.8445,-260.1374 1404.09,-269.6054 1411.0321,-270.5039"/>
</g>
<!-- Node4 -->
<g id="node5" class="node">
<title>Node4</title>
<polygon fill="none" stroke="#bfbfbf" points="910,-375 910,-394 987,-394 987,-375 910,-375"/>
<text text-anchor="middle" x="948.5" y="-382" font-family="Helvetica,sans-Serif" font-size="10.00" fill="#000000">TStopwatch.h</text>
</g>
<!-- Node0&#45;&gt;Node4 -->
<g id="edge4" class="edge">
<title>Node0&#45;&gt;Node4</title>
<path fill="none" stroke="#191970" d="M811.2148,-548.0256C819.7099,-519.9252 837.9233,-469.6991 867.5,-436 881.2834,-420.2955 900.9972,-407.6199 917.5251,-398.7738"/>
<polygon fill="#191970" stroke="#191970" points="919.5141,-401.6875 926.8194,-394.0139 916.3233,-395.457 919.5141,-401.6875"/>
</g>
<!-- Node5 -->
<g id="node6" class="node">
<title>Node5</title>
<polygon fill="none" stroke="#bfbfbf" points="522,-112.5 522,-131.5 563,-131.5 563,-112.5 522,-112.5"/>
<text text-anchor="middle" x="542.5" y="-119.5" font-family="Helvetica,sans-Serif" font-size="10.00" fill="#000000">string</text>
</g>
<!-- Node0&#45;&gt;Node5 -->
<g id="edge5" class="edge">
<title>Node0&#45;&gt;Node5</title>
<path fill="none" stroke="#191970" d="M790.9192,-548.2821C784.2712,-537.8566 776.915,-524.7501 772.5,-512 764.2735,-488.2424 766.6224,-481.0518 764.5,-456 760.3525,-407.0462 790.7477,-272.0643 758.5,-235 694.9055,-161.9069 606.5755,-272.5414 543.5,-199 530.1486,-183.4333 532.4388,-158.8748 536.4192,-141.6899"/>
<polygon fill="#191970" stroke="#191970" points="539.9075,-142.1967 539.1316,-131.6303 533.1489,-140.3743 539.9075,-142.1967"/>
</g>
<!-- Node6 -->
<g id="node7" class="node">
<title>Node6</title>
<polygon fill="none" stroke="#bfbfbf" points="3045.5,-241 3045.5,-260 3095.5,-260 3095.5,-241 3045.5,-241"/>
<text text-anchor="middle" x="3070.5" y="-248" font-family="Helvetica,sans-Serif" font-size="10.00" fill="#000000">iomanip</text>
</g>
<!-- Node0&#45;&gt;Node6 -->
<g id="edge6" class="edge">
<title>Node0&#45;&gt;Node6</title>
<path fill="none" stroke="#191970" d="M886.6424,-568.2033C1212.3206,-564.7711 2425.3505,-549.6789 2807.5,-512 2966.7721,-496.2962 3161.5,-606.0444 3161.5,-446 3161.5,-446 3161.5,-446 3161.5,-384.5 3161.5,-334.5496 3117.6904,-289.4043 3090.8655,-266.4434"/>
<polygon fill="#191970" stroke="#191970" points="3093.0853,-263.7373 3083.1532,-260.049 3088.6175,-269.126 3093.0853,-263.7373"/>
</g>
<!-- Node7 -->
<g id="node8" class="node">
<title>Node7</title>
<g id="a_node8"><a xlink:href="../../dd/da4/Logger_8h.html" target="_top" xlink:title="Framework/Logger.h">
<polygon fill="none" stroke="#000000" points="2921.5,-241 2921.5,-260 3027.5,-260 3027.5,-241 2921.5,-241"/>
<text text-anchor="middle" x="2974.5" y="-248" font-family="Helvetica,sans-Serif" font-size="10.00" fill="#000000">Framework/Logger.h</text>
</a>
</g>
</g>
<!-- Node0&#45;&gt;Node7 -->
<g id="edge7" class="edge">
<title>Node0&#45;&gt;Node7</title>
<path fill="none" stroke="#191970" d="M886.7372,-568.7898C1284.2678,-567.2399 3005.5,-554.277 3005.5,-446 3005.5,-446 3005.5,-446 3005.5,-384.5 3005.5,-342.713 2991.0137,-295.4384 2981.8466,-269.7059"/>
<polygon fill="#191970" stroke="#191970" points="2985.0405,-268.2505 2978.3012,-260.0753 2978.4715,-270.6688 2985.0405,-268.2505"/>
</g>
<!-- Node9 -->
<g id="node10" class="node">
<title>Node9</title>
<polygon fill="none" stroke="#bfbfbf" points="910,-436.5 910,-455.5 981,-455.5 981,-436.5 910,-436.5"/>
<text text-anchor="middle" x="945.5" y="-443.5" font-family="Helvetica,sans-Serif" font-size="10.00" fill="#000000">FairLogger.h</text>
</g>
<!-- Node0&#45;&gt;Node9 -->
<g id="edge9" class="edge">
<title>Node0&#45;&gt;Node9</title>
<path fill="none" stroke="#191970" d="M844.4201,-548.4933C861.1197,-538.6841 880.2522,-526.0212 895.5,-512 910.8034,-497.9276 924.7737,-478.6909 934.0329,-464.6162"/>
<polygon fill="#191970" stroke="#191970" points="937.2156,-466.1355 939.649,-455.8239 931.3163,-462.3674 937.2156,-466.1355"/>
</g>
<!-- Node10 -->
<g id="node11" class="node">
<title>Node10</title>
<g id="a_node11"><a xlink:href="../../d1/d1e/Common_2Utils_2include_2CommonUtils_2StringUtils_8h.html" target="_top" xlink:title="CommonUtils/StringUtils.h">
<polygon fill="none" stroke="#000000" points="330.5,-308 330.5,-327 464.5,-327 464.5,-308 330.5,-308"/>
<text text-anchor="middle" x="397.5" y="-315" font-family="Helvetica,sans-Serif" font-size="10.00" fill="#000000">CommonUtils/StringUtils.h</text>
</a>
</g>
</g>
<!-- Node0&#45;&gt;Node10 -->
<g id="edge10" class="edge">
<title>Node0&#45;&gt;Node10</title>
<path fill="none" stroke="#191970" d="M761.9507,-548.4966C740.6964,-538.1219 714.9353,-524.9962 692.5,-512 587.0286,-450.9031 467.5699,-367.4784 419.3733,-333.1907"/>
<polygon fill="#191970" stroke="#191970" points="421.1389,-330.1509 410.9654,-327.1927 417.0736,-335.8495 421.1389,-330.1509"/>
</g>
<!-- Node12 -->
<g id="node13" class="node">
<title>Node12</title>
<g id="a_node13"><a xlink:href="../../db/d2c/ConfigurableParam_8h.html" target="_top" xlink:title="CommonUtils/Configurable\lParam.h">
<polygon fill="none" stroke="#000000" points="1677.5,-235.5 1677.5,-265.5 1811.5,-265.5 1811.5,-235.5 1677.5,-235.5"/>
<text text-anchor="start" x="1685.5" y="-253.5" font-family="Helvetica,sans-Serif" font-size="10.00" fill="#000000">CommonUtils/Configurable</text>
<text text-anchor="middle" x="1744.5" y="-242.5" font-family="Helvetica,sans-Serif" font-size="10.00" fill="#000000">Param.h</text>
</a>
</g>
</g>
<!-- Node0&#45;&gt;Node12 -->
<g id="edge12" class="edge">
<title>Node0&#45;&gt;Node12</title>
<path fill="none" stroke="#191970" d="M807.6393,-548.2865C813.4375,-504.6279 833.8923,-404.2812 901.5,-369 1040.1793,-296.6299 1454.6872,-378.0055 1604.5,-333 1616.0063,-329.5434 1674.1869,-294.1588 1711.8325,-270.8668"/>
<polygon fill="#191970" stroke="#191970" points="1713.8009,-273.7646 1720.456,-265.5208 1710.1125,-267.8151 1713.8009,-273.7646"/>
</g>
<!-- Node19 -->
<g id="node20" class="node">
<title>Node19</title>
<g id="a_node20"><a xlink:href="../../d7/d61/NameConf_8h.html" target="_top" xlink:title="Definition of the Names Generator class. ">
<polygon fill="none" stroke="#000000" points="545.5,-369.5 545.5,-399.5 701.5,-399.5 701.5,-369.5 545.5,-369.5"/>
<text text-anchor="start" x="553.5" y="-387.5" font-family="Helvetica,sans-Serif" font-size="10.00" fill="#000000">DetectorsCommonDataFormats</text>
<text text-anchor="middle" x="623.5" y="-376.5" font-family="Helvetica,sans-Serif" font-size="10.00" fill="#000000">/NameConf.h</text>
</a>
</g>
</g>
<!-- Node0&#45;&gt;Node19 -->
<g id="edge19" class="edge">
<title>Node0&#45;&gt;Node19</title>
<path fill="none" stroke="#191970" d="M765.9754,-548.3982C749.3546,-538.656 730.4489,-526.071 715.5,-512 682.2516,-480.7042 653.173,-435.8691 637.0109,-408.551"/>
<polygon fill="#191970" stroke="#191970" points="639.8993,-406.5554 631.8472,-399.6696 633.8478,-410.0739 639.8993,-406.5554"/>
</g>
<!-- Node47 -->
<g id="node48" class="node">
<title>Node47</title>
<g id="a_node48"><a xlink:href="../../d1/dec/HBFUtils_8h.html" target="_top" xlink:title="DetectorsRaw/HBFUtils.h">
<polygon fill="none" stroke="#000000" points="1596,-375 1596,-394 1727,-394 1727,-375 1596,-375"/>
<text text-anchor="middle" x="1661.5" y="-382" font-family="Helvetica,sans-Serif" font-size="10.00" fill="#000000">DetectorsRaw/HBFUtils.h</text>
</a>
</g>
</g>
<!-- Node0&#45;&gt;Node47 -->
<g id="edge59" class="edge">
<title>Node0&#45;&gt;Node47</title>
<path fill="none" stroke="#191970" d="M818.994,-548.3465C842.5206,-512.6463 889.6725,-442.5635 901.5,-436 901.5,-436 1393.331,-402.672 1585.6823,-389.6376"/>
<polygon fill="#191970" stroke="#191970" points="1585.9747,-393.126 1595.7151,-388.9578 1585.5013,-386.142 1585.9747,-393.126"/>
</g>
<!-- Node59 -->
<g id="node60" class="node">
<title>Node59</title>
<g id="a_node60"><a xlink:href="../../d6/dc1/FV0_2simulation_2include_2FV0Simulation_2Digits2Raw_8h.html" target="_top" xlink:title="FV0Simulation/Digits2Raw.h">
<polygon fill="none" stroke="#000000" points="1853,-492.5 1853,-511.5 1996,-511.5 1996,-492.5 1853,-492.5"/>
<text text-anchor="middle" x="1924.5" y="-499.5" font-family="Helvetica,sans-Serif" font-size="10.00" fill="#000000">FV0Simulation/Digits2Raw.h</text>
</a>
</g>
</g>
<!-- Node0&#45;&gt;Node59 -->
<g id="edge90" class="edge">
<title>Node0&#45;&gt;Node59</title>
<path fill="none" stroke="#191970" d="M886.8771,-564.1276C1093.3653,-551.7641 1635.9148,-519.279 1842.7774,-506.8931"/>
<polygon fill="#191970" stroke="#191970" points="1843.1909,-510.3747 1852.9638,-506.2832 1842.7724,-503.3873 1843.1909,-510.3747"/>
</g>
<!-- Node8 -->
<g id="node9" class="node">
<title>Node8</title>
<polygon fill="none" stroke="#bfbfbf" points="2926,-174 2926,-193 3023,-193 3023,-174 2926,-174"/>
<text text-anchor="middle" x="2974.5" y="-181" font-family="Helvetica,sans-Serif" font-size="10.00" fill="#000000">fairlogger/Logger.h</text>
</g>
<!-- Node7&#45;&gt;Node8 -->
<g id="edge8" class="edge">
<title>Node7&#45;&gt;Node8</title>
<path fill="none" stroke="#191970" d="M2974.5,-240.9005C2974.5,-231.149 2974.5,-215.7597 2974.5,-203.3695"/>
<polygon fill="#191970" stroke="#191970" points="2978.0001,-203.0816 2974.5,-193.0817 2971.0001,-203.0817 2978.0001,-203.0816"/>
</g>
<!-- Node11 -->
<g id="node12" class="node">
<title>Node11</title>
<polygon fill="none" stroke="#bfbfbf" points="179.5,-241 179.5,-260 231.5,-260 231.5,-241 179.5,-241"/>
<text text-anchor="middle" x="205.5" y="-248" font-family="Helvetica,sans-Serif" font-size="10.00" fill="#000000">sstream</text>
</g>
<!-- Node10&#45;&gt;Node11 -->
<g id="edge11" class="edge">
<title>Node10&#45;&gt;Node11</title>
<path fill="none" stroke="#191970" d="M365.2972,-307.9693C333.3273,-298.2666 283.0744,-282.363 240.5,-266 238.8794,-265.3771 237.2251,-264.72 235.5608,-264.042"/>
<polygon fill="#191970" stroke="#191970" points="236.6581,-260.7058 226.0852,-260.0255 233.9262,-267.1507 236.6581,-260.7058"/>
</g>
<!-- Node13 -->
<g id="node14" class="node">
<title>Node13</title>
<polygon fill="none" stroke="#bfbfbf" points="2601.5,-112.5 2601.5,-131.5 2645.5,-131.5 2645.5,-112.5 2601.5,-112.5"/>
<text text-anchor="middle" x="2623.5" y="-119.5" font-family="Helvetica,sans-Serif" font-size="10.00" fill="#000000">vector</text>
</g>
<!-- Node12&#45;&gt;Node13 -->
<g id="edge13" class="edge">
<title>Node12&#45;&gt;Node13</title>
<path fill="none" stroke="#191970" d="M1776.5029,-235.3515C1819.0503,-215.9908 1897.0821,-183.1691 1967.5,-168 2028.7113,-154.8141 2466.7537,-130.4469 2590.8261,-123.7452"/>
<polygon fill="#191970" stroke="#191970" points="2591.3857,-127.2202 2601.183,-123.1874 2591.0092,-120.2303 2591.3857,-127.2202"/>
</g>
<!-- Node14 -->
<g id="node15" class="node">
<title>Node14</title>
<polygon fill="none" stroke="#bfbfbf" points="1357,-174 1357,-193 1392,-193 1392,-174 1357,-174"/>
<text text-anchor="middle" x="1374.5" y="-181" font-family="Helvetica,sans-Serif" font-size="10.00" fill="#000000">map</text>
</g>
<!-- Node12&#45;&gt;Node14 -->
<g id="edge14" class="edge">
<title>Node12&#45;&gt;Node14</title>
<path fill="none" stroke="#191970" d="M1677.3379,-237.528C1672.657,-236.6608 1668.0094,-235.8106 1663.5,-235 1568.5741,-217.9354 1544.2977,-216.7631 1449.5,-199 1433.7749,-196.0534 1416.2626,-192.4524 1402.1174,-189.4632"/>
<polygon fill="#191970" stroke="#191970" points="1402.5519,-185.9773 1392.0422,-187.3175 1401.0938,-192.8237 1402.5519,-185.9773"/>
</g>
<!-- Node15 -->
<g id="node16" class="node">
<title>Node15</title>
<polygon fill="none" stroke="#bfbfbf" points="1458,-174 1458,-193 1541,-193 1541,-174 1458,-174"/>
<text text-anchor="middle" x="1499.5" y="-181" font-family="Helvetica,sans-Serif" font-size="10.00" fill="#000000">unordered_map</text>
</g>
<!-- Node12&#45;&gt;Node15 -->
<g id="edge15" class="edge">
<title>Node12&#45;&gt;Node15</title>
<path fill="none" stroke="#191970" d="M1685.7741,-235.4906C1647.2222,-225.4946 1595.7469,-211.8771 1550.5,-199 1547.1039,-198.0335 1543.5871,-197.0107 1540.0612,-195.97"/>
<polygon fill="#191970" stroke="#191970" points="1540.7758,-192.5307 1530.1924,-193.0211 1538.7717,-199.2377 1540.7758,-192.5307"/>
</g>
<!-- Node16 -->
<g id="node17" class="node">
<title>Node16</title>
<polygon fill="none" stroke="#bfbfbf" points="1628,-168.5 1628,-198.5 1729,-198.5 1729,-168.5 1628,-168.5"/>
<text text-anchor="start" x="1636" y="-186.5" font-family="Helvetica,sans-Serif" font-size="10.00" fill="#000000">boost/property_tree</text>
<text text-anchor="middle" x="1678.5" y="-175.5" font-family="Helvetica,sans-Serif" font-size="10.00" fill="#000000">/ptree.hpp</text>
</g>
<!-- Node12&#45;&gt;Node16 -->
<g id="edge16" class="edge">
<title>Node12&#45;&gt;Node16</title>
<path fill="none" stroke="#191970" d="M1729.5236,-235.2967C1721.0007,-226.6446 1710.164,-215.6438 1700.6717,-206.0076"/>
<polygon fill="#191970" stroke="#191970" points="1702.9283,-203.311 1693.4172,-198.6432 1697.9415,-208.2234 1702.9283,-203.311"/>
</g>
<!-- Node17 -->
<g id="node18" class="node">
<title>Node17</title>
<polygon fill="none" stroke="#bfbfbf" points="1559,-174 1559,-193 1610,-193 1610,-174 1559,-174"/>
<text text-anchor="middle" x="1584.5" y="-181" font-family="Helvetica,sans-Serif" font-size="10.00" fill="#000000">typeinfo</text>
</g>
<!-- Node12&#45;&gt;Node17 -->
<g id="edge17" class="edge">
<title>Node12&#45;&gt;Node17</title>
<path fill="none" stroke="#191970" d="M1707.2005,-235.4295C1682.2965,-225.2944 1648.8528,-211.5437 1619.5,-199 1618.125,-198.4124 1616.7214,-197.8084 1615.3047,-197.1953"/>
<polygon fill="#191970" stroke="#191970" points="1616.4973,-193.8969 1605.9327,-193.0974 1613.6929,-200.3106 1616.4973,-193.8969"/>
</g>
<!-- Node18 -->
<g id="node19" class="node">
<title>Node18</title>
<polygon fill="none" stroke="#bfbfbf" points="2610.5,-174 2610.5,-193 2664.5,-193 2664.5,-174 2610.5,-174"/>
<text text-anchor="middle" x="2637.5" y="-181" font-family="Helvetica,sans-Serif" font-size="10.00" fill="#000000">iostream</text>
</g>
<!-- Node12&#45;&gt;Node18 -->
<g id="edge18" class="edge">
<title>Node12&#45;&gt;Node18</title>
<path fill="none" stroke="#191970" d="M1811.669,-244.9213C1848.2717,-241.9135 1894.3693,-238.1776 1935.5,-235 2189.6406,-215.3662 2495.6849,-193.5373 2600.3317,-186.1249"/>
<polygon fill="#191970" stroke="#191970" points="2600.6628,-189.6103 2610.3907,-185.4129 2600.1685,-182.6278 2600.6628,-189.6103"/>
</g>
<!-- Node19&#45;&gt;Node10 -->
<g id="edge57" class="edge">
<title>Node19&#45;&gt;Node10</title>
<path fill="none" stroke="#191970" d="M572.7812,-369.4639C532.5213,-357.5284 476.9224,-341.0456 439.2182,-329.8678"/>
<polygon fill="#191970" stroke="#191970" points="440.145,-326.492 429.5626,-327.0053 438.1553,-333.2033 440.145,-326.492"/>
</g>
<!-- Node20 -->
<g id="node21" class="node">
<title>Node20</title>
<g id="a_node21"><a xlink:href="../../d6/d31/DetID_8h.html" target="_top" xlink:title="DetectorsCommonDataFormats\l/DetID.h">
<polygon fill="none" stroke="#000000" points="482.5,-302.5 482.5,-332.5 638.5,-332.5 638.5,-302.5 482.5,-302.5"/>
<text text-anchor="start" x="490.5" y="-320.5" font-family="Helvetica,sans-Serif" font-size="10.00" fill="#000000">DetectorsCommonDataFormats</text>
<text text-anchor="middle" x="560.5" y="-309.5" font-family="Helvetica,sans-Serif" font-size="10.00" fill="#000000">/DetID.h</text>
</a>
</g>
</g>
<!-- Node19&#45;&gt;Node20 -->
<g id="edge20" class="edge">
<title>Node19&#45;&gt;Node20</title>
<path fill="none" stroke="#191970" d="M609.2043,-369.2967C601.0688,-360.6446 590.7248,-349.6438 581.6639,-340.0076"/>
<polygon fill="#191970" stroke="#191970" points="584.1392,-337.5308 574.7391,-332.6432 579.0396,-342.326 584.1392,-337.5308"/>
</g>
<!-- Node26 -->
<g id="node27" class="node">
<title>Node26</title>
<polygon fill="none" stroke="#bfbfbf" points="683.5,-241 683.5,-260 749.5,-260 749.5,-241 683.5,-241"/>
<text text-anchor="middle" x="716.5" y="-248" font-family="Helvetica,sans-Serif" font-size="10.00" fill="#000000">string_view</text>
</g>
<!-- Node19&#45;&gt;Node26 -->
<g id="edge58" class="edge">
<title>Node19&#45;&gt;Node26</title>
<path fill="none" stroke="#191970" d="M633.9875,-369.389C651.2399,-344.5307 685.5335,-295.1184 704.0118,-268.4937"/>
<polygon fill="#191970" stroke="#191970" points="707.0081,-270.3151 709.8344,-260.1042 701.2574,-266.3239 707.0081,-270.3151"/>
</g>
<!-- Node20&#45;&gt;Node5 -->
<g id="edge27" class="edge">
<title>Node20&#45;&gt;Node5</title>
<path fill="none" stroke="#191970" d="M494.9104,-302.4468C460.5497,-293.0921 423.5513,-280.1717 413.5,-266 376.9099,-214.4104 464.0813,-160.7474 512.6417,-136.0156"/>
<polygon fill="#191970" stroke="#191970" points="514.3965,-139.0518 521.7909,-131.4641 511.2786,-132.7845 514.3965,-139.0518"/>
</g>
<!-- Node21 -->
<g id="node22" class="node">
<title>Node21</title>
<polygon fill="none" stroke="#bfbfbf" points="2348.5,-112.5 2348.5,-131.5 2404.5,-131.5 2404.5,-112.5 2348.5,-112.5"/>
<text text-anchor="middle" x="2376.5" y="-119.5" font-family="Helvetica,sans-Serif" font-size="10.00" fill="#000000">Rtypes.h</text>
</g>
<!-- Node20&#45;&gt;Node21 -->
<g id="edge21" class="edge">
<title>Node20&#45;&gt;Node21</title>
<path fill="none" stroke="#191970" d="M572.9602,-302.4482C592.2718,-279.2039 627.6244,-237.0187 631.5,-235 773.3278,-161.127 839.9747,-255.6967 989.5,-199 1011.5293,-190.647 1010.2023,-175.6075 1032.5,-168 1147.3961,-128.7998 2003.1808,-136.4068 2124.5,-132 2200.1181,-129.2532 2288.4835,-125.6577 2337.9243,-123.6112"/>
<polygon fill="#191970" stroke="#191970" points="2338.312,-127.0982 2348.1583,-123.1867 2338.0218,-120.1042 2338.312,-127.0982"/>
</g>
<!-- Node22 -->
<g id="node23" class="node">
<title>Node22</title>
<polygon fill="none" stroke="#bfbfbf" points="2077.5,-112.5 2077.5,-131.5 2115.5,-131.5 2115.5,-112.5 2077.5,-112.5"/>
<text text-anchor="middle" x="2096.5" y="-119.5" font-family="Helvetica,sans-Serif" font-size="10.00" fill="#000000">array</text>
</g>
<!-- Node20&#45;&gt;Node22 -->
<g id="edge22" class="edge">
<title>Node20&#45;&gt;Node22</title>
<path fill="none" stroke="#191970" d="M563.7528,-302.3888C568.7408,-283.2276 580.2503,-250.7887 603.5,-235 668.0002,-191.1984 879.2038,-225.5805 952.5,-199 975.6767,-190.5951 975.0781,-175.6952 998.5,-168 1050.6566,-150.8641 1896.8187,-127.3515 2066.8711,-122.7856"/>
<polygon fill="#191970" stroke="#191970" points="2067.176,-126.2788 2077.0788,-122.5125 2066.9888,-119.2813 2067.176,-126.2788"/>
</g>
<!-- Node23 -->
<g id="node24" class="node">
<title>Node23</title>
<polygon fill="none" stroke="#bfbfbf" points="434,-241 434,-260 475,-260 475,-241 434,-241"/>
<text text-anchor="middle" x="454.5" y="-248" font-family="Helvetica,sans-Serif" font-size="10.00" fill="#000000">bitset</text>
</g>
<!-- Node20&#45;&gt;Node23 -->
<g id="edge23" class="edge">
<title>Node20&#45;&gt;Node23</title>
<path fill="none" stroke="#191970" d="M536.7115,-302.4639C519.2465,-291.4247 495.6271,-276.4954 478.1862,-265.4715"/>
<polygon fill="#191970" stroke="#191970" points="480.0173,-262.4883 469.6943,-260.1039 476.2772,-268.4054 480.0173,-262.4883"/>
</g>
<!-- Node24 -->
<g id="node25" class="node">
<title>Node24</title>
<polygon fill="none" stroke="#bfbfbf" points="1048,-112.5 1048,-131.5 1097,-131.5 1097,-112.5 1048,-112.5"/>
<text text-anchor="middle" x="1072.5" y="-119.5" font-family="Helvetica,sans-Serif" font-size="10.00" fill="#000000">cassert</text>
</g>
<!-- Node20&#45;&gt;Node24 -->
<g id="edge24" class="edge">
<title>Node20&#45;&gt;Node24</title>
<path fill="none" stroke="#191970" d="M545.8423,-302.3043C530.4757,-284.5148 510.7189,-254.9514 527.5,-235 587.6078,-163.5364 649.0739,-236.7144 734.5,-199 755.0757,-189.9161 753.759,-176.6999 774.5,-168 881.1106,-123.2815 921.1679,-155.446 1037.73,-132.0695"/>
<polygon fill="#191970" stroke="#191970" points="1038.6795,-135.4465 1047.7451,-129.9634 1037.2389,-128.5963 1038.6795,-135.4465"/>
</g>
<!-- Node25 -->
<g id="node26" class="node">
<title>Node25</title>
<polygon fill="none" stroke="#bfbfbf" points="1115.5,-112.5 1115.5,-131.5 1161.5,-131.5 1161.5,-112.5 1115.5,-112.5"/>
<text text-anchor="middle" x="1138.5" y="-119.5" font-family="Helvetica,sans-Serif" font-size="10.00" fill="#000000">cstdint</text>
</g>
<!-- Node20&#45;&gt;Node25 -->
<g id="edge25" class="edge">
<title>Node20&#45;&gt;Node25</title>
<path fill="none" stroke="#191970" d="M556.2426,-302.4341C552.0296,-283.9291 548.413,-252.8092 565.5,-235 619.9376,-178.2615 844.0014,-226.9404 917.5,-199 939.5222,-190.6283 939.1165,-177.8897 960.5,-168 1018.3157,-141.2607 1040.0771,-149.119 1105.4992,-132.0806"/>
<polygon fill="#191970" stroke="#191970" points="1106.7401,-135.3707 1115.478,-129.379 1104.9108,-128.614 1106.7401,-135.3707"/>
</g>
<!-- Node20&#45;&gt;Node26 -->
<g id="edge26" class="edge">
<title>Node20&#45;&gt;Node26</title>
<path fill="none" stroke="#191970" d="M595.5094,-302.4639C622.2738,-290.969 658.8589,-275.2561 684.7723,-264.1266"/>
<polygon fill="#191970" stroke="#191970" points="686.3315,-267.2662 694.1386,-260.1039 683.569,-260.8343 686.3315,-267.2662"/>
</g>
<!-- Node27 -->
<g id="node28" class="node">
<title>Node27</title>
<polygon fill="none" stroke="#bfbfbf" points="1276.5,-174 1276.5,-193 1338.5,-193 1338.5,-174 1276.5,-174"/>
<text text-anchor="middle" x="1307.5" y="-181" font-family="Helvetica,sans-Serif" font-size="10.00" fill="#000000">type_traits</text>
</g>
<!-- Node20&#45;&gt;Node27 -->
<g id="edge28" class="edge">
<title>Node20&#45;&gt;Node27</title>
<path fill="none" stroke="#191970" d="M581.2596,-302.4225C613.9552,-278.6836 673.8325,-235.2421 674.5,-235 782.7643,-195.7278 1076.9219,-210.6324 1191.5,-199 1216.2795,-196.4843 1243.9262,-192.8238 1266.0123,-189.6916"/>
<polygon fill="#191970" stroke="#191970" points="1266.6528,-193.1357 1276.0539,-188.2499 1265.6579,-186.2067 1266.6528,-193.1357"/>
</g>
<!-- Node28 -->
<g id="node29" class="node">
<title>Node28</title>
<g id="a_node29"><a xlink:href="../../d9/d52/Common_2MathUtils_2include_2MathUtils_2Utils_8h.html" target="_top" xlink:title="MathUtils/Utils.h">
<polygon fill="none" stroke="#000000" points="249.5,-241 249.5,-260 339.5,-260 339.5,-241 249.5,-241"/>
<text text-anchor="middle" x="294.5" y="-248" font-family="Helvetica,sans-Serif" font-size="10.00" fill="#000000">MathUtils/Utils.h</text>
</a>
</g>
</g>
<!-- Node20&#45;&gt;Node28 -->
<g id="edge29" class="edge">
<title>Node20&#45;&gt;Node28</title>
<path fill="none" stroke="#191970" d="M499.3086,-302.4985C458.073,-292.3346 402.4739,-278.5246 353.5,-266 349.1698,-264.8926 344.6638,-263.7291 340.1577,-262.558"/>
<polygon fill="#191970" stroke="#191970" points="340.9209,-259.14 330.3611,-260.0012 339.1532,-265.9131 340.9209,-259.14"/>
</g>
<!-- Node40 -->
<g id="node41" class="node">
<title>Node40</title>
<g id="a_node41"><a xlink:href="../../dc/dcd/DataHeader_8h.html" target="_top" xlink:title="Headers/DataHeader.h">
<polygon fill="none" stroke="#000000" points="609,-174 609,-193 726,-193 726,-174 609,-174"/>
<text text-anchor="middle" x="667.5" y="-181" font-family="Helvetica,sans-Serif" font-size="10.00" fill="#000000">Headers/DataHeader.h</text>
</a>
</g>
</g>
<!-- Node20&#45;&gt;Node40 -->
<g id="edge46" class="edge">
<title>Node20&#45;&gt;Node40</title>
<path fill="none" stroke="#191970" d="M493.1599,-302.3835C447.2497,-288.9081 399.0302,-266.4335 424.5,-235 446.115,-208.324 534.8532,-194.9084 598.8512,-188.5778"/>
<polygon fill="#191970" stroke="#191970" points="599.2726,-192.0536 608.896,-187.6217 598.6093,-185.0851 599.2726,-192.0536"/>
</g>
<!-- Node29 -->
<g id="node30" class="node">
<title>Node29</title>
<g id="a_node30"><a xlink:href="../../de/def/bitOps_8h.html" target="_top" xlink:title="MathUtils/detail/bitOps.h">
<polygon fill="none" stroke="#000000" points="783,-174 783,-193 908,-193 908,-174 783,-174"/>
<text text-anchor="middle" x="845.5" y="-181" font-family="Helvetica,sans-Serif" font-size="10.00" fill="#000000">MathUtils/detail/bitOps.h</text>
</a>
</g>
</g>
<!-- Node28&#45;&gt;Node29 -->
<g id="edge30" class="edge">
<title>Node28&#45;&gt;Node29</title>
<path fill="none" stroke="#191970" d="M339.6184,-245.0861C364.6273,-242.0939 396.2831,-238.3206 424.5,-235 562.2531,-218.7893 596.9165,-216.5924 734.5,-199 746.8358,-197.4227 759.9309,-195.6668 772.6372,-193.9198"/>
<polygon fill="#191970" stroke="#191970" points="773.2963,-197.3621 782.7221,-192.5243 772.3367,-190.4281 773.2963,-197.3621"/>
</g>
<!-- Node30 -->
<g id="node31" class="node">
<title>Node30</title>
<g id="a_node31"><a xlink:href="../../d3/dfc/StatAccumulator_8h.html" target="_top" xlink:title="MathUtils/detail/StatAccumulator.h">
<polygon fill="none" stroke="#000000" points="0,-174 0,-193 169,-193 169,-174 0,-174"/>
<text text-anchor="middle" x="84.5" y="-181" font-family="Helvetica,sans-Serif" font-size="10.00" fill="#000000">MathUtils/detail/StatAccumulator.h</text>
</a>
</g>
</g>
<!-- Node28&#45;&gt;Node30 -->
<g id="edge32" class="edge">
<title>Node28&#45;&gt;Node30</title>
<path fill="none" stroke="#191970" d="M264.4121,-240.9005C227.532,-229.134 164.9242,-209.1591 124.1468,-196.1492"/>
<polygon fill="#191970" stroke="#191970" points="125.1228,-192.7868 114.5321,-193.0817 122.9951,-199.4557 125.1228,-192.7868"/>
</g>
<!-- Node32 -->
<g id="node33" class="node">
<title>Node32</title>
<g id="a_node33"><a xlink:href="../../dd/d7d/trigonometric_8h.html" target="_top" xlink:title="MathUtils/detail/trigonometric.h">
<polygon fill="none" stroke="#000000" points="187.5,-174 187.5,-193 339.5,-193 339.5,-174 187.5,-174"/>
<text text-anchor="middle" x="263.5" y="-181" font-family="Helvetica,sans-Serif" font-size="10.00" fill="#000000">MathUtils/detail/trigonometric.h</text>
</a>
</g>
</g>
<!-- Node28&#45;&gt;Node32 -->
<g id="edge34" class="edge">
<title>Node28&#45;&gt;Node32</title>
<path fill="none" stroke="#191970" d="M290.0585,-240.9005C285.4084,-230.8505 277.9877,-214.8122 272.1709,-202.2403"/>
<polygon fill="#191970" stroke="#191970" points="275.309,-200.6876 267.9333,-193.0817 268.9561,-203.627 275.309,-200.6876"/>
</g>
<!-- Node29&#45;&gt;Node25 -->
<g id="edge31" class="edge">
<title>Node29&#45;&gt;Node25</title>
<path fill="none" stroke="#191970" d="M892.7287,-173.9508C902.5657,-171.9736 912.8698,-169.9113 922.5,-168 1001.0413,-152.4116 1023.9514,-152.4308 1104.9874,-132.1881"/>
<polygon fill="#191970" stroke="#191970" points="1106.3276,-135.4596 1115.1656,-129.6166 1104.6129,-128.6728 1106.3276,-135.4596"/>
</g>
<!-- Node31 -->
<g id="node32" class="node">
<title>Node31</title>
<polygon fill="none" stroke="#bfbfbf" points="65.5,-112.5 65.5,-131.5 103.5,-131.5 103.5,-112.5 65.5,-112.5"/>
<text text-anchor="middle" x="84.5" y="-119.5" font-family="Helvetica,sans-Serif" font-size="10.00" fill="#000000">tuple</text>
</g>
<!-- Node30&#45;&gt;Node31 -->
<g id="edge33" class="edge">
<title>Node30&#45;&gt;Node31</title>
<path fill="none" stroke="#191970" d="M84.5,-173.8906C84.5,-165.3657 84.5,-152.6392 84.5,-141.9235"/>
<polygon fill="#191970" stroke="#191970" points="88.0001,-141.7448 84.5,-131.7449 81.0001,-141.7449 88.0001,-141.7448"/>
</g>
<!-- Node32&#45;&gt;Node22 -->
<g id="edge35" class="edge">
<title>Node32&#45;&gt;Node22</title>
<path fill="none" stroke="#191970" d="M339.5495,-179.6578C407.6414,-176.2972 510.221,-171.4307 599.5,-168 1190.7498,-145.2799 1913.7029,-126.6054 2067.0604,-122.736"/>
<polygon fill="#191970" stroke="#191970" points="2067.5839,-126.2241 2077.4926,-122.4735 2067.4077,-119.2263 2067.5839,-126.2241"/>
</g>
<!-- Node32&#45;&gt;Node31 -->
<g id="edge37" class="edge">
<title>Node32&#45;&gt;Node31</title>
<path fill="none" stroke="#191970" d="M235.5313,-173.8906C202.2934,-162.4709 147.1114,-143.5118 113.449,-131.9462"/>
<polygon fill="#191970" stroke="#191970" points="114.3358,-128.5501 103.7411,-128.6108 112.0612,-135.1702 114.3358,-128.5501"/>
</g>
<!-- Node33 -->
<g id="node34" class="node">
<title>Node33</title>
<polygon fill="none" stroke="#bfbfbf" points="389.5,-56.5 389.5,-75.5 433.5,-75.5 433.5,-56.5 389.5,-56.5"/>
<text text-anchor="middle" x="411.5" y="-63.5" font-family="Helvetica,sans-Serif" font-size="10.00" fill="#000000">cmath</text>
</g>
<!-- Node32&#45;&gt;Node33 -->
<g id="edge36" class="edge">
<title>Node32&#45;&gt;Node33</title>
<path fill="none" stroke="#191970" d="M221.4816,-173.9423C179.9368,-162.5634 125.8766,-141.3427 150.5,-112 179.3678,-77.5994 315.9686,-68.915 379.2185,-66.7303"/>
<polygon fill="#191970" stroke="#191970" points="379.538,-70.2222 389.4242,-66.4127 379.3202,-63.2256 379.538,-70.2222"/>
</g>
<!-- Node34 -->
<g id="node35" class="node">
<title>Node34</title>
<g id="a_node35"><a xlink:href="../../df/d21/GPUCommonDef_8h.html" target="_top" xlink:title="GPUCommonDef.h">
<polygon fill="none" stroke="#000000" points="889.5,-56.5 889.5,-75.5 991.5,-75.5 991.5,-56.5 889.5,-56.5"/>
<text text-anchor="middle" x="940.5" y="-63.5" font-family="Helvetica,sans-Serif" font-size="10.00" fill="#000000">GPUCommonDef.h</text>
</a>
</g>
</g>
<!-- Node32&#45;&gt;Node34 -->
<g id="edge38" class="edge">
<title>Node32&#45;&gt;Node34</title>
<path fill="none" stroke="#191970" d="M318.375,-173.9431C361.6252,-165.5028 423.014,-151.4934 474.5,-132 492.3488,-125.2422 494.2435,-117.5629 512.5,-112 579.4549,-91.5982 777.576,-76.4245 879.0656,-69.7511"/>
<polygon fill="#191970" stroke="#191970" points="879.4193,-73.2356 889.171,-69.0937 878.9649,-66.2503 879.4193,-73.2356"/>
</g>
<!-- Node37 -->
<g id="node38" class="node">
<title>Node37</title>
<g id="a_node38"><a xlink:href="../../d6/da2/GPUCommonMath_8h.html" target="_top" xlink:title="GPUCommonMath.h">
<polygon fill="none" stroke="#000000" points="357.5,-112.5 357.5,-131.5 465.5,-131.5 465.5,-112.5 357.5,-112.5"/>
<text text-anchor="middle" x="411.5" y="-119.5" font-family="Helvetica,sans-Serif" font-size="10.00" fill="#000000">GPUCommonMath.h</text>
</a>
</g>
</g>
<!-- Node32&#45;&gt;Node37 -->
<g id="edge41" class="edge">
<title>Node32&#45;&gt;Node37</title>
<path fill="none" stroke="#191970" d="M286.625,-173.8906C311.4967,-163.5554 351.2298,-147.0447 379.1844,-135.4284"/>
<polygon fill="#191970" stroke="#191970" points="380.646,-138.6113 388.5374,-131.5419 377.9598,-132.1472 380.646,-138.6113"/>
</g>
<!-- Node39 -->
<g id="node40" class="node">
<title>Node39</title>
<g id="a_node40"><a xlink:href="../../d6/d84/MathConstants_8h.html" target="_top" xlink:title="useful math constants ">
<polygon fill="none" stroke="#000000" points="160,-112.5 160,-131.5 339,-131.5 339,-112.5 160,-112.5"/>
<text text-anchor="middle" x="249.5" y="-119.5" font-family="Helvetica,sans-Serif" font-size="10.00" fill="#000000">CommonConstants/MathConstants.h</text>
</a>
</g>
</g>
<!-- Node32&#45;&gt;Node39 -->
<g id="edge45" class="edge">
<title>Node32&#45;&gt;Node39</title>
<path fill="none" stroke="#191970" d="M261.3125,-173.8906C259.3514,-165.276 256.4137,-152.3708 253.9585,-141.5858"/>
<polygon fill="#191970" stroke="#191970" points="257.3507,-140.7185 251.7183,-131.7449 250.5254,-142.2723 257.3507,-140.7185"/>
</g>
<!-- Node35 -->
<g id="node36" class="node">
<title>Node35</title>
<g id="a_node36"><a xlink:href="../../d5/d93/GPUCommonDefSettings_8h.html" target="_top" xlink:title="GPUCommonDefSettings.h">
<polygon fill="none" stroke="#000000" points="797.5,-.5 797.5,-19.5 935.5,-19.5 935.5,-.5 797.5,-.5"/>
<text text-anchor="middle" x="866.5" y="-7.5" font-family="Helvetica,sans-Serif" font-size="10.00" fill="#000000">GPUCommonDefSettings.h</text>
</a>
</g>
</g>
<!-- Node34&#45;&gt;Node35 -->
<g id="edge39" class="edge">
<title>Node34&#45;&gt;Node35</title>
<path fill="none" stroke="#191970" d="M927.6102,-56.2455C916.5746,-47.8943 900.4708,-35.7076 887.5647,-25.9408"/>
<polygon fill="#191970" stroke="#191970" points="889.3283,-22.8862 879.2421,-19.6427 885.1041,-28.4681 889.3283,-22.8862"/>
</g>
<!-- Node36 -->
<g id="node37" class="node">
<title>Node36</title>
<g id="a_node37"><a xlink:href="../../da/d5a/GPUCommonDefAPI_8h.html" target="_top" xlink:title="GPUCommonDefAPI.h">
<polygon fill="none" stroke="#000000" points="954,-.5 954,-19.5 1073,-19.5 1073,-.5 954,-.5"/>
<text text-anchor="middle" x="1013.5" y="-7.5" font-family="Helvetica,sans-Serif" font-size="10.00" fill="#000000">GPUCommonDefAPI.h</text>
</a>
</g>
</g>
<!-- Node34&#45;&gt;Node36 -->
<g id="edge40" class="edge">
<title>Node34&#45;&gt;Node36</title>
<path fill="none" stroke="#191970" d="M953.2156,-56.2455C964.102,-47.8943 979.9883,-35.7076 992.72,-25.9408"/>
<polygon fill="#191970" stroke="#191970" points="995.1261,-28.5063 1000.9301,-19.6427 990.8654,-22.9523 995.1261,-28.5063"/>
</g>
<!-- Node37&#45;&gt;Node33 -->
<g id="edge43" class="edge">
<title>Node37&#45;&gt;Node33</title>
<path fill="none" stroke="#191970" d="M411.5,-112.2455C411.5,-104.9382 411.5,-94.6944 411.5,-85.7046"/>
<polygon fill="#191970" stroke="#191970" points="415.0001,-85.6426 411.5,-75.6427 408.0001,-85.6427 415.0001,-85.6426"/>
</g>
<!-- Node37&#45;&gt;Node34 -->
<g id="edge42" class="edge">
<title>Node37&#45;&gt;Node34</title>
<path fill="none" stroke="#191970" d="M465.6597,-113.8032C470.3372,-113.1658 474.9997,-112.5551 479.5,-112 622.3235,-94.3823 790.6856,-78.9217 879.127,-71.2083"/>
<polygon fill="#191970" stroke="#191970" points="879.5903,-74.6814 889.2498,-70.3289 878.9844,-67.7076 879.5903,-74.6814"/>
</g>
<!-- Node38 -->
<g id="node39" class="node">
<title>Node38</title>
<polygon fill="none" stroke="#bfbfbf" points="507.5,-56.5 507.5,-75.5 563.5,-75.5 563.5,-56.5 507.5,-56.5"/>
<text text-anchor="middle" x="535.5" y="-63.5" font-family="Helvetica,sans-Serif" font-size="10.00" fill="#000000">algorithm</text>
</g>
<!-- Node37&#45;&gt;Node38 -->
<g id="edge44" class="edge">
<title>Node37&#45;&gt;Node38</title>
<path fill="none" stroke="#191970" d="M432.8164,-112.3733C452.7216,-103.3838 482.6436,-89.8706 505.06,-79.7471"/>
<polygon fill="#191970" stroke="#191970" points="506.7887,-82.8068 514.4618,-75.5011 503.9075,-76.4272 506.7887,-82.8068"/>
</g>
<!-- Node40&#45;&gt;Node5 -->
<g id="edge53" class="edge">
<title>Node40&#45;&gt;Node5</title>
<path fill="none" stroke="#191970" d="M647.9688,-173.8906C627.3292,-163.7359 594.5724,-147.6196 571.0398,-136.0416"/>
<polygon fill="#191970" stroke="#191970" points="572.412,-132.8161 561.8941,-131.5419 569.3218,-139.0971 572.412,-132.8161"/>
</g>
<!-- Node40&#45;&gt;Node24 -->
<g id="edge49" class="edge">
<title>Node40&#45;&gt;Node24</title>
<path fill="none" stroke="#191970" d="M709.4546,-173.9213C719.5857,-171.7942 730.4029,-169.6764 740.5,-168 869.3176,-146.6132 906.6961,-158.8782 1037.7372,-132.0903"/>
<polygon fill="#191970" stroke="#191970" points="1038.6774,-135.4697 1047.754,-130.0047 1037.2505,-128.6167 1038.6774,-135.4697"/>
</g>
<!-- Node40&#45;&gt;Node25 -->
<g id="edge47" class="edge">
<title>Node40&#45;&gt;Node25</title>
<path fill="none" stroke="#191970" d="M726.0368,-174.6336C741.7594,-172.3579 758.7647,-169.9922 774.5,-168 918.4378,-149.7767 959.374,-161.7142 1105.0124,-131.9686"/>
<polygon fill="#191970" stroke="#191970" points="1106.1391,-135.3095 1115.2197,-129.8513 1104.7173,-128.4554 1106.1391,-135.3095"/>
</g>
<!-- Node40&#45;&gt;Node38 -->
<g id="edge51" class="edge">
<title>Node40&#45;&gt;Node38</title>
<path fill="none" stroke="#191970" d="M656.6979,-173.8845C634.1693,-153.8306 581.9466,-107.3445 553.9742,-82.4449"/>
<polygon fill="#191970" stroke="#191970" points="556.2479,-79.783 546.4514,-75.7484 551.5937,-85.0116 556.2479,-79.783"/>
</g>
<!-- Node41 -->
<g id="node42" class="node">
<title>Node41</title>
<polygon fill="none" stroke="#bfbfbf" points="619.5,-112.5 619.5,-131.5 671.5,-131.5 671.5,-112.5 619.5,-112.5"/>
<text text-anchor="middle" x="645.5" y="-119.5" font-family="Helvetica,sans-Serif" font-size="10.00" fill="#000000">memory</text>
</g>
<!-- Node40&#45;&gt;Node41 -->
<g id="edge48" class="edge">
<title>Node40&#45;&gt;Node41</title>
<path fill="none" stroke="#191970" d="M664.0625,-173.8906C660.9487,-165.1862 656.268,-152.1015 652.386,-141.2494"/>
<polygon fill="#191970" stroke="#191970" points="655.6497,-139.9817 648.986,-131.7449 649.0588,-142.3394 655.6497,-139.9817"/>
</g>
<!-- Node42 -->
<g id="node43" class="node">
<title>Node42</title>
<polygon fill="none" stroke="#bfbfbf" points="1583.5,-112.5 1583.5,-131.5 1629.5,-131.5 1629.5,-112.5 1583.5,-112.5"/>
<text text-anchor="middle" x="1606.5" y="-119.5" font-family="Helvetica,sans-Serif" font-size="10.00" fill="#000000">cstring</text>
</g>
<!-- Node40&#45;&gt;Node42 -->
<g id="edge50" class="edge">
<title>Node40&#45;&gt;Node42</title>
<path fill="none" stroke="#191970" d="M726.2526,-174.0333C741.8977,-171.7744 758.811,-169.5669 774.5,-168 1084.08,-137.0804 1460.6933,-125.6468 1573.2267,-122.7807"/>
<polygon fill="#191970" stroke="#191970" points="1573.3721,-126.2783 1583.2816,-122.5297 1573.1973,-119.2804 1573.3721,-126.2783"/>
</g>
<!-- Node43 -->
<g id="node44" class="node">
<title>Node43</title>
<polygon fill="none" stroke="#bfbfbf" points="971,-112.5 971,-131.5 1030,-131.5 1030,-112.5 971,-112.5"/>
<text text-anchor="middle" x="1000.5" y="-119.5" font-family="Helvetica,sans-Serif" font-size="10.00" fill="#000000">stdexcept</text>
</g>
<!-- Node40&#45;&gt;Node43 -->
<g id="edge52" class="edge">
<title>Node40&#45;&gt;Node43</title>
<path fill="none" stroke="#191970" d="M710.6646,-173.9785C720.4565,-171.9179 730.822,-169.8146 740.5,-168 835.1602,-150.2511 862.3557,-152.2258 960.6886,-132.014"/>
<polygon fill="#191970" stroke="#191970" points="961.6765,-135.3835 970.7537,-129.9196 960.2504,-128.5303 961.6765,-135.3835"/>
</g>
<!-- Node44 -->
<g id="node45" class="node">
<title>Node44</title>
<polygon fill="none" stroke="#bfbfbf" points="690,-112.5 690,-131.5 735,-131.5 735,-112.5 690,-112.5"/>
<text text-anchor="middle" x="712.5" y="-119.5" font-family="Helvetica,sans-Serif" font-size="10.00" fill="#000000">climits</text>
</g>
<!-- Node40&#45;&gt;Node44 -->
<g id="edge54" class="edge">
<title>Node40&#45;&gt;Node44</title>
<path fill="none" stroke="#191970" d="M674.5313,-173.8906C681.163,-164.8273 691.2696,-151.0149 699.3887,-139.9188"/>
<polygon fill="#191970" stroke="#191970" points="702.2891,-141.882 705.3696,-131.7449 696.6399,-137.7484 702.2891,-141.882"/>
</g>
<!-- Node45 -->
<g id="node46" class="node">
<title>Node45</title>
<g id="a_node46"><a xlink:href="../../d7/df8/Types_8h.html" target="_top" xlink:title="MemoryResources/Types.h">
<polygon fill="none" stroke="#000000" points="753,-112.5 753,-131.5 890,-131.5 890,-112.5 753,-112.5"/>
<text text-anchor="middle" x="821.5" y="-119.5" font-family="Helvetica,sans-Serif" font-size="10.00" fill="#000000">MemoryResources/Types.h</text>
</a>
</g>
</g>
<!-- Node40&#45;&gt;Node45 -->
<g id="edge55" class="edge">
<title>Node40&#45;&gt;Node45</title>
<path fill="none" stroke="#191970" d="M691.5625,-173.8906C717.5556,-163.5103 759.1478,-146.9004 788.2547,-135.2766"/>
<polygon fill="#191970" stroke="#191970" points="789.6177,-138.5011 797.6065,-131.5419 787.0215,-132.0003 789.6177,-138.5011"/>
</g>
<!-- Node46 -->
<g id="node47" class="node">
<title>Node46</title>
<polygon fill="none" stroke="#bfbfbf" points="908.5,-112.5 908.5,-131.5 952.5,-131.5 952.5,-112.5 908.5,-112.5"/>
<text text-anchor="middle" x="930.5" y="-119.5" font-family="Helvetica,sans-Serif" font-size="10.00" fill="#000000">cerrno</text>
</g>
<!-- Node40&#45;&gt;Node46 -->
<g id="edge56" class="edge">
<title>Node40&#45;&gt;Node46</title>
<path fill="none" stroke="#191970" d="M711.4466,-173.9774C767.5006,-161.7992 860.8834,-141.3937 898.1972,-132.0734"/>
<polygon fill="#191970" stroke="#191970" points="899.429,-135.3694 908.2236,-129.4613 897.6642,-128.5955 899.429,-135.3694"/>
</g>
<!-- Node47&#45;&gt;Node12 -->
<g id="edge80" class="edge">
<title>Node47&#45;&gt;Node12</title>
<path fill="none" stroke="#191970" d="M1661.7161,-374.8265C1662.4945,-358.5755 1665.9055,-325.29 1680.5,-302 1687.9831,-290.0585 1699.2245,-279.6628 1710.208,-271.3986"/>
<polygon fill="#191970" stroke="#191970" points="1712.3725,-274.1541 1718.4904,-265.5042 1708.3136,-268.4509 1712.3725,-274.1541"/>
</g>
<!-- Node47&#45;&gt;Node21 -->
<g id="edge60" class="edge">
<title>Node47&#45;&gt;Node21</title>
<path fill="none" stroke="#191970" d="M1717.9479,-374.9698C1765.374,-365.8798 1828.2519,-350.9374 1846.5,-333 1901.0551,-279.3736 1836.439,-216.6195 1895.5,-168 1929.4248,-140.0728 2230.0203,-127.0461 2338.0489,-123.2365"/>
<polygon fill="#191970" stroke="#191970" points="2338.3101,-126.7297 2348.1833,-122.8864 2338.0683,-119.7339 2338.3101,-126.7297"/>
</g>
<!-- Node48 -->
<g id="node49" class="node">
<title>Node48</title>
<g id="a_node49"><a xlink:href="../../d6/dec/Raw_2include_2DetectorsRaw_2RDHUtils_8h.html" target="_top" xlink:title="DetectorsRaw/RDHUtils.h">
<polygon fill="none" stroke="#000000" points="1233.5,-308 1233.5,-327 1367.5,-327 1367.5,-308 1233.5,-308"/>
<text text-anchor="middle" x="1300.5" y="-315" font-family="Helvetica,sans-Serif" font-size="10.00" fill="#000000">DetectorsRaw/RDHUtils.h</text>
</a>
</g>
</g>
<!-- Node47&#45;&gt;Node48 -->
<g id="edge61" class="edge">
<title>Node47&#45;&gt;Node48</title>
<path fill="none" stroke="#191970" d="M1610.1609,-374.9717C1544.7598,-362.8335 1431.8505,-341.8781 1361.945,-328.9039"/>
<polygon fill="#191970" stroke="#191970" points="1362.4247,-325.4333 1351.9539,-327.0496 1361.1473,-332.3157 1362.4247,-325.4333"/>
</g>
<!-- Node52 -->
<g id="node53" class="node">
<title>Node52</title>
<g id="a_node53"><a xlink:href="../../d9/d80/InteractionRecord_8h.html" target="_top" xlink:title="CommonDataFormat/Interaction\lRecord.h">
<polygon fill="none" stroke="#000000" points="1944,-235.5 1944,-265.5 2101,-265.5 2101,-235.5 1944,-235.5"/>
<text text-anchor="start" x="1952" y="-253.5" font-family="Helvetica,sans-Serif" font-size="10.00" fill="#000000">CommonDataFormat/Interaction</text>
<text text-anchor="middle" x="2022.5" y="-242.5" font-family="Helvetica,sans-Serif" font-size="10.00" fill="#000000">Record.h</text>
</a>
</g>
</g>
<!-- Node47&#45;&gt;Node52 -->
<g id="edge87" class="edge">
<title>Node47&#45;&gt;Node52</title>
<path fill="none" stroke="#191970" d="M1722.6223,-374.9854C1767.1418,-366.884 1828.3493,-353.2899 1879.5,-333 1920.6092,-316.6932 1964.1131,-290.0722 1992.1903,-271.4947"/>
<polygon fill="#191970" stroke="#191970" points="1994.3796,-274.241 2000.7416,-265.7689 1990.485,-268.4244 1994.3796,-274.241"/>
</g>
<!-- Node56 -->
<g id="node57" class="node">
<title>Node56</title>
<g id="a_node57"><a xlink:href="../../da/d6b/ConfigurableParamHelper_8h.html" target="_top" xlink:title="CommonUtils/Configurable\lParamHelper.h">
<polygon fill="none" stroke="#000000" points="1461.5,-302.5 1461.5,-332.5 1595.5,-332.5 1595.5,-302.5 1461.5,-302.5"/>
<text text-anchor="start" x="1469.5" y="-320.5" font-family="Helvetica,sans-Serif" font-size="10.00" fill="#000000">CommonUtils/Configurable</text>
<text text-anchor="middle" x="1528.5" y="-309.5" font-family="Helvetica,sans-Serif" font-size="10.00" fill="#000000">ParamHelper.h</text>
</a>
</g>
</g>
<!-- Node47&#45;&gt;Node56 -->
<g id="edge81" class="edge">
<title>Node47&#45;&gt;Node56</title>
<path fill="none" stroke="#191970" d="M1642.4443,-374.9005C1622.955,-365.0826 1592.1212,-349.5498 1567.4406,-337.1167"/>
<polygon fill="#191970" stroke="#191970" points="1568.8248,-333.895 1558.3193,-332.5218 1565.6755,-340.1466 1568.8248,-333.895"/>
</g>
<!-- Node58 -->
<g id="node59" class="node">
<title>Node58</title>
<g id="a_node59"><a xlink:href="../../de/da4/Triggers_8h.html" target="_top" xlink:title="Definition of the 32 Central Trigger System (CTS) Trigger Types defined in https://twiki.cern.ch/twiki/pub/ALICE/NoteForFEDevelopers/CTS_CRU_FE_interface.pdf. ">
<polygon fill="none" stroke="#000000" points="1689.5,-308 1689.5,-327 1837.5,-327 1837.5,-308 1689.5,-308"/>
<text text-anchor="middle" x="1763.5" y="-315" font-family="Helvetica,sans-Serif" font-size="10.00" fill="#000000">CommonConstants/Triggers.h</text>
</a>
</g>
</g>
<!-- Node47&#45;&gt;Node58 -->
<g id="edge88" class="edge">
<title>Node47&#45;&gt;Node58</title>
<path fill="none" stroke="#191970" d="M1676.1141,-374.9005C1692.929,-363.8554 1720.7549,-345.5776 1740.4858,-332.6172"/>
<polygon fill="#191970" stroke="#191970" points="1742.4764,-335.4972 1748.913,-327.0817 1738.6333,-329.6465 1742.4764,-335.4972"/>
</g>
<!-- Node48&#45;&gt;Node34 -->
<g id="edge62" class="edge">
<title>Node48&#45;&gt;Node34</title>
<path fill="none" stroke="#191970" d="M1302.236,-307.971C1305.6984,-291.3434 1314.8804,-256.7333 1334.5,-235 1357.1517,-209.9079 1384.1528,-228.0136 1401.5,-199 1408.5703,-187.1747 1409.8608,-178.951 1401.5,-168 1353.505,-105.1356 1115.9139,-79.0874 1001.8381,-70.072"/>
<polygon fill="#191970" stroke="#191970" points="1001.7644,-66.556 991.525,-69.2768 1001.2263,-73.5353 1001.7644,-66.556"/>
</g>
<!-- Node49 -->
<g id="node50" class="node">
<title>Node49</title>
<g id="a_node50"><a xlink:href="../../d2/d45/GPUCommonRtypes_8h.html" target="_top" xlink:title="GPUCommonRtypes.h">
<polygon fill="none" stroke="#000000" points="2235.5,-174 2235.5,-193 2353.5,-193 2353.5,-174 2235.5,-174"/>
<text text-anchor="middle" x="2294.5" y="-181" font-family="Helvetica,sans-Serif" font-size="10.00" fill="#000000">GPUCommonRtypes.h</text>
</a>
</g>
</g>
<!-- Node48&#45;&gt;Node49 -->
<g id="edge63" class="edge">
<title>Node48&#45;&gt;Node49</title>
<path fill="none" stroke="#191970" d="M1305.9532,-307.841C1316.8271,-289.6683 1343.1472,-250.8016 1377.5,-235 1463.2786,-195.5436 2132.9188,-211.5435 2226.5,-199 2233.6781,-198.0379 2241.2141,-196.6792 2248.5488,-195.1618"/>
<polygon fill="#191970" stroke="#191970" points="2249.3502,-198.5693 2258.3734,-193.0166 2247.8569,-191.7305 2249.3502,-198.5693"/>
</g>
<!-- Node50 -->
<g id="node51" class="node">
<title>Node50</title>
<g id="a_node51"><a xlink:href="../../d4/dee/RAWDataHeader_8h.html" target="_top" xlink:title="Definition of the RAW Data Header. ">
<polygon fill="none" stroke="#000000" points="1041,-174 1041,-193 1182,-193 1182,-174 1041,-174"/>
<text text-anchor="middle" x="1111.5" y="-181" font-family="Helvetica,sans-Serif" font-size="10.00" fill="#000000">Headers/RAWDataHeader.h</text>
</a>
</g>
</g>
<!-- Node48&#45;&gt;Node50 -->
<g id="edge65" class="edge">
<title>Node48&#45;&gt;Node50</title>
<path fill="none" stroke="#191970" d="M1256.5426,-307.9843C1215.1802,-298.2316 1157.1734,-282.2353 1140.5,-266 1123.3046,-249.2564 1116.2876,-221.7318 1113.4354,-203.1261"/>
<polygon fill="#191970" stroke="#191970" points="1116.8958,-202.5918 1112.1678,-193.1105 1109.9512,-203.4708 1116.8958,-202.5918"/>
</g>
<!-- Node51 -->
<g id="node52" class="node">
<title>Node51</title>
<g id="a_node52"><a xlink:href="../../d6/d89/RDHAny_8h.html" target="_top" xlink:title="Headers/RDHAny.h">
<polygon fill="none" stroke="#000000" points="1149.5,-241 1149.5,-260 1253.5,-260 1253.5,-241 1149.5,-241"/>
<text text-anchor="middle" x="1201.5" y="-248" font-family="Helvetica,sans-Serif" font-size="10.00" fill="#000000">Headers/RDHAny.h</text>
</a>
</g>
</g>
<!-- Node48&#45;&gt;Node51 -->
<g id="edge67" class="edge">
<title>Node48&#45;&gt;Node51</title>
<path fill="none" stroke="#191970" d="M1286.3157,-307.9005C1270.0689,-296.9052 1243.2309,-278.7422 1224.0966,-265.7927"/>
<polygon fill="#191970" stroke="#191970" points="1225.9014,-262.7879 1215.658,-260.0817 1221.978,-268.5851 1225.9014,-262.7879"/>
</g>
<!-- Node48&#45;&gt;Node52 -->
<g id="edge72" class="edge">
<title>Node48&#45;&gt;Node52</title>
<path fill="none" stroke="#191970" d="M1367.8269,-310.4662C1394.2235,-307.7525 1424.7759,-304.6659 1452.5,-302 1622.5023,-285.6527 1821.1783,-268.0407 1933.3854,-258.2318"/>
<polygon fill="#191970" stroke="#191970" points="1933.9804,-261.6932 1943.6379,-257.3362 1933.3712,-254.7198 1933.9804,-261.6932"/>
</g>
<!-- Node55 -->
<g id="node56" class="node">
<title>Node55</title>
<g id="a_node56"><a xlink:href="../../d7/d34/DAQID_8h.html" target="_top" xlink:title="Headers/DAQID.h">
<polygon fill="none" stroke="#000000" points="958,-241 958,-260 1055,-260 1055,-241 958,-241"/>
<text text-anchor="middle" x="1006.5" y="-248" font-family="Helvetica,sans-Serif" font-size="10.00" fill="#000000">Headers/DAQID.h</text>
</a>
</g>
</g>
<!-- Node48&#45;&gt;Node55 -->
<g id="edge78" class="edge">
<title>Node48&#45;&gt;Node55</title>
<path fill="none" stroke="#191970" d="M1258.6892,-307.9717C1206.0468,-295.975 1115.6096,-275.3651 1058.545,-262.3606"/>
<polygon fill="#191970" stroke="#191970" points="1059.1703,-258.9134 1048.6426,-260.1039 1057.6149,-265.7385 1059.1703,-258.9134"/>
</g>
<!-- Node49&#45;&gt;Node21 -->
<g id="edge64" class="edge">
<title>Node49&#45;&gt;Node21</title>
<path fill="none" stroke="#191970" d="M2307.3125,-173.8906C2320.1901,-164.2324 2340.2584,-149.1812 2355.472,-137.771"/>
<polygon fill="#191970" stroke="#191970" points="2357.8775,-140.3419 2363.7775,-131.5419 2353.6774,-134.7419 2357.8775,-140.3419"/>
</g>
<!-- Node50&#45;&gt;Node25 -->
<g id="edge66" class="edge">
<title>Node50&#45;&gt;Node25</title>
<path fill="none" stroke="#191970" d="M1115.7188,-173.8906C1119.5796,-165.0965 1125.4034,-151.8312 1130.1961,-140.9145"/>
<polygon fill="#191970" stroke="#191970" points="1133.4066,-142.3083 1134.2218,-131.7449 1126.9971,-139.4943 1133.4066,-142.3083"/>
</g>
<!-- Node51&#45;&gt;Node27 -->
<g id="edge70" class="edge">
<title>Node51&#45;&gt;Node27</title>
<path fill="none" stroke="#191970" d="M1216.6872,-240.9005C1234.2403,-229.8057 1263.3394,-211.4128 1283.8598,-198.4424"/>
<polygon fill="#191970" stroke="#191970" points="1285.758,-201.3832 1292.341,-193.0817 1282.0179,-195.4661 1285.758,-201.3832"/>
</g>
<!-- Node51&#45;&gt;Node34 -->
<g id="edge68" class="edge">
<title>Node51&#45;&gt;Node34</title>
<path fill="none" stroke="#191970" d="M1205.3858,-240.581C1210.9744,-224.813 1219.7496,-193.2327 1211.5,-168 1201.9143,-138.6807 1196.5011,-128.5966 1170.5,-112 1143.0574,-94.4833 1060.1657,-80.9025 1001.7989,-73.1748"/>
<polygon fill="#191970" stroke="#191970" points="1001.9356,-69.6632 991.5682,-71.8465 1001.0343,-76.6049 1001.9356,-69.6632"/>
</g>
<!-- Node51&#45;&gt;Node43 -->
<g id="edge71" class="edge">
<title>Node51&#45;&gt;Node43</title>
<path fill="none" stroke="#191970" d="M1203.4916,-240.9521C1206.4284,-223.9827 1209.7691,-188.4377 1191.5,-168 1147.3108,-118.5655 1110.3646,-145.8828 1040.3929,-131.952"/>
<polygon fill="#191970" stroke="#191970" points="1040.8183,-128.461 1030.2962,-129.7003 1039.2946,-135.2932 1040.8183,-128.461"/>
</g>
<!-- Node51&#45;&gt;Node50 -->
<g id="edge69" class="edge">
<title>Node51&#45;&gt;Node50</title>
<path fill="none" stroke="#191970" d="M1188.6052,-240.9005C1174.0358,-230.0544 1150.0978,-212.2339 1132.7546,-199.3229"/>
<polygon fill="#191970" stroke="#191970" points="1134.4823,-196.2457 1124.3709,-193.0817 1130.3022,-201.8606 1134.4823,-196.2457"/>
</g>
<!-- Node52&#45;&gt;Node25 -->
<g id="edge75" class="edge">
<title>Node52&#45;&gt;Node25</title>
<path fill="none" stroke="#191970" d="M1986.2788,-235.3366C1938.1704,-215.9597 1850.1019,-183.1203 1771.5,-168 1520.0541,-119.6304 1450.8164,-161.7964 1196.5,-132 1188.3653,-131.0469 1179.6385,-129.7103 1171.4879,-128.3237"/>
<polygon fill="#191970" stroke="#191970" points="1172.017,-124.8631 1161.5599,-126.5659 1170.7965,-131.7558 1172.017,-124.8631"/>
</g>
<!-- Node52&#45;&gt;Node33 -->
<g id="edge76" class="edge">
<title>Node52&#45;&gt;Node33</title>
<path fill="none" stroke="#191970" d="M1996.7205,-235.3732C1962.3672,-216.0362 1899.0876,-183.2404 1840.5,-168 1695.9041,-130.3862 1319.5581,-122.2196 1170.5,-112 872.1056,-91.5417 796.5408,-101.0886 498.5,-76 480.3555,-74.4726 460.1466,-72.1857 443.7762,-70.1842"/>
<polygon fill="#191970" stroke="#191970" points="443.989,-66.6837 433.6331,-68.9209 443.1239,-73.63 443.989,-66.6837"/>
</g>
<!-- Node52&#45;&gt;Node49 -->
<g id="edge73" class="edge">
<title>Node52&#45;&gt;Node49</title>
<path fill="none" stroke="#191970" d="M2083.5421,-235.4639C2132.6151,-223.3761 2200.6235,-206.624 2246.0178,-195.4423"/>
<polygon fill="#191970" stroke="#191970" points="2247.0387,-198.7955 2255.9114,-193.0053 2245.3645,-191.9987 2247.0387,-198.7955"/>
</g>
<!-- Node53 -->
<g id="node54" class="node">
<title>Node53</title>
<polygon fill="none" stroke="#bfbfbf" points="1976,-174 1976,-193 2021,-193 2021,-174 1976,-174"/>
<text text-anchor="middle" x="1998.5" y="-181" font-family="Helvetica,sans-Serif" font-size="10.00" fill="#000000">iosfwd</text>
</g>
<!-- Node52&#45;&gt;Node53 -->
<g id="edge74" class="edge">
<title>Node52&#45;&gt;Node53</title>
<path fill="none" stroke="#191970" d="M2017.054,-235.2967C2013.5688,-225.5672 2009.0197,-212.8675 2005.2982,-202.4784"/>
<polygon fill="#191970" stroke="#191970" points="2008.59,-201.2889 2001.9227,-193.055 2002,-203.6495 2008.59,-201.2889"/>
</g>
<!-- Node54 -->
<g id="node55" class="node">
<title>Node54</title>
<g id="a_node55"><a xlink:href="../../d4/dc6/LHCConstants_8h.html" target="_top" xlink:title="Header to collect LHC related constants. ">
<polygon fill="none" stroke="#000000" points="2039.5,-174 2039.5,-193 2217.5,-193 2217.5,-174 2039.5,-174"/>
<text text-anchor="middle" x="2128.5" y="-181" font-family="Helvetica,sans-Serif" font-size="10.00" fill="#000000">CommonConstants/LHCConstants.h</text>
</a>
</g>
</g>
<!-- Node52&#45;&gt;Node54 -->
<g id="edge77" class="edge">
<title>Node52&#45;&gt;Node54</title>
<path fill="none" stroke="#191970" d="M2046.2885,-235.4639C2063.7535,-224.4247 2087.3729,-209.4954 2104.8138,-198.4715"/>
<polygon fill="#191970" stroke="#191970" points="2106.7228,-201.4054 2113.3057,-193.1039 2102.9827,-195.4883 2106.7228,-201.4054"/>
</g>
<!-- Node55&#45;&gt;Node40 -->
<g id="edge79" class="edge">
<title>Node55&#45;&gt;Node40</title>
<path fill="none" stroke="#191970" d="M958.2896,-240.9717C897.1259,-228.8833 791.7141,-208.0497 726.0096,-195.0638"/>
<polygon fill="#191970" stroke="#191970" points="726.3071,-191.555 715.8182,-193.0496 724.9498,-198.4222 726.3071,-191.555"/>
</g>
<!-- Node56&#45;&gt;Node3 -->
<g id="edge86" class="edge">
<title>Node56&#45;&gt;Node3</title>
<path fill="none" stroke="#191970" d="M1501.7941,-302.4639C1481.9173,-291.2728 1454.9399,-276.0838 1435.2868,-265.0186"/>
<polygon fill="#191970" stroke="#191970" points="1436.9887,-261.9602 1426.5577,-260.1039 1433.5544,-268.0599 1436.9887,-261.9602"/>
</g>
<!-- Node56&#45;&gt;Node12 -->
<g id="edge82" class="edge">
<title>Node56&#45;&gt;Node12</title>
<path fill="none" stroke="#191970" d="M1576.9746,-302.4639C1609.2388,-292.456 1651.8104,-279.2509 1685.9639,-268.657"/>
<polygon fill="#191970" stroke="#191970" points="1687.2998,-271.9072 1695.814,-265.6017 1685.2259,-265.2215 1687.2998,-271.9072"/>
</g>
<!-- Node56&#45;&gt;Node17 -->
<g id="edge85" class="edge">
<title>Node56&#45;&gt;Node17</title>
<path fill="none" stroke="#191970" d="M1532.8053,-302.3042C1537.7537,-285.5261 1546.4927,-257.8626 1556.5,-235 1561.4582,-223.6726 1568.0171,-211.4967 1573.5404,-201.8294"/>
<polygon fill="#191970" stroke="#191970" points="1576.604,-203.5237 1578.6209,-193.1226 1570.558,-199.9958 1576.604,-203.5237"/>
</g>
<!-- Node56&#45;&gt;Node27 -->
<g id="edge84" class="edge">
<title>Node56&#45;&gt;Node27</title>
<path fill="none" stroke="#191970" d="M1515.9649,-302.1952C1500.3891,-284.0242 1472.2152,-253.8182 1442.5,-235 1441.3705,-234.2847 1381.8302,-211.6657 1342.2067,-196.6449"/>
<polygon fill="#191970" stroke="#191970" points="1343.2011,-193.2789 1332.6097,-193.0077 1340.7203,-199.8246 1343.2011,-193.2789"/>
</g>
<!-- Node57 -->
<g id="node58" class="node">
<title>Node57</title>
<polygon fill="none" stroke="#bfbfbf" points="1565.5,-241 1565.5,-260 1621.5,-260 1621.5,-241 1565.5,-241"/>
<text text-anchor="middle" x="1593.5" y="-248" font-family="Helvetica,sans-Serif" font-size="10.00" fill="#000000">TClass.h</text>
</g>
<!-- Node56&#45;&gt;Node57 -->
<g id="edge83" class="edge">
<title>Node56&#45;&gt;Node57</title>
<path fill="none" stroke="#191970" d="M1543.2495,-302.2967C1553.3768,-291.8578 1566.8212,-277.9997 1577.2552,-267.2446"/>
<polygon fill="#191970" stroke="#191970" points="1579.7792,-269.6695 1584.2303,-260.055 1574.755,-264.7953 1579.7792,-269.6695"/>
</g>
<!-- Node58&#45;&gt;Node25 -->
<g id="edge89" class="edge">
<title>Node58&#45;&gt;Node25</title>
<path fill="none" stroke="#191970" d="M1780.2751,-307.9042C1793.9625,-299.015 1812.3247,-284.4044 1820.5,-266 1826.0932,-253.4086 1826.4042,-247.4486 1820.5,-235 1800.3321,-192.4774 1782.2804,-185.2682 1738.5,-168 1626.2093,-123.7093 1316.3629,-146.2742 1196.5,-132 1188.3671,-131.0315 1179.641,-129.6891 1171.4904,-128.3019"/>
<polygon fill="#191970" stroke="#191970" points="1172.0191,-124.8411 1161.5623,-126.5456 1170.7997,-131.7341 1172.0191,-124.8411"/>
</g>
<!-- Node59&#45;&gt;Node4 -->
<g id="edge145" class="edge">
<title>Node59&#45;&gt;Node4</title>
<path fill="none" stroke="#191970" d="M1852.5717,-500.7602C1728.6195,-497.8098 1467.0231,-488.0096 1248.5,-456 1155.0446,-442.3105 1047.933,-413.5359 990.3635,-396.9667"/>
<polygon fill="#191970" stroke="#191970" points="991.1224,-393.5427 980.5433,-394.1201 989.1734,-400.2659 991.1224,-393.5427"/>
</g>
<!-- Node59&#45;&gt;Node5 -->
<g id="edge147" class="edge">
<title>Node59&#45;&gt;Node5</title>
<path fill="none" stroke="#191970" d="M1852.811,-500.3558C1653.419,-495.4995 1101.7791,-480.0377 1023.5,-456 1007.1055,-450.9656 1006.1127,-443.0969 990.5,-436 942.5155,-414.1881 917.8357,-433.9309 877.5,-400 814.2167,-346.7652 858.6218,-283.3051 791.5,-235 708.5888,-175.3318 640.9666,-266.7306 564.5,-199 548.3734,-184.7158 543.709,-159.5131 542.5394,-141.8428"/>
<polygon fill="#191970" stroke="#191970" points="546.0338,-141.6172 542.1906,-131.744 539.0379,-141.8589 546.0338,-141.6172"/>
</g>
<!-- Node59&#45;&gt;Node9 -->
<g id="edge144" class="edge">
<title>Node59&#45;&gt;Node9</title>
<path fill="none" stroke="#191970" d="M1852.9735,-499.8296C1665.1772,-493.9114 1161.1622,-476.5531 995.5,-456 994.045,-455.8195 992.5689,-455.6205 991.0807,-455.4061"/>
<polygon fill="#191970" stroke="#191970" points="991.6057,-451.9456 981.1748,-453.8019 990.4867,-458.8556 991.6057,-451.9456"/>
</g>
<!-- Node59&#45;&gt;Node13 -->
<g id="edge148" class="edge">
<title>Node59&#45;&gt;Node13</title>
<path fill="none" stroke="#191970" d="M1996.1248,-501.3045C2140.256,-499.184 2475.3975,-490.6115 2754.5,-456 2920.2805,-435.4416 3123.5,-551.5504 3123.5,-384.5 3123.5,-384.5 3123.5,-384.5 3123.5,-250.5 3123.5,-195.9088 3082.2785,-190.412 3032.5,-168 2899.1783,-107.9741 2850.7372,-148.8501 2705.5,-132 2689.2217,-130.1114 2671.1383,-127.9165 2656.1043,-126.065"/>
<polygon fill="#191970" stroke="#191970" points="2656.1195,-122.5403 2645.7656,-124.7867 2655.2606,-129.4874 2656.1195,-122.5403"/>
</g>
<!-- Node59&#45;&gt;Node18 -->
<g id="edge146" class="edge">
<title>Node59&#45;&gt;Node18</title>
<path fill="none" stroke="#191970" d="M1996.1328,-498.5556C2131.5637,-491.6956 2420.3749,-475.3122 2518.5,-456 2598.2106,-440.312 2644.6569,-465.6577 2692.5,-400 2700.6139,-388.8648 2694.4788,-382.6349 2692.5,-369 2683.4454,-306.6082 2658.1043,-235.993 2645.2247,-202.7489"/>
<polygon fill="#191970" stroke="#191970" points="2648.4357,-201.3505 2641.5173,-193.3264 2641.9218,-203.9135 2648.4357,-201.3505"/>
</g>
<!-- Node59&#45;&gt;Node47 -->
<g id="edge126" class="edge">
<title>Node59&#45;&gt;Node47</title>
<path fill="none" stroke="#191970" d="M1902.9776,-492.3845C1856.4345,-471.5905 1746.2802,-422.3771 1692.3405,-398.2785"/>
<polygon fill="#191970" stroke="#191970" points="1693.5089,-394.9672 1682.9509,-394.0836 1690.6535,-401.3583 1693.5089,-394.9672"/>
</g>
<!-- Node59&#45;&gt;Node50 -->
<g id="edge91" class="edge">
<title>Node59&#45;&gt;Node50</title>
<path fill="none" stroke="#191970" d="M1852.8186,-499.3122C1686.8523,-492.8393 1280.0319,-475.4731 1144.5,-456 1117.074,-452.0595 918.7527,-421.6809 901.5,-400 866.7084,-356.2786 858.3992,-322.8638 949.5,-235 965.1011,-219.9532 1016.1338,-205.2184 1056.8016,-195.3914"/>
<polygon fill="#191970" stroke="#191970" points="1057.7009,-198.7753 1066.6241,-193.0633 1056.0864,-191.964 1057.7009,-198.7753"/>
</g>
<!-- Node59&#45;&gt;Node52 -->
<g id="edge92" class="edge">
<title>Node59&#45;&gt;Node52</title>
<path fill="none" stroke="#191970" d="M1928.222,-492.448C1942.1815,-456.6235 1991.7014,-329.5392 2012.8313,-275.313"/>
<polygon fill="#191970" stroke="#191970" points="2016.1762,-276.3688 2016.5458,-265.7804 2009.6539,-273.8272 2016.1762,-276.3688"/>
</g>
<!-- Node60 -->
<g id="node61" class="node">
<title>Node60</title>
<g id="a_node61"><a xlink:href="../../dc/da9/FV0_2include_2DataFormatsFV0_2RawEventData_8h.html" target="_top" xlink:title="DataFormatsFV0/RawEventData.h">
<polygon fill="none" stroke="#000000" points="2513.5,-375 2513.5,-394 2683.5,-394 2683.5,-375 2513.5,-375"/>
<text text-anchor="middle" x="2598.5" y="-382" font-family="Helvetica,sans-Serif" font-size="10.00" fill="#000000">DataFormatsFV0/RawEventData.h</text>
</a>
</g>
</g>
<!-- Node59&#45;&gt;Node60 -->
<g id="edge93" class="edge">
<title>Node59&#45;&gt;Node60</title>
<path fill="none" stroke="#191970" d="M1996.2389,-500.3741C2126.5142,-496.72 2396.7107,-485.7178 2485.5,-456 2521.8764,-443.8248 2558.3707,-417.5795 2579.6763,-400.4993"/>
<polygon fill="#191970" stroke="#191970" points="2582.0628,-403.0686 2587.5776,-394.0222 2577.625,-397.6551 2582.0628,-403.0686"/>
</g>
<!-- Node66 -->
<g id="node67" class="node">
<title>Node66</title>
<g id="a_node67"><a xlink:href="../../d0/def/FIT_2FV0_2include_2DataFormatsFV0_2ChannelData_8h.html" target="_top" xlink:title="DataFormatsFV0/ChannelData.h">
<polygon fill="none" stroke="#000000" points="2447.5,-308 2447.5,-327 2607.5,-327 2607.5,-308 2447.5,-308"/>
<text text-anchor="middle" x="2527.5" y="-315" font-family="Helvetica,sans-Serif" font-size="10.00" fill="#000000">DataFormatsFV0/ChannelData.h</text>
</a>
</g>
</g>
<!-- Node59&#45;&gt;Node66 -->
<g id="edge119" class="edge">
<title>Node59&#45;&gt;Node66</title>
<path fill="none" stroke="#191970" d="M1995.1568,-492.4543C2116.1031,-475.3557 2357.1551,-437.7499 2433.5,-400 2465.8839,-383.9873 2495.879,-353.9411 2512.9116,-334.8662"/>
<polygon fill="#191970" stroke="#191970" points="2515.6598,-337.0398 2519.5873,-327.1998 2510.3808,-332.4429 2515.6598,-337.0398"/>
</g>
<!-- Node67 -->
<g id="node68" class="node">
<title>Node67</title>
<g id="a_node68"><a xlink:href="../../d8/d41/FV0_2include_2DataFormatsFV0_2LookUpTable_8h.html" target="_top" xlink:title="DataFormatsFV0/LookUpTable.h">
<polygon fill="none" stroke="#000000" points="2778,-308 2778,-327 2939,-327 2939,-308 2778,-308"/>
<text text-anchor="middle" x="2858.5" y="-315" font-family="Helvetica,sans-Serif" font-size="10.00" fill="#000000">DataFormatsFV0/LookUpTable.h</text>
</a>
</g>
</g>
<!-- Node59&#45;&gt;Node67 -->
<g id="edge118" class="edge">
<title>Node59&#45;&gt;Node67</title>
<path fill="none" stroke="#191970" d="M1996.1036,-500.8669C2180.2188,-497.5337 2660.2613,-486.0391 2725.5,-456 2782.5794,-429.7179 2827.7103,-367.0485 2847.5414,-335.8274"/>
<polygon fill="#191970" stroke="#191970" points="2850.5805,-337.5676 2852.8689,-327.2228 2844.6289,-333.8826 2850.5805,-337.5676"/>
</g>
<!-- Node68 -->
<g id="node69" class="node">
<title>Node68</title>
<g id="a_node69"><a xlink:href="../../d7/d54/FIT_2FV0_2include_2DataFormatsFV0_2BCData_8h.html" target="_top" xlink:title="DataFormatsFV0/BCData.h">
<polygon fill="none" stroke="#000000" points="2007.5,-436.5 2007.5,-455.5 2145.5,-455.5 2145.5,-436.5 2007.5,-436.5"/>
<text text-anchor="middle" x="2076.5" y="-443.5" font-family="Helvetica,sans-Serif" font-size="10.00" fill="#000000">DataFormatsFV0/BCData.h</text>
</a>
</g>
</g>
<!-- Node59&#45;&gt;Node68 -->
<g id="edge120" class="edge">
<title>Node59&#45;&gt;Node68</title>
<path fill="none" stroke="#191970" d="M1950.6297,-492.3733C1975.5768,-483.1822 2013.3592,-469.2624 2041.0206,-459.0713"/>
<polygon fill="#191970" stroke="#191970" points="2042.5378,-462.2424 2050.7112,-455.5011 2040.1178,-455.674 2042.5378,-462.2424"/>
</g>
<!-- Node70 -->
<g id="node71" class="node">
<title>Node70</title>
<polygon fill="none" stroke="#bfbfbf" points="1898,-375 1898,-394 1951,-394 1951,-375 1898,-375"/>
<text text-anchor="middle" x="1924.5" y="-382" font-family="Helvetica,sans-Serif" font-size="10.00" fill="#000000">gsl/span</text>
</g>
<!-- Node59&#45;&gt;Node70 -->
<g id="edge149" class="edge">
<title>Node59&#45;&gt;Node70</title>
<path fill="none" stroke="#191970" d="M1924.5,-492.3845C1924.5,-473.1913 1924.5,-429.786 1924.5,-404.2663"/>
<polygon fill="#191970" stroke="#191970" points="1928.0001,-404.2483 1924.5,-394.2484 1921.0001,-404.2484 1928.0001,-404.2483"/>
</g>
<!-- Node71 -->
<g id="node72" class="node">
<title>Node71</title>
<g id="a_node72"><a xlink:href="../../da/d08/RawFileWriter_8h.html" target="_top" xlink:title="Utility class to write detectors data to (multiple) raw data file(s) respecting CRU format...">
<polygon fill="none" stroke="#000000" points="1257,-436.5 1257,-455.5 1410,-455.5 1410,-436.5 1257,-436.5"/>
<text text-anchor="middle" x="1333.5" y="-443.5" font-family="Helvetica,sans-Serif" font-size="10.00" fill="#000000">DetectorsRaw/RawFileWriter.h</text>
</a>
</g>
</g>
<!-- Node59&#45;&gt;Node71 -->
<g id="edge127" class="edge">
<title>Node59&#45;&gt;Node71</title>
<path fill="none" stroke="#191970" d="M1852.9174,-495.2172C1744.0731,-484.9037 1537.2631,-465.3075 1420.1077,-454.2065"/>
<polygon fill="#191970" stroke="#191970" points="1420.3827,-450.7169 1410.0971,-453.2579 1419.7223,-457.6857 1420.3827,-450.7169"/>
</g>
<!-- Node60&#45;&gt;Node6 -->
<g id="edge115" class="edge">
<title>Node60&#45;&gt;Node6</title>
<path fill="none" stroke="#191970" d="M2683.8761,-378.1874C2777.6219,-370.2976 2921.495,-355.0896 2971.5,-333 3005.8816,-317.812 3037.7731,-287.0285 3055.6358,-267.6595"/>
<polygon fill="#191970" stroke="#191970" points="3058.3165,-269.9129 3062.3987,-260.1361 3053.1106,-265.2332 3058.3165,-269.9129"/>
</g>
<!-- Node60&#45;&gt;Node7 -->
<g id="edge113" class="edge">
<title>Node60&#45;&gt;Node7</title>
<path fill="none" stroke="#191970" d="M2683.8833,-382.1211C2774.4633,-377.8679 2909.76,-366.016 2948.5,-333 2966.749,-317.4473 2972.3483,-289.2033 2973.9782,-270.1486"/>
<polygon fill="#191970" stroke="#191970" points="2977.473,-270.3389 2974.5448,-260.1567 2970.4842,-269.9425 2977.473,-270.3389"/>
</g>
<!-- Node60&#45;&gt;Node18 -->
<g id="edge114" class="edge">
<title>Node60&#45;&gt;Node18</title>
<path fill="none" stroke="#191970" d="M2613.3096,-374.6651C2625.6085,-365.5276 2642.2237,-350.6884 2649.5,-333 2654.7415,-320.2582 2652.3601,-315.4776 2649.5,-302 2645.8653,-284.8723 2637.1347,-283.1277 2633.5,-266 2630.6399,-252.5224 2632.9661,-248.7674 2633.5,-235 2633.9046,-224.5658 2634.7686,-212.9693 2635.5905,-203.4263"/>
<polygon fill="#191970" stroke="#191970" points="2639.0858,-203.6355 2636.5058,-193.3597 2632.1146,-203.0016 2639.0858,-203.6355"/>
</g>
<!-- Node60&#45;&gt;Node21 -->
<g id="edge117" class="edge">
<title>Node60&#45;&gt;Node21</title>
<path fill="none" stroke="#191970" d="M2604.2688,-374.5675C2612.6488,-358.7809 2626.1846,-327.1756 2616.5,-302 2587.6902,-227.1073 2561.6093,-213.4804 2495.5,-168 2470.8007,-151.0079 2438.9538,-139.1249 2414.4219,-131.6985"/>
<polygon fill="#191970" stroke="#191970" points="2415.3161,-128.3136 2404.7365,-128.881 2413.3608,-135.035 2415.3161,-128.3136"/>
</g>
<!-- Node60&#45;&gt;Node42 -->
<g id="edge116" class="edge">
<title>Node60&#45;&gt;Node42</title>
<path fill="none" stroke="#191970" d="M2528.4052,-374.9111C2497.8452,-367.6935 2463.3939,-355.0673 2438.5,-333 2378.0822,-279.4425 2429.138,-213.5861 2362.5,-168 2332.2887,-147.3329 1782.5353,-127.8124 1640.0172,-123.0835"/>
<polygon fill="#191970" stroke="#191970" points="1639.834,-119.5757 1629.7241,-122.7443 1639.6034,-126.5719 1639.834,-119.5757"/>
</g>
<!-- Node60&#45;&gt;Node50 -->
<g id="edge104" class="edge">
<title>Node60&#45;&gt;Node50</title>
<path fill="none" stroke="#191970" d="M2513.1527,-377.8105C2409.4544,-369.2873 2229.2822,-353.2075 2075.5,-333 2030.0598,-327.029 1710.2778,-284.8438 1668.5,-266 1648.6316,-257.0384 1650.6462,-243.3182 1630.5,-235 1480.6464,-173.1263 1428.8319,-215.0148 1267.5,-199 1243.0909,-196.577 1216.5337,-193.939 1192.3661,-191.5376"/>
<polygon fill="#191970" stroke="#191970" points="1192.4652,-188.0303 1182.1681,-190.5243 1191.773,-194.996 1192.4652,-188.0303"/>
</g>
<!-- Node60&#45;&gt;Node52 -->
<g id="edge112" class="edge">
<title>Node60&#45;&gt;Node52</title>
<path fill="none" stroke="#191970" d="M2545.6417,-374.9995C2498.4512,-365.9791 2427.6968,-351.1234 2367.5,-333 2330.5901,-321.8876 2323.555,-312.6187 2286.5,-302 2228.9491,-285.5078 2162.8308,-272.6181 2111.1595,-263.8588"/>
<polygon fill="#191970" stroke="#191970" points="2111.4653,-260.3614 2101.0247,-262.1622 2110.3095,-267.2653 2111.4653,-260.3614"/>
</g>
<!-- Node61 -->
<g id="node62" class="node">
<title>Node61</title>
<g id="a_node62"><a xlink:href="../../d0/dfe/Detectors_2FIT_2FV0_2base_2include_2FV0Base_2Constants_8h.html" target="_top" xlink:title="FV0Base/Constants.h">
<polygon fill="none" stroke="#000000" points="2752,-241 2752,-260 2865,-260 2865,-241 2752,-241"/>
<text text-anchor="middle" x="2808.5" y="-248" font-family="Helvetica,sans-Serif" font-size="10.00" fill="#000000">FV0Base/Constants.h</text>
</a>
</g>
</g>
<!-- Node60&#45;&gt;Node61 -->
<g id="edge94" class="edge">
<title>Node60&#45;&gt;Node61</title>
<path fill="none" stroke="#191970" d="M2615.7851,-374.9969C2633.8827,-364.9315 2663.0205,-348.3985 2687.5,-333 2722.8042,-310.7923 2762.5475,-283.1699 2786.5444,-266.191"/>
<polygon fill="#191970" stroke="#191970" points="2788.8008,-268.8815 2794.9284,-260.2383 2784.7483,-263.1738 2788.8008,-268.8815"/>
</g>
<!-- Node60&#45;&gt;Node66 -->
<g id="edge101" class="edge">
<title>Node60&#45;&gt;Node66</title>
<path fill="none" stroke="#191970" d="M2588.3274,-374.9005C2577.0447,-364.2535 2558.6399,-346.8856 2545.0258,-334.0385"/>
<polygon fill="#191970" stroke="#191970" points="2547.3288,-331.3994 2537.6537,-327.0817 2542.5246,-336.4905 2547.3288,-331.3994"/>
</g>
<!-- Node60&#45;&gt;Node67 -->
<g id="edge105" class="edge">
<title>Node60&#45;&gt;Node67</title>
<path fill="none" stroke="#191970" d="M2635.4755,-374.9717C2681.7409,-363.0495 2761.0162,-342.6208 2811.5301,-329.6038"/>
<polygon fill="#191970" stroke="#191970" points="2812.4208,-332.9887 2821.2311,-327.1039 2810.674,-326.2101 2812.4208,-332.9887"/>
</g>
<!-- Node62 -->
<g id="node63" class="node">
<title>Node62</title>
<g id="a_node63"><a xlink:href="../../d8/de0/FIT_2FV0_2base_2include_2FV0Base_2Geometry_8h.html" target="_top" xlink:title="FV0Base/Geometry.h">
<polygon fill="none" stroke="#000000" points="2794,-174 2794,-193 2905,-193 2905,-174 2794,-174"/>
<text text-anchor="middle" x="2849.5" y="-181" font-family="Helvetica,sans-Serif" font-size="10.00" fill="#000000">FV0Base/Geometry.h</text>
</a>
</g>
</g>
<!-- Node61&#45;&gt;Node62 -->
<g id="edge95" class="edge">
<title>Node61&#45;&gt;Node62</title>
<path fill="none" stroke="#191970" d="M2814.3743,-240.9005C2820.5852,-230.751 2830.5335,-214.4941 2838.2599,-201.8679"/>
<polygon fill="#191970" stroke="#191970" points="2841.4023,-203.4382 2843.6366,-193.0817 2835.4315,-199.7844 2841.4023,-203.4382"/>
</g>
<!-- Node62&#45;&gt;Node13 -->
<g id="edge96" class="edge">
<title>Node62&#45;&gt;Node13</title>
<path fill="none" stroke="#191970" d="M2814.1875,-173.8906C2770.6056,-162.031 2697.1417,-142.0397 2655.262,-130.6432"/>
<polygon fill="#191970" stroke="#191970" points="2656.1495,-127.2575 2645.5813,-128.0089 2654.3114,-134.0119 2656.1495,-127.2575"/>
</g>
<!-- Node62&#45;&gt;Node22 -->
<g id="edge97" class="edge">
<title>Node62&#45;&gt;Node22</title>
<path fill="none" stroke="#191970" d="M2793.7585,-175.0488C2775.8263,-172.5276 2755.8512,-169.9262 2737.5,-168 2502.1211,-143.294 2216.7033,-127.9476 2125.7872,-123.4132"/>
<polygon fill="#191970" stroke="#191970" points="2125.8411,-119.9117 2115.6806,-122.9139 2125.4957,-126.9031 2125.8411,-119.9117"/>
</g>
<!-- Node63 -->
<g id="node64" class="node">
<title>Node63</title>
<polygon fill="none" stroke="#bfbfbf" points="2714.5,-112.5 2714.5,-131.5 2790.5,-131.5 2790.5,-112.5 2714.5,-112.5"/>
<text text-anchor="middle" x="2752.5" y="-119.5" font-family="Helvetica,sans-Serif" font-size="10.00" fill="#000000">TGeoMatrix.h</text>
</g>
<!-- Node62&#45;&gt;Node63 -->
<g id="edge98" class="edge">
<title>Node62&#45;&gt;Node63</title>
<path fill="none" stroke="#191970" d="M2834.3438,-173.8906C2818.8257,-164.0519 2794.4807,-148.6167 2776.3716,-137.1351"/>
<polygon fill="#191970" stroke="#191970" points="2777.8696,-133.9407 2767.5498,-131.5419 2774.1213,-139.8526 2777.8696,-133.9407"/>
</g>
<!-- Node64 -->
<g id="node65" class="node">
<title>Node64</title>
<polygon fill="none" stroke="#bfbfbf" points="2808.5,-112.5 2808.5,-131.5 2890.5,-131.5 2890.5,-112.5 2808.5,-112.5"/>
<text text-anchor="middle" x="2849.5" y="-119.5" font-family="Helvetica,sans-Serif" font-size="10.00" fill="#000000">TGeoVolume.h</text>
</g>
<!-- Node62&#45;&gt;Node64 -->
<g id="edge99" class="edge">
<title>Node62&#45;&gt;Node64</title>
<path fill="none" stroke="#191970" d="M2849.5,-173.8906C2849.5,-165.3657 2849.5,-152.6392 2849.5,-141.9235"/>
<polygon fill="#191970" stroke="#191970" points="2853.0001,-141.7448 2849.5,-131.7449 2846.0001,-141.7449 2853.0001,-141.7448"/>
</g>
<!-- Node65 -->
<g id="node66" class="node">
<title>Node65</title>
<polygon fill="none" stroke="#bfbfbf" points="2908.5,-112.5 2908.5,-131.5 2982.5,-131.5 2982.5,-112.5 2908.5,-112.5"/>
<text text-anchor="middle" x="2945.5" y="-119.5" font-family="Helvetica,sans-Serif" font-size="10.00" fill="#000000">TVirtualMC.h</text>
</g>
<!-- Node62&#45;&gt;Node65 -->
<g id="edge100" class="edge">
<title>Node62&#45;&gt;Node65</title>
<path fill="none" stroke="#191970" d="M2864.5,-173.8906C2879.8581,-164.0519 2903.9521,-148.6167 2921.8745,-137.1351"/>
<polygon fill="#191970" stroke="#191970" points="2924.073,-139.8833 2930.6053,-131.5419 2920.297,-133.9891 2924.073,-139.8833"/>
</g>
<!-- Node66&#45;&gt;Node21 -->
<g id="edge103" class="edge">
<title>Node66&#45;&gt;Node21</title>
<path fill="none" stroke="#191970" d="M2526.3783,-307.8256C2522.9093,-281.9783 2510.1485,-210.4011 2471.5,-168 2456.2932,-151.3167 2433.7238,-140.0379 2414.3987,-132.8255"/>
<polygon fill="#191970" stroke="#191970" points="2415.5277,-129.5125 2404.9328,-129.5116 2413.2147,-136.1193 2415.5277,-129.5125"/>
</g>
<!-- Node66&#45;&gt;Node22 -->
<g id="edge102" class="edge">
<title>Node66&#45;&gt;Node22</title>
<path fill="none" stroke="#191970" d="M2522.2073,-307.7415C2506.7982,-280.3851 2459.0034,-202.6976 2395.5,-168 2349.2216,-142.714 2191.5546,-128.7925 2125.7358,-123.9658"/>
<polygon fill="#191970" stroke="#191970" points="2125.8564,-120.4656 2115.6324,-123.2439 2125.3575,-127.4478 2125.8564,-120.4656"/>
</g>
<!-- Node67&#45;&gt;Node6 -->
<g id="edge109" class="edge">
<title>Node67&#45;&gt;Node6</title>
<path fill="none" stroke="#191970" d="M2897.5703,-307.9533C2933.9925,-298.6423 2989.5891,-283.3733 3036.5,-266 3038.1311,-265.3959 3039.7935,-264.7483 3041.4628,-264.073"/>
<polygon fill="#191970" stroke="#191970" points="3043.1185,-267.1712 3050.9279,-260.0113 3040.358,-260.7385 3043.1185,-267.1712"/>
</g>
<!-- Node67&#45;&gt;Node7 -->
<g id="edge110" class="edge">
<title>Node67&#45;&gt;Node7</title>
<path fill="none" stroke="#191970" d="M2875.12,-307.9005C2894.5012,-296.7062 2926.7455,-278.0823 2949.2315,-265.0947"/>
<polygon fill="#191970" stroke="#191970" points="2951.002,-268.114 2957.9109,-260.0817 2947.5009,-262.0525 2951.002,-268.114"/>
</g>
<!-- Node67&#45;&gt;Node18 -->
<g id="edge108" class="edge">
<title>Node67&#45;&gt;Node18</title>
<path fill="none" stroke="#191970" d="M2811.662,-307.9598C2780.7849,-300.1343 2740.4807,-286.879 2709.5,-266 2683.8765,-248.7314 2661.7659,-220.1336 2649.0368,-201.5542"/>
<polygon fill="#191970" stroke="#191970" points="2651.8669,-199.4891 2643.4167,-193.098 2646.037,-203.3638 2651.8669,-199.4891"/>
</g>
<!-- Node67&#45;&gt;Node21 -->
<g id="edge106" class="edge">
<title>Node67&#45;&gt;Node21</title>
<path fill="none" stroke="#191970" d="M2864.5326,-307.9435C2874.017,-291.5748 2889.8334,-257.7426 2874.5,-235 2850.6469,-199.621 2823.3687,-218.6623 2785.5,-199 2762.9614,-187.2974 2761.3552,-176.7103 2737.5,-168 2678.7852,-146.5614 2495.173,-130.7829 2414.8096,-124.7224"/>
<polygon fill="#191970" stroke="#191970" points="2414.8623,-121.2167 2404.6302,-123.9652 2414.343,-128.1974 2414.8623,-121.2167"/>
</g>
<!-- Node67&#45;&gt;Node24 -->
<g id="edge107" class="edge">
<title>Node67&#45;&gt;Node24</title>
<path fill="none" stroke="#191970" d="M2825.4686,-307.9221C2800.9872,-299.6547 2767.7946,-285.8801 2743.5,-266 2702.0757,-232.1028 2720.8088,-193.0373 2673.5,-168 2598.5647,-128.3419 1265.6573,-144.4858 1107.4327,-131.2284"/>
<polygon fill="#191970" stroke="#191970" points="1107.5379,-127.7184 1097.2107,-130.0849 1106.7596,-134.675 1107.5379,-127.7184"/>
</g>
<!-- Node67&#45;&gt;Node61 -->
<g id="edge111" class="edge">
<title>Node67&#45;&gt;Node61</title>
<path fill="none" stroke="#191970" d="M2851.3362,-307.9005C2843.6134,-297.552 2831.1524,-280.8542 2821.6563,-268.1295"/>
<polygon fill="#191970" stroke="#191970" points="2824.4364,-266.0027 2815.6505,-260.0817 2818.8264,-270.1893 2824.4364,-266.0027"/>
</g>
<!-- Node68&#45;&gt;Node21 -->
<g id="edge124" class="edge">
<title>Node68&#45;&gt;Node21</title>
<path fill="none" stroke="#191970" d="M2101.8571,-436.4617C2143.5567,-419.9284 2227.8289,-382.8771 2286.5,-333 2343.7309,-284.3473 2365.3249,-270.1199 2389.5,-199 2395.9521,-180.0189 2390.6126,-157.274 2384.9512,-141.4468"/>
<polygon fill="#191970" stroke="#191970" points="2388.0434,-139.747 2381.1213,-131.7261 2381.5307,-142.313 2388.0434,-139.747"/>
</g>
<!-- Node68&#45;&gt;Node52 -->
<g id="edge121" class="edge">
<title>Node68&#45;&gt;Node52</title>
<path fill="none" stroke="#191970" d="M2073.8221,-436.3051C2065.7417,-407.051 2041.4212,-319.0017 2029.3914,-275.4493"/>
<polygon fill="#191970" stroke="#191970" points="2032.7186,-274.3489 2026.6824,-265.6418 2025.9712,-276.2127 2032.7186,-274.3489"/>
</g>
<!-- Node69 -->
<g id="node70" class="node">
<title>Node69</title>
<g id="a_node70"><a xlink:href="../../de/d64/RangeReference_8h.html" target="_top" xlink:title="Class to refer to the 1st entry and N elements of some group in the continuous container. ">
<polygon fill="none" stroke="#000000" points="2084,-308 2084,-327 2277,-327 2277,-308 2084,-308"/>
<text text-anchor="middle" x="2180.5" y="-315" font-family="Helvetica,sans-Serif" font-size="10.00" fill="#000000">CommonDataFormat/RangeReference.h</text>
</a>
</g>
</g>
<!-- Node68&#45;&gt;Node69 -->
<g id="edge122" class="edge">
<title>Node68&#45;&gt;Node69</title>
<path fill="none" stroke="#191970" d="M2084.3169,-436.3416C2101.7083,-414.8533 2143.8195,-362.8216 2166.1086,-335.2817"/>
<polygon fill="#191970" stroke="#191970" points="2169.0219,-337.2455 2172.5924,-327.2705 2163.5806,-332.8417 2169.0219,-337.2455"/>
</g>
<!-- Node68&#45;&gt;Node70 -->
<g id="edge125" class="edge">
<title>Node68&#45;&gt;Node70</title>
<path fill="none" stroke="#191970" d="M2052.75,-436.3906C2027.2061,-426.0554 1986.3991,-409.5447 1957.689,-397.9284"/>
<polygon fill="#191970" stroke="#191970" points="1958.666,-394.5481 1948.0832,-394.0419 1956.0404,-401.0371 1958.666,-394.5481"/>
</g>
<!-- Node69&#45;&gt;Node49 -->
<g id="edge123" class="edge">
<title>Node69&#45;&gt;Node49</title>
<path fill="none" stroke="#191970" d="M2188.6986,-307.8631C2207.7605,-285.4569 2255.2862,-229.5934 2279.6241,-200.9857"/>
<polygon fill="#191970" stroke="#191970" points="2282.5617,-202.9342 2286.3757,-193.0496 2277.2301,-198.3983 2282.5617,-202.9342"/>
</g>
<!-- Node71&#45;&gt;Node4 -->
<g id="edge138" class="edge">
<title>Node71&#45;&gt;Node4</title>
<path fill="none" stroke="#191970" d="M1256.7939,-438.6048C1189.1434,-431.3166 1088.1269,-418.5633 1001.5,-400 997.1103,-399.0593 992.5532,-397.9442 988.0367,-396.7498"/>
<polygon fill="#191970" stroke="#191970" points="988.867,-393.348 978.2952,-394.0457 986.9947,-400.093 988.867,-393.348"/>
</g>
<!-- Node71&#45;&gt;Node5 -->
<g id="edge132" class="edge">
<title>Node71&#45;&gt;Node5</title>
<path fill="none" stroke="#191970" d="M1256.7176,-436.6794C1191.6535,-428.0227 1103.9136,-414.3413 1071.5,-400 1050.9316,-390.8996 1049.9346,-381.8857 1031.5,-369 960.9537,-319.6886 937.4248,-316.1888 867.5,-266 849.793,-253.2908 849.4036,-243.8831 829.5,-235 735.0162,-192.8313 688.0089,-252.5869 599.5,-199 576.8111,-185.2632 560.2712,-158.7617 551.0236,-140.7287"/>
<polygon fill="#191970" stroke="#191970" points="554.1627,-139.1806 546.6435,-131.7165 547.8669,-142.2405 554.1627,-139.1806"/>
</g>
<!-- Node71&#45;&gt;Node13 -->
<g id="edge130" class="edge">
<title>Node71&#45;&gt;Node13</title>
<path fill="none" stroke="#191970" d="M1410.1798,-443.2208C1501.9242,-438.7717 1659.7807,-427.5406 1792.5,-400 1836.8151,-390.8041 1845.1419,-377.9863 1889.5,-369 2063.141,-333.8228 2118.6015,-389.5573 2286.5,-333 2420.7229,-287.7864 2556.2725,-179.5066 2604.7999,-138.2984"/>
<polygon fill="#191970" stroke="#191970" points="2607.2657,-140.7947 2612.5805,-131.6293 2602.7101,-135.4798 2607.2657,-140.7947"/>
</g>
<!-- Node71&#45;&gt;Node14 -->
<g id="edge131" class="edge">
<title>Node71&#45;&gt;Node14</title>
<path fill="none" stroke="#191970" d="M1280.6645,-436.4283C1259.8966,-429.8195 1238.0578,-418.6934 1225.5,-400 1201.2107,-363.8432 1205.9527,-341.4117 1224.5,-302 1231.2989,-287.5529 1312.6426,-227.8609 1352.6125,-199.113"/>
<polygon fill="#191970" stroke="#191970" points="1354.8346,-201.8264 1360.9211,-193.1543 1350.7551,-196.138 1354.8346,-201.8264"/>
</g>
<!-- Node71&#45;&gt;Node15 -->
<g id="edge129" class="edge">
<title>Node71&#45;&gt;Node15</title>
<path fill="none" stroke="#191970" d="M1391.522,-436.482C1412.945,-429.9036 1435.2149,-418.7855 1448.5,-400 1473.67,-364.409 1443.4472,-344.6415 1452.5,-302 1460.3072,-265.2254 1478.4465,-225.0808 1489.7693,-202.2291"/>
<polygon fill="#191970" stroke="#191970" points="1492.9018,-203.7904 1494.2927,-193.2873 1486.6556,-200.6306 1492.9018,-203.7904"/>
</g>
<!-- Node71&#45;&gt;Node21 -->
<g id="edge136" class="edge">
<title>Node71&#45;&gt;Node21</title>
<path fill="none" stroke="#191970" d="M1410.4213,-440.4593C1509.8626,-432.7372 1677.2897,-417.6789 1736.5,-400 1799.9213,-381.0638 1821.1048,-378.1524 1869.5,-333 1931.8643,-274.8145 1895.8498,-214.2722 1967.5,-168 1998.3086,-148.1036 2242.7514,-130.5347 2338.3584,-124.3566"/>
<polygon fill="#191970" stroke="#191970" points="2338.7077,-127.8415 2348.4639,-123.7103 2338.2609,-120.8558 2338.7077,-127.8415"/>
</g>
<!-- Node71&#45;&gt;Node26 -->
<g id="edge133" class="edge">
<title>Node71&#45;&gt;Node26</title>
<path fill="none" stroke="#191970" d="M1256.9487,-438.112C1183.3438,-429.7953 1077.7876,-415.7347 1039.5,-400 1017.7087,-391.0446 1017.0329,-380.5526 996.5,-369 913.9981,-322.5811 809.6765,-283.0443 754.5945,-263.5275"/>
<polygon fill="#191970" stroke="#191970" points="755.4937,-260.1337 744.8988,-260.1191 753.1721,-266.7375 755.4937,-260.1337"/>
</g>
<!-- Node71&#45;&gt;Node40 -->
<g id="edge140" class="edge">
<title>Node71&#45;&gt;Node40</title>
<path fill="none" stroke="#191970" d="M1256.8777,-438.554C1214.9648,-432.281 1163.0639,-420.8225 1120.5,-400 1059.569,-370.1922 1060.3311,-339.0313 1003.5,-302 947.0459,-265.2143 930.6825,-258.4139 867.5,-235 821.009,-217.7715 766.3884,-204.129 725.9857,-195.2253"/>
<polygon fill="#191970" stroke="#191970" points="726.5488,-191.766 716.0338,-193.0644 725.0634,-198.6066 726.5488,-191.766"/>
</g>
<!-- Node71&#45;&gt;Node47 -->
<g id="edge142" class="edge">
<title>Node71&#45;&gt;Node47</title>
<path fill="none" stroke="#191970" d="M1384.3901,-436.4581C1442.7695,-425.512 1538.4321,-407.5752 1600.6861,-395.9026"/>
<polygon fill="#191970" stroke="#191970" points="1601.5767,-399.2967 1610.7604,-394.0137 1600.2866,-392.4166 1601.5767,-399.2967"/>
</g>
<!-- Node71&#45;&gt;Node48 -->
<g id="edge143" class="edge">
<title>Node71&#45;&gt;Node48</title>
<path fill="none" stroke="#191970" d="M1379.0736,-436.49C1399.0546,-429.8122 1420.624,-418.6135 1432.5,-400 1439.9107,-388.385 1440.2727,-380.3759 1432.5,-369 1422.427,-354.2574 1381.3311,-339.6742 1347.6359,-329.8104"/>
<polygon fill="#191970" stroke="#191970" points="1348.4875,-326.4137 1337.9107,-327.0317 1346.5644,-333.1444 1348.4875,-326.4137"/>
</g>
<!-- Node71&#45;&gt;Node50 -->
<g id="edge139" class="edge">
<title>Node71&#45;&gt;Node50</title>
<path fill="none" stroke="#191970" d="M1285.8742,-436.4191C1260.3679,-429.5029 1229.5485,-418.1112 1206.5,-400 1150.2842,-355.8266 1140.6294,-333.6501 1117.5,-266 1110.5544,-245.6852 1109.6748,-220.9619 1110.1451,-203.9071"/>
<polygon fill="#191970" stroke="#191970" points="1113.6618,-203.6248 1110.6283,-193.4735 1106.6693,-203.3009 1113.6618,-203.6248"/>
</g>
<!-- Node71&#45;&gt;Node55 -->
<g id="edge141" class="edge">
<title>Node71&#45;&gt;Node55</title>
<path fill="none" stroke="#191970" d="M1279.3963,-436.4559C1234.1397,-427.7037 1173.8121,-414.0089 1153.5,-400 1109.6493,-369.7569 1122.7255,-339.099 1084.5,-302 1069.4121,-287.3567 1049.6158,-274.3435 1033.7424,-265.0615"/>
<polygon fill="#191970" stroke="#191970" points="1035.3381,-261.9427 1024.9149,-260.0435 1031.8787,-268.0282 1035.3381,-261.9427"/>
</g>
<!-- Node71&#45;&gt;Node70 -->
<g id="edge128" class="edge">
<title>Node71&#45;&gt;Node70</title>
<path fill="none" stroke="#191970" d="M1410.1913,-442.2206C1539.5308,-435.4055 1795.532,-419.897 1883.5,-400 1886.6916,-399.2781 1889.9677,-398.3614 1893.21,-397.3358"/>
<polygon fill="#191970" stroke="#191970" points="1894.4287,-400.6175 1902.7167,-394.0175 1892.1219,-394.0085 1894.4287,-400.6175"/>
</g>
<!-- Node72 -->
<g id="node73" class="node">
<title>Node72</title>
<polygon fill="none" stroke="#bfbfbf" points="1234,-375 1234,-394 1293,-394 1293,-375 1234,-375"/>
<text text-anchor="middle" x="1263.5" y="-382" font-family="Helvetica,sans-Serif" font-size="10.00" fill="#000000">functional</text>
</g>
<!-- Node71&#45;&gt;Node72 -->
<g id="edge134" class="edge">
<title>Node71&#45;&gt;Node72</title>
<path fill="none" stroke="#191970" d="M1322.5625,-436.3906C1311.838,-426.9683 1295.2713,-412.4134 1282.4099,-401.1137"/>
<polygon fill="#191970" stroke="#191970" points="1284.4143,-398.2158 1274.5917,-394.2449 1279.7941,-403.4745 1284.4143,-398.2158"/>
</g>
<!-- Node73 -->
<g id="node74" class="node">
<title>Node73</title>
<polygon fill="none" stroke="#bfbfbf" points="1311.5,-375 1311.5,-394 1355.5,-394 1355.5,-375 1311.5,-375"/>
<text text-anchor="middle" x="1333.5" y="-382" font-family="Helvetica,sans-Serif" font-size="10.00" fill="#000000">mutex</text>
</g>
<!-- Node71&#45;&gt;Node73 -->
<g id="edge135" class="edge">
<title>Node71&#45;&gt;Node73</title>
<path fill="none" stroke="#191970" d="M1333.5,-436.3906C1333.5,-427.8657 1333.5,-415.1392 1333.5,-404.4235"/>
<polygon fill="#191970" stroke="#191970" points="1337.0001,-404.2448 1333.5,-394.2449 1330.0001,-404.2449 1337.0001,-404.2448"/>
</g>
<!-- Node74 -->
<g id="node75" class="node">
<title>Node74</title>
<polygon fill="none" stroke="#bfbfbf" points="1373.5,-375 1373.5,-394 1423.5,-394 1423.5,-375 1373.5,-375"/>
<text text-anchor="middle" x="1398.5" y="-382" font-family="Helvetica,sans-Serif" font-size="10.00" fill="#000000">TTree.h</text>
</g>
<!-- Node71&#45;&gt;Node74 -->
<g id="edge137" class="edge">
<title>Node71&#45;&gt;Node74</title>
<path fill="none" stroke="#191970" d="M1343.6563,-436.3906C1353.5199,-427.0581 1368.7055,-412.6902 1380.5987,-401.4374"/>
<polygon fill="#191970" stroke="#191970" points="1383.3421,-403.6601 1388.2006,-394.2449 1378.5311,-398.5753 1383.3421,-403.6601"/>
</g>
</g>
</svg>
