<?xml version="1.0" encoding="UTF-8" standalone="no"?>
<!DOCTYPE svg PUBLIC "-//W3C//DTD SVG 1.1//EN"
 "http://www.w3.org/Graphics/SVG/1.1/DTD/svg11.dtd">
<!-- Generated by graphviz version 2.40.1 (20161225.0304)
 -->
<!-- Title: /home/runner/work/AliceO2/AliceO2/Detectors/Base/include/DetectorsBase/MaterialManager.h Pages: 1 -->
<svg width="373pt" height="117pt"
 viewBox="0.00 0.00 372.50 117.00" xmlns="http://www.w3.org/2000/svg" xmlns:xlink="http://www.w3.org/1999/xlink">
<g id="graph0" class="graph" transform="scale(1 1) rotate(0) translate(4 113)">
<title>/home/runner/work/AliceO2/AliceO2/Detectors/Base/include/DetectorsBase/MaterialManager.h</title>
<!-- Node0 -->
<g id="node1" class="node">
<title>Node0</title>
<polygon fill="#bfbfbf" stroke="#000000" points="91,-56.5 91,-108.5 247,-108.5 247,-56.5 91,-56.5"/>
<text text-anchor="start" x="99" y="-96.5" font-family="Helvetica,sans-Serif" font-size="10.00" fill="#000000">/home/runner/work/AliceO2</text>
<text text-anchor="start" x="99" y="-85.5" font-family="Helvetica,sans-Serif" font-size="10.00" fill="#000000">/AliceO2/Detectors/Base</text>
<text text-anchor="start" x="99" y="-74.5" font-family="Helvetica,sans-Serif" font-size="10.00" fill="#000000">/include/DetectorsBase/Material</text>
<text text-anchor="middle" x="169" y="-63.5" font-family="Helvetica,sans-Serif" font-size="10.00" fill="#000000">Manager.h</text>
</g>
<!-- Node1 -->
<g id="node2" class="node">
<title>Node1</title>
<polygon fill="none" stroke="#bfbfbf" points="0,-.5 0,-19.5 56,-19.5 56,-.5 0,-.5"/>
<text text-anchor="middle" x="28" y="-7.5" font-family="Helvetica,sans-Serif" font-size="10.00" fill="#000000">Rtypes.h</text>
</g>
<!-- Node0&#45;&gt;Node1 -->
<g id="edge1" class="edge">
<title>Node0&#45;&gt;Node1</title>
<path fill="none" stroke="#191970" d="M118.0958,-56.3258C97.0638,-45.5115 73.5043,-33.3976 55.7532,-24.2703"/>
<polygon fill="#191970" stroke="#191970" points="57.0357,-20.9942 46.542,-19.534 53.8348,-27.2195 57.0357,-20.9942"/>
</g>
<!-- Node2 -->
<g id="node3" class="node">
<title>Node2</title>
<polygon fill="none" stroke="#bfbfbf" points="74.5,-.5 74.5,-19.5 109.5,-19.5 109.5,-.5 74.5,-.5"/>
<text text-anchor="middle" x="92" y="-7.5" font-family="Helvetica,sans-Serif" font-size="10.00" fill="#000000">map</text>
</g>
<!-- Node0&#45;&gt;Node2 -->
<g id="edge2" class="edge">
<title>Node0&#45;&gt;Node2</title>
<path fill="none" stroke="#191970" d="M141.2012,-56.3258C130.6728,-46.4127 118.9846,-35.4075 109.6429,-26.6118"/>
<polygon fill="#191970" stroke="#191970" points="111.8057,-23.8409 102.1258,-19.534 107.0071,-28.9374 111.8057,-23.8409"/>
</g>
<!-- Node3 -->
<g id="node4" class="node">
<title>Node3</title>
<polygon fill="none" stroke="#bfbfbf" points="127.5,-.5 127.5,-19.5 210.5,-19.5 210.5,-.5 127.5,-.5"/>
<text text-anchor="middle" x="169" y="-7.5" font-family="Helvetica,sans-Serif" font-size="10.00" fill="#000000">unordered_map</text>
</g>
<!-- Node0&#45;&gt;Node3 -->
<g id="edge3" class="edge">
<title>Node0&#45;&gt;Node3</title>
<path fill="none" stroke="#191970" d="M169,-56.3258C169,-47.5142 169,-37.8397 169,-29.621"/>
<polygon fill="#191970" stroke="#191970" points="172.5001,-29.534 169,-19.534 165.5001,-29.534 172.5001,-29.534"/>
</g>
<!-- Node4 -->
<g id="node5" class="node">
<title>Node4</title>
<polygon fill="none" stroke="#bfbfbf" points="228.5,-.5 228.5,-19.5 301.5,-19.5 301.5,-.5 228.5,-.5"/>
<text text-anchor="middle" x="265" y="-7.5" font-family="Helvetica,sans-Serif" font-size="10.00" fill="#000000">initializer_list</text>
</g>
<!-- Node0&#45;&gt;Node4 -->
<g id="edge4" class="edge">
<title>Node0&#45;&gt;Node4</title>
<path fill="none" stroke="#191970" d="M203.6582,-56.3258C217.1823,-46.1123 232.2414,-34.7396 244.0543,-25.8184"/>
<polygon fill="#191970" stroke="#191970" points="246.505,-28.3536 252.3757,-19.534 242.2863,-22.7676 246.505,-28.3536"/>
</g>
<!-- Node5 -->
<g id="node6" class="node">
<title>Node5</title>
<polygon fill="none" stroke="#bfbfbf" points="319.5,-.5 319.5,-19.5 364.5,-19.5 364.5,-.5 319.5,-.5"/>
<text text-anchor="middle" x="342" y="-7.5" font-family="Helvetica,sans-Serif" font-size="10.00" fill="#000000">iosfwd</text>
</g>
<!-- Node0&#45;&gt;Node5 -->
<g id="edge5" class="edge">
<title>Node0&#45;&gt;Node5</title>
<path fill="none" stroke="#191970" d="M231.457,-56.3258C257.979,-45.2111 287.7768,-32.7236 309.7465,-23.5167"/>
<polygon fill="#191970" stroke="#191970" points="311.3798,-26.6271 319.2499,-19.534 308.6742,-20.1711 311.3798,-26.6271"/>
</g>
</g>
</svg>
