<?xml version="1.0" encoding="UTF-8" standalone="no"?>
<!DOCTYPE svg PUBLIC "-//W3C//DTD SVG 1.1//EN"
 "http://www.w3.org/Graphics/SVG/1.1/DTD/svg11.dtd">
<!-- Generated by graphviz version 2.40.1 (20161225.0304)
 -->
<!-- Title: /home/runner/work/AliceO2/AliceO2/Utilities/O2Device/include/O2Device/O2Device.h Pages: 1 -->
<svg width="2987pt" height="217pt"
 viewBox="0.00 0.00 2987.00 217.00" xmlns="http://www.w3.org/2000/svg" xmlns:xlink="http://www.w3.org/1999/xlink">
<g id="graph0" class="graph" transform="scale(1 1) rotate(0) translate(4 213)">
<title>/home/runner/work/AliceO2/AliceO2/Utilities/O2Device/include/O2Device/O2Device.h</title>
<!-- Node31 -->
<g id="node1" class="node">
<title>Node31</title>
<polygon fill="#bfbfbf" stroke="#000000" points="1639.5,-167.5 1639.5,-208.5 1791.5,-208.5 1791.5,-167.5 1639.5,-167.5"/>
<text text-anchor="start" x="1647.5" y="-196.5" font-family="Helvetica,sans-Serif" font-size="10.00" fill="#000000">/home/runner/work/AliceO2</text>
<text text-anchor="start" x="1647.5" y="-185.5" font-family="Helvetica,sans-Serif" font-size="10.00" fill="#000000">/AliceO2/Utilities/O2Device</text>
<text text-anchor="middle" x="1715.5" y="-174.5" font-family="Helvetica,sans-Serif" font-size="10.00" fill="#000000">/include/O2Device/O2Device.h</text>
</g>
<!-- Node32 -->
<g id="node2" class="node">
<title>Node32</title>
<g id="a_node2"><a xlink:href="../../d4/d98/FakeTimeframeGeneratorDevice_8h.html" target="_top" xlink:title="/home/runner/work/AliceO2\l/AliceO2/Utilities/DataFlow\l/include/DataFlow/FakeTimeframeGenerator\lDevice.h">
<polygon fill="none" stroke="#000000" points="216,-78.5 216,-130.5 425,-130.5 425,-78.5 216,-78.5"/>
<text text-anchor="start" x="224" y="-118.5" font-family="Helvetica,sans-Serif" font-size="10.00" fill="#000000">/home/runner/work/AliceO2</text>
<text text-anchor="start" x="224" y="-107.5" font-family="Helvetica,sans-Serif" font-size="10.00" fill="#000000">/AliceO2/Utilities/DataFlow</text>
<text text-anchor="start" x="224" y="-96.5" font-family="Helvetica,sans-Serif" font-size="10.00" fill="#000000">/include/DataFlow/FakeTimeframeGenerator</text>
<text text-anchor="middle" x="320.5" y="-85.5" font-family="Helvetica,sans-Serif" font-size="10.00" fill="#000000">Device.h</text>
</a>
</g>
</g>
<!-- Node31&#45;&gt;Node32 -->
<g id="edge1" class="edge">
<title>Node31&#45;&gt;Node32</title>
<path fill="none" stroke="#191970" d="M1628.9583,-185.3787C1437.565,-179.2133 963.9826,-161.9312 568.5,-131 521.3381,-127.3114 469.2633,-121.9448 425.058,-117.0043"/>
<polygon fill="#191970" stroke="#191970" points="1629.1268,-188.8858 1639.2337,-185.7078 1629.3509,-181.8894 1629.1268,-188.8858"/>
</g>
<!-- Node35 -->
<g id="node5" class="node">
<title>Node35</title>
<g id="a_node5"><a xlink:href="../../d3/dfe/HeartbeatSampler_8h.html" target="_top" xlink:title="/home/runner/work/AliceO2\l/AliceO2/Utilities/DataFlow\l/include/DataFlow/HeartbeatSampler.h">
<polygon fill="none" stroke="#000000" points="578,-84 578,-125 763,-125 763,-84 578,-84"/>
<text text-anchor="start" x="586" y="-113" font-family="Helvetica,sans-Serif" font-size="10.00" fill="#000000">/home/runner/work/AliceO2</text>
<text text-anchor="start" x="586" y="-102" font-family="Helvetica,sans-Serif" font-size="10.00" fill="#000000">/AliceO2/Utilities/DataFlow</text>
<text text-anchor="middle" x="670.5" y="-91" font-family="Helvetica,sans-Serif" font-size="10.00" fill="#000000">/include/DataFlow/HeartbeatSampler.h</text>
</a>
</g>
</g>
<!-- Node31&#45;&gt;Node35 -->
<g id="edge4" class="edge">
<title>Node31&#45;&gt;Node35</title>
<path fill="none" stroke="#191970" d="M1629.1338,-182.8637C1482.5013,-173.9138 1175.5376,-154.1844 916.5,-131 865.8005,-126.4623 809.3278,-120.4474 763.2898,-115.2952"/>
<polygon fill="#191970" stroke="#191970" points="1629.2172,-186.3752 1639.4115,-183.4894 1629.6426,-179.3881 1629.2172,-186.3752"/>
</g>
<!-- Node38 -->
<g id="node8" class="node">
<title>Node38</title>
<g id="a_node8"><a xlink:href="../../d0/d82/SubframeBuilderDevice_8h.html" target="_top" xlink:title="Demonstrator device for a subframe builder. ">
<polygon fill="none" stroke="#000000" points="926,-84 926,-125 1135,-125 1135,-84 926,-84"/>
<text text-anchor="start" x="934" y="-113" font-family="Helvetica,sans-Serif" font-size="10.00" fill="#000000">/home/runner/work/AliceO2</text>
<text text-anchor="start" x="934" y="-102" font-family="Helvetica,sans-Serif" font-size="10.00" fill="#000000">/AliceO2/Utilities/DataFlow</text>
<text text-anchor="middle" x="1030.5" y="-91" font-family="Helvetica,sans-Serif" font-size="10.00" fill="#000000">/include/DataFlow/SubframeBuilderDevice.h</text>
</a>
</g>
</g>
<!-- Node31&#45;&gt;Node38 -->
<g id="edge7" class="edge">
<title>Node31&#45;&gt;Node38</title>
<path fill="none" stroke="#191970" d="M1629.2776,-177.4897C1503.6185,-162.1721 1270.447,-133.749 1135.1341,-117.2547"/>
<polygon fill="#191970" stroke="#191970" points="1628.896,-180.969 1639.246,-178.7048 1629.743,-174.0204 1628.896,-180.969"/>
</g>
<!-- Node41 -->
<g id="node11" class="node">
<title>Node41</title>
<g id="a_node11"><a xlink:href="../../da/d74/TimeframeReaderDevice_8h.html" target="_top" xlink:title="/home/runner/work/AliceO2\l/AliceO2/Utilities/DataFlow\l/include/DataFlow/TimeframeReaderDevice.h">
<polygon fill="none" stroke="#000000" points="1284,-84 1284,-125 1499,-125 1499,-84 1284,-84"/>
<text text-anchor="start" x="1292" y="-113" font-family="Helvetica,sans-Serif" font-size="10.00" fill="#000000">/home/runner/work/AliceO2</text>
<text text-anchor="start" x="1292" y="-102" font-family="Helvetica,sans-Serif" font-size="10.00" fill="#000000">/AliceO2/Utilities/DataFlow</text>
<text text-anchor="middle" x="1391.5" y="-91" font-family="Helvetica,sans-Serif" font-size="10.00" fill="#000000">/include/DataFlow/TimeframeReaderDevice.h</text>
</a>
</g>
</g>
<!-- Node31&#45;&gt;Node41 -->
<g id="edge10" class="edge">
<title>Node31&#45;&gt;Node41</title>
<path fill="none" stroke="#191970" d="M1629.1735,-165.7523C1580.1544,-153.1193 1519.2128,-137.4136 1471.3122,-125.0689"/>
<polygon fill="#191970" stroke="#191970" points="1628.5697,-169.211 1639.1268,-168.3174 1630.3167,-162.4325 1628.5697,-169.211"/>
</g>
<!-- Node44 -->
<g id="node14" class="node">
<title>Node44</title>
<g id="a_node14"><a xlink:href="../../d3/da5/TimeframeValidatorDevice_8h.html" target="_top" xlink:title="/home/runner/work/AliceO2\l/AliceO2/Utilities/DataFlow\l/include/DataFlow/TimeframeValidator\lDevice.h">
<polygon fill="none" stroke="#000000" points="1517,-78.5 1517,-130.5 1700,-130.5 1700,-78.5 1517,-78.5"/>
<text text-anchor="start" x="1525" y="-118.5" font-family="Helvetica,sans-Serif" font-size="10.00" fill="#000000">/home/runner/work/AliceO2</text>
<text text-anchor="start" x="1525" y="-107.5" font-family="Helvetica,sans-Serif" font-size="10.00" fill="#000000">/AliceO2/Utilities/DataFlow</text>
<text text-anchor="start" x="1525" y="-96.5" font-family="Helvetica,sans-Serif" font-size="10.00" fill="#000000">/include/DataFlow/TimeframeValidator</text>
<text text-anchor="middle" x="1608.5" y="-85.5" font-family="Helvetica,sans-Serif" font-size="10.00" fill="#000000">Device.h</text>
</a>
</g>
</g>
<!-- Node31&#45;&gt;Node44 -->
<g id="edge13" class="edge">
<title>Node31&#45;&gt;Node44</title>
<path fill="none" stroke="#191970" d="M1681.0766,-161.1369C1668.537,-151.3513 1654.3885,-140.3102 1641.9359,-130.5925"/>
<polygon fill="#191970" stroke="#191970" points="1679.0137,-163.9666 1689.0506,-167.3595 1683.3202,-158.4481 1679.0137,-163.9666"/>
</g>
<!-- Node47 -->
<g id="node17" class="node">
<title>Node47</title>
<g id="a_node17"><a xlink:href="../../dd/dcc/TimeframeWriterDevice_8h.html" target="_top" xlink:title="/home/runner/work/AliceO2\l/AliceO2/Utilities/DataFlow\l/include/DataFlow/TimeframeWriterDevice.h">
<polygon fill="none" stroke="#000000" points="1718.5,-84 1718.5,-125 1928.5,-125 1928.5,-84 1718.5,-84"/>
<text text-anchor="start" x="1726.5" y="-113" font-family="Helvetica,sans-Serif" font-size="10.00" fill="#000000">/home/runner/work/AliceO2</text>
<text text-anchor="start" x="1726.5" y="-102" font-family="Helvetica,sans-Serif" font-size="10.00" fill="#000000">/AliceO2/Utilities/DataFlow</text>
<text text-anchor="middle" x="1823.5" y="-91" font-family="Helvetica,sans-Serif" font-size="10.00" fill="#000000">/include/DataFlow/TimeframeWriterDevice.h</text>
</a>
</g>
</g>
<!-- Node31&#45;&gt;Node47 -->
<g id="edge16" class="edge">
<title>Node31&#45;&gt;Node47</title>
<path fill="none" stroke="#191970" d="M1750.2923,-161.1004C1765.3532,-149.4561 1782.7061,-136.0397 1796.7362,-125.1924"/>
<polygon fill="#191970" stroke="#191970" points="1747.9671,-158.474 1742.1966,-167.3595 1752.2487,-164.0119 1747.9671,-158.474"/>
</g>
<!-- Node50 -->
<g id="node20" class="node">
<title>Node50</title>
<g id="a_node20"><a xlink:href="../../dc/d31/O2Device_8cxx.html" target="_top" xlink:title="/home/runner/work/AliceO2\l/AliceO2/Utilities/O2Device\l/src/O2Device.cxx">
<polygon fill="none" stroke="#000000" points="1947,-84 1947,-125 2084,-125 2084,-84 1947,-84"/>
<text text-anchor="start" x="1955" y="-113" font-family="Helvetica,sans-Serif" font-size="10.00" fill="#000000">/home/runner/work/AliceO2</text>
<text text-anchor="start" x="1955" y="-102" font-family="Helvetica,sans-Serif" font-size="10.00" fill="#000000">/AliceO2/Utilities/O2Device</text>
<text text-anchor="middle" x="2015.5" y="-91" font-family="Helvetica,sans-Serif" font-size="10.00" fill="#000000">/src/O2Device.cxx</text>
</a>
</g>
</g>
<!-- Node31&#45;&gt;Node50 -->
<g id="edge19" class="edge">
<title>Node31&#45;&gt;Node50</title>
<path fill="none" stroke="#191970" d="M1801.4367,-167.5552C1842.7776,-157.308 1892.9257,-144.2733 1937.5,-131 1943.6682,-129.1632 1950.078,-127.1534 1956.4539,-125.0881"/>
<polygon fill="#191970" stroke="#191970" points="1800.5416,-164.171 1791.6712,-169.9647 1802.2185,-170.9672 1800.5416,-164.171"/>
</g>
<!-- Node51 -->
<g id="node21" class="node">
<title>Node51</title>
<g id="a_node21"><a xlink:href="../../d5/d39/test__O2Device_8cxx.html" target="_top" xlink:title="/home/runner/work/AliceO2\l/AliceO2/Utilities/O2Device\l/test/test_O2Device.cxx">
<polygon fill="none" stroke="#000000" points="2102,-84 2102,-125 2239,-125 2239,-84 2102,-84"/>
<text text-anchor="start" x="2110" y="-113" font-family="Helvetica,sans-Serif" font-size="10.00" fill="#000000">/home/runner/work/AliceO2</text>
<text text-anchor="start" x="2110" y="-102" font-family="Helvetica,sans-Serif" font-size="10.00" fill="#000000">/AliceO2/Utilities/O2Device</text>
<text text-anchor="middle" x="2170.5" y="-91" font-family="Helvetica,sans-Serif" font-size="10.00" fill="#000000">/test/test_O2Device.cxx</text>
</a>
</g>
</g>
<!-- Node31&#45;&gt;Node51 -->
<g id="edge20" class="edge">
<title>Node31&#45;&gt;Node51</title>
<path fill="none" stroke="#191970" d="M1801.8605,-179.3571C1878.8253,-170.6124 1994.1684,-154.9366 2092.5,-131 2099.448,-129.3087 2106.6575,-127.2671 2113.7611,-125.0767"/>
<polygon fill="#191970" stroke="#191970" points="1801.2785,-175.9004 1791.7309,-180.4932 1802.0587,-182.8568 1801.2785,-175.9004"/>
</g>
<!-- Node52 -->
<g id="node22" class="node">
<title>Node52</title>
<g id="a_node22"><a xlink:href="../../de/d29/O2MessageMonitor_8h.html" target="_top" xlink:title="/home/runner/work/AliceO2\l/AliceO2/Utilities/O2MessageMonitor\l/include/O2MessageMonitor/O2MessageMonitor.h">
<polygon fill="none" stroke="#000000" points="2257.5,-84 2257.5,-125 2491.5,-125 2491.5,-84 2257.5,-84"/>
<text text-anchor="start" x="2265.5" y="-113" font-family="Helvetica,sans-Serif" font-size="10.00" fill="#000000">/home/runner/work/AliceO2</text>
<text text-anchor="start" x="2265.5" y="-102" font-family="Helvetica,sans-Serif" font-size="10.00" fill="#000000">/AliceO2/Utilities/O2MessageMonitor</text>
<text text-anchor="middle" x="2374.5" y="-91" font-family="Helvetica,sans-Serif" font-size="10.00" fill="#000000">/include/O2MessageMonitor/O2MessageMonitor.h</text>
</a>
</g>
</g>
<!-- Node31&#45;&gt;Node52 -->
<g id="edge21" class="edge">
<title>Node31&#45;&gt;Node52</title>
<path fill="none" stroke="#191970" d="M1801.8539,-181.3924C1907.3856,-172.7092 2091.2094,-155.6167 2247.5,-131 2258.5134,-129.2653 2270.0159,-127.2107 2281.4067,-125.0247"/>
<polygon fill="#191970" stroke="#191970" points="1801.2576,-177.9294 1791.5757,-182.2319 1801.8274,-184.9062 1801.2576,-177.9294"/>
</g>
<!-- Node55 -->
<g id="node25" class="node">
<title>Node55</title>
<g id="a_node25"><a xlink:href="../../d8/d9b/DataPublisherDevice_8h.html" target="_top" xlink:title="Utility device for data publishing. ">
<polygon fill="none" stroke="#000000" points="2625,-84 2625,-125 2828,-125 2828,-84 2625,-84"/>
<text text-anchor="start" x="2633" y="-113" font-family="Helvetica,sans-Serif" font-size="10.00" fill="#000000">/home/runner/work/AliceO2</text>
<text text-anchor="start" x="2633" y="-102" font-family="Helvetica,sans-Serif" font-size="10.00" fill="#000000">/AliceO2/Utilities/Publishers</text>
<text text-anchor="middle" x="2726.5" y="-91" font-family="Helvetica,sans-Serif" font-size="10.00" fill="#000000">/include/Publishers/DataPublisherDevice.h</text>
</a>
</g>
</g>
<!-- Node31&#45;&gt;Node55 -->
<g id="edge24" class="edge">
<title>Node31&#45;&gt;Node55</title>
<path fill="none" stroke="#191970" d="M1801.791,-182.9868C1946.4395,-174.3024 2246.9335,-155.0602 2500.5,-131 2541.2048,-127.1376 2585.937,-122.0668 2624.7866,-117.3959"/>
<polygon fill="#191970" stroke="#191970" points="1801.4214,-179.5025 1791.6484,-183.5937 1801.8396,-186.49 1801.4214,-179.5025"/>
</g>
<!-- Node33 -->
<g id="node3" class="node">
<title>Node33</title>
<g id="a_node3"><a xlink:href="../../d6/d3d/FakeTimeframeGeneratorDevice_8cxx.html" target="_top" xlink:title="/home/runner/work/AliceO2\l/AliceO2/Utilities/DataFlow\l/src/FakeTimeframeGeneratorDevice.cxx">
<polygon fill="none" stroke="#000000" points="0,-.5 0,-41.5 197,-41.5 197,-.5 0,-.5"/>
<text text-anchor="start" x="8" y="-29.5" font-family="Helvetica,sans-Serif" font-size="10.00" fill="#000000">/home/runner/work/AliceO2</text>
<text text-anchor="start" x="8" y="-18.5" font-family="Helvetica,sans-Serif" font-size="10.00" fill="#000000">/AliceO2/Utilities/DataFlow</text>
<text text-anchor="middle" x="98.5" y="-7.5" font-family="Helvetica,sans-Serif" font-size="10.00" fill="#000000">/src/FakeTimeframeGeneratorDevice.cxx</text>
</a>
</g>
</g>
<!-- Node32&#45;&gt;Node33 -->
<g id="edge2" class="edge">
<title>Node32&#45;&gt;Node33</title>
<path fill="none" stroke="#191970" d="M241.7889,-74.8947C212.5005,-63.8786 179.9272,-51.6269 153.2473,-41.5919"/>
<polygon fill="#191970" stroke="#191970" points="240.579,-78.1789 251.171,-78.4235 243.0433,-71.6271 240.579,-78.1789"/>
</g>
<!-- Node34 -->
<g id="node4" class="node">
<title>Node34</title>
<g id="a_node4"><a xlink:href="../../da/d38/runFakeTimeframeGeneratorDevice_8cxx.html" target="_top" xlink:title="/home/runner/work/AliceO2\l/AliceO2/Utilities/DataFlow\l/src/runFakeTimeframeGeneratorDevice.cxx">
<polygon fill="none" stroke="#000000" points="215.5,-.5 215.5,-41.5 425.5,-41.5 425.5,-.5 215.5,-.5"/>
<text text-anchor="start" x="223.5" y="-29.5" font-family="Helvetica,sans-Serif" font-size="10.00" fill="#000000">/home/runner/work/AliceO2</text>
<text text-anchor="start" x="223.5" y="-18.5" font-family="Helvetica,sans-Serif" font-size="10.00" fill="#000000">/AliceO2/Utilities/DataFlow</text>
<text text-anchor="middle" x="320.5" y="-7.5" font-family="Helvetica,sans-Serif" font-size="10.00" fill="#000000">/src/runFakeTimeframeGeneratorDevice.cxx</text>
</a>
</g>
</g>
<!-- Node32&#45;&gt;Node34 -->
<g id="edge3" class="edge">
<title>Node32&#45;&gt;Node34</title>
<path fill="none" stroke="#191970" d="M320.5,-67.8168C320.5,-58.8649 320.5,-49.5976 320.5,-41.6941"/>
<polygon fill="#191970" stroke="#191970" points="317.0001,-68.08 320.5,-78.0801 324.0001,-68.0801 317.0001,-68.08"/>
</g>
<!-- Node36 -->
<g id="node6" class="node">
<title>Node36</title>
<g id="a_node6"><a xlink:href="../../da/dc5/HeartbeatSampler_8cxx.html" target="_top" xlink:title="/home/runner/work/AliceO2\l/AliceO2/Utilities/DataFlow\l/src/HeartbeatSampler.cxx">
<polygon fill="none" stroke="#000000" points="444,-.5 444,-41.5 579,-41.5 579,-.5 444,-.5"/>
<text text-anchor="start" x="452" y="-29.5" font-family="Helvetica,sans-Serif" font-size="10.00" fill="#000000">/home/runner/work/AliceO2</text>
<text text-anchor="start" x="452" y="-18.5" font-family="Helvetica,sans-Serif" font-size="10.00" fill="#000000">/AliceO2/Utilities/DataFlow</text>
<text text-anchor="middle" x="511.5" y="-7.5" font-family="Helvetica,sans-Serif" font-size="10.00" fill="#000000">/src/HeartbeatSampler.cxx</text>
</a>
</g>
</g>
<!-- Node35&#45;&gt;Node36 -->
<g id="edge5" class="edge">
<title>Node35&#45;&gt;Node36</title>
<path fill="none" stroke="#191970" d="M622.3008,-79.1878C599.3567,-67.1386 572.2734,-52.9156 550.6265,-41.5476"/>
<polygon fill="#191970" stroke="#191970" points="620.7159,-82.3088 631.1966,-83.8595 623.9705,-76.1114 620.7159,-82.3088"/>
</g>
<!-- Node37 -->
<g id="node7" class="node">
<title>Node37</title>
<g id="a_node7"><a xlink:href="../../dd/d71/runHeartbeatSampler_8cxx.html" target="_top" xlink:title="/home/runner/work/AliceO2\l/AliceO2/Utilities/DataFlow\l/src/runHeartbeatSampler.cxx">
<polygon fill="none" stroke="#000000" points="597,-.5 597,-41.5 744,-41.5 744,-.5 597,-.5"/>
<text text-anchor="start" x="605" y="-29.5" font-family="Helvetica,sans-Serif" font-size="10.00" fill="#000000">/home/runner/work/AliceO2</text>
<text text-anchor="start" x="605" y="-18.5" font-family="Helvetica,sans-Serif" font-size="10.00" fill="#000000">/AliceO2/Utilities/DataFlow</text>
<text text-anchor="middle" x="670.5" y="-7.5" font-family="Helvetica,sans-Serif" font-size="10.00" fill="#000000">/src/runHeartbeatSampler.cxx</text>
</a>
</g>
</g>
<!-- Node35&#45;&gt;Node37 -->
<g id="edge6" class="edge">
<title>Node35&#45;&gt;Node37</title>
<path fill="none" stroke="#191970" d="M670.5,-73.6593C670.5,-63.0064 670.5,-51.3344 670.5,-41.6924"/>
<polygon fill="#191970" stroke="#191970" points="667.0001,-73.8595 670.5,-83.8595 674.0001,-73.8596 667.0001,-73.8595"/>
</g>
<!-- Node39 -->
<g id="node9" class="node">
<title>Node39</title>
<g id="a_node9"><a xlink:href="../../df/d19/runSubframeBuilderDevice_8cxx.html" target="_top" xlink:title="/home/runner/work/AliceO2\l/AliceO2/Utilities/DataFlow\l/src/runSubframeBuilderDevice.cxx">
<polygon fill="none" stroke="#000000" points="762,-.5 762,-41.5 933,-41.5 933,-.5 762,-.5"/>
<text text-anchor="start" x="770" y="-29.5" font-family="Helvetica,sans-Serif" font-size="10.00" fill="#000000">/home/runner/work/AliceO2</text>
<text text-anchor="start" x="770" y="-18.5" font-family="Helvetica,sans-Serif" font-size="10.00" fill="#000000">/AliceO2/Utilities/DataFlow</text>
<text text-anchor="middle" x="847.5" y="-7.5" font-family="Helvetica,sans-Serif" font-size="10.00" fill="#000000">/src/runSubframeBuilderDevice.cxx</text>
</a>
</g>
</g>
<!-- Node38&#45;&gt;Node39 -->
<g id="edge8" class="edge">
<title>Node38&#45;&gt;Node39</title>
<path fill="none" stroke="#191970" d="M976.0745,-79.6665C949.4468,-67.5167 917.7774,-53.0665 892.5324,-41.5476"/>
<polygon fill="#191970" stroke="#191970" points="974.7134,-82.8925 985.264,-83.8595 977.6192,-76.5242 974.7134,-82.8925"/>
</g>
<!-- Node40 -->
<g id="node10" class="node">
<title>Node40</title>
<g id="a_node10"><a xlink:href="../../d2/d68/SubframeBuilderDevice_8cxx.html" target="_top" xlink:title="Demonstrator device for a subframe builder. ">
<polygon fill="none" stroke="#000000" points="951.5,-.5 951.5,-41.5 1109.5,-41.5 1109.5,-.5 951.5,-.5"/>
<text text-anchor="start" x="959.5" y="-29.5" font-family="Helvetica,sans-Serif" font-size="10.00" fill="#000000">/home/runner/work/AliceO2</text>
<text text-anchor="start" x="959.5" y="-18.5" font-family="Helvetica,sans-Serif" font-size="10.00" fill="#000000">/AliceO2/Utilities/DataFlow</text>
<text text-anchor="middle" x="1030.5" y="-7.5" font-family="Helvetica,sans-Serif" font-size="10.00" fill="#000000">/src/SubframeBuilderDevice.cxx</text>
</a>
</g>
</g>
<!-- Node38&#45;&gt;Node40 -->
<g id="edge9" class="edge">
<title>Node38&#45;&gt;Node40</title>
<path fill="none" stroke="#191970" d="M1030.5,-73.6593C1030.5,-63.0064 1030.5,-51.3344 1030.5,-41.6924"/>
<polygon fill="#191970" stroke="#191970" points="1027.0001,-73.8595 1030.5,-83.8595 1034.0001,-73.8596 1027.0001,-73.8595"/>
</g>
<!-- Node42 -->
<g id="node12" class="node">
<title>Node42</title>
<g id="a_node12"><a xlink:href="../../d1/d80/runTimeframeReaderDevice_8cxx.html" target="_top" xlink:title="/home/runner/work/AliceO2\l/AliceO2/Utilities/DataFlow\l/src/runTimeframeReaderDevice.cxx">
<polygon fill="none" stroke="#000000" points="1127,-.5 1127,-41.5 1304,-41.5 1304,-.5 1127,-.5"/>
<text text-anchor="start" x="1135" y="-29.5" font-family="Helvetica,sans-Serif" font-size="10.00" fill="#000000">/home/runner/work/AliceO2</text>
<text text-anchor="start" x="1135" y="-18.5" font-family="Helvetica,sans-Serif" font-size="10.00" fill="#000000">/AliceO2/Utilities/DataFlow</text>
<text text-anchor="middle" x="1215.5" y="-7.5" font-family="Helvetica,sans-Serif" font-size="10.00" fill="#000000">/src/runTimeframeReaderDevice.cxx</text>
</a>
</g>
</g>
<!-- Node41&#45;&gt;Node42 -->
<g id="edge11" class="edge">
<title>Node41&#45;&gt;Node42</title>
<path fill="none" stroke="#191970" d="M1338.8206,-79.5072C1313.2813,-67.3906 1282.9832,-53.0162 1258.8098,-41.5476"/>
<polygon fill="#191970" stroke="#191970" points="1337.4593,-82.7353 1347.9944,-83.8595 1340.4599,-76.4109 1337.4593,-82.7353"/>
</g>
<!-- Node43 -->
<g id="node13" class="node">
<title>Node43</title>
<g id="a_node13"><a xlink:href="../../da/d30/TimeframeReaderDevice_8cxx.html" target="_top" xlink:title="/home/runner/work/AliceO2\l/AliceO2/Utilities/DataFlow\l/src/TimeframeReaderDevice.cxx">
<polygon fill="none" stroke="#000000" points="1322.5,-.5 1322.5,-41.5 1486.5,-41.5 1486.5,-.5 1322.5,-.5"/>
<text text-anchor="start" x="1330.5" y="-29.5" font-family="Helvetica,sans-Serif" font-size="10.00" fill="#000000">/home/runner/work/AliceO2</text>
<text text-anchor="start" x="1330.5" y="-18.5" font-family="Helvetica,sans-Serif" font-size="10.00" fill="#000000">/AliceO2/Utilities/DataFlow</text>
<text text-anchor="middle" x="1404.5" y="-7.5" font-family="Helvetica,sans-Serif" font-size="10.00" fill="#000000">/src/TimeframeReaderDevice.cxx</text>
</a>
</g>
</g>
<!-- Node41&#45;&gt;Node43 -->
<g id="edge12" class="edge">
<title>Node41&#45;&gt;Node43</title>
<path fill="none" stroke="#191970" d="M1396.3016,-73.6593C1397.9601,-63.0064 1399.7773,-51.3344 1401.2784,-41.6924"/>
<polygon fill="#191970" stroke="#191970" points="1392.7936,-73.4401 1394.7135,-83.8595 1399.7103,-74.517 1392.7936,-73.4401"/>
</g>
<!-- Node45 -->
<g id="node15" class="node">
<title>Node45</title>
<g id="a_node15"><a xlink:href="../../d9/d03/runTimeframeValidatorDevice_8cxx.html" target="_top" xlink:title="/home/runner/work/AliceO2\l/AliceO2/Utilities/DataFlow\l/src/runTimeframeValidatorDevice.cxx">
<polygon fill="none" stroke="#000000" points="1504.5,-.5 1504.5,-41.5 1688.5,-41.5 1688.5,-.5 1504.5,-.5"/>
<text text-anchor="start" x="1512.5" y="-29.5" font-family="Helvetica,sans-Serif" font-size="10.00" fill="#000000">/home/runner/work/AliceO2</text>
<text text-anchor="start" x="1512.5" y="-18.5" font-family="Helvetica,sans-Serif" font-size="10.00" fill="#000000">/AliceO2/Utilities/DataFlow</text>
<text text-anchor="middle" x="1596.5" y="-7.5" font-family="Helvetica,sans-Serif" font-size="10.00" fill="#000000">/src/runTimeframeValidatorDevice.cxx</text>
</a>
</g>
</g>
<!-- Node44&#45;&gt;Node45 -->
<g id="edge14" class="edge">
<title>Node44&#45;&gt;Node45</title>
<path fill="none" stroke="#191970" d="M1603.2701,-68.1086C1601.9706,-59.0666 1600.6222,-49.6836 1599.474,-41.6941"/>
<polygon fill="#191970" stroke="#191970" points="1599.8161,-68.6797 1604.7031,-78.0801 1606.7449,-67.6839 1599.8161,-68.6797"/>
</g>
<!-- Node46 -->
<g id="node16" class="node">
<title>Node46</title>
<g id="a_node16"><a xlink:href="../../db/dfa/TimeframeValidatorDevice_8cxx.html" target="_top" xlink:title="Validator device for a full time frame. ">
<polygon fill="none" stroke="#000000" points="1706.5,-.5 1706.5,-41.5 1876.5,-41.5 1876.5,-.5 1706.5,-.5"/>
<text text-anchor="start" x="1714.5" y="-29.5" font-family="Helvetica,sans-Serif" font-size="10.00" fill="#000000">/home/runner/work/AliceO2</text>
<text text-anchor="start" x="1714.5" y="-18.5" font-family="Helvetica,sans-Serif" font-size="10.00" fill="#000000">/AliceO2/Utilities/DataFlow</text>
<text text-anchor="middle" x="1791.5" y="-7.5" font-family="Helvetica,sans-Serif" font-size="10.00" fill="#000000">/src/TimeframeValidatorDevice.cxx</text>
</a>
</g>
</g>
<!-- Node44&#45;&gt;Node46 -->
<g id="edge15" class="edge">
<title>Node44&#45;&gt;Node46</title>
<path fill="none" stroke="#191970" d="M1674.955,-74.1776C1698.6867,-63.3492 1724.8536,-51.4097 1746.3705,-41.5919"/>
<polygon fill="#191970" stroke="#191970" points="1673.2944,-71.0882 1665.6496,-78.4235 1676.2002,-77.4566 1673.2944,-71.0882"/>
</g>
<!-- Node48 -->
<g id="node18" class="node">
<title>Node48</title>
<g id="a_node18"><a xlink:href="../../da/d66/runTimeframeWriterDevice_8cxx.html" target="_top" xlink:title="/home/runner/work/AliceO2\l/AliceO2/Utilities/DataFlow\l/src/runTimeframeWriterDevice.cxx">
<polygon fill="none" stroke="#000000" points="1894.5,-.5 1894.5,-41.5 2066.5,-41.5 2066.5,-.5 1894.5,-.5"/>
<text text-anchor="start" x="1902.5" y="-29.5" font-family="Helvetica,sans-Serif" font-size="10.00" fill="#000000">/home/runner/work/AliceO2</text>
<text text-anchor="start" x="1902.5" y="-18.5" font-family="Helvetica,sans-Serif" font-size="10.00" fill="#000000">/AliceO2/Utilities/DataFlow</text>
<text text-anchor="middle" x="1980.5" y="-7.5" font-family="Helvetica,sans-Serif" font-size="10.00" fill="#000000">/src/runTimeframeWriterDevice.cxx</text>
</a>
</g>
</g>
<!-- Node47&#45;&gt;Node48 -->
<g id="edge17" class="edge">
<title>Node47&#45;&gt;Node48</title>
<path fill="none" stroke="#191970" d="M1871.3939,-79.0278C1893.9849,-67.0128 1920.5857,-52.8653 1941.8657,-41.5476"/>
<polygon fill="#191970" stroke="#191970" points="1869.4945,-76.0737 1862.309,-83.8595 1872.7815,-82.254 1869.4945,-76.0737"/>
</g>
<!-- Node49 -->
<g id="node19" class="node">
<title>Node49</title>
<g id="a_node19"><a xlink:href="../../d7/d2f/TimeframeWriterDevice_8cxx.html" target="_top" xlink:title="/home/runner/work/AliceO2\l/AliceO2/Utilities/DataFlow\l/src/TimeframeWriterDevice.cxx">
<polygon fill="none" stroke="#000000" points="2084.5,-.5 2084.5,-41.5 2242.5,-41.5 2242.5,-.5 2084.5,-.5"/>
<text text-anchor="start" x="2092.5" y="-29.5" font-family="Helvetica,sans-Serif" font-size="10.00" fill="#000000">/home/runner/work/AliceO2</text>
<text text-anchor="start" x="2092.5" y="-18.5" font-family="Helvetica,sans-Serif" font-size="10.00" fill="#000000">/AliceO2/Utilities/DataFlow</text>
<text text-anchor="middle" x="2163.5" y="-7.5" font-family="Helvetica,sans-Serif" font-size="10.00" fill="#000000">/src/TimeframeWriterDevice.cxx</text>
</a>
</g>
</g>
<!-- Node47&#45;&gt;Node49 -->
<g id="edge18" class="edge">
<title>Node47&#45;&gt;Node49</title>
<path fill="none" stroke="#191970" d="M1917.0978,-81.5135C1969.5893,-68.6222 2034.3519,-52.7173 2084.3071,-40.4488"/>
<polygon fill="#191970" stroke="#191970" points="1915.9855,-78.1826 1907.1088,-83.9667 1917.655,-84.9806 1915.9855,-78.1826"/>
</g>
<!-- Node53 -->
<g id="node23" class="node">
<title>Node53</title>
<g id="a_node23"><a xlink:href="../../db/dfb/O2MessageMonitor_8cxx.html" target="_top" xlink:title="/home/runner/work/AliceO2\l/AliceO2/Utilities/O2MessageMonitor\l/src/O2MessageMonitor.cxx">
<polygon fill="none" stroke="#000000" points="2260.5,-.5 2260.5,-41.5 2438.5,-41.5 2438.5,-.5 2260.5,-.5"/>
<text text-anchor="start" x="2268.5" y="-29.5" font-family="Helvetica,sans-Serif" font-size="10.00" fill="#000000">/home/runner/work/AliceO2</text>
<text text-anchor="start" x="2268.5" y="-18.5" font-family="Helvetica,sans-Serif" font-size="10.00" fill="#000000">/AliceO2/Utilities/O2MessageMonitor</text>
<text text-anchor="middle" x="2349.5" y="-7.5" font-family="Helvetica,sans-Serif" font-size="10.00" fill="#000000">/src/O2MessageMonitor.cxx</text>
</a>
</g>
</g>
<!-- Node52&#45;&gt;Node53 -->
<g id="edge22" class="edge">
<title>Node52&#45;&gt;Node53</title>
<path fill="none" stroke="#191970" d="M2365.3658,-73.9918C2362.1496,-63.2498 2358.6122,-51.4349 2355.6953,-41.6924"/>
<polygon fill="#191970" stroke="#191970" points="2362.099,-75.2836 2368.3202,-83.8595 2368.8049,-73.2758 2362.099,-75.2836"/>
</g>
<!-- Node54 -->
<g id="node24" class="node">
<title>Node54</title>
<g id="a_node24"><a xlink:href="../../d2/d7c/runO2MessageMonitor_8cxx.html" target="_top" xlink:title="/home/runner/work/AliceO2\l/AliceO2/Utilities/O2MessageMonitor\l/src/runO2MessageMonitor.cxx">
<polygon fill="none" stroke="#000000" points="2456.5,-.5 2456.5,-41.5 2634.5,-41.5 2634.5,-.5 2456.5,-.5"/>
<text text-anchor="start" x="2464.5" y="-29.5" font-family="Helvetica,sans-Serif" font-size="10.00" fill="#000000">/home/runner/work/AliceO2</text>
<text text-anchor="start" x="2464.5" y="-18.5" font-family="Helvetica,sans-Serif" font-size="10.00" fill="#000000">/AliceO2/Utilities/O2MessageMonitor</text>
<text text-anchor="middle" x="2545.5" y="-7.5" font-family="Helvetica,sans-Serif" font-size="10.00" fill="#000000">/src/runO2MessageMonitor.cxx</text>
</a>
</g>
</g>
<!-- Node52&#45;&gt;Node54 -->
<g id="edge23" class="edge">
<title>Node52&#45;&gt;Node54</title>
<path fill="none" stroke="#191970" d="M2426.0096,-79.3477C2450.7547,-67.2645 2480.037,-52.9659 2503.4206,-41.5476"/>
<polygon fill="#191970" stroke="#191970" points="2424.2198,-76.3266 2416.7697,-83.8595 2427.2914,-82.6167 2424.2198,-76.3266"/>
</g>
<!-- Node56 -->
<g id="node26" class="node">
<title>Node56</title>
<g id="a_node26"><a xlink:href="../../d7/d98/DataPublisherDevice_8cxx.html" target="_top" xlink:title="Utility device for data publishing. ">
<polygon fill="none" stroke="#000000" points="2653,-.5 2653,-41.5 2800,-41.5 2800,-.5 2653,-.5"/>
<text text-anchor="start" x="2661" y="-29.5" font-family="Helvetica,sans-Serif" font-size="10.00" fill="#000000">/home/runner/work/AliceO2</text>
<text text-anchor="start" x="2661" y="-18.5" font-family="Helvetica,sans-Serif" font-size="10.00" fill="#000000">/AliceO2/Utilities/Publishers</text>
<text text-anchor="middle" x="2726.5" y="-7.5" font-family="Helvetica,sans-Serif" font-size="10.00" fill="#000000">/src/DataPublisherDevice.cxx</text>
</a>
</g>
</g>
<!-- Node55&#45;&gt;Node56 -->
<g id="edge25" class="edge">
<title>Node55&#45;&gt;Node56</title>
<path fill="none" stroke="#191970" d="M2726.5,-73.6593C2726.5,-63.0064 2726.5,-51.3344 2726.5,-41.6924"/>
<polygon fill="#191970" stroke="#191970" points="2723.0001,-73.8595 2726.5,-83.8595 2730.0001,-73.8596 2723.0001,-73.8595"/>
</g>
<!-- Node57 -->
<g id="node27" class="node">
<title>Node57</title>
<g id="a_node27"><a xlink:href="../../d4/d12/runDataPublisherDevice_8cxx.html" target="_top" xlink:title="/home/runner/work/AliceO2\l/AliceO2/Utilities/Publishers\l/src/runDataPublisherDevice.cxx">
<polygon fill="none" stroke="#000000" points="2818,-.5 2818,-41.5 2979,-41.5 2979,-.5 2818,-.5"/>
<text text-anchor="start" x="2826" y="-29.5" font-family="Helvetica,sans-Serif" font-size="10.00" fill="#000000">/home/runner/work/AliceO2</text>
<text text-anchor="start" x="2826" y="-18.5" font-family="Helvetica,sans-Serif" font-size="10.00" fill="#000000">/AliceO2/Utilities/Publishers</text>
<text text-anchor="middle" x="2898.5" y="-7.5" font-family="Helvetica,sans-Serif" font-size="10.00" fill="#000000">/src/runDataPublisherDevice.cxx</text>
</a>
</g>
</g>
<!-- Node55&#45;&gt;Node57 -->
<g id="edge26" class="edge">
<title>Node55&#45;&gt;Node57</title>
<path fill="none" stroke="#191970" d="M2778.3108,-79.3477C2803.2006,-67.2645 2832.6541,-52.9659 2856.1745,-41.5476"/>
<polygon fill="#191970" stroke="#191970" points="2776.4843,-76.3437 2769.0169,-83.8595 2779.5414,-82.6409 2776.4843,-76.3437"/>
</g>
</g>
</svg>
