<?xml version="1.0" encoding="UTF-8" standalone="no"?>
<!DOCTYPE svg PUBLIC "-//W3C//DTD SVG 1.1//EN"
 "http://www.w3.org/Graphics/SVG/1.1/DTD/svg11.dtd">
<!-- Generated by graphviz version 2.40.1 (20161225.0304)
 -->
<!-- Title: /home/runner/work/AliceO2/AliceO2/Framework/Foundation/include/Framework/StructToTuple.h Pages: 1 -->
<svg width="225pt" height="162pt"
 viewBox="0.00 0.00 225.00 162.00" xmlns="http://www.w3.org/2000/svg" xmlns:xlink="http://www.w3.org/1999/xlink">
<g id="graph0" class="graph" transform="scale(1 1) rotate(0) translate(4 158)">
<title>/home/runner/work/AliceO2/AliceO2/Framework/Foundation/include/Framework/StructToTuple.h</title>
<!-- Node0 -->
<g id="node1" class="node">
<title>Node0</title>
<polygon fill="#bfbfbf" stroke="#000000" points="42,-112.5 42,-153.5 217,-153.5 217,-112.5 42,-112.5"/>
<text text-anchor="start" x="50" y="-141.5" font-family="Helvetica,sans-Serif" font-size="10.00" fill="#000000">/home/runner/work/AliceO2</text>
<text text-anchor="start" x="50" y="-130.5" font-family="Helvetica,sans-Serif" font-size="10.00" fill="#000000">/AliceO2/Framework/Foundation</text>
<text text-anchor="middle" x="129.5" y="-119.5" font-family="Helvetica,sans-Serif" font-size="10.00" fill="#000000">/include/Framework/StructToTuple.h</text>
</g>
<!-- Node1 -->
<g id="node2" class="node">
<title>Node1</title>
<g id="a_node2"><a xlink:href="../../db/d31/Traits_8h.html" target="_top" xlink:title="Framework/Traits.h">
<polygon fill="none" stroke="#000000" points="0,-56.5 0,-75.5 101,-75.5 101,-56.5 0,-56.5"/>
<text text-anchor="middle" x="50.5" y="-63.5" font-family="Helvetica,sans-Serif" font-size="10.00" fill="#000000">Framework/Traits.h</text>
</a>
</g>
</g>
<!-- Node0&#45;&gt;Node1 -->
<g id="edge1" class="edge">
<title>Node0&#45;&gt;Node1</title>
<path fill="none" stroke="#191970" d="M104.937,-112.168C93.6431,-102.5897 80.4387,-91.3911 69.8632,-82.422"/>
<polygon fill="#191970" stroke="#191970" points="71.9226,-79.5793 62.0322,-75.7805 67.3949,-84.9179 71.9226,-79.5793"/>
</g>
<!-- Node2 -->
<g id="node3" class="node">
<title>Node2</title>
<polygon fill="none" stroke="#bfbfbf" points="58.5,-.5 58.5,-19.5 120.5,-19.5 120.5,-.5 58.5,-.5"/>
<text text-anchor="middle" x="89.5" y="-7.5" font-family="Helvetica,sans-Serif" font-size="10.00" fill="#000000">type_traits</text>
</g>
<!-- Node0&#45;&gt;Node2 -->
<g id="edge4" class="edge">
<title>Node0&#45;&gt;Node2</title>
<path fill="none" stroke="#191970" d="M125.5161,-112.4332C122.217,-96.7473 117.0204,-74.7246 110.5,-56 107.2981,-46.8051 102.9291,-36.9436 99.0052,-28.7189"/>
<polygon fill="#191970" stroke="#191970" points="102.101,-27.0829 94.548,-19.653 95.8192,-30.1713 102.101,-27.0829"/>
</g>
<!-- Node3 -->
<g id="node4" class="node">
<title>Node3</title>
<polygon fill="none" stroke="#bfbfbf" points="157.5,-56.5 157.5,-75.5 195.5,-75.5 195.5,-56.5 157.5,-56.5"/>
<text text-anchor="middle" x="176.5" y="-63.5" font-family="Helvetica,sans-Serif" font-size="10.00" fill="#000000">tuple</text>
</g>
<!-- Node0&#45;&gt;Node3 -->
<g id="edge3" class="edge">
<title>Node0&#45;&gt;Node3</title>
<path fill="none" stroke="#191970" d="M144.1135,-112.168C150.4334,-103.1587 157.759,-92.7159 163.8428,-84.0432"/>
<polygon fill="#191970" stroke="#191970" points="166.7615,-85.9771 169.6391,-75.7805 161.0309,-81.9571 166.7615,-85.9771"/>
</g>
<!-- Node1&#45;&gt;Node2 -->
<g id="edge2" class="edge">
<title>Node1&#45;&gt;Node2</title>
<path fill="none" stroke="#191970" d="M57.2933,-56.2455C62.7178,-48.4564 70.4661,-37.3308 77.0033,-27.9439"/>
<polygon fill="#191970" stroke="#191970" points="79.9417,-29.849 82.7846,-19.6427 74.1975,-25.8485 79.9417,-29.849"/>
</g>
</g>
</svg>
