<?xml version="1.0" encoding="UTF-8" standalone="no"?>
<!DOCTYPE svg PUBLIC "-//W3C//DTD SVG 1.1//EN"
 "http://www.w3.org/Graphics/SVG/1.1/DTD/svg11.dtd">
<!-- Generated by graphviz version 2.40.1 (20161225.0304)
 -->
<!-- Title: /home/runner/work/AliceO2/AliceO2/DataFormats/Detectors/EMCAL/src/Cell.cxx Pages: 1 -->
<svg width="380pt" height="218pt"
 viewBox="0.00 0.00 380.00 218.00" xmlns="http://www.w3.org/2000/svg" xmlns:xlink="http://www.w3.org/1999/xlink">
<g id="graph0" class="graph" transform="scale(1 1) rotate(0) translate(4 214)">
<title>/home/runner/work/AliceO2/AliceO2/DataFormats/Detectors/EMCAL/src/Cell.cxx</title>
<!-- Node0 -->
<g id="node1" class="node">
<title>Node0</title>
<polygon fill="#bfbfbf" stroke="#000000" points="161,-168.5 161,-209.5 321,-209.5 321,-168.5 161,-168.5"/>
<text text-anchor="start" x="169" y="-197.5" font-family="Helvetica,sans-Serif" font-size="10.00" fill="#000000">/home/runner/work/AliceO2</text>
<text text-anchor="start" x="169" y="-186.5" font-family="Helvetica,sans-Serif" font-size="10.00" fill="#000000">/AliceO2/DataFormats/Detectors</text>
<text text-anchor="middle" x="241" y="-175.5" font-family="Helvetica,sans-Serif" font-size="10.00" fill="#000000">/EMCAL/src/Cell.cxx</text>
</g>
<!-- Node1 -->
<g id="node2" class="node">
<title>Node1</title>
<g id="a_node2"><a xlink:href="../../dd/dda/DataFormats_2Detectors_2EMCAL_2include_2DataFormatsEMCAL_2Constants_8h.html" target="_top" xlink:title="DataFormatsEMCAL/Constants.h">
<polygon fill="none" stroke="#000000" points="50,-56.5 50,-75.5 214,-75.5 214,-56.5 50,-56.5"/>
<text text-anchor="middle" x="132" y="-63.5" font-family="Helvetica,sans-Serif" font-size="10.00" fill="#000000">DataFormatsEMCAL/Constants.h</text>
</a>
</g>
</g>
<!-- Node0&#45;&gt;Node1 -->
<g id="edge1" class="edge">
<title>Node0&#45;&gt;Node1</title>
<path fill="none" stroke="#191970" d="M160.9474,-169.0312C142.8466,-160.6236 125.8036,-148.745 115,-132 105.7226,-117.6206 112.3533,-98.4237 119.8787,-84.4419"/>
<polygon fill="#191970" stroke="#191970" points="122.9609,-86.1061 125.0471,-75.7186 116.9386,-82.5379 122.9609,-86.1061"/>
</g>
<!-- Node6 -->
<g id="node7" class="node">
<title>Node6</title>
<g id="a_node7"><a xlink:href="../../d5/dd3/DataFormats_2Detectors_2EMCAL_2include_2DataFormatsEMCAL_2Cell_8h.html" target="_top" xlink:title="DataFormatsEMCAL/Cell.h">
<polygon fill="none" stroke="#000000" points="124.5,-112.5 124.5,-131.5 261.5,-131.5 261.5,-112.5 124.5,-112.5"/>
<text text-anchor="middle" x="193" y="-119.5" font-family="Helvetica,sans-Serif" font-size="10.00" fill="#000000">DataFormatsEMCAL/Cell.h</text>
</a>
</g>
</g>
<!-- Node0&#45;&gt;Node6 -->
<g id="edge6" class="edge">
<title>Node0&#45;&gt;Node6</title>
<path fill="none" stroke="#191970" d="M226.0756,-168.168C219.6212,-159.1587 212.1398,-148.7159 205.9265,-140.0432"/>
<polygon fill="#191970" stroke="#191970" points="208.676,-137.8713 200.0069,-131.7805 202.9856,-141.948 208.676,-137.8713"/>
</g>
<!-- Node7 -->
<g id="node8" class="node">
<title>Node7</title>
<polygon fill="none" stroke="#bfbfbf" points="250.5,-56.5 250.5,-75.5 291.5,-75.5 291.5,-56.5 250.5,-56.5"/>
<text text-anchor="middle" x="271" y="-63.5" font-family="Helvetica,sans-Serif" font-size="10.00" fill="#000000">bitset</text>
</g>
<!-- Node0&#45;&gt;Node7 -->
<g id="edge10" class="edge">
<title>Node0&#45;&gt;Node7</title>
<path fill="none" stroke="#191970" d="M254.9948,-168.3346C261.2135,-157.9216 267.8347,-144.8104 271,-132 274.7415,-116.8577 274.504,-99.1577 273.4612,-85.9014"/>
<polygon fill="#191970" stroke="#191970" points="276.9051,-85.1693 272.4172,-75.5719 269.9406,-85.8732 276.9051,-85.1693"/>
</g>
<!-- Node8 -->
<g id="node9" class="node">
<title>Node8</title>
<polygon fill="none" stroke="#bfbfbf" points="318,-112.5 318,-131.5 372,-131.5 372,-112.5 318,-112.5"/>
<text text-anchor="middle" x="345" y="-119.5" font-family="Helvetica,sans-Serif" font-size="10.00" fill="#000000">iostream</text>
</g>
<!-- Node0&#45;&gt;Node8 -->
<g id="edge9" class="edge">
<title>Node0&#45;&gt;Node8</title>
<path fill="none" stroke="#191970" d="M273.052,-168.3511C288.6209,-158.3212 307.0017,-146.4797 321.2877,-137.2762"/>
<polygon fill="#191970" stroke="#191970" points="323.5027,-140.0127 330.0137,-131.6546 319.7116,-134.1281 323.5027,-140.0127"/>
</g>
<!-- Node2 -->
<g id="node3" class="node">
<title>Node2</title>
<polygon fill="none" stroke="#bfbfbf" points="0,-.5 0,-19.5 56,-19.5 56,-.5 0,-.5"/>
<text text-anchor="middle" x="28" y="-7.5" font-family="Helvetica,sans-Serif" font-size="10.00" fill="#000000">Rtypes.h</text>
</g>
<!-- Node1&#45;&gt;Node2 -->
<g id="edge2" class="edge">
<title>Node1&#45;&gt;Node2</title>
<path fill="none" stroke="#191970" d="M113.8846,-56.2455C97.555,-47.4527 73.329,-34.4079 54.7661,-24.4125"/>
<polygon fill="#191970" stroke="#191970" points="56.3719,-21.3021 45.9078,-19.6427 53.0532,-27.4654 56.3719,-21.3021"/>
</g>
<!-- Node3 -->
<g id="node4" class="node">
<title>Node3</title>
<polygon fill="none" stroke="#bfbfbf" points="74.5,-.5 74.5,-19.5 119.5,-19.5 119.5,-.5 74.5,-.5"/>
<text text-anchor="middle" x="97" y="-7.5" font-family="Helvetica,sans-Serif" font-size="10.00" fill="#000000">iosfwd</text>
</g>
<!-- Node1&#45;&gt;Node3 -->
<g id="edge3" class="edge">
<title>Node1&#45;&gt;Node3</title>
<path fill="none" stroke="#191970" d="M125.9035,-56.2455C121.0855,-48.5367 114.2249,-37.5598 108.3968,-28.2348"/>
<polygon fill="#191970" stroke="#191970" points="111.2947,-26.2677 103.0267,-19.6427 105.3587,-29.9777 111.2947,-26.2677"/>
</g>
<!-- Node4 -->
<g id="node5" class="node">
<title>Node4</title>
<polygon fill="none" stroke="#bfbfbf" points="137.5,-.5 137.5,-19.5 196.5,-19.5 196.5,-.5 137.5,-.5"/>
<text text-anchor="middle" x="167" y="-7.5" font-family="Helvetica,sans-Serif" font-size="10.00" fill="#000000">exception</text>
</g>
<!-- Node1&#45;&gt;Node4 -->
<g id="edge4" class="edge">
<title>Node1&#45;&gt;Node4</title>
<path fill="none" stroke="#191970" d="M138.0965,-56.2455C142.9145,-48.5367 149.7751,-37.5598 155.6032,-28.2348"/>
<polygon fill="#191970" stroke="#191970" points="158.6413,-29.9777 160.9733,-19.6427 152.7053,-26.2677 158.6413,-29.9777"/>
</g>
<!-- Node5 -->
<g id="node6" class="node">
<title>Node5</title>
<polygon fill="none" stroke="#bfbfbf" points="215,-.5 215,-19.5 261,-19.5 261,-.5 215,-.5"/>
<text text-anchor="middle" x="238" y="-7.5" font-family="Helvetica,sans-Serif" font-size="10.00" fill="#000000">cstdint</text>
</g>
<!-- Node1&#45;&gt;Node5 -->
<g id="edge5" class="edge">
<title>Node1&#45;&gt;Node5</title>
<path fill="none" stroke="#191970" d="M150.4638,-56.2455C167.1074,-47.4527 191.7993,-34.4079 210.7192,-24.4125"/>
<polygon fill="#191970" stroke="#191970" points="212.5408,-27.4086 219.7478,-19.6427 209.2709,-21.2193 212.5408,-27.4086"/>
</g>
<!-- Node6&#45;&gt;Node1 -->
<g id="edge8" class="edge">
<title>Node6&#45;&gt;Node1</title>
<path fill="none" stroke="#191970" d="M182.3746,-112.2455C173.4527,-104.0549 160.512,-92.1749 149.9808,-82.5069"/>
<polygon fill="#191970" stroke="#191970" points="152.2371,-79.8271 142.5036,-75.6427 147.5032,-84.9837 152.2371,-79.8271"/>
</g>
<!-- Node6&#45;&gt;Node7 -->
<g id="edge7" class="edge">
<title>Node6&#45;&gt;Node7</title>
<path fill="none" stroke="#191970" d="M206.5866,-112.2455C218.3305,-103.814 235.5199,-91.4729 249.1882,-81.6598"/>
<polygon fill="#191970" stroke="#191970" points="251.4871,-84.3179 257.5691,-75.6427 247.4046,-78.6316 251.4871,-84.3179"/>
</g>
</g>
</svg>
