<?xml version="1.0" encoding="UTF-8" standalone="no"?>
<!DOCTYPE svg PUBLIC "-//W3C//DTD SVG 1.1//EN"
 "http://www.w3.org/Graphics/SVG/1.1/DTD/svg11.dtd">
<!-- Generated by graphviz version 2.40.1 (20161225.0304)
 -->
<!-- Title: /home/runner/work/AliceO2/AliceO2/Detectors/EMCAL/simulation/src/SimParam.cxx Pages: 1 -->
<svg width="554pt" height="307pt"
 viewBox="0.00 0.00 553.50 307.00" xmlns="http://www.w3.org/2000/svg" xmlns:xlink="http://www.w3.org/1999/xlink">
<g id="graph0" class="graph" transform="scale(1 1) rotate(0) translate(4 303)">
<title>/home/runner/work/AliceO2/AliceO2/Detectors/EMCAL/simulation/src/SimParam.cxx</title>
<!-- Node0 -->
<g id="node1" class="node">
<title>Node0</title>
<polygon fill="#bfbfbf" stroke="#000000" points="376.5,-257.5 376.5,-298.5 524.5,-298.5 524.5,-257.5 376.5,-257.5"/>
<text text-anchor="start" x="384.5" y="-286.5" font-family="Helvetica,sans-Serif" font-size="10.00" fill="#000000">/home/runner/work/AliceO2</text>
<text text-anchor="start" x="384.5" y="-275.5" font-family="Helvetica,sans-Serif" font-size="10.00" fill="#000000">/AliceO2/Detectors/EMCAL</text>
<text text-anchor="middle" x="450.5" y="-264.5" font-family="Helvetica,sans-Serif" font-size="10.00" fill="#000000">/simulation/src/SimParam.cxx</text>
</g>
<!-- Node1 -->
<g id="node2" class="node">
<title>Node1</title>
<g id="a_node2"><a xlink:href="../../dc/dca/EMCAL_2simulation_2include_2EMCALSimulation_2SimParam_8h.html" target="_top" xlink:title="EMCALSimulation/SimParam.h">
<polygon fill="none" stroke="#000000" points="236.5,-201.5 236.5,-220.5 390.5,-220.5 390.5,-201.5 236.5,-201.5"/>
<text text-anchor="middle" x="313.5" y="-208.5" font-family="Helvetica,sans-Serif" font-size="10.00" fill="#000000">EMCALSimulation/SimParam.h</text>
</a>
</g>
</g>
<!-- Node0&#45;&gt;Node1 -->
<g id="edge1" class="edge">
<title>Node0&#45;&gt;Node1</title>
<path fill="none" stroke="#191970" d="M408.2776,-257.3511C386.8897,-246.8913 361.4732,-234.4614 342.3472,-225.1077"/>
<polygon fill="#191970" stroke="#191970" points="343.7625,-221.9038 333.2416,-220.6546 340.6872,-228.1921 343.7625,-221.9038"/>
</g>
<!-- Node9 -->
<g id="node10" class="node">
<title>Node9</title>
<polygon fill="none" stroke="#bfbfbf" points="491.5,-6 491.5,-25 545.5,-25 545.5,-6 491.5,-6"/>
<text text-anchor="middle" x="518.5" y="-13" font-family="Helvetica,sans-Serif" font-size="10.00" fill="#000000">iostream</text>
</g>
<!-- Node0&#45;&gt;Node9 -->
<g id="edge17" class="edge">
<title>Node0&#45;&gt;Node9</title>
<path fill="none" stroke="#191970" d="M455.4894,-257.3876C459.2696,-241.8676 464.627,-220.0772 469.5,-201 484.9794,-140.3994 504.1132,-68.8983 513.2124,-35.091"/>
<polygon fill="#191970" stroke="#191970" points="516.6711,-35.7075 515.8938,-25.1412 509.9122,-33.886 516.6711,-35.7075"/>
</g>
<!-- Node15 -->
<g id="node16" class="node">
<title>Node15</title>
<polygon fill="none" stroke="#bfbfbf" points="479,-201.5 479,-220.5 532,-220.5 532,-201.5 479,-201.5"/>
<text text-anchor="middle" x="505.5" y="-208.5" font-family="Helvetica,sans-Serif" font-size="10.00" fill="#000000">TMath.h</text>
</g>
<!-- Node0&#45;&gt;Node15 -->
<g id="edge18" class="edge">
<title>Node0&#45;&gt;Node15</title>
<path fill="none" stroke="#191970" d="M467.6009,-257.168C475.0744,-248.0639 483.7496,-237.4959 490.9127,-228.7699"/>
<polygon fill="#191970" stroke="#191970" points="493.8315,-230.7305 497.4713,-220.7805 488.421,-226.289 493.8315,-230.7305"/>
</g>
<!-- Node2 -->
<g id="node3" class="node">
<title>Node2</title>
<polygon fill="none" stroke="#bfbfbf" points="291,-140 291,-159 336,-159 336,-140 291,-140"/>
<text text-anchor="middle" x="313.5" y="-147" font-family="Helvetica,sans-Serif" font-size="10.00" fill="#000000">iosfwd</text>
</g>
<!-- Node1&#45;&gt;Node2 -->
<g id="edge2" class="edge">
<title>Node1&#45;&gt;Node2</title>
<path fill="none" stroke="#191970" d="M313.5,-201.3906C313.5,-192.8657 313.5,-180.1392 313.5,-169.4235"/>
<polygon fill="#191970" stroke="#191970" points="317.0001,-169.2448 313.5,-159.2449 310.0001,-169.2449 317.0001,-169.2448"/>
</g>
<!-- Node3 -->
<g id="node4" class="node">
<title>Node3</title>
<g id="a_node4"><a xlink:href="../../db/d2c/ConfigurableParam_8h.html" target="_top" xlink:title="CommonUtils/Configurable\lParam.h">
<polygon fill="none" stroke="#000000" points="257.5,-67.5 257.5,-97.5 391.5,-97.5 391.5,-67.5 257.5,-67.5"/>
<text text-anchor="start" x="265.5" y="-85.5" font-family="Helvetica,sans-Serif" font-size="10.00" fill="#000000">CommonUtils/Configurable</text>
<text text-anchor="middle" x="324.5" y="-74.5" font-family="Helvetica,sans-Serif" font-size="10.00" fill="#000000">Param.h</text>
</a>
</g>
</g>
<!-- Node1&#45;&gt;Node3 -->
<g id="edge3" class="edge">
<title>Node1&#45;&gt;Node3</title>
<path fill="none" stroke="#191970" d="M322.5741,-201.3243C330.0963,-192.5913 340.2231,-178.9994 344.5,-165 350.3838,-145.7409 344.2888,-123.5374 337.3261,-107.0195"/>
<polygon fill="#191970" stroke="#191970" points="340.3306,-105.1749 332.9781,-97.5466 333.9688,-108.095 340.3306,-105.1749"/>
</g>
<!-- Node10 -->
<g id="node11" class="node">
<title>Node10</title>
<g id="a_node11"><a xlink:href="../../da/d6b/ConfigurableParamHelper_8h.html" target="_top" xlink:title="CommonUtils/Configurable\lParamHelper.h">
<polygon fill="none" stroke="#000000" points="64.5,-134.5 64.5,-164.5 198.5,-164.5 198.5,-134.5 64.5,-134.5"/>
<text text-anchor="start" x="72.5" y="-152.5" font-family="Helvetica,sans-Serif" font-size="10.00" fill="#000000">CommonUtils/Configurable</text>
<text text-anchor="middle" x="131.5" y="-141.5" font-family="Helvetica,sans-Serif" font-size="10.00" fill="#000000">ParamHelper.h</text>
</a>
</g>
</g>
<!-- Node1&#45;&gt;Node10 -->
<g id="edge10" class="edge">
<title>Node1&#45;&gt;Node10</title>
<path fill="none" stroke="#191970" d="M285.0625,-201.3906C258.6065,-192.4508 218.4767,-178.8905 185.8749,-167.8739"/>
<polygon fill="#191970" stroke="#191970" points="186.6164,-164.4301 176.0222,-164.5446 184.3755,-171.0618 186.6164,-164.4301"/>
</g>
<!-- Node14 -->
<g id="node15" class="node">
<title>Node14</title>
<polygon fill="none" stroke="#bfbfbf" points="216.5,-140 216.5,-159 272.5,-159 272.5,-140 216.5,-140"/>
<text text-anchor="middle" x="244.5" y="-147" font-family="Helvetica,sans-Serif" font-size="10.00" fill="#000000">Rtypes.h</text>
</g>
<!-- Node1&#45;&gt;Node14 -->
<g id="edge16" class="edge">
<title>Node1&#45;&gt;Node14</title>
<path fill="none" stroke="#191970" d="M302.7188,-201.3906C292.1474,-191.9683 275.8175,-177.4134 263.1397,-166.1137"/>
<polygon fill="#191970" stroke="#191970" points="265.2272,-163.2858 255.4333,-159.2449 260.5696,-168.5114 265.2272,-163.2858"/>
</g>
<!-- Node4 -->
<g id="node5" class="node">
<title>Node4</title>
<polygon fill="none" stroke="#bfbfbf" points="155.5,-6 155.5,-25 199.5,-25 199.5,-6 155.5,-6"/>
<text text-anchor="middle" x="177.5" y="-13" font-family="Helvetica,sans-Serif" font-size="10.00" fill="#000000">vector</text>
</g>
<!-- Node3&#45;&gt;Node4 -->
<g id="edge4" class="edge">
<title>Node3&#45;&gt;Node4</title>
<path fill="none" stroke="#191970" d="M289.5406,-67.4767C266.4192,-57.4187 235.5035,-43.737 208.5,-31 207.5204,-30.5379 206.5253,-30.0642 205.5217,-29.5828"/>
<polygon fill="#191970" stroke="#191970" points="206.9712,-26.3956 196.4502,-25.1471 203.8963,-32.6841 206.9712,-26.3956"/>
</g>
<!-- Node5 -->
<g id="node6" class="node">
<title>Node5</title>
<polygon fill="none" stroke="#bfbfbf" points="218,-6 218,-25 253,-25 253,-6 218,-6"/>
<text text-anchor="middle" x="235.5" y="-13" font-family="Helvetica,sans-Serif" font-size="10.00" fill="#000000">map</text>
</g>
<!-- Node3&#45;&gt;Node5 -->
<g id="edge5" class="edge">
<title>Node3&#45;&gt;Node5</title>
<path fill="none" stroke="#191970" d="M304.3045,-67.2967C290.034,-56.5537 270.9532,-42.1895 256.5052,-31.3129"/>
<polygon fill="#191970" stroke="#191970" points="258.2867,-28.2731 248.1924,-25.055 254.0766,-33.8656 258.2867,-28.2731"/>
</g>
<!-- Node6 -->
<g id="node7" class="node">
<title>Node6</title>
<polygon fill="none" stroke="#bfbfbf" points="271,-6 271,-25 354,-25 354,-6 271,-6"/>
<text text-anchor="middle" x="312.5" y="-13" font-family="Helvetica,sans-Serif" font-size="10.00" fill="#000000">unordered_map</text>
</g>
<!-- Node3&#45;&gt;Node6 -->
<g id="edge6" class="edge">
<title>Node3&#45;&gt;Node6</title>
<path fill="none" stroke="#191970" d="M321.777,-67.2967C320.0707,-57.7699 317.8544,-45.3954 316.0159,-35.1306"/>
<polygon fill="#191970" stroke="#191970" points="319.4196,-34.2813 314.2113,-25.055 312.5292,-35.5154 319.4196,-34.2813"/>
</g>
<!-- Node7 -->
<g id="node8" class="node">
<title>Node7</title>
<polygon fill="none" stroke="#bfbfbf" points="372,-.5 372,-30.5 473,-30.5 473,-.5 372,-.5"/>
<text text-anchor="start" x="380" y="-18.5" font-family="Helvetica,sans-Serif" font-size="10.00" fill="#000000">boost/property_tree</text>
<text text-anchor="middle" x="422.5" y="-7.5" font-family="Helvetica,sans-Serif" font-size="10.00" fill="#000000">/ptree.hpp</text>
</g>
<!-- Node3&#45;&gt;Node7 -->
<g id="edge7" class="edge">
<title>Node3&#45;&gt;Node7</title>
<path fill="none" stroke="#191970" d="M346.7377,-67.2967C360.1447,-58.1306 377.4076,-46.3285 392.068,-36.3055"/>
<polygon fill="#191970" stroke="#191970" points="394.0705,-39.1763 400.3503,-30.6432 390.1198,-33.3977 394.0705,-39.1763"/>
</g>
<!-- Node8 -->
<g id="node9" class="node">
<title>Node8</title>
<polygon fill="none" stroke="#bfbfbf" points="74,-6 74,-25 125,-25 125,-6 74,-6"/>
<text text-anchor="middle" x="99.5" y="-13" font-family="Helvetica,sans-Serif" font-size="10.00" fill="#000000">typeinfo</text>
</g>
<!-- Node3&#45;&gt;Node8 -->
<g id="edge8" class="edge">
<title>Node3&#45;&gt;Node8</title>
<path fill="none" stroke="#191970" d="M270.5998,-67.4646C235.2202,-57.458 187.9888,-43.8383 146.5,-31 142.7294,-29.8332 138.7987,-28.5861 134.8867,-27.325"/>
<polygon fill="#191970" stroke="#191970" points="135.8952,-23.9726 125.3027,-24.1994 133.7247,-30.6276 135.8952,-23.9726"/>
</g>
<!-- Node3&#45;&gt;Node9 -->
<g id="edge9" class="edge">
<title>Node3&#45;&gt;Node9</title>
<path fill="none" stroke="#191970" d="M373.6448,-67.4877C404.7712,-57.707 445.7511,-44.3271 481.5,-31 483.3109,-30.3249 485.164,-29.614 487.0288,-28.8831"/>
<polygon fill="#191970" stroke="#191970" points="488.3489,-32.1247 496.3098,-25.1336 485.7268,-25.6343 488.3489,-32.1247"/>
</g>
<!-- Node10&#45;&gt;Node3 -->
<g id="edge11" class="edge">
<title>Node10&#45;&gt;Node3</title>
<path fill="none" stroke="#191970" d="M174.813,-134.4639C203.3942,-124.5419 241.0278,-111.4774 271.4094,-100.9304"/>
<polygon fill="#191970" stroke="#191970" points="272.699,-104.1877 280.9981,-97.6017 270.4033,-97.5748 272.699,-104.1877"/>
</g>
<!-- Node10&#45;&gt;Node8 -->
<g id="edge14" class="edge">
<title>Node10&#45;&gt;Node8</title>
<path fill="none" stroke="#191970" d="M116.6214,-134.2541C108.3592,-124.6909 98.8864,-111.6233 94.5,-98 87.862,-77.384 90.7897,-52.3991 94.3107,-35.3638"/>
<polygon fill="#191970" stroke="#191970" points="97.7617,-35.9756 96.6157,-25.4429 90.9433,-34.3914 97.7617,-35.9756"/>
</g>
<!-- Node11 -->
<g id="node12" class="node">
<title>Node11</title>
<polygon fill="none" stroke="#bfbfbf" points="103.5,-73 103.5,-92 159.5,-92 159.5,-73 103.5,-73"/>
<text text-anchor="middle" x="131.5" y="-80" font-family="Helvetica,sans-Serif" font-size="10.00" fill="#000000">TClass.h</text>
</g>
<!-- Node10&#45;&gt;Node11 -->
<g id="edge12" class="edge">
<title>Node10&#45;&gt;Node11</title>
<path fill="none" stroke="#191970" d="M131.5,-134.2967C131.5,-124.7699 131.5,-112.3954 131.5,-102.1306"/>
<polygon fill="#191970" stroke="#191970" points="135.0001,-102.0549 131.5,-92.055 128.0001,-102.055 135.0001,-102.0549"/>
</g>
<!-- Node12 -->
<g id="node13" class="node">
<title>Node12</title>
<polygon fill="none" stroke="#bfbfbf" points="177.5,-73 177.5,-92 239.5,-92 239.5,-73 177.5,-73"/>
<text text-anchor="middle" x="208.5" y="-80" font-family="Helvetica,sans-Serif" font-size="10.00" fill="#000000">type_traits</text>
</g>
<!-- Node10&#45;&gt;Node12 -->
<g id="edge13" class="edge">
<title>Node10&#45;&gt;Node12</title>
<path fill="none" stroke="#191970" d="M148.9725,-134.2967C161.2024,-123.6551 177.5159,-109.4602 189.9721,-98.6217"/>
<polygon fill="#191970" stroke="#191970" points="192.2724,-101.2596 197.5189,-92.055 187.6775,-95.9788 192.2724,-101.2596"/>
</g>
<!-- Node13 -->
<g id="node14" class="node">
<title>Node13</title>
<polygon fill="none" stroke="#bfbfbf" points="0,-73 0,-92 47,-92 47,-73 0,-73"/>
<text text-anchor="middle" x="23.5" y="-80" font-family="Helvetica,sans-Serif" font-size="10.00" fill="#000000">TFile.h</text>
</g>
<!-- Node10&#45;&gt;Node13 -->
<g id="edge15" class="edge">
<title>Node10&#45;&gt;Node13</title>
<path fill="none" stroke="#191970" d="M107.2627,-134.4639C89.4682,-123.4247 65.4031,-108.4954 47.6331,-97.4715"/>
<polygon fill="#191970" stroke="#191970" points="49.3237,-94.4015 38.9809,-92.1039 45.6335,-100.3498 49.3237,-94.4015"/>
</g>
</g>
</svg>
