<?xml version="1.0" encoding="UTF-8" standalone="no"?>
<!DOCTYPE svg PUBLIC "-//W3C//DTD SVG 1.1//EN"
 "http://www.w3.org/Graphics/SVG/1.1/DTD/svg11.dtd">
<!-- Generated by graphviz version 2.40.1 (20161225.0304)
 -->
<!-- Title: GPUCA_NAMESPACE::gpu::Spline1DHelper&lt; DataT &gt;::DataPoint Pages: 1 -->
<svg width="170pt" height="237pt"
 viewBox="0.00 0.00 169.50 237.00" xmlns="http://www.w3.org/2000/svg" xmlns:xlink="http://www.w3.org/1999/xlink">
<g id="graph0" class="graph" transform="scale(1 1) rotate(0) translate(4 233)">
<title>GPUCA_NAMESPACE::gpu::Spline1DHelper&lt; DataT &gt;::DataPoint</title>
<!-- Node1 -->
<g id="node1" class="node">
<title>Node1</title>
<polygon fill="#bfbfbf" stroke="#000000" points="6,-.5 6,-79.5 149,-79.5 149,-.5 6,-.5"/>
<text text-anchor="start" x="14" y="-67.5" font-family="Helvetica,sans-Serif" font-size="10.00" fill="#000000">GPUCA_NAMESPACE::gpu</text>
<text text-anchor="start" x="14" y="-56.5" font-family="Helvetica,sans-Serif" font-size="10.00" fill="#000000">::Spline1DHelper&lt; DataT</text>
<text text-anchor="middle" x="77.5" y="-45.5" font-family="Helvetica,sans-Serif" font-size="10.00" fill="#000000"> &gt;::DataPoint</text>
<polyline fill="none" stroke="#000000" points="6,-38.5 149,-38.5 "/>
<text text-anchor="middle" x="77.5" y="-26.5" font-family="Helvetica,sans-Serif" font-size="10.00" fill="#000000"> </text>
<polyline fill="none" stroke="#000000" points="6,-19.5 149,-19.5 "/>
<text text-anchor="middle" x="77.5" y="-7.5" font-family="Helvetica,sans-Serif" font-size="10.00" fill="#000000"> </text>
</g>
<!-- Node2 -->
<g id="node2" class="node">
<title>Node2</title>
<polygon fill="none" stroke="#bfbfbf" points="0,-171.5 0,-228.5 45,-228.5 45,-171.5 0,-171.5"/>
<text text-anchor="middle" x="22.5" y="-216.5" font-family="Helvetica,sans-Serif" font-size="10.00" fill="#000000">double</text>
<polyline fill="none" stroke="#bfbfbf" points="0,-209.5 45,-209.5 "/>
<text text-anchor="middle" x="22.5" y="-197.5" font-family="Helvetica,sans-Serif" font-size="10.00" fill="#000000"> </text>
<polyline fill="none" stroke="#bfbfbf" points="0,-190.5 45,-190.5 "/>
<text text-anchor="middle" x="22.5" y="-178.5" font-family="Helvetica,sans-Serif" font-size="10.00" fill="#000000"> </text>
</g>
<!-- Node2&#45;&gt;Node1 -->
<g id="edge1" class="edge">
<title>Node2&#45;&gt;Node1</title>
<path fill="none" stroke="#404040" d="M27.1937,-171.2707C31.0801,-150.503 37.4406,-121.9975 46.5,-98 47.4338,-95.5265 48.4522,-93.026 49.5325,-90.5235"/>
<polygon fill="none" stroke="#404040" points="49.5422,-90.5024 48.4391,-83.3761 54.5929,-79.617 55.696,-86.7432 49.5422,-90.5024"/>
<text text-anchor="middle" x="60" y="-145" font-family="Helvetica,sans-Serif" font-size="10.00" fill="#000000"> +cS0</text>
<text text-anchor="middle" x="60" y="-134" font-family="Helvetica,sans-Serif" font-size="10.00" fill="#000000">+cS1</text>
<text text-anchor="middle" x="60" y="-123" font-family="Helvetica,sans-Serif" font-size="10.00" fill="#000000">+u</text>
<text text-anchor="middle" x="60" y="-112" font-family="Helvetica,sans-Serif" font-size="10.00" fill="#000000">+cZ0</text>
<text text-anchor="middle" x="60" y="-101" font-family="Helvetica,sans-Serif" font-size="10.00" fill="#000000">+cZ1</text>
</g>
<!-- Node3 -->
<g id="node3" class="node">
<title>Node3</title>
<polygon fill="none" stroke="#bfbfbf" points="63,-171.5 63,-228.5 92,-228.5 92,-171.5 63,-171.5"/>
<text text-anchor="middle" x="77.5" y="-216.5" font-family="Helvetica,sans-Serif" font-size="10.00" fill="#000000">int</text>
<polyline fill="none" stroke="#bfbfbf" points="63,-209.5 92,-209.5 "/>
<text text-anchor="middle" x="77.5" y="-197.5" font-family="Helvetica,sans-Serif" font-size="10.00" fill="#000000"> </text>
<polyline fill="none" stroke="#bfbfbf" points="63,-190.5 92,-190.5 "/>
<text text-anchor="middle" x="77.5" y="-178.5" font-family="Helvetica,sans-Serif" font-size="10.00" fill="#000000"> </text>
</g>
<!-- Node3&#45;&gt;Node1 -->
<g id="edge2" class="edge">
<title>Node3&#45;&gt;Node1</title>
<path fill="none" stroke="#404040" d="M77.5,-171.3952C77.5,-149.3577 77.5,-118.2968 77.5,-91.9075"/>
<polygon fill="none" stroke="#404040" points="77.5001,-91.7754 73.5,-85.7755 77.5,-79.7754 81.5,-85.7754 77.5001,-91.7754"/>
<text text-anchor="middle" x="93.5" y="-123" font-family="Helvetica,sans-Serif" font-size="10.00" fill="#000000"> +iKnot</text>
</g>
<!-- Node4 -->
<g id="node4" class="node">
<title>Node4</title>
<polygon fill="none" stroke="#bfbfbf" points="115,-171.5 115,-228.5 150,-228.5 150,-171.5 115,-171.5"/>
<text text-anchor="middle" x="132.5" y="-216.5" font-family="Helvetica,sans-Serif" font-size="10.00" fill="#000000">bool</text>
<polyline fill="none" stroke="#bfbfbf" points="115,-209.5 150,-209.5 "/>
<text text-anchor="middle" x="132.5" y="-197.5" font-family="Helvetica,sans-Serif" font-size="10.00" fill="#000000"> </text>
<polyline fill="none" stroke="#bfbfbf" points="115,-190.5 150,-190.5 "/>
<text text-anchor="middle" x="132.5" y="-178.5" font-family="Helvetica,sans-Serif" font-size="10.00" fill="#000000"> </text>
</g>
<!-- Node4&#45;&gt;Node1 -->
<g id="edge3" class="edge">
<title>Node4&#45;&gt;Node1</title>
<path fill="none" stroke="#404040" d="M128.6877,-171.1884C125.3624,-150.3808 119.6142,-121.8615 110.5,-98 109.5957,-95.6326 108.605,-93.2462 107.5493,-90.8615"/>
<polygon fill="none" stroke="#404040" points="107.4239,-90.6011 101.2159,-86.9323 102.2148,-79.7907 108.4228,-83.4595 107.4239,-90.6011"/>
<text text-anchor="middle" x="143" y="-123" font-family="Helvetica,sans-Serif" font-size="10.00" fill="#000000"> +isKnot</text>
</g>
</g>
</svg>
