<?xml version="1.0" encoding="UTF-8" standalone="no"?>
<!DOCTYPE svg PUBLIC "-//W3C//DTD SVG 1.1//EN"
 "http://www.w3.org/Graphics/SVG/1.1/DTD/svg11.dtd">
<!-- Generated by graphviz version 2.40.1 (20161225.0304)
 -->
<!-- Title: /home/runner/work/AliceO2/AliceO2/Utilities/DataSampling/src/DataSamplingConditionCustom.cxx Pages: 1 -->
<!--zoomable 251 -->
<svg id="main" version="1.1" xmlns="http://www.w3.org/2000/svg" xmlns:xlink="http://www.w3.org/1999/xlink" xml:space="preserve" onload="init(evt)">
<style type="text/css"><![CDATA[
.edge:hover path { stroke: red; }
.edge:hover polygon { stroke: red; fill: red; }
]]></style>
<script type="text/javascript"><![CDATA[
var edges = document.getElementsByTagName('g');
if (edges && edges.length) {
  for (var i=0;i<edges.length;i++) {
    if (edges[i].id.substr(0,4)=='edge') {
      edges[i].setAttribute('class','edge');
    }
  }
}
]]></script>
        <defs>
                <circle id="rim" cx="0" cy="0" r="7"/>
                <circle id="rim2" cx="0" cy="0" r="3.5"/>
                <g id="zoomPlus">
                        <use xlink:href="#rim" fill="#404040">
                                <set attributeName="fill" to="#808080" begin="zoomplus.mouseover" end="zoomplus.mouseout"/>
                        </use>
                        <path d="M-4,0h8M0,-4v8" fill="none" stroke="white" stroke-width="1.5" pointer-events="none"/>
                </g>
                <g id="zoomMin">
                        <use xlink:href="#rim" fill="#404040">
                                <set attributeName="fill" to="#808080" begin="zoomminus.mouseover" end="zoomminus.mouseout"/>
                        </use>
                        <path d="M-4,0h8" fill="none" stroke="white" stroke-width="1.5" pointer-events="none"/>
                </g>
                <g id="dirArrow">
                        <path fill="none" stroke="white" stroke-width="1.5" d="M0,-3.0v7 M-2.5,-0.5L0,-3.0L2.5,-0.5"/>
                </g>
               <g id="resetDef">
                       <use xlink:href="#rim2" fill="#404040">
                               <set attributeName="fill" to="#808080" begin="reset.mouseover" end="reset.mouseout"/>
                       </use>
               </g>
        </defs>

<script type="text/javascript">
var viewWidth = 1069;
var viewHeight = 251;
var sectionId = 'dynsection-0';
</script>
<script xlink:href="../../svgpan.js"/>
<svg id="graph" class="graph">
<g id="viewport">
<title>/home/runner/work/AliceO2/AliceO2/Utilities/DataSampling/src/DataSamplingConditionCustom.cxx</title>
<!-- Node0 -->
<g id="node1" class="node">
<title>Node0</title>
<polygon fill="#bfbfbf" stroke="#000000" points="609.5,-201.5 609.5,-242.5 801.5,-242.5 801.5,-201.5 609.5,-201.5"/>
<text text-anchor="start" x="617.5" y="-230.5" font-family="Helvetica,sans-Serif" font-size="10.00" fill="#000000">/home/runner/work/AliceO2</text>
<text text-anchor="start" x="617.5" y="-219.5" font-family="Helvetica,sans-Serif" font-size="10.00" fill="#000000">/AliceO2/Utilities/DataSampling</text>
<text text-anchor="middle" x="705.5" y="-208.5" font-family="Helvetica,sans-Serif" font-size="10.00" fill="#000000">/src/DataSamplingConditionCustom.cxx</text>
</g>
<!-- Node1 -->
<g id="node2" class="node">
<title>Node1</title>
<g id="a_node2"><a xlink:href="../../dd/dcf/DataSamplingCondition_8h.html" target="_top" xlink:title="A standarised data sampling condition, to decide if given data sample should be passed forward...">
<polygon fill="none" stroke="#000000" points="104,-67.5 104,-97.5 247,-97.5 247,-67.5 104,-67.5"/>
<text text-anchor="start" x="112" y="-85.5" font-family="Helvetica,sans-Serif" font-size="10.00" fill="#000000">DataSampling/DataSampling</text>
<text text-anchor="middle" x="175.5" y="-74.5" font-family="Helvetica,sans-Serif" font-size="10.00" fill="#000000">Condition.h</text>
</a>
</g>
</g>
<!-- Node0&#45;&gt;Node1 -->
<g id="edge1" class="edge">
<title>Node0&#45;&gt;Node1</title>
<path fill="none" stroke="#191970" d="M609.4214,-219.3024C490.7242,-214.4487 296.929,-201.1033 235.5,-165 212.7726,-151.6426 196.1898,-125.9265 186.2899,-106.7396"/>
<polygon fill="#191970" stroke="#191970" points="189.3877,-105.1072 181.8469,-97.6649 183.1008,-108.1853 189.3877,-105.1072"/>
</g>
<!-- Node5 -->
<g id="node6" class="node">
<title>Node5</title>
<g id="a_node6"><a xlink:href="../../de/dca/DataSamplingConditionFactory_8h.html" target="_top" xlink:title="A definition of DataSamplingConditionFactory. ">
<polygon fill="none" stroke="#000000" points="245,-134.5 245,-164.5 388,-164.5 388,-134.5 245,-134.5"/>
<text text-anchor="start" x="253" y="-152.5" font-family="Helvetica,sans-Serif" font-size="10.00" fill="#000000">DataSampling/DataSampling</text>
<text text-anchor="middle" x="316.5" y="-141.5" font-family="Helvetica,sans-Serif" font-size="10.00" fill="#000000">ConditionFactory.h</text>
</a>
</g>
</g>
<!-- Node0&#45;&gt;Node5 -->
<g id="edge5" class="edge">
<title>Node0&#45;&gt;Node5</title>
<path fill="none" stroke="#191970" d="M609.3427,-204.0786C544.4465,-191.9836 459.7285,-176.1943 398.1192,-164.7118"/>
<polygon fill="#191970" stroke="#191970" points="398.5241,-161.2271 388.0521,-162.8355 397.2415,-168.1086 398.5241,-161.2271"/>
</g>
<!-- Node7 -->
<g id="node8" class="node">
<title>Node7</title>
<g id="a_node8"><a xlink:href="../../dc/dcd/DataHeader_8h.html" target="_top" xlink:title="Headers/DataHeader.h">
<polygon fill="none" stroke="#000000" points="475,-140 475,-159 592,-159 592,-140 475,-140"/>
<text text-anchor="middle" x="533.5" y="-147" font-family="Helvetica,sans-Serif" font-size="10.00" fill="#000000">Headers/DataHeader.h</text>
</a>
</g>
</g>
<!-- Node0&#45;&gt;Node7 -->
<g id="edge9" class="edge">
<title>Node0&#45;&gt;Node7</title>
<path fill="none" stroke="#191970" d="M656.6718,-201.4183C627.4335,-189.0941 591.0971,-173.7779 565.4915,-162.9848"/>
<polygon fill="#191970" stroke="#191970" points="566.8147,-159.7444 556.2404,-159.0853 564.0958,-166.1948 566.8147,-159.7444"/>
</g>
<!-- Node16 -->
<g id="node17" class="node">
<title>Node16</title>
<polygon fill="none" stroke="#bfbfbf" points="610,-140 610,-159 707,-159 707,-140 610,-140"/>
<text text-anchor="middle" x="658.5" y="-147" font-family="Helvetica,sans-Serif" font-size="10.00" fill="#000000">fairlogger/Logger.h</text>
</g>
<!-- Node0&#45;&gt;Node16 -->
<g id="edge20" class="edge">
<title>Node0&#45;&gt;Node16</title>
<path fill="none" stroke="#191970" d="M692.1574,-201.4183C685.259,-190.7771 676.9145,-177.9053 670.2601,-167.6405"/>
<polygon fill="#191970" stroke="#191970" points="673.0906,-165.5725 664.714,-159.0853 667.2168,-169.3803 673.0906,-165.5725"/>
</g>
<!-- Node17 -->
<g id="node18" class="node">
<title>Node17</title>
<polygon fill="none" stroke="#bfbfbf" points="725.5,-140 725.5,-159 781.5,-159 781.5,-140 725.5,-140"/>
<text text-anchor="middle" x="753.5" y="-147" font-family="Helvetica,sans-Serif" font-size="10.00" fill="#000000">TClass.h</text>
</g>
<!-- Node0&#45;&gt;Node17 -->
<g id="edge21" class="edge">
<title>Node0&#45;&gt;Node17</title>
<path fill="none" stroke="#191970" d="M719.1265,-201.4183C726.1717,-190.7771 734.6937,-177.9053 741.4897,-167.6405"/>
<polygon fill="#191970" stroke="#191970" points="744.5517,-169.3557 747.1538,-159.0853 738.715,-165.4914 744.5517,-169.3557"/>
</g>
<!-- Node18 -->
<g id="node19" class="node">
<title>Node18</title>
<polygon fill="none" stroke="#bfbfbf" points="800,-140 800,-159 859,-159 859,-140 800,-140"/>
<text text-anchor="middle" x="829.5" y="-147" font-family="Helvetica,sans-Serif" font-size="10.00" fill="#000000">TROOT.h</text>
</g>
<!-- Node0&#45;&gt;Node18 -->
<g id="edge22" class="edge">
<title>Node0&#45;&gt;Node18</title>
<path fill="none" stroke="#191970" d="M740.7017,-201.4183C761.0376,-189.5284 786.1364,-174.8537 804.4564,-164.1424"/>
<polygon fill="#191970" stroke="#191970" points="806.2396,-167.1542 813.1057,-159.0853 802.7064,-161.1113 806.2396,-167.1542"/>
</g>
<!-- Node19 -->
<g id="node20" class="node">
<title>Node19</title>
<polygon fill="none" stroke="#bfbfbf" points="877,-140 877,-159 942,-159 942,-140 877,-140"/>
<text text-anchor="middle" x="909.5" y="-147" font-family="Helvetica,sans-Serif" font-size="10.00" fill="#000000">TSystem.h</text>
</g>
<!-- Node0&#45;&gt;Node19 -->
<g id="edge23" class="edge">
<title>Node0&#45;&gt;Node19</title>
<path fill="none" stroke="#191970" d="M765.6229,-201.3781C796.4485,-190.7031 834.5521,-177.3505 868.5,-165 870.5917,-164.239 872.7407,-163.4496 874.9065,-162.6481"/>
<polygon fill="#191970" stroke="#191970" points="876.2414,-165.8858 884.3849,-159.1084 873.7924,-159.3282 876.2414,-165.8858"/>
</g>
<!-- Node20 -->
<g id="node21" class="node">
<title>Node20</title>
<polygon fill="none" stroke="#bfbfbf" points="960,-134.5 960,-164.5 1061,-164.5 1061,-134.5 960,-134.5"/>
<text text-anchor="start" x="968" y="-152.5" font-family="Helvetica,sans-Serif" font-size="10.00" fill="#000000">boost/property_tree</text>
<text text-anchor="middle" x="1010.5" y="-141.5" font-family="Helvetica,sans-Serif" font-size="10.00" fill="#000000">/ptree.hpp</text>
</g>
<!-- Node0&#45;&gt;Node20 -->
<g id="edge24" class="edge">
<title>Node0&#45;&gt;Node20</title>
<path fill="none" stroke="#191970" d="M797.0656,-201.4526C840.8876,-191.4584 894.3208,-179.0409 950.2617,-165.2747"/>
<polygon fill="#191970" stroke="#191970" points="951.1245,-168.6668 959.9943,-162.8721 949.4469,-161.8708 951.1245,-168.6668"/>
</g>
<!-- Node2 -->
<g id="node3" class="node">
<title>Node2</title>
<g id="a_node3"><a xlink:href="../../d5/dfb/DataRef_8h.html" target="_top" xlink:title="Framework/DataRef.h">
<polygon fill="none" stroke="#000000" points="0,-6 0,-25 113,-25 113,-6 0,-6"/>
<text text-anchor="middle" x="56.5" y="-13" font-family="Helvetica,sans-Serif" font-size="10.00" fill="#000000">Framework/DataRef.h</text>
</a>
</g>
</g>
<!-- Node1&#45;&gt;Node2 -->
<g id="edge2" class="edge">
<title>Node1&#45;&gt;Node2</title>
<path fill="none" stroke="#191970" d="M148.7941,-67.4639C128.9173,-56.2728 101.9399,-41.0838 82.2868,-30.0186"/>
<polygon fill="#191970" stroke="#191970" points="83.9887,-26.9602 73.5577,-25.1039 80.5544,-33.0599 83.9887,-26.9602"/>
</g>
<!-- Node3 -->
<g id="node4" class="node">
<title>Node3</title>
<polygon fill="none" stroke="#bfbfbf" points="131,-.5 131,-30.5 232,-30.5 232,-.5 131,-.5"/>
<text text-anchor="start" x="139" y="-18.5" font-family="Helvetica,sans-Serif" font-size="10.00" fill="#000000">boost/property_tree</text>
<text text-anchor="middle" x="181.5" y="-7.5" font-family="Helvetica,sans-Serif" font-size="10.00" fill="#000000">/ptree_fwd.hpp</text>
</g>
<!-- Node1&#45;&gt;Node3 -->
<g id="edge3" class="edge">
<title>Node1&#45;&gt;Node3</title>
<path fill="none" stroke="#191970" d="M176.8615,-67.2967C177.5673,-59.4156 178.4476,-49.5857 179.251,-40.6135"/>
<polygon fill="#191970" stroke="#191970" points="182.7379,-40.9155 180.1439,-30.6432 175.7658,-40.2911 182.7379,-40.9155"/>
</g>
<!-- Node4 -->
<g id="node5" class="node">
<title>Node4</title>
<polygon fill="none" stroke="#bfbfbf" points="255,-6 255,-25 296,-25 296,-6 255,-6"/>
<text text-anchor="middle" x="275.5" y="-13" font-family="Helvetica,sans-Serif" font-size="10.00" fill="#000000">string</text>
</g>
<!-- Node1&#45;&gt;Node4 -->
<g id="edge4" class="edge">
<title>Node1&#45;&gt;Node4</title>
<path fill="none" stroke="#191970" d="M198.1915,-67.2967C214.5283,-56.351 236.4759,-41.6462 252.8119,-30.701"/>
<polygon fill="#191970" stroke="#191970" points="254.8793,-33.5289 261.2388,-25.055 250.983,-27.7135 254.8793,-33.5289"/>
</g>
<!-- Node5&#45;&gt;Node1 -->
<g id="edge6" class="edge">
<title>Node5&#45;&gt;Node1</title>
<path fill="none" stroke="#191970" d="M284.8568,-134.4639C264.7701,-124.9191 238.5633,-112.4663 216.8403,-102.144"/>
<polygon fill="#191970" stroke="#191970" points="218.0597,-98.8484 207.5254,-97.7177 215.0554,-105.1709 218.0597,-98.8484"/>
</g>
<!-- Node5&#45;&gt;Node4 -->
<g id="edge8" class="edge">
<title>Node5&#45;&gt;Node4</title>
<path fill="none" stroke="#191970" d="M309.2306,-134.4481C304.55,-124.3209 298.5971,-110.572 294.5,-98 287.6915,-77.1081 282.3554,-52.4817 279.0939,-35.6075"/>
<polygon fill="#191970" stroke="#191970" points="282.447,-34.4949 277.1749,-25.305 275.5654,-35.7769 282.447,-34.4949"/>
</g>
<!-- Node6 -->
<g id="node7" class="node">
<title>Node6</title>
<polygon fill="none" stroke="#bfbfbf" points="303.5,-73 303.5,-92 355.5,-92 355.5,-73 303.5,-73"/>
<text text-anchor="middle" x="329.5" y="-80" font-family="Helvetica,sans-Serif" font-size="10.00" fill="#000000">memory</text>
</g>
<!-- Node5&#45;&gt;Node6 -->
<g id="edge7" class="edge">
<title>Node5&#45;&gt;Node6</title>
<path fill="none" stroke="#191970" d="M319.4499,-134.2967C321.2984,-124.7699 323.6994,-112.3954 325.6911,-102.1306"/>
<polygon fill="#191970" stroke="#191970" points="329.1771,-102.5386 327.6461,-92.055 322.3053,-101.2052 329.1771,-102.5386"/>
</g>
<!-- Node7&#45;&gt;Node4 -->
<g id="edge16" class="edge">
<title>Node7&#45;&gt;Node4</title>
<path fill="none" stroke="#191970" d="M501.2658,-139.9334C473.9389,-131.1088 434.2431,-116.5746 402.5,-98 383.6881,-86.9921 382.4342,-79.3865 364.5,-67 344.6115,-53.2637 320.8646,-39.6513 302.9043,-29.8742"/>
<polygon fill="#191970" stroke="#191970" points="304.5551,-26.788 294.0907,-25.1307 301.2376,-32.952 304.5551,-26.788"/>
</g>
<!-- Node7&#45;&gt;Node6 -->
<g id="edge11" class="edge">
<title>Node7&#45;&gt;Node6</title>
<path fill="none" stroke="#191970" d="M500.9317,-139.9582C467.6901,-130.0589 414.7042,-113.8369 369.5,-98 367.387,-97.2597 365.2186,-96.4796 363.0371,-95.6791"/>
<polygon fill="#191970" stroke="#191970" points="364.1108,-92.3436 353.5188,-92.1003 361.6472,-98.8958 364.1108,-92.3436"/>
</g>
<!-- Node8 -->
<g id="node9" class="node">
<title>Node8</title>
<polygon fill="none" stroke="#bfbfbf" points="411.5,-73 411.5,-92 457.5,-92 457.5,-73 411.5,-73"/>
<text text-anchor="middle" x="434.5" y="-80" font-family="Helvetica,sans-Serif" font-size="10.00" fill="#000000">cstdint</text>
</g>
<!-- Node7&#45;&gt;Node8 -->
<g id="edge10" class="edge">
<title>Node7&#45;&gt;Node8</title>
<path fill="none" stroke="#191970" d="M519.3157,-139.9005C503.0689,-128.9052 476.2309,-110.7422 457.0966,-97.7927"/>
<polygon fill="#191970" stroke="#191970" points="458.9014,-94.7879 448.658,-92.0817 454.978,-100.5851 458.9014,-94.7879"/>
</g>
<!-- Node9 -->
<g id="node10" class="node">
<title>Node9</title>
<polygon fill="none" stroke="#bfbfbf" points="476,-73 476,-92 525,-92 525,-73 476,-73"/>
<text text-anchor="middle" x="500.5" y="-80" font-family="Helvetica,sans-Serif" font-size="10.00" fill="#000000">cassert</text>
</g>
<!-- Node7&#45;&gt;Node9 -->
<g id="edge12" class="edge">
<title>Node7&#45;&gt;Node9</title>
<path fill="none" stroke="#191970" d="M528.7719,-139.9005C523.8219,-129.8505 515.9224,-113.8122 509.7303,-101.2403"/>
<polygon fill="#191970" stroke="#191970" points="512.7777,-99.5061 505.2193,-92.0817 506.4981,-102.5991 512.7777,-99.5061"/>
</g>
<!-- Node10 -->
<g id="node11" class="node">
<title>Node10</title>
<polygon fill="none" stroke="#bfbfbf" points="543.5,-73 543.5,-92 589.5,-92 589.5,-73 543.5,-73"/>
<text text-anchor="middle" x="566.5" y="-80" font-family="Helvetica,sans-Serif" font-size="10.00" fill="#000000">cstring</text>
</g>
<!-- Node7&#45;&gt;Node10 -->
<g id="edge13" class="edge">
<title>Node7&#45;&gt;Node10</title>
<path fill="none" stroke="#191970" d="M538.2281,-139.9005C543.1781,-129.8505 551.0776,-113.8122 557.2697,-101.2403"/>
<polygon fill="#191970" stroke="#191970" points="560.5019,-102.5991 561.7807,-92.0817 554.2223,-99.5061 560.5019,-102.5991"/>
</g>
<!-- Node11 -->
<g id="node12" class="node">
<title>Node11</title>
<polygon fill="none" stroke="#bfbfbf" points="607.5,-73 607.5,-92 663.5,-92 663.5,-73 607.5,-73"/>
<text text-anchor="middle" x="635.5" y="-80" font-family="Helvetica,sans-Serif" font-size="10.00" fill="#000000">algorithm</text>
</g>
<!-- Node7&#45;&gt;Node11 -->
<g id="edge14" class="edge">
<title>Node7&#45;&gt;Node11</title>
<path fill="none" stroke="#191970" d="M548.1141,-139.9005C564.929,-128.8554 592.7549,-110.5776 612.4858,-97.6172"/>
<polygon fill="#191970" stroke="#191970" points="614.4764,-100.4972 620.913,-92.0817 610.6333,-94.6465 614.4764,-100.4972"/>
</g>
<!-- Node12 -->
<g id="node13" class="node">
<title>Node12</title>
<polygon fill="none" stroke="#bfbfbf" points="682,-73 682,-92 741,-92 741,-73 682,-73"/>
<text text-anchor="middle" x="711.5" y="-80" font-family="Helvetica,sans-Serif" font-size="10.00" fill="#000000">stdexcept</text>
</g>
<!-- Node7&#45;&gt;Node12 -->
<g id="edge15" class="edge">
<title>Node7&#45;&gt;Node12</title>
<path fill="none" stroke="#191970" d="M559.958,-139.9067C587.9747,-129.6992 633.4588,-112.9883 672.5,-98 674.3365,-97.2949 676.2195,-96.5662 678.1186,-95.8266"/>
<polygon fill="#191970" stroke="#191970" points="679.5822,-99.0121 687.6096,-92.0976 677.0223,-92.4969 679.5822,-99.0121"/>
</g>
<!-- Node13 -->
<g id="node14" class="node">
<title>Node13</title>
<polygon fill="none" stroke="#bfbfbf" points="759,-73 759,-92 804,-92 804,-73 759,-73"/>
<text text-anchor="middle" x="781.5" y="-80" font-family="Helvetica,sans-Serif" font-size="10.00" fill="#000000">climits</text>
</g>
<!-- Node7&#45;&gt;Node13 -->
<g id="edge17" class="edge">
<title>Node7&#45;&gt;Node13</title>
<path fill="none" stroke="#191970" d="M574.8385,-139.9476C635.4503,-125.9042 742.1975,-101.015 750.5,-98 751.914,-97.4865 753.3474,-96.9255 754.783,-96.3312"/>
<polygon fill="#191970" stroke="#191970" points="756.4624,-99.4121 764.1058,-92.0752 753.5553,-93.0442 756.4624,-99.4121"/>
</g>
<!-- Node14 -->
<g id="node15" class="node">
<title>Node14</title>
<g id="a_node15"><a xlink:href="../../d7/df8/Types_8h.html" target="_top" xlink:title="MemoryResources/Types.h">
<polygon fill="none" stroke="#000000" points="822,-73 822,-92 959,-92 959,-73 822,-73"/>
<text text-anchor="middle" x="890.5" y="-80" font-family="Helvetica,sans-Serif" font-size="10.00" fill="#000000">MemoryResources/Types.h</text>
</a>
</g>
</g>
<!-- Node7&#45;&gt;Node14 -->
<g id="edge18" class="edge">
<title>Node7&#45;&gt;Node14</title>
<path fill="none" stroke="#191970" d="M573.6922,-139.9473C582.8142,-137.8883 592.4741,-135.7936 601.5,-134 695.2382,-115.3728 719.5322,-115.432 813.5,-98 820.166,-96.7634 827.1471,-95.4225 834.0695,-94.0644"/>
<polygon fill="#191970" stroke="#191970" points="834.9967,-97.4488 844.1261,-92.0725 833.6366,-90.5822 834.9967,-97.4488"/>
</g>
<!-- Node15 -->
<g id="node16" class="node">
<title>Node15</title>
<polygon fill="none" stroke="#bfbfbf" points="977.5,-73 977.5,-92 1021.5,-92 1021.5,-73 977.5,-73"/>
<text text-anchor="middle" x="999.5" y="-80" font-family="Helvetica,sans-Serif" font-size="10.00" fill="#000000">cerrno</text>
</g>
<!-- Node7&#45;&gt;Node15 -->
<g id="edge19" class="edge">
<title>Node7&#45;&gt;Node15</title>
<path fill="none" stroke="#191970" d="M571.4563,-139.9573C581.2006,-137.7532 591.6995,-135.5911 601.5,-134 763.2758,-107.7357 811.0212,-143.4054 968.5,-98 970.2092,-97.5072 971.9371,-96.9215 973.6564,-96.271"/>
<polygon fill="#191970" stroke="#191970" points="975.4988,-99.2828 983.2228,-92.031 972.6623,-92.8832 975.4988,-99.2828"/>
</g>
</g>
</svg>
        <g id="navigator" transform="translate(0 0)" fill="#404254">
                <rect fill="#f2f5e9" fill-opacity="0.5" stroke="#606060" stroke-width=".5" x="0" y="0" width="60" height="60"/>
                <use id="zoomplus" xlink:href="#zoomPlus" x="17" y="9" onmousedown="handleZoom(evt,'in')"/>
                <use id="zoomminus" xlink:href="#zoomMin" x="42" y="9" onmousedown="handleZoom(evt,'out')"/>
                <use id="reset" xlink:href="#resetDef" x="30" y="36" onmousedown="handleReset()"/>
                <g id="arrowUp" xlink:href="#dirArrow" transform="translate(30 24)" onmousedown="handlePan(0,-1)">
                  <use xlink:href="#rim" fill="#404040">
                        <set attributeName="fill" to="#808080" begin="arrowUp.mouseover" end="arrowUp.mouseout"/>
                  </use>
                  <path fill="none" stroke="white" stroke-width="1.5" d="M0,-3.0v7 M-2.5,-0.5L0,-3.0L2.5,-0.5"/>
                </g>
                <g id="arrowRight" xlink:href="#dirArrow" transform="rotate(90) translate(36 -43)" onmousedown="handlePan(1,0)">
                  <use xlink:href="#rim" fill="#404040">
                        <set attributeName="fill" to="#808080" begin="arrowRight.mouseover" end="arrowRight.mouseout"/>
                  </use>
                  <path fill="none" stroke="white" stroke-width="1.5" d="M0,-3.0v7 M-2.5,-0.5L0,-3.0L2.5,-0.5"/>
                </g>
                <g id="arrowDown" xlink:href="#dirArrow" transform="rotate(180) translate(-30 -48)" onmousedown="handlePan(0,1)">
                  <use xlink:href="#rim" fill="#404040">
                        <set attributeName="fill" to="#808080" begin="arrowDown.mouseover" end="arrowDown.mouseout"/>
                  </use>
                  <path fill="none" stroke="white" stroke-width="1.5" d="M0,-3.0v7 M-2.5,-0.5L0,-3.0L2.5,-0.5"/>
                </g>
                <g id="arrowLeft" xlink:href="#dirArrow" transform="rotate(270) translate(-36 17)" onmousedown="handlePan(-1,0)">
                  <use xlink:href="#rim" fill="#404040">
                        <set attributeName="fill" to="#808080" begin="arrowLeft.mouseover" end="arrowLeft.mouseout"/>
                  </use>
                  <path fill="none" stroke="white" stroke-width="1.5" d="M0,-3.0v7 M-2.5,-0.5L0,-3.0L2.5,-0.5"/>
                </g>
        </g>
        <svg viewBox="0 0 15 15" width="100%" height="30px" preserveAspectRatio="xMaxYMin meet">
         <g id="arrow_out" transform="scale(0.3 0.3)">
          <a xlink:href="DataSamplingConditionCustom_8cxx__incl_org.svg" target="_base">
           <rect id="button" ry="5" rx="5" y="6" x="6" height="38" width="38"
                fill="#f2f5e9" fill-opacity="0.5" stroke="#606060" stroke-width="1.0"/>
           <path id="arrow"
             d="M 11.500037,31.436501 C 11.940474,20.09759 22.043105,11.32322 32.158766,21.979434 L 37.068811,17.246167 C 37.068811,17.246167 37.088388,32 37.088388,32 L 22.160133,31.978069 C 22.160133,31.978069 26.997745,27.140456 26.997745,27.140456 C 18.528582,18.264221 13.291696,25.230495 11.500037,31.436501 z"
             style="fill:#404040;"/>
          </a>
         </g>
        </svg>
</svg>
