<?xml version="1.0" encoding="UTF-8" standalone="no"?>
<!DOCTYPE svg PUBLIC "-//W3C//DTD SVG 1.1//EN"
 "http://www.w3.org/Graphics/SVG/1.1/DTD/svg11.dtd">
<!-- Generated by graphviz version 2.40.1 (20161225.0304)
 -->
<!-- Title: /home/runner/work/AliceO2/AliceO2/Detectors/MUON/MCH/Raw/ElecMap/src/ElectronicMapperGenerated.cxx Pages: 1 -->
<!--zoomable 229 -->
<svg id="main" version="1.1" xmlns="http://www.w3.org/2000/svg" xmlns:xlink="http://www.w3.org/1999/xlink" xml:space="preserve" onload="init(evt)">
<style type="text/css"><![CDATA[
.edge:hover path { stroke: red; }
.edge:hover polygon { stroke: red; fill: red; }
]]></style>
<script type="text/javascript"><![CDATA[
var edges = document.getElementsByTagName('g');
if (edges && edges.length) {
  for (var i=0;i<edges.length;i++) {
    if (edges[i].id.substr(0,4)=='edge') {
      edges[i].setAttribute('class','edge');
    }
  }
}
]]></script>
        <defs>
                <circle id="rim" cx="0" cy="0" r="7"/>
                <circle id="rim2" cx="0" cy="0" r="3.5"/>
                <g id="zoomPlus">
                        <use xlink:href="#rim" fill="#404040">
                                <set attributeName="fill" to="#808080" begin="zoomplus.mouseover" end="zoomplus.mouseout"/>
                        </use>
                        <path d="M-4,0h8M0,-4v8" fill="none" stroke="white" stroke-width="1.5" pointer-events="none"/>
                </g>
                <g id="zoomMin">
                        <use xlink:href="#rim" fill="#404040">
                                <set attributeName="fill" to="#808080" begin="zoomminus.mouseover" end="zoomminus.mouseout"/>
                        </use>
                        <path d="M-4,0h8" fill="none" stroke="white" stroke-width="1.5" pointer-events="none"/>
                </g>
                <g id="dirArrow">
                        <path fill="none" stroke="white" stroke-width="1.5" d="M0,-3.0v7 M-2.5,-0.5L0,-3.0L2.5,-0.5"/>
                </g>
               <g id="resetDef">
                       <use xlink:href="#rim2" fill="#404040">
                               <set attributeName="fill" to="#808080" begin="reset.mouseover" end="reset.mouseout"/>
                       </use>
               </g>
        </defs>

<script type="text/javascript">
var viewWidth = 1189;
var viewHeight = 229;
var sectionId = 'dynsection-0';
</script>
<script xlink:href="../../svgpan.js"/>
<svg id="graph" class="graph">
<g id="viewport">
<title>/home/runner/work/AliceO2/AliceO2/Detectors/MUON/MCH/Raw/ElecMap/src/ElectronicMapperGenerated.cxx</title>
<!-- Node0 -->
<g id="node1" class="node">
<title>Node0</title>
<polygon fill="#bfbfbf" stroke="#000000" points="777,-168.5 777,-220.5 947,-220.5 947,-168.5 777,-168.5"/>
<text text-anchor="start" x="785" y="-208.5" font-family="Helvetica,sans-Serif" font-size="10.00" fill="#000000">/home/runner/work/AliceO2</text>
<text text-anchor="start" x="785" y="-197.5" font-family="Helvetica,sans-Serif" font-size="10.00" fill="#000000">/AliceO2/Detectors/MUON</text>
<text text-anchor="start" x="785" y="-186.5" font-family="Helvetica,sans-Serif" font-size="10.00" fill="#000000">/MCH/Raw/ElecMap/src/Electronic</text>
<text text-anchor="middle" x="862" y="-175.5" font-family="Helvetica,sans-Serif" font-size="10.00" fill="#000000">MapperGenerated.cxx</text>
</g>
<!-- Node1 -->
<g id="node2" class="node">
<title>Node1</title>
<g id="a_node2"><a xlink:href="../../d2/d71/MUON_2MCH_2Raw_2ElecMap_2include_2MCHRawElecMap_2Mapper_8h.html" target="_top" xlink:title="MCHRawElecMap/Mapper.h">
<polygon fill="none" stroke="#000000" points="498,-112.5 498,-131.5 640,-131.5 640,-112.5 498,-112.5"/>
<text text-anchor="middle" x="569" y="-119.5" font-family="Helvetica,sans-Serif" font-size="10.00" fill="#000000">MCHRawElecMap/Mapper.h</text>
</a>
</g>
</g>
<!-- Node0&#45;&gt;Node1 -->
<g id="edge1" class="edge">
<title>Node0&#45;&gt;Node1</title>
<path fill="none" stroke="#191970" d="M776.8587,-173.4326C725.0828,-160.6212 660.8267,-144.7216 617.5758,-134.0196"/>
<polygon fill="#191970" stroke="#191970" points="618.1439,-130.5547 607.5959,-131.5502 616.4624,-137.3498 618.1439,-130.5547"/>
</g>
<!-- Node7 -->
<g id="node8" class="node">
<title>Node7</title>
<g id="a_node8"><a xlink:href="../../d5/dcd/DsDetId_8h.html" target="_top" xlink:title="MCHRawElecMap/DsDetId.h">
<polygon fill="none" stroke="#000000" points="128,-56.5 128,-75.5 274,-75.5 274,-56.5 128,-56.5"/>
<text text-anchor="middle" x="201" y="-63.5" font-family="Helvetica,sans-Serif" font-size="10.00" fill="#000000">MCHRawElecMap/DsDetId.h</text>
</a>
</g>
</g>
<!-- Node0&#45;&gt;Node7 -->
<g id="edge33" class="edge">
<title>Node0&#45;&gt;Node7</title>
<path fill="none" stroke="#191970" d="M776.9287,-181.7156C701.1567,-169.9792 587.3818,-151.4976 489,-132 404.2705,-115.2081 306.3992,-91.9509 249.334,-77.999"/>
<polygon fill="#191970" stroke="#191970" points="250.054,-74.5719 239.5082,-75.5899 248.3871,-81.3705 250.054,-74.5719"/>
</g>
<!-- Node9 -->
<g id="node10" class="node">
<title>Node9</title>
<g id="a_node10"><a xlink:href="../../d4/d09/DsElecId_8h.html" target="_top" xlink:title="MCHRawElecMap/DsElecId.h">
<polygon fill="none" stroke="#000000" points="741,-56.5 741,-75.5 891,-75.5 891,-56.5 741,-56.5"/>
<text text-anchor="middle" x="816" y="-63.5" font-family="Helvetica,sans-Serif" font-size="10.00" fill="#000000">MCHRawElecMap/DsElecId.h</text>
</a>
</g>
</g>
<!-- Node0&#45;&gt;Node9 -->
<g id="edge32" class="edge">
<title>Node0&#45;&gt;Node9</title>
<path fill="none" stroke="#191970" d="M812.1381,-168.3838C798.9324,-158.8323 786.3268,-146.6889 779,-132 770.4716,-114.9021 783.579,-95.9271 796.4894,-82.7276"/>
<polygon fill="#191970" stroke="#191970" points="799.066,-85.1074 803.9031,-75.6812 794.2435,-80.0335 799.066,-85.1074"/>
</g>
<!-- Node11 -->
<g id="node12" class="node">
<title>Node11</title>
<polygon fill="none" stroke="#bfbfbf" points="909,-56.5 909,-75.5 979,-75.5 979,-56.5 909,-56.5"/>
<text text-anchor="middle" x="944" y="-63.5" font-family="Helvetica,sans-Serif" font-size="10.00" fill="#000000">fmt/format.h</text>
</g>
<!-- Node0&#45;&gt;Node11 -->
<g id="edge35" class="edge">
<title>Node0&#45;&gt;Node11</title>
<path fill="none" stroke="#191970" d="M911.8619,-168.3838C925.0676,-158.8323 937.6732,-146.6889 945,-132 952.1842,-117.5969 951.1843,-99.1314 948.818,-85.3967"/>
<polygon fill="#191970" stroke="#191970" points="952.2342,-84.6335 946.7576,-75.5639 945.383,-86.0692 952.2342,-84.6335"/>
</g>
<!-- Node14 -->
<g id="node15" class="node">
<title>Node14</title>
<g id="a_node15"><a xlink:href="../../d4/d6a/ElectronicMapperImplHelper_8h.html" target="_top" xlink:title="ElectronicMapperImplHelper.h">
<polygon fill="none" stroke="#000000" points="788,-112.5 788,-131.5 936,-131.5 936,-112.5 788,-112.5"/>
<text text-anchor="middle" x="862" y="-119.5" font-family="Helvetica,sans-Serif" font-size="10.00" fill="#000000">ElectronicMapperImplHelper.h</text>
</a>
</g>
</g>
<!-- Node0&#45;&gt;Node14 -->
<g id="edge20" class="edge">
<title>Node0&#45;&gt;Node14</title>
<path fill="none" stroke="#191970" d="M862,-168.3258C862,-159.5142 862,-149.8397 862,-141.621"/>
<polygon fill="#191970" stroke="#191970" points="865.5001,-141.534 862,-131.534 858.5001,-141.534 865.5001,-141.534"/>
</g>
<!-- Node15 -->
<g id="node16" class="node">
<title>Node15</title>
<polygon fill="none" stroke="#bfbfbf" points="1073.5,-56.5 1073.5,-75.5 1108.5,-75.5 1108.5,-56.5 1073.5,-56.5"/>
<text text-anchor="middle" x="1091" y="-63.5" font-family="Helvetica,sans-Serif" font-size="10.00" fill="#000000">map</text>
</g>
<!-- Node0&#45;&gt;Node15 -->
<g id="edge31" class="edge">
<title>Node0&#45;&gt;Node15</title>
<path fill="none" stroke="#191970" d="M908.3416,-168.4961C955.5705,-141.9943 1027.1248,-101.8427 1065.1382,-80.512"/>
<polygon fill="#191970" stroke="#191970" points="1067.0367,-83.4601 1074.0448,-75.5142 1063.6112,-77.3555 1067.0367,-83.4601"/>
</g>
<!-- Node16 -->
<g id="node17" class="node">
<title>Node16</title>
<polygon fill="none" stroke="#bfbfbf" points="1127,-56.5 1127,-75.5 1181,-75.5 1181,-56.5 1127,-56.5"/>
<text text-anchor="middle" x="1154" y="-63.5" font-family="Helvetica,sans-Serif" font-size="10.00" fill="#000000">iostream</text>
</g>
<!-- Node0&#45;&gt;Node16 -->
<g id="edge34" class="edge">
<title>Node0&#45;&gt;Node16</title>
<path fill="none" stroke="#191970" d="M921.8641,-168.4139C947.482,-157.2305 977.7205,-144.0031 1005,-132 1045.8928,-114.007 1093.0299,-93.0993 1123.1486,-79.7188"/>
<polygon fill="#191970" stroke="#191970" points="1124.5829,-82.9115 1132.3,-75.6522 1121.7403,-76.5147 1124.5829,-82.9115"/>
</g>
<!-- Node2 -->
<g id="node3" class="node">
<title>Node2</title>
<polygon fill="none" stroke="#bfbfbf" points="664.5,-56.5 664.5,-75.5 723.5,-75.5 723.5,-56.5 664.5,-56.5"/>
<text text-anchor="middle" x="694" y="-63.5" font-family="Helvetica,sans-Serif" font-size="10.00" fill="#000000">functional</text>
</g>
<!-- Node1&#45;&gt;Node2 -->
<g id="edge2" class="edge">
<title>Node1&#45;&gt;Node2</title>
<path fill="none" stroke="#191970" d="M590.4883,-112.3733C610.644,-103.3435 640.988,-89.7494 663.618,-79.6111"/>
<polygon fill="#191970" stroke="#191970" points="665.0971,-82.7838 672.7921,-75.5011 662.2351,-76.3955 665.0971,-82.7838"/>
</g>
<!-- Node3 -->
<g id="node4" class="node">
<title>Node3</title>
<polygon fill="none" stroke="#bfbfbf" points="791,-.5 791,-19.5 841,-19.5 841,-.5 791,-.5"/>
<text text-anchor="middle" x="816" y="-7.5" font-family="Helvetica,sans-Serif" font-size="10.00" fill="#000000">optional</text>
</g>
<!-- Node1&#45;&gt;Node3 -->
<g id="edge3" class="edge">
<title>Node1&#45;&gt;Node3</title>
<path fill="none" stroke="#191970" d="M571.8247,-112.2099C576.5731,-97.5829 587.5916,-70.2259 607,-56 634.2633,-36.0166 728.3627,-21.2008 780.5102,-14.3026"/>
<polygon fill="#191970" stroke="#191970" points="781.1867,-17.7444 790.6551,-12.9906 780.2887,-10.8022 781.1867,-17.7444"/>
</g>
<!-- Node4 -->
<g id="node5" class="node">
<title>Node4</title>
<polygon fill="none" stroke="#bfbfbf" points="616,-56.5 616,-75.5 646,-75.5 646,-56.5 616,-56.5"/>
<text text-anchor="middle" x="631" y="-63.5" font-family="Helvetica,sans-Serif" font-size="10.00" fill="#000000">set</text>
</g>
<!-- Node1&#45;&gt;Node4 -->
<g id="edge4" class="edge">
<title>Node1&#45;&gt;Node4</title>
<path fill="none" stroke="#191970" d="M579.7996,-112.2455C588.8678,-104.0549 602.0206,-92.1749 612.7245,-82.5069"/>
<polygon fill="#191970" stroke="#191970" points="615.2491,-84.9429 620.3242,-75.6427 610.5571,-79.7482 615.2491,-84.9429"/>
</g>
<!-- Node5 -->
<g id="node6" class="node">
<title>Node5</title>
<polygon fill="none" stroke="#bfbfbf" points="292.5,-56.5 292.5,-75.5 351.5,-75.5 351.5,-56.5 292.5,-56.5"/>
<text text-anchor="middle" x="322" y="-63.5" font-family="Helvetica,sans-Serif" font-size="10.00" fill="#000000">stdexcept</text>
</g>
<!-- Node1&#45;&gt;Node5 -->
<g id="edge5" class="edge">
<title>Node1&#45;&gt;Node5</title>
<path fill="none" stroke="#191970" d="M523.863,-112.4719C483.8069,-103.9143 423.4535,-90.7723 361.7045,-76.1117"/>
<polygon fill="#191970" stroke="#191970" points="362.3243,-72.6614 351.7851,-73.7461 360.7004,-79.4704 362.3243,-72.6614"/>
</g>
<!-- Node6 -->
<g id="node7" class="node">
<title>Node6</title>
<polygon fill="none" stroke="#bfbfbf" points="527,-.5 527,-19.5 573,-19.5 573,-.5 527,-.5"/>
<text text-anchor="middle" x="550" y="-7.5" font-family="Helvetica,sans-Serif" font-size="10.00" fill="#000000">cstdint</text>
</g>
<!-- Node1&#45;&gt;Node6 -->
<g id="edge6" class="edge">
<title>Node1&#45;&gt;Node6</title>
<path fill="none" stroke="#191970" d="M567.3801,-112.4509C564.2812,-94.184 557.4567,-53.9553 553.3416,-29.6976"/>
<polygon fill="#191970" stroke="#191970" points="556.7391,-28.7986 551.6158,-19.5249 549.8377,-29.9694 556.7391,-28.7986"/>
</g>
<!-- Node1&#45;&gt;Node7 -->
<g id="edge7" class="edge">
<title>Node1&#45;&gt;Node7</title>
<path fill="none" stroke="#191970" d="M506.1567,-112.4369C441.7209,-102.6314 341.6002,-87.3957 273.7664,-77.0731"/>
<polygon fill="#191970" stroke="#191970" points="273.9969,-73.568 263.5841,-75.5237 272.9437,-80.4883 273.9969,-73.568"/>
</g>
<!-- Node1&#45;&gt;Node9 -->
<g id="edge10" class="edge">
<title>Node1&#45;&gt;Node9</title>
<path fill="none" stroke="#191970" d="M611.1802,-112.4369C653.4523,-102.8529 718.6062,-88.0812 764.0417,-77.78"/>
<polygon fill="#191970" stroke="#191970" points="765.0152,-81.1482 773.9938,-75.5237 763.4674,-74.3215 765.0152,-81.1482"/>
</g>
<!-- Node10 -->
<g id="node11" class="node">
<title>Node10</title>
<g id="a_node11"><a xlink:href="../../d8/d97/FeeLinkId_8h.html" target="_top" xlink:title="MCHRawElecMap/FeeLinkId.h">
<polygon fill="none" stroke="#000000" points="370,-56.5 370,-75.5 522,-75.5 522,-56.5 370,-56.5"/>
<text text-anchor="middle" x="446" y="-63.5" font-family="Helvetica,sans-Serif" font-size="10.00" fill="#000000">MCHRawElecMap/FeeLinkId.h</text>
</a>
</g>
</g>
<!-- Node1&#45;&gt;Node10 -->
<g id="edge14" class="edge">
<title>Node1&#45;&gt;Node10</title>
<path fill="none" stroke="#191970" d="M547.8555,-112.3733C528.1108,-103.3838 498.4302,-89.8706 476.1945,-79.7471"/>
<polygon fill="#191970" stroke="#191970" points="477.42,-76.4594 466.8685,-75.5011 474.5194,-82.8302 477.42,-76.4594"/>
</g>
<!-- Node1&#45;&gt;Node11 -->
<g id="edge17" class="edge">
<title>Node1&#45;&gt;Node11</title>
<path fill="none" stroke="#191970" d="M640.3057,-113.8758C705.2329,-106.0712 803.939,-93.1912 898.9225,-76.0733"/>
<polygon fill="#191970" stroke="#191970" points="899.7798,-79.4748 908.9911,-74.24 898.5258,-72.588 899.7798,-79.4748"/>
</g>
<!-- Node12 -->
<g id="node13" class="node">
<title>Node12</title>
<polygon fill="none" stroke="#bfbfbf" points="0,-56.5 0,-75.5 38,-75.5 38,-56.5 0,-56.5"/>
<text text-anchor="middle" x="19" y="-63.5" font-family="Helvetica,sans-Serif" font-size="10.00" fill="#000000">array</text>
</g>
<!-- Node1&#45;&gt;Node12 -->
<g id="edge18" class="edge">
<title>Node1&#45;&gt;Node12</title>
<path fill="none" stroke="#191970" d="M497.7078,-117.9738C379.6593,-110.9427 147.5555,-95.4852 48.1365,-75.6645"/>
<polygon fill="#191970" stroke="#191970" points="48.5982,-72.1849 38.0909,-73.544 47.1524,-79.034 48.5982,-72.1849"/>
</g>
<!-- Node13 -->
<g id="node14" class="node">
<title>Node13</title>
<polygon fill="none" stroke="#bfbfbf" points="56.5,-56.5 56.5,-75.5 109.5,-75.5 109.5,-56.5 56.5,-56.5"/>
<text text-anchor="middle" x="83" y="-63.5" font-family="Helvetica,sans-Serif" font-size="10.00" fill="#000000">gsl/span</text>
</g>
<!-- Node1&#45;&gt;Node13 -->
<g id="edge19" class="edge">
<title>Node1&#45;&gt;Node13</title>
<path fill="none" stroke="#191970" d="M497.9304,-118.4549C410.8762,-113.2821 258.8757,-101.5634 119.6214,-75.8127"/>
<polygon fill="#191970" stroke="#191970" points="120.0924,-72.3401 109.6182,-73.9343 118.8004,-79.2198 120.0924,-72.3401"/>
</g>
<!-- Node7&#45;&gt;Node6 -->
<g id="edge8" class="edge">
<title>Node7&#45;&gt;Node6</title>
<path fill="none" stroke="#191970" d="M260.5987,-56.4369C334.4595,-44.5853 457.7604,-24.8006 516.6778,-15.3468"/>
<polygon fill="#191970" stroke="#191970" points="517.5842,-18.7463 526.9033,-13.7061 516.4751,-11.8347 517.5842,-18.7463"/>
</g>
<!-- Node8 -->
<g id="node9" class="node">
<title>Node8</title>
<polygon fill="none" stroke="#bfbfbf" points="423.5,-.5 423.5,-19.5 468.5,-19.5 468.5,-.5 423.5,-.5"/>
<text text-anchor="middle" x="446" y="-7.5" font-family="Helvetica,sans-Serif" font-size="10.00" fill="#000000">iosfwd</text>
</g>
<!-- Node7&#45;&gt;Node8 -->
<g id="edge9" class="edge">
<title>Node7&#45;&gt;Node8</title>
<path fill="none" stroke="#191970" d="M242.8386,-56.4369C291.1717,-45.3893 369.6625,-27.4486 413.5906,-17.4079"/>
<polygon fill="#191970" stroke="#191970" points="414.4872,-20.7933 423.4559,-15.1529 412.9274,-13.9693 414.4872,-20.7933"/>
</g>
<!-- Node9&#45;&gt;Node3 -->
<g id="edge13" class="edge">
<title>Node9&#45;&gt;Node3</title>
<path fill="none" stroke="#191970" d="M816,-56.2455C816,-48.9382 816,-38.6944 816,-29.7046"/>
<polygon fill="#191970" stroke="#191970" points="819.5001,-29.6426 816,-19.6427 812.5001,-29.6427 819.5001,-29.6426"/>
</g>
<!-- Node9&#45;&gt;Node6 -->
<g id="edge11" class="edge">
<title>Node9&#45;&gt;Node6</title>
<path fill="none" stroke="#191970" d="M770.5752,-56.4369C717.3261,-45.2265 630.3622,-26.9184 583.1037,-16.9692"/>
<polygon fill="#191970" stroke="#191970" points="583.6009,-13.4972 573.0943,-14.862 582.1587,-20.3471 583.6009,-13.4972"/>
</g>
<!-- Node9&#45;&gt;Node8 -->
<g id="edge12" class="edge">
<title>Node9&#45;&gt;Node8</title>
<path fill="none" stroke="#191970" d="M752.8151,-56.4369C673.4046,-44.418 540.0888,-24.2405 478.7232,-14.9527"/>
<polygon fill="#191970" stroke="#191970" points="479.2309,-11.4898 468.8197,-13.4538 478.1833,-18.4109 479.2309,-11.4898"/>
</g>
<!-- Node10&#45;&gt;Node6 -->
<g id="edge15" class="edge">
<title>Node10&#45;&gt;Node6</title>
<path fill="none" stroke="#191970" d="M464.1154,-56.2455C480.445,-47.4527 504.671,-34.4079 523.2339,-24.4125"/>
<polygon fill="#191970" stroke="#191970" points="524.9468,-27.4654 532.0922,-19.6427 521.6281,-21.3021 524.9468,-27.4654"/>
</g>
<!-- Node10&#45;&gt;Node8 -->
<g id="edge16" class="edge">
<title>Node10&#45;&gt;Node8</title>
<path fill="none" stroke="#191970" d="M446,-56.2455C446,-48.9382 446,-38.6944 446,-29.7046"/>
<polygon fill="#191970" stroke="#191970" points="449.5001,-29.6426 446,-19.6427 442.5001,-29.6427 449.5001,-29.6426"/>
</g>
<!-- Node14&#45;&gt;Node2 -->
<g id="edge24" class="edge">
<title>Node14&#45;&gt;Node2</title>
<path fill="none" stroke="#191970" d="M833.1198,-112.3733C805.1839,-103.0613 762.6858,-88.8953 732.0131,-78.671"/>
<polygon fill="#191970" stroke="#191970" points="733.097,-75.3431 722.5034,-75.5011 730.8834,-81.9839 733.097,-75.3431"/>
</g>
<!-- Node14&#45;&gt;Node3 -->
<g id="edge25" class="edge">
<title>Node14&#45;&gt;Node3</title>
<path fill="none" stroke="#191970" d="M936.1559,-115.3477C990.0078,-107.5322 1048.923,-90.8829 1021,-56 1000.1113,-29.9046 904.0552,-17.5964 851.1698,-12.7096"/>
<polygon fill="#191970" stroke="#191970" points="851.4726,-9.2228 841.2034,-11.8293 850.8566,-16.1956 851.4726,-9.2228"/>
</g>
<!-- Node14&#45;&gt;Node4 -->
<g id="edge28" class="edge">
<title>Node14&#45;&gt;Node4</title>
<path fill="none" stroke="#191970" d="M806.8251,-112.4814C767.0197,-104.9937 711.9597,-93.3659 655.834,-75.8568"/>
<polygon fill="#191970" stroke="#191970" points="656.6756,-72.4518 646.0852,-72.7586 654.5554,-79.1231 656.6756,-72.4518"/>
</g>
<!-- Node14&#45;&gt;Node6 -->
<g id="edge27" class="edge">
<title>Node14&#45;&gt;Node6</title>
<path fill="none" stroke="#191970" d="M917.7551,-112.4724C962.3516,-102.5215 1013.5303,-84.352 988,-56 960.9999,-26.0158 680.7315,-14.2038 583.221,-10.9821"/>
<polygon fill="#191970" stroke="#191970" points="583.1555,-7.4783 573.0483,-10.6555 582.9308,-14.4747 583.1555,-7.4783"/>
</g>
<!-- Node14&#45;&gt;Node7 -->
<g id="edge21" class="edge">
<title>Node14&#45;&gt;Node7</title>
<path fill="none" stroke="#191970" d="M787.8774,-117.1133C679.5975,-109.7517 471.5729,-94.7668 284.3307,-76.0996"/>
<polygon fill="#191970" stroke="#191970" points="284.5998,-72.6091 274.3006,-75.0941 283.9015,-79.5742 284.5998,-72.6091"/>
</g>
<!-- Node14&#45;&gt;Node9 -->
<g id="edge22" class="edge">
<title>Node14&#45;&gt;Node9</title>
<path fill="none" stroke="#191970" d="M853.9874,-112.2455C847.5232,-104.3761 838.2615,-93.101 830.5017,-83.6542"/>
<polygon fill="#191970" stroke="#191970" points="832.9727,-81.1484 823.9208,-75.6427 827.5636,-85.5916 832.9727,-81.1484"/>
</g>
<!-- Node14&#45;&gt;Node10 -->
<g id="edge23" class="edge">
<title>Node14&#45;&gt;Node10</title>
<path fill="none" stroke="#191970" d="M790.9597,-112.4369C717.6706,-102.571 603.5435,-87.2078 526.8447,-76.8829"/>
<polygon fill="#191970" stroke="#191970" points="527.1248,-73.3892 516.7473,-75.5237 526.1909,-80.3266 527.1248,-73.3892"/>
</g>
<!-- Node14&#45;&gt;Node11 -->
<g id="edge29" class="edge">
<title>Node14&#45;&gt;Node11</title>
<path fill="none" stroke="#191970" d="M876.2833,-112.2455C888.747,-103.7337 907.0451,-91.2375 921.4792,-81.3801"/>
<polygon fill="#191970" stroke="#191970" points="923.5962,-84.1726 929.8804,-75.6427 919.6485,-78.392 923.5962,-84.1726"/>
</g>
<!-- Node14&#45;&gt;Node15 -->
<g id="edge26" class="edge">
<title>Node14&#45;&gt;Node15</title>
<path fill="none" stroke="#191970" d="M907.2256,-112.4306C947.3085,-103.7141 1007.3255,-90.0867 1059,-76 1060.4741,-75.5982 1061.9823,-75.1736 1063.5022,-74.7352"/>
<polygon fill="#191970" stroke="#191970" points="1064.8973,-77.9704 1073.4631,-71.7351 1062.8785,-71.2678 1064.8973,-77.9704"/>
</g>
<!-- Node14&#45;&gt;Node16 -->
<g id="edge30" class="edge">
<title>Node14&#45;&gt;Node16</title>
<path fill="none" stroke="#191970" d="M924.1423,-112.497C973.85,-104.5162 1045.5045,-92.1663 1116.8754,-76.099"/>
<polygon fill="#191970" stroke="#191970" points="1117.9684,-79.4398 1126.942,-73.8072 1116.4145,-72.6144 1117.9684,-79.4398"/>
</g>
</g>
</svg>
        <g id="navigator" transform="translate(0 0)" fill="#404254">
                <rect fill="#f2f5e9" fill-opacity="0.5" stroke="#606060" stroke-width=".5" x="0" y="0" width="60" height="60"/>
                <use id="zoomplus" xlink:href="#zoomPlus" x="17" y="9" onmousedown="handleZoom(evt,'in')"/>
                <use id="zoomminus" xlink:href="#zoomMin" x="42" y="9" onmousedown="handleZoom(evt,'out')"/>
                <use id="reset" xlink:href="#resetDef" x="30" y="36" onmousedown="handleReset()"/>
                <g id="arrowUp" xlink:href="#dirArrow" transform="translate(30 24)" onmousedown="handlePan(0,-1)">
                  <use xlink:href="#rim" fill="#404040">
                        <set attributeName="fill" to="#808080" begin="arrowUp.mouseover" end="arrowUp.mouseout"/>
                  </use>
                  <path fill="none" stroke="white" stroke-width="1.5" d="M0,-3.0v7 M-2.5,-0.5L0,-3.0L2.5,-0.5"/>
                </g>
                <g id="arrowRight" xlink:href="#dirArrow" transform="rotate(90) translate(36 -43)" onmousedown="handlePan(1,0)">
                  <use xlink:href="#rim" fill="#404040">
                        <set attributeName="fill" to="#808080" begin="arrowRight.mouseover" end="arrowRight.mouseout"/>
                  </use>
                  <path fill="none" stroke="white" stroke-width="1.5" d="M0,-3.0v7 M-2.5,-0.5L0,-3.0L2.5,-0.5"/>
                </g>
                <g id="arrowDown" xlink:href="#dirArrow" transform="rotate(180) translate(-30 -48)" onmousedown="handlePan(0,1)">
                  <use xlink:href="#rim" fill="#404040">
                        <set attributeName="fill" to="#808080" begin="arrowDown.mouseover" end="arrowDown.mouseout"/>
                  </use>
                  <path fill="none" stroke="white" stroke-width="1.5" d="M0,-3.0v7 M-2.5,-0.5L0,-3.0L2.5,-0.5"/>
                </g>
                <g id="arrowLeft" xlink:href="#dirArrow" transform="rotate(270) translate(-36 17)" onmousedown="handlePan(-1,0)">
                  <use xlink:href="#rim" fill="#404040">
                        <set attributeName="fill" to="#808080" begin="arrowLeft.mouseover" end="arrowLeft.mouseout"/>
                  </use>
                  <path fill="none" stroke="white" stroke-width="1.5" d="M0,-3.0v7 M-2.5,-0.5L0,-3.0L2.5,-0.5"/>
                </g>
        </g>
        <svg viewBox="0 0 15 15" width="100%" height="30px" preserveAspectRatio="xMaxYMin meet">
         <g id="arrow_out" transform="scale(0.3 0.3)">
          <a xlink:href="ElectronicMapperGenerated_8cxx__incl_org.svg" target="_base">
           <rect id="button" ry="5" rx="5" y="6" x="6" height="38" width="38"
                fill="#f2f5e9" fill-opacity="0.5" stroke="#606060" stroke-width="1.0"/>
           <path id="arrow"
             d="M 11.500037,31.436501 C 11.940474,20.09759 22.043105,11.32322 32.158766,21.979434 L 37.068811,17.246167 C 37.068811,17.246167 37.088388,32 37.088388,32 L 22.160133,31.978069 C 22.160133,31.978069 26.997745,27.140456 26.997745,27.140456 C 18.528582,18.264221 13.291696,25.230495 11.500037,31.436501 z"
             style="fill:#404040;"/>
          </a>
         </g>
        </svg>
</svg>
