<?xml version="1.0" encoding="UTF-8" standalone="no"?>
<!DOCTYPE svg PUBLIC "-//W3C//DTD SVG 1.1//EN"
 "http://www.w3.org/Graphics/SVG/1.1/DTD/svg11.dtd">
<!-- Generated by graphviz version 2.40.1 (20161225.0304)
 -->
<!-- Title: /home/runner/work/AliceO2/AliceO2/Examples/Ex1/src/A.cxx Pages: 1 -->
<svg width="174pt" height="95pt"
 viewBox="0.00 0.00 174.00 95.00" xmlns="http://www.w3.org/2000/svg" xmlns:xlink="http://www.w3.org/1999/xlink">
<g id="graph0" class="graph" transform="scale(1 1) rotate(0) translate(4 91)">
<title>/home/runner/work/AliceO2/AliceO2/Examples/Ex1/src/A.cxx</title>
<!-- Node0 -->
<g id="node1" class="node">
<title>Node0</title>
<polygon fill="#bfbfbf" stroke="#000000" points="0,-56.5 0,-86.5 166,-86.5 166,-56.5 0,-56.5"/>
<text text-anchor="start" x="8" y="-74.5" font-family="Helvetica,sans-Serif" font-size="10.00" fill="#000000">/home/runner/work/AliceO2</text>
<text text-anchor="middle" x="83" y="-63.5" font-family="Helvetica,sans-Serif" font-size="10.00" fill="#000000">/AliceO2/Examples/Ex1/src/A.cxx</text>
</g>
<!-- Node1 -->
<g id="node2" class="node">
<title>Node1</title>
<g id="a_node2"><a xlink:href="../../d9/dd0/Ex1_2include_2Ex1_2A_8h.html" target="_top" xlink:title="Ex1/A.h">
<polygon fill="none" stroke="#000000" points="22,-.5 22,-19.5 74,-19.5 74,-.5 22,-.5"/>
<text text-anchor="middle" x="48" y="-7.5" font-family="Helvetica,sans-Serif" font-size="10.00" fill="#000000">Ex1/A.h</text>
</a>
</g>
</g>
<!-- Node0&#45;&gt;Node1 -->
<g id="edge1" class="edge">
<title>Node0&#45;&gt;Node1</title>
<path fill="none" stroke="#191970" d="M74.3483,-56.2977C69.5912,-47.9388 63.6502,-37.4997 58.6143,-28.6509"/>
<polygon fill="#191970" stroke="#191970" points="61.5921,-26.8069 53.6039,-19.8469 55.5083,-30.2692 61.5921,-26.8069"/>
</g>
<!-- Node2 -->
<g id="node3" class="node">
<title>Node2</title>
<polygon fill="none" stroke="#bfbfbf" points="92,-.5 92,-19.5 146,-19.5 146,-.5 92,-.5"/>
<text text-anchor="middle" x="119" y="-7.5" font-family="Helvetica,sans-Serif" font-size="10.00" fill="#000000">iostream</text>
</g>
<!-- Node0&#45;&gt;Node2 -->
<g id="edge2" class="edge">
<title>Node0&#45;&gt;Node2</title>
<path fill="none" stroke="#191970" d="M91.8989,-56.2977C96.7919,-47.9388 102.9026,-37.4997 108.0824,-28.6509"/>
<polygon fill="#191970" stroke="#191970" points="111.2047,-30.2452 113.2359,-19.8469 105.1635,-26.7089 111.2047,-30.2452"/>
</g>
</g>
</svg>
