<?xml version="1.0" encoding="UTF-8" standalone="no"?>
<!DOCTYPE svg PUBLIC "-//W3C//DTD SVG 1.1//EN"
 "http://www.w3.org/Graphics/SVG/1.1/DTD/svg11.dtd">
<!-- Generated by graphviz version 2.40.1 (20161225.0304)
 -->
<!-- Title: /home/runner/work/AliceO2/AliceO2/Detectors/MUON/MCH/Raw/Common/src/SampaCluster.cxx Pages: 1 -->
<svg width="462pt" height="218pt"
 viewBox="0.00 0.00 461.50 218.00" xmlns="http://www.w3.org/2000/svg" xmlns:xlink="http://www.w3.org/1999/xlink">
<g id="graph0" class="graph" transform="scale(1 1) rotate(0) translate(4 214)">
<title>/home/runner/work/AliceO2/AliceO2/Detectors/MUON/MCH/Raw/Common/src/SampaCluster.cxx</title>
<!-- Node0 -->
<g id="node1" class="node">
<title>Node0</title>
<polygon fill="#bfbfbf" stroke="#000000" points="209,-168.5 209,-209.5 418,-209.5 418,-168.5 209,-168.5"/>
<text text-anchor="start" x="217" y="-197.5" font-family="Helvetica,sans-Serif" font-size="10.00" fill="#000000">/home/runner/work/AliceO2</text>
<text text-anchor="start" x="217" y="-186.5" font-family="Helvetica,sans-Serif" font-size="10.00" fill="#000000">/AliceO2/Detectors/MUON</text>
<text text-anchor="middle" x="313.5" y="-175.5" font-family="Helvetica,sans-Serif" font-size="10.00" fill="#000000">/MCH/Raw/Common/src/SampaCluster.cxx</text>
</g>
<!-- Node1 -->
<g id="node2" class="node">
<title>Node1</title>
<g id="a_node2"><a xlink:href="../../d0/d5b/SampaCluster_8h.html" target="_top" xlink:title="MCHRawCommon/SampaCluster.h">
<polygon fill="none" stroke="#000000" points="23,-112.5 23,-131.5 196,-131.5 196,-112.5 23,-112.5"/>
<text text-anchor="middle" x="109.5" y="-119.5" font-family="Helvetica,sans-Serif" font-size="10.00" fill="#000000">MCHRawCommon/SampaCluster.h</text>
</a>
</g>
</g>
<!-- Node0&#45;&gt;Node1 -->
<g id="edge1" class="edge">
<title>Node0&#45;&gt;Node1</title>
<path fill="none" stroke="#191970" d="M250.9069,-168.4425C217.3806,-157.4314 177.1423,-144.2158 148.1765,-134.7026"/>
<polygon fill="#191970" stroke="#191970" points="149.0234,-131.2968 138.4305,-131.5017 146.8391,-137.9473 149.0234,-131.2968"/>
</g>
<!-- Node5 -->
<g id="node6" class="node">
<title>Node5</title>
<polygon fill="none" stroke="#bfbfbf" points="197.5,-56.5 197.5,-75.5 267.5,-75.5 267.5,-56.5 197.5,-56.5"/>
<text text-anchor="middle" x="232.5" y="-63.5" font-family="Helvetica,sans-Serif" font-size="10.00" fill="#000000">fmt/format.h</text>
</g>
<!-- Node0&#45;&gt;Node5 -->
<g id="edge11" class="edge">
<title>Node0&#45;&gt;Node5</title>
<path fill="none" stroke="#191970" d="M311.8482,-168.1884C309.7051,-151.7612 304.7857,-128.8774 293.5,-112 285.0396,-99.3477 271.9076,-88.7956 259.9919,-81.0031"/>
<polygon fill="#191970" stroke="#191970" points="261.5639,-77.8606 251.2145,-75.5929 257.8908,-83.8195 261.5639,-77.8606"/>
</g>
<!-- Node6 -->
<g id="node7" class="node">
<title>Node6</title>
<g id="a_node7"><a xlink:href="../../d0/d64/DataFormats_8h.html" target="_top" xlink:title="MCHRawCommon/DataFormats.h">
<polygon fill="none" stroke="#000000" points="285.5,-56.5 285.5,-75.5 453.5,-75.5 453.5,-56.5 285.5,-56.5"/>
<text text-anchor="middle" x="369.5" y="-63.5" font-family="Helvetica,sans-Serif" font-size="10.00" fill="#000000">MCHRawCommon/DataFormats.h</text>
</a>
</g>
</g>
<!-- Node0&#45;&gt;Node6 -->
<g id="edge8" class="edge">
<title>Node0&#45;&gt;Node6</title>
<path fill="none" stroke="#191970" d="M322.8731,-168.4126C333.5116,-145.046 350.7155,-107.2587 360.9847,-84.7032"/>
<polygon fill="#191970" stroke="#191970" points="364.2083,-86.0696 365.1665,-75.5182 357.8375,-83.169 364.2083,-86.0696"/>
</g>
<!-- Node8 -->
<g id="node9" class="node">
<title>Node8</title>
<g id="a_node9"><a xlink:href="../../dc/d46/Assertions_8h.html" target="_top" xlink:title="Assertions.h">
<polygon fill="none" stroke="#000000" points="214,-112.5 214,-131.5 285,-131.5 285,-112.5 214,-112.5"/>
<text text-anchor="middle" x="249.5" y="-119.5" font-family="Helvetica,sans-Serif" font-size="10.00" fill="#000000">Assertions.h</text>
</a>
</g>
</g>
<!-- Node0&#45;&gt;Node8 -->
<g id="edge9" class="edge">
<title>Node0&#45;&gt;Node8</title>
<path fill="none" stroke="#191970" d="M293.6008,-168.168C284.7232,-158.8742 274.3883,-148.0549 265.9556,-139.227"/>
<polygon fill="#191970" stroke="#191970" points="268.2808,-136.594 258.8425,-131.7805 263.219,-141.4292 268.2808,-136.594"/>
</g>
<!-- Node9 -->
<g id="node10" class="node">
<title>Node9</title>
<polygon fill="none" stroke="#bfbfbf" points="379.5,-112.5 379.5,-131.5 431.5,-131.5 431.5,-112.5 379.5,-112.5"/>
<text text-anchor="middle" x="405.5" y="-119.5" font-family="Helvetica,sans-Serif" font-size="10.00" fill="#000000">sstream</text>
</g>
<!-- Node0&#45;&gt;Node9 -->
<g id="edge12" class="edge">
<title>Node0&#45;&gt;Node9</title>
<path fill="none" stroke="#191970" d="M341.8537,-168.3511C355.3638,-158.5122 371.2676,-146.9301 383.7977,-137.8049"/>
<polygon fill="#191970" stroke="#191970" points="386.2198,-140.3709 392.2429,-131.6546 382.0989,-134.7124 386.2198,-140.3709"/>
</g>
<!-- Node2 -->
<g id="node3" class="node">
<title>Node2</title>
<polygon fill="none" stroke="#bfbfbf" points="0,-56.5 0,-75.5 45,-75.5 45,-56.5 0,-56.5"/>
<text text-anchor="middle" x="22.5" y="-63.5" font-family="Helvetica,sans-Serif" font-size="10.00" fill="#000000">cstdlib</text>
</g>
<!-- Node1&#45;&gt;Node2 -->
<g id="edge2" class="edge">
<title>Node1&#45;&gt;Node2</title>
<path fill="none" stroke="#191970" d="M94.3458,-112.2455C80.9973,-103.6534 61.3414,-91.0014 45.9617,-81.1018"/>
<polygon fill="#191970" stroke="#191970" points="47.7836,-78.1121 37.4806,-75.6427 43.9949,-83.9982 47.7836,-78.1121"/>
</g>
<!-- Node3 -->
<g id="node4" class="node">
<title>Node3</title>
<polygon fill="none" stroke="#bfbfbf" points="63.5,-56.5 63.5,-75.5 107.5,-75.5 107.5,-56.5 63.5,-56.5"/>
<text text-anchor="middle" x="85.5" y="-63.5" font-family="Helvetica,sans-Serif" font-size="10.00" fill="#000000">vector</text>
</g>
<!-- Node1&#45;&gt;Node3 -->
<g id="edge3" class="edge">
<title>Node1&#45;&gt;Node3</title>
<path fill="none" stroke="#191970" d="M105.3195,-112.2455C102.119,-104.7776 97.604,-94.2427 93.6916,-85.1137"/>
<polygon fill="#191970" stroke="#191970" points="96.7888,-83.4554 89.6326,-75.6427 90.3548,-86.2129 96.7888,-83.4554"/>
</g>
<!-- Node4 -->
<g id="node5" class="node">
<title>Node4</title>
<polygon fill="none" stroke="#bfbfbf" points="125.5,-56.5 125.5,-75.5 179.5,-75.5 179.5,-56.5 125.5,-56.5"/>
<text text-anchor="middle" x="152.5" y="-63.5" font-family="Helvetica,sans-Serif" font-size="10.00" fill="#000000">iostream</text>
</g>
<!-- Node1&#45;&gt;Node4 -->
<g id="edge4" class="edge">
<title>Node1&#45;&gt;Node4</title>
<path fill="none" stroke="#191970" d="M116.99,-112.2455C123.0326,-104.3761 131.6903,-93.101 138.9441,-83.6542"/>
<polygon fill="#191970" stroke="#191970" points="141.7815,-85.7058 145.0958,-75.6427 136.2295,-81.4426 141.7815,-85.7058"/>
</g>
<!-- Node1&#45;&gt;Node5 -->
<g id="edge5" class="edge">
<title>Node1&#45;&gt;Node5</title>
<path fill="none" stroke="#191970" d="M130.6445,-112.3733C150.3892,-103.3838 180.0698,-89.8706 202.3055,-79.7471"/>
<polygon fill="#191970" stroke="#191970" points="203.9806,-82.8302 211.6315,-75.5011 201.08,-76.4594 203.9806,-82.8302"/>
</g>
<!-- Node1&#45;&gt;Node6 -->
<g id="edge6" class="edge">
<title>Node1&#45;&gt;Node6</title>
<path fill="none" stroke="#191970" d="M153.9002,-112.4369C198.5841,-102.8127 267.557,-87.957 315.4088,-77.6504"/>
<polygon fill="#191970" stroke="#191970" points="316.2441,-81.0508 325.283,-75.5237 314.7702,-74.2078 316.2441,-81.0508"/>
</g>
<!-- Node7 -->
<g id="node8" class="node">
<title>Node7</title>
<polygon fill="none" stroke="#bfbfbf" points="346.5,-.5 346.5,-19.5 392.5,-19.5 392.5,-.5 346.5,-.5"/>
<text text-anchor="middle" x="369.5" y="-7.5" font-family="Helvetica,sans-Serif" font-size="10.00" fill="#000000">cstdint</text>
</g>
<!-- Node6&#45;&gt;Node7 -->
<g id="edge7" class="edge">
<title>Node6&#45;&gt;Node7</title>
<path fill="none" stroke="#191970" d="M369.5,-56.2455C369.5,-48.9382 369.5,-38.6944 369.5,-29.7046"/>
<polygon fill="#191970" stroke="#191970" points="373.0001,-29.6426 369.5,-19.6427 366.0001,-29.6427 373.0001,-29.6426"/>
</g>
<!-- Node8&#45;&gt;Node5 -->
<g id="edge10" class="edge">
<title>Node8&#45;&gt;Node5</title>
<path fill="none" stroke="#191970" d="M246.5388,-112.2455C244.2962,-104.8579 241.1423,-94.4689 238.3919,-85.4087"/>
<polygon fill="#191970" stroke="#191970" points="241.6812,-84.1948 235.4272,-75.6427 234.983,-86.2282 241.6812,-84.1948"/>
</g>
</g>
</svg>
