<?xml version="1.0" encoding="UTF-8" standalone="no"?>
<!DOCTYPE svg PUBLIC "-//W3C//DTD SVG 1.1//EN"
 "http://www.w3.org/Graphics/SVG/1.1/DTD/svg11.dtd">
<!-- Generated by graphviz version 2.40.1 (20161225.0304)
 -->
<!-- Title: o2::soa::CombinationsBlockSameIndexPolicyBase&lt; T1, T, Ts &gt; Pages: 1 -->
<svg width="616pt" height="687pt"
 viewBox="0.00 0.00 616.29 687.00" xmlns="http://www.w3.org/2000/svg" xmlns:xlink="http://www.w3.org/1999/xlink">
<g id="graph0" class="graph" transform="scale(1 1) rotate(0) translate(4 683)">
<title>o2::soa::CombinationsBlockSameIndexPolicyBase&lt; T1, T, Ts &gt;</title>
<!-- Node7 -->
<g id="node1" class="node">
<title>Node7</title>
<polygon fill="#bfbfbf" stroke="#000000" points="267.2905,-.5 267.2905,-90.5 427.2905,-90.5 427.2905,-.5 267.2905,-.5"/>
<text text-anchor="start" x="275.2905" y="-78.5" font-family="Helvetica,sans-Serif" font-size="10.00" fill="#000000">o2::soa::CombinationsBlock</text>
<text text-anchor="start" x="275.2905" y="-67.5" font-family="Helvetica,sans-Serif" font-size="10.00" fill="#000000">SameIndexPolicyBase&lt; T1,</text>
<text text-anchor="middle" x="347.2905" y="-56.5" font-family="Helvetica,sans-Serif" font-size="10.00" fill="#000000"> T, Ts &gt;</text>
<polyline fill="none" stroke="#000000" points="267.2905,-49.5 427.2905,-49.5 "/>
<text text-anchor="middle" x="347.2905" y="-37.5" font-family="Helvetica,sans-Serif" font-size="10.00" fill="#000000"> </text>
<polyline fill="none" stroke="#000000" points="267.2905,-30.5 427.2905,-30.5 "/>
<text text-anchor="start" x="275.2905" y="-18.5" font-family="Helvetica,sans-Serif" font-size="10.00" fill="#000000">+ CombinationsBlockSameIndex</text>
<text text-anchor="start" x="275.2905" y="-7.5" font-family="Helvetica,sans-Serif" font-size="10.00" fill="#000000">PolicyBase()</text>
</g>
<!-- Node8 -->
<g id="node2" class="node">
<title>Node8</title>
<g id="a_node2"><a xlink:href="../../de/dac/structo2_1_1soa_1_1CombinationsIndexPolicyBase.html" target="_top" xlink:title="{o2::soa::CombinationsIndex\lPolicyBase\&lt; T, Ts... \&gt;\n||+ CombinationsIndexPolicyBase()\l+ moveToEnd()\l+ addOne()\l}">
<polygon fill="none" stroke="#000000" points="76.7905,-138.5 76.7905,-228.5 241.7905,-228.5 241.7905,-138.5 76.7905,-138.5"/>
<text text-anchor="start" x="84.7905" y="-216.5" font-family="Helvetica,sans-Serif" font-size="10.00" fill="#000000">o2::soa::CombinationsIndex</text>
<text text-anchor="middle" x="159.2905" y="-205.5" font-family="Helvetica,sans-Serif" font-size="10.00" fill="#000000">PolicyBase&lt; T, Ts... &gt;</text>
<polyline fill="none" stroke="#000000" points="76.7905,-198.5 241.7905,-198.5 "/>
<text text-anchor="middle" x="159.2905" y="-186.5" font-family="Helvetica,sans-Serif" font-size="10.00" fill="#000000"> </text>
<polyline fill="none" stroke="#000000" points="76.7905,-179.5 241.7905,-179.5 "/>
<text text-anchor="start" x="84.7905" y="-167.5" font-family="Helvetica,sans-Serif" font-size="10.00" fill="#000000">+ CombinationsIndexPolicyBase()</text>
<text text-anchor="start" x="84.7905" y="-156.5" font-family="Helvetica,sans-Serif" font-size="10.00" fill="#000000">+ moveToEnd()</text>
<text text-anchor="start" x="84.7905" y="-145.5" font-family="Helvetica,sans-Serif" font-size="10.00" fill="#000000">+ addOne()</text>
</a>
</g>
</g>
<!-- Node8&#45;&gt;Node7 -->
<g id="edge1" class="edge">
<title>Node8&#45;&gt;Node7</title>
<path fill="none" stroke="#191970" d="M229.0351,-132.3045C247.7014,-118.6026 267.7374,-103.8953 285.9152,-90.5521"/>
<polygon fill="none" stroke="#191970" points="226.839,-129.5748 220.8487,-138.3136 230.9812,-135.2177 226.839,-129.5748"/>
</g>
<!-- Node9 -->
<g id="node3" class="node">
<title>Node9</title>
<polygon fill="none" stroke="#bfbfbf" points="138.2905,-483.5 138.2905,-551.5 242.2905,-551.5 242.2905,-483.5 138.2905,-483.5"/>
<text text-anchor="start" x="146.2905" y="-539.5" font-family="Helvetica,sans-Serif" font-size="10.00" fill="#000000">tuple&lt; typename Ts</text>
<text text-anchor="middle" x="190.2905" y="-528.5" font-family="Helvetica,sans-Serif" font-size="10.00" fill="#000000">::iterator... &gt;</text>
<polyline fill="none" stroke="#bfbfbf" points="138.2905,-521.5 242.2905,-521.5 "/>
<text text-anchor="middle" x="190.2905" y="-509.5" font-family="Helvetica,sans-Serif" font-size="10.00" fill="#000000"> </text>
<polyline fill="none" stroke="#bfbfbf" points="138.2905,-502.5 242.2905,-502.5 "/>
<text text-anchor="middle" x="190.2905" y="-490.5" font-family="Helvetica,sans-Serif" font-size="10.00" fill="#000000"> </text>
</g>
<!-- Node9&#45;&gt;Node8 -->
<g id="edge2" class="edge">
<title>Node9&#45;&gt;Node8</title>
<path fill="none" stroke="#404040" d="M223.9544,-483.3619C228.0809,-477.606 231.7363,-471.4072 234.2905,-465 265.4124,-386.9325 269.8655,-354.6666 240.2905,-276 235.2436,-262.5756 227.2664,-249.8263 218.2448,-238.3223"/>
<polygon fill="none" stroke="#404040" points="218.1355,-238.1907 211.2235,-236.1352 210.4624,-228.9644 217.3744,-231.0199 218.1355,-238.1907"/>
<text text-anchor="middle" x="284.2905" y="-319" font-family="Helvetica,sans-Serif" font-size="10.00" fill="#000000"> +mCurrent</text>
</g>
<!-- Node13 -->
<g id="node7" class="node">
<title>Node13</title>
<g id="a_node7"><a xlink:href="../../de/dac/structo2_1_1soa_1_1CombinationsIndexPolicyBase.html" target="_top" xlink:title="{o2::soa::CombinationsIndex\lPolicyBase\&lt; Ts \&gt;\n||+ CombinationsIndexPolicyBase()\l+ moveToEnd()\l+ addOne()\l}">
<polygon fill="none" stroke="#000000" points="66.7905,-276.5 66.7905,-366.5 231.7905,-366.5 231.7905,-276.5 66.7905,-276.5"/>
<text text-anchor="start" x="74.7905" y="-354.5" font-family="Helvetica,sans-Serif" font-size="10.00" fill="#000000">o2::soa::CombinationsIndex</text>
<text text-anchor="middle" x="149.2905" y="-343.5" font-family="Helvetica,sans-Serif" font-size="10.00" fill="#000000">PolicyBase&lt; Ts &gt;</text>
<polyline fill="none" stroke="#000000" points="66.7905,-336.5 231.7905,-336.5 "/>
<text text-anchor="middle" x="149.2905" y="-324.5" font-family="Helvetica,sans-Serif" font-size="10.00" fill="#000000"> </text>
<polyline fill="none" stroke="#000000" points="66.7905,-317.5 231.7905,-317.5 "/>
<text text-anchor="start" x="74.7905" y="-305.5" font-family="Helvetica,sans-Serif" font-size="10.00" fill="#000000">+ CombinationsIndexPolicyBase()</text>
<text text-anchor="start" x="74.7905" y="-294.5" font-family="Helvetica,sans-Serif" font-size="10.00" fill="#000000">+ moveToEnd()</text>
<text text-anchor="start" x="74.7905" y="-283.5" font-family="Helvetica,sans-Serif" font-size="10.00" fill="#000000">+ addOne()</text>
</a>
</g>
</g>
<!-- Node9&#45;&gt;Node13 -->
<g id="edge7" class="edge">
<title>Node9&#45;&gt;Node13</title>
<path fill="none" stroke="#404040" d="M183.1489,-483.3594C177.121,-454.5431 168.3638,-412.6794 161.2656,-378.7469"/>
<polygon fill="none" stroke="#404040" points="161.1908,-378.389 156.047,-373.3351 158.7337,-366.6432 163.8775,-371.6971 161.1908,-378.389"/>
<text text-anchor="middle" x="205.2905" y="-422.5" font-family="Helvetica,sans-Serif" font-size="10.00" fill="#000000"> +mCurrent</text>
</g>
<!-- Node10 -->
<g id="node4" class="node">
<title>Node10</title>
<polygon fill="none" stroke="#bfbfbf" points="56.7905,-489 56.7905,-546 91.7905,-546 91.7905,-489 56.7905,-489"/>
<text text-anchor="middle" x="74.2905" y="-534" font-family="Helvetica,sans-Serif" font-size="10.00" fill="#000000">bool</text>
<polyline fill="none" stroke="#bfbfbf" points="56.7905,-527 91.7905,-527 "/>
<text text-anchor="middle" x="74.2905" y="-515" font-family="Helvetica,sans-Serif" font-size="10.00" fill="#000000"> </text>
<polyline fill="none" stroke="#bfbfbf" points="56.7905,-508 91.7905,-508 "/>
<text text-anchor="middle" x="74.2905" y="-496" font-family="Helvetica,sans-Serif" font-size="10.00" fill="#000000"> </text>
</g>
<!-- Node10&#45;&gt;Node8 -->
<g id="edge3" class="edge">
<title>Node10&#45;&gt;Node8</title>
<path fill="none" stroke="#404040" d="M56.7471,-492.3342C27.2701,-446.6582 -25.2724,-348.1661 14.2905,-276 26.1944,-254.2863 45.6022,-236.9338 66.4029,-223.3954"/>
<polygon fill="none" stroke="#404040" points="66.482,-223.3468 69.4929,-216.7943 76.6994,-217.0533 73.6885,-223.6058 66.482,-223.3468"/>
<text text-anchor="middle" x="35.7905" y="-319" font-family="Helvetica,sans-Serif" font-size="10.00" fill="#000000"> +mIsEnd</text>
</g>
<!-- Node10&#45;&gt;Node13 -->
<g id="edge8" class="edge">
<title>Node10&#45;&gt;Node13</title>
<path fill="none" stroke="#404040" d="M82.2024,-488.8738C90.0266,-461.727 102.8904,-420.0023 117.2905,-385 118.3018,-382.5419 119.3693,-380.048 120.4765,-377.5419"/>
<polygon fill="none" stroke="#404040" points="120.5189,-377.4497 119.392,-370.3272 125.5332,-366.5475 126.6601,-373.6701 120.5189,-377.4497"/>
<text text-anchor="middle" x="138.7905" y="-422.5" font-family="Helvetica,sans-Serif" font-size="10.00" fill="#000000"> +mIsEnd</text>
</g>
<!-- Node11 -->
<g id="node5" class="node">
<title>Node11</title>
<g id="a_node5"><a xlink:href="../../dd/da8/structo2_1_1soa_1_1NTupleType.html" target="_top" xlink:title="{o2::soa::NTupleType\l\&lt; uint64_t, sizeof...(Ts)\&gt;\n||}">
<polygon fill="none" stroke="#000000" points="313.7905,-483.5 313.7905,-551.5 438.7905,-551.5 438.7905,-483.5 313.7905,-483.5"/>
<text text-anchor="start" x="321.7905" y="-539.5" font-family="Helvetica,sans-Serif" font-size="10.00" fill="#000000">o2::soa::NTupleType</text>
<text text-anchor="middle" x="376.2905" y="-528.5" font-family="Helvetica,sans-Serif" font-size="10.00" fill="#000000">&lt; uint64_t, sizeof...(Ts)&gt;</text>
<polyline fill="none" stroke="#000000" points="313.7905,-521.5 438.7905,-521.5 "/>
<text text-anchor="middle" x="376.2905" y="-509.5" font-family="Helvetica,sans-Serif" font-size="10.00" fill="#000000"> </text>
<polyline fill="none" stroke="#000000" points="313.7905,-502.5 438.7905,-502.5 "/>
<text text-anchor="middle" x="376.2905" y="-490.5" font-family="Helvetica,sans-Serif" font-size="10.00" fill="#000000"> </text>
</a>
</g>
</g>
<!-- Node11&#45;&gt;Node8 -->
<g id="edge4" class="edge">
<title>Node11&#45;&gt;Node8</title>
<path fill="none" stroke="#404040" d="M377.2065,-483.4199C377.1083,-456.3022 375.1078,-417.6254 366.2905,-385 352.2365,-332.998 349.6621,-315.7346 313.2905,-276 303.1586,-264.9313 278.885,-249.1144 252.5325,-233.6828"/>
<polygon fill="none" stroke="#404040" points="252.3458,-233.575 245.1494,-234.0355 241.9564,-227.5698 249.1528,-227.1093 252.3458,-233.575"/>
<text text-anchor="middle" x="392.2905" y="-319" font-family="Helvetica,sans-Serif" font-size="10.00" fill="#000000"> +mMaxOffset</text>
</g>
<!-- Node11&#45;&gt;Node13 -->
<g id="edge9" class="edge">
<title>Node11&#45;&gt;Node13</title>
<path fill="none" stroke="#404040" d="M324.4444,-483.2337C316.7677,-477.451 309.1431,-471.2781 302.2905,-465 267.8829,-433.477 268.3082,-416.9433 234.2905,-385 230.5894,-381.5246 226.7,-378.0615 222.7056,-374.6483"/>
<polygon fill="none" stroke="#404040" points="222.4707,-374.4534 215.2989,-373.7017 213.2344,-366.7924 220.4062,-367.5442 222.4707,-374.4534"/>
<text text-anchor="middle" x="334.2905" y="-422.5" font-family="Helvetica,sans-Serif" font-size="10.00" fill="#000000"> +mMaxOffset</text>
</g>
<!-- Node12 -->
<g id="node6" class="node">
<title>Node12</title>
<g id="a_node6"><a xlink:href="../../dd/da8/structo2_1_1soa_1_1NTupleType.html" target="_top" xlink:title="{o2::soa::NTupleType\l\&lt; T, N, REST \&gt;\n||}">
<polygon fill="none" stroke="#000000" points="389.2905,-610.5 389.2905,-678.5 497.2905,-678.5 497.2905,-610.5 389.2905,-610.5"/>
<text text-anchor="start" x="397.2905" y="-666.5" font-family="Helvetica,sans-Serif" font-size="10.00" fill="#000000">o2::soa::NTupleType</text>
<text text-anchor="middle" x="443.2905" y="-655.5" font-family="Helvetica,sans-Serif" font-size="10.00" fill="#000000">&lt; T, N, REST &gt;</text>
<polyline fill="none" stroke="#000000" points="389.2905,-648.5 497.2905,-648.5 "/>
<text text-anchor="middle" x="443.2905" y="-636.5" font-family="Helvetica,sans-Serif" font-size="10.00" fill="#000000"> </text>
<polyline fill="none" stroke="#000000" points="389.2905,-629.5 497.2905,-629.5 "/>
<text text-anchor="middle" x="443.2905" y="-617.5" font-family="Helvetica,sans-Serif" font-size="10.00" fill="#000000"> </text>
</a>
</g>
</g>
<!-- Node12&#45;&gt;Node11 -->
<g id="edge5" class="edge">
<title>Node12&#45;&gt;Node11</title>
<path fill="none" stroke="#ffa500" d="M383.7544,-602.466C381.2794,-599.1565 379.0892,-595.6661 377.2905,-592 371.251,-579.6905 370.0415,-564.8019 370.6977,-551.5805"/>
<polygon fill="#ffa500" stroke="#ffa500" points="381.2872,-604.9675 390.4324,-610.3169 386.6192,-600.4321 381.2872,-604.9675"/>
<text text-anchor="middle" x="433.2905" y="-578.5" font-family="Helvetica,sans-Serif" font-size="10.00" fill="#000000"> &lt; uint64_t, sizeof...(Ts)&gt;</text>
</g>
<!-- Node16 -->
<g id="node10" class="node">
<title>Node16</title>
<g id="a_node10"><a xlink:href="../../dd/da8/structo2_1_1soa_1_1NTupleType.html" target="_top" xlink:title="{o2::soa::NTupleType\l\&lt; uint64_t, sizeof...\l(Ts)+1 \&gt;\n||}">
<polygon fill="none" stroke="#000000" points="457.2905,-385.5 457.2905,-464.5 565.2905,-464.5 565.2905,-385.5 457.2905,-385.5"/>
<text text-anchor="start" x="465.2905" y="-452.5" font-family="Helvetica,sans-Serif" font-size="10.00" fill="#000000">o2::soa::NTupleType</text>
<text text-anchor="start" x="465.2905" y="-441.5" font-family="Helvetica,sans-Serif" font-size="10.00" fill="#000000">&lt; uint64_t, sizeof...</text>
<text text-anchor="middle" x="511.2905" y="-430.5" font-family="Helvetica,sans-Serif" font-size="10.00" fill="#000000">(Ts)+1 &gt;</text>
<polyline fill="none" stroke="#000000" points="457.2905,-423.5 565.2905,-423.5 "/>
<text text-anchor="middle" x="511.2905" y="-411.5" font-family="Helvetica,sans-Serif" font-size="10.00" fill="#000000"> </text>
<polyline fill="none" stroke="#000000" points="457.2905,-404.5 565.2905,-404.5 "/>
<text text-anchor="middle" x="511.2905" y="-392.5" font-family="Helvetica,sans-Serif" font-size="10.00" fill="#000000"> </text>
</a>
</g>
</g>
<!-- Node12&#45;&gt;Node16 -->
<g id="edge13" class="edge">
<title>Node12&#45;&gt;Node16</title>
<path fill="none" stroke="#ffa500" d="M483.876,-601.9942C485.9141,-598.7446 487.7501,-595.4014 489.2905,-592 507.7487,-551.2422 512.0019,-499.5515 512.4363,-464.5545"/>
<polygon fill="#ffa500" stroke="#ffa500" points="480.9004,-600.1431 478.0731,-610.3537 486.6508,-604.1348 480.9004,-600.1431"/>
<text text-anchor="start" x="497.2905" y="-584" font-family="Helvetica,sans-Serif" font-size="10.00" fill="#000000"> &lt; uint64_t, sizeof...</text>
<text text-anchor="middle" x="541.2905" y="-573" font-family="Helvetica,sans-Serif" font-size="10.00" fill="#000000">(Ts)+1 &gt;</text>
</g>
<!-- Node13&#45;&gt;Node8 -->
<g id="edge6" class="edge">
<title>Node13&#45;&gt;Node8</title>
<path fill="none" stroke="#ffa500" d="M153.3058,-266.089C154.2034,-253.7026 155.145,-240.7078 156.0088,-228.7879"/>
<polygon fill="#ffa500" stroke="#ffa500" points="149.7969,-266.0868 152.5649,-276.3136 156.7786,-266.5928 149.7969,-266.0868"/>
<text text-anchor="middle" x="182.2905" y="-250" font-family="Helvetica,sans-Serif" font-size="10.00" fill="#000000"> &lt; T, Ts... &gt;</text>
</g>
<!-- Node14 -->
<g id="node8" class="node">
<title>Node14</title>
<g id="a_node8"><a xlink:href="../../d6/d30/classuint64__t.html" target="_top" xlink:title="{uint64_t\n||}">
<polygon fill="none" stroke="#000000" points="259.7905,-155 259.7905,-212 310.7905,-212 310.7905,-155 259.7905,-155"/>
<text text-anchor="middle" x="285.2905" y="-200" font-family="Helvetica,sans-Serif" font-size="10.00" fill="#000000">uint64_t</text>
<polyline fill="none" stroke="#000000" points="259.7905,-193 310.7905,-193 "/>
<text text-anchor="middle" x="285.2905" y="-181" font-family="Helvetica,sans-Serif" font-size="10.00" fill="#000000"> </text>
<polyline fill="none" stroke="#000000" points="259.7905,-174 310.7905,-174 "/>
<text text-anchor="middle" x="285.2905" y="-162" font-family="Helvetica,sans-Serif" font-size="10.00" fill="#000000"> </text>
</a>
</g>
</g>
<!-- Node14&#45;&gt;Node7 -->
<g id="edge10" class="edge">
<title>Node14&#45;&gt;Node7</title>
<path fill="none" stroke="#404040" d="M280.8484,-154.921C279.8102,-140.6275 280.3982,-123.3604 286.2905,-109 287.3922,-106.3151 288.6659,-103.6792 290.0801,-101.0998"/>
<polygon fill="none" stroke="#404040" points="290.1682,-100.9612 290.0103,-93.7518 296.6044,-90.8332 296.7623,-98.0426 290.1682,-100.9612"/>
<text text-anchor="middle" x="337.2905" y="-112" font-family="Helvetica,sans-Serif" font-size="10.00" fill="#000000"> +mSlidingWindowSize</text>
</g>
<!-- Node15 -->
<g id="node9" class="node">
<title>Node15</title>
<polygon fill="none" stroke="#bfbfbf" points="353.7905,-149.5 353.7905,-217.5 466.7905,-217.5 466.7905,-149.5 353.7905,-149.5"/>
<text text-anchor="start" x="361.7905" y="-205.5" font-family="Helvetica,sans-Serif" font-size="10.00" fill="#000000">vector&lt; std::pair&lt;</text>
<text text-anchor="middle" x="410.2905" y="-194.5" font-family="Helvetica,sans-Serif" font-size="10.00" fill="#000000"> uint64_t, uint64_t &gt; &gt;</text>
<polyline fill="none" stroke="#bfbfbf" points="353.7905,-187.5 466.7905,-187.5 "/>
<text text-anchor="middle" x="410.2905" y="-175.5" font-family="Helvetica,sans-Serif" font-size="10.00" fill="#000000"> </text>
<polyline fill="none" stroke="#bfbfbf" points="353.7905,-168.5 466.7905,-168.5 "/>
<text text-anchor="middle" x="410.2905" y="-156.5" font-family="Helvetica,sans-Serif" font-size="10.00" fill="#000000"> </text>
</g>
<!-- Node15&#45;&gt;Node7 -->
<g id="edge11" class="edge">
<title>Node15&#45;&gt;Node7</title>
<path fill="none" stroke="#404040" d="M402.4199,-149.3781C398.8681,-136.433 394.1404,-121.7475 388.2905,-109 387.1129,-106.4339 385.8437,-103.8506 384.5065,-101.2711"/>
<polygon fill="none" stroke="#404040" points="384.492,-101.2448 378.0888,-97.9283 378.6874,-90.7421 385.0906,-94.0586 384.492,-101.2448"/>
<text text-anchor="middle" x="435.2905" y="-112" font-family="Helvetica,sans-Serif" font-size="10.00" fill="#000000"> +mGroupedIndices</text>
</g>
<!-- Node16&#45;&gt;Node7 -->
<g id="edge12" class="edge">
<title>Node16&#45;&gt;Node7</title>
<path fill="none" stroke="#404040" d="M519.249,-385.3437C529.8233,-321.0114 540.9456,-192.6864 482.2905,-109 471.3763,-93.4281 455.6188,-81.5652 438.6937,-72.5646"/>
<polygon fill="none" stroke="#404040" points="438.2185,-72.3319 431.0706,-73.2847 427.442,-67.053 434.5899,-66.1003 438.2185,-72.3319"/>
<text text-anchor="middle" x="567.2905" y="-250" font-family="Helvetica,sans-Serif" font-size="10.00" fill="#000000"> +mCurrentIndices</text>
</g>
</g>
</svg>
