<?xml version="1.0" encoding="UTF-8" standalone="no"?>
<!DOCTYPE svg PUBLIC "-//W3C//DTD SVG 1.1//EN"
 "http://www.w3.org/Graphics/SVG/1.1/DTD/svg11.dtd">
<!-- Generated by graphviz version 2.40.1 (20161225.0304)
 -->
<!-- Title: o2::passive::Absorber Pages: 1 -->
<svg width="143pt" height="320pt"
 viewBox="0.00 0.00 143.00 320.00" xmlns="http://www.w3.org/2000/svg" xmlns:xlink="http://www.w3.org/1999/xlink">
<g id="graph0" class="graph" transform="scale(1 1) rotate(0) translate(4 316)">
<title>o2::passive::Absorber</title>
<!-- Node3 -->
<g id="node1" class="node">
<title>Node3</title>
<polygon fill="#bfbfbf" stroke="#000000" points="9,-.5 9,-112.5 126,-112.5 126,-.5 9,-.5"/>
<text text-anchor="middle" x="67.5" y="-100.5" font-family="Helvetica,sans-Serif" font-size="10.00" fill="#000000">o2::passive::Absorber</text>
<polyline fill="none" stroke="#000000" points="9,-93.5 126,-93.5 "/>
<text text-anchor="middle" x="67.5" y="-81.5" font-family="Helvetica,sans-Serif" font-size="10.00" fill="#000000"> </text>
<polyline fill="none" stroke="#000000" points="9,-74.5 126,-74.5 "/>
<text text-anchor="start" x="17" y="-62.5" font-family="Helvetica,sans-Serif" font-size="10.00" fill="#000000">+ Absorber()</text>
<text text-anchor="start" x="17" y="-51.5" font-family="Helvetica,sans-Serif" font-size="10.00" fill="#000000">+ Absorber()</text>
<text text-anchor="start" x="17" y="-40.5" font-family="Helvetica,sans-Serif" font-size="10.00" fill="#000000">+ ~Absorber()</text>
<text text-anchor="start" x="17" y="-29.5" font-family="Helvetica,sans-Serif" font-size="10.00" fill="#000000">+ ConstructGeometry()</text>
<text text-anchor="start" x="17" y="-18.5" font-family="Helvetica,sans-Serif" font-size="10.00" fill="#000000">+ createMaterials()</text>
<text text-anchor="start" x="17" y="-7.5" font-family="Helvetica,sans-Serif" font-size="10.00" fill="#000000">+ CloneModule()</text>
</g>
<!-- Node4 -->
<g id="node2" class="node">
<title>Node4</title>
<g id="a_node2"><a xlink:href="../../d6/dfc/classo2_1_1passive_1_1PassiveBase.html" target="_top" xlink:title="a common base class for passive modules &#45; implementing generic functions ">
<polygon fill="none" stroke="#000000" points="0,-149.5 0,-217.5 135,-217.5 135,-149.5 0,-149.5"/>
<text text-anchor="middle" x="67.5" y="-205.5" font-family="Helvetica,sans-Serif" font-size="10.00" fill="#000000">o2::passive::PassiveBase</text>
<polyline fill="none" stroke="#000000" points="0,-198.5 135,-198.5 "/>
<text text-anchor="middle" x="67.5" y="-186.5" font-family="Helvetica,sans-Serif" font-size="10.00" fill="#000000"> </text>
<polyline fill="none" stroke="#000000" points="0,-179.5 135,-179.5 "/>
<text text-anchor="start" x="8" y="-167.5" font-family="Helvetica,sans-Serif" font-size="10.00" fill="#000000">+ SetSpecialPhysicsCuts()</text>
<text text-anchor="start" x="8" y="-156.5" font-family="Helvetica,sans-Serif" font-size="10.00" fill="#000000">+ ClassDefOverride()</text>
</a>
</g>
</g>
<!-- Node4&#45;&gt;Node3 -->
<g id="edge1" class="edge">
<title>Node4&#45;&gt;Node3</title>
<path fill="none" stroke="#191970" d="M67.5,-139.3C67.5,-130.7146 67.5,-121.6091 67.5,-112.698"/>
<polygon fill="none" stroke="#191970" points="64.0001,-139.4663 67.5,-149.4663 71.0001,-139.4664 64.0001,-139.4663"/>
</g>
<!-- Node5 -->
<g id="node3" class="node">
<title>Node5</title>
<g id="a_node3"><a xlink:href="../../d4/d06/classFairModule.html" target="_top" xlink:title="{FairModule\n||}">
<polygon fill="none" stroke="#000000" points="35,-254.5 35,-311.5 100,-311.5 100,-254.5 35,-254.5"/>
<text text-anchor="middle" x="67.5" y="-299.5" font-family="Helvetica,sans-Serif" font-size="10.00" fill="#000000">FairModule</text>
<polyline fill="none" stroke="#000000" points="35,-292.5 100,-292.5 "/>
<text text-anchor="middle" x="67.5" y="-280.5" font-family="Helvetica,sans-Serif" font-size="10.00" fill="#000000"> </text>
<polyline fill="none" stroke="#000000" points="35,-273.5 100,-273.5 "/>
<text text-anchor="middle" x="67.5" y="-261.5" font-family="Helvetica,sans-Serif" font-size="10.00" fill="#000000"> </text>
</a>
</g>
</g>
<!-- Node5&#45;&gt;Node4 -->
<g id="edge2" class="edge">
<title>Node5&#45;&gt;Node4</title>
<path fill="none" stroke="#191970" d="M67.5,-244.4268C67.5,-235.6025 67.5,-226.2834 67.5,-217.6596"/>
<polygon fill="none" stroke="#191970" points="64.0001,-244.4873 67.5,-254.4873 71.0001,-244.4873 64.0001,-244.4873"/>
</g>
</g>
</svg>
