<?xml version="1.0" encoding="UTF-8" standalone="no"?>
<!DOCTYPE svg PUBLIC "-//W3C//DTD SVG 1.1//EN"
 "http://www.w3.org/Graphics/SVG/1.1/DTD/svg11.dtd">
<!-- Generated by graphviz version 2.40.1 (20161225.0304)
 -->
<!-- Title: process_filter Pages: 1 -->
<svg width="187pt" height="182pt"
 viewBox="0.00 0.00 186.50 182.00" xmlns="http://www.w3.org/2000/svg" xmlns:xlink="http://www.w3.org/1999/xlink">
<g id="graph0" class="graph" transform="scale(1 1) rotate(0) translate(4 178)">
<title>process_filter</title>
<!-- Node1 -->
<g id="node1" class="node">
<title>Node1</title>
<polygon fill="#bfbfbf" stroke="#000000" points="28,-.5 28,-57.5 103,-57.5 103,-.5 28,-.5"/>
<text text-anchor="middle" x="65.5" y="-45.5" font-family="Helvetica,sans-Serif" font-size="10.00" fill="#000000">process_filter</text>
<polyline fill="none" stroke="#000000" points="28,-38.5 103,-38.5 "/>
<text text-anchor="middle" x="65.5" y="-26.5" font-family="Helvetica,sans-Serif" font-size="10.00" fill="#000000"> </text>
<polyline fill="none" stroke="#000000" points="28,-19.5 103,-19.5 "/>
<text text-anchor="middle" x="65.5" y="-7.5" font-family="Helvetica,sans-Serif" font-size="10.00" fill="#000000"> </text>
</g>
<!-- Node2 -->
<g id="node2" class="node">
<title>Node2</title>
<polygon fill="none" stroke="#bfbfbf" points="0,-116.5 0,-173.5 35,-173.5 35,-116.5 0,-116.5"/>
<text text-anchor="middle" x="17.5" y="-161.5" font-family="Helvetica,sans-Serif" font-size="10.00" fill="#000000">char</text>
<polyline fill="none" stroke="#bfbfbf" points="0,-154.5 35,-154.5 "/>
<text text-anchor="middle" x="17.5" y="-142.5" font-family="Helvetica,sans-Serif" font-size="10.00" fill="#000000"> </text>
<polyline fill="none" stroke="#bfbfbf" points="0,-135.5 35,-135.5 "/>
<text text-anchor="middle" x="17.5" y="-123.5" font-family="Helvetica,sans-Serif" font-size="10.00" fill="#000000"> </text>
</g>
<!-- Node2&#45;&gt;Node1 -->
<g id="edge1" class="edge">
<title>Node2&#45;&gt;Node1</title>
<path fill="none" stroke="#404040" d="M13.1731,-116.4741C12.4022,-103.6387 13.1821,-88.5799 18.5,-76 19.7188,-73.1169 21.2069,-70.3171 22.8937,-67.6153"/>
<polygon fill="none" stroke="#404040" points="23.0887,-67.3522 23.4481,-60.15 30.2344,-57.7116 29.8751,-64.9138 23.0887,-67.3522"/>
<text text-anchor="middle" x="55.5" y="-84.5" font-family="Helvetica,sans-Serif" font-size="10.00" fill="#000000"> +program_name</text>
</g>
<!-- Node3 -->
<g id="node3" class="node">
<title>Node3</title>
<polygon fill="none" stroke="#bfbfbf" points="100,-116.5 100,-173.5 129,-173.5 129,-116.5 100,-116.5"/>
<text text-anchor="middle" x="114.5" y="-161.5" font-family="Helvetica,sans-Serif" font-size="10.00" fill="#000000">int</text>
<polyline fill="none" stroke="#bfbfbf" points="100,-154.5 129,-154.5 "/>
<text text-anchor="middle" x="114.5" y="-142.5" font-family="Helvetica,sans-Serif" font-size="10.00" fill="#000000"> </text>
<polyline fill="none" stroke="#bfbfbf" points="100,-135.5 129,-135.5 "/>
<text text-anchor="middle" x="114.5" y="-123.5" font-family="Helvetica,sans-Serif" font-size="10.00" fill="#000000"> </text>
</g>
<!-- Node3&#45;&gt;Node1 -->
<g id="edge2" class="edge">
<title>Node3&#45;&gt;Node1</title>
<path fill="none" stroke="#404040" d="M106.8382,-116.2971C103.099,-103.7044 98.1783,-88.8865 92.5,-76 91.3634,-73.4206 90.1232,-70.8014 88.8191,-68.187"/>
<polygon fill="none" stroke="#404040" points="88.818,-68.1849 82.4747,-64.7553 83.2007,-57.5808 89.544,-61.0104 88.818,-68.1849"/>
<text text-anchor="middle" x="139" y="-90" font-family="Helvetica,sans-Serif" font-size="10.00" fill="#000000"> +include_children</text>
<text text-anchor="middle" x="139" y="-79" font-family="Helvetica,sans-Serif" font-size="10.00" fill="#000000">+pid</text>
</g>
</g>
</svg>
