<?xml version="1.0" encoding="UTF-8" standalone="no"?>
<!DOCTYPE svg PUBLIC "-//W3C//DTD SVG 1.1//EN"
 "http://www.w3.org/Graphics/SVG/1.1/DTD/svg11.dtd">
<!-- Generated by graphviz version 2.40.1 (20161225.0304)
 -->
<!-- Title: /home/runner/work/AliceO2/AliceO2/GPU/GPUTracking/TPCClusterFinder/GPUTPCCFPeakFinder.h Pages: 1 -->
<!--zoomable 295 -->
<svg id="main" version="1.1" xmlns="http://www.w3.org/2000/svg" xmlns:xlink="http://www.w3.org/1999/xlink" xml:space="preserve" onload="init(evt)">
<style type="text/css"><![CDATA[
.edge:hover path { stroke: red; }
.edge:hover polygon { stroke: red; fill: red; }
]]></style>
<script type="text/javascript"><![CDATA[
var edges = document.getElementsByTagName('g');
if (edges && edges.length) {
  for (var i=0;i<edges.length;i++) {
    if (edges[i].id.substr(0,4)=='edge') {
      edges[i].setAttribute('class','edge');
    }
  }
}
]]></script>
        <defs>
                <circle id="rim" cx="0" cy="0" r="7"/>
                <circle id="rim2" cx="0" cy="0" r="3.5"/>
                <g id="zoomPlus">
                        <use xlink:href="#rim" fill="#404040">
                                <set attributeName="fill" to="#808080" begin="zoomplus.mouseover" end="zoomplus.mouseout"/>
                        </use>
                        <path d="M-4,0h8M0,-4v8" fill="none" stroke="white" stroke-width="1.5" pointer-events="none"/>
                </g>
                <g id="zoomMin">
                        <use xlink:href="#rim" fill="#404040">
                                <set attributeName="fill" to="#808080" begin="zoomminus.mouseover" end="zoomminus.mouseout"/>
                        </use>
                        <path d="M-4,0h8" fill="none" stroke="white" stroke-width="1.5" pointer-events="none"/>
                </g>
                <g id="dirArrow">
                        <path fill="none" stroke="white" stroke-width="1.5" d="M0,-3.0v7 M-2.5,-0.5L0,-3.0L2.5,-0.5"/>
                </g>
               <g id="resetDef">
                       <use xlink:href="#rim2" fill="#404040">
                               <set attributeName="fill" to="#808080" begin="reset.mouseover" end="reset.mouseout"/>
                       </use>
               </g>
        </defs>

<script type="text/javascript">
var viewWidth = 1229;
var viewHeight = 295;
var sectionId = 'dynsection-1';
</script>
<script xlink:href="../../svgpan.js"/>
<svg id="graph" class="graph">
<g id="viewport">
<title>/home/runner/work/AliceO2/AliceO2/GPU/GPUTracking/TPCClusterFinder/GPUTPCCFPeakFinder.h</title>
<!-- Node47 -->
<g id="node1" class="node">
<title>Node47</title>
<polygon fill="#bfbfbf" stroke="#000000" points="787.5,-245.5 787.5,-286.5 1002.5,-286.5 1002.5,-245.5 787.5,-245.5"/>
<text text-anchor="start" x="795.5" y="-274.5" font-family="Helvetica,sans-Serif" font-size="10.00" fill="#000000">/home/runner/work/AliceO2</text>
<text text-anchor="start" x="795.5" y="-263.5" font-family="Helvetica,sans-Serif" font-size="10.00" fill="#000000">/AliceO2/GPU/GPUTracking</text>
<text text-anchor="middle" x="895" y="-252.5" font-family="Helvetica,sans-Serif" font-size="10.00" fill="#000000">/TPCClusterFinder/GPUTPCCFPeakFinder.h</text>
</g>
<!-- Node48 -->
<g id="node2" class="node">
<title>Node48</title>
<g id="a_node2"><a xlink:href="../../d1/d59/GPUTPCClusterFinderKernels_8h.html" target="_top" xlink:title="/home/runner/work/AliceO2\l/AliceO2/GPU/GPUTracking\l/TPCClusterFinder/GPUTPCClusterFinder\lKernels.h">
<polygon fill="none" stroke="#000000" points="730,-156.5 730,-208.5 932,-208.5 932,-156.5 730,-156.5"/>
<text text-anchor="start" x="738" y="-196.5" font-family="Helvetica,sans-Serif" font-size="10.00" fill="#000000">/home/runner/work/AliceO2</text>
<text text-anchor="start" x="738" y="-185.5" font-family="Helvetica,sans-Serif" font-size="10.00" fill="#000000">/AliceO2/GPU/GPUTracking</text>
<text text-anchor="start" x="738" y="-174.5" font-family="Helvetica,sans-Serif" font-size="10.00" fill="#000000">/TPCClusterFinder/GPUTPCClusterFinder</text>
<text text-anchor="middle" x="831" y="-163.5" font-family="Helvetica,sans-Serif" font-size="10.00" fill="#000000">Kernels.h</text>
</a>
</g>
</g>
<!-- Node47&#45;&gt;Node48 -->
<g id="edge1" class="edge">
<title>Node47&#45;&gt;Node48</title>
<path fill="none" stroke="#191970" d="M872.898,-237.1638C865.7861,-227.885 857.9508,-217.6623 850.9991,-208.5925"/>
<polygon fill="#191970" stroke="#191970" points="870.3185,-239.5519 879.1798,-245.3595 875.8743,-235.2935 870.3185,-239.5519"/>
</g>
<!-- Node54 -->
<g id="node8" class="node">
<title>Node54</title>
<g id="a_node8"><a xlink:href="../../d9/dbb/GPUTPCCFPeakFinder_8cxx.html" target="_top" xlink:title="/home/runner/work/AliceO2\l/AliceO2/GPU/GPUTracking\l/TPCClusterFinder/GPUTPCCFPeakFinder.cxx">
<polygon fill="none" stroke="#000000" points="995.5,-.5 995.5,-41.5 1220.5,-41.5 1220.5,-.5 995.5,-.5"/>
<text text-anchor="start" x="1003.5" y="-29.5" font-family="Helvetica,sans-Serif" font-size="10.00" fill="#000000">/home/runner/work/AliceO2</text>
<text text-anchor="start" x="1003.5" y="-18.5" font-family="Helvetica,sans-Serif" font-size="10.00" fill="#000000">/AliceO2/GPU/GPUTracking</text>
<text text-anchor="middle" x="1108" y="-7.5" font-family="Helvetica,sans-Serif" font-size="10.00" fill="#000000">/TPCClusterFinder/GPUTPCCFPeakFinder.cxx</text>
</a>
</g>
</g>
<!-- Node47&#45;&gt;Node54 -->
<g id="edge8" class="edge">
<title>Node47&#45;&gt;Node54</title>
<path fill="none" stroke="#191970" d="M919.9777,-237.2697C963.401,-187.3228 1051.8066,-85.6356 1089.8857,-41.8357"/>
<polygon fill="#191970" stroke="#191970" points="917.08,-235.2683 913.1603,-245.1114 922.3627,-239.8611 917.08,-235.2683"/>
</g>
<!-- Node49 -->
<g id="node3" class="node">
<title>Node49</title>
<g id="a_node3"><a xlink:href="../../da/de7/CfUtils_8h.html" target="_top" xlink:title="/home/runner/work/AliceO2\l/AliceO2/GPU/GPUTracking\l/TPCClusterFinder/CfUtils.h">
<polygon fill="none" stroke="#000000" points="563.5,-78.5 563.5,-119.5 704.5,-119.5 704.5,-78.5 563.5,-78.5"/>
<text text-anchor="start" x="571.5" y="-107.5" font-family="Helvetica,sans-Serif" font-size="10.00" fill="#000000">/home/runner/work/AliceO2</text>
<text text-anchor="start" x="571.5" y="-96.5" font-family="Helvetica,sans-Serif" font-size="10.00" fill="#000000">/AliceO2/GPU/GPUTracking</text>
<text text-anchor="middle" x="634" y="-85.5" font-family="Helvetica,sans-Serif" font-size="10.00" fill="#000000">/TPCClusterFinder/CfUtils.h</text>
</a>
</g>
</g>
<!-- Node48&#45;&gt;Node49 -->
<g id="edge2" class="edge">
<title>Node48&#45;&gt;Node49</title>
<path fill="none" stroke="#191970" d="M760.1387,-152.4649C734.4127,-141.5607 705.95,-129.4966 682.5821,-119.5919"/>
<polygon fill="#191970" stroke="#191970" points="758.9053,-155.7435 769.4783,-156.4235 761.6371,-149.2985 758.9053,-155.7435"/>
</g>
<!-- Node50 -->
<g id="node4" class="node">
<title>Node50</title>
<g id="a_node4"><a xlink:href="../../d8/db8/ClusterAccumulator_8cxx.html" target="_top" xlink:title="/home/runner/work/AliceO2\l/AliceO2/GPU/GPUTracking\l/TPCClusterFinder/ClusterAccumulator.cxx">
<polygon fill="none" stroke="#000000" points="0,-.5 0,-41.5 206,-41.5 206,-.5 0,-.5"/>
<text text-anchor="start" x="8" y="-29.5" font-family="Helvetica,sans-Serif" font-size="10.00" fill="#000000">/home/runner/work/AliceO2</text>
<text text-anchor="start" x="8" y="-18.5" font-family="Helvetica,sans-Serif" font-size="10.00" fill="#000000">/AliceO2/GPU/GPUTracking</text>
<text text-anchor="middle" x="103" y="-7.5" font-family="Helvetica,sans-Serif" font-size="10.00" fill="#000000">/TPCClusterFinder/ClusterAccumulator.cxx</text>
</a>
</g>
</g>
<!-- Node49&#45;&gt;Node50 -->
<g id="edge3" class="edge">
<title>Node49&#45;&gt;Node50</title>
<path fill="none" stroke="#191970" d="M553.369,-89.2496C468.8701,-78.7463 332.3454,-60.9706 215,-42 212.0705,-41.5264 209.0999,-41.0362 206.1028,-40.533"/>
<polygon fill="#191970" stroke="#191970" points="553.0565,-92.7375 563.4111,-90.494 553.9174,-85.7907 553.0565,-92.7375"/>
</g>
<!-- Node51 -->
<g id="node5" class="node">
<title>Node51</title>
<g id="a_node5"><a xlink:href="../../de/d30/GPUTPCCFClusterizer_8cxx.html" target="_top" xlink:title="/home/runner/work/AliceO2\l/AliceO2/GPU/GPUTracking\l/TPCClusterFinder/GPUTPCCFClusterizer.cxx">
<polygon fill="none" stroke="#000000" points="224.5,-.5 224.5,-41.5 447.5,-41.5 447.5,-.5 224.5,-.5"/>
<text text-anchor="start" x="232.5" y="-29.5" font-family="Helvetica,sans-Serif" font-size="10.00" fill="#000000">/home/runner/work/AliceO2</text>
<text text-anchor="start" x="232.5" y="-18.5" font-family="Helvetica,sans-Serif" font-size="10.00" fill="#000000">/AliceO2/GPU/GPUTracking</text>
<text text-anchor="middle" x="336" y="-7.5" font-family="Helvetica,sans-Serif" font-size="10.00" fill="#000000">/TPCClusterFinder/GPUTPCCFClusterizer.cxx</text>
</a>
</g>
</g>
<!-- Node49&#45;&gt;Node51 -->
<g id="edge4" class="edge">
<title>Node49&#45;&gt;Node51</title>
<path fill="none" stroke="#191970" d="M553.4794,-77.9241C510.3162,-66.6264 457.3549,-52.764 414.503,-41.5478"/>
<polygon fill="#191970" stroke="#191970" points="552.8178,-81.3688 563.3782,-80.5151 554.5903,-74.5969 552.8178,-81.3688"/>
</g>
<!-- Node52 -->
<g id="node6" class="node">
<title>Node52</title>
<g id="a_node6"><a xlink:href="../../dd/d19/GPUTPCCFDeconvolution_8cxx.html" target="_top" xlink:title="/home/runner/work/AliceO2\l/AliceO2/GPU/GPUTracking\l/TPCClusterFinder/GPUTPCCFDeconvolution.cxx">
<polygon fill="none" stroke="#000000" points="466,-.5 466,-41.5 704,-41.5 704,-.5 466,-.5"/>
<text text-anchor="start" x="474" y="-29.5" font-family="Helvetica,sans-Serif" font-size="10.00" fill="#000000">/home/runner/work/AliceO2</text>
<text text-anchor="start" x="474" y="-18.5" font-family="Helvetica,sans-Serif" font-size="10.00" fill="#000000">/AliceO2/GPU/GPUTracking</text>
<text text-anchor="middle" x="585" y="-7.5" font-family="Helvetica,sans-Serif" font-size="10.00" fill="#000000">/TPCClusterFinder/GPUTPCCFDeconvolution.cxx</text>
</a>
</g>
</g>
<!-- Node49&#45;&gt;Node52 -->
<g id="edge5" class="edge">
<title>Node49&#45;&gt;Node52</title>
<path fill="none" stroke="#191970" d="M615.4793,-69.5181C609.6559,-60.2482 603.3525,-50.2141 597.9974,-41.6898"/>
<polygon fill="#191970" stroke="#191970" points="612.5856,-71.4915 620.8689,-78.0974 618.5131,-67.7678 612.5856,-71.4915"/>
</g>
<!-- Node53 -->
<g id="node7" class="node">
<title>Node53</title>
<g id="a_node7"><a xlink:href="../../d4/d72/GPUTPCCFNoiseSuppression_8cxx.html" target="_top" xlink:title="/home/runner/work/AliceO2\l/AliceO2/GPU/GPUTracking\l/TPCClusterFinder/GPUTPCCFNoiseSuppression.cxx">
<polygon fill="none" stroke="#000000" points="722.5,-.5 722.5,-41.5 977.5,-41.5 977.5,-.5 722.5,-.5"/>
<text text-anchor="start" x="730.5" y="-29.5" font-family="Helvetica,sans-Serif" font-size="10.00" fill="#000000">/home/runner/work/AliceO2</text>
<text text-anchor="start" x="730.5" y="-18.5" font-family="Helvetica,sans-Serif" font-size="10.00" fill="#000000">/AliceO2/GPU/GPUTracking</text>
<text text-anchor="middle" x="850" y="-7.5" font-family="Helvetica,sans-Serif" font-size="10.00" fill="#000000">/TPCClusterFinder/GPUTPCCFNoiseSuppression.cxx</text>
</a>
</g>
</g>
<!-- Node49&#45;&gt;Node53 -->
<g id="edge6" class="edge">
<title>Node49&#45;&gt;Node53</title>
<path fill="none" stroke="#191970" d="M700.4624,-74.9997C730.0771,-64.3055 764.6078,-51.8361 793.0212,-41.5757"/>
<polygon fill="#191970" stroke="#191970" points="699.2508,-71.7159 691.034,-78.4044 701.6283,-78.2998 699.2508,-71.7159"/>
</g>
<!-- Node49&#45;&gt;Node54 -->
<g id="edge7" class="edge">
<title>Node49&#45;&gt;Node54</title>
<path fill="none" stroke="#191970" d="M715.0937,-86.1024C786.4627,-74.6957 893.1726,-57.5047 986,-42 989.0738,-41.4866 992.1907,-40.964 995.3361,-40.4348"/>
<polygon fill="#191970" stroke="#191970" points="714.1488,-82.7089 704.8261,-87.7425 715.2531,-89.6213 714.1488,-82.7089"/>
</g>
</g>
</svg>
        <g id="navigator" transform="translate(0 0)" fill="#404254">
                <rect fill="#f2f5e9" fill-opacity="0.5" stroke="#606060" stroke-width=".5" x="0" y="0" width="60" height="60"/>
                <use id="zoomplus" xlink:href="#zoomPlus" x="17" y="9" onmousedown="handleZoom(evt,'in')"/>
                <use id="zoomminus" xlink:href="#zoomMin" x="42" y="9" onmousedown="handleZoom(evt,'out')"/>
                <use id="reset" xlink:href="#resetDef" x="30" y="36" onmousedown="handleReset()"/>
                <g id="arrowUp" xlink:href="#dirArrow" transform="translate(30 24)" onmousedown="handlePan(0,-1)">
                  <use xlink:href="#rim" fill="#404040">
                        <set attributeName="fill" to="#808080" begin="arrowUp.mouseover" end="arrowUp.mouseout"/>
                  </use>
                  <path fill="none" stroke="white" stroke-width="1.5" d="M0,-3.0v7 M-2.5,-0.5L0,-3.0L2.5,-0.5"/>
                </g>
                <g id="arrowRight" xlink:href="#dirArrow" transform="rotate(90) translate(36 -43)" onmousedown="handlePan(1,0)">
                  <use xlink:href="#rim" fill="#404040">
                        <set attributeName="fill" to="#808080" begin="arrowRight.mouseover" end="arrowRight.mouseout"/>
                  </use>
                  <path fill="none" stroke="white" stroke-width="1.5" d="M0,-3.0v7 M-2.5,-0.5L0,-3.0L2.5,-0.5"/>
                </g>
                <g id="arrowDown" xlink:href="#dirArrow" transform="rotate(180) translate(-30 -48)" onmousedown="handlePan(0,1)">
                  <use xlink:href="#rim" fill="#404040">
                        <set attributeName="fill" to="#808080" begin="arrowDown.mouseover" end="arrowDown.mouseout"/>
                  </use>
                  <path fill="none" stroke="white" stroke-width="1.5" d="M0,-3.0v7 M-2.5,-0.5L0,-3.0L2.5,-0.5"/>
                </g>
                <g id="arrowLeft" xlink:href="#dirArrow" transform="rotate(270) translate(-36 17)" onmousedown="handlePan(-1,0)">
                  <use xlink:href="#rim" fill="#404040">
                        <set attributeName="fill" to="#808080" begin="arrowLeft.mouseover" end="arrowLeft.mouseout"/>
                  </use>
                  <path fill="none" stroke="white" stroke-width="1.5" d="M0,-3.0v7 M-2.5,-0.5L0,-3.0L2.5,-0.5"/>
                </g>
        </g>
        <svg viewBox="0 0 15 15" width="100%" height="30px" preserveAspectRatio="xMaxYMin meet">
         <g id="arrow_out" transform="scale(0.3 0.3)">
          <a xlink:href="GPUTPCCFPeakFinder_8h__dep__incl_org.svg" target="_base">
           <rect id="button" ry="5" rx="5" y="6" x="6" height="38" width="38"
                fill="#f2f5e9" fill-opacity="0.5" stroke="#606060" stroke-width="1.0"/>
           <path id="arrow"
             d="M 11.500037,31.436501 C 11.940474,20.09759 22.043105,11.32322 32.158766,21.979434 L 37.068811,17.246167 C 37.068811,17.246167 37.088388,32 37.088388,32 L 22.160133,31.978069 C 22.160133,31.978069 26.997745,27.140456 26.997745,27.140456 C 18.528582,18.264221 13.291696,25.230495 11.500037,31.436501 z"
             style="fill:#404040;"/>
          </a>
         </g>
        </svg>
</svg>
