<?xml version="1.0" encoding="UTF-8" standalone="no"?>
<!DOCTYPE svg PUBLIC "-//W3C//DTD SVG 1.1//EN"
 "http://www.w3.org/Graphics/SVG/1.1/DTD/svg11.dtd">
<!-- Generated by graphviz version 2.40.1 (20161225.0304)
 -->
<!-- Title: /home/runner/work/AliceO2/AliceO2/Utilities/Tools/cpulimit/process_group.h Pages: 1 -->
<svg width="211pt" height="162pt"
 viewBox="0.00 0.00 211.00 162.00" xmlns="http://www.w3.org/2000/svg" xmlns:xlink="http://www.w3.org/1999/xlink">
<g id="graph0" class="graph" transform="scale(1 1) rotate(0) translate(4 158)">
<title>/home/runner/work/AliceO2/AliceO2/Utilities/Tools/cpulimit/process_group.h</title>
<!-- Node0 -->
<g id="node1" class="node">
<title>Node0</title>
<polygon fill="#bfbfbf" stroke="#000000" points="68,-112.5 68,-153.5 203,-153.5 203,-112.5 68,-112.5"/>
<text text-anchor="start" x="76" y="-141.5" font-family="Helvetica,sans-Serif" font-size="10.00" fill="#000000">/home/runner/work/AliceO2</text>
<text text-anchor="start" x="76" y="-130.5" font-family="Helvetica,sans-Serif" font-size="10.00" fill="#000000">/AliceO2/Utilities/Tools</text>
<text text-anchor="middle" x="135.5" y="-119.5" font-family="Helvetica,sans-Serif" font-size="10.00" fill="#000000">/cpulimit/process_group.h</text>
</g>
<!-- Node1 -->
<g id="node2" class="node">
<title>Node1</title>
<g id="a_node2"><a xlink:href="../../d1/dcd/process__iterator_8h.html" target="_top" xlink:title="process_iterator.h">
<polygon fill="none" stroke="#000000" points="46,-56.5 46,-75.5 141,-75.5 141,-56.5 46,-56.5"/>
<text text-anchor="middle" x="93.5" y="-63.5" font-family="Helvetica,sans-Serif" font-size="10.00" fill="#000000">process_iterator.h</text>
</a>
</g>
</g>
<!-- Node0&#45;&gt;Node1 -->
<g id="edge1" class="edge">
<title>Node0&#45;&gt;Node1</title>
<path fill="none" stroke="#191970" d="M122.4412,-112.168C116.853,-103.2536 110.385,-92.9356 104.9827,-84.3177"/>
<polygon fill="#191970" stroke="#191970" points="107.9079,-82.3944 99.631,-75.7805 101.9769,-86.1123 107.9079,-82.3944"/>
</g>
<!-- Node5 -->
<g id="node6" class="node">
<title>Node5</title>
<g id="a_node6"><a xlink:href="../../da/d23/list_8h.html" target="_top" xlink:title="list.h">
<polygon fill="none" stroke="#000000" points="159.5,-56.5 159.5,-75.5 197.5,-75.5 197.5,-56.5 159.5,-56.5"/>
<text text-anchor="middle" x="178.5" y="-63.5" font-family="Helvetica,sans-Serif" font-size="10.00" fill="#000000">list.h</text>
</a>
</g>
</g>
<!-- Node0&#45;&gt;Node5 -->
<g id="edge5" class="edge">
<title>Node0&#45;&gt;Node5</title>
<path fill="none" stroke="#191970" d="M148.8698,-112.168C154.591,-103.2536 161.213,-92.9356 166.7439,-84.3177"/>
<polygon fill="#191970" stroke="#191970" points="169.7673,-86.0868 172.223,-75.7805 163.8762,-82.3059 169.7673,-86.0868"/>
</g>
<!-- Node2 -->
<g id="node3" class="node">
<title>Node2</title>
<polygon fill="none" stroke="#bfbfbf" points="0,-.5 0,-19.5 51,-19.5 51,-.5 0,-.5"/>
<text text-anchor="middle" x="25.5" y="-7.5" font-family="Helvetica,sans-Serif" font-size="10.00" fill="#000000">unistd.h</text>
</g>
<!-- Node1&#45;&gt;Node2 -->
<g id="edge2" class="edge">
<title>Node1&#45;&gt;Node2</title>
<path fill="none" stroke="#191970" d="M81.6553,-56.2455C71.612,-47.9746 57.0005,-35.9416 45.1996,-26.2232"/>
<polygon fill="#191970" stroke="#191970" points="47.1533,-23.298 37.209,-19.6427 42.7033,-28.7015 47.1533,-23.298"/>
</g>
<!-- Node3 -->
<g id="node4" class="node">
<title>Node3</title>
<polygon fill="none" stroke="#bfbfbf" points="69.5,-.5 69.5,-19.5 117.5,-19.5 117.5,-.5 69.5,-.5"/>
<text text-anchor="middle" x="93.5" y="-7.5" font-family="Helvetica,sans-Serif" font-size="10.00" fill="#000000">limits.h</text>
</g>
<!-- Node1&#45;&gt;Node3 -->
<g id="edge3" class="edge">
<title>Node1&#45;&gt;Node3</title>
<path fill="none" stroke="#191970" d="M93.5,-56.2455C93.5,-48.9382 93.5,-38.6944 93.5,-29.7046"/>
<polygon fill="#191970" stroke="#191970" points="97.0001,-29.6426 93.5,-19.6427 90.0001,-29.6427 97.0001,-29.6426"/>
</g>
<!-- Node4 -->
<g id="node5" class="node">
<title>Node4</title>
<polygon fill="none" stroke="#bfbfbf" points="136,-.5 136,-19.5 185,-19.5 185,-.5 136,-.5"/>
<text text-anchor="middle" x="160.5" y="-7.5" font-family="Helvetica,sans-Serif" font-size="10.00" fill="#000000">dirent.h</text>
</g>
<!-- Node1&#45;&gt;Node4 -->
<g id="edge4" class="edge">
<title>Node1&#45;&gt;Node4</title>
<path fill="none" stroke="#191970" d="M105.1705,-56.2455C115.0661,-47.9746 129.4627,-35.9416 141.0901,-26.2232"/>
<polygon fill="#191970" stroke="#191970" points="143.535,-28.7413 148.9632,-19.6427 139.0458,-23.3703 143.535,-28.7413"/>
</g>
</g>
</svg>
