<?xml version="1.0" encoding="UTF-8" standalone="no"?>
<!DOCTYPE svg PUBLIC "-//W3C//DTD SVG 1.1//EN"
 "http://www.w3.org/Graphics/SVG/1.1/DTD/svg11.dtd">
<!-- Generated by graphviz version 2.40.1 (20161225.0304)
 -->
<!-- Title: /home/runner/work/AliceO2/AliceO2/GPU/GPUTracking/Standalone/display/GPUDisplayBackendX11.h Pages: 1 -->
<svg width="510pt" height="218pt"
 viewBox="0.00 0.00 509.50 218.00" xmlns="http://www.w3.org/2000/svg" xmlns:xlink="http://www.w3.org/1999/xlink">
<g id="graph0" class="graph" transform="scale(1 1) rotate(0) translate(4 214)">
<title>/home/runner/work/AliceO2/AliceO2/GPU/GPUTracking/Standalone/display/GPUDisplayBackendX11.h</title>
<!-- Node0 -->
<g id="node1" class="node">
<title>Node0</title>
<polygon fill="#bfbfbf" stroke="#000000" points="207,-168.5 207,-209.5 431,-209.5 431,-168.5 207,-168.5"/>
<text text-anchor="start" x="215" y="-197.5" font-family="Helvetica,sans-Serif" font-size="10.00" fill="#000000">/home/runner/work/AliceO2</text>
<text text-anchor="start" x="215" y="-186.5" font-family="Helvetica,sans-Serif" font-size="10.00" fill="#000000">/AliceO2/GPU/GPUTracking</text>
<text text-anchor="middle" x="319" y="-175.5" font-family="Helvetica,sans-Serif" font-size="10.00" fill="#000000">/Standalone/display/GPUDisplayBackendX11.h</text>
</g>
<!-- Node1 -->
<g id="node2" class="node">
<title>Node1</title>
<g id="a_node2"><a xlink:href="../../d7/dba/GPUDisplayBackend_8h.html" target="_top" xlink:title="GPUDisplayBackend.h">
<polygon fill="none" stroke="#000000" points="83,-112.5 83,-131.5 201,-131.5 201,-112.5 83,-112.5"/>
<text text-anchor="middle" x="142" y="-119.5" font-family="Helvetica,sans-Serif" font-size="10.00" fill="#000000">GPUDisplayBackend.h</text>
</a>
</g>
</g>
<!-- Node0&#45;&gt;Node1 -->
<g id="edge1" class="edge">
<title>Node0&#45;&gt;Node1</title>
<path fill="none" stroke="#191970" d="M264.4499,-168.3511C235.9341,-157.557 201.8755,-144.6647 176.9256,-135.2204"/>
<polygon fill="#191970" stroke="#191970" points="178.097,-131.9215 167.5055,-131.6546 175.6188,-138.4682 178.097,-131.9215"/>
</g>
<!-- Node5 -->
<g id="node6" class="node">
<title>Node5</title>
<polygon fill="none" stroke="#bfbfbf" points="219.5,-112.5 219.5,-131.5 272.5,-131.5 272.5,-112.5 219.5,-112.5"/>
<text text-anchor="middle" x="246" y="-119.5" font-family="Helvetica,sans-Serif" font-size="10.00" fill="#000000">GL/glx.h</text>
</g>
<!-- Node0&#45;&gt;Node5 -->
<g id="edge5" class="edge">
<title>Node0&#45;&gt;Node5</title>
<path fill="none" stroke="#191970" d="M296.3025,-168.168C285.9698,-158.6846 273.9064,-147.6127 264.1836,-138.689"/>
<polygon fill="#191970" stroke="#191970" points="266.3904,-135.9637 256.6563,-131.7805 261.6571,-141.1209 266.3904,-135.9637"/>
</g>
<!-- Node6 -->
<g id="node7" class="node">
<title>Node6</title>
<polygon fill="none" stroke="#bfbfbf" points="290.5,-112.5 290.5,-131.5 347.5,-131.5 347.5,-112.5 290.5,-112.5"/>
<text text-anchor="middle" x="319" y="-119.5" font-family="Helvetica,sans-Serif" font-size="10.00" fill="#000000">pthread.h</text>
</g>
<!-- Node0&#45;&gt;Node6 -->
<g id="edge6" class="edge">
<title>Node0&#45;&gt;Node6</title>
<path fill="none" stroke="#191970" d="M319,-168.168C319,-159.8226 319,-150.2471 319,-141.9879"/>
<polygon fill="#191970" stroke="#191970" points="322.5001,-141.7804 319,-131.7805 315.5001,-141.7805 322.5001,-141.7804"/>
</g>
<!-- Node7 -->
<g id="node8" class="node">
<title>Node7</title>
<polygon fill="none" stroke="#bfbfbf" points="365.5,-112.5 365.5,-131.5 416.5,-131.5 416.5,-112.5 365.5,-112.5"/>
<text text-anchor="middle" x="391" y="-119.5" font-family="Helvetica,sans-Serif" font-size="10.00" fill="#000000">unistd.h</text>
</g>
<!-- Node0&#45;&gt;Node7 -->
<g id="edge7" class="edge">
<title>Node0&#45;&gt;Node7</title>
<path fill="none" stroke="#191970" d="M341.3866,-168.168C351.5778,-158.6846 363.4759,-147.6127 373.0655,-138.689"/>
<polygon fill="#191970" stroke="#191970" points="375.5532,-141.1551 380.4896,-131.7805 370.7846,-136.0306 375.5532,-141.1551"/>
</g>
<!-- Node8 -->
<g id="node9" class="node">
<title>Node8</title>
<polygon fill="none" stroke="#bfbfbf" points="434.5,-112.5 434.5,-131.5 501.5,-131.5 501.5,-112.5 434.5,-112.5"/>
<text text-anchor="middle" x="468" y="-119.5" font-family="Helvetica,sans-Serif" font-size="10.00" fill="#000000">GL/glxext.h</text>
</g>
<!-- Node0&#45;&gt;Node8 -->
<g id="edge8" class="edge">
<title>Node0&#45;&gt;Node8</title>
<path fill="none" stroke="#191970" d="M364.9207,-168.3511C388.3945,-157.7958 416.33,-145.2342 437.1942,-135.8523"/>
<polygon fill="#191970" stroke="#191970" points="438.8443,-138.9479 446.5292,-131.6546 435.9735,-132.5637 438.8443,-138.9479"/>
</g>
<!-- Node2 -->
<g id="node3" class="node">
<title>Node2</title>
<g id="a_node3"><a xlink:href="../../df/d21/GPUCommonDef_8h.html" target="_top" xlink:title="GPUCommonDef.h">
<polygon fill="none" stroke="#000000" points="91,-56.5 91,-75.5 193,-75.5 193,-56.5 91,-56.5"/>
<text text-anchor="middle" x="142" y="-63.5" font-family="Helvetica,sans-Serif" font-size="10.00" fill="#000000">GPUCommonDef.h</text>
</a>
</g>
</g>
<!-- Node1&#45;&gt;Node2 -->
<g id="edge2" class="edge">
<title>Node1&#45;&gt;Node2</title>
<path fill="none" stroke="#191970" d="M142,-112.2455C142,-104.9382 142,-94.6944 142,-85.7046"/>
<polygon fill="#191970" stroke="#191970" points="145.5001,-85.6426 142,-75.6427 138.5001,-85.6427 145.5001,-85.6426"/>
</g>
<!-- Node3 -->
<g id="node4" class="node">
<title>Node3</title>
<g id="a_node4"><a xlink:href="../../d5/d93/GPUCommonDefSettings_8h.html" target="_top" xlink:title="GPUCommonDefSettings.h">
<polygon fill="none" stroke="#000000" points="0,-.5 0,-19.5 138,-19.5 138,-.5 0,-.5"/>
<text text-anchor="middle" x="69" y="-7.5" font-family="Helvetica,sans-Serif" font-size="10.00" fill="#000000">GPUCommonDefSettings.h</text>
</a>
</g>
</g>
<!-- Node2&#45;&gt;Node3 -->
<g id="edge3" class="edge">
<title>Node2&#45;&gt;Node3</title>
<path fill="none" stroke="#191970" d="M129.2844,-56.2455C118.398,-47.8943 102.5117,-35.7076 89.78,-25.9408"/>
<polygon fill="#191970" stroke="#191970" points="91.6346,-22.9523 81.5699,-19.6427 87.3739,-28.5063 91.6346,-22.9523"/>
</g>
<!-- Node4 -->
<g id="node5" class="node">
<title>Node4</title>
<g id="a_node5"><a xlink:href="../../da/d5a/GPUCommonDefAPI_8h.html" target="_top" xlink:title="GPUCommonDefAPI.h">
<polygon fill="none" stroke="#000000" points="156.5,-.5 156.5,-19.5 275.5,-19.5 275.5,-.5 156.5,-.5"/>
<text text-anchor="middle" x="216" y="-7.5" font-family="Helvetica,sans-Serif" font-size="10.00" fill="#000000">GPUCommonDefAPI.h</text>
</a>
</g>
</g>
<!-- Node2&#45;&gt;Node4 -->
<g id="edge4" class="edge">
<title>Node2&#45;&gt;Node4</title>
<path fill="none" stroke="#191970" d="M154.8898,-56.2455C165.9254,-47.8943 182.0292,-35.7076 194.9353,-25.9408"/>
<polygon fill="#191970" stroke="#191970" points="197.3959,-28.4681 203.2579,-19.6427 193.1717,-22.8862 197.3959,-28.4681"/>
</g>
</g>
</svg>
