<?xml version="1.0" encoding="UTF-8" standalone="no"?>
<!DOCTYPE svg PUBLIC "-//W3C//DTD SVG 1.1//EN"
 "http://www.w3.org/Graphics/SVG/1.1/DTD/svg11.dtd">
<!-- Generated by graphviz version 2.40.1 (20161225.0304)
 -->
<!-- Title: /home/runner/work/AliceO2/AliceO2/DataFormats/Reconstruction/include/ReconstructionDataFormats/V0.h Pages: 1 -->
<!--zoomable 317 -->
<svg id="main" version="1.1" xmlns="http://www.w3.org/2000/svg" xmlns:xlink="http://www.w3.org/1999/xlink" xml:space="preserve" onload="init(evt)">
<style type="text/css"><![CDATA[
.edge:hover path { stroke: red; }
.edge:hover polygon { stroke: red; fill: red; }
]]></style>
<script type="text/javascript"><![CDATA[
var edges = document.getElementsByTagName('g');
if (edges && edges.length) {
  for (var i=0;i<edges.length;i++) {
    if (edges[i].id.substr(0,4)=='edge') {
      edges[i].setAttribute('class','edge');
    }
  }
}
]]></script>
        <defs>
                <circle id="rim" cx="0" cy="0" r="7"/>
                <circle id="rim2" cx="0" cy="0" r="3.5"/>
                <g id="zoomPlus">
                        <use xlink:href="#rim" fill="#404040">
                                <set attributeName="fill" to="#808080" begin="zoomplus.mouseover" end="zoomplus.mouseout"/>
                        </use>
                        <path d="M-4,0h8M0,-4v8" fill="none" stroke="white" stroke-width="1.5" pointer-events="none"/>
                </g>
                <g id="zoomMin">
                        <use xlink:href="#rim" fill="#404040">
                                <set attributeName="fill" to="#808080" begin="zoomminus.mouseover" end="zoomminus.mouseout"/>
                        </use>
                        <path d="M-4,0h8" fill="none" stroke="white" stroke-width="1.5" pointer-events="none"/>
                </g>
                <g id="dirArrow">
                        <path fill="none" stroke="white" stroke-width="1.5" d="M0,-3.0v7 M-2.5,-0.5L0,-3.0L2.5,-0.5"/>
                </g>
               <g id="resetDef">
                       <use xlink:href="#rim2" fill="#404040">
                               <set attributeName="fill" to="#808080" begin="reset.mouseover" end="reset.mouseout"/>
                       </use>
               </g>
        </defs>

<script type="text/javascript">
var viewWidth = 906;
var viewHeight = 317;
var sectionId = 'dynsection-1';
</script>
<script xlink:href="../../svgpan.js"/>
<svg id="graph" class="graph">
<g id="viewport">
<title>/home/runner/work/AliceO2/AliceO2/DataFormats/Reconstruction/include/ReconstructionDataFormats/V0.h</title>
<!-- Node64 -->
<g id="node1" class="node">
<title>Node64</title>
<polygon fill="#bfbfbf" stroke="#000000" points="315.5,-267.5 315.5,-308.5 515.5,-308.5 515.5,-267.5 315.5,-267.5"/>
<text text-anchor="start" x="323.5" y="-296.5" font-family="Helvetica,sans-Serif" font-size="10.00" fill="#000000">/home/runner/work/AliceO2</text>
<text text-anchor="start" x="323.5" y="-285.5" font-family="Helvetica,sans-Serif" font-size="10.00" fill="#000000">/AliceO2/DataFormats/Reconstruction</text>
<text text-anchor="middle" x="415.5" y="-274.5" font-family="Helvetica,sans-Serif" font-size="10.00" fill="#000000">/include/ReconstructionDataFormats/V0.h</text>
</g>
<!-- Node65 -->
<g id="node2" class="node">
<title>Node65</title>
<g id="a_node2"><a xlink:href="../../d1/d1b/V0_8cxx.html" target="_top" xlink:title="/home/runner/work/AliceO2\l/AliceO2/DataFormats/Reconstruction\l/src/V0.cxx">
<polygon fill="none" stroke="#000000" points="0,-184 0,-225 183,-225 183,-184 0,-184"/>
<text text-anchor="start" x="8" y="-213" font-family="Helvetica,sans-Serif" font-size="10.00" fill="#000000">/home/runner/work/AliceO2</text>
<text text-anchor="start" x="8" y="-202" font-family="Helvetica,sans-Serif" font-size="10.00" fill="#000000">/AliceO2/DataFormats/Reconstruction</text>
<text text-anchor="middle" x="91.5" y="-191" font-family="Helvetica,sans-Serif" font-size="10.00" fill="#000000">/src/V0.cxx</text>
</a>
</g>
</g>
<!-- Node64&#45;&gt;Node65 -->
<g id="edge1" class="edge">
<title>Node64&#45;&gt;Node65</title>
<path fill="none" stroke="#191970" d="M324.1671,-264.976C283.5244,-254.6745 235.0955,-242.3229 191.5,-231 184.112,-229.0811 176.4209,-227.069 168.731,-225.0475"/>
<polygon fill="#191970" stroke="#191970" points="323.5012,-268.4178 334.0545,-267.4806 325.2201,-261.6321 323.5012,-268.4178"/>
</g>
<!-- Node66 -->
<g id="node3" class="node">
<title>Node66</title>
<g id="a_node3"><a xlink:href="../../d9/d65/SecondaryVertexReaderSpec_8h.html" target="_top" xlink:title="/home/runner/work/AliceO2\l/AliceO2/Detectors/GlobalTracking\lWorkflow/include/GlobalTrackingWorkflow\l/SecondaryVertexReaderSpec.h">
<polygon fill="none" stroke="#000000" points="201,-178.5 201,-230.5 402,-230.5 402,-178.5 201,-178.5"/>
<text text-anchor="start" x="209" y="-218.5" font-family="Helvetica,sans-Serif" font-size="10.00" fill="#000000">/home/runner/work/AliceO2</text>
<text text-anchor="start" x="209" y="-207.5" font-family="Helvetica,sans-Serif" font-size="10.00" fill="#000000">/AliceO2/Detectors/GlobalTracking</text>
<text text-anchor="start" x="209" y="-196.5" font-family="Helvetica,sans-Serif" font-size="10.00" fill="#000000">Workflow/include/GlobalTrackingWorkflow</text>
<text text-anchor="middle" x="301.5" y="-185.5" font-family="Helvetica,sans-Serif" font-size="10.00" fill="#000000">/SecondaryVertexReaderSpec.h</text>
</a>
</g>
</g>
<!-- Node64&#45;&gt;Node66 -->
<g id="edge2" class="edge">
<title>Node64&#45;&gt;Node66</title>
<path fill="none" stroke="#191970" d="M379.2058,-261.4161C365.7519,-251.5617 350.5169,-240.4027 337.1233,-230.5925"/>
<polygon fill="#191970" stroke="#191970" points="377.1846,-264.2741 387.3202,-267.3595 381.321,-258.6269 377.1846,-264.2741"/>
</g>
<!-- Node69 -->
<g id="node6" class="node">
<title>Node69</title>
<g id="a_node6"><a xlink:href="../../d6/de6/SecondaryVertexWriterSpec_8cxx.html" target="_top" xlink:title="/home/runner/work/AliceO2\l/AliceO2/Detectors/GlobalTracking\lWorkflow/src/SecondaryVertexWriterSpec.cxx">
<polygon fill="none" stroke="#000000" points="420.5,-184 420.5,-225 640.5,-225 640.5,-184 420.5,-184"/>
<text text-anchor="start" x="428.5" y="-213" font-family="Helvetica,sans-Serif" font-size="10.00" fill="#000000">/home/runner/work/AliceO2</text>
<text text-anchor="start" x="428.5" y="-202" font-family="Helvetica,sans-Serif" font-size="10.00" fill="#000000">/AliceO2/Detectors/GlobalTracking</text>
<text text-anchor="middle" x="530.5" y="-191" font-family="Helvetica,sans-Serif" font-size="10.00" fill="#000000">Workflow/src/SecondaryVertexWriterSpec.cxx</text>
</a>
</g>
</g>
<!-- Node64&#45;&gt;Node69 -->
<g id="edge5" class="edge">
<title>Node64&#45;&gt;Node69</title>
<path fill="none" stroke="#191970" d="M452.1025,-261.4234C468.2419,-249.7048 486.9238,-236.1401 502.0015,-225.1924"/>
<polygon fill="#191970" stroke="#191970" points="449.9625,-258.6519 443.927,-267.3595 454.0753,-264.3162 449.9625,-258.6519"/>
</g>
<!-- Node70 -->
<g id="node7" class="node">
<title>Node70</title>
<g id="a_node7"><a xlink:href="../../db/dbe/SVertexer_8h.html" target="_top" xlink:title="Secondary vertex finder. ">
<polygon fill="none" stroke="#000000" points="658.5,-178.5 658.5,-230.5 802.5,-230.5 802.5,-178.5 658.5,-178.5"/>
<text text-anchor="start" x="666.5" y="-218.5" font-family="Helvetica,sans-Serif" font-size="10.00" fill="#000000">/home/runner/work/AliceO2</text>
<text text-anchor="start" x="666.5" y="-207.5" font-family="Helvetica,sans-Serif" font-size="10.00" fill="#000000">/AliceO2/Detectors/Vertexing</text>
<text text-anchor="start" x="666.5" y="-196.5" font-family="Helvetica,sans-Serif" font-size="10.00" fill="#000000">/include/DetectorsVertexing</text>
<text text-anchor="middle" x="730.5" y="-185.5" font-family="Helvetica,sans-Serif" font-size="10.00" fill="#000000">/SVertexer.h</text>
</a>
</g>
</g>
<!-- Node64&#45;&gt;Node70 -->
<g id="edge6" class="edge">
<title>Node64&#45;&gt;Node70</title>
<path fill="none" stroke="#191970" d="M516.5883,-265.1784C557.9765,-255.3674 606.2224,-243.3304 649.5,-231 652.3459,-230.1892 655.2416,-229.3433 658.1618,-228.4727"/>
<polygon fill="#191970" stroke="#191970" points="515.7016,-261.7914 506.7725,-267.4941 517.3089,-268.6044 515.7016,-261.7914"/>
</g>
<!-- Node67 -->
<g id="node4" class="node">
<title>Node67</title>
<g id="a_node4"><a xlink:href="../../d8/d27/secondary-vertex-reader-workflow_8cxx.html" target="_top" xlink:title="/home/runner/work/AliceO2\l/AliceO2/Detectors/GlobalTracking\lWorkflow/src/secondary&#45;vertex\l&#45;reader&#45;workflow.cxx">
<polygon fill="none" stroke="#000000" points="101.5,-89.5 101.5,-141.5 269.5,-141.5 269.5,-89.5 101.5,-89.5"/>
<text text-anchor="start" x="109.5" y="-129.5" font-family="Helvetica,sans-Serif" font-size="10.00" fill="#000000">/home/runner/work/AliceO2</text>
<text text-anchor="start" x="109.5" y="-118.5" font-family="Helvetica,sans-Serif" font-size="10.00" fill="#000000">/AliceO2/Detectors/GlobalTracking</text>
<text text-anchor="start" x="109.5" y="-107.5" font-family="Helvetica,sans-Serif" font-size="10.00" fill="#000000">Workflow/src/secondary&#45;vertex</text>
<text text-anchor="middle" x="185.5" y="-96.5" font-family="Helvetica,sans-Serif" font-size="10.00" fill="#000000">&#45;reader&#45;workflow.cxx</text>
</a>
</g>
</g>
<!-- Node66&#45;&gt;Node67 -->
<g id="edge3" class="edge">
<title>Node66&#45;&gt;Node67</title>
<path fill="none" stroke="#191970" d="M259.3312,-172.1463C246.2092,-162.0786 231.9164,-151.1126 219.4321,-141.5341"/>
<polygon fill="#191970" stroke="#191970" points="257.2592,-174.9681 267.3236,-178.2784 261.5202,-169.4144 257.2592,-174.9681"/>
</g>
<!-- Node68 -->
<g id="node5" class="node">
<title>Node68</title>
<g id="a_node5"><a xlink:href="../../d6/dad/SecondaryVertexReaderSpec_8cxx.html" target="_top" xlink:title="/home/runner/work/AliceO2\l/AliceO2/Detectors/GlobalTracking\lWorkflow/src/SecondaryVertexReaderSpec.cxx">
<polygon fill="none" stroke="#000000" points="288,-95 288,-136 513,-136 513,-95 288,-95"/>
<text text-anchor="start" x="296" y="-124" font-family="Helvetica,sans-Serif" font-size="10.00" fill="#000000">/home/runner/work/AliceO2</text>
<text text-anchor="start" x="296" y="-113" font-family="Helvetica,sans-Serif" font-size="10.00" fill="#000000">/AliceO2/Detectors/GlobalTracking</text>
<text text-anchor="middle" x="400.5" y="-102" font-family="Helvetica,sans-Serif" font-size="10.00" fill="#000000">Workflow/src/SecondaryVertexReaderSpec.cxx</text>
</a>
</g>
</g>
<!-- Node66&#45;&gt;Node68 -->
<g id="edge4" class="edge">
<title>Node66&#45;&gt;Node68</title>
<path fill="none" stroke="#191970" d="M338.2336,-171.4768C351.3893,-159.6501 365.8361,-146.6625 377.4996,-136.1771"/>
<polygon fill="#191970" stroke="#191970" points="335.7646,-168.9901 330.6678,-178.2784 340.4444,-174.1958 335.7646,-168.9901"/>
</g>
<!-- Node71 -->
<g id="node8" class="node">
<title>Node71</title>
<g id="a_node8"><a xlink:href="../../de/d21/SecondaryVertexingSpec_8h.html" target="_top" xlink:title="/home/runner/work/AliceO2\l/AliceO2/Detectors/GlobalTracking\lWorkflow/include/GlobalTrackingWorkflow\l/SecondaryVertexingSpec.h">
<polygon fill="none" stroke="#000000" points="534,-89.5 534,-141.5 735,-141.5 735,-89.5 534,-89.5"/>
<text text-anchor="start" x="542" y="-129.5" font-family="Helvetica,sans-Serif" font-size="10.00" fill="#000000">/home/runner/work/AliceO2</text>
<text text-anchor="start" x="542" y="-118.5" font-family="Helvetica,sans-Serif" font-size="10.00" fill="#000000">/AliceO2/Detectors/GlobalTracking</text>
<text text-anchor="start" x="542" y="-107.5" font-family="Helvetica,sans-Serif" font-size="10.00" fill="#000000">Workflow/include/GlobalTrackingWorkflow</text>
<text text-anchor="middle" x="634.5" y="-96.5" font-family="Helvetica,sans-Serif" font-size="10.00" fill="#000000">/SecondaryVertexingSpec.h</text>
</a>
</g>
</g>
<!-- Node70&#45;&gt;Node71 -->
<g id="edge7" class="edge">
<title>Node70&#45;&gt;Node71</title>
<path fill="none" stroke="#191970" d="M694.6774,-171.2894C684.0737,-161.459 672.6212,-150.8415 662.5818,-141.5341"/>
<polygon fill="#191970" stroke="#191970" points="692.5031,-174.0464 702.2161,-178.2784 697.2622,-168.9131 692.5031,-174.0464"/>
</g>
<!-- Node74 -->
<g id="node11" class="node">
<title>Node74</title>
<g id="a_node11"><a xlink:href="../../d4/d3b/SVertexer_8cxx.html" target="_top" xlink:title="Secondary vertex finder. ">
<polygon fill="none" stroke="#000000" points="753.5,-95 753.5,-136 897.5,-136 897.5,-95 753.5,-95"/>
<text text-anchor="start" x="761.5" y="-124" font-family="Helvetica,sans-Serif" font-size="10.00" fill="#000000">/home/runner/work/AliceO2</text>
<text text-anchor="start" x="761.5" y="-113" font-family="Helvetica,sans-Serif" font-size="10.00" fill="#000000">/AliceO2/Detectors/Vertexing</text>
<text text-anchor="middle" x="825.5" y="-102" font-family="Helvetica,sans-Serif" font-size="10.00" fill="#000000">/src/SVertexer.cxx</text>
</a>
</g>
</g>
<!-- Node70&#45;&gt;Node74 -->
<g id="edge10" class="edge">
<title>Node70&#45;&gt;Node74</title>
<path fill="none" stroke="#191970" d="M766.1037,-171.1449C778.6324,-159.4075 792.3413,-146.5645 803.4289,-136.1771"/>
<polygon fill="#191970" stroke="#191970" points="763.3942,-168.8873 758.4893,-178.2784 768.18,-173.9958 763.3942,-168.8873"/>
</g>
<!-- Node72 -->
<g id="node9" class="node">
<title>Node72</title>
<g id="a_node9"><a xlink:href="../../d9/d62/secondary-vertexing-workflow_8cxx.html" target="_top" xlink:title="/home/runner/work/AliceO2\l/AliceO2/Detectors/GlobalTracking\lWorkflow/src/secondary&#45;vertexing\l&#45;workflow.cxx">
<polygon fill="none" stroke="#000000" points="447.5,-.5 447.5,-52.5 615.5,-52.5 615.5,-.5 447.5,-.5"/>
<text text-anchor="start" x="455.5" y="-40.5" font-family="Helvetica,sans-Serif" font-size="10.00" fill="#000000">/home/runner/work/AliceO2</text>
<text text-anchor="start" x="455.5" y="-29.5" font-family="Helvetica,sans-Serif" font-size="10.00" fill="#000000">/AliceO2/Detectors/GlobalTracking</text>
<text text-anchor="start" x="455.5" y="-18.5" font-family="Helvetica,sans-Serif" font-size="10.00" fill="#000000">Workflow/src/secondary&#45;vertexing</text>
<text text-anchor="middle" x="531.5" y="-7.5" font-family="Helvetica,sans-Serif" font-size="10.00" fill="#000000">&#45;workflow.cxx</text>
</a>
</g>
</g>
<!-- Node71&#45;&gt;Node72 -->
<g id="edge8" class="edge">
<title>Node71&#45;&gt;Node72</title>
<path fill="none" stroke="#191970" d="M596.3964,-82.5755C584.9272,-72.6653 572.5054,-61.9319 561.6294,-52.5341"/>
<polygon fill="#191970" stroke="#191970" points="594.2987,-85.3886 604.1537,-89.2784 598.8754,-80.092 594.2987,-85.3886"/>
</g>
<!-- Node73 -->
<g id="node10" class="node">
<title>Node73</title>
<g id="a_node10"><a xlink:href="../../d9/dfc/SecondaryVertexingSpec_8cxx.html" target="_top" xlink:title="/home/runner/work/AliceO2\l/AliceO2/Detectors/GlobalTracking\lWorkflow/src/SecondaryVertexingSpec.cxx">
<polygon fill="none" stroke="#000000" points="633.5,-6 633.5,-47 839.5,-47 839.5,-6 633.5,-6"/>
<text text-anchor="start" x="641.5" y="-35" font-family="Helvetica,sans-Serif" font-size="10.00" fill="#000000">/home/runner/work/AliceO2</text>
<text text-anchor="start" x="641.5" y="-24" font-family="Helvetica,sans-Serif" font-size="10.00" fill="#000000">/AliceO2/Detectors/GlobalTracking</text>
<text text-anchor="middle" x="736.5" y="-13" font-family="Helvetica,sans-Serif" font-size="10.00" fill="#000000">Workflow/src/SecondaryVertexingSpec.cxx</text>
</a>
</g>
</g>
<!-- Node71&#45;&gt;Node73 -->
<g id="edge9" class="edge">
<title>Node71&#45;&gt;Node73</title>
<path fill="none" stroke="#191970" d="M672.3468,-82.4768C685.9011,-70.6501 700.7857,-57.6625 712.8026,-47.1771"/>
<polygon fill="#191970" stroke="#191970" points="669.7855,-80.0666 664.5517,-89.2784 674.3877,-85.341 669.7855,-80.0666"/>
</g>
</g>
</svg>
        <g id="navigator" transform="translate(0 0)" fill="#404254">
                <rect fill="#f2f5e9" fill-opacity="0.5" stroke="#606060" stroke-width=".5" x="0" y="0" width="60" height="60"/>
                <use id="zoomplus" xlink:href="#zoomPlus" x="17" y="9" onmousedown="handleZoom(evt,'in')"/>
                <use id="zoomminus" xlink:href="#zoomMin" x="42" y="9" onmousedown="handleZoom(evt,'out')"/>
                <use id="reset" xlink:href="#resetDef" x="30" y="36" onmousedown="handleReset()"/>
                <g id="arrowUp" xlink:href="#dirArrow" transform="translate(30 24)" onmousedown="handlePan(0,-1)">
                  <use xlink:href="#rim" fill="#404040">
                        <set attributeName="fill" to="#808080" begin="arrowUp.mouseover" end="arrowUp.mouseout"/>
                  </use>
                  <path fill="none" stroke="white" stroke-width="1.5" d="M0,-3.0v7 M-2.5,-0.5L0,-3.0L2.5,-0.5"/>
                </g>
                <g id="arrowRight" xlink:href="#dirArrow" transform="rotate(90) translate(36 -43)" onmousedown="handlePan(1,0)">
                  <use xlink:href="#rim" fill="#404040">
                        <set attributeName="fill" to="#808080" begin="arrowRight.mouseover" end="arrowRight.mouseout"/>
                  </use>
                  <path fill="none" stroke="white" stroke-width="1.5" d="M0,-3.0v7 M-2.5,-0.5L0,-3.0L2.5,-0.5"/>
                </g>
                <g id="arrowDown" xlink:href="#dirArrow" transform="rotate(180) translate(-30 -48)" onmousedown="handlePan(0,1)">
                  <use xlink:href="#rim" fill="#404040">
                        <set attributeName="fill" to="#808080" begin="arrowDown.mouseover" end="arrowDown.mouseout"/>
                  </use>
                  <path fill="none" stroke="white" stroke-width="1.5" d="M0,-3.0v7 M-2.5,-0.5L0,-3.0L2.5,-0.5"/>
                </g>
                <g id="arrowLeft" xlink:href="#dirArrow" transform="rotate(270) translate(-36 17)" onmousedown="handlePan(-1,0)">
                  <use xlink:href="#rim" fill="#404040">
                        <set attributeName="fill" to="#808080" begin="arrowLeft.mouseover" end="arrowLeft.mouseout"/>
                  </use>
                  <path fill="none" stroke="white" stroke-width="1.5" d="M0,-3.0v7 M-2.5,-0.5L0,-3.0L2.5,-0.5"/>
                </g>
        </g>
        <svg viewBox="0 0 15 15" width="100%" height="30px" preserveAspectRatio="xMaxYMin meet">
         <g id="arrow_out" transform="scale(0.3 0.3)">
          <a xlink:href="V0_8h__dep__incl_org.svg" target="_base">
           <rect id="button" ry="5" rx="5" y="6" x="6" height="38" width="38"
                fill="#f2f5e9" fill-opacity="0.5" stroke="#606060" stroke-width="1.0"/>
           <path id="arrow"
             d="M 11.500037,31.436501 C 11.940474,20.09759 22.043105,11.32322 32.158766,21.979434 L 37.068811,17.246167 C 37.068811,17.246167 37.088388,32 37.088388,32 L 22.160133,31.978069 C 22.160133,31.978069 26.997745,27.140456 26.997745,27.140456 C 18.528582,18.264221 13.291696,25.230495 11.500037,31.436501 z"
             style="fill:#404040;"/>
          </a>
         </g>
        </svg>
</svg>
