<?xml version="1.0" encoding="UTF-8" standalone="no"?>
<!DOCTYPE svg PUBLIC "-//W3C//DTD SVG 1.1//EN"
 "http://www.w3.org/Graphics/SVG/1.1/DTD/svg11.dtd">
<!-- Generated by graphviz version 2.40.1 (20161225.0304)
 -->
<!-- Title: /home/runner/work/AliceO2/AliceO2/Detectors/FIT/FT0/reconstruction/include/FT0Reconstruction/ReadRaw.h Pages: 1 -->
<svg width="1832pt" height="352pt"
 viewBox="0.00 0.00 1832.00 352.00" xmlns="http://www.w3.org/2000/svg" xmlns:xlink="http://www.w3.org/1999/xlink">
<g id="graph0" class="graph" transform="scale(1 1) rotate(0) translate(4 348)">
<title>/home/runner/work/AliceO2/AliceO2/Detectors/FIT/FT0/reconstruction/include/FT0Reconstruction/ReadRaw.h</title>
<!-- Node0 -->
<g id="node1" class="node">
<title>Node0</title>
<polygon fill="#bfbfbf" stroke="#000000" points="750,-291.5 750,-343.5 908,-343.5 908,-291.5 750,-291.5"/>
<text text-anchor="start" x="758" y="-331.5" font-family="Helvetica,sans-Serif" font-size="10.00" fill="#000000">/home/runner/work/AliceO2</text>
<text text-anchor="start" x="758" y="-320.5" font-family="Helvetica,sans-Serif" font-size="10.00" fill="#000000">/AliceO2/Detectors/FIT</text>
<text text-anchor="start" x="758" y="-309.5" font-family="Helvetica,sans-Serif" font-size="10.00" fill="#000000">/FT0/reconstruction/include</text>
<text text-anchor="middle" x="829" y="-298.5" font-family="Helvetica,sans-Serif" font-size="10.00" fill="#000000">/FT0Reconstruction/ReadRaw.h</text>
</g>
<!-- Node1 -->
<g id="node2" class="node">
<title>Node1</title>
<polygon fill="none" stroke="#bfbfbf" points="130.5,-235.5 130.5,-254.5 207.5,-254.5 207.5,-235.5 130.5,-235.5"/>
<text text-anchor="middle" x="169" y="-242.5" font-family="Helvetica,sans-Serif" font-size="10.00" fill="#000000">TStopwatch.h</text>
</g>
<!-- Node0&#45;&gt;Node1 -->
<g id="edge1" class="edge">
<title>Node0&#45;&gt;Node1</title>
<path fill="none" stroke="#191970" d="M749.9298,-312.0574C634.9327,-303.5572 414.7112,-285.0773 217.6687,-254.959"/>
<polygon fill="#191970" stroke="#191970" points="218.1263,-251.4883 207.7098,-253.4237 217.0597,-258.4066 218.1263,-251.4883"/>
</g>
<!-- Node2 -->
<g id="node3" class="node">
<title>Node2</title>
<polygon fill="none" stroke="#bfbfbf" points="226,-235.5 226,-254.5 264,-254.5 264,-235.5 226,-235.5"/>
<text text-anchor="middle" x="245" y="-242.5" font-family="Helvetica,sans-Serif" font-size="10.00" fill="#000000">array</text>
</g>
<!-- Node0&#45;&gt;Node2 -->
<g id="edge2" class="edge">
<title>Node0&#45;&gt;Node2</title>
<path fill="none" stroke="#191970" d="M749.8202,-313.0409C642.1469,-305.9528 443.9413,-289.2588 278,-255 276.7138,-254.7345 275.4058,-254.441 274.089,-254.1264"/>
<polygon fill="#191970" stroke="#191970" points="274.6105,-250.6418 264.0437,-251.4114 272.7841,-257.3993 274.6105,-250.6418"/>
</g>
<!-- Node3 -->
<g id="node4" class="node">
<title>Node3</title>
<polygon fill="none" stroke="#bfbfbf" points="249.5,-118 249.5,-137 290.5,-137 290.5,-118 249.5,-118"/>
<text text-anchor="middle" x="270" y="-125" font-family="Helvetica,sans-Serif" font-size="10.00" fill="#000000">bitset</text>
</g>
<!-- Node0&#45;&gt;Node3 -->
<g id="edge3" class="edge">
<title>Node0&#45;&gt;Node3</title>
<path fill="none" stroke="#191970" d="M749.5548,-312.7574C639.5544,-305.1035 447.4543,-287.4934 386,-255 337.2746,-229.2369 298.6175,-174.549 280.7622,-145.8916"/>
<polygon fill="#191970" stroke="#191970" points="283.6991,-143.9846 275.5199,-137.2503 277.7142,-147.6154 283.6991,-143.9846"/>
</g>
<!-- Node4 -->
<g id="node5" class="node">
<title>Node4</title>
<polygon fill="none" stroke="#bfbfbf" points="1618.5,-118 1618.5,-137 1667.5,-137 1667.5,-118 1618.5,-118"/>
<text text-anchor="middle" x="1643" y="-125" font-family="Helvetica,sans-Serif" font-size="10.00" fill="#000000">cassert</text>
</g>
<!-- Node0&#45;&gt;Node4 -->
<g id="edge4" class="edge">
<title>Node0&#45;&gt;Node4</title>
<path fill="none" stroke="#191970" d="M908.1289,-311.8944C1104.0245,-297.2119 1599.2501,-254.8727 1647,-199 1659.0755,-184.8703 1655.6831,-162.8594 1650.7705,-146.9911"/>
<polygon fill="#191970" stroke="#191970" points="1653.9285,-145.4227 1647.2981,-137.1591 1647.3281,-147.7539 1653.9285,-145.4227"/>
</g>
<!-- Node5 -->
<g id="node6" class="node">
<title>Node5</title>
<polygon fill="none" stroke="#bfbfbf" points="412,-235.5 412,-254.5 462,-254.5 462,-235.5 412,-235.5"/>
<text text-anchor="middle" x="437" y="-242.5" font-family="Helvetica,sans-Serif" font-size="10.00" fill="#000000">fstream</text>
</g>
<!-- Node0&#45;&gt;Node5 -->
<g id="edge5" class="edge">
<title>Node0&#45;&gt;Node5</title>
<path fill="none" stroke="#191970" d="M749.9133,-306.3244C679.3025,-295.7448 572.9744,-278.3363 471.9275,-255.0215"/>
<polygon fill="#191970" stroke="#191970" points="472.7,-251.6079 462.1666,-252.7469 471.1113,-258.4252 472.7,-251.6079"/>
</g>
<!-- Node6 -->
<g id="node7" class="node">
<title>Node6</title>
<polygon fill="none" stroke="#bfbfbf" points="1207,-118 1207,-137 1261,-137 1261,-118 1207,-118"/>
<text text-anchor="middle" x="1234" y="-125" font-family="Helvetica,sans-Serif" font-size="10.00" fill="#000000">iostream</text>
</g>
<!-- Node0&#45;&gt;Node6 -->
<g id="edge6" class="edge">
<title>Node0&#45;&gt;Node6</title>
<path fill="none" stroke="#191970" d="M865.0545,-291.4434C880.4699,-280.265 898.6477,-267.0333 915,-255 960.5336,-221.4927 965.3539,-201.9941 1017,-179 1091.5311,-145.8169 1118.9888,-166.8799 1197,-143 1199.1643,-142.3375 1201.3755,-141.5934 1203.5866,-140.799"/>
<polygon fill="#191970" stroke="#191970" points="1205.0799,-143.9739 1213.1359,-137.0926 1202.547,-137.4482 1205.0799,-143.9739"/>
</g>
<!-- Node7 -->
<g id="node8" class="node">
<title>Node7</title>
<polygon fill="none" stroke="#bfbfbf" points="669.5,-235.5 669.5,-254.5 704.5,-254.5 704.5,-235.5 669.5,-235.5"/>
<text text-anchor="middle" x="687" y="-242.5" font-family="Helvetica,sans-Serif" font-size="10.00" fill="#000000">map</text>
</g>
<!-- Node0&#45;&gt;Node7 -->
<g id="edge7" class="edge">
<title>Node0&#45;&gt;Node7</title>
<path fill="none" stroke="#191970" d="M777.7347,-291.3258C756.1514,-280.3062 731.9251,-267.9371 713.9381,-258.7536"/>
<polygon fill="#191970" stroke="#191970" points="715.1415,-255.4383 704.6437,-254.0082 711.9584,-261.6727 715.1415,-255.4383"/>
</g>
<!-- Node8 -->
<g id="node9" class="node">
<title>Node8</title>
<polygon fill="none" stroke="#bfbfbf" points="722.5,-235.5 722.5,-254.5 763.5,-254.5 763.5,-235.5 722.5,-235.5"/>
<text text-anchor="middle" x="743" y="-242.5" font-family="Helvetica,sans-Serif" font-size="10.00" fill="#000000">string</text>
</g>
<!-- Node0&#45;&gt;Node8 -->
<g id="edge8" class="edge">
<title>Node0&#45;&gt;Node8</title>
<path fill="none" stroke="#191970" d="M797.952,-291.3258C785.9554,-281.2124 772.6106,-269.9624 762.076,-261.0815"/>
<polygon fill="#191970" stroke="#191970" points="764.2109,-258.3035 754.3093,-254.534 759.6991,-263.6555 764.2109,-258.3035"/>
</g>
<!-- Node9 -->
<g id="node10" class="node">
<title>Node9</title>
<polygon fill="none" stroke="#bfbfbf" points="782,-235.5 782,-254.5 826,-254.5 826,-235.5 782,-235.5"/>
<text text-anchor="middle" x="804" y="-242.5" font-family="Helvetica,sans-Serif" font-size="10.00" fill="#000000">vector</text>
</g>
<!-- Node0&#45;&gt;Node9 -->
<g id="edge9" class="edge">
<title>Node0&#45;&gt;Node9</title>
<path fill="none" stroke="#191970" d="M819.9744,-291.3258C816.8669,-282.3139 813.4481,-272.3995 810.5734,-264.063"/>
<polygon fill="#191970" stroke="#191970" points="813.8564,-262.8467 807.2876,-254.534 807.2388,-265.1287 813.8564,-262.8467"/>
</g>
<!-- Node10 -->
<g id="node11" class="node">
<title>Node10</title>
<g id="a_node11"><a xlink:href="../../d9/d80/InteractionRecord_8h.html" target="_top" xlink:title="CommonDataFormat/Interaction\lRecord.h">
<polygon fill="none" stroke="#000000" points="1031.5,-112.5 1031.5,-142.5 1188.5,-142.5 1188.5,-112.5 1031.5,-112.5"/>
<text text-anchor="start" x="1039.5" y="-130.5" font-family="Helvetica,sans-Serif" font-size="10.00" fill="#000000">CommonDataFormat/Interaction</text>
<text text-anchor="middle" x="1110" y="-119.5" font-family="Helvetica,sans-Serif" font-size="10.00" fill="#000000">Record.h</text>
</a>
</g>
</g>
<!-- Node0&#45;&gt;Node10 -->
<g id="edge10" class="edge">
<title>Node0&#45;&gt;Node10</title>
<path fill="none" stroke="#191970" d="M852.8734,-291.3154C881.6005,-261.0342 932.4363,-211.2291 984,-179 1005.2092,-165.7435 1030.4178,-154.6457 1052.6937,-146.1875"/>
<polygon fill="#191970" stroke="#191970" points="1054.2041,-149.3606 1062.3678,-142.6075 1051.7747,-142.7956 1054.2041,-149.3606"/>
</g>
<!-- Node17 -->
<g id="node18" class="node">
<title>Node17</title>
<g id="a_node18"><a xlink:href="../../d0/d0a/DataFormats_2Detectors_2FIT_2FT0_2include_2DataFormatsFT0_2Digit_8h.html" target="_top" xlink:title="DataFormatsFT0/Digit.h">
<polygon fill="none" stroke="#000000" points="704,-179.5 704,-198.5 826,-198.5 826,-179.5 704,-179.5"/>
<text text-anchor="middle" x="765" y="-186.5" font-family="Helvetica,sans-Serif" font-size="10.00" fill="#000000">DataFormatsFT0/Digit.h</text>
</a>
</g>
</g>
<!-- Node0&#45;&gt;Node17 -->
<g id="edge17" class="edge">
<title>Node0&#45;&gt;Node17</title>
<path fill="none" stroke="#191970" d="M837.8315,-291.4428C841.9997,-274.3984 844.2726,-252.189 835,-235 827.427,-220.9617 813.4927,-210.5084 800.0386,-203.1453"/>
<polygon fill="#191970" stroke="#191970" points="801.3906,-199.9074 790.885,-198.5353 798.242,-206.1593 801.3906,-199.9074"/>
</g>
<!-- Node23 -->
<g id="node24" class="node">
<title>Node23</title>
<g id="a_node24"><a xlink:href="../../dc/d44/FIT_2FT0_2include_2DataFormatsFT0_2ChannelData_8h.html" target="_top" xlink:title="DataFormatsFT0/ChannelData.h">
<polygon fill="none" stroke="#000000" points="308.5,-118 308.5,-137 467.5,-137 467.5,-118 308.5,-118"/>
<text text-anchor="middle" x="388" y="-125" font-family="Helvetica,sans-Serif" font-size="10.00" fill="#000000">DataFormatsFT0/ChannelData.h</text>
</a>
</g>
</g>
<!-- Node0&#45;&gt;Node23 -->
<g id="edge39" class="edge">
<title>Node0&#45;&gt;Node23</title>
<path fill="none" stroke="#191970" d="M749.6943,-311.0507C633.1472,-300.8074 426.7688,-279.4576 403,-255 375.1492,-226.342 378.9526,-175.2843 383.7321,-147.2611"/>
<polygon fill="#191970" stroke="#191970" points="387.2329,-147.5896 385.6829,-137.1087 380.3587,-146.2686 387.2329,-147.5896"/>
</g>
<!-- Node25 -->
<g id="node26" class="node">
<title>Node25</title>
<g id="a_node26"><a xlink:href="../../d5/d65/DigitsTemp_8h.html" target="_top" xlink:title="DataFormatsFT0/DigitsTemp.h">
<polygon fill="none" stroke="#000000" points="480,-235.5 480,-254.5 632,-254.5 632,-235.5 480,-235.5"/>
<text text-anchor="middle" x="556" y="-242.5" font-family="Helvetica,sans-Serif" font-size="10.00" fill="#000000">DataFormatsFT0/DigitsTemp.h</text>
</a>
</g>
</g>
<!-- Node0&#45;&gt;Node25 -->
<g id="edge32" class="edge">
<title>Node0&#45;&gt;Node25</title>
<path fill="none" stroke="#191970" d="M749.6704,-296.4326C701.6322,-283.6752 642.0637,-267.8557 601.7712,-257.1553"/>
<polygon fill="#191970" stroke="#191970" points="602.5247,-253.7342 591.9614,-254.5502 600.728,-260.4997 602.5247,-253.7342"/>
</g>
<!-- Node26 -->
<g id="node27" class="node">
<title>Node26</title>
<g id="a_node27"><a xlink:href="../../dd/d1f/FT0_2include_2DataFormatsFT0_2LookUpTable_8h.html" target="_top" xlink:title="DataFormatsFT0/LookUpTable.h">
<polygon fill="none" stroke="#000000" points="1478,-179.5 1478,-198.5 1638,-198.5 1638,-179.5 1478,-179.5"/>
<text text-anchor="middle" x="1558" y="-186.5" font-family="Helvetica,sans-Serif" font-size="10.00" fill="#000000">DataFormatsFT0/LookUpTable.h</text>
</a>
</g>
</g>
<!-- Node0&#45;&gt;Node26 -->
<g id="edge40" class="edge">
<title>Node0&#45;&gt;Node26</title>
<path fill="none" stroke="#191970" d="M908.0991,-306.1652C988.912,-294.3445 1117.9417,-274.8066 1229,-255 1326.0371,-237.694 1438.5214,-214.4334 1503.6453,-200.6491"/>
<polygon fill="#191970" stroke="#191970" points="1504.6248,-204.0193 1513.681,-198.5206 1503.1724,-197.1716 1504.6248,-204.0193"/>
</g>
<!-- Node28 -->
<g id="node29" class="node">
<title>Node28</title>
<g id="a_node29"><a xlink:href="../../d3/dcb/FT0_2include_2DataFormatsFT0_2RawEventData_8h.html" target="_top" xlink:title="DataFormatsFT0/RawEventData.h">
<polygon fill="none" stroke="#000000" points="1002.5,-235.5 1002.5,-254.5 1171.5,-254.5 1171.5,-235.5 1002.5,-235.5"/>
<text text-anchor="middle" x="1087" y="-242.5" font-family="Helvetica,sans-Serif" font-size="10.00" fill="#000000">DataFormatsFT0/RawEventData.h</text>
</a>
</g>
</g>
<!-- Node0&#45;&gt;Node28 -->
<g id="edge45" class="edge">
<title>Node0&#45;&gt;Node28</title>
<path fill="none" stroke="#191970" d="M908.1619,-295.2549C952.5717,-282.7754 1006.2938,-267.6791 1043.1943,-257.3098"/>
<polygon fill="#191970" stroke="#191970" points="1044.4541,-260.5914 1053.1343,-254.5165 1042.5603,-253.8524 1044.4541,-260.5914"/>
</g>
<!-- Node29 -->
<g id="node30" class="node">
<title>Node29</title>
<g id="a_node30"><a xlink:href="../../d4/dee/RAWDataHeader_8h.html" target="_top" xlink:title="Definition of the RAW Data Header. ">
<polygon fill="none" stroke="#000000" points="1318.5,-179.5 1318.5,-198.5 1459.5,-198.5 1459.5,-179.5 1318.5,-179.5"/>
<text text-anchor="middle" x="1389" y="-186.5" font-family="Helvetica,sans-Serif" font-size="10.00" fill="#000000">Headers/RAWDataHeader.h</text>
</a>
</g>
</g>
<!-- Node0&#45;&gt;Node29 -->
<g id="edge58" class="edge">
<title>Node0&#45;&gt;Node29</title>
<path fill="none" stroke="#191970" d="M908.0272,-306.4253C979.5704,-295.6916 1087.5862,-277.7178 1180,-255 1241.6159,-239.8532 1311.6376,-216.436 1352.9718,-201.9492"/>
<polygon fill="#191970" stroke="#191970" points="1354.3233,-205.1839 1362.5903,-198.5575 1351.9954,-198.5823 1354.3233,-205.1839"/>
</g>
<!-- Node34 -->
<g id="node35" class="node">
<title>Node34</title>
<polygon fill="none" stroke="#bfbfbf" points="1694,-235.5 1694,-254.5 1756,-254.5 1756,-235.5 1694,-235.5"/>
<text text-anchor="middle" x="1725" y="-242.5" font-family="Helvetica,sans-Serif" font-size="10.00" fill="#000000">TBranch.h</text>
</g>
<!-- Node0&#45;&gt;Node34 -->
<g id="edge59" class="edge">
<title>Node0&#45;&gt;Node34</title>
<path fill="none" stroke="#191970" d="M908.0263,-315.5286C1058.8493,-310.9198 1397.8622,-296.4845 1680,-255 1681.2471,-254.8166 1682.511,-254.618 1683.7851,-254.4066"/>
<polygon fill="#191970" stroke="#191970" points="1684.4425,-257.8445 1693.6369,-252.58 1683.1664,-250.9618 1684.4425,-257.8445"/>
</g>
<!-- Node35 -->
<g id="node36" class="node">
<title>Node35</title>
<polygon fill="none" stroke="#bfbfbf" points="1774,-235.5 1774,-254.5 1824,-254.5 1824,-235.5 1774,-235.5"/>
<text text-anchor="middle" x="1799" y="-242.5" font-family="Helvetica,sans-Serif" font-size="10.00" fill="#000000">TTree.h</text>
</g>
<!-- Node0&#45;&gt;Node35 -->
<g id="edge60" class="edge">
<title>Node0&#45;&gt;Node35</title>
<path fill="none" stroke="#191970" d="M908.2087,-314.448C1099.3587,-306.7293 1582.8707,-285.0077 1763.9539,-254.7747"/>
<polygon fill="#191970" stroke="#191970" points="1764.6409,-258.2079 1773.896,-253.0509 1763.445,-251.3108 1764.6409,-258.2079"/>
</g>
<!-- Node11 -->
<g id="node12" class="node">
<title>Node11</title>
<g id="a_node12"><a xlink:href="../../d2/d45/GPUCommonRtypes_8h.html" target="_top" xlink:title="GPUCommonRtypes.h">
<polygon fill="none" stroke="#000000" points="836,-56.5 836,-75.5 954,-75.5 954,-56.5 836,-56.5"/>
<text text-anchor="middle" x="895" y="-63.5" font-family="Helvetica,sans-Serif" font-size="10.00" fill="#000000">GPUCommonRtypes.h</text>
</a>
</g>
</g>
<!-- Node10&#45;&gt;Node11 -->
<g id="edge11" class="edge">
<title>Node10&#45;&gt;Node11</title>
<path fill="none" stroke="#191970" d="M1057.4051,-112.4554C1020.7451,-101.9689 972.44,-88.1515 938.0652,-78.3187"/>
<polygon fill="#191970" stroke="#191970" points="938.8944,-74.9155 928.3174,-75.5303 936.9692,-81.6456 938.8944,-74.9155"/>
</g>
<!-- Node13 -->
<g id="node14" class="node">
<title>Node13</title>
<polygon fill="none" stroke="#bfbfbf" points="761.5,-56.5 761.5,-75.5 806.5,-75.5 806.5,-56.5 761.5,-56.5"/>
<text text-anchor="middle" x="784" y="-63.5" font-family="Helvetica,sans-Serif" font-size="10.00" fill="#000000">iosfwd</text>
</g>
<!-- Node10&#45;&gt;Node13 -->
<g id="edge13" class="edge">
<title>Node10&#45;&gt;Node13</title>
<path fill="none" stroke="#191970" d="M1031.3138,-113.6216C961.5776,-101.2408 865.0815,-83.8883 827,-76 823.5945,-75.2946 820.0454,-74.5251 816.5105,-73.7363"/>
<polygon fill="#191970" stroke="#191970" points="817.2453,-70.3141 806.717,-71.4999 815.6868,-77.1384 817.2453,-70.3141"/>
</g>
<!-- Node14 -->
<g id="node15" class="node">
<title>Node14</title>
<polygon fill="none" stroke="#bfbfbf" points="1293,-56.5 1293,-75.5 1339,-75.5 1339,-56.5 1293,-56.5"/>
<text text-anchor="middle" x="1316" y="-63.5" font-family="Helvetica,sans-Serif" font-size="10.00" fill="#000000">cstdint</text>
</g>
<!-- Node10&#45;&gt;Node14 -->
<g id="edge14" class="edge">
<title>Node10&#45;&gt;Node14</title>
<path fill="none" stroke="#191970" d="M1160.3933,-112.4554C1198.6063,-101.0471 1250.0247,-85.6965 1283.097,-75.823"/>
<polygon fill="#191970" stroke="#191970" points="1284.156,-79.1595 1292.7369,-72.9451 1282.1535,-72.4521 1284.156,-79.1595"/>
</g>
<!-- Node15 -->
<g id="node16" class="node">
<title>Node15</title>
<polygon fill="none" stroke="#bfbfbf" points="1193,-56.5 1193,-75.5 1237,-75.5 1237,-56.5 1193,-56.5"/>
<text text-anchor="middle" x="1215" y="-63.5" font-family="Helvetica,sans-Serif" font-size="10.00" fill="#000000">cmath</text>
</g>
<!-- Node10&#45;&gt;Node15 -->
<g id="edge15" class="edge">
<title>Node10&#45;&gt;Node15</title>
<path fill="none" stroke="#191970" d="M1135.6859,-112.4554C1152.1297,-102.8241 1173.3708,-90.3828 1189.7323,-80.7996"/>
<polygon fill="#191970" stroke="#191970" points="1191.8688,-83.6045 1198.7287,-75.5303 1188.331,-77.5643 1191.8688,-83.6045"/>
</g>
<!-- Node16 -->
<g id="node17" class="node">
<title>Node16</title>
<g id="a_node17"><a xlink:href="../../d4/dc6/LHCConstants_8h.html" target="_top" xlink:title="Header to collect LHC related constants. ">
<polygon fill="none" stroke="#000000" points="997,-56.5 997,-75.5 1175,-75.5 1175,-56.5 997,-56.5"/>
<text text-anchor="middle" x="1086" y="-63.5" font-family="Helvetica,sans-Serif" font-size="10.00" fill="#000000">CommonConstants/LHCConstants.h</text>
</a>
</g>
</g>
<!-- Node10&#45;&gt;Node16 -->
<g id="edge16" class="edge">
<title>Node10&#45;&gt;Node16</title>
<path fill="none" stroke="#191970" d="M1104.0674,-112.2977C1100.8748,-104.1166 1096.9046,-93.943 1093.4996,-85.2179"/>
<polygon fill="#191970" stroke="#191970" points="1096.7387,-83.8903 1089.8427,-75.8469 1090.2177,-86.4351 1096.7387,-83.8903"/>
</g>
<!-- Node12 -->
<g id="node13" class="node">
<title>Node12</title>
<polygon fill="none" stroke="#bfbfbf" points="791,-.5 791,-19.5 847,-19.5 847,-.5 791,-.5"/>
<text text-anchor="middle" x="819" y="-7.5" font-family="Helvetica,sans-Serif" font-size="10.00" fill="#000000">Rtypes.h</text>
</g>
<!-- Node11&#45;&gt;Node12 -->
<g id="edge12" class="edge">
<title>Node11&#45;&gt;Node12</title>
<path fill="none" stroke="#191970" d="M881.7618,-56.2455C870.319,-47.814 853.5704,-35.4729 840.2525,-25.6598"/>
<polygon fill="#191970" stroke="#191970" points="842.2133,-22.757 832.0865,-19.6427 838.0609,-28.3924 842.2133,-22.757"/>
</g>
<!-- Node17&#45;&gt;Node3 -->
<g id="edge30" class="edge">
<title>Node17&#45;&gt;Node3</title>
<path fill="none" stroke="#191970" d="M703.6442,-185.9229C594.9626,-179.9784 373.0979,-165.4853 299,-143 297.5319,-142.5545 296.0524,-142.0317 294.5801,-141.4528"/>
<polygon fill="#191970" stroke="#191970" points="295.7058,-138.1151 285.1655,-137.0416 292.7358,-144.4538 295.7058,-138.1151"/>
</g>
<!-- Node17&#45;&gt;Node6 -->
<g id="edge31" class="edge">
<title>Node17&#45;&gt;Node6</title>
<path fill="none" stroke="#191970" d="M826.12,-184.6904C928.0724,-177.1335 1128.4214,-160.613 1197,-143 1199.479,-142.3633 1202.0087,-141.59 1204.5236,-140.7324"/>
<polygon fill="#191970" stroke="#191970" points="1205.9117,-143.9491 1214.0102,-137.1179 1203.4193,-137.4078 1205.9117,-143.9491"/>
</g>
<!-- Node17&#45;&gt;Node10 -->
<g id="edge18" class="edge">
<title>Node17&#45;&gt;Node10</title>
<path fill="none" stroke="#191970" d="M818.5277,-179.4581C872.6038,-169.8185 957.0929,-154.7574 1021.2123,-143.3274"/>
<polygon fill="#191970" stroke="#191970" points="1022.0899,-146.7262 1031.3204,-141.5255 1020.8614,-139.8348 1022.0899,-146.7262"/>
</g>
<!-- Node17&#45;&gt;Node12 -->
<g id="edge28" class="edge">
<title>Node17&#45;&gt;Node12</title>
<path fill="none" stroke="#191970" d="M757.8985,-179.3724C751.7948,-170.4569 743.4483,-156.5662 740,-143 730.3843,-105.1702 730.2799,-88.4313 752,-56 760.9948,-42.5695 775.3568,-31.9474 788.4809,-24.3097"/>
<polygon fill="#191970" stroke="#191970" points="790.1883,-27.3653 797.288,-19.5011 786.8337,-21.2214 790.1883,-27.3653"/>
</g>
<!-- Node18 -->
<g id="node19" class="node">
<title>Node18</title>
<g id="a_node19"><a xlink:href="../../de/d64/RangeReference_8h.html" target="_top" xlink:title="Class to refer to the 1st entry and N elements of some group in the continuous container. ">
<polygon fill="none" stroke="#000000" points="820.5,-118 820.5,-137 1013.5,-137 1013.5,-118 820.5,-118"/>
<text text-anchor="middle" x="917" y="-125" font-family="Helvetica,sans-Serif" font-size="10.00" fill="#000000">CommonDataFormat/RangeReference.h</text>
</a>
</g>
</g>
<!-- Node17&#45;&gt;Node18 -->
<g id="edge19" class="edge">
<title>Node17&#45;&gt;Node18</title>
<path fill="none" stroke="#191970" d="M788.75,-179.3906C814.2939,-169.0554 855.1009,-152.5447 883.811,-140.9284"/>
<polygon fill="#191970" stroke="#191970" points="885.4596,-144.0371 893.4168,-137.0419 882.834,-137.5481 885.4596,-144.0371"/>
</g>
<!-- Node19 -->
<g id="node20" class="node">
<title>Node19</title>
<g id="a_node20"><a xlink:href="../../df/d5d/common_2include_2CommonDataFormat_2TimeStamp_8h.html" target="_top" xlink:title="CommonDataFormat/TimeStamp.h">
<polygon fill="none" stroke="#000000" points="523,-118 523,-137 693,-137 693,-118 523,-118"/>
<text text-anchor="middle" x="608" y="-125" font-family="Helvetica,sans-Serif" font-size="10.00" fill="#000000">CommonDataFormat/TimeStamp.h</text>
</a>
</g>
</g>
<!-- Node17&#45;&gt;Node19 -->
<g id="edge21" class="edge">
<title>Node17&#45;&gt;Node19</title>
<path fill="none" stroke="#191970" d="M740.4688,-179.3906C713.9693,-169.0103 671.5669,-152.4004 641.893,-140.7766"/>
<polygon fill="#191970" stroke="#191970" points="642.9467,-137.4304 632.359,-137.0419 640.3935,-143.9482 642.9467,-137.4304"/>
</g>
<!-- Node17&#45;&gt;Node23 -->
<g id="edge26" class="edge">
<title>Node17&#45;&gt;Node23</title>
<path fill="none" stroke="#191970" d="M706.5074,-179.4581C638.9917,-168.4443 528.0911,-150.3531 456.5755,-138.6867"/>
<polygon fill="#191970" stroke="#191970" points="456.7527,-135.1694 446.3196,-137.0137 455.6256,-142.0781 456.7527,-135.1694"/>
</g>
<!-- Node24 -->
<g id="node25" class="node">
<title>Node24</title>
<polygon fill="none" stroke="#bfbfbf" points="749.5,-118 749.5,-137 802.5,-137 802.5,-118 749.5,-118"/>
<text text-anchor="middle" x="776" y="-125" font-family="Helvetica,sans-Serif" font-size="10.00" fill="#000000">gsl/span</text>
</g>
<!-- Node17&#45;&gt;Node24 -->
<g id="edge29" class="edge">
<title>Node17&#45;&gt;Node24</title>
<path fill="none" stroke="#191970" d="M766.7188,-179.3906C768.2435,-170.8657 770.5198,-158.1392 772.4364,-147.4235"/>
<polygon fill="#191970" stroke="#191970" points="775.9416,-147.7049 774.257,-137.2449 769.0509,-146.4724 775.9416,-147.7049"/>
</g>
<!-- Node18&#45;&gt;Node11 -->
<g id="edge20" class="edge">
<title>Node18&#45;&gt;Node11</title>
<path fill="none" stroke="#191970" d="M913.5625,-117.8906C910.4487,-109.1862 905.768,-96.1015 901.886,-85.2494"/>
<polygon fill="#191970" stroke="#191970" points="905.1497,-83.9817 898.486,-75.7449 898.5588,-86.3394 905.1497,-83.9817"/>
</g>
<!-- Node19&#45;&gt;Node11 -->
<g id="edge22" class="edge">
<title>Node19&#45;&gt;Node11</title>
<path fill="none" stroke="#191970" d="M652.5289,-117.9581C703.2207,-107.0956 786.0391,-89.3488 840.5349,-77.6711"/>
<polygon fill="#191970" stroke="#191970" points="841.322,-81.082 850.3667,-75.5643 839.8553,-74.2373 841.322,-81.082"/>
</g>
<!-- Node20 -->
<g id="node21" class="node">
<title>Node20</title>
<g id="a_node21"><a xlink:href="../../df/d21/GPUCommonDef_8h.html" target="_top" xlink:title="GPUCommonDef.h">
<polygon fill="none" stroke="#000000" points="91,-56.5 91,-75.5 193,-75.5 193,-56.5 91,-56.5"/>
<text text-anchor="middle" x="142" y="-63.5" font-family="Helvetica,sans-Serif" font-size="10.00" fill="#000000">GPUCommonDef.h</text>
</a>
</g>
</g>
<!-- Node19&#45;&gt;Node20 -->
<g id="edge23" class="edge">
<title>Node19&#45;&gt;Node20</title>
<path fill="none" stroke="#191970" d="M535.9539,-117.9918C444.7518,-105.9554 289.21,-85.4279 203.387,-74.1015"/>
<polygon fill="#191970" stroke="#191970" points="203.6474,-70.6056 193.2754,-72.767 202.7315,-77.5454 203.6474,-70.6056"/>
</g>
<!-- Node21 -->
<g id="node22" class="node">
<title>Node21</title>
<g id="a_node22"><a xlink:href="../../d5/d93/GPUCommonDefSettings_8h.html" target="_top" xlink:title="GPUCommonDefSettings.h">
<polygon fill="none" stroke="#000000" points="0,-.5 0,-19.5 138,-19.5 138,-.5 0,-.5"/>
<text text-anchor="middle" x="69" y="-7.5" font-family="Helvetica,sans-Serif" font-size="10.00" fill="#000000">GPUCommonDefSettings.h</text>
</a>
</g>
</g>
<!-- Node20&#45;&gt;Node21 -->
<g id="edge24" class="edge">
<title>Node20&#45;&gt;Node21</title>
<path fill="none" stroke="#191970" d="M129.2844,-56.2455C118.398,-47.8943 102.5117,-35.7076 89.78,-25.9408"/>
<polygon fill="#191970" stroke="#191970" points="91.6346,-22.9523 81.5699,-19.6427 87.3739,-28.5063 91.6346,-22.9523"/>
</g>
<!-- Node22 -->
<g id="node23" class="node">
<title>Node22</title>
<g id="a_node23"><a xlink:href="../../da/d5a/GPUCommonDefAPI_8h.html" target="_top" xlink:title="GPUCommonDefAPI.h">
<polygon fill="none" stroke="#000000" points="156.5,-.5 156.5,-19.5 275.5,-19.5 275.5,-.5 156.5,-.5"/>
<text text-anchor="middle" x="216" y="-7.5" font-family="Helvetica,sans-Serif" font-size="10.00" fill="#000000">GPUCommonDefAPI.h</text>
</a>
</g>
</g>
<!-- Node20&#45;&gt;Node22 -->
<g id="edge25" class="edge">
<title>Node20&#45;&gt;Node22</title>
<path fill="none" stroke="#191970" d="M154.8898,-56.2455C165.9254,-47.8943 182.0292,-35.7076 194.9353,-25.9408"/>
<polygon fill="#191970" stroke="#191970" points="197.3959,-28.4681 203.2579,-19.6427 193.1717,-22.8862 197.3959,-28.4681"/>
</g>
<!-- Node23&#45;&gt;Node12 -->
<g id="edge27" class="edge">
<title>Node23&#45;&gt;Node12</title>
<path fill="none" stroke="#191970" d="M422.9055,-117.984C502.8389,-96.1924 698.6165,-42.8192 781.2352,-20.2955"/>
<polygon fill="#191970" stroke="#191970" points="782.2386,-23.6498 790.9659,-17.6427 780.3974,-16.8962 782.2386,-23.6498"/>
</g>
<!-- Node25&#45;&gt;Node10 -->
<g id="edge33" class="edge">
<title>Node25&#45;&gt;Node10</title>
<path fill="none" stroke="#191970" d="M632.1807,-238.0923C689.0039,-231.5893 768.0391,-219.6679 835,-199 855.1397,-192.7838 858.039,-185.768 878,-179 904.8062,-169.911 969.5243,-155.7706 1023.8138,-144.6046"/>
<polygon fill="#191970" stroke="#191970" points="1024.7233,-147.991 1033.818,-142.5561 1023.3191,-141.1333 1024.7233,-147.991"/>
</g>
<!-- Node25&#45;&gt;Node12 -->
<g id="edge38" class="edge">
<title>Node25&#45;&gt;Node12</title>
<path fill="none" stroke="#191970" d="M502.1463,-235.4443C420.3985,-219.7196 271.1731,-185.819 240,-143 231.8909,-131.8614 231.143,-122.5537 240,-112 309.7431,-28.8966 662.9196,-13.4758 780.7067,-10.6354"/>
<polygon fill="#191970" stroke="#191970" points="780.795,-14.1344 790.7141,-10.4111 780.6381,-7.1362 780.795,-14.1344"/>
</g>
<!-- Node25&#45;&gt;Node13 -->
<g id="edge37" class="edge">
<title>Node25&#45;&gt;Node13</title>
<path fill="none" stroke="#191970" d="M547.5615,-235.4391C527.7268,-211.7916 482.1389,-149.7484 514,-112 529.1749,-94.0211 682.2587,-76.3479 750.9486,-69.2533"/>
<polygon fill="#191970" stroke="#191970" points="751.6207,-72.703 761.2143,-68.2071 750.9109,-65.7391 751.6207,-72.703"/>
</g>
<!-- Node25&#45;&gt;Node17 -->
<g id="edge35" class="edge">
<title>Node25&#45;&gt;Node17</title>
<path fill="none" stroke="#191970" d="M591.9284,-235.3733C627.2837,-225.9001 681.388,-211.4032 719.6788,-201.1435"/>
<polygon fill="#191970" stroke="#191970" points="720.787,-204.4701 729.5405,-198.5011 718.9753,-197.7086 720.787,-204.4701"/>
</g>
<!-- Node25&#45;&gt;Node19 -->
<g id="edge34" class="edge">
<title>Node25&#45;&gt;Node19</title>
<path fill="none" stroke="#191970" d="M560.2554,-235.3845C568.8255,-216.0192 588.3039,-172.0055 599.5543,-146.584"/>
<polygon fill="#191970" stroke="#191970" points="602.8394,-147.8094 603.6858,-137.2484 596.4382,-144.9765 602.8394,-147.8094"/>
</g>
<!-- Node25&#45;&gt;Node23 -->
<g id="edge36" class="edge">
<title>Node25&#45;&gt;Node23</title>
<path fill="none" stroke="#191970" d="M542.2519,-235.3845C513.21,-215.0724 445.396,-167.6431 410.153,-142.9939"/>
<polygon fill="#191970" stroke="#191970" points="412.1387,-140.1117 401.9381,-137.2484 408.1268,-145.8479 412.1387,-140.1117"/>
</g>
<!-- Node26&#45;&gt;Node4 -->
<g id="edge42" class="edge">
<title>Node26&#45;&gt;Node4</title>
<path fill="none" stroke="#191970" d="M1571.2813,-179.3906C1584.7548,-169.6421 1605.822,-154.3994 1621.6435,-142.9521"/>
<polygon fill="#191970" stroke="#191970" points="1623.7619,-145.7394 1629.812,-137.0419 1619.6586,-140.0682 1623.7619,-145.7394"/>
</g>
<!-- Node26&#45;&gt;Node6 -->
<g id="edge43" class="edge">
<title>Node26&#45;&gt;Node6</title>
<path fill="none" stroke="#191970" d="M1486.23,-179.4828C1414.7959,-169.6532 1310.3072,-154.2101 1271,-143 1268.6831,-142.3392 1266.3167,-141.574 1263.9566,-140.7446"/>
<polygon fill="#191970" stroke="#191970" points="1265.0218,-137.4043 1254.432,-137.0772 1262.5064,-143.9368 1265.0218,-137.4043"/>
</g>
<!-- Node26&#45;&gt;Node12 -->
<g id="edge41" class="edge">
<title>Node26&#45;&gt;Node12</title>
<path fill="none" stroke="#191970" d="M1551.6106,-179.3454C1534.0484,-153.7488 1482.1298,-84.1867 1419,-56 1367.8446,-33.1597 981.1841,-16.3002 857.1608,-11.434"/>
<polygon fill="#191970" stroke="#191970" points="857.129,-7.9303 847.0006,-11.0393 856.8572,-14.925 857.129,-7.9303"/>
</g>
<!-- Node27 -->
<g id="node28" class="node">
<title>Node27</title>
<polygon fill="none" stroke="#bfbfbf" points="1539,-118 1539,-137 1577,-137 1577,-118 1539,-118"/>
<text text-anchor="middle" x="1558" y="-125" font-family="Helvetica,sans-Serif" font-size="10.00" fill="#000000">tuple</text>
</g>
<!-- Node26&#45;&gt;Node27 -->
<g id="edge44" class="edge">
<title>Node26&#45;&gt;Node27</title>
<path fill="none" stroke="#191970" d="M1558,-179.3906C1558,-170.8657 1558,-158.1392 1558,-147.4235"/>
<polygon fill="#191970" stroke="#191970" points="1561.5001,-147.2448 1558,-137.2449 1554.5001,-147.2449 1561.5001,-147.2448"/>
</g>
<!-- Node28&#45;&gt;Node6 -->
<g id="edge54" class="edge">
<title>Node28&#45;&gt;Node6</title>
<path fill="none" stroke="#191970" d="M1066.2662,-235.3424C1042.1942,-222.8293 1007.8511,-200.1098 1025,-179 1074.245,-118.3808 1122.4224,-166.1935 1197,-143 1199.1613,-142.3278 1201.3702,-141.5765 1203.5798,-140.777"/>
<polygon fill="#191970" stroke="#191970" points="1205.0777,-143.9497 1213.1255,-137.0589 1202.537,-137.427 1205.0777,-143.9497"/>
</g>
<!-- Node28&#45;&gt;Node10 -->
<g id="edge51" class="edge">
<title>Node28&#45;&gt;Node10</title>
<path fill="none" stroke="#191970" d="M1049.5166,-235.4588C1015.9097,-224.9441 974.4005,-205.8838 992,-179 1001.4666,-164.5394 1015.98,-154.1159 1031.6277,-146.61"/>
<polygon fill="#191970" stroke="#191970" points="1033.1937,-149.7449 1040.9423,-142.5193 1030.379,-143.3358 1033.1937,-149.7449"/>
</g>
<!-- Node28&#45;&gt;Node12 -->
<g id="edge57" class="edge">
<title>Node28&#45;&gt;Node12</title>
<path fill="none" stroke="#191970" d="M1138.324,-235.4602C1175.7699,-227.7131 1227.3846,-215.3878 1271,-199 1289.235,-192.1485 1292.5289,-187.615 1310,-179 1343.5218,-162.4704 1366.0134,-174.5828 1386,-143 1393.3677,-131.3576 1390.0466,-125.1701 1386,-112 1377.1659,-83.2485 1373.9414,-71.2228 1348,-56 1305.9316,-31.3136 971.8596,-16.005 857.3531,-11.4411"/>
<polygon fill="#191970" stroke="#191970" points="857.4163,-7.941 847.2864,-11.0451 857.1411,-14.9356 857.4163,-7.941"/>
</g>
<!-- Node28&#45;&gt;Node17 -->
<g id="edge46" class="edge">
<title>Node28&#45;&gt;Node17</title>
<path fill="none" stroke="#191970" d="M1032.0121,-235.4369C975.9781,-225.6918 889.1034,-210.5832 829.7707,-200.2645"/>
<polygon fill="#191970" stroke="#191970" points="830.2129,-196.7889 819.7611,-198.5237 829.0135,-203.6854 830.2129,-196.7889"/>
</g>
<!-- Node28&#45;&gt;Node23 -->
<g id="edge47" class="edge">
<title>Node28&#45;&gt;Node23</title>
<path fill="none" stroke="#191970" d="M1002.4905,-237.8408C922.8323,-230.442 800.3029,-217.3814 695,-199 600.9757,-182.5873 492.5712,-155.3511 433.0226,-139.6573"/>
<polygon fill="#191970" stroke="#191970" points="433.7532,-136.2302 423.1904,-137.0538 431.9614,-142.997 433.7532,-136.2302"/>
</g>
<!-- Node28&#45;&gt;Node26 -->
<g id="edge50" class="edge">
<title>Node28&#45;&gt;Node26</title>
<path fill="none" stroke="#191970" d="M1167.1655,-235.4686C1250.523,-225.5578 1380.7488,-210.0745 1467.6868,-199.7379"/>
<polygon fill="#191970" stroke="#191970" points="1468.2874,-203.1912 1477.8042,-198.535 1467.4609,-196.2402 1468.2874,-203.1912"/>
</g>
<!-- Node28&#45;&gt;Node29 -->
<g id="edge48" class="edge">
<title>Node28&#45;&gt;Node29</title>
<path fill="none" stroke="#191970" d="M1138.5725,-235.4369C1190.909,-225.7321 1271.932,-210.708 1327.5612,-200.3926"/>
<polygon fill="#191970" stroke="#191970" points="1328.446,-203.7883 1337.6402,-198.5237 1327.1697,-196.9056 1328.446,-203.7883"/>
</g>
<!-- Node30 -->
<g id="node31" class="node">
<title>Node30</title>
<g id="a_node31"><a xlink:href="../../dd/da4/Logger_8h.html" target="_top" xlink:title="Framework/Logger.h">
<polygon fill="none" stroke="#000000" points="1034,-179.5 1034,-198.5 1140,-198.5 1140,-179.5 1034,-179.5"/>
<text text-anchor="middle" x="1087" y="-186.5" font-family="Helvetica,sans-Serif" font-size="10.00" fill="#000000">Framework/Logger.h</text>
</a>
</g>
</g>
<!-- Node28&#45;&gt;Node30 -->
<g id="edge52" class="edge">
<title>Node28&#45;&gt;Node30</title>
<path fill="none" stroke="#191970" d="M1087,-235.2455C1087,-227.9382 1087,-217.6944 1087,-208.7046"/>
<polygon fill="#191970" stroke="#191970" points="1090.5001,-208.6426 1087,-198.6427 1083.5001,-208.6427 1090.5001,-208.6426"/>
</g>
<!-- Node32 -->
<g id="node33" class="node">
<title>Node32</title>
<polygon fill="none" stroke="#bfbfbf" points="1158,-179.5 1158,-198.5 1198,-198.5 1198,-179.5 1158,-179.5"/>
<text text-anchor="middle" x="1178" y="-186.5" font-family="Helvetica,sans-Serif" font-size="10.00" fill="#000000">utility</text>
</g>
<!-- Node28&#45;&gt;Node32 -->
<g id="edge55" class="edge">
<title>Node28&#45;&gt;Node32</title>
<path fill="none" stroke="#191970" d="M1102.851,-235.2455C1116.8132,-226.6534 1137.3728,-214.0014 1153.4596,-204.1018"/>
<polygon fill="#191970" stroke="#191970" points="1155.6484,-206.8645 1162.3307,-198.6427 1151.9797,-200.9029 1155.6484,-206.8645"/>
</g>
<!-- Node33 -->
<g id="node34" class="node">
<title>Node33</title>
<polygon fill="none" stroke="#bfbfbf" points="1216,-179.5 1216,-198.5 1262,-198.5 1262,-179.5 1216,-179.5"/>
<text text-anchor="middle" x="1239" y="-186.5" font-family="Helvetica,sans-Serif" font-size="10.00" fill="#000000">cstring</text>
</g>
<!-- Node28&#45;&gt;Node33 -->
<g id="edge56" class="edge">
<title>Node28&#45;&gt;Node33</title>
<path fill="none" stroke="#191970" d="M1113.1297,-235.3733C1138.8327,-225.9037 1178.1608,-211.4144 1206.0068,-201.1554"/>
<polygon fill="#191970" stroke="#191970" points="1207.5264,-204.3256 1215.6998,-197.5843 1205.1064,-197.7572 1207.5264,-204.3256"/>
</g>
<!-- Node29&#45;&gt;Node14 -->
<g id="edge49" class="edge">
<title>Node29&#45;&gt;Node14</title>
<path fill="none" stroke="#191970" d="M1391.2945,-179.2398C1394.3598,-163.8344 1398.1066,-133.433 1386,-112 1377.669,-97.2512 1362.4267,-86.4004 1348.2874,-78.954"/>
<polygon fill="#191970" stroke="#191970" points="1349.7617,-75.779 1339.2389,-74.5454 1346.6957,-82.0718 1349.7617,-75.779"/>
</g>
<!-- Node31 -->
<g id="node32" class="node">
<title>Node31</title>
<polygon fill="none" stroke="#bfbfbf" points="1279.5,-118 1279.5,-137 1376.5,-137 1376.5,-118 1279.5,-118"/>
<text text-anchor="middle" x="1328" y="-125" font-family="Helvetica,sans-Serif" font-size="10.00" fill="#000000">fairlogger/Logger.h</text>
</g>
<!-- Node30&#45;&gt;Node31 -->
<g id="edge53" class="edge">
<title>Node30&#45;&gt;Node31</title>
<path fill="none" stroke="#191970" d="M1125.5998,-179.4743C1162.6651,-170.2854 1220.2144,-155.9088 1270,-143 1274.1429,-141.9258 1278.4489,-140.7974 1282.7593,-139.6599"/>
<polygon fill="#191970" stroke="#191970" points="1283.9812,-142.9569 1292.7497,-137.0101 1282.1866,-136.1908 1283.9812,-142.9569"/>
</g>
</g>
</svg>
