<?xml version="1.0" encoding="UTF-8" standalone="no"?>
<!DOCTYPE svg PUBLIC "-//W3C//DTD SVG 1.1//EN"
 "http://www.w3.org/Graphics/SVG/1.1/DTD/svg11.dtd">
<!-- Generated by graphviz version 2.40.1 (20161225.0304)
 -->
<!-- Title: /home/runner/work/AliceO2/AliceO2/Detectors/ITSMFT/MFT/tracking/include/MFTTracking/Cell.h Pages: 1 -->
<svg width="665pt" height="495pt"
 viewBox="0.00 0.00 664.50 495.00" xmlns="http://www.w3.org/2000/svg" xmlns:xlink="http://www.w3.org/1999/xlink">
<g id="graph0" class="graph" transform="scale(1 1) rotate(0) translate(4 491)">
<title>/home/runner/work/AliceO2/AliceO2/Detectors/ITSMFT/MFT/tracking/include/MFTTracking/Cell.h</title>
<!-- Node8 -->
<g id="node1" class="node">
<title>Node8</title>
<polygon fill="#bfbfbf" stroke="#000000" points="354.5,-434.5 354.5,-486.5 529.5,-486.5 529.5,-434.5 354.5,-434.5"/>
<text text-anchor="start" x="362.5" y="-474.5" font-family="Helvetica,sans-Serif" font-size="10.00" fill="#000000">/home/runner/work/AliceO2</text>
<text text-anchor="start" x="362.5" y="-463.5" font-family="Helvetica,sans-Serif" font-size="10.00" fill="#000000">/AliceO2/Detectors/ITSMFT</text>
<text text-anchor="start" x="362.5" y="-452.5" font-family="Helvetica,sans-Serif" font-size="10.00" fill="#000000">/MFT/tracking/include/MFTTracking/</text>
<text text-anchor="middle" x="442" y="-441.5" font-family="Helvetica,sans-Serif" font-size="10.00" fill="#000000">Cell.h</text>
</g>
<!-- Node9 -->
<g id="node2" class="node">
<title>Node9</title>
<g id="a_node2"><a xlink:href="../../d8/d7a/MFT_2tracking_2include_2MFTTracking_2Road_8h.html" target="_top" xlink:title="/home/runner/work/AliceO2\l/AliceO2/Detectors/ITSMFT\l/MFT/tracking/include/MFTTracking/\lRoad.h">
<polygon fill="none" stroke="#000000" points="238.5,-345.5 238.5,-397.5 413.5,-397.5 413.5,-345.5 238.5,-345.5"/>
<text text-anchor="start" x="246.5" y="-385.5" font-family="Helvetica,sans-Serif" font-size="10.00" fill="#000000">/home/runner/work/AliceO2</text>
<text text-anchor="start" x="246.5" y="-374.5" font-family="Helvetica,sans-Serif" font-size="10.00" fill="#000000">/AliceO2/Detectors/ITSMFT</text>
<text text-anchor="start" x="246.5" y="-363.5" font-family="Helvetica,sans-Serif" font-size="10.00" fill="#000000">/MFT/tracking/include/MFTTracking/</text>
<text text-anchor="middle" x="326" y="-352.5" font-family="Helvetica,sans-Serif" font-size="10.00" fill="#000000">Road.h</text>
</a>
</g>
</g>
<!-- Node8&#45;&gt;Node9 -->
<g id="edge1" class="edge">
<title>Node8&#45;&gt;Node9</title>
<path fill="none" stroke="#191970" d="M399.8312,-428.1463C386.7092,-418.0786 372.4164,-407.1126 359.9321,-397.5341"/>
<polygon fill="#191970" stroke="#191970" points="397.7592,-430.9681 407.8236,-434.2784 402.0202,-425.4144 397.7592,-430.9681"/>
</g>
<!-- Node10 -->
<g id="node3" class="node">
<title>Node10</title>
<g id="a_node3"><a xlink:href="../../d3/d72/MFT_2tracking_2include_2MFTTracking_2ROframe_8h.html" target="_top" xlink:title="/home/runner/work/AliceO2\l/AliceO2/Detectors/ITSMFT\l/MFT/tracking/include/MFTTracking\l/ROframe.h">
<polygon fill="none" stroke="#000000" points="240,-256.5 240,-308.5 412,-308.5 412,-256.5 240,-256.5"/>
<text text-anchor="start" x="248" y="-296.5" font-family="Helvetica,sans-Serif" font-size="10.00" fill="#000000">/home/runner/work/AliceO2</text>
<text text-anchor="start" x="248" y="-285.5" font-family="Helvetica,sans-Serif" font-size="10.00" fill="#000000">/AliceO2/Detectors/ITSMFT</text>
<text text-anchor="start" x="248" y="-274.5" font-family="Helvetica,sans-Serif" font-size="10.00" fill="#000000">/MFT/tracking/include/MFTTracking</text>
<text text-anchor="middle" x="326" y="-263.5" font-family="Helvetica,sans-Serif" font-size="10.00" fill="#000000">/ROframe.h</text>
</a>
</g>
</g>
<!-- Node8&#45;&gt;Node10 -->
<g id="edge14" class="edge">
<title>Node8&#45;&gt;Node10</title>
<path fill="none" stroke="#191970" d="M443.01,-424.2575C442.031,-400.0133 437.4098,-368.3888 422,-345 412.2072,-330.1367 397.528,-318.0269 382.5759,-308.562"/>
<polygon fill="#191970" stroke="#191970" points="439.5156,-424.5623 443.2285,-434.4852 446.514,-424.4127 439.5156,-424.5623"/>
</g>
<!-- Node15 -->
<g id="node8" class="node">
<title>Node15</title>
<g id="a_node8"><a xlink:href="../../d4/d77/ITSMFT_2MFT_2tracking_2src_2Tracker_8cxx.html" target="_top" xlink:title="/home/runner/work/AliceO2\l/AliceO2/Detectors/ITSMFT\l/MFT/tracking/src/Tracker.cxx">
<polygon fill="none" stroke="#000000" points="507.5,-84 507.5,-125 656.5,-125 656.5,-84 507.5,-84"/>
<text text-anchor="start" x="515.5" y="-113" font-family="Helvetica,sans-Serif" font-size="10.00" fill="#000000">/home/runner/work/AliceO2</text>
<text text-anchor="start" x="515.5" y="-102" font-family="Helvetica,sans-Serif" font-size="10.00" fill="#000000">/AliceO2/Detectors/ITSMFT</text>
<text text-anchor="middle" x="582" y="-91" font-family="Helvetica,sans-Serif" font-size="10.00" fill="#000000">/MFT/tracking/src/Tracker.cxx</text>
</a>
</g>
</g>
<!-- Node8&#45;&gt;Node15 -->
<g id="edge15" class="edge">
<title>Node8&#45;&gt;Node15</title>
<path fill="none" stroke="#191970" d="M472.5452,-426.383C509.6847,-382.3789 570.3355,-301.7372 594,-220 603.3068,-187.8545 595.4982,-148.8333 588.8575,-125.3695"/>
<polygon fill="#191970" stroke="#191970" points="469.7316,-424.2881 465.8982,-434.1651 475.0543,-428.8344 469.7316,-424.2881"/>
</g>
<!-- Node9&#45;&gt;Node10 -->
<g id="edge2" class="edge">
<title>Node9&#45;&gt;Node10</title>
<path fill="none" stroke="#191970" d="M326,-335.1155C326,-326.2061 326,-316.8475 326,-308.5341"/>
<polygon fill="#191970" stroke="#191970" points="322.5001,-335.2784 326,-345.2784 329.5001,-335.2785 322.5001,-335.2784"/>
</g>
<!-- Node11 -->
<g id="node4" class="node">
<title>Node11</title>
<g id="a_node4"><a xlink:href="../../d7/dd4/MFT_2tracking_2include_2MFTTracking_2IOUtils_8h.html" target="_top" xlink:title="/home/runner/work/AliceO2\l/AliceO2/Detectors/ITSMFT\l/MFT/tracking/include/MFTTracking\l/IOUtils.h">
<polygon fill="none" stroke="#000000" points="12,-167.5 12,-219.5 184,-219.5 184,-167.5 12,-167.5"/>
<text text-anchor="start" x="20" y="-207.5" font-family="Helvetica,sans-Serif" font-size="10.00" fill="#000000">/home/runner/work/AliceO2</text>
<text text-anchor="start" x="20" y="-196.5" font-family="Helvetica,sans-Serif" font-size="10.00" fill="#000000">/AliceO2/Detectors/ITSMFT</text>
<text text-anchor="start" x="20" y="-185.5" font-family="Helvetica,sans-Serif" font-size="10.00" fill="#000000">/MFT/tracking/include/MFTTracking</text>
<text text-anchor="middle" x="98" y="-174.5" font-family="Helvetica,sans-Serif" font-size="10.00" fill="#000000">/IOUtils.h</text>
</a>
</g>
</g>
<!-- Node10&#45;&gt;Node11 -->
<g id="edge3" class="edge">
<title>Node10&#45;&gt;Node11</title>
<path fill="none" stroke="#191970" d="M249.5763,-252.6679C222.138,-241.9574 191.4298,-229.9704 164.8658,-219.6011"/>
<polygon fill="#191970" stroke="#191970" points="248.5449,-256.0225 259.133,-256.3984 251.0903,-249.5017 248.5449,-256.0225"/>
</g>
<!-- Node13 -->
<g id="node6" class="node">
<title>Node13</title>
<g id="a_node6"><a xlink:href="../../d1/dd0/ITSMFT_2MFT_2workflow_2src_2TrackerSpec_8cxx.html" target="_top" xlink:title="/home/runner/work/AliceO2\l/AliceO2/Detectors/ITSMFT\l/MFT/workflow/src/TrackerSpec.cxx">
<polygon fill="none" stroke="#000000" points="124,-.5 124,-41.5 300,-41.5 300,-.5 124,-.5"/>
<text text-anchor="start" x="132" y="-29.5" font-family="Helvetica,sans-Serif" font-size="10.00" fill="#000000">/home/runner/work/AliceO2</text>
<text text-anchor="start" x="132" y="-18.5" font-family="Helvetica,sans-Serif" font-size="10.00" fill="#000000">/AliceO2/Detectors/ITSMFT</text>
<text text-anchor="middle" x="212" y="-7.5" font-family="Helvetica,sans-Serif" font-size="10.00" fill="#000000">/MFT/workflow/src/TrackerSpec.cxx</text>
</a>
</g>
</g>
<!-- Node10&#45;&gt;Node13 -->
<g id="edge13" class="edge">
<title>Node10&#45;&gt;Node13</title>
<path fill="none" stroke="#191970" d="M260.1072,-250.5017C248.7031,-242.1089 238.2121,-231.9761 231,-220 196.7135,-163.0653 203.0909,-79.955 208.4811,-41.6894"/>
<polygon fill="#191970" stroke="#191970" points="258.3174,-253.5187 268.5388,-256.307 262.2871,-247.7532 258.3174,-253.5187"/>
</g>
<!-- Node14 -->
<g id="node7" class="node">
<title>Node14</title>
<g id="a_node7"><a xlink:href="../../dd/dbf/ITSMFT_2MFT_2tracking_2include_2MFTTracking_2Tracker_8h.html" target="_top" xlink:title="/home/runner/work/AliceO2\l/AliceO2/Detectors/ITSMFT\l/MFT/tracking/include/MFTTracking\l/Tracker.h">
<polygon fill="none" stroke="#000000" points="240,-167.5 240,-219.5 412,-219.5 412,-167.5 240,-167.5"/>
<text text-anchor="start" x="248" y="-207.5" font-family="Helvetica,sans-Serif" font-size="10.00" fill="#000000">/home/runner/work/AliceO2</text>
<text text-anchor="start" x="248" y="-196.5" font-family="Helvetica,sans-Serif" font-size="10.00" fill="#000000">/AliceO2/Detectors/ITSMFT</text>
<text text-anchor="start" x="248" y="-185.5" font-family="Helvetica,sans-Serif" font-size="10.00" fill="#000000">/MFT/tracking/include/MFTTracking</text>
<text text-anchor="middle" x="326" y="-174.5" font-family="Helvetica,sans-Serif" font-size="10.00" fill="#000000">/Tracker.h</text>
</a>
</g>
</g>
<!-- Node10&#45;&gt;Node14 -->
<g id="edge6" class="edge">
<title>Node10&#45;&gt;Node14</title>
<path fill="none" stroke="#191970" d="M326,-246.1155C326,-237.2061 326,-227.8475 326,-219.5341"/>
<polygon fill="#191970" stroke="#191970" points="322.5001,-246.2784 326,-256.2784 329.5001,-246.2785 322.5001,-246.2784"/>
</g>
<!-- Node18 -->
<g id="node11" class="node">
<title>Node18</title>
<g id="a_node11"><a xlink:href="../../de/d8d/MFT_2tracking_2src_2ROframe_8cxx.html" target="_top" xlink:title="/home/runner/work/AliceO2\l/AliceO2/Detectors/ITSMFT\l/MFT/tracking/src/ROframe.cxx">
<polygon fill="none" stroke="#000000" points="430.5,-173 430.5,-214 585.5,-214 585.5,-173 430.5,-173"/>
<text text-anchor="start" x="438.5" y="-202" font-family="Helvetica,sans-Serif" font-size="10.00" fill="#000000">/home/runner/work/AliceO2</text>
<text text-anchor="start" x="438.5" y="-191" font-family="Helvetica,sans-Serif" font-size="10.00" fill="#000000">/AliceO2/Detectors/ITSMFT</text>
<text text-anchor="middle" x="508" y="-180" font-family="Helvetica,sans-Serif" font-size="10.00" fill="#000000">/MFT/tracking/src/ROframe.cxx</text>
</a>
</g>
</g>
<!-- Node10&#45;&gt;Node18 -->
<g id="edge12" class="edge">
<title>Node10&#45;&gt;Node18</title>
<path fill="none" stroke="#191970" d="M388.8522,-251.7646C414.3544,-239.2937 443.1281,-225.2231 466.0099,-214.0336"/>
<polygon fill="#191970" stroke="#191970" points="387.0675,-248.7412 379.6216,-256.2784 390.1426,-255.0296 387.0675,-248.7412"/>
</g>
<!-- Node12 -->
<g id="node5" class="node">
<title>Node12</title>
<g id="a_node5"><a xlink:href="../../dd/d79/MFT_2tracking_2src_2IOUtils_8cxx.html" target="_top" xlink:title="/home/runner/work/AliceO2\l/AliceO2/Detectors/ITSMFT\l/MFT/tracking/src/IOUtils.cxx">
<polygon fill="none" stroke="#000000" points="0,-84 0,-125 146,-125 146,-84 0,-84"/>
<text text-anchor="start" x="8" y="-113" font-family="Helvetica,sans-Serif" font-size="10.00" fill="#000000">/home/runner/work/AliceO2</text>
<text text-anchor="start" x="8" y="-102" font-family="Helvetica,sans-Serif" font-size="10.00" fill="#000000">/AliceO2/Detectors/ITSMFT</text>
<text text-anchor="middle" x="73" y="-91" font-family="Helvetica,sans-Serif" font-size="10.00" fill="#000000">/MFT/tracking/src/IOUtils.cxx</text>
</a>
</g>
</g>
<!-- Node11&#45;&gt;Node12 -->
<g id="edge4" class="edge">
<title>Node11&#45;&gt;Node12</title>
<path fill="none" stroke="#191970" d="M87.8792,-157.4701C84.793,-146.4829 81.5058,-134.7805 78.8082,-125.1771"/>
<polygon fill="#191970" stroke="#191970" points="84.5604,-158.5976 90.6344,-167.2784 91.2996,-156.7045 84.5604,-158.5976"/>
</g>
<!-- Node11&#45;&gt;Node13 -->
<g id="edge5" class="edge">
<title>Node11&#45;&gt;Node13</title>
<path fill="none" stroke="#191970" d="M131.4165,-160.0876C139.6258,-151.0392 148.0456,-140.9768 155,-131 175.2944,-101.8855 193.107,-64.6052 203.2063,-41.78"/>
<polygon fill="#191970" stroke="#191970" points="128.8435,-157.7148 124.6069,-167.4258 133.9746,-162.4764 128.8435,-157.7148"/>
</g>
<!-- Node14&#45;&gt;Node13 -->
<g id="edge11" class="edge">
<title>Node14&#45;&gt;Node13</title>
<path fill="none" stroke="#191970" d="M292.5835,-160.0876C284.3742,-151.0392 275.9544,-140.9768 269,-131 248.7056,-101.8855 230.893,-64.6052 220.7937,-41.78"/>
<polygon fill="#191970" stroke="#191970" points="290.0254,-162.4764 299.3931,-167.4258 295.1565,-157.7148 290.0254,-162.4764"/>
</g>
<!-- Node14&#45;&gt;Node15 -->
<g id="edge7" class="edge">
<title>Node14&#45;&gt;Node15</title>
<path fill="none" stroke="#191970" d="M410.7765,-164.0269C447.4681,-151.2708 489.5287,-136.6482 522.7804,-125.0881"/>
<polygon fill="#191970" stroke="#191970" points="409.3748,-160.8087 401.0787,-167.3984 411.6735,-167.4205 409.3748,-160.8087"/>
</g>
<!-- Node16 -->
<g id="node9" class="node">
<title>Node16</title>
<g id="a_node9"><a xlink:href="../../d8/da1/ITSMFT_2MFT_2workflow_2include_2MFTWorkflow_2TrackerSpec_8h.html" target="_top" xlink:title="/home/runner/work/AliceO2\l/AliceO2/Detectors/ITSMFT\l/MFT/workflow/include/MFTWorkflow\l/TrackerSpec.h">
<polygon fill="none" stroke="#000000" points="278,-78.5 278,-130.5 458,-130.5 458,-78.5 278,-78.5"/>
<text text-anchor="start" x="286" y="-118.5" font-family="Helvetica,sans-Serif" font-size="10.00" fill="#000000">/home/runner/work/AliceO2</text>
<text text-anchor="start" x="286" y="-107.5" font-family="Helvetica,sans-Serif" font-size="10.00" fill="#000000">/AliceO2/Detectors/ITSMFT</text>
<text text-anchor="start" x="286" y="-96.5" font-family="Helvetica,sans-Serif" font-size="10.00" fill="#000000">/MFT/workflow/include/MFTWorkflow</text>
<text text-anchor="middle" x="368" y="-85.5" font-family="Helvetica,sans-Serif" font-size="10.00" fill="#000000">/TrackerSpec.h</text>
</a>
</g>
</g>
<!-- Node14&#45;&gt;Node16 -->
<g id="edge8" class="edge">
<title>Node14&#45;&gt;Node16</title>
<path fill="none" stroke="#191970" d="M342.7596,-157.9856C347.0861,-148.8176 351.6631,-139.1186 355.7142,-130.5341"/>
<polygon fill="#191970" stroke="#191970" points="339.4768,-156.7411 338.3742,-167.2784 345.8073,-159.7286 339.4768,-156.7411"/>
</g>
<!-- Node16&#45;&gt;Node13 -->
<g id="edge10" class="edge">
<title>Node16&#45;&gt;Node13</title>
<path fill="none" stroke="#191970" d="M310.0664,-73.4907C290.1418,-62.8259 268.3429,-51.1579 250.3679,-41.5367"/>
<polygon fill="#191970" stroke="#191970" points="308.6005,-76.6758 319.0686,-78.3092 311.9038,-70.5043 308.6005,-76.6758"/>
</g>
<!-- Node17 -->
<g id="node10" class="node">
<title>Node17</title>
<g id="a_node10"><a xlink:href="../../d1/df6/ITSMFT_2MFT_2workflow_2src_2RecoWorkflow_8cxx.html" target="_top" xlink:title="/home/runner/work/AliceO2\l/AliceO2/Detectors/ITSMFT\l/MFT/workflow/src/RecoWorkflow.cxx">
<polygon fill="none" stroke="#000000" points="317.5,-.5 317.5,-41.5 502.5,-41.5 502.5,-.5 317.5,-.5"/>
<text text-anchor="start" x="325.5" y="-29.5" font-family="Helvetica,sans-Serif" font-size="10.00" fill="#000000">/home/runner/work/AliceO2</text>
<text text-anchor="start" x="325.5" y="-18.5" font-family="Helvetica,sans-Serif" font-size="10.00" fill="#000000">/AliceO2/Detectors/ITSMFT</text>
<text text-anchor="middle" x="410" y="-7.5" font-family="Helvetica,sans-Serif" font-size="10.00" fill="#000000">/MFT/workflow/src/RecoWorkflow.cxx</text>
</a>
</g>
</g>
<!-- Node16&#45;&gt;Node17 -->
<g id="edge9" class="edge">
<title>Node16&#45;&gt;Node17</title>
<path fill="none" stroke="#191970" d="M385.8651,-68.9825C390.5475,-59.6734 395.4427,-49.9413 399.591,-41.6941"/>
<polygon fill="#191970" stroke="#191970" points="382.6559,-67.5738 381.2891,-78.0801 388.9094,-70.7193 382.6559,-67.5738"/>
</g>
</g>
</svg>
