<?xml version="1.0" encoding="UTF-8" standalone="no"?>
<!DOCTYPE svg PUBLIC "-//W3C//DTD SVG 1.1//EN"
 "http://www.w3.org/Graphics/SVG/1.1/DTD/svg11.dtd">
<!-- Generated by graphviz version 2.40.1 (20161225.0304)
 -->
<!-- Title: /home/runner/work/AliceO2/AliceO2/Detectors/EMCAL/reconstruction/src/RawReaderMemory.cxx Pages: 1 -->
<!--zoomable 296 -->
<svg id="main" version="1.1" xmlns="http://www.w3.org/2000/svg" xmlns:xlink="http://www.w3.org/1999/xlink" xml:space="preserve" onload="init(evt)">
<style type="text/css"><![CDATA[
.edge:hover path { stroke: red; }
.edge:hover polygon { stroke: red; fill: red; }
]]></style>
<script type="text/javascript"><![CDATA[
var edges = document.getElementsByTagName('g');
if (edges && edges.length) {
  for (var i=0;i<edges.length;i++) {
    if (edges[i].id.substr(0,4)=='edge') {
      edges[i].setAttribute('class','edge');
    }
  }
}
]]></script>
        <defs>
                <circle id="rim" cx="0" cy="0" r="7"/>
                <circle id="rim2" cx="0" cy="0" r="3.5"/>
                <g id="zoomPlus">
                        <use xlink:href="#rim" fill="#404040">
                                <set attributeName="fill" to="#808080" begin="zoomplus.mouseover" end="zoomplus.mouseout"/>
                        </use>
                        <path d="M-4,0h8M0,-4v8" fill="none" stroke="white" stroke-width="1.5" pointer-events="none"/>
                </g>
                <g id="zoomMin">
                        <use xlink:href="#rim" fill="#404040">
                                <set attributeName="fill" to="#808080" begin="zoomminus.mouseover" end="zoomminus.mouseout"/>
                        </use>
                        <path d="M-4,0h8" fill="none" stroke="white" stroke-width="1.5" pointer-events="none"/>
                </g>
                <g id="dirArrow">
                        <path fill="none" stroke="white" stroke-width="1.5" d="M0,-3.0v7 M-2.5,-0.5L0,-3.0L2.5,-0.5"/>
                </g>
               <g id="resetDef">
                       <use xlink:href="#rim2" fill="#404040">
                               <set attributeName="fill" to="#808080" begin="reset.mouseover" end="reset.mouseout"/>
                       </use>
               </g>
        </defs>

<script type="text/javascript">
var viewWidth = 1988;
var viewHeight = 296;
var sectionId = 'dynsection-0';
</script>
<script xlink:href="../../svgpan.js"/>
<svg id="graph" class="graph">
<g id="viewport">
<title>/home/runner/work/AliceO2/AliceO2/Detectors/EMCAL/reconstruction/src/RawReaderMemory.cxx</title>
<!-- Node0 -->
<g id="node1" class="node">
<title>Node0</title>
<polygon fill="#bfbfbf" stroke="#000000" points="431.9628,-246.5 431.9628,-287.5 637.9628,-287.5 637.9628,-246.5 431.9628,-246.5"/>
<text text-anchor="start" x="439.9628" y="-275.5" font-family="Helvetica,sans-Serif" font-size="10.00" fill="#000000">/home/runner/work/AliceO2</text>
<text text-anchor="start" x="439.9628" y="-264.5" font-family="Helvetica,sans-Serif" font-size="10.00" fill="#000000">/AliceO2/Detectors/EMCAL</text>
<text text-anchor="middle" x="534.9628" y="-253.5" font-family="Helvetica,sans-Serif" font-size="10.00" fill="#000000">/reconstruction/src/RawReaderMemory.cxx</text>
</g>
<!-- Node1 -->
<g id="node2" class="node">
<title>Node1</title>
<polygon fill="none" stroke="#bfbfbf" points="270.9628,-185 270.9628,-204 322.9628,-204 322.9628,-185 270.9628,-185"/>
<text text-anchor="middle" x="296.9628" y="-192" font-family="Helvetica,sans-Serif" font-size="10.00" fill="#000000">sstream</text>
</g>
<!-- Node0&#45;&gt;Node1 -->
<g id="edge1" class="edge">
<title>Node0&#45;&gt;Node1</title>
<path fill="none" stroke="#191970" d="M451.6443,-246.4888C414.6091,-236.6357 370.7135,-223.9399 331.9628,-210 330.1337,-209.342 328.2656,-208.632 326.3914,-207.8906"/>
<polygon fill="#191970" stroke="#191970" points="327.6971,-204.6429 317.1208,-204.0152 324.9972,-211.1013 327.6971,-204.6429"/>
</g>
<!-- Node2 -->
<g id="node3" class="node">
<title>Node2</title>
<polygon fill="none" stroke="#bfbfbf" points="1305.4628,-.5 1305.4628,-19.5 1346.4628,-19.5 1346.4628,-.5 1305.4628,-.5"/>
<text text-anchor="middle" x="1325.9628" y="-7.5" font-family="Helvetica,sans-Serif" font-size="10.00" fill="#000000">string</text>
</g>
<!-- Node0&#45;&gt;Node2 -->
<g id="edge2" class="edge">
<title>Node0&#45;&gt;Node2</title>
<path fill="none" stroke="#191970" d="M638.1229,-258.7575C771.39,-245.6562 1008.9366,-213.9043 1199.9628,-143 1263.507,-119.4139 1301.0753,-133.5001 1336.9628,-76 1345.7724,-61.8849 1341.2803,-42.9035 1335.6135,-28.9201"/>
<polygon fill="#191970" stroke="#191970" points="1338.7759,-27.419 1331.453,-19.7623 1332.4028,-30.3145 1338.7759,-27.419"/>
</g>
<!-- Node3 -->
<g id="node4" class="node">
<title>Node3</title>
<g id="a_node4"><a xlink:href="../../da/d6a/EMCAL_2reconstruction_2include_2EMCALReconstruction_2RawReaderMemory_8h.html" target="_top" xlink:title="EMCALReconstruction\l/RawReaderMemory.h">
<polygon fill="none" stroke="#000000" points="341.4628,-179.5 341.4628,-209.5 458.4628,-209.5 458.4628,-179.5 341.4628,-179.5"/>
<text text-anchor="start" x="349.4628" y="-197.5" font-family="Helvetica,sans-Serif" font-size="10.00" fill="#000000">EMCALReconstruction</text>
<text text-anchor="middle" x="399.9628" y="-186.5" font-family="Helvetica,sans-Serif" font-size="10.00" fill="#000000">/RawReaderMemory.h</text>
</a>
</g>
</g>
<!-- Node0&#45;&gt;Node3 -->
<g id="edge3" class="edge">
<title>Node0&#45;&gt;Node3</title>
<path fill="none" stroke="#191970" d="M496.6383,-246.4183C477.9661,-236.3907 455.6056,-224.3823 437.0946,-214.4412"/>
<polygon fill="#191970" stroke="#191970" points="438.5443,-211.2469 428.0783,-209.5991 435.2323,-217.4139 438.5443,-211.2469"/>
</g>
<!-- Node21 -->
<g id="node22" class="node">
<title>Node21</title>
<g id="a_node22"><a xlink:href="../../df/d57/EMCAL_2reconstruction_2include_2EMCALReconstruction_2RawDecodingError_8h.html" target="_top" xlink:title="EMCALReconstruction\l/RawDecodingError.h">
<polygon fill="none" stroke="#000000" points="476.4628,-179.5 476.4628,-209.5 593.4628,-209.5 593.4628,-179.5 476.4628,-179.5"/>
<text text-anchor="start" x="484.4628" y="-197.5" font-family="Helvetica,sans-Serif" font-size="10.00" fill="#000000">EMCALReconstruction</text>
<text text-anchor="middle" x="534.9628" y="-186.5" font-family="Helvetica,sans-Serif" font-size="10.00" fill="#000000">/RawDecodingError.h</text>
</a>
</g>
</g>
<!-- Node0&#45;&gt;Node21 -->
<g id="edge32" class="edge">
<title>Node0&#45;&gt;Node21</title>
<path fill="none" stroke="#191970" d="M534.9628,-246.4183C534.9628,-238.0849 534.9628,-228.3834 534.9628,-219.6373"/>
<polygon fill="#191970" stroke="#191970" points="538.4629,-219.5991 534.9628,-209.5991 531.4629,-219.5991 538.4629,-219.5991"/>
</g>
<!-- Node22 -->
<g id="node23" class="node">
<title>Node22</title>
<g id="a_node23"><a xlink:href="../../d6/dec/Raw_2include_2DetectorsRaw_2RDHUtils_8h.html" target="_top" xlink:title="DetectorsRaw/RDHUtils.h">
<polygon fill="none" stroke="#000000" points="800.9628,-185 800.9628,-204 934.9628,-204 934.9628,-185 800.9628,-185"/>
<text text-anchor="middle" x="867.9628" y="-192" font-family="Helvetica,sans-Serif" font-size="10.00" fill="#000000">DetectorsRaw/RDHUtils.h</text>
</a>
</g>
</g>
<!-- Node0&#45;&gt;Node22 -->
<g id="edge34" class="edge">
<title>Node0&#45;&gt;Node22</title>
<path fill="none" stroke="#191970" d="M629.4965,-246.4183C689.2202,-233.4154 764.2414,-217.082 814.0206,-206.2442"/>
<polygon fill="#191970" stroke="#191970" points="814.9098,-209.6327 823.9363,-204.0853 813.4206,-202.7929 814.9098,-209.6327"/>
</g>
<!-- Node4 -->
<g id="node5" class="node">
<title>Node4</title>
<polygon fill="none" stroke="#bfbfbf" points="132.4628,-56.5 132.4628,-75.5 185.4628,-75.5 185.4628,-56.5 132.4628,-56.5"/>
<text text-anchor="middle" x="158.9628" y="-63.5" font-family="Helvetica,sans-Serif" font-size="10.00" fill="#000000">gsl/span</text>
</g>
<!-- Node3&#45;&gt;Node4 -->
<g id="edge4" class="edge">
<title>Node3&#45;&gt;Node4</title>
<path fill="none" stroke="#191970" d="M341.3687,-180.8117C283.7896,-167.1698 203.7072,-147.6055 197.9628,-143 179.7608,-128.4068 169.2738,-103.0848 163.85,-85.4809"/>
<polygon fill="#191970" stroke="#191970" points="167.1727,-84.3666 161.1036,-75.6823 160.4324,-86.2559 167.1727,-84.3666"/>
</g>
<!-- Node5 -->
<g id="node6" class="node">
<title>Node5</title>
<polygon fill="none" stroke="#bfbfbf" points="108.9628,-.5 108.9628,-19.5 164.9628,-19.5 164.9628,-.5 108.9628,-.5"/>
<text text-anchor="middle" x="136.9628" y="-7.5" font-family="Helvetica,sans-Serif" font-size="10.00" fill="#000000">Rtypes.h</text>
</g>
<!-- Node3&#45;&gt;Node5 -->
<g id="edge5" class="edge">
<title>Node3&#45;&gt;Node5</title>
<path fill="none" stroke="#191970" d="M341.4379,-180.7387C338.2393,-180.1182 335.0654,-179.5333 331.9628,-179 264.0485,-167.3257 73.1064,-191.3068 23.9628,-143 -3.7596,-115.7497 -7.1504,-87.9706 14.9628,-56 24.8681,-41.6791 66.9306,-27.9573 98.9214,-19.2869"/>
<polygon fill="#191970" stroke="#191970" points="100.1239,-22.5895 108.9006,-16.6549 98.3387,-15.8209 100.1239,-22.5895"/>
</g>
<!-- Node6 -->
<g id="node7" class="node">
<title>Node6</title>
<g id="a_node7"><a xlink:href="../../d3/d4f/EMCAL_2base_2include_2EMCALBase_2RCUTrailer_8h.html" target="_top" xlink:title="EMCALBase/RCUTrailer.h">
<polygon fill="none" stroke="#000000" points="342.9628,-118 342.9628,-137 476.9628,-137 476.9628,-118 342.9628,-118"/>
<text text-anchor="middle" x="409.9628" y="-125" font-family="Helvetica,sans-Serif" font-size="10.00" fill="#000000">EMCALBase/RCUTrailer.h</text>
</a>
</g>
</g>
<!-- Node3&#45;&gt;Node6 -->
<g id="edge6" class="edge">
<title>Node3&#45;&gt;Node6</title>
<path fill="none" stroke="#191970" d="M402.2319,-179.2967C403.6538,-169.7699 405.5008,-157.3954 407.0328,-147.1306"/>
<polygon fill="#191970" stroke="#191970" points="410.522,-147.4621 408.5366,-137.055 403.5987,-146.4287 410.522,-147.4621"/>
</g>
<!-- Node10 -->
<g id="node11" class="node">
<title>Node10</title>
<g id="a_node11"><a xlink:href="../../dc/ded/EMCAL_2reconstruction_2include_2EMCALReconstruction_2RawBuffer_8h.html" target="_top" xlink:title="EMCALReconstruction\l/RawBuffer.h">
<polygon fill="none" stroke="#000000" points="207.4628,-112.5 207.4628,-142.5 324.4628,-142.5 324.4628,-112.5 207.4628,-112.5"/>
<text text-anchor="start" x="215.4628" y="-130.5" font-family="Helvetica,sans-Serif" font-size="10.00" fill="#000000">EMCALReconstruction</text>
<text text-anchor="middle" x="265.9628" y="-119.5" font-family="Helvetica,sans-Serif" font-size="10.00" fill="#000000">/RawBuffer.h</text>
</a>
</g>
</g>
<!-- Node3&#45;&gt;Node10 -->
<g id="edge13" class="edge">
<title>Node3&#45;&gt;Node10</title>
<path fill="none" stroke="#191970" d="M369.8905,-179.4639C350.8866,-169.9619 326.1185,-157.5779 305.5287,-147.283"/>
<polygon fill="#191970" stroke="#191970" points="306.9078,-144.0594 296.3982,-142.7177 303.7772,-150.3204 306.9078,-144.0594"/>
</g>
<!-- Node12 -->
<g id="node13" class="node">
<title>Node12</title>
<g id="a_node13"><a xlink:href="../../d2/db8/EMCAL_2reconstruction_2include_2EMCALReconstruction_2RawPayload_8h.html" target="_top" xlink:title="EMCALReconstruction\l/RawPayload.h">
<polygon fill="none" stroke="#000000" points="33.4628,-112.5 33.4628,-142.5 150.4628,-142.5 150.4628,-112.5 33.4628,-112.5"/>
<text text-anchor="start" x="41.4628" y="-130.5" font-family="Helvetica,sans-Serif" font-size="10.00" fill="#000000">EMCALReconstruction</text>
<text text-anchor="middle" x="91.9628" y="-119.5" font-family="Helvetica,sans-Serif" font-size="10.00" fill="#000000">/RawPayload.h</text>
</a>
</g>
</g>
<!-- Node3&#45;&gt;Node12 -->
<g id="edge18" class="edge">
<title>Node3&#45;&gt;Node12</title>
<path fill="none" stroke="#191970" d="M341.368,-181.0941C338.1875,-180.3819 335.0366,-179.6801 331.9628,-179 299.906,-171.9074 219.4915,-154.6953 160.5457,-142.1151"/>
<polygon fill="#191970" stroke="#191970" points="161.0548,-138.645 150.5445,-139.9811 159.594,-145.4909 161.0548,-138.645"/>
</g>
<!-- Node14 -->
<g id="node15" class="node">
<title>Node14</title>
<g id="a_node15"><a xlink:href="../../d4/dee/RAWDataHeader_8h.html" target="_top" xlink:title="Definition of the RAW Data Header. ">
<polygon fill="none" stroke="#000000" points="690.4628,-56.5 690.4628,-75.5 831.4628,-75.5 831.4628,-56.5 690.4628,-56.5"/>
<text text-anchor="middle" x="760.9628" y="-63.5" font-family="Helvetica,sans-Serif" font-size="10.00" fill="#000000">Headers/RAWDataHeader.h</text>
</a>
</g>
</g>
<!-- Node3&#45;&gt;Node14 -->
<g id="edge23" class="edge">
<title>Node3&#45;&gt;Node14</title>
<path fill="none" stroke="#191970" d="M442.4356,-179.3816C513.8799,-153.9506 656.8865,-103.0465 724.2557,-79.0661"/>
<polygon fill="#191970" stroke="#191970" points="725.7658,-82.2438 734.013,-75.5929 723.4183,-75.6491 725.7658,-82.2438"/>
</g>
<!-- Node15 -->
<g id="node16" class="node">
<title>Node15</title>
<g id="a_node16"><a xlink:href="../../d6/d89/RDHAny_8h.html" target="_top" xlink:title="Headers/RDHAny.h">
<polygon fill="none" stroke="#000000" points="1044.9628,-118 1044.9628,-137 1148.9628,-137 1148.9628,-118 1044.9628,-118"/>
<text text-anchor="middle" x="1096.9628" y="-125" font-family="Helvetica,sans-Serif" font-size="10.00" fill="#000000">Headers/RDHAny.h</text>
</a>
</g>
</g>
<!-- Node3&#45;&gt;Node15 -->
<g id="edge25" class="edge">
<title>Node3&#45;&gt;Node15</title>
<path fill="none" stroke="#191970" d="M458.6903,-180.3755C461.4798,-179.8741 464.2478,-179.4115 466.9628,-179 682.4237,-146.3447 738.9526,-162.9095 955.9628,-143 981.7126,-140.6376 1010.0597,-137.6056 1034.5416,-134.8506"/>
<polygon fill="#191970" stroke="#191970" points="1035.2365,-138.2944 1044.7784,-133.6897 1034.4476,-131.3389 1035.2365,-138.2944"/>
</g>
<!-- Node6&#45;&gt;Node2 -->
<g id="edge9" class="edge">
<title>Node6&#45;&gt;Node2</title>
<path fill="none" stroke="#191970" d="M414.2608,-117.9099C422.0905,-101.7492 440.3618,-69.5318 466.9628,-56 546.7317,-15.4218 1167.3431,-35.474 1294.9948,-19.3163"/>
<polygon fill="#191970" stroke="#191970" points="1295.8248,-22.7299 1305.1772,-17.7517 1294.7617,-15.8111 1295.8248,-22.7299"/>
</g>
<!-- Node6&#45;&gt;Node4 -->
<g id="edge11" class="edge">
<title>Node6&#45;&gt;Node4</title>
<path fill="none" stroke="#191970" d="M368.2346,-117.9716C326.8705,-108.4222 261.4677,-93.0443 195.4175,-76.0518"/>
<polygon fill="#191970" stroke="#191970" points="196.2281,-72.6464 185.6705,-73.5335 194.477,-79.4238 196.2281,-72.6464"/>
</g>
<!-- Node6&#45;&gt;Node5 -->
<g id="edge12" class="edge">
<title>Node6&#45;&gt;Node5</title>
<path fill="none" stroke="#191970" d="M389.4934,-117.9868C359.3254,-104.0364 301.0772,-77.369 250.9628,-56 224.2848,-44.6244 193.8073,-32.3641 171.0811,-23.3637"/>
<polygon fill="#191970" stroke="#191970" points="172.1252,-20.013 161.5386,-19.5956 169.5542,-26.5238 172.1252,-20.013"/>
</g>
<!-- Node7 -->
<g id="node8" class="node">
<title>Node7</title>
<polygon fill="none" stroke="#bfbfbf" points="476.4628,-56.5 476.4628,-75.5 535.4628,-75.5 535.4628,-56.5 476.4628,-56.5"/>
<text text-anchor="middle" x="505.9628" y="-63.5" font-family="Helvetica,sans-Serif" font-size="10.00" fill="#000000">exception</text>
</g>
<!-- Node6&#45;&gt;Node7 -->
<g id="edge7" class="edge">
<title>Node6&#45;&gt;Node7</title>
<path fill="none" stroke="#191970" d="M424.9628,-117.8906C440.3208,-108.0519 464.4148,-92.6167 482.3373,-81.1351"/>
<polygon fill="#191970" stroke="#191970" points="484.5358,-83.8833 491.0681,-75.5419 480.7597,-77.9891 484.5358,-83.8833"/>
</g>
<!-- Node8 -->
<g id="node9" class="node">
<title>Node8</title>
<polygon fill="none" stroke="#bfbfbf" points="336.4628,-56.5 336.4628,-75.5 381.4628,-75.5 381.4628,-56.5 336.4628,-56.5"/>
<text text-anchor="middle" x="358.9628" y="-63.5" font-family="Helvetica,sans-Serif" font-size="10.00" fill="#000000">iosfwd</text>
</g>
<!-- Node6&#45;&gt;Node8 -->
<g id="edge8" class="edge">
<title>Node6&#45;&gt;Node8</title>
<path fill="none" stroke="#191970" d="M401.994,-117.8906C394.4037,-108.7376 382.7967,-94.7409 373.5496,-83.59"/>
<polygon fill="#191970" stroke="#191970" points="376.1214,-81.2083 367.0439,-75.7449 370.7331,-85.6766 376.1214,-81.2083"/>
</g>
<!-- Node9 -->
<g id="node10" class="node">
<title>Node9</title>
<polygon fill="none" stroke="#bfbfbf" points="561.9628,-.5 561.9628,-19.5 607.9628,-19.5 607.9628,-.5 561.9628,-.5"/>
<text text-anchor="middle" x="584.9628" y="-7.5" font-family="Helvetica,sans-Serif" font-size="10.00" fill="#000000">cstdint</text>
</g>
<!-- Node6&#45;&gt;Node9 -->
<g id="edge10" class="edge">
<title>Node6&#45;&gt;Node9</title>
<path fill="none" stroke="#191970" d="M410.491,-117.6995C411.8476,-102.384 416.6887,-72.7947 433.9628,-56 450.7823,-39.6473 512.6377,-24.5938 551.7708,-16.4152"/>
<polygon fill="#191970" stroke="#191970" points="552.573,-19.8237 561.6691,-14.3914 551.1707,-12.9656 552.573,-19.8237"/>
</g>
<!-- Node10&#45;&gt;Node4 -->
<g id="edge17" class="edge">
<title>Node10&#45;&gt;Node4</title>
<path fill="none" stroke="#191970" d="M239.7876,-112.4554C222.874,-102.734 200.9798,-90.15 184.2455,-80.5317"/>
<polygon fill="#191970" stroke="#191970" points="185.958,-77.4791 175.544,-75.5303 182.4698,-83.548 185.958,-77.4791"/>
</g>
<!-- Node10&#45;&gt;Node8 -->
<g id="edge16" class="edge">
<title>Node10&#45;&gt;Node8</title>
<path fill="none" stroke="#191970" d="M288.9515,-112.2977C303.1594,-102.9022 321.3412,-90.8787 335.6153,-81.4395"/>
<polygon fill="#191970" stroke="#191970" points="337.9394,-84.0986 344.35,-75.6633 334.0783,-78.2598 337.9394,-84.0986"/>
</g>
<!-- Node10&#45;&gt;Node9 -->
<g id="edge15" class="edge">
<title>Node10&#45;&gt;Node9</title>
<path fill="none" stroke="#191970" d="M274.3825,-112.4966C284.5661,-95.8488 303.3216,-69.5505 326.9628,-56 364.8523,-34.2828 491.0005,-19.269 551.7305,-13.1175"/>
<polygon fill="#191970" stroke="#191970" points="552.3231,-16.576 561.9287,-12.1058 551.632,-9.6102 552.3231,-16.576"/>
</g>
<!-- Node11 -->
<g id="node12" class="node">
<title>Node11</title>
<polygon fill="none" stroke="#bfbfbf" points="203.9628,-56.5 203.9628,-75.5 241.9628,-75.5 241.9628,-56.5 203.9628,-56.5"/>
<text text-anchor="middle" x="222.9628" y="-63.5" font-family="Helvetica,sans-Serif" font-size="10.00" fill="#000000">array</text>
</g>
<!-- Node10&#45;&gt;Node11 -->
<g id="edge14" class="edge">
<title>Node10&#45;&gt;Node11</title>
<path fill="none" stroke="#191970" d="M255.3335,-112.2977C249.3647,-103.7609 241.8789,-93.0545 235.6099,-84.0883"/>
<polygon fill="#191970" stroke="#191970" points="238.4462,-82.0368 229.8476,-75.8469 232.7094,-86.048 238.4462,-82.0368"/>
</g>
<!-- Node12&#45;&gt;Node4 -->
<g id="edge21" class="edge">
<title>Node12&#45;&gt;Node4</title>
<path fill="none" stroke="#191970" d="M108.5246,-112.2977C118.3092,-103.3163 130.7101,-91.9334 140.767,-82.702"/>
<polygon fill="#191970" stroke="#191970" points="143.235,-85.1876 148.2352,-75.8469 138.5014,-80.0307 143.235,-85.1876"/>
</g>
<!-- Node12&#45;&gt;Node5 -->
<g id="edge22" class="edge">
<title>Node12&#45;&gt;Node5</title>
<path fill="none" stroke="#191970" d="M59.79,-112.4482C35.3706,-98.8663 8.2953,-77.735 22.9628,-56 39.8256,-31.0117 72.7859,-19.5943 98.9461,-14.3795"/>
<polygon fill="#191970" stroke="#191970" points="99.7115,-17.7985 108.9508,-12.6134 98.4946,-10.9051 99.7115,-17.7985"/>
</g>
<!-- Node12&#45;&gt;Node9 -->
<g id="edge19" class="edge">
<title>Node12&#45;&gt;Node9</title>
<path fill="none" stroke="#191970" d="M93.9803,-112.413C97.0806,-95.6886 104.7119,-69.32 122.9628,-56 157.4744,-30.8124 451.728,-15.7929 551.8032,-11.3761"/>
<polygon fill="#191970" stroke="#191970" points="552.1085,-14.8662 561.9472,-10.9355 551.8047,-7.8728 552.1085,-14.8662"/>
</g>
<!-- Node13 -->
<g id="node14" class="node">
<title>Node13</title>
<polygon fill="none" stroke="#bfbfbf" points="31.9628,-56.5 31.9628,-75.5 75.9628,-75.5 75.9628,-56.5 31.9628,-56.5"/>
<text text-anchor="middle" x="53.9628" y="-63.5" font-family="Helvetica,sans-Serif" font-size="10.00" fill="#000000">vector</text>
</g>
<!-- Node12&#45;&gt;Node13 -->
<g id="edge20" class="edge">
<title>Node12&#45;&gt;Node13</title>
<path fill="none" stroke="#191970" d="M82.5695,-112.2977C77.3497,-103.8498 70.817,-93.2773 65.3127,-84.369"/>
<polygon fill="#191970" stroke="#191970" points="68.281,-82.5143 60.047,-75.8469 62.326,-86.1938 68.281,-82.5143"/>
</g>
<!-- Node14&#45;&gt;Node9 -->
<g id="edge24" class="edge">
<title>Node14&#45;&gt;Node9</title>
<path fill="none" stroke="#191970" d="M730.7073,-56.3733C699.3127,-46.3841 650.3627,-30.8091 617.9823,-20.5062"/>
<polygon fill="#191970" stroke="#191970" points="618.6851,-17.057 608.0946,-17.3601 616.5627,-23.7275 618.6851,-17.057"/>
</g>
<!-- Node15&#45;&gt;Node14 -->
<g id="edge29" class="edge">
<title>Node15&#45;&gt;Node14</title>
<path fill="none" stroke="#191970" d="M1044.8314,-117.9581C984.9049,-106.9894 886.628,-89.0012 822.8659,-77.3305"/>
<polygon fill="#191970" stroke="#191970" points="823.4067,-73.8714 812.9399,-75.5137 822.1463,-80.757 823.4067,-73.8714"/>
</g>
<!-- Node16 -->
<g id="node17" class="node">
<title>Node16</title>
<g id="a_node17"><a xlink:href="../../df/d21/GPUCommonDef_8h.html" target="_top" xlink:title="GPUCommonDef.h">
<polygon fill="none" stroke="#000000" points="1225.9628,-56.5 1225.9628,-75.5 1327.9628,-75.5 1327.9628,-56.5 1225.9628,-56.5"/>
<text text-anchor="middle" x="1276.9628" y="-63.5" font-family="Helvetica,sans-Serif" font-size="10.00" fill="#000000">GPUCommonDef.h</text>
</a>
</g>
</g>
<!-- Node15&#45;&gt;Node16 -->
<g id="edge26" class="edge">
<title>Node15&#45;&gt;Node16</title>
<path fill="none" stroke="#191970" d="M1125.0878,-117.8906C1155.8655,-107.3749 1205.3548,-90.466 1239.4283,-78.8243"/>
<polygon fill="#191970" stroke="#191970" points="1240.704,-82.0871 1249.0353,-75.5419 1238.4407,-75.4631 1240.704,-82.0871"/>
</g>
<!-- Node19 -->
<g id="node20" class="node">
<title>Node19</title>
<polygon fill="none" stroke="#bfbfbf" points="1145.9628,-56.5 1145.9628,-75.5 1207.9628,-75.5 1207.9628,-56.5 1145.9628,-56.5"/>
<text text-anchor="middle" x="1176.9628" y="-63.5" font-family="Helvetica,sans-Serif" font-size="10.00" fill="#000000">type_traits</text>
</g>
<!-- Node15&#45;&gt;Node19 -->
<g id="edge30" class="edge">
<title>Node15&#45;&gt;Node19</title>
<path fill="none" stroke="#191970" d="M1109.4628,-117.8906C1122.0263,-108.2324 1141.6051,-93.1812 1156.4476,-81.771"/>
<polygon fill="#191970" stroke="#191970" points="1158.7556,-84.4115 1164.5505,-75.5419 1154.4893,-78.8618 1158.7556,-84.4115"/>
</g>
<!-- Node20 -->
<g id="node21" class="node">
<title>Node20</title>
<polygon fill="none" stroke="#bfbfbf" points="1364.4628,-.5 1364.4628,-19.5 1423.4628,-19.5 1423.4628,-.5 1364.4628,-.5"/>
<text text-anchor="middle" x="1393.9628" y="-7.5" font-family="Helvetica,sans-Serif" font-size="10.00" fill="#000000">stdexcept</text>
</g>
<!-- Node15&#45;&gt;Node20 -->
<g id="edge31" class="edge">
<title>Node15&#45;&gt;Node20</title>
<path fill="none" stroke="#191970" d="M1149.2016,-120.2607C1209.9087,-111.1656 1305.7538,-94.4922 1336.9628,-76 1356.5942,-64.3678 1372.8672,-43.5554 1382.9316,-28.4044"/>
<polygon fill="#191970" stroke="#191970" points="1385.9668,-30.1537 1388.3703,-19.835 1380.0566,-26.4026 1385.9668,-30.1537"/>
</g>
<!-- Node17 -->
<g id="node18" class="node">
<title>Node17</title>
<g id="a_node18"><a xlink:href="../../d5/d93/GPUCommonDefSettings_8h.html" target="_top" xlink:title="GPUCommonDefSettings.h">
<polygon fill="none" stroke="#000000" points="1148.9628,-.5 1148.9628,-19.5 1286.9628,-19.5 1286.9628,-.5 1148.9628,-.5"/>
<text text-anchor="middle" x="1217.9628" y="-7.5" font-family="Helvetica,sans-Serif" font-size="10.00" fill="#000000">GPUCommonDefSettings.h</text>
</a>
</g>
</g>
<!-- Node16&#45;&gt;Node17 -->
<g id="edge27" class="edge">
<title>Node16&#45;&gt;Node17</title>
<path fill="none" stroke="#191970" d="M1266.6857,-56.2455C1258.1409,-48.1352 1245.785,-36.4075 1235.6542,-26.7919"/>
<polygon fill="#191970" stroke="#191970" points="1237.7846,-23.9884 1228.122,-19.6427 1232.9656,-29.0655 1237.7846,-23.9884"/>
</g>
<!-- Node18 -->
<g id="node19" class="node">
<title>Node18</title>
<g id="a_node19"><a xlink:href="../../da/d5a/GPUCommonDefAPI_8h.html" target="_top" xlink:title="GPUCommonDefAPI.h">
<polygon fill="none" stroke="#000000" points="1011.4628,-.5 1011.4628,-19.5 1130.4628,-19.5 1130.4628,-.5 1011.4628,-.5"/>
<text text-anchor="middle" x="1070.9628" y="-7.5" font-family="Helvetica,sans-Serif" font-size="10.00" fill="#000000">GPUCommonDefAPI.h</text>
</a>
</g>
</g>
<!-- Node16&#45;&gt;Node18 -->
<g id="edge28" class="edge">
<title>Node16&#45;&gt;Node18</title>
<path fill="none" stroke="#191970" d="M1241.5501,-56.3733C1206.7023,-46.9001 1153.3746,-32.4032 1115.6334,-22.1435"/>
<polygon fill="#191970" stroke="#191970" points="1116.4813,-18.747 1105.9133,-19.5011 1114.645,-25.5019 1116.4813,-18.747"/>
</g>
<!-- Node21&#45;&gt;Node7 -->
<g id="edge33" class="edge">
<title>Node21&#45;&gt;Node7</title>
<path fill="none" stroke="#191970" d="M531.5222,-179.2548C526.2683,-155.9744 516.2449,-111.5607 510.4339,-85.8117"/>
<polygon fill="#191970" stroke="#191970" points="513.7756,-84.7199 508.1599,-75.7358 506.9473,-86.261 513.7756,-84.7199"/>
</g>
<!-- Node22&#45;&gt;Node14 -->
<g id="edge38" class="edge">
<title>Node22&#45;&gt;Node14</title>
<path fill="none" stroke="#191970" d="M840.1025,-184.9378C820.4369,-176.7805 795.0067,-163.1376 779.9628,-143 767.5091,-126.3297 763.1377,-102.5076 761.6461,-85.787"/>
<polygon fill="#191970" stroke="#191970" points="765.1218,-85.2851 761.0096,-75.5209 758.1352,-85.7183 765.1218,-85.2851"/>
</g>
<!-- Node22&#45;&gt;Node15 -->
<g id="edge39" class="edge">
<title>Node22&#45;&gt;Node15</title>
<path fill="none" stroke="#191970" d="M900.7729,-184.9005C941.2448,-173.0594 1010.1293,-152.9054 1054.5721,-139.9025"/>
<polygon fill="#191970" stroke="#191970" points="1055.5987,-143.249 1064.2135,-137.0817 1053.633,-136.5306 1055.5987,-143.249"/>
</g>
<!-- Node22&#45;&gt;Node16 -->
<g id="edge35" class="edge">
<title>Node22&#45;&gt;Node16</title>
<path fill="none" stroke="#191970" d="M935.0798,-190.1708C995.2122,-184.5397 1084.9261,-171.7517 1157.9628,-143 1196.1671,-127.9605 1235.1218,-99.8161 1257.6196,-82.0381"/>
<polygon fill="#191970" stroke="#191970" points="1260.072,-84.5572 1265.6688,-75.5613 1255.6836,-79.1036 1260.072,-84.5572"/>
</g>
<!-- Node23 -->
<g id="node24" class="node">
<title>Node23</title>
<g id="a_node24"><a xlink:href="../../d2/d45/GPUCommonRtypes_8h.html" target="_top" xlink:title="GPUCommonRtypes.h">
<polygon fill="none" stroke="#000000" points="553.9628,-56.5 553.9628,-75.5 671.9628,-75.5 671.9628,-56.5 553.9628,-56.5"/>
<text text-anchor="middle" x="612.9628" y="-63.5" font-family="Helvetica,sans-Serif" font-size="10.00" fill="#000000">GPUCommonRtypes.h</text>
</a>
</g>
</g>
<!-- Node22&#45;&gt;Node23 -->
<g id="edge36" class="edge">
<title>Node22&#45;&gt;Node23</title>
<path fill="none" stroke="#191970" d="M848.1703,-184.9255C827.0221,-174.6641 792.542,-157.8444 762.9628,-143 719.9968,-121.4374 670.4268,-95.8519 640.4078,-80.2786"/>
<polygon fill="#191970" stroke="#191970" points="641.8694,-77.0939 631.3815,-75.592 638.6437,-83.3064 641.8694,-77.0939"/>
</g>
<!-- Node24 -->
<g id="node25" class="node">
<title>Node24</title>
<g id="a_node25"><a xlink:href="../../d9/d80/InteractionRecord_8h.html" target="_top" xlink:title="CommonDataFormat/Interaction\lRecord.h">
<polygon fill="none" stroke="#000000" points="789.4628,-112.5 789.4628,-142.5 946.4628,-142.5 946.4628,-112.5 789.4628,-112.5"/>
<text text-anchor="start" x="797.4628" y="-130.5" font-family="Helvetica,sans-Serif" font-size="10.00" fill="#000000">CommonDataFormat/Interaction</text>
<text text-anchor="middle" x="867.9628" y="-119.5" font-family="Helvetica,sans-Serif" font-size="10.00" fill="#000000">Record.h</text>
</a>
</g>
</g>
<!-- Node22&#45;&gt;Node24 -->
<g id="edge40" class="edge">
<title>Node22&#45;&gt;Node24</title>
<path fill="none" stroke="#191970" d="M867.9628,-184.9005C867.9628,-176.5099 867.9628,-163.9451 867.9628,-152.7085"/>
<polygon fill="#191970" stroke="#191970" points="871.4629,-152.5217 867.9628,-142.5218 864.4629,-152.5218 871.4629,-152.5217"/>
</g>
<!-- Node27 -->
<g id="node28" class="node">
<title>Node27</title>
<g id="a_node28"><a xlink:href="../../d7/d34/DAQID_8h.html" target="_top" xlink:title="Headers/DAQID.h">
<polygon fill="none" stroke="#000000" points="1432.4628,-118 1432.4628,-137 1529.4628,-137 1529.4628,-118 1432.4628,-118"/>
<text text-anchor="middle" x="1480.9628" y="-125" font-family="Helvetica,sans-Serif" font-size="10.00" fill="#000000">Headers/DAQID.h</text>
</a>
</g>
</g>
<!-- Node22&#45;&gt;Node27 -->
<g id="edge46" class="edge">
<title>Node22&#45;&gt;Node27</title>
<path fill="none" stroke="#191970" d="M935.0245,-187.1703C1055.7994,-173.9697 1307.9246,-146.4128 1422.296,-133.9122"/>
<polygon fill="#191970" stroke="#191970" points="1422.7073,-137.3882 1432.2678,-132.8223 1421.9467,-130.4296 1422.7073,-137.3882"/>
</g>
<!-- Node23&#45;&gt;Node5 -->
<g id="edge37" class="edge">
<title>Node23&#45;&gt;Node5</title>
<path fill="none" stroke="#191970" d="M553.8845,-57.3135C550.5292,-56.859 547.2041,-56.4179 543.9628,-56 408.5148,-38.535 247.2287,-21.3852 175.1056,-13.9074"/>
<polygon fill="#191970" stroke="#191970" points="175.4321,-10.4225 165.1252,-12.8754 174.7121,-17.3854 175.4321,-10.4225"/>
</g>
<!-- Node24&#45;&gt;Node8 -->
<g id="edge42" class="edge">
<title>Node24&#45;&gt;Node8</title>
<path fill="none" stroke="#191970" d="M789.2687,-117.9918C675.9997,-104.306 471.8739,-79.6425 392.1431,-70.009"/>
<polygon fill="#191970" stroke="#191970" points="392.0884,-66.477 381.7408,-68.7522 391.2487,-73.4265 392.0884,-66.477"/>
</g>
<!-- Node24&#45;&gt;Node9 -->
<g id="edge43" class="edge">
<title>Node24&#45;&gt;Node9</title>
<path fill="none" stroke="#191970" d="M866.3528,-112.4127C863.7561,-95.9442 857.0581,-70.0523 839.9628,-56 806.6057,-28.5807 679.8792,-16.4168 618.5765,-12.0475"/>
<polygon fill="#191970" stroke="#191970" points="618.4918,-8.5336 608.2763,-11.3431 618.0142,-15.5173 618.4918,-8.5336"/>
</g>
<!-- Node24&#45;&gt;Node23 -->
<g id="edge41" class="edge">
<title>Node24&#45;&gt;Node23</title>
<path fill="none" stroke="#191970" d="M805.5827,-112.4554C761.4491,-101.8114 703.0859,-87.7356 662.2141,-77.8783"/>
<polygon fill="#191970" stroke="#191970" points="663.0206,-74.4725 652.4787,-75.5303 661.3794,-81.2774 663.0206,-74.4725"/>
</g>
<!-- Node25 -->
<g id="node26" class="node">
<title>Node25</title>
<polygon fill="none" stroke="#bfbfbf" points="887.9628,-56.5 887.9628,-75.5 931.9628,-75.5 931.9628,-56.5 887.9628,-56.5"/>
<text text-anchor="middle" x="909.9628" y="-63.5" font-family="Helvetica,sans-Serif" font-size="10.00" fill="#000000">cmath</text>
</g>
<!-- Node24&#45;&gt;Node25 -->
<g id="edge44" class="edge">
<title>Node24&#45;&gt;Node25</title>
<path fill="none" stroke="#191970" d="M878.3448,-112.2977C884.1141,-103.8498 891.3343,-93.2773 897.418,-84.369"/>
<polygon fill="#191970" stroke="#191970" points="900.4887,-86.0788 903.238,-75.8469 894.7081,-82.1311 900.4887,-86.0788"/>
</g>
<!-- Node26 -->
<g id="node27" class="node">
<title>Node26</title>
<g id="a_node27"><a xlink:href="../../d4/dc6/LHCConstants_8h.html" target="_top" xlink:title="Header to collect LHC related constants. ">
<polygon fill="none" stroke="#000000" points="949.9628,-56.5 949.9628,-75.5 1127.9628,-75.5 1127.9628,-56.5 949.9628,-56.5"/>
<text text-anchor="middle" x="1038.9628" y="-63.5" font-family="Helvetica,sans-Serif" font-size="10.00" fill="#000000">CommonConstants/LHCConstants.h</text>
</a>
</g>
</g>
<!-- Node24&#45;&gt;Node26 -->
<g id="edge45" class="edge">
<title>Node24&#45;&gt;Node26</title>
<path fill="none" stroke="#191970" d="M909.7941,-112.4554C938.3259,-102.194 975.7263,-88.7429 1002.9357,-78.9571"/>
<polygon fill="#191970" stroke="#191970" points="1004.2384,-82.2081 1012.4638,-75.5303 1001.8694,-75.6212 1004.2384,-82.2081"/>
</g>
<!-- Node28 -->
<g id="node29" class="node">
<title>Node28</title>
<g id="a_node29"><a xlink:href="../../dc/dcd/DataHeader_8h.html" target="_top" xlink:title="Headers/DataHeader.h">
<polygon fill="none" stroke="#000000" points="1471.4628,-56.5 1471.4628,-75.5 1588.4628,-75.5 1588.4628,-56.5 1471.4628,-56.5"/>
<text text-anchor="middle" x="1529.9628" y="-63.5" font-family="Helvetica,sans-Serif" font-size="10.00" fill="#000000">Headers/DataHeader.h</text>
</a>
</g>
</g>
<!-- Node27&#45;&gt;Node28 -->
<g id="edge47" class="edge">
<title>Node27&#45;&gt;Node28</title>
<path fill="none" stroke="#191970" d="M1488.619,-117.8906C1495.9117,-108.7376 1507.0635,-94.7409 1515.948,-83.59"/>
<polygon fill="#191970" stroke="#191970" points="1518.7045,-85.747 1522.1986,-75.7449 1513.2297,-81.3849 1518.7045,-85.747"/>
</g>
<!-- Node28&#45;&gt;Node2 -->
<g id="edge54" class="edge">
<title>Node28&#45;&gt;Node2</title>
<path fill="none" stroke="#191970" d="M1491.0655,-56.4669C1457.7459,-48.1336 1408.29,-35.3704 1356.2991,-19.9649"/>
<polygon fill="#191970" stroke="#191970" points="1357.1485,-16.5659 1346.5651,-17.058 1355.1454,-23.2732 1357.1485,-16.5659"/>
</g>
<!-- Node28&#45;&gt;Node9 -->
<g id="edge48" class="edge">
<title>Node28&#45;&gt;Node9</title>
<path fill="none" stroke="#191970" d="M1471.2058,-62.5181C1292.1943,-51.91 757.3392,-20.2149 618.2953,-11.9753"/>
<polygon fill="#191970" stroke="#191970" points="618.4369,-8.4776 608.2474,-11.3798 618.0228,-15.4653 618.4369,-8.4776"/>
</g>
<!-- Node28&#45;&gt;Node20 -->
<g id="edge53" class="edge">
<title>Node28&#45;&gt;Node20</title>
<path fill="none" stroke="#191970" d="M1506.5835,-56.3733C1484.4583,-47.2629 1451.0493,-33.5062 1426.3608,-23.3404"/>
<polygon fill="#191970" stroke="#191970" points="1427.6164,-20.0723 1417.0369,-19.5011 1424.9511,-26.5451 1427.6164,-20.0723"/>
</g>
<!-- Node29 -->
<g id="node30" class="node">
<title>Node29</title>
<polygon fill="none" stroke="#bfbfbf" points="1503.9628,-.5 1503.9628,-19.5 1555.9628,-19.5 1555.9628,-.5 1503.9628,-.5"/>
<text text-anchor="middle" x="1529.9628" y="-7.5" font-family="Helvetica,sans-Serif" font-size="10.00" fill="#000000">memory</text>
</g>
<!-- Node28&#45;&gt;Node29 -->
<g id="edge49" class="edge">
<title>Node28&#45;&gt;Node29</title>
<path fill="none" stroke="#191970" d="M1529.9628,-56.2455C1529.9628,-48.9382 1529.9628,-38.6944 1529.9628,-29.7046"/>
<polygon fill="#191970" stroke="#191970" points="1533.4629,-29.6426 1529.9628,-19.6427 1526.4629,-29.6427 1533.4629,-29.6426"/>
</g>
<!-- Node30 -->
<g id="node31" class="node">
<title>Node30</title>
<polygon fill="none" stroke="#bfbfbf" points="1574.4628,-.5 1574.4628,-19.5 1623.4628,-19.5 1623.4628,-.5 1574.4628,-.5"/>
<text text-anchor="middle" x="1598.9628" y="-7.5" font-family="Helvetica,sans-Serif" font-size="10.00" fill="#000000">cassert</text>
</g>
<!-- Node28&#45;&gt;Node30 -->
<g id="edge50" class="edge">
<title>Node28&#45;&gt;Node30</title>
<path fill="none" stroke="#191970" d="M1541.9816,-56.2455C1552.1726,-47.9746 1566.999,-35.9416 1578.9734,-26.2232"/>
<polygon fill="#191970" stroke="#191970" points="1581.5226,-28.662 1587.0816,-19.6427 1577.1114,-23.2268 1581.5226,-28.662"/>
</g>
<!-- Node31 -->
<g id="node32" class="node">
<title>Node31</title>
<polygon fill="none" stroke="#bfbfbf" points="1641.9628,-.5 1641.9628,-19.5 1687.9628,-19.5 1687.9628,-.5 1641.9628,-.5"/>
<text text-anchor="middle" x="1664.9628" y="-7.5" font-family="Helvetica,sans-Serif" font-size="10.00" fill="#000000">cstring</text>
</g>
<!-- Node28&#45;&gt;Node31 -->
<g id="edge51" class="edge">
<title>Node28&#45;&gt;Node31</title>
<path fill="none" stroke="#191970" d="M1553.1701,-56.3733C1575.1326,-47.2629 1608.2959,-33.5062 1632.8029,-23.3404"/>
<polygon fill="#191970" stroke="#191970" points="1634.1625,-26.5657 1642.0583,-19.5011 1631.4804,-20.0999 1634.1625,-26.5657"/>
</g>
<!-- Node32 -->
<g id="node33" class="node">
<title>Node32</title>
<polygon fill="none" stroke="#bfbfbf" points="1705.9628,-.5 1705.9628,-19.5 1761.9628,-19.5 1761.9628,-.5 1705.9628,-.5"/>
<text text-anchor="middle" x="1733.9628" y="-7.5" font-family="Helvetica,sans-Serif" font-size="10.00" fill="#000000">algorithm</text>
</g>
<!-- Node28&#45;&gt;Node32 -->
<g id="edge52" class="edge">
<title>Node28&#45;&gt;Node32</title>
<path fill="none" stroke="#191970" d="M1565.0316,-56.3733C1601.4768,-46.3687 1658.3332,-30.7611 1695.8635,-20.4586"/>
<polygon fill="#191970" stroke="#191970" points="1697.1867,-23.7249 1705.9035,-17.7026 1695.3337,-16.9747 1697.1867,-23.7249"/>
</g>
<!-- Node33 -->
<g id="node34" class="node">
<title>Node33</title>
<polygon fill="none" stroke="#bfbfbf" points="1780.4628,-.5 1780.4628,-19.5 1825.4628,-19.5 1825.4628,-.5 1780.4628,-.5"/>
<text text-anchor="middle" x="1802.9628" y="-7.5" font-family="Helvetica,sans-Serif" font-size="10.00" fill="#000000">climits</text>
</g>
<!-- Node28&#45;&gt;Node33 -->
<g id="edge55" class="edge">
<title>Node28&#45;&gt;Node33</title>
<path fill="none" stroke="#191970" d="M1588.811,-56.7015C1635.5614,-48.875 1702.7445,-36.653 1770.3524,-19.9254"/>
<polygon fill="#191970" stroke="#191970" points="1771.4792,-23.2513 1780.328,-17.4246 1769.7771,-16.4613 1771.4792,-23.2513"/>
</g>
<!-- Node34 -->
<g id="node35" class="node">
<title>Node34</title>
<g id="a_node35"><a xlink:href="../../d7/df8/Types_8h.html" target="_top" xlink:title="MemoryResources/Types.h">
<polygon fill="none" stroke="#000000" points="1843.4628,-.5 1843.4628,-19.5 1980.4628,-19.5 1980.4628,-.5 1843.4628,-.5"/>
<text text-anchor="middle" x="1911.9628" y="-7.5" font-family="Helvetica,sans-Serif" font-size="10.00" fill="#000000">MemoryResources/Types.h</text>
</a>
</g>
</g>
<!-- Node28&#45;&gt;Node34 -->
<g id="edge56" class="edge">
<title>Node28&#45;&gt;Node34</title>
<path fill="none" stroke="#191970" d="M1588.8131,-57.3727C1655.4743,-47.6004 1764.2591,-31.6529 1836.9577,-20.9955"/>
<polygon fill="#191970" stroke="#191970" points="1837.5816,-24.4415 1846.9681,-19.528 1836.5662,-17.5156 1837.5816,-24.4415"/>
</g>
<!-- Node35 -->
<g id="node36" class="node">
<title>Node35</title>
<polygon fill="none" stroke="#bfbfbf" points="1441.9628,-.5 1441.9628,-19.5 1485.9628,-19.5 1485.9628,-.5 1441.9628,-.5"/>
<text text-anchor="middle" x="1463.9628" y="-7.5" font-family="Helvetica,sans-Serif" font-size="10.00" fill="#000000">cerrno</text>
</g>
<!-- Node28&#45;&gt;Node35 -->
<g id="edge57" class="edge">
<title>Node28&#45;&gt;Node35</title>
<path fill="none" stroke="#191970" d="M1518.4664,-56.2455C1508.7186,-47.9746 1494.5368,-35.9416 1483.083,-26.2232"/>
<polygon fill="#191970" stroke="#191970" points="1485.2169,-23.4437 1475.3273,-19.6427 1480.688,-28.7813 1485.2169,-23.4437"/>
</g>
</g>
</svg>
        <g id="navigator" transform="translate(0 0)" fill="#404254">
                <rect fill="#f2f5e9" fill-opacity="0.5" stroke="#606060" stroke-width=".5" x="0" y="0" width="60" height="60"/>
                <use id="zoomplus" xlink:href="#zoomPlus" x="17" y="9" onmousedown="handleZoom(evt,'in')"/>
                <use id="zoomminus" xlink:href="#zoomMin" x="42" y="9" onmousedown="handleZoom(evt,'out')"/>
                <use id="reset" xlink:href="#resetDef" x="30" y="36" onmousedown="handleReset()"/>
                <g id="arrowUp" xlink:href="#dirArrow" transform="translate(30 24)" onmousedown="handlePan(0,-1)">
                  <use xlink:href="#rim" fill="#404040">
                        <set attributeName="fill" to="#808080" begin="arrowUp.mouseover" end="arrowUp.mouseout"/>
                  </use>
                  <path fill="none" stroke="white" stroke-width="1.5" d="M0,-3.0v7 M-2.5,-0.5L0,-3.0L2.5,-0.5"/>
                </g>
                <g id="arrowRight" xlink:href="#dirArrow" transform="rotate(90) translate(36 -43)" onmousedown="handlePan(1,0)">
                  <use xlink:href="#rim" fill="#404040">
                        <set attributeName="fill" to="#808080" begin="arrowRight.mouseover" end="arrowRight.mouseout"/>
                  </use>
                  <path fill="none" stroke="white" stroke-width="1.5" d="M0,-3.0v7 M-2.5,-0.5L0,-3.0L2.5,-0.5"/>
                </g>
                <g id="arrowDown" xlink:href="#dirArrow" transform="rotate(180) translate(-30 -48)" onmousedown="handlePan(0,1)">
                  <use xlink:href="#rim" fill="#404040">
                        <set attributeName="fill" to="#808080" begin="arrowDown.mouseover" end="arrowDown.mouseout"/>
                  </use>
                  <path fill="none" stroke="white" stroke-width="1.5" d="M0,-3.0v7 M-2.5,-0.5L0,-3.0L2.5,-0.5"/>
                </g>
                <g id="arrowLeft" xlink:href="#dirArrow" transform="rotate(270) translate(-36 17)" onmousedown="handlePan(-1,0)">
                  <use xlink:href="#rim" fill="#404040">
                        <set attributeName="fill" to="#808080" begin="arrowLeft.mouseover" end="arrowLeft.mouseout"/>
                  </use>
                  <path fill="none" stroke="white" stroke-width="1.5" d="M0,-3.0v7 M-2.5,-0.5L0,-3.0L2.5,-0.5"/>
                </g>
        </g>
        <svg viewBox="0 0 15 15" width="100%" height="30px" preserveAspectRatio="xMaxYMin meet">
         <g id="arrow_out" transform="scale(0.3 0.3)">
          <a xlink:href="EMCAL_2reconstruction_2src_2RawReaderMemory_8cxx__incl_org.svg" target="_base">
           <rect id="button" ry="5" rx="5" y="6" x="6" height="38" width="38"
                fill="#f2f5e9" fill-opacity="0.5" stroke="#606060" stroke-width="1.0"/>
           <path id="arrow"
             d="M 11.500037,31.436501 C 11.940474,20.09759 22.043105,11.32322 32.158766,21.979434 L 37.068811,17.246167 C 37.068811,17.246167 37.088388,32 37.088388,32 L 22.160133,31.978069 C 22.160133,31.978069 26.997745,27.140456 26.997745,27.140456 C 18.528582,18.264221 13.291696,25.230495 11.500037,31.436501 z"
             style="fill:#404040;"/>
          </a>
         </g>
        </svg>
</svg>
