<?xml version="1.0" encoding="UTF-8" standalone="no"?>
<!DOCTYPE svg PUBLIC "-//W3C//DTD SVG 1.1//EN"
 "http://www.w3.org/Graphics/SVG/1.1/DTD/svg11.dtd">
<!-- Generated by graphviz version 2.40.1 (20161225.0304)
 -->
<!-- Title: FairTask Pages: 1 -->
<!--zoomable 314 -->
<svg id="main" version="1.1" xmlns="http://www.w3.org/2000/svg" xmlns:xlink="http://www.w3.org/1999/xlink" xml:space="preserve" onload="init(evt)">
<style type="text/css"><![CDATA[
.edge:hover path { stroke: red; }
.edge:hover polygon { stroke: red; fill: red; }
]]></style>
<script type="text/javascript"><![CDATA[
var edges = document.getElementsByTagName('g');
if (edges && edges.length) {
  for (var i=0;i<edges.length;i++) {
    if (edges[i].id.substr(0,4)=='edge') {
      edges[i].setAttribute('class','edge');
    }
  }
}
]]></script>
        <defs>
                <circle id="rim" cx="0" cy="0" r="7"/>
                <circle id="rim2" cx="0" cy="0" r="3.5"/>
                <g id="zoomPlus">
                        <use xlink:href="#rim" fill="#404040">
                                <set attributeName="fill" to="#808080" begin="zoomplus.mouseover" end="zoomplus.mouseout"/>
                        </use>
                        <path d="M-4,0h8M0,-4v8" fill="none" stroke="white" stroke-width="1.5" pointer-events="none"/>
                </g>
                <g id="zoomMin">
                        <use xlink:href="#rim" fill="#404040">
                                <set attributeName="fill" to="#808080" begin="zoomminus.mouseover" end="zoomminus.mouseout"/>
                        </use>
                        <path d="M-4,0h8" fill="none" stroke="white" stroke-width="1.5" pointer-events="none"/>
                </g>
                <g id="dirArrow">
                        <path fill="none" stroke="white" stroke-width="1.5" d="M0,-3.0v7 M-2.5,-0.5L0,-3.0L2.5,-0.5"/>
                </g>
               <g id="resetDef">
                       <use xlink:href="#rim2" fill="#404040">
                               <set attributeName="fill" to="#808080" begin="reset.mouseover" end="reset.mouseout"/>
                       </use>
               </g>
        </defs>

<script type="text/javascript">
var viewWidth = 940;
var viewHeight = 314;
var sectionId = 'dynsection-0';
</script>
<script xlink:href="../../svgpan.js"/>
<svg id="graph" class="graph">
<g id="viewport">
<title>FairTask</title>
<!-- Node0 -->
<g id="node1" class="node">
<title>Node0</title>
<polygon fill="#bfbfbf" stroke="#000000" points="428.5,-248.5 428.5,-305.5 483.5,-305.5 483.5,-248.5 428.5,-248.5"/>
<text text-anchor="middle" x="456" y="-293.5" font-family="Helvetica,sans-Serif" font-size="10.00" fill="#000000">FairTask</text>
<polyline fill="none" stroke="#000000" points="428.5,-286.5 483.5,-286.5 "/>
<text text-anchor="middle" x="456" y="-274.5" font-family="Helvetica,sans-Serif" font-size="10.00" fill="#000000"> </text>
<polyline fill="none" stroke="#000000" points="428.5,-267.5 483.5,-267.5 "/>
<text text-anchor="middle" x="456" y="-255.5" font-family="Helvetica,sans-Serif" font-size="10.00" fill="#000000"> </text>
</g>
<!-- Node1 -->
<g id="node2" class="node">
<title>Node1</title>
<g id="a_node2"><a xlink:href="../../d1/d1d/classo2_1_1emcal_1_1DigitizerTask.html" target="_top" xlink:title="FairTask running EMCAL digitization. ">
<polygon fill="none" stroke="#000000" points="0,-39 0,-173 124,-173 124,-39 0,-39"/>
<text text-anchor="middle" x="62" y="-161" font-family="Helvetica,sans-Serif" font-size="10.00" fill="#000000">o2::emcal::DigitizerTask</text>
<polyline fill="none" stroke="#000000" points="0,-154 124,-154 "/>
<text text-anchor="middle" x="62" y="-142" font-family="Helvetica,sans-Serif" font-size="10.00" fill="#000000"> </text>
<polyline fill="none" stroke="#000000" points="0,-135 124,-135 "/>
<text text-anchor="start" x="8" y="-123" font-family="Helvetica,sans-Serif" font-size="10.00" fill="#000000">+ DigitizerTask()</text>
<text text-anchor="start" x="8" y="-112" font-family="Helvetica,sans-Serif" font-size="10.00" fill="#000000">+ ~DigitizerTask()</text>
<text text-anchor="start" x="8" y="-101" font-family="Helvetica,sans-Serif" font-size="10.00" fill="#000000">+ Init()</text>
<text text-anchor="start" x="8" y="-90" font-family="Helvetica,sans-Serif" font-size="10.00" fill="#000000">+ Exec()</text>
<text text-anchor="start" x="8" y="-79" font-family="Helvetica,sans-Serif" font-size="10.00" fill="#000000">+ FinishTask()</text>
<text text-anchor="start" x="8" y="-68" font-family="Helvetica,sans-Serif" font-size="10.00" fill="#000000">+ getDigitizer()</text>
<text text-anchor="start" x="8" y="-57" font-family="Helvetica,sans-Serif" font-size="10.00" fill="#000000">+ setFairTimeUnitInNS()</text>
<text text-anchor="start" x="8" y="-46" font-family="Helvetica,sans-Serif" font-size="10.00" fill="#000000">+ getFairTimeUnitInNS()</text>
</a>
</g>
</g>
<!-- Node0&#45;&gt;Node1 -->
<g id="edge1" class="edge">
<title>Node0&#45;&gt;Node1</title>
<path fill="none" stroke="#191970" d="M418.0681,-273.02C343.1544,-264.5783 179.4472,-243.0723 133,-212 118.1801,-202.0858 105.66,-187.9253 95.4587,-173.1694"/>
<polygon fill="none" stroke="#191970" points="418.1275,-276.5479 428.4521,-274.1702 418.8983,-269.5904 418.1275,-276.5479"/>
</g>
<!-- Node2 -->
<g id="node3" class="node">
<title>Node2</title>
<g id="a_node3"><a xlink:href="../../d5/d85/classo2_1_1ft0_1_1DigitizerTask.html" target="_top" xlink:title="{o2::ft0::DigitizerTask\n||+ DigitizerTask()\l+ ~DigitizerTask()\l+ Init()\l+ Exec()\l+ FinishTask()\l+ getDigitizer()\l+ setContinuous()\l+ isContinuous()\l+ setQEDInput()\l}">
<polygon fill="none" stroke="#000000" points="142,-33.5 142,-178.5 250,-178.5 250,-33.5 142,-33.5"/>
<text text-anchor="middle" x="196" y="-166.5" font-family="Helvetica,sans-Serif" font-size="10.00" fill="#000000">o2::ft0::DigitizerTask</text>
<polyline fill="none" stroke="#000000" points="142,-159.5 250,-159.5 "/>
<text text-anchor="middle" x="196" y="-147.5" font-family="Helvetica,sans-Serif" font-size="10.00" fill="#000000"> </text>
<polyline fill="none" stroke="#000000" points="142,-140.5 250,-140.5 "/>
<text text-anchor="start" x="150" y="-128.5" font-family="Helvetica,sans-Serif" font-size="10.00" fill="#000000">+ DigitizerTask()</text>
<text text-anchor="start" x="150" y="-117.5" font-family="Helvetica,sans-Serif" font-size="10.00" fill="#000000">+ ~DigitizerTask()</text>
<text text-anchor="start" x="150" y="-106.5" font-family="Helvetica,sans-Serif" font-size="10.00" fill="#000000">+ Init()</text>
<text text-anchor="start" x="150" y="-95.5" font-family="Helvetica,sans-Serif" font-size="10.00" fill="#000000">+ Exec()</text>
<text text-anchor="start" x="150" y="-84.5" font-family="Helvetica,sans-Serif" font-size="10.00" fill="#000000">+ FinishTask()</text>
<text text-anchor="start" x="150" y="-73.5" font-family="Helvetica,sans-Serif" font-size="10.00" fill="#000000">+ getDigitizer()</text>
<text text-anchor="start" x="150" y="-62.5" font-family="Helvetica,sans-Serif" font-size="10.00" fill="#000000">+ setContinuous()</text>
<text text-anchor="start" x="150" y="-51.5" font-family="Helvetica,sans-Serif" font-size="10.00" fill="#000000">+ isContinuous()</text>
<text text-anchor="start" x="150" y="-40.5" font-family="Helvetica,sans-Serif" font-size="10.00" fill="#000000">+ setQEDInput()</text>
</a>
</g>
</g>
<!-- Node0&#45;&gt;Node2 -->
<g id="edge2" class="edge">
<title>Node0&#45;&gt;Node2</title>
<path fill="none" stroke="#191970" d="M418.2913,-272.575C375.6175,-265.8881 305.9543,-249.7088 259,-212 247.5664,-202.8177 237.7409,-190.96 229.4815,-178.5161"/>
<polygon fill="none" stroke="#191970" points="417.8659,-276.05 428.2687,-274.0423 418.8843,-269.1245 417.8659,-276.05"/>
</g>
<!-- Node3 -->
<g id="node4" class="node">
<title>Node3</title>
<g id="a_node4"><a xlink:href="../../db/db5/classo2_1_1its_1_1HitAnalysis.html" target="_top" xlink:title="{o2::its::HitAnalysis\n||+ HitAnalysis()\l+ ~HitAnalysis()\l+ Init()\l+ Exec()\l+ FinishTask()\l# ProcessHits()\l}">
<polygon fill="none" stroke="#000000" points="268,-50 268,-162 368,-162 368,-50 268,-50"/>
<text text-anchor="middle" x="318" y="-150" font-family="Helvetica,sans-Serif" font-size="10.00" fill="#000000">o2::its::HitAnalysis</text>
<polyline fill="none" stroke="#000000" points="268,-143 368,-143 "/>
<text text-anchor="middle" x="318" y="-131" font-family="Helvetica,sans-Serif" font-size="10.00" fill="#000000"> </text>
<polyline fill="none" stroke="#000000" points="268,-124 368,-124 "/>
<text text-anchor="start" x="276" y="-112" font-family="Helvetica,sans-Serif" font-size="10.00" fill="#000000">+ HitAnalysis()</text>
<text text-anchor="start" x="276" y="-101" font-family="Helvetica,sans-Serif" font-size="10.00" fill="#000000">+ ~HitAnalysis()</text>
<text text-anchor="start" x="276" y="-90" font-family="Helvetica,sans-Serif" font-size="10.00" fill="#000000">+ Init()</text>
<text text-anchor="start" x="276" y="-79" font-family="Helvetica,sans-Serif" font-size="10.00" fill="#000000">+ Exec()</text>
<text text-anchor="start" x="276" y="-68" font-family="Helvetica,sans-Serif" font-size="10.00" fill="#000000">+ FinishTask()</text>
<text text-anchor="start" x="276" y="-57" font-family="Helvetica,sans-Serif" font-size="10.00" fill="#000000"># ProcessHits()</text>
</a>
</g>
</g>
<!-- Node0&#45;&gt;Node3 -->
<g id="edge3" class="edge">
<title>Node0&#45;&gt;Node3</title>
<path fill="none" stroke="#191970" d="M419.9039,-251.9229C405.4643,-240.7743 389.3618,-226.8231 377,-212 364.5225,-197.0383 353.3591,-179.0496 344.1891,-162.1748"/>
<polygon fill="none" stroke="#191970" points="418.0787,-254.9298 428.1728,-258.1485 422.2891,-249.3375 418.0787,-254.9298"/>
</g>
<!-- Node4 -->
<g id="node5" class="node">
<title>Node4</title>
<g id="a_node5"><a xlink:href="../../df/d23/classo2_1_1mft_1_1DigitizerTask.html" target="_top" xlink:title="{o2::mft::DigitizerTask\n||+ DigitizerTask()\l+ ~DigitizerTask()\l+ Init()\l+ Exec()\l+ FinishTask()\l+ getDigitizer()\l+ getDigiParams()\l+ getDigiParams()\l+ setContinuous()\l+ isContinuous()\l+ setFairTimeUnitInNS()\l+ getFairTimeUnitInNS()\l+ setAlpideROFramLength()\l+ getAlpideROFramLength()\l+ setQEDInput()\l}">
<polygon fill="none" stroke="#000000" points="386.5,-.5 386.5,-211.5 525.5,-211.5 525.5,-.5 386.5,-.5"/>
<text text-anchor="middle" x="456" y="-199.5" font-family="Helvetica,sans-Serif" font-size="10.00" fill="#000000">o2::mft::DigitizerTask</text>
<polyline fill="none" stroke="#000000" points="386.5,-192.5 525.5,-192.5 "/>
<text text-anchor="middle" x="456" y="-180.5" font-family="Helvetica,sans-Serif" font-size="10.00" fill="#000000"> </text>
<polyline fill="none" stroke="#000000" points="386.5,-173.5 525.5,-173.5 "/>
<text text-anchor="start" x="394.5" y="-161.5" font-family="Helvetica,sans-Serif" font-size="10.00" fill="#000000">+ DigitizerTask()</text>
<text text-anchor="start" x="394.5" y="-150.5" font-family="Helvetica,sans-Serif" font-size="10.00" fill="#000000">+ ~DigitizerTask()</text>
<text text-anchor="start" x="394.5" y="-139.5" font-family="Helvetica,sans-Serif" font-size="10.00" fill="#000000">+ Init()</text>
<text text-anchor="start" x="394.5" y="-128.5" font-family="Helvetica,sans-Serif" font-size="10.00" fill="#000000">+ Exec()</text>
<text text-anchor="start" x="394.5" y="-117.5" font-family="Helvetica,sans-Serif" font-size="10.00" fill="#000000">+ FinishTask()</text>
<text text-anchor="start" x="394.5" y="-106.5" font-family="Helvetica,sans-Serif" font-size="10.00" fill="#000000">+ getDigitizer()</text>
<text text-anchor="start" x="394.5" y="-95.5" font-family="Helvetica,sans-Serif" font-size="10.00" fill="#000000">+ getDigiParams()</text>
<text text-anchor="start" x="394.5" y="-84.5" font-family="Helvetica,sans-Serif" font-size="10.00" fill="#000000">+ getDigiParams()</text>
<text text-anchor="start" x="394.5" y="-73.5" font-family="Helvetica,sans-Serif" font-size="10.00" fill="#000000">+ setContinuous()</text>
<text text-anchor="start" x="394.5" y="-62.5" font-family="Helvetica,sans-Serif" font-size="10.00" fill="#000000">+ isContinuous()</text>
<text text-anchor="start" x="394.5" y="-51.5" font-family="Helvetica,sans-Serif" font-size="10.00" fill="#000000">+ setFairTimeUnitInNS()</text>
<text text-anchor="start" x="394.5" y="-40.5" font-family="Helvetica,sans-Serif" font-size="10.00" fill="#000000">+ getFairTimeUnitInNS()</text>
<text text-anchor="start" x="394.5" y="-29.5" font-family="Helvetica,sans-Serif" font-size="10.00" fill="#000000">+ setAlpideROFramLength()</text>
<text text-anchor="start" x="394.5" y="-18.5" font-family="Helvetica,sans-Serif" font-size="10.00" fill="#000000">+ getAlpideROFramLength()</text>
<text text-anchor="start" x="394.5" y="-7.5" font-family="Helvetica,sans-Serif" font-size="10.00" fill="#000000">+ setQEDInput()</text>
</a>
</g>
</g>
<!-- Node0&#45;&gt;Node4 -->
<g id="edge4" class="edge">
<title>Node0&#45;&gt;Node4</title>
<path fill="none" stroke="#191970" d="M456,-238.1825C456,-230.0392 456,-221.0811 456,-211.7834"/>
<polygon fill="none" stroke="#191970" points="452.5001,-238.3784 456,-248.3784 459.5001,-238.3785 452.5001,-238.3784"/>
</g>
<!-- Node5 -->
<g id="node6" class="node">
<title>Node5</title>
<g id="a_node6"><a xlink:href="../../d0/dc6/classo2_1_1tof_1_1ClustererTask.html" target="_top" xlink:title="{o2::tof::ClustererTask\n||+ ClustererTask()\l+ ~ClustererTask()\l+ Init()\l+ Exec()\l}">
<polygon fill="none" stroke="#000000" points="544,-61 544,-151 656,-151 656,-61 544,-61"/>
<text text-anchor="middle" x="600" y="-139" font-family="Helvetica,sans-Serif" font-size="10.00" fill="#000000">o2::tof::ClustererTask</text>
<polyline fill="none" stroke="#000000" points="544,-132 656,-132 "/>
<text text-anchor="middle" x="600" y="-120" font-family="Helvetica,sans-Serif" font-size="10.00" fill="#000000"> </text>
<polyline fill="none" stroke="#000000" points="544,-113 656,-113 "/>
<text text-anchor="start" x="552" y="-101" font-family="Helvetica,sans-Serif" font-size="10.00" fill="#000000">+ ClustererTask()</text>
<text text-anchor="start" x="552" y="-90" font-family="Helvetica,sans-Serif" font-size="10.00" fill="#000000">+ ~ClustererTask()</text>
<text text-anchor="start" x="552" y="-79" font-family="Helvetica,sans-Serif" font-size="10.00" fill="#000000">+ Init()</text>
<text text-anchor="start" x="552" y="-68" font-family="Helvetica,sans-Serif" font-size="10.00" fill="#000000">+ Exec()</text>
</a>
</g>
</g>
<!-- Node0&#45;&gt;Node5 -->
<g id="edge5" class="edge">
<title>Node0&#45;&gt;Node5</title>
<path fill="none" stroke="#191970" d="M491.7882,-251.6606C506.1792,-240.4705 522.3284,-226.5591 535,-212 551.0148,-193.5997 565.5561,-170.7905 576.8044,-151.0496"/>
<polygon fill="none" stroke="#191970" points="489.3994,-249.0801 483.5579,-257.919 493.6365,-254.6521 489.3994,-249.0801"/>
</g>
<!-- Node6 -->
<g id="node7" class="node">
<title>Node6</title>
<g id="a_node7"><a xlink:href="../../d0/dad/classo2_1_1tof_1_1DigitizerTask.html" target="_top" xlink:title="{o2::tof::DigitizerTask\n||+ DigitizerTask()\l+ ~DigitizerTask()\l+ Init()\l+ Exec()\l+ FinishTask()\l+ getDigitizer()\l+ setContinuous()\l+ isContinuous()\l}">
<polygon fill="none" stroke="#000000" points="674,-39 674,-173 782,-173 782,-39 674,-39"/>
<text text-anchor="middle" x="728" y="-161" font-family="Helvetica,sans-Serif" font-size="10.00" fill="#000000">o2::tof::DigitizerTask</text>
<polyline fill="none" stroke="#000000" points="674,-154 782,-154 "/>
<text text-anchor="middle" x="728" y="-142" font-family="Helvetica,sans-Serif" font-size="10.00" fill="#000000"> </text>
<polyline fill="none" stroke="#000000" points="674,-135 782,-135 "/>
<text text-anchor="start" x="682" y="-123" font-family="Helvetica,sans-Serif" font-size="10.00" fill="#000000">+ DigitizerTask()</text>
<text text-anchor="start" x="682" y="-112" font-family="Helvetica,sans-Serif" font-size="10.00" fill="#000000">+ ~DigitizerTask()</text>
<text text-anchor="start" x="682" y="-101" font-family="Helvetica,sans-Serif" font-size="10.00" fill="#000000">+ Init()</text>
<text text-anchor="start" x="682" y="-90" font-family="Helvetica,sans-Serif" font-size="10.00" fill="#000000">+ Exec()</text>
<text text-anchor="start" x="682" y="-79" font-family="Helvetica,sans-Serif" font-size="10.00" fill="#000000">+ FinishTask()</text>
<text text-anchor="start" x="682" y="-68" font-family="Helvetica,sans-Serif" font-size="10.00" fill="#000000">+ getDigitizer()</text>
<text text-anchor="start" x="682" y="-57" font-family="Helvetica,sans-Serif" font-size="10.00" fill="#000000">+ setContinuous()</text>
<text text-anchor="start" x="682" y="-46" font-family="Helvetica,sans-Serif" font-size="10.00" fill="#000000">+ isContinuous()</text>
</a>
</g>
</g>
<!-- Node0&#45;&gt;Node6 -->
<g id="edge6" class="edge">
<title>Node0&#45;&gt;Node6</title>
<path fill="none" stroke="#191970" d="M493.5531,-273.4946C538.5504,-267.5925 614.2163,-252.0714 665,-212 678.1927,-201.5902 689.2183,-187.5975 698.1654,-173.1981"/>
<polygon fill="none" stroke="#191970" points="493.1252,-270.0207 483.6225,-274.7057 493.9727,-276.9692 493.1252,-270.0207"/>
</g>
<!-- Node7 -->
<g id="node8" class="node">
<title>Node7</title>
<g id="a_node8"><a xlink:href="../../db/dc7/classo2_1_1tpc_1_1ClustererTask.html" target="_top" xlink:title="{o2::tpc::ClustererTask\n||+ ClustererTask()\l+ ~ClustererTask()\l+ Init()\l+ Exec()\l+ FinishTask()\l+ setContinuousReadout()\l}">
<polygon fill="none" stroke="#000000" points="800.5,-50 800.5,-162 931.5,-162 931.5,-50 800.5,-50"/>
<text text-anchor="middle" x="866" y="-150" font-family="Helvetica,sans-Serif" font-size="10.00" fill="#000000">o2::tpc::ClustererTask</text>
<polyline fill="none" stroke="#000000" points="800.5,-143 931.5,-143 "/>
<text text-anchor="middle" x="866" y="-131" font-family="Helvetica,sans-Serif" font-size="10.00" fill="#000000"> </text>
<polyline fill="none" stroke="#000000" points="800.5,-124 931.5,-124 "/>
<text text-anchor="start" x="808.5" y="-112" font-family="Helvetica,sans-Serif" font-size="10.00" fill="#000000">+ ClustererTask()</text>
<text text-anchor="start" x="808.5" y="-101" font-family="Helvetica,sans-Serif" font-size="10.00" fill="#000000">+ ~ClustererTask()</text>
<text text-anchor="start" x="808.5" y="-90" font-family="Helvetica,sans-Serif" font-size="10.00" fill="#000000">+ Init()</text>
<text text-anchor="start" x="808.5" y="-79" font-family="Helvetica,sans-Serif" font-size="10.00" fill="#000000">+ Exec()</text>
<text text-anchor="start" x="808.5" y="-68" font-family="Helvetica,sans-Serif" font-size="10.00" fill="#000000">+ FinishTask()</text>
<text text-anchor="start" x="808.5" y="-57" font-family="Helvetica,sans-Serif" font-size="10.00" fill="#000000">+ setContinuousReadout()</text>
</a>
</g>
</g>
<!-- Node0&#45;&gt;Node7 -->
<g id="edge7" class="edge">
<title>Node0&#45;&gt;Node7</title>
<path fill="none" stroke="#191970" d="M493.9446,-273.2161C570.8824,-264.975 742.0982,-243.5752 791,-212 810.0333,-199.7105 825.6813,-180.7337 837.6686,-162.2142"/>
<polygon fill="none" stroke="#191970" points="493.3149,-269.763 483.7366,-274.2913 494.0482,-276.7245 493.3149,-269.763"/>
</g>
</g>
</svg>
        <g id="navigator" transform="translate(0 0)" fill="#404254">
                <rect fill="#f2f5e9" fill-opacity="0.5" stroke="#606060" stroke-width=".5" x="0" y="0" width="60" height="60"/>
                <use id="zoomplus" xlink:href="#zoomPlus" x="17" y="9" onmousedown="handleZoom(evt,'in')"/>
                <use id="zoomminus" xlink:href="#zoomMin" x="42" y="9" onmousedown="handleZoom(evt,'out')"/>
                <use id="reset" xlink:href="#resetDef" x="30" y="36" onmousedown="handleReset()"/>
                <g id="arrowUp" xlink:href="#dirArrow" transform="translate(30 24)" onmousedown="handlePan(0,-1)">
                  <use xlink:href="#rim" fill="#404040">
                        <set attributeName="fill" to="#808080" begin="arrowUp.mouseover" end="arrowUp.mouseout"/>
                  </use>
                  <path fill="none" stroke="white" stroke-width="1.5" d="M0,-3.0v7 M-2.5,-0.5L0,-3.0L2.5,-0.5"/>
                </g>
                <g id="arrowRight" xlink:href="#dirArrow" transform="rotate(90) translate(36 -43)" onmousedown="handlePan(1,0)">
                  <use xlink:href="#rim" fill="#404040">
                        <set attributeName="fill" to="#808080" begin="arrowRight.mouseover" end="arrowRight.mouseout"/>
                  </use>
                  <path fill="none" stroke="white" stroke-width="1.5" d="M0,-3.0v7 M-2.5,-0.5L0,-3.0L2.5,-0.5"/>
                </g>
                <g id="arrowDown" xlink:href="#dirArrow" transform="rotate(180) translate(-30 -48)" onmousedown="handlePan(0,1)">
                  <use xlink:href="#rim" fill="#404040">
                        <set attributeName="fill" to="#808080" begin="arrowDown.mouseover" end="arrowDown.mouseout"/>
                  </use>
                  <path fill="none" stroke="white" stroke-width="1.5" d="M0,-3.0v7 M-2.5,-0.5L0,-3.0L2.5,-0.5"/>
                </g>
                <g id="arrowLeft" xlink:href="#dirArrow" transform="rotate(270) translate(-36 17)" onmousedown="handlePan(-1,0)">
                  <use xlink:href="#rim" fill="#404040">
                        <set attributeName="fill" to="#808080" begin="arrowLeft.mouseover" end="arrowLeft.mouseout"/>
                  </use>
                  <path fill="none" stroke="white" stroke-width="1.5" d="M0,-3.0v7 M-2.5,-0.5L0,-3.0L2.5,-0.5"/>
                </g>
        </g>
        <svg viewBox="0 0 15 15" width="100%" height="30px" preserveAspectRatio="xMaxYMin meet">
         <g id="arrow_out" transform="scale(0.3 0.3)">
          <a xlink:href="classFairTask__inherit__graph_org.svg" target="_base">
           <rect id="button" ry="5" rx="5" y="6" x="6" height="38" width="38"
                fill="#f2f5e9" fill-opacity="0.5" stroke="#606060" stroke-width="1.0"/>
           <path id="arrow"
             d="M 11.500037,31.436501 C 11.940474,20.09759 22.043105,11.32322 32.158766,21.979434 L 37.068811,17.246167 C 37.068811,17.246167 37.088388,32 37.088388,32 L 22.160133,31.978069 C 22.160133,31.978069 26.997745,27.140456 26.997745,27.140456 C 18.528582,18.264221 13.291696,25.230495 11.500037,31.436501 z"
             style="fill:#404040;"/>
          </a>
         </g>
        </svg>
</svg>
