<?xml version="1.0" encoding="UTF-8" standalone="no"?>
<!DOCTYPE svg PUBLIC "-//W3C//DTD SVG 1.1//EN"
 "http://www.w3.org/Graphics/SVG/1.1/DTD/svg11.dtd">
<!-- Generated by graphviz version 2.40.1 (20161225.0304)
 -->
<!-- Title: /home/runner/work/AliceO2/AliceO2/Detectors/ITSMFT/common/reconstruction/src/PixelData.cxx Pages: 1 -->
<svg width="2449pt" height="374pt"
 viewBox="0.00 0.00 2449.02 374.00" xmlns="http://www.w3.org/2000/svg" xmlns:xlink="http://www.w3.org/1999/xlink">
<g id="graph0" class="graph" transform="scale(1 1) rotate(0) translate(4 370)">
<title>/home/runner/work/AliceO2/AliceO2/Detectors/ITSMFT/common/reconstruction/src/PixelData.cxx</title>
<!-- Node0 -->
<g id="node1" class="node">
<title>Node0</title>
<polygon fill="#bfbfbf" stroke="#000000" points="692.5159,-313.5 692.5159,-365.5 831.5159,-365.5 831.5159,-313.5 692.5159,-313.5"/>
<text text-anchor="start" x="700.5159" y="-353.5" font-family="Helvetica,sans-Serif" font-size="10.00" fill="#000000">/home/runner/work/AliceO2</text>
<text text-anchor="start" x="700.5159" y="-342.5" font-family="Helvetica,sans-Serif" font-size="10.00" fill="#000000">/AliceO2/Detectors/ITSMFT</text>
<text text-anchor="start" x="700.5159" y="-331.5" font-family="Helvetica,sans-Serif" font-size="10.00" fill="#000000">/common/reconstruction/src</text>
<text text-anchor="middle" x="762.0159" y="-320.5" font-family="Helvetica,sans-Serif" font-size="10.00" fill="#000000">/PixelData.cxx</text>
</g>
<!-- Node1 -->
<g id="node2" class="node">
<title>Node1</title>
<g id="a_node2"><a xlink:href="../../da/d8d/PixelData_8h.html" target="_top" xlink:title="Transient data classes for single pixel and set of pixels from current chip. ">
<polygon fill="none" stroke="#000000" points="195.5159,-246.5 195.5159,-276.5 314.5159,-276.5 314.5159,-246.5 195.5159,-246.5"/>
<text text-anchor="start" x="203.5159" y="-264.5" font-family="Helvetica,sans-Serif" font-size="10.00" fill="#000000">ITSMFTReconstruction</text>
<text text-anchor="middle" x="255.0159" y="-253.5" font-family="Helvetica,sans-Serif" font-size="10.00" fill="#000000">/PixelData.h</text>
</a>
</g>
</g>
<!-- Node0&#45;&gt;Node1 -->
<g id="edge1" class="edge">
<title>Node0&#45;&gt;Node1</title>
<path fill="none" stroke="#191970" d="M692.3176,-328.7772C595.5853,-313.8953 421.6395,-287.1344 324.8402,-272.2422"/>
<polygon fill="#191970" stroke="#191970" points="325.2759,-268.7681 314.8599,-270.7068 324.2114,-275.6867 325.2759,-268.7681"/>
</g>
<!-- Node17 -->
<g id="node18" class="node">
<title>Node17</title>
<g id="a_node18"><a xlink:href="../../d3/dba/SegmentationAlpide_8h.html" target="_top" xlink:title="Definition of the SegmentationAlpide class. ">
<polygon fill="none" stroke="#000000" points="611.5159,-252 611.5159,-271 784.5159,-271 784.5159,-252 611.5159,-252"/>
<text text-anchor="middle" x="698.0159" y="-259" font-family="Helvetica,sans-Serif" font-size="10.00" fill="#000000">ITSMFTBase/SegmentationAlpide.h</text>
</a>
</g>
</g>
<!-- Node0&#45;&gt;Node17 -->
<g id="edge22" class="edge">
<title>Node0&#45;&gt;Node17</title>
<path fill="none" stroke="#191970" d="M740.3484,-313.0928C731.1489,-301.8808 720.673,-289.1133 712.4441,-279.0843"/>
<polygon fill="#191970" stroke="#191970" points="714.9286,-276.5945 705.8796,-271.0839 709.5171,-281.0347 714.9286,-276.5945"/>
</g>
<!-- Node31 -->
<g id="node32" class="node">
<title>Node31</title>
<polygon fill="none" stroke="#bfbfbf" points="802.5159,-252 802.5159,-271 851.5159,-271 851.5159,-252 802.5159,-252"/>
<text text-anchor="middle" x="827.0159" y="-259" font-family="Helvetica,sans-Serif" font-size="10.00" fill="#000000">cassert</text>
</g>
<!-- Node0&#45;&gt;Node31 -->
<g id="edge40" class="edge">
<title>Node0&#45;&gt;Node31</title>
<path fill="none" stroke="#191970" d="M784.022,-313.0928C793.4597,-301.7675 804.22,-288.8552 812.6149,-278.7812"/>
<polygon fill="#191970" stroke="#191970" points="815.3163,-281.0068 819.0294,-271.0839 809.9387,-276.5254 815.3163,-281.0068"/>
</g>
<!-- Node32 -->
<g id="node33" class="node">
<title>Node32</title>
<polygon fill="none" stroke="#bfbfbf" points="869.5159,-252 869.5159,-271 910.5159,-271 910.5159,-252 869.5159,-252"/>
<text text-anchor="middle" x="890.0159" y="-259" font-family="Helvetica,sans-Serif" font-size="10.00" fill="#000000">bitset</text>
</g>
<!-- Node0&#45;&gt;Node32 -->
<g id="edge41" class="edge">
<title>Node0&#45;&gt;Node32</title>
<path fill="none" stroke="#191970" d="M804.9942,-313.3101C825.0939,-301.0619 848.3055,-286.9173 865.3923,-276.505"/>
<polygon fill="#191970" stroke="#191970" points="867.4781,-279.3327 874.1963,-271.1401 863.8355,-273.3551 867.4781,-279.3327"/>
</g>
<!-- Node2 -->
<g id="node3" class="node">
<title>Node2</title>
<g id="a_node3"><a xlink:href="../../d3/d1e/DataFormats_2Detectors_2ITSMFT_2common_2include_2DataFormatsITSMFT_2Digit_8h.html" target="_top" xlink:title="DataFormatsITSMFT/Digit.h">
<polygon fill="none" stroke="#000000" points="293.5159,-185 293.5159,-204 434.5159,-204 434.5159,-185 293.5159,-185"/>
<text text-anchor="middle" x="364.0159" y="-192" font-family="Helvetica,sans-Serif" font-size="10.00" fill="#000000">DataFormatsITSMFT/Digit.h</text>
</a>
</g>
</g>
<!-- Node1&#45;&gt;Node2 -->
<g id="edge2" class="edge">
<title>Node1&#45;&gt;Node2</title>
<path fill="none" stroke="#191970" d="M279.4777,-246.4639C297.4369,-235.4247 321.7248,-220.4954 339.6594,-209.4715"/>
<polygon fill="#191970" stroke="#191970" points="341.7052,-212.3223 348.3916,-204.1039 338.0395,-206.3588 341.7052,-212.3223"/>
</g>
<!-- Node5 -->
<g id="node6" class="node">
<title>Node5</title>
<g id="a_node6"><a xlink:href="../../d9/d80/InteractionRecord_8h.html" target="_top" xlink:title="CommonDataFormat/Interaction\lRecord.h">
<polygon fill="none" stroke="#000000" points="488.5159,-179.5 488.5159,-209.5 645.5159,-209.5 645.5159,-179.5 488.5159,-179.5"/>
<text text-anchor="start" x="496.5159" y="-197.5" font-family="Helvetica,sans-Serif" font-size="10.00" fill="#000000">CommonDataFormat/Interaction</text>
<text text-anchor="middle" x="567.0159" y="-186.5" font-family="Helvetica,sans-Serif" font-size="10.00" fill="#000000">Record.h</text>
</a>
</g>
</g>
<!-- Node1&#45;&gt;Node5 -->
<g id="edge5" class="edge">
<title>Node1&#45;&gt;Node5</title>
<path fill="none" stroke="#191970" d="M314.8035,-248.661C363.7764,-238.1444 433.5038,-223.1709 487.2362,-211.6322"/>
<polygon fill="#191970" stroke="#191970" points="488.0322,-215.0411 497.0745,-209.5195 486.5625,-208.1971 488.0322,-215.0411"/>
</g>
<!-- Node8 -->
<g id="node9" class="node">
<title>Node8</title>
<polygon fill="none" stroke="#bfbfbf" points="190.0159,-56.5 190.0159,-75.5 236.0159,-75.5 236.0159,-56.5 190.0159,-56.5"/>
<text text-anchor="middle" x="213.0159" y="-63.5" font-family="Helvetica,sans-Serif" font-size="10.00" fill="#000000">cstdint</text>
</g>
<!-- Node1&#45;&gt;Node8 -->
<g id="edge21" class="edge">
<title>Node1&#45;&gt;Node8</title>
<path fill="none" stroke="#191970" d="M195.3946,-255.8418C135.2884,-248.8351 48.3017,-234.6924 26.0159,-210 -3.2635,-177.5586 -9.1066,-146.2651 18.0159,-112 37.8178,-86.9834 129.3766,-74.1988 179.6807,-68.9617"/>
<polygon fill="#191970" stroke="#191970" points="180.1452,-72.4329 189.7482,-67.9571 179.4501,-65.4675 180.1452,-72.4329"/>
</g>
<!-- Node11 -->
<g id="node12" class="node">
<title>Node11</title>
<g id="a_node12"><a xlink:href="../../dc/dc5/DecodingStat_8h.html" target="_top" xlink:title="Alpide Chip and GBT link decoding statistics. ">
<polygon fill="none" stroke="#000000" points="35.5159,-179.5 35.5159,-209.5 154.5159,-209.5 154.5159,-179.5 35.5159,-179.5"/>
<text text-anchor="start" x="43.5159" y="-197.5" font-family="Helvetica,sans-Serif" font-size="10.00" fill="#000000">ITSMFTReconstruction</text>
<text text-anchor="middle" x="95.0159" y="-186.5" font-family="Helvetica,sans-Serif" font-size="10.00" fill="#000000">/DecodingStat.h</text>
</a>
</g>
</g>
<!-- Node1&#45;&gt;Node11 -->
<g id="edge12" class="edge">
<title>Node1&#45;&gt;Node11</title>
<path fill="none" stroke="#191970" d="M219.1088,-246.4639C195.8248,-236.7137 165.2939,-223.9289 140.3426,-213.4805"/>
<polygon fill="#191970" stroke="#191970" points="141.6555,-210.2359 131.0797,-209.6017 138.9517,-216.6926 141.6555,-210.2359"/>
</g>
<!-- Node15 -->
<g id="node16" class="node">
<title>Node15</title>
<polygon fill="none" stroke="#bfbfbf" points="173.0159,-185 173.0159,-204 217.0159,-204 217.0159,-185 173.0159,-185"/>
<text text-anchor="middle" x="195.0159" y="-192" font-family="Helvetica,sans-Serif" font-size="10.00" fill="#000000">vector</text>
</g>
<!-- Node1&#45;&gt;Node15 -->
<g id="edge19" class="edge">
<title>Node1&#45;&gt;Node15</title>
<path fill="none" stroke="#191970" d="M241.401,-246.2967C232.1435,-235.9591 219.8832,-222.2684 210.2924,-211.5588"/>
<polygon fill="#191970" stroke="#191970" points="212.8512,-209.1696 203.5726,-204.055 207.6365,-213.8394 212.8512,-209.1696"/>
</g>
<!-- Node16 -->
<g id="node17" class="node">
<title>Node16</title>
<polygon fill="none" stroke="#bfbfbf" points="235.0159,-185 235.0159,-204 275.0159,-204 275.0159,-185 235.0159,-185"/>
<text text-anchor="middle" x="255.0159" y="-192" font-family="Helvetica,sans-Serif" font-size="10.00" fill="#000000">utility</text>
</g>
<!-- Node1&#45;&gt;Node16 -->
<g id="edge20" class="edge">
<title>Node1&#45;&gt;Node16</title>
<path fill="none" stroke="#191970" d="M255.0159,-246.2967C255.0159,-236.7699 255.0159,-224.3954 255.0159,-214.1306"/>
<polygon fill="#191970" stroke="#191970" points="258.516,-214.0549 255.0159,-204.055 251.516,-214.055 258.516,-214.0549"/>
</g>
<!-- Node3 -->
<g id="node4" class="node">
<title>Node3</title>
<polygon fill="none" stroke="#bfbfbf" points="336.0159,-56.5 336.0159,-75.5 392.0159,-75.5 392.0159,-56.5 336.0159,-56.5"/>
<text text-anchor="middle" x="364.0159" y="-63.5" font-family="Helvetica,sans-Serif" font-size="10.00" fill="#000000">Rtypes.h</text>
</g>
<!-- Node2&#45;&gt;Node3 -->
<g id="edge3" class="edge">
<title>Node2&#45;&gt;Node3</title>
<path fill="none" stroke="#191970" d="M364.0159,-184.8416C364.0159,-163.9114 364.0159,-114.004 364.0159,-85.9762"/>
<polygon fill="#191970" stroke="#191970" points="367.516,-85.7704 364.0159,-75.7705 360.516,-85.7705 367.516,-85.7704"/>
</g>
<!-- Node4 -->
<g id="node5" class="node">
<title>Node4</title>
<polygon fill="none" stroke="#bfbfbf" points="290.5159,-118 290.5159,-137 335.5159,-137 335.5159,-118 290.5159,-118"/>
<text text-anchor="middle" x="313.0159" y="-125" font-family="Helvetica,sans-Serif" font-size="10.00" fill="#000000">climits</text>
</g>
<!-- Node2&#45;&gt;Node4 -->
<g id="edge4" class="edge">
<title>Node2&#45;&gt;Node4</title>
<path fill="none" stroke="#191970" d="M356.7089,-184.9005C348.8316,-174.552 336.1213,-157.8542 326.4354,-145.1295"/>
<polygon fill="#191970" stroke="#191970" points="329.1513,-142.9188 320.3094,-137.0817 323.5814,-147.1586 329.1513,-142.9188"/>
</g>
<!-- Node6 -->
<g id="node7" class="node">
<title>Node6</title>
<g id="a_node7"><a xlink:href="../../d2/d45/GPUCommonRtypes_8h.html" target="_top" xlink:title="GPUCommonRtypes.h">
<polygon fill="none" stroke="#000000" points="726.0159,-118 726.0159,-137 844.0159,-137 844.0159,-118 726.0159,-118"/>
<text text-anchor="middle" x="785.0159" y="-125" font-family="Helvetica,sans-Serif" font-size="10.00" fill="#000000">GPUCommonRtypes.h</text>
</a>
</g>
</g>
<!-- Node5&#45;&gt;Node6 -->
<g id="edge6" class="edge">
<title>Node5&#45;&gt;Node6</title>
<path fill="none" stroke="#191970" d="M615.9394,-179.4639C654.6089,-167.5792 707.9488,-151.1858 744.3093,-140.0108"/>
<polygon fill="#191970" stroke="#191970" points="745.5578,-143.2887 754.0883,-137.0053 743.5013,-136.5976 745.5578,-143.2887"/>
</g>
<!-- Node7 -->
<g id="node8" class="node">
<title>Node7</title>
<polygon fill="none" stroke="#bfbfbf" points="862.5159,-118 862.5159,-137 907.5159,-137 907.5159,-118 862.5159,-118"/>
<text text-anchor="middle" x="885.0159" y="-125" font-family="Helvetica,sans-Serif" font-size="10.00" fill="#000000">iosfwd</text>
</g>
<!-- Node5&#45;&gt;Node7 -->
<g id="edge8" class="edge">
<title>Node5&#45;&gt;Node7</title>
<path fill="none" stroke="#191970" d="M645.8133,-186.1864C704.063,-178.6372 784.7715,-165.2084 853.0159,-143 854.6705,-142.4616 856.3487,-141.8538 858.0252,-141.1984"/>
<polygon fill="#191970" stroke="#191970" points="859.678,-144.2956 867.4332,-137.077 856.8691,-137.8838 859.678,-144.2956"/>
</g>
<!-- Node5&#45;&gt;Node8 -->
<g id="edge9" class="edge">
<title>Node5&#45;&gt;Node8</title>
<path fill="none" stroke="#191970" d="M596.7248,-179.4398C625.5804,-162.8964 662.1667,-135.5458 641.0159,-112 634.4055,-104.641 345.8138,-77.976 246.3189,-68.9843"/>
<polygon fill="#191970" stroke="#191970" points="246.4928,-65.4858 236.2189,-68.0735 245.8641,-72.4575 246.4928,-65.4858"/>
</g>
<!-- Node9 -->
<g id="node10" class="node">
<title>Node9</title>
<polygon fill="none" stroke="#bfbfbf" points="392.0159,-118 392.0159,-137 436.0159,-137 436.0159,-118 392.0159,-118"/>
<text text-anchor="middle" x="414.0159" y="-125" font-family="Helvetica,sans-Serif" font-size="10.00" fill="#000000">cmath</text>
</g>
<!-- Node5&#45;&gt;Node9 -->
<g id="edge10" class="edge">
<title>Node5&#45;&gt;Node9</title>
<path fill="none" stroke="#191970" d="M529.6387,-179.4499C505.3531,-169.4929 473.1031,-155.9338 445.0159,-143 444.0048,-142.5344 442.9779,-142.0551 441.9428,-141.5666"/>
<polygon fill="#191970" stroke="#191970" points="443.1348,-138.2548 432.6099,-137.0393 440.0796,-144.5529 443.1348,-138.2548"/>
</g>
<!-- Node10 -->
<g id="node11" class="node">
<title>Node10</title>
<g id="a_node11"><a xlink:href="../../d4/dc6/LHCConstants_8h.html" target="_top" xlink:title="Header to collect LHC related constants. ">
<polygon fill="none" stroke="#000000" points="454.0159,-118 454.0159,-137 632.0159,-137 632.0159,-118 454.0159,-118"/>
<text text-anchor="middle" x="543.0159" y="-125" font-family="Helvetica,sans-Serif" font-size="10.00" fill="#000000">CommonConstants/LHCConstants.h</text>
</a>
</g>
</g>
<!-- Node5&#45;&gt;Node10 -->
<g id="edge11" class="edge">
<title>Node5&#45;&gt;Node10</title>
<path fill="none" stroke="#191970" d="M561.57,-179.2967C558.0848,-169.5672 553.5356,-156.8675 549.8141,-146.4784"/>
<polygon fill="#191970" stroke="#191970" points="553.1059,-145.2889 546.4386,-137.055 546.516,-147.6495 553.1059,-145.2889"/>
</g>
<!-- Node6&#45;&gt;Node3 -->
<g id="edge7" class="edge">
<title>Node6&#45;&gt;Node3</title>
<path fill="none" stroke="#191970" d="M742.6621,-117.9243C732.6429,-115.821 721.9755,-113.7129 712.0159,-112 599.9365,-92.7237 466.3414,-77.1074 402.1539,-70.058"/>
<polygon fill="#191970" stroke="#191970" points="402.4154,-66.5658 392.0949,-68.9611 401.6566,-73.5246 402.4154,-66.5658"/>
</g>
<!-- Node11&#45;&gt;Node3 -->
<g id="edge15" class="edge">
<title>Node11&#45;&gt;Node3</title>
<path fill="none" stroke="#191970" d="M68.0498,-179.334C41.6201,-162.5819 8.0016,-134.9411 28.0159,-112 37.7463,-100.8467 239.553,-78.8281 325.6432,-69.899"/>
<polygon fill="#191970" stroke="#191970" points="326.2014,-73.36 335.7892,-68.8517 325.4827,-66.397 326.2014,-73.36"/>
</g>
<!-- Node12 -->
<g id="node13" class="node">
<title>Node12</title>
<polygon fill="none" stroke="#bfbfbf" points="37.5159,-118 37.5159,-137 78.5159,-137 78.5159,-118 37.5159,-118"/>
<text text-anchor="middle" x="58.0159" y="-125" font-family="Helvetica,sans-Serif" font-size="10.00" fill="#000000">string</text>
</g>
<!-- Node11&#45;&gt;Node12 -->
<g id="edge13" class="edge">
<title>Node11&#45;&gt;Node12</title>
<path fill="none" stroke="#191970" d="M86.6201,-179.2967C81.1351,-169.3645 73.9409,-156.3371 68.1396,-145.8321"/>
<polygon fill="#191970" stroke="#191970" points="71.1907,-144.1169 63.2926,-137.055 65.063,-147.5009 71.1907,-144.1169"/>
</g>
<!-- Node13 -->
<g id="node14" class="node">
<title>Node13</title>
<polygon fill="none" stroke="#bfbfbf" points="97.0159,-118 97.0159,-137 135.0159,-137 135.0159,-118 97.0159,-118"/>
<text text-anchor="middle" x="116.0159" y="-125" font-family="Helvetica,sans-Serif" font-size="10.00" fill="#000000">array</text>
</g>
<!-- Node11&#45;&gt;Node13 -->
<g id="edge14" class="edge">
<title>Node11&#45;&gt;Node13</title>
<path fill="none" stroke="#191970" d="M99.7812,-179.2967C102.7989,-169.6685 106.7284,-157.1318 109.9655,-146.8038"/>
<polygon fill="#191970" stroke="#191970" points="113.37,-147.6441 113.0211,-137.055 106.6904,-145.5504 113.37,-147.6441"/>
</g>
<!-- Node14 -->
<g id="node15" class="node">
<title>Node14</title>
<g id="a_node15"><a xlink:href="../../dd/d86/GBTWord_8h.html" target="_top" xlink:title="ITSMFTReconstruction\l/GBTWord.h">
<polygon fill="none" stroke="#000000" points="153.5159,-112.5 153.5159,-142.5 272.5159,-142.5 272.5159,-112.5 153.5159,-112.5"/>
<text text-anchor="start" x="161.5159" y="-130.5" font-family="Helvetica,sans-Serif" font-size="10.00" fill="#000000">ITSMFTReconstruction</text>
<text text-anchor="middle" x="213.0159" y="-119.5" font-family="Helvetica,sans-Serif" font-size="10.00" fill="#000000">/GBTWord.h</text>
</a>
</g>
</g>
<!-- Node11&#45;&gt;Node14 -->
<g id="edge16" class="edge">
<title>Node11&#45;&gt;Node14</title>
<path fill="none" stroke="#191970" d="M121.4974,-179.4639C137.9307,-170.1332 159.2586,-158.0232 177.1907,-147.8415"/>
<polygon fill="#191970" stroke="#191970" points="179.2467,-150.699 186.2145,-142.7177 175.7904,-144.6117 179.2467,-150.699"/>
</g>
<!-- Node14&#45;&gt;Node3 -->
<g id="edge17" class="edge">
<title>Node14&#45;&gt;Node3</title>
<path fill="none" stroke="#191970" d="M249.9547,-112.4554C274.8179,-102.329 307.3078,-89.0964 331.2495,-79.3453"/>
<polygon fill="#191970" stroke="#191970" points="332.6752,-82.5438 340.6163,-75.5303 330.0347,-76.0609 332.6752,-82.5438"/>
</g>
<!-- Node14&#45;&gt;Node8 -->
<g id="edge18" class="edge">
<title>Node14&#45;&gt;Node8</title>
<path fill="none" stroke="#191970" d="M213.0159,-112.2977C213.0159,-104.3834 213.0159,-94.6043 213.0159,-86.0759"/>
<polygon fill="#191970" stroke="#191970" points="216.516,-85.8469 213.0159,-75.8469 209.516,-85.847 216.516,-85.8469"/>
</g>
<!-- Node17&#45;&gt;Node3 -->
<g id="edge23" class="edge">
<title>Node17&#45;&gt;Node3</title>
<path fill="none" stroke="#191970" d="M698.7077,-251.644C700.0068,-224.7045 699.5749,-149.363 658.0159,-112 621.0161,-78.7358 473.2615,-69.4867 402.3595,-66.9459"/>
<polygon fill="#191970" stroke="#191970" points="402.1837,-63.4382 392.0733,-66.6052 401.9519,-70.4344 402.1837,-63.4382"/>
</g>
<!-- Node18 -->
<g id="node19" class="node">
<title>Node18</title>
<g id="a_node19"><a xlink:href="../../dc/d73/Cartesian_8h.html" target="_top" xlink:title="MathUtils/Cartesian.h">
<polygon fill="none" stroke="#000000" points="1465.0159,-185 1465.0159,-204 1577.0159,-204 1577.0159,-185 1465.0159,-185"/>
<text text-anchor="middle" x="1521.0159" y="-192" font-family="Helvetica,sans-Serif" font-size="10.00" fill="#000000">MathUtils/Cartesian.h</text>
</a>
</g>
</g>
<!-- Node17&#45;&gt;Node18 -->
<g id="edge24" class="edge">
<title>Node17&#45;&gt;Node18</title>
<path fill="none" stroke="#191970" d="M751.7183,-251.9613C765.4728,-249.7571 780.2643,-247.594 794.0159,-246 1036.6262,-217.8781 1326.6882,-202.8856 1454.7193,-197.211"/>
<polygon fill="#191970" stroke="#191970" points="1454.9234,-200.7055 1464.7603,-196.7704 1454.6165,-193.7122 1454.9234,-200.7055"/>
</g>
<!-- Node18&#45;&gt;Node6 -->
<g id="edge28" class="edge">
<title>Node18&#45;&gt;Node6</title>
<path fill="none" stroke="#191970" d="M1464.9305,-192.8937C1349.8309,-188.9991 1078.8469,-176.7532 854.0159,-143 847.1635,-141.9713 839.9789,-140.6428 832.9416,-139.1967"/>
<polygon fill="#191970" stroke="#191970" points="833.3046,-135.6949 822.7924,-137.0152 831.8335,-142.5386 833.3046,-135.6949"/>
</g>
<!-- Node18&#45;&gt;Node7 -->
<g id="edge37" class="edge">
<title>Node18&#45;&gt;Node7</title>
<path fill="none" stroke="#191970" d="M1464.9311,-192.3302C1335.5356,-186.9031 1019.3868,-171.1188 917.0159,-143 915.0962,-142.4727 913.1524,-141.8323 911.2209,-141.1156"/>
<polygon fill="#191970" stroke="#191970" points="912.4045,-137.8144 901.836,-137.0674 909.6319,-144.242 912.4045,-137.8144"/>
</g>
<!-- Node19 -->
<g id="node20" class="node">
<title>Node19</title>
<g id="a_node20"><a xlink:href="../../df/d21/GPUCommonDef_8h.html" target="_top" xlink:title="GPUCommonDef.h">
<polygon fill="none" stroke="#000000" points="1968.0159,-56.5 1968.0159,-75.5 2070.0159,-75.5 2070.0159,-56.5 1968.0159,-56.5"/>
<text text-anchor="middle" x="2019.0159" y="-63.5" font-family="Helvetica,sans-Serif" font-size="10.00" fill="#000000">GPUCommonDef.h</text>
</a>
</g>
</g>
<!-- Node18&#45;&gt;Node19 -->
<g id="edge25" class="edge">
<title>Node18&#45;&gt;Node19</title>
<path fill="none" stroke="#191970" d="M1577.3062,-193.1823C1706.7373,-189.5716 2016.8263,-177.3861 2048.0159,-143 2063.2168,-126.2413 2048.5063,-100.7442 2035.0786,-83.7371"/>
<polygon fill="#191970" stroke="#191970" points="2037.4492,-81.1174 2028.3389,-75.7087 2032.0879,-85.6181 2037.4492,-81.1174"/>
</g>
<!-- Node22 -->
<g id="node23" class="node">
<title>Node22</title>
<polygon fill="none" stroke="#bfbfbf" points="2095.5159,-112.5 2095.5159,-142.5 2246.5159,-142.5 2246.5159,-112.5 2095.5159,-112.5"/>
<text text-anchor="start" x="2103.5159" y="-130.5" font-family="Helvetica,sans-Serif" font-size="10.00" fill="#000000">Math/GenVector/Displacement</text>
<text text-anchor="middle" x="2171.0159" y="-119.5" font-family="Helvetica,sans-Serif" font-size="10.00" fill="#000000">Vector3D.h</text>
</g>
<!-- Node18&#45;&gt;Node22 -->
<g id="edge29" class="edge">
<title>Node18&#45;&gt;Node22</title>
<path fill="none" stroke="#191970" d="M1577.2156,-190.8048C1678.2934,-183.831 1897.3487,-167.2229 2081.0159,-143 2082.4896,-142.8056 2083.976,-142.6047 2085.4723,-142.398"/>
<polygon fill="#191970" stroke="#191970" points="2086.062,-145.8493 2095.4597,-140.9572 2085.0624,-138.921 2086.062,-145.8493"/>
</g>
<!-- Node23 -->
<g id="node24" class="node">
<title>Node23</title>
<polygon fill="none" stroke="#bfbfbf" points="2265.0159,-118 2265.0159,-137 2441.0159,-137 2441.0159,-118 2265.0159,-118"/>
<text text-anchor="middle" x="2353.0159" y="-125" font-family="Helvetica,sans-Serif" font-size="10.00" fill="#000000">Math/GenVector/PositionVector3D.h</text>
</g>
<!-- Node18&#45;&gt;Node23 -->
<g id="edge30" class="edge">
<title>Node18&#45;&gt;Node23</title>
<path fill="none" stroke="#191970" d="M1577.4204,-192.252C1700.7909,-186.9616 2003.7547,-171.9351 2256.0159,-143 2266.6528,-141.7799 2277.9064,-140.226 2288.8344,-138.5755"/>
<polygon fill="#191970" stroke="#191970" points="2289.4054,-142.0289 2298.7518,-137.0393 2288.3338,-135.1114 2289.4054,-142.0289"/>
</g>
<!-- Node24 -->
<g id="node25" class="node">
<title>Node24</title>
<polygon fill="none" stroke="#bfbfbf" points="925.5159,-118 925.5159,-137 1074.5159,-137 1074.5159,-118 925.5159,-118"/>
<text text-anchor="middle" x="1000.0159" y="-125" font-family="Helvetica,sans-Serif" font-size="10.00" fill="#000000">Math/GenVector/Rotation3D.h</text>
</g>
<!-- Node18&#45;&gt;Node24 -->
<g id="edge31" class="edge">
<title>Node18&#45;&gt;Node24</title>
<path fill="none" stroke="#191970" d="M1464.9834,-189.0768C1381.6853,-180.7479 1220.3594,-163.5909 1084.0159,-143 1075.7953,-141.7585 1067.1468,-140.3174 1058.6519,-138.8237"/>
<polygon fill="#191970" stroke="#191970" points="1059.2459,-135.3745 1048.7851,-137.0548 1058.0106,-142.2646 1059.2459,-135.3745"/>
</g>
<!-- Node25 -->
<g id="node26" class="node">
<title>Node25</title>
<polygon fill="none" stroke="#bfbfbf" points="1093.0159,-118 1093.0159,-137 1249.0159,-137 1249.0159,-118 1093.0159,-118"/>
<text text-anchor="middle" x="1171.0159" y="-125" font-family="Helvetica,sans-Serif" font-size="10.00" fill="#000000">Math/GenVector/Transform3D.h</text>
</g>
<!-- Node18&#45;&gt;Node25 -->
<g id="edge32" class="edge">
<title>Node18&#45;&gt;Node25</title>
<path fill="none" stroke="#191970" d="M1471.2412,-184.9717C1407.9629,-172.8584 1298.8125,-151.9639 1231.0059,-138.9838"/>
<polygon fill="#191970" stroke="#191970" points="1231.3818,-135.4923 1220.902,-137.0496 1230.0656,-142.3674 1231.3818,-135.4923"/>
</g>
<!-- Node26 -->
<g id="node27" class="node">
<title>Node26</title>
<polygon fill="none" stroke="#bfbfbf" points="1267.0159,-118 1267.0159,-137 1427.0159,-137 1427.0159,-118 1267.0159,-118"/>
<text text-anchor="middle" x="1347.0159" y="-125" font-family="Helvetica,sans-Serif" font-size="10.00" fill="#000000">Math/GenVector/Translation3D.h</text>
</g>
<!-- Node18&#45;&gt;Node26 -->
<g id="edge33" class="edge">
<title>Node18&#45;&gt;Node26</title>
<path fill="none" stroke="#191970" d="M1496.086,-184.9005C1465.9804,-173.3082 1415.1838,-153.7486 1381.3779,-140.7313"/>
<polygon fill="#191970" stroke="#191970" points="1382.4894,-137.4089 1371.8996,-137.0817 1379.974,-143.9413 1382.4894,-137.4089"/>
</g>
<!-- Node27 -->
<g id="node28" class="node">
<title>Node27</title>
<polygon fill="none" stroke="#bfbfbf" points="1445.5159,-112.5 1445.5159,-142.5 1596.5159,-142.5 1596.5159,-112.5 1445.5159,-112.5"/>
<text text-anchor="start" x="1453.5159" y="-130.5" font-family="Helvetica,sans-Serif" font-size="10.00" fill="#000000">Math/GenVector/Displacement</text>
<text text-anchor="middle" x="1521.0159" y="-119.5" font-family="Helvetica,sans-Serif" font-size="10.00" fill="#000000">Vector2D.h</text>
</g>
<!-- Node18&#45;&gt;Node27 -->
<g id="edge34" class="edge">
<title>Node18&#45;&gt;Node27</title>
<path fill="none" stroke="#191970" d="M1521.0159,-184.9005C1521.0159,-176.5099 1521.0159,-163.9451 1521.0159,-152.7085"/>
<polygon fill="#191970" stroke="#191970" points="1524.516,-152.5217 1521.0159,-142.5218 1517.516,-152.5218 1524.516,-152.5217"/>
</g>
<!-- Node28 -->
<g id="node29" class="node">
<title>Node28</title>
<polygon fill="none" stroke="#bfbfbf" points="1615.0159,-118 1615.0159,-137 1791.0159,-137 1791.0159,-118 1615.0159,-118"/>
<text text-anchor="middle" x="1703.0159" y="-125" font-family="Helvetica,sans-Serif" font-size="10.00" fill="#000000">Math/GenVector/PositionVector2D.h</text>
</g>
<!-- Node18&#45;&gt;Node28 -->
<g id="edge35" class="edge">
<title>Node18&#45;&gt;Node28</title>
<path fill="none" stroke="#191970" d="M1547.0921,-184.9005C1578.717,-173.2584 1632.1703,-153.5805 1667.5284,-140.5641"/>
<polygon fill="#191970" stroke="#191970" points="1668.813,-143.8209 1676.9881,-137.0817 1666.3947,-137.2519 1668.813,-143.8209"/>
</g>
<!-- Node29 -->
<g id="node30" class="node">
<title>Node29</title>
<polygon fill="none" stroke="#bfbfbf" points="1809.0159,-118 1809.0159,-137 1885.0159,-137 1885.0159,-118 1809.0159,-118"/>
<text text-anchor="middle" x="1847.0159" y="-125" font-family="Helvetica,sans-Serif" font-size="10.00" fill="#000000">TGeoMatrix.h</text>
</g>
<!-- Node18&#45;&gt;Node29 -->
<g id="edge36" class="edge">
<title>Node18&#45;&gt;Node29</title>
<path fill="none" stroke="#191970" d="M1577.0837,-186.4482C1633.7701,-177.7717 1723.6673,-162.5393 1800.0159,-143 1803.3636,-142.1432 1806.8195,-141.1731 1810.2669,-140.1464"/>
<polygon fill="#191970" stroke="#191970" points="1811.361,-143.4715 1819.8634,-137.1501 1809.2746,-136.7896 1811.361,-143.4715"/>
</g>
<!-- Node30 -->
<g id="node31" class="node">
<title>Node30</title>
<g id="a_node31"><a xlink:href="../../d1/da8/GPUROOTCartesianFwd_8h.html" target="_top" xlink:title="GPUROOTCartesianFwd.h">
<polygon fill="none" stroke="#000000" points="1903.0159,-118 1903.0159,-137 2039.0159,-137 2039.0159,-118 1903.0159,-118"/>
<text text-anchor="middle" x="1971.0159" y="-125" font-family="Helvetica,sans-Serif" font-size="10.00" fill="#000000">GPUROOTCartesianFwd.h</text>
</a>
</g>
</g>
<!-- Node18&#45;&gt;Node30 -->
<g id="edge38" class="edge">
<title>Node18&#45;&gt;Node30</title>
<path fill="none" stroke="#191970" d="M1577.1055,-187.8464C1650.235,-178.9219 1782.031,-161.9836 1894.0159,-143 1901.1331,-141.7935 1908.5993,-140.4232 1915.966,-139.0084"/>
<polygon fill="#191970" stroke="#191970" points="1916.766,-142.4183 1925.9076,-137.0628 1915.4215,-135.5486 1916.766,-142.4183"/>
</g>
<!-- Node20 -->
<g id="node21" class="node">
<title>Node20</title>
<g id="a_node21"><a xlink:href="../../d5/d93/GPUCommonDefSettings_8h.html" target="_top" xlink:title="GPUCommonDefSettings.h">
<polygon fill="none" stroke="#000000" points="1876.0159,-.5 1876.0159,-19.5 2014.0159,-19.5 2014.0159,-.5 1876.0159,-.5"/>
<text text-anchor="middle" x="1945.0159" y="-7.5" font-family="Helvetica,sans-Serif" font-size="10.00" fill="#000000">GPUCommonDefSettings.h</text>
</a>
</g>
</g>
<!-- Node19&#45;&gt;Node20 -->
<g id="edge26" class="edge">
<title>Node19&#45;&gt;Node20</title>
<path fill="none" stroke="#191970" d="M2006.1261,-56.2455C1995.0906,-47.8943 1978.9867,-35.7076 1966.0806,-25.9408"/>
<polygon fill="#191970" stroke="#191970" points="1967.8442,-22.8862 1957.758,-19.6427 1963.6201,-28.4681 1967.8442,-22.8862"/>
</g>
<!-- Node21 -->
<g id="node22" class="node">
<title>Node21</title>
<g id="a_node22"><a xlink:href="../../da/d5a/GPUCommonDefAPI_8h.html" target="_top" xlink:title="GPUCommonDefAPI.h">
<polygon fill="none" stroke="#000000" points="2032.5159,-.5 2032.5159,-19.5 2151.5159,-19.5 2151.5159,-.5 2032.5159,-.5"/>
<text text-anchor="middle" x="2092.0159" y="-7.5" font-family="Helvetica,sans-Serif" font-size="10.00" fill="#000000">GPUCommonDefAPI.h</text>
</a>
</g>
</g>
<!-- Node19&#45;&gt;Node21 -->
<g id="edge27" class="edge">
<title>Node19&#45;&gt;Node21</title>
<path fill="none" stroke="#191970" d="M2031.7316,-56.2455C2042.618,-47.8943 2058.5042,-35.7076 2071.2359,-25.9408"/>
<polygon fill="#191970" stroke="#191970" points="2073.642,-28.5063 2079.446,-19.6427 2069.3814,-22.9523 2073.642,-28.5063"/>
</g>
<!-- Node30&#45;&gt;Node19 -->
<g id="edge39" class="edge">
<title>Node30&#45;&gt;Node19</title>
<path fill="none" stroke="#191970" d="M1978.5159,-117.8906C1985.5898,-108.8273 1996.3702,-95.0149 2005.0306,-83.9188"/>
<polygon fill="#191970" stroke="#191970" points="2008.0166,-85.7815 2011.4102,-75.7449 2002.4983,-81.4746 2008.0166,-85.7815"/>
</g>
</g>
</svg>
