<?xml version="1.0" encoding="UTF-8" standalone="no"?>
<!DOCTYPE svg PUBLIC "-//W3C//DTD SVG 1.1//EN"
 "http://www.w3.org/Graphics/SVG/1.1/DTD/svg11.dtd">
<!-- Generated by graphviz version 2.40.1 (20161225.0304)
 -->
<!-- Title: /home/runner/work/AliceO2/AliceO2/Detectors/ITSMFT/common/simulation/include/ITSMFTSimulation/ChipDigitsContainer.h Pages: 1 -->
<svg width="306pt" height="296pt"
 viewBox="0.00 0.00 306.00 296.00" xmlns="http://www.w3.org/2000/svg" xmlns:xlink="http://www.w3.org/1999/xlink">
<g id="graph0" class="graph" transform="scale(1 1) rotate(0) translate(4 292)">
<title>/home/runner/work/AliceO2/AliceO2/Detectors/ITSMFT/common/simulation/include/ITSMFTSimulation/ChipDigitsContainer.h</title>
<!-- Node0 -->
<g id="node1" class="node">
<title>Node0</title>
<polygon fill="#bfbfbf" stroke="#000000" points="64,-235.5 64,-287.5 264,-287.5 264,-235.5 64,-235.5"/>
<text text-anchor="start" x="72" y="-275.5" font-family="Helvetica,sans-Serif" font-size="10.00" fill="#000000">/home/runner/work/AliceO2</text>
<text text-anchor="start" x="72" y="-264.5" font-family="Helvetica,sans-Serif" font-size="10.00" fill="#000000">/AliceO2/Detectors/ITSMFT</text>
<text text-anchor="start" x="72" y="-253.5" font-family="Helvetica,sans-Serif" font-size="10.00" fill="#000000">/common/simulation/include</text>
<text text-anchor="middle" x="164" y="-242.5" font-family="Helvetica,sans-Serif" font-size="10.00" fill="#000000">/ITSMFTSimulation/ChipDigitsContainer.h</text>
</g>
<!-- Node1 -->
<g id="node2" class="node">
<title>Node1</title>
<g id="a_node2"><a xlink:href="../../d7/dcd/MCCompLabel_8h.html" target="_top" xlink:title="SimulationDataFormat\l/MCCompLabel.h">
<polygon fill="none" stroke="#000000" points="2,-112.5 2,-142.5 116,-142.5 116,-112.5 2,-112.5"/>
<text text-anchor="start" x="10" y="-130.5" font-family="Helvetica,sans-Serif" font-size="10.00" fill="#000000">SimulationDataFormat</text>
<text text-anchor="middle" x="59" y="-119.5" font-family="Helvetica,sans-Serif" font-size="10.00" fill="#000000">/MCCompLabel.h</text>
</a>
</g>
</g>
<!-- Node0&#45;&gt;Node1 -->
<g id="edge1" class="edge">
<title>Node0&#45;&gt;Node1</title>
<path fill="none" stroke="#191970" d="M69.8694,-235.4619C53.2712,-226.5862 38.0963,-214.7512 28,-199 18.2957,-183.8603 27.0247,-165.1677 37.662,-150.6926"/>
<polygon fill="#191970" stroke="#191970" points="40.5241,-152.7172 44.0207,-142.716 35.0504,-148.3538 40.5241,-152.7172"/>
</g>
<!-- Node4 -->
<g id="node5" class="node">
<title>Node4</title>
<g id="a_node5"><a xlink:href="../../d2/d53/PreDigit_8h.html" target="_top" xlink:title="Definition of the digit contribution from single hit. ">
<polygon fill="none" stroke="#000000" points="37.5,-179.5 37.5,-198.5 182.5,-198.5 182.5,-179.5 37.5,-179.5"/>
<text text-anchor="middle" x="110" y="-186.5" font-family="Helvetica,sans-Serif" font-size="10.00" fill="#000000">ITSMFTSimulation/PreDigit.h</text>
</a>
</g>
</g>
<!-- Node0&#45;&gt;Node4 -->
<g id="edge4" class="edge">
<title>Node0&#45;&gt;Node4</title>
<path fill="none" stroke="#191970" d="M144.5048,-235.3258C137.4195,-225.8132 129.5853,-215.2951 123.1749,-206.6886"/>
<polygon fill="#191970" stroke="#191970" points="125.8816,-204.4632 117.1012,-198.534 120.2677,-208.6446 125.8816,-204.4632"/>
</g>
<!-- Node5 -->
<g id="node6" class="node">
<title>Node5</title>
<polygon fill="none" stroke="#bfbfbf" points="200.5,-179.5 200.5,-198.5 235.5,-198.5 235.5,-179.5 200.5,-179.5"/>
<text text-anchor="middle" x="218" y="-186.5" font-family="Helvetica,sans-Serif" font-size="10.00" fill="#000000">map</text>
</g>
<!-- Node0&#45;&gt;Node5 -->
<g id="edge6" class="edge">
<title>Node0&#45;&gt;Node5</title>
<path fill="none" stroke="#191970" d="M183.4952,-235.3258C190.5805,-225.8132 198.4147,-215.2951 204.8251,-206.6886"/>
<polygon fill="#191970" stroke="#191970" points="207.7323,-208.6446 210.8988,-198.534 202.1184,-204.4632 207.7323,-208.6446"/>
</g>
<!-- Node6 -->
<g id="node7" class="node">
<title>Node6</title>
<polygon fill="none" stroke="#bfbfbf" points="254,-179.5 254,-198.5 298,-198.5 298,-179.5 254,-179.5"/>
<text text-anchor="middle" x="276" y="-186.5" font-family="Helvetica,sans-Serif" font-size="10.00" fill="#000000">vector</text>
</g>
<!-- Node0&#45;&gt;Node6 -->
<g id="edge7" class="edge">
<title>Node0&#45;&gt;Node6</title>
<path fill="none" stroke="#191970" d="M204.4346,-235.3258C220.6768,-224.8119 238.8167,-213.0696 252.7694,-204.0377"/>
<polygon fill="#191970" stroke="#191970" points="254.7788,-206.9063 261.2716,-198.534 250.975,-201.03 254.7788,-206.9063"/>
</g>
<!-- Node2 -->
<g id="node3" class="node">
<title>Node2</title>
<g id="a_node3"><a xlink:href="../../d2/d45/GPUCommonRtypes_8h.html" target="_top" xlink:title="GPUCommonRtypes.h">
<polygon fill="none" stroke="#000000" points="0,-56.5 0,-75.5 118,-75.5 118,-56.5 0,-56.5"/>
<text text-anchor="middle" x="59" y="-63.5" font-family="Helvetica,sans-Serif" font-size="10.00" fill="#000000">GPUCommonRtypes.h</text>
</a>
</g>
</g>
<!-- Node1&#45;&gt;Node2 -->
<g id="edge2" class="edge">
<title>Node1&#45;&gt;Node2</title>
<path fill="none" stroke="#191970" d="M59,-112.2977C59,-104.3834 59,-94.6043 59,-86.0759"/>
<polygon fill="#191970" stroke="#191970" points="62.5001,-85.8469 59,-75.8469 55.5001,-85.847 62.5001,-85.8469"/>
</g>
<!-- Node3 -->
<g id="node4" class="node">
<title>Node3</title>
<polygon fill="none" stroke="#bfbfbf" points="31,-.5 31,-19.5 87,-19.5 87,-.5 31,-.5"/>
<text text-anchor="middle" x="59" y="-7.5" font-family="Helvetica,sans-Serif" font-size="10.00" fill="#000000">Rtypes.h</text>
</g>
<!-- Node2&#45;&gt;Node3 -->
<g id="edge3" class="edge">
<title>Node2&#45;&gt;Node3</title>
<path fill="none" stroke="#191970" d="M59,-56.2455C59,-48.9382 59,-38.6944 59,-29.7046"/>
<polygon fill="#191970" stroke="#191970" points="62.5001,-29.6426 59,-19.6427 55.5001,-29.6427 62.5001,-29.6426"/>
</g>
<!-- Node4&#45;&gt;Node1 -->
<g id="edge5" class="edge">
<title>Node4&#45;&gt;Node1</title>
<path fill="none" stroke="#191970" d="M102.0313,-179.3906C95.5764,-171.6068 86.2168,-160.3202 77.8739,-150.2597"/>
<polygon fill="#191970" stroke="#191970" points="80.5536,-148.008 71.476,-142.5446 75.1652,-152.4764 80.5536,-148.008"/>
</g>
</g>
</svg>
