<?xml version="1.0" encoding="UTF-8" standalone="no"?>
<!DOCTYPE svg PUBLIC "-//W3C//DTD SVG 1.1//EN"
 "http://www.w3.org/Graphics/SVG/1.1/DTD/svg11.dtd">
<!-- Generated by graphviz version 2.40.1 (20161225.0304)
 -->
<!-- Title: o2::header::Descriptor&lt; N, PrinterPolicy &gt; Pages: 1 -->
<svg width="280pt" height="347pt"
 viewBox="0.00 0.00 279.50 347.00" xmlns="http://www.w3.org/2000/svg" xmlns:xlink="http://www.w3.org/1999/xlink">
<g id="graph0" class="graph" transform="scale(1 1) rotate(0) translate(4 343)">
<title>o2::header::Descriptor&lt; N, PrinterPolicy &gt;</title>
<!-- Node6 -->
<g id="node1" class="node">
<title>Node6</title>
<polygon fill="#bfbfbf" stroke="#000000" points="105,-.5 105,-211.5 218,-211.5 218,-.5 105,-.5"/>
<text text-anchor="start" x="113" y="-199.5" font-family="Helvetica,sans-Serif" font-size="10.00" fill="#000000">o2::header::Descriptor</text>
<text text-anchor="middle" x="161.5" y="-188.5" font-family="Helvetica,sans-Serif" font-size="10.00" fill="#000000">&lt; N, PrinterPolicy &gt;</text>
<polyline fill="none" stroke="#000000" points="105,-181.5 218,-181.5 "/>
<text text-anchor="middle" x="161.5" y="-169.5" font-family="Helvetica,sans-Serif" font-size="10.00" fill="#000000"> </text>
<polyline fill="none" stroke="#000000" points="105,-162.5 218,-162.5 "/>
<text text-anchor="start" x="113" y="-150.5" font-family="Helvetica,sans-Serif" font-size="10.00" fill="#000000">+ Descriptor()</text>
<text text-anchor="start" x="113" y="-139.5" font-family="Helvetica,sans-Serif" font-size="10.00" fill="#000000">+ Descriptor()</text>
<text text-anchor="start" x="113" y="-128.5" font-family="Helvetica,sans-Serif" font-size="10.00" fill="#000000">+ Descriptor()</text>
<text text-anchor="start" x="113" y="-117.5" font-family="Helvetica,sans-Serif" font-size="10.00" fill="#000000">+ operator=()</text>
<text text-anchor="start" x="113" y="-106.5" font-family="Helvetica,sans-Serif" font-size="10.00" fill="#000000">+ operator ItgType()</text>
<text text-anchor="start" x="113" y="-95.5" font-family="Helvetica,sans-Serif" font-size="10.00" fill="#000000">+ Descriptor()</text>
<text text-anchor="start" x="113" y="-84.5" font-family="Helvetica,sans-Serif" font-size="10.00" fill="#000000">+ runtimeInit()</text>
<text text-anchor="start" x="113" y="-73.5" font-family="Helvetica,sans-Serif" font-size="10.00" fill="#000000">+ operator==()</text>
<text text-anchor="start" x="113" y="-62.5" font-family="Helvetica,sans-Serif" font-size="10.00" fill="#000000">+ operator&lt;()</text>
<text text-anchor="start" x="113" y="-51.5" font-family="Helvetica,sans-Serif" font-size="10.00" fill="#000000">+ operator!=()</text>
<text text-anchor="start" x="113" y="-40.5" font-family="Helvetica,sans-Serif" font-size="10.00" fill="#000000">+ operator==()</text>
<text text-anchor="start" x="113" y="-29.5" font-family="Helvetica,sans-Serif" font-size="10.00" fill="#000000">+ operator!=()</text>
<text text-anchor="start" x="113" y="-18.5" font-family="Helvetica,sans-Serif" font-size="10.00" fill="#000000">+ as()</text>
<text text-anchor="start" x="113" y="-7.5" font-family="Helvetica,sans-Serif" font-size="10.00" fill="#000000">+ print()</text>
</g>
<!-- Node7 -->
<g id="node2" class="node">
<title>Node7</title>
<polygon fill="none" stroke="#bfbfbf" points="0,-281.5 0,-338.5 97,-338.5 97,-281.5 0,-281.5"/>
<text text-anchor="middle" x="48.5" y="-326.5" font-family="Helvetica,sans-Serif" font-size="10.00" fill="#000000">anonymous:+@87</text>
<polyline fill="none" stroke="#bfbfbf" points="0,-319.5 97,-319.5 "/>
<text text-anchor="middle" x="48.5" y="-307.5" font-family="Helvetica,sans-Serif" font-size="10.00" fill="#000000"> </text>
<polyline fill="none" stroke="#bfbfbf" points="0,-300.5 97,-300.5 "/>
<text text-anchor="middle" x="48.5" y="-288.5" font-family="Helvetica,sans-Serif" font-size="10.00" fill="#000000"> </text>
</g>
<!-- Node7&#45;&gt;Node6 -->
<g id="edge1" class="edge">
<title>Node7&#45;&gt;Node6</title>
<path fill="none" stroke="#404040" d="M64.4505,-281.2045C73.7357,-264.4417 86.1091,-242.1039 98.9044,-219.0044"/>
<polygon fill="none" stroke="#404040" points="98.9888,-218.852 98.3971,-211.6652 104.8034,-208.3549 105.3952,-215.5417 98.9888,-218.852"/>
<text text-anchor="middle" x="108" y="-244" font-family="Helvetica,sans-Serif" font-size="10.00" fill="#000000"> +@87</text>
</g>
<!-- Node8 -->
<g id="node3" class="node">
<title>Node8</title>
<polygon fill="none" stroke="#bfbfbf" points="115.5,-281.5 115.5,-338.5 153.5,-338.5 153.5,-281.5 115.5,-281.5"/>
<text text-anchor="middle" x="134.5" y="-326.5" font-family="Helvetica,sans-Serif" font-size="10.00" fill="#000000">Type</text>
<polyline fill="none" stroke="#bfbfbf" points="115.5,-319.5 153.5,-319.5 "/>
<text text-anchor="middle" x="134.5" y="-307.5" font-family="Helvetica,sans-Serif" font-size="10.00" fill="#000000"> </text>
<polyline fill="none" stroke="#bfbfbf" points="115.5,-300.5 153.5,-300.5 "/>
<text text-anchor="middle" x="134.5" y="-288.5" font-family="Helvetica,sans-Serif" font-size="10.00" fill="#000000"> </text>
</g>
<!-- Node8&#45;&gt;Node6 -->
<g id="edge2" class="edge">
<title>Node8&#45;&gt;Node6</title>
<path fill="none" stroke="#404040" d="M138.3112,-281.2045C140.384,-265.5434 143.1008,-245.0161 145.9422,-223.5478"/>
<polygon fill="none" stroke="#404040" points="145.9557,-223.4454 142.7775,-216.9724 147.5303,-211.5491 150.7084,-218.0221 145.9557,-223.4454"/>
<text text-anchor="middle" x="154.5" y="-244" font-family="Helvetica,sans-Serif" font-size="10.00" fill="#000000"> +itg</text>
</g>
<!-- Node9 -->
<g id="node4" class="node">
<title>Node9</title>
<polygon fill="none" stroke="#bfbfbf" points="172,-281.5 172,-338.5 207,-338.5 207,-281.5 172,-281.5"/>
<text text-anchor="middle" x="189.5" y="-326.5" font-family="Helvetica,sans-Serif" font-size="10.00" fill="#000000">char</text>
<polyline fill="none" stroke="#bfbfbf" points="172,-319.5 207,-319.5 "/>
<text text-anchor="middle" x="189.5" y="-307.5" font-family="Helvetica,sans-Serif" font-size="10.00" fill="#000000"> </text>
<polyline fill="none" stroke="#bfbfbf" points="172,-300.5 207,-300.5 "/>
<text text-anchor="middle" x="189.5" y="-288.5" font-family="Helvetica,sans-Serif" font-size="10.00" fill="#000000"> </text>
</g>
<!-- Node9&#45;&gt;Node6 -->
<g id="edge3" class="edge">
<title>Node9&#45;&gt;Node6</title>
<path fill="none" stroke="#404040" d="M185.5477,-281.2045C183.3981,-265.5434 180.5806,-245.0161 177.634,-223.5478"/>
<polygon fill="none" stroke="#404040" points="177.619,-223.4377 172.8402,-218.0373 175.9871,-211.5491 180.7659,-216.9494 177.619,-223.4377"/>
<text text-anchor="middle" x="193" y="-244" font-family="Helvetica,sans-Serif" font-size="10.00" fill="#000000"> +str</text>
</g>
<!-- Node10 -->
<g id="node5" class="node">
<title>Node10</title>
<polygon fill="none" stroke="#bfbfbf" points="225,-281.5 225,-338.5 254,-338.5 254,-281.5 225,-281.5"/>
<text text-anchor="middle" x="239.5" y="-326.5" font-family="Helvetica,sans-Serif" font-size="10.00" fill="#000000">int</text>
<polyline fill="none" stroke="#bfbfbf" points="225,-319.5 254,-319.5 "/>
<text text-anchor="middle" x="239.5" y="-307.5" font-family="Helvetica,sans-Serif" font-size="10.00" fill="#000000"> </text>
<polyline fill="none" stroke="#bfbfbf" points="225,-300.5 254,-300.5 "/>
<text text-anchor="middle" x="239.5" y="-288.5" font-family="Helvetica,sans-Serif" font-size="10.00" fill="#000000"> </text>
</g>
<!-- Node10&#45;&gt;Node6 -->
<g id="edge4" class="edge">
<title>Node10&#45;&gt;Node6</title>
<path fill="none" stroke="#404040" d="M228.4899,-281.2045C222.4465,-265.3984 214.5077,-244.6356 206.2167,-222.9513"/>
<polygon fill="none" stroke="#404040" points="206.1427,-222.7577 200.2637,-218.582 201.857,-211.5491 207.7361,-215.7249 206.1427,-222.7577"/>
<text text-anchor="middle" x="246" y="-255" font-family="Helvetica,sans-Serif" font-size="10.00" fill="#000000"> +arraySize</text>
<text text-anchor="middle" x="246" y="-244" font-family="Helvetica,sans-Serif" font-size="10.00" fill="#000000">+size</text>
<text text-anchor="middle" x="246" y="-233" font-family="Helvetica,sans-Serif" font-size="10.00" fill="#000000">+bitcount</text>
</g>
</g>
</svg>
