<?xml version="1.0" encoding="UTF-8" standalone="no"?>
<!DOCTYPE svg PUBLIC "-//W3C//DTD SVG 1.1//EN"
 "http://www.w3.org/Graphics/SVG/1.1/DTD/svg11.dtd">
<!-- Generated by graphviz version 2.40.1 (20161225.0304)
 -->
<!-- Title: /home/runner/work/AliceO2/AliceO2/GPU/GPUTracking/Interface/GPUO2Interface.h Pages: 1 -->
<svg width="284pt" height="218pt"
 viewBox="0.00 0.00 283.50 218.00" xmlns="http://www.w3.org/2000/svg" xmlns:xlink="http://www.w3.org/1999/xlink">
<g id="graph0" class="graph" transform="scale(1 1) rotate(0) translate(4 214)">
<title>/home/runner/work/AliceO2/AliceO2/GPU/GPUTracking/Interface/GPUO2Interface.h</title>
<!-- Node0 -->
<g id="node1" class="node">
<title>Node0</title>
<polygon fill="#bfbfbf" stroke="#000000" points="71,-168.5 71,-209.5 213,-209.5 213,-168.5 71,-168.5"/>
<text text-anchor="start" x="79" y="-197.5" font-family="Helvetica,sans-Serif" font-size="10.00" fill="#000000">/home/runner/work/AliceO2</text>
<text text-anchor="start" x="79" y="-186.5" font-family="Helvetica,sans-Serif" font-size="10.00" fill="#000000">/AliceO2/GPU/GPUTracking</text>
<text text-anchor="middle" x="142" y="-175.5" font-family="Helvetica,sans-Serif" font-size="10.00" fill="#000000">/Interface/GPUO2Interface.h</text>
</g>
<!-- Node1 -->
<g id="node2" class="node">
<title>Node1</title>
<polygon fill="none" stroke="#bfbfbf" points="62,-112.5 62,-131.5 114,-131.5 114,-112.5 62,-112.5"/>
<text text-anchor="middle" x="88" y="-119.5" font-family="Helvetica,sans-Serif" font-size="10.00" fill="#000000">memory</text>
</g>
<!-- Node0&#45;&gt;Node1 -->
<g id="edge1" class="edge">
<title>Node0&#45;&gt;Node1</title>
<path fill="none" stroke="#191970" d="M125.2101,-168.168C117.8724,-159.0639 109.3549,-148.4959 102.322,-139.7699"/>
<polygon fill="#191970" stroke="#191970" points="104.8831,-137.3701 95.8828,-131.7805 99.433,-141.7628 104.8831,-137.3701"/>
</g>
<!-- Node2 -->
<g id="node3" class="node">
<title>Node2</title>
<g id="a_node3"><a xlink:href="../../df/d21/GPUCommonDef_8h.html" target="_top" xlink:title="GPUCommonDef.h">
<polygon fill="none" stroke="#000000" points="91,-56.5 91,-75.5 193,-75.5 193,-56.5 91,-56.5"/>
<text text-anchor="middle" x="142" y="-63.5" font-family="Helvetica,sans-Serif" font-size="10.00" fill="#000000">GPUCommonDef.h</text>
</a>
</g>
</g>
<!-- Node0&#45;&gt;Node2 -->
<g id="edge2" class="edge">
<title>Node0&#45;&gt;Node2</title>
<path fill="none" stroke="#191970" d="M142,-168.4126C142,-145.3618 142,-108.2774 142,-85.6259"/>
<polygon fill="#191970" stroke="#191970" points="145.5001,-85.5181 142,-75.5182 138.5001,-85.5182 145.5001,-85.5181"/>
</g>
<!-- Node5 -->
<g id="node6" class="node">
<title>Node5</title>
<g id="a_node6"><a xlink:href="../../d4/dc5/GPUDataTypes_8h.html" target="_top" xlink:title="GPUDataTypes.h">
<polygon fill="none" stroke="#000000" points="170.5,-112.5 170.5,-131.5 265.5,-131.5 265.5,-112.5 170.5,-112.5"/>
<text text-anchor="middle" x="218" y="-119.5" font-family="Helvetica,sans-Serif" font-size="10.00" fill="#000000">GPUDataTypes.h</text>
</a>
</g>
</g>
<!-- Node0&#45;&gt;Node5 -->
<g id="edge5" class="edge">
<title>Node0&#45;&gt;Node5</title>
<path fill="none" stroke="#191970" d="M165.6303,-168.168C176.4952,-158.5897 189.1982,-147.3911 199.3721,-138.422"/>
<polygon fill="#191970" stroke="#191970" points="201.719,-141.0189 206.9057,-131.7805 197.0899,-135.768 201.719,-141.0189"/>
</g>
<!-- Node3 -->
<g id="node4" class="node">
<title>Node3</title>
<g id="a_node4"><a xlink:href="../../d5/d93/GPUCommonDefSettings_8h.html" target="_top" xlink:title="GPUCommonDefSettings.h">
<polygon fill="none" stroke="#000000" points="0,-.5 0,-19.5 138,-19.5 138,-.5 0,-.5"/>
<text text-anchor="middle" x="69" y="-7.5" font-family="Helvetica,sans-Serif" font-size="10.00" fill="#000000">GPUCommonDefSettings.h</text>
</a>
</g>
</g>
<!-- Node2&#45;&gt;Node3 -->
<g id="edge3" class="edge">
<title>Node2&#45;&gt;Node3</title>
<path fill="none" stroke="#191970" d="M129.2844,-56.2455C118.398,-47.8943 102.5117,-35.7076 89.78,-25.9408"/>
<polygon fill="#191970" stroke="#191970" points="91.6346,-22.9523 81.5699,-19.6427 87.3739,-28.5063 91.6346,-22.9523"/>
</g>
<!-- Node4 -->
<g id="node5" class="node">
<title>Node4</title>
<g id="a_node5"><a xlink:href="../../da/d5a/GPUCommonDefAPI_8h.html" target="_top" xlink:title="GPUCommonDefAPI.h">
<polygon fill="none" stroke="#000000" points="156.5,-.5 156.5,-19.5 275.5,-19.5 275.5,-.5 156.5,-.5"/>
<text text-anchor="middle" x="216" y="-7.5" font-family="Helvetica,sans-Serif" font-size="10.00" fill="#000000">GPUCommonDefAPI.h</text>
</a>
</g>
</g>
<!-- Node2&#45;&gt;Node4 -->
<g id="edge4" class="edge">
<title>Node2&#45;&gt;Node4</title>
<path fill="none" stroke="#191970" d="M154.8898,-56.2455C165.9254,-47.8943 182.0292,-35.7076 194.9353,-25.9408"/>
<polygon fill="#191970" stroke="#191970" points="197.3959,-28.4681 203.2579,-19.6427 193.1717,-22.8862 197.3959,-28.4681"/>
</g>
<!-- Node5&#45;&gt;Node2 -->
<g id="edge6" class="edge">
<title>Node5&#45;&gt;Node2</title>
<path fill="none" stroke="#191970" d="M204.7618,-112.2455C193.319,-103.814 176.5704,-91.4729 163.2525,-81.6598"/>
<polygon fill="#191970" stroke="#191970" points="165.2133,-78.757 155.0865,-75.6427 161.0609,-84.3924 165.2133,-78.757"/>
</g>
<!-- Node6 -->
<g id="node7" class="node">
<title>Node6</title>
<polygon fill="none" stroke="#bfbfbf" points="211.5,-56.5 211.5,-75.5 260.5,-75.5 260.5,-56.5 211.5,-56.5"/>
<text text-anchor="middle" x="236" y="-63.5" font-family="Helvetica,sans-Serif" font-size="10.00" fill="#000000">cstddef</text>
</g>
<!-- Node5&#45;&gt;Node6 -->
<g id="edge7" class="edge">
<title>Node5&#45;&gt;Node6</title>
<path fill="none" stroke="#191970" d="M221.1354,-112.2455C223.51,-104.8579 226.8493,-94.4689 229.7615,-85.4087"/>
<polygon fill="#191970" stroke="#191970" points="233.1725,-86.234 232.9006,-75.6427 226.5083,-84.0919 233.1725,-86.234"/>
</g>
</g>
</svg>
