<?xml version="1.0" encoding="UTF-8" standalone="no"?>
<!DOCTYPE svg PUBLIC "-//W3C//DTD SVG 1.1//EN"
 "http://www.w3.org/Graphics/SVG/1.1/DTD/svg11.dtd">
<!-- Generated by graphviz version 2.40.1 (20161225.0304)
 -->
<!-- Title: /home/runner/work/AliceO2/AliceO2/DataFormats/Detectors/FIT/FV0/src/BCData.cxx Pages: 1 -->
<!--zoomable 285 -->
<svg id="main" version="1.1" xmlns="http://www.w3.org/2000/svg" xmlns:xlink="http://www.w3.org/1999/xlink" xml:space="preserve" onload="init(evt)">
<style type="text/css"><![CDATA[
.edge:hover path { stroke: red; }
.edge:hover polygon { stroke: red; fill: red; }
]]></style>
<script type="text/javascript"><![CDATA[
var edges = document.getElementsByTagName('g');
if (edges && edges.length) {
  for (var i=0;i<edges.length;i++) {
    if (edges[i].id.substr(0,4)=='edge') {
      edges[i].setAttribute('class','edge');
    }
  }
}
]]></script>
        <defs>
                <circle id="rim" cx="0" cy="0" r="7"/>
                <circle id="rim2" cx="0" cy="0" r="3.5"/>
                <g id="zoomPlus">
                        <use xlink:href="#rim" fill="#404040">
                                <set attributeName="fill" to="#808080" begin="zoomplus.mouseover" end="zoomplus.mouseout"/>
                        </use>
                        <path d="M-4,0h8M0,-4v8" fill="none" stroke="white" stroke-width="1.5" pointer-events="none"/>
                </g>
                <g id="zoomMin">
                        <use xlink:href="#rim" fill="#404040">
                                <set attributeName="fill" to="#808080" begin="zoomminus.mouseover" end="zoomminus.mouseout"/>
                        </use>
                        <path d="M-4,0h8" fill="none" stroke="white" stroke-width="1.5" pointer-events="none"/>
                </g>
                <g id="dirArrow">
                        <path fill="none" stroke="white" stroke-width="1.5" d="M0,-3.0v7 M-2.5,-0.5L0,-3.0L2.5,-0.5"/>
                </g>
               <g id="resetDef">
                       <use xlink:href="#rim2" fill="#404040">
                               <set attributeName="fill" to="#808080" begin="reset.mouseover" end="reset.mouseout"/>
                       </use>
               </g>
        </defs>

<script type="text/javascript">
var viewWidth = 812;
var viewHeight = 285;
var sectionId = 'dynsection-0';
</script>
<script xlink:href="../../svgpan.js"/>
<svg id="graph" class="graph">
<g id="viewport">
<title>/home/runner/work/AliceO2/AliceO2/DataFormats/Detectors/FIT/FV0/src/BCData.cxx</title>
<!-- Node0 -->
<g id="node1" class="node">
<title>Node0</title>
<polygon fill="#bfbfbf" stroke="#000000" points="584.5,-235.5 584.5,-276.5 744.5,-276.5 744.5,-235.5 584.5,-235.5"/>
<text text-anchor="start" x="592.5" y="-264.5" font-family="Helvetica,sans-Serif" font-size="10.00" fill="#000000">/home/runner/work/AliceO2</text>
<text text-anchor="start" x="592.5" y="-253.5" font-family="Helvetica,sans-Serif" font-size="10.00" fill="#000000">/AliceO2/DataFormats/Detectors</text>
<text text-anchor="middle" x="664.5" y="-242.5" font-family="Helvetica,sans-Serif" font-size="10.00" fill="#000000">/FIT/FV0/src/BCData.cxx</text>
</g>
<!-- Node1 -->
<g id="node2" class="node">
<title>Node1</title>
<g id="a_node2"><a xlink:href="../../d7/d54/FIT_2FV0_2include_2DataFormatsFV0_2BCData_8h.html" target="_top" xlink:title="DataFormatsFV0/BCData.h">
<polygon fill="none" stroke="#000000" points="428.5,-179.5 428.5,-198.5 566.5,-198.5 566.5,-179.5 428.5,-179.5"/>
<text text-anchor="middle" x="497.5" y="-186.5" font-family="Helvetica,sans-Serif" font-size="10.00" fill="#000000">DataFormatsFV0/BCData.h</text>
</a>
</g>
</g>
<!-- Node0&#45;&gt;Node1 -->
<g id="edge1" class="edge">
<title>Node0&#45;&gt;Node1</title>
<path fill="none" stroke="#191970" d="M613.0318,-235.3511C586.3652,-224.6525 554.5611,-211.8928 531.0794,-202.472"/>
<polygon fill="#191970" stroke="#191970" points="532.1487,-199.1299 521.5645,-198.6546 529.5422,-205.6265 532.1487,-199.1299"/>
</g>
<!-- Node11 -->
<g id="node12" class="node">
<title>Node11</title>
<g id="a_node12"><a xlink:href="../../d0/def/FIT_2FV0_2include_2DataFormatsFV0_2ChannelData_8h.html" target="_top" xlink:title="DataFormatsFV0/ChannelData.h">
<polygon fill="none" stroke="#000000" points="584.5,-179.5 584.5,-198.5 744.5,-198.5 744.5,-179.5 584.5,-179.5"/>
<text text-anchor="middle" x="664.5" y="-186.5" font-family="Helvetica,sans-Serif" font-size="10.00" fill="#000000">DataFormatsFV0/ChannelData.h</text>
</a>
</g>
</g>
<!-- Node0&#45;&gt;Node11 -->
<g id="edge13" class="edge">
<title>Node0&#45;&gt;Node11</title>
<path fill="none" stroke="#191970" d="M664.5,-235.168C664.5,-226.8226 664.5,-217.2471 664.5,-208.9879"/>
<polygon fill="#191970" stroke="#191970" points="668.0001,-208.7804 664.5,-198.7805 661.0001,-208.7805 668.0001,-208.7804"/>
</g>
<!-- Node13 -->
<g id="node14" class="node">
<title>Node13</title>
<polygon fill="none" stroke="#bfbfbf" points="763,-179.5 763,-198.5 804,-198.5 804,-179.5 763,-179.5"/>
<text text-anchor="middle" x="783.5" y="-186.5" font-family="Helvetica,sans-Serif" font-size="10.00" fill="#000000">bitset</text>
</g>
<!-- Node0&#45;&gt;Node13 -->
<g id="edge16" class="edge">
<title>Node0&#45;&gt;Node13</title>
<path fill="none" stroke="#191970" d="M701.1749,-235.3511C719.3286,-225.1301 740.8236,-213.0279 757.2966,-203.7532"/>
<polygon fill="#191970" stroke="#191970" points="759.3555,-206.6106 766.3522,-198.6546 755.9213,-200.5109 759.3555,-206.6106"/>
</g>
<!-- Node2 -->
<g id="node3" class="node">
<title>Node2</title>
<g id="a_node3"><a xlink:href="../../d9/d80/InteractionRecord_8h.html" target="_top" xlink:title="CommonDataFormat/Interaction\lRecord.h">
<polygon fill="none" stroke="#000000" points="103,-112.5 103,-142.5 260,-142.5 260,-112.5 103,-112.5"/>
<text text-anchor="start" x="111" y="-130.5" font-family="Helvetica,sans-Serif" font-size="10.00" fill="#000000">CommonDataFormat/Interaction</text>
<text text-anchor="middle" x="181.5" y="-119.5" font-family="Helvetica,sans-Serif" font-size="10.00" fill="#000000">Record.h</text>
</a>
</g>
</g>
<!-- Node1&#45;&gt;Node2 -->
<g id="edge2" class="edge">
<title>Node1&#45;&gt;Node2</title>
<path fill="none" stroke="#191970" d="M448.4717,-179.4581C400.538,-170.1292 326.5147,-155.7228 268.561,-144.4438"/>
<polygon fill="#191970" stroke="#191970" points="269.1569,-140.9942 258.6724,-142.5193 267.8196,-147.8653 269.1569,-140.9942"/>
</g>
<!-- Node4 -->
<g id="node5" class="node">
<title>Node4</title>
<polygon fill="none" stroke="#bfbfbf" points="503.5,-.5 503.5,-19.5 559.5,-19.5 559.5,-.5 503.5,-.5"/>
<text text-anchor="middle" x="531.5" y="-7.5" font-family="Helvetica,sans-Serif" font-size="10.00" fill="#000000">Rtypes.h</text>
</g>
<!-- Node1&#45;&gt;Node4 -->
<g id="edge11" class="edge">
<title>Node1&#45;&gt;Node4</title>
<path fill="none" stroke="#191970" d="M501.2192,-179.269C504.6104,-170.0528 509.531,-155.7632 512.5,-143 521.7069,-103.4207 527.1821,-56.1149 529.7406,-29.9296"/>
<polygon fill="#191970" stroke="#191970" points="533.2429,-30.0679 530.6875,-19.7858 526.2732,-29.4172 533.2429,-30.0679"/>
</g>
<!-- Node9 -->
<g id="node10" class="node">
<title>Node9</title>
<g id="a_node10"><a xlink:href="../../de/d64/RangeReference_8h.html" target="_top" xlink:title="Class to refer to the 1st entry and N elements of some group in the continuous container. ">
<polygon fill="none" stroke="#000000" points="310,-118 310,-137 503,-137 503,-118 310,-118"/>
<text text-anchor="middle" x="406.5" y="-125" font-family="Helvetica,sans-Serif" font-size="10.00" fill="#000000">CommonDataFormat/RangeReference.h</text>
</a>
</g>
</g>
<!-- Node1&#45;&gt;Node9 -->
<g id="edge9" class="edge">
<title>Node1&#45;&gt;Node9</title>
<path fill="none" stroke="#191970" d="M483.2813,-179.3906C468.8566,-169.6421 446.3024,-154.3994 429.364,-142.9521"/>
<polygon fill="#191970" stroke="#191970" points="430.8641,-139.7415 420.6189,-137.0419 426.9444,-145.5412 430.8641,-139.7415"/>
</g>
<!-- Node10 -->
<g id="node11" class="node">
<title>Node10</title>
<polygon fill="none" stroke="#bfbfbf" points="560,-118 560,-137 613,-137 613,-118 560,-118"/>
<text text-anchor="middle" x="586.5" y="-125" font-family="Helvetica,sans-Serif" font-size="10.00" fill="#000000">gsl/span</text>
</g>
<!-- Node1&#45;&gt;Node10 -->
<g id="edge12" class="edge">
<title>Node1&#45;&gt;Node10</title>
<path fill="none" stroke="#191970" d="M511.4063,-179.3906C525.5138,-169.6421 547.5724,-154.3994 564.1385,-142.9521"/>
<polygon fill="#191970" stroke="#191970" points="566.4542,-145.6063 572.6914,-137.0419 562.4747,-139.8474 566.4542,-145.6063"/>
</g>
<!-- Node3 -->
<g id="node4" class="node">
<title>Node3</title>
<g id="a_node4"><a xlink:href="../../d2/d45/GPUCommonRtypes_8h.html" target="_top" xlink:title="GPUCommonRtypes.h">
<polygon fill="none" stroke="#000000" points="385.5,-56.5 385.5,-75.5 503.5,-75.5 503.5,-56.5 385.5,-56.5"/>
<text text-anchor="middle" x="444.5" y="-63.5" font-family="Helvetica,sans-Serif" font-size="10.00" fill="#000000">GPUCommonRtypes.h</text>
</a>
</g>
</g>
<!-- Node2&#45;&gt;Node3 -->
<g id="edge3" class="edge">
<title>Node2&#45;&gt;Node3</title>
<path fill="none" stroke="#191970" d="M245.837,-112.4554C291.4515,-101.7889 351.804,-87.6761 393.9706,-77.8158"/>
<polygon fill="#191970" stroke="#191970" points="394.804,-81.2154 403.7443,-75.5303 393.21,-74.3993 394.804,-81.2154"/>
</g>
<!-- Node5 -->
<g id="node6" class="node">
<title>Node5</title>
<polygon fill="none" stroke="#bfbfbf" points="0,-56.5 0,-75.5 45,-75.5 45,-56.5 0,-56.5"/>
<text text-anchor="middle" x="22.5" y="-63.5" font-family="Helvetica,sans-Serif" font-size="10.00" fill="#000000">iosfwd</text>
</g>
<!-- Node2&#45;&gt;Node5 -->
<g id="edge5" class="edge">
<title>Node2&#45;&gt;Node5</title>
<path fill="none" stroke="#191970" d="M142.6042,-112.4554C115.6581,-102.0328 80.2046,-88.3197 54.8141,-78.4988"/>
<polygon fill="#191970" stroke="#191970" points="55.8675,-75.1536 45.2782,-74.8104 53.3422,-81.6823 55.8675,-75.1536"/>
</g>
<!-- Node6 -->
<g id="node7" class="node">
<title>Node6</title>
<polygon fill="none" stroke="#bfbfbf" points="63.5,-56.5 63.5,-75.5 109.5,-75.5 109.5,-56.5 63.5,-56.5"/>
<text text-anchor="middle" x="86.5" y="-63.5" font-family="Helvetica,sans-Serif" font-size="10.00" fill="#000000">cstdint</text>
</g>
<!-- Node2&#45;&gt;Node6 -->
<g id="edge6" class="edge">
<title>Node2&#45;&gt;Node6</title>
<path fill="none" stroke="#191970" d="M158.0168,-112.2977C143.3652,-102.8127 124.5764,-90.6495 109.9341,-81.1705"/>
<polygon fill="#191970" stroke="#191970" points="111.7236,-78.1596 101.427,-75.6633 107.9195,-84.0357 111.7236,-78.1596"/>
</g>
<!-- Node7 -->
<g id="node8" class="node">
<title>Node7</title>
<polygon fill="none" stroke="#bfbfbf" points="127.5,-56.5 127.5,-75.5 171.5,-75.5 171.5,-56.5 127.5,-56.5"/>
<text text-anchor="middle" x="149.5" y="-63.5" font-family="Helvetica,sans-Serif" font-size="10.00" fill="#000000">cmath</text>
</g>
<!-- Node2&#45;&gt;Node7 -->
<g id="edge7" class="edge">
<title>Node2&#45;&gt;Node7</title>
<path fill="none" stroke="#191970" d="M173.5899,-112.2977C169.2868,-104.0277 163.9242,-93.7215 159.3518,-84.9339"/>
<polygon fill="#191970" stroke="#191970" points="162.3443,-83.1024 154.6236,-75.8469 156.1346,-86.3335 162.3443,-83.1024"/>
</g>
<!-- Node8 -->
<g id="node9" class="node">
<title>Node8</title>
<g id="a_node9"><a xlink:href="../../d4/dc6/LHCConstants_8h.html" target="_top" xlink:title="Header to collect LHC related constants. ">
<polygon fill="none" stroke="#000000" points="189.5,-56.5 189.5,-75.5 367.5,-75.5 367.5,-56.5 189.5,-56.5"/>
<text text-anchor="middle" x="278.5" y="-63.5" font-family="Helvetica,sans-Serif" font-size="10.00" fill="#000000">CommonConstants/LHCConstants.h</text>
</a>
</g>
</g>
<!-- Node2&#45;&gt;Node8 -->
<g id="edge8" class="edge">
<title>Node2&#45;&gt;Node8</title>
<path fill="none" stroke="#191970" d="M205.4775,-112.2977C220.4376,-102.8127 239.622,-90.6495 254.5726,-81.1705"/>
<polygon fill="#191970" stroke="#191970" points="256.6873,-83.9739 263.2587,-75.6633 252.939,-78.062 256.6873,-83.9739"/>
</g>
<!-- Node3&#45;&gt;Node4 -->
<g id="edge4" class="edge">
<title>Node3&#45;&gt;Node4</title>
<path fill="none" stroke="#191970" d="M459.6542,-56.2455C473.0027,-47.6534 492.6586,-35.0014 508.0383,-25.1018"/>
<polygon fill="#191970" stroke="#191970" points="510.0051,-27.9982 516.5194,-19.6427 506.2164,-22.1121 510.0051,-27.9982"/>
</g>
<!-- Node9&#45;&gt;Node3 -->
<g id="edge10" class="edge">
<title>Node9&#45;&gt;Node3</title>
<path fill="none" stroke="#191970" d="M412.4375,-117.8906C417.9267,-109.0068 426.2353,-95.5601 433.019,-84.5811"/>
<polygon fill="#191970" stroke="#191970" points="436.1998,-86.0917 438.4788,-75.7449 430.2449,-82.4122 436.1998,-86.0917"/>
</g>
<!-- Node11&#45;&gt;Node4 -->
<g id="edge15" class="edge">
<title>Node11&#45;&gt;Node4</title>
<path fill="none" stroke="#191970" d="M660.1181,-179.3438C653.1171,-164.3376 638.5527,-134.7779 622.5,-112 599.7909,-79.777 568.2377,-46.4251 548.8794,-26.9767"/>
<polygon fill="#191970" stroke="#191970" points="551.1875,-24.336 541.6275,-19.7691 546.2529,-29.301 551.1875,-24.336"/>
</g>
<!-- Node12 -->
<g id="node13" class="node">
<title>Node12</title>
<polygon fill="none" stroke="#bfbfbf" points="669.5,-118 669.5,-137 707.5,-137 707.5,-118 669.5,-118"/>
<text text-anchor="middle" x="688.5" y="-125" font-family="Helvetica,sans-Serif" font-size="10.00" fill="#000000">array</text>
</g>
<!-- Node11&#45;&gt;Node12 -->
<g id="edge14" class="edge">
<title>Node11&#45;&gt;Node12</title>
<path fill="none" stroke="#191970" d="M668.25,-179.3906C671.6468,-170.6862 676.7531,-157.6015 680.988,-146.7494"/>
<polygon fill="#191970" stroke="#191970" points="684.3222,-147.8331 684.6971,-137.2449 677.8011,-145.2882 684.3222,-147.8331"/>
</g>
</g>
</svg>
        <g id="navigator" transform="translate(0 0)" fill="#404254">
                <rect fill="#f2f5e9" fill-opacity="0.5" stroke="#606060" stroke-width=".5" x="0" y="0" width="60" height="60"/>
                <use id="zoomplus" xlink:href="#zoomPlus" x="17" y="9" onmousedown="handleZoom(evt,'in')"/>
                <use id="zoomminus" xlink:href="#zoomMin" x="42" y="9" onmousedown="handleZoom(evt,'out')"/>
                <use id="reset" xlink:href="#resetDef" x="30" y="36" onmousedown="handleReset()"/>
                <g id="arrowUp" xlink:href="#dirArrow" transform="translate(30 24)" onmousedown="handlePan(0,-1)">
                  <use xlink:href="#rim" fill="#404040">
                        <set attributeName="fill" to="#808080" begin="arrowUp.mouseover" end="arrowUp.mouseout"/>
                  </use>
                  <path fill="none" stroke="white" stroke-width="1.5" d="M0,-3.0v7 M-2.5,-0.5L0,-3.0L2.5,-0.5"/>
                </g>
                <g id="arrowRight" xlink:href="#dirArrow" transform="rotate(90) translate(36 -43)" onmousedown="handlePan(1,0)">
                  <use xlink:href="#rim" fill="#404040">
                        <set attributeName="fill" to="#808080" begin="arrowRight.mouseover" end="arrowRight.mouseout"/>
                  </use>
                  <path fill="none" stroke="white" stroke-width="1.5" d="M0,-3.0v7 M-2.5,-0.5L0,-3.0L2.5,-0.5"/>
                </g>
                <g id="arrowDown" xlink:href="#dirArrow" transform="rotate(180) translate(-30 -48)" onmousedown="handlePan(0,1)">
                  <use xlink:href="#rim" fill="#404040">
                        <set attributeName="fill" to="#808080" begin="arrowDown.mouseover" end="arrowDown.mouseout"/>
                  </use>
                  <path fill="none" stroke="white" stroke-width="1.5" d="M0,-3.0v7 M-2.5,-0.5L0,-3.0L2.5,-0.5"/>
                </g>
                <g id="arrowLeft" xlink:href="#dirArrow" transform="rotate(270) translate(-36 17)" onmousedown="handlePan(-1,0)">
                  <use xlink:href="#rim" fill="#404040">
                        <set attributeName="fill" to="#808080" begin="arrowLeft.mouseover" end="arrowLeft.mouseout"/>
                  </use>
                  <path fill="none" stroke="white" stroke-width="1.5" d="M0,-3.0v7 M-2.5,-0.5L0,-3.0L2.5,-0.5"/>
                </g>
        </g>
        <svg viewBox="0 0 15 15" width="100%" height="30px" preserveAspectRatio="xMaxYMin meet">
         <g id="arrow_out" transform="scale(0.3 0.3)">
          <a xlink:href="FIT_2FV0_2src_2BCData_8cxx__incl_org.svg" target="_base">
           <rect id="button" ry="5" rx="5" y="6" x="6" height="38" width="38"
                fill="#f2f5e9" fill-opacity="0.5" stroke="#606060" stroke-width="1.0"/>
           <path id="arrow"
             d="M 11.500037,31.436501 C 11.940474,20.09759 22.043105,11.32322 32.158766,21.979434 L 37.068811,17.246167 C 37.068811,17.246167 37.088388,32 37.088388,32 L 22.160133,31.978069 C 22.160133,31.978069 26.997745,27.140456 26.997745,27.140456 C 18.528582,18.264221 13.291696,25.230495 11.500037,31.436501 z"
             style="fill:#404040;"/>
          </a>
         </g>
        </svg>
</svg>
