<?xml version="1.0" encoding="UTF-8" standalone="no"?>
<!DOCTYPE svg PUBLIC "-//W3C//DTD SVG 1.1//EN"
 "http://www.w3.org/Graphics/SVG/1.1/DTD/svg11.dtd">
<!-- Generated by graphviz version 2.40.1 (20161225.0304)
 -->
<!-- Title: o2::trd::TrapConfig::TrapDmemWord Pages: 1 -->
<svg width="247pt" height="562pt"
 viewBox="0.00 0.00 247.00 562.00" xmlns="http://www.w3.org/2000/svg" xmlns:xlink="http://www.w3.org/1999/xlink">
<g id="graph0" class="graph" transform="scale(1 1) rotate(0) translate(4 558)">
<title>o2::trd::TrapConfig::TrapDmemWord</title>
<!-- Node2 -->
<g id="node1" class="node">
<title>Node2</title>
<polygon fill="#bfbfbf" stroke="#000000" points="90,-.5 90,-189.5 200,-189.5 200,-.5 90,-.5"/>
<text text-anchor="start" x="98" y="-177.5" font-family="Helvetica,sans-Serif" font-size="10.00" fill="#000000">o2::trd::TrapConfig</text>
<text text-anchor="middle" x="145" y="-166.5" font-family="Helvetica,sans-Serif" font-size="10.00" fill="#000000">::TrapDmemWord</text>
<polyline fill="none" stroke="#000000" points="90,-159.5 200,-159.5 "/>
<text text-anchor="middle" x="145" y="-147.5" font-family="Helvetica,sans-Serif" font-size="10.00" fill="#000000"> </text>
<polyline fill="none" stroke="#000000" points="90,-140.5 200,-140.5 "/>
<text text-anchor="start" x="98" y="-128.5" font-family="Helvetica,sans-Serif" font-size="10.00" fill="#000000">+ TrapDmemWord()</text>
<text text-anchor="start" x="98" y="-117.5" font-family="Helvetica,sans-Serif" font-size="10.00" fill="#000000">+ ~TrapDmemWord()</text>
<text text-anchor="start" x="98" y="-106.5" font-family="Helvetica,sans-Serif" font-size="10.00" fill="#000000">+ reset()</text>
<text text-anchor="start" x="98" y="-95.5" font-family="Helvetica,sans-Serif" font-size="10.00" fill="#000000">+ setValue()</text>
<text text-anchor="start" x="98" y="-84.5" font-family="Helvetica,sans-Serif" font-size="10.00" fill="#000000">+ setValue()</text>
<text text-anchor="start" x="98" y="-73.5" font-family="Helvetica,sans-Serif" font-size="10.00" fill="#000000">+ getValue()</text>
<text text-anchor="start" x="98" y="-62.5" font-family="Helvetica,sans-Serif" font-size="10.00" fill="#000000">+ setAddress()</text>
<text text-anchor="start" x="98" y="-51.5" font-family="Helvetica,sans-Serif" font-size="10.00" fill="#000000">+ getName()</text>
<text text-anchor="start" x="98" y="-40.5" font-family="Helvetica,sans-Serif" font-size="10.00" fill="#000000">+ getAddress()</text>
<text text-anchor="start" x="98" y="-29.5" font-family="Helvetica,sans-Serif" font-size="10.00" fill="#000000"># TrapDmemWord()</text>
<text text-anchor="start" x="98" y="-18.5" font-family="Helvetica,sans-Serif" font-size="10.00" fill="#000000"># operator=()</text>
<text text-anchor="start" x="98" y="-7.5" font-family="Helvetica,sans-Serif" font-size="10.00" fill="#000000"># ClassDefNV()</text>
</g>
<!-- Node3 -->
<g id="node2" class="node">
<title>Node3</title>
<g id="a_node2"><a xlink:href="../../d0/dbb/classo2_1_1trd_1_1TrapConfig_1_1TrapValue.html" target="_top" xlink:title="{o2::trd::TrapConfig\l::TrapValue\n||+ TrapValue()\l+ ~TrapValue()\l+ allocate()\l+ allocatei()\l+ setDataFromRun2()\l+ getAllocMode()\l+ getDataRaw()\l+ getValidRaw()\l+ getDataSize()\l# setData()\l# setData()\l# setData()\l# getData()\l# getIdx()\l}">
<polygon fill="none" stroke="#000000" points="0,-237.5 0,-448.5 112,-448.5 112,-237.5 0,-237.5"/>
<text text-anchor="start" x="8" y="-436.5" font-family="Helvetica,sans-Serif" font-size="10.00" fill="#000000">o2::trd::TrapConfig</text>
<text text-anchor="middle" x="56" y="-425.5" font-family="Helvetica,sans-Serif" font-size="10.00" fill="#000000">::TrapValue</text>
<polyline fill="none" stroke="#000000" points="0,-418.5 112,-418.5 "/>
<text text-anchor="middle" x="56" y="-406.5" font-family="Helvetica,sans-Serif" font-size="10.00" fill="#000000"> </text>
<polyline fill="none" stroke="#000000" points="0,-399.5 112,-399.5 "/>
<text text-anchor="start" x="8" y="-387.5" font-family="Helvetica,sans-Serif" font-size="10.00" fill="#000000">+ TrapValue()</text>
<text text-anchor="start" x="8" y="-376.5" font-family="Helvetica,sans-Serif" font-size="10.00" fill="#000000">+ ~TrapValue()</text>
<text text-anchor="start" x="8" y="-365.5" font-family="Helvetica,sans-Serif" font-size="10.00" fill="#000000">+ allocate()</text>
<text text-anchor="start" x="8" y="-354.5" font-family="Helvetica,sans-Serif" font-size="10.00" fill="#000000">+ allocatei()</text>
<text text-anchor="start" x="8" y="-343.5" font-family="Helvetica,sans-Serif" font-size="10.00" fill="#000000">+ setDataFromRun2()</text>
<text text-anchor="start" x="8" y="-332.5" font-family="Helvetica,sans-Serif" font-size="10.00" fill="#000000">+ getAllocMode()</text>
<text text-anchor="start" x="8" y="-321.5" font-family="Helvetica,sans-Serif" font-size="10.00" fill="#000000">+ getDataRaw()</text>
<text text-anchor="start" x="8" y="-310.5" font-family="Helvetica,sans-Serif" font-size="10.00" fill="#000000">+ getValidRaw()</text>
<text text-anchor="start" x="8" y="-299.5" font-family="Helvetica,sans-Serif" font-size="10.00" fill="#000000">+ getDataSize()</text>
<text text-anchor="start" x="8" y="-288.5" font-family="Helvetica,sans-Serif" font-size="10.00" fill="#000000"># setData()</text>
<text text-anchor="start" x="8" y="-277.5" font-family="Helvetica,sans-Serif" font-size="10.00" fill="#000000"># setData()</text>
<text text-anchor="start" x="8" y="-266.5" font-family="Helvetica,sans-Serif" font-size="10.00" fill="#000000"># setData()</text>
<text text-anchor="start" x="8" y="-255.5" font-family="Helvetica,sans-Serif" font-size="10.00" fill="#000000"># getData()</text>
<text text-anchor="start" x="8" y="-244.5" font-family="Helvetica,sans-Serif" font-size="10.00" fill="#000000"># getIdx()</text>
</a>
</g>
</g>
<!-- Node3&#45;&gt;Node2 -->
<g id="edge1" class="edge">
<title>Node3&#45;&gt;Node2</title>
<path fill="none" stroke="#191970" d="M97.3478,-227.7838C101.9071,-215.0792 106.5107,-202.251 110.966,-189.8363"/>
<polygon fill="none" stroke="#191970" points="93.9566,-226.8716 93.8731,-237.4661 100.5452,-229.2361 93.9566,-226.8716"/>
</g>
<!-- Node4 -->
<g id="node3" class="node">
<title>Node4</title>
<polygon fill="none" stroke="#bfbfbf" points="35.5,-496.5 35.5,-553.5 76.5,-553.5 76.5,-496.5 35.5,-496.5"/>
<text text-anchor="middle" x="56" y="-541.5" font-family="Helvetica,sans-Serif" font-size="10.00" fill="#000000">static</text>
<polyline fill="none" stroke="#bfbfbf" points="35.5,-534.5 76.5,-534.5 "/>
<text text-anchor="middle" x="56" y="-522.5" font-family="Helvetica,sans-Serif" font-size="10.00" fill="#000000"> </text>
<polyline fill="none" stroke="#bfbfbf" points="35.5,-515.5 76.5,-515.5 "/>
<text text-anchor="middle" x="56" y="-503.5" font-family="Helvetica,sans-Serif" font-size="10.00" fill="#000000"> </text>
</g>
<!-- Node4&#45;&gt;Node3 -->
<g id="edge2" class="edge">
<title>Node4&#45;&gt;Node3</title>
<path fill="none" stroke="#404040" d="M56,-496.1616C56,-485.9551 56,-473.7501 56,-460.7454"/>
<polygon fill="none" stroke="#404040" points="56.0001,-460.6118 52,-454.6119 56,-448.6118 60,-454.6118 56.0001,-460.6118"/>
<text text-anchor="middle" x="80" y="-470" font-family="Helvetica,sans-Serif" font-size="10.00" fill="#000000"> +mgkSize</text>
</g>
<!-- Node5 -->
<g id="node4" class="node">
<title>Node5</title>
<polygon fill="none" stroke="#bfbfbf" points="130.5,-314.5 130.5,-371.5 159.5,-371.5 159.5,-314.5 130.5,-314.5"/>
<text text-anchor="middle" x="145" y="-359.5" font-family="Helvetica,sans-Serif" font-size="10.00" fill="#000000">int</text>
<polyline fill="none" stroke="#bfbfbf" points="130.5,-352.5 159.5,-352.5 "/>
<text text-anchor="middle" x="145" y="-340.5" font-family="Helvetica,sans-Serif" font-size="10.00" fill="#000000"> </text>
<polyline fill="none" stroke="#bfbfbf" points="130.5,-333.5 159.5,-333.5 "/>
<text text-anchor="middle" x="145" y="-321.5" font-family="Helvetica,sans-Serif" font-size="10.00" fill="#000000"> </text>
</g>
<!-- Node5&#45;&gt;Node2 -->
<g id="edge3" class="edge">
<title>Node5&#45;&gt;Node2</title>
<path fill="none" stroke="#404040" d="M145,-314.0659C145,-286.33 145,-242.7353 145,-201.7147"/>
<polygon fill="none" stroke="#404040" points="145.0001,-201.6599 141,-195.66 145,-189.6599 149,-195.6599 145.0001,-201.6599"/>
<text text-anchor="middle" x="166.5" y="-211" font-family="Helvetica,sans-Serif" font-size="10.00" fill="#000000"> #mName</text>
</g>
<!-- Node6 -->
<g id="node5" class="node">
<title>Node6</title>
<polygon fill="none" stroke="#bfbfbf" points="183,-314.5 183,-371.5 239,-371.5 239,-314.5 183,-314.5"/>
<text text-anchor="middle" x="211" y="-359.5" font-family="Helvetica,sans-Serif" font-size="10.00" fill="#000000">unsigned</text>
<polyline fill="none" stroke="#bfbfbf" points="183,-352.5 239,-352.5 "/>
<text text-anchor="middle" x="211" y="-340.5" font-family="Helvetica,sans-Serif" font-size="10.00" fill="#000000"> </text>
<polyline fill="none" stroke="#bfbfbf" points="183,-333.5 239,-333.5 "/>
<text text-anchor="middle" x="211" y="-321.5" font-family="Helvetica,sans-Serif" font-size="10.00" fill="#000000"> </text>
</g>
<!-- Node6&#45;&gt;Node2 -->
<g id="edge4" class="edge">
<title>Node6&#45;&gt;Node2</title>
<path fill="none" stroke="#404040" d="M208.1089,-314.4468C204.9051,-286.8651 198.8473,-244.0814 189,-208 188.4124,-205.8468 187.7979,-203.6782 187.1599,-201.4991"/>
<polygon fill="none" stroke="#404040" points="187.0801,-201.2402 181.4888,-196.6865 183.5417,-189.7738 189.1331,-194.3275 187.0801,-201.2402"/>
<text text-anchor="middle" x="209.5" y="-211" font-family="Helvetica,sans-Serif" font-size="10.00" fill="#000000"> #mAddr</text>
</g>
</g>
</svg>
