<?xml version="1.0" encoding="UTF-8" standalone="no"?>
<!DOCTYPE svg PUBLIC "-//W3C//DTD SVG 1.1//EN"
 "http://www.w3.org/Graphics/SVG/1.1/DTD/svg11.dtd">
<!-- Generated by graphviz version 2.40.1 (20161225.0304)
 -->
<!-- Title: /home/runner/work/AliceO2/AliceO2/Detectors/EMCAL/base/include/EMCALBase/Geometry.h Pages: 1 -->
<svg width="2612pt" height="306pt"
 viewBox="0.00 0.00 2611.82 306.00" xmlns="http://www.w3.org/2000/svg" xmlns:xlink="http://www.w3.org/1999/xlink">
<g id="graph0" class="graph" transform="scale(1 1) rotate(0) translate(4 302)">
<title>/home/runner/work/AliceO2/AliceO2/Detectors/EMCAL/base/include/EMCALBase/Geometry.h</title>
<!-- Node28 -->
<g id="node1" class="node">
<title>Node28</title>
<polygon fill="#bfbfbf" stroke="#000000" points="1017.3238,-256.5 1017.3238,-297.5 1205.3238,-297.5 1205.3238,-256.5 1017.3238,-256.5"/>
<text text-anchor="start" x="1025.3238" y="-285.5" font-family="Helvetica,sans-Serif" font-size="10.00" fill="#000000">/home/runner/work/AliceO2</text>
<text text-anchor="start" x="1025.3238" y="-274.5" font-family="Helvetica,sans-Serif" font-size="10.00" fill="#000000">/AliceO2/Detectors/EMCAL</text>
<text text-anchor="middle" x="1111.3238" y="-263.5" font-family="Helvetica,sans-Serif" font-size="10.00" fill="#000000">/base/include/EMCALBase/Geometry.h</text>
</g>
<!-- Node29 -->
<g id="node2" class="node">
<title>Node29</title>
<g id="a_node2"><a xlink:href="../../d0/d55/ClusterFactory_8h.html" target="_top" xlink:title="/home/runner/work/AliceO2\l/AliceO2/Detectors/EMCAL\l/base/include/EMCALBase/ClusterFactory.h">
<polygon fill="none" stroke="#000000" points="147.3238,-173 147.3238,-214 357.3238,-214 357.3238,-173 147.3238,-173"/>
<text text-anchor="start" x="155.3238" y="-202" font-family="Helvetica,sans-Serif" font-size="10.00" fill="#000000">/home/runner/work/AliceO2</text>
<text text-anchor="start" x="155.3238" y="-191" font-family="Helvetica,sans-Serif" font-size="10.00" fill="#000000">/AliceO2/Detectors/EMCAL</text>
<text text-anchor="middle" x="252.3238" y="-180" font-family="Helvetica,sans-Serif" font-size="10.00" fill="#000000">/base/include/EMCALBase/ClusterFactory.h</text>
</a>
</g>
</g>
<!-- Node28&#45;&gt;Node29 -->
<g id="edge1" class="edge">
<title>Node28&#45;&gt;Node29</title>
<path fill="none" stroke="#191970" d="M1006.9635,-273.6385C863.1979,-267.9452 596.436,-253.5607 371.3238,-220 360.3333,-218.3615 348.8458,-216.2805 337.5274,-214.0074"/>
<polygon fill="#191970" stroke="#191970" points="1006.9711,-277.1413 1017.0998,-274.0335 1007.2437,-270.1466 1006.9711,-277.1413"/>
</g>
<!-- Node30 -->
<g id="node3" class="node">
<title>Node30</title>
<g id="a_node3"><a xlink:href="../../d0/d21/ClusterFactory_8cxx.html" target="_top" xlink:title="/home/runner/work/AliceO2\l/AliceO2/Detectors/EMCAL\l/base/src/ClusterFactory.cxx">
<polygon fill="none" stroke="#000000" points="22.8238,-84 22.8238,-125 165.8238,-125 165.8238,-84 22.8238,-84"/>
<text text-anchor="start" x="30.8238" y="-113" font-family="Helvetica,sans-Serif" font-size="10.00" fill="#000000">/home/runner/work/AliceO2</text>
<text text-anchor="start" x="30.8238" y="-102" font-family="Helvetica,sans-Serif" font-size="10.00" fill="#000000">/AliceO2/Detectors/EMCAL</text>
<text text-anchor="middle" x="94.3238" y="-91" font-family="Helvetica,sans-Serif" font-size="10.00" fill="#000000">/base/src/ClusterFactory.cxx</text>
</a>
</g>
</g>
<!-- Node28&#45;&gt;Node30 -->
<g id="edge6" class="edge">
<title>Node28&#45;&gt;Node30</title>
<path fill="none" stroke="#191970" d="M1006.8973,-273.9146C762.814,-266.295 172.9023,-245.3532 138.3238,-220 108.0405,-197.7961 98.599,-151.9759 95.656,-125.2032"/>
<polygon fill="#191970" stroke="#191970" points="1007.0944,-277.4224 1017.1983,-274.2347 1007.3118,-270.4257 1007.0944,-277.4224"/>
</g>
<!-- Node31 -->
<g id="node4" class="node">
<title>Node31</title>
<g id="a_node4"><a xlink:href="../../d3/dd3/AnalysisClusterSpec_8h.html" target="_top" xlink:title="/home/runner/work/AliceO2\l/AliceO2/Detectors/EMCAL\l/workflow/include/EMCALWorkflow\l/AnalysisClusterSpec.h">
<polygon fill="none" stroke="#000000" points="183.8238,-78.5 183.8238,-130.5 354.8238,-130.5 354.8238,-78.5 183.8238,-78.5"/>
<text text-anchor="start" x="191.8238" y="-118.5" font-family="Helvetica,sans-Serif" font-size="10.00" fill="#000000">/home/runner/work/AliceO2</text>
<text text-anchor="start" x="191.8238" y="-107.5" font-family="Helvetica,sans-Serif" font-size="10.00" fill="#000000">/AliceO2/Detectors/EMCAL</text>
<text text-anchor="start" x="191.8238" y="-96.5" font-family="Helvetica,sans-Serif" font-size="10.00" fill="#000000">/workflow/include/EMCALWorkflow</text>
<text text-anchor="middle" x="269.3238" y="-85.5" font-family="Helvetica,sans-Serif" font-size="10.00" fill="#000000">/AnalysisClusterSpec.h</text>
</a>
</g>
</g>
<!-- Node28&#45;&gt;Node31 -->
<g id="edge34" class="edge">
<title>Node28&#45;&gt;Node31</title>
<path fill="none" stroke="#191970" d="M1006.9622,-273.4137C822.979,-266.3835 455.4464,-248.9058 404.3238,-220 379.0933,-205.7341 387.3214,-186.98 366.3238,-167 351.956,-153.3284 334.1943,-140.884 317.8124,-130.7622"/>
<polygon fill="#191970" stroke="#191970" points="1007.0716,-276.9203 1017.1969,-273.8013 1007.3365,-269.9253 1007.0716,-276.9203"/>
</g>
<!-- Node32 -->
<g id="node5" class="node">
<title>Node32</title>
<g id="a_node5"><a xlink:href="../../d2/d75/AnalysisClusterSpec_8cxx.html" target="_top" xlink:title="/home/runner/work/AliceO2\l/AliceO2/Detectors/EMCAL\l/workflow/src/AnalysisClusterSpec.cxx">
<polygon fill="none" stroke="#000000" points="46.3238,-.5 46.3238,-41.5 234.3238,-41.5 234.3238,-.5 46.3238,-.5"/>
<text text-anchor="start" x="54.3238" y="-29.5" font-family="Helvetica,sans-Serif" font-size="10.00" fill="#000000">/home/runner/work/AliceO2</text>
<text text-anchor="start" x="54.3238" y="-18.5" font-family="Helvetica,sans-Serif" font-size="10.00" fill="#000000">/AliceO2/Detectors/EMCAL</text>
<text text-anchor="middle" x="140.3238" y="-7.5" font-family="Helvetica,sans-Serif" font-size="10.00" fill="#000000">/workflow/src/AnalysisClusterSpec.cxx</text>
</a>
</g>
</g>
<!-- Node28&#45;&gt;Node32 -->
<g id="edge39" class="edge">
<title>Node28&#45;&gt;Node32</title>
<path fill="none" stroke="#191970" d="M1007.0468,-275.3434C765.5483,-270.9045 182.2603,-256.5049 101.3238,-220 33.6421,-189.4734 -27.021,-140.3296 13.3238,-78 23.8953,-61.668 40.3761,-49.971 58.0046,-41.6091"/>
<polygon fill="#191970" stroke="#191970" points="1007.1771,-278.8463 1017.239,-275.5286 1007.3043,-271.8474 1007.1771,-278.8463"/>
</g>
<!-- Node34 -->
<g id="node7" class="node">
<title>Node34</title>
<g id="a_node7"><a xlink:href="../../de/d49/EMCAL_2base_2src_2Geometry_8cxx.html" target="_top" xlink:title="/home/runner/work/AliceO2\l/AliceO2/Detectors/EMCAL\l/base/src/Geometry.cxx">
<polygon fill="none" stroke="#000000" points="953.8238,-173 953.8238,-214 1090.8238,-214 1090.8238,-173 953.8238,-173"/>
<text text-anchor="start" x="961.8238" y="-202" font-family="Helvetica,sans-Serif" font-size="10.00" fill="#000000">/home/runner/work/AliceO2</text>
<text text-anchor="start" x="961.8238" y="-191" font-family="Helvetica,sans-Serif" font-size="10.00" fill="#000000">/AliceO2/Detectors/EMCAL</text>
<text text-anchor="middle" x="1022.3238" y="-180" font-family="Helvetica,sans-Serif" font-size="10.00" fill="#000000">/base/src/Geometry.cxx</text>
</a>
</g>
</g>
<!-- Node28&#45;&gt;Node34 -->
<g id="edge7" class="edge">
<title>Node28&#45;&gt;Node34</title>
<path fill="none" stroke="#191970" d="M1081.961,-249.4517C1069.7124,-237.9601 1055.7269,-224.8388 1044.3792,-214.1924"/>
<polygon fill="#191970" stroke="#191970" points="1079.6362,-252.0699 1089.3238,-256.3595 1084.4257,-246.9649 1079.6362,-252.0699"/>
</g>
<!-- Node35 -->
<g id="node8" class="node">
<title>Node35</title>
<g id="a_node8"><a xlink:href="../../df/d2e/ShishKebabTrd1Module_8cxx.html" target="_top" xlink:title="/home/runner/work/AliceO2\l/AliceO2/Detectors/EMCAL\l/base/src/ShishKebabTrd1Module.cxx">
<polygon fill="none" stroke="#000000" points="1109.3238,-173 1109.3238,-214 1291.3238,-214 1291.3238,-173 1109.3238,-173"/>
<text text-anchor="start" x="1117.3238" y="-202" font-family="Helvetica,sans-Serif" font-size="10.00" fill="#000000">/home/runner/work/AliceO2</text>
<text text-anchor="start" x="1117.3238" y="-191" font-family="Helvetica,sans-Serif" font-size="10.00" fill="#000000">/AliceO2/Detectors/EMCAL</text>
<text text-anchor="middle" x="1200.3238" y="-180" font-family="Helvetica,sans-Serif" font-size="10.00" fill="#000000">/base/src/ShishKebabTrd1Module.cxx</text>
</a>
</g>
</g>
<!-- Node28&#45;&gt;Node35 -->
<g id="edge8" class="edge">
<title>Node28&#45;&gt;Node35</title>
<path fill="none" stroke="#191970" d="M1140.6867,-249.4517C1152.9353,-237.9601 1166.9208,-224.8388 1178.2685,-214.1924"/>
<polygon fill="#191970" stroke="#191970" points="1138.2219,-246.9649 1133.3238,-256.3595 1143.0114,-252.0699 1138.2219,-246.9649"/>
</g>
<!-- Node36 -->
<g id="node9" class="node">
<title>Node36</title>
<g id="a_node9"><a xlink:href="../../d2/d39/EMCAL_2calib_2src_2BadChannelMap_8cxx.html" target="_top" xlink:title="/home/runner/work/AliceO2\l/AliceO2/Detectors/EMCAL\l/calib/src/BadChannelMap.cxx">
<polygon fill="none" stroke="#000000" points="1309.3238,-173 1309.3238,-214 1459.3238,-214 1459.3238,-173 1309.3238,-173"/>
<text text-anchor="start" x="1317.3238" y="-202" font-family="Helvetica,sans-Serif" font-size="10.00" fill="#000000">/home/runner/work/AliceO2</text>
<text text-anchor="start" x="1317.3238" y="-191" font-family="Helvetica,sans-Serif" font-size="10.00" fill="#000000">/AliceO2/Detectors/EMCAL</text>
<text text-anchor="middle" x="1384.3238" y="-180" font-family="Helvetica,sans-Serif" font-size="10.00" fill="#000000">/calib/src/BadChannelMap.cxx</text>
</a>
</g>
</g>
<!-- Node28&#45;&gt;Node36 -->
<g id="edge9" class="edge">
<title>Node28&#45;&gt;Node36</title>
<path fill="none" stroke="#191970" d="M1189.9361,-253.5345C1223.9142,-243.3293 1264.1086,-231.1731 1300.3238,-220 1306.461,-218.1066 1312.8453,-216.1212 1319.2306,-214.1249"/>
<polygon fill="#191970" stroke="#191970" points="1188.6373,-250.27 1180.0654,-256.4968 1190.6495,-256.9746 1188.6373,-250.27"/>
</g>
<!-- Node37 -->
<g id="node10" class="node">
<title>Node37</title>
<g id="a_node10"><a xlink:href="../../d8/d60/testBadChannelMap_8cxx.html" target="_top" xlink:title="/home/runner/work/AliceO2\l/AliceO2/Detectors/EMCAL\l/calib/test/testBadChannelMap.cxx">
<polygon fill="none" stroke="#000000" points="1477.3238,-173 1477.3238,-214 1647.3238,-214 1647.3238,-173 1477.3238,-173"/>
<text text-anchor="start" x="1485.3238" y="-202" font-family="Helvetica,sans-Serif" font-size="10.00" fill="#000000">/home/runner/work/AliceO2</text>
<text text-anchor="start" x="1485.3238" y="-191" font-family="Helvetica,sans-Serif" font-size="10.00" fill="#000000">/AliceO2/Detectors/EMCAL</text>
<text text-anchor="middle" x="1562.3238" y="-180" font-family="Helvetica,sans-Serif" font-size="10.00" fill="#000000">/calib/test/testBadChannelMap.cxx</text>
</a>
</g>
</g>
<!-- Node28&#45;&gt;Node37 -->
<g id="edge10" class="edge">
<title>Node28&#45;&gt;Node37</title>
<path fill="none" stroke="#191970" d="M1215.3886,-263.6454C1286.9246,-253.6698 1383.8732,-238.5796 1468.3238,-220 1476.3552,-218.2331 1484.7173,-216.1845 1492.9966,-214.0244"/>
<polygon fill="#191970" stroke="#191970" points="1214.8928,-260.1805 1205.4672,-265.0188 1215.8527,-267.1144 1214.8928,-260.1805"/>
</g>
<!-- Node38 -->
<g id="node11" class="node">
<title>Node38</title>
<g id="a_node11"><a xlink:href="../../dc/d1a/testGainCalibration_8cxx.html" target="_top" xlink:title="/home/runner/work/AliceO2\l/AliceO2/Detectors/EMCAL\l/calib/test/testGainCalibration.cxx">
<polygon fill="none" stroke="#000000" points="1665.3238,-173 1665.3238,-214 1829.3238,-214 1829.3238,-173 1665.3238,-173"/>
<text text-anchor="start" x="1673.3238" y="-202" font-family="Helvetica,sans-Serif" font-size="10.00" fill="#000000">/home/runner/work/AliceO2</text>
<text text-anchor="start" x="1673.3238" y="-191" font-family="Helvetica,sans-Serif" font-size="10.00" fill="#000000">/AliceO2/Detectors/EMCAL</text>
<text text-anchor="middle" x="1747.3238" y="-180" font-family="Helvetica,sans-Serif" font-size="10.00" fill="#000000">/calib/test/testGainCalibration.cxx</text>
</a>
</g>
</g>
<!-- Node28&#45;&gt;Node38 -->
<g id="edge11" class="edge">
<title>Node28&#45;&gt;Node38</title>
<path fill="none" stroke="#191970" d="M1215.7568,-271.6485C1326.0726,-264.7009 1504.6907,-249.7585 1656.3238,-220 1664.7202,-218.3522 1673.4602,-216.2804 1682.0577,-214.0249"/>
<polygon fill="#191970" stroke="#191970" points="1215.3921,-268.1643 1205.6277,-272.2761 1215.825,-275.1509 1215.3921,-268.1643"/>
</g>
<!-- Node39 -->
<g id="node12" class="node">
<title>Node39</title>
<g id="a_node12"><a xlink:href="../../da/d9a/EMCAL_2reconstruction_2include_2EMCALReconstruction_2Clusterizer_8h.html" target="_top" xlink:title="/home/runner/work/AliceO2\l/AliceO2/Detectors/EMCAL\l/reconstruction/include/EMCALReconstruction\l/Clusterizer.h">
<polygon fill="none" stroke="#000000" points="413.3238,-167.5 413.3238,-219.5 631.3238,-219.5 631.3238,-167.5 413.3238,-167.5"/>
<text text-anchor="start" x="421.3238" y="-207.5" font-family="Helvetica,sans-Serif" font-size="10.00" fill="#000000">/home/runner/work/AliceO2</text>
<text text-anchor="start" x="421.3238" y="-196.5" font-family="Helvetica,sans-Serif" font-size="10.00" fill="#000000">/AliceO2/Detectors/EMCAL</text>
<text text-anchor="start" x="421.3238" y="-185.5" font-family="Helvetica,sans-Serif" font-size="10.00" fill="#000000">/reconstruction/include/EMCALReconstruction</text>
<text text-anchor="middle" x="522.3238" y="-174.5" font-family="Helvetica,sans-Serif" font-size="10.00" fill="#000000">/Clusterizer.h</text>
</a>
</g>
</g>
<!-- Node28&#45;&gt;Node39 -->
<g id="edge12" class="edge">
<title>Node28&#45;&gt;Node39</title>
<path fill="none" stroke="#191970" d="M1007.0894,-266.9781C912.3905,-257.2263 769.011,-240.8446 645.3238,-220 640.8004,-219.2377 636.1913,-218.4221 631.5412,-217.5671"/>
<polygon fill="#191970" stroke="#191970" points="1006.9395,-270.4809 1017.2439,-268.0176 1007.6524,-263.5173 1006.9395,-270.4809"/>
</g>
<!-- Node40 -->
<g id="node13" class="node">
<title>Node40</title>
<g id="a_node13"><a xlink:href="../../d8/dc0/ClusterizerTask_8h.html" target="_top" xlink:title="Definition of the EMCAL clusterizer task. ">
<polygon fill="none" stroke="#000000" points="747.3238,-78.5 747.3238,-130.5 965.3238,-130.5 965.3238,-78.5 747.3238,-78.5"/>
<text text-anchor="start" x="755.3238" y="-118.5" font-family="Helvetica,sans-Serif" font-size="10.00" fill="#000000">/home/runner/work/AliceO2</text>
<text text-anchor="start" x="755.3238" y="-107.5" font-family="Helvetica,sans-Serif" font-size="10.00" fill="#000000">/AliceO2/Detectors/EMCAL</text>
<text text-anchor="start" x="755.3238" y="-96.5" font-family="Helvetica,sans-Serif" font-size="10.00" fill="#000000">/reconstruction/include/EMCALReconstruction</text>
<text text-anchor="middle" x="856.3238" y="-85.5" font-family="Helvetica,sans-Serif" font-size="10.00" fill="#000000">/ClusterizerTask.h</text>
</a>
</g>
</g>
<!-- Node28&#45;&gt;Node40 -->
<g id="edge20" class="edge">
<title>Node28&#45;&gt;Node40</title>
<path fill="none" stroke="#191970" d="M1006.784,-268.9314C896.242,-259.3147 735.183,-241.776 716.3238,-220 700.9028,-202.1939 703.5045,-186.7618 716.3238,-167 726.5363,-151.2569 741.7416,-139.4448 758.4152,-130.5925"/>
<polygon fill="#191970" stroke="#191970" points="1006.7201,-272.4388 1016.9833,-269.8088 1007.3201,-265.4645 1006.7201,-272.4388"/>
</g>
<!-- Node43 -->
<g id="node16" class="node">
<title>Node43</title>
<g id="a_node16"><a xlink:href="../../d2/dd1/EMCAL_2workflow_2include_2EMCALWorkflow_2ClusterizerSpec_8h.html" target="_top" xlink:title="/home/runner/work/AliceO2\l/AliceO2/Detectors/EMCAL\l/workflow/include/EMCALWorkflow\l/ClusterizerSpec.h">
<polygon fill="none" stroke="#000000" points="557.8238,-78.5 557.8238,-130.5 728.8238,-130.5 728.8238,-78.5 557.8238,-78.5"/>
<text text-anchor="start" x="565.8238" y="-118.5" font-family="Helvetica,sans-Serif" font-size="10.00" fill="#000000">/home/runner/work/AliceO2</text>
<text text-anchor="start" x="565.8238" y="-107.5" font-family="Helvetica,sans-Serif" font-size="10.00" fill="#000000">/AliceO2/Detectors/EMCAL</text>
<text text-anchor="start" x="565.8238" y="-96.5" font-family="Helvetica,sans-Serif" font-size="10.00" fill="#000000">/workflow/include/EMCALWorkflow</text>
<text text-anchor="middle" x="643.3238" y="-85.5" font-family="Helvetica,sans-Serif" font-size="10.00" fill="#000000">/ClusterizerSpec.h</text>
</a>
</g>
</g>
<!-- Node28&#45;&gt;Node43 -->
<g id="edge35" class="edge">
<title>Node28&#45;&gt;Node43</title>
<path fill="none" stroke="#191970" d="M1006.6593,-273.2685C901.9498,-267.6528 749.8086,-253.7924 702.3238,-220 672.4206,-198.7194 656.678,-157.7134 649.1865,-130.7284"/>
<polygon fill="#191970" stroke="#191970" points="1006.7884,-276.7799 1016.9563,-273.8026 1007.151,-269.7892 1006.7884,-276.7799"/>
</g>
<!-- Node45 -->
<g id="node18" class="node">
<title>Node45</title>
<g id="a_node18"><a xlink:href="../../d8/d19/EMCAL_2simulation_2include_2EMCALSimulation_2Digitizer_8h.html" target="_top" xlink:title="/home/runner/work/AliceO2\l/AliceO2/Detectors/EMCAL\l/simulation/include/EMCALSimulation\l/Digitizer.h">
<polygon fill="none" stroke="#000000" points="1885.8238,-167.5 1885.8238,-219.5 2066.8238,-219.5 2066.8238,-167.5 1885.8238,-167.5"/>
<text text-anchor="start" x="1893.8238" y="-207.5" font-family="Helvetica,sans-Serif" font-size="10.00" fill="#000000">/home/runner/work/AliceO2</text>
<text text-anchor="start" x="1893.8238" y="-196.5" font-family="Helvetica,sans-Serif" font-size="10.00" fill="#000000">/AliceO2/Detectors/EMCAL</text>
<text text-anchor="start" x="1893.8238" y="-185.5" font-family="Helvetica,sans-Serif" font-size="10.00" fill="#000000">/simulation/include/EMCALSimulation</text>
<text text-anchor="middle" x="1976.3238" y="-174.5" font-family="Helvetica,sans-Serif" font-size="10.00" fill="#000000">/Digitizer.h</text>
</a>
</g>
</g>
<!-- Node28&#45;&gt;Node45 -->
<g id="edge21" class="edge">
<title>Node28&#45;&gt;Node45</title>
<path fill="none" stroke="#191970" d="M1215.9067,-274.848C1363.0567,-270.5315 1639.1974,-257.708 1871.3238,-220 1876.056,-219.2313 1880.8872,-218.3528 1885.7509,-217.394"/>
<polygon fill="#191970" stroke="#191970" points="1215.4331,-271.3601 1205.5372,-275.1444 1215.6331,-278.3572 1215.4331,-271.3601"/>
</g>
<!-- Node47 -->
<g id="node20" class="node">
<title>Node47</title>
<g id="a_node20"><a xlink:href="../../df/df1/EMCAL_2simulation_2src_2DigitizerTask_8cxx.html" target="_top" xlink:title="/home/runner/work/AliceO2\l/AliceO2/Detectors/EMCAL\l/simulation/src/DigitizerTask.cxx">
<polygon fill="none" stroke="#000000" points="1896.3238,-.5 1896.3238,-41.5 2056.3238,-41.5 2056.3238,-.5 1896.3238,-.5"/>
<text text-anchor="start" x="1904.3238" y="-29.5" font-family="Helvetica,sans-Serif" font-size="10.00" fill="#000000">/home/runner/work/AliceO2</text>
<text text-anchor="start" x="1904.3238" y="-18.5" font-family="Helvetica,sans-Serif" font-size="10.00" fill="#000000">/AliceO2/Detectors/EMCAL</text>
<text text-anchor="middle" x="1976.3238" y="-7.5" font-family="Helvetica,sans-Serif" font-size="10.00" fill="#000000">/simulation/src/DigitizerTask.cxx</text>
</a>
</g>
</g>
<!-- Node28&#45;&gt;Node47 -->
<g id="edge31" class="edge">
<title>Node28&#45;&gt;Node47</title>
<path fill="none" stroke="#191970" d="M1215.8882,-275.3853C1405.661,-271.5038 1791.5803,-258.8772 1838.3238,-220 1888.5532,-178.2237 1836.4175,-129.7274 1876.3238,-78 1888.2861,-62.4943 1905.7443,-50.5071 1922.7376,-41.6168"/>
<polygon fill="#191970" stroke="#191970" points="1215.5439,-271.8914 1205.6159,-275.5908 1215.684,-278.89 1215.5439,-271.8914"/>
</g>
<!-- Node48 -->
<g id="node21" class="node">
<title>Node48</title>
<g id="a_node21"><a xlink:href="../../de/d7d/EMCAL_2simulation_2src_2Digitizer_8cxx.html" target="_top" xlink:title="/home/runner/work/AliceO2\l/AliceO2/Detectors/EMCAL\l/simulation/src/Digitizer.cxx">
<polygon fill="none" stroke="#000000" points="2303.3238,-84 2303.3238,-125 2441.3238,-125 2441.3238,-84 2303.3238,-84"/>
<text text-anchor="start" x="2311.3238" y="-113" font-family="Helvetica,sans-Serif" font-size="10.00" fill="#000000">/home/runner/work/AliceO2</text>
<text text-anchor="start" x="2311.3238" y="-102" font-family="Helvetica,sans-Serif" font-size="10.00" fill="#000000">/AliceO2/Detectors/EMCAL</text>
<text text-anchor="middle" x="2372.3238" y="-91" font-family="Helvetica,sans-Serif" font-size="10.00" fill="#000000">/simulation/src/Digitizer.cxx</text>
</a>
</g>
</g>
<!-- Node28&#45;&gt;Node48 -->
<g id="edge30" class="edge">
<title>Node28&#45;&gt;Node48</title>
<path fill="none" stroke="#191970" d="M1215.8317,-275.8016C1449.8514,-272.4082 2001.341,-260.1999 2075.3238,-220 2101.021,-206.037 2089.6616,-182.7189 2114.3238,-167 2182.7547,-123.3846 2214.9248,-151.9447 2293.3238,-131 2300.0324,-129.2078 2307.0026,-127.156 2313.9005,-125.005"/>
<polygon fill="#191970" stroke="#191970" points="1215.557,-272.305 1205.6079,-275.9471 1215.6567,-279.3043 1215.557,-272.305"/>
</g>
<!-- Node52 -->
<g id="node25" class="node">
<title>Node52</title>
<g id="a_node25"><a xlink:href="../../da/d98/EMCAL_2simulation_2src_2Detector_8cxx.html" target="_top" xlink:title="/home/runner/work/AliceO2\l/AliceO2/Detectors/EMCAL\l/simulation/src/Detector.cxx">
<polygon fill="none" stroke="#000000" points="2123.3238,-173 2123.3238,-214 2263.3238,-214 2263.3238,-173 2123.3238,-173"/>
<text text-anchor="start" x="2131.3238" y="-202" font-family="Helvetica,sans-Serif" font-size="10.00" fill="#000000">/home/runner/work/AliceO2</text>
<text text-anchor="start" x="2131.3238" y="-191" font-family="Helvetica,sans-Serif" font-size="10.00" fill="#000000">/AliceO2/Detectors/EMCAL</text>
<text text-anchor="middle" x="2193.3238" y="-180" font-family="Helvetica,sans-Serif" font-size="10.00" fill="#000000">/simulation/src/Detector.cxx</text>
</a>
</g>
</g>
<!-- Node28&#45;&gt;Node52 -->
<g id="edge29" class="edge">
<title>Node28&#45;&gt;Node52</title>
<path fill="none" stroke="#191970" d="M1215.8298,-274.3177C1435.8288,-268.1338 1940.3447,-250.9801 2109.3238,-220 2117.5965,-218.4833 2126.1917,-216.3952 2134.5891,-214.0511"/>
<polygon fill="#191970" stroke="#191970" points="1215.4697,-270.8263 1205.5712,-274.6039 1215.6649,-277.8236 1215.4697,-270.8263"/>
</g>
<!-- Node53 -->
<g id="node26" class="node">
<title>Node53</title>
<g id="a_node26"><a xlink:href="../../d5/de5/EMCAL_2simulation_2src_2RawCreator_8cxx.html" target="_top" xlink:title="/home/runner/work/AliceO2\l/AliceO2/Detectors/EMCAL\l/simulation/src/RawCreator.cxx">
<polygon fill="none" stroke="#000000" points="2281.8238,-173 2281.8238,-214 2436.8238,-214 2436.8238,-173 2281.8238,-173"/>
<text text-anchor="start" x="2289.8238" y="-202" font-family="Helvetica,sans-Serif" font-size="10.00" fill="#000000">/home/runner/work/AliceO2</text>
<text text-anchor="start" x="2289.8238" y="-191" font-family="Helvetica,sans-Serif" font-size="10.00" fill="#000000">/AliceO2/Detectors/EMCAL</text>
<text text-anchor="middle" x="2359.3238" y="-180" font-family="Helvetica,sans-Serif" font-size="10.00" fill="#000000">/simulation/src/RawCreator.cxx</text>
</a>
</g>
</g>
<!-- Node28&#45;&gt;Node53 -->
<g id="edge32" class="edge">
<title>Node28&#45;&gt;Node53</title>
<path fill="none" stroke="#191970" d="M1215.629,-275.1686C1461.3383,-270.3228 2070.9569,-255.056 2272.3238,-220 2280.8793,-218.5106 2289.7743,-216.438 2298.468,-214.1015"/>
<polygon fill="#191970" stroke="#191970" points="1215.5529,-271.6694 1205.6232,-275.3642 1215.6897,-278.668 1215.5529,-271.6694"/>
</g>
<!-- Node54 -->
<g id="node27" class="node">
<title>Node54</title>
<g id="a_node27"><a xlink:href="../../da/dcc/EMCAL_2simulation_2src_2RawWriter_8cxx.html" target="_top" xlink:title="/home/runner/work/AliceO2\l/AliceO2/Detectors/EMCAL\l/simulation/src/RawWriter.cxx">
<polygon fill="none" stroke="#000000" points="2454.8238,-173 2454.8238,-214 2603.8238,-214 2603.8238,-173 2454.8238,-173"/>
<text text-anchor="start" x="2462.8238" y="-202" font-family="Helvetica,sans-Serif" font-size="10.00" fill="#000000">/home/runner/work/AliceO2</text>
<text text-anchor="start" x="2462.8238" y="-191" font-family="Helvetica,sans-Serif" font-size="10.00" fill="#000000">/AliceO2/Detectors/EMCAL</text>
<text text-anchor="middle" x="2529.3238" y="-180" font-family="Helvetica,sans-Serif" font-size="10.00" fill="#000000">/simulation/src/RawWriter.cxx</text>
</a>
</g>
</g>
<!-- Node28&#45;&gt;Node54 -->
<g id="edge33" class="edge">
<title>Node28&#45;&gt;Node54</title>
<path fill="none" stroke="#191970" d="M1215.9135,-276.1247C1487.5566,-273.2767 2210.6717,-261.8741 2446.3238,-220 2454.6639,-218.518 2463.3269,-216.4163 2471.7725,-214.037"/>
<polygon fill="#191970" stroke="#191970" points="1215.624,-272.6274 1205.6606,-276.2304 1215.6962,-279.627 1215.624,-272.6274"/>
</g>
<!-- Node55 -->
<g id="node28" class="node">
<title>Node55</title>
<g id="a_node28"><a xlink:href="../../dd/d3d/EMCAL_2workflow_2include_2EMCALWorkflow_2RawToCellConverterSpec_8h.html" target="_top" xlink:title="/home/runner/work/AliceO2\l/AliceO2/Detectors/EMCAL\l/workflow/include/EMCALWorkflow\l/RawToCellConverterSpec.h">
<polygon fill="none" stroke="#000000" points="725.8238,-167.5 725.8238,-219.5 896.8238,-219.5 896.8238,-167.5 725.8238,-167.5"/>
<text text-anchor="start" x="733.8238" y="-207.5" font-family="Helvetica,sans-Serif" font-size="10.00" fill="#000000">/home/runner/work/AliceO2</text>
<text text-anchor="start" x="733.8238" y="-196.5" font-family="Helvetica,sans-Serif" font-size="10.00" fill="#000000">/AliceO2/Detectors/EMCAL</text>
<text text-anchor="start" x="733.8238" y="-185.5" font-family="Helvetica,sans-Serif" font-size="10.00" fill="#000000">/workflow/include/EMCALWorkflow</text>
<text text-anchor="middle" x="811.3238" y="-174.5" font-family="Helvetica,sans-Serif" font-size="10.00" fill="#000000">/RawToCellConverterSpec.h</text>
</a>
</g>
</g>
<!-- Node28&#45;&gt;Node55 -->
<g id="edge36" class="edge">
<title>Node28&#45;&gt;Node55</title>
<path fill="none" stroke="#191970" d="M1027.9118,-253.7837C987.1368,-242.4346 938.1256,-228.7931 897.0463,-217.3594"/>
<polygon fill="#191970" stroke="#191970" points="1026.979,-257.157 1037.5514,-256.4667 1028.8561,-250.4133 1026.979,-257.157"/>
</g>
<!-- Node56 -->
<g id="node29" class="node">
<title>Node56</title>
<g id="a_node29"><a xlink:href="../../d2/db0/EMCAL_2workflow_2src_2RawToCellConverterSpec_8cxx.html" target="_top" xlink:title="/home/runner/work/AliceO2\l/AliceO2/Detectors/EMCAL\l/workflow/src/RawToCellConverter\lSpec.cxx">
<polygon fill="none" stroke="#000000" points="1021.3238,-78.5 1021.3238,-130.5 1191.3238,-130.5 1191.3238,-78.5 1021.3238,-78.5"/>
<text text-anchor="start" x="1029.3238" y="-118.5" font-family="Helvetica,sans-Serif" font-size="10.00" fill="#000000">/home/runner/work/AliceO2</text>
<text text-anchor="start" x="1029.3238" y="-107.5" font-family="Helvetica,sans-Serif" font-size="10.00" fill="#000000">/AliceO2/Detectors/EMCAL</text>
<text text-anchor="start" x="1029.3238" y="-96.5" font-family="Helvetica,sans-Serif" font-size="10.00" fill="#000000">/workflow/src/RawToCellConverter</text>
<text text-anchor="middle" x="1106.3238" y="-85.5" font-family="Helvetica,sans-Serif" font-size="10.00" fill="#000000">Spec.cxx</text>
</a>
</g>
</g>
<!-- Node28&#45;&gt;Node56 -->
<g id="edge40" class="edge">
<title>Node28&#45;&gt;Node56</title>
<path fill="none" stroke="#191970" d="M1011.7514,-253.472C981.2523,-244.1238 953.3303,-232.5907 944.3238,-220 930.6192,-200.8415 930.9982,-186.424 944.3238,-167 954.0444,-152.8309 987.2327,-138.8872 1021.0602,-127.7779"/>
<polygon fill="#191970" stroke="#191970" points="1011.1411,-256.9416 1021.7235,-256.4289 1013.1311,-250.2304 1011.1411,-256.9416"/>
</g>
<!-- Node29&#45;&gt;Node30 -->
<g id="edge2" class="edge">
<title>Node29&#45;&gt;Node30</title>
<path fill="none" stroke="#191970" d="M206.7057,-167.8037C182.5804,-154.2142 153.3657,-137.7577 130.7706,-125.0301"/>
<polygon fill="#191970" stroke="#191970" points="205.2477,-170.9995 215.6783,-172.8579 208.6833,-164.9005 205.2477,-170.9995"/>
</g>
<!-- Node29&#45;&gt;Node31 -->
<g id="edge3" class="edge">
<title>Node29&#45;&gt;Node31</title>
<path fill="none" stroke="#191970" d="M258.1713,-162.8868C260.1668,-152.4396 262.3791,-140.8575 264.3038,-130.7816"/>
<polygon fill="#191970" stroke="#191970" points="254.7051,-162.3788 256.2667,-172.8579 261.5808,-163.6922 254.7051,-162.3788"/>
</g>
<!-- Node31&#45;&gt;Node32 -->
<g id="edge4" class="edge">
<title>Node31&#45;&gt;Node32</title>
<path fill="none" stroke="#191970" d="M220.078,-72.6238C203.969,-62.1967 186.5133,-50.8978 172.0512,-41.5367"/>
<polygon fill="#191970" stroke="#191970" points="218.5647,-75.8135 228.8614,-78.3092 222.3684,-69.9371 218.5647,-75.8135"/>
</g>
<!-- Node33 -->
<g id="node6" class="node">
<title>Node33</title>
<g id="a_node6"><a xlink:href="../../d2/dbf/EMCAL_2workflow_2src_2RecoWorkflow_8cxx.html" target="_top" xlink:title="/home/runner/work/AliceO2\l/AliceO2/Detectors/EMCAL\l/workflow/src/RecoWorkflow.cxx">
<polygon fill="none" stroke="#000000" points="572.8238,-.5 572.8238,-41.5 733.8238,-41.5 733.8238,-.5 572.8238,-.5"/>
<text text-anchor="start" x="580.8238" y="-29.5" font-family="Helvetica,sans-Serif" font-size="10.00" fill="#000000">/home/runner/work/AliceO2</text>
<text text-anchor="start" x="580.8238" y="-18.5" font-family="Helvetica,sans-Serif" font-size="10.00" fill="#000000">/AliceO2/Detectors/EMCAL</text>
<text text-anchor="middle" x="653.3238" y="-7.5" font-family="Helvetica,sans-Serif" font-size="10.00" fill="#000000">/workflow/src/RecoWorkflow.cxx</text>
</a>
</g>
</g>
<!-- Node31&#45;&gt;Node33 -->
<g id="edge5" class="edge">
<title>Node31&#45;&gt;Node33</title>
<path fill="none" stroke="#191970" d="M364.9362,-77.7094C453.0709,-57.8762 477.9827,-59.6252 563.3238,-42 566.3093,-41.3834 569.3474,-40.7427 572.4139,-40.0848"/>
<polygon fill="#191970" stroke="#191970" points="364.0157,-74.3293 355.0443,-79.9653 365.5722,-81.1541 364.0157,-74.3293"/>
</g>
<!-- Node39&#45;&gt;Node31 -->
<g id="edge16" class="edge">
<title>Node39&#45;&gt;Node31</title>
<path fill="none" stroke="#191970" d="M438.3173,-163.9483C407.669,-153.1669 373.2556,-141.061 343.5214,-130.6011"/>
<polygon fill="#191970" stroke="#191970" points="437.5301,-167.3816 448.125,-167.3984 439.8531,-160.7782 437.5301,-167.3816"/>
</g>
<!-- Node39&#45;&gt;Node40 -->
<g id="edge13" class="edge">
<title>Node39&#45;&gt;Node40</title>
<path fill="none" stroke="#191970" d="M630.1052,-164.7798C671.4372,-153.7662 718.3287,-141.2712 758.66,-130.5242"/>
<polygon fill="#191970" stroke="#191970" points="629.0397,-161.4415 620.2781,-167.3984 630.8421,-168.2055 629.0397,-161.4415"/>
</g>
<!-- Node42 -->
<g id="node15" class="node">
<title>Node42</title>
<g id="a_node15"><a xlink:href="../../d2/d78/EMCAL_2reconstruction_2src_2Clusterizer_8cxx.html" target="_top" xlink:title="/home/runner/work/AliceO2\l/AliceO2/Detectors/EMCAL\l/reconstruction/src/Clusterizer.cxx">
<polygon fill="none" stroke="#000000" points="372.8238,-84 372.8238,-125 539.8238,-125 539.8238,-84 372.8238,-84"/>
<text text-anchor="start" x="380.8238" y="-113" font-family="Helvetica,sans-Serif" font-size="10.00" fill="#000000">/home/runner/work/AliceO2</text>
<text text-anchor="start" x="380.8238" y="-102" font-family="Helvetica,sans-Serif" font-size="10.00" fill="#000000">/AliceO2/Detectors/EMCAL</text>
<text text-anchor="middle" x="456.3238" y="-91" font-family="Helvetica,sans-Serif" font-size="10.00" fill="#000000">/reconstruction/src/Clusterizer.cxx</text>
</a>
</g>
</g>
<!-- Node39&#45;&gt;Node42 -->
<g id="edge15" class="edge">
<title>Node39&#45;&gt;Node42</title>
<path fill="none" stroke="#191970" d="M496.8477,-159.1458C488.3468,-147.6825 479.1424,-135.2705 471.6574,-125.1771"/>
<polygon fill="#191970" stroke="#191970" points="494.1107,-161.3309 502.8786,-167.2784 499.7333,-157.1612 494.1107,-161.3309"/>
</g>
<!-- Node39&#45;&gt;Node43 -->
<g id="edge17" class="edge">
<title>Node39&#45;&gt;Node43</title>
<path fill="none" stroke="#191970" d="M566.3103,-161.1463C579.9979,-151.0786 594.9067,-140.1126 607.9291,-130.5341"/>
<polygon fill="#191970" stroke="#191970" points="563.9552,-158.5338 557.9734,-167.2784 568.1028,-164.1727 563.9552,-158.5338"/>
</g>
<!-- Node41 -->
<g id="node14" class="node">
<title>Node41</title>
<g id="a_node14"><a xlink:href="../../d6/da0/ClusterizerTask_8cxx.html" target="_top" xlink:title="Implementation of the EMCAL cluster finder task. ">
<polygon fill="none" stroke="#000000" points="762.3238,-.5 762.3238,-41.5 950.3238,-41.5 950.3238,-.5 762.3238,-.5"/>
<text text-anchor="start" x="770.3238" y="-29.5" font-family="Helvetica,sans-Serif" font-size="10.00" fill="#000000">/home/runner/work/AliceO2</text>
<text text-anchor="start" x="770.3238" y="-18.5" font-family="Helvetica,sans-Serif" font-size="10.00" fill="#000000">/AliceO2/Detectors/EMCAL</text>
<text text-anchor="middle" x="856.3238" y="-7.5" font-family="Helvetica,sans-Serif" font-size="10.00" fill="#000000">/reconstruction/src/ClusterizerTask.cxx</text>
</a>
</g>
</g>
<!-- Node40&#45;&gt;Node41 -->
<g id="edge14" class="edge">
<title>Node40&#45;&gt;Node41</title>
<path fill="none" stroke="#191970" d="M856.3238,-67.8168C856.3238,-58.8649 856.3238,-49.5976 856.3238,-41.6941"/>
<polygon fill="#191970" stroke="#191970" points="852.8239,-68.08 856.3238,-78.0801 859.8239,-68.0801 852.8239,-68.08"/>
</g>
<!-- Node43&#45;&gt;Node33 -->
<g id="edge19" class="edge">
<title>Node43&#45;&gt;Node33</title>
<path fill="none" stroke="#191970" d="M647.6821,-68.1086C648.765,-59.0666 649.8887,-49.6836 650.8455,-41.6941"/>
<polygon fill="#191970" stroke="#191970" points="644.2019,-67.7348 646.4879,-78.0801 651.1523,-68.5672 644.2019,-67.7348"/>
</g>
<!-- Node44 -->
<g id="node17" class="node">
<title>Node44</title>
<g id="a_node17"><a xlink:href="../../d7/d67/EMCAL_2workflow_2src_2ClusterizerSpec_8cxx.html" target="_top" xlink:title="/home/runner/work/AliceO2\l/AliceO2/Detectors/EMCAL\l/workflow/src/ClusterizerSpec.cxx">
<polygon fill="none" stroke="#000000" points="387.8238,-.5 387.8238,-41.5 554.8238,-41.5 554.8238,-.5 387.8238,-.5"/>
<text text-anchor="start" x="395.8238" y="-29.5" font-family="Helvetica,sans-Serif" font-size="10.00" fill="#000000">/home/runner/work/AliceO2</text>
<text text-anchor="start" x="395.8238" y="-18.5" font-family="Helvetica,sans-Serif" font-size="10.00" fill="#000000">/AliceO2/Detectors/EMCAL</text>
<text text-anchor="middle" x="471.3238" y="-7.5" font-family="Helvetica,sans-Serif" font-size="10.00" fill="#000000">/workflow/src/ClusterizerSpec.cxx</text>
</a>
</g>
</g>
<!-- Node43&#45;&gt;Node44 -->
<g id="edge18" class="edge">
<title>Node43&#45;&gt;Node44</title>
<path fill="none" stroke="#191970" d="M580.3378,-73.9225C558.1305,-63.1416 533.7133,-51.2879 513.627,-41.5367"/>
<polygon fill="#191970" stroke="#191970" points="578.8494,-77.0905 589.3739,-78.3092 581.9065,-70.7933 578.8494,-77.0905"/>
</g>
<!-- Node46 -->
<g id="node19" class="node">
<title>Node46</title>
<g id="a_node19"><a xlink:href="../../d6/d0e/EMCAL_2simulation_2include_2EMCALSimulation_2DigitizerTask_8h.html" target="_top" xlink:title="/home/runner/work/AliceO2\l/AliceO2/Detectors/EMCAL\l/simulation/include/EMCALSimulation\l/DigitizerTask.h">
<polygon fill="none" stroke="#000000" points="1885.8238,-78.5 1885.8238,-130.5 2066.8238,-130.5 2066.8238,-78.5 1885.8238,-78.5"/>
<text text-anchor="start" x="1893.8238" y="-118.5" font-family="Helvetica,sans-Serif" font-size="10.00" fill="#000000">/home/runner/work/AliceO2</text>
<text text-anchor="start" x="1893.8238" y="-107.5" font-family="Helvetica,sans-Serif" font-size="10.00" fill="#000000">/AliceO2/Detectors/EMCAL</text>
<text text-anchor="start" x="1893.8238" y="-96.5" font-family="Helvetica,sans-Serif" font-size="10.00" fill="#000000">/simulation/include/EMCALSimulation</text>
<text text-anchor="middle" x="1976.3238" y="-85.5" font-family="Helvetica,sans-Serif" font-size="10.00" fill="#000000">/DigitizerTask.h</text>
</a>
</g>
</g>
<!-- Node45&#45;&gt;Node46 -->
<g id="edge22" class="edge">
<title>Node45&#45;&gt;Node46</title>
<path fill="none" stroke="#191970" d="M1976.3238,-157.1155C1976.3238,-148.2061 1976.3238,-138.8475 1976.3238,-130.5341"/>
<polygon fill="#191970" stroke="#191970" points="1972.8239,-157.2784 1976.3238,-167.2784 1979.8239,-157.2785 1972.8239,-157.2784"/>
</g>
<!-- Node45&#45;&gt;Node47 -->
<g id="edge25" class="edge">
<title>Node45&#45;&gt;Node47</title>
<path fill="none" stroke="#191970" d="M2047.0851,-161.6157C2058.4192,-153.3059 2068.6118,-143.1751 2075.3238,-131 2086.6962,-110.3715 2087.1138,-98.3927 2075.3238,-78 2066.1417,-62.118 2050.6698,-50.2714 2034.6524,-41.6176"/>
<polygon fill="#191970" stroke="#191970" points="2044.9611,-158.8275 2038.6638,-167.3478 2048.8999,-164.6142 2044.9611,-158.8275"/>
</g>
<!-- Node45&#45;&gt;Node48 -->
<g id="edge24" class="edge">
<title>Node45&#45;&gt;Node48</title>
<path fill="none" stroke="#191970" d="M2076.8965,-167.9455C2078.3814,-167.6244 2079.8579,-167.309 2081.3238,-167 2174.8406,-147.2911 2200.6283,-154.2673 2293.3238,-131 2300.1991,-129.2743 2307.3366,-127.2383 2314.3843,-125.0741"/>
<polygon fill="#191970" stroke="#191970" points="2076.0016,-164.5589 2066.9966,-170.141 2077.5172,-171.3928 2076.0016,-164.5589"/>
</g>
<!-- Node49 -->
<g id="node22" class="node">
<title>Node49</title>
<g id="a_node22"><a xlink:href="../../df/d81/EMCALDigitizerSpec_8h.html" target="_top" xlink:title="/home/runner/work/AliceO2\l/AliceO2/Steer/DigitizerWorkflow\l/src/EMCALDigitizerSpec.h">
<polygon fill="none" stroke="#000000" points="2123.8238,-84 2123.8238,-125 2284.8238,-125 2284.8238,-84 2123.8238,-84"/>
<text text-anchor="start" x="2131.8238" y="-113" font-family="Helvetica,sans-Serif" font-size="10.00" fill="#000000">/home/runner/work/AliceO2</text>
<text text-anchor="start" x="2131.8238" y="-102" font-family="Helvetica,sans-Serif" font-size="10.00" fill="#000000">/AliceO2/Steer/DigitizerWorkflow</text>
<text text-anchor="middle" x="2204.3238" y="-91" font-family="Helvetica,sans-Serif" font-size="10.00" fill="#000000">/src/EMCALDigitizerSpec.h</text>
</a>
</g>
</g>
<!-- Node45&#45;&gt;Node49 -->
<g id="edge26" class="edge">
<title>Node45&#45;&gt;Node49</title>
<path fill="none" stroke="#191970" d="M2052.6632,-163.7008C2085.1434,-151.0222 2122.2186,-136.5498 2151.5814,-125.0881"/>
<polygon fill="#191970" stroke="#191970" points="2051.2335,-160.5017 2043.1908,-167.3984 2053.779,-167.0225 2051.2335,-160.5017"/>
</g>
<!-- Node46&#45;&gt;Node47 -->
<g id="edge23" class="edge">
<title>Node46&#45;&gt;Node47</title>
<path fill="none" stroke="#191970" d="M1976.3238,-67.8168C1976.3238,-58.8649 1976.3238,-49.5976 1976.3238,-41.6941"/>
<polygon fill="#191970" stroke="#191970" points="1972.8239,-68.08 1976.3238,-78.0801 1979.8239,-68.0801 1972.8239,-68.08"/>
</g>
<!-- Node50 -->
<g id="node23" class="node">
<title>Node50</title>
<g id="a_node23"><a xlink:href="../../d5/d9b/EMCALDigitizerSpec_8cxx.html" target="_top" xlink:title="/home/runner/work/AliceO2\l/AliceO2/Steer/DigitizerWorkflow\l/src/EMCALDigitizerSpec.cxx">
<polygon fill="none" stroke="#000000" points="2278.8238,-.5 2278.8238,-41.5 2439.8238,-41.5 2439.8238,-.5 2278.8238,-.5"/>
<text text-anchor="start" x="2286.8238" y="-29.5" font-family="Helvetica,sans-Serif" font-size="10.00" fill="#000000">/home/runner/work/AliceO2</text>
<text text-anchor="start" x="2286.8238" y="-18.5" font-family="Helvetica,sans-Serif" font-size="10.00" fill="#000000">/AliceO2/Steer/DigitizerWorkflow</text>
<text text-anchor="middle" x="2359.3238" y="-7.5" font-family="Helvetica,sans-Serif" font-size="10.00" fill="#000000">/src/EMCALDigitizerSpec.cxx</text>
</a>
</g>
</g>
<!-- Node49&#45;&gt;Node50 -->
<g id="edge27" class="edge">
<title>Node49&#45;&gt;Node50</title>
<path fill="none" stroke="#191970" d="M2251.6076,-79.0278C2273.9109,-67.0128 2300.1727,-52.8653 2321.1817,-41.5476"/>
<polygon fill="#191970" stroke="#191970" points="2249.7823,-76.0355 2242.6385,-83.8595 2253.1022,-82.1981 2249.7823,-76.0355"/>
</g>
<!-- Node51 -->
<g id="node24" class="node">
<title>Node51</title>
<g id="a_node24"><a xlink:href="../../d2/dd7/SimpleDigitizerWorkflow_8cxx.html" target="_top" xlink:title="/home/runner/work/AliceO2\l/AliceO2/Steer/DigitizerWorkflow\l/src/SimpleDigitizerWorkflow.cxx">
<polygon fill="none" stroke="#000000" points="2098.3238,-.5 2098.3238,-41.5 2260.3238,-41.5 2260.3238,-.5 2098.3238,-.5"/>
<text text-anchor="start" x="2106.3238" y="-29.5" font-family="Helvetica,sans-Serif" font-size="10.00" fill="#000000">/home/runner/work/AliceO2</text>
<text text-anchor="start" x="2106.3238" y="-18.5" font-family="Helvetica,sans-Serif" font-size="10.00" fill="#000000">/AliceO2/Steer/DigitizerWorkflow</text>
<text text-anchor="middle" x="2179.3238" y="-7.5" font-family="Helvetica,sans-Serif" font-size="10.00" fill="#000000">/src/SimpleDigitizerWorkflow.cxx</text>
</a>
</g>
</g>
<!-- Node49&#45;&gt;Node51 -->
<g id="edge28" class="edge">
<title>Node49&#45;&gt;Node51</title>
<path fill="none" stroke="#191970" d="M2195.1897,-73.9918C2191.9735,-63.2498 2188.4361,-51.4349 2185.5192,-41.6924"/>
<polygon fill="#191970" stroke="#191970" points="2191.9228,-75.2836 2198.1441,-83.8595 2198.6287,-73.2758 2191.9228,-75.2836"/>
</g>
<!-- Node55&#45;&gt;Node33 -->
<g id="edge38" class="edge">
<title>Node55&#45;&gt;Node33</title>
<path fill="none" stroke="#191970" d="M906.6439,-167.0889C937.1963,-156.5678 965.4539,-143.9007 974.3238,-131 987.6695,-111.5897 989.5825,-95.9454 974.3238,-78 942.0916,-40.0924 802.2402,-51.1155 753.3238,-42 747.0456,-40.8301 740.5556,-39.5739 734.0375,-38.2789"/>
<polygon fill="#191970" stroke="#191970" points="905.4781,-163.7883 897.1074,-170.2831 907.7013,-170.4258 905.4781,-163.7883"/>
</g>
<!-- Node55&#45;&gt;Node56 -->
<g id="edge37" class="edge">
<title>Node55&#45;&gt;Node56</title>
<path fill="none" stroke="#191970" d="M906.7887,-164.6987C943.6017,-153.5924 985.3749,-140.9897 1021.1527,-130.1957"/>
<polygon fill="#191970" stroke="#191970" points="905.6092,-161.3987 897.0463,-167.638 907.6311,-168.1004 905.6092,-161.3987"/>
</g>
</g>
</svg>
