<?xml version="1.0" encoding="UTF-8" standalone="no"?>
<!DOCTYPE svg PUBLIC "-//W3C//DTD SVG 1.1//EN"
 "http://www.w3.org/Graphics/SVG/1.1/DTD/svg11.dtd">
<!-- Generated by graphviz version 2.40.1 (20161225.0304)
 -->
<!-- Title: /home/runner/work/AliceO2/AliceO2/Utilities/DataCompression/include/DataCompression/runtime_container.h Pages: 1 -->
<svg width="1979pt" height="117pt"
 viewBox="0.00 0.00 1978.50 117.00" xmlns="http://www.w3.org/2000/svg" xmlns:xlink="http://www.w3.org/1999/xlink">
<g id="graph0" class="graph" transform="scale(1 1) rotate(0) translate(4 113)">
<title>/home/runner/work/AliceO2/AliceO2/Utilities/DataCompression/include/DataCompression/runtime_container.h</title>
<!-- Node0 -->
<g id="node1" class="node">
<title>Node0</title>
<polygon fill="#bfbfbf" stroke="#000000" points="855,-56.5 855,-108.5 1027,-108.5 1027,-56.5 855,-56.5"/>
<text text-anchor="start" x="863" y="-96.5" font-family="Helvetica,sans-Serif" font-size="10.00" fill="#000000">/home/runner/work/AliceO2</text>
<text text-anchor="start" x="863" y="-85.5" font-family="Helvetica,sans-Serif" font-size="10.00" fill="#000000">/AliceO2/Utilities/DataCompression</text>
<text text-anchor="start" x="863" y="-74.5" font-family="Helvetica,sans-Serif" font-size="10.00" fill="#000000">/include/DataCompression/runtime</text>
<text text-anchor="middle" x="941" y="-63.5" font-family="Helvetica,sans-Serif" font-size="10.00" fill="#000000">_container.h</text>
</g>
<!-- Node1 -->
<g id="node2" class="node">
<title>Node1</title>
<polygon fill="none" stroke="#bfbfbf" points="0,-.5 0,-19.5 54,-19.5 54,-.5 0,-.5"/>
<text text-anchor="middle" x="27" y="-7.5" font-family="Helvetica,sans-Serif" font-size="10.00" fill="#000000">iostream</text>
</g>
<!-- Node0&#45;&gt;Node1 -->
<g id="edge1" class="edge">
<title>Node0&#45;&gt;Node1</title>
<path fill="none" stroke="#191970" d="M854.9575,-78.5695C668.5781,-69.7054 231.5477,-46.9412 64.2967,-19.8798"/>
<polygon fill="#191970" stroke="#191970" points="64.8304,-16.4205 54.3888,-18.2161 63.6711,-23.3239 64.8304,-16.4205"/>
</g>
<!-- Node2 -->
<g id="node3" class="node">
<title>Node2</title>
<polygon fill="none" stroke="#bfbfbf" points="72,-.5 72,-19.5 122,-19.5 122,-.5 72,-.5"/>
<text text-anchor="middle" x="97" y="-7.5" font-family="Helvetica,sans-Serif" font-size="10.00" fill="#000000">iomanip</text>
</g>
<!-- Node0&#45;&gt;Node2 -->
<g id="edge2" class="edge">
<title>Node0&#45;&gt;Node2</title>
<path fill="none" stroke="#191970" d="M854.8991,-78.1396C679.7365,-68.9034 286.1917,-46.1955 132.3301,-19.8433"/>
<polygon fill="#191970" stroke="#191970" points="132.5685,-16.3307 122.1094,-18.0212 131.3399,-23.2221 132.5685,-16.3307"/>
</g>
<!-- Node3 -->
<g id="node4" class="node">
<title>Node3</title>
<polygon fill="none" stroke="#bfbfbf" points="140,-.5 140,-19.5 244,-19.5 244,-.5 140,-.5"/>
<text text-anchor="middle" x="192" y="-7.5" font-family="Helvetica,sans-Serif" font-size="10.00" fill="#000000">boost/mpl/equal.hpp</text>
</g>
<!-- Node0&#45;&gt;Node3 -->
<g id="edge3" class="edge">
<title>Node0&#45;&gt;Node3</title>
<path fill="none" stroke="#191970" d="M854.9776,-76.6814C726.4901,-67.5465 476.6522,-48.0737 254.4334,-20.1074"/>
<polygon fill="#191970" stroke="#191970" points="254.568,-16.5966 244.2074,-18.8119 253.6882,-23.5411 254.568,-16.5966"/>
</g>
<!-- Node4 -->
<g id="node5" class="node">
<title>Node4</title>
<polygon fill="none" stroke="#bfbfbf" points="262.5,-.5 262.5,-19.5 369.5,-19.5 369.5,-.5 262.5,-.5"/>
<text text-anchor="middle" x="316" y="-7.5" font-family="Helvetica,sans-Serif" font-size="10.00" fill="#000000">boost/mpl/minus.hpp</text>
</g>
<!-- Node0&#45;&gt;Node4 -->
<g id="edge4" class="edge">
<title>Node0&#45;&gt;Node4</title>
<path fill="none" stroke="#191970" d="M854.994,-74.2842C746.5307,-63.6235 554.0843,-43.7147 379.8689,-20.2079"/>
<polygon fill="#191970" stroke="#191970" points="380.124,-16.7105 369.7443,-18.8348 379.1833,-23.647 380.124,-16.7105"/>
</g>
<!-- Node5 -->
<g id="node6" class="node">
<title>Node5</title>
<polygon fill="none" stroke="#bfbfbf" points="387.5,-.5 387.5,-19.5 486.5,-19.5 486.5,-.5 387.5,-.5"/>
<text text-anchor="middle" x="437" y="-7.5" font-family="Helvetica,sans-Serif" font-size="10.00" fill="#000000">boost/mpl/less.hpp</text>
</g>
<!-- Node0&#45;&gt;Node5 -->
<g id="edge5" class="edge">
<title>Node0&#45;&gt;Node5</title>
<path fill="none" stroke="#191970" d="M854.964,-71.2614C767.339,-59.6285 627.2849,-40.5224 496.8322,-20.2538"/>
<polygon fill="#191970" stroke="#191970" points="497.077,-16.7498 486.6571,-18.6674 495.9986,-23.6662 497.077,-16.7498"/>
</g>
<!-- Node6 -->
<g id="node7" class="node">
<title>Node6</title>
<polygon fill="none" stroke="#bfbfbf" points="504.5,-.5 504.5,-19.5 601.5,-19.5 601.5,-.5 504.5,-.5"/>
<text text-anchor="middle" x="553" y="-7.5" font-family="Helvetica,sans-Serif" font-size="10.00" fill="#000000">boost/mpl/fold.hpp</text>
</g>
<!-- Node0&#45;&gt;Node6 -->
<g id="edge6" class="edge">
<title>Node0&#45;&gt;Node6</title>
<path fill="none" stroke="#191970" d="M854.8902,-66.4099C780.93,-52.59 676.294,-33.0382 611.6412,-20.9574"/>
<polygon fill="#191970" stroke="#191970" points="612.0917,-17.4811 601.619,-19.0847 610.8059,-24.362 612.0917,-17.4811"/>
</g>
<!-- Node7 -->
<g id="node8" class="node">
<title>Node7</title>
<polygon fill="none" stroke="#bfbfbf" points="619.5,-.5 619.5,-19.5 732.5,-19.5 732.5,-.5 619.5,-.5"/>
<text text-anchor="middle" x="676" y="-7.5" font-family="Helvetica,sans-Serif" font-size="10.00" fill="#000000">boost/mpl/lambda.hpp</text>
</g>
<!-- Node0&#45;&gt;Node7 -->
<g id="edge7" class="edge">
<title>Node0&#45;&gt;Node7</title>
<path fill="none" stroke="#191970" d="M854.9621,-58.9613C810.2042,-46.7162 757.3475,-32.2554 720.7364,-22.2392"/>
<polygon fill="#191970" stroke="#191970" points="721.4304,-18.8005 710.8612,-19.5375 719.5831,-25.5524 721.4304,-18.8005"/>
</g>
<!-- Node8 -->
<g id="node9" class="node">
<title>Node8</title>
<polygon fill="none" stroke="#bfbfbf" points="751,-.5 751,-19.5 859,-19.5 859,-.5 751,-.5"/>
<text text-anchor="middle" x="805" y="-7.5" font-family="Helvetica,sans-Serif" font-size="10.00" fill="#000000">boost/mpl/vector.hpp</text>
</g>
<!-- Node0&#45;&gt;Node8 -->
<g id="edge8" class="edge">
<title>Node0&#45;&gt;Node8</title>
<path fill="none" stroke="#191970" d="M891.9009,-56.3258C871.6147,-45.5115 848.8906,-33.3976 831.769,-24.2703"/>
<polygon fill="#191970" stroke="#191970" points="833.3554,-21.1497 822.8845,-19.534 830.0624,-27.3268 833.3554,-21.1497"/>
</g>
<!-- Node9 -->
<g id="node10" class="node">
<title>Node9</title>
<polygon fill="none" stroke="#bfbfbf" points="877,-.5 877,-19.5 1005,-19.5 1005,-.5 877,-.5"/>
<text text-anchor="middle" x="941" y="-7.5" font-family="Helvetica,sans-Serif" font-size="10.00" fill="#000000">boost/mpl/push_back.hpp</text>
</g>
<!-- Node0&#45;&gt;Node9 -->
<g id="edge9" class="edge">
<title>Node0&#45;&gt;Node9</title>
<path fill="none" stroke="#191970" d="M941,-56.3258C941,-47.5142 941,-37.8397 941,-29.621"/>
<polygon fill="#191970" stroke="#191970" points="944.5001,-29.534 941,-19.534 937.5001,-29.534 944.5001,-29.534"/>
</g>
<!-- Node10 -->
<g id="node11" class="node">
<title>Node10</title>
<polygon fill="none" stroke="#bfbfbf" points="1023.5,-.5 1023.5,-19.5 1134.5,-19.5 1134.5,-.5 1023.5,-.5"/>
<text text-anchor="middle" x="1079" y="-7.5" font-family="Helvetica,sans-Serif" font-size="10.00" fill="#000000">boost/mpl/protect.hpp</text>
</g>
<!-- Node0&#45;&gt;Node10 -->
<g id="edge10" class="edge">
<title>Node0&#45;&gt;Node10</title>
<path fill="none" stroke="#191970" d="M990.8212,-56.3258C1011.4057,-45.5115 1034.4639,-33.3976 1051.8373,-24.2703"/>
<polygon fill="#191970" stroke="#191970" points="1053.6277,-27.2833 1060.8525,-19.534 1050.372,-21.0865 1053.6277,-27.2833"/>
</g>
<!-- Node11 -->
<g id="node12" class="node">
<title>Node11</title>
<polygon fill="none" stroke="#bfbfbf" points="1153,-.5 1153,-19.5 1257,-19.5 1257,-.5 1153,-.5"/>
<text text-anchor="middle" x="1205" y="-7.5" font-family="Helvetica,sans-Serif" font-size="10.00" fill="#000000">boost/mpl/begin.hpp</text>
</g>
<!-- Node0&#45;&gt;Node11 -->
<g id="edge11" class="edge">
<title>Node0&#45;&gt;Node11</title>
<path fill="none" stroke="#191970" d="M1027.0782,-58.8611C1071.6406,-46.6233 1124.1799,-32.1949 1160.5581,-22.2047"/>
<polygon fill="#191970" stroke="#191970" points="1161.654,-25.5334 1170.3701,-19.5101 1159.8002,-18.7833 1161.654,-25.5334"/>
</g>
<!-- Node12 -->
<g id="node13" class="node">
<title>Node12</title>
<polygon fill="none" stroke="#bfbfbf" points="1275.5,-.5 1275.5,-19.5 1372.5,-19.5 1372.5,-.5 1275.5,-.5"/>
<text text-anchor="middle" x="1324" y="-7.5" font-family="Helvetica,sans-Serif" font-size="10.00" fill="#000000">boost/mpl/end.hpp</text>
</g>
<!-- Node0&#45;&gt;Node12 -->
<g id="edge12" class="edge">
<title>Node0&#45;&gt;Node12</title>
<path fill="none" stroke="#191970" d="M1027.4302,-66.1392C1100.1007,-52.383 1202.0085,-33.0924 1265.4606,-21.0812"/>
<polygon fill="#191970" stroke="#191970" points="1266.1292,-24.5169 1275.3037,-19.218 1264.8272,-17.639 1266.1292,-24.5169"/>
</g>
<!-- Node13 -->
<g id="node14" class="node">
<title>Node13</title>
<polygon fill="none" stroke="#bfbfbf" points="1391,-.5 1391,-19.5 1491,-19.5 1491,-.5 1391,-.5"/>
<text text-anchor="middle" x="1441" y="-7.5" font-family="Helvetica,sans-Serif" font-size="10.00" fill="#000000">boost/mpl/next.hpp</text>
</g>
<!-- Node0&#45;&gt;Node13 -->
<g id="edge13" class="edge">
<title>Node0&#45;&gt;Node13</title>
<path fill="none" stroke="#191970" d="M1027.2953,-70.9741C1114.0131,-59.2307 1251.7701,-40.1386 1380.742,-20.1658"/>
<polygon fill="#191970" stroke="#191970" points="1381.4587,-23.5965 1390.803,-18.6031 1380.3843,-16.6795 1381.4587,-23.5965"/>
</g>
<!-- Node14 -->
<g id="node15" class="node">
<title>Node14</title>
<polygon fill="none" stroke="#bfbfbf" points="1509.5,-.5 1509.5,-19.5 1612.5,-19.5 1612.5,-.5 1509.5,-.5"/>
<text text-anchor="middle" x="1561" y="-7.5" font-family="Helvetica,sans-Serif" font-size="10.00" fill="#000000">boost/mpl/deref.hpp</text>
</g>
<!-- Node0&#45;&gt;Node14 -->
<g id="edge14" class="edge">
<title>Node0&#45;&gt;Node14</title>
<path fill="none" stroke="#191970" d="M1027.3566,-74.228C1135.2348,-63.583 1325.6985,-43.7648 1499.35,-20.0288"/>
<polygon fill="#191970" stroke="#191970" points="1500.0128,-23.4707 1509.4434,-18.6421 1499.06,-16.5359 1500.0128,-23.4707"/>
</g>
<!-- Node15 -->
<g id="node16" class="node">
<title>Node15</title>
<polygon fill="none" stroke="#bfbfbf" points="1630.5,-.5 1630.5,-19.5 1719.5,-19.5 1719.5,-.5 1630.5,-.5"/>
<text text-anchor="middle" x="1675" y="-7.5" font-family="Helvetica,sans-Serif" font-size="10.00" fill="#000000">boost/mpl/at.hpp</text>
</g>
<!-- Node0&#45;&gt;Node15 -->
<g id="edge15" class="edge">
<title>Node0&#45;&gt;Node15</title>
<path fill="none" stroke="#191970" d="M1027.0356,-77.2344C1154.5642,-68.8447 1401.4156,-50.3659 1620.1642,-20.1578"/>
<polygon fill="#191970" stroke="#191970" points="1620.8079,-23.602 1630.2298,-18.7566 1619.8427,-16.6688 1620.8079,-23.602"/>
</g>
<!-- Node16 -->
<g id="node17" class="node">
<title>Node16</title>
<polygon fill="none" stroke="#bfbfbf" points="1737,-.5 1737,-19.5 1853,-19.5 1853,-.5 1737,-.5"/>
<text text-anchor="middle" x="1795" y="-7.5" font-family="Helvetica,sans-Serif" font-size="10.00" fill="#000000">boost/mpl/range_c.hpp</text>
</g>
<!-- Node0&#45;&gt;Node16 -->
<g id="edge16" class="edge">
<title>Node0&#45;&gt;Node16</title>
<path fill="none" stroke="#191970" d="M1027.1892,-77.6792C1170.4782,-69.2194 1466.9205,-49.8279 1726.7236,-20.2071"/>
<polygon fill="#191970" stroke="#191970" points="1727.1913,-23.6765 1736.7271,-19.0594 1726.3933,-16.7221 1727.1913,-23.6765"/>
</g>
<!-- Node17 -->
<g id="node18" class="node">
<title>Node17</title>
<polygon fill="none" stroke="#bfbfbf" points="1871.5,-.5 1871.5,-19.5 1970.5,-19.5 1970.5,-.5 1871.5,-.5"/>
<text text-anchor="middle" x="1921" y="-7.5" font-family="Helvetica,sans-Serif" font-size="10.00" fill="#000000">boost/mpl/size.hpp</text>
</g>
<!-- Node0&#45;&gt;Node17 -->
<g id="edge17" class="edge">
<title>Node0&#45;&gt;Node17</title>
<path fill="none" stroke="#191970" d="M1027.2922,-79.5289C1188.9205,-73.3318 1548.3981,-56.5611 1861.301,-19.9628"/>
<polygon fill="#191970" stroke="#191970" points="1861.9559,-23.41 1871.4775,-18.7636 1861.1365,-16.4581 1861.9559,-23.41"/>
</g>
</g>
</svg>
