<?xml version="1.0" encoding="UTF-8" standalone="no"?>
<!DOCTYPE svg PUBLIC "-//W3C//DTD SVG 1.1//EN"
 "http://www.w3.org/Graphics/SVG/1.1/DTD/svg11.dtd">
<!-- Generated by graphviz version 2.40.1 (20161225.0304)
 -->
<!-- Title: /home/runner/work/AliceO2/AliceO2/Detectors/FIT/FV0/base/include/FV0Base/Constants.h Pages: 1 -->
<svg width="394pt" height="173pt"
 viewBox="0.00 0.00 394.00 173.00" xmlns="http://www.w3.org/2000/svg" xmlns:xlink="http://www.w3.org/1999/xlink">
<g id="graph0" class="graph" transform="scale(1 1) rotate(0) translate(4 169)">
<title>/home/runner/work/AliceO2/AliceO2/Detectors/FIT/FV0/base/include/FV0Base/Constants.h</title>
<!-- Node0 -->
<g id="node1" class="node">
<title>Node0</title>
<polygon fill="#bfbfbf" stroke="#000000" points="86.5,-112.5 86.5,-164.5 225.5,-164.5 225.5,-112.5 86.5,-112.5"/>
<text text-anchor="start" x="94.5" y="-152.5" font-family="Helvetica,sans-Serif" font-size="10.00" fill="#000000">/home/runner/work/AliceO2</text>
<text text-anchor="start" x="94.5" y="-141.5" font-family="Helvetica,sans-Serif" font-size="10.00" fill="#000000">/AliceO2/Detectors/FIT</text>
<text text-anchor="start" x="94.5" y="-130.5" font-family="Helvetica,sans-Serif" font-size="10.00" fill="#000000">/FV0/base/include/FV0Base</text>
<text text-anchor="middle" x="156" y="-119.5" font-family="Helvetica,sans-Serif" font-size="10.00" fill="#000000">/Constants.h</text>
</g>
<!-- Node1 -->
<g id="node2" class="node">
<title>Node1</title>
<g id="a_node2"><a xlink:href="../../d8/de0/FIT_2FV0_2base_2include_2FV0Base_2Geometry_8h.html" target="_top" xlink:title="FV0Base/Geometry.h">
<polygon fill="none" stroke="#000000" points="100.5,-56.5 100.5,-75.5 211.5,-75.5 211.5,-56.5 100.5,-56.5"/>
<text text-anchor="middle" x="156" y="-63.5" font-family="Helvetica,sans-Serif" font-size="10.00" fill="#000000">FV0Base/Geometry.h</text>
</a>
</g>
</g>
<!-- Node0&#45;&gt;Node1 -->
<g id="edge1" class="edge">
<title>Node0&#45;&gt;Node1</title>
<path fill="none" stroke="#191970" d="M156,-112.3258C156,-103.5142 156,-93.8397 156,-85.621"/>
<polygon fill="#191970" stroke="#191970" points="159.5001,-85.534 156,-75.534 152.5001,-85.534 159.5001,-85.534"/>
</g>
<!-- Node2 -->
<g id="node3" class="node">
<title>Node2</title>
<polygon fill="none" stroke="#bfbfbf" points="0,-.5 0,-19.5 44,-19.5 44,-.5 0,-.5"/>
<text text-anchor="middle" x="22" y="-7.5" font-family="Helvetica,sans-Serif" font-size="10.00" fill="#000000">vector</text>
</g>
<!-- Node1&#45;&gt;Node2 -->
<g id="edge2" class="edge">
<title>Node1&#45;&gt;Node2</title>
<path fill="none" stroke="#191970" d="M132.9646,-56.3733C111.1296,-47.2482 78.1411,-33.462 53.8043,-23.2913"/>
<polygon fill="#191970" stroke="#191970" points="54.8659,-19.9417 44.2896,-19.315 52.1667,-26.4004 54.8659,-19.9417"/>
</g>
<!-- Node3 -->
<g id="node4" class="node">
<title>Node3</title>
<polygon fill="none" stroke="#bfbfbf" points="62,-.5 62,-19.5 100,-19.5 100,-.5 62,-.5"/>
<text text-anchor="middle" x="81" y="-7.5" font-family="Helvetica,sans-Serif" font-size="10.00" fill="#000000">array</text>
</g>
<!-- Node1&#45;&gt;Node3 -->
<g id="edge3" class="edge">
<title>Node1&#45;&gt;Node3</title>
<path fill="none" stroke="#191970" d="M142.936,-56.2455C131.6438,-47.814 115.1155,-35.4729 101.9729,-25.6598"/>
<polygon fill="#191970" stroke="#191970" points="104.0211,-22.8211 93.9143,-19.6427 99.8331,-28.4301 104.0211,-22.8211"/>
</g>
<!-- Node4 -->
<g id="node5" class="node">
<title>Node4</title>
<polygon fill="none" stroke="#bfbfbf" points="118,-.5 118,-19.5 194,-19.5 194,-.5 118,-.5"/>
<text text-anchor="middle" x="156" y="-7.5" font-family="Helvetica,sans-Serif" font-size="10.00" fill="#000000">TGeoMatrix.h</text>
</g>
<!-- Node1&#45;&gt;Node4 -->
<g id="edge4" class="edge">
<title>Node1&#45;&gt;Node4</title>
<path fill="none" stroke="#191970" d="M156,-56.2455C156,-48.9382 156,-38.6944 156,-29.7046"/>
<polygon fill="#191970" stroke="#191970" points="159.5001,-29.6426 156,-19.6427 152.5001,-29.6427 159.5001,-29.6426"/>
</g>
<!-- Node5 -->
<g id="node6" class="node">
<title>Node5</title>
<polygon fill="none" stroke="#bfbfbf" points="212,-.5 212,-19.5 294,-19.5 294,-.5 212,-.5"/>
<text text-anchor="middle" x="253" y="-7.5" font-family="Helvetica,sans-Serif" font-size="10.00" fill="#000000">TGeoVolume.h</text>
</g>
<!-- Node1&#45;&gt;Node5 -->
<g id="edge5" class="edge">
<title>Node1&#45;&gt;Node5</title>
<path fill="none" stroke="#191970" d="M172.8961,-56.2455C187.918,-47.5731 210.1043,-34.7645 227.321,-24.825"/>
<polygon fill="#191970" stroke="#191970" points="229.3871,-27.6737 236.2975,-19.6427 225.8872,-21.6114 229.3871,-27.6737"/>
</g>
<!-- Node6 -->
<g id="node7" class="node">
<title>Node6</title>
<polygon fill="none" stroke="#bfbfbf" points="312,-.5 312,-19.5 386,-19.5 386,-.5 312,-.5"/>
<text text-anchor="middle" x="349" y="-7.5" font-family="Helvetica,sans-Serif" font-size="10.00" fill="#000000">TVirtualMC.h</text>
</g>
<!-- Node1&#45;&gt;Node6 -->
<g id="edge6" class="edge">
<title>Node1&#45;&gt;Node6</title>
<path fill="none" stroke="#191970" d="M189.1779,-56.3733C221.5487,-46.9807 270.9398,-32.6496 306.2424,-22.4064"/>
<polygon fill="#191970" stroke="#191970" points="307.6265,-25.6492 316.2551,-19.5011 305.6758,-18.9264 307.6265,-25.6492"/>
</g>
</g>
</svg>
