<?xml version="1.0" encoding="UTF-8" standalone="no"?>
<!DOCTYPE svg PUBLIC "-//W3C//DTD SVG 1.1//EN"
 "http://www.w3.org/Graphics/SVG/1.1/DTD/svg11.dtd">
<!-- Generated by graphviz version 2.40.1 (20161225.0304)
 -->
<!-- Title: o2::fdd::EventHeader Pages: 1 -->
<svg width="258pt" height="248pt"
 viewBox="0.00 0.00 257.50 248.00" xmlns="http://www.w3.org/2000/svg" xmlns:xlink="http://www.w3.org/1999/xlink">
<g id="graph0" class="graph" transform="scale(1 1) rotate(0) translate(4 244)">
<title>o2::fdd::EventHeader</title>
<!-- Node1 -->
<g id="node1" class="node">
<title>Node1</title>
<polygon fill="#bfbfbf" stroke="#000000" points="64.5,-.5 64.5,-57.5 174.5,-57.5 174.5,-.5 64.5,-.5"/>
<text text-anchor="middle" x="119.5" y="-45.5" font-family="Helvetica,sans-Serif" font-size="10.00" fill="#000000">o2::fdd::EventHeader</text>
<polyline fill="none" stroke="#000000" points="64.5,-38.5 174.5,-38.5 "/>
<text text-anchor="middle" x="119.5" y="-26.5" font-family="Helvetica,sans-Serif" font-size="10.00" fill="#000000"> </text>
<polyline fill="none" stroke="#000000" points="64.5,-19.5 174.5,-19.5 "/>
<text text-anchor="middle" x="119.5" y="-7.5" font-family="Helvetica,sans-Serif" font-size="10.00" fill="#000000"> </text>
</g>
<!-- Node2 -->
<g id="node2" class="node">
<title>Node2</title>
<g id="a_node2"><a xlink:href="../../d6/d30/classuint64__t.html" target="_top" xlink:title="{uint64_t\n||}">
<polygon fill="none" stroke="#000000" points="0,-182.5 0,-239.5 51,-239.5 51,-182.5 0,-182.5"/>
<text text-anchor="middle" x="25.5" y="-227.5" font-family="Helvetica,sans-Serif" font-size="10.00" fill="#000000">uint64_t</text>
<polyline fill="none" stroke="#000000" points="0,-220.5 51,-220.5 "/>
<text text-anchor="middle" x="25.5" y="-208.5" font-family="Helvetica,sans-Serif" font-size="10.00" fill="#000000"> </text>
<polyline fill="none" stroke="#000000" points="0,-201.5 51,-201.5 "/>
<text text-anchor="middle" x="25.5" y="-189.5" font-family="Helvetica,sans-Serif" font-size="10.00" fill="#000000"> </text>
</a>
</g>
</g>
<!-- Node2&#45;&gt;Node1 -->
<g id="edge1" class="edge">
<title>Node2&#45;&gt;Node1</title>
<path fill="none" stroke="#404040" d="M22.8406,-182.233C21.5946,-153.1233 23.7634,-107.97 44.5,-76 47.4973,-71.3791 51.1255,-67.1308 55.1493,-63.2413"/>
<polygon fill="none" stroke="#404040" points="55.3552,-63.0663 57.3362,-56.1326 64.4985,-55.2944 62.5175,-62.2281 55.3552,-63.0663"/>
<text text-anchor="middle" x="80" y="-156" font-family="Helvetica,sans-Serif" font-size="10.00" fill="#000000"> +word</text>
<text text-anchor="middle" x="80" y="-145" font-family="Helvetica,sans-Serif" font-size="10.00" fill="#000000">+nGBTWords</text>
<text text-anchor="middle" x="80" y="-134" font-family="Helvetica,sans-Serif" font-size="10.00" fill="#000000">+startDescriptor</text>
<text text-anchor="middle" x="80" y="-123" font-family="Helvetica,sans-Serif" font-size="10.00" fill="#000000">+reservedField1</text>
<text text-anchor="middle" x="80" y="-112" font-family="Helvetica,sans-Serif" font-size="10.00" fill="#000000">+reservedField2</text>
<text text-anchor="middle" x="80" y="-101" font-family="Helvetica,sans-Serif" font-size="10.00" fill="#000000">+bc</text>
<text text-anchor="middle" x="80" y="-90" font-family="Helvetica,sans-Serif" font-size="10.00" fill="#000000">+reservedField3</text>
<text text-anchor="middle" x="80" y="-79" font-family="Helvetica,sans-Serif" font-size="10.00" fill="#000000">+orbit</text>
</g>
<!-- Node3 -->
<g id="node3" class="node">
<title>Node3</title>
<polygon fill="none" stroke="#bfbfbf" points="73.5,-182.5 73.5,-239.5 165.5,-239.5 165.5,-182.5 73.5,-182.5"/>
<text text-anchor="middle" x="119.5" y="-227.5" font-family="Helvetica,sans-Serif" font-size="10.00" fill="#000000">anonymous:+@9</text>
<polyline fill="none" stroke="#bfbfbf" points="73.5,-220.5 165.5,-220.5 "/>
<text text-anchor="middle" x="119.5" y="-208.5" font-family="Helvetica,sans-Serif" font-size="10.00" fill="#000000"> </text>
<polyline fill="none" stroke="#bfbfbf" points="73.5,-201.5 165.5,-201.5 "/>
<text text-anchor="middle" x="119.5" y="-189.5" font-family="Helvetica,sans-Serif" font-size="10.00" fill="#000000"> </text>
</g>
<!-- Node3&#45;&gt;Node1 -->
<g id="edge2" class="edge">
<title>Node3&#45;&gt;Node1</title>
<path fill="none" stroke="#404040" d="M119.5,-182.1616C119.5,-151.943 119.5,-104.2065 119.5,-70.0602"/>
<polygon fill="none" stroke="#404040" points="119.5001,-69.7035 115.5,-63.7036 119.5,-57.7035 123.5,-63.7035 119.5001,-69.7035"/>
<text text-anchor="middle" x="132" y="-117.5" font-family="Helvetica,sans-Serif" font-size="10.00" fill="#000000"> +@9</text>
</g>
<!-- Node4 -->
<g id="node4" class="node">
<title>Node4</title>
<polygon fill="none" stroke="#bfbfbf" points="184,-182.5 184,-239.5 225,-239.5 225,-182.5 184,-182.5"/>
<text text-anchor="middle" x="204.5" y="-227.5" font-family="Helvetica,sans-Serif" font-size="10.00" fill="#000000">static</text>
<polyline fill="none" stroke="#bfbfbf" points="184,-220.5 225,-220.5 "/>
<text text-anchor="middle" x="204.5" y="-208.5" font-family="Helvetica,sans-Serif" font-size="10.00" fill="#000000"> </text>
<polyline fill="none" stroke="#bfbfbf" points="184,-201.5 225,-201.5 "/>
<text text-anchor="middle" x="204.5" y="-189.5" font-family="Helvetica,sans-Serif" font-size="10.00" fill="#000000"> </text>
</g>
<!-- Node4&#45;&gt;Node1 -->
<g id="edge3" class="edge">
<title>Node4&#45;&gt;Node1</title>
<path fill="none" stroke="#404040" d="M194.1933,-182.486C183.8155,-154.7484 166.7647,-111.6886 148.5,-76 147.1916,-73.4435 145.7924,-70.8417 144.3415,-68.2404"/>
<polygon fill="none" stroke="#404040" points="144.223,-68.0367 137.7476,-64.8633 138.1864,-57.6655 144.6618,-60.8389 144.223,-68.0367"/>
<text text-anchor="middle" x="217.5" y="-117.5" font-family="Helvetica,sans-Serif" font-size="10.00" fill="#000000"> +PayloadSize</text>
</g>
</g>
</svg>
