<?xml version="1.0" encoding="UTF-8" standalone="no"?>
<!DOCTYPE svg PUBLIC "-//W3C//DTD SVG 1.1//EN"
 "http://www.w3.org/Graphics/SVG/1.1/DTD/svg11.dtd">
<!-- Generated by graphviz version 2.40.1 (20161225.0304)
 -->
<!-- Title: /home/runner/work/AliceO2/AliceO2/Detectors/MUON/MID/Base/test/src/testMapping.cxx Pages: 1 -->
<svg width="942pt" height="229pt"
 viewBox="0.00 0.00 942.00 229.00" xmlns="http://www.w3.org/2000/svg" xmlns:xlink="http://www.w3.org/1999/xlink">
<g id="graph0" class="graph" transform="scale(1 1) rotate(0) translate(4 225)">
<title>/home/runner/work/AliceO2/AliceO2/Detectors/MUON/MID/Base/test/src/testMapping.cxx</title>
<!-- Node0 -->
<g id="node1" class="node">
<title>Node0</title>
<polygon fill="#bfbfbf" stroke="#000000" points="490,-179.5 490,-220.5 665,-220.5 665,-179.5 490,-179.5"/>
<text text-anchor="start" x="498" y="-208.5" font-family="Helvetica,sans-Serif" font-size="10.00" fill="#000000">/home/runner/work/AliceO2</text>
<text text-anchor="start" x="498" y="-197.5" font-family="Helvetica,sans-Serif" font-size="10.00" fill="#000000">/AliceO2/Detectors/MUON</text>
<text text-anchor="middle" x="577.5" y="-186.5" font-family="Helvetica,sans-Serif" font-size="10.00" fill="#000000">/MID/Base/test/src/testMapping.cxx</text>
</g>
<!-- Node1 -->
<g id="node2" class="node">
<title>Node1</title>
<polygon fill="none" stroke="#bfbfbf" points="0,-118 0,-137 119,-137 119,-118 0,-118"/>
<text text-anchor="middle" x="59.5" y="-125" font-family="Helvetica,sans-Serif" font-size="10.00" fill="#000000">boost/test/unit_test.hpp</text>
</g>
<!-- Node0&#45;&gt;Node1 -->
<g id="edge1" class="edge">
<title>Node0&#45;&gt;Node1</title>
<path fill="none" stroke="#191970" d="M489.7965,-191.3505C399.0234,-181.8174 253.3005,-164.8884 128.5,-143 122.2305,-141.9004 115.6705,-140.6105 109.1947,-139.2524"/>
<polygon fill="#191970" stroke="#191970" points="109.6555,-135.7713 99.1418,-137.0798 108.1768,-142.6133 109.6555,-135.7713"/>
</g>
<!-- Node2 -->
<g id="node3" class="node">
<title>Node2</title>
<polygon fill="none" stroke="#bfbfbf" points="137.5,-118 137.5,-137 299.5,-137 299.5,-118 137.5,-118"/>
<text text-anchor="middle" x="218.5" y="-125" font-family="Helvetica,sans-Serif" font-size="10.00" fill="#000000">boost/test/data/monomorphic.hpp</text>
</g>
<!-- Node0&#45;&gt;Node2 -->
<g id="edge2" class="edge">
<title>Node0&#45;&gt;Node2</title>
<path fill="none" stroke="#191970" d="M489.6787,-182.2645C423.0988,-168.8187 333.5156,-150.7274 275.8786,-139.0876"/>
<polygon fill="#191970" stroke="#191970" points="276.3491,-135.612 265.8541,-137.0632 274.9634,-142.4735 276.3491,-135.612"/>
</g>
<!-- Node3 -->
<g id="node4" class="node">
<title>Node3</title>
<polygon fill="none" stroke="#bfbfbf" points="318,-112.5 318,-142.5 461,-142.5 461,-112.5 318,-112.5"/>
<text text-anchor="start" x="326" y="-130.5" font-family="Helvetica,sans-Serif" font-size="10.00" fill="#000000">boost/test/data/monomorphic</text>
<text text-anchor="middle" x="389.5" y="-119.5" font-family="Helvetica,sans-Serif" font-size="10.00" fill="#000000">/generators/xrange.hpp</text>
</g>
<!-- Node0&#45;&gt;Node3 -->
<g id="edge3" class="edge">
<title>Node0&#45;&gt;Node3</title>
<path fill="none" stroke="#191970" d="M524.1296,-179.4183C497.0583,-168.9786 464.4198,-156.3919 438.0593,-146.2263"/>
<polygon fill="#191970" stroke="#191970" points="439.2432,-142.9317 428.6535,-142.5991 436.7244,-149.4629 439.2432,-142.9317"/>
</g>
<!-- Node4 -->
<g id="node5" class="node">
<title>Node4</title>
<polygon fill="none" stroke="#bfbfbf" points="479,-112.5 479,-142.5 580,-142.5 580,-112.5 479,-112.5"/>
<text text-anchor="start" x="487" y="-130.5" font-family="Helvetica,sans-Serif" font-size="10.00" fill="#000000">boost/test/data/test</text>
<text text-anchor="middle" x="529.5" y="-119.5" font-family="Helvetica,sans-Serif" font-size="10.00" fill="#000000">_case.hpp</text>
</g>
<!-- Node0&#45;&gt;Node4 -->
<g id="edge4" class="edge">
<title>Node0&#45;&gt;Node4</title>
<path fill="none" stroke="#191970" d="M563.8735,-179.4183C558.053,-170.627 551.2246,-160.3132 545.1942,-151.2047"/>
<polygon fill="#191970" stroke="#191970" points="547.9355,-149.0051 539.4966,-142.5991 542.0988,-152.8694 547.9355,-149.0051"/>
</g>
<!-- Node5 -->
<g id="node6" class="node">
<title>Node5</title>
<polygon fill="none" stroke="#bfbfbf" points="598.5,-118 598.5,-137 652.5,-137 652.5,-118 598.5,-118"/>
<text text-anchor="middle" x="625.5" y="-125" font-family="Helvetica,sans-Serif" font-size="10.00" fill="#000000">iostream</text>
</g>
<!-- Node0&#45;&gt;Node5 -->
<g id="edge5" class="edge">
<title>Node0&#45;&gt;Node5</title>
<path fill="none" stroke="#191970" d="M591.1265,-179.4183C598.1717,-168.7771 606.6937,-155.9053 613.4897,-145.6405"/>
<polygon fill="#191970" stroke="#191970" points="616.5517,-147.3557 619.1538,-137.0853 610.715,-143.4914 616.5517,-147.3557"/>
</g>
<!-- Node6 -->
<g id="node7" class="node">
<title>Node6</title>
<polygon fill="none" stroke="#bfbfbf" points="670.5,-118 670.5,-137 722.5,-137 722.5,-118 670.5,-118"/>
<text text-anchor="middle" x="696.5" y="-125" font-family="Helvetica,sans-Serif" font-size="10.00" fill="#000000">sstream</text>
</g>
<!-- Node0&#45;&gt;Node6 -->
<g id="edge6" class="edge">
<title>Node0&#45;&gt;Node6</title>
<path fill="none" stroke="#191970" d="M611.2823,-179.4183C630.7091,-167.5827 654.6651,-152.9877 672.225,-142.2894"/>
<polygon fill="#191970" stroke="#191970" points="674.0479,-145.2773 680.7668,-137.0853 670.4059,-139.2993 674.0479,-145.2773"/>
</g>
<!-- Node7 -->
<g id="node8" class="node">
<title>Node7</title>
<g id="a_node8"><a xlink:href="../../d3/d07/MUON_2MID_2Base_2include_2MIDBase_2Mapping_8h.html" target="_top" xlink:title="Mapping for MID. ">
<polygon fill="none" stroke="#000000" points="740.5,-118 740.5,-137 846.5,-137 846.5,-118 740.5,-118"/>
<text text-anchor="middle" x="793.5" y="-125" font-family="Helvetica,sans-Serif" font-size="10.00" fill="#000000">MIDBase/Mapping.h</text>
</a>
</g>
</g>
<!-- Node0&#45;&gt;Node7 -->
<g id="edge7" class="edge">
<title>Node0&#45;&gt;Node7</title>
<path fill="none" stroke="#191970" d="M638.8192,-179.4183C676.3457,-166.8226 723.1833,-151.1017 755.4297,-140.2782"/>
<polygon fill="#191970" stroke="#191970" points="756.5758,-143.5855 764.9423,-137.0853 754.3483,-136.9494 756.5758,-143.5855"/>
</g>
<!-- Node10 -->
<g id="node11" class="node">
<title>Node10</title>
<g id="a_node11"><a xlink:href="../../d7/d0a/MpArea_8h.html" target="_top" xlink:title="Mapping area for MID. ">
<polygon fill="none" stroke="#000000" points="831,-56.5 831,-75.5 934,-75.5 934,-56.5 831,-56.5"/>
<text text-anchor="middle" x="882.5" y="-63.5" font-family="Helvetica,sans-Serif" font-size="10.00" fill="#000000">MIDBase/MpArea.h</text>
</a>
</g>
</g>
<!-- Node0&#45;&gt;Node10 -->
<g id="edge12" class="edge">
<title>Node0&#45;&gt;Node10</title>
<path fill="none" stroke="#191970" d="M665.2987,-191.4477C735.7969,-182.9028 827.4831,-167.4682 855.5,-143 872.0332,-128.5609 878.4438,-103.3908 880.9287,-85.7704"/>
<polygon fill="#191970" stroke="#191970" points="884.4214,-86.0286 882.0429,-75.7042 877.4639,-85.2584 884.4214,-86.0286"/>
</g>
<!-- Node8 -->
<g id="node9" class="node">
<title>Node8</title>
<polygon fill="none" stroke="#bfbfbf" points="792.5,-.5 792.5,-19.5 830.5,-19.5 830.5,-.5 792.5,-.5"/>
<text text-anchor="middle" x="811.5" y="-7.5" font-family="Helvetica,sans-Serif" font-size="10.00" fill="#000000">array</text>
</g>
<!-- Node7&#45;&gt;Node8 -->
<g id="edge8" class="edge">
<title>Node7&#45;&gt;Node8</title>
<path fill="none" stroke="#191970" d="M783.1555,-117.8445C769.8137,-104.1608 749.4505,-78.3073 759.5,-56 765.0697,-43.6369 775.7863,-33.2563 786.0506,-25.5033"/>
<polygon fill="#191970" stroke="#191970" points="788.2618,-28.2277 794.4433,-19.623 784.2451,-22.4948 788.2618,-28.2277"/>
</g>
<!-- Node9 -->
<g id="node10" class="node">
<title>Node9</title>
<polygon fill="none" stroke="#bfbfbf" points="768.5,-56.5 768.5,-75.5 812.5,-75.5 812.5,-56.5 768.5,-56.5"/>
<text text-anchor="middle" x="790.5" y="-63.5" font-family="Helvetica,sans-Serif" font-size="10.00" fill="#000000">vector</text>
</g>
<!-- Node7&#45;&gt;Node9 -->
<g id="edge9" class="edge">
<title>Node7&#45;&gt;Node9</title>
<path fill="none" stroke="#191970" d="M793.0313,-117.8906C792.6154,-109.3657 791.9946,-96.6392 791.4719,-85.9235"/>
<polygon fill="#191970" stroke="#191970" points="794.9585,-85.5624 790.9754,-75.7449 787.9668,-85.9035 794.9585,-85.5624"/>
</g>
<!-- Node7&#45;&gt;Node10 -->
<g id="edge10" class="edge">
<title>Node7&#45;&gt;Node10</title>
<path fill="none" stroke="#191970" d="M807.4063,-117.8906C821.5138,-108.1421 843.5724,-92.8994 860.1385,-81.4521"/>
<polygon fill="#191970" stroke="#191970" points="862.4542,-84.1063 868.6914,-75.5419 858.4747,-78.3474 862.4542,-84.1063"/>
</g>
<!-- Node10&#45;&gt;Node8 -->
<g id="edge11" class="edge">
<title>Node10&#45;&gt;Node8</title>
<path fill="none" stroke="#191970" d="M870.1327,-56.2455C859.5446,-47.8943 844.0936,-35.7076 831.7107,-25.9408"/>
<polygon fill="#191970" stroke="#191970" points="833.7447,-23.0875 823.7255,-19.6427 829.4097,-28.5837 833.7447,-23.0875"/>
</g>
</g>
</svg>
