<?xml version="1.0" encoding="UTF-8" standalone="no"?>
<!DOCTYPE svg PUBLIC "-//W3C//DTD SVG 1.1//EN"
 "http://www.w3.org/Graphics/SVG/1.1/DTD/svg11.dtd">
<!-- Generated by graphviz version 2.40.1 (20161225.0304)
 -->
<!-- Title: /home/runner/work/AliceO2/AliceO2/Detectors/MUON/MCH/Contour/include/MCHContour/Polygon.h Pages: 1 -->
<!--zoomable 229 -->
<svg id="main" version="1.1" xmlns="http://www.w3.org/2000/svg" xmlns:xlink="http://www.w3.org/1999/xlink" xml:space="preserve" onload="init(evt)">
<style type="text/css"><![CDATA[
.edge:hover path { stroke: red; }
.edge:hover polygon { stroke: red; fill: red; }
]]></style>
<script type="text/javascript"><![CDATA[
var edges = document.getElementsByTagName('g');
if (edges && edges.length) {
  for (var i=0;i<edges.length;i++) {
    if (edges[i].id.substr(0,4)=='edge') {
      edges[i].setAttribute('class','edge');
    }
  }
}
]]></script>
        <defs>
                <circle id="rim" cx="0" cy="0" r="7"/>
                <circle id="rim2" cx="0" cy="0" r="3.5"/>
                <g id="zoomPlus">
                        <use xlink:href="#rim" fill="#404040">
                                <set attributeName="fill" to="#808080" begin="zoomplus.mouseover" end="zoomplus.mouseout"/>
                        </use>
                        <path d="M-4,0h8M0,-4v8" fill="none" stroke="white" stroke-width="1.5" pointer-events="none"/>
                </g>
                <g id="zoomMin">
                        <use xlink:href="#rim" fill="#404040">
                                <set attributeName="fill" to="#808080" begin="zoomminus.mouseover" end="zoomminus.mouseout"/>
                        </use>
                        <path d="M-4,0h8" fill="none" stroke="white" stroke-width="1.5" pointer-events="none"/>
                </g>
                <g id="dirArrow">
                        <path fill="none" stroke="white" stroke-width="1.5" d="M0,-3.0v7 M-2.5,-0.5L0,-3.0L2.5,-0.5"/>
                </g>
               <g id="resetDef">
                       <use xlink:href="#rim2" fill="#404040">
                               <set attributeName="fill" to="#808080" begin="reset.mouseover" end="reset.mouseout"/>
                       </use>
               </g>
        </defs>

<script type="text/javascript">
var viewWidth = 580;
var viewHeight = 229;
var sectionId = 'dynsection-0';
</script>
<script xlink:href="../../svgpan.js"/>
<svg id="graph" class="graph">
<g id="viewport">
<title>/home/runner/work/AliceO2/AliceO2/Detectors/MUON/MCH/Contour/include/MCHContour/Polygon.h</title>
<!-- Node0 -->
<g id="node1" class="node">
<title>Node0</title>
<polygon fill="#bfbfbf" stroke="#000000" points="124.2161,-168.5 124.2161,-220.5 299.2161,-220.5 299.2161,-168.5 124.2161,-168.5"/>
<text text-anchor="start" x="132.2161" y="-208.5" font-family="Helvetica,sans-Serif" font-size="10.00" fill="#000000">/home/runner/work/AliceO2</text>
<text text-anchor="start" x="132.2161" y="-197.5" font-family="Helvetica,sans-Serif" font-size="10.00" fill="#000000">/AliceO2/Detectors/MUON</text>
<text text-anchor="start" x="132.2161" y="-186.5" font-family="Helvetica,sans-Serif" font-size="10.00" fill="#000000">/MCH/Contour/include/MCHContour</text>
<text text-anchor="middle" x="211.7161" y="-175.5" font-family="Helvetica,sans-Serif" font-size="10.00" fill="#000000">/Polygon.h</text>
</g>
<!-- Node1 -->
<g id="node2" class="node">
<title>Node1</title>
<polygon fill="none" stroke="#bfbfbf" points="95.7161,-56.5 95.7161,-75.5 149.7161,-75.5 149.7161,-56.5 95.7161,-56.5"/>
<text text-anchor="middle" x="122.7161" y="-63.5" font-family="Helvetica,sans-Serif" font-size="10.00" fill="#000000">iostream</text>
</g>
<!-- Node0&#45;&gt;Node1 -->
<g id="edge1" class="edge">
<title>Node0&#45;&gt;Node1</title>
<path fill="none" stroke="#191970" d="M124.164,-178.7213C74.9252,-167.871 20.4373,-151.8503 5.7161,-132 -18.2056,-99.7438 42.9897,-81.02 85.6193,-72.2177"/>
<polygon fill="#191970" stroke="#191970" points="86.3198,-75.6471 95.4606,-70.2902 84.9743,-68.7776 86.3198,-75.6471"/>
</g>
<!-- Node2 -->
<g id="node3" class="node">
<title>Node2</title>
<polygon fill="none" stroke="#bfbfbf" points="14.7161,-112.5 14.7161,-131.5 54.7161,-131.5 54.7161,-112.5 14.7161,-112.5"/>
<text text-anchor="middle" x="34.7161" y="-119.5" font-family="Helvetica,sans-Serif" font-size="10.00" fill="#000000">utility</text>
</g>
<!-- Node0&#45;&gt;Node2 -->
<g id="edge2" class="edge">
<title>Node0&#45;&gt;Node2</title>
<path fill="none" stroke="#191970" d="M147.815,-168.3258C119.3499,-156.6664 87.1967,-143.4963 64.4696,-134.1872"/>
<polygon fill="#191970" stroke="#191970" points="65.6223,-130.8771 55.0418,-130.3255 62.9689,-137.3548 65.6223,-130.8771"/>
</g>
<!-- Node3 -->
<g id="node4" class="node">
<title>Node3</title>
<polygon fill="none" stroke="#bfbfbf" points="72.7161,-112.5 72.7161,-131.5 116.7161,-131.5 116.7161,-112.5 72.7161,-112.5"/>
<text text-anchor="middle" x="94.7161" y="-119.5" font-family="Helvetica,sans-Serif" font-size="10.00" fill="#000000">vector</text>
</g>
<!-- Node0&#45;&gt;Node3 -->
<g id="edge3" class="edge">
<title>Node0&#45;&gt;Node3</title>
<path fill="none" stroke="#191970" d="M169.4764,-168.3258C152.5091,-157.8119 133.5594,-146.0696 118.9838,-137.0377"/>
<polygon fill="#191970" stroke="#191970" points="120.4459,-133.8262 110.102,-131.534 116.7587,-139.7765 120.4459,-133.8262"/>
</g>
<!-- Node4 -->
<g id="node5" class="node">
<title>Node4</title>
<polygon fill="none" stroke="#bfbfbf" points="135.2161,-112.5 135.2161,-131.5 208.2161,-131.5 208.2161,-112.5 135.2161,-112.5"/>
<text text-anchor="middle" x="171.7161" y="-119.5" font-family="Helvetica,sans-Serif" font-size="10.00" fill="#000000">initializer_list</text>
</g>
<!-- Node0&#45;&gt;Node4 -->
<g id="edge4" class="edge">
<title>Node0&#45;&gt;Node4</title>
<path fill="none" stroke="#191970" d="M197.2751,-168.3258C192.1926,-159.1136 186.5896,-148.9584 181.9282,-140.5096"/>
<polygon fill="#191970" stroke="#191970" points="184.8716,-138.599 176.9762,-131.534 178.7425,-141.9806 184.8716,-138.599"/>
</g>
<!-- Node5 -->
<g id="node6" class="node">
<title>Node5</title>
<polygon fill="none" stroke="#bfbfbf" points="226.7161,-112.5 226.7161,-131.5 278.7161,-131.5 278.7161,-112.5 226.7161,-112.5"/>
<text text-anchor="middle" x="252.7161" y="-119.5" font-family="Helvetica,sans-Serif" font-size="10.00" fill="#000000">sstream</text>
</g>
<!-- Node0&#45;&gt;Node5 -->
<g id="edge5" class="edge">
<title>Node0&#45;&gt;Node5</title>
<path fill="none" stroke="#191970" d="M226.518,-168.3258C231.7277,-159.1136 237.4706,-148.9584 242.2486,-140.5096"/>
<polygon fill="#191970" stroke="#191970" points="245.4484,-141.9614 247.3244,-131.534 239.3552,-138.5156 245.4484,-141.9614"/>
</g>
<!-- Node6 -->
<g id="node7" class="node">
<title>Node6</title>
<polygon fill="none" stroke="#bfbfbf" points="296.7161,-112.5 296.7161,-131.5 352.7161,-131.5 352.7161,-112.5 296.7161,-112.5"/>
<text text-anchor="middle" x="324.7161" y="-119.5" font-family="Helvetica,sans-Serif" font-size="10.00" fill="#000000">algorithm</text>
</g>
<!-- Node0&#45;&gt;Node6 -->
<g id="edge6" class="edge">
<title>Node0&#45;&gt;Node6</title>
<path fill="none" stroke="#191970" d="M252.5117,-168.3258C268.8989,-157.8119 287.2007,-146.0696 301.278,-137.0377"/>
<polygon fill="#191970" stroke="#191970" points="303.3296,-139.8799 309.8562,-131.534 299.5495,-133.9883 303.3296,-139.8799"/>
</g>
<!-- Node7 -->
<g id="node8" class="node">
<title>Node7</title>
<g id="a_node8"><a xlink:href="../../d0/ddc/BBox_8h.html" target="_top" xlink:title="BBox.h">
<polygon fill="none" stroke="#000000" points="445.2161,-112.5 445.2161,-131.5 494.2161,-131.5 494.2161,-112.5 445.2161,-112.5"/>
<text text-anchor="middle" x="469.7161" y="-119.5" font-family="Helvetica,sans-Serif" font-size="10.00" fill="#000000">BBox.h</text>
</a>
</g>
</g>
<!-- Node0&#45;&gt;Node7 -->
<g id="edge7" class="edge">
<title>Node0&#45;&gt;Node7</title>
<path fill="none" stroke="#191970" d="M299.4231,-169.8536C345.8913,-156.7957 400.3508,-141.4922 434.9359,-131.7735"/>
<polygon fill="#191970" stroke="#191970" points="436.3201,-135.0202 445.0003,-128.9453 434.4263,-128.2812 436.3201,-135.0202"/>
</g>
<!-- Node14 -->
<g id="node15" class="node">
<title>Node14</title>
<g id="a_node15"><a xlink:href="../../dd/dbc/Detectors_2MUON_2MCH_2Contour_2include_2MCHContour_2Vertex_8h.html" target="_top" xlink:title="Vertex.h">
<polygon fill="none" stroke="#000000" points="371.2161,-112.5 371.2161,-131.5 424.2161,-131.5 424.2161,-112.5 371.2161,-112.5"/>
<text text-anchor="middle" x="397.7161" y="-119.5" font-family="Helvetica,sans-Serif" font-size="10.00" fill="#000000">Vertex.h</text>
</a>
</g>
</g>
<!-- Node0&#45;&gt;Node14 -->
<g id="edge14" class="edge">
<title>Node0&#45;&gt;Node14</title>
<path fill="none" stroke="#191970" d="M278.6036,-168.4283C307.4008,-157.2035 339.833,-144.5619 363.5756,-135.3074"/>
<polygon fill="#191970" stroke="#191970" points="365.137,-138.4554 373.1831,-131.5626 362.5947,-131.9333 365.137,-138.4554"/>
</g>
<!-- Node8 -->
<g id="node9" class="node">
<title>Node8</title>
<g id="a_node9"><a xlink:href="../../d2/dc4/Helper_8h.html" target="_top" xlink:title="Helper.h">
<polygon fill="none" stroke="#000000" points="371.2161,-56.5 371.2161,-75.5 424.2161,-75.5 424.2161,-56.5 371.2161,-56.5"/>
<text text-anchor="middle" x="397.7161" y="-63.5" font-family="Helvetica,sans-Serif" font-size="10.00" fill="#000000">Helper.h</text>
</a>
</g>
</g>
<!-- Node7&#45;&gt;Node8 -->
<g id="edge8" class="edge">
<title>Node7&#45;&gt;Node8</title>
<path fill="none" stroke="#191970" d="M457.1746,-112.2455C446.4373,-103.8943 430.7687,-91.7076 418.2114,-81.9408"/>
<polygon fill="#191970" stroke="#191970" points="420.1561,-79.0194 410.1138,-75.6427 415.8585,-84.5449 420.1561,-79.0194"/>
</g>
<!-- Node12 -->
<g id="node13" class="node">
<title>Node12</title>
<polygon fill="none" stroke="#bfbfbf" points="442.2161,-56.5 442.2161,-75.5 501.2161,-75.5 501.2161,-56.5 442.2161,-56.5"/>
<text text-anchor="middle" x="471.7161" y="-63.5" font-family="Helvetica,sans-Serif" font-size="10.00" fill="#000000">stdexcept</text>
</g>
<!-- Node7&#45;&gt;Node12 -->
<g id="edge12" class="edge">
<title>Node7&#45;&gt;Node12</title>
<path fill="none" stroke="#191970" d="M470.0644,-112.2455C470.3254,-104.9382 470.6913,-94.6944 471.0123,-85.7046"/>
<polygon fill="#191970" stroke="#191970" points="474.5124,-85.7613 471.3717,-75.6427 467.5169,-85.5113 474.5124,-85.7613"/>
</g>
<!-- Node13 -->
<g id="node14" class="node">
<title>Node13</title>
<polygon fill="none" stroke="#bfbfbf" points="519.7161,-56.5 519.7161,-75.5 571.7161,-75.5 571.7161,-56.5 519.7161,-56.5"/>
<text text-anchor="middle" x="545.7161" y="-63.5" font-family="Helvetica,sans-Serif" font-size="10.00" fill="#000000">ostream</text>
</g>
<!-- Node7&#45;&gt;Node13 -->
<g id="edge13" class="edge">
<title>Node7&#45;&gt;Node13</title>
<path fill="none" stroke="#191970" d="M482.9543,-112.2455C494.397,-103.814 511.1457,-91.4729 524.4635,-81.6598"/>
<polygon fill="#191970" stroke="#191970" points="526.6552,-84.3924 532.6296,-75.6427 522.5028,-78.757 526.6552,-84.3924"/>
</g>
<!-- Node9 -->
<g id="node10" class="node">
<title>Node9</title>
<polygon fill="none" stroke="#bfbfbf" points="315.7161,-.5 315.7161,-19.5 359.7161,-19.5 359.7161,-.5 315.7161,-.5"/>
<text text-anchor="middle" x="337.7161" y="-7.5" font-family="Helvetica,sans-Serif" font-size="10.00" fill="#000000">cmath</text>
</g>
<!-- Node8&#45;&gt;Node9 -->
<g id="edge9" class="edge">
<title>Node8&#45;&gt;Node9</title>
<path fill="none" stroke="#191970" d="M387.2649,-56.2455C378.4892,-48.0549 365.7606,-36.1749 355.4021,-26.5069"/>
<polygon fill="#191970" stroke="#191970" points="357.7462,-23.9072 348.0475,-19.6427 352.97,-29.0246 357.7462,-23.9072"/>
</g>
<!-- Node10 -->
<g id="node11" class="node">
<title>Node10</title>
<polygon fill="none" stroke="#bfbfbf" points="377.7161,-.5 377.7161,-19.5 417.7161,-19.5 417.7161,-.5 377.7161,-.5"/>
<text text-anchor="middle" x="397.7161" y="-7.5" font-family="Helvetica,sans-Serif" font-size="10.00" fill="#000000">limits</text>
</g>
<!-- Node8&#45;&gt;Node10 -->
<g id="edge10" class="edge">
<title>Node8&#45;&gt;Node10</title>
<path fill="none" stroke="#191970" d="M397.7161,-56.2455C397.7161,-48.9382 397.7161,-38.6944 397.7161,-29.7046"/>
<polygon fill="#191970" stroke="#191970" points="401.2162,-29.6426 397.7161,-19.6427 394.2162,-29.6427 401.2162,-29.6426"/>
</g>
<!-- Node11 -->
<g id="node12" class="node">
<title>Node11</title>
<polygon fill="none" stroke="#bfbfbf" points="435.7161,-.5 435.7161,-19.5 481.7161,-19.5 481.7161,-.5 435.7161,-.5"/>
<text text-anchor="middle" x="458.7161" y="-7.5" font-family="Helvetica,sans-Serif" font-size="10.00" fill="#000000">cstdint</text>
</g>
<!-- Node8&#45;&gt;Node11 -->
<g id="edge11" class="edge">
<title>Node8&#45;&gt;Node11</title>
<path fill="none" stroke="#191970" d="M408.3415,-56.2455C417.2634,-48.0549 430.2041,-36.1749 440.7353,-26.5069"/>
<polygon fill="#191970" stroke="#191970" points="443.2128,-28.9837 448.2124,-19.6427 438.4789,-23.8271 443.2128,-28.9837"/>
</g>
<!-- Node14&#45;&gt;Node1 -->
<g id="edge15" class="edge">
<title>Node14&#45;&gt;Node1</title>
<path fill="none" stroke="#191970" d="M371.0415,-114.3319C367.9074,-113.5077 364.7473,-112.7115 361.7161,-112 290.7731,-95.3484 206.9505,-80.2562 159.7965,-72.1792"/>
<polygon fill="#191970" stroke="#191970" points="160.1938,-68.6966 149.7483,-70.4693 159.0194,-75.5974 160.1938,-68.6966"/>
</g>
<!-- Node14&#45;&gt;Node8 -->
<g id="edge17" class="edge">
<title>Node14&#45;&gt;Node8</title>
<path fill="none" stroke="#191970" d="M397.7161,-112.2455C397.7161,-104.9382 397.7161,-94.6944 397.7161,-85.7046"/>
<polygon fill="#191970" stroke="#191970" points="401.2162,-85.6426 397.7161,-75.6427 394.2162,-85.6427 401.2162,-85.6426"/>
</g>
<!-- Node15 -->
<g id="node16" class="node">
<title>Node15</title>
<polygon fill="none" stroke="#bfbfbf" points="302.7161,-56.5 302.7161,-75.5 352.7161,-75.5 352.7161,-56.5 302.7161,-56.5"/>
<text text-anchor="middle" x="327.7161" y="-63.5" font-family="Helvetica,sans-Serif" font-size="10.00" fill="#000000">iomanip</text>
</g>
<!-- Node14&#45;&gt;Node15 -->
<g id="edge16" class="edge">
<title>Node14&#45;&gt;Node15</title>
<path fill="none" stroke="#191970" d="M385.523,-112.2455C375.084,-103.8943 359.8506,-91.7076 347.6421,-81.9408"/>
<polygon fill="#191970" stroke="#191970" points="349.7646,-79.1566 339.7694,-75.6427 345.3917,-84.6227 349.7646,-79.1566"/>
</g>
</g>
</svg>
        <g id="navigator" transform="translate(0 0)" fill="#404254">
                <rect fill="#f2f5e9" fill-opacity="0.5" stroke="#606060" stroke-width=".5" x="0" y="0" width="60" height="60"/>
                <use id="zoomplus" xlink:href="#zoomPlus" x="17" y="9" onmousedown="handleZoom(evt,'in')"/>
                <use id="zoomminus" xlink:href="#zoomMin" x="42" y="9" onmousedown="handleZoom(evt,'out')"/>
                <use id="reset" xlink:href="#resetDef" x="30" y="36" onmousedown="handleReset()"/>
                <g id="arrowUp" xlink:href="#dirArrow" transform="translate(30 24)" onmousedown="handlePan(0,-1)">
                  <use xlink:href="#rim" fill="#404040">
                        <set attributeName="fill" to="#808080" begin="arrowUp.mouseover" end="arrowUp.mouseout"/>
                  </use>
                  <path fill="none" stroke="white" stroke-width="1.5" d="M0,-3.0v7 M-2.5,-0.5L0,-3.0L2.5,-0.5"/>
                </g>
                <g id="arrowRight" xlink:href="#dirArrow" transform="rotate(90) translate(36 -43)" onmousedown="handlePan(1,0)">
                  <use xlink:href="#rim" fill="#404040">
                        <set attributeName="fill" to="#808080" begin="arrowRight.mouseover" end="arrowRight.mouseout"/>
                  </use>
                  <path fill="none" stroke="white" stroke-width="1.5" d="M0,-3.0v7 M-2.5,-0.5L0,-3.0L2.5,-0.5"/>
                </g>
                <g id="arrowDown" xlink:href="#dirArrow" transform="rotate(180) translate(-30 -48)" onmousedown="handlePan(0,1)">
                  <use xlink:href="#rim" fill="#404040">
                        <set attributeName="fill" to="#808080" begin="arrowDown.mouseover" end="arrowDown.mouseout"/>
                  </use>
                  <path fill="none" stroke="white" stroke-width="1.5" d="M0,-3.0v7 M-2.5,-0.5L0,-3.0L2.5,-0.5"/>
                </g>
                <g id="arrowLeft" xlink:href="#dirArrow" transform="rotate(270) translate(-36 17)" onmousedown="handlePan(-1,0)">
                  <use xlink:href="#rim" fill="#404040">
                        <set attributeName="fill" to="#808080" begin="arrowLeft.mouseover" end="arrowLeft.mouseout"/>
                  </use>
                  <path fill="none" stroke="white" stroke-width="1.5" d="M0,-3.0v7 M-2.5,-0.5L0,-3.0L2.5,-0.5"/>
                </g>
        </g>
        <svg viewBox="0 0 15 15" width="100%" height="30px" preserveAspectRatio="xMaxYMin meet">
         <g id="arrow_out" transform="scale(0.3 0.3)">
          <a xlink:href="Polygon_8h__incl_org.svg" target="_base">
           <rect id="button" ry="5" rx="5" y="6" x="6" height="38" width="38"
                fill="#f2f5e9" fill-opacity="0.5" stroke="#606060" stroke-width="1.0"/>
           <path id="arrow"
             d="M 11.500037,31.436501 C 11.940474,20.09759 22.043105,11.32322 32.158766,21.979434 L 37.068811,17.246167 C 37.068811,17.246167 37.088388,32 37.088388,32 L 22.160133,31.978069 C 22.160133,31.978069 26.997745,27.140456 26.997745,27.140456 C 18.528582,18.264221 13.291696,25.230495 11.500037,31.436501 z"
             style="fill:#404040;"/>
          </a>
         </g>
        </svg>
</svg>
