<?xml version="1.0" encoding="UTF-8" standalone="no"?>
<!DOCTYPE svg PUBLIC "-//W3C//DTD SVG 1.1//EN"
 "http://www.w3.org/Graphics/SVG/1.1/DTD/svg11.dtd">
<!-- Generated by graphviz version 2.40.1 (20161225.0304)
 -->
<!-- Title: o2::tof::WindowFiller Pages: 1 -->
<!--zoomable 1272 -->
<svg id="main" version="1.1" xmlns="http://www.w3.org/2000/svg" xmlns:xlink="http://www.w3.org/1999/xlink" xml:space="preserve" onload="init(evt)">
<style type="text/css"><![CDATA[
.edge:hover path { stroke: red; }
.edge:hover polygon { stroke: red; fill: red; }
]]></style>
<script type="text/javascript"><![CDATA[
var edges = document.getElementsByTagName('g');
if (edges && edges.length) {
  for (var i=0;i<edges.length;i++) {
    if (edges[i].id.substr(0,4)=='edge') {
      edges[i].setAttribute('class','edge');
    }
  }
}
]]></script>
        <defs>
                <circle id="rim" cx="0" cy="0" r="7"/>
                <circle id="rim2" cx="0" cy="0" r="3.5"/>
                <g id="zoomPlus">
                        <use xlink:href="#rim" fill="#404040">
                                <set attributeName="fill" to="#808080" begin="zoomplus.mouseover" end="zoomplus.mouseout"/>
                        </use>
                        <path d="M-4,0h8M0,-4v8" fill="none" stroke="white" stroke-width="1.5" pointer-events="none"/>
                </g>
                <g id="zoomMin">
                        <use xlink:href="#rim" fill="#404040">
                                <set attributeName="fill" to="#808080" begin="zoomminus.mouseover" end="zoomminus.mouseout"/>
                        </use>
                        <path d="M-4,0h8" fill="none" stroke="white" stroke-width="1.5" pointer-events="none"/>
                </g>
                <g id="dirArrow">
                        <path fill="none" stroke="white" stroke-width="1.5" d="M0,-3.0v7 M-2.5,-0.5L0,-3.0L2.5,-0.5"/>
                </g>
               <g id="resetDef">
                       <use xlink:href="#rim2" fill="#404040">
                               <set attributeName="fill" to="#808080" begin="reset.mouseover" end="reset.mouseout"/>
                       </use>
               </g>
        </defs>

<script type="text/javascript">
var viewWidth = 1867;
var viewHeight = 1272;
var sectionId = 'dynsection-1';
</script>
<script xlink:href="../../svgpan.js"/>
<svg id="graph" class="graph">
<g id="viewport">
<title>o2::tof::WindowFiller</title>
<!-- Node3 -->
<g id="node1" class="node">
<title>Node3</title>
<polygon fill="#bfbfbf" stroke="#000000" points="870.5,-.5 870.5,-354.5 1040.5,-354.5 1040.5,-.5 870.5,-.5"/>
<text text-anchor="middle" x="955.5" y="-342.5" font-family="Helvetica,sans-Serif" font-size="10.00" fill="#000000">o2::tof::WindowFiller</text>
<polyline fill="none" stroke="#000000" points="870.5,-335.5 1040.5,-335.5 "/>
<text text-anchor="middle" x="955.5" y="-323.5" font-family="Helvetica,sans-Serif" font-size="10.00" fill="#000000"> </text>
<polyline fill="none" stroke="#000000" points="870.5,-316.5 1040.5,-316.5 "/>
<text text-anchor="start" x="878.5" y="-304.5" font-family="Helvetica,sans-Serif" font-size="10.00" fill="#000000">+ WindowFiller()</text>
<text text-anchor="start" x="878.5" y="-293.5" font-family="Helvetica,sans-Serif" font-size="10.00" fill="#000000">+ ~WindowFiller()</text>
<text text-anchor="start" x="878.5" y="-282.5" font-family="Helvetica,sans-Serif" font-size="10.00" fill="#000000">+ initObj()</text>
<text text-anchor="start" x="878.5" y="-271.5" font-family="Helvetica,sans-Serif" font-size="10.00" fill="#000000">+ reset()</text>
<text text-anchor="start" x="878.5" y="-260.5" font-family="Helvetica,sans-Serif" font-size="10.00" fill="#000000">+ getCurrentReadoutWindow()</text>
<text text-anchor="start" x="878.5" y="-249.5" font-family="Helvetica,sans-Serif" font-size="10.00" fill="#000000">+ setCurrentReadoutWindow()</text>
<text text-anchor="start" x="878.5" y="-238.5" font-family="Helvetica,sans-Serif" font-size="10.00" fill="#000000">+ setEventTime()</text>
<text text-anchor="start" x="878.5" y="-227.5" font-family="Helvetica,sans-Serif" font-size="10.00" fill="#000000">+ getDigitPerTimeFrame()</text>
<text text-anchor="start" x="878.5" y="-216.5" font-family="Helvetica,sans-Serif" font-size="10.00" fill="#000000">+ getReadoutWindowData()</text>
<text text-anchor="start" x="878.5" y="-205.5" font-family="Helvetica,sans-Serif" font-size="10.00" fill="#000000">+ getReadoutWindowDataFiltered()</text>
<text text-anchor="start" x="878.5" y="-194.5" font-family="Helvetica,sans-Serif" font-size="10.00" fill="#000000">+ getDigitHeader()</text>
<text text-anchor="start" x="878.5" y="-183.5" font-family="Helvetica,sans-Serif" font-size="10.00" fill="#000000">+ fillOutputContainer()</text>
<text text-anchor="start" x="878.5" y="-172.5" font-family="Helvetica,sans-Serif" font-size="10.00" fill="#000000">+ flushOutputContainer()</text>
<text text-anchor="start" x="878.5" y="-161.5" font-family="Helvetica,sans-Serif" font-size="10.00" fill="#000000">+ setContinuous()</text>
<text text-anchor="start" x="878.5" y="-150.5" font-family="Helvetica,sans-Serif" font-size="10.00" fill="#000000">+ isContinuous()</text>
<text text-anchor="start" x="878.5" y="-139.5" font-family="Helvetica,sans-Serif" font-size="10.00" fill="#000000">+ resizeVectorFutureDigit()</text>
<text text-anchor="start" x="878.5" y="-128.5" font-family="Helvetica,sans-Serif" font-size="10.00" fill="#000000">+ setFirstIR()</text>
<text text-anchor="start" x="878.5" y="-117.5" font-family="Helvetica,sans-Serif" font-size="10.00" fill="#000000">+ maskNoiseRate()</text>
<text text-anchor="start" x="878.5" y="-106.5" font-family="Helvetica,sans-Serif" font-size="10.00" fill="#000000">+ clearCounts()</text>
<text text-anchor="start" x="878.5" y="-95.5" font-family="Helvetica,sans-Serif" font-size="10.00" fill="#000000">+ getPatterns()</text>
<text text-anchor="start" x="878.5" y="-84.5" font-family="Helvetica,sans-Serif" font-size="10.00" fill="#000000">+ addPattern()</text>
<text text-anchor="start" x="878.5" y="-73.5" font-family="Helvetica,sans-Serif" font-size="10.00" fill="#000000">+ addCrateHeaderData()</text>
<text text-anchor="start" x="878.5" y="-62.5" font-family="Helvetica,sans-Serif" font-size="10.00" fill="#000000"># fillDigitsInStrip()</text>
<text text-anchor="start" x="878.5" y="-51.5" font-family="Helvetica,sans-Serif" font-size="10.00" fill="#000000"># checkIfReuseFutureDigits()</text>
<text text-anchor="start" x="878.5" y="-40.5" font-family="Helvetica,sans-Serif" font-size="10.00" fill="#000000"># checkIfReuseFutureDigitsRO()</text>
<text text-anchor="start" x="878.5" y="-29.5" font-family="Helvetica,sans-Serif" font-size="10.00" fill="#000000"># insertDigitInFuture()</text>
<text text-anchor="start" x="878.5" y="-18.5" font-family="Helvetica,sans-Serif" font-size="10.00" fill="#000000"># isMergable()</text>
<text text-anchor="start" x="878.5" y="-7.5" font-family="Helvetica,sans-Serif" font-size="10.00" fill="#000000"># ClassDefNV()</text>
</g>
<!-- Node4 -->
<g id="node2" class="node">
<title>Node4</title>
<polygon fill="none" stroke="#bfbfbf" points="0,-490.5 0,-558.5 143,-558.5 143,-490.5 0,-490.5"/>
<text text-anchor="start" x="8" y="-546.5" font-family="Helvetica,sans-Serif" font-size="10.00" fill="#000000">vector&lt; o2::tof::WindowFiller</text>
<text text-anchor="middle" x="71.5" y="-535.5" font-family="Helvetica,sans-Serif" font-size="10.00" fill="#000000">::CrateHeaderData &gt;</text>
<polyline fill="none" stroke="#bfbfbf" points="0,-528.5 143,-528.5 "/>
<text text-anchor="middle" x="71.5" y="-516.5" font-family="Helvetica,sans-Serif" font-size="10.00" fill="#000000"> </text>
<polyline fill="none" stroke="#bfbfbf" points="0,-509.5 143,-509.5 "/>
<text text-anchor="middle" x="71.5" y="-497.5" font-family="Helvetica,sans-Serif" font-size="10.00" fill="#000000"> </text>
</g>
<!-- Node4&#45;&gt;Node3 -->
<g id="edge1" class="edge">
<title>Node4&#45;&gt;Node3</title>
<path fill="none" stroke="#404040" d="M87.7603,-490.4155C106.3547,-455.286 140.1791,-401.7191 185.5,-373 400.0224,-237.0607 704.3185,-195.5335 858.2523,-182.9311"/>
<polygon fill="none" stroke="#404040" points="858.4601,-182.9148 864.1264,-178.4546 870.4229,-181.9696 864.7566,-186.4298 858.4601,-182.9148"/>
<text text-anchor="middle" x="232.5" y="-381.5" font-family="Helvetica,sans-Serif" font-size="10.00" fill="#000000"> #mCrateHeaderData</text>
</g>
<!-- Node5 -->
<g id="node3" class="node">
<title>Node5</title>
<polygon fill="none" stroke="#bfbfbf" points="161.5,-496 161.5,-553 283.5,-553 283.5,-496 161.5,-496"/>
<text text-anchor="middle" x="222.5" y="-541" font-family="Helvetica,sans-Serif" font-size="10.00" fill="#000000">vector&lt; o2::tof::Strip &gt; *</text>
<polyline fill="none" stroke="#bfbfbf" points="161.5,-534 283.5,-534 "/>
<text text-anchor="middle" x="222.5" y="-522" font-family="Helvetica,sans-Serif" font-size="10.00" fill="#000000"> </text>
<polyline fill="none" stroke="#bfbfbf" points="161.5,-515 283.5,-515 "/>
<text text-anchor="middle" x="222.5" y="-503" font-family="Helvetica,sans-Serif" font-size="10.00" fill="#000000"> </text>
</g>
<!-- Node5&#45;&gt;Node3 -->
<g id="edge2" class="edge">
<title>Node5&#45;&gt;Node3</title>
<path fill="none" stroke="#404040" d="M230.1994,-495.8659C240.8433,-461.7103 263.3207,-405.1998 302.5,-373 466.1265,-238.5224 720.1269,-196.5225 858.1633,-183.4227"/>
<polygon fill="none" stroke="#404040" points="858.3885,-183.4023 864.0009,-178.8745 870.339,-182.3138 864.7266,-186.8416 858.3885,-183.4023"/>
<text text-anchor="middle" x="338.5" y="-387" font-family="Helvetica,sans-Serif" font-size="10.00" fill="#000000"> #mStripsNext</text>
<text text-anchor="middle" x="338.5" y="-376" font-family="Helvetica,sans-Serif" font-size="10.00" fill="#000000">#mStripsCurrent</text>
</g>
<!-- Node6 -->
<g id="node4" class="node">
<title>Node6</title>
<g id="a_node4"><a xlink:href="../../d1/d21/structo2_1_1InteractionRecord.html" target="_top" xlink:title="{o2::InteractionRecord\n||+ InteractionRecord()\l+ InteractionRecord()\l+ InteractionRecord()\l+ InteractionRecord()\l+ clear()\l+ isDummy()\l+ setFromNS()\l+ bc2ns()\l+ operator==()\l+ operator!=()\l+ differenceInBC()\l+ differenceInBCNS()\l+ differenceInBCMS()\l+ toLong()\l+ setFromLong()\l+ operator\&gt;()\l+ operator\&gt;=()\l+ operator\&lt;()\l+ operator\&lt;=()\l+ operator&#45;&#45;()\l+ operator&#45;&#45;()\l+ operator++()\l+ operator++()\l+ operator+=()\l+ operator&#45;=()\l+ operator+=()\l+ operator&#45;=()\l+ operator+()\l+ operator&#45;()\l+ operator+()\l+ operator&#45;()\l+ print()\l+ asString()\l+ ClassDefNV()\l+ bc2ns()\l+ ns2bc()\l}">
<polygon fill="none" stroke="#000000" points="413.5,-705.5 413.5,-1147.5 525.5,-1147.5 525.5,-705.5 413.5,-705.5"/>
<text text-anchor="middle" x="469.5" y="-1135.5" font-family="Helvetica,sans-Serif" font-size="10.00" fill="#000000">o2::InteractionRecord</text>
<polyline fill="none" stroke="#000000" points="413.5,-1128.5 525.5,-1128.5 "/>
<text text-anchor="middle" x="469.5" y="-1116.5" font-family="Helvetica,sans-Serif" font-size="10.00" fill="#000000"> </text>
<polyline fill="none" stroke="#000000" points="413.5,-1109.5 525.5,-1109.5 "/>
<text text-anchor="start" x="421.5" y="-1097.5" font-family="Helvetica,sans-Serif" font-size="10.00" fill="#000000">+ InteractionRecord()</text>
<text text-anchor="start" x="421.5" y="-1086.5" font-family="Helvetica,sans-Serif" font-size="10.00" fill="#000000">+ InteractionRecord()</text>
<text text-anchor="start" x="421.5" y="-1075.5" font-family="Helvetica,sans-Serif" font-size="10.00" fill="#000000">+ InteractionRecord()</text>
<text text-anchor="start" x="421.5" y="-1064.5" font-family="Helvetica,sans-Serif" font-size="10.00" fill="#000000">+ InteractionRecord()</text>
<text text-anchor="start" x="421.5" y="-1053.5" font-family="Helvetica,sans-Serif" font-size="10.00" fill="#000000">+ clear()</text>
<text text-anchor="start" x="421.5" y="-1042.5" font-family="Helvetica,sans-Serif" font-size="10.00" fill="#000000">+ isDummy()</text>
<text text-anchor="start" x="421.5" y="-1031.5" font-family="Helvetica,sans-Serif" font-size="10.00" fill="#000000">+ setFromNS()</text>
<text text-anchor="start" x="421.5" y="-1020.5" font-family="Helvetica,sans-Serif" font-size="10.00" fill="#000000">+ bc2ns()</text>
<text text-anchor="start" x="421.5" y="-1009.5" font-family="Helvetica,sans-Serif" font-size="10.00" fill="#000000">+ operator==()</text>
<text text-anchor="start" x="421.5" y="-998.5" font-family="Helvetica,sans-Serif" font-size="10.00" fill="#000000">+ operator!=()</text>
<text text-anchor="start" x="421.5" y="-987.5" font-family="Helvetica,sans-Serif" font-size="10.00" fill="#000000">+ differenceInBC()</text>
<text text-anchor="start" x="421.5" y="-976.5" font-family="Helvetica,sans-Serif" font-size="10.00" fill="#000000">+ differenceInBCNS()</text>
<text text-anchor="start" x="421.5" y="-965.5" font-family="Helvetica,sans-Serif" font-size="10.00" fill="#000000">+ differenceInBCMS()</text>
<text text-anchor="start" x="421.5" y="-954.5" font-family="Helvetica,sans-Serif" font-size="10.00" fill="#000000">+ toLong()</text>
<text text-anchor="start" x="421.5" y="-943.5" font-family="Helvetica,sans-Serif" font-size="10.00" fill="#000000">+ setFromLong()</text>
<text text-anchor="start" x="421.5" y="-932.5" font-family="Helvetica,sans-Serif" font-size="10.00" fill="#000000">+ operator&gt;()</text>
<text text-anchor="start" x="421.5" y="-921.5" font-family="Helvetica,sans-Serif" font-size="10.00" fill="#000000">+ operator&gt;=()</text>
<text text-anchor="start" x="421.5" y="-910.5" font-family="Helvetica,sans-Serif" font-size="10.00" fill="#000000">+ operator&lt;()</text>
<text text-anchor="start" x="421.5" y="-899.5" font-family="Helvetica,sans-Serif" font-size="10.00" fill="#000000">+ operator&lt;=()</text>
<text text-anchor="start" x="421.5" y="-888.5" font-family="Helvetica,sans-Serif" font-size="10.00" fill="#000000">+ operator&#45;&#45;()</text>
<text text-anchor="start" x="421.5" y="-877.5" font-family="Helvetica,sans-Serif" font-size="10.00" fill="#000000">+ operator&#45;&#45;()</text>
<text text-anchor="start" x="421.5" y="-866.5" font-family="Helvetica,sans-Serif" font-size="10.00" fill="#000000">+ operator++()</text>
<text text-anchor="start" x="421.5" y="-855.5" font-family="Helvetica,sans-Serif" font-size="10.00" fill="#000000">+ operator++()</text>
<text text-anchor="start" x="421.5" y="-844.5" font-family="Helvetica,sans-Serif" font-size="10.00" fill="#000000">+ operator+=()</text>
<text text-anchor="start" x="421.5" y="-833.5" font-family="Helvetica,sans-Serif" font-size="10.00" fill="#000000">+ operator&#45;=()</text>
<text text-anchor="start" x="421.5" y="-822.5" font-family="Helvetica,sans-Serif" font-size="10.00" fill="#000000">+ operator+=()</text>
<text text-anchor="start" x="421.5" y="-811.5" font-family="Helvetica,sans-Serif" font-size="10.00" fill="#000000">+ operator&#45;=()</text>
<text text-anchor="start" x="421.5" y="-800.5" font-family="Helvetica,sans-Serif" font-size="10.00" fill="#000000">+ operator+()</text>
<text text-anchor="start" x="421.5" y="-789.5" font-family="Helvetica,sans-Serif" font-size="10.00" fill="#000000">+ operator&#45;()</text>
<text text-anchor="start" x="421.5" y="-778.5" font-family="Helvetica,sans-Serif" font-size="10.00" fill="#000000">+ operator+()</text>
<text text-anchor="start" x="421.5" y="-767.5" font-family="Helvetica,sans-Serif" font-size="10.00" fill="#000000">+ operator&#45;()</text>
<text text-anchor="start" x="421.5" y="-756.5" font-family="Helvetica,sans-Serif" font-size="10.00" fill="#000000">+ print()</text>
<text text-anchor="start" x="421.5" y="-745.5" font-family="Helvetica,sans-Serif" font-size="10.00" fill="#000000">+ asString()</text>
<text text-anchor="start" x="421.5" y="-734.5" font-family="Helvetica,sans-Serif" font-size="10.00" fill="#000000">+ ClassDefNV()</text>
<text text-anchor="start" x="421.5" y="-723.5" font-family="Helvetica,sans-Serif" font-size="10.00" fill="#000000">+ bc2ns()</text>
<text text-anchor="start" x="421.5" y="-712.5" font-family="Helvetica,sans-Serif" font-size="10.00" fill="#000000">+ ns2bc()</text>
</a>
</g>
</g>
<!-- Node6&#45;&gt;Node3 -->
<g id="edge3" class="edge">
<title>Node6&#45;&gt;Node3</title>
<path fill="none" stroke="#404040" d="M451.5393,-705.2069C446.4356,-589.0588 448.9855,-461.0908 479.5,-413 563.3489,-280.8545 745.276,-220.4126 858.3543,-194.6843"/>
<polygon fill="none" stroke="#404040" points="858.378,-194.6791 863.3699,-189.4752 870.0935,-192.0816 865.1016,-197.2855 858.378,-194.6791"/>
<text text-anchor="middle" x="503" y="-522" font-family="Helvetica,sans-Serif" font-size="10.00" fill="#000000"> #mFirstIR</text>
</g>
<!-- Node21 -->
<g id="node19" class="node">
<title>Node21</title>
<g id="a_node19"><a xlink:href="../../d8/d98/structo2_1_1InteractionTimeRecord.html" target="_top" xlink:title="{o2::InteractionTimeRecord\n||+ InteractionTimeRecord()\l+ InteractionTimeRecord()\l+ InteractionTimeRecord()\l+ setFromNS()\l+ clear()\l+ getTimeOffsetWrtBC()\l+ getTimeNS()\l+ operator==()\l+ operator!=()\l+ operator\&gt;()\l+ operator\&gt;=()\l+ operator\&lt;()\l+ operator\&lt;=()\l+ print()\l+ asString()\l+ ClassDefNV()\l}">
<polygon fill="none" stroke="#000000" points="301.5,-413.5 301.5,-635.5 433.5,-635.5 433.5,-413.5 301.5,-413.5"/>
<text text-anchor="middle" x="367.5" y="-623.5" font-family="Helvetica,sans-Serif" font-size="10.00" fill="#000000">o2::InteractionTimeRecord</text>
<polyline fill="none" stroke="#000000" points="301.5,-616.5 433.5,-616.5 "/>
<text text-anchor="middle" x="367.5" y="-604.5" font-family="Helvetica,sans-Serif" font-size="10.00" fill="#000000"> </text>
<polyline fill="none" stroke="#000000" points="301.5,-597.5 433.5,-597.5 "/>
<text text-anchor="start" x="309.5" y="-585.5" font-family="Helvetica,sans-Serif" font-size="10.00" fill="#000000">+ InteractionTimeRecord()</text>
<text text-anchor="start" x="309.5" y="-574.5" font-family="Helvetica,sans-Serif" font-size="10.00" fill="#000000">+ InteractionTimeRecord()</text>
<text text-anchor="start" x="309.5" y="-563.5" font-family="Helvetica,sans-Serif" font-size="10.00" fill="#000000">+ InteractionTimeRecord()</text>
<text text-anchor="start" x="309.5" y="-552.5" font-family="Helvetica,sans-Serif" font-size="10.00" fill="#000000">+ setFromNS()</text>
<text text-anchor="start" x="309.5" y="-541.5" font-family="Helvetica,sans-Serif" font-size="10.00" fill="#000000">+ clear()</text>
<text text-anchor="start" x="309.5" y="-530.5" font-family="Helvetica,sans-Serif" font-size="10.00" fill="#000000">+ getTimeOffsetWrtBC()</text>
<text text-anchor="start" x="309.5" y="-519.5" font-family="Helvetica,sans-Serif" font-size="10.00" fill="#000000">+ getTimeNS()</text>
<text text-anchor="start" x="309.5" y="-508.5" font-family="Helvetica,sans-Serif" font-size="10.00" fill="#000000">+ operator==()</text>
<text text-anchor="start" x="309.5" y="-497.5" font-family="Helvetica,sans-Serif" font-size="10.00" fill="#000000">+ operator!=()</text>
<text text-anchor="start" x="309.5" y="-486.5" font-family="Helvetica,sans-Serif" font-size="10.00" fill="#000000">+ operator&gt;()</text>
<text text-anchor="start" x="309.5" y="-475.5" font-family="Helvetica,sans-Serif" font-size="10.00" fill="#000000">+ operator&gt;=()</text>
<text text-anchor="start" x="309.5" y="-464.5" font-family="Helvetica,sans-Serif" font-size="10.00" fill="#000000">+ operator&lt;()</text>
<text text-anchor="start" x="309.5" y="-453.5" font-family="Helvetica,sans-Serif" font-size="10.00" fill="#000000">+ operator&lt;=()</text>
<text text-anchor="start" x="309.5" y="-442.5" font-family="Helvetica,sans-Serif" font-size="10.00" fill="#000000">+ print()</text>
<text text-anchor="start" x="309.5" y="-431.5" font-family="Helvetica,sans-Serif" font-size="10.00" fill="#000000">+ asString()</text>
<text text-anchor="start" x="309.5" y="-420.5" font-family="Helvetica,sans-Serif" font-size="10.00" fill="#000000">+ ClassDefNV()</text>
</a>
</g>
</g>
<!-- Node6&#45;&gt;Node21 -->
<g id="edge20" class="edge">
<title>Node6&#45;&gt;Node21</title>
<path fill="none" stroke="#191970" d="M410.9275,-695.6555C405.6812,-674.979 400.5443,-654.7335 395.7455,-635.8205"/>
<polygon fill="none" stroke="#191970" points="407.5754,-696.6759 413.4274,-705.5079 414.3604,-694.9543 407.5754,-696.6759"/>
</g>
<!-- Node7 -->
<g id="node5" class="node">
<title>Node7</title>
<polygon fill="none" stroke="#bfbfbf" points="333,-1206.5 333,-1263.5 378,-1263.5 378,-1206.5 333,-1206.5"/>
<text text-anchor="middle" x="355.5" y="-1251.5" font-family="Helvetica,sans-Serif" font-size="10.00" fill="#000000">double</text>
<polyline fill="none" stroke="#bfbfbf" points="333,-1244.5 378,-1244.5 "/>
<text text-anchor="middle" x="355.5" y="-1232.5" font-family="Helvetica,sans-Serif" font-size="10.00" fill="#000000"> </text>
<polyline fill="none" stroke="#bfbfbf" points="333,-1225.5 378,-1225.5 "/>
<text text-anchor="middle" x="355.5" y="-1213.5" font-family="Helvetica,sans-Serif" font-size="10.00" fill="#000000"> </text>
</g>
<!-- Node7&#45;&gt;Node6 -->
<g id="edge4" class="edge">
<title>Node7&#45;&gt;Node6</title>
<path fill="none" stroke="#404040" d="M371.5752,-1206.1531C380.4917,-1189.4719 391.3839,-1167.9049 399.5,-1148 402.8351,-1139.8207 406.1119,-1131.4196 409.3159,-1122.8946"/>
<polygon fill="none" stroke="#404040" points="409.3216,-1122.8791 407.6517,-1115.864 413.4849,-1111.6244 415.1548,-1118.6395 409.3216,-1122.8791"/>
<text text-anchor="middle" x="424.5" y="-1174.5" font-family="Helvetica,sans-Serif" font-size="10.00" fill="#000000"> +DummyTime</text>
</g>
<!-- Node7&#45;&gt;Node21 -->
<g id="edge21" class="edge">
<title>Node7&#45;&gt;Node21</title>
<path fill="none" stroke="#404040" d="M348.8389,-1206.1823C345.2852,-1189.3263 341.2852,-1167.5763 339.5,-1148 321.62,-951.9247 324.3645,-901.3063 339.5,-705 340.9266,-686.4974 343.1641,-667.022 345.7672,-647.9854"/>
<polygon fill="none" stroke="#404040" points="345.7988,-647.7611 342.6779,-641.2603 347.4782,-635.8792 350.5992,-642.3799 345.7988,-647.7611"/>
<text text-anchor="middle" x="372" y="-924" font-family="Helvetica,sans-Serif" font-size="10.00" fill="#000000"> +timeInBCNS</text>
</g>
<!-- Node8 -->
<g id="node6" class="node">
<title>Node8</title>
<polygon fill="none" stroke="#bfbfbf" points="439,-1206.5 439,-1263.5 490,-1263.5 490,-1206.5 439,-1206.5"/>
<text text-anchor="middle" x="464.5" y="-1251.5" font-family="Helvetica,sans-Serif" font-size="10.00" fill="#000000">uint16_t</text>
<polyline fill="none" stroke="#bfbfbf" points="439,-1244.5 490,-1244.5 "/>
<text text-anchor="middle" x="464.5" y="-1232.5" font-family="Helvetica,sans-Serif" font-size="10.00" fill="#000000"> </text>
<polyline fill="none" stroke="#bfbfbf" points="439,-1225.5 490,-1225.5 "/>
<text text-anchor="middle" x="464.5" y="-1213.5" font-family="Helvetica,sans-Serif" font-size="10.00" fill="#000000"> </text>
</g>
<!-- Node8&#45;&gt;Node6 -->
<g id="edge5" class="edge">
<title>Node8&#45;&gt;Node6</title>
<path fill="none" stroke="#404040" d="M464.8994,-1206.4647C465.0771,-1194.0349 465.2926,-1179.2967 465.5,-1166 465.5323,-1163.9275 465.5649,-1161.8448 465.5977,-1159.7533"/>
<polygon fill="none" stroke="#404040" points="465.5987,-1159.6839 461.6939,-1153.6215 465.7881,-1147.6854 469.6929,-1153.7477 465.5987,-1159.6839"/>
<text text-anchor="middle" x="494.5" y="-1180" font-family="Helvetica,sans-Serif" font-size="10.00" fill="#000000"> +DummyBC</text>
<text text-anchor="middle" x="494.5" y="-1169" font-family="Helvetica,sans-Serif" font-size="10.00" fill="#000000">+bc</text>
</g>
<!-- Node9 -->
<g id="node7" class="node">
<title>Node9</title>
<g id="a_node7"><a xlink:href="../../d3/d87/classuint32__t.html" target="_top" xlink:title="{uint32_t\n||}">
<polygon fill="none" stroke="#000000" points="520,-1206.5 520,-1263.5 571,-1263.5 571,-1206.5 520,-1206.5"/>
<text text-anchor="middle" x="545.5" y="-1251.5" font-family="Helvetica,sans-Serif" font-size="10.00" fill="#000000">uint32_t</text>
<polyline fill="none" stroke="#000000" points="520,-1244.5 571,-1244.5 "/>
<text text-anchor="middle" x="545.5" y="-1232.5" font-family="Helvetica,sans-Serif" font-size="10.00" fill="#000000"> </text>
<polyline fill="none" stroke="#000000" points="520,-1225.5 571,-1225.5 "/>
<text text-anchor="middle" x="545.5" y="-1213.5" font-family="Helvetica,sans-Serif" font-size="10.00" fill="#000000"> </text>
</a>
</g>
</g>
<!-- Node9&#45;&gt;Node6 -->
<g id="edge6" class="edge">
<title>Node9&#45;&gt;Node6</title>
<path fill="none" stroke="#404040" d="M538.4184,-1206.2541C535.3052,-1193.6172 531.343,-1177.5338 526.8967,-1159.4855"/>
<polygon fill="none" stroke="#404040" points="526.8599,-1159.3358 521.5408,-1154.4668 523.9894,-1147.6841 529.3086,-1152.5531 526.8599,-1159.3358"/>
<text text-anchor="middle" x="563.5" y="-1180" font-family="Helvetica,sans-Serif" font-size="10.00" fill="#000000"> +orbit</text>
<text text-anchor="middle" x="563.5" y="-1169" font-family="Helvetica,sans-Serif" font-size="10.00" fill="#000000">+DummyOrbit</text>
</g>
<!-- Node10 -->
<g id="node8" class="node">
<title>Node10</title>
<g id="a_node8"><a xlink:href="../../d6/d30/classuint64__t.html" target="_top" xlink:title="{uint64_t\n||}">
<polygon fill="none" stroke="#000000" points="535,-496 535,-553 586,-553 586,-496 535,-496"/>
<text text-anchor="middle" x="560.5" y="-541" font-family="Helvetica,sans-Serif" font-size="10.00" fill="#000000">uint64_t</text>
<polyline fill="none" stroke="#000000" points="535,-534 586,-534 "/>
<text text-anchor="middle" x="560.5" y="-522" font-family="Helvetica,sans-Serif" font-size="10.00" fill="#000000"> </text>
<polyline fill="none" stroke="#000000" points="535,-515 586,-515 "/>
<text text-anchor="middle" x="560.5" y="-503" font-family="Helvetica,sans-Serif" font-size="10.00" fill="#000000"> </text>
</a>
</g>
</g>
<!-- Node10&#45;&gt;Node3 -->
<g id="edge7" class="edge">
<title>Node10&#45;&gt;Node3</title>
<path fill="none" stroke="#404040" d="M564.6307,-495.857C569.1509,-472.0108 578.1925,-438.0328 595.5,-413 660.4713,-319.0286 776.3344,-253.2749 859.0723,-215.569"/>
<polygon fill="none" stroke="#404040" points="859.3151,-215.4601 863.1517,-209.3542 870.2634,-210.5472 866.4269,-216.6531 859.3151,-215.4601"/>
<text text-anchor="middle" x="684" y="-381.5" font-family="Helvetica,sans-Serif" font-size="10.00" fill="#000000"> #mReadoutWindowCurrent</text>
</g>
<!-- Node11 -->
<g id="node9" class="node">
<title>Node11</title>
<polygon fill="none" stroke="#bfbfbf" points="604,-490.5 604,-558.5 747,-558.5 747,-490.5 604,-490.5"/>
<text text-anchor="start" x="612" y="-546.5" font-family="Helvetica,sans-Serif" font-size="10.00" fill="#000000">vector&lt; o2::tof::WindowFiller</text>
<text text-anchor="middle" x="675.5" y="-535.5" font-family="Helvetica,sans-Serif" font-size="10.00" fill="#000000">::PatternData &gt;</text>
<polyline fill="none" stroke="#bfbfbf" points="604,-528.5 747,-528.5 "/>
<text text-anchor="middle" x="675.5" y="-516.5" font-family="Helvetica,sans-Serif" font-size="10.00" fill="#000000"> </text>
<polyline fill="none" stroke="#bfbfbf" points="604,-509.5 747,-509.5 "/>
<text text-anchor="middle" x="675.5" y="-497.5" font-family="Helvetica,sans-Serif" font-size="10.00" fill="#000000"> </text>
</g>
<!-- Node11&#45;&gt;Node3 -->
<g id="edge8" class="edge">
<title>Node11&#45;&gt;Node3</title>
<path fill="none" stroke="#404040" d="M699.324,-490.355C715.135,-468.0364 736.5705,-438.4194 756.5,-413 790.1274,-370.1095 828.4852,-324.0831 862.491,-284.2002"/>
<polygon fill="none" stroke="#404040" points="862.5594,-284.1201 863.4155,-276.96 870.3542,-274.9964 869.498,-282.1565 862.5594,-284.1201"/>
<text text-anchor="middle" x="826.5" y="-381.5" font-family="Helvetica,sans-Serif" font-size="10.00" fill="#000000"> #mCratePatterns</text>
</g>
<!-- Node12 -->
<g id="node10" class="node">
<title>Node12</title>
<polygon fill="none" stroke="#bfbfbf" points="765.5,-496 765.5,-553 881.5,-553 881.5,-496 765.5,-496"/>
<text text-anchor="middle" x="823.5" y="-541" font-family="Helvetica,sans-Serif" font-size="10.00" fill="#000000">vector&lt; o2::tof::Strip &gt;</text>
<polyline fill="none" stroke="#bfbfbf" points="765.5,-534 881.5,-534 "/>
<text text-anchor="middle" x="823.5" y="-522" font-family="Helvetica,sans-Serif" font-size="10.00" fill="#000000"> </text>
<polyline fill="none" stroke="#bfbfbf" points="765.5,-515 881.5,-515 "/>
<text text-anchor="middle" x="823.5" y="-503" font-family="Helvetica,sans-Serif" font-size="10.00" fill="#000000"> </text>
</g>
<!-- Node12&#45;&gt;Node3 -->
<g id="edge9" class="edge">
<title>Node12&#45;&gt;Node3</title>
<path fill="none" stroke="#404040" d="M834.4144,-495.8083C845.7222,-466.0825 864.4239,-416.9198 883.7863,-366.02"/>
<polygon fill="none" stroke="#404040" points="883.7899,-366.0105 882.1846,-358.9804 888.0565,-354.7946 889.6618,-361.8248 883.7899,-366.0105"/>
<text text-anchor="middle" x="899" y="-381.5" font-family="Helvetica,sans-Serif" font-size="10.00" fill="#000000"> #mStrips</text>
</g>
<!-- Node13 -->
<g id="node11" class="node">
<title>Node13</title>
<g id="a_node11"><a xlink:href="../../d1/db7/structo2_1_1tof_1_1DigitHeader.html" target="_top" xlink:title="{o2::tof::DigitHeader\n||+ clear()\l+ DigitHeader()\l+ addRow()\l+ getNRow()\l+ crateSeen()\l+ numCratesSeen()\l+ getCrateCounts()\l+ numCratesCounts()\l+ ClassDefNV()\l}">
<polygon fill="none" stroke="#000000" points="900,-452 900,-597 1011,-597 1011,-452 900,-452"/>
<text text-anchor="middle" x="955.5" y="-585" font-family="Helvetica,sans-Serif" font-size="10.00" fill="#000000">o2::tof::DigitHeader</text>
<polyline fill="none" stroke="#000000" points="900,-578 1011,-578 "/>
<text text-anchor="middle" x="955.5" y="-566" font-family="Helvetica,sans-Serif" font-size="10.00" fill="#000000"> </text>
<polyline fill="none" stroke="#000000" points="900,-559 1011,-559 "/>
<text text-anchor="start" x="908" y="-547" font-family="Helvetica,sans-Serif" font-size="10.00" fill="#000000">+ clear()</text>
<text text-anchor="start" x="908" y="-536" font-family="Helvetica,sans-Serif" font-size="10.00" fill="#000000">+ DigitHeader()</text>
<text text-anchor="start" x="908" y="-525" font-family="Helvetica,sans-Serif" font-size="10.00" fill="#000000">+ addRow()</text>
<text text-anchor="start" x="908" y="-514" font-family="Helvetica,sans-Serif" font-size="10.00" fill="#000000">+ getNRow()</text>
<text text-anchor="start" x="908" y="-503" font-family="Helvetica,sans-Serif" font-size="10.00" fill="#000000">+ crateSeen()</text>
<text text-anchor="start" x="908" y="-492" font-family="Helvetica,sans-Serif" font-size="10.00" fill="#000000">+ numCratesSeen()</text>
<text text-anchor="start" x="908" y="-481" font-family="Helvetica,sans-Serif" font-size="10.00" fill="#000000">+ getCrateCounts()</text>
<text text-anchor="start" x="908" y="-470" font-family="Helvetica,sans-Serif" font-size="10.00" fill="#000000">+ numCratesCounts()</text>
<text text-anchor="start" x="908" y="-459" font-family="Helvetica,sans-Serif" font-size="10.00" fill="#000000">+ ClassDefNV()</text>
</a>
</g>
</g>
<!-- Node13&#45;&gt;Node3 -->
<g id="edge10" class="edge">
<title>Node13&#45;&gt;Node3</title>
<path fill="none" stroke="#404040" d="M955.5,-451.7574C955.5,-426.4934 955.5,-396.8676 955.5,-366.6033"/>
<polygon fill="none" stroke="#404040" points="955.5001,-366.5261 951.5,-360.5262 955.5,-354.5261 959.5,-360.5261 955.5001,-366.5261"/>
<text text-anchor="middle" x="990" y="-381.5" font-family="Helvetica,sans-Serif" font-size="10.00" fill="#000000"> #mDigitHeader</text>
</g>
<!-- Node14 -->
<g id="node12" class="node">
<title>Node14</title>
<polygon fill="none" stroke="#bfbfbf" points="980,-898 980,-955 1009,-955 1009,-898 980,-898"/>
<text text-anchor="middle" x="994.5" y="-943" font-family="Helvetica,sans-Serif" font-size="10.00" fill="#000000">int</text>
<polyline fill="none" stroke="#bfbfbf" points="980,-936 1009,-936 "/>
<text text-anchor="middle" x="994.5" y="-924" font-family="Helvetica,sans-Serif" font-size="10.00" fill="#000000"> </text>
<polyline fill="none" stroke="#bfbfbf" points="980,-917 1009,-917 "/>
<text text-anchor="middle" x="994.5" y="-905" font-family="Helvetica,sans-Serif" font-size="10.00" fill="#000000"> </text>
</g>
<!-- Node14&#45;&gt;Node3 -->
<g id="edge14" class="edge">
<title>Node14&#45;&gt;Node3</title>
<path fill="none" stroke="#404040" d="M1001.1807,-897.9624C1019.3938,-815.6726 1066.1127,-571.1578 1028.5,-373 1028.0872,-370.8254 1027.6526,-368.6433 1027.1974,-366.4552"/>
<polygon fill="none" stroke="#404040" points="1027.189,-366.4175 1021.9775,-361.4335 1024.5738,-354.7059 1029.7853,-359.6899 1027.189,-366.4175"/>
<text text-anchor="middle" x="1102" y="-533" font-family="Helvetica,sans-Serif" font-size="10.00" fill="#000000"> #mMaskNoiseRate</text>
<text text-anchor="middle" x="1102" y="-522" font-family="Helvetica,sans-Serif" font-size="10.00" fill="#000000">#mIcurrentReadoutWindow</text>
<text text-anchor="middle" x="1102" y="-511" font-family="Helvetica,sans-Serif" font-size="10.00" fill="#000000">#mChannelCounts</text>
</g>
<!-- Node14&#45;&gt;Node13 -->
<g id="edge11" class="edge">
<title>Node14&#45;&gt;Node13</title>
<path fill="none" stroke="#404040" d="M984.102,-897.7918C967.3287,-848.4706 936.6366,-744.2357 941.5,-654 942.2749,-639.6223 943.5304,-624.3857 944.9795,-609.6067"/>
<polygon fill="none" stroke="#404040" points="945.0142,-609.2666 941.6459,-602.8906 946.2359,-597.329 949.6043,-603.7051 945.0142,-609.2666"/>
<text text-anchor="middle" x="987.5" y="-679" font-family="Helvetica,sans-Serif" font-size="10.00" fill="#000000"> +mNumberOfCrates</text>
<text text-anchor="middle" x="987.5" y="-668" font-family="Helvetica,sans-Serif" font-size="10.00" fill="#000000">+mCountsCrate</text>
<text text-anchor="middle" x="987.5" y="-657" font-family="Helvetica,sans-Serif" font-size="10.00" fill="#000000">+mCountsRow</text>
</g>
<!-- Node15 -->
<g id="node13" class="node">
<title>Node15</title>
<polygon fill="none" stroke="#bfbfbf" points="1185,-490.5 1185,-558.5 1308,-558.5 1308,-490.5 1185,-490.5"/>
<text text-anchor="start" x="1193" y="-546.5" font-family="Helvetica,sans-Serif" font-size="10.00" fill="#000000">vector&lt; o2::tof::Readout</text>
<text text-anchor="middle" x="1246.5" y="-535.5" font-family="Helvetica,sans-Serif" font-size="10.00" fill="#000000">WindowData &gt;</text>
<polyline fill="none" stroke="#bfbfbf" points="1185,-528.5 1308,-528.5 "/>
<text text-anchor="middle" x="1246.5" y="-516.5" font-family="Helvetica,sans-Serif" font-size="10.00" fill="#000000"> </text>
<polyline fill="none" stroke="#bfbfbf" points="1185,-509.5 1308,-509.5 "/>
<text text-anchor="middle" x="1246.5" y="-497.5" font-family="Helvetica,sans-Serif" font-size="10.00" fill="#000000"> </text>
</g>
<!-- Node15&#45;&gt;Node3 -->
<g id="edge12" class="edge">
<title>Node15&#45;&gt;Node3</title>
<path fill="none" stroke="#404040" d="M1225.0848,-490.443C1210.4765,-467.8969 1190.2624,-437.9906 1170.5,-413 1132.7502,-365.2634 1087.7755,-315.0987 1048.7419,-273.3938"/>
<polygon fill="none" stroke="#404040" points="1048.7229,-273.3736 1041.6995,-271.7387 1040.5074,-264.6268 1047.5308,-266.2617 1048.7229,-273.3736"/>
<text text-anchor="middle" x="1224.5" y="-387" font-family="Helvetica,sans-Serif" font-size="10.00" fill="#000000"> #mReadoutWindowDataFiltered</text>
<text text-anchor="middle" x="1224.5" y="-376" font-family="Helvetica,sans-Serif" font-size="10.00" fill="#000000">#mReadoutWindowData</text>
</g>
<!-- Node16 -->
<g id="node14" class="node">
<title>Node16</title>
<polygon fill="none" stroke="#bfbfbf" points="1326.5,-496 1326.5,-553 1442.5,-553 1442.5,-496 1326.5,-496"/>
<text text-anchor="middle" x="1384.5" y="-541" font-family="Helvetica,sans-Serif" font-size="10.00" fill="#000000">vector&lt; o2::tof::Digit &gt;</text>
<polyline fill="none" stroke="#bfbfbf" points="1326.5,-534 1442.5,-534 "/>
<text text-anchor="middle" x="1384.5" y="-522" font-family="Helvetica,sans-Serif" font-size="10.00" fill="#000000"> </text>
<polyline fill="none" stroke="#bfbfbf" points="1326.5,-515 1442.5,-515 "/>
<text text-anchor="middle" x="1384.5" y="-503" font-family="Helvetica,sans-Serif" font-size="10.00" fill="#000000"> </text>
</g>
<!-- Node16&#45;&gt;Node3 -->
<g id="edge13" class="edge">
<title>Node16&#45;&gt;Node3</title>
<path fill="none" stroke="#404040" d="M1373.9388,-495.8373C1360.6697,-462.9444 1335.2284,-408.9255 1299.5,-373 1228.6608,-301.7699 1126.4964,-248.1225 1051.9141,-215.2143"/>
<polygon fill="none" stroke="#404040" points="1051.6561,-215.102 1044.558,-216.3737 1040.6541,-210.3107 1047.7522,-209.039 1051.6561,-215.102"/>
<text text-anchor="middle" x="1369.5" y="-387" font-family="Helvetica,sans-Serif" font-size="10.00" fill="#000000"> #mFutureDigits</text>
<text text-anchor="middle" x="1369.5" y="-376" font-family="Helvetica,sans-Serif" font-size="10.00" fill="#000000">#mDigitsPerTimeFrame</text>
</g>
<!-- Node17 -->
<g id="node15" class="node">
<title>Node17</title>
<polygon fill="none" stroke="#bfbfbf" points="1460.5,-496 1460.5,-553 1556.5,-553 1556.5,-496 1460.5,-496"/>
<text text-anchor="middle" x="1508.5" y="-541" font-family="Helvetica,sans-Serif" font-size="10.00" fill="#000000">vector&lt; uint32_t &gt;</text>
<polyline fill="none" stroke="#bfbfbf" points="1460.5,-534 1556.5,-534 "/>
<text text-anchor="middle" x="1508.5" y="-522" font-family="Helvetica,sans-Serif" font-size="10.00" fill="#000000"> </text>
<polyline fill="none" stroke="#bfbfbf" points="1460.5,-515 1556.5,-515 "/>
<text text-anchor="middle" x="1508.5" y="-503" font-family="Helvetica,sans-Serif" font-size="10.00" fill="#000000"> </text>
</g>
<!-- Node17&#45;&gt;Node3 -->
<g id="edge15" class="edge">
<title>Node17&#45;&gt;Node3</title>
<path fill="none" stroke="#404040" d="M1499.958,-495.7398C1488.4262,-461.7264 1464.6813,-405.6222 1425.5,-373 1314.7669,-280.8039 1154.4369,-226.7447 1052.6027,-199.6419"/>
<polygon fill="none" stroke="#404040" points="1052.3972,-199.5882 1045.5797,-201.938 1040.7885,-196.5487 1047.606,-194.1989 1052.3972,-199.5882"/>
<text text-anchor="middle" x="1471.5" y="-381.5" font-family="Helvetica,sans-Serif" font-size="10.00" fill="#000000"> #mPatterns</text>
</g>
<!-- Node18 -->
<g id="node16" class="node">
<title>Node18</title>
<polygon fill="none" stroke="#bfbfbf" points="1575,-496 1575,-553 1610,-553 1610,-496 1575,-496"/>
<text text-anchor="middle" x="1592.5" y="-541" font-family="Helvetica,sans-Serif" font-size="10.00" fill="#000000">bool</text>
<polyline fill="none" stroke="#bfbfbf" points="1575,-534 1610,-534 "/>
<text text-anchor="middle" x="1592.5" y="-522" font-family="Helvetica,sans-Serif" font-size="10.00" fill="#000000"> </text>
<polyline fill="none" stroke="#bfbfbf" points="1575,-515 1610,-515 "/>
<text text-anchor="middle" x="1592.5" y="-503" font-family="Helvetica,sans-Serif" font-size="10.00" fill="#000000"> </text>
</g>
<!-- Node18&#45;&gt;Node3 -->
<g id="edge16" class="edge">
<title>Node18&#45;&gt;Node3</title>
<path fill="none" stroke="#404040" d="M1591.4351,-495.9561C1589.2551,-471.8524 1583.0072,-437.4539 1565.5,-413 1546.1927,-386.0319 1532.3002,-387.5601 1502.5,-373 1350.8817,-298.9207 1163.7734,-238.1588 1052.345,-204.9538"/>
<polygon fill="none" stroke="#404040" points="1052.3093,-204.9433 1045.4199,-207.073 1040.8042,-201.5327 1047.6936,-199.4029 1052.3093,-204.9433"/>
<text text-anchor="middle" x="1596" y="-387" font-family="Helvetica,sans-Serif" font-size="10.00" fill="#000000"> #mFutureToBeSorted</text>
<text text-anchor="middle" x="1596" y="-376" font-family="Helvetica,sans-Serif" font-size="10.00" fill="#000000">#mContinuous</text>
</g>
<!-- Node19 -->
<g id="node17" class="node">
<title>Node19</title>
<polygon fill="none" stroke="#bfbfbf" points="1685,-496 1685,-553 1726,-553 1726,-496 1685,-496"/>
<text text-anchor="middle" x="1705.5" y="-541" font-family="Helvetica,sans-Serif" font-size="10.00" fill="#000000">static</text>
<polyline fill="none" stroke="#bfbfbf" points="1685,-534 1726,-534 "/>
<text text-anchor="middle" x="1705.5" y="-522" font-family="Helvetica,sans-Serif" font-size="10.00" fill="#000000"> </text>
<polyline fill="none" stroke="#bfbfbf" points="1685,-515 1726,-515 "/>
<text text-anchor="middle" x="1705.5" y="-503" font-family="Helvetica,sans-Serif" font-size="10.00" fill="#000000"> </text>
</g>
<!-- Node19&#45;&gt;Node3 -->
<g id="edge17" class="edge">
<title>Node19&#45;&gt;Node3</title>
<path fill="none" stroke="#404040" d="M1702.4812,-495.9369C1697.3548,-461.8522 1683.7875,-405.4121 1648.5,-373 1561.0647,-292.6893 1221.8778,-223.9298 1052.6513,-193.7917"/>
<polygon fill="none" stroke="#404040" points="1052.5829,-193.7797 1045.9778,-196.6731 1040.7665,-191.6889 1047.3717,-188.7954 1052.5829,-193.7797"/>
<text text-anchor="middle" x="1706.5" y="-381.5" font-family="Helvetica,sans-Serif" font-size="10.00" fill="#000000"> #MAXWINDOWS</text>
</g>
<!-- Node20 -->
<g id="node18" class="node">
<title>Node20</title>
<polygon fill="none" stroke="#bfbfbf" points="1762.5,-496 1762.5,-553 1858.5,-553 1858.5,-496 1762.5,-496"/>
<text text-anchor="middle" x="1810.5" y="-541" font-family="Helvetica,sans-Serif" font-size="10.00" fill="#000000">vector&lt; uint64_t &gt;</text>
<polyline fill="none" stroke="#bfbfbf" points="1762.5,-534 1858.5,-534 "/>
<text text-anchor="middle" x="1810.5" y="-522" font-family="Helvetica,sans-Serif" font-size="10.00" fill="#000000"> </text>
<polyline fill="none" stroke="#bfbfbf" points="1762.5,-515 1858.5,-515 "/>
<text text-anchor="middle" x="1810.5" y="-503" font-family="Helvetica,sans-Serif" font-size="10.00" fill="#000000"> </text>
</g>
<!-- Node20&#45;&gt;Node3 -->
<g id="edge18" class="edge">
<title>Node20&#45;&gt;Node3</title>
<path fill="none" stroke="#404040" d="M1807.2586,-495.7114C1801.8361,-461.402 1787.677,-404.7381 1751.5,-373 1647.4163,-281.6873 1241.6047,-216.2302 1052.9362,-190.0848"/>
<polygon fill="none" stroke="#404040" points="1052.7166,-190.0546 1046.2275,-193.1998 1040.8285,-188.4196 1047.3175,-185.2744 1052.7166,-190.0546"/>
<text text-anchor="middle" x="1790" y="-381.5" font-family="Helvetica,sans-Serif" font-size="10.00" fill="#000000"> #mErrors</text>
</g>
<!-- Node21&#45;&gt;Node3 -->
<g id="edge19" class="edge">
<title>Node21&#45;&gt;Node3</title>
<path fill="none" stroke="#404040" d="M370.7944,-413.2844C375.1595,-398.6038 381.7548,-384.6378 391.5,-373 452.331,-300.355 714.0216,-231.7425 858.5891,-198.4664"/>
<polygon fill="none" stroke="#404040" points="858.7985,-198.4186 863.7563,-193.1821 870.4968,-195.7445 865.539,-200.981 858.7985,-198.4186"/>
<text text-anchor="middle" x="423.5" y="-381.5" font-family="Helvetica,sans-Serif" font-size="10.00" fill="#000000"> #mEventTime</text>
</g>
</g>
</svg>
        <g id="navigator" transform="translate(0 0)" fill="#404254">
                <rect fill="#f2f5e9" fill-opacity="0.5" stroke="#606060" stroke-width=".5" x="0" y="0" width="60" height="60"/>
                <use id="zoomplus" xlink:href="#zoomPlus" x="17" y="9" onmousedown="handleZoom(evt,'in')"/>
                <use id="zoomminus" xlink:href="#zoomMin" x="42" y="9" onmousedown="handleZoom(evt,'out')"/>
                <use id="reset" xlink:href="#resetDef" x="30" y="36" onmousedown="handleReset()"/>
                <g id="arrowUp" xlink:href="#dirArrow" transform="translate(30 24)" onmousedown="handlePan(0,-1)">
                  <use xlink:href="#rim" fill="#404040">
                        <set attributeName="fill" to="#808080" begin="arrowUp.mouseover" end="arrowUp.mouseout"/>
                  </use>
                  <path fill="none" stroke="white" stroke-width="1.5" d="M0,-3.0v7 M-2.5,-0.5L0,-3.0L2.5,-0.5"/>
                </g>
                <g id="arrowRight" xlink:href="#dirArrow" transform="rotate(90) translate(36 -43)" onmousedown="handlePan(1,0)">
                  <use xlink:href="#rim" fill="#404040">
                        <set attributeName="fill" to="#808080" begin="arrowRight.mouseover" end="arrowRight.mouseout"/>
                  </use>
                  <path fill="none" stroke="white" stroke-width="1.5" d="M0,-3.0v7 M-2.5,-0.5L0,-3.0L2.5,-0.5"/>
                </g>
                <g id="arrowDown" xlink:href="#dirArrow" transform="rotate(180) translate(-30 -48)" onmousedown="handlePan(0,1)">
                  <use xlink:href="#rim" fill="#404040">
                        <set attributeName="fill" to="#808080" begin="arrowDown.mouseover" end="arrowDown.mouseout"/>
                  </use>
                  <path fill="none" stroke="white" stroke-width="1.5" d="M0,-3.0v7 M-2.5,-0.5L0,-3.0L2.5,-0.5"/>
                </g>
                <g id="arrowLeft" xlink:href="#dirArrow" transform="rotate(270) translate(-36 17)" onmousedown="handlePan(-1,0)">
                  <use xlink:href="#rim" fill="#404040">
                        <set attributeName="fill" to="#808080" begin="arrowLeft.mouseover" end="arrowLeft.mouseout"/>
                  </use>
                  <path fill="none" stroke="white" stroke-width="1.5" d="M0,-3.0v7 M-2.5,-0.5L0,-3.0L2.5,-0.5"/>
                </g>
        </g>
        <svg viewBox="0 0 15 15" width="100%" height="30px" preserveAspectRatio="xMaxYMin meet">
         <g id="arrow_out" transform="scale(0.3 0.3)">
          <a xlink:href="classo2_1_1tof_1_1WindowFiller__coll__graph_org.svg" target="_base">
           <rect id="button" ry="5" rx="5" y="6" x="6" height="38" width="38"
                fill="#f2f5e9" fill-opacity="0.5" stroke="#606060" stroke-width="1.0"/>
           <path id="arrow"
             d="M 11.500037,31.436501 C 11.940474,20.09759 22.043105,11.32322 32.158766,21.979434 L 37.068811,17.246167 C 37.068811,17.246167 37.088388,32 37.088388,32 L 22.160133,31.978069 C 22.160133,31.978069 26.997745,27.140456 26.997745,27.140456 C 18.528582,18.264221 13.291696,25.230495 11.500037,31.436501 z"
             style="fill:#404040;"/>
          </a>
         </g>
        </svg>
</svg>
