<?xml version="1.0" encoding="UTF-8" standalone="no"?>
<!DOCTYPE svg PUBLIC "-//W3C//DTD SVG 1.1//EN"
 "http://www.w3.org/Graphics/SVG/1.1/DTD/svg11.dtd">
<!-- Generated by graphviz version 2.40.1 (20161225.0304)
 -->
<!-- Title: /home/runner/work/AliceO2/AliceO2/Detectors/MUON/MCH/Contour/include/MCHContour/ContourCreator.inl Pages: 1 -->
<svg width="818pt" height="341pt"
 viewBox="0.00 0.00 817.78 341.00" xmlns="http://www.w3.org/2000/svg" xmlns:xlink="http://www.w3.org/1999/xlink">
<g id="graph0" class="graph" transform="scale(1 1) rotate(0) translate(4 337)">
<title>/home/runner/work/AliceO2/AliceO2/Detectors/MUON/MCH/Contour/include/MCHContour/ContourCreator.inl</title>
<!-- Node0 -->
<g id="node1" class="node">
<title>Node0</title>
<polygon fill="#bfbfbf" stroke="#000000" points="414.5127,-280.5 414.5127,-332.5 589.5127,-332.5 589.5127,-280.5 414.5127,-280.5"/>
<text text-anchor="start" x="422.5127" y="-320.5" font-family="Helvetica,sans-Serif" font-size="10.00" fill="#000000">/home/runner/work/AliceO2</text>
<text text-anchor="start" x="422.5127" y="-309.5" font-family="Helvetica,sans-Serif" font-size="10.00" fill="#000000">/AliceO2/Detectors/MUON</text>
<text text-anchor="start" x="422.5127" y="-298.5" font-family="Helvetica,sans-Serif" font-size="10.00" fill="#000000">/MCH/Contour/include/MCHContour</text>
<text text-anchor="middle" x="502.0127" y="-287.5" font-family="Helvetica,sans-Serif" font-size="10.00" fill="#000000">/ContourCreator.inl</text>
</g>
<!-- Node1 -->
<g id="node2" class="node">
<title>Node1</title>
<polygon fill="none" stroke="#bfbfbf" points="13.0127,-112.5 13.0127,-131.5 53.0127,-131.5 53.0127,-112.5 13.0127,-112.5"/>
<text text-anchor="middle" x="33.0127" y="-119.5" font-family="Helvetica,sans-Serif" font-size="10.00" fill="#000000">utility</text>
</g>
<!-- Node0&#45;&gt;Node1 -->
<g id="edge1" class="edge">
<title>Node0&#45;&gt;Node1</title>
<path fill="none" stroke="#191970" d="M421.9713,-280.3878C389.5548,-269.5332 351.8577,-256.5548 318.0127,-244 255.5677,-220.836 240.2598,-214.1677 179.0127,-188 138.3346,-170.6204 91.8566,-149.3652 62.4808,-135.7556"/>
<polygon fill="#191970" stroke="#191970" points="63.7513,-132.4867 53.2073,-131.4499 60.8034,-138.8357 63.7513,-132.4867"/>
</g>
<!-- Node2 -->
<g id="node3" class="node">
<title>Node2</title>
<polygon fill="none" stroke="#bfbfbf" points="560.0127,-56.5 560.0127,-75.5 604.0127,-75.5 604.0127,-56.5 560.0127,-56.5"/>
<text text-anchor="middle" x="582.0127" y="-63.5" font-family="Helvetica,sans-Serif" font-size="10.00" fill="#000000">vector</text>
</g>
<!-- Node0&#45;&gt;Node2 -->
<g id="edge2" class="edge">
<title>Node0&#45;&gt;Node2</title>
<path fill="none" stroke="#191970" d="M589.5633,-288.5377C631.1122,-278.3211 680.7882,-263.5994 723.0127,-244 763.3764,-225.2644 785.1238,-227.2925 806.0127,-188 817.4988,-166.3944 797.3742,-119.7485 789.0127,-112 763.877,-88.7069 665.8225,-74.9647 614.2022,-69.2011"/>
<polygon fill="#191970" stroke="#191970" points="614.5519,-65.7186 604.2335,-68.1229 613.7991,-72.678 614.5519,-65.7186"/>
</g>
<!-- Node3 -->
<g id="node4" class="node">
<title>Node3</title>
<polygon fill="none" stroke="#bfbfbf" points="54.0127,-56.5 54.0127,-75.5 108.0127,-75.5 108.0127,-56.5 54.0127,-56.5"/>
<text text-anchor="middle" x="81.0127" y="-63.5" font-family="Helvetica,sans-Serif" font-size="10.00" fill="#000000">iostream</text>
</g>
<!-- Node0&#45;&gt;Node3 -->
<g id="edge3" class="edge">
<title>Node0&#45;&gt;Node3</title>
<path fill="none" stroke="#191970" d="M414.2824,-289.0231C284.0173,-261.0181 49.8318,-202.058 4.0127,-132 -10.3638,-110.0181 18.1625,-91.2432 44.4718,-79.4023"/>
<polygon fill="#191970" stroke="#191970" points="46.1469,-82.4934 53.9809,-75.3604 43.4086,-76.0512 46.1469,-82.4934"/>
</g>
<!-- Node4 -->
<g id="node5" class="node">
<title>Node4</title>
<g id="a_node5"><a xlink:href="../../d5/de0/Edge_8h.html" target="_top" xlink:title="Edge.h">
<polygon fill="none" stroke="#000000" points="188.5127,-168.5 188.5127,-187.5 235.5127,-187.5 235.5127,-168.5 188.5127,-168.5"/>
<text text-anchor="middle" x="212.0127" y="-175.5" font-family="Helvetica,sans-Serif" font-size="10.00" fill="#000000">Edge.h</text>
</a>
</g>
</g>
<!-- Node0&#45;&gt;Node4 -->
<g id="edge4" class="edge">
<title>Node0&#45;&gt;Node4</title>
<path fill="none" stroke="#191970" d="M443.3269,-280.4961C382.6303,-253.6012 290.2083,-212.6487 242.6499,-191.5754"/>
<polygon fill="#191970" stroke="#191970" points="244.045,-188.3654 233.4844,-187.5142 241.2091,-194.7653 244.045,-188.3654"/>
</g>
<!-- Node13 -->
<g id="node14" class="node">
<title>Node13</title>
<g id="a_node14"><a xlink:href="../../dc/ddd/Polygon_8h.html" target="_top" xlink:title="Polygon.h">
<polygon fill="none" stroke="#000000" points="429.0127,-168.5 429.0127,-187.5 489.0127,-187.5 489.0127,-168.5 429.0127,-168.5"/>
<text text-anchor="middle" x="459.0127" y="-175.5" font-family="Helvetica,sans-Serif" font-size="10.00" fill="#000000">Polygon.h</text>
</a>
</g>
</g>
<!-- Node0&#45;&gt;Node13 -->
<g id="edge20" class="edge">
<title>Node0&#45;&gt;Node13</title>
<path fill="none" stroke="#191970" d="M493.311,-280.4961C485.044,-255.791 472.8076,-219.2242 465.4041,-197.0998"/>
<polygon fill="#191970" stroke="#191970" points="468.689,-195.8866 462.1964,-187.5142 462.0508,-198.108 468.689,-195.8866"/>
</g>
<!-- Node16 -->
<g id="node17" class="node">
<title>Node16</title>
<polygon fill="none" stroke="#bfbfbf" points="675.0127,-112.5 675.0127,-131.5 731.0127,-131.5 731.0127,-112.5 675.0127,-112.5"/>
<text text-anchor="middle" x="703.0127" y="-119.5" font-family="Helvetica,sans-Serif" font-size="10.00" fill="#000000">algorithm</text>
</g>
<!-- Node0&#45;&gt;Node16 -->
<g id="edge42" class="edge">
<title>Node0&#45;&gt;Node16</title>
<path fill="none" stroke="#191970" d="M530.9429,-280.4126C543.3116,-269.229 557.8957,-256.0018 571.0127,-244 612.146,-206.364 660.1586,-161.8378 685.4134,-138.3704"/>
<polygon fill="#191970" stroke="#191970" points="687.8344,-140.8985 692.7757,-131.5265 683.0685,-135.7715 687.8344,-140.8985"/>
</g>
<!-- Node19 -->
<g id="node20" class="node">
<title>Node19</title>
<g id="a_node20"><a xlink:href="../../db/d08/Contour_8h.html" target="_top" xlink:title="Contour.h">
<polygon fill="none" stroke="#000000" points="502.5127,-224.5 502.5127,-243.5 561.5127,-243.5 561.5127,-224.5 502.5127,-224.5"/>
<text text-anchor="middle" x="532.0127" y="-231.5" font-family="Helvetica,sans-Serif" font-size="10.00" fill="#000000">Contour.h</text>
</a>
</g>
</g>
<!-- Node0&#45;&gt;Node19 -->
<g id="edge32" class="edge">
<title>Node0&#45;&gt;Node19</title>
<path fill="none" stroke="#191970" d="M512.8434,-280.3258C516.6139,-271.2138 520.7662,-261.179 524.2393,-252.7857"/>
<polygon fill="#191970" stroke="#191970" points="527.4781,-254.1124 528.0676,-243.534 521.01,-251.4359 527.4781,-254.1124"/>
</g>
<!-- Node21 -->
<g id="node22" class="node">
<title>Node21</title>
<g id="a_node22"><a xlink:href="../../dc/ded/SegmentTree_8h.html" target="_top" xlink:title="SegmentTree.h">
<polygon fill="none" stroke="#000000" points="713.5127,-168.5 713.5127,-187.5 796.5127,-187.5 796.5127,-168.5 713.5127,-168.5"/>
<text text-anchor="middle" x="755.0127" y="-175.5" font-family="Helvetica,sans-Serif" font-size="10.00" fill="#000000">SegmentTree.h</text>
</a>
</g>
</g>
<!-- Node0&#45;&gt;Node21 -->
<g id="edge37" class="edge">
<title>Node0&#45;&gt;Node21</title>
<path fill="none" stroke="#191970" d="M589.5833,-289.9085C625.5339,-280.3489 666.3039,-265.7679 699.0127,-244 717.6898,-231.5703 733.6285,-211.191 743.6706,-196.3619"/>
<polygon fill="#191970" stroke="#191970" points="746.8769,-197.8509 749.3876,-187.5578 741.006,-194.0385 746.8769,-197.8509"/>
</g>
<!-- Node4&#45;&gt;Node1 -->
<g id="edge5" class="edge">
<title>Node4&#45;&gt;Node1</title>
<path fill="none" stroke="#191970" d="M188.2429,-170.5636C155.8708,-160.436 97.9295,-142.3092 62.7268,-131.296"/>
<polygon fill="#191970" stroke="#191970" points="63.602,-127.9026 53.0131,-128.2571 61.5119,-134.5833 63.602,-127.9026"/>
</g>
<!-- Node4&#45;&gt;Node2 -->
<g id="edge6" class="edge">
<title>Node4&#45;&gt;Node2</title>
<path fill="none" stroke="#191970" d="M235.5921,-173.7191C270.1921,-167.0355 336.421,-152.7053 390.0127,-132 407.8155,-125.1219 410.3416,-119.2096 428.0127,-112 468.9817,-95.2852 518.2847,-81.6278 549.8775,-73.6535"/>
<polygon fill="#191970" stroke="#191970" points="551.0133,-76.9778 559.875,-71.1708 549.3262,-70.1841 551.0133,-76.9778"/>
</g>
<!-- Node4&#45;&gt;Node3 -->
<g id="edge7" class="edge">
<title>Node4&#45;&gt;Node3</title>
<path fill="none" stroke="#191970" d="M200.8437,-168.4509C178.4144,-149.2747 127.6771,-105.8962 99.9596,-82.1988"/>
<polygon fill="#191970" stroke="#191970" points="102.0286,-79.363 92.1534,-75.5249 97.4798,-84.6835 102.0286,-79.363"/>
</g>
<!-- Node5 -->
<g id="node6" class="node">
<title>Node5</title>
<polygon fill="none" stroke="#bfbfbf" points="126.0127,-56.5 126.0127,-75.5 176.0127,-75.5 176.0127,-56.5 126.0127,-56.5"/>
<text text-anchor="middle" x="151.0127" y="-63.5" font-family="Helvetica,sans-Serif" font-size="10.00" fill="#000000">iomanip</text>
</g>
<!-- Node4&#45;&gt;Node5 -->
<g id="edge8" class="edge">
<title>Node4&#45;&gt;Node5</title>
<path fill="none" stroke="#191970" d="M203.3827,-168.3246C195.7208,-159.3769 184.5953,-145.4657 177.0127,-132 168.621,-117.0973 161.6825,-98.9406 157.0902,-85.4461"/>
<polygon fill="#191970" stroke="#191970" points="160.3623,-84.1911 153.9272,-75.7744 153.709,-86.367 160.3623,-84.1911"/>
</g>
<!-- Node6 -->
<g id="node7" class="node">
<title>Node6</title>
<g id="a_node7"><a xlink:href="../../d1/d55/Interval_8h.html" target="_top" xlink:title="Interval.h">
<polygon fill="none" stroke="#000000" points="323.5127,-112.5 323.5127,-131.5 380.5127,-131.5 380.5127,-112.5 323.5127,-112.5"/>
<text text-anchor="middle" x="352.0127" y="-119.5" font-family="Helvetica,sans-Serif" font-size="10.00" fill="#000000">Interval.h</text>
</a>
</g>
</g>
<!-- Node4&#45;&gt;Node6 -->
<g id="edge9" class="edge">
<title>Node4&#45;&gt;Node6</title>
<path fill="none" stroke="#191970" d="M235.7618,-168.5004C258.5897,-159.3692 293.2959,-145.4867 318.8467,-135.2664"/>
<polygon fill="#191970" stroke="#191970" points="320.1622,-138.5099 328.1471,-131.5462 317.5625,-132.0105 320.1622,-138.5099"/>
</g>
<!-- Node12 -->
<g id="node13" class="node">
<title>Node12</title>
<g id="a_node13"><a xlink:href="../../dd/dbc/Detectors_2MUON_2MCH_2Contour_2include_2MCHContour_2Vertex_8h.html" target="_top" xlink:title="Vertex.h">
<polygon fill="none" stroke="#000000" points="185.5127,-112.5 185.5127,-131.5 238.5127,-131.5 238.5127,-112.5 185.5127,-112.5"/>
<text text-anchor="middle" x="212.0127" y="-119.5" font-family="Helvetica,sans-Serif" font-size="10.00" fill="#000000">Vertex.h</text>
</a>
</g>
</g>
<!-- Node4&#45;&gt;Node12 -->
<g id="edge16" class="edge">
<title>Node4&#45;&gt;Node12</title>
<path fill="none" stroke="#191970" d="M212.0127,-168.2455C212.0127,-160.9382 212.0127,-150.6944 212.0127,-141.7046"/>
<polygon fill="#191970" stroke="#191970" points="215.5128,-141.6426 212.0127,-131.6427 208.5128,-141.6427 215.5128,-141.6426"/>
</g>
<!-- Node6&#45;&gt;Node2 -->
<g id="edge10" class="edge">
<title>Node6&#45;&gt;Node2</title>
<path fill="none" stroke="#191970" d="M380.6773,-115.0208C423.8008,-104.5212 505.0933,-84.7282 550.0663,-73.7783"/>
<polygon fill="#191970" stroke="#191970" points="550.9913,-77.1554 559.8794,-71.389 549.3353,-70.3541 550.9913,-77.1554"/>
</g>
<!-- Node7 -->
<g id="node8" class="node">
<title>Node7</title>
<polygon fill="none" stroke="#bfbfbf" points="343.0127,-56.5 343.0127,-75.5 395.0127,-75.5 395.0127,-56.5 343.0127,-56.5"/>
<text text-anchor="middle" x="369.0127" y="-63.5" font-family="Helvetica,sans-Serif" font-size="10.00" fill="#000000">ostream</text>
</g>
<!-- Node6&#45;&gt;Node7 -->
<g id="edge11" class="edge">
<title>Node6&#45;&gt;Node7</title>
<path fill="none" stroke="#191970" d="M354.9739,-112.2455C357.2166,-104.8579 360.3704,-94.4689 363.1208,-85.4087"/>
<polygon fill="#191970" stroke="#191970" points="366.5297,-86.2282 366.0855,-75.6427 359.8315,-84.1948 366.5297,-86.2282"/>
</g>
<!-- Node8 -->
<g id="node9" class="node">
<title>Node8</title>
<g id="a_node9"><a xlink:href="../../d2/dc4/Helper_8h.html" target="_top" xlink:title="Helper.h">
<polygon fill="none" stroke="#000000" points="194.5127,-56.5 194.5127,-75.5 247.5127,-75.5 247.5127,-56.5 194.5127,-56.5"/>
<text text-anchor="middle" x="221.0127" y="-63.5" font-family="Helvetica,sans-Serif" font-size="10.00" fill="#000000">Helper.h</text>
</a>
</g>
</g>
<!-- Node6&#45;&gt;Node8 -->
<g id="edge12" class="edge">
<title>Node6&#45;&gt;Node8</title>
<path fill="none" stroke="#191970" d="M329.493,-112.3733C308.2755,-103.3032 276.2851,-89.6279 252.5359,-79.4755"/>
<polygon fill="#191970" stroke="#191970" points="253.8094,-76.2136 243.2386,-75.5011 251.0579,-82.6502 253.8094,-76.2136"/>
</g>
<!-- Node9 -->
<g id="node10" class="node">
<title>Node9</title>
<polygon fill="none" stroke="#bfbfbf" points="139.0127,-.5 139.0127,-19.5 183.0127,-19.5 183.0127,-.5 139.0127,-.5"/>
<text text-anchor="middle" x="161.0127" y="-7.5" font-family="Helvetica,sans-Serif" font-size="10.00" fill="#000000">cmath</text>
</g>
<!-- Node8&#45;&gt;Node9 -->
<g id="edge13" class="edge">
<title>Node8&#45;&gt;Node9</title>
<path fill="none" stroke="#191970" d="M210.5615,-56.2455C201.7859,-48.0549 189.0573,-36.1749 178.6987,-26.5069"/>
<polygon fill="#191970" stroke="#191970" points="181.0429,-23.9072 171.3442,-19.6427 176.2666,-29.0246 181.0429,-23.9072"/>
</g>
<!-- Node10 -->
<g id="node11" class="node">
<title>Node10</title>
<polygon fill="none" stroke="#bfbfbf" points="201.0127,-.5 201.0127,-19.5 241.0127,-19.5 241.0127,-.5 201.0127,-.5"/>
<text text-anchor="middle" x="221.0127" y="-7.5" font-family="Helvetica,sans-Serif" font-size="10.00" fill="#000000">limits</text>
</g>
<!-- Node8&#45;&gt;Node10 -->
<g id="edge14" class="edge">
<title>Node8&#45;&gt;Node10</title>
<path fill="none" stroke="#191970" d="M221.0127,-56.2455C221.0127,-48.9382 221.0127,-38.6944 221.0127,-29.7046"/>
<polygon fill="#191970" stroke="#191970" points="224.5128,-29.6426 221.0127,-19.6427 217.5128,-29.6427 224.5128,-29.6426"/>
</g>
<!-- Node11 -->
<g id="node12" class="node">
<title>Node11</title>
<polygon fill="none" stroke="#bfbfbf" points="259.0127,-.5 259.0127,-19.5 305.0127,-19.5 305.0127,-.5 259.0127,-.5"/>
<text text-anchor="middle" x="282.0127" y="-7.5" font-family="Helvetica,sans-Serif" font-size="10.00" fill="#000000">cstdint</text>
</g>
<!-- Node8&#45;&gt;Node11 -->
<g id="edge15" class="edge">
<title>Node8&#45;&gt;Node11</title>
<path fill="none" stroke="#191970" d="M231.6381,-56.2455C240.56,-48.0549 253.5007,-36.1749 264.032,-26.5069"/>
<polygon fill="#191970" stroke="#191970" points="266.5095,-28.9837 271.5091,-19.6427 261.7756,-23.8271 266.5095,-28.9837"/>
</g>
<!-- Node12&#45;&gt;Node3 -->
<g id="edge17" class="edge">
<title>Node12&#45;&gt;Node3</title>
<path fill="none" stroke="#191970" d="M189.493,-112.3733C168.2755,-103.3032 136.2851,-89.6279 112.5359,-79.4755"/>
<polygon fill="#191970" stroke="#191970" points="113.8094,-76.2136 103.2386,-75.5011 111.0579,-82.6502 113.8094,-76.2136"/>
</g>
<!-- Node12&#45;&gt;Node5 -->
<g id="edge18" class="edge">
<title>Node12&#45;&gt;Node5</title>
<path fill="none" stroke="#191970" d="M201.3873,-112.2455C192.4654,-104.0549 179.5247,-92.1749 168.9935,-82.5069"/>
<polygon fill="#191970" stroke="#191970" points="171.2499,-79.8271 161.5163,-75.6427 166.5159,-84.9837 171.2499,-79.8271"/>
</g>
<!-- Node12&#45;&gt;Node8 -->
<g id="edge19" class="edge">
<title>Node12&#45;&gt;Node8</title>
<path fill="none" stroke="#191970" d="M213.5804,-112.2455C214.7548,-104.9382 216.4011,-94.6944 217.8459,-85.7046"/>
<polygon fill="#191970" stroke="#191970" points="221.3318,-86.0714 219.463,-75.6427 214.4205,-84.9606 221.3318,-86.0714"/>
</g>
<!-- Node13&#45;&gt;Node1 -->
<g id="edge22" class="edge">
<title>Node13&#45;&gt;Node1</title>
<path fill="none" stroke="#191970" d="M428.7174,-174.0175C350.471,-163.7316 142.2637,-136.3616 63.6453,-126.0268"/>
<polygon fill="#191970" stroke="#191970" points="63.8099,-122.5184 53.439,-124.6851 62.8975,-129.4587 63.8099,-122.5184"/>
</g>
<!-- Node13&#45;&gt;Node2 -->
<g id="edge23" class="edge">
<title>Node13&#45;&gt;Node2</title>
<path fill="none" stroke="#191970" d="M469.4996,-168.4509C490.4684,-149.3574 537.7879,-106.2697 563.8852,-82.5063"/>
<polygon fill="#191970" stroke="#191970" points="566.5148,-84.8455 571.5524,-75.5249 561.8019,-79.6697 566.5148,-84.8455"/>
</g>
<!-- Node13&#45;&gt;Node3 -->
<g id="edge21" class="edge">
<title>Node13&#45;&gt;Node3</title>
<path fill="none" stroke="#191970" d="M428.6861,-174.7522C365.63,-167.7242 222.4674,-150.2602 177.0127,-132 161.2863,-125.6823 125.0083,-99.3511 101.8266,-81.9176"/>
<polygon fill="#191970" stroke="#191970" points="103.7394,-78.9759 93.6533,-75.7319 99.515,-84.5576 103.7394,-78.9759"/>
</g>
<!-- Node13&#45;&gt;Node12 -->
<g id="edge31" class="edge">
<title>Node13&#45;&gt;Node12</title>
<path fill="none" stroke="#191970" d="M428.8397,-171.9789C389.6198,-164.0313 318.7961,-149.2683 248.6021,-132.0413"/>
<polygon fill="#191970" stroke="#191970" points="249.2527,-128.5969 238.705,-129.5946 247.5727,-135.3923 249.2527,-128.5969"/>
</g>
<!-- Node14 -->
<g id="node15" class="node">
<title>Node14</title>
<polygon fill="none" stroke="#bfbfbf" points="545.5127,-112.5 545.5127,-131.5 618.5127,-131.5 618.5127,-112.5 545.5127,-112.5"/>
<text text-anchor="middle" x="582.0127" y="-119.5" font-family="Helvetica,sans-Serif" font-size="10.00" fill="#000000">initializer_list</text>
</g>
<!-- Node13&#45;&gt;Node14 -->
<g id="edge24" class="edge">
<title>Node13&#45;&gt;Node14</title>
<path fill="none" stroke="#191970" d="M480.1572,-168.3733C499.9019,-159.3838 529.5826,-145.8706 551.8182,-135.7471"/>
<polygon fill="#191970" stroke="#191970" points="553.4933,-138.8302 561.1442,-131.5011 550.5928,-132.4594 553.4933,-138.8302"/>
</g>
<!-- Node15 -->
<g id="node16" class="node">
<title>Node15</title>
<polygon fill="none" stroke="#bfbfbf" points="437.0127,-112.5 437.0127,-131.5 489.0127,-131.5 489.0127,-112.5 437.0127,-112.5"/>
<text text-anchor="middle" x="463.0127" y="-119.5" font-family="Helvetica,sans-Serif" font-size="10.00" fill="#000000">sstream</text>
</g>
<!-- Node13&#45;&gt;Node15 -->
<g id="edge25" class="edge">
<title>Node13&#45;&gt;Node15</title>
<path fill="none" stroke="#191970" d="M459.7095,-168.2455C460.2314,-160.9382 460.9631,-150.6944 461.6052,-141.7046"/>
<polygon fill="#191970" stroke="#191970" points="465.1025,-141.8667 462.324,-131.6427 458.1203,-141.3679 465.1025,-141.8667"/>
</g>
<!-- Node13&#45;&gt;Node16 -->
<g id="edge26" class="edge">
<title>Node13&#45;&gt;Node16</title>
<path fill="none" stroke="#191970" d="M489.1353,-170.3899C492.4655,-169.5722 495.8092,-168.7615 499.0127,-168 556.8105,-154.2608 624.0679,-139.2916 665.0778,-130.2781"/>
<polygon fill="#191970" stroke="#191970" points="665.8993,-133.6812 674.9167,-128.1192 664.399,-126.8438 665.8993,-133.6812"/>
</g>
<!-- Node17 -->
<g id="node18" class="node">
<title>Node17</title>
<g id="a_node18"><a xlink:href="../../d0/ddc/BBox_8h.html" target="_top" xlink:title="BBox.h">
<polygon fill="none" stroke="#000000" points="256.5127,-112.5 256.5127,-131.5 305.5127,-131.5 305.5127,-112.5 256.5127,-112.5"/>
<text text-anchor="middle" x="281.0127" y="-119.5" font-family="Helvetica,sans-Serif" font-size="10.00" fill="#000000">BBox.h</text>
</a>
</g>
</g>
<!-- Node13&#45;&gt;Node17 -->
<g id="edge27" class="edge">
<title>Node13&#45;&gt;Node17</title>
<path fill="none" stroke="#191970" d="M428.8174,-168.5004C397.3563,-158.6025 348.1502,-143.1219 315.2597,-132.7743"/>
<polygon fill="#191970" stroke="#191970" points="316.2033,-129.4021 305.6139,-129.7397 314.1026,-136.0795 316.2033,-129.4021"/>
</g>
<!-- Node17&#45;&gt;Node7 -->
<g id="edge30" class="edge">
<title>Node17&#45;&gt;Node7</title>
<path fill="none" stroke="#191970" d="M296.3411,-112.2455C309.8431,-103.6534 329.7249,-91.0014 345.2813,-81.1018"/>
<polygon fill="#191970" stroke="#191970" points="347.3024,-83.9643 353.8599,-75.6427 343.5442,-78.0587 347.3024,-83.9643"/>
</g>
<!-- Node17&#45;&gt;Node8 -->
<g id="edge28" class="edge">
<title>Node17&#45;&gt;Node8</title>
<path fill="none" stroke="#191970" d="M270.5615,-112.2455C261.7859,-104.0549 249.0573,-92.1749 238.6987,-82.5069"/>
<polygon fill="#191970" stroke="#191970" points="241.0429,-79.9072 231.3442,-75.6427 236.2666,-85.0246 241.0429,-79.9072"/>
</g>
<!-- Node18 -->
<g id="node19" class="node">
<title>Node18</title>
<polygon fill="none" stroke="#bfbfbf" points="265.5127,-56.5 265.5127,-75.5 324.5127,-75.5 324.5127,-56.5 265.5127,-56.5"/>
<text text-anchor="middle" x="295.0127" y="-63.5" font-family="Helvetica,sans-Serif" font-size="10.00" fill="#000000">stdexcept</text>
</g>
<!-- Node17&#45;&gt;Node18 -->
<g id="edge29" class="edge">
<title>Node17&#45;&gt;Node18</title>
<path fill="none" stroke="#191970" d="M283.4513,-112.2455C285.2982,-104.8579 287.8955,-94.4689 290.1605,-85.4087"/>
<polygon fill="#191970" stroke="#191970" points="293.5721,-86.193 292.6021,-75.6427 286.7811,-84.4952 293.5721,-86.193"/>
</g>
<!-- Node19&#45;&gt;Node2 -->
<g id="edge34" class="edge">
<title>Node19&#45;&gt;Node2</title>
<path fill="none" stroke="#191970" d="M546.9969,-224.3492C570.062,-208.4345 613.1559,-174.2066 628.0127,-132 630.9641,-123.6154 631.4144,-120.2123 628.0127,-112 623.1815,-100.3363 613.799,-90.0881 604.7609,-82.243"/>
<polygon fill="#191970" stroke="#191970" points="606.6797,-79.2942 596.698,-75.7423 602.2861,-84.7436 606.6797,-79.2942"/>
</g>
<!-- Node19&#45;&gt;Node13 -->
<g id="edge33" class="edge">
<title>Node19&#45;&gt;Node13</title>
<path fill="none" stroke="#191970" d="M519.2971,-224.2455C508.4107,-215.8943 492.5244,-203.7076 479.7927,-193.9408"/>
<polygon fill="#191970" stroke="#191970" points="481.6473,-190.9523 471.5826,-187.6427 477.3866,-196.5063 481.6473,-190.9523"/>
</g>
<!-- Node19&#45;&gt;Node14 -->
<g id="edge36" class="edge">
<title>Node19&#45;&gt;Node14</title>
<path fill="none" stroke="#191970" d="M541.1233,-224.1638C548.8338,-215.3279 559.6219,-201.6752 566.0127,-188 572.8764,-173.3131 576.9827,-155.363 579.3137,-141.8921"/>
<polygon fill="#191970" stroke="#191970" points="582.8049,-142.2177 580.8756,-131.8 575.8872,-141.147 582.8049,-142.2177"/>
</g>
<!-- Node20 -->
<g id="node21" class="node">
<title>Node20</title>
<polygon fill="none" stroke="#bfbfbf" points="507.5127,-168.5 507.5127,-187.5 556.5127,-187.5 556.5127,-168.5 507.5127,-168.5"/>
<text text-anchor="middle" x="532.0127" y="-175.5" font-family="Helvetica,sans-Serif" font-size="10.00" fill="#000000">cassert</text>
</g>
<!-- Node19&#45;&gt;Node20 -->
<g id="edge35" class="edge">
<title>Node19&#45;&gt;Node20</title>
<path fill="none" stroke="#191970" d="M532.0127,-224.2455C532.0127,-216.9382 532.0127,-206.6944 532.0127,-197.7046"/>
<polygon fill="#191970" stroke="#191970" points="535.5128,-197.6426 532.0127,-187.6427 528.5128,-197.6427 535.5128,-197.6426"/>
</g>
<!-- Node21&#45;&gt;Node2 -->
<g id="edge38" class="edge">
<title>Node21&#45;&gt;Node2</title>
<path fill="none" stroke="#191970" d="M762.3279,-168.4434C771.9686,-154.6005 786.2419,-128.7935 773.0127,-112 753.595,-87.3505 663.4202,-74.3711 614.2323,-69.0199"/>
<polygon fill="#191970" stroke="#191970" points="614.4202,-65.5206 604.1109,-67.9636 613.6935,-72.4828 614.4202,-65.5206"/>
</g>
<!-- Node21&#45;&gt;Node6 -->
<g id="edge41" class="edge">
<title>Node21&#45;&gt;Node6</title>
<path fill="none" stroke="#191970" d="M713.4025,-172.2179C635.0375,-161.3285 466.625,-137.9263 390.6234,-127.3653"/>
<polygon fill="#191970" stroke="#191970" points="390.9181,-123.8727 380.5316,-125.9629 389.9546,-130.806 390.9181,-123.8727"/>
</g>
<!-- Node21&#45;&gt;Node7 -->
<g id="edge39" class="edge">
<title>Node21&#45;&gt;Node7</title>
<path fill="none" stroke="#191970" d="M755.9529,-168.2402C756.7632,-153.6526 755.8726,-126.3465 740.0127,-112 715.4413,-89.7732 494.0199,-73.7374 405.4181,-68.1579"/>
<polygon fill="#191970" stroke="#191970" points="405.4912,-64.6558 395.2935,-67.5296 405.0575,-71.6424 405.4912,-64.6558"/>
</g>
<!-- Node21&#45;&gt;Node16 -->
<g id="edge40" class="edge">
<title>Node21&#45;&gt;Node16</title>
<path fill="none" stroke="#191970" d="M745.955,-168.2455C738.4986,-160.2155 727.7493,-148.6394 718.871,-139.0781"/>
<polygon fill="#191970" stroke="#191970" points="721.336,-136.589 711.9666,-131.6427 716.2064,-141.3522 721.336,-136.589"/>
</g>
</g>
</svg>
