<?xml version="1.0" encoding="UTF-8" standalone="no"?>
<!DOCTYPE svg PUBLIC "-//W3C//DTD SVG 1.1//EN"
 "http://www.w3.org/Graphics/SVG/1.1/DTD/svg11.dtd">
<!-- Generated by graphviz version 2.40.1 (20161225.0304)
 -->
<!-- Title: /home/runner/work/AliceO2/AliceO2/CCDB/include/CCDB/CCDBQuery.h Pages: 1 -->
<svg width="177pt" height="106pt"
 viewBox="0.00 0.00 176.50 106.00" xmlns="http://www.w3.org/2000/svg" xmlns:xlink="http://www.w3.org/1999/xlink">
<g id="graph0" class="graph" transform="scale(1 1) rotate(0) translate(4 102)">
<title>/home/runner/work/AliceO2/AliceO2/CCDB/include/CCDB/CCDBQuery.h</title>
<!-- Node0 -->
<g id="node1" class="node">
<title>Node0</title>
<polygon fill="#bfbfbf" stroke="#000000" points=".5,-56.5 .5,-97.5 152.5,-97.5 152.5,-56.5 .5,-56.5"/>
<text text-anchor="start" x="8.5" y="-85.5" font-family="Helvetica,sans-Serif" font-size="10.00" fill="#000000">/home/runner/work/AliceO2</text>
<text text-anchor="start" x="8.5" y="-74.5" font-family="Helvetica,sans-Serif" font-size="10.00" fill="#000000">/AliceO2/CCDB/include/CCDB</text>
<text text-anchor="middle" x="76.5" y="-63.5" font-family="Helvetica,sans-Serif" font-size="10.00" fill="#000000">/CCDBQuery.h</text>
</g>
<!-- Node1 -->
<g id="node2" class="node">
<title>Node1</title>
<polygon fill="none" stroke="#bfbfbf" points="0,-.5 0,-19.5 41,-19.5 41,-.5 0,-.5"/>
<text text-anchor="middle" x="20.5" y="-7.5" font-family="Helvetica,sans-Serif" font-size="10.00" fill="#000000">string</text>
</g>
<!-- Node0&#45;&gt;Node1 -->
<g id="edge1" class="edge">
<title>Node0&#45;&gt;Node1</title>
<path fill="none" stroke="#191970" d="M59.0882,-56.168C51.3995,-46.9691 42.4617,-36.2756 35.1251,-27.4979"/>
<polygon fill="#191970" stroke="#191970" points="37.7734,-25.2087 28.6747,-19.7805 32.4024,-29.6979 37.7734,-25.2087"/>
</g>
<!-- Node2 -->
<g id="node3" class="node">
<title>Node2</title>
<polygon fill="none" stroke="#bfbfbf" points="59,-.5 59,-19.5 94,-19.5 94,-.5 59,-.5"/>
<text text-anchor="middle" x="76.5" y="-7.5" font-family="Helvetica,sans-Serif" font-size="10.00" fill="#000000">map</text>
</g>
<!-- Node0&#45;&gt;Node2 -->
<g id="edge2" class="edge">
<title>Node0&#45;&gt;Node2</title>
<path fill="none" stroke="#191970" d="M76.5,-56.168C76.5,-47.8226 76.5,-38.2471 76.5,-29.9879"/>
<polygon fill="#191970" stroke="#191970" points="80.0001,-29.7804 76.5,-19.7805 73.0001,-29.7805 80.0001,-29.7804"/>
</g>
<!-- Node3 -->
<g id="node4" class="node">
<title>Node3</title>
<polygon fill="none" stroke="#bfbfbf" points="112.5,-.5 112.5,-19.5 168.5,-19.5 168.5,-.5 112.5,-.5"/>
<text text-anchor="middle" x="140.5" y="-7.5" font-family="Helvetica,sans-Serif" font-size="10.00" fill="#000000">Rtypes.h</text>
</g>
<!-- Node0&#45;&gt;Node3 -->
<g id="edge3" class="edge">
<title>Node0&#45;&gt;Node3</title>
<path fill="none" stroke="#191970" d="M96.3992,-56.168C105.2768,-46.8742 115.6117,-36.0549 124.0444,-27.227"/>
<polygon fill="#191970" stroke="#191970" points="126.781,-29.4292 131.1575,-19.7805 121.7192,-24.594 126.781,-29.4292"/>
</g>
</g>
</svg>
