<?xml version="1.0" encoding="UTF-8" standalone="no"?>
<!DOCTYPE svg PUBLIC "-//W3C//DTD SVG 1.1//EN"
 "http://www.w3.org/Graphics/SVG/1.1/DTD/svg11.dtd">
<!-- Generated by graphviz version 2.40.1 (20161225.0304)
 -->
<!-- Title: /home/runner/work/AliceO2/AliceO2/Analysis/DataModel/include/PIDBase/DetectorResponse.h Pages: 1 -->
<!--zoomable 229 -->
<svg id="main" version="1.1" xmlns="http://www.w3.org/2000/svg" xmlns:xlink="http://www.w3.org/1999/xlink" xml:space="preserve" onload="init(evt)">
<style type="text/css"><![CDATA[
.edge:hover path { stroke: red; }
.edge:hover polygon { stroke: red; fill: red; }
]]></style>
<script type="text/javascript"><![CDATA[
var edges = document.getElementsByTagName('g');
if (edges && edges.length) {
  for (var i=0;i<edges.length;i++) {
    if (edges[i].id.substr(0,4)=='edge') {
      edges[i].setAttribute('class','edge');
    }
  }
}
]]></script>
        <defs>
                <circle id="rim" cx="0" cy="0" r="7"/>
                <circle id="rim2" cx="0" cy="0" r="3.5"/>
                <g id="zoomPlus">
                        <use xlink:href="#rim" fill="#404040">
                                <set attributeName="fill" to="#808080" begin="zoomplus.mouseover" end="zoomplus.mouseout"/>
                        </use>
                        <path d="M-4,0h8M0,-4v8" fill="none" stroke="white" stroke-width="1.5" pointer-events="none"/>
                </g>
                <g id="zoomMin">
                        <use xlink:href="#rim" fill="#404040">
                                <set attributeName="fill" to="#808080" begin="zoomminus.mouseover" end="zoomminus.mouseout"/>
                        </use>
                        <path d="M-4,0h8" fill="none" stroke="white" stroke-width="1.5" pointer-events="none"/>
                </g>
                <g id="dirArrow">
                        <path fill="none" stroke="white" stroke-width="1.5" d="M0,-3.0v7 M-2.5,-0.5L0,-3.0L2.5,-0.5"/>
                </g>
               <g id="resetDef">
                       <use xlink:href="#rim2" fill="#404040">
                               <set attributeName="fill" to="#808080" begin="reset.mouseover" end="reset.mouseout"/>
                       </use>
               </g>
        </defs>

<script type="text/javascript">
var viewWidth = 715;
var viewHeight = 229;
var sectionId = 'dynsection-0';
</script>
<script xlink:href="../../svgpan.js"/>
<svg id="graph" class="graph">
<g id="viewport">
<title>/home/runner/work/AliceO2/AliceO2/Analysis/DataModel/include/PIDBase/DetectorResponse.h</title>
<!-- Node0 -->
<g id="node1" class="node">
<title>Node0</title>
<polygon fill="#bfbfbf" stroke="#000000" points="186,-179.5 186,-220.5 372,-220.5 372,-179.5 186,-179.5"/>
<text text-anchor="start" x="194" y="-208.5" font-family="Helvetica,sans-Serif" font-size="10.00" fill="#000000">/home/runner/work/AliceO2</text>
<text text-anchor="start" x="194" y="-197.5" font-family="Helvetica,sans-Serif" font-size="10.00" fill="#000000">/AliceO2/Analysis/DataModel</text>
<text text-anchor="middle" x="279" y="-186.5" font-family="Helvetica,sans-Serif" font-size="10.00" fill="#000000">/include/PIDBase/DetectorResponse.h</text>
</g>
<!-- Node1 -->
<g id="node2" class="node">
<title>Node1</title>
<polygon fill="none" stroke="#bfbfbf" points="0,-118 0,-137 38,-137 38,-118 0,-118"/>
<text text-anchor="middle" x="19" y="-125" font-family="Helvetica,sans-Serif" font-size="10.00" fill="#000000">array</text>
</g>
<!-- Node0&#45;&gt;Node1 -->
<g id="edge1" class="edge">
<title>Node0&#45;&gt;Node1</title>
<path fill="none" stroke="#191970" d="M185.8082,-183.0016C142.7406,-173.6612 91.4129,-160.3924 47,-143 45.9653,-142.5948 44.9213,-142.1583 43.8759,-141.6979"/>
<polygon fill="#191970" stroke="#191970" points="45.1498,-138.4226 34.637,-137.1067 42.0346,-144.6913 45.1498,-138.4226"/>
</g>
<!-- Node2 -->
<g id="node3" class="node">
<title>Node2</title>
<polygon fill="none" stroke="#bfbfbf" points="56,-118 56,-137 100,-137 100,-118 56,-118"/>
<text text-anchor="middle" x="78" y="-125" font-family="Helvetica,sans-Serif" font-size="10.00" fill="#000000">vector</text>
</g>
<!-- Node0&#45;&gt;Node2 -->
<g id="edge2" class="edge">
<title>Node0&#45;&gt;Node2</title>
<path fill="none" stroke="#191970" d="M210.3614,-179.4045C179.0696,-169.4009 141.7735,-156.6091 109,-143 107.8122,-142.5068 106.6066,-141.9878 105.3945,-141.4509"/>
<polygon fill="#191970" stroke="#191970" points="106.7008,-138.1976 96.1617,-137.1117 103.7233,-144.5329 106.7008,-138.1976"/>
</g>
<!-- Node3 -->
<g id="node4" class="node">
<title>Node3</title>
<g id="a_node4"><a xlink:href="../../dd/da4/Logger_8h.html" target="_top" xlink:title="Framework/Logger.h">
<polygon fill="none" stroke="#000000" points="118,-118 118,-137 224,-137 224,-118 118,-118"/>
<text text-anchor="middle" x="171" y="-125" font-family="Helvetica,sans-Serif" font-size="10.00" fill="#000000">Framework/Logger.h</text>
</a>
</g>
</g>
<!-- Node0&#45;&gt;Node3 -->
<g id="edge3" class="edge">
<title>Node0&#45;&gt;Node3</title>
<path fill="none" stroke="#191970" d="M248.3404,-179.4183C231.0329,-167.7999 209.7643,-153.5223 193.9141,-142.8822"/>
<polygon fill="#191970" stroke="#191970" points="195.5324,-139.753 185.2789,-137.0853 191.6308,-145.5649 195.5324,-139.753"/>
</g>
<!-- Node5 -->
<g id="node6" class="node">
<title>Node5</title>
<polygon fill="none" stroke="#bfbfbf" points="267,-.5 267,-19.5 323,-19.5 323,-.5 267,-.5"/>
<text text-anchor="middle" x="295" y="-7.5" font-family="Helvetica,sans-Serif" font-size="10.00" fill="#000000">Rtypes.h</text>
</g>
<!-- Node0&#45;&gt;Node5 -->
<g id="edge5" class="edge">
<title>Node0&#45;&gt;Node5</title>
<path fill="none" stroke="#191970" d="M274.0701,-179.1407C268.2225,-150.8126 260.506,-98.8001 271,-56 273.3743,-46.3164 278.1821,-36.4071 282.8753,-28.2776"/>
<polygon fill="#191970" stroke="#191970" points="285.9119,-30.0214 288.1792,-19.672 279.9528,-26.3486 285.9119,-30.0214"/>
</g>
<!-- Node6 -->
<g id="node7" class="node">
<title>Node6</title>
<polygon fill="none" stroke="#bfbfbf" points="280.5,-118 280.5,-137 333.5,-137 333.5,-118 280.5,-118"/>
<text text-anchor="middle" x="307" y="-125" font-family="Helvetica,sans-Serif" font-size="10.00" fill="#000000">TMath.h</text>
</g>
<!-- Node0&#45;&gt;Node6 -->
<g id="edge6" class="edge">
<title>Node0&#45;&gt;Node6</title>
<path fill="none" stroke="#191970" d="M286.9488,-179.4183C290.9327,-169.1029 295.7261,-156.6913 299.6272,-146.5904"/>
<polygon fill="#191970" stroke="#191970" points="302.9603,-147.6748 303.2981,-137.0853 296.4303,-145.1529 302.9603,-147.6748"/>
</g>
<!-- Node7 -->
<g id="node8" class="node">
<title>Node7</title>
<polygon fill="none" stroke="#bfbfbf" points="351.5,-118 351.5,-137 398.5,-137 398.5,-118 351.5,-118"/>
<text text-anchor="middle" x="375" y="-125" font-family="Helvetica,sans-Serif" font-size="10.00" fill="#000000">TFile.h</text>
</g>
<!-- Node0&#45;&gt;Node7 -->
<g id="edge7" class="edge">
<title>Node0&#45;&gt;Node7</title>
<path fill="none" stroke="#191970" d="M306.253,-179.4183C321.4936,-167.9085 340.1898,-153.789 354.2356,-143.1815"/>
<polygon fill="#191970" stroke="#191970" points="356.437,-145.905 362.3077,-137.0853 352.2183,-140.3189 356.437,-145.905"/>
</g>
<!-- Node8 -->
<g id="node9" class="node">
<title>Node8</title>
<g id="a_node9"><a xlink:href="../../d5/d08/DataFormats_2Reconstruction_2include_2ReconstructionDataFormats_2PID_8h.html" target="_top" xlink:title="ReconstructionDataFormats\l/PID.h">
<polygon fill="none" stroke="#000000" points="417,-112.5 417,-142.5 557,-142.5 557,-112.5 417,-112.5"/>
<text text-anchor="start" x="425" y="-130.5" font-family="Helvetica,sans-Serif" font-size="10.00" fill="#000000">ReconstructionDataFormats</text>
<text text-anchor="middle" x="487" y="-119.5" font-family="Helvetica,sans-Serif" font-size="10.00" fill="#000000">/PID.h</text>
</a>
</g>
</g>
<!-- Node0&#45;&gt;Node8 -->
<g id="edge8" class="edge">
<title>Node0&#45;&gt;Node8</title>
<path fill="none" stroke="#191970" d="M338.0481,-179.4183C368.2621,-168.887 404.744,-156.171 434.0407,-145.9594"/>
<polygon fill="#191970" stroke="#191970" points="435.3904,-149.1955 443.6812,-142.5991 433.0864,-142.5856 435.3904,-149.1955"/>
</g>
<!-- Node11 -->
<g id="node12" class="node">
<title>Node11</title>
<g id="a_node12"><a xlink:href="../../d0/ded/ParamBase_8h.html" target="_top" xlink:title="Set of utilities to handle the parametrization of the PID response for each detector These are the ba...">
<polygon fill="none" stroke="#000000" points="587.5,-118 587.5,-137 706.5,-137 706.5,-118 587.5,-118"/>
<text text-anchor="middle" x="647" y="-125" font-family="Helvetica,sans-Serif" font-size="10.00" fill="#000000">PIDBase/ParamBase.h</text>
</a>
</g>
</g>
<!-- Node0&#45;&gt;Node11 -->
<g id="edge12" class="edge">
<title>Node0&#45;&gt;Node11</title>
<path fill="none" stroke="#191970" d="M372.3377,-181.6115C440.3343,-168.2154 530.3531,-150.4807 588.4747,-139.0301"/>
<polygon fill="#191970" stroke="#191970" points="589.4523,-142.4049 598.5871,-137.0379 588.0991,-135.5369 589.4523,-142.4049"/>
</g>
<!-- Node4 -->
<g id="node5" class="node">
<title>Node4</title>
<polygon fill="none" stroke="#bfbfbf" points="122.5,-56.5 122.5,-75.5 219.5,-75.5 219.5,-56.5 122.5,-56.5"/>
<text text-anchor="middle" x="171" y="-63.5" font-family="Helvetica,sans-Serif" font-size="10.00" fill="#000000">fairlogger/Logger.h</text>
</g>
<!-- Node3&#45;&gt;Node4 -->
<g id="edge4" class="edge">
<title>Node3&#45;&gt;Node4</title>
<path fill="none" stroke="#191970" d="M171,-117.8906C171,-109.3657 171,-96.6392 171,-85.9235"/>
<polygon fill="#191970" stroke="#191970" points="174.5001,-85.7448 171,-75.7449 167.5001,-85.7449 174.5001,-85.7448"/>
</g>
<!-- Node9 -->
<g id="node10" class="node">
<title>Node9</title>
<g id="a_node10"><a xlink:href="../../d2/d45/GPUCommonRtypes_8h.html" target="_top" xlink:title="GPUCommonRtypes.h">
<polygon fill="none" stroke="#000000" points="280,-56.5 280,-75.5 398,-75.5 398,-56.5 280,-56.5"/>
<text text-anchor="middle" x="339" y="-63.5" font-family="Helvetica,sans-Serif" font-size="10.00" fill="#000000">GPUCommonRtypes.h</text>
</a>
</g>
</g>
<!-- Node8&#45;&gt;Node9 -->
<g id="edge9" class="edge">
<title>Node8&#45;&gt;Node9</title>
<path fill="none" stroke="#191970" d="M450.7951,-112.4554C426.5342,-102.374 394.8644,-89.2139 371.4288,-79.4755"/>
<polygon fill="#191970" stroke="#191970" points="372.5123,-76.1356 361.9347,-75.5303 369.8261,-82.5997 372.5123,-76.1356"/>
</g>
<!-- Node10 -->
<g id="node11" class="node">
<title>Node10</title>
<g id="a_node11"><a xlink:href="../../d3/d9d/PhysicsConstants_8h.html" target="_top" xlink:title="Header to collect physics constants. ">
<polygon fill="none" stroke="#000000" points="416.5,-56.5 416.5,-75.5 609.5,-75.5 609.5,-56.5 416.5,-56.5"/>
<text text-anchor="middle" x="513" y="-63.5" font-family="Helvetica,sans-Serif" font-size="10.00" fill="#000000">CommonConstants/PhysicsConstants.h</text>
</a>
</g>
</g>
<!-- Node8&#45;&gt;Node10 -->
<g id="edge11" class="edge">
<title>Node8&#45;&gt;Node10</title>
<path fill="none" stroke="#191970" d="M493.427,-112.2977C496.8857,-104.1166 501.1867,-93.943 504.8754,-85.2179"/>
<polygon fill="#191970" stroke="#191970" points="508.1668,-86.4205 508.8371,-75.8469 501.7193,-83.6947 508.1668,-86.4205"/>
</g>
<!-- Node9&#45;&gt;Node5 -->
<g id="edge10" class="edge">
<title>Node9&#45;&gt;Node5</title>
<path fill="none" stroke="#191970" d="M331.3358,-56.2455C325.1527,-48.3761 316.2937,-37.101 308.8711,-27.6542"/>
<polygon fill="#191970" stroke="#191970" points="311.5068,-25.3435 302.5764,-19.6427 306.0025,-29.6683 311.5068,-25.3435"/>
</g>
<!-- Node12 -->
<g id="node13" class="node">
<title>Node12</title>
<polygon fill="none" stroke="#bfbfbf" points="628,-56.5 628,-75.5 690,-75.5 690,-56.5 628,-56.5"/>
<text text-anchor="middle" x="659" y="-63.5" font-family="Helvetica,sans-Serif" font-size="10.00" fill="#000000">TNamed.h</text>
</g>
<!-- Node11&#45;&gt;Node12 -->
<g id="edge13" class="edge">
<title>Node11&#45;&gt;Node12</title>
<path fill="none" stroke="#191970" d="M648.875,-117.8906C650.5559,-109.276 653.074,-96.3708 655.1784,-85.5858"/>
<polygon fill="#191970" stroke="#191970" points="658.6186,-86.2301 657.0986,-75.7449 651.7482,-84.8895 658.6186,-86.2301"/>
</g>
</g>
</svg>
        <g id="navigator" transform="translate(0 0)" fill="#404254">
                <rect fill="#f2f5e9" fill-opacity="0.5" stroke="#606060" stroke-width=".5" x="0" y="0" width="60" height="60"/>
                <use id="zoomplus" xlink:href="#zoomPlus" x="17" y="9" onmousedown="handleZoom(evt,'in')"/>
                <use id="zoomminus" xlink:href="#zoomMin" x="42" y="9" onmousedown="handleZoom(evt,'out')"/>
                <use id="reset" xlink:href="#resetDef" x="30" y="36" onmousedown="handleReset()"/>
                <g id="arrowUp" xlink:href="#dirArrow" transform="translate(30 24)" onmousedown="handlePan(0,-1)">
                  <use xlink:href="#rim" fill="#404040">
                        <set attributeName="fill" to="#808080" begin="arrowUp.mouseover" end="arrowUp.mouseout"/>
                  </use>
                  <path fill="none" stroke="white" stroke-width="1.5" d="M0,-3.0v7 M-2.5,-0.5L0,-3.0L2.5,-0.5"/>
                </g>
                <g id="arrowRight" xlink:href="#dirArrow" transform="rotate(90) translate(36 -43)" onmousedown="handlePan(1,0)">
                  <use xlink:href="#rim" fill="#404040">
                        <set attributeName="fill" to="#808080" begin="arrowRight.mouseover" end="arrowRight.mouseout"/>
                  </use>
                  <path fill="none" stroke="white" stroke-width="1.5" d="M0,-3.0v7 M-2.5,-0.5L0,-3.0L2.5,-0.5"/>
                </g>
                <g id="arrowDown" xlink:href="#dirArrow" transform="rotate(180) translate(-30 -48)" onmousedown="handlePan(0,1)">
                  <use xlink:href="#rim" fill="#404040">
                        <set attributeName="fill" to="#808080" begin="arrowDown.mouseover" end="arrowDown.mouseout"/>
                  </use>
                  <path fill="none" stroke="white" stroke-width="1.5" d="M0,-3.0v7 M-2.5,-0.5L0,-3.0L2.5,-0.5"/>
                </g>
                <g id="arrowLeft" xlink:href="#dirArrow" transform="rotate(270) translate(-36 17)" onmousedown="handlePan(-1,0)">
                  <use xlink:href="#rim" fill="#404040">
                        <set attributeName="fill" to="#808080" begin="arrowLeft.mouseover" end="arrowLeft.mouseout"/>
                  </use>
                  <path fill="none" stroke="white" stroke-width="1.5" d="M0,-3.0v7 M-2.5,-0.5L0,-3.0L2.5,-0.5"/>
                </g>
        </g>
        <svg viewBox="0 0 15 15" width="100%" height="30px" preserveAspectRatio="xMaxYMin meet">
         <g id="arrow_out" transform="scale(0.3 0.3)">
          <a xlink:href="DetectorResponse_8h__incl_org.svg" target="_base">
           <rect id="button" ry="5" rx="5" y="6" x="6" height="38" width="38"
                fill="#f2f5e9" fill-opacity="0.5" stroke="#606060" stroke-width="1.0"/>
           <path id="arrow"
             d="M 11.500037,31.436501 C 11.940474,20.09759 22.043105,11.32322 32.158766,21.979434 L 37.068811,17.246167 C 37.068811,17.246167 37.088388,32 37.088388,32 L 22.160133,31.978069 C 22.160133,31.978069 26.997745,27.140456 26.997745,27.140456 C 18.528582,18.264221 13.291696,25.230495 11.500037,31.436501 z"
             style="fill:#404040;"/>
          </a>
         </g>
        </svg>
</svg>
