<?xml version="1.0" encoding="UTF-8" standalone="no"?>
<!DOCTYPE svg PUBLIC "-//W3C//DTD SVG 1.1//EN"
 "http://www.w3.org/Graphics/SVG/1.1/DTD/svg11.dtd">
<!-- Generated by graphviz version 2.40.1 (20161225.0304)
 -->
<!-- Title: /home/runner/work/AliceO2/AliceO2/Detectors/ZDC/simulation/include/ZDCSimulation/Hit.h Pages: 1 -->
<svg width="657pt" height="284pt"
 viewBox="0.00 0.00 657.00 284.00" xmlns="http://www.w3.org/2000/svg" xmlns:xlink="http://www.w3.org/1999/xlink">
<g id="graph0" class="graph" transform="scale(1 1) rotate(0) translate(4 280)">
<title>/home/runner/work/AliceO2/AliceO2/Detectors/ZDC/simulation/include/ZDCSimulation/Hit.h</title>
<!-- Node26 -->
<g id="node1" class="node">
<title>Node26</title>
<polygon fill="#bfbfbf" stroke="#000000" points="223.5,-234.5 223.5,-275.5 414.5,-275.5 414.5,-234.5 223.5,-234.5"/>
<text text-anchor="start" x="231.5" y="-263.5" font-family="Helvetica,sans-Serif" font-size="10.00" fill="#000000">/home/runner/work/AliceO2</text>
<text text-anchor="start" x="231.5" y="-252.5" font-family="Helvetica,sans-Serif" font-size="10.00" fill="#000000">/AliceO2/Detectors/ZDC</text>
<text text-anchor="middle" x="319" y="-241.5" font-family="Helvetica,sans-Serif" font-size="10.00" fill="#000000">/simulation/include/ZDCSimulation/Hit.h</text>
</g>
<!-- Node27 -->
<g id="node2" class="node">
<title>Node27</title>
<g id="a_node2"><a xlink:href="../../de/d29/ZDC_2simulation_2include_2ZDCSimulation_2Detector_8h.html" target="_top" xlink:title="/home/runner/work/AliceO2\l/AliceO2/Detectors/ZDC\l/simulation/include/ZDCSimulation\l/Detector.h">
<polygon fill="none" stroke="#000000" points="143.5,-145.5 143.5,-197.5 310.5,-197.5 310.5,-145.5 143.5,-145.5"/>
<text text-anchor="start" x="151.5" y="-185.5" font-family="Helvetica,sans-Serif" font-size="10.00" fill="#000000">/home/runner/work/AliceO2</text>
<text text-anchor="start" x="151.5" y="-174.5" font-family="Helvetica,sans-Serif" font-size="10.00" fill="#000000">/AliceO2/Detectors/ZDC</text>
<text text-anchor="start" x="151.5" y="-163.5" font-family="Helvetica,sans-Serif" font-size="10.00" fill="#000000">/simulation/include/ZDCSimulation</text>
<text text-anchor="middle" x="227" y="-152.5" font-family="Helvetica,sans-Serif" font-size="10.00" fill="#000000">/Detector.h</text>
</a>
</g>
</g>
<!-- Node26&#45;&gt;Node27 -->
<g id="edge1" class="edge">
<title>Node26&#45;&gt;Node27</title>
<path fill="none" stroke="#191970" d="M288.7847,-227.5763C278.1577,-217.9311 266.2516,-207.1251 255.7487,-197.5925"/>
<polygon fill="#191970" stroke="#191970" points="286.5013,-230.2305 296.2584,-234.3595 291.2058,-225.0471 286.5013,-230.2305"/>
</g>
<!-- Node28 -->
<g id="node3" class="node">
<title>Node28</title>
<g id="a_node3"><a xlink:href="../../df/dac/ZDC_2simulation_2src_2Detector_8cxx.html" target="_top" xlink:title="/home/runner/work/AliceO2\l/AliceO2/Detectors/ZDC\l/simulation/src/Detector.cxx">
<polygon fill="none" stroke="#000000" points="0,-67.5 0,-108.5 140,-108.5 140,-67.5 0,-67.5"/>
<text text-anchor="start" x="8" y="-96.5" font-family="Helvetica,sans-Serif" font-size="10.00" fill="#000000">/home/runner/work/AliceO2</text>
<text text-anchor="start" x="8" y="-85.5" font-family="Helvetica,sans-Serif" font-size="10.00" fill="#000000">/AliceO2/Detectors/ZDC</text>
<text text-anchor="middle" x="70" y="-74.5" font-family="Helvetica,sans-Serif" font-size="10.00" fill="#000000">/simulation/src/Detector.cxx</text>
</a>
</g>
</g>
<!-- Node26&#45;&gt;Node28 -->
<g id="edge10" class="edge">
<title>Node26&#45;&gt;Node28</title>
<path fill="none" stroke="#191970" d="M213.2859,-236.9873C185.4406,-228.5316 156.8327,-216.1401 134,-198 104.4182,-174.4979 85.8002,-133.3131 76.6979,-108.5548"/>
<polygon fill="#191970" stroke="#191970" points="212.5142,-240.4074 223.0925,-239.8171 214.4549,-233.6818 212.5142,-240.4074"/>
</g>
<!-- Node32 -->
<g id="node7" class="node">
<title>Node32</title>
<g id="a_node7"><a xlink:href="../../db/de7/ZDC_2simulation_2include_2ZDCSimulation_2Digitizer_8h.html" target="_top" xlink:title="/home/runner/work/AliceO2\l/AliceO2/Detectors/ZDC\l/simulation/include/ZDCSimulation\l/Digitizer.h">
<polygon fill="none" stroke="#000000" points="328.5,-145.5 328.5,-197.5 495.5,-197.5 495.5,-145.5 328.5,-145.5"/>
<text text-anchor="start" x="336.5" y="-185.5" font-family="Helvetica,sans-Serif" font-size="10.00" fill="#000000">/home/runner/work/AliceO2</text>
<text text-anchor="start" x="336.5" y="-174.5" font-family="Helvetica,sans-Serif" font-size="10.00" fill="#000000">/AliceO2/Detectors/ZDC</text>
<text text-anchor="start" x="336.5" y="-163.5" font-family="Helvetica,sans-Serif" font-size="10.00" fill="#000000">/simulation/include/ZDCSimulation</text>
<text text-anchor="middle" x="412" y="-152.5" font-family="Helvetica,sans-Serif" font-size="10.00" fill="#000000">/Digitizer.h</text>
</a>
</g>
</g>
<!-- Node26&#45;&gt;Node32 -->
<g id="edge7" class="edge">
<title>Node26&#45;&gt;Node32</title>
<path fill="none" stroke="#191970" d="M349.5437,-227.5763C360.2863,-217.9311 372.3218,-207.1251 382.9389,-197.5925"/>
<polygon fill="#191970" stroke="#191970" points="347.0914,-225.0744 341.9888,-234.3595 351.768,-230.283 347.0914,-225.0744"/>
</g>
<!-- Node33 -->
<g id="node8" class="node">
<title>Node33</title>
<g id="a_node8"><a xlink:href="../../db/d83/ZDC_2simulation_2src_2Digitizer_8cxx.html" target="_top" xlink:title="/home/runner/work/AliceO2\l/AliceO2/Detectors/ZDC\l/simulation/src/Digitizer.cxx">
<polygon fill="none" stroke="#000000" points="511,-67.5 511,-108.5 649,-108.5 649,-67.5 511,-67.5"/>
<text text-anchor="start" x="519" y="-96.5" font-family="Helvetica,sans-Serif" font-size="10.00" fill="#000000">/home/runner/work/AliceO2</text>
<text text-anchor="start" x="519" y="-85.5" font-family="Helvetica,sans-Serif" font-size="10.00" fill="#000000">/AliceO2/Detectors/ZDC</text>
<text text-anchor="middle" x="580" y="-74.5" font-family="Helvetica,sans-Serif" font-size="10.00" fill="#000000">/simulation/src/Digitizer.cxx</text>
</a>
</g>
</g>
<!-- Node26&#45;&gt;Node33 -->
<g id="edge11" class="edge">
<title>Node26&#45;&gt;Node33</title>
<path fill="none" stroke="#191970" d="M424.6748,-235.5445C452.245,-227.0916 480.7229,-215.0624 504,-198 536.0132,-174.534 559.1686,-133.3371 571.016,-108.5667"/>
<polygon fill="#191970" stroke="#191970" points="423.5833,-232.2171 414.9708,-238.3876 425.5515,-238.9347 423.5833,-232.2171"/>
</g>
<!-- Node27&#45;&gt;Node28 -->
<g id="edge2" class="edge">
<title>Node27&#45;&gt;Node28</title>
<path fill="none" stroke="#191970" d="M168.6951,-140.4907C148.6427,-129.8259 126.704,-118.1579 108.6139,-108.5367"/>
<polygon fill="#191970" stroke="#191970" points="167.2825,-143.7036 177.755,-145.3092 170.5695,-137.5233 167.2825,-143.7036"/>
</g>
<!-- Node29 -->
<g id="node4" class="node">
<title>Node29</title>
<g id="a_node4"><a xlink:href="../../db/d50/O2HitMerger_8h.html" target="_top" xlink:title="/home/runner/work/AliceO2\l/AliceO2/run/O2HitMerger.h">
<polygon fill="none" stroke="#000000" points="158.5,-73 158.5,-103 295.5,-103 295.5,-73 158.5,-73"/>
<text text-anchor="start" x="166.5" y="-91" font-family="Helvetica,sans-Serif" font-size="10.00" fill="#000000">/home/runner/work/AliceO2</text>
<text text-anchor="middle" x="227" y="-80" font-family="Helvetica,sans-Serif" font-size="10.00" fill="#000000">/AliceO2/run/O2HitMerger.h</text>
</a>
</g>
</g>
<!-- Node27&#45;&gt;Node29 -->
<g id="edge3" class="edge">
<title>Node27&#45;&gt;Node29</title>
<path fill="none" stroke="#191970" d="M227,-135.0731C227,-123.917 227,-112.2455 227,-103.3152"/>
<polygon fill="#191970" stroke="#191970" points="223.5001,-135.08 227,-145.0801 230.5001,-135.0801 223.5001,-135.08"/>
</g>
<!-- Node31 -->
<g id="node6" class="node">
<title>Node31</title>
<g id="a_node6"><a xlink:href="../../d1/d1a/ZDCDigitizerSpec_8cxx.html" target="_top" xlink:title="/home/runner/work/AliceO2\l/AliceO2/Steer/DigitizerWorkflow\l/src/ZDCDigitizerSpec.cxx">
<polygon fill="none" stroke="#000000" points="331.5,-67.5 331.5,-108.5 492.5,-108.5 492.5,-67.5 331.5,-67.5"/>
<text text-anchor="start" x="339.5" y="-96.5" font-family="Helvetica,sans-Serif" font-size="10.00" fill="#000000">/home/runner/work/AliceO2</text>
<text text-anchor="start" x="339.5" y="-85.5" font-family="Helvetica,sans-Serif" font-size="10.00" fill="#000000">/AliceO2/Steer/DigitizerWorkflow</text>
<text text-anchor="middle" x="412" y="-74.5" font-family="Helvetica,sans-Serif" font-size="10.00" fill="#000000">/src/ZDCDigitizerSpec.cxx</text>
</a>
</g>
</g>
<!-- Node27&#45;&gt;Node31 -->
<g id="edge6" class="edge">
<title>Node27&#45;&gt;Node31</title>
<path fill="none" stroke="#191970" d="M294.1813,-141.1776C318.1723,-130.3492 344.6253,-118.4097 366.3772,-108.5919"/>
<polygon fill="#191970" stroke="#191970" points="292.4489,-138.1195 284.7742,-145.4235 295.3287,-144.4997 292.4489,-138.1195"/>
</g>
<!-- Node29&#45;&gt;Node29 -->
<g id="edge4" class="edge">
<title>Node29&#45;&gt;Node29</title>
<path fill="none" stroke="#191970" d="M305.1838,-97.6584C310.3619,-95.4184 313.5,-92.199 313.5,-88 313.5,-81.6016 306.2134,-77.4776 295.5253,-75.628"/>
<polygon fill="#191970" stroke="#191970" points="304.2058,-94.2975 295.5253,-100.372 306.0993,-101.0366 304.2058,-94.2975"/>
</g>
<!-- Node30 -->
<g id="node5" class="node">
<title>Node30</title>
<g id="a_node5"><a xlink:href="../../d9/d16/O2HitMergerRunner_8cxx.html" target="_top" xlink:title="/home/runner/work/AliceO2\l/AliceO2/run/O2HitMergerRunner.cxx">
<polygon fill="none" stroke="#000000" points="137.5,-.5 137.5,-30.5 316.5,-30.5 316.5,-.5 137.5,-.5"/>
<text text-anchor="start" x="145.5" y="-18.5" font-family="Helvetica,sans-Serif" font-size="10.00" fill="#000000">/home/runner/work/AliceO2</text>
<text text-anchor="middle" x="227" y="-7.5" font-family="Helvetica,sans-Serif" font-size="10.00" fill="#000000">/AliceO2/run/O2HitMergerRunner.cxx</text>
</a>
</g>
</g>
<!-- Node29&#45;&gt;Node30 -->
<g id="edge5" class="edge">
<title>Node29&#45;&gt;Node30</title>
<path fill="none" stroke="#191970" d="M227,-62.8409C227,-52.0601 227,-39.8309 227,-30.5028"/>
<polygon fill="#191970" stroke="#191970" points="223.5001,-62.9779 227,-72.978 230.5001,-62.978 223.5001,-62.9779"/>
</g>
<!-- Node32&#45;&gt;Node31 -->
<g id="edge9" class="edge">
<title>Node32&#45;&gt;Node31</title>
<path fill="none" stroke="#191970" d="M412,-134.8168C412,-125.8649 412,-116.5976 412,-108.6941"/>
<polygon fill="#191970" stroke="#191970" points="408.5001,-135.08 412,-145.0801 415.5001,-135.0801 408.5001,-135.08"/>
</g>
<!-- Node32&#45;&gt;Node33 -->
<g id="edge8" class="edge">
<title>Node32&#45;&gt;Node33</title>
<path fill="none" stroke="#191970" d="M473.8106,-140.7787C495.424,-130.0363 519.1487,-118.2446 538.6807,-108.5367"/>
<polygon fill="#191970" stroke="#191970" points="472.0924,-137.7241 464.6953,-145.3092 475.208,-143.9925 472.0924,-137.7241"/>
</g>
</g>
</svg>
