<?xml version="1.0" encoding="UTF-8" standalone="no"?>
<!DOCTYPE svg PUBLIC "-//W3C//DTD SVG 1.1//EN"
 "http://www.w3.org/Graphics/SVG/1.1/DTD/svg11.dtd">
<!-- Generated by graphviz version 2.40.1 (20161225.0304)
 -->
<!-- Title: /home/runner/work/AliceO2/AliceO2/Detectors/MUON/MCH/Mapping/test/src/testPadIndices.cxx Pages: 1 -->
<!--zoomable 240 -->
<svg id="main" version="1.1" xmlns="http://www.w3.org/2000/svg" xmlns:xlink="http://www.w3.org/1999/xlink" xml:space="preserve" onload="init(evt)">
<style type="text/css"><![CDATA[
.edge:hover path { stroke: red; }
.edge:hover polygon { stroke: red; fill: red; }
]]></style>
<script type="text/javascript"><![CDATA[
var edges = document.getElementsByTagName('g');
if (edges && edges.length) {
  for (var i=0;i<edges.length;i++) {
    if (edges[i].id.substr(0,4)=='edge') {
      edges[i].setAttribute('class','edge');
    }
  }
}
]]></script>
        <defs>
                <circle id="rim" cx="0" cy="0" r="7"/>
                <circle id="rim2" cx="0" cy="0" r="3.5"/>
                <g id="zoomPlus">
                        <use xlink:href="#rim" fill="#404040">
                                <set attributeName="fill" to="#808080" begin="zoomplus.mouseover" end="zoomplus.mouseout"/>
                        </use>
                        <path d="M-4,0h8M0,-4v8" fill="none" stroke="white" stroke-width="1.5" pointer-events="none"/>
                </g>
                <g id="zoomMin">
                        <use xlink:href="#rim" fill="#404040">
                                <set attributeName="fill" to="#808080" begin="zoomminus.mouseover" end="zoomminus.mouseout"/>
                        </use>
                        <path d="M-4,0h8" fill="none" stroke="white" stroke-width="1.5" pointer-events="none"/>
                </g>
                <g id="dirArrow">
                        <path fill="none" stroke="white" stroke-width="1.5" d="M0,-3.0v7 M-2.5,-0.5L0,-3.0L2.5,-0.5"/>
                </g>
               <g id="resetDef">
                       <use xlink:href="#rim2" fill="#404040">
                               <set attributeName="fill" to="#808080" begin="reset.mouseover" end="reset.mouseout"/>
                       </use>
               </g>
        </defs>

<script type="text/javascript">
var viewWidth = 873;
var viewHeight = 240;
var sectionId = 'dynsection-0';
</script>
<script xlink:href="../../svgpan.js"/>
<svg id="graph" class="graph">
<g id="viewport">
<title>/home/runner/work/AliceO2/AliceO2/Detectors/MUON/MCH/Mapping/test/src/testPadIndices.cxx</title>
<!-- Node0 -->
<g id="node1" class="node">
<title>Node0</title>
<polygon fill="#bfbfbf" stroke="#000000" points="376,-190.5 376,-231.5 582,-231.5 582,-190.5 376,-190.5"/>
<text text-anchor="start" x="384" y="-219.5" font-family="Helvetica,sans-Serif" font-size="10.00" fill="#000000">/home/runner/work/AliceO2</text>
<text text-anchor="start" x="384" y="-208.5" font-family="Helvetica,sans-Serif" font-size="10.00" fill="#000000">/AliceO2/Detectors/MUON</text>
<text text-anchor="middle" x="479" y="-197.5" font-family="Helvetica,sans-Serif" font-size="10.00" fill="#000000">/MCH/Mapping/test/src/testPadIndices.cxx</text>
</g>
<!-- Node1 -->
<g id="node2" class="node">
<title>Node1</title>
<g id="a_node2"><a xlink:href="../../d9/d7d/InputDocument_8h.html" target="_top" xlink:title="InputDocument.h">
<polygon fill="none" stroke="#000000" points="135,-129 135,-148 227,-148 227,-129 135,-129"/>
<text text-anchor="middle" x="181" y="-136" font-family="Helvetica,sans-Serif" font-size="10.00" fill="#000000">InputDocument.h</text>
</a>
</g>
</g>
<!-- Node0&#45;&gt;Node1 -->
<g id="edge1" class="edge">
<title>Node0&#45;&gt;Node1</title>
<path fill="none" stroke="#191970" d="M394.4023,-190.4183C341.4022,-177.524 274.94,-161.3545 230.3933,-150.5168"/>
<polygon fill="#191970" stroke="#191970" points="230.9431,-147.0486 220.3991,-148.0853 229.2883,-153.8502 230.9431,-147.0486"/>
</g>
<!-- Node5 -->
<g id="node6" class="node">
<title>Node5</title>
<polygon fill="none" stroke="#bfbfbf" points="276.5,-129 276.5,-148 317.5,-148 317.5,-129 276.5,-129"/>
<text text-anchor="middle" x="297" y="-136" font-family="Helvetica,sans-Serif" font-size="10.00" fill="#000000">string</text>
</g>
<!-- Node0&#45;&gt;Node5 -->
<g id="edge5" class="edge">
<title>Node0&#45;&gt;Node5</title>
<path fill="none" stroke="#191970" d="M424.3045,-190.4923C396.5335,-179.9026 362.3376,-166.5912 332,-154 330.3965,-153.3345 328.7557,-152.6434 327.102,-151.9388"/>
<polygon fill="#191970" stroke="#191970" points="328.2256,-148.6111 317.6587,-147.8413 325.4392,-155.0327 328.2256,-148.6111"/>
</g>
<!-- Node6 -->
<g id="node7" class="node">
<title>Node6</title>
<polygon fill="none" stroke="#bfbfbf" points="41,-.5 41,-19.5 95,-19.5 95,-.5 41,-.5"/>
<text text-anchor="middle" x="68" y="-7.5" font-family="Helvetica,sans-Serif" font-size="10.00" fill="#000000">iostream</text>
</g>
<!-- Node0&#45;&gt;Node6 -->
<g id="edge6" class="edge">
<title>Node0&#45;&gt;Node6</title>
<path fill="none" stroke="#191970" d="M431.465,-190.4736C413.7927,-181.1898 394.5276,-168.9199 380,-154 345.4555,-118.5228 367.3715,-84.6721 327,-56 247.706,.315 204.8022,-38.8423 104.8958,-19.8809"/>
<polygon fill="#191970" stroke="#191970" points="105.5459,-16.4414 95.0464,-17.8593 104.1384,-23.2985 105.5459,-16.4414"/>
</g>
<!-- Node7 -->
<g id="node8" class="node">
<title>Node7</title>
<polygon fill="none" stroke="#bfbfbf" points="389,-129 389,-148 459,-148 459,-129 389,-129"/>
<text text-anchor="middle" x="424" y="-136" font-family="Helvetica,sans-Serif" font-size="10.00" fill="#000000">fmt/format.h</text>
</g>
<!-- Node0&#45;&gt;Node7 -->
<g id="edge7" class="edge">
<title>Node0&#45;&gt;Node7</title>
<path fill="none" stroke="#191970" d="M463.3863,-190.4183C455.2313,-179.6685 445.3494,-166.6424 437.524,-156.3271"/>
<polygon fill="#191970" stroke="#191970" points="440.104,-153.9369 431.2716,-148.0853 434.5271,-158.1676 440.104,-153.9369"/>
</g>
<!-- Node8 -->
<g id="node9" class="node">
<title>Node8</title>
<g id="a_node9"><a xlink:href="../../d6/d1f/MUON_2MCH_2Mapping_2Interface_2include_2MCHMappingInterface_2Segmentation_8h.html" target="_top" xlink:title="MCHMappingInterface\l/Segmentation.h">
<polygon fill="none" stroke="#000000" points="477.5,-123.5 477.5,-153.5 592.5,-153.5 592.5,-123.5 477.5,-123.5"/>
<text text-anchor="start" x="485.5" y="-141.5" font-family="Helvetica,sans-Serif" font-size="10.00" fill="#000000">MCHMappingInterface</text>
<text text-anchor="middle" x="535" y="-130.5" font-family="Helvetica,sans-Serif" font-size="10.00" fill="#000000">/Segmentation.h</text>
</a>
</g>
</g>
<!-- Node0&#45;&gt;Node8 -->
<g id="edge8" class="edge">
<title>Node0&#45;&gt;Node8</title>
<path fill="none" stroke="#191970" d="M494.8976,-190.4183C501.8296,-181.4438 509.9871,-170.8827 517.1286,-161.637"/>
<polygon fill="#191970" stroke="#191970" points="519.9942,-163.6527 523.3372,-153.5991 514.4544,-159.3736 519.9942,-163.6527"/>
</g>
<!-- Node13 -->
<g id="node14" class="node">
<title>Node13</title>
<polygon fill="none" stroke="#bfbfbf" points="662,-.5 662,-19.5 706,-19.5 706,-.5 662,-.5"/>
<text text-anchor="middle" x="684" y="-7.5" font-family="Helvetica,sans-Serif" font-size="10.00" fill="#000000">vector</text>
</g>
<!-- Node0&#45;&gt;Node13 -->
<g id="edge20" class="edge">
<title>Node0&#45;&gt;Node13</title>
<path fill="none" stroke="#191970" d="M542.6409,-190.3695C563.2428,-181.5025 585.1092,-169.5331 602,-154 640.8516,-118.2712 666.1323,-59.7926 677.3389,-29.5237"/>
<polygon fill="#191970" stroke="#191970" points="680.7647,-30.3374 680.83,-19.7428 674.1721,-27.9843 680.7647,-30.3374"/>
</g>
<!-- Node18 -->
<g id="node19" class="node">
<title>Node18</title>
<polygon fill="none" stroke="#bfbfbf" points="663,-129 663,-148 797,-148 797,-129 663,-129"/>
<text text-anchor="middle" x="730" y="-136" font-family="Helvetica,sans-Serif" font-size="10.00" fill="#000000">boost/program_options.hpp</text>
</g>
<!-- Node0&#45;&gt;Node18 -->
<g id="edge19" class="edge">
<title>Node0&#45;&gt;Node18</title>
<path fill="none" stroke="#191970" d="M550.2551,-190.4183C594.4263,-177.6597 649.6987,-161.6946 687.2059,-150.8608"/>
<polygon fill="#191970" stroke="#191970" points="688.1789,-154.223 696.8149,-148.0853 686.2363,-147.4979 688.1789,-154.223"/>
</g>
<!-- Node19 -->
<g id="node20" class="node">
<title>Node19</title>
<polygon fill="none" stroke="#bfbfbf" points="815,-129 815,-148 865,-148 865,-129 815,-129"/>
<text text-anchor="middle" x="840" y="-136" font-family="Helvetica,sans-Serif" font-size="10.00" fill="#000000">fstream</text>
</g>
<!-- Node0&#45;&gt;Node19 -->
<g id="edge21" class="edge">
<title>Node0&#45;&gt;Node19</title>
<path fill="none" stroke="#191970" d="M582.2183,-199.8631C647.3816,-191.161 732.783,-176.6612 806,-154 807.9056,-153.4102 809.844,-152.7384 811.7798,-152.0129"/>
<polygon fill="#191970" stroke="#191970" points="813.3819,-155.1374 821.2733,-148.0681 810.6958,-148.6733 813.3819,-155.1374"/>
</g>
<!-- Node2 -->
<g id="node3" class="node">
<title>Node2</title>
<polygon fill="none" stroke="#bfbfbf" points="0,-62 0,-81 110,-81 110,-62 0,-62"/>
<text text-anchor="middle" x="55" y="-69" font-family="Helvetica,sans-Serif" font-size="10.00" fill="#000000">rapidjson/document.h</text>
</g>
<!-- Node1&#45;&gt;Node2 -->
<g id="edge2" class="edge">
<title>Node1&#45;&gt;Node2</title>
<path fill="none" stroke="#191970" d="M162.9473,-128.9005C141.8016,-117.6564 106.5596,-98.9166 82.1218,-85.9219"/>
<polygon fill="#191970" stroke="#191970" points="83.4918,-82.6864 73.0192,-81.0817 80.2053,-88.867 83.4918,-82.6864"/>
</g>
<!-- Node3 -->
<g id="node4" class="node">
<title>Node3</title>
<polygon fill="none" stroke="#bfbfbf" points="128.5,-62 128.5,-81 171.5,-81 171.5,-62 128.5,-62"/>
<text text-anchor="middle" x="150" y="-69" font-family="Helvetica,sans-Serif" font-size="10.00" fill="#000000">cstdio</text>
</g>
<!-- Node1&#45;&gt;Node3 -->
<g id="edge3" class="edge">
<title>Node1&#45;&gt;Node3</title>
<path fill="none" stroke="#191970" d="M176.5585,-128.9005C171.9084,-118.8505 164.4877,-102.8122 158.6709,-90.2403"/>
<polygon fill="#191970" stroke="#191970" points="161.809,-88.6876 154.4333,-81.0817 155.4561,-91.627 161.809,-88.6876"/>
</g>
<!-- Node4 -->
<g id="node5" class="node">
<title>Node4</title>
<polygon fill="none" stroke="#bfbfbf" points="190,-62 190,-81 318,-81 318,-62 190,-62"/>
<text text-anchor="middle" x="254" y="-69" font-family="Helvetica,sans-Serif" font-size="10.00" fill="#000000">rapidjson/filereadstream.h</text>
</g>
<!-- Node1&#45;&gt;Node4 -->
<g id="edge4" class="edge">
<title>Node1&#45;&gt;Node4</title>
<path fill="none" stroke="#191970" d="M191.4591,-128.9005C203.0597,-118.2535 221.9829,-100.8856 235.9805,-88.0385"/>
<polygon fill="#191970" stroke="#191970" points="238.5596,-90.4221 243.5603,-81.0817 233.8263,-85.2649 238.5596,-90.4221"/>
</g>
<!-- Node9 -->
<g id="node10" class="node">
<title>Node9</title>
<g id="a_node10"><a xlink:href="../../df/db6/CathodeSegmentation_8h.html" target="_top" xlink:title="MCHMappingInterface\l/CathodeSegmentation.h">
<polygon fill="none" stroke="#000000" points="374.5,-56.5 374.5,-86.5 499.5,-86.5 499.5,-56.5 374.5,-56.5"/>
<text text-anchor="start" x="382.5" y="-74.5" font-family="Helvetica,sans-Serif" font-size="10.00" fill="#000000">MCHMappingInterface</text>
<text text-anchor="middle" x="437" y="-63.5" font-family="Helvetica,sans-Serif" font-size="10.00" fill="#000000">/CathodeSegmentation.h</text>
</a>
</g>
</g>
<!-- Node8&#45;&gt;Node9 -->
<g id="edge9" class="edge">
<title>Node8&#45;&gt;Node9</title>
<path fill="none" stroke="#191970" d="M512.7623,-123.2967C499.3553,-114.1306 482.0924,-102.3285 467.432,-92.3055"/>
<polygon fill="#191970" stroke="#191970" points="469.3802,-89.3977 459.1497,-86.6432 465.4295,-95.1763 469.3802,-89.3977"/>
</g>
<!-- Node17 -->
<g id="node18" class="node">
<title>Node17</title>
<g id="a_node18"><a xlink:href="../../d0/d5f/Segmentation_8inl.html" target="_top" xlink:title="Segmentation.inl">
<polygon fill="none" stroke="#000000" points="517.5,-62 517.5,-81 606.5,-81 606.5,-62 517.5,-62"/>
<text text-anchor="middle" x="562" y="-69" font-family="Helvetica,sans-Serif" font-size="10.00" fill="#000000">Segmentation.inl</text>
</a>
</g>
</g>
<!-- Node8&#45;&gt;Node17 -->
<g id="edge18" class="edge">
<title>Node8&#45;&gt;Node17</title>
<path fill="none" stroke="#191970" d="M541.1267,-123.2967C545.0475,-113.5672 550.1653,-100.8675 554.352,-90.4784"/>
<polygon fill="#191970" stroke="#191970" points="557.658,-91.6384 558.1495,-81.055 551.1653,-89.0219 557.658,-91.6384"/>
</g>
<!-- Node9&#45;&gt;Node6 -->
<g id="edge13" class="edge">
<title>Node9&#45;&gt;Node6</title>
<path fill="none" stroke="#191970" d="M374.4425,-58.5866C369.562,-57.6772 364.7045,-56.8036 360,-56 249.9505,-37.2025 218.2642,-43.0636 105.1366,-20.01"/>
<polygon fill="#191970" stroke="#191970" points="105.5354,-16.5184 95.0336,-17.9193 104.1168,-23.3732 105.5354,-16.5184"/>
</g>
<!-- Node10 -->
<g id="node11" class="node">
<title>Node10</title>
<g id="a_node11"><a xlink:href="../../d0/dc7/CathodeSegmentationCInterface_8h.html" target="_top" xlink:title="CathodeSegmentationCInterface.h">
<polygon fill="none" stroke="#000000" points="113.5,-.5 113.5,-19.5 280.5,-19.5 280.5,-.5 113.5,-.5"/>
<text text-anchor="middle" x="197" y="-7.5" font-family="Helvetica,sans-Serif" font-size="10.00" fill="#000000">CathodeSegmentationCInterface.h</text>
</a>
</g>
</g>
<!-- Node9&#45;&gt;Node10 -->
<g id="edge10" class="edge">
<title>Node9&#45;&gt;Node10</title>
<path fill="none" stroke="#191970" d="M378.2894,-56.4554C337.0153,-45.8789 282.518,-31.914 244.0881,-22.0663"/>
<polygon fill="#191970" stroke="#191970" points="244.7473,-18.6222 234.1915,-19.5303 243.0097,-25.4031 244.7473,-18.6222"/>
</g>
<!-- Node11 -->
<g id="node12" class="node">
<title>Node11</title>
<polygon fill="none" stroke="#bfbfbf" points="298.5,-.5 298.5,-19.5 357.5,-19.5 357.5,-.5 298.5,-.5"/>
<text text-anchor="middle" x="328" y="-7.5" font-family="Helvetica,sans-Serif" font-size="10.00" fill="#000000">stdexcept</text>
</g>
<!-- Node9&#45;&gt;Node11 -->
<g id="edge11" class="edge">
<title>Node9&#45;&gt;Node11</title>
<path fill="none" stroke="#191970" d="M410.3356,-56.4554C393.1059,-46.734 370.8025,-34.15 353.7554,-24.5317"/>
<polygon fill="#191970" stroke="#191970" points="355.3204,-21.3961 344.8911,-19.5303 351.8806,-27.4926 355.3204,-21.3961"/>
</g>
<!-- Node12 -->
<g id="node13" class="node">
<title>Node12</title>
<polygon fill="none" stroke="#bfbfbf" points="376,-.5 376,-19.5 428,-19.5 428,-.5 376,-.5"/>
<text text-anchor="middle" x="402" y="-7.5" font-family="Helvetica,sans-Serif" font-size="10.00" fill="#000000">memory</text>
</g>
<!-- Node9&#45;&gt;Node12 -->
<g id="edge12" class="edge">
<title>Node9&#45;&gt;Node12</title>
<path fill="none" stroke="#191970" d="M428.3483,-56.2977C423.5912,-47.9388 417.6502,-37.4997 412.6143,-28.6509"/>
<polygon fill="#191970" stroke="#191970" points="415.5921,-26.8069 407.6039,-19.8469 409.5083,-30.2692 415.5921,-26.8069"/>
</g>
<!-- Node9&#45;&gt;Node13 -->
<g id="edge14" class="edge">
<title>Node9&#45;&gt;Node13</title>
<path fill="none" stroke="#191970" d="M499.7162,-57.9058C540.6382,-48.7223 595.3892,-35.8484 651.8907,-20.1685"/>
<polygon fill="#191970" stroke="#191970" points="653.0257,-23.4854 661.712,-17.4192 651.1386,-16.7445 653.0257,-23.4854"/>
</g>
<!-- Node14 -->
<g id="node15" class="node">
<title>Node14</title>
<polygon fill="none" stroke="#bfbfbf" points="446,-.5 446,-19.5 498,-19.5 498,-.5 446,-.5"/>
<text text-anchor="middle" x="472" y="-7.5" font-family="Helvetica,sans-Serif" font-size="10.00" fill="#000000">sstream</text>
</g>
<!-- Node9&#45;&gt;Node14 -->
<g id="edge15" class="edge">
<title>Node9&#45;&gt;Node14</title>
<path fill="none" stroke="#191970" d="M445.6517,-56.2977C450.4088,-47.9388 456.3498,-37.4997 461.3857,-28.6509"/>
<polygon fill="#191970" stroke="#191970" points="464.4917,-30.2692 466.3961,-19.8469 458.4079,-26.8069 464.4917,-30.2692"/>
</g>
<!-- Node15 -->
<g id="node16" class="node">
<title>Node15</title>
<polygon fill="none" stroke="#bfbfbf" points="516.5,-.5 516.5,-19.5 575.5,-19.5 575.5,-.5 516.5,-.5"/>
<text text-anchor="middle" x="546" y="-7.5" font-family="Helvetica,sans-Serif" font-size="10.00" fill="#000000">functional</text>
</g>
<!-- Node9&#45;&gt;Node15 -->
<g id="edge16" class="edge">
<title>Node9&#45;&gt;Node15</title>
<path fill="none" stroke="#191970" d="M463.6644,-56.4554C480.8941,-46.734 503.1975,-34.15 520.2446,-24.5317"/>
<polygon fill="#191970" stroke="#191970" points="522.1194,-27.4926 529.1089,-19.5303 518.6796,-21.3961 522.1194,-27.4926"/>
</g>
<!-- Node16 -->
<g id="node17" class="node">
<title>Node16</title>
<polygon fill="none" stroke="#bfbfbf" points="594,-.5 594,-19.5 644,-19.5 644,-.5 594,-.5"/>
<text text-anchor="middle" x="619" y="-7.5" font-family="Helvetica,sans-Serif" font-size="10.00" fill="#000000">iomanip</text>
</g>
<!-- Node9&#45;&gt;Node16 -->
<g id="edge17" class="edge">
<title>Node9&#45;&gt;Node16</title>
<path fill="none" stroke="#191970" d="M481.5222,-56.4554C513.1522,-45.7672 555.0227,-31.6187 584.2106,-21.7558"/>
<polygon fill="#191970" stroke="#191970" points="585.6149,-24.9757 593.9682,-18.4586 583.374,-18.3441 585.6149,-24.9757"/>
</g>
</g>
</svg>
        <g id="navigator" transform="translate(0 0)" fill="#404254">
                <rect fill="#f2f5e9" fill-opacity="0.5" stroke="#606060" stroke-width=".5" x="0" y="0" width="60" height="60"/>
                <use id="zoomplus" xlink:href="#zoomPlus" x="17" y="9" onmousedown="handleZoom(evt,'in')"/>
                <use id="zoomminus" xlink:href="#zoomMin" x="42" y="9" onmousedown="handleZoom(evt,'out')"/>
                <use id="reset" xlink:href="#resetDef" x="30" y="36" onmousedown="handleReset()"/>
                <g id="arrowUp" xlink:href="#dirArrow" transform="translate(30 24)" onmousedown="handlePan(0,-1)">
                  <use xlink:href="#rim" fill="#404040">
                        <set attributeName="fill" to="#808080" begin="arrowUp.mouseover" end="arrowUp.mouseout"/>
                  </use>
                  <path fill="none" stroke="white" stroke-width="1.5" d="M0,-3.0v7 M-2.5,-0.5L0,-3.0L2.5,-0.5"/>
                </g>
                <g id="arrowRight" xlink:href="#dirArrow" transform="rotate(90) translate(36 -43)" onmousedown="handlePan(1,0)">
                  <use xlink:href="#rim" fill="#404040">
                        <set attributeName="fill" to="#808080" begin="arrowRight.mouseover" end="arrowRight.mouseout"/>
                  </use>
                  <path fill="none" stroke="white" stroke-width="1.5" d="M0,-3.0v7 M-2.5,-0.5L0,-3.0L2.5,-0.5"/>
                </g>
                <g id="arrowDown" xlink:href="#dirArrow" transform="rotate(180) translate(-30 -48)" onmousedown="handlePan(0,1)">
                  <use xlink:href="#rim" fill="#404040">
                        <set attributeName="fill" to="#808080" begin="arrowDown.mouseover" end="arrowDown.mouseout"/>
                  </use>
                  <path fill="none" stroke="white" stroke-width="1.5" d="M0,-3.0v7 M-2.5,-0.5L0,-3.0L2.5,-0.5"/>
                </g>
                <g id="arrowLeft" xlink:href="#dirArrow" transform="rotate(270) translate(-36 17)" onmousedown="handlePan(-1,0)">
                  <use xlink:href="#rim" fill="#404040">
                        <set attributeName="fill" to="#808080" begin="arrowLeft.mouseover" end="arrowLeft.mouseout"/>
                  </use>
                  <path fill="none" stroke="white" stroke-width="1.5" d="M0,-3.0v7 M-2.5,-0.5L0,-3.0L2.5,-0.5"/>
                </g>
        </g>
        <svg viewBox="0 0 15 15" width="100%" height="30px" preserveAspectRatio="xMaxYMin meet">
         <g id="arrow_out" transform="scale(0.3 0.3)">
          <a xlink:href="testPadIndices_8cxx__incl_org.svg" target="_base">
           <rect id="button" ry="5" rx="5" y="6" x="6" height="38" width="38"
                fill="#f2f5e9" fill-opacity="0.5" stroke="#606060" stroke-width="1.0"/>
           <path id="arrow"
             d="M 11.500037,31.436501 C 11.940474,20.09759 22.043105,11.32322 32.158766,21.979434 L 37.068811,17.246167 C 37.068811,17.246167 37.088388,32 37.088388,32 L 22.160133,31.978069 C 22.160133,31.978069 26.997745,27.140456 26.997745,27.140456 C 18.528582,18.264221 13.291696,25.230495 11.500037,31.436501 z"
             style="fill:#404040;"/>
          </a>
         </g>
        </svg>
</svg>
