<?xml version="1.0" encoding="UTF-8" standalone="no"?>
<!DOCTYPE svg PUBLIC "-//W3C//DTD SVG 1.1//EN"
 "http://www.w3.org/Graphics/SVG/1.1/DTD/svg11.dtd">
<!-- Generated by graphviz version 2.40.1 (20161225.0304)
 -->
<!-- Title: /home/runner/work/AliceO2/AliceO2/GPU/GPUTracking/Interface/GPUO2InterfaceQA.h Pages: 1 -->
<svg width="513pt" height="128pt"
 viewBox="0.00 0.00 513.00 128.00" xmlns="http://www.w3.org/2000/svg" xmlns:xlink="http://www.w3.org/1999/xlink">
<g id="graph0" class="graph" transform="scale(1 1) rotate(0) translate(4 124)">
<title>/home/runner/work/AliceO2/AliceO2/GPU/GPUTracking/Interface/GPUO2InterfaceQA.h</title>
<!-- Node3 -->
<g id="node1" class="node">
<title>Node3</title>
<polygon fill="#bfbfbf" stroke="#000000" points="158.5,-78.5 158.5,-119.5 314.5,-119.5 314.5,-78.5 158.5,-78.5"/>
<text text-anchor="start" x="166.5" y="-107.5" font-family="Helvetica,sans-Serif" font-size="10.00" fill="#000000">/home/runner/work/AliceO2</text>
<text text-anchor="start" x="166.5" y="-96.5" font-family="Helvetica,sans-Serif" font-size="10.00" fill="#000000">/AliceO2/GPU/GPUTracking</text>
<text text-anchor="middle" x="236.5" y="-85.5" font-family="Helvetica,sans-Serif" font-size="10.00" fill="#000000">/Interface/GPUO2InterfaceQA.h</text>
</g>
<!-- Node4 -->
<g id="node2" class="node">
<title>Node4</title>
<g id="a_node2"><a xlink:href="../../d8/dab/Tracking_8cxx.html" target="_top" xlink:title="/home/runner/work/AliceO2\l/AliceO2/Detectors/TPC\l/qc/src/Tracking.cxx">
<polygon fill="none" stroke="#000000" points="0,-.5 0,-41.5 135,-41.5 135,-.5 0,-.5"/>
<text text-anchor="start" x="8" y="-29.5" font-family="Helvetica,sans-Serif" font-size="10.00" fill="#000000">/home/runner/work/AliceO2</text>
<text text-anchor="start" x="8" y="-18.5" font-family="Helvetica,sans-Serif" font-size="10.00" fill="#000000">/AliceO2/Detectors/TPC</text>
<text text-anchor="middle" x="67.5" y="-7.5" font-family="Helvetica,sans-Serif" font-size="10.00" fill="#000000">/qc/src/Tracking.cxx</text>
</a>
</g>
</g>
<!-- Node3&#45;&gt;Node4 -->
<g id="edge1" class="edge">
<title>Node3&#45;&gt;Node4</title>
<path fill="none" stroke="#191970" d="M182.4675,-74.0619C159.7212,-63.5637 133.5742,-51.4958 111.9684,-41.5239"/>
<polygon fill="#191970" stroke="#191970" points="181.1085,-77.2894 191.6548,-78.3022 184.0419,-70.9337 181.1085,-77.2894"/>
</g>
<!-- Node5 -->
<g id="node3" class="node">
<title>Node5</title>
<g id="a_node3"><a xlink:href="../../da/d78/CATrackerSpec_8cxx.html" target="_top" xlink:title="Processor spec for running TPC CA tracking. ">
<polygon fill="none" stroke="#000000" points="153,-.5 153,-41.5 320,-41.5 320,-.5 153,-.5"/>
<text text-anchor="start" x="161" y="-29.5" font-family="Helvetica,sans-Serif" font-size="10.00" fill="#000000">/home/runner/work/AliceO2</text>
<text text-anchor="start" x="161" y="-18.5" font-family="Helvetica,sans-Serif" font-size="10.00" fill="#000000">/AliceO2/Detectors/TPC</text>
<text text-anchor="middle" x="236.5" y="-7.5" font-family="Helvetica,sans-Serif" font-size="10.00" fill="#000000">/workflow/src/CATrackerSpec.cxx</text>
</a>
</g>
</g>
<!-- Node3&#45;&gt;Node5 -->
<g id="edge2" class="edge">
<title>Node3&#45;&gt;Node5</title>
<path fill="none" stroke="#191970" d="M236.5,-68.0789C236.5,-59.2178 236.5,-49.7747 236.5,-41.6898"/>
<polygon fill="#191970" stroke="#191970" points="233.0001,-68.0974 236.5,-78.0974 240.0001,-68.0975 233.0001,-68.0974"/>
</g>
<!-- Node6 -->
<g id="node4" class="node">
<title>Node6</title>
<g id="a_node4"><a xlink:href="../../d2/df5/GPUO2InterfaceQA_8cxx.html" target="_top" xlink:title="/home/runner/work/AliceO2\l/AliceO2/GPU/GPUTracking\l/Interface/GPUO2InterfaceQA.cxx">
<polygon fill="none" stroke="#000000" points="338,-.5 338,-41.5 505,-41.5 505,-.5 338,-.5"/>
<text text-anchor="start" x="346" y="-29.5" font-family="Helvetica,sans-Serif" font-size="10.00" fill="#000000">/home/runner/work/AliceO2</text>
<text text-anchor="start" x="346" y="-18.5" font-family="Helvetica,sans-Serif" font-size="10.00" fill="#000000">/AliceO2/GPU/GPUTracking</text>
<text text-anchor="middle" x="421.5" y="-7.5" font-family="Helvetica,sans-Serif" font-size="10.00" fill="#000000">/Interface/GPUO2InterfaceQA.cxx</text>
</a>
</g>
</g>
<!-- Node3&#45;&gt;Node6 -->
<g id="edge3" class="edge">
<title>Node3&#45;&gt;Node6</title>
<path fill="none" stroke="#191970" d="M294.9849,-74.3415C320.0385,-63.7784 348.96,-51.5844 372.8216,-41.5239"/>
<polygon fill="#191970" stroke="#191970" points="293.4456,-71.1921 285.5909,-78.3022 296.1652,-77.6422 293.4456,-71.1921"/>
</g>
</g>
</svg>
