<?xml version="1.0" encoding="UTF-8" standalone="no"?>
<!DOCTYPE svg PUBLIC "-//W3C//DTD SVG 1.1//EN"
 "http://www.w3.org/Graphics/SVG/1.1/DTD/svg11.dtd">
<!-- Generated by graphviz version 2.40.1 (20161225.0304)
 -->
<!-- Title: /home/runner/work/AliceO2/AliceO2/Detectors/TPC/reconstruction/include/TPCReconstruction/HwClusterer.h Pages: 1 -->
<svg width="789pt" height="228pt"
 viewBox="0.00 0.00 789.00 228.00" xmlns="http://www.w3.org/2000/svg" xmlns:xlink="http://www.w3.org/1999/xlink">
<g id="graph0" class="graph" transform="scale(1 1) rotate(0) translate(4 224)">
<title>/home/runner/work/AliceO2/AliceO2/Detectors/TPC/reconstruction/include/TPCReconstruction/HwClusterer.h</title>
<!-- Node59 -->
<g id="node1" class="node">
<title>Node59</title>
<polygon fill="#bfbfbf" stroke="#000000" points="305.5,-167.5 305.5,-219.5 477.5,-219.5 477.5,-167.5 305.5,-167.5"/>
<text text-anchor="start" x="313.5" y="-207.5" font-family="Helvetica,sans-Serif" font-size="10.00" fill="#000000">/home/runner/work/AliceO2</text>
<text text-anchor="start" x="313.5" y="-196.5" font-family="Helvetica,sans-Serif" font-size="10.00" fill="#000000">/AliceO2/Detectors/TPC</text>
<text text-anchor="start" x="313.5" y="-185.5" font-family="Helvetica,sans-Serif" font-size="10.00" fill="#000000">/reconstruction/include</text>
<text text-anchor="middle" x="391.5" y="-174.5" font-family="Helvetica,sans-Serif" font-size="10.00" fill="#000000">/TPCReconstruction/HwClusterer.h</text>
</g>
<!-- Node60 -->
<g id="node2" class="node">
<title>Node60</title>
<g id="a_node2"><a xlink:href="../../de/d64/TPC_2reconstruction_2include_2TPCReconstruction_2ClustererTask_8h.html" target="_top" xlink:title="/home/runner/work/AliceO2\l/AliceO2/Detectors/TPC\l/reconstruction/include\l/TPCReconstruction/ClustererTask.h">
<polygon fill="none" stroke="#000000" points="1,-78.5 1,-130.5 180,-130.5 180,-78.5 1,-78.5"/>
<text text-anchor="start" x="9" y="-118.5" font-family="Helvetica,sans-Serif" font-size="10.00" fill="#000000">/home/runner/work/AliceO2</text>
<text text-anchor="start" x="9" y="-107.5" font-family="Helvetica,sans-Serif" font-size="10.00" fill="#000000">/AliceO2/Detectors/TPC</text>
<text text-anchor="start" x="9" y="-96.5" font-family="Helvetica,sans-Serif" font-size="10.00" fill="#000000">/reconstruction/include</text>
<text text-anchor="middle" x="90.5" y="-85.5" font-family="Helvetica,sans-Serif" font-size="10.00" fill="#000000">/TPCReconstruction/ClustererTask.h</text>
</a>
</g>
</g>
<!-- Node59&#45;&gt;Node60 -->
<g id="edge1" class="edge">
<title>Node59&#45;&gt;Node60</title>
<path fill="none" stroke="#191970" d="M295.3365,-165.0663C257.8814,-153.9915 215.24,-141.3832 178.5964,-130.5484"/>
<polygon fill="#191970" stroke="#191970" points="294.6635,-168.517 305.2455,-167.9962 296.6483,-161.8043 294.6635,-168.517"/>
</g>
<!-- Node62 -->
<g id="node4" class="node">
<title>Node62</title>
<g id="a_node4"><a xlink:href="../../d4/d6c/HwClusterer_8cxx.html" target="_top" xlink:title="Hwclusterer for the TPC. ">
<polygon fill="none" stroke="#000000" points="198.5,-84 198.5,-125 372.5,-125 372.5,-84 198.5,-84"/>
<text text-anchor="start" x="206.5" y="-113" font-family="Helvetica,sans-Serif" font-size="10.00" fill="#000000">/home/runner/work/AliceO2</text>
<text text-anchor="start" x="206.5" y="-102" font-family="Helvetica,sans-Serif" font-size="10.00" fill="#000000">/AliceO2/Detectors/TPC</text>
<text text-anchor="middle" x="285.5" y="-91" font-family="Helvetica,sans-Serif" font-size="10.00" fill="#000000">/reconstruction/src/HwClusterer.cxx</text>
</a>
</g>
</g>
<!-- Node59&#45;&gt;Node62 -->
<g id="edge3" class="edge">
<title>Node59&#45;&gt;Node62</title>
<path fill="none" stroke="#191970" d="M352.5636,-160.8081C338.3726,-148.893 322.7316,-135.7605 310.1267,-125.1771"/>
<polygon fill="#191970" stroke="#191970" points="350.3607,-163.5286 360.2698,-167.2784 354.8619,-158.1677 350.3607,-163.5286"/>
</g>
<!-- Node63 -->
<g id="node5" class="node">
<title>Node63</title>
<g id="a_node5"><a xlink:href="../../df/d47/testTPCHwClusterer_8cxx.html" target="_top" xlink:title="This task tests the TPC HwClusterer. ">
<polygon fill="none" stroke="#000000" points="390.5,-84 390.5,-125 604.5,-125 604.5,-84 390.5,-84"/>
<text text-anchor="start" x="398.5" y="-113" font-family="Helvetica,sans-Serif" font-size="10.00" fill="#000000">/home/runner/work/AliceO2</text>
<text text-anchor="start" x="398.5" y="-102" font-family="Helvetica,sans-Serif" font-size="10.00" fill="#000000">/AliceO2/Detectors/TPC</text>
<text text-anchor="middle" x="497.5" y="-91" font-family="Helvetica,sans-Serif" font-size="10.00" fill="#000000">/reconstruction/test/testTPCHwClusterer.cxx</text>
</a>
</g>
</g>
<!-- Node59&#45;&gt;Node63 -->
<g id="edge4" class="edge">
<title>Node59&#45;&gt;Node63</title>
<path fill="none" stroke="#191970" d="M430.4364,-160.8081C444.6274,-148.893 460.2684,-135.7605 472.8733,-125.1771"/>
<polygon fill="#191970" stroke="#191970" points="428.1381,-158.1677 422.7302,-167.2784 432.6393,-163.5286 428.1381,-158.1677"/>
</g>
<!-- Node64 -->
<g id="node6" class="node">
<title>Node64</title>
<g id="a_node6"><a xlink:href="../../d5/d17/TPC_2workflow_2src_2ClustererSpec_8cxx.html" target="_top" xlink:title="/home/runner/work/AliceO2\l/AliceO2/Detectors/TPC\l/workflow/src/ClustererSpec.cxx">
<polygon fill="none" stroke="#000000" points="622,-84 622,-125 781,-125 781,-84 622,-84"/>
<text text-anchor="start" x="630" y="-113" font-family="Helvetica,sans-Serif" font-size="10.00" fill="#000000">/home/runner/work/AliceO2</text>
<text text-anchor="start" x="630" y="-102" font-family="Helvetica,sans-Serif" font-size="10.00" fill="#000000">/AliceO2/Detectors/TPC</text>
<text text-anchor="middle" x="701.5" y="-91" font-family="Helvetica,sans-Serif" font-size="10.00" fill="#000000">/workflow/src/ClustererSpec.cxx</text>
</a>
</g>
</g>
<!-- Node59&#45;&gt;Node64 -->
<g id="edge5" class="edge">
<title>Node59&#45;&gt;Node64</title>
<path fill="none" stroke="#191970" d="M487.3325,-166.9282C526.4965,-155.9628 572.2138,-143.027 613.5,-131 620.0871,-129.0811 626.9441,-127.0592 633.7945,-125.023"/>
<polygon fill="#191970" stroke="#191970" points="486.211,-163.6074 477.5234,-169.6717 488.0966,-170.3487 486.211,-163.6074"/>
</g>
<!-- Node61 -->
<g id="node3" class="node">
<title>Node61</title>
<g id="a_node3"><a xlink:href="../../d8/d0f/TPC_2reconstruction_2src_2ClustererTask_8cxx.html" target="_top" xlink:title="/home/runner/work/AliceO2\l/AliceO2/Detectors/TPC\l/reconstruction/src/ClustererTask.cxx">
<polygon fill="none" stroke="#000000" points="0,-.5 0,-41.5 181,-41.5 181,-.5 0,-.5"/>
<text text-anchor="start" x="8" y="-29.5" font-family="Helvetica,sans-Serif" font-size="10.00" fill="#000000">/home/runner/work/AliceO2</text>
<text text-anchor="start" x="8" y="-18.5" font-family="Helvetica,sans-Serif" font-size="10.00" fill="#000000">/AliceO2/Detectors/TPC</text>
<text text-anchor="middle" x="90.5" y="-7.5" font-family="Helvetica,sans-Serif" font-size="10.00" fill="#000000">/reconstruction/src/ClustererTask.cxx</text>
</a>
</g>
</g>
<!-- Node60&#45;&gt;Node61 -->
<g id="edge2" class="edge">
<title>Node60&#45;&gt;Node61</title>
<path fill="none" stroke="#191970" d="M90.5,-67.8168C90.5,-58.8649 90.5,-49.5976 90.5,-41.6941"/>
<polygon fill="#191970" stroke="#191970" points="87.0001,-68.08 90.5,-78.0801 94.0001,-68.0801 87.0001,-68.08"/>
</g>
</g>
</svg>
