<?xml version="1.0" encoding="UTF-8" standalone="no"?>
<!DOCTYPE svg PUBLIC "-//W3C//DTD SVG 1.1//EN"
 "http://www.w3.org/Graphics/SVG/1.1/DTD/svg11.dtd">
<!-- Generated by graphviz version 2.40.1 (20161225.0304)
 -->
<!-- Title: /home/runner/work/AliceO2/AliceO2/Detectors/MUON/MCH/Raw/Decoder/src/PageDecoder.cxx Pages: 1 -->
<svg width="3720pt" height="475pt"
 viewBox="0.00 0.00 3720.00 475.00" xmlns="http://www.w3.org/2000/svg" xmlns:xlink="http://www.w3.org/1999/xlink">
<g id="graph0" class="graph" transform="scale(1 1) rotate(0) translate(4 471)">
<title>/home/runner/work/AliceO2/AliceO2/Detectors/MUON/MCH/Raw/Decoder/src/PageDecoder.cxx</title>
<!-- Node0 -->
<g id="node1" class="node">
<title>Node0</title>
<polygon fill="#bfbfbf" stroke="#000000" points="639.5,-425.5 639.5,-466.5 842.5,-466.5 842.5,-425.5 639.5,-425.5"/>
<text text-anchor="start" x="647.5" y="-454.5" font-family="Helvetica,sans-Serif" font-size="10.00" fill="#000000">/home/runner/work/AliceO2</text>
<text text-anchor="start" x="647.5" y="-443.5" font-family="Helvetica,sans-Serif" font-size="10.00" fill="#000000">/AliceO2/Detectors/MUON</text>
<text text-anchor="middle" x="741" y="-432.5" font-family="Helvetica,sans-Serif" font-size="10.00" fill="#000000">/MCH/Raw/Decoder/src/PageDecoder.cxx</text>
</g>
<!-- Node1 -->
<g id="node2" class="node">
<title>Node1</title>
<g id="a_node2"><a xlink:href="../../da/db7/BareGBTDecoder_8h.html" target="_top" xlink:title="BareGBTDecoder.h">
<polygon fill="none" stroke="#000000" points="293,-369.5 293,-388.5 395,-388.5 395,-369.5 293,-369.5"/>
<text text-anchor="middle" x="344" y="-376.5" font-family="Helvetica,sans-Serif" font-size="10.00" fill="#000000">BareGBTDecoder.h</text>
</a>
</g>
</g>
<!-- Node0&#45;&gt;Node1 -->
<g id="edge1" class="edge">
<title>Node0&#45;&gt;Node1</title>
<path fill="none" stroke="#191970" d="M639.2782,-428.8328C565.2866,-416.3456 467.5425,-399.8497 405.2068,-389.3296"/>
<polygon fill="#191970" stroke="#191970" points="405.5786,-385.8429 395.1356,-387.6299 404.4136,-392.7453 405.5786,-385.8429"/>
</g>
<!-- Node6 -->
<g id="node7" class="node">
<title>Node6</title>
<g id="a_node7"><a xlink:href="../../d0/d64/DataFormats_8h.html" target="_top" xlink:title="MCHRawCommon/DataFormats.h">
<polygon fill="none" stroke="#000000" points="1618,-56.5 1618,-75.5 1786,-75.5 1786,-56.5 1618,-56.5"/>
<text text-anchor="middle" x="1702" y="-63.5" font-family="Helvetica,sans-Serif" font-size="10.00" fill="#000000">MCHRawCommon/DataFormats.h</text>
</a>
</g>
</g>
<!-- Node0&#45;&gt;Node6 -->
<g id="edge99" class="edge">
<title>Node0&#45;&gt;Node6</title>
<path fill="none" stroke="#191970" d="M842.6593,-441.415C1152.0157,-426.7969 2061,-378.6422 2061,-317.5 2061,-317.5 2061,-317.5 2061,-250.5 2061,-212.8735 2068.4834,-194.7279 2042,-168 1993.7442,-119.2987 1956.1646,-156.1526 1892,-132 1874.1382,-125.2766 1871.6581,-119.2414 1854,-112 1820.31,-98.1841 1780.9261,-86.3804 1750.69,-78.1899"/>
<polygon fill="#191970" stroke="#191970" points="1751.3725,-74.7496 1740.8081,-75.553 1749.5677,-81.513 1751.3725,-74.7496"/>
</g>
<!-- Node10 -->
<g id="node11" class="node">
<title>Node10</title>
<polygon fill="none" stroke="#bfbfbf" points="673,-56.5 673,-75.5 727,-75.5 727,-56.5 673,-56.5"/>
<text text-anchor="middle" x="700" y="-63.5" font-family="Helvetica,sans-Serif" font-size="10.00" fill="#000000">iostream</text>
</g>
<!-- Node0&#45;&gt;Node10 -->
<g id="edge129" class="edge">
<title>Node0&#45;&gt;Node10</title>
<path fill="none" stroke="#191970" d="M639.1332,-438.7665C436.0243,-422.9718 0,-381.5997 0,-317.5 0,-317.5 0,-317.5 0,-183.5 0,-94.1056 100.8892,-132.0764 188,-112 278.6092,-91.1173 560.9347,-73.7533 662.8422,-68.0155"/>
<polygon fill="#191970" stroke="#191970" points="663.1778,-71.5023 672.9672,-67.4503 662.7876,-64.5132 663.1778,-71.5023"/>
</g>
<!-- Node28 -->
<g id="node29" class="node">
<title>Node28</title>
<g id="a_node29"><a xlink:href="../../dc/d36/PageDecoder_8h.html" target="_top" xlink:title="MCHRawDecoder/PageDecoder.h">
<polygon fill="none" stroke="#000000" points="431.5,-241 431.5,-260 598.5,-260 598.5,-241 431.5,-241"/>
<text text-anchor="middle" x="515" y="-248" font-family="Helvetica,sans-Serif" font-size="10.00" fill="#000000">MCHRawDecoder/PageDecoder.h</text>
</a>
</g>
</g>
<!-- Node0&#45;&gt;Node28 -->
<g id="edge100" class="edge">
<title>Node0&#45;&gt;Node28</title>
<path fill="none" stroke="#191970" d="M639.303,-443.7558C522.7171,-439.4029 340.4279,-426.6077 284,-389 260.1465,-373.1023 259.3576,-360.7055 252,-333 248.4637,-319.6838 243.2436,-312.6373 252,-302 273.3758,-276.0325 354.4916,-262.9697 421.0523,-256.5179"/>
<polygon fill="#191970" stroke="#191970" points="421.5451,-259.9873 431.1778,-255.5757 420.8965,-253.0174 421.5451,-259.9873"/>
</g>
<!-- Node30 -->
<g id="node31" class="node">
<title>Node30</title>
<g id="a_node31"><a xlink:href="../../d2/d71/MUON_2MCH_2Raw_2ElecMap_2include_2MCHRawElecMap_2Mapper_8h.html" target="_top" xlink:title="MCHRawElecMap/Mapper.h">
<polygon fill="none" stroke="#000000" points="1559,-174 1559,-193 1701,-193 1701,-174 1559,-174"/>
<text text-anchor="middle" x="1630" y="-181" font-family="Helvetica,sans-Serif" font-size="10.00" fill="#000000">MCHRawElecMap/Mapper.h</text>
</a>
</g>
</g>
<!-- Node0&#45;&gt;Node30 -->
<g id="edge101" class="edge">
<title>Node0&#45;&gt;Node30</title>
<path fill="none" stroke="#191970" d="M842.5373,-442.0034C1030.1823,-432.941 1422.3933,-405.6616 1535,-333 1583.5195,-301.6918 1611.9726,-235.88 1623.6924,-203.0247"/>
<polygon fill="#191970" stroke="#191970" points="1627.1131,-203.8379 1627.0303,-193.2434 1620.4882,-201.5771 1627.1131,-203.8379"/>
</g>
<!-- Node34 -->
<g id="node35" class="node">
<title>Node34</title>
<g id="a_node35"><a xlink:href="../../d6/dec/Raw_2include_2DetectorsRaw_2RDHUtils_8h.html" target="_top" xlink:title="DetectorsRaw/RDHUtils.h">
<polygon fill="none" stroke="#000000" points="2825,-308 2825,-327 2959,-327 2959,-308 2825,-308"/>
<text text-anchor="middle" x="2892" y="-315" font-family="Helvetica,sans-Serif" font-size="10.00" fill="#000000">DetectorsRaw/RDHUtils.h</text>
</a>
</g>
</g>
<!-- Node0&#45;&gt;Node34 -->
<g id="edge69" class="edge">
<title>Node0&#45;&gt;Node34</title>
<path fill="none" stroke="#191970" d="M842.7501,-443.2005C1065.9997,-436.7184 1615.5425,-418.9058 2075,-389 2347.3002,-371.2761 2669.7843,-340.0172 2814.7019,-325.4223"/>
<polygon fill="#191970" stroke="#191970" points="2815.2279,-328.8871 2824.826,-324.4007 2814.5251,-321.9224 2815.2279,-328.8871"/>
</g>
<!-- Node53 -->
<g id="node54" class="node">
<title>Node53</title>
<g id="a_node54"><a xlink:href="../../db/d18/UserLogicEndpointDecoder_8h.html" target="_top" xlink:title="UserLogicEndpointDecoder.h">
<polygon fill="none" stroke="#000000" points="669,-369.5 669,-388.5 813,-388.5 813,-369.5 669,-369.5"/>
<text text-anchor="middle" x="741" y="-376.5" font-family="Helvetica,sans-Serif" font-size="10.00" fill="#000000">UserLogicEndpointDecoder.h</text>
</a>
</g>
</g>
<!-- Node0&#45;&gt;Node53 -->
<g id="edge102" class="edge">
<title>Node0&#45;&gt;Node53</title>
<path fill="none" stroke="#191970" d="M741,-425.168C741,-416.8226 741,-407.2471 741,-398.9879"/>
<polygon fill="#191970" stroke="#191970" points="744.5001,-398.7804 741,-388.7805 737.5001,-398.7805 744.5001,-398.7804"/>
</g>
<!-- Node2 -->
<g id="node3" class="node">
<title>Node2</title>
<polygon fill="none" stroke="#bfbfbf" points="1474,-112.5 1474,-131.5 1512,-131.5 1512,-112.5 1474,-112.5"/>
<text text-anchor="middle" x="1493" y="-119.5" font-family="Helvetica,sans-Serif" font-size="10.00" fill="#000000">array</text>
</g>
<!-- Node1&#45;&gt;Node2 -->
<g id="edge2" class="edge">
<title>Node1&#45;&gt;Node2</title>
<path fill="none" stroke="#191970" d="M395.1399,-376.2829C595.8679,-365.2538 1323.0597,-321.7474 1409,-266 1432.4259,-250.8042 1468.2588,-176.7091 1484.4876,-141.1349"/>
<polygon fill="#191970" stroke="#191970" points="1487.768,-142.3745 1488.6897,-131.8198 1481.3872,-139.496 1487.768,-142.3745"/>
</g>
<!-- Node3 -->
<g id="node4" class="node">
<title>Node3</title>
<g id="a_node4"><a xlink:href="../../d7/ddc/BareElinkDecoder_8h.html" target="_top" xlink:title="BareElinkDecoder.h">
<polygon fill="none" stroke="#000000" points="769,-241 769,-260 873,-260 873,-241 769,-241"/>
<text text-anchor="middle" x="821" y="-248" font-family="Helvetica,sans-Serif" font-size="10.00" fill="#000000">BareElinkDecoder.h</text>
</a>
</g>
</g>
<!-- Node1&#45;&gt;Node3 -->
<g id="edge3" class="edge">
<title>Node1&#45;&gt;Node3</title>
<path fill="none" stroke="#191970" d="M336.4634,-369.4274C324.8503,-353.4583 305.6459,-321.2413 323,-302 330.2339,-293.9795 626.6114,-267.3537 758.6472,-255.8597"/>
<polygon fill="#191970" stroke="#191970" points="758.9646,-259.3454 768.624,-254.9928 758.3585,-252.3717 758.9646,-259.3454"/>
</g>
<!-- Node4 -->
<g id="node5" class="node">
<title>Node4</title>
<g id="a_node5"><a xlink:href="../../dc/d46/Assertions_8h.html" target="_top" xlink:title="Assertions.h">
<polygon fill="none" stroke="#000000" points="213.5,-174 213.5,-193 284.5,-193 284.5,-174 213.5,-174"/>
<text text-anchor="middle" x="249" y="-181" font-family="Helvetica,sans-Serif" font-size="10.00" fill="#000000">Assertions.h</text>
</a>
</g>
</g>
<!-- Node1&#45;&gt;Node4 -->
<g id="edge38" class="edge">
<title>Node1&#45;&gt;Node4</title>
<path fill="none" stroke="#191970" d="M303.8608,-369.3537C284.728,-362.5411 263.5436,-351.2656 252,-333 226.555,-292.7379 236.0407,-233.3989 243.4583,-203.0063"/>
<polygon fill="#191970" stroke="#191970" points="246.8767,-203.7686 246.0291,-193.2077 240.1059,-201.9922 246.8767,-203.7686"/>
</g>
<!-- Node5 -->
<g id="node6" class="node">
<title>Node5</title>
<polygon fill="none" stroke="#bfbfbf" points="745,-56.5 745,-75.5 815,-75.5 815,-56.5 745,-56.5"/>
<text text-anchor="middle" x="780" y="-63.5" font-family="Helvetica,sans-Serif" font-size="10.00" fill="#000000">fmt/format.h</text>
</g>
<!-- Node1&#45;&gt;Node5 -->
<g id="edge34" class="edge">
<title>Node1&#45;&gt;Node5</title>
<path fill="none" stroke="#191970" d="M292.7125,-371.8809C264.8082,-365.6941 231.327,-354.2134 208,-333 153.175,-283.1425 143.5794,-230.1106 184,-168 211.9964,-124.9806 235.8597,-126.8224 285,-112 474.4128,-54.8666 535.2645,-104.6995 734.6342,-75.9934"/>
<polygon fill="#191970" stroke="#191970" points="735.1663,-79.4528 744.5422,-74.519 734.1359,-72.529 735.1663,-79.4528"/>
</g>
<!-- Node1&#45;&gt;Node10 -->
<g id="edge39" class="edge">
<title>Node1&#45;&gt;Node10</title>
<path fill="none" stroke="#191970" d="M292.855,-376.7856C228.6554,-372.8087 124.0055,-361.954 100,-333 72.2004,-299.4698 82.4752,-274.8744 100,-235 132.5268,-160.9911 160.2015,-145.0014 234,-112 310.5393,-77.773 566.2678,-68.8382 662.7386,-66.6584"/>
<polygon fill="#191970" stroke="#191970" points="662.9759,-70.1542 672.8986,-66.4408 662.8259,-63.1558 662.9759,-70.1542"/>
</g>
<!-- Node11 -->
<g id="node12" class="node">
<title>Node11</title>
<g id="a_node12"><a xlink:href="../../dd/d58/SampaChannelHandler_8h.html" target="_top" xlink:title="MCHRawDecoder/SampaChannel\lHandler.h">
<polygon fill="none" stroke="#000000" points="546.5,-168.5 546.5,-198.5 713.5,-198.5 713.5,-168.5 546.5,-168.5"/>
<text text-anchor="start" x="554.5" y="-186.5" font-family="Helvetica,sans-Serif" font-size="10.00" fill="#000000">MCHRawDecoder/SampaChannel</text>
<text text-anchor="middle" x="630" y="-175.5" font-family="Helvetica,sans-Serif" font-size="10.00" fill="#000000">Handler.h</text>
</a>
</g>
</g>
<!-- Node1&#45;&gt;Node11 -->
<g id="edge31" class="edge">
<title>Node1&#45;&gt;Node11</title>
<path fill="none" stroke="#191970" d="M334.1261,-369.3982C319.129,-353.6708 294.1465,-322.1564 312,-302 399.8705,-202.795 507.9844,-352.9468 608,-266 624.1785,-251.9355 629.0989,-227.4336 630.3179,-208.7751"/>
<polygon fill="#191970" stroke="#191970" points="633.8224,-208.7009 630.6651,-198.5875 626.8265,-208.4625 633.8224,-208.7009"/>
</g>
<!-- Node19 -->
<g id="node20" class="node">
<title>Node19</title>
<polygon fill="none" stroke="#bfbfbf" points="883,-174 883,-193 947,-193 947,-174 883,-174"/>
<text text-anchor="middle" x="915" y="-181" font-family="Helvetica,sans-Serif" font-size="10.00" fill="#000000">fmt/printf.h</text>
</g>
<!-- Node1&#45;&gt;Node19 -->
<g id="edge33" class="edge">
<title>Node1&#45;&gt;Node19</title>
<path fill="none" stroke="#191970" d="M395.281,-377.2243C468.7672,-373.6807 607.7662,-363.2457 722,-333 796.5261,-313.2677 827.9257,-320.9497 882,-266 899.015,-248.7096 907.5782,-221.5314 911.6528,-203.1372"/>
<polygon fill="#191970" stroke="#191970" points="915.1066,-203.7125 913.6043,-193.2247 908.2385,-202.3603 915.1066,-203.7125"/>
</g>
<!-- Node22 -->
<g id="node23" class="node">
<title>Node22</title>
<polygon fill="none" stroke="#bfbfbf" points="324.5,-112.5 324.5,-131.5 377.5,-131.5 377.5,-112.5 324.5,-112.5"/>
<text text-anchor="middle" x="351" y="-119.5" font-family="Helvetica,sans-Serif" font-size="10.00" fill="#000000">gsl/span</text>
</g>
<!-- Node1&#45;&gt;Node22 -->
<g id="edge32" class="edge">
<title>Node1&#45;&gt;Node22</title>
<path fill="none" stroke="#191970" d="M296.7282,-369.4786C274.9802,-362.7691 250.6027,-351.5468 235,-333 186.9651,-275.9014 159.8136,-228.1263 204,-168 217.1556,-150.0986 275.1572,-136.0572 314.25,-128.4061"/>
<polygon fill="#191970" stroke="#191970" points="315.0606,-131.8148 324.2317,-126.5098 313.7541,-124.9378 315.0606,-131.8148"/>
</g>
<!-- Node23 -->
<g id="node24" class="node">
<title>Node23</title>
<g id="a_node24"><a xlink:href="../../d7/dee/MakeArray_8h.html" target="_top" xlink:title="MakeArray.h">
<polygon fill="none" stroke="#000000" points="1431,-308 1431,-327 1503,-327 1503,-308 1431,-308"/>
<text text-anchor="middle" x="1467" y="-315" font-family="Helvetica,sans-Serif" font-size="10.00" fill="#000000">MakeArray.h</text>
</a>
</g>
</g>
<!-- Node1&#45;&gt;Node23 -->
<g id="edge35" class="edge">
<title>Node1&#45;&gt;Node23</title>
<path fill="none" stroke="#191970" d="M395.137,-377.1184C590.1197,-369.8904 1280.889,-343.7745 1379,-333 1392.6397,-331.5021 1407.3596,-329.1888 1420.7849,-326.8025"/>
<polygon fill="#191970" stroke="#191970" points="1421.5538,-330.22 1430.7596,-324.9757 1420.2927,-323.3345 1421.5538,-330.22"/>
</g>
<!-- Node25 -->
<g id="node26" class="node">
<title>Node25</title>
<polygon fill="none" stroke="#bfbfbf" points="332,-302.5 332,-332.5 436,-332.5 436,-302.5 332,-302.5"/>
<text text-anchor="start" x="340" y="-320.5" font-family="Helvetica,sans-Serif" font-size="10.00" fill="#000000">boost/multiprecision</text>
<text text-anchor="middle" x="384" y="-309.5" font-family="Helvetica,sans-Serif" font-size="10.00" fill="#000000">/cpp_int.hpp</text>
</g>
<!-- Node1&#45;&gt;Node25 -->
<g id="edge40" class="edge">
<title>Node1&#45;&gt;Node25</title>
<path fill="none" stroke="#191970" d="M350.25,-369.3906C355.1623,-361.838 362.2194,-350.9876 368.6118,-341.1593"/>
<polygon fill="#191970" stroke="#191970" points="371.6966,-342.8358 374.2149,-332.5446 365.8286,-339.0192 371.6966,-342.8358"/>
</g>
<!-- Node26 -->
<g id="node27" class="node">
<title>Node26</title>
<g id="a_node27"><a xlink:href="../../d0/da1/PayloadDecoder_8h.html" target="_top" xlink:title="PayloadDecoder.h">
<polygon fill="none" stroke="#000000" points="615.5,-308 615.5,-327 712.5,-327 712.5,-308 615.5,-308"/>
<text text-anchor="middle" x="664" y="-315" font-family="Helvetica,sans-Serif" font-size="10.00" fill="#000000">PayloadDecoder.h</text>
</a>
</g>
</g>
<!-- Node1&#45;&gt;Node26 -->
<g id="edge41" class="edge">
<title>Node1&#45;&gt;Node26</title>
<path fill="none" stroke="#191970" d="M393.6489,-369.4581C450.7358,-358.4867 544.3649,-340.4924 605.0895,-328.8219"/>
<polygon fill="#191970" stroke="#191970" points="606.125,-332.187 615.2847,-326.8625 604.8038,-325.3128 606.125,-332.187"/>
</g>
<!-- Node3&#45;&gt;Node4 -->
<g id="edge4" class="edge">
<title>Node3&#45;&gt;Node4</title>
<path fill="none" stroke="#191970" d="M768.9765,-244.4063C657.9693,-231.4037 399.4744,-201.1255 294.5145,-188.8312"/>
<polygon fill="#191970" stroke="#191970" points="294.8902,-185.3514 284.5509,-187.6642 294.0758,-192.3039 294.8902,-185.3514"/>
</g>
<!-- Node3&#45;&gt;Node5 -->
<g id="edge24" class="edge">
<title>Node3&#45;&gt;Node5</title>
<path fill="none" stroke="#191970" d="M817.0595,-240.7759C813.0367,-230.5304 806.8516,-213.8523 803,-199 792.7519,-159.4825 785.8002,-112.1544 782.4045,-85.9486"/>
<polygon fill="#191970" stroke="#191970" points="785.8485,-85.2828 781.1314,-75.796 778.9029,-86.1538 785.8485,-85.2828"/>
</g>
<!-- Node3&#45;&gt;Node6 -->
<g id="edge6" class="edge">
<title>Node3&#45;&gt;Node6</title>
<path fill="none" stroke="#191970" d="M873.1448,-248.4969C954.0919,-244.4276 1114.3733,-232.5209 1246,-199 1347.493,-173.1532 1364.4901,-141.4388 1465,-112 1517.6512,-96.5787 1578.4211,-84.9014 1625.2423,-77.1711"/>
<polygon fill="#191970" stroke="#191970" points="1626.0062,-80.5929 1635.3148,-75.5333 1624.8827,-73.6837 1626.0062,-80.5929"/>
</g>
<!-- Node8 -->
<g id="node9" class="node">
<title>Node8</title>
<g id="a_node9"><a xlink:href="../../d5/d49/SampaHeader_8h.html" target="_top" xlink:title="MCHRawCommon/SampaHeader.h">
<polygon fill="none" stroke="#000000" points="1063.5,-174 1063.5,-193 1236.5,-193 1236.5,-174 1063.5,-174"/>
<text text-anchor="middle" x="1150" y="-181" font-family="Helvetica,sans-Serif" font-size="10.00" fill="#000000">MCHRawCommon/SampaHeader.h</text>
</a>
</g>
</g>
<!-- Node3&#45;&gt;Node8 -->
<g id="edge8" class="edge">
<title>Node3&#45;&gt;Node8</title>
<path fill="none" stroke="#191970" d="M867.7883,-240.9717C927.1477,-228.8833 1029.4501,-208.0497 1093.2163,-195.0638"/>
<polygon fill="#191970" stroke="#191970" points="1094.0067,-198.4748 1103.1071,-193.0496 1092.6097,-191.6156 1094.0067,-198.4748"/>
</g>
<!-- Node3&#45;&gt;Node10 -->
<g id="edge27" class="edge">
<title>Node3&#45;&gt;Node10</title>
<path fill="none" stroke="#191970" d="M814.6649,-240.8402C795.3891,-211.4487 737.2272,-122.7637 711.9473,-84.2172"/>
<polygon fill="#191970" stroke="#191970" points="714.6833,-82.0068 706.2724,-75.5641 708.8298,-85.8457 714.6833,-82.0068"/>
</g>
<!-- Node3&#45;&gt;Node11 -->
<g id="edge11" class="edge">
<title>Node3&#45;&gt;Node11</title>
<path fill="none" stroke="#191970" d="M793.6344,-240.9005C764.7828,-230.7798 718.6194,-214.5864 682.6693,-201.9756"/>
<polygon fill="#191970" stroke="#191970" points="683.4181,-198.5292 672.8232,-198.5218 681.101,-205.1346 683.4181,-198.5292"/>
</g>
<!-- Node12 -->
<g id="node13" class="node">
<title>Node12</title>
<polygon fill="none" stroke="#bfbfbf" points="845.5,-112.5 845.5,-131.5 904.5,-131.5 904.5,-112.5 845.5,-112.5"/>
<text text-anchor="middle" x="875" y="-119.5" font-family="Helvetica,sans-Serif" font-size="10.00" fill="#000000">functional</text>
</g>
<!-- Node3&#45;&gt;Node12 -->
<g id="edge26" class="edge">
<title>Node3&#45;&gt;Node12</title>
<path fill="none" stroke="#191970" d="M825.0588,-240.8416C833.9325,-219.7254 855.2009,-169.1144 866.9172,-141.2341"/>
<polygon fill="#191970" stroke="#191970" points="870.2466,-142.3455 870.8941,-131.7705 863.7932,-139.6335 870.2466,-142.3455"/>
</g>
<!-- Node14 -->
<g id="node15" class="node">
<title>Node14</title>
<polygon fill="none" stroke="#bfbfbf" points="1166,-56.5 1166,-75.5 1210,-75.5 1210,-56.5 1166,-56.5"/>
<text text-anchor="middle" x="1188" y="-63.5" font-family="Helvetica,sans-Serif" font-size="10.00" fill="#000000">vector</text>
</g>
<!-- Node3&#45;&gt;Node14 -->
<g id="edge29" class="edge">
<title>Node3&#45;&gt;Node14</title>
<path fill="none" stroke="#191970" d="M818.5887,-240.7795C812.9727,-215.5594 802.0127,-147.5267 837,-112 859.2317,-89.4256 1073.394,-73.372 1155.8569,-67.9814"/>
<polygon fill="#191970" stroke="#191970" points="1156.1597,-71.4693 1165.9143,-67.3344 1155.7102,-64.4837 1156.1597,-71.4693"/>
</g>
<!-- Node18 -->
<g id="node19" class="node">
<title>Node18</title>
<polygon fill="none" stroke="#bfbfbf" points="965.5,-174 965.5,-193 1006.5,-193 1006.5,-174 965.5,-174"/>
<text text-anchor="middle" x="986" y="-181" font-family="Helvetica,sans-Serif" font-size="10.00" fill="#000000">bitset</text>
</g>
<!-- Node3&#45;&gt;Node18 -->
<g id="edge23" class="edge">
<title>Node3&#45;&gt;Node18</title>
<path fill="none" stroke="#191970" d="M848.7767,-240.9369C876.3324,-231.2096 919.5922,-215.2879 956,-199 957.0168,-198.5451 958.0478,-198.0724 959.0855,-197.587"/>
<polygon fill="#191970" stroke="#191970" points="960.9618,-200.5648 968.3942,-193.0143 957.8755,-194.2819 960.9618,-200.5648"/>
</g>
<!-- Node3&#45;&gt;Node19 -->
<g id="edge25" class="edge">
<title>Node3&#45;&gt;Node19</title>
<path fill="none" stroke="#191970" d="M834.4679,-240.9005C849.8244,-229.9549 875.1463,-211.9064 893.2976,-198.9688"/>
<polygon fill="#191970" stroke="#191970" points="895.4454,-201.736 901.5571,-193.0817 891.3824,-196.0358 895.4454,-201.736"/>
</g>
<!-- Node20 -->
<g id="node21" class="node">
<title>Node20</title>
<polygon fill="none" stroke="#bfbfbf" points="2235.5,-112.5 2235.5,-131.5 2294.5,-131.5 2294.5,-112.5 2235.5,-112.5"/>
<text text-anchor="middle" x="2265" y="-119.5" font-family="Helvetica,sans-Serif" font-size="10.00" fill="#000000">stdexcept</text>
</g>
<!-- Node3&#45;&gt;Node20 -->
<g id="edge28" class="edge">
<title>Node3&#45;&gt;Node20</title>
<path fill="none" stroke="#191970" d="M873.0427,-248.4183C1050.9345,-241.1736 1628.3329,-216.5512 1710,-199 1747.6859,-190.9008 1753.417,-176.564 1791,-168 1977.0056,-125.6149 2032.8493,-162.9235 2225.4285,-131.8003"/>
<polygon fill="#191970" stroke="#191970" points="2226.0066,-135.2524 2235.3,-130.1649 2224.8624,-128.3465 2226.0066,-135.2524"/>
</g>
<!-- Node21 -->
<g id="node22" class="node">
<title>Node21</title>
<polygon fill="none" stroke="#bfbfbf" points="2312.5,-112.5 2312.5,-131.5 2361.5,-131.5 2361.5,-112.5 2312.5,-112.5"/>
<text text-anchor="middle" x="2337" y="-119.5" font-family="Helvetica,sans-Serif" font-size="10.00" fill="#000000">cassert</text>
</g>
<!-- Node3&#45;&gt;Node21 -->
<g id="edge30" class="edge">
<title>Node3&#45;&gt;Node21</title>
<path fill="none" stroke="#191970" d="M873.323,-248.2513C1065.1267,-239.9291 1720.8151,-210.7533 1764,-199 1792.9622,-191.1176 1795.1193,-176.176 1824,-168 2026.6268,-110.6375 2091.67,-169.3634 2302.1446,-131.9809"/>
<polygon fill="#191970" stroke="#191970" points="2303.0713,-135.3696 2312.2783,-130.1273 2301.8117,-128.4838 2303.0713,-135.3696"/>
</g>
<!-- Node4&#45;&gt;Node5 -->
<g id="edge5" class="edge">
<title>Node4&#45;&gt;Node5</title>
<path fill="none" stroke="#191970" d="M254.7405,-173.7434C264.8213,-157.6363 287.3789,-125.8853 316,-112 397.5648,-72.4294 627.9327,-89.2329 734.3326,-75.9329"/>
<polygon fill="#191970" stroke="#191970" points="735.1227,-79.3564 744.5394,-74.5009 734.1501,-72.4243 735.1227,-79.3564"/>
</g>
<!-- Node7 -->
<g id="node8" class="node">
<title>Node7</title>
<polygon fill="none" stroke="#bfbfbf" points="2042,-.5 2042,-19.5 2088,-19.5 2088,-.5 2042,-.5"/>
<text text-anchor="middle" x="2065" y="-7.5" font-family="Helvetica,sans-Serif" font-size="10.00" fill="#000000">cstdint</text>
</g>
<!-- Node6&#45;&gt;Node7 -->
<g id="edge7" class="edge">
<title>Node6&#45;&gt;Node7</title>
<path fill="none" stroke="#191970" d="M1763.9895,-56.4369C1841.3546,-44.5018 1970.8705,-24.5213 2031.6268,-15.1485"/>
<polygon fill="#191970" stroke="#191970" points="2032.4512,-18.5628 2041.8006,-13.579 2031.3839,-11.6446 2032.4512,-18.5628"/>
</g>
<!-- Node9 -->
<g id="node10" class="node">
<title>Node9</title>
<polygon fill="none" stroke="#bfbfbf" points="1318.5,-56.5 1318.5,-75.5 1363.5,-75.5 1363.5,-56.5 1318.5,-56.5"/>
<text text-anchor="middle" x="1341" y="-63.5" font-family="Helvetica,sans-Serif" font-size="10.00" fill="#000000">cstdlib</text>
</g>
<!-- Node8&#45;&gt;Node9 -->
<g id="edge9" class="edge">
<title>Node8&#45;&gt;Node9</title>
<path fill="none" stroke="#191970" d="M1189.1249,-173.9795C1217.2525,-165.8752 1255.1487,-152.2801 1284,-132 1302.4632,-119.0219 1318.7506,-98.7805 1329.1362,-84.1345"/>
<polygon fill="#191970" stroke="#191970" points="1332.0447,-86.0817 1334.8067,-75.8532 1326.269,-82.1268 1332.0447,-86.0817"/>
</g>
<!-- Node8&#45;&gt;Node10 -->
<g id="edge10" class="edge">
<title>Node8&#45;&gt;Node10</title>
<path fill="none" stroke="#191970" d="M1119.1785,-173.984C1059.9282,-155.7171 934.1859,-117.087 914,-112 838.7914,-93.047 816.2364,-94.6489 737.0215,-76.1072"/>
<polygon fill="#191970" stroke="#191970" points="737.6112,-72.6499 727.073,-73.7434 735.993,-79.4603 737.6112,-72.6499"/>
</g>
<!-- Node11&#45;&gt;Node12 -->
<g id="edge12" class="edge">
<title>Node11&#45;&gt;Node12</title>
<path fill="none" stroke="#191970" d="M689.9337,-168.4554C735.285,-157.0713 796.2752,-141.7615 835.6175,-131.8858"/>
<polygon fill="#191970" stroke="#191970" points="836.5279,-135.2659 845.3749,-129.4365 834.8236,-128.4766 836.5279,-135.2659"/>
</g>
<!-- Node13 -->
<g id="node14" class="node">
<title>Node13</title>
<g id="a_node14"><a xlink:href="../../d0/d5b/SampaCluster_8h.html" target="_top" xlink:title="MCHRawCommon/SampaCluster.h">
<polygon fill="none" stroke="#000000" points="1101.5,-112.5 1101.5,-131.5 1274.5,-131.5 1274.5,-112.5 1101.5,-112.5"/>
<text text-anchor="middle" x="1188" y="-119.5" font-family="Helvetica,sans-Serif" font-size="10.00" fill="#000000">MCHRawCommon/SampaCluster.h</text>
</a>
</g>
</g>
<!-- Node11&#45;&gt;Node13 -->
<g id="edge13" class="edge">
<title>Node11&#45;&gt;Node13</title>
<path fill="none" stroke="#191970" d="M713.5382,-174.2928C814.7089,-163.1423 984.79,-144.3968 1091.4714,-132.6389"/>
<polygon fill="#191970" stroke="#191970" points="1092.0367,-136.0979 1101.5931,-131.5233 1091.2698,-129.14 1092.0367,-136.0979"/>
</g>
<!-- Node15 -->
<g id="node16" class="node">
<title>Node15</title>
<g id="a_node16"><a xlink:href="../../d4/d09/DsElecId_8h.html" target="_top" xlink:title="MCHRawElecMap/DsElecId.h">
<polygon fill="none" stroke="#000000" points="1695,-112.5 1695,-131.5 1845,-131.5 1845,-112.5 1695,-112.5"/>
<text text-anchor="middle" x="1770" y="-119.5" font-family="Helvetica,sans-Serif" font-size="10.00" fill="#000000">MCHRawElecMap/DsElecId.h</text>
</a>
</g>
</g>
<!-- Node11&#45;&gt;Node15 -->
<g id="edge19" class="edge">
<title>Node11&#45;&gt;Node15</title>
<path fill="none" stroke="#191970" d="M713.552,-177.9406C760.6625,-174.8692 820.6054,-171.0664 874,-168 953.3764,-163.4414 1476.0989,-136.8929 1684.4749,-126.3314"/>
<polygon fill="#191970" stroke="#191970" points="1684.9458,-129.8121 1694.7558,-125.8103 1684.5914,-122.8211 1684.9458,-129.8121"/>
</g>
<!-- Node13&#45;&gt;Node5 -->
<g id="edge17" class="edge">
<title>Node13&#45;&gt;Node5</title>
<path fill="none" stroke="#191970" d="M1118.3259,-112.4369C1034.4831,-100.929 896.1462,-81.9416 825.1354,-72.1951"/>
<polygon fill="#191970" stroke="#191970" points="825.5445,-68.7185 815.1614,-70.8261 824.5926,-75.6535 825.5445,-68.7185"/>
</g>
<!-- Node13&#45;&gt;Node6 -->
<g id="edge18" class="edge">
<title>Node13&#45;&gt;Node6</title>
<path fill="none" stroke="#191970" d="M1274.6119,-112.5637C1366.8116,-102.5186 1512.2612,-86.6719 1607.4031,-76.3063"/>
<polygon fill="#191970" stroke="#191970" points="1608.0358,-79.7581 1617.5978,-75.1956 1607.2776,-72.7993 1608.0358,-79.7581"/>
</g>
<!-- Node13&#45;&gt;Node9 -->
<g id="edge14" class="edge">
<title>Node13&#45;&gt;Node9</title>
<path fill="none" stroke="#191970" d="M1214.3016,-112.3733C1240.3259,-102.848 1280.2268,-88.2438 1308.2832,-77.9748"/>
<polygon fill="#191970" stroke="#191970" points="1309.8484,-81.129 1318.0362,-74.4051 1307.4424,-74.5555 1309.8484,-81.129"/>
</g>
<!-- Node13&#45;&gt;Node10 -->
<g id="edge16" class="edge">
<title>Node13&#45;&gt;Node10</title>
<path fill="none" stroke="#191970" d="M1101.1442,-117.5424C1011.9109,-111.9684 868.9556,-100.279 736.9035,-75.8875"/>
<polygon fill="#191970" stroke="#191970" points="737.485,-72.4356 727.0111,-74.0324 736.1946,-79.3157 737.485,-72.4356"/>
</g>
<!-- Node13&#45;&gt;Node14 -->
<g id="edge15" class="edge">
<title>Node13&#45;&gt;Node14</title>
<path fill="none" stroke="#191970" d="M1188,-112.2455C1188,-104.9382 1188,-94.6944 1188,-85.7046"/>
<polygon fill="#191970" stroke="#191970" points="1191.5001,-85.6426 1188,-75.6427 1184.5001,-85.6427 1191.5001,-85.6426"/>
</g>
<!-- Node15&#45;&gt;Node7 -->
<g id="edge20" class="edge">
<title>Node15&#45;&gt;Node7</title>
<path fill="none" stroke="#191970" d="M1795.1515,-112.4509C1848.496,-92.1981 1972.9462,-44.9492 2032.3356,-22.4014"/>
<polygon fill="#191970" stroke="#191970" points="2033.8566,-25.5678 2041.9632,-18.7462 2031.372,-19.0235 2033.8566,-25.5678"/>
</g>
<!-- Node16 -->
<g id="node17" class="node">
<title>Node16</title>
<polygon fill="none" stroke="#bfbfbf" points="2042.5,-56.5 2042.5,-75.5 2087.5,-75.5 2087.5,-56.5 2042.5,-56.5"/>
<text text-anchor="middle" x="2065" y="-63.5" font-family="Helvetica,sans-Serif" font-size="10.00" fill="#000000">iosfwd</text>
</g>
<!-- Node15&#45;&gt;Node16 -->
<g id="edge21" class="edge">
<title>Node15&#45;&gt;Node16</title>
<path fill="none" stroke="#191970" d="M1820.3771,-112.4369C1881.0354,-100.9221 1981.1427,-81.9187 2032.4584,-72.1774"/>
<polygon fill="#191970" stroke="#191970" points="2033.169,-75.6051 2042.3407,-70.3014 2031.8634,-68.7279 2033.169,-75.6051"/>
</g>
<!-- Node17 -->
<g id="node18" class="node">
<title>Node17</title>
<polygon fill="none" stroke="#bfbfbf" points="1804,-56.5 1804,-75.5 1854,-75.5 1854,-56.5 1804,-56.5"/>
<text text-anchor="middle" x="1829" y="-63.5" font-family="Helvetica,sans-Serif" font-size="10.00" fill="#000000">optional</text>
</g>
<!-- Node15&#45;&gt;Node17 -->
<g id="edge22" class="edge">
<title>Node15&#45;&gt;Node17</title>
<path fill="none" stroke="#191970" d="M1780.277,-112.2455C1788.8218,-104.1352 1801.1778,-92.4075 1811.3085,-82.7919"/>
<polygon fill="#191970" stroke="#191970" points="1813.9972,-85.0655 1818.8408,-75.6427 1809.1782,-79.9884 1813.9972,-85.0655"/>
</g>
<!-- Node23&#45;&gt;Node2 -->
<g id="edge36" class="edge">
<title>Node23&#45;&gt;Node2</title>
<path fill="none" stroke="#191970" d="M1468.2893,-307.8051C1472.3441,-277.3163 1484.8922,-182.9646 1490.3827,-141.6804"/>
<polygon fill="#191970" stroke="#191970" points="1493.8539,-142.1276 1491.7029,-131.7534 1486.915,-141.2047 1493.8539,-142.1276"/>
</g>
<!-- Node24 -->
<g id="node25" class="node">
<title>Node24</title>
<polygon fill="none" stroke="#bfbfbf" points="2089,-174 2089,-193 2151,-193 2151,-174 2089,-174"/>
<text text-anchor="middle" x="2120" y="-181" font-family="Helvetica,sans-Serif" font-size="10.00" fill="#000000">type_traits</text>
</g>
<!-- Node23&#45;&gt;Node24 -->
<g id="edge37" class="edge">
<title>Node23&#45;&gt;Node24</title>
<path fill="none" stroke="#191970" d="M1503.0383,-310.1047C1615.5315,-287.0203 1959.7617,-216.382 2078.9039,-191.9332"/>
<polygon fill="#191970" stroke="#191970" points="2079.6442,-195.3543 2088.7365,-189.9155 2078.237,-188.4972 2079.6442,-195.3543"/>
</g>
<!-- Node26&#45;&gt;Node9 -->
<g id="edge67" class="edge">
<title>Node26&#45;&gt;Node9</title>
<path fill="none" stroke="#191970" d="M712.7496,-315.8351C871.3811,-310.1842 1363.9916,-290.7056 1387,-266 1435.1065,-214.3449 1381.2042,-122.8583 1354.3697,-84.128"/>
<polygon fill="#191970" stroke="#191970" points="1357.1513,-82 1348.5042,-75.878 1351.4462,-86.0562 1357.1513,-82"/>
</g>
<!-- Node26&#45;&gt;Node11 -->
<g id="edge44" class="edge">
<title>Node26&#45;&gt;Node11</title>
<path fill="none" stroke="#191970" d="M668.9056,-307.753C676.1507,-291.9554 687.847,-260.0074 678,-235 673.6801,-224.0291 665.7998,-214.0135 657.656,-205.7911"/>
<polygon fill="#191970" stroke="#191970" points="659.8773,-203.0752 650.1974,-198.768 655.0785,-208.1715 659.8773,-203.0752"/>
</g>
<!-- Node26&#45;&gt;Node22 -->
<g id="edge68" class="edge">
<title>Node26&#45;&gt;Node22</title>
<path fill="none" stroke="#191970" d="M615.2623,-309.4118C549.3098,-298.1153 438.0967,-277.6886 423,-266 382.0582,-234.301 362.6676,-173.0741 355.0769,-141.653"/>
<polygon fill="#191970" stroke="#191970" points="358.4096,-140.5208 352.7962,-131.5352 351.5809,-142.0601 358.4096,-140.5208"/>
</g>
<!-- Node27 -->
<g id="node28" class="node">
<title>Node27</title>
<g id="a_node28"><a xlink:href="../../d4/dee/RAWDataHeader_8h.html" target="_top" xlink:title="Definition of the RAW Data Header. ">
<polygon fill="none" stroke="#000000" points="2953.5,-174 2953.5,-193 3094.5,-193 3094.5,-174 2953.5,-174"/>
<text text-anchor="middle" x="3024" y="-181" font-family="Helvetica,sans-Serif" font-size="10.00" fill="#000000">Headers/RAWDataHeader.h</text>
</a>
</g>
</g>
<!-- Node26&#45;&gt;Node27 -->
<g id="edge42" class="edge">
<title>Node26&#45;&gt;Node27</title>
<path fill="none" stroke="#191970" d="M712.5954,-316.5235C1034.3694,-310.0391 2845.9902,-273.2337 2873,-266 2923.5136,-252.4716 2975.5505,-218.8685 3003.4077,-198.9709"/>
<polygon fill="#191970" stroke="#191970" points="3005.541,-201.7472 3011.57,-193.035 3001.4239,-196.0859 3005.541,-201.7472"/>
</g>
<!-- Node26&#45;&gt;Node28 -->
<g id="edge45" class="edge">
<title>Node26&#45;&gt;Node28</title>
<path fill="none" stroke="#191970" d="M642.6519,-307.9005C617.2038,-296.4574 574.4909,-277.2509 545.5503,-264.2374"/>
<polygon fill="#191970" stroke="#191970" points="546.8642,-260.9907 536.3085,-260.0817 543.9934,-267.3749 546.8642,-260.9907"/>
</g>
<!-- Node29 -->
<g id="node30" class="node">
<title>Node29</title>
<polygon fill="none" stroke="#bfbfbf" points="493.5,-174 493.5,-193 528.5,-193 528.5,-174 493.5,-174"/>
<text text-anchor="middle" x="511" y="-181" font-family="Helvetica,sans-Serif" font-size="10.00" fill="#000000">map</text>
</g>
<!-- Node26&#45;&gt;Node29 -->
<g id="edge66" class="edge">
<title>Node26&#45;&gt;Node29</title>
<path fill="none" stroke="#191970" d="M659.5338,-307.962C651.3449,-291.3205 632.495,-256.6896 608,-235 581.808,-211.8077 568.7339,-215.7132 538,-199 537.4658,-198.7095 536.9264,-198.4146 536.3834,-198.1163"/>
<polygon fill="#191970" stroke="#191970" points="537.9295,-194.9705 527.4957,-193.1301 534.5045,-201.0754 537.9295,-194.9705"/>
</g>
<!-- Node27&#45;&gt;Node7 -->
<g id="edge43" class="edge">
<title>Node27&#45;&gt;Node7</title>
<path fill="none" stroke="#191970" d="M3094.7238,-176.9992C3153.8883,-169.9239 3231.6463,-156.2364 3251,-132 3256.5467,-125.054 3256.917,-118.6333 3251,-112 3172.1364,-23.5895 2282.9858,-11.725 2098.4215,-10.212"/>
<polygon fill="#191970" stroke="#191970" points="2098.2693,-6.7108 2088.2425,-10.1334 2098.2152,-13.7106 2098.2693,-6.7108"/>
</g>
<!-- Node28&#45;&gt;Node11 -->
<g id="edge49" class="edge">
<title>Node28&#45;&gt;Node11</title>
<path fill="none" stroke="#191970" d="M531.4767,-240.9005C548.1057,-231.2123 574.2862,-215.9593 595.4807,-203.6113"/>
<polygon fill="#191970" stroke="#191970" points="597.3378,-206.58 604.2164,-198.5218 593.8139,-200.5317 597.3378,-206.58"/>
</g>
<!-- Node28&#45;&gt;Node12 -->
<g id="edge46" class="edge">
<title>Node28&#45;&gt;Node12</title>
<path fill="none" stroke="#191970" d="M505.9783,-240.9287C491.3343,-224.2358 465.8622,-189.5278 485,-168 496.5818,-154.9718 738.639,-133.3957 835.4727,-125.2489"/>
<polygon fill="#191970" stroke="#191970" points="835.788,-128.7348 845.4612,-124.4129 835.2041,-121.7592 835.788,-128.7348"/>
</g>
<!-- Node28&#45;&gt;Node22 -->
<g id="edge47" class="edge">
<title>Node28&#45;&gt;Node22</title>
<path fill="none" stroke="#191970" d="M502.6733,-240.8416C474.6549,-218.8881 405.9494,-165.0549 371.4564,-138.0283"/>
<polygon fill="#191970" stroke="#191970" points="373.4999,-135.1831 363.4697,-131.7705 369.1825,-140.6931 373.4999,-135.1831"/>
</g>
<!-- Node28&#45;&gt;Node29 -->
<g id="edge48" class="edge">
<title>Node28&#45;&gt;Node29</title>
<path fill="none" stroke="#191970" d="M514.4269,-240.9005C513.8447,-231.149 512.926,-215.7597 512.1862,-203.3695"/>
<polygon fill="#191970" stroke="#191970" points="515.6619,-202.8553 511.572,-193.0817 508.6743,-203.2725 515.6619,-202.8553"/>
</g>
<!-- Node28&#45;&gt;Node30 -->
<g id="edge50" class="edge">
<title>Node28&#45;&gt;Node30</title>
<path fill="none" stroke="#191970" d="M598.623,-245.1253C645.9722,-242.1032 706.2931,-238.2885 760,-235 1050.0951,-217.2374 1394.6674,-197.1359 1548.6388,-188.2058"/>
<polygon fill="#191970" stroke="#191970" points="1549.1668,-191.6812 1558.9474,-187.6081 1548.7615,-184.6929 1549.1668,-191.6812"/>
</g>
<!-- Node30&#45;&gt;Node2 -->
<g id="edge64" class="edge">
<title>Node30&#45;&gt;Node2</title>
<path fill="none" stroke="#191970" d="M1608.5938,-173.8906C1585.1044,-163.3461 1547.2954,-146.3735 1521.3553,-134.7288"/>
<polygon fill="#191970" stroke="#191970" points="1522.6056,-131.4537 1512.0493,-130.5513 1519.7388,-137.8397 1522.6056,-131.4537"/>
</g>
<!-- Node30&#45;&gt;Node5 -->
<g id="edge63" class="edge">
<title>Node30&#45;&gt;Node5</title>
<path fill="none" stroke="#191970" d="M1558.9597,-179.605C1433.7936,-172.2575 1179.0711,-154.9999 1093,-132 1072.2472,-126.4544 1069.5342,-118.3069 1049,-112 972.1992,-88.4112 879.1165,-75.8894 825.0186,-70.1231"/>
<polygon fill="#191970" stroke="#191970" points="825.367,-66.6406 815.0595,-69.0912 824.6455,-73.6033 825.367,-66.6406"/>
</g>
<!-- Node30&#45;&gt;Node7 -->
<g id="edge55" class="edge">
<title>Node30&#45;&gt;Node7</title>
<path fill="none" stroke="#191970" d="M1623.745,-173.7116C1609.558,-150.1586 1578.4569,-89.7792 1609,-56 1637.2868,-24.7161 1931.5109,-13.6985 2031.7597,-10.8364"/>
<polygon fill="#191970" stroke="#191970" points="2032.0237,-14.3305 2041.9232,-10.5554 2031.8302,-7.3332 2032.0237,-14.3305"/>
</g>
<!-- Node30&#45;&gt;Node12 -->
<g id="edge51" class="edge">
<title>Node30&#45;&gt;Node12</title>
<path fill="none" stroke="#191970" d="M1558.9714,-177.7142C1403.2772,-165.0319 1036.1683,-135.1283 914.7577,-125.2385"/>
<polygon fill="#191970" stroke="#191970" points="915.0306,-121.7493 904.7794,-124.4257 914.4622,-128.7262 915.0306,-121.7493"/>
</g>
<!-- Node30&#45;&gt;Node15 -->
<g id="edge59" class="edge">
<title>Node30&#45;&gt;Node15</title>
<path fill="none" stroke="#191970" d="M1651.875,-173.8906C1675.2996,-163.6005 1712.6596,-147.1888 1739.0841,-135.5809"/>
<polygon fill="#191970" stroke="#191970" points="1740.5307,-138.7683 1748.2786,-131.5419 1737.7154,-132.3594 1740.5307,-138.7683"/>
</g>
<!-- Node30&#45;&gt;Node17 -->
<g id="edge52" class="edge">
<title>Node30&#45;&gt;Node17</title>
<path fill="none" stroke="#191970" d="M1635.1496,-173.6513C1643.6831,-158.2697 1662.2005,-128.5914 1686,-112 1690.5952,-108.7966 1753.4481,-89.1689 1794.2811,-76.6088"/>
<polygon fill="#191970" stroke="#191970" points="1795.3551,-79.9404 1803.8873,-73.6593 1793.3004,-73.2487 1795.3551,-79.9404"/>
</g>
<!-- Node30&#45;&gt;Node20 -->
<g id="edge54" class="edge">
<title>Node30&#45;&gt;Node20</title>
<path fill="none" stroke="#191970" d="M1677.0653,-173.964C1689.3697,-171.7331 1702.6474,-169.5566 1715,-168 1937.5787,-139.9521 1999.4541,-167.5888 2225.1317,-131.8398"/>
<polygon fill="#191970" stroke="#191970" points="2225.9892,-135.247 2235.3063,-130.2031 2224.8773,-128.3358 2225.9892,-135.247"/>
</g>
<!-- Node30&#45;&gt;Node22 -->
<g id="edge65" class="edge">
<title>Node30&#45;&gt;Node22</title>
<path fill="none" stroke="#191970" d="M1558.9548,-180.0838C1321.9565,-168.6879 563.5138,-132.2186 387.6558,-123.7626"/>
<polygon fill="#191970" stroke="#191970" points="387.7737,-120.2643 377.6171,-123.2799 387.4374,-127.2562 387.7737,-120.2643"/>
</g>
<!-- Node31 -->
<g id="node32" class="node">
<title>Node31</title>
<polygon fill="none" stroke="#bfbfbf" points="1532,-112.5 1532,-131.5 1562,-131.5 1562,-112.5 1532,-112.5"/>
<text text-anchor="middle" x="1547" y="-119.5" font-family="Helvetica,sans-Serif" font-size="10.00" fill="#000000">set</text>
</g>
<!-- Node30&#45;&gt;Node31 -->
<g id="edge53" class="edge">
<title>Node30&#45;&gt;Node31</title>
<path fill="none" stroke="#191970" d="M1617.0313,-173.8906C1603.9966,-164.2324 1583.6836,-149.1812 1568.2845,-137.771"/>
<polygon fill="#191970" stroke="#191970" points="1569.9961,-134.6832 1559.8777,-131.5419 1565.8287,-140.3075 1569.9961,-134.6832"/>
</g>
<!-- Node32 -->
<g id="node33" class="node">
<title>Node32</title>
<g id="a_node33"><a xlink:href="../../d5/dcd/DsDetId_8h.html" target="_top" xlink:title="MCHRawElecMap/DsDetId.h">
<polygon fill="none" stroke="#000000" points="1901,-112.5 1901,-131.5 2047,-131.5 2047,-112.5 1901,-112.5"/>
<text text-anchor="middle" x="1974" y="-119.5" font-family="Helvetica,sans-Serif" font-size="10.00" fill="#000000">MCHRawElecMap/DsDetId.h</text>
</a>
</g>
</g>
<!-- Node30&#45;&gt;Node32 -->
<g id="edge56" class="edge">
<title>Node30&#45;&gt;Node32</title>
<path fill="none" stroke="#191970" d="M1682.1376,-173.9534C1692.9966,-171.9761 1704.3706,-169.9131 1715,-168 1781.3668,-156.0554 1857.3387,-142.5865 1909.7569,-133.3254"/>
<polygon fill="#191970" stroke="#191970" points="1910.6779,-136.717 1919.9167,-131.5309 1909.4603,-129.8237 1910.6779,-136.717"/>
</g>
<!-- Node33 -->
<g id="node34" class="node">
<title>Node33</title>
<g id="a_node34"><a xlink:href="../../d8/d97/FeeLinkId_8h.html" target="_top" xlink:title="MCHRawElecMap/FeeLinkId.h">
<polygon fill="none" stroke="#000000" points="2065,-112.5 2065,-131.5 2217,-131.5 2217,-112.5 2065,-112.5"/>
<text text-anchor="middle" x="2141" y="-119.5" font-family="Helvetica,sans-Serif" font-size="10.00" fill="#000000">MCHRawElecMap/FeeLinkId.h</text>
</a>
</g>
</g>
<!-- Node30&#45;&gt;Node33 -->
<g id="edge60" class="edge">
<title>Node30&#45;&gt;Node33</title>
<path fill="none" stroke="#191970" d="M1678.8904,-173.9354C1690.6855,-171.8078 1703.2703,-169.6862 1715,-168 1862.6062,-146.7809 1902.8281,-148.8035 2054.402,-132.1614"/>
<polygon fill="#191970" stroke="#191970" points="2054.9953,-135.6172 2064.5493,-131.0378 2054.2248,-128.6597 2054.9953,-135.6172"/>
</g>
<!-- Node32&#45;&gt;Node7 -->
<g id="edge57" class="edge">
<title>Node32&#45;&gt;Node7</title>
<path fill="none" stroke="#191970" d="M1981.7586,-112.4509C1997.0706,-93.6054 2031.3748,-51.3849 2050.8285,-27.4419"/>
<polygon fill="#191970" stroke="#191970" points="2053.6715,-29.4931 2057.261,-19.5249 2048.2387,-25.079 2053.6715,-29.4931"/>
</g>
<!-- Node32&#45;&gt;Node16 -->
<g id="edge58" class="edge">
<title>Node32&#45;&gt;Node16</title>
<path fill="none" stroke="#191970" d="M1989.851,-112.2455C2003.8132,-103.6534 2024.3728,-91.0014 2040.4596,-81.1018"/>
<polygon fill="#191970" stroke="#191970" points="2042.6484,-83.8645 2049.3307,-75.6427 2038.9797,-77.9029 2042.6484,-83.8645"/>
</g>
<!-- Node33&#45;&gt;Node7 -->
<g id="edge61" class="edge">
<title>Node33&#45;&gt;Node7</title>
<path fill="none" stroke="#191970" d="M2134.5006,-112.1192C2125.9679,-99.1779 2110.4884,-75.8049 2097,-56 2090.7263,-46.7884 2083.6592,-36.6091 2077.7652,-28.1731"/>
<polygon fill="#191970" stroke="#191970" points="2080.5266,-26.0146 2071.9231,-19.8315 2074.7929,-30.0303 2080.5266,-26.0146"/>
</g>
<!-- Node33&#45;&gt;Node16 -->
<g id="edge62" class="edge">
<title>Node33&#45;&gt;Node16</title>
<path fill="none" stroke="#191970" d="M2127.7618,-112.2455C2116.319,-103.814 2099.5704,-91.4729 2086.2525,-81.6598"/>
<polygon fill="#191970" stroke="#191970" points="2088.2133,-78.757 2078.0865,-75.6427 2084.0609,-84.3924 2088.2133,-78.757"/>
</g>
<!-- Node34&#45;&gt;Node27 -->
<g id="edge75" class="edge">
<title>Node34&#45;&gt;Node27</title>
<path fill="none" stroke="#191970" d="M2904.4053,-307.7302C2916.8664,-297.7174 2936.4052,-281.467 2952,-266 2973.3789,-244.7963 2995.865,-218.2491 3009.9043,-201.0875"/>
<polygon fill="#191970" stroke="#191970" points="3012.8449,-203.0182 3016.4254,-193.0466 3007.4081,-198.6089 3012.8449,-203.0182"/>
</g>
<!-- Node35 -->
<g id="node36" class="node">
<title>Node35</title>
<g id="a_node36"><a xlink:href="../../df/d21/GPUCommonDef_8h.html" target="_top" xlink:title="GPUCommonDef.h">
<polygon fill="none" stroke="#000000" points="2833,-174 2833,-193 2935,-193 2935,-174 2833,-174"/>
<text text-anchor="middle" x="2884" y="-181" font-family="Helvetica,sans-Serif" font-size="10.00" fill="#000000">GPUCommonDef.h</text>
</a>
</g>
</g>
<!-- Node34&#45;&gt;Node35 -->
<g id="edge70" class="edge">
<title>Node34&#45;&gt;Node35</title>
<path fill="none" stroke="#191970" d="M2891.4247,-307.8631C2890.1216,-286.0364 2886.923,-232.4605 2885.1796,-203.2589"/>
<polygon fill="#191970" stroke="#191970" points="2888.66,-202.8232 2884.5701,-193.0496 2881.6724,-203.2405 2888.66,-202.8232"/>
</g>
<!-- Node38 -->
<g id="node39" class="node">
<title>Node38</title>
<g id="a_node39"><a xlink:href="../../d2/d45/GPUCommonRtypes_8h.html" target="_top" xlink:title="GPUCommonRtypes.h">
<polygon fill="none" stroke="#000000" points="3594,-174 3594,-193 3712,-193 3712,-174 3594,-174"/>
<text text-anchor="middle" x="3653" y="-181" font-family="Helvetica,sans-Serif" font-size="10.00" fill="#000000">GPUCommonRtypes.h</text>
</a>
</g>
</g>
<!-- Node34&#45;&gt;Node38 -->
<g id="edge73" class="edge">
<title>Node34&#45;&gt;Node38</title>
<path fill="none" stroke="#191970" d="M2959.1605,-314.1628C3089.0456,-307.2631 3370.1259,-290.0385 3464,-266 3524.8691,-250.4131 3591.1061,-217.4244 3626.7442,-198.2189"/>
<polygon fill="#191970" stroke="#191970" points="3628.8528,-201.0555 3635.9547,-193.1933 3625.5,-194.9107 3628.8528,-201.0555"/>
</g>
<!-- Node40 -->
<g id="node41" class="node">
<title>Node40</title>
<g id="a_node41"><a xlink:href="../../d6/d89/RDHAny_8h.html" target="_top" xlink:title="Headers/RDHAny.h">
<polygon fill="none" stroke="#000000" points="2644,-241 2644,-260 2748,-260 2748,-241 2644,-241"/>
<text text-anchor="middle" x="2696" y="-248" font-family="Helvetica,sans-Serif" font-size="10.00" fill="#000000">Headers/RDHAny.h</text>
</a>
</g>
</g>
<!-- Node34&#45;&gt;Node40 -->
<g id="edge76" class="edge">
<title>Node34&#45;&gt;Node40</title>
<path fill="none" stroke="#191970" d="M2863.918,-307.9005C2829.7149,-296.2086 2771.8028,-276.4122 2733.7303,-263.3976"/>
<polygon fill="#191970" stroke="#191970" points="2734.6245,-260.0045 2724.0299,-260.0817 2732.3602,-266.6282 2734.6245,-260.0045"/>
</g>
<!-- Node41 -->
<g id="node42" class="node">
<title>Node41</title>
<g id="a_node42"><a xlink:href="../../d9/d80/InteractionRecord_8h.html" target="_top" xlink:title="CommonDataFormat/Interaction\lRecord.h">
<polygon fill="none" stroke="#000000" points="3297.5,-235.5 3297.5,-265.5 3454.5,-265.5 3454.5,-235.5 3297.5,-235.5"/>
<text text-anchor="start" x="3305.5" y="-253.5" font-family="Helvetica,sans-Serif" font-size="10.00" fill="#000000">CommonDataFormat/Interaction</text>
<text text-anchor="middle" x="3376" y="-242.5" font-family="Helvetica,sans-Serif" font-size="10.00" fill="#000000">Record.h</text>
</a>
</g>
</g>
<!-- Node34&#45;&gt;Node41 -->
<g id="edge81" class="edge">
<title>Node34&#45;&gt;Node41</title>
<path fill="none" stroke="#191970" d="M2959.0439,-308.2191C3044.4341,-296.3986 3192.2569,-275.9355 3287.013,-262.8184"/>
<polygon fill="#191970" stroke="#191970" points="3287.7285,-266.2529 3297.154,-261.4146 3286.7685,-259.319 3287.7285,-266.2529"/>
</g>
<!-- Node44 -->
<g id="node45" class="node">
<title>Node44</title>
<g id="a_node45"><a xlink:href="../../d7/d34/DAQID_8h.html" target="_top" xlink:title="Headers/DAQID.h">
<polygon fill="none" stroke="#000000" points="2766.5,-241 2766.5,-260 2863.5,-260 2863.5,-241 2766.5,-241"/>
<text text-anchor="middle" x="2815" y="-248" font-family="Helvetica,sans-Serif" font-size="10.00" fill="#000000">Headers/DAQID.h</text>
</a>
</g>
</g>
<!-- Node34&#45;&gt;Node44 -->
<g id="edge87" class="edge">
<title>Node34&#45;&gt;Node44</title>
<path fill="none" stroke="#191970" d="M2880.9678,-307.9005C2868.6172,-297.1539 2848.3977,-279.5603 2833.5943,-266.6794"/>
<polygon fill="#191970" stroke="#191970" points="2835.8532,-264.0055 2826.0118,-260.0817 2831.2582,-269.2863 2835.8532,-264.0055"/>
</g>
<!-- Node36 -->
<g id="node37" class="node">
<title>Node36</title>
<g id="a_node37"><a xlink:href="../../d5/d93/GPUCommonDefSettings_8h.html" target="_top" xlink:title="GPUCommonDefSettings.h">
<polygon fill="none" stroke="#000000" points="2966,-112.5 2966,-131.5 3104,-131.5 3104,-112.5 2966,-112.5"/>
<text text-anchor="middle" x="3035" y="-119.5" font-family="Helvetica,sans-Serif" font-size="10.00" fill="#000000">GPUCommonDefSettings.h</text>
</a>
</g>
</g>
<!-- Node35&#45;&gt;Node36 -->
<g id="edge71" class="edge">
<title>Node35&#45;&gt;Node36</title>
<path fill="none" stroke="#191970" d="M2907.5938,-173.8906C2932.9696,-163.5554 2973.5081,-147.0447 3002.0293,-135.4284"/>
<polygon fill="#191970" stroke="#191970" points="3003.6308,-138.5554 3011.5719,-131.5419 3000.9904,-132.0725 3003.6308,-138.5554"/>
</g>
<!-- Node37 -->
<g id="node38" class="node">
<title>Node37</title>
<g id="a_node38"><a xlink:href="../../da/d5a/GPUCommonDefAPI_8h.html" target="_top" xlink:title="GPUCommonDefAPI.h">
<polygon fill="none" stroke="#000000" points="3122.5,-112.5 3122.5,-131.5 3241.5,-131.5 3241.5,-112.5 3122.5,-112.5"/>
<text text-anchor="middle" x="3182" y="-119.5" font-family="Helvetica,sans-Serif" font-size="10.00" fill="#000000">GPUCommonDefAPI.h</text>
</a>
</g>
</g>
<!-- Node35&#45;&gt;Node37 -->
<g id="edge72" class="edge">
<title>Node35&#45;&gt;Node37</title>
<path fill="none" stroke="#191970" d="M2920.0444,-173.9783C2928.2279,-171.9177 2936.8963,-169.8145 2945,-168 3003.4229,-154.9189 3070.4344,-142.1144 3118.2615,-133.3503"/>
<polygon fill="#191970" stroke="#191970" points="3118.9569,-136.7813 3128.1661,-131.5428 3117.7002,-129.895 3118.9569,-136.7813"/>
</g>
<!-- Node39 -->
<g id="node40" class="node">
<title>Node39</title>
<polygon fill="none" stroke="#bfbfbf" points="3625,-112.5 3625,-131.5 3681,-131.5 3681,-112.5 3625,-112.5"/>
<text text-anchor="middle" x="3653" y="-119.5" font-family="Helvetica,sans-Serif" font-size="10.00" fill="#000000">Rtypes.h</text>
</g>
<!-- Node38&#45;&gt;Node39 -->
<g id="edge74" class="edge">
<title>Node38&#45;&gt;Node39</title>
<path fill="none" stroke="#191970" d="M3653,-173.8906C3653,-165.3657 3653,-152.6392 3653,-141.9235"/>
<polygon fill="#191970" stroke="#191970" points="3656.5001,-141.7448 3653,-131.7449 3649.5001,-141.7449 3656.5001,-141.7448"/>
</g>
<!-- Node40&#45;&gt;Node20 -->
<g id="edge80" class="edge">
<title>Node40&#45;&gt;Node20</title>
<path fill="none" stroke="#191970" d="M2663.9571,-240.9466C2586.4391,-217.8351 2388.9543,-158.9562 2304.3958,-133.7456"/>
<polygon fill="#191970" stroke="#191970" points="2305.2424,-130.3458 2294.6592,-130.8427 2303.2423,-137.054 2305.2424,-130.3458"/>
</g>
<!-- Node40&#45;&gt;Node24 -->
<g id="edge79" class="edge">
<title>Node40&#45;&gt;Node24</title>
<path fill="none" stroke="#191970" d="M2643.8679,-244.436C2530.4826,-231.2471 2263.4311,-200.1838 2160.9918,-188.2681"/>
<polygon fill="#191970" stroke="#191970" points="2161.3703,-184.7887 2151.0328,-187.1097 2160.5614,-191.7418 2161.3703,-184.7887"/>
</g>
<!-- Node40&#45;&gt;Node27 -->
<g id="edge78" class="edge">
<title>Node40&#45;&gt;Node27</title>
<path fill="none" stroke="#191970" d="M2732.6412,-240.993C2740.9586,-238.9316 2749.7674,-236.8244 2758,-235 2840.2065,-216.7826 2861.3349,-215.008 2944,-199 2950.7189,-197.6989 2957.7551,-196.336 2964.7488,-194.9812"/>
<polygon fill="#191970" stroke="#191970" points="2965.7714,-198.3483 2974.9231,-193.0102 2964.44,-191.4761 2965.7714,-198.3483"/>
</g>
<!-- Node40&#45;&gt;Node35 -->
<g id="edge77" class="edge">
<title>Node40&#45;&gt;Node35</title>
<path fill="none" stroke="#191970" d="M2722.9358,-240.9005C2755.6033,-229.2584 2810.8188,-209.5805 2847.3425,-196.5641"/>
<polygon fill="#191970" stroke="#191970" points="2848.8694,-199.7356 2857.1142,-193.0817 2846.5195,-193.1418 2848.8694,-199.7356"/>
</g>
<!-- Node41&#45;&gt;Node7 -->
<g id="edge84" class="edge">
<title>Node41&#45;&gt;Node7</title>
<path fill="none" stroke="#191970" d="M3454.9574,-236.169C3494.0718,-227.2971 3535.3948,-214.6152 3547,-199 3555.2184,-187.9418 3555.4131,-178.9109 3547,-168 3427.4591,-12.968 3314.5601,-85.3157 3121,-56 2916.7936,-25.0719 2255.2564,-12.9684 2098.5207,-10.497"/>
<polygon fill="#191970" stroke="#191970" points="2098.1745,-6.9913 2088.1213,-10.3356 2098.0658,-13.9905 2098.1745,-6.9913"/>
</g>
<!-- Node41&#45;&gt;Node16 -->
<g id="edge83" class="edge">
<title>Node41&#45;&gt;Node16</title>
<path fill="none" stroke="#191970" d="M3339.8074,-235.4821C3322.608,-226.8752 3302.8362,-214.6469 3289,-199 3261.0492,-167.3914 3285.851,-135.7855 3251,-112 3202.0854,-78.6162 2284.3728,-68.0931 2097.896,-66.2955"/>
<polygon fill="#191970" stroke="#191970" points="2097.6679,-62.7933 2087.6351,-66.1984 2097.6015,-69.793 2097.6679,-62.7933"/>
</g>
<!-- Node41&#45;&gt;Node38 -->
<g id="edge82" class="edge">
<title>Node41&#45;&gt;Node38</title>
<path fill="none" stroke="#191970" d="M3438.1642,-235.4639C3488.2442,-223.3507 3557.6889,-206.5536 3603.9177,-195.3719"/>
<polygon fill="#191970" stroke="#191970" points="3604.8052,-198.7582 3613.702,-193.0053 3603.1594,-191.9544 3604.8052,-198.7582"/>
</g>
<!-- Node42 -->
<g id="node43" class="node">
<title>Node42</title>
<polygon fill="none" stroke="#bfbfbf" points="3298,-174 3298,-193 3342,-193 3342,-174 3298,-174"/>
<text text-anchor="middle" x="3320" y="-181" font-family="Helvetica,sans-Serif" font-size="10.00" fill="#000000">cmath</text>
</g>
<!-- Node41&#45;&gt;Node42 -->
<g id="edge85" class="edge">
<title>Node41&#45;&gt;Node42</title>
<path fill="none" stroke="#191970" d="M3363.2927,-235.2967C3354.7371,-225.0605 3343.4335,-211.5366 3334.5221,-200.8746"/>
<polygon fill="#191970" stroke="#191970" points="3337.0849,-198.4832 3327.9862,-193.055 3331.7139,-202.9724 3337.0849,-198.4832"/>
</g>
<!-- Node43 -->
<g id="node44" class="node">
<title>Node43</title>
<g id="a_node44"><a xlink:href="../../d4/dc6/LHCConstants_8h.html" target="_top" xlink:title="Header to collect LHC related constants. ">
<polygon fill="none" stroke="#000000" points="3360,-174 3360,-193 3538,-193 3538,-174 3360,-174"/>
<text text-anchor="middle" x="3449" y="-181" font-family="Helvetica,sans-Serif" font-size="10.00" fill="#000000">CommonConstants/LHCConstants.h</text>
</a>
</g>
</g>
<!-- Node41&#45;&gt;Node43 -->
<g id="edge86" class="edge">
<title>Node41&#45;&gt;Node43</title>
<path fill="none" stroke="#191970" d="M3392.5648,-235.2967C3404.049,-224.7564 3419.3312,-210.7303 3431.0962,-199.9323"/>
<polygon fill="#191970" stroke="#191970" points="3433.5886,-202.3954 3438.5894,-193.055 3428.8553,-197.2382 3433.5886,-202.3954"/>
</g>
<!-- Node45 -->
<g id="node46" class="node">
<title>Node45</title>
<g id="a_node46"><a xlink:href="../../dc/dcd/DataHeader_8h.html" target="_top" xlink:title="Headers/DataHeader.h">
<polygon fill="none" stroke="#000000" points="2550.5,-174 2550.5,-193 2667.5,-193 2667.5,-174 2550.5,-174"/>
<text text-anchor="middle" x="2609" y="-181" font-family="Helvetica,sans-Serif" font-size="10.00" fill="#000000">Headers/DataHeader.h</text>
</a>
</g>
</g>
<!-- Node44&#45;&gt;Node45 -->
<g id="edge88" class="edge">
<title>Node44&#45;&gt;Node45</title>
<path fill="none" stroke="#191970" d="M2785.4852,-240.9005C2749.3841,-229.1589 2688.1518,-209.2436 2648.1456,-196.2318"/>
<polygon fill="#191970" stroke="#191970" points="2649.0522,-192.8463 2638.46,-193.0817 2646.8871,-199.5031 2649.0522,-192.8463"/>
</g>
<!-- Node45&#45;&gt;Node7 -->
<g id="edge89" class="edge">
<title>Node45&#45;&gt;Node7</title>
<path fill="none" stroke="#191970" d="M2667.7098,-177.8251C2753.037,-168.9775 2902.9498,-150.9366 2919,-132 2924.7473,-125.2191 2924.9009,-118.6477 2919,-112 2863.3994,-49.3634 2249.2808,-18.171 2098.3525,-11.4183"/>
<polygon fill="#191970" stroke="#191970" points="2098.445,-7.9191 2088.3002,-10.9743 2098.136,-14.9123 2098.445,-7.9191"/>
</g>
<!-- Node45&#45;&gt;Node20 -->
<g id="edge94" class="edge">
<title>Node45&#45;&gt;Node20</title>
<path fill="none" stroke="#191970" d="M2550.2539,-175.0741C2490.7994,-166.2104 2396.0515,-151.1663 2304.7184,-132.0117"/>
<polygon fill="#191970" stroke="#191970" points="2305.2581,-128.5485 2294.7501,-129.9016 2303.8084,-135.3967 2305.2581,-128.5485"/>
</g>
<!-- Node45&#45;&gt;Node21 -->
<g id="edge91" class="edge">
<title>Node45&#45;&gt;Node21</title>
<path fill="none" stroke="#191970" d="M2559.9837,-173.9815C2513.8622,-164.7812 2442.6823,-149.9572 2371.8191,-132.0722"/>
<polygon fill="#191970" stroke="#191970" points="2372.3791,-128.6032 2361.8247,-129.5285 2370.6525,-135.387 2372.3791,-128.6032"/>
</g>
<!-- Node46 -->
<g id="node47" class="node">
<title>Node46</title>
<polygon fill="none" stroke="#bfbfbf" points="2380,-112.5 2380,-131.5 2432,-131.5 2432,-112.5 2380,-112.5"/>
<text text-anchor="middle" x="2406" y="-119.5" font-family="Helvetica,sans-Serif" font-size="10.00" fill="#000000">memory</text>
</g>
<!-- Node45&#45;&gt;Node46 -->
<g id="edge90" class="edge">
<title>Node45&#45;&gt;Node46</title>
<path fill="none" stroke="#191970" d="M2577.2813,-173.8906C2540.5326,-162.7574 2480.1306,-144.4583 2441.749,-132.8304"/>
<polygon fill="#191970" stroke="#191970" points="2442.6049,-129.4326 2432.0196,-129.8828 2440.5752,-136.1319 2442.6049,-129.4326"/>
</g>
<!-- Node47 -->
<g id="node48" class="node">
<title>Node47</title>
<polygon fill="none" stroke="#bfbfbf" points="2450,-112.5 2450,-131.5 2496,-131.5 2496,-112.5 2450,-112.5"/>
<text text-anchor="middle" x="2473" y="-119.5" font-family="Helvetica,sans-Serif" font-size="10.00" fill="#000000">cstring</text>
</g>
<!-- Node45&#45;&gt;Node47 -->
<g id="edge92" class="edge">
<title>Node45&#45;&gt;Node47</title>
<path fill="none" stroke="#191970" d="M2587.75,-173.8906C2565.0945,-163.6457 2529.0202,-147.3326 2503.3709,-135.7339"/>
<polygon fill="#191970" stroke="#191970" points="2504.6546,-132.4732 2494.1008,-131.5419 2501.7703,-138.8514 2504.6546,-132.4732"/>
</g>
<!-- Node48 -->
<g id="node49" class="node">
<title>Node48</title>
<polygon fill="none" stroke="#bfbfbf" points="2514,-112.5 2514,-131.5 2570,-131.5 2570,-112.5 2514,-112.5"/>
<text text-anchor="middle" x="2542" y="-119.5" font-family="Helvetica,sans-Serif" font-size="10.00" fill="#000000">algorithm</text>
</g>
<!-- Node45&#45;&gt;Node48 -->
<g id="edge93" class="edge">
<title>Node45&#45;&gt;Node48</title>
<path fill="none" stroke="#191970" d="M2598.5313,-173.8906C2588.2663,-164.4683 2572.4097,-149.9134 2560.0994,-138.6137"/>
<polygon fill="#191970" stroke="#191970" points="2562.3501,-135.9287 2552.6163,-131.7449 2557.6166,-141.0856 2562.3501,-135.9287"/>
</g>
<!-- Node49 -->
<g id="node50" class="node">
<title>Node49</title>
<polygon fill="none" stroke="#bfbfbf" points="2588.5,-112.5 2588.5,-131.5 2629.5,-131.5 2629.5,-112.5 2588.5,-112.5"/>
<text text-anchor="middle" x="2609" y="-119.5" font-family="Helvetica,sans-Serif" font-size="10.00" fill="#000000">string</text>
</g>
<!-- Node45&#45;&gt;Node49 -->
<g id="edge95" class="edge">
<title>Node45&#45;&gt;Node49</title>
<path fill="none" stroke="#191970" d="M2609,-173.8906C2609,-165.3657 2609,-152.6392 2609,-141.9235"/>
<polygon fill="#191970" stroke="#191970" points="2612.5001,-141.7448 2609,-131.7449 2605.5001,-141.7449 2612.5001,-141.7448"/>
</g>
<!-- Node50 -->
<g id="node51" class="node">
<title>Node50</title>
<polygon fill="none" stroke="#bfbfbf" points="2647.5,-112.5 2647.5,-131.5 2692.5,-131.5 2692.5,-112.5 2647.5,-112.5"/>
<text text-anchor="middle" x="2670" y="-119.5" font-family="Helvetica,sans-Serif" font-size="10.00" fill="#000000">climits</text>
</g>
<!-- Node45&#45;&gt;Node50 -->
<g id="edge96" class="edge">
<title>Node45&#45;&gt;Node50</title>
<path fill="none" stroke="#191970" d="M2618.5313,-173.8906C2627.7879,-164.5581 2642.039,-150.1902 2653.2003,-138.9374"/>
<polygon fill="#191970" stroke="#191970" points="2655.7772,-141.3095 2660.3344,-131.7449 2650.8072,-136.38 2655.7772,-141.3095"/>
</g>
<!-- Node51 -->
<g id="node52" class="node">
<title>Node51</title>
<g id="a_node52"><a xlink:href="../../d7/df8/Types_8h.html" target="_top" xlink:title="MemoryResources/Types.h">
<polygon fill="none" stroke="#000000" points="2710.5,-112.5 2710.5,-131.5 2847.5,-131.5 2847.5,-112.5 2710.5,-112.5"/>
<text text-anchor="middle" x="2779" y="-119.5" font-family="Helvetica,sans-Serif" font-size="10.00" fill="#000000">MemoryResources/Types.h</text>
</a>
</g>
</g>
<!-- Node45&#45;&gt;Node51 -->
<g id="edge97" class="edge">
<title>Node45&#45;&gt;Node51</title>
<path fill="none" stroke="#191970" d="M2635.5625,-173.8906C2664.5056,-163.42 2710.9694,-146.6111 2743.1356,-134.9745"/>
<polygon fill="#191970" stroke="#191970" points="2744.4111,-138.2351 2752.624,-131.5419 2742.0298,-131.6526 2744.4111,-138.2351"/>
</g>
<!-- Node52 -->
<g id="node53" class="node">
<title>Node52</title>
<polygon fill="none" stroke="#bfbfbf" points="2866,-112.5 2866,-131.5 2910,-131.5 2910,-112.5 2866,-112.5"/>
<text text-anchor="middle" x="2888" y="-119.5" font-family="Helvetica,sans-Serif" font-size="10.00" fill="#000000">cerrno</text>
</g>
<!-- Node45&#45;&gt;Node52 -->
<g id="edge98" class="edge">
<title>Node45&#45;&gt;Node52</title>
<path fill="none" stroke="#191970" d="M2663.0879,-173.9994C2711.3225,-165.1375 2783.9996,-150.831 2855.635,-132.1615"/>
<polygon fill="#191970" stroke="#191970" points="2856.9567,-135.4327 2865.7335,-129.4984 2855.1716,-128.6642 2856.9567,-135.4327"/>
</g>
<!-- Node53&#45;&gt;Node2 -->
<g id="edge103" class="edge">
<title>Node53&#45;&gt;Node2</title>
<path fill="none" stroke="#191970" d="M813.3282,-377.3398C1000.5656,-372.6909 1488.2509,-358.2083 1512,-333 1562.2216,-279.6927 1522.8198,-181.6539 1502.8333,-140.7229"/>
<polygon fill="#191970" stroke="#191970" points="1505.865,-138.9616 1498.2367,-131.6091 1499.615,-142.1139 1505.865,-138.9616"/>
</g>
<!-- Node53&#45;&gt;Node4 -->
<g id="edge123" class="edge">
<title>Node53&#45;&gt;Node4</title>
<path fill="none" stroke="#191970" d="M668.8513,-370.2414C626.1619,-363.4394 571.6801,-351.8897 526,-333 502.5318,-323.2954 501.4424,-311.7669 478,-302 409.1152,-273.3003 377.2343,-305.626 314,-266 288.8689,-250.2515 269.4335,-221.2122 258.6009,-202.1277"/>
<polygon fill="#191970" stroke="#191970" points="261.5869,-200.2923 253.7356,-193.1783 255.4369,-203.6357 261.5869,-200.2923"/>
</g>
<!-- Node53&#45;&gt;Node5 -->
<g id="edge121" class="edge">
<title>Node53&#45;&gt;Node5</title>
<path fill="none" stroke="#191970" d="M707.243,-369.4487C679.7058,-361.1776 640.0894,-348.174 607,-333 582.1948,-321.6249 579.1485,-312.5946 554,-302 498.3556,-278.558 459.6042,-314.0204 423,-266 414.6476,-255.0426 418.5965,-248.0551 423,-235 434.9607,-199.5397 443.563,-189.7734 474,-168 516.6289,-137.505 660.5327,-97.0684 734.807,-77.5352"/>
<polygon fill="#191970" stroke="#191970" points="736.0178,-80.8363 744.8075,-74.9209 734.2473,-74.0639 736.0178,-80.8363"/>
</g>
<!-- Node53&#45;&gt;Node10 -->
<g id="edge124" class="edge">
<title>Node53&#45;&gt;Node10</title>
<path fill="none" stroke="#191970" d="M668.9696,-371.0993C602.9658,-363.0174 510.7009,-349.3508 478,-333 460.0014,-324.0005 462.8246,-311.3393 445,-302 377.3604,-266.56 344.8439,-301.0474 277,-266 237.8741,-245.788 221.72,-239.3157 204,-199 182.7419,-150.6347 235.512,-130.4946 285,-112 353.9208,-86.243 574.4853,-72.4104 662.8619,-67.7867"/>
<polygon fill="#191970" stroke="#191970" points="663.1577,-71.2762 672.9651,-67.2683 662.7989,-64.2854 663.1577,-71.2762"/>
</g>
<!-- Node53&#45;&gt;Node11 -->
<g id="edge118" class="edge">
<title>Node53&#45;&gt;Node11</title>
<path fill="none" stroke="#191970" d="M739.9212,-369.264C736.7548,-344.5145 725.5641,-278.1043 693,-235 684.382,-223.5925 672.732,-213.1559 661.7942,-204.7052"/>
<polygon fill="#191970" stroke="#191970" points="663.7469,-201.7958 653.6308,-198.6469 659.5752,-207.417 663.7469,-201.7958"/>
</g>
<!-- Node53&#45;&gt;Node19 -->
<g id="edge120" class="edge">
<title>Node53&#45;&gt;Node19</title>
<path fill="none" stroke="#191970" d="M809.9078,-369.4968C852.6703,-362.0278 901.8943,-350.0207 915,-333 944.3208,-294.9203 931.2254,-233.7121 921.7341,-202.7563"/>
<polygon fill="#191970" stroke="#191970" points="925.0312,-201.5776 918.6026,-193.1559 918.3762,-203.7483 925.0312,-201.5776"/>
</g>
<!-- Node53&#45;&gt;Node22 -->
<g id="edge119" class="edge">
<title>Node53&#45;&gt;Node22</title>
<path fill="none" stroke="#191970" d="M686.0543,-369.437C650.32,-362.0862 603.2439,-350.2366 564,-333 540.7483,-322.7874 539.4424,-311.7669 516,-302 447.1152,-273.3003 398.9713,-323.987 352,-266 323.1288,-230.358 335.1265,-171.8417 344.2426,-141.5446"/>
<polygon fill="#191970" stroke="#191970" points="347.6615,-142.3452 347.3897,-131.7539 340.9974,-140.2031 347.6615,-142.3452"/>
</g>
<!-- Node53&#45;&gt;Node23 -->
<g id="edge122" class="edge">
<title>Node53&#45;&gt;Node23</title>
<path fill="none" stroke="#191970" d="M813.1622,-376.2144C962.8927,-370.0864 1302.8768,-354.2713 1417,-333 1421.442,-332.1721 1426.0445,-331.0811 1430.5777,-329.8604"/>
<polygon fill="#191970" stroke="#191970" points="1431.6766,-333.186 1440.3016,-327.033 1429.722,-326.4644 1431.6766,-333.186"/>
</g>
<!-- Node53&#45;&gt;Node25 -->
<g id="edge125" class="edge">
<title>Node53&#45;&gt;Node25</title>
<path fill="none" stroke="#191970" d="M671.3657,-369.4682C612.254,-361.0243 525.2871,-347.7701 450,-333 448.7331,-332.7515 447.4536,-332.4958 446.165,-332.234"/>
<polygon fill="#191970" stroke="#191970" points="446.6686,-328.7633 436.1617,-330.1255 445.2249,-335.6128 446.6686,-328.7633"/>
</g>
<!-- Node53&#45;&gt;Node26 -->
<g id="edge127" class="edge">
<title>Node53&#45;&gt;Node26</title>
<path fill="none" stroke="#191970" d="M728.9688,-369.3906C716.9893,-359.8227 698.3834,-344.9621 684.1475,-333.5919"/>
<polygon fill="#191970" stroke="#191970" points="685.9447,-330.5479 675.9468,-327.0419 681.5761,-336.0175 685.9447,-330.5479"/>
</g>
<!-- Node53&#45;&gt;Node33 -->
<g id="edge126" class="edge">
<title>Node53&#45;&gt;Node33</title>
<path fill="none" stroke="#191970" d="M813.2276,-377.0255C994.9077,-371.7706 1467.4644,-356.2403 1623,-333 1866.2842,-296.6482 2008.5753,-392.8536 2160,-199 2173.1789,-182.1285 2163.3402,-157.3468 2153.5824,-140.4874"/>
<polygon fill="#191970" stroke="#191970" points="2156.2914,-138.2181 2148.0211,-131.5959 2150.3566,-141.9301 2156.2914,-138.2181"/>
</g>
<!-- Node54 -->
<g id="node55" class="node">
<title>Node54</title>
<g id="a_node55"><a xlink:href="../../db/de7/UserLogicElinkDecoder_8h.html" target="_top" xlink:title="UserLogicElinkDecoder.h">
<polygon fill="none" stroke="#000000" points="1250,-241 1250,-260 1378,-260 1378,-241 1250,-241"/>
<text text-anchor="middle" x="1314" y="-248" font-family="Helvetica,sans-Serif" font-size="10.00" fill="#000000">UserLogicElinkDecoder.h</text>
</a>
</g>
</g>
<!-- Node53&#45;&gt;Node54 -->
<g id="edge104" class="edge">
<title>Node53&#45;&gt;Node54</title>
<path fill="none" stroke="#191970" d="M785.6989,-369.4505C828.625,-360.2445 895.2851,-345.856 953,-333 1063.6485,-308.3531 1193.1374,-278.5192 1263.0189,-262.3367"/>
<polygon fill="#191970" stroke="#191970" points="1263.9355,-265.7172 1272.8875,-260.0504 1262.3555,-258.8978 1263.9355,-265.7172"/>
</g>
<!-- Node55 -->
<g id="node56" class="node">
<title>Node55</title>
<g id="a_node56"><a xlink:href="../../d4/deb/Debug_8h.html" target="_top" xlink:title="Debug.h">
<polygon fill="none" stroke="#000000" points="1979.5,-174 1979.5,-193 2032.5,-193 2032.5,-174 1979.5,-174"/>
<text text-anchor="middle" x="2006" y="-181" font-family="Helvetica,sans-Serif" font-size="10.00" fill="#000000">Debug.h</text>
</a>
</g>
</g>
<!-- Node53&#45;&gt;Node55 -->
<g id="edge128" class="edge">
<title>Node53&#45;&gt;Node55</title>
<path fill="none" stroke="#191970" d="M813.1212,-377.2396C983.2577,-372.7046 1405.7801,-359.1073 1545,-333 1710.8615,-301.8967 1899.7985,-227.7648 1973.8454,-197.1185"/>
<polygon fill="#191970" stroke="#191970" points="1975.6303,-200.1667 1983.5169,-193.0918 1972.9397,-193.7044 1975.6303,-200.1667"/>
</g>
<!-- Node54&#45;&gt;Node5 -->
<g id="edge111" class="edge">
<title>Node54&#45;&gt;Node5</title>
<path fill="none" stroke="#191970" d="M1312.9085,-240.7797C1310.382,-223.2052 1302.432,-186.2765 1279,-168 1197.4154,-104.3656 1147.2186,-164.5344 1049,-132 1030.8828,-125.9988 1028.9894,-118.374 1011,-112 948.5187,-89.8615 872.5419,-77.3155 825.2144,-71.0905"/>
<polygon fill="#191970" stroke="#191970" points="825.6386,-67.6164 815.2757,-69.8211 824.7517,-74.56 825.6386,-67.6164"/>
</g>
<!-- Node54&#45;&gt;Node6 -->
<g id="edge106" class="edge">
<title>Node54&#45;&gt;Node6</title>
<path fill="none" stroke="#191970" d="M1378.0015,-246.739C1484.4692,-239.8234 1688.4676,-223.514 1710,-199 1719.0925,-188.6485 1713.9926,-181.1866 1710,-168 1704.4276,-149.5955 1691.5724,-150.4045 1686,-132 1681.2626,-116.3536 1686.3508,-98.2945 1692.0107,-85.0263"/>
<polygon fill="#191970" stroke="#191970" points="1695.199,-86.471 1696.297,-75.9332 1688.8672,-83.4862 1695.199,-86.471"/>
</g>
<!-- Node54&#45;&gt;Node8 -->
<g id="edge107" class="edge">
<title>Node54&#45;&gt;Node8</title>
<path fill="none" stroke="#191970" d="M1290.5028,-240.9005C1262.2492,-229.3579 1214.6608,-209.9163 1182.7983,-196.8993"/>
<polygon fill="#191970" stroke="#191970" points="1184.0346,-193.6236 1173.4536,-193.0817 1181.3872,-200.1037 1184.0346,-193.6236"/>
</g>
<!-- Node54&#45;&gt;Node10 -->
<g id="edge114" class="edge">
<title>Node54&#45;&gt;Node10</title>
<path fill="none" stroke="#191970" d="M1307.3622,-240.813C1293.5951,-221.0181 1261.8958,-177.0324 1246,-168 1154.1325,-115.7985 1113.1226,-159.1222 1011,-132 987.0681,-125.644 982.9062,-118.4522 959,-112 865.1028,-86.6576 835.8895,-96.7781 736.853,-75.9716"/>
<polygon fill="#191970" stroke="#191970" points="737.5592,-72.5435 727.0464,-73.8593 736.0852,-79.3866 737.5592,-72.5435"/>
</g>
<!-- Node54&#45;&gt;Node11 -->
<g id="edge108" class="edge">
<title>Node54&#45;&gt;Node11</title>
<path fill="none" stroke="#191970" d="M1249.9584,-244.2269C1128.6619,-232.3455 864.943,-206.5134 723.719,-192.6801"/>
<polygon fill="#191970" stroke="#191970" points="724.0598,-189.1968 713.7662,-191.7052 723.3773,-196.1635 724.0598,-189.1968"/>
</g>
<!-- Node54&#45;&gt;Node12 -->
<g id="edge113" class="edge">
<title>Node54&#45;&gt;Node12</title>
<path fill="none" stroke="#191970" d="M1249.9203,-246.2227C1195.8518,-240.6677 1117.4985,-227.962 1055,-199 1034.9102,-189.6903 1035.5003,-178.4886 1016,-168 983.6452,-150.5974 943.5576,-138.3044 914.4068,-130.831"/>
<polygon fill="#191970" stroke="#191970" points="915.1317,-127.4047 904.5826,-128.3881 913.4424,-134.1979 915.1317,-127.4047"/>
</g>
<!-- Node54&#45;&gt;Node14 -->
<g id="edge116" class="edge">
<title>Node54&#45;&gt;Node14</title>
<path fill="none" stroke="#191970" d="M1314.7457,-240.6346C1315.4887,-230.2737 1316.5779,-213.5028 1317,-199 1317.4008,-185.2281 1320.6252,-181.2923 1317,-168 1309.3988,-140.129 1305.2835,-131.5341 1284,-112 1265.7129,-95.2159 1240.1901,-83.3816 1220.0576,-75.9232"/>
<polygon fill="#191970" stroke="#191970" points="1220.9707,-72.5341 1210.3758,-72.5148 1218.6462,-79.1369 1220.9707,-72.5341"/>
</g>
<!-- Node54&#45;&gt;Node15 -->
<g id="edge109" class="edge">
<title>Node54&#45;&gt;Node15</title>
<path fill="none" stroke="#191970" d="M1378.0624,-249.5793C1521.7113,-246.8505 1859.7056,-236.4744 1894,-199 1921.0155,-169.4794 1867.5199,-147.0797 1822.56,-134.2484"/>
<polygon fill="#191970" stroke="#191970" points="1823.406,-130.8512 1812.8362,-131.5794 1821.5531,-137.6016 1823.406,-130.8512"/>
</g>
<!-- Node54&#45;&gt;Node18 -->
<g id="edge110" class="edge">
<title>Node54&#45;&gt;Node18</title>
<path fill="none" stroke="#191970" d="M1249.7988,-243.7679C1189.7259,-236.4066 1097.9562,-222.4218 1021,-199 1018.8821,-198.3554 1016.7227,-197.6161 1014.5686,-196.8177"/>
<polygon fill="#191970" stroke="#191970" points="1015.8841,-193.5744 1005.3023,-193.0489 1013.2468,-200.0586 1015.8841,-193.5744"/>
</g>
<!-- Node54&#45;&gt;Node19 -->
<g id="edge112" class="edge">
<title>Node54&#45;&gt;Node19</title>
<path fill="none" stroke="#191970" d="M1249.6877,-245.3258C1177.5929,-238.5817 1057.608,-224.5186 957,-199 954.0077,-198.241 950.9328,-197.3444 947.8732,-196.3712"/>
<polygon fill="#191970" stroke="#191970" points="948.8658,-193.0115 938.2711,-193.0762 946.5937,-199.6326 948.8658,-193.0115"/>
</g>
<!-- Node54&#45;&gt;Node20 -->
<g id="edge115" class="edge">
<title>Node54&#45;&gt;Node20</title>
<path fill="none" stroke="#191970" d="M1378.069,-248.1212C1510.9512,-242.6746 1812.3748,-227.5173 1911,-199 1939.8344,-190.6626 1942.402,-177.1157 1971,-168 2076.9628,-134.2241 2111.7582,-153.1031 2225.1486,-131.9401"/>
<polygon fill="#191970" stroke="#191970" points="2226.1126,-135.3187 2235.2671,-129.9854 2224.7847,-128.4458 2226.1126,-135.3187"/>
</g>
<!-- Node54&#45;&gt;Node55 -->
<g id="edge105" class="edge">
<title>Node54&#45;&gt;Node55</title>
<path fill="none" stroke="#191970" d="M1378.2082,-247.7278C1519.6764,-241.245 1854.4326,-223.7474 1965,-199 1968.1932,-198.2853 1971.4704,-197.3734 1974.7133,-196.3507"/>
<polygon fill="#191970" stroke="#191970" points="1975.9303,-199.6331 1984.221,-193.0365 1973.6262,-193.0231 1975.9303,-199.6331"/>
</g>
<!-- Node56 -->
<g id="node57" class="node">
<title>Node56</title>
<polygon fill="none" stroke="#bfbfbf" points="1833,-174 1833,-193 1885,-193 1885,-174 1833,-174"/>
<text text-anchor="middle" x="1859" y="-181" font-family="Helvetica,sans-Serif" font-size="10.00" fill="#000000">sstream</text>
</g>
<!-- Node54&#45;&gt;Node56 -->
<g id="edge117" class="edge">
<title>Node54&#45;&gt;Node56</title>
<path fill="none" stroke="#191970" d="M1378.3929,-246.0917C1495.0692,-237.7459 1736.9494,-218.7018 1819,-199 1821.8514,-198.3153 1824.772,-197.4746 1827.673,-196.542"/>
<polygon fill="#191970" stroke="#191970" points="1829.0803,-199.7564 1837.3317,-193.1106 1826.737,-193.1602 1829.0803,-199.7564"/>
</g>
</g>
</svg>
