<?xml version="1.0" encoding="UTF-8" standalone="no"?>
<!DOCTYPE svg PUBLIC "-//W3C//DTD SVG 1.1//EN"
 "http://www.w3.org/Graphics/SVG/1.1/DTD/svg11.dtd">
<!-- Generated by graphviz version 2.40.1 (20161225.0304)
 -->
<!-- Title: /home/runner/work/AliceO2/AliceO2/DataFormats/Headers/src/HeartbeatFrame.cxx Pages: 1 -->
<svg width="747pt" height="218pt"
 viewBox="0.00 0.00 747.00 218.00" xmlns="http://www.w3.org/2000/svg" xmlns:xlink="http://www.w3.org/1999/xlink">
<g id="graph0" class="graph" transform="scale(1 1) rotate(0) translate(4 214)">
<title>/home/runner/work/AliceO2/AliceO2/DataFormats/Headers/src/HeartbeatFrame.cxx</title>
<!-- Node0 -->
<g id="node1" class="node">
<title>Node0</title>
<polygon fill="#bfbfbf" stroke="#000000" points="393,-168.5 393,-209.5 547,-209.5 547,-168.5 393,-168.5"/>
<text text-anchor="start" x="401" y="-197.5" font-family="Helvetica,sans-Serif" font-size="10.00" fill="#000000">/home/runner/work/AliceO2</text>
<text text-anchor="start" x="401" y="-186.5" font-family="Helvetica,sans-Serif" font-size="10.00" fill="#000000">/AliceO2/DataFormats/Headers</text>
<text text-anchor="middle" x="470" y="-175.5" font-family="Helvetica,sans-Serif" font-size="10.00" fill="#000000">/src/HeartbeatFrame.cxx</text>
</g>
<!-- Node1 -->
<g id="node2" class="node">
<title>Node1</title>
<g id="a_node2"><a xlink:href="../../d2/d09/HeartbeatFrame_8h.html" target="_top" xlink:title="Headers/HeartbeatFrame.h">
<polygon fill="none" stroke="#000000" points="402.5,-112.5 402.5,-131.5 537.5,-131.5 537.5,-112.5 402.5,-112.5"/>
<text text-anchor="middle" x="470" y="-119.5" font-family="Helvetica,sans-Serif" font-size="10.00" fill="#000000">Headers/HeartbeatFrame.h</text>
</a>
</g>
</g>
<!-- Node0&#45;&gt;Node1 -->
<g id="edge1" class="edge">
<title>Node0&#45;&gt;Node1</title>
<path fill="none" stroke="#191970" d="M470,-168.168C470,-159.8226 470,-150.2471 470,-141.9879"/>
<polygon fill="#191970" stroke="#191970" points="473.5001,-141.7804 470,-131.7805 466.5001,-141.7805 473.5001,-141.7804"/>
</g>
<!-- Node2 -->
<g id="node3" class="node">
<title>Node2</title>
<g id="a_node3"><a xlink:href="../../dc/dcd/DataHeader_8h.html" target="_top" xlink:title="Headers/DataHeader.h">
<polygon fill="none" stroke="#000000" points="273.5,-56.5 273.5,-75.5 390.5,-75.5 390.5,-56.5 273.5,-56.5"/>
<text text-anchor="middle" x="332" y="-63.5" font-family="Helvetica,sans-Serif" font-size="10.00" fill="#000000">Headers/DataHeader.h</text>
</a>
</g>
</g>
<!-- Node1&#45;&gt;Node2 -->
<g id="edge2" class="edge">
<title>Node1&#45;&gt;Node2</title>
<path fill="none" stroke="#191970" d="M446.277,-112.3733C423.8263,-103.2629 389.9261,-89.5062 364.8745,-79.3404"/>
<polygon fill="#191970" stroke="#191970" points="365.9957,-76.0182 355.4135,-75.5011 363.3635,-82.5045 365.9957,-76.0182"/>
</g>
<!-- Node13 -->
<g id="node14" class="node">
<title>Node13</title>
<polygon fill="none" stroke="#bfbfbf" points="408.5,-56.5 408.5,-75.5 467.5,-75.5 467.5,-56.5 408.5,-56.5"/>
<text text-anchor="middle" x="438" y="-63.5" font-family="Helvetica,sans-Serif" font-size="10.00" fill="#000000">functional</text>
</g>
<!-- Node1&#45;&gt;Node13 -->
<g id="edge13" class="edge">
<title>Node1&#45;&gt;Node13</title>
<path fill="none" stroke="#191970" d="M464.426,-112.2455C460.0669,-104.617 453.8789,-93.7881 448.5867,-84.5267"/>
<polygon fill="#191970" stroke="#191970" points="451.5104,-82.5886 443.5101,-75.6427 445.4327,-86.0616 451.5104,-82.5886"/>
</g>
<!-- Node14 -->
<g id="node15" class="node">
<title>Node14</title>
<polygon fill="none" stroke="#bfbfbf" points="485.5,-56.5 485.5,-75.5 520.5,-75.5 520.5,-56.5 485.5,-56.5"/>
<text text-anchor="middle" x="503" y="-63.5" font-family="Helvetica,sans-Serif" font-size="10.00" fill="#000000">map</text>
</g>
<!-- Node1&#45;&gt;Node14 -->
<g id="edge14" class="edge">
<title>Node1&#45;&gt;Node14</title>
<path fill="none" stroke="#191970" d="M475.7482,-112.2455C480.2435,-104.617 486.6248,-93.7881 492.0825,-84.5267"/>
<polygon fill="#191970" stroke="#191970" points="495.2561,-86.035 497.3177,-75.6427 489.2253,-82.4811 495.2561,-86.035"/>
</g>
<!-- Node15 -->
<g id="node16" class="node">
<title>Node15</title>
<polygon fill="none" stroke="#bfbfbf" points="539,-56.5 539,-75.5 583,-75.5 583,-56.5 539,-56.5"/>
<text text-anchor="middle" x="561" y="-63.5" font-family="Helvetica,sans-Serif" font-size="10.00" fill="#000000">vector</text>
</g>
<!-- Node1&#45;&gt;Node15 -->
<g id="edge15" class="edge">
<title>Node1&#45;&gt;Node15</title>
<path fill="none" stroke="#191970" d="M485.851,-112.2455C499.8132,-103.6534 520.3728,-91.0014 536.4596,-81.1018"/>
<polygon fill="#191970" stroke="#191970" points="538.6484,-83.8645 545.3307,-75.6427 534.9797,-77.9029 538.6484,-83.8645"/>
</g>
<!-- Node3 -->
<g id="node4" class="node">
<title>Node3</title>
<polygon fill="none" stroke="#bfbfbf" points="0,-.5 0,-19.5 46,-19.5 46,-.5 0,-.5"/>
<text text-anchor="middle" x="23" y="-7.5" font-family="Helvetica,sans-Serif" font-size="10.00" fill="#000000">cstdint</text>
</g>
<!-- Node2&#45;&gt;Node3 -->
<g id="edge3" class="edge">
<title>Node2&#45;&gt;Node3</title>
<path fill="none" stroke="#191970" d="M273.4366,-58.6718C219.2505,-51.3509 136.3598,-38.7844 56.0891,-20.015"/>
<polygon fill="#191970" stroke="#191970" points="56.8531,-16.5992 46.3151,-17.6953 55.2365,-23.41 56.8531,-16.5992"/>
</g>
<!-- Node4 -->
<g id="node5" class="node">
<title>Node4</title>
<polygon fill="none" stroke="#bfbfbf" points="64,-.5 64,-19.5 116,-19.5 116,-.5 64,-.5"/>
<text text-anchor="middle" x="90" y="-7.5" font-family="Helvetica,sans-Serif" font-size="10.00" fill="#000000">memory</text>
</g>
<!-- Node2&#45;&gt;Node4 -->
<g id="edge4" class="edge">
<title>Node2&#45;&gt;Node4</title>
<path fill="none" stroke="#191970" d="M285.3625,-56.4661C245.504,-48.1315 186.4129,-35.3362 126.3625,-20.2454"/>
<polygon fill="#191970" stroke="#191970" points="126.881,-16.7663 116.3277,-17.7041 125.1624,-23.5521 126.881,-16.7663"/>
</g>
<!-- Node5 -->
<g id="node6" class="node">
<title>Node5</title>
<polygon fill="none" stroke="#bfbfbf" points="134.5,-.5 134.5,-19.5 183.5,-19.5 183.5,-.5 134.5,-.5"/>
<text text-anchor="middle" x="159" y="-7.5" font-family="Helvetica,sans-Serif" font-size="10.00" fill="#000000">cassert</text>
</g>
<!-- Node2&#45;&gt;Node5 -->
<g id="edge5" class="edge">
<title>Node2&#45;&gt;Node5</title>
<path fill="none" stroke="#191970" d="M302.2602,-56.3733C272.011,-46.5816 225.1813,-31.4229 193.3637,-21.1235"/>
<polygon fill="#191970" stroke="#191970" points="194.1927,-17.7131 183.6008,-17.9633 192.0369,-24.3729 194.1927,-17.7131"/>
</g>
<!-- Node6 -->
<g id="node7" class="node">
<title>Node6</title>
<polygon fill="none" stroke="#bfbfbf" points="202,-.5 202,-19.5 248,-19.5 248,-.5 202,-.5"/>
<text text-anchor="middle" x="225" y="-7.5" font-family="Helvetica,sans-Serif" font-size="10.00" fill="#000000">cstring</text>
</g>
<!-- Node2&#45;&gt;Node6 -->
<g id="edge6" class="edge">
<title>Node2&#45;&gt;Node6</title>
<path fill="none" stroke="#191970" d="M313.362,-56.2455C296.5614,-47.4527 271.6366,-34.4079 252.5382,-24.4125"/>
<polygon fill="#191970" stroke="#191970" points="253.9073,-21.1787 243.4244,-19.6427 250.6614,-27.3807 253.9073,-21.1787"/>
</g>
<!-- Node7 -->
<g id="node8" class="node">
<title>Node7</title>
<polygon fill="none" stroke="#bfbfbf" points="266,-.5 266,-19.5 322,-19.5 322,-.5 266,-.5"/>
<text text-anchor="middle" x="294" y="-7.5" font-family="Helvetica,sans-Serif" font-size="10.00" fill="#000000">algorithm</text>
</g>
<!-- Node2&#45;&gt;Node7 -->
<g id="edge7" class="edge">
<title>Node2&#45;&gt;Node7</title>
<path fill="none" stroke="#191970" d="M325.3809,-56.2455C320.0954,-48.4564 312.5459,-37.3308 306.1762,-27.9439"/>
<polygon fill="#191970" stroke="#191970" points="309.0545,-25.9522 300.5432,-19.6427 303.2621,-29.8827 309.0545,-25.9522"/>
</g>
<!-- Node8 -->
<g id="node9" class="node">
<title>Node8</title>
<polygon fill="none" stroke="#bfbfbf" points="340.5,-.5 340.5,-19.5 399.5,-19.5 399.5,-.5 340.5,-.5"/>
<text text-anchor="middle" x="370" y="-7.5" font-family="Helvetica,sans-Serif" font-size="10.00" fill="#000000">stdexcept</text>
</g>
<!-- Node2&#45;&gt;Node8 -->
<g id="edge8" class="edge">
<title>Node2&#45;&gt;Node8</title>
<path fill="none" stroke="#191970" d="M338.6191,-56.2455C343.9046,-48.4564 351.4541,-37.3308 357.8238,-27.9439"/>
<polygon fill="#191970" stroke="#191970" points="360.7379,-29.8827 363.4568,-19.6427 354.9455,-25.9522 360.7379,-29.8827"/>
</g>
<!-- Node9 -->
<g id="node10" class="node">
<title>Node9</title>
<polygon fill="none" stroke="#bfbfbf" points="417.5,-.5 417.5,-19.5 458.5,-19.5 458.5,-.5 417.5,-.5"/>
<text text-anchor="middle" x="438" y="-7.5" font-family="Helvetica,sans-Serif" font-size="10.00" fill="#000000">string</text>
</g>
<!-- Node2&#45;&gt;Node9 -->
<g id="edge9" class="edge">
<title>Node2&#45;&gt;Node9</title>
<path fill="none" stroke="#191970" d="M350.4638,-56.2455C367.1074,-47.4527 391.7993,-34.4079 410.7192,-24.4125"/>
<polygon fill="#191970" stroke="#191970" points="412.5408,-27.4086 419.7478,-19.6427 409.2709,-21.2193 412.5408,-27.4086"/>
</g>
<!-- Node10 -->
<g id="node11" class="node">
<title>Node10</title>
<polygon fill="none" stroke="#bfbfbf" points="476.5,-.5 476.5,-19.5 521.5,-19.5 521.5,-.5 476.5,-.5"/>
<text text-anchor="middle" x="499" y="-7.5" font-family="Helvetica,sans-Serif" font-size="10.00" fill="#000000">climits</text>
</g>
<!-- Node2&#45;&gt;Node10 -->
<g id="edge10" class="edge">
<title>Node2&#45;&gt;Node10</title>
<path fill="none" stroke="#191970" d="M360.7083,-56.3733C390.1172,-46.5116 435.7611,-31.2059 466.4846,-20.9034"/>
<polygon fill="#191970" stroke="#191970" points="467.9185,-24.1142 476.2868,-17.6164 465.6929,-17.4774 467.9185,-24.1142"/>
</g>
<!-- Node11 -->
<g id="node12" class="node">
<title>Node11</title>
<g id="a_node12"><a xlink:href="../../d7/df8/Types_8h.html" target="_top" xlink:title="MemoryResources/Types.h">
<polygon fill="none" stroke="#000000" points="539.5,-.5 539.5,-19.5 676.5,-19.5 676.5,-.5 539.5,-.5"/>
<text text-anchor="middle" x="608" y="-7.5" font-family="Helvetica,sans-Serif" font-size="10.00" fill="#000000">MemoryResources/Types.h</text>
</a>
</g>
</g>
<!-- Node2&#45;&gt;Node11 -->
<g id="edge11" class="edge">
<title>Node2&#45;&gt;Node11</title>
<path fill="none" stroke="#191970" d="M379.1325,-56.4369C426.7647,-46.7724 500.3967,-31.8326 551.2166,-21.5213"/>
<polygon fill="#191970" stroke="#191970" points="551.9576,-24.9423 561.0619,-19.5237 550.5656,-18.0821 551.9576,-24.9423"/>
</g>
<!-- Node12 -->
<g id="node13" class="node">
<title>Node12</title>
<polygon fill="none" stroke="#bfbfbf" points="695,-.5 695,-19.5 739,-19.5 739,-.5 695,-.5"/>
<text text-anchor="middle" x="717" y="-7.5" font-family="Helvetica,sans-Serif" font-size="10.00" fill="#000000">cerrno</text>
</g>
<!-- Node2&#45;&gt;Node12 -->
<g id="edge12" class="edge">
<title>Node2&#45;&gt;Node12</title>
<path fill="none" stroke="#191970" d="M390.5944,-57.3042C393.775,-56.8568 396.926,-56.4194 400,-56 523.7148,-39.1189 559.1492,-47.3414 684.7805,-19.9307"/>
<polygon fill="#191970" stroke="#191970" points="685.7796,-23.2944 694.7862,-17.7148 684.2659,-16.46 685.7796,-23.2944"/>
</g>
</g>
</svg>
