<?xml version="1.0" encoding="UTF-8" standalone="no"?>
<!DOCTYPE svg PUBLIC "-//W3C//DTD SVG 1.1//EN"
 "http://www.w3.org/Graphics/SVG/1.1/DTD/svg11.dtd">
<!-- Generated by graphviz version 2.40.1 (20161225.0304)
 -->
<!-- Title: pidTPCTaskQA Pages: 1 -->
<!--zoomable 866 -->
<svg id="main" version="1.1" xmlns="http://www.w3.org/2000/svg" xmlns:xlink="http://www.w3.org/1999/xlink" xml:space="preserve" onload="init(evt)">
<style type="text/css"><![CDATA[
.edge:hover path { stroke: red; }
.edge:hover polygon { stroke: red; fill: red; }
]]></style>
<script type="text/javascript"><![CDATA[
var edges = document.getElementsByTagName('g');
if (edges && edges.length) {
  for (var i=0;i<edges.length;i++) {
    if (edges[i].id.substr(0,4)=='edge') {
      edges[i].setAttribute('class','edge');
    }
  }
}
]]></script>
        <defs>
                <circle id="rim" cx="0" cy="0" r="7"/>
                <circle id="rim2" cx="0" cy="0" r="3.5"/>
                <g id="zoomPlus">
                        <use xlink:href="#rim" fill="#404040">
                                <set attributeName="fill" to="#808080" begin="zoomplus.mouseover" end="zoomplus.mouseout"/>
                        </use>
                        <path d="M-4,0h8M0,-4v8" fill="none" stroke="white" stroke-width="1.5" pointer-events="none"/>
                </g>
                <g id="zoomMin">
                        <use xlink:href="#rim" fill="#404040">
                                <set attributeName="fill" to="#808080" begin="zoomminus.mouseover" end="zoomminus.mouseout"/>
                        </use>
                        <path d="M-4,0h8" fill="none" stroke="white" stroke-width="1.5" pointer-events="none"/>
                </g>
                <g id="dirArrow">
                        <path fill="none" stroke="white" stroke-width="1.5" d="M0,-3.0v7 M-2.5,-0.5L0,-3.0L2.5,-0.5"/>
                </g>
               <g id="resetDef">
                       <use xlink:href="#rim2" fill="#404040">
                               <set attributeName="fill" to="#808080" begin="reset.mouseover" end="reset.mouseout"/>
                       </use>
               </g>
        </defs>

<script type="text/javascript">
var viewWidth = 610;
var viewHeight = 866;
var sectionId = 'dynsection-0';
</script>
<script xlink:href="../../svgpan.js"/>
<svg id="graph" class="graph">
<g id="viewport">
<title>pidTPCTaskQA</title>
<!-- Node1 -->
<g id="node1" class="node">
<title>Node1</title>
<polygon fill="#bfbfbf" stroke="#000000" points="340,-.5 340,-68.5 426,-68.5 426,-.5 340,-.5"/>
<text text-anchor="middle" x="383" y="-56.5" font-family="Helvetica,sans-Serif" font-size="10.00" fill="#000000">pidTPCTaskQA</text>
<polyline fill="none" stroke="#000000" points="340,-49.5 426,-49.5 "/>
<text text-anchor="middle" x="383" y="-37.5" font-family="Helvetica,sans-Serif" font-size="10.00" fill="#000000"> </text>
<polyline fill="none" stroke="#000000" points="340,-30.5 426,-30.5 "/>
<text text-anchor="start" x="348" y="-18.5" font-family="Helvetica,sans-Serif" font-size="10.00" fill="#000000">+ init()</text>
<text text-anchor="start" x="348" y="-7.5" font-family="Helvetica,sans-Serif" font-size="10.00" fill="#000000">+ process()</text>
</g>
<!-- Node2 -->
<g id="node2" class="node">
<title>Node2</title>
<g id="a_node2"><a xlink:href="../../d8/d34/classo2_1_1framework_1_1HistogramRegistry.html" target="_top" xlink:title="{o2::framework::Histogram\lRegistry\n||+ HistogramRegistry()\l+ add()\l+ add()\l+ add()\l+ addClone()\l+ contains()\l+ get()\l+ operator()()\l+ spec()\l+ ref()\l+ setHash()\l+ operator*()\l+ fill()\l+ fill()\l+ getSize()\l+ getSize()\l+ print()\l}">
<polygon fill="none" stroke="#000000" points="0,-149.5 0,-393.5 130,-393.5 130,-149.5 0,-149.5"/>
<text text-anchor="start" x="8" y="-381.5" font-family="Helvetica,sans-Serif" font-size="10.00" fill="#000000">o2::framework::Histogram</text>
<text text-anchor="middle" x="65" y="-370.5" font-family="Helvetica,sans-Serif" font-size="10.00" fill="#000000">Registry</text>
<polyline fill="none" stroke="#000000" points="0,-363.5 130,-363.5 "/>
<text text-anchor="middle" x="65" y="-351.5" font-family="Helvetica,sans-Serif" font-size="10.00" fill="#000000"> </text>
<polyline fill="none" stroke="#000000" points="0,-344.5 130,-344.5 "/>
<text text-anchor="start" x="8" y="-332.5" font-family="Helvetica,sans-Serif" font-size="10.00" fill="#000000">+ HistogramRegistry()</text>
<text text-anchor="start" x="8" y="-321.5" font-family="Helvetica,sans-Serif" font-size="10.00" fill="#000000">+ add()</text>
<text text-anchor="start" x="8" y="-310.5" font-family="Helvetica,sans-Serif" font-size="10.00" fill="#000000">+ add()</text>
<text text-anchor="start" x="8" y="-299.5" font-family="Helvetica,sans-Serif" font-size="10.00" fill="#000000">+ add()</text>
<text text-anchor="start" x="8" y="-288.5" font-family="Helvetica,sans-Serif" font-size="10.00" fill="#000000">+ addClone()</text>
<text text-anchor="start" x="8" y="-277.5" font-family="Helvetica,sans-Serif" font-size="10.00" fill="#000000">+ contains()</text>
<text text-anchor="start" x="8" y="-266.5" font-family="Helvetica,sans-Serif" font-size="10.00" fill="#000000">+ get()</text>
<text text-anchor="start" x="8" y="-255.5" font-family="Helvetica,sans-Serif" font-size="10.00" fill="#000000">+ operator()()</text>
<text text-anchor="start" x="8" y="-244.5" font-family="Helvetica,sans-Serif" font-size="10.00" fill="#000000">+ spec()</text>
<text text-anchor="start" x="8" y="-233.5" font-family="Helvetica,sans-Serif" font-size="10.00" fill="#000000">+ ref()</text>
<text text-anchor="start" x="8" y="-222.5" font-family="Helvetica,sans-Serif" font-size="10.00" fill="#000000">+ setHash()</text>
<text text-anchor="start" x="8" y="-211.5" font-family="Helvetica,sans-Serif" font-size="10.00" fill="#000000">+ operator*()</text>
<text text-anchor="start" x="8" y="-200.5" font-family="Helvetica,sans-Serif" font-size="10.00" fill="#000000">+ fill()</text>
<text text-anchor="start" x="8" y="-189.5" font-family="Helvetica,sans-Serif" font-size="10.00" fill="#000000">+ fill()</text>
<text text-anchor="start" x="8" y="-178.5" font-family="Helvetica,sans-Serif" font-size="10.00" fill="#000000">+ getSize()</text>
<text text-anchor="start" x="8" y="-167.5" font-family="Helvetica,sans-Serif" font-size="10.00" fill="#000000">+ getSize()</text>
<text text-anchor="start" x="8" y="-156.5" font-family="Helvetica,sans-Serif" font-size="10.00" fill="#000000">+ print()</text>
</a>
</g>
</g>
<!-- Node2&#45;&gt;Node1 -->
<g id="edge1" class="edge">
<title>Node2&#45;&gt;Node1</title>
<path fill="none" stroke="#404040" d="M130.2498,-164.5466C135.2722,-159.0178 140.529,-153.7821 146,-149 199.9432,-101.8489 276.7088,-69.5049 328.1079,-51.5168"/>
<polygon fill="none" stroke="#404040" points="328.2803,-51.4579 332.6629,-45.7314 339.6345,-47.5744 335.2519,-53.3009 328.2803,-51.4579"/>
<text text-anchor="middle" x="261" y="-106.5" font-family="Helvetica,sans-Serif" font-size="10.00" fill="#000000"> +histos</text>
</g>
<!-- Node3 -->
<g id="node3" class="node">
<title>Node3</title>
<polygon fill="none" stroke="#bfbfbf" points="26.5,-447 26.5,-504 77.5,-504 77.5,-447 26.5,-447"/>
<text text-anchor="middle" x="52" y="-492" font-family="Helvetica,sans-Serif" font-size="10.00" fill="#000000">uint32_t</text>
<polyline fill="none" stroke="#bfbfbf" points="26.5,-485 77.5,-485 "/>
<text text-anchor="middle" x="52" y="-473" font-family="Helvetica,sans-Serif" font-size="10.00" fill="#000000"> </text>
<polyline fill="none" stroke="#bfbfbf" points="26.5,-466 77.5,-466 "/>
<text text-anchor="middle" x="52" y="-454" font-family="Helvetica,sans-Serif" font-size="10.00" fill="#000000"> </text>
</g>
<!-- Node3&#45;&gt;Node2 -->
<g id="edge2" class="edge">
<title>Node3&#45;&gt;Node2</title>
<path fill="none" stroke="#404040" d="M53.835,-446.7045C54.564,-435.265 55.4584,-421.2292 56.4208,-406.1268"/>
<polygon fill="none" stroke="#404040" points="56.4421,-405.7912 52.8319,-399.5489 57.2054,-393.8155 60.8157,-400.0578 56.4421,-405.7912"/>
<text text-anchor="middle" x="75" y="-415" font-family="Helvetica,sans-Serif" font-size="10.00" fill="#000000"> +lookup</text>
</g>
<!-- Node4 -->
<g id="node4" class="node">
<title>Node4</title>
<g id="a_node4"><a xlink:href="../../d8/d71/structo2_1_1framework_1_1Configurable.html" target="_top" xlink:title="{o2::framework::Configurable\l\&lt; int \&gt;\n||+ Configurable()\l}">
<polygon fill="none" stroke="#000000" points="313,-237.5 313,-305.5 453,-305.5 453,-237.5 313,-237.5"/>
<text text-anchor="start" x="321" y="-293.5" font-family="Helvetica,sans-Serif" font-size="10.00" fill="#000000">o2::framework::Configurable</text>
<text text-anchor="middle" x="383" y="-282.5" font-family="Helvetica,sans-Serif" font-size="10.00" fill="#000000">&lt; int &gt;</text>
<polyline fill="none" stroke="#000000" points="313,-275.5 453,-275.5 "/>
<text text-anchor="middle" x="383" y="-263.5" font-family="Helvetica,sans-Serif" font-size="10.00" fill="#000000"> </text>
<polyline fill="none" stroke="#000000" points="313,-256.5 453,-256.5 "/>
<text text-anchor="start" x="321" y="-244.5" font-family="Helvetica,sans-Serif" font-size="10.00" fill="#000000">+ Configurable()</text>
</a>
</g>
</g>
<!-- Node4&#45;&gt;Node1 -->
<g id="edge3" class="edge">
<title>Node4&#45;&gt;Node1</title>
<path fill="none" stroke="#404040" d="M383,-237.2913C383,-196.0759 383,-126.6543 383,-80.7051"/>
<polygon fill="none" stroke="#404040" points="383.0001,-80.6984 379,-74.6984 383,-68.6984 387,-74.6983 383.0001,-80.6984"/>
<text text-anchor="middle" x="403.5" y="-106.5" font-family="Helvetica,sans-Serif" font-size="10.00" fill="#000000"> +nBinsP</text>
</g>
<!-- Node5 -->
<g id="node5" class="node">
<title>Node5</title>
<g id="a_node5"><a xlink:href="../../da/def/structo2_1_1framework_1_1ConfigurablePolicyConst.html" target="_top" xlink:title="{o2::framework::Configurable\lPolicyConst\&lt; int \&gt;\n||+ ConfigurablePolicyConst()\l}">
<polygon fill="none" stroke="#000000" points="412,-441.5 412,-509.5 552,-509.5 552,-441.5 412,-441.5"/>
<text text-anchor="start" x="420" y="-497.5" font-family="Helvetica,sans-Serif" font-size="10.00" fill="#000000">o2::framework::Configurable</text>
<text text-anchor="middle" x="482" y="-486.5" font-family="Helvetica,sans-Serif" font-size="10.00" fill="#000000">PolicyConst&lt; int &gt;</text>
<polyline fill="none" stroke="#000000" points="412,-479.5 552,-479.5 "/>
<text text-anchor="middle" x="482" y="-467.5" font-family="Helvetica,sans-Serif" font-size="10.00" fill="#000000"> </text>
<polyline fill="none" stroke="#000000" points="412,-460.5 552,-460.5 "/>
<text text-anchor="start" x="420" y="-448.5" font-family="Helvetica,sans-Serif" font-size="10.00" fill="#000000">+ ConfigurablePolicyConst()</text>
</a>
</g>
</g>
<!-- Node5&#45;&gt;Node4 -->
<g id="edge4" class="edge">
<title>Node5&#45;&gt;Node4</title>
<path fill="none" stroke="#191970" d="M460.9562,-432.1371C442.6537,-394.4229 416.4914,-340.5127 399.6244,-305.7564"/>
<polygon fill="none" stroke="#191970" points="457.9148,-433.8865 465.4296,-441.355 464.2124,-430.8303 457.9148,-433.8865"/>
</g>
<!-- Node6 -->
<g id="node6" class="node">
<title>Node6</title>
<g id="a_node6"><a xlink:href="../../da/d2f/structo2_1_1framework_1_1ConfigurableBase.html" target="_top" xlink:title="{o2::framework::Configurable\lBase\&lt; int \&gt;\n||+ ConfigurableBase()\l}">
<polygon fill="none" stroke="#000000" points="412,-557.5 412,-625.5 552,-625.5 552,-557.5 412,-557.5"/>
<text text-anchor="start" x="420" y="-613.5" font-family="Helvetica,sans-Serif" font-size="10.00" fill="#000000">o2::framework::Configurable</text>
<text text-anchor="middle" x="482" y="-602.5" font-family="Helvetica,sans-Serif" font-size="10.00" fill="#000000">Base&lt; int &gt;</text>
<polyline fill="none" stroke="#000000" points="412,-595.5 552,-595.5 "/>
<text text-anchor="middle" x="482" y="-583.5" font-family="Helvetica,sans-Serif" font-size="10.00" fill="#000000"> </text>
<polyline fill="none" stroke="#000000" points="412,-576.5 552,-576.5 "/>
<text text-anchor="start" x="420" y="-564.5" font-family="Helvetica,sans-Serif" font-size="10.00" fill="#000000">+ ConfigurableBase()</text>
</a>
</g>
</g>
<!-- Node6&#45;&gt;Node5 -->
<g id="edge5" class="edge">
<title>Node6&#45;&gt;Node5</title>
<path fill="none" stroke="#191970" d="M482,-547.1851C482,-534.8048 482,-521.5422 482,-509.833"/>
<polygon fill="none" stroke="#191970" points="478.5001,-547.3235 482,-557.3236 485.5001,-547.3236 478.5001,-547.3235"/>
</g>
<!-- Node7 -->
<g id="node7" class="node">
<title>Node7</title>
<polygon fill="none" stroke="#bfbfbf" points="411.5,-800.5 411.5,-857.5 440.5,-857.5 440.5,-800.5 411.5,-800.5"/>
<text text-anchor="middle" x="426" y="-845.5" font-family="Helvetica,sans-Serif" font-size="10.00" fill="#000000">int</text>
<polyline fill="none" stroke="#bfbfbf" points="411.5,-838.5 440.5,-838.5 "/>
<text text-anchor="middle" x="426" y="-826.5" font-family="Helvetica,sans-Serif" font-size="10.00" fill="#000000"> </text>
<polyline fill="none" stroke="#bfbfbf" points="411.5,-819.5 440.5,-819.5 "/>
<text text-anchor="middle" x="426" y="-807.5" font-family="Helvetica,sans-Serif" font-size="10.00" fill="#000000"> </text>
</g>
<!-- Node7&#45;&gt;Node1 -->
<g id="edge23" class="edge">
<title>Node7&#45;&gt;Node1</title>
<path fill="none" stroke="#404040" d="M440.7662,-825.0981C479.3111,-813.9258 580,-777.9945 580,-707.5 580,-707.5 580,-707.5 580,-271.5 580,-186.3054 586.0136,-149.3903 528,-87 504.6628,-61.9022 468.4098,-48.7771 437.9926,-41.9265"/>
<polygon fill="none" stroke="#404040" points="437.9877,-41.9256 431.3069,-44.6398 426.2319,-39.5168 432.9127,-36.8026 437.9877,-41.9256"/>
<text text-anchor="middle" x="591" y="-531" font-family="Helvetica,sans-Serif" font-size="10.00" fill="#000000"> +Np</text>
</g>
<!-- Node7&#45;&gt;Node6 -->
<g id="edge6" class="edge">
<title>Node7&#45;&gt;Node6</title>
<path fill="none" stroke="#404040" d="M432.7549,-800.352C442.2818,-759.9478 459.7689,-685.7836 471.1353,-637.578"/>
<polygon fill="none" stroke="#404040" points="471.2011,-637.2985 468.6849,-630.5406 473.9552,-625.6188 476.4714,-632.3766 471.2011,-637.2985"/>
<text text-anchor="middle" x="478.5" y="-716" font-family="Helvetica,sans-Serif" font-size="10.00" fill="#000000"> +value</text>
<text text-anchor="middle" x="478.5" y="-705" font-family="Helvetica,sans-Serif" font-size="10.00" fill="#000000">+name</text>
<text text-anchor="middle" x="478.5" y="-694" font-family="Helvetica,sans-Serif" font-size="10.00" fill="#000000">+help</text>
</g>
<!-- Node8 -->
<g id="node8" class="node">
<title>Node8</title>
<g id="a_node8"><a xlink:href="../../da/d2f/structo2_1_1framework_1_1ConfigurableBase.html" target="_top" xlink:title="{o2::framework::Configurable\lBase\&lt; T \&gt;\n||+ ConfigurableBase()\l}">
<polygon fill="none" stroke="#000000" points="246,-673.5 246,-741.5 386,-741.5 386,-673.5 246,-673.5"/>
<text text-anchor="start" x="254" y="-729.5" font-family="Helvetica,sans-Serif" font-size="10.00" fill="#000000">o2::framework::Configurable</text>
<text text-anchor="middle" x="316" y="-718.5" font-family="Helvetica,sans-Serif" font-size="10.00" fill="#000000">Base&lt; T &gt;</text>
<polyline fill="none" stroke="#000000" points="246,-711.5 386,-711.5 "/>
<text text-anchor="middle" x="316" y="-699.5" font-family="Helvetica,sans-Serif" font-size="10.00" fill="#000000"> </text>
<polyline fill="none" stroke="#000000" points="246,-692.5 386,-692.5 "/>
<text text-anchor="start" x="254" y="-680.5" font-family="Helvetica,sans-Serif" font-size="10.00" fill="#000000">+ ConfigurableBase()</text>
</a>
</g>
</g>
<!-- Node7&#45;&gt;Node8 -->
<g id="edge8" class="edge">
<title>Node7&#45;&gt;Node8</title>
<path fill="none" stroke="#404040" d="M411.3928,-812.8657C397.0746,-797.0506 374.6166,-772.2447 355.0874,-750.6738"/>
<polygon fill="none" stroke="#404040" points="354.9832,-750.5587 347.9909,-748.7953 346.9293,-741.6628 353.9215,-743.4261 354.9832,-750.5587"/>
<text text-anchor="middle" x="398" y="-774" font-family="Helvetica,sans-Serif" font-size="10.00" fill="#000000"> +name</text>
<text text-anchor="middle" x="398" y="-763" font-family="Helvetica,sans-Serif" font-size="10.00" fill="#000000">+help</text>
</g>
<!-- Node16 -->
<g id="node16" class="node">
<title>Node16</title>
<g id="a_node16"><a xlink:href="../../da/d2f/structo2_1_1framework_1_1ConfigurableBase.html" target="_top" xlink:title="{o2::framework::Configurable\lBase\&lt; float \&gt;\n||+ ConfigurableBase()\l}">
<polygon fill="none" stroke="#000000" points="48,-557.5 48,-625.5 188,-625.5 188,-557.5 48,-557.5"/>
<text text-anchor="start" x="56" y="-613.5" font-family="Helvetica,sans-Serif" font-size="10.00" fill="#000000">o2::framework::Configurable</text>
<text text-anchor="middle" x="118" y="-602.5" font-family="Helvetica,sans-Serif" font-size="10.00" fill="#000000">Base&lt; float &gt;</text>
<polyline fill="none" stroke="#000000" points="48,-595.5 188,-595.5 "/>
<text text-anchor="middle" x="118" y="-583.5" font-family="Helvetica,sans-Serif" font-size="10.00" fill="#000000"> </text>
<polyline fill="none" stroke="#000000" points="48,-576.5 188,-576.5 "/>
<text text-anchor="start" x="56" y="-564.5" font-family="Helvetica,sans-Serif" font-size="10.00" fill="#000000">+ ConfigurableBase()</text>
</a>
</g>
</g>
<!-- Node7&#45;&gt;Node16 -->
<g id="edge19" class="edge">
<title>Node7&#45;&gt;Node16</title>
<path fill="none" stroke="#404040" d="M411.2961,-827.0159C372.5244,-821.075 266.1601,-800.0961 203,-742 167.3046,-709.1666 179.7138,-685.7304 155,-644 153.4339,-641.3555 151.7761,-638.6719 150.0645,-635.9883"/>
<polygon fill="none" stroke="#404040" points="149.8941,-635.7303 143.2485,-632.9309 143.2767,-625.7198 149.9222,-628.5193 149.8941,-635.7303"/>
<text text-anchor="middle" x="220" y="-710.5" font-family="Helvetica,sans-Serif" font-size="10.00" fill="#000000"> +name</text>
<text text-anchor="middle" x="220" y="-699.5" font-family="Helvetica,sans-Serif" font-size="10.00" fill="#000000">+help</text>
</g>
<!-- Node8&#45;&gt;Node6 -->
<g id="edge7" class="edge">
<title>Node8&#45;&gt;Node6</title>
<path fill="none" stroke="#ffa500" d="M367.1732,-667.221C377.5814,-659.3499 388.5459,-651.2838 399,-644 407.8135,-637.8593 417.3157,-631.5615 426.634,-625.5558"/>
<polygon fill="#ffa500" stroke="#ffa500" points="364.7998,-664.6291 358.9657,-673.473 369.0416,-670.1976 364.7998,-664.6291"/>
<text text-anchor="middle" x="415" y="-647" font-family="Helvetica,sans-Serif" font-size="10.00" fill="#000000"> &lt; int &gt;</text>
</g>
<!-- Node10 -->
<g id="node10" class="node">
<title>Node10</title>
<g id="a_node10"><a xlink:href="../../da/def/structo2_1_1framework_1_1ConfigurablePolicyConst.html" target="_top" xlink:title="{o2::framework::Configurable\lPolicyConst\&lt; T \&gt;\n||+ ConfigurablePolicyConst()\l}">
<polygon fill="none" stroke="#000000" points="206,-557.5 206,-625.5 346,-625.5 346,-557.5 206,-557.5"/>
<text text-anchor="start" x="214" y="-613.5" font-family="Helvetica,sans-Serif" font-size="10.00" fill="#000000">o2::framework::Configurable</text>
<text text-anchor="middle" x="276" y="-602.5" font-family="Helvetica,sans-Serif" font-size="10.00" fill="#000000">PolicyConst&lt; T &gt;</text>
<polyline fill="none" stroke="#000000" points="206,-595.5 346,-595.5 "/>
<text text-anchor="middle" x="276" y="-583.5" font-family="Helvetica,sans-Serif" font-size="10.00" fill="#000000"> </text>
<polyline fill="none" stroke="#000000" points="206,-576.5 346,-576.5 "/>
<text text-anchor="start" x="214" y="-564.5" font-family="Helvetica,sans-Serif" font-size="10.00" fill="#000000">+ ConfigurablePolicyConst()</text>
</a>
</g>
</g>
<!-- Node8&#45;&gt;Node10 -->
<g id="edge11" class="edge">
<title>Node8&#45;&gt;Node10</title>
<path fill="none" stroke="#191970" d="M300.847,-663.5562C296.5414,-651.0702 291.917,-637.6593 287.839,-625.833"/>
<polygon fill="none" stroke="#191970" points="297.6462,-665.0108 304.215,-673.3236 304.2639,-662.7289 297.6462,-665.0108"/>
</g>
<!-- Node8&#45;&gt;Node16 -->
<g id="edge20" class="edge">
<title>Node8&#45;&gt;Node16</title>
<path fill="none" stroke="#ffa500" d="M249.167,-668.1563C235.5503,-660.1539 221.3179,-651.7996 208,-644 197.854,-638.058 187.0581,-631.7489 176.5964,-625.6421"/>
<polygon fill="#ffa500" stroke="#ffa500" points="247.6159,-671.3044 258.0104,-673.3548 251.1633,-665.2698 247.6159,-671.3044"/>
<text text-anchor="middle" x="246" y="-647" font-family="Helvetica,sans-Serif" font-size="10.00" fill="#000000"> &lt; float &gt;</text>
</g>
<!-- Node9 -->
<g id="node9" class="node">
<title>Node9</title>
<polygon fill="none" stroke="#bfbfbf" points="131.5,-800.5 131.5,-857.5 160.5,-857.5 160.5,-800.5 131.5,-800.5"/>
<text text-anchor="middle" x="146" y="-845.5" font-family="Helvetica,sans-Serif" font-size="10.00" fill="#000000">T</text>
<polyline fill="none" stroke="#bfbfbf" points="131.5,-838.5 160.5,-838.5 "/>
<text text-anchor="middle" x="146" y="-826.5" font-family="Helvetica,sans-Serif" font-size="10.00" fill="#000000"> </text>
<polyline fill="none" stroke="#bfbfbf" points="131.5,-819.5 160.5,-819.5 "/>
<text text-anchor="middle" x="146" y="-807.5" font-family="Helvetica,sans-Serif" font-size="10.00" fill="#000000"> </text>
</g>
<!-- Node9&#45;&gt;Node8 -->
<g id="edge9" class="edge">
<title>Node9&#45;&gt;Node8</title>
<path fill="none" stroke="#404040" d="M160.789,-818.4302C182.3314,-803.0338 223.5396,-773.582 258.0835,-748.8933"/>
<polygon fill="none" stroke="#404040" points="258.3302,-748.7169 260.8858,-741.9738 268.0931,-741.7393 265.5375,-748.4824 258.3302,-748.7169"/>
<text text-anchor="middle" x="258.5" y="-768.5" font-family="Helvetica,sans-Serif" font-size="10.00" fill="#000000"> +value</text>
</g>
<!-- Node10&#45;&gt;Node5 -->
<g id="edge10" class="edge">
<title>Node10&#45;&gt;Node5</title>
<path fill="none" stroke="#ffa500" d="M345.3744,-552.4348C370.0825,-538.5215 397.6902,-522.9754 421.5862,-509.5194"/>
<polygon fill="#ffa500" stroke="#ffa500" points="343.4111,-549.5236 336.4149,-557.48 346.8457,-555.623 343.4111,-549.5236"/>
<text text-anchor="middle" x="402" y="-531" font-family="Helvetica,sans-Serif" font-size="10.00" fill="#000000"> &lt; int &gt;</text>
</g>
<!-- Node15 -->
<g id="node15" class="node">
<title>Node15</title>
<g id="a_node15"><a xlink:href="../../da/def/structo2_1_1framework_1_1ConfigurablePolicyConst.html" target="_top" xlink:title="{o2::framework::Configurable\lPolicyConst\&lt; float \&gt;\n||+ ConfigurablePolicyConst()\l}">
<polygon fill="none" stroke="#000000" points="96,-441.5 96,-509.5 236,-509.5 236,-441.5 96,-441.5"/>
<text text-anchor="start" x="104" y="-497.5" font-family="Helvetica,sans-Serif" font-size="10.00" fill="#000000">o2::framework::Configurable</text>
<text text-anchor="middle" x="166" y="-486.5" font-family="Helvetica,sans-Serif" font-size="10.00" fill="#000000">PolicyConst&lt; float &gt;</text>
<polyline fill="none" stroke="#000000" points="96,-479.5 236,-479.5 "/>
<text text-anchor="middle" x="166" y="-467.5" font-family="Helvetica,sans-Serif" font-size="10.00" fill="#000000"> </text>
<polyline fill="none" stroke="#000000" points="96,-460.5 236,-460.5 "/>
<text text-anchor="start" x="104" y="-448.5" font-family="Helvetica,sans-Serif" font-size="10.00" fill="#000000">+ ConfigurablePolicyConst()</text>
</a>
</g>
</g>
<!-- Node10&#45;&gt;Node15 -->
<g id="edge21" class="edge">
<title>Node10&#45;&gt;Node15</title>
<path fill="none" stroke="#ffa500" d="M236.4295,-549.7711C224.0052,-536.6691 210.438,-522.3619 198.5572,-509.833"/>
<polygon fill="#ffa500" stroke="#ffa500" points="234.1707,-552.4756 243.5913,-557.3236 239.2501,-547.659 234.1707,-552.4756"/>
<text text-anchor="middle" x="245" y="-531" font-family="Helvetica,sans-Serif" font-size="10.00" fill="#000000"> &lt; float &gt;</text>
</g>
<!-- Node11 -->
<g id="node11" class="node">
<title>Node11</title>
<g id="a_node11"><a xlink:href="../../d8/d71/structo2_1_1framework_1_1Configurable.html" target="_top" xlink:title="{o2::framework::Configurable\l\&lt; T, IP \&gt;\n||+ Configurable()\l}">
<polygon fill="none" stroke="#000000" points="254,-441.5 254,-509.5 394,-509.5 394,-441.5 254,-441.5"/>
<text text-anchor="start" x="262" y="-497.5" font-family="Helvetica,sans-Serif" font-size="10.00" fill="#000000">o2::framework::Configurable</text>
<text text-anchor="middle" x="324" y="-486.5" font-family="Helvetica,sans-Serif" font-size="10.00" fill="#000000">&lt; T, IP &gt;</text>
<polyline fill="none" stroke="#000000" points="254,-479.5 394,-479.5 "/>
<text text-anchor="middle" x="324" y="-467.5" font-family="Helvetica,sans-Serif" font-size="10.00" fill="#000000"> </text>
<polyline fill="none" stroke="#000000" points="254,-460.5 394,-460.5 "/>
<text text-anchor="start" x="262" y="-448.5" font-family="Helvetica,sans-Serif" font-size="10.00" fill="#000000">+ Configurable()</text>
</a>
</g>
</g>
<!-- Node11&#45;&gt;Node4 -->
<g id="edge12" class="edge">
<title>Node11&#45;&gt;Node4</title>
<path fill="none" stroke="#ffa500" d="M336.6801,-431.6568C347.5808,-393.9663 363.083,-340.3654 373.0925,-305.7564"/>
<polygon fill="#ffa500" stroke="#ffa500" points="333.2914,-430.7763 333.8753,-441.355 340.0158,-432.7211 333.2914,-430.7763"/>
<text text-anchor="middle" x="358" y="-415" font-family="Helvetica,sans-Serif" font-size="10.00" fill="#000000"> &lt; int &gt;</text>
</g>
<!-- Node14 -->
<g id="node14" class="node">
<title>Node14</title>
<g id="a_node14"><a xlink:href="../../d8/d71/structo2_1_1framework_1_1Configurable.html" target="_top" xlink:title="{o2::framework::Configurable\l\&lt; float \&gt;\n||+ Configurable()\l}">
<polygon fill="none" stroke="#000000" points="155,-237.5 155,-305.5 295,-305.5 295,-237.5 155,-237.5"/>
<text text-anchor="start" x="163" y="-293.5" font-family="Helvetica,sans-Serif" font-size="10.00" fill="#000000">o2::framework::Configurable</text>
<text text-anchor="middle" x="225" y="-282.5" font-family="Helvetica,sans-Serif" font-size="10.00" fill="#000000">&lt; float &gt;</text>
<polyline fill="none" stroke="#000000" points="155,-275.5 295,-275.5 "/>
<text text-anchor="middle" x="225" y="-263.5" font-family="Helvetica,sans-Serif" font-size="10.00" fill="#000000"> </text>
<polyline fill="none" stroke="#000000" points="155,-256.5 295,-256.5 "/>
<text text-anchor="start" x="163" y="-244.5" font-family="Helvetica,sans-Serif" font-size="10.00" fill="#000000">+ Configurable()</text>
</a>
</g>
</g>
<!-- Node11&#45;&gt;Node14 -->
<g id="edge22" class="edge">
<title>Node11&#45;&gt;Node14</title>
<path fill="none" stroke="#ffa500" d="M300.8256,-432.479C299.1736,-429.281 297.5497,-426.0959 296,-423 276.0417,-383.1289 254.491,-336.603 240.4332,-305.7377"/>
<polygon fill="#ffa500" stroke="#ffa500" points="297.7856,-434.2187 305.5178,-441.4618 303.9901,-430.9777 297.7856,-434.2187"/>
<text text-anchor="middle" x="316" y="-415" font-family="Helvetica,sans-Serif" font-size="10.00" fill="#000000"> &lt; float &gt;</text>
</g>
<!-- Node12 -->
<g id="node12" class="node">
<title>Node12</title>
<polygon fill="none" stroke="#bfbfbf" points="364.5,-563 364.5,-620 393.5,-620 393.5,-563 364.5,-563"/>
<text text-anchor="middle" x="379" y="-608" font-family="Helvetica,sans-Serif" font-size="10.00" fill="#000000">IP</text>
<polyline fill="none" stroke="#bfbfbf" points="364.5,-601 393.5,-601 "/>
<text text-anchor="middle" x="379" y="-589" font-family="Helvetica,sans-Serif" font-size="10.00" fill="#000000"> </text>
<polyline fill="none" stroke="#bfbfbf" points="364.5,-582 393.5,-582 "/>
<text text-anchor="middle" x="379" y="-570" font-family="Helvetica,sans-Serif" font-size="10.00" fill="#000000"> </text>
</g>
<!-- Node12&#45;&gt;Node11 -->
<g id="edge13" class="edge">
<title>Node12&#45;&gt;Node11</title>
<path fill="none" stroke="#191970" d="M360.9285,-553.3855C354.2341,-539.2664 346.6916,-523.3587 340.1765,-509.6178"/>
<polygon fill="none" stroke="#191970" points="357.9577,-555.2895 365.4045,-562.8258 364.2828,-552.2905 357.9577,-555.2895"/>
</g>
<!-- Node13 -->
<g id="node13" class="node">
<title>Node13</title>
<polygon fill="none" stroke="#bfbfbf" points="471.5,-243 471.5,-300 506.5,-300 506.5,-243 471.5,-243"/>
<text text-anchor="middle" x="489" y="-288" font-family="Helvetica,sans-Serif" font-size="10.00" fill="#000000">char</text>
<polyline fill="none" stroke="#bfbfbf" points="471.5,-281 506.5,-281 "/>
<text text-anchor="middle" x="489" y="-269" font-family="Helvetica,sans-Serif" font-size="10.00" fill="#000000"> </text>
<polyline fill="none" stroke="#bfbfbf" points="471.5,-262 506.5,-262 "/>
<text text-anchor="middle" x="489" y="-250" font-family="Helvetica,sans-Serif" font-size="10.00" fill="#000000"> </text>
</g>
<!-- Node13&#45;&gt;Node1 -->
<g id="edge14" class="edge">
<title>Node13&#45;&gt;Node1</title>
<path fill="none" stroke="#404040" d="M485.0148,-242.6178C480.9749,-217.3644 473.6385,-179.9888 462,-149 450.9505,-119.5795 445.8774,-112.8467 428,-87 426.0153,-84.1306 423.9014,-81.2362 421.713,-78.3592"/>
<polygon fill="none" stroke="#404040" points="421.5179,-78.1131 414.6566,-75.8943 414.0657,-68.7075 420.927,-70.9262 421.5179,-78.1131"/>
<text text-anchor="middle" x="489" y="-123" font-family="Helvetica,sans-Serif" font-size="10.00" fill="#000000"> +hnsigma</text>
<text text-anchor="middle" x="489" y="-112" font-family="Helvetica,sans-Serif" font-size="10.00" fill="#000000">+hexpected_diff</text>
<text text-anchor="middle" x="489" y="-101" font-family="Helvetica,sans-Serif" font-size="10.00" fill="#000000">+hexpected</text>
<text text-anchor="middle" x="489" y="-90" font-family="Helvetica,sans-Serif" font-size="10.00" fill="#000000">+pT</text>
</g>
<!-- Node14&#45;&gt;Node1 -->
<g id="edge15" class="edge">
<title>Node14&#45;&gt;Node1</title>
<path fill="none" stroke="#404040" d="M246.0536,-237.391C269.3369,-200.0228 308.2897,-138.5379 344,-87 345.94,-84.2001 347.9609,-81.3355 350.0171,-78.4598"/>
<polygon fill="none" stroke="#404040" points="350.0358,-78.434 350.3179,-71.2284 357.0777,-68.7174 356.7956,-75.923 350.0358,-78.434"/>
<text text-anchor="middle" x="361.5" y="-112" font-family="Helvetica,sans-Serif" font-size="10.00" fill="#000000"> +MaxP</text>
<text text-anchor="middle" x="361.5" y="-101" font-family="Helvetica,sans-Serif" font-size="10.00" fill="#000000">+MinP</text>
</g>
<!-- Node15&#45;&gt;Node14 -->
<g id="edge16" class="edge">
<title>Node15&#45;&gt;Node14</title>
<path fill="none" stroke="#191970" d="M178.6801,-431.6568C189.5808,-393.9663 205.083,-340.3654 215.0925,-305.7564"/>
<polygon fill="none" stroke="#191970" points="175.2914,-430.7763 175.8753,-441.355 182.0158,-432.7211 175.2914,-430.7763"/>
</g>
<!-- Node16&#45;&gt;Node15 -->
<g id="edge17" class="edge">
<title>Node16&#45;&gt;Node15</title>
<path fill="none" stroke="#191970" d="M136.0303,-547.9268C141.2403,-535.3359 146.8511,-521.7764 151.7932,-509.833"/>
<polygon fill="none" stroke="#191970" points="132.7315,-546.7451 132.142,-557.3236 139.1996,-549.4217 132.7315,-546.7451"/>
</g>
<!-- Node17 -->
<g id="node17" class="node">
<title>Node17</title>
<g id="a_node17"><a xlink:href="../../d4/dc3/classfloat.html" target="_top" xlink:title="{float\n||}">
<polygon fill="none" stroke="#000000" points="100.5,-679 100.5,-736 135.5,-736 135.5,-679 100.5,-679"/>
<text text-anchor="middle" x="118" y="-724" font-family="Helvetica,sans-Serif" font-size="10.00" fill="#000000">float</text>
<polyline fill="none" stroke="#000000" points="100.5,-717 135.5,-717 "/>
<text text-anchor="middle" x="118" y="-705" font-family="Helvetica,sans-Serif" font-size="10.00" fill="#000000"> </text>
<polyline fill="none" stroke="#000000" points="100.5,-698 135.5,-698 "/>
<text text-anchor="middle" x="118" y="-686" font-family="Helvetica,sans-Serif" font-size="10.00" fill="#000000"> </text>
</a>
</g>
</g>
<!-- Node17&#45;&gt;Node16 -->
<g id="edge18" class="edge">
<title>Node17&#45;&gt;Node16</title>
<path fill="none" stroke="#404040" d="M118,-678.8258C118,-666.4977 118,-651.7709 118,-637.9549"/>
<polygon fill="none" stroke="#404040" points="118.0001,-637.6178 114,-631.6178 118,-625.6178 122,-631.6177 118.0001,-637.6178"/>
<text text-anchor="middle" x="134.5" y="-647" font-family="Helvetica,sans-Serif" font-size="10.00" fill="#000000"> +value</text>
</g>
</g>
</svg>
        <g id="navigator" transform="translate(0 0)" fill="#404254">
                <rect fill="#f2f5e9" fill-opacity="0.5" stroke="#606060" stroke-width=".5" x="0" y="0" width="60" height="60"/>
                <use id="zoomplus" xlink:href="#zoomPlus" x="17" y="9" onmousedown="handleZoom(evt,'in')"/>
                <use id="zoomminus" xlink:href="#zoomMin" x="42" y="9" onmousedown="handleZoom(evt,'out')"/>
                <use id="reset" xlink:href="#resetDef" x="30" y="36" onmousedown="handleReset()"/>
                <g id="arrowUp" xlink:href="#dirArrow" transform="translate(30 24)" onmousedown="handlePan(0,-1)">
                  <use xlink:href="#rim" fill="#404040">
                        <set attributeName="fill" to="#808080" begin="arrowUp.mouseover" end="arrowUp.mouseout"/>
                  </use>
                  <path fill="none" stroke="white" stroke-width="1.5" d="M0,-3.0v7 M-2.5,-0.5L0,-3.0L2.5,-0.5"/>
                </g>
                <g id="arrowRight" xlink:href="#dirArrow" transform="rotate(90) translate(36 -43)" onmousedown="handlePan(1,0)">
                  <use xlink:href="#rim" fill="#404040">
                        <set attributeName="fill" to="#808080" begin="arrowRight.mouseover" end="arrowRight.mouseout"/>
                  </use>
                  <path fill="none" stroke="white" stroke-width="1.5" d="M0,-3.0v7 M-2.5,-0.5L0,-3.0L2.5,-0.5"/>
                </g>
                <g id="arrowDown" xlink:href="#dirArrow" transform="rotate(180) translate(-30 -48)" onmousedown="handlePan(0,1)">
                  <use xlink:href="#rim" fill="#404040">
                        <set attributeName="fill" to="#808080" begin="arrowDown.mouseover" end="arrowDown.mouseout"/>
                  </use>
                  <path fill="none" stroke="white" stroke-width="1.5" d="M0,-3.0v7 M-2.5,-0.5L0,-3.0L2.5,-0.5"/>
                </g>
                <g id="arrowLeft" xlink:href="#dirArrow" transform="rotate(270) translate(-36 17)" onmousedown="handlePan(-1,0)">
                  <use xlink:href="#rim" fill="#404040">
                        <set attributeName="fill" to="#808080" begin="arrowLeft.mouseover" end="arrowLeft.mouseout"/>
                  </use>
                  <path fill="none" stroke="white" stroke-width="1.5" d="M0,-3.0v7 M-2.5,-0.5L0,-3.0L2.5,-0.5"/>
                </g>
        </g>
        <svg viewBox="0 0 15 15" width="100%" height="30px" preserveAspectRatio="xMaxYMin meet">
         <g id="arrow_out" transform="scale(0.3 0.3)">
          <a xlink:href="structpidTPCTaskQA__coll__graph_org.svg" target="_base">
           <rect id="button" ry="5" rx="5" y="6" x="6" height="38" width="38"
                fill="#f2f5e9" fill-opacity="0.5" stroke="#606060" stroke-width="1.0"/>
           <path id="arrow"
             d="M 11.500037,31.436501 C 11.940474,20.09759 22.043105,11.32322 32.158766,21.979434 L 37.068811,17.246167 C 37.068811,17.246167 37.088388,32 37.088388,32 L 22.160133,31.978069 C 22.160133,31.978069 26.997745,27.140456 26.997745,27.140456 C 18.528582,18.264221 13.291696,25.230495 11.500037,31.436501 z"
             style="fill:#404040;"/>
          </a>
         </g>
        </svg>
</svg>
