<?xml version="1.0" encoding="UTF-8" standalone="no"?>
<!DOCTYPE svg PUBLIC "-//W3C//DTD SVG 1.1//EN"
 "http://www.w3.org/Graphics/SVG/1.1/DTD/svg11.dtd">
<!-- Generated by graphviz version 2.40.1 (20161225.0304)
 -->
<!-- Title: /home/runner/work/AliceO2/AliceO2/Detectors/TPC/simulation/include/TPCSimulation/GEMAmplification.h Pages: 1 -->
<svg width="765pt" height="139pt"
 viewBox="0.00 0.00 765.00 139.00" xmlns="http://www.w3.org/2000/svg" xmlns:xlink="http://www.w3.org/1999/xlink">
<g id="graph0" class="graph" transform="scale(1 1) rotate(0) translate(4 135)">
<title>/home/runner/work/AliceO2/AliceO2/Detectors/TPC/simulation/include/TPCSimulation/GEMAmplification.h</title>
<!-- Node61 -->
<g id="node1" class="node">
<title>Node61</title>
<polygon fill="#bfbfbf" stroke="#000000" points="272.5,-78.5 272.5,-130.5 439.5,-130.5 439.5,-78.5 272.5,-78.5"/>
<text text-anchor="start" x="280.5" y="-118.5" font-family="Helvetica,sans-Serif" font-size="10.00" fill="#000000">/home/runner/work/AliceO2</text>
<text text-anchor="start" x="280.5" y="-107.5" font-family="Helvetica,sans-Serif" font-size="10.00" fill="#000000">/AliceO2/Detectors/TPC</text>
<text text-anchor="start" x="280.5" y="-96.5" font-family="Helvetica,sans-Serif" font-size="10.00" fill="#000000">/simulation/include/TPCSimulation</text>
<text text-anchor="middle" x="356" y="-85.5" font-family="Helvetica,sans-Serif" font-size="10.00" fill="#000000">/GEMAmplification.h</text>
</g>
<!-- Node62 -->
<g id="node2" class="node">
<title>Node62</title>
<g id="a_node2"><a xlink:href="../../d7/d0a/TPC_2simulation_2src_2Digitizer_8cxx.html" target="_top" xlink:title="/home/runner/work/AliceO2\l/AliceO2/Detectors/TPC\l/simulation/src/Digitizer.cxx">
<polygon fill="none" stroke="#000000" points="0,-.5 0,-41.5 138,-41.5 138,-.5 0,-.5"/>
<text text-anchor="start" x="8" y="-29.5" font-family="Helvetica,sans-Serif" font-size="10.00" fill="#000000">/home/runner/work/AliceO2</text>
<text text-anchor="start" x="8" y="-18.5" font-family="Helvetica,sans-Serif" font-size="10.00" fill="#000000">/AliceO2/Detectors/TPC</text>
<text text-anchor="middle" x="69" y="-7.5" font-family="Helvetica,sans-Serif" font-size="10.00" fill="#000000">/simulation/src/Digitizer.cxx</text>
</a>
</g>
</g>
<!-- Node61&#45;&gt;Node62 -->
<g id="edge1" class="edge">
<title>Node61&#45;&gt;Node62</title>
<path fill="none" stroke="#191970" d="M262.3597,-77.2562C221.9821,-65.5087 175.5902,-52.0114 138.3703,-41.1827"/>
<polygon fill="#191970" stroke="#191970" points="261.6365,-80.6909 272.2162,-80.1239 263.5921,-73.9696 261.6365,-80.6909"/>
</g>
<!-- Node63 -->
<g id="node3" class="node">
<title>Node63</title>
<g id="a_node3"><a xlink:href="../../db/d6c/GEMAmplification_8cxx.html" target="_top" xlink:title="Implementation of the GEM amplification. ">
<polygon fill="none" stroke="#000000" points="156.5,-.5 156.5,-41.5 337.5,-41.5 337.5,-.5 156.5,-.5"/>
<text text-anchor="start" x="164.5" y="-29.5" font-family="Helvetica,sans-Serif" font-size="10.00" fill="#000000">/home/runner/work/AliceO2</text>
<text text-anchor="start" x="164.5" y="-18.5" font-family="Helvetica,sans-Serif" font-size="10.00" fill="#000000">/AliceO2/Detectors/TPC</text>
<text text-anchor="middle" x="247" y="-7.5" font-family="Helvetica,sans-Serif" font-size="10.00" fill="#000000">/simulation/src/GEMAmplification.cxx</text>
</a>
</g>
</g>
<!-- Node61&#45;&gt;Node63 -->
<g id="edge2" class="edge">
<title>Node61&#45;&gt;Node63</title>
<path fill="none" stroke="#191970" d="M313.6319,-72.0437C300.2323,-61.7789 285.802,-50.7245 273.8084,-41.5367"/>
<polygon fill="#191970" stroke="#191970" points="311.7439,-75.0063 321.8108,-78.3092 316.0008,-69.4494 311.7439,-75.0063"/>
</g>
<!-- Node64 -->
<g id="node4" class="node">
<title>Node64</title>
<g id="a_node4"><a xlink:href="../../d5/d97/testTPCGEMAmplification_8cxx.html" target="_top" xlink:title="/home/runner/work/AliceO2\l/AliceO2/Detectors/TPC\l/simulation/test/testTPCGEMAmplification.cxx">
<polygon fill="none" stroke="#000000" points="355.5,-.5 355.5,-41.5 576.5,-41.5 576.5,-.5 355.5,-.5"/>
<text text-anchor="start" x="363.5" y="-29.5" font-family="Helvetica,sans-Serif" font-size="10.00" fill="#000000">/home/runner/work/AliceO2</text>
<text text-anchor="start" x="363.5" y="-18.5" font-family="Helvetica,sans-Serif" font-size="10.00" fill="#000000">/AliceO2/Detectors/TPC</text>
<text text-anchor="middle" x="466" y="-7.5" font-family="Helvetica,sans-Serif" font-size="10.00" fill="#000000">/simulation/test/testTPCGEMAmplification.cxx</text>
</a>
</g>
</g>
<!-- Node61&#45;&gt;Node64 -->
<g id="edge3" class="edge">
<title>Node61&#45;&gt;Node64</title>
<path fill="none" stroke="#191970" d="M398.7568,-72.0437C412.2793,-61.7789 426.842,-50.7245 438.9457,-41.5367"/>
<polygon fill="#191970" stroke="#191970" points="396.3518,-69.4751 390.5029,-78.3092 400.5842,-75.0507 396.3518,-69.4751"/>
</g>
<!-- Node65 -->
<g id="node5" class="node">
<title>Node65</title>
<g id="a_node5"><a xlink:href="../../d2/dd7/SimpleDigitizerWorkflow_8cxx.html" target="_top" xlink:title="/home/runner/work/AliceO2\l/AliceO2/Steer/DigitizerWorkflow\l/src/SimpleDigitizerWorkflow.cxx">
<polygon fill="none" stroke="#000000" points="595,-.5 595,-41.5 757,-41.5 757,-.5 595,-.5"/>
<text text-anchor="start" x="603" y="-29.5" font-family="Helvetica,sans-Serif" font-size="10.00" fill="#000000">/home/runner/work/AliceO2</text>
<text text-anchor="start" x="603" y="-18.5" font-family="Helvetica,sans-Serif" font-size="10.00" fill="#000000">/AliceO2/Steer/DigitizerWorkflow</text>
<text text-anchor="middle" x="676" y="-7.5" font-family="Helvetica,sans-Serif" font-size="10.00" fill="#000000">/src/SimpleDigitizerWorkflow.cxx</text>
</a>
</g>
</g>
<!-- Node61&#45;&gt;Node65 -->
<g id="edge4" class="edge">
<title>Node61&#45;&gt;Node65</title>
<path fill="none" stroke="#191970" d="M449.5164,-80.0981C496.4084,-67.8622 552.5672,-53.2082 597.2316,-41.5536"/>
<polygon fill="#191970" stroke="#191970" points="448.4505,-76.7589 439.6583,-82.6704 450.218,-83.5321 448.4505,-76.7589"/>
</g>
</g>
</svg>
