<?xml version="1.0" encoding="UTF-8" standalone="no"?>
<!DOCTYPE svg PUBLIC "-//W3C//DTD SVG 1.1//EN"
 "http://www.w3.org/Graphics/SVG/1.1/DTD/svg11.dtd">
<!-- Generated by graphviz version 2.40.1 (20161225.0304)
 -->
<!-- Title: /home/runner/work/AliceO2/AliceO2/DataFormats/Detectors/TPC/include/DataFormatsTPC/ClusterGroupAttribute.h Pages: 1 -->
<!--zoomable 428 -->
<svg id="main" version="1.1" xmlns="http://www.w3.org/2000/svg" xmlns:xlink="http://www.w3.org/1999/xlink" xml:space="preserve" onload="init(evt)">
<style type="text/css"><![CDATA[
.edge:hover path { stroke: red; }
.edge:hover polygon { stroke: red; fill: red; }
]]></style>
<script type="text/javascript"><![CDATA[
var edges = document.getElementsByTagName('g');
if (edges && edges.length) {
  for (var i=0;i<edges.length;i++) {
    if (edges[i].id.substr(0,4)=='edge') {
      edges[i].setAttribute('class','edge');
    }
  }
}
]]></script>
        <defs>
                <circle id="rim" cx="0" cy="0" r="7"/>
                <circle id="rim2" cx="0" cy="0" r="3.5"/>
                <g id="zoomPlus">
                        <use xlink:href="#rim" fill="#404040">
                                <set attributeName="fill" to="#808080" begin="zoomplus.mouseover" end="zoomplus.mouseout"/>
                        </use>
                        <path d="M-4,0h8M0,-4v8" fill="none" stroke="white" stroke-width="1.5" pointer-events="none"/>
                </g>
                <g id="zoomMin">
                        <use xlink:href="#rim" fill="#404040">
                                <set attributeName="fill" to="#808080" begin="zoomminus.mouseover" end="zoomminus.mouseout"/>
                        </use>
                        <path d="M-4,0h8" fill="none" stroke="white" stroke-width="1.5" pointer-events="none"/>
                </g>
                <g id="dirArrow">
                        <path fill="none" stroke="white" stroke-width="1.5" d="M0,-3.0v7 M-2.5,-0.5L0,-3.0L2.5,-0.5"/>
                </g>
               <g id="resetDef">
                       <use xlink:href="#rim2" fill="#404040">
                               <set attributeName="fill" to="#808080" begin="reset.mouseover" end="reset.mouseout"/>
                       </use>
               </g>
        </defs>

<script type="text/javascript">
var viewWidth = 2450;
var viewHeight = 428;
var sectionId = 'dynsection-1';
</script>
<script xlink:href="../../svgpan.js"/>
<svg id="graph" class="graph">
<g id="viewport">
<title>/home/runner/work/AliceO2/AliceO2/DataFormats/Detectors/TPC/include/DataFormatsTPC/ClusterGroupAttribute.h</title>
<!-- Node2 -->
<g id="node1" class="node">
<title>Node2</title>
<polygon fill="#bfbfbf" stroke="#000000" points="1913,-367.5 1913,-419.5 2073,-419.5 2073,-367.5 1913,-367.5"/>
<text text-anchor="start" x="1921" y="-407.5" font-family="Helvetica,sans-Serif" font-size="10.00" fill="#000000">/home/runner/work/AliceO2</text>
<text text-anchor="start" x="1921" y="-396.5" font-family="Helvetica,sans-Serif" font-size="10.00" fill="#000000">/AliceO2/DataFormats/Detectors</text>
<text text-anchor="start" x="1921" y="-385.5" font-family="Helvetica,sans-Serif" font-size="10.00" fill="#000000">/TPC/include/DataFormatsTPC</text>
<text text-anchor="middle" x="1993" y="-374.5" font-family="Helvetica,sans-Serif" font-size="10.00" fill="#000000">/ClusterGroupAttribute.h</text>
</g>
<!-- Node3 -->
<g id="node2" class="node">
<title>Node3</title>
<g id="a_node2"><a xlink:href="../../d1/d2b/ClusterNativeHelper_8h.html" target="_top" xlink:title="Helper class to read the binary format of TPC ClusterNative. ">
<polygon fill="none" stroke="#000000" points="1440,-278.5 1440,-330.5 1600,-330.5 1600,-278.5 1440,-278.5"/>
<text text-anchor="start" x="1448" y="-318.5" font-family="Helvetica,sans-Serif" font-size="10.00" fill="#000000">/home/runner/work/AliceO2</text>
<text text-anchor="start" x="1448" y="-307.5" font-family="Helvetica,sans-Serif" font-size="10.00" fill="#000000">/AliceO2/DataFormats/Detectors</text>
<text text-anchor="start" x="1448" y="-296.5" font-family="Helvetica,sans-Serif" font-size="10.00" fill="#000000">/TPC/include/DataFormatsTPC</text>
<text text-anchor="middle" x="1520" y="-285.5" font-family="Helvetica,sans-Serif" font-size="10.00" fill="#000000">/ClusterNativeHelper.h</text>
</a>
</g>
</g>
<!-- Node2&#45;&gt;Node3 -->
<g id="edge1" class="edge">
<title>Node2&#45;&gt;Node3</title>
<path fill="none" stroke="#191970" d="M1902.8579,-376.5388C1815.457,-360.0934 1684.1131,-335.3796 1600.2359,-319.5972"/>
<polygon fill="#191970" stroke="#191970" points="1902.2872,-379.9928 1912.762,-378.4024 1903.5817,-373.1135 1902.2872,-379.9928"/>
</g>
<!-- Node22 -->
<g id="node21" class="node">
<title>Node22</title>
<g id="a_node21"><a xlink:href="../../da/d78/CATrackerSpec_8cxx.html" target="_top" xlink:title="Processor spec for running TPC CA tracking. ">
<polygon fill="none" stroke="#000000" points="2274.5,-189.5 2274.5,-230.5 2441.5,-230.5 2441.5,-189.5 2274.5,-189.5"/>
<text text-anchor="start" x="2282.5" y="-218.5" font-family="Helvetica,sans-Serif" font-size="10.00" fill="#000000">/home/runner/work/AliceO2</text>
<text text-anchor="start" x="2282.5" y="-207.5" font-family="Helvetica,sans-Serif" font-size="10.00" fill="#000000">/AliceO2/Detectors/TPC</text>
<text text-anchor="middle" x="2358" y="-196.5" font-family="Helvetica,sans-Serif" font-size="10.00" fill="#000000">/workflow/src/CATrackerSpec.cxx</text>
</a>
</g>
</g>
<!-- Node2&#45;&gt;Node22 -->
<g id="edge25" class="edge">
<title>Node2&#45;&gt;Node22</title>
<path fill="none" stroke="#191970" d="M1988.6652,-356.9206C1987.8054,-331.2738 1991.4416,-298.106 2012,-278 2052.757,-238.1398 2210.5953,-255.4273 2266,-242 2278.655,-238.9331 2292.0204,-234.8161 2304.524,-230.5581"/>
<polygon fill="#191970" stroke="#191970" points="1985.1785,-357.2553 1989.2441,-367.0391 1992.1671,-356.8555 1985.1785,-357.2553"/>
</g>
<!-- Node24 -->
<g id="node23" class="node">
<title>Node24</title>
<g id="a_node23"><a xlink:href="../../d0/d80/TPC_2workflow_2src_2RecoWorkflow_8cxx.html" target="_top" xlink:title="/home/runner/work/AliceO2\l/AliceO2/Detectors/TPC\l/workflow/src/RecoWorkflow.cxx">
<polygon fill="none" stroke="#000000" points="2021.5,-284 2021.5,-325 2182.5,-325 2182.5,-284 2021.5,-284"/>
<text text-anchor="start" x="2029.5" y="-313" font-family="Helvetica,sans-Serif" font-size="10.00" fill="#000000">/home/runner/work/AliceO2</text>
<text text-anchor="start" x="2029.5" y="-302" font-family="Helvetica,sans-Serif" font-size="10.00" fill="#000000">/AliceO2/Detectors/TPC</text>
<text text-anchor="middle" x="2102" y="-291" font-family="Helvetica,sans-Serif" font-size="10.00" fill="#000000">/workflow/src/RecoWorkflow.cxx</text>
</a>
</g>
</g>
<!-- Node2&#45;&gt;Node24 -->
<g id="edge26" class="edge">
<title>Node2&#45;&gt;Node24</title>
<path fill="none" stroke="#191970" d="M2033.0384,-360.8081C2047.631,-348.893 2063.7147,-335.7605 2076.6763,-325.1771"/>
<polygon fill="#191970" stroke="#191970" points="2030.6463,-358.2427 2025.1141,-367.2784 2035.0736,-363.6648 2030.6463,-358.2427"/>
</g>
<!-- Node4 -->
<g id="node3" class="node">
<title>Node4</title>
<g id="a_node3"><a xlink:href="../../d5/d1e/ClusterNativeHelper_8cxx.html" target="_top" xlink:title="Helper class to read the binary format of TPC ClusterNative. ">
<polygon fill="none" stroke="#000000" points="664.5,-189.5 664.5,-230.5 831.5,-230.5 831.5,-189.5 664.5,-189.5"/>
<text text-anchor="start" x="672.5" y="-218.5" font-family="Helvetica,sans-Serif" font-size="10.00" fill="#000000">/home/runner/work/AliceO2</text>
<text text-anchor="start" x="672.5" y="-207.5" font-family="Helvetica,sans-Serif" font-size="10.00" fill="#000000">/AliceO2/DataFormats/Detectors</text>
<text text-anchor="middle" x="748" y="-196.5" font-family="Helvetica,sans-Serif" font-size="10.00" fill="#000000">/TPC/src/ClusterNativeHelper.cxx</text>
</a>
</g>
</g>
<!-- Node3&#45;&gt;Node4 -->
<g id="edge2" class="edge">
<title>Node3&#45;&gt;Node4</title>
<path fill="none" stroke="#191970" d="M1429.547,-298.9237C1271.1761,-288.7039 950.0492,-265.824 840,-242 826.7776,-239.1375 812.8349,-234.9391 799.9132,-230.5193"/>
<polygon fill="#191970" stroke="#191970" points="1429.5354,-302.4301 1439.7392,-299.5785 1429.9842,-295.4445 1429.5354,-302.4301"/>
</g>
<!-- Node5 -->
<g id="node4" class="node">
<title>Node5</title>
<g id="a_node4"><a xlink:href="../../d3/dac/MatchTPCITS_8h.html" target="_top" xlink:title="Class to perform TPC ITS matching. ">
<polygon fill="none" stroke="#000000" points="849.5,-189.5 849.5,-230.5 1042.5,-230.5 1042.5,-189.5 849.5,-189.5"/>
<text text-anchor="start" x="857.5" y="-218.5" font-family="Helvetica,sans-Serif" font-size="10.00" fill="#000000">/home/runner/work/AliceO2</text>
<text text-anchor="start" x="857.5" y="-207.5" font-family="Helvetica,sans-Serif" font-size="10.00" fill="#000000">/AliceO2/Detectors/GlobalTracking</text>
<text text-anchor="middle" x="946" y="-196.5" font-family="Helvetica,sans-Serif" font-size="10.00" fill="#000000">/include/GlobalTracking/MatchTPCITS.h</text>
</a>
</g>
</g>
<!-- Node3&#45;&gt;Node5 -->
<g id="edge3" class="edge">
<title>Node3&#45;&gt;Node5</title>
<path fill="none" stroke="#191970" d="M1429.9088,-289.6679C1324.5624,-272.3243 1150.8714,-243.7288 1042.7434,-225.9273"/>
<polygon fill="#191970" stroke="#191970" points="1429.45,-293.1394 1439.8858,-291.3105 1430.5872,-286.2324 1429.45,-293.1394"/>
</g>
<!-- Node15 -->
<g id="node14" class="node">
<title>Node15</title>
<g id="a_node14"><a xlink:href="../../d6/d73/TPCITSMatchingSpec_8cxx.html" target="_top" xlink:title="/home/runner/work/AliceO2\l/AliceO2/Detectors/GlobalTracking\lWorkflow/src/TPCITSMatchingSpec.cxx">
<polygon fill="none" stroke="#000000" points="1265,-6 1265,-47 1459,-47 1459,-6 1265,-6"/>
<text text-anchor="start" x="1273" y="-35" font-family="Helvetica,sans-Serif" font-size="10.00" fill="#000000">/home/runner/work/AliceO2</text>
<text text-anchor="start" x="1273" y="-24" font-family="Helvetica,sans-Serif" font-size="10.00" fill="#000000">/AliceO2/Detectors/GlobalTracking</text>
<text text-anchor="middle" x="1362" y="-13" font-family="Helvetica,sans-Serif" font-size="10.00" fill="#000000">Workflow/src/TPCITSMatchingSpec.cxx</text>
</a>
</g>
</g>
<!-- Node3&#45;&gt;Node15 -->
<g id="edge15" class="edge">
<title>Node3&#45;&gt;Node15</title>
<path fill="none" stroke="#191970" d="M1429.4022,-299.6039C1344.081,-292.8733 1225.1319,-277.2885 1196,-242 1138.2743,-172.0747 1260.5121,-85.8186 1325.2389,-47.0609"/>
<polygon fill="#191970" stroke="#191970" points="1429.3957,-303.1134 1439.6323,-300.3816 1429.9264,-296.1336 1429.3957,-303.1134"/>
</g>
<!-- Node16 -->
<g id="node15" class="node">
<title>Node16</title>
<g id="a_node15"><a xlink:href="../../d8/d85/TPCInterpolationSpec_8cxx.html" target="_top" xlink:title="/home/runner/work/AliceO2\l/AliceO2/Detectors/GlobalTracking\lWorkflow/tpcinterpolationworkflow\l/src/TPCInterpolationSpec.cxx">
<polygon fill="none" stroke="#000000" points="1205,-184 1205,-236 1373,-236 1373,-184 1205,-184"/>
<text text-anchor="start" x="1213" y="-224" font-family="Helvetica,sans-Serif" font-size="10.00" fill="#000000">/home/runner/work/AliceO2</text>
<text text-anchor="start" x="1213" y="-213" font-family="Helvetica,sans-Serif" font-size="10.00" fill="#000000">/AliceO2/Detectors/GlobalTracking</text>
<text text-anchor="start" x="1213" y="-202" font-family="Helvetica,sans-Serif" font-size="10.00" fill="#000000">Workflow/tpcinterpolationworkflow</text>
<text text-anchor="middle" x="1289" y="-191" font-family="Helvetica,sans-Serif" font-size="10.00" fill="#000000">/src/TPCInterpolationSpec.cxx</text>
</a>
</g>
</g>
<!-- Node3&#45;&gt;Node16 -->
<g id="edge16" class="edge">
<title>Node3&#45;&gt;Node16</title>
<path fill="none" stroke="#191970" d="M1446.6569,-274.496C1416.5402,-262.1756 1381.9913,-248.0419 1352.9259,-236.1515"/>
<polygon fill="#191970" stroke="#191970" points="1445.686,-277.8803 1456.2667,-278.4273 1448.3365,-271.4015 1445.686,-277.8803"/>
</g>
<!-- Node17 -->
<g id="node16" class="node">
<title>Node17</title>
<g id="a_node16"><a xlink:href="../../d2/d41/HardwareClusterDecoder_8h.html" target="_top" xlink:title="Decoder to convert TPC ClusterHardware to ClusterNative. ">
<polygon fill="none" stroke="#000000" points="1429,-178.5 1429,-241.5 1611,-241.5 1611,-178.5 1429,-178.5"/>
<text text-anchor="start" x="1437" y="-229.5" font-family="Helvetica,sans-Serif" font-size="10.00" fill="#000000">/home/runner/work/AliceO2</text>
<text text-anchor="start" x="1437" y="-218.5" font-family="Helvetica,sans-Serif" font-size="10.00" fill="#000000">/AliceO2/Detectors/TPC</text>
<text text-anchor="start" x="1437" y="-207.5" font-family="Helvetica,sans-Serif" font-size="10.00" fill="#000000">/reconstruction/include</text>
<text text-anchor="start" x="1437" y="-196.5" font-family="Helvetica,sans-Serif" font-size="10.00" fill="#000000">/TPCReconstruction/HardwareCluster</text>
<text text-anchor="middle" x="1520" y="-185.5" font-family="Helvetica,sans-Serif" font-size="10.00" fill="#000000">Decoder.h</text>
</a>
</g>
</g>
<!-- Node3&#45;&gt;Node17 -->
<g id="edge17" class="edge">
<title>Node3&#45;&gt;Node17</title>
<path fill="none" stroke="#191970" d="M1520,-268.1424C1520,-259.4277 1520,-250.1902 1520,-241.7054"/>
<polygon fill="#191970" stroke="#191970" points="1516.5001,-268.4273 1520,-278.4273 1523.5001,-268.4273 1516.5001,-268.4273"/>
</g>
<!-- Node18 -->
<g id="node17" class="node">
<title>Node18</title>
<g id="a_node17"><a xlink:href="../../d4/d7c/HardwareClusterDecoder_8cxx.html" target="_top" xlink:title="/home/runner/work/AliceO2\l/AliceO2/Detectors/TPC\l/reconstruction/src/HardwareCluster\lDecoder.cxx">
<polygon fill="none" stroke="#000000" points="1314,-89.5 1314,-141.5 1488,-141.5 1488,-89.5 1314,-89.5"/>
<text text-anchor="start" x="1322" y="-129.5" font-family="Helvetica,sans-Serif" font-size="10.00" fill="#000000">/home/runner/work/AliceO2</text>
<text text-anchor="start" x="1322" y="-118.5" font-family="Helvetica,sans-Serif" font-size="10.00" fill="#000000">/AliceO2/Detectors/TPC</text>
<text text-anchor="start" x="1322" y="-107.5" font-family="Helvetica,sans-Serif" font-size="10.00" fill="#000000">/reconstruction/src/HardwareCluster</text>
<text text-anchor="middle" x="1401" y="-96.5" font-family="Helvetica,sans-Serif" font-size="10.00" fill="#000000">Decoder.cxx</text>
</a>
</g>
</g>
<!-- Node3&#45;&gt;Node18 -->
<g id="edge21" class="edge">
<title>Node3&#45;&gt;Node18</title>
<path fill="none" stroke="#191970" d="M1451.3496,-272.8301C1439.2463,-264.4002 1427.9843,-254.1697 1420,-242 1400.2035,-211.8262 1397.8836,-168.9887 1398.8298,-141.7223"/>
<polygon fill="#191970" stroke="#191970" points="1449.5489,-275.8345 1459.8333,-278.3803 1453.3811,-269.9767 1449.5489,-275.8345"/>
</g>
<!-- Node20 -->
<g id="node19" class="node">
<title>Node20</title>
<g id="a_node19"><a xlink:href="../../d4/d2e/GPUCATracking_8cxx.html" target="_top" xlink:title="/home/runner/work/AliceO2\l/AliceO2/Detectors/TPC\l/reconstruction/src/GPUCATracking.cxx">
<polygon fill="none" stroke="#000000" points="1629.5,-189.5 1629.5,-230.5 1822.5,-230.5 1822.5,-189.5 1629.5,-189.5"/>
<text text-anchor="start" x="1637.5" y="-218.5" font-family="Helvetica,sans-Serif" font-size="10.00" fill="#000000">/home/runner/work/AliceO2</text>
<text text-anchor="start" x="1637.5" y="-207.5" font-family="Helvetica,sans-Serif" font-size="10.00" fill="#000000">/AliceO2/Detectors/TPC</text>
<text text-anchor="middle" x="1726" y="-196.5" font-family="Helvetica,sans-Serif" font-size="10.00" fill="#000000">/reconstruction/src/GPUCATracking.cxx</text>
</a>
</g>
</g>
<!-- Node3&#45;&gt;Node20 -->
<g id="edge20" class="edge">
<title>Node3&#45;&gt;Node20</title>
<path fill="none" stroke="#191970" d="M1586.2738,-274.0977C1617.2613,-259.8825 1653.352,-243.3264 1681.0907,-230.6016"/>
<polygon fill="#191970" stroke="#191970" points="1584.4656,-271.0764 1576.8357,-278.4273 1587.3844,-277.4389 1584.4656,-271.0764"/>
</g>
<!-- Node21 -->
<g id="node20" class="node">
<title>Node21</title>
<g id="a_node20"><a xlink:href="../../d1/df6/testGPUCATracking_8cxx.html" target="_top" xlink:title="This task tests the TPC CA Tracking library. ">
<polygon fill="none" stroke="#000000" points="1841,-189.5 1841,-230.5 2053,-230.5 2053,-189.5 1841,-189.5"/>
<text text-anchor="start" x="1849" y="-218.5" font-family="Helvetica,sans-Serif" font-size="10.00" fill="#000000">/home/runner/work/AliceO2</text>
<text text-anchor="start" x="1849" y="-207.5" font-family="Helvetica,sans-Serif" font-size="10.00" fill="#000000">/AliceO2/Detectors/TPC</text>
<text text-anchor="middle" x="1947" y="-196.5" font-family="Helvetica,sans-Serif" font-size="10.00" fill="#000000">/reconstruction/test/testGPUCATracking.cxx</text>
</a>
</g>
</g>
<!-- Node3&#45;&gt;Node21 -->
<g id="edge22" class="edge">
<title>Node3&#45;&gt;Node21</title>
<path fill="none" stroke="#191970" d="M1610.4241,-288.0807C1672.6816,-276.3478 1757.1592,-259.5813 1831,-242 1845.5309,-238.5402 1860.9938,-234.5168 1875.7344,-230.5146"/>
<polygon fill="#191970" stroke="#191970" points="1609.4213,-284.7078 1600.2388,-289.9927 1610.7129,-291.5876 1609.4213,-284.7078"/>
</g>
<!-- Node3&#45;&gt;Node22 -->
<g id="edge23" class="edge">
<title>Node3&#45;&gt;Node22</title>
<path fill="none" stroke="#191970" d="M1610.2139,-299.7829C1780.479,-290.4105 2143.1232,-268.0825 2266,-242 2279.2338,-239.1909 2293.1809,-235.0125 2306.103,-230.5949"/>
<polygon fill="#191970" stroke="#191970" points="1609.8173,-296.2993 1600.0237,-300.341 1610.2001,-303.2889 1609.8173,-296.2993"/>
</g>
<!-- Node23 -->
<g id="node22" class="node">
<title>Node23</title>
<g id="a_node22"><a xlink:href="../../d5/df5/DataInterpreterTPC_8cxx.html" target="_top" xlink:title="converting TPC data to Event Visualisation primitives ">
<polygon fill="none" stroke="#000000" points="2071,-189.5 2071,-230.5 2257,-230.5 2257,-189.5 2071,-189.5"/>
<text text-anchor="start" x="2079" y="-218.5" font-family="Helvetica,sans-Serif" font-size="10.00" fill="#000000">/home/runner/work/AliceO2</text>
<text text-anchor="start" x="2079" y="-207.5" font-family="Helvetica,sans-Serif" font-size="10.00" fill="#000000">/AliceO2/EventVisualisation</text>
<text text-anchor="middle" x="2164" y="-196.5" font-family="Helvetica,sans-Serif" font-size="10.00" fill="#000000">/Detectors/src/DataInterpreterTPC.cxx</text>
</a>
</g>
</g>
<!-- Node3&#45;&gt;Node23 -->
<g id="edge24" class="edge">
<title>Node3&#45;&gt;Node23</title>
<path fill="none" stroke="#191970" d="M1610.4382,-299.3189C1718.7302,-291.9122 1905.151,-275.3334 2062,-242 2076.1601,-238.9907 2091.1604,-234.8445 2105.1745,-230.5336"/>
<polygon fill="#191970" stroke="#191970" points="1609.9483,-295.8438 1600.2058,-300.0073 1610.4182,-302.828 1609.9483,-295.8438"/>
</g>
<!-- Node6 -->
<g id="node5" class="node">
<title>Node6</title>
<g id="a_node5"><a xlink:href="../../d0/d74/MatchTOF_8h.html" target="_top" xlink:title="Class to perform TOF matching to global tracks. ">
<polygon fill="none" stroke="#000000" points="414,-95 414,-136 590,-136 590,-95 414,-95"/>
<text text-anchor="start" x="422" y="-124" font-family="Helvetica,sans-Serif" font-size="10.00" fill="#000000">/home/runner/work/AliceO2</text>
<text text-anchor="start" x="422" y="-113" font-family="Helvetica,sans-Serif" font-size="10.00" fill="#000000">/AliceO2/Detectors/GlobalTracking</text>
<text text-anchor="middle" x="502" y="-102" font-family="Helvetica,sans-Serif" font-size="10.00" fill="#000000">/include/GlobalTracking/MatchTOF.h</text>
</a>
</g>
</g>
<!-- Node5&#45;&gt;Node6 -->
<g id="edge4" class="edge">
<title>Node5&#45;&gt;Node6</title>
<path fill="none" stroke="#191970" d="M872.3104,-186.6163C861.5253,-183.5259 850.5125,-180.5505 840,-178 755.9102,-157.5985 658.6426,-140.2571 590.1025,-129.0544"/>
<polygon fill="#191970" stroke="#191970" points="871.5503,-190.0403 882.1302,-189.4777 873.5087,-183.3198 871.5503,-190.0403"/>
</g>
<!-- Node8 -->
<g id="node7" class="node">
<title>Node8</title>
<g id="a_node7"><a xlink:href="../../db/d6a/MatchTOF_8cxx.html" target="_top" xlink:title="/home/runner/work/AliceO2\l/AliceO2/Detectors/GlobalTracking\l/src/MatchTOF.cxx">
<polygon fill="none" stroke="#000000" points="0,-6 0,-47 168,-47 168,-6 0,-6"/>
<text text-anchor="start" x="8" y="-35" font-family="Helvetica,sans-Serif" font-size="10.00" fill="#000000">/home/runner/work/AliceO2</text>
<text text-anchor="start" x="8" y="-24" font-family="Helvetica,sans-Serif" font-size="10.00" fill="#000000">/AliceO2/Detectors/GlobalTracking</text>
<text text-anchor="middle" x="84" y="-13" font-family="Helvetica,sans-Serif" font-size="10.00" fill="#000000">/src/MatchTOF.cxx</text>
</a>
</g>
</g>
<!-- Node5&#45;&gt;Node8 -->
<g id="edge9" class="edge">
<title>Node5&#45;&gt;Node8</title>
<path fill="none" stroke="#191970" d="M876.0993,-186.6369C864.1609,-183.2996 851.803,-180.244 840,-178 649.4195,-141.7667 594.5699,-183.1949 405,-142 303.4274,-119.9275 190.2585,-73.8364 129.1295,-47.032"/>
<polygon fill="#191970" stroke="#191970" points="875.4291,-190.0862 886.0074,-189.4947 877.3691,-183.3604 875.4291,-190.0862"/>
</g>
<!-- Node11 -->
<g id="node10" class="node">
<title>Node11</title>
<g id="a_node10"><a xlink:href="../../dc/d59/MatchTPCITS_8cxx.html" target="_top" xlink:title="/home/runner/work/AliceO2\l/AliceO2/Detectors/GlobalTracking\l/src/MatchTPCITS.cxx">
<polygon fill="none" stroke="#000000" points="761,-95 761,-136 929,-136 929,-95 761,-95"/>
<text text-anchor="start" x="769" y="-124" font-family="Helvetica,sans-Serif" font-size="10.00" fill="#000000">/home/runner/work/AliceO2</text>
<text text-anchor="start" x="769" y="-113" font-family="Helvetica,sans-Serif" font-size="10.00" fill="#000000">/AliceO2/Detectors/GlobalTracking</text>
<text text-anchor="middle" x="845" y="-102" font-family="Helvetica,sans-Serif" font-size="10.00" fill="#000000">/src/MatchTPCITS.cxx</text>
</a>
</g>
</g>
<!-- Node5&#45;&gt;Node11 -->
<g id="edge10" class="edge">
<title>Node5&#45;&gt;Node11</title>
<path fill="none" stroke="#191970" d="M916.6469,-182.5359C900.8755,-167.7795 881.7458,-149.8809 867.2215,-136.2914"/>
<polygon fill="#191970" stroke="#191970" points="914.3911,-185.2184 924.0845,-189.4949 919.1736,-180.1069 914.3911,-185.2184"/>
</g>
<!-- Node12 -->
<g id="node11" class="node">
<title>Node12</title>
<g id="a_node11"><a xlink:href="../../da/d20/TPCITSMatchingSpec_8h.html" target="_top" xlink:title="/home/runner/work/AliceO2\l/AliceO2/Detectors/GlobalTracking\lWorkflow/include/GlobalTrackingWorkflow\l/TPCITSMatchingSpec.h">
<polygon fill="none" stroke="#000000" points="947.5,-89.5 947.5,-141.5 1148.5,-141.5 1148.5,-89.5 947.5,-89.5"/>
<text text-anchor="start" x="955.5" y="-129.5" font-family="Helvetica,sans-Serif" font-size="10.00" fill="#000000">/home/runner/work/AliceO2</text>
<text text-anchor="start" x="955.5" y="-118.5" font-family="Helvetica,sans-Serif" font-size="10.00" fill="#000000">/AliceO2/Detectors/GlobalTracking</text>
<text text-anchor="start" x="955.5" y="-107.5" font-family="Helvetica,sans-Serif" font-size="10.00" fill="#000000">Workflow/include/GlobalTrackingWorkflow</text>
<text text-anchor="middle" x="1048" y="-96.5" font-family="Helvetica,sans-Serif" font-size="10.00" fill="#000000">/TPCITSMatchingSpec.h</text>
</a>
</g>
</g>
<!-- Node5&#45;&gt;Node12 -->
<g id="edge11" class="edge">
<title>Node5&#45;&gt;Node12</title>
<path fill="none" stroke="#191970" d="M975.5539,-182.6192C989.4551,-169.7401 1005.9555,-154.4529 1019.6953,-141.7235"/>
<polygon fill="#191970" stroke="#191970" points="973.0894,-180.1312 968.1325,-189.4949 977.8468,-185.2661 973.0894,-180.1312"/>
</g>
<!-- Node7 -->
<g id="node6" class="node">
<title>Node7</title>
<g id="a_node6"><a xlink:href="../../d6/dc9/AODProducerWorkflowSpec_8cxx.html" target="_top" xlink:title="/home/runner/work/AliceO2\l/AliceO2/Detectors/AOD\l/src/AODProducerWorkflowSpec.cxx">
<polygon fill="none" stroke="#000000" points="186.5,-6 186.5,-47 365.5,-47 365.5,-6 186.5,-6"/>
<text text-anchor="start" x="194.5" y="-35" font-family="Helvetica,sans-Serif" font-size="10.00" fill="#000000">/home/runner/work/AliceO2</text>
<text text-anchor="start" x="194.5" y="-24" font-family="Helvetica,sans-Serif" font-size="10.00" fill="#000000">/AliceO2/Detectors/AOD</text>
<text text-anchor="middle" x="276" y="-13" font-family="Helvetica,sans-Serif" font-size="10.00" fill="#000000">/src/AODProducerWorkflowSpec.cxx</text>
</a>
</g>
</g>
<!-- Node6&#45;&gt;Node7 -->
<g id="edge5" class="edge">
<title>Node6&#45;&gt;Node7</title>
<path fill="none" stroke="#191970" d="M440.2048,-91.1647C405.1069,-77.343 361.6509,-60.2298 328.2615,-47.0808"/>
<polygon fill="#191970" stroke="#191970" points="439.2803,-94.5622 449.8673,-94.9699 441.8452,-88.049 439.2803,-94.5622"/>
</g>
<!-- Node6&#45;&gt;Node8 -->
<g id="edge6" class="edge">
<title>Node6&#45;&gt;Node8</title>
<path fill="none" stroke="#191970" d="M403.768,-98.9217C339.0475,-87.4317 252.6048,-71.0048 177,-53 169.4057,-51.1915 161.5019,-49.1656 153.6516,-47.0611"/>
<polygon fill="#191970" stroke="#191970" points="403.5073,-102.4297 413.9637,-100.7228 404.7251,-95.5365 403.5073,-102.4297"/>
</g>
<!-- Node9 -->
<g id="node8" class="node">
<title>Node9</title>
<g id="a_node8"><a xlink:href="../../d8/d84/RecoWorkflowSpec_8cxx.html" target="_top" xlink:title="/home/runner/work/AliceO2\l/AliceO2/Detectors/GlobalTracking\lWorkflow/tofworkflow/src/RecoWorkflowSpec.cxx">
<polygon fill="none" stroke="#000000" points="384,-6 384,-47 620,-47 620,-6 384,-6"/>
<text text-anchor="start" x="392" y="-35" font-family="Helvetica,sans-Serif" font-size="10.00" fill="#000000">/home/runner/work/AliceO2</text>
<text text-anchor="start" x="392" y="-24" font-family="Helvetica,sans-Serif" font-size="10.00" fill="#000000">/AliceO2/Detectors/GlobalTracking</text>
<text text-anchor="middle" x="502" y="-13" font-family="Helvetica,sans-Serif" font-size="10.00" fill="#000000">Workflow/tofworkflow/src/RecoWorkflowSpec.cxx</text>
</a>
</g>
</g>
<!-- Node6&#45;&gt;Node9 -->
<g id="edge7" class="edge">
<title>Node6&#45;&gt;Node9</title>
<path fill="none" stroke="#191970" d="M502,-84.844C502,-72.3522 502,-58.2439 502,-47.0301"/>
<polygon fill="#191970" stroke="#191970" points="498.5001,-84.8579 502,-94.8579 505.5001,-84.8579 498.5001,-84.8579"/>
</g>
<!-- Node10 -->
<g id="node9" class="node">
<title>Node10</title>
<g id="a_node9"><a xlink:href="../../d4/d76/RecoWorkflowWithTPCSpec_8cxx.html" target="_top" xlink:title="/home/runner/work/AliceO2\l/AliceO2/Detectors/GlobalTracking\lWorkflow/tofworkflow/src/RecoWorkflowWith\lTPCSpec.cxx">
<polygon fill="none" stroke="#000000" points="638.5,-.5 638.5,-52.5 853.5,-52.5 853.5,-.5 638.5,-.5"/>
<text text-anchor="start" x="646.5" y="-40.5" font-family="Helvetica,sans-Serif" font-size="10.00" fill="#000000">/home/runner/work/AliceO2</text>
<text text-anchor="start" x="646.5" y="-29.5" font-family="Helvetica,sans-Serif" font-size="10.00" fill="#000000">/AliceO2/Detectors/GlobalTracking</text>
<text text-anchor="start" x="646.5" y="-18.5" font-family="Helvetica,sans-Serif" font-size="10.00" fill="#000000">Workflow/tofworkflow/src/RecoWorkflowWith</text>
<text text-anchor="middle" x="746" y="-7.5" font-family="Helvetica,sans-Serif" font-size="10.00" fill="#000000">TPCSpec.cxx</text>
</a>
</g>
</g>
<!-- Node6&#45;&gt;Node10 -->
<g id="edge8" class="edge">
<title>Node6&#45;&gt;Node10</title>
<path fill="none" stroke="#191970" d="M567.8476,-91.4818C600.8753,-79.4348 640.9256,-64.8263 674.6807,-52.514"/>
<polygon fill="#191970" stroke="#191970" points="566.4801,-88.255 558.2849,-94.9699 568.8788,-94.8312 566.4801,-88.255"/>
</g>
<!-- Node13 -->
<g id="node12" class="node">
<title>Node13</title>
<g id="a_node12"><a xlink:href="../../df/de7/AODProducerWorkflow_8cxx.html" target="_top" xlink:title="/home/runner/work/AliceO2\l/AliceO2/Detectors/AOD\l/src/AODProducerWorkflow.cxx">
<polygon fill="none" stroke="#000000" points="871.5,-6 871.5,-47 1028.5,-47 1028.5,-6 871.5,-6"/>
<text text-anchor="start" x="879.5" y="-35" font-family="Helvetica,sans-Serif" font-size="10.00" fill="#000000">/home/runner/work/AliceO2</text>
<text text-anchor="start" x="879.5" y="-24" font-family="Helvetica,sans-Serif" font-size="10.00" fill="#000000">/AliceO2/Detectors/AOD</text>
<text text-anchor="middle" x="950" y="-13" font-family="Helvetica,sans-Serif" font-size="10.00" fill="#000000">/src/AODProducerWorkflow.cxx</text>
</a>
</g>
</g>
<!-- Node12&#45;&gt;Node13 -->
<g id="edge12" class="edge">
<title>Node12&#45;&gt;Node13</title>
<path fill="none" stroke="#191970" d="M1011.6374,-82.4768C998.6147,-70.6501 984.3137,-57.6625 972.7681,-47.1771"/>
<polygon fill="#191970" stroke="#191970" points="1009.3709,-85.1464 1019.1268,-89.2784 1014.077,-79.9644 1009.3709,-85.1464"/>
</g>
<!-- Node14 -->
<g id="node13" class="node">
<title>Node14</title>
<g id="a_node13"><a xlink:href="../../d5/db4/MatchTPCITSWorkflow_8cxx.html" target="_top" xlink:title="/home/runner/work/AliceO2\l/AliceO2/Detectors/GlobalTracking\lWorkflow/src/MatchTPCITSWorkflow.cxx">
<polygon fill="none" stroke="#000000" points="1047,-6 1047,-47 1247,-47 1247,-6 1047,-6"/>
<text text-anchor="start" x="1055" y="-35" font-family="Helvetica,sans-Serif" font-size="10.00" fill="#000000">/home/runner/work/AliceO2</text>
<text text-anchor="start" x="1055" y="-24" font-family="Helvetica,sans-Serif" font-size="10.00" fill="#000000">/AliceO2/Detectors/GlobalTracking</text>
<text text-anchor="middle" x="1147" y="-13" font-family="Helvetica,sans-Serif" font-size="10.00" fill="#000000">Workflow/src/MatchTPCITSWorkflow.cxx</text>
</a>
</g>
</g>
<!-- Node12&#45;&gt;Node14 -->
<g id="edge13" class="edge">
<title>Node12&#45;&gt;Node14</title>
<path fill="none" stroke="#191970" d="M1084.7336,-82.4768C1097.8893,-70.6501 1112.3361,-57.6625 1123.9996,-47.1771"/>
<polygon fill="#191970" stroke="#191970" points="1082.2646,-79.9901 1077.1678,-89.2784 1086.9444,-85.1958 1082.2646,-79.9901"/>
</g>
<!-- Node12&#45;&gt;Node15 -->
<g id="edge14" class="edge">
<title>Node12&#45;&gt;Node15</title>
<path fill="none" stroke="#191970" d="M1149.7098,-86.6714C1195.3358,-73.7392 1248.104,-58.7826 1289.6167,-47.0163"/>
<polygon fill="#191970" stroke="#191970" points="1148.7553,-83.304 1140.0887,-89.3984 1150.6642,-90.0387 1148.7553,-83.304"/>
</g>
<!-- Node17&#45;&gt;Node18 -->
<g id="edge18" class="edge">
<title>Node17&#45;&gt;Node18</title>
<path fill="none" stroke="#191970" d="M1472.1722,-172.0191C1459.3373,-161.8267 1445.7483,-151.0354 1433.9223,-141.6442"/>
<polygon fill="#191970" stroke="#191970" points="1470.0359,-174.792 1480.0437,-178.27 1474.3891,-169.3102 1470.0359,-174.792"/>
</g>
<!-- Node19 -->
<g id="node18" class="node">
<title>Node19</title>
<g id="a_node18"><a xlink:href="../../d9/d7b/ClusterDecoderRawSpec_8cxx.html" target="_top" xlink:title="Processor spec for decoder of TPC raw cluster data. ">
<polygon fill="none" stroke="#000000" points="1506.5,-89.5 1506.5,-141.5 1673.5,-141.5 1673.5,-89.5 1506.5,-89.5"/>
<text text-anchor="start" x="1514.5" y="-129.5" font-family="Helvetica,sans-Serif" font-size="10.00" fill="#000000">/home/runner/work/AliceO2</text>
<text text-anchor="start" x="1514.5" y="-118.5" font-family="Helvetica,sans-Serif" font-size="10.00" fill="#000000">/AliceO2/Detectors/TPC</text>
<text text-anchor="start" x="1514.5" y="-107.5" font-family="Helvetica,sans-Serif" font-size="10.00" fill="#000000">/workflow/src/ClusterDecoderRaw</text>
<text text-anchor="middle" x="1590" y="-96.5" font-family="Helvetica,sans-Serif" font-size="10.00" fill="#000000">Spec.cxx</text>
</a>
</g>
</g>
<!-- Node17&#45;&gt;Node19 -->
<g id="edge19" class="edge">
<title>Node17&#45;&gt;Node19</title>
<path fill="none" stroke="#191970" d="M1549.6351,-169.9926C1556.7352,-160.4075 1564.1369,-150.4152 1570.634,-141.6442"/>
<polygon fill="#191970" stroke="#191970" points="1546.6436,-168.1511 1543.5037,-178.27 1552.2685,-172.3177 1546.6436,-168.1511"/>
</g>
</g>
</svg>
        <g id="navigator" transform="translate(0 0)" fill="#404254">
                <rect fill="#f2f5e9" fill-opacity="0.5" stroke="#606060" stroke-width=".5" x="0" y="0" width="60" height="60"/>
                <use id="zoomplus" xlink:href="#zoomPlus" x="17" y="9" onmousedown="handleZoom(evt,'in')"/>
                <use id="zoomminus" xlink:href="#zoomMin" x="42" y="9" onmousedown="handleZoom(evt,'out')"/>
                <use id="reset" xlink:href="#resetDef" x="30" y="36" onmousedown="handleReset()"/>
                <g id="arrowUp" xlink:href="#dirArrow" transform="translate(30 24)" onmousedown="handlePan(0,-1)">
                  <use xlink:href="#rim" fill="#404040">
                        <set attributeName="fill" to="#808080" begin="arrowUp.mouseover" end="arrowUp.mouseout"/>
                  </use>
                  <path fill="none" stroke="white" stroke-width="1.5" d="M0,-3.0v7 M-2.5,-0.5L0,-3.0L2.5,-0.5"/>
                </g>
                <g id="arrowRight" xlink:href="#dirArrow" transform="rotate(90) translate(36 -43)" onmousedown="handlePan(1,0)">
                  <use xlink:href="#rim" fill="#404040">
                        <set attributeName="fill" to="#808080" begin="arrowRight.mouseover" end="arrowRight.mouseout"/>
                  </use>
                  <path fill="none" stroke="white" stroke-width="1.5" d="M0,-3.0v7 M-2.5,-0.5L0,-3.0L2.5,-0.5"/>
                </g>
                <g id="arrowDown" xlink:href="#dirArrow" transform="rotate(180) translate(-30 -48)" onmousedown="handlePan(0,1)">
                  <use xlink:href="#rim" fill="#404040">
                        <set attributeName="fill" to="#808080" begin="arrowDown.mouseover" end="arrowDown.mouseout"/>
                  </use>
                  <path fill="none" stroke="white" stroke-width="1.5" d="M0,-3.0v7 M-2.5,-0.5L0,-3.0L2.5,-0.5"/>
                </g>
                <g id="arrowLeft" xlink:href="#dirArrow" transform="rotate(270) translate(-36 17)" onmousedown="handlePan(-1,0)">
                  <use xlink:href="#rim" fill="#404040">
                        <set attributeName="fill" to="#808080" begin="arrowLeft.mouseover" end="arrowLeft.mouseout"/>
                  </use>
                  <path fill="none" stroke="white" stroke-width="1.5" d="M0,-3.0v7 M-2.5,-0.5L0,-3.0L2.5,-0.5"/>
                </g>
        </g>
        <svg viewBox="0 0 15 15" width="100%" height="30px" preserveAspectRatio="xMaxYMin meet">
         <g id="arrow_out" transform="scale(0.3 0.3)">
          <a xlink:href="ClusterGroupAttribute_8h__dep__incl_org.svg" target="_base">
           <rect id="button" ry="5" rx="5" y="6" x="6" height="38" width="38"
                fill="#f2f5e9" fill-opacity="0.5" stroke="#606060" stroke-width="1.0"/>
           <path id="arrow"
             d="M 11.500037,31.436501 C 11.940474,20.09759 22.043105,11.32322 32.158766,21.979434 L 37.068811,17.246167 C 37.068811,17.246167 37.088388,32 37.088388,32 L 22.160133,31.978069 C 22.160133,31.978069 26.997745,27.140456 26.997745,27.140456 C 18.528582,18.264221 13.291696,25.230495 11.500037,31.436501 z"
             style="fill:#404040;"/>
          </a>
         </g>
        </svg>
</svg>
