<?xml version="1.0" encoding="UTF-8" standalone="no"?>
<!DOCTYPE svg PUBLIC "-//W3C//DTD SVG 1.1//EN"
 "http://www.w3.org/Graphics/SVG/1.1/DTD/svg11.dtd">
<!-- Generated by graphviz version 2.40.1 (20161225.0304)
 -->
<!-- Title: /home/runner/work/AliceO2/AliceO2/Framework/Core/include/Framework/Monitoring.h Pages: 1 -->
<svg width="284pt" height="162pt"
 viewBox="0.00 0.00 284.00 162.00" xmlns="http://www.w3.org/2000/svg" xmlns:xlink="http://www.w3.org/1999/xlink">
<g id="graph0" class="graph" transform="scale(1 1) rotate(0) translate(4 158)">
<title>/home/runner/work/AliceO2/AliceO2/Framework/Core/include/Framework/Monitoring.h</title>
<!-- Node0 -->
<g id="node1" class="node">
<title>Node0</title>
<polygon fill="#bfbfbf" stroke="#000000" points="64,-112.5 64,-153.5 222,-153.5 222,-112.5 64,-112.5"/>
<text text-anchor="start" x="72" y="-141.5" font-family="Helvetica,sans-Serif" font-size="10.00" fill="#000000">/home/runner/work/AliceO2</text>
<text text-anchor="start" x="72" y="-130.5" font-family="Helvetica,sans-Serif" font-size="10.00" fill="#000000">/AliceO2/Framework/Core</text>
<text text-anchor="middle" x="143" y="-119.5" font-family="Helvetica,sans-Serif" font-size="10.00" fill="#000000">/include/Framework/Monitoring.h</text>
</g>
<!-- Node1 -->
<g id="node2" class="node">
<title>Node1</title>
<g id="a_node2"><a xlink:href="../../d3/d28/ServiceHandle_8h.html" target="_top" xlink:title="Framework/ServiceHandle.h">
<polygon fill="none" stroke="#000000" points="0,-56.5 0,-75.5 140,-75.5 140,-56.5 0,-56.5"/>
<text text-anchor="middle" x="70" y="-63.5" font-family="Helvetica,sans-Serif" font-size="10.00" fill="#000000">Framework/ServiceHandle.h</text>
</a>
</g>
</g>
<!-- Node0&#45;&gt;Node1 -->
<g id="edge1" class="edge">
<title>Node0&#45;&gt;Node1</title>
<path fill="none" stroke="#191970" d="M120.3025,-112.168C109.9698,-102.6846 97.9064,-91.6127 88.1836,-82.689"/>
<polygon fill="#191970" stroke="#191970" points="90.3904,-79.9637 80.6563,-75.7805 85.6571,-85.1209 90.3904,-79.9637"/>
</g>
<!-- Node3 -->
<g id="node4" class="node">
<title>Node3</title>
<polygon fill="none" stroke="#bfbfbf" points="158,-56.5 158,-75.5 276,-75.5 276,-56.5 158,-56.5"/>
<text text-anchor="middle" x="217" y="-63.5" font-family="Helvetica,sans-Serif" font-size="10.00" fill="#000000">Monitoring/Monitoring.h</text>
</g>
<!-- Node0&#45;&gt;Node3 -->
<g id="edge3" class="edge">
<title>Node0&#45;&gt;Node3</title>
<path fill="none" stroke="#191970" d="M166.0084,-112.168C176.4827,-102.6846 188.7114,-91.6127 198.5673,-82.689"/>
<polygon fill="#191970" stroke="#191970" points="201.1338,-85.0868 206.1977,-75.7805 196.4356,-79.8977 201.1338,-85.0868"/>
</g>
<!-- Node2 -->
<g id="node3" class="node">
<title>Node2</title>
<polygon fill="none" stroke="#bfbfbf" points="49.5,-.5 49.5,-19.5 90.5,-19.5 90.5,-.5 49.5,-.5"/>
<text text-anchor="middle" x="70" y="-7.5" font-family="Helvetica,sans-Serif" font-size="10.00" fill="#000000">string</text>
</g>
<!-- Node1&#45;&gt;Node2 -->
<g id="edge2" class="edge">
<title>Node1&#45;&gt;Node2</title>
<path fill="none" stroke="#191970" d="M70,-56.2455C70,-48.9382 70,-38.6944 70,-29.7046"/>
<polygon fill="#191970" stroke="#191970" points="73.5001,-29.6426 70,-19.6427 66.5001,-29.6427 73.5001,-29.6426"/>
</g>
</g>
</svg>
