<?xml version="1.0" encoding="UTF-8" standalone="no"?>
<!DOCTYPE svg PUBLIC "-//W3C//DTD SVG 1.1//EN"
 "http://www.w3.org/Graphics/SVG/1.1/DTD/svg11.dtd">
<!-- Generated by graphviz version 2.40.1 (20161225.0304)
 -->
<!-- Title: /home/runner/work/AliceO2/AliceO2/DataFormats/Detectors/FIT/FDD/src/CTF.cxx Pages: 1 -->
<svg width="2374pt" height="632pt"
 viewBox="0.00 0.00 2374.00 632.00" xmlns="http://www.w3.org/2000/svg" xmlns:xlink="http://www.w3.org/1999/xlink">
<g id="graph0" class="graph" transform="scale(1 1) rotate(0) translate(4 628)">
<title>/home/runner/work/AliceO2/AliceO2/DataFormats/Detectors/FIT/FDD/src/CTF.cxx</title>
<!-- Node0 -->
<g id="node1" class="node">
<title>Node0</title>
<polygon fill="#bfbfbf" stroke="#000000" points="1308,-582.5 1308,-623.5 1468,-623.5 1468,-582.5 1308,-582.5"/>
<text text-anchor="start" x="1316" y="-611.5" font-family="Helvetica,sans-Serif" font-size="10.00" fill="#000000">/home/runner/work/AliceO2</text>
<text text-anchor="start" x="1316" y="-600.5" font-family="Helvetica,sans-Serif" font-size="10.00" fill="#000000">/AliceO2/DataFormats/Detectors</text>
<text text-anchor="middle" x="1388" y="-589.5" font-family="Helvetica,sans-Serif" font-size="10.00" fill="#000000">/FIT/FDD/src/CTF.cxx</text>
</g>
<!-- Node1 -->
<g id="node2" class="node">
<title>Node1</title>
<polygon fill="none" stroke="#bfbfbf" points="180.5,-230 180.5,-249 239.5,-249 239.5,-230 180.5,-230"/>
<text text-anchor="middle" x="210" y="-237" font-family="Helvetica,sans-Serif" font-size="10.00" fill="#000000">stdexcept</text>
</g>
<!-- Node0&#45;&gt;Node1 -->
<g id="edge1" class="edge">
<title>Node0&#45;&gt;Node1</title>
<path fill="none" stroke="#191970" d="M1307.8835,-599.8118C1012.2999,-587.5288 0,-540.6348 0,-474.5 0,-474.5 0,-474.5 0,-357 0,-279.792 109.4419,-252.8229 170.3116,-243.794"/>
<polygon fill="#191970" stroke="#191970" points="170.9331,-247.2414 180.3575,-242.4008 169.9715,-240.3077 170.9331,-247.2414"/>
</g>
<!-- Node2 -->
<g id="node3" class="node">
<title>Node2</title>
<polygon fill="none" stroke="#bfbfbf" points="1522,-526.5 1522,-545.5 1568,-545.5 1568,-526.5 1522,-526.5"/>
<text text-anchor="middle" x="1545" y="-533.5" font-family="Helvetica,sans-Serif" font-size="10.00" fill="#000000">cstring</text>
</g>
<!-- Node0&#45;&gt;Node2 -->
<g id="edge2" class="edge">
<title>Node0&#45;&gt;Node2</title>
<path fill="none" stroke="#191970" d="M1436.3862,-582.3511C1461.3442,-571.7003 1491.0889,-559.0066 1513.1353,-549.5983"/>
<polygon fill="#191970" stroke="#191970" points="1514.5527,-552.7989 1522.3764,-545.6546 1511.8052,-546.3606 1514.5527,-552.7989"/>
</g>
<!-- Node3 -->
<g id="node4" class="node">
<title>Node3</title>
<g id="a_node4"><a xlink:href="../../dd/da4/Logger_8h.html" target="_top" xlink:title="Framework/Logger.h">
<polygon fill="none" stroke="#000000" points="2260,-403.5 2260,-422.5 2366,-422.5 2366,-403.5 2260,-403.5"/>
<text text-anchor="middle" x="2313" y="-410.5" font-family="Helvetica,sans-Serif" font-size="10.00" fill="#000000">Framework/Logger.h</text>
</a>
</g>
</g>
<!-- Node0&#45;&gt;Node3 -->
<g id="edge3" class="edge">
<title>Node0&#45;&gt;Node3</title>
<path fill="none" stroke="#191970" d="M1414.1318,-582.4064C1438.3385,-564.4681 1476.0722,-539.3064 1513,-526 1822.4985,-414.4766 1920.421,-470.171 2246,-423 2247.2767,-422.815 2248.567,-422.6276 2249.8673,-422.4381"/>
<polygon fill="#191970" stroke="#191970" points="2250.5891,-425.8698 2259.9759,-420.9568 2249.5741,-418.9438 2250.5891,-425.8698"/>
</g>
<!-- Node5 -->
<g id="node6" class="node">
<title>Node5</title>
<g id="a_node6"><a xlink:href="../../d7/d75/FIT_2FDD_2include_2DataFormatsFDD_2CTF_8h.html" target="_top" xlink:title="DataFormatsFDD/CTF.h">
<polygon fill="none" stroke="#000000" points="1272.5,-526.5 1272.5,-545.5 1397.5,-545.5 1397.5,-526.5 1272.5,-526.5"/>
<text text-anchor="middle" x="1335" y="-533.5" font-family="Helvetica,sans-Serif" font-size="10.00" fill="#000000">DataFormatsFDD/CTF.h</text>
</a>
</g>
</g>
<!-- Node0&#45;&gt;Node5 -->
<g id="edge5" class="edge">
<title>Node0&#45;&gt;Node5</title>
<path fill="none" stroke="#191970" d="M1371.521,-582.168C1364.3192,-573.0639 1355.9594,-562.4959 1349.0568,-553.7699"/>
<polygon fill="#191970" stroke="#191970" points="1351.6859,-551.4519 1342.7368,-545.7805 1346.1959,-555.7947 1351.6859,-551.4519"/>
</g>
<!-- Node4 -->
<g id="node5" class="node">
<title>Node4</title>
<polygon fill="none" stroke="#bfbfbf" points="1569.5,-56.5 1569.5,-75.5 1666.5,-75.5 1666.5,-56.5 1569.5,-56.5"/>
<text text-anchor="middle" x="1618" y="-63.5" font-family="Helvetica,sans-Serif" font-size="10.00" fill="#000000">fairlogger/Logger.h</text>
</g>
<!-- Node3&#45;&gt;Node4 -->
<g id="edge4" class="edge">
<title>Node3&#45;&gt;Node4</title>
<path fill="none" stroke="#191970" d="M2298.507,-403.4003C2237.0642,-363.0435 1991.1318,-204.9403 1771,-112 1737.5965,-97.897 1698.4125,-86.2025 1668.0614,-78.1342"/>
<polygon fill="#191970" stroke="#191970" points="1668.6881,-74.6805 1658.1281,-75.5387 1666.9185,-81.4531 1668.6881,-74.6805"/>
</g>
<!-- Node6 -->
<g id="node7" class="node">
<title>Node6</title>
<polygon fill="none" stroke="#bfbfbf" points="912,-56.5 912,-75.5 956,-75.5 956,-56.5 912,-56.5"/>
<text text-anchor="middle" x="934" y="-63.5" font-family="Helvetica,sans-Serif" font-size="10.00" fill="#000000">vector</text>
</g>
<!-- Node5&#45;&gt;Node6 -->
<g id="edge6" class="edge">
<title>Node5&#45;&gt;Node6</title>
<path fill="none" stroke="#191970" d="M1272.447,-533.8723C1137.0663,-527.5649 829,-503.2924 829,-413 829,-413 829,-413 829,-357 829,-355.8628 746.1688,-224.1937 746,-224 725.3829,-200.3436 685.869,-194.2911 703,-168 747.5574,-99.6174 849.4782,-76.7504 901.7627,-69.3635"/>
<polygon fill="#191970" stroke="#191970" points="902.3654,-72.8145 911.8272,-68.0473 901.4577,-65.8736 902.3654,-72.8145"/>
</g>
<!-- Node7 -->
<g id="node8" class="node">
<title>Node7</title>
<polygon fill="none" stroke="#bfbfbf" points="1213,-403.5 1213,-422.5 1269,-422.5 1269,-403.5 1213,-403.5"/>
<text text-anchor="middle" x="1241" y="-410.5" font-family="Helvetica,sans-Serif" font-size="10.00" fill="#000000">Rtypes.h</text>
</g>
<!-- Node5&#45;&gt;Node7 -->
<g id="edge7" class="edge">
<title>Node5&#45;&gt;Node7</title>
<path fill="none" stroke="#191970" d="M1327.624,-526.3484C1311.8367,-505.6906 1274.5773,-456.9362 1254.4536,-430.6042"/>
<polygon fill="#191970" stroke="#191970" points="1257.1948,-428.427 1248.3418,-422.6068 1251.633,-432.6775 1257.1948,-428.427"/>
</g>
<!-- Node8 -->
<g id="node9" class="node">
<title>Node8</title>
<g id="a_node9"><a xlink:href="../../da/d91/EncodedBlocks_8h.html" target="_top" xlink:title="DetectorsCommonDataFormats\l/EncodedBlocks.h">
<polygon fill="none" stroke="#000000" points="1310,-459.5 1310,-489.5 1466,-489.5 1466,-459.5 1310,-459.5"/>
<text text-anchor="start" x="1318" y="-477.5" font-family="Helvetica,sans-Serif" font-size="10.00" fill="#000000">DetectorsCommonDataFormats</text>
<text text-anchor="middle" x="1388" y="-466.5" font-family="Helvetica,sans-Serif" font-size="10.00" fill="#000000">/EncodedBlocks.h</text>
</a>
</g>
</g>
<!-- Node5&#45;&gt;Node8 -->
<g id="edge8" class="edge">
<title>Node5&#45;&gt;Node8</title>
<path fill="none" stroke="#191970" d="M1343.2813,-526.3906C1349.9892,-518.6068 1359.7159,-507.3202 1368.3859,-497.2597"/>
<polygon fill="#191970" stroke="#191970" points="1371.1578,-499.4046 1375.0347,-489.5446 1365.8552,-494.8349 1371.1578,-499.4046"/>
</g>
<!-- Node8&#45;&gt;Node3 -->
<g id="edge139" class="edge">
<title>Node8&#45;&gt;Node3</title>
<path fill="none" stroke="#191970" d="M1466.2084,-460.6676C1470.8671,-460.0477 1475.4907,-459.4841 1480,-459 1818.8734,-422.6232 1906.8005,-456.1982 2246,-423 2247.112,-422.8912 2248.2337,-422.7766 2249.3628,-422.657"/>
<polygon fill="#191970" stroke="#191970" points="2250.1386,-426.0904 2259.6667,-421.4574 2249.329,-419.1374 2250.1386,-426.0904"/>
</g>
<!-- Node8&#45;&gt;Node7 -->
<g id="edge10" class="edge">
<title>Node8&#45;&gt;Node7</title>
<path fill="none" stroke="#191970" d="M1352.0398,-459.4554C1327.9427,-449.374 1296.487,-436.2139 1273.2097,-426.4755"/>
<polygon fill="#191970" stroke="#191970" points="1274.3558,-423.1611 1263.7798,-422.5303 1271.6541,-429.6187 1274.3558,-423.1611"/>
</g>
<!-- Node9 -->
<g id="node10" class="node">
<title>Node9</title>
<polygon fill="none" stroke="#bfbfbf" points="1967,-56.5 1967,-75.5 2029,-75.5 2029,-56.5 1967,-56.5"/>
<text text-anchor="middle" x="1998" y="-63.5" font-family="Helvetica,sans-Serif" font-size="10.00" fill="#000000">type_traits</text>
</g>
<!-- Node8&#45;&gt;Node9 -->
<g id="edge9" class="edge">
<title>Node8&#45;&gt;Node9</title>
<path fill="none" stroke="#191970" d="M1466.1242,-470.2596C1680.8274,-456.4885 2264,-403.948 2264,-239.5 2264,-239.5 2264,-239.5 2264,-178 2264,-132.9267 2227.1104,-132.5611 2187,-112 2139.6886,-87.7477 2079.0902,-75.9276 2039.4394,-70.4208"/>
<polygon fill="#191970" stroke="#191970" points="2039.707,-66.9259 2029.3359,-69.0914 2038.7938,-73.8661 2039.707,-66.9259"/>
</g>
<!-- Node10 -->
<g id="node11" class="node">
<title>Node10</title>
<g id="a_node11"><a xlink:href="../../d4/de7/rans_8h.html" target="_top" xlink:title="header for public api ">
<polygon fill="none" stroke="#000000" points="1287.5,-403.5 1287.5,-422.5 1358.5,-422.5 1358.5,-403.5 1287.5,-403.5"/>
<text text-anchor="middle" x="1323" y="-410.5" font-family="Helvetica,sans-Serif" font-size="10.00" fill="#000000">rANS/rans.h</text>
</a>
</g>
</g>
<!-- Node8&#45;&gt;Node10 -->
<g id="edge11" class="edge">
<title>Node8&#45;&gt;Node10</title>
<path fill="none" stroke="#191970" d="M1371.9326,-459.2977C1362.534,-450.4052 1350.6473,-439.1586 1340.943,-429.9769"/>
<polygon fill="#191970" stroke="#191970" points="1343.0768,-427.1774 1333.4073,-422.8469 1338.2658,-432.2621 1343.0768,-427.1774"/>
</g>
<!-- Node40 -->
<g id="node41" class="node">
<title>Node40</title>
<polygon fill="none" stroke="#bfbfbf" points="1377,-403.5 1377,-422.5 1427,-422.5 1427,-403.5 1377,-403.5"/>
<text text-anchor="middle" x="1402" y="-410.5" font-family="Helvetica,sans-Serif" font-size="10.00" fill="#000000">TTree.h</text>
</g>
<!-- Node8&#45;&gt;Node40 -->
<g id="edge136" class="edge">
<title>Node8&#45;&gt;Node40</title>
<path fill="none" stroke="#191970" d="M1391.4607,-459.2977C1393.2826,-451.2945 1395.5385,-441.3843 1397.4952,-432.7889"/>
<polygon fill="#191970" stroke="#191970" points="1400.9514,-433.3744 1399.7584,-422.8469 1394.126,-431.8206 1400.9514,-433.3744"/>
</g>
<!-- Node41 -->
<g id="node42" class="node">
<title>Node41</title>
<g id="a_node42"><a xlink:href="../../d1/d1e/Common_2Utils_2include_2CommonUtils_2StringUtils_8h.html" target="_top" xlink:title="CommonUtils/StringUtils.h">
<polygon fill="none" stroke="#000000" points="1573,-403.5 1573,-422.5 1707,-422.5 1707,-403.5 1573,-403.5"/>
<text text-anchor="middle" x="1640" y="-410.5" font-family="Helvetica,sans-Serif" font-size="10.00" fill="#000000">CommonUtils/StringUtils.h</text>
</a>
</g>
</g>
<!-- Node8&#45;&gt;Node41 -->
<g id="edge137" class="edge">
<title>Node8&#45;&gt;Node41</title>
<path fill="none" stroke="#191970" d="M1449.6461,-459.4554C1493.1683,-448.8339 1550.6933,-434.7951 1591.0717,-424.9408"/>
<polygon fill="#191970" stroke="#191970" points="1592.0639,-428.3015 1600.9489,-422.5303 1590.4042,-421.5011 1592.0639,-428.3015"/>
</g>
<!-- Node11 -->
<g id="node12" class="node">
<title>Node11</title>
<g id="a_node12"><a xlink:href="../../dd/d65/FrequencyTable_8h.html" target="_top" xlink:title="Histogram to depict frequencies of source symbols for rANS compression. ">
<polygon fill="none" stroke="#000000" points="1114.5,-112.5 1114.5,-131.5 1209.5,-131.5 1209.5,-112.5 1114.5,-112.5"/>
<text text-anchor="middle" x="1162" y="-119.5" font-family="Helvetica,sans-Serif" font-size="10.00" fill="#000000">FrequencyTable.h</text>
</a>
</g>
</g>
<!-- Node10&#45;&gt;Node11 -->
<g id="edge12" class="edge">
<title>Node10&#45;&gt;Node11</title>
<path fill="none" stroke="#191970" d="M1322.3392,-403.2166C1319.979,-373.949 1310.0123,-285.3104 1273,-224 1250.6163,-186.9217 1210.787,-155.157 1185.4209,-137.3305"/>
<polygon fill="#191970" stroke="#191970" points="1187.3291,-134.3952 1177.104,-131.6205 1183.367,-140.166 1187.3291,-134.3952"/>
</g>
<!-- Node18 -->
<g id="node19" class="node">
<title>Node18</title>
<g id="a_node19"><a xlink:href="../../d4/da1/helper_8h.html" target="_top" xlink:title="various helper functions ">
<polygon fill="none" stroke="#000000" points="301,-56.5 301,-75.5 387,-75.5 387,-56.5 301,-56.5"/>
<text text-anchor="middle" x="344" y="-63.5" font-family="Helvetica,sans-Serif" font-size="10.00" fill="#000000">internal/helper.h</text>
</a>
</g>
</g>
<!-- Node10&#45;&gt;Node18 -->
<g id="edge135" class="edge">
<title>Node10&#45;&gt;Node18</title>
<path fill="none" stroke="#191970" d="M1287.2422,-404.4392C1284.1287,-403.8808 1281.0163,-403.3878 1278,-403 849.6733,-347.9322 734.6971,-426.7613 307,-367 185.0829,-349.9648 38,-424.1015 38,-301 38,-301 38,-301 38,-178 38,-132.2481 75.7623,-131.8164 117,-112 172.5446,-85.3086 242.9386,-74.0892 290.4965,-69.383"/>
<polygon fill="#191970" stroke="#191970" points="290.947,-72.8563 300.5815,-68.4487 290.3012,-65.8862 290.947,-72.8563"/>
</g>
<!-- Node21 -->
<g id="node22" class="node">
<title>Node21</title>
<g id="a_node22"><a xlink:href="../../dd/d74/Utilities_2rANS_2include_2rANS_2Encoder_8h.html" target="_top" xlink:title="Encoder.h">
<polygon fill="none" stroke="#000000" points="495.5,-291.5 495.5,-310.5 556.5,-310.5 556.5,-291.5 495.5,-291.5"/>
<text text-anchor="middle" x="526" y="-298.5" font-family="Helvetica,sans-Serif" font-size="10.00" fill="#000000">Encoder.h</text>
</a>
</g>
</g>
<!-- Node10&#45;&gt;Node21 -->
<g id="edge26" class="edge">
<title>Node10&#45;&gt;Node21</title>
<path fill="none" stroke="#191970" d="M1287.2363,-404.4841C1284.1241,-403.9159 1281.0136,-403.4084 1278,-403 1199.8353,-392.407 637.3727,-406.3334 569,-367 551.2781,-356.805 539.5902,-336.0089 532.9326,-320.4704"/>
<polygon fill="#191970" stroke="#191970" points="536.0278,-318.7767 529.1149,-310.7478 529.5121,-321.3352 536.0278,-318.7767"/>
</g>
<!-- Node31 -->
<g id="node32" class="node">
<title>Node31</title>
<g id="a_node32"><a xlink:href="../../dc/d62/Utilities_2rANS_2include_2rANS_2Decoder_8h.html" target="_top" xlink:title="Decoder.h">
<polygon fill="none" stroke="#000000" points="1559,-291.5 1559,-310.5 1621,-310.5 1621,-291.5 1559,-291.5"/>
<text text-anchor="middle" x="1590" y="-298.5" font-family="Helvetica,sans-Serif" font-size="10.00" fill="#000000">Decoder.h</text>
</a>
</g>
</g>
<!-- Node10&#45;&gt;Node31 -->
<g id="edge65" class="edge">
<title>Node10&#45;&gt;Node31</title>
<path fill="none" stroke="#191970" d="M1335.8671,-403.4384C1355.3411,-389.3538 1393.8693,-362.9759 1430,-347 1468.9284,-329.787 1516.0164,-317.1555 1548.994,-309.5305"/>
<polygon fill="#191970" stroke="#191970" points="1549.7685,-312.9438 1558.7508,-307.3253 1548.2252,-306.116 1549.7685,-312.9438"/>
</g>
<!-- Node34 -->
<g id="node35" class="node">
<title>Node34</title>
<g id="a_node35"><a xlink:href="../../d5/ddf/DedupEncoder_8h.html" target="_top" xlink:title="DedupEncoder.h">
<polygon fill="none" stroke="#000000" points="578.5,-347.5 578.5,-366.5 667.5,-366.5 667.5,-347.5 578.5,-347.5"/>
<text text-anchor="middle" x="623" y="-354.5" font-family="Helvetica,sans-Serif" font-size="10.00" fill="#000000">DedupEncoder.h</text>
</a>
</g>
</g>
<!-- Node10&#45;&gt;Node34 -->
<g id="edge90" class="edge">
<title>Node10&#45;&gt;Node34</title>
<path fill="none" stroke="#191970" d="M1287.2273,-404.5476C1284.1171,-403.9656 1281.0095,-403.4376 1278,-403 1057.0242,-370.8694 790.721,-360.9772 677.8369,-358.1031"/>
<polygon fill="#191970" stroke="#191970" points="677.8024,-354.6013 667.7193,-357.854 677.6301,-361.5992 677.8024,-354.6013"/>
</g>
<!-- Node37 -->
<g id="node38" class="node">
<title>Node37</title>
<g id="a_node38"><a xlink:href="../../da/da6/DedupDecoder_8h.html" target="_top" xlink:title="DedupDecoder.h">
<polygon fill="none" stroke="#000000" points="1545,-347.5 1545,-366.5 1635,-366.5 1635,-347.5 1545,-347.5"/>
<text text-anchor="middle" x="1590" y="-354.5" font-family="Helvetica,sans-Serif" font-size="10.00" fill="#000000">DedupDecoder.h</text>
</a>
</g>
</g>
<!-- Node10&#45;&gt;Node37 -->
<g id="edge103" class="edge">
<title>Node10&#45;&gt;Node37</title>
<path fill="none" stroke="#191970" d="M1358.8512,-404.9844C1361.9444,-404.3076 1365.0266,-403.6384 1368,-403 1424.8862,-390.7863 1490.0963,-377.3404 1535.0506,-368.1575"/>
<polygon fill="#191970" stroke="#191970" points="1535.7921,-371.5784 1544.8903,-366.1495 1534.3924,-364.7197 1535.7921,-371.5784"/>
</g>
<!-- Node38 -->
<g id="node39" class="node">
<title>Node38</title>
<g id="a_node39"><a xlink:href="../../d9/de1/LiteralEncoder_8h.html" target="_top" xlink:title="LiteralEncoder.h">
<polygon fill="none" stroke="#000000" points="316.5,-347.5 316.5,-366.5 403.5,-366.5 403.5,-347.5 316.5,-347.5"/>
<text text-anchor="middle" x="360" y="-354.5" font-family="Helvetica,sans-Serif" font-size="10.00" fill="#000000">LiteralEncoder.h</text>
</a>
</g>
</g>
<!-- Node10&#45;&gt;Node38 -->
<g id="edge114" class="edge">
<title>Node10&#45;&gt;Node38</title>
<path fill="none" stroke="#191970" d="M1287.2376,-404.4742C1284.1251,-403.9082 1281.0142,-403.4039 1278,-403 945.4785,-358.448 858.9983,-385.2099 524,-367 487.2468,-365.0022 445.8782,-362.4777 413.8845,-360.4651"/>
<polygon fill="#191970" stroke="#191970" points="414.0448,-356.9684 403.844,-359.831 413.6035,-363.9544 414.0448,-356.9684"/>
</g>
<!-- Node39 -->
<g id="node40" class="node">
<title>Node39</title>
<g id="a_node40"><a xlink:href="../../df/dfe/LiteralDecoder_8h.html" target="_top" xlink:title="LiteralDecoder.h">
<polygon fill="none" stroke="#000000" points="1439,-347.5 1439,-366.5 1527,-366.5 1527,-347.5 1439,-347.5"/>
<text text-anchor="middle" x="1483" y="-354.5" font-family="Helvetica,sans-Serif" font-size="10.00" fill="#000000">LiteralDecoder.h</text>
</a>
</g>
</g>
<!-- Node10&#45;&gt;Node39 -->
<g id="edge124" class="edge">
<title>Node10&#45;&gt;Node39</title>
<path fill="none" stroke="#191970" d="M1350.505,-403.3733C1376.8802,-394.1419 1416.8851,-380.1402 1446.0358,-369.9375"/>
<polygon fill="#191970" stroke="#191970" points="1447.5716,-373.1082 1455.8539,-366.5011 1445.2591,-366.5012 1447.5716,-373.1082"/>
</g>
<!-- Node11&#45;&gt;Node4 -->
<g id="edge21" class="edge">
<title>Node11&#45;&gt;Node4</title>
<path fill="none" stroke="#191970" d="M1209.5095,-116.1655C1293.4144,-105.8614 1467.5889,-84.4715 1559.0284,-73.2421"/>
<polygon fill="#191970" stroke="#191970" points="1559.7232,-76.6832 1569.222,-71.9903 1558.8699,-69.7354 1559.7232,-76.6832"/>
</g>
<!-- Node11&#45;&gt;Node6 -->
<g id="edge20" class="edge">
<title>Node11&#45;&gt;Node6</title>
<path fill="none" stroke="#191970" d="M1123.0645,-112.4369C1078.7439,-101.5511 1007.1742,-83.9726 965.9773,-73.8541"/>
<polygon fill="#191970" stroke="#191970" points="966.7392,-70.4372 956.193,-71.4509 965.0695,-77.2352 966.7392,-70.4372"/>
</g>
<!-- Node11&#45;&gt;Node9 -->
<g id="edge19" class="edge">
<title>Node11&#45;&gt;Node9</title>
<path fill="none" stroke="#191970" d="M1209.6261,-119.3237C1325.0261,-112.7591 1628.7578,-95.0029 1882,-76 1906.8836,-74.1328 1934.7428,-71.741 1956.9215,-69.7648"/>
<polygon fill="#191970" stroke="#191970" points="1957.3498,-73.2405 1966.997,-68.8608 1956.7243,-66.2685 1957.3498,-73.2405"/>
</g>
<!-- Node12 -->
<g id="node13" class="node">
<title>Node12</title>
<polygon fill="none" stroke="#bfbfbf" points="405,-56.5 405,-75.5 461,-75.5 461,-56.5 405,-56.5"/>
<text text-anchor="middle" x="433" y="-63.5" font-family="Helvetica,sans-Serif" font-size="10.00" fill="#000000">algorithm</text>
</g>
<!-- Node11&#45;&gt;Node12 -->
<g id="edge13" class="edge">
<title>Node11&#45;&gt;Node12</title>
<path fill="none" stroke="#191970" d="M1114.4495,-118.3473C979.134,-107.9527 593.8157,-78.3535 471.0607,-68.9237"/>
<polygon fill="#191970" stroke="#191970" points="471.2479,-65.4279 461.0092,-68.1516 470.7117,-72.4073 471.2479,-65.4279"/>
</g>
<!-- Node13 -->
<g id="node14" class="node">
<title>Node13</title>
<polygon fill="none" stroke="#bfbfbf" points="719.5,-56.5 719.5,-75.5 768.5,-75.5 768.5,-56.5 719.5,-56.5"/>
<text text-anchor="middle" x="744" y="-63.5" font-family="Helvetica,sans-Serif" font-size="10.00" fill="#000000">cassert</text>
</g>
<!-- Node11&#45;&gt;Node13 -->
<g id="edge14" class="edge">
<title>Node11&#45;&gt;Node13</title>
<path fill="none" stroke="#191970" d="M1114.457,-115.6306C1029.6142,-104.2641 854.0089,-80.738 779.0983,-70.7022"/>
<polygon fill="#191970" stroke="#191970" points="779.1756,-67.1813 768.7993,-69.3224 778.246,-74.1193 779.1756,-67.1813"/>
</g>
<!-- Node14 -->
<g id="node15" class="node">
<title>Node14</title>
<polygon fill="none" stroke="#bfbfbf" points="925,-.5 925,-19.5 969,-19.5 969,-.5 925,-.5"/>
<text text-anchor="middle" x="947" y="-7.5" font-family="Helvetica,sans-Serif" font-size="10.00" fill="#000000">cmath</text>
</g>
<!-- Node11&#45;&gt;Node14 -->
<g id="edge15" class="edge">
<title>Node11&#45;&gt;Node14</title>
<path fill="none" stroke="#191970" d="M1143.6692,-112.4509C1105.8264,-92.7375 1018.884,-47.4465 974.3632,-24.2543"/>
<polygon fill="#191970" stroke="#191970" points="975.7702,-21.0409 965.2844,-19.5249 972.5362,-27.249 975.7702,-21.0409"/>
</g>
<!-- Node15 -->
<g id="node16" class="node">
<title>Node15</title>
<polygon fill="none" stroke="#bfbfbf" points="1819,-56.5 1819,-75.5 1873,-75.5 1873,-56.5 1819,-56.5"/>
<text text-anchor="middle" x="1846" y="-63.5" font-family="Helvetica,sans-Serif" font-size="10.00" fill="#000000">iostream</text>
</g>
<!-- Node11&#45;&gt;Node15 -->
<g id="edge16" class="edge">
<title>Node11&#45;&gt;Node15</title>
<path fill="none" stroke="#191970" d="M1209.5545,-118.1066C1338.528,-107.5474 1693.0238,-78.5244 1808.8506,-69.0415"/>
<polygon fill="#191970" stroke="#191970" points="1809.3054,-72.516 1818.9864,-68.2116 1808.7342,-65.5394 1809.3054,-72.516"/>
</g>
<!-- Node16 -->
<g id="node17" class="node">
<title>Node16</title>
<polygon fill="none" stroke="#bfbfbf" points="1165.5,-56.5 1165.5,-75.5 1212.5,-75.5 1212.5,-56.5 1165.5,-56.5"/>
<text text-anchor="middle" x="1189" y="-63.5" font-family="Helvetica,sans-Serif" font-size="10.00" fill="#000000">iterator</text>
</g>
<!-- Node11&#45;&gt;Node16 -->
<g id="edge17" class="edge">
<title>Node11&#45;&gt;Node16</title>
<path fill="none" stroke="#191970" d="M1166.703,-112.2455C1170.3424,-104.6973 1175.4924,-94.0158 1179.9262,-84.8197"/>
<polygon fill="#191970" stroke="#191970" points="1183.1605,-86.1704 1184.3509,-75.6427 1176.8551,-83.1303 1183.1605,-86.1704"/>
</g>
<!-- Node17 -->
<g id="node18" class="node">
<title>Node17</title>
<polygon fill="none" stroke="#bfbfbf" points="1257.5,-56.5 1257.5,-75.5 1308.5,-75.5 1308.5,-56.5 1257.5,-56.5"/>
<text text-anchor="middle" x="1283" y="-63.5" font-family="Helvetica,sans-Serif" font-size="10.00" fill="#000000">numeric</text>
</g>
<!-- Node11&#45;&gt;Node17 -->
<g id="edge18" class="edge">
<title>Node11&#45;&gt;Node17</title>
<path fill="none" stroke="#191970" d="M1182.8006,-112.3733C1202.2243,-103.3838 1231.4224,-89.8706 1253.2964,-79.7471"/>
<polygon fill="#191970" stroke="#191970" points="1254.8656,-82.8776 1262.4708,-75.5011 1251.9255,-76.5249 1254.8656,-82.8776"/>
</g>
<!-- Node11&#45;&gt;Node18 -->
<g id="edge22" class="edge">
<title>Node11&#45;&gt;Node18</title>
<path fill="none" stroke="#191970" d="M1114.4806,-119.2297C959.9512,-110.2108 477.4523,-81.9687 397.341,-75.6629"/>
<polygon fill="#191970" stroke="#191970" points="397.3373,-72.1482 387.0613,-74.728 396.7032,-79.1194 397.3373,-72.1482"/>
</g>
<!-- Node18&#45;&gt;Node14 -->
<g id="edge24" class="edge">
<title>Node18&#45;&gt;Node14</title>
<path fill="none" stroke="#191970" d="M387.0716,-57.3501C390.0873,-56.8575 393.0856,-56.4007 396,-56 592.0742,-29.0405 829.7273,-15.6686 914.7979,-11.4852"/>
<polygon fill="#191970" stroke="#191970" points="915.0416,-14.9776 924.8608,-10.9985 914.7033,-7.9858 915.0416,-14.9776"/>
</g>
<!-- Node19 -->
<g id="node20" class="node">
<title>Node19</title>
<polygon fill="none" stroke="#bfbfbf" points="2144.5,-.5 2144.5,-19.5 2193.5,-19.5 2193.5,-.5 2144.5,-.5"/>
<text text-anchor="middle" x="2169" y="-7.5" font-family="Helvetica,sans-Serif" font-size="10.00" fill="#000000">cstddef</text>
</g>
<!-- Node18&#45;&gt;Node19 -->
<g id="edge23" class="edge">
<title>Node18&#45;&gt;Node19</title>
<path fill="none" stroke="#191970" d="M387.048,-57.1578C390.0693,-56.711 393.0753,-56.317 396,-56 750.8522,-17.5393 1917.0788,-11.0134 2134.0773,-10.1241"/>
<polygon fill="#191970" stroke="#191970" points="2134.2612,-13.6235 2144.2472,-10.0838 2134.2334,-6.6236 2134.2612,-13.6235"/>
</g>
<!-- Node20 -->
<g id="node21" class="node">
<title>Node20</title>
<polygon fill="none" stroke="#bfbfbf" points="321,-.5 321,-19.5 367,-19.5 367,-.5 321,-.5"/>
<text text-anchor="middle" x="344" y="-7.5" font-family="Helvetica,sans-Serif" font-size="10.00" fill="#000000">chrono</text>
</g>
<!-- Node18&#45;&gt;Node20 -->
<g id="edge25" class="edge">
<title>Node18&#45;&gt;Node20</title>
<path fill="none" stroke="#191970" d="M344,-56.2455C344,-48.9382 344,-38.6944 344,-29.7046"/>
<polygon fill="#191970" stroke="#191970" points="347.5001,-29.6426 344,-19.6427 340.5001,-29.6427 347.5001,-29.6426"/>
</g>
<!-- Node21&#45;&gt;Node1 -->
<g id="edge44" class="edge">
<title>Node21&#45;&gt;Node1</title>
<path fill="none" stroke="#191970" d="M495.4135,-295.0472C437.8983,-283.8536 313.6849,-259.6792 249.7713,-247.2403"/>
<polygon fill="#191970" stroke="#191970" points="250.1641,-243.7512 239.6797,-245.2763 248.8268,-250.6222 250.1641,-243.7512"/>
</g>
<!-- Node21&#45;&gt;Node4 -->
<g id="edge43" class="edge">
<title>Node21&#45;&gt;Node4</title>
<path fill="none" stroke="#191970" d="M556.5103,-296.0945C568.4861,-294.2959 582.3643,-292.3678 595,-291 705.9721,-278.9874 991.0775,-293.0839 1096,-255 1118.146,-246.9616 1118.2479,-235.1539 1139,-224 1262.8959,-157.4081 1300.7914,-154.104 1435,-112 1477.8564,-98.5551 1527.2999,-86.3168 1563.9813,-77.8494"/>
<polygon fill="#191970" stroke="#191970" points="1565.0055,-81.2056 1573.9729,-75.5632 1563.4441,-74.3819 1565.0055,-81.2056"/>
</g>
<!-- Node21&#45;&gt;Node11 -->
<g id="edge64" class="edge">
<title>Node21&#45;&gt;Node11</title>
<path fill="none" stroke="#191970" d="M556.5139,-296.1277C568.4902,-294.3334 582.3678,-292.3996 595,-291 698.6728,-279.5132 971.6546,-305.359 1063,-255 1109.677,-229.2668 1140.6248,-171.1769 1154.1771,-141.0013"/>
<polygon fill="#191970" stroke="#191970" points="1157.4897,-142.1589 1158.2426,-131.5908 1151.0637,-139.3827 1157.4897,-142.1589"/>
</g>
<!-- Node21&#45;&gt;Node12 -->
<g id="edge41" class="edge">
<title>Node21&#45;&gt;Node12</title>
<path fill="none" stroke="#191970" d="M519.7484,-291.0158C509.5465,-275.3036 488.0306,-244.4893 464,-224 439.4601,-203.0765 417.1867,-215.8925 401,-188 381.5087,-154.4129 404.3794,-108.8127 420.2735,-83.962"/>
<polygon fill="#191970" stroke="#191970" points="423.2686,-85.7796 425.9206,-75.522 417.4507,-81.8869 423.2686,-85.7796"/>
</g>
<!-- Node21&#45;&gt;Node18 -->
<g id="edge46" class="edge">
<title>Node21&#45;&gt;Node18</title>
<path fill="none" stroke="#191970" d="M511.8577,-291.2159C499.0562,-282.195 479.8367,-268.2375 464,-255 448.5604,-242.0943 446.5912,-236.7221 431,-224 409.5035,-206.4592 398.0827,-209.0426 380,-188 361.864,-166.8954 360.014,-158.6476 352,-132 347.475,-116.9539 345.5003,-99.2477 344.6431,-85.9647"/>
<polygon fill="#191970" stroke="#191970" points="348.1213,-85.4273 344.1415,-75.6083 341.1295,-85.766 348.1213,-85.4273"/>
</g>
<!-- Node22 -->
<g id="node23" class="node">
<title>Node22</title>
<g id="a_node23"><a xlink:href="../../de/d8e/Utilities_2rANS_2include_2rANS_2internal_2Encoder_8h.html" target="_top" xlink:title="internal/Encoder.h">
<polygon fill="none" stroke="#000000" points="554.5,-230 554.5,-249 649.5,-249 649.5,-230 554.5,-230"/>
<text text-anchor="middle" x="602" y="-237" font-family="Helvetica,sans-Serif" font-size="10.00" fill="#000000">internal/Encoder.h</text>
</a>
</g>
</g>
<!-- Node21&#45;&gt;Node22 -->
<g id="edge27" class="edge">
<title>Node21&#45;&gt;Node22</title>
<path fill="none" stroke="#191970" d="M537.875,-291.3906C549.6297,-281.8786 567.8486,-267.1357 581.8672,-255.7917"/>
<polygon fill="#191970" stroke="#191970" points="584.3856,-258.2562 589.9576,-249.2449 579.9822,-252.8146 584.3856,-258.2562"/>
</g>
<!-- Node26 -->
<g id="node27" class="node">
<title>Node26</title>
<g id="a_node27"><a xlink:href="../../d2/d53/EncoderSymbol_8h.html" target="_top" xlink:title="Structure containing all relevant information to encode a symbol. ">
<polygon fill="none" stroke="#000000" points="410,-168.5 410,-187.5 504,-187.5 504,-168.5 410,-168.5"/>
<text text-anchor="middle" x="457" y="-175.5" font-family="Helvetica,sans-Serif" font-size="10.00" fill="#000000">EncoderSymbol.h</text>
</a>
</g>
</g>
<!-- Node21&#45;&gt;Node26 -->
<g id="edge45" class="edge">
<title>Node21&#45;&gt;Node26</title>
<path fill="none" stroke="#191970" d="M524.5069,-291.4031C521.8281,-276.2214 515.2083,-246.1211 502,-224 495.4224,-212.984 485.6901,-202.5942 476.9573,-194.4858"/>
<polygon fill="#191970" stroke="#191970" points="479.1415,-191.7448 469.3376,-187.7282 474.4969,-196.9819 479.1415,-191.7448"/>
</g>
<!-- Node27 -->
<g id="node28" class="node">
<title>Node27</title>
<polygon fill="none" stroke="#bfbfbf" points="668,-230 668,-249 720,-249 720,-230 668,-230"/>
<text text-anchor="middle" x="694" y="-237" font-family="Helvetica,sans-Serif" font-size="10.00" fill="#000000">memory</text>
</g>
<!-- Node21&#45;&gt;Node27 -->
<g id="edge40" class="edge">
<title>Node21&#45;&gt;Node27</title>
<path fill="none" stroke="#191970" d="M555.317,-291.4504C582.2117,-282.5324 623.0556,-268.5917 658,-255 659.6132,-254.3725 661.2613,-253.7167 662.9213,-253.0444"/>
<polygon fill="#191970" stroke="#191970" points="664.5158,-256.1718 672.4011,-249.0956 661.8241,-249.71 664.5158,-256.1718"/>
</g>
<!-- Node28 -->
<g id="node29" class="node">
<title>Node28</title>
<polygon fill="none" stroke="#bfbfbf" points="372,-230 372,-249 422,-249 422,-230 372,-230"/>
<text text-anchor="middle" x="397" y="-237" font-family="Helvetica,sans-Serif" font-size="10.00" fill="#000000">iomanip</text>
</g>
<!-- Node21&#45;&gt;Node28 -->
<g id="edge42" class="edge">
<title>Node21&#45;&gt;Node28</title>
<path fill="none" stroke="#191970" d="M505.8438,-291.3906C484.449,-281.1908 450.438,-264.9763 426.1298,-253.3875"/>
<polygon fill="#191970" stroke="#191970" points="427.5476,-250.186 417.0147,-249.0419 424.5352,-256.5047 427.5476,-250.186"/>
</g>
<!-- Node29 -->
<g id="node30" class="node">
<title>Node29</title>
<g id="a_node30"><a xlink:href="../../d8/dd9/SymbolTable_8h.html" target="_top" xlink:title="Container for information needed to encode/decode a symbol of the alphabet. ">
<polygon fill="none" stroke="#000000" points="1148,-230 1148,-249 1264,-249 1264,-230 1148,-230"/>
<text text-anchor="middle" x="1206" y="-237" font-family="Helvetica,sans-Serif" font-size="10.00" fill="#000000">internal/SymbolTable.h</text>
</a>
</g>
</g>
<!-- Node21&#45;&gt;Node29 -->
<g id="edge47" class="edge">
<title>Node21&#45;&gt;Node29</title>
<path fill="none" stroke="#191970" d="M556.5777,-298.3992C581.0376,-296.3365 616.2141,-293.41 647,-291 863.3731,-274.0619 919.1776,-285.912 1134,-255 1141.3919,-253.9363 1149.1586,-252.5512 1156.7444,-251.0467"/>
<polygon fill="#191970" stroke="#191970" points="1157.481,-254.4685 1166.5657,-249.017 1156.0643,-247.6133 1157.481,-254.4685"/>
</g>
<!-- Node22&#45;&gt;Node6 -->
<g id="edge28" class="edge">
<title>Node22&#45;&gt;Node6</title>
<path fill="none" stroke="#191970" d="M599.7684,-229.8776C594.8959,-206.1654 586.1381,-144.4964 618,-112 637.7396,-91.8673 825.6534,-74.6838 901.9954,-68.4756"/>
<polygon fill="#191970" stroke="#191970" points="902.3099,-71.9617 911.998,-67.6733 901.7501,-64.9841 902.3099,-71.9617"/>
</g>
<!-- Node22&#45;&gt;Node9 -->
<g id="edge31" class="edge">
<title>Node22&#45;&gt;Node9</title>
<path fill="none" stroke="#191970" d="M632.1993,-229.9494C640.7774,-227.6036 650.1843,-225.3735 659,-224 1021.6406,-167.5 1121.5144,-245.4857 1484,-188 1516.8017,-182.7981 1523.7632,-175.9874 1556,-168 1628.8555,-149.9484 1648.4856,-151.3763 1721,-132 1749.3813,-124.4163 1755.607,-119.5399 1784,-112 1843.6744,-96.1532 1913.8016,-81.8924 1957.0766,-73.5875"/>
<polygon fill="#191970" stroke="#191970" points="1957.7792,-77.0167 1966.9476,-71.7073 1956.4693,-70.1404 1957.7792,-77.0167"/>
</g>
<!-- Node22&#45;&gt;Node13 -->
<g id="edge30" class="edge">
<title>Node22&#45;&gt;Node13</title>
<path fill="none" stroke="#191970" d="M589.046,-229.7027C577.8912,-220.3819 562.5818,-205.2489 556,-188 543.9581,-156.4416 535.1461,-138.5716 556,-112 574.699,-88.1742 660.2886,-75.0935 709.2891,-69.4396"/>
<polygon fill="#191970" stroke="#191970" points="709.8901,-72.8945 719.4435,-68.3137 709.1186,-65.9371 709.8901,-72.8945"/>
</g>
<!-- Node22&#45;&gt;Node18 -->
<g id="edge39" class="edge">
<title>Node22&#45;&gt;Node18</title>
<path fill="none" stroke="#191970" d="M554.4062,-232.1159C502.6359,-223.2654 424.1549,-207.1992 401,-188 368.8909,-161.3764 353.8516,-112.6038 347.6851,-85.4874"/>
<polygon fill="#191970" stroke="#191970" points="351.0957,-84.6974 345.6202,-75.6272 344.2443,-86.1323 351.0957,-84.6974"/>
</g>
<!-- Node23 -->
<g id="node24" class="node">
<title>Node23</title>
<polygon fill="none" stroke="#bfbfbf" points="627,-112.5 627,-131.5 673,-131.5 673,-112.5 627,-112.5"/>
<text text-anchor="middle" x="650" y="-119.5" font-family="Helvetica,sans-Serif" font-size="10.00" fill="#000000">cstdint</text>
</g>
<!-- Node22&#45;&gt;Node23 -->
<g id="edge29" class="edge">
<title>Node22&#45;&gt;Node23</title>
<path fill="none" stroke="#191970" d="M605.928,-229.8845C613.839,-210.5192 631.819,-166.5055 642.204,-141.084"/>
<polygon fill="#191970" stroke="#191970" points="645.476,-142.3294 646.0177,-131.7484 638.9958,-139.6821 645.476,-142.3294"/>
</g>
<!-- Node24 -->
<g id="node25" class="node">
<title>Node24</title>
<polygon fill="none" stroke="#bfbfbf" points="826,-168.5 826,-187.5 864,-187.5 864,-168.5 826,-168.5"/>
<text text-anchor="middle" x="845" y="-175.5" font-family="Helvetica,sans-Serif" font-size="10.00" fill="#000000">tuple</text>
</g>
<!-- Node22&#45;&gt;Node24 -->
<g id="edge32" class="edge">
<title>Node22&#45;&gt;Node24</title>
<path fill="none" stroke="#191970" d="M636.3032,-229.9328C643.7703,-227.9172 651.6386,-225.8441 659,-224 728.4429,-206.604 747.1743,-207.6966 816,-188 816.0992,-187.9716 816.1986,-187.9431 816.2981,-187.9144"/>
<polygon fill="#191970" stroke="#191970" points="817.2485,-191.2844 825.7481,-184.9593 815.1593,-184.6034 817.2485,-191.2844"/>
</g>
<!-- Node25 -->
<g id="node26" class="node">
<title>Node25</title>
<g id="a_node26"><a xlink:href="../../d7/d99/DecoderSymbol_8h.html" target="_top" xlink:title="Structure containing all relevant information for decoding a rANS encoded symbol. ...">
<polygon fill="none" stroke="#000000" points="712.5,-168.5 712.5,-187.5 807.5,-187.5 807.5,-168.5 712.5,-168.5"/>
<text text-anchor="middle" x="760" y="-175.5" font-family="Helvetica,sans-Serif" font-size="10.00" fill="#000000">DecoderSymbol.h</text>
</a>
</g>
</g>
<!-- Node22&#45;&gt;Node25 -->
<g id="edge33" class="edge">
<title>Node22&#45;&gt;Node25</title>
<path fill="none" stroke="#191970" d="M626.6875,-229.8906C653.3557,-219.5103 696.0282,-202.9004 725.8911,-191.2766"/>
<polygon fill="#191970" stroke="#191970" points="727.4365,-194.4309 735.4859,-187.5419 724.8973,-187.9076 727.4365,-194.4309"/>
</g>
<!-- Node22&#45;&gt;Node26 -->
<g id="edge35" class="edge">
<title>Node22&#45;&gt;Node26</title>
<path fill="none" stroke="#191970" d="M579.3438,-229.8906C555.0826,-219.6005 516.3882,-203.1888 489.02,-191.5809"/>
<polygon fill="#191970" stroke="#191970" points="490.07,-188.2245 479.4972,-187.5419 487.3367,-194.6688 490.07,-188.2245"/>
</g>
<!-- Node25&#45;&gt;Node23 -->
<g id="edge34" class="edge">
<title>Node25&#45;&gt;Node23</title>
<path fill="none" stroke="#191970" d="M740.8395,-168.2455C723.4889,-159.4125 697.7099,-146.2887 678.0417,-136.2758"/>
<polygon fill="#191970" stroke="#191970" points="679.4405,-133.0605 668.941,-131.6427 676.2647,-139.2986 679.4405,-133.0605"/>
</g>
<!-- Node26&#45;&gt;Node13 -->
<g id="edge37" class="edge">
<title>Node26&#45;&gt;Node13</title>
<path fill="none" stroke="#191970" d="M463.1414,-168.1361C472.863,-153.4127 493.2551,-125.9315 518,-112 550.3686,-93.7763 654.5344,-77.8051 709.4209,-70.3941"/>
<polygon fill="#191970" stroke="#191970" points="709.9349,-73.8567 719.3866,-69.0696 709.0126,-66.9177 709.9349,-73.8567"/>
</g>
<!-- Node26&#45;&gt;Node18 -->
<g id="edge38" class="edge">
<title>Node26&#45;&gt;Node18</title>
<path fill="none" stroke="#191970" d="M447.3657,-168.4509C428.1851,-149.4401 385.0052,-106.6423 360.9662,-82.816"/>
<polygon fill="#191970" stroke="#191970" points="363.1762,-80.0786 353.6099,-75.5249 358.2485,-85.0503 363.1762,-80.0786"/>
</g>
<!-- Node26&#45;&gt;Node23 -->
<g id="edge36" class="edge">
<title>Node26&#45;&gt;Node23</title>
<path fill="none" stroke="#191970" d="M490.1779,-168.3733C525.6877,-158.0699 581.6787,-141.8238 617.0865,-131.55"/>
<polygon fill="#191970" stroke="#191970" points="618.3023,-134.8417 626.9308,-128.6936 616.3516,-128.119 618.3023,-134.8417"/>
</g>
<!-- Node29&#45;&gt;Node4 -->
<g id="edge51" class="edge">
<title>Node29&#45;&gt;Node4</title>
<path fill="none" stroke="#191970" d="M1264.1787,-230.4965C1339.832,-218.5163 1464.6439,-197.7183 1484,-188 1528.4075,-165.704 1529.1663,-145.3529 1566,-112 1576.889,-102.14 1589.1957,-91.2424 1599.1022,-82.53"/>
<polygon fill="#191970" stroke="#191970" points="1601.5679,-85.0229 1606.7754,-75.7962 1596.9506,-79.7615 1601.5679,-85.0229"/>
</g>
<!-- Node29&#45;&gt;Node6 -->
<g id="edge48" class="edge">
<title>Node29&#45;&gt;Node6</title>
<path fill="none" stroke="#191970" d="M1190.9887,-229.9248C1146.034,-201.2497 1012.2339,-115.9029 957.6165,-81.0642"/>
<polygon fill="#191970" stroke="#191970" points="959.2781,-77.9727 948.9649,-75.5457 955.5136,-83.8743 959.2781,-77.9727"/>
</g>
<!-- Node29&#45;&gt;Node14 -->
<g id="edge50" class="edge">
<title>Node29&#45;&gt;Node14</title>
<path fill="none" stroke="#191970" d="M1180.8204,-229.9088C1113.7703,-203.7934 933.8875,-129.7763 903,-76 892.837,-58.3059 909.1789,-38.984 924.7484,-25.8463"/>
<polygon fill="#191970" stroke="#191970" points="927.0002,-28.5278 932.6754,-19.5812 922.6596,-23.036 927.0002,-28.5278"/>
</g>
<!-- Node29&#45;&gt;Node23 -->
<g id="edge49" class="edge">
<title>Node29&#45;&gt;Node23</title>
<path fill="none" stroke="#191970" d="M1168.8638,-229.8908C1112.4867,-215.4685 1001.8259,-187.8071 907,-168 827.0139,-151.2926 732.2367,-135.305 683.1636,-127.3083"/>
<polygon fill="#191970" stroke="#191970" points="683.5548,-123.8261 673.1234,-125.6799 682.4341,-130.7358 683.5548,-123.8261"/>
</g>
<!-- Node30 -->
<g id="node31" class="node">
<title>Node30</title>
<g id="a_node31"><a xlink:href="../../d0/d51/SymbolStatistics_8h.html" target="_top" xlink:title="Structure to depict the distribution of symbols in the source message. ">
<polygon fill="none" stroke="#000000" points="1376.5,-168.5 1376.5,-187.5 1475.5,-187.5 1475.5,-168.5 1376.5,-168.5"/>
<text text-anchor="middle" x="1426" y="-175.5" font-family="Helvetica,sans-Serif" font-size="10.00" fill="#000000">SymbolStatistics.h</text>
</a>
</g>
</g>
<!-- Node29&#45;&gt;Node30 -->
<g id="edge52" class="edge">
<title>Node29&#45;&gt;Node30</title>
<path fill="none" stroke="#191970" d="M1240.375,-229.8906C1278.5573,-219.2169 1340.3016,-201.9566 1381.9884,-190.3033"/>
<polygon fill="#191970" stroke="#191970" points="1383.1779,-193.605 1391.8664,-187.5419 1381.2933,-186.8634 1383.1779,-193.605"/>
</g>
<!-- Node30&#45;&gt;Node4 -->
<g id="edge61" class="edge">
<title>Node30&#45;&gt;Node4</title>
<path fill="none" stroke="#191970" d="M1427.0857,-168.403C1429.228,-154.0281 1435.3415,-126.996 1452,-112 1467.9647,-97.6286 1518.2843,-84.9012 1559.375,-76.4983"/>
<polygon fill="#191970" stroke="#191970" points="1560.2063,-79.9014 1569.3264,-74.5094 1558.8344,-73.0372 1560.2063,-79.9014"/>
</g>
<!-- Node30&#45;&gt;Node6 -->
<g id="edge57" class="edge">
<title>Node30&#45;&gt;Node6</title>
<path fill="none" stroke="#191970" d="M1397.4881,-168.3804C1349.0903,-152.1484 1252.7346,-120.2766 1218,-112 1127.9967,-90.554 1019.5477,-76.0595 966.4708,-69.6851"/>
<polygon fill="#191970" stroke="#191970" points="966.6554,-66.1826 956.3134,-68.4837 965.8331,-73.1342 966.6554,-66.1826"/>
</g>
<!-- Node30&#45;&gt;Node9 -->
<g id="edge60" class="edge">
<title>Node30&#45;&gt;Node9</title>
<path fill="none" stroke="#191970" d="M1472.9692,-168.4594C1536.9431,-155.4983 1655.0715,-131.6848 1756,-112 1826.3905,-98.2713 1908.4041,-82.7901 1956.6083,-73.7434"/>
<polygon fill="#191970" stroke="#191970" points="1957.4718,-77.1425 1966.6552,-71.8591 1956.1814,-70.2625 1957.4718,-77.1425"/>
</g>
<!-- Node30&#45;&gt;Node11 -->
<g id="edge63" class="edge">
<title>Node30&#45;&gt;Node11</title>
<path fill="none" stroke="#191970" d="M1380.9167,-168.4369C1335.5454,-158.8127 1265.5114,-143.957 1216.9234,-133.6504"/>
<polygon fill="#191970" stroke="#191970" points="1217.4059,-130.175 1206.8973,-131.5237 1215.9534,-137.0226 1217.4059,-130.175"/>
</g>
<!-- Node30&#45;&gt;Node12 -->
<g id="edge53" class="edge">
<title>Node30&#45;&gt;Node12</title>
<path fill="none" stroke="#191970" d="M1376.3972,-172.8168C1272.5914,-161.9021 1040.6347,-137.1312 1024,-132 1005.7627,-126.3744 1004.3222,-117.3428 986,-112 889.1097,-83.7466 580.387,-70.9276 471.4828,-67.2043"/>
<polygon fill="#191970" stroke="#191970" points="471.395,-63.6995 461.2833,-66.8624 471.1604,-70.6955 471.395,-63.6995"/>
</g>
<!-- Node30&#45;&gt;Node13 -->
<g id="edge54" class="edge">
<title>Node30&#45;&gt;Node13</title>
<path fill="none" stroke="#191970" d="M1376.251,-172.4317C1312.9339,-164.9877 1200.3266,-150.551 1105,-132 1068.6017,-124.9167 1060.3238,-119.456 1024,-112 936.2332,-93.9847 831.8475,-78.3494 778.7558,-70.8053"/>
<polygon fill="#191970" stroke="#191970" points="779.2326,-67.338 768.8416,-69.4061 778.2543,-74.2693 779.2326,-67.338"/>
</g>
<!-- Node30&#45;&gt;Node14 -->
<g id="edge58" class="edge">
<title>Node30&#45;&gt;Node14</title>
<path fill="none" stroke="#191970" d="M1420.7195,-168.2115C1407.1699,-144.1956 1368.5786,-82.3986 1317,-56 1258.2517,-25.9318 1058.3474,-14.579 979.4268,-11.2038"/>
<polygon fill="#191970" stroke="#191970" points="979.2566,-7.6939 969.121,-10.7794 978.9685,-14.688 979.2566,-7.6939"/>
</g>
<!-- Node30&#45;&gt;Node15 -->
<g id="edge55" class="edge">
<title>Node30&#45;&gt;Node15</title>
<path fill="none" stroke="#191970" d="M1432.1095,-168.3974C1442.1693,-153.4981 1463.7455,-125.1599 1490,-112 1545.3846,-84.2388 1729.4757,-71.8525 1808.9452,-67.7045"/>
<polygon fill="#191970" stroke="#191970" points="1809.1855,-71.1969 1818.9954,-67.1949 1808.831,-64.2058 1809.1855,-71.1969"/>
</g>
<!-- Node30&#45;&gt;Node16 -->
<g id="edge59" class="edge">
<title>Node30&#45;&gt;Node16</title>
<path fill="none" stroke="#191970" d="M1405.7935,-168.4509C1363.8161,-148.6135 1267.0319,-102.8758 1218.2428,-79.8194"/>
<polygon fill="#191970" stroke="#191970" points="1219.6921,-76.6332 1209.1553,-75.5249 1216.7012,-82.9621 1219.6921,-76.6332"/>
</g>
<!-- Node30&#45;&gt;Node17 -->
<g id="edge56" class="edge">
<title>Node30&#45;&gt;Node17</title>
<path fill="none" stroke="#191970" d="M1413.8079,-168.4509C1389.2185,-149.1921 1333.4609,-105.5218 1303.2926,-81.8935"/>
<polygon fill="#191970" stroke="#191970" points="1305.1921,-78.9355 1295.1612,-75.5249 1300.8759,-84.4464 1305.1921,-78.9355"/>
</g>
<!-- Node30&#45;&gt;Node18 -->
<g id="edge62" class="edge">
<title>Node30&#45;&gt;Node18</title>
<path fill="none" stroke="#191970" d="M1376.3052,-173.0017C1269.3432,-162.2148 1023.89,-137.2978 986,-132 935.0551,-124.8769 923.0418,-118.3918 872,-112 664.7738,-86.0496 608.0561,-103.5136 397.2253,-76.0196"/>
<polygon fill="#191970" stroke="#191970" points="397.4407,-72.5177 387.0681,-74.676 396.5227,-79.4572 397.4407,-72.5177"/>
</g>
<!-- Node31&#45;&gt;Node4 -->
<g id="edge79" class="edge">
<title>Node31&#45;&gt;Node4</title>
<path fill="none" stroke="#191970" d="M1621.2459,-292.9267C1640.4011,-286.1874 1663.4048,-274.4594 1675,-255 1708.9801,-197.9739 1658.9111,-119.0466 1632.5253,-84.0042"/>
<polygon fill="#191970" stroke="#191970" points="1634.9881,-81.4683 1626.0959,-75.7081 1629.4551,-85.7563 1634.9881,-81.4683"/>
</g>
<!-- Node31&#45;&gt;Node9 -->
<g id="edge76" class="edge">
<title>Node31&#45;&gt;Node9</title>
<path fill="none" stroke="#191970" d="M1621.2565,-292.5258C1649.3109,-284.432 1691.2929,-271.1013 1726,-255 1822.0404,-210.4452 1846.137,-196.621 1930,-132 1949.3909,-117.0582 1969.2133,-97.1886 1982.4146,-83.1676"/>
<polygon fill="#191970" stroke="#191970" points="1985.1349,-85.3815 1989.3689,-75.6695 1980.0025,-80.6214 1985.1349,-85.3815"/>
</g>
<!-- Node31&#45;&gt;Node11 -->
<g id="edge80" class="edge">
<title>Node31&#45;&gt;Node11</title>
<path fill="none" stroke="#191970" d="M1562.9668,-291.3597C1537.9383,-282.3235 1499.7572,-268.2565 1467,-255 1365.4227,-213.8927 1246.9158,-160.6798 1192.3413,-135.8722"/>
<polygon fill="#191970" stroke="#191970" points="1193.4649,-132.5382 1182.9135,-131.58 1190.5644,-138.909 1193.4649,-132.5382"/>
</g>
<!-- Node31&#45;&gt;Node15 -->
<g id="edge77" class="edge">
<title>Node31&#45;&gt;Node15</title>
<path fill="none" stroke="#191970" d="M1621.055,-291.8378C1643.1503,-284.3085 1672.7426,-272.0896 1695,-255 1760.1342,-204.989 1813.8592,-121.118 1835.6067,-84.2845"/>
<polygon fill="#191970" stroke="#191970" points="1838.6582,-85.9993 1840.6561,-75.5945 1832.6058,-82.4824 1838.6582,-85.9993"/>
</g>
<!-- Node31&#45;&gt;Node19 -->
<g id="edge75" class="edge">
<title>Node31&#45;&gt;Node19</title>
<path fill="none" stroke="#191970" d="M1621.1756,-296.0572C1658.1633,-289.533 1721.212,-276.3125 1772,-255 1927.2494,-189.8515 2092.1424,-68.9577 2148.6477,-25.8101"/>
<polygon fill="#191970" stroke="#191970" points="2150.9691,-28.4403 2156.7677,-19.5731 2146.7051,-22.8889 2150.9691,-28.4403"/>
</g>
<!-- Node31&#45;&gt;Node25 -->
<g id="edge81" class="edge">
<title>Node31&#45;&gt;Node25</title>
<path fill="none" stroke="#191970" d="M1558.923,-298.317C1534.4872,-296.235 1499.5813,-293.3222 1469,-291 1353.5004,-282.2296 1057.933,-294.3787 949,-255 926.8435,-246.9905 927.059,-234.5632 906,-224 876.3573,-209.1311 840.9226,-197.828 812.3858,-190.1473"/>
<polygon fill="#191970" stroke="#191970" points="813.1612,-186.7323 802.6005,-187.5817 811.3859,-193.5035 813.1612,-186.7323"/>
</g>
<!-- Node31&#45;&gt;Node27 -->
<g id="edge78" class="edge">
<title>Node31&#45;&gt;Node27</title>
<path fill="none" stroke="#191970" d="M1558.7568,-298.8851C1462.7863,-292.385 1163.7636,-272.1042 916,-255 850.6597,-250.4893 774.5076,-245.1557 730.5148,-242.067"/>
<polygon fill="#191970" stroke="#191970" points="730.5336,-238.5598 720.3129,-241.3505 730.0431,-245.5426 730.5336,-238.5598"/>
</g>
<!-- Node31&#45;&gt;Node29 -->
<g id="edge88" class="edge">
<title>Node31&#45;&gt;Node29</title>
<path fill="none" stroke="#191970" d="M1558.5846,-293.7334C1554.0369,-292.7647 1549.4055,-291.8231 1545,-291 1451.6312,-273.5544 1342.9588,-257.8492 1274.3309,-248.4921"/>
<polygon fill="#191970" stroke="#191970" points="1274.4659,-244.9784 1264.086,-247.1019 1273.5246,-251.9149 1274.4659,-244.9784"/>
</g>
<!-- Node31&#45;&gt;Node30 -->
<g id="edge89" class="edge">
<title>Node31&#45;&gt;Node30</title>
<path fill="none" stroke="#191970" d="M1568.4193,-291.3745C1550.6287,-282.9684 1525.138,-269.8163 1505,-255 1480.828,-237.2158 1456.6506,-212.356 1441.5297,-195.7443"/>
<polygon fill="#191970" stroke="#191970" points="1443.7747,-193.0048 1434.496,-187.8904 1438.5602,-197.6748 1443.7747,-193.0048"/>
</g>
<!-- Node32 -->
<g id="node33" class="node">
<title>Node32</title>
<g id="a_node33"><a xlink:href="../../d6/dfb/Utilities_2rANS_2include_2rANS_2internal_2Decoder_8h.html" target="_top" xlink:title="internal/Decoder.h">
<polygon fill="none" stroke="#000000" points="958,-230 958,-249 1054,-249 1054,-230 958,-230"/>
<text text-anchor="middle" x="1006" y="-237" font-family="Helvetica,sans-Serif" font-size="10.00" fill="#000000">internal/Decoder.h</text>
</a>
</g>
</g>
<!-- Node31&#45;&gt;Node32 -->
<g id="edge66" class="edge">
<title>Node31&#45;&gt;Node32</title>
<path fill="none" stroke="#191970" d="M1558.882,-297.0835C1543.3115,-295.1665 1524.1696,-292.8739 1507,-291 1343.6338,-273.1702 1302.4005,-272.5124 1139,-255 1114.5364,-252.3781 1087.5679,-249.2749 1064.3471,-246.5364"/>
<polygon fill="#191970" stroke="#191970" points="1064.647,-243.0475 1054.3048,-245.3473 1063.8238,-249.999 1064.647,-243.0475"/>
</g>
<!-- Node33 -->
<g id="node34" class="node">
<title>Node33</title>
<g id="a_node34"><a xlink:href="../../dc/d3b/ReverseSymbolLookupTable_8h.html" target="_top" xlink:title="Maps CDF back to source symbol &#45; needed for the decoder. ">
<polygon fill="none" stroke="#000000" points="1514,-224.5 1514,-254.5 1666,-254.5 1666,-224.5 1514,-224.5"/>
<text text-anchor="start" x="1522" y="-242.5" font-family="Helvetica,sans-Serif" font-size="10.00" fill="#000000">internal/ReverseSymbolLookup</text>
<text text-anchor="middle" x="1590" y="-231.5" font-family="Helvetica,sans-Serif" font-size="10.00" fill="#000000">Table.h</text>
</a>
</g>
</g>
<!-- Node31&#45;&gt;Node33 -->
<g id="edge82" class="edge">
<title>Node31&#45;&gt;Node33</title>
<path fill="none" stroke="#191970" d="M1590,-291.3906C1590,-284.2234 1590,-274.0862 1590,-264.671"/>
<polygon fill="#191970" stroke="#191970" points="1593.5001,-264.5446 1590,-254.5446 1586.5001,-264.5446 1593.5001,-264.5446"/>
</g>
<!-- Node32&#45;&gt;Node6 -->
<g id="edge67" class="edge">
<title>Node32&#45;&gt;Node6</title>
<path fill="none" stroke="#191970" d="M1012.1513,-229.7522C1020.5768,-215.0271 1033.2374,-186.8345 1020,-168 992.8383,-129.3535 947.1617,-170.6465 920,-132 910.2591,-118.1404 915.9925,-98.876 922.8249,-84.7371"/>
<polygon fill="#191970" stroke="#191970" points="925.9232,-86.3654 927.554,-75.8968 919.7508,-83.0635 925.9232,-86.3654"/>
</g>
<!-- Node32&#45;&gt;Node9 -->
<g id="edge71" class="edge">
<title>Node32&#45;&gt;Node9</title>
<path fill="none" stroke="#191970" d="M1054.2909,-233.5201C1079.5138,-230.4859 1110.8996,-226.8498 1139,-224 1324.0734,-205.2311 1372.4576,-218.2761 1556,-188 1658.9538,-171.0173 1683.4353,-159.8322 1784,-132 1845.7481,-114.9106 1916.6736,-92.4747 1959.3756,-78.6565"/>
<polygon fill="#191970" stroke="#191970" points="1960.6509,-81.9224 1969.0822,-75.5065 1958.4901,-75.2642 1960.6509,-81.9224"/>
</g>
<!-- Node32&#45;&gt;Node13 -->
<g id="edge69" class="edge">
<title>Node32&#45;&gt;Node13</title>
<path fill="none" stroke="#191970" d="M1005.6544,-229.5027C1004.548,-213.9174 1000.0436,-183.9651 982,-168 922.2044,-115.0926 875.7127,-170.9212 806,-132 785.3113,-120.4493 767.4929,-99.6225 756.3361,-84.4458"/>
<polygon fill="#191970" stroke="#191970" points="758.9062,-82.0169 750.2842,-75.8597 753.1847,-86.0498 758.9062,-82.0169"/>
</g>
<!-- Node32&#45;&gt;Node18 -->
<g id="edge74" class="edge">
<title>Node32&#45;&gt;Node18</title>
<path fill="none" stroke="#191970" d="M995.588,-229.8632C978.4337,-214.5022 942.5745,-184.5184 907,-168 883.6334,-157.1501 707.3251,-116.7282 682,-112 559.2596,-89.0845 524.2889,-95.7407 397.2147,-76.0994"/>
<polygon fill="#191970" stroke="#191970" points="397.5143,-72.6036 387.0924,-74.5098 396.4283,-79.5189 397.5143,-72.6036"/>
</g>
<!-- Node32&#45;&gt;Node23 -->
<g id="edge68" class="edge">
<title>Node32&#45;&gt;Node23</title>
<path fill="none" stroke="#191970" d="M989.6598,-229.9231C959.6553,-212.4721 896.6856,-176.5066 873,-168 795.8073,-140.2764 772.1311,-149.5018 692,-132 689.0205,-131.3492 685.9272,-130.6527 682.8314,-129.9414"/>
<polygon fill="#191970" stroke="#191970" points="683.6059,-126.5282 673.0714,-127.6571 682.0106,-133.344 683.6059,-126.5282"/>
</g>
<!-- Node32&#45;&gt;Node24 -->
<g id="edge70" class="edge">
<title>Node32&#45;&gt;Node24</title>
<path fill="none" stroke="#191970" d="M980.8438,-229.8906C951.9211,-218.8425 904.5247,-200.7377 874.0539,-189.0982"/>
<polygon fill="#191970" stroke="#191970" points="875.011,-185.7172 864.4204,-185.4183 872.5131,-192.2564 875.011,-185.7172"/>
</g>
<!-- Node32&#45;&gt;Node25 -->
<g id="edge72" class="edge">
<title>Node32&#45;&gt;Node25</title>
<path fill="none" stroke="#191970" d="M967.8324,-229.9581C924.833,-219.2082 854.8649,-201.7162 808.1458,-190.0365"/>
<polygon fill="#191970" stroke="#191970" points="808.8075,-186.5942 798.2571,-187.5643 807.1097,-193.3852 808.8075,-186.5942"/>
</g>
<!-- Node32&#45;&gt;Node26 -->
<g id="edge73" class="edge">
<title>Node32&#45;&gt;Node26</title>
<path fill="none" stroke="#191970" d="M957.7611,-234.0962C856.6242,-222.7666 622.7888,-196.572 514.2567,-184.414"/>
<polygon fill="#191970" stroke="#191970" points="514.4809,-180.9173 504.1534,-183.2822 513.7016,-187.8738 514.4809,-180.9173"/>
</g>
<!-- Node33&#45;&gt;Node4 -->
<g id="edge85" class="edge">
<title>Node33&#45;&gt;Node4</title>
<path fill="none" stroke="#191970" d="M1607.2847,-224.1841C1616.5463,-214.7871 1627.0463,-201.9121 1632,-188 1644.3968,-153.1843 1633.5856,-109.5796 1625.3124,-85.0523"/>
<polygon fill="#191970" stroke="#191970" points="1628.5597,-83.7388 1621.8897,-75.5071 1621.9705,-86.1016 1628.5597,-83.7388"/>
</g>
<!-- Node33&#45;&gt;Node6 -->
<g id="edge83" class="edge">
<title>Node33&#45;&gt;Node6</title>
<path fill="none" stroke="#191970" d="M1513.8025,-225.9983C1470.1934,-217.2605 1414.8147,-204.4396 1367,-188 1347.068,-181.147 1344.1411,-174.2114 1324,-168 1229.7409,-138.9311 1200.1799,-157.8953 1105,-132 1054.1362,-118.1616 997.5003,-94.5982 963.8585,-79.6892"/>
<polygon fill="#191970" stroke="#191970" points="965.1532,-76.4342 954.5957,-75.5448 962.2942,-82.8238 965.1532,-76.4342"/>
</g>
<!-- Node33&#45;&gt;Node9 -->
<g id="edge84" class="edge">
<title>Node33&#45;&gt;Node9</title>
<path fill="none" stroke="#191970" d="M1647.1869,-224.4727C1710.4487,-206.7364 1814.4809,-174.234 1898,-132 1926.9757,-117.3475 1957.7945,-96.0257 1977.436,-81.6153"/>
<polygon fill="#191970" stroke="#191970" points="1979.6876,-84.3027 1985.6272,-75.5294 1975.5129,-78.6839 1979.6876,-84.3027"/>
</g>
<!-- Node33&#45;&gt;Node18 -->
<g id="edge86" class="edge">
<title>Node33&#45;&gt;Node18</title>
<path fill="none" stroke="#191970" d="M1513.747,-228.1282C1382.5963,-208.5592 1105.849,-167.2219 872,-132 813.3256,-123.1626 798.856,-119.5344 740,-112 590.7964,-92.8999 549.8106,-98.2875 397.2914,-76.0828"/>
<polygon fill="#191970" stroke="#191970" points="397.4848,-72.5736 387.0816,-74.5797 396.4652,-79.499 397.4848,-72.5736"/>
</g>
<!-- Node33&#45;&gt;Node30 -->
<g id="edge87" class="edge">
<title>Node33&#45;&gt;Node30</title>
<path fill="none" stroke="#191970" d="M1549.8811,-224.4554C1522.6373,-214.239 1486.9623,-200.8609 1460.8962,-191.0861"/>
<polygon fill="#191970" stroke="#191970" points="1462.0064,-187.7645 1451.4142,-187.5303 1459.5485,-194.3188 1462.0064,-187.7645"/>
</g>
<!-- Node34&#45;&gt;Node1 -->
<g id="edge99" class="edge">
<title>Node34&#45;&gt;Node1</title>
<path fill="none" stroke="#191970" d="M578.3557,-354.0685C499.7952,-348.3792 340.3856,-334.3101 290,-311 263.0784,-298.5452 238.6947,-273.9194 224.1085,-257.0835"/>
<polygon fill="#191970" stroke="#191970" points="226.5187,-254.5105 217.4123,-249.0952 221.1541,-259.0073 226.5187,-254.5105"/>
</g>
<!-- Node34&#45;&gt;Node4 -->
<g id="edge98" class="edge">
<title>Node34&#45;&gt;Node4</title>
<path fill="none" stroke="#191970" d="M667.6249,-352.5922C781.2367,-340.9591 1090.3762,-306.727 1344,-255 1372.178,-249.2531 1574.3639,-209.0106 1594,-188 1620.0518,-160.1246 1621.5704,-112.5846 1620.0139,-85.8221"/>
<polygon fill="#191970" stroke="#191970" points="1623.4946,-85.4372 1619.2212,-75.7425 1616.5161,-85.9861 1623.4946,-85.4372"/>
</g>
<!-- Node34&#45;&gt;Node12 -->
<g id="edge93" class="edge">
<title>Node34&#45;&gt;Node12</title>
<path fill="none" stroke="#191970" d="M578.3655,-351.6736C521.4134,-344.2423 426.7141,-329.5623 397,-311 370.3864,-294.3746 364.0917,-284.7128 354,-255 331.9638,-190.119 387.8466,-115.8422 416.8432,-83.0641"/>
<polygon fill="#191970" stroke="#191970" points="419.4394,-85.4113 423.5721,-75.6557 414.2578,-80.7049 419.4394,-85.4113"/>
</g>
<!-- Node34&#45;&gt;Node18 -->
<g id="edge101" class="edge">
<title>Node34&#45;&gt;Node18</title>
<path fill="none" stroke="#191970" d="M578.4905,-354.0364C514.4492,-348.94 400.533,-336.506 369,-311 301.1521,-256.1201 325.5996,-133.0162 338.3004,-85.3585"/>
<polygon fill="#191970" stroke="#191970" points="341.6893,-86.2356 341.0054,-75.6628 334.9468,-84.3544 341.6893,-86.2356"/>
</g>
<!-- Node34&#45;&gt;Node21 -->
<g id="edge91" class="edge">
<title>Node34&#45;&gt;Node21</title>
<path fill="none" stroke="#191970" d="M606.1039,-347.2455C591.082,-338.5731 568.8957,-325.7645 551.679,-315.825"/>
<polygon fill="#191970" stroke="#191970" points="553.1128,-312.6114 542.7025,-310.6427 549.6129,-318.6737 553.1128,-312.6114"/>
</g>
<!-- Node34&#45;&gt;Node23 -->
<g id="edge96" class="edge">
<title>Node34&#45;&gt;Node23</title>
<path fill="none" stroke="#191970" d="M639.4781,-347.3388C664.3973,-331.6485 710.7004,-298.0051 729,-255 734.3947,-242.3223 735.7436,-236.0146 729,-224 713.9648,-197.2129 688.7994,-212.2938 670,-188 659.7085,-174.7007 654.6895,-156.1278 652.2554,-142.0713"/>
<polygon fill="#191970" stroke="#191970" points="655.6888,-141.3562 650.8062,-131.9535 648.7596,-142.3487 655.6888,-141.3562"/>
</g>
<!-- Node34&#45;&gt;Node26 -->
<g id="edge100" class="edge">
<title>Node34&#45;&gt;Node26</title>
<path fill="none" stroke="#191970" d="M578.4137,-348.5153C543.641,-341.0387 494.5992,-328.5831 454,-311 410.4223,-292.1269 386.1653,-296.4558 363,-255 356.2792,-242.9726 355.7066,-235.689 363,-224 372.5675,-208.6664 388.893,-198.3037 405.2798,-191.3641"/>
<polygon fill="#191970" stroke="#191970" points="406.8125,-194.5243 414.8846,-187.6619 404.2949,-187.9927 406.8125,-194.5243"/>
</g>
<!-- Node34&#45;&gt;Node27 -->
<g id="edge92" class="edge">
<title>Node34&#45;&gt;Node27</title>
<path fill="none" stroke="#191970" d="M667.7839,-349.0867C706.6541,-341.1987 758.5953,-327.8456 771,-311 787.8615,-288.1021 755.6404,-266.5799 727.858,-253.2477"/>
<polygon fill="#191970" stroke="#191970" points="729.2333,-250.028 718.6837,-249.0502 726.3209,-256.3934 729.2333,-250.028"/>
</g>
<!-- Node34&#45;&gt;Node28 -->
<g id="edge94" class="edge">
<title>Node34&#45;&gt;Node28</title>
<path fill="none" stroke="#191970" d="M582.4828,-347.4417C554.3593,-339.8547 516.5992,-327.731 486,-311 458.5017,-295.9646 431.0179,-272.2242 414.0219,-256.269"/>
<polygon fill="#191970" stroke="#191970" points="416.2113,-253.5198 406.5668,-249.1341 411.3713,-258.5769 416.2113,-253.5198"/>
</g>
<!-- Node34&#45;&gt;Node29 -->
<g id="edge102" class="edge">
<title>Node34&#45;&gt;Node29</title>
<path fill="none" stroke="#191970" d="M667.8172,-348.289C756.7777,-330.9461 961.9338,-290.6919 1134,-255 1139.855,-253.7855 1145.9736,-252.4975 1152.064,-251.2033"/>
<polygon fill="#191970" stroke="#191970" points="1153.1871,-254.5425 1162.2358,-249.0314 1151.7253,-247.6968 1153.1871,-254.5425"/>
</g>
<!-- Node35 -->
<g id="node36" class="node">
<title>Node35</title>
<polygon fill="none" stroke="#bfbfbf" points="727.5,-291.5 727.5,-310.5 762.5,-310.5 762.5,-291.5 727.5,-291.5"/>
<text text-anchor="middle" x="745" y="-298.5" font-family="Helvetica,sans-Serif" font-size="10.00" fill="#000000">map</text>
</g>
<!-- Node34&#45;&gt;Node35 -->
<g id="edge95" class="edge">
<title>Node34&#45;&gt;Node35</title>
<path fill="none" stroke="#191970" d="M643.9725,-347.3733C664.5063,-337.9479 695.874,-323.5496 718.2049,-313.2994"/>
<polygon fill="#191970" stroke="#191970" points="719.8323,-316.4035 727.4605,-309.0509 716.9121,-310.0417 719.8323,-316.4035"/>
</g>
<!-- Node36 -->
<g id="node37" class="node">
<title>Node36</title>
<polygon fill="none" stroke="#bfbfbf" points="1385.5,-291.5 1385.5,-310.5 1426.5,-310.5 1426.5,-291.5 1385.5,-291.5"/>
<text text-anchor="middle" x="1406" y="-298.5" font-family="Helvetica,sans-Serif" font-size="10.00" fill="#000000">string</text>
</g>
<!-- Node34&#45;&gt;Node36 -->
<g id="edge97" class="edge">
<title>Node34&#45;&gt;Node36</title>
<path fill="none" stroke="#191970" d="M667.6623,-355.5251C807.2988,-350.7135 1234.4308,-334.4233 1371,-311 1372.4793,-310.7463 1373.9853,-310.4536 1375.5005,-310.1313"/>
<polygon fill="#191970" stroke="#191970" points="1376.5747,-313.4712 1385.4435,-307.6751 1374.8959,-306.6755 1376.5747,-313.4712"/>
</g>
<!-- Node37&#45;&gt;Node4 -->
<g id="edge109" class="edge">
<title>Node37&#45;&gt;Node4</title>
<path fill="none" stroke="#191970" d="M1635.1439,-347.5683C1681.7352,-335.1591 1751.9905,-308.3491 1784,-255 1817.8339,-198.6102 1797.959,-152.3089 1746,-112 1725.5117,-96.1055 1699.0482,-85.383 1675.5056,-78.3199"/>
<polygon fill="#191970" stroke="#191970" points="1676.1965,-74.8778 1665.6207,-75.5125 1674.284,-81.6115 1676.1965,-74.8778"/>
</g>
<!-- Node37&#45;&gt;Node9 -->
<g id="edge106" class="edge">
<title>Node37&#45;&gt;Node9</title>
<path fill="none" stroke="#191970" d="M1635.0211,-348.2659C1638.0539,-347.8001 1641.0678,-347.3718 1644,-347 1701.4561,-339.7152 2118.1771,-346.4193 2164,-311 2190.521,-290.5003 2188,-273.0202 2188,-239.5 2188,-239.5 2188,-239.5 2188,-178 2188,-146.7875 2186.9191,-133.1882 2164,-112 2145.8559,-95.2262 2081.9658,-80.9401 2038.9497,-72.9196"/>
<polygon fill="#191970" stroke="#191970" points="2039.5064,-69.4634 2029.0409,-71.1133 2038.2511,-76.35 2039.5064,-69.4634"/>
</g>
<!-- Node37&#45;&gt;Node15 -->
<g id="edge107" class="edge">
<title>Node37&#45;&gt;Node15</title>
<path fill="none" stroke="#191970" d="M1630.2145,-347.4325C1716.6064,-326.5565 1913.9121,-277.0288 1936,-255 1982.5625,-208.5621 2011.8285,-165.7917 1974,-112 1963.2595,-96.7271 1916.9439,-82.7699 1883.104,-74.331"/>
<polygon fill="#191970" stroke="#191970" points="1883.5989,-70.8497 1873.0556,-71.8939 1881.9488,-77.6524 1883.5989,-70.8497"/>
</g>
<!-- Node37&#45;&gt;Node19 -->
<g id="edge105" class="edge">
<title>Node37&#45;&gt;Node19</title>
<path fill="none" stroke="#191970" d="M1635.0199,-348.256C1638.053,-347.7926 1641.0673,-347.3675 1644,-347 1763.9932,-331.9641 2078.748,-364.9068 2187,-311 2256.9506,-276.1663 2302,-256.1439 2302,-178 2302,-178 2302,-178 2302,-122 2302,-70.3781 2242.6523,-37.746 2203.2454,-21.7682"/>
<polygon fill="#191970" stroke="#191970" points="2204.2934,-18.4206 2193.7046,-18.0635 2201.7596,-24.946 2204.2934,-18.4206"/>
</g>
<!-- Node37&#45;&gt;Node25 -->
<g id="edge110" class="edge">
<title>Node37&#45;&gt;Node25</title>
<path fill="none" stroke="#191970" d="M1560.5755,-347.3742C1535.7097,-338.8729 1499.3911,-325.5873 1469,-311 1453.1947,-303.4137 1451.7495,-296.1782 1435,-291 1209.8589,-221.3961 1126.7415,-337.5011 906,-255 884.6011,-247.0023 884.7088,-235.5517 865,-224 842.9146,-211.0553 816.5145,-199.5056 795.7114,-191.2171"/>
<polygon fill="#191970" stroke="#191970" points="796.876,-187.9145 786.2881,-187.532 794.3265,-194.4337 796.876,-187.9145"/>
</g>
<!-- Node37&#45;&gt;Node29 -->
<g id="edge112" class="edge">
<title>Node37&#45;&gt;Node29</title>
<path fill="none" stroke="#191970" d="M1580.8707,-347.0735C1566.6333,-332.2683 1537.5858,-304.6817 1507,-291 1466.4988,-272.8829 1350.2875,-256.4412 1274.6808,-247.2288"/>
<polygon fill="#191970" stroke="#191970" points="1274.6408,-243.6988 1264.2939,-245.9775 1273.8035,-250.6485 1274.6408,-243.6988"/>
</g>
<!-- Node37&#45;&gt;Node31 -->
<g id="edge104" class="edge">
<title>Node37&#45;&gt;Node31</title>
<path fill="none" stroke="#191970" d="M1590,-347.2455C1590,-339.9382 1590,-329.6944 1590,-320.7046"/>
<polygon fill="#191970" stroke="#191970" points="1593.5001,-320.6426 1590,-310.6427 1586.5001,-320.6427 1593.5001,-320.6426"/>
</g>
<!-- Node37&#45;&gt;Node32 -->
<g id="edge113" class="edge">
<title>Node37&#45;&gt;Node32</title>
<path fill="none" stroke="#191970" d="M1572.6332,-347.4143C1539.8288,-329.3231 1471.7683,-291.8685 1469,-291 1328.2284,-246.8359 1285.6068,-271.5394 1139,-255 1114.4508,-252.2305 1087.3635,-249.0892 1064.0761,-246.3621"/>
<polygon fill="#191970" stroke="#191970" points="1064.3475,-242.8701 1054.0078,-245.1812 1063.532,-249.8224 1064.3475,-242.8701"/>
</g>
<!-- Node37&#45;&gt;Node33 -->
<g id="edge111" class="edge">
<title>Node37&#45;&gt;Node33</title>
<path fill="none" stroke="#191970" d="M1617.6959,-347.4275C1634.0463,-340.1781 1653.3739,-328.4435 1663,-311 1674.1492,-290.7963 1655.1208,-272.6642 1633.7038,-259.7147"/>
<polygon fill="#191970" stroke="#191970" points="1635.2144,-256.5479 1624.7881,-254.6655 1631.7648,-262.639 1635.2144,-256.5479"/>
</g>
<!-- Node37&#45;&gt;Node36 -->
<g id="edge108" class="edge">
<title>Node37&#45;&gt;Node36</title>
<path fill="none" stroke="#191970" d="M1558.3693,-347.3733C1524.1951,-336.9724 1470.1235,-320.5159 1436.4259,-310.2601"/>
<polygon fill="#191970" stroke="#191970" points="1437.2525,-306.8532 1426.6667,-307.2899 1435.2143,-313.5499 1437.2525,-306.8532"/>
</g>
<!-- Node38&#45;&gt;Node1 -->
<g id="edge120" class="edge">
<title>Node38&#45;&gt;Node1</title>
<path fill="none" stroke="#191970" d="M316.3944,-348.9184C278.1538,-340.8678 226.7212,-327.3664 214,-311 202.7645,-296.545 203.1314,-275.0615 205.4703,-259.4184"/>
<polygon fill="#191970" stroke="#191970" points="208.9751,-259.7188 207.3842,-249.2441 202.0958,-258.4246 208.9751,-259.7188"/>
</g>
<!-- Node38&#45;&gt;Node4 -->
<g id="edge119" class="edge">
<title>Node38&#45;&gt;Node4</title>
<path fill="none" stroke="#191970" d="M403.5533,-352.4128C461.6445,-345.7997 567.4515,-332.0235 656,-311 684.1707,-304.3116 689.5586,-296.4229 718,-291 960.8108,-244.7034 1032.7957,-313.3297 1273,-255 1306.4599,-246.8748 1311.2109,-234.5096 1344,-224 1417.5456,-200.427 1446.8073,-226.076 1514,-188 1557.9946,-163.0697 1591.9264,-112.0751 1607.9188,-84.5702"/>
<polygon fill="#191970" stroke="#191970" points="1611.1191,-86.0206 1612.9846,-75.5913 1605.0224,-82.581 1611.1191,-86.0206"/>
</g>
<!-- Node38&#45;&gt;Node12 -->
<g id="edge117" class="edge">
<title>Node38&#45;&gt;Node12</title>
<path fill="none" stroke="#191970" d="M316.4209,-350.7944C269.0598,-343.2468 197.399,-329.2241 177,-311 147.3364,-284.4992 136.0214,-258.3959 156,-224 183.4974,-176.6594 333.8324,-108.1647 400.7965,-79.4558"/>
<polygon fill="#191970" stroke="#191970" points="402.2181,-82.6546 410.047,-75.516 399.4752,-76.2144 402.2181,-82.6546"/>
</g>
<!-- Node38&#45;&gt;Node18 -->
<g id="edge122" class="edge">
<title>Node38&#45;&gt;Node18</title>
<path fill="none" stroke="#191970" d="M316.3849,-354.5893C250.985,-350.1172 131.7802,-338.373 100,-311 74.6021,-289.1242 76,-273.0202 76,-239.5 76,-239.5 76,-239.5 76,-178 76,-131.9111 212.6387,-94.5377 290.7865,-76.9316"/>
<polygon fill="#191970" stroke="#191970" points="291.9356,-80.2619 300.9412,-74.6807 290.4207,-73.4278 291.9356,-80.2619"/>
</g>
<!-- Node38&#45;&gt;Node21 -->
<g id="edge115" class="edge">
<title>Node38&#45;&gt;Node21</title>
<path fill="none" stroke="#191970" d="M388.5364,-347.3733C416.0202,-338.1016 457.7686,-324.0178 488.0452,-313.804"/>
<polygon fill="#191970" stroke="#191970" points="489.4794,-317.0141 497.836,-310.5011 487.2418,-310.3813 489.4794,-317.0141"/>
</g>
<!-- Node38&#45;&gt;Node26 -->
<g id="edge121" class="edge">
<title>Node38&#45;&gt;Node26</title>
<path fill="none" stroke="#191970" d="M316.3032,-353.3435C282.0339,-348.4951 234.8068,-337.2197 202,-311 169.9346,-285.3729 144.3788,-255.245 171,-224 185.6316,-206.827 320.272,-191.1276 399.4918,-183.2736"/>
<polygon fill="#191970" stroke="#191970" points="400.1996,-186.7211 409.8112,-182.2637 399.5178,-179.7544 400.1996,-186.7211"/>
</g>
<!-- Node38&#45;&gt;Node27 -->
<g id="edge116" class="edge">
<title>Node38&#45;&gt;Node27</title>
<path fill="none" stroke="#191970" d="M403.8444,-350.8803C446.0837,-344.1266 511.3036,-331.4215 565,-311 585.8221,-303.081 637.9339,-272.8957 669.1817,-254.3707"/>
<polygon fill="#191970" stroke="#191970" points="671.3477,-257.1547 678.1518,-249.0335 667.7683,-251.1391 671.3477,-257.1547"/>
</g>
<!-- Node38&#45;&gt;Node28 -->
<g id="edge118" class="edge">
<title>Node38&#45;&gt;Node28</title>
<path fill="none" stroke="#191970" d="M363.0279,-347.3845C369.0988,-328.1053 382.8625,-284.3963 390.8835,-258.9241"/>
<polygon fill="#191970" stroke="#191970" points="394.2651,-259.8379 393.9303,-249.2484 387.5883,-257.7354 394.2651,-259.8379"/>
</g>
<!-- Node38&#45;&gt;Node29 -->
<g id="edge123" class="edge">
<title>Node38&#45;&gt;Node29</title>
<path fill="none" stroke="#191970" d="M403.7133,-349.1068C451.7119,-340.3186 531.0084,-325.4436 599,-311 637.3856,-302.8457 646.2237,-297.0292 685,-291 882.819,-260.2417 935.9347,-284.1297 1134,-255 1141.2186,-253.9384 1148.7964,-252.5799 1156.2146,-251.1097"/>
<polygon fill="#191970" stroke="#191970" points="1157.0964,-254.5015 1166.1828,-249.0529 1155.6818,-247.6459 1157.0964,-254.5015"/>
</g>
<!-- Node39&#45;&gt;Node4 -->
<g id="edge130" class="edge">
<title>Node39&#45;&gt;Node4</title>
<path fill="none" stroke="#191970" d="M1527.2567,-347.6375C1568.716,-338.3258 1627.1801,-323.6429 1647,-311 1674.6366,-293.3709 1683.3978,-285.6587 1695,-255 1717.7836,-194.7945 1710.1874,-163.8221 1672,-112 1663.5527,-100.5366 1651.7201,-90.0444 1641.2836,-81.9847"/>
<polygon fill="#191970" stroke="#191970" points="1643.0707,-78.9531 1632.9501,-75.8187 1638.9071,-84.5803 1643.0707,-78.9531"/>
</g>
<!-- Node39&#45;&gt;Node9 -->
<g id="edge127" class="edge">
<title>Node39&#45;&gt;Node9</title>
<path fill="none" stroke="#191970" d="M1527.2406,-348.6206C1530.2044,-348.0692 1533.1451,-347.5248 1536,-347 1650.1251,-326.0204 1975.5273,-343.986 2050,-255 2092.8879,-203.7541 2039.39,-119.9274 2012.1352,-83.6504"/>
<polygon fill="#191970" stroke="#191970" points="2014.7264,-81.2792 2005.8461,-75.5007 2009.1847,-85.5558 2014.7264,-81.2792"/>
</g>
<!-- Node39&#45;&gt;Node15 -->
<g id="edge128" class="edge">
<title>Node39&#45;&gt;Node15</title>
<path fill="none" stroke="#191970" d="M1527.3509,-347.8138C1580.0004,-336.6851 1662.3102,-318.497 1675,-311 1764.6112,-258.0583 1780.0505,-225.3897 1826,-132 1833.2679,-117.2285 1838.4982,-99.2847 1841.783,-85.8377"/>
<polygon fill="#191970" stroke="#191970" points="1845.2683,-86.297 1844.0868,-75.7683 1838.4446,-84.7358 1845.2683,-86.297"/>
</g>
<!-- Node39&#45;&gt;Node19 -->
<g id="edge126" class="edge">
<title>Node39&#45;&gt;Node19</title>
<path fill="none" stroke="#191970" d="M1527.1903,-348.3048C1530.1662,-347.8296 1533.1234,-347.3885 1536,-347 1729.5656,-320.8571 1787.434,-368.8295 1974,-311 2021.916,-296.1475 2039.1367,-292.9018 2072,-255 2132.2283,-185.5375 2157.6731,-74.1476 2165.8294,-29.4674"/>
<polygon fill="#191970" stroke="#191970" points="2169.2783,-30.063 2167.5412,-19.6115 2162.3816,-28.865 2169.2783,-30.063"/>
</g>
<!-- Node39&#45;&gt;Node25 -->
<g id="edge131" class="edge">
<title>Node39&#45;&gt;Node25</title>
<path fill="none" stroke="#191970" d="M1438.8357,-355.6912C1336.6482,-351.3693 1077.4092,-332.9388 878,-255 839.9854,-240.142 801.3979,-211.9425 779.1328,-194.1042"/>
<polygon fill="#191970" stroke="#191970" points="781.1287,-191.2154 771.1685,-187.6035 776.7024,-196.6383 781.1287,-191.2154"/>
</g>
<!-- Node39&#45;&gt;Node29 -->
<g id="edge133" class="edge">
<title>Node39&#45;&gt;Node29</title>
<path fill="none" stroke="#191970" d="M1460.3319,-347.3845C1411.2095,-326.5474 1294.8116,-277.1728 1238.1293,-253.1289"/>
<polygon fill="#191970" stroke="#191970" points="1239.1656,-249.7666 1228.5928,-249.0836 1236.432,-256.2108 1239.1656,-249.7666"/>
</g>
<!-- Node39&#45;&gt;Node31 -->
<g id="edge125" class="edge">
<title>Node39&#45;&gt;Node31</title>
<path fill="none" stroke="#191970" d="M1501.638,-347.2455C1518.4386,-338.4527 1543.3634,-325.4079 1562.4618,-315.4125"/>
<polygon fill="#191970" stroke="#191970" points="1564.3386,-318.3807 1571.5756,-310.6427 1561.0927,-312.1787 1564.3386,-318.3807"/>
</g>
<!-- Node39&#45;&gt;Node32 -->
<g id="edge134" class="edge">
<title>Node39&#45;&gt;Node32</title>
<path fill="none" stroke="#191970" d="M1444.3691,-347.484C1358.0225,-326.2141 1149.5332,-274.8567 1054.5745,-251.4654"/>
<polygon fill="#191970" stroke="#191970" points="1055.2049,-248.0162 1044.658,-249.0227 1053.5306,-254.813 1055.2049,-248.0162"/>
</g>
<!-- Node39&#45;&gt;Node33 -->
<g id="edge132" class="edge">
<title>Node39&#45;&gt;Node33</title>
<path fill="none" stroke="#191970" d="M1521.5504,-347.4485C1562.8468,-336.8307 1623.3886,-319.9964 1630,-311 1641.4046,-295.4813 1629.556,-276.3772 1615.8612,-261.8215"/>
<polygon fill="#191970" stroke="#191970" points="1618.2106,-259.2222 1608.6447,-254.6674 1613.2823,-264.1934 1618.2106,-259.2222"/>
</g>
<!-- Node39&#45;&gt;Node36 -->
<g id="edge129" class="edge">
<title>Node39&#45;&gt;Node36</title>
<path fill="none" stroke="#191970" d="M1469.5876,-347.2455C1457.9943,-338.814 1441.0252,-326.4729 1427.5322,-316.6598"/>
<polygon fill="#191970" stroke="#191970" points="1429.4047,-313.6938 1419.2587,-310.6427 1425.2874,-319.355 1429.4047,-313.6938"/>
</g>
<!-- Node42 -->
<g id="node43" class="node">
<title>Node42</title>
<polygon fill="none" stroke="#bfbfbf" points="1653,-347.5 1653,-366.5 1705,-366.5 1705,-347.5 1653,-347.5"/>
<text text-anchor="middle" x="1679" y="-354.5" font-family="Helvetica,sans-Serif" font-size="10.00" fill="#000000">sstream</text>
</g>
<!-- Node41&#45;&gt;Node42 -->
<g id="edge138" class="edge">
<title>Node41&#45;&gt;Node42</title>
<path fill="none" stroke="#191970" d="M1646.7933,-403.2455C1652.2178,-395.4564 1659.9661,-384.3308 1666.5033,-374.9439"/>
<polygon fill="#191970" stroke="#191970" points="1669.4417,-376.849 1672.2846,-366.6427 1663.6975,-372.8485 1669.4417,-376.849"/>
</g>
</g>
</svg>
