<?xml version="1.0" encoding="UTF-8" standalone="no"?>
<!DOCTYPE svg PUBLIC "-//W3C//DTD SVG 1.1//EN"
 "http://www.w3.org/Graphics/SVG/1.1/DTD/svg11.dtd">
<!-- Generated by graphviz version 2.40.1 (20161225.0304)
 -->
<!-- Title: /home/runner/work/AliceO2/AliceO2/Common/Utils/include/CommonUtils/MemFileHelper.h Pages: 1 -->
<svg width="1706pt" height="317pt"
 viewBox="0.00 0.00 1706.00 317.00" xmlns="http://www.w3.org/2000/svg" xmlns:xlink="http://www.w3.org/1999/xlink">
<g id="graph0" class="graph" transform="scale(1 1) rotate(0) translate(4 313)">
<title>/home/runner/work/AliceO2/AliceO2/Common/Utils/include/CommonUtils/MemFileHelper.h</title>
<!-- Node8 -->
<g id="node1" class="node">
<title>Node8</title>
<polygon fill="#bfbfbf" stroke="#000000" points="691.5,-267.5 691.5,-308.5 848.5,-308.5 848.5,-267.5 691.5,-267.5"/>
<text text-anchor="start" x="699.5" y="-296.5" font-family="Helvetica,sans-Serif" font-size="10.00" fill="#000000">/home/runner/work/AliceO2</text>
<text text-anchor="start" x="699.5" y="-285.5" font-family="Helvetica,sans-Serif" font-size="10.00" fill="#000000">/AliceO2/Common/Utils/include</text>
<text text-anchor="middle" x="770" y="-274.5" font-family="Helvetica,sans-Serif" font-size="10.00" fill="#000000">/CommonUtils/MemFileHelper.h</text>
</g>
<!-- Node9 -->
<g id="node2" class="node">
<title>Node9</title>
<g id="a_node2"><a xlink:href="../../dc/d5f/CcdbApi_8cxx.html" target="_top" xlink:title="/home/runner/work/AliceO2\l/AliceO2/CCDB/src/CcdbApi.cxx">
<polygon fill="none" stroke="#000000" points="0,-189.5 0,-219.5 162,-219.5 162,-189.5 0,-189.5"/>
<text text-anchor="start" x="8" y="-207.5" font-family="Helvetica,sans-Serif" font-size="10.00" fill="#000000">/home/runner/work/AliceO2</text>
<text text-anchor="middle" x="81" y="-196.5" font-family="Helvetica,sans-Serif" font-size="10.00" fill="#000000">/AliceO2/CCDB/src/CcdbApi.cxx</text>
</a>
</g>
</g>
<!-- Node8&#45;&gt;Node9 -->
<g id="edge1" class="edge">
<title>Node8&#45;&gt;Node9</title>
<path fill="none" stroke="#191970" d="M681.269,-284.8628C563.6693,-279.4995 350.1496,-265.5678 171,-231 156.1263,-228.13 140.1817,-223.848 125.9071,-219.5586"/>
<polygon fill="#191970" stroke="#191970" points="681.1579,-288.3613 691.3039,-285.3102 681.4698,-281.3682 681.1579,-288.3613"/>
</g>
<!-- Node10 -->
<g id="node3" class="node">
<title>Node10</title>
<g id="a_node3"><a xlink:href="../../d0/ddd/testMemFileHelper_8cxx.html" target="_top" xlink:title="unit tests for TMemFile and its binary image creation ">
<polygon fill="none" stroke="#000000" points="180,-184 180,-225 320,-225 320,-184 180,-184"/>
<text text-anchor="start" x="188" y="-213" font-family="Helvetica,sans-Serif" font-size="10.00" fill="#000000">/home/runner/work/AliceO2</text>
<text text-anchor="start" x="188" y="-202" font-family="Helvetica,sans-Serif" font-size="10.00" fill="#000000">/AliceO2/Common/Utils/test</text>
<text text-anchor="middle" x="250" y="-191" font-family="Helvetica,sans-Serif" font-size="10.00" fill="#000000">/testMemFileHelper.cxx</text>
</a>
</g>
</g>
<!-- Node8&#45;&gt;Node10 -->
<g id="edge2" class="edge">
<title>Node8&#45;&gt;Node10</title>
<path fill="none" stroke="#191970" d="M680.9787,-281.6235C591.2626,-274.002 449.2549,-258.6618 329,-231 321.8099,-229.3461 314.3493,-227.2994 307.0113,-225.0821"/>
<polygon fill="#191970" stroke="#191970" points="680.8575,-285.1255 691.1143,-282.4705 681.4406,-278.1498 680.8575,-285.1255"/>
</g>
<!-- Node11 -->
<g id="node4" class="node">
<title>Node11</title>
<g id="a_node4"><a xlink:href="../../d5/d39/MeanVertexCalibrator_8cxx.html" target="_top" xlink:title="/home/runner/work/AliceO2\l/AliceO2/Detectors/Calibration\l/src/MeanVertexCalibrator.cxx">
<polygon fill="none" stroke="#000000" points="338.5,-184 338.5,-225 487.5,-225 487.5,-184 338.5,-184"/>
<text text-anchor="start" x="346.5" y="-213" font-family="Helvetica,sans-Serif" font-size="10.00" fill="#000000">/home/runner/work/AliceO2</text>
<text text-anchor="start" x="346.5" y="-202" font-family="Helvetica,sans-Serif" font-size="10.00" fill="#000000">/AliceO2/Detectors/Calibration</text>
<text text-anchor="middle" x="413" y="-191" font-family="Helvetica,sans-Serif" font-size="10.00" fill="#000000">/src/MeanVertexCalibrator.cxx</text>
</a>
</g>
</g>
<!-- Node8&#45;&gt;Node11 -->
<g id="edge3" class="edge">
<title>Node8&#45;&gt;Node11</title>
<path fill="none" stroke="#191970" d="M681.3755,-271.9868C627.4565,-261.6454 557.3799,-247.1363 496,-231 489.1242,-229.1924 481.9755,-227.1553 474.8858,-225.0339"/>
<polygon fill="#191970" stroke="#191970" points="680.7711,-275.4345 691.2496,-273.8687 682.0817,-268.5583 680.7711,-275.4345"/>
</g>
<!-- Node12 -->
<g id="node5" class="node">
<title>Node12</title>
<g id="a_node5"><a xlink:href="../../db/d38/MeanVertexData_8cxx.html" target="_top" xlink:title="/home/runner/work/AliceO2\l/AliceO2/Detectors/Calibration\l/src/MeanVertexData.cxx">
<polygon fill="none" stroke="#000000" points="505.5,-184 505.5,-225 654.5,-225 654.5,-184 505.5,-184"/>
<text text-anchor="start" x="513.5" y="-213" font-family="Helvetica,sans-Serif" font-size="10.00" fill="#000000">/home/runner/work/AliceO2</text>
<text text-anchor="start" x="513.5" y="-202" font-family="Helvetica,sans-Serif" font-size="10.00" fill="#000000">/AliceO2/Detectors/Calibration</text>
<text text-anchor="middle" x="580" y="-191" font-family="Helvetica,sans-Serif" font-size="10.00" fill="#000000">/src/MeanVertexData.cxx</text>
</a>
</g>
</g>
<!-- Node8&#45;&gt;Node12 -->
<g id="edge4" class="edge">
<title>Node8&#45;&gt;Node12</title>
<path fill="none" stroke="#191970" d="M713.8546,-263.3256C686.1337,-251.143 653.0801,-236.6168 626.7549,-225.0476"/>
<polygon fill="#191970" stroke="#191970" points="712.4706,-266.5404 723.0337,-267.3595 715.287,-260.1319 712.4706,-266.5404"/>
</g>
<!-- Node13 -->
<g id="node6" class="node">
<title>Node13</title>
<g id="a_node6"><a xlink:href="../../d7/da7/DCSProcessor_8h.html" target="_top" xlink:title="/home/runner/work/AliceO2\l/AliceO2/Detectors/DCS\l/include/DetectorsDCS/DCSProcessor.h">
<polygon fill="none" stroke="#000000" points="672.5,-184 672.5,-225 867.5,-225 867.5,-184 672.5,-184"/>
<text text-anchor="start" x="680.5" y="-213" font-family="Helvetica,sans-Serif" font-size="10.00" fill="#000000">/home/runner/work/AliceO2</text>
<text text-anchor="start" x="680.5" y="-202" font-family="Helvetica,sans-Serif" font-size="10.00" fill="#000000">/AliceO2/Detectors/DCS</text>
<text text-anchor="middle" x="770" y="-191" font-family="Helvetica,sans-Serif" font-size="10.00" fill="#000000">/include/DetectorsDCS/DCSProcessor.h</text>
</a>
</g>
</g>
<!-- Node8&#45;&gt;Node13 -->
<g id="edge5" class="edge">
<title>Node8&#45;&gt;Node13</title>
<path fill="none" stroke="#191970" d="M770,-257.1593C770,-246.5064 770,-234.8344 770,-225.1924"/>
<polygon fill="#191970" stroke="#191970" points="766.5001,-257.3595 770,-267.3595 773.5001,-257.3596 766.5001,-257.3595"/>
</g>
<!-- Node18 -->
<g id="node11" class="node">
<title>Node18</title>
<g id="a_node11"><a xlink:href="../../d1/dff/LHCClockCalibrator_8cxx.html" target="_top" xlink:title="/home/runner/work/AliceO2\l/AliceO2/Detectors/TOF\l/calibration/src/LHCClockCalibrator.cxx">
<polygon fill="none" stroke="#000000" points="886,-184 886,-225 1076,-225 1076,-184 886,-184"/>
<text text-anchor="start" x="894" y="-213" font-family="Helvetica,sans-Serif" font-size="10.00" fill="#000000">/home/runner/work/AliceO2</text>
<text text-anchor="start" x="894" y="-202" font-family="Helvetica,sans-Serif" font-size="10.00" fill="#000000">/AliceO2/Detectors/TOF</text>
<text text-anchor="middle" x="981" y="-191" font-family="Helvetica,sans-Serif" font-size="10.00" fill="#000000">/calibration/src/LHCClockCalibrator.cxx</text>
</a>
</g>
</g>
<!-- Node8&#45;&gt;Node18 -->
<g id="edge10" class="edge">
<title>Node8&#45;&gt;Node18</title>
<path fill="none" stroke="#191970" d="M831.2794,-263.7496C862.2357,-251.4991 899.3941,-236.7943 928.9479,-225.0988"/>
<polygon fill="#191970" stroke="#191970" points="829.8971,-260.5325 821.8866,-267.4667 832.4729,-267.0413 829.8971,-260.5325"/>
</g>
<!-- Node19 -->
<g id="node12" class="node">
<title>Node19</title>
<g id="a_node12"><a xlink:href="../../d9/dff/TOFChannelCalibrator_8cxx.html" target="_top" xlink:title="/home/runner/work/AliceO2\l/AliceO2/Detectors/TOF\l/calibration/src/TOFChannelCalibrator.cxx">
<polygon fill="none" stroke="#000000" points="1094,-184 1094,-225 1294,-225 1294,-184 1094,-184"/>
<text text-anchor="start" x="1102" y="-213" font-family="Helvetica,sans-Serif" font-size="10.00" fill="#000000">/home/runner/work/AliceO2</text>
<text text-anchor="start" x="1102" y="-202" font-family="Helvetica,sans-Serif" font-size="10.00" fill="#000000">/AliceO2/Detectors/TOF</text>
<text text-anchor="middle" x="1194" y="-191" font-family="Helvetica,sans-Serif" font-size="10.00" fill="#000000">/calibration/src/TOFChannelCalibrator.cxx</text>
</a>
</g>
</g>
<!-- Node8&#45;&gt;Node19 -->
<g id="edge11" class="edge">
<title>Node8&#45;&gt;Node19</title>
<path fill="none" stroke="#191970" d="M858.5178,-273.4305C921.7993,-262.6622 1008.878,-247.1257 1085,-231 1093.6687,-229.1636 1102.6992,-227.1429 1111.689,-225.0614"/>
<polygon fill="#191970" stroke="#191970" points="857.8453,-269.9945 848.5712,-275.1172 859.0156,-276.896 857.8453,-269.9945"/>
</g>
<!-- Node20 -->
<g id="node13" class="node">
<title>Node20</title>
<g id="a_node13"><a xlink:href="../../d0/d37/LHCClockCalibratorSpec_8h.html" target="_top" xlink:title="Device to calibrate LHC clock phase using TOF data. ">
<polygon fill="none" stroke="#000000" points="1312,-178.5 1312,-230.5 1450,-230.5 1450,-178.5 1312,-178.5"/>
<text text-anchor="start" x="1320" y="-218.5" font-family="Helvetica,sans-Serif" font-size="10.00" fill="#000000">/home/runner/work/AliceO2</text>
<text text-anchor="start" x="1320" y="-207.5" font-family="Helvetica,sans-Serif" font-size="10.00" fill="#000000">/AliceO2/Detectors/TOF</text>
<text text-anchor="start" x="1320" y="-196.5" font-family="Helvetica,sans-Serif" font-size="10.00" fill="#000000">/calibration/testWorkflow</text>
<text text-anchor="middle" x="1381" y="-185.5" font-family="Helvetica,sans-Serif" font-size="10.00" fill="#000000">/LHCClockCalibratorSpec.h</text>
</a>
</g>
</g>
<!-- Node8&#45;&gt;Node20 -->
<g id="edge12" class="edge">
<title>Node8&#45;&gt;Node20</title>
<path fill="none" stroke="#191970" d="M858.6155,-284.5112C965.1733,-278.9464 1148.9311,-264.9715 1303,-231 1305.9329,-230.3533 1308.9096,-229.6344 1311.903,-228.8594"/>
<polygon fill="#191970" stroke="#191970" points="858.357,-281.0197 848.548,-285.0239 858.7131,-288.0107 858.357,-281.0197"/>
</g>
<!-- Node23 -->
<g id="node16" class="node">
<title>Node23</title>
<g id="a_node16"><a xlink:href="../../df/de3/TOFChannelCalibratorSpec_8h.html" target="_top" xlink:title="Device to calibrate TOF channles (offsets) ">
<polygon fill="none" stroke="#000000" points="1468,-178.5 1468,-230.5 1616,-230.5 1616,-178.5 1468,-178.5"/>
<text text-anchor="start" x="1476" y="-218.5" font-family="Helvetica,sans-Serif" font-size="10.00" fill="#000000">/home/runner/work/AliceO2</text>
<text text-anchor="start" x="1476" y="-207.5" font-family="Helvetica,sans-Serif" font-size="10.00" fill="#000000">/AliceO2/Detectors/TOF</text>
<text text-anchor="start" x="1476" y="-196.5" font-family="Helvetica,sans-Serif" font-size="10.00" fill="#000000">/calibration/testWorkflow</text>
<text text-anchor="middle" x="1542" y="-185.5" font-family="Helvetica,sans-Serif" font-size="10.00" fill="#000000">/TOFChannelCalibratorSpec.h</text>
</a>
</g>
</g>
<!-- Node8&#45;&gt;Node23 -->
<g id="edge15" class="edge">
<title>Node8&#45;&gt;Node23</title>
<path fill="none" stroke="#191970" d="M858.8161,-283.1628C1018.1784,-274.0655 1346.5321,-253.3063 1459,-231 1461.8191,-230.4409 1464.6769,-229.8188 1467.5522,-229.1461"/>
<polygon fill="#191970" stroke="#191970" points="858.353,-279.6833 848.5676,-283.745 858.7501,-286.6721 858.353,-279.6833"/>
</g>
<!-- Node14 -->
<g id="node7" class="node">
<title>Node14</title>
<g id="a_node7"><a xlink:href="../../d0/d0b/DCSProcessor_8cxx.html" target="_top" xlink:title="/home/runner/work/AliceO2\l/AliceO2/Detectors/DCS\l/src/DCSProcessor.cxx">
<polygon fill="none" stroke="#000000" points="610.5,-95 610.5,-136 745.5,-136 745.5,-95 610.5,-95"/>
<text text-anchor="start" x="618.5" y="-124" font-family="Helvetica,sans-Serif" font-size="10.00" fill="#000000">/home/runner/work/AliceO2</text>
<text text-anchor="start" x="618.5" y="-113" font-family="Helvetica,sans-Serif" font-size="10.00" fill="#000000">/AliceO2/Detectors/DCS</text>
<text text-anchor="middle" x="678" y="-102" font-family="Helvetica,sans-Serif" font-size="10.00" fill="#000000">/src/DCSProcessor.cxx</text>
</a>
</g>
</g>
<!-- Node13&#45;&gt;Node14 -->
<g id="edge6" class="edge">
<title>Node13&#45;&gt;Node14</title>
<path fill="none" stroke="#191970" d="M741.3753,-176.8087C727.7503,-163.628 711.7413,-148.141 699.2222,-136.0301"/>
<polygon fill="#191970" stroke="#191970" points="739.0413,-179.4205 748.6621,-183.8579 743.9083,-174.3894 739.0413,-179.4205"/>
</g>
<!-- Node15 -->
<g id="node8" class="node">
<title>Node15</title>
<g id="a_node8"><a xlink:href="../../d8/d4e/DCSDataProcessorSpec_8h.html" target="_top" xlink:title="/home/runner/work/AliceO2\l/AliceO2/Detectors/DCS\l/testWorkflow/DCSDataProcessorSpec.h">
<polygon fill="none" stroke="#000000" points="764,-95 764,-136 962,-136 962,-95 764,-95"/>
<text text-anchor="start" x="772" y="-124" font-family="Helvetica,sans-Serif" font-size="10.00" fill="#000000">/home/runner/work/AliceO2</text>
<text text-anchor="start" x="772" y="-113" font-family="Helvetica,sans-Serif" font-size="10.00" fill="#000000">/AliceO2/Detectors/DCS</text>
<text text-anchor="middle" x="863" y="-102" font-family="Helvetica,sans-Serif" font-size="10.00" fill="#000000">/testWorkflow/DCSDataProcessorSpec.h</text>
</a>
</g>
</g>
<!-- Node13&#45;&gt;Node15 -->
<g id="edge7" class="edge">
<title>Node13&#45;&gt;Node15</title>
<path fill="none" stroke="#191970" d="M798.9359,-176.8087C812.7089,-163.628 828.892,-148.141 841.5471,-136.0301"/>
<polygon fill="#191970" stroke="#191970" points="796.3747,-174.4152 791.5698,-183.8579 801.2145,-179.4726 796.3747,-174.4152"/>
</g>
<!-- Node16 -->
<g id="node9" class="node">
<title>Node16</title>
<g id="a_node9"><a xlink:href="../../da/dd6/dcs-data-workflow_8cxx.html" target="_top" xlink:title="/home/runner/work/AliceO2\l/AliceO2/Detectors/DCS\l/testWorkflow/dcs&#45;data&#45;workflow.cxx">
<polygon fill="none" stroke="#000000" points="686.5,-6 686.5,-47 865.5,-47 865.5,-6 686.5,-6"/>
<text text-anchor="start" x="694.5" y="-35" font-family="Helvetica,sans-Serif" font-size="10.00" fill="#000000">/home/runner/work/AliceO2</text>
<text text-anchor="start" x="694.5" y="-24" font-family="Helvetica,sans-Serif" font-size="10.00" fill="#000000">/AliceO2/Detectors/DCS</text>
<text text-anchor="middle" x="776" y="-13" font-family="Helvetica,sans-Serif" font-size="10.00" fill="#000000">/testWorkflow/dcs&#45;data&#45;workflow.cxx</text>
</a>
</g>
</g>
<!-- Node15&#45;&gt;Node16 -->
<g id="edge8" class="edge">
<title>Node15&#45;&gt;Node16</title>
<path fill="none" stroke="#191970" d="M835.5725,-87.442C822.7664,-74.3415 807.7979,-59.0289 796.0688,-47.0301"/>
<polygon fill="#191970" stroke="#191970" points="833.3286,-90.1535 842.8218,-94.8579 838.3343,-85.2603 833.3286,-90.1535"/>
</g>
<!-- Node17 -->
<g id="node10" class="node">
<title>Node17</title>
<g id="a_node10"><a xlink:href="../../d4/d48/dcs-random-data-workflow_8cxx.html" target="_top" xlink:title="/home/runner/work/AliceO2\l/AliceO2/Detectors/DCS\l/testWorkflow/dcs&#45;random\l&#45;data&#45;workflow.cxx">
<polygon fill="none" stroke="#000000" points="883.5,-.5 883.5,-52.5 1018.5,-52.5 1018.5,-.5 883.5,-.5"/>
<text text-anchor="start" x="891.5" y="-40.5" font-family="Helvetica,sans-Serif" font-size="10.00" fill="#000000">/home/runner/work/AliceO2</text>
<text text-anchor="start" x="891.5" y="-29.5" font-family="Helvetica,sans-Serif" font-size="10.00" fill="#000000">/AliceO2/Detectors/DCS</text>
<text text-anchor="start" x="891.5" y="-18.5" font-family="Helvetica,sans-Serif" font-size="10.00" fill="#000000">/testWorkflow/dcs&#45;random</text>
<text text-anchor="middle" x="951" y="-7.5" font-family="Helvetica,sans-Serif" font-size="10.00" fill="#000000">&#45;data&#45;workflow.cxx</text>
</a>
</g>
</g>
<!-- Node15&#45;&gt;Node17 -->
<g id="edge9" class="edge">
<title>Node15&#45;&gt;Node17</title>
<path fill="none" stroke="#191970" d="M890.7116,-87.4734C901.68,-76.3804 914.2208,-63.6972 925.0137,-52.7816"/>
<polygon fill="#191970" stroke="#191970" points="887.9524,-85.2861 883.4102,-94.8579 892.93,-90.2078 887.9524,-85.2861"/>
</g>
<!-- Node21 -->
<g id="node14" class="node">
<title>Node21</title>
<g id="a_node14"><a xlink:href="../../d1/d1b/lhc-clockphase-workflow_8cxx.html" target="_top" xlink:title="/home/runner/work/AliceO2\l/AliceO2/Detectors/TOF\l/calibration/testWorkflow\l/lhc&#45;clockphase&#45;workflow.cxx">
<polygon fill="none" stroke="#000000" points="1228,-89.5 1228,-141.5 1374,-141.5 1374,-89.5 1228,-89.5"/>
<text text-anchor="start" x="1236" y="-129.5" font-family="Helvetica,sans-Serif" font-size="10.00" fill="#000000">/home/runner/work/AliceO2</text>
<text text-anchor="start" x="1236" y="-118.5" font-family="Helvetica,sans-Serif" font-size="10.00" fill="#000000">/AliceO2/Detectors/TOF</text>
<text text-anchor="start" x="1236" y="-107.5" font-family="Helvetica,sans-Serif" font-size="10.00" fill="#000000">/calibration/testWorkflow</text>
<text text-anchor="middle" x="1301" y="-96.5" font-family="Helvetica,sans-Serif" font-size="10.00" fill="#000000">/lhc&#45;clockphase&#45;workflow.cxx</text>
</a>
</g>
</g>
<!-- Node20&#45;&gt;Node21 -->
<g id="edge13" class="edge">
<title>Node20&#45;&gt;Node21</title>
<path fill="none" stroke="#191970" d="M1350.6323,-170.7159C1341.9413,-161.0472 1332.6052,-150.6608 1324.4015,-141.5341"/>
<polygon fill="#191970" stroke="#191970" points="1348.142,-173.1811 1357.4301,-178.2784 1353.348,-168.5015 1348.142,-173.1811"/>
</g>
<!-- Node22 -->
<g id="node15" class="node">
<title>Node22</title>
<g id="a_node15"><a xlink:href="../../dc/da8/tof-calib-workflow_8cxx.html" target="_top" xlink:title="/home/runner/work/AliceO2\l/AliceO2/Detectors/TOF\l/calibration/testWorkflow\l/tof&#45;calib&#45;workflow.cxx">
<polygon fill="none" stroke="#000000" points="1392.5,-89.5 1392.5,-141.5 1527.5,-141.5 1527.5,-89.5 1392.5,-89.5"/>
<text text-anchor="start" x="1400.5" y="-129.5" font-family="Helvetica,sans-Serif" font-size="10.00" fill="#000000">/home/runner/work/AliceO2</text>
<text text-anchor="start" x="1400.5" y="-118.5" font-family="Helvetica,sans-Serif" font-size="10.00" fill="#000000">/AliceO2/Detectors/TOF</text>
<text text-anchor="start" x="1400.5" y="-107.5" font-family="Helvetica,sans-Serif" font-size="10.00" fill="#000000">/calibration/testWorkflow</text>
<text text-anchor="middle" x="1460" y="-96.5" font-family="Helvetica,sans-Serif" font-size="10.00" fill="#000000">/tof&#45;calib&#45;workflow.cxx</text>
</a>
</g>
</g>
<!-- Node20&#45;&gt;Node22 -->
<g id="edge14" class="edge">
<title>Node20&#45;&gt;Node22</title>
<path fill="none" stroke="#191970" d="M1410.9881,-170.7159C1419.5705,-161.0472 1428.7899,-150.6608 1436.891,-141.5341"/>
<polygon fill="#191970" stroke="#191970" points="1408.2962,-168.4762 1404.2753,-178.2784 1413.5313,-173.1231 1408.2962,-168.4762"/>
</g>
<!-- Node23&#45;&gt;Node22 -->
<g id="edge16" class="edge">
<title>Node23&#45;&gt;Node22</title>
<path fill="none" stroke="#191970" d="M1510.8731,-170.7159C1501.9648,-161.0472 1492.3953,-150.6608 1483.9865,-141.5341"/>
<polygon fill="#191970" stroke="#191970" points="1508.4908,-173.2956 1517.8408,-178.2784 1513.6389,-168.5525 1508.4908,-173.2956"/>
</g>
<!-- Node24 -->
<g id="node17" class="node">
<title>Node24</title>
<g id="a_node17"><a xlink:href="../../db/d97/tof-channel-calib-workflow_8cxx.html" target="_top" xlink:title="/home/runner/work/AliceO2\l/AliceO2/Detectors/TOF\l/calibration/testWorkflow\l/tof&#45;channel&#45;calib&#45;workflow.cxx">
<polygon fill="none" stroke="#000000" points="1546,-89.5 1546,-141.5 1698,-141.5 1698,-89.5 1546,-89.5"/>
<text text-anchor="start" x="1554" y="-129.5" font-family="Helvetica,sans-Serif" font-size="10.00" fill="#000000">/home/runner/work/AliceO2</text>
<text text-anchor="start" x="1554" y="-118.5" font-family="Helvetica,sans-Serif" font-size="10.00" fill="#000000">/AliceO2/Detectors/TOF</text>
<text text-anchor="start" x="1554" y="-107.5" font-family="Helvetica,sans-Serif" font-size="10.00" fill="#000000">/calibration/testWorkflow</text>
<text text-anchor="middle" x="1622" y="-96.5" font-family="Helvetica,sans-Serif" font-size="10.00" fill="#000000">/tof&#45;channel&#45;calib&#45;workflow.cxx</text>
</a>
</g>
</g>
<!-- Node23&#45;&gt;Node24 -->
<g id="edge17" class="edge">
<title>Node23&#45;&gt;Node24</title>
<path fill="none" stroke="#191970" d="M1572.3677,-170.7159C1581.0587,-161.0472 1590.3948,-150.6608 1598.5985,-141.5341"/>
<polygon fill="#191970" stroke="#191970" points="1569.652,-168.5015 1565.5699,-178.2784 1574.858,-173.1811 1569.652,-168.5015"/>
</g>
</g>
</svg>
