<?xml version="1.0" encoding="UTF-8" standalone="no"?>
<!DOCTYPE svg PUBLIC "-//W3C//DTD SVG 1.1//EN"
 "http://www.w3.org/Graphics/SVG/1.1/DTD/svg11.dtd">
<!-- Generated by graphviz version 2.40.1 (20161225.0304)
 -->
<!-- Title: /home/runner/work/AliceO2/AliceO2/DataFormats/Detectors/TPC/include/DataFormatsTPC/CTF.h Pages: 1 -->
<svg width="2809pt" height="576pt"
 viewBox="0.00 0.00 2808.50 576.00" xmlns="http://www.w3.org/2000/svg" xmlns:xlink="http://www.w3.org/1999/xlink">
<g id="graph0" class="graph" transform="scale(1 1) rotate(0) translate(4 572)">
<title>/home/runner/work/AliceO2/AliceO2/DataFormats/Detectors/TPC/include/DataFormatsTPC/CTF.h</title>
<!-- Node0 -->
<g id="node1" class="node">
<title>Node0</title>
<polygon fill="#bfbfbf" stroke="#000000" points="2154.5,-526.5 2154.5,-567.5 2339.5,-567.5 2339.5,-526.5 2154.5,-526.5"/>
<text text-anchor="start" x="2162.5" y="-555.5" font-family="Helvetica,sans-Serif" font-size="10.00" fill="#000000">/home/runner/work/AliceO2</text>
<text text-anchor="start" x="2162.5" y="-544.5" font-family="Helvetica,sans-Serif" font-size="10.00" fill="#000000">/AliceO2/DataFormats/Detectors</text>
<text text-anchor="middle" x="2247" y="-533.5" font-family="Helvetica,sans-Serif" font-size="10.00" fill="#000000">/TPC/include/DataFormatsTPC/CTF.h</text>
</g>
<!-- Node1 -->
<g id="node2" class="node">
<title>Node1</title>
<g id="a_node2"><a xlink:href="../../da/d91/EncodedBlocks_8h.html" target="_top" xlink:title="DetectorsCommonDataFormats\l/EncodedBlocks.h">
<polygon fill="none" stroke="#000000" points="2083,-459.5 2083,-489.5 2239,-489.5 2239,-459.5 2083,-459.5"/>
<text text-anchor="start" x="2091" y="-477.5" font-family="Helvetica,sans-Serif" font-size="10.00" fill="#000000">DetectorsCommonDataFormats</text>
<text text-anchor="middle" x="2161" y="-466.5" font-family="Helvetica,sans-Serif" font-size="10.00" fill="#000000">/EncodedBlocks.h</text>
</a>
</g>
</g>
<!-- Node0&#45;&gt;Node1 -->
<g id="edge1" class="edge">
<title>Node0&#45;&gt;Node1</title>
<path fill="none" stroke="#191970" d="M2222.5859,-526.4183C2211.3971,-516.9859 2198.1294,-505.801 2186.7793,-496.2325"/>
<polygon fill="#191970" stroke="#191970" points="2188.8123,-493.3686 2178.9107,-489.5991 2184.3004,-498.7206 2188.8123,-493.3686"/>
</g>
<!-- Node41 -->
<g id="node42" class="node">
<title>Node41</title>
<g id="a_node42"><a xlink:href="../../d2/d7d/CompressedClusters_8h.html" target="_top" xlink:title="Container to store compressed TPC cluster data. ">
<polygon fill="none" stroke="#000000" points="2257,-459.5 2257,-489.5 2409,-489.5 2409,-459.5 2257,-459.5"/>
<text text-anchor="start" x="2265" y="-477.5" font-family="Helvetica,sans-Serif" font-size="10.00" fill="#000000">DataFormatsTPC/Compressed</text>
<text text-anchor="middle" x="2333" y="-466.5" font-family="Helvetica,sans-Serif" font-size="10.00" fill="#000000">Clusters.h</text>
</a>
</g>
</g>
<!-- Node0&#45;&gt;Node41 -->
<g id="edge134" class="edge">
<title>Node0&#45;&gt;Node41</title>
<path fill="none" stroke="#191970" d="M2271.4141,-526.4183C2282.6029,-516.9859 2295.8706,-505.801 2307.2207,-496.2325"/>
<polygon fill="#191970" stroke="#191970" points="2309.6996,-498.7206 2315.0893,-489.5991 2305.1877,-493.3686 2309.6996,-498.7206"/>
</g>
<!-- Node2 -->
<g id="node3" class="node">
<title>Node2</title>
<polygon fill="none" stroke="#bfbfbf" points="387,-56.5 387,-75.5 449,-75.5 449,-56.5 387,-56.5"/>
<text text-anchor="middle" x="418" y="-63.5" font-family="Helvetica,sans-Serif" font-size="10.00" fill="#000000">type_traits</text>
</g>
<!-- Node1&#45;&gt;Node2 -->
<g id="edge2" class="edge">
<title>Node1&#45;&gt;Node2</title>
<path fill="none" stroke="#191970" d="M2082.7569,-474.2611C1703.6586,-472.6013 76,-459.5063 76,-357 76,-357 76,-357 76,-239.5 76,-106.1309 285.4058,-75.2493 376.4996,-68.125"/>
<polygon fill="#191970" stroke="#191970" points="377.0211,-71.5966 386.7431,-67.3856 376.5171,-64.6147 377.0211,-71.5966"/>
</g>
<!-- Node3 -->
<g id="node4" class="node">
<title>Node3</title>
<polygon fill="none" stroke="#bfbfbf" points="2285,-347.5 2285,-366.5 2341,-366.5 2341,-347.5 2285,-347.5"/>
<text text-anchor="middle" x="2313" y="-354.5" font-family="Helvetica,sans-Serif" font-size="10.00" fill="#000000">Rtypes.h</text>
</g>
<!-- Node1&#45;&gt;Node3 -->
<g id="edge3" class="edge">
<title>Node1&#45;&gt;Node3</title>
<path fill="none" stroke="#191970" d="M2163.206,-459.3699C2166.2976,-443.3545 2173.4019,-418.3195 2189,-403 2201.5277,-390.696 2243.3475,-376.6745 2274.9864,-367.3796"/>
<polygon fill="#191970" stroke="#191970" points="2276.2118,-370.669 2284.8511,-364.5361 2274.2729,-363.9429 2276.2118,-370.669"/>
</g>
<!-- Node4 -->
<g id="node5" class="node">
<title>Node4</title>
<g id="a_node5"><a xlink:href="../../d4/de7/rans_8h.html" target="_top" xlink:title="header for public api ">
<polygon fill="none" stroke="#000000" points="1595.5,-403.5 1595.5,-422.5 1666.5,-422.5 1666.5,-403.5 1595.5,-403.5"/>
<text text-anchor="middle" x="1631" y="-410.5" font-family="Helvetica,sans-Serif" font-size="10.00" fill="#000000">rANS/rans.h</text>
</a>
</g>
</g>
<!-- Node1&#45;&gt;Node4 -->
<g id="edge4" class="edge">
<title>Node1&#45;&gt;Node4</title>
<path fill="none" stroke="#191970" d="M2082.7967,-465.4255C1970.5061,-452.3955 1767.1703,-428.8009 1676.6235,-418.2941"/>
<polygon fill="#191970" stroke="#191970" points="1677.0057,-414.815 1666.6689,-417.1389 1676.1988,-421.7683 1677.0057,-414.815"/>
</g>
<!-- Node37 -->
<g id="node38" class="node">
<title>Node37</title>
<polygon fill="none" stroke="#bfbfbf" points="2198,-403.5 2198,-422.5 2248,-422.5 2248,-403.5 2198,-403.5"/>
<text text-anchor="middle" x="2223" y="-410.5" font-family="Helvetica,sans-Serif" font-size="10.00" fill="#000000">TTree.h</text>
</g>
<!-- Node1&#45;&gt;Node37 -->
<g id="edge129" class="edge">
<title>Node1&#45;&gt;Node37</title>
<path fill="none" stroke="#191970" d="M2176.3258,-459.2977C2185.2907,-450.4052 2196.6288,-439.1586 2205.8851,-429.9769"/>
<polygon fill="#191970" stroke="#191970" points="2208.4382,-432.3742 2213.073,-422.8469 2203.5085,-427.4045 2208.4382,-432.3742"/>
</g>
<!-- Node38 -->
<g id="node39" class="node">
<title>Node38</title>
<g id="a_node39"><a xlink:href="../../d1/d1e/Common_2Utils_2include_2CommonUtils_2StringUtils_8h.html" target="_top" xlink:title="CommonUtils/StringUtils.h">
<polygon fill="none" stroke="#000000" points="2402,-403.5 2402,-422.5 2536,-422.5 2536,-403.5 2402,-403.5"/>
<text text-anchor="middle" x="2469" y="-410.5" font-family="Helvetica,sans-Serif" font-size="10.00" fill="#000000">CommonUtils/StringUtils.h</text>
</a>
</g>
</g>
<!-- Node1&#45;&gt;Node38 -->
<g id="edge130" class="edge">
<title>Node1&#45;&gt;Node38</title>
<path fill="none" stroke="#191970" d="M2236.3453,-459.4554C2290.3279,-448.6764 2361.9366,-434.3779 2411.3805,-424.5052"/>
<polygon fill="#191970" stroke="#191970" points="2412.1499,-427.9207 2421.2709,-422.5303 2410.7791,-421.0562 2412.1499,-427.9207"/>
</g>
<!-- Node40 -->
<g id="node41" class="node">
<title>Node40</title>
<g id="a_node41"><a xlink:href="../../dd/da4/Logger_8h.html" target="_top" xlink:title="Framework/Logger.h">
<polygon fill="none" stroke="#000000" points="1869,-112.5 1869,-131.5 1975,-131.5 1975,-112.5 1869,-112.5"/>
<text text-anchor="middle" x="1922" y="-119.5" font-family="Helvetica,sans-Serif" font-size="10.00" fill="#000000">Framework/Logger.h</text>
</a>
</g>
</g>
<!-- Node1&#45;&gt;Node40 -->
<g id="edge132" class="edge">
<title>Node1&#45;&gt;Node40</title>
<path fill="none" stroke="#191970" d="M2154.7074,-459.212C2146.1783,-437.0716 2132,-394.6105 2132,-357 2132,-357 2132,-357 2132,-301 2132,-212.2833 2022.1054,-158.2499 1961.3117,-135.1461"/>
<polygon fill="#191970" stroke="#191970" points="1962.2358,-131.7563 1951.6425,-131.5744 1959.8102,-138.3227 1962.2358,-131.7563"/>
</g>
<!-- Node5 -->
<g id="node6" class="node">
<title>Node5</title>
<g id="a_node6"><a xlink:href="../../dd/d65/FrequencyTable_8h.html" target="_top" xlink:title="Histogram to depict frequencies of source symbols for rANS compression. ">
<polygon fill="none" stroke="#000000" points="598.5,-112.5 598.5,-131.5 693.5,-131.5 693.5,-112.5 598.5,-112.5"/>
<text text-anchor="middle" x="646" y="-119.5" font-family="Helvetica,sans-Serif" font-size="10.00" fill="#000000">FrequencyTable.h</text>
</a>
</g>
</g>
<!-- Node4&#45;&gt;Node5 -->
<g id="edge5" class="edge">
<title>Node4&#45;&gt;Node5</title>
<path fill="none" stroke="#191970" d="M1595.3232,-412.4237C1464.1758,-410.0612 1009.088,-399.6438 868,-367 708.0984,-330.0032 599.6078,-342.7749 545,-188 542.0425,-179.6175 540.1905,-175.4753 545,-168 555.1157,-152.2774 572.0731,-141.8649 589.2324,-134.996"/>
<polygon fill="#191970" stroke="#191970" points="590.5447,-138.243 598.744,-131.5332 588.15,-131.6653 590.5447,-138.243"/>
</g>
<!-- Node14 -->
<g id="node15" class="node">
<title>Node14</title>
<g id="a_node15"><a xlink:href="../../d4/da1/helper_8h.html" target="_top" xlink:title="various helper functions ">
<polygon fill="none" stroke="#000000" points="1540,-56.5 1540,-75.5 1626,-75.5 1626,-56.5 1540,-56.5"/>
<text text-anchor="middle" x="1583" y="-63.5" font-family="Helvetica,sans-Serif" font-size="10.00" fill="#000000">internal/helper.h</text>
</a>
</g>
</g>
<!-- Node4&#45;&gt;Node14 -->
<g id="edge128" class="edge">
<title>Node4&#45;&gt;Node14</title>
<path fill="none" stroke="#191970" d="M1666.7233,-410.3105C1797.9793,-399.9588 2246,-360.2828 2246,-301 2246,-301 2246,-301 2246,-239.5 2246,-137.8045 2151.7378,-146.2964 2056,-112 1979.8915,-84.7355 1743.118,-72.257 1636.267,-67.9042"/>
<polygon fill="#191970" stroke="#191970" points="1636.1672,-64.3975 1626.0356,-67.4961 1635.8881,-71.3919 1636.1672,-64.3975"/>
</g>
<!-- Node17 -->
<g id="node18" class="node">
<title>Node17</title>
<g id="a_node18"><a xlink:href="../../dd/d74/Utilities_2rANS_2include_2rANS_2Encoder_8h.html" target="_top" xlink:title="Encoder.h">
<polygon fill="none" stroke="#000000" points="1719.5,-291.5 1719.5,-310.5 1780.5,-310.5 1780.5,-291.5 1719.5,-291.5"/>
<text text-anchor="middle" x="1750" y="-298.5" font-family="Helvetica,sans-Serif" font-size="10.00" fill="#000000">Encoder.h</text>
</a>
</g>
</g>
<!-- Node4&#45;&gt;Node17 -->
<g id="edge19" class="edge">
<title>Node4&#45;&gt;Node17</title>
<path fill="none" stroke="#191970" d="M1642.5779,-403.3578C1653.4553,-394.2043 1670.0944,-379.9571 1684,-367 1701.4425,-350.7473 1720.6353,-331.3767 1733.8056,-317.84"/>
<polygon fill="#191970" stroke="#191970" points="1736.3631,-320.2302 1740.8054,-310.6116 1731.3345,-315.3606 1736.3631,-320.2302"/>
</g>
<!-- Node28 -->
<g id="node29" class="node">
<title>Node28</title>
<g id="a_node29"><a xlink:href="../../dc/d62/Utilities_2rANS_2include_2rANS_2Decoder_8h.html" target="_top" xlink:title="Decoder.h">
<polygon fill="none" stroke="#000000" points="822,-291.5 822,-310.5 884,-310.5 884,-291.5 822,-291.5"/>
<text text-anchor="middle" x="853" y="-298.5" font-family="Helvetica,sans-Serif" font-size="10.00" fill="#000000">Decoder.h</text>
</a>
</g>
</g>
<!-- Node4&#45;&gt;Node28 -->
<g id="edge58" class="edge">
<title>Node4&#45;&gt;Node28</title>
<path fill="none" stroke="#191970" d="M1595.1998,-412.7682C1455.2765,-411.5942 950.0966,-404.7548 890,-367 873.3709,-356.553 863.5457,-335.7993 858.2487,-320.3396"/>
<polygon fill="#191970" stroke="#191970" points="861.5614,-319.2041 855.2772,-310.6742 854.8705,-321.2613 861.5614,-319.2041"/>
</g>
<!-- Node31 -->
<g id="node32" class="node">
<title>Node31</title>
<g id="a_node32"><a xlink:href="../../d5/ddf/DedupEncoder_8h.html" target="_top" xlink:title="DedupEncoder.h">
<polygon fill="none" stroke="#000000" points="1586.5,-347.5 1586.5,-366.5 1675.5,-366.5 1675.5,-347.5 1586.5,-347.5"/>
<text text-anchor="middle" x="1631" y="-354.5" font-family="Helvetica,sans-Serif" font-size="10.00" fill="#000000">DedupEncoder.h</text>
</a>
</g>
</g>
<!-- Node4&#45;&gt;Node31 -->
<g id="edge83" class="edge">
<title>Node4&#45;&gt;Node31</title>
<path fill="none" stroke="#191970" d="M1631,-403.2455C1631,-395.9382 1631,-385.6944 1631,-376.7046"/>
<polygon fill="#191970" stroke="#191970" points="1634.5001,-376.6426 1631,-366.6427 1627.5001,-376.6427 1634.5001,-376.6426"/>
</g>
<!-- Node34 -->
<g id="node35" class="node">
<title>Node34</title>
<g id="a_node35"><a xlink:href="../../da/da6/DedupDecoder_8h.html" target="_top" xlink:title="DedupDecoder.h">
<polygon fill="none" stroke="#000000" points="899,-347.5 899,-366.5 989,-366.5 989,-347.5 899,-347.5"/>
<text text-anchor="middle" x="944" y="-354.5" font-family="Helvetica,sans-Serif" font-size="10.00" fill="#000000">DedupDecoder.h</text>
</a>
</g>
</g>
<!-- Node4&#45;&gt;Node34 -->
<g id="edge96" class="edge">
<title>Node4&#45;&gt;Node34</title>
<path fill="none" stroke="#191970" d="M1595.1693,-411.785C1499.8409,-408.2572 1231.9546,-396.4177 999.0369,-367.0009"/>
<polygon fill="#191970" stroke="#191970" points="999.3854,-363.5171 989.0226,-365.7224 998.4988,-370.4607 999.3854,-363.5171"/>
</g>
<!-- Node35 -->
<g id="node36" class="node">
<title>Node35</title>
<g id="a_node36"><a xlink:href="../../d9/de1/LiteralEncoder_8h.html" target="_top" xlink:title="LiteralEncoder.h">
<polygon fill="none" stroke="#000000" points="1936.5,-347.5 1936.5,-366.5 2023.5,-366.5 2023.5,-347.5 1936.5,-347.5"/>
<text text-anchor="middle" x="1980" y="-354.5" font-family="Helvetica,sans-Serif" font-size="10.00" fill="#000000">LiteralEncoder.h</text>
</a>
</g>
</g>
<!-- Node4&#45;&gt;Node35 -->
<g id="edge107" class="edge">
<title>Node4&#45;&gt;Node35</title>
<path fill="none" stroke="#191970" d="M1666.709,-407.2702C1728.1406,-397.413 1854.1537,-377.1931 1926.2405,-365.6262"/>
<polygon fill="#191970" stroke="#191970" points="1927.1517,-369.0248 1936.4709,-363.9846 1926.0427,-362.1132 1927.1517,-369.0248"/>
</g>
<!-- Node36 -->
<g id="node37" class="node">
<title>Node36</title>
<g id="a_node37"><a xlink:href="../../df/dfe/LiteralDecoder_8h.html" target="_top" xlink:title="LiteralDecoder.h">
<polygon fill="none" stroke="#000000" points="1007,-347.5 1007,-366.5 1095,-366.5 1095,-347.5 1007,-347.5"/>
<text text-anchor="middle" x="1051" y="-354.5" font-family="Helvetica,sans-Serif" font-size="10.00" fill="#000000">LiteralDecoder.h</text>
</a>
</g>
</g>
<!-- Node4&#45;&gt;Node36 -->
<g id="edge117" class="edge">
<title>Node4&#45;&gt;Node36</title>
<path fill="none" stroke="#191970" d="M1595.1561,-409.5392C1496.8615,-400.0487 1222.5856,-373.5669 1105.3086,-362.2436"/>
<polygon fill="#191970" stroke="#191970" points="1105.4182,-358.738 1095.1281,-361.2606 1104.7454,-365.7056 1105.4182,-358.738"/>
</g>
<!-- Node5&#45;&gt;Node2 -->
<g id="edge12" class="edge">
<title>Node5&#45;&gt;Node2</title>
<path fill="none" stroke="#191970" d="M607.0645,-112.4369C565.8225,-102.3073 500.9854,-86.3824 458.9824,-76.0659"/>
<polygon fill="#191970" stroke="#191970" points="459.6306,-72.6211 449.0844,-73.6348 457.9609,-79.4191 459.6306,-72.6211"/>
</g>
<!-- Node6 -->
<g id="node7" class="node">
<title>Node6</title>
<polygon fill="none" stroke="#bfbfbf" points="2089,-56.5 2089,-75.5 2145,-75.5 2145,-56.5 2089,-56.5"/>
<text text-anchor="middle" x="2117" y="-63.5" font-family="Helvetica,sans-Serif" font-size="10.00" fill="#000000">algorithm</text>
</g>
<!-- Node5&#45;&gt;Node6 -->
<g id="edge6" class="edge">
<title>Node5&#45;&gt;Node6</title>
<path fill="none" stroke="#191970" d="M693.6908,-120.1844C918.9952,-111.6073 1874.329,-75.2383 2078.502,-67.4656"/>
<polygon fill="#191970" stroke="#191970" points="2078.8721,-70.9541 2088.7317,-67.0762 2078.6058,-63.9592 2078.8721,-70.9541"/>
</g>
<!-- Node7 -->
<g id="node8" class="node">
<title>Node7</title>
<polygon fill="none" stroke="#bfbfbf" points="1039.5,-56.5 1039.5,-75.5 1088.5,-75.5 1088.5,-56.5 1039.5,-56.5"/>
<text text-anchor="middle" x="1064" y="-63.5" font-family="Helvetica,sans-Serif" font-size="10.00" fill="#000000">cassert</text>
</g>
<!-- Node5&#45;&gt;Node7 -->
<g id="edge7" class="edge">
<title>Node5&#45;&gt;Node7</title>
<path fill="none" stroke="#191970" d="M693.543,-115.6306C778.3858,-104.2641 953.9911,-80.738 1028.9017,-70.7022"/>
<polygon fill="#191970" stroke="#191970" points="1029.754,-74.1193 1039.2007,-69.3224 1028.8244,-67.1813 1029.754,-74.1193"/>
</g>
<!-- Node8 -->
<g id="node9" class="node">
<title>Node8</title>
<polygon fill="none" stroke="#bfbfbf" points="1061,-.5 1061,-19.5 1105,-19.5 1105,-.5 1061,-.5"/>
<text text-anchor="middle" x="1083" y="-7.5" font-family="Helvetica,sans-Serif" font-size="10.00" fill="#000000">cmath</text>
</g>
<!-- Node5&#45;&gt;Node8 -->
<g id="edge8" class="edge">
<title>Node5&#45;&gt;Node8</title>
<path fill="none" stroke="#191970" d="M646.4846,-112.0827C647.7862,-97.2895 652.5584,-69.7184 670,-56 699.762,-32.5913 958.4583,-16.6405 1050.5896,-11.6583"/>
<polygon fill="#191970" stroke="#191970" points="1050.9256,-15.1454 1060.7252,-11.1183 1050.5531,-8.1553 1050.9256,-15.1454"/>
</g>
<!-- Node9 -->
<g id="node10" class="node">
<title>Node9</title>
<polygon fill="none" stroke="#bfbfbf" points="163,-56.5 163,-75.5 217,-75.5 217,-56.5 163,-56.5"/>
<text text-anchor="middle" x="190" y="-63.5" font-family="Helvetica,sans-Serif" font-size="10.00" fill="#000000">iostream</text>
</g>
<!-- Node5&#45;&gt;Node9 -->
<g id="edge9" class="edge">
<title>Node5&#45;&gt;Node9</title>
<path fill="none" stroke="#191970" d="M598.4905,-116.1655C507.3625,-104.9743 309.7537,-80.7066 227.306,-70.5814"/>
<polygon fill="#191970" stroke="#191970" points="227.4988,-67.0789 217.1467,-69.3338 226.6455,-74.0267 227.4988,-67.0789"/>
</g>
<!-- Node10 -->
<g id="node11" class="node">
<title>Node10</title>
<polygon fill="none" stroke="#bfbfbf" points="679.5,-56.5 679.5,-75.5 726.5,-75.5 726.5,-56.5 679.5,-56.5"/>
<text text-anchor="middle" x="703" y="-63.5" font-family="Helvetica,sans-Serif" font-size="10.00" fill="#000000">iterator</text>
</g>
<!-- Node5&#45;&gt;Node10 -->
<g id="edge10" class="edge">
<title>Node5&#45;&gt;Node10</title>
<path fill="none" stroke="#191970" d="M655.9286,-112.2455C664.1838,-104.1352 676.1209,-92.4075 685.9082,-82.7919"/>
<polygon fill="#191970" stroke="#191970" points="688.5046,-85.1476 693.1851,-75.6427 683.5989,-80.1542 688.5046,-85.1476"/>
</g>
<!-- Node11 -->
<g id="node12" class="node">
<title>Node11</title>
<polygon fill="none" stroke="#bfbfbf" points="556.5,-56.5 556.5,-75.5 607.5,-75.5 607.5,-56.5 556.5,-56.5"/>
<text text-anchor="middle" x="582" y="-63.5" font-family="Helvetica,sans-Serif" font-size="10.00" fill="#000000">numeric</text>
</g>
<!-- Node5&#45;&gt;Node11 -->
<g id="edge11" class="edge">
<title>Node5&#45;&gt;Node11</title>
<path fill="none" stroke="#191970" d="M634.8521,-112.2455C625.4913,-104.0549 611.9142,-92.1749 600.8651,-82.5069"/>
<polygon fill="#191970" stroke="#191970" points="602.8508,-79.5937 593.0202,-75.6427 598.2412,-84.8618 602.8508,-79.5937"/>
</g>
<!-- Node12 -->
<g id="node13" class="node">
<title>Node12</title>
<polygon fill="none" stroke="#bfbfbf" points="871,-56.5 871,-75.5 915,-75.5 915,-56.5 871,-56.5"/>
<text text-anchor="middle" x="893" y="-63.5" font-family="Helvetica,sans-Serif" font-size="10.00" fill="#000000">vector</text>
</g>
<!-- Node5&#45;&gt;Node12 -->
<g id="edge13" class="edge">
<title>Node5&#45;&gt;Node12</title>
<path fill="none" stroke="#191970" d="M688.1802,-112.4369C737.1629,-101.3315 816.8688,-83.2605 861.0188,-73.2508"/>
<polygon fill="#191970" stroke="#191970" points="861.9389,-76.6311 870.9175,-71.0066 860.391,-69.8044 861.9389,-76.6311"/>
</g>
<!-- Node13 -->
<g id="node14" class="node">
<title>Node13</title>
<polygon fill="none" stroke="#bfbfbf" points="1129.5,-56.5 1129.5,-75.5 1226.5,-75.5 1226.5,-56.5 1129.5,-56.5"/>
<text text-anchor="middle" x="1178" y="-63.5" font-family="Helvetica,sans-Serif" font-size="10.00" fill="#000000">fairlogger/Logger.h</text>
</g>
<!-- Node5&#45;&gt;Node13 -->
<g id="edge14" class="edge">
<title>Node5&#45;&gt;Node13</title>
<path fill="none" stroke="#191970" d="M693.764,-117.4639C776.1244,-109.567 950.1615,-92.5507 1097,-76 1104.1633,-75.1926 1111.6784,-74.3112 1119.1226,-73.417"/>
<polygon fill="#191970" stroke="#191970" points="1119.6846,-76.8746 1129.1903,-72.1956 1118.8415,-69.9256 1119.6846,-76.8746"/>
</g>
<!-- Node5&#45;&gt;Node14 -->
<g id="edge15" class="edge">
<title>Node5&#45;&gt;Node14</title>
<path fill="none" stroke="#191970" d="M693.7542,-119.146C852.745,-109.6438 1363.5042,-79.1182 1529.989,-69.1682"/>
<polygon fill="#191970" stroke="#191970" points="1530.2137,-72.6611 1539.987,-68.5707 1529.796,-65.6736 1530.2137,-72.6611"/>
</g>
<!-- Node14&#45;&gt;Node8 -->
<g id="edge17" class="edge">
<title>Node14&#45;&gt;Node8</title>
<path fill="none" stroke="#191970" d="M1539.9375,-61.177C1441.5895,-50.162 1202.2766,-23.359 1115.2872,-13.6162"/>
<polygon fill="#191970" stroke="#191970" points="1115.5462,-10.1234 1105.2187,-12.4885 1114.767,-17.0799 1115.5462,-10.1234"/>
</g>
<!-- Node15 -->
<g id="node16" class="node">
<title>Node15</title>
<polygon fill="none" stroke="#bfbfbf" points="146.5,-.5 146.5,-19.5 195.5,-19.5 195.5,-.5 146.5,-.5"/>
<text text-anchor="middle" x="171" y="-7.5" font-family="Helvetica,sans-Serif" font-size="10.00" fill="#000000">cstddef</text>
</g>
<!-- Node14&#45;&gt;Node15 -->
<g id="edge16" class="edge">
<title>Node14&#45;&gt;Node15</title>
<path fill="none" stroke="#191970" d="M1539.9707,-64.2935C1328.021,-55.8875 397.5339,-18.9843 205.6758,-11.3752"/>
<polygon fill="#191970" stroke="#191970" points="205.727,-7.8746 195.5961,-10.9755 205.4495,-14.8691 205.727,-7.8746"/>
</g>
<!-- Node16 -->
<g id="node17" class="node">
<title>Node16</title>
<polygon fill="none" stroke="#bfbfbf" points="1560,-.5 1560,-19.5 1606,-19.5 1606,-.5 1560,-.5"/>
<text text-anchor="middle" x="1583" y="-7.5" font-family="Helvetica,sans-Serif" font-size="10.00" fill="#000000">chrono</text>
</g>
<!-- Node14&#45;&gt;Node16 -->
<g id="edge18" class="edge">
<title>Node14&#45;&gt;Node16</title>
<path fill="none" stroke="#191970" d="M1583,-56.2455C1583,-48.9382 1583,-38.6944 1583,-29.7046"/>
<polygon fill="#191970" stroke="#191970" points="1586.5001,-29.6426 1583,-19.6427 1579.5001,-29.6427 1586.5001,-29.6426"/>
</g>
<!-- Node17&#45;&gt;Node5 -->
<g id="edge57" class="edge">
<title>Node17&#45;&gt;Node5</title>
<path fill="none" stroke="#191970" d="M1719.4285,-299.4702C1601.3227,-293.49 1174.7468,-271.2252 1040,-255 1034.6928,-254.3609 664.8704,-191.6871 661,-188 648.6609,-176.2453 645.4883,-156.6263 645.0565,-141.8265"/>
<polygon fill="#191970" stroke="#191970" points="648.5578,-141.6916 645.154,-131.6584 641.5581,-141.6244 648.5578,-141.6916"/>
</g>
<!-- Node17&#45;&gt;Node6 -->
<g id="edge34" class="edge">
<title>Node17&#45;&gt;Node6</title>
<path fill="none" stroke="#191970" d="M1765.2508,-291.493C1779.2985,-282.5486 1800.5448,-268.5418 1818,-255 1834.4183,-242.2626 1835.273,-234.8424 1853,-224 1890.4571,-201.0901 1906.3617,-208.8563 1945,-188 2004.1901,-156.0502 2067.0124,-107.1218 2097.7666,-82.0415"/>
<polygon fill="#191970" stroke="#191970" points="2100.0587,-84.6881 2105.5608,-75.6339 2095.6133,-79.2808 2100.0587,-84.6881"/>
</g>
<!-- Node17&#45;&gt;Node13 -->
<g id="edge36" class="edge">
<title>Node17&#45;&gt;Node13</title>
<path fill="none" stroke="#191970" d="M1755.3832,-291.1797C1766.8525,-268.95 1791.5824,-213.1961 1778,-168 1769.4145,-139.4314 1766.6743,-127.1891 1741,-112 1698.3785,-86.7848 1372.5225,-72.7229 1236.9182,-67.9116"/>
<polygon fill="#191970" stroke="#191970" points="1236.832,-64.4066 1226.7156,-67.5544 1236.587,-71.4023 1236.832,-64.4066"/>
</g>
<!-- Node17&#45;&gt;Node14 -->
<g id="edge39" class="edge">
<title>Node17&#45;&gt;Node14</title>
<path fill="none" stroke="#191970" d="M1757.3238,-291.0653C1769.2059,-275.4208 1793.9876,-244.6978 1820,-224 1889.068,-169.0434 2042.7484,-177.8729 1984,-112 1961.2564,-86.4982 1740.3816,-73.1531 1636.4986,-68.2441"/>
<polygon fill="#191970" stroke="#191970" points="1636.3735,-64.7347 1626.2222,-67.7681 1636.0495,-71.7272 1636.3735,-64.7347"/>
</g>
<!-- Node18 -->
<g id="node19" class="node">
<title>Node18</title>
<g id="a_node19"><a xlink:href="../../de/d8e/Utilities_2rANS_2include_2rANS_2internal_2Encoder_8h.html" target="_top" xlink:title="internal/Encoder.h">
<polygon fill="none" stroke="#000000" points="1520.5,-230 1520.5,-249 1615.5,-249 1615.5,-230 1520.5,-230"/>
<text text-anchor="middle" x="1568" y="-237" font-family="Helvetica,sans-Serif" font-size="10.00" fill="#000000">internal/Encoder.h</text>
</a>
</g>
</g>
<!-- Node17&#45;&gt;Node18 -->
<g id="edge20" class="edge">
<title>Node17&#45;&gt;Node18</title>
<path fill="none" stroke="#191970" d="M1721.5625,-291.3906C1690.4428,-280.8749 1640.4036,-263.966 1605.9515,-252.3243"/>
<polygon fill="#191970" stroke="#191970" points="1606.832,-248.9274 1596.2378,-249.0419 1604.5911,-255.5591 1606.832,-248.9274"/>
</g>
<!-- Node22 -->
<g id="node23" class="node">
<title>Node22</title>
<g id="a_node23"><a xlink:href="../../d2/d53/EncoderSymbol_8h.html" target="_top" xlink:title="Structure containing all relevant information to encode a symbol. ">
<polygon fill="none" stroke="#000000" points="1642,-168.5 1642,-187.5 1736,-187.5 1736,-168.5 1642,-168.5"/>
<text text-anchor="middle" x="1689" y="-175.5" font-family="Helvetica,sans-Serif" font-size="10.00" fill="#000000">EncoderSymbol.h</text>
</a>
</g>
</g>
<!-- Node17&#45;&gt;Node22 -->
<g id="edge38" class="edge">
<title>Node17&#45;&gt;Node22</title>
<path fill="none" stroke="#191970" d="M1745.2134,-291.3484C1735.1021,-270.9601 1711.4179,-223.2033 1698.2472,-196.6459"/>
<polygon fill="#191970" stroke="#191970" points="1701.3429,-195.0105 1693.7643,-187.6068 1695.0718,-198.1206 1701.3429,-195.0105"/>
</g>
<!-- Node23 -->
<g id="node24" class="node">
<title>Node23</title>
<polygon fill="none" stroke="#bfbfbf" points="1450,-230 1450,-249 1502,-249 1502,-230 1450,-230"/>
<text text-anchor="middle" x="1476" y="-237" font-family="Helvetica,sans-Serif" font-size="10.00" fill="#000000">memory</text>
</g>
<!-- Node17&#45;&gt;Node23 -->
<g id="edge33" class="edge">
<title>Node17&#45;&gt;Node23</title>
<path fill="none" stroke="#191970" d="M1719.2721,-297.3547C1673.2391,-291.3889 1583.9849,-277.8587 1511,-255 1509.0975,-254.4041 1507.1602,-253.7351 1505.2224,-253.0181"/>
<polygon fill="#191970" stroke="#191970" points="1506.2707,-249.6664 1495.6883,-249.1519 1503.6401,-256.1533 1506.2707,-249.6664"/>
</g>
<!-- Node24 -->
<g id="node25" class="node">
<title>Node24</title>
<polygon fill="none" stroke="#bfbfbf" points="1862,-230 1862,-249 1912,-249 1912,-230 1862,-230"/>
<text text-anchor="middle" x="1887" y="-237" font-family="Helvetica,sans-Serif" font-size="10.00" fill="#000000">iomanip</text>
</g>
<!-- Node17&#45;&gt;Node24 -->
<g id="edge35" class="edge">
<title>Node17&#45;&gt;Node24</title>
<path fill="none" stroke="#191970" d="M1771.4063,-291.3906C1794.2283,-281.1457 1830.5679,-264.8326 1856.4057,-253.2339"/>
<polygon fill="#191970" stroke="#191970" points="1858.0545,-256.3303 1865.7441,-249.0419 1855.1877,-249.9443 1858.0545,-256.3303"/>
</g>
<!-- Node25 -->
<g id="node26" class="node">
<title>Node25</title>
<polygon fill="none" stroke="#bfbfbf" points="1930.5,-230 1930.5,-249 1989.5,-249 1989.5,-230 1930.5,-230"/>
<text text-anchor="middle" x="1960" y="-237" font-family="Helvetica,sans-Serif" font-size="10.00" fill="#000000">stdexcept</text>
</g>
<!-- Node17&#45;&gt;Node25 -->
<g id="edge37" class="edge">
<title>Node17&#45;&gt;Node25</title>
<path fill="none" stroke="#191970" d="M1780.5856,-293.9034C1815.0444,-285.6476 1872.5661,-271.0795 1921,-255 1923.135,-254.2912 1925.3222,-253.5279 1927.5181,-252.7336"/>
<polygon fill="#191970" stroke="#191970" points="1928.9486,-255.9347 1937.0653,-249.1252 1926.4737,-249.3868 1928.9486,-255.9347"/>
</g>
<!-- Node26 -->
<g id="node27" class="node">
<title>Node26</title>
<g id="a_node27"><a xlink:href="../../d8/dd9/SymbolTable_8h.html" target="_top" xlink:title="Container for information needed to encode/decode a symbol of the alphabet. ">
<polygon fill="none" stroke="#000000" points="1277,-230 1277,-249 1393,-249 1393,-230 1277,-230"/>
<text text-anchor="middle" x="1335" y="-237" font-family="Helvetica,sans-Serif" font-size="10.00" fill="#000000">internal/SymbolTable.h</text>
</a>
</g>
</g>
<!-- Node17&#45;&gt;Node26 -->
<g id="edge40" class="edge">
<title>Node17&#45;&gt;Node26</title>
<path fill="none" stroke="#191970" d="M1719.4841,-296.4778C1653.1789,-286.6518 1494.5891,-263.15 1403.1431,-249.5983"/>
<polygon fill="#191970" stroke="#191970" points="1403.5554,-246.1213 1393.1503,-248.1175 1402.5292,-253.0457 1403.5554,-246.1213"/>
</g>
<!-- Node18&#45;&gt;Node2 -->
<g id="edge24" class="edge">
<title>Node18&#45;&gt;Node2</title>
<path fill="none" stroke="#191970" d="M1537.8019,-229.9421C1529.2237,-227.5961 1519.8165,-225.3678 1511,-224 1137.3537,-166.0304 1030.2921,-269.2121 661,-188 629.0787,-180.9801 554.1156,-146.8503 525,-132 494.5473,-116.4677 461.3054,-95.2362 440.0862,-81.0932"/>
<polygon fill="#191970" stroke="#191970" points="442.0232,-78.178 431.7716,-75.5032 438.1176,-83.9872 442.0232,-78.178"/>
</g>
<!-- Node18&#45;&gt;Node7 -->
<g id="edge23" class="edge">
<title>Node18&#45;&gt;Node7</title>
<path fill="none" stroke="#191970" d="M1574.1335,-229.9768C1588.4194,-206.4907 1620.396,-145.297 1589,-112 1553.1449,-73.9739 1171.8457,-82.6021 1120,-76 1113.0886,-75.1199 1105.7337,-73.9655 1098.7046,-72.7547"/>
<polygon fill="#191970" stroke="#191970" points="1099.1897,-69.2859 1088.7289,-70.9659 1097.9541,-76.176 1099.1897,-69.2859"/>
</g>
<!-- Node18&#45;&gt;Node12 -->
<g id="edge21" class="edge">
<title>Node18&#45;&gt;Node12</title>
<path fill="none" stroke="#191970" d="M1565.7605,-229.8502C1559.235,-204.3328 1537.5432,-135.4325 1489,-112 1485.7896,-110.4503 1048.5619,-77.6387 925.1177,-68.401"/>
<polygon fill="#191970" stroke="#191970" points="925.3756,-64.9106 915.1423,-67.6547 924.8533,-71.8911 925.3756,-64.9106"/>
</g>
<!-- Node18&#45;&gt;Node14 -->
<g id="edge32" class="edge">
<title>Node18&#45;&gt;Node14</title>
<path fill="none" stroke="#191970" d="M1615.7737,-232.1546C1662.6929,-223.8492 1729.4396,-208.7332 1745,-188 1782.9373,-137.4512 1688.0194,-97.807 1627.909,-78.6286"/>
<polygon fill="#191970" stroke="#191970" points="1628.8108,-75.2438 1618.2225,-75.6176 1626.7328,-81.9283 1628.8108,-75.2438"/>
</g>
<!-- Node19 -->
<g id="node20" class="node">
<title>Node19</title>
<polygon fill="none" stroke="#bfbfbf" points="1434,-112.5 1434,-131.5 1480,-131.5 1480,-112.5 1434,-112.5"/>
<text text-anchor="middle" x="1457" y="-119.5" font-family="Helvetica,sans-Serif" font-size="10.00" fill="#000000">cstdint</text>
</g>
<!-- Node18&#45;&gt;Node19 -->
<g id="edge22" class="edge">
<title>Node18&#45;&gt;Node19</title>
<path fill="none" stroke="#191970" d="M1562.8468,-229.9757C1554.7504,-215.5426 1537.9997,-187.7262 1519,-168 1507.7023,-156.2703 1493.1618,-145.3124 1481.0019,-137.0361"/>
<polygon fill="#191970" stroke="#191970" points="1482.9202,-134.1086 1472.6488,-131.5109 1479.0584,-139.947 1482.9202,-134.1086"/>
</g>
<!-- Node20 -->
<g id="node21" class="node">
<title>Node20</title>
<polygon fill="none" stroke="#bfbfbf" points="1472,-168.5 1472,-187.5 1510,-187.5 1510,-168.5 1472,-168.5"/>
<text text-anchor="middle" x="1491" y="-175.5" font-family="Helvetica,sans-Serif" font-size="10.00" fill="#000000">tuple</text>
</g>
<!-- Node18&#45;&gt;Node20 -->
<g id="edge25" class="edge">
<title>Node18&#45;&gt;Node20</title>
<path fill="none" stroke="#191970" d="M1555.9688,-229.8906C1543.9893,-220.3227 1525.3834,-205.4621 1511.1475,-194.0919"/>
<polygon fill="#191970" stroke="#191970" points="1512.9447,-191.0479 1502.9468,-187.5419 1508.5761,-196.5175 1512.9447,-191.0479"/>
</g>
<!-- Node21 -->
<g id="node22" class="node">
<title>Node21</title>
<g id="a_node22"><a xlink:href="../../d7/d99/DecoderSymbol_8h.html" target="_top" xlink:title="Structure containing all relevant information for decoding a rANS encoded symbol. ...">
<polygon fill="none" stroke="#000000" points="1168.5,-168.5 1168.5,-187.5 1263.5,-187.5 1263.5,-168.5 1168.5,-168.5"/>
<text text-anchor="middle" x="1216" y="-175.5" font-family="Helvetica,sans-Serif" font-size="10.00" fill="#000000">DecoderSymbol.h</text>
</a>
</g>
</g>
<!-- Node18&#45;&gt;Node21 -->
<g id="edge26" class="edge">
<title>Node18&#45;&gt;Node21</title>
<path fill="none" stroke="#191970" d="M1535.2974,-229.9403C1527.3848,-227.8125 1518.9234,-225.6896 1511,-224 1429.1731,-206.5508 1333.2552,-192.8183 1273.5458,-185.0525"/>
<polygon fill="#191970" stroke="#191970" points="1273.9216,-181.5721 1263.5563,-183.7651 1273.0268,-188.5147 1273.9216,-181.5721"/>
</g>
<!-- Node18&#45;&gt;Node22 -->
<g id="edge28" class="edge">
<title>Node18&#45;&gt;Node22</title>
<path fill="none" stroke="#191970" d="M1586.9063,-229.8906C1606.7966,-219.7811 1638.3123,-203.7628 1661.0692,-192.1962"/>
<polygon fill="#191970" stroke="#191970" points="1662.8978,-195.193 1670.2265,-187.5419 1659.726,-188.9528 1662.8978,-195.193"/>
</g>
<!-- Node21&#45;&gt;Node19 -->
<g id="edge27" class="edge">
<title>Node21&#45;&gt;Node19</title>
<path fill="none" stroke="#191970" d="M1257.1555,-168.4369C1304.3261,-157.4761 1380.698,-139.7299 1424.0955,-129.6459"/>
<polygon fill="#191970" stroke="#191970" points="1424.9167,-133.0484 1433.865,-127.3758 1423.3323,-126.23 1424.9167,-133.0484"/>
</g>
<!-- Node22&#45;&gt;Node7 -->
<g id="edge30" class="edge">
<title>Node22&#45;&gt;Node7</title>
<path fill="none" stroke="#191970" d="M1683.2454,-168.2217C1673.7247,-153.0817 1653.1251,-124.4195 1627,-112 1524.9897,-63.5058 1232.0859,-89.9473 1120,-76 1113.0861,-75.1397 1105.7301,-73.9941 1098.7007,-72.7858"/>
<polygon fill="#191970" stroke="#191970" points="1099.1859,-69.3171 1088.725,-70.9966 1097.95,-76.2071 1099.1859,-69.3171"/>
</g>
<!-- Node22&#45;&gt;Node14 -->
<g id="edge31" class="edge">
<title>Node22&#45;&gt;Node14</title>
<path fill="none" stroke="#191970" d="M1687.6669,-168.4256C1685.3013,-154.5607 1679.208,-128.7264 1665,-112 1653.0107,-97.8857 1635.5429,-87.247 1619.8073,-79.7754"/>
<polygon fill="#191970" stroke="#191970" points="1620.8561,-76.4107 1610.298,-75.5298 1618.0023,-82.8026 1620.8561,-76.4107"/>
</g>
<!-- Node22&#45;&gt;Node19 -->
<g id="edge29" class="edge">
<title>Node22&#45;&gt;Node19</title>
<path fill="none" stroke="#191970" d="M1649.3814,-168.4369C1604.4269,-157.5858 1531.9214,-140.0845 1489.9396,-129.9509"/>
<polygon fill="#191970" stroke="#191970" points="1490.7523,-126.5467 1480.2102,-127.6025 1489.1097,-133.3512 1490.7523,-126.5467"/>
</g>
<!-- Node26&#45;&gt;Node8 -->
<g id="edge43" class="edge">
<title>Node26&#45;&gt;Node8</title>
<path fill="none" stroke="#191970" d="M1335.4307,-229.8123C1335.7028,-215.6446 1334.8478,-188.7092 1326,-168 1300.8015,-109.0202 1288.2523,-91.746 1235,-56 1198.2883,-31.357 1147.9219,-19.537 1115.4159,-14.1449"/>
<polygon fill="#191970" stroke="#191970" points="1115.5397,-10.6226 1105.1224,-12.5535 1114.4702,-17.5404 1115.5397,-10.6226"/>
</g>
<!-- Node26&#45;&gt;Node12 -->
<g id="edge41" class="edge">
<title>Node26&#45;&gt;Node12</title>
<path fill="none" stroke="#191970" d="M1328.9899,-229.525C1319.0927,-213.9704 1297.861,-184.0593 1272,-168 1157.7098,-97.0277 994.2765,-74.858 925.4834,-68.429"/>
<polygon fill="#191970" stroke="#191970" points="925.5464,-64.921 915.2772,-67.5273 924.9303,-71.8939 925.5464,-64.921"/>
</g>
<!-- Node26&#45;&gt;Node13 -->
<g id="edge44" class="edge">
<title>Node26&#45;&gt;Node13</title>
<path fill="none" stroke="#191970" d="M1332.7891,-229.9267C1329.0932,-215.4297 1320.5915,-187.5308 1306,-168 1277.7636,-130.2052 1232.3126,-98.5306 1203.8534,-80.9351"/>
<polygon fill="#191970" stroke="#191970" points="1205.6207,-77.9136 1195.2539,-75.7271 1201.9945,-83.9011 1205.6207,-77.9136"/>
</g>
<!-- Node26&#45;&gt;Node19 -->
<g id="edge42" class="edge">
<title>Node26&#45;&gt;Node19</title>
<path fill="none" stroke="#191970" d="M1344.9838,-229.8845C1365.7163,-209.9167 1413.6583,-163.743 1439.5912,-138.7667"/>
<polygon fill="#191970" stroke="#191970" points="1442.1035,-141.2063 1446.8783,-131.7484 1437.2476,-136.1645 1442.1035,-141.2063"/>
</g>
<!-- Node27 -->
<g id="node28" class="node">
<title>Node27</title>
<g id="a_node28"><a xlink:href="../../d0/d51/SymbolStatistics_8h.html" target="_top" xlink:title="Structure to depict the distribution of symbols in the source message. ">
<polygon fill="none" stroke="#000000" points="670.5,-168.5 670.5,-187.5 769.5,-187.5 769.5,-168.5 670.5,-168.5"/>
<text text-anchor="middle" x="720" y="-175.5" font-family="Helvetica,sans-Serif" font-size="10.00" fill="#000000">SymbolStatistics.h</text>
</a>
</g>
</g>
<!-- Node26&#45;&gt;Node27 -->
<g id="edge45" class="edge">
<title>Node26&#45;&gt;Node27</title>
<path fill="none" stroke="#191970" d="M1276.8653,-233.6865C1160.051,-222.0051 897.9387,-195.7939 779.7768,-183.9777"/>
<polygon fill="#191970" stroke="#191970" points="780.1177,-180.4944 769.819,-182.9819 779.4211,-187.4597 780.1177,-180.4944"/>
</g>
<!-- Node27&#45;&gt;Node2 -->
<g id="edge53" class="edge">
<title>Node27&#45;&gt;Node2</title>
<path fill="none" stroke="#191970" d="M687.6536,-168.4261C658.5003,-159.6009 614.5725,-145.8146 577,-132 531.7489,-115.3621 480.3932,-93.4862 448.5936,-79.5798"/>
<polygon fill="#191970" stroke="#191970" points="449.9443,-76.3504 439.381,-75.5345 447.1299,-82.7597 449.9443,-76.3504"/>
</g>
<!-- Node27&#45;&gt;Node5 -->
<g id="edge56" class="edge">
<title>Node27&#45;&gt;Node5</title>
<path fill="none" stroke="#191970" d="M707.1102,-168.2455C696.0746,-159.8943 679.9708,-147.7076 667.0647,-137.9408"/>
<polygon fill="#191970" stroke="#191970" points="668.8283,-134.8862 658.7421,-131.6427 664.6041,-140.4681 668.8283,-134.8862"/>
</g>
<!-- Node27&#45;&gt;Node6 -->
<g id="edge46" class="edge">
<title>Node27&#45;&gt;Node6</title>
<path fill="none" stroke="#191970" d="M769.5347,-172.8993C884.5547,-161.157 1178.6962,-131.7119 1425,-112 1674.1857,-92.0575 1974.344,-74.2061 2078.8955,-68.171"/>
<polygon fill="#191970" stroke="#191970" points="2079.183,-71.6603 2088.9653,-67.5914 2078.7807,-64.6719 2079.183,-71.6603"/>
</g>
<!-- Node27&#45;&gt;Node7 -->
<g id="edge47" class="edge">
<title>Node27&#45;&gt;Node7</title>
<path fill="none" stroke="#191970" d="M743.6719,-168.492C777.5669,-155.0457 842.0217,-130.0981 898,-112 942.9994,-97.4515 995.7486,-83.3237 1029.5012,-74.6486"/>
<polygon fill="#191970" stroke="#191970" points="1030.5137,-78.0024 1039.3367,-72.1369 1028.7816,-71.2201 1030.5137,-78.0024"/>
</g>
<!-- Node27&#45;&gt;Node8 -->
<g id="edge51" class="edge">
<title>Node27&#45;&gt;Node8</title>
<path fill="none" stroke="#191970" d="M727.7834,-168.4655C747.4985,-145.0293 802.1104,-84.4508 862,-56 924.6255,-26.2495 1006.2379,-15.6498 1050.6865,-11.94"/>
<polygon fill="#191970" stroke="#191970" points="1051.1892,-15.4117 1060.8917,-11.156 1050.653,-8.4323 1051.1892,-15.4117"/>
</g>
<!-- Node27&#45;&gt;Node9 -->
<g id="edge48" class="edge">
<title>Node27&#45;&gt;Node9</title>
<path fill="none" stroke="#191970" d="M674.8125,-168.4509C571.9046,-146.7044 321.7075,-93.8325 227.0817,-73.8361"/>
<polygon fill="#191970" stroke="#191970" points="227.6193,-70.3725 217.1117,-71.7293 226.172,-77.2213 227.6193,-70.3725"/>
</g>
<!-- Node27&#45;&gt;Node10 -->
<g id="edge52" class="edge">
<title>Node27&#45;&gt;Node10</title>
<path fill="none" stroke="#191970" d="M718.5506,-168.4509C715.7779,-150.184 709.6718,-109.9553 705.9898,-85.6976"/>
<polygon fill="#191970" stroke="#191970" points="709.4069,-84.8864 704.4457,-75.5249 702.4861,-85.9369 709.4069,-84.8864"/>
</g>
<!-- Node27&#45;&gt;Node11 -->
<g id="edge49" class="edge">
<title>Node27&#45;&gt;Node11</title>
<path fill="none" stroke="#191970" d="M677.9991,-168.4207C644.129,-159.8003 600.3298,-146.3189 589,-132 578.845,-119.166 577.8035,-100.2571 578.8888,-85.9647"/>
<polygon fill="#191970" stroke="#191970" points="582.4043,-86.0335 580.0817,-75.6964 575.4511,-85.2257 582.4043,-86.0335"/>
</g>
<!-- Node27&#45;&gt;Node12 -->
<g id="edge50" class="edge">
<title>Node27&#45;&gt;Node12</title>
<path fill="none" stroke="#191970" d="M734.7499,-168.4509C764.881,-148.9441 833.6962,-104.3932 869.8445,-80.9909"/>
<polygon fill="#191970" stroke="#191970" points="871.7951,-83.8975 878.2875,-75.5249 867.9909,-78.0214 871.7951,-83.8975"/>
</g>
<!-- Node27&#45;&gt;Node13 -->
<g id="edge54" class="edge">
<title>Node27&#45;&gt;Node13</title>
<path fill="none" stroke="#191970" d="M755.2468,-168.4553C804.2077,-155.2852 895.6292,-131.0126 974,-112 1024.6851,-99.7038 1082.7242,-86.7227 1123.9034,-77.6972"/>
<polygon fill="#191970" stroke="#191970" points="1124.7105,-81.1035 1133.732,-75.548 1123.2151,-74.2651 1124.7105,-81.1035"/>
</g>
<!-- Node27&#45;&gt;Node14 -->
<g id="edge55" class="edge">
<title>Node27&#45;&gt;Node14</title>
<path fill="none" stroke="#191970" d="M769.8131,-171.5353C921.0449,-151.9084 1374.0296,-93.1201 1529.7425,-72.9117"/>
<polygon fill="#191970" stroke="#191970" points="1530.5316,-76.3388 1539.9979,-71.5808 1529.6306,-69.397 1530.5316,-76.3388"/>
</g>
<!-- Node28&#45;&gt;Node2 -->
<g id="edge69" class="edge">
<title>Node28&#45;&gt;Node2</title>
<path fill="none" stroke="#191970" d="M821.9338,-299.0125C773.0788,-295.0915 675.9309,-284.0548 599,-255 510.743,-221.6676 469.4321,-215.7496 426,-132 418.6106,-117.7512 416.8886,-99.5074 416.8573,-85.8134"/>
<polygon fill="#191970" stroke="#191970" points="420.3627,-85.6612 417.1413,-75.5681 413.3654,-85.4672 420.3627,-85.6612"/>
</g>
<!-- Node28&#45;&gt;Node5 -->
<g id="edge73" class="edge">
<title>Node28&#45;&gt;Node5</title>
<path fill="none" stroke="#191970" d="M821.7986,-294.3836C750.7455,-278.5738 580.8026,-236.3009 552,-188 537.3474,-163.4282 568.6434,-145.6683 598.9873,-134.8028"/>
<polygon fill="#191970" stroke="#191970" points="600.3857,-138.0251 608.7464,-131.5174 598.1523,-131.391 600.3857,-138.0251"/>
</g>
<!-- Node28&#45;&gt;Node9 -->
<g id="edge70" class="edge">
<title>Node28&#45;&gt;Node9</title>
<path fill="none" stroke="#191970" d="M821.7779,-298.318C749.3096,-291.8412 571.5669,-274.4387 515,-255 390.0934,-212.0769 259.5927,-118.9255 210.381,-81.7674"/>
<polygon fill="#191970" stroke="#191970" points="212.4915,-78.9754 202.4147,-75.7029 208.2514,-84.5451 212.4915,-78.9754"/>
</g>
<!-- Node28&#45;&gt;Node13 -->
<g id="edge72" class="edge">
<title>Node28&#45;&gt;Node13</title>
<path fill="none" stroke="#191970" d="M856.6375,-291.2079C866.0799,-267.0326 893.6263,-203.8801 936,-168 967.9354,-140.9586 984.4155,-148.1972 1023,-132 1065.7067,-114.0723 1114.8898,-93.0688 1146.1943,-79.6552"/>
<polygon fill="#191970" stroke="#191970" points="1147.8872,-82.7376 1155.6991,-75.5804 1145.129,-76.3039 1147.8872,-82.7376"/>
</g>
<!-- Node28&#45;&gt;Node15 -->
<g id="edge68" class="edge">
<title>Node28&#45;&gt;Node15</title>
<path fill="none" stroke="#191970" d="M821.9053,-299.3625C738.0999,-294.6633 509.0785,-279.8548 438,-255 297.1608,-205.7512 226.0809,-206.6349 154,-76 145.8123,-61.161 152.1086,-42.2658 159.2443,-28.4987"/>
<polygon fill="#191970" stroke="#191970" points="162.4588,-29.9285 164.3934,-19.5118 156.3851,-26.4485 162.4588,-29.9285"/>
</g>
<!-- Node28&#45;&gt;Node21 -->
<g id="edge74" class="edge">
<title>Node28&#45;&gt;Node21</title>
<path fill="none" stroke="#191970" d="M884.0879,-299.0938C951.4226,-294.514 1108.3555,-281.2722 1154,-255 1177.7208,-241.3467 1195.9472,-214.8246 1206.32,-196.7643"/>
<polygon fill="#191970" stroke="#191970" points="1209.5298,-198.1895 1211.2596,-187.7368 1203.389,-194.8293 1209.5298,-198.1895"/>
</g>
<!-- Node28&#45;&gt;Node23 -->
<g id="edge71" class="edge">
<title>Node28&#45;&gt;Node23</title>
<path fill="none" stroke="#191970" d="M884.1082,-299.7343C968.0541,-296.0299 1206.0904,-283.6144 1402,-255 1414.3561,-253.1953 1427.7479,-250.5914 1439.6993,-248.0315"/>
<polygon fill="#191970" stroke="#191970" points="1440.7556,-251.3829 1449.7691,-245.8144 1439.2504,-244.5466 1440.7556,-251.3829"/>
</g>
<!-- Node28&#45;&gt;Node26 -->
<g id="edge81" class="edge">
<title>Node28&#45;&gt;Node26</title>
<path fill="none" stroke="#191970" d="M884.254,-297.0122C961.1498,-287.2008 1160.9528,-261.7073 1266.8351,-248.1974"/>
<polygon fill="#191970" stroke="#191970" points="1267.3047,-251.6659 1276.7813,-246.9283 1266.4187,-244.7222 1267.3047,-251.6659"/>
</g>
<!-- Node28&#45;&gt;Node27 -->
<g id="edge82" class="edge">
<title>Node28&#45;&gt;Node27</title>
<path fill="none" stroke="#191970" d="M821.7366,-296.9656C777.859,-290.5888 701.5092,-276.6372 685,-255 670.9152,-236.5402 687.5834,-211.5075 702.3875,-195.0645"/>
<polygon fill="#191970" stroke="#191970" points="704.995,-197.4018 709.3623,-187.749 699.9286,-192.5714 704.995,-197.4018"/>
</g>
<!-- Node29 -->
<g id="node30" class="node">
<title>Node29</title>
<g id="a_node30"><a xlink:href="../../d6/dfb/Utilities_2rANS_2include_2rANS_2internal_2Decoder_8h.html" target="_top" xlink:title="internal/Decoder.h">
<polygon fill="none" stroke="#000000" points="1049,-230 1049,-249 1145,-249 1145,-230 1049,-230"/>
<text text-anchor="middle" x="1097" y="-237" font-family="Helvetica,sans-Serif" font-size="10.00" fill="#000000">internal/Decoder.h</text>
</a>
</g>
</g>
<!-- Node28&#45;&gt;Node29 -->
<g id="edge59" class="edge">
<title>Node28&#45;&gt;Node29</title>
<path fill="none" stroke="#191970" d="M884.3992,-293.0859C926.0964,-282.5761 1000.1413,-263.9132 1048.906,-251.622"/>
<polygon fill="#191970" stroke="#191970" points="1050.0662,-254.9392 1058.9075,-249.1012 1048.3553,-248.1515 1050.0662,-254.9392"/>
</g>
<!-- Node30 -->
<g id="node31" class="node">
<title>Node30</title>
<g id="a_node31"><a xlink:href="../../dc/d3b/ReverseSymbolLookupTable_8h.html" target="_top" xlink:title="Maps CDF back to source symbol &#45; needed for the decoder. ">
<polygon fill="none" stroke="#000000" points="694,-224.5 694,-254.5 846,-254.5 846,-224.5 694,-224.5"/>
<text text-anchor="start" x="702" y="-242.5" font-family="Helvetica,sans-Serif" font-size="10.00" fill="#000000">internal/ReverseSymbolLookup</text>
<text text-anchor="middle" x="770" y="-231.5" font-family="Helvetica,sans-Serif" font-size="10.00" fill="#000000">Table.h</text>
</a>
</g>
</g>
<!-- Node28&#45;&gt;Node30 -->
<g id="edge75" class="edge">
<title>Node28&#45;&gt;Node30</title>
<path fill="none" stroke="#191970" d="M840.0313,-291.3906C829.0062,-283.2215 812.7742,-271.1941 798.7128,-260.7752"/>
<polygon fill="#191970" stroke="#191970" points="800.4225,-257.6859 790.3041,-254.5446 796.2551,-263.3102 800.4225,-257.6859"/>
</g>
<!-- Node29&#45;&gt;Node2 -->
<g id="edge64" class="edge">
<title>Node29&#45;&gt;Node2</title>
<path fill="none" stroke="#191970" d="M1048.6112,-235.7443C945.4896,-227.4865 707.0537,-206.9733 628,-188 559.613,-171.5868 538.4712,-171.0806 480,-132 460.5168,-118.9779 442.702,-98.7438 431.2184,-84.1114"/>
<polygon fill="#191970" stroke="#191970" points="433.767,-81.6807 424.928,-75.8392 428.195,-85.9178 433.767,-81.6807"/>
</g>
<!-- Node29&#45;&gt;Node7 -->
<g id="edge62" class="edge">
<title>Node29&#45;&gt;Node7</title>
<path fill="none" stroke="#191970" d="M1095.1788,-229.9248C1089.9623,-202.499 1074.8856,-123.232 1067.7843,-85.8964"/>
<polygon fill="#191970" stroke="#191970" points="1071.1632,-84.9294 1065.8563,-75.7595 1064.2865,-86.2374 1071.1632,-84.9294"/>
</g>
<!-- Node29&#45;&gt;Node12 -->
<g id="edge60" class="edge">
<title>Node29&#45;&gt;Node12</title>
<path fill="none" stroke="#191970" d="M1085.7415,-229.9248C1052.3738,-201.5459 953.7416,-117.6602 912.0007,-82.1599"/>
<polygon fill="#191970" stroke="#191970" points="914.1088,-79.3582 904.2237,-75.5457 909.5737,-84.6905 914.1088,-79.3582"/>
</g>
<!-- Node29&#45;&gt;Node14 -->
<g id="edge67" class="edge">
<title>Node29&#45;&gt;Node14</title>
<path fill="none" stroke="#191970" d="M1098.7231,-229.9239C1102.0486,-214.3706 1110.8801,-183.7738 1131,-168 1193.4911,-119.0077 1228.4797,-149.2044 1306,-132 1386.4188,-114.1523 1479.5041,-91.5767 1534.6962,-77.9894"/>
<polygon fill="#191970" stroke="#191970" points="1535.6779,-81.3523 1544.5493,-75.5601 1534.0021,-74.5558 1535.6779,-81.3523"/>
</g>
<!-- Node29&#45;&gt;Node19 -->
<g id="edge61" class="edge">
<title>Node29&#45;&gt;Node19</title>
<path fill="none" stroke="#191970" d="M1102.2234,-229.9557C1111.4212,-214.1613 1132.1078,-182.8592 1159,-168 1170.5184,-161.6355 1347.8476,-136.8822 1423.3627,-126.5598"/>
<polygon fill="#191970" stroke="#191970" points="1424.2983,-129.9646 1433.7336,-125.1454 1423.3524,-123.0288 1424.2983,-129.9646"/>
</g>
<!-- Node29&#45;&gt;Node20 -->
<g id="edge63" class="edge">
<title>Node29&#45;&gt;Node20</title>
<path fill="none" stroke="#191970" d="M1145.3121,-231.9589C1228.0142,-219.0498 1394.3003,-193.094 1461.662,-182.5794"/>
<polygon fill="#191970" stroke="#191970" points="1462.2553,-186.0293 1471.5959,-181.0288 1461.1757,-179.113 1462.2553,-186.0293"/>
</g>
<!-- Node29&#45;&gt;Node21 -->
<g id="edge65" class="edge">
<title>Node29&#45;&gt;Node21</title>
<path fill="none" stroke="#191970" d="M1115.5938,-229.8906C1135.1553,-219.7811 1166.1501,-203.7628 1188.5309,-192.1962"/>
<polygon fill="#191970" stroke="#191970" points="1190.26,-195.2425 1197.5368,-187.5419 1187.0461,-189.0238 1190.26,-195.2425"/>
</g>
<!-- Node29&#45;&gt;Node22 -->
<g id="edge66" class="edge">
<title>Node29&#45;&gt;Node22</title>
<path fill="none" stroke="#191970" d="M1145.4458,-234.4672C1253.8745,-223.2031 1515.6748,-196.0059 1631.8376,-183.9383"/>
<polygon fill="#191970" stroke="#191970" points="1632.3644,-187.4025 1641.9492,-182.8879 1631.641,-180.44 1632.3644,-187.4025"/>
</g>
<!-- Node30&#45;&gt;Node2 -->
<g id="edge77" class="edge">
<title>Node30&#45;&gt;Node2</title>
<path fill="none" stroke="#191970" d="M693.7829,-226.145C651.3218,-217.5571 597.9139,-204.8348 552,-188 500.4935,-169.1146 478.3521,-173.0865 442,-132 430.5251,-119.0306 424.3954,-100.1366 421.212,-85.8842"/>
<polygon fill="#191970" stroke="#191970" points="424.5697,-84.8104 419.2447,-75.651 417.6956,-86.132 424.5697,-84.8104"/>
</g>
<!-- Node30&#45;&gt;Node12 -->
<g id="edge76" class="edge">
<title>Node30&#45;&gt;Node12</title>
<path fill="none" stroke="#191970" d="M780.7003,-224.4065C803.3418,-192.469 856.0083,-118.1793 880.3043,-83.9081"/>
<polygon fill="#191970" stroke="#191970" points="883.1682,-85.9202 886.0964,-75.738 877.4576,-81.8717 883.1682,-85.9202"/>
</g>
<!-- Node30&#45;&gt;Node13 -->
<g id="edge78" class="edge">
<title>Node30&#45;&gt;Node13</title>
<path fill="none" stroke="#191970" d="M794.4046,-224.3172C819.7183,-208.9422 860.7389,-185.0608 898,-168 980.5887,-130.185 1081.5952,-96.2624 1136.91,-78.6798"/>
<polygon fill="#191970" stroke="#191970" points="1138.2108,-81.9395 1146.692,-75.5897 1136.1021,-75.2646 1138.2108,-81.9395"/>
</g>
<!-- Node30&#45;&gt;Node14 -->
<g id="edge79" class="edge">
<title>Node30&#45;&gt;Node14</title>
<path fill="none" stroke="#191970" d="M827.6128,-224.4139C925.4807,-199.0981 1130.6624,-147.369 1306,-112 1383.3765,-96.3917 1473.6888,-82.1251 1529.6172,-73.7473"/>
<polygon fill="#191970" stroke="#191970" points="1530.2743,-77.1881 1539.6492,-72.2525 1529.2426,-70.2645 1530.2743,-77.1881"/>
</g>
<!-- Node30&#45;&gt;Node27 -->
<g id="edge80" class="edge">
<title>Node30&#45;&gt;Node27</title>
<path fill="none" stroke="#191970" d="M757.6404,-224.2977C750.6276,-215.672 741.814,-204.8312 734.4786,-195.8087"/>
<polygon fill="#191970" stroke="#191970" points="737.0297,-193.3982 728.0056,-187.8469 731.5982,-197.8141 737.0297,-193.3982"/>
</g>
<!-- Node31&#45;&gt;Node6 -->
<g id="edge86" class="edge">
<title>Node31&#45;&gt;Node6</title>
<path fill="none" stroke="#191970" d="M1675.753,-355.4705C1735.2389,-352.2423 1842.8677,-342.2044 1929,-311 1974.3631,-294.5656 1989.2082,-290.3921 2022,-255 2069.9536,-203.2438 2099.4371,-122.7215 2111.1646,-85.7611"/>
<polygon fill="#191970" stroke="#191970" points="2114.6432,-86.3562 2114.2349,-75.7692 2107.952,-84.3 2114.6432,-86.3562"/>
</g>
<!-- Node31&#45;&gt;Node13 -->
<g id="edge91" class="edge">
<title>Node31&#45;&gt;Node13</title>
<path fill="none" stroke="#191970" d="M1644.7934,-347.4946C1682.879,-320.0343 1784.1603,-238.0799 1745,-168 1721.8347,-126.5442 1699.0182,-127.1185 1654,-112 1578.1365,-86.5227 1346.5979,-73.3308 1236.8682,-68.3691"/>
<polygon fill="#191970" stroke="#191970" points="1236.7844,-64.862 1226.6388,-67.9145 1236.4735,-71.8551 1236.7844,-64.862"/>
</g>
<!-- Node31&#45;&gt;Node14 -->
<g id="edge94" class="edge">
<title>Node31&#45;&gt;Node14</title>
<path fill="none" stroke="#191970" d="M1675.7619,-351.4647C1765.0428,-339.3874 1959.9658,-307.4732 1998,-255 2035.344,-203.479 2047.4866,-159.3695 2005,-112 1980.7777,-84.9938 1744.1741,-72.3183 1636.218,-67.905"/>
<polygon fill="#191970" stroke="#191970" points="1636.3156,-64.4062 1626.1837,-67.5035 1636.0357,-71.4006 1636.3156,-64.4062"/>
</g>
<!-- Node31&#45;&gt;Node17 -->
<g id="edge84" class="edge">
<title>Node31&#45;&gt;Node17</title>
<path fill="none" stroke="#191970" d="M1651.4568,-347.3733C1670.4738,-338.4241 1699.0175,-324.9917 1720.4976,-314.8835"/>
<polygon fill="#191970" stroke="#191970" points="1722.2522,-317.926 1729.8101,-310.5011 1719.2716,-311.5923 1722.2522,-317.926"/>
</g>
<!-- Node31&#45;&gt;Node19 -->
<g id="edge89" class="edge">
<title>Node31&#45;&gt;Node19</title>
<path fill="none" stroke="#191970" d="M1586.1958,-349.5799C1556.1871,-343.028 1516.8613,-331.2614 1487,-311 1460.347,-292.9155 1451.8577,-285.3239 1441,-255 1427.1501,-216.3194 1440.0346,-167.6883 1449.3512,-141.2601"/>
<polygon fill="#191970" stroke="#191970" points="1452.7071,-142.2776 1452.9197,-131.6849 1446.1478,-139.8331 1452.7071,-142.2776"/>
</g>
<!-- Node31&#45;&gt;Node22 -->
<g id="edge93" class="edge">
<title>Node31&#45;&gt;Node22</title>
<path fill="none" stroke="#191970" d="M1633.1035,-347.4877C1638.0966,-325.4368 1651.4903,-269.2566 1668,-224 1671.3368,-214.8532 1675.7238,-204.9981 1679.6248,-196.7652"/>
<polygon fill="#191970" stroke="#191970" points="1682.815,-198.2079 1684.0389,-187.684 1676.5194,-195.1478 1682.815,-198.2079"/>
</g>
<!-- Node31&#45;&gt;Node23 -->
<g id="edge85" class="edge">
<title>Node31&#45;&gt;Node23</title>
<path fill="none" stroke="#191970" d="M1586.3835,-350.3537C1559.4914,-344.2468 1526.252,-332.6864 1504,-311 1489.7271,-297.09 1482.5755,-275.0422 1479.0953,-259.1052"/>
<polygon fill="#191970" stroke="#191970" points="1482.5241,-258.4006 1477.23,-249.2232 1475.6456,-259.6989 1482.5241,-258.4006"/>
</g>
<!-- Node31&#45;&gt;Node24 -->
<g id="edge87" class="edge">
<title>Node31&#45;&gt;Node24</title>
<path fill="none" stroke="#191970" d="M1675.7748,-348.3264C1708.2744,-341.0043 1752.7193,-328.8313 1789,-311 1819.1595,-296.1772 1849.7949,-272.0551 1868.5962,-255.9845"/>
<polygon fill="#191970" stroke="#191970" points="1871.1121,-258.4348 1876.3577,-249.2297 1866.5167,-253.1545 1871.1121,-258.4348"/>
</g>
<!-- Node31&#45;&gt;Node25 -->
<g id="edge92" class="edge">
<title>Node31&#45;&gt;Node25</title>
<path fill="none" stroke="#191970" d="M1675.54,-349.0995C1714.1837,-341.5421 1771.2612,-328.6773 1819,-311 1861.3643,-295.3129 1907.539,-270.2412 1935.112,-254.3371"/>
<polygon fill="#191970" stroke="#191970" points="1937.1764,-257.1849 1944.0523,-249.1244 1933.6506,-251.1377 1937.1764,-257.1849"/>
</g>
<!-- Node31&#45;&gt;Node26 -->
<g id="edge95" class="edge">
<title>Node31&#45;&gt;Node26</title>
<path fill="none" stroke="#191970" d="M1586.098,-350.7188C1530.4265,-342.4137 1439.1871,-326.957 1409,-311 1384.2138,-297.898 1362.0071,-273.9893 1348.5322,-257.4476"/>
<polygon fill="#191970" stroke="#191970" points="1350.9199,-254.8225 1341.9835,-249.1311 1345.4203,-259.1531 1350.9199,-254.8225"/>
</g>
<!-- Node32 -->
<g id="node33" class="node">
<title>Node32</title>
<polygon fill="none" stroke="#bfbfbf" points="1513.5,-291.5 1513.5,-310.5 1548.5,-310.5 1548.5,-291.5 1513.5,-291.5"/>
<text text-anchor="middle" x="1531" y="-298.5" font-family="Helvetica,sans-Serif" font-size="10.00" fill="#000000">map</text>
</g>
<!-- Node31&#45;&gt;Node32 -->
<g id="edge88" class="edge">
<title>Node31&#45;&gt;Node32</title>
<path fill="none" stroke="#191970" d="M1613.5813,-347.2455C1597.9515,-338.4928 1574.7981,-325.527 1556.9815,-315.5496"/>
<polygon fill="#191970" stroke="#191970" points="1558.6543,-312.475 1548.2191,-310.6427 1555.234,-318.5825 1558.6543,-312.475"/>
</g>
<!-- Node33 -->
<g id="node34" class="node">
<title>Node33</title>
<polygon fill="none" stroke="#bfbfbf" points="1315.5,-291.5 1315.5,-310.5 1356.5,-310.5 1356.5,-291.5 1315.5,-291.5"/>
<text text-anchor="middle" x="1336" y="-298.5" font-family="Helvetica,sans-Serif" font-size="10.00" fill="#000000">string</text>
</g>
<!-- Node31&#45;&gt;Node33 -->
<g id="edge90" class="edge">
<title>Node31&#45;&gt;Node33</title>
<path fill="none" stroke="#191970" d="M1586.0899,-350.4961C1534.0362,-342.6252 1445.8172,-328.2581 1371,-311 1369.5375,-310.6626 1368.0451,-310.3018 1366.541,-309.9248"/>
<polygon fill="#191970" stroke="#191970" points="1367.2009,-306.4784 1356.6363,-307.2781 1365.3938,-313.2411 1367.2009,-306.4784"/>
</g>
<!-- Node34&#45;&gt;Node2 -->
<g id="edge99" class="edge">
<title>Node34&#45;&gt;Node2</title>
<path fill="none" stroke="#191970" d="M898.9398,-354.3912C741.8686,-344.7054 228,-307.7984 228,-239.5 228,-239.5 228,-239.5 228,-178 228,-109.5107 320.7545,-82.052 376.6484,-71.723"/>
<polygon fill="#191970" stroke="#191970" points="377.3731,-75.1495 386.6254,-69.9876 376.1735,-68.2531 377.3731,-75.1495"/>
</g>
<!-- Node34&#45;&gt;Node9 -->
<g id="edge100" class="edge">
<title>Node34&#45;&gt;Node9</title>
<path fill="none" stroke="#191970" d="M898.9363,-356.4168C798.6662,-354.4926 549.8056,-346.246 345,-311 251.0736,-294.8357 206.5757,-321.1878 138,-255 90.6833,-209.3309 65.6751,-168.0923 100,-112 111.5964,-93.0497 133.7361,-81.5923 153.154,-74.8516"/>
<polygon fill="#191970" stroke="#191970" points="154.2242,-78.184 162.6989,-71.8255 152.1087,-71.5113 154.2242,-78.184"/>
</g>
<!-- Node34&#45;&gt;Node13 -->
<g id="edge102" class="edge">
<title>Node34&#45;&gt;Node13</title>
<path fill="none" stroke="#191970" d="M949.0282,-347.3003C964.3368,-318.2663 1012.6575,-230.2129 1067,-168 1095.9815,-134.8212 1134.8411,-101.1751 1158.0584,-82.0211"/>
<polygon fill="#191970" stroke="#191970" points="1160.3287,-84.6858 1165.8571,-75.6477 1155.8991,-79.2656 1160.3287,-84.6858"/>
</g>
<!-- Node34&#45;&gt;Node15 -->
<g id="edge98" class="edge">
<title>Node34&#45;&gt;Node15</title>
<path fill="none" stroke="#191970" d="M898.9881,-355.6749C746.3484,-350.9872 254.1597,-334.2139 187,-311 163.9463,-303.0314 0,-182.4074 0,-178 0,-178 0,-178 0,-122 0,-57.3929 86.4771,-28.0347 136.4374,-16.4646"/>
<polygon fill="#191970" stroke="#191970" points="137.481,-19.819 146.4999,-14.2593 135.9824,-12.9813 137.481,-19.819"/>
</g>
<!-- Node34&#45;&gt;Node21 -->
<g id="edge103" class="edge">
<title>Node34&#45;&gt;Node21</title>
<path fill="none" stroke="#191970" d="M989.4649,-348.7484C1042.8751,-336.8377 1131.0282,-309.932 1185,-255 1200.4928,-239.2316 1208.5494,-214.7131 1212.5187,-197.5927"/>
<polygon fill="#191970" stroke="#191970" points="1215.9923,-198.0761 1214.574,-187.5767 1209.1352,-196.669 1215.9923,-198.0761"/>
</g>
<!-- Node34&#45;&gt;Node26 -->
<g id="edge105" class="edge">
<title>Node34&#45;&gt;Node26</title>
<path fill="none" stroke="#191970" d="M989.1674,-347.6714C1040.081,-337.0134 1119.5869,-319.9011 1149,-311 1204.5395,-294.1923 1267.147,-268.7156 1303.7185,-253.1449"/>
<polygon fill="#191970" stroke="#191970" points="1305.5033,-256.188 1313.3156,-249.0313 1302.7455,-249.7541 1305.5033,-256.188"/>
</g>
<!-- Node34&#45;&gt;Node28 -->
<g id="edge97" class="edge">
<title>Node34&#45;&gt;Node28</title>
<path fill="none" stroke="#191970" d="M928.149,-347.2455C914.1868,-338.6534 893.6272,-326.0014 877.5404,-316.1018"/>
<polygon fill="#191970" stroke="#191970" points="879.0203,-312.9029 868.6693,-310.6427 875.3516,-318.8645 879.0203,-312.9029"/>
</g>
<!-- Node34&#45;&gt;Node29 -->
<g id="edge106" class="edge">
<title>Node34&#45;&gt;Node29</title>
<path fill="none" stroke="#191970" d="M956.5206,-347.3845C982.7454,-327.2446 1043.6844,-280.445 1076.0026,-255.6255"/>
<polygon fill="#191970" stroke="#191970" points="1078.5071,-258.1151 1084.3064,-249.2484 1074.2435,-252.5634 1078.5071,-258.1151"/>
</g>
<!-- Node34&#45;&gt;Node30 -->
<g id="edge104" class="edge">
<title>Node34&#45;&gt;Node30</title>
<path fill="none" stroke="#191970" d="M898.9335,-349.221C871.728,-342.6959 837.6701,-331.0939 813,-311 797.8907,-298.6934 786.7866,-279.5757 779.6508,-264.2041"/>
<polygon fill="#191970" stroke="#191970" points="782.7359,-262.5222 775.5324,-254.753 776.3187,-265.3186 782.7359,-262.5222"/>
</g>
<!-- Node34&#45;&gt;Node33 -->
<g id="edge101" class="edge">
<title>Node34&#45;&gt;Node33</title>
<path fill="none" stroke="#191970" d="M989.0533,-348.4902C992.0783,-347.9702 995.0817,-347.4685 998,-347 1110.8455,-328.8831 1245.6388,-311.9394 1305.158,-304.6959"/>
<polygon fill="#191970" stroke="#191970" points="1305.8669,-308.1357 1315.3733,-303.4582 1305.0248,-301.1866 1305.8669,-308.1357"/>
</g>
<!-- Node35&#45;&gt;Node6 -->
<g id="edge110" class="edge">
<title>Node35&#45;&gt;Node6</title>
<path fill="none" stroke="#191970" d="M2023.5969,-351.0037C2075.4623,-343.2185 2158.2736,-328.5321 2184,-311 2208.8552,-294.0616 2213.1659,-283.7515 2222,-255 2240.6665,-194.2475 2256.7738,-165.1986 2222,-112 2207.2317,-89.4068 2178.6409,-77.8417 2155.0185,-71.961"/>
<polygon fill="#191970" stroke="#191970" points="2155.7769,-68.5442 2145.2536,-69.7732 2154.2464,-75.3749 2155.7769,-68.5442"/>
</g>
<!-- Node35&#45;&gt;Node13 -->
<g id="edge112" class="edge">
<title>Node35&#45;&gt;Node13</title>
<path fill="none" stroke="#191970" d="M1992.4212,-347.18C2002.0016,-338.7529 2014.5135,-325.6707 2020,-311 2026.6367,-293.2537 2039.7694,-255.4431 2019,-224 2010.5561,-211.2166 1781.8514,-115.7619 1767,-112 1667.7733,-86.8659 1365.2325,-72.9617 1236.7302,-68.0548"/>
<polygon fill="#191970" stroke="#191970" points="1236.8054,-64.5553 1226.6806,-67.6759 1236.5416,-71.5503 1236.8054,-64.5553"/>
</g>
<!-- Node35&#45;&gt;Node14 -->
<g id="edge115" class="edge">
<title>Node35&#45;&gt;Node14</title>
<path fill="none" stroke="#191970" d="M2021.7598,-347.4925C2055.054,-338.967 2097.7444,-325.5833 2108,-311 2162.9299,-232.8903 2109.6805,-159.774 2027,-112 1993.8484,-92.8445 1747.2829,-75.8507 1636.5593,-69.0967"/>
<polygon fill="#191970" stroke="#191970" points="1636.4729,-65.5851 1626.2799,-68.4753 1636.0505,-72.5724 1636.4729,-65.5851"/>
</g>
<!-- Node35&#45;&gt;Node17 -->
<g id="edge108" class="edge">
<title>Node35&#45;&gt;Node17</title>
<path fill="none" stroke="#191970" d="M1940.7229,-347.4369C1898.8821,-337.2496 1832.9672,-321.2007 1790.6198,-310.89"/>
<polygon fill="#191970" stroke="#191970" points="1791.1964,-307.4283 1780.6523,-308.4632 1789.5404,-314.2296 1791.1964,-307.4283"/>
</g>
<!-- Node35&#45;&gt;Node22 -->
<g id="edge114" class="edge">
<title>Node35&#45;&gt;Node22</title>
<path fill="none" stroke="#191970" d="M1985.7682,-347.2228C1999.1791,-323.0817 2029.0383,-260.0009 1998,-224 1981.7922,-205.2008 1830.7633,-189.7661 1746.0146,-182.4967"/>
<polygon fill="#191970" stroke="#191970" points="1746.281,-179.0068 1736.0214,-181.651 1745.6906,-185.9819 1746.281,-179.0068"/>
</g>
<!-- Node35&#45;&gt;Node23 -->
<g id="edge109" class="edge">
<title>Node35&#45;&gt;Node23</title>
<path fill="none" stroke="#191970" d="M1936.2327,-350.9953C1882.5969,-343.3036 1789.0922,-328.8138 1710,-311 1620.3657,-290.8118 1597.4469,-286.1258 1511,-255 1509.1711,-254.3415 1507.3032,-253.6311 1505.4291,-252.8893"/>
<polygon fill="#191970" stroke="#191970" points="1506.735,-249.6417 1496.1588,-249.0132 1504.0346,-256.0999 1506.735,-249.6417"/>
</g>
<!-- Node35&#45;&gt;Node24 -->
<g id="edge111" class="edge">
<title>Node35&#45;&gt;Node24</title>
<path fill="none" stroke="#191970" d="M1972.3894,-347.3845C1956.7895,-327.6749 1920.9809,-282.4328 1901.0459,-257.2461"/>
<polygon fill="#191970" stroke="#191970" points="1903.6664,-254.9174 1894.7157,-249.2484 1898.1775,-259.2617 1903.6664,-254.9174"/>
</g>
<!-- Node35&#45;&gt;Node25 -->
<g id="edge113" class="edge">
<title>Node35&#45;&gt;Node25</title>
<path fill="none" stroke="#191970" d="M1978.3633,-347.3845C1975.0964,-328.1913 1967.7083,-284.786 1963.3645,-259.2663"/>
<polygon fill="#191970" stroke="#191970" points="1966.7877,-258.5193 1961.6593,-249.2484 1959.887,-259.6939 1966.7877,-258.5193"/>
</g>
<!-- Node35&#45;&gt;Node26 -->
<g id="edge116" class="edge">
<title>Node35&#45;&gt;Node26</title>
<path fill="none" stroke="#191970" d="M1936.4684,-353.7369C1868.8321,-348.1418 1734.666,-334.9397 1623,-311 1593.0304,-304.5749 1586.6118,-298.912 1557,-291 1500.4968,-275.9028 1435.2275,-261.0696 1390.1546,-251.2291"/>
<polygon fill="#191970" stroke="#191970" points="1390.8024,-247.7883 1380.2871,-249.0841 1389.3154,-254.6285 1390.8024,-247.7883"/>
</g>
<!-- Node36&#45;&gt;Node2 -->
<g id="edge120" class="edge">
<title>Node36&#45;&gt;Node2</title>
<path fill="none" stroke="#191970" d="M1006.8205,-348.221C1003.8419,-347.766 1000.8813,-347.3524 998,-347 928.1841,-338.4617 414.3002,-362.1298 366,-311 304.9502,-246.3737 374.5851,-128.701 405.1005,-83.9365"/>
<polygon fill="#191970" stroke="#191970" points="408.1091,-85.741 410.9573,-75.5362 402.3669,-81.7375 408.1091,-85.741"/>
</g>
<!-- Node36&#45;&gt;Node9 -->
<g id="edge121" class="edge">
<title>Node36&#45;&gt;Node9</title>
<path fill="none" stroke="#191970" d="M1006.8211,-348.216C1003.8424,-347.7623 1000.8816,-347.3502 998,-347 926.3057,-338.286 411.4854,-347.2158 349,-311 259.2553,-258.985 211.4106,-133.6577 195.8078,-85.3968"/>
<polygon fill="#191970" stroke="#191970" points="199.0676,-84.0936 192.744,-75.5928 192.3862,-86.1816 199.0676,-84.0936"/>
</g>
<!-- Node36&#45;&gt;Node13 -->
<g id="edge123" class="edge">
<title>Node36&#45;&gt;Node13</title>
<path fill="none" stroke="#191970" d="M1047.0439,-347.3796C1038.3337,-324.6223 1019.8161,-266.2256 1040,-224 1068.0787,-165.2582 1116.1552,-184.9791 1154,-132 1163.9539,-118.0655 1170.2098,-99.5544 1173.8292,-85.683"/>
<polygon fill="#191970" stroke="#191970" points="1177.2877,-86.2668 1176.1869,-75.7293 1170.4762,-84.6533 1177.2877,-86.2668"/>
</g>
<!-- Node36&#45;&gt;Node15 -->
<g id="edge119" class="edge">
<title>Node36&#45;&gt;Node15</title>
<path fill="none" stroke="#191970" d="M1006.9498,-348.6809C879.2762,-324.5612 517.8688,-256.2246 515,-255 443.189,-224.3453 252.7625,-75.1181 190.7926,-25.8322"/>
<polygon fill="#191970" stroke="#191970" points="192.9284,-23.0588 182.9267,-19.5638 188.5659,-28.5331 192.9284,-23.0588"/>
</g>
<!-- Node36&#45;&gt;Node21 -->
<g id="edge124" class="edge">
<title>Node36&#45;&gt;Node21</title>
<path fill="none" stroke="#191970" d="M1087.4357,-347.4565C1129.174,-334.3519 1195.5811,-306.3466 1225,-255 1235.0991,-237.3734 1230.1607,-213.7647 1224.4063,-197.3555"/>
<polygon fill="#191970" stroke="#191970" points="1227.5528,-195.7907 1220.6568,-187.7472 1221.0317,-198.3355 1227.5528,-195.7907"/>
</g>
<!-- Node36&#45;&gt;Node26 -->
<g id="edge126" class="edge">
<title>Node36&#45;&gt;Node26</title>
<path fill="none" stroke="#191970" d="M1095.3045,-350.3876C1148.6239,-341.9143 1234.5415,-326.4655 1263,-311 1287.2915,-297.7991 1308.8585,-273.9127 1321.9123,-257.4032"/>
<polygon fill="#191970" stroke="#191970" points="1324.9623,-259.1761 1328.2518,-249.1048 1319.3998,-254.9266 1324.9623,-259.1761"/>
</g>
<!-- Node36&#45;&gt;Node28 -->
<g id="edge118" class="edge">
<title>Node36&#45;&gt;Node28</title>
<path fill="none" stroke="#191970" d="M1016.9626,-347.3733C982.9031,-337.7403 930.4772,-322.9128 894.1133,-312.628"/>
<polygon fill="#191970" stroke="#191970" points="894.8865,-309.2094 884.3114,-309.8557 892.9813,-315.9452 894.8865,-309.2094"/>
</g>
<!-- Node36&#45;&gt;Node29 -->
<g id="edge127" class="edge">
<title>Node36&#45;&gt;Node29</title>
<path fill="none" stroke="#191970" d="M1054.7644,-347.3845C1062.3457,-328.0192 1079.5766,-284.0055 1089.5288,-258.584"/>
<polygon fill="#191970" stroke="#191970" points="1092.7972,-259.8362 1093.1836,-249.2484 1086.2789,-257.2843 1092.7972,-259.8362"/>
</g>
<!-- Node36&#45;&gt;Node30 -->
<g id="edge125" class="edge">
<title>Node36&#45;&gt;Node30</title>
<path fill="none" stroke="#191970" d="M1028.0046,-347.3845C981.5959,-327.9787 875.9943,-283.8215 815.2588,-258.4249"/>
<polygon fill="#191970" stroke="#191970" points="816.4884,-255.1455 805.9122,-254.5167 813.7879,-261.6036 816.4884,-255.1455"/>
</g>
<!-- Node36&#45;&gt;Node33 -->
<g id="edge122" class="edge">
<title>Node36&#45;&gt;Node33</title>
<path fill="none" stroke="#191970" d="M1095.0714,-350.2099C1145.2248,-342.1779 1229.4584,-327.761 1301,-311 1302.4613,-310.6576 1303.9527,-310.2927 1305.4561,-309.9124"/>
<polygon fill="#191970" stroke="#191970" points="1306.6075,-313.2273 1315.3582,-307.2544 1304.7927,-306.4667 1306.6075,-313.2273"/>
</g>
<!-- Node39 -->
<g id="node40" class="node">
<title>Node39</title>
<polygon fill="none" stroke="#bfbfbf" points="2443,-347.5 2443,-366.5 2495,-366.5 2495,-347.5 2443,-347.5"/>
<text text-anchor="middle" x="2469" y="-354.5" font-family="Helvetica,sans-Serif" font-size="10.00" fill="#000000">sstream</text>
</g>
<!-- Node38&#45;&gt;Node39 -->
<g id="edge131" class="edge">
<title>Node38&#45;&gt;Node39</title>
<path fill="none" stroke="#191970" d="M2469,-403.2455C2469,-395.9382 2469,-385.6944 2469,-376.7046"/>
<polygon fill="#191970" stroke="#191970" points="2472.5001,-376.6426 2469,-366.6427 2465.5001,-376.6427 2472.5001,-376.6426"/>
</g>
<!-- Node40&#45;&gt;Node13 -->
<g id="edge133" class="edge">
<title>Node40&#45;&gt;Node13</title>
<path fill="none" stroke="#191970" d="M1868.8746,-116.7001C1852.2694,-115.1081 1833.8794,-113.4111 1817,-112 1603.3786,-94.1409 1349.2251,-77.0998 1236.6513,-69.7676"/>
<polygon fill="#191970" stroke="#191970" points="1236.7336,-66.2656 1226.5276,-69.1095 1236.2795,-73.2509 1236.7336,-66.2656"/>
</g>
<!-- Node42 -->
<g id="node43" class="node">
<title>Node42</title>
<g id="a_node43"><a xlink:href="../../df/d21/GPUCommonDef_8h.html" target="_top" xlink:title="GPUCommonDef.h">
<polygon fill="none" stroke="#000000" points="2554,-403.5 2554,-422.5 2656,-422.5 2656,-403.5 2554,-403.5"/>
<text text-anchor="middle" x="2605" y="-410.5" font-family="Helvetica,sans-Serif" font-size="10.00" fill="#000000">GPUCommonDef.h</text>
</a>
</g>
</g>
<!-- Node41&#45;&gt;Node42 -->
<g id="edge135" class="edge">
<title>Node41&#45;&gt;Node42</title>
<path fill="none" stroke="#191970" d="M2399.5387,-459.4554C2446.8136,-448.7664 2509.3954,-434.6165 2553.0172,-424.7535"/>
<polygon fill="#191970" stroke="#191970" points="2553.8678,-428.1496 2562.8497,-422.5303 2552.324,-421.3219 2553.8678,-428.1496"/>
</g>
<!-- Node45 -->
<g id="node46" class="node">
<title>Node45</title>
<g id="a_node46"><a xlink:href="../../d2/d45/GPUCommonRtypes_8h.html" target="_top" xlink:title="GPUCommonRtypes.h">
<polygon fill="none" stroke="#000000" points="2266,-403.5 2266,-422.5 2384,-422.5 2384,-403.5 2266,-403.5"/>
<text text-anchor="middle" x="2325" y="-410.5" font-family="Helvetica,sans-Serif" font-size="10.00" fill="#000000">GPUCommonRtypes.h</text>
</a>
</g>
</g>
<!-- Node41&#45;&gt;Node45 -->
<g id="edge138" class="edge">
<title>Node41&#45;&gt;Node45</title>
<path fill="none" stroke="#191970" d="M2331.0225,-459.2977C2329.9814,-451.2945 2328.6923,-441.3843 2327.5742,-432.7889"/>
<polygon fill="#191970" stroke="#191970" points="2331.0417,-432.3119 2326.2809,-422.8469 2324.1002,-433.2149 2331.0417,-432.3119"/>
</g>
<!-- Node43 -->
<g id="node44" class="node">
<title>Node43</title>
<g id="a_node44"><a xlink:href="../../d5/d93/GPUCommonDefSettings_8h.html" target="_top" xlink:title="GPUCommonDefSettings.h">
<polygon fill="none" stroke="#000000" points="2525,-347.5 2525,-366.5 2663,-366.5 2663,-347.5 2525,-347.5"/>
<text text-anchor="middle" x="2594" y="-354.5" font-family="Helvetica,sans-Serif" font-size="10.00" fill="#000000">GPUCommonDefSettings.h</text>
</a>
</g>
</g>
<!-- Node42&#45;&gt;Node43 -->
<g id="edge136" class="edge">
<title>Node42&#45;&gt;Node43</title>
<path fill="none" stroke="#191970" d="M2603.0839,-403.2455C2601.6486,-395.9382 2599.6364,-385.6944 2597.8705,-376.7046"/>
<polygon fill="#191970" stroke="#191970" points="2601.256,-375.7805 2595.8941,-366.6427 2594.3873,-377.1298 2601.256,-375.7805"/>
</g>
<!-- Node44 -->
<g id="node45" class="node">
<title>Node44</title>
<g id="a_node45"><a xlink:href="../../da/d5a/GPUCommonDefAPI_8h.html" target="_top" xlink:title="GPUCommonDefAPI.h">
<polygon fill="none" stroke="#000000" points="2681.5,-347.5 2681.5,-366.5 2800.5,-366.5 2800.5,-347.5 2681.5,-347.5"/>
<text text-anchor="middle" x="2741" y="-354.5" font-family="Helvetica,sans-Serif" font-size="10.00" fill="#000000">GPUCommonDefAPI.h</text>
</a>
</g>
</g>
<!-- Node42&#45;&gt;Node44 -->
<g id="edge137" class="edge">
<title>Node42&#45;&gt;Node44</title>
<path fill="none" stroke="#191970" d="M2628.3792,-403.3733C2650.5045,-394.2629 2683.9134,-380.5062 2708.6019,-370.3404"/>
<polygon fill="#191970" stroke="#191970" points="2710.0117,-373.5451 2717.9258,-366.5011 2707.3464,-367.0723 2710.0117,-373.5451"/>
</g>
<!-- Node45&#45;&gt;Node3 -->
<g id="edge139" class="edge">
<title>Node45&#45;&gt;Node3</title>
<path fill="none" stroke="#191970" d="M2322.9098,-403.2455C2321.3439,-395.9382 2319.1488,-385.6944 2317.2224,-376.7046"/>
<polygon fill="#191970" stroke="#191970" points="2320.584,-375.6873 2315.0663,-366.6427 2313.7393,-377.1541 2320.584,-375.6873"/>
</g>
</g>
</svg>
