<?xml version="1.0" encoding="UTF-8" standalone="no"?>
<!DOCTYPE svg PUBLIC "-//W3C//DTD SVG 1.1//EN"
 "http://www.w3.org/Graphics/SVG/1.1/DTD/svg11.dtd">
<!-- Generated by graphviz version 2.40.1 (20161225.0304)
 -->
<!-- Title: o2::framework::DeviceSpec Pages: 1 -->
<svg width="2040pt" height="430pt"
 viewBox="0.00 0.00 2039.76 430.00" xmlns="http://www.w3.org/2000/svg" xmlns:xlink="http://www.w3.org/1999/xlink">
<g id="graph0" class="graph" transform="scale(1 1) rotate(0) translate(4 426)">
<title>o2::framework::DeviceSpec</title>
<!-- Node1 -->
<g id="node1" class="node">
<title>Node1</title>
<polygon fill="#bfbfbf" stroke="#000000" points="940.7598,-.5 940.7598,-57.5 1078.7598,-57.5 1078.7598,-.5 940.7598,-.5"/>
<text text-anchor="middle" x="1009.7598" y="-45.5" font-family="Helvetica,sans-Serif" font-size="10.00" fill="#000000">o2::framework::DeviceSpec</text>
<polyline fill="none" stroke="#000000" points="940.7598,-38.5 1078.7598,-38.5 "/>
<text text-anchor="middle" x="1009.7598" y="-26.5" font-family="Helvetica,sans-Serif" font-size="10.00" fill="#000000"> </text>
<polyline fill="none" stroke="#000000" points="940.7598,-19.5 1078.7598,-19.5 "/>
<text text-anchor="middle" x="1009.7598" y="-7.5" font-family="Helvetica,sans-Serif" font-size="10.00" fill="#000000"> </text>
</g>
<!-- Node2 -->
<g id="node2" class="node">
<title>Node2</title>
<g id="a_node2"><a xlink:href="../../d4/d18/structo2_1_1framework_1_1ComputingResource.html" target="_top" xlink:title="A computing resource which can be offered to run a device. ">
<polygon fill="none" stroke="#000000" points="158.7598,-171.5 158.7598,-250.5 290.7598,-250.5 290.7598,-171.5 158.7598,-171.5"/>
<text text-anchor="start" x="166.7598" y="-238.5" font-family="Helvetica,sans-Serif" font-size="10.00" fill="#000000">o2::framework::Computing</text>
<text text-anchor="middle" x="224.7598" y="-227.5" font-family="Helvetica,sans-Serif" font-size="10.00" fill="#000000">Resource</text>
<polyline fill="none" stroke="#000000" points="158.7598,-220.5 290.7598,-220.5 "/>
<text text-anchor="middle" x="224.7598" y="-208.5" font-family="Helvetica,sans-Serif" font-size="10.00" fill="#000000"> </text>
<polyline fill="none" stroke="#000000" points="158.7598,-201.5 290.7598,-201.5 "/>
<text text-anchor="start" x="166.7598" y="-189.5" font-family="Helvetica,sans-Serif" font-size="10.00" fill="#000000">+ ComputingResource()</text>
<text text-anchor="start" x="166.7598" y="-178.5" font-family="Helvetica,sans-Serif" font-size="10.00" fill="#000000">+ ComputingResource()</text>
</a>
</g>
</g>
<!-- Node2&#45;&gt;Node1 -->
<g id="edge1" class="edge">
<title>Node2&#45;&gt;Node1</title>
<path fill="none" stroke="#404040" d="M225.3166,-171.2042C228.072,-140.1037 237.3339,-98.4982 265.7598,-76 291.4108,-55.698 740.7194,-38.1448 928.4117,-31.6643"/>
<polygon fill="none" stroke="#404040" points="928.6651,-31.6557 934.5245,-27.4524 940.658,-31.2444 934.7987,-35.4477 928.6651,-31.6557"/>
<text text-anchor="middle" x="289.2598" y="-95.5" font-family="Helvetica,sans-Serif" font-size="10.00" fill="#000000"> +resource</text>
</g>
<!-- Node3 -->
<g id="node3" class="node">
<title>Node3</title>
<g id="a_node3"><a xlink:href="../../d4/dc3/classfloat.html" target="_top" xlink:title="{float\n||}">
<polygon fill="none" stroke="#000000" points="177.2598,-359 177.2598,-416 212.2598,-416 212.2598,-359 177.2598,-359"/>
<text text-anchor="middle" x="194.7598" y="-404" font-family="Helvetica,sans-Serif" font-size="10.00" fill="#000000">float</text>
<polyline fill="none" stroke="#000000" points="177.2598,-397 212.2598,-397 "/>
<text text-anchor="middle" x="194.7598" y="-385" font-family="Helvetica,sans-Serif" font-size="10.00" fill="#000000"> </text>
<polyline fill="none" stroke="#000000" points="177.2598,-378 212.2598,-378 "/>
<text text-anchor="middle" x="194.7598" y="-366" font-family="Helvetica,sans-Serif" font-size="10.00" fill="#000000"> </text>
</a>
</g>
</g>
<!-- Node3&#45;&gt;Node2 -->
<g id="edge2" class="edge">
<title>Node3&#45;&gt;Node2</title>
<path fill="none" stroke="#404040" d="M192.9879,-358.8187C192.4806,-342.1333 192.7306,-320.7583 195.7598,-302 197.8848,-288.8405 201.535,-274.9722 205.5428,-262.1378"/>
<polygon fill="none" stroke="#404040" points="205.5564,-262.0961 203.6221,-255.1493 209.2906,-250.6919 211.2249,-257.6387 205.5564,-262.0961"/>
<text text-anchor="middle" x="216.7598" y="-321.5" font-family="Helvetica,sans-Serif" font-size="10.00" fill="#000000"> +cpu</text>
<text text-anchor="middle" x="216.7598" y="-310.5" font-family="Helvetica,sans-Serif" font-size="10.00" fill="#000000">+memory</text>
</g>
<!-- Node4 -->
<g id="node4" class="node">
<title>Node4</title>
<polygon fill="none" stroke="#bfbfbf" points="340.2598,-359 340.2598,-416 369.2598,-416 369.2598,-359 340.2598,-359"/>
<text text-anchor="middle" x="354.7598" y="-404" font-family="Helvetica,sans-Serif" font-size="10.00" fill="#000000">int</text>
<polyline fill="none" stroke="#bfbfbf" points="340.2598,-397 369.2598,-397 "/>
<text text-anchor="middle" x="354.7598" y="-385" font-family="Helvetica,sans-Serif" font-size="10.00" fill="#000000"> </text>
<polyline fill="none" stroke="#bfbfbf" points="340.2598,-378 369.2598,-378 "/>
<text text-anchor="middle" x="354.7598" y="-366" font-family="Helvetica,sans-Serif" font-size="10.00" fill="#000000"> </text>
</g>
<!-- Node4&#45;&gt;Node1 -->
<g id="edge16" class="edge">
<title>Node4&#45;&gt;Node1</title>
<path fill="none" stroke="#404040" d="M341.3445,-358.6208C320.1536,-308.2404 286.1602,-203.4293 335.7598,-138 397.3871,-56.7043 456.5515,-95.1108 556.7598,-76 685.4066,-51.4657 837.2201,-39.004 928.3661,-33.2633"/>
<polygon fill="none" stroke="#404040" points="928.5648,-33.2512 934.3076,-28.89 940.5421,-32.5138 934.7992,-36.8749 928.5648,-33.2512"/>
<text text-anchor="middle" x="368.7598" y="-219.5" font-family="Helvetica,sans-Serif" font-size="10.00" fill="#000000"> +id</text>
<text text-anchor="middle" x="368.7598" y="-208.5" font-family="Helvetica,sans-Serif" font-size="10.00" fill="#000000">+name</text>
<text text-anchor="middle" x="368.7598" y="-197.5" font-family="Helvetica,sans-Serif" font-size="10.00" fill="#000000">+channelPrefix</text>
</g>
<!-- Node4&#45;&gt;Node2 -->
<g id="edge3" class="edge">
<title>Node4&#45;&gt;Node2</title>
<path fill="none" stroke="#404040" d="M340.0166,-383.2149C319.2476,-376.4192 281.5898,-361.1844 260.7598,-335 244.3443,-314.3649 235.4136,-286.5135 230.5551,-262.4338"/>
<polygon fill="none" stroke="#404040" points="230.5518,-262.415 225.5517,-257.219 228.4249,-250.605 233.425,-255.8011 230.5518,-262.415"/>
<text text-anchor="middle" x="286.7598" y="-316" font-family="Helvetica,sans-Serif" font-size="10.00" fill="#000000"> +hostname</text>
</g>
<!-- Node6 -->
<g id="node6" class="node">
<title>Node6</title>
<g id="a_node6"><a xlink:href="../../d0/d80/structo2_1_1framework_1_1DispatchPolicy.html" target="_top" xlink:title="{o2::framework::DispatchPolicy\n||+ createDefaultPolicies()\l}">
<polygon fill="none" stroke="#000000" points="1351.2598,-182.5 1351.2598,-239.5 1502.2598,-239.5 1502.2598,-182.5 1351.2598,-182.5"/>
<text text-anchor="middle" x="1426.7598" y="-227.5" font-family="Helvetica,sans-Serif" font-size="10.00" fill="#000000">o2::framework::DispatchPolicy</text>
<polyline fill="none" stroke="#000000" points="1351.2598,-220.5 1502.2598,-220.5 "/>
<text text-anchor="middle" x="1426.7598" y="-208.5" font-family="Helvetica,sans-Serif" font-size="10.00" fill="#000000"> </text>
<polyline fill="none" stroke="#000000" points="1351.2598,-201.5 1502.2598,-201.5 "/>
<text text-anchor="start" x="1359.2598" y="-189.5" font-family="Helvetica,sans-Serif" font-size="10.00" fill="#000000">+ createDefaultPolicies()</text>
</a>
</g>
</g>
<!-- Node4&#45;&gt;Node6 -->
<g id="edge8" class="edge">
<title>Node4&#45;&gt;Node6</title>
<path fill="none" stroke="#404040" d="M369.3893,-374.8177C379.4481,-366.936 393.5159,-357.4792 407.7598,-353 466.8292,-334.4249 903.0733,-340.3866 964.7598,-335 1068.0756,-325.9783 1092.9512,-315.6365 1195.7598,-302 1261.0096,-293.3453 1282.6228,-310.7579 1342.7598,-284 1361.4395,-275.6885 1379.0291,-261.775 1393.2381,-248.3109"/>
<polygon fill="none" stroke="#404040" points="1393.5278,-248.0248 1394.9851,-240.9625 1402.0647,-239.5914 1400.6074,-246.6538 1393.5278,-248.0248"/>
<text text-anchor="middle" x="1212.7598" y="-316" font-family="Helvetica,sans-Serif" font-size="10.00" fill="#000000"> +name</text>
</g>
<!-- Node16 -->
<g id="node16" class="node">
<title>Node16</title>
<g id="a_node16"><a xlink:href="../../d6/d43/structo2_1_1framework_1_1CompletionPolicy.html" target="_top" xlink:title="{o2::framework::Completion\lPolicy\n||+ CompletionPolicy()\l+ CompletionPolicy()\l+ createDefaultPolicies()\l}">
<polygon fill="none" stroke="#000000" points="410.7598,-166 410.7598,-256 544.7598,-256 544.7598,-166 410.7598,-166"/>
<text text-anchor="start" x="418.7598" y="-244" font-family="Helvetica,sans-Serif" font-size="10.00" fill="#000000">o2::framework::Completion</text>
<text text-anchor="middle" x="477.7598" y="-233" font-family="Helvetica,sans-Serif" font-size="10.00" fill="#000000">Policy</text>
<polyline fill="none" stroke="#000000" points="410.7598,-226 544.7598,-226 "/>
<text text-anchor="middle" x="477.7598" y="-214" font-family="Helvetica,sans-Serif" font-size="10.00" fill="#000000"> </text>
<polyline fill="none" stroke="#000000" points="410.7598,-207 544.7598,-207 "/>
<text text-anchor="start" x="418.7598" y="-195" font-family="Helvetica,sans-Serif" font-size="10.00" fill="#000000">+ CompletionPolicy()</text>
<text text-anchor="start" x="418.7598" y="-184" font-family="Helvetica,sans-Serif" font-size="10.00" fill="#000000">+ CompletionPolicy()</text>
<text text-anchor="start" x="418.7598" y="-173" font-family="Helvetica,sans-Serif" font-size="10.00" fill="#000000">+ createDefaultPolicies()</text>
</a>
</g>
</g>
<!-- Node4&#45;&gt;Node16 -->
<g id="edge20" class="edge">
<title>Node4&#45;&gt;Node16</title>
<path fill="none" stroke="#404040" d="M369.3525,-366.56C386.4228,-342.0649 415.3635,-300.5361 439.0505,-266.5462"/>
<polygon fill="none" stroke="#404040" points="439.353,-266.1121 439.5018,-258.9025 446.214,-256.2669 446.0653,-263.4765 439.353,-266.1121"/>
<text text-anchor="middle" x="429.7598" y="-316" font-family="Helvetica,sans-Serif" font-size="10.00" fill="#000000"> +name</text>
</g>
<!-- Node5 -->
<g id="node5" class="node">
<title>Node5</title>
<polygon fill="none" stroke="#bfbfbf" points="14.7598,-359 14.7598,-416 70.7598,-416 70.7598,-359 14.7598,-359"/>
<text text-anchor="middle" x="42.7598" y="-404" font-family="Helvetica,sans-Serif" font-size="10.00" fill="#000000">unsigned</text>
<polyline fill="none" stroke="#bfbfbf" points="14.7598,-397 70.7598,-397 "/>
<text text-anchor="middle" x="42.7598" y="-385" font-family="Helvetica,sans-Serif" font-size="10.00" fill="#000000"> </text>
<polyline fill="none" stroke="#bfbfbf" points="14.7598,-378 70.7598,-378 "/>
<text text-anchor="middle" x="42.7598" y="-366" font-family="Helvetica,sans-Serif" font-size="10.00" fill="#000000"> </text>
</g>
<!-- Node5&#45;&gt;Node1 -->
<g id="edge27" class="edge">
<title>Node5&#45;&gt;Node1</title>
<path fill="none" stroke="#404040" d="M29.8076,-358.7017C9.379,-308.4464 -23.2371,-203.8229 25.7598,-138 83.1049,-60.9621 138.2005,-92.7886 232.7598,-76 364.5046,-52.6093 757.3396,-37.2833 928.5207,-31.541"/>
<polygon fill="none" stroke="#404040" points="928.7088,-31.5348 934.5725,-27.3376 940.7021,-31.136 934.8384,-35.3332 928.7088,-31.5348"/>
<text text-anchor="middle" x="87.7598" y="-208.5" font-family="Helvetica,sans-Serif" font-size="10.00" fill="#000000"> +resourceMonitoringInterval</text>
</g>
<!-- Node5&#45;&gt;Node2 -->
<g id="edge4" class="edge">
<title>Node5&#45;&gt;Node2</title>
<path fill="none" stroke="#404040" d="M70.7984,-360.3087C98.5327,-333.4125 141.571,-291.6748 175.1004,-259.1587"/>
<polygon fill="none" stroke="#404040" points="175.2292,-259.0338 176.7517,-251.9852 183.8437,-250.6796 182.3212,-257.7282 175.2292,-259.0338"/>
<text text-anchor="middle" x="154.2598" y="-327" font-family="Helvetica,sans-Serif" font-size="10.00" fill="#000000"> +startPort</text>
<text text-anchor="middle" x="154.2598" y="-316" font-family="Helvetica,sans-Serif" font-size="10.00" fill="#000000">+usedPorts</text>
<text text-anchor="middle" x="154.2598" y="-305" font-family="Helvetica,sans-Serif" font-size="10.00" fill="#000000">+lastPort</text>
</g>
<!-- Node6&#45;&gt;Node1 -->
<g id="edge5" class="edge">
<title>Node6&#45;&gt;Node1</title>
<path fill="none" stroke="#404040" d="M1396.2382,-182.3779C1380.7187,-168.3754 1361.2668,-151.6423 1342.7598,-138 1300.6666,-106.9713 1291.3805,-95.252 1242.7598,-76 1194.1555,-56.7545 1136.5996,-45.0472 1090.8531,-38.1302"/>
<polygon fill="none" stroke="#404040" points="1090.7618,-38.117 1084.2482,-41.2111 1078.8869,-36.3886 1085.4005,-33.2945 1090.7618,-38.117"/>
<text text-anchor="middle" x="1353.2598" y="-95.5" font-family="Helvetica,sans-Serif" font-size="10.00" fill="#000000"> +dispatchPolicy</text>
</g>
<!-- Node7 -->
<g id="node7" class="node">
<title>Node7</title>
<polygon fill="none" stroke="#bfbfbf" points="1371.7598,-353.5 1371.7598,-421.5 1481.7598,-421.5 1481.7598,-353.5 1371.7598,-353.5"/>
<text text-anchor="start" x="1379.7598" y="-409.5" font-family="Helvetica,sans-Serif" font-size="10.00" fill="#000000">function&lt; bool(Output</text>
<text text-anchor="middle" x="1426.7598" y="-398.5" font-family="Helvetica,sans-Serif" font-size="10.00" fill="#000000"> const &amp;)&gt;</text>
<polyline fill="none" stroke="#bfbfbf" points="1371.7598,-391.5 1481.7598,-391.5 "/>
<text text-anchor="middle" x="1426.7598" y="-379.5" font-family="Helvetica,sans-Serif" font-size="10.00" fill="#000000"> </text>
<polyline fill="none" stroke="#bfbfbf" points="1371.7598,-372.5 1481.7598,-372.5 "/>
<text text-anchor="middle" x="1426.7598" y="-360.5" font-family="Helvetica,sans-Serif" font-size="10.00" fill="#000000"> </text>
</g>
<!-- Node7&#45;&gt;Node6 -->
<g id="edge6" class="edge">
<title>Node7&#45;&gt;Node6</title>
<path fill="none" stroke="#404040" d="M1426.7598,-353.469C1426.7598,-324.4148 1426.7598,-282.5593 1426.7598,-251.7296"/>
<polygon fill="none" stroke="#404040" points="1426.7599,-251.6768 1422.7598,-245.6768 1426.7598,-239.6768 1430.7598,-245.6768 1426.7599,-251.6768"/>
<text text-anchor="middle" x="1462.7598" y="-316" font-family="Helvetica,sans-Serif" font-size="10.00" fill="#000000"> +triggerMatcher</text>
</g>
<!-- Node8 -->
<g id="node8" class="node">
<title>Node8</title>
<polygon fill="none" stroke="#bfbfbf" points="1219.7598,-353.5 1219.7598,-421.5 1353.7598,-421.5 1353.7598,-353.5 1219.7598,-353.5"/>
<text text-anchor="start" x="1227.7598" y="-409.5" font-family="Helvetica,sans-Serif" font-size="10.00" fill="#000000">function&lt; bool(DeviceSpec</text>
<text text-anchor="middle" x="1286.7598" y="-398.5" font-family="Helvetica,sans-Serif" font-size="10.00" fill="#000000"> const &amp;device)&gt;</text>
<polyline fill="none" stroke="#bfbfbf" points="1219.7598,-391.5 1353.7598,-391.5 "/>
<text text-anchor="middle" x="1286.7598" y="-379.5" font-family="Helvetica,sans-Serif" font-size="10.00" fill="#000000"> </text>
<polyline fill="none" stroke="#bfbfbf" points="1219.7598,-372.5 1353.7598,-372.5 "/>
<text text-anchor="middle" x="1286.7598" y="-360.5" font-family="Helvetica,sans-Serif" font-size="10.00" fill="#000000"> </text>
</g>
<!-- Node8&#45;&gt;Node6 -->
<g id="edge7" class="edge">
<title>Node8&#45;&gt;Node6</title>
<path fill="none" stroke="#404040" d="M1311.0794,-353.4015C1322.5668,-337.5814 1336.6151,-318.6379 1349.7598,-302 1363.8091,-284.2171 1379.9285,-264.9965 1393.7762,-248.8223"/>
<polygon fill="none" stroke="#404040" points="1393.8097,-248.7833 1394.6891,-241.626 1401.6341,-239.685 1400.7547,-246.8423 1393.8097,-248.7833"/>
<text text-anchor="middle" x="1386.2598" y="-316" font-family="Helvetica,sans-Serif" font-size="10.00" fill="#000000"> +deviceMatcher</text>
</g>
<!-- Node8&#45;&gt;Node16 -->
<g id="edge19" class="edge">
<title>Node8&#45;&gt;Node16</title>
<path fill="none" stroke="#404040" d="M1219.675,-355.5165C1216.6925,-354.5816 1213.7126,-353.735 1210.7598,-353 1085.0161,-321.7009 1048.6915,-347.9513 919.7598,-335 756.3439,-318.5848 701.5146,-355.7129 553.7598,-284 543.3765,-278.9604 533.4954,-271.9716 524.4995,-264.3002"/>
<polygon fill="none" stroke="#404040" points="524.3544,-264.1687 517.2223,-263.1046 515.4614,-256.1118 522.5936,-257.1759 524.3544,-264.1687"/>
<text text-anchor="middle" x="942.2598" y="-316" font-family="Helvetica,sans-Serif" font-size="10.00" fill="#000000"> +matcher</text>
</g>
<!-- Node9 -->
<g id="node9" class="node">
<title>Node9</title>
<polygon fill="none" stroke="#bfbfbf" points="1133.7598,-359 1133.7598,-416 1201.7598,-416 1201.7598,-359 1133.7598,-359"/>
<text text-anchor="middle" x="1167.7598" y="-404" font-family="Helvetica,sans-Serif" font-size="10.00" fill="#000000">DispatchOp</text>
<polyline fill="none" stroke="#bfbfbf" points="1133.7598,-397 1201.7598,-397 "/>
<text text-anchor="middle" x="1167.7598" y="-385" font-family="Helvetica,sans-Serif" font-size="10.00" fill="#000000"> </text>
<polyline fill="none" stroke="#bfbfbf" points="1133.7598,-378 1201.7598,-378 "/>
<text text-anchor="middle" x="1167.7598" y="-366" font-family="Helvetica,sans-Serif" font-size="10.00" fill="#000000"> </text>
</g>
<!-- Node9&#45;&gt;Node6 -->
<g id="edge9" class="edge">
<title>Node9&#45;&gt;Node6</title>
<path fill="none" stroke="#404040" d="M1201.8514,-359.7787C1204.8432,-357.4583 1207.8421,-355.1714 1210.7598,-353 1242.8029,-329.1527 1248.831,-319.4522 1284.7598,-302 1309.0378,-290.2071 1319.18,-297.1334 1342.7598,-284 1360.0676,-274.3599 1376.9869,-260.7307 1391.0521,-247.8545"/>
<polygon fill="none" stroke="#404040" points="1391.1273,-247.7836 1392.7486,-240.7571 1399.8582,-239.5512 1398.2369,-246.5777 1391.1273,-247.7836"/>
<text text-anchor="middle" x="1302.7598" y="-316" font-family="Helvetica,sans-Serif" font-size="10.00" fill="#000000"> +action</text>
</g>
<!-- Node10 -->
<g id="node10" class="node">
<title>Node10</title>
<polygon fill="none" stroke="#bfbfbf" points="563.2598,-177 563.2598,-245 678.2598,-245 678.2598,-177 563.2598,-177"/>
<text text-anchor="start" x="571.2598" y="-233" font-family="Helvetica,sans-Serif" font-size="10.00" fill="#000000">vector&lt; o2::framework</text>
<text text-anchor="middle" x="620.7598" y="-222" font-family="Helvetica,sans-Serif" font-size="10.00" fill="#000000">::InputRoute &gt;</text>
<polyline fill="none" stroke="#bfbfbf" points="563.2598,-215 678.2598,-215 "/>
<text text-anchor="middle" x="620.7598" y="-203" font-family="Helvetica,sans-Serif" font-size="10.00" fill="#000000"> </text>
<polyline fill="none" stroke="#bfbfbf" points="563.2598,-196 678.2598,-196 "/>
<text text-anchor="middle" x="620.7598" y="-184" font-family="Helvetica,sans-Serif" font-size="10.00" fill="#000000"> </text>
</g>
<!-- Node10&#45;&gt;Node1 -->
<g id="edge10" class="edge">
<title>Node10&#45;&gt;Node1</title>
<path fill="none" stroke="#404040" d="M648.1286,-176.7005C659.3473,-163.7672 672.9346,-149.4323 686.7598,-138 727.6434,-104.1925 739.451,-95.5721 788.7598,-76 833.321,-58.3123 885.7073,-46.8007 928.2896,-39.5997"/>
<polygon fill="none" stroke="#404040" points="928.4672,-39.5707 933.744,-34.6559 940.3103,-37.6364 935.0336,-42.5512 928.4672,-39.5707"/>
<text text-anchor="middle" x="806.7598" y="-95.5" font-family="Helvetica,sans-Serif" font-size="10.00" fill="#000000"> +inputs</text>
</g>
<!-- Node11 -->
<g id="node11" class="node">
<title>Node11</title>
<polygon fill="none" stroke="#bfbfbf" points="696.2598,-177 696.2598,-245 811.2598,-245 811.2598,-177 696.2598,-177"/>
<text text-anchor="start" x="704.2598" y="-233" font-family="Helvetica,sans-Serif" font-size="10.00" fill="#000000">vector&lt; o2::framework</text>
<text text-anchor="middle" x="753.7598" y="-222" font-family="Helvetica,sans-Serif" font-size="10.00" fill="#000000">::ConfigParamSpec &gt;</text>
<polyline fill="none" stroke="#bfbfbf" points="696.2598,-215 811.2598,-215 "/>
<text text-anchor="middle" x="753.7598" y="-203" font-family="Helvetica,sans-Serif" font-size="10.00" fill="#000000"> </text>
<polyline fill="none" stroke="#bfbfbf" points="696.2598,-196 811.2598,-196 "/>
<text text-anchor="middle" x="753.7598" y="-184" font-family="Helvetica,sans-Serif" font-size="10.00" fill="#000000"> </text>
</g>
<!-- Node11&#45;&gt;Node1 -->
<g id="edge11" class="edge">
<title>Node11&#45;&gt;Node1</title>
<path fill="none" stroke="#404040" d="M777.6266,-176.8648C800.4406,-146.5295 837.4085,-102.9346 878.7598,-76 894.1225,-65.9934 911.887,-57.7896 929.2799,-51.199"/>
<polygon fill="none" stroke="#404040" points="929.3412,-51.1769 933.6244,-45.3757 940.6268,-47.0983 936.3435,-52.8994 929.3412,-51.1769"/>
<text text-anchor="middle" x="899.2598" y="-95.5" font-family="Helvetica,sans-Serif" font-size="10.00" fill="#000000"> +options</text>
</g>
<!-- Node12 -->
<g id="node12" class="node">
<title>Node12</title>
<polygon fill="none" stroke="#bfbfbf" points="829.2598,-182.5 829.2598,-239.5 934.2598,-239.5 934.2598,-182.5 829.2598,-182.5"/>
<text text-anchor="middle" x="881.7598" y="-227.5" font-family="Helvetica,sans-Serif" font-size="10.00" fill="#000000">vector&lt; std::string &gt;</text>
<polyline fill="none" stroke="#bfbfbf" points="829.2598,-220.5 934.2598,-220.5 "/>
<text text-anchor="middle" x="881.7598" y="-208.5" font-family="Helvetica,sans-Serif" font-size="10.00" fill="#000000"> </text>
<polyline fill="none" stroke="#bfbfbf" points="829.2598,-201.5 934.2598,-201.5 "/>
<text text-anchor="middle" x="881.7598" y="-189.5" font-family="Helvetica,sans-Serif" font-size="10.00" fill="#000000"> </text>
</g>
<!-- Node12&#45;&gt;Node1 -->
<g id="edge12" class="edge">
<title>Node12&#45;&gt;Node1</title>
<path fill="none" stroke="#404040" d="M892.2396,-182.3107C903.6889,-153.4675 924.0218,-108.7077 950.7598,-76 953.5779,-72.5527 956.6881,-69.1921 959.9632,-65.9559"/>
<polygon fill="none" stroke="#404040" points="960.0991,-65.8309 961.8063,-58.8248 968.9302,-57.706 967.2229,-64.7121 960.0991,-65.8309"/>
<text text-anchor="middle" x="978.2598" y="-95.5" font-family="Helvetica,sans-Serif" font-size="10.00" fill="#000000"> +arguments</text>
</g>
<!-- Node13 -->
<g id="node13" class="node">
<title>Node13</title>
<polygon fill="none" stroke="#bfbfbf" points="952.2598,-177 952.2598,-245 1067.2598,-245 1067.2598,-177 952.2598,-177"/>
<text text-anchor="start" x="960.2598" y="-233" font-family="Helvetica,sans-Serif" font-size="10.00" fill="#000000">vector&lt; o2::framework</text>
<text text-anchor="middle" x="1009.7598" y="-222" font-family="Helvetica,sans-Serif" font-size="10.00" fill="#000000">::OutputRoute &gt;</text>
<polyline fill="none" stroke="#bfbfbf" points="952.2598,-215 1067.2598,-215 "/>
<text text-anchor="middle" x="1009.7598" y="-203" font-family="Helvetica,sans-Serif" font-size="10.00" fill="#000000"> </text>
<polyline fill="none" stroke="#bfbfbf" points="952.2598,-196 1067.2598,-196 "/>
<text text-anchor="middle" x="1009.7598" y="-184" font-family="Helvetica,sans-Serif" font-size="10.00" fill="#000000"> </text>
</g>
<!-- Node13&#45;&gt;Node1 -->
<g id="edge13" class="edge">
<title>Node13&#45;&gt;Node1</title>
<path fill="none" stroke="#404040" d="M1009.7598,-176.7672C1009.7598,-146.4053 1009.7598,-102.006 1009.7598,-69.8072"/>
<polygon fill="none" stroke="#404040" points="1009.7599,-69.691 1005.7598,-63.691 1009.7598,-57.691 1013.7598,-63.6909 1009.7599,-69.691"/>
<text text-anchor="middle" x="1030.7598" y="-95.5" font-family="Helvetica,sans-Serif" font-size="10.00" fill="#000000"> +outputs</text>
</g>
<!-- Node14 -->
<g id="node14" class="node">
<title>Node14</title>
<polygon fill="none" stroke="#bfbfbf" points="1085.2598,-177 1085.2598,-245 1200.2598,-245 1200.2598,-177 1085.2598,-177"/>
<text text-anchor="start" x="1093.2598" y="-233" font-family="Helvetica,sans-Serif" font-size="10.00" fill="#000000">vector&lt; o2::framework</text>
<text text-anchor="middle" x="1142.7598" y="-222" font-family="Helvetica,sans-Serif" font-size="10.00" fill="#000000">::ServiceSpec &gt;</text>
<polyline fill="none" stroke="#bfbfbf" points="1085.2598,-215 1200.2598,-215 "/>
<text text-anchor="middle" x="1142.7598" y="-203" font-family="Helvetica,sans-Serif" font-size="10.00" fill="#000000"> </text>
<polyline fill="none" stroke="#bfbfbf" points="1085.2598,-196 1200.2598,-196 "/>
<text text-anchor="middle" x="1142.7598" y="-184" font-family="Helvetica,sans-Serif" font-size="10.00" fill="#000000"> </text>
</g>
<!-- Node14&#45;&gt;Node1 -->
<g id="edge14" class="edge">
<title>Node14&#45;&gt;Node1</title>
<path fill="none" stroke="#404040" d="M1123.4505,-176.9808C1106.895,-148.8775 1081.6744,-108.4723 1055.7598,-76 1053.3027,-72.9212 1050.6725,-69.8186 1047.9604,-66.7546"/>
<polygon fill="none" stroke="#404040" points="1047.7932,-66.5729 1040.7874,-64.8646 1039.6697,-57.7406 1046.6755,-59.4489 1047.7932,-66.5729"/>
<text text-anchor="middle" x="1109.7598" y="-95.5" font-family="Helvetica,sans-Serif" font-size="10.00" fill="#000000"> +services</text>
</g>
<!-- Node15 -->
<g id="node15" class="node">
<title>Node15</title>
<polygon fill="none" stroke="#bfbfbf" points="1218.2598,-177 1218.2598,-245 1333.2598,-245 1333.2598,-177 1218.2598,-177"/>
<text text-anchor="start" x="1226.2598" y="-233" font-family="Helvetica,sans-Serif" font-size="10.00" fill="#000000">vector&lt; o2::framework</text>
<text text-anchor="middle" x="1275.7598" y="-222" font-family="Helvetica,sans-Serif" font-size="10.00" fill="#000000">::ForwardRoute &gt;</text>
<polyline fill="none" stroke="#bfbfbf" points="1218.2598,-215 1333.2598,-215 "/>
<text text-anchor="middle" x="1275.7598" y="-203" font-family="Helvetica,sans-Serif" font-size="10.00" fill="#000000"> </text>
<polyline fill="none" stroke="#bfbfbf" points="1218.2598,-196 1333.2598,-196 "/>
<text text-anchor="middle" x="1275.7598" y="-184" font-family="Helvetica,sans-Serif" font-size="10.00" fill="#000000"> </text>
</g>
<!-- Node15&#45;&gt;Node1 -->
<g id="edge15" class="edge">
<title>Node15&#45;&gt;Node1</title>
<path fill="none" stroke="#404040" d="M1248.941,-176.8344C1223.2302,-146.2636 1181.7678,-102.327 1136.7598,-76 1122.3896,-67.5943 1106.2521,-60.2427 1090.4245,-54.0051"/>
<polygon fill="none" stroke="#404040" points="1090.2024,-53.9209 1083.1732,-55.5304 1078.984,-49.661 1086.0132,-48.0515 1090.2024,-53.9209"/>
<text text-anchor="middle" x="1215.2598" y="-95.5" font-family="Helvetica,sans-Serif" font-size="10.00" fill="#000000"> +forwards</text>
</g>
<!-- Node16&#45;&gt;Node1 -->
<g id="edge17" class="edge">
<title>Node16&#45;&gt;Node1</title>
<path fill="none" stroke="#404040" d="M512.5223,-165.8919C539.1029,-134.976 578.6057,-96.0598 622.7598,-76 675.6477,-51.9723 831.6131,-39.0354 928.6412,-33.119"/>
<polygon fill="none" stroke="#404040" points="928.7759,-33.1111 934.5276,-28.7616 940.7547,-32.3981 935.003,-36.7475 928.7759,-33.1111"/>
<text text-anchor="middle" x="664.7598" y="-95.5" font-family="Helvetica,sans-Serif" font-size="10.00" fill="#000000"> +completionPolicy</text>
</g>
<!-- Node17 -->
<g id="node17" class="node">
<title>Node17</title>
<polygon fill="none" stroke="#bfbfbf" points="416.7598,-353.5 416.7598,-421.5 538.7598,-421.5 538.7598,-353.5 416.7598,-353.5"/>
<text text-anchor="start" x="424.7598" y="-409.5" font-family="Helvetica,sans-Serif" font-size="10.00" fill="#000000">function&lt; CompletionOp</text>
<text text-anchor="middle" x="477.7598" y="-398.5" font-family="Helvetica,sans-Serif" font-size="10.00" fill="#000000">(InputSet)&gt;</text>
<polyline fill="none" stroke="#bfbfbf" points="416.7598,-391.5 538.7598,-391.5 "/>
<text text-anchor="middle" x="477.7598" y="-379.5" font-family="Helvetica,sans-Serif" font-size="10.00" fill="#000000"> </text>
<polyline fill="none" stroke="#bfbfbf" points="416.7598,-372.5 538.7598,-372.5 "/>
<text text-anchor="middle" x="477.7598" y="-360.5" font-family="Helvetica,sans-Serif" font-size="10.00" fill="#000000"> </text>
</g>
<!-- Node17&#45;&gt;Node16 -->
<g id="edge18" class="edge">
<title>Node17&#45;&gt;Node16</title>
<path fill="none" stroke="#404040" d="M477.7598,-353.469C477.7598,-329.3851 477.7598,-296.5052 477.7598,-268.4005"/>
<polygon fill="none" stroke="#404040" points="477.7599,-268.2812 473.7598,-262.2812 477.7598,-256.2812 481.7598,-262.2812 477.7599,-268.2812"/>
<text text-anchor="middle" x="500.7598" y="-316" font-family="Helvetica,sans-Serif" font-size="10.00" fill="#000000"> +callback</text>
</g>
<!-- Node18 -->
<g id="node18" class="node">
<title>Node18</title>
<g id="a_node18"><a xlink:href="../../d4/d5e/structo2_1_1framework_1_1AlgorithmSpec.html" target="_top" xlink:title="{o2::framework::AlgorithmSpec\n||+ AlgorithmSpec()\l+ AlgorithmSpec()\l+ AlgorithmSpec()\l+ AlgorithmSpec()\l+ operator=()\l+ AlgorithmSpec()\l+ AlgorithmSpec()\l+ dummyAlgorithm()\l+ emptyErrorCallback()\l}">
<polygon fill="none" stroke="#000000" points="1520.2598,-138.5 1520.2598,-283.5 1669.2598,-283.5 1669.2598,-138.5 1520.2598,-138.5"/>
<text text-anchor="middle" x="1594.7598" y="-271.5" font-family="Helvetica,sans-Serif" font-size="10.00" fill="#000000">o2::framework::AlgorithmSpec</text>
<polyline fill="none" stroke="#000000" points="1520.2598,-264.5 1669.2598,-264.5 "/>
<text text-anchor="middle" x="1594.7598" y="-252.5" font-family="Helvetica,sans-Serif" font-size="10.00" fill="#000000"> </text>
<polyline fill="none" stroke="#000000" points="1520.2598,-245.5 1669.2598,-245.5 "/>
<text text-anchor="start" x="1528.2598" y="-233.5" font-family="Helvetica,sans-Serif" font-size="10.00" fill="#000000">+ AlgorithmSpec()</text>
<text text-anchor="start" x="1528.2598" y="-222.5" font-family="Helvetica,sans-Serif" font-size="10.00" fill="#000000">+ AlgorithmSpec()</text>
<text text-anchor="start" x="1528.2598" y="-211.5" font-family="Helvetica,sans-Serif" font-size="10.00" fill="#000000">+ AlgorithmSpec()</text>
<text text-anchor="start" x="1528.2598" y="-200.5" font-family="Helvetica,sans-Serif" font-size="10.00" fill="#000000">+ AlgorithmSpec()</text>
<text text-anchor="start" x="1528.2598" y="-189.5" font-family="Helvetica,sans-Serif" font-size="10.00" fill="#000000">+ operator=()</text>
<text text-anchor="start" x="1528.2598" y="-178.5" font-family="Helvetica,sans-Serif" font-size="10.00" fill="#000000">+ AlgorithmSpec()</text>
<text text-anchor="start" x="1528.2598" y="-167.5" font-family="Helvetica,sans-Serif" font-size="10.00" fill="#000000">+ AlgorithmSpec()</text>
<text text-anchor="start" x="1528.2598" y="-156.5" font-family="Helvetica,sans-Serif" font-size="10.00" fill="#000000">+ dummyAlgorithm()</text>
<text text-anchor="start" x="1528.2598" y="-145.5" font-family="Helvetica,sans-Serif" font-size="10.00" fill="#000000">+ emptyErrorCallback()</text>
</a>
</g>
</g>
<!-- Node18&#45;&gt;Node1 -->
<g id="edge21" class="edge">
<title>Node18&#45;&gt;Node1</title>
<path fill="none" stroke="#404040" d="M1519.8371,-143.7577C1517.1443,-141.7743 1514.4475,-139.849 1511.7598,-138 1462.951,-104.4228 1450.3078,-93.665 1393.7598,-76 1339.0988,-58.9245 1186.8746,-43.7431 1091.3173,-35.5091"/>
<polygon fill="none" stroke="#404040" points="1091.0479,-35.4862 1084.7298,-38.962 1079.0913,-34.4668 1085.4094,-30.9909 1091.0479,-35.4862"/>
<text text-anchor="middle" x="1508.2598" y="-95.5" font-family="Helvetica,sans-Serif" font-size="10.00" fill="#000000"> +algorithm</text>
</g>
<!-- Node19 -->
<g id="node19" class="node">
<title>Node19</title>
<polygon fill="none" stroke="#bfbfbf" points="1500.2598,-359 1500.2598,-416 1655.2598,-416 1655.2598,-359 1500.2598,-359"/>
<text text-anchor="middle" x="1577.7598" y="-404" font-family="Helvetica,sans-Serif" font-size="10.00" fill="#000000">function&lt; void(ErrorContext &amp;)&gt;</text>
<polyline fill="none" stroke="#bfbfbf" points="1500.2598,-397 1655.2598,-397 "/>
<text text-anchor="middle" x="1577.7598" y="-385" font-family="Helvetica,sans-Serif" font-size="10.00" fill="#000000"> </text>
<polyline fill="none" stroke="#bfbfbf" points="1500.2598,-378 1655.2598,-378 "/>
<text text-anchor="middle" x="1577.7598" y="-366" font-family="Helvetica,sans-Serif" font-size="10.00" fill="#000000"> </text>
</g>
<!-- Node19&#45;&gt;Node18 -->
<g id="edge22" class="edge">
<title>Node19&#45;&gt;Node18</title>
<path fill="none" stroke="#404040" d="M1580.529,-358.7494C1582.1958,-341.444 1584.4129,-318.4249 1586.6,-295.718"/>
<polygon fill="none" stroke="#404040" points="1586.6223,-295.4852 1583.216,-289.1293 1587.7729,-283.5404 1591.1792,-289.8963 1586.6223,-295.4852"/>
<text text-anchor="middle" x="1605.2598" y="-316" font-family="Helvetica,sans-Serif" font-size="10.00" fill="#000000"> +onError</text>
</g>
<!-- Node20 -->
<g id="node20" class="node">
<title>Node20</title>
<polygon fill="none" stroke="#bfbfbf" points="1673.7598,-353.5 1673.7598,-421.5 1803.7598,-421.5 1803.7598,-353.5 1673.7598,-353.5"/>
<text text-anchor="start" x="1681.7598" y="-409.5" font-family="Helvetica,sans-Serif" font-size="10.00" fill="#000000">function&lt; void(Processing</text>
<text text-anchor="middle" x="1738.7598" y="-398.5" font-family="Helvetica,sans-Serif" font-size="10.00" fill="#000000">Context &amp;)&gt;</text>
<polyline fill="none" stroke="#bfbfbf" points="1673.7598,-391.5 1803.7598,-391.5 "/>
<text text-anchor="middle" x="1738.7598" y="-379.5" font-family="Helvetica,sans-Serif" font-size="10.00" fill="#000000"> </text>
<polyline fill="none" stroke="#bfbfbf" points="1673.7598,-372.5 1803.7598,-372.5 "/>
<text text-anchor="middle" x="1738.7598" y="-360.5" font-family="Helvetica,sans-Serif" font-size="10.00" fill="#000000"> </text>
</g>
<!-- Node20&#45;&gt;Node18 -->
<g id="edge23" class="edge">
<title>Node20&#45;&gt;Node18</title>
<path fill="none" stroke="#404040" d="M1710.9951,-353.469C1696.899,-336.1914 1679.1095,-314.387 1661.7147,-293.0662"/>
<polygon fill="none" stroke="#404040" points="1661.6174,-292.947 1654.7251,-290.8267 1654.0315,-283.649 1660.9238,-285.7693 1661.6174,-292.947"/>
<text text-anchor="middle" x="1719.7598" y="-316" font-family="Helvetica,sans-Serif" font-size="10.00" fill="#000000"> +onProcess</text>
</g>
<!-- Node21 -->
<g id="node21" class="node">
<title>Node21</title>
<polygon fill="none" stroke="#bfbfbf" points="1821.7598,-353.5 1821.7598,-421.5 1955.7598,-421.5 1955.7598,-353.5 1821.7598,-353.5"/>
<text text-anchor="start" x="1829.7598" y="-409.5" font-family="Helvetica,sans-Serif" font-size="10.00" fill="#000000">function&lt; ProcessCallback</text>
<text text-anchor="middle" x="1888.7598" y="-398.5" font-family="Helvetica,sans-Serif" font-size="10.00" fill="#000000">(InitContext &amp;)&gt;</text>
<polyline fill="none" stroke="#bfbfbf" points="1821.7598,-391.5 1955.7598,-391.5 "/>
<text text-anchor="middle" x="1888.7598" y="-379.5" font-family="Helvetica,sans-Serif" font-size="10.00" fill="#000000"> </text>
<polyline fill="none" stroke="#bfbfbf" points="1821.7598,-372.5 1955.7598,-372.5 "/>
<text text-anchor="middle" x="1888.7598" y="-360.5" font-family="Helvetica,sans-Serif" font-size="10.00" fill="#000000"> </text>
</g>
<!-- Node21&#45;&gt;Node18 -->
<g id="edge24" class="edge">
<title>Node21&#45;&gt;Node18</title>
<path fill="none" stroke="#404040" d="M1842.2809,-353.3289C1816.6591,-335.8512 1783.6537,-315.4788 1751.7598,-302 1724.1056,-290.3129 1711.1602,-297.5188 1680.4555,-284.0706"/>
<polygon fill="none" stroke="#404040" points="1680.1096,-283.9027 1672.965,-284.8801 1669.3149,-278.661 1676.4595,-277.6836 1680.1096,-283.9027"/>
<text text-anchor="middle" x="1826.7598" y="-316" font-family="Helvetica,sans-Serif" font-size="10.00" fill="#000000"> +onInit</text>
</g>
<!-- Node22 -->
<g id="node22" class="node">
<title>Node22</title>
<polygon fill="none" stroke="#bfbfbf" points="1687.2598,-177 1687.2598,-245 1806.2598,-245 1806.2598,-177 1687.2598,-177"/>
<text text-anchor="start" x="1695.2598" y="-233" font-family="Helvetica,sans-Serif" font-size="10.00" fill="#000000">vector&lt; o2::framework</text>
<text text-anchor="middle" x="1746.7598" y="-222" font-family="Helvetica,sans-Serif" font-size="10.00" fill="#000000">::OutputChannelSpec &gt;</text>
<polyline fill="none" stroke="#bfbfbf" points="1687.2598,-215 1806.2598,-215 "/>
<text text-anchor="middle" x="1746.7598" y="-203" font-family="Helvetica,sans-Serif" font-size="10.00" fill="#000000"> </text>
<polyline fill="none" stroke="#bfbfbf" points="1687.2598,-196 1806.2598,-196 "/>
<text text-anchor="middle" x="1746.7598" y="-184" font-family="Helvetica,sans-Serif" font-size="10.00" fill="#000000"> </text>
</g>
<!-- Node22&#45;&gt;Node1 -->
<g id="edge25" class="edge">
<title>Node22&#45;&gt;Node1</title>
<path fill="none" stroke="#404040" d="M1720.1618,-176.8557C1708.5123,-163.4935 1694.0247,-148.8117 1678.7598,-138 1622.5631,-98.1973 1603.4782,-93.058 1536.7598,-76 1454.7251,-55.026 1217.5287,-39.8857 1091.1985,-33.0544"/>
<polygon fill="none" stroke="#404040" points="1090.9398,-33.0406 1084.7347,-36.7144 1078.9569,-32.3997 1085.162,-28.7259 1090.9398,-33.0406"/>
<text text-anchor="middle" x="1689.7598" y="-95.5" font-family="Helvetica,sans-Serif" font-size="10.00" fill="#000000"> +outputChannels</text>
</g>
<!-- Node23 -->
<g id="node23" class="node">
<title>Node23</title>
<polygon fill="none" stroke="#bfbfbf" points="1824.2598,-177 1824.2598,-245 1939.2598,-245 1939.2598,-177 1824.2598,-177"/>
<text text-anchor="start" x="1832.2598" y="-233" font-family="Helvetica,sans-Serif" font-size="10.00" fill="#000000">vector&lt; o2::framework</text>
<text text-anchor="middle" x="1881.7598" y="-222" font-family="Helvetica,sans-Serif" font-size="10.00" fill="#000000">::InputChannelSpec &gt;</text>
<polyline fill="none" stroke="#bfbfbf" points="1824.2598,-215 1939.2598,-215 "/>
<text text-anchor="middle" x="1881.7598" y="-203" font-family="Helvetica,sans-Serif" font-size="10.00" fill="#000000"> </text>
<polyline fill="none" stroke="#bfbfbf" points="1824.2598,-196 1939.2598,-196 "/>
<text text-anchor="middle" x="1881.7598" y="-184" font-family="Helvetica,sans-Serif" font-size="10.00" fill="#000000"> </text>
</g>
<!-- Node23&#45;&gt;Node1 -->
<g id="edge26" class="edge">
<title>Node23&#45;&gt;Node1</title>
<path fill="none" stroke="#404040" d="M1856.9699,-176.7472C1830.5463,-143.5249 1785.3257,-95.3815 1732.7598,-76 1673.8792,-54.2903 1267.4421,-37.8666 1091.0988,-31.6803"/>
<polygon fill="none" stroke="#404040" points="1091.0539,-31.6788 1084.9184,-35.4677 1079.0611,-31.2614 1085.1967,-27.4725 1091.0539,-31.6788"/>
<text text-anchor="middle" x="1837.7598" y="-95.5" font-family="Helvetica,sans-Serif" font-size="10.00" fill="#000000"> +inputChannels</text>
</g>
<!-- Node24 -->
<g id="node24" class="node">
<title>Node24</title>
<polygon fill="none" stroke="#bfbfbf" points="1957.2598,-182.5 1957.2598,-239.5 2000.2598,-239.5 2000.2598,-182.5 1957.2598,-182.5"/>
<text text-anchor="middle" x="1978.7598" y="-227.5" font-family="Helvetica,sans-Serif" font-size="10.00" fill="#000000">size_t</text>
<polyline fill="none" stroke="#bfbfbf" points="1957.2598,-220.5 2000.2598,-220.5 "/>
<text text-anchor="middle" x="1978.7598" y="-208.5" font-family="Helvetica,sans-Serif" font-size="10.00" fill="#000000"> </text>
<polyline fill="none" stroke="#bfbfbf" points="1957.2598,-201.5 2000.2598,-201.5 "/>
<text text-anchor="middle" x="1978.7598" y="-189.5" font-family="Helvetica,sans-Serif" font-size="10.00" fill="#000000"> </text>
</g>
<!-- Node24&#45;&gt;Node1 -->
<g id="edge28" class="edge">
<title>Node24&#45;&gt;Node1</title>
<path fill="none" stroke="#404040" d="M1970.4606,-182.4013C1965.5228,-168.244 1958.3327,-151.3684 1948.7598,-138 1924.3691,-103.9389 1916.5714,-91.7709 1877.7598,-76 1806.1627,-46.907 1293.4243,-34.2804 1091.3342,-30.3954"/>
<polygon fill="none" stroke="#404040" points="1091.0539,-30.3902 1084.9791,-34.2758 1079.056,-30.1628 1085.1307,-26.2772 1091.0539,-30.3902"/>
<text text-anchor="middle" x="1983.2598" y="-112" font-family="Helvetica,sans-Serif" font-size="10.00" fill="#000000"> +maxInputTimeslices</text>
<text text-anchor="middle" x="1983.2598" y="-101" font-family="Helvetica,sans-Serif" font-size="10.00" fill="#000000">+rank</text>
<text text-anchor="middle" x="1983.2598" y="-90" font-family="Helvetica,sans-Serif" font-size="10.00" fill="#000000">+nSlots</text>
<text text-anchor="middle" x="1983.2598" y="-79" font-family="Helvetica,sans-Serif" font-size="10.00" fill="#000000">+inputTimesliceId</text>
</g>
</g>
</svg>
