<?xml version="1.0" encoding="UTF-8" standalone="no"?>
<!DOCTYPE svg PUBLIC "-//W3C//DTD SVG 1.1//EN"
 "http://www.w3.org/Graphics/SVG/1.1/DTD/svg11.dtd">
<!-- Generated by graphviz version 2.40.1 (20161225.0304)
 -->
<!-- Title: /home/runner/work/AliceO2/AliceO2/Detectors/MUON/MCH/Mapping/SegContour/src/SegmentationContours.cxx Pages: 1 -->
<svg width="1243pt" height="486pt"
 viewBox="0.00 0.00 1242.50 486.00" xmlns="http://www.w3.org/2000/svg" xmlns:xlink="http://www.w3.org/1999/xlink">
<g id="graph0" class="graph" transform="scale(1 1) rotate(0) translate(4 482)">
<title>/home/runner/work/AliceO2/AliceO2/Detectors/MUON/MCH/Mapping/SegContour/src/SegmentationContours.cxx</title>
<!-- Node0 -->
<g id="node1" class="node">
<title>Node0</title>
<polygon fill="#bfbfbf" stroke="#000000" points="555,-425.5 555,-477.5 710,-477.5 710,-425.5 555,-425.5"/>
<text text-anchor="start" x="563" y="-465.5" font-family="Helvetica,sans-Serif" font-size="10.00" fill="#000000">/home/runner/work/AliceO2</text>
<text text-anchor="start" x="563" y="-454.5" font-family="Helvetica,sans-Serif" font-size="10.00" fill="#000000">/AliceO2/Detectors/MUON</text>
<text text-anchor="start" x="563" y="-443.5" font-family="Helvetica,sans-Serif" font-size="10.00" fill="#000000">/MCH/Mapping/SegContour</text>
<text text-anchor="middle" x="632.5" y="-432.5" font-family="Helvetica,sans-Serif" font-size="10.00" fill="#000000">/src/SegmentationContours.cxx</text>
</g>
<!-- Node1 -->
<g id="node2" class="node">
<title>Node1</title>
<g id="a_node2"><a xlink:href="../../dd/d1c/SegmentationContours_8h.html" target="_top" xlink:title="MCHMappingSegContour\l/SegmentationContours.h">
<polygon fill="none" stroke="#000000" points="309.5,-302.5 309.5,-332.5 437.5,-332.5 437.5,-302.5 309.5,-302.5"/>
<text text-anchor="start" x="317.5" y="-320.5" font-family="Helvetica,sans-Serif" font-size="10.00" fill="#000000">MCHMappingSegContour</text>
<text text-anchor="middle" x="373.5" y="-309.5" font-family="Helvetica,sans-Serif" font-size="10.00" fill="#000000">/SegmentationContours.h</text>
</a>
</g>
</g>
<!-- Node0&#45;&gt;Node1 -->
<g id="edge1" class="edge">
<title>Node0&#45;&gt;Node1</title>
<path fill="none" stroke="#191970" d="M581.9473,-425.3453C532.0572,-399.5335 456.8878,-360.6427 411.7617,-337.2956"/>
<polygon fill="#191970" stroke="#191970" points="413.0983,-334.0465 402.6082,-332.5599 409.8816,-340.2637 413.0983,-334.0465"/>
</g>
<!-- Node5 -->
<g id="node6" class="node">
<title>Node5</title>
<polygon fill="none" stroke="#bfbfbf" points="1119.5,-56.5 1119.5,-75.5 1173.5,-75.5 1173.5,-56.5 1119.5,-56.5"/>
<text text-anchor="middle" x="1146.5" y="-63.5" font-family="Helvetica,sans-Serif" font-size="10.00" fill="#000000">iostream</text>
</g>
<!-- Node0&#45;&gt;Node5 -->
<g id="edge66" class="edge">
<title>Node0&#45;&gt;Node5</title>
<path fill="none" stroke="#191970" d="M710.276,-442.2594C873.0149,-421.8692 1234.5,-370.6009 1234.5,-317.5 1234.5,-317.5 1234.5,-317.5 1234.5,-194.5 1234.5,-147.1671 1193.3519,-104.4817 1167.3304,-82.2204"/>
<polygon fill="#191970" stroke="#191970" points="1169.421,-79.4074 1159.4847,-75.7303 1164.9592,-84.8012 1169.421,-79.4074"/>
</g>
<!-- Node26 -->
<g id="node27" class="node">
<title>Node26</title>
<g id="a_node27"><a xlink:href="../../d2/d32/CathodeSegmentationContours_8h.html" target="_top" xlink:title="MCHMappingSegContour\l/CathodeSegmentationContours.h">
<polygon fill="none" stroke="#000000" points="480.5,-302.5 480.5,-332.5 644.5,-332.5 644.5,-302.5 480.5,-302.5"/>
<text text-anchor="start" x="488.5" y="-320.5" font-family="Helvetica,sans-Serif" font-size="10.00" fill="#000000">MCHMappingSegContour</text>
<text text-anchor="middle" x="562.5" y="-309.5" font-family="Helvetica,sans-Serif" font-size="10.00" fill="#000000">/CathodeSegmentationContours.h</text>
</a>
</g>
</g>
<!-- Node0&#45;&gt;Node26 -->
<g id="edge37" class="edge">
<title>Node0&#45;&gt;Node26</title>
<path fill="none" stroke="#191970" d="M618.8371,-425.3453C606.1781,-401.1124 587.4972,-365.3518 575.1669,-341.7481"/>
<polygon fill="#191970" stroke="#191970" points="578.1969,-339.989 570.4644,-332.7461 571.9924,-343.2302 578.1969,-339.989"/>
</g>
<!-- Node27 -->
<g id="node28" class="node">
<title>Node27</title>
<g id="a_node28"><a xlink:href="../../d4/d84/ContourCreator_8h.html" target="_top" xlink:title="MCHContour/ContourCreator.h">
<polygon fill="none" stroke="#000000" points="661.5,-369.5 661.5,-388.5 813.5,-388.5 813.5,-369.5 661.5,-369.5"/>
<text text-anchor="middle" x="737.5" y="-376.5" font-family="Helvetica,sans-Serif" font-size="10.00" fill="#000000">MCHContour/ContourCreator.h</text>
</a>
</g>
</g>
<!-- Node0&#45;&gt;Node27 -->
<g id="edge43" class="edge">
<title>Node0&#45;&gt;Node27</title>
<path fill="none" stroke="#191970" d="M670.4074,-425.3258C685.4895,-414.912 702.3168,-403.2931 715.3465,-394.2965"/>
<polygon fill="#191970" stroke="#191970" points="717.4518,-397.0961 723.6921,-388.534 713.4745,-391.3358 717.4518,-397.0961"/>
</g>
<!-- Node2 -->
<g id="node3" class="node">
<title>Node2</title>
<polygon fill="none" stroke="#bfbfbf" points="591.5,-56.5 591.5,-75.5 635.5,-75.5 635.5,-56.5 591.5,-56.5"/>
<text text-anchor="middle" x="613.5" y="-63.5" font-family="Helvetica,sans-Serif" font-size="10.00" fill="#000000">vector</text>
</g>
<!-- Node1&#45;&gt;Node2 -->
<g id="edge2" class="edge">
<title>Node1&#45;&gt;Node2</title>
<path fill="none" stroke="#191970" d="M365.4314,-302.4448C346.7298,-265.2616 305.4713,-168.0422 352.5,-112 353.4231,-110.9 511.8032,-83.5116 581.3641,-71.528"/>
<polygon fill="#191970" stroke="#191970" points="582.0803,-74.9563 591.3413,-69.8099 580.8923,-68.0578 582.0803,-74.9563"/>
</g>
<!-- Node3 -->
<g id="node4" class="node">
<title>Node3</title>
<g id="a_node4"><a xlink:href="../../db/d08/Contour_8h.html" target="_top" xlink:title="MCHContour/Contour.h">
<polygon fill="none" stroke="#000000" points="401.5,-246.5 401.5,-265.5 521.5,-265.5 521.5,-246.5 401.5,-246.5"/>
<text text-anchor="middle" x="461.5" y="-253.5" font-family="Helvetica,sans-Serif" font-size="10.00" fill="#000000">MCHContour/Contour.h</text>
</a>
</g>
</g>
<!-- Node1&#45;&gt;Node3 -->
<g id="edge3" class="edge">
<title>Node1&#45;&gt;Node3</title>
<path fill="none" stroke="#191970" d="M395.2528,-302.2977C408.6968,-292.9022 425.9011,-280.8787 439.4078,-271.4395"/>
<polygon fill="#191970" stroke="#191970" points="441.4811,-274.2605 447.6729,-265.6633 437.4712,-268.5228 441.4811,-274.2605"/>
</g>
<!-- Node10 -->
<g id="node11" class="node">
<title>Node10</title>
<g id="a_node11"><a xlink:href="../../d0/ddc/BBox_8h.html" target="_top" xlink:title="BBox.h">
<polygon fill="none" stroke="#000000" points="536,-118 536,-137 585,-137 585,-118 536,-118"/>
<text text-anchor="middle" x="560.5" y="-125" font-family="Helvetica,sans-Serif" font-size="10.00" fill="#000000">BBox.h</text>
</a>
</g>
</g>
<!-- Node1&#45;&gt;Node10 -->
<g id="edge25" class="edge">
<title>Node1&#45;&gt;Node10</title>
<path fill="none" stroke="#191970" d="M370.8802,-302.0679C367.0512,-274.0045 363.3399,-214.2643 393.5,-179 402.2772,-168.7374 479.6158,-147.841 525.9087,-136.0649"/>
<polygon fill="#191970" stroke="#191970" points="526.9976,-139.3999 535.8363,-133.5581 525.2837,-132.6129 526.9976,-139.3999"/>
</g>
<!-- Node20 -->
<g id="node21" class="node">
<title>Node20</title>
<g id="a_node21"><a xlink:href="../../d6/d1f/MUON_2MCH_2Mapping_2Interface_2include_2MCHMappingInterface_2Segmentation_8h.html" target="_top" xlink:title="MCHMappingInterface\l/Segmentation.h">
<polygon fill="none" stroke="#000000" points="116,-179.5 116,-209.5 231,-209.5 231,-179.5 116,-179.5"/>
<text text-anchor="start" x="124" y="-197.5" font-family="Helvetica,sans-Serif" font-size="10.00" fill="#000000">MCHMappingInterface</text>
<text text-anchor="middle" x="173.5" y="-186.5" font-family="Helvetica,sans-Serif" font-size="10.00" fill="#000000">/Segmentation.h</text>
</a>
</g>
</g>
<!-- Node1&#45;&gt;Node20 -->
<g id="edge26" class="edge">
<title>Node1&#45;&gt;Node20</title>
<path fill="none" stroke="#191970" d="M346.0903,-302.3469C328.1374,-292.2919 304.2436,-278.6627 283.5,-266 256.5028,-249.5199 226.4272,-229.88 204.5568,-215.3577"/>
<polygon fill="#191970" stroke="#191970" points="206.2771,-212.2983 196.0139,-209.6683 202.397,-218.1245 206.2771,-212.2983"/>
</g>
<!-- Node3&#45;&gt;Node2 -->
<g id="edge22" class="edge">
<title>Node3&#45;&gt;Node2</title>
<path fill="none" stroke="#191970" d="M464.5311,-246.4353C468.8651,-230.7613 474.8308,-199.3219 460.5,-179 433.9988,-141.42 389.7566,-180.7513 363.5,-143 355.633,-131.689 354.6831,-122.5872 363.5,-112 365.2467,-109.9026 513.7113,-83.5552 580.9964,-71.7064"/>
<polygon fill="#191970" stroke="#191970" points="581.8211,-75.1151 591.0633,-69.9351 580.608,-68.221 581.8211,-75.1151"/>
</g>
<!-- Node4 -->
<g id="node5" class="node">
<title>Node4</title>
<g id="a_node5"><a xlink:href="../../dc/ddd/Polygon_8h.html" target="_top" xlink:title="Polygon.h">
<polygon fill="none" stroke="#000000" points="615.5,-185 615.5,-204 675.5,-204 675.5,-185 615.5,-185"/>
<text text-anchor="middle" x="645.5" y="-192" font-family="Helvetica,sans-Serif" font-size="10.00" fill="#000000">Polygon.h</text>
</a>
</g>
</g>
<!-- Node3&#45;&gt;Node4 -->
<g id="edge4" class="edge">
<title>Node3&#45;&gt;Node4</title>
<path fill="none" stroke="#191970" d="M490.25,-246.3906C521.7117,-235.8749 572.3008,-218.966 607.1314,-207.3243"/>
<polygon fill="#191970" stroke="#191970" points="608.5772,-210.5315 616.9519,-204.0419 606.3581,-203.8925 608.5772,-210.5315"/>
</g>
<!-- Node7 -->
<g id="node8" class="node">
<title>Node7</title>
<polygon fill="none" stroke="#bfbfbf" points="406,-118 406,-137 479,-137 479,-118 406,-118"/>
<text text-anchor="middle" x="442.5" y="-125" font-family="Helvetica,sans-Serif" font-size="10.00" fill="#000000">initializer_list</text>
</g>
<!-- Node3&#45;&gt;Node7 -->
<g id="edge24" class="edge">
<title>Node3&#45;&gt;Node7</title>
<path fill="none" stroke="#191970" d="M436.6745,-246.4395C421.2121,-239.0336 402.5888,-227.1213 393.5,-210 387.0399,-197.8306 388.3862,-191.7936 393.5,-179 399.0662,-165.0746 410.3885,-152.7656 420.7482,-143.676"/>
<polygon fill="#191970" stroke="#191970" points="423.2291,-146.167 428.7218,-137.1072 418.7781,-140.7643 423.2291,-146.167"/>
</g>
<!-- Node19 -->
<g id="node20" class="node">
<title>Node19</title>
<polygon fill="none" stroke="#bfbfbf" points="402,-185 402,-204 451,-204 451,-185 402,-185"/>
<text text-anchor="middle" x="426.5" y="-192" font-family="Helvetica,sans-Serif" font-size="10.00" fill="#000000">cassert</text>
</g>
<!-- Node3&#45;&gt;Node19 -->
<g id="edge23" class="edge">
<title>Node3&#45;&gt;Node19</title>
<path fill="none" stroke="#191970" d="M456.0313,-246.3906C450.9754,-237.5068 443.3228,-224.0601 437.0746,-213.0811"/>
<polygon fill="#191970" stroke="#191970" points="440.034,-211.2048 432.0459,-204.2449 433.9502,-214.6672 440.034,-211.2048"/>
</g>
<!-- Node4&#45;&gt;Node2 -->
<g id="edge7" class="edge">
<title>Node4&#45;&gt;Node2</title>
<path fill="none" stroke="#191970" d="M643.0948,-184.8416C637.8594,-163.8184 625.3437,-113.5598 618.3819,-85.6038"/>
<polygon fill="#191970" stroke="#191970" points="621.7459,-84.6283 615.9331,-75.7705 614.9534,-86.3199 621.7459,-84.6283"/>
</g>
<!-- Node4&#45;&gt;Node5 -->
<g id="edge5" class="edge">
<title>Node4&#45;&gt;Node5</title>
<path fill="none" stroke="#191970" d="M645.2173,-184.9978C645.267,-167.442 648.1591,-130.0715 670.5,-112 744.8807,-51.8339 1004.8589,-89.9824 1099.5,-76 1102.7186,-75.5245 1106.0473,-74.9618 1109.3779,-74.3494"/>
<polygon fill="#191970" stroke="#191970" points="1110.1322,-77.7682 1119.2672,-72.4013 1108.7792,-70.9002 1110.1322,-77.7682"/>
</g>
<!-- Node6 -->
<g id="node7" class="node">
<title>Node6</title>
<polygon fill="none" stroke="#bfbfbf" points="791.5,-118 791.5,-137 831.5,-137 831.5,-118 791.5,-118"/>
<text text-anchor="middle" x="811.5" y="-125" font-family="Helvetica,sans-Serif" font-size="10.00" fill="#000000">utility</text>
</g>
<!-- Node4&#45;&gt;Node6 -->
<g id="edge6" class="edge">
<title>Node4&#45;&gt;Node6</title>
<path fill="none" stroke="#191970" d="M669.2838,-184.9005C699.0193,-172.8988 749.9132,-152.3573 782.0721,-139.3775"/>
<polygon fill="#191970" stroke="#191970" points="783.4436,-142.5984 791.4068,-135.6099 780.8236,-136.1071 783.4436,-142.5984"/>
</g>
<!-- Node4&#45;&gt;Node7 -->
<g id="edge8" class="edge">
<title>Node4&#45;&gt;Node7</title>
<path fill="none" stroke="#191970" d="M616.415,-184.9005C580.8396,-173.1589 520.4992,-153.2436 481.0755,-140.2318"/>
<polygon fill="#191970" stroke="#191970" points="482.1241,-136.8923 471.531,-137.0817 479.9302,-143.5396 482.1241,-136.8923"/>
</g>
<!-- Node8 -->
<g id="node9" class="node">
<title>Node8</title>
<polygon fill="none" stroke="#bfbfbf" points="360.5,-56.5 360.5,-75.5 412.5,-75.5 412.5,-56.5 360.5,-56.5"/>
<text text-anchor="middle" x="386.5" y="-63.5" font-family="Helvetica,sans-Serif" font-size="10.00" fill="#000000">sstream</text>
</g>
<!-- Node4&#45;&gt;Node8 -->
<g id="edge9" class="edge">
<title>Node4&#45;&gt;Node8</title>
<path fill="none" stroke="#191970" d="M618.2773,-184.9385C593.7067,-175.7764 556.9967,-160.7439 527.5,-143 508.5264,-131.5863 507.404,-123.5288 488.5,-112 467.406,-99.1356 442.0948,-87.6995 421.9636,-79.4478"/>
<polygon fill="#191970" stroke="#191970" points="423.1222,-76.1415 412.5383,-75.6605 420.5123,-82.6367 423.1222,-76.1415"/>
</g>
<!-- Node9 -->
<g id="node10" class="node">
<title>Node9</title>
<polygon fill="none" stroke="#bfbfbf" points="679.5,-118 679.5,-137 735.5,-137 735.5,-118 679.5,-118"/>
<text text-anchor="middle" x="707.5" y="-125" font-family="Helvetica,sans-Serif" font-size="10.00" fill="#000000">algorithm</text>
</g>
<!-- Node4&#45;&gt;Node9 -->
<g id="edge10" class="edge">
<title>Node4&#45;&gt;Node9</title>
<path fill="none" stroke="#191970" d="M654.3831,-184.9005C664.0514,-174.4525 679.7088,-157.5325 691.5248,-144.7635"/>
<polygon fill="#191970" stroke="#191970" points="694.4103,-146.7985 698.6334,-137.0817 689.2726,-142.0441 694.4103,-146.7985"/>
</g>
<!-- Node4&#45;&gt;Node10 -->
<g id="edge11" class="edge">
<title>Node4&#45;&gt;Node10</title>
<path fill="none" stroke="#191970" d="M633.3216,-184.9005C619.5616,-174.0544 596.9535,-156.2339 580.5738,-143.3229"/>
<polygon fill="#191970" stroke="#191970" points="582.6761,-140.5234 572.6558,-137.0817 578.3427,-146.0209 582.6761,-140.5234"/>
</g>
<!-- Node17 -->
<g id="node18" class="node">
<title>Node17</title>
<g id="a_node18"><a xlink:href="../../dd/dbc/Detectors_2MUON_2MCH_2Contour_2include_2MCHContour_2Vertex_8h.html" target="_top" xlink:title="Vertex.h">
<polygon fill="none" stroke="#000000" points="1039,-118 1039,-137 1092,-137 1092,-118 1039,-118"/>
<text text-anchor="middle" x="1065.5" y="-125" font-family="Helvetica,sans-Serif" font-size="10.00" fill="#000000">Vertex.h</text>
</a>
</g>
</g>
<!-- Node4&#45;&gt;Node17 -->
<g id="edge18" class="edge">
<title>Node4&#45;&gt;Node17</title>
<path fill="none" stroke="#191970" d="M675.6001,-191.5884C754.0775,-183.8196 963.4878,-161.9029 1030.5,-143 1032.6826,-142.3843 1034.9053,-141.6574 1037.1185,-140.8597"/>
<polygon fill="#191970" stroke="#191970" points="1038.6405,-144.02 1046.6079,-137.0363 1036.0244,-137.5272 1038.6405,-144.02"/>
</g>
<!-- Node11 -->
<g id="node12" class="node">
<title>Node11</title>
<g id="a_node12"><a xlink:href="../../d2/dc4/Helper_8h.html" target="_top" xlink:title="Helper.h">
<polygon fill="none" stroke="#000000" points="966,-56.5 966,-75.5 1019,-75.5 1019,-56.5 966,-56.5"/>
<text text-anchor="middle" x="992.5" y="-63.5" font-family="Helvetica,sans-Serif" font-size="10.00" fill="#000000">Helper.h</text>
</a>
</g>
</g>
<!-- Node10&#45;&gt;Node11 -->
<g id="edge12" class="edge">
<title>Node10&#45;&gt;Node11</title>
<path fill="none" stroke="#191970" d="M585.0331,-122.0585C600.1152,-118.8387 619.8648,-114.8467 637.5,-112 767.8959,-90.9516 801.7699,-94.8617 932.5,-76 940.1309,-74.899 948.2892,-73.6127 956.0535,-72.3363"/>
<polygon fill="#191970" stroke="#191970" points="956.6701,-75.7819 965.9559,-70.6804 955.5156,-68.8777 956.6701,-75.7819"/>
</g>
<!-- Node15 -->
<g id="node16" class="node">
<title>Node15</title>
<polygon fill="none" stroke="#bfbfbf" points="486,-56.5 486,-75.5 545,-75.5 545,-56.5 486,-56.5"/>
<text text-anchor="middle" x="515.5" y="-63.5" font-family="Helvetica,sans-Serif" font-size="10.00" fill="#000000">stdexcept</text>
</g>
<!-- Node10&#45;&gt;Node15 -->
<g id="edge16" class="edge">
<title>Node10&#45;&gt;Node15</title>
<path fill="none" stroke="#191970" d="M553.4688,-117.8906C546.837,-108.8273 536.7304,-95.0149 528.6113,-83.9188"/>
<polygon fill="#191970" stroke="#191970" points="531.3601,-81.7484 522.6304,-75.7449 525.7109,-85.882 531.3601,-81.7484"/>
</g>
<!-- Node16 -->
<g id="node17" class="node">
<title>Node16</title>
<polygon fill="none" stroke="#bfbfbf" points="871.5,-56.5 871.5,-75.5 923.5,-75.5 923.5,-56.5 871.5,-56.5"/>
<text text-anchor="middle" x="897.5" y="-63.5" font-family="Helvetica,sans-Serif" font-size="10.00" fill="#000000">ostream</text>
</g>
<!-- Node10&#45;&gt;Node16 -->
<g id="edge17" class="edge">
<title>Node10&#45;&gt;Node16</title>
<path fill="none" stroke="#191970" d="M585.0923,-122.3963C600.196,-119.2999 619.9476,-115.3189 637.5,-112 717.1862,-96.9326 810.9067,-80.7216 861.2067,-72.1437"/>
<polygon fill="#191970" stroke="#191970" points="861.9897,-75.5608 871.2605,-70.4323 860.8149,-68.6601 861.9897,-75.5608"/>
</g>
<!-- Node12 -->
<g id="node13" class="node">
<title>Node12</title>
<polygon fill="none" stroke="#bfbfbf" points="910.5,-.5 910.5,-19.5 954.5,-19.5 954.5,-.5 910.5,-.5"/>
<text text-anchor="middle" x="932.5" y="-7.5" font-family="Helvetica,sans-Serif" font-size="10.00" fill="#000000">cmath</text>
</g>
<!-- Node11&#45;&gt;Node12 -->
<g id="edge13" class="edge">
<title>Node11&#45;&gt;Node12</title>
<path fill="none" stroke="#191970" d="M982.0488,-56.2455C973.2731,-48.0549 960.5446,-36.1749 950.186,-26.5069"/>
<polygon fill="#191970" stroke="#191970" points="952.5301,-23.9072 942.8314,-19.6427 947.7539,-29.0246 952.5301,-23.9072"/>
</g>
<!-- Node13 -->
<g id="node14" class="node">
<title>Node13</title>
<polygon fill="none" stroke="#bfbfbf" points="972.5,-.5 972.5,-19.5 1012.5,-19.5 1012.5,-.5 972.5,-.5"/>
<text text-anchor="middle" x="992.5" y="-7.5" font-family="Helvetica,sans-Serif" font-size="10.00" fill="#000000">limits</text>
</g>
<!-- Node11&#45;&gt;Node13 -->
<g id="edge14" class="edge">
<title>Node11&#45;&gt;Node13</title>
<path fill="none" stroke="#191970" d="M992.5,-56.2455C992.5,-48.9382 992.5,-38.6944 992.5,-29.7046"/>
<polygon fill="#191970" stroke="#191970" points="996.0001,-29.6426 992.5,-19.6427 989.0001,-29.6427 996.0001,-29.6426"/>
</g>
<!-- Node14 -->
<g id="node15" class="node">
<title>Node14</title>
<polygon fill="none" stroke="#bfbfbf" points="1030.5,-.5 1030.5,-19.5 1076.5,-19.5 1076.5,-.5 1030.5,-.5"/>
<text text-anchor="middle" x="1053.5" y="-7.5" font-family="Helvetica,sans-Serif" font-size="10.00" fill="#000000">cstdint</text>
</g>
<!-- Node11&#45;&gt;Node14 -->
<g id="edge15" class="edge">
<title>Node11&#45;&gt;Node14</title>
<path fill="none" stroke="#191970" d="M1003.1254,-56.2455C1012.0473,-48.0549 1024.988,-36.1749 1035.5192,-26.5069"/>
<polygon fill="#191970" stroke="#191970" points="1037.9968,-28.9837 1042.9964,-19.6427 1033.2629,-23.8271 1037.9968,-28.9837"/>
</g>
<!-- Node17&#45;&gt;Node5 -->
<g id="edge19" class="edge">
<title>Node17&#45;&gt;Node5</title>
<path fill="none" stroke="#191970" d="M1078.1563,-117.8906C1090.8768,-108.2324 1110.7004,-93.1812 1125.7284,-81.771"/>
<polygon fill="#191970" stroke="#191970" points="1128.0846,-84.3766 1133.9326,-75.5419 1123.8516,-78.8015 1128.0846,-84.3766"/>
</g>
<!-- Node17&#45;&gt;Node11 -->
<g id="edge21" class="edge">
<title>Node17&#45;&gt;Node11</title>
<path fill="none" stroke="#191970" d="M1054.0938,-117.8906C1042.8031,-108.3786 1025.3033,-93.6357 1011.8381,-82.2917"/>
<polygon fill="#191970" stroke="#191970" points="1013.9699,-79.5111 1004.0671,-75.7449 1009.4598,-84.8646 1013.9699,-79.5111"/>
</g>
<!-- Node18 -->
<g id="node19" class="node">
<title>Node18</title>
<polygon fill="none" stroke="#bfbfbf" points="1040.5,-56.5 1040.5,-75.5 1090.5,-75.5 1090.5,-56.5 1040.5,-56.5"/>
<text text-anchor="middle" x="1065.5" y="-63.5" font-family="Helvetica,sans-Serif" font-size="10.00" fill="#000000">iomanip</text>
</g>
<!-- Node17&#45;&gt;Node18 -->
<g id="edge20" class="edge">
<title>Node17&#45;&gt;Node18</title>
<path fill="none" stroke="#191970" d="M1065.5,-117.8906C1065.5,-109.3657 1065.5,-96.6392 1065.5,-85.9235"/>
<polygon fill="#191970" stroke="#191970" points="1069.0001,-85.7448 1065.5,-75.7449 1062.0001,-85.7449 1069.0001,-85.7448"/>
</g>
<!-- Node21 -->
<g id="node22" class="node">
<title>Node21</title>
<g id="a_node22"><a xlink:href="../../df/db6/CathodeSegmentation_8h.html" target="_top" xlink:title="MCHMappingInterface\l/CathodeSegmentation.h">
<polygon fill="none" stroke="#000000" points="148,-112.5 148,-142.5 273,-142.5 273,-112.5 148,-112.5"/>
<text text-anchor="start" x="156" y="-130.5" font-family="Helvetica,sans-Serif" font-size="10.00" fill="#000000">MCHMappingInterface</text>
<text text-anchor="middle" x="210.5" y="-119.5" font-family="Helvetica,sans-Serif" font-size="10.00" fill="#000000">/CathodeSegmentation.h</text>
</a>
</g>
</g>
<!-- Node20&#45;&gt;Node21 -->
<g id="edge27" class="edge">
<title>Node20&#45;&gt;Node21</title>
<path fill="none" stroke="#191970" d="M181.8959,-179.2967C186.4373,-171.0729 192.1506,-160.7272 197.2748,-151.4483"/>
<polygon fill="#191970" stroke="#191970" points="200.3669,-153.0891 202.1374,-142.6432 194.2392,-149.7051 200.3669,-153.0891"/>
</g>
<!-- Node25 -->
<g id="node26" class="node">
<title>Node25</title>
<g id="a_node26"><a xlink:href="../../d0/d5f/Segmentation_8inl.html" target="_top" xlink:title="Segmentation.inl">
<polygon fill="none" stroke="#000000" points="41,-118 41,-137 130,-137 130,-118 41,-118"/>
<text text-anchor="middle" x="85.5" y="-125" font-family="Helvetica,sans-Serif" font-size="10.00" fill="#000000">Segmentation.inl</text>
</a>
</g>
</g>
<!-- Node20&#45;&gt;Node25 -->
<g id="edge36" class="edge">
<title>Node20&#45;&gt;Node25</title>
<path fill="none" stroke="#191970" d="M153.5314,-179.2967C139.4213,-168.5537 120.5549,-154.1895 106.2692,-143.3129"/>
<polygon fill="#191970" stroke="#191970" points="108.1264,-140.328 98.0498,-137.055 103.886,-145.8975 108.1264,-140.328"/>
</g>
<!-- Node21&#45;&gt;Node2 -->
<g id="edge32" class="edge">
<title>Node21&#45;&gt;Node2</title>
<path fill="none" stroke="#191970" d="M273.0524,-114.5567C277.9341,-113.6541 282.7932,-112.7902 287.5,-112 405.5879,-92.1749 436.1213,-94.0074 554.5,-76 563.1894,-74.6782 572.5792,-73.1379 581.2574,-71.6679"/>
<polygon fill="#191970" stroke="#191970" points="582.1307,-75.0693 591.3951,-69.9291 580.9473,-68.17 582.1307,-75.0693"/>
</g>
<!-- Node21&#45;&gt;Node5 -->
<g id="edge31" class="edge">
<title>Node21&#45;&gt;Node5</title>
<path fill="none" stroke="#191970" d="M273.223,-121.8055C309.5106,-118.6351 356.0579,-114.7794 397.5,-112 709.2097,-91.0942 789.744,-116.6348 1099.5,-76 1102.7259,-75.5768 1106.0597,-75.0505 1109.3937,-74.4623"/>
<polygon fill="#191970" stroke="#191970" points="1110.1325,-77.8843 1119.2883,-72.5531 1108.8063,-71.0111 1110.1325,-77.8843"/>
</g>
<!-- Node21&#45;&gt;Node8 -->
<g id="edge33" class="edge">
<title>Node21&#45;&gt;Node8</title>
<path fill="none" stroke="#191970" d="M253.5544,-112.4554C283.4134,-102.0217 322.7094,-88.2905 350.8208,-78.4674"/>
<polygon fill="#191970" stroke="#191970" points="351.9782,-81.7706 360.2639,-75.1677 349.6691,-75.1624 351.9782,-81.7706"/>
</g>
<!-- Node21&#45;&gt;Node15 -->
<g id="edge29" class="edge">
<title>Node21&#45;&gt;Node15</title>
<path fill="none" stroke="#191970" d="M273.3264,-114.8317C334.0162,-102.5943 424.0935,-84.4312 475.566,-74.0523"/>
<polygon fill="#191970" stroke="#191970" points="476.5216,-77.4301 485.6324,-72.0225 475.1379,-70.5682 476.5216,-77.4301"/>
</g>
<!-- Node21&#45;&gt;Node18 -->
<g id="edge35" class="edge">
<title>Node21&#45;&gt;Node18</title>
<path fill="none" stroke="#191970" d="M273.2292,-121.8956C309.5188,-118.7548 356.0661,-114.8986 397.5,-112 677.7156,-92.3966 751.2088,-120.8849 1028.5,-76 1029.0953,-75.9036 1029.6948,-75.8016 1030.2975,-75.6943"/>
<polygon fill="#191970" stroke="#191970" points="1031.1252,-79.0966 1040.1742,-73.586 1029.6638,-72.2508 1031.1252,-79.0966"/>
</g>
<!-- Node22 -->
<g id="node23" class="node">
<title>Node22</title>
<g id="a_node23"><a xlink:href="../../d0/dc7/CathodeSegmentationCInterface_8h.html" target="_top" xlink:title="CathodeSegmentationCInterface.h">
<polygon fill="none" stroke="#000000" points="0,-56.5 0,-75.5 167,-75.5 167,-56.5 0,-56.5"/>
<text text-anchor="middle" x="83.5" y="-63.5" font-family="Helvetica,sans-Serif" font-size="10.00" fill="#000000">CathodeSegmentationCInterface.h</text>
</a>
</g>
</g>
<!-- Node21&#45;&gt;Node22 -->
<g id="edge28" class="edge">
<title>Node21&#45;&gt;Node22</title>
<path fill="none" stroke="#191970" d="M179.4323,-112.4554C158.9855,-102.554 132.4063,-89.683 112.4115,-80.0004"/>
<polygon fill="#191970" stroke="#191970" points="113.7062,-76.7387 103.1805,-75.5303 110.6553,-83.0388 113.7062,-76.7387"/>
</g>
<!-- Node23 -->
<g id="node24" class="node">
<title>Node23</title>
<polygon fill="none" stroke="#bfbfbf" points="184.5,-56.5 184.5,-75.5 236.5,-75.5 236.5,-56.5 184.5,-56.5"/>
<text text-anchor="middle" x="210.5" y="-63.5" font-family="Helvetica,sans-Serif" font-size="10.00" fill="#000000">memory</text>
</g>
<!-- Node21&#45;&gt;Node23 -->
<g id="edge30" class="edge">
<title>Node21&#45;&gt;Node23</title>
<path fill="none" stroke="#191970" d="M210.5,-112.2977C210.5,-104.3834 210.5,-94.6043 210.5,-86.0759"/>
<polygon fill="#191970" stroke="#191970" points="214.0001,-85.8469 210.5,-75.8469 207.0001,-85.847 214.0001,-85.8469"/>
</g>
<!-- Node24 -->
<g id="node25" class="node">
<title>Node24</title>
<polygon fill="none" stroke="#bfbfbf" points="255,-56.5 255,-75.5 314,-75.5 314,-56.5 255,-56.5"/>
<text text-anchor="middle" x="284.5" y="-63.5" font-family="Helvetica,sans-Serif" font-size="10.00" fill="#000000">functional</text>
</g>
<!-- Node21&#45;&gt;Node24 -->
<g id="edge34" class="edge">
<title>Node21&#45;&gt;Node24</title>
<path fill="none" stroke="#191970" d="M228.7921,-112.2977C239.7061,-103.2274 253.5671,-91.7077 264.7324,-82.4285"/>
<polygon fill="#191970" stroke="#191970" points="267.198,-84.9303 272.6517,-75.8469 262.7238,-79.5468 267.198,-84.9303"/>
</g>
<!-- Node26&#45;&gt;Node2 -->
<g id="edge38" class="edge">
<title>Node26&#45;&gt;Node2</title>
<path fill="none" stroke="#191970" d="M556.9905,-302.4696C551.275,-287.6331 541.6251,-264.5421 530.5,-246 511.1068,-213.6775 508.1736,-202.2448 478.5,-179 447.4871,-154.706 418.9671,-176.0328 397.5,-143 389.9923,-131.4474 388.8314,-122.709 397.5,-112 403.3029,-104.8311 522.4455,-82.4453 581.2447,-71.7722"/>
<polygon fill="#191970" stroke="#191970" points="581.9279,-75.2055 591.1456,-69.9822 580.6824,-68.3171 581.9279,-75.2055"/>
</g>
<!-- Node26&#45;&gt;Node3 -->
<g id="edge39" class="edge">
<title>Node26&#45;&gt;Node3</title>
<path fill="none" stroke="#191970" d="M537.7926,-302.4554C521.9753,-292.8241 501.5433,-280.3828 485.8051,-270.7996"/>
<polygon fill="#191970" stroke="#191970" points="487.5129,-267.7418 477.1514,-265.5303 483.8723,-273.7206 487.5129,-267.7418"/>
</g>
<!-- Node26&#45;&gt;Node4 -->
<g id="edge40" class="edge">
<title>Node26&#45;&gt;Node4</title>
<path fill="none" stroke="#191970" d="M574.4979,-302.4598C582.4202,-292.3375 592.8888,-278.5897 601.5,-266 613.4007,-248.6011 625.898,-228.0411 634.5196,-213.4446"/>
<polygon fill="#191970" stroke="#191970" points="637.7806,-214.8021 639.8142,-204.4043 631.7403,-211.2645 637.7806,-214.8021"/>
</g>
<!-- Node26&#45;&gt;Node10 -->
<g id="edge41" class="edge">
<title>Node26&#45;&gt;Node10</title>
<path fill="none" stroke="#191970" d="M562.8754,-302.1775C563.1071,-291.936 563.3819,-278.1614 563.5,-266 563.9106,-223.7027 562.3411,-174.1529 561.3184,-147.2795"/>
<polygon fill="#191970" stroke="#191970" points="564.8138,-147.0916 560.9209,-137.2379 557.8192,-147.3685 564.8138,-147.0916"/>
</g>
<!-- Node26&#45;&gt;Node21 -->
<g id="edge42" class="edge">
<title>Node26&#45;&gt;Node21</title>
<path fill="none" stroke="#191970" d="M492.9225,-302.4153C461.2683,-294.0613 423.944,-282.0646 392.5,-266 329.9154,-234.0259 266.8698,-180.0571 233.9188,-149.7931"/>
<polygon fill="#191970" stroke="#191970" points="235.9191,-146.8745 226.2084,-142.6374 231.1574,-152.0054 235.9191,-146.8745"/>
</g>
<!-- Node28 -->
<g id="node29" class="node">
<title>Node28</title>
<g id="a_node29"><a xlink:href="../../dc/d15/ContourCreator_8inl.html" target="_top" xlink:title="ContourCreator.inl">
<polygon fill="none" stroke="#000000" points="715.5,-308 715.5,-327 811.5,-327 811.5,-308 715.5,-308"/>
<text text-anchor="middle" x="763.5" y="-315" font-family="Helvetica,sans-Serif" font-size="10.00" fill="#000000">ContourCreator.inl</text>
</a>
</g>
</g>
<!-- Node27&#45;&gt;Node28 -->
<g id="edge44" class="edge">
<title>Node27&#45;&gt;Node28</title>
<path fill="none" stroke="#191970" d="M741.5625,-369.3906C745.2424,-360.6862 750.7742,-347.6015 755.362,-336.7494"/>
<polygon fill="#191970" stroke="#191970" points="758.71,-337.8185 759.3802,-327.2449 752.2625,-335.0927 758.71,-337.8185"/>
</g>
<!-- Node28&#45;&gt;Node2 -->
<g id="edge46" class="edge">
<title>Node28&#45;&gt;Node2</title>
<path fill="none" stroke="#191970" d="M765.9426,-307.6021C773.2549,-275.436 791.6707,-172.4476 744.5,-112 732.1361,-96.1561 680.2985,-81.4358 645.6567,-73.0975"/>
<polygon fill="#191970" stroke="#191970" points="646.0556,-69.5962 635.5206,-70.7205 644.4573,-76.4113 646.0556,-69.5962"/>
</g>
<!-- Node28&#45;&gt;Node3 -->
<g id="edge59" class="edge">
<title>Node28&#45;&gt;Node3</title>
<path fill="none" stroke="#191970" d="M716.6439,-307.9581C663.1919,-297.073 575.794,-279.2751 518.4552,-267.5985"/>
<polygon fill="#191970" stroke="#191970" points="518.9634,-264.1302 508.4661,-265.5643 517.5665,-270.9894 518.9634,-264.1302"/>
</g>
<!-- Node28&#45;&gt;Node4 -->
<g id="edge58" class="edge">
<title>Node28&#45;&gt;Node4</title>
<path fill="none" stroke="#191970" d="M749.1736,-307.8214C735.3755,-298.129 714.3246,-282.3417 698.5,-266 682.4774,-249.4538 667.1446,-227.9348 657.1306,-212.844"/>
<polygon fill="#191970" stroke="#191970" points="660.0114,-210.8539 651.6242,-204.3804 654.1439,-214.6713 660.0114,-210.8539"/>
</g>
<!-- Node28&#45;&gt;Node5 -->
<g id="edge47" class="edge">
<title>Node28&#45;&gt;Node5</title>
<path fill="none" stroke="#191970" d="M811.5597,-311.7775C895.7228,-298.8626 1067.7461,-258.9118 1140.5,-143 1151.1568,-126.0215 1151.413,-102.6135 1149.7818,-86.0757"/>
<polygon fill="#191970" stroke="#191970" points="1153.2173,-85.3521 1148.4556,-75.8875 1146.2758,-86.2557 1153.2173,-85.3521"/>
</g>
<!-- Node28&#45;&gt;Node6 -->
<g id="edge45" class="edge">
<title>Node28&#45;&gt;Node6</title>
<path fill="none" stroke="#191970" d="M766.2564,-307.6463C769.1337,-297.2951 773.7417,-280.5319 777.5,-266 788.4031,-223.8421 800.3725,-174.2402 806.7971,-147.3204"/>
<polygon fill="#191970" stroke="#191970" points="810.281,-147.7986 809.1917,-137.2599 803.4712,-146.1777 810.281,-147.7986"/>
</g>
<!-- Node28&#45;&gt;Node9 -->
<g id="edge65" class="edge">
<title>Node28&#45;&gt;Node9</title>
<path fill="none" stroke="#191970" d="M760.646,-307.8167C751.8668,-278.0303 725.1416,-187.3556 713.2784,-147.1053"/>
<polygon fill="#191970" stroke="#191970" points="716.5999,-145.9942 710.4154,-137.3917 709.8854,-147.9733 716.5999,-145.9942"/>
</g>
<!-- Node29 -->
<g id="node30" class="node">
<title>Node29</title>
<g id="a_node30"><a xlink:href="../../d5/de0/Edge_8h.html" target="_top" xlink:title="Edge.h">
<polygon fill="none" stroke="#000000" points="969,-185 969,-204 1016,-204 1016,-185 969,-185"/>
<text text-anchor="middle" x="992.5" y="-192" font-family="Helvetica,sans-Serif" font-size="10.00" fill="#000000">Edge.h</text>
</a>
</g>
</g>
<!-- Node28&#45;&gt;Node29 -->
<g id="edge48" class="edge">
<title>Node28&#45;&gt;Node29</title>
<path fill="none" stroke="#191970" d="M781.4692,-307.8484C821.5182,-286.3374 918.2877,-234.3608 965.5792,-208.9596"/>
<polygon fill="#191970" stroke="#191970" points="967.4607,-211.922 974.6142,-204.1068 964.1484,-205.7553 967.4607,-211.922"/>
</g>
<!-- Node31 -->
<g id="node32" class="node">
<title>Node31</title>
<g id="a_node32"><a xlink:href="../../dc/ded/SegmentTree_8h.html" target="_top" xlink:title="SegmentTree.h">
<polygon fill="none" stroke="#000000" points="830,-185 830,-204 913,-204 913,-185 830,-185"/>
<text text-anchor="middle" x="871.5" y="-192" font-family="Helvetica,sans-Serif" font-size="10.00" fill="#000000">SegmentTree.h</text>
</a>
</g>
</g>
<!-- Node28&#45;&gt;Node31 -->
<g id="edge60" class="edge">
<title>Node28&#45;&gt;Node31</title>
<path fill="none" stroke="#191970" d="M773.8487,-307.9874C784.6262,-297.9143 801.8144,-281.3751 815.5,-266 831.1267,-248.4442 847.5418,-227.0913 858.529,-212.3155"/>
<polygon fill="#191970" stroke="#191970" points="861.499,-214.1849 864.6131,-204.0581 855.8635,-210.0326 861.499,-214.1849"/>
</g>
<!-- Node29&#45;&gt;Node2 -->
<g id="edge50" class="edge">
<title>Node29&#45;&gt;Node2</title>
<path fill="none" stroke="#191970" d="M980.9101,-184.8462C959.2969,-167.3797 910.7385,-130.6202 863.5,-112 789.0683,-82.661 694.683,-71.8068 645.9316,-67.9703"/>
<polygon fill="#191970" stroke="#191970" points="645.9119,-64.4595 635.6818,-67.2153 645.3976,-71.4405 645.9119,-64.4595"/>
</g>
<!-- Node29&#45;&gt;Node5 -->
<g id="edge51" class="edge">
<title>Node29&#45;&gt;Node5</title>
<path fill="none" stroke="#191970" d="M1016.4294,-190.5647C1044.2543,-184.7976 1089.8844,-171.4742 1117.5,-143 1132.7555,-127.2701 1140.1411,-102.744 1143.6106,-85.6112"/>
<polygon fill="#191970" stroke="#191970" points="1147.0885,-86.0412 1145.3685,-75.5869 1140.1938,-84.8321 1147.0885,-86.0412"/>
</g>
<!-- Node29&#45;&gt;Node6 -->
<g id="edge49" class="edge">
<title>Node29&#45;&gt;Node6</title>
<path fill="none" stroke="#191970" d="M968.8374,-185.7409C935.9913,-173.5824 876.6057,-151.5999 840.9377,-138.3968"/>
<polygon fill="#191970" stroke="#191970" points="842.1413,-135.1103 831.5481,-134.9211 839.7112,-141.675 842.1413,-135.1103"/>
</g>
<!-- Node29&#45;&gt;Node17 -->
<g id="edge57" class="edge">
<title>Node29&#45;&gt;Node17</title>
<path fill="none" stroke="#191970" d="M1002.9591,-184.9005C1014.5597,-174.2535 1033.4829,-156.8856 1047.4805,-144.0385"/>
<polygon fill="#191970" stroke="#191970" points="1050.0596,-146.4221 1055.0603,-137.0817 1045.3263,-141.2649 1050.0596,-146.4221"/>
</g>
<!-- Node29&#45;&gt;Node18 -->
<g id="edge52" class="edge">
<title>Node29&#45;&gt;Node18</title>
<path fill="none" stroke="#191970" d="M1016.0801,-190.8603C1042.1088,-185.4456 1082.7947,-172.5258 1101.5,-143 1113.807,-123.5737 1097.7906,-99.2654 1083.3731,-83.2173"/>
<polygon fill="#191970" stroke="#191970" points="1085.5777,-80.4584 1076.138,-75.6478 1080.5175,-85.2951 1085.5777,-80.4584"/>
</g>
<!-- Node30 -->
<g id="node31" class="node">
<title>Node30</title>
<g id="a_node31"><a xlink:href="../../d1/d55/Interval_8h.html" target="_top" xlink:title="Interval.h">
<polygon fill="none" stroke="#000000" points="964,-118 964,-137 1021,-137 1021,-118 964,-118"/>
<text text-anchor="middle" x="992.5" y="-125" font-family="Helvetica,sans-Serif" font-size="10.00" fill="#000000">Interval.h</text>
</a>
</g>
</g>
<!-- Node29&#45;&gt;Node30 -->
<g id="edge53" class="edge">
<title>Node29&#45;&gt;Node30</title>
<path fill="none" stroke="#191970" d="M992.5,-184.9005C992.5,-175.149 992.5,-159.7597 992.5,-147.3695"/>
<polygon fill="#191970" stroke="#191970" points="996.0001,-147.0816 992.5,-137.0817 989.0001,-147.0817 996.0001,-147.0816"/>
</g>
<!-- Node30&#45;&gt;Node2 -->
<g id="edge54" class="edge">
<title>Node30&#45;&gt;Node2</title>
<path fill="none" stroke="#191970" d="M968.6668,-117.9047C962.5017,-115.7016 955.819,-113.5532 949.5,-112 840.0074,-85.0877 706.3069,-72.6982 645.8867,-68.1635"/>
<polygon fill="#191970" stroke="#191970" points="646.045,-64.6659 635.8171,-67.4303 645.5365,-71.6474 646.045,-64.6659"/>
</g>
<!-- Node30&#45;&gt;Node11 -->
<g id="edge56" class="edge">
<title>Node30&#45;&gt;Node11</title>
<path fill="none" stroke="#191970" d="M992.5,-117.8906C992.5,-109.3657 992.5,-96.6392 992.5,-85.9235"/>
<polygon fill="#191970" stroke="#191970" points="996.0001,-85.7448 992.5,-75.7449 989.0001,-85.7449 996.0001,-85.7448"/>
</g>
<!-- Node30&#45;&gt;Node16 -->
<g id="edge55" class="edge">
<title>Node30&#45;&gt;Node16</title>
<path fill="none" stroke="#191970" d="M977.6563,-117.8906C962.4582,-108.0519 938.6152,-92.6167 920.8794,-81.1351"/>
<polygon fill="#191970" stroke="#191970" points="922.5361,-78.0382 912.2395,-75.5419 918.732,-83.9144 922.5361,-78.0382"/>
</g>
<!-- Node31&#45;&gt;Node2 -->
<g id="edge61" class="edge">
<title>Node31&#45;&gt;Node2</title>
<path fill="none" stroke="#191970" d="M870.8217,-184.9105C869.0528,-167.5486 862.7453,-130.9528 840.5,-112 811.5295,-87.3174 701.2823,-73.9857 645.7997,-68.7142"/>
<polygon fill="#191970" stroke="#191970" points="646.0695,-65.2243 635.7911,-67.7945 645.4289,-72.1949 646.0695,-65.2243"/>
</g>
<!-- Node31&#45;&gt;Node9 -->
<g id="edge63" class="edge">
<title>Node31&#45;&gt;Node9</title>
<path fill="none" stroke="#191970" d="M848.0028,-184.9005C819.7492,-173.3579 772.1608,-153.9163 740.2983,-140.8993"/>
<polygon fill="#191970" stroke="#191970" points="741.5346,-137.6236 730.9536,-137.0817 738.8872,-144.1037 741.5346,-137.6236"/>
</g>
<!-- Node31&#45;&gt;Node16 -->
<g id="edge62" class="edge">
<title>Node31&#45;&gt;Node16</title>
<path fill="none" stroke="#191970" d="M873.4542,-184.8416C877.708,-163.8184 887.877,-113.5598 893.5335,-85.6038"/>
<polygon fill="#191970" stroke="#191970" points="896.9703,-86.266 895.5231,-75.7705 890.1094,-84.8777 896.9703,-86.266"/>
</g>
<!-- Node31&#45;&gt;Node30 -->
<g id="edge64" class="edge">
<title>Node31&#45;&gt;Node30</title>
<path fill="none" stroke="#191970" d="M888.8363,-184.9005C909.053,-173.7062 942.6872,-155.0823 966.1424,-142.0947"/>
<polygon fill="#191970" stroke="#191970" points="968.1429,-144.9878 975.1958,-137.0817 964.7519,-138.8639 968.1429,-144.9878"/>
</g>
</g>
</svg>
