<?xml version="1.0" encoding="UTF-8" standalone="no"?>
<!DOCTYPE svg PUBLIC "-//W3C//DTD SVG 1.1//EN"
 "http://www.w3.org/Graphics/SVG/1.1/DTD/svg11.dtd">
<!-- Generated by graphviz version 2.40.1 (20161225.0304)
 -->
<!-- Title: /home/runner/work/AliceO2/AliceO2/Detectors/MUON/MCH/Raw/Encoder/Payload/UserLogicElinkEncoder.h Pages: 1 -->
<svg width="546pt" height="239pt"
 viewBox="0.00 0.00 546.00 239.00" xmlns="http://www.w3.org/2000/svg" xmlns:xlink="http://www.w3.org/1999/xlink">
<g id="graph0" class="graph" transform="scale(1 1) rotate(0) translate(4 235)">
<title>/home/runner/work/AliceO2/AliceO2/Detectors/MUON/MCH/Raw/Encoder/Payload/UserLogicElinkEncoder.h</title>
<!-- Node18 -->
<g id="node1" class="node">
<title>Node18</title>
<polygon fill="#bfbfbf" stroke="#000000" points="187,-178.5 187,-230.5 330,-230.5 330,-178.5 187,-178.5"/>
<text text-anchor="start" x="195" y="-218.5" font-family="Helvetica,sans-Serif" font-size="10.00" fill="#000000">/home/runner/work/AliceO2</text>
<text text-anchor="start" x="195" y="-207.5" font-family="Helvetica,sans-Serif" font-size="10.00" fill="#000000">/AliceO2/Detectors/MUON</text>
<text text-anchor="start" x="195" y="-196.5" font-family="Helvetica,sans-Serif" font-size="10.00" fill="#000000">/MCH/Raw/Encoder/Payload</text>
<text text-anchor="middle" x="258.5" y="-185.5" font-family="Helvetica,sans-Serif" font-size="10.00" fill="#000000">/UserLogicElinkEncoder.h</text>
</g>
<!-- Node19 -->
<g id="node2" class="node">
<title>Node19</title>
<g id="a_node2"><a xlink:href="../../d6/d9e/PayloadEncoder_8cxx.html" target="_top" xlink:title="/home/runner/work/AliceO2\l/AliceO2/Detectors/MUON\l/MCH/Raw/Encoder/Payload\l/PayloadEncoder.cxx">
<polygon fill="none" stroke="#000000" points="0,-.5 0,-52.5 143,-52.5 143,-.5 0,-.5"/>
<text text-anchor="start" x="8" y="-40.5" font-family="Helvetica,sans-Serif" font-size="10.00" fill="#000000">/home/runner/work/AliceO2</text>
<text text-anchor="start" x="8" y="-29.5" font-family="Helvetica,sans-Serif" font-size="10.00" fill="#000000">/AliceO2/Detectors/MUON</text>
<text text-anchor="start" x="8" y="-18.5" font-family="Helvetica,sans-Serif" font-size="10.00" fill="#000000">/MCH/Raw/Encoder/Payload</text>
<text text-anchor="middle" x="71.5" y="-7.5" font-family="Helvetica,sans-Serif" font-size="10.00" fill="#000000">/PayloadEncoder.cxx</text>
</a>
</g>
</g>
<!-- Node18&#45;&gt;Node19 -->
<g id="edge1" class="edge">
<title>Node18&#45;&gt;Node19</title>
<path fill="none" stroke="#191970" d="M199.2077,-172.9682C184.7929,-163.9488 169.9562,-153.4298 157.5,-142 128.3957,-115.294 102.4579,-77.5569 86.8643,-52.5781"/>
<polygon fill="#191970" stroke="#191970" points="197.742,-176.1735 208.1035,-178.385 201.3826,-170.1947 197.742,-176.1735"/>
</g>
<!-- Node20 -->
<g id="node3" class="node">
<title>Node20</title>
<g id="a_node3"><a xlink:href="../../d8/dc5/UserLogicElinkEncoderMerger_8h.html" target="_top" xlink:title="/home/runner/work/AliceO2\l/AliceO2/Detectors/MUON\l/MCH/Raw/Encoder/Payload\l/UserLogicElinkEncoderMerger.h">
<polygon fill="none" stroke="#000000" points="178.5,-89.5 178.5,-141.5 338.5,-141.5 338.5,-89.5 178.5,-89.5"/>
<text text-anchor="start" x="186.5" y="-129.5" font-family="Helvetica,sans-Serif" font-size="10.00" fill="#000000">/home/runner/work/AliceO2</text>
<text text-anchor="start" x="186.5" y="-118.5" font-family="Helvetica,sans-Serif" font-size="10.00" fill="#000000">/AliceO2/Detectors/MUON</text>
<text text-anchor="start" x="186.5" y="-107.5" font-family="Helvetica,sans-Serif" font-size="10.00" fill="#000000">/MCH/Raw/Encoder/Payload</text>
<text text-anchor="middle" x="258.5" y="-96.5" font-family="Helvetica,sans-Serif" font-size="10.00" fill="#000000">/UserLogicElinkEncoderMerger.h</text>
</a>
</g>
</g>
<!-- Node18&#45;&gt;Node20 -->
<g id="edge2" class="edge">
<title>Node18&#45;&gt;Node20</title>
<path fill="none" stroke="#191970" d="M258.5,-168.1155C258.5,-159.2061 258.5,-149.8475 258.5,-141.5341"/>
<polygon fill="#191970" stroke="#191970" points="255.0001,-168.2784 258.5,-178.2784 262.0001,-168.2785 255.0001,-168.2784"/>
</g>
<!-- Node21 -->
<g id="node4" class="node">
<title>Node21</title>
<g id="a_node4"><a xlink:href="../../d5/dd6/testGBTEncoder_8cxx.html" target="_top" xlink:title="/home/runner/work/AliceO2\l/AliceO2/Detectors/MUON\l/MCH/Raw/Encoder/Payload\l/testGBTEncoder.cxx">
<polygon fill="none" stroke="#000000" points="161,-.5 161,-52.5 304,-52.5 304,-.5 161,-.5"/>
<text text-anchor="start" x="169" y="-40.5" font-family="Helvetica,sans-Serif" font-size="10.00" fill="#000000">/home/runner/work/AliceO2</text>
<text text-anchor="start" x="169" y="-29.5" font-family="Helvetica,sans-Serif" font-size="10.00" fill="#000000">/AliceO2/Detectors/MUON</text>
<text text-anchor="start" x="169" y="-18.5" font-family="Helvetica,sans-Serif" font-size="10.00" fill="#000000">/MCH/Raw/Encoder/Payload</text>
<text text-anchor="middle" x="232.5" y="-7.5" font-family="Helvetica,sans-Serif" font-size="10.00" fill="#000000">/testGBTEncoder.cxx</text>
</a>
</g>
</g>
<!-- Node18&#45;&gt;Node21 -->
<g id="edge7" class="edge">
<title>Node18&#45;&gt;Node21</title>
<path fill="none" stroke="#191970" d="M195.89,-172.3638C185.2593,-163.9771 175.675,-153.8818 169.5,-142 158.6375,-121.0985 160.4423,-110.7445 169.5,-89 175.3057,-75.0623 185.8988,-62.6365 196.7631,-52.6077"/>
<polygon fill="#191970" stroke="#191970" points="194.0502,-175.3548 204.1842,-178.4454 198.1894,-169.7096 194.0502,-175.3548"/>
</g>
<!-- Node22 -->
<g id="node5" class="node">
<title>Node22</title>
<g id="a_node5"><a xlink:href="../../d2/ded/testPayloadEncoder_8cxx.html" target="_top" xlink:title="/home/runner/work/AliceO2\l/AliceO2/Detectors/MUON\l/MCH/Raw/Encoder/Payload\l/testPayloadEncoder.cxx">
<polygon fill="none" stroke="#000000" points="322,-.5 322,-52.5 465,-52.5 465,-.5 322,-.5"/>
<text text-anchor="start" x="330" y="-40.5" font-family="Helvetica,sans-Serif" font-size="10.00" fill="#000000">/home/runner/work/AliceO2</text>
<text text-anchor="start" x="330" y="-29.5" font-family="Helvetica,sans-Serif" font-size="10.00" fill="#000000">/AliceO2/Detectors/MUON</text>
<text text-anchor="start" x="330" y="-18.5" font-family="Helvetica,sans-Serif" font-size="10.00" fill="#000000">/MCH/Raw/Encoder/Payload</text>
<text text-anchor="middle" x="393.5" y="-7.5" font-family="Helvetica,sans-Serif" font-size="10.00" fill="#000000">/testPayloadEncoder.cxx</text>
</a>
</g>
</g>
<!-- Node18&#45;&gt;Node22 -->
<g id="edge8" class="edge">
<title>Node18&#45;&gt;Node22</title>
<path fill="none" stroke="#191970" d="M314.5042,-172.629C326.5396,-163.87 338.3687,-153.5544 347.5,-142 368.6448,-115.2441 381.2113,-77.5187 387.7339,-52.5561"/>
<polygon fill="#191970" stroke="#191970" points="312.3707,-169.8498 306.1698,-178.4404 316.3745,-175.5918 312.3707,-169.8498"/>
</g>
<!-- Node23 -->
<g id="node6" class="node">
<title>Node23</title>
<g id="a_node6"><a xlink:href="../../d4/df7/testElinkEncoder_8cxx.html" target="_top" xlink:title="/home/runner/work/AliceO2\l/AliceO2/Detectors/MUON\l/MCH/Raw/Encoder/Payload\l/testElinkEncoder.cxx">
<polygon fill="none" stroke="#000000" points="395,-89.5 395,-141.5 538,-141.5 538,-89.5 395,-89.5"/>
<text text-anchor="start" x="403" y="-129.5" font-family="Helvetica,sans-Serif" font-size="10.00" fill="#000000">/home/runner/work/AliceO2</text>
<text text-anchor="start" x="403" y="-118.5" font-family="Helvetica,sans-Serif" font-size="10.00" fill="#000000">/AliceO2/Detectors/MUON</text>
<text text-anchor="start" x="403" y="-107.5" font-family="Helvetica,sans-Serif" font-size="10.00" fill="#000000">/MCH/Raw/Encoder/Payload</text>
<text text-anchor="middle" x="466.5" y="-96.5" font-family="Helvetica,sans-Serif" font-size="10.00" fill="#000000">/testElinkEncoder.cxx</text>
</a>
</g>
</g>
<!-- Node18&#45;&gt;Node23 -->
<g id="edge6" class="edge">
<title>Node18&#45;&gt;Node23</title>
<path fill="none" stroke="#191970" d="M328.8764,-174.387C353.7403,-163.7481 381.4775,-151.8798 405.4997,-141.6011"/>
<polygon fill="#191970" stroke="#191970" points="327.3183,-171.2467 319.5014,-178.3984 330.0721,-177.6823 327.3183,-171.2467"/>
</g>
<!-- Node20&#45;&gt;Node19 -->
<g id="edge3" class="edge">
<title>Node20&#45;&gt;Node19</title>
<path fill="none" stroke="#191970" d="M194.3413,-84.9646C172.2167,-74.4347 147.6531,-62.744 126.3417,-52.6011"/>
<polygon fill="#191970" stroke="#191970" points="193.1237,-88.2612 203.6574,-89.3984 196.132,-81.9406 193.1237,-88.2612"/>
</g>
<!-- Node20&#45;&gt;Node21 -->
<g id="edge4" class="edge">
<title>Node20&#45;&gt;Node21</title>
<path fill="none" stroke="#191970" d="M247.9556,-79.4059C245.3276,-70.4097 242.5605,-60.9379 240.1055,-52.5341"/>
<polygon fill="#191970" stroke="#191970" points="244.676,-80.6611 250.8398,-89.2784 251.3951,-78.6982 244.676,-80.6611"/>
</g>
<!-- Node20&#45;&gt;Node22 -->
<g id="edge5" class="edge">
<title>Node20&#45;&gt;Node22</title>
<path fill="none" stroke="#191970" d="M306.7128,-83.7152C322.2186,-73.4929 339.2068,-62.2933 354.01,-52.5341"/>
<polygon fill="#191970" stroke="#191970" points="304.6968,-80.8521 298.2743,-89.2784 308.5497,-86.6964 304.6968,-80.8521"/>
</g>
</g>
</svg>
