<?xml version="1.0" encoding="UTF-8" standalone="no"?>
<!DOCTYPE svg PUBLIC "-//W3C//DTD SVG 1.1//EN"
 "http://www.w3.org/Graphics/SVG/1.1/DTD/svg11.dtd">
<!-- Generated by graphviz version 2.40.1 (20161225.0304)
 -->
<!-- Title: o2::framework::RouteConfigurator Pages: 1 -->
<!--zoomable 193 -->
<svg id="main" version="1.1" xmlns="http://www.w3.org/2000/svg" xmlns:xlink="http://www.w3.org/1999/xlink" xml:space="preserve" onload="init(evt)">
<style type="text/css"><![CDATA[
.edge:hover path { stroke: red; }
.edge:hover polygon { stroke: red; fill: red; }
]]></style>
<script type="text/javascript"><![CDATA[
var edges = document.getElementsByTagName('g');
if (edges && edges.length) {
  for (var i=0;i<edges.length;i++) {
    if (edges[i].id.substr(0,4)=='edge') {
      edges[i].setAttribute('class','edge');
    }
  }
}
]]></script>
        <defs>
                <circle id="rim" cx="0" cy="0" r="7"/>
                <circle id="rim2" cx="0" cy="0" r="3.5"/>
                <g id="zoomPlus">
                        <use xlink:href="#rim" fill="#404040">
                                <set attributeName="fill" to="#808080" begin="zoomplus.mouseover" end="zoomplus.mouseout"/>
                        </use>
                        <path d="M-4,0h8M0,-4v8" fill="none" stroke="white" stroke-width="1.5" pointer-events="none"/>
                </g>
                <g id="zoomMin">
                        <use xlink:href="#rim" fill="#404040">
                                <set attributeName="fill" to="#808080" begin="zoomminus.mouseover" end="zoomminus.mouseout"/>
                        </use>
                        <path d="M-4,0h8" fill="none" stroke="white" stroke-width="1.5" pointer-events="none"/>
                </g>
                <g id="dirArrow">
                        <path fill="none" stroke="white" stroke-width="1.5" d="M0,-3.0v7 M-2.5,-0.5L0,-3.0L2.5,-0.5"/>
                </g>
               <g id="resetDef">
                       <use xlink:href="#rim2" fill="#404040">
                               <set attributeName="fill" to="#808080" begin="reset.mouseover" end="reset.mouseout"/>
                       </use>
               </g>
        </defs>

<script type="text/javascript">
var viewWidth = 521;
var viewHeight = 193;
var sectionId = 'dynsection-0';
</script>
<script xlink:href="../../svgpan.js"/>
<svg id="graph" class="graph">
<g id="viewport">
<title>o2::framework::RouteConfigurator</title>
<!-- Node1 -->
<g id="node1" class="node">
<title>Node1</title>
<polygon fill="#bfbfbf" stroke="#000000" points="174.5,-.5 174.5,-57.5 338.5,-57.5 338.5,-.5 174.5,-.5"/>
<text text-anchor="middle" x="256.5" y="-45.5" font-family="Helvetica,sans-Serif" font-size="10.00" fill="#000000">o2::framework::RouteConfigurator</text>
<polyline fill="none" stroke="#000000" points="174.5,-38.5 338.5,-38.5 "/>
<text text-anchor="middle" x="256.5" y="-26.5" font-family="Helvetica,sans-Serif" font-size="10.00" fill="#000000"> </text>
<polyline fill="none" stroke="#000000" points="174.5,-19.5 338.5,-19.5 "/>
<text text-anchor="middle" x="256.5" y="-7.5" font-family="Helvetica,sans-Serif" font-size="10.00" fill="#000000"> </text>
</g>
<!-- Node2 -->
<g id="node2" class="node">
<title>Node2</title>
<polygon fill="none" stroke="#bfbfbf" points="0,-105.5 0,-184.5 159,-184.5 159,-105.5 0,-105.5"/>
<text text-anchor="start" x="8" y="-172.5" font-family="Helvetica,sans-Serif" font-size="10.00" fill="#000000">function&lt; ExpirationHandler</text>
<text text-anchor="start" x="8" y="-161.5" font-family="Helvetica,sans-Serif" font-size="10.00" fill="#000000">::Handler(DeviceState &amp;,</text>
<text text-anchor="middle" x="79.5" y="-150.5" font-family="Helvetica,sans-Serif" font-size="10.00" fill="#000000"> ConfigParamRegistry const &amp;)&gt;</text>
<polyline fill="none" stroke="#bfbfbf" points="0,-143.5 159,-143.5 "/>
<text text-anchor="middle" x="79.5" y="-131.5" font-family="Helvetica,sans-Serif" font-size="10.00" fill="#000000"> </text>
<polyline fill="none" stroke="#bfbfbf" points="0,-124.5 159,-124.5 "/>
<text text-anchor="middle" x="79.5" y="-112.5" font-family="Helvetica,sans-Serif" font-size="10.00" fill="#000000"> </text>
</g>
<!-- Node2&#45;&gt;Node1 -->
<g id="edge1" class="edge">
<title>Node2&#45;&gt;Node1</title>
<path fill="none" stroke="#404040" d="M113.487,-105.2911C123.7005,-94.876 135.4226,-84.2608 147.5,-76 154.1856,-71.4271 161.3876,-67.1505 168.79,-63.187"/>
<polygon fill="none" stroke="#404040" points="169.05,-63.0546 172.5797,-56.7664 179.7418,-57.606 176.2121,-63.8942 169.05,-63.0546"/>
<text text-anchor="middle" x="200" y="-79" font-family="Helvetica,sans-Serif" font-size="10.00" fill="#000000"> +expirationConfigurator</text>
</g>
<!-- Node3 -->
<g id="node3" class="node">
<title>Node3</title>
<polygon fill="none" stroke="#bfbfbf" points="177,-105.5 177,-184.5 336,-184.5 336,-105.5 177,-105.5"/>
<text text-anchor="start" x="185" y="-172.5" font-family="Helvetica,sans-Serif" font-size="10.00" fill="#000000">function&lt; ExpirationHandler</text>
<text text-anchor="start" x="185" y="-161.5" font-family="Helvetica,sans-Serif" font-size="10.00" fill="#000000">::Creator(DeviceState &amp;,</text>
<text text-anchor="middle" x="256.5" y="-150.5" font-family="Helvetica,sans-Serif" font-size="10.00" fill="#000000"> ConfigParamRegistry const &amp;)&gt;</text>
<polyline fill="none" stroke="#bfbfbf" points="177,-143.5 336,-143.5 "/>
<text text-anchor="middle" x="256.5" y="-131.5" font-family="Helvetica,sans-Serif" font-size="10.00" fill="#000000"> </text>
<polyline fill="none" stroke="#bfbfbf" points="177,-124.5 336,-124.5 "/>
<text text-anchor="middle" x="256.5" y="-112.5" font-family="Helvetica,sans-Serif" font-size="10.00" fill="#000000"> </text>
</g>
<!-- Node3&#45;&gt;Node1 -->
<g id="edge2" class="edge">
<title>Node3&#45;&gt;Node1</title>
<path fill="none" stroke="#404040" d="M256.5,-105.4038C256.5,-93.9323 256.5,-81.3893 256.5,-69.8431"/>
<polygon fill="none" stroke="#404040" points="256.5001,-69.8034 252.5,-63.8034 256.5,-57.8034 260.5,-63.8034 256.5001,-69.8034"/>
<text text-anchor="middle" x="303" y="-79" font-family="Helvetica,sans-Serif" font-size="10.00" fill="#000000"> +creatorConfigurator</text>
</g>
<!-- Node4 -->
<g id="node4" class="node">
<title>Node4</title>
<polygon fill="none" stroke="#bfbfbf" points="354,-105.5 354,-184.5 513,-184.5 513,-105.5 354,-105.5"/>
<text text-anchor="start" x="362" y="-172.5" font-family="Helvetica,sans-Serif" font-size="10.00" fill="#000000">function&lt; ExpirationHandler</text>
<text text-anchor="start" x="362" y="-161.5" font-family="Helvetica,sans-Serif" font-size="10.00" fill="#000000">::Checker(DeviceState &amp;,</text>
<text text-anchor="middle" x="433.5" y="-150.5" font-family="Helvetica,sans-Serif" font-size="10.00" fill="#000000"> ConfigParamRegistry const &amp;)&gt;</text>
<polyline fill="none" stroke="#bfbfbf" points="354,-143.5 513,-143.5 "/>
<text text-anchor="middle" x="433.5" y="-131.5" font-family="Helvetica,sans-Serif" font-size="10.00" fill="#000000"> </text>
<polyline fill="none" stroke="#bfbfbf" points="354,-124.5 513,-124.5 "/>
<text text-anchor="middle" x="433.5" y="-112.5" font-family="Helvetica,sans-Serif" font-size="10.00" fill="#000000"> </text>
</g>
<!-- Node4&#45;&gt;Node1 -->
<g id="edge3" class="edge">
<title>Node4&#45;&gt;Node1</title>
<path fill="none" stroke="#404040" d="M391.5407,-105.2308C379.7243,-95.0461 366.5281,-84.5627 353.5,-76 346.7757,-71.5805 339.5737,-67.3196 332.2441,-63.2888"/>
<polygon fill="none" stroke="#404040" points="332.0519,-63.1868 324.8766,-63.9038 321.4549,-57.5561 328.6303,-56.8391 332.0519,-63.1868"/>
<text text-anchor="middle" x="417" y="-79" font-family="Helvetica,sans-Serif" font-size="10.00" fill="#000000"> +danglingConfigurator</text>
</g>
</g>
</svg>
        <g id="navigator" transform="translate(0 0)" fill="#404254">
                <rect fill="#f2f5e9" fill-opacity="0.5" stroke="#606060" stroke-width=".5" x="0" y="0" width="60" height="60"/>
                <use id="zoomplus" xlink:href="#zoomPlus" x="17" y="9" onmousedown="handleZoom(evt,'in')"/>
                <use id="zoomminus" xlink:href="#zoomMin" x="42" y="9" onmousedown="handleZoom(evt,'out')"/>
                <use id="reset" xlink:href="#resetDef" x="30" y="36" onmousedown="handleReset()"/>
                <g id="arrowUp" xlink:href="#dirArrow" transform="translate(30 24)" onmousedown="handlePan(0,-1)">
                  <use xlink:href="#rim" fill="#404040">
                        <set attributeName="fill" to="#808080" begin="arrowUp.mouseover" end="arrowUp.mouseout"/>
                  </use>
                  <path fill="none" stroke="white" stroke-width="1.5" d="M0,-3.0v7 M-2.5,-0.5L0,-3.0L2.5,-0.5"/>
                </g>
                <g id="arrowRight" xlink:href="#dirArrow" transform="rotate(90) translate(36 -43)" onmousedown="handlePan(1,0)">
                  <use xlink:href="#rim" fill="#404040">
                        <set attributeName="fill" to="#808080" begin="arrowRight.mouseover" end="arrowRight.mouseout"/>
                  </use>
                  <path fill="none" stroke="white" stroke-width="1.5" d="M0,-3.0v7 M-2.5,-0.5L0,-3.0L2.5,-0.5"/>
                </g>
                <g id="arrowDown" xlink:href="#dirArrow" transform="rotate(180) translate(-30 -48)" onmousedown="handlePan(0,1)">
                  <use xlink:href="#rim" fill="#404040">
                        <set attributeName="fill" to="#808080" begin="arrowDown.mouseover" end="arrowDown.mouseout"/>
                  </use>
                  <path fill="none" stroke="white" stroke-width="1.5" d="M0,-3.0v7 M-2.5,-0.5L0,-3.0L2.5,-0.5"/>
                </g>
                <g id="arrowLeft" xlink:href="#dirArrow" transform="rotate(270) translate(-36 17)" onmousedown="handlePan(-1,0)">
                  <use xlink:href="#rim" fill="#404040">
                        <set attributeName="fill" to="#808080" begin="arrowLeft.mouseover" end="arrowLeft.mouseout"/>
                  </use>
                  <path fill="none" stroke="white" stroke-width="1.5" d="M0,-3.0v7 M-2.5,-0.5L0,-3.0L2.5,-0.5"/>
                </g>
        </g>
        <svg viewBox="0 0 15 15" width="100%" height="30px" preserveAspectRatio="xMaxYMin meet">
         <g id="arrow_out" transform="scale(0.3 0.3)">
          <a xlink:href="structo2_1_1framework_1_1RouteConfigurator__coll__graph_org.svg" target="_base">
           <rect id="button" ry="5" rx="5" y="6" x="6" height="38" width="38"
                fill="#f2f5e9" fill-opacity="0.5" stroke="#606060" stroke-width="1.0"/>
           <path id="arrow"
             d="M 11.500037,31.436501 C 11.940474,20.09759 22.043105,11.32322 32.158766,21.979434 L 37.068811,17.246167 C 37.068811,17.246167 37.088388,32 37.088388,32 L 22.160133,31.978069 C 22.160133,31.978069 26.997745,27.140456 26.997745,27.140456 C 18.528582,18.264221 13.291696,25.230495 11.500037,31.436501 z"
             style="fill:#404040;"/>
          </a>
         </g>
        </svg>
</svg>
