<?xml version="1.0" encoding="UTF-8" standalone="no"?>
<!DOCTYPE svg PUBLIC "-//W3C//DTD SVG 1.1//EN"
 "http://www.w3.org/Graphics/SVG/1.1/DTD/svg11.dtd">
<!-- Generated by graphviz version 2.40.1 (20161225.0304)
 -->
<!-- Title: AliHLTComponentEventDoneData Pages: 1 -->
<svg width="175pt" height="182pt"
 viewBox="0.00 0.00 175.00 182.00" xmlns="http://www.w3.org/2000/svg" xmlns:xlink="http://www.w3.org/1999/xlink">
<g id="graph0" class="graph" transform="scale(1 1) rotate(0) translate(4 178)">
<title>AliHLTComponentEventDoneData</title>
<!-- Node1 -->
<g id="node1" class="node">
<title>Node1</title>
<polygon fill="#bfbfbf" stroke="#000000" points="0,-.5 0,-57.5 167,-57.5 167,-.5 0,-.5"/>
<text text-anchor="middle" x="83.5" y="-45.5" font-family="Helvetica,sans-Serif" font-size="10.00" fill="#000000">AliHLTComponentEventDoneData</text>
<polyline fill="none" stroke="#000000" points="0,-38.5 167,-38.5 "/>
<text text-anchor="middle" x="83.5" y="-26.5" font-family="Helvetica,sans-Serif" font-size="10.00" fill="#000000"> </text>
<polyline fill="none" stroke="#000000" points="0,-19.5 167,-19.5 "/>
<text text-anchor="middle" x="83.5" y="-7.5" font-family="Helvetica,sans-Serif" font-size="10.00" fill="#000000"> </text>
</g>
<!-- Node2 -->
<g id="node2" class="node">
<title>Node2</title>
<polygon fill="none" stroke="#bfbfbf" points="16.5,-116.5 16.5,-173.5 72.5,-173.5 72.5,-116.5 16.5,-116.5"/>
<text text-anchor="middle" x="44.5" y="-161.5" font-family="Helvetica,sans-Serif" font-size="10.00" fill="#000000">unsigned</text>
<polyline fill="none" stroke="#bfbfbf" points="16.5,-154.5 72.5,-154.5 "/>
<text text-anchor="middle" x="44.5" y="-142.5" font-family="Helvetica,sans-Serif" font-size="10.00" fill="#000000"> </text>
<polyline fill="none" stroke="#bfbfbf" points="16.5,-135.5 72.5,-135.5 "/>
<text text-anchor="middle" x="44.5" y="-123.5" font-family="Helvetica,sans-Serif" font-size="10.00" fill="#000000"> </text>
</g>
<!-- Node2&#45;&gt;Node1 -->
<g id="edge1" class="edge">
<title>Node2&#45;&gt;Node1</title>
<path fill="none" stroke="#404040" d="M40.7754,-116.3797C40.1589,-103.6658 40.8935,-88.7301 45.5,-76 46.4791,-73.2943 47.6844,-70.629 49.0563,-68.0264"/>
<polygon fill="none" stroke="#404040" points="49.1248,-67.9167 48.9101,-60.7088 55.481,-57.7383 55.6957,-64.9462 49.1248,-67.9167"/>
<text text-anchor="middle" x="73" y="-90" font-family="Helvetica,sans-Serif" font-size="10.00" fill="#000000"> +fDataSize</text>
<text text-anchor="middle" x="73" y="-79" font-family="Helvetica,sans-Serif" font-size="10.00" fill="#000000">+fStructSize</text>
</g>
<!-- Node3 -->
<g id="node3" class="node">
<title>Node3</title>
<polygon fill="none" stroke="#bfbfbf" points="102,-116.5 102,-173.5 143,-173.5 143,-116.5 102,-116.5"/>
<text text-anchor="middle" x="122.5" y="-161.5" font-family="Helvetica,sans-Serif" font-size="10.00" fill="#000000">void *</text>
<polyline fill="none" stroke="#bfbfbf" points="102,-154.5 143,-154.5 "/>
<text text-anchor="middle" x="122.5" y="-142.5" font-family="Helvetica,sans-Serif" font-size="10.00" fill="#000000"> </text>
<polyline fill="none" stroke="#bfbfbf" points="102,-135.5 143,-135.5 "/>
<text text-anchor="middle" x="122.5" y="-123.5" font-family="Helvetica,sans-Serif" font-size="10.00" fill="#000000"> </text>
</g>
<!-- Node3&#45;&gt;Node1 -->
<g id="edge2" class="edge">
<title>Node3&#45;&gt;Node1</title>
<path fill="none" stroke="#404040" d="M113.6469,-116.3842C109.7271,-103.9401 104.9942,-89.213 100.5,-76 99.7456,-73.782 98.9612,-71.509 98.1616,-69.2174"/>
<polygon fill="none" stroke="#404040" points="98.1136,-69.0817 92.3388,-64.7629 94.1044,-57.7713 99.8791,-62.0901 98.1136,-69.0817"/>
<text text-anchor="middle" x="123.5" y="-84.5" font-family="Helvetica,sans-Serif" font-size="10.00" fill="#000000"> +fData</text>
</g>
</g>
</svg>
