<?xml version="1.0" encoding="UTF-8" standalone="no"?>
<!DOCTYPE svg PUBLIC "-//W3C//DTD SVG 1.1//EN"
 "http://www.w3.org/Graphics/SVG/1.1/DTD/svg11.dtd">
<!-- Generated by graphviz version 2.40.1 (20161225.0304)
 -->
<!-- Title: /home/runner/work/AliceO2/AliceO2/GPU/GPUTracking/TPCClusterFinder/Array2D.h Pages: 1 -->
<svg width="2437pt" height="384pt"
 viewBox="0.00 0.00 2436.50 384.00" xmlns="http://www.w3.org/2000/svg" xmlns:xlink="http://www.w3.org/1999/xlink">
<g id="graph0" class="graph" transform="scale(1 1) rotate(0) translate(4 380)">
<title>/home/runner/work/AliceO2/AliceO2/GPU/GPUTracking/TPCClusterFinder/Array2D.h</title>
<!-- Node13 -->
<g id="node1" class="node">
<title>Node13</title>
<polygon fill="#bfbfbf" stroke="#000000" points="901.5,-334.5 901.5,-375.5 1047.5,-375.5 1047.5,-334.5 901.5,-334.5"/>
<text text-anchor="start" x="909.5" y="-363.5" font-family="Helvetica,sans-Serif" font-size="10.00" fill="#000000">/home/runner/work/AliceO2</text>
<text text-anchor="start" x="909.5" y="-352.5" font-family="Helvetica,sans-Serif" font-size="10.00" fill="#000000">/AliceO2/GPU/GPUTracking</text>
<text text-anchor="middle" x="974.5" y="-341.5" font-family="Helvetica,sans-Serif" font-size="10.00" fill="#000000">/TPCClusterFinder/Array2D.h</text>
</g>
<!-- Node14 -->
<g id="node2" class="node">
<title>Node14</title>
<g id="a_node2"><a xlink:href="../../da/de7/CfUtils_8h.html" target="_top" xlink:title="/home/runner/work/AliceO2\l/AliceO2/GPU/GPUTracking\l/TPCClusterFinder/CfUtils.h">
<polygon fill="none" stroke="#000000" points="600,-78.5 600,-119.5 741,-119.5 741,-78.5 600,-78.5"/>
<text text-anchor="start" x="608" y="-107.5" font-family="Helvetica,sans-Serif" font-size="10.00" fill="#000000">/home/runner/work/AliceO2</text>
<text text-anchor="start" x="608" y="-96.5" font-family="Helvetica,sans-Serif" font-size="10.00" fill="#000000">/AliceO2/GPU/GPUTracking</text>
<text text-anchor="middle" x="670.5" y="-85.5" font-family="Helvetica,sans-Serif" font-size="10.00" fill="#000000">/TPCClusterFinder/CfUtils.h</text>
</a>
</g>
</g>
<!-- Node13&#45;&gt;Node14 -->
<g id="edge1" class="edge">
<title>Node13&#45;&gt;Node14</title>
<path fill="none" stroke="#191970" d="M893.9056,-330.0123C878.0466,-321.9455 862.8324,-311.4773 851.5,-298 809.454,-247.9962 856.8965,-204.8363 813.5,-156 794.7709,-134.9232 767.1924,-121.5378 741.2392,-113.0839"/>
<polygon fill="#191970" stroke="#191970" points="892.7605,-333.3438 903.2933,-334.489 895.7736,-327.0254 892.7605,-333.3438"/>
</g>
<!-- Node18 -->
<g id="node6" class="node">
<title>Node18</title>
<g id="a_node6"><a xlink:href="../../d4/d72/GPUTPCCFNoiseSuppression_8cxx.html" target="_top" xlink:title="/home/runner/work/AliceO2\l/AliceO2/GPU/GPUTracking\l/TPCClusterFinder/GPUTPCCFNoiseSuppression.cxx">
<polygon fill="none" stroke="#000000" points="243,-.5 243,-41.5 498,-41.5 498,-.5 243,-.5"/>
<text text-anchor="start" x="251" y="-29.5" font-family="Helvetica,sans-Serif" font-size="10.00" fill="#000000">/home/runner/work/AliceO2</text>
<text text-anchor="start" x="251" y="-18.5" font-family="Helvetica,sans-Serif" font-size="10.00" fill="#000000">/AliceO2/GPU/GPUTracking</text>
<text text-anchor="middle" x="370.5" y="-7.5" font-family="Helvetica,sans-Serif" font-size="10.00" fill="#000000">/TPCClusterFinder/GPUTPCCFNoiseSuppression.cxx</text>
</a>
</g>
</g>
<!-- Node13&#45;&gt;Node18 -->
<g id="edge28" class="edge">
<title>Node13&#45;&gt;Node18</title>
<path fill="none" stroke="#191970" d="M890.7912,-353.588C727.6156,-349.9644 379.7106,-337.6291 343.5,-298 277.0103,-225.2333 333.6338,-92.5408 359.3805,-41.6368"/>
<polygon fill="#191970" stroke="#191970" points="891.1936,-357.0974 901.2669,-353.8143 891.3448,-350.0991 891.1936,-357.0974"/>
</g>
<!-- Node19 -->
<g id="node7" class="node">
<title>Node19</title>
<g id="a_node7"><a xlink:href="../../d9/dbb/GPUTPCCFPeakFinder_8cxx.html" target="_top" xlink:title="/home/runner/work/AliceO2\l/AliceO2/GPU/GPUTracking\l/TPCClusterFinder/GPUTPCCFPeakFinder.cxx">
<polygon fill="none" stroke="#000000" points="0,-.5 0,-41.5 225,-41.5 225,-.5 0,-.5"/>
<text text-anchor="start" x="8" y="-29.5" font-family="Helvetica,sans-Serif" font-size="10.00" fill="#000000">/home/runner/work/AliceO2</text>
<text text-anchor="start" x="8" y="-18.5" font-family="Helvetica,sans-Serif" font-size="10.00" fill="#000000">/AliceO2/GPU/GPUTracking</text>
<text text-anchor="middle" x="112.5" y="-7.5" font-family="Helvetica,sans-Serif" font-size="10.00" fill="#000000">/TPCClusterFinder/GPUTPCCFPeakFinder.cxx</text>
</a>
</g>
</g>
<!-- Node13&#45;&gt;Node19 -->
<g id="edge29" class="edge">
<title>Node13&#45;&gt;Node19</title>
<path fill="none" stroke="#191970" d="M891.2523,-352.7993C673.0398,-346.6276 99.3323,-327.6445 71.5,-298 3.6189,-225.699 69.9587,-92.73 99.71,-41.6945"/>
<polygon fill="#191970" stroke="#191970" points="891.2767,-356.3013 901.3711,-353.0835 891.4733,-349.304 891.2767,-356.3013"/>
</g>
<!-- Node20 -->
<g id="node8" class="node">
<title>Node20</title>
<g id="a_node8"><a xlink:href="../../dc/d10/GPUTPCCFChargeMapFiller_8h.html" target="_top" xlink:title="/home/runner/work/AliceO2\l/AliceO2/GPU/GPUTracking\l/TPCClusterFinder/GPUTPCCFCharge\lMapFiller.h">
<polygon fill="none" stroke="#000000" points="616.5,-245.5 616.5,-297.5 804.5,-297.5 804.5,-245.5 616.5,-245.5"/>
<text text-anchor="start" x="624.5" y="-285.5" font-family="Helvetica,sans-Serif" font-size="10.00" fill="#000000">/home/runner/work/AliceO2</text>
<text text-anchor="start" x="624.5" y="-274.5" font-family="Helvetica,sans-Serif" font-size="10.00" fill="#000000">/AliceO2/GPU/GPUTracking</text>
<text text-anchor="start" x="624.5" y="-263.5" font-family="Helvetica,sans-Serif" font-size="10.00" fill="#000000">/TPCClusterFinder/GPUTPCCFCharge</text>
<text text-anchor="middle" x="710.5" y="-252.5" font-family="Helvetica,sans-Serif" font-size="10.00" fill="#000000">MapFiller.h</text>
</a>
</g>
</g>
<!-- Node13&#45;&gt;Node20 -->
<g id="edge7" class="edge">
<title>Node13&#45;&gt;Node20</title>
<path fill="none" stroke="#191970" d="M899.8748,-331.397C866.4636,-320.8294 826.9634,-308.336 792.7061,-297.5008"/>
<polygon fill="#191970" stroke="#191970" points="898.9903,-334.788 909.5802,-334.4667 901.1012,-328.1139 898.9903,-334.788"/>
</g>
<!-- Node23 -->
<g id="node11" class="node">
<title>Node23</title>
<g id="a_node11"><a xlink:href="../../d6/d92/GPUTPCCFPeakFinder_8h.html" target="_top" xlink:title="/home/runner/work/AliceO2\l/AliceO2/GPU/GPUTracking\l/TPCClusterFinder/GPUTPCCFPeakFinder.h">
<polygon fill="none" stroke="#000000" points="81,-251 81,-292 296,-292 296,-251 81,-251"/>
<text text-anchor="start" x="89" y="-280" font-family="Helvetica,sans-Serif" font-size="10.00" fill="#000000">/home/runner/work/AliceO2</text>
<text text-anchor="start" x="89" y="-269" font-family="Helvetica,sans-Serif" font-size="10.00" fill="#000000">/AliceO2/GPU/GPUTracking</text>
<text text-anchor="middle" x="188.5" y="-258" font-family="Helvetica,sans-Serif" font-size="10.00" fill="#000000">/TPCClusterFinder/GPUTPCCFPeakFinder.h</text>
</a>
</g>
</g>
<!-- Node13&#45;&gt;Node23 -->
<g id="edge11" class="edge">
<title>Node13&#45;&gt;Node23</title>
<path fill="none" stroke="#191970" d="M891.0768,-351.2777C764.8521,-344.8709 518.0341,-329.3152 310.5,-298 299.4626,-296.3345 287.9287,-294.2667 276.5447,-292.0258"/>
<polygon fill="#191970" stroke="#191970" points="891.2702,-354.7917 901.4328,-351.7965 891.6204,-347.8005 891.2702,-354.7917"/>
</g>
<!-- Node24 -->
<g id="node12" class="node">
<title>Node24</title>
<g id="a_node12"><a xlink:href="../../d7/d30/GPUTPCCFNoiseSuppression_8h.html" target="_top" xlink:title="/home/runner/work/AliceO2\l/AliceO2/GPU/GPUTracking\l/TPCClusterFinder/GPUTPCCFNoiseSuppression.h">
<polygon fill="none" stroke="#000000" points="353,-251 353,-292 598,-292 598,-251 353,-251"/>
<text text-anchor="start" x="361" y="-280" font-family="Helvetica,sans-Serif" font-size="10.00" fill="#000000">/home/runner/work/AliceO2</text>
<text text-anchor="start" x="361" y="-269" font-family="Helvetica,sans-Serif" font-size="10.00" fill="#000000">/AliceO2/GPU/GPUTracking</text>
<text text-anchor="middle" x="475.5" y="-258" font-family="Helvetica,sans-Serif" font-size="10.00" fill="#000000">/TPCClusterFinder/GPUTPCCFNoiseSuppression.h</text>
</a>
</g>
</g>
<!-- Node13&#45;&gt;Node24 -->
<g id="edge14" class="edge">
<title>Node13&#45;&gt;Node24</title>
<path fill="none" stroke="#191970" d="M890.9712,-343.097C816.4722,-332.2262 704.5083,-315.2623 607.5,-298 597.0294,-296.1368 586.1109,-294.0988 575.2345,-292.0069"/>
<polygon fill="#191970" stroke="#191970" points="890.8294,-346.6132 901.2292,-344.5899 891.8375,-339.6861 890.8294,-346.6132"/>
</g>
<!-- Node25 -->
<g id="node13" class="node">
<title>Node25</title>
<g id="a_node13"><a xlink:href="../../dc/d21/GPUTPCCFDeconvolution_8h.html" target="_top" xlink:title="/home/runner/work/AliceO2\l/AliceO2/GPU/GPUTracking\l/TPCClusterFinder/GPUTPCCFDeconvolution.h">
<polygon fill="none" stroke="#000000" points="861,-251 861,-292 1088,-292 1088,-251 861,-251"/>
<text text-anchor="start" x="869" y="-280" font-family="Helvetica,sans-Serif" font-size="10.00" fill="#000000">/home/runner/work/AliceO2</text>
<text text-anchor="start" x="869" y="-269" font-family="Helvetica,sans-Serif" font-size="10.00" fill="#000000">/AliceO2/GPU/GPUTracking</text>
<text text-anchor="middle" x="974.5" y="-258" font-family="Helvetica,sans-Serif" font-size="10.00" fill="#000000">/TPCClusterFinder/GPUTPCCFDeconvolution.h</text>
</a>
</g>
</g>
<!-- Node13&#45;&gt;Node25 -->
<g id="edge17" class="edge">
<title>Node13&#45;&gt;Node25</title>
<path fill="none" stroke="#191970" d="M974.5,-324.1593C974.5,-313.5064 974.5,-301.8344 974.5,-292.1924"/>
<polygon fill="#191970" stroke="#191970" points="971.0001,-324.3595 974.5,-334.3595 978.0001,-324.3596 971.0001,-324.3595"/>
</g>
<!-- Node26 -->
<g id="node14" class="node">
<title>Node26</title>
<g id="a_node14"><a xlink:href="../../dd/d99/GPUTPCCFClusterizer_8h.html" target="_top" xlink:title="/home/runner/work/AliceO2\l/AliceO2/GPU/GPUTracking\l/TPCClusterFinder/GPUTPCCFClusterizer.h">
<polygon fill="none" stroke="#000000" points="1106.5,-251 1106.5,-292 1318.5,-292 1318.5,-251 1106.5,-251"/>
<text text-anchor="start" x="1114.5" y="-280" font-family="Helvetica,sans-Serif" font-size="10.00" fill="#000000">/home/runner/work/AliceO2</text>
<text text-anchor="start" x="1114.5" y="-269" font-family="Helvetica,sans-Serif" font-size="10.00" fill="#000000">/AliceO2/GPU/GPUTracking</text>
<text text-anchor="middle" x="1212.5" y="-258" font-family="Helvetica,sans-Serif" font-size="10.00" fill="#000000">/TPCClusterFinder/GPUTPCCFClusterizer.h</text>
</a>
</g>
</g>
<!-- Node13&#45;&gt;Node26 -->
<g id="edge20" class="edge">
<title>Node13&#45;&gt;Node26</title>
<path fill="none" stroke="#191970" d="M1042.7194,-331.0659C1077.8151,-318.7529 1120.1642,-303.8951 1153.7872,-292.0988"/>
<polygon fill="#191970" stroke="#191970" points="1041.3036,-327.8534 1033.0262,-334.4667 1043.621,-334.4587 1041.3036,-327.8534"/>
</g>
<!-- Node27 -->
<g id="node15" class="node">
<title>Node27</title>
<g id="a_node15"><a xlink:href="../../d0/d42/GPUTPCCFCheckPadBaseline_8cxx.html" target="_top" xlink:title="/home/runner/work/AliceO2\l/AliceO2/GPU/GPUTracking\l/TPCClusterFinder/GPUTPCCFCheckPad\lBaseline.cxx">
<polygon fill="none" stroke="#000000" points="1336,-245.5 1336,-297.5 1539,-297.5 1539,-245.5 1336,-245.5"/>
<text text-anchor="start" x="1344" y="-285.5" font-family="Helvetica,sans-Serif" font-size="10.00" fill="#000000">/home/runner/work/AliceO2</text>
<text text-anchor="start" x="1344" y="-274.5" font-family="Helvetica,sans-Serif" font-size="10.00" fill="#000000">/AliceO2/GPU/GPUTracking</text>
<text text-anchor="start" x="1344" y="-263.5" font-family="Helvetica,sans-Serif" font-size="10.00" fill="#000000">/TPCClusterFinder/GPUTPCCFCheckPad</text>
<text text-anchor="middle" x="1437.5" y="-252.5" font-family="Helvetica,sans-Serif" font-size="10.00" fill="#000000">Baseline.cxx</text>
</a>
</g>
</g>
<!-- Node13&#45;&gt;Node27 -->
<g id="edge23" class="edge">
<title>Node13&#45;&gt;Node27</title>
<path fill="none" stroke="#191970" d="M1058.1377,-343.332C1129.8688,-332.8869 1235.8447,-316.4123 1327.5,-298 1330.2925,-297.439 1333.1216,-296.8566 1335.9742,-296.2569"/>
<polygon fill="#191970" stroke="#191970" points="1057.2033,-339.9308 1047.8087,-344.8289 1058.2073,-346.8584 1057.2033,-339.9308"/>
</g>
<!-- Node28 -->
<g id="node16" class="node">
<title>Node28</title>
<g id="a_node16"><a xlink:href="../../d6/d68/MCLabelAccumulator_8h.html" target="_top" xlink:title="/home/runner/work/AliceO2\l/AliceO2/GPU/GPUTracking\l/TPCClusterFinder/MCLabelAccumulator.h">
<polygon fill="none" stroke="#000000" points="1557,-251 1557,-292 1760,-292 1760,-251 1557,-251"/>
<text text-anchor="start" x="1565" y="-280" font-family="Helvetica,sans-Serif" font-size="10.00" fill="#000000">/home/runner/work/AliceO2</text>
<text text-anchor="start" x="1565" y="-269" font-family="Helvetica,sans-Serif" font-size="10.00" fill="#000000">/AliceO2/GPU/GPUTracking</text>
<text text-anchor="middle" x="1658.5" y="-258" font-family="Helvetica,sans-Serif" font-size="10.00" fill="#000000">/TPCClusterFinder/MCLabelAccumulator.h</text>
</a>
</g>
</g>
<!-- Node13&#45;&gt;Node28 -->
<g id="edge24" class="edge">
<title>Node13&#45;&gt;Node28</title>
<path fill="none" stroke="#191970" d="M1057.9446,-350.2472C1169.9136,-343.0623 1374.7048,-327.0839 1547.5,-298 1557.4642,-296.3229 1567.8636,-294.2623 1578.1295,-292.0375"/>
<polygon fill="#191970" stroke="#191970" points="1057.4918,-346.7688 1047.7333,-350.8945 1057.9347,-353.7548 1057.4918,-346.7688"/>
</g>
<!-- Node30 -->
<g id="node18" class="node">
<title>Node30</title>
<g id="a_node18"><a xlink:href="../../db/d5c/GPUTPCCFDecodeZS_8cxx.html" target="_top" xlink:title="/home/runner/work/AliceO2\l/AliceO2/GPU/GPUTracking\l/TPCClusterFinder/GPUTPCCFDecode\lZS.cxx">
<polygon fill="none" stroke="#000000" points="1778,-245.5 1778,-297.5 1969,-297.5 1969,-245.5 1778,-245.5"/>
<text text-anchor="start" x="1786" y="-285.5" font-family="Helvetica,sans-Serif" font-size="10.00" fill="#000000">/home/runner/work/AliceO2</text>
<text text-anchor="start" x="1786" y="-274.5" font-family="Helvetica,sans-Serif" font-size="10.00" fill="#000000">/AliceO2/GPU/GPUTracking</text>
<text text-anchor="start" x="1786" y="-263.5" font-family="Helvetica,sans-Serif" font-size="10.00" fill="#000000">/TPCClusterFinder/GPUTPCCFDecode</text>
<text text-anchor="middle" x="1873.5" y="-252.5" font-family="Helvetica,sans-Serif" font-size="10.00" fill="#000000">ZS.cxx</text>
</a>
</g>
</g>
<!-- Node13&#45;&gt;Node30 -->
<g id="edge27" class="edge">
<title>Node13&#45;&gt;Node30</title>
<path fill="none" stroke="#191970" d="M1057.6844,-353.8206C1202.8505,-350.6979 1511.4921,-339.3286 1768.5,-298 1771.5628,-297.5075 1774.6669,-296.9684 1777.7944,-296.3907"/>
<polygon fill="#191970" stroke="#191970" points="1057.4432,-350.3248 1047.5179,-354.0315 1057.5884,-357.3233 1057.4432,-350.3248"/>
</g>
<!-- Node31 -->
<g id="node19" class="node">
<title>Node31</title>
<g id="a_node19"><a xlink:href="../../df/da0/GPUTPCClusterFinder_8cxx.html" target="_top" xlink:title="/home/runner/work/AliceO2\l/AliceO2/GPU/GPUTracking\l/TPCClusterFinder/GPUTPCClusterFinder.cxx">
<polygon fill="none" stroke="#000000" points="1987,-251 1987,-292 2208,-292 2208,-251 1987,-251"/>
<text text-anchor="start" x="1995" y="-280" font-family="Helvetica,sans-Serif" font-size="10.00" fill="#000000">/home/runner/work/AliceO2</text>
<text text-anchor="start" x="1995" y="-269" font-family="Helvetica,sans-Serif" font-size="10.00" fill="#000000">/AliceO2/GPU/GPUTracking</text>
<text text-anchor="middle" x="2097.5" y="-258" font-family="Helvetica,sans-Serif" font-size="10.00" fill="#000000">/TPCClusterFinder/GPUTPCClusterFinder.cxx</text>
</a>
</g>
</g>
<!-- Node13&#45;&gt;Node31 -->
<g id="edge30" class="edge">
<title>Node13&#45;&gt;Node31</title>
<path fill="none" stroke="#191970" d="M1058.0626,-352.0066C1265.7902,-344.2834 1801.5337,-322.5619 1978.5,-298 1989.821,-296.4287 2001.6608,-294.3412 2013.2968,-292.0252"/>
<polygon fill="#191970" stroke="#191970" points="1057.6894,-348.5179 1047.8259,-352.3857 1057.9486,-355.5131 1057.6894,-348.5179"/>
</g>
<!-- Node32 -->
<g id="node20" class="node">
<title>Node32</title>
<g id="a_node20"><a xlink:href="../../d2/db7/GPUTPCClusterFinderDump_8cxx.html" target="_top" xlink:title="/home/runner/work/AliceO2\l/AliceO2/GPU/GPUTracking\l/TPCClusterFinder/GPUTPCClusterFinder\lDump.cxx">
<polygon fill="none" stroke="#000000" points="2226.5,-245.5 2226.5,-297.5 2428.5,-297.5 2428.5,-245.5 2226.5,-245.5"/>
<text text-anchor="start" x="2234.5" y="-285.5" font-family="Helvetica,sans-Serif" font-size="10.00" fill="#000000">/home/runner/work/AliceO2</text>
<text text-anchor="start" x="2234.5" y="-274.5" font-family="Helvetica,sans-Serif" font-size="10.00" fill="#000000">/AliceO2/GPU/GPUTracking</text>
<text text-anchor="start" x="2234.5" y="-263.5" font-family="Helvetica,sans-Serif" font-size="10.00" fill="#000000">/TPCClusterFinder/GPUTPCClusterFinder</text>
<text text-anchor="middle" x="2327.5" y="-252.5" font-family="Helvetica,sans-Serif" font-size="10.00" fill="#000000">Dump.cxx</text>
</a>
</g>
</g>
<!-- Node13&#45;&gt;Node32 -->
<g id="edge31" class="edge">
<title>Node13&#45;&gt;Node32</title>
<path fill="none" stroke="#191970" d="M1057.9313,-353.2481C1298.8442,-347.8602 1992.6817,-329.9374 2217.5,-298 2220.4172,-297.5856 2223.3703,-297.1287 2226.3449,-296.6359"/>
<polygon fill="#191970" stroke="#191970" points="1057.753,-349.7511 1047.8333,-353.4725 1057.9086,-356.7494 1057.753,-349.7511"/>
</g>
<!-- Node15 -->
<g id="node3" class="node">
<title>Node15</title>
<g id="a_node3"><a xlink:href="../../d8/db8/ClusterAccumulator_8cxx.html" target="_top" xlink:title="/home/runner/work/AliceO2\l/AliceO2/GPU/GPUTracking\l/TPCClusterFinder/ClusterAccumulator.cxx">
<polygon fill="none" stroke="#000000" points="567.5,-.5 567.5,-41.5 773.5,-41.5 773.5,-.5 567.5,-.5"/>
<text text-anchor="start" x="575.5" y="-29.5" font-family="Helvetica,sans-Serif" font-size="10.00" fill="#000000">/home/runner/work/AliceO2</text>
<text text-anchor="start" x="575.5" y="-18.5" font-family="Helvetica,sans-Serif" font-size="10.00" fill="#000000">/AliceO2/GPU/GPUTracking</text>
<text text-anchor="middle" x="670.5" y="-7.5" font-family="Helvetica,sans-Serif" font-size="10.00" fill="#000000">/TPCClusterFinder/ClusterAccumulator.cxx</text>
</a>
</g>
</g>
<!-- Node14&#45;&gt;Node15 -->
<g id="edge2" class="edge">
<title>Node14&#45;&gt;Node15</title>
<path fill="none" stroke="#191970" d="M670.5,-68.0789C670.5,-59.2178 670.5,-49.7747 670.5,-41.6898"/>
<polygon fill="#191970" stroke="#191970" points="667.0001,-68.0974 670.5,-78.0974 674.0001,-68.0975 667.0001,-68.0974"/>
</g>
<!-- Node16 -->
<g id="node4" class="node">
<title>Node16</title>
<g id="a_node4"><a xlink:href="../../de/d30/GPUTPCCFClusterizer_8cxx.html" target="_top" xlink:title="/home/runner/work/AliceO2\l/AliceO2/GPU/GPUTracking\l/TPCClusterFinder/GPUTPCCFClusterizer.cxx">
<polygon fill="none" stroke="#000000" points="1101,-.5 1101,-41.5 1324,-41.5 1324,-.5 1101,-.5"/>
<text text-anchor="start" x="1109" y="-29.5" font-family="Helvetica,sans-Serif" font-size="10.00" fill="#000000">/home/runner/work/AliceO2</text>
<text text-anchor="start" x="1109" y="-18.5" font-family="Helvetica,sans-Serif" font-size="10.00" fill="#000000">/AliceO2/GPU/GPUTracking</text>
<text text-anchor="middle" x="1212.5" y="-7.5" font-family="Helvetica,sans-Serif" font-size="10.00" fill="#000000">/TPCClusterFinder/GPUTPCCFClusterizer.cxx</text>
</a>
</g>
</g>
<!-- Node14&#45;&gt;Node16 -->
<g id="edge3" class="edge">
<title>Node14&#45;&gt;Node16</title>
<path fill="none" stroke="#191970" d="M751.2489,-87.3793C843.9776,-74.0346 996.6768,-52.0594 1100.7741,-37.0786"/>
<polygon fill="#191970" stroke="#191970" points="750.4784,-83.954 741.079,-88.8429 751.4756,-90.8827 750.4784,-83.954"/>
</g>
<!-- Node17 -->
<g id="node5" class="node">
<title>Node17</title>
<g id="a_node5"><a xlink:href="../../dd/d19/GPUTPCCFDeconvolution_8cxx.html" target="_top" xlink:title="/home/runner/work/AliceO2\l/AliceO2/GPU/GPUTracking\l/TPCClusterFinder/GPUTPCCFDeconvolution.cxx">
<polygon fill="none" stroke="#000000" points="794.5,-.5 794.5,-41.5 1032.5,-41.5 1032.5,-.5 794.5,-.5"/>
<text text-anchor="start" x="802.5" y="-29.5" font-family="Helvetica,sans-Serif" font-size="10.00" fill="#000000">/home/runner/work/AliceO2</text>
<text text-anchor="start" x="802.5" y="-18.5" font-family="Helvetica,sans-Serif" font-size="10.00" fill="#000000">/AliceO2/GPU/GPUTracking</text>
<text text-anchor="middle" x="913.5" y="-7.5" font-family="Helvetica,sans-Serif" font-size="10.00" fill="#000000">/TPCClusterFinder/GPUTPCCFDeconvolution.cxx</text>
</a>
</g>
</g>
<!-- Node14&#45;&gt;Node17 -->
<g id="edge4" class="edge">
<title>Node14&#45;&gt;Node17</title>
<path fill="none" stroke="#191970" d="M744.4061,-75.277C777.9135,-64.5216 817.157,-51.9249 849.3989,-41.5757"/>
<polygon fill="#191970" stroke="#191970" points="743.115,-72.0155 734.6632,-78.4044 745.2545,-78.6806 743.115,-72.0155"/>
</g>
<!-- Node14&#45;&gt;Node18 -->
<g id="edge5" class="edge">
<title>Node14&#45;&gt;Node18</title>
<path fill="none" stroke="#191970" d="M590.0748,-78.0895C546.4818,-66.7553 492.8177,-52.8026 449.4544,-41.5281"/>
<polygon fill="#191970" stroke="#191970" points="589.2251,-81.4848 599.7841,-80.6139 590.9866,-74.7101 589.2251,-81.4848"/>
</g>
<!-- Node14&#45;&gt;Node19 -->
<g id="edge6" class="edge">
<title>Node14&#45;&gt;Node19</title>
<path fill="none" stroke="#191970" d="M589.8243,-89.5099C502.02,-78.9405 357.5589,-60.8477 233.5,-42 230.7597,-41.5837 227.9857,-41.1555 225.1885,-40.7177"/>
<polygon fill="#191970" stroke="#191970" points="589.6366,-93.0124 599.9826,-90.7296 590.4711,-86.0623 589.6366,-93.0124"/>
</g>
<!-- Node21 -->
<g id="node9" class="node">
<title>Node21</title>
<g id="a_node9"><a xlink:href="../../d1/d59/GPUTPCClusterFinderKernels_8h.html" target="_top" xlink:title="/home/runner/work/AliceO2\l/AliceO2/GPU/GPUTracking\l/TPCClusterFinder/GPUTPCClusterFinder\lKernels.h">
<polygon fill="none" stroke="#000000" points="396.5,-156.5 396.5,-208.5 598.5,-208.5 598.5,-156.5 396.5,-156.5"/>
<text text-anchor="start" x="404.5" y="-196.5" font-family="Helvetica,sans-Serif" font-size="10.00" fill="#000000">/home/runner/work/AliceO2</text>
<text text-anchor="start" x="404.5" y="-185.5" font-family="Helvetica,sans-Serif" font-size="10.00" fill="#000000">/AliceO2/GPU/GPUTracking</text>
<text text-anchor="start" x="404.5" y="-174.5" font-family="Helvetica,sans-Serif" font-size="10.00" fill="#000000">/TPCClusterFinder/GPUTPCClusterFinder</text>
<text text-anchor="middle" x="497.5" y="-163.5" font-family="Helvetica,sans-Serif" font-size="10.00" fill="#000000">Kernels.h</text>
</a>
</g>
</g>
<!-- Node20&#45;&gt;Node21 -->
<g id="edge8" class="edge">
<title>Node20&#45;&gt;Node21</title>
<path fill="none" stroke="#191970" d="M638.7682,-241.5276C613.2206,-230.8527 584.6747,-218.9251 559.9667,-208.6011"/>
<polygon fill="#191970" stroke="#191970" points="637.4558,-244.7724 648.0322,-245.3984 640.1547,-238.3136 637.4558,-244.7724"/>
</g>
<!-- Node22 -->
<g id="node10" class="node">
<title>Node22</title>
<g id="a_node10"><a xlink:href="../../d3/dc7/GPUTPCCFChargeMapFiller_8cxx.html" target="_top" xlink:title="/home/runner/work/AliceO2\l/AliceO2/GPU/GPUTracking\l/TPCClusterFinder/GPUTPCCFCharge\lMapFiller.cxx">
<polygon fill="none" stroke="#000000" points="616.5,-156.5 616.5,-208.5 804.5,-208.5 804.5,-156.5 616.5,-156.5"/>
<text text-anchor="start" x="624.5" y="-196.5" font-family="Helvetica,sans-Serif" font-size="10.00" fill="#000000">/home/runner/work/AliceO2</text>
<text text-anchor="start" x="624.5" y="-185.5" font-family="Helvetica,sans-Serif" font-size="10.00" fill="#000000">/AliceO2/GPU/GPUTracking</text>
<text text-anchor="start" x="624.5" y="-174.5" font-family="Helvetica,sans-Serif" font-size="10.00" fill="#000000">/TPCClusterFinder/GPUTPCCFCharge</text>
<text text-anchor="middle" x="710.5" y="-163.5" font-family="Helvetica,sans-Serif" font-size="10.00" fill="#000000">MapFiller.cxx</text>
</a>
</g>
</g>
<!-- Node20&#45;&gt;Node22 -->
<g id="edge10" class="edge">
<title>Node20&#45;&gt;Node22</title>
<path fill="none" stroke="#191970" d="M710.5,-235.1155C710.5,-226.2061 710.5,-216.8475 710.5,-208.5341"/>
<polygon fill="#191970" stroke="#191970" points="707.0001,-235.2784 710.5,-245.2784 714.0001,-235.2785 707.0001,-235.2784"/>
</g>
<!-- Node21&#45;&gt;Node14 -->
<g id="edge9" class="edge">
<title>Node21&#45;&gt;Node14</title>
<path fill="none" stroke="#191970" d="M560.8522,-151.9225C583.1886,-141.1416 607.7478,-129.2879 627.9509,-119.5367"/>
<polygon fill="#191970" stroke="#191970" points="559.2481,-148.8103 551.7636,-156.3092 562.2909,-155.1144 559.2481,-148.8103"/>
</g>
<!-- Node23&#45;&gt;Node19 -->
<g id="edge13" class="edge">
<title>Node23&#45;&gt;Node19</title>
<path fill="none" stroke="#191970" d="M179.2327,-240.9545C163.5447,-189.2459 132.1588,-85.7963 118.7775,-41.6909"/>
<polygon fill="#191970" stroke="#191970" points="175.8984,-242.0202 182.151,-250.5734 182.5969,-239.9879 175.8984,-242.0202"/>
</g>
<!-- Node23&#45;&gt;Node21 -->
<g id="edge12" class="edge">
<title>Node23&#45;&gt;Node21</title>
<path fill="none" stroke="#191970" d="M269.4756,-248.1769C311.753,-236 363.6089,-221.0641 407.1817,-208.514"/>
<polygon fill="#191970" stroke="#191970" points="268.4194,-244.8388 259.7788,-250.9699 270.3569,-251.5653 268.4194,-244.8388"/>
</g>
<!-- Node24&#45;&gt;Node18 -->
<g id="edge16" class="edge">
<title>Node24&#45;&gt;Node18</title>
<path fill="none" stroke="#191970" d="M423.2062,-245.2706C409.3556,-235.7582 395.9297,-223.6646 387.5,-209 356.5501,-155.1586 362.1055,-78.0137 367.0801,-41.5676"/>
<polygon fill="#191970" stroke="#191970" points="421.5471,-248.3658 431.8442,-250.8597 425.3498,-242.4888 421.5471,-248.3658"/>
</g>
<!-- Node24&#45;&gt;Node21 -->
<g id="edge15" class="edge">
<title>Node24&#45;&gt;Node21</title>
<path fill="none" stroke="#191970" d="M483.0673,-240.8868C485.6498,-230.4396 488.5127,-218.8575 491.0034,-208.7816"/>
<polygon fill="#191970" stroke="#191970" points="479.6046,-240.3102 480.6025,-250.8579 486.4,-241.99 479.6046,-240.3102"/>
</g>
<!-- Node25&#45;&gt;Node17 -->
<g id="edge19" class="edge">
<title>Node25&#45;&gt;Node17</title>
<path fill="none" stroke="#191970" d="M966.9829,-240.6306C954.3652,-188.8151 929.2564,-85.7044 918.5385,-41.6909"/>
<polygon fill="#191970" stroke="#191970" points="963.6374,-241.6854 969.4041,-250.5734 970.4387,-240.0292 963.6374,-241.6854"/>
</g>
<!-- Node25&#45;&gt;Node21 -->
<g id="edge18" class="edge">
<title>Node25&#45;&gt;Node21</title>
<path fill="none" stroke="#191970" d="M850.7067,-250.8444C753.7088,-234.588 631.2951,-213.8865 607.5,-209 604.6137,-208.4073 601.688,-207.793 598.7374,-207.1618"/>
<polygon fill="#191970" stroke="#191970" points="850.1646,-254.3023 860.6055,-252.5027 851.3212,-247.3985 850.1646,-254.3023"/>
</g>
<!-- Node26&#45;&gt;Node16 -->
<g id="edge22" class="edge">
<title>Node26&#45;&gt;Node16</title>
<path fill="none" stroke="#191970" d="M1212.5,-240.3054C1212.5,-188.3849 1212.5,-85.6126 1212.5,-41.6909"/>
<polygon fill="#191970" stroke="#191970" points="1209.0001,-240.5733 1212.5,-250.5734 1216.0001,-240.5734 1209.0001,-240.5733"/>
</g>
<!-- Node26&#45;&gt;Node21 -->
<g id="edge21" class="edge">
<title>Node26&#45;&gt;Node21</title>
<path fill="none" stroke="#191970" d="M1119.6094,-248.982C1111.8193,-247.4891 1104.0411,-246.1323 1096.5,-245 880.9944,-212.641 822.8108,-242.6311 607.5,-209 604.5888,-208.5453 601.641,-208.0529 598.6711,-207.5287"/>
<polygon fill="#191970" stroke="#191970" points="1118.9762,-252.4246 1129.4664,-250.9393 1120.3396,-245.5586 1118.9762,-252.4246"/>
</g>
<!-- Node28&#45;&gt;Node16 -->
<g id="edge25" class="edge">
<title>Node28&#45;&gt;Node16</title>
<path fill="none" stroke="#191970" d="M1661.6813,-240.5987C1662.5708,-214.9725 1659.5239,-179.1176 1639.5,-156 1597.4091,-107.4062 1431.5075,-65.2582 1319.3227,-41.5068"/>
<polygon fill="#191970" stroke="#191970" points="1658.1697,-240.7058 1661.0971,-250.8881 1665.1584,-241.1026 1658.1697,-240.7058"/>
</g>
<!-- Node29 -->
<g id="node17" class="node">
<title>Node29</title>
<g id="a_node17"><a xlink:href="../../d0/dbd/MCLabelAccumulator_8cxx.html" target="_top" xlink:title="/home/runner/work/AliceO2\l/AliceO2/GPU/GPUTracking\l/TPCClusterFinder/MCLabelAccumulator.cxx">
<polygon fill="none" stroke="#000000" points="1416.5,-162 1416.5,-203 1630.5,-203 1630.5,-162 1416.5,-162"/>
<text text-anchor="start" x="1424.5" y="-191" font-family="Helvetica,sans-Serif" font-size="10.00" fill="#000000">/home/runner/work/AliceO2</text>
<text text-anchor="start" x="1424.5" y="-180" font-family="Helvetica,sans-Serif" font-size="10.00" fill="#000000">/AliceO2/GPU/GPUTracking</text>
<text text-anchor="middle" x="1523.5" y="-169" font-family="Helvetica,sans-Serif" font-size="10.00" fill="#000000">/TPCClusterFinder/MCLabelAccumulator.cxx</text>
</a>
</g>
</g>
<!-- Node28&#45;&gt;Node29 -->
<g id="edge26" class="edge">
<title>Node28&#45;&gt;Node29</title>
<path fill="none" stroke="#191970" d="M1618.703,-245.2634C1598.2503,-231.7798 1573.692,-215.5895 1554.6412,-203.0301"/>
<polygon fill="#191970" stroke="#191970" points="1616.9136,-248.2759 1627.189,-250.8579 1620.7665,-242.4316 1616.9136,-248.2759"/>
</g>
</g>
</svg>
