<?xml version="1.0" encoding="UTF-8" standalone="no"?>
<!DOCTYPE svg PUBLIC "-//W3C//DTD SVG 1.1//EN"
 "http://www.w3.org/Graphics/SVG/1.1/DTD/svg11.dtd">
<!-- Generated by graphviz version 2.40.1 (20161225.0304)
 -->
<!-- Title: o2::cpv::PublisherConf Pages: 1 -->
<svg width="541pt" height="604pt"
 viewBox="0.00 0.00 540.54 604.00" xmlns="http://www.w3.org/2000/svg" xmlns:xlink="http://www.w3.org/1999/xlink">
<g id="graph0" class="graph" transform="scale(1 1) rotate(0) translate(4 600)">
<title>o2::cpv::PublisherConf</title>
<!-- Node1 -->
<g id="node1" class="node">
<title>Node1</title>
<polygon fill="#bfbfbf" stroke="#000000" points="99.5353,-.5 99.5353,-57.5 215.5353,-57.5 215.5353,-.5 99.5353,-.5"/>
<text text-anchor="middle" x="157.5353" y="-45.5" font-family="Helvetica,sans-Serif" font-size="10.00" fill="#000000">o2::cpv::PublisherConf</text>
<polyline fill="none" stroke="#000000" points="99.5353,-38.5 215.5353,-38.5 "/>
<text text-anchor="middle" x="157.5353" y="-26.5" font-family="Helvetica,sans-Serif" font-size="10.00" fill="#000000"> </text>
<polyline fill="none" stroke="#000000" points="99.5353,-19.5 215.5353,-19.5 "/>
<text text-anchor="middle" x="157.5353" y="-7.5" font-family="Helvetica,sans-Serif" font-size="10.00" fill="#000000"> </text>
</g>
<!-- Node2 -->
<g id="node2" class="node">
<title>Node2</title>
<g id="a_node2"><a xlink:href="../../df/d56/structo2_1_1cpv_1_1PublisherConf_1_1BranchOptionConfig.html" target="_top" xlink:title="{o2::cpv::PublisherConf\l::BranchOptionConfig\n||}">
<polygon fill="none" stroke="#000000" points="100.5353,-291.5 100.5353,-359.5 216.5353,-359.5 216.5353,-291.5 100.5353,-291.5"/>
<text text-anchor="start" x="108.5353" y="-347.5" font-family="Helvetica,sans-Serif" font-size="10.00" fill="#000000">o2::cpv::PublisherConf</text>
<text text-anchor="middle" x="158.5353" y="-336.5" font-family="Helvetica,sans-Serif" font-size="10.00" fill="#000000">::BranchOptionConfig</text>
<polyline fill="none" stroke="#000000" points="100.5353,-329.5 216.5353,-329.5 "/>
<text text-anchor="middle" x="158.5353" y="-317.5" font-family="Helvetica,sans-Serif" font-size="10.00" fill="#000000"> </text>
<polyline fill="none" stroke="#000000" points="100.5353,-310.5 216.5353,-310.5 "/>
<text text-anchor="middle" x="158.5353" y="-298.5" font-family="Helvetica,sans-Serif" font-size="10.00" fill="#000000"> </text>
</a>
</g>
</g>
<!-- Node2&#45;&gt;Node1 -->
<g id="edge1" class="edge">
<title>Node2&#45;&gt;Node1</title>
<path fill="none" stroke="#404040" d="M158.4206,-291.4877C158.2356,-236.6447 157.8722,-128.8784 157.6733,-69.9204"/>
<polygon fill="none" stroke="#404040" points="157.6729,-69.7707 153.6527,-63.7843 157.6323,-57.7708 161.6526,-63.7573 157.6729,-69.7707"/>
<text text-anchor="middle" x="189.0353" y="-208.5" font-family="Helvetica,sans-Serif" font-size="10.00" fill="#000000"> +mcbranch</text>
<text text-anchor="middle" x="189.0353" y="-197.5" font-family="Helvetica,sans-Serif" font-size="10.00" fill="#000000">+databranch</text>
<text text-anchor="middle" x="189.0353" y="-186.5" font-family="Helvetica,sans-Serif" font-size="10.00" fill="#000000">+datatrbranch</text>
</g>
<!-- Node3 -->
<g id="node3" class="node">
<title>Node3</title>
<polygon fill="none" stroke="#bfbfbf" points="68.0353,-538.5 68.0353,-595.5 97.0353,-595.5 97.0353,-538.5 68.0353,-538.5"/>
<text text-anchor="middle" x="82.5353" y="-583.5" font-family="Helvetica,sans-Serif" font-size="10.00" fill="#000000">int</text>
<polyline fill="none" stroke="#bfbfbf" points="68.0353,-576.5 97.0353,-576.5 "/>
<text text-anchor="middle" x="82.5353" y="-564.5" font-family="Helvetica,sans-Serif" font-size="10.00" fill="#000000"> </text>
<polyline fill="none" stroke="#bfbfbf" points="68.0353,-557.5 97.0353,-557.5 "/>
<text text-anchor="middle" x="82.5353" y="-545.5" font-family="Helvetica,sans-Serif" font-size="10.00" fill="#000000"> </text>
</g>
<!-- Node3&#45;&gt;Node1 -->
<g id="edge8" class="edge">
<title>Node3&#45;&gt;Node1</title>
<path fill="none" stroke="#404040" d="M67.8189,-544.131C39.2837,-496.8967 -18.641,-385.1026 6.5353,-291 29.7804,-204.1161 89.5359,-116.187 126.5268,-67.5204"/>
<polygon fill="none" stroke="#404040" points="126.7321,-67.2537 127.2235,-60.0594 134.0534,-57.7459 133.562,-64.9403 126.7321,-67.2537"/>
<text text-anchor="middle" x="49.0353" y="-328.5" font-family="Helvetica,sans-Serif" font-size="10.00" fill="#000000"> +defaultTreeName</text>
<text text-anchor="middle" x="49.0353" y="-317.5" font-family="Helvetica,sans-Serif" font-size="10.00" fill="#000000">+processName</text>
</g>
<!-- Node3&#45;&gt;Node2 -->
<g id="edge2" class="edge">
<title>Node3&#45;&gt;Node2</title>
<path fill="none" stroke="#404040" d="M78.8278,-538.4219C75.1869,-499.5744 73.6542,-429.0938 101.5353,-378 103.1968,-374.9553 105.1017,-371.9913 107.1842,-369.1228"/>
<polygon fill="none" stroke="#404040" points="107.2498,-369.0427 107.9567,-361.8663 114.8529,-359.7587 114.146,-366.9351 107.2498,-369.0427"/>
<text text-anchor="middle" x="95.5353" y="-512" font-family="Helvetica,sans-Serif" font-size="10.00" fill="#000000"> +option</text>
<text text-anchor="middle" x="95.5353" y="-501" font-family="Helvetica,sans-Serif" font-size="10.00" fill="#000000">+defval</text>
<text text-anchor="middle" x="95.5353" y="-490" font-family="Helvetica,sans-Serif" font-size="10.00" fill="#000000">+help</text>
</g>
<!-- Node6 -->
<g id="node6" class="node">
<title>Node6</title>
<g id="a_node6"><a xlink:href="../../de/d1b/structo2_1_1framework_1_1OutputLabel.html" target="_top" xlink:title="{o2::framework::OutputLabel\n||}">
<polygon fill="none" stroke="#000000" points="111.0353,-395 111.0353,-452 248.0353,-452 248.0353,-395 111.0353,-395"/>
<text text-anchor="middle" x="179.5353" y="-440" font-family="Helvetica,sans-Serif" font-size="10.00" fill="#000000">o2::framework::OutputLabel</text>
<polyline fill="none" stroke="#000000" points="111.0353,-433 248.0353,-433 "/>
<text text-anchor="middle" x="179.5353" y="-421" font-family="Helvetica,sans-Serif" font-size="10.00" fill="#000000"> </text>
<polyline fill="none" stroke="#000000" points="111.0353,-414 248.0353,-414 "/>
<text text-anchor="middle" x="179.5353" y="-402" font-family="Helvetica,sans-Serif" font-size="10.00" fill="#000000"> </text>
</a>
</g>
</g>
<!-- Node3&#45;&gt;Node6 -->
<g id="edge6" class="edge">
<title>Node3&#45;&gt;Node6</title>
<path fill="none" stroke="#404040" d="M97.321,-551.0279C105.197,-542.1839 114.8228,-530.8187 122.5353,-520 135.4433,-501.8933 148.1859,-480.7219 158.3384,-462.8303"/>
<polygon fill="none" stroke="#404040" points="158.4433,-462.6428 157.8827,-455.4535 164.3034,-452.1709 164.864,-459.3602 158.4433,-462.6428"/>
<text text-anchor="middle" x="160.0353" y="-501" font-family="Helvetica,sans-Serif" font-size="10.00" fill="#000000"> +value</text>
</g>
<!-- Node4 -->
<g id="node4" class="node">
<title>Node4</title>
<g id="a_node4"><a xlink:href="../../d8/dc3/structo2_1_1framework_1_1OutputSpec.html" target="_top" xlink:title="{o2::framework::OutputSpec\n||+ OutputSpec()\l+ OutputSpec()\l+ OutputSpec()\l+ OutputSpec()\l+ OutputSpec()\l+ OutputSpec()\l+ OutputSpec()\l+ OutputSpec()\l+ operator==()\l}">
<polygon fill="none" stroke="#000000" points="237.0353,-127.5 237.0353,-272.5 374.0353,-272.5 374.0353,-127.5 237.0353,-127.5"/>
<text text-anchor="middle" x="305.5353" y="-260.5" font-family="Helvetica,sans-Serif" font-size="10.00" fill="#000000">o2::framework::OutputSpec</text>
<polyline fill="none" stroke="#000000" points="237.0353,-253.5 374.0353,-253.5 "/>
<text text-anchor="middle" x="305.5353" y="-241.5" font-family="Helvetica,sans-Serif" font-size="10.00" fill="#000000"> </text>
<polyline fill="none" stroke="#000000" points="237.0353,-234.5 374.0353,-234.5 "/>
<text text-anchor="start" x="245.0353" y="-222.5" font-family="Helvetica,sans-Serif" font-size="10.00" fill="#000000">+ OutputSpec()</text>
<text text-anchor="start" x="245.0353" y="-211.5" font-family="Helvetica,sans-Serif" font-size="10.00" fill="#000000">+ OutputSpec()</text>
<text text-anchor="start" x="245.0353" y="-200.5" font-family="Helvetica,sans-Serif" font-size="10.00" fill="#000000">+ OutputSpec()</text>
<text text-anchor="start" x="245.0353" y="-189.5" font-family="Helvetica,sans-Serif" font-size="10.00" fill="#000000">+ OutputSpec()</text>
<text text-anchor="start" x="245.0353" y="-178.5" font-family="Helvetica,sans-Serif" font-size="10.00" fill="#000000">+ OutputSpec()</text>
<text text-anchor="start" x="245.0353" y="-167.5" font-family="Helvetica,sans-Serif" font-size="10.00" fill="#000000">+ OutputSpec()</text>
<text text-anchor="start" x="245.0353" y="-156.5" font-family="Helvetica,sans-Serif" font-size="10.00" fill="#000000">+ OutputSpec()</text>
<text text-anchor="start" x="245.0353" y="-145.5" font-family="Helvetica,sans-Serif" font-size="10.00" fill="#000000">+ OutputSpec()</text>
<text text-anchor="start" x="245.0353" y="-134.5" font-family="Helvetica,sans-Serif" font-size="10.00" fill="#000000">+ operator==()</text>
</a>
</g>
</g>
<!-- Node4&#45;&gt;Node1 -->
<g id="edge3" class="edge">
<title>Node4&#45;&gt;Node1</title>
<path fill="none" stroke="#404040" d="M242.77,-127.4806C224.822,-106.7434 205.9713,-84.9632 190.5744,-67.1736"/>
<polygon fill="none" stroke="#404040" points="190.2568,-66.8066 183.3057,-64.8875 182.4037,-57.733 189.3547,-59.6521 190.2568,-66.8066"/>
<text text-anchor="middle" x="252.5353" y="-101" font-family="Helvetica,sans-Serif" font-size="10.00" fill="#000000"> +mcoutput</text>
<text text-anchor="middle" x="252.5353" y="-90" font-family="Helvetica,sans-Serif" font-size="10.00" fill="#000000">+dataoutput</text>
<text text-anchor="middle" x="252.5353" y="-79" font-family="Helvetica,sans-Serif" font-size="10.00" fill="#000000">+datatroutput</text>
</g>
<!-- Node5 -->
<g id="node5" class="node">
<title>Node5</title>
<polygon fill="none" stroke="#bfbfbf" points="266.5353,-395 266.5353,-452 344.5353,-452 344.5353,-395 266.5353,-395"/>
<text text-anchor="middle" x="305.5353" y="-440" font-family="Helvetica,sans-Serif" font-size="10.00" fill="#000000">enum Lifetime</text>
<polyline fill="none" stroke="#bfbfbf" points="266.5353,-433 344.5353,-433 "/>
<text text-anchor="middle" x="305.5353" y="-421" font-family="Helvetica,sans-Serif" font-size="10.00" fill="#000000"> </text>
<polyline fill="none" stroke="#bfbfbf" points="266.5353,-414 344.5353,-414 "/>
<text text-anchor="middle" x="305.5353" y="-402" font-family="Helvetica,sans-Serif" font-size="10.00" fill="#000000"> </text>
</g>
<!-- Node5&#45;&gt;Node4 -->
<g id="edge4" class="edge">
<title>Node5&#45;&gt;Node4</title>
<path fill="none" stroke="#404040" d="M305.5353,-394.7388C305.5353,-367.019 305.5353,-323.6919 305.5353,-284.9371"/>
<polygon fill="none" stroke="#404040" points="305.5354,-284.8102 301.5354,-278.8103 305.5353,-272.8102 309.5354,-278.8102 305.5354,-284.8102"/>
<text text-anchor="middle" x="326.0353" y="-323" font-family="Helvetica,sans-Serif" font-size="10.00" fill="#000000"> +lifetime</text>
</g>
<!-- Node6&#45;&gt;Node4 -->
<g id="edge5" class="edge">
<title>Node6&#45;&gt;Node4</title>
<path fill="none" stroke="#404040" d="M198.0793,-394.9912C204.9831,-384.1388 212.7781,-371.5948 219.5353,-360 233.8515,-335.4348 248.7505,-308.3274 262.0463,-283.5153"/>
<polygon fill="none" stroke="#404040" points="262.1862,-283.253 261.4825,-276.0763 267.8365,-272.6665 268.5402,-279.8432 262.1862,-283.253"/>
<text text-anchor="middle" x="276.5353" y="-323" font-family="Helvetica,sans-Serif" font-size="10.00" fill="#000000"> +binding</text>
</g>
<!-- Node7 -->
<g id="node7" class="node">
<title>Node7</title>
<polygon fill="none" stroke="#bfbfbf" points="362.5353,-378.5 362.5353,-468.5 532.5353,-468.5 532.5353,-378.5 362.5353,-378.5"/>
<text text-anchor="start" x="370.5353" y="-456.5" font-family="Helvetica,sans-Serif" font-size="10.00" fill="#000000">variant&lt; o2::framework</text>
<text text-anchor="start" x="370.5353" y="-445.5" font-family="Helvetica,sans-Serif" font-size="10.00" fill="#000000">::ConcreteDataMatcher,</text>
<text text-anchor="start" x="370.5353" y="-434.5" font-family="Helvetica,sans-Serif" font-size="10.00" fill="#000000"> o2::framework::ConcreteDataType</text>
<text text-anchor="middle" x="447.5353" y="-423.5" font-family="Helvetica,sans-Serif" font-size="10.00" fill="#000000">Matcher &gt;</text>
<polyline fill="none" stroke="#bfbfbf" points="362.5353,-416.5 532.5353,-416.5 "/>
<text text-anchor="middle" x="447.5353" y="-404.5" font-family="Helvetica,sans-Serif" font-size="10.00" fill="#000000"> </text>
<polyline fill="none" stroke="#bfbfbf" points="362.5353,-397.5 532.5353,-397.5 "/>
<text text-anchor="middle" x="447.5353" y="-385.5" font-family="Helvetica,sans-Serif" font-size="10.00" fill="#000000"> </text>
</g>
<!-- Node7&#45;&gt;Node4 -->
<g id="edge7" class="edge">
<title>Node7&#45;&gt;Node4</title>
<path fill="none" stroke="#404040" d="M418.7995,-378.2714C401.4685,-350.9934 378.8551,-315.4012 358.3956,-283.1991"/>
<polygon fill="none" stroke="#404040" points="358.2732,-283.0064 351.6794,-280.0872 351.838,-272.8778 358.4318,-275.7971 358.2732,-283.0064"/>
<text text-anchor="middle" x="428.0353" y="-323" font-family="Helvetica,sans-Serif" font-size="10.00" fill="#000000"> +matcher</text>
</g>
</g>
</svg>
