<?xml version="1.0" encoding="UTF-8" standalone="no"?>
<!DOCTYPE svg PUBLIC "-//W3C//DTD SVG 1.1//EN"
 "http://www.w3.org/Graphics/SVG/1.1/DTD/svg11.dtd">
<!-- Generated by graphviz version 2.40.1 (20161225.0304)
 -->
<!-- Title: /home/runner/work/AliceO2/AliceO2/DataFormats/Detectors/EMCAL/include/DataFormatsEMCAL/EMCALBlockHeader.h Pages: 1 -->
<svg width="1517pt" height="150pt"
 viewBox="0.00 0.00 1517.00 150.00" xmlns="http://www.w3.org/2000/svg" xmlns:xlink="http://www.w3.org/1999/xlink">
<g id="graph0" class="graph" transform="scale(1 1) rotate(0) translate(4 146)">
<title>/home/runner/work/AliceO2/AliceO2/DataFormats/Detectors/EMCAL/include/DataFormatsEMCAL/EMCALBlockHeader.h</title>
<!-- Node12 -->
<g id="node1" class="node">
<title>Node12</title>
<polygon fill="#bfbfbf" stroke="#000000" points="691.5,-89.5 691.5,-141.5 873.5,-141.5 873.5,-89.5 691.5,-89.5"/>
<text text-anchor="start" x="699.5" y="-129.5" font-family="Helvetica,sans-Serif" font-size="10.00" fill="#000000">/home/runner/work/AliceO2</text>
<text text-anchor="start" x="699.5" y="-118.5" font-family="Helvetica,sans-Serif" font-size="10.00" fill="#000000">/AliceO2/DataFormats/Detectors</text>
<text text-anchor="start" x="699.5" y="-107.5" font-family="Helvetica,sans-Serif" font-size="10.00" fill="#000000">/EMCAL/include/DataFormatsEMCAL</text>
<text text-anchor="middle" x="782.5" y="-96.5" font-family="Helvetica,sans-Serif" font-size="10.00" fill="#000000">/EMCALBlockHeader.h</text>
</g>
<!-- Node13 -->
<g id="node2" class="node">
<title>Node13</title>
<g id="a_node2"><a xlink:href="../../d7/d7a/EMCALBlockHeader_8cxx.html" target="_top" xlink:title="/home/runner/work/AliceO2\l/AliceO2/DataFormats/Detectors\l/EMCAL/src/EMCALBlockHeader.cxx">
<polygon fill="none" stroke="#000000" points="0,-6 0,-47 183,-47 183,-6 0,-6"/>
<text text-anchor="start" x="8" y="-35" font-family="Helvetica,sans-Serif" font-size="10.00" fill="#000000">/home/runner/work/AliceO2</text>
<text text-anchor="start" x="8" y="-24" font-family="Helvetica,sans-Serif" font-size="10.00" fill="#000000">/AliceO2/DataFormats/Detectors</text>
<text text-anchor="middle" x="91.5" y="-13" font-family="Helvetica,sans-Serif" font-size="10.00" fill="#000000">/EMCAL/src/EMCALBlockHeader.cxx</text>
</a>
</g>
</g>
<!-- Node12&#45;&gt;Node13 -->
<g id="edge1" class="edge">
<title>Node12&#45;&gt;Node13</title>
<path fill="none" stroke="#191970" d="M681.3205,-109.4475C563.2758,-101.3111 362.5731,-84.1354 192.5,-53 183.4057,-51.3351 173.9265,-49.2818 164.5765,-47.061"/>
<polygon fill="#191970" stroke="#191970" points="681.2138,-112.9483 691.4285,-110.136 681.6895,-105.9645 681.2138,-112.9483"/>
</g>
<!-- Node14 -->
<g id="node3" class="node">
<title>Node14</title>
<g id="a_node3"><a xlink:href="../../d2/d75/AnalysisClusterSpec_8cxx.html" target="_top" xlink:title="/home/runner/work/AliceO2\l/AliceO2/Detectors/EMCAL\l/workflow/src/AnalysisClusterSpec.cxx">
<polygon fill="none" stroke="#000000" points="201.5,-6 201.5,-47 389.5,-47 389.5,-6 201.5,-6"/>
<text text-anchor="start" x="209.5" y="-35" font-family="Helvetica,sans-Serif" font-size="10.00" fill="#000000">/home/runner/work/AliceO2</text>
<text text-anchor="start" x="209.5" y="-24" font-family="Helvetica,sans-Serif" font-size="10.00" fill="#000000">/AliceO2/Detectors/EMCAL</text>
<text text-anchor="middle" x="295.5" y="-13" font-family="Helvetica,sans-Serif" font-size="10.00" fill="#000000">/workflow/src/AnalysisClusterSpec.cxx</text>
</a>
</g>
</g>
<!-- Node12&#45;&gt;Node14 -->
<g id="edge2" class="edge">
<title>Node12&#45;&gt;Node14</title>
<path fill="none" stroke="#191970" d="M681.0291,-101.5425C603.3463,-90.2399 493.7171,-72.9549 398.5,-53 389.9159,-51.201 380.9713,-49.1573 372.0955,-47.0216"/>
<polygon fill="#191970" stroke="#191970" points="680.8968,-105.0598 691.2951,-103.0284 681.8996,-98.132 680.8968,-105.0598"/>
</g>
<!-- Node15 -->
<g id="node4" class="node">
<title>Node15</title>
<g id="a_node4"><a xlink:href="../../dc/d49/EMCAL_2workflow_2src_2CellConverterSpec_8cxx.html" target="_top" xlink:title="/home/runner/work/AliceO2\l/AliceO2/Detectors/EMCAL\l/workflow/src/CellConverterSpec.cxx">
<polygon fill="none" stroke="#000000" points="408,-6 408,-47 587,-47 587,-6 408,-6"/>
<text text-anchor="start" x="416" y="-35" font-family="Helvetica,sans-Serif" font-size="10.00" fill="#000000">/home/runner/work/AliceO2</text>
<text text-anchor="start" x="416" y="-24" font-family="Helvetica,sans-Serif" font-size="10.00" fill="#000000">/AliceO2/Detectors/EMCAL</text>
<text text-anchor="middle" x="497.5" y="-13" font-family="Helvetica,sans-Serif" font-size="10.00" fill="#000000">/workflow/src/CellConverterSpec.cxx</text>
</a>
</g>
</g>
<!-- Node12&#45;&gt;Node15 -->
<g id="edge3" class="edge">
<title>Node12&#45;&gt;Node15</title>
<path fill="none" stroke="#191970" d="M689.1616,-86.3522C648.0696,-73.52 600.7616,-58.7466 563.4281,-47.0881"/>
<polygon fill="#191970" stroke="#191970" points="688.3276,-89.7584 698.9163,-89.3984 690.4142,-83.0766 688.3276,-89.7584"/>
</g>
<!-- Node16 -->
<g id="node5" class="node">
<title>Node16</title>
<g id="a_node5"><a xlink:href="../../d7/d67/EMCAL_2workflow_2src_2ClusterizerSpec_8cxx.html" target="_top" xlink:title="/home/runner/work/AliceO2\l/AliceO2/Detectors/EMCAL\l/workflow/src/ClusterizerSpec.cxx">
<polygon fill="none" stroke="#000000" points="605,-6 605,-47 772,-47 772,-6 605,-6"/>
<text text-anchor="start" x="613" y="-35" font-family="Helvetica,sans-Serif" font-size="10.00" fill="#000000">/home/runner/work/AliceO2</text>
<text text-anchor="start" x="613" y="-24" font-family="Helvetica,sans-Serif" font-size="10.00" fill="#000000">/AliceO2/Detectors/EMCAL</text>
<text text-anchor="middle" x="688.5" y="-13" font-family="Helvetica,sans-Serif" font-size="10.00" fill="#000000">/workflow/src/ClusterizerSpec.cxx</text>
</a>
</g>
</g>
<!-- Node12&#45;&gt;Node16 -->
<g id="edge4" class="edge">
<title>Node12&#45;&gt;Node16</title>
<path fill="none" stroke="#191970" d="M747.2711,-82.1449C734.8742,-70.4075 721.3097,-57.5645 710.3387,-47.1771"/>
<polygon fill="#191970" stroke="#191970" points="745.1374,-84.9447 754.8053,-89.2784 749.9501,-79.8615 745.1374,-84.9447"/>
</g>
<!-- Node17 -->
<g id="node6" class="node">
<title>Node17</title>
<g id="a_node6"><a xlink:href="../../db/dd5/EMCAL_2workflow_2src_2DigitsPrinterSpec_8cxx.html" target="_top" xlink:title="/home/runner/work/AliceO2\l/AliceO2/Detectors/EMCAL\l/workflow/src/DigitsPrinterSpec.cxx">
<polygon fill="none" stroke="#000000" points="790,-6 790,-47 963,-47 963,-6 790,-6"/>
<text text-anchor="start" x="798" y="-35" font-family="Helvetica,sans-Serif" font-size="10.00" fill="#000000">/home/runner/work/AliceO2</text>
<text text-anchor="start" x="798" y="-24" font-family="Helvetica,sans-Serif" font-size="10.00" fill="#000000">/AliceO2/Detectors/EMCAL</text>
<text text-anchor="middle" x="876.5" y="-13" font-family="Helvetica,sans-Serif" font-size="10.00" fill="#000000">/workflow/src/DigitsPrinterSpec.cxx</text>
</a>
</g>
</g>
<!-- Node12&#45;&gt;Node17 -->
<g id="edge5" class="edge">
<title>Node12&#45;&gt;Node17</title>
<path fill="none" stroke="#191970" d="M817.7289,-82.1449C830.1258,-70.4075 843.6903,-57.5645 854.6613,-47.1771"/>
<polygon fill="#191970" stroke="#191970" points="815.0499,-79.8615 810.1947,-89.2784 819.8626,-84.9447 815.0499,-79.8615"/>
</g>
<!-- Node18 -->
<g id="node7" class="node">
<title>Node18</title>
<g id="a_node7"><a xlink:href="../../d4/d71/EMCAL_2workflow_2src_2PublisherSpec_8cxx.html" target="_top" xlink:title="/home/runner/work/AliceO2\l/AliceO2/Detectors/EMCAL\l/workflow/src/PublisherSpec.cxx">
<polygon fill="none" stroke="#000000" points="981.5,-6 981.5,-47 1141.5,-47 1141.5,-6 981.5,-6"/>
<text text-anchor="start" x="989.5" y="-35" font-family="Helvetica,sans-Serif" font-size="10.00" fill="#000000">/home/runner/work/AliceO2</text>
<text text-anchor="start" x="989.5" y="-24" font-family="Helvetica,sans-Serif" font-size="10.00" fill="#000000">/AliceO2/Detectors/EMCAL</text>
<text text-anchor="middle" x="1061.5" y="-13" font-family="Helvetica,sans-Serif" font-size="10.00" fill="#000000">/workflow/src/PublisherSpec.cxx</text>
</a>
</g>
</g>
<!-- Node12&#45;&gt;Node18 -->
<g id="edge6" class="edge">
<title>Node12&#45;&gt;Node18</title>
<path fill="none" stroke="#191970" d="M873.8734,-86.3522C914.1003,-73.52 960.4123,-58.7466 996.9599,-47.0881"/>
<polygon fill="#191970" stroke="#191970" points="872.7874,-83.0248 864.324,-89.3984 874.9148,-89.6937 872.7874,-83.0248"/>
</g>
<!-- Node19 -->
<g id="node8" class="node">
<title>Node19</title>
<g id="a_node8"><a xlink:href="../../d2/db0/EMCAL_2workflow_2src_2RawToCellConverterSpec_8cxx.html" target="_top" xlink:title="/home/runner/work/AliceO2\l/AliceO2/Detectors/EMCAL\l/workflow/src/RawToCellConverter\lSpec.cxx">
<polygon fill="none" stroke="#000000" points="1159.5,-.5 1159.5,-52.5 1329.5,-52.5 1329.5,-.5 1159.5,-.5"/>
<text text-anchor="start" x="1167.5" y="-40.5" font-family="Helvetica,sans-Serif" font-size="10.00" fill="#000000">/home/runner/work/AliceO2</text>
<text text-anchor="start" x="1167.5" y="-29.5" font-family="Helvetica,sans-Serif" font-size="10.00" fill="#000000">/AliceO2/Detectors/EMCAL</text>
<text text-anchor="start" x="1167.5" y="-18.5" font-family="Helvetica,sans-Serif" font-size="10.00" fill="#000000">/workflow/src/RawToCellConverter</text>
<text text-anchor="middle" x="1244.5" y="-7.5" font-family="Helvetica,sans-Serif" font-size="10.00" fill="#000000">Spec.cxx</text>
</a>
</g>
</g>
<!-- Node12&#45;&gt;Node19 -->
<g id="edge7" class="edge">
<title>Node12&#45;&gt;Node19</title>
<path fill="none" stroke="#191970" d="M884.0456,-101.2308C958.2644,-90.0803 1061.1369,-73.1248 1150.5,-53 1153.3947,-52.3481 1156.3329,-51.6615 1159.2952,-50.948"/>
<polygon fill="#191970" stroke="#191970" points="883.1411,-97.827 873.7676,-102.7654 884.1749,-104.7502 883.1411,-97.827"/>
</g>
<!-- Node20 -->
<g id="node9" class="node">
<title>Node20</title>
<g id="a_node9"><a xlink:href="../../d2/dbf/EMCAL_2workflow_2src_2RecoWorkflow_8cxx.html" target="_top" xlink:title="/home/runner/work/AliceO2\l/AliceO2/Detectors/EMCAL\l/workflow/src/RecoWorkflow.cxx">
<polygon fill="none" stroke="#000000" points="1348,-6 1348,-47 1509,-47 1509,-6 1348,-6"/>
<text text-anchor="start" x="1356" y="-35" font-family="Helvetica,sans-Serif" font-size="10.00" fill="#000000">/home/runner/work/AliceO2</text>
<text text-anchor="start" x="1356" y="-24" font-family="Helvetica,sans-Serif" font-size="10.00" fill="#000000">/AliceO2/Detectors/EMCAL</text>
<text text-anchor="middle" x="1428.5" y="-13" font-family="Helvetica,sans-Serif" font-size="10.00" fill="#000000">/workflow/src/RecoWorkflow.cxx</text>
</a>
</g>
</g>
<!-- Node12&#45;&gt;Node20 -->
<g id="edge8" class="edge">
<title>Node12&#45;&gt;Node20</title>
<path fill="none" stroke="#191970" d="M884.062,-109.4207C996.1629,-101.4759 1181.5332,-84.6792 1338.5,-53 1346.6428,-51.3566 1355.1132,-49.3163 1363.4574,-47.1024"/>
<polygon fill="#191970" stroke="#191970" points="883.5121,-105.9505 873.7804,-110.1391 884.0001,-112.9335 883.5121,-105.9505"/>
</g>
</g>
</svg>
