<?xml version="1.0" encoding="UTF-8" standalone="no"?>
<!DOCTYPE svg PUBLIC "-//W3C//DTD SVG 1.1//EN"
 "http://www.w3.org/Graphics/SVG/1.1/DTD/svg11.dtd">
<!-- Generated by graphviz version 2.40.1 (20161225.0304)
 -->
<!-- Title: o2::itsmft::ITSMFTDPLDigitizerTask Pages: 1 -->
<!--zoomable 1079 -->
<svg id="main" version="1.1" xmlns="http://www.w3.org/2000/svg" xmlns:xlink="http://www.w3.org/1999/xlink" xml:space="preserve" onload="init(evt)">
<style type="text/css"><![CDATA[
.edge:hover path { stroke: red; }
.edge:hover polygon { stroke: red; fill: red; }
]]></style>
<script type="text/javascript"><![CDATA[
var edges = document.getElementsByTagName('g');
if (edges && edges.length) {
  for (var i=0;i<edges.length;i++) {
    if (edges[i].id.substr(0,4)=='edge') {
      edges[i].setAttribute('class','edge');
    }
  }
}
]]></script>
        <defs>
                <circle id="rim" cx="0" cy="0" r="7"/>
                <circle id="rim2" cx="0" cy="0" r="3.5"/>
                <g id="zoomPlus">
                        <use xlink:href="#rim" fill="#404040">
                                <set attributeName="fill" to="#808080" begin="zoomplus.mouseover" end="zoomplus.mouseout"/>
                        </use>
                        <path d="M-4,0h8M0,-4v8" fill="none" stroke="white" stroke-width="1.5" pointer-events="none"/>
                </g>
                <g id="zoomMin">
                        <use xlink:href="#rim" fill="#404040">
                                <set attributeName="fill" to="#808080" begin="zoomminus.mouseover" end="zoomminus.mouseout"/>
                        </use>
                        <path d="M-4,0h8" fill="none" stroke="white" stroke-width="1.5" pointer-events="none"/>
                </g>
                <g id="dirArrow">
                        <path fill="none" stroke="white" stroke-width="1.5" d="M0,-3.0v7 M-2.5,-0.5L0,-3.0L2.5,-0.5"/>
                </g>
               <g id="resetDef">
                       <use xlink:href="#rim2" fill="#404040">
                               <set attributeName="fill" to="#808080" begin="reset.mouseover" end="reset.mouseout"/>
                       </use>
               </g>
        </defs>

<script type="text/javascript">
var viewWidth = 1647;
var viewHeight = 1079;
var sectionId = 'dynsection-1';
</script>
<script xlink:href="../../svgpan.js"/>
<svg id="graph" class="graph">
<g id="viewport">
<title>o2::itsmft::ITSMFTDPLDigitizerTask</title>
<!-- Node4 -->
<g id="node1" class="node">
<title>Node4</title>
<polygon fill="#bfbfbf" stroke="#000000" points="820.5,-.5 820.5,-90.5 997.5,-90.5 997.5,-.5 820.5,-.5"/>
<text text-anchor="middle" x="909" y="-78.5" font-family="Helvetica,sans-Serif" font-size="10.00" fill="#000000">o2::itsmft::ITSMFTDPLDigitizerTask</text>
<polyline fill="none" stroke="#000000" points="820.5,-71.5 997.5,-71.5 "/>
<text text-anchor="middle" x="909" y="-59.5" font-family="Helvetica,sans-Serif" font-size="10.00" fill="#000000"> </text>
<polyline fill="none" stroke="#000000" points="820.5,-52.5 997.5,-52.5 "/>
<text text-anchor="start" x="828.5" y="-40.5" font-family="Helvetica,sans-Serif" font-size="10.00" fill="#000000">+ initDigitizerTask()</text>
<text text-anchor="start" x="828.5" y="-29.5" font-family="Helvetica,sans-Serif" font-size="10.00" fill="#000000">+ setDigitizationOptions()</text>
<text text-anchor="start" x="828.5" y="-18.5" font-family="Helvetica,sans-Serif" font-size="10.00" fill="#000000">+ run()</text>
<text text-anchor="start" x="828.5" y="-7.5" font-family="Helvetica,sans-Serif" font-size="10.00" fill="#000000"># ITSMFTDPLDigitizerTask()</text>
</g>
<!-- Node5 -->
<g id="node2" class="node">
<title>Node5</title>
<g id="a_node2"><a xlink:href="../../de/de1/classo2_1_1base_1_1BaseDPLDigitizer.html" target="_top" xlink:title="{o2::base::BaseDPLDigitizer\n||+ BaseDPLDigitizer()\l+ ~BaseDPLDigitizer()\l+ BaseDPLDigitizer()\l+ init()\l+ initDigitizerTask()\l}">
<polygon fill="none" stroke="#000000" points="0,-298 0,-399 138,-399 138,-298 0,-298"/>
<text text-anchor="middle" x="69" y="-387" font-family="Helvetica,sans-Serif" font-size="10.00" fill="#000000">o2::base::BaseDPLDigitizer</text>
<polyline fill="none" stroke="#000000" points="0,-380 138,-380 "/>
<text text-anchor="middle" x="69" y="-368" font-family="Helvetica,sans-Serif" font-size="10.00" fill="#000000"> </text>
<polyline fill="none" stroke="#000000" points="0,-361 138,-361 "/>
<text text-anchor="start" x="8" y="-349" font-family="Helvetica,sans-Serif" font-size="10.00" fill="#000000">+ BaseDPLDigitizer()</text>
<text text-anchor="start" x="8" y="-338" font-family="Helvetica,sans-Serif" font-size="10.00" fill="#000000">+ ~BaseDPLDigitizer()</text>
<text text-anchor="start" x="8" y="-327" font-family="Helvetica,sans-Serif" font-size="10.00" fill="#000000">+ BaseDPLDigitizer()</text>
<text text-anchor="start" x="8" y="-316" font-family="Helvetica,sans-Serif" font-size="10.00" fill="#000000">+ init()</text>
<text text-anchor="start" x="8" y="-305" font-family="Helvetica,sans-Serif" font-size="10.00" fill="#000000">+ initDigitizerTask()</text>
</a>
</g>
</g>
<!-- Node5&#45;&gt;Node4 -->
<g id="edge1" class="edge">
<title>Node5&#45;&gt;Node4</title>
<path fill="none" stroke="#8b1a1a" d="M80.2409,-287.7764C90.8517,-246.5315 110.7567,-193.576 147,-160 200.511,-110.4272 231.6609,-124.2194 303,-109 484.307,-70.3203 701.373,-54.8401 820.2717,-48.9228"/>
<polygon fill="none" stroke="#8b1a1a" points="76.7843,-287.1765 77.8018,-297.7224 83.5829,-288.8438 76.7843,-287.1765"/>
</g>
<!-- Node6 -->
<g id="node3" class="node">
<title>Node6</title>
<g id="a_node3"><a xlink:href="../../d0/d77/classo2_1_1itsmft_1_1Digitizer.html" target="_top" xlink:title="{o2::itsmft::Digitizer\n||+ Digitizer()\l+ ~Digitizer()\l+ Digitizer()\l+ operator=()\l+ setDigits()\l+ setMCLabels()\l+ setROFRecords()\l+ getParams()\l+ getParams()\l+ init()\l+ process()\l+ setEventTime()\l+ getEndTimeOfROFMax()\l+ setContinuous()\l+ isContinuous()\l+ fillOutputContainer()\l+ setDigiParams()\l+ getDigitParams()\l+ setGeometry()\l+ getEventROFrameMin()\l+ getEventROFrameMax()\l+ resetEventROFrames()\l}">
<polygon fill="none" stroke="#000000" points="156,-204.5 156,-492.5 290,-492.5 290,-204.5 156,-204.5"/>
<text text-anchor="middle" x="223" y="-480.5" font-family="Helvetica,sans-Serif" font-size="10.00" fill="#000000">o2::itsmft::Digitizer</text>
<polyline fill="none" stroke="#000000" points="156,-473.5 290,-473.5 "/>
<text text-anchor="middle" x="223" y="-461.5" font-family="Helvetica,sans-Serif" font-size="10.00" fill="#000000"> </text>
<polyline fill="none" stroke="#000000" points="156,-454.5 290,-454.5 "/>
<text text-anchor="start" x="164" y="-442.5" font-family="Helvetica,sans-Serif" font-size="10.00" fill="#000000">+ Digitizer()</text>
<text text-anchor="start" x="164" y="-431.5" font-family="Helvetica,sans-Serif" font-size="10.00" fill="#000000">+ ~Digitizer()</text>
<text text-anchor="start" x="164" y="-420.5" font-family="Helvetica,sans-Serif" font-size="10.00" fill="#000000">+ Digitizer()</text>
<text text-anchor="start" x="164" y="-409.5" font-family="Helvetica,sans-Serif" font-size="10.00" fill="#000000">+ operator=()</text>
<text text-anchor="start" x="164" y="-398.5" font-family="Helvetica,sans-Serif" font-size="10.00" fill="#000000">+ setDigits()</text>
<text text-anchor="start" x="164" y="-387.5" font-family="Helvetica,sans-Serif" font-size="10.00" fill="#000000">+ setMCLabels()</text>
<text text-anchor="start" x="164" y="-376.5" font-family="Helvetica,sans-Serif" font-size="10.00" fill="#000000">+ setROFRecords()</text>
<text text-anchor="start" x="164" y="-365.5" font-family="Helvetica,sans-Serif" font-size="10.00" fill="#000000">+ getParams()</text>
<text text-anchor="start" x="164" y="-354.5" font-family="Helvetica,sans-Serif" font-size="10.00" fill="#000000">+ getParams()</text>
<text text-anchor="start" x="164" y="-343.5" font-family="Helvetica,sans-Serif" font-size="10.00" fill="#000000">+ init()</text>
<text text-anchor="start" x="164" y="-332.5" font-family="Helvetica,sans-Serif" font-size="10.00" fill="#000000">+ process()</text>
<text text-anchor="start" x="164" y="-321.5" font-family="Helvetica,sans-Serif" font-size="10.00" fill="#000000">+ setEventTime()</text>
<text text-anchor="start" x="164" y="-310.5" font-family="Helvetica,sans-Serif" font-size="10.00" fill="#000000">+ getEndTimeOfROFMax()</text>
<text text-anchor="start" x="164" y="-299.5" font-family="Helvetica,sans-Serif" font-size="10.00" fill="#000000">+ setContinuous()</text>
<text text-anchor="start" x="164" y="-288.5" font-family="Helvetica,sans-Serif" font-size="10.00" fill="#000000">+ isContinuous()</text>
<text text-anchor="start" x="164" y="-277.5" font-family="Helvetica,sans-Serif" font-size="10.00" fill="#000000">+ fillOutputContainer()</text>
<text text-anchor="start" x="164" y="-266.5" font-family="Helvetica,sans-Serif" font-size="10.00" fill="#000000">+ setDigiParams()</text>
<text text-anchor="start" x="164" y="-255.5" font-family="Helvetica,sans-Serif" font-size="10.00" fill="#000000">+ getDigitParams()</text>
<text text-anchor="start" x="164" y="-244.5" font-family="Helvetica,sans-Serif" font-size="10.00" fill="#000000">+ setGeometry()</text>
<text text-anchor="start" x="164" y="-233.5" font-family="Helvetica,sans-Serif" font-size="10.00" fill="#000000">+ getEventROFrameMin()</text>
<text text-anchor="start" x="164" y="-222.5" font-family="Helvetica,sans-Serif" font-size="10.00" fill="#000000">+ getEventROFrameMax()</text>
<text text-anchor="start" x="164" y="-211.5" font-family="Helvetica,sans-Serif" font-size="10.00" fill="#000000">+ resetEventROFrames()</text>
</a>
</g>
</g>
<!-- Node6&#45;&gt;Node4 -->
<g id="edge2" class="edge">
<title>Node6&#45;&gt;Node4</title>
<path fill="none" stroke="#404040" d="M262.0894,-204.4515C280.5381,-165.4426 307.3324,-128.6055 346,-109 424.507,-69.1949 668.4159,-54.0101 808.0857,-48.476"/>
<polygon fill="none" stroke="#404040" points="808.4485,-48.4621 814.2903,-44.2344 820.4396,-48.0009 814.5978,-52.2285 808.4485,-48.4621"/>
<text text-anchor="middle" x="372.5" y="-123" font-family="Helvetica,sans-Serif" font-size="10.00" fill="#000000"> #mDigitizer</text>
</g>
<!-- Node7 -->
<g id="node4" class="node">
<title>Node7</title>
<g id="a_node4"><a xlink:href="../../d5/d0f/classTObject.html" target="_top" xlink:title="{TObject\n||}">
<polygon fill="none" stroke="#000000" points="197.5,-854 197.5,-911 248.5,-911 248.5,-854 197.5,-854"/>
<text text-anchor="middle" x="223" y="-899" font-family="Helvetica,sans-Serif" font-size="10.00" fill="#000000">TObject</text>
<polyline fill="none" stroke="#000000" points="197.5,-892 248.5,-892 "/>
<text text-anchor="middle" x="223" y="-880" font-family="Helvetica,sans-Serif" font-size="10.00" fill="#000000"> </text>
<polyline fill="none" stroke="#000000" points="197.5,-873 248.5,-873 "/>
<text text-anchor="middle" x="223" y="-861" font-family="Helvetica,sans-Serif" font-size="10.00" fill="#000000"> </text>
</a>
</g>
</g>
<!-- Node7&#45;&gt;Node6 -->
<g id="edge3" class="edge">
<title>Node7&#45;&gt;Node6</title>
<path fill="none" stroke="#191970" d="M223,-843.7198C223,-771.0698 223,-611.11 223,-492.5409"/>
<polygon fill="none" stroke="#191970" points="219.5001,-843.7898 223,-853.7898 226.5001,-843.7899 219.5001,-843.7898"/>
</g>
<!-- Node8 -->
<g id="node5" class="node">
<title>Node8</title>
<polygon fill="none" stroke="#bfbfbf" points="308,-314.5 308,-382.5 402,-382.5 402,-314.5 308,-314.5"/>
<text text-anchor="start" x="316" y="-370.5" font-family="Helvetica,sans-Serif" font-size="10.00" fill="#000000">vector&lt; o2::itsmft</text>
<text text-anchor="middle" x="355" y="-359.5" font-family="Helvetica,sans-Serif" font-size="10.00" fill="#000000">::ROFRecord &gt;</text>
<polyline fill="none" stroke="#bfbfbf" points="308,-352.5 402,-352.5 "/>
<text text-anchor="middle" x="355" y="-340.5" font-family="Helvetica,sans-Serif" font-size="10.00" fill="#000000"> </text>
<polyline fill="none" stroke="#bfbfbf" points="308,-333.5 402,-333.5 "/>
<text text-anchor="middle" x="355" y="-321.5" font-family="Helvetica,sans-Serif" font-size="10.00" fill="#000000"> </text>
</g>
<!-- Node8&#45;&gt;Node4 -->
<g id="edge4" class="edge">
<title>Node8&#45;&gt;Node4</title>
<path fill="none" stroke="#404040" d="M354.584,-314.1807C355.9915,-260.8355 367.3096,-158.9723 430,-109 459.0026,-85.8812 676.5376,-64.3994 808.2737,-53.3263"/>
<polygon fill="none" stroke="#404040" points="808.3938,-53.3164 814.0409,-48.832 820.3524,-52.3199 814.7052,-56.8043 808.3938,-53.3164"/>
<text text-anchor="middle" x="481.5" y="-128.5" font-family="Helvetica,sans-Serif" font-size="10.00" fill="#000000"> #mROFRecords</text>
<text text-anchor="middle" x="481.5" y="-117.5" font-family="Helvetica,sans-Serif" font-size="10.00" fill="#000000">#mROFRecordsAccum</text>
</g>
<!-- Node9 -->
<g id="node6" class="node">
<title>Node9</title>
<polygon fill="none" stroke="#bfbfbf" points="420,-314.5 420,-382.5 514,-382.5 514,-314.5 420,-314.5"/>
<text text-anchor="start" x="428" y="-370.5" font-family="Helvetica,sans-Serif" font-size="10.00" fill="#000000">vector&lt; o2::itsmft</text>
<text text-anchor="middle" x="467" y="-359.5" font-family="Helvetica,sans-Serif" font-size="10.00" fill="#000000">::Digit &gt;</text>
<polyline fill="none" stroke="#bfbfbf" points="420,-352.5 514,-352.5 "/>
<text text-anchor="middle" x="467" y="-340.5" font-family="Helvetica,sans-Serif" font-size="10.00" fill="#000000"> </text>
<polyline fill="none" stroke="#bfbfbf" points="420,-333.5 514,-333.5 "/>
<text text-anchor="middle" x="467" y="-321.5" font-family="Helvetica,sans-Serif" font-size="10.00" fill="#000000"> </text>
</g>
<!-- Node9&#45;&gt;Node4 -->
<g id="edge5" class="edge">
<title>Node9&#45;&gt;Node4</title>
<path fill="none" stroke="#404040" d="M469.8351,-314.2957C476.6277,-258.0983 499.4148,-148.522 575,-109 614.7587,-88.211 725.081,-69.7196 808.1389,-58.1282"/>
<polygon fill="none" stroke="#404040" points="808.2962,-58.1066 813.694,-53.325 820.1839,-56.4686 814.7861,-61.2502 808.2962,-58.1066"/>
<text text-anchor="middle" x="596.5" y="-123" font-family="Helvetica,sans-Serif" font-size="10.00" fill="#000000"> #mDigits</text>
</g>
<!-- Node10 -->
<g id="node7" class="node">
<title>Node10</title>
<polygon fill="none" stroke="#bfbfbf" points="532,-320 532,-377 588,-377 588,-320 532,-320"/>
<text text-anchor="middle" x="560" y="-365" font-family="Helvetica,sans-Serif" font-size="10.00" fill="#000000">ROMode</text>
<polyline fill="none" stroke="#bfbfbf" points="532,-358 588,-358 "/>
<text text-anchor="middle" x="560" y="-346" font-family="Helvetica,sans-Serif" font-size="10.00" fill="#000000"> </text>
<polyline fill="none" stroke="#bfbfbf" points="532,-339 588,-339 "/>
<text text-anchor="middle" x="560" y="-327" font-family="Helvetica,sans-Serif" font-size="10.00" fill="#000000"> </text>
</g>
<!-- Node10&#45;&gt;Node4 -->
<g id="edge6" class="edge">
<title>Node10&#45;&gt;Node4</title>
<path fill="none" stroke="#404040" d="M557.8893,-319.909C556.4822,-279.7798 559.7905,-206.4681 597,-160 624.2418,-125.9798 727.9826,-92.2381 808.4488,-70.2933"/>
<polygon fill="none" stroke="#404040" points="808.5535,-70.2652 813.3059,-64.8416 820.1401,-67.1425 815.3877,-72.5661 808.5535,-70.2652"/>
<text text-anchor="middle" x="712" y="-123" font-family="Helvetica,sans-Serif" font-size="10.00" fill="#000000"> #mROMode</text>
</g>
<!-- Node11 -->
<g id="node8" class="node">
<title>Node11</title>
<polygon fill="none" stroke="#bfbfbf" points="606,-314.5 606,-382.5 748,-382.5 748,-314.5 606,-314.5"/>
<text text-anchor="start" x="614" y="-370.5" font-family="Helvetica,sans-Serif" font-size="10.00" fill="#000000">Descriptor&lt; gSizeDataOrigin</text>
<text text-anchor="middle" x="677" y="-359.5" font-family="Helvetica,sans-Serif" font-size="10.00" fill="#000000">String, printDataOrigin &gt;</text>
<polyline fill="none" stroke="#bfbfbf" points="606,-352.5 748,-352.5 "/>
<text text-anchor="middle" x="677" y="-340.5" font-family="Helvetica,sans-Serif" font-size="10.00" fill="#000000"> </text>
<polyline fill="none" stroke="#bfbfbf" points="606,-333.5 748,-333.5 "/>
<text text-anchor="middle" x="677" y="-321.5" font-family="Helvetica,sans-Serif" font-size="10.00" fill="#000000"> </text>
</g>
<!-- Node11&#45;&gt;Node4 -->
<g id="edge7" class="edge">
<title>Node11&#45;&gt;Node4</title>
<path fill="none" stroke="#404040" d="M685.6214,-314.3888C696.9924,-274.3277 720.0078,-207.3426 757,-160 775.4149,-136.4326 799.8134,-115.2151 823.6608,-97.6325"/>
<polygon fill="none" stroke="#404040" points="823.7285,-97.5839 826.2627,-90.8327 833.4693,-90.5754 830.935,-97.3266 823.7285,-97.5839"/>
<text text-anchor="middle" x="829.5" y="-123" font-family="Helvetica,sans-Serif" font-size="10.00" fill="#000000"> #mOrigin</text>
</g>
<!-- Node12 -->
<g id="node9" class="node">
<title>Node12</title>
<g id="a_node9"><a xlink:href="../../d6/dd5/classo2_1_1detectors_1_1DetID.html" target="_top" xlink:title="Static class with identifiers, bitmasks and names for ALICE detectors. ">
<polygon fill="none" stroke="#000000" points="766,-188 766,-509 872,-509 872,-188 766,-188"/>
<text text-anchor="middle" x="819" y="-497" font-family="Helvetica,sans-Serif" font-size="10.00" fill="#000000">o2::detectors::DetID</text>
<polyline fill="none" stroke="#000000" points="766,-490 872,-490 "/>
<text text-anchor="start" x="774" y="-478" font-family="Helvetica,sans-Serif" font-size="10.00" fill="#000000">+ ITS</text>
<text text-anchor="start" x="774" y="-467" font-family="Helvetica,sans-Serif" font-size="10.00" fill="#000000">+ TOF</text>
<text text-anchor="start" x="774" y="-456" font-family="Helvetica,sans-Serif" font-size="10.00" fill="#000000">+ PHS</text>
<text text-anchor="start" x="774" y="-445" font-family="Helvetica,sans-Serif" font-size="10.00" fill="#000000">+ CPV</text>
<text text-anchor="start" x="774" y="-434" font-family="Helvetica,sans-Serif" font-size="10.00" fill="#000000">+ EMC</text>
<text text-anchor="start" x="774" y="-423" font-family="Helvetica,sans-Serif" font-size="10.00" fill="#000000">+ HMP</text>
<text text-anchor="start" x="774" y="-412" font-family="Helvetica,sans-Serif" font-size="10.00" fill="#000000">+ MFT</text>
<text text-anchor="start" x="774" y="-401" font-family="Helvetica,sans-Serif" font-size="10.00" fill="#000000">+ MID</text>
<text text-anchor="start" x="774" y="-390" font-family="Helvetica,sans-Serif" font-size="10.00" fill="#000000">+ ZDC</text>
<text text-anchor="start" x="774" y="-379" font-family="Helvetica,sans-Serif" font-size="10.00" fill="#000000">+ Last</text>
<polyline fill="none" stroke="#000000" points="766,-372 872,-372 "/>
<text text-anchor="start" x="774" y="-360" font-family="Helvetica,sans-Serif" font-size="10.00" fill="#000000">+ DetID()</text>
<text text-anchor="start" x="774" y="-349" font-family="Helvetica,sans-Serif" font-size="10.00" fill="#000000">+ DetID()</text>
<text text-anchor="start" x="774" y="-338" font-family="Helvetica,sans-Serif" font-size="10.00" fill="#000000">+ DetID()</text>
<text text-anchor="start" x="774" y="-327" font-family="Helvetica,sans-Serif" font-size="10.00" fill="#000000">+ operator=()</text>
<text text-anchor="start" x="774" y="-316" font-family="Helvetica,sans-Serif" font-size="10.00" fill="#000000">+ getID()</text>
<text text-anchor="start" x="774" y="-305" font-family="Helvetica,sans-Serif" font-size="10.00" fill="#000000">+ getMask()</text>
<text text-anchor="start" x="774" y="-294" font-family="Helvetica,sans-Serif" font-size="10.00" fill="#000000">+ getDataOrigin()</text>
<text text-anchor="start" x="774" y="-283" font-family="Helvetica,sans-Serif" font-size="10.00" fill="#000000">+ getName()</text>
<text text-anchor="start" x="774" y="-272" font-family="Helvetica,sans-Serif" font-size="10.00" fill="#000000">+ operator int()</text>
<text text-anchor="start" x="774" y="-261" font-family="Helvetica,sans-Serif" font-size="10.00" fill="#000000">+ DetID()</text>
<text text-anchor="start" x="774" y="-250" font-family="Helvetica,sans-Serif" font-size="10.00" fill="#000000">+ getNDetectors()</text>
<text text-anchor="start" x="774" y="-239" font-family="Helvetica,sans-Serif" font-size="10.00" fill="#000000">+ getName()</text>
<text text-anchor="start" x="774" y="-228" font-family="Helvetica,sans-Serif" font-size="10.00" fill="#000000">+ getMask()</text>
<text text-anchor="start" x="774" y="-217" font-family="Helvetica,sans-Serif" font-size="10.00" fill="#000000">+ getDataOrigin()</text>
<text text-anchor="start" x="774" y="-206" font-family="Helvetica,sans-Serif" font-size="10.00" fill="#000000">+ getMask()</text>
<text text-anchor="start" x="774" y="-195" font-family="Helvetica,sans-Serif" font-size="10.00" fill="#000000">+ getNames()</text>
</a>
</g>
</g>
<!-- Node12&#45;&gt;Node4 -->
<g id="edge8" class="edge">
<title>Node12&#45;&gt;Node4</title>
<path fill="none" stroke="#404040" d="M858.8827,-187.9067C866.3371,-161.3753 874.4827,-134.2883 883,-109 883.7557,-106.7562 884.5508,-104.4781 885.3746,-102.1845"/>
<polygon fill="none" stroke="#404040" points="885.4762,-101.913 883.8337,-94.8914 889.6834,-90.6746 891.3259,-97.6962 885.4762,-101.913"/>
<text text-anchor="middle" x="897" y="-123" font-family="Helvetica,sans-Serif" font-size="10.00" fill="#000000"> #mID</text>
</g>
<!-- Node13 -->
<g id="node10" class="node">
<title>Node13</title>
<polygon fill="none" stroke="#bfbfbf" points="798.5,-854 798.5,-911 839.5,-911 839.5,-854 798.5,-854"/>
<text text-anchor="middle" x="819" y="-899" font-family="Helvetica,sans-Serif" font-size="10.00" fill="#000000">static</text>
<polyline fill="none" stroke="#bfbfbf" points="798.5,-892 839.5,-892 "/>
<text text-anchor="middle" x="819" y="-880" font-family="Helvetica,sans-Serif" font-size="10.00" fill="#000000"> </text>
<polyline fill="none" stroke="#bfbfbf" points="798.5,-873 839.5,-873 "/>
<text text-anchor="middle" x="819" y="-861" font-family="Helvetica,sans-Serif" font-size="10.00" fill="#000000"> </text>
</g>
<!-- Node13&#45;&gt;Node12 -->
<g id="edge9" class="edge">
<title>Node13&#45;&gt;Node12</title>
<path fill="none" stroke="#404040" d="M819,-853.7898C819,-791.952 819,-642.0103 819,-521.4234"/>
<polygon fill="none" stroke="#404040" points="819.0001,-521.1079 815,-515.1079 819,-509.1079 823,-515.1078 819.0001,-521.1079"/>
<text text-anchor="middle" x="846.5" y="-668" font-family="Helvetica,sans-Serif" font-size="10.00" fill="#000000"> +ACO</text>
<text text-anchor="middle" x="846.5" y="-657" font-family="Helvetica,sans-Serif" font-size="10.00" fill="#000000">+NONE</text>
<text text-anchor="middle" x="846.5" y="-646" font-family="Helvetica,sans-Serif" font-size="10.00" fill="#000000">+First</text>
<text text-anchor="middle" x="846.5" y="-635" font-family="Helvetica,sans-Serif" font-size="10.00" fill="#000000">+MCH</text>
<text text-anchor="middle" x="846.5" y="-624" font-family="Helvetica,sans-Serif" font-size="10.00" fill="#000000">+FV0</text>
<text text-anchor="middle" x="846.5" y="-613" font-family="Helvetica,sans-Serif" font-size="10.00" fill="#000000">+FT0</text>
<text text-anchor="middle" x="846.5" y="-602" font-family="Helvetica,sans-Serif" font-size="10.00" fill="#000000">+FDD</text>
<text text-anchor="middle" x="846.5" y="-591" font-family="Helvetica,sans-Serif" font-size="10.00" fill="#000000">+TRD</text>
<text text-anchor="middle" x="846.5" y="-580" font-family="Helvetica,sans-Serif" font-size="10.00" fill="#000000">+nDetectors</text>
<text text-anchor="middle" x="846.5" y="-569" font-family="Helvetica,sans-Serif" font-size="10.00" fill="#000000">+TPC</text>
<text text-anchor="middle" x="846.5" y="-558" font-family="Helvetica,sans-Serif" font-size="10.00" fill="#000000">...</text>
</g>
<!-- Node14 -->
<g id="node11" class="node">
<title>Node14</title>
<polygon fill="none" stroke="#bfbfbf" points="890,-320 890,-377 990,-377 990,-320 890,-320"/>
<text text-anchor="middle" x="940" y="-365" font-family="Helvetica,sans-Serif" font-size="10.00" fill="#000000">vector&lt; TChain * &gt;</text>
<polyline fill="none" stroke="#bfbfbf" points="890,-358 990,-358 "/>
<text text-anchor="middle" x="940" y="-346" font-family="Helvetica,sans-Serif" font-size="10.00" fill="#000000"> </text>
<polyline fill="none" stroke="#bfbfbf" points="890,-339 990,-339 "/>
<text text-anchor="middle" x="940" y="-327" font-family="Helvetica,sans-Serif" font-size="10.00" fill="#000000"> </text>
</g>
<!-- Node14&#45;&gt;Node4 -->
<g id="edge10" class="edge">
<title>Node14&#45;&gt;Node4</title>
<path fill="none" stroke="#404040" d="M937.0836,-319.9945C932.0144,-270.4473 921.487,-167.5504 914.8595,-102.7722"/>
<polygon fill="none" stroke="#404040" points="914.8507,-102.6847 910.2607,-97.123 913.6292,-90.747 918.2192,-96.3087 914.8507,-102.6847"/>
<text text-anchor="middle" x="950.5" y="-123" font-family="Helvetica,sans-Serif" font-size="10.00" fill="#000000"> #mSimChains</text>
</g>
<!-- Node15 -->
<g id="node12" class="node">
<title>Node15</title>
<g id="a_node12"><a xlink:href="../../dc/daa/classo2_1_1dataformats_1_1MCTruthContainer.html" target="_top" xlink:title="{o2::dataformats::MCTruth\lContainer\&lt; o2::MCCompLabel \&gt;\n||+ MCTruthContainer()\l+ MCTruthContainer()\l+ MCTruthContainer()\l+ MCTruthContainer()\l+ ~MCTruthContainer()\l+ operator=()\l+ operator=()\l+ getMCTruthHeader()\l+ getElement()\l+ getIndexedSize()\l+ getNElements()\l+ getTruthArray()\l+ getLabels()\l+ getLabels()\l+ clear()\l+ clear_andfreememory()\l+ addElement()\l+ addElements()\l+ addElements()\l+ addElementRandomAccess()\l+ setFrom()\l+ mergeAtBack()\l+ mergeAtBack()\l+ flatten_to()\l+ restore_from()\l+ print()\l+ inflate()\l+ deflate()\l+ ClassDefNV()\l}">
<polygon fill="none" stroke="#000000" points="1008,-160.5 1008,-536.5 1166,-536.5 1166,-160.5 1008,-160.5"/>
<text text-anchor="start" x="1016" y="-524.5" font-family="Helvetica,sans-Serif" font-size="10.00" fill="#000000">o2::dataformats::MCTruth</text>
<text text-anchor="middle" x="1087" y="-513.5" font-family="Helvetica,sans-Serif" font-size="10.00" fill="#000000">Container&lt; o2::MCCompLabel &gt;</text>
<polyline fill="none" stroke="#000000" points="1008,-506.5 1166,-506.5 "/>
<text text-anchor="middle" x="1087" y="-494.5" font-family="Helvetica,sans-Serif" font-size="10.00" fill="#000000"> </text>
<polyline fill="none" stroke="#000000" points="1008,-487.5 1166,-487.5 "/>
<text text-anchor="start" x="1016" y="-475.5" font-family="Helvetica,sans-Serif" font-size="10.00" fill="#000000">+ MCTruthContainer()</text>
<text text-anchor="start" x="1016" y="-464.5" font-family="Helvetica,sans-Serif" font-size="10.00" fill="#000000">+ MCTruthContainer()</text>
<text text-anchor="start" x="1016" y="-453.5" font-family="Helvetica,sans-Serif" font-size="10.00" fill="#000000">+ MCTruthContainer()</text>
<text text-anchor="start" x="1016" y="-442.5" font-family="Helvetica,sans-Serif" font-size="10.00" fill="#000000">+ MCTruthContainer()</text>
<text text-anchor="start" x="1016" y="-431.5" font-family="Helvetica,sans-Serif" font-size="10.00" fill="#000000">+ ~MCTruthContainer()</text>
<text text-anchor="start" x="1016" y="-420.5" font-family="Helvetica,sans-Serif" font-size="10.00" fill="#000000">+ operator=()</text>
<text text-anchor="start" x="1016" y="-409.5" font-family="Helvetica,sans-Serif" font-size="10.00" fill="#000000">+ operator=()</text>
<text text-anchor="start" x="1016" y="-398.5" font-family="Helvetica,sans-Serif" font-size="10.00" fill="#000000">+ getMCTruthHeader()</text>
<text text-anchor="start" x="1016" y="-387.5" font-family="Helvetica,sans-Serif" font-size="10.00" fill="#000000">+ getElement()</text>
<text text-anchor="start" x="1016" y="-376.5" font-family="Helvetica,sans-Serif" font-size="10.00" fill="#000000">+ getIndexedSize()</text>
<text text-anchor="start" x="1016" y="-365.5" font-family="Helvetica,sans-Serif" font-size="10.00" fill="#000000">+ getNElements()</text>
<text text-anchor="start" x="1016" y="-354.5" font-family="Helvetica,sans-Serif" font-size="10.00" fill="#000000">+ getTruthArray()</text>
<text text-anchor="start" x="1016" y="-343.5" font-family="Helvetica,sans-Serif" font-size="10.00" fill="#000000">+ getLabels()</text>
<text text-anchor="start" x="1016" y="-332.5" font-family="Helvetica,sans-Serif" font-size="10.00" fill="#000000">+ getLabels()</text>
<text text-anchor="start" x="1016" y="-321.5" font-family="Helvetica,sans-Serif" font-size="10.00" fill="#000000">+ clear()</text>
<text text-anchor="start" x="1016" y="-310.5" font-family="Helvetica,sans-Serif" font-size="10.00" fill="#000000">+ clear_andfreememory()</text>
<text text-anchor="start" x="1016" y="-299.5" font-family="Helvetica,sans-Serif" font-size="10.00" fill="#000000">+ addElement()</text>
<text text-anchor="start" x="1016" y="-288.5" font-family="Helvetica,sans-Serif" font-size="10.00" fill="#000000">+ addElements()</text>
<text text-anchor="start" x="1016" y="-277.5" font-family="Helvetica,sans-Serif" font-size="10.00" fill="#000000">+ addElements()</text>
<text text-anchor="start" x="1016" y="-266.5" font-family="Helvetica,sans-Serif" font-size="10.00" fill="#000000">+ addElementRandomAccess()</text>
<text text-anchor="start" x="1016" y="-255.5" font-family="Helvetica,sans-Serif" font-size="10.00" fill="#000000">+ setFrom()</text>
<text text-anchor="start" x="1016" y="-244.5" font-family="Helvetica,sans-Serif" font-size="10.00" fill="#000000">+ mergeAtBack()</text>
<text text-anchor="start" x="1016" y="-233.5" font-family="Helvetica,sans-Serif" font-size="10.00" fill="#000000">+ mergeAtBack()</text>
<text text-anchor="start" x="1016" y="-222.5" font-family="Helvetica,sans-Serif" font-size="10.00" fill="#000000">+ flatten_to()</text>
<text text-anchor="start" x="1016" y="-211.5" font-family="Helvetica,sans-Serif" font-size="10.00" fill="#000000">+ restore_from()</text>
<text text-anchor="start" x="1016" y="-200.5" font-family="Helvetica,sans-Serif" font-size="10.00" fill="#000000">+ print()</text>
<text text-anchor="start" x="1016" y="-189.5" font-family="Helvetica,sans-Serif" font-size="10.00" fill="#000000">+ inflate()</text>
<text text-anchor="start" x="1016" y="-178.5" font-family="Helvetica,sans-Serif" font-size="10.00" fill="#000000">+ deflate()</text>
<text text-anchor="start" x="1016" y="-167.5" font-family="Helvetica,sans-Serif" font-size="10.00" fill="#000000">+ ClassDefNV()</text>
</a>
</g>
</g>
<!-- Node15&#45;&gt;Node4 -->
<g id="edge11" class="edge">
<title>Node15&#45;&gt;Node4</title>
<path fill="none" stroke="#404040" d="M1019.2558,-160.4728C1009.6041,-142.3832 998.8641,-124.8842 987,-109 984.5215,-105.6817 981.8328,-102.4332 978.9939,-99.2701"/>
<polygon fill="none" stroke="#404040" points="978.9666,-99.2417 971.9241,-97.6916 970.6463,-90.5946 977.6888,-92.1447 978.9666,-99.2417"/>
<text text-anchor="middle" x="1042.5" y="-128.5" font-family="Helvetica,sans-Serif" font-size="10.00" fill="#000000"> #mLabels</text>
<text text-anchor="middle" x="1042.5" y="-117.5" font-family="Helvetica,sans-Serif" font-size="10.00" fill="#000000">#mLabelsAccum</text>
</g>
<!-- Node16 -->
<g id="node13" class="node">
<title>Node16</title>
<g id="a_node13"><a xlink:href="../../dc/daa/classo2_1_1dataformats_1_1MCTruthContainer.html" target="_top" xlink:title="A container to hold and manage MC truth information/labels. ">
<polygon fill="none" stroke="#000000" points="1010.5,-694.5 1010.5,-1070.5 1163.5,-1070.5 1163.5,-694.5 1010.5,-694.5"/>
<text text-anchor="start" x="1018.5" y="-1058.5" font-family="Helvetica,sans-Serif" font-size="10.00" fill="#000000">o2::dataformats::MCTruth</text>
<text text-anchor="middle" x="1087" y="-1047.5" font-family="Helvetica,sans-Serif" font-size="10.00" fill="#000000">Container&lt; TruthElement &gt;</text>
<polyline fill="none" stroke="#000000" points="1010.5,-1040.5 1163.5,-1040.5 "/>
<text text-anchor="middle" x="1087" y="-1028.5" font-family="Helvetica,sans-Serif" font-size="10.00" fill="#000000"> </text>
<polyline fill="none" stroke="#000000" points="1010.5,-1021.5 1163.5,-1021.5 "/>
<text text-anchor="start" x="1018.5" y="-1009.5" font-family="Helvetica,sans-Serif" font-size="10.00" fill="#000000">+ MCTruthContainer()</text>
<text text-anchor="start" x="1018.5" y="-998.5" font-family="Helvetica,sans-Serif" font-size="10.00" fill="#000000">+ ~MCTruthContainer()</text>
<text text-anchor="start" x="1018.5" y="-987.5" font-family="Helvetica,sans-Serif" font-size="10.00" fill="#000000">+ MCTruthContainer()</text>
<text text-anchor="start" x="1018.5" y="-976.5" font-family="Helvetica,sans-Serif" font-size="10.00" fill="#000000">+ MCTruthContainer()</text>
<text text-anchor="start" x="1018.5" y="-965.5" font-family="Helvetica,sans-Serif" font-size="10.00" fill="#000000">+ MCTruthContainer()</text>
<text text-anchor="start" x="1018.5" y="-954.5" font-family="Helvetica,sans-Serif" font-size="10.00" fill="#000000">+ operator=()</text>
<text text-anchor="start" x="1018.5" y="-943.5" font-family="Helvetica,sans-Serif" font-size="10.00" fill="#000000">+ operator=()</text>
<text text-anchor="start" x="1018.5" y="-932.5" font-family="Helvetica,sans-Serif" font-size="10.00" fill="#000000">+ getMCTruthHeader()</text>
<text text-anchor="start" x="1018.5" y="-921.5" font-family="Helvetica,sans-Serif" font-size="10.00" fill="#000000">+ getElement()</text>
<text text-anchor="start" x="1018.5" y="-910.5" font-family="Helvetica,sans-Serif" font-size="10.00" fill="#000000">+ getIndexedSize()</text>
<text text-anchor="start" x="1018.5" y="-899.5" font-family="Helvetica,sans-Serif" font-size="10.00" fill="#000000">+ getNElements()</text>
<text text-anchor="start" x="1018.5" y="-888.5" font-family="Helvetica,sans-Serif" font-size="10.00" fill="#000000">+ getTruthArray()</text>
<text text-anchor="start" x="1018.5" y="-877.5" font-family="Helvetica,sans-Serif" font-size="10.00" fill="#000000">+ getLabels()</text>
<text text-anchor="start" x="1018.5" y="-866.5" font-family="Helvetica,sans-Serif" font-size="10.00" fill="#000000">+ getLabels()</text>
<text text-anchor="start" x="1018.5" y="-855.5" font-family="Helvetica,sans-Serif" font-size="10.00" fill="#000000">+ clear()</text>
<text text-anchor="start" x="1018.5" y="-844.5" font-family="Helvetica,sans-Serif" font-size="10.00" fill="#000000">+ clear_andfreememory()</text>
<text text-anchor="start" x="1018.5" y="-833.5" font-family="Helvetica,sans-Serif" font-size="10.00" fill="#000000">+ addElement()</text>
<text text-anchor="start" x="1018.5" y="-822.5" font-family="Helvetica,sans-Serif" font-size="10.00" fill="#000000">+ addElements()</text>
<text text-anchor="start" x="1018.5" y="-811.5" font-family="Helvetica,sans-Serif" font-size="10.00" fill="#000000">+ addElements()</text>
<text text-anchor="start" x="1018.5" y="-800.5" font-family="Helvetica,sans-Serif" font-size="10.00" fill="#000000">+ addElementRandomAccess()</text>
<text text-anchor="start" x="1018.5" y="-789.5" font-family="Helvetica,sans-Serif" font-size="10.00" fill="#000000">+ setFrom()</text>
<text text-anchor="start" x="1018.5" y="-778.5" font-family="Helvetica,sans-Serif" font-size="10.00" fill="#000000">+ mergeAtBack()</text>
<text text-anchor="start" x="1018.5" y="-767.5" font-family="Helvetica,sans-Serif" font-size="10.00" fill="#000000">+ mergeAtBack()</text>
<text text-anchor="start" x="1018.5" y="-756.5" font-family="Helvetica,sans-Serif" font-size="10.00" fill="#000000">+ flatten_to()</text>
<text text-anchor="start" x="1018.5" y="-745.5" font-family="Helvetica,sans-Serif" font-size="10.00" fill="#000000">+ restore_from()</text>
<text text-anchor="start" x="1018.5" y="-734.5" font-family="Helvetica,sans-Serif" font-size="10.00" fill="#000000">+ print()</text>
<text text-anchor="start" x="1018.5" y="-723.5" font-family="Helvetica,sans-Serif" font-size="10.00" fill="#000000">+ inflate()</text>
<text text-anchor="start" x="1018.5" y="-712.5" font-family="Helvetica,sans-Serif" font-size="10.00" fill="#000000">+ deflate()</text>
<text text-anchor="start" x="1018.5" y="-701.5" font-family="Helvetica,sans-Serif" font-size="10.00" fill="#000000">+ ClassDefNV()</text>
</a>
</g>
</g>
<!-- Node16&#45;&gt;Node15 -->
<g id="edge12" class="edge">
<title>Node16&#45;&gt;Node15</title>
<path fill="none" stroke="#ffa500" d="M1087,-684.0087C1087,-635.8633 1087,-584.5306 1087,-536.8682"/>
<polygon fill="#ffa500" stroke="#ffa500" points="1083.5001,-684.2315 1087,-694.2316 1090.5001,-684.2316 1083.5001,-684.2315"/>
<text text-anchor="middle" x="1138.5" y="-613" font-family="Helvetica,sans-Serif" font-size="10.00" fill="#000000"> &lt; o2::MCCompLabel &gt;</text>
</g>
<!-- Node17 -->
<g id="node14" class="node">
<title>Node17</title>
<polygon fill="none" stroke="#bfbfbf" points="1183.5,-320 1183.5,-377 1212.5,-377 1212.5,-320 1183.5,-320"/>
<text text-anchor="middle" x="1198" y="-365" font-family="Helvetica,sans-Serif" font-size="10.00" fill="#000000">int</text>
<polyline fill="none" stroke="#bfbfbf" points="1183.5,-358 1212.5,-358 "/>
<text text-anchor="middle" x="1198" y="-346" font-family="Helvetica,sans-Serif" font-size="10.00" fill="#000000"> </text>
<polyline fill="none" stroke="#bfbfbf" points="1183.5,-339 1212.5,-339 "/>
<text text-anchor="middle" x="1198" y="-327" font-family="Helvetica,sans-Serif" font-size="10.00" fill="#000000"> </text>
</g>
<!-- Node17&#45;&gt;Node4 -->
<g id="edge13" class="edge">
<title>Node17&#45;&gt;Node4</title>
<path fill="none" stroke="#404040" d="M1202.0637,-319.8858C1206.1141,-280.3817 1207.7043,-208.5273 1175,-160 1137.935,-105.0022 1068.4408,-76.2816 1009.779,-61.3607"/>
<polygon fill="none" stroke="#404040" points="1009.4869,-61.2901 1002.7148,-63.7676 997.8232,-58.4692 1004.5954,-55.9918 1009.4869,-61.2901"/>
<text text-anchor="middle" x="1196.5" y="-123" font-family="Helvetica,sans-Serif" font-size="10.00" fill="#000000"> #mFixMC2ROF</text>
</g>
<!-- Node18 -->
<g id="node15" class="node">
<title>Node18</title>
<polygon fill="none" stroke="#bfbfbf" points="1231,-314.5 1231,-382.5 1325,-382.5 1325,-314.5 1231,-314.5"/>
<text text-anchor="start" x="1239" y="-370.5" font-family="Helvetica,sans-Serif" font-size="10.00" fill="#000000">vector&lt; o2::itsmft</text>
<text text-anchor="middle" x="1278" y="-359.5" font-family="Helvetica,sans-Serif" font-size="10.00" fill="#000000">::Hit &gt; *</text>
<polyline fill="none" stroke="#bfbfbf" points="1231,-352.5 1325,-352.5 "/>
<text text-anchor="middle" x="1278" y="-340.5" font-family="Helvetica,sans-Serif" font-size="10.00" fill="#000000"> </text>
<polyline fill="none" stroke="#bfbfbf" points="1231,-333.5 1325,-333.5 "/>
<text text-anchor="middle" x="1278" y="-321.5" font-family="Helvetica,sans-Serif" font-size="10.00" fill="#000000"> </text>
</g>
<!-- Node18&#45;&gt;Node4 -->
<g id="edge14" class="edge">
<title>Node18&#45;&gt;Node4</title>
<path fill="none" stroke="#404040" d="M1283.1171,-314.2167C1288.7554,-262.3135 1290.8447,-164.0252 1237,-109 1205.8913,-77.2093 1094.3282,-60.7186 1009.8784,-52.6059"/>
<polygon fill="none" stroke="#404040" points="1009.8394,-52.6024 1003.4951,-56.0303 997.8908,-51.4925 1004.2351,-48.0646 1009.8394,-52.6024"/>
<text text-anchor="middle" x="1280" y="-123" font-family="Helvetica,sans-Serif" font-size="10.00" fill="#000000"> #mHitsP</text>
</g>
<!-- Node19 -->
<g id="node16" class="node">
<title>Node19</title>
<polygon fill="none" stroke="#bfbfbf" points="1343.5,-314.5 1343.5,-382.5 1448.5,-382.5 1448.5,-314.5 1343.5,-314.5"/>
<text text-anchor="start" x="1351.5" y="-370.5" font-family="Helvetica,sans-Serif" font-size="10.00" fill="#000000">vector&lt; o2::itsmft</text>
<text text-anchor="middle" x="1396" y="-359.5" font-family="Helvetica,sans-Serif" font-size="10.00" fill="#000000">::MC2ROFRecord &gt;</text>
<polyline fill="none" stroke="#bfbfbf" points="1343.5,-352.5 1448.5,-352.5 "/>
<text text-anchor="middle" x="1396" y="-340.5" font-family="Helvetica,sans-Serif" font-size="10.00" fill="#000000"> </text>
<polyline fill="none" stroke="#bfbfbf" points="1343.5,-333.5 1448.5,-333.5 "/>
<text text-anchor="middle" x="1396" y="-321.5" font-family="Helvetica,sans-Serif" font-size="10.00" fill="#000000"> </text>
</g>
<!-- Node19&#45;&gt;Node4 -->
<g id="edge15" class="edge">
<title>Node19&#45;&gt;Node4</title>
<path fill="none" stroke="#404040" d="M1394.4869,-314.2735C1390.0297,-260.0872 1372.6175,-155.8959 1305,-109 1258.4735,-76.7316 1111.2325,-59.8344 1010.0252,-51.8014"/>
<polygon fill="none" stroke="#404040" points="1009.8852,-51.7907 1003.5946,-55.3161 997.9209,-50.8653 1004.2115,-47.3399 1009.8852,-51.7907"/>
<text text-anchor="middle" x="1401.5" y="-123" font-family="Helvetica,sans-Serif" font-size="10.00" fill="#000000"> #mMC2ROFRecordsAccum</text>
</g>
<!-- Node20 -->
<g id="node17" class="node">
<title>Node20</title>
<polygon fill="none" stroke="#bfbfbf" points="1475.5,-320 1475.5,-377 1510.5,-377 1510.5,-320 1475.5,-320"/>
<text text-anchor="middle" x="1493" y="-365" font-family="Helvetica,sans-Serif" font-size="10.00" fill="#000000">bool</text>
<polyline fill="none" stroke="#bfbfbf" points="1475.5,-358 1510.5,-358 "/>
<text text-anchor="middle" x="1493" y="-346" font-family="Helvetica,sans-Serif" font-size="10.00" fill="#000000"> </text>
<polyline fill="none" stroke="#bfbfbf" points="1475.5,-339 1510.5,-339 "/>
<text text-anchor="middle" x="1493" y="-327" font-family="Helvetica,sans-Serif" font-size="10.00" fill="#000000"> </text>
</g>
<!-- Node20&#45;&gt;Node4 -->
<g id="edge16" class="edge">
<title>Node20&#45;&gt;Node4</title>
<path fill="none" stroke="#404040" d="M1500.2441,-319.822C1511.0515,-269.5133 1524.6286,-165.3585 1469,-109 1437.4001,-76.9855 1162.2327,-58.1988 1009.7319,-50.1557"/>
<polygon fill="none" stroke="#404040" points="1009.6031,-50.1491 1003.4035,-53.8321 997.6193,-49.5258 1003.819,-45.8428 1009.6031,-50.1491"/>
<text text-anchor="middle" x="1528" y="-134" font-family="Helvetica,sans-Serif" font-size="10.00" fill="#000000"> #mWithMCTruth</text>
<text text-anchor="middle" x="1528" y="-123" font-family="Helvetica,sans-Serif" font-size="10.00" fill="#000000">#mFinished</text>
<text text-anchor="middle" x="1528" y="-112" font-family="Helvetica,sans-Serif" font-size="10.00" fill="#000000">#mDisableQED</text>
</g>
<!-- Node21 -->
<g id="node18" class="node">
<title>Node21</title>
<polygon fill="none" stroke="#bfbfbf" points="1545,-314.5 1545,-382.5 1639,-382.5 1639,-314.5 1545,-314.5"/>
<text text-anchor="start" x="1553" y="-370.5" font-family="Helvetica,sans-Serif" font-size="10.00" fill="#000000">vector&lt; o2::itsmft</text>
<text text-anchor="middle" x="1592" y="-359.5" font-family="Helvetica,sans-Serif" font-size="10.00" fill="#000000">::Hit &gt;</text>
<polyline fill="none" stroke="#bfbfbf" points="1545,-352.5 1639,-352.5 "/>
<text text-anchor="middle" x="1592" y="-340.5" font-family="Helvetica,sans-Serif" font-size="10.00" fill="#000000"> </text>
<polyline fill="none" stroke="#bfbfbf" points="1545,-333.5 1639,-333.5 "/>
<text text-anchor="middle" x="1592" y="-321.5" font-family="Helvetica,sans-Serif" font-size="10.00" fill="#000000"> </text>
</g>
<!-- Node21&#45;&gt;Node4 -->
<g id="edge17" class="edge">
<title>Node21&#45;&gt;Node4</title>
<path fill="none" stroke="#404040" d="M1600.8065,-314.3904C1611.9923,-262.2637 1623.9183,-163.1437 1570,-109 1531.3023,-70.1405 1184.9482,-53.9664 1009.669,-48.223"/>
<polygon fill="none" stroke="#404040" points="1009.6012,-48.2209 1003.4758,-52.0261 997.6074,-47.8354 1003.7328,-44.0302 1009.6012,-48.2209"/>
<text text-anchor="middle" x="1608.5" y="-123" font-family="Helvetica,sans-Serif" font-size="10.00" fill="#000000"> #mHits</text>
</g>
</g>
</svg>
        <g id="navigator" transform="translate(0 0)" fill="#404254">
                <rect fill="#f2f5e9" fill-opacity="0.5" stroke="#606060" stroke-width=".5" x="0" y="0" width="60" height="60"/>
                <use id="zoomplus" xlink:href="#zoomPlus" x="17" y="9" onmousedown="handleZoom(evt,'in')"/>
                <use id="zoomminus" xlink:href="#zoomMin" x="42" y="9" onmousedown="handleZoom(evt,'out')"/>
                <use id="reset" xlink:href="#resetDef" x="30" y="36" onmousedown="handleReset()"/>
                <g id="arrowUp" xlink:href="#dirArrow" transform="translate(30 24)" onmousedown="handlePan(0,-1)">
                  <use xlink:href="#rim" fill="#404040">
                        <set attributeName="fill" to="#808080" begin="arrowUp.mouseover" end="arrowUp.mouseout"/>
                  </use>
                  <path fill="none" stroke="white" stroke-width="1.5" d="M0,-3.0v7 M-2.5,-0.5L0,-3.0L2.5,-0.5"/>
                </g>
                <g id="arrowRight" xlink:href="#dirArrow" transform="rotate(90) translate(36 -43)" onmousedown="handlePan(1,0)">
                  <use xlink:href="#rim" fill="#404040">
                        <set attributeName="fill" to="#808080" begin="arrowRight.mouseover" end="arrowRight.mouseout"/>
                  </use>
                  <path fill="none" stroke="white" stroke-width="1.5" d="M0,-3.0v7 M-2.5,-0.5L0,-3.0L2.5,-0.5"/>
                </g>
                <g id="arrowDown" xlink:href="#dirArrow" transform="rotate(180) translate(-30 -48)" onmousedown="handlePan(0,1)">
                  <use xlink:href="#rim" fill="#404040">
                        <set attributeName="fill" to="#808080" begin="arrowDown.mouseover" end="arrowDown.mouseout"/>
                  </use>
                  <path fill="none" stroke="white" stroke-width="1.5" d="M0,-3.0v7 M-2.5,-0.5L0,-3.0L2.5,-0.5"/>
                </g>
                <g id="arrowLeft" xlink:href="#dirArrow" transform="rotate(270) translate(-36 17)" onmousedown="handlePan(-1,0)">
                  <use xlink:href="#rim" fill="#404040">
                        <set attributeName="fill" to="#808080" begin="arrowLeft.mouseover" end="arrowLeft.mouseout"/>
                  </use>
                  <path fill="none" stroke="white" stroke-width="1.5" d="M0,-3.0v7 M-2.5,-0.5L0,-3.0L2.5,-0.5"/>
                </g>
        </g>
        <svg viewBox="0 0 15 15" width="100%" height="30px" preserveAspectRatio="xMaxYMin meet">
         <g id="arrow_out" transform="scale(0.3 0.3)">
          <a xlink:href="classo2_1_1itsmft_1_1ITSMFTDPLDigitizerTask__coll__graph_org.svg" target="_base">
           <rect id="button" ry="5" rx="5" y="6" x="6" height="38" width="38"
                fill="#f2f5e9" fill-opacity="0.5" stroke="#606060" stroke-width="1.0"/>
           <path id="arrow"
             d="M 11.500037,31.436501 C 11.940474,20.09759 22.043105,11.32322 32.158766,21.979434 L 37.068811,17.246167 C 37.068811,17.246167 37.088388,32 37.088388,32 L 22.160133,31.978069 C 22.160133,31.978069 26.997745,27.140456 26.997745,27.140456 C 18.528582,18.264221 13.291696,25.230495 11.500037,31.436501 z"
             style="fill:#404040;"/>
          </a>
         </g>
        </svg>
</svg>
