<?xml version="1.0" encoding="UTF-8" standalone="no"?>
<!DOCTYPE svg PUBLIC "-//W3C//DTD SVG 1.1//EN"
 "http://www.w3.org/Graphics/SVG/1.1/DTD/svg11.dtd">
<!-- Generated by graphviz version 2.40.1 (20161225.0304)
 -->
<!-- Title: o2::its::GPU::DeviceProperties Pages: 1 -->
<svg width="349pt" height="375pt"
 viewBox="0.00 0.00 348.50 375.00" xmlns="http://www.w3.org/2000/svg" xmlns:xlink="http://www.w3.org/1999/xlink">
<g id="graph0" class="graph" transform="scale(1 1) rotate(0) translate(4 371)">
<title>o2::its::GPU::DeviceProperties</title>
<!-- Node1 -->
<g id="node1" class="node">
<title>Node1</title>
<polygon fill="#bfbfbf" stroke="#000000" points="61.5,-.5 61.5,-57.5 213.5,-57.5 213.5,-.5 61.5,-.5"/>
<text text-anchor="middle" x="137.5" y="-45.5" font-family="Helvetica,sans-Serif" font-size="10.00" fill="#000000">o2::its::GPU::DeviceProperties</text>
<polyline fill="none" stroke="#000000" points="61.5,-38.5 213.5,-38.5 "/>
<text text-anchor="middle" x="137.5" y="-26.5" font-family="Helvetica,sans-Serif" font-size="10.00" fill="#000000"> </text>
<polyline fill="none" stroke="#000000" points="61.5,-19.5 213.5,-19.5 "/>
<text text-anchor="middle" x="137.5" y="-7.5" font-family="Helvetica,sans-Serif" font-size="10.00" fill="#000000"> </text>
</g>
<!-- Node2 -->
<g id="node2" class="node">
<title>Node2</title>
<polygon fill="none" stroke="#bfbfbf" points="0,-182.5 0,-239.5 29,-239.5 29,-182.5 0,-182.5"/>
<text text-anchor="middle" x="14.5" y="-227.5" font-family="Helvetica,sans-Serif" font-size="10.00" fill="#000000">int</text>
<polyline fill="none" stroke="#bfbfbf" points="0,-220.5 29,-220.5 "/>
<text text-anchor="middle" x="14.5" y="-208.5" font-family="Helvetica,sans-Serif" font-size="10.00" fill="#000000"> </text>
<polyline fill="none" stroke="#bfbfbf" points="0,-201.5 29,-201.5 "/>
<text text-anchor="middle" x="14.5" y="-189.5" font-family="Helvetica,sans-Serif" font-size="10.00" fill="#000000"> </text>
</g>
<!-- Node2&#45;&gt;Node1 -->
<g id="edge1" class="edge">
<title>Node2&#45;&gt;Node1</title>
<path fill="none" stroke="#404040" d="M11.0223,-182.4465C8.9969,-152.8781 10.4361,-106.7787 33.5,-76 38.4095,-69.4483 44.4436,-63.7871 51.1114,-58.8996"/>
<polygon fill="none" stroke="#404040" points="51.2213,-58.8281 54.0659,-52.2018 61.2766,-52.279 58.432,-58.9053 51.2213,-58.8281"/>
<text text-anchor="middle" x="83.5" y="-156" font-family="Helvetica,sans-Serif" font-size="10.00" fill="#000000"> +busWidth</text>
<text text-anchor="middle" x="83.5" y="-145" font-family="Helvetica,sans-Serif" font-size="10.00" fill="#000000">+warpSize</text>
<text text-anchor="middle" x="83.5" y="-134" font-family="Helvetica,sans-Serif" font-size="10.00" fill="#000000">+name</text>
<text text-anchor="middle" x="83.5" y="-123" font-family="Helvetica,sans-Serif" font-size="10.00" fill="#000000">+cudaCores</text>
<text text-anchor="middle" x="83.5" y="-112" font-family="Helvetica,sans-Serif" font-size="10.00" fill="#000000">+maxBlocksPerSM</text>
<text text-anchor="middle" x="83.5" y="-101" font-family="Helvetica,sans-Serif" font-size="10.00" fill="#000000">+maxThreadsPerBlock</text>
<text text-anchor="middle" x="83.5" y="-90" font-family="Helvetica,sans-Serif" font-size="10.00" fill="#000000">+gpuProcessors</text>
<text text-anchor="middle" x="83.5" y="-79" font-family="Helvetica,sans-Serif" font-size="10.00" fill="#000000">+streamProcessors</text>
</g>
<!-- Node3 -->
<g id="node3" class="node">
<title>Node3</title>
<g id="a_node3"><a xlink:href="../../d7/d63/classlong.html" target="_top" xlink:title="{long\n||}">
<polygon fill="none" stroke="#000000" points="120,-182.5 120,-239.5 155,-239.5 155,-182.5 120,-182.5"/>
<text text-anchor="middle" x="137.5" y="-227.5" font-family="Helvetica,sans-Serif" font-size="10.00" fill="#000000">long</text>
<polyline fill="none" stroke="#000000" points="120,-220.5 155,-220.5 "/>
<text text-anchor="middle" x="137.5" y="-208.5" font-family="Helvetica,sans-Serif" font-size="10.00" fill="#000000"> </text>
<polyline fill="none" stroke="#000000" points="120,-201.5 155,-201.5 "/>
<text text-anchor="middle" x="137.5" y="-189.5" font-family="Helvetica,sans-Serif" font-size="10.00" fill="#000000"> </text>
</a>
</g>
</g>
<!-- Node3&#45;&gt;Node1 -->
<g id="edge2" class="edge">
<title>Node3&#45;&gt;Node1</title>
<path fill="none" stroke="#404040" d="M137.5,-182.1616C137.5,-151.943 137.5,-104.2065 137.5,-70.0602"/>
<polygon fill="none" stroke="#404040" points="137.5001,-69.7035 133.5,-63.7036 137.5,-57.7035 141.5,-63.7035 137.5001,-69.7035"/>
<text text-anchor="middle" x="187" y="-145" font-family="Helvetica,sans-Serif" font-size="10.00" fill="#000000"> +globalMemorySize</text>
<text text-anchor="middle" x="187" y="-134" font-family="Helvetica,sans-Serif" font-size="10.00" fill="#000000">+registersPerBlock</text>
<text text-anchor="middle" x="187" y="-123" font-family="Helvetica,sans-Serif" font-size="10.00" fill="#000000">+l2CacheSize</text>
<text text-anchor="middle" x="187" y="-112" font-family="Helvetica,sans-Serif" font-size="10.00" fill="#000000">+constantMemorySize</text>
<text text-anchor="middle" x="187" y="-101" font-family="Helvetica,sans-Serif" font-size="10.00" fill="#000000">+sharedMemorySize</text>
<text text-anchor="middle" x="187" y="-90" font-family="Helvetica,sans-Serif" font-size="10.00" fill="#000000">+maxClockRate</text>
</g>
<!-- Node4 -->
<g id="node4" class="node">
<title>Node4</title>
<g id="a_node4"><a xlink:href="../../d3/db3/structdim3.html" target="_top" xlink:title="{dim3\n||}">
<polygon fill="none" stroke="#000000" points="240.5,-182.5 240.5,-239.5 278.5,-239.5 278.5,-182.5 240.5,-182.5"/>
<text text-anchor="middle" x="259.5" y="-227.5" font-family="Helvetica,sans-Serif" font-size="10.00" fill="#000000">dim3</text>
<polyline fill="none" stroke="#000000" points="240.5,-220.5 278.5,-220.5 "/>
<text text-anchor="middle" x="259.5" y="-208.5" font-family="Helvetica,sans-Serif" font-size="10.00" fill="#000000"> </text>
<polyline fill="none" stroke="#000000" points="240.5,-201.5 278.5,-201.5 "/>
<text text-anchor="middle" x="259.5" y="-189.5" font-family="Helvetica,sans-Serif" font-size="10.00" fill="#000000"> </text>
</a>
</g>
</g>
<!-- Node4&#45;&gt;Node1 -->
<g id="edge3" class="edge">
<title>Node4&#45;&gt;Node1</title>
<path fill="none" stroke="#404040" d="M262.142,-182.4555C263.3443,-152.8946 260.7451,-106.8014 237.5,-76 233.5278,-70.7365 228.8192,-66.0391 223.6438,-61.8507"/>
<polygon fill="none" stroke="#404040" points="223.633,-61.843 216.4261,-61.5963 213.8819,-54.8489 221.0888,-55.0956 223.633,-61.843"/>
<text text-anchor="middle" x="301" y="-123" font-family="Helvetica,sans-Serif" font-size="10.00" fill="#000000"> +maxGridDim</text>
<text text-anchor="middle" x="301" y="-112" font-family="Helvetica,sans-Serif" font-size="10.00" fill="#000000">+maxThreadsDim</text>
</g>
<!-- Node5 -->
<g id="node5" class="node">
<title>Node5</title>
<polygon fill="none" stroke="#bfbfbf" points="231.5,-309.5 231.5,-366.5 287.5,-366.5 287.5,-309.5 231.5,-309.5"/>
<text text-anchor="middle" x="259.5" y="-354.5" font-family="Helvetica,sans-Serif" font-size="10.00" fill="#000000">unsigned</text>
<polyline fill="none" stroke="#bfbfbf" points="231.5,-347.5 287.5,-347.5 "/>
<text text-anchor="middle" x="259.5" y="-335.5" font-family="Helvetica,sans-Serif" font-size="10.00" fill="#000000"> </text>
<polyline fill="none" stroke="#bfbfbf" points="231.5,-328.5 287.5,-328.5 "/>
<text text-anchor="middle" x="259.5" y="-316.5" font-family="Helvetica,sans-Serif" font-size="10.00" fill="#000000"> </text>
</g>
<!-- Node5&#45;&gt;Node4 -->
<g id="edge4" class="edge">
<title>Node5&#45;&gt;Node4</title>
<path fill="none" stroke="#404040" d="M259.5,-309.4987C259.5,-292.5423 259.5,-270.7438 259.5,-251.9661"/>
<polygon fill="none" stroke="#404040" points="259.5001,-251.8456 255.5,-245.8456 259.5,-239.8456 263.5,-245.8455 259.5001,-251.8456"/>
<text text-anchor="middle" x="267" y="-283" font-family="Helvetica,sans-Serif" font-size="10.00" fill="#000000"> +x</text>
<text text-anchor="middle" x="267" y="-272" font-family="Helvetica,sans-Serif" font-size="10.00" fill="#000000">+y</text>
<text text-anchor="middle" x="267" y="-261" font-family="Helvetica,sans-Serif" font-size="10.00" fill="#000000">+z</text>
</g>
</g>
</svg>
