<?xml version="1.0" encoding="UTF-8" standalone="no"?>
<!DOCTYPE svg PUBLIC "-//W3C//DTD SVG 1.1//EN"
 "http://www.w3.org/Graphics/SVG/1.1/DTD/svg11.dtd">
<!-- Generated by graphviz version 2.40.1 (20161225.0304)
 -->
<!-- Title: /home/runner/work/AliceO2/AliceO2/GPU/TPCFastTransformation/TPCFastTransformQA.h Pages: 1 -->
<svg width="558pt" height="218pt"
 viewBox="0.00 0.00 558.00 218.00" xmlns="http://www.w3.org/2000/svg" xmlns:xlink="http://www.w3.org/1999/xlink">
<g id="graph0" class="graph" transform="scale(1 1) rotate(0) translate(4 214)">
<title>/home/runner/work/AliceO2/AliceO2/GPU/TPCFastTransformation/TPCFastTransformQA.h</title>
<!-- Node0 -->
<g id="node1" class="node">
<title>Node0</title>
<polygon fill="#bfbfbf" stroke="#000000" points="235.5,-168.5 235.5,-209.5 422.5,-209.5 422.5,-168.5 235.5,-168.5"/>
<text text-anchor="start" x="243.5" y="-197.5" font-family="Helvetica,sans-Serif" font-size="10.00" fill="#000000">/home/runner/work/AliceO2</text>
<text text-anchor="start" x="243.5" y="-186.5" font-family="Helvetica,sans-Serif" font-size="10.00" fill="#000000">/AliceO2/GPU/TPCFastTransformation</text>
<text text-anchor="middle" x="329" y="-175.5" font-family="Helvetica,sans-Serif" font-size="10.00" fill="#000000">/TPCFastTransformQA.h</text>
</g>
<!-- Node1 -->
<g id="node2" class="node">
<title>Node1</title>
<g id="a_node2"><a xlink:href="../../df/d21/GPUCommonDef_8h.html" target="_top" xlink:title="GPUCommonDef.h">
<polygon fill="none" stroke="#000000" points="91,-56.5 91,-75.5 193,-75.5 193,-56.5 91,-56.5"/>
<text text-anchor="middle" x="142" y="-63.5" font-family="Helvetica,sans-Serif" font-size="10.00" fill="#000000">GPUCommonDef.h</text>
</a>
</g>
</g>
<!-- Node0&#45;&gt;Node1 -->
<g id="edge1" class="edge">
<title>Node0&#45;&gt;Node1</title>
<path fill="none" stroke="#191970" d="M290.7431,-168.3978C272.0977,-157.9998 249.5375,-144.8829 230,-132 205.749,-116.009 179.2487,-95.7199 161.7338,-81.8859"/>
<polygon fill="#191970" stroke="#191970" points="163.9116,-79.146 153.9066,-75.6604 159.5542,-84.6245 163.9116,-79.146"/>
</g>
<!-- Node4 -->
<g id="node5" class="node">
<title>Node4</title>
<g id="a_node5"><a xlink:href="../../d5/d2a/TPCFastTransformManager_8h.html" target="_top" xlink:title="Definition of TPCFastTransformManager class. ">
<polygon fill="none" stroke="#000000" points="256,-112.5 256,-131.5 402,-131.5 402,-112.5 256,-112.5"/>
<text text-anchor="middle" x="329" y="-119.5" font-family="Helvetica,sans-Serif" font-size="10.00" fill="#000000">TPCFastTransformManager.h</text>
</a>
</g>
</g>
<!-- Node0&#45;&gt;Node4 -->
<g id="edge4" class="edge">
<title>Node0&#45;&gt;Node4</title>
<path fill="none" stroke="#191970" d="M329,-168.168C329,-159.8226 329,-150.2471 329,-141.9879"/>
<polygon fill="#191970" stroke="#191970" points="332.5001,-141.7804 329,-131.7805 325.5001,-141.7805 332.5001,-141.7804"/>
</g>
<!-- Node5 -->
<g id="node6" class="node">
<title>Node5</title>
<polygon fill="none" stroke="#bfbfbf" points="211,-56.5 211,-75.5 255,-75.5 255,-56.5 211,-56.5"/>
<text text-anchor="middle" x="233" y="-63.5" font-family="Helvetica,sans-Serif" font-size="10.00" fill="#000000">cmath</text>
</g>
<!-- Node0&#45;&gt;Node5 -->
<g id="edge10" class="edge">
<title>Node0&#45;&gt;Node5</title>
<path fill="none" stroke="#191970" d="M281.5354,-168.4963C266.1803,-159.5132 250.6431,-147.4385 241,-132 232.4118,-118.2504 230.8393,-99.7213 231.1693,-85.7961"/>
<polygon fill="#191970" stroke="#191970" points="234.6645,-85.979 231.7442,-75.7945 227.676,-85.5772 234.6645,-85.979"/>
</g>
<!-- Node6 -->
<g id="node7" class="node">
<title>Node6</title>
<polygon fill="none" stroke="#bfbfbf" points="273,-56.5 273,-75.5 329,-75.5 329,-56.5 273,-56.5"/>
<text text-anchor="middle" x="301" y="-63.5" font-family="Helvetica,sans-Serif" font-size="10.00" fill="#000000">Rtypes.h</text>
</g>
<!-- Node0&#45;&gt;Node6 -->
<g id="edge12" class="edge">
<title>Node0&#45;&gt;Node6</title>
<path fill="none" stroke="#191970" d="M283.7091,-168.4144C269.3011,-159.4236 255.0319,-147.365 247,-132 236.9211,-112.7192 256.2074,-93.826 274.4667,-81.2288"/>
<polygon fill="#191970" stroke="#191970" points="276.715,-83.9432 283.2148,-75.5763 272.916,-78.0637 276.715,-83.9432"/>
</g>
<!-- Node7 -->
<g id="node8" class="node">
<title>Node7</title>
<polygon fill="none" stroke="#bfbfbf" points="347,-56.5 347,-75.5 403,-75.5 403,-56.5 347,-56.5"/>
<text text-anchor="middle" x="375" y="-63.5" font-family="Helvetica,sans-Serif" font-size="10.00" fill="#000000">TString.h</text>
</g>
<!-- Node0&#45;&gt;Node7 -->
<g id="edge13" class="edge">
<title>Node0&#45;&gt;Node7</title>
<path fill="none" stroke="#191970" d="M374.2909,-168.4144C388.6989,-159.4236 402.9681,-147.365 411,-132 419.7949,-115.1755 406.974,-96.1631 394.2613,-82.8805"/>
<polygon fill="#191970" stroke="#191970" points="396.5648,-80.2386 386.953,-75.7818 391.6876,-85.2599 396.5648,-80.2386"/>
</g>
<!-- Node8 -->
<g id="node9" class="node">
<title>Node8</title>
<polygon fill="none" stroke="#bfbfbf" points="421.5,-56.5 421.5,-75.5 522.5,-75.5 522.5,-56.5 421.5,-56.5"/>
<text text-anchor="middle" x="472" y="-63.5" font-family="Helvetica,sans-Serif" font-size="10.00" fill="#000000">AliTPCTransform.h</text>
</g>
<!-- Node0&#45;&gt;Node8 -->
<g id="edge14" class="edge">
<title>Node0&#45;&gt;Node8</title>
<path fill="none" stroke="#191970" d="M373.2505,-168.2413C390.8343,-158.7117 410.5174,-146.3281 426,-132 440.8252,-118.2802 453.581,-98.9977 461.8739,-84.8165"/>
<polygon fill="#191970" stroke="#191970" points="465.013,-86.3751 466.8728,-75.9448 458.9145,-82.9388 465.013,-86.3751"/>
</g>
<!-- Node9 -->
<g id="node10" class="node">
<title>Node9</title>
<polygon fill="none" stroke="#bfbfbf" points="496,-112.5 496,-131.5 550,-131.5 550,-112.5 496,-112.5"/>
<text text-anchor="middle" x="523" y="-119.5" font-family="Helvetica,sans-Serif" font-size="10.00" fill="#000000">iostream</text>
</g>
<!-- Node0&#45;&gt;Node9 -->
<g id="edge11" class="edge">
<title>Node0&#45;&gt;Node9</title>
<path fill="none" stroke="#191970" d="M388.5248,-168.4425C420.3676,-157.4452 458.5775,-144.249 486.1157,-134.7384"/>
<polygon fill="#191970" stroke="#191970" points="487.4373,-137.9849 495.7469,-131.4122 485.1522,-131.3684 487.4373,-137.9849"/>
</g>
<!-- Node2 -->
<g id="node3" class="node">
<title>Node2</title>
<g id="a_node3"><a xlink:href="../../d5/d93/GPUCommonDefSettings_8h.html" target="_top" xlink:title="GPUCommonDefSettings.h">
<polygon fill="none" stroke="#000000" points="0,-.5 0,-19.5 138,-19.5 138,-.5 0,-.5"/>
<text text-anchor="middle" x="69" y="-7.5" font-family="Helvetica,sans-Serif" font-size="10.00" fill="#000000">GPUCommonDefSettings.h</text>
</a>
</g>
</g>
<!-- Node1&#45;&gt;Node2 -->
<g id="edge2" class="edge">
<title>Node1&#45;&gt;Node2</title>
<path fill="none" stroke="#191970" d="M129.2844,-56.2455C118.398,-47.8943 102.5117,-35.7076 89.78,-25.9408"/>
<polygon fill="#191970" stroke="#191970" points="91.6346,-22.9523 81.5699,-19.6427 87.3739,-28.5063 91.6346,-22.9523"/>
</g>
<!-- Node3 -->
<g id="node4" class="node">
<title>Node3</title>
<g id="a_node4"><a xlink:href="../../da/d5a/GPUCommonDefAPI_8h.html" target="_top" xlink:title="GPUCommonDefAPI.h">
<polygon fill="none" stroke="#000000" points="156.5,-.5 156.5,-19.5 275.5,-19.5 275.5,-.5 156.5,-.5"/>
<text text-anchor="middle" x="216" y="-7.5" font-family="Helvetica,sans-Serif" font-size="10.00" fill="#000000">GPUCommonDefAPI.h</text>
</a>
</g>
</g>
<!-- Node1&#45;&gt;Node3 -->
<g id="edge3" class="edge">
<title>Node1&#45;&gt;Node3</title>
<path fill="none" stroke="#191970" d="M154.8898,-56.2455C165.9254,-47.8943 182.0292,-35.7076 194.9353,-25.9408"/>
<polygon fill="#191970" stroke="#191970" points="197.3959,-28.4681 203.2579,-19.6427 193.1717,-22.8862 197.3959,-28.4681"/>
</g>
<!-- Node4&#45;&gt;Node1 -->
<g id="edge6" class="edge">
<title>Node4&#45;&gt;Node1</title>
<path fill="none" stroke="#191970" d="M296.8536,-112.3733C265.4891,-102.9807 217.6335,-88.6496 183.4284,-78.4064"/>
<polygon fill="#191970" stroke="#191970" points="184.3107,-75.0171 173.727,-75.5011 182.3025,-81.7229 184.3107,-75.0171"/>
</g>
<!-- Node4&#45;&gt;Node5 -->
<g id="edge5" class="edge">
<title>Node4&#45;&gt;Node5</title>
<path fill="none" stroke="#191970" d="M312.2781,-112.2455C297.4111,-103.5731 275.4534,-90.7645 258.4142,-80.825"/>
<polygon fill="#191970" stroke="#191970" points="259.9317,-77.6582 249.5303,-75.6427 256.4045,-83.7047 259.9317,-77.6582"/>
</g>
<!-- Node4&#45;&gt;Node6 -->
<g id="edge7" class="edge">
<title>Node4&#45;&gt;Node6</title>
<path fill="none" stroke="#191970" d="M324.1228,-112.2455C320.3487,-104.6973 315.0079,-94.0158 310.4099,-84.8197"/>
<polygon fill="#191970" stroke="#191970" points="313.424,-83.0217 305.8213,-75.6427 307.163,-86.1522 313.424,-83.0217"/>
</g>
<!-- Node4&#45;&gt;Node7 -->
<g id="edge8" class="edge">
<title>Node4&#45;&gt;Node7</title>
<path fill="none" stroke="#191970" d="M337.0126,-112.2455C343.4768,-104.3761 352.7385,-93.101 360.4983,-83.6542"/>
<polygon fill="#191970" stroke="#191970" points="363.4364,-85.5916 367.0792,-75.6427 358.0273,-81.1484 363.4364,-85.5916"/>
</g>
<!-- Node4&#45;&gt;Node8 -->
<g id="edge9" class="edge">
<title>Node4&#45;&gt;Node8</title>
<path fill="none" stroke="#191970" d="M353.5826,-112.3733C376.9496,-103.2226 412.2862,-89.3844 438.2784,-79.2057"/>
<polygon fill="#191970" stroke="#191970" points="439.703,-82.4066 447.7382,-75.5011 437.1505,-75.8886 439.703,-82.4066"/>
</g>
</g>
</svg>
