<?xml version="1.0" encoding="UTF-8" standalone="no"?>
<!DOCTYPE svg PUBLIC "-//W3C//DTD SVG 1.1//EN"
 "http://www.w3.org/Graphics/SVG/1.1/DTD/svg11.dtd">
<!-- Generated by graphviz version 2.40.1 (20161225.0304)
 -->
<!-- Title: /home/runner/work/AliceO2/AliceO2/Detectors/MUON/MCH/Raw/ElecMap/src/MapFEC.cxx Pages: 1 -->
<svg width="581pt" height="218pt"
 viewBox="0.00 0.00 581.00 218.00" xmlns="http://www.w3.org/2000/svg" xmlns:xlink="http://www.w3.org/1999/xlink">
<g id="graph0" class="graph" transform="scale(1 1) rotate(0) translate(4 214)">
<title>/home/runner/work/AliceO2/AliceO2/Detectors/MUON/MCH/Raw/ElecMap/src/MapFEC.cxx</title>
<!-- Node0 -->
<g id="node1" class="node">
<title>Node0</title>
<polygon fill="#bfbfbf" stroke="#000000" points="286.5,-168.5 286.5,-209.5 471.5,-209.5 471.5,-168.5 286.5,-168.5"/>
<text text-anchor="start" x="294.5" y="-197.5" font-family="Helvetica,sans-Serif" font-size="10.00" fill="#000000">/home/runner/work/AliceO2</text>
<text text-anchor="start" x="294.5" y="-186.5" font-family="Helvetica,sans-Serif" font-size="10.00" fill="#000000">/AliceO2/Detectors/MUON</text>
<text text-anchor="middle" x="379" y="-175.5" font-family="Helvetica,sans-Serif" font-size="10.00" fill="#000000">/MCH/Raw/ElecMap/src/MapFEC.cxx</text>
</g>
<!-- Node1 -->
<g id="node2" class="node">
<title>Node1</title>
<g id="a_node2"><a xlink:href="../../dc/df7/MapFEC_8h.html" target="_top" xlink:title="MapFEC.h">
<polygon fill="none" stroke="#000000" points="165,-112.5 165,-131.5 229,-131.5 229,-112.5 165,-112.5"/>
<text text-anchor="middle" x="197" y="-119.5" font-family="Helvetica,sans-Serif" font-size="10.00" fill="#000000">MapFEC.h</text>
</a>
</g>
</g>
<!-- Node0&#45;&gt;Node1 -->
<g id="edge1" class="edge">
<title>Node0&#45;&gt;Node1</title>
<path fill="none" stroke="#191970" d="M322.9089,-168.3511C293.5876,-157.557 258.5669,-144.6647 232.9122,-135.2204"/>
<polygon fill="#191970" stroke="#191970" points="233.8195,-131.8249 223.226,-131.6546 231.4012,-138.3939 233.8195,-131.8249"/>
</g>
<!-- Node9 -->
<g id="node10" class="node">
<title>Node9</title>
<polygon fill="none" stroke="#bfbfbf" points="247,-112.5 247,-131.5 301,-131.5 301,-112.5 247,-112.5"/>
<text text-anchor="middle" x="274" y="-119.5" font-family="Helvetica,sans-Serif" font-size="10.00" fill="#000000">iostream</text>
</g>
<!-- Node0&#45;&gt;Node9 -->
<g id="edge12" class="edge">
<title>Node0&#45;&gt;Node9</title>
<path fill="none" stroke="#191970" d="M346.6398,-168.3511C330.9212,-158.3212 312.3637,-146.4797 297.9403,-137.2762"/>
<polygon fill="#191970" stroke="#191970" points="299.4431,-134.0833 289.1304,-131.6546 295.6777,-139.9843 299.4431,-134.0833"/>
</g>
<!-- Node10 -->
<g id="node11" class="node">
<title>Node10</title>
<polygon fill="none" stroke="#bfbfbf" points="319,-112.5 319,-131.5 369,-131.5 369,-112.5 319,-112.5"/>
<text text-anchor="middle" x="344" y="-119.5" font-family="Helvetica,sans-Serif" font-size="10.00" fill="#000000">fstream</text>
</g>
<!-- Node0&#45;&gt;Node10 -->
<g id="edge13" class="edge">
<title>Node0&#45;&gt;Node10</title>
<path fill="none" stroke="#191970" d="M368.1176,-168.168C363.5599,-159.4433 358.2999,-149.374 353.8575,-140.87"/>
<polygon fill="#191970" stroke="#191970" points="356.8417,-139.0234 349.1092,-131.7805 350.6372,-142.2646 356.8417,-139.0234"/>
</g>
<!-- Node11 -->
<g id="node12" class="node">
<title>Node11</title>
<polygon fill="none" stroke="#bfbfbf" points="387,-112.5 387,-131.5 443,-131.5 443,-112.5 387,-112.5"/>
<text text-anchor="middle" x="415" y="-119.5" font-family="Helvetica,sans-Serif" font-size="10.00" fill="#000000">algorithm</text>
</g>
<!-- Node0&#45;&gt;Node11 -->
<g id="edge14" class="edge">
<title>Node0&#45;&gt;Node11</title>
<path fill="none" stroke="#191970" d="M390.1933,-168.168C394.9322,-159.3484 400.4093,-149.155 405.0096,-140.5933"/>
<polygon fill="#191970" stroke="#191970" points="408.0947,-142.246 409.7448,-131.7805 401.9285,-138.9328 408.0947,-142.246"/>
</g>
<!-- Node12 -->
<g id="node13" class="node">
<title>Node12</title>
<polygon fill="none" stroke="#bfbfbf" points="461.5,-112.5 461.5,-131.5 502.5,-131.5 502.5,-112.5 461.5,-112.5"/>
<text text-anchor="middle" x="482" y="-119.5" font-family="Helvetica,sans-Serif" font-size="10.00" fill="#000000">string</text>
</g>
<!-- Node0&#45;&gt;Node12 -->
<g id="edge15" class="edge">
<title>Node0&#45;&gt;Node12</title>
<path fill="none" stroke="#191970" d="M410.7438,-168.3511C426.163,-158.3212 444.3671,-146.4797 458.5157,-137.2762"/>
<polygon fill="#191970" stroke="#191970" points="460.6837,-140.0413 467.1578,-131.6546 456.8667,-134.1735 460.6837,-140.0413"/>
</g>
<!-- Node13 -->
<g id="node14" class="node">
<title>Node13</title>
<polygon fill="none" stroke="#bfbfbf" points="521,-112.5 521,-131.5 573,-131.5 573,-112.5 521,-112.5"/>
<text text-anchor="middle" x="547" y="-119.5" font-family="Helvetica,sans-Serif" font-size="10.00" fill="#000000">sstream</text>
</g>
<!-- Node0&#45;&gt;Node13 -->
<g id="edge16" class="edge">
<title>Node0&#45;&gt;Node13</title>
<path fill="none" stroke="#191970" d="M430.7764,-168.3511C457.6027,-157.6525 489.5973,-144.8928 513.2196,-135.472"/>
<polygon fill="#191970" stroke="#191970" points="514.7993,-138.6101 522.7914,-131.6546 512.2062,-132.1081 514.7993,-138.6101"/>
</g>
<!-- Node2 -->
<g id="node3" class="node">
<title>Node2</title>
<polygon fill="none" stroke="#bfbfbf" points="0,-56.5 0,-75.5 38,-75.5 38,-56.5 0,-56.5"/>
<text text-anchor="middle" x="19" y="-63.5" font-family="Helvetica,sans-Serif" font-size="10.00" fill="#000000">array</text>
</g>
<!-- Node1&#45;&gt;Node2 -->
<g id="edge2" class="edge">
<title>Node1&#45;&gt;Node2</title>
<path fill="none" stroke="#191970" d="M164.9715,-112.6372C136.5329,-104.2228 93.6362,-91.2848 48.0126,-76.2421"/>
<polygon fill="#191970" stroke="#191970" points="48.8333,-72.8269 38.2399,-73.0011 46.6298,-79.471 48.8333,-72.8269"/>
</g>
<!-- Node3 -->
<g id="node4" class="node">
<title>Node3</title>
<polygon fill="none" stroke="#bfbfbf" points="56.5,-56.5 56.5,-75.5 105.5,-75.5 105.5,-56.5 56.5,-56.5"/>
<text text-anchor="middle" x="81" y="-63.5" font-family="Helvetica,sans-Serif" font-size="10.00" fill="#000000">istream</text>
</g>
<!-- Node1&#45;&gt;Node3 -->
<g id="edge3" class="edge">
<title>Node1&#45;&gt;Node3</title>
<path fill="none" stroke="#191970" d="M177.0589,-112.3733C158.5214,-103.4241 130.6972,-89.9917 109.7587,-79.8835"/>
<polygon fill="#191970" stroke="#191970" points="111.2081,-76.6967 100.6809,-75.5011 108.1648,-83.0006 111.2081,-76.6967"/>
</g>
<!-- Node4 -->
<g id="node5" class="node">
<title>Node4</title>
<g id="a_node5"><a xlink:href="../../d5/dcd/DsDetId_8h.html" target="_top" xlink:title="MCHRawElecMap/DsDetId.h">
<polygon fill="none" stroke="#000000" points="124,-56.5 124,-75.5 270,-75.5 270,-56.5 124,-56.5"/>
<text text-anchor="middle" x="197" y="-63.5" font-family="Helvetica,sans-Serif" font-size="10.00" fill="#000000">MCHRawElecMap/DsDetId.h</text>
</a>
</g>
</g>
<!-- Node1&#45;&gt;Node4 -->
<g id="edge4" class="edge">
<title>Node1&#45;&gt;Node4</title>
<path fill="none" stroke="#191970" d="M197,-112.2455C197,-104.9382 197,-94.6944 197,-85.7046"/>
<polygon fill="#191970" stroke="#191970" points="200.5001,-85.6426 197,-75.6427 193.5001,-85.6427 200.5001,-85.6426"/>
</g>
<!-- Node7 -->
<g id="node8" class="node">
<title>Node7</title>
<g id="a_node8"><a xlink:href="../../d4/d09/DsElecId_8h.html" target="_top" xlink:title="MCHRawElecMap/DsElecId.h">
<polygon fill="none" stroke="#000000" points="288,-56.5 288,-75.5 438,-75.5 438,-56.5 288,-56.5"/>
<text text-anchor="middle" x="363" y="-63.5" font-family="Helvetica,sans-Serif" font-size="10.00" fill="#000000">MCHRawElecMap/DsElecId.h</text>
</a>
</g>
</g>
<!-- Node1&#45;&gt;Node7 -->
<g id="edge7" class="edge">
<title>Node1&#45;&gt;Node7</title>
<path fill="none" stroke="#191970" d="M225.5364,-112.3733C253.0202,-103.1016 294.7686,-89.0178 325.0452,-78.804"/>
<polygon fill="#191970" stroke="#191970" points="326.4794,-82.0141 334.836,-75.5011 324.2418,-75.3813 326.4794,-82.0141"/>
</g>
<!-- Node8 -->
<g id="node9" class="node">
<title>Node8</title>
<polygon fill="none" stroke="#bfbfbf" points="375,-.5 375,-19.5 425,-19.5 425,-.5 375,-.5"/>
<text text-anchor="middle" x="400" y="-7.5" font-family="Helvetica,sans-Serif" font-size="10.00" fill="#000000">optional</text>
</g>
<!-- Node1&#45;&gt;Node8 -->
<g id="edge11" class="edge">
<title>Node1&#45;&gt;Node8</title>
<path fill="none" stroke="#191970" d="M229.1816,-113.9297C232.1569,-113.2504 235.1306,-112.5963 238,-112 284.1425,-102.4107 416.6351,-112.0424 447,-76 460.7861,-59.6363 441.5962,-39.4174 423.7504,-25.7018"/>
<polygon fill="#191970" stroke="#191970" points="425.3983,-22.5734 415.2481,-19.5365 421.289,-28.2404 425.3983,-22.5734"/>
</g>
<!-- Node5 -->
<g id="node6" class="node">
<title>Node5</title>
<polygon fill="none" stroke="#bfbfbf" points="302,-.5 302,-19.5 348,-19.5 348,-.5 302,-.5"/>
<text text-anchor="middle" x="325" y="-7.5" font-family="Helvetica,sans-Serif" font-size="10.00" fill="#000000">cstdint</text>
</g>
<!-- Node4&#45;&gt;Node5 -->
<g id="edge5" class="edge">
<title>Node4&#45;&gt;Node5</title>
<path fill="none" stroke="#191970" d="M219.004,-56.3733C239.6435,-47.3435 270.7158,-33.7494 293.8889,-23.6111"/>
<polygon fill="#191970" stroke="#191970" points="295.5245,-26.7159 303.2831,-19.5011 292.7187,-20.3028 295.5245,-26.7159"/>
</g>
<!-- Node6 -->
<g id="node7" class="node">
<title>Node6</title>
<polygon fill="none" stroke="#bfbfbf" points="220.5,-.5 220.5,-19.5 265.5,-19.5 265.5,-.5 220.5,-.5"/>
<text text-anchor="middle" x="243" y="-7.5" font-family="Helvetica,sans-Serif" font-size="10.00" fill="#000000">iosfwd</text>
</g>
<!-- Node4&#45;&gt;Node6 -->
<g id="edge6" class="edge">
<title>Node4&#45;&gt;Node6</title>
<path fill="none" stroke="#191970" d="M205.0126,-56.2455C211.4768,-48.3761 220.7385,-37.101 228.4983,-27.6542"/>
<polygon fill="#191970" stroke="#191970" points="231.4364,-29.5916 235.0792,-19.6427 226.0273,-25.1484 231.4364,-29.5916"/>
</g>
<!-- Node7&#45;&gt;Node5 -->
<g id="edge8" class="edge">
<title>Node7&#45;&gt;Node5</title>
<path fill="none" stroke="#191970" d="M356.3809,-56.2455C351.0954,-48.4564 343.5459,-37.3308 337.1762,-27.9439"/>
<polygon fill="#191970" stroke="#191970" points="340.0545,-25.9522 331.5432,-19.6427 334.2621,-29.8827 340.0545,-25.9522"/>
</g>
<!-- Node7&#45;&gt;Node6 -->
<g id="edge9" class="edge">
<title>Node7&#45;&gt;Node6</title>
<path fill="none" stroke="#191970" d="M342.3713,-56.3733C323.1081,-47.3838 294.1514,-33.8706 272.4581,-23.7471"/>
<polygon fill="#191970" stroke="#191970" points="273.9015,-20.5584 263.3595,-19.5011 270.9413,-26.9017 273.9015,-20.5584"/>
</g>
<!-- Node7&#45;&gt;Node8 -->
<g id="edge10" class="edge">
<title>Node7&#45;&gt;Node8</title>
<path fill="none" stroke="#191970" d="M369.4449,-56.2455C374.5382,-48.5367 381.7908,-37.5598 387.952,-28.2348"/>
<polygon fill="#191970" stroke="#191970" points="391.0365,-29.9155 393.6289,-19.6427 385.1962,-26.0566 391.0365,-29.9155"/>
</g>
</g>
</svg>
