<?xml version="1.0" encoding="UTF-8" standalone="no"?>
<!DOCTYPE svg PUBLIC "-//W3C//DTD SVG 1.1//EN"
 "http://www.w3.org/Graphics/SVG/1.1/DTD/svg11.dtd">
<!-- Generated by graphviz version 2.40.1 (20161225.0304)
 -->
<!-- Title: /home/runner/work/AliceO2/AliceO2/DataFormats/Detectors/Common/src/AlignParam.cxx Pages: 1 -->
<!--zoomable 173 -->
<svg id="main" version="1.1" xmlns="http://www.w3.org/2000/svg" xmlns:xlink="http://www.w3.org/1999/xlink" xml:space="preserve" onload="init(evt)">
<style type="text/css"><![CDATA[
.edge:hover path { stroke: red; }
.edge:hover polygon { stroke: red; fill: red; }
]]></style>
<script type="text/javascript"><![CDATA[
var edges = document.getElementsByTagName('g');
if (edges && edges.length) {
  for (var i=0;i<edges.length;i++) {
    if (edges[i].id.substr(0,4)=='edge') {
      edges[i].setAttribute('class','edge');
    }
  }
}
]]></script>
        <defs>
                <circle id="rim" cx="0" cy="0" r="7"/>
                <circle id="rim2" cx="0" cy="0" r="3.5"/>
                <g id="zoomPlus">
                        <use xlink:href="#rim" fill="#404040">
                                <set attributeName="fill" to="#808080" begin="zoomplus.mouseover" end="zoomplus.mouseout"/>
                        </use>
                        <path d="M-4,0h8M0,-4v8" fill="none" stroke="white" stroke-width="1.5" pointer-events="none"/>
                </g>
                <g id="zoomMin">
                        <use xlink:href="#rim" fill="#404040">
                                <set attributeName="fill" to="#808080" begin="zoomminus.mouseover" end="zoomminus.mouseout"/>
                        </use>
                        <path d="M-4,0h8" fill="none" stroke="white" stroke-width="1.5" pointer-events="none"/>
                </g>
                <g id="dirArrow">
                        <path fill="none" stroke="white" stroke-width="1.5" d="M0,-3.0v7 M-2.5,-0.5L0,-3.0L2.5,-0.5"/>
                </g>
               <g id="resetDef">
                       <use xlink:href="#rim2" fill="#404040">
                               <set attributeName="fill" to="#808080" begin="reset.mouseover" end="reset.mouseout"/>
                       </use>
               </g>
        </defs>

<script type="text/javascript">
var viewWidth = 626;
var viewHeight = 173;
var sectionId = 'dynsection-0';
</script>
<script xlink:href="../../svgpan.js"/>
<svg id="graph" class="graph">
<g id="viewport">
<title>/home/runner/work/AliceO2/AliceO2/DataFormats/Detectors/Common/src/AlignParam.cxx</title>
<!-- Node0 -->
<g id="node1" class="node">
<title>Node0</title>
<polygon fill="#bfbfbf" stroke="#000000" points="158.5,-123.5 158.5,-164.5 318.5,-164.5 318.5,-123.5 158.5,-123.5"/>
<text text-anchor="start" x="166.5" y="-152.5" font-family="Helvetica,sans-Serif" font-size="10.00" fill="#000000">/home/runner/work/AliceO2</text>
<text text-anchor="start" x="166.5" y="-141.5" font-family="Helvetica,sans-Serif" font-size="10.00" fill="#000000">/AliceO2/DataFormats/Detectors</text>
<text text-anchor="middle" x="238.5" y="-130.5" font-family="Helvetica,sans-Serif" font-size="10.00" fill="#000000">/Common/src/AlignParam.cxx</text>
</g>
<!-- Node1 -->
<g id="node2" class="node">
<title>Node1</title>
<polygon fill="none" stroke="#bfbfbf" points="0,-62 0,-81 71,-81 71,-62 0,-62"/>
<text text-anchor="middle" x="35.5" y="-69" font-family="Helvetica,sans-Serif" font-size="10.00" fill="#000000">FairLogger.h</text>
</g>
<!-- Node0&#45;&gt;Node1 -->
<g id="edge1" class="edge">
<title>Node0&#45;&gt;Node1</title>
<path fill="none" stroke="#191970" d="M180.8713,-123.4183C145.9074,-110.9312 102.343,-95.3725 72.0659,-84.5592"/>
<polygon fill="#191970" stroke="#191970" points="72.9336,-81.1527 62.339,-81.0853 70.5792,-87.7449 72.9336,-81.1527"/>
</g>
<!-- Node2 -->
<g id="node3" class="node">
<title>Node2</title>
<polygon fill="none" stroke="#bfbfbf" points="89.5,-62 89.5,-81 175.5,-81 175.5,-62 89.5,-62"/>
<text text-anchor="middle" x="132.5" y="-69" font-family="Helvetica,sans-Serif" font-size="10.00" fill="#000000">TGeoManager.h</text>
</g>
<!-- Node0&#45;&gt;Node2 -->
<g id="edge2" class="edge">
<title>Node0&#45;&gt;Node2</title>
<path fill="none" stroke="#191970" d="M208.4082,-123.4183C191.4212,-111.7999 170.5464,-97.5223 154.9898,-86.8822"/>
<polygon fill="#191970" stroke="#191970" points="156.7444,-83.8419 146.5144,-81.0853 152.7926,-89.6198 156.7444,-83.8419"/>
</g>
<!-- Node3 -->
<g id="node4" class="node">
<title>Node3</title>
<polygon fill="none" stroke="#bfbfbf" points="290.5,-.5 290.5,-19.5 366.5,-19.5 366.5,-.5 290.5,-.5"/>
<text text-anchor="middle" x="328.5" y="-7.5" font-family="Helvetica,sans-Serif" font-size="10.00" fill="#000000">TGeoMatrix.h</text>
</g>
<!-- Node0&#45;&gt;Node3 -->
<g id="edge3" class="edge">
<title>Node0&#45;&gt;Node3</title>
<path fill="none" stroke="#191970" d="M226.9998,-123.4785C218.0593,-104.5008 209.2109,-76.2535 222.5,-56 235.4793,-36.2187 258.9969,-24.9006 280.5883,-18.4463"/>
<polygon fill="#191970" stroke="#191970" points="281.59,-21.8011 290.3283,-15.8101 279.7612,-15.0443 281.59,-21.8011"/>
</g>
<!-- Node4 -->
<g id="node5" class="node">
<title>Node4</title>
<polygon fill="none" stroke="#bfbfbf" points="232,-62 232,-81 315,-81 315,-62 232,-62"/>
<text text-anchor="middle" x="273.5" y="-69" font-family="Helvetica,sans-Serif" font-size="10.00" fill="#000000">TGeoOverlap.h</text>
</g>
<!-- Node0&#45;&gt;Node4 -->
<g id="edge4" class="edge">
<title>Node0&#45;&gt;Node4</title>
<path fill="none" stroke="#191970" d="M248.436,-123.4183C253.4683,-112.9943 259.5339,-100.4298 264.4376,-90.2722"/>
<polygon fill="#191970" stroke="#191970" points="267.677,-91.6125 268.8726,-81.0853 261.3731,-88.5692 267.677,-91.6125"/>
</g>
<!-- Node5 -->
<g id="node6" class="node">
<title>Node5</title>
<polygon fill="none" stroke="#bfbfbf" points="333.5,-62 333.5,-81 443.5,-81 443.5,-62 333.5,-62"/>
<text text-anchor="middle" x="388.5" y="-69" font-family="Helvetica,sans-Serif" font-size="10.00" fill="#000000">TGeoPhysicalNode.h</text>
</g>
<!-- Node0&#45;&gt;Node5 -->
<g id="edge5" class="edge">
<title>Node0&#45;&gt;Node5</title>
<path fill="none" stroke="#191970" d="M281.0828,-123.4183C306.1319,-111.3112 337.1551,-96.3167 359.4114,-85.5595"/>
<polygon fill="#191970" stroke="#191970" points="361.1879,-88.5883 368.6682,-81.0853 358.1416,-82.2859 361.1879,-88.5883"/>
</g>
<!-- Node6 -->
<g id="node7" class="node">
<title>Node6</title>
<g id="a_node7"><a xlink:href="../../d2/d8f/AlignParam_8h.html" target="_top" xlink:title="Definition of the base alignment parameters class. ">
<polygon fill="none" stroke="#000000" points="461.5,-56.5 461.5,-86.5 617.5,-86.5 617.5,-56.5 461.5,-56.5"/>
<text text-anchor="start" x="469.5" y="-74.5" font-family="Helvetica,sans-Serif" font-size="10.00" fill="#000000">DetectorsCommonDataFormats</text>
<text text-anchor="middle" x="539.5" y="-63.5" font-family="Helvetica,sans-Serif" font-size="10.00" fill="#000000">/AlignParam.h</text>
</a>
</g>
</g>
<!-- Node0&#45;&gt;Node6 -->
<g id="edge6" class="edge">
<title>Node0&#45;&gt;Node6</title>
<path fill="none" stroke="#191970" d="M318.7671,-124.6666C364.9111,-113.5521 422.4099,-99.7028 467.1536,-88.9256"/>
<polygon fill="#191970" stroke="#191970" points="468.1739,-92.2801 477.0762,-86.5356 466.5347,-85.4747 468.1739,-92.2801"/>
</g>
<!-- Node6&#45;&gt;Node3 -->
<g id="edge7" class="edge">
<title>Node6&#45;&gt;Node3</title>
<path fill="none" stroke="#191970" d="M487.8836,-56.4554C452.0601,-46.0139 404.906,-32.27 371.1991,-22.4455"/>
<polygon fill="#191970" stroke="#191970" points="371.7774,-18.9685 361.1975,-19.5303 369.8186,-25.6888 371.7774,-18.9685"/>
</g>
<!-- Node7 -->
<g id="node8" class="node">
<title>Node7</title>
<polygon fill="none" stroke="#bfbfbf" points="508.5,-.5 508.5,-19.5 570.5,-19.5 570.5,-.5 508.5,-.5"/>
<text text-anchor="middle" x="539.5" y="-7.5" font-family="Helvetica,sans-Serif" font-size="10.00" fill="#000000">TNamed.h</text>
</g>
<!-- Node6&#45;&gt;Node7 -->
<g id="edge8" class="edge">
<title>Node6&#45;&gt;Node7</title>
<path fill="none" stroke="#191970" d="M539.5,-56.2977C539.5,-48.3834 539.5,-38.6043 539.5,-30.0759"/>
<polygon fill="#191970" stroke="#191970" points="543.0001,-29.8469 539.5,-19.8469 536.0001,-29.847 543.0001,-29.8469"/>
</g>
</g>
</svg>
        <g id="navigator" transform="translate(0 0)" fill="#404254">
                <rect fill="#f2f5e9" fill-opacity="0.5" stroke="#606060" stroke-width=".5" x="0" y="0" width="60" height="60"/>
                <use id="zoomplus" xlink:href="#zoomPlus" x="17" y="9" onmousedown="handleZoom(evt,'in')"/>
                <use id="zoomminus" xlink:href="#zoomMin" x="42" y="9" onmousedown="handleZoom(evt,'out')"/>
                <use id="reset" xlink:href="#resetDef" x="30" y="36" onmousedown="handleReset()"/>
                <g id="arrowUp" xlink:href="#dirArrow" transform="translate(30 24)" onmousedown="handlePan(0,-1)">
                  <use xlink:href="#rim" fill="#404040">
                        <set attributeName="fill" to="#808080" begin="arrowUp.mouseover" end="arrowUp.mouseout"/>
                  </use>
                  <path fill="none" stroke="white" stroke-width="1.5" d="M0,-3.0v7 M-2.5,-0.5L0,-3.0L2.5,-0.5"/>
                </g>
                <g id="arrowRight" xlink:href="#dirArrow" transform="rotate(90) translate(36 -43)" onmousedown="handlePan(1,0)">
                  <use xlink:href="#rim" fill="#404040">
                        <set attributeName="fill" to="#808080" begin="arrowRight.mouseover" end="arrowRight.mouseout"/>
                  </use>
                  <path fill="none" stroke="white" stroke-width="1.5" d="M0,-3.0v7 M-2.5,-0.5L0,-3.0L2.5,-0.5"/>
                </g>
                <g id="arrowDown" xlink:href="#dirArrow" transform="rotate(180) translate(-30 -48)" onmousedown="handlePan(0,1)">
                  <use xlink:href="#rim" fill="#404040">
                        <set attributeName="fill" to="#808080" begin="arrowDown.mouseover" end="arrowDown.mouseout"/>
                  </use>
                  <path fill="none" stroke="white" stroke-width="1.5" d="M0,-3.0v7 M-2.5,-0.5L0,-3.0L2.5,-0.5"/>
                </g>
                <g id="arrowLeft" xlink:href="#dirArrow" transform="rotate(270) translate(-36 17)" onmousedown="handlePan(-1,0)">
                  <use xlink:href="#rim" fill="#404040">
                        <set attributeName="fill" to="#808080" begin="arrowLeft.mouseover" end="arrowLeft.mouseout"/>
                  </use>
                  <path fill="none" stroke="white" stroke-width="1.5" d="M0,-3.0v7 M-2.5,-0.5L0,-3.0L2.5,-0.5"/>
                </g>
        </g>
        <svg viewBox="0 0 15 15" width="100%" height="30px" preserveAspectRatio="xMaxYMin meet">
         <g id="arrow_out" transform="scale(0.3 0.3)">
          <a xlink:href="AlignParam_8cxx__incl_org.svg" target="_base">
           <rect id="button" ry="5" rx="5" y="6" x="6" height="38" width="38"
                fill="#f2f5e9" fill-opacity="0.5" stroke="#606060" stroke-width="1.0"/>
           <path id="arrow"
             d="M 11.500037,31.436501 C 11.940474,20.09759 22.043105,11.32322 32.158766,21.979434 L 37.068811,17.246167 C 37.068811,17.246167 37.088388,32 37.088388,32 L 22.160133,31.978069 C 22.160133,31.978069 26.997745,27.140456 26.997745,27.140456 C 18.528582,18.264221 13.291696,25.230495 11.500037,31.436501 z"
             style="fill:#404040;"/>
          </a>
         </g>
        </svg>
</svg>
