<?xml version="1.0" encoding="UTF-8" standalone="no"?>
<!DOCTYPE svg PUBLIC "-//W3C//DTD SVG 1.1//EN"
 "http://www.w3.org/Graphics/SVG/1.1/DTD/svg11.dtd">
<!-- Generated by graphviz version 2.40.1 (20161225.0304)
 -->
<!-- Title: GPUCA_NAMESPACE::gpu::Spline1DSpec&lt; DataT, YdimT, 1 &gt; Pages: 1 -->
<!--zoomable 1532 -->
<svg id="main" version="1.1" xmlns="http://www.w3.org/2000/svg" xmlns:xlink="http://www.w3.org/1999/xlink" xml:space="preserve" onload="init(evt)">
<style type="text/css"><![CDATA[
.edge:hover path { stroke: red; }
.edge:hover polygon { stroke: red; fill: red; }
]]></style>
<script type="text/javascript"><![CDATA[
var edges = document.getElementsByTagName('g');
if (edges && edges.length) {
  for (var i=0;i<edges.length;i++) {
    if (edges[i].id.substr(0,4)=='edge') {
      edges[i].setAttribute('class','edge');
    }
  }
}
]]></script>
        <defs>
                <circle id="rim" cx="0" cy="0" r="7"/>
                <circle id="rim2" cx="0" cy="0" r="3.5"/>
                <g id="zoomPlus">
                        <use xlink:href="#rim" fill="#404040">
                                <set attributeName="fill" to="#808080" begin="zoomplus.mouseover" end="zoomplus.mouseout"/>
                        </use>
                        <path d="M-4,0h8M0,-4v8" fill="none" stroke="white" stroke-width="1.5" pointer-events="none"/>
                </g>
                <g id="zoomMin">
                        <use xlink:href="#rim" fill="#404040">
                                <set attributeName="fill" to="#808080" begin="zoomminus.mouseover" end="zoomminus.mouseout"/>
                        </use>
                        <path d="M-4,0h8" fill="none" stroke="white" stroke-width="1.5" pointer-events="none"/>
                </g>
                <g id="dirArrow">
                        <path fill="none" stroke="white" stroke-width="1.5" d="M0,-3.0v7 M-2.5,-0.5L0,-3.0L2.5,-0.5"/>
                </g>
               <g id="resetDef">
                       <use xlink:href="#rim2" fill="#404040">
                               <set attributeName="fill" to="#808080" begin="reset.mouseover" end="reset.mouseout"/>
                       </use>
               </g>
        </defs>

<script type="text/javascript">
var viewWidth = 450;
var viewHeight = 1532;
var sectionId = 'dynsection-1';
</script>
<script xlink:href="../../svgpan.js"/>
<svg id="graph" class="graph">
<g id="viewport">
<title>GPUCA_NAMESPACE::gpu::Spline1DSpec&lt; DataT, YdimT, 1 &gt;</title>
<!-- Node4 -->
<g id="node1" class="node">
<title>Node4</title>
<polygon fill="#bfbfbf" stroke="#000000" points="0,-.5 0,-200.5 143,-200.5 143,-.5 0,-.5"/>
<text text-anchor="start" x="8" y="-188.5" font-family="Helvetica,sans-Serif" font-size="10.00" fill="#000000">GPUCA_NAMESPACE::gpu</text>
<text text-anchor="start" x="8" y="-177.5" font-family="Helvetica,sans-Serif" font-size="10.00" fill="#000000">::Spline1DSpec&lt; DataT,</text>
<text text-anchor="middle" x="71.5" y="-166.5" font-family="Helvetica,sans-Serif" font-size="10.00" fill="#000000"> YdimT, 1 &gt;</text>
<polyline fill="none" stroke="#000000" points="0,-159.5 143,-159.5 "/>
<text text-anchor="middle" x="71.5" y="-147.5" font-family="Helvetica,sans-Serif" font-size="10.00" fill="#000000"> </text>
<polyline fill="none" stroke="#000000" points="0,-140.5 143,-140.5 "/>
<text text-anchor="start" x="8" y="-128.5" font-family="Helvetica,sans-Serif" font-size="10.00" fill="#000000">+ Spline1DSpec()</text>
<text text-anchor="start" x="8" y="-117.5" font-family="Helvetica,sans-Serif" font-size="10.00" fill="#000000">+ Spline1DSpec()</text>
<text text-anchor="start" x="8" y="-106.5" font-family="Helvetica,sans-Serif" font-size="10.00" fill="#000000">+ Spline1DSpec()</text>
<text text-anchor="start" x="8" y="-95.5" font-family="Helvetica,sans-Serif" font-size="10.00" fill="#000000">+ Spline1DSpec()</text>
<text text-anchor="start" x="8" y="-84.5" font-family="Helvetica,sans-Serif" font-size="10.00" fill="#000000">+ recreate()</text>
<text text-anchor="start" x="8" y="-73.5" font-family="Helvetica,sans-Serif" font-size="10.00" fill="#000000">+ recreate()</text>
<text text-anchor="start" x="8" y="-62.5" font-family="Helvetica,sans-Serif" font-size="10.00" fill="#000000">+ GPUd()</text>
<text text-anchor="start" x="8" y="-51.5" font-family="Helvetica,sans-Serif" font-size="10.00" fill="#000000">+ GPUd()</text>
<text text-anchor="start" x="8" y="-40.5" font-family="Helvetica,sans-Serif" font-size="10.00" fill="#000000">+ GPUd()</text>
<text text-anchor="start" x="8" y="-29.5" font-family="Helvetica,sans-Serif" font-size="10.00" fill="#000000">+ GPUd()</text>
<text text-anchor="start" x="8" y="-18.5" font-family="Helvetica,sans-Serif" font-size="10.00" fill="#000000">+ GPUd()</text>
<text text-anchor="start" x="8" y="-7.5" font-family="Helvetica,sans-Serif" font-size="10.00" fill="#000000">+ GPUgeneric()</text>
</g>
<!-- Node5 -->
<g id="node2" class="node">
<title>Node5</title>
<g id="a_node2"><a xlink:href="../../dd/d56/classGPUCA__NAMESPACE_1_1gpu_1_1Spline1DSpec_3_01DataT_00_01YdimT_00_010_01_4.html" target="_top" xlink:title="{GPUCA_NAMESPACE::gpu\l::Spline1DSpec\&lt; DataT,\l YdimT, 0 \&gt;\n||+ GPUd()\l+ GPUgeneric()\l+ GPUd()\l+ GPUgeneric()\l+ GPUgeneric()\l+ GPUd()\l+ GPUgeneric()\l+ GPUgeneric()\l+ GPUgeneric()\l+ GPUgeneric()\l+ GPUgeneric()\l# ClassDefNV()\l}">
<polygon fill="none" stroke="#000000" points="69,-238.5 69,-438.5 212,-438.5 212,-238.5 69,-238.5"/>
<text text-anchor="start" x="77" y="-426.5" font-family="Helvetica,sans-Serif" font-size="10.00" fill="#000000">GPUCA_NAMESPACE::gpu</text>
<text text-anchor="start" x="77" y="-415.5" font-family="Helvetica,sans-Serif" font-size="10.00" fill="#000000">::Spline1DSpec&lt; DataT,</text>
<text text-anchor="middle" x="140.5" y="-404.5" font-family="Helvetica,sans-Serif" font-size="10.00" fill="#000000"> YdimT, 0 &gt;</text>
<polyline fill="none" stroke="#000000" points="69,-397.5 212,-397.5 "/>
<text text-anchor="middle" x="140.5" y="-385.5" font-family="Helvetica,sans-Serif" font-size="10.00" fill="#000000"> </text>
<polyline fill="none" stroke="#000000" points="69,-378.5 212,-378.5 "/>
<text text-anchor="start" x="77" y="-366.5" font-family="Helvetica,sans-Serif" font-size="10.00" fill="#000000">+ GPUd()</text>
<text text-anchor="start" x="77" y="-355.5" font-family="Helvetica,sans-Serif" font-size="10.00" fill="#000000">+ GPUgeneric()</text>
<text text-anchor="start" x="77" y="-344.5" font-family="Helvetica,sans-Serif" font-size="10.00" fill="#000000">+ GPUd()</text>
<text text-anchor="start" x="77" y="-333.5" font-family="Helvetica,sans-Serif" font-size="10.00" fill="#000000">+ GPUgeneric()</text>
<text text-anchor="start" x="77" y="-322.5" font-family="Helvetica,sans-Serif" font-size="10.00" fill="#000000">+ GPUgeneric()</text>
<text text-anchor="start" x="77" y="-311.5" font-family="Helvetica,sans-Serif" font-size="10.00" fill="#000000">+ GPUd()</text>
<text text-anchor="start" x="77" y="-300.5" font-family="Helvetica,sans-Serif" font-size="10.00" fill="#000000">+ GPUgeneric()</text>
<text text-anchor="start" x="77" y="-289.5" font-family="Helvetica,sans-Serif" font-size="10.00" fill="#000000">+ GPUgeneric()</text>
<text text-anchor="start" x="77" y="-278.5" font-family="Helvetica,sans-Serif" font-size="10.00" fill="#000000">+ GPUgeneric()</text>
<text text-anchor="start" x="77" y="-267.5" font-family="Helvetica,sans-Serif" font-size="10.00" fill="#000000">+ GPUgeneric()</text>
<text text-anchor="start" x="77" y="-256.5" font-family="Helvetica,sans-Serif" font-size="10.00" fill="#000000">+ GPUgeneric()</text>
<text text-anchor="start" x="77" y="-245.5" font-family="Helvetica,sans-Serif" font-size="10.00" fill="#000000"># ClassDefNV()</text>
</a>
</g>
</g>
<!-- Node5&#45;&gt;Node4 -->
<g id="edge1" class="edge">
<title>Node5&#45;&gt;Node4</title>
<path fill="none" stroke="#191970" d="M108.6327,-228.5809C105.9307,-219.2611 103.2071,-209.8666 100.5287,-200.6278"/>
<polygon fill="none" stroke="#191970" points="105.2916,-229.6265 111.4378,-238.2564 112.0148,-227.6773 105.2916,-229.6265"/>
</g>
<!-- Node6 -->
<g id="node3" class="node">
<title>Node6</title>
<g id="a_node3"><a xlink:href="../../df/dfd/classGPUCA__NAMESPACE_1_1gpu_1_1Spline1DContainer.html" target="_top" xlink:title="{GPUCA_NAMESPACE::gpu\l::Spline1DContainer\&lt;\l DataT \&gt;\n||+ GPUd()\l+ Spline1DContainer()\l+ Spline1DContainer()\l+ ~Spline1DContainer()\l+ approximateFunction()\l+ writeToFile()\l+ GPUd()\l+ GPUd()\l+ GPUd()\l+ GPUd()\l+ GPUd()\l+ GPUd()\l+ GPUd()\l+ GPUd()\l+ GPUd()\l+ GPUd()\l+ GPUd()\l+ GPUd()\l+ GPUd()\l+ GPUd()\l+ GPUd()\l+ GPUd()\l+ GPUd()\l+ print()\l+ GPUd()\l+ cloneFromObject()\l+ moveBufferTo()\l+ destroy()\l+ setActualBufferAddress()\l+ setFutureBufferAddress()\l+ readFromFile()\l+ test()\l# getKnots()\l# getUtoKnotMap()\l# recreate()\l# recreate()\l# ClassDefNV()\l}">
<polygon fill="none" stroke="#000000" points="179,-497.5 179,-972.5 322,-972.5 322,-497.5 179,-497.5"/>
<text text-anchor="start" x="187" y="-960.5" font-family="Helvetica,sans-Serif" font-size="10.00" fill="#000000">GPUCA_NAMESPACE::gpu</text>
<text text-anchor="start" x="187" y="-949.5" font-family="Helvetica,sans-Serif" font-size="10.00" fill="#000000">::Spline1DContainer&lt;</text>
<text text-anchor="middle" x="250.5" y="-938.5" font-family="Helvetica,sans-Serif" font-size="10.00" fill="#000000"> DataT &gt;</text>
<polyline fill="none" stroke="#000000" points="179,-931.5 322,-931.5 "/>
<text text-anchor="middle" x="250.5" y="-919.5" font-family="Helvetica,sans-Serif" font-size="10.00" fill="#000000"> </text>
<polyline fill="none" stroke="#000000" points="179,-912.5 322,-912.5 "/>
<text text-anchor="start" x="187" y="-900.5" font-family="Helvetica,sans-Serif" font-size="10.00" fill="#000000">+ GPUd()</text>
<text text-anchor="start" x="187" y="-889.5" font-family="Helvetica,sans-Serif" font-size="10.00" fill="#000000">+ Spline1DContainer()</text>
<text text-anchor="start" x="187" y="-878.5" font-family="Helvetica,sans-Serif" font-size="10.00" fill="#000000">+ Spline1DContainer()</text>
<text text-anchor="start" x="187" y="-867.5" font-family="Helvetica,sans-Serif" font-size="10.00" fill="#000000">+ ~Spline1DContainer()</text>
<text text-anchor="start" x="187" y="-856.5" font-family="Helvetica,sans-Serif" font-size="10.00" fill="#000000">+ approximateFunction()</text>
<text text-anchor="start" x="187" y="-845.5" font-family="Helvetica,sans-Serif" font-size="10.00" fill="#000000">+ writeToFile()</text>
<text text-anchor="start" x="187" y="-834.5" font-family="Helvetica,sans-Serif" font-size="10.00" fill="#000000">+ GPUd()</text>
<text text-anchor="start" x="187" y="-823.5" font-family="Helvetica,sans-Serif" font-size="10.00" fill="#000000">+ GPUd()</text>
<text text-anchor="start" x="187" y="-812.5" font-family="Helvetica,sans-Serif" font-size="10.00" fill="#000000">+ GPUd()</text>
<text text-anchor="start" x="187" y="-801.5" font-family="Helvetica,sans-Serif" font-size="10.00" fill="#000000">+ GPUd()</text>
<text text-anchor="start" x="187" y="-790.5" font-family="Helvetica,sans-Serif" font-size="10.00" fill="#000000">+ GPUd()</text>
<text text-anchor="start" x="187" y="-779.5" font-family="Helvetica,sans-Serif" font-size="10.00" fill="#000000">+ GPUd()</text>
<text text-anchor="start" x="187" y="-768.5" font-family="Helvetica,sans-Serif" font-size="10.00" fill="#000000">+ GPUd()</text>
<text text-anchor="start" x="187" y="-757.5" font-family="Helvetica,sans-Serif" font-size="10.00" fill="#000000">+ GPUd()</text>
<text text-anchor="start" x="187" y="-746.5" font-family="Helvetica,sans-Serif" font-size="10.00" fill="#000000">+ GPUd()</text>
<text text-anchor="start" x="187" y="-735.5" font-family="Helvetica,sans-Serif" font-size="10.00" fill="#000000">+ GPUd()</text>
<text text-anchor="start" x="187" y="-724.5" font-family="Helvetica,sans-Serif" font-size="10.00" fill="#000000">+ GPUd()</text>
<text text-anchor="start" x="187" y="-713.5" font-family="Helvetica,sans-Serif" font-size="10.00" fill="#000000">+ GPUd()</text>
<text text-anchor="start" x="187" y="-702.5" font-family="Helvetica,sans-Serif" font-size="10.00" fill="#000000">+ GPUd()</text>
<text text-anchor="start" x="187" y="-691.5" font-family="Helvetica,sans-Serif" font-size="10.00" fill="#000000">+ GPUd()</text>
<text text-anchor="start" x="187" y="-680.5" font-family="Helvetica,sans-Serif" font-size="10.00" fill="#000000">+ GPUd()</text>
<text text-anchor="start" x="187" y="-669.5" font-family="Helvetica,sans-Serif" font-size="10.00" fill="#000000">+ GPUd()</text>
<text text-anchor="start" x="187" y="-658.5" font-family="Helvetica,sans-Serif" font-size="10.00" fill="#000000">+ GPUd()</text>
<text text-anchor="start" x="187" y="-647.5" font-family="Helvetica,sans-Serif" font-size="10.00" fill="#000000">+ print()</text>
<text text-anchor="start" x="187" y="-636.5" font-family="Helvetica,sans-Serif" font-size="10.00" fill="#000000">+ GPUd()</text>
<text text-anchor="start" x="187" y="-625.5" font-family="Helvetica,sans-Serif" font-size="10.00" fill="#000000">+ cloneFromObject()</text>
<text text-anchor="start" x="187" y="-614.5" font-family="Helvetica,sans-Serif" font-size="10.00" fill="#000000">+ moveBufferTo()</text>
<text text-anchor="start" x="187" y="-603.5" font-family="Helvetica,sans-Serif" font-size="10.00" fill="#000000">+ destroy()</text>
<text text-anchor="start" x="187" y="-592.5" font-family="Helvetica,sans-Serif" font-size="10.00" fill="#000000">+ setActualBufferAddress()</text>
<text text-anchor="start" x="187" y="-581.5" font-family="Helvetica,sans-Serif" font-size="10.00" fill="#000000">+ setFutureBufferAddress()</text>
<text text-anchor="start" x="187" y="-570.5" font-family="Helvetica,sans-Serif" font-size="10.00" fill="#000000">+ readFromFile()</text>
<text text-anchor="start" x="187" y="-559.5" font-family="Helvetica,sans-Serif" font-size="10.00" fill="#000000">+ test()</text>
<text text-anchor="start" x="187" y="-548.5" font-family="Helvetica,sans-Serif" font-size="10.00" fill="#000000"># getKnots()</text>
<text text-anchor="start" x="187" y="-537.5" font-family="Helvetica,sans-Serif" font-size="10.00" fill="#000000"># getUtoKnotMap()</text>
<text text-anchor="start" x="187" y="-526.5" font-family="Helvetica,sans-Serif" font-size="10.00" fill="#000000"># recreate()</text>
<text text-anchor="start" x="187" y="-515.5" font-family="Helvetica,sans-Serif" font-size="10.00" fill="#000000"># recreate()</text>
<text text-anchor="start" x="187" y="-504.5" font-family="Helvetica,sans-Serif" font-size="10.00" fill="#000000"># ClassDefNV()</text>
</a>
</g>
</g>
<!-- Node6&#45;&gt;Node5 -->
<g id="edge2" class="edge">
<title>Node6&#45;&gt;Node5</title>
<path fill="none" stroke="#191970" d="M184.0017,-487.3232C181.1486,-477.0745 178.3067,-466.9341 175.5,-457 173.8086,-451.0134 172.0513,-444.8625 170.2647,-438.6613"/>
<polygon fill="none" stroke="#191970" points="180.6908,-488.4811 186.7399,-497.1793 187.4353,-486.6073 180.6908,-488.4811"/>
</g>
<!-- Node7 -->
<g id="node4" class="node">
<title>Node7</title>
<g id="a_node4"><a xlink:href="../../dc/d5e/classGPUCA__NAMESPACE_1_1gpu_1_1FlatObject.html" target="_top" xlink:title="GPUCA_GPUCODE. ">
<polygon fill="none" stroke="#000000" points="140,-1053.5 140,-1407.5 283,-1407.5 283,-1053.5 140,-1053.5"/>
<text text-anchor="start" x="148" y="-1395.5" font-family="Helvetica,sans-Serif" font-size="10.00" fill="#000000">GPUCA_NAMESPACE::gpu</text>
<text text-anchor="middle" x="211.5" y="-1384.5" font-family="Helvetica,sans-Serif" font-size="10.00" fill="#000000">::FlatObject</text>
<polyline fill="none" stroke="#000000" points="140,-1377.5 283,-1377.5 "/>
<text text-anchor="middle" x="211.5" y="-1365.5" font-family="Helvetica,sans-Serif" font-size="10.00" fill="#000000"> </text>
<polyline fill="none" stroke="#000000" points="140,-1358.5 283,-1358.5 "/>
<text text-anchor="start" x="148" y="-1346.5" font-family="Helvetica,sans-Serif" font-size="10.00" fill="#000000">+ FlatObject()</text>
<text text-anchor="start" x="148" y="-1335.5" font-family="Helvetica,sans-Serif" font-size="10.00" fill="#000000">+ ~FlatObject()</text>
<text text-anchor="start" x="148" y="-1324.5" font-family="Helvetica,sans-Serif" font-size="10.00" fill="#000000">+ FlatObject()</text>
<text text-anchor="start" x="148" y="-1313.5" font-family="Helvetica,sans-Serif" font-size="10.00" fill="#000000">+ operator=()</text>
<text text-anchor="start" x="148" y="-1302.5" font-family="Helvetica,sans-Serif" font-size="10.00" fill="#000000">+ destroy()</text>
<text text-anchor="start" x="148" y="-1291.5" font-family="Helvetica,sans-Serif" font-size="10.00" fill="#000000">+ getFlatBufferSize()</text>
<text text-anchor="start" x="148" y="-1280.5" font-family="Helvetica,sans-Serif" font-size="10.00" fill="#000000">+ getFlatBufferPtr()</text>
<text text-anchor="start" x="148" y="-1269.5" font-family="Helvetica,sans-Serif" font-size="10.00" fill="#000000">+ isConstructed()</text>
<text text-anchor="start" x="148" y="-1258.5" font-family="Helvetica,sans-Serif" font-size="10.00" fill="#000000">+ isBufferInternal()</text>
<text text-anchor="start" x="148" y="-1247.5" font-family="Helvetica,sans-Serif" font-size="10.00" fill="#000000">+ adoptInternalBuffer()</text>
<text text-anchor="start" x="148" y="-1236.5" font-family="Helvetica,sans-Serif" font-size="10.00" fill="#000000">+ clearInternalBufferPtr()</text>
<text text-anchor="start" x="148" y="-1225.5" font-family="Helvetica,sans-Serif" font-size="10.00" fill="#000000">+ printC()</text>
<text text-anchor="start" x="148" y="-1214.5" font-family="Helvetica,sans-Serif" font-size="10.00" fill="#000000">+ alignSize()</text>
<text text-anchor="start" x="148" y="-1203.5" font-family="Helvetica,sans-Serif" font-size="10.00" fill="#000000">+ relocatePointer()</text>
<text text-anchor="start" x="148" y="-1192.5" font-family="Helvetica,sans-Serif" font-size="10.00" fill="#000000">+ writeToFile()</text>
<text text-anchor="start" x="148" y="-1181.5" font-family="Helvetica,sans-Serif" font-size="10.00" fill="#000000">+ readFromFile()</text>
<text text-anchor="start" x="148" y="-1170.5" font-family="Helvetica,sans-Serif" font-size="10.00" fill="#000000">+ stressTest()</text>
<text text-anchor="start" x="148" y="-1159.5" font-family="Helvetica,sans-Serif" font-size="10.00" fill="#000000"># startConstruction()</text>
<text text-anchor="start" x="148" y="-1148.5" font-family="Helvetica,sans-Serif" font-size="10.00" fill="#000000"># finishConstruction()</text>
<text text-anchor="start" x="148" y="-1137.5" font-family="Helvetica,sans-Serif" font-size="10.00" fill="#000000"># cloneFromObject()</text>
<text text-anchor="start" x="148" y="-1126.5" font-family="Helvetica,sans-Serif" font-size="10.00" fill="#000000"># releaseInternalBuffer()</text>
<text text-anchor="start" x="148" y="-1115.5" font-family="Helvetica,sans-Serif" font-size="10.00" fill="#000000"># moveBufferTo()</text>
<text text-anchor="start" x="148" y="-1104.5" font-family="Helvetica,sans-Serif" font-size="10.00" fill="#000000"># setActualBufferAddress()</text>
<text text-anchor="start" x="148" y="-1093.5" font-family="Helvetica,sans-Serif" font-size="10.00" fill="#000000"># setFutureBufferAddress()</text>
<text text-anchor="start" x="148" y="-1082.5" font-family="Helvetica,sans-Serif" font-size="10.00" fill="#000000"># ClassDefNV()</text>
<text text-anchor="start" x="148" y="-1071.5" font-family="Helvetica,sans-Serif" font-size="10.00" fill="#000000"># getClassAlignmentBytes()</text>
<text text-anchor="start" x="148" y="-1060.5" font-family="Helvetica,sans-Serif" font-size="10.00" fill="#000000"># getBufferAlignmentBytes()</text>
</a>
</g>
</g>
<!-- Node7&#45;&gt;Node6 -->
<g id="edge3" class="edge">
<title>Node7&#45;&gt;Node6</title>
<path fill="none" stroke="#191970" d="M226.2414,-1043.2092C228.0505,-1020.2235 229.9179,-996.4983 231.7759,-972.8926"/>
<polygon fill="none" stroke="#191970" points="222.7378,-1043.1184 225.4422,-1053.3622 229.7162,-1043.6677 222.7378,-1043.1184"/>
</g>
<!-- Node8 -->
<g id="node5" class="node">
<title>Node8</title>
<polygon fill="none" stroke="#bfbfbf" points="19,-1466.5 19,-1523.5 54,-1523.5 54,-1466.5 19,-1466.5"/>
<text text-anchor="middle" x="36.5" y="-1511.5" font-family="Helvetica,sans-Serif" font-size="10.00" fill="#000000">char</text>
<polyline fill="none" stroke="#bfbfbf" points="19,-1504.5 54,-1504.5 "/>
<text text-anchor="middle" x="36.5" y="-1492.5" font-family="Helvetica,sans-Serif" font-size="10.00" fill="#000000"> </text>
<polyline fill="none" stroke="#bfbfbf" points="19,-1485.5 54,-1485.5 "/>
<text text-anchor="middle" x="36.5" y="-1473.5" font-family="Helvetica,sans-Serif" font-size="10.00" fill="#000000"> </text>
</g>
<!-- Node8&#45;&gt;Node7 -->
<g id="edge4" class="edge">
<title>Node8&#45;&gt;Node7</title>
<path fill="none" stroke="#404040" d="M37.5518,-1466.2663C39.5133,-1452.4508 44.1173,-1436.6256 54.5,-1426 74.8519,-1405.1721 94.8757,-1426.3341 117.5,-1408 122.3701,-1404.0534 127.0198,-1399.7858 131.456,-1395.2617"/>
<polygon fill="none" stroke="#404040" points="131.6061,-1395.0984 132.7206,-1387.9739 139.7257,-1386.2625 138.6112,-1393.387 131.6061,-1395.0984"/>
<text text-anchor="middle" x="104" y="-1440" font-family="Helvetica,sans-Serif" font-size="10.00" fill="#000000"> #mFlatBufferPtr</text>
<text text-anchor="middle" x="104" y="-1429" font-family="Helvetica,sans-Serif" font-size="10.00" fill="#000000">#mFlatBufferContainer</text>
</g>
<!-- Node9 -->
<g id="node6" class="node">
<title>Node9</title>
<polygon fill="none" stroke="#bfbfbf" points="311,-1466.5 311,-1523.5 340,-1523.5 340,-1466.5 311,-1466.5"/>
<text text-anchor="middle" x="325.5" y="-1511.5" font-family="Helvetica,sans-Serif" font-size="10.00" fill="#000000">int</text>
<polyline fill="none" stroke="#bfbfbf" points="311,-1504.5 340,-1504.5 "/>
<text text-anchor="middle" x="325.5" y="-1492.5" font-family="Helvetica,sans-Serif" font-size="10.00" fill="#000000"> </text>
<polyline fill="none" stroke="#bfbfbf" points="311,-1485.5 340,-1485.5 "/>
<text text-anchor="middle" x="325.5" y="-1473.5" font-family="Helvetica,sans-Serif" font-size="10.00" fill="#000000"> </text>
</g>
<!-- Node9&#45;&gt;Node6 -->
<g id="edge8" class="edge">
<title>Node9&#45;&gt;Node6</title>
<path fill="none" stroke="#404040" d="M340.1467,-1479.3822C347.1684,-1470.8162 354.8349,-1459.5983 358.5,-1448 361.4462,-1438.6767 359.2572,-1435.7484 358.5,-1426 347.0676,-1278.8195 322.1349,-1115.5826 299.1035,-984.7368"/>
<polygon fill="none" stroke="#404040" points="299.0431,-984.395 294.059,-979.1836 296.9525,-972.5785 301.9367,-977.7899 299.0431,-984.395"/>
<text text-anchor="middle" x="399" y="-1244.5" font-family="Helvetica,sans-Serif" font-size="10.00" fill="#000000"> #mUtoKnotMap</text>
<text text-anchor="middle" x="399" y="-1233.5" font-family="Helvetica,sans-Serif" font-size="10.00" fill="#000000">#mUmax</text>
<text text-anchor="middle" x="399" y="-1222.5" font-family="Helvetica,sans-Serif" font-size="10.00" fill="#000000">#mNumberOfKnots</text>
<text text-anchor="middle" x="399" y="-1211.5" font-family="Helvetica,sans-Serif" font-size="10.00" fill="#000000">#mYdim</text>
</g>
<!-- Node9&#45;&gt;Node7 -->
<g id="edge5" class="edge">
<title>Node9&#45;&gt;Node7</title>
<path fill="none" stroke="#404040" d="M310.7772,-1483.2458C300.6905,-1474.4898 287.7022,-1461.7196 279.5,-1448 273.9093,-1438.6485 268.7345,-1428.792 263.9509,-1418.6474"/>
<polygon fill="none" stroke="#404040" points="263.8684,-1418.4654 257.7475,-1414.653 258.9124,-1407.5366 265.0333,-1411.349 263.8684,-1418.4654"/>
<text text-anchor="middle" x="319" y="-1434.5" font-family="Helvetica,sans-Serif" font-size="10.00" fill="#000000"> #mFlatBufferSize</text>
</g>
<!-- Node10 -->
<g id="node7" class="node">
<title>Node10</title>
<polygon fill="none" stroke="#bfbfbf" points="130.5,-1466.5 130.5,-1523.5 186.5,-1523.5 186.5,-1466.5 130.5,-1466.5"/>
<text text-anchor="middle" x="158.5" y="-1511.5" font-family="Helvetica,sans-Serif" font-size="10.00" fill="#000000">unsigned</text>
<polyline fill="none" stroke="#bfbfbf" points="130.5,-1504.5 186.5,-1504.5 "/>
<text text-anchor="middle" x="158.5" y="-1492.5" font-family="Helvetica,sans-Serif" font-size="10.00" fill="#000000"> </text>
<polyline fill="none" stroke="#bfbfbf" points="130.5,-1485.5 186.5,-1485.5 "/>
<text text-anchor="middle" x="158.5" y="-1473.5" font-family="Helvetica,sans-Serif" font-size="10.00" fill="#000000"> </text>
</g>
<!-- Node10&#45;&gt;Node7 -->
<g id="edge6" class="edge">
<title>Node10&#45;&gt;Node7</title>
<path fill="none" stroke="#404040" d="M157.3482,-1466.3459C157.2512,-1453.8951 157.6808,-1439.1733 159.5,-1426 159.8022,-1423.812 160.1209,-1421.6135 160.4551,-1419.4063"/>
<polygon fill="none" stroke="#404040" points="160.46,-1419.3754 157.4743,-1412.8114 162.3851,-1407.5308 165.3707,-1414.0948 160.46,-1419.3754"/>
<text text-anchor="middle" x="208" y="-1434.5" font-family="Helvetica,sans-Serif" font-size="10.00" fill="#000000"> #mConstructionMask</text>
</g>
<!-- Node11 -->
<g id="node8" class="node">
<title>Node11</title>
<polygon fill="none" stroke="#bfbfbf" points="64.5,-1202 64.5,-1259 108.5,-1259 108.5,-1202 64.5,-1202"/>
<text text-anchor="middle" x="86.5" y="-1247" font-family="Helvetica,sans-Serif" font-size="10.00" fill="#000000">DataT</text>
<polyline fill="none" stroke="#bfbfbf" points="64.5,-1240 108.5,-1240 "/>
<text text-anchor="middle" x="86.5" y="-1228" font-family="Helvetica,sans-Serif" font-size="10.00" fill="#000000"> </text>
<polyline fill="none" stroke="#bfbfbf" points="64.5,-1221 108.5,-1221 "/>
<text text-anchor="middle" x="86.5" y="-1209" font-family="Helvetica,sans-Serif" font-size="10.00" fill="#000000"> </text>
</g>
<!-- Node11&#45;&gt;Node4 -->
<g id="edge11" class="edge">
<title>Node11&#45;&gt;Node4</title>
<path fill="none" stroke="#404040" d="M83.6961,-1201.7122C80.0879,-1163.6116 73.8826,-1094.3287 70.5,-1035 68.9307,-1007.4748 69.1768,-1000.5616 68.5,-973 60.4807,-646.4073 45.2849,-564.3817 59.5,-238 59.8579,-229.7829 60.3355,-221.2975 60.8944,-212.7633"/>
<polygon fill="none" stroke="#404040" points="60.9015,-212.6594 57.3277,-206.3962 61.7345,-200.6883 65.3084,-206.9515 60.9015,-212.6594"/>
<text text-anchor="middle" x="62" y="-465.5" font-family="Helvetica,sans-Serif" font-size="10.00" fill="#000000"> +u</text>
</g>
<!-- Node11&#45;&gt;Node5 -->
<g id="edge9" class="edge">
<title>Node11&#45;&gt;Node5</title>
<path fill="none" stroke="#404040" d="M84.1643,-1201.9695C76.6703,-1103.4817 55.9479,-768.9032 95.5,-497 97.7148,-481.7739 100.9856,-465.9489 104.7708,-450.4487"/>
<polygon fill="none" stroke="#404040" points="104.8068,-450.3061 102.4044,-443.5069 107.7566,-438.6743 110.159,-445.4734 104.8068,-450.3061"/>
<text text-anchor="middle" x="103" y="-732.5" font-family="Helvetica,sans-Serif" font-size="10.00" fill="#000000"> +u</text>
</g>
<!-- Node11&#45;&gt;Node6 -->
<g id="edge7" class="edge">
<title>Node11&#45;&gt;Node6</title>
<path fill="none" stroke="#404040" d="M91.8389,-1201.7156C98.8366,-1166.1826 112.3822,-1104.1778 130.5,-1053 140.6521,-1024.3231 145.1019,-1017.7979 159.5,-991 163.9374,-982.741 166.5371,-981.4968 170.5,-973 171.6602,-970.5124 172.8118,-968.0031 173.9544,-965.4748"/>
<polygon fill="none" stroke="#404040" points="174.0536,-965.2504 172.8214,-958.1453 178.9061,-954.2752 180.1382,-961.3803 174.0536,-965.2504"/>
<text text-anchor="middle" x="191.5" y="-1027" font-family="Helvetica,sans-Serif" font-size="10.00" fill="#000000"> #mXtoUscale</text>
<text text-anchor="middle" x="191.5" y="-1016" font-family="Helvetica,sans-Serif" font-size="10.00" fill="#000000">#mParameters</text>
<text text-anchor="middle" x="191.5" y="-1005" font-family="Helvetica,sans-Serif" font-size="10.00" fill="#000000">+xMax</text>
<text text-anchor="middle" x="191.5" y="-994" font-family="Helvetica,sans-Serif" font-size="10.00" fill="#000000">#mXmin</text>
</g>
<!-- Node12 -->
<g id="node9" class="node">
<title>Node12</title>
<polygon fill="none" stroke="#bfbfbf" points="120,-706.5 120,-763.5 161,-763.5 161,-706.5 120,-706.5"/>
<text text-anchor="middle" x="140.5" y="-751.5" font-family="Helvetica,sans-Serif" font-size="10.00" fill="#000000">const</text>
<polyline fill="none" stroke="#bfbfbf" points="120,-744.5 161,-744.5 "/>
<text text-anchor="middle" x="140.5" y="-732.5" font-family="Helvetica,sans-Serif" font-size="10.00" fill="#000000"> </text>
<polyline fill="none" stroke="#bfbfbf" points="120,-725.5 161,-725.5 "/>
<text text-anchor="middle" x="140.5" y="-713.5" font-family="Helvetica,sans-Serif" font-size="10.00" fill="#000000"> </text>
</g>
<!-- Node12&#45;&gt;Node5 -->
<g id="edge10" class="edge">
<title>Node12&#45;&gt;Node5</title>
<path fill="none" stroke="#404040" d="M140.5,-706.4847C140.5,-653.7424 140.5,-538.3476 140.5,-450.7449"/>
<polygon fill="none" stroke="#404040" points="140.5001,-450.5777 136.5,-444.5777 140.5,-438.5777 144.5,-444.5777 140.5001,-450.5777"/>
<text text-anchor="middle" x="156" y="-471" font-family="Helvetica,sans-Serif" font-size="10.00" fill="#000000"> +u</text>
<text text-anchor="middle" x="156" y="-460" font-family="Helvetica,sans-Serif" font-size="10.00" fill="#000000">+knotL</text>
</g>
</g>
</svg>
        <g id="navigator" transform="translate(0 0)" fill="#404254">
                <rect fill="#f2f5e9" fill-opacity="0.5" stroke="#606060" stroke-width=".5" x="0" y="0" width="60" height="60"/>
                <use id="zoomplus" xlink:href="#zoomPlus" x="17" y="9" onmousedown="handleZoom(evt,'in')"/>
                <use id="zoomminus" xlink:href="#zoomMin" x="42" y="9" onmousedown="handleZoom(evt,'out')"/>
                <use id="reset" xlink:href="#resetDef" x="30" y="36" onmousedown="handleReset()"/>
                <g id="arrowUp" xlink:href="#dirArrow" transform="translate(30 24)" onmousedown="handlePan(0,-1)">
                  <use xlink:href="#rim" fill="#404040">
                        <set attributeName="fill" to="#808080" begin="arrowUp.mouseover" end="arrowUp.mouseout"/>
                  </use>
                  <path fill="none" stroke="white" stroke-width="1.5" d="M0,-3.0v7 M-2.5,-0.5L0,-3.0L2.5,-0.5"/>
                </g>
                <g id="arrowRight" xlink:href="#dirArrow" transform="rotate(90) translate(36 -43)" onmousedown="handlePan(1,0)">
                  <use xlink:href="#rim" fill="#404040">
                        <set attributeName="fill" to="#808080" begin="arrowRight.mouseover" end="arrowRight.mouseout"/>
                  </use>
                  <path fill="none" stroke="white" stroke-width="1.5" d="M0,-3.0v7 M-2.5,-0.5L0,-3.0L2.5,-0.5"/>
                </g>
                <g id="arrowDown" xlink:href="#dirArrow" transform="rotate(180) translate(-30 -48)" onmousedown="handlePan(0,1)">
                  <use xlink:href="#rim" fill="#404040">
                        <set attributeName="fill" to="#808080" begin="arrowDown.mouseover" end="arrowDown.mouseout"/>
                  </use>
                  <path fill="none" stroke="white" stroke-width="1.5" d="M0,-3.0v7 M-2.5,-0.5L0,-3.0L2.5,-0.5"/>
                </g>
                <g id="arrowLeft" xlink:href="#dirArrow" transform="rotate(270) translate(-36 17)" onmousedown="handlePan(-1,0)">
                  <use xlink:href="#rim" fill="#404040">
                        <set attributeName="fill" to="#808080" begin="arrowLeft.mouseover" end="arrowLeft.mouseout"/>
                  </use>
                  <path fill="none" stroke="white" stroke-width="1.5" d="M0,-3.0v7 M-2.5,-0.5L0,-3.0L2.5,-0.5"/>
                </g>
        </g>
        <svg viewBox="0 0 15 15" width="100%" height="30px" preserveAspectRatio="xMaxYMin meet">
         <g id="arrow_out" transform="scale(0.3 0.3)">
          <a xlink:href="classGPUCA__NAMESPACE_1_1gpu_1_1Spline1DSpec_3_01DataT_00_01YdimT_00_011_01_4__coll__graph_org.svg" target="_base">
           <rect id="button" ry="5" rx="5" y="6" x="6" height="38" width="38"
                fill="#f2f5e9" fill-opacity="0.5" stroke="#606060" stroke-width="1.0"/>
           <path id="arrow"
             d="M 11.500037,31.436501 C 11.940474,20.09759 22.043105,11.32322 32.158766,21.979434 L 37.068811,17.246167 C 37.068811,17.246167 37.088388,32 37.088388,32 L 22.160133,31.978069 C 22.160133,31.978069 26.997745,27.140456 26.997745,27.140456 C 18.528582,18.264221 13.291696,25.230495 11.500037,31.436501 z"
             style="fill:#404040;"/>
          </a>
         </g>
        </svg>
</svg>
