<?xml version="1.0" encoding="UTF-8" standalone="no"?>
<!DOCTYPE svg PUBLIC "-//W3C//DTD SVG 1.1//EN"
 "http://www.w3.org/Graphics/SVG/1.1/DTD/svg11.dtd">
<!-- Generated by graphviz version 2.40.1 (20161225.0304)
 -->
<!-- Title: /home/runner/work/AliceO2/AliceO2/Detectors/CPV/simulation/include/CPVSimulation/Digitizer.h Pages: 1 -->
<svg width="435pt" height="217pt"
 viewBox="0.00 0.00 435.00 217.00" xmlns="http://www.w3.org/2000/svg" xmlns:xlink="http://www.w3.org/1999/xlink">
<g id="graph0" class="graph" transform="scale(1 1) rotate(0) translate(4 213)">
<title>/home/runner/work/AliceO2/AliceO2/Detectors/CPV/simulation/include/CPVSimulation/Digitizer.h</title>
<!-- Node46 -->
<g id="node1" class="node">
<title>Node46</title>
<polygon fill="#bfbfbf" stroke="#000000" points="82.5,-156.5 82.5,-208.5 249.5,-208.5 249.5,-156.5 82.5,-156.5"/>
<text text-anchor="start" x="90.5" y="-196.5" font-family="Helvetica,sans-Serif" font-size="10.00" fill="#000000">/home/runner/work/AliceO2</text>
<text text-anchor="start" x="90.5" y="-185.5" font-family="Helvetica,sans-Serif" font-size="10.00" fill="#000000">/AliceO2/Detectors/CPV</text>
<text text-anchor="start" x="90.5" y="-174.5" font-family="Helvetica,sans-Serif" font-size="10.00" fill="#000000">/simulation/include/CPVSimulation</text>
<text text-anchor="middle" x="166" y="-163.5" font-family="Helvetica,sans-Serif" font-size="10.00" fill="#000000">/Digitizer.h</text>
</g>
<!-- Node47 -->
<g id="node2" class="node">
<title>Node47</title>
<g id="a_node2"><a xlink:href="../../d3/d11/CPV_2simulation_2src_2Digitizer_8cxx.html" target="_top" xlink:title="/home/runner/work/AliceO2\l/AliceO2/Detectors/CPV\l/simulation/src/Digitizer.cxx">
<polygon fill="none" stroke="#000000" points="0,-78.5 0,-119.5 138,-119.5 138,-78.5 0,-78.5"/>
<text text-anchor="start" x="8" y="-107.5" font-family="Helvetica,sans-Serif" font-size="10.00" fill="#000000">/home/runner/work/AliceO2</text>
<text text-anchor="start" x="8" y="-96.5" font-family="Helvetica,sans-Serif" font-size="10.00" fill="#000000">/AliceO2/Detectors/CPV</text>
<text text-anchor="middle" x="69" y="-85.5" font-family="Helvetica,sans-Serif" font-size="10.00" fill="#000000">/simulation/src/Digitizer.cxx</text>
</a>
</g>
</g>
<!-- Node46&#45;&gt;Node47 -->
<g id="edge1" class="edge">
<title>Node46&#45;&gt;Node47</title>
<path fill="none" stroke="#191970" d="M127.9585,-149.753C116.1298,-139.5705 103.4296,-128.6378 92.857,-119.5367"/>
<polygon fill="#191970" stroke="#191970" points="125.7125,-152.4377 135.5747,-156.3092 130.2794,-147.1326 125.7125,-152.4377"/>
</g>
<!-- Node48 -->
<g id="node3" class="node">
<title>Node48</title>
<g id="a_node3"><a xlink:href="../../d1/d37/CPVDigitizerSpec_8h.html" target="_top" xlink:title="/home/runner/work/AliceO2\l/AliceO2/Steer/DigitizerWorkflow\l/src/CPVDigitizerSpec.h">
<polygon fill="none" stroke="#000000" points="194.5,-78.5 194.5,-119.5 355.5,-119.5 355.5,-78.5 194.5,-78.5"/>
<text text-anchor="start" x="202.5" y="-107.5" font-family="Helvetica,sans-Serif" font-size="10.00" fill="#000000">/home/runner/work/AliceO2</text>
<text text-anchor="start" x="202.5" y="-96.5" font-family="Helvetica,sans-Serif" font-size="10.00" fill="#000000">/AliceO2/Steer/DigitizerWorkflow</text>
<text text-anchor="middle" x="275" y="-85.5" font-family="Helvetica,sans-Serif" font-size="10.00" fill="#000000">/src/CPVDigitizerSpec.h</text>
</a>
</g>
</g>
<!-- Node46&#45;&gt;Node48 -->
<g id="edge2" class="edge">
<title>Node46&#45;&gt;Node48</title>
<path fill="none" stroke="#191970" d="M208.3681,-150.0437C221.7677,-139.7789 236.198,-128.7245 248.1916,-119.5367"/>
<polygon fill="#191970" stroke="#191970" points="205.9992,-147.4494 200.1892,-156.3092 210.2561,-153.0063 205.9992,-147.4494"/>
</g>
<!-- Node49 -->
<g id="node4" class="node">
<title>Node49</title>
<g id="a_node4"><a xlink:href="../../da/dfe/CPVDigitizerSpec_8cxx.html" target="_top" xlink:title="/home/runner/work/AliceO2\l/AliceO2/Steer/DigitizerWorkflow\l/src/CPVDigitizerSpec.cxx">
<polygon fill="none" stroke="#000000" points="85.5,-.5 85.5,-41.5 246.5,-41.5 246.5,-.5 85.5,-.5"/>
<text text-anchor="start" x="93.5" y="-29.5" font-family="Helvetica,sans-Serif" font-size="10.00" fill="#000000">/home/runner/work/AliceO2</text>
<text text-anchor="start" x="93.5" y="-18.5" font-family="Helvetica,sans-Serif" font-size="10.00" fill="#000000">/AliceO2/Steer/DigitizerWorkflow</text>
<text text-anchor="middle" x="166" y="-7.5" font-family="Helvetica,sans-Serif" font-size="10.00" fill="#000000">/src/CPVDigitizerSpec.cxx</text>
</a>
</g>
</g>
<!-- Node46&#45;&gt;Node49 -->
<g id="edge5" class="edge">
<title>Node46&#45;&gt;Node49</title>
<path fill="none" stroke="#191970" d="M166,-145.8303C166,-113.6074 166,-67.8818 166,-41.6502"/>
<polygon fill="#191970" stroke="#191970" points="162.5001,-146.1928 166,-156.1928 169.5001,-146.1928 162.5001,-146.1928"/>
</g>
<!-- Node48&#45;&gt;Node49 -->
<g id="edge3" class="edge">
<title>Node48&#45;&gt;Node49</title>
<path fill="none" stroke="#191970" d="M237.5867,-72.2272C223.541,-62.1761 207.8108,-50.9196 194.6808,-41.5239"/>
<polygon fill="#191970" stroke="#191970" points="235.907,-75.329 246.0762,-78.3022 239.9807,-69.6364 235.907,-75.329"/>
</g>
<!-- Node50 -->
<g id="node5" class="node">
<title>Node50</title>
<g id="a_node5"><a xlink:href="../../d2/dd7/SimpleDigitizerWorkflow_8cxx.html" target="_top" xlink:title="/home/runner/work/AliceO2\l/AliceO2/Steer/DigitizerWorkflow\l/src/SimpleDigitizerWorkflow.cxx">
<polygon fill="none" stroke="#000000" points="265,-.5 265,-41.5 427,-41.5 427,-.5 265,-.5"/>
<text text-anchor="start" x="273" y="-29.5" font-family="Helvetica,sans-Serif" font-size="10.00" fill="#000000">/home/runner/work/AliceO2</text>
<text text-anchor="start" x="273" y="-18.5" font-family="Helvetica,sans-Serif" font-size="10.00" fill="#000000">/AliceO2/Steer/DigitizerWorkflow</text>
<text text-anchor="middle" x="346" y="-7.5" font-family="Helvetica,sans-Serif" font-size="10.00" fill="#000000">/src/SimpleDigitizerWorkflow.cxx</text>
</a>
</g>
</g>
<!-- Node48&#45;&gt;Node50 -->
<g id="edge4" class="edge">
<title>Node48&#45;&gt;Node50</title>
<path fill="none" stroke="#191970" d="M300.7959,-70.6609C309.5185,-61.0783 319.0877,-50.5657 327.167,-41.6898"/>
<polygon fill="#191970" stroke="#191970" points="298.1699,-68.3463 294.0267,-78.0974 303.3465,-73.0583 298.1699,-68.3463"/>
</g>
</g>
</svg>
