<?xml version="1.0" encoding="UTF-8" standalone="no"?>
<!DOCTYPE svg PUBLIC "-//W3C//DTD SVG 1.1//EN"
 "http://www.w3.org/Graphics/SVG/1.1/DTD/svg11.dtd">
<!-- Generated by graphviz version 2.40.1 (20161225.0304)
 -->
<!-- Title: /home/runner/work/AliceO2/AliceO2/Detectors/MUON/MCH/Contour/test/ContourCreator.cxx Pages: 1 -->
<!--zoomable 453 -->
<svg id="main" version="1.1" xmlns="http://www.w3.org/2000/svg" xmlns:xlink="http://www.w3.org/1999/xlink" xml:space="preserve" onload="init(evt)">
<style type="text/css"><![CDATA[
.edge:hover path { stroke: red; }
.edge:hover polygon { stroke: red; fill: red; }
]]></style>
<script type="text/javascript"><![CDATA[
var edges = document.getElementsByTagName('g');
if (edges && edges.length) {
  for (var i=0;i<edges.length;i++) {
    if (edges[i].id.substr(0,4)=='edge') {
      edges[i].setAttribute('class','edge');
    }
  }
}
]]></script>
        <defs>
                <circle id="rim" cx="0" cy="0" r="7"/>
                <circle id="rim2" cx="0" cy="0" r="3.5"/>
                <g id="zoomPlus">
                        <use xlink:href="#rim" fill="#404040">
                                <set attributeName="fill" to="#808080" begin="zoomplus.mouseover" end="zoomplus.mouseout"/>
                        </use>
                        <path d="M-4,0h8M0,-4v8" fill="none" stroke="white" stroke-width="1.5" pointer-events="none"/>
                </g>
                <g id="zoomMin">
                        <use xlink:href="#rim" fill="#404040">
                                <set attributeName="fill" to="#808080" begin="zoomminus.mouseover" end="zoomminus.mouseout"/>
                        </use>
                        <path d="M-4,0h8" fill="none" stroke="white" stroke-width="1.5" pointer-events="none"/>
                </g>
                <g id="dirArrow">
                        <path fill="none" stroke="white" stroke-width="1.5" d="M0,-3.0v7 M-2.5,-0.5L0,-3.0L2.5,-0.5"/>
                </g>
               <g id="resetDef">
                       <use xlink:href="#rim2" fill="#404040">
                               <set attributeName="fill" to="#808080" begin="reset.mouseover" end="reset.mouseout"/>
                       </use>
               </g>
        </defs>

<script type="text/javascript">
var viewWidth = 1072;
var viewHeight = 453;
var sectionId = 'dynsection-0';
</script>
<script xlink:href="../../svgpan.js"/>
<svg id="graph" class="graph">
<g id="viewport">
<title>/home/runner/work/AliceO2/AliceO2/Detectors/MUON/MCH/Contour/test/ContourCreator.cxx</title>
<!-- Node0 -->
<g id="node1" class="node">
<title>Node0</title>
<polygon fill="#bfbfbf" stroke="#000000" points="91.5,-403.5 91.5,-444.5 279.5,-444.5 279.5,-403.5 91.5,-403.5"/>
<text text-anchor="start" x="99.5" y="-432.5" font-family="Helvetica,sans-Serif" font-size="10.00" fill="#000000">/home/runner/work/AliceO2</text>
<text text-anchor="start" x="99.5" y="-421.5" font-family="Helvetica,sans-Serif" font-size="10.00" fill="#000000">/AliceO2/Detectors/MUON</text>
<text text-anchor="middle" x="185.5" y="-410.5" font-family="Helvetica,sans-Serif" font-size="10.00" fill="#000000">/MCH/Contour/test/ContourCreator.cxx</text>
</g>
<!-- Node1 -->
<g id="node2" class="node">
<title>Node1</title>
<polygon fill="none" stroke="#bfbfbf" points="0,-342 0,-361 119,-361 119,-342 0,-342"/>
<text text-anchor="middle" x="59.5" y="-349" font-family="Helvetica,sans-Serif" font-size="10.00" fill="#000000">boost/test/unit_test.hpp</text>
</g>
<!-- Node0&#45;&gt;Node1 -->
<g id="edge1" class="edge">
<title>Node0&#45;&gt;Node1</title>
<path fill="none" stroke="#191970" d="M149.7305,-403.4183C129.0666,-391.5284 103.563,-376.8537 84.9475,-366.1424"/>
<polygon fill="#191970" stroke="#191970" points="86.5718,-363.039 76.1587,-361.0853 83.0807,-369.1064 86.5718,-363.039"/>
</g>
<!-- Node2 -->
<g id="node3" class="node">
<title>Node2</title>
<polygon fill="none" stroke="#bfbfbf" points="137.5,-342 137.5,-361 183.5,-361 183.5,-342 137.5,-342"/>
<text text-anchor="middle" x="160.5" y="-349" font-family="Helvetica,sans-Serif" font-size="10.00" fill="#000000">chrono</text>
</g>
<!-- Node0&#45;&gt;Node2 -->
<g id="edge2" class="edge">
<title>Node0&#45;&gt;Node2</title>
<path fill="none" stroke="#191970" d="M178.4029,-403.4183C174.8458,-393.1029 170.566,-380.6913 167.0829,-370.5904"/>
<polygon fill="#191970" stroke="#191970" points="170.3741,-369.3981 163.8053,-361.0853 163.7565,-371.6801 170.3741,-369.3981"/>
</g>
<!-- Node3 -->
<g id="node4" class="node">
<title>Node3</title>
<polygon fill="none" stroke="#bfbfbf" points="313.5,-56.5 313.5,-75.5 367.5,-75.5 367.5,-56.5 313.5,-56.5"/>
<text text-anchor="middle" x="340.5" y="-63.5" font-family="Helvetica,sans-Serif" font-size="10.00" fill="#000000">iostream</text>
</g>
<!-- Node0&#45;&gt;Node3 -->
<g id="edge3" class="edge">
<title>Node0&#45;&gt;Node3</title>
<path fill="none" stroke="#191970" d="M192.0609,-403.3516C199.7632,-377.2386 211.5,-330.7601 211.5,-290 211.5,-290 211.5,-290 211.5,-178 211.5,-128.6478 266.0015,-96.1337 304.1532,-79.4194"/>
<polygon fill="#191970" stroke="#191970" points="305.5941,-82.6104 313.4574,-75.5097 302.8823,-76.157 305.5941,-82.6104"/>
</g>
<!-- Node4 -->
<g id="node5" class="node">
<title>Node4</title>
<g id="a_node5"><a xlink:href="../../d4/d84/ContourCreator_8h.html" target="_top" xlink:title="../include/MCHContour\l/ContourCreator.h">
<polygon fill="none" stroke="#000000" points="437,-336.5 437,-366.5 554,-366.5 554,-336.5 437,-336.5"/>
<text text-anchor="start" x="445" y="-354.5" font-family="Helvetica,sans-Serif" font-size="10.00" fill="#000000">../include/MCHContour</text>
<text text-anchor="middle" x="495.5" y="-343.5" font-family="Helvetica,sans-Serif" font-size="10.00" fill="#000000">/ContourCreator.h</text>
</a>
</g>
</g>
<!-- Node0&#45;&gt;Node4 -->
<g id="edge4" class="edge">
<title>Node0&#45;&gt;Node4</title>
<path fill="none" stroke="#191970" d="M273.5044,-403.4183C322.0981,-392.0537 381.5704,-378.1448 426.7244,-367.5846"/>
<polygon fill="#191970" stroke="#191970" points="427.7727,-370.934 436.7129,-365.2486 426.1786,-364.1179 427.7727,-370.934"/>
</g>
<!-- Node5 -->
<g id="node6" class="node">
<title>Node5</title>
<g id="a_node6"><a xlink:href="../../dc/d15/ContourCreator_8inl.html" target="_top" xlink:title="ContourCreator.inl">
<polygon fill="none" stroke="#000000" points="643.5,-280.5 643.5,-299.5 739.5,-299.5 739.5,-280.5 643.5,-280.5"/>
<text text-anchor="middle" x="691.5" y="-287.5" font-family="Helvetica,sans-Serif" font-size="10.00" fill="#000000">ContourCreator.inl</text>
</a>
</g>
</g>
<!-- Node4&#45;&gt;Node5 -->
<g id="edge5" class="edge">
<title>Node4&#45;&gt;Node5</title>
<path fill="none" stroke="#191970" d="M543.447,-336.4554C576.5804,-326.059 620.1483,-312.3884 651.4308,-302.5727"/>
<polygon fill="#191970" stroke="#191970" points="652.6335,-305.8637 661.127,-299.5303 650.5378,-299.1848 652.6335,-305.8637"/>
</g>
<!-- Node5&#45;&gt;Node3 -->
<g id="edge8" class="edge">
<title>Node5&#45;&gt;Node3</title>
<path fill="none" stroke="#191970" d="M647.2327,-280.4202C547.6291,-257.8427 311.2337,-198.1886 268.5,-132 254.7983,-110.778 281.4234,-91.9058 306.0819,-79.8347"/>
<polygon fill="#191970" stroke="#191970" points="307.74,-82.9242 315.348,-75.5507 304.8024,-76.5704 307.74,-82.9242"/>
</g>
<!-- Node6 -->
<g id="node7" class="node">
<title>Node6</title>
<polygon fill="none" stroke="#bfbfbf" points="277.5,-112.5 277.5,-131.5 317.5,-131.5 317.5,-112.5 277.5,-112.5"/>
<text text-anchor="middle" x="297.5" y="-119.5" font-family="Helvetica,sans-Serif" font-size="10.00" fill="#000000">utility</text>
</g>
<!-- Node5&#45;&gt;Node6 -->
<g id="edge6" class="edge">
<title>Node5&#45;&gt;Node6</title>
<path fill="none" stroke="#191970" d="M663.4728,-280.347C637.9901,-271.4143 599.4479,-257.5127 566.5,-244 477.7633,-207.607 375.1048,-159.2717 326.2312,-135.8692"/>
<polygon fill="#191970" stroke="#191970" points="327.7235,-132.7033 317.1936,-131.5321 324.6949,-139.0142 327.7235,-132.7033"/>
</g>
<!-- Node7 -->
<g id="node8" class="node">
<title>Node7</title>
<polygon fill="none" stroke="#bfbfbf" points="816.5,-56.5 816.5,-75.5 860.5,-75.5 860.5,-56.5 816.5,-56.5"/>
<text text-anchor="middle" x="838.5" y="-63.5" font-family="Helvetica,sans-Serif" font-size="10.00" fill="#000000">vector</text>
</g>
<!-- Node5&#45;&gt;Node7 -->
<g id="edge7" class="edge">
<title>Node5&#45;&gt;Node7</title>
<path fill="none" stroke="#191970" d="M739.5729,-285.2603C788.8795,-279.3737 867.2373,-267.1473 931.5,-244 1002.9344,-218.2695 1043.5875,-206.0196 1060.5,-132 1062.48,-123.3344 1066.1116,-118.8936 1060.5,-112 1036.9225,-83.0362 926.3099,-71.7361 870.6542,-67.8277"/>
<polygon fill="#191970" stroke="#191970" points="870.8261,-64.3315 860.6162,-67.1614 870.3624,-71.3162 870.8261,-64.3315"/>
</g>
<!-- Node8 -->
<g id="node9" class="node">
<title>Node8</title>
<g id="a_node9"><a xlink:href="../../d5/de0/Edge_8h.html" target="_top" xlink:title="Edge.h">
<polygon fill="none" stroke="#000000" points="453,-168.5 453,-187.5 500,-187.5 500,-168.5 453,-168.5"/>
<text text-anchor="middle" x="476.5" y="-175.5" font-family="Helvetica,sans-Serif" font-size="10.00" fill="#000000">Edge.h</text>
</a>
</g>
</g>
<!-- Node5&#45;&gt;Node8 -->
<g id="edge9" class="edge">
<title>Node5&#45;&gt;Node8</title>
<path fill="none" stroke="#191970" d="M673.1692,-280.4509C635.3264,-260.7375 548.384,-215.4465 503.8632,-192.2543"/>
<polygon fill="#191970" stroke="#191970" points="505.2702,-189.0409 494.7844,-187.5249 502.0362,-195.249 505.2702,-189.0409"/>
</g>
<!-- Node17 -->
<g id="node18" class="node">
<title>Node17</title>
<g id="a_node18"><a xlink:href="../../dc/ddd/Polygon_8h.html" target="_top" xlink:title="Polygon.h">
<polygon fill="none" stroke="#000000" points="661.5,-168.5 661.5,-187.5 721.5,-187.5 721.5,-168.5 661.5,-168.5"/>
<text text-anchor="middle" x="691.5" y="-175.5" font-family="Helvetica,sans-Serif" font-size="10.00" fill="#000000">Polygon.h</text>
</a>
</g>
</g>
<!-- Node5&#45;&gt;Node17 -->
<g id="edge25" class="edge">
<title>Node5&#45;&gt;Node17</title>
<path fill="none" stroke="#191970" d="M691.5,-280.4509C691.5,-262.184 691.5,-221.9553 691.5,-197.6976"/>
<polygon fill="#191970" stroke="#191970" points="695.0001,-197.5249 691.5,-187.5249 688.0001,-197.5249 695.0001,-197.5249"/>
</g>
<!-- Node20 -->
<g id="node21" class="node">
<title>Node20</title>
<polygon fill="none" stroke="#bfbfbf" points="977.5,-112.5 977.5,-131.5 1033.5,-131.5 1033.5,-112.5 977.5,-112.5"/>
<text text-anchor="middle" x="1005.5" y="-119.5" font-family="Helvetica,sans-Serif" font-size="10.00" fill="#000000">algorithm</text>
</g>
<!-- Node5&#45;&gt;Node20 -->
<g id="edge47" class="edge">
<title>Node5&#45;&gt;Node20</title>
<path fill="none" stroke="#191970" d="M739.8334,-283.3972C794.1067,-275.33 878.1712,-260.6785 905.5,-244 947.7648,-218.2061 980.2088,-167.9953 995.6231,-140.7211"/>
<polygon fill="#191970" stroke="#191970" points="998.777,-142.249 1000.5182,-131.7982 992.6399,-138.8821 998.777,-142.249"/>
</g>
<!-- Node23 -->
<g id="node24" class="node">
<title>Node23</title>
<g id="a_node24"><a xlink:href="../../db/d08/Contour_8h.html" target="_top" xlink:title="Contour.h">
<polygon fill="none" stroke="#000000" points="837,-224.5 837,-243.5 896,-243.5 896,-224.5 837,-224.5"/>
<text text-anchor="middle" x="866.5" y="-231.5" font-family="Helvetica,sans-Serif" font-size="10.00" fill="#000000">Contour.h</text>
</a>
</g>
</g>
<!-- Node5&#45;&gt;Node23 -->
<g id="edge37" class="edge">
<title>Node5&#45;&gt;Node23</title>
<path fill="none" stroke="#191970" d="M721.5836,-280.3733C750.6834,-271.0613 794.9523,-256.8953 826.903,-246.671"/>
<polygon fill="#191970" stroke="#191970" points="828.3515,-249.8824 836.809,-243.5011 826.218,-243.2155 828.3515,-249.8824"/>
</g>
<!-- Node25 -->
<g id="node26" class="node">
<title>Node25</title>
<g id="a_node26"><a xlink:href="../../dc/ded/SegmentTree_8h.html" target="_top" xlink:title="SegmentTree.h">
<polygon fill="none" stroke="#000000" points="740,-168.5 740,-187.5 823,-187.5 823,-168.5 740,-168.5"/>
<text text-anchor="middle" x="781.5" y="-175.5" font-family="Helvetica,sans-Serif" font-size="10.00" fill="#000000">SegmentTree.h</text>
</a>
</g>
</g>
<!-- Node5&#45;&gt;Node25 -->
<g id="edge42" class="edge">
<title>Node5&#45;&gt;Node25</title>
<path fill="none" stroke="#191970" d="M699.1733,-280.4509C714.3171,-261.6054 748.2443,-219.3849 767.4842,-195.4419"/>
<polygon fill="#191970" stroke="#191970" points="770.3104,-197.5124 773.8461,-187.5249 764.8538,-193.1276 770.3104,-197.5124"/>
</g>
<!-- Node8&#45;&gt;Node3 -->
<g id="edge12" class="edge">
<title>Node8&#45;&gt;Node3</title>
<path fill="none" stroke="#191970" d="M464.9047,-168.4509C441.519,-149.1921 388.4908,-105.5218 359.7992,-81.8935"/>
<polygon fill="#191970" stroke="#191970" points="362.0102,-79.1802 352.0659,-75.5249 357.5603,-84.5838 362.0102,-79.1802"/>
</g>
<!-- Node8&#45;&gt;Node6 -->
<g id="edge10" class="edge">
<title>Node8&#45;&gt;Node6</title>
<path fill="none" stroke="#191970" d="M452.7302,-170.5636C420.3581,-160.436 362.4168,-142.3092 327.2141,-131.296"/>
<polygon fill="#191970" stroke="#191970" points="328.0893,-127.9026 317.5004,-128.2571 325.9992,-134.5833 328.0893,-127.9026"/>
</g>
<!-- Node8&#45;&gt;Node7 -->
<g id="edge11" class="edge">
<title>Node8&#45;&gt;Node7</title>
<path fill="none" stroke="#191970" d="M500.0793,-173.7191C534.6794,-167.0355 600.9083,-152.7053 654.5,-132 672.3028,-125.1219 674.8833,-119.3415 692.5,-112 730.6816,-96.0883 776.4055,-82.5207 806.3858,-74.3287"/>
<polygon fill="#191970" stroke="#191970" points="807.5495,-77.6401 816.2954,-71.6603 805.7293,-70.8809 807.5495,-77.6401"/>
</g>
<!-- Node9 -->
<g id="node10" class="node">
<title>Node9</title>
<polygon fill="none" stroke="#bfbfbf" points="385.5,-56.5 385.5,-75.5 435.5,-75.5 435.5,-56.5 385.5,-56.5"/>
<text text-anchor="middle" x="410.5" y="-63.5" font-family="Helvetica,sans-Serif" font-size="10.00" fill="#000000">iomanip</text>
</g>
<!-- Node8&#45;&gt;Node9 -->
<g id="edge13" class="edge">
<title>Node8&#45;&gt;Node9</title>
<path fill="none" stroke="#191970" d="M467.767,-168.2704C459.9829,-159.2862 448.6007,-145.352 440.5,-132 431.4333,-117.0558 423.375,-98.9027 417.8993,-85.42"/>
<polygon fill="#191970" stroke="#191970" points="421.0147,-83.7791 414.0916,-75.759 414.5023,-86.3459 421.0147,-83.7791"/>
</g>
<!-- Node10 -->
<g id="node11" class="node">
<title>Node10</title>
<g id="a_node11"><a xlink:href="../../d1/d55/Interval_8h.html" target="_top" xlink:title="Interval.h">
<polygon fill="none" stroke="#000000" points="588,-112.5 588,-131.5 645,-131.5 645,-112.5 588,-112.5"/>
<text text-anchor="middle" x="616.5" y="-119.5" font-family="Helvetica,sans-Serif" font-size="10.00" fill="#000000">Interval.h</text>
</a>
</g>
</g>
<!-- Node8&#45;&gt;Node10 -->
<g id="edge14" class="edge">
<title>Node8&#45;&gt;Node10</title>
<path fill="none" stroke="#191970" d="M500.2491,-168.5004C523.077,-159.3692 557.7832,-145.4867 583.3339,-135.2664"/>
<polygon fill="#191970" stroke="#191970" points="584.6495,-138.5099 592.6344,-131.5462 582.0497,-132.0105 584.6495,-138.5099"/>
</g>
<!-- Node16 -->
<g id="node17" class="node">
<title>Node16</title>
<g id="a_node17"><a xlink:href="../../dd/dbc/Detectors_2MUON_2MCH_2Contour_2include_2MCHContour_2Vertex_8h.html" target="_top" xlink:title="Vertex.h">
<polygon fill="none" stroke="#000000" points="450,-112.5 450,-131.5 503,-131.5 503,-112.5 450,-112.5"/>
<text text-anchor="middle" x="476.5" y="-119.5" font-family="Helvetica,sans-Serif" font-size="10.00" fill="#000000">Vertex.h</text>
</a>
</g>
</g>
<!-- Node8&#45;&gt;Node16 -->
<g id="edge21" class="edge">
<title>Node8&#45;&gt;Node16</title>
<path fill="none" stroke="#191970" d="M476.5,-168.2455C476.5,-160.9382 476.5,-150.6944 476.5,-141.7046"/>
<polygon fill="#191970" stroke="#191970" points="480.0001,-141.6426 476.5,-131.6427 473.0001,-141.6427 480.0001,-141.6426"/>
</g>
<!-- Node10&#45;&gt;Node7 -->
<g id="edge15" class="edge">
<title>Node10&#45;&gt;Node7</title>
<path fill="none" stroke="#191970" d="M645.0681,-114.7936C686.5912,-104.3193 763.3714,-84.9514 806.6614,-74.0314"/>
<polygon fill="#191970" stroke="#191970" points="807.5516,-77.4165 816.3918,-71.5768 805.8394,-70.6291 807.5516,-77.4165"/>
</g>
<!-- Node11 -->
<g id="node12" class="node">
<title>Node11</title>
<polygon fill="none" stroke="#bfbfbf" points="602.5,-56.5 602.5,-75.5 654.5,-75.5 654.5,-56.5 602.5,-56.5"/>
<text text-anchor="middle" x="628.5" y="-63.5" font-family="Helvetica,sans-Serif" font-size="10.00" fill="#000000">ostream</text>
</g>
<!-- Node10&#45;&gt;Node11 -->
<g id="edge16" class="edge">
<title>Node10&#45;&gt;Node11</title>
<path fill="none" stroke="#191970" d="M618.5902,-112.2455C620.1561,-104.9382 622.3512,-94.6944 624.2776,-85.7046"/>
<polygon fill="#191970" stroke="#191970" points="627.7607,-86.1541 626.4337,-75.6427 620.916,-84.6873 627.7607,-86.1541"/>
</g>
<!-- Node12 -->
<g id="node13" class="node">
<title>Node12</title>
<g id="a_node13"><a xlink:href="../../d2/dc4/Helper_8h.html" target="_top" xlink:title="Helper.h">
<polygon fill="none" stroke="#000000" points="454,-56.5 454,-75.5 507,-75.5 507,-56.5 454,-56.5"/>
<text text-anchor="middle" x="480.5" y="-63.5" font-family="Helvetica,sans-Serif" font-size="10.00" fill="#000000">Helper.h</text>
</a>
</g>
</g>
<!-- Node10&#45;&gt;Node12 -->
<g id="edge17" class="edge">
<title>Node10&#45;&gt;Node12</title>
<path fill="none" stroke="#191970" d="M593.1208,-112.3733C570.9955,-103.2629 537.5866,-89.5062 512.8981,-79.3404"/>
<polygon fill="#191970" stroke="#191970" points="514.1536,-76.0723 503.5742,-75.5011 511.4883,-82.5451 514.1536,-76.0723"/>
</g>
<!-- Node13 -->
<g id="node14" class="node">
<title>Node13</title>
<polygon fill="none" stroke="#bfbfbf" points="398.5,-.5 398.5,-19.5 442.5,-19.5 442.5,-.5 398.5,-.5"/>
<text text-anchor="middle" x="420.5" y="-7.5" font-family="Helvetica,sans-Serif" font-size="10.00" fill="#000000">cmath</text>
</g>
<!-- Node12&#45;&gt;Node13 -->
<g id="edge18" class="edge">
<title>Node12&#45;&gt;Node13</title>
<path fill="none" stroke="#191970" d="M470.0488,-56.2455C461.2731,-48.0549 448.5446,-36.1749 438.186,-26.5069"/>
<polygon fill="#191970" stroke="#191970" points="440.5301,-23.9072 430.8314,-19.6427 435.7539,-29.0246 440.5301,-23.9072"/>
</g>
<!-- Node14 -->
<g id="node15" class="node">
<title>Node14</title>
<polygon fill="none" stroke="#bfbfbf" points="460.5,-.5 460.5,-19.5 500.5,-19.5 500.5,-.5 460.5,-.5"/>
<text text-anchor="middle" x="480.5" y="-7.5" font-family="Helvetica,sans-Serif" font-size="10.00" fill="#000000">limits</text>
</g>
<!-- Node12&#45;&gt;Node14 -->
<g id="edge19" class="edge">
<title>Node12&#45;&gt;Node14</title>
<path fill="none" stroke="#191970" d="M480.5,-56.2455C480.5,-48.9382 480.5,-38.6944 480.5,-29.7046"/>
<polygon fill="#191970" stroke="#191970" points="484.0001,-29.6426 480.5,-19.6427 477.0001,-29.6427 484.0001,-29.6426"/>
</g>
<!-- Node15 -->
<g id="node16" class="node">
<title>Node15</title>
<polygon fill="none" stroke="#bfbfbf" points="518.5,-.5 518.5,-19.5 564.5,-19.5 564.5,-.5 518.5,-.5"/>
<text text-anchor="middle" x="541.5" y="-7.5" font-family="Helvetica,sans-Serif" font-size="10.00" fill="#000000">cstdint</text>
</g>
<!-- Node12&#45;&gt;Node15 -->
<g id="edge20" class="edge">
<title>Node12&#45;&gt;Node15</title>
<path fill="none" stroke="#191970" d="M491.1254,-56.2455C500.0473,-48.0549 512.988,-36.1749 523.5192,-26.5069"/>
<polygon fill="#191970" stroke="#191970" points="525.9968,-28.9837 530.9964,-19.6427 521.2629,-23.8271 525.9968,-28.9837"/>
</g>
<!-- Node16&#45;&gt;Node3 -->
<g id="edge22" class="edge">
<title>Node16&#45;&gt;Node3</title>
<path fill="none" stroke="#191970" d="M453.1208,-112.3733C430.9955,-103.2629 397.5866,-89.5062 372.8981,-79.3404"/>
<polygon fill="#191970" stroke="#191970" points="374.1536,-76.0723 363.5742,-75.5011 371.4883,-82.5451 374.1536,-76.0723"/>
</g>
<!-- Node16&#45;&gt;Node9 -->
<g id="edge23" class="edge">
<title>Node16&#45;&gt;Node9</title>
<path fill="none" stroke="#191970" d="M465.0037,-112.2455C455.2558,-103.9746 441.0741,-91.9416 429.6202,-82.2232"/>
<polygon fill="#191970" stroke="#191970" points="431.7541,-79.4437 421.8646,-75.6427 427.2253,-84.7813 431.7541,-79.4437"/>
</g>
<!-- Node16&#45;&gt;Node12 -->
<g id="edge24" class="edge">
<title>Node16&#45;&gt;Node12</title>
<path fill="none" stroke="#191970" d="M477.1967,-112.2455C477.7187,-104.9382 478.4504,-94.6944 479.0925,-85.7046"/>
<polygon fill="#191970" stroke="#191970" points="482.5898,-85.8667 479.8112,-75.6427 475.6076,-85.3679 482.5898,-85.8667"/>
</g>
<!-- Node17&#45;&gt;Node3 -->
<g id="edge26" class="edge">
<title>Node17&#45;&gt;Node3</title>
<path fill="none" stroke="#191970" d="M661.4452,-176.3756C613.2344,-172.9266 516.3363,-162.4937 440.5,-132 432.177,-128.6533 389.6661,-99.8499 362.8199,-81.4162"/>
<polygon fill="#191970" stroke="#191970" points="364.6102,-78.3996 354.388,-75.6141 360.642,-84.1662 364.6102,-78.3996"/>
</g>
<!-- Node17&#45;&gt;Node6 -->
<g id="edge27" class="edge">
<title>Node17&#45;&gt;Node6</title>
<path fill="none" stroke="#191970" d="M661.2377,-173.6988C587.901,-163.2753 401.3252,-136.7569 327.8739,-126.3171"/>
<polygon fill="#191970" stroke="#191970" points="328.2776,-122.8394 317.8845,-124.8973 327.2925,-129.7697 328.2776,-122.8394"/>
</g>
<!-- Node17&#45;&gt;Node7 -->
<g id="edge28" class="edge">
<title>Node17&#45;&gt;Node7</title>
<path fill="none" stroke="#191970" d="M707.7242,-168.3876C722.4035,-159.4823 744.4254,-145.598 762.5,-132 783.2375,-116.3986 805.4895,-96.6889 820.521,-82.8869"/>
<polygon fill="#191970" stroke="#191970" points="823.1161,-85.2539 828.0736,-75.8905 818.359,-80.1187 823.1161,-85.2539"/>
</g>
<!-- Node17&#45;&gt;Node16 -->
<g id="edge36" class="edge">
<title>Node17&#45;&gt;Node16</title>
<path fill="none" stroke="#191970" d="M661.3656,-170.4458C627.631,-161.9475 571.096,-147.5817 512.944,-132.0827"/>
<polygon fill="#191970" stroke="#191970" points="513.7852,-128.6848 503.2206,-129.4845 511.9781,-135.4475 513.7852,-128.6848"/>
</g>
<!-- Node18 -->
<g id="node19" class="node">
<title>Node18</title>
<polygon fill="none" stroke="#bfbfbf" points="886,-112.5 886,-131.5 959,-131.5 959,-112.5 886,-112.5"/>
<text text-anchor="middle" x="922.5" y="-119.5" font-family="Helvetica,sans-Serif" font-size="10.00" fill="#000000">initializer_list</text>
</g>
<!-- Node17&#45;&gt;Node18 -->
<g id="edge29" class="edge">
<title>Node17&#45;&gt;Node18</title>
<path fill="none" stroke="#191970" d="M721.634,-170.4369C724.962,-169.6104 728.3021,-168.7848 731.5,-168 780.7604,-155.9108 837.2422,-142.3443 875.9329,-133.0963"/>
<polygon fill="#191970" stroke="#191970" points="876.9481,-136.4524 885.8612,-130.7247 875.3216,-129.6439 876.9481,-136.4524"/>
</g>
<!-- Node19 -->
<g id="node20" class="node">
<title>Node19</title>
<polygon fill="none" stroke="#bfbfbf" points="701.5,-112.5 701.5,-131.5 753.5,-131.5 753.5,-112.5 701.5,-112.5"/>
<text text-anchor="middle" x="727.5" y="-119.5" font-family="Helvetica,sans-Serif" font-size="10.00" fill="#000000">sstream</text>
</g>
<!-- Node17&#45;&gt;Node19 -->
<g id="edge30" class="edge">
<title>Node17&#45;&gt;Node19</title>
<path fill="none" stroke="#191970" d="M697.7707,-168.2455C702.7264,-160.5367 709.783,-149.5598 715.7776,-140.2348"/>
<polygon fill="#191970" stroke="#191970" points="718.8376,-141.9471 721.3011,-131.6427 712.9494,-138.1618 718.8376,-141.9471"/>
</g>
<!-- Node17&#45;&gt;Node20 -->
<g id="edge31" class="edge">
<title>Node17&#45;&gt;Node20</title>
<path fill="none" stroke="#191970" d="M721.5721,-170.1593C724.9117,-169.3848 728.2715,-168.6473 731.5,-168 832.8004,-147.6907 862.4587,-153.5431 967.2586,-132.068"/>
<polygon fill="#191970" stroke="#191970" points="968.2226,-135.4424 977.2979,-129.9752 966.794,-128.5897 968.2226,-135.4424"/>
</g>
<!-- Node21 -->
<g id="node22" class="node">
<title>Node21</title>
<g id="a_node22"><a xlink:href="../../d0/ddc/BBox_8h.html" target="_top" xlink:title="BBox.h">
<polygon fill="none" stroke="#000000" points="521,-112.5 521,-131.5 570,-131.5 570,-112.5 521,-112.5"/>
<text text-anchor="middle" x="545.5" y="-119.5" font-family="Helvetica,sans-Serif" font-size="10.00" fill="#000000">BBox.h</text>
</a>
</g>
</g>
<!-- Node17&#45;&gt;Node21 -->
<g id="edge32" class="edge">
<title>Node17&#45;&gt;Node21</title>
<path fill="none" stroke="#191970" d="M666.4017,-168.3733C642.5445,-159.2226 606.4665,-145.3844 579.929,-135.2057"/>
<polygon fill="#191970" stroke="#191970" points="580.861,-131.8145 570.2708,-131.5011 578.3541,-138.3503 580.861,-131.8145"/>
</g>
<!-- Node21&#45;&gt;Node11 -->
<g id="edge35" class="edge">
<title>Node21&#45;&gt;Node11</title>
<path fill="none" stroke="#191970" d="M559.9575,-112.2455C572.5732,-103.7337 591.0944,-91.2375 605.7045,-81.3801"/>
<polygon fill="#191970" stroke="#191970" points="607.8761,-84.1371 614.2082,-75.6427 603.9609,-78.3343 607.8761,-84.1371"/>
</g>
<!-- Node21&#45;&gt;Node12 -->
<g id="edge33" class="edge">
<title>Node21&#45;&gt;Node12</title>
<path fill="none" stroke="#191970" d="M534.1779,-112.2455C524.5777,-103.9746 510.6108,-91.9416 499.3305,-82.2232"/>
<polygon fill="#191970" stroke="#191970" points="501.553,-79.5182 491.6924,-75.6427 496.984,-84.8214 501.553,-79.5182"/>
</g>
<!-- Node22 -->
<g id="node23" class="node">
<title>Node22</title>
<polygon fill="none" stroke="#bfbfbf" points="525,-56.5 525,-75.5 584,-75.5 584,-56.5 525,-56.5"/>
<text text-anchor="middle" x="554.5" y="-63.5" font-family="Helvetica,sans-Serif" font-size="10.00" fill="#000000">stdexcept</text>
</g>
<!-- Node21&#45;&gt;Node22 -->
<g id="edge34" class="edge">
<title>Node21&#45;&gt;Node22</title>
<path fill="none" stroke="#191970" d="M547.0677,-112.2455C548.2421,-104.9382 549.8884,-94.6944 551.3332,-85.7046"/>
<polygon fill="#191970" stroke="#191970" points="554.8191,-86.0714 552.9503,-75.6427 547.9078,-84.9606 554.8191,-86.0714"/>
</g>
<!-- Node23&#45;&gt;Node7 -->
<g id="edge39" class="edge">
<title>Node23&#45;&gt;Node7</title>
<path fill="none" stroke="#191970" d="M896.1241,-227.0239C957.3874,-211.2425 1088.5889,-169.6387 1042.5,-112 1021.3409,-85.5385 922.6003,-73.2106 870.6496,-68.473"/>
<polygon fill="#191970" stroke="#191970" points="870.8852,-64.9803 860.6193,-67.5997 870.278,-71.9539 870.8852,-64.9803"/>
</g>
<!-- Node23&#45;&gt;Node17 -->
<g id="edge38" class="edge">
<title>Node23&#45;&gt;Node17</title>
<path fill="none" stroke="#191970" d="M836.8136,-224.5004C807.6502,-215.1681 762.9777,-200.8729 730.864,-190.5965"/>
<polygon fill="#191970" stroke="#191970" points="731.923,-187.2606 721.332,-187.5462 729.7895,-193.9276 731.923,-187.2606"/>
</g>
<!-- Node23&#45;&gt;Node18 -->
<g id="edge41" class="edge">
<title>Node23&#45;&gt;Node18</title>
<path fill="none" stroke="#191970" d="M875.0338,-224.3749C882.5779,-215.461 893.4496,-201.5713 900.5,-188 908.1561,-173.2626 913.9346,-155.3163 917.6438,-141.8597"/>
<polygon fill="#191970" stroke="#191970" points="921.1352,-142.3404 920.2685,-131.7811 914.3612,-140.5762 921.1352,-142.3404"/>
</g>
<!-- Node24 -->
<g id="node25" class="node">
<title>Node24</title>
<polygon fill="none" stroke="#bfbfbf" points="842,-168.5 842,-187.5 891,-187.5 891,-168.5 842,-168.5"/>
<text text-anchor="middle" x="866.5" y="-175.5" font-family="Helvetica,sans-Serif" font-size="10.00" fill="#000000">cassert</text>
</g>
<!-- Node23&#45;&gt;Node24 -->
<g id="edge40" class="edge">
<title>Node23&#45;&gt;Node24</title>
<path fill="none" stroke="#191970" d="M866.5,-224.2455C866.5,-216.9382 866.5,-206.6944 866.5,-197.7046"/>
<polygon fill="#191970" stroke="#191970" points="870.0001,-197.6426 866.5,-187.6427 863.0001,-197.6427 870.0001,-197.6426"/>
</g>
<!-- Node25&#45;&gt;Node7 -->
<g id="edge43" class="edge">
<title>Node25&#45;&gt;Node7</title>
<path fill="none" stroke="#191970" d="M798.2162,-168.2157C810.29,-160.1557 825.7778,-147.5441 833.5,-132 840.6097,-117.6888 841.4706,-99.4504 840.7737,-85.7743"/>
<polygon fill="#191970" stroke="#191970" points="844.24,-85.2221 839.9248,-75.5458 837.264,-85.8011 844.24,-85.2221"/>
</g>
<!-- Node25&#45;&gt;Node10 -->
<g id="edge46" class="edge">
<title>Node25&#45;&gt;Node10</title>
<path fill="none" stroke="#191970" d="M753.1355,-168.3733C725.8173,-159.1016 684.3204,-145.0178 654.2262,-134.804"/>
<polygon fill="#191970" stroke="#191970" points="655.0887,-131.4008 644.4944,-131.5011 652.839,-138.0294 655.0887,-131.4008"/>
</g>
<!-- Node25&#45;&gt;Node11 -->
<g id="edge44" class="edge">
<title>Node25&#45;&gt;Node11</title>
<path fill="none" stroke="#191970" d="M781.3809,-168.1156C780.6745,-153.8645 777.2893,-127.5538 762.5,-112 736.9534,-85.1328 695.0364,-73.9569 664.8824,-69.3087"/>
<polygon fill="#191970" stroke="#191970" points="665.1356,-65.8108 654.7532,-67.9218 664.186,-72.7461 665.1356,-65.8108"/>
</g>
<!-- Node25&#45;&gt;Node20 -->
<g id="edge45" class="edge">
<title>Node25&#45;&gt;Node20</title>
<path fill="none" stroke="#191970" d="M821.3283,-168.4806C857.1589,-159.8546 911.4893,-146.6222 967.5011,-132.2205"/>
<polygon fill="#191970" stroke="#191970" points="968.4267,-135.5964 977.2358,-129.71 966.6785,-128.8182 968.4267,-135.5964"/>
</g>
</g>
</svg>
        <g id="navigator" transform="translate(0 0)" fill="#404254">
                <rect fill="#f2f5e9" fill-opacity="0.5" stroke="#606060" stroke-width=".5" x="0" y="0" width="60" height="60"/>
                <use id="zoomplus" xlink:href="#zoomPlus" x="17" y="9" onmousedown="handleZoom(evt,'in')"/>
                <use id="zoomminus" xlink:href="#zoomMin" x="42" y="9" onmousedown="handleZoom(evt,'out')"/>
                <use id="reset" xlink:href="#resetDef" x="30" y="36" onmousedown="handleReset()"/>
                <g id="arrowUp" xlink:href="#dirArrow" transform="translate(30 24)" onmousedown="handlePan(0,-1)">
                  <use xlink:href="#rim" fill="#404040">
                        <set attributeName="fill" to="#808080" begin="arrowUp.mouseover" end="arrowUp.mouseout"/>
                  </use>
                  <path fill="none" stroke="white" stroke-width="1.5" d="M0,-3.0v7 M-2.5,-0.5L0,-3.0L2.5,-0.5"/>
                </g>
                <g id="arrowRight" xlink:href="#dirArrow" transform="rotate(90) translate(36 -43)" onmousedown="handlePan(1,0)">
                  <use xlink:href="#rim" fill="#404040">
                        <set attributeName="fill" to="#808080" begin="arrowRight.mouseover" end="arrowRight.mouseout"/>
                  </use>
                  <path fill="none" stroke="white" stroke-width="1.5" d="M0,-3.0v7 M-2.5,-0.5L0,-3.0L2.5,-0.5"/>
                </g>
                <g id="arrowDown" xlink:href="#dirArrow" transform="rotate(180) translate(-30 -48)" onmousedown="handlePan(0,1)">
                  <use xlink:href="#rim" fill="#404040">
                        <set attributeName="fill" to="#808080" begin="arrowDown.mouseover" end="arrowDown.mouseout"/>
                  </use>
                  <path fill="none" stroke="white" stroke-width="1.5" d="M0,-3.0v7 M-2.5,-0.5L0,-3.0L2.5,-0.5"/>
                </g>
                <g id="arrowLeft" xlink:href="#dirArrow" transform="rotate(270) translate(-36 17)" onmousedown="handlePan(-1,0)">
                  <use xlink:href="#rim" fill="#404040">
                        <set attributeName="fill" to="#808080" begin="arrowLeft.mouseover" end="arrowLeft.mouseout"/>
                  </use>
                  <path fill="none" stroke="white" stroke-width="1.5" d="M0,-3.0v7 M-2.5,-0.5L0,-3.0L2.5,-0.5"/>
                </g>
        </g>
        <svg viewBox="0 0 15 15" width="100%" height="30px" preserveAspectRatio="xMaxYMin meet">
         <g id="arrow_out" transform="scale(0.3 0.3)">
          <a xlink:href="ContourCreator_8cxx__incl_org.svg" target="_base">
           <rect id="button" ry="5" rx="5" y="6" x="6" height="38" width="38"
                fill="#f2f5e9" fill-opacity="0.5" stroke="#606060" stroke-width="1.0"/>
           <path id="arrow"
             d="M 11.500037,31.436501 C 11.940474,20.09759 22.043105,11.32322 32.158766,21.979434 L 37.068811,17.246167 C 37.068811,17.246167 37.088388,32 37.088388,32 L 22.160133,31.978069 C 22.160133,31.978069 26.997745,27.140456 26.997745,27.140456 C 18.528582,18.264221 13.291696,25.230495 11.500037,31.436501 z"
             style="fill:#404040;"/>
          </a>
         </g>
        </svg>
</svg>
