<?xml version="1.0" encoding="UTF-8" standalone="no"?>
<!DOCTYPE svg PUBLIC "-//W3C//DTD SVG 1.1//EN"
 "http://www.w3.org/Graphics/SVG/1.1/DTD/svg11.dtd">
<!-- Generated by graphviz version 2.40.1 (20161225.0304)
 -->
<!-- Title: /home/runner/work/AliceO2/AliceO2/Detectors/TPC/reconstruction/include/TPCReconstruction/SyncPatternMonitor.h Pages: 1 -->
<svg width="267pt" height="117pt"
 viewBox="0.00 0.00 266.50 117.00" xmlns="http://www.w3.org/2000/svg" xmlns:xlink="http://www.w3.org/1999/xlink">
<g id="graph0" class="graph" transform="scale(1 1) rotate(0) translate(4 113)">
<title>/home/runner/work/AliceO2/AliceO2/Detectors/TPC/reconstruction/include/TPCReconstruction/SyncPatternMonitor.h</title>
<!-- Node0 -->
<g id="node1" class="node">
<title>Node0</title>
<polygon fill="#bfbfbf" stroke="#000000" points="43,-56.5 43,-108.5 246,-108.5 246,-56.5 43,-56.5"/>
<text text-anchor="start" x="51" y="-96.5" font-family="Helvetica,sans-Serif" font-size="10.00" fill="#000000">/home/runner/work/AliceO2</text>
<text text-anchor="start" x="51" y="-85.5" font-family="Helvetica,sans-Serif" font-size="10.00" fill="#000000">/AliceO2/Detectors/TPC</text>
<text text-anchor="start" x="51" y="-74.5" font-family="Helvetica,sans-Serif" font-size="10.00" fill="#000000">/reconstruction/include</text>
<text text-anchor="middle" x="144.5" y="-63.5" font-family="Helvetica,sans-Serif" font-size="10.00" fill="#000000">/TPCReconstruction/SyncPatternMonitor.h</text>
</g>
<!-- Node1 -->
<g id="node2" class="node">
<title>Node1</title>
<polygon fill="none" stroke="#bfbfbf" points="0,-.5 0,-19.5 71,-19.5 71,-.5 0,-.5"/>
<text text-anchor="middle" x="35.5" y="-7.5" font-family="Helvetica,sans-Serif" font-size="10.00" fill="#000000">FairLogger.h</text>
</g>
<!-- Node0&#45;&gt;Node1 -->
<g id="edge1" class="edge">
<title>Node0&#45;&gt;Node1</title>
<path fill="none" stroke="#191970" d="M105.1485,-56.3258C89.4919,-45.912 72.0235,-34.2931 58.4975,-25.2965"/>
<polygon fill="#191970" stroke="#191970" points="60.0986,-22.158 49.8339,-19.534 56.2219,-27.9865 60.0986,-22.158"/>
</g>
<!-- Node2 -->
<g id="node3" class="node">
<title>Node2</title>
<polygon fill="none" stroke="#bfbfbf" points="89,-.5 89,-19.5 134,-19.5 134,-.5 89,-.5"/>
<text text-anchor="middle" x="111.5" y="-7.5" font-family="Helvetica,sans-Serif" font-size="10.00" fill="#000000">iosfwd</text>
</g>
<!-- Node0&#45;&gt;Node2 -->
<g id="edge2" class="edge">
<title>Node0&#45;&gt;Node2</title>
<path fill="none" stroke="#191970" d="M132.5862,-56.3258C128.4387,-47.2138 123.8711,-37.179 120.0507,-28.7857"/>
<polygon fill="#191970" stroke="#191970" points="123.168,-27.1855 115.8396,-19.534 116.7969,-30.0855 123.168,-27.1855"/>
</g>
<!-- Node3 -->
<g id="node4" class="node">
<title>Node3</title>
<polygon fill="none" stroke="#bfbfbf" points="152.5,-.5 152.5,-19.5 202.5,-19.5 202.5,-.5 152.5,-.5"/>
<text text-anchor="middle" x="177.5" y="-7.5" font-family="Helvetica,sans-Serif" font-size="10.00" fill="#000000">iomanip</text>
</g>
<!-- Node0&#45;&gt;Node3 -->
<g id="edge3" class="edge">
<title>Node0&#45;&gt;Node3</title>
<path fill="none" stroke="#191970" d="M156.4138,-56.3258C160.5613,-47.2138 165.1289,-37.179 168.9493,-28.7857"/>
<polygon fill="#191970" stroke="#191970" points="172.2031,-30.0855 173.1604,-19.534 165.832,-27.1855 172.2031,-30.0855"/>
</g>
<!-- Node4 -->
<g id="node5" class="node">
<title>Node4</title>
<polygon fill="none" stroke="#bfbfbf" points="220.5,-.5 220.5,-19.5 258.5,-19.5 258.5,-.5 220.5,-.5"/>
<text text-anchor="middle" x="239.5" y="-7.5" font-family="Helvetica,sans-Serif" font-size="10.00" fill="#000000">array</text>
</g>
<!-- Node0&#45;&gt;Node4 -->
<g id="edge4" class="edge">
<title>Node0&#45;&gt;Node4</title>
<path fill="none" stroke="#191970" d="M178.7972,-56.3258C192.1804,-46.1123 207.0826,-34.7396 218.7724,-25.8184"/>
<polygon fill="#191970" stroke="#191970" points="221.181,-28.3831 227.0072,-19.534 216.9343,-22.8184 221.181,-28.3831"/>
</g>
</g>
</svg>
