<?xml version="1.0" encoding="UTF-8" standalone="no"?>
<!DOCTYPE svg PUBLIC "-//W3C//DTD SVG 1.1//EN"
 "http://www.w3.org/Graphics/SVG/1.1/DTD/svg11.dtd">
<!-- Generated by graphviz version 2.40.1 (20161225.0304)
 -->
<!-- Title: /home/runner/work/AliceO2/AliceO2/Detectors/MUON/MCH/Raw/Decoder/include/MCHRawDecoder/PageDecoder.h Pages: 1 -->
<!--zoomable 296 -->
<svg id="main" version="1.1" xmlns="http://www.w3.org/2000/svg" xmlns:xlink="http://www.w3.org/1999/xlink" xml:space="preserve" onload="init(evt)">
<style type="text/css"><![CDATA[
.edge:hover path { stroke: red; }
.edge:hover polygon { stroke: red; fill: red; }
]]></style>
<script type="text/javascript"><![CDATA[
var edges = document.getElementsByTagName('g');
if (edges && edges.length) {
  for (var i=0;i<edges.length;i++) {
    if (edges[i].id.substr(0,4)=='edge') {
      edges[i].setAttribute('class','edge');
    }
  }
}
]]></script>
        <defs>
                <circle id="rim" cx="0" cy="0" r="7"/>
                <circle id="rim2" cx="0" cy="0" r="3.5"/>
                <g id="zoomPlus">
                        <use xlink:href="#rim" fill="#404040">
                                <set attributeName="fill" to="#808080" begin="zoomplus.mouseover" end="zoomplus.mouseout"/>
                        </use>
                        <path d="M-4,0h8M0,-4v8" fill="none" stroke="white" stroke-width="1.5" pointer-events="none"/>
                </g>
                <g id="zoomMin">
                        <use xlink:href="#rim" fill="#404040">
                                <set attributeName="fill" to="#808080" begin="zoomminus.mouseover" end="zoomminus.mouseout"/>
                        </use>
                        <path d="M-4,0h8" fill="none" stroke="white" stroke-width="1.5" pointer-events="none"/>
                </g>
                <g id="dirArrow">
                        <path fill="none" stroke="white" stroke-width="1.5" d="M0,-3.0v7 M-2.5,-0.5L0,-3.0L2.5,-0.5"/>
                </g>
               <g id="resetDef">
                       <use xlink:href="#rim2" fill="#404040">
                               <set attributeName="fill" to="#808080" begin="reset.mouseover" end="reset.mouseout"/>
                       </use>
               </g>
        </defs>

<script type="text/javascript">
var viewWidth = 1194;
var viewHeight = 296;
var sectionId = 'dynsection-0';
</script>
<script xlink:href="../../svgpan.js"/>
<svg id="graph" class="graph">
<g id="viewport">
<title>/home/runner/work/AliceO2/AliceO2/Detectors/MUON/MCH/Raw/Decoder/include/MCHRawDecoder/PageDecoder.h</title>
<!-- Node0 -->
<g id="node1" class="node">
<title>Node0</title>
<polygon fill="#bfbfbf" stroke="#000000" points="391.5,-235.5 391.5,-287.5 561.5,-287.5 561.5,-235.5 391.5,-235.5"/>
<text text-anchor="start" x="399.5" y="-275.5" font-family="Helvetica,sans-Serif" font-size="10.00" fill="#000000">/home/runner/work/AliceO2</text>
<text text-anchor="start" x="399.5" y="-264.5" font-family="Helvetica,sans-Serif" font-size="10.00" fill="#000000">/AliceO2/Detectors/MUON</text>
<text text-anchor="start" x="399.5" y="-253.5" font-family="Helvetica,sans-Serif" font-size="10.00" fill="#000000">/MCH/Raw/Decoder/include</text>
<text text-anchor="middle" x="476.5" y="-242.5" font-family="Helvetica,sans-Serif" font-size="10.00" fill="#000000">/MCHRawDecoder/PageDecoder.h</text>
</g>
<!-- Node1 -->
<g id="node2" class="node">
<title>Node1</title>
<polygon fill="none" stroke="#bfbfbf" points="328,-112.5 328,-131.5 387,-131.5 387,-112.5 328,-112.5"/>
<text text-anchor="middle" x="357.5" y="-119.5" font-family="Helvetica,sans-Serif" font-size="10.00" fill="#000000">functional</text>
</g>
<!-- Node0&#45;&gt;Node1 -->
<g id="edge1" class="edge">
<title>Node0&#45;&gt;Node1</title>
<path fill="none" stroke="#191970" d="M495.4981,-235.1511C507.4023,-215.1281 517.9886,-187.7556 503.5,-168 497.0025,-159.1405 437.9791,-142.5327 396.9999,-131.8835"/>
<polygon fill="#191970" stroke="#191970" points="397.8278,-128.4826 387.271,-129.3785 396.0824,-135.2615 397.8278,-128.4826"/>
</g>
<!-- Node2 -->
<g id="node3" class="node">
<title>Node2</title>
<polygon fill="none" stroke="#bfbfbf" points="257,-112.5 257,-131.5 310,-131.5 310,-112.5 257,-112.5"/>
<text text-anchor="middle" x="283.5" y="-119.5" font-family="Helvetica,sans-Serif" font-size="10.00" fill="#000000">gsl/span</text>
</g>
<!-- Node0&#45;&gt;Node2 -->
<g id="edge2" class="edge">
<title>Node0&#45;&gt;Node2</title>
<path fill="none" stroke="#191970" d="M391.2949,-247.0687C339.4142,-236.35 280.1829,-219.9737 264.5,-199 251.6796,-181.8545 261.4413,-157.1317 271.0834,-140.3607"/>
<polygon fill="#191970" stroke="#191970" points="274.2702,-141.8635 276.5751,-131.5224 268.3245,-138.1691 274.2702,-141.8635"/>
</g>
<!-- Node3 -->
<g id="node4" class="node">
<title>Node3</title>
<polygon fill="none" stroke="#bfbfbf" points="459,-174 459,-193 494,-193 494,-174 459,-174"/>
<text text-anchor="middle" x="476.5" y="-181" font-family="Helvetica,sans-Serif" font-size="10.00" fill="#000000">map</text>
</g>
<!-- Node0&#45;&gt;Node3 -->
<g id="edge3" class="edge">
<title>Node0&#45;&gt;Node3</title>
<path fill="none" stroke="#191970" d="M476.5,-235.0928C476.5,-224.6735 476.5,-212.911 476.5,-203.2512"/>
<polygon fill="#191970" stroke="#191970" points="480.0001,-203.0838 476.5,-193.0839 473.0001,-203.0839 480.0001,-203.0838"/>
</g>
<!-- Node4 -->
<g id="node5" class="node">
<title>Node4</title>
<g id="a_node5"><a xlink:href="../../dd/d58/SampaChannelHandler_8h.html" target="_top" xlink:title="MCHRawDecoder/SampaChannel\lHandler.h">
<polygon fill="none" stroke="#000000" points="274,-168.5 274,-198.5 441,-198.5 441,-168.5 274,-168.5"/>
<text text-anchor="start" x="282" y="-186.5" font-family="Helvetica,sans-Serif" font-size="10.00" fill="#000000">MCHRawDecoder/SampaChannel</text>
<text text-anchor="middle" x="357.5" y="-175.5" font-family="Helvetica,sans-Serif" font-size="10.00" fill="#000000">Handler.h</text>
</a>
</g>
</g>
<!-- Node0&#45;&gt;Node4 -->
<g id="edge4" class="edge">
<title>Node0&#45;&gt;Node4</title>
<path fill="none" stroke="#191970" d="M436.5437,-235.3101C421.1109,-225.1945 403.7048,-213.7855 389.1627,-204.2537"/>
<polygon fill="#191970" stroke="#191970" points="390.8037,-201.1445 380.5215,-198.5897 386.9663,-206.999 390.8037,-201.1445"/>
</g>
<!-- Node15 -->
<g id="node16" class="node">
<title>Node15</title>
<g id="a_node16"><a xlink:href="../../d2/d71/MUON_2MCH_2Raw_2ElecMap_2include_2MCHRawElecMap_2Mapper_8h.html" target="_top" xlink:title="MCHRawElecMap/Mapper.h">
<polygon fill="none" stroke="#000000" points="602.5,-174 602.5,-193 744.5,-193 744.5,-174 602.5,-174"/>
<text text-anchor="middle" x="673.5" y="-181" font-family="Helvetica,sans-Serif" font-size="10.00" fill="#000000">MCHRawElecMap/Mapper.h</text>
</a>
</g>
</g>
<!-- Node0&#45;&gt;Node15 -->
<g id="edge17" class="edge">
<title>Node0&#45;&gt;Node15</title>
<path fill="none" stroke="#191970" d="M542.372,-235.4187C574.9041,-222.538 612.7893,-207.5377 639.4483,-196.9824"/>
<polygon fill="#191970" stroke="#191970" points="641.0721,-200.1039 649.0814,-193.1683 638.4952,-193.5955 641.0721,-200.1039"/>
</g>
<!-- Node4&#45;&gt;Node1 -->
<g id="edge5" class="edge">
<title>Node4&#45;&gt;Node1</title>
<path fill="none" stroke="#191970" d="M357.5,-168.2977C357.5,-160.3834 357.5,-150.6043 357.5,-142.0759"/>
<polygon fill="#191970" stroke="#191970" points="361.0001,-141.8469 357.5,-131.8469 354.0001,-141.847 361.0001,-141.8469"/>
</g>
<!-- Node5 -->
<g id="node6" class="node">
<title>Node5</title>
<g id="a_node6"><a xlink:href="../../d0/d5b/SampaCluster_8h.html" target="_top" xlink:title="MCHRawCommon/SampaCluster.h">
<polygon fill="none" stroke="#000000" points="66,-112.5 66,-131.5 239,-131.5 239,-112.5 66,-112.5"/>
<text text-anchor="middle" x="152.5" y="-119.5" font-family="Helvetica,sans-Serif" font-size="10.00" fill="#000000">MCHRawCommon/SampaCluster.h</text>
</a>
</g>
</g>
<!-- Node4&#45;&gt;Node5 -->
<g id="edge6" class="edge">
<title>Node4&#45;&gt;Node5</title>
<path fill="none" stroke="#191970" d="M307.3514,-168.4554C272.5465,-158.0139 226.7333,-144.27 193.9849,-134.4455"/>
<polygon fill="#191970" stroke="#191970" points="194.8517,-131.0515 184.2677,-131.5303 192.8402,-137.7563 194.8517,-131.0515"/>
</g>
<!-- Node12 -->
<g id="node13" class="node">
<title>Node12</title>
<g id="a_node13"><a xlink:href="../../d4/d09/DsElecId_8h.html" target="_top" xlink:title="MCHRawElecMap/DsElecId.h">
<polygon fill="none" stroke="#000000" points="443.5,-112.5 443.5,-131.5 593.5,-131.5 593.5,-112.5 443.5,-112.5"/>
<text text-anchor="middle" x="518.5" y="-119.5" font-family="Helvetica,sans-Serif" font-size="10.00" fill="#000000">MCHRawElecMap/DsElecId.h</text>
</a>
</g>
</g>
<!-- Node4&#45;&gt;Node12 -->
<g id="edge13" class="edge">
<title>Node4&#45;&gt;Node12</title>
<path fill="none" stroke="#191970" d="M396.885,-168.4554C423.5127,-158.284 458.3444,-144.9787 483.9034,-135.2155"/>
<polygon fill="#191970" stroke="#191970" points="485.458,-138.3684 493.5507,-131.5303 482.9601,-131.8292 485.458,-138.3684"/>
</g>
<!-- Node6 -->
<g id="node7" class="node">
<title>Node6</title>
<polygon fill="none" stroke="#bfbfbf" points="0,-56.5 0,-75.5 45,-75.5 45,-56.5 0,-56.5"/>
<text text-anchor="middle" x="22.5" y="-63.5" font-family="Helvetica,sans-Serif" font-size="10.00" fill="#000000">cstdlib</text>
</g>
<!-- Node5&#45;&gt;Node6 -->
<g id="edge7" class="edge">
<title>Node5&#45;&gt;Node6</title>
<path fill="none" stroke="#191970" d="M130.1522,-112.3733C109.0967,-103.3032 77.3505,-89.6279 53.7825,-79.4755"/>
<polygon fill="#191970" stroke="#191970" points="55.125,-76.243 44.5562,-75.5011 52.3556,-82.6719 55.125,-76.243"/>
</g>
<!-- Node7 -->
<g id="node8" class="node">
<title>Node7</title>
<polygon fill="none" stroke="#bfbfbf" points="63.5,-56.5 63.5,-75.5 107.5,-75.5 107.5,-56.5 63.5,-56.5"/>
<text text-anchor="middle" x="85.5" y="-63.5" font-family="Helvetica,sans-Serif" font-size="10.00" fill="#000000">vector</text>
</g>
<!-- Node5&#45;&gt;Node7 -->
<g id="edge8" class="edge">
<title>Node5&#45;&gt;Node7</title>
<path fill="none" stroke="#191970" d="M140.8295,-112.2455C130.9339,-103.9746 116.5373,-91.9416 104.9099,-82.2232"/>
<polygon fill="#191970" stroke="#191970" points="106.9542,-79.3703 97.0368,-75.6427 102.465,-84.7413 106.9542,-79.3703"/>
</g>
<!-- Node8 -->
<g id="node9" class="node">
<title>Node8</title>
<polygon fill="none" stroke="#bfbfbf" points="125.5,-56.5 125.5,-75.5 179.5,-75.5 179.5,-56.5 125.5,-56.5"/>
<text text-anchor="middle" x="152.5" y="-63.5" font-family="Helvetica,sans-Serif" font-size="10.00" fill="#000000">iostream</text>
</g>
<!-- Node5&#45;&gt;Node8 -->
<g id="edge9" class="edge">
<title>Node5&#45;&gt;Node8</title>
<path fill="none" stroke="#191970" d="M152.5,-112.2455C152.5,-104.9382 152.5,-94.6944 152.5,-85.7046"/>
<polygon fill="#191970" stroke="#191970" points="156.0001,-85.6426 152.5,-75.6427 149.0001,-85.6427 156.0001,-85.6426"/>
</g>
<!-- Node9 -->
<g id="node10" class="node">
<title>Node9</title>
<polygon fill="none" stroke="#bfbfbf" points="383.5,-56.5 383.5,-75.5 453.5,-75.5 453.5,-56.5 383.5,-56.5"/>
<text text-anchor="middle" x="418.5" y="-63.5" font-family="Helvetica,sans-Serif" font-size="10.00" fill="#000000">fmt/format.h</text>
</g>
<!-- Node5&#45;&gt;Node9 -->
<g id="edge10" class="edge">
<title>Node5&#45;&gt;Node9</title>
<path fill="none" stroke="#191970" d="M199.76,-112.4805C242.545,-103.801 307.5701,-90.4578 373.3204,-76.2277"/>
<polygon fill="#191970" stroke="#191970" points="374.4187,-79.5709 383.449,-74.0298 372.9342,-72.7302 374.4187,-79.5709"/>
</g>
<!-- Node10 -->
<g id="node11" class="node">
<title>Node10</title>
<g id="a_node11"><a xlink:href="../../d0/d64/DataFormats_8h.html" target="_top" xlink:title="MCHRawCommon/DataFormats.h">
<polygon fill="none" stroke="#000000" points="197.5,-56.5 197.5,-75.5 365.5,-75.5 365.5,-56.5 197.5,-56.5"/>
<text text-anchor="middle" x="281.5" y="-63.5" font-family="Helvetica,sans-Serif" font-size="10.00" fill="#000000">MCHRawCommon/DataFormats.h</text>
</a>
</g>
</g>
<!-- Node5&#45;&gt;Node10 -->
<g id="edge11" class="edge">
<title>Node5&#45;&gt;Node10</title>
<path fill="none" stroke="#191970" d="M174.6759,-112.3733C195.4766,-103.3435 226.7917,-89.7494 250.1458,-79.6111"/>
<polygon fill="#191970" stroke="#191970" points="251.8343,-82.6938 259.6135,-75.5011 249.0468,-76.2727 251.8343,-82.6938"/>
</g>
<!-- Node11 -->
<g id="node12" class="node">
<title>Node11</title>
<polygon fill="none" stroke="#bfbfbf" points="664.5,-.5 664.5,-19.5 710.5,-19.5 710.5,-.5 664.5,-.5"/>
<text text-anchor="middle" x="687.5" y="-7.5" font-family="Helvetica,sans-Serif" font-size="10.00" fill="#000000">cstdint</text>
</g>
<!-- Node10&#45;&gt;Node11 -->
<g id="edge12" class="edge">
<title>Node10&#45;&gt;Node11</title>
<path fill="none" stroke="#191970" d="M350.8326,-56.4369C439.0077,-44.2748 587.7508,-23.7585 653.9659,-14.6254"/>
<polygon fill="#191970" stroke="#191970" points="654.8046,-18.0429 664.2325,-13.2093 653.848,-11.1086 654.8046,-18.0429"/>
</g>
<!-- Node12&#45;&gt;Node11 -->
<g id="edge14" class="edge">
<title>Node12&#45;&gt;Node11</title>
<path fill="none" stroke="#191970" d="M524.7409,-112.2136C534.1892,-98.0846 553.3848,-71.9246 575.5,-56 599.5722,-38.6662 631.1381,-26.4647 654.6215,-19.0045"/>
<polygon fill="#191970" stroke="#191970" points="655.921,-22.2674 664.4653,-16.0028 653.8792,-15.5718 655.921,-22.2674"/>
</g>
<!-- Node13 -->
<g id="node14" class="node">
<title>Node13</title>
<polygon fill="none" stroke="#bfbfbf" points="716,-56.5 716,-75.5 761,-75.5 761,-56.5 716,-56.5"/>
<text text-anchor="middle" x="738.5" y="-63.5" font-family="Helvetica,sans-Serif" font-size="10.00" fill="#000000">iosfwd</text>
</g>
<!-- Node12&#45;&gt;Node13 -->
<g id="edge15" class="edge">
<title>Node12&#45;&gt;Node13</title>
<path fill="none" stroke="#191970" d="M556.3193,-112.3733C598.5874,-101.6141 666.3129,-84.3749 706.1963,-74.2228"/>
<polygon fill="#191970" stroke="#191970" points="707.116,-77.6003 715.9436,-71.7416 705.3892,-70.8167 707.116,-77.6003"/>
</g>
<!-- Node14 -->
<g id="node15" class="node">
<title>Node14</title>
<polygon fill="none" stroke="#bfbfbf" points="584.5,-56.5 584.5,-75.5 634.5,-75.5 634.5,-56.5 584.5,-56.5"/>
<text text-anchor="middle" x="609.5" y="-63.5" font-family="Helvetica,sans-Serif" font-size="10.00" fill="#000000">optional</text>
</g>
<!-- Node12&#45;&gt;Node14 -->
<g id="edge16" class="edge">
<title>Node12&#45;&gt;Node14</title>
<path fill="none" stroke="#191970" d="M534.351,-112.2455C548.3132,-103.6534 568.8728,-91.0014 584.9596,-81.1018"/>
<polygon fill="#191970" stroke="#191970" points="587.1484,-83.8645 593.8307,-75.6427 583.4797,-77.9029 587.1484,-83.8645"/>
</g>
<!-- Node15&#45;&gt;Node1 -->
<g id="edge18" class="edge">
<title>Node15&#45;&gt;Node1</title>
<path fill="none" stroke="#191970" d="M619.9686,-173.958C565.0322,-164.0264 477.1359,-147.75 401.5,-132 400.062,-131.7006 398.5987,-131.3913 397.1213,-131.0754"/>
<polygon fill="#191970" stroke="#191970" points="397.807,-127.6427 387.29,-128.9245 396.3109,-134.481 397.807,-127.6427"/>
</g>
<!-- Node15&#45;&gt;Node2 -->
<g id="edge32" class="edge">
<title>Node15&#45;&gt;Node2</title>
<path fill="none" stroke="#191970" d="M602.2789,-176.0167C532.4952,-168.0397 423.033,-153.8113 320.0994,-132.137"/>
<polygon fill="#191970" stroke="#191970" points="320.6702,-128.6801 310.16,-130.0162 319.2094,-135.5259 320.6702,-128.6801"/>
</g>
<!-- Node15&#45;&gt;Node9 -->
<g id="edge30" class="edge">
<title>Node15&#45;&gt;Node9</title>
<path fill="none" stroke="#191970" d="M602.2497,-176.4985C540.7029,-168.997 458.0562,-154.9608 434.5,-132 422.255,-120.0646 418.749,-100.4697 418.0103,-85.7246"/>
<polygon fill="#191970" stroke="#191970" points="421.5087,-85.5578 417.886,-75.6016 414.5092,-85.6439 421.5087,-85.5578"/>
</g>
<!-- Node15&#45;&gt;Node11 -->
<g id="edge22" class="edge">
<title>Node15&#45;&gt;Node11</title>
<path fill="none" stroke="#191970" d="M744.7726,-177.9213C841.554,-169.6119 1004.6152,-152.7177 1022.5,-132 1108.3546,-32.5466 821.5183,-14.143 721.0079,-10.7575"/>
<polygon fill="#191970" stroke="#191970" points="720.8927,-7.2524 710.7901,-10.4441 720.678,-14.2491 720.8927,-7.2524"/>
</g>
<!-- Node15&#45;&gt;Node12 -->
<g id="edge26" class="edge">
<title>Node15&#45;&gt;Node12</title>
<path fill="none" stroke="#191970" d="M649.2813,-173.8906C623.1194,-163.5103 581.2571,-146.9004 551.9612,-135.2766"/>
<polygon fill="#191970" stroke="#191970" points="553.1346,-131.9767 542.5487,-131.5419 550.5529,-138.4833 553.1346,-131.9767"/>
</g>
<!-- Node15&#45;&gt;Node14 -->
<g id="edge19" class="edge">
<title>Node15&#45;&gt;Node14</title>
<path fill="none" stroke="#191970" d="M666.7829,-173.8598C659.8214,-163.6828 648.8152,-147.0598 640.5,-132 632.0022,-116.6095 623.6014,-98.4943 617.693,-85.1398"/>
<polygon fill="#191970" stroke="#191970" points="620.7371,-83.3637 613.5348,-75.5933 614.3195,-86.1591 620.7371,-83.3637"/>
</g>
<!-- Node16 -->
<g id="node17" class="node">
<title>Node16</title>
<polygon fill="none" stroke="#bfbfbf" points="819.5,-112.5 819.5,-131.5 849.5,-131.5 849.5,-112.5 819.5,-112.5"/>
<text text-anchor="middle" x="834.5" y="-119.5" font-family="Helvetica,sans-Serif" font-size="10.00" fill="#000000">set</text>
</g>
<!-- Node15&#45;&gt;Node16 -->
<g id="edge20" class="edge">
<title>Node15&#45;&gt;Node16</title>
<path fill="none" stroke="#191970" d="M699.6137,-173.9944C725.4218,-164.5323 766.2304,-149.3903 809.9324,-132.1407"/>
<polygon fill="#191970" stroke="#191970" points="811.2905,-135.3674 819.2975,-128.4291 808.7114,-128.8598 811.2905,-135.3674"/>
</g>
<!-- Node17 -->
<g id="node18" class="node">
<title>Node17</title>
<polygon fill="none" stroke="#bfbfbf" points="1070,-112.5 1070,-131.5 1129,-131.5 1129,-112.5 1070,-112.5"/>
<text text-anchor="middle" x="1099.5" y="-119.5" font-family="Helvetica,sans-Serif" font-size="10.00" fill="#000000">stdexcept</text>
</g>
<!-- Node15&#45;&gt;Node17 -->
<g id="edge21" class="edge">
<title>Node15&#45;&gt;Node17</title>
<path fill="none" stroke="#191970" d="M744.554,-175.847C821.4878,-167.1124 947.6653,-151.4826 1055.5,-132 1056.9454,-131.7389 1058.4151,-131.4623 1059.8978,-131.1741"/>
<polygon fill="#191970" stroke="#191970" points="1060.6659,-134.5894 1069.7519,-129.14 1059.2508,-127.7339 1060.6659,-134.5894"/>
</g>
<!-- Node18 -->
<g id="node19" class="node">
<title>Node18</title>
<g id="a_node19"><a xlink:href="../../d5/dcd/DsDetId_8h.html" target="_top" xlink:title="MCHRawElecMap/DsDetId.h">
<polygon fill="none" stroke="#000000" points="867.5,-112.5 867.5,-131.5 1013.5,-131.5 1013.5,-112.5 867.5,-112.5"/>
<text text-anchor="middle" x="940.5" y="-119.5" font-family="Helvetica,sans-Serif" font-size="10.00" fill="#000000">MCHRawElecMap/DsDetId.h</text>
</a>
</g>
</g>
<!-- Node15&#45;&gt;Node18 -->
<g id="edge23" class="edge">
<title>Node15&#45;&gt;Node18</title>
<path fill="none" stroke="#191970" d="M714.9258,-173.9581C761.8894,-163.1406 838.4933,-145.4959 889.1979,-133.8168"/>
<polygon fill="#191970" stroke="#191970" points="890.0178,-137.2196 898.977,-131.5643 888.4465,-130.3983 890.0178,-137.2196"/>
</g>
<!-- Node19 -->
<g id="node20" class="node">
<title>Node19</title>
<g id="a_node20"><a xlink:href="../../d8/d97/FeeLinkId_8h.html" target="_top" xlink:title="MCHRawElecMap/FeeLinkId.h">
<polygon fill="none" stroke="#000000" points="649.5,-112.5 649.5,-131.5 801.5,-131.5 801.5,-112.5 649.5,-112.5"/>
<text text-anchor="middle" x="725.5" y="-119.5" font-family="Helvetica,sans-Serif" font-size="10.00" fill="#000000">MCHRawElecMap/FeeLinkId.h</text>
</a>
</g>
</g>
<!-- Node15&#45;&gt;Node19 -->
<g id="edge27" class="edge">
<title>Node15&#45;&gt;Node19</title>
<path fill="none" stroke="#191970" d="M681.625,-173.8906C689.3642,-164.7376 701.1987,-150.7409 710.6272,-139.59"/>
<polygon fill="#191970" stroke="#191970" points="713.4765,-141.6409 717.2604,-131.7449 708.1311,-137.1213 713.4765,-141.6409"/>
</g>
<!-- Node20 -->
<g id="node21" class="node">
<title>Node20</title>
<polygon fill="none" stroke="#bfbfbf" points="1147.5,-112.5 1147.5,-131.5 1185.5,-131.5 1185.5,-112.5 1147.5,-112.5"/>
<text text-anchor="middle" x="1166.5" y="-119.5" font-family="Helvetica,sans-Serif" font-size="10.00" fill="#000000">array</text>
</g>
<!-- Node15&#45;&gt;Node20 -->
<g id="edge31" class="edge">
<title>Node15&#45;&gt;Node20</title>
<path fill="none" stroke="#191970" d="M744.8665,-180.7483C834.8173,-176.137 994.028,-164.1768 1137.5301,-131.7528"/>
<polygon fill="#191970" stroke="#191970" points="1138.4341,-135.1364 1147.3959,-129.4853 1136.866,-128.3143 1138.4341,-135.1364"/>
</g>
<!-- Node18&#45;&gt;Node11 -->
<g id="edge24" class="edge">
<title>Node18&#45;&gt;Node11</title>
<path fill="none" stroke="#191970" d="M918.9294,-112.4509C874.0246,-92.5722 770.3691,-46.6852 718.3921,-23.6756"/>
<polygon fill="#191970" stroke="#191970" points="719.5769,-20.3725 709.016,-19.5249 716.7433,-26.7733 719.5769,-20.3725"/>
</g>
<!-- Node18&#45;&gt;Node13 -->
<g id="edge25" class="edge">
<title>Node18&#45;&gt;Node13</title>
<path fill="none" stroke="#191970" d="M905.775,-112.3733C867.9342,-101.8827 807.8714,-85.2317 770.9506,-74.9962"/>
<polygon fill="#191970" stroke="#191970" points="771.76,-71.5887 761.1884,-72.2899 769.8899,-78.3342 771.76,-71.5887"/>
</g>
<!-- Node19&#45;&gt;Node11 -->
<g id="edge28" class="edge">
<title>Node19&#45;&gt;Node11</title>
<path fill="none" stroke="#191970" d="M721.4114,-112.2129C717.6066,-102.957 711.8808,-88.6406 707.5,-76 702.1704,-60.6217 696.8616,-42.9655 693.0542,-29.7867"/>
<polygon fill="#191970" stroke="#191970" points="696.3485,-28.5757 690.2417,-19.918 689.6166,-30.4943 696.3485,-28.5757"/>
</g>
<!-- Node19&#45;&gt;Node13 -->
<g id="edge29" class="edge">
<title>Node19&#45;&gt;Node13</title>
<path fill="none" stroke="#191970" d="M727.7644,-112.2455C729.4794,-104.8579 731.8912,-94.4689 733.9944,-85.4087"/>
<polygon fill="#191970" stroke="#191970" points="737.4095,-86.1751 736.2615,-75.6427 730.5908,-84.5922 737.4095,-86.1751"/>
</g>
</g>
</svg>
        <g id="navigator" transform="translate(0 0)" fill="#404254">
                <rect fill="#f2f5e9" fill-opacity="0.5" stroke="#606060" stroke-width=".5" x="0" y="0" width="60" height="60"/>
                <use id="zoomplus" xlink:href="#zoomPlus" x="17" y="9" onmousedown="handleZoom(evt,'in')"/>
                <use id="zoomminus" xlink:href="#zoomMin" x="42" y="9" onmousedown="handleZoom(evt,'out')"/>
                <use id="reset" xlink:href="#resetDef" x="30" y="36" onmousedown="handleReset()"/>
                <g id="arrowUp" xlink:href="#dirArrow" transform="translate(30 24)" onmousedown="handlePan(0,-1)">
                  <use xlink:href="#rim" fill="#404040">
                        <set attributeName="fill" to="#808080" begin="arrowUp.mouseover" end="arrowUp.mouseout"/>
                  </use>
                  <path fill="none" stroke="white" stroke-width="1.5" d="M0,-3.0v7 M-2.5,-0.5L0,-3.0L2.5,-0.5"/>
                </g>
                <g id="arrowRight" xlink:href="#dirArrow" transform="rotate(90) translate(36 -43)" onmousedown="handlePan(1,0)">
                  <use xlink:href="#rim" fill="#404040">
                        <set attributeName="fill" to="#808080" begin="arrowRight.mouseover" end="arrowRight.mouseout"/>
                  </use>
                  <path fill="none" stroke="white" stroke-width="1.5" d="M0,-3.0v7 M-2.5,-0.5L0,-3.0L2.5,-0.5"/>
                </g>
                <g id="arrowDown" xlink:href="#dirArrow" transform="rotate(180) translate(-30 -48)" onmousedown="handlePan(0,1)">
                  <use xlink:href="#rim" fill="#404040">
                        <set attributeName="fill" to="#808080" begin="arrowDown.mouseover" end="arrowDown.mouseout"/>
                  </use>
                  <path fill="none" stroke="white" stroke-width="1.5" d="M0,-3.0v7 M-2.5,-0.5L0,-3.0L2.5,-0.5"/>
                </g>
                <g id="arrowLeft" xlink:href="#dirArrow" transform="rotate(270) translate(-36 17)" onmousedown="handlePan(-1,0)">
                  <use xlink:href="#rim" fill="#404040">
                        <set attributeName="fill" to="#808080" begin="arrowLeft.mouseover" end="arrowLeft.mouseout"/>
                  </use>
                  <path fill="none" stroke="white" stroke-width="1.5" d="M0,-3.0v7 M-2.5,-0.5L0,-3.0L2.5,-0.5"/>
                </g>
        </g>
        <svg viewBox="0 0 15 15" width="100%" height="30px" preserveAspectRatio="xMaxYMin meet">
         <g id="arrow_out" transform="scale(0.3 0.3)">
          <a xlink:href="PageDecoder_8h__incl_org.svg" target="_base">
           <rect id="button" ry="5" rx="5" y="6" x="6" height="38" width="38"
                fill="#f2f5e9" fill-opacity="0.5" stroke="#606060" stroke-width="1.0"/>
           <path id="arrow"
             d="M 11.500037,31.436501 C 11.940474,20.09759 22.043105,11.32322 32.158766,21.979434 L 37.068811,17.246167 C 37.068811,17.246167 37.088388,32 37.088388,32 L 22.160133,31.978069 C 22.160133,31.978069 26.997745,27.140456 26.997745,27.140456 C 18.528582,18.264221 13.291696,25.230495 11.500037,31.436501 z"
             style="fill:#404040;"/>
          </a>
         </g>
        </svg>
</svg>
