<?xml version="1.0" encoding="UTF-8" standalone="no"?>
<!DOCTYPE svg PUBLIC "-//W3C//DTD SVG 1.1//EN"
 "http://www.w3.org/Graphics/SVG/1.1/DTD/svg11.dtd">
<!-- Generated by graphviz version 2.40.1 (20161225.0304)
 -->
<!-- Title: /home/runner/work/AliceO2/AliceO2/DataFormats/MemoryResources/include/MemoryResources/MemoryResources.h Pages: 1 -->
<svg width="1657pt" height="117pt"
 viewBox="0.00 0.00 1657.00 117.00" xmlns="http://www.w3.org/2000/svg" xmlns:xlink="http://www.w3.org/1999/xlink">
<g id="graph0" class="graph" transform="scale(1 1) rotate(0) translate(4 113)">
<title>/home/runner/work/AliceO2/AliceO2/DataFormats/MemoryResources/include/MemoryResources/MemoryResources.h</title>
<!-- Node0 -->
<g id="node1" class="node">
<title>Node0</title>
<polygon fill="#bfbfbf" stroke="#000000" points="687,-67.5 687,-108.5 917,-108.5 917,-67.5 687,-67.5"/>
<text text-anchor="start" x="695" y="-96.5" font-family="Helvetica,sans-Serif" font-size="10.00" fill="#000000">/home/runner/work/AliceO2</text>
<text text-anchor="start" x="695" y="-85.5" font-family="Helvetica,sans-Serif" font-size="10.00" fill="#000000">/AliceO2/DataFormats/MemoryResources</text>
<text text-anchor="middle" x="802" y="-74.5" font-family="Helvetica,sans-Serif" font-size="10.00" fill="#000000">/include/MemoryResources/MemoryResources.h</text>
</g>
<!-- Node1 -->
<g id="node2" class="node">
<title>Node1</title>
<polygon fill="none" stroke="#bfbfbf" points="0,-.5 0,-30.5 100,-30.5 100,-.5 0,-.5"/>
<text text-anchor="start" x="8" y="-18.5" font-family="Helvetica,sans-Serif" font-size="10.00" fill="#000000">boost/container/flat</text>
<text text-anchor="middle" x="50" y="-7.5" font-family="Helvetica,sans-Serif" font-size="10.00" fill="#000000">_map.hpp</text>
</g>
<!-- Node0&#45;&gt;Node1 -->
<g id="edge1" class="edge">
<title>Node0&#45;&gt;Node1</title>
<path fill="none" stroke="#191970" d="M686.8821,-84.6842C550.9061,-79.3761 317.9574,-65.9181 109.9665,-30.9743"/>
<polygon fill="#191970" stroke="#191970" points="110.5267,-27.5194 100.0815,-29.294 109.3536,-34.4204 110.5267,-27.5194"/>
</g>
<!-- Node2 -->
<g id="node3" class="node">
<title>Node2</title>
<polygon fill="none" stroke="#bfbfbf" points="118,-.5 118,-30.5 234,-30.5 234,-.5 118,-.5"/>
<text text-anchor="start" x="126" y="-18.5" font-family="Helvetica,sans-Serif" font-size="10.00" fill="#000000">boost/container/pmr</text>
<text text-anchor="middle" x="176" y="-7.5" font-family="Helvetica,sans-Serif" font-size="10.00" fill="#000000">/memory_resource.hpp</text>
</g>
<!-- Node0&#45;&gt;Node2 -->
<g id="edge2" class="edge">
<title>Node0&#45;&gt;Node2</title>
<path fill="none" stroke="#191970" d="M686.8852,-80.5109C575.7973,-72.3066 402.804,-56.963 243.9726,-31.0342"/>
<polygon fill="#191970" stroke="#191970" points="244.4518,-27.566 234.0154,-29.3916 243.3124,-34.4727 244.4518,-27.566"/>
</g>
<!-- Node3 -->
<g id="node4" class="node">
<title>Node3</title>
<polygon fill="none" stroke="#bfbfbf" points="252,-.5 252,-30.5 408,-30.5 408,-.5 252,-.5"/>
<text text-anchor="start" x="260" y="-18.5" font-family="Helvetica,sans-Serif" font-size="10.00" fill="#000000">boost/container/pmr</text>
<text text-anchor="middle" x="330" y="-7.5" font-family="Helvetica,sans-Serif" font-size="10.00" fill="#000000">/monotonic_buffer_resource.hpp</text>
</g>
<!-- Node0&#45;&gt;Node3 -->
<g id="edge3" class="edge">
<title>Node0&#45;&gt;Node3</title>
<path fill="none" stroke="#191970" d="M686.8853,-71.857C612.8485,-61.2605 514.3251,-46.763 418.137,-31.1615"/>
<polygon fill="#191970" stroke="#191970" points="418.6685,-27.702 408.2361,-29.5502 417.5441,-34.6111 418.6685,-27.702"/>
</g>
<!-- Node4 -->
<g id="node5" class="node">
<title>Node4</title>
<polygon fill="none" stroke="#bfbfbf" points="426.5,-.5 426.5,-30.5 559.5,-30.5 559.5,-.5 426.5,-.5"/>
<text text-anchor="start" x="434.5" y="-18.5" font-family="Helvetica,sans-Serif" font-size="10.00" fill="#000000">boost/container/pmr</text>
<text text-anchor="middle" x="493" y="-7.5" font-family="Helvetica,sans-Serif" font-size="10.00" fill="#000000">/polymorphic_allocator.hpp</text>
</g>
<!-- Node0&#45;&gt;Node4 -->
<g id="edge4" class="edge">
<title>Node0&#45;&gt;Node4</title>
<path fill="none" stroke="#191970" d="M714.2795,-67.4183C667.8331,-56.5207 611.4161,-43.2837 567.1733,-32.9031"/>
<polygon fill="#191970" stroke="#191970" points="567.8886,-29.476 557.3534,-30.5991 566.2895,-36.2909 567.8886,-29.476"/>
</g>
<!-- Node5 -->
<g id="node6" class="node">
<title>Node5</title>
<polygon fill="none" stroke="#bfbfbf" points="578,-6 578,-25 624,-25 624,-6 578,-6"/>
<text text-anchor="middle" x="601" y="-13" font-family="Helvetica,sans-Serif" font-size="10.00" fill="#000000">cstring</text>
</g>
<!-- Node0&#45;&gt;Node5 -->
<g id="edge5" class="edge">
<title>Node0&#45;&gt;Node5</title>
<path fill="none" stroke="#191970" d="M734.6669,-67.4394C703.4107,-57.3495 665.9594,-44.4782 633,-31 631.643,-30.4451 630.2624,-29.8597 628.8742,-29.2543"/>
<polygon fill="#191970" stroke="#191970" points="630.3218,-26.0678 619.7732,-25.0791 627.4029,-32.4302 630.3218,-26.0678"/>
</g>
<!-- Node6 -->
<g id="node7" class="node">
<title>Node6</title>
<polygon fill="none" stroke="#bfbfbf" points="642.5,-6 642.5,-25 683.5,-25 683.5,-6 642.5,-6"/>
<text text-anchor="middle" x="663" y="-13" font-family="Helvetica,sans-Serif" font-size="10.00" fill="#000000">string</text>
</g>
<!-- Node0&#45;&gt;Node6 -->
<g id="edge6" class="edge">
<title>Node0&#45;&gt;Node6</title>
<path fill="none" stroke="#191970" d="M762.54,-67.4183C739.5359,-55.4198 711.0948,-40.5854 690.5123,-29.85"/>
<polygon fill="#191970" stroke="#191970" points="691.8625,-26.6067 681.3774,-25.0853 688.6252,-32.8132 691.8625,-26.6067"/>
</g>
<!-- Node7 -->
<g id="node8" class="node">
<title>Node7</title>
<polygon fill="none" stroke="#bfbfbf" points="702,-6 702,-25 764,-25 764,-6 702,-6"/>
<text text-anchor="middle" x="733" y="-13" font-family="Helvetica,sans-Serif" font-size="10.00" fill="#000000">type_traits</text>
</g>
<!-- Node0&#45;&gt;Node7 -->
<g id="edge7" class="edge">
<title>Node0&#45;&gt;Node7</title>
<path fill="none" stroke="#191970" d="M782.4119,-67.4183C771.8711,-56.3428 759.0305,-42.8509 749.0813,-32.397"/>
<polygon fill="#191970" stroke="#191970" points="751.552,-29.9162 742.1226,-25.0853 746.4814,-34.7421 751.552,-29.9162"/>
</g>
<!-- Node8 -->
<g id="node9" class="node">
<title>Node8</title>
<polygon fill="none" stroke="#bfbfbf" points="782,-6 782,-25 822,-25 822,-6 782,-6"/>
<text text-anchor="middle" x="802" y="-13" font-family="Helvetica,sans-Serif" font-size="10.00" fill="#000000">utility</text>
</g>
<!-- Node0&#45;&gt;Node8 -->
<g id="edge8" class="edge">
<title>Node0&#45;&gt;Node8</title>
<path fill="none" stroke="#191970" d="M802,-67.4183C802,-57.32 802,-45.213 802,-35.2314"/>
<polygon fill="#191970" stroke="#191970" points="805.5001,-35.0853 802,-25.0853 798.5001,-35.0854 805.5001,-35.0853"/>
</g>
<!-- Node9 -->
<g id="node10" class="node">
<title>Node9</title>
<polygon fill="none" stroke="#bfbfbf" points="840,-6 840,-25 884,-25 884,-6 840,-6"/>
<text text-anchor="middle" x="862" y="-13" font-family="Helvetica,sans-Serif" font-size="10.00" fill="#000000">vector</text>
</g>
<!-- Node0&#45;&gt;Node9 -->
<g id="edge9" class="edge">
<title>Node0&#45;&gt;Node9</title>
<path fill="none" stroke="#191970" d="M819.0331,-67.4183C828.0193,-56.56 838.9277,-43.379 847.5045,-33.0154"/>
<polygon fill="#191970" stroke="#191970" points="850.388,-35.0208 854.0673,-25.0853 844.9952,-30.5578 850.388,-35.0208"/>
</g>
<!-- Node10 -->
<g id="node11" class="node">
<title>Node10</title>
<polygon fill="none" stroke="#bfbfbf" points="902.5,-6 902.5,-25 985.5,-25 985.5,-6 902.5,-6"/>
<text text-anchor="middle" x="944" y="-13" font-family="Helvetica,sans-Serif" font-size="10.00" fill="#000000">unordered_map</text>
</g>
<!-- Node0&#45;&gt;Node10 -->
<g id="edge10" class="edge">
<title>Node0&#45;&gt;Node10</title>
<path fill="none" stroke="#191970" d="M842.3117,-67.4183C865.9185,-55.3655 895.1302,-40.4511 916.1788,-29.7045"/>
<polygon fill="#191970" stroke="#191970" points="917.9112,-32.7499 925.2259,-25.0853 914.728,-26.5154 917.9112,-32.7499"/>
</g>
<!-- Node11 -->
<g id="node12" class="node">
<title>Node11</title>
<polygon fill="none" stroke="#bfbfbf" points="1003.5,-6 1003.5,-25 1100.5,-25 1100.5,-6 1003.5,-6"/>
<text text-anchor="middle" x="1052" y="-13" font-family="Helvetica,sans-Serif" font-size="10.00" fill="#000000">FairMQMessage.h</text>
</g>
<!-- Node0&#45;&gt;Node11 -->
<g id="edge11" class="edge">
<title>Node0&#45;&gt;Node11</title>
<path fill="none" stroke="#191970" d="M872.9713,-67.4183C916.7792,-54.714 971.5503,-38.8304 1008.8986,-27.9994"/>
<polygon fill="#191970" stroke="#191970" points="1010.3176,-31.2322 1018.9471,-25.0853 1008.3679,-24.5092 1010.3176,-31.2322"/>
</g>
<!-- Node12 -->
<g id="node13" class="node">
<title>Node12</title>
<polygon fill="none" stroke="#bfbfbf" points="1118.5,-6 1118.5,-25 1249.5,-25 1249.5,-6 1118.5,-6"/>
<text text-anchor="middle" x="1184" y="-13" font-family="Helvetica,sans-Serif" font-size="10.00" fill="#000000">FairMQTransportFactory.h</text>
</g>
<!-- Node0&#45;&gt;Node12 -->
<g id="edge12" class="edge">
<title>Node0&#45;&gt;Node12</title>
<path fill="none" stroke="#191970" d="M916.5751,-67.4569C974.5986,-56.8856 1046.1105,-43.6012 1110,-31 1116.2538,-29.7665 1122.7979,-28.4433 1129.297,-27.1087"/>
<polygon fill="#191970" stroke="#191970" points="1130.3413,-30.4668 1139.4248,-25.0134 1128.9231,-23.612 1130.3413,-30.4668"/>
</g>
<!-- Node13 -->
<g id="node14" class="node">
<title>Node13</title>
<polygon fill="none" stroke="#bfbfbf" points="1267.5,-6 1267.5,-25 1404.5,-25 1404.5,-6 1267.5,-6"/>
<text text-anchor="middle" x="1336" y="-13" font-family="Helvetica,sans-Serif" font-size="10.00" fill="#000000">fairmq/MemoryResources.h</text>
</g>
<!-- Node0&#45;&gt;Node13 -->
<g id="edge13" class="edge">
<title>Node0&#45;&gt;Node13</title>
<path fill="none" stroke="#191970" d="M917.377,-76.0173C1009.9814,-65.8206 1143.1903,-49.8515 1259,-31 1266.393,-29.7966 1274.1585,-28.3959 1281.7962,-26.9382"/>
<polygon fill="#191970" stroke="#191970" points="1282.577,-30.3519 1291.7211,-25.0006 1281.2357,-23.4816 1282.577,-30.3519"/>
</g>
<!-- Node14 -->
<g id="node15" class="node">
<title>Node14</title>
<polygon fill="none" stroke="#bfbfbf" points="1423,-6 1423,-25 1579,-25 1579,-6 1423,-6"/>
<text text-anchor="middle" x="1501" y="-13" font-family="Helvetica,sans-Serif" font-size="10.00" fill="#000000">fairmq/MemoryResourceTools.h</text>
</g>
<!-- Node0&#45;&gt;Node14 -->
<g id="edge14" class="edge">
<title>Node0&#45;&gt;Node14</title>
<path fill="none" stroke="#191970" d="M917.0944,-80.1596C1040.3471,-71.0917 1241.5038,-54.3575 1414,-31 1422.9319,-29.7905 1432.3462,-28.3199 1441.5511,-26.7716"/>
<polygon fill="#191970" stroke="#191970" points="1442.1643,-30.2176 1451.4244,-25.0697 1440.9752,-23.3193 1442.1643,-30.2176"/>
</g>
<!-- Node15 -->
<g id="node16" class="node">
<title>Node15</title>
<g id="a_node16"><a xlink:href="../../d7/df8/Types_8h.html" target="_top" xlink:title="Types.h">
<polygon fill="none" stroke="#000000" points="1597,-6 1597,-25 1649,-25 1649,-6 1597,-6"/>
<text text-anchor="middle" x="1623" y="-13" font-family="Helvetica,sans-Serif" font-size="10.00" fill="#000000">Types.h</text>
</a>
</g>
</g>
<!-- Node0&#45;&gt;Node15 -->
<g id="edge15" class="edge">
<title>Node0&#45;&gt;Node15</title>
<path fill="none" stroke="#191970" d="M917.3445,-84.4974C1104.1154,-78.009 1464.3004,-61.8811 1588,-31 1590.3393,-30.416 1592.7185,-29.6862 1595.0794,-28.8637"/>
<polygon fill="#191970" stroke="#191970" points="1596.5382,-32.0501 1604.5316,-25.0962 1593.9463,-25.5476 1596.5382,-32.0501"/>
</g>
</g>
</svg>
