<?xml version="1.0" encoding="UTF-8" standalone="no"?>
<!DOCTYPE svg PUBLIC "-//W3C//DTD SVG 1.1//EN"
 "http://www.w3.org/Graphics/SVG/1.1/DTD/svg11.dtd">
<!-- Generated by graphviz version 2.40.1 (20161225.0304)
 -->
<!-- Title: /home/runner/work/AliceO2/AliceO2/Framework/Core/include/Framework/TypeTraits.h Pages: 1 -->
<svg width="564pt" height="173pt"
 viewBox="0.00 0.00 564.39 173.00" xmlns="http://www.w3.org/2000/svg" xmlns:xlink="http://www.w3.org/1999/xlink">
<g id="graph0" class="graph" transform="scale(1 1) rotate(0) translate(4 169)">
<title>/home/runner/work/AliceO2/AliceO2/Framework/Core/include/Framework/TypeTraits.h</title>
<!-- Node0 -->
<g id="node1" class="node">
<title>Node0</title>
<polygon fill="#bfbfbf" stroke="#000000" points="117.8905,-123.5 117.8905,-164.5 277.8905,-164.5 277.8905,-123.5 117.8905,-123.5"/>
<text text-anchor="start" x="125.8905" y="-152.5" font-family="Helvetica,sans-Serif" font-size="10.00" fill="#000000">/home/runner/work/AliceO2</text>
<text text-anchor="start" x="125.8905" y="-141.5" font-family="Helvetica,sans-Serif" font-size="10.00" fill="#000000">/AliceO2/Framework/Core</text>
<text text-anchor="middle" x="197.8905" y="-130.5" font-family="Helvetica,sans-Serif" font-size="10.00" fill="#000000">/include/Framework/TypeTraits.h</text>
</g>
<!-- Node1 -->
<g id="node2" class="node">
<title>Node1</title>
<polygon fill="none" stroke="#bfbfbf" points="60.8905,-.5 60.8905,-19.5 122.8905,-19.5 122.8905,-.5 60.8905,-.5"/>
<text text-anchor="middle" x="91.8905" y="-7.5" font-family="Helvetica,sans-Serif" font-size="10.00" fill="#000000">type_traits</text>
</g>
<!-- Node0&#45;&gt;Node1 -->
<g id="edge1" class="edge">
<title>Node0&#45;&gt;Node1</title>
<path fill="none" stroke="#191970" d="M117.8693,-130.1686C71.5824,-120.3579 19.7978,-105.636 5.8905,-87 -2.3497,-75.958 -1.191,-67.8186 5.8905,-56 15.7845,-39.4875 33.8515,-28.5691 50.8811,-21.5328"/>
<polygon fill="#191970" stroke="#191970" points="52.5951,-24.6272 60.7184,-17.8256 50.1265,-18.0769 52.5951,-24.6272"/>
</g>
<!-- Node2 -->
<g id="node3" class="node">
<title>Node2</title>
<polygon fill="none" stroke="#bfbfbf" points="14.8905,-62 14.8905,-81 58.8905,-81 58.8905,-62 14.8905,-62"/>
<text text-anchor="middle" x="36.8905" y="-69" font-family="Helvetica,sans-Serif" font-size="10.00" fill="#000000">vector</text>
</g>
<!-- Node0&#45;&gt;Node2 -->
<g id="edge2" class="edge">
<title>Node0&#45;&gt;Node2</title>
<path fill="none" stroke="#191970" d="M149.4748,-123.4609C124.9037,-112.8631 94.6658,-99.5541 67.8905,-87 66.9098,-86.5402 65.9138,-86.0684 64.9095,-85.5887"/>
<polygon fill="#191970" stroke="#191970" points="66.3562,-82.4002 55.8341,-81.1611 63.2869,-88.6914 66.3562,-82.4002"/>
</g>
<!-- Node3 -->
<g id="node4" class="node">
<title>Node3</title>
<polygon fill="none" stroke="#bfbfbf" points="76.8905,-62 76.8905,-81 128.8905,-81 128.8905,-62 76.8905,-62"/>
<text text-anchor="middle" x="102.8905" y="-69" font-family="Helvetica,sans-Serif" font-size="10.00" fill="#000000">memory</text>
</g>
<!-- Node0&#45;&gt;Node3 -->
<g id="edge3" class="edge">
<title>Node0&#45;&gt;Node3</title>
<path fill="none" stroke="#191970" d="M170.9214,-123.4183C155.8395,-111.9085 137.3381,-97.789 123.4386,-87.1815"/>
<polygon fill="#191970" stroke="#191970" points="125.5235,-84.3698 115.4506,-81.0853 121.2768,-89.9345 125.5235,-84.3698"/>
</g>
<!-- Node4 -->
<g id="node5" class="node">
<title>Node4</title>
<g id="a_node5"><a xlink:href="../../db/d31/Traits_8h.html" target="_top" xlink:title="Framework/Traits.h">
<polygon fill="none" stroke="#000000" points="147.3905,-62 147.3905,-81 248.3905,-81 248.3905,-62 147.3905,-62"/>
<text text-anchor="middle" x="197.8905" y="-69" font-family="Helvetica,sans-Serif" font-size="10.00" fill="#000000">Framework/Traits.h</text>
</a>
</g>
</g>
<!-- Node0&#45;&gt;Node4 -->
<g id="edge4" class="edge">
<title>Node0&#45;&gt;Node4</title>
<path fill="none" stroke="#191970" d="M197.8905,-123.4183C197.8905,-113.32 197.8905,-101.213 197.8905,-91.2314"/>
<polygon fill="#191970" stroke="#191970" points="201.3906,-91.0853 197.8905,-81.0853 194.3906,-91.0854 201.3906,-91.0853"/>
</g>
<!-- Node5 -->
<g id="node6" class="node">
<title>Node5</title>
<polygon fill="none" stroke="#bfbfbf" points="266.8905,-56.5 266.8905,-86.5 370.8905,-86.5 370.8905,-56.5 266.8905,-56.5"/>
<text text-anchor="start" x="274.8905" y="-74.5" font-family="Helvetica,sans-Serif" font-size="10.00" fill="#000000">boost/archive/binary</text>
<text text-anchor="middle" x="318.8905" y="-63.5" font-family="Helvetica,sans-Serif" font-size="10.00" fill="#000000">_iarchive.hpp</text>
</g>
<!-- Node0&#45;&gt;Node5 -->
<g id="edge6" class="edge">
<title>Node0&#45;&gt;Node5</title>
<path fill="none" stroke="#191970" d="M232.2406,-123.4183C248.7471,-113.5281 268.4695,-101.7109 284.9256,-91.8509"/>
<polygon fill="#191970" stroke="#191970" points="286.9115,-94.7412 293.6906,-86.5991 283.3136,-88.7366 286.9115,-94.7412"/>
</g>
<!-- Node6 -->
<g id="node7" class="node">
<title>Node6</title>
<polygon fill="none" stroke="#bfbfbf" points="388.8905,-56.5 388.8905,-86.5 492.8905,-86.5 492.8905,-56.5 388.8905,-56.5"/>
<text text-anchor="start" x="396.8905" y="-74.5" font-family="Helvetica,sans-Serif" font-size="10.00" fill="#000000">boost/archive/binary</text>
<text text-anchor="middle" x="440.8905" y="-63.5" font-family="Helvetica,sans-Serif" font-size="10.00" fill="#000000">_oarchive.hpp</text>
</g>
<!-- Node0&#45;&gt;Node6 -->
<g id="edge7" class="edge">
<title>Node0&#45;&gt;Node6</title>
<path fill="none" stroke="#191970" d="M266.8745,-123.4183C302.633,-112.7497 345.9064,-99.8389 380.3547,-89.5611"/>
<polygon fill="#191970" stroke="#191970" points="381.7005,-92.8121 390.2824,-86.5991 379.6992,-86.1043 381.7005,-92.8121"/>
</g>
<!-- Node7 -->
<g id="node8" class="node">
<title>Node7</title>
<polygon fill="none" stroke="#bfbfbf" points="511.3905,-62 511.3905,-81 556.3905,-81 556.3905,-62 511.3905,-62"/>
<text text-anchor="middle" x="533.8905" y="-69" font-family="Helvetica,sans-Serif" font-size="10.00" fill="#000000">gsl/gsl</text>
</g>
<!-- Node0&#45;&gt;Node7 -->
<g id="edge8" class="edge">
<title>Node0&#45;&gt;Node7</title>
<path fill="none" stroke="#191970" d="M278.0773,-134.8837C340.2317,-126.4113 427.938,-111.3602 501.8905,-87 503.5431,-86.4556 505.2198,-85.8432 506.8952,-85.1843"/>
<polygon fill="#191970" stroke="#191970" points="508.552,-88.2794 516.2999,-81.053 505.7367,-81.8705 508.552,-88.2794"/>
</g>
<!-- Node4&#45;&gt;Node1 -->
<g id="edge5" class="edge">
<title>Node4&#45;&gt;Node1</title>
<path fill="none" stroke="#191970" d="M181.328,-61.8906C164.1368,-51.9165 137.0323,-36.1908 117.1639,-24.6633"/>
<polygon fill="#191970" stroke="#191970" points="118.7428,-21.533 108.3367,-19.5419 115.2298,-27.5877 118.7428,-21.533"/>
</g>
</g>
</svg>
