<?xml version="1.0" encoding="UTF-8" standalone="no"?>
<!DOCTYPE svg PUBLIC "-//W3C//DTD SVG 1.1//EN"
 "http://www.w3.org/Graphics/SVG/1.1/DTD/svg11.dtd">
<!-- Generated by graphviz version 2.40.1 (20161225.0304)
 -->
<!-- Title: /home/runner/work/AliceO2/AliceO2/Detectors/Upgrades/IT3/simulation/src/V11Geometry.cxx Pages: 1 -->
<svg width="1636pt" height="162pt"
 viewBox="0.00 0.00 1635.50 162.00" xmlns="http://www.w3.org/2000/svg" xmlns:xlink="http://www.w3.org/1999/xlink">
<g id="graph0" class="graph" transform="scale(1 1) rotate(0) translate(4 158)">
<title>/home/runner/work/AliceO2/AliceO2/Detectors/Upgrades/IT3/simulation/src/V11Geometry.cxx</title>
<!-- Node0 -->
<g id="node1" class="node">
<title>Node0</title>
<polygon fill="#bfbfbf" stroke="#000000" points="760,-112.5 760,-153.5 939,-153.5 939,-112.5 760,-112.5"/>
<text text-anchor="start" x="768" y="-141.5" font-family="Helvetica,sans-Serif" font-size="10.00" fill="#000000">/home/runner/work/AliceO2</text>
<text text-anchor="start" x="768" y="-130.5" font-family="Helvetica,sans-Serif" font-size="10.00" fill="#000000">/AliceO2/Detectors/Upgrades</text>
<text text-anchor="middle" x="849.5" y="-119.5" font-family="Helvetica,sans-Serif" font-size="10.00" fill="#000000">/IT3/simulation/src/V11Geometry.cxx</text>
</g>
<!-- Node1 -->
<g id="node2" class="node">
<title>Node1</title>
<g id="a_node2"><a xlink:href="../../d5/df4/Upgrades_2IT3_2simulation_2include_2ITS3Simulation_2V11Geometry_8h.html" target="_top" xlink:title="ITS3Simulation/V11Geometry.h">
<polygon fill="none" stroke="#000000" points="39,-56.5 39,-75.5 194,-75.5 194,-56.5 39,-56.5"/>
<text text-anchor="middle" x="116.5" y="-63.5" font-family="Helvetica,sans-Serif" font-size="10.00" fill="#000000">ITS3Simulation/V11Geometry.h</text>
</a>
</g>
</g>
<!-- Node0&#45;&gt;Node1 -->
<g id="edge1" class="edge">
<title>Node0&#45;&gt;Node1</title>
<path fill="none" stroke="#191970" d="M759.8184,-125.8404C637.0202,-115.868 409.3857,-96.7795 204.333,-76.0622"/>
<polygon fill="#191970" stroke="#191970" points="204.5791,-72.5693 194.2771,-75.043 203.8732,-79.5336 204.5791,-72.5693"/>
</g>
<!-- Node2 -->
<g id="node3" class="node">
<title>Node2</title>
<polygon fill="none" stroke="#bfbfbf" points="0,-.5 0,-19.5 53,-19.5 53,-.5 0,-.5"/>
<text text-anchor="middle" x="26.5" y="-7.5" font-family="Helvetica,sans-Serif" font-size="10.00" fill="#000000">TMath.h</text>
</g>
<!-- Node0&#45;&gt;Node2 -->
<g id="edge18" class="edge">
<title>Node0&#45;&gt;Node2</title>
<path fill="none" stroke="#191970" d="M759.9518,-129.9448C552.5107,-122.4428 54.7186,-101.8306 29.5,-76 17.8789,-64.0969 18.4623,-44.4977 21.1517,-29.7429"/>
<polygon fill="#191970" stroke="#191970" points="24.6508,-30.1385 23.4515,-19.6117 17.8245,-28.5888 24.6508,-30.1385"/>
</g>
<!-- Node5 -->
<g id="node6" class="node">
<title>Node5</title>
<polygon fill="none" stroke="#bfbfbf" points="212,-56.5 212,-75.5 283,-75.5 283,-56.5 212,-56.5"/>
<text text-anchor="middle" x="247.5" y="-63.5" font-family="Helvetica,sans-Serif" font-size="10.00" fill="#000000">FairLogger.h</text>
</g>
<!-- Node0&#45;&gt;Node5 -->
<g id="edge5" class="edge">
<title>Node0&#45;&gt;Node5</title>
<path fill="none" stroke="#191970" d="M759.8448,-127.0619C651.5277,-119.1587 463.6748,-103.1224 293.1966,-75.9437"/>
<polygon fill="#191970" stroke="#191970" points="293.7179,-72.4826 283.2887,-74.3482 292.605,-79.3936 293.7179,-72.4826"/>
</g>
<!-- Node6 -->
<g id="node7" class="node">
<title>Node6</title>
<polygon fill="none" stroke="#bfbfbf" points="301.5,-56.5 301.5,-75.5 347.5,-75.5 347.5,-56.5 301.5,-56.5"/>
<text text-anchor="middle" x="324.5" y="-63.5" font-family="Helvetica,sans-Serif" font-size="10.00" fill="#000000">TArc.h</text>
</g>
<!-- Node0&#45;&gt;Node6 -->
<g id="edge6" class="edge">
<title>Node0&#45;&gt;Node6</title>
<path fill="none" stroke="#191970" d="M759.6223,-127.6944C662.407,-120.8071 502.9326,-106.1727 357.7672,-75.9404"/>
<polygon fill="#191970" stroke="#191970" points="358.2919,-72.4741 347.7844,-73.8317 356.8451,-79.3229 358.2919,-72.4741"/>
</g>
<!-- Node7 -->
<g id="node8" class="node">
<title>Node7</title>
<polygon fill="none" stroke="#bfbfbf" points="365.5,-56.5 365.5,-75.5 421.5,-75.5 421.5,-56.5 365.5,-56.5"/>
<text text-anchor="middle" x="393.5" y="-63.5" font-family="Helvetica,sans-Serif" font-size="10.00" fill="#000000">TArrow.h</text>
</g>
<!-- Node0&#45;&gt;Node7 -->
<g id="edge7" class="edge">
<title>Node0&#45;&gt;Node7</title>
<path fill="none" stroke="#191970" d="M759.6892,-123.9547C674.6843,-114.6394 543.7385,-98.3345 431.5,-76 431.3996,-75.98 431.2992,-75.9599 431.1985,-75.9398"/>
<polygon fill="#191970" stroke="#191970" points="432.1543,-72.5669 421.6329,-73.8115 430.634,-79.3998 432.1543,-72.5669"/>
</g>
<!-- Node8 -->
<g id="node9" class="node">
<title>Node8</title>
<polygon fill="none" stroke="#bfbfbf" points="440,-56.5 440,-75.5 505,-75.5 505,-56.5 440,-56.5"/>
<text text-anchor="middle" x="472.5" y="-63.5" font-family="Helvetica,sans-Serif" font-size="10.00" fill="#000000">TCanvas.h</text>
</g>
<!-- Node0&#45;&gt;Node8 -->
<g id="edge8" class="edge">
<title>Node0&#45;&gt;Node8</title>
<path fill="none" stroke="#191970" d="M759.981,-119.3946C694.7807,-109.106 604.139,-94.0218 515.0268,-76.0012"/>
<polygon fill="#191970" stroke="#191970" points="515.5102,-72.5279 505.0129,-73.9623 514.1135,-79.3872 515.5102,-72.5279"/>
</g>
<!-- Node9 -->
<g id="node10" class="node">
<title>Node9</title>
<polygon fill="none" stroke="#bfbfbf" points="523,-56.5 523,-75.5 592,-75.5 592,-56.5 523,-56.5"/>
<text text-anchor="middle" x="557.5" y="-63.5" font-family="Helvetica,sans-Serif" font-size="10.00" fill="#000000">TGeoArb8.h</text>
</g>
<!-- Node0&#45;&gt;Node9 -->
<g id="edge9" class="edge">
<title>Node0&#45;&gt;Node9</title>
<path fill="none" stroke="#191970" d="M759.906,-112.4425C707.5579,-100.4311 643.7776,-85.7966 601.9799,-76.206"/>
<polygon fill="#191970" stroke="#191970" points="602.6374,-72.766 592.108,-73.9409 601.0719,-79.5887 602.6374,-72.766"/>
</g>
<!-- Node10 -->
<g id="node11" class="node">
<title>Node10</title>
<polygon fill="none" stroke="#bfbfbf" points="610,-56.5 610,-75.5 695,-75.5 695,-56.5 610,-56.5"/>
<text text-anchor="middle" x="652.5" y="-63.5" font-family="Helvetica,sans-Serif" font-size="10.00" fill="#000000">TGeoElement.h</text>
</g>
<!-- Node0&#45;&gt;Node10 -->
<g id="edge10" class="edge">
<title>Node0&#45;&gt;Node10</title>
<path fill="none" stroke="#191970" d="M789.0547,-112.4425C756.8202,-101.4795 718.1604,-88.3312 690.2164,-78.8274"/>
<polygon fill="#191970" stroke="#191970" points="691.0322,-75.408 680.4378,-75.5017 688.7782,-82.0352 691.0322,-75.408"/>
</g>
<!-- Node11 -->
<g id="node12" class="node">
<title>Node11</title>
<polygon fill="none" stroke="#bfbfbf" points="713,-56.5 713,-75.5 796,-75.5 796,-56.5 713,-56.5"/>
<text text-anchor="middle" x="754.5" y="-63.5" font-family="Helvetica,sans-Serif" font-size="10.00" fill="#000000">TGeoMaterial.h</text>
</g>
<!-- Node0&#45;&gt;Node11 -->
<g id="edge11" class="edge">
<title>Node0&#45;&gt;Node11</title>
<path fill="none" stroke="#191970" d="M820.2217,-112.3511C806.1356,-102.4167 789.5296,-90.7051 776.5341,-81.5398"/>
<polygon fill="#191970" stroke="#191970" points="778.3787,-78.5579 768.1894,-75.6546 774.3443,-84.2784 778.3787,-78.5579"/>
</g>
<!-- Node12 -->
<g id="node13" class="node">
<title>Node12</title>
<polygon fill="none" stroke="#bfbfbf" points="814,-56.5 814,-75.5 885,-75.5 885,-56.5 814,-56.5"/>
<text text-anchor="middle" x="849.5" y="-63.5" font-family="Helvetica,sans-Serif" font-size="10.00" fill="#000000">TGeoPcon.h</text>
</g>
<!-- Node0&#45;&gt;Node12 -->
<g id="edge12" class="edge">
<title>Node0&#45;&gt;Node12</title>
<path fill="none" stroke="#191970" d="M849.5,-112.168C849.5,-103.8226 849.5,-94.2471 849.5,-85.9879"/>
<polygon fill="#191970" stroke="#191970" points="853.0001,-85.7804 849.5,-75.7805 846.0001,-85.7805 853.0001,-85.7804"/>
</g>
<!-- Node13 -->
<g id="node14" class="node">
<title>Node13</title>
<polygon fill="none" stroke="#bfbfbf" points="903.5,-56.5 903.5,-75.5 975.5,-75.5 975.5,-56.5 903.5,-56.5"/>
<text text-anchor="middle" x="939.5" y="-63.5" font-family="Helvetica,sans-Serif" font-size="10.00" fill="#000000">TGeoCone.h</text>
</g>
<!-- Node0&#45;&gt;Node13 -->
<g id="edge13" class="edge">
<title>Node0&#45;&gt;Node13</title>
<path fill="none" stroke="#191970" d="M877.4832,-112.168C890.6044,-102.4001 905.9892,-90.9469 918.1528,-81.8918"/>
<polygon fill="#191970" stroke="#191970" points="920.4307,-84.5594 926.3621,-75.7805 916.2507,-78.9445 920.4307,-84.5594"/>
</g>
<!-- Node14 -->
<g id="node15" class="node">
<title>Node14</title>
<polygon fill="none" stroke="#bfbfbf" points="994,-56.5 994,-75.5 1043,-75.5 1043,-56.5 994,-56.5"/>
<text text-anchor="middle" x="1018.5" y="-63.5" font-family="Helvetica,sans-Serif" font-size="10.00" fill="#000000">TLine.h</text>
</g>
<!-- Node0&#45;&gt;Node14 -->
<g id="edge14" class="edge">
<title>Node0&#45;&gt;Node14</title>
<path fill="none" stroke="#191970" d="M901.5846,-112.3511C928.6911,-101.6047 961.043,-88.7788 984.8362,-79.346"/>
<polygon fill="#191970" stroke="#191970" points="986.1411,-82.5938 994.1473,-75.6546 983.5612,-76.0865 986.1411,-82.5938"/>
</g>
<!-- Node15 -->
<g id="node16" class="node">
<title>Node15</title>
<polygon fill="none" stroke="#bfbfbf" points="1061.5,-56.5 1061.5,-75.5 1129.5,-75.5 1129.5,-56.5 1061.5,-56.5"/>
<text text-anchor="middle" x="1095.5" y="-63.5" font-family="Helvetica,sans-Serif" font-size="10.00" fill="#000000">TPolyLine.h</text>
</g>
<!-- Node0&#45;&gt;Node15 -->
<g id="edge15" class="edge">
<title>Node0&#45;&gt;Node15</title>
<path fill="none" stroke="#191970" d="M924.9799,-112.4425C966.372,-101.169 1016.2482,-87.5848 1051.334,-78.0289"/>
<polygon fill="#191970" stroke="#191970" points="1052.5407,-81.3279 1061.2695,-75.3229 1050.7012,-74.5739 1052.5407,-81.3279"/>
</g>
<!-- Node16 -->
<g id="node17" class="node">
<title>Node16</title>
<polygon fill="none" stroke="#bfbfbf" points="1147.5,-56.5 1147.5,-75.5 1227.5,-75.5 1227.5,-56.5 1147.5,-56.5"/>
<text text-anchor="middle" x="1187.5" y="-63.5" font-family="Helvetica,sans-Serif" font-size="10.00" fill="#000000">TPolyMarker.h</text>
</g>
<!-- Node0&#45;&gt;Node16 -->
<g id="edge16" class="edge">
<title>Node0&#45;&gt;Node16</title>
<path fill="none" stroke="#191970" d="M939.0317,-115.4992C993.5646,-104.8024 1064.9363,-90.7368 1137.1931,-76.2536"/>
<polygon fill="#191970" stroke="#191970" points="1138.2767,-79.606 1147.393,-74.2075 1136.8999,-72.7427 1138.2767,-79.606"/>
</g>
<!-- Node17 -->
<g id="node18" class="node">
<title>Node17</title>
<polygon fill="none" stroke="#bfbfbf" points="1245.5,-56.5 1245.5,-75.5 1295.5,-75.5 1295.5,-56.5 1245.5,-56.5"/>
<text text-anchor="middle" x="1270.5" y="-63.5" font-family="Helvetica,sans-Serif" font-size="10.00" fill="#000000">TText.h</text>
</g>
<!-- Node0&#45;&gt;Node17 -->
<g id="edge17" class="edge">
<title>Node0&#45;&gt;Node17</title>
<path fill="none" stroke="#191970" d="M939.2958,-123.3828C1015.7601,-114.3638 1128.5946,-99.0977 1235.3695,-76.0081"/>
<polygon fill="#191970" stroke="#191970" points="1236.3306,-79.3807 1245.3506,-73.8227 1234.8334,-72.5427 1236.3306,-79.3807"/>
</g>
<!-- Node18 -->
<g id="node19" class="node">
<title>Node18</title>
<polygon fill="none" stroke="#bfbfbf" points="1314,-56.5 1314,-75.5 1389,-75.5 1389,-56.5 1314,-56.5"/>
<text text-anchor="middle" x="1351.5" y="-63.5" font-family="Helvetica,sans-Serif" font-size="10.00" fill="#000000">TMathBase.h</text>
</g>
<!-- Node0&#45;&gt;Node18 -->
<g id="edge19" class="edge">
<title>Node0&#45;&gt;Node18</title>
<path fill="none" stroke="#191970" d="M939.1851,-124.0409C1028.9456,-114.5544 1171.1587,-98.1163 1303.8973,-75.979"/>
<polygon fill="#191970" stroke="#191970" points="1304.5628,-79.4163 1313.8439,-74.3064 1303.4019,-72.5132 1304.5628,-79.4163"/>
</g>
<!-- Node19 -->
<g id="node20" class="node">
<title>Node19</title>
<polygon fill="none" stroke="#bfbfbf" points="1407,-56.5 1407,-75.5 1478,-75.5 1478,-56.5 1407,-56.5"/>
<text text-anchor="middle" x="1442.5" y="-63.5" font-family="Helvetica,sans-Serif" font-size="10.00" fill="#000000">TGeoTube.h</text>
</g>
<!-- Node0&#45;&gt;Node19 -->
<g id="edge20" class="edge">
<title>Node0&#45;&gt;Node19</title>
<path fill="none" stroke="#191970" d="M939.326,-126.9994C1046.2811,-119.1048 1230.4032,-103.1493 1396.6386,-76.1655"/>
<polygon fill="#191970" stroke="#191970" points="1397.2493,-79.6122 1406.551,-74.5398 1396.1163,-72.7045 1397.2493,-79.6122"/>
</g>
<!-- Node20 -->
<g id="node21" class="node">
<title>Node20</title>
<polygon fill="none" stroke="#bfbfbf" points="1496,-56.5 1496,-75.5 1539,-75.5 1539,-56.5 1496,-56.5"/>
<text text-anchor="middle" x="1517.5" y="-63.5" font-family="Helvetica,sans-Serif" font-size="10.00" fill="#000000">cstdio</text>
</g>
<!-- Node0&#45;&gt;Node20 -->
<g id="edge21" class="edge">
<title>Node0&#45;&gt;Node20</title>
<path fill="none" stroke="#191970" d="M939.2695,-127.5658C1085.1975,-118.3106 1368.5967,-98.4743 1485.8822,-75.8977"/>
<polygon fill="#191970" stroke="#191970" points="1486.5955,-79.3244 1495.7065,-73.9169 1485.212,-72.4625 1486.5955,-79.3244"/>
</g>
<!-- Node21 -->
<g id="node22" class="node">
<title>Node21</title>
<polygon fill="none" stroke="#bfbfbf" points="1557.5,-56.5 1557.5,-75.5 1627.5,-75.5 1627.5,-56.5 1557.5,-56.5"/>
<text text-anchor="middle" x="1592.5" y="-63.5" font-family="Helvetica,sans-Serif" font-size="10.00" fill="#000000">Riostream.h</text>
</g>
<!-- Node0&#45;&gt;Node21 -->
<g id="edge22" class="edge">
<title>Node0&#45;&gt;Node21</title>
<path fill="none" stroke="#191970" d="M939.0745,-129.7698C1070.562,-124.1229 1323.5766,-109.8185 1547.0929,-76.0334"/>
<polygon fill="#191970" stroke="#191970" points="1547.6846,-79.4837 1557.0414,-74.5137 1546.6275,-72.564 1547.6846,-79.4837"/>
</g>
<!-- Node1&#45;&gt;Node2 -->
<g id="edge2" class="edge">
<title>Node1&#45;&gt;Node2</title>
<path fill="none" stroke="#191970" d="M100.8232,-56.2455C87.0144,-47.6534 66.6807,-35.0014 50.7708,-25.1018"/>
<polygon fill="#191970" stroke="#191970" points="52.3368,-21.954 41.9972,-19.6427 48.6387,-27.8974 52.3368,-21.954"/>
</g>
<!-- Node3 -->
<g id="node4" class="node">
<title>Node3</title>
<polygon fill="none" stroke="#bfbfbf" points="79,-.5 79,-19.5 138,-19.5 138,-.5 79,-.5"/>
<text text-anchor="middle" x="108.5" y="-7.5" font-family="Helvetica,sans-Serif" font-size="10.00" fill="#000000">TObject.h</text>
</g>
<!-- Node1&#45;&gt;Node3 -->
<g id="edge3" class="edge">
<title>Node1&#45;&gt;Node3</title>
<path fill="none" stroke="#191970" d="M115.1065,-56.2455C114.0626,-48.9382 112.5992,-38.6944 111.3149,-29.7046"/>
<polygon fill="#191970" stroke="#191970" points="114.7566,-29.0472 109.8775,-19.6427 107.827,-30.0372 114.7566,-29.0472"/>
</g>
<!-- Node4 -->
<g id="node5" class="node">
<title>Node4</title>
<polygon fill="none" stroke="#bfbfbf" points="156.5,-.5 156.5,-19.5 212.5,-19.5 212.5,-.5 156.5,-.5"/>
<text text-anchor="middle" x="184.5" y="-7.5" font-family="Helvetica,sans-Serif" font-size="10.00" fill="#000000">Rtypes.h</text>
</g>
<!-- Node1&#45;&gt;Node4 -->
<g id="edge4" class="edge">
<title>Node1&#45;&gt;Node4</title>
<path fill="none" stroke="#191970" d="M128.3447,-56.2455C138.388,-47.9746 152.9995,-35.9416 164.8004,-26.2232"/>
<polygon fill="#191970" stroke="#191970" points="167.2967,-28.7015 172.791,-19.6427 162.8467,-23.298 167.2967,-28.7015"/>
</g>
</g>
</svg>
