<?xml version="1.0" encoding="UTF-8" standalone="no"?>
<!DOCTYPE svg PUBLIC "-//W3C//DTD SVG 1.1//EN"
 "http://www.w3.org/Graphics/SVG/1.1/DTD/svg11.dtd">
<!-- Generated by graphviz version 2.40.1 (20161225.0304)
 -->
<!-- Title: /home/runner/work/AliceO2/AliceO2/Detectors/MUON/MID/Simulation/src/ChamberEfficiencyResponse.cxx Pages: 1 -->
<svg width="246pt" height="240pt"
 viewBox="0.00 0.00 246.00 240.00" xmlns="http://www.w3.org/2000/svg" xmlns:xlink="http://www.w3.org/1999/xlink">
<g id="graph0" class="graph" transform="scale(1 1) rotate(0) translate(4 236)">
<title>/home/runner/work/AliceO2/AliceO2/Detectors/MUON/MID/Simulation/src/ChamberEfficiencyResponse.cxx</title>
<!-- Node0 -->
<g id="node1" class="node">
<title>Node0</title>
<polygon fill="#bfbfbf" stroke="#000000" points="0,-179.5 0,-231.5 190,-231.5 190,-179.5 0,-179.5"/>
<text text-anchor="start" x="8" y="-219.5" font-family="Helvetica,sans-Serif" font-size="10.00" fill="#000000">/home/runner/work/AliceO2</text>
<text text-anchor="start" x="8" y="-208.5" font-family="Helvetica,sans-Serif" font-size="10.00" fill="#000000">/AliceO2/Detectors/MUON</text>
<text text-anchor="start" x="8" y="-197.5" font-family="Helvetica,sans-Serif" font-size="10.00" fill="#000000">/MID/Simulation/src/ChamberEfficiency</text>
<text text-anchor="middle" x="95" y="-186.5" font-family="Helvetica,sans-Serif" font-size="10.00" fill="#000000">Response.cxx</text>
</g>
<!-- Node1 -->
<g id="node2" class="node">
<title>Node1</title>
<g id="a_node2"><a xlink:href="../../de/d74/ChamberEfficiencyResponse_8h.html" target="_top" xlink:title="MID RPC effciency response. ">
<polygon fill="none" stroke="#000000" points="11.5,-112.5 11.5,-142.5 178.5,-142.5 178.5,-112.5 11.5,-112.5"/>
<text text-anchor="start" x="19.5" y="-130.5" font-family="Helvetica,sans-Serif" font-size="10.00" fill="#000000">MIDSimulation/ChamberEfficiency</text>
<text text-anchor="middle" x="95" y="-119.5" font-family="Helvetica,sans-Serif" font-size="10.00" fill="#000000">Response.h</text>
</a>
</g>
</g>
<!-- Node0&#45;&gt;Node1 -->
<g id="edge1" class="edge">
<title>Node0&#45;&gt;Node1</title>
<path fill="none" stroke="#191970" d="M95,-179.0928C95,-170.516 95,-161.0289 95,-152.5538"/>
<polygon fill="#191970" stroke="#191970" points="98.5001,-152.5045 95,-142.5046 91.5001,-152.5046 98.5001,-152.5045"/>
</g>
<!-- Node2 -->
<g id="node3" class="node">
<title>Node2</title>
<polygon fill="none" stroke="#bfbfbf" points="11.5,-56.5 11.5,-75.5 60.5,-75.5 60.5,-56.5 11.5,-56.5"/>
<text text-anchor="middle" x="36" y="-63.5" font-family="Helvetica,sans-Serif" font-size="10.00" fill="#000000">random</text>
</g>
<!-- Node1&#45;&gt;Node2 -->
<g id="edge2" class="edge">
<title>Node1&#45;&gt;Node2</title>
<path fill="none" stroke="#191970" d="M80.4157,-112.2977C71.97,-103.4941 61.3108,-92.3833 52.5516,-83.2529"/>
<polygon fill="#191970" stroke="#191970" points="54.8952,-80.6402 45.4466,-75.8469 49.8439,-85.4862 54.8952,-80.6402"/>
</g>
<!-- Node3 -->
<g id="node4" class="node">
<title>Node3</title>
<g id="a_node4"><a xlink:href="../../d3/dbe/ChamberEfficiency_8h.html" target="_top" xlink:title="Measured values of the RPC efficiency. ">
<polygon fill="none" stroke="#000000" points="79,-56.5 79,-75.5 231,-75.5 231,-56.5 79,-56.5"/>
<text text-anchor="middle" x="155" y="-63.5" font-family="Helvetica,sans-Serif" font-size="10.00" fill="#000000">MIDBase/ChamberEfficiency.h</text>
</a>
</g>
</g>
<!-- Node1&#45;&gt;Node3 -->
<g id="edge3" class="edge">
<title>Node1&#45;&gt;Node3</title>
<path fill="none" stroke="#191970" d="M109.8315,-112.2977C118.4204,-103.4941 129.2602,-92.3833 138.1679,-83.2529"/>
<polygon fill="#191970" stroke="#191970" points="140.9152,-85.4489 145.3932,-75.8469 135.9047,-80.5606 140.9152,-85.4489"/>
</g>
<!-- Node4 -->
<g id="node5" class="node">
<title>Node4</title>
<polygon fill="none" stroke="#bfbfbf" points="82.5,-.5 82.5,-19.5 117.5,-19.5 117.5,-.5 82.5,-.5"/>
<text text-anchor="middle" x="100" y="-7.5" font-family="Helvetica,sans-Serif" font-size="10.00" fill="#000000">map</text>
</g>
<!-- Node3&#45;&gt;Node4 -->
<g id="edge4" class="edge">
<title>Node3&#45;&gt;Node4</title>
<path fill="none" stroke="#191970" d="M145.4197,-56.2455C137.4542,-48.1352 125.9359,-36.4075 116.4921,-26.7919"/>
<polygon fill="#191970" stroke="#191970" points="118.9747,-24.3247 109.4705,-19.6427 113.9805,-29.2297 118.9747,-24.3247"/>
</g>
<!-- Node5 -->
<g id="node6" class="node">
<title>Node5</title>
<polygon fill="none" stroke="#bfbfbf" points="136,-.5 136,-19.5 174,-19.5 174,-.5 136,-.5"/>
<text text-anchor="middle" x="155" y="-7.5" font-family="Helvetica,sans-Serif" font-size="10.00" fill="#000000">array</text>
</g>
<!-- Node3&#45;&gt;Node5 -->
<g id="edge5" class="edge">
<title>Node3&#45;&gt;Node5</title>
<path fill="none" stroke="#191970" d="M155,-56.2455C155,-48.9382 155,-38.6944 155,-29.7046"/>
<polygon fill="#191970" stroke="#191970" points="158.5001,-29.6426 155,-19.6427 151.5001,-29.6427 158.5001,-29.6426"/>
</g>
<!-- Node6 -->
<g id="node7" class="node">
<title>Node6</title>
<polygon fill="none" stroke="#bfbfbf" points="192,-.5 192,-19.5 238,-19.5 238,-.5 192,-.5"/>
<text text-anchor="middle" x="215" y="-7.5" font-family="Helvetica,sans-Serif" font-size="10.00" fill="#000000">cstdint</text>
</g>
<!-- Node3&#45;&gt;Node6 -->
<g id="edge6" class="edge">
<title>Node3&#45;&gt;Node6</title>
<path fill="none" stroke="#191970" d="M165.4512,-56.2455C174.2269,-48.0549 186.9554,-36.1749 197.314,-26.5069"/>
<polygon fill="#191970" stroke="#191970" points="199.7461,-29.0246 204.6686,-19.6427 194.9699,-23.9072 199.7461,-29.0246"/>
</g>
</g>
</svg>
