<?xml version="1.0" encoding="UTF-8" standalone="no"?>
<!DOCTYPE svg PUBLIC "-//W3C//DTD SVG 1.1//EN"
 "http://www.w3.org/Graphics/SVG/1.1/DTD/svg11.dtd">
<!-- Generated by graphviz version 2.40.1 (20161225.0304)
 -->
<!-- Title: /home/runner/work/AliceO2/AliceO2/Detectors/EMCAL/reconstruction/include/EMCALReconstruction/CaloRawFitter.h Pages: 1 -->
<!--zoomable 239 -->
<svg id="main" version="1.1" xmlns="http://www.w3.org/2000/svg" xmlns:xlink="http://www.w3.org/1999/xlink" xml:space="preserve" onload="init(evt)">
<style type="text/css"><![CDATA[
.edge:hover path { stroke: red; }
.edge:hover polygon { stroke: red; fill: red; }
]]></style>
<script type="text/javascript"><![CDATA[
var edges = document.getElementsByTagName('g');
if (edges && edges.length) {
  for (var i=0;i<edges.length;i++) {
    if (edges[i].id.substr(0,4)=='edge') {
      edges[i].setAttribute('class','edge');
    }
  }
}
]]></script>
        <defs>
                <circle id="rim" cx="0" cy="0" r="7"/>
                <circle id="rim2" cx="0" cy="0" r="3.5"/>
                <g id="zoomPlus">
                        <use xlink:href="#rim" fill="#404040">
                                <set attributeName="fill" to="#808080" begin="zoomplus.mouseover" end="zoomplus.mouseout"/>
                        </use>
                        <path d="M-4,0h8M0,-4v8" fill="none" stroke="white" stroke-width="1.5" pointer-events="none"/>
                </g>
                <g id="zoomMin">
                        <use xlink:href="#rim" fill="#404040">
                                <set attributeName="fill" to="#808080" begin="zoomminus.mouseover" end="zoomminus.mouseout"/>
                        </use>
                        <path d="M-4,0h8" fill="none" stroke="white" stroke-width="1.5" pointer-events="none"/>
                </g>
                <g id="dirArrow">
                        <path fill="none" stroke="white" stroke-width="1.5" d="M0,-3.0v7 M-2.5,-0.5L0,-3.0L2.5,-0.5"/>
                </g>
               <g id="resetDef">
                       <use xlink:href="#rim2" fill="#404040">
                               <set attributeName="fill" to="#808080" begin="reset.mouseover" end="reset.mouseout"/>
                       </use>
               </g>
        </defs>

<script type="text/javascript">
var viewWidth = 876;
var viewHeight = 239;
var sectionId = 'dynsection-1';
</script>
<script xlink:href="../../svgpan.js"/>
<svg id="graph" class="graph">
<g id="viewport">
<title>/home/runner/work/AliceO2/AliceO2/Detectors/EMCAL/reconstruction/include/EMCALReconstruction/CaloRawFitter.h</title>
<!-- Node12 -->
<g id="node1" class="node">
<title>Node12</title>
<polygon fill="#bfbfbf" stroke="#000000" points="366,-178.5 366,-230.5 584,-230.5 584,-178.5 366,-178.5"/>
<text text-anchor="start" x="374" y="-218.5" font-family="Helvetica,sans-Serif" font-size="10.00" fill="#000000">/home/runner/work/AliceO2</text>
<text text-anchor="start" x="374" y="-207.5" font-family="Helvetica,sans-Serif" font-size="10.00" fill="#000000">/AliceO2/Detectors/EMCAL</text>
<text text-anchor="start" x="374" y="-196.5" font-family="Helvetica,sans-Serif" font-size="10.00" fill="#000000">/reconstruction/include/EMCALReconstruction</text>
<text text-anchor="middle" x="475" y="-185.5" font-family="Helvetica,sans-Serif" font-size="10.00" fill="#000000">/CaloRawFitter.h</text>
</g>
<!-- Node13 -->
<g id="node2" class="node">
<title>Node13</title>
<g id="a_node2"><a xlink:href="../../d8/d35/CaloRawFitterGamma2_8h.html" target="_top" xlink:title="/home/runner/work/AliceO2\l/AliceO2/Detectors/EMCAL\l/reconstruction/include/EMCALReconstruction\l/CaloRawFitterGamma2.h">
<polygon fill="none" stroke="#000000" points="24,-89.5 24,-141.5 242,-141.5 242,-89.5 24,-89.5"/>
<text text-anchor="start" x="32" y="-129.5" font-family="Helvetica,sans-Serif" font-size="10.00" fill="#000000">/home/runner/work/AliceO2</text>
<text text-anchor="start" x="32" y="-118.5" font-family="Helvetica,sans-Serif" font-size="10.00" fill="#000000">/AliceO2/Detectors/EMCAL</text>
<text text-anchor="start" x="32" y="-107.5" font-family="Helvetica,sans-Serif" font-size="10.00" fill="#000000">/reconstruction/include/EMCALReconstruction</text>
<text text-anchor="middle" x="133" y="-96.5" font-family="Helvetica,sans-Serif" font-size="10.00" fill="#000000">/CaloRawFitterGamma2.h</text>
</a>
</g>
</g>
<!-- Node12&#45;&gt;Node13 -->
<g id="edge1" class="edge">
<title>Node12&#45;&gt;Node13</title>
<path fill="none" stroke="#191970" d="M364.9048,-175.8495C322.5177,-164.8189 274.3875,-152.2938 233.0031,-141.5242"/>
<polygon fill="#191970" stroke="#191970" points="364.1404,-179.2671 374.6996,-178.3984 365.9034,-172.4927 364.1404,-179.2671"/>
</g>
<!-- Node16 -->
<g id="node5" class="node">
<title>Node16</title>
<g id="a_node5"><a xlink:href="../../dd/d8f/CaloRawFitterStandard_8h.html" target="_top" xlink:title="/home/runner/work/AliceO2\l/AliceO2/Detectors/EMCAL\l/reconstruction/include/EMCALReconstruction\l/CaloRawFitterStandard.h">
<polygon fill="none" stroke="#000000" points="260,-89.5 260,-141.5 478,-141.5 478,-89.5 260,-89.5"/>
<text text-anchor="start" x="268" y="-129.5" font-family="Helvetica,sans-Serif" font-size="10.00" fill="#000000">/home/runner/work/AliceO2</text>
<text text-anchor="start" x="268" y="-118.5" font-family="Helvetica,sans-Serif" font-size="10.00" fill="#000000">/AliceO2/Detectors/EMCAL</text>
<text text-anchor="start" x="268" y="-107.5" font-family="Helvetica,sans-Serif" font-size="10.00" fill="#000000">/reconstruction/include/EMCALReconstruction</text>
<text text-anchor="middle" x="369" y="-96.5" font-family="Helvetica,sans-Serif" font-size="10.00" fill="#000000">/CaloRawFitterStandard.h</text>
</a>
</g>
</g>
<!-- Node12&#45;&gt;Node16 -->
<g id="edge4" class="edge">
<title>Node12&#45;&gt;Node16</title>
<path fill="none" stroke="#191970" d="M435.7866,-171.5755C423.9834,-161.6653 411.1998,-150.9319 400.007,-141.5341"/>
<polygon fill="#191970" stroke="#191970" points="433.8607,-174.5286 443.7698,-178.2784 438.3619,-169.1677 433.8607,-174.5286"/>
</g>
<!-- Node18 -->
<g id="node7" class="node">
<title>Node18</title>
<g id="a_node7"><a xlink:href="../../d6/d2c/EMCAL_2reconstruction_2src_2CaloRawFitter_8cxx.html" target="_top" xlink:title="/home/runner/work/AliceO2\l/AliceO2/Detectors/EMCAL\l/reconstruction/src/CaloRawFitter.cxx">
<polygon fill="none" stroke="#000000" points="686,-95 686,-136 868,-136 868,-95 686,-95"/>
<text text-anchor="start" x="694" y="-124" font-family="Helvetica,sans-Serif" font-size="10.00" fill="#000000">/home/runner/work/AliceO2</text>
<text text-anchor="start" x="694" y="-113" font-family="Helvetica,sans-Serif" font-size="10.00" fill="#000000">/AliceO2/Detectors/EMCAL</text>
<text text-anchor="middle" x="777" y="-102" font-family="Helvetica,sans-Serif" font-size="10.00" fill="#000000">/reconstruction/src/CaloRawFitter.cxx</text>
</a>
</g>
</g>
<!-- Node12&#45;&gt;Node18 -->
<g id="edge7" class="edge">
<title>Node12&#45;&gt;Node18</title>
<path fill="none" stroke="#191970" d="M573.3551,-175.5145C617.0259,-162.6447 667.412,-147.7958 707.1394,-136.0881"/>
<polygon fill="#191970" stroke="#191970" points="572.1721,-172.2143 563.5694,-178.3984 574.151,-178.9288 572.1721,-172.2143"/>
</g>
<!-- Node19 -->
<g id="node8" class="node">
<title>Node19</title>
<g id="a_node8"><a xlink:href="../../dd/d3d/EMCAL_2workflow_2include_2EMCALWorkflow_2RawToCellConverterSpec_8h.html" target="_top" xlink:title="/home/runner/work/AliceO2\l/AliceO2/Detectors/EMCAL\l/workflow/include/EMCALWorkflow\l/RawToCellConverterSpec.h">
<polygon fill="none" stroke="#000000" points="496.5,-89.5 496.5,-141.5 667.5,-141.5 667.5,-89.5 496.5,-89.5"/>
<text text-anchor="start" x="504.5" y="-129.5" font-family="Helvetica,sans-Serif" font-size="10.00" fill="#000000">/home/runner/work/AliceO2</text>
<text text-anchor="start" x="504.5" y="-118.5" font-family="Helvetica,sans-Serif" font-size="10.00" fill="#000000">/AliceO2/Detectors/EMCAL</text>
<text text-anchor="start" x="504.5" y="-107.5" font-family="Helvetica,sans-Serif" font-size="10.00" fill="#000000">/workflow/include/EMCALWorkflow</text>
<text text-anchor="middle" x="582" y="-96.5" font-family="Helvetica,sans-Serif" font-size="10.00" fill="#000000">/RawToCellConverterSpec.h</text>
</a>
</g>
</g>
<!-- Node12&#45;&gt;Node19 -->
<g id="edge8" class="edge">
<title>Node12&#45;&gt;Node19</title>
<path fill="none" stroke="#191970" d="M514.2399,-171.8612C526.2496,-161.8718 539.2935,-151.0222 550.7005,-141.5341"/>
<polygon fill="#191970" stroke="#191970" points="511.9747,-169.1928 506.5248,-178.2784 516.4511,-174.5745 511.9747,-169.1928"/>
</g>
<!-- Node14 -->
<g id="node3" class="node">
<title>Node14</title>
<g id="a_node3"><a xlink:href="../../df/d14/CaloRawFitterGamma2_8cxx.html" target="_top" xlink:title="/home/runner/work/AliceO2\l/AliceO2/Detectors/EMCAL\l/reconstruction/src/CaloRawFitter\lGamma2.cxx">
<polygon fill="none" stroke="#000000" points="0,-.5 0,-52.5 164,-52.5 164,-.5 0,-.5"/>
<text text-anchor="start" x="8" y="-40.5" font-family="Helvetica,sans-Serif" font-size="10.00" fill="#000000">/home/runner/work/AliceO2</text>
<text text-anchor="start" x="8" y="-29.5" font-family="Helvetica,sans-Serif" font-size="10.00" fill="#000000">/AliceO2/Detectors/EMCAL</text>
<text text-anchor="start" x="8" y="-18.5" font-family="Helvetica,sans-Serif" font-size="10.00" fill="#000000">/reconstruction/src/CaloRawFitter</text>
<text text-anchor="middle" x="82" y="-7.5" font-family="Helvetica,sans-Serif" font-size="10.00" fill="#000000">Gamma2.cxx</text>
</a>
</g>
</g>
<!-- Node13&#45;&gt;Node14 -->
<g id="edge2" class="edge">
<title>Node13&#45;&gt;Node14</title>
<path fill="none" stroke="#191970" d="M112.9804,-80.5639C107.6298,-71.2264 101.9412,-61.2993 96.9184,-52.5341"/>
<polygon fill="#191970" stroke="#191970" points="109.9655,-82.3422 117.9742,-89.2784 116.039,-78.8618 109.9655,-82.3422"/>
</g>
<!-- Node15 -->
<g id="node4" class="node">
<title>Node15</title>
<g id="a_node4"><a xlink:href="../../d2/db0/EMCAL_2workflow_2src_2RawToCellConverterSpec_8cxx.html" target="_top" xlink:title="/home/runner/work/AliceO2\l/AliceO2/Detectors/EMCAL\l/workflow/src/RawToCellConverter\lSpec.cxx">
<polygon fill="none" stroke="#000000" points="182,-.5 182,-52.5 352,-52.5 352,-.5 182,-.5"/>
<text text-anchor="start" x="190" y="-40.5" font-family="Helvetica,sans-Serif" font-size="10.00" fill="#000000">/home/runner/work/AliceO2</text>
<text text-anchor="start" x="190" y="-29.5" font-family="Helvetica,sans-Serif" font-size="10.00" fill="#000000">/AliceO2/Detectors/EMCAL</text>
<text text-anchor="start" x="190" y="-18.5" font-family="Helvetica,sans-Serif" font-size="10.00" fill="#000000">/workflow/src/RawToCellConverter</text>
<text text-anchor="middle" x="267" y="-7.5" font-family="Helvetica,sans-Serif" font-size="10.00" fill="#000000">Spec.cxx</text>
</a>
</g>
</g>
<!-- Node13&#45;&gt;Node15 -->
<g id="edge3" class="edge">
<title>Node13&#45;&gt;Node15</title>
<path fill="none" stroke="#191970" d="M180.8557,-83.7152C196.2466,-73.4929 213.1089,-62.2933 227.8025,-52.5341"/>
<polygon fill="#191970" stroke="#191970" points="178.8733,-80.8302 172.4797,-89.2784 182.7462,-86.6613 178.8733,-80.8302"/>
</g>
<!-- Node16&#45;&gt;Node15 -->
<g id="edge6" class="edge">
<title>Node16&#45;&gt;Node15</title>
<path fill="none" stroke="#191970" d="M331.2663,-82.5755C319.9085,-72.6653 307.6073,-61.9319 296.8369,-52.5341"/>
<polygon fill="#191970" stroke="#191970" points="329.1123,-85.341 338.9483,-89.2784 333.7145,-80.0666 329.1123,-85.341"/>
</g>
<!-- Node17 -->
<g id="node6" class="node">
<title>Node17</title>
<g id="a_node6"><a xlink:href="../../d5/dcd/CaloRawFitterStandard_8cxx.html" target="_top" xlink:title="/home/runner/work/AliceO2\l/AliceO2/Detectors/EMCAL\l/reconstruction/src/CaloRawFitter\lStandard.cxx">
<polygon fill="none" stroke="#000000" points="370,-.5 370,-52.5 534,-52.5 534,-.5 370,-.5"/>
<text text-anchor="start" x="378" y="-40.5" font-family="Helvetica,sans-Serif" font-size="10.00" fill="#000000">/home/runner/work/AliceO2</text>
<text text-anchor="start" x="378" y="-29.5" font-family="Helvetica,sans-Serif" font-size="10.00" fill="#000000">/AliceO2/Detectors/EMCAL</text>
<text text-anchor="start" x="378" y="-18.5" font-family="Helvetica,sans-Serif" font-size="10.00" fill="#000000">/reconstruction/src/CaloRawFitter</text>
<text text-anchor="middle" x="452" y="-7.5" font-family="Helvetica,sans-Serif" font-size="10.00" fill="#000000">Standard.cxx</text>
</a>
</g>
</g>
<!-- Node16&#45;&gt;Node17 -->
<g id="edge5" class="edge">
<title>Node16&#45;&gt;Node17</title>
<path fill="none" stroke="#191970" d="M400.5065,-81.7159C409.5234,-72.0472 419.2096,-61.6608 427.721,-52.5341"/>
<polygon fill="#191970" stroke="#191970" points="397.7144,-79.578 393.4538,-89.2784 402.8338,-84.3522 397.7144,-79.578"/>
</g>
<!-- Node19&#45;&gt;Node15 -->
<g id="edge9" class="edge">
<title>Node19&#45;&gt;Node15</title>
<path fill="none" stroke="#191970" d="M486.4775,-88.5111C443.6709,-76.4165 393.5971,-62.2687 352.096,-50.543"/>
<polygon fill="#191970" stroke="#191970" points="485.766,-91.947 496.3409,-91.2979 487.6693,-85.2107 485.766,-91.947"/>
</g>
<!-- Node20 -->
<g id="node9" class="node">
<title>Node20</title>
<g id="a_node9"><a xlink:href="../../d2/dbf/EMCAL_2workflow_2src_2RecoWorkflow_8cxx.html" target="_top" xlink:title="/home/runner/work/AliceO2\l/AliceO2/Detectors/EMCAL\l/workflow/src/RecoWorkflow.cxx">
<polygon fill="none" stroke="#000000" points="552.5,-6 552.5,-47 713.5,-47 713.5,-6 552.5,-6"/>
<text text-anchor="start" x="560.5" y="-35" font-family="Helvetica,sans-Serif" font-size="10.00" fill="#000000">/home/runner/work/AliceO2</text>
<text text-anchor="start" x="560.5" y="-24" font-family="Helvetica,sans-Serif" font-size="10.00" fill="#000000">/AliceO2/Detectors/EMCAL</text>
<text text-anchor="middle" x="633" y="-13" font-family="Helvetica,sans-Serif" font-size="10.00" fill="#000000">/workflow/src/RecoWorkflow.cxx</text>
</a>
</g>
</g>
<!-- Node19&#45;&gt;Node20 -->
<g id="edge10" class="edge">
<title>Node19&#45;&gt;Node20</title>
<path fill="none" stroke="#191970" d="M602.0694,-80.477C608.5307,-69.2014 615.4798,-57.0745 621.1513,-47.1771"/>
<polygon fill="#191970" stroke="#191970" points="598.961,-78.8618 597.0258,-89.2784 605.0345,-82.3422 598.961,-78.8618"/>
</g>
</g>
</svg>
        <g id="navigator" transform="translate(0 0)" fill="#404254">
                <rect fill="#f2f5e9" fill-opacity="0.5" stroke="#606060" stroke-width=".5" x="0" y="0" width="60" height="60"/>
                <use id="zoomplus" xlink:href="#zoomPlus" x="17" y="9" onmousedown="handleZoom(evt,'in')"/>
                <use id="zoomminus" xlink:href="#zoomMin" x="42" y="9" onmousedown="handleZoom(evt,'out')"/>
                <use id="reset" xlink:href="#resetDef" x="30" y="36" onmousedown="handleReset()"/>
                <g id="arrowUp" xlink:href="#dirArrow" transform="translate(30 24)" onmousedown="handlePan(0,-1)">
                  <use xlink:href="#rim" fill="#404040">
                        <set attributeName="fill" to="#808080" begin="arrowUp.mouseover" end="arrowUp.mouseout"/>
                  </use>
                  <path fill="none" stroke="white" stroke-width="1.5" d="M0,-3.0v7 M-2.5,-0.5L0,-3.0L2.5,-0.5"/>
                </g>
                <g id="arrowRight" xlink:href="#dirArrow" transform="rotate(90) translate(36 -43)" onmousedown="handlePan(1,0)">
                  <use xlink:href="#rim" fill="#404040">
                        <set attributeName="fill" to="#808080" begin="arrowRight.mouseover" end="arrowRight.mouseout"/>
                  </use>
                  <path fill="none" stroke="white" stroke-width="1.5" d="M0,-3.0v7 M-2.5,-0.5L0,-3.0L2.5,-0.5"/>
                </g>
                <g id="arrowDown" xlink:href="#dirArrow" transform="rotate(180) translate(-30 -48)" onmousedown="handlePan(0,1)">
                  <use xlink:href="#rim" fill="#404040">
                        <set attributeName="fill" to="#808080" begin="arrowDown.mouseover" end="arrowDown.mouseout"/>
                  </use>
                  <path fill="none" stroke="white" stroke-width="1.5" d="M0,-3.0v7 M-2.5,-0.5L0,-3.0L2.5,-0.5"/>
                </g>
                <g id="arrowLeft" xlink:href="#dirArrow" transform="rotate(270) translate(-36 17)" onmousedown="handlePan(-1,0)">
                  <use xlink:href="#rim" fill="#404040">
                        <set attributeName="fill" to="#808080" begin="arrowLeft.mouseover" end="arrowLeft.mouseout"/>
                  </use>
                  <path fill="none" stroke="white" stroke-width="1.5" d="M0,-3.0v7 M-2.5,-0.5L0,-3.0L2.5,-0.5"/>
                </g>
        </g>
        <svg viewBox="0 0 15 15" width="100%" height="30px" preserveAspectRatio="xMaxYMin meet">
         <g id="arrow_out" transform="scale(0.3 0.3)">
          <a xlink:href="EMCAL_2reconstruction_2include_2EMCALReconstruction_2CaloRawFitter_8h__dep__incl_org.svg" target="_base">
           <rect id="button" ry="5" rx="5" y="6" x="6" height="38" width="38"
                fill="#f2f5e9" fill-opacity="0.5" stroke="#606060" stroke-width="1.0"/>
           <path id="arrow"
             d="M 11.500037,31.436501 C 11.940474,20.09759 22.043105,11.32322 32.158766,21.979434 L 37.068811,17.246167 C 37.068811,17.246167 37.088388,32 37.088388,32 L 22.160133,31.978069 C 22.160133,31.978069 26.997745,27.140456 26.997745,27.140456 C 18.528582,18.264221 13.291696,25.230495 11.500037,31.436501 z"
             style="fill:#404040;"/>
          </a>
         </g>
        </svg>
</svg>
