<?xml version="1.0" encoding="UTF-8" standalone="no"?>
<!DOCTYPE svg PUBLIC "-//W3C//DTD SVG 1.1//EN"
 "http://www.w3.org/Graphics/SVG/1.1/DTD/svg11.dtd">
<!-- Generated by graphviz version 2.40.1 (20161225.0304)
 -->
<!-- Title: /home/runner/work/AliceO2/AliceO2/Framework/Core/include/Framework/DeviceConfigInfo.h Pages: 1 -->
<svg width="473pt" height="139pt"
 viewBox="0.00 0.00 473.00 139.00" xmlns="http://www.w3.org/2000/svg" xmlns:xlink="http://www.w3.org/1999/xlink">
<g id="graph0" class="graph" transform="scale(1 1) rotate(0) translate(4 135)">
<title>/home/runner/work/AliceO2/AliceO2/Framework/Core/include/Framework/DeviceConfigInfo.h</title>
<!-- Node7 -->
<g id="node1" class="node">
<title>Node7</title>
<polygon fill="#bfbfbf" stroke="#000000" points="140.5,-78.5 140.5,-130.5 304.5,-130.5 304.5,-78.5 140.5,-78.5"/>
<text text-anchor="start" x="148.5" y="-118.5" font-family="Helvetica,sans-Serif" font-size="10.00" fill="#000000">/home/runner/work/AliceO2</text>
<text text-anchor="start" x="148.5" y="-107.5" font-family="Helvetica,sans-Serif" font-size="10.00" fill="#000000">/AliceO2/Framework/Core</text>
<text text-anchor="start" x="148.5" y="-96.5" font-family="Helvetica,sans-Serif" font-size="10.00" fill="#000000">/include/Framework/DeviceConfig</text>
<text text-anchor="middle" x="222.5" y="-85.5" font-family="Helvetica,sans-Serif" font-size="10.00" fill="#000000">Info.h</text>
</g>
<!-- Node8 -->
<g id="node2" class="node">
<title>Node8</title>
<g id="a_node2"><a xlink:href="../../de/d46/DeviceConfigInfo_8cxx.html" target="_top" xlink:title="/home/runner/work/AliceO2\l/AliceO2/Framework/Core\l/src/DeviceConfigInfo.cxx">
<polygon fill="none" stroke="#000000" points="0,-.5 0,-41.5 135,-41.5 135,-.5 0,-.5"/>
<text text-anchor="start" x="8" y="-29.5" font-family="Helvetica,sans-Serif" font-size="10.00" fill="#000000">/home/runner/work/AliceO2</text>
<text text-anchor="start" x="8" y="-18.5" font-family="Helvetica,sans-Serif" font-size="10.00" fill="#000000">/AliceO2/Framework/Core</text>
<text text-anchor="middle" x="67.5" y="-7.5" font-family="Helvetica,sans-Serif" font-size="10.00" fill="#000000">/src/DeviceConfigInfo.cxx</text>
</a>
</g>
</g>
<!-- Node7&#45;&gt;Node8 -->
<g id="edge1" class="edge">
<title>Node7&#45;&gt;Node8</title>
<path fill="none" stroke="#191970" d="M164.9378,-73.4907C145.1409,-62.8259 123.4817,-51.1579 105.622,-41.5367"/>
<polygon fill="#191970" stroke="#191970" points="163.4185,-76.6478 173.8823,-78.3092 166.7385,-70.4851 163.4185,-76.6478"/>
</g>
<!-- Node9 -->
<g id="node3" class="node">
<title>Node9</title>
<g id="a_node3"><a xlink:href="../../d7/d54/runDataProcessing_8cxx.html" target="_top" xlink:title="/home/runner/work/AliceO2\l/AliceO2/Framework/Core\l/src/runDataProcessing.cxx">
<polygon fill="none" stroke="#000000" points="153.5,-.5 153.5,-41.5 291.5,-41.5 291.5,-.5 153.5,-.5"/>
<text text-anchor="start" x="161.5" y="-29.5" font-family="Helvetica,sans-Serif" font-size="10.00" fill="#000000">/home/runner/work/AliceO2</text>
<text text-anchor="start" x="161.5" y="-18.5" font-family="Helvetica,sans-Serif" font-size="10.00" fill="#000000">/AliceO2/Framework/Core</text>
<text text-anchor="middle" x="222.5" y="-7.5" font-family="Helvetica,sans-Serif" font-size="10.00" fill="#000000">/src/runDataProcessing.cxx</text>
</a>
</g>
</g>
<!-- Node7&#45;&gt;Node9 -->
<g id="edge2" class="edge">
<title>Node7&#45;&gt;Node9</title>
<path fill="none" stroke="#191970" d="M222.5,-67.8168C222.5,-58.8649 222.5,-49.5976 222.5,-41.6941"/>
<polygon fill="#191970" stroke="#191970" points="219.0001,-68.08 222.5,-78.0801 226.0001,-68.0801 219.0001,-68.08"/>
</g>
<!-- Node10 -->
<g id="node4" class="node">
<title>Node10</title>
<g id="a_node4"><a xlink:href="../../d5/da7/test__DeviceConfigInfo_8cxx.html" target="_top" xlink:title="/home/runner/work/AliceO2\l/AliceO2/Framework/Core\l/test/test_DeviceConfigInfo.cxx">
<polygon fill="none" stroke="#000000" points="310,-.5 310,-41.5 465,-41.5 465,-.5 310,-.5"/>
<text text-anchor="start" x="318" y="-29.5" font-family="Helvetica,sans-Serif" font-size="10.00" fill="#000000">/home/runner/work/AliceO2</text>
<text text-anchor="start" x="318" y="-18.5" font-family="Helvetica,sans-Serif" font-size="10.00" fill="#000000">/AliceO2/Framework/Core</text>
<text text-anchor="middle" x="387.5" y="-7.5" font-family="Helvetica,sans-Serif" font-size="10.00" fill="#000000">/test/test_DeviceConfigInfo.cxx</text>
</a>
</g>
</g>
<!-- Node7&#45;&gt;Node10 -->
<g id="edge3" class="edge">
<title>Node7&#45;&gt;Node10</title>
<path fill="none" stroke="#191970" d="M283.2068,-73.7787C304.4343,-63.0363 327.7353,-51.2446 346.9185,-41.5367"/>
<polygon fill="#191970" stroke="#191970" points="281.5965,-70.6709 274.2543,-78.3092 284.7573,-76.9167 281.5965,-70.6709"/>
</g>
</g>
</svg>
