<?xml version="1.0" encoding="UTF-8" standalone="no"?>
<!DOCTYPE svg PUBLIC "-//W3C//DTD SVG 1.1//EN"
 "http://www.w3.org/Graphics/SVG/1.1/DTD/svg11.dtd">
<!-- Generated by graphviz version 2.40.1 (20161225.0304)
 -->
<!-- Title: /home/runner/work/AliceO2/AliceO2/Detectors/MUON/MCH/Mapping/SegContour/src/CathodeSegmentationContours.cxx Pages: 1 -->
<svg width="1070pt" height="475pt"
 viewBox="0.00 0.00 1069.79 475.00" xmlns="http://www.w3.org/2000/svg" xmlns:xlink="http://www.w3.org/1999/xlink">
<g id="graph0" class="graph" transform="scale(1 1) rotate(0) translate(4 471)">
<title>/home/runner/work/AliceO2/AliceO2/Detectors/MUON/MCH/Mapping/SegContour/src/CathodeSegmentationContours.cxx</title>
<!-- Node0 -->
<g id="node1" class="node">
<title>Node0</title>
<polygon fill="#bfbfbf" stroke="#000000" points="500.5,-414.5 500.5,-466.5 691.5,-466.5 691.5,-414.5 500.5,-414.5"/>
<text text-anchor="start" x="508.5" y="-454.5" font-family="Helvetica,sans-Serif" font-size="10.00" fill="#000000">/home/runner/work/AliceO2</text>
<text text-anchor="start" x="508.5" y="-443.5" font-family="Helvetica,sans-Serif" font-size="10.00" fill="#000000">/AliceO2/Detectors/MUON</text>
<text text-anchor="start" x="508.5" y="-432.5" font-family="Helvetica,sans-Serif" font-size="10.00" fill="#000000">/MCH/Mapping/SegContour</text>
<text text-anchor="middle" x="596" y="-421.5" font-family="Helvetica,sans-Serif" font-size="10.00" fill="#000000">/src/CathodeSegmentationContours.cxx</text>
</g>
<!-- Node1 -->
<g id="node2" class="node">
<title>Node1</title>
<g id="a_node2"><a xlink:href="../../d2/d32/CathodeSegmentationContours_8h.html" target="_top" xlink:title="MCHMappingSegContour\l/CathodeSegmentationContours.h">
<polygon fill="none" stroke="#000000" points="413,-291.5 413,-321.5 577,-321.5 577,-291.5 413,-291.5"/>
<text text-anchor="start" x="421" y="-309.5" font-family="Helvetica,sans-Serif" font-size="10.00" fill="#000000">MCHMappingSegContour</text>
<text text-anchor="middle" x="495" y="-298.5" font-family="Helvetica,sans-Serif" font-size="10.00" fill="#000000">/CathodeSegmentationContours.h</text>
</a>
</g>
</g>
<!-- Node0&#45;&gt;Node1 -->
<g id="edge1" class="edge">
<title>Node0&#45;&gt;Node1</title>
<path fill="none" stroke="#191970" d="M576.2864,-414.3453C557.7778,-389.7893 530.3471,-353.3961 512.5698,-329.8105"/>
<polygon fill="#191970" stroke="#191970" points="515.3056,-327.6251 506.4915,-321.7461 509.7156,-331.8385 515.3056,-327.6251"/>
</g>
<!-- Node24 -->
<g id="node25" class="node">
<title>Node24</title>
<g id="a_node25"><a xlink:href="../../d4/d84/ContourCreator_8h.html" target="_top" xlink:title="MCHContour/ContourCreator.h">
<polygon fill="none" stroke="#000000" points="596,-358.5 596,-377.5 748,-377.5 748,-358.5 596,-358.5"/>
<text text-anchor="middle" x="672" y="-365.5" font-family="Helvetica,sans-Serif" font-size="10.00" fill="#000000">MCHContour/ContourCreator.h</text>
</a>
</g>
</g>
<!-- Node0&#45;&gt;Node24 -->
<g id="edge36" class="edge">
<title>Node0&#45;&gt;Node24</title>
<path fill="none" stroke="#191970" d="M623.4377,-414.3258C633.8294,-404.4127 645.3659,-393.4075 654.5862,-384.6118"/>
<polygon fill="#191970" stroke="#191970" points="657.1859,-386.969 662.0057,-377.534 652.3541,-381.904 657.1859,-386.969"/>
</g>
<!-- Node2 -->
<g id="node3" class="node">
<title>Node2</title>
<polygon fill="none" stroke="#bfbfbf" points="776,-56.5 776,-75.5 820,-75.5 820,-56.5 776,-56.5"/>
<text text-anchor="middle" x="798" y="-63.5" font-family="Helvetica,sans-Serif" font-size="10.00" fill="#000000">vector</text>
</g>
<!-- Node1&#45;&gt;Node2 -->
<g id="edge2" class="edge">
<title>Node1&#45;&gt;Node2</title>
<path fill="none" stroke="#191970" d="M551.1797,-291.4976C605.0977,-275.1221 686.844,-244.9404 746,-199 770.7839,-179.7529 777.1978,-172.0757 789,-143 796.4543,-124.6357 798.3108,-101.9205 798.5429,-85.9364"/>
<polygon fill="#191970" stroke="#191970" points="802.0412,-85.6245 798.4817,-75.6456 795.0413,-85.6662 802.0412,-85.6245"/>
</g>
<!-- Node3 -->
<g id="node4" class="node">
<title>Node3</title>
<g id="a_node4"><a xlink:href="../../db/d08/Contour_8h.html" target="_top" xlink:title="MCHContour/Contour.h">
<polygon fill="none" stroke="#000000" points="479,-235.5 479,-254.5 599,-254.5 599,-235.5 479,-235.5"/>
<text text-anchor="middle" x="539" y="-242.5" font-family="Helvetica,sans-Serif" font-size="10.00" fill="#000000">MCHContour/Contour.h</text>
</a>
</g>
</g>
<!-- Node1&#45;&gt;Node3 -->
<g id="edge3" class="edge">
<title>Node1&#45;&gt;Node3</title>
<path fill="none" stroke="#191970" d="M505.8764,-291.2977C511.9841,-282.7609 519.6439,-272.0545 526.0588,-263.0883"/>
<polygon fill="#191970" stroke="#191970" points="528.9829,-265.0163 531.955,-254.8469 523.2899,-260.9433 528.9829,-265.0163"/>
</g>
<!-- Node4 -->
<g id="node5" class="node">
<title>Node4</title>
<g id="a_node5"><a xlink:href="../../dc/ddd/Polygon_8h.html" target="_top" xlink:title="Polygon.h">
<polygon fill="none" stroke="#000000" points="438,-179.5 438,-198.5 498,-198.5 498,-179.5 438,-179.5"/>
<text text-anchor="middle" x="468" y="-186.5" font-family="Helvetica,sans-Serif" font-size="10.00" fill="#000000">Polygon.h</text>
</a>
</g>
</g>
<!-- Node1&#45;&gt;Node4 -->
<g id="edge25" class="edge">
<title>Node1&#45;&gt;Node4</title>
<path fill="none" stroke="#191970" d="M485.545,-291.3707C479.8807,-281.4368 473.1801,-267.9327 470,-255 466.2738,-239.8466 465.9449,-222.1473 466.4538,-208.8941"/>
<polygon fill="#191970" stroke="#191970" points="469.9678,-208.7535 467.0524,-198.5677 462.9795,-208.3483 469.9678,-208.7535"/>
</g>
<!-- Node10 -->
<g id="node11" class="node">
<title>Node10</title>
<g id="a_node11"><a xlink:href="../../d0/ddc/BBox_8h.html" target="_top" xlink:title="BBox.h">
<polygon fill="none" stroke="#000000" points="252.5,-118 252.5,-137 301.5,-137 301.5,-118 252.5,-118"/>
<text text-anchor="middle" x="277" y="-125" font-family="Helvetica,sans-Serif" font-size="10.00" fill="#000000">BBox.h</text>
</a>
</g>
</g>
<!-- Node1&#45;&gt;Node10 -->
<g id="edge26" class="edge">
<title>Node1&#45;&gt;Node10</title>
<path fill="none" stroke="#191970" d="M476.4134,-291.2386C435.5698,-257.7018 338.318,-177.8483 296.5783,-143.5758"/>
<polygon fill="#191970" stroke="#191970" points="298.7282,-140.8123 288.7786,-137.1714 294.286,-146.2223 298.7282,-140.8123"/>
</g>
<!-- Node20 -->
<g id="node21" class="node">
<title>Node20</title>
<g id="a_node21"><a xlink:href="../../df/db6/CathodeSegmentation_8h.html" target="_top" xlink:title="MCHMappingInterface\l/CathodeSegmentation.h">
<polygon fill="none" stroke="#000000" points="109.5,-112.5 109.5,-142.5 234.5,-142.5 234.5,-112.5 109.5,-112.5"/>
<text text-anchor="start" x="117.5" y="-130.5" font-family="Helvetica,sans-Serif" font-size="10.00" fill="#000000">MCHMappingInterface</text>
<text text-anchor="middle" x="172" y="-119.5" font-family="Helvetica,sans-Serif" font-size="10.00" fill="#000000">/CathodeSegmentation.h</text>
</a>
</g>
</g>
<!-- Node1&#45;&gt;Node20 -->
<g id="edge27" class="edge">
<title>Node1&#45;&gt;Node20</title>
<path fill="none" stroke="#191970" d="M467.7396,-291.3928C409.6096,-259.1784 273.4663,-183.7305 208.1749,-147.5474"/>
<polygon fill="#191970" stroke="#191970" points="209.5168,-144.2895 199.0735,-142.5036 206.1237,-150.4122 209.5168,-144.2895"/>
</g>
<!-- Node3&#45;&gt;Node2 -->
<g id="edge22" class="edge">
<title>Node3&#45;&gt;Node2</title>
<path fill="none" stroke="#191970" d="M596.0115,-235.4787C641.9282,-226.9446 702.0037,-213.556 722,-199 761.2745,-170.4107 783.1955,-114.9062 792.5318,-85.4518"/>
<polygon fill="#191970" stroke="#191970" points="795.9815,-86.1331 795.5038,-75.549 789.2769,-84.1209 795.9815,-86.1331"/>
</g>
<!-- Node3&#45;&gt;Node4 -->
<g id="edge4" class="edge">
<title>Node3&#45;&gt;Node4</title>
<path fill="none" stroke="#191970" d="M526.6327,-235.2455C516.0446,-226.8943 500.5936,-214.7076 488.2107,-204.9408"/>
<polygon fill="#191970" stroke="#191970" points="490.2447,-202.0875 480.2255,-198.6427 485.9097,-207.5837 490.2447,-202.0875"/>
</g>
<!-- Node7 -->
<g id="node8" class="node">
<title>Node7</title>
<polygon fill="none" stroke="#bfbfbf" points="319.5,-118 319.5,-137 392.5,-137 392.5,-118 319.5,-118"/>
<text text-anchor="middle" x="356" y="-125" font-family="Helvetica,sans-Serif" font-size="10.00" fill="#000000">initializer_list</text>
</g>
<!-- Node3&#45;&gt;Node7 -->
<g id="edge24" class="edge">
<title>Node3&#45;&gt;Node7</title>
<path fill="none" stroke="#191970" d="M507.5609,-235.4225C484.6622,-227.6211 453.497,-215.2447 429,-199 406.0468,-183.7791 384.0857,-160.7235 370.355,-144.9337"/>
<polygon fill="#191970" stroke="#191970" points="372.7613,-142.3603 363.6195,-137.005 367.4264,-146.8923 372.7613,-142.3603"/>
</g>
<!-- Node19 -->
<g id="node20" class="node">
<title>Node19</title>
<polygon fill="none" stroke="#bfbfbf" points="516.5,-179.5 516.5,-198.5 565.5,-198.5 565.5,-179.5 516.5,-179.5"/>
<text text-anchor="middle" x="541" y="-186.5" font-family="Helvetica,sans-Serif" font-size="10.00" fill="#000000">cassert</text>
</g>
<!-- Node3&#45;&gt;Node19 -->
<g id="edge23" class="edge">
<title>Node3&#45;&gt;Node19</title>
<path fill="none" stroke="#191970" d="M539.3484,-235.2455C539.6093,-227.9382 539.9752,-217.6944 540.2963,-208.7046"/>
<polygon fill="#191970" stroke="#191970" points="543.7964,-208.7613 540.6556,-198.6427 536.8008,-208.5113 543.7964,-208.7613"/>
</g>
<!-- Node4&#45;&gt;Node2 -->
<g id="edge7" class="edge">
<title>Node4&#45;&gt;Node2</title>
<path fill="none" stroke="#191970" d="M498.2433,-179.7126C526.736,-170.8098 570.5258,-156.7321 608,-143 664.4466,-122.3156 729.1187,-95.406 766.5897,-79.4903"/>
<polygon fill="#191970" stroke="#191970" points="768.13,-82.6386 775.9581,-75.4992 765.3864,-76.1986 768.13,-82.6386"/>
</g>
<!-- Node5 -->
<g id="node6" class="node">
<title>Node5</title>
<polygon fill="none" stroke="#bfbfbf" points="548,-56.5 548,-75.5 602,-75.5 602,-56.5 548,-56.5"/>
<text text-anchor="middle" x="575" y="-63.5" font-family="Helvetica,sans-Serif" font-size="10.00" fill="#000000">iostream</text>
</g>
<!-- Node4&#45;&gt;Node5 -->
<g id="edge5" class="edge">
<title>Node4&#45;&gt;Node5</title>
<path fill="none" stroke="#191970" d="M458.9865,-179.2043C445.8963,-163.7502 424.7671,-133.2834 440,-112 442.993,-107.8182 498.9688,-89.6874 537.8914,-77.4759"/>
<polygon fill="#191970" stroke="#191970" points="539.3668,-80.6819 547.8675,-74.3582 537.2787,-74.0006 539.3668,-80.6819"/>
</g>
<!-- Node6 -->
<g id="node7" class="node">
<title>Node6</title>
<polygon fill="none" stroke="#bfbfbf" points="449,-118 449,-137 489,-137 489,-118 449,-118"/>
<text text-anchor="middle" x="469" y="-125" font-family="Helvetica,sans-Serif" font-size="10.00" fill="#000000">utility</text>
</g>
<!-- Node4&#45;&gt;Node6 -->
<g id="edge6" class="edge">
<title>Node4&#45;&gt;Node6</title>
<path fill="none" stroke="#191970" d="M468.1563,-179.3906C468.2949,-170.8657 468.5018,-158.1392 468.676,-147.4235"/>
<polygon fill="#191970" stroke="#191970" points="472.1784,-147.3005 468.8415,-137.2449 465.1793,-147.1866 472.1784,-147.3005"/>
</g>
<!-- Node4&#45;&gt;Node7 -->
<g id="edge8" class="edge">
<title>Node4&#45;&gt;Node7</title>
<path fill="none" stroke="#191970" d="M450.5,-179.3906C432.2535,-169.3713 403.4376,-153.5483 382.4194,-142.0071"/>
<polygon fill="#191970" stroke="#191970" points="383.8272,-138.7872 373.3771,-137.0419 380.458,-144.923 383.8272,-138.7872"/>
</g>
<!-- Node8 -->
<g id="node9" class="node">
<title>Node8</title>
<polygon fill="none" stroke="#bfbfbf" points="0,-56.5 0,-75.5 52,-75.5 52,-56.5 0,-56.5"/>
<text text-anchor="middle" x="26" y="-63.5" font-family="Helvetica,sans-Serif" font-size="10.00" fill="#000000">sstream</text>
</g>
<!-- Node4&#45;&gt;Node8 -->
<g id="edge9" class="edge">
<title>Node4&#45;&gt;Node8</title>
<path fill="none" stroke="#191970" d="M437.8738,-187.8107C360.9546,-184.3698 159.2099,-172.691 100,-143 73.1844,-129.5532 50.7056,-102.3462 37.7931,-84.1437"/>
<polygon fill="#191970" stroke="#191970" points="40.4679,-81.8539 31.9405,-75.5663 34.6857,-85.7993 40.4679,-81.8539"/>
</g>
<!-- Node9 -->
<g id="node10" class="node">
<title>Node9</title>
<polygon fill="none" stroke="#bfbfbf" points="845,-118 845,-137 901,-137 901,-118 845,-118"/>
<text text-anchor="middle" x="873" y="-125" font-family="Helvetica,sans-Serif" font-size="10.00" fill="#000000">algorithm</text>
</g>
<!-- Node4&#45;&gt;Node9 -->
<g id="edge10" class="edge">
<title>Node4&#45;&gt;Node9</title>
<path fill="none" stroke="#191970" d="M498.0653,-181.1248C501.4062,-180.3568 504.7681,-179.6302 508,-179 626.3517,-155.9225 768.2133,-138.9173 834.8643,-131.5473"/>
<polygon fill="#191970" stroke="#191970" points="835.3411,-135.0161 844.9004,-130.4477 834.5787,-128.0577 835.3411,-135.0161"/>
</g>
<!-- Node4&#45;&gt;Node10 -->
<g id="edge11" class="edge">
<title>Node4&#45;&gt;Node10</title>
<path fill="none" stroke="#191970" d="M437.8423,-181.7143C405.7062,-173.6063 353.5631,-159.4575 310,-143 308.4124,-142.4002 306.7953,-141.756 305.1724,-141.0834"/>
<polygon fill="#191970" stroke="#191970" points="306.5397,-137.8612 295.9776,-137.0294 303.7157,-144.2663 306.5397,-137.8612"/>
</g>
<!-- Node17 -->
<g id="node18" class="node">
<title>Node17</title>
<g id="a_node18"><a xlink:href="../../dd/dbc/Detectors_2MUON_2MCH_2Contour_2include_2MCHContour_2Vertex_8h.html" target="_top" xlink:title="Vertex.h">
<polygon fill="none" stroke="#000000" points="545.5,-118 545.5,-137 598.5,-137 598.5,-118 545.5,-118"/>
<text text-anchor="middle" x="572" y="-125" font-family="Helvetica,sans-Serif" font-size="10.00" fill="#000000">Vertex.h</text>
</a>
</g>
</g>
<!-- Node4&#45;&gt;Node17 -->
<g id="edge18" class="edge">
<title>Node4&#45;&gt;Node17</title>
<path fill="none" stroke="#191970" d="M484.25,-179.3906C501.1169,-169.4165 527.7099,-153.6908 547.2035,-142.1633"/>
<polygon fill="#191970" stroke="#191970" points="549.038,-145.1447 555.8641,-137.0419 545.4749,-139.1194 549.038,-145.1447"/>
</g>
<!-- Node11 -->
<g id="node12" class="node">
<title>Node11</title>
<g id="a_node12"><a xlink:href="../../d2/dc4/Helper_8h.html" target="_top" xlink:title="Helper.h">
<polygon fill="none" stroke="#000000" points="620.5,-56.5 620.5,-75.5 673.5,-75.5 673.5,-56.5 620.5,-56.5"/>
<text text-anchor="middle" x="647" y="-63.5" font-family="Helvetica,sans-Serif" font-size="10.00" fill="#000000">Helper.h</text>
</a>
</g>
</g>
<!-- Node10&#45;&gt;Node11 -->
<g id="edge12" class="edge">
<title>Node10&#45;&gt;Node11</title>
<path fill="none" stroke="#191970" d="M294.7509,-117.8948C299.5788,-115.6369 304.8888,-113.4646 310,-112 436.3565,-75.7923 476.8492,-100.8145 610.1844,-75.8521"/>
<polygon fill="#191970" stroke="#191970" points="611.2181,-79.2171 620.3718,-73.8824 609.8892,-72.3444 611.2181,-79.2171"/>
</g>
<!-- Node15 -->
<g id="node16" class="node">
<title>Node15</title>
<polygon fill="none" stroke="#bfbfbf" points="402.5,-56.5 402.5,-75.5 461.5,-75.5 461.5,-56.5 402.5,-56.5"/>
<text text-anchor="middle" x="432" y="-63.5" font-family="Helvetica,sans-Serif" font-size="10.00" fill="#000000">stdexcept</text>
</g>
<!-- Node10&#45;&gt;Node15 -->
<g id="edge16" class="edge">
<title>Node10&#45;&gt;Node15</title>
<path fill="none" stroke="#191970" d="M296.7799,-117.9014C301.1079,-115.8877 305.6855,-113.8233 310,-112 338.2217,-100.0734 370.7049,-87.8995 395.0542,-79.0737"/>
<polygon fill="#191970" stroke="#191970" points="396.4016,-82.3086 404.623,-75.6258 394.0286,-75.7231 396.4016,-82.3086"/>
</g>
<!-- Node16 -->
<g id="node17" class="node">
<title>Node16</title>
<polygon fill="none" stroke="#bfbfbf" points="960,-56.5 960,-75.5 1012,-75.5 1012,-56.5 960,-56.5"/>
<text text-anchor="middle" x="986" y="-63.5" font-family="Helvetica,sans-Serif" font-size="10.00" fill="#000000">ostream</text>
</g>
<!-- Node10&#45;&gt;Node16 -->
<g id="edge17" class="edge">
<title>Node10&#45;&gt;Node16</title>
<path fill="none" stroke="#191970" d="M294.3584,-117.8787C299.2773,-115.5626 304.7305,-113.3653 310,-112 317.8207,-109.9736 810.4332,-77.524 949.692,-68.3809"/>
<polygon fill="#191970" stroke="#191970" points="950.0924,-71.8622 959.8417,-67.7147 949.6339,-64.8773 950.0924,-71.8622"/>
</g>
<!-- Node12 -->
<g id="node13" class="node">
<title>Node12</title>
<polygon fill="none" stroke="#bfbfbf" points="565,-.5 565,-19.5 609,-19.5 609,-.5 565,-.5"/>
<text text-anchor="middle" x="587" y="-7.5" font-family="Helvetica,sans-Serif" font-size="10.00" fill="#000000">cmath</text>
</g>
<!-- Node11&#45;&gt;Node12 -->
<g id="edge13" class="edge">
<title>Node11&#45;&gt;Node12</title>
<path fill="none" stroke="#191970" d="M636.5488,-56.2455C627.7731,-48.0549 615.0446,-36.1749 604.686,-26.5069"/>
<polygon fill="#191970" stroke="#191970" points="607.0301,-23.9072 597.3314,-19.6427 602.2539,-29.0246 607.0301,-23.9072"/>
</g>
<!-- Node13 -->
<g id="node14" class="node">
<title>Node13</title>
<polygon fill="none" stroke="#bfbfbf" points="627,-.5 627,-19.5 667,-19.5 667,-.5 627,-.5"/>
<text text-anchor="middle" x="647" y="-7.5" font-family="Helvetica,sans-Serif" font-size="10.00" fill="#000000">limits</text>
</g>
<!-- Node11&#45;&gt;Node13 -->
<g id="edge14" class="edge">
<title>Node11&#45;&gt;Node13</title>
<path fill="none" stroke="#191970" d="M647,-56.2455C647,-48.9382 647,-38.6944 647,-29.7046"/>
<polygon fill="#191970" stroke="#191970" points="650.5001,-29.6426 647,-19.6427 643.5001,-29.6427 650.5001,-29.6426"/>
</g>
<!-- Node14 -->
<g id="node15" class="node">
<title>Node14</title>
<polygon fill="none" stroke="#bfbfbf" points="685,-.5 685,-19.5 731,-19.5 731,-.5 685,-.5"/>
<text text-anchor="middle" x="708" y="-7.5" font-family="Helvetica,sans-Serif" font-size="10.00" fill="#000000">cstdint</text>
</g>
<!-- Node11&#45;&gt;Node14 -->
<g id="edge15" class="edge">
<title>Node11&#45;&gt;Node14</title>
<path fill="none" stroke="#191970" d="M657.6254,-56.2455C666.5473,-48.0549 679.488,-36.1749 690.0192,-26.5069"/>
<polygon fill="#191970" stroke="#191970" points="692.4968,-28.9837 697.4964,-19.6427 687.7629,-23.8271 692.4968,-28.9837"/>
</g>
<!-- Node17&#45;&gt;Node5 -->
<g id="edge19" class="edge">
<title>Node17&#45;&gt;Node5</title>
<path fill="none" stroke="#191970" d="M572.4688,-117.8906C572.8846,-109.3657 573.5054,-96.6392 574.0281,-85.9235"/>
<polygon fill="#191970" stroke="#191970" points="577.5332,-85.9035 574.5246,-75.7449 570.5415,-85.5624 577.5332,-85.9035"/>
</g>
<!-- Node17&#45;&gt;Node11 -->
<g id="edge21" class="edge">
<title>Node17&#45;&gt;Node11</title>
<path fill="none" stroke="#191970" d="M583.7188,-117.8906C595.3188,-108.3786 613.2979,-93.6357 627.1321,-82.2917"/>
<polygon fill="#191970" stroke="#191970" points="629.6026,-84.7921 635.116,-75.7449 625.164,-79.3792 629.6026,-84.7921"/>
</g>
<!-- Node18 -->
<g id="node19" class="node">
<title>Node18</title>
<polygon fill="none" stroke="#bfbfbf" points="480,-56.5 480,-75.5 530,-75.5 530,-56.5 480,-56.5"/>
<text text-anchor="middle" x="505" y="-63.5" font-family="Helvetica,sans-Serif" font-size="10.00" fill="#000000">iomanip</text>
</g>
<!-- Node17&#45;&gt;Node18 -->
<g id="edge20" class="edge">
<title>Node17&#45;&gt;Node18</title>
<path fill="none" stroke="#191970" d="M561.5313,-117.8906C551.2663,-108.4683 535.4097,-93.9134 523.0994,-82.6137"/>
<polygon fill="#191970" stroke="#191970" points="525.3501,-79.9287 515.6163,-75.7449 520.6166,-85.0856 525.3501,-79.9287"/>
</g>
<!-- Node20&#45;&gt;Node2 -->
<g id="edge32" class="edge">
<title>Node20&#45;&gt;Node2</title>
<path fill="none" stroke="#191970" d="M234.6361,-113.3516C237.4571,-112.8642 240.2548,-112.4101 243,-112 437.0557,-83.0113 487.4859,-92.4988 683,-76 710.9279,-73.6433 742.6624,-70.8771 765.7098,-68.8522"/>
<polygon fill="#191970" stroke="#191970" points="766.3019,-72.3137 775.9566,-67.9504 765.6882,-65.3406 766.3019,-72.3137"/>
</g>
<!-- Node20&#45;&gt;Node5 -->
<g id="edge31" class="edge">
<title>Node20&#45;&gt;Node5</title>
<path fill="none" stroke="#191970" d="M234.6577,-113.487C237.4728,-112.9629 240.2634,-112.4641 243,-112 370.4696,-90.3836 407.2291,-101.2433 537.9819,-75.9428"/>
<polygon fill="#191970" stroke="#191970" points="538.8424,-79.3407 547.9776,-73.9744 537.4898,-72.4726 538.8424,-79.3407"/>
</g>
<!-- Node20&#45;&gt;Node8 -->
<g id="edge33" class="edge">
<title>Node20&#45;&gt;Node8</title>
<path fill="none" stroke="#191970" d="M136.2844,-112.4554C112.3513,-102.374 81.1095,-89.2139 57.9906,-79.4755"/>
<polygon fill="#191970" stroke="#191970" points="59.1993,-76.1868 48.6248,-75.5303 56.4819,-82.6379 59.1993,-76.1868"/>
</g>
<!-- Node20&#45;&gt;Node15 -->
<g id="edge29" class="edge">
<title>Node20&#45;&gt;Node15</title>
<path fill="none" stroke="#191970" d="M234.9595,-113.217C276.8914,-103.6144 333.4645,-90.4878 392.3522,-76.1218"/>
<polygon fill="#191970" stroke="#191970" points="393.3245,-79.4872 402.2065,-73.7114 391.6612,-72.6877 393.3245,-79.4872"/>
</g>
<!-- Node20&#45;&gt;Node18 -->
<g id="edge35" class="edge">
<title>Node20&#45;&gt;Node18</title>
<path fill="none" stroke="#191970" d="M234.6795,-113.6088C237.4887,-113.0517 240.2721,-112.5127 243,-112 340.6729,-93.6437 369.1486,-98.2027 469.8668,-76.0246"/>
<polygon fill="#191970" stroke="#191970" points="470.849,-79.3914 479.844,-73.7932 469.3212,-72.5602 470.849,-79.3914"/>
</g>
<!-- Node21 -->
<g id="node22" class="node">
<title>Node21</title>
<g id="a_node22"><a xlink:href="../../d0/dc7/CathodeSegmentationCInterface_8h.html" target="_top" xlink:title="CathodeSegmentationCInterface.h">
<polygon fill="none" stroke="#000000" points="217.5,-56.5 217.5,-75.5 384.5,-75.5 384.5,-56.5 217.5,-56.5"/>
<text text-anchor="middle" x="301" y="-63.5" font-family="Helvetica,sans-Serif" font-size="10.00" fill="#000000">CathodeSegmentationCInterface.h</text>
</a>
</g>
</g>
<!-- Node20&#45;&gt;Node21 -->
<g id="edge28" class="edge">
<title>Node20&#45;&gt;Node21</title>
<path fill="none" stroke="#191970" d="M203.557,-112.4554C224.4201,-102.509 251.5691,-89.5659 271.9098,-79.8686"/>
<polygon fill="#191970" stroke="#191970" points="273.4891,-82.9931 281.0096,-75.5303 270.4767,-76.6744 273.4891,-82.9931"/>
</g>
<!-- Node22 -->
<g id="node23" class="node">
<title>Node22</title>
<polygon fill="none" stroke="#bfbfbf" points="70,-56.5 70,-75.5 122,-75.5 122,-56.5 70,-56.5"/>
<text text-anchor="middle" x="96" y="-63.5" font-family="Helvetica,sans-Serif" font-size="10.00" fill="#000000">memory</text>
</g>
<!-- Node20&#45;&gt;Node22 -->
<g id="edge30" class="edge">
<title>Node20&#45;&gt;Node22</title>
<path fill="none" stroke="#191970" d="M153.2135,-112.2977C141.8947,-103.1384 127.4895,-91.4816 115.9654,-82.1562"/>
<polygon fill="#191970" stroke="#191970" points="118.1439,-79.4167 108.1686,-75.8469 113.7405,-84.8583 118.1439,-79.4167"/>
</g>
<!-- Node23 -->
<g id="node24" class="node">
<title>Node23</title>
<polygon fill="none" stroke="#bfbfbf" points="140.5,-56.5 140.5,-75.5 199.5,-75.5 199.5,-56.5 140.5,-56.5"/>
<text text-anchor="middle" x="170" y="-63.5" font-family="Helvetica,sans-Serif" font-size="10.00" fill="#000000">functional</text>
</g>
<!-- Node20&#45;&gt;Node23 -->
<g id="edge34" class="edge">
<title>Node20&#45;&gt;Node23</title>
<path fill="none" stroke="#191970" d="M171.5056,-112.2977C171.2482,-104.3834 170.9302,-94.6043 170.6529,-86.0759"/>
<polygon fill="#191970" stroke="#191970" points="174.1435,-85.7279 170.3202,-75.8469 167.1472,-85.9554 174.1435,-85.7279"/>
</g>
<!-- Node25 -->
<g id="node26" class="node">
<title>Node25</title>
<g id="a_node26"><a xlink:href="../../dc/d15/ContourCreator_8inl.html" target="_top" xlink:title="ContourCreator.inl">
<polygon fill="none" stroke="#000000" points="693,-297 693,-316 789,-316 789,-297 693,-297"/>
<text text-anchor="middle" x="741" y="-304" font-family="Helvetica,sans-Serif" font-size="10.00" fill="#000000">ContourCreator.inl</text>
</a>
</g>
</g>
<!-- Node24&#45;&gt;Node25 -->
<g id="edge37" class="edge">
<title>Node24&#45;&gt;Node25</title>
<path fill="none" stroke="#191970" d="M682.7813,-358.3906C693.3526,-348.9683 709.6825,-334.4134 722.3603,-323.1137"/>
<polygon fill="#191970" stroke="#191970" points="724.9304,-325.5114 730.0667,-316.2449 720.2728,-320.2858 724.9304,-325.5114"/>
</g>
<!-- Node25&#45;&gt;Node2 -->
<g id="edge39" class="edge">
<title>Node25&#45;&gt;Node2</title>
<path fill="none" stroke="#191970" d="M758.4927,-296.9627C795.7623,-275.4426 881.8851,-219.0018 910,-143 914.7801,-130.078 917.6716,-123.4443 910,-112 892.3307,-85.6415 856.5539,-74.3739 830.1695,-69.5651"/>
<polygon fill="#191970" stroke="#191970" points="830.6511,-66.0977 820.2232,-67.9713 829.5435,-73.0095 830.6511,-66.0977"/>
</g>
<!-- Node25&#45;&gt;Node3 -->
<g id="edge52" class="edge">
<title>Node25&#45;&gt;Node3</title>
<path fill="none" stroke="#191970" d="M709.4375,-296.8906C674.6015,-286.2846 618.405,-269.1753 580.1412,-257.5257"/>
<polygon fill="#191970" stroke="#191970" points="580.9267,-254.1063 570.3409,-254.5419 578.8879,-260.8028 580.9267,-254.1063"/>
</g>
<!-- Node25&#45;&gt;Node4 -->
<g id="edge51" class="edge">
<title>Node25&#45;&gt;Node4</title>
<path fill="none" stroke="#191970" d="M725.478,-296.989C701.1062,-282.3262 652.0863,-253.9188 608,-235 575.1256,-220.8926 536.396,-208.4727 508.0153,-200.1056"/>
<polygon fill="#191970" stroke="#191970" points="508.6369,-196.6415 498.0574,-197.2107 506.6828,-203.3632 508.6369,-196.6415"/>
</g>
<!-- Node25&#45;&gt;Node5 -->
<g id="edge40" class="edge">
<title>Node25&#45;&gt;Node5</title>
<path fill="none" stroke="#191970" d="M741.8931,-296.7489C743.4789,-274.2802 744.728,-217.8195 722,-179 694.5718,-132.1524 639.4869,-97.989 605.0872,-80.1286"/>
<polygon fill="#191970" stroke="#191970" points="606.4775,-76.9098 595.9734,-75.5264 603.3221,-83.1583 606.4775,-76.9098"/>
</g>
<!-- Node25&#45;&gt;Node6 -->
<g id="edge38" class="edge">
<title>Node25&#45;&gt;Node6</title>
<path fill="none" stroke="#191970" d="M729.9093,-296.6912C704.0312,-274.1012 637.1315,-217.4029 575,-179 550.2487,-163.7014 520.2837,-149.5066 498.5368,-139.9107"/>
<polygon fill="#191970" stroke="#191970" points="499.7377,-136.6163 489.1715,-135.8379 496.9461,-143.0356 499.7377,-136.6163"/>
</g>
<!-- Node25&#45;&gt;Node9 -->
<g id="edge58" class="edge">
<title>Node25&#45;&gt;Node9</title>
<path fill="none" stroke="#191970" d="M751.9726,-296.8021C762.9444,-286.8453 780.0092,-270.6374 793,-255 822.631,-219.3325 849.6208,-171.853 863.3947,-146.0729"/>
<polygon fill="#191970" stroke="#191970" points="866.5932,-147.5108 868.1566,-137.032 860.3997,-144.2487 866.5932,-147.5108"/>
</g>
<!-- Node26 -->
<g id="node27" class="node">
<title>Node26</title>
<g id="a_node27"><a xlink:href="../../d5/de0/Edge_8h.html" target="_top" xlink:title="Edge.h">
<polygon fill="none" stroke="#000000" points="665.5,-179.5 665.5,-198.5 712.5,-198.5 712.5,-179.5 665.5,-179.5"/>
<text text-anchor="middle" x="689" y="-186.5" font-family="Helvetica,sans-Serif" font-size="10.00" fill="#000000">Edge.h</text>
</a>
</g>
</g>
<!-- Node25&#45;&gt;Node26 -->
<g id="edge41" class="edge">
<title>Node25&#45;&gt;Node26</title>
<path fill="none" stroke="#191970" d="M738.5381,-296.9872C734.7665,-283.0374 726.939,-256.3708 717,-235 712.5313,-225.3915 706.5309,-215.2741 701.2311,-206.9819"/>
<polygon fill="#191970" stroke="#191970" points="704.0842,-204.9504 695.6641,-198.5198 698.2362,-208.7977 704.0842,-204.9504"/>
</g>
<!-- Node28 -->
<g id="node29" class="node">
<title>Node28</title>
<g id="a_node29"><a xlink:href="../../dc/ded/SegmentTree_8h.html" target="_top" xlink:title="SegmentTree.h">
<polygon fill="none" stroke="#000000" points="957.5,-179.5 957.5,-198.5 1040.5,-198.5 1040.5,-179.5 957.5,-179.5"/>
<text text-anchor="middle" x="999" y="-186.5" font-family="Helvetica,sans-Serif" font-size="10.00" fill="#000000">SegmentTree.h</text>
</a>
</g>
</g>
<!-- Node25&#45;&gt;Node28 -->
<g id="edge53" class="edge">
<title>Node25&#45;&gt;Node28</title>
<path fill="none" stroke="#191970" d="M789.1379,-302.5518C832.2337,-297.1685 895.7315,-284.5302 943,-255 962.2084,-242.9999 978.2098,-222.2528 988.1225,-207.2177"/>
<polygon fill="#191970" stroke="#191970" points="991.1057,-209.0486 993.4819,-198.7237 985.1856,-205.3133 991.1057,-209.0486"/>
</g>
<!-- Node26&#45;&gt;Node2 -->
<g id="edge43" class="edge">
<title>Node26&#45;&gt;Node2</title>
<path fill="none" stroke="#191970" d="M697.553,-179.3484C715.9391,-158.6008 759.4408,-109.5117 782.7028,-83.262"/>
<polygon fill="#191970" stroke="#191970" points="785.4738,-85.4123 789.4867,-75.6068 780.2349,-80.7696 785.4738,-85.4123"/>
</g>
<!-- Node26&#45;&gt;Node5 -->
<g id="edge44" class="edge">
<title>Node26&#45;&gt;Node5</title>
<path fill="none" stroke="#191970" d="M680.0546,-179.3484C660.8251,-158.6008 615.328,-109.5117 590.9989,-83.262"/>
<polygon fill="#191970" stroke="#191970" points="593.2685,-80.5619 583.9038,-75.6068 588.1345,-85.3203 593.2685,-80.5619"/>
</g>
<!-- Node26&#45;&gt;Node6 -->
<g id="edge42" class="edge">
<title>Node26&#45;&gt;Node6</title>
<path fill="none" stroke="#191970" d="M665.301,-182.6902C660.568,-181.4508 655.6292,-180.172 651,-179 585.3748,-162.3852 566.9731,-165.1394 503,-143 501.3563,-142.4311 499.6839,-141.8114 498.0069,-141.1577"/>
<polygon fill="#191970" stroke="#191970" points="499.0933,-137.8175 488.5189,-137.1599 496.3752,-144.2683 499.0933,-137.8175"/>
</g>
<!-- Node26&#45;&gt;Node17 -->
<g id="edge50" class="edge">
<title>Node26&#45;&gt;Node17</title>
<path fill="none" stroke="#191970" d="M670.7188,-179.3906C651.4859,-169.2811 621.0121,-153.2628 599.0075,-141.6962"/>
<polygon fill="#191970" stroke="#191970" points="600.633,-138.5967 590.1529,-137.0419 597.376,-144.7928 600.633,-138.5967"/>
</g>
<!-- Node26&#45;&gt;Node18 -->
<g id="edge45" class="edge">
<title>Node26&#45;&gt;Node18</title>
<path fill="none" stroke="#191970" d="M665.1964,-182.3719C623.6606,-170.7262 541.8686,-147.4046 537,-143 520.4442,-128.0222 512.2224,-103.1464 508.3017,-85.7336"/>
<polygon fill="#191970" stroke="#191970" points="511.663,-84.686 506.302,-75.5476 504.7941,-86.0345 511.663,-84.686"/>
</g>
<!-- Node27 -->
<g id="node28" class="node">
<title>Node27</title>
<g id="a_node28"><a xlink:href="../../d1/d55/Interval_8h.html" target="_top" xlink:title="Interval.h">
<polygon fill="none" stroke="#000000" points="957.5,-118 957.5,-137 1014.5,-137 1014.5,-118 957.5,-118"/>
<text text-anchor="middle" x="986" y="-125" font-family="Helvetica,sans-Serif" font-size="10.00" fill="#000000">Interval.h</text>
</a>
</g>
</g>
<!-- Node26&#45;&gt;Node27 -->
<g id="edge46" class="edge">
<title>Node26&#45;&gt;Node27</title>
<path fill="none" stroke="#191970" d="M712.5533,-184.1228C763.6298,-173.5463 884.9953,-148.4151 947.4325,-135.4862"/>
<polygon fill="#191970" stroke="#191970" points="948.2075,-138.9001 957.29,-133.445 946.788,-132.0455 948.2075,-138.9001"/>
</g>
<!-- Node27&#45;&gt;Node2 -->
<g id="edge47" class="edge">
<title>Node27&#45;&gt;Node2</title>
<path fill="none" stroke="#191970" d="M960.1351,-117.9932C954.5012,-115.9738 948.5619,-113.8839 943,-112 904.2897,-98.8884 859.3935,-84.8192 829.9361,-75.7415"/>
<polygon fill="#191970" stroke="#191970" points="830.783,-72.3402 820.196,-72.7485 828.7268,-79.0315 830.783,-72.3402"/>
</g>
<!-- Node27&#45;&gt;Node11 -->
<g id="edge49" class="edge">
<title>Node27&#45;&gt;Node11</title>
<path fill="none" stroke="#191970" d="M957.1663,-121.4213C942.9794,-118.481 925.6124,-114.9568 910,-112 829.4266,-96.7404 734.6123,-80.6029 683.7213,-72.0886"/>
<polygon fill="#191970" stroke="#191970" points="683.9891,-68.585 673.5493,-70.3906 682.8364,-75.4895 683.9891,-68.585"/>
</g>
<!-- Node27&#45;&gt;Node16 -->
<g id="edge48" class="edge">
<title>Node27&#45;&gt;Node16</title>
<path fill="none" stroke="#191970" d="M986,-117.8906C986,-109.3657 986,-96.6392 986,-85.9235"/>
<polygon fill="#191970" stroke="#191970" points="989.5001,-85.7448 986,-75.7449 982.5001,-85.7449 989.5001,-85.7448"/>
</g>
<!-- Node28&#45;&gt;Node2 -->
<g id="edge54" class="edge">
<title>Node28&#45;&gt;Node2</title>
<path fill="none" stroke="#191970" d="M1007.2953,-179.4181C1019.8477,-163.7193 1040.5395,-132.2451 1024,-112 999.9037,-82.5051 886.8163,-71.4442 830.307,-67.7079"/>
<polygon fill="#191970" stroke="#191970" points="830.3234,-64.2022 820.1251,-67.0738 829.8882,-71.1887 830.3234,-64.2022"/>
</g>
<!-- Node28&#45;&gt;Node9 -->
<g id="edge56" class="edge">
<title>Node28&#45;&gt;Node9</title>
<path fill="none" stroke="#191970" d="M979.3125,-179.3906C958.5078,-169.2359 925.489,-153.1196 901.7681,-141.5416"/>
<polygon fill="#191970" stroke="#191970" points="903.0712,-138.283 892.5493,-137.0419 900.0007,-144.5736 903.0712,-138.283"/>
</g>
<!-- Node28&#45;&gt;Node16 -->
<g id="edge55" class="edge">
<title>Node28&#45;&gt;Node16</title>
<path fill="none" stroke="#191970" d="M1018.8241,-179.3695C1032.3215,-171.6136 1049.1157,-159.3161 1057,-143 1062.9946,-130.5947 1063.5807,-124.1046 1057,-112 1049.3053,-97.8462 1035.17,-87.3764 1021.5259,-80.0321"/>
<polygon fill="#191970" stroke="#191970" points="1022.7588,-76.7372 1012.2436,-75.44 1019.6548,-83.0114 1022.7588,-76.7372"/>
</g>
<!-- Node28&#45;&gt;Node27 -->
<g id="edge57" class="edge">
<title>Node28&#45;&gt;Node27</title>
<path fill="none" stroke="#191970" d="M996.9688,-179.3906C995.1478,-170.776 992.4198,-157.8708 990.1401,-147.0858"/>
<polygon fill="#191970" stroke="#191970" points="993.5524,-146.3048 988.0599,-137.2449 986.7038,-147.7525 993.5524,-146.3048"/>
</g>
</g>
</svg>
