<?xml version="1.0" encoding="UTF-8" standalone="no"?>
<!DOCTYPE svg PUBLIC "-//W3C//DTD SVG 1.1//EN"
 "http://www.w3.org/Graphics/SVG/1.1/DTD/svg11.dtd">
<!-- Generated by graphviz version 2.40.1 (20161225.0304)
 -->
<!-- Title: /home/runner/work/AliceO2/AliceO2/GPU/TPCFastTransformation/Spline1DSpec.cxx Pages: 1 -->
<svg width="802pt" height="386pt"
 viewBox="0.00 0.00 802.21 386.00" xmlns="http://www.w3.org/2000/svg" xmlns:xlink="http://www.w3.org/1999/xlink">
<g id="graph0" class="graph" transform="scale(1 1) rotate(0) translate(4 382)">
<title>/home/runner/work/AliceO2/AliceO2/GPU/TPCFastTransformation/Spline1DSpec.cxx</title>
<!-- Node0 -->
<g id="node1" class="node">
<title>Node0</title>
<polygon fill="#bfbfbf" stroke="#000000" points="368.713,-336.5 368.713,-377.5 555.713,-377.5 555.713,-336.5 368.713,-336.5"/>
<text text-anchor="start" x="376.713" y="-365.5" font-family="Helvetica,sans-Serif" font-size="10.00" fill="#000000">/home/runner/work/AliceO2</text>
<text text-anchor="start" x="376.713" y="-354.5" font-family="Helvetica,sans-Serif" font-size="10.00" fill="#000000">/AliceO2/GPU/TPCFastTransformation</text>
<text text-anchor="middle" x="462.213" y="-343.5" font-family="Helvetica,sans-Serif" font-size="10.00" fill="#000000">/Spline1DSpec.cxx</text>
</g>
<!-- Node1 -->
<g id="node2" class="node">
<title>Node1</title>
<g id="a_node2"><a xlink:href="../../d0/d51/Spline1DSpec_8h.html" target="_top" xlink:title="Definition of Spline1DSpec class. ">
<polygon fill="none" stroke="#000000" points="390.713,-168.5 390.713,-187.5 477.713,-187.5 477.713,-168.5 390.713,-168.5"/>
<text text-anchor="middle" x="434.213" y="-175.5" font-family="Helvetica,sans-Serif" font-size="10.00" fill="#000000">Spline1DSpec.h</text>
</a>
</g>
</g>
<!-- Node0&#45;&gt;Node1 -->
<g id="edge1" class="edge">
<title>Node0&#45;&gt;Node1</title>
<path fill="none" stroke="#191970" d="M430.7442,-336.4714C403.3787,-316.5611 365.6166,-283.6018 349.213,-244 339.1202,-219.6337 366.0038,-202.0712 392.1535,-191.218"/>
<polygon fill="#191970" stroke="#191970" points="393.626,-194.4011 401.6846,-187.5229 391.0956,-187.8744 393.626,-194.4011"/>
</g>
<!-- Node13 -->
<g id="node14" class="node">
<title>Node13</title>
<polygon fill="none" stroke="#bfbfbf" points="91.213,-.5 91.213,-19.5 145.213,-19.5 145.213,-.5 91.213,-.5"/>
<text text-anchor="middle" x="118.213" y="-7.5" font-family="Helvetica,sans-Serif" font-size="10.00" fill="#000000">iostream</text>
</g>
<!-- Node0&#45;&gt;Node13 -->
<g id="edge18" class="edge">
<title>Node0&#45;&gt;Node13</title>
<path fill="none" stroke="#191970" d="M368.4421,-351.0197C233.402,-339.7935 .213,-309.4802 .213,-234 .213,-234 .213,-234 .213,-122 .213,-91.4754 -.6391,-79.1872 19.213,-56 35.1741,-37.3576 60.3184,-25.8052 81.2719,-18.9401"/>
<polygon fill="#191970" stroke="#191970" points="82.3115,-22.2823 90.8587,-16.0215 80.2728,-15.5857 82.3115,-22.2823"/>
</g>
<!-- Node17 -->
<g id="node18" class="node">
<title>Node17</title>
<g id="a_node18"><a xlink:href="../../de/dc8/Spline1DHelper_8h.html" target="_top" xlink:title="Definition of Spline1DHelper class. ">
<polygon fill="none" stroke="#000000" points="415.713,-280.5 415.713,-299.5 508.713,-299.5 508.713,-280.5 415.713,-280.5"/>
<text text-anchor="middle" x="462.213" y="-287.5" font-family="Helvetica,sans-Serif" font-size="10.00" fill="#000000">Spline1DHelper.h</text>
</a>
</g>
</g>
<!-- Node0&#45;&gt;Node17 -->
<g id="edge19" class="edge">
<title>Node0&#45;&gt;Node17</title>
<path fill="none" stroke="#191970" d="M462.213,-336.168C462.213,-327.8226 462.213,-318.2471 462.213,-309.9879"/>
<polygon fill="#191970" stroke="#191970" points="465.7131,-309.7804 462.213,-299.7805 458.7131,-309.7805 465.7131,-309.7804"/>
</g>
<!-- Node22 -->
<g id="node23" class="node">
<title>Node22</title>
<polygon fill="none" stroke="#bfbfbf" points="526.713,-280.5 526.713,-299.5 573.713,-299.5 573.713,-280.5 526.713,-280.5"/>
<text text-anchor="middle" x="550.213" y="-287.5" font-family="Helvetica,sans-Serif" font-size="10.00" fill="#000000">TFile.h</text>
</g>
<!-- Node0&#45;&gt;Node22 -->
<g id="edge28" class="edge">
<title>Node0&#45;&gt;Node22</title>
<path fill="none" stroke="#191970" d="M489.5744,-336.168C502.404,-326.4001 517.4469,-314.9469 529.3402,-305.8918"/>
<polygon fill="#191970" stroke="#191970" points="531.5308,-308.623 537.367,-299.7805 527.2904,-303.0535 531.5308,-308.623"/>
</g>
<!-- Node23 -->
<g id="node24" class="node">
<title>Node23</title>
<g id="a_node24"><a xlink:href="../../d6/da2/GPUCommonMath_8h.html" target="_top" xlink:title="GPUCommonMath.h">
<polygon fill="none" stroke="#000000" points="631.213,-280.5 631.213,-299.5 739.213,-299.5 739.213,-280.5 631.213,-280.5"/>
<text text-anchor="middle" x="685.213" y="-287.5" font-family="Helvetica,sans-Serif" font-size="10.00" fill="#000000">GPUCommonMath.h</text>
</a>
</g>
</g>
<!-- Node0&#45;&gt;Node23 -->
<g id="edge29" class="edge">
<title>Node0&#45;&gt;Node23</title>
<path fill="none" stroke="#191970" d="M530.6359,-336.4425C567.6048,-325.3352 612.0396,-311.9848 643.7611,-302.4542"/>
<polygon fill="#191970" stroke="#191970" points="645.0181,-305.7311 653.588,-299.5017 643.0038,-299.0272 645.0181,-305.7311"/>
</g>
<!-- Node2 -->
<g id="node3" class="node">
<title>Node2</title>
<g id="a_node3"><a xlink:href="../../df/d21/GPUCommonDef_8h.html" target="_top" xlink:title="GPUCommonDef.h">
<polygon fill="none" stroke="#000000" points="431.213,-56.5 431.213,-75.5 533.213,-75.5 533.213,-56.5 431.213,-56.5"/>
<text text-anchor="middle" x="482.213" y="-63.5" font-family="Helvetica,sans-Serif" font-size="10.00" fill="#000000">GPUCommonDef.h</text>
</a>
</g>
</g>
<!-- Node1&#45;&gt;Node2 -->
<g id="edge2" class="edge">
<title>Node1&#45;&gt;Node2</title>
<path fill="none" stroke="#191970" d="M441.5236,-168.2298C447.9797,-159.2183 457.2662,-145.2668 463.213,-132 469.9192,-117.0392 474.9027,-99.1095 478.0795,-85.7161"/>
<polygon fill="#191970" stroke="#191970" points="481.5531,-86.2203 480.3211,-75.6973 474.722,-84.6918 481.5531,-86.2203"/>
</g>
<!-- Node5 -->
<g id="node6" class="node">
<title>Node5</title>
<g id="a_node6"><a xlink:href="../../db/dff/FlatObject_8h.html" target="_top" xlink:title="Definition of FlatObject class. ">
<polygon fill="none" stroke="#000000" points="231.213,-112.5 231.213,-131.5 301.213,-131.5 301.213,-112.5 231.213,-112.5"/>
<text text-anchor="middle" x="266.213" y="-119.5" font-family="Helvetica,sans-Serif" font-size="10.00" fill="#000000">FlatObject.h</text>
</a>
</g>
</g>
<!-- Node1&#45;&gt;Node5 -->
<g id="edge5" class="edge">
<title>Node1&#45;&gt;Node5</title>
<path fill="none" stroke="#191970" d="M405.3328,-168.3733C377.397,-159.0613 334.8988,-144.8953 304.2261,-134.671"/>
<polygon fill="#191970" stroke="#191970" points="305.3101,-131.3431 294.7164,-131.5011 303.0964,-137.9839 305.3101,-131.3431"/>
</g>
<!-- Node15 -->
<g id="node16" class="node">
<title>Node15</title>
<g id="a_node16"><a xlink:href="../../db/d04/SplineUtil_8h.html" target="_top" xlink:title="SplineUtil.h">
<polygon fill="none" stroke="#000000" points="386.713,-112.5 386.713,-131.5 453.713,-131.5 453.713,-112.5 386.713,-112.5"/>
<text text-anchor="middle" x="420.213" y="-119.5" font-family="Helvetica,sans-Serif" font-size="10.00" fill="#000000">SplineUtil.h</text>
</a>
</g>
</g>
<!-- Node1&#45;&gt;Node15 -->
<g id="edge16" class="edge">
<title>Node1&#45;&gt;Node15</title>
<path fill="none" stroke="#191970" d="M431.7744,-168.2455C429.9275,-160.8579 427.3303,-150.4689 425.0652,-141.4087"/>
<polygon fill="#191970" stroke="#191970" points="428.4446,-140.4952 422.6237,-131.6427 421.6536,-142.193 428.4446,-140.4952"/>
</g>
<!-- Node16 -->
<g id="node17" class="node">
<title>Node16</title>
<polygon fill="none" stroke="#bfbfbf" points="518.713,-112.5 518.713,-131.5 577.713,-131.5 577.713,-112.5 518.713,-112.5"/>
<text text-anchor="middle" x="548.213" y="-119.5" font-family="Helvetica,sans-Serif" font-size="10.00" fill="#000000">functional</text>
</g>
<!-- Node1&#45;&gt;Node16 -->
<g id="edge17" class="edge">
<title>Node1&#45;&gt;Node16</title>
<path fill="none" stroke="#191970" d="M453.8103,-168.3733C471.9462,-159.4644 499.1265,-146.1127 519.6717,-136.0203"/>
<polygon fill="#191970" stroke="#191970" points="521.4391,-139.0517 528.8715,-131.5011 518.3527,-132.7688 521.4391,-139.0517"/>
</g>
<!-- Node3 -->
<g id="node4" class="node">
<title>Node3</title>
<g id="a_node4"><a xlink:href="../../d5/d93/GPUCommonDefSettings_8h.html" target="_top" xlink:title="GPUCommonDefSettings.h">
<polygon fill="none" stroke="#000000" points="466.213,-.5 466.213,-19.5 604.213,-19.5 604.213,-.5 466.213,-.5"/>
<text text-anchor="middle" x="535.213" y="-7.5" font-family="Helvetica,sans-Serif" font-size="10.00" fill="#000000">GPUCommonDefSettings.h</text>
</a>
</g>
</g>
<!-- Node2&#45;&gt;Node3 -->
<g id="edge3" class="edge">
<title>Node2&#45;&gt;Node3</title>
<path fill="none" stroke="#191970" d="M491.4449,-56.2455C499.0448,-48.2155 510.0008,-36.6394 519.0498,-27.0781"/>
<polygon fill="#191970" stroke="#191970" points="521.7551,-29.3115 526.0869,-19.6427 516.671,-24.4998 521.7551,-29.3115"/>
</g>
<!-- Node4 -->
<g id="node5" class="node">
<title>Node4</title>
<g id="a_node5"><a xlink:href="../../da/d5a/GPUCommonDefAPI_8h.html" target="_top" xlink:title="GPUCommonDefAPI.h">
<polygon fill="none" stroke="#000000" points="328.713,-.5 328.713,-19.5 447.713,-19.5 447.713,-.5 328.713,-.5"/>
<text text-anchor="middle" x="388.213" y="-7.5" font-family="Helvetica,sans-Serif" font-size="10.00" fill="#000000">GPUCommonDefAPI.h</text>
</a>
</g>
</g>
<!-- Node2&#45;&gt;Node4 -->
<g id="edge4" class="edge">
<title>Node2&#45;&gt;Node4</title>
<path fill="none" stroke="#191970" d="M465.8395,-56.2455C451.2822,-47.5731 429.782,-34.7645 413.0978,-24.825"/>
<polygon fill="#191970" stroke="#191970" points="414.7813,-21.7539 404.399,-19.6427 411.1986,-27.7676 414.7813,-21.7539"/>
</g>
<!-- Node5&#45;&gt;Node2 -->
<g id="edge10" class="edge">
<title>Node5&#45;&gt;Node2</title>
<path fill="none" stroke="#191970" d="M301.3979,-112.878C337.8754,-103.4209 395.097,-88.5856 435.3802,-78.1418"/>
<polygon fill="#191970" stroke="#191970" points="436.4322,-81.4849 445.2338,-75.5872 434.6754,-74.7089 436.4322,-81.4849"/>
</g>
<!-- Node6 -->
<g id="node7" class="node">
<title>Node6</title>
<polygon fill="none" stroke="#bfbfbf" points="95.713,-56.5 95.713,-75.5 144.713,-75.5 144.713,-56.5 95.713,-56.5"/>
<text text-anchor="middle" x="120.213" y="-63.5" font-family="Helvetica,sans-Serif" font-size="10.00" fill="#000000">cstddef</text>
</g>
<!-- Node5&#45;&gt;Node6 -->
<g id="edge6" class="edge">
<title>Node5&#45;&gt;Node6</title>
<path fill="none" stroke="#191970" d="M241.1147,-112.3733C217.2576,-103.2226 181.1795,-89.3844 154.6421,-79.2057"/>
<polygon fill="#191970" stroke="#191970" points="155.574,-75.8145 144.9838,-75.5011 153.0671,-82.3503 155.574,-75.8145"/>
</g>
<!-- Node7 -->
<g id="node8" class="node">
<title>Node7</title>
<polygon fill="none" stroke="#bfbfbf" points="163.213,-56.5 163.213,-75.5 215.213,-75.5 215.213,-56.5 163.213,-56.5"/>
<text text-anchor="middle" x="189.213" y="-63.5" font-family="Helvetica,sans-Serif" font-size="10.00" fill="#000000">memory</text>
</g>
<!-- Node5&#45;&gt;Node7 -->
<g id="edge7" class="edge">
<title>Node5&#45;&gt;Node7</title>
<path fill="none" stroke="#191970" d="M252.8007,-112.2455C241.2073,-103.814 224.2383,-91.4729 210.7452,-81.6598"/>
<polygon fill="#191970" stroke="#191970" points="212.6177,-78.6938 202.4717,-75.6427 208.5005,-84.355 212.6177,-78.6938"/>
</g>
<!-- Node8 -->
<g id="node9" class="node">
<title>Node8</title>
<polygon fill="none" stroke="#bfbfbf" points="367.213,-56.5 367.213,-75.5 413.213,-75.5 413.213,-56.5 367.213,-56.5"/>
<text text-anchor="middle" x="390.213" y="-63.5" font-family="Helvetica,sans-Serif" font-size="10.00" fill="#000000">cstring</text>
</g>
<!-- Node5&#45;&gt;Node8 -->
<g id="edge8" class="edge">
<title>Node5&#45;&gt;Node8</title>
<path fill="none" stroke="#191970" d="M287.5294,-112.3733C307.4346,-103.3838 337.3566,-89.8706 359.773,-79.7471"/>
<polygon fill="#191970" stroke="#191970" points="361.5017,-82.8068 369.1748,-75.5011 358.6205,-76.4272 361.5017,-82.8068"/>
</g>
<!-- Node9 -->
<g id="node10" class="node">
<title>Node9</title>
<polygon fill="none" stroke="#bfbfbf" points="28.713,-56.5 28.713,-75.5 77.713,-75.5 77.713,-56.5 28.713,-56.5"/>
<text text-anchor="middle" x="53.213" y="-63.5" font-family="Helvetica,sans-Serif" font-size="10.00" fill="#000000">cassert</text>
</g>
<!-- Node5&#45;&gt;Node9 -->
<g id="edge9" class="edge">
<title>Node5&#45;&gt;Node9</title>
<path fill="none" stroke="#191970" d="M231.133,-113.3652C196.9527,-104.8677 143.2907,-91.3052 87.7263,-76.0766"/>
<polygon fill="#191970" stroke="#191970" points="88.6375,-72.6973 78.0672,-73.4175 86.7795,-79.4462 88.6375,-72.6973"/>
</g>
<!-- Node10 -->
<g id="node11" class="node">
<title>Node10</title>
<g id="a_node11"><a xlink:href="../../d2/d45/GPUCommonRtypes_8h.html" target="_top" xlink:title="GPUCommonRtypes.h">
<polygon fill="none" stroke="#000000" points="589.213,-56.5 589.213,-75.5 707.213,-75.5 707.213,-56.5 589.213,-56.5"/>
<text text-anchor="middle" x="648.213" y="-63.5" font-family="Helvetica,sans-Serif" font-size="10.00" fill="#000000">GPUCommonRtypes.h</text>
</a>
</g>
</g>
<!-- Node5&#45;&gt;Node10 -->
<g id="edge11" class="edge">
<title>Node5&#45;&gt;Node10</title>
<path fill="none" stroke="#191970" d="M301.466,-116.832C364.4098,-107.6047 497.1792,-88.1411 578.9372,-76.1556"/>
<polygon fill="#191970" stroke="#191970" points="579.5058,-79.6098 588.8923,-74.6962 578.4904,-72.6838 579.5058,-79.6098"/>
</g>
<!-- Node12 -->
<g id="node13" class="node">
<title>Node12</title>
<g id="a_node13"><a xlink:href="../../df/d5b/GPUCommonLogger_8h.html" target="_top" xlink:title="GPUCommonLogger.h">
<polygon fill="none" stroke="#000000" points="233.213,-56.5 233.213,-75.5 349.213,-75.5 349.213,-56.5 233.213,-56.5"/>
<text text-anchor="middle" x="291.213" y="-63.5" font-family="Helvetica,sans-Serif" font-size="10.00" fill="#000000">GPUCommonLogger.h</text>
</a>
</g>
</g>
<!-- Node5&#45;&gt;Node12 -->
<g id="edge13" class="edge">
<title>Node5&#45;&gt;Node12</title>
<path fill="none" stroke="#191970" d="M270.5677,-112.2455C273.9374,-104.6973 278.706,-94.0158 282.8114,-84.8197"/>
<polygon fill="#191970" stroke="#191970" points="286.0277,-86.2009 286.9083,-75.6427 279.6357,-83.3473 286.0277,-86.2009"/>
</g>
<!-- Node11 -->
<g id="node12" class="node">
<title>Node11</title>
<polygon fill="none" stroke="#bfbfbf" points="622.213,-.5 622.213,-19.5 678.213,-19.5 678.213,-.5 622.213,-.5"/>
<text text-anchor="middle" x="650.213" y="-7.5" font-family="Helvetica,sans-Serif" font-size="10.00" fill="#000000">Rtypes.h</text>
</g>
<!-- Node10&#45;&gt;Node11 -->
<g id="edge12" class="edge">
<title>Node10&#45;&gt;Node11</title>
<path fill="none" stroke="#191970" d="M648.5614,-56.2455C648.8224,-48.9382 649.1882,-38.6944 649.5093,-29.7046"/>
<polygon fill="#191970" stroke="#191970" points="653.0094,-29.7613 649.8687,-19.6427 646.0139,-29.5113 653.0094,-29.7613"/>
</g>
<!-- Node12&#45;&gt;Node13 -->
<g id="edge14" class="edge">
<title>Node12&#45;&gt;Node13</title>
<path fill="none" stroke="#191970" d="M261.4733,-56.3733C232.0086,-46.8356 186.8124,-32.2056 155.0822,-21.9345"/>
<polygon fill="#191970" stroke="#191970" points="155.8822,-18.5147 145.2903,-18.7649 153.7264,-25.1745 155.8822,-18.5147"/>
</g>
<!-- Node14 -->
<g id="node15" class="node">
<title>Node14</title>
<polygon fill="none" stroke="#bfbfbf" points="267.713,-.5 267.713,-19.5 310.713,-19.5 310.713,-.5 267.713,-.5"/>
<text text-anchor="middle" x="289.213" y="-7.5" font-family="Helvetica,sans-Serif" font-size="10.00" fill="#000000">cstdio</text>
</g>
<!-- Node12&#45;&gt;Node14 -->
<g id="edge15" class="edge">
<title>Node12&#45;&gt;Node14</title>
<path fill="none" stroke="#191970" d="M290.8647,-56.2455C290.6037,-48.9382 290.2378,-38.6944 289.9168,-29.7046"/>
<polygon fill="#191970" stroke="#191970" points="293.4122,-29.5113 289.5574,-19.6427 286.4167,-29.7613 293.4122,-29.5113"/>
</g>
<!-- Node17&#45;&gt;Node2 -->
<g id="edge22" class="edge">
<title>Node17&#45;&gt;Node2</title>
<path fill="none" stroke="#191970" d="M415.6237,-283.5218C391.4959,-277.5433 364.0489,-266.0574 349.213,-244 344.2521,-236.6243 348.09,-232.8177 349.213,-224 355.7095,-172.9927 344.9362,-151.1995 378.213,-112 391.4871,-96.3635 411.1153,-85.8424 429.7542,-78.8601"/>
<polygon fill="#191970" stroke="#191970" points="431.0719,-82.1077 439.372,-75.523 428.7772,-75.4944 431.0719,-82.1077"/>
</g>
<!-- Node17&#45;&gt;Node10 -->
<g id="edge23" class="edge">
<title>Node17&#45;&gt;Node10</title>
<path fill="none" stroke="#191970" d="M504.0364,-280.4724C526.3509,-273.5553 552.9044,-262.1457 571.213,-244 616.9609,-198.6591 637.3341,-121.6875 644.7102,-85.6753"/>
<polygon fill="#191970" stroke="#191970" points="648.2127,-85.9953 646.6641,-75.5142 641.3387,-84.6734 648.2127,-85.9953"/>
</g>
<!-- Node17&#45;&gt;Node16 -->
<g id="edge26" class="edge">
<title>Node17&#45;&gt;Node16</title>
<path fill="none" stroke="#191970" d="M502.0803,-280.3369C521.0485,-273.5199 541.9919,-262.2455 553.213,-244 572.6469,-212.4006 563.1745,-166.9929 555.2347,-141.4218"/>
<polygon fill="#191970" stroke="#191970" points="558.5009,-140.1525 552.0145,-131.7753 551.8611,-142.3691 558.5009,-140.1525"/>
</g>
<!-- Node18 -->
<g id="node19" class="node">
<title>Node18</title>
<polygon fill="none" stroke="#bfbfbf" points="638.213,-224.5 638.213,-243.5 682.213,-243.5 682.213,-224.5 638.213,-224.5"/>
<text text-anchor="middle" x="660.213" y="-231.5" font-family="Helvetica,sans-Serif" font-size="10.00" fill="#000000">cmath</text>
</g>
<!-- Node17&#45;&gt;Node18 -->
<g id="edge20" class="edge">
<title>Node17&#45;&gt;Node18</title>
<path fill="none" stroke="#191970" d="M496.2504,-280.3733C533.1834,-269.9276 591.7125,-253.3739 627.9398,-243.1278"/>
<polygon fill="#191970" stroke="#191970" points="629.3039,-246.3793 637.9739,-240.2899 627.3988,-239.6436 629.3039,-246.3793"/>
</g>
<!-- Node19 -->
<g id="node20" class="node">
<title>Node19</title>
<polygon fill="none" stroke="#bfbfbf" points="500.213,-224.5 500.213,-243.5 544.213,-243.5 544.213,-224.5 500.213,-224.5"/>
<text text-anchor="middle" x="522.213" y="-231.5" font-family="Helvetica,sans-Serif" font-size="10.00" fill="#000000">vector</text>
</g>
<!-- Node17&#45;&gt;Node19 -->
<g id="edge21" class="edge">
<title>Node17&#45;&gt;Node19</title>
<path fill="none" stroke="#191970" d="M472.6642,-280.2455C481.4399,-272.0549 494.1685,-260.1749 504.527,-250.5069"/>
<polygon fill="#191970" stroke="#191970" points="506.9591,-253.0246 511.8816,-243.6427 502.1829,-247.9072 506.9591,-253.0246"/>
</g>
<!-- Node20 -->
<g id="node21" class="node">
<title>Node20</title>
<g id="a_node21"><a xlink:href="../../de/da6/Spline1D_8h.html" target="_top" xlink:title="Definition of Spline1D class. ">
<polygon fill="none" stroke="#000000" points="416.713,-224.5 416.713,-243.5 481.713,-243.5 481.713,-224.5 416.713,-224.5"/>
<text text-anchor="middle" x="449.213" y="-231.5" font-family="Helvetica,sans-Serif" font-size="10.00" fill="#000000">Spline1D.h</text>
</a>
</g>
</g>
<!-- Node17&#45;&gt;Node20 -->
<g id="edge24" class="edge">
<title>Node17&#45;&gt;Node20</title>
<path fill="none" stroke="#191970" d="M459.9486,-280.2455C458.2336,-272.8579 455.8219,-262.4689 453.7186,-253.4087"/>
<polygon fill="#191970" stroke="#191970" points="457.1222,-252.5922 451.4515,-243.6427 450.3035,-254.1751 457.1222,-252.5922"/>
</g>
<!-- Node21 -->
<g id="node22" class="node">
<title>Node21</title>
<polygon fill="none" stroke="#bfbfbf" points="357.713,-224.5 357.713,-243.5 398.713,-243.5 398.713,-224.5 357.713,-224.5"/>
<text text-anchor="middle" x="378.213" y="-231.5" font-family="Helvetica,sans-Serif" font-size="10.00" fill="#000000">string</text>
</g>
<!-- Node17&#45;&gt;Node21 -->
<g id="edge27" class="edge">
<title>Node17&#45;&gt;Node21</title>
<path fill="none" stroke="#191970" d="M447.5814,-280.2455C434.8136,-271.7337 416.0693,-259.2375 401.2832,-249.3801"/>
<polygon fill="#191970" stroke="#191970" points="402.939,-246.2775 392.677,-243.6427 399.0561,-252.1019 402.939,-246.2775"/>
</g>
<!-- Node20&#45;&gt;Node1 -->
<g id="edge25" class="edge">
<title>Node20&#45;&gt;Node1</title>
<path fill="none" stroke="#191970" d="M446.6002,-224.2455C444.6214,-216.8579 441.8386,-206.4689 439.4118,-197.4087"/>
<polygon fill="#191970" stroke="#191970" points="442.7641,-196.3966 436.7959,-187.6427 436.0025,-198.2078 442.7641,-196.3966"/>
</g>
<!-- Node23&#45;&gt;Node2 -->
<g id="edge30" class="edge">
<title>Node23&#45;&gt;Node2</title>
<path fill="none" stroke="#191970" d="M688.7731,-280.2144C693.0031,-266.9757 698.6147,-242.8486 691.213,-224 666.3839,-160.7716 642.5909,-151.3398 587.213,-112 567.324,-97.871 542.4064,-86.7257 521.8366,-78.9463"/>
<polygon fill="#191970" stroke="#191970" points="523.0218,-75.6531 512.428,-75.505 520.6172,-82.2271 523.0218,-75.6531"/>
</g>
<!-- Node23&#45;&gt;Node18 -->
<g id="edge31" class="edge">
<title>Node23&#45;&gt;Node18</title>
<path fill="none" stroke="#191970" d="M680.8584,-280.2455C677.4886,-272.6973 672.7201,-262.0158 668.6147,-252.8197"/>
<polygon fill="#191970" stroke="#191970" points="671.7904,-251.3473 664.5178,-243.6427 665.3984,-254.2009 671.7904,-251.3473"/>
</g>
<!-- Node24 -->
<g id="node25" class="node">
<title>Node24</title>
<polygon fill="none" stroke="#bfbfbf" points="738.213,-224.5 738.213,-243.5 794.213,-243.5 794.213,-224.5 738.213,-224.5"/>
<text text-anchor="middle" x="766.213" y="-231.5" font-family="Helvetica,sans-Serif" font-size="10.00" fill="#000000">algorithm</text>
</g>
<!-- Node23&#45;&gt;Node24 -->
<g id="edge32" class="edge">
<title>Node23&#45;&gt;Node24</title>
<path fill="none" stroke="#191970" d="M699.3222,-280.2455C711.6339,-271.7337 729.7088,-259.2375 743.9668,-249.3801"/>
<polygon fill="#191970" stroke="#191970" points="746.0304,-252.2085 752.2656,-243.6427 742.0496,-246.4506 746.0304,-252.2085"/>
</g>
</g>
</svg>
