<?xml version="1.0" encoding="UTF-8" standalone="no"?>
<!DOCTYPE svg PUBLIC "-//W3C//DTD SVG 1.1//EN"
 "http://www.w3.org/Graphics/SVG/1.1/DTD/svg11.dtd">
<!-- Generated by graphviz version 2.40.1 (20161225.0304)
 -->
<!-- Title: o2::mch::PreClusterFinder::DetectionElement Pages: 1 -->
<svg width="431pt" height="204pt"
 viewBox="0.00 0.00 430.50 204.00" xmlns="http://www.w3.org/2000/svg" xmlns:xlink="http://www.w3.org/1999/xlink">
<g id="graph0" class="graph" transform="scale(1 1) rotate(0) translate(4 200)">
<title>o2::mch::PreClusterFinder::DetectionElement</title>
<!-- Node1 -->
<g id="node1" class="node">
<title>Node1</title>
<polygon fill="#bfbfbf" stroke="#000000" points="123,-.5 123,-68.5 254,-68.5 254,-.5 123,-.5"/>
<text text-anchor="start" x="131" y="-56.5" font-family="Helvetica,sans-Serif" font-size="10.00" fill="#000000">o2::mch::PreClusterFinder</text>
<text text-anchor="middle" x="188.5" y="-45.5" font-family="Helvetica,sans-Serif" font-size="10.00" fill="#000000">::DetectionElement</text>
<polyline fill="none" stroke="#000000" points="123,-38.5 254,-38.5 "/>
<text text-anchor="middle" x="188.5" y="-26.5" font-family="Helvetica,sans-Serif" font-size="10.00" fill="#000000"> </text>
<polyline fill="none" stroke="#000000" points="123,-19.5 254,-19.5 "/>
<text text-anchor="middle" x="188.5" y="-7.5" font-family="Helvetica,sans-Serif" font-size="10.00" fill="#000000"> </text>
</g>
<!-- Node2 -->
<g id="node2" class="node">
<title>Node2</title>
<polygon fill="none" stroke="#bfbfbf" points="0,-133 0,-190 51,-190 51,-133 0,-133"/>
<text text-anchor="middle" x="25.5" y="-178" font-family="Helvetica,sans-Serif" font-size="10.00" fill="#000000">uint16_t</text>
<polyline fill="none" stroke="#bfbfbf" points="0,-171 51,-171 "/>
<text text-anchor="middle" x="25.5" y="-159" font-family="Helvetica,sans-Serif" font-size="10.00" fill="#000000"> </text>
<polyline fill="none" stroke="#bfbfbf" points="0,-152 51,-152 "/>
<text text-anchor="middle" x="25.5" y="-140" font-family="Helvetica,sans-Serif" font-size="10.00" fill="#000000"> </text>
</g>
<!-- Node2&#45;&gt;Node1 -->
<g id="edge1" class="edge">
<title>Node2&#45;&gt;Node1</title>
<path fill="none" stroke="#404040" d="M42.0626,-132.6706C51.7885,-117.6232 65.1716,-99.7458 80.5,-87 90.0361,-79.0706 100.9721,-71.9915 112.1425,-65.7956"/>
<polygon fill="none" stroke="#404040" points="112.2728,-65.727 115.7127,-59.3892 122.886,-60.127 119.446,-66.4647 112.2728,-65.727"/>
<text text-anchor="middle" x="115" y="-101" font-family="Helvetica,sans-Serif" font-size="10.00" fill="#000000"> +nFiredPads</text>
<text text-anchor="middle" x="115" y="-90" font-family="Helvetica,sans-Serif" font-size="10.00" fill="#000000">+nOrderedPads</text>
</g>
<!-- Node3 -->
<g id="node3" class="node">
<title>Node3</title>
<polygon fill="none" stroke="#bfbfbf" points="69,-127.5 69,-195.5 184,-195.5 184,-127.5 69,-127.5"/>
<text text-anchor="start" x="77" y="-183.5" font-family="Helvetica,sans-Serif" font-size="10.00" fill="#000000">vector&lt; const o2::mch</text>
<text text-anchor="middle" x="126.5" y="-172.5" font-family="Helvetica,sans-Serif" font-size="10.00" fill="#000000">::Digit * &gt;</text>
<polyline fill="none" stroke="#bfbfbf" points="69,-165.5 184,-165.5 "/>
<text text-anchor="middle" x="126.5" y="-153.5" font-family="Helvetica,sans-Serif" font-size="10.00" fill="#000000"> </text>
<polyline fill="none" stroke="#bfbfbf" points="69,-146.5 184,-146.5 "/>
<text text-anchor="middle" x="126.5" y="-134.5" font-family="Helvetica,sans-Serif" font-size="10.00" fill="#000000"> </text>
</g>
<!-- Node3&#45;&gt;Node1 -->
<g id="edge2" class="edge">
<title>Node3&#45;&gt;Node1</title>
<path fill="none" stroke="#404040" d="M143.1149,-127.4663C150.2731,-112.8036 158.7461,-95.4475 166.4215,-79.7252"/>
<polygon fill="none" stroke="#404040" points="166.5748,-79.4112 165.6125,-72.2646 171.8393,-68.6276 172.8016,-75.7742 166.5748,-79.4112"/>
<text text-anchor="middle" x="177" y="-95.5" font-family="Helvetica,sans-Serif" font-size="10.00" fill="#000000"> +digits</text>
</g>
<!-- Node4 -->
<g id="node4" class="node">
<title>Node4</title>
<polygon fill="none" stroke="#bfbfbf" points="202.5,-133 202.5,-190 298.5,-190 298.5,-133 202.5,-133"/>
<text text-anchor="middle" x="250.5" y="-178" font-family="Helvetica,sans-Serif" font-size="10.00" fill="#000000">vector&lt; uint16_t &gt;</text>
<polyline fill="none" stroke="#bfbfbf" points="202.5,-171 298.5,-171 "/>
<text text-anchor="middle" x="250.5" y="-159" font-family="Helvetica,sans-Serif" font-size="10.00" fill="#000000"> </text>
<polyline fill="none" stroke="#bfbfbf" points="202.5,-152 298.5,-152 "/>
<text text-anchor="middle" x="250.5" y="-140" font-family="Helvetica,sans-Serif" font-size="10.00" fill="#000000"> </text>
</g>
<!-- Node4&#45;&gt;Node1 -->
<g id="edge3" class="edge">
<title>Node4&#45;&gt;Node1</title>
<path fill="none" stroke="#404040" d="M236.586,-132.9987C228.9351,-117.3267 219.2649,-97.5183 210.606,-79.7817"/>
<polygon fill="none" stroke="#404040" points="210.4979,-79.5601 204.2711,-75.9231 205.2334,-68.7765 211.4602,-72.4135 210.4979,-79.5601"/>
<text text-anchor="middle" x="253" y="-101" font-family="Helvetica,sans-Serif" font-size="10.00" fill="#000000"> +firedPads</text>
<text text-anchor="middle" x="253" y="-90" font-family="Helvetica,sans-Serif" font-size="10.00" fill="#000000">+orderedPads</text>
</g>
<!-- Node5 -->
<g id="node5" class="node">
<title>Node5</title>
<polygon fill="none" stroke="#bfbfbf" points="316.5,-127.5 316.5,-195.5 422.5,-195.5 422.5,-127.5 316.5,-127.5"/>
<text text-anchor="start" x="324.5" y="-183.5" font-family="Helvetica,sans-Serif" font-size="10.00" fill="#000000">unique_ptr&lt; o2::mch</text>
<text text-anchor="middle" x="369.5" y="-172.5" font-family="Helvetica,sans-Serif" font-size="10.00" fill="#000000">::Mapping::MpDE &gt;</text>
<polyline fill="none" stroke="#bfbfbf" points="316.5,-165.5 422.5,-165.5 "/>
<text text-anchor="middle" x="369.5" y="-153.5" font-family="Helvetica,sans-Serif" font-size="10.00" fill="#000000"> </text>
<polyline fill="none" stroke="#bfbfbf" points="316.5,-146.5 422.5,-146.5 "/>
<text text-anchor="middle" x="369.5" y="-134.5" font-family="Helvetica,sans-Serif" font-size="10.00" fill="#000000"> </text>
</g>
<!-- Node5&#45;&gt;Node1 -->
<g id="edge4" class="edge">
<title>Node5&#45;&gt;Node1</title>
<path fill="none" stroke="#404040" d="M335.6136,-127.1909C321.4265,-113.7894 304.3387,-98.833 287.5,-87 280.2507,-81.9057 272.4475,-76.9624 264.5168,-72.2776"/>
<polygon fill="none" stroke="#404040" points="264.4632,-72.2469 257.2684,-72.7318 254.0536,-66.2769 261.2484,-65.7921 264.4632,-72.2469"/>
<text text-anchor="middle" x="336.5" y="-95.5" font-family="Helvetica,sans-Serif" font-size="10.00" fill="#000000"> +mapping</text>
</g>
</g>
</svg>
