<?xml version="1.0" encoding="UTF-8" standalone="no"?>
<!DOCTYPE svg PUBLIC "-//W3C//DTD SVG 1.1//EN"
 "http://www.w3.org/Graphics/SVG/1.1/DTD/svg11.dtd">
<!-- Generated by graphviz version 2.40.1 (20161225.0304)
 -->
<!-- Title: /home/runner/work/AliceO2/AliceO2/Utilities/aliceHLTwrapper/include/aliceHLTwrapper/HOMERFactory.h Pages: 1 -->
<svg width="839pt" height="284pt"
 viewBox="0.00 0.00 839.00 284.00" xmlns="http://www.w3.org/2000/svg" xmlns:xlink="http://www.w3.org/1999/xlink">
<g id="graph0" class="graph" transform="scale(1 1) rotate(0) translate(4 280)">
<title>/home/runner/work/AliceO2/AliceO2/Utilities/aliceHLTwrapper/include/aliceHLTwrapper/HOMERFactory.h</title>
<!-- Node2 -->
<g id="node1" class="node">
<title>Node2</title>
<polygon fill="#bfbfbf" stroke="#000000" points="532,-234.5 532,-275.5 741,-275.5 741,-234.5 532,-234.5"/>
<text text-anchor="start" x="540" y="-263.5" font-family="Helvetica,sans-Serif" font-size="10.00" fill="#000000">/home/runner/work/AliceO2</text>
<text text-anchor="start" x="540" y="-252.5" font-family="Helvetica,sans-Serif" font-size="10.00" fill="#000000">/AliceO2/Utilities/aliceHLTwrapper</text>
<text text-anchor="middle" x="636.5" y="-241.5" font-family="Helvetica,sans-Serif" font-size="10.00" fill="#000000">/include/aliceHLTwrapper/HOMERFactory.h</text>
</g>
<!-- Node3 -->
<g id="node2" class="node">
<title>Node3</title>
<g id="a_node2"><a xlink:href="../../d2/dda/MessageFormat_8h.html" target="_top" xlink:title="/home/runner/work/AliceO2\l/AliceO2/Utilities/aliceHLTwrapper\l/include/aliceHLTwrapper/MessageFormat.h">
<polygon fill="none" stroke="#000000" points="386,-156.5 386,-197.5 595,-197.5 595,-156.5 386,-156.5"/>
<text text-anchor="start" x="394" y="-185.5" font-family="Helvetica,sans-Serif" font-size="10.00" fill="#000000">/home/runner/work/AliceO2</text>
<text text-anchor="start" x="394" y="-174.5" font-family="Helvetica,sans-Serif" font-size="10.00" fill="#000000">/AliceO2/Utilities/aliceHLTwrapper</text>
<text text-anchor="middle" x="490.5" y="-163.5" font-family="Helvetica,sans-Serif" font-size="10.00" fill="#000000">/include/aliceHLTwrapper/MessageFormat.h</text>
</a>
</g>
</g>
<!-- Node2&#45;&gt;Node3 -->
<g id="edge1" class="edge">
<title>Node2&#45;&gt;Node3</title>
<path fill="none" stroke="#191970" d="M588.7702,-229.5005C569.3685,-219.1352 547.2501,-207.3185 528.9164,-197.5239"/>
<polygon fill="#191970" stroke="#191970" points="587.2885,-232.6771 597.758,-234.3022 590.5871,-226.5029 587.2885,-232.6771"/>
</g>
<!-- Node8 -->
<g id="node7" class="node">
<title>Node8</title>
<g id="a_node7"><a xlink:href="../../d6/d62/MessageFormat_8cxx.html" target="_top" xlink:title="/home/runner/work/AliceO2\l/AliceO2/Utilities/aliceHLTwrapper\l/src/MessageFormat.cxx">
<polygon fill="none" stroke="#000000" points="566,-78.5 566,-119.5 733,-119.5 733,-78.5 566,-78.5"/>
<text text-anchor="start" x="574" y="-107.5" font-family="Helvetica,sans-Serif" font-size="10.00" fill="#000000">/home/runner/work/AliceO2</text>
<text text-anchor="start" x="574" y="-96.5" font-family="Helvetica,sans-Serif" font-size="10.00" fill="#000000">/AliceO2/Utilities/aliceHLTwrapper</text>
<text text-anchor="middle" x="649.5" y="-85.5" font-family="Helvetica,sans-Serif" font-size="10.00" fill="#000000">/src/MessageFormat.cxx</text>
</a>
</g>
</g>
<!-- Node2&#45;&gt;Node8 -->
<g id="edge9" class="edge">
<title>Node2&#45;&gt;Node8</title>
<path fill="none" stroke="#191970" d="M639.0775,-224.0704C641.6523,-193.1728 645.5388,-146.5341 647.7666,-119.8013"/>
<polygon fill="#191970" stroke="#191970" points="635.5689,-224.0283 638.2263,-234.2844 642.5448,-224.6096 635.5689,-224.0283"/>
</g>
<!-- Node10 -->
<g id="node9" class="node">
<title>Node10</title>
<g id="a_node9"><a xlink:href="../../df/da5/HOMERFactory_8cxx.html" target="_top" xlink:title="/home/runner/work/AliceO2\l/AliceO2/Utilities/aliceHLTwrapper\l/src/HOMERFactory.cxx">
<polygon fill="none" stroke="#000000" points="664,-156.5 664,-197.5 831,-197.5 831,-156.5 664,-156.5"/>
<text text-anchor="start" x="672" y="-185.5" font-family="Helvetica,sans-Serif" font-size="10.00" fill="#000000">/home/runner/work/AliceO2</text>
<text text-anchor="start" x="672" y="-174.5" font-family="Helvetica,sans-Serif" font-size="10.00" fill="#000000">/AliceO2/Utilities/aliceHLTwrapper</text>
<text text-anchor="middle" x="747.5" y="-163.5" font-family="Helvetica,sans-Serif" font-size="10.00" fill="#000000">/src/HOMERFactory.cxx</text>
</a>
</g>
</g>
<!-- Node2&#45;&gt;Node10 -->
<g id="edge8" class="edge">
<title>Node2&#45;&gt;Node10</title>
<path fill="none" stroke="#191970" d="M674.1954,-228.5113C688.6007,-218.3887 704.7959,-207.0083 718.293,-197.5239"/>
<polygon fill="#191970" stroke="#191970" points="672.1242,-225.689 665.9545,-234.3022 676.1488,-231.4164 672.1242,-225.689"/>
</g>
<!-- Node4 -->
<g id="node3" class="node">
<title>Node4</title>
<g id="a_node3"><a xlink:href="../../d0/da1/Component_8h.html" target="_top" xlink:title="/home/runner/work/AliceO2\l/AliceO2/Utilities/aliceHLTwrapper\l/include/aliceHLTwrapper/Component.h">
<polygon fill="none" stroke="#000000" points="174.5,-78.5 174.5,-119.5 362.5,-119.5 362.5,-78.5 174.5,-78.5"/>
<text text-anchor="start" x="182.5" y="-107.5" font-family="Helvetica,sans-Serif" font-size="10.00" fill="#000000">/home/runner/work/AliceO2</text>
<text text-anchor="start" x="182.5" y="-96.5" font-family="Helvetica,sans-Serif" font-size="10.00" fill="#000000">/AliceO2/Utilities/aliceHLTwrapper</text>
<text text-anchor="middle" x="268.5" y="-85.5" font-family="Helvetica,sans-Serif" font-size="10.00" fill="#000000">/include/aliceHLTwrapper/Component.h</text>
</a>
</g>
</g>
<!-- Node3&#45;&gt;Node4 -->
<g id="edge2" class="edge">
<title>Node3&#45;&gt;Node4</title>
<path fill="none" stroke="#191970" d="M422.1914,-152.9997C391.7541,-142.3055 356.2642,-129.8361 327.0615,-119.5757"/>
<polygon fill="#191970" stroke="#191970" points="421.2869,-156.3916 431.8817,-156.4044 423.6073,-149.7874 421.2869,-156.3916"/>
</g>
<!-- Node3&#45;&gt;Node8 -->
<g id="edge6" class="edge">
<title>Node3&#45;&gt;Node8</title>
<path fill="none" stroke="#191970" d="M541.9068,-151.7816C563.1726,-141.3493 587.5162,-129.4072 607.6629,-119.5239"/>
<polygon fill="#191970" stroke="#191970" points="540.128,-148.7556 532.6916,-156.3022 543.2111,-155.0402 540.128,-148.7556"/>
</g>
<!-- Node9 -->
<g id="node8" class="node">
<title>Node9</title>
<g id="a_node8"><a xlink:href="../../d5/db0/testMessageFormat_8cxx.html" target="_top" xlink:title="/home/runner/work/AliceO2\l/AliceO2/Utilities/aliceHLTwrapper\l/test/testMessageFormat.cxx">
<polygon fill="none" stroke="#000000" points="381,-78.5 381,-119.5 548,-119.5 548,-78.5 381,-78.5"/>
<text text-anchor="start" x="389" y="-107.5" font-family="Helvetica,sans-Serif" font-size="10.00" fill="#000000">/home/runner/work/AliceO2</text>
<text text-anchor="start" x="389" y="-96.5" font-family="Helvetica,sans-Serif" font-size="10.00" fill="#000000">/AliceO2/Utilities/aliceHLTwrapper</text>
<text text-anchor="middle" x="464.5" y="-85.5" font-family="Helvetica,sans-Serif" font-size="10.00" fill="#000000">/test/testMessageFormat.cxx</text>
</a>
</g>
</g>
<!-- Node3&#45;&gt;Node9 -->
<g id="edge7" class="edge">
<title>Node3&#45;&gt;Node9</title>
<path fill="none" stroke="#191970" d="M480.2892,-146.3676C477.3077,-137.4232 474.1209,-127.8626 471.3966,-119.6898"/>
<polygon fill="#191970" stroke="#191970" points="477.0497,-147.7174 483.5325,-156.0974 483.6905,-145.5038 477.0497,-147.7174"/>
</g>
<!-- Node5 -->
<g id="node4" class="node">
<title>Node5</title>
<g id="a_node4"><a xlink:href="../../d8/dd8/Component_8cxx.html" target="_top" xlink:title="/home/runner/work/AliceO2\l/AliceO2/Utilities/aliceHLTwrapper\l/src/Component.cxx">
<polygon fill="none" stroke="#000000" points="0,-.5 0,-41.5 167,-41.5 167,-.5 0,-.5"/>
<text text-anchor="start" x="8" y="-29.5" font-family="Helvetica,sans-Serif" font-size="10.00" fill="#000000">/home/runner/work/AliceO2</text>
<text text-anchor="start" x="8" y="-18.5" font-family="Helvetica,sans-Serif" font-size="10.00" fill="#000000">/AliceO2/Utilities/aliceHLTwrapper</text>
<text text-anchor="middle" x="83.5" y="-7.5" font-family="Helvetica,sans-Serif" font-size="10.00" fill="#000000">/src/Component.cxx</text>
</a>
</g>
</g>
<!-- Node4&#45;&gt;Node5 -->
<g id="edge3" class="edge">
<title>Node4&#45;&gt;Node5</title>
<path fill="none" stroke="#191970" d="M210.0151,-74.3415C184.9615,-63.7784 156.04,-51.5844 132.1784,-41.5239"/>
<polygon fill="#191970" stroke="#191970" points="208.8348,-77.6422 219.4091,-78.3022 211.5544,-71.1921 208.8348,-77.6422"/>
</g>
<!-- Node6 -->
<g id="node5" class="node">
<title>Node6</title>
<g id="a_node5"><a xlink:href="../../de/d0e/runComponent_8cxx.html" target="_top" xlink:title="/home/runner/work/AliceO2\l/AliceO2/Utilities/aliceHLTwrapper\l/src/runComponent.cxx">
<polygon fill="none" stroke="#000000" points="185,-.5 185,-41.5 352,-41.5 352,-.5 185,-.5"/>
<text text-anchor="start" x="193" y="-29.5" font-family="Helvetica,sans-Serif" font-size="10.00" fill="#000000">/home/runner/work/AliceO2</text>
<text text-anchor="start" x="193" y="-18.5" font-family="Helvetica,sans-Serif" font-size="10.00" fill="#000000">/AliceO2/Utilities/aliceHLTwrapper</text>
<text text-anchor="middle" x="268.5" y="-7.5" font-family="Helvetica,sans-Serif" font-size="10.00" fill="#000000">/src/runComponent.cxx</text>
</a>
</g>
</g>
<!-- Node4&#45;&gt;Node6 -->
<g id="edge4" class="edge">
<title>Node4&#45;&gt;Node6</title>
<path fill="none" stroke="#191970" d="M268.5,-68.0789C268.5,-59.2178 268.5,-49.7747 268.5,-41.6898"/>
<polygon fill="#191970" stroke="#191970" points="265.0001,-68.0974 268.5,-78.0974 272.0001,-68.0975 265.0001,-68.0974"/>
</g>
<!-- Node7 -->
<g id="node6" class="node">
<title>Node7</title>
<g id="a_node6"><a xlink:href="../../dd/d50/WrapperDevice_8cxx.html" target="_top" xlink:title="/home/runner/work/AliceO2\l/AliceO2/Utilities/aliceHLTwrapper\l/src/WrapperDevice.cxx">
<polygon fill="none" stroke="#000000" points="370,-.5 370,-41.5 537,-41.5 537,-.5 370,-.5"/>
<text text-anchor="start" x="378" y="-29.5" font-family="Helvetica,sans-Serif" font-size="10.00" fill="#000000">/home/runner/work/AliceO2</text>
<text text-anchor="start" x="378" y="-18.5" font-family="Helvetica,sans-Serif" font-size="10.00" fill="#000000">/AliceO2/Utilities/aliceHLTwrapper</text>
<text text-anchor="middle" x="453.5" y="-7.5" font-family="Helvetica,sans-Serif" font-size="10.00" fill="#000000">/src/WrapperDevice.cxx</text>
</a>
</g>
</g>
<!-- Node4&#45;&gt;Node7 -->
<g id="edge5" class="edge">
<title>Node4&#45;&gt;Node7</title>
<path fill="none" stroke="#191970" d="M326.9849,-74.3415C352.0385,-63.7784 380.96,-51.5844 404.8216,-41.5239"/>
<polygon fill="#191970" stroke="#191970" points="325.4456,-71.1921 317.5909,-78.3022 328.1652,-77.6422 325.4456,-71.1921"/>
</g>
</g>
</svg>
