<?xml version="1.0" encoding="UTF-8" standalone="no"?>
<!DOCTYPE svg PUBLIC "-//W3C//DTD SVG 1.1//EN"
 "http://www.w3.org/Graphics/SVG/1.1/DTD/svg11.dtd">
<!-- Generated by graphviz version 2.40.1 (20161225.0304)
 -->
<!-- Title: /home/runner/work/AliceO2/AliceO2/Detectors/Base/include/DetectorsBase/Ray.h Pages: 1 -->
<!--zoomable 341 -->
<svg id="main" version="1.1" xmlns="http://www.w3.org/2000/svg" xmlns:xlink="http://www.w3.org/1999/xlink" xml:space="preserve" onload="init(evt)">
<style type="text/css"><![CDATA[
.edge:hover path { stroke: red; }
.edge:hover polygon { stroke: red; fill: red; }
]]></style>
<script type="text/javascript"><![CDATA[
var edges = document.getElementsByTagName('g');
if (edges && edges.length) {
  for (var i=0;i<edges.length;i++) {
    if (edges[i].id.substr(0,4)=='edge') {
      edges[i].setAttribute('class','edge');
    }
  }
}
]]></script>
        <defs>
                <circle id="rim" cx="0" cy="0" r="7"/>
                <circle id="rim2" cx="0" cy="0" r="3.5"/>
                <g id="zoomPlus">
                        <use xlink:href="#rim" fill="#404040">
                                <set attributeName="fill" to="#808080" begin="zoomplus.mouseover" end="zoomplus.mouseout"/>
                        </use>
                        <path d="M-4,0h8M0,-4v8" fill="none" stroke="white" stroke-width="1.5" pointer-events="none"/>
                </g>
                <g id="zoomMin">
                        <use xlink:href="#rim" fill="#404040">
                                <set attributeName="fill" to="#808080" begin="zoomminus.mouseover" end="zoomminus.mouseout"/>
                        </use>
                        <path d="M-4,0h8" fill="none" stroke="white" stroke-width="1.5" pointer-events="none"/>
                </g>
                <g id="dirArrow">
                        <path fill="none" stroke="white" stroke-width="1.5" d="M0,-3.0v7 M-2.5,-0.5L0,-3.0L2.5,-0.5"/>
                </g>
               <g id="resetDef">
                       <use xlink:href="#rim2" fill="#404040">
                               <set attributeName="fill" to="#808080" begin="reset.mouseover" end="reset.mouseout"/>
                       </use>
               </g>
        </defs>

<script type="text/javascript">
var viewWidth = 2871;
var viewHeight = 341;
var sectionId = 'dynsection-0';
</script>
<script xlink:href="../../svgpan.js"/>
<svg id="graph" class="graph">
<g id="viewport">
<title>/home/runner/work/AliceO2/AliceO2/Detectors/Base/include/DetectorsBase/Ray.h</title>
<!-- Node0 -->
<g id="node1" class="node">
<title>Node0</title>
<polygon fill="#bfbfbf" stroke="#000000" points="716.5,-291.5 716.5,-332.5 864.5,-332.5 864.5,-291.5 716.5,-291.5"/>
<text text-anchor="start" x="724.5" y="-320.5" font-family="Helvetica,sans-Serif" font-size="10.00" fill="#000000">/home/runner/work/AliceO2</text>
<text text-anchor="start" x="724.5" y="-309.5" font-family="Helvetica,sans-Serif" font-size="10.00" fill="#000000">/AliceO2/Detectors/Base</text>
<text text-anchor="middle" x="790.5" y="-298.5" font-family="Helvetica,sans-Serif" font-size="10.00" fill="#000000">/include/DetectorsBase/Ray.h</text>
</g>
<!-- Node1 -->
<g id="node2" class="node">
<title>Node1</title>
<g id="a_node2"><a xlink:href="../../d2/d45/GPUCommonRtypes_8h.html" target="_top" xlink:title="GPUCommonRtypes.h">
<polygon fill="none" stroke="#000000" points="403.5,-56.5 403.5,-75.5 521.5,-75.5 521.5,-56.5 403.5,-56.5"/>
<text text-anchor="middle" x="462.5" y="-63.5" font-family="Helvetica,sans-Serif" font-size="10.00" fill="#000000">GPUCommonRtypes.h</text>
</a>
</g>
</g>
<!-- Node0&#45;&gt;Node1 -->
<g id="edge1" class="edge">
<title>Node0&#45;&gt;Node1</title>
<path fill="none" stroke="#191970" d="M716.4958,-300.3041C617.854,-283.0302 451.4929,-247.4374 415.5,-199 406.9804,-187.5347 396.7714,-164.92 419.5,-112 424.3884,-100.6181 433.3739,-90.2998 441.8717,-82.3335"/>
<polygon fill="#191970" stroke="#191970" points="444.2029,-84.9442 449.4072,-75.7156 439.5838,-79.6846 444.2029,-84.9442"/>
</g>
<!-- Node3 -->
<g id="node4" class="node">
<title>Node3</title>
<g id="a_node4"><a xlink:href="../../df/d21/GPUCommonDef_8h.html" target="_top" xlink:title="GPUCommonDef.h">
<polygon fill="none" stroke="#000000" points="763.5,-56.5 763.5,-75.5 865.5,-75.5 865.5,-56.5 763.5,-56.5"/>
<text text-anchor="middle" x="814.5" y="-63.5" font-family="Helvetica,sans-Serif" font-size="10.00" fill="#000000">GPUCommonDef.h</text>
</a>
</g>
</g>
<!-- Node0&#45;&gt;Node3 -->
<g id="edge3" class="edge">
<title>Node0&#45;&gt;Node3</title>
<path fill="none" stroke="#191970" d="M864.6379,-310.6051C1249.6489,-302.7155 2997.9188,-258.6892 2854.5,-112 2819.0249,-75.7159 1212.0069,-67.5306 875.7769,-66.214"/>
<polygon fill="#191970" stroke="#191970" points="875.7526,-62.714 865.7391,-66.1753 875.7255,-69.714 875.7526,-62.714"/>
</g>
<!-- Node6 -->
<g id="node7" class="node">
<title>Node6</title>
<g id="a_node7"><a xlink:href="../../d6/da2/GPUCommonMath_8h.html" target="_top" xlink:title="GPUCommonMath.h">
<polygon fill="none" stroke="#000000" points="614.5,-118 614.5,-137 722.5,-137 722.5,-118 614.5,-118"/>
<text text-anchor="middle" x="668.5" y="-125" font-family="Helvetica,sans-Serif" font-size="10.00" fill="#000000">GPUCommonMath.h</text>
</a>
</g>
</g>
<!-- Node0&#45;&gt;Node6 -->
<g id="edge6" class="edge">
<title>Node0&#45;&gt;Node6</title>
<path fill="none" stroke="#191970" d="M776.7422,-291.1941C752.7045,-254.8421 703.4487,-180.3528 680.6165,-145.8237"/>
<polygon fill="#191970" stroke="#191970" points="683.3554,-143.6201 674.9202,-137.2092 677.5164,-147.4811 683.3554,-143.6201"/>
</g>
<!-- Node9 -->
<g id="node10" class="node">
<title>Node9</title>
<g id="a_node10"><a xlink:href="../../da/df3/MatLayerCyl_8h.html" target="_top" xlink:title="Declarations for single cylindrical material layer class. ">
<polygon fill="none" stroke="#000000" points="425,-179.5 425,-198.5 574,-198.5 574,-179.5 425,-179.5"/>
<text text-anchor="middle" x="499.5" y="-186.5" font-family="Helvetica,sans-Serif" font-size="10.00" fill="#000000">DetectorsBase/MatLayerCyl.h</text>
</a>
</g>
</g>
<!-- Node0&#45;&gt;Node9 -->
<g id="edge10" class="edge">
<title>Node0&#45;&gt;Node9</title>
<path fill="none" stroke="#191970" d="M741.7931,-291.4126C682.029,-266.1514 582.3907,-224.0363 531.5169,-202.5329"/>
<polygon fill="#191970" stroke="#191970" points="532.5922,-199.1877 522.0186,-198.5182 529.8669,-205.6354 532.5922,-199.1877"/>
</g>
<!-- Node19 -->
<g id="node20" class="node">
<title>Node19</title>
<g id="a_node20"><a xlink:href="../../d9/d52/Common_2MathUtils_2include_2MathUtils_2Utils_8h.html" target="_top" xlink:title="MathUtils/Utils.h">
<polygon fill="none" stroke="#000000" points="887.5,-235.5 887.5,-254.5 977.5,-254.5 977.5,-235.5 887.5,-235.5"/>
<text text-anchor="middle" x="932.5" y="-242.5" font-family="Helvetica,sans-Serif" font-size="10.00" fill="#000000">MathUtils/Utils.h</text>
</a>
</g>
</g>
<!-- Node0&#45;&gt;Node19 -->
<g id="edge29" class="edge">
<title>Node0&#45;&gt;Node19</title>
<path fill="none" stroke="#191970" d="M834.2634,-291.3511C856.5331,-280.8435 883.0166,-268.3478 902.8712,-258.9798"/>
<polygon fill="#191970" stroke="#191970" points="904.4876,-262.0872 912.0379,-254.6546 901.5005,-255.7565 904.4876,-262.0872"/>
</g>
<!-- Node27 -->
<g id="node28" class="node">
<title>Node27</title>
<g id="a_node28"><a xlink:href="../../dc/d73/Cartesian_8h.html" target="_top" xlink:title="MathUtils/Cartesian.h">
<polygon fill="none" stroke="#000000" points="1979.5,-179.5 1979.5,-198.5 2091.5,-198.5 2091.5,-179.5 1979.5,-179.5"/>
<text text-anchor="middle" x="2035.5" y="-186.5" font-family="Helvetica,sans-Serif" font-size="10.00" fill="#000000">MathUtils/Cartesian.h</text>
</a>
</g>
</g>
<!-- Node0&#45;&gt;Node27 -->
<g id="edge41" class="edge">
<title>Node0&#45;&gt;Node27</title>
<path fill="none" stroke="#191970" d="M864.652,-304.6741C1088.6996,-282.5393 1756.3189,-216.5817 1969.3738,-195.533"/>
<polygon fill="#191970" stroke="#191970" points="1969.8644,-199.0016 1979.4718,-194.5353 1969.1761,-192.0355 1969.8644,-199.0016"/>
</g>
<!-- Node2 -->
<g id="node3" class="node">
<title>Node2</title>
<polygon fill="none" stroke="#bfbfbf" points="434.5,-.5 434.5,-19.5 490.5,-19.5 490.5,-.5 434.5,-.5"/>
<text text-anchor="middle" x="462.5" y="-7.5" font-family="Helvetica,sans-Serif" font-size="10.00" fill="#000000">Rtypes.h</text>
</g>
<!-- Node1&#45;&gt;Node2 -->
<g id="edge2" class="edge">
<title>Node1&#45;&gt;Node2</title>
<path fill="none" stroke="#191970" d="M462.5,-56.2455C462.5,-48.9382 462.5,-38.6944 462.5,-29.7046"/>
<polygon fill="#191970" stroke="#191970" points="466.0001,-29.6426 462.5,-19.6427 459.0001,-29.6427 466.0001,-29.6426"/>
</g>
<!-- Node4 -->
<g id="node5" class="node">
<title>Node4</title>
<g id="a_node5"><a xlink:href="../../d5/d93/GPUCommonDefSettings_8h.html" target="_top" xlink:title="GPUCommonDefSettings.h">
<polygon fill="none" stroke="#000000" points="818.5,-.5 818.5,-19.5 956.5,-19.5 956.5,-.5 818.5,-.5"/>
<text text-anchor="middle" x="887.5" y="-7.5" font-family="Helvetica,sans-Serif" font-size="10.00" fill="#000000">GPUCommonDefSettings.h</text>
</a>
</g>
</g>
<!-- Node3&#45;&gt;Node4 -->
<g id="edge4" class="edge">
<title>Node3&#45;&gt;Node4</title>
<path fill="none" stroke="#191970" d="M827.2156,-56.2455C838.102,-47.8943 853.9883,-35.7076 866.72,-25.9408"/>
<polygon fill="#191970" stroke="#191970" points="869.1261,-28.5063 874.9301,-19.6427 864.8654,-22.9523 869.1261,-28.5063"/>
</g>
<!-- Node5 -->
<g id="node6" class="node">
<title>Node5</title>
<g id="a_node6"><a xlink:href="../../da/d5a/GPUCommonDefAPI_8h.html" target="_top" xlink:title="GPUCommonDefAPI.h">
<polygon fill="none" stroke="#000000" points="681,-.5 681,-19.5 800,-19.5 800,-.5 681,-.5"/>
<text text-anchor="middle" x="740.5" y="-7.5" font-family="Helvetica,sans-Serif" font-size="10.00" fill="#000000">GPUCommonDefAPI.h</text>
</a>
</g>
</g>
<!-- Node3&#45;&gt;Node5 -->
<g id="edge5" class="edge">
<title>Node3&#45;&gt;Node5</title>
<path fill="none" stroke="#191970" d="M801.6102,-56.2455C790.5746,-47.8943 774.4708,-35.7076 761.5647,-25.9408"/>
<polygon fill="#191970" stroke="#191970" points="763.3283,-22.8862 753.2421,-19.6427 759.1041,-28.4681 763.3283,-22.8862"/>
</g>
<!-- Node6&#45;&gt;Node3 -->
<g id="edge7" class="edge">
<title>Node6&#45;&gt;Node3</title>
<path fill="none" stroke="#191970" d="M691.3125,-117.8906C715.8481,-107.5554 755.0442,-91.0447 782.6211,-79.4284"/>
<polygon fill="#191970" stroke="#191970" points="783.9906,-82.6495 791.8477,-75.5419 781.2732,-76.1984 783.9906,-82.6495"/>
</g>
<!-- Node7 -->
<g id="node8" class="node">
<title>Node7</title>
<polygon fill="none" stroke="#bfbfbf" points="687.5,-56.5 687.5,-75.5 731.5,-75.5 731.5,-56.5 687.5,-56.5"/>
<text text-anchor="middle" x="709.5" y="-63.5" font-family="Helvetica,sans-Serif" font-size="10.00" fill="#000000">cmath</text>
</g>
<!-- Node6&#45;&gt;Node7 -->
<g id="edge8" class="edge">
<title>Node6&#45;&gt;Node7</title>
<path fill="none" stroke="#191970" d="M674.9063,-117.8906C680.8886,-108.917 689.9747,-95.2879 697.3339,-84.2491"/>
<polygon fill="#191970" stroke="#191970" points="700.3686,-86.0068 703.0034,-75.7449 694.5442,-82.1239 700.3686,-86.0068"/>
</g>
<!-- Node8 -->
<g id="node9" class="node">
<title>Node8</title>
<polygon fill="none" stroke="#bfbfbf" points="613.5,-56.5 613.5,-75.5 669.5,-75.5 669.5,-56.5 613.5,-56.5"/>
<text text-anchor="middle" x="641.5" y="-63.5" font-family="Helvetica,sans-Serif" font-size="10.00" fill="#000000">algorithm</text>
</g>
<!-- Node6&#45;&gt;Node8 -->
<g id="edge9" class="edge">
<title>Node6&#45;&gt;Node8</title>
<path fill="none" stroke="#191970" d="M664.2813,-117.8906C660.4204,-109.0965 654.5966,-95.8312 649.8039,-84.9145"/>
<polygon fill="#191970" stroke="#191970" points="653.0029,-83.4943 645.7782,-75.7449 646.5934,-86.3083 653.0029,-83.4943"/>
</g>
<!-- Node9&#45;&gt;Node1 -->
<g id="edge24" class="edge">
<title>Node9&#45;&gt;Node1</title>
<path fill="none" stroke="#191970" d="M471.8041,-179.4275C455.4537,-172.1781 436.1261,-160.4435 426.5,-143 415.4498,-122.9757 430.974,-98.9752 444.946,-83.1522"/>
<polygon fill="#191970" stroke="#191970" points="447.6636,-85.3713 451.962,-75.6876 442.563,-80.5772 447.6636,-85.3713"/>
</g>
<!-- Node9&#45;&gt;Node3 -->
<g id="edge13" class="edge">
<title>Node9&#45;&gt;Node3</title>
<path fill="none" stroke="#191970" d="M569.2102,-179.4585C626.8736,-170.7859 703.6569,-157.2074 731.5,-143 759.9369,-128.4896 785.7005,-101.3962 800.7359,-83.5276"/>
<polygon fill="#191970" stroke="#191970" points="803.6028,-85.5506 807.2199,-75.5923 798.1822,-81.1214 803.6028,-85.5506"/>
</g>
<!-- Node9&#45;&gt;Node6 -->
<g id="edge25" class="edge">
<title>Node9&#45;&gt;Node6</title>
<path fill="none" stroke="#191970" d="M525.9063,-179.3906C554.6791,-168.92 600.8696,-152.1111 632.8466,-140.4745"/>
<polygon fill="#191970" stroke="#191970" points="634.079,-143.7506 642.2792,-137.0419 631.6851,-137.1726 634.079,-143.7506"/>
</g>
<!-- Node9&#45;&gt;Node7 -->
<g id="edge11" class="edge">
<title>Node9&#45;&gt;Node7</title>
<path fill="none" stroke="#191970" d="M487.814,-179.4192C470.3842,-163.9959 441.4627,-133.2444 459.5,-112 489.6752,-76.4595 615.6663,-86.3111 677.2516,-75.6761"/>
<polygon fill="#191970" stroke="#191970" points="678.1752,-79.0594 687.2623,-73.6119 676.7615,-72.2036 678.1752,-79.0594"/>
</g>
<!-- Node10 -->
<g id="node11" class="node">
<title>Node10</title>
<polygon fill="none" stroke="#bfbfbf" points="339.5,-56.5 339.5,-75.5 385.5,-75.5 385.5,-56.5 339.5,-56.5"/>
<text text-anchor="middle" x="362.5" y="-63.5" font-family="Helvetica,sans-Serif" font-size="10.00" fill="#000000">cstring</text>
</g>
<!-- Node9&#45;&gt;Node10 -->
<g id="edge12" class="edge">
<title>Node9&#45;&gt;Node10</title>
<path fill="none" stroke="#191970" d="M477.5563,-179.4374C460.5306,-171.3324 436.9662,-158.5585 419.5,-143 400.1897,-125.7988 383.3095,-101.088 373.0308,-84.3349"/>
<polygon fill="#191970" stroke="#191970" points="375.8974,-82.3081 367.7732,-75.5074 369.8833,-85.8901 375.8974,-82.3081"/>
</g>
<!-- Node11 -->
<g id="node12" class="node">
<title>Node11</title>
<g id="a_node12"><a xlink:href="../../db/dff/FlatObject_8h.html" target="_top" xlink:title="Definition of FlatObject class. ">
<polygon fill="none" stroke="#000000" points="228.5,-118 228.5,-137 298.5,-137 298.5,-118 228.5,-118"/>
<text text-anchor="middle" x="263.5" y="-125" font-family="Helvetica,sans-Serif" font-size="10.00" fill="#000000">FlatObject.h</text>
</a>
</g>
</g>
<!-- Node9&#45;&gt;Node11 -->
<g id="edge14" class="edge">
<title>Node9&#45;&gt;Node11</title>
<path fill="none" stroke="#191970" d="M457.3332,-179.4554C419.2977,-170.6498 361.9084,-156.8757 312.5,-143 309.178,-142.0671 305.7416,-141.0623 302.301,-140.0287"/>
<polygon fill="#191970" stroke="#191970" points="303.2723,-136.6657 292.6854,-137.075 301.2168,-143.3571 303.2723,-136.6657"/>
</g>
<!-- Node18 -->
<g id="node19" class="node">
<title>Node18</title>
<g id="a_node19"><a xlink:href="../../db/dba/MatCell_8h.html" target="_top" xlink:title="Declarations for material properties of the cell (voxel) ">
<polygon fill="none" stroke="#000000" points="469,-118 469,-137 596,-137 596,-118 469,-118"/>
<text text-anchor="middle" x="532.5" y="-125" font-family="Helvetica,sans-Serif" font-size="10.00" fill="#000000">DetectorsBase/MatCell.h</text>
</a>
</g>
</g>
<!-- Node9&#45;&gt;Node18 -->
<g id="edge26" class="edge">
<title>Node9&#45;&gt;Node18</title>
<path fill="none" stroke="#191970" d="M504.6563,-179.3906C509.4232,-170.5068 516.6385,-157.0601 522.5297,-146.0811"/>
<polygon fill="#191970" stroke="#191970" points="525.6269,-147.7114 527.2711,-137.2449 519.4588,-144.4016 525.6269,-147.7114"/>
</g>
<!-- Node11&#45;&gt;Node1 -->
<g id="edge20" class="edge">
<title>Node11&#45;&gt;Node1</title>
<path fill="none" stroke="#191970" d="M294.5938,-117.8906C328.9124,-107.2846 384.2743,-90.1753 421.9698,-78.5257"/>
<polygon fill="#191970" stroke="#191970" points="423.1039,-81.8386 431.6246,-75.5419 421.037,-75.1507 423.1039,-81.8386"/>
</g>
<!-- Node11&#45;&gt;Node3 -->
<g id="edge19" class="edge">
<title>Node11&#45;&gt;Node3</title>
<path fill="none" stroke="#191970" d="M298.5457,-124.0407C377.5078,-116.1754 575.3359,-96.0722 740.5,-76 744.6262,-75.4985 748.8796,-74.9658 753.1637,-74.4176"/>
<polygon fill="#191970" stroke="#191970" points="753.7042,-77.8768 763.1699,-73.1174 752.8022,-70.9352 753.7042,-77.8768"/>
</g>
<!-- Node11&#45;&gt;Node10 -->
<g id="edge17" class="edge">
<title>Node11&#45;&gt;Node10</title>
<path fill="none" stroke="#191970" d="M278.9688,-117.8906C294.9521,-107.9616 320.1103,-92.333 338.6433,-80.8201"/>
<polygon fill="#191970" stroke="#191970" points="340.4924,-83.7918 347.1399,-75.5419 336.7985,-77.8457 340.4924,-83.7918"/>
</g>
<!-- Node12 -->
<g id="node13" class="node">
<title>Node12</title>
<polygon fill="none" stroke="#bfbfbf" points="0,-56.5 0,-75.5 49,-75.5 49,-56.5 0,-56.5"/>
<text text-anchor="middle" x="24.5" y="-63.5" font-family="Helvetica,sans-Serif" font-size="10.00" fill="#000000">cstddef</text>
</g>
<!-- Node11&#45;&gt;Node12 -->
<g id="edge15" class="edge">
<title>Node11&#45;&gt;Node12</title>
<path fill="none" stroke="#191970" d="M228.2022,-119.0861C189.2627,-109.7043 124.5182,-93.8119 59.3809,-76.1642"/>
<polygon fill="#191970" stroke="#191970" points="59.9181,-72.6831 49.3499,-73.4331 58.0792,-79.4373 59.9181,-72.6831"/>
</g>
<!-- Node13 -->
<g id="node14" class="node">
<title>Node13</title>
<polygon fill="none" stroke="#bfbfbf" points="67.5,-56.5 67.5,-75.5 119.5,-75.5 119.5,-56.5 67.5,-56.5"/>
<text text-anchor="middle" x="93.5" y="-63.5" font-family="Helvetica,sans-Serif" font-size="10.00" fill="#000000">memory</text>
</g>
<!-- Node11&#45;&gt;Node13 -->
<g id="edge16" class="edge">
<title>Node11&#45;&gt;Node13</title>
<path fill="none" stroke="#191970" d="M236.9375,-117.8906C207.9097,-107.3894 161.2587,-90.5127 129.0826,-78.8725"/>
<polygon fill="#191970" stroke="#191970" points="130.1914,-75.5517 119.5971,-75.441 127.81,-82.1342 130.1914,-75.5517"/>
</g>
<!-- Node14 -->
<g id="node15" class="node">
<title>Node14</title>
<polygon fill="none" stroke="#bfbfbf" points="138,-56.5 138,-75.5 187,-75.5 187,-56.5 138,-56.5"/>
<text text-anchor="middle" x="162.5" y="-63.5" font-family="Helvetica,sans-Serif" font-size="10.00" fill="#000000">cassert</text>
</g>
<!-- Node11&#45;&gt;Node14 -->
<g id="edge18" class="edge">
<title>Node11&#45;&gt;Node14</title>
<path fill="none" stroke="#191970" d="M247.7188,-117.8906C231.4125,-107.9616 205.746,-92.333 186.8386,-80.8201"/>
<polygon fill="#191970" stroke="#191970" points="188.5319,-77.7533 178.1704,-75.5419 184.8913,-83.7322 188.5319,-77.7533"/>
</g>
<!-- Node15 -->
<g id="node16" class="node">
<title>Node15</title>
<g id="a_node16"><a xlink:href="../../df/d5b/GPUCommonLogger_8h.html" target="_top" xlink:title="GPUCommonLogger.h">
<polygon fill="none" stroke="#000000" points="205.5,-56.5 205.5,-75.5 321.5,-75.5 321.5,-56.5 205.5,-56.5"/>
<text text-anchor="middle" x="263.5" y="-63.5" font-family="Helvetica,sans-Serif" font-size="10.00" fill="#000000">GPUCommonLogger.h</text>
</a>
</g>
</g>
<!-- Node11&#45;&gt;Node15 -->
<g id="edge21" class="edge">
<title>Node11&#45;&gt;Node15</title>
<path fill="none" stroke="#191970" d="M263.5,-117.8906C263.5,-109.3657 263.5,-96.6392 263.5,-85.9235"/>
<polygon fill="#191970" stroke="#191970" points="267.0001,-85.7448 263.5,-75.7449 260.0001,-85.7449 267.0001,-85.7448"/>
</g>
<!-- Node16 -->
<g id="node17" class="node">
<title>Node16</title>
<polygon fill="none" stroke="#bfbfbf" points="202.5,-.5 202.5,-19.5 256.5,-19.5 256.5,-.5 202.5,-.5"/>
<text text-anchor="middle" x="229.5" y="-7.5" font-family="Helvetica,sans-Serif" font-size="10.00" fill="#000000">iostream</text>
</g>
<!-- Node15&#45;&gt;Node16 -->
<g id="edge22" class="edge">
<title>Node15&#45;&gt;Node16</title>
<path fill="none" stroke="#191970" d="M257.5777,-56.2455C252.8973,-48.5367 246.2327,-37.5598 240.5711,-28.2348"/>
<polygon fill="#191970" stroke="#191970" points="243.5361,-26.3741 235.3545,-19.6427 237.5525,-30.007 243.5361,-26.3741"/>
</g>
<!-- Node17 -->
<g id="node18" class="node">
<title>Node17</title>
<polygon fill="none" stroke="#bfbfbf" points="275,-.5 275,-19.5 318,-19.5 318,-.5 275,-.5"/>
<text text-anchor="middle" x="296.5" y="-7.5" font-family="Helvetica,sans-Serif" font-size="10.00" fill="#000000">cstdio</text>
</g>
<!-- Node15&#45;&gt;Node17 -->
<g id="edge23" class="edge">
<title>Node15&#45;&gt;Node17</title>
<path fill="none" stroke="#191970" d="M269.2482,-56.2455C273.7435,-48.617 280.1248,-37.7881 285.5825,-28.5267"/>
<polygon fill="#191970" stroke="#191970" points="288.7561,-30.035 290.8177,-19.6427 282.7253,-26.4811 288.7561,-30.035"/>
</g>
<!-- Node18&#45;&gt;Node1 -->
<g id="edge28" class="edge">
<title>Node18&#45;&gt;Node1</title>
<path fill="none" stroke="#191970" d="M521.5625,-117.8906C510.838,-108.4683 494.2713,-93.9134 481.4099,-82.6137"/>
<polygon fill="#191970" stroke="#191970" points="483.4143,-79.7158 473.5917,-75.7449 478.7941,-84.9745 483.4143,-79.7158"/>
</g>
<!-- Node18&#45;&gt;Node3 -->
<g id="edge27" class="edge">
<title>Node18&#45;&gt;Node3</title>
<path fill="none" stroke="#191970" d="M576.2531,-117.9581C625.9585,-107.1181 707.0999,-89.4224 760.6501,-77.7439"/>
<polygon fill="#191970" stroke="#191970" points="761.6197,-81.1148 770.6443,-75.5643 760.1281,-74.2755 761.6197,-81.1148"/>
</g>
<!-- Node20 -->
<g id="node21" class="node">
<title>Node20</title>
<g id="a_node21"><a xlink:href="../../de/def/bitOps_8h.html" target="_top" xlink:title="MathUtils/detail/bitOps.h">
<polygon fill="none" stroke="#000000" points="1125,-179.5 1125,-198.5 1250,-198.5 1250,-179.5 1125,-179.5"/>
<text text-anchor="middle" x="1187.5" y="-186.5" font-family="Helvetica,sans-Serif" font-size="10.00" fill="#000000">MathUtils/detail/bitOps.h</text>
</a>
</g>
</g>
<!-- Node19&#45;&gt;Node20 -->
<g id="edge30" class="edge">
<title>Node19&#45;&gt;Node20</title>
<path fill="none" stroke="#191970" d="M976.0463,-235.4369C1019.7793,-225.8328 1087.2345,-211.0191 1134.1542,-200.7152"/>
<polygon fill="#191970" stroke="#191970" points="1135.1168,-204.0872 1144.1333,-198.5237 1133.6153,-197.2502 1135.1168,-204.0872"/>
</g>
<!-- Node22 -->
<g id="node23" class="node">
<title>Node22</title>
<g id="a_node23"><a xlink:href="../../d3/dfc/StatAccumulator_8h.html" target="_top" xlink:title="MathUtils/detail/StatAccumulator.h">
<polygon fill="none" stroke="#000000" points="938,-179.5 938,-198.5 1107,-198.5 1107,-179.5 938,-179.5"/>
<text text-anchor="middle" x="1022.5" y="-186.5" font-family="Helvetica,sans-Serif" font-size="10.00" fill="#000000">MathUtils/detail/StatAccumulator.h</text>
</a>
</g>
</g>
<!-- Node19&#45;&gt;Node22 -->
<g id="edge32" class="edge">
<title>Node19&#45;&gt;Node22</title>
<path fill="none" stroke="#191970" d="M948.1768,-235.2455C961.9856,-226.6534 982.3193,-214.0014 998.2292,-204.1018"/>
<polygon fill="#191970" stroke="#191970" points="1000.3613,-206.8974 1007.0028,-198.6427 996.6632,-200.954 1000.3613,-206.8974"/>
</g>
<!-- Node24 -->
<g id="node25" class="node">
<title>Node24</title>
<g id="a_node25"><a xlink:href="../../dd/d7d/trigonometric_8h.html" target="_top" xlink:title="MathUtils/detail/trigonometric.h">
<polygon fill="none" stroke="#000000" points="767.5,-179.5 767.5,-198.5 919.5,-198.5 919.5,-179.5 767.5,-179.5"/>
<text text-anchor="middle" x="843.5" y="-186.5" font-family="Helvetica,sans-Serif" font-size="10.00" fill="#000000">MathUtils/detail/trigonometric.h</text>
</a>
</g>
</g>
<!-- Node19&#45;&gt;Node24 -->
<g id="edge34" class="edge">
<title>Node19&#45;&gt;Node24</title>
<path fill="none" stroke="#191970" d="M916.9974,-235.2455C903.342,-226.6534 883.2343,-214.0014 867.5011,-204.1018"/>
<polygon fill="#191970" stroke="#191970" points="869.1529,-201.006 858.825,-198.6427 865.4249,-206.9307 869.1529,-201.006"/>
</g>
<!-- Node21 -->
<g id="node22" class="node">
<title>Node21</title>
<polygon fill="none" stroke="#bfbfbf" points="1164.5,-118 1164.5,-137 1210.5,-137 1210.5,-118 1164.5,-118"/>
<text text-anchor="middle" x="1187.5" y="-125" font-family="Helvetica,sans-Serif" font-size="10.00" fill="#000000">cstdint</text>
</g>
<!-- Node20&#45;&gt;Node21 -->
<g id="edge31" class="edge">
<title>Node20&#45;&gt;Node21</title>
<path fill="none" stroke="#191970" d="M1187.5,-179.3906C1187.5,-170.8657 1187.5,-158.1392 1187.5,-147.4235"/>
<polygon fill="#191970" stroke="#191970" points="1191.0001,-147.2448 1187.5,-137.2449 1184.0001,-147.2449 1191.0001,-147.2448"/>
</g>
<!-- Node23 -->
<g id="node24" class="node">
<title>Node23</title>
<polygon fill="none" stroke="#bfbfbf" points="1108.5,-118 1108.5,-137 1146.5,-137 1146.5,-118 1108.5,-118"/>
<text text-anchor="middle" x="1127.5" y="-125" font-family="Helvetica,sans-Serif" font-size="10.00" fill="#000000">tuple</text>
</g>
<!-- Node22&#45;&gt;Node23 -->
<g id="edge33" class="edge">
<title>Node22&#45;&gt;Node23</title>
<path fill="none" stroke="#191970" d="M1038.9063,-179.3906C1055.9353,-169.4165 1082.7841,-153.6908 1102.4651,-142.1633"/>
<polygon fill="#191970" stroke="#191970" points="1104.349,-145.1161 1111.209,-137.0419 1100.8112,-139.0759 1104.349,-145.1161"/>
</g>
<!-- Node24&#45;&gt;Node3 -->
<g id="edge38" class="edge">
<title>Node24&#45;&gt;Node3</title>
<path fill="none" stroke="#191970" d="M908.6496,-179.4702C969.2926,-169.9347 1051.7693,-154.9982 1061.5,-143 1070.1786,-132.2991 1070.3055,-122.5967 1061.5,-112 1038.346,-84.1358 941.2422,-73.0646 875.9065,-68.7252"/>
<polygon fill="#191970" stroke="#191970" points="875.9092,-65.2185 865.7095,-68.085 875.4705,-72.2048 875.9092,-65.2185"/>
</g>
<!-- Node24&#45;&gt;Node6 -->
<g id="edge39" class="edge">
<title>Node24&#45;&gt;Node6</title>
<path fill="none" stroke="#191970" d="M816.1563,-179.3906C786.3618,-168.92 738.5315,-152.1111 705.4192,-140.4745"/>
<polygon fill="#191970" stroke="#191970" points="706.2466,-137.0554 695.6517,-137.0419 703.9257,-143.6595 706.2466,-137.0554"/>
</g>
<!-- Node24&#45;&gt;Node7 -->
<g id="edge36" class="edge">
<title>Node24&#45;&gt;Node7</title>
<path fill="none" stroke="#191970" d="M832.9852,-179.3484C810.1865,-158.4212 755.9747,-108.6596 727.5686,-82.5854"/>
<polygon fill="#191970" stroke="#191970" points="729.6997,-79.7906 719.9659,-75.6068 724.9661,-84.9475 729.6997,-79.7906"/>
</g>
<!-- Node24&#45;&gt;Node23 -->
<g id="edge37" class="edge">
<title>Node24&#45;&gt;Node23</title>
<path fill="none" stroke="#191970" d="M919.7072,-180.2372C970.1187,-173.1801 1037.2299,-161.3568 1094.5,-143 1096.3535,-142.4059 1098.2378,-141.7309 1100.1189,-141.003"/>
<polygon fill="#191970" stroke="#191970" points="1101.5254,-144.2081 1109.3385,-137.0522 1098.7683,-137.774 1101.5254,-144.2081"/>
</g>
<!-- Node25 -->
<g id="node26" class="node">
<title>Node25</title>
<polygon fill="none" stroke="#bfbfbf" points="816.5,-118 816.5,-137 854.5,-137 854.5,-118 816.5,-118"/>
<text text-anchor="middle" x="835.5" y="-125" font-family="Helvetica,sans-Serif" font-size="10.00" fill="#000000">array</text>
</g>
<!-- Node24&#45;&gt;Node25 -->
<g id="edge35" class="edge">
<title>Node24&#45;&gt;Node25</title>
<path fill="none" stroke="#191970" d="M842.25,-179.3906C841.1411,-170.8657 839.4856,-158.1392 838.0917,-147.4235"/>
<polygon fill="#191970" stroke="#191970" points="841.5284,-146.7098 836.7676,-137.2449 834.5869,-147.6128 841.5284,-146.7098"/>
</g>
<!-- Node26 -->
<g id="node27" class="node">
<title>Node26</title>
<g id="a_node27"><a xlink:href="../../d6/d84/MathConstants_8h.html" target="_top" xlink:title="useful math constants ">
<polygon fill="none" stroke="#000000" points="873,-118 873,-137 1052,-137 1052,-118 873,-118"/>
<text text-anchor="middle" x="962.5" y="-125" font-family="Helvetica,sans-Serif" font-size="10.00" fill="#000000">CommonConstants/MathConstants.h</text>
</a>
</g>
</g>
<!-- Node24&#45;&gt;Node26 -->
<g id="edge40" class="edge">
<title>Node24&#45;&gt;Node26</title>
<path fill="none" stroke="#191970" d="M862.0938,-179.3906C881.6553,-169.2811 912.6501,-153.2628 935.0309,-141.6962"/>
<polygon fill="#191970" stroke="#191970" points="936.76,-144.7425 944.0368,-137.0419 933.5461,-138.5238 936.76,-144.7425"/>
</g>
<!-- Node27&#45;&gt;Node1 -->
<g id="edge43" class="edge">
<title>Node27&#45;&gt;Node1</title>
<path fill="none" stroke="#191970" d="M1979.4872,-187.6762C1812.2821,-183.4479 1324.1972,-168.9981 1257.5,-143 1237.1923,-135.0842 1239.81,-119.9098 1219.5,-112 1091.9324,-62.3182 741.1169,-84.8087 604.5,-76 580.7608,-74.4694 554.7981,-72.676 531.6401,-71.0339"/>
<polygon fill="#191970" stroke="#191970" points="531.7832,-67.5353 521.5598,-70.3162 531.2859,-74.5176 531.7832,-67.5353"/>
</g>
<!-- Node27&#45;&gt;Node3 -->
<g id="edge42" class="edge">
<title>Node27&#45;&gt;Node3</title>
<path fill="none" stroke="#191970" d="M2091.7604,-186.8182C2239.3794,-180.8225 2627.7705,-163.1926 2646.5,-143 2655.8695,-132.8986 2656.1193,-121.8639 2646.5,-112 2614.9104,-79.6073 1192.1606,-68.4569 876.2181,-66.3781"/>
<polygon fill="#191970" stroke="#191970" points="875.9072,-62.8761 865.8846,-66.3108 875.8616,-69.876 875.9072,-62.8761"/>
</g>
<!-- Node28 -->
<g id="node29" class="node">
<title>Node28</title>
<polygon fill="none" stroke="#bfbfbf" points="2694,-112.5 2694,-142.5 2845,-142.5 2845,-112.5 2694,-112.5"/>
<text text-anchor="start" x="2702" y="-130.5" font-family="Helvetica,sans-Serif" font-size="10.00" fill="#000000">Math/GenVector/Displacement</text>
<text text-anchor="middle" x="2769.5" y="-119.5" font-family="Helvetica,sans-Serif" font-size="10.00" fill="#000000">Vector3D.h</text>
</g>
<!-- Node27&#45;&gt;Node28 -->
<g id="edge44" class="edge">
<title>Node27&#45;&gt;Node28</title>
<path fill="none" stroke="#191970" d="M2091.672,-186.8647C2203.7702,-182.1896 2463.0763,-169.3001 2679.5,-143 2680.9756,-142.8207 2682.4637,-142.6337 2683.9616,-142.4399"/>
<polygon fill="#191970" stroke="#191970" points="2684.526,-145.8954 2693.9581,-141.0697 2683.5754,-138.9602 2684.526,-145.8954"/>
</g>
<!-- Node29 -->
<g id="node30" class="node">
<title>Node29</title>
<polygon fill="none" stroke="#bfbfbf" points="1420.5,-118 1420.5,-137 1596.5,-137 1596.5,-118 1420.5,-118"/>
<text text-anchor="middle" x="1508.5" y="-125" font-family="Helvetica,sans-Serif" font-size="10.00" fill="#000000">Math/GenVector/PositionVector3D.h</text>
</g>
<!-- Node27&#45;&gt;Node29 -->
<g id="edge45" class="edge">
<title>Node27&#45;&gt;Node29</title>
<path fill="none" stroke="#191970" d="M1979.3843,-183.9339C1897.1831,-176.3005 1739.2709,-160.8308 1605.5,-143 1595.6109,-141.6818 1585.1762,-140.1567 1574.9616,-138.5881"/>
<polygon fill="#191970" stroke="#191970" points="1575.2686,-135.0937 1564.8487,-137.011 1574.1899,-142.0101 1575.2686,-135.0937"/>
</g>
<!-- Node30 -->
<g id="node31" class="node">
<title>Node30</title>
<polygon fill="none" stroke="#bfbfbf" points="1614,-118 1614,-137 1763,-137 1763,-118 1614,-118"/>
<text text-anchor="middle" x="1688.5" y="-125" font-family="Helvetica,sans-Serif" font-size="10.00" fill="#000000">Math/GenVector/Rotation3D.h</text>
</g>
<!-- Node27&#45;&gt;Node30 -->
<g id="edge46" class="edge">
<title>Node27&#45;&gt;Node30</title>
<path fill="none" stroke="#191970" d="M1980.0604,-179.4578C1926.8166,-170.257 1844.1266,-155.872 1772.5,-143 1765.0915,-141.6686 1757.3187,-140.2559 1749.6171,-138.8463"/>
<polygon fill="#191970" stroke="#191970" points="1750.0379,-135.3652 1739.5703,-137.0023 1748.7742,-142.2502 1750.0379,-135.3652"/>
</g>
<!-- Node31 -->
<g id="node32" class="node">
<title>Node31</title>
<polygon fill="none" stroke="#bfbfbf" points="1781.5,-118 1781.5,-137 1937.5,-137 1937.5,-118 1781.5,-118"/>
<text text-anchor="middle" x="1859.5" y="-125" font-family="Helvetica,sans-Serif" font-size="10.00" fill="#000000">Math/GenVector/Transform3D.h</text>
</g>
<!-- Node27&#45;&gt;Node31 -->
<g id="edge47" class="edge">
<title>Node27&#45;&gt;Node31</title>
<path fill="none" stroke="#191970" d="M2008,-179.3906C1978.0353,-168.92 1929.9317,-152.1111 1896.6302,-140.4745"/>
<polygon fill="#191970" stroke="#191970" points="1897.4017,-137.0366 1886.8069,-137.0419 1895.0926,-143.6448 1897.4017,-137.0366"/>
</g>
<!-- Node32 -->
<g id="node33" class="node">
<title>Node32</title>
<polygon fill="none" stroke="#bfbfbf" points="1955.5,-118 1955.5,-137 2115.5,-137 2115.5,-118 1955.5,-118"/>
<text text-anchor="middle" x="2035.5" y="-125" font-family="Helvetica,sans-Serif" font-size="10.00" fill="#000000">Math/GenVector/Translation3D.h</text>
</g>
<!-- Node27&#45;&gt;Node32 -->
<g id="edge48" class="edge">
<title>Node27&#45;&gt;Node32</title>
<path fill="none" stroke="#191970" d="M2035.5,-179.3906C2035.5,-170.8657 2035.5,-158.1392 2035.5,-147.4235"/>
<polygon fill="#191970" stroke="#191970" points="2039.0001,-147.2448 2035.5,-137.2449 2032.0001,-147.2449 2039.0001,-147.2448"/>
</g>
<!-- Node33 -->
<g id="node34" class="node">
<title>Node33</title>
<polygon fill="none" stroke="#bfbfbf" points="2134,-112.5 2134,-142.5 2285,-142.5 2285,-112.5 2134,-112.5"/>
<text text-anchor="start" x="2142" y="-130.5" font-family="Helvetica,sans-Serif" font-size="10.00" fill="#000000">Math/GenVector/Displacement</text>
<text text-anchor="middle" x="2209.5" y="-119.5" font-family="Helvetica,sans-Serif" font-size="10.00" fill="#000000">Vector2D.h</text>
</g>
<!-- Node27&#45;&gt;Node33 -->
<g id="edge49" class="edge">
<title>Node27&#45;&gt;Node33</title>
<path fill="none" stroke="#191970" d="M2062.6875,-179.3906C2087.8716,-170.4893 2126.0159,-157.0073 2157.1118,-146.0165"/>
<polygon fill="#191970" stroke="#191970" points="2158.6728,-149.1771 2166.9348,-142.5446 2156.34,-142.5772 2158.6728,-149.1771"/>
</g>
<!-- Node34 -->
<g id="node35" class="node">
<title>Node34</title>
<polygon fill="none" stroke="#bfbfbf" points="2303.5,-118 2303.5,-137 2479.5,-137 2479.5,-118 2303.5,-118"/>
<text text-anchor="middle" x="2391.5" y="-125" font-family="Helvetica,sans-Serif" font-size="10.00" fill="#000000">Math/GenVector/PositionVector2D.h</text>
</g>
<!-- Node27&#45;&gt;Node34 -->
<g id="edge50" class="edge">
<title>Node27&#45;&gt;Node34</title>
<path fill="none" stroke="#191970" d="M2090.7344,-179.4581C2154.3586,-168.4668 2258.7833,-150.4272 2326.3287,-138.7585"/>
<polygon fill="#191970" stroke="#191970" points="2327.1707,-142.165 2336.4289,-137.0137 2325.9791,-135.2672 2327.1707,-142.165"/>
</g>
<!-- Node35 -->
<g id="node36" class="node">
<title>Node35</title>
<polygon fill="none" stroke="#bfbfbf" points="2497.5,-118 2497.5,-137 2573.5,-137 2573.5,-118 2497.5,-118"/>
<text text-anchor="middle" x="2535.5" y="-125" font-family="Helvetica,sans-Serif" font-size="10.00" fill="#000000">TGeoMatrix.h</text>
</g>
<!-- Node27&#45;&gt;Node35 -->
<g id="edge51" class="edge">
<title>Node27&#45;&gt;Node35</title>
<path fill="none" stroke="#191970" d="M2091.5431,-187.2198C2177.7227,-183.6078 2347.5923,-173.0153 2488.5,-143 2492.3603,-142.1777 2496.3486,-141.1514 2500.2947,-140.0208"/>
<polygon fill="#191970" stroke="#191970" points="2501.3953,-143.3441 2509.9196,-137.0524 2499.3322,-136.655 2501.3953,-143.3441"/>
</g>
<!-- Node36 -->
<g id="node37" class="node">
<title>Node36</title>
<polygon fill="none" stroke="#bfbfbf" points="2592,-118 2592,-137 2637,-137 2637,-118 2592,-118"/>
<text text-anchor="middle" x="2614.5" y="-125" font-family="Helvetica,sans-Serif" font-size="10.00" fill="#000000">iosfwd</text>
</g>
<!-- Node27&#45;&gt;Node36 -->
<g id="edge52" class="edge">
<title>Node27&#45;&gt;Node36</title>
<path fill="none" stroke="#191970" d="M2091.6298,-186.8829C2211.946,-181.9218 2491.1629,-168.031 2582.5,-143 2584.42,-142.4738 2586.3641,-141.8342 2588.2957,-141.1182"/>
<polygon fill="#191970" stroke="#191970" points="2589.8841,-144.2448 2597.681,-137.0713 2587.1124,-137.8169 2589.8841,-144.2448"/>
</g>
<!-- Node37 -->
<g id="node38" class="node">
<title>Node37</title>
<g id="a_node38"><a xlink:href="../../d1/da8/GPUROOTCartesianFwd_8h.html" target="_top" xlink:title="GPUROOTCartesianFwd.h">
<polygon fill="none" stroke="#000000" points="1266.5,-118 1266.5,-137 1402.5,-137 1402.5,-118 1266.5,-118"/>
<text text-anchor="middle" x="1334.5" y="-125" font-family="Helvetica,sans-Serif" font-size="10.00" fill="#000000">GPUROOTCartesianFwd.h</text>
</a>
</g>
</g>
<!-- Node27&#45;&gt;Node37 -->
<g id="edge53" class="edge">
<title>Node27&#45;&gt;Node37</title>
<path fill="none" stroke="#191970" d="M1979.3188,-187.2135C1869.6902,-183.2077 1619.7497,-171.5221 1411.5,-143 1403.528,-141.9081 1395.1401,-140.4961 1386.9515,-138.9695"/>
<polygon fill="#191970" stroke="#191970" points="1387.5863,-135.5275 1377.1035,-137.0644 1386.2567,-142.4001 1387.5863,-135.5275"/>
</g>
<!-- Node37&#45;&gt;Node3 -->
<g id="edge54" class="edge">
<title>Node37&#45;&gt;Node3</title>
<path fill="none" stroke="#191970" d="M1287.7794,-117.9816C1276.2759,-115.828 1263.9677,-113.6831 1252.5,-112 1118.5606,-92.3417 960.382,-77.8722 875.5594,-70.8173"/>
<polygon fill="#191970" stroke="#191970" points="875.8395,-67.3286 865.5854,-69.9938 875.2635,-74.3049 875.8395,-67.3286"/>
</g>
</g>
</svg>
        <g id="navigator" transform="translate(0 0)" fill="#404254">
                <rect fill="#f2f5e9" fill-opacity="0.5" stroke="#606060" stroke-width=".5" x="0" y="0" width="60" height="60"/>
                <use id="zoomplus" xlink:href="#zoomPlus" x="17" y="9" onmousedown="handleZoom(evt,'in')"/>
                <use id="zoomminus" xlink:href="#zoomMin" x="42" y="9" onmousedown="handleZoom(evt,'out')"/>
                <use id="reset" xlink:href="#resetDef" x="30" y="36" onmousedown="handleReset()"/>
                <g id="arrowUp" xlink:href="#dirArrow" transform="translate(30 24)" onmousedown="handlePan(0,-1)">
                  <use xlink:href="#rim" fill="#404040">
                        <set attributeName="fill" to="#808080" begin="arrowUp.mouseover" end="arrowUp.mouseout"/>
                  </use>
                  <path fill="none" stroke="white" stroke-width="1.5" d="M0,-3.0v7 M-2.5,-0.5L0,-3.0L2.5,-0.5"/>
                </g>
                <g id="arrowRight" xlink:href="#dirArrow" transform="rotate(90) translate(36 -43)" onmousedown="handlePan(1,0)">
                  <use xlink:href="#rim" fill="#404040">
                        <set attributeName="fill" to="#808080" begin="arrowRight.mouseover" end="arrowRight.mouseout"/>
                  </use>
                  <path fill="none" stroke="white" stroke-width="1.5" d="M0,-3.0v7 M-2.5,-0.5L0,-3.0L2.5,-0.5"/>
                </g>
                <g id="arrowDown" xlink:href="#dirArrow" transform="rotate(180) translate(-30 -48)" onmousedown="handlePan(0,1)">
                  <use xlink:href="#rim" fill="#404040">
                        <set attributeName="fill" to="#808080" begin="arrowDown.mouseover" end="arrowDown.mouseout"/>
                  </use>
                  <path fill="none" stroke="white" stroke-width="1.5" d="M0,-3.0v7 M-2.5,-0.5L0,-3.0L2.5,-0.5"/>
                </g>
                <g id="arrowLeft" xlink:href="#dirArrow" transform="rotate(270) translate(-36 17)" onmousedown="handlePan(-1,0)">
                  <use xlink:href="#rim" fill="#404040">
                        <set attributeName="fill" to="#808080" begin="arrowLeft.mouseover" end="arrowLeft.mouseout"/>
                  </use>
                  <path fill="none" stroke="white" stroke-width="1.5" d="M0,-3.0v7 M-2.5,-0.5L0,-3.0L2.5,-0.5"/>
                </g>
        </g>
        <svg viewBox="0 0 15 15" width="100%" height="30px" preserveAspectRatio="xMaxYMin meet">
         <g id="arrow_out" transform="scale(0.3 0.3)">
          <a xlink:href="Ray_8h__incl_org.svg" target="_base">
           <rect id="button" ry="5" rx="5" y="6" x="6" height="38" width="38"
                fill="#f2f5e9" fill-opacity="0.5" stroke="#606060" stroke-width="1.0"/>
           <path id="arrow"
             d="M 11.500037,31.436501 C 11.940474,20.09759 22.043105,11.32322 32.158766,21.979434 L 37.068811,17.246167 C 37.068811,17.246167 37.088388,32 37.088388,32 L 22.160133,31.978069 C 22.160133,31.978069 26.997745,27.140456 26.997745,27.140456 C 18.528582,18.264221 13.291696,25.230495 11.500037,31.436501 z"
             style="fill:#404040;"/>
          </a>
         </g>
        </svg>
</svg>
