<?xml version="1.0" encoding="UTF-8" standalone="no"?>
<!DOCTYPE svg PUBLIC "-//W3C//DTD SVG 1.1//EN"
 "http://www.w3.org/Graphics/SVG/1.1/DTD/svg11.dtd">
<!-- Generated by graphviz version 2.40.1 (20161225.0304)
 -->
<!-- Title: o2::pmr::OwningMessageSpectatorAllocator&lt; T &gt; Pages: 1 -->
<svg width="541pt" height="551pt"
 viewBox="0.00 0.00 541.00 551.00" xmlns="http://www.w3.org/2000/svg" xmlns:xlink="http://www.w3.org/1999/xlink">
<g id="graph0" class="graph" transform="scale(1 1) rotate(0) translate(4 547)">
<title>o2::pmr::OwningMessageSpectatorAllocator&lt; T &gt;</title>
<!-- Node1 -->
<g id="node1" class="node">
<title>Node1</title>
<polygon fill="#bfbfbf" stroke="#000000" points="210.5,-.5 210.5,-200.5 395.5,-200.5 395.5,-.5 210.5,-.5"/>
<text text-anchor="start" x="218.5" y="-188.5" font-family="Helvetica,sans-Serif" font-size="10.00" fill="#000000">o2::pmr::OwningMessageSpectator</text>
<text text-anchor="middle" x="303" y="-177.5" font-family="Helvetica,sans-Serif" font-size="10.00" fill="#000000">Allocator&lt; T &gt;</text>
<polyline fill="none" stroke="#000000" points="210.5,-170.5 395.5,-170.5 "/>
<text text-anchor="middle" x="303" y="-158.5" font-family="Helvetica,sans-Serif" font-size="10.00" fill="#000000"> </text>
<polyline fill="none" stroke="#000000" points="210.5,-151.5 395.5,-151.5 "/>
<text text-anchor="start" x="218.5" y="-139.5" font-family="Helvetica,sans-Serif" font-size="10.00" fill="#000000">+ OwningMessageSpectatorAllocator()</text>
<text text-anchor="start" x="218.5" y="-128.5" font-family="Helvetica,sans-Serif" font-size="10.00" fill="#000000">+ OwningMessageSpectatorAllocator()</text>
<text text-anchor="start" x="218.5" y="-117.5" font-family="Helvetica,sans-Serif" font-size="10.00" fill="#000000">+ OwningMessageSpectatorAllocator()</text>
<text text-anchor="start" x="218.5" y="-106.5" font-family="Helvetica,sans-Serif" font-size="10.00" fill="#000000">+ OwningMessageSpectatorAllocator()</text>
<text text-anchor="start" x="218.5" y="-95.5" font-family="Helvetica,sans-Serif" font-size="10.00" fill="#000000">+ OwningMessageSpectatorAllocator()</text>
<text text-anchor="start" x="218.5" y="-84.5" font-family="Helvetica,sans-Serif" font-size="10.00" fill="#000000">+ operator=()</text>
<text text-anchor="start" x="218.5" y="-73.5" font-family="Helvetica,sans-Serif" font-size="10.00" fill="#000000">+ select_on_container</text>
<text text-anchor="start" x="218.5" y="-62.5" font-family="Helvetica,sans-Serif" font-size="10.00" fill="#000000">_copy_construction()</text>
<text text-anchor="start" x="218.5" y="-51.5" font-family="Helvetica,sans-Serif" font-size="10.00" fill="#000000">+ resource()</text>
<text text-anchor="start" x="218.5" y="-40.5" font-family="Helvetica,sans-Serif" font-size="10.00" fill="#000000">+ construct()</text>
<text text-anchor="start" x="218.5" y="-29.5" font-family="Helvetica,sans-Serif" font-size="10.00" fill="#000000">+ destroy()</text>
<text text-anchor="start" x="218.5" y="-18.5" font-family="Helvetica,sans-Serif" font-size="10.00" fill="#000000">+ allocate()</text>
<text text-anchor="start" x="218.5" y="-7.5" font-family="Helvetica,sans-Serif" font-size="10.00" fill="#000000">+ deallocate()</text>
</g>
<!-- Node2 -->
<g id="node2" class="node">
<title>Node2</title>
<g id="a_node2"><a xlink:href="../../da/d1c/classo2_1_1pmr_1_1MessageResource.html" target="_top" xlink:title="{o2::pmr::MessageResource\n||+ MessageResource()\l+ MessageResource()\l+ MessageResource()\l+ operator=()\l+ operator=()\l+ MessageResource()\l+ getMessage()\l+ setMessage()\l+ getTransportFactory()\l+ getNumberOfMessages()\l# do_allocate()\l# do_deallocate()\l# do_is_equal()\l}">
<polygon fill="none" stroke="#000000" points="234.5,-248.5 234.5,-437.5 371.5,-437.5 371.5,-248.5 234.5,-248.5"/>
<text text-anchor="middle" x="303" y="-425.5" font-family="Helvetica,sans-Serif" font-size="10.00" fill="#000000">o2::pmr::MessageResource</text>
<polyline fill="none" stroke="#000000" points="234.5,-418.5 371.5,-418.5 "/>
<text text-anchor="middle" x="303" y="-406.5" font-family="Helvetica,sans-Serif" font-size="10.00" fill="#000000"> </text>
<polyline fill="none" stroke="#000000" points="234.5,-399.5 371.5,-399.5 "/>
<text text-anchor="start" x="242.5" y="-387.5" font-family="Helvetica,sans-Serif" font-size="10.00" fill="#000000">+ MessageResource()</text>
<text text-anchor="start" x="242.5" y="-376.5" font-family="Helvetica,sans-Serif" font-size="10.00" fill="#000000">+ MessageResource()</text>
<text text-anchor="start" x="242.5" y="-365.5" font-family="Helvetica,sans-Serif" font-size="10.00" fill="#000000">+ MessageResource()</text>
<text text-anchor="start" x="242.5" y="-354.5" font-family="Helvetica,sans-Serif" font-size="10.00" fill="#000000">+ operator=()</text>
<text text-anchor="start" x="242.5" y="-343.5" font-family="Helvetica,sans-Serif" font-size="10.00" fill="#000000">+ operator=()</text>
<text text-anchor="start" x="242.5" y="-332.5" font-family="Helvetica,sans-Serif" font-size="10.00" fill="#000000">+ MessageResource()</text>
<text text-anchor="start" x="242.5" y="-321.5" font-family="Helvetica,sans-Serif" font-size="10.00" fill="#000000">+ getMessage()</text>
<text text-anchor="start" x="242.5" y="-310.5" font-family="Helvetica,sans-Serif" font-size="10.00" fill="#000000">+ setMessage()</text>
<text text-anchor="start" x="242.5" y="-299.5" font-family="Helvetica,sans-Serif" font-size="10.00" fill="#000000">+ getTransportFactory()</text>
<text text-anchor="start" x="242.5" y="-288.5" font-family="Helvetica,sans-Serif" font-size="10.00" fill="#000000">+ getNumberOfMessages()</text>
<text text-anchor="start" x="242.5" y="-277.5" font-family="Helvetica,sans-Serif" font-size="10.00" fill="#000000"># do_allocate()</text>
<text text-anchor="start" x="242.5" y="-266.5" font-family="Helvetica,sans-Serif" font-size="10.00" fill="#000000"># do_deallocate()</text>
<text text-anchor="start" x="242.5" y="-255.5" font-family="Helvetica,sans-Serif" font-size="10.00" fill="#000000"># do_is_equal()</text>
</a>
</g>
</g>
<!-- Node2&#45;&gt;Node1 -->
<g id="edge1" class="edge">
<title>Node2&#45;&gt;Node1</title>
<path fill="none" stroke="#404040" d="M303,-248.2013C303,-236.666 303,-224.7949 303,-213.0338"/>
<polygon fill="none" stroke="#404040" points="303.0001,-212.8359 299,-206.8359 303,-200.8359 307,-206.8359 303.0001,-212.8359"/>
<text text-anchor="middle" x="333" y="-222" font-family="Helvetica,sans-Serif" font-size="10.00" fill="#000000"> +mResource</text>
</g>
<!-- Node3 -->
<g id="node3" class="node">
<title>Node3</title>
<g id="a_node3"><a xlink:href="../../d0/d9f/classFairMQMemoryResource.html" target="_top" xlink:title="{FairMQMemoryResource\n||}">
<polygon fill="none" stroke="#000000" points="0,-485.5 0,-542.5 126,-542.5 126,-485.5 0,-485.5"/>
<text text-anchor="middle" x="63" y="-530.5" font-family="Helvetica,sans-Serif" font-size="10.00" fill="#000000">FairMQMemoryResource</text>
<polyline fill="none" stroke="#000000" points="0,-523.5 126,-523.5 "/>
<text text-anchor="middle" x="63" y="-511.5" font-family="Helvetica,sans-Serif" font-size="10.00" fill="#000000"> </text>
<polyline fill="none" stroke="#000000" points="0,-504.5 126,-504.5 "/>
<text text-anchor="middle" x="63" y="-492.5" font-family="Helvetica,sans-Serif" font-size="10.00" fill="#000000"> </text>
</a>
</g>
</g>
<!-- Node3&#45;&gt;Node2 -->
<g id="edge2" class="edge">
<title>Node3&#45;&gt;Node2</title>
<path fill="none" stroke="#191970" d="M111.408,-479.5093C146.7527,-454.3262 195.1589,-419.8368 234.4716,-391.8265"/>
<polygon fill="none" stroke="#191970" points="109.2839,-476.7252 103.1706,-485.3784 113.3458,-482.4261 109.2839,-476.7252"/>
</g>
<!-- Node4 -->
<g id="node4" class="node">
<title>Node4</title>
<polygon fill="none" stroke="#bfbfbf" points="144.5,-485.5 144.5,-542.5 277.5,-542.5 277.5,-485.5 144.5,-485.5"/>
<text text-anchor="middle" x="211" y="-530.5" font-family="Helvetica,sans-Serif" font-size="10.00" fill="#000000">FairMQMemoryResource *</text>
<polyline fill="none" stroke="#bfbfbf" points="144.5,-523.5 277.5,-523.5 "/>
<text text-anchor="middle" x="211" y="-511.5" font-family="Helvetica,sans-Serif" font-size="10.00" fill="#000000"> </text>
<polyline fill="none" stroke="#bfbfbf" points="144.5,-504.5 277.5,-504.5 "/>
<text text-anchor="middle" x="211" y="-492.5" font-family="Helvetica,sans-Serif" font-size="10.00" fill="#000000"> </text>
</g>
<!-- Node4&#45;&gt;Node2 -->
<g id="edge3" class="edge">
<title>Node4&#45;&gt;Node2</title>
<path fill="none" stroke="#404040" d="M224.3035,-485.4944C228.8362,-476.0419 234.019,-465.5085 239,-456 240.3241,-453.4723 241.6737,-450.9184 243.0431,-448.347"/>
<polygon fill="none" stroke="#404040" points="243.0854,-448.2683 242.4043,-441.0894 248.7691,-437.6997 249.4501,-444.8785 243.0854,-448.2683"/>
<text text-anchor="middle" x="269" y="-459" font-family="Helvetica,sans-Serif" font-size="10.00" fill="#000000"> #mUpstream</text>
</g>
<!-- Node5 -->
<g id="node5" class="node">
<title>Node5</title>
<polygon fill="none" stroke="#bfbfbf" points="295.5,-485.5 295.5,-542.5 330.5,-542.5 330.5,-485.5 295.5,-485.5"/>
<text text-anchor="middle" x="313" y="-530.5" font-family="Helvetica,sans-Serif" font-size="10.00" fill="#000000">bool</text>
<polyline fill="none" stroke="#bfbfbf" points="295.5,-523.5 330.5,-523.5 "/>
<text text-anchor="middle" x="313" y="-511.5" font-family="Helvetica,sans-Serif" font-size="10.00" fill="#000000"> </text>
<polyline fill="none" stroke="#bfbfbf" points="295.5,-504.5 330.5,-504.5 "/>
<text text-anchor="middle" x="313" y="-492.5" font-family="Helvetica,sans-Serif" font-size="10.00" fill="#000000"> </text>
</g>
<!-- Node5&#45;&gt;Node2 -->
<g id="edge4" class="edge">
<title>Node5&#45;&gt;Node2</title>
<path fill="none" stroke="#404040" d="M306.6482,-485.2875C305.5586,-479.2747 304.589,-472.9527 304,-467 303.4399,-461.3394 302.9847,-455.5264 302.6188,-449.6527"/>
<polygon fill="none" stroke="#404040" points="302.6122,-449.5241 298.3056,-443.7403 301.9881,-437.5404 306.2948,-443.3242 302.6122,-449.5241"/>
<text text-anchor="middle" x="333.5" y="-459" font-family="Helvetica,sans-Serif" font-size="10.00" fill="#000000"> #initialImport</text>
</g>
<!-- Node6 -->
<g id="node6" class="node">
<title>Node6</title>
<polygon fill="none" stroke="#bfbfbf" points="364.5,-485.5 364.5,-542.5 405.5,-542.5 405.5,-485.5 364.5,-485.5"/>
<text text-anchor="middle" x="385" y="-530.5" font-family="Helvetica,sans-Serif" font-size="10.00" fill="#000000">void *</text>
<polyline fill="none" stroke="#bfbfbf" points="364.5,-523.5 405.5,-523.5 "/>
<text text-anchor="middle" x="385" y="-511.5" font-family="Helvetica,sans-Serif" font-size="10.00" fill="#000000"> </text>
<polyline fill="none" stroke="#bfbfbf" points="364.5,-504.5 405.5,-504.5 "/>
<text text-anchor="middle" x="385" y="-492.5" font-family="Helvetica,sans-Serif" font-size="10.00" fill="#000000"> </text>
</g>
<!-- Node6&#45;&gt;Node2 -->
<g id="edge5" class="edge">
<title>Node6&#45;&gt;Node2</title>
<path fill="none" stroke="#404040" d="M374.9601,-485.3878C371.4262,-475.9282 367.266,-465.4176 363,-456 361.883,-453.5341 360.7364,-451.0469 359.5654,-448.546"/>
<polygon fill="none" stroke="#404040" points="359.4684,-448.3428 353.2716,-444.6549 354.2925,-437.5164 360.4893,-441.2043 359.4684,-448.3428"/>
<text text-anchor="middle" x="406" y="-459" font-family="Helvetica,sans-Serif" font-size="10.00" fill="#000000"> #mMessageData</text>
</g>
<!-- Node7 -->
<g id="node7" class="node">
<title>Node7</title>
<polygon fill="none" stroke="#bfbfbf" points="464.5,-485.5 464.5,-542.5 507.5,-542.5 507.5,-485.5 464.5,-485.5"/>
<text text-anchor="middle" x="486" y="-530.5" font-family="Helvetica,sans-Serif" font-size="10.00" fill="#000000">size_t</text>
<polyline fill="none" stroke="#bfbfbf" points="464.5,-523.5 507.5,-523.5 "/>
<text text-anchor="middle" x="486" y="-511.5" font-family="Helvetica,sans-Serif" font-size="10.00" fill="#000000"> </text>
<polyline fill="none" stroke="#bfbfbf" points="464.5,-504.5 507.5,-504.5 "/>
<text text-anchor="middle" x="486" y="-492.5" font-family="Helvetica,sans-Serif" font-size="10.00" fill="#000000"> </text>
</g>
<!-- Node7&#45;&gt;Node2 -->
<g id="edge6" class="edge">
<title>Node7&#45;&gt;Node2</title>
<path fill="none" stroke="#404040" d="M470.4982,-485.4621C464.461,-475.5998 457.0535,-464.8203 449,-456 429.1438,-434.2533 404.7351,-413.5614 381.5991,-395.9682"/>
<polygon fill="none" stroke="#404040" points="381.3885,-395.8107 374.1879,-395.4207 371.7785,-388.624 378.9791,-389.014 381.3885,-395.8107"/>
<text text-anchor="middle" x="495" y="-459" font-family="Helvetica,sans-Serif" font-size="10.00" fill="#000000"> #mMessageSize</text>
</g>
</g>
</svg>
