<?xml version="1.0" encoding="UTF-8" standalone="no"?>
<!DOCTYPE svg PUBLIC "-//W3C//DTD SVG 1.1//EN"
 "http://www.w3.org/Graphics/SVG/1.1/DTD/svg11.dtd">
<!-- Generated by graphviz version 2.40.1 (20161225.0304)
 -->
<!-- Title: o2::its::ClusterLines Pages: 1 -->
<!--zoomable 281 -->
<svg id="main" version="1.1" xmlns="http://www.w3.org/2000/svg" xmlns:xlink="http://www.w3.org/1999/xlink" xml:space="preserve" onload="init(evt)">
<style type="text/css"><![CDATA[
.edge:hover path { stroke: red; }
.edge:hover polygon { stroke: red; fill: red; }
]]></style>
<script type="text/javascript"><![CDATA[
var edges = document.getElementsByTagName('g');
if (edges && edges.length) {
  for (var i=0;i<edges.length;i++) {
    if (edges[i].id.substr(0,4)=='edge') {
      edges[i].setAttribute('class','edge');
    }
  }
}
]]></script>
        <defs>
                <circle id="rim" cx="0" cy="0" r="7"/>
                <circle id="rim2" cx="0" cy="0" r="3.5"/>
                <g id="zoomPlus">
                        <use xlink:href="#rim" fill="#404040">
                                <set attributeName="fill" to="#808080" begin="zoomplus.mouseover" end="zoomplus.mouseout"/>
                        </use>
                        <path d="M-4,0h8M0,-4v8" fill="none" stroke="white" stroke-width="1.5" pointer-events="none"/>
                </g>
                <g id="zoomMin">
                        <use xlink:href="#rim" fill="#404040">
                                <set attributeName="fill" to="#808080" begin="zoomminus.mouseover" end="zoomminus.mouseout"/>
                        </use>
                        <path d="M-4,0h8" fill="none" stroke="white" stroke-width="1.5" pointer-events="none"/>
                </g>
                <g id="dirArrow">
                        <path fill="none" stroke="white" stroke-width="1.5" d="M0,-3.0v7 M-2.5,-0.5L0,-3.0L2.5,-0.5"/>
                </g>
               <g id="resetDef">
                       <use xlink:href="#rim2" fill="#404040">
                               <set attributeName="fill" to="#808080" begin="reset.mouseover" end="reset.mouseout"/>
                       </use>
               </g>
        </defs>

<script type="text/javascript">
var viewWidth = 509;
var viewHeight = 281;
var sectionId = 'dynsection-0';
</script>
<script xlink:href="../../svgpan.js"/>
<svg id="graph" class="graph">
<g id="viewport">
<title>o2::its::ClusterLines</title>
<!-- Node1 -->
<g id="node1" class="node">
<title>Node1</title>
<polygon fill="#bfbfbf" stroke="#000000" points="176.5,-.5 176.5,-145.5 313.5,-145.5 313.5,-.5 176.5,-.5"/>
<text text-anchor="middle" x="245" y="-133.5" font-family="Helvetica,sans-Serif" font-size="10.00" fill="#000000">o2::its::ClusterLines</text>
<polyline fill="none" stroke="#000000" points="176.5,-126.5 313.5,-126.5 "/>
<text text-anchor="middle" x="245" y="-114.5" font-family="Helvetica,sans-Serif" font-size="10.00" fill="#000000"> </text>
<polyline fill="none" stroke="#000000" points="176.5,-107.5 313.5,-107.5 "/>
<text text-anchor="start" x="184.5" y="-95.5" font-family="Helvetica,sans-Serif" font-size="10.00" fill="#000000">+ ClusterLines()</text>
<text text-anchor="start" x="184.5" y="-84.5" font-family="Helvetica,sans-Serif" font-size="10.00" fill="#000000">+ ClusterLines()</text>
<text text-anchor="start" x="184.5" y="-73.5" font-family="Helvetica,sans-Serif" font-size="10.00" fill="#000000">+ add()</text>
<text text-anchor="start" x="184.5" y="-62.5" font-family="Helvetica,sans-Serif" font-size="10.00" fill="#000000">+ computeClusterCentroid()</text>
<text text-anchor="start" x="184.5" y="-51.5" font-family="Helvetica,sans-Serif" font-size="10.00" fill="#000000">+ getLabels()</text>
<text text-anchor="start" x="184.5" y="-40.5" font-family="Helvetica,sans-Serif" font-size="10.00" fill="#000000">+ getSize()</text>
<text text-anchor="start" x="184.5" y="-29.5" font-family="Helvetica,sans-Serif" font-size="10.00" fill="#000000">+ getVertex()</text>
<text text-anchor="start" x="184.5" y="-18.5" font-family="Helvetica,sans-Serif" font-size="10.00" fill="#000000">+ getRMS2()</text>
<text text-anchor="start" x="184.5" y="-7.5" font-family="Helvetica,sans-Serif" font-size="10.00" fill="#000000">+ getAvgDistance2()</text>
</g>
<!-- Node2 -->
<g id="node2" class="node">
<title>Node2</title>
<polygon fill="none" stroke="#bfbfbf" points="0,-215.5 0,-272.5 86,-272.5 86,-215.5 0,-215.5"/>
<text text-anchor="middle" x="43" y="-260.5" font-family="Helvetica,sans-Serif" font-size="10.00" fill="#000000">array&lt; float, 6 &gt;</text>
<polyline fill="none" stroke="#bfbfbf" points="0,-253.5 86,-253.5 "/>
<text text-anchor="middle" x="43" y="-241.5" font-family="Helvetica,sans-Serif" font-size="10.00" fill="#000000"> </text>
<polyline fill="none" stroke="#bfbfbf" points="0,-234.5 86,-234.5 "/>
<text text-anchor="middle" x="43" y="-222.5" font-family="Helvetica,sans-Serif" font-size="10.00" fill="#000000"> </text>
</g>
<!-- Node2&#45;&gt;Node1 -->
<g id="edge1" class="edge">
<title>Node2&#45;&gt;Node1</title>
<path fill="none" stroke="#404040" d="M60.3897,-215.3054C71.1029,-199.0739 85.8529,-179.0739 102,-164 121.0339,-146.2312 143.9944,-129.8738 165.8931,-116.0751"/>
<polygon fill="none" stroke="#404040" points="165.9855,-116.0181 168.991,-109.4631 176.1977,-109.7162 173.1922,-116.2712 165.9855,-116.0181"/>
<text text-anchor="middle" x="126" y="-183.5" font-family="Helvetica,sans-Serif" font-size="10.00" fill="#000000"> #mRMS2</text>
<text text-anchor="middle" x="126" y="-172.5" font-family="Helvetica,sans-Serif" font-size="10.00" fill="#000000">#mAMatrix</text>
</g>
<!-- Node3 -->
<g id="node3" class="node">
<title>Node3</title>
<polygon fill="none" stroke="#bfbfbf" points="104,-215.5 104,-272.5 190,-272.5 190,-215.5 104,-215.5"/>
<text text-anchor="middle" x="147" y="-260.5" font-family="Helvetica,sans-Serif" font-size="10.00" fill="#000000">array&lt; float, 9 &gt;</text>
<polyline fill="none" stroke="#bfbfbf" points="104,-253.5 190,-253.5 "/>
<text text-anchor="middle" x="147" y="-241.5" font-family="Helvetica,sans-Serif" font-size="10.00" fill="#000000"> </text>
<polyline fill="none" stroke="#bfbfbf" points="104,-234.5 190,-234.5 "/>
<text text-anchor="middle" x="147" y="-222.5" font-family="Helvetica,sans-Serif" font-size="10.00" fill="#000000"> </text>
</g>
<!-- Node3&#45;&gt;Node1 -->
<g id="edge2" class="edge">
<title>Node3&#45;&gt;Node1</title>
<path fill="none" stroke="#404040" d="M150.3705,-215.4431C153.0581,-199.6332 157.7891,-180.0033 166,-164 167.3998,-161.2718 168.8982,-158.5578 170.4794,-155.8652"/>
<polygon fill="none" stroke="#404040" points="170.5519,-155.7502 170.3704,-148.5414 176.955,-145.6013 177.1364,-152.8101 170.5519,-155.7502"/>
<text text-anchor="middle" x="203.5" y="-178" font-family="Helvetica,sans-Serif" font-size="10.00" fill="#000000"> #mWeightMatrix</text>
</g>
<!-- Node4 -->
<g id="node4" class="node">
<title>Node4</title>
<g id="a_node4"><a xlink:href="../../d4/dc3/classfloat.html" target="_top" xlink:title="{float\n||}">
<polygon fill="none" stroke="#000000" points="227.5,-215.5 227.5,-272.5 262.5,-272.5 262.5,-215.5 227.5,-215.5"/>
<text text-anchor="middle" x="245" y="-260.5" font-family="Helvetica,sans-Serif" font-size="10.00" fill="#000000">float</text>
<polyline fill="none" stroke="#000000" points="227.5,-253.5 262.5,-253.5 "/>
<text text-anchor="middle" x="245" y="-241.5" font-family="Helvetica,sans-Serif" font-size="10.00" fill="#000000"> </text>
<polyline fill="none" stroke="#000000" points="227.5,-234.5 262.5,-234.5 "/>
<text text-anchor="middle" x="245" y="-222.5" font-family="Helvetica,sans-Serif" font-size="10.00" fill="#000000"> </text>
</a>
</g>
</g>
<!-- Node4&#45;&gt;Node1 -->
<g id="edge3" class="edge">
<title>Node4&#45;&gt;Node1</title>
<path fill="none" stroke="#404040" d="M245,-215.3784C245,-199.4032 245,-178.5796 245,-157.8103"/>
<polygon fill="none" stroke="#404040" points="245.0001,-157.625 241,-151.625 245,-145.625 249,-151.6249 245.0001,-157.625"/>
<text text-anchor="middle" x="284.5" y="-178" font-family="Helvetica,sans-Serif" font-size="10.00" fill="#000000"> #mAvgDistance2</text>
</g>
<!-- Node5 -->
<g id="node5" class="node">
<title>Node5</title>
<polygon fill="none" stroke="#bfbfbf" points="311,-215.5 311,-272.5 383,-272.5 383,-215.5 311,-215.5"/>
<text text-anchor="middle" x="347" y="-260.5" font-family="Helvetica,sans-Serif" font-size="10.00" fill="#000000">vector&lt; int &gt;</text>
<polyline fill="none" stroke="#bfbfbf" points="311,-253.5 383,-253.5 "/>
<text text-anchor="middle" x="347" y="-241.5" font-family="Helvetica,sans-Serif" font-size="10.00" fill="#000000"> </text>
<polyline fill="none" stroke="#bfbfbf" points="311,-234.5 383,-234.5 "/>
<text text-anchor="middle" x="347" y="-222.5" font-family="Helvetica,sans-Serif" font-size="10.00" fill="#000000"> </text>
</g>
<!-- Node5&#45;&gt;Node1 -->
<g id="edge4" class="edge">
<title>Node5&#45;&gt;Node1</title>
<path fill="none" stroke="#404040" d="M342.4092,-215.4198C339.082,-199.6026 333.6179,-179.9732 325,-164 323.5361,-161.2867 321.9776,-158.5858 320.3402,-155.9047"/>
<polygon fill="none" stroke="#404040" points="320.2244,-155.7273 313.5954,-152.8889 313.6659,-145.6781 320.2949,-148.5166 320.2244,-155.7273"/>
<text text-anchor="middle" x="360" y="-178" font-family="Helvetica,sans-Serif" font-size="10.00" fill="#000000"> #mLabels</text>
</g>
<!-- Node6 -->
<g id="node6" class="node">
<title>Node6</title>
<polygon fill="none" stroke="#bfbfbf" points="401,-215.5 401,-272.5 487,-272.5 487,-215.5 401,-215.5"/>
<text text-anchor="middle" x="444" y="-260.5" font-family="Helvetica,sans-Serif" font-size="10.00" fill="#000000">array&lt; float, 3 &gt;</text>
<polyline fill="none" stroke="#bfbfbf" points="401,-253.5 487,-253.5 "/>
<text text-anchor="middle" x="444" y="-241.5" font-family="Helvetica,sans-Serif" font-size="10.00" fill="#000000"> </text>
<polyline fill="none" stroke="#bfbfbf" points="401,-234.5 487,-234.5 "/>
<text text-anchor="middle" x="444" y="-222.5" font-family="Helvetica,sans-Serif" font-size="10.00" fill="#000000"> </text>
</g>
<!-- Node6&#45;&gt;Node1 -->
<g id="edge5" class="edge">
<title>Node6&#45;&gt;Node1</title>
<path fill="none" stroke="#404040" d="M427.3574,-215.2885C417.0599,-199.0513 402.8099,-179.0513 387,-164 368.3262,-146.2222 345.6984,-129.908 324.0461,-116.1537"/>
<polygon fill="none" stroke="#404040" points="324.0428,-116.1517 316.8353,-116.3808 313.8517,-109.8159 321.0592,-109.5868 324.0428,-116.1517"/>
<text text-anchor="middle" x="457.5" y="-189" font-family="Helvetica,sans-Serif" font-size="10.00" fill="#000000"> #mVertex</text>
<text text-anchor="middle" x="457.5" y="-178" font-family="Helvetica,sans-Serif" font-size="10.00" fill="#000000">#mVertexCandidate</text>
<text text-anchor="middle" x="457.5" y="-167" font-family="Helvetica,sans-Serif" font-size="10.00" fill="#000000">#mBMatrix</text>
</g>
</g>
</svg>
        <g id="navigator" transform="translate(0 0)" fill="#404254">
                <rect fill="#f2f5e9" fill-opacity="0.5" stroke="#606060" stroke-width=".5" x="0" y="0" width="60" height="60"/>
                <use id="zoomplus" xlink:href="#zoomPlus" x="17" y="9" onmousedown="handleZoom(evt,'in')"/>
                <use id="zoomminus" xlink:href="#zoomMin" x="42" y="9" onmousedown="handleZoom(evt,'out')"/>
                <use id="reset" xlink:href="#resetDef" x="30" y="36" onmousedown="handleReset()"/>
                <g id="arrowUp" xlink:href="#dirArrow" transform="translate(30 24)" onmousedown="handlePan(0,-1)">
                  <use xlink:href="#rim" fill="#404040">
                        <set attributeName="fill" to="#808080" begin="arrowUp.mouseover" end="arrowUp.mouseout"/>
                  </use>
                  <path fill="none" stroke="white" stroke-width="1.5" d="M0,-3.0v7 M-2.5,-0.5L0,-3.0L2.5,-0.5"/>
                </g>
                <g id="arrowRight" xlink:href="#dirArrow" transform="rotate(90) translate(36 -43)" onmousedown="handlePan(1,0)">
                  <use xlink:href="#rim" fill="#404040">
                        <set attributeName="fill" to="#808080" begin="arrowRight.mouseover" end="arrowRight.mouseout"/>
                  </use>
                  <path fill="none" stroke="white" stroke-width="1.5" d="M0,-3.0v7 M-2.5,-0.5L0,-3.0L2.5,-0.5"/>
                </g>
                <g id="arrowDown" xlink:href="#dirArrow" transform="rotate(180) translate(-30 -48)" onmousedown="handlePan(0,1)">
                  <use xlink:href="#rim" fill="#404040">
                        <set attributeName="fill" to="#808080" begin="arrowDown.mouseover" end="arrowDown.mouseout"/>
                  </use>
                  <path fill="none" stroke="white" stroke-width="1.5" d="M0,-3.0v7 M-2.5,-0.5L0,-3.0L2.5,-0.5"/>
                </g>
                <g id="arrowLeft" xlink:href="#dirArrow" transform="rotate(270) translate(-36 17)" onmousedown="handlePan(-1,0)">
                  <use xlink:href="#rim" fill="#404040">
                        <set attributeName="fill" to="#808080" begin="arrowLeft.mouseover" end="arrowLeft.mouseout"/>
                  </use>
                  <path fill="none" stroke="white" stroke-width="1.5" d="M0,-3.0v7 M-2.5,-0.5L0,-3.0L2.5,-0.5"/>
                </g>
        </g>
        <svg viewBox="0 0 15 15" width="100%" height="30px" preserveAspectRatio="xMaxYMin meet">
         <g id="arrow_out" transform="scale(0.3 0.3)">
          <a xlink:href="classo2_1_1its_1_1ClusterLines__coll__graph_org.svg" target="_base">
           <rect id="button" ry="5" rx="5" y="6" x="6" height="38" width="38"
                fill="#f2f5e9" fill-opacity="0.5" stroke="#606060" stroke-width="1.0"/>
           <path id="arrow"
             d="M 11.500037,31.436501 C 11.940474,20.09759 22.043105,11.32322 32.158766,21.979434 L 37.068811,17.246167 C 37.068811,17.246167 37.088388,32 37.088388,32 L 22.160133,31.978069 C 22.160133,31.978069 26.997745,27.140456 26.997745,27.140456 C 18.528582,18.264221 13.291696,25.230495 11.500037,31.436501 z"
             style="fill:#404040;"/>
          </a>
         </g>
        </svg>
</svg>
