<?xml version="1.0" encoding="UTF-8" standalone="no"?>
<!DOCTYPE svg PUBLIC "-//W3C//DTD SVG 1.1//EN"
 "http://www.w3.org/Graphics/SVG/1.1/DTD/svg11.dtd">
<!-- Generated by graphviz version 2.40.1 (20161225.0304)
 -->
<!-- Title: /home/runner/work/AliceO2/AliceO2/Steer/src/InteractionSampler.cxx Pages: 1 -->
<svg width="985pt" height="285pt"
 viewBox="0.00 0.00 985.00 285.00" xmlns="http://www.w3.org/2000/svg" xmlns:xlink="http://www.w3.org/1999/xlink">
<g id="graph0" class="graph" transform="scale(1 1) rotate(0) translate(4 281)">
<title>/home/runner/work/AliceO2/AliceO2/Steer/src/InteractionSampler.cxx</title>
<!-- Node0 -->
<g id="node1" class="node">
<title>Node0</title>
<polygon fill="#bfbfbf" stroke="#000000" points="391,-235.5 391,-276.5 537,-276.5 537,-235.5 391,-235.5"/>
<text text-anchor="start" x="399" y="-264.5" font-family="Helvetica,sans-Serif" font-size="10.00" fill="#000000">/home/runner/work/AliceO2</text>
<text text-anchor="start" x="399" y="-253.5" font-family="Helvetica,sans-Serif" font-size="10.00" fill="#000000">/AliceO2/Steer/src/Interaction</text>
<text text-anchor="middle" x="464" y="-242.5" font-family="Helvetica,sans-Serif" font-size="10.00" fill="#000000">Sampler.cxx</text>
</g>
<!-- Node1 -->
<g id="node2" class="node">
<title>Node1</title>
<g id="a_node2"><a xlink:href="../../df/dff/InteractionSampler_8h.html" target="_top" xlink:title="Steer/InteractionSampler.h">
<polygon fill="none" stroke="#000000" points="337.5,-179.5 337.5,-198.5 470.5,-198.5 470.5,-179.5 337.5,-179.5"/>
<text text-anchor="middle" x="404" y="-186.5" font-family="Helvetica,sans-Serif" font-size="10.00" fill="#000000">Steer/InteractionSampler.h</text>
</a>
</g>
</g>
<!-- Node0&#45;&gt;Node1 -->
<g id="edge1" class="edge">
<title>Node0&#45;&gt;Node1</title>
<path fill="none" stroke="#191970" d="M445.3445,-235.168C437.1066,-225.9691 427.5304,-215.2756 419.6697,-206.4979"/>
<polygon fill="#191970" stroke="#191970" points="422.0372,-203.8951 412.7586,-198.7805 416.8225,-208.5649 422.0372,-203.8951"/>
</g>
<!-- Node20 -->
<g id="node21" class="node">
<title>Node20</title>
<polygon fill="none" stroke="#bfbfbf" points="488.5,-179.5 488.5,-198.5 559.5,-198.5 559.5,-179.5 488.5,-179.5"/>
<text text-anchor="middle" x="524" y="-186.5" font-family="Helvetica,sans-Serif" font-size="10.00" fill="#000000">FairLogger.h</text>
</g>
<!-- Node0&#45;&gt;Node20 -->
<g id="edge24" class="edge">
<title>Node0&#45;&gt;Node20</title>
<path fill="none" stroke="#191970" d="M482.6555,-235.168C490.8934,-225.9691 500.4696,-215.2756 508.3303,-206.4979"/>
<polygon fill="#191970" stroke="#191970" points="511.1775,-208.5649 515.2414,-198.7805 505.9628,-203.8951 511.1775,-208.5649"/>
</g>
<!-- Node2 -->
<g id="node3" class="node">
<title>Node2</title>
<polygon fill="none" stroke="#bfbfbf" points="0,-.5 0,-19.5 56,-19.5 56,-.5 0,-.5"/>
<text text-anchor="middle" x="28" y="-7.5" font-family="Helvetica,sans-Serif" font-size="10.00" fill="#000000">Rtypes.h</text>
</g>
<!-- Node1&#45;&gt;Node2 -->
<g id="edge2" class="edge">
<title>Node1&#45;&gt;Node2</title>
<path fill="none" stroke="#191970" d="M337.2821,-182.4158C261.4555,-174.3129 142.7931,-159.5749 101,-143 52.2951,-123.6838 28.342,-122.3978 4,-76 -4.1,-60.5607 4.3378,-41.7762 13.3651,-28.2012"/>
<polygon fill="#191970" stroke="#191970" points="16.466,-29.8878 19.5129,-19.7406 10.8031,-25.7729 16.466,-29.8878"/>
</g>
<!-- Node3 -->
<g id="node4" class="node">
<title>Node3</title>
<polygon fill="none" stroke="#bfbfbf" points="110.5,-118 110.5,-137 163.5,-137 163.5,-118 110.5,-118"/>
<text text-anchor="middle" x="137" y="-125" font-family="Helvetica,sans-Serif" font-size="10.00" fill="#000000">TMath.h</text>
</g>
<!-- Node1&#45;&gt;Node3 -->
<g id="edge3" class="edge">
<title>Node1&#45;&gt;Node3</title>
<path fill="none" stroke="#191970" d="M337.2699,-179.7828C290.3688,-172.3371 226.517,-160.2422 172,-143 170.0991,-142.3988 168.1631,-141.7257 166.2263,-141.0057"/>
<polygon fill="#191970" stroke="#191970" points="167.2766,-137.6546 156.6947,-137.1318 164.6409,-144.1394 167.2766,-137.6546"/>
</g>
<!-- Node4 -->
<g id="node5" class="node">
<title>Node4</title>
<polygon fill="none" stroke="#bfbfbf" points="653,-56.5 653,-75.5 721,-75.5 721,-56.5 653,-56.5"/>
<text text-anchor="middle" x="687" y="-63.5" font-family="Helvetica,sans-Serif" font-size="10.00" fill="#000000">TRandom.h</text>
</g>
<!-- Node1&#45;&gt;Node4 -->
<g id="edge4" class="edge">
<title>Node1&#45;&gt;Node4</title>
<path fill="none" stroke="#191970" d="M469.2335,-179.4803C535.6614,-169.3226 630.8672,-153.305 645,-143 664.3484,-128.892 675.7743,-103.0618 681.7101,-85.2341"/>
<polygon fill="#191970" stroke="#191970" points="685.0857,-86.1637 684.6538,-75.5777 678.3899,-84.1225 685.0857,-86.1637"/>
</g>
<!-- Node5 -->
<g id="node6" class="node">
<title>Node5</title>
<polygon fill="none" stroke="#bfbfbf" points="357,-118 357,-137 401,-137 401,-118 357,-118"/>
<text text-anchor="middle" x="379" y="-125" font-family="Helvetica,sans-Serif" font-size="10.00" fill="#000000">vector</text>
</g>
<!-- Node1&#45;&gt;Node5 -->
<g id="edge5" class="edge">
<title>Node1&#45;&gt;Node5</title>
<path fill="none" stroke="#191970" d="M400.0938,-179.3906C396.5554,-170.6862 391.2364,-157.6015 386.825,-146.7494"/>
<polygon fill="#191970" stroke="#191970" points="389.9695,-145.1907 382.9613,-137.2449 383.4848,-147.8268 389.9695,-145.1907"/>
</g>
<!-- Node6 -->
<g id="node7" class="node">
<title>Node6</title>
<g id="a_node7"><a xlink:href="../../d9/d80/InteractionRecord_8h.html" target="_top" xlink:title="CommonDataFormat/Interaction\lRecord.h">
<polygon fill="none" stroke="#000000" points="181.5,-112.5 181.5,-142.5 338.5,-142.5 338.5,-112.5 181.5,-112.5"/>
<text text-anchor="start" x="189.5" y="-130.5" font-family="Helvetica,sans-Serif" font-size="10.00" fill="#000000">CommonDataFormat/Interaction</text>
<text text-anchor="middle" x="260" y="-119.5" font-family="Helvetica,sans-Serif" font-size="10.00" fill="#000000">Record.h</text>
</a>
</g>
</g>
<!-- Node1&#45;&gt;Node6 -->
<g id="edge6" class="edge">
<title>Node1&#45;&gt;Node6</title>
<path fill="none" stroke="#191970" d="M381.5,-179.3906C361.0189,-170.6435 330.1803,-157.4728 304.6978,-146.5897"/>
<polygon fill="#191970" stroke="#191970" points="305.7975,-143.2535 295.2264,-142.5446 303.0481,-149.691 305.7975,-143.2535"/>
</g>
<!-- Node11 -->
<g id="node12" class="node">
<title>Node11</title>
<g id="a_node12"><a xlink:href="../../d4/dc6/LHCConstants_8h.html" target="_top" xlink:title="Header to collect LHC related constants. ">
<polygon fill="none" stroke="#000000" points="339,-56.5 339,-75.5 517,-75.5 517,-56.5 339,-56.5"/>
<text text-anchor="middle" x="428" y="-63.5" font-family="Helvetica,sans-Serif" font-size="10.00" fill="#000000">CommonConstants/LHCConstants.h</text>
</a>
</g>
</g>
<!-- Node1&#45;&gt;Node11 -->
<g id="edge17" class="edge">
<title>Node1&#45;&gt;Node11</title>
<path fill="none" stroke="#191970" d="M405.8832,-179.3484C409.8089,-159.2295 418.9345,-112.4608 424.1542,-85.7098"/>
<polygon fill="#191970" stroke="#191970" points="427.6455,-86.092 426.1255,-75.6068 420.7751,-84.7514 427.6455,-86.092"/>
</g>
<!-- Node12 -->
<g id="node13" class="node">
<title>Node12</title>
<g id="a_node13"><a xlink:href="../../d4/d5f/BunchFilling_8h.html" target="_top" xlink:title="CommonDataFormat/BunchFilling.h">
<polygon fill="none" stroke="#000000" points="463.5,-118 463.5,-137 636.5,-137 636.5,-118 463.5,-118"/>
<text text-anchor="middle" x="550" y="-125" font-family="Helvetica,sans-Serif" font-size="10.00" fill="#000000">CommonDataFormat/BunchFilling.h</text>
</a>
</g>
</g>
<!-- Node1&#45;&gt;Node12 -->
<g id="edge13" class="edge">
<title>Node1&#45;&gt;Node12</title>
<path fill="none" stroke="#191970" d="M426.8125,-179.3906C451.3481,-169.0554 490.5442,-152.5447 518.1211,-140.9284"/>
<polygon fill="#191970" stroke="#191970" points="519.4906,-144.1495 527.3477,-137.0419 516.7732,-137.6984 519.4906,-144.1495"/>
</g>
<!-- Node15 -->
<g id="node16" class="node">
<title>Node15</title>
<g id="a_node16"><a xlink:href="../../db/dac/RandomRing_8h.html" target="_top" xlink:title="MathUtils/RandomRing.h">
<polygon fill="none" stroke="#000000" points="699.5,-118 699.5,-137 826.5,-137 826.5,-118 699.5,-118"/>
<text text-anchor="middle" x="763" y="-125" font-family="Helvetica,sans-Serif" font-size="10.00" fill="#000000">MathUtils/RandomRing.h</text>
</a>
</g>
</g>
<!-- Node1&#45;&gt;Node15 -->
<g id="edge18" class="edge">
<title>Node1&#45;&gt;Node15</title>
<path fill="none" stroke="#191970" d="M464.7679,-179.4829C521.3428,-170.5035 607.9816,-156.449 683,-143 690.0844,-141.7299 697.5126,-140.3525 704.868,-138.9606"/>
<polygon fill="#191970" stroke="#191970" points="705.6476,-142.375 714.8141,-137.0622 704.3352,-135.4992 705.6476,-142.375"/>
</g>
<!-- Node7 -->
<g id="node8" class="node">
<title>Node7</title>
<g id="a_node8"><a xlink:href="../../d2/d45/GPUCommonRtypes_8h.html" target="_top" xlink:title="GPUCommonRtypes.h">
<polygon fill="none" stroke="#000000" points="13,-56.5 13,-75.5 131,-75.5 131,-56.5 13,-56.5"/>
<text text-anchor="middle" x="72" y="-63.5" font-family="Helvetica,sans-Serif" font-size="10.00" fill="#000000">GPUCommonRtypes.h</text>
</a>
</g>
</g>
<!-- Node6&#45;&gt;Node7 -->
<g id="edge7" class="edge">
<title>Node6&#45;&gt;Node7</title>
<path fill="none" stroke="#191970" d="M214.01,-112.4554C182.3666,-102.104 140.801,-88.5067 110.8241,-78.7004"/>
<polygon fill="#191970" stroke="#191970" points="111.7259,-75.313 101.1333,-75.5303 109.5495,-81.9661 111.7259,-75.313"/>
</g>
<!-- Node8 -->
<g id="node9" class="node">
<title>Node8</title>
<polygon fill="none" stroke="#bfbfbf" points="149.5,-56.5 149.5,-75.5 194.5,-75.5 194.5,-56.5 149.5,-56.5"/>
<text text-anchor="middle" x="172" y="-63.5" font-family="Helvetica,sans-Serif" font-size="10.00" fill="#000000">iosfwd</text>
</g>
<!-- Node6&#45;&gt;Node8 -->
<g id="edge9" class="edge">
<title>Node6&#45;&gt;Node8</title>
<path fill="none" stroke="#191970" d="M238.2472,-112.2977C224.8032,-102.9022 207.5989,-90.8787 194.0922,-81.4395"/>
<polygon fill="#191970" stroke="#191970" points="196.0288,-78.5228 185.8271,-75.6633 192.0189,-84.2605 196.0288,-78.5228"/>
</g>
<!-- Node9 -->
<g id="node10" class="node">
<title>Node9</title>
<polygon fill="none" stroke="#bfbfbf" points="213,-56.5 213,-75.5 259,-75.5 259,-56.5 213,-56.5"/>
<text text-anchor="middle" x="236" y="-63.5" font-family="Helvetica,sans-Serif" font-size="10.00" fill="#000000">cstdint</text>
</g>
<!-- Node6&#45;&gt;Node9 -->
<g id="edge10" class="edge">
<title>Node6&#45;&gt;Node9</title>
<path fill="none" stroke="#191970" d="M254.0674,-112.2977C250.8748,-104.1166 246.9046,-93.943 243.4996,-85.2179"/>
<polygon fill="#191970" stroke="#191970" points="246.7387,-83.8903 239.8427,-75.8469 240.2177,-86.4351 246.7387,-83.8903"/>
</g>
<!-- Node10 -->
<g id="node11" class="node">
<title>Node10</title>
<polygon fill="none" stroke="#bfbfbf" points="277,-56.5 277,-75.5 321,-75.5 321,-56.5 277,-56.5"/>
<text text-anchor="middle" x="299" y="-63.5" font-family="Helvetica,sans-Serif" font-size="10.00" fill="#000000">cmath</text>
</g>
<!-- Node6&#45;&gt;Node10 -->
<g id="edge11" class="edge">
<title>Node6&#45;&gt;Node10</title>
<path fill="none" stroke="#191970" d="M269.6405,-112.2977C274.9977,-103.8498 281.7022,-93.2773 287.3513,-84.369"/>
<polygon fill="#191970" stroke="#191970" points="290.3559,-86.1664 292.7556,-75.8469 284.4444,-82.4176 290.3559,-86.1664"/>
</g>
<!-- Node6&#45;&gt;Node11 -->
<g id="edge12" class="edge">
<title>Node6&#45;&gt;Node11</title>
<path fill="none" stroke="#191970" d="M301.0974,-112.4554C329.0057,-102.239 365.5508,-88.8609 392.2527,-79.0861"/>
<polygon fill="#191970" stroke="#191970" points="393.7786,-82.2547 401.966,-75.5303 391.3722,-75.6813 393.7786,-82.2547"/>
</g>
<!-- Node7&#45;&gt;Node2 -->
<g id="edge8" class="edge">
<title>Node7&#45;&gt;Node2</title>
<path fill="none" stroke="#191970" d="M64.3358,-56.2455C58.1527,-48.3761 49.2937,-37.101 41.8711,-27.6542"/>
<polygon fill="#191970" stroke="#191970" points="44.5068,-25.3435 35.5764,-19.6427 39.0025,-29.6683 44.5068,-25.3435"/>
</g>
<!-- Node12&#45;&gt;Node11 -->
<g id="edge14" class="edge">
<title>Node12&#45;&gt;Node11</title>
<path fill="none" stroke="#191970" d="M530.9375,-117.8906C510.8828,-107.7811 479.1066,-91.7628 456.1616,-80.1962"/>
<polygon fill="#191970" stroke="#191970" points="457.4337,-76.918 446.9286,-75.5419 454.2827,-83.1687 457.4337,-76.918"/>
</g>
<!-- Node13 -->
<g id="node14" class="node">
<title>Node13</title>
<polygon fill="none" stroke="#bfbfbf" points="593.5,-56.5 593.5,-75.5 634.5,-75.5 634.5,-56.5 593.5,-56.5"/>
<text text-anchor="middle" x="614" y="-63.5" font-family="Helvetica,sans-Serif" font-size="10.00" fill="#000000">bitset</text>
</g>
<!-- Node12&#45;&gt;Node13 -->
<g id="edge15" class="edge">
<title>Node12&#45;&gt;Node13</title>
<path fill="none" stroke="#191970" d="M560,-117.8906C569.7119,-108.5581 584.6639,-94.1902 596.3741,-82.9374"/>
<polygon fill="#191970" stroke="#191970" points="599.0736,-85.1974 603.859,-75.7449 594.2234,-80.15 599.0736,-85.1974"/>
</g>
<!-- Node14 -->
<g id="node15" class="node">
<title>Node14</title>
<polygon fill="none" stroke="#bfbfbf" points="534.5,-56.5 534.5,-75.5 575.5,-75.5 575.5,-56.5 534.5,-56.5"/>
<text text-anchor="middle" x="555" y="-63.5" font-family="Helvetica,sans-Serif" font-size="10.00" fill="#000000">string</text>
</g>
<!-- Node12&#45;&gt;Node14 -->
<g id="edge16" class="edge">
<title>Node12&#45;&gt;Node14</title>
<path fill="none" stroke="#191970" d="M550.7813,-117.8906C551.4743,-109.3657 552.509,-96.6392 553.3802,-85.9235"/>
<polygon fill="#191970" stroke="#191970" points="556.8858,-85.9956 554.2077,-75.7449 549.9088,-85.4283 556.8858,-85.9956"/>
</g>
<!-- Node15&#45;&gt;Node4 -->
<g id="edge22" class="edge">
<title>Node15&#45;&gt;Node4</title>
<path fill="none" stroke="#191970" d="M751.125,-117.8906C739.3703,-108.3786 721.1514,-93.6357 707.1328,-82.2917"/>
<polygon fill="#191970" stroke="#191970" points="709.0178,-79.3146 699.0424,-75.7449 704.6144,-84.7562 709.0178,-79.3146"/>
</g>
<!-- Node16 -->
<g id="node17" class="node">
<title>Node16</title>
<polygon fill="none" stroke="#bfbfbf" points="933,-56.5 933,-75.5 977,-75.5 977,-56.5 933,-56.5"/>
<text text-anchor="middle" x="955" y="-63.5" font-family="Helvetica,sans-Serif" font-size="10.00" fill="#000000">Vc/Vc</text>
</g>
<!-- Node15&#45;&gt;Node16 -->
<g id="edge19" class="edge">
<title>Node15&#45;&gt;Node16</title>
<path fill="none" stroke="#191970" d="M792.9767,-117.9354C823.4202,-108.2165 872.1772,-92.6366 923.3979,-76.1885"/>
<polygon fill="#191970" stroke="#191970" points="924.5362,-79.4991 932.9867,-73.1084 922.3954,-72.8344 924.5362,-79.4991"/>
</g>
<!-- Node17 -->
<g id="node18" class="node">
<title>Node17</title>
<polygon fill="none" stroke="#bfbfbf" points="739,-56.5 739,-75.5 777,-75.5 777,-56.5 739,-56.5"/>
<text text-anchor="middle" x="758" y="-63.5" font-family="Helvetica,sans-Serif" font-size="10.00" fill="#000000">array</text>
</g>
<!-- Node15&#45;&gt;Node17 -->
<g id="edge20" class="edge">
<title>Node15&#45;&gt;Node17</title>
<path fill="none" stroke="#191970" d="M762.2188,-117.8906C761.5257,-109.3657 760.491,-96.6392 759.6198,-85.9235"/>
<polygon fill="#191970" stroke="#191970" points="763.0912,-85.4283 758.7923,-75.7449 756.1142,-85.9956 763.0912,-85.4283"/>
</g>
<!-- Node18 -->
<g id="node19" class="node">
<title>Node18</title>
<polygon fill="none" stroke="#bfbfbf" points="795,-56.5 795,-75.5 837,-75.5 837,-56.5 795,-56.5"/>
<text text-anchor="middle" x="816" y="-63.5" font-family="Helvetica,sans-Serif" font-size="10.00" fill="#000000">TF1.h</text>
</g>
<!-- Node15&#45;&gt;Node18 -->
<g id="edge21" class="edge">
<title>Node15&#45;&gt;Node18</title>
<path fill="none" stroke="#191970" d="M771.2813,-117.8906C779.1693,-108.7376 791.2314,-94.7409 800.8412,-83.59"/>
<polygon fill="#191970" stroke="#191970" points="803.7251,-85.6049 807.602,-75.7449 798.4225,-81.0352 803.7251,-85.6049"/>
</g>
<!-- Node19 -->
<g id="node20" class="node">
<title>Node19</title>
<polygon fill="none" stroke="#bfbfbf" points="855.5,-56.5 855.5,-75.5 914.5,-75.5 914.5,-56.5 855.5,-56.5"/>
<text text-anchor="middle" x="885" y="-63.5" font-family="Helvetica,sans-Serif" font-size="10.00" fill="#000000">functional</text>
</g>
<!-- Node15&#45;&gt;Node19 -->
<g id="edge23" class="edge">
<title>Node15&#45;&gt;Node19</title>
<path fill="none" stroke="#191970" d="M782.0625,-117.8906C802.1172,-107.7811 833.8934,-91.7628 856.8384,-80.1962"/>
<polygon fill="#191970" stroke="#191970" points="858.7173,-83.1687 866.0714,-75.5419 855.5663,-76.918 858.7173,-83.1687"/>
</g>
</g>
</svg>
