<?xml version="1.0" encoding="UTF-8" standalone="no"?>
<!DOCTYPE svg PUBLIC "-//W3C//DTD SVG 1.1//EN"
 "http://www.w3.org/Graphics/SVG/1.1/DTD/svg11.dtd">
<!-- Generated by graphviz version 2.40.1 (20161225.0304)
 -->
<!-- Title: /home/runner/work/AliceO2/AliceO2/Utilities/DataSampling/src/DataSamplingConditionRandom.cxx Pages: 1 -->
<svg width="997pt" height="251pt"
 viewBox="0.00 0.00 996.50 251.00" xmlns="http://www.w3.org/2000/svg" xmlns:xlink="http://www.w3.org/1999/xlink">
<g id="graph0" class="graph" transform="scale(1 1) rotate(0) translate(4 247)">
<title>/home/runner/work/AliceO2/AliceO2/Utilities/DataSampling/src/DataSamplingConditionRandom.cxx</title>
<!-- Node0 -->
<g id="node1" class="node">
<title>Node0</title>
<polygon fill="#bfbfbf" stroke="#000000" points="558.5,-201.5 558.5,-242.5 752.5,-242.5 752.5,-201.5 558.5,-201.5"/>
<text text-anchor="start" x="566.5" y="-230.5" font-family="Helvetica,sans-Serif" font-size="10.00" fill="#000000">/home/runner/work/AliceO2</text>
<text text-anchor="start" x="566.5" y="-219.5" font-family="Helvetica,sans-Serif" font-size="10.00" fill="#000000">/AliceO2/Utilities/DataSampling</text>
<text text-anchor="middle" x="655.5" y="-208.5" font-family="Helvetica,sans-Serif" font-size="10.00" fill="#000000">/src/DataSamplingConditionRandom.cxx</text>
</g>
<!-- Node1 -->
<g id="node2" class="node">
<title>Node1</title>
<g id="a_node2"><a xlink:href="../../dd/dcf/DataSamplingCondition_8h.html" target="_top" xlink:title="A standarised data sampling condition, to decide if given data sample should be passed forward...">
<polygon fill="none" stroke="#000000" points="199,-67.5 199,-97.5 342,-97.5 342,-67.5 199,-67.5"/>
<text text-anchor="start" x="207" y="-85.5" font-family="Helvetica,sans-Serif" font-size="10.00" fill="#000000">DataSampling/DataSampling</text>
<text text-anchor="middle" x="270.5" y="-74.5" font-family="Helvetica,sans-Serif" font-size="10.00" fill="#000000">Condition.h</text>
</a>
</g>
</g>
<!-- Node0&#45;&gt;Node1 -->
<g id="edge1" class="edge">
<title>Node0&#45;&gt;Node1</title>
<path fill="none" stroke="#191970" d="M558.4082,-214.5028C501.4792,-207.2475 429.4061,-192.9912 370.5,-165 339.5905,-150.3123 310.1208,-123.9682 291.2847,-104.9957"/>
<polygon fill="#191970" stroke="#191970" points="293.6052,-102.3612 284.1287,-97.6233 288.5822,-107.2367 293.6052,-102.3612"/>
</g>
<!-- Node5 -->
<g id="node6" class="node">
<title>Node5</title>
<g id="a_node6"><a xlink:href="../../de/dca/DataSamplingConditionFactory_8h.html" target="_top" xlink:title="A definition of DataSamplingConditionFactory. ">
<polygon fill="none" stroke="#000000" points="380,-134.5 380,-164.5 523,-164.5 523,-134.5 380,-134.5"/>
<text text-anchor="start" x="388" y="-152.5" font-family="Helvetica,sans-Serif" font-size="10.00" fill="#000000">DataSampling/DataSampling</text>
<text text-anchor="middle" x="451.5" y="-141.5" font-family="Helvetica,sans-Serif" font-size="10.00" fill="#000000">ConditionFactory.h</text>
</a>
</g>
</g>
<!-- Node0&#45;&gt;Node5 -->
<g id="edge5" class="edge">
<title>Node0&#45;&gt;Node5</title>
<path fill="none" stroke="#191970" d="M597.5875,-201.4183C567.9545,-190.887 532.1742,-178.171 503.4409,-167.9594"/>
<polygon fill="#191970" stroke="#191970" points="504.5805,-164.65 493.9858,-164.5991 502.2363,-171.2458 504.5805,-164.65"/>
</g>
<!-- Node7 -->
<g id="node8" class="node">
<title>Node7</title>
<g id="a_node8"><a xlink:href="../../d6/dc9/DataProcessingHeader_8h.html" target="_top" xlink:title="Framework/DataProcessing\lHeader.h">
<polygon fill="none" stroke="#000000" points="586.5,-134.5 586.5,-164.5 724.5,-164.5 724.5,-134.5 586.5,-134.5"/>
<text text-anchor="start" x="594.5" y="-152.5" font-family="Helvetica,sans-Serif" font-size="10.00" fill="#000000">Framework/DataProcessing</text>
<text text-anchor="middle" x="655.5" y="-141.5" font-family="Helvetica,sans-Serif" font-size="10.00" fill="#000000">Header.h</text>
</a>
</g>
</g>
<!-- Node0&#45;&gt;Node7 -->
<g id="edge9" class="edge">
<title>Node0&#45;&gt;Node7</title>
<path fill="none" stroke="#191970" d="M655.5,-201.4183C655.5,-193.0849 655.5,-183.3834 655.5,-174.6373"/>
<polygon fill="#191970" stroke="#191970" points="659.0001,-174.5991 655.5,-164.5991 652.0001,-174.5991 659.0001,-174.5991"/>
</g>
<!-- Node19 -->
<g id="node20" class="node">
<title>Node19</title>
<polygon fill="none" stroke="#bfbfbf" points="743,-140 743,-159 856,-159 856,-140 743,-140"/>
<text text-anchor="middle" x="799.5" y="-147" font-family="Helvetica,sans-Serif" font-size="10.00" fill="#000000">PCG/pcg_random.hpp</text>
</g>
<!-- Node0&#45;&gt;Node19 -->
<g id="edge26" class="edge">
<title>Node0&#45;&gt;Node19</title>
<path fill="none" stroke="#191970" d="M696.3794,-201.4183C720.3188,-189.3655 749.9419,-174.4511 771.287,-163.7045"/>
<polygon fill="#191970" stroke="#191970" points="773.1036,-166.7085 780.4615,-159.0853 769.9557,-160.4562 773.1036,-166.7085"/>
</g>
<!-- Node20 -->
<g id="node21" class="node">
<title>Node20</title>
<polygon fill="none" stroke="#bfbfbf" points="874,-134.5 874,-164.5 975,-164.5 975,-134.5 874,-134.5"/>
<text text-anchor="start" x="882" y="-152.5" font-family="Helvetica,sans-Serif" font-size="10.00" fill="#000000">boost/property_tree</text>
<text text-anchor="middle" x="924.5" y="-141.5" font-family="Helvetica,sans-Serif" font-size="10.00" fill="#000000">/ptree.hpp</text>
</g>
<!-- Node0&#45;&gt;Node20 -->
<g id="edge27" class="edge">
<title>Node0&#45;&gt;Node20</title>
<path fill="none" stroke="#191970" d="M731.8651,-201.4183C773.8207,-190.1106 825.1219,-176.2841 864.231,-165.7435"/>
<polygon fill="#191970" stroke="#191970" points="865.1536,-169.1198 873.8982,-163.138 863.3319,-162.361 865.1536,-169.1198"/>
</g>
<!-- Node2 -->
<g id="node3" class="node">
<title>Node2</title>
<g id="a_node3"><a xlink:href="../../d5/dfb/DataRef_8h.html" target="_top" xlink:title="Framework/DataRef.h">
<polygon fill="none" stroke="#000000" points="0,-6 0,-25 113,-25 113,-6 0,-6"/>
<text text-anchor="middle" x="56.5" y="-13" font-family="Helvetica,sans-Serif" font-size="10.00" fill="#000000">Framework/DataRef.h</text>
</a>
</g>
</g>
<!-- Node1&#45;&gt;Node2 -->
<g id="edge2" class="edge">
<title>Node1&#45;&gt;Node2</title>
<path fill="none" stroke="#191970" d="M222.4742,-67.4639C184.5142,-55.5792 132.1531,-39.1858 96.4597,-28.0108"/>
<polygon fill="#191970" stroke="#191970" points="97.4491,-24.6531 86.8602,-25.0053 95.3576,-31.3333 97.4491,-24.6531"/>
</g>
<!-- Node3 -->
<g id="node4" class="node">
<title>Node3</title>
<polygon fill="none" stroke="#bfbfbf" points="131,-.5 131,-30.5 232,-30.5 232,-.5 131,-.5"/>
<text text-anchor="start" x="139" y="-18.5" font-family="Helvetica,sans-Serif" font-size="10.00" fill="#000000">boost/property_tree</text>
<text text-anchor="middle" x="181.5" y="-7.5" font-family="Helvetica,sans-Serif" font-size="10.00" fill="#000000">/ptree_fwd.hpp</text>
</g>
<!-- Node1&#45;&gt;Node3 -->
<g id="edge3" class="edge">
<title>Node1&#45;&gt;Node3</title>
<path fill="none" stroke="#191970" d="M250.3045,-67.2967C238.3564,-58.302 223.0361,-46.7687 209.8862,-36.8694"/>
<polygon fill="#191970" stroke="#191970" points="211.7098,-33.8613 201.6156,-30.6432 207.4998,-39.4538 211.7098,-33.8613"/>
</g>
<!-- Node4 -->
<g id="node5" class="node">
<title>Node4</title>
<polygon fill="none" stroke="#bfbfbf" points="250,-6 250,-25 291,-25 291,-6 250,-6"/>
<text text-anchor="middle" x="270.5" y="-13" font-family="Helvetica,sans-Serif" font-size="10.00" fill="#000000">string</text>
</g>
<!-- Node1&#45;&gt;Node4 -->
<g id="edge4" class="edge">
<title>Node1&#45;&gt;Node4</title>
<path fill="none" stroke="#191970" d="M270.5,-67.2967C270.5,-57.7699 270.5,-45.3954 270.5,-35.1306"/>
<polygon fill="#191970" stroke="#191970" points="274.0001,-35.0549 270.5,-25.055 267.0001,-35.055 274.0001,-35.0549"/>
</g>
<!-- Node5&#45;&gt;Node1 -->
<g id="edge6" class="edge">
<title>Node5&#45;&gt;Node1</title>
<path fill="none" stroke="#191970" d="M410.8801,-134.4639C384.308,-124.6278 349.3927,-111.7034 321.0312,-101.2049"/>
<polygon fill="#191970" stroke="#191970" points="321.8902,-97.7909 311.2971,-97.6017 319.4602,-104.3555 321.8902,-97.7909"/>
</g>
<!-- Node5&#45;&gt;Node4 -->
<g id="edge8" class="edge">
<title>Node5&#45;&gt;Node4</title>
<path fill="none" stroke="#191970" d="M434.1008,-134.2721C414.3449,-117.2245 380.9033,-89.0951 350.5,-67 332.5165,-53.9308 311.3308,-40.3692 295.2802,-30.4452"/>
<polygon fill="#191970" stroke="#191970" points="296.841,-27.2967 286.4863,-25.0536 293.1822,-33.2644 296.841,-27.2967"/>
</g>
<!-- Node6 -->
<g id="node7" class="node">
<title>Node6</title>
<polygon fill="none" stroke="#bfbfbf" points="872.5,-6 872.5,-25 924.5,-25 924.5,-6 872.5,-6"/>
<text text-anchor="middle" x="898.5" y="-13" font-family="Helvetica,sans-Serif" font-size="10.00" fill="#000000">memory</text>
</g>
<!-- Node5&#45;&gt;Node6 -->
<g id="edge7" class="edge">
<title>Node5&#45;&gt;Node6</title>
<path fill="none" stroke="#191970" d="M523.0272,-143.3093C570.6478,-136.915 633.4255,-123.9967 683.5,-98 701.6492,-88.5777 699.4619,-76.6332 717.5,-67 776.4522,-35.5166 800.2591,-52.6139 863.5,-31 865.3394,-30.3714 867.2153,-29.684 869.0955,-28.9596"/>
<polygon fill="#191970" stroke="#191970" points="870.4723,-32.1778 878.3817,-25.1287 867.8027,-25.7069 870.4723,-32.1778"/>
</g>
<!-- Node7&#45;&gt;Node6 -->
<g id="edge23" class="edge">
<title>Node7&#45;&gt;Node6</title>
<path fill="none" stroke="#191970" d="M673.5302,-134.3161C698.6596,-113.3578 743.1872,-77.0122 761.5,-67 803.6813,-43.9381 818.8215,-48.7466 863.5,-31 865.0711,-30.376 866.6755,-29.7229 868.2911,-29.0527"/>
<polygon fill="#191970" stroke="#191970" points="869.6935,-32.2597 877.5128,-25.1107 866.942,-25.8231 869.6935,-32.2597"/>
</g>
<!-- Node8 -->
<g id="node9" class="node">
<title>Node8</title>
<g id="a_node9"><a xlink:href="../../dc/dcd/DataHeader_8h.html" target="_top" xlink:title="Headers/DataHeader.h">
<polygon fill="none" stroke="#000000" points="558,-73 558,-92 675,-92 675,-73 558,-73"/>
<text text-anchor="middle" x="616.5" y="-80" font-family="Helvetica,sans-Serif" font-size="10.00" fill="#000000">Headers/DataHeader.h</text>
</a>
</g>
</g>
<!-- Node7&#45;&gt;Node8 -->
<g id="edge10" class="edge">
<title>Node7&#45;&gt;Node8</title>
<path fill="none" stroke="#191970" d="M646.6503,-134.2967C640.8689,-124.3645 633.2858,-111.3371 627.1709,-100.8321"/>
<polygon fill="#191970" stroke="#191970" points="630.1175,-98.9367 622.0618,-92.055 624.0677,-102.4582 630.1175,-98.9367"/>
</g>
<!-- Node9 -->
<g id="node10" class="node">
<title>Node9</title>
<polygon fill="none" stroke="#bfbfbf" points="942.5,-6 942.5,-25 988.5,-25 988.5,-6 942.5,-6"/>
<text text-anchor="middle" x="965.5" y="-13" font-family="Helvetica,sans-Serif" font-size="10.00" fill="#000000">cstdint</text>
</g>
<!-- Node7&#45;&gt;Node9 -->
<g id="edge21" class="edge">
<title>Node7&#45;&gt;Node9</title>
<path fill="none" stroke="#191970" d="M724.6525,-135.1004C790.0654,-121.3227 879.3074,-102.0536 886.5,-98 914.8568,-82.0186 939.3275,-52.6148 953.2379,-33.5708"/>
<polygon fill="#191970" stroke="#191970" points="956.2711,-35.3435 959.1891,-25.1584 950.5565,-31.3008 956.2711,-35.3435"/>
</g>
<!-- Node10 -->
<g id="node11" class="node">
<title>Node10</title>
<polygon fill="none" stroke="#bfbfbf" points="309,-6 309,-25 358,-25 358,-6 309,-6"/>
<text text-anchor="middle" x="333.5" y="-13" font-family="Helvetica,sans-Serif" font-size="10.00" fill="#000000">cassert</text>
</g>
<!-- Node7&#45;&gt;Node10 -->
<g id="edge24" class="edge">
<title>Node7&#45;&gt;Node10</title>
<path fill="none" stroke="#191970" d="M616.9093,-134.388C561.2504,-112.4315 455.3624,-70.0584 366.5,-31 365.16,-30.411 363.7928,-29.802 362.4143,-29.1813"/>
<polygon fill="#191970" stroke="#191970" points="363.8683,-25.9976 353.32,-25.0055 360.9473,-32.3591 363.8683,-25.9976"/>
</g>
<!-- Node17 -->
<g id="node18" class="node">
<title>Node17</title>
<polygon fill="none" stroke="#bfbfbf" points="770,-73 770,-92 813,-92 813,-73 770,-73"/>
<text text-anchor="middle" x="791.5" y="-80" font-family="Helvetica,sans-Serif" font-size="10.00" fill="#000000">cstdio</text>
</g>
<!-- Node7&#45;&gt;Node17 -->
<g id="edge22" class="edge">
<title>Node7&#45;&gt;Node17</title>
<path fill="none" stroke="#191970" d="M686.0211,-134.4639C709.0457,-123.1209 740.4072,-107.6707 762.9394,-96.5703"/>
<polygon fill="#191970" stroke="#191970" points="764.5817,-99.6629 772.0055,-92.1039 761.4882,-93.3836 764.5817,-99.6629"/>
</g>
<!-- Node18 -->
<g id="node19" class="node">
<title>Node18</title>
<polygon fill="none" stroke="#bfbfbf" points="831.5,-73 831.5,-92 877.5,-92 877.5,-73 831.5,-73"/>
<text text-anchor="middle" x="854.5" y="-80" font-family="Helvetica,sans-Serif" font-size="10.00" fill="#000000">chrono</text>
</g>
<!-- Node7&#45;&gt;Node18 -->
<g id="edge25" class="edge">
<title>Node7&#45;&gt;Node18</title>
<path fill="none" stroke="#191970" d="M711.8984,-134.421C744.6145,-125.103 786.3645,-112.228 822.5,-98 823.9,-97.4487 825.3236,-96.8619 826.7535,-96.2514"/>
<polygon fill="#191970" stroke="#191970" points="828.4454,-99.3269 836.0997,-92.0016 825.5479,-92.9548 828.4454,-99.3269"/>
</g>
<!-- Node8&#45;&gt;Node4 -->
<g id="edge17" class="edge">
<title>Node8&#45;&gt;Node4</title>
<path fill="none" stroke="#191970" d="M557.8482,-78.7711C493.1492,-73.3375 386.6538,-60.4588 299.5,-31 298.0804,-30.5201 296.6469,-29.9757 295.2175,-29.385"/>
<polygon fill="#191970" stroke="#191970" points="296.5632,-26.1493 286.0299,-25.0092 293.5532,-32.4691 296.5632,-26.1493"/>
</g>
<!-- Node8&#45;&gt;Node6 -->
<g id="edge12" class="edge">
<title>Node8&#45;&gt;Node6</title>
<path fill="none" stroke="#191970" d="M661.2751,-72.9545C670.6012,-70.9771 680.37,-68.9138 689.5,-67 766.7914,-50.7988 788.3042,-55.1253 863.5,-31 865.3984,-30.3909 867.3325,-29.7118 869.2678,-28.9873"/>
<polygon fill="#191970" stroke="#191970" points="870.8577,-32.1189 878.7959,-25.102 868.2145,-25.637 870.8577,-32.1189"/>
</g>
<!-- Node8&#45;&gt;Node9 -->
<g id="edge11" class="edge">
<title>Node8&#45;&gt;Node9</title>
<path fill="none" stroke="#191970" d="M675.3207,-75.0179C753.2981,-64.7419 886.5153,-45.8467 933.5,-31 935.1591,-30.4757 936.8409,-29.879 938.5201,-29.2321"/>
<polygon fill="#191970" stroke="#191970" points="940.1632,-32.3342 947.9356,-25.1341 937.3696,-25.9157 940.1632,-32.3342"/>
</g>
<!-- Node8&#45;&gt;Node10 -->
<g id="edge13" class="edge">
<title>Node8&#45;&gt;Node10</title>
<path fill="none" stroke="#191970" d="M562.9161,-72.9943C500.7585,-61.6986 402.2414,-42.8894 366.5,-31 364.8483,-30.4506 363.1707,-29.8403 361.4918,-29.1887"/>
<polygon fill="#191970" stroke="#191970" points="362.6035,-25.8574 352.033,-25.1386 359.8481,-32.2923 362.6035,-25.8574"/>
</g>
<!-- Node11 -->
<g id="node12" class="node">
<title>Node11</title>
<polygon fill="none" stroke="#bfbfbf" points="593.5,-6 593.5,-25 639.5,-25 639.5,-6 593.5,-6"/>
<text text-anchor="middle" x="616.5" y="-13" font-family="Helvetica,sans-Serif" font-size="10.00" fill="#000000">cstring</text>
</g>
<!-- Node8&#45;&gt;Node11 -->
<g id="edge14" class="edge">
<title>Node8&#45;&gt;Node11</title>
<path fill="none" stroke="#191970" d="M616.5,-72.9005C616.5,-63.149 616.5,-47.7597 616.5,-35.3695"/>
<polygon fill="#191970" stroke="#191970" points="620.0001,-35.0816 616.5,-25.0817 613.0001,-35.0817 620.0001,-35.0816"/>
</g>
<!-- Node12 -->
<g id="node13" class="node">
<title>Node12</title>
<polygon fill="none" stroke="#bfbfbf" points="657.5,-6 657.5,-25 713.5,-25 713.5,-6 657.5,-6"/>
<text text-anchor="middle" x="685.5" y="-13" font-family="Helvetica,sans-Serif" font-size="10.00" fill="#000000">algorithm</text>
</g>
<!-- Node8&#45;&gt;Node12 -->
<g id="edge15" class="edge">
<title>Node8&#45;&gt;Node12</title>
<path fill="none" stroke="#191970" d="M626.386,-72.9005C637.2484,-62.353 654.9035,-45.2096 668.0957,-32.3998"/>
<polygon fill="#191970" stroke="#191970" points="670.8962,-34.559 675.6323,-25.0817 666.0198,-29.537 670.8962,-34.559"/>
</g>
<!-- Node13 -->
<g id="node14" class="node">
<title>Node13</title>
<polygon fill="none" stroke="#bfbfbf" points="732,-6 732,-25 791,-25 791,-6 732,-6"/>
<text text-anchor="middle" x="761.5" y="-13" font-family="Helvetica,sans-Serif" font-size="10.00" fill="#000000">stdexcept</text>
</g>
<!-- Node8&#45;&gt;Node13 -->
<g id="edge16" class="edge">
<title>Node8&#45;&gt;Node13</title>
<path fill="none" stroke="#191970" d="M637.275,-72.9005C661.9323,-61.5072 703.2451,-42.4178 731.4018,-29.4075"/>
<polygon fill="#191970" stroke="#191970" points="733.1539,-32.4535 740.7636,-25.0817 730.2177,-26.099 733.1539,-32.4535"/>
</g>
<!-- Node14 -->
<g id="node15" class="node">
<title>Node14</title>
<polygon fill="none" stroke="#bfbfbf" points="809,-6 809,-25 854,-25 854,-6 809,-6"/>
<text text-anchor="middle" x="831.5" y="-13" font-family="Helvetica,sans-Serif" font-size="10.00" fill="#000000">climits</text>
</g>
<!-- Node8&#45;&gt;Node14 -->
<g id="edge18" class="edge">
<title>Node8&#45;&gt;Node14</title>
<path fill="none" stroke="#191970" d="M659.2653,-72.9833C697.0434,-64.0015 753.3045,-49.212 800.5,-31 801.8683,-30.472 803.2572,-29.904 804.6501,-29.3084"/>
<polygon fill="#191970" stroke="#191970" points="806.1232,-32.4834 813.7307,-25.1094 803.1851,-26.1298 806.1232,-32.4834"/>
</g>
<!-- Node15 -->
<g id="node16" class="node">
<title>Node15</title>
<g id="a_node16"><a xlink:href="../../d7/df8/Types_8h.html" target="_top" xlink:title="MemoryResources/Types.h">
<polygon fill="none" stroke="#000000" points="376,-6 376,-25 513,-25 513,-6 376,-6"/>
<text text-anchor="middle" x="444.5" y="-13" font-family="Helvetica,sans-Serif" font-size="10.00" fill="#000000">MemoryResources/Types.h</text>
</a>
</g>
</g>
<!-- Node8&#45;&gt;Node15 -->
<g id="edge19" class="edge">
<title>Node8&#45;&gt;Node15</title>
<path fill="none" stroke="#191970" d="M591.8566,-72.9005C562.0971,-61.3082 511.8844,-41.7486 478.467,-28.7313"/>
<polygon fill="#191970" stroke="#191970" points="479.6861,-25.4501 469.0977,-25.0817 477.1453,-31.9727 479.6861,-25.4501"/>
</g>
<!-- Node16 -->
<g id="node17" class="node">
<title>Node16</title>
<polygon fill="none" stroke="#bfbfbf" points="531.5,-6 531.5,-25 575.5,-25 575.5,-6 531.5,-6"/>
<text text-anchor="middle" x="553.5" y="-13" font-family="Helvetica,sans-Serif" font-size="10.00" fill="#000000">cerrno</text>
</g>
<!-- Node8&#45;&gt;Node16 -->
<g id="edge20" class="edge">
<title>Node8&#45;&gt;Node16</title>
<path fill="none" stroke="#191970" d="M607.4736,-72.9005C597.5558,-62.353 581.4359,-45.2096 569.3909,-32.3998"/>
<polygon fill="#191970" stroke="#191970" points="571.9097,-29.9693 562.5096,-25.0817 566.8101,-34.7645 571.9097,-29.9693"/>
</g>
</g>
</svg>
