<?xml version="1.0" encoding="UTF-8" standalone="no"?>
<!DOCTYPE svg PUBLIC "-//W3C//DTD SVG 1.1//EN"
 "http://www.w3.org/Graphics/SVG/1.1/DTD/svg11.dtd">
<!-- Generated by graphviz version 2.40.1 (20161225.0304)
 -->
<!-- Title: o2::itsmft::ClusterReader Pages: 1 -->
<!--zoomable 1057 -->
<svg id="main" version="1.1" xmlns="http://www.w3.org/2000/svg" xmlns:xlink="http://www.w3.org/1999/xlink" xml:space="preserve" onload="init(evt)">
<style type="text/css"><![CDATA[
.edge:hover path { stroke: red; }
.edge:hover polygon { stroke: red; fill: red; }
]]></style>
<script type="text/javascript"><![CDATA[
var edges = document.getElementsByTagName('g');
if (edges && edges.length) {
  for (var i=0;i<edges.length;i++) {
    if (edges[i].id.substr(0,4)=='edge') {
      edges[i].setAttribute('class','edge');
    }
  }
}
]]></script>
        <defs>
                <circle id="rim" cx="0" cy="0" r="7"/>
                <circle id="rim2" cx="0" cy="0" r="3.5"/>
                <g id="zoomPlus">
                        <use xlink:href="#rim" fill="#404040">
                                <set attributeName="fill" to="#808080" begin="zoomplus.mouseover" end="zoomplus.mouseout"/>
                        </use>
                        <path d="M-4,0h8M0,-4v8" fill="none" stroke="white" stroke-width="1.5" pointer-events="none"/>
                </g>
                <g id="zoomMin">
                        <use xlink:href="#rim" fill="#404040">
                                <set attributeName="fill" to="#808080" begin="zoomminus.mouseover" end="zoomminus.mouseout"/>
                        </use>
                        <path d="M-4,0h8" fill="none" stroke="white" stroke-width="1.5" pointer-events="none"/>
                </g>
                <g id="dirArrow">
                        <path fill="none" stroke="white" stroke-width="1.5" d="M0,-3.0v7 M-2.5,-0.5L0,-3.0L2.5,-0.5"/>
                </g>
               <g id="resetDef">
                       <use xlink:href="#rim2" fill="#404040">
                               <set attributeName="fill" to="#808080" begin="reset.mouseover" end="reset.mouseout"/>
                       </use>
               </g>
        </defs>

<script type="text/javascript">
var viewWidth = 1946;
var viewHeight = 1057;
var sectionId = 'dynsection-1';
</script>
<script xlink:href="../../svgpan.js"/>
<svg id="graph" class="graph">
<g id="viewport">
<title>o2::itsmft::ClusterReader</title>
<!-- Node4 -->
<g id="node1" class="node">
<title>Node4</title>
<polygon fill="#bfbfbf" stroke="#000000" points="898,-.5 898,-112.5 1025,-112.5 1025,-.5 898,-.5"/>
<text text-anchor="middle" x="961.5" y="-100.5" font-family="Helvetica,sans-Serif" font-size="10.00" fill="#000000">o2::itsmft::ClusterReader</text>
<polyline fill="none" stroke="#000000" points="898,-93.5 1025,-93.5 "/>
<text text-anchor="middle" x="961.5" y="-81.5" font-family="Helvetica,sans-Serif" font-size="10.00" fill="#000000"> </text>
<polyline fill="none" stroke="#000000" points="898,-74.5 1025,-74.5 "/>
<text text-anchor="start" x="906" y="-62.5" font-family="Helvetica,sans-Serif" font-size="10.00" fill="#000000">+ ClusterReader()</text>
<text text-anchor="start" x="906" y="-51.5" font-family="Helvetica,sans-Serif" font-size="10.00" fill="#000000">+ ClusterReader()</text>
<text text-anchor="start" x="906" y="-40.5" font-family="Helvetica,sans-Serif" font-size="10.00" fill="#000000">+ ~ClusterReader()</text>
<text text-anchor="start" x="906" y="-29.5" font-family="Helvetica,sans-Serif" font-size="10.00" fill="#000000">+ init()</text>
<text text-anchor="start" x="906" y="-18.5" font-family="Helvetica,sans-Serif" font-size="10.00" fill="#000000">+ run()</text>
<text text-anchor="start" x="906" y="-7.5" font-family="Helvetica,sans-Serif" font-size="10.00" fill="#000000"># connectTree()</text>
</g>
<!-- Node5 -->
<g id="node2" class="node">
<title>Node5</title>
<g id="a_node2"><a xlink:href="../../de/dac/classo2_1_1framework_1_1Task.html" target="_top" xlink:title="{o2::framework::Task\n||+ ~Task()\l+ init()\l+ run()\l+ endOfStream()\l}">
<polygon fill="none" stroke="#000000" points="0,-391.5 0,-481.5 107,-481.5 107,-391.5 0,-391.5"/>
<text text-anchor="middle" x="53.5" y="-469.5" font-family="Helvetica,sans-Serif" font-size="10.00" fill="#000000">o2::framework::Task</text>
<polyline fill="none" stroke="#000000" points="0,-462.5 107,-462.5 "/>
<text text-anchor="middle" x="53.5" y="-450.5" font-family="Helvetica,sans-Serif" font-size="10.00" fill="#000000"> </text>
<polyline fill="none" stroke="#000000" points="0,-443.5 107,-443.5 "/>
<text text-anchor="start" x="8" y="-431.5" font-family="Helvetica,sans-Serif" font-size="10.00" fill="#000000">+ ~Task()</text>
<text text-anchor="start" x="8" y="-420.5" font-family="Helvetica,sans-Serif" font-size="10.00" fill="#000000">+ init()</text>
<text text-anchor="start" x="8" y="-409.5" font-family="Helvetica,sans-Serif" font-size="10.00" fill="#000000">+ run()</text>
<text text-anchor="start" x="8" y="-398.5" font-family="Helvetica,sans-Serif" font-size="10.00" fill="#000000">+ endOfStream()</text>
</a>
</g>
</g>
<!-- Node5&#45;&gt;Node4 -->
<g id="edge1" class="edge">
<title>Node5&#45;&gt;Node4</title>
<path fill="none" stroke="#191970" d="M61.1957,-381.3596C74.7418,-308.3678 110.5188,-182.8616 200.5,-131 260.3431,-96.5088 725.8656,-68.8587 897.8891,-59.7232"/>
<polygon fill="none" stroke="#191970" points="57.7334,-380.8391 59.4285,-391.2974 64.6253,-382.0647 57.7334,-380.8391"/>
</g>
<!-- Node6 -->
<g id="node3" class="node">
<title>Node6</title>
<polygon fill="none" stroke="#bfbfbf" points="125.5,-402.5 125.5,-470.5 219.5,-470.5 219.5,-402.5 125.5,-402.5"/>
<text text-anchor="start" x="133.5" y="-458.5" font-family="Helvetica,sans-Serif" font-size="10.00" fill="#000000">vector&lt; o2::itsmft</text>
<text text-anchor="middle" x="172.5" y="-447.5" font-family="Helvetica,sans-Serif" font-size="10.00" fill="#000000">::ROFRecord &gt;</text>
<polyline fill="none" stroke="#bfbfbf" points="125.5,-440.5 219.5,-440.5 "/>
<text text-anchor="middle" x="172.5" y="-428.5" font-family="Helvetica,sans-Serif" font-size="10.00" fill="#000000"> </text>
<polyline fill="none" stroke="#bfbfbf" points="125.5,-421.5 219.5,-421.5 "/>
<text text-anchor="middle" x="172.5" y="-409.5" font-family="Helvetica,sans-Serif" font-size="10.00" fill="#000000"> </text>
</g>
<!-- Node6&#45;&gt;Node4 -->
<g id="edge2" class="edge">
<title>Node6&#45;&gt;Node4</title>
<path fill="none" stroke="#404040" d="M172.2153,-402.3421C173.7283,-337.4794 187.2615,-197.072 272.5,-131 320.2429,-93.9924 717.0973,-69.2002 885.9387,-60.2328"/>
<polygon fill="none" stroke="#404040" points="885.9518,-60.2322 891.7334,-55.9226 897.9352,-59.602 892.1536,-63.9116 885.9518,-60.2322"/>
<text text-anchor="middle" x="310.5" y="-178" font-family="Helvetica,sans-Serif" font-size="10.00" fill="#000000"> #mClusROFRec</text>
</g>
<!-- Node7 -->
<g id="node4" class="node">
<title>Node7</title>
<polygon fill="none" stroke="#bfbfbf" points="238,-408 238,-465 367,-465 367,-408 238,-408"/>
<text text-anchor="middle" x="302.5" y="-453" font-family="Helvetica,sans-Serif" font-size="10.00" fill="#000000">vector&lt; unsigned char &gt; *</text>
<polyline fill="none" stroke="#bfbfbf" points="238,-446 367,-446 "/>
<text text-anchor="middle" x="302.5" y="-434" font-family="Helvetica,sans-Serif" font-size="10.00" fill="#000000"> </text>
<polyline fill="none" stroke="#bfbfbf" points="238,-427 367,-427 "/>
<text text-anchor="middle" x="302.5" y="-415" font-family="Helvetica,sans-Serif" font-size="10.00" fill="#000000"> </text>
</g>
<!-- Node7&#45;&gt;Node4 -->
<g id="edge3" class="edge">
<title>Node7&#45;&gt;Node4</title>
<path fill="none" stroke="#404040" d="M304.7947,-407.63C311.3961,-345.6731 336.2293,-200.0024 426.5,-131 496.9622,-77.1392 755.3657,-62.199 885.5191,-58.069"/>
<polygon fill="none" stroke="#404040" points="885.7091,-58.0634 891.5859,-53.8845 897.7036,-57.7021 891.8268,-61.8809 885.7091,-58.0634"/>
<text text-anchor="middle" x="471.5" y="-178" font-family="Helvetica,sans-Serif" font-size="10.00" fill="#000000"> #mPatternsArrayPtr</text>
</g>
<!-- Node8 -->
<g id="node5" class="node">
<title>Node8</title>
<polygon fill="none" stroke="#bfbfbf" points="385.5,-402.5 385.5,-470.5 527.5,-470.5 527.5,-402.5 385.5,-402.5"/>
<text text-anchor="start" x="393.5" y="-458.5" font-family="Helvetica,sans-Serif" font-size="10.00" fill="#000000">Descriptor&lt; gSizeDataOrigin</text>
<text text-anchor="middle" x="456.5" y="-447.5" font-family="Helvetica,sans-Serif" font-size="10.00" fill="#000000">String, printDataOrigin &gt;</text>
<polyline fill="none" stroke="#bfbfbf" points="385.5,-440.5 527.5,-440.5 "/>
<text text-anchor="middle" x="456.5" y="-428.5" font-family="Helvetica,sans-Serif" font-size="10.00" fill="#000000"> </text>
<polyline fill="none" stroke="#bfbfbf" points="385.5,-421.5 527.5,-421.5 "/>
<text text-anchor="middle" x="456.5" y="-409.5" font-family="Helvetica,sans-Serif" font-size="10.00" fill="#000000"> </text>
</g>
<!-- Node8&#45;&gt;Node4 -->
<g id="edge4" class="edge">
<title>Node8&#45;&gt;Node4</title>
<path fill="none" stroke="#404040" d="M461.9751,-402.3484C474.2591,-337.8162 510.4237,-198.4088 601.5,-131 645.7486,-98.25 793.8288,-75.8088 885.7154,-64.654"/>
<polygon fill="none" stroke="#404040" points="885.8221,-64.6414 891.3061,-59.9588 897.7377,-63.2199 892.2537,-67.9025 885.8221,-64.6414"/>
<text text-anchor="middle" x="623" y="-178" font-family="Helvetica,sans-Serif" font-size="10.00" fill="#000000"> #mOrigin</text>
</g>
<!-- Node9 -->
<g id="node6" class="node">
<title>Node9</title>
<polygon fill="none" stroke="#bfbfbf" points="546,-408 546,-465 647,-465 647,-408 546,-408"/>
<text text-anchor="middle" x="596.5" y="-453" font-family="Helvetica,sans-Serif" font-size="10.00" fill="#000000">unique_ptr&lt; TFile &gt;</text>
<polyline fill="none" stroke="#bfbfbf" points="546,-446 647,-446 "/>
<text text-anchor="middle" x="596.5" y="-434" font-family="Helvetica,sans-Serif" font-size="10.00" fill="#000000"> </text>
<polyline fill="none" stroke="#bfbfbf" points="546,-427 647,-427 "/>
<text text-anchor="middle" x="596.5" y="-415" font-family="Helvetica,sans-Serif" font-size="10.00" fill="#000000"> </text>
</g>
<!-- Node9&#45;&gt;Node4 -->
<g id="edge5" class="edge">
<title>Node9&#45;&gt;Node4</title>
<path fill="none" stroke="#404040" d="M598.94,-407.6768C605.7502,-346.4597 630.6212,-203.183 717.5,-131 765.2243,-91.3484 833.7827,-72.7841 886.0826,-64.1019"/>
<polygon fill="none" stroke="#404040" points="886.1337,-64.0941 891.4468,-59.2185 897.9908,-62.2477 892.6777,-67.1232 886.1337,-64.0941"/>
<text text-anchor="middle" x="734" y="-178" font-family="Helvetica,sans-Serif" font-size="10.00" fill="#000000"> #mFile</text>
</g>
<!-- Node10 -->
<g id="node7" class="node">
<title>Node10</title>
<polygon fill="none" stroke="#bfbfbf" points="665.5,-408 665.5,-465 787.5,-465 787.5,-408 665.5,-408"/>
<text text-anchor="middle" x="726.5" y="-453" font-family="Helvetica,sans-Serif" font-size="10.00" fill="#000000">vector&lt; unsigned char &gt;</text>
<polyline fill="none" stroke="#bfbfbf" points="665.5,-446 787.5,-446 "/>
<text text-anchor="middle" x="726.5" y="-434" font-family="Helvetica,sans-Serif" font-size="10.00" fill="#000000"> </text>
<polyline fill="none" stroke="#bfbfbf" points="665.5,-427 787.5,-427 "/>
<text text-anchor="middle" x="726.5" y="-415" font-family="Helvetica,sans-Serif" font-size="10.00" fill="#000000"> </text>
</g>
<!-- Node10&#45;&gt;Node4 -->
<g id="edge6" class="edge">
<title>Node10&#45;&gt;Node4</title>
<path fill="none" stroke="#404040" d="M726.359,-407.6858C727.5639,-348.9458 738.1446,-213.9169 806.5,-131 827.0386,-106.0861 857.8852,-88.9265 886.6654,-77.4158"/>
<polygon fill="none" stroke="#404040" points="886.7669,-77.3774 890.9604,-71.511 897.9884,-73.1256 893.795,-78.992 886.7669,-77.3774"/>
<text text-anchor="middle" x="845" y="-178" font-family="Helvetica,sans-Serif" font-size="10.00" fill="#000000"> #mPatternsArray</text>
</g>
<!-- Node11 -->
<g id="node8" class="node">
<title>Node11</title>
<polygon fill="none" stroke="#bfbfbf" points="806,-408 806,-465 911,-465 911,-408 806,-408"/>
<text text-anchor="middle" x="858.5" y="-453" font-family="Helvetica,sans-Serif" font-size="10.00" fill="#000000">unique_ptr&lt; TTree &gt;</text>
<polyline fill="none" stroke="#bfbfbf" points="806,-446 911,-446 "/>
<text text-anchor="middle" x="858.5" y="-434" font-family="Helvetica,sans-Serif" font-size="10.00" fill="#000000"> </text>
<polyline fill="none" stroke="#bfbfbf" points="806,-427 911,-427 "/>
<text text-anchor="middle" x="858.5" y="-415" font-family="Helvetica,sans-Serif" font-size="10.00" fill="#000000"> </text>
</g>
<!-- Node11&#45;&gt;Node4 -->
<g id="edge7" class="edge">
<title>Node11&#45;&gt;Node4</title>
<path fill="none" stroke="#404040" d="M860.543,-407.781C865.2053,-352.5332 879.2603,-228.3099 916.5,-131 917.4071,-128.6296 918.389,-126.2495 919.4318,-123.8712"/>
<polygon fill="none" stroke="#404040" points="919.5457,-123.6318 918.5141,-116.4948 924.7053,-112.7976 925.7369,-119.9345 919.5457,-123.6318"/>
<text text-anchor="middle" x="935" y="-178" font-family="Helvetica,sans-Serif" font-size="10.00" fill="#000000"> #mTree</text>
</g>
<!-- Node12 -->
<g id="node9" class="node">
<title>Node12</title>
<g id="a_node9"><a xlink:href="../../dc/daa/classo2_1_1dataformats_1_1MCTruthContainer.html" target="_top" xlink:title="{o2::dataformats::MCTruth\lContainer\&lt; o2::MCCompLabel \&gt;\n||+ MCTruthContainer()\l+ MCTruthContainer()\l+ MCTruthContainer()\l+ MCTruthContainer()\l+ ~MCTruthContainer()\l+ operator=()\l+ operator=()\l+ getMCTruthHeader()\l+ getElement()\l+ getIndexedSize()\l+ getNElements()\l+ getTruthArray()\l+ getLabels()\l+ getLabels()\l+ clear()\l+ clear_andfreememory()\l+ addElement()\l+ addElements()\l+ addElements()\l+ addElementRandomAccess()\l+ setFrom()\l+ mergeAtBack()\l+ mergeAtBack()\l+ flatten_to()\l+ restore_from()\l+ print()\l+ inflate()\l+ deflate()\l+ ClassDefNV()\l}">
<polygon fill="none" stroke="#000000" points="929.5,-248.5 929.5,-624.5 1087.5,-624.5 1087.5,-248.5 929.5,-248.5"/>
<text text-anchor="start" x="937.5" y="-612.5" font-family="Helvetica,sans-Serif" font-size="10.00" fill="#000000">o2::dataformats::MCTruth</text>
<text text-anchor="middle" x="1008.5" y="-601.5" font-family="Helvetica,sans-Serif" font-size="10.00" fill="#000000">Container&lt; o2::MCCompLabel &gt;</text>
<polyline fill="none" stroke="#000000" points="929.5,-594.5 1087.5,-594.5 "/>
<text text-anchor="middle" x="1008.5" y="-582.5" font-family="Helvetica,sans-Serif" font-size="10.00" fill="#000000"> </text>
<polyline fill="none" stroke="#000000" points="929.5,-575.5 1087.5,-575.5 "/>
<text text-anchor="start" x="937.5" y="-563.5" font-family="Helvetica,sans-Serif" font-size="10.00" fill="#000000">+ MCTruthContainer()</text>
<text text-anchor="start" x="937.5" y="-552.5" font-family="Helvetica,sans-Serif" font-size="10.00" fill="#000000">+ MCTruthContainer()</text>
<text text-anchor="start" x="937.5" y="-541.5" font-family="Helvetica,sans-Serif" font-size="10.00" fill="#000000">+ MCTruthContainer()</text>
<text text-anchor="start" x="937.5" y="-530.5" font-family="Helvetica,sans-Serif" font-size="10.00" fill="#000000">+ MCTruthContainer()</text>
<text text-anchor="start" x="937.5" y="-519.5" font-family="Helvetica,sans-Serif" font-size="10.00" fill="#000000">+ ~MCTruthContainer()</text>
<text text-anchor="start" x="937.5" y="-508.5" font-family="Helvetica,sans-Serif" font-size="10.00" fill="#000000">+ operator=()</text>
<text text-anchor="start" x="937.5" y="-497.5" font-family="Helvetica,sans-Serif" font-size="10.00" fill="#000000">+ operator=()</text>
<text text-anchor="start" x="937.5" y="-486.5" font-family="Helvetica,sans-Serif" font-size="10.00" fill="#000000">+ getMCTruthHeader()</text>
<text text-anchor="start" x="937.5" y="-475.5" font-family="Helvetica,sans-Serif" font-size="10.00" fill="#000000">+ getElement()</text>
<text text-anchor="start" x="937.5" y="-464.5" font-family="Helvetica,sans-Serif" font-size="10.00" fill="#000000">+ getIndexedSize()</text>
<text text-anchor="start" x="937.5" y="-453.5" font-family="Helvetica,sans-Serif" font-size="10.00" fill="#000000">+ getNElements()</text>
<text text-anchor="start" x="937.5" y="-442.5" font-family="Helvetica,sans-Serif" font-size="10.00" fill="#000000">+ getTruthArray()</text>
<text text-anchor="start" x="937.5" y="-431.5" font-family="Helvetica,sans-Serif" font-size="10.00" fill="#000000">+ getLabels()</text>
<text text-anchor="start" x="937.5" y="-420.5" font-family="Helvetica,sans-Serif" font-size="10.00" fill="#000000">+ getLabels()</text>
<text text-anchor="start" x="937.5" y="-409.5" font-family="Helvetica,sans-Serif" font-size="10.00" fill="#000000">+ clear()</text>
<text text-anchor="start" x="937.5" y="-398.5" font-family="Helvetica,sans-Serif" font-size="10.00" fill="#000000">+ clear_andfreememory()</text>
<text text-anchor="start" x="937.5" y="-387.5" font-family="Helvetica,sans-Serif" font-size="10.00" fill="#000000">+ addElement()</text>
<text text-anchor="start" x="937.5" y="-376.5" font-family="Helvetica,sans-Serif" font-size="10.00" fill="#000000">+ addElements()</text>
<text text-anchor="start" x="937.5" y="-365.5" font-family="Helvetica,sans-Serif" font-size="10.00" fill="#000000">+ addElements()</text>
<text text-anchor="start" x="937.5" y="-354.5" font-family="Helvetica,sans-Serif" font-size="10.00" fill="#000000">+ addElementRandomAccess()</text>
<text text-anchor="start" x="937.5" y="-343.5" font-family="Helvetica,sans-Serif" font-size="10.00" fill="#000000">+ setFrom()</text>
<text text-anchor="start" x="937.5" y="-332.5" font-family="Helvetica,sans-Serif" font-size="10.00" fill="#000000">+ mergeAtBack()</text>
<text text-anchor="start" x="937.5" y="-321.5" font-family="Helvetica,sans-Serif" font-size="10.00" fill="#000000">+ mergeAtBack()</text>
<text text-anchor="start" x="937.5" y="-310.5" font-family="Helvetica,sans-Serif" font-size="10.00" fill="#000000">+ flatten_to()</text>
<text text-anchor="start" x="937.5" y="-299.5" font-family="Helvetica,sans-Serif" font-size="10.00" fill="#000000">+ restore_from()</text>
<text text-anchor="start" x="937.5" y="-288.5" font-family="Helvetica,sans-Serif" font-size="10.00" fill="#000000">+ print()</text>
<text text-anchor="start" x="937.5" y="-277.5" font-family="Helvetica,sans-Serif" font-size="10.00" fill="#000000">+ inflate()</text>
<text text-anchor="start" x="937.5" y="-266.5" font-family="Helvetica,sans-Serif" font-size="10.00" fill="#000000">+ deflate()</text>
<text text-anchor="start" x="937.5" y="-255.5" font-family="Helvetica,sans-Serif" font-size="10.00" fill="#000000">+ ClassDefNV()</text>
</a>
</g>
</g>
<!-- Node12&#45;&gt;Node4 -->
<g id="edge8" class="edge">
<title>Node12&#45;&gt;Node4</title>
<path fill="none" stroke="#404040" d="M964.8346,-248.2753C963.9638,-242.1257 963.1802,-236.0221 962.5,-230 958.6051,-195.5166 958.0133,-156.9321 958.5405,-124.9215"/>
<polygon fill="none" stroke="#404040" points="958.5484,-124.5436 954.6773,-118.4597 958.8044,-112.5463 962.6755,-118.6303 958.5484,-124.5436"/>
<text text-anchor="middle" x="1011" y="-183.5" font-family="Helvetica,sans-Serif" font-size="10.00" fill="#000000"> #mClusterMCTruth</text>
<text text-anchor="middle" x="1011" y="-172.5" font-family="Helvetica,sans-Serif" font-size="10.00" fill="#000000">#mClusterMCTruthPtr</text>
</g>
<!-- Node13 -->
<g id="node10" class="node">
<title>Node13</title>
<g id="a_node10"><a xlink:href="../../dc/daa/classo2_1_1dataformats_1_1MCTruthContainer.html" target="_top" xlink:title="A container to hold and manage MC truth information/labels. ">
<polygon fill="none" stroke="#000000" points="932,-672.5 932,-1048.5 1085,-1048.5 1085,-672.5 932,-672.5"/>
<text text-anchor="start" x="940" y="-1036.5" font-family="Helvetica,sans-Serif" font-size="10.00" fill="#000000">o2::dataformats::MCTruth</text>
<text text-anchor="middle" x="1008.5" y="-1025.5" font-family="Helvetica,sans-Serif" font-size="10.00" fill="#000000">Container&lt; TruthElement &gt;</text>
<polyline fill="none" stroke="#000000" points="932,-1018.5 1085,-1018.5 "/>
<text text-anchor="middle" x="1008.5" y="-1006.5" font-family="Helvetica,sans-Serif" font-size="10.00" fill="#000000"> </text>
<polyline fill="none" stroke="#000000" points="932,-999.5 1085,-999.5 "/>
<text text-anchor="start" x="940" y="-987.5" font-family="Helvetica,sans-Serif" font-size="10.00" fill="#000000">+ MCTruthContainer()</text>
<text text-anchor="start" x="940" y="-976.5" font-family="Helvetica,sans-Serif" font-size="10.00" fill="#000000">+ ~MCTruthContainer()</text>
<text text-anchor="start" x="940" y="-965.5" font-family="Helvetica,sans-Serif" font-size="10.00" fill="#000000">+ MCTruthContainer()</text>
<text text-anchor="start" x="940" y="-954.5" font-family="Helvetica,sans-Serif" font-size="10.00" fill="#000000">+ MCTruthContainer()</text>
<text text-anchor="start" x="940" y="-943.5" font-family="Helvetica,sans-Serif" font-size="10.00" fill="#000000">+ MCTruthContainer()</text>
<text text-anchor="start" x="940" y="-932.5" font-family="Helvetica,sans-Serif" font-size="10.00" fill="#000000">+ operator=()</text>
<text text-anchor="start" x="940" y="-921.5" font-family="Helvetica,sans-Serif" font-size="10.00" fill="#000000">+ operator=()</text>
<text text-anchor="start" x="940" y="-910.5" font-family="Helvetica,sans-Serif" font-size="10.00" fill="#000000">+ getMCTruthHeader()</text>
<text text-anchor="start" x="940" y="-899.5" font-family="Helvetica,sans-Serif" font-size="10.00" fill="#000000">+ getElement()</text>
<text text-anchor="start" x="940" y="-888.5" font-family="Helvetica,sans-Serif" font-size="10.00" fill="#000000">+ getIndexedSize()</text>
<text text-anchor="start" x="940" y="-877.5" font-family="Helvetica,sans-Serif" font-size="10.00" fill="#000000">+ getNElements()</text>
<text text-anchor="start" x="940" y="-866.5" font-family="Helvetica,sans-Serif" font-size="10.00" fill="#000000">+ getTruthArray()</text>
<text text-anchor="start" x="940" y="-855.5" font-family="Helvetica,sans-Serif" font-size="10.00" fill="#000000">+ getLabels()</text>
<text text-anchor="start" x="940" y="-844.5" font-family="Helvetica,sans-Serif" font-size="10.00" fill="#000000">+ getLabels()</text>
<text text-anchor="start" x="940" y="-833.5" font-family="Helvetica,sans-Serif" font-size="10.00" fill="#000000">+ clear()</text>
<text text-anchor="start" x="940" y="-822.5" font-family="Helvetica,sans-Serif" font-size="10.00" fill="#000000">+ clear_andfreememory()</text>
<text text-anchor="start" x="940" y="-811.5" font-family="Helvetica,sans-Serif" font-size="10.00" fill="#000000">+ addElement()</text>
<text text-anchor="start" x="940" y="-800.5" font-family="Helvetica,sans-Serif" font-size="10.00" fill="#000000">+ addElements()</text>
<text text-anchor="start" x="940" y="-789.5" font-family="Helvetica,sans-Serif" font-size="10.00" fill="#000000">+ addElements()</text>
<text text-anchor="start" x="940" y="-778.5" font-family="Helvetica,sans-Serif" font-size="10.00" fill="#000000">+ addElementRandomAccess()</text>
<text text-anchor="start" x="940" y="-767.5" font-family="Helvetica,sans-Serif" font-size="10.00" fill="#000000">+ setFrom()</text>
<text text-anchor="start" x="940" y="-756.5" font-family="Helvetica,sans-Serif" font-size="10.00" fill="#000000">+ mergeAtBack()</text>
<text text-anchor="start" x="940" y="-745.5" font-family="Helvetica,sans-Serif" font-size="10.00" fill="#000000">+ mergeAtBack()</text>
<text text-anchor="start" x="940" y="-734.5" font-family="Helvetica,sans-Serif" font-size="10.00" fill="#000000">+ flatten_to()</text>
<text text-anchor="start" x="940" y="-723.5" font-family="Helvetica,sans-Serif" font-size="10.00" fill="#000000">+ restore_from()</text>
<text text-anchor="start" x="940" y="-712.5" font-family="Helvetica,sans-Serif" font-size="10.00" fill="#000000">+ print()</text>
<text text-anchor="start" x="940" y="-701.5" font-family="Helvetica,sans-Serif" font-size="10.00" fill="#000000">+ inflate()</text>
<text text-anchor="start" x="940" y="-690.5" font-family="Helvetica,sans-Serif" font-size="10.00" fill="#000000">+ deflate()</text>
<text text-anchor="start" x="940" y="-679.5" font-family="Helvetica,sans-Serif" font-size="10.00" fill="#000000">+ ClassDefNV()</text>
</a>
</g>
</g>
<!-- Node13&#45;&gt;Node12 -->
<g id="edge9" class="edge">
<title>Node13&#45;&gt;Node12</title>
<path fill="none" stroke="#ffa500" d="M1008.5,-662.3316C1008.5,-649.7968 1008.5,-637.1973 1008.5,-624.7093"/>
<polygon fill="#ffa500" stroke="#ffa500" points="1005.0001,-662.367 1008.5,-672.367 1012.0001,-662.3671 1005.0001,-662.367"/>
<text text-anchor="middle" x="1060" y="-646" font-family="Helvetica,sans-Serif" font-size="10.00" fill="#000000"> &lt; o2::MCCompLabel &gt;</text>
</g>
<!-- Node14 -->
<g id="node11" class="node">
<title>Node14</title>
<polygon fill="none" stroke="#bfbfbf" points="1105,-402.5 1105,-470.5 1216,-470.5 1216,-402.5 1105,-402.5"/>
<text text-anchor="start" x="1113" y="-458.5" font-family="Helvetica,sans-Serif" font-size="10.00" fill="#000000">vector&lt; o2::itsmft</text>
<text text-anchor="middle" x="1160.5" y="-447.5" font-family="Helvetica,sans-Serif" font-size="10.00" fill="#000000">::CompClusterExt &gt; *</text>
<polyline fill="none" stroke="#bfbfbf" points="1105,-440.5 1216,-440.5 "/>
<text text-anchor="middle" x="1160.5" y="-428.5" font-family="Helvetica,sans-Serif" font-size="10.00" fill="#000000"> </text>
<polyline fill="none" stroke="#bfbfbf" points="1105,-421.5 1216,-421.5 "/>
<text text-anchor="middle" x="1160.5" y="-409.5" font-family="Helvetica,sans-Serif" font-size="10.00" fill="#000000"> </text>
</g>
<!-- Node14&#45;&gt;Node4 -->
<g id="edge10" class="edge">
<title>Node14&#45;&gt;Node4</title>
<path fill="none" stroke="#404040" d="M1152.5985,-402.416C1142.7696,-363.546 1123.8751,-298.8109 1096.5,-248 1091.6929,-239.0777 1086.8595,-239.1494 1082.5,-230 1063.0694,-189.2208 1084.0484,-168.9193 1059.5,-131 1052.7228,-120.5314 1043.9435,-110.9645 1034.427,-102.4321"/>
<polygon fill="none" stroke="#404040" points="1034.2875,-102.3143 1027.1224,-101.5 1025.1183,-94.5729 1032.2834,-95.3873 1034.2875,-102.3143"/>
<text text-anchor="middle" x="1138" y="-178" font-family="Helvetica,sans-Serif" font-size="10.00" fill="#000000"> #mClusterCompArrayPtr</text>
</g>
<!-- Node15 -->
<g id="node12" class="node">
<title>Node15</title>
<polygon fill="none" stroke="#bfbfbf" points="1234.5,-402.5 1234.5,-470.5 1346.5,-470.5 1346.5,-402.5 1234.5,-402.5"/>
<text text-anchor="start" x="1242.5" y="-458.5" font-family="Helvetica,sans-Serif" font-size="10.00" fill="#000000">vector&lt; o2::itsmft</text>
<text text-anchor="middle" x="1290.5" y="-447.5" font-family="Helvetica,sans-Serif" font-size="10.00" fill="#000000">::MC2ROFRecord &gt; *</text>
<polyline fill="none" stroke="#bfbfbf" points="1234.5,-440.5 1346.5,-440.5 "/>
<text text-anchor="middle" x="1290.5" y="-428.5" font-family="Helvetica,sans-Serif" font-size="10.00" fill="#000000"> </text>
<polyline fill="none" stroke="#bfbfbf" points="1234.5,-421.5 1346.5,-421.5 "/>
<text text-anchor="middle" x="1290.5" y="-409.5" font-family="Helvetica,sans-Serif" font-size="10.00" fill="#000000"> </text>
</g>
<!-- Node15&#45;&gt;Node4 -->
<g id="edge11" class="edge">
<title>Node15&#45;&gt;Node4</title>
<path fill="none" stroke="#404040" d="M1280.1956,-402.2852C1268.36,-364.1246 1247.6967,-300.8159 1225.5,-248 1222.0346,-239.7543 1219.533,-238.4143 1216.5,-230 1201.1822,-187.5046 1224.0978,-164.2305 1193.5,-131 1172.0536,-107.7083 1096.368,-86.1836 1037.2047,-72.3228"/>
<polygon fill="none" stroke="#404040" points="1036.9297,-72.2596 1030.1856,-74.8125 1025.2352,-69.5691 1031.9793,-67.0162 1036.9297,-72.2596"/>
<text text-anchor="middle" x="1265" y="-178" font-family="Helvetica,sans-Serif" font-size="10.00" fill="#000000"> #mClusMC2ROFsPtr</text>
</g>
<!-- Node16 -->
<g id="node13" class="node">
<title>Node16</title>
<polygon fill="none" stroke="#bfbfbf" points="1365,-408 1365,-465 1394,-465 1394,-408 1365,-408"/>
<text text-anchor="middle" x="1379.5" y="-453" font-family="Helvetica,sans-Serif" font-size="10.00" fill="#000000">int</text>
<polyline fill="none" stroke="#bfbfbf" points="1365,-446 1394,-446 "/>
<text text-anchor="middle" x="1379.5" y="-434" font-family="Helvetica,sans-Serif" font-size="10.00" fill="#000000"> </text>
<polyline fill="none" stroke="#bfbfbf" points="1365,-427 1394,-427 "/>
<text text-anchor="middle" x="1379.5" y="-415" font-family="Helvetica,sans-Serif" font-size="10.00" fill="#000000"> </text>
</g>
<!-- Node16&#45;&gt;Node4 -->
<g id="edge12" class="edge">
<title>Node16&#45;&gt;Node4</title>
<path fill="none" stroke="#404040" d="M1381.6302,-407.9501C1383.2632,-369.4574 1381.7712,-299.7788 1355.5,-248 1350.2368,-237.6266 1342.2833,-240.0927 1336.5,-230 1314.0414,-190.8068 1345.7544,-162.6251 1313.5,-131 1275.0294,-93.2801 1128.5728,-72.5669 1037.1306,-63.068"/>
<polygon fill="none" stroke="#404040" points="1037.1003,-63.065 1030.7278,-66.4401 1025.1614,-61.8559 1031.5339,-58.4808 1037.1003,-63.065"/>
<text text-anchor="middle" x="1404.5" y="-222" font-family="Helvetica,sans-Serif" font-size="10.00" fill="#000000"> #mDetName</text>
<text text-anchor="middle" x="1404.5" y="-211" font-family="Helvetica,sans-Serif" font-size="10.00" fill="#000000">#mClusterPattBranchName</text>
<text text-anchor="middle" x="1404.5" y="-200" font-family="Helvetica,sans-Serif" font-size="10.00" fill="#000000">#mClustMC2ROFBranchName</text>
<text text-anchor="middle" x="1404.5" y="-189" font-family="Helvetica,sans-Serif" font-size="10.00" fill="#000000">#mClusROFBranchName</text>
<text text-anchor="middle" x="1404.5" y="-178" font-family="Helvetica,sans-Serif" font-size="10.00" fill="#000000">#mDetNameLC</text>
<text text-anchor="middle" x="1404.5" y="-167" font-family="Helvetica,sans-Serif" font-size="10.00" fill="#000000">#mClusTreeName</text>
<text text-anchor="middle" x="1404.5" y="-156" font-family="Helvetica,sans-Serif" font-size="10.00" fill="#000000">#mFileName</text>
<text text-anchor="middle" x="1404.5" y="-145" font-family="Helvetica,sans-Serif" font-size="10.00" fill="#000000">#mClusterCompBranchName</text>
<text text-anchor="middle" x="1404.5" y="-134" font-family="Helvetica,sans-Serif" font-size="10.00" fill="#000000">#mClustMCTruthBranchName</text>
</g>
<!-- Node17 -->
<g id="node14" class="node">
<title>Node17</title>
<polygon fill="none" stroke="#bfbfbf" points="1477,-408 1477,-465 1512,-465 1512,-408 1477,-408"/>
<text text-anchor="middle" x="1494.5" y="-453" font-family="Helvetica,sans-Serif" font-size="10.00" fill="#000000">bool</text>
<polyline fill="none" stroke="#bfbfbf" points="1477,-446 1512,-446 "/>
<text text-anchor="middle" x="1494.5" y="-434" font-family="Helvetica,sans-Serif" font-size="10.00" fill="#000000"> </text>
<polyline fill="none" stroke="#bfbfbf" points="1477,-427 1512,-427 "/>
<text text-anchor="middle" x="1494.5" y="-415" font-family="Helvetica,sans-Serif" font-size="10.00" fill="#000000"> </text>
</g>
<!-- Node17&#45;&gt;Node4 -->
<g id="edge13" class="edge">
<title>Node17&#45;&gt;Node4</title>
<path fill="none" stroke="#404040" d="M1494.4409,-407.8616C1494.015,-335.7528 1491.1008,-151.0084 1472.5,-131 1443.3097,-99.6007 1172.4588,-73.5315 1037.3726,-62.3569"/>
<polygon fill="none" stroke="#404040" points="1037.0894,-62.3337 1030.7829,-65.8306 1025.1294,-61.3541 1031.436,-57.8573 1037.0894,-62.3337"/>
<text text-anchor="middle" x="1523" y="-183.5" font-family="Helvetica,sans-Serif" font-size="10.00" fill="#000000"> #mUseMC</text>
<text text-anchor="middle" x="1523" y="-172.5" font-family="Helvetica,sans-Serif" font-size="10.00" fill="#000000">#mUsePatterns</text>
</g>
<!-- Node18 -->
<g id="node15" class="node">
<title>Node18</title>
<polygon fill="none" stroke="#bfbfbf" points="1532,-402.5 1532,-470.5 1637,-470.5 1637,-402.5 1532,-402.5"/>
<text text-anchor="start" x="1540" y="-458.5" font-family="Helvetica,sans-Serif" font-size="10.00" fill="#000000">vector&lt; o2::itsmft</text>
<text text-anchor="middle" x="1584.5" y="-447.5" font-family="Helvetica,sans-Serif" font-size="10.00" fill="#000000">::MC2ROFRecord &gt;</text>
<polyline fill="none" stroke="#bfbfbf" points="1532,-440.5 1637,-440.5 "/>
<text text-anchor="middle" x="1584.5" y="-428.5" font-family="Helvetica,sans-Serif" font-size="10.00" fill="#000000"> </text>
<polyline fill="none" stroke="#bfbfbf" points="1532,-421.5 1637,-421.5 "/>
<text text-anchor="middle" x="1584.5" y="-409.5" font-family="Helvetica,sans-Serif" font-size="10.00" fill="#000000"> </text>
</g>
<!-- Node18&#45;&gt;Node4 -->
<g id="edge14" class="edge">
<title>Node18&#45;&gt;Node4</title>
<path fill="none" stroke="#404040" d="M1587.0864,-402.4319C1591.7171,-331.0265 1597.822,-169.1236 1561.5,-131 1525.8774,-93.6106 1190.4535,-69.6803 1037.2135,-60.6115"/>
<polygon fill="none" stroke="#404040" points="1037.1536,-60.6081 1030.9303,-64.251 1025.1741,-59.9075 1031.3974,-56.2646 1037.1536,-60.6081"/>
<text text-anchor="middle" x="1630" y="-178" font-family="Helvetica,sans-Serif" font-size="10.00" fill="#000000"> #mClusMC2ROFs</text>
</g>
<!-- Node19 -->
<g id="node16" class="node">
<title>Node19</title>
<polygon fill="none" stroke="#bfbfbf" points="1655.5,-402.5 1655.5,-470.5 1759.5,-470.5 1759.5,-402.5 1655.5,-402.5"/>
<text text-anchor="start" x="1663.5" y="-458.5" font-family="Helvetica,sans-Serif" font-size="10.00" fill="#000000">vector&lt; o2::itsmft</text>
<text text-anchor="middle" x="1707.5" y="-447.5" font-family="Helvetica,sans-Serif" font-size="10.00" fill="#000000">::CompClusterExt &gt;</text>
<polyline fill="none" stroke="#bfbfbf" points="1655.5,-440.5 1759.5,-440.5 "/>
<text text-anchor="middle" x="1707.5" y="-428.5" font-family="Helvetica,sans-Serif" font-size="10.00" fill="#000000"> </text>
<polyline fill="none" stroke="#bfbfbf" points="1655.5,-421.5 1759.5,-421.5 "/>
<text text-anchor="middle" x="1707.5" y="-409.5" font-family="Helvetica,sans-Serif" font-size="10.00" fill="#000000"> </text>
</g>
<!-- Node19&#45;&gt;Node4 -->
<g id="edge15" class="edge">
<title>Node19&#45;&gt;Node4</title>
<path fill="none" stroke="#404040" d="M1709.1864,-402.3158C1711.9319,-330.6849 1713.769,-168.3695 1676.5,-131 1631.9613,-86.3411 1211.9343,-65.758 1037.1934,-59.0745"/>
<polygon fill="none" stroke="#404040" points="1037.036,-59.0687 1030.8898,-62.8401 1025.0445,-58.6172 1031.1908,-54.8457 1037.036,-59.0687"/>
<text text-anchor="middle" x="1753.5" y="-178" font-family="Helvetica,sans-Serif" font-size="10.00" fill="#000000"> #mClusterCompArray</text>
</g>
<!-- Node20 -->
<g id="node17" class="node">
<title>Node20</title>
<polygon fill="none" stroke="#bfbfbf" points="1779.5,-402.5 1779.5,-470.5 1873.5,-470.5 1873.5,-402.5 1779.5,-402.5"/>
<text text-anchor="start" x="1787.5" y="-458.5" font-family="Helvetica,sans-Serif" font-size="10.00" fill="#000000">vector&lt; o2::itsmft</text>
<text text-anchor="middle" x="1826.5" y="-447.5" font-family="Helvetica,sans-Serif" font-size="10.00" fill="#000000">::ROFRecord &gt; *</text>
<polyline fill="none" stroke="#bfbfbf" points="1779.5,-440.5 1873.5,-440.5 "/>
<text text-anchor="middle" x="1826.5" y="-428.5" font-family="Helvetica,sans-Serif" font-size="10.00" fill="#000000"> </text>
<polyline fill="none" stroke="#bfbfbf" points="1779.5,-421.5 1873.5,-421.5 "/>
<text text-anchor="middle" x="1826.5" y="-409.5" font-family="Helvetica,sans-Serif" font-size="10.00" fill="#000000"> </text>
</g>
<!-- Node20&#45;&gt;Node4 -->
<g id="edge16" class="edge">
<title>Node20&#45;&gt;Node4</title>
<path fill="none" stroke="#404040" d="M1836.4883,-402.4115C1852.6772,-339.2327 1876.1043,-203.7779 1804.5,-131 1751.2543,-76.8816 1234.4533,-61.5875 1037.3479,-57.7037"/>
<polygon fill="none" stroke="#404040" points="1037.113,-57.6993 1031.0374,-61.5835 1025.1152,-57.4693 1031.1908,-53.585 1037.113,-57.6993"/>
<text text-anchor="middle" x="1893" y="-178" font-family="Helvetica,sans-Serif" font-size="10.00" fill="#000000"> #mClusROFRecPtr</text>
</g>
</g>
</svg>
        <g id="navigator" transform="translate(0 0)" fill="#404254">
                <rect fill="#f2f5e9" fill-opacity="0.5" stroke="#606060" stroke-width=".5" x="0" y="0" width="60" height="60"/>
                <use id="zoomplus" xlink:href="#zoomPlus" x="17" y="9" onmousedown="handleZoom(evt,'in')"/>
                <use id="zoomminus" xlink:href="#zoomMin" x="42" y="9" onmousedown="handleZoom(evt,'out')"/>
                <use id="reset" xlink:href="#resetDef" x="30" y="36" onmousedown="handleReset()"/>
                <g id="arrowUp" xlink:href="#dirArrow" transform="translate(30 24)" onmousedown="handlePan(0,-1)">
                  <use xlink:href="#rim" fill="#404040">
                        <set attributeName="fill" to="#808080" begin="arrowUp.mouseover" end="arrowUp.mouseout"/>
                  </use>
                  <path fill="none" stroke="white" stroke-width="1.5" d="M0,-3.0v7 M-2.5,-0.5L0,-3.0L2.5,-0.5"/>
                </g>
                <g id="arrowRight" xlink:href="#dirArrow" transform="rotate(90) translate(36 -43)" onmousedown="handlePan(1,0)">
                  <use xlink:href="#rim" fill="#404040">
                        <set attributeName="fill" to="#808080" begin="arrowRight.mouseover" end="arrowRight.mouseout"/>
                  </use>
                  <path fill="none" stroke="white" stroke-width="1.5" d="M0,-3.0v7 M-2.5,-0.5L0,-3.0L2.5,-0.5"/>
                </g>
                <g id="arrowDown" xlink:href="#dirArrow" transform="rotate(180) translate(-30 -48)" onmousedown="handlePan(0,1)">
                  <use xlink:href="#rim" fill="#404040">
                        <set attributeName="fill" to="#808080" begin="arrowDown.mouseover" end="arrowDown.mouseout"/>
                  </use>
                  <path fill="none" stroke="white" stroke-width="1.5" d="M0,-3.0v7 M-2.5,-0.5L0,-3.0L2.5,-0.5"/>
                </g>
                <g id="arrowLeft" xlink:href="#dirArrow" transform="rotate(270) translate(-36 17)" onmousedown="handlePan(-1,0)">
                  <use xlink:href="#rim" fill="#404040">
                        <set attributeName="fill" to="#808080" begin="arrowLeft.mouseover" end="arrowLeft.mouseout"/>
                  </use>
                  <path fill="none" stroke="white" stroke-width="1.5" d="M0,-3.0v7 M-2.5,-0.5L0,-3.0L2.5,-0.5"/>
                </g>
        </g>
        <svg viewBox="0 0 15 15" width="100%" height="30px" preserveAspectRatio="xMaxYMin meet">
         <g id="arrow_out" transform="scale(0.3 0.3)">
          <a xlink:href="classo2_1_1itsmft_1_1ClusterReader__coll__graph_org.svg" target="_base">
           <rect id="button" ry="5" rx="5" y="6" x="6" height="38" width="38"
                fill="#f2f5e9" fill-opacity="0.5" stroke="#606060" stroke-width="1.0"/>
           <path id="arrow"
             d="M 11.500037,31.436501 C 11.940474,20.09759 22.043105,11.32322 32.158766,21.979434 L 37.068811,17.246167 C 37.068811,17.246167 37.088388,32 37.088388,32 L 22.160133,31.978069 C 22.160133,31.978069 26.997745,27.140456 26.997745,27.140456 C 18.528582,18.264221 13.291696,25.230495 11.500037,31.436501 z"
             style="fill:#404040;"/>
          </a>
         </g>
        </svg>
</svg>
