<?xml version="1.0" encoding="UTF-8" standalone="no"?>
<!DOCTYPE svg PUBLIC "-//W3C//DTD SVG 1.1//EN"
 "http://www.w3.org/Graphics/SVG/1.1/DTD/svg11.dtd">
<!-- Generated by graphviz version 2.40.1 (20161225.0304)
 -->
<!-- Title: /home/runner/work/AliceO2/AliceO2/Detectors/MUON/MCH/Tracking/include/MCHTracking/TrackFitter.h Pages: 1 -->
<svg width="1011pt" height="239pt"
 viewBox="0.00 0.00 1011.00 239.00" xmlns="http://www.w3.org/2000/svg" xmlns:xlink="http://www.w3.org/1999/xlink">
<g id="graph0" class="graph" transform="scale(1 1) rotate(0) translate(4 235)">
<title>/home/runner/work/AliceO2/AliceO2/Detectors/MUON/MCH/Tracking/include/MCHTracking/TrackFitter.h</title>
<!-- Node11 -->
<g id="node1" class="node">
<title>Node11</title>
<polygon fill="#bfbfbf" stroke="#000000" points="518,-178.5 518,-230.5 699,-230.5 699,-178.5 518,-178.5"/>
<text text-anchor="start" x="526" y="-218.5" font-family="Helvetica,sans-Serif" font-size="10.00" fill="#000000">/home/runner/work/AliceO2</text>
<text text-anchor="start" x="526" y="-207.5" font-family="Helvetica,sans-Serif" font-size="10.00" fill="#000000">/AliceO2/Detectors/MUON</text>
<text text-anchor="start" x="526" y="-196.5" font-family="Helvetica,sans-Serif" font-size="10.00" fill="#000000">/MCH/Tracking/include/MCHTracking</text>
<text text-anchor="middle" x="608.5" y="-185.5" font-family="Helvetica,sans-Serif" font-size="10.00" fill="#000000">/TrackFitter.h</text>
</g>
<!-- Node12 -->
<g id="node2" class="node">
<title>Node12</title>
<g id="a_node2"><a xlink:href="../../d5/d91/TrackFinder_8h.html" target="_top" xlink:title="Definition of a class to reconstruct tracks. ">
<polygon fill="none" stroke="#000000" points="201,-89.5 201,-141.5 382,-141.5 382,-89.5 201,-89.5"/>
<text text-anchor="start" x="209" y="-129.5" font-family="Helvetica,sans-Serif" font-size="10.00" fill="#000000">/home/runner/work/AliceO2</text>
<text text-anchor="start" x="209" y="-118.5" font-family="Helvetica,sans-Serif" font-size="10.00" fill="#000000">/AliceO2/Detectors/MUON</text>
<text text-anchor="start" x="209" y="-107.5" font-family="Helvetica,sans-Serif" font-size="10.00" fill="#000000">/MCH/Tracking/include/MCHTracking</text>
<text text-anchor="middle" x="291.5" y="-96.5" font-family="Helvetica,sans-Serif" font-size="10.00" fill="#000000">/TrackFinder.h</text>
</a>
</g>
</g>
<!-- Node11&#45;&gt;Node12 -->
<g id="edge1" class="edge">
<title>Node11&#45;&gt;Node12</title>
<path fill="none" stroke="#191970" d="M507.8079,-176.23C467.4706,-164.905 421.345,-151.9549 382.0784,-140.9305"/>
<polygon fill="#191970" stroke="#191970" points="507.0867,-179.6628 517.6605,-178.9962 508.9789,-172.9233 507.0867,-179.6628"/>
</g>
<!-- Node15 -->
<g id="node5" class="node">
<title>Node15</title>
<g id="a_node5"><a xlink:href="../../d7/d7f/TrackFinderOriginal_8h.html" target="_top" xlink:title="Definition of a class to reconstruct tracks with the original algorithm. ">
<polygon fill="none" stroke="#000000" points="422,-89.5 422,-141.5 603,-141.5 603,-89.5 422,-89.5"/>
<text text-anchor="start" x="430" y="-129.5" font-family="Helvetica,sans-Serif" font-size="10.00" fill="#000000">/home/runner/work/AliceO2</text>
<text text-anchor="start" x="430" y="-118.5" font-family="Helvetica,sans-Serif" font-size="10.00" fill="#000000">/AliceO2/Detectors/MUON</text>
<text text-anchor="start" x="430" y="-107.5" font-family="Helvetica,sans-Serif" font-size="10.00" fill="#000000">/MCH/Tracking/include/MCHTracking</text>
<text text-anchor="middle" x="512.5" y="-96.5" font-family="Helvetica,sans-Serif" font-size="10.00" fill="#000000">/TrackFinderOriginal.h</text>
</a>
</g>
</g>
<!-- Node11&#45;&gt;Node15 -->
<g id="edge4" class="edge">
<title>Node11&#45;&gt;Node15</title>
<path fill="none" stroke="#191970" d="M572.6774,-171.2894C562.0737,-161.459 550.6212,-150.8415 540.5818,-141.5341"/>
<polygon fill="#191970" stroke="#191970" points="570.5031,-174.0464 580.2161,-178.2784 575.2622,-168.9131 570.5031,-174.0464"/>
</g>
<!-- Node18 -->
<g id="node8" class="node">
<title>Node18</title>
<g id="a_node8"><a xlink:href="../../de/db3/MUON_2MCH_2Tracking_2src_2TrackFitter_8cxx.html" target="_top" xlink:title="/home/runner/work/AliceO2\l/AliceO2/Detectors/MUON\l/MCH/Tracking/src/TrackFitter.cxx">
<polygon fill="none" stroke="#000000" points="621,-95 621,-136 790,-136 790,-95 621,-95"/>
<text text-anchor="start" x="629" y="-124" font-family="Helvetica,sans-Serif" font-size="10.00" fill="#000000">/home/runner/work/AliceO2</text>
<text text-anchor="start" x="629" y="-113" font-family="Helvetica,sans-Serif" font-size="10.00" fill="#000000">/AliceO2/Detectors/MUON</text>
<text text-anchor="middle" x="705.5" y="-102" font-family="Helvetica,sans-Serif" font-size="10.00" fill="#000000">/MCH/Tracking/src/TrackFitter.cxx</text>
</a>
</g>
</g>
<!-- Node11&#45;&gt;Node18 -->
<g id="edge7" class="edge">
<title>Node11&#45;&gt;Node18</title>
<path fill="none" stroke="#191970" d="M644.4915,-171.4768C657.3814,-159.6501 671.5364,-146.6625 682.9643,-136.1771"/>
<polygon fill="#191970" stroke="#191970" points="642.0807,-168.9388 637.0786,-178.2784 646.8132,-174.0967 642.0807,-168.9388"/>
</g>
<!-- Node19 -->
<g id="node9" class="node">
<title>Node19</title>
<g id="a_node9"><a xlink:href="../../db/d54/TrackFitterSpec_8cxx.html" target="_top" xlink:title="Implementation of a data processor to read, refit and send tracks with attached clusters. ">
<polygon fill="none" stroke="#000000" points="808,-95 808,-136 1003,-136 1003,-95 808,-95"/>
<text text-anchor="start" x="816" y="-124" font-family="Helvetica,sans-Serif" font-size="10.00" fill="#000000">/home/runner/work/AliceO2</text>
<text text-anchor="start" x="816" y="-113" font-family="Helvetica,sans-Serif" font-size="10.00" fill="#000000">/AliceO2/Detectors/MUON</text>
<text text-anchor="middle" x="905.5" y="-102" font-family="Helvetica,sans-Serif" font-size="10.00" fill="#000000">/MCH/Workflow/src/TrackFitterSpec.cxx</text>
</a>
</g>
</g>
<!-- Node11&#45;&gt;Node19 -->
<g id="edge8" class="edge">
<title>Node11&#45;&gt;Node19</title>
<path fill="none" stroke="#191970" d="M705.2267,-175.5145C748.1745,-162.6447 797.7264,-147.7958 836.796,-136.0881"/>
<polygon fill="#191970" stroke="#191970" points="704.1775,-172.1751 695.603,-178.3984 706.1869,-178.8805 704.1775,-172.1751"/>
</g>
<!-- Node13 -->
<g id="node3" class="node">
<title>Node13</title>
<g id="a_node3"><a xlink:href="../../d1/d8b/TrackFinder_8cxx.html" target="_top" xlink:title="Implementation of a class to reconstruct tracks. ">
<polygon fill="none" stroke="#000000" points="0,-6 0,-47 173,-47 173,-6 0,-6"/>
<text text-anchor="start" x="8" y="-35" font-family="Helvetica,sans-Serif" font-size="10.00" fill="#000000">/home/runner/work/AliceO2</text>
<text text-anchor="start" x="8" y="-24" font-family="Helvetica,sans-Serif" font-size="10.00" fill="#000000">/AliceO2/Detectors/MUON</text>
<text text-anchor="middle" x="86.5" y="-13" font-family="Helvetica,sans-Serif" font-size="10.00" fill="#000000">/MCH/Tracking/src/TrackFinder.cxx</text>
</a>
</g>
</g>
<!-- Node12&#45;&gt;Node13 -->
<g id="edge2" class="edge">
<title>Node12&#45;&gt;Node13</title>
<path fill="none" stroke="#191970" d="M222.1086,-85.374C193.0861,-72.7739 160.0961,-58.4515 133.9219,-47.0881"/>
<polygon fill="#191970" stroke="#191970" points="220.8117,-88.6265 231.3784,-89.3984 223.5994,-82.2055 220.8117,-88.6265"/>
</g>
<!-- Node14 -->
<g id="node4" class="node">
<title>Node14</title>
<g id="a_node4"><a xlink:href="../../dd/dea/TrackFinderSpec_8cxx.html" target="_top" xlink:title="Implementation of a data processor to read clusters, reconstruct tracks and send them. ">
<polygon fill="none" stroke="#000000" points="191.5,-6 191.5,-47 391.5,-47 391.5,-6 191.5,-6"/>
<text text-anchor="start" x="199.5" y="-35" font-family="Helvetica,sans-Serif" font-size="10.00" fill="#000000">/home/runner/work/AliceO2</text>
<text text-anchor="start" x="199.5" y="-24" font-family="Helvetica,sans-Serif" font-size="10.00" fill="#000000">/AliceO2/Detectors/MUON</text>
<text text-anchor="middle" x="291.5" y="-13" font-family="Helvetica,sans-Serif" font-size="10.00" fill="#000000">/MCH/Workflow/src/TrackFinderSpec.cxx</text>
</a>
</g>
</g>
<!-- Node12&#45;&gt;Node14 -->
<g id="edge3" class="edge">
<title>Node12&#45;&gt;Node14</title>
<path fill="none" stroke="#191970" d="M291.5,-79.1335C291.5,-68.2443 291.5,-56.6825 291.5,-47.1771"/>
<polygon fill="#191970" stroke="#191970" points="288.0001,-79.2784 291.5,-89.2784 295.0001,-79.2785 288.0001,-79.2784"/>
</g>
<!-- Node16 -->
<g id="node6" class="node">
<title>Node16</title>
<g id="a_node6"><a xlink:href="../../d6/d6d/TrackFinderOriginal_8cxx.html" target="_top" xlink:title="Implementation of a class to reconstruct tracks with the original algorithm. ">
<polygon fill="none" stroke="#000000" points="409.5,-6 409.5,-47 615.5,-47 615.5,-6 409.5,-6"/>
<text text-anchor="start" x="417.5" y="-35" font-family="Helvetica,sans-Serif" font-size="10.00" fill="#000000">/home/runner/work/AliceO2</text>
<text text-anchor="start" x="417.5" y="-24" font-family="Helvetica,sans-Serif" font-size="10.00" fill="#000000">/AliceO2/Detectors/MUON</text>
<text text-anchor="middle" x="512.5" y="-13" font-family="Helvetica,sans-Serif" font-size="10.00" fill="#000000">/MCH/Tracking/src/TrackFinderOriginal.cxx</text>
</a>
</g>
</g>
<!-- Node15&#45;&gt;Node16 -->
<g id="edge5" class="edge">
<title>Node15&#45;&gt;Node16</title>
<path fill="none" stroke="#191970" d="M512.5,-79.1335C512.5,-68.2443 512.5,-56.6825 512.5,-47.1771"/>
<polygon fill="#191970" stroke="#191970" points="509.0001,-79.2784 512.5,-89.2784 516.0001,-79.2785 509.0001,-79.2784"/>
</g>
<!-- Node17 -->
<g id="node7" class="node">
<title>Node17</title>
<g id="a_node7"><a xlink:href="../../d7/d30/TrackFinderOriginalSpec_8cxx.html" target="_top" xlink:title="Implementation of a data processor to read clusters, reconstruct tracks and send them. ">
<polygon fill="none" stroke="#000000" points="634,-.5 634,-52.5 825,-52.5 825,-.5 634,-.5"/>
<text text-anchor="start" x="642" y="-40.5" font-family="Helvetica,sans-Serif" font-size="10.00" fill="#000000">/home/runner/work/AliceO2</text>
<text text-anchor="start" x="642" y="-29.5" font-family="Helvetica,sans-Serif" font-size="10.00" fill="#000000">/AliceO2/Detectors/MUON</text>
<text text-anchor="start" x="642" y="-18.5" font-family="Helvetica,sans-Serif" font-size="10.00" fill="#000000">/MCH/Workflow/src/TrackFinderOriginal</text>
<text text-anchor="middle" x="729.5" y="-7.5" font-family="Helvetica,sans-Serif" font-size="10.00" fill="#000000">Spec.cxx</text>
</a>
</g>
</g>
<!-- Node15&#45;&gt;Node17 -->
<g id="edge6" class="edge">
<title>Node15&#45;&gt;Node17</title>
<path fill="none" stroke="#191970" d="M585.5789,-85.5276C611.6063,-74.8527 640.6882,-62.9251 665.8602,-52.6011"/>
<polygon fill="#191970" stroke="#191970" points="584.0649,-82.3655 576.1409,-89.3984 586.7211,-88.842 584.0649,-82.3655"/>
</g>
</g>
</svg>
