<?xml version="1.0" encoding="UTF-8" standalone="no"?>
<!DOCTYPE svg PUBLIC "-//W3C//DTD SVG 1.1//EN"
 "http://www.w3.org/Graphics/SVG/1.1/DTD/svg11.dtd">
<!-- Generated by graphviz version 2.40.1 (20161225.0304)
 -->
<!-- Title: o2::itsmft::PixelReader Pages: 1 -->
<svg width="416pt" height="837pt"
 viewBox="0.00 0.00 415.50 837.00" xmlns="http://www.w3.org/2000/svg" xmlns:xlink="http://www.w3.org/1999/xlink">
<g id="graph0" class="graph" transform="scale(1 1) rotate(0) translate(4 833)">
<title>o2::itsmft::PixelReader</title>
<!-- Node5 -->
<g id="node1" class="node">
<title>Node5</title>
<polygon fill="#bfbfbf" stroke="#000000" points="201,-.5 201,-211.5 338,-211.5 338,-.5 201,-.5"/>
<text text-anchor="middle" x="269.5" y="-199.5" font-family="Helvetica,sans-Serif" font-size="10.00" fill="#000000">o2::itsmft::PixelReader</text>
<polyline fill="none" stroke="#000000" points="201,-192.5 338,-192.5 "/>
<text text-anchor="middle" x="269.5" y="-180.5" font-family="Helvetica,sans-Serif" font-size="10.00" fill="#000000"> </text>
<polyline fill="none" stroke="#000000" points="201,-173.5 338,-173.5 "/>
<text text-anchor="start" x="209" y="-161.5" font-family="Helvetica,sans-Serif" font-size="10.00" fill="#000000">+ PixelReader()</text>
<text text-anchor="start" x="209" y="-150.5" font-family="Helvetica,sans-Serif" font-size="10.00" fill="#000000">+ ~PixelReader()</text>
<text text-anchor="start" x="209" y="-139.5" font-family="Helvetica,sans-Serif" font-size="10.00" fill="#000000">+ PixelReader()</text>
<text text-anchor="start" x="209" y="-128.5" font-family="Helvetica,sans-Serif" font-size="10.00" fill="#000000">+ operator=()</text>
<text text-anchor="start" x="209" y="-117.5" font-family="Helvetica,sans-Serif" font-size="10.00" fill="#000000">+ init()</text>
<text text-anchor="start" x="209" y="-106.5" font-family="Helvetica,sans-Serif" font-size="10.00" fill="#000000">+ getNextChipData()</text>
<text text-anchor="start" x="209" y="-95.5" font-family="Helvetica,sans-Serif" font-size="10.00" fill="#000000">+ getNextChipData()</text>
<text text-anchor="start" x="209" y="-84.5" font-family="Helvetica,sans-Serif" font-size="10.00" fill="#000000">+ decodeNextTrigger()</text>
<text text-anchor="start" x="209" y="-73.5" font-family="Helvetica,sans-Serif" font-size="10.00" fill="#000000">+ getDigitsMCTruth()</text>
<text text-anchor="start" x="209" y="-62.5" font-family="Helvetica,sans-Serif" font-size="10.00" fill="#000000">+ getInteractionRecordHB()</text>
<text text-anchor="start" x="209" y="-51.5" font-family="Helvetica,sans-Serif" font-size="10.00" fill="#000000">+ getInteractionRecord()</text>
<text text-anchor="start" x="209" y="-40.5" font-family="Helvetica,sans-Serif" font-size="10.00" fill="#000000">+ getTrigger()</text>
<text text-anchor="start" x="209" y="-29.5" font-family="Helvetica,sans-Serif" font-size="10.00" fill="#000000">+ getDecodeNextAuto()</text>
<text text-anchor="start" x="209" y="-18.5" font-family="Helvetica,sans-Serif" font-size="10.00" fill="#000000">+ setDecodeNextAuto()</text>
<text text-anchor="start" x="209" y="-7.5" font-family="Helvetica,sans-Serif" font-size="10.00" fill="#000000"># ClassDef()</text>
</g>
<!-- Node6 -->
<g id="node2" class="node">
<title>Node6</title>
<g id="a_node2"><a xlink:href="../../d1/d21/structo2_1_1InteractionRecord.html" target="_top" xlink:title="{o2::InteractionRecord\n||+ InteractionRecord()\l+ InteractionRecord()\l+ InteractionRecord()\l+ InteractionRecord()\l+ clear()\l+ isDummy()\l+ setFromNS()\l+ bc2ns()\l+ operator==()\l+ operator!=()\l+ differenceInBC()\l+ differenceInBCNS()\l+ differenceInBCMS()\l+ toLong()\l+ setFromLong()\l+ operator\&gt;()\l+ operator\&gt;=()\l+ operator\&lt;()\l+ operator\&lt;=()\l+ operator&#45;&#45;()\l+ operator&#45;&#45;()\l+ operator++()\l+ operator++()\l+ operator+=()\l+ operator&#45;=()\l+ operator+=()\l+ operator&#45;=()\l+ operator+()\l+ operator&#45;()\l+ operator+()\l+ operator&#45;()\l+ print()\l+ asString()\l+ ClassDefNV()\l+ bc2ns()\l+ ns2bc()\l}">
<polygon fill="none" stroke="#000000" points="72.5,-270.5 72.5,-712.5 184.5,-712.5 184.5,-270.5 72.5,-270.5"/>
<text text-anchor="middle" x="128.5" y="-700.5" font-family="Helvetica,sans-Serif" font-size="10.00" fill="#000000">o2::InteractionRecord</text>
<polyline fill="none" stroke="#000000" points="72.5,-693.5 184.5,-693.5 "/>
<text text-anchor="middle" x="128.5" y="-681.5" font-family="Helvetica,sans-Serif" font-size="10.00" fill="#000000"> </text>
<polyline fill="none" stroke="#000000" points="72.5,-674.5 184.5,-674.5 "/>
<text text-anchor="start" x="80.5" y="-662.5" font-family="Helvetica,sans-Serif" font-size="10.00" fill="#000000">+ InteractionRecord()</text>
<text text-anchor="start" x="80.5" y="-651.5" font-family="Helvetica,sans-Serif" font-size="10.00" fill="#000000">+ InteractionRecord()</text>
<text text-anchor="start" x="80.5" y="-640.5" font-family="Helvetica,sans-Serif" font-size="10.00" fill="#000000">+ InteractionRecord()</text>
<text text-anchor="start" x="80.5" y="-629.5" font-family="Helvetica,sans-Serif" font-size="10.00" fill="#000000">+ InteractionRecord()</text>
<text text-anchor="start" x="80.5" y="-618.5" font-family="Helvetica,sans-Serif" font-size="10.00" fill="#000000">+ clear()</text>
<text text-anchor="start" x="80.5" y="-607.5" font-family="Helvetica,sans-Serif" font-size="10.00" fill="#000000">+ isDummy()</text>
<text text-anchor="start" x="80.5" y="-596.5" font-family="Helvetica,sans-Serif" font-size="10.00" fill="#000000">+ setFromNS()</text>
<text text-anchor="start" x="80.5" y="-585.5" font-family="Helvetica,sans-Serif" font-size="10.00" fill="#000000">+ bc2ns()</text>
<text text-anchor="start" x="80.5" y="-574.5" font-family="Helvetica,sans-Serif" font-size="10.00" fill="#000000">+ operator==()</text>
<text text-anchor="start" x="80.5" y="-563.5" font-family="Helvetica,sans-Serif" font-size="10.00" fill="#000000">+ operator!=()</text>
<text text-anchor="start" x="80.5" y="-552.5" font-family="Helvetica,sans-Serif" font-size="10.00" fill="#000000">+ differenceInBC()</text>
<text text-anchor="start" x="80.5" y="-541.5" font-family="Helvetica,sans-Serif" font-size="10.00" fill="#000000">+ differenceInBCNS()</text>
<text text-anchor="start" x="80.5" y="-530.5" font-family="Helvetica,sans-Serif" font-size="10.00" fill="#000000">+ differenceInBCMS()</text>
<text text-anchor="start" x="80.5" y="-519.5" font-family="Helvetica,sans-Serif" font-size="10.00" fill="#000000">+ toLong()</text>
<text text-anchor="start" x="80.5" y="-508.5" font-family="Helvetica,sans-Serif" font-size="10.00" fill="#000000">+ setFromLong()</text>
<text text-anchor="start" x="80.5" y="-497.5" font-family="Helvetica,sans-Serif" font-size="10.00" fill="#000000">+ operator&gt;()</text>
<text text-anchor="start" x="80.5" y="-486.5" font-family="Helvetica,sans-Serif" font-size="10.00" fill="#000000">+ operator&gt;=()</text>
<text text-anchor="start" x="80.5" y="-475.5" font-family="Helvetica,sans-Serif" font-size="10.00" fill="#000000">+ operator&lt;()</text>
<text text-anchor="start" x="80.5" y="-464.5" font-family="Helvetica,sans-Serif" font-size="10.00" fill="#000000">+ operator&lt;=()</text>
<text text-anchor="start" x="80.5" y="-453.5" font-family="Helvetica,sans-Serif" font-size="10.00" fill="#000000">+ operator&#45;&#45;()</text>
<text text-anchor="start" x="80.5" y="-442.5" font-family="Helvetica,sans-Serif" font-size="10.00" fill="#000000">+ operator&#45;&#45;()</text>
<text text-anchor="start" x="80.5" y="-431.5" font-family="Helvetica,sans-Serif" font-size="10.00" fill="#000000">+ operator++()</text>
<text text-anchor="start" x="80.5" y="-420.5" font-family="Helvetica,sans-Serif" font-size="10.00" fill="#000000">+ operator++()</text>
<text text-anchor="start" x="80.5" y="-409.5" font-family="Helvetica,sans-Serif" font-size="10.00" fill="#000000">+ operator+=()</text>
<text text-anchor="start" x="80.5" y="-398.5" font-family="Helvetica,sans-Serif" font-size="10.00" fill="#000000">+ operator&#45;=()</text>
<text text-anchor="start" x="80.5" y="-387.5" font-family="Helvetica,sans-Serif" font-size="10.00" fill="#000000">+ operator+=()</text>
<text text-anchor="start" x="80.5" y="-376.5" font-family="Helvetica,sans-Serif" font-size="10.00" fill="#000000">+ operator&#45;=()</text>
<text text-anchor="start" x="80.5" y="-365.5" font-family="Helvetica,sans-Serif" font-size="10.00" fill="#000000">+ operator+()</text>
<text text-anchor="start" x="80.5" y="-354.5" font-family="Helvetica,sans-Serif" font-size="10.00" fill="#000000">+ operator&#45;()</text>
<text text-anchor="start" x="80.5" y="-343.5" font-family="Helvetica,sans-Serif" font-size="10.00" fill="#000000">+ operator+()</text>
<text text-anchor="start" x="80.5" y="-332.5" font-family="Helvetica,sans-Serif" font-size="10.00" fill="#000000">+ operator&#45;()</text>
<text text-anchor="start" x="80.5" y="-321.5" font-family="Helvetica,sans-Serif" font-size="10.00" fill="#000000">+ print()</text>
<text text-anchor="start" x="80.5" y="-310.5" font-family="Helvetica,sans-Serif" font-size="10.00" fill="#000000">+ asString()</text>
<text text-anchor="start" x="80.5" y="-299.5" font-family="Helvetica,sans-Serif" font-size="10.00" fill="#000000">+ ClassDefNV()</text>
<text text-anchor="start" x="80.5" y="-288.5" font-family="Helvetica,sans-Serif" font-size="10.00" fill="#000000">+ bc2ns()</text>
<text text-anchor="start" x="80.5" y="-277.5" font-family="Helvetica,sans-Serif" font-size="10.00" fill="#000000">+ ns2bc()</text>
</a>
</g>
</g>
<!-- Node6&#45;&gt;Node5 -->
<g id="edge1" class="edge">
<title>Node6&#45;&gt;Node5</title>
<path fill="none" stroke="#404040" d="M132.2913,-270.3583C136.0106,-256.4258 140.6829,-242.8519 146.5,-230 157.0304,-206.7351 173.9441,-185.3573 191.9017,-167.143"/>
<polygon fill="none" stroke="#404040" points="192.1991,-166.8521 193.6913,-159.797 200.7776,-158.4611 199.2853,-165.5161 192.1991,-166.8521"/>
<text text-anchor="middle" x="201" y="-244" font-family="Helvetica,sans-Serif" font-size="10.00" fill="#000000"> #mInteractionRecordHB</text>
<text text-anchor="middle" x="201" y="-233" font-family="Helvetica,sans-Serif" font-size="10.00" fill="#000000">#mInteractionRecord</text>
</g>
<!-- Node7 -->
<g id="node3" class="node">
<title>Node7</title>
<polygon fill="none" stroke="#bfbfbf" points="0,-771.5 0,-828.5 45,-828.5 45,-771.5 0,-771.5"/>
<text text-anchor="middle" x="22.5" y="-816.5" font-family="Helvetica,sans-Serif" font-size="10.00" fill="#000000">double</text>
<polyline fill="none" stroke="#bfbfbf" points="0,-809.5 45,-809.5 "/>
<text text-anchor="middle" x="22.5" y="-797.5" font-family="Helvetica,sans-Serif" font-size="10.00" fill="#000000"> </text>
<polyline fill="none" stroke="#bfbfbf" points="0,-790.5 45,-790.5 "/>
<text text-anchor="middle" x="22.5" y="-778.5" font-family="Helvetica,sans-Serif" font-size="10.00" fill="#000000"> </text>
</g>
<!-- Node7&#45;&gt;Node6 -->
<g id="edge2" class="edge">
<title>Node7&#45;&gt;Node6</title>
<path fill="none" stroke="#404040" d="M30.3722,-771.3425C33.9045,-758.8911 38.2315,-744.1697 42.5,-731 50.5325,-706.2173 59.4276,-680.144 68.3617,-654.6897"/>
<polygon fill="none" stroke="#404040" points="68.477,-654.3624 66.6992,-647.3739 72.4664,-643.0449 74.2442,-650.0335 68.477,-654.3624"/>
<text text-anchor="middle" x="75.5" y="-739.5" font-family="Helvetica,sans-Serif" font-size="10.00" fill="#000000"> +DummyTime</text>
</g>
<!-- Node8 -->
<g id="node4" class="node">
<title>Node8</title>
<polygon fill="none" stroke="#bfbfbf" points="86,-771.5 86,-828.5 137,-828.5 137,-771.5 86,-771.5"/>
<text text-anchor="middle" x="111.5" y="-816.5" font-family="Helvetica,sans-Serif" font-size="10.00" fill="#000000">uint16_t</text>
<polyline fill="none" stroke="#bfbfbf" points="86,-809.5 137,-809.5 "/>
<text text-anchor="middle" x="111.5" y="-797.5" font-family="Helvetica,sans-Serif" font-size="10.00" fill="#000000"> </text>
<polyline fill="none" stroke="#bfbfbf" points="86,-790.5 137,-790.5 "/>
<text text-anchor="middle" x="111.5" y="-778.5" font-family="Helvetica,sans-Serif" font-size="10.00" fill="#000000"> </text>
</g>
<!-- Node8&#45;&gt;Node6 -->
<g id="edge3" class="edge">
<title>Node8&#45;&gt;Node6</title>
<path fill="none" stroke="#404040" d="M111.5795,-771.4557C111.7006,-759.0243 111.9602,-744.2873 112.5,-731 112.5843,-728.9246 112.6714,-726.8392 112.7611,-724.745"/>
<polygon fill="none" stroke="#404040" points="112.7652,-724.651 109.0381,-718.4778 113.303,-712.6631 117.0301,-718.8363 112.7652,-724.651"/>
<text text-anchor="middle" x="141.5" y="-745" font-family="Helvetica,sans-Serif" font-size="10.00" fill="#000000"> +DummyBC</text>
<text text-anchor="middle" x="141.5" y="-734" font-family="Helvetica,sans-Serif" font-size="10.00" fill="#000000">+bc</text>
</g>
<!-- Node9 -->
<g id="node5" class="node">
<title>Node9</title>
<g id="a_node5"><a xlink:href="../../d3/d87/classuint32__t.html" target="_top" xlink:title="{uint32_t\n||}">
<polygon fill="none" stroke="#000000" points="205,-771.5 205,-828.5 256,-828.5 256,-771.5 205,-771.5"/>
<text text-anchor="middle" x="230.5" y="-816.5" font-family="Helvetica,sans-Serif" font-size="10.00" fill="#000000">uint32_t</text>
<polyline fill="none" stroke="#000000" points="205,-809.5 256,-809.5 "/>
<text text-anchor="middle" x="230.5" y="-797.5" font-family="Helvetica,sans-Serif" font-size="10.00" fill="#000000"> </text>
<polyline fill="none" stroke="#000000" points="205,-790.5 256,-790.5 "/>
<text text-anchor="middle" x="230.5" y="-778.5" font-family="Helvetica,sans-Serif" font-size="10.00" fill="#000000"> </text>
</a>
</g>
</g>
<!-- Node9&#45;&gt;Node5 -->
<g id="edge5" class="edge">
<title>Node9&#45;&gt;Node5</title>
<path fill="none" stroke="#404040" d="M248.4531,-771.2802C251.3316,-765.4292 253.8899,-759.1705 255.5,-753 280.6758,-656.5171 277.6702,-382.7834 273.4598,-223.9812"/>
<polygon fill="none" stroke="#404040" points="273.4551,-223.8045 269.2934,-217.9155 273.1287,-211.8089 277.2904,-217.6979 273.4551,-223.8045"/>
<text text-anchor="middle" x="299" y="-489" font-family="Helvetica,sans-Serif" font-size="10.00" fill="#000000"> #mTrigger</text>
</g>
<!-- Node9&#45;&gt;Node6 -->
<g id="edge4" class="edge">
<title>Node9&#45;&gt;Node6</title>
<path fill="none" stroke="#404040" d="M204.9686,-771.4482C200.6711,-765.6315 196.605,-759.3424 193.5,-753 188.9044,-743.6129 184.6158,-733.8726 180.6157,-723.9121"/>
<polygon fill="none" stroke="#404040" points="180.56,-723.7682 174.6611,-719.6204 176.2211,-712.5801 182.1199,-716.7279 180.56,-723.7682"/>
<text text-anchor="middle" x="224.5" y="-745" font-family="Helvetica,sans-Serif" font-size="10.00" fill="#000000"> +orbit</text>
<text text-anchor="middle" x="224.5" y="-734" font-family="Helvetica,sans-Serif" font-size="10.00" fill="#000000">+DummyOrbit</text>
</g>
<!-- Node10 -->
<g id="node6" class="node">
<title>Node10</title>
<polygon fill="none" stroke="#bfbfbf" points="335,-463 335,-520 370,-520 370,-463 335,-463"/>
<text text-anchor="middle" x="352.5" y="-508" font-family="Helvetica,sans-Serif" font-size="10.00" fill="#000000">bool</text>
<polyline fill="none" stroke="#bfbfbf" points="335,-501 370,-501 "/>
<text text-anchor="middle" x="352.5" y="-489" font-family="Helvetica,sans-Serif" font-size="10.00" fill="#000000"> </text>
<polyline fill="none" stroke="#bfbfbf" points="335,-482 370,-482 "/>
<text text-anchor="middle" x="352.5" y="-470" font-family="Helvetica,sans-Serif" font-size="10.00" fill="#000000"> </text>
</g>
<!-- Node10&#45;&gt;Node5 -->
<g id="edge6" class="edge">
<title>Node10&#45;&gt;Node5</title>
<path fill="none" stroke="#404040" d="M349.8297,-462.9152C345.5361,-420.4625 335.9749,-338.403 320.5,-270 317.0659,-254.8204 312.9121,-239.0132 308.4747,-223.4653"/>
<polygon fill="none" stroke="#404040" points="308.3868,-223.1629 302.8695,-218.5197 305.0334,-211.6409 310.5508,-216.2841 308.3868,-223.1629"/>
<text text-anchor="middle" x="361.5" y="-238.5" font-family="Helvetica,sans-Serif" font-size="10.00" fill="#000000"> #mDecodeNextAuto</text>
</g>
</g>
</svg>
