<?xml version="1.0" encoding="UTF-8" standalone="no"?>
<!DOCTYPE svg PUBLIC "-//W3C//DTD SVG 1.1//EN"
 "http://www.w3.org/Graphics/SVG/1.1/DTD/svg11.dtd">
<!-- Generated by graphviz version 2.40.1 (20161225.0304)
 -->
<!-- Title: /home/runner/work/AliceO2/AliceO2/Framework/Core/include/Framework/ServiceRegistryHelpers.h Pages: 1 -->
<svg width="721pt" height="229pt"
 viewBox="0.00 0.00 721.00 229.00" xmlns="http://www.w3.org/2000/svg" xmlns:xlink="http://www.w3.org/1999/xlink">
<g id="graph0" class="graph" transform="scale(1 1) rotate(0) translate(4 225)">
<title>/home/runner/work/AliceO2/AliceO2/Framework/Core/include/Framework/ServiceRegistryHelpers.h</title>
<!-- Node0 -->
<g id="node1" class="node">
<title>Node0</title>
<polygon fill="#bfbfbf" stroke="#000000" points="332.5,-168.5 332.5,-220.5 507.5,-220.5 507.5,-168.5 332.5,-168.5"/>
<text text-anchor="start" x="340.5" y="-208.5" font-family="Helvetica,sans-Serif" font-size="10.00" fill="#000000">/home/runner/work/AliceO2</text>
<text text-anchor="start" x="340.5" y="-197.5" font-family="Helvetica,sans-Serif" font-size="10.00" fill="#000000">/AliceO2/Framework/Core</text>
<text text-anchor="start" x="340.5" y="-186.5" font-family="Helvetica,sans-Serif" font-size="10.00" fill="#000000">/include/Framework/ServiceRegistry</text>
<text text-anchor="middle" x="420" y="-175.5" font-family="Helvetica,sans-Serif" font-size="10.00" fill="#000000">Helpers.h</text>
</g>
<!-- Node1 -->
<g id="node2" class="node">
<title>Node1</title>
<g id="a_node2"><a xlink:href="../../d3/d28/ServiceHandle_8h.html" target="_top" xlink:title="Framework/ServiceHandle.h">
<polygon fill="none" stroke="#000000" points="0,-112.5 0,-131.5 140,-131.5 140,-112.5 0,-112.5"/>
<text text-anchor="middle" x="70" y="-119.5" font-family="Helvetica,sans-Serif" font-size="10.00" fill="#000000">Framework/ServiceHandle.h</text>
</a>
</g>
</g>
<!-- Node0&#45;&gt;Node1 -->
<g id="edge1" class="edge">
<title>Node0&#45;&gt;Node1</title>
<path fill="none" stroke="#191970" d="M332.132,-176.2988C267.5088,-162.9125 181.6031,-145.1178 126.0537,-133.6111"/>
<polygon fill="#191970" stroke="#191970" points="126.5487,-130.1394 116.0466,-131.5382 125.1288,-136.9939 126.5487,-130.1394"/>
</g>
<!-- Node2 -->
<g id="node3" class="node">
<title>Node2</title>
<polygon fill="none" stroke="#bfbfbf" points="70.5,-56.5 70.5,-75.5 111.5,-75.5 111.5,-56.5 70.5,-56.5"/>
<text text-anchor="middle" x="91" y="-63.5" font-family="Helvetica,sans-Serif" font-size="10.00" fill="#000000">string</text>
</g>
<!-- Node0&#45;&gt;Node2 -->
<g id="edge13" class="edge">
<title>Node0&#45;&gt;Node2</title>
<path fill="none" stroke="#191970" d="M332.3437,-178.3973C287.5867,-168.3494 233.0171,-153.2259 187,-132 158.3026,-118.763 128.8725,-97.0967 110.2953,-82.2225"/>
<polygon fill="#191970" stroke="#191970" points="112.2931,-79.3354 102.3316,-75.727 107.8687,-84.7599 112.2931,-79.3354"/>
</g>
<!-- Node3 -->
<g id="node4" class="node">
<title>Node3</title>
<g id="a_node4"><a xlink:href="../../d2/d9a/TypeIdHelpers_8h.html" target="_top" xlink:title="Framework/TypeIdHelpers.h">
<polygon fill="none" stroke="#000000" points="196,-112.5 196,-131.5 336,-131.5 336,-112.5 196,-112.5"/>
<text text-anchor="middle" x="266" y="-119.5" font-family="Helvetica,sans-Serif" font-size="10.00" fill="#000000">Framework/TypeIdHelpers.h</text>
</a>
</g>
</g>
<!-- Node0&#45;&gt;Node3 -->
<g id="edge3" class="edge">
<title>Node0&#45;&gt;Node3</title>
<path fill="none" stroke="#191970" d="M364.4025,-168.3258C341.1123,-157.3613 314.9844,-145.0608 295.5079,-135.8917"/>
<polygon fill="#191970" stroke="#191970" points="296.7899,-132.6268 286.2515,-131.534 293.8083,-138.9601 296.7899,-132.6268"/>
</g>
<!-- Node8 -->
<g id="node9" class="node">
<title>Node8</title>
<polygon fill="none" stroke="#bfbfbf" points="336,-.5 336,-19.5 398,-19.5 398,-.5 336,-.5"/>
<text text-anchor="middle" x="367" y="-7.5" font-family="Helvetica,sans-Serif" font-size="10.00" fill="#000000">type_traits</text>
</g>
<!-- Node0&#45;&gt;Node8 -->
<g id="edge14" class="edge">
<title>Node0&#45;&gt;Node8</title>
<path fill="none" stroke="#191970" d="M401.2704,-168.2855C394.4556,-157.5212 387.3623,-144.6342 383,-132 371.083,-97.4855 367.9468,-54.6718 367.1784,-30.0286"/>
<polygon fill="#191970" stroke="#191970" points="370.6728,-29.7179 366.966,-19.7927 363.6743,-29.8632 370.6728,-29.7179"/>
</g>
<!-- Node9 -->
<g id="node10" class="node">
<title>Node9</title>
<polygon fill="none" stroke="#bfbfbf" points="392,-112.5 392,-131.5 448,-131.5 448,-112.5 392,-112.5"/>
<text text-anchor="middle" x="420" y="-119.5" font-family="Helvetica,sans-Serif" font-size="10.00" fill="#000000">algorithm</text>
</g>
<!-- Node0&#45;&gt;Node9 -->
<g id="edge10" class="edge">
<title>Node0&#45;&gt;Node9</title>
<path fill="none" stroke="#191970" d="M420,-168.3258C420,-159.5142 420,-149.8397 420,-141.621"/>
<polygon fill="#191970" stroke="#191970" points="423.5001,-141.534 420,-131.534 416.5001,-141.534 423.5001,-141.534"/>
</g>
<!-- Node10 -->
<g id="node11" class="node">
<title>Node10</title>
<polygon fill="none" stroke="#bfbfbf" points="466,-112.5 466,-131.5 504,-131.5 504,-112.5 466,-112.5"/>
<text text-anchor="middle" x="485" y="-119.5" font-family="Helvetica,sans-Serif" font-size="10.00" fill="#000000">array</text>
</g>
<!-- Node0&#45;&gt;Node10 -->
<g id="edge11" class="edge">
<title>Node0&#45;&gt;Node10</title>
<path fill="none" stroke="#191970" d="M443.4665,-168.3258C452.1746,-158.613 461.8226,-147.8518 469.6263,-139.1476"/>
<polygon fill="#191970" stroke="#191970" points="472.3828,-141.3161 476.4523,-131.534 467.1708,-136.6433 472.3828,-141.3161"/>
</g>
<!-- Node11 -->
<g id="node12" class="node">
<title>Node11</title>
<polygon fill="none" stroke="#bfbfbf" points="522.5,-112.5 522.5,-131.5 581.5,-131.5 581.5,-112.5 522.5,-112.5"/>
<text text-anchor="middle" x="552" y="-119.5" font-family="Helvetica,sans-Serif" font-size="10.00" fill="#000000">functional</text>
</g>
<!-- Node0&#45;&gt;Node11 -->
<g id="edge12" class="edge">
<title>Node0&#45;&gt;Node11</title>
<path fill="none" stroke="#191970" d="M467.655,-168.3258C487.1623,-157.6116 508.992,-145.6218 525.5553,-136.5246"/>
<polygon fill="#191970" stroke="#191970" points="527.5615,-139.4159 534.6415,-131.534 524.1916,-133.2804 527.5615,-139.4159"/>
</g>
<!-- Node12 -->
<g id="node13" class="node">
<title>Node12</title>
<polygon fill="none" stroke="#bfbfbf" points="599.5,-112.5 599.5,-131.5 650.5,-131.5 650.5,-112.5 599.5,-112.5"/>
<text text-anchor="middle" x="625" y="-119.5" font-family="Helvetica,sans-Serif" font-size="10.00" fill="#000000">typeinfo</text>
</g>
<!-- Node0&#45;&gt;Node12 -->
<g id="edge15" class="edge">
<title>Node0&#45;&gt;Node12</title>
<path fill="none" stroke="#191970" d="M493.7201,-168.4283C526.4948,-156.8372 563.5415,-143.7353 589.903,-134.4124"/>
<polygon fill="#191970" stroke="#191970" points="591.1911,-137.6693 599.4519,-131.0353 588.8571,-131.0699 591.1911,-137.6693"/>
</g>
<!-- Node13 -->
<g id="node14" class="node">
<title>Node13</title>
<polygon fill="none" stroke="#bfbfbf" points="669,-112.5 669,-131.5 713,-131.5 713,-112.5 669,-112.5"/>
<text text-anchor="middle" x="691" y="-119.5" font-family="Helvetica,sans-Serif" font-size="10.00" fill="#000000">thread</text>
</g>
<!-- Node0&#45;&gt;Node13 -->
<g id="edge16" class="edge">
<title>Node0&#45;&gt;Node13</title>
<path fill="none" stroke="#191970" d="M507.5398,-172.9852C550.6668,-162.0801 603.6143,-148.2392 659.0512,-132.1738"/>
<polygon fill="#191970" stroke="#191970" points="660.0745,-135.5213 668.696,-129.3634 658.1162,-128.8008 660.0745,-135.5213"/>
</g>
<!-- Node1&#45;&gt;Node2 -->
<g id="edge2" class="edge">
<title>Node1&#45;&gt;Node2</title>
<path fill="none" stroke="#191970" d="M73.6579,-112.2455C76.4584,-104.7776 80.409,-94.2427 83.8324,-85.1137"/>
<polygon fill="#191970" stroke="#191970" points="87.1499,-86.2349 87.384,-75.6427 80.5955,-83.777 87.1499,-86.2349"/>
</g>
<!-- Node4 -->
<g id="node5" class="node">
<title>Node4</title>
<polygon fill="none" stroke="#bfbfbf" points="130,-.5 130,-19.5 196,-19.5 196,-.5 130,-.5"/>
<text text-anchor="middle" x="163" y="-7.5" font-family="Helvetica,sans-Serif" font-size="10.00" fill="#000000">string_view</text>
</g>
<!-- Node3&#45;&gt;Node4 -->
<g id="edge4" class="edge">
<title>Node3&#45;&gt;Node4</title>
<path fill="none" stroke="#191970" d="M241.5878,-112.4628C224.8133,-104.8199 203.1073,-92.6208 189,-76 177.6811,-62.6643 170.9187,-43.8105 167.1409,-29.6664"/>
<polygon fill="#191970" stroke="#191970" points="170.4472,-28.4425 164.7211,-19.5283 163.6385,-30.0677 170.4472,-28.4425"/>
</g>
<!-- Node5 -->
<g id="node6" class="node">
<title>Node5</title>
<g id="a_node6"><a xlink:href="../../db/dff/StringHelpers_8h.html" target="_top" xlink:title="Framework/StringHelpers.h">
<polygon fill="none" stroke="#000000" points="198,-56.5 198,-75.5 334,-75.5 334,-56.5 198,-56.5"/>
<text text-anchor="middle" x="266" y="-63.5" font-family="Helvetica,sans-Serif" font-size="10.00" fill="#000000">Framework/StringHelpers.h</text>
</a>
</g>
</g>
<!-- Node3&#45;&gt;Node5 -->
<g id="edge5" class="edge">
<title>Node3&#45;&gt;Node5</title>
<path fill="none" stroke="#191970" d="M266,-112.2455C266,-104.9382 266,-94.6944 266,-85.7046"/>
<polygon fill="#191970" stroke="#191970" points="269.5001,-85.6426 266,-75.6427 262.5001,-85.6427 269.5001,-85.6426"/>
</g>
<!-- Node5&#45;&gt;Node4 -->
<g id="edge9" class="edge">
<title>Node5&#45;&gt;Node4</title>
<path fill="none" stroke="#191970" d="M248.0588,-56.2455C231.96,-47.4928 208.1121,-34.527 189.7609,-24.5496"/>
<polygon fill="#191970" stroke="#191970" points="191.1929,-21.3444 180.7356,-19.6427 187.8493,-27.4942 191.1929,-21.3444"/>
</g>
<!-- Node6 -->
<g id="node7" class="node">
<title>Node6</title>
<polygon fill="none" stroke="#bfbfbf" points="214,-.5 214,-19.5 260,-19.5 260,-.5 214,-.5"/>
<text text-anchor="middle" x="237" y="-7.5" font-family="Helvetica,sans-Serif" font-size="10.00" fill="#000000">cstdint</text>
</g>
<!-- Node5&#45;&gt;Node6 -->
<g id="edge6" class="edge">
<title>Node5&#45;&gt;Node6</title>
<path fill="none" stroke="#191970" d="M260.9486,-56.2455C256.9981,-48.617 251.3903,-37.7881 246.5942,-28.5267"/>
<polygon fill="#191970" stroke="#191970" points="249.7001,-26.9131 241.9935,-19.6427 243.4841,-30.1321 249.7001,-26.9131"/>
</g>
<!-- Node7 -->
<g id="node8" class="node">
<title>Node7</title>
<polygon fill="none" stroke="#bfbfbf" points="278,-.5 278,-19.5 318,-19.5 318,-.5 278,-.5"/>
<text text-anchor="middle" x="298" y="-7.5" font-family="Helvetica,sans-Serif" font-size="10.00" fill="#000000">utility</text>
</g>
<!-- Node5&#45;&gt;Node7 -->
<g id="edge7" class="edge">
<title>Node5&#45;&gt;Node7</title>
<path fill="none" stroke="#191970" d="M271.574,-56.2455C275.9331,-48.617 282.1211,-37.7881 287.4133,-28.5267"/>
<polygon fill="#191970" stroke="#191970" points="290.5673,-30.0616 292.4899,-19.6427 284.4896,-26.5886 290.5673,-30.0616"/>
</g>
<!-- Node5&#45;&gt;Node8 -->
<g id="edge8" class="edge">
<title>Node5&#45;&gt;Node8</title>
<path fill="none" stroke="#191970" d="M283.5929,-56.2455C299.379,-47.4928 322.7639,-34.527 340.7587,-24.5496"/>
<polygon fill="#191970" stroke="#191970" points="342.5603,-27.5528 349.6087,-19.6427 339.1659,-21.4308 342.5603,-27.5528"/>
</g>
</g>
</svg>
