<?xml version="1.0" encoding="UTF-8" standalone="no"?>
<!DOCTYPE svg PUBLIC "-//W3C//DTD SVG 1.1//EN"
 "http://www.w3.org/Graphics/SVG/1.1/DTD/svg11.dtd">
<!-- Generated by graphviz version 2.40.1 (20161225.0304)
 -->
<!-- Title: o2::rans::LiteralEncoder&lt; coder_T, stream_T, source_T &gt; Pages: 1 -->
<svg width="238pt" height="453pt"
 viewBox="0.00 0.00 238.00 453.00" xmlns="http://www.w3.org/2000/svg" xmlns:xlink="http://www.w3.org/1999/xlink">
<g id="graph0" class="graph" transform="scale(1 1) rotate(0) translate(4 449)">
<title>o2::rans::LiteralEncoder&lt; coder_T, stream_T, source_T &gt;</title>
<!-- Node2 -->
<g id="node1" class="node">
<title>Node2</title>
<polygon fill="#bfbfbf" stroke="#000000" points="32,-.5 32,-68.5 196,-68.5 196,-.5 32,-.5"/>
<text text-anchor="start" x="40" y="-56.5" font-family="Helvetica,sans-Serif" font-size="10.00" fill="#000000">o2::rans::LiteralEncoder</text>
<text text-anchor="middle" x="114" y="-45.5" font-family="Helvetica,sans-Serif" font-size="10.00" fill="#000000">&lt; coder_T, stream_T, source_T &gt;</text>
<polyline fill="none" stroke="#000000" points="32,-38.5 196,-38.5 "/>
<text text-anchor="middle" x="114" y="-26.5" font-family="Helvetica,sans-Serif" font-size="10.00" fill="#000000"> </text>
<polyline fill="none" stroke="#000000" points="32,-19.5 196,-19.5 "/>
<text text-anchor="start" x="40" y="-7.5" font-family="Helvetica,sans-Serif" font-size="10.00" fill="#000000">+ process()</text>
</g>
<!-- Node3 -->
<g id="node2" class="node">
<title>Node3</title>
<g id="a_node2"><a xlink:href="../../dd/d50/classo2_1_1rans_1_1Encoder.html" target="_top" xlink:title="{o2::rans::Encoder\&lt;\l coder_T, stream_T,\l source_T \&gt;\n||+ Encoder()\l+ ~Encoder()\l+ Encoder()\l+ Encoder()\l+ operator=()\l+ operator=()\l+ Encoder()\l+ Encoder()\l+ Encoder()\l+ process()\l+ getProbabilityBits()\l+ getAlphabetRangeBits()\l+ getMinSymbol()\l+ getMaxSymbol()\l}">
<polygon fill="none" stroke="#000000" points="49.5,-106.5 49.5,-328.5 178.5,-328.5 178.5,-106.5 49.5,-106.5"/>
<text text-anchor="start" x="57.5" y="-316.5" font-family="Helvetica,sans-Serif" font-size="10.00" fill="#000000">o2::rans::Encoder&lt;</text>
<text text-anchor="start" x="57.5" y="-305.5" font-family="Helvetica,sans-Serif" font-size="10.00" fill="#000000"> coder_T, stream_T,</text>
<text text-anchor="middle" x="114" y="-294.5" font-family="Helvetica,sans-Serif" font-size="10.00" fill="#000000"> source_T &gt;</text>
<polyline fill="none" stroke="#000000" points="49.5,-287.5 178.5,-287.5 "/>
<text text-anchor="middle" x="114" y="-275.5" font-family="Helvetica,sans-Serif" font-size="10.00" fill="#000000"> </text>
<polyline fill="none" stroke="#000000" points="49.5,-268.5 178.5,-268.5 "/>
<text text-anchor="start" x="57.5" y="-256.5" font-family="Helvetica,sans-Serif" font-size="10.00" fill="#000000">+ Encoder()</text>
<text text-anchor="start" x="57.5" y="-245.5" font-family="Helvetica,sans-Serif" font-size="10.00" fill="#000000">+ ~Encoder()</text>
<text text-anchor="start" x="57.5" y="-234.5" font-family="Helvetica,sans-Serif" font-size="10.00" fill="#000000">+ Encoder()</text>
<text text-anchor="start" x="57.5" y="-223.5" font-family="Helvetica,sans-Serif" font-size="10.00" fill="#000000">+ Encoder()</text>
<text text-anchor="start" x="57.5" y="-212.5" font-family="Helvetica,sans-Serif" font-size="10.00" fill="#000000">+ operator=()</text>
<text text-anchor="start" x="57.5" y="-201.5" font-family="Helvetica,sans-Serif" font-size="10.00" fill="#000000">+ operator=()</text>
<text text-anchor="start" x="57.5" y="-190.5" font-family="Helvetica,sans-Serif" font-size="10.00" fill="#000000">+ Encoder()</text>
<text text-anchor="start" x="57.5" y="-179.5" font-family="Helvetica,sans-Serif" font-size="10.00" fill="#000000">+ Encoder()</text>
<text text-anchor="start" x="57.5" y="-168.5" font-family="Helvetica,sans-Serif" font-size="10.00" fill="#000000">+ Encoder()</text>
<text text-anchor="start" x="57.5" y="-157.5" font-family="Helvetica,sans-Serif" font-size="10.00" fill="#000000">+ process()</text>
<text text-anchor="start" x="57.5" y="-146.5" font-family="Helvetica,sans-Serif" font-size="10.00" fill="#000000">+ getProbabilityBits()</text>
<text text-anchor="start" x="57.5" y="-135.5" font-family="Helvetica,sans-Serif" font-size="10.00" fill="#000000">+ getAlphabetRangeBits()</text>
<text text-anchor="start" x="57.5" y="-124.5" font-family="Helvetica,sans-Serif" font-size="10.00" fill="#000000">+ getMinSymbol()</text>
<text text-anchor="start" x="57.5" y="-113.5" font-family="Helvetica,sans-Serif" font-size="10.00" fill="#000000">+ getMaxSymbol()</text>
</a>
</g>
</g>
<!-- Node3&#45;&gt;Node2 -->
<g id="edge1" class="edge">
<title>Node3&#45;&gt;Node2</title>
<path fill="none" stroke="#191970" d="M114,-96.2198C114,-86.2931 114,-76.8914 114,-68.5572"/>
<polygon fill="none" stroke="#191970" points="110.5001,-96.3012 114,-106.3012 117.5001,-96.3012 110.5001,-96.3012"/>
</g>
<!-- Node4 -->
<g id="node3" class="node">
<title>Node4</title>
<polygon fill="none" stroke="#bfbfbf" points="0,-376.5 0,-444.5 126,-444.5 126,-376.5 0,-376.5"/>
<text text-anchor="start" x="8" y="-432.5" font-family="Helvetica,sans-Serif" font-size="10.00" fill="#000000">unique_ptr&lt; o2::rans</text>
<text text-anchor="middle" x="63" y="-421.5" font-family="Helvetica,sans-Serif" font-size="10.00" fill="#000000">::internal::SymbolTable &gt;</text>
<polyline fill="none" stroke="#bfbfbf" points="0,-414.5 126,-414.5 "/>
<text text-anchor="middle" x="63" y="-402.5" font-family="Helvetica,sans-Serif" font-size="10.00" fill="#000000"> </text>
<polyline fill="none" stroke="#bfbfbf" points="0,-395.5 126,-395.5 "/>
<text text-anchor="middle" x="63" y="-383.5" font-family="Helvetica,sans-Serif" font-size="10.00" fill="#000000"> </text>
</g>
<!-- Node4&#45;&gt;Node3 -->
<g id="edge2" class="edge">
<title>Node4&#45;&gt;Node3</title>
<path fill="none" stroke="#404040" d="M65.3875,-376.332C66.4279,-366.7705 67.9069,-356.4195 70,-347 70.4813,-344.8342 70.986,-342.6539 71.5119,-340.4632"/>
<polygon fill="none" stroke="#404040" points="71.5535,-340.2995 69.1564,-333.4984 74.5124,-328.67 76.9095,-335.471 71.5535,-340.2995"/>
<text text-anchor="middle" x="107" y="-350" font-family="Helvetica,sans-Serif" font-size="10.00" fill="#000000"> #mSymbolTable</text>
</g>
<!-- Node5 -->
<g id="node4" class="node">
<title>Node5</title>
<polygon fill="none" stroke="#bfbfbf" points="144.5,-382 144.5,-439 187.5,-439 187.5,-382 144.5,-382"/>
<text text-anchor="middle" x="166" y="-427" font-family="Helvetica,sans-Serif" font-size="10.00" fill="#000000">size_t</text>
<polyline fill="none" stroke="#bfbfbf" points="144.5,-420 187.5,-420 "/>
<text text-anchor="middle" x="166" y="-408" font-family="Helvetica,sans-Serif" font-size="10.00" fill="#000000"> </text>
<polyline fill="none" stroke="#bfbfbf" points="144.5,-401 187.5,-401 "/>
<text text-anchor="middle" x="166" y="-389" font-family="Helvetica,sans-Serif" font-size="10.00" fill="#000000"> </text>
</g>
<!-- Node5&#45;&gt;Node3 -->
<g id="edge3" class="edge">
<title>Node5&#45;&gt;Node3</title>
<path fill="none" stroke="#404040" d="M158.2151,-381.6059C155.0768,-369.9581 151.227,-355.6695 147.1204,-340.4278"/>
<polygon fill="none" stroke="#404040" points="147.0595,-340.2014 141.6363,-335.4486 143.9376,-328.6146 149.3608,-333.3673 147.0595,-340.2014"/>
<text text-anchor="middle" x="190" y="-350" font-family="Helvetica,sans-Serif" font-size="10.00" fill="#000000"> #mProbabilityBits</text>
</g>
</g>
</svg>
