<?xml version="1.0" encoding="UTF-8" standalone="no"?>
<!DOCTYPE svg PUBLIC "-//W3C//DTD SVG 1.1//EN"
 "http://www.w3.org/Graphics/SVG/1.1/DTD/svg11.dtd">
<!-- Generated by graphviz version 2.40.1 (20161225.0304)
 -->
<!-- Title: o2::framework::InputRoute Pages: 1 -->
<svg width="463pt" height="375pt"
 viewBox="0.00 0.00 462.90 375.00" xmlns="http://www.w3.org/2000/svg" xmlns:xlink="http://www.w3.org/1999/xlink">
<g id="graph0" class="graph" transform="scale(1 1) rotate(0) translate(4 371)">
<title>o2::framework::InputRoute</title>
<!-- Node1 -->
<g id="node1" class="node">
<title>Node1</title>
<polygon fill="#bfbfbf" stroke="#000000" points="216.3953,-.5 216.3953,-57.5 349.3953,-57.5 349.3953,-.5 216.3953,-.5"/>
<text text-anchor="middle" x="282.8953" y="-45.5" font-family="Helvetica,sans-Serif" font-size="10.00" fill="#000000">o2::framework::InputRoute</text>
<polyline fill="none" stroke="#000000" points="216.3953,-38.5 349.3953,-38.5 "/>
<text text-anchor="middle" x="282.8953" y="-26.5" font-family="Helvetica,sans-Serif" font-size="10.00" fill="#000000"> </text>
<polyline fill="none" stroke="#000000" points="216.3953,-19.5 349.3953,-19.5 "/>
<text text-anchor="middle" x="282.8953" y="-7.5" font-family="Helvetica,sans-Serif" font-size="10.00" fill="#000000"> </text>
</g>
<!-- Node2 -->
<g id="node2" class="node">
<title>Node2</title>
<polygon fill="none" stroke="#bfbfbf" points="5.3953,-293 5.3953,-350 34.3953,-350 34.3953,-293 5.3953,-293"/>
<text text-anchor="middle" x="19.8953" y="-338" font-family="Helvetica,sans-Serif" font-size="10.00" fill="#000000">int</text>
<polyline fill="none" stroke="#bfbfbf" points="5.3953,-331 34.3953,-331 "/>
<text text-anchor="middle" x="19.8953" y="-319" font-family="Helvetica,sans-Serif" font-size="10.00" fill="#000000"> </text>
<polyline fill="none" stroke="#bfbfbf" points="5.3953,-312 34.3953,-312 "/>
<text text-anchor="middle" x="19.8953" y="-300" font-family="Helvetica,sans-Serif" font-size="10.00" fill="#000000"> </text>
</g>
<!-- Node2&#45;&gt;Node1 -->
<g id="edge1" class="edge">
<title>Node2&#45;&gt;Node1</title>
<path fill="none" stroke="#404040" d="M11.3372,-292.6514C.4595,-249.6115 -12.6247,-168.085 25.8953,-116 47.5952,-86.6584 137.1765,-60.9638 204.5177,-45.2504"/>
<polygon fill="none" stroke="#404040" points="204.6908,-45.2108 209.6453,-39.9713 216.3874,-42.5294 211.4329,-47.769 204.6908,-45.2108"/>
<text text-anchor="middle" x="63.3953" y="-170" font-family="Helvetica,sans-Serif" font-size="10.00" fill="#000000"> +sourceChannel</text>
</g>
<!-- Node3 -->
<g id="node3" class="node">
<title>Node3</title>
<g id="a_node3"><a xlink:href="../../da/d96/structo2_1_1framework_1_1InputSpec.html" target="_top" xlink:title="{o2::framework::InputSpec\n||+ InputSpec()\l+ InputSpec()\l+ InputSpec()\l+ InputSpec()\l+ InputSpec()\l+ operator==()\l}">
<polygon fill="none" stroke="#000000" points="110.3953,-116.5 110.3953,-228.5 239.3953,-228.5 239.3953,-116.5 110.3953,-116.5"/>
<text text-anchor="middle" x="174.8953" y="-216.5" font-family="Helvetica,sans-Serif" font-size="10.00" fill="#000000">o2::framework::InputSpec</text>
<polyline fill="none" stroke="#000000" points="110.3953,-209.5 239.3953,-209.5 "/>
<text text-anchor="middle" x="174.8953" y="-197.5" font-family="Helvetica,sans-Serif" font-size="10.00" fill="#000000"> </text>
<polyline fill="none" stroke="#000000" points="110.3953,-190.5 239.3953,-190.5 "/>
<text text-anchor="start" x="118.3953" y="-178.5" font-family="Helvetica,sans-Serif" font-size="10.00" fill="#000000">+ InputSpec()</text>
<text text-anchor="start" x="118.3953" y="-167.5" font-family="Helvetica,sans-Serif" font-size="10.00" fill="#000000">+ InputSpec()</text>
<text text-anchor="start" x="118.3953" y="-156.5" font-family="Helvetica,sans-Serif" font-size="10.00" fill="#000000">+ InputSpec()</text>
<text text-anchor="start" x="118.3953" y="-145.5" font-family="Helvetica,sans-Serif" font-size="10.00" fill="#000000">+ InputSpec()</text>
<text text-anchor="start" x="118.3953" y="-134.5" font-family="Helvetica,sans-Serif" font-size="10.00" fill="#000000">+ InputSpec()</text>
<text text-anchor="start" x="118.3953" y="-123.5" font-family="Helvetica,sans-Serif" font-size="10.00" fill="#000000">+ operator==()</text>
</a>
</g>
</g>
<!-- Node2&#45;&gt;Node3 -->
<g id="edge6" class="edge">
<title>Node2&#45;&gt;Node3</title>
<path fill="none" stroke="#404040" d="M32.6309,-292.9122C35.8813,-287.0267 39.6694,-281.0812 43.8953,-276 53.4261,-264.5402 76.4426,-245.5832 100.5708,-227.0027"/>
<polygon fill="none" stroke="#404040" points="100.6723,-226.9252 103.0129,-220.1045 110.2092,-219.6416 107.8686,-226.4623 100.6723,-226.9252"/>
<text text-anchor="middle" x="92.8953" y="-250" font-family="Helvetica,sans-Serif" font-size="10.00" fill="#000000"> +binding</text>
</g>
<!-- Node3&#45;&gt;Node1 -->
<g id="edge2" class="edge">
<title>Node3&#45;&gt;Node1</title>
<path fill="none" stroke="#404040" d="M215.6989,-116.3942C225.5057,-103.0901 236.0061,-88.9921 245.8953,-76 248.0181,-73.2111 250.2243,-70.3407 252.455,-67.4587"/>
<polygon fill="none" stroke="#404040" points="252.6707,-67.1819 253.2044,-59.9905 260.0478,-57.7172 259.5142,-64.9086 252.6707,-67.1819"/>
<text text-anchor="middle" x="268.3953" y="-84.5" font-family="Helvetica,sans-Serif" font-size="10.00" fill="#000000"> +matcher</text>
</g>
<!-- Node4 -->
<g id="node4" class="node">
<title>Node4</title>
<polygon fill="none" stroke="#bfbfbf" points="53.3953,-287.5 53.3953,-355.5 168.3953,-355.5 168.3953,-287.5 53.3953,-287.5"/>
<text text-anchor="start" x="61.3953" y="-343.5" font-family="Helvetica,sans-Serif" font-size="10.00" fill="#000000">vector&lt; o2::framework</text>
<text text-anchor="middle" x="110.8953" y="-332.5" font-family="Helvetica,sans-Serif" font-size="10.00" fill="#000000">::ConfigParamSpec &gt;</text>
<polyline fill="none" stroke="#bfbfbf" points="53.3953,-325.5 168.3953,-325.5 "/>
<text text-anchor="middle" x="110.8953" y="-313.5" font-family="Helvetica,sans-Serif" font-size="10.00" fill="#000000"> </text>
<polyline fill="none" stroke="#bfbfbf" points="53.3953,-306.5 168.3953,-306.5 "/>
<text text-anchor="middle" x="110.8953" y="-294.5" font-family="Helvetica,sans-Serif" font-size="10.00" fill="#000000"> </text>
</g>
<!-- Node4&#45;&gt;Node3 -->
<g id="edge3" class="edge">
<title>Node4&#45;&gt;Node3</title>
<path fill="none" stroke="#404040" d="M125.5782,-287.3164C131.6351,-273.2151 138.8765,-256.3562 145.9206,-239.9567"/>
<polygon fill="none" stroke="#404040" points="146.0128,-239.742 144.7055,-232.6503 150.7488,-228.716 152.0561,-235.8077 146.0128,-239.742"/>
<text text-anchor="middle" x="167.8953" y="-250" font-family="Helvetica,sans-Serif" font-size="10.00" fill="#000000"> +metadata</text>
</g>
<!-- Node5 -->
<g id="node5" class="node">
<title>Node5</title>
<polygon fill="none" stroke="#bfbfbf" points="186.8953,-293 186.8953,-350 264.8953,-350 264.8953,-293 186.8953,-293"/>
<text text-anchor="middle" x="225.8953" y="-338" font-family="Helvetica,sans-Serif" font-size="10.00" fill="#000000">enum Lifetime</text>
<polyline fill="none" stroke="#bfbfbf" points="186.8953,-331 264.8953,-331 "/>
<text text-anchor="middle" x="225.8953" y="-319" font-family="Helvetica,sans-Serif" font-size="10.00" fill="#000000"> </text>
<polyline fill="none" stroke="#bfbfbf" points="186.8953,-312 264.8953,-312 "/>
<text text-anchor="middle" x="225.8953" y="-300" font-family="Helvetica,sans-Serif" font-size="10.00" fill="#000000"> </text>
</g>
<!-- Node5&#45;&gt;Node3 -->
<g id="edge4" class="edge">
<title>Node5&#45;&gt;Node3</title>
<path fill="none" stroke="#404040" d="M216.062,-292.7713C210.9084,-277.7146 204.3609,-258.5856 198.0121,-240.0372"/>
<polygon fill="none" stroke="#404040" points="197.9851,-239.9583 192.2576,-235.577 194.099,-228.6049 199.8265,-232.9862 197.9851,-239.9583"/>
<text text-anchor="middle" x="224.3953" y="-250" font-family="Helvetica,sans-Serif" font-size="10.00" fill="#000000"> +lifetime</text>
</g>
<!-- Node6 -->
<g id="node6" class="node">
<title>Node6</title>
<polygon fill="none" stroke="#bfbfbf" points="283.3953,-276.5 283.3953,-366.5 430.3953,-366.5 430.3953,-276.5 283.3953,-276.5"/>
<text text-anchor="start" x="291.3953" y="-354.5" font-family="Helvetica,sans-Serif" font-size="10.00" fill="#000000">variant&lt; o2::framework</text>
<text text-anchor="start" x="291.3953" y="-343.5" font-family="Helvetica,sans-Serif" font-size="10.00" fill="#000000">::ConcreteDataMatcher,</text>
<text text-anchor="start" x="291.3953" y="-332.5" font-family="Helvetica,sans-Serif" font-size="10.00" fill="#000000"> o2::framework::data_matcher</text>
<text text-anchor="middle" x="356.8953" y="-321.5" font-family="Helvetica,sans-Serif" font-size="10.00" fill="#000000">::DataDescriptorMatcher &gt;</text>
<polyline fill="none" stroke="#bfbfbf" points="283.3953,-314.5 430.3953,-314.5 "/>
<text text-anchor="middle" x="356.8953" y="-302.5" font-family="Helvetica,sans-Serif" font-size="10.00" fill="#000000"> </text>
<polyline fill="none" stroke="#bfbfbf" points="283.3953,-295.5 430.3953,-295.5 "/>
<text text-anchor="middle" x="356.8953" y="-283.5" font-family="Helvetica,sans-Serif" font-size="10.00" fill="#000000"> </text>
</g>
<!-- Node6&#45;&gt;Node3 -->
<g id="edge5" class="edge">
<title>Node6&#45;&gt;Node3</title>
<path fill="none" stroke="#404040" d="M301.7954,-276.3907C285.1995,-262.804 266.7064,-247.664 249.0846,-233.2374"/>
<polygon fill="none" stroke="#404040" points="248.6872,-232.912 241.5107,-232.2063 239.4019,-225.3103 246.5784,-226.0161 248.6872,-232.912"/>
<text text-anchor="middle" x="298.3953" y="-250" font-family="Helvetica,sans-Serif" font-size="10.00" fill="#000000"> +matcher</text>
</g>
<!-- Node7 -->
<g id="node7" class="node">
<title>Node7</title>
<polygon fill="none" stroke="#bfbfbf" points="257.8953,-138.5 257.8953,-206.5 379.8953,-206.5 379.8953,-138.5 257.8953,-138.5"/>
<text text-anchor="start" x="265.8953" y="-194.5" font-family="Helvetica,sans-Serif" font-size="10.00" fill="#000000">optional&lt; o2::framework</text>
<text text-anchor="middle" x="318.8953" y="-183.5" font-family="Helvetica,sans-Serif" font-size="10.00" fill="#000000">::RouteConfigurator &gt;</text>
<polyline fill="none" stroke="#bfbfbf" points="257.8953,-176.5 379.8953,-176.5 "/>
<text text-anchor="middle" x="318.8953" y="-164.5" font-family="Helvetica,sans-Serif" font-size="10.00" fill="#000000"> </text>
<polyline fill="none" stroke="#bfbfbf" points="257.8953,-157.5 379.8953,-157.5 "/>
<text text-anchor="middle" x="318.8953" y="-145.5" font-family="Helvetica,sans-Serif" font-size="10.00" fill="#000000"> </text>
</g>
<!-- Node7&#45;&gt;Node1 -->
<g id="edge7" class="edge">
<title>Node7&#45;&gt;Node1</title>
<path fill="none" stroke="#404040" d="M310.3638,-138.4925C305.195,-117.8889 298.5699,-91.4806 293.1212,-69.7616"/>
<polygon fill="none" stroke="#404040" points="293.0707,-69.56 287.7309,-64.7137 290.1507,-57.9207 295.4905,-62.767 293.0707,-69.56"/>
<text text-anchor="middle" x="329.3953" y="-84.5" font-family="Helvetica,sans-Serif" font-size="10.00" fill="#000000"> +configurator</text>
</g>
<!-- Node8 -->
<g id="node8" class="node">
<title>Node8</title>
<polygon fill="none" stroke="#bfbfbf" points="398.3953,-144 398.3953,-201 441.3953,-201 441.3953,-144 398.3953,-144"/>
<text text-anchor="middle" x="419.8953" y="-189" font-family="Helvetica,sans-Serif" font-size="10.00" fill="#000000">size_t</text>
<polyline fill="none" stroke="#bfbfbf" points="398.3953,-182 441.3953,-182 "/>
<text text-anchor="middle" x="419.8953" y="-170" font-family="Helvetica,sans-Serif" font-size="10.00" fill="#000000"> </text>
<polyline fill="none" stroke="#bfbfbf" points="398.3953,-163 441.3953,-163 "/>
<text text-anchor="middle" x="419.8953" y="-151" font-family="Helvetica,sans-Serif" font-size="10.00" fill="#000000"> </text>
</g>
<!-- Node8&#45;&gt;Node1 -->
<g id="edge8" class="edge">
<title>Node8&#45;&gt;Node1</title>
<path fill="none" stroke="#404040" d="M408.4296,-143.9517C398.9414,-123.1155 383.8005,-95.2622 363.8953,-76 359.7331,-71.9722 355.1606,-68.1552 350.3728,-64.5684"/>
<polygon fill="none" stroke="#404040" points="350.1424,-64.4075 342.933,-64.2506 340.305,-57.5354 347.5144,-57.6923 350.1424,-64.4075"/>
<text text-anchor="middle" x="417.8953" y="-90" font-family="Helvetica,sans-Serif" font-size="10.00" fill="#000000"> +timeslice</text>
<text text-anchor="middle" x="417.8953" y="-79" font-family="Helvetica,sans-Serif" font-size="10.00" fill="#000000">+inputSpecIndex</text>
</g>
</g>
</svg>
