<?xml version="1.0" encoding="UTF-8" standalone="no"?>
<!DOCTYPE svg PUBLIC "-//W3C//DTD SVG 1.1//EN"
 "http://www.w3.org/Graphics/SVG/1.1/DTD/svg11.dtd">
<!-- Generated by graphviz version 2.40.1 (20161225.0304)
 -->
<!-- Title: /home/runner/work/AliceO2/AliceO2/Detectors/ITSMFT/ITS/tracking/include/ITStracking/IndexTableUtils.h Pages: 1 -->
<!--zoomable 495 -->
<svg id="main" version="1.1" xmlns="http://www.w3.org/2000/svg" xmlns:xlink="http://www.w3.org/1999/xlink" xml:space="preserve" onload="init(evt)">
<style type="text/css"><![CDATA[
.edge:hover path { stroke: red; }
.edge:hover polygon { stroke: red; fill: red; }
]]></style>
<script type="text/javascript"><![CDATA[
var edges = document.getElementsByTagName('g');
if (edges && edges.length) {
  for (var i=0;i<edges.length;i++) {
    if (edges[i].id.substr(0,4)=='edge') {
      edges[i].setAttribute('class','edge');
    }
  }
}
]]></script>
        <defs>
                <circle id="rim" cx="0" cy="0" r="7"/>
                <circle id="rim2" cx="0" cy="0" r="3.5"/>
                <g id="zoomPlus">
                        <use xlink:href="#rim" fill="#404040">
                                <set attributeName="fill" to="#808080" begin="zoomplus.mouseover" end="zoomplus.mouseout"/>
                        </use>
                        <path d="M-4,0h8M0,-4v8" fill="none" stroke="white" stroke-width="1.5" pointer-events="none"/>
                </g>
                <g id="zoomMin">
                        <use xlink:href="#rim" fill="#404040">
                                <set attributeName="fill" to="#808080" begin="zoomminus.mouseover" end="zoomminus.mouseout"/>
                        </use>
                        <path d="M-4,0h8" fill="none" stroke="white" stroke-width="1.5" pointer-events="none"/>
                </g>
                <g id="dirArrow">
                        <path fill="none" stroke="white" stroke-width="1.5" d="M0,-3.0v7 M-2.5,-0.5L0,-3.0L2.5,-0.5"/>
                </g>
               <g id="resetDef">
                       <use xlink:href="#rim2" fill="#404040">
                               <set attributeName="fill" to="#808080" begin="reset.mouseover" end="reset.mouseout"/>
                       </use>
               </g>
        </defs>

<script type="text/javascript">
var viewWidth = 2075;
var viewHeight = 495;
var sectionId = 'dynsection-1';
</script>
<script xlink:href="../../svgpan.js"/>
<svg id="graph" class="graph">
<g id="viewport">
<title>/home/runner/work/AliceO2/AliceO2/Detectors/ITSMFT/ITS/tracking/include/ITStracking/IndexTableUtils.h</title>
<!-- Node15 -->
<g id="node1" class="node">
<title>Node15</title>
<polygon fill="#bfbfbf" stroke="#000000" points="1068.5,-434.5 1068.5,-486.5 1228.5,-486.5 1228.5,-434.5 1068.5,-434.5"/>
<text text-anchor="start" x="1076.5" y="-474.5" font-family="Helvetica,sans-Serif" font-size="10.00" fill="#000000">/home/runner/work/AliceO2</text>
<text text-anchor="start" x="1076.5" y="-463.5" font-family="Helvetica,sans-Serif" font-size="10.00" fill="#000000">/AliceO2/Detectors/ITSMFT</text>
<text text-anchor="start" x="1076.5" y="-452.5" font-family="Helvetica,sans-Serif" font-size="10.00" fill="#000000">/ITS/tracking/include/ITStracking</text>
<text text-anchor="middle" x="1148.5" y="-441.5" font-family="Helvetica,sans-Serif" font-size="10.00" fill="#000000">/IndexTableUtils.h</text>
</g>
<!-- Node16 -->
<g id="node2" class="node">
<title>Node16</title>
<g id="a_node2"><a xlink:href="../../d3/da9/PrimaryVertexContext_8h.html" target="_top" xlink:title="/home/runner/work/AliceO2\l/AliceO2/Detectors/ITSMFT\l/ITS/tracking/include/ITStracking\l/PrimaryVertexContext.h">
<polygon fill="none" stroke="#000000" points="586.5,-345.5 586.5,-397.5 746.5,-397.5 746.5,-345.5 586.5,-345.5"/>
<text text-anchor="start" x="594.5" y="-385.5" font-family="Helvetica,sans-Serif" font-size="10.00" fill="#000000">/home/runner/work/AliceO2</text>
<text text-anchor="start" x="594.5" y="-374.5" font-family="Helvetica,sans-Serif" font-size="10.00" fill="#000000">/AliceO2/Detectors/ITSMFT</text>
<text text-anchor="start" x="594.5" y="-363.5" font-family="Helvetica,sans-Serif" font-size="10.00" fill="#000000">/ITS/tracking/include/ITStracking</text>
<text text-anchor="middle" x="666.5" y="-352.5" font-family="Helvetica,sans-Serif" font-size="10.00" fill="#000000">/PrimaryVertexContext.h</text>
</a>
</g>
</g>
<!-- Node15&#45;&gt;Node16 -->
<g id="edge1" class="edge">
<title>Node15&#45;&gt;Node16</title>
<path fill="none" stroke="#191970" d="M1058.4971,-443.8812C968.9482,-427.3462 832.8205,-402.2106 746.8252,-386.3318"/>
<polygon fill="#191970" stroke="#191970" points="1057.8971,-447.3295 1068.3664,-445.7036 1059.1682,-440.4459 1057.8971,-447.3295"/>
</g>
<!-- Node19 -->
<g id="node5" class="node">
<title>Node19</title>
<g id="a_node5"><a xlink:href="../../d7/dd9/ITSMFT_2ITS_2tracking_2src_2Tracker_8cxx.html" target="_top" xlink:title="/home/runner/work/AliceO2\l/AliceO2/Detectors/ITSMFT\l/ITS/tracking/src/Tracker.cxx">
<polygon fill="none" stroke="#000000" points="374.5,-84 374.5,-125 518.5,-125 518.5,-84 374.5,-84"/>
<text text-anchor="start" x="382.5" y="-113" font-family="Helvetica,sans-Serif" font-size="10.00" fill="#000000">/home/runner/work/AliceO2</text>
<text text-anchor="start" x="382.5" y="-102" font-family="Helvetica,sans-Serif" font-size="10.00" fill="#000000">/AliceO2/Detectors/ITSMFT</text>
<text text-anchor="middle" x="446.5" y="-91" font-family="Helvetica,sans-Serif" font-size="10.00" fill="#000000">/ITS/tracking/src/Tracker.cxx</text>
</a>
</g>
</g>
<!-- Node15&#45;&gt;Node19 -->
<g id="edge31" class="edge">
<title>Node15&#45;&gt;Node19</title>
<path fill="none" stroke="#191970" d="M1058.303,-454.6367C810.5845,-437.6085 133.9214,-384.5243 70.5,-309 -22.145,-198.6753 241.1856,-138.1648 374.4496,-115.2931"/>
<polygon fill="#191970" stroke="#191970" points="1058.1386,-458.1336 1068.3541,-455.324 1058.6162,-451.1499 1058.1386,-458.1336"/>
</g>
<!-- Node26 -->
<g id="node12" class="node">
<title>Node26</title>
<g id="a_node12"><a xlink:href="../../d0/d20/TrackerTraitsCPU_8cxx.html" target="_top" xlink:title="/home/runner/work/AliceO2\l/AliceO2/Detectors/ITSMFT\l/ITS/tracking/src/TrackerTraitsCPU.cxx">
<polygon fill="none" stroke="#000000" points="0,-84 0,-125 191,-125 191,-84 0,-84"/>
<text text-anchor="start" x="8" y="-113" font-family="Helvetica,sans-Serif" font-size="10.00" fill="#000000">/home/runner/work/AliceO2</text>
<text text-anchor="start" x="8" y="-102" font-family="Helvetica,sans-Serif" font-size="10.00" fill="#000000">/AliceO2/Detectors/ITSMFT</text>
<text text-anchor="middle" x="95.5" y="-91" font-family="Helvetica,sans-Serif" font-size="10.00" fill="#000000">/ITS/tracking/src/TrackerTraitsCPU.cxx</text>
</a>
</g>
</g>
<!-- Node15&#45;&gt;Node26 -->
<g id="edge32" class="edge">
<title>Node15&#45;&gt;Node26</title>
<path fill="none" stroke="#191970" d="M1058.0608,-456.3878C820.3121,-445.3692 193.1206,-414.8762 151.5,-398 95.1214,-375.1397 72.943,-364.2611 47.5,-309 18.3693,-245.7295 59.4265,-163.0343 82.1539,-125.1196"/>
<polygon fill="#191970" stroke="#191970" points="1058.2516,-459.9002 1068.4027,-456.8661 1058.5751,-452.9077 1058.2516,-459.9002"/>
</g>
<!-- Node28 -->
<g id="node14" class="node">
<title>Node28</title>
<g id="a_node14"><a xlink:href="../../d2/dd6/VertexerTraits_8h.html" target="_top" xlink:title="Class to compute the primary vertex in ITS from tracklets. ">
<polygon fill="none" stroke="#000000" points="1068.5,-345.5 1068.5,-397.5 1228.5,-397.5 1228.5,-345.5 1068.5,-345.5"/>
<text text-anchor="start" x="1076.5" y="-385.5" font-family="Helvetica,sans-Serif" font-size="10.00" fill="#000000">/home/runner/work/AliceO2</text>
<text text-anchor="start" x="1076.5" y="-374.5" font-family="Helvetica,sans-Serif" font-size="10.00" fill="#000000">/AliceO2/Detectors/ITSMFT</text>
<text text-anchor="start" x="1076.5" y="-363.5" font-family="Helvetica,sans-Serif" font-size="10.00" fill="#000000">/ITS/tracking/include/ITStracking</text>
<text text-anchor="middle" x="1148.5" y="-352.5" font-family="Helvetica,sans-Serif" font-size="10.00" fill="#000000">/VertexerTraits.h</text>
</a>
</g>
</g>
<!-- Node15&#45;&gt;Node28 -->
<g id="edge17" class="edge">
<title>Node15&#45;&gt;Node28</title>
<path fill="none" stroke="#191970" d="M1148.5,-424.1155C1148.5,-415.2061 1148.5,-405.8475 1148.5,-397.5341"/>
<polygon fill="#191970" stroke="#191970" points="1145.0001,-424.2784 1148.5,-434.2784 1152.0001,-424.2785 1145.0001,-424.2784"/>
</g>
<!-- Node33 -->
<g id="node19" class="node">
<title>Node33</title>
<g id="a_node19"><a xlink:href="../../da/d5d/Vertexer_8cxx.html" target="_top" xlink:title="/home/runner/work/AliceO2\l/AliceO2/Detectors/ITSMFT\l/ITS/tracking/src/Vertexer.cxx">
<polygon fill="none" stroke="#000000" points="1374.5,-173 1374.5,-214 1522.5,-214 1522.5,-173 1374.5,-173"/>
<text text-anchor="start" x="1382.5" y="-202" font-family="Helvetica,sans-Serif" font-size="10.00" fill="#000000">/home/runner/work/AliceO2</text>
<text text-anchor="start" x="1382.5" y="-191" font-family="Helvetica,sans-Serif" font-size="10.00" fill="#000000">/AliceO2/Detectors/ITSMFT</text>
<text text-anchor="middle" x="1448.5" y="-180" font-family="Helvetica,sans-Serif" font-size="10.00" fill="#000000">/ITS/tracking/src/Vertexer.cxx</text>
</a>
</g>
</g>
<!-- Node15&#45;&gt;Node33 -->
<g id="edge33" class="edge">
<title>Node15&#45;&gt;Node33</title>
<path fill="none" stroke="#191970" d="M1238.7763,-447.9187C1375.9128,-426.7507 1626.4397,-379.3163 1679.5,-309 1693.6886,-290.1971 1693.8169,-274.7053 1679.5,-256 1660.3404,-230.9677 1582.7266,-213.6511 1522.691,-203.6987"/>
<polygon fill="#191970" stroke="#191970" points="1238.0553,-444.4882 1228.6987,-449.4585 1239.1126,-451.4079 1238.0553,-444.4882"/>
</g>
<!-- Node36 -->
<g id="node22" class="node">
<title>Node36</title>
<g id="a_node22"><a xlink:href="../../d5/d70/Detectors_2ITSMFT_2ITS_2tracking_2src_2Cluster_8cxx.html" target="_top" xlink:title="/home/runner/work/AliceO2\l/AliceO2/Detectors/ITSMFT\l/ITS/tracking/src/Cluster.cxx">
<polygon fill="none" stroke="#000000" points="1727,-351 1727,-392 1870,-392 1870,-351 1727,-351"/>
<text text-anchor="start" x="1735" y="-380" font-family="Helvetica,sans-Serif" font-size="10.00" fill="#000000">/home/runner/work/AliceO2</text>
<text text-anchor="start" x="1735" y="-369" font-family="Helvetica,sans-Serif" font-size="10.00" fill="#000000">/AliceO2/Detectors/ITSMFT</text>
<text text-anchor="middle" x="1798.5" y="-358" font-family="Helvetica,sans-Serif" font-size="10.00" fill="#000000">/ITS/tracking/src/Cluster.cxx</text>
</a>
</g>
</g>
<!-- Node15&#45;&gt;Node36 -->
<g id="edge29" class="edge">
<title>Node15&#45;&gt;Node36</title>
<path fill="none" stroke="#191970" d="M1238.8821,-455.7464C1350.958,-448.6496 1547.4014,-432.2648 1712.5,-398 1720.4546,-396.3491 1728.726,-394.2755 1736.8573,-392.019"/>
<polygon fill="#191970" stroke="#191970" points="1238.399,-452.2696 1228.6358,-456.3842 1238.8339,-459.2561 1238.399,-452.2696"/>
</g>
<!-- Node37 -->
<g id="node23" class="node">
<title>Node37</title>
<g id="a_node23"><a xlink:href="../../dc/d14/IndexTableUtils_8cxx.html" target="_top" xlink:title="/home/runner/work/AliceO2\l/AliceO2/Detectors/ITSMFT\l/ITS/tracking/src/IndexTableUtils.cxx">
<polygon fill="none" stroke="#000000" points="1888,-351 1888,-392 2067,-392 2067,-351 1888,-351"/>
<text text-anchor="start" x="1896" y="-380" font-family="Helvetica,sans-Serif" font-size="10.00" fill="#000000">/home/runner/work/AliceO2</text>
<text text-anchor="start" x="1896" y="-369" font-family="Helvetica,sans-Serif" font-size="10.00" fill="#000000">/AliceO2/Detectors/ITSMFT</text>
<text text-anchor="middle" x="1977.5" y="-358" font-family="Helvetica,sans-Serif" font-size="10.00" fill="#000000">/ITS/tracking/src/IndexTableUtils.cxx</text>
</a>
</g>
</g>
<!-- Node15&#45;&gt;Node37 -->
<g id="edge30" class="edge">
<title>Node15&#45;&gt;Node37</title>
<path fill="none" stroke="#191970" d="M1238.767,-457.9679C1377.4765,-452.9134 1650.9707,-438.3334 1879.5,-398 1888.6991,-396.3764 1898.2896,-394.2893 1907.7152,-392.0001"/>
<polygon fill="#191970" stroke="#191970" points="1238.4785,-454.4759 1228.6094,-458.3298 1238.7277,-461.4715 1238.4785,-454.4759"/>
</g>
<!-- Node17 -->
<g id="node3" class="node">
<title>Node17</title>
<g id="a_node3"><a xlink:href="../../d8/d1b/PrimaryVertexContextNV_8h.html" target="_top" xlink:title="/home/runner/work/AliceO2\l/AliceO2/Detectors/ITSMFT\l/ITS/tracking/cuda/include\l/ITStrackingCUDA/PrimaryVertexContextNV.h">
<polygon fill="none" stroke="#000000" points="79,-256.5 79,-308.5 300,-308.5 300,-256.5 79,-256.5"/>
<text text-anchor="start" x="87" y="-296.5" font-family="Helvetica,sans-Serif" font-size="10.00" fill="#000000">/home/runner/work/AliceO2</text>
<text text-anchor="start" x="87" y="-285.5" font-family="Helvetica,sans-Serif" font-size="10.00" fill="#000000">/AliceO2/Detectors/ITSMFT</text>
<text text-anchor="start" x="87" y="-274.5" font-family="Helvetica,sans-Serif" font-size="10.00" fill="#000000">/ITS/tracking/cuda/include</text>
<text text-anchor="middle" x="189.5" y="-263.5" font-family="Helvetica,sans-Serif" font-size="10.00" fill="#000000">/ITStrackingCUDA/PrimaryVertexContextNV.h</text>
</a>
</g>
</g>
<!-- Node16&#45;&gt;Node17 -->
<g id="edge2" class="edge">
<title>Node16&#45;&gt;Node17</title>
<path fill="none" stroke="#191970" d="M576.2164,-356.8234C503.9193,-344.7989 399.992,-326.904 309.5,-309 306.4652,-308.3996 303.3892,-307.7821 300.2865,-307.1515"/>
<polygon fill="#191970" stroke="#191970" points="575.7651,-360.2963 586.2032,-358.4806 576.9111,-353.3908 575.7651,-360.2963"/>
</g>
<!-- Node18 -->
<g id="node4" class="node">
<title>Node18</title>
<g id="a_node4"><a xlink:href="../../d7/da0/ITSMFT_2ITS_2tracking_2include_2ITStracking_2Tracker_8h.html" target="_top" xlink:title="/home/runner/work/AliceO2\l/AliceO2/Detectors/ITSMFT\l/ITS/tracking/include/ITStracking\l/Tracker.h">
<polygon fill="none" stroke="#000000" points="626.5,-167.5 626.5,-219.5 786.5,-219.5 786.5,-167.5 626.5,-167.5"/>
<text text-anchor="start" x="634.5" y="-207.5" font-family="Helvetica,sans-Serif" font-size="10.00" fill="#000000">/home/runner/work/AliceO2</text>
<text text-anchor="start" x="634.5" y="-196.5" font-family="Helvetica,sans-Serif" font-size="10.00" fill="#000000">/AliceO2/Detectors/ITSMFT</text>
<text text-anchor="start" x="634.5" y="-185.5" font-family="Helvetica,sans-Serif" font-size="10.00" fill="#000000">/ITS/tracking/include/ITStracking</text>
<text text-anchor="middle" x="706.5" y="-174.5" font-family="Helvetica,sans-Serif" font-size="10.00" fill="#000000">/Tracker.h</text>
</a>
</g>
</g>
<!-- Node16&#45;&gt;Node18 -->
<g id="edge3" class="edge">
<title>Node16&#45;&gt;Node18</title>
<path fill="none" stroke="#191970" d="M722.2129,-338.9343C732.0303,-330.5031 740.8911,-320.4997 746.5,-309 756.8263,-287.8285 753.1151,-278.6076 746.5,-256 742.7013,-243.0176 735.2896,-230.1705 727.8677,-219.5318"/>
<polygon fill="#191970" stroke="#191970" points="719.8037,-336.3793 714.1783,-345.3573 724.1747,-341.8469 719.8037,-336.3793"/>
</g>
<!-- Node23 -->
<g id="node9" class="node">
<title>Node23</title>
<g id="a_node9"><a xlink:href="../../d2/dee/TrackerTraits_8h.html" target="_top" xlink:title="/home/runner/work/AliceO2\l/AliceO2/Detectors/ITSMFT\l/ITS/tracking/include/ITStracking\l/TrackerTraits.h">
<polygon fill="none" stroke="#000000" points="318.5,-256.5 318.5,-308.5 478.5,-308.5 478.5,-256.5 318.5,-256.5"/>
<text text-anchor="start" x="326.5" y="-296.5" font-family="Helvetica,sans-Serif" font-size="10.00" fill="#000000">/home/runner/work/AliceO2</text>
<text text-anchor="start" x="326.5" y="-285.5" font-family="Helvetica,sans-Serif" font-size="10.00" fill="#000000">/AliceO2/Detectors/ITSMFT</text>
<text text-anchor="start" x="326.5" y="-274.5" font-family="Helvetica,sans-Serif" font-size="10.00" fill="#000000">/ITS/tracking/include/ITStracking</text>
<text text-anchor="middle" x="398.5" y="-263.5" font-family="Helvetica,sans-Serif" font-size="10.00" fill="#000000">/TrackerTraits.h</text>
</a>
</g>
</g>
<!-- Node16&#45;&gt;Node23 -->
<g id="edge8" class="edge">
<title>Node16&#45;&gt;Node23</title>
<path fill="none" stroke="#191970" d="M578.3551,-342.228C545.6791,-331.3766 508.8664,-319.1515 477.0966,-308.6011"/>
<polygon fill="#191970" stroke="#191970" points="577.3085,-345.5683 587.902,-345.3984 579.5147,-338.9251 577.3085,-345.5683"/>
</g>
<!-- Node25 -->
<g id="node11" class="node">
<title>Node25</title>
<g id="a_node11"><a xlink:href="../../de/dbc/TrackerTraitsCPU_8h.html" target="_top" xlink:title="/home/runner/work/AliceO2\l/AliceO2/Detectors/ITSMFT\l/ITS/tracking/include/ITStracking\l/TrackerTraitsCPU.h">
<polygon fill="none" stroke="#000000" points="448.5,-167.5 448.5,-219.5 608.5,-219.5 608.5,-167.5 448.5,-167.5"/>
<text text-anchor="start" x="456.5" y="-207.5" font-family="Helvetica,sans-Serif" font-size="10.00" fill="#000000">/home/runner/work/AliceO2</text>
<text text-anchor="start" x="456.5" y="-196.5" font-family="Helvetica,sans-Serif" font-size="10.00" fill="#000000">/AliceO2/Detectors/ITSMFT</text>
<text text-anchor="start" x="456.5" y="-185.5" font-family="Helvetica,sans-Serif" font-size="10.00" fill="#000000">/ITS/tracking/include/ITStracking</text>
<text text-anchor="middle" x="528.5" y="-174.5" font-family="Helvetica,sans-Serif" font-size="10.00" fill="#000000">/TrackerTraitsCPU.h</text>
</a>
</g>
</g>
<!-- Node16&#45;&gt;Node25 -->
<g id="edge15" class="edge">
<title>Node16&#45;&gt;Node25</title>
<path fill="none" stroke="#191970" d="M697.4211,-337.2426C715.3592,-313.0609 731.2274,-280.7008 713.5,-256 710.1026,-251.2662 656.9847,-233.5871 608.5372,-218.2345"/>
<polygon fill="#191970" stroke="#191970" points="694.4277,-335.3897 691.0416,-345.4289 699.9492,-339.6926 694.4277,-335.3897"/>
</g>
<!-- Node27 -->
<g id="node13" class="node">
<title>Node27</title>
<g id="a_node13"><a xlink:href="../../d9/d29/PrimaryVertexContext_8cxx.html" target="_top" xlink:title="/home/runner/work/AliceO2\l/AliceO2/Detectors/ITSMFT\l/ITS/tracking/src/PrimaryVertexContext.cxx">
<polygon fill="none" stroke="#000000" points="496.5,-262 496.5,-303 704.5,-303 704.5,-262 496.5,-262"/>
<text text-anchor="start" x="504.5" y="-291" font-family="Helvetica,sans-Serif" font-size="10.00" fill="#000000">/home/runner/work/AliceO2</text>
<text text-anchor="start" x="504.5" y="-280" font-family="Helvetica,sans-Serif" font-size="10.00" fill="#000000">/AliceO2/Detectors/ITSMFT</text>
<text text-anchor="middle" x="600.5" y="-269" font-family="Helvetica,sans-Serif" font-size="10.00" fill="#000000">/ITS/tracking/src/PrimaryVertexContext.cxx</text>
</a>
</g>
</g>
<!-- Node16&#45;&gt;Node27 -->
<g id="edge16" class="edge">
<title>Node16&#45;&gt;Node27</title>
<path fill="none" stroke="#191970" d="M641.0238,-337.1458C632.523,-325.6825 623.3186,-313.2705 615.8336,-303.1771"/>
<polygon fill="#191970" stroke="#191970" points="638.2868,-339.3309 647.0548,-345.2784 643.9095,-335.1612 638.2868,-339.3309"/>
</g>
<!-- Node18&#45;&gt;Node19 -->
<g id="edge4" class="edge">
<title>Node18&#45;&gt;Node19</title>
<path fill="none" stroke="#191970" d="M620.3989,-164.0269C583.1339,-151.2708 540.4162,-136.6482 506.6449,-125.0881"/>
<polygon fill="#191970" stroke="#191970" points="619.6536,-167.4711 630.2482,-167.3984 621.9207,-160.8484 619.6536,-167.4711"/>
</g>
<!-- Node20 -->
<g id="node6" class="node">
<title>Node20</title>
<g id="a_node6"><a xlink:href="../../de/d90/ITSMFT_2ITS_2workflow_2include_2ITSWorkflow_2TrackerSpec_8h.html" target="_top" xlink:title="/home/runner/work/AliceO2\l/AliceO2/Detectors/ITSMFT\l/ITS/workflow/include/ITSWorkflow\l/TrackerSpec.h">
<polygon fill="none" stroke="#000000" points="769,-78.5 769,-130.5 940,-130.5 940,-78.5 769,-78.5"/>
<text text-anchor="start" x="777" y="-118.5" font-family="Helvetica,sans-Serif" font-size="10.00" fill="#000000">/home/runner/work/AliceO2</text>
<text text-anchor="start" x="777" y="-107.5" font-family="Helvetica,sans-Serif" font-size="10.00" fill="#000000">/AliceO2/Detectors/ITSMFT</text>
<text text-anchor="start" x="777" y="-96.5" font-family="Helvetica,sans-Serif" font-size="10.00" fill="#000000">/ITS/workflow/include/ITSWorkflow</text>
<text text-anchor="middle" x="854.5" y="-85.5" font-family="Helvetica,sans-Serif" font-size="10.00" fill="#000000">/TrackerSpec.h</text>
</a>
</g>
</g>
<!-- Node18&#45;&gt;Node20 -->
<g id="edge5" class="edge">
<title>Node18&#45;&gt;Node20</title>
<path fill="none" stroke="#191970" d="M758.8838,-161.9989C776.0094,-151.7004 794.8282,-140.3837 811.2073,-130.5341"/>
<polygon fill="#191970" stroke="#191970" points="756.8705,-159.1255 750.1044,-167.2784 760.478,-165.1244 756.8705,-159.1255"/>
</g>
<!-- Node21 -->
<g id="node7" class="node">
<title>Node21</title>
<g id="a_node7"><a xlink:href="../../d5/d99/ITSMFT_2ITS_2workflow_2src_2RecoWorkflow_8cxx.html" target="_top" xlink:title="/home/runner/work/AliceO2\l/AliceO2/Detectors/ITSMFT\l/ITS/workflow/src/RecoWorkflow.cxx">
<polygon fill="none" stroke="#000000" points="667.5,-.5 667.5,-41.5 847.5,-41.5 847.5,-.5 667.5,-.5"/>
<text text-anchor="start" x="675.5" y="-29.5" font-family="Helvetica,sans-Serif" font-size="10.00" fill="#000000">/home/runner/work/AliceO2</text>
<text text-anchor="start" x="675.5" y="-18.5" font-family="Helvetica,sans-Serif" font-size="10.00" fill="#000000">/AliceO2/Detectors/ITSMFT</text>
<text text-anchor="middle" x="757.5" y="-7.5" font-family="Helvetica,sans-Serif" font-size="10.00" fill="#000000">/ITS/workflow/src/RecoWorkflow.cxx</text>
</a>
</g>
</g>
<!-- Node20&#45;&gt;Node21 -->
<g id="edge6" class="edge">
<title>Node20&#45;&gt;Node21</title>
<path fill="none" stroke="#191970" d="M816.4585,-71.753C804.6298,-61.5705 791.9296,-50.6378 781.357,-41.5367"/>
<polygon fill="#191970" stroke="#191970" points="814.2125,-74.4377 824.0747,-78.3092 818.7794,-69.1326 814.2125,-74.4377"/>
</g>
<!-- Node22 -->
<g id="node8" class="node">
<title>Node22</title>
<g id="a_node8"><a xlink:href="../../de/d95/ITSMFT_2ITS_2workflow_2src_2TrackerSpec_8cxx.html" target="_top" xlink:title="/home/runner/work/AliceO2\l/AliceO2/Detectors/ITSMFT\l/ITS/workflow/src/TrackerSpec.cxx">
<polygon fill="none" stroke="#000000" points="866,-.5 866,-41.5 1037,-41.5 1037,-.5 866,-.5"/>
<text text-anchor="start" x="874" y="-29.5" font-family="Helvetica,sans-Serif" font-size="10.00" fill="#000000">/home/runner/work/AliceO2</text>
<text text-anchor="start" x="874" y="-18.5" font-family="Helvetica,sans-Serif" font-size="10.00" fill="#000000">/AliceO2/Detectors/ITSMFT</text>
<text text-anchor="middle" x="951.5" y="-7.5" font-family="Helvetica,sans-Serif" font-size="10.00" fill="#000000">/ITS/workflow/src/TrackerSpec.cxx</text>
</a>
</g>
</g>
<!-- Node20&#45;&gt;Node22 -->
<g id="edge7" class="edge">
<title>Node20&#45;&gt;Node22</title>
<path fill="none" stroke="#191970" d="M892.5415,-71.753C904.3702,-61.5705 917.0704,-50.6378 927.643,-41.5367"/>
<polygon fill="#191970" stroke="#191970" points="890.2206,-69.1326 884.9253,-78.3092 894.7875,-74.4377 890.2206,-69.1326"/>
</g>
<!-- Node23&#45;&gt;Node19 -->
<g id="edge14" class="edge">
<title>Node23&#45;&gt;Node19</title>
<path fill="none" stroke="#191970" d="M311.4546,-252.9751C276.9726,-240.4148 244.3089,-227.0574 239.5,-220 226.2358,-200.534 225.4557,-185.9109 239.5,-167 255.8948,-144.9241 321.3153,-127.6467 374.2809,-116.9054"/>
<polygon fill="#191970" stroke="#191970" points="310.6125,-256.3919 321.2069,-256.4907 312.9865,-249.8067 310.6125,-256.3919"/>
</g>
<!-- Node24 -->
<g id="node10" class="node">
<title>Node24</title>
<g id="a_node10"><a xlink:href="../../db/db2/TrackerTraitsNV_8h.html" target="_top" xlink:title="/home/runner/work/AliceO2\l/AliceO2/Detectors/ITSMFT\l/ITS/tracking/cuda/include\l/ITStrackingCUDA/TrackerTraitsNV.h">
<polygon fill="none" stroke="#000000" points="248.5,-167.5 248.5,-219.5 430.5,-219.5 430.5,-167.5 248.5,-167.5"/>
<text text-anchor="start" x="256.5" y="-207.5" font-family="Helvetica,sans-Serif" font-size="10.00" fill="#000000">/home/runner/work/AliceO2</text>
<text text-anchor="start" x="256.5" y="-196.5" font-family="Helvetica,sans-Serif" font-size="10.00" fill="#000000">/AliceO2/Detectors/ITSMFT</text>
<text text-anchor="start" x="256.5" y="-185.5" font-family="Helvetica,sans-Serif" font-size="10.00" fill="#000000">/ITS/tracking/cuda/include</text>
<text text-anchor="middle" x="339.5" y="-174.5" font-family="Helvetica,sans-Serif" font-size="10.00" fill="#000000">/ITStrackingCUDA/TrackerTraitsNV.h</text>
</a>
</g>
</g>
<!-- Node23&#45;&gt;Node24 -->
<g id="edge9" class="edge">
<title>Node23&#45;&gt;Node24</title>
<path fill="none" stroke="#191970" d="M375.5314,-247.8525C369.2859,-238.4313 362.6291,-228.3897 356.7586,-219.5341"/>
<polygon fill="#191970" stroke="#191970" points="372.6745,-249.8774 381.1172,-256.2784 378.509,-246.0096 372.6745,-249.8774"/>
</g>
<!-- Node23&#45;&gt;Node25 -->
<g id="edge10" class="edge">
<title>Node23&#45;&gt;Node25</title>
<path fill="none" stroke="#191970" d="M445.3423,-250.431C460.1615,-240.2856 476.3496,-229.203 490.4726,-219.5341"/>
<polygon fill="#191970" stroke="#191970" points="443.0755,-247.7412 436.8012,-256.2784 447.0299,-253.5173 443.0755,-247.7412"/>
</g>
<!-- Node25&#45;&gt;Node19 -->
<g id="edge11" class="edge">
<title>Node25&#45;&gt;Node19</title>
<path fill="none" stroke="#191970" d="M497.462,-159.8125C486.7311,-148.1654 475.0309,-135.4665 465.5508,-125.1771"/>
<polygon fill="#191970" stroke="#191970" points="494.9908,-162.2956 504.3408,-167.2784 500.1389,-157.5525 494.9908,-162.2956"/>
</g>
<!-- Node25&#45;&gt;Node20 -->
<g id="edge13" class="edge">
<title>Node25&#45;&gt;Node20</title>
<path fill="none" stroke="#191970" d="M618.1664,-166.8412C673.5932,-151.3569 726.1181,-137.4798 768.758,-126.4151"/>
<polygon fill="#191970" stroke="#191970" points="617.2038,-163.476 608.519,-169.5445 619.0925,-170.2164 617.2038,-163.476"/>
</g>
<!-- Node25&#45;&gt;Node26 -->
<g id="edge12" class="edge">
<title>Node25&#45;&gt;Node26</title>
<path fill="none" stroke="#191970" d="M438.1251,-166.7607C349.5223,-145.9287 258.1901,-129.8238 191.3613,-119.023"/>
<polygon fill="#191970" stroke="#191970" points="437.5386,-170.2187 448.0766,-169.1234 439.1556,-163.408 437.5386,-170.2187"/>
</g>
<!-- Node28&#45;&gt;Node20 -->
<g id="edge27" class="edge">
<title>Node28&#45;&gt;Node20</title>
<path fill="none" stroke="#191970" d="M1084.6142,-339.9668C1071.1753,-331.2654 1057.9292,-320.8899 1047.5,-309 1001.8515,-256.9585 1031.7661,-216.6234 983.5,-167 968.7513,-151.8366 949.5751,-139.8523 930.5375,-130.6078"/>
<polygon fill="#191970" stroke="#191970" points="1083.1022,-343.1474 1093.4456,-345.4421 1086.7908,-337.1981 1083.1022,-343.1474"/>
</g>
<!-- Node29 -->
<g id="node15" class="node">
<title>Node29</title>
<g id="a_node15"><a xlink:href="../../d5/d36/VertexerTraitsGPU_8h.html" target="_top" xlink:title="/home/runner/work/AliceO2\l/AliceO2/Detectors/ITSMFT\l/ITS/tracking/cuda/include\l/ITStrackingCUDA/VertexerTraitsGPU.h">
<polygon fill="none" stroke="#000000" points="1476.5,-256.5 1476.5,-308.5 1670.5,-308.5 1670.5,-256.5 1476.5,-256.5"/>
<text text-anchor="start" x="1484.5" y="-296.5" font-family="Helvetica,sans-Serif" font-size="10.00" fill="#000000">/home/runner/work/AliceO2</text>
<text text-anchor="start" x="1484.5" y="-285.5" font-family="Helvetica,sans-Serif" font-size="10.00" fill="#000000">/AliceO2/Detectors/ITSMFT</text>
<text text-anchor="start" x="1484.5" y="-274.5" font-family="Helvetica,sans-Serif" font-size="10.00" fill="#000000">/ITS/tracking/cuda/include</text>
<text text-anchor="middle" x="1573.5" y="-263.5" font-family="Helvetica,sans-Serif" font-size="10.00" fill="#000000">/ITStrackingCUDA/VertexerTraitsGPU.h</text>
</a>
</g>
</g>
<!-- Node28&#45;&gt;Node29 -->
<g id="edge18" class="edge">
<title>Node28&#45;&gt;Node29</title>
<path fill="none" stroke="#191970" d="M1238.5793,-354.5088C1301.4519,-342.4201 1387.2497,-325.4655 1462.5,-309 1467.0483,-308.0048 1471.6969,-306.969 1476.3891,-305.9084"/>
<polygon fill="#191970" stroke="#191970" points="1237.8518,-351.0845 1228.6906,-356.4064 1239.171,-357.959 1237.8518,-351.0845"/>
</g>
<!-- Node30 -->
<g id="node16" class="node">
<title>Node30</title>
<g id="a_node16"><a xlink:href="../../db/d14/VertexerTraitsHIP_8h.html" target="_top" xlink:title="/home/runner/work/AliceO2\l/AliceO2/Detectors/ITSMFT\l/ITS/tracking/hip/include\l/ITStrackingHIP/VertexerTraitsHIP.h">
<polygon fill="none" stroke="#000000" points="798,-256.5 798,-308.5 975,-308.5 975,-256.5 798,-256.5"/>
<text text-anchor="start" x="806" y="-296.5" font-family="Helvetica,sans-Serif" font-size="10.00" fill="#000000">/home/runner/work/AliceO2</text>
<text text-anchor="start" x="806" y="-285.5" font-family="Helvetica,sans-Serif" font-size="10.00" fill="#000000">/AliceO2/Detectors/ITSMFT</text>
<text text-anchor="start" x="806" y="-274.5" font-family="Helvetica,sans-Serif" font-size="10.00" fill="#000000">/ITS/tracking/hip/include</text>
<text text-anchor="middle" x="886.5" y="-263.5" font-family="Helvetica,sans-Serif" font-size="10.00" fill="#000000">/ITStrackingHIP/VertexerTraitsHIP.h</text>
</a>
</g>
</g>
<!-- Node28&#45;&gt;Node30 -->
<g id="edge19" class="edge">
<title>Node28&#45;&gt;Node30</title>
<path fill="none" stroke="#191970" d="M1061.917,-342.0882C1030.0752,-331.2717 994.2622,-319.1062 963.337,-308.6011"/>
<polygon fill="#191970" stroke="#191970" points="1061.0673,-345.4959 1071.6616,-345.3984 1063.3188,-338.8679 1061.0673,-345.4959"/>
</g>
<!-- Node32 -->
<g id="node18" class="node">
<title>Node32</title>
<g id="a_node18"><a xlink:href="../../de/d9b/Vertexer_8h.html" target="_top" xlink:title="/home/runner/work/AliceO2\l/AliceO2/Detectors/ITSMFT\l/ITS/tracking/include/ITStracking\l/Vertexer.h">
<polygon fill="none" stroke="#000000" points="1068.5,-256.5 1068.5,-308.5 1228.5,-308.5 1228.5,-256.5 1068.5,-256.5"/>
<text text-anchor="start" x="1076.5" y="-296.5" font-family="Helvetica,sans-Serif" font-size="10.00" fill="#000000">/home/runner/work/AliceO2</text>
<text text-anchor="start" x="1076.5" y="-285.5" font-family="Helvetica,sans-Serif" font-size="10.00" fill="#000000">/AliceO2/Detectors/ITSMFT</text>
<text text-anchor="start" x="1076.5" y="-274.5" font-family="Helvetica,sans-Serif" font-size="10.00" fill="#000000">/ITS/tracking/include/ITStracking</text>
<text text-anchor="middle" x="1148.5" y="-263.5" font-family="Helvetica,sans-Serif" font-size="10.00" fill="#000000">/Vertexer.h</text>
</a>
</g>
</g>
<!-- Node28&#45;&gt;Node32 -->
<g id="edge21" class="edge">
<title>Node28&#45;&gt;Node32</title>
<path fill="none" stroke="#191970" d="M1148.5,-335.1155C1148.5,-326.2061 1148.5,-316.8475 1148.5,-308.5341"/>
<polygon fill="#191970" stroke="#191970" points="1145.0001,-335.2784 1148.5,-345.2784 1152.0001,-335.2785 1145.0001,-335.2784"/>
</g>
<!-- Node28&#45;&gt;Node33 -->
<g id="edge25" class="edge">
<title>Node28&#45;&gt;Node33</title>
<path fill="none" stroke="#191970" d="M1238.5937,-362.4003C1310.5887,-353.2119 1403.5907,-336.3973 1429.5,-309 1453.5163,-283.6044 1453.8376,-240.1956 1451.4627,-214.4428"/>
<polygon fill="#191970" stroke="#191970" points="1238.0745,-358.9379 1228.5835,-363.6465 1238.9393,-365.8842 1238.0745,-358.9379"/>
</g>
<!-- Node34 -->
<g id="node20" class="node">
<title>Node34</title>
<g id="a_node20"><a xlink:href="../../d6/dbc/CookedTrackerSpec_8cxx.html" target="_top" xlink:title="/home/runner/work/AliceO2\l/AliceO2/Detectors/ITSMFT\l/ITS/workflow/src/CookedTrackerSpec.cxx">
<polygon fill="none" stroke="#000000" points="1031,-173 1031,-214 1236,-214 1236,-173 1031,-173"/>
<text text-anchor="start" x="1039" y="-202" font-family="Helvetica,sans-Serif" font-size="10.00" fill="#000000">/home/runner/work/AliceO2</text>
<text text-anchor="start" x="1039" y="-191" font-family="Helvetica,sans-Serif" font-size="10.00" fill="#000000">/AliceO2/Detectors/ITSMFT</text>
<text text-anchor="middle" x="1133.5" y="-180" font-family="Helvetica,sans-Serif" font-size="10.00" fill="#000000">/ITS/workflow/src/CookedTrackerSpec.cxx</text>
</a>
</g>
</g>
<!-- Node28&#45;&gt;Node34 -->
<g id="edge28" class="edge">
<title>Node28&#45;&gt;Node34</title>
<path fill="none" stroke="#191970" d="M1085.89,-339.3638C1075.2593,-330.9771 1065.675,-320.8818 1059.5,-309 1048.6375,-288.0985 1049.5793,-277.3646 1059.5,-256 1067.5031,-238.765 1082.8591,-224.5679 1097.5174,-214.0847"/>
<polygon fill="#191970" stroke="#191970" points="1084.0502,-342.3548 1094.1842,-345.4454 1088.1894,-336.7096 1084.0502,-342.3548"/>
</g>
<!-- Node35 -->
<g id="node21" class="node">
<title>Node35</title>
<g id="a_node21"><a xlink:href="../../d2/de1/VertexerTraits_8cxx.html" target="_top" xlink:title="/home/runner/work/AliceO2\l/AliceO2/Detectors/ITSMFT\l/ITS/tracking/src/VertexerTraits.cxx">
<polygon fill="none" stroke="#000000" points="1247,-262 1247,-303 1420,-303 1420,-262 1247,-262"/>
<text text-anchor="start" x="1255" y="-291" font-family="Helvetica,sans-Serif" font-size="10.00" fill="#000000">/home/runner/work/AliceO2</text>
<text text-anchor="start" x="1255" y="-280" font-family="Helvetica,sans-Serif" font-size="10.00" fill="#000000">/AliceO2/Detectors/ITSMFT</text>
<text text-anchor="middle" x="1333.5" y="-269" font-family="Helvetica,sans-Serif" font-size="10.00" fill="#000000">/ITS/tracking/src/VertexerTraits.cxx</text>
</a>
</g>
</g>
<!-- Node28&#45;&gt;Node35 -->
<g id="edge26" class="edge">
<title>Node28&#45;&gt;Node35</title>
<path fill="none" stroke="#191970" d="M1212.0473,-340.9286C1238.0542,-328.4172 1267.4568,-314.2721 1290.8177,-303.0336"/>
<polygon fill="#191970" stroke="#191970" points="1210.4996,-337.7891 1203.0055,-345.2784 1213.5343,-344.0972 1210.4996,-337.7891"/>
</g>
<!-- Node31 -->
<g id="node17" class="node">
<title>Node31</title>
<g id="a_node17"><a xlink:href="../../d8/db1/VertexerTraitsHIP_8hip_8cxx.html" target="_top" xlink:title="/home/runner/work/AliceO2\l/AliceO2/Detectors/ITSMFT\l/ITS/tracking/hip/src/VertexerTraits\lHIP.hip.cxx">
<polygon fill="none" stroke="#000000" points="804.5,-167.5 804.5,-219.5 974.5,-219.5 974.5,-167.5 804.5,-167.5"/>
<text text-anchor="start" x="812.5" y="-207.5" font-family="Helvetica,sans-Serif" font-size="10.00" fill="#000000">/home/runner/work/AliceO2</text>
<text text-anchor="start" x="812.5" y="-196.5" font-family="Helvetica,sans-Serif" font-size="10.00" fill="#000000">/AliceO2/Detectors/ITSMFT</text>
<text text-anchor="start" x="812.5" y="-185.5" font-family="Helvetica,sans-Serif" font-size="10.00" fill="#000000">/ITS/tracking/hip/src/VertexerTraits</text>
<text text-anchor="middle" x="889.5" y="-174.5" font-family="Helvetica,sans-Serif" font-size="10.00" fill="#000000">HIP.hip.cxx</text>
</a>
</g>
</g>
<!-- Node30&#45;&gt;Node31 -->
<g id="edge20" class="edge">
<title>Node30&#45;&gt;Node31</title>
<path fill="none" stroke="#191970" d="M887.7264,-246.1155C888.0268,-237.2061 888.3422,-227.8475 888.6224,-219.5341"/>
<polygon fill="#191970" stroke="#191970" points="884.2228,-246.1662 887.3839,-256.2784 891.2189,-246.4021 884.2228,-246.1662"/>
</g>
<!-- Node32&#45;&gt;Node20 -->
<g id="edge23" class="edge">
<title>Node32&#45;&gt;Node20</title>
<path fill="none" stroke="#191970" d="M1217.4663,-250.6741C1228.726,-242.3301 1238.863,-232.1718 1245.5,-220 1256.7768,-199.3191 1260.7853,-184.9227 1245.5,-167 1225.9282,-144.0512 1049.4311,-123.194 940.3663,-112.3459"/>
<polygon fill="#191970" stroke="#191970" points="1215.3549,-247.8784 1209.103,-256.432 1219.3244,-253.644 1215.3549,-247.8784"/>
</g>
<!-- Node32&#45;&gt;Node33 -->
<g id="edge22" class="edge">
<title>Node32&#45;&gt;Node33</title>
<path fill="none" stroke="#191970" d="M1238.2681,-255.8688C1283.3159,-242.5046 1337.055,-226.562 1378.9243,-214.1408"/>
<polygon fill="#191970" stroke="#191970" points="1237.0919,-252.5669 1228.5004,-258.7665 1239.0829,-259.2778 1237.0919,-252.5669"/>
</g>
<!-- Node32&#45;&gt;Node34 -->
<g id="edge24" class="edge">
<title>Node32&#45;&gt;Node34</title>
<path fill="none" stroke="#191970" d="M1142.3708,-246.1335C1140.5356,-235.2443 1138.5869,-223.6825 1136.9849,-214.1771"/>
<polygon fill="#191970" stroke="#191970" points="1138.9673,-246.9992 1144.0806,-256.2784 1145.8699,-245.8358 1138.9673,-246.9992"/>
</g>
</g>
</svg>
        <g id="navigator" transform="translate(0 0)" fill="#404254">
                <rect fill="#f2f5e9" fill-opacity="0.5" stroke="#606060" stroke-width=".5" x="0" y="0" width="60" height="60"/>
                <use id="zoomplus" xlink:href="#zoomPlus" x="17" y="9" onmousedown="handleZoom(evt,'in')"/>
                <use id="zoomminus" xlink:href="#zoomMin" x="42" y="9" onmousedown="handleZoom(evt,'out')"/>
                <use id="reset" xlink:href="#resetDef" x="30" y="36" onmousedown="handleReset()"/>
                <g id="arrowUp" xlink:href="#dirArrow" transform="translate(30 24)" onmousedown="handlePan(0,-1)">
                  <use xlink:href="#rim" fill="#404040">
                        <set attributeName="fill" to="#808080" begin="arrowUp.mouseover" end="arrowUp.mouseout"/>
                  </use>
                  <path fill="none" stroke="white" stroke-width="1.5" d="M0,-3.0v7 M-2.5,-0.5L0,-3.0L2.5,-0.5"/>
                </g>
                <g id="arrowRight" xlink:href="#dirArrow" transform="rotate(90) translate(36 -43)" onmousedown="handlePan(1,0)">
                  <use xlink:href="#rim" fill="#404040">
                        <set attributeName="fill" to="#808080" begin="arrowRight.mouseover" end="arrowRight.mouseout"/>
                  </use>
                  <path fill="none" stroke="white" stroke-width="1.5" d="M0,-3.0v7 M-2.5,-0.5L0,-3.0L2.5,-0.5"/>
                </g>
                <g id="arrowDown" xlink:href="#dirArrow" transform="rotate(180) translate(-30 -48)" onmousedown="handlePan(0,1)">
                  <use xlink:href="#rim" fill="#404040">
                        <set attributeName="fill" to="#808080" begin="arrowDown.mouseover" end="arrowDown.mouseout"/>
                  </use>
                  <path fill="none" stroke="white" stroke-width="1.5" d="M0,-3.0v7 M-2.5,-0.5L0,-3.0L2.5,-0.5"/>
                </g>
                <g id="arrowLeft" xlink:href="#dirArrow" transform="rotate(270) translate(-36 17)" onmousedown="handlePan(-1,0)">
                  <use xlink:href="#rim" fill="#404040">
                        <set attributeName="fill" to="#808080" begin="arrowLeft.mouseover" end="arrowLeft.mouseout"/>
                  </use>
                  <path fill="none" stroke="white" stroke-width="1.5" d="M0,-3.0v7 M-2.5,-0.5L0,-3.0L2.5,-0.5"/>
                </g>
        </g>
        <svg viewBox="0 0 15 15" width="100%" height="30px" preserveAspectRatio="xMaxYMin meet">
         <g id="arrow_out" transform="scale(0.3 0.3)">
          <a xlink:href="ITS_2tracking_2include_2ITStracking_2IndexTableUtils_8h__dep__incl_org.svg" target="_base">
           <rect id="button" ry="5" rx="5" y="6" x="6" height="38" width="38"
                fill="#f2f5e9" fill-opacity="0.5" stroke="#606060" stroke-width="1.0"/>
           <path id="arrow"
             d="M 11.500037,31.436501 C 11.940474,20.09759 22.043105,11.32322 32.158766,21.979434 L 37.068811,17.246167 C 37.068811,17.246167 37.088388,32 37.088388,32 L 22.160133,31.978069 C 22.160133,31.978069 26.997745,27.140456 26.997745,27.140456 C 18.528582,18.264221 13.291696,25.230495 11.500037,31.436501 z"
             style="fill:#404040;"/>
          </a>
         </g>
        </svg>
</svg>
