<?xml version="1.0" encoding="UTF-8" standalone="no"?>
<!DOCTYPE svg PUBLIC "-//W3C//DTD SVG 1.1//EN"
 "http://www.w3.org/Graphics/SVG/1.1/DTD/svg11.dtd">
<!-- Generated by graphviz version 2.40.1 (20161225.0304)
 -->
<!-- Title: /home/runner/work/AliceO2/AliceO2/Detectors/ITSMFT/common/reconstruction/src/DecodingStat.cxx Pages: 1 -->
<svg width="396pt" height="251pt"
 viewBox="0.00 0.00 396.00 251.00" xmlns="http://www.w3.org/2000/svg" xmlns:xlink="http://www.w3.org/1999/xlink">
<g id="graph0" class="graph" transform="scale(1 1) rotate(0) translate(4 247)">
<title>/home/runner/work/AliceO2/AliceO2/Detectors/ITSMFT/common/reconstruction/src/DecodingStat.cxx</title>
<!-- Node0 -->
<g id="node1" class="node">
<title>Node0</title>
<polygon fill="#bfbfbf" stroke="#000000" points="56,-190.5 56,-242.5 195,-242.5 195,-190.5 56,-190.5"/>
<text text-anchor="start" x="64" y="-230.5" font-family="Helvetica,sans-Serif" font-size="10.00" fill="#000000">/home/runner/work/AliceO2</text>
<text text-anchor="start" x="64" y="-219.5" font-family="Helvetica,sans-Serif" font-size="10.00" fill="#000000">/AliceO2/Detectors/ITSMFT</text>
<text text-anchor="start" x="64" y="-208.5" font-family="Helvetica,sans-Serif" font-size="10.00" fill="#000000">/common/reconstruction/src</text>
<text text-anchor="middle" x="125.5" y="-197.5" font-family="Helvetica,sans-Serif" font-size="10.00" fill="#000000">/DecodingStat.cxx</text>
</g>
<!-- Node1 -->
<g id="node2" class="node">
<title>Node1</title>
<polygon fill="none" stroke="#bfbfbf" points="7,-129 7,-148 48,-148 48,-129 7,-129"/>
<text text-anchor="middle" x="27.5" y="-136" font-family="Helvetica,sans-Serif" font-size="10.00" fill="#000000">bitset</text>
</g>
<!-- Node0&#45;&gt;Node1 -->
<g id="edge1" class="edge">
<title>Node0&#45;&gt;Node1</title>
<path fill="none" stroke="#191970" d="M92.5948,-190.3101C77.6334,-178.4021 60.42,-164.7017 47.4533,-154.3812"/>
<polygon fill="#191970" stroke="#191970" points="49.6158,-151.6291 39.6119,-148.1401 45.2566,-157.1061 49.6158,-151.6291"/>
</g>
<!-- Node2 -->
<g id="node3" class="node">
<title>Node2</title>
<g id="a_node3"><a xlink:href="../../dc/dc5/DecodingStat_8h.html" target="_top" xlink:title="Alpide Chip and GBT link decoding statistics. ">
<polygon fill="none" stroke="#000000" points="66,-123.5 66,-153.5 185,-153.5 185,-123.5 66,-123.5"/>
<text text-anchor="start" x="74" y="-141.5" font-family="Helvetica,sans-Serif" font-size="10.00" fill="#000000">ITSMFTReconstruction</text>
<text text-anchor="middle" x="125.5" y="-130.5" font-family="Helvetica,sans-Serif" font-size="10.00" fill="#000000">/DecodingStat.h</text>
</a>
</g>
</g>
<!-- Node0&#45;&gt;Node2 -->
<g id="edge2" class="edge">
<title>Node0&#45;&gt;Node2</title>
<path fill="none" stroke="#191970" d="M125.5,-190.0928C125.5,-181.516 125.5,-172.0289 125.5,-163.5538"/>
<polygon fill="#191970" stroke="#191970" points="129.0001,-163.5045 125.5,-153.5046 122.0001,-163.5046 129.0001,-163.5045"/>
</g>
<!-- Node8 -->
<g id="node9" class="node">
<title>Node8</title>
<g id="a_node9"><a xlink:href="../../dd/da4/Logger_8h.html" target="_top" xlink:title="Framework/Logger.h">
<polygon fill="none" stroke="#000000" points="245.5,-129 245.5,-148 351.5,-148 351.5,-129 245.5,-129"/>
<text text-anchor="middle" x="298.5" y="-136" font-family="Helvetica,sans-Serif" font-size="10.00" fill="#000000">Framework/Logger.h</text>
</a>
</g>
</g>
<!-- Node0&#45;&gt;Node8 -->
<g id="edge9" class="edge">
<title>Node0&#45;&gt;Node8</title>
<path fill="none" stroke="#191970" d="M183.5878,-190.3101C211.7599,-177.6083 244.4553,-162.867 267.751,-152.3637"/>
<polygon fill="#191970" stroke="#191970" points="269.4411,-155.4411 277.1187,-148.1401 266.5639,-149.0597 269.4411,-155.4411"/>
</g>
<!-- Node3 -->
<g id="node4" class="node">
<title>Node3</title>
<polygon fill="none" stroke="#bfbfbf" points="0,-62 0,-81 41,-81 41,-62 0,-62"/>
<text text-anchor="middle" x="20.5" y="-69" font-family="Helvetica,sans-Serif" font-size="10.00" fill="#000000">string</text>
</g>
<!-- Node2&#45;&gt;Node3 -->
<g id="edge3" class="edge">
<title>Node2&#45;&gt;Node3</title>
<path fill="none" stroke="#191970" d="M101.936,-123.4639C84.7944,-112.526 61.6679,-97.769 44.4398,-86.7759"/>
<polygon fill="#191970" stroke="#191970" points="45.8636,-83.5326 35.5509,-81.1039 42.0982,-89.4336 45.8636,-83.5326"/>
</g>
<!-- Node4 -->
<g id="node5" class="node">
<title>Node4</title>
<polygon fill="none" stroke="#bfbfbf" points="59.5,-62 59.5,-81 97.5,-81 97.5,-62 59.5,-62"/>
<text text-anchor="middle" x="78.5" y="-69" font-family="Helvetica,sans-Serif" font-size="10.00" fill="#000000">array</text>
</g>
<!-- Node2&#45;&gt;Node4 -->
<g id="edge4" class="edge">
<title>Node2&#45;&gt;Node4</title>
<path fill="none" stroke="#191970" d="M114.835,-123.2967C107.7965,-113.2631 98.5423,-100.0709 91.1348,-89.5113"/>
<polygon fill="#191970" stroke="#191970" points="93.8109,-87.2316 85.2027,-81.055 88.0803,-91.2516 93.8109,-87.2316"/>
</g>
<!-- Node5 -->
<g id="node6" class="node">
<title>Node5</title>
<polygon fill="none" stroke="#bfbfbf" points="107.5,-.5 107.5,-19.5 163.5,-19.5 163.5,-.5 107.5,-.5"/>
<text text-anchor="middle" x="135.5" y="-7.5" font-family="Helvetica,sans-Serif" font-size="10.00" fill="#000000">Rtypes.h</text>
</g>
<!-- Node2&#45;&gt;Node5 -->
<g id="edge5" class="edge">
<title>Node2&#45;&gt;Node5</title>
<path fill="none" stroke="#191970" d="M126.6864,-123.2548C128.4981,-99.9744 131.9544,-55.5607 133.9582,-29.8117"/>
<polygon fill="#191970" stroke="#191970" points="137.4558,-29.9772 134.7424,-19.7358 130.4769,-29.4341 137.4558,-29.9772"/>
</g>
<!-- Node6 -->
<g id="node7" class="node">
<title>Node6</title>
<g id="a_node7"><a xlink:href="../../dd/d86/GBTWord_8h.html" target="_top" xlink:title="ITSMFTReconstruction\l/GBTWord.h">
<polygon fill="none" stroke="#000000" points="154,-56.5 154,-86.5 273,-86.5 273,-56.5 154,-56.5"/>
<text text-anchor="start" x="162" y="-74.5" font-family="Helvetica,sans-Serif" font-size="10.00" fill="#000000">ITSMFTReconstruction</text>
<text text-anchor="middle" x="213.5" y="-63.5" font-family="Helvetica,sans-Serif" font-size="10.00" fill="#000000">/GBTWord.h</text>
</a>
</g>
</g>
<!-- Node2&#45;&gt;Node6 -->
<g id="edge6" class="edge">
<title>Node2&#45;&gt;Node6</title>
<path fill="none" stroke="#191970" d="M145.4686,-123.2967C157.2825,-114.302 172.4306,-102.7687 185.4327,-92.8694"/>
<polygon fill="#191970" stroke="#191970" points="187.7743,-95.4857 193.6105,-86.6432 183.5338,-89.9162 187.7743,-95.4857"/>
</g>
<!-- Node6&#45;&gt;Node5 -->
<g id="edge7" class="edge">
<title>Node6&#45;&gt;Node5</title>
<path fill="none" stroke="#191970" d="M194.2191,-56.2977C182.6024,-47.1384 167.8182,-35.4816 155.9908,-26.1562"/>
<polygon fill="#191970" stroke="#191970" points="158.0086,-23.2901 147.9888,-19.8469 153.6744,-28.787 158.0086,-23.2901"/>
</g>
<!-- Node7 -->
<g id="node8" class="node">
<title>Node7</title>
<polygon fill="none" stroke="#bfbfbf" points="190.5,-.5 190.5,-19.5 236.5,-19.5 236.5,-.5 190.5,-.5"/>
<text text-anchor="middle" x="213.5" y="-7.5" font-family="Helvetica,sans-Serif" font-size="10.00" fill="#000000">cstdint</text>
</g>
<!-- Node6&#45;&gt;Node7 -->
<g id="edge8" class="edge">
<title>Node6&#45;&gt;Node7</title>
<path fill="none" stroke="#191970" d="M213.5,-56.2977C213.5,-48.3834 213.5,-38.6043 213.5,-30.0759"/>
<polygon fill="#191970" stroke="#191970" points="217.0001,-29.8469 213.5,-19.8469 210.0001,-29.847 217.0001,-29.8469"/>
</g>
<!-- Node9 -->
<g id="node10" class="node">
<title>Node9</title>
<polygon fill="none" stroke="#bfbfbf" points="291,-62 291,-81 388,-81 388,-62 291,-62"/>
<text text-anchor="middle" x="339.5" y="-69" font-family="Helvetica,sans-Serif" font-size="10.00" fill="#000000">fairlogger/Logger.h</text>
</g>
<!-- Node8&#45;&gt;Node9 -->
<g id="edge10" class="edge">
<title>Node8&#45;&gt;Node9</title>
<path fill="none" stroke="#191970" d="M304.3743,-128.9005C310.5852,-118.751 320.5335,-102.4941 328.2599,-89.8679"/>
<polygon fill="#191970" stroke="#191970" points="331.4023,-91.4382 333.6366,-81.0817 325.4315,-87.7844 331.4023,-91.4382"/>
</g>
</g>
</svg>
