<?xml version="1.0" encoding="UTF-8" standalone="no"?>
<!DOCTYPE svg PUBLIC "-//W3C//DTD SVG 1.1//EN"
 "http://www.w3.org/Graphics/SVG/1.1/DTD/svg11.dtd">
<!-- Generated by graphviz version 2.40.1 (20161225.0304)
 -->
<!-- Title: /home/runner/work/AliceO2/AliceO2/Utilities/O2Device/include/O2Device/Utilities.h Pages: 1 -->
<!--zoomable 229 -->
<svg id="main" version="1.1" xmlns="http://www.w3.org/2000/svg" xmlns:xlink="http://www.w3.org/1999/xlink" xml:space="preserve" onload="init(evt)">
<style type="text/css"><![CDATA[
.edge:hover path { stroke: red; }
.edge:hover polygon { stroke: red; fill: red; }
]]></style>
<script type="text/javascript"><![CDATA[
var edges = document.getElementsByTagName('g');
if (edges && edges.length) {
  for (var i=0;i<edges.length;i++) {
    if (edges[i].id.substr(0,4)=='edge') {
      edges[i].setAttribute('class','edge');
    }
  }
}
]]></script>
        <defs>
                <circle id="rim" cx="0" cy="0" r="7"/>
                <circle id="rim2" cx="0" cy="0" r="3.5"/>
                <g id="zoomPlus">
                        <use xlink:href="#rim" fill="#404040">
                                <set attributeName="fill" to="#808080" begin="zoomplus.mouseover" end="zoomplus.mouseout"/>
                        </use>
                        <path d="M-4,0h8M0,-4v8" fill="none" stroke="white" stroke-width="1.5" pointer-events="none"/>
                </g>
                <g id="zoomMin">
                        <use xlink:href="#rim" fill="#404040">
                                <set attributeName="fill" to="#808080" begin="zoomminus.mouseover" end="zoomminus.mouseout"/>
                        </use>
                        <path d="M-4,0h8" fill="none" stroke="white" stroke-width="1.5" pointer-events="none"/>
                </g>
                <g id="dirArrow">
                        <path fill="none" stroke="white" stroke-width="1.5" d="M0,-3.0v7 M-2.5,-0.5L0,-3.0L2.5,-0.5"/>
                </g>
               <g id="resetDef">
                       <use xlink:href="#rim2" fill="#404040">
                               <set attributeName="fill" to="#808080" begin="reset.mouseover" end="reset.mouseout"/>
                       </use>
               </g>
        </defs>

<script type="text/javascript">
var viewWidth = 2136;
var viewHeight = 229;
var sectionId = 'dynsection-0';
</script>
<script xlink:href="../../svgpan.js"/>
<svg id="graph" class="graph">
<g id="viewport">
<title>/home/runner/work/AliceO2/AliceO2/Utilities/O2Device/include/O2Device/Utilities.h</title>
<!-- Node0 -->
<g id="node1" class="node">
<title>Node0</title>
<polygon fill="#bfbfbf" stroke="#000000" points="1189.5,-179.5 1189.5,-220.5 1330.5,-220.5 1330.5,-179.5 1189.5,-179.5"/>
<text text-anchor="start" x="1197.5" y="-208.5" font-family="Helvetica,sans-Serif" font-size="10.00" fill="#000000">/home/runner/work/AliceO2</text>
<text text-anchor="start" x="1197.5" y="-197.5" font-family="Helvetica,sans-Serif" font-size="10.00" fill="#000000">/AliceO2/Utilities/O2Device</text>
<text text-anchor="middle" x="1260" y="-186.5" font-family="Helvetica,sans-Serif" font-size="10.00" fill="#000000">/include/O2Device/Utilities.h</text>
</g>
<!-- Node1 -->
<g id="node2" class="node">
<title>Node1</title>
<g id="a_node2"><a xlink:href="../../dc/d03/MemoryResources_8h.html" target="_top" xlink:title="MemoryResources/MemoryResources.h">
<polygon fill="none" stroke="#000000" points="1127.5,-67.5 1127.5,-86.5 1320.5,-86.5 1320.5,-67.5 1127.5,-67.5"/>
<text text-anchor="middle" x="1224" y="-74.5" font-family="Helvetica,sans-Serif" font-size="10.00" fill="#000000">MemoryResources/MemoryResources.h</text>
</a>
</g>
</g>
<!-- Node0&#45;&gt;Node1 -->
<g id="edge1" class="edge">
<title>Node0&#45;&gt;Node1</title>
<path fill="none" stroke="#191970" d="M1255.541,-179.2385C1252.0314,-163.6425 1246.7803,-141.8221 1241,-123 1238.2584,-114.0727 1234.7452,-104.3506 1231.625,-96.1538"/>
<polygon fill="#191970" stroke="#191970" points="1234.8585,-94.8117 1227.9705,-86.7614 1228.3349,-97.35 1234.8585,-94.8117"/>
</g>
<!-- Node9 -->
<g id="node10" class="node">
<title>Node9</title>
<polygon fill="none" stroke="#bfbfbf" points="2088,-6 2088,-25 2128,-25 2128,-6 2088,-6"/>
<text text-anchor="middle" x="2108" y="-13" font-family="Helvetica,sans-Serif" font-size="10.00" fill="#000000">utility</text>
</g>
<!-- Node0&#45;&gt;Node9 -->
<g id="edge31" class="edge">
<title>Node0&#45;&gt;Node9</title>
<path fill="none" stroke="#191970" d="M1282.0516,-179.2399C1302.6119,-161.1895 1334.9893,-135.9568 1368,-123 1664.6052,-6.5816 1775.531,-128.1312 2079,-31 2080.4272,-30.5432 2081.8667,-30.0171 2083.3008,-29.4407"/>
<polygon fill="#191970" stroke="#191970" points="2084.9459,-32.5348 2092.5029,-25.1091 2081.9645,-26.2014 2084.9459,-32.5348"/>
</g>
<!-- Node17 -->
<g id="node18" class="node">
<title>Node17</title>
<g id="a_node18"><a xlink:href="../../dc/dcd/DataHeader_8h.html" target="_top" xlink:title="Headers/DataHeader.h">
<polygon fill="none" stroke="#000000" points="343.5,-67.5 343.5,-86.5 460.5,-86.5 460.5,-67.5 343.5,-67.5"/>
<text text-anchor="middle" x="402" y="-74.5" font-family="Helvetica,sans-Serif" font-size="10.00" fill="#000000">Headers/DataHeader.h</text>
</a>
</g>
</g>
<!-- Node0&#45;&gt;Node17 -->
<g id="edge17" class="edge">
<title>Node0&#45;&gt;Node17</title>
<path fill="none" stroke="#191970" d="M1189.4217,-189.8821C1027.5206,-166.6725 631.0666,-109.8382 470.8498,-86.8701"/>
<polygon fill="#191970" stroke="#191970" points="471.0387,-83.3615 460.6432,-85.4069 470.0453,-90.2906 471.0387,-83.3615"/>
</g>
<!-- Node25 -->
<g id="node26" class="node">
<title>Node25</title>
<g id="a_node26"><a xlink:href="../../d4/d00/Headers_2include_2Headers_2Stack_8h.html" target="_top" xlink:title="Headers/Stack.h">
<polygon fill="none" stroke="#000000" points="1142,-123.5 1142,-142.5 1232,-142.5 1232,-123.5 1142,-123.5"/>
<text text-anchor="middle" x="1187" y="-130.5" font-family="Helvetica,sans-Serif" font-size="10.00" fill="#000000">Headers/Stack.h</text>
</a>
</g>
</g>
<!-- Node0&#45;&gt;Node25 -->
<g id="edge28" class="edge">
<title>Node0&#45;&gt;Node25</title>
<path fill="none" stroke="#191970" d="M1237.3025,-179.168C1226.9698,-169.6846 1214.9064,-158.6127 1205.1836,-149.689"/>
<polygon fill="#191970" stroke="#191970" points="1207.3904,-146.9637 1197.6563,-142.7805 1202.6571,-152.1209 1207.3904,-146.9637"/>
</g>
<!-- Node26 -->
<g id="node27" class="node">
<title>Node26</title>
<polygon fill="none" stroke="#bfbfbf" points="1377.5,-123.5 1377.5,-142.5 1422.5,-142.5 1422.5,-123.5 1377.5,-123.5"/>
<text text-anchor="middle" x="1400" y="-130.5" font-family="Helvetica,sans-Serif" font-size="10.00" fill="#000000">gsl/gsl</text>
</g>
<!-- Node0&#45;&gt;Node26 -->
<g id="edge32" class="edge">
<title>Node0&#45;&gt;Node26</title>
<path fill="none" stroke="#191970" d="M1303.147,-179.3511C1325.1031,-168.8435 1351.2135,-156.3478 1370.7885,-146.9798"/>
<polygon fill="#191970" stroke="#191970" points="1372.3168,-150.1286 1379.8261,-142.6546 1369.295,-143.8144 1372.3168,-150.1286"/>
</g>
<!-- Node2 -->
<g id="node3" class="node">
<title>Node2</title>
<polygon fill="none" stroke="#bfbfbf" points="673,-.5 673,-30.5 773,-30.5 773,-.5 673,-.5"/>
<text text-anchor="start" x="681" y="-18.5" font-family="Helvetica,sans-Serif" font-size="10.00" fill="#000000">boost/container/flat</text>
<text text-anchor="middle" x="723" y="-7.5" font-family="Helvetica,sans-Serif" font-size="10.00" fill="#000000">_map.hpp</text>
</g>
<!-- Node1&#45;&gt;Node2 -->
<g id="edge2" class="edge">
<title>Node1&#45;&gt;Node2</title>
<path fill="none" stroke="#191970" d="M1127.2596,-71.2142C1039.6775,-64.9926 907.051,-53.126 783.1415,-31.0361"/>
<polygon fill="#191970" stroke="#191970" points="783.5582,-27.5548 773.0948,-29.2189 782.3121,-34.443 783.5582,-27.5548"/>
</g>
<!-- Node3 -->
<g id="node4" class="node">
<title>Node3</title>
<polygon fill="none" stroke="#bfbfbf" points="791,-.5 791,-30.5 907,-30.5 907,-.5 791,-.5"/>
<text text-anchor="start" x="799" y="-18.5" font-family="Helvetica,sans-Serif" font-size="10.00" fill="#000000">boost/container/pmr</text>
<text text-anchor="middle" x="849" y="-7.5" font-family="Helvetica,sans-Serif" font-size="10.00" fill="#000000">/memory_resource.hpp</text>
</g>
<!-- Node1&#45;&gt;Node3 -->
<g id="edge3" class="edge">
<title>Node1&#45;&gt;Node3</title>
<path fill="none" stroke="#191970" d="M1149.0356,-67.4917C1088.877,-59.4728 1002.0577,-47.0319 917.1233,-31.1294"/>
<polygon fill="#191970" stroke="#191970" points="917.5214,-27.6427 907.0452,-29.2242 916.2211,-34.5209 917.5214,-27.6427"/>
</g>
<!-- Node4 -->
<g id="node5" class="node">
<title>Node4</title>
<polygon fill="none" stroke="#bfbfbf" points="925,-.5 925,-30.5 1081,-30.5 1081,-.5 925,-.5"/>
<text text-anchor="start" x="933" y="-18.5" font-family="Helvetica,sans-Serif" font-size="10.00" fill="#000000">boost/container/pmr</text>
<text text-anchor="middle" x="1003" y="-7.5" font-family="Helvetica,sans-Serif" font-size="10.00" fill="#000000">/monotonic_buffer_resource.hpp</text>
</g>
<!-- Node1&#45;&gt;Node4 -->
<g id="edge4" class="edge">
<title>Node1&#45;&gt;Node4</title>
<path fill="none" stroke="#191970" d="M1189.4688,-67.3906C1156.7204,-58.2774 1106.718,-44.3627 1066.7335,-33.2358"/>
<polygon fill="#191970" stroke="#191970" points="1067.635,-29.8537 1057.0627,-30.5446 1065.7583,-36.5975 1067.635,-29.8537"/>
</g>
<!-- Node5 -->
<g id="node6" class="node">
<title>Node5</title>
<polygon fill="none" stroke="#bfbfbf" points="1099.5,-.5 1099.5,-30.5 1232.5,-30.5 1232.5,-.5 1099.5,-.5"/>
<text text-anchor="start" x="1107.5" y="-18.5" font-family="Helvetica,sans-Serif" font-size="10.00" fill="#000000">boost/container/pmr</text>
<text text-anchor="middle" x="1166" y="-7.5" font-family="Helvetica,sans-Serif" font-size="10.00" fill="#000000">/polymorphic_allocator.hpp</text>
</g>
<!-- Node1&#45;&gt;Node5 -->
<g id="edge5" class="edge">
<title>Node1&#45;&gt;Node5</title>
<path fill="none" stroke="#191970" d="M1214.9375,-67.3906C1207.524,-59.5298 1196.7413,-48.0964 1187.183,-37.9612"/>
<polygon fill="#191970" stroke="#191970" points="1189.5957,-35.4183 1180.1884,-30.5446 1184.5032,-40.221 1189.5957,-35.4183"/>
</g>
<!-- Node6 -->
<g id="node7" class="node">
<title>Node6</title>
<polygon fill="none" stroke="#bfbfbf" points="479,-6 479,-25 525,-25 525,-6 479,-6"/>
<text text-anchor="middle" x="502" y="-13" font-family="Helvetica,sans-Serif" font-size="10.00" fill="#000000">cstring</text>
</g>
<!-- Node1&#45;&gt;Node6 -->
<g id="edge6" class="edge">
<title>Node1&#45;&gt;Node6</title>
<path fill="none" stroke="#191970" d="M1127.2279,-75.1091C964.5054,-71.1676 643.1678,-59.903 534,-31 532.0755,-30.4905 530.1281,-29.8634 528.194,-29.1563"/>
<polygon fill="#191970" stroke="#191970" points="529.3732,-25.8538 518.8032,-25.1301 526.6148,-32.2875 529.3732,-25.8538"/>
</g>
<!-- Node7 -->
<g id="node8" class="node">
<title>Node7</title>
<polygon fill="none" stroke="#bfbfbf" points="543.5,-6 543.5,-25 584.5,-25 584.5,-6 543.5,-6"/>
<text text-anchor="middle" x="564" y="-13" font-family="Helvetica,sans-Serif" font-size="10.00" fill="#000000">string</text>
</g>
<!-- Node1&#45;&gt;Node7 -->
<g id="edge7" class="edge">
<title>Node1&#45;&gt;Node7</title>
<path fill="none" stroke="#191970" d="M1127.419,-74.6838C976.3904,-70.2643 691.5007,-58.498 594,-31 592.332,-30.5296 590.6492,-29.9611 588.9772,-29.3235"/>
<polygon fill="#191970" stroke="#191970" points="590.2514,-26.0583 579.6984,-25.1171 587.3611,-32.4338 590.2514,-26.0583"/>
</g>
<!-- Node8 -->
<g id="node9" class="node">
<title>Node8</title>
<polygon fill="none" stroke="#bfbfbf" points="1251,-6 1251,-25 1313,-25 1313,-6 1251,-6"/>
<text text-anchor="middle" x="1282" y="-13" font-family="Helvetica,sans-Serif" font-size="10.00" fill="#000000">type_traits</text>
</g>
<!-- Node1&#45;&gt;Node8 -->
<g id="edge8" class="edge">
<title>Node1&#45;&gt;Node8</title>
<path fill="none" stroke="#191970" d="M1233.0625,-67.3906C1241.7793,-58.1478 1255.154,-43.966 1265.7196,-32.7628"/>
<polygon fill="#191970" stroke="#191970" points="1268.495,-34.9213 1272.8097,-25.2449 1263.4024,-30.1186 1268.495,-34.9213"/>
</g>
<!-- Node1&#45;&gt;Node9 -->
<g id="edge9" class="edge">
<title>Node1&#45;&gt;Node9</title>
<path fill="none" stroke="#191970" d="M1320.5428,-68.0602C1325.4302,-67.6835 1330.2708,-67.3273 1335,-67 1500.1318,-55.5715 1919.4525,-75.0875 2079,-31 2080.6645,-30.54 2082.3406,-29.9724 2084.0022,-29.3289"/>
<polygon fill="#191970" stroke="#191970" points="2085.6053,-32.443 2093.1805,-25.0358 2082.6395,-26.1024 2085.6053,-32.443"/>
</g>
<!-- Node10 -->
<g id="node11" class="node">
<title>Node10</title>
<polygon fill="none" stroke="#bfbfbf" points="1331,-6 1331,-25 1375,-25 1375,-6 1331,-6"/>
<text text-anchor="middle" x="1353" y="-13" font-family="Helvetica,sans-Serif" font-size="10.00" fill="#000000">vector</text>
</g>
<!-- Node1&#45;&gt;Node10 -->
<g id="edge10" class="edge">
<title>Node1&#45;&gt;Node10</title>
<path fill="none" stroke="#191970" d="M1244.7189,-67.4561C1264.6027,-58.2541 1295.4456,-43.8683 1322,-31 1322.9747,-30.5277 1323.9656,-30.0451 1324.9655,-29.5562"/>
<polygon fill="#191970" stroke="#191970" points="1326.604,-32.6506 1334.0194,-25.0834 1323.5035,-26.3747 1326.604,-32.6506"/>
</g>
<!-- Node11 -->
<g id="node12" class="node">
<title>Node11</title>
<polygon fill="none" stroke="#bfbfbf" points="1393.5,-6 1393.5,-25 1476.5,-25 1476.5,-6 1393.5,-6"/>
<text text-anchor="middle" x="1435" y="-13" font-family="Helvetica,sans-Serif" font-size="10.00" fill="#000000">unordered_map</text>
</g>
<!-- Node1&#45;&gt;Node11 -->
<g id="edge11" class="edge">
<title>Node1&#45;&gt;Node11</title>
<path fill="none" stroke="#191970" d="M1257.7544,-67.4556C1290.1655,-58.2531 1340.4848,-43.8671 1384,-31 1387.3403,-30.0123 1390.8009,-28.9799 1394.2742,-27.9374"/>
<polygon fill="#191970" stroke="#191970" points="1395.4442,-31.2404 1404.0071,-25.0011 1393.4223,-24.5387 1395.4442,-31.2404"/>
</g>
<!-- Node12 -->
<g id="node13" class="node">
<title>Node12</title>
<polygon fill="none" stroke="#bfbfbf" points="1494.5,-6 1494.5,-25 1591.5,-25 1591.5,-6 1494.5,-6"/>
<text text-anchor="middle" x="1543" y="-13" font-family="Helvetica,sans-Serif" font-size="10.00" fill="#000000">FairMQMessage.h</text>
</g>
<!-- Node1&#45;&gt;Node12 -->
<g id="edge12" class="edge">
<title>Node1&#45;&gt;Node12</title>
<path fill="none" stroke="#191970" d="M1287.8541,-67.4673C1341.1052,-59.1166 1418.8424,-45.9935 1486,-31 1490.6353,-29.9651 1495.459,-28.7974 1500.2511,-27.5788"/>
<polygon fill="#191970" stroke="#191970" points="1501.1863,-30.952 1509.973,-25.0321 1499.4125,-24.1804 1501.1863,-30.952"/>
</g>
<!-- Node13 -->
<g id="node14" class="node">
<title>Node13</title>
<polygon fill="none" stroke="#bfbfbf" points="1609.5,-6 1609.5,-25 1740.5,-25 1740.5,-6 1609.5,-6"/>
<text text-anchor="middle" x="1675" y="-13" font-family="Helvetica,sans-Serif" font-size="10.00" fill="#000000">FairMQTransportFactory.h</text>
</g>
<!-- Node1&#45;&gt;Node13 -->
<g id="edge13" class="edge">
<title>Node1&#45;&gt;Node13</title>
<path fill="none" stroke="#191970" d="M1320.7858,-67.4809C1397.1317,-59.4206 1506.1857,-46.6851 1601,-31 1607.8736,-29.8629 1615.0781,-28.531 1622.1807,-27.134"/>
<polygon fill="#191970" stroke="#191970" points="1623.3552,-30.4674 1632.4636,-25.0556 1621.9684,-23.6062 1623.3552,-30.4674"/>
</g>
<!-- Node14 -->
<g id="node15" class="node">
<title>Node14</title>
<polygon fill="none" stroke="#bfbfbf" points="1758.5,-6 1758.5,-25 1895.5,-25 1895.5,-6 1758.5,-6"/>
<text text-anchor="middle" x="1827" y="-13" font-family="Helvetica,sans-Serif" font-size="10.00" fill="#000000">fairmq/MemoryResources.h</text>
</g>
<!-- Node1&#45;&gt;Node14 -->
<g id="edge14" class="edge">
<title>Node1&#45;&gt;Node14</title>
<path fill="none" stroke="#191970" d="M1320.5602,-68.2815C1325.4431,-67.8467 1330.2779,-67.4175 1335,-67 1519.4177,-50.6941 1566.7417,-57.3088 1750,-31 1757.7823,-29.8828 1765.9649,-28.4825 1773.9728,-26.9835"/>
<polygon fill="#191970" stroke="#191970" points="1774.8271,-30.3832 1783.9793,-25.0457 1773.4962,-23.5108 1774.8271,-30.3832"/>
</g>
<!-- Node15 -->
<g id="node16" class="node">
<title>Node15</title>
<polygon fill="none" stroke="#bfbfbf" points="1914,-6 1914,-25 2070,-25 2070,-6 1914,-6"/>
<text text-anchor="middle" x="1992" y="-13" font-family="Helvetica,sans-Serif" font-size="10.00" fill="#000000">fairmq/MemoryResourceTools.h</text>
</g>
<!-- Node1&#45;&gt;Node15 -->
<g id="edge15" class="edge">
<title>Node1&#45;&gt;Node15</title>
<path fill="none" stroke="#191970" d="M1320.549,-68.1456C1325.4348,-67.7465 1330.2734,-67.3621 1335,-67 1588.0965,-47.6102 1652.978,-61.31 1905,-31 1914.4964,-29.8579 1924.5271,-28.3528 1934.2688,-26.7293"/>
<polygon fill="#191970" stroke="#191970" points="1935.0207,-30.1514 1944.2815,-25.0047 1933.8325,-23.253 1935.0207,-30.1514"/>
</g>
<!-- Node16 -->
<g id="node17" class="node">
<title>Node16</title>
<g id="a_node17"><a xlink:href="../../d7/df8/Types_8h.html" target="_top" xlink:title="Types.h">
<polygon fill="none" stroke="#000000" points="603,-6 603,-25 655,-25 655,-6 603,-6"/>
<text text-anchor="middle" x="629" y="-13" font-family="Helvetica,sans-Serif" font-size="10.00" fill="#000000">Types.h</text>
</a>
</g>
</g>
<!-- Node1&#45;&gt;Node16 -->
<g id="edge16" class="edge">
<title>Node1&#45;&gt;Node16</title>
<path fill="none" stroke="#191970" d="M1127.4491,-72.9615C991.034,-66.5902 749.0187,-52.6571 664,-31 661.6635,-30.4048 659.2863,-29.667 656.9268,-28.839"/>
<polygon fill="#191970" stroke="#191970" points="658.062,-25.5235 647.4773,-25.0612 655.4635,-32.0233 658.062,-25.5235"/>
</g>
<!-- Node17&#45;&gt;Node6 -->
<g id="edge21" class="edge">
<title>Node17&#45;&gt;Node6</title>
<path fill="none" stroke="#191970" d="M417.625,-67.3906C433.7698,-57.4616 459.1822,-41.833 477.9023,-30.3201"/>
<polygon fill="#191970" stroke="#191970" points="479.8002,-33.2619 486.4847,-25.0419 476.1331,-27.2992 479.8002,-33.2619"/>
</g>
<!-- Node17&#45;&gt;Node7 -->
<g id="edge24" class="edge">
<title>Node17&#45;&gt;Node7</title>
<path fill="none" stroke="#191970" d="M433.4124,-67.4384C460.4596,-58.8791 500.3354,-45.4762 534,-31 535.0233,-30.56 536.0599,-30.0999 537.1023,-29.6252"/>
<polygon fill="#191970" stroke="#191970" points="538.9609,-32.6138 546.4329,-25.1024 535.9076,-26.3148 538.9609,-32.6138"/>
</g>
<!-- Node17&#45;&gt;Node16 -->
<g id="edge26" class="edge">
<title>Node17&#45;&gt;Node16</title>
<path fill="none" stroke="#191970" d="M451.7194,-67.4512C490.6533,-59.3952 545.9151,-46.6793 593,-31 594.8884,-30.3712 596.8153,-29.6837 598.7471,-28.9591"/>
<polygon fill="#191970" stroke="#191970" points="600.3165,-32.1007 608.2934,-25.1279 597.7092,-25.6044 600.3165,-32.1007"/>
</g>
<!-- Node18 -->
<g id="node19" class="node">
<title>Node18</title>
<polygon fill="none" stroke="#bfbfbf" points="277,-6 277,-25 323,-25 323,-6 277,-6"/>
<text text-anchor="middle" x="300" y="-13" font-family="Helvetica,sans-Serif" font-size="10.00" fill="#000000">cstdint</text>
</g>
<!-- Node17&#45;&gt;Node18 -->
<g id="edge18" class="edge">
<title>Node17&#45;&gt;Node18</title>
<path fill="none" stroke="#191970" d="M386.0625,-67.3906C369.5949,-57.4616 343.6742,-41.833 324.5796,-30.3201"/>
<polygon fill="#191970" stroke="#191970" points="326.1966,-27.2081 315.8256,-25.0419 322.5822,-33.2027 326.1966,-27.2081"/>
</g>
<!-- Node19 -->
<g id="node20" class="node">
<title>Node19</title>
<polygon fill="none" stroke="#bfbfbf" points="341,-6 341,-25 393,-25 393,-6 341,-6"/>
<text text-anchor="middle" x="367" y="-13" font-family="Helvetica,sans-Serif" font-size="10.00" fill="#000000">memory</text>
</g>
<!-- Node17&#45;&gt;Node19 -->
<g id="edge19" class="edge">
<title>Node17&#45;&gt;Node19</title>
<path fill="none" stroke="#191970" d="M396.5313,-67.3906C391.4754,-58.5068 383.8228,-45.0601 377.5746,-34.0811"/>
<polygon fill="#191970" stroke="#191970" points="380.534,-32.2048 372.5459,-25.2449 374.4502,-35.6672 380.534,-32.2048"/>
</g>
<!-- Node20 -->
<g id="node21" class="node">
<title>Node20</title>
<polygon fill="none" stroke="#bfbfbf" points="411.5,-6 411.5,-25 460.5,-25 460.5,-6 411.5,-6"/>
<text text-anchor="middle" x="436" y="-13" font-family="Helvetica,sans-Serif" font-size="10.00" fill="#000000">cassert</text>
</g>
<!-- Node17&#45;&gt;Node20 -->
<g id="edge20" class="edge">
<title>Node17&#45;&gt;Node20</title>
<path fill="none" stroke="#191970" d="M407.3125,-67.3906C412.2239,-58.5068 419.6579,-45.0601 425.7275,-34.0811"/>
<polygon fill="#191970" stroke="#191970" points="428.8373,-35.6899 430.6126,-25.2449 422.7112,-32.3031 428.8373,-35.6899"/>
</g>
<!-- Node21 -->
<g id="node22" class="node">
<title>Node21</title>
<polygon fill="none" stroke="#bfbfbf" points="0,-6 0,-25 56,-25 56,-6 0,-6"/>
<text text-anchor="middle" x="28" y="-13" font-family="Helvetica,sans-Serif" font-size="10.00" fill="#000000">algorithm</text>
</g>
<!-- Node17&#45;&gt;Node21 -->
<g id="edge22" class="edge">
<title>Node17&#45;&gt;Node21</title>
<path fill="none" stroke="#191970" d="M343.2339,-73.6368C275.2483,-68.6818 160.4245,-57.0179 65,-31 62.5307,-30.3267 60.0078,-29.5273 57.4977,-28.6519"/>
<polygon fill="#191970" stroke="#191970" points="58.6096,-25.3296 48.0198,-25.0046 56.0956,-31.8626 58.6096,-25.3296"/>
</g>
<!-- Node22 -->
<g id="node23" class="node">
<title>Node22</title>
<polygon fill="none" stroke="#bfbfbf" points="74.5,-6 74.5,-25 133.5,-25 133.5,-6 74.5,-6"/>
<text text-anchor="middle" x="104" y="-13" font-family="Helvetica,sans-Serif" font-size="10.00" fill="#000000">stdexcept</text>
</g>
<!-- Node17&#45;&gt;Node22 -->
<g id="edge23" class="edge">
<title>Node17&#45;&gt;Node22</title>
<path fill="none" stroke="#191970" d="M343.3647,-70.2415C290.1328,-63.2575 209.8207,-50.5905 142,-31 139.5443,-30.2907 137.0307,-29.4757 134.5235,-28.5988"/>
<polygon fill="#191970" stroke="#191970" points="135.6135,-25.2691 125.0221,-25.0008 133.1346,-31.8154 135.6135,-25.2691"/>
</g>
<!-- Node23 -->
<g id="node24" class="node">
<title>Node23</title>
<polygon fill="none" stroke="#bfbfbf" points="151.5,-6 151.5,-25 196.5,-25 196.5,-6 151.5,-6"/>
<text text-anchor="middle" x="174" y="-13" font-family="Helvetica,sans-Serif" font-size="10.00" fill="#000000">climits</text>
</g>
<!-- Node17&#45;&gt;Node23 -->
<g id="edge25" class="edge">
<title>Node17&#45;&gt;Node23</title>
<path fill="none" stroke="#191970" d="M346.9979,-67.464C307.1897,-59.7538 252.4485,-47.4722 206,-31 204.4001,-30.4326 202.7746,-29.8083 201.1476,-29.1457"/>
<polygon fill="#191970" stroke="#191970" points="202.5375,-25.9334 191.9784,-25.0645 199.691,-32.3285 202.5375,-25.9334"/>
</g>
<!-- Node24 -->
<g id="node25" class="node">
<title>Node24</title>
<polygon fill="none" stroke="#bfbfbf" points="215,-6 215,-25 259,-25 259,-6 215,-6"/>
<text text-anchor="middle" x="237" y="-13" font-family="Helvetica,sans-Serif" font-size="10.00" fill="#000000">cerrno</text>
</g>
<!-- Node17&#45;&gt;Node24 -->
<g id="edge27" class="edge">
<title>Node17&#45;&gt;Node24</title>
<path fill="none" stroke="#191970" d="M370.4216,-67.4681C342.9842,-58.8777 302.3631,-45.4137 268,-31 266.8139,-30.5025 265.6098,-29.98 264.3989,-29.4402"/>
<polygon fill="#191970" stroke="#191970" points="265.7088,-26.1883 255.1711,-25.0893 262.7235,-32.5198 265.7088,-26.1883"/>
</g>
<!-- Node25&#45;&gt;Node1 -->
<g id="edge29" class="edge">
<title>Node25&#45;&gt;Node1</title>
<path fill="none" stroke="#191970" d="M1193.4449,-123.2455C1198.5382,-115.5367 1205.7908,-104.5598 1211.952,-95.2348"/>
<polygon fill="#191970" stroke="#191970" points="1215.0365,-96.9155 1217.6289,-86.6427 1209.1962,-93.0566 1215.0365,-96.9155"/>
</g>
<!-- Node25&#45;&gt;Node17 -->
<g id="edge30" class="edge">
<title>Node25&#45;&gt;Node17</title>
<path fill="none" stroke="#191970" d="M1141.9755,-129.7881C1010.7152,-120.4243 627.8115,-93.1088 470.594,-81.8933"/>
<polygon fill="#191970" stroke="#191970" points="470.7935,-78.3988 460.5698,-81.1782 470.2954,-85.381 470.7935,-78.3988"/>
</g>
</g>
</svg>
        <g id="navigator" transform="translate(0 0)" fill="#404254">
                <rect fill="#f2f5e9" fill-opacity="0.5" stroke="#606060" stroke-width=".5" x="0" y="0" width="60" height="60"/>
                <use id="zoomplus" xlink:href="#zoomPlus" x="17" y="9" onmousedown="handleZoom(evt,'in')"/>
                <use id="zoomminus" xlink:href="#zoomMin" x="42" y="9" onmousedown="handleZoom(evt,'out')"/>
                <use id="reset" xlink:href="#resetDef" x="30" y="36" onmousedown="handleReset()"/>
                <g id="arrowUp" xlink:href="#dirArrow" transform="translate(30 24)" onmousedown="handlePan(0,-1)">
                  <use xlink:href="#rim" fill="#404040">
                        <set attributeName="fill" to="#808080" begin="arrowUp.mouseover" end="arrowUp.mouseout"/>
                  </use>
                  <path fill="none" stroke="white" stroke-width="1.5" d="M0,-3.0v7 M-2.5,-0.5L0,-3.0L2.5,-0.5"/>
                </g>
                <g id="arrowRight" xlink:href="#dirArrow" transform="rotate(90) translate(36 -43)" onmousedown="handlePan(1,0)">
                  <use xlink:href="#rim" fill="#404040">
                        <set attributeName="fill" to="#808080" begin="arrowRight.mouseover" end="arrowRight.mouseout"/>
                  </use>
                  <path fill="none" stroke="white" stroke-width="1.5" d="M0,-3.0v7 M-2.5,-0.5L0,-3.0L2.5,-0.5"/>
                </g>
                <g id="arrowDown" xlink:href="#dirArrow" transform="rotate(180) translate(-30 -48)" onmousedown="handlePan(0,1)">
                  <use xlink:href="#rim" fill="#404040">
                        <set attributeName="fill" to="#808080" begin="arrowDown.mouseover" end="arrowDown.mouseout"/>
                  </use>
                  <path fill="none" stroke="white" stroke-width="1.5" d="M0,-3.0v7 M-2.5,-0.5L0,-3.0L2.5,-0.5"/>
                </g>
                <g id="arrowLeft" xlink:href="#dirArrow" transform="rotate(270) translate(-36 17)" onmousedown="handlePan(-1,0)">
                  <use xlink:href="#rim" fill="#404040">
                        <set attributeName="fill" to="#808080" begin="arrowLeft.mouseover" end="arrowLeft.mouseout"/>
                  </use>
                  <path fill="none" stroke="white" stroke-width="1.5" d="M0,-3.0v7 M-2.5,-0.5L0,-3.0L2.5,-0.5"/>
                </g>
        </g>
        <svg viewBox="0 0 15 15" width="100%" height="30px" preserveAspectRatio="xMaxYMin meet">
         <g id="arrow_out" transform="scale(0.3 0.3)">
          <a xlink:href="Utilities_8h__incl_org.svg" target="_base">
           <rect id="button" ry="5" rx="5" y="6" x="6" height="38" width="38"
                fill="#f2f5e9" fill-opacity="0.5" stroke="#606060" stroke-width="1.0"/>
           <path id="arrow"
             d="M 11.500037,31.436501 C 11.940474,20.09759 22.043105,11.32322 32.158766,21.979434 L 37.068811,17.246167 C 37.068811,17.246167 37.088388,32 37.088388,32 L 22.160133,31.978069 C 22.160133,31.978069 26.997745,27.140456 26.997745,27.140456 C 18.528582,18.264221 13.291696,25.230495 11.500037,31.436501 z"
             style="fill:#404040;"/>
          </a>
         </g>
        </svg>
</svg>
