<?xml version="1.0" encoding="UTF-8" standalone="no"?>
<!DOCTYPE svg PUBLIC "-//W3C//DTD SVG 1.1//EN"
 "http://www.w3.org/Graphics/SVG/1.1/DTD/svg11.dtd">
<!-- Generated by graphviz version 2.40.1 (20161225.0304)
 -->
<!-- Title: o2::tpc::TrackInterpolation::CacheStruct Pages: 1 -->
<svg width="256pt" height="248pt"
 viewBox="0.00 0.00 255.50 248.00" xmlns="http://www.w3.org/2000/svg" xmlns:xlink="http://www.w3.org/1999/xlink">
<g id="graph0" class="graph" transform="scale(1 1) rotate(0) translate(4 244)">
<title>o2::tpc::TrackInterpolation::CacheStruct</title>
<!-- Node1 -->
<g id="node1" class="node">
<title>Node1</title>
<polygon fill="#bfbfbf" stroke="#000000" points="48,-.5 48,-68.5 179,-68.5 179,-.5 48,-.5"/>
<text text-anchor="start" x="56" y="-56.5" font-family="Helvetica,sans-Serif" font-size="10.00" fill="#000000">o2::tpc::TrackInterpolation</text>
<text text-anchor="middle" x="113.5" y="-45.5" font-family="Helvetica,sans-Serif" font-size="10.00" fill="#000000">::CacheStruct</text>
<polyline fill="none" stroke="#000000" points="48,-38.5 179,-38.5 "/>
<text text-anchor="middle" x="113.5" y="-26.5" font-family="Helvetica,sans-Serif" font-size="10.00" fill="#000000"> </text>
<polyline fill="none" stroke="#000000" points="48,-19.5 179,-19.5 "/>
<text text-anchor="middle" x="113.5" y="-7.5" font-family="Helvetica,sans-Serif" font-size="10.00" fill="#000000"> </text>
</g>
<!-- Node2 -->
<g id="node2" class="node">
<title>Node2</title>
<g id="a_node2"><a xlink:href="../../d4/dc3/classfloat.html" target="_top" xlink:title="{float\n||}">
<polygon fill="none" stroke="#000000" points="0,-182.5 0,-239.5 35,-239.5 35,-182.5 0,-182.5"/>
<text text-anchor="middle" x="17.5" y="-227.5" font-family="Helvetica,sans-Serif" font-size="10.00" fill="#000000">float</text>
<polyline fill="none" stroke="#000000" points="0,-220.5 35,-220.5 "/>
<text text-anchor="middle" x="17.5" y="-208.5" font-family="Helvetica,sans-Serif" font-size="10.00" fill="#000000"> </text>
<polyline fill="none" stroke="#000000" points="0,-201.5 35,-201.5 "/>
<text text-anchor="middle" x="17.5" y="-189.5" font-family="Helvetica,sans-Serif" font-size="10.00" fill="#000000"> </text>
</a>
</g>
</g>
<!-- Node2&#45;&gt;Node1 -->
<g id="edge1" class="edge">
<title>Node2&#45;&gt;Node1</title>
<path fill="none" stroke="#404040" d="M27.1338,-182.3135C36.424,-156.4399 51.8063,-117.8293 70.5,-87 72.1885,-84.2154 74.0136,-81.4201 75.9262,-78.6488"/>
<polygon fill="none" stroke="#404040" points="76.0604,-78.4654 76.3757,-71.2611 83.147,-68.7812 82.8317,-75.9855 76.0604,-78.4654"/>
<text text-anchor="middle" x="90" y="-134" font-family="Helvetica,sans-Serif" font-size="10.00" fill="#000000"> +clY</text>
<text text-anchor="middle" x="90" y="-123" font-family="Helvetica,sans-Serif" font-size="10.00" fill="#000000">+clZ</text>
<text text-anchor="middle" x="90" y="-112" font-family="Helvetica,sans-Serif" font-size="10.00" fill="#000000">+clAngle</text>
</g>
<!-- Node3 -->
<g id="node3" class="node">
<title>Node3</title>
<polygon fill="none" stroke="#bfbfbf" points="53.5,-182.5 53.5,-239.5 173.5,-239.5 173.5,-182.5 53.5,-182.5"/>
<text text-anchor="middle" x="113.5" y="-227.5" font-family="Helvetica,sans-Serif" font-size="10.00" fill="#000000">array&lt; float, NIndices &gt;</text>
<polyline fill="none" stroke="#bfbfbf" points="53.5,-220.5 173.5,-220.5 "/>
<text text-anchor="middle" x="113.5" y="-208.5" font-family="Helvetica,sans-Serif" font-size="10.00" fill="#000000"> </text>
<polyline fill="none" stroke="#bfbfbf" points="53.5,-201.5 173.5,-201.5 "/>
<text text-anchor="middle" x="113.5" y="-189.5" font-family="Helvetica,sans-Serif" font-size="10.00" fill="#000000"> </text>
</g>
<!-- Node3&#45;&gt;Node1 -->
<g id="edge2" class="edge">
<title>Node3&#45;&gt;Node1</title>
<path fill="none" stroke="#404040" d="M113.5,-182.2494C113.5,-154.8266 113.5,-113.0563 113.5,-80.9167"/>
<polygon fill="none" stroke="#404040" points="113.5001,-80.683 109.5,-74.683 113.5,-68.683 117.5,-74.683 113.5001,-80.683"/>
<text text-anchor="middle" x="126" y="-156" font-family="Helvetica,sans-Serif" font-size="10.00" fill="#000000"> +sz2</text>
<text text-anchor="middle" x="126" y="-145" font-family="Helvetica,sans-Serif" font-size="10.00" fill="#000000">+sy2</text>
<text text-anchor="middle" x="126" y="-134" font-family="Helvetica,sans-Serif" font-size="10.00" fill="#000000">+phi</text>
<text text-anchor="middle" x="126" y="-123" font-family="Helvetica,sans-Serif" font-size="10.00" fill="#000000">+szy</text>
<text text-anchor="middle" x="126" y="-112" font-family="Helvetica,sans-Serif" font-size="10.00" fill="#000000">+tgl</text>
<text text-anchor="middle" x="126" y="-101" font-family="Helvetica,sans-Serif" font-size="10.00" fill="#000000">+y</text>
<text text-anchor="middle" x="126" y="-90" font-family="Helvetica,sans-Serif" font-size="10.00" fill="#000000">+z</text>
</g>
<!-- Node4 -->
<g id="node4" class="node">
<title>Node4</title>
<polygon fill="none" stroke="#bfbfbf" points="191.5,-182.5 191.5,-239.5 247.5,-239.5 247.5,-182.5 191.5,-182.5"/>
<text text-anchor="middle" x="219.5" y="-227.5" font-family="Helvetica,sans-Serif" font-size="10.00" fill="#000000">unsigned</text>
<polyline fill="none" stroke="#bfbfbf" points="191.5,-220.5 247.5,-220.5 "/>
<text text-anchor="middle" x="219.5" y="-208.5" font-family="Helvetica,sans-Serif" font-size="10.00" fill="#000000"> </text>
<polyline fill="none" stroke="#bfbfbf" points="191.5,-201.5 247.5,-201.5 "/>
<text text-anchor="middle" x="219.5" y="-189.5" font-family="Helvetica,sans-Serif" font-size="10.00" fill="#000000"> </text>
</g>
<!-- Node4&#45;&gt;Node1 -->
<g id="edge3" class="edge">
<title>Node4&#45;&gt;Node1</title>
<path fill="none" stroke="#404040" d="M202.2334,-182.2494C185.4726,-154.3413 159.7876,-111.5732 140.357,-79.2194"/>
<polygon fill="none" stroke="#404040" points="140.2074,-78.9703 133.6892,-75.8861 134.0292,-68.683 140.5474,-71.7672 140.2074,-78.9703"/>
<text text-anchor="middle" x="219" y="-123" font-family="Helvetica,sans-Serif" font-size="10.00" fill="#000000"> +clAvailable</text>
</g>
</g>
</svg>
