<?xml version="1.0" encoding="UTF-8" standalone="no"?>
<!DOCTYPE svg PUBLIC "-//W3C//DTD SVG 1.1//EN"
 "http://www.w3.org/Graphics/SVG/1.1/DTD/svg11.dtd">
<!-- Generated by graphviz version 2.40.1 (20161225.0304)
 -->
<!-- Title: /home/runner/work/AliceO2/AliceO2/Detectors/ITSMFT/ITS/tracking/include/ITStracking/Constants.h Pages: 1 -->
<svg width="475pt" height="229pt"
 viewBox="0.00 0.00 474.50 229.00" xmlns="http://www.w3.org/2000/svg" xmlns:xlink="http://www.w3.org/1999/xlink">
<g id="graph0" class="graph" transform="scale(1 1) rotate(0) translate(4 225)">
<title>/home/runner/work/AliceO2/AliceO2/Detectors/ITSMFT/ITS/tracking/include/ITStracking/Constants.h</title>
<!-- Node0 -->
<g id="node1" class="node">
<title>Node0</title>
<polygon fill="#bfbfbf" stroke="#000000" points="108.5,-168.5 108.5,-220.5 268.5,-220.5 268.5,-168.5 108.5,-168.5"/>
<text text-anchor="start" x="116.5" y="-208.5" font-family="Helvetica,sans-Serif" font-size="10.00" fill="#000000">/home/runner/work/AliceO2</text>
<text text-anchor="start" x="116.5" y="-197.5" font-family="Helvetica,sans-Serif" font-size="10.00" fill="#000000">/AliceO2/Detectors/ITSMFT</text>
<text text-anchor="start" x="116.5" y="-186.5" font-family="Helvetica,sans-Serif" font-size="10.00" fill="#000000">/ITS/tracking/include/ITStracking</text>
<text text-anchor="middle" x="188.5" y="-175.5" font-family="Helvetica,sans-Serif" font-size="10.00" fill="#000000">/Constants.h</text>
</g>
<!-- Node1 -->
<g id="node2" class="node">
<title>Node1</title>
<polygon fill="none" stroke="#bfbfbf" points="0,-112.5 0,-131.5 45,-131.5 45,-112.5 0,-112.5"/>
<text text-anchor="middle" x="22.5" y="-119.5" font-family="Helvetica,sans-Serif" font-size="10.00" fill="#000000">climits</text>
</g>
<!-- Node0&#45;&gt;Node1 -->
<g id="edge1" class="edge">
<title>Node0&#45;&gt;Node1</title>
<path fill="none" stroke="#191970" d="M128.5702,-168.3258C103.2359,-157.2612 74.7867,-144.8361 53.7338,-135.6413"/>
<polygon fill="#191970" stroke="#191970" points="54.8945,-132.329 44.3296,-131.534 52.0928,-138.7439 54.8945,-132.329"/>
</g>
<!-- Node2 -->
<g id="node3" class="node">
<title>Node2</title>
<polygon fill="none" stroke="#bfbfbf" points="63.5,-112.5 63.5,-131.5 107.5,-131.5 107.5,-112.5 63.5,-112.5"/>
<text text-anchor="middle" x="85.5" y="-119.5" font-family="Helvetica,sans-Serif" font-size="10.00" fill="#000000">vector</text>
</g>
<!-- Node0&#45;&gt;Node2 -->
<g id="edge2" class="edge">
<title>Node0&#45;&gt;Node2</title>
<path fill="none" stroke="#191970" d="M151.3146,-168.3258C136.5199,-157.912 120.013,-146.2931 107.2315,-137.2965"/>
<polygon fill="#191970" stroke="#191970" points="109.2368,-134.4279 99.0449,-131.534 105.2077,-140.152 109.2368,-134.4279"/>
</g>
<!-- Node3 -->
<g id="node4" class="node">
<title>Node3</title>
<g id="a_node4"><a xlink:href="../../df/d3d/Definitions_8h.html" target="_top" xlink:title="ITStracking/Definitions.h">
<polygon fill="none" stroke="#000000" points="126,-112.5 126,-131.5 251,-131.5 251,-112.5 126,-112.5"/>
<text text-anchor="middle" x="188.5" y="-119.5" font-family="Helvetica,sans-Serif" font-size="10.00" fill="#000000">ITStracking/Definitions.h</text>
</a>
</g>
</g>
<!-- Node0&#45;&gt;Node3 -->
<g id="edge3" class="edge">
<title>Node0&#45;&gt;Node3</title>
<path fill="none" stroke="#191970" d="M188.5,-168.3258C188.5,-159.5142 188.5,-149.8397 188.5,-141.621"/>
<polygon fill="#191970" stroke="#191970" points="192.0001,-141.534 188.5,-131.534 185.0001,-141.534 192.0001,-141.534"/>
</g>
<!-- Node5 -->
<g id="node6" class="node">
<title>Node5</title>
<g id="a_node6"><a xlink:href="../../df/d21/GPUCommonDef_8h.html" target="_top" xlink:title="GPUCommonDef.h">
<polygon fill="none" stroke="#000000" points="228.5,-56.5 228.5,-75.5 330.5,-75.5 330.5,-56.5 228.5,-56.5"/>
<text text-anchor="middle" x="279.5" y="-63.5" font-family="Helvetica,sans-Serif" font-size="10.00" fill="#000000">GPUCommonDef.h</text>
</a>
</g>
</g>
<!-- Node0&#45;&gt;Node5 -->
<g id="edge13" class="edge">
<title>Node0&#45;&gt;Node5</title>
<path fill="none" stroke="#191970" d="M225.9341,-168.2396C238.094,-158.118 250.7048,-145.6732 259.5,-132 268.5974,-117.857 273.7325,-99.3662 276.5147,-85.5556"/>
<polygon fill="#191970" stroke="#191970" points="279.9703,-86.1136 278.2723,-75.6557 273.0781,-84.8899 279.9703,-86.1136"/>
</g>
<!-- Node9 -->
<g id="node10" class="node">
<title>Node9</title>
<g id="a_node10"><a xlink:href="../../d6/da2/GPUCommonMath_8h.html" target="_top" xlink:title="GPUCommonMath.h">
<polygon fill="none" stroke="#000000" points="312.5,-112.5 312.5,-131.5 420.5,-131.5 420.5,-112.5 312.5,-112.5"/>
<text text-anchor="middle" x="366.5" y="-119.5" font-family="Helvetica,sans-Serif" font-size="10.00" fill="#000000">GPUCommonMath.h</text>
</a>
</g>
</g>
<!-- Node0&#45;&gt;Node9 -->
<g id="edge9" class="edge">
<title>Node0&#45;&gt;Node9</title>
<path fill="none" stroke="#191970" d="M252.5106,-168.4283C279.9462,-157.2536 310.8295,-144.6748 333.5232,-135.4316"/>
<polygon fill="#191970" stroke="#191970" points="335.0812,-138.5762 343.0222,-131.5626 332.4407,-132.0933 335.0812,-138.5762"/>
</g>
<!-- Node4 -->
<g id="node5" class="node">
<title>Node4</title>
<polygon fill="none" stroke="#bfbfbf" points="104.5,-56.5 104.5,-75.5 142.5,-75.5 142.5,-56.5 104.5,-56.5"/>
<text text-anchor="middle" x="123.5" y="-63.5" font-family="Helvetica,sans-Serif" font-size="10.00" fill="#000000">array</text>
</g>
<!-- Node3&#45;&gt;Node4 -->
<g id="edge4" class="edge">
<title>Node3&#45;&gt;Node4</title>
<path fill="none" stroke="#191970" d="M177.1779,-112.2455C167.5777,-103.9746 153.6108,-91.9416 142.3305,-82.2232"/>
<polygon fill="#191970" stroke="#191970" points="144.553,-79.5182 134.6924,-75.6427 139.984,-84.8214 144.553,-79.5182"/>
</g>
<!-- Node3&#45;&gt;Node5 -->
<g id="edge5" class="edge">
<title>Node3&#45;&gt;Node5</title>
<path fill="none" stroke="#191970" d="M204.351,-112.2455C218.3132,-103.6534 238.8728,-91.0014 254.9596,-81.1018"/>
<polygon fill="#191970" stroke="#191970" points="257.1484,-83.8645 263.8307,-75.6427 253.4797,-77.9029 257.1484,-83.8645"/>
</g>
<!-- Node8 -->
<g id="node9" class="node">
<title>Node8</title>
<polygon fill="none" stroke="#bfbfbf" points="161,-56.5 161,-75.5 210,-75.5 210,-56.5 161,-56.5"/>
<text text-anchor="middle" x="185.5" y="-63.5" font-family="Helvetica,sans-Serif" font-size="10.00" fill="#000000">cstddef</text>
</g>
<!-- Node3&#45;&gt;Node8 -->
<g id="edge8" class="edge">
<title>Node3&#45;&gt;Node8</title>
<path fill="none" stroke="#191970" d="M187.9774,-112.2455C187.586,-104.9382 187.0372,-94.6944 186.5556,-85.7046"/>
<polygon fill="#191970" stroke="#191970" points="190.0466,-85.4411 186.0166,-75.6427 183.0566,-85.8156 190.0466,-85.4411"/>
</g>
<!-- Node6 -->
<g id="node7" class="node">
<title>Node6</title>
<g id="a_node7"><a xlink:href="../../d5/d93/GPUCommonDefSettings_8h.html" target="_top" xlink:title="GPUCommonDefSettings.h">
<polygon fill="none" stroke="#000000" points="137.5,-.5 137.5,-19.5 275.5,-19.5 275.5,-.5 137.5,-.5"/>
<text text-anchor="middle" x="206.5" y="-7.5" font-family="Helvetica,sans-Serif" font-size="10.00" fill="#000000">GPUCommonDefSettings.h</text>
</a>
</g>
</g>
<!-- Node5&#45;&gt;Node6 -->
<g id="edge6" class="edge">
<title>Node5&#45;&gt;Node6</title>
<path fill="none" stroke="#191970" d="M266.7844,-56.2455C255.898,-47.8943 240.0117,-35.7076 227.28,-25.9408"/>
<polygon fill="#191970" stroke="#191970" points="229.1346,-22.9523 219.0699,-19.6427 224.8739,-28.5063 229.1346,-22.9523"/>
</g>
<!-- Node7 -->
<g id="node8" class="node">
<title>Node7</title>
<g id="a_node8"><a xlink:href="../../da/d5a/GPUCommonDefAPI_8h.html" target="_top" xlink:title="GPUCommonDefAPI.h">
<polygon fill="none" stroke="#000000" points="294,-.5 294,-19.5 413,-19.5 413,-.5 294,-.5"/>
<text text-anchor="middle" x="353.5" y="-7.5" font-family="Helvetica,sans-Serif" font-size="10.00" fill="#000000">GPUCommonDefAPI.h</text>
</a>
</g>
</g>
<!-- Node5&#45;&gt;Node7 -->
<g id="edge7" class="edge">
<title>Node5&#45;&gt;Node7</title>
<path fill="none" stroke="#191970" d="M292.3898,-56.2455C303.4254,-47.8943 319.5292,-35.7076 332.4353,-25.9408"/>
<polygon fill="#191970" stroke="#191970" points="334.8959,-28.4681 340.7579,-19.6427 330.6717,-22.8862 334.8959,-28.4681"/>
</g>
<!-- Node9&#45;&gt;Node5 -->
<g id="edge10" class="edge">
<title>Node9&#45;&gt;Node5</title>
<path fill="none" stroke="#191970" d="M351.3458,-112.2455C337.9973,-103.6534 318.3414,-91.0014 302.9617,-81.1018"/>
<polygon fill="#191970" stroke="#191970" points="304.7836,-78.1121 294.4806,-75.6427 300.9949,-83.9982 304.7836,-78.1121"/>
</g>
<!-- Node10 -->
<g id="node11" class="node">
<title>Node10</title>
<polygon fill="none" stroke="#bfbfbf" points="348.5,-56.5 348.5,-75.5 392.5,-75.5 392.5,-56.5 348.5,-56.5"/>
<text text-anchor="middle" x="370.5" y="-63.5" font-family="Helvetica,sans-Serif" font-size="10.00" fill="#000000">cmath</text>
</g>
<!-- Node9&#45;&gt;Node10 -->
<g id="edge11" class="edge">
<title>Node9&#45;&gt;Node10</title>
<path fill="none" stroke="#191970" d="M367.1967,-112.2455C367.7187,-104.9382 368.4504,-94.6944 369.0925,-85.7046"/>
<polygon fill="#191970" stroke="#191970" points="372.5898,-85.8667 369.8112,-75.6427 365.6076,-85.3679 372.5898,-85.8667"/>
</g>
<!-- Node11 -->
<g id="node12" class="node">
<title>Node11</title>
<polygon fill="none" stroke="#bfbfbf" points="410.5,-56.5 410.5,-75.5 466.5,-75.5 466.5,-56.5 410.5,-56.5"/>
<text text-anchor="middle" x="438.5" y="-63.5" font-family="Helvetica,sans-Serif" font-size="10.00" fill="#000000">algorithm</text>
</g>
<!-- Node9&#45;&gt;Node11 -->
<g id="edge12" class="edge">
<title>Node9&#45;&gt;Node11</title>
<path fill="none" stroke="#191970" d="M379.0414,-112.2455C389.7787,-103.8943 405.4473,-91.7076 418.0047,-81.9408"/>
<polygon fill="#191970" stroke="#191970" points="420.3575,-84.5449 426.1023,-75.6427 416.0599,-79.0194 420.3575,-84.5449"/>
</g>
</g>
</svg>
