<?xml version="1.0" encoding="UTF-8" standalone="no"?>
<!DOCTYPE svg PUBLIC "-//W3C//DTD SVG 1.1//EN"
 "http://www.w3.org/Graphics/SVG/1.1/DTD/svg11.dtd">
<!-- Generated by graphviz version 2.40.1 (20161225.0304)
 -->
<!-- Title: /home/runner/work/AliceO2/AliceO2/EventVisualisation/Detectors/include/EventVisualisationDetectors/DataReaderVSD.h Pages: 1 -->
<svg width="532pt" height="139pt"
 viewBox="0.00 0.00 532.00 139.00" xmlns="http://www.w3.org/2000/svg" xmlns:xlink="http://www.w3.org/1999/xlink">
<g id="graph0" class="graph" transform="scale(1 1) rotate(0) translate(4 135)">
<title>/home/runner/work/AliceO2/AliceO2/EventVisualisation/Detectors/include/EventVisualisationDetectors/DataReaderVSD.h</title>
<!-- Node8 -->
<g id="node1" class="node">
<title>Node8</title>
<polygon fill="#bfbfbf" stroke="#000000" points="174,-78.5 174,-130.5 354,-130.5 354,-78.5 174,-78.5"/>
<text text-anchor="start" x="182" y="-118.5" font-family="Helvetica,sans-Serif" font-size="10.00" fill="#000000">/home/runner/work/AliceO2</text>
<text text-anchor="start" x="182" y="-107.5" font-family="Helvetica,sans-Serif" font-size="10.00" fill="#000000">/AliceO2/EventVisualisation</text>
<text text-anchor="start" x="182" y="-96.5" font-family="Helvetica,sans-Serif" font-size="10.00" fill="#000000">/Detectors/include/EventVisualisation</text>
<text text-anchor="middle" x="264" y="-85.5" font-family="Helvetica,sans-Serif" font-size="10.00" fill="#000000">Detectors/DataReaderVSD.h</text>
</g>
<!-- Node9 -->
<g id="node2" class="node">
<title>Node9</title>
<g id="a_node2"><a xlink:href="../../dd/d02/DataReaderVSD_8cxx.html" target="_top" xlink:title="VSD specific reading from file(s) (Visualisation Summary Data) ">
<polygon fill="none" stroke="#000000" points="0,-.5 0,-41.5 174,-41.5 174,-.5 0,-.5"/>
<text text-anchor="start" x="8" y="-29.5" font-family="Helvetica,sans-Serif" font-size="10.00" fill="#000000">/home/runner/work/AliceO2</text>
<text text-anchor="start" x="8" y="-18.5" font-family="Helvetica,sans-Serif" font-size="10.00" fill="#000000">/AliceO2/EventVisualisation</text>
<text text-anchor="middle" x="87" y="-7.5" font-family="Helvetica,sans-Serif" font-size="10.00" fill="#000000">/Detectors/src/DataReaderVSD.cxx</text>
</a>
</g>
</g>
<!-- Node8&#45;&gt;Node9 -->
<g id="edge1" class="edge">
<title>Node8&#45;&gt;Node9</title>
<path fill="none" stroke="#191970" d="M199.183,-73.9225C176.3301,-63.1416 151.2031,-51.2879 130.5329,-41.5367"/>
<polygon fill="#191970" stroke="#191970" points="197.9443,-77.208 208.4817,-78.3092 200.9309,-70.8771 197.9443,-77.208"/>
</g>
<!-- Node10 -->
<g id="node3" class="node">
<title>Node10</title>
<g id="a_node3"><a xlink:href="../../dd/d21/EventManager_8cxx.html" target="_top" xlink:title="/home/runner/work/AliceO2\l/AliceO2/EventVisualisation\l/View/src/EventManager.cxx">
<polygon fill="none" stroke="#000000" points="192.5,-.5 192.5,-41.5 335.5,-41.5 335.5,-.5 192.5,-.5"/>
<text text-anchor="start" x="200.5" y="-29.5" font-family="Helvetica,sans-Serif" font-size="10.00" fill="#000000">/home/runner/work/AliceO2</text>
<text text-anchor="start" x="200.5" y="-18.5" font-family="Helvetica,sans-Serif" font-size="10.00" fill="#000000">/AliceO2/EventVisualisation</text>
<text text-anchor="middle" x="264" y="-7.5" font-family="Helvetica,sans-Serif" font-size="10.00" fill="#000000">/View/src/EventManager.cxx</text>
</a>
</g>
</g>
<!-- Node8&#45;&gt;Node10 -->
<g id="edge2" class="edge">
<title>Node8&#45;&gt;Node10</title>
<path fill="none" stroke="#191970" d="M264,-67.8168C264,-58.8649 264,-49.5976 264,-41.6941"/>
<polygon fill="#191970" stroke="#191970" points="260.5001,-68.08 264,-78.0801 267.5001,-68.0801 260.5001,-68.08"/>
</g>
<!-- Node11 -->
<g id="node4" class="node">
<title>Node11</title>
<g id="a_node4"><a xlink:href="../../d0/dc0/EventManagerFrame_8cxx.html" target="_top" xlink:title="GUI (bottom buttons) for visualisation. ">
<polygon fill="none" stroke="#000000" points="354,-.5 354,-41.5 524,-41.5 524,-.5 354,-.5"/>
<text text-anchor="start" x="362" y="-29.5" font-family="Helvetica,sans-Serif" font-size="10.00" fill="#000000">/home/runner/work/AliceO2</text>
<text text-anchor="start" x="362" y="-18.5" font-family="Helvetica,sans-Serif" font-size="10.00" fill="#000000">/AliceO2/EventVisualisation</text>
<text text-anchor="middle" x="439" y="-7.5" font-family="Helvetica,sans-Serif" font-size="10.00" fill="#000000">/View/src/EventManagerFrame.cxx</text>
</a>
</g>
</g>
<!-- Node8&#45;&gt;Node11 -->
<g id="edge3" class="edge">
<title>Node8&#45;&gt;Node11</title>
<path fill="none" stroke="#191970" d="M328.0846,-73.9225C350.6792,-63.1416 375.5224,-51.2879 395.959,-41.5367"/>
<polygon fill="#191970" stroke="#191970" points="326.409,-70.8439 318.8909,-78.3092 329.4235,-77.1616 326.409,-70.8439"/>
</g>
</g>
</svg>
