<?xml version="1.0" encoding="UTF-8" standalone="no"?>
<!DOCTYPE svg PUBLIC "-//W3C//DTD SVG 1.1//EN"
 "http://www.w3.org/Graphics/SVG/1.1/DTD/svg11.dtd">
<!-- Generated by graphviz version 2.40.1 (20161225.0304)
 -->
<!-- Title: /home/runner/work/AliceO2/AliceO2/Detectors/TOF/reconstruction/include/TOFReconstruction/CTFCoder.h Pages: 1 -->
<!--zoomable 239 -->
<svg id="main" version="1.1" xmlns="http://www.w3.org/2000/svg" xmlns:xlink="http://www.w3.org/1999/xlink" xml:space="preserve" onload="init(evt)">
<style type="text/css"><![CDATA[
.edge:hover path { stroke: red; }
.edge:hover polygon { stroke: red; fill: red; }
]]></style>
<script type="text/javascript"><![CDATA[
var edges = document.getElementsByTagName('g');
if (edges && edges.length) {
  for (var i=0;i<edges.length;i++) {
    if (edges[i].id.substr(0,4)=='edge') {
      edges[i].setAttribute('class','edge');
    }
  }
}
]]></script>
        <defs>
                <circle id="rim" cx="0" cy="0" r="7"/>
                <circle id="rim2" cx="0" cy="0" r="3.5"/>
                <g id="zoomPlus">
                        <use xlink:href="#rim" fill="#404040">
                                <set attributeName="fill" to="#808080" begin="zoomplus.mouseover" end="zoomplus.mouseout"/>
                        </use>
                        <path d="M-4,0h8M0,-4v8" fill="none" stroke="white" stroke-width="1.5" pointer-events="none"/>
                </g>
                <g id="zoomMin">
                        <use xlink:href="#rim" fill="#404040">
                                <set attributeName="fill" to="#808080" begin="zoomminus.mouseover" end="zoomminus.mouseout"/>
                        </use>
                        <path d="M-4,0h8" fill="none" stroke="white" stroke-width="1.5" pointer-events="none"/>
                </g>
                <g id="dirArrow">
                        <path fill="none" stroke="white" stroke-width="1.5" d="M0,-3.0v7 M-2.5,-0.5L0,-3.0L2.5,-0.5"/>
                </g>
               <g id="resetDef">
                       <use xlink:href="#rim2" fill="#404040">
                               <set attributeName="fill" to="#808080" begin="reset.mouseover" end="reset.mouseout"/>
                       </use>
               </g>
        </defs>

<script type="text/javascript">
var viewWidth = 1042;
var viewHeight = 239;
var sectionId = 'dynsection-1';
</script>
<script xlink:href="../../svgpan.js"/>
<svg id="graph" class="graph">
<g id="viewport">
<title>/home/runner/work/AliceO2/AliceO2/Detectors/TOF/reconstruction/include/TOFReconstruction/CTFCoder.h</title>
<!-- Node84 -->
<g id="node1" class="node">
<title>Node84</title>
<polygon fill="#bfbfbf" stroke="#000000" points="248.5,-178.5 248.5,-230.5 410.5,-230.5 410.5,-178.5 248.5,-178.5"/>
<text text-anchor="start" x="256.5" y="-218.5" font-family="Helvetica,sans-Serif" font-size="10.00" fill="#000000">/home/runner/work/AliceO2</text>
<text text-anchor="start" x="256.5" y="-207.5" font-family="Helvetica,sans-Serif" font-size="10.00" fill="#000000">/AliceO2/Detectors/TOF</text>
<text text-anchor="start" x="256.5" y="-196.5" font-family="Helvetica,sans-Serif" font-size="10.00" fill="#000000">/reconstruction/include</text>
<text text-anchor="middle" x="329.5" y="-185.5" font-family="Helvetica,sans-Serif" font-size="10.00" fill="#000000">/TOFReconstruction/CTFCoder.h</text>
</g>
<!-- Node85 -->
<g id="node2" class="node">
<title>Node85</title>
<g id="a_node2"><a xlink:href="../../dc/def/test__ctf__io__tof_8cxx.html" target="_top" xlink:title="/home/runner/work/AliceO2\l/AliceO2/Detectors/CTF\l/test/test_ctf_io_tof.cxx">
<polygon fill="none" stroke="#000000" points="0,-95 0,-136 135,-136 135,-95 0,-95"/>
<text text-anchor="start" x="8" y="-124" font-family="Helvetica,sans-Serif" font-size="10.00" fill="#000000">/home/runner/work/AliceO2</text>
<text text-anchor="start" x="8" y="-113" font-family="Helvetica,sans-Serif" font-size="10.00" fill="#000000">/AliceO2/Detectors/CTF</text>
<text text-anchor="middle" x="67.5" y="-102" font-family="Helvetica,sans-Serif" font-size="10.00" fill="#000000">/test/test_ctf_io_tof.cxx</text>
</a>
</g>
</g>
<!-- Node84&#45;&gt;Node85 -->
<g id="edge1" class="edge">
<title>Node84&#45;&gt;Node85</title>
<path fill="none" stroke="#191970" d="M241.6577,-175.2105C210.6189,-164.8009 175.4829,-152.949 143.5,-142 137.9475,-140.0991 132.1712,-138.1087 126.3941,-136.1093"/>
<polygon fill="#191970" stroke="#191970" points="240.557,-178.5328 251.1509,-178.3921 242.7815,-171.8957 240.557,-178.5328"/>
</g>
<!-- Node86 -->
<g id="node3" class="node">
<title>Node86</title>
<g id="a_node3"><a xlink:href="../../d7/de7/TOF_2reconstruction_2src_2CTFCoder_8cxx.html" target="_top" xlink:title="/home/runner/work/AliceO2\l/AliceO2/Detectors/TOF\l/reconstruction/src/CTFCoder.cxx">
<polygon fill="none" stroke="#000000" points="153,-95 153,-136 318,-136 318,-95 153,-95"/>
<text text-anchor="start" x="161" y="-124" font-family="Helvetica,sans-Serif" font-size="10.00" fill="#000000">/home/runner/work/AliceO2</text>
<text text-anchor="start" x="161" y="-113" font-family="Helvetica,sans-Serif" font-size="10.00" fill="#000000">/AliceO2/Detectors/TOF</text>
<text text-anchor="middle" x="235.5" y="-102" font-family="Helvetica,sans-Serif" font-size="10.00" fill="#000000">/reconstruction/src/CTFCoder.cxx</text>
</a>
</g>
</g>
<!-- Node84&#45;&gt;Node86 -->
<g id="edge2" class="edge">
<title>Node84&#45;&gt;Node86</title>
<path fill="none" stroke="#191970" d="M294.2711,-171.1449C281.8742,-159.4075 268.3097,-146.5645 257.3387,-136.1771"/>
<polygon fill="#191970" stroke="#191970" points="292.1374,-173.9447 301.8053,-178.2784 296.9501,-168.8615 292.1374,-173.9447"/>
</g>
<!-- Node87 -->
<g id="node4" class="node">
<title>Node87</title>
<g id="a_node4"><a xlink:href="../../d8/d6f/TOF_2workflow_2include_2TOFWorkflowUtils_2EntropyDecoderSpec_8h.html" target="_top" xlink:title="/home/runner/work/AliceO2\l/AliceO2/Detectors/TOF\l/workflow/include/TOFWorkflowUtils\l/EntropyDecoderSpec.h">
<polygon fill="none" stroke="#000000" points="336.5,-89.5 336.5,-141.5 512.5,-141.5 512.5,-89.5 336.5,-89.5"/>
<text text-anchor="start" x="344.5" y="-129.5" font-family="Helvetica,sans-Serif" font-size="10.00" fill="#000000">/home/runner/work/AliceO2</text>
<text text-anchor="start" x="344.5" y="-118.5" font-family="Helvetica,sans-Serif" font-size="10.00" fill="#000000">/AliceO2/Detectors/TOF</text>
<text text-anchor="start" x="344.5" y="-107.5" font-family="Helvetica,sans-Serif" font-size="10.00" fill="#000000">/workflow/include/TOFWorkflowUtils</text>
<text text-anchor="middle" x="424.5" y="-96.5" font-family="Helvetica,sans-Serif" font-size="10.00" fill="#000000">/EntropyDecoderSpec.h</text>
</a>
</g>
</g>
<!-- Node84&#45;&gt;Node87 -->
<g id="edge3" class="edge">
<title>Node84&#45;&gt;Node87</title>
<path fill="none" stroke="#191970" d="M364.9495,-171.2894C375.4427,-161.459 386.7759,-150.8415 396.7107,-141.5341"/>
<polygon fill="#191970" stroke="#191970" points="362.3942,-168.8873 357.4893,-178.2784 367.18,-173.9958 362.3942,-168.8873"/>
</g>
<!-- Node91 -->
<g id="node8" class="node">
<title>Node91</title>
<g id="a_node8"><a xlink:href="../../d6/daa/TOF_2workflow_2include_2TOFWorkflowUtils_2EntropyEncoderSpec_8h.html" target="_top" xlink:title="/home/runner/work/AliceO2\l/AliceO2/Detectors/TOF\l/workflow/include/TOFWorkflowUtils\l/EntropyEncoderSpec.h">
<polygon fill="none" stroke="#000000" points="619.5,-89.5 619.5,-141.5 795.5,-141.5 795.5,-89.5 619.5,-89.5"/>
<text text-anchor="start" x="627.5" y="-129.5" font-family="Helvetica,sans-Serif" font-size="10.00" fill="#000000">/home/runner/work/AliceO2</text>
<text text-anchor="start" x="627.5" y="-118.5" font-family="Helvetica,sans-Serif" font-size="10.00" fill="#000000">/AliceO2/Detectors/TOF</text>
<text text-anchor="start" x="627.5" y="-107.5" font-family="Helvetica,sans-Serif" font-size="10.00" fill="#000000">/workflow/include/TOFWorkflowUtils</text>
<text text-anchor="middle" x="707.5" y="-96.5" font-family="Helvetica,sans-Serif" font-size="10.00" fill="#000000">/EntropyEncoderSpec.h</text>
</a>
</g>
</g>
<!-- Node84&#45;&gt;Node91 -->
<g id="edge7" class="edge">
<title>Node84&#45;&gt;Node91</title>
<path fill="none" stroke="#191970" d="M420.4869,-183.0771C480.8074,-168.8747 559.5435,-150.3363 619.2877,-136.2696"/>
<polygon fill="#191970" stroke="#191970" points="419.5222,-179.7085 410.5905,-185.4073 421.1265,-186.5222 419.5222,-179.7085"/>
</g>
<!-- Node88 -->
<g id="node5" class="node">
<title>Node88</title>
<g id="a_node5"><a xlink:href="../../dc/d55/ctf-reader-workflow_8cxx.html" target="_top" xlink:title="/home/runner/work/AliceO2\l/AliceO2/Detectors/CTF\l/workflow/src/ctf&#45;reader\l&#45;workflow.cxx">
<polygon fill="none" stroke="#000000" points="131,-.5 131,-52.5 266,-52.5 266,-.5 131,-.5"/>
<text text-anchor="start" x="139" y="-40.5" font-family="Helvetica,sans-Serif" font-size="10.00" fill="#000000">/home/runner/work/AliceO2</text>
<text text-anchor="start" x="139" y="-29.5" font-family="Helvetica,sans-Serif" font-size="10.00" fill="#000000">/AliceO2/Detectors/CTF</text>
<text text-anchor="start" x="139" y="-18.5" font-family="Helvetica,sans-Serif" font-size="10.00" fill="#000000">/workflow/src/ctf&#45;reader</text>
<text text-anchor="middle" x="198.5" y="-7.5" font-family="Helvetica,sans-Serif" font-size="10.00" fill="#000000">&#45;workflow.cxx</text>
</a>
</g>
</g>
<!-- Node87&#45;&gt;Node88 -->
<g id="edge4" class="edge">
<title>Node87&#45;&gt;Node88</title>
<path fill="none" stroke="#191970" d="M348.7467,-85.6679C321.5491,-74.9574 291.1102,-62.9704 264.7792,-52.6011"/>
<polygon fill="#191970" stroke="#191970" points="347.6326,-88.9908 358.2196,-89.3984 350.1976,-82.4776 347.6326,-88.9908"/>
</g>
<!-- Node89 -->
<g id="node6" class="node">
<title>Node89</title>
<g id="a_node6"><a xlink:href="../../da/dfd/tof-reco-workflow_8cxx.html" target="_top" xlink:title="Basic DPL workflow for TOF reconstruction starting from digits. ">
<polygon fill="none" stroke="#000000" points="492.5,-.5 492.5,-52.5 660.5,-52.5 660.5,-.5 492.5,-.5"/>
<text text-anchor="start" x="500.5" y="-40.5" font-family="Helvetica,sans-Serif" font-size="10.00" fill="#000000">/home/runner/work/AliceO2</text>
<text text-anchor="start" x="500.5" y="-29.5" font-family="Helvetica,sans-Serif" font-size="10.00" fill="#000000">/AliceO2/Detectors/GlobalTracking</text>
<text text-anchor="start" x="500.5" y="-18.5" font-family="Helvetica,sans-Serif" font-size="10.00" fill="#000000">Workflow/tofworkflow/src/tof</text>
<text text-anchor="middle" x="576.5" y="-7.5" font-family="Helvetica,sans-Serif" font-size="10.00" fill="#000000">&#45;reco&#45;workflow.cxx</text>
</a>
</g>
</g>
<!-- Node87&#45;&gt;Node89 -->
<g id="edge5" class="edge">
<title>Node87&#45;&gt;Node89</title>
<path fill="none" stroke="#191970" d="M478.2996,-83.9989C495.888,-73.7004 515.2155,-62.3837 532.0372,-52.5341"/>
<polygon fill="#191970" stroke="#191970" points="476.1439,-81.2052 469.2829,-89.2784 479.681,-87.2459 476.1439,-81.2052"/>
</g>
<!-- Node90 -->
<g id="node7" class="node">
<title>Node90</title>
<g id="a_node7"><a xlink:href="../../d8/dc2/TOF_2workflow_2src_2EntropyDecoderSpec_8cxx.html" target="_top" xlink:title="/home/runner/work/AliceO2\l/AliceO2/Detectors/TOF\l/workflow/src/EntropyDecoderSpec.cxx">
<polygon fill="none" stroke="#000000" points="284.5,-6 284.5,-47 474.5,-47 474.5,-6 284.5,-6"/>
<text text-anchor="start" x="292.5" y="-35" font-family="Helvetica,sans-Serif" font-size="10.00" fill="#000000">/home/runner/work/AliceO2</text>
<text text-anchor="start" x="292.5" y="-24" font-family="Helvetica,sans-Serif" font-size="10.00" fill="#000000">/AliceO2/Detectors/TOF</text>
<text text-anchor="middle" x="379.5" y="-13" font-family="Helvetica,sans-Serif" font-size="10.00" fill="#000000">/workflow/src/EntropyDecoderSpec.cxx</text>
</a>
</g>
</g>
<!-- Node87&#45;&gt;Node90 -->
<g id="edge6" class="edge">
<title>Node87&#45;&gt;Node90</title>
<path fill="none" stroke="#191970" d="M406.6223,-80.1418C400.9693,-68.9615 394.9095,-56.9765 389.9547,-47.1771"/>
<polygon fill="#191970" stroke="#191970" points="403.6062,-81.9336 411.2419,-89.2784 409.8531,-78.775 403.6062,-81.9336"/>
</g>
<!-- Node91&#45;&gt;Node89 -->
<g id="edge8" class="edge">
<title>Node91&#45;&gt;Node89</title>
<path fill="none" stroke="#191970" d="M660.2974,-83.431C645.3642,-73.2856 629.0516,-62.203 614.8199,-52.5341"/>
<polygon fill="#191970" stroke="#191970" points="658.6657,-86.5538 668.9042,-89.2784 662.5995,-80.7637 658.6657,-86.5538"/>
</g>
<!-- Node92 -->
<g id="node9" class="node">
<title>Node92</title>
<g id="a_node9"><a xlink:href="../../d5/db8/TOF_2workflow_2src_2entropy-encoder-workflow_8cxx.html" target="_top" xlink:title="/home/runner/work/AliceO2\l/AliceO2/Detectors/TOF\l/workflow/src/entropy&#45;encoder\l&#45;workflow.cxx">
<polygon fill="none" stroke="#000000" points="678.5,-.5 678.5,-52.5 826.5,-52.5 826.5,-.5 678.5,-.5"/>
<text text-anchor="start" x="686.5" y="-40.5" font-family="Helvetica,sans-Serif" font-size="10.00" fill="#000000">/home/runner/work/AliceO2</text>
<text text-anchor="start" x="686.5" y="-29.5" font-family="Helvetica,sans-Serif" font-size="10.00" fill="#000000">/AliceO2/Detectors/TOF</text>
<text text-anchor="start" x="686.5" y="-18.5" font-family="Helvetica,sans-Serif" font-size="10.00" fill="#000000">/workflow/src/entropy&#45;encoder</text>
<text text-anchor="middle" x="752.5" y="-7.5" font-family="Helvetica,sans-Serif" font-size="10.00" fill="#000000">&#45;workflow.cxx</text>
</a>
</g>
</g>
<!-- Node91&#45;&gt;Node92 -->
<g id="edge9" class="edge">
<title>Node91&#45;&gt;Node92</title>
<path fill="none" stroke="#191970" d="M725.3104,-80.2749C729.9889,-71.0219 734.9505,-61.209 739.3367,-52.5341"/>
<polygon fill="#191970" stroke="#191970" points="722.1469,-78.775 720.7581,-89.2784 728.3938,-81.9336 722.1469,-78.775"/>
</g>
<!-- Node93 -->
<g id="node10" class="node">
<title>Node93</title>
<g id="a_node10"><a xlink:href="../../df/d4e/TOF_2workflow_2src_2EntropyEncoderSpec_8cxx.html" target="_top" xlink:title="/home/runner/work/AliceO2\l/AliceO2/Detectors/TOF\l/workflow/src/EntropyEncoderSpec.cxx">
<polygon fill="none" stroke="#000000" points="845,-6 845,-47 1034,-47 1034,-6 845,-6"/>
<text text-anchor="start" x="853" y="-35" font-family="Helvetica,sans-Serif" font-size="10.00" fill="#000000">/home/runner/work/AliceO2</text>
<text text-anchor="start" x="853" y="-24" font-family="Helvetica,sans-Serif" font-size="10.00" fill="#000000">/AliceO2/Detectors/TOF</text>
<text text-anchor="middle" x="939.5" y="-13" font-family="Helvetica,sans-Serif" font-size="10.00" fill="#000000">/workflow/src/EntropyEncoderSpec.cxx</text>
</a>
</g>
</g>
<!-- Node91&#45;&gt;Node93 -->
<g id="edge10" class="edge">
<title>Node91&#45;&gt;Node93</title>
<path fill="none" stroke="#191970" d="M785.1787,-85.7008C818.2287,-73.0222 855.9543,-58.5498 885.8322,-47.0881"/>
<polygon fill="#191970" stroke="#191970" points="783.623,-82.5489 775.5401,-89.3984 786.1303,-89.0845 783.623,-82.5489"/>
</g>
</g>
</svg>
        <g id="navigator" transform="translate(0 0)" fill="#404254">
                <rect fill="#f2f5e9" fill-opacity="0.5" stroke="#606060" stroke-width=".5" x="0" y="0" width="60" height="60"/>
                <use id="zoomplus" xlink:href="#zoomPlus" x="17" y="9" onmousedown="handleZoom(evt,'in')"/>
                <use id="zoomminus" xlink:href="#zoomMin" x="42" y="9" onmousedown="handleZoom(evt,'out')"/>
                <use id="reset" xlink:href="#resetDef" x="30" y="36" onmousedown="handleReset()"/>
                <g id="arrowUp" xlink:href="#dirArrow" transform="translate(30 24)" onmousedown="handlePan(0,-1)">
                  <use xlink:href="#rim" fill="#404040">
                        <set attributeName="fill" to="#808080" begin="arrowUp.mouseover" end="arrowUp.mouseout"/>
                  </use>
                  <path fill="none" stroke="white" stroke-width="1.5" d="M0,-3.0v7 M-2.5,-0.5L0,-3.0L2.5,-0.5"/>
                </g>
                <g id="arrowRight" xlink:href="#dirArrow" transform="rotate(90) translate(36 -43)" onmousedown="handlePan(1,0)">
                  <use xlink:href="#rim" fill="#404040">
                        <set attributeName="fill" to="#808080" begin="arrowRight.mouseover" end="arrowRight.mouseout"/>
                  </use>
                  <path fill="none" stroke="white" stroke-width="1.5" d="M0,-3.0v7 M-2.5,-0.5L0,-3.0L2.5,-0.5"/>
                </g>
                <g id="arrowDown" xlink:href="#dirArrow" transform="rotate(180) translate(-30 -48)" onmousedown="handlePan(0,1)">
                  <use xlink:href="#rim" fill="#404040">
                        <set attributeName="fill" to="#808080" begin="arrowDown.mouseover" end="arrowDown.mouseout"/>
                  </use>
                  <path fill="none" stroke="white" stroke-width="1.5" d="M0,-3.0v7 M-2.5,-0.5L0,-3.0L2.5,-0.5"/>
                </g>
                <g id="arrowLeft" xlink:href="#dirArrow" transform="rotate(270) translate(-36 17)" onmousedown="handlePan(-1,0)">
                  <use xlink:href="#rim" fill="#404040">
                        <set attributeName="fill" to="#808080" begin="arrowLeft.mouseover" end="arrowLeft.mouseout"/>
                  </use>
                  <path fill="none" stroke="white" stroke-width="1.5" d="M0,-3.0v7 M-2.5,-0.5L0,-3.0L2.5,-0.5"/>
                </g>
        </g>
        <svg viewBox="0 0 15 15" width="100%" height="30px" preserveAspectRatio="xMaxYMin meet">
         <g id="arrow_out" transform="scale(0.3 0.3)">
          <a xlink:href="TOF_2reconstruction_2include_2TOFReconstruction_2CTFCoder_8h__dep__incl_org.svg" target="_base">
           <rect id="button" ry="5" rx="5" y="6" x="6" height="38" width="38"
                fill="#f2f5e9" fill-opacity="0.5" stroke="#606060" stroke-width="1.0"/>
           <path id="arrow"
             d="M 11.500037,31.436501 C 11.940474,20.09759 22.043105,11.32322 32.158766,21.979434 L 37.068811,17.246167 C 37.068811,17.246167 37.088388,32 37.088388,32 L 22.160133,31.978069 C 22.160133,31.978069 26.997745,27.140456 26.997745,27.140456 C 18.528582,18.264221 13.291696,25.230495 11.500037,31.436501 z"
             style="fill:#404040;"/>
          </a>
         </g>
        </svg>
</svg>
