<?xml version="1.0" encoding="UTF-8" standalone="no"?>
<!DOCTYPE svg PUBLIC "-//W3C//DTD SVG 1.1//EN"
 "http://www.w3.org/Graphics/SVG/1.1/DTD/svg11.dtd">
<!-- Generated by graphviz version 2.40.1 (20161225.0304)
 -->
<!-- Title: /home/runner/work/AliceO2/AliceO2/Detectors/MUON/MID/TestingSimTools/include/MIDTestingSimTools/HitFinder.h Pages: 1 -->
<!--zoomable 352 -->
<svg id="main" version="1.1" xmlns="http://www.w3.org/2000/svg" xmlns:xlink="http://www.w3.org/1999/xlink" xml:space="preserve" onload="init(evt)">
<style type="text/css"><![CDATA[
.edge:hover path { stroke: red; }
.edge:hover polygon { stroke: red; fill: red; }
]]></style>
<script type="text/javascript"><![CDATA[
var edges = document.getElementsByTagName('g');
if (edges && edges.length) {
  for (var i=0;i<edges.length;i++) {
    if (edges[i].id.substr(0,4)=='edge') {
      edges[i].setAttribute('class','edge');
    }
  }
}
]]></script>
        <defs>
                <circle id="rim" cx="0" cy="0" r="7"/>
                <circle id="rim2" cx="0" cy="0" r="3.5"/>
                <g id="zoomPlus">
                        <use xlink:href="#rim" fill="#404040">
                                <set attributeName="fill" to="#808080" begin="zoomplus.mouseover" end="zoomplus.mouseout"/>
                        </use>
                        <path d="M-4,0h8M0,-4v8" fill="none" stroke="white" stroke-width="1.5" pointer-events="none"/>
                </g>
                <g id="zoomMin">
                        <use xlink:href="#rim" fill="#404040">
                                <set attributeName="fill" to="#808080" begin="zoomminus.mouseover" end="zoomminus.mouseout"/>
                        </use>
                        <path d="M-4,0h8" fill="none" stroke="white" stroke-width="1.5" pointer-events="none"/>
                </g>
                <g id="dirArrow">
                        <path fill="none" stroke="white" stroke-width="1.5" d="M0,-3.0v7 M-2.5,-0.5L0,-3.0L2.5,-0.5"/>
                </g>
               <g id="resetDef">
                       <use xlink:href="#rim2" fill="#404040">
                               <set attributeName="fill" to="#808080" begin="reset.mouseover" end="reset.mouseout"/>
                       </use>
               </g>
        </defs>

<script type="text/javascript">
var viewWidth = 2069;
var viewHeight = 352;
var sectionId = 'dynsection-0';
</script>
<script xlink:href="../../svgpan.js"/>
<svg id="graph" class="graph">
<g id="viewport">
<title>/home/runner/work/AliceO2/AliceO2/Detectors/MUON/MID/TestingSimTools/include/MIDTestingSimTools/HitFinder.h</title>
<!-- Node0 -->
<g id="node1" class="node">
<title>Node0</title>
<polygon fill="#bfbfbf" stroke="#000000" points="1667.5,-291.5 1667.5,-343.5 1830.5,-343.5 1830.5,-291.5 1667.5,-291.5"/>
<text text-anchor="start" x="1675.5" y="-331.5" font-family="Helvetica,sans-Serif" font-size="10.00" fill="#000000">/home/runner/work/AliceO2</text>
<text text-anchor="start" x="1675.5" y="-320.5" font-family="Helvetica,sans-Serif" font-size="10.00" fill="#000000">/AliceO2/Detectors/MUON</text>
<text text-anchor="start" x="1675.5" y="-309.5" font-family="Helvetica,sans-Serif" font-size="10.00" fill="#000000">/MID/TestingSimTools/include</text>
<text text-anchor="middle" x="1749" y="-298.5" font-family="Helvetica,sans-Serif" font-size="10.00" fill="#000000">/MIDTestingSimTools/HitFinder.h</text>
</g>
<!-- Node1 -->
<g id="node2" class="node">
<title>Node1</title>
<g id="a_node2"><a xlink:href="../../dc/d73/Cartesian_8h.html" target="_top" xlink:title="MathUtils/Cartesian.h">
<polygon fill="none" stroke="#000000" points="1130,-179.5 1130,-198.5 1242,-198.5 1242,-179.5 1130,-179.5"/>
<text text-anchor="middle" x="1186" y="-186.5" font-family="Helvetica,sans-Serif" font-size="10.00" fill="#000000">MathUtils/Cartesian.h</text>
</a>
</g>
</g>
<!-- Node0&#45;&gt;Node1 -->
<g id="edge1" class="edge">
<title>Node0&#45;&gt;Node1</title>
<path fill="none" stroke="#191970" d="M1667.4358,-298.8837C1549.8512,-272.046 1336.0746,-223.2533 1237.8658,-200.8379"/>
<polygon fill="#191970" stroke="#191970" points="1238.4109,-197.3724 1227.8828,-198.5594 1236.8532,-204.1969 1238.4109,-197.3724"/>
</g>
<!-- Node17 -->
<g id="node18" class="node">
<title>Node17</title>
<g id="a_node18"><a xlink:href="../../d6/d31/Cluster2D_8h.html" target="_top" xlink:title="Reconstructed cluster per RPC. ">
<polygon fill="none" stroke="#000000" points="1913,-235.5 1913,-254.5 2061,-254.5 2061,-235.5 1913,-235.5"/>
<text text-anchor="middle" x="1987" y="-242.5" font-family="Helvetica,sans-Serif" font-size="10.00" fill="#000000">DataFormatsMID/Cluster2D.h</text>
</a>
</g>
</g>
<!-- Node0&#45;&gt;Node17 -->
<g id="edge18" class="edge">
<title>Node0&#45;&gt;Node17</title>
<path fill="none" stroke="#191970" d="M1830.5731,-292.651C1869.4282,-280.815 1914.21,-267.1734 1945.8756,-257.5274"/>
<polygon fill="#191970" stroke="#191970" points="1947.1255,-260.8055 1955.6716,-254.5433 1945.0856,-254.1093 1947.1255,-260.8055"/>
</g>
<!-- Node20 -->
<g id="node21" class="node">
<title>Node20</title>
<g id="a_node21"><a xlink:href="../../d4/d54/DataFormats_2Detectors_2MUON_2MID_2include_2DataFormatsMID_2Track_8h.html" target="_top" xlink:title="Reconstructed MID track. ">
<polygon fill="none" stroke="#000000" points="1767,-235.5 1767,-254.5 1895,-254.5 1895,-235.5 1767,-235.5"/>
<text text-anchor="middle" x="1831" y="-242.5" font-family="Helvetica,sans-Serif" font-size="10.00" fill="#000000">DataFormatsMID/Track.h</text>
</a>
</g>
</g>
<!-- Node0&#45;&gt;Node20 -->
<g id="edge21" class="edge">
<title>Node0&#45;&gt;Node20</title>
<path fill="none" stroke="#191970" d="M1778.6039,-291.3258C1789.9292,-281.3126 1802.5148,-270.1851 1812.5121,-261.346"/>
<polygon fill="#191970" stroke="#191970" points="1815.0433,-263.7799 1820.2167,-254.534 1810.4067,-258.5357 1815.0433,-263.7799"/>
</g>
<!-- Node22 -->
<g id="node23" class="node">
<title>Node22</title>
<g id="a_node23"><a xlink:href="../../de/d0c/GeometryTransformer_8h.html" target="_top" xlink:title="Geometry transformer for MID. ">
<polygon fill="none" stroke="#000000" points="1585,-235.5 1585,-254.5 1749,-254.5 1749,-235.5 1585,-235.5"/>
<text text-anchor="middle" x="1667" y="-242.5" font-family="Helvetica,sans-Serif" font-size="10.00" fill="#000000">MIDBase/GeometryTransformer.h</text>
</a>
</g>
</g>
<!-- Node0&#45;&gt;Node22 -->
<g id="edge24" class="edge">
<title>Node0&#45;&gt;Node22</title>
<path fill="none" stroke="#191970" d="M1719.3961,-291.3258C1708.0708,-281.3126 1695.4852,-270.1851 1685.4879,-261.346"/>
<polygon fill="#191970" stroke="#191970" points="1687.5933,-258.5357 1677.7833,-254.534 1682.9567,-263.7799 1687.5933,-258.5357"/>
</g>
<!-- Node2 -->
<g id="node3" class="node">
<title>Node2</title>
<g id="a_node3"><a xlink:href="../../df/d21/GPUCommonDef_8h.html" target="_top" xlink:title="GPUCommonDef.h">
<polygon fill="none" stroke="#000000" points="1548,-56.5 1548,-75.5 1650,-75.5 1650,-56.5 1548,-56.5"/>
<text text-anchor="middle" x="1599" y="-63.5" font-family="Helvetica,sans-Serif" font-size="10.00" fill="#000000">GPUCommonDef.h</text>
</a>
</g>
</g>
<!-- Node1&#45;&gt;Node2 -->
<g id="edge2" class="edge">
<title>Node1&#45;&gt;Node2</title>
<path fill="none" stroke="#191970" d="M1242.2602,-186.2591C1326.8819,-181.3452 1482.2153,-169.0193 1531,-143 1556.461,-129.4204 1576.9008,-102.2484 1588.496,-84.0897"/>
<polygon fill="#191970" stroke="#191970" points="1591.4968,-85.8913 1593.7331,-75.5352 1585.5268,-82.2364 1591.4968,-85.8913"/>
</g>
<!-- Node5 -->
<g id="node6" class="node">
<title>Node5</title>
<g id="a_node6"><a xlink:href="../../d2/d45/GPUCommonRtypes_8h.html" target="_top" xlink:title="GPUCommonRtypes.h">
<polygon fill="none" stroke="#000000" points="0,-118 0,-137 118,-137 118,-118 0,-118"/>
<text text-anchor="middle" x="59" y="-125" font-family="Helvetica,sans-Serif" font-size="10.00" fill="#000000">GPUCommonRtypes.h</text>
</a>
</g>
</g>
<!-- Node1&#45;&gt;Node5 -->
<g id="edge5" class="edge">
<title>Node1&#45;&gt;Node5</title>
<path fill="none" stroke="#191970" d="M1129.9574,-187.9028C940.3252,-183.9806 323.6324,-169.4597 127,-143 119.8224,-142.0341 112.2867,-140.6735 104.9521,-139.1553"/>
<polygon fill="#191970" stroke="#191970" points="105.6441,-135.724 95.1276,-137.0095 104.1504,-142.5627 105.6441,-135.724"/>
</g>
<!-- Node7 -->
<g id="node8" class="node">
<title>Node7</title>
<polygon fill="none" stroke="#bfbfbf" points="136.5,-112.5 136.5,-142.5 287.5,-142.5 287.5,-112.5 136.5,-112.5"/>
<text text-anchor="start" x="144.5" y="-130.5" font-family="Helvetica,sans-Serif" font-size="10.00" fill="#000000">Math/GenVector/Displacement</text>
<text text-anchor="middle" x="212" y="-119.5" font-family="Helvetica,sans-Serif" font-size="10.00" fill="#000000">Vector3D.h</text>
</g>
<!-- Node1&#45;&gt;Node7 -->
<g id="edge7" class="edge">
<title>Node1&#45;&gt;Node7</title>
<path fill="none" stroke="#191970" d="M1129.8823,-188.5981C990.6495,-187.064 618.0918,-179.6768 297.8629,-142.995"/>
<polygon fill="#191970" stroke="#191970" points="298.2633,-139.518 287.9273,-141.8454 297.4587,-146.4716 298.2633,-139.518"/>
</g>
<!-- Node8 -->
<g id="node9" class="node">
<title>Node8</title>
<polygon fill="none" stroke="#bfbfbf" points="306,-118 306,-137 482,-137 482,-118 306,-118"/>
<text text-anchor="middle" x="394" y="-125" font-family="Helvetica,sans-Serif" font-size="10.00" fill="#000000">Math/GenVector/PositionVector3D.h</text>
</g>
<!-- Node1&#45;&gt;Node8 -->
<g id="edge8" class="edge">
<title>Node1&#45;&gt;Node8</title>
<path fill="none" stroke="#191970" d="M1129.9059,-187.0841C1011.4161,-182.6434 727.0385,-169.9087 490,-143 479.3402,-141.7899 468.0572,-140.2255 457.1172,-138.5572"/>
<polygon fill="#191970" stroke="#191970" points="457.6157,-135.0927 447.1945,-137.0031 456.5325,-142.0084 457.6157,-135.0927"/>
</g>
<!-- Node9 -->
<g id="node10" class="node">
<title>Node9</title>
<polygon fill="none" stroke="#bfbfbf" points="499.5,-118 499.5,-137 648.5,-137 648.5,-118 499.5,-118"/>
<text text-anchor="middle" x="574" y="-125" font-family="Helvetica,sans-Serif" font-size="10.00" fill="#000000">Math/GenVector/Rotation3D.h</text>
</g>
<!-- Node1&#45;&gt;Node9 -->
<g id="edge9" class="edge">
<title>Node1&#45;&gt;Node9</title>
<path fill="none" stroke="#191970" d="M1129.9282,-185.8812C1033.2769,-180.1112 829.1915,-166.1976 658,-143 649.3516,-141.8281 640.2403,-140.3758 631.3359,-138.8341"/>
<polygon fill="#191970" stroke="#191970" points="631.865,-135.3733 621.4062,-137.0655 630.6375,-142.2648 631.865,-135.3733"/>
</g>
<!-- Node10 -->
<g id="node11" class="node">
<title>Node10</title>
<polygon fill="none" stroke="#bfbfbf" points="667,-118 667,-137 823,-137 823,-118 667,-118"/>
<text text-anchor="middle" x="745" y="-125" font-family="Helvetica,sans-Serif" font-size="10.00" fill="#000000">Math/GenVector/Transform3D.h</text>
</g>
<!-- Node1&#45;&gt;Node10 -->
<g id="edge10" class="edge">
<title>Node1&#45;&gt;Node10</title>
<path fill="none" stroke="#191970" d="M1129.7849,-182.5237C1059.8635,-174.2777 936.8962,-159.1503 832,-143 823.608,-141.7079 814.7785,-140.2501 806.0927,-138.7586"/>
<polygon fill="#191970" stroke="#191970" points="806.4495,-135.2681 795.9972,-137.0001 805.2482,-142.1643 806.4495,-135.2681"/>
</g>
<!-- Node11 -->
<g id="node12" class="node">
<title>Node11</title>
<polygon fill="none" stroke="#bfbfbf" points="841,-118 841,-137 1001,-137 1001,-118 841,-118"/>
<text text-anchor="middle" x="921" y="-125" font-family="Helvetica,sans-Serif" font-size="10.00" fill="#000000">Math/GenVector/Translation3D.h</text>
</g>
<!-- Node1&#45;&gt;Node11 -->
<g id="edge11" class="edge">
<title>Node1&#45;&gt;Node11</title>
<path fill="none" stroke="#191970" d="M1144.8845,-179.4581C1098.3698,-168.6632 1022.5592,-151.0694 972.2327,-139.3899"/>
<polygon fill="#191970" stroke="#191970" points="972.7443,-135.9156 962.2119,-137.0643 971.1618,-142.7344 972.7443,-135.9156"/>
</g>
<!-- Node12 -->
<g id="node13" class="node">
<title>Node12</title>
<polygon fill="none" stroke="#bfbfbf" points="1019.5,-112.5 1019.5,-142.5 1170.5,-142.5 1170.5,-112.5 1019.5,-112.5"/>
<text text-anchor="start" x="1027.5" y="-130.5" font-family="Helvetica,sans-Serif" font-size="10.00" fill="#000000">Math/GenVector/Displacement</text>
<text text-anchor="middle" x="1095" y="-119.5" font-family="Helvetica,sans-Serif" font-size="10.00" fill="#000000">Vector2D.h</text>
</g>
<!-- Node1&#45;&gt;Node12 -->
<g id="edge12" class="edge">
<title>Node1&#45;&gt;Node12</title>
<path fill="none" stroke="#191970" d="M1171.7813,-179.3906C1159.4655,-171.0673 1141.2234,-158.7389 1125.6103,-148.1872"/>
<polygon fill="#191970" stroke="#191970" points="1127.5063,-145.2442 1117.2611,-142.5446 1123.5866,-151.0439 1127.5063,-145.2442"/>
</g>
<!-- Node13 -->
<g id="node14" class="node">
<title>Node13</title>
<polygon fill="none" stroke="#bfbfbf" points="1189,-118 1189,-137 1365,-137 1365,-118 1189,-118"/>
<text text-anchor="middle" x="1277" y="-125" font-family="Helvetica,sans-Serif" font-size="10.00" fill="#000000">Math/GenVector/PositionVector2D.h</text>
</g>
<!-- Node1&#45;&gt;Node13 -->
<g id="edge13" class="edge">
<title>Node1&#45;&gt;Node13</title>
<path fill="none" stroke="#191970" d="M1200.2188,-179.3906C1214.6434,-169.6421 1237.1976,-154.3994 1254.136,-142.9521"/>
<polygon fill="#191970" stroke="#191970" points="1256.5556,-145.5412 1262.8811,-137.0419 1252.6359,-139.7415 1256.5556,-145.5412"/>
</g>
<!-- Node14 -->
<g id="node15" class="node">
<title>Node14</title>
<polygon fill="none" stroke="#bfbfbf" points="1383,-118 1383,-137 1459,-137 1459,-118 1383,-118"/>
<text text-anchor="middle" x="1421" y="-125" font-family="Helvetica,sans-Serif" font-size="10.00" fill="#000000">TGeoMatrix.h</text>
</g>
<!-- Node1&#45;&gt;Node14 -->
<g id="edge14" class="edge">
<title>Node1&#45;&gt;Node14</title>
<path fill="none" stroke="#191970" d="M1229.187,-179.4492C1267.4566,-170.7449 1324.7426,-157.1248 1374,-143 1377.1385,-142.1 1380.3808,-141.1257 1383.627,-140.119"/>
<polygon fill="#191970" stroke="#191970" points="1384.8123,-143.4147 1393.2772,-137.0433 1382.6865,-136.7453 1384.8123,-143.4147"/>
</g>
<!-- Node15 -->
<g id="node16" class="node">
<title>Node15</title>
<polygon fill="none" stroke="#bfbfbf" points="1477.5,-118 1477.5,-137 1522.5,-137 1522.5,-118 1477.5,-118"/>
<text text-anchor="middle" x="1500" y="-125" font-family="Helvetica,sans-Serif" font-size="10.00" fill="#000000">iosfwd</text>
</g>
<!-- Node1&#45;&gt;Node15 -->
<g id="edge15" class="edge">
<title>Node1&#45;&gt;Node15</title>
<path fill="none" stroke="#191970" d="M1242.2226,-184.649C1299.9483,-179.072 1391.8545,-167.0882 1468,-143 1469.659,-142.4752 1471.3406,-141.878 1473.0197,-141.2308"/>
<polygon fill="#191970" stroke="#191970" points="1474.6632,-144.3327 1482.4349,-137.132 1471.869,-137.9145 1474.6632,-144.3327"/>
</g>
<!-- Node16 -->
<g id="node17" class="node">
<title>Node16</title>
<g id="a_node17"><a xlink:href="../../d1/da8/GPUROOTCartesianFwd_8h.html" target="_top" xlink:title="GPUROOTCartesianFwd.h">
<polygon fill="none" stroke="#000000" points="1579,-118 1579,-137 1715,-137 1715,-118 1579,-118"/>
<text text-anchor="middle" x="1647" y="-125" font-family="Helvetica,sans-Serif" font-size="10.00" fill="#000000">GPUROOTCartesianFwd.h</text>
</a>
</g>
</g>
<!-- Node1&#45;&gt;Node16 -->
<g id="edge16" class="edge">
<title>Node1&#45;&gt;Node16</title>
<path fill="none" stroke="#191970" d="M1242.0273,-183.3694C1316.1294,-175.655 1450.7041,-160.7187 1565,-143 1572.9393,-141.7692 1581.2867,-140.3443 1589.4928,-138.8672"/>
<polygon fill="#191970" stroke="#191970" points="1590.1919,-142.2975 1599.3954,-137.0491 1588.9278,-135.4125 1590.1919,-142.2975"/>
</g>
<!-- Node3 -->
<g id="node4" class="node">
<title>Node3</title>
<g id="a_node4"><a xlink:href="../../d5/d93/GPUCommonDefSettings_8h.html" target="_top" xlink:title="GPUCommonDefSettings.h">
<polygon fill="none" stroke="#000000" points="1457,-.5 1457,-19.5 1595,-19.5 1595,-.5 1457,-.5"/>
<text text-anchor="middle" x="1526" y="-7.5" font-family="Helvetica,sans-Serif" font-size="10.00" fill="#000000">GPUCommonDefSettings.h</text>
</a>
</g>
</g>
<!-- Node2&#45;&gt;Node3 -->
<g id="edge3" class="edge">
<title>Node2&#45;&gt;Node3</title>
<path fill="none" stroke="#191970" d="M1586.2844,-56.2455C1575.398,-47.8943 1559.5117,-35.7076 1546.78,-25.9408"/>
<polygon fill="#191970" stroke="#191970" points="1548.6346,-22.9523 1538.5699,-19.6427 1544.3739,-28.5063 1548.6346,-22.9523"/>
</g>
<!-- Node4 -->
<g id="node5" class="node">
<title>Node4</title>
<g id="a_node5"><a xlink:href="../../da/d5a/GPUCommonDefAPI_8h.html" target="_top" xlink:title="GPUCommonDefAPI.h">
<polygon fill="none" stroke="#000000" points="1613.5,-.5 1613.5,-19.5 1732.5,-19.5 1732.5,-.5 1613.5,-.5"/>
<text text-anchor="middle" x="1673" y="-7.5" font-family="Helvetica,sans-Serif" font-size="10.00" fill="#000000">GPUCommonDefAPI.h</text>
</a>
</g>
</g>
<!-- Node2&#45;&gt;Node4 -->
<g id="edge4" class="edge">
<title>Node2&#45;&gt;Node4</title>
<path fill="none" stroke="#191970" d="M1611.8898,-56.2455C1622.9254,-47.8943 1639.0292,-35.7076 1651.9353,-25.9408"/>
<polygon fill="#191970" stroke="#191970" points="1654.3959,-28.4681 1660.2579,-19.6427 1650.1717,-22.8862 1654.3959,-28.4681"/>
</g>
<!-- Node6 -->
<g id="node7" class="node">
<title>Node6</title>
<polygon fill="none" stroke="#bfbfbf" points="31,-56.5 31,-75.5 87,-75.5 87,-56.5 31,-56.5"/>
<text text-anchor="middle" x="59" y="-63.5" font-family="Helvetica,sans-Serif" font-size="10.00" fill="#000000">Rtypes.h</text>
</g>
<!-- Node5&#45;&gt;Node6 -->
<g id="edge6" class="edge">
<title>Node5&#45;&gt;Node6</title>
<path fill="none" stroke="#191970" d="M59,-117.8906C59,-109.3657 59,-96.6392 59,-85.9235"/>
<polygon fill="#191970" stroke="#191970" points="62.5001,-85.7448 59,-75.7449 55.5001,-85.7449 62.5001,-85.7448"/>
</g>
<!-- Node16&#45;&gt;Node2 -->
<g id="edge17" class="edge">
<title>Node16&#45;&gt;Node2</title>
<path fill="none" stroke="#191970" d="M1639.5,-117.8906C1632.4262,-108.8273 1621.6458,-95.0149 1612.9854,-83.9188"/>
<polygon fill="#191970" stroke="#191970" points="1615.5176,-81.4746 1606.6057,-75.7449 1609.9994,-85.7815 1615.5176,-81.4746"/>
</g>
<!-- Node18 -->
<g id="node19" class="node">
<title>Node18</title>
<polygon fill="none" stroke="#bfbfbf" points="1877,-179.5 1877,-198.5 1929,-198.5 1929,-179.5 1877,-179.5"/>
<text text-anchor="middle" x="1903" y="-186.5" font-family="Helvetica,sans-Serif" font-size="10.00" fill="#000000">ostream</text>
</g>
<!-- Node17&#45;&gt;Node18 -->
<g id="edge19" class="edge">
<title>Node17&#45;&gt;Node18</title>
<path fill="none" stroke="#191970" d="M1972.3683,-235.2455C1959.6006,-226.7337 1940.8562,-214.2375 1926.0701,-204.3801"/>
<polygon fill="#191970" stroke="#191970" points="1927.726,-201.2775 1917.464,-198.6427 1923.8431,-207.1019 1927.726,-201.2775"/>
</g>
<!-- Node19 -->
<g id="node20" class="node">
<title>Node19</title>
<polygon fill="none" stroke="#bfbfbf" points="1964,-179.5 1964,-198.5 2010,-198.5 2010,-179.5 1964,-179.5"/>
<text text-anchor="middle" x="1987" y="-186.5" font-family="Helvetica,sans-Serif" font-size="10.00" fill="#000000">cstdint</text>
</g>
<!-- Node17&#45;&gt;Node19 -->
<g id="edge20" class="edge">
<title>Node17&#45;&gt;Node19</title>
<path fill="none" stroke="#191970" d="M1987,-235.2455C1987,-227.9382 1987,-217.6944 1987,-208.7046"/>
<polygon fill="#191970" stroke="#191970" points="1990.5001,-208.6426 1987,-198.6427 1983.5001,-208.6427 1990.5001,-208.6426"/>
</g>
<!-- Node20&#45;&gt;Node18 -->
<g id="edge23" class="edge">
<title>Node20&#45;&gt;Node18</title>
<path fill="none" stroke="#191970" d="M1843.5414,-235.2455C1854.2787,-226.8943 1869.9473,-214.7076 1882.5047,-204.9408"/>
<polygon fill="#191970" stroke="#191970" points="1884.8575,-207.5449 1890.6023,-198.6427 1880.5599,-202.0194 1884.8575,-207.5449"/>
</g>
<!-- Node21 -->
<g id="node22" class="node">
<title>Node21</title>
<polygon fill="none" stroke="#bfbfbf" points="1793,-118 1793,-137 1831,-137 1831,-118 1793,-118"/>
<text text-anchor="middle" x="1812" y="-125" font-family="Helvetica,sans-Serif" font-size="10.00" fill="#000000">array</text>
</g>
<!-- Node20&#45;&gt;Node21 -->
<g id="edge22" class="edge">
<title>Node20&#45;&gt;Node21</title>
<path fill="none" stroke="#191970" d="M1829.4452,-235.3845C1826.3416,-216.1913 1819.3228,-172.786 1815.1963,-147.2663"/>
<polygon fill="#191970" stroke="#191970" points="1818.6278,-146.5614 1813.5763,-137.2484 1811.7176,-147.6789 1818.6278,-146.5614"/>
</g>
<!-- Node22&#45;&gt;Node1 -->
<g id="edge29" class="edge">
<title>Node22&#45;&gt;Node1</title>
<path fill="none" stroke="#191970" d="M1585.1325,-235.4686C1491.2345,-224.5367 1339.1023,-206.8248 1252.2969,-196.7186"/>
<polygon fill="#191970" stroke="#191970" points="1252.6386,-193.2348 1242.3009,-195.5548 1251.8291,-200.1878 1252.6386,-193.2348"/>
</g>
<!-- Node22&#45;&gt;Node21 -->
<g id="edge25" class="edge">
<title>Node22&#45;&gt;Node21</title>
<path fill="none" stroke="#191970" d="M1705.1925,-235.4788C1727.3718,-228.3891 1754.6622,-216.8051 1774,-199 1789.4605,-184.7649 1799.8231,-162.7718 1805.7693,-146.9364"/>
<polygon fill="#191970" stroke="#191970" points="1809.2016,-147.7231 1809.1887,-137.1283 1802.5917,-145.4187 1809.2016,-147.7231"/>
</g>
<!-- Node23 -->
<g id="node24" class="node">
<title>Node23</title>
<g id="a_node24"><a xlink:href="../../dc/de4/DetectorParameters_8h.html" target="_top" xlink:title="Useful detector parameters for MID. ">
<polygon fill="none" stroke="#000000" points="1607.5,-179.5 1607.5,-198.5 1764.5,-198.5 1764.5,-179.5 1607.5,-179.5"/>
<text text-anchor="middle" x="1686" y="-186.5" font-family="Helvetica,sans-Serif" font-size="10.00" fill="#000000">MIDBase/DetectorParameters.h</text>
</a>
</g>
</g>
<!-- Node22&#45;&gt;Node23 -->
<g id="edge26" class="edge">
<title>Node22&#45;&gt;Node23</title>
<path fill="none" stroke="#191970" d="M1670.3095,-235.2455C1672.8433,-227.7776 1676.4177,-217.2427 1679.515,-208.1137"/>
<polygon fill="#191970" stroke="#191970" points="1682.8298,-209.237 1682.7284,-198.6427 1676.2009,-206.9879 1682.8298,-209.237"/>
</g>
<!-- Node23&#45;&gt;Node21 -->
<g id="edge27" class="edge">
<title>Node23&#45;&gt;Node21</title>
<path fill="none" stroke="#191970" d="M1707.6111,-179.3573C1727.6025,-170.3193 1758.056,-156.2512 1784,-143 1784.6866,-142.6493 1785.3809,-142.2911 1786.0803,-141.9273"/>
<polygon fill="#191970" stroke="#191970" points="1788.0592,-144.8376 1795.2184,-137.0275 1784.7514,-138.6685 1788.0592,-144.8376"/>
</g>
<!-- Node24 -->
<g id="node25" class="node">
<title>Node24</title>
<polygon fill="none" stroke="#bfbfbf" points="1733.5,-118 1733.5,-137 1774.5,-137 1774.5,-118 1733.5,-118"/>
<text text-anchor="middle" x="1754" y="-125" font-family="Helvetica,sans-Serif" font-size="10.00" fill="#000000">string</text>
</g>
<!-- Node23&#45;&gt;Node24 -->
<g id="edge28" class="edge">
<title>Node23&#45;&gt;Node24</title>
<path fill="none" stroke="#191970" d="M1696.625,-179.3906C1707.0431,-169.9683 1723.1364,-155.4134 1735.6304,-144.1137"/>
<polygon fill="#191970" stroke="#191970" points="1738.1562,-146.5484 1743.2252,-137.2449 1733.4608,-141.3568 1738.1562,-146.5484"/>
</g>
</g>
</svg>
        <g id="navigator" transform="translate(0 0)" fill="#404254">
                <rect fill="#f2f5e9" fill-opacity="0.5" stroke="#606060" stroke-width=".5" x="0" y="0" width="60" height="60"/>
                <use id="zoomplus" xlink:href="#zoomPlus" x="17" y="9" onmousedown="handleZoom(evt,'in')"/>
                <use id="zoomminus" xlink:href="#zoomMin" x="42" y="9" onmousedown="handleZoom(evt,'out')"/>
                <use id="reset" xlink:href="#resetDef" x="30" y="36" onmousedown="handleReset()"/>
                <g id="arrowUp" xlink:href="#dirArrow" transform="translate(30 24)" onmousedown="handlePan(0,-1)">
                  <use xlink:href="#rim" fill="#404040">
                        <set attributeName="fill" to="#808080" begin="arrowUp.mouseover" end="arrowUp.mouseout"/>
                  </use>
                  <path fill="none" stroke="white" stroke-width="1.5" d="M0,-3.0v7 M-2.5,-0.5L0,-3.0L2.5,-0.5"/>
                </g>
                <g id="arrowRight" xlink:href="#dirArrow" transform="rotate(90) translate(36 -43)" onmousedown="handlePan(1,0)">
                  <use xlink:href="#rim" fill="#404040">
                        <set attributeName="fill" to="#808080" begin="arrowRight.mouseover" end="arrowRight.mouseout"/>
                  </use>
                  <path fill="none" stroke="white" stroke-width="1.5" d="M0,-3.0v7 M-2.5,-0.5L0,-3.0L2.5,-0.5"/>
                </g>
                <g id="arrowDown" xlink:href="#dirArrow" transform="rotate(180) translate(-30 -48)" onmousedown="handlePan(0,1)">
                  <use xlink:href="#rim" fill="#404040">
                        <set attributeName="fill" to="#808080" begin="arrowDown.mouseover" end="arrowDown.mouseout"/>
                  </use>
                  <path fill="none" stroke="white" stroke-width="1.5" d="M0,-3.0v7 M-2.5,-0.5L0,-3.0L2.5,-0.5"/>
                </g>
                <g id="arrowLeft" xlink:href="#dirArrow" transform="rotate(270) translate(-36 17)" onmousedown="handlePan(-1,0)">
                  <use xlink:href="#rim" fill="#404040">
                        <set attributeName="fill" to="#808080" begin="arrowLeft.mouseover" end="arrowLeft.mouseout"/>
                  </use>
                  <path fill="none" stroke="white" stroke-width="1.5" d="M0,-3.0v7 M-2.5,-0.5L0,-3.0L2.5,-0.5"/>
                </g>
        </g>
        <svg viewBox="0 0 15 15" width="100%" height="30px" preserveAspectRatio="xMaxYMin meet">
         <g id="arrow_out" transform="scale(0.3 0.3)">
          <a xlink:href="HitFinder_8h__incl_org.svg" target="_base">
           <rect id="button" ry="5" rx="5" y="6" x="6" height="38" width="38"
                fill="#f2f5e9" fill-opacity="0.5" stroke="#606060" stroke-width="1.0"/>
           <path id="arrow"
             d="M 11.500037,31.436501 C 11.940474,20.09759 22.043105,11.32322 32.158766,21.979434 L 37.068811,17.246167 C 37.068811,17.246167 37.088388,32 37.088388,32 L 22.160133,31.978069 C 22.160133,31.978069 26.997745,27.140456 26.997745,27.140456 C 18.528582,18.264221 13.291696,25.230495 11.500037,31.436501 z"
             style="fill:#404040;"/>
          </a>
         </g>
        </svg>
</svg>
