<?xml version="1.0" encoding="UTF-8" standalone="no"?>
<!DOCTYPE svg PUBLIC "-//W3C//DTD SVG 1.1//EN"
 "http://www.w3.org/Graphics/SVG/1.1/DTD/svg11.dtd">
<!-- Generated by graphviz version 2.40.1 (20161225.0304)
 -->
<!-- Title: /home/runner/work/AliceO2/AliceO2/Detectors/ITSMFT/MFT/base/include/MFTBase/GeometryTGeo.h Pages: 1 -->
<svg width="2317pt" height="139pt"
 viewBox="0.00 0.00 2316.50 139.00" xmlns="http://www.w3.org/2000/svg" xmlns:xlink="http://www.w3.org/1999/xlink">
<g id="graph0" class="graph" transform="scale(1 1) rotate(0) translate(4 135)">
<title>/home/runner/work/AliceO2/AliceO2/Detectors/ITSMFT/MFT/base/include/MFTBase/GeometryTGeo.h</title>
<!-- Node58 -->
<g id="node1" class="node">
<title>Node58</title>
<polygon fill="#bfbfbf" stroke="#000000" points="1118.5,-78.5 1118.5,-130.5 1261.5,-130.5 1261.5,-78.5 1118.5,-78.5"/>
<text text-anchor="start" x="1126.5" y="-118.5" font-family="Helvetica,sans-Serif" font-size="10.00" fill="#000000">/home/runner/work/AliceO2</text>
<text text-anchor="start" x="1126.5" y="-107.5" font-family="Helvetica,sans-Serif" font-size="10.00" fill="#000000">/AliceO2/Detectors/ITSMFT</text>
<text text-anchor="start" x="1126.5" y="-96.5" font-family="Helvetica,sans-Serif" font-size="10.00" fill="#000000">/MFT/base/include/MFTBase</text>
<text text-anchor="middle" x="1190" y="-85.5" font-family="Helvetica,sans-Serif" font-size="10.00" fill="#000000">/GeometryTGeo.h</text>
</g>
<!-- Node59 -->
<g id="node2" class="node">
<title>Node59</title>
<g id="a_node2"><a xlink:href="../../d5/d24/ChipSegmentation_8cxx.html" target="_top" xlink:title="Description of the virtual segmentation of the chips. ">
<polygon fill="none" stroke="#000000" points="0,-.5 0,-41.5 182,-41.5 182,-.5 0,-.5"/>
<text text-anchor="start" x="8" y="-29.5" font-family="Helvetica,sans-Serif" font-size="10.00" fill="#000000">/home/runner/work/AliceO2</text>
<text text-anchor="start" x="8" y="-18.5" font-family="Helvetica,sans-Serif" font-size="10.00" fill="#000000">/AliceO2/Detectors/ITSMFT</text>
<text text-anchor="middle" x="91" y="-7.5" font-family="Helvetica,sans-Serif" font-size="10.00" fill="#000000">/MFT/base/src/ChipSegmentation.cxx</text>
</a>
</g>
</g>
<!-- Node58&#45;&gt;Node59 -->
<g id="edge1" class="edge">
<title>Node58&#45;&gt;Node59</title>
<path fill="none" stroke="#191970" d="M1108.3087,-103.3796C937.3294,-100.1593 529.5631,-87.8949 191,-42 188.0995,-41.6068 185.1574,-41.1771 182.1912,-40.7171"/>
<polygon fill="#191970" stroke="#191970" points="1108.4258,-106.8823 1118.4881,-103.5659 1108.5539,-99.8835 1108.4258,-106.8823"/>
</g>
<!-- Node60 -->
<g id="node3" class="node">
<title>Node60</title>
<g id="a_node3"><a xlink:href="../../df/d83/GeometryBuilder_8cxx.html" target="_top" xlink:title="Class describing MFT Geometry Builder. ">
<polygon fill="none" stroke="#000000" points="200.5,-.5 200.5,-41.5 375.5,-41.5 375.5,-.5 200.5,-.5"/>
<text text-anchor="start" x="208.5" y="-29.5" font-family="Helvetica,sans-Serif" font-size="10.00" fill="#000000">/home/runner/work/AliceO2</text>
<text text-anchor="start" x="208.5" y="-18.5" font-family="Helvetica,sans-Serif" font-size="10.00" fill="#000000">/AliceO2/Detectors/ITSMFT</text>
<text text-anchor="middle" x="288" y="-7.5" font-family="Helvetica,sans-Serif" font-size="10.00" fill="#000000">/MFT/base/src/GeometryBuilder.cxx</text>
</a>
</g>
</g>
<!-- Node58&#45;&gt;Node60 -->
<g id="edge2" class="edge">
<title>Node58&#45;&gt;Node60</title>
<path fill="none" stroke="#191970" d="M1108.25,-101.8875C962.1885,-96.3922 647.0553,-80.7816 384,-42 381.2151,-41.5894 378.3903,-41.1445 375.5425,-40.6715"/>
<polygon fill="#191970" stroke="#191970" points="1108.3485,-105.3935 1118.4712,-102.2659 1108.6075,-98.3982 1108.3485,-105.3935"/>
</g>
<!-- Node61 -->
<g id="node4" class="node">
<title>Node61</title>
<g id="a_node4"><a xlink:href="../../d0/dc4/ITSMFT_2MFT_2base_2src_2GeometryTGeo_8cxx.html" target="_top" xlink:title="/home/runner/work/AliceO2\l/AliceO2/Detectors/ITSMFT\l/MFT/base/src/GeometryTGeo.cxx">
<polygon fill="none" stroke="#000000" points="393.5,-.5 393.5,-41.5 562.5,-41.5 562.5,-.5 393.5,-.5"/>
<text text-anchor="start" x="401.5" y="-29.5" font-family="Helvetica,sans-Serif" font-size="10.00" fill="#000000">/home/runner/work/AliceO2</text>
<text text-anchor="start" x="401.5" y="-18.5" font-family="Helvetica,sans-Serif" font-size="10.00" fill="#000000">/AliceO2/Detectors/ITSMFT</text>
<text text-anchor="middle" x="478" y="-7.5" font-family="Helvetica,sans-Serif" font-size="10.00" fill="#000000">/MFT/base/src/GeometryTGeo.cxx</text>
</a>
</g>
</g>
<!-- Node58&#45;&gt;Node61 -->
<g id="edge3" class="edge">
<title>Node58&#45;&gt;Node61</title>
<path fill="none" stroke="#191970" d="M1108.1688,-99.3381C989.4714,-91.1465 762.8498,-72.8565 572,-42 568.9461,-41.5063 565.8428,-40.9742 562.713,-40.412"/>
<polygon fill="#191970" stroke="#191970" points="1108.0532,-102.8382 1118.2687,-100.0286 1108.5308,-95.8545 1108.0532,-102.8382"/>
</g>
<!-- Node62 -->
<g id="node5" class="node">
<title>Node62</title>
<g id="a_node5"><a xlink:href="../../d1/d8f/HalfDiskSegmentation_8cxx.html" target="_top" xlink:title="Class for the description of the structure of a half&#45;disk. ">
<polygon fill="none" stroke="#000000" points="581,-.5 581,-41.5 781,-41.5 781,-.5 581,-.5"/>
<text text-anchor="start" x="589" y="-29.5" font-family="Helvetica,sans-Serif" font-size="10.00" fill="#000000">/home/runner/work/AliceO2</text>
<text text-anchor="start" x="589" y="-18.5" font-family="Helvetica,sans-Serif" font-size="10.00" fill="#000000">/AliceO2/Detectors/ITSMFT</text>
<text text-anchor="middle" x="681" y="-7.5" font-family="Helvetica,sans-Serif" font-size="10.00" fill="#000000">/MFT/base/src/HalfDiskSegmentation.cxx</text>
</a>
</g>
</g>
<!-- Node58&#45;&gt;Node62 -->
<g id="edge4" class="edge">
<title>Node58&#45;&gt;Node62</title>
<path fill="none" stroke="#191970" d="M1108.2143,-92.5851C1027.2716,-80.5896 899.8952,-61.1656 790,-42 787.0573,-41.4868 784.0714,-40.9588 781.0582,-40.4196"/>
<polygon fill="#191970" stroke="#191970" points="1107.9356,-96.0819 1118.3401,-94.0829 1108.9599,-89.1573 1107.9356,-96.0819"/>
</g>
<!-- Node63 -->
<g id="node6" class="node">
<title>Node63</title>
<g id="a_node6"><a xlink:href="../../d1/d7f/HalfSegmentation_8cxx.html" target="_top" xlink:title="Segmentation class for each half of the ALICE Muon Forward Tracker. ">
<polygon fill="none" stroke="#000000" points="799,-.5 799,-41.5 979,-41.5 979,-.5 799,-.5"/>
<text text-anchor="start" x="807" y="-29.5" font-family="Helvetica,sans-Serif" font-size="10.00" fill="#000000">/home/runner/work/AliceO2</text>
<text text-anchor="start" x="807" y="-18.5" font-family="Helvetica,sans-Serif" font-size="10.00" fill="#000000">/AliceO2/Detectors/ITSMFT</text>
<text text-anchor="middle" x="889" y="-7.5" font-family="Helvetica,sans-Serif" font-size="10.00" fill="#000000">/MFT/base/src/HalfSegmentation.cxx</text>
</a>
</g>
</g>
<!-- Node58&#45;&gt;Node63 -->
<g id="edge5" class="edge">
<title>Node58&#45;&gt;Node63</title>
<path fill="none" stroke="#191970" d="M1108.4849,-81.887C1063.14,-69.3079 1007.1331,-53.7711 963.0451,-41.5408"/>
<polygon fill="#191970" stroke="#191970" points="1107.7137,-85.3052 1118.2854,-84.6058 1109.5849,-78.5599 1107.7137,-85.3052"/>
</g>
<!-- Node64 -->
<g id="node7" class="node">
<title>Node64</title>
<g id="a_node7"><a xlink:href="../../d6/dc0/LadderSegmentation_8cxx.html" target="_top" xlink:title="Description of the virtual segmentation of a ladder. ">
<polygon fill="none" stroke="#000000" points="997.5,-.5 997.5,-41.5 1188.5,-41.5 1188.5,-.5 997.5,-.5"/>
<text text-anchor="start" x="1005.5" y="-29.5" font-family="Helvetica,sans-Serif" font-size="10.00" fill="#000000">/home/runner/work/AliceO2</text>
<text text-anchor="start" x="1005.5" y="-18.5" font-family="Helvetica,sans-Serif" font-size="10.00" fill="#000000">/AliceO2/Detectors/ITSMFT</text>
<text text-anchor="middle" x="1093" y="-7.5" font-family="Helvetica,sans-Serif" font-size="10.00" fill="#000000">/MFT/base/src/LadderSegmentation.cxx</text>
</a>
</g>
</g>
<!-- Node58&#45;&gt;Node64 -->
<g id="edge6" class="edge">
<title>Node58&#45;&gt;Node64</title>
<path fill="none" stroke="#191970" d="M1151.9585,-71.753C1140.1298,-61.5705 1127.4296,-50.6378 1116.857,-41.5367"/>
<polygon fill="#191970" stroke="#191970" points="1149.7125,-74.4377 1159.5747,-78.3092 1154.2794,-69.1326 1149.7125,-74.4377"/>
</g>
<!-- Node65 -->
<g id="node8" class="node">
<title>Node65</title>
<g id="a_node8"><a xlink:href="../../d0/d6b/ITSMFT_2MFT_2simulation_2src_2Detector_8cxx.html" target="_top" xlink:title="/home/runner/work/AliceO2\l/AliceO2/Detectors/ITSMFT\l/MFT/simulation/src/Detector.cxx">
<polygon fill="none" stroke="#000000" points="1206.5,-.5 1206.5,-41.5 1369.5,-41.5 1369.5,-.5 1206.5,-.5"/>
<text text-anchor="start" x="1214.5" y="-29.5" font-family="Helvetica,sans-Serif" font-size="10.00" fill="#000000">/home/runner/work/AliceO2</text>
<text text-anchor="start" x="1214.5" y="-18.5" font-family="Helvetica,sans-Serif" font-size="10.00" fill="#000000">/AliceO2/Detectors/ITSMFT</text>
<text text-anchor="middle" x="1288" y="-7.5" font-family="Helvetica,sans-Serif" font-size="10.00" fill="#000000">/MFT/simulation/src/Detector.cxx</text>
</a>
</g>
</g>
<!-- Node58&#45;&gt;Node65 -->
<g id="edge7" class="edge">
<title>Node58&#45;&gt;Node65</title>
<path fill="none" stroke="#191970" d="M1228.4337,-71.753C1240.3844,-61.5705 1253.2155,-50.6378 1263.8971,-41.5367"/>
<polygon fill="#191970" stroke="#191970" points="1226.0807,-69.1595 1220.7389,-78.3092 1230.6206,-74.4878 1226.0807,-69.1595"/>
</g>
<!-- Node66 -->
<g id="node9" class="node">
<title>Node66</title>
<g id="a_node9"><a xlink:href="../../d6/d87/ITSMFT_2MFT_2simulation_2src_2DigitizerTask_8cxx.html" target="_top" xlink:title="/home/runner/work/AliceO2\l/AliceO2/Detectors/ITSMFT\l/MFT/simulation/src/DigitizerTask.cxx">
<polygon fill="none" stroke="#000000" points="1387.5,-.5 1387.5,-41.5 1570.5,-41.5 1570.5,-.5 1387.5,-.5"/>
<text text-anchor="start" x="1395.5" y="-29.5" font-family="Helvetica,sans-Serif" font-size="10.00" fill="#000000">/home/runner/work/AliceO2</text>
<text text-anchor="start" x="1395.5" y="-18.5" font-family="Helvetica,sans-Serif" font-size="10.00" fill="#000000">/AliceO2/Detectors/ITSMFT</text>
<text text-anchor="middle" x="1479" y="-7.5" font-family="Helvetica,sans-Serif" font-size="10.00" fill="#000000">/MFT/simulation/src/DigitizerTask.cxx</text>
</a>
</g>
</g>
<!-- Node58&#45;&gt;Node66 -->
<g id="edge8" class="edge">
<title>Node58&#45;&gt;Node66</title>
<path fill="none" stroke="#191970" d="M1271.6538,-80.908C1314.5352,-68.5184 1366.5872,-53.4791 1407.8106,-41.5686"/>
<polygon fill="#191970" stroke="#191970" points="1270.445,-77.614 1261.8095,-83.7523 1272.3881,-84.3389 1270.445,-77.614"/>
</g>
<!-- Node67 -->
<g id="node10" class="node">
<title>Node67</title>
<g id="a_node10"><a xlink:href="../../dd/d79/MFT_2tracking_2src_2IOUtils_8cxx.html" target="_top" xlink:title="/home/runner/work/AliceO2\l/AliceO2/Detectors/ITSMFT\l/MFT/tracking/src/IOUtils.cxx">
<polygon fill="none" stroke="#000000" points="1589,-.5 1589,-41.5 1735,-41.5 1735,-.5 1589,-.5"/>
<text text-anchor="start" x="1597" y="-29.5" font-family="Helvetica,sans-Serif" font-size="10.00" fill="#000000">/home/runner/work/AliceO2</text>
<text text-anchor="start" x="1597" y="-18.5" font-family="Helvetica,sans-Serif" font-size="10.00" fill="#000000">/AliceO2/Detectors/ITSMFT</text>
<text text-anchor="middle" x="1662" y="-7.5" font-family="Helvetica,sans-Serif" font-size="10.00" fill="#000000">/MFT/tracking/src/IOUtils.cxx</text>
</a>
</g>
</g>
<!-- Node58&#45;&gt;Node67 -->
<g id="edge9" class="edge">
<title>Node58&#45;&gt;Node67</title>
<path fill="none" stroke="#191970" d="M1271.4357,-93.6706C1350.6105,-82.6197 1474.0861,-64.0004 1580,-42 1582.8777,-41.4022 1585.8062,-40.7697 1588.7601,-40.1115"/>
<polygon fill="#191970" stroke="#191970" points="1270.9484,-90.2046 1261.5248,-95.0467 1271.9112,-97.1381 1270.9484,-90.2046"/>
</g>
<!-- Node68 -->
<g id="node11" class="node">
<title>Node68</title>
<g id="a_node11"><a xlink:href="../../d4/d8b/ITSMFT_2MFT_2workflow_2src_2ClustererSpec_8cxx.html" target="_top" xlink:title="/home/runner/work/AliceO2\l/AliceO2/Detectors/ITSMFT\l/MFT/workflow/src/ClustererSpec.cxx">
<polygon fill="none" stroke="#000000" points="1753,-.5 1753,-41.5 1935,-41.5 1935,-.5 1753,-.5"/>
<text text-anchor="start" x="1761" y="-29.5" font-family="Helvetica,sans-Serif" font-size="10.00" fill="#000000">/home/runner/work/AliceO2</text>
<text text-anchor="start" x="1761" y="-18.5" font-family="Helvetica,sans-Serif" font-size="10.00" fill="#000000">/AliceO2/Detectors/ITSMFT</text>
<text text-anchor="middle" x="1844" y="-7.5" font-family="Helvetica,sans-Serif" font-size="10.00" fill="#000000">/MFT/workflow/src/ClustererSpec.cxx</text>
</a>
</g>
</g>
<!-- Node58&#45;&gt;Node68 -->
<g id="edge10" class="edge">
<title>Node58&#45;&gt;Node68</title>
<path fill="none" stroke="#191970" d="M1271.7764,-97.7139C1380.1547,-88.1635 1577.1366,-68.8712 1744,-42 1746.8898,-41.5346 1749.8226,-41.042 1752.7807,-40.5276"/>
<polygon fill="#191970" stroke="#191970" points="1271.2253,-94.2486 1261.5687,-98.6076 1271.8359,-101.222 1271.2253,-94.2486"/>
</g>
<!-- Node69 -->
<g id="node12" class="node">
<title>Node69</title>
<g id="a_node12"><a xlink:href="../../d1/dd0/ITSMFT_2MFT_2workflow_2src_2TrackerSpec_8cxx.html" target="_top" xlink:title="/home/runner/work/AliceO2\l/AliceO2/Detectors/ITSMFT\l/MFT/workflow/src/TrackerSpec.cxx">
<polygon fill="none" stroke="#000000" points="1953,-.5 1953,-41.5 2129,-41.5 2129,-.5 1953,-.5"/>
<text text-anchor="start" x="1961" y="-29.5" font-family="Helvetica,sans-Serif" font-size="10.00" fill="#000000">/home/runner/work/AliceO2</text>
<text text-anchor="start" x="1961" y="-18.5" font-family="Helvetica,sans-Serif" font-size="10.00" fill="#000000">/AliceO2/Detectors/ITSMFT</text>
<text text-anchor="middle" x="2041" y="-7.5" font-family="Helvetica,sans-Serif" font-size="10.00" fill="#000000">/MFT/workflow/src/TrackerSpec.cxx</text>
</a>
</g>
</g>
<!-- Node58&#45;&gt;Node69 -->
<g id="edge11" class="edge">
<title>Node58&#45;&gt;Node69</title>
<path fill="none" stroke="#191970" d="M1271.6997,-101.2247C1410.5021,-94.8802 1700.9667,-78.2223 1944,-42 1946.8972,-41.5682 1949.8373,-41.1011 1952.8019,-40.6054"/>
<polygon fill="#191970" stroke="#191970" points="1271.3993,-97.7346 1261.5672,-101.6818 1271.7148,-104.7275 1271.3993,-97.7346"/>
</g>
<!-- Node70 -->
<g id="node13" class="node">
<title>Node70</title>
<g id="a_node13"><a xlink:href="../../d3/d43/ITSMFTDigitizerSpec_8cxx.html" target="_top" xlink:title="/home/runner/work/AliceO2\l/AliceO2/Steer/DigitizerWorkflow\l/src/ITSMFTDigitizerSpec.cxx">
<polygon fill="none" stroke="#000000" points="2147.5,-.5 2147.5,-41.5 2308.5,-41.5 2308.5,-.5 2147.5,-.5"/>
<text text-anchor="start" x="2155.5" y="-29.5" font-family="Helvetica,sans-Serif" font-size="10.00" fill="#000000">/home/runner/work/AliceO2</text>
<text text-anchor="start" x="2155.5" y="-18.5" font-family="Helvetica,sans-Serif" font-size="10.00" fill="#000000">/AliceO2/Steer/DigitizerWorkflow</text>
<text text-anchor="middle" x="2228" y="-7.5" font-family="Helvetica,sans-Serif" font-size="10.00" fill="#000000">/src/ITSMFTDigitizerSpec.cxx</text>
</a>
</g>
</g>
<!-- Node58&#45;&gt;Node70 -->
<g id="edge12" class="edge">
<title>Node58&#45;&gt;Node70</title>
<path fill="none" stroke="#191970" d="M1271.8407,-103.5951C1436.6609,-100.7855 1819.992,-89.2599 2138,-42 2141.0154,-41.5519 2144.0789,-41.0546 2147.1669,-40.5179"/>
<polygon fill="#191970" stroke="#191970" points="1271.7192,-100.0965 1261.7781,-103.7603 1271.8342,-107.0956 1271.7192,-100.0965"/>
</g>
</g>
</svg>
