<?xml version="1.0" encoding="UTF-8" standalone="no"?>
<!DOCTYPE svg PUBLIC "-//W3C//DTD SVG 1.1//EN"
 "http://www.w3.org/Graphics/SVG/1.1/DTD/svg11.dtd">
<!-- Generated by graphviz version 2.40.1 (20161225.0304)
 -->
<!-- Title: /home/runner/work/AliceO2/AliceO2/Analysis/DataModel/include/Analysis/Centrality.h Pages: 1 -->
<svg width="3172pt" height="206pt"
 viewBox="0.00 0.00 3171.50 206.00" xmlns="http://www.w3.org/2000/svg" xmlns:xlink="http://www.w3.org/1999/xlink">
<g id="graph0" class="graph" transform="scale(1 1) rotate(0) translate(4 202)">
<title>/home/runner/work/AliceO2/AliceO2/Analysis/DataModel/include/Analysis/Centrality.h</title>
<!-- Node67 -->
<g id="node1" class="node">
<title>Node67</title>
<polygon fill="#bfbfbf" stroke="#000000" points="1323,-156.5 1323,-197.5 1468,-197.5 1468,-156.5 1323,-156.5"/>
<text text-anchor="start" x="1331" y="-185.5" font-family="Helvetica,sans-Serif" font-size="10.00" fill="#000000">/home/runner/work/AliceO2</text>
<text text-anchor="start" x="1331" y="-174.5" font-family="Helvetica,sans-Serif" font-size="10.00" fill="#000000">/AliceO2/Analysis/DataModel</text>
<text text-anchor="middle" x="1395.5" y="-163.5" font-family="Helvetica,sans-Serif" font-size="10.00" fill="#000000">/include/Analysis/Centrality.h</text>
</g>
<!-- Node68 -->
<g id="node2" class="node">
<title>Node68</title>
<g id="a_node2"><a xlink:href="../../d8/d9f/CFDerived_8h.html" target="_top" xlink:title="/home/runner/work/AliceO2\l/AliceO2/Analysis/DataModel\l/include/Analysis/CFDerived.h">
<polygon fill="none" stroke="#000000" points="172,-78.5 172,-119.5 321,-119.5 321,-78.5 172,-78.5"/>
<text text-anchor="start" x="180" y="-107.5" font-family="Helvetica,sans-Serif" font-size="10.00" fill="#000000">/home/runner/work/AliceO2</text>
<text text-anchor="start" x="180" y="-96.5" font-family="Helvetica,sans-Serif" font-size="10.00" fill="#000000">/AliceO2/Analysis/DataModel</text>
<text text-anchor="middle" x="246.5" y="-85.5" font-family="Helvetica,sans-Serif" font-size="10.00" fill="#000000">/include/Analysis/CFDerived.h</text>
</a>
</g>
</g>
<!-- Node67&#45;&gt;Node68 -->
<g id="edge1" class="edge">
<title>Node67&#45;&gt;Node68</title>
<path fill="none" stroke="#191970" d="M1312.6905,-173.5175C1146.2944,-166.2029 759.5589,-147.6054 435.5,-120 397.8349,-116.7914 356.0536,-112.2521 321.373,-108.2142"/>
<polygon fill="#191970" stroke="#191970" points="1312.7063,-177.0214 1322.8498,-173.962 1313.0124,-170.0281 1312.7063,-177.0214"/>
</g>
<!-- Node69 -->
<g id="node3" class="node">
<title>Node69</title>
<g id="a_node3"><a xlink:href="../../d8/dc5/correlationsFiltered_8cxx.html" target="_top" xlink:title="/home/runner/work/AliceO2\l/AliceO2/Analysis/Tasks\l/PWGCF/correlationsFiltered.cxx">
<polygon fill="none" stroke="#000000" points="0,-.5 0,-41.5 161,-41.5 161,-.5 0,-.5"/>
<text text-anchor="start" x="8" y="-29.5" font-family="Helvetica,sans-Serif" font-size="10.00" fill="#000000">/home/runner/work/AliceO2</text>
<text text-anchor="start" x="8" y="-18.5" font-family="Helvetica,sans-Serif" font-size="10.00" fill="#000000">/AliceO2/Analysis/Tasks</text>
<text text-anchor="middle" x="80.5" y="-7.5" font-family="Helvetica,sans-Serif" font-size="10.00" fill="#000000">/PWGCF/correlationsFiltered.cxx</text>
</a>
</g>
</g>
<!-- Node67&#45;&gt;Node69 -->
<g id="edge16" class="edge">
<title>Node67&#45;&gt;Node69</title>
<path fill="none" stroke="#191970" d="M1312.8213,-175.0127C1044.7489,-168.3296 213.9154,-145.6417 162.5,-120 128.7478,-103.1672 103.8229,-65.4141 90.78,-41.6979"/>
<polygon fill="#191970" stroke="#191970" points="1312.7965,-178.5131 1322.8804,-175.2626 1312.9704,-171.5153 1312.7965,-178.5131"/>
</g>
<!-- Node70 -->
<g id="node4" class="node">
<title>Node70</title>
<g id="a_node4"><a xlink:href="../../d9/d63/filterCF_8cxx.html" target="_top" xlink:title="/home/runner/work/AliceO2\l/AliceO2/Analysis/Tasks\l/PWGCF/filterCF.cxx">
<polygon fill="none" stroke="#000000" points="179,-.5 179,-41.5 314,-41.5 314,-.5 179,-.5"/>
<text text-anchor="start" x="187" y="-29.5" font-family="Helvetica,sans-Serif" font-size="10.00" fill="#000000">/home/runner/work/AliceO2</text>
<text text-anchor="start" x="187" y="-18.5" font-family="Helvetica,sans-Serif" font-size="10.00" fill="#000000">/AliceO2/Analysis/Tasks</text>
<text text-anchor="middle" x="246.5" y="-7.5" font-family="Helvetica,sans-Serif" font-size="10.00" fill="#000000">/PWGCF/filterCF.cxx</text>
</a>
</g>
</g>
<!-- Node67&#45;&gt;Node70 -->
<g id="edge19" class="edge">
<title>Node67&#45;&gt;Node70</title>
<path fill="none" stroke="#191970" d="M1312.6873,-174.2388C1127.5813,-167.6208 685.0761,-149.201 538.5,-120 449.911,-102.3512 351.2349,-64.9526 294.2637,-41.5103"/>
<polygon fill="#191970" stroke="#191970" points="1312.7882,-177.7445 1322.9061,-174.6014 1313.0366,-170.7489 1312.7882,-177.7445"/>
</g>
<!-- Node71 -->
<g id="node5" class="node">
<title>Node71</title>
<g id="a_node5"><a xlink:href="../../d4/dbd/ReducedInfoTables_8h.html" target="_top" xlink:title="/home/runner/work/AliceO2\l/AliceO2/Analysis/DataModel\l/include/Analysis/ReducedInfoTables.h">
<polygon fill="none" stroke="#000000" points="693,-78.5 693,-119.5 880,-119.5 880,-78.5 693,-78.5"/>
<text text-anchor="start" x="701" y="-107.5" font-family="Helvetica,sans-Serif" font-size="10.00" fill="#000000">/home/runner/work/AliceO2</text>
<text text-anchor="start" x="701" y="-96.5" font-family="Helvetica,sans-Serif" font-size="10.00" fill="#000000">/AliceO2/Analysis/DataModel</text>
<text text-anchor="middle" x="786.5" y="-85.5" font-family="Helvetica,sans-Serif" font-size="10.00" fill="#000000">/include/Analysis/ReducedInfoTables.h</text>
</a>
</g>
</g>
<!-- Node67&#45;&gt;Node71 -->
<g id="edge4" class="edge">
<title>Node67&#45;&gt;Node71</title>
<path fill="none" stroke="#191970" d="M1312.92,-169.6855C1213.2132,-160.3789 1040.5765,-142.7447 893.5,-120 889.1035,-119.3201 884.6126,-118.5881 880.0815,-117.8192"/>
<polygon fill="#191970" stroke="#191970" points="1312.6501,-173.1754 1322.9308,-170.6148 1313.2971,-166.2054 1312.6501,-173.1754"/>
</g>
<!-- Node74 -->
<g id="node8" class="node">
<title>Node74</title>
<g id="a_node8"><a xlink:href="../../d9/d5b/filterPP_8cxx.html" target="_top" xlink:title="/home/runner/work/AliceO2\l/AliceO2/Analysis/Tasks\l/PWGDQ/filterPP.cxx">
<polygon fill="none" stroke="#000000" points="332,-.5 332,-41.5 467,-41.5 467,-.5 332,-.5"/>
<text text-anchor="start" x="340" y="-29.5" font-family="Helvetica,sans-Serif" font-size="10.00" fill="#000000">/home/runner/work/AliceO2</text>
<text text-anchor="start" x="340" y="-18.5" font-family="Helvetica,sans-Serif" font-size="10.00" fill="#000000">/AliceO2/Analysis/Tasks</text>
<text text-anchor="middle" x="399.5" y="-7.5" font-family="Helvetica,sans-Serif" font-size="10.00" fill="#000000">/PWGDQ/filterPP.cxx</text>
</a>
</g>
</g>
<!-- Node67&#45;&gt;Node74 -->
<g id="edge20" class="edge">
<title>Node67&#45;&gt;Node74</title>
<path fill="none" stroke="#191970" d="M1312.6545,-173.0292C1151.5635,-164.8696 801.5678,-144.8757 683.5,-120 597.6626,-101.9149 502.1782,-64.9308 446.6756,-41.6412"/>
<polygon fill="#191970" stroke="#191970" points="1312.8243,-176.5421 1322.9876,-173.5495 1313.1763,-169.551 1312.8243,-176.5421"/>
</g>
<!-- Node75 -->
<g id="node9" class="node">
<title>Node75</title>
<g id="a_node9"><a xlink:href="../../d9/d14/tableMaker_8cxx.html" target="_top" xlink:title="/home/runner/work/AliceO2\l/AliceO2/Analysis/Tasks\l/PWGDQ/tableMaker.cxx">
<polygon fill="none" stroke="#000000" points="950,-.5 950,-41.5 1085,-41.5 1085,-.5 950,-.5"/>
<text text-anchor="start" x="958" y="-29.5" font-family="Helvetica,sans-Serif" font-size="10.00" fill="#000000">/home/runner/work/AliceO2</text>
<text text-anchor="start" x="958" y="-18.5" font-family="Helvetica,sans-Serif" font-size="10.00" fill="#000000">/AliceO2/Analysis/Tasks</text>
<text text-anchor="middle" x="1017.5" y="-7.5" font-family="Helvetica,sans-Serif" font-size="10.00" fill="#000000">/PWGDQ/tableMaker.cxx</text>
</a>
</g>
</g>
<!-- Node67&#45;&gt;Node75 -->
<g id="edge21" class="edge">
<title>Node67&#45;&gt;Node75</title>
<path fill="none" stroke="#191970" d="M1312.7962,-172.3316C1189.7391,-164.5298 970.2786,-146.9881 946.5,-120 934.1598,-105.9942 938.4282,-94.8313 946.5,-78 953.6087,-63.1769 966.6593,-50.9904 979.6509,-41.7446"/>
<polygon fill="#191970" stroke="#191970" points="1312.7403,-175.8349 1322.9395,-172.9665 1313.1777,-168.8485 1312.7403,-175.8349"/>
</g>
<!-- Node76 -->
<g id="node10" class="node">
<title>Node76</title>
<g id="a_node10"><a xlink:href="../../d8/d04/tableMaker__pp_8cxx.html" target="_top" xlink:title="/home/runner/work/AliceO2\l/AliceO2/Analysis/Tasks\l/PWGDQ/tableMaker_pp.cxx">
<polygon fill="none" stroke="#000000" points="1103.5,-.5 1103.5,-41.5 1247.5,-41.5 1247.5,-.5 1103.5,-.5"/>
<text text-anchor="start" x="1111.5" y="-29.5" font-family="Helvetica,sans-Serif" font-size="10.00" fill="#000000">/home/runner/work/AliceO2</text>
<text text-anchor="start" x="1111.5" y="-18.5" font-family="Helvetica,sans-Serif" font-size="10.00" fill="#000000">/AliceO2/Analysis/Tasks</text>
<text text-anchor="middle" x="1175.5" y="-7.5" font-family="Helvetica,sans-Serif" font-size="10.00" fill="#000000">/PWGDQ/tableMaker_pp.cxx</text>
</a>
</g>
</g>
<!-- Node67&#45;&gt;Node76 -->
<g id="edge22" class="edge">
<title>Node67&#45;&gt;Node76</title>
<path fill="none" stroke="#191970" d="M1312.4272,-171.9691C1192.4307,-163.8432 982.3763,-146.0617 959.5,-120 947.1859,-105.9712 948.1084,-92.7877 959.5,-78 960.0788,-77.2487 1040.6739,-56.1138 1103.2365,-39.7983"/>
<polygon fill="#191970" stroke="#191970" points="1312.4716,-175.4798 1322.6829,-172.655 1312.9388,-168.4954 1312.4716,-175.4798"/>
</g>
<!-- Node77 -->
<g id="node11" class="node">
<title>Node77</title>
<g id="a_node11"><a xlink:href="../../dc/d1a/tableMakerMuon__pp_8cxx.html" target="_top" xlink:title="/home/runner/work/AliceO2\l/AliceO2/Analysis/Tasks\l/PWGDQ/tableMakerMuon_pp.cxx">
<polygon fill="none" stroke="#000000" points="1265.5,-.5 1265.5,-41.5 1433.5,-41.5 1433.5,-.5 1265.5,-.5"/>
<text text-anchor="start" x="1273.5" y="-29.5" font-family="Helvetica,sans-Serif" font-size="10.00" fill="#000000">/home/runner/work/AliceO2</text>
<text text-anchor="start" x="1273.5" y="-18.5" font-family="Helvetica,sans-Serif" font-size="10.00" fill="#000000">/AliceO2/Analysis/Tasks</text>
<text text-anchor="middle" x="1349.5" y="-7.5" font-family="Helvetica,sans-Serif" font-size="10.00" fill="#000000">/PWGDQ/tableMakerMuon_pp.cxx</text>
</a>
</g>
</g>
<!-- Node67&#45;&gt;Node77 -->
<g id="edge23" class="edge">
<title>Node67&#45;&gt;Node77</title>
<path fill="none" stroke="#191970" d="M1312.639,-170.6746C1203.6229,-161.4979 1023.4344,-143.0426 1003.5,-120 875.109,28.4103 831.1204,-120.1591 1256.5,-42 1259.4304,-41.4616 1262.4084,-40.895 1265.413,-40.307"/>
<polygon fill="#191970" stroke="#191970" points="1312.3778,-174.1649 1322.6338,-171.5068 1312.9587,-167.189 1312.3778,-174.1649"/>
</g>
<!-- Node79 -->
<g id="node13" class="node">
<title>Node79</title>
<g id="a_node13"><a xlink:href="../../d5/d51/aodDataModelGraph_8cxx.html" target="_top" xlink:title="/home/runner/work/AliceO2\l/AliceO2/Analysis/DataModel\l/src/aodDataModelGraph.cxx">
<polygon fill="none" stroke="#000000" points="1012,-78.5 1012,-119.5 1157,-119.5 1157,-78.5 1012,-78.5"/>
<text text-anchor="start" x="1020" y="-107.5" font-family="Helvetica,sans-Serif" font-size="10.00" fill="#000000">/home/runner/work/AliceO2</text>
<text text-anchor="start" x="1020" y="-96.5" font-family="Helvetica,sans-Serif" font-size="10.00" fill="#000000">/AliceO2/Analysis/DataModel</text>
<text text-anchor="middle" x="1084.5" y="-85.5" font-family="Helvetica,sans-Serif" font-size="10.00" fill="#000000">/src/aodDataModelGraph.cxx</text>
</a>
</g>
</g>
<!-- Node67&#45;&gt;Node79 -->
<g id="edge12" class="edge">
<title>Node67&#45;&gt;Node79</title>
<path fill="none" stroke="#191970" d="M1312.7862,-156.5549C1269.2401,-145.7551 1214.9612,-132.2365 1166.5,-120 1163.5078,-119.2445 1160.4548,-118.4716 1157.371,-117.6893"/>
<polygon fill="#191970" stroke="#191970" points="1312.2106,-160.0181 1322.759,-159.0273 1313.895,-153.2238 1312.2106,-160.0181"/>
</g>
<!-- Node80 -->
<g id="node14" class="node">
<title>Node80</title>
<g id="a_node14"><a xlink:href="../../d5/d75/centralityQa_8cxx.html" target="_top" xlink:title="/home/runner/work/AliceO2\l/AliceO2/Analysis/Tasks\l/centralityQa.cxx">
<polygon fill="none" stroke="#000000" points="1175,-78.5 1175,-119.5 1310,-119.5 1310,-78.5 1175,-78.5"/>
<text text-anchor="start" x="1183" y="-107.5" font-family="Helvetica,sans-Serif" font-size="10.00" fill="#000000">/home/runner/work/AliceO2</text>
<text text-anchor="start" x="1183" y="-96.5" font-family="Helvetica,sans-Serif" font-size="10.00" fill="#000000">/AliceO2/Analysis/Tasks</text>
<text text-anchor="middle" x="1242.5" y="-85.5" font-family="Helvetica,sans-Serif" font-size="10.00" fill="#000000">/centralityQa.cxx</text>
</a>
</g>
</g>
<!-- Node67&#45;&gt;Node80 -->
<g id="edge13" class="edge">
<title>Node67&#45;&gt;Node80</title>
<path fill="none" stroke="#191970" d="M1345.7576,-151.6411C1325.3597,-141.2422 1302.0579,-129.3628 1282.7583,-119.5239"/>
<polygon fill="#191970" stroke="#191970" points="1344.4018,-154.8785 1354.9005,-156.3022 1347.5811,-148.6421 1344.4018,-154.8785"/>
</g>
<!-- Node81 -->
<g id="node15" class="node">
<title>Node81</title>
<g id="a_node15"><a xlink:href="../../de/d41/centralityTable_8cxx.html" target="_top" xlink:title="/home/runner/work/AliceO2\l/AliceO2/Analysis/Tasks\l/centralityTable.cxx">
<polygon fill="none" stroke="#000000" points="1328,-78.5 1328,-119.5 1463,-119.5 1463,-78.5 1328,-78.5"/>
<text text-anchor="start" x="1336" y="-107.5" font-family="Helvetica,sans-Serif" font-size="10.00" fill="#000000">/home/runner/work/AliceO2</text>
<text text-anchor="start" x="1336" y="-96.5" font-family="Helvetica,sans-Serif" font-size="10.00" fill="#000000">/AliceO2/Analysis/Tasks</text>
<text text-anchor="middle" x="1395.5" y="-85.5" font-family="Helvetica,sans-Serif" font-size="10.00" fill="#000000">/centralityTable.cxx</text>
</a>
</g>
</g>
<!-- Node67&#45;&gt;Node81 -->
<g id="edge14" class="edge">
<title>Node67&#45;&gt;Node81</title>
<path fill="none" stroke="#191970" d="M1395.5,-146.0789C1395.5,-137.2178 1395.5,-127.7747 1395.5,-119.6898"/>
<polygon fill="#191970" stroke="#191970" points="1392.0001,-146.0974 1395.5,-156.0974 1399.0001,-146.0975 1392.0001,-146.0974"/>
</g>
<!-- Node82 -->
<g id="node16" class="node">
<title>Node82</title>
<g id="a_node16"><a xlink:href="../../d9/d61/correlations_8cxx.html" target="_top" xlink:title="/home/runner/work/AliceO2\l/AliceO2/Analysis/Tasks\l/PWGCF/correlations.cxx">
<polygon fill="none" stroke="#000000" points="1481,-78.5 1481,-119.5 1616,-119.5 1616,-78.5 1481,-78.5"/>
<text text-anchor="start" x="1489" y="-107.5" font-family="Helvetica,sans-Serif" font-size="10.00" fill="#000000">/home/runner/work/AliceO2</text>
<text text-anchor="start" x="1489" y="-96.5" font-family="Helvetica,sans-Serif" font-size="10.00" fill="#000000">/AliceO2/Analysis/Tasks</text>
<text text-anchor="middle" x="1548.5" y="-85.5" font-family="Helvetica,sans-Serif" font-size="10.00" fill="#000000">/PWGCF/correlations.cxx</text>
</a>
</g>
</g>
<!-- Node67&#45;&gt;Node82 -->
<g id="edge15" class="edge">
<title>Node67&#45;&gt;Node82</title>
<path fill="none" stroke="#191970" d="M1445.2424,-151.6411C1465.6403,-141.2422 1488.9421,-129.3628 1508.2417,-119.5239"/>
<polygon fill="#191970" stroke="#191970" points="1443.4189,-148.6421 1436.0995,-156.3022 1446.5982,-154.8785 1443.4189,-148.6421"/>
</g>
<!-- Node83 -->
<g id="node17" class="node">
<title>Node83</title>
<g id="a_node17"><a xlink:href="../../d4/d39/correlationsMixed_8cxx.html" target="_top" xlink:title="/home/runner/work/AliceO2\l/AliceO2/Analysis/Tasks\l/PWGCF/correlationsMixed.cxx">
<polygon fill="none" stroke="#000000" points="1634,-78.5 1634,-119.5 1789,-119.5 1789,-78.5 1634,-78.5"/>
<text text-anchor="start" x="1642" y="-107.5" font-family="Helvetica,sans-Serif" font-size="10.00" fill="#000000">/home/runner/work/AliceO2</text>
<text text-anchor="start" x="1642" y="-96.5" font-family="Helvetica,sans-Serif" font-size="10.00" fill="#000000">/AliceO2/Analysis/Tasks</text>
<text text-anchor="middle" x="1711.5" y="-85.5" font-family="Helvetica,sans-Serif" font-size="10.00" fill="#000000">/PWGCF/correlationsMixed.cxx</text>
</a>
</g>
</g>
<!-- Node67&#45;&gt;Node83 -->
<g id="edge17" class="edge">
<title>Node67&#45;&gt;Node83</title>
<path fill="none" stroke="#191970" d="M1478.1518,-156.5986C1526.2439,-144.7278 1586.4968,-129.8552 1633.7293,-118.1966"/>
<polygon fill="#191970" stroke="#191970" points="1477.2634,-153.2128 1468.3936,-159.0073 1478.9409,-160.0088 1477.2634,-153.2128"/>
</g>
<!-- Node84 -->
<g id="node18" class="node">
<title>Node84</title>
<g id="a_node18"><a xlink:href="../../dc/db0/dptdptcorrelations_8cxx.html" target="_top" xlink:title="/home/runner/work/AliceO2\l/AliceO2/Analysis/Tasks\l/PWGCF/dptdptcorrelations.cxx">
<polygon fill="none" stroke="#000000" points="1807.5,-78.5 1807.5,-119.5 1963.5,-119.5 1963.5,-78.5 1807.5,-78.5"/>
<text text-anchor="start" x="1815.5" y="-107.5" font-family="Helvetica,sans-Serif" font-size="10.00" fill="#000000">/home/runner/work/AliceO2</text>
<text text-anchor="start" x="1815.5" y="-96.5" font-family="Helvetica,sans-Serif" font-size="10.00" fill="#000000">/AliceO2/Analysis/Tasks</text>
<text text-anchor="middle" x="1885.5" y="-85.5" font-family="Helvetica,sans-Serif" font-size="10.00" fill="#000000">/PWGCF/dptdptcorrelations.cxx</text>
</a>
</g>
</g>
<!-- Node67&#45;&gt;Node84 -->
<g id="edge18" class="edge">
<title>Node67&#45;&gt;Node84</title>
<path fill="none" stroke="#191970" d="M1478.2634,-167.6597C1560.0023,-157.8796 1688.3962,-141.0242 1798.5,-120 1801.3998,-119.4463 1804.3484,-118.8591 1807.3226,-118.2464"/>
<polygon fill="#191970" stroke="#191970" points="1477.8006,-164.19 1468.2839,-168.8463 1478.6272,-171.141 1477.8006,-164.19"/>
</g>
<!-- Node85 -->
<g id="node19" class="node">
<title>Node85</title>
<g id="a_node19"><a xlink:href="../../d2/d15/cascadeconsumer_8cxx.html" target="_top" xlink:title="/home/runner/work/AliceO2\l/AliceO2/Analysis/Tasks\l/PWGLF/cascadeconsumer.cxx">
<polygon fill="none" stroke="#000000" points="1981.5,-78.5 1981.5,-119.5 2137.5,-119.5 2137.5,-78.5 1981.5,-78.5"/>
<text text-anchor="start" x="1989.5" y="-107.5" font-family="Helvetica,sans-Serif" font-size="10.00" fill="#000000">/home/runner/work/AliceO2</text>
<text text-anchor="start" x="1989.5" y="-96.5" font-family="Helvetica,sans-Serif" font-size="10.00" fill="#000000">/AliceO2/Analysis/Tasks</text>
<text text-anchor="middle" x="2059.5" y="-85.5" font-family="Helvetica,sans-Serif" font-size="10.00" fill="#000000">/PWGLF/cascadeconsumer.cxx</text>
</a>
</g>
</g>
<!-- Node67&#45;&gt;Node85 -->
<g id="edge24" class="edge">
<title>Node67&#45;&gt;Node85</title>
<path fill="none" stroke="#191970" d="M1478.6049,-172.4127C1591.1608,-165.3762 1798.0557,-149.5241 1972.5,-120 1975.4108,-119.5074 1978.3688,-118.9722 1981.3509,-118.4034"/>
<polygon fill="#191970" stroke="#191970" points="1478.1085,-168.9366 1468.3431,-173.0461 1478.5398,-175.9233 1478.1085,-168.9366"/>
</g>
<!-- Node86 -->
<g id="node20" class="node">
<title>Node86</title>
<g id="a_node20"><a xlink:href="../../d0/dd5/cascadefinder_8cxx.html" target="_top" xlink:title="/home/runner/work/AliceO2\l/AliceO2/Analysis/Tasks\l/PWGLF/cascadefinder.cxx">
<polygon fill="none" stroke="#000000" points="2156,-78.5 2156,-119.5 2293,-119.5 2293,-78.5 2156,-78.5"/>
<text text-anchor="start" x="2164" y="-107.5" font-family="Helvetica,sans-Serif" font-size="10.00" fill="#000000">/home/runner/work/AliceO2</text>
<text text-anchor="start" x="2164" y="-96.5" font-family="Helvetica,sans-Serif" font-size="10.00" fill="#000000">/AliceO2/Analysis/Tasks</text>
<text text-anchor="middle" x="2224.5" y="-85.5" font-family="Helvetica,sans-Serif" font-size="10.00" fill="#000000">/PWGLF/cascadefinder.cxx</text>
</a>
</g>
</g>
<!-- Node67&#45;&gt;Node86 -->
<g id="edge25" class="edge">
<title>Node67&#45;&gt;Node86</title>
<path fill="none" stroke="#191970" d="M1478.1708,-175.771C1617.1532,-172.5815 1906.0237,-161.1245 2146.5,-120 2149.5411,-119.4799 2152.6356,-118.8942 2155.7518,-118.2578"/>
<polygon fill="#191970" stroke="#191970" points="1477.9416,-172.2751 1468.0214,-175.9953 1478.0963,-179.2734 1477.9416,-172.2751"/>
</g>
<!-- Node87 -->
<g id="node21" class="node">
<title>Node87</title>
<g id="a_node21"><a xlink:href="../../d4/d77/lambdakzeroconsumer_8cxx.html" target="_top" xlink:title="/home/runner/work/AliceO2\l/AliceO2/Analysis/Tasks\l/PWGLF/lambdakzeroconsumer.cxx">
<polygon fill="none" stroke="#000000" points="2311,-78.5 2311,-119.5 2486,-119.5 2486,-78.5 2311,-78.5"/>
<text text-anchor="start" x="2319" y="-107.5" font-family="Helvetica,sans-Serif" font-size="10.00" fill="#000000">/home/runner/work/AliceO2</text>
<text text-anchor="start" x="2319" y="-96.5" font-family="Helvetica,sans-Serif" font-size="10.00" fill="#000000">/AliceO2/Analysis/Tasks</text>
<text text-anchor="middle" x="2398.5" y="-85.5" font-family="Helvetica,sans-Serif" font-size="10.00" fill="#000000">/PWGLF/lambdakzeroconsumer.cxx</text>
</a>
</g>
</g>
<!-- Node67&#45;&gt;Node87 -->
<g id="edge26" class="edge">
<title>Node67&#45;&gt;Node87</title>
<path fill="none" stroke="#191970" d="M1478.4326,-176.0122C1638.5103,-173.1732 2000.9129,-162.2111 2302.5,-120 2305.2879,-119.6098 2308.1151,-119.1827 2310.9652,-118.725"/>
<polygon fill="#191970" stroke="#191970" points="1478.1225,-172.5169 1468.1839,-176.1877 1478.2424,-179.5158 1478.1225,-172.5169"/>
</g>
<!-- Node88 -->
<g id="node22" class="node">
<title>Node88</title>
<g id="a_node22"><a xlink:href="../../d5/d6e/lambdakzerofinder_8cxx.html" target="_top" xlink:title="/home/runner/work/AliceO2\l/AliceO2/Analysis/Tasks\l/PWGLF/lambdakzerofinder.cxx">
<polygon fill="none" stroke="#000000" points="2504.5,-78.5 2504.5,-119.5 2660.5,-119.5 2660.5,-78.5 2504.5,-78.5"/>
<text text-anchor="start" x="2512.5" y="-107.5" font-family="Helvetica,sans-Serif" font-size="10.00" fill="#000000">/home/runner/work/AliceO2</text>
<text text-anchor="start" x="2512.5" y="-96.5" font-family="Helvetica,sans-Serif" font-size="10.00" fill="#000000">/AliceO2/Analysis/Tasks</text>
<text text-anchor="middle" x="2582.5" y="-85.5" font-family="Helvetica,sans-Serif" font-size="10.00" fill="#000000">/PWGLF/lambdakzerofinder.cxx</text>
</a>
</g>
</g>
<!-- Node67&#45;&gt;Node88 -->
<g id="edge27" class="edge">
<title>Node67&#45;&gt;Node88</title>
<path fill="none" stroke="#191970" d="M1478.3744,-174.6943C1699.3828,-168.2275 2299.3199,-148.509 2495.5,-120 2498.4215,-119.5754 2501.3886,-119.0982 2504.3784,-118.5785"/>
<polygon fill="#191970" stroke="#191970" points="1478.0336,-171.2026 1468.1397,-174.9922 1478.2374,-178.1997 1478.0336,-171.2026"/>
</g>
<!-- Node89 -->
<g id="node23" class="node">
<title>Node89</title>
<g id="a_node23"><a xlink:href="../../df/dc5/raacharged_8cxx.html" target="_top" xlink:title="/home/runner/work/AliceO2\l/AliceO2/Analysis/Tasks\l/PWGLF/raacharged.cxx">
<polygon fill="none" stroke="#000000" points="2679,-78.5 2679,-119.5 2814,-119.5 2814,-78.5 2679,-78.5"/>
<text text-anchor="start" x="2687" y="-107.5" font-family="Helvetica,sans-Serif" font-size="10.00" fill="#000000">/home/runner/work/AliceO2</text>
<text text-anchor="start" x="2687" y="-96.5" font-family="Helvetica,sans-Serif" font-size="10.00" fill="#000000">/AliceO2/Analysis/Tasks</text>
<text text-anchor="middle" x="2746.5" y="-85.5" font-family="Helvetica,sans-Serif" font-size="10.00" fill="#000000">/PWGLF/raacharged.cxx</text>
</a>
</g>
</g>
<!-- Node67&#45;&gt;Node89 -->
<g id="edge28" class="edge">
<title>Node67&#45;&gt;Node89</title>
<path fill="none" stroke="#191970" d="M1478.4711,-175.6866C1723.1036,-171.4342 2438.7718,-156.1659 2669.5,-120 2672.5116,-119.5279 2675.5743,-118.9819 2678.657,-118.3782"/>
<polygon fill="#191970" stroke="#191970" points="1478.1624,-172.1913 1468.2241,-175.863 1478.283,-179.1902 1478.1624,-172.1913"/>
</g>
<!-- Node90 -->
<g id="node24" class="node">
<title>Node90</title>
<g id="a_node24"><a xlink:href="../../dc/d19/dNdetaRun2Tracklets_8cxx.html" target="_top" xlink:title="/home/runner/work/AliceO2\l/AliceO2/Analysis/Tasks\l/PWGMM/dNdetaRun2Tracklets.cxx">
<polygon fill="none" stroke="#000000" points="2832,-78.5 2832,-119.5 3009,-119.5 3009,-78.5 2832,-78.5"/>
<text text-anchor="start" x="2840" y="-107.5" font-family="Helvetica,sans-Serif" font-size="10.00" fill="#000000">/home/runner/work/AliceO2</text>
<text text-anchor="start" x="2840" y="-96.5" font-family="Helvetica,sans-Serif" font-size="10.00" fill="#000000">/AliceO2/Analysis/Tasks</text>
<text text-anchor="middle" x="2920.5" y="-85.5" font-family="Helvetica,sans-Serif" font-size="10.00" fill="#000000">/PWGMM/dNdetaRun2Tracklets.cxx</text>
</a>
</g>
</g>
<!-- Node67&#45;&gt;Node90 -->
<g id="edge29" class="edge">
<title>Node67&#45;&gt;Node90</title>
<path fill="none" stroke="#191970" d="M1478.6965,-175.5742C1742.8725,-170.7482 2560.7287,-153.4323 2823.5,-120 2826.2348,-119.6521 2829.0067,-119.2656 2831.8003,-118.8467"/>
<polygon fill="#191970" stroke="#191970" points="1478.3425,-172.0799 1468.4077,-175.7609 1478.4696,-179.0788 1478.3425,-172.0799"/>
</g>
<!-- Node91 -->
<g id="node25" class="node">
<title>Node91</title>
<g id="a_node25"><a xlink:href="../../d4/d5e/reducedEventAnalysis_8cxx.html" target="_top" xlink:title="/home/runner/work/AliceO2\l/AliceO2/Analysis/Tasks\l/reducedEventAnalysis.cxx">
<polygon fill="none" stroke="#000000" points="3027.5,-78.5 3027.5,-119.5 3163.5,-119.5 3163.5,-78.5 3027.5,-78.5"/>
<text text-anchor="start" x="3035.5" y="-107.5" font-family="Helvetica,sans-Serif" font-size="10.00" fill="#000000">/home/runner/work/AliceO2</text>
<text text-anchor="start" x="3035.5" y="-96.5" font-family="Helvetica,sans-Serif" font-size="10.00" fill="#000000">/AliceO2/Analysis/Tasks</text>
<text text-anchor="middle" x="3095.5" y="-85.5" font-family="Helvetica,sans-Serif" font-size="10.00" fill="#000000">/reducedEventAnalysis.cxx</text>
</a>
</g>
</g>
<!-- Node67&#45;&gt;Node91 -->
<g id="edge30" class="edge">
<title>Node67&#45;&gt;Node91</title>
<path fill="none" stroke="#191970" d="M1478.6332,-176.6157C1766.1151,-174.8906 2716.9948,-165.7774 3018.5,-120 3021.3769,-119.5632 3024.2999,-119.0568 3027.2421,-118.495"/>
<polygon fill="#191970" stroke="#191970" points="1478.2609,-173.1177 1468.2816,-176.6763 1478.3019,-180.1176 1478.2609,-173.1177"/>
</g>
<!-- Node68&#45;&gt;Node69 -->
<g id="edge2" class="edge">
<title>Node68&#45;&gt;Node69</title>
<path fill="none" stroke="#191970" d="M193.1285,-73.9218C170.856,-63.4564 145.307,-51.4515 124.179,-41.5239"/>
<polygon fill="#191970" stroke="#191970" points="191.9117,-77.2172 202.4509,-78.3022 194.8887,-70.8817 191.9117,-77.2172"/>
</g>
<!-- Node68&#45;&gt;Node70 -->
<g id="edge3" class="edge">
<title>Node68&#45;&gt;Node70</title>
<path fill="none" stroke="#191970" d="M246.5,-68.0789C246.5,-59.2178 246.5,-49.7747 246.5,-41.6898"/>
<polygon fill="#191970" stroke="#191970" points="243.0001,-68.0974 246.5,-78.0974 250.0001,-68.0975 243.0001,-68.0974"/>
</g>
<!-- Node72 -->
<g id="node6" class="node">
<title>Node72</title>
<g id="a_node6"><a xlink:href="../../d4/d14/dileptonEE_8cxx.html" target="_top" xlink:title="/home/runner/work/AliceO2\l/AliceO2/Analysis/Tasks\l/PWGDQ/dileptonEE.cxx">
<polygon fill="none" stroke="#000000" points="485,-.5 485,-41.5 620,-41.5 620,-.5 485,-.5"/>
<text text-anchor="start" x="493" y="-29.5" font-family="Helvetica,sans-Serif" font-size="10.00" fill="#000000">/home/runner/work/AliceO2</text>
<text text-anchor="start" x="493" y="-18.5" font-family="Helvetica,sans-Serif" font-size="10.00" fill="#000000">/AliceO2/Analysis/Tasks</text>
<text text-anchor="middle" x="552.5" y="-7.5" font-family="Helvetica,sans-Serif" font-size="10.00" fill="#000000">/PWGDQ/dileptonEE.cxx</text>
</a>
</g>
</g>
<!-- Node71&#45;&gt;Node72 -->
<g id="edge5" class="edge">
<title>Node71&#45;&gt;Node72</title>
<path fill="none" stroke="#191970" d="M714.9154,-75.1385C682.7405,-64.4135 645.1415,-51.8805 614.227,-41.5757"/>
<polygon fill="#191970" stroke="#191970" points="714.1195,-78.5624 724.7132,-78.4044 716.3331,-71.9217 714.1195,-78.5624"/>
</g>
<!-- Node73 -->
<g id="node7" class="node">
<title>Node73</title>
<g id="a_node7"><a xlink:href="../../d7/deb/dileptonMuMu_8cxx.html" target="_top" xlink:title="/home/runner/work/AliceO2\l/AliceO2/Analysis/Tasks\l/PWGDQ/dileptonMuMu.cxx">
<polygon fill="none" stroke="#000000" points="638,-.5 638,-41.5 779,-41.5 779,-.5 638,-.5"/>
<text text-anchor="start" x="646" y="-29.5" font-family="Helvetica,sans-Serif" font-size="10.00" fill="#000000">/home/runner/work/AliceO2</text>
<text text-anchor="start" x="646" y="-18.5" font-family="Helvetica,sans-Serif" font-size="10.00" fill="#000000">/AliceO2/Analysis/Tasks</text>
<text text-anchor="middle" x="708.5" y="-7.5" font-family="Helvetica,sans-Serif" font-size="10.00" fill="#000000">/PWGDQ/dileptonMuMu.cxx</text>
</a>
</g>
</g>
<!-- Node71&#45;&gt;Node73 -->
<g id="edge6" class="edge">
<title>Node71&#45;&gt;Node73</title>
<path fill="none" stroke="#191970" d="M758.4452,-70.9452C748.7866,-61.2866 738.1535,-50.6535 729.1898,-41.6898"/>
<polygon fill="#191970" stroke="#191970" points="756.0515,-73.5012 765.5974,-78.0974 761.0012,-68.5515 756.0515,-73.5012"/>
</g>
<!-- Node71&#45;&gt;Node74 -->
<g id="edge7" class="edge">
<title>Node71&#45;&gt;Node74</title>
<path fill="none" stroke="#191970" d="M682.8667,-82.3647C622.1653,-72.0342 544.1742,-57.7488 475.5,-42 472.8315,-41.388 470.1161,-40.7435 467.3774,-40.0753"/>
<polygon fill="#191970" stroke="#191970" points="682.3953,-85.8346 692.8392,-84.0528 683.5636,-78.9328 682.3953,-85.8346"/>
</g>
<!-- Node71&#45;&gt;Node75 -->
<g id="edge8" class="edge">
<title>Node71&#45;&gt;Node75</title>
<path fill="none" stroke="#191970" d="M857.1669,-75.1385C888.9293,-64.4135 926.0462,-51.8805 956.5644,-41.5757"/>
<polygon fill="#191970" stroke="#191970" points="855.8494,-71.8891 847.4947,-78.4044 858.0889,-78.5212 855.8494,-71.8891"/>
</g>
<!-- Node71&#45;&gt;Node76 -->
<g id="edge9" class="edge">
<title>Node71&#45;&gt;Node76</title>
<path fill="none" stroke="#191970" d="M890.4064,-81.6554C950.2905,-71.1892 1026.8745,-57.0041 1094.5,-42 1097.3365,-41.3707 1100.2242,-40.7115 1103.1378,-40.031"/>
<polygon fill="#191970" stroke="#191970" points="889.4378,-78.2713 880.1859,-83.434 890.6379,-85.1677 889.4378,-78.2713"/>
</g>
<!-- Node71&#45;&gt;Node77 -->
<g id="edge10" class="edge">
<title>Node71&#45;&gt;Node77</title>
<path fill="none" stroke="#191970" d="M890.4194,-86.9635C1017.8582,-72.1143 1221.3601,-48.0821 1256.5,-42 1259.4358,-41.4919 1262.4185,-40.9514 1265.427,-40.3856"/>
<polygon fill="#191970" stroke="#191970" points="889.766,-83.5159 880.238,-88.1492 890.5758,-90.4689 889.766,-83.5159"/>
</g>
<!-- Node78 -->
<g id="node12" class="node">
<title>Node78</title>
<g id="a_node12"><a xlink:href="../../d8/d43/tableReader_8cxx.html" target="_top" xlink:title="/home/runner/work/AliceO2\l/AliceO2/Analysis/Tasks\l/PWGDQ/tableReader.cxx">
<polygon fill="none" stroke="#000000" points="797,-.5 797,-41.5 932,-41.5 932,-.5 797,-.5"/>
<text text-anchor="start" x="805" y="-29.5" font-family="Helvetica,sans-Serif" font-size="10.00" fill="#000000">/home/runner/work/AliceO2</text>
<text text-anchor="start" x="805" y="-18.5" font-family="Helvetica,sans-Serif" font-size="10.00" fill="#000000">/AliceO2/Analysis/Tasks</text>
<text text-anchor="middle" x="864.5" y="-7.5" font-family="Helvetica,sans-Serif" font-size="10.00" fill="#000000">/PWGDQ/tableReader.cxx</text>
</a>
</g>
</g>
<!-- Node71&#45;&gt;Node78 -->
<g id="edge11" class="edge">
<title>Node71&#45;&gt;Node78</title>
<path fill="none" stroke="#191970" d="M814.5548,-70.9452C824.2134,-61.2866 834.8465,-50.6535 843.8102,-41.6898"/>
<polygon fill="#191970" stroke="#191970" points="811.9988,-68.5515 807.4026,-78.0974 816.9485,-73.5012 811.9988,-68.5515"/>
</g>
</g>
</svg>
