<?xml version="1.0" encoding="UTF-8" standalone="no"?>
<!DOCTYPE svg PUBLIC "-//W3C//DTD SVG 1.1//EN"
 "http://www.w3.org/Graphics/SVG/1.1/DTD/svg11.dtd">
<!-- Generated by graphviz version 2.40.1 (20161225.0304)
 -->
<!-- Title: o2::tof::Compressor&lt; RDH, verbose &gt;::SpiderSummary_t Pages: 1 -->
<svg width="224pt" height="182pt"
 viewBox="0.00 0.00 224.00 182.00" xmlns="http://www.w3.org/2000/svg" xmlns:xlink="http://www.w3.org/1999/xlink">
<g id="graph0" class="graph" transform="scale(1 1) rotate(0) translate(4 178)">
<title>o2::tof::Compressor&lt; RDH, verbose &gt;::SpiderSummary_t</title>
<!-- Node1 -->
<g id="node1" class="node">
<title>Node1</title>
<polygon fill="#bfbfbf" stroke="#000000" points="0,-.5 0,-68.5 182,-68.5 182,-.5 0,-.5"/>
<text text-anchor="start" x="8" y="-56.5" font-family="Helvetica,sans-Serif" font-size="10.00" fill="#000000">o2::tof::Compressor</text>
<text text-anchor="middle" x="91" y="-45.5" font-family="Helvetica,sans-Serif" font-size="10.00" fill="#000000">&lt; RDH, verbose &gt;::SpiderSummary_t</text>
<polyline fill="none" stroke="#000000" points="0,-38.5 182,-38.5 "/>
<text text-anchor="middle" x="91" y="-26.5" font-family="Helvetica,sans-Serif" font-size="10.00" fill="#000000"> </text>
<polyline fill="none" stroke="#000000" points="0,-19.5 182,-19.5 "/>
<text text-anchor="middle" x="91" y="-7.5" font-family="Helvetica,sans-Serif" font-size="10.00" fill="#000000"> </text>
</g>
<!-- Node2 -->
<g id="node2" class="node">
<title>Node2</title>
<polygon fill="none" stroke="#bfbfbf" points="10,-116.5 10,-173.5 56,-173.5 56,-116.5 10,-116.5"/>
<text text-anchor="middle" x="33" y="-161.5" font-family="Helvetica,sans-Serif" font-size="10.00" fill="#000000">uint8_t</text>
<polyline fill="none" stroke="#bfbfbf" points="10,-154.5 56,-154.5 "/>
<text text-anchor="middle" x="33" y="-142.5" font-family="Helvetica,sans-Serif" font-size="10.00" fill="#000000"> </text>
<polyline fill="none" stroke="#bfbfbf" points="10,-135.5 56,-135.5 "/>
<text text-anchor="middle" x="33" y="-123.5" font-family="Helvetica,sans-Serif" font-size="10.00" fill="#000000"> </text>
</g>
<!-- Node2&#45;&gt;Node1 -->
<g id="edge1" class="edge">
<title>Node2&#45;&gt;Node1</title>
<path fill="none" stroke="#404040" d="M29.0545,-116.2811C28.8652,-106.6143 29.9589,-96.0043 34,-87 35.3479,-83.9966 36.9589,-81.0878 38.7703,-78.2828"/>
<polygon fill="none" stroke="#404040" points="38.8567,-78.1685 39.2854,-70.9701 46.0949,-68.5972 45.6663,-75.7956 38.8567,-78.1685"/>
<text text-anchor="middle" x="81" y="-90" font-family="Helvetica,sans-Serif" font-size="10.00" fill="#000000"> +nFramePackedHits</text>
</g>
<!-- Node3 -->
<g id="node3" class="node">
<title>Node3</title>
<g id="a_node3"><a xlink:href="../../d3/d87/classuint32__t.html" target="_top" xlink:title="{uint32_t\n||}">
<polygon fill="none" stroke="#000000" points="124.5,-116.5 124.5,-173.5 175.5,-173.5 175.5,-116.5 124.5,-116.5"/>
<text text-anchor="middle" x="150" y="-161.5" font-family="Helvetica,sans-Serif" font-size="10.00" fill="#000000">uint32_t</text>
<polyline fill="none" stroke="#000000" points="124.5,-154.5 175.5,-154.5 "/>
<text text-anchor="middle" x="150" y="-142.5" font-family="Helvetica,sans-Serif" font-size="10.00" fill="#000000"> </text>
<polyline fill="none" stroke="#000000" points="124.5,-135.5 175.5,-135.5 "/>
<text text-anchor="middle" x="150" y="-123.5" font-family="Helvetica,sans-Serif" font-size="10.00" fill="#000000"> </text>
</a>
</g>
</g>
<!-- Node3&#45;&gt;Node1 -->
<g id="edge2" class="edge">
<title>Node3&#45;&gt;Node1</title>
<path fill="none" stroke="#404040" d="M140.7527,-116.3477C137.2453,-106.7873 132.9,-96.2259 128,-87 126.5813,-84.3288 125.0478,-81.6342 123.4398,-78.9512"/>
<polygon fill="none" stroke="#404040" points="123.3852,-78.8652 116.7925,-75.9436 116.9536,-68.7343 123.5464,-71.6559 123.3852,-78.8652"/>
<text text-anchor="middle" x="174.5" y="-90" font-family="Helvetica,sans-Serif" font-size="10.00" fill="#000000"> +FramePackedHit</text>
</g>
</g>
</svg>
