<?xml version="1.0" encoding="UTF-8" standalone="no"?>
<!DOCTYPE svg PUBLIC "-//W3C//DTD SVG 1.1//EN"
 "http://www.w3.org/Graphics/SVG/1.1/DTD/svg11.dtd">
<!-- Generated by graphviz version 2.40.1 (20161225.0304)
 -->
<!-- Title: LeafNode Pages: 1 -->
<svg width="82pt" height="160pt"
 viewBox="0.00 0.00 82.00 160.00" xmlns="http://www.w3.org/2000/svg" xmlns:xlink="http://www.w3.org/1999/xlink">
<g id="graph0" class="graph" transform="scale(1 1) rotate(0) translate(4 156)">
<title>LeafNode</title>
<!-- Node0 -->
<g id="node1" class="node">
<title>Node0</title>
<polygon fill="#bfbfbf" stroke="#000000" points="0,-.5 0,-57.5 74,-57.5 74,-.5 0,-.5"/>
<text text-anchor="middle" x="37" y="-45.5" font-family="Helvetica,sans-Serif" font-size="10.00" fill="#000000">LeafNode</text>
<polyline fill="none" stroke="#000000" points="0,-38.5 74,-38.5 "/>
<text text-anchor="start" x="8" y="-26.5" font-family="Helvetica,sans-Serif" font-size="10.00" fill="#000000">+ c</text>
<polyline fill="none" stroke="#000000" points="0,-19.5 74,-19.5 "/>
<text text-anchor="start" x="8" y="-7.5" font-family="Helvetica,sans-Serif" font-size="10.00" fill="#000000">+ LeafNode()</text>
</g>
<!-- Node1 -->
<g id="node2" class="node">
<title>Node1</title>
<polygon fill="none" stroke="#bfbfbf" points="2,-94.5 2,-151.5 72,-151.5 72,-94.5 2,-94.5"/>
<text text-anchor="middle" x="37" y="-139.5" font-family="Helvetica,sans-Serif" font-size="10.00" fill="#000000">anonymous:</text>
<polyline fill="none" stroke="#bfbfbf" points="2,-132.5 72,-132.5 "/>
<text text-anchor="start" x="10" y="-120.5" font-family="Helvetica,sans-Serif" font-size="10.00" fill="#000000">+ f</text>
<polyline fill="none" stroke="#bfbfbf" points="2,-113.5 72,-113.5 "/>
<text text-anchor="middle" x="37" y="-101.5" font-family="Helvetica,sans-Serif" font-size="10.00" fill="#000000"> </text>
</g>
<!-- Node1&#45;&gt;Node0 -->
<g id="edge1" class="edge">
<title>Node1&#45;&gt;Node0</title>
<path fill="none" stroke="#191970" d="M30.34,-84.1035C30.1406,-75.2052 30.2726,-65.9073 30.7359,-57.538"/>
<polygon fill="none" stroke="#191970" points="26.8496,-84.426 30.7263,-94.2861 33.8446,-84.1606 26.8496,-84.426"/>
</g>
<!-- Node1&#45;&gt;Node0 -->
<g id="edge2" class="edge">
<title>Node1&#45;&gt;Node0</title>
<path fill="none" stroke="#191970" d="M43.66,-84.1035C43.8594,-75.2052 43.7274,-65.9073 43.2641,-57.538"/>
<polygon fill="none" stroke="#191970" points="40.1554,-84.1606 43.2737,-94.2861 47.1504,-84.426 40.1554,-84.1606"/>
</g>
</g>
</svg>
