<?xml version="1.0" encoding="UTF-8" standalone="no"?>
<!DOCTYPE svg PUBLIC "-//W3C//DTD SVG 1.1//EN"
 "http://www.w3.org/Graphics/SVG/1.1/DTD/svg11.dtd">
<!-- Generated by graphviz version 2.40.1 (20161225.0304)
 -->
<!-- Title: /home/runner/work/AliceO2/AliceO2/DataFormats/simulation/include/SimulationDataFormat/Stack.h Pages: 1 -->
<!--zoomable 464 -->
<svg id="main" version="1.1" xmlns="http://www.w3.org/2000/svg" xmlns:xlink="http://www.w3.org/1999/xlink" xml:space="preserve" onload="init(evt)">
<style type="text/css"><![CDATA[
.edge:hover path { stroke: red; }
.edge:hover polygon { stroke: red; fill: red; }
]]></style>
<script type="text/javascript"><![CDATA[
var edges = document.getElementsByTagName('g');
if (edges && edges.length) {
  for (var i=0;i<edges.length;i++) {
    if (edges[i].id.substr(0,4)=='edge') {
      edges[i].setAttribute('class','edge');
    }
  }
}
]]></script>
        <defs>
                <circle id="rim" cx="0" cy="0" r="7"/>
                <circle id="rim2" cx="0" cy="0" r="3.5"/>
                <g id="zoomPlus">
                        <use xlink:href="#rim" fill="#404040">
                                <set attributeName="fill" to="#808080" begin="zoomplus.mouseover" end="zoomplus.mouseout"/>
                        </use>
                        <path d="M-4,0h8M0,-4v8" fill="none" stroke="white" stroke-width="1.5" pointer-events="none"/>
                </g>
                <g id="zoomMin">
                        <use xlink:href="#rim" fill="#404040">
                                <set attributeName="fill" to="#808080" begin="zoomminus.mouseover" end="zoomminus.mouseout"/>
                        </use>
                        <path d="M-4,0h8" fill="none" stroke="white" stroke-width="1.5" pointer-events="none"/>
                </g>
                <g id="dirArrow">
                        <path fill="none" stroke="white" stroke-width="1.5" d="M0,-3.0v7 M-2.5,-0.5L0,-3.0L2.5,-0.5"/>
                </g>
               <g id="resetDef">
                       <use xlink:href="#rim2" fill="#404040">
                               <set attributeName="fill" to="#808080" begin="reset.mouseover" end="reset.mouseout"/>
                       </use>
               </g>
        </defs>

<script type="text/javascript">
var viewWidth = 1697;
var viewHeight = 464;
var sectionId = 'dynsection-0';
</script>
<script xlink:href="../../svgpan.js"/>
<svg id="graph" class="graph">
<g id="viewport">
<title>/home/runner/work/AliceO2/AliceO2/DataFormats/simulation/include/SimulationDataFormat/Stack.h</title>
<!-- Node0 -->
<g id="node1" class="node">
<title>Node0</title>
<polygon fill="#bfbfbf" stroke="#000000" points="1085,-414.5 1085,-455.5 1273,-455.5 1273,-414.5 1085,-414.5"/>
<text text-anchor="start" x="1093" y="-443.5" font-family="Helvetica,sans-Serif" font-size="10.00" fill="#000000">/home/runner/work/AliceO2</text>
<text text-anchor="start" x="1093" y="-432.5" font-family="Helvetica,sans-Serif" font-size="10.00" fill="#000000">/AliceO2/DataFormats/simulation</text>
<text text-anchor="middle" x="1179" y="-421.5" font-family="Helvetica,sans-Serif" font-size="10.00" fill="#000000">/include/SimulationDataFormat/Stack.h</text>
</g>
<!-- Node1 -->
<g id="node2" class="node">
<title>Node1</title>
<g id="a_node2"><a xlink:href="../../d6/d31/DetID_8h.html" target="_top" xlink:title="DetectorsCommonDataFormats\l/DetID.h">
<polygon fill="none" stroke="#000000" points="712,-280.5 712,-310.5 868,-310.5 868,-280.5 712,-280.5"/>
<text text-anchor="start" x="720" y="-298.5" font-family="Helvetica,sans-Serif" font-size="10.00" fill="#000000">DetectorsCommonDataFormats</text>
<text text-anchor="middle" x="790" y="-287.5" font-family="Helvetica,sans-Serif" font-size="10.00" fill="#000000">/DetID.h</text>
</a>
</g>
</g>
<!-- Node0&#45;&gt;Node1 -->
<g id="edge1" class="edge">
<title>Node0&#45;&gt;Node1</title>
<path fill="none" stroke="#191970" d="M1106.1188,-414.4758C1071.3266,-404.2485 1029.2527,-391.2533 992,-378 936.6558,-358.3104 874.2426,-332.2036 833.6308,-314.6783"/>
<polygon fill="#191970" stroke="#191970" points="834.8661,-311.3992 824.2987,-310.6366 832.084,-317.8226 834.8661,-311.3992"/>
</g>
<!-- Node2 -->
<g id="node3" class="node">
<title>Node2</title>
<polygon fill="none" stroke="#bfbfbf" points="1051,-224.5 1051,-243.5 1107,-243.5 1107,-224.5 1051,-224.5"/>
<text text-anchor="middle" x="1079" y="-231.5" font-family="Helvetica,sans-Serif" font-size="10.00" fill="#000000">Rtypes.h</text>
</g>
<!-- Node0&#45;&gt;Node2 -->
<g id="edge59" class="edge">
<title>Node0&#45;&gt;Node2</title>
<path fill="none" stroke="#191970" d="M1180.9312,-414.2922C1183.2252,-395.9396 1188.073,-368.7558 1198,-347 1206.3024,-328.8047 1218.6754,-329.9737 1225,-311 1229.3569,-297.9293 1233.1481,-291.1102 1225,-280 1212.1236,-262.4426 1155.9164,-248.5155 1117.1231,-240.7644"/>
<polygon fill="#191970" stroke="#191970" points="1117.6672,-237.3048 1107.1837,-238.8362 1116.3341,-244.1767 1117.6672,-237.3048"/>
</g>
<!-- Node23 -->
<g id="node24" class="node">
<title>Node23</title>
<polygon fill="none" stroke="#bfbfbf" points="1353,-168.5 1353,-187.5 1405,-187.5 1405,-168.5 1353,-168.5"/>
<text text-anchor="middle" x="1379" y="-175.5" font-family="Helvetica,sans-Serif" font-size="10.00" fill="#000000">memory</text>
</g>
<!-- Node0&#45;&gt;Node23 -->
<g id="edge62" class="edge">
<title>Node0&#45;&gt;Node23</title>
<path fill="none" stroke="#191970" d="M1101.2065,-414.498C1069.1127,-404.3247 1037.2426,-391.3681 1028,-378 1004.8405,-344.5031 969.7406,-297.3175 1042,-224 1086.0363,-179.3188 1259.9773,-197.4227 1322,-188 1328.8072,-186.9658 1336.0546,-185.7687 1343.0188,-184.57"/>
<polygon fill="#191970" stroke="#191970" points="1343.6898,-188.0058 1352.9351,-182.8314 1342.4809,-181.111 1343.6898,-188.0058"/>
</g>
<!-- Node29 -->
<g id="node30" class="node">
<title>Node29</title>
<polygon fill="none" stroke="#bfbfbf" points="1339.5,-353 1339.5,-372 1440.5,-372 1440.5,-353 1339.5,-353"/>
<text text-anchor="middle" x="1390" y="-360" font-family="Helvetica,sans-Serif" font-size="10.00" fill="#000000">FairGenericStack.h</text>
</g>
<!-- Node0&#45;&gt;Node29 -->
<g id="edge38" class="edge">
<title>Node0&#45;&gt;Node29</title>
<path fill="none" stroke="#191970" d="M1238.8997,-414.4183C1275.3996,-401.8769 1320.9167,-386.2372 1352.4028,-375.4185"/>
<polygon fill="#191970" stroke="#191970" points="1353.7834,-378.645 1362.1033,-372.0853 1351.5087,-372.0249 1353.7834,-378.645"/>
</g>
<!-- Node30 -->
<g id="node31" class="node">
<title>Node30</title>
<g id="a_node31"><a xlink:href="../../d2/de2/MCTrack_8h.html" target="_top" xlink:title="Definition of the MCTrack class. ">
<polygon fill="none" stroke="#000000" points="491,-347.5 491,-377.5 605,-377.5 605,-347.5 491,-347.5"/>
<text text-anchor="start" x="499" y="-365.5" font-family="Helvetica,sans-Serif" font-size="10.00" fill="#000000">SimulationDataFormat</text>
<text text-anchor="middle" x="548" y="-354.5" font-family="Helvetica,sans-Serif" font-size="10.00" fill="#000000">/MCTrack.h</text>
</a>
</g>
</g>
<!-- Node0&#45;&gt;Node30 -->
<g id="edge39" class="edge">
<title>Node0&#45;&gt;Node30</title>
<path fill="none" stroke="#191970" d="M1084.8738,-424.1852C956.1077,-409.3903 728.1695,-383.2009 615.2547,-370.2274"/>
<polygon fill="#191970" stroke="#191970" points="615.3566,-366.7161 605.0224,-369.0517 614.5575,-373.6704 615.3566,-366.7161"/>
</g>
<!-- Node31 -->
<g id="node32" class="node">
<title>Node31</title>
<g id="a_node32"><a xlink:href="../../d9/d26/ParticleStatus_8h.html" target="_top" xlink:title="SimulationDataFormat\l/ParticleStatus.h">
<polygon fill="none" stroke="#000000" points="29,-280.5 29,-310.5 143,-310.5 143,-280.5 29,-280.5"/>
<text text-anchor="start" x="37" y="-298.5" font-family="Helvetica,sans-Serif" font-size="10.00" fill="#000000">SimulationDataFormat</text>
<text text-anchor="middle" x="86" y="-287.5" font-family="Helvetica,sans-Serif" font-size="10.00" fill="#000000">/ParticleStatus.h</text>
</a>
</g>
</g>
<!-- Node0&#45;&gt;Node31 -->
<g id="edge58" class="edge">
<title>Node0&#45;&gt;Node31</title>
<path fill="none" stroke="#191970" d="M1084.7625,-430.7788C950.4474,-423.9724 696.4543,-408.1742 482,-378 365.2945,-361.5793 231.4206,-331.2333 153.0426,-312.2765"/>
<polygon fill="#191970" stroke="#191970" points="153.8398,-308.8684 143.2961,-309.9086 152.1872,-315.6706 153.8398,-308.8684"/>
</g>
<!-- Node32 -->
<g id="node33" class="node">
<title>Node32</title>
<polygon fill="none" stroke="#bfbfbf" points="11,-224.5 11,-243.5 75,-243.5 75,-224.5 11,-224.5"/>
<text text-anchor="middle" x="43" y="-231.5" font-family="Helvetica,sans-Serif" font-size="10.00" fill="#000000">TParticle.h</text>
</g>
<!-- Node0&#45;&gt;Node32 -->
<g id="edge60" class="edge">
<title>Node0&#45;&gt;Node32</title>
<path fill="none" stroke="#191970" d="M1084.7284,-433.6613C925.225,-430.3096 592.2969,-418.6191 314,-378 181.3883,-358.6445 103.5756,-415.7645 20,-311 6.3456,-293.8838 18.0762,-268.8156 29.1995,-251.9777"/>
<polygon fill="#191970" stroke="#191970" points="32.2286,-253.7564 35.1515,-243.5728 26.5159,-249.7109 32.2286,-253.7564"/>
</g>
<!-- Node39 -->
<g id="node40" class="node">
<title>Node39</title>
<g id="a_node40"><a xlink:href="../../d5/dbe/TrackReference_8h.html" target="_top" xlink:title="SimulationDataFormat\l/TrackReference.h">
<polygon fill="none" stroke="#000000" points="1037,-347.5 1037,-377.5 1151,-377.5 1151,-347.5 1037,-347.5"/>
<text text-anchor="start" x="1045" y="-365.5" font-family="Helvetica,sans-Serif" font-size="10.00" fill="#000000">SimulationDataFormat</text>
<text text-anchor="middle" x="1094" y="-354.5" font-family="Helvetica,sans-Serif" font-size="10.00" fill="#000000">/TrackReference.h</text>
</a>
</g>
</g>
<!-- Node0&#45;&gt;Node39 -->
<g id="edge51" class="edge">
<title>Node0&#45;&gt;Node39</title>
<path fill="none" stroke="#191970" d="M1154.8698,-414.4183C1143.8111,-404.9859 1130.6977,-393.801 1119.4795,-384.2325"/>
<polygon fill="#191970" stroke="#191970" points="1121.5821,-381.4257 1111.7024,-377.5991 1117.0394,-386.7515 1121.5821,-381.4257"/>
</g>
<!-- Node42 -->
<g id="node43" class="node">
<title>Node42</title>
<g id="a_node43"><a xlink:href="../../d6/d9d/MCEventStats_8h.html" target="_top" xlink:title="SimulationDataFormat\l/MCEventStats.h">
<polygon fill="none" stroke="#000000" points="1207,-347.5 1207,-377.5 1321,-377.5 1321,-347.5 1207,-347.5"/>
<text text-anchor="start" x="1215" y="-365.5" font-family="Helvetica,sans-Serif" font-size="10.00" fill="#000000">SimulationDataFormat</text>
<text text-anchor="middle" x="1264" y="-354.5" font-family="Helvetica,sans-Serif" font-size="10.00" fill="#000000">/MCEventStats.h</text>
</a>
</g>
</g>
<!-- Node0&#45;&gt;Node42 -->
<g id="edge56" class="edge">
<title>Node0&#45;&gt;Node42</title>
<path fill="none" stroke="#191970" d="M1203.1302,-414.4183C1214.1889,-404.9859 1227.3023,-393.801 1238.5205,-384.2325"/>
<polygon fill="#191970" stroke="#191970" points="1240.9606,-386.7515 1246.2976,-377.5991 1236.4179,-381.4257 1240.9606,-386.7515"/>
</g>
<!-- Node43 -->
<g id="node44" class="node">
<title>Node43</title>
<polygon fill="none" stroke="#bfbfbf" points="1458.5,-353 1458.5,-372 1493.5,-372 1493.5,-353 1458.5,-353"/>
<text text-anchor="middle" x="1476" y="-360" font-family="Helvetica,sans-Serif" font-size="10.00" fill="#000000">map</text>
</g>
<!-- Node0&#45;&gt;Node43 -->
<g id="edge61" class="edge">
<title>Node0&#45;&gt;Node43</title>
<path fill="none" stroke="#191970" d="M1273.0786,-423.0406C1326.2516,-414.3651 1393.2391,-400.1755 1450,-378 1450.878,-377.657 1451.7606,-377.2859 1452.6429,-376.8925"/>
<polygon fill="#191970" stroke="#191970" points="1454.6168,-379.81 1461.8567,-372.0746 1451.3732,-373.6068 1454.6168,-379.81"/>
</g>
<!-- Node44 -->
<g id="node45" class="node">
<title>Node44</title>
<polygon fill="none" stroke="#bfbfbf" points="1511.5,-353 1511.5,-372 1552.5,-372 1552.5,-353 1511.5,-353"/>
<text text-anchor="middle" x="1532" y="-360" font-family="Helvetica,sans-Serif" font-size="10.00" fill="#000000">stack</text>
</g>
<!-- Node0&#45;&gt;Node44 -->
<g id="edge63" class="edge">
<title>Node0&#45;&gt;Node44</title>
<path fill="none" stroke="#191970" d="M1273.146,-426.4025C1338.8885,-418.4903 1427.9599,-403.9127 1503,-378 1504.2445,-377.5703 1505.5001,-377.0922 1506.7547,-376.5779"/>
<polygon fill="#191970" stroke="#191970" points="1508.6109,-379.5717 1516.1525,-372.1302 1505.6164,-373.2445 1508.6109,-379.5717"/>
</g>
<!-- Node45 -->
<g id="node46" class="node">
<title>Node45</title>
<polygon fill="none" stroke="#bfbfbf" points="1571,-353 1571,-372 1611,-372 1611,-353 1571,-353"/>
<text text-anchor="middle" x="1591" y="-360" font-family="Helvetica,sans-Serif" font-size="10.00" fill="#000000">utility</text>
</g>
<!-- Node0&#45;&gt;Node45 -->
<g id="edge64" class="edge">
<title>Node0&#45;&gt;Node45</title>
<path fill="none" stroke="#191970" d="M1273.1608,-429.9928C1351.9882,-423.6876 1466.5777,-409.5474 1562,-378 1563.4228,-377.5296 1564.8587,-376.9927 1566.2901,-376.4079"/>
<polygon fill="#191970" stroke="#191970" points="1567.9466,-379.4961 1575.4838,-372.0502 1564.9483,-373.1707 1567.9466,-379.4961"/>
</g>
<!-- Node46 -->
<g id="node47" class="node">
<title>Node46</title>
<polygon fill="none" stroke="#bfbfbf" points="1629.5,-353 1629.5,-372 1688.5,-372 1688.5,-353 1629.5,-353"/>
<text text-anchor="middle" x="1659" y="-360" font-family="Helvetica,sans-Serif" font-size="10.00" fill="#000000">functional</text>
</g>
<!-- Node0&#45;&gt;Node46 -->
<g id="edge65" class="edge">
<title>Node0&#45;&gt;Node46</title>
<path fill="none" stroke="#191970" d="M1273.2051,-429.6531C1363.3848,-422.9411 1502.668,-408.3872 1620,-378 1622.7772,-377.2807 1625.6228,-376.4161 1628.4499,-375.4677"/>
<polygon fill="#191970" stroke="#191970" points="1629.6841,-378.7431 1637.8649,-372.0107 1627.2713,-372.172 1629.6841,-378.7431"/>
</g>
<!-- Node1&#45;&gt;Node2 -->
<g id="edge2" class="edge">
<title>Node1&#45;&gt;Node2</title>
<path fill="none" stroke="#191970" d="M860.6974,-280.4554C917.5576,-268.3554 995.2587,-251.8204 1040.9864,-242.0894"/>
<polygon fill="#191970" stroke="#191970" points="1041.7376,-245.508 1050.7901,-240.0031 1040.2806,-238.6613 1041.7376,-245.508"/>
</g>
<!-- Node3 -->
<g id="node4" class="node">
<title>Node3</title>
<polygon fill="none" stroke="#bfbfbf" points="0,-112.5 0,-131.5 38,-131.5 38,-112.5 0,-112.5"/>
<text text-anchor="middle" x="19" y="-119.5" font-family="Helvetica,sans-Serif" font-size="10.00" fill="#000000">array</text>
</g>
<!-- Node1&#45;&gt;Node3 -->
<g id="edge3" class="edge">
<title>Node1&#45;&gt;Node3</title>
<path fill="none" stroke="#191970" d="M711.7596,-281.4755C708.8031,-280.9726 705.8753,-280.4792 703,-280 469.7652,-241.1325 405.5536,-255.6948 179,-188 131.5137,-173.811 78.8001,-150.5086 47.3068,-135.726"/>
<polygon fill="#191970" stroke="#191970" points="48.7791,-132.5506 38.2435,-131.4314 45.7816,-138.8764 48.7791,-132.5506"/>
</g>
<!-- Node4 -->
<g id="node5" class="node">
<title>Node4</title>
<polygon fill="none" stroke="#bfbfbf" points="953.5,-224.5 953.5,-243.5 994.5,-243.5 994.5,-224.5 953.5,-224.5"/>
<text text-anchor="middle" x="974" y="-231.5" font-family="Helvetica,sans-Serif" font-size="10.00" fill="#000000">bitset</text>
</g>
<!-- Node1&#45;&gt;Node4 -->
<g id="edge4" class="edge">
<title>Node1&#45;&gt;Node4</title>
<path fill="none" stroke="#191970" d="M835.0115,-280.4554C868.7021,-269.1947 913.8848,-254.0928 943.4568,-244.2087"/>
<polygon fill="#191970" stroke="#191970" points="944.8466,-247.4346 953.2213,-240.9451 942.6275,-240.7956 944.8466,-247.4346"/>
</g>
<!-- Node5 -->
<g id="node6" class="node">
<title>Node5</title>
<polygon fill="none" stroke="#bfbfbf" points="727.5,-168.5 727.5,-187.5 776.5,-187.5 776.5,-168.5 727.5,-168.5"/>
<text text-anchor="middle" x="752" y="-175.5" font-family="Helvetica,sans-Serif" font-size="10.00" fill="#000000">cassert</text>
</g>
<!-- Node1&#45;&gt;Node5 -->
<g id="edge5" class="edge">
<title>Node1&#45;&gt;Node5</title>
<path fill="none" stroke="#191970" d="M785.0322,-280.1389C778.1547,-258.873 765.7351,-220.4702 758.2403,-197.2956"/>
<polygon fill="#191970" stroke="#191970" points="761.4989,-195.9973 755.0916,-187.5595 754.8386,-198.1513 761.4989,-195.9973"/>
</g>
<!-- Node6 -->
<g id="node7" class="node">
<title>Node6</title>
<polygon fill="none" stroke="#bfbfbf" points="676,-112.5 676,-131.5 722,-131.5 722,-112.5 676,-112.5"/>
<text text-anchor="middle" x="699" y="-119.5" font-family="Helvetica,sans-Serif" font-size="10.00" fill="#000000">cstdint</text>
</g>
<!-- Node1&#45;&gt;Node6 -->
<g id="edge6" class="edge">
<title>Node1&#45;&gt;Node6</title>
<path fill="none" stroke="#191970" d="M777.6429,-280.386C761.8188,-260.3668 734.4786,-223.4411 718,-188 711.0876,-173.1333 706.1194,-155.1966 703.001,-141.7766"/>
<polygon fill="#191970" stroke="#191970" points="706.3616,-140.7593 700.8146,-131.7326 699.5218,-142.2483 706.3616,-140.7593"/>
</g>
<!-- Node7 -->
<g id="node8" class="node">
<title>Node7</title>
<polygon fill="none" stroke="#bfbfbf" points="93,-224.5 93,-243.5 159,-243.5 159,-224.5 93,-224.5"/>
<text text-anchor="middle" x="126" y="-231.5" font-family="Helvetica,sans-Serif" font-size="10.00" fill="#000000">string_view</text>
</g>
<!-- Node1&#45;&gt;Node7 -->
<g id="edge7" class="edge">
<title>Node1&#45;&gt;Node7</title>
<path fill="none" stroke="#191970" d="M711.8061,-281.1537C708.8366,-280.7409 705.8934,-280.354 703,-280 469.6827,-251.4525 405.3732,-278.9501 169.2894,-243.9667"/>
<polygon fill="#191970" stroke="#191970" points="169.7814,-240.5014 159.3721,-242.4756 168.7406,-247.4236 169.7814,-240.5014"/>
</g>
<!-- Node8 -->
<g id="node9" class="node">
<title>Node8</title>
<polygon fill="none" stroke="#bfbfbf" points="794.5,-168.5 794.5,-187.5 835.5,-187.5 835.5,-168.5 794.5,-168.5"/>
<text text-anchor="middle" x="815" y="-175.5" font-family="Helvetica,sans-Serif" font-size="10.00" fill="#000000">string</text>
</g>
<!-- Node1&#45;&gt;Node8 -->
<g id="edge8" class="edge">
<title>Node1&#45;&gt;Node8</title>
<path fill="none" stroke="#191970" d="M793.2683,-280.1389C797.7725,-258.9692 805.8899,-220.8174 810.8274,-197.6112"/>
<polygon fill="#191970" stroke="#191970" points="814.3083,-198.0689 812.9661,-187.5595 807.4615,-196.6121 814.3083,-198.0689"/>
</g>
<!-- Node9 -->
<g id="node10" class="node">
<title>Node9</title>
<polygon fill="none" stroke="#bfbfbf" points="177,-224.5 177,-243.5 239,-243.5 239,-224.5 177,-224.5"/>
<text text-anchor="middle" x="208" y="-231.5" font-family="Helvetica,sans-Serif" font-size="10.00" fill="#000000">type_traits</text>
</g>
<!-- Node1&#45;&gt;Node9 -->
<g id="edge9" class="edge">
<title>Node1&#45;&gt;Node9</title>
<path fill="none" stroke="#191970" d="M711.8002,-281.2007C708.8323,-280.7747 705.8911,-280.3723 703,-280 504.0042,-254.3743 451.4085,-273.8342 253,-244 251.7535,-243.8126 250.4901,-243.6104 249.2165,-243.3959"/>
<polygon fill="#191970" stroke="#191970" points="249.8401,-239.9519 239.3671,-241.5536 248.5531,-246.8326 249.8401,-239.9519"/>
</g>
<!-- Node10 -->
<g id="node11" class="node">
<title>Node10</title>
<g id="a_node11"><a xlink:href="../../d9/d52/Common_2MathUtils_2include_2MathUtils_2Utils_8h.html" target="_top" xlink:title="MathUtils/Utils.h">
<polygon fill="none" stroke="#000000" points="480,-224.5 480,-243.5 570,-243.5 570,-224.5 480,-224.5"/>
<text text-anchor="middle" x="525" y="-231.5" font-family="Helvetica,sans-Serif" font-size="10.00" fill="#000000">MathUtils/Utils.h</text>
</a>
</g>
</g>
<!-- Node1&#45;&gt;Node10 -->
<g id="edge10" class="edge">
<title>Node1&#45;&gt;Node10</title>
<path fill="none" stroke="#191970" d="M725.1737,-280.4554C679.2124,-269.7889 618.4009,-255.6761 575.9136,-245.8158"/>
<polygon fill="#191970" stroke="#191970" points="576.598,-242.3817 566.0656,-243.5303 575.0155,-249.2005 576.598,-242.3817"/>
</g>
<!-- Node22 -->
<g id="node23" class="node">
<title>Node22</title>
<g id="a_node23"><a xlink:href="../../dc/dcd/DataHeader_8h.html" target="_top" xlink:title="Headers/DataHeader.h">
<polygon fill="none" stroke="#000000" points="818.5,-224.5 818.5,-243.5 935.5,-243.5 935.5,-224.5 818.5,-224.5"/>
<text text-anchor="middle" x="877" y="-231.5" font-family="Helvetica,sans-Serif" font-size="10.00" fill="#000000">Headers/DataHeader.h</text>
</a>
</g>
</g>
<!-- Node1&#45;&gt;Node22 -->
<g id="edge27" class="edge">
<title>Node1&#45;&gt;Node22</title>
<path fill="none" stroke="#191970" d="M811.5056,-280.2977C824.7968,-270.9022 841.8057,-258.8787 855.1588,-249.4395"/>
<polygon fill="#191970" stroke="#191970" points="857.1846,-252.2937 863.33,-243.6633 853.1439,-246.5776 857.1846,-252.2937"/>
</g>
<!-- Node11 -->
<g id="node12" class="node">
<title>Node11</title>
<g id="a_node12"><a xlink:href="../../de/def/bitOps_8h.html" target="_top" xlink:title="MathUtils/detail/bitOps.h">
<polygon fill="none" stroke="#000000" points="545.5,-168.5 545.5,-187.5 670.5,-187.5 670.5,-168.5 545.5,-168.5"/>
<text text-anchor="middle" x="608" y="-175.5" font-family="Helvetica,sans-Serif" font-size="10.00" fill="#000000">MathUtils/detail/bitOps.h</text>
</a>
</g>
</g>
<!-- Node10&#45;&gt;Node11 -->
<g id="edge11" class="edge">
<title>Node10&#45;&gt;Node11</title>
<path fill="none" stroke="#191970" d="M539.4575,-224.2455C552.0732,-215.7337 570.5944,-203.2375 585.2045,-193.3801"/>
<polygon fill="#191970" stroke="#191970" points="587.3761,-196.1371 593.7082,-187.6427 583.4609,-190.3343 587.3761,-196.1371"/>
</g>
<!-- Node12 -->
<g id="node13" class="node">
<title>Node12</title>
<g id="a_node13"><a xlink:href="../../d3/dfc/StatAccumulator_8h.html" target="_top" xlink:title="MathUtils/detail/StatAccumulator.h">
<polygon fill="none" stroke="#000000" points="358.5,-168.5 358.5,-187.5 527.5,-187.5 527.5,-168.5 358.5,-168.5"/>
<text text-anchor="middle" x="443" y="-175.5" font-family="Helvetica,sans-Serif" font-size="10.00" fill="#000000">MathUtils/detail/StatAccumulator.h</text>
</a>
</g>
</g>
<!-- Node10&#45;&gt;Node12 -->
<g id="edge13" class="edge">
<title>Node10&#45;&gt;Node12</title>
<path fill="none" stroke="#191970" d="M510.7167,-224.2455C498.253,-215.7337 479.9549,-203.2375 465.5208,-193.3801"/>
<polygon fill="#191970" stroke="#191970" points="467.3515,-190.392 457.1196,-187.6427 463.4038,-196.1726 467.3515,-190.392"/>
</g>
<!-- Node14 -->
<g id="node15" class="node">
<title>Node14</title>
<g id="a_node15"><a xlink:href="../../dd/d7d/trigonometric_8h.html" target="_top" xlink:title="MathUtils/detail/trigonometric.h">
<polygon fill="none" stroke="#000000" points="188,-168.5 188,-187.5 340,-187.5 340,-168.5 188,-168.5"/>
<text text-anchor="middle" x="264" y="-175.5" font-family="Helvetica,sans-Serif" font-size="10.00" fill="#000000">MathUtils/detail/trigonometric.h</text>
</a>
</g>
</g>
<!-- Node10&#45;&gt;Node14 -->
<g id="edge15" class="edge">
<title>Node10&#45;&gt;Node14</title>
<path fill="none" stroke="#191970" d="M480.4291,-224.4369C435.5732,-214.8127 366.3351,-199.957 318.2992,-189.6504"/>
<polygon fill="#191970" stroke="#191970" points="318.8989,-186.1995 308.3871,-187.5237 317.4303,-193.0437 318.8989,-186.1995"/>
</g>
<!-- Node11&#45;&gt;Node6 -->
<g id="edge12" class="edge">
<title>Node11&#45;&gt;Node6</title>
<path fill="none" stroke="#191970" d="M623.851,-168.2455C637.8132,-159.6534 658.3728,-147.0014 674.4596,-137.1018"/>
<polygon fill="#191970" stroke="#191970" points="676.6484,-139.8645 683.3307,-131.6427 672.9797,-133.9029 676.6484,-139.8645"/>
</g>
<!-- Node13 -->
<g id="node14" class="node">
<title>Node13</title>
<polygon fill="none" stroke="#bfbfbf" points="456,-112.5 456,-131.5 494,-131.5 494,-112.5 456,-112.5"/>
<text text-anchor="middle" x="475" y="-119.5" font-family="Helvetica,sans-Serif" font-size="10.00" fill="#000000">tuple</text>
</g>
<!-- Node12&#45;&gt;Node13 -->
<g id="edge14" class="edge">
<title>Node12&#45;&gt;Node13</title>
<path fill="none" stroke="#191970" d="M448.574,-168.2455C452.9331,-160.617 459.1211,-149.7881 464.4133,-140.5267"/>
<polygon fill="#191970" stroke="#191970" points="467.5673,-142.0616 469.4899,-131.6427 461.4896,-138.5886 467.5673,-142.0616"/>
</g>
<!-- Node14&#45;&gt;Node3 -->
<g id="edge16" class="edge">
<title>Node14&#45;&gt;Node3</title>
<path fill="none" stroke="#191970" d="M209.1047,-168.4724C167.1775,-160.7174 107.8649,-148.7204 47.8119,-131.9597"/>
<polygon fill="#191970" stroke="#191970" points="48.7453,-128.5865 38.1699,-129.2288 46.8376,-135.3215 48.7453,-128.5865"/>
</g>
<!-- Node14&#45;&gt;Node13 -->
<g id="edge18" class="edge">
<title>Node14&#45;&gt;Node13</title>
<path fill="none" stroke="#191970" d="M306.8444,-168.4675C341.9517,-160.3801 393.0818,-147.9737 445.9195,-132.1304"/>
<polygon fill="#191970" stroke="#191970" points="447.2486,-135.3848 455.8018,-129.1324 445.2164,-128.6863 447.2486,-135.3848"/>
</g>
<!-- Node15 -->
<g id="node16" class="node">
<title>Node15</title>
<polygon fill="none" stroke="#bfbfbf" points="354,-56.5 354,-75.5 398,-75.5 398,-56.5 354,-56.5"/>
<text text-anchor="middle" x="376" y="-63.5" font-family="Helvetica,sans-Serif" font-size="10.00" fill="#000000">cmath</text>
</g>
<!-- Node14&#45;&gt;Node15 -->
<g id="edge17" class="edge">
<title>Node14&#45;&gt;Node15</title>
<path fill="none" stroke="#191970" d="M271.6566,-168.1686C282.1895,-154.8779 302.0095,-130.6921 321,-112 331.7803,-101.3891 344.7185,-90.4872 355.3372,-81.9613"/>
<polygon fill="#191970" stroke="#191970" points="357.6002,-84.6339 363.2704,-75.6841 353.2566,-79.1445 357.6002,-84.6339"/>
</g>
<!-- Node16 -->
<g id="node17" class="node">
<title>Node16</title>
<g id="a_node17"><a xlink:href="../../df/d21/GPUCommonDef_8h.html" target="_top" xlink:title="GPUCommonDef.h">
<polygon fill="none" stroke="#000000" points="227,-56.5 227,-75.5 329,-75.5 329,-56.5 227,-56.5"/>
<text text-anchor="middle" x="278" y="-63.5" font-family="Helvetica,sans-Serif" font-size="10.00" fill="#000000">GPUCommonDef.h</text>
</a>
</g>
</g>
<!-- Node14&#45;&gt;Node16 -->
<g id="edge19" class="edge">
<title>Node14&#45;&gt;Node16</title>
<path fill="none" stroke="#191970" d="M265.1936,-168.4509C267.477,-150.184 272.5056,-109.9553 275.5378,-85.6976"/>
<polygon fill="#191970" stroke="#191970" points="279.0419,-85.8818 276.8094,-75.5249 272.096,-85.0135 279.0419,-85.8818"/>
</g>
<!-- Node19 -->
<g id="node20" class="node">
<title>Node19</title>
<g id="a_node20"><a xlink:href="../../d6/da2/GPUCommonMath_8h.html" target="_top" xlink:title="GPUCommonMath.h">
<polygon fill="none" stroke="#000000" points="330,-112.5 330,-131.5 438,-131.5 438,-112.5 330,-112.5"/>
<text text-anchor="middle" x="384" y="-119.5" font-family="Helvetica,sans-Serif" font-size="10.00" fill="#000000">GPUCommonMath.h</text>
</a>
</g>
</g>
<!-- Node14&#45;&gt;Node19 -->
<g id="edge22" class="edge">
<title>Node14&#45;&gt;Node19</title>
<path fill="none" stroke="#191970" d="M284.6287,-168.3733C303.8919,-159.3838 332.8486,-145.8706 354.5419,-135.7471"/>
<polygon fill="#191970" stroke="#191970" points="356.0587,-138.9017 363.6405,-131.5011 353.0985,-132.5584 356.0587,-138.9017"/>
</g>
<!-- Node21 -->
<g id="node22" class="node">
<title>Node21</title>
<g id="a_node22"><a xlink:href="../../d6/d84/MathConstants_8h.html" target="_top" xlink:title="useful math constants ">
<polygon fill="none" stroke="#000000" points="56.5,-112.5 56.5,-131.5 235.5,-131.5 235.5,-112.5 56.5,-112.5"/>
<text text-anchor="middle" x="146" y="-119.5" font-family="Helvetica,sans-Serif" font-size="10.00" fill="#000000">CommonConstants/MathConstants.h</text>
</a>
</g>
</g>
<!-- Node14&#45;&gt;Node21 -->
<g id="edge26" class="edge">
<title>Node14&#45;&gt;Node21</title>
<path fill="none" stroke="#191970" d="M243.7151,-168.3733C224.8579,-159.4241 196.554,-145.9917 175.2545,-135.8835"/>
<polygon fill="#191970" stroke="#191970" points="176.5551,-132.6266 166.0202,-131.5011 173.5539,-138.9506 176.5551,-132.6266"/>
</g>
<!-- Node17 -->
<g id="node18" class="node">
<title>Node17</title>
<g id="a_node18"><a xlink:href="../../d5/d93/GPUCommonDefSettings_8h.html" target="_top" xlink:title="GPUCommonDefSettings.h">
<polygon fill="none" stroke="#000000" points="136,-.5 136,-19.5 274,-19.5 274,-.5 136,-.5"/>
<text text-anchor="middle" x="205" y="-7.5" font-family="Helvetica,sans-Serif" font-size="10.00" fill="#000000">GPUCommonDefSettings.h</text>
</a>
</g>
</g>
<!-- Node16&#45;&gt;Node17 -->
<g id="edge20" class="edge">
<title>Node16&#45;&gt;Node17</title>
<path fill="none" stroke="#191970" d="M265.2844,-56.2455C254.398,-47.8943 238.5117,-35.7076 225.78,-25.9408"/>
<polygon fill="#191970" stroke="#191970" points="227.6346,-22.9523 217.5699,-19.6427 223.3739,-28.5063 227.6346,-22.9523"/>
</g>
<!-- Node18 -->
<g id="node19" class="node">
<title>Node18</title>
<g id="a_node19"><a xlink:href="../../da/d5a/GPUCommonDefAPI_8h.html" target="_top" xlink:title="GPUCommonDefAPI.h">
<polygon fill="none" stroke="#000000" points="292.5,-.5 292.5,-19.5 411.5,-19.5 411.5,-.5 292.5,-.5"/>
<text text-anchor="middle" x="352" y="-7.5" font-family="Helvetica,sans-Serif" font-size="10.00" fill="#000000">GPUCommonDefAPI.h</text>
</a>
</g>
</g>
<!-- Node16&#45;&gt;Node18 -->
<g id="edge21" class="edge">
<title>Node16&#45;&gt;Node18</title>
<path fill="none" stroke="#191970" d="M290.8898,-56.2455C301.9254,-47.8943 318.0292,-35.7076 330.9353,-25.9408"/>
<polygon fill="#191970" stroke="#191970" points="333.3959,-28.4681 339.2579,-19.6427 329.1717,-22.8862 333.3959,-28.4681"/>
</g>
<!-- Node19&#45;&gt;Node15 -->
<g id="edge24" class="edge">
<title>Node19&#45;&gt;Node15</title>
<path fill="none" stroke="#191970" d="M382.6065,-112.2455C381.5626,-104.9382 380.0992,-94.6944 378.8149,-85.7046"/>
<polygon fill="#191970" stroke="#191970" points="382.2566,-85.0472 377.3775,-75.6427 375.327,-86.0372 382.2566,-85.0472"/>
</g>
<!-- Node19&#45;&gt;Node16 -->
<g id="edge23" class="edge">
<title>Node19&#45;&gt;Node16</title>
<path fill="none" stroke="#191970" d="M365.5362,-112.2455C348.8926,-103.4527 324.2007,-90.4079 305.2808,-80.4125"/>
<polygon fill="#191970" stroke="#191970" points="306.7291,-77.2193 296.2522,-75.6427 303.4592,-83.4086 306.7291,-77.2193"/>
</g>
<!-- Node20 -->
<g id="node21" class="node">
<title>Node20</title>
<polygon fill="none" stroke="#bfbfbf" points="856,-56.5 856,-75.5 912,-75.5 912,-56.5 856,-56.5"/>
<text text-anchor="middle" x="884" y="-63.5" font-family="Helvetica,sans-Serif" font-size="10.00" fill="#000000">algorithm</text>
</g>
<!-- Node19&#45;&gt;Node20 -->
<g id="edge25" class="edge">
<title>Node19&#45;&gt;Node20</title>
<path fill="none" stroke="#191970" d="M438.2698,-113.2003C441.2208,-112.7797 444.1454,-112.3765 447,-112 593.9974,-92.6105 769.6786,-76.1479 845.7596,-69.3441"/>
<polygon fill="#191970" stroke="#191970" points="846.1702,-72.8215 855.8206,-68.4489 845.5497,-65.8491 846.1702,-72.8215"/>
</g>
<!-- Node22&#45;&gt;Node5 -->
<g id="edge30" class="edge">
<title>Node22&#45;&gt;Node5</title>
<path fill="none" stroke="#191970" d="M855.5117,-224.3733C835.356,-215.3435 805.012,-201.7494 782.382,-191.6111"/>
<polygon fill="#191970" stroke="#191970" points="783.7649,-188.3955 773.2079,-187.5011 780.9029,-194.7838 783.7649,-188.3955"/>
</g>
<!-- Node22&#45;&gt;Node6 -->
<g id="edge28" class="edge">
<title>Node22&#45;&gt;Node6</title>
<path fill="none" stroke="#191970" d="M874.765,-224.4411C870.9263,-210.1159 861.7246,-183.1479 844,-168 812.1632,-140.7914 764.1321,-129.6406 732.1848,-125.0939"/>
<polygon fill="#191970" stroke="#191970" points="732.3773,-121.5901 722.0137,-123.7915 731.4882,-128.5334 732.3773,-121.5901"/>
</g>
<!-- Node22&#45;&gt;Node8 -->
<g id="edge34" class="edge">
<title>Node22&#45;&gt;Node8</title>
<path fill="none" stroke="#191970" d="M866.2004,-224.2455C857.1322,-216.0549 843.9794,-204.1749 833.2755,-194.5069"/>
<polygon fill="#191970" stroke="#191970" points="835.4429,-191.7482 825.6758,-187.6427 830.7509,-196.9429 835.4429,-191.7482"/>
</g>
<!-- Node22&#45;&gt;Node20 -->
<g id="edge32" class="edge">
<title>Node22&#45;&gt;Node20</title>
<path fill="none" stroke="#191970" d="M935.8039,-225.0576C938.5729,-224.6886 941.3157,-224.334 944,-224 984.0017,-219.0233 1277.9476,-217.8843 1305,-188 1359.1043,-128.2319 1035.2413,-83.8252 922.0164,-70.2954"/>
<polygon fill="#191970" stroke="#191970" points="922.3873,-66.815 912.046,-69.119 921.567,-73.7667 922.3873,-66.815"/>
</g>
<!-- Node22&#45;&gt;Node23 -->
<g id="edge29" class="edge">
<title>Node22&#45;&gt;Node23</title>
<path fill="none" stroke="#191970" d="M935.8004,-225.0292C938.5704,-224.6678 941.3143,-224.3225 944,-224 1119.0255,-202.98 1165.1967,-217.4649 1339,-188 1340.2703,-187.7846 1341.5598,-187.5501 1342.8594,-187.3002"/>
<polygon fill="#191970" stroke="#191970" points="1343.8323,-190.671 1352.8721,-185.1453 1342.3595,-183.8277 1343.8323,-190.671"/>
</g>
<!-- Node24 -->
<g id="node25" class="node">
<title>Node24</title>
<polygon fill="none" stroke="#bfbfbf" points="1173,-168.5 1173,-187.5 1219,-187.5 1219,-168.5 1173,-168.5"/>
<text text-anchor="middle" x="1196" y="-175.5" font-family="Helvetica,sans-Serif" font-size="10.00" fill="#000000">cstring</text>
</g>
<!-- Node22&#45;&gt;Node24 -->
<g id="edge31" class="edge">
<title>Node22&#45;&gt;Node24</title>
<path fill="none" stroke="#191970" d="M935.5867,-225.0721C1006.3672,-214.2208 1120.4067,-196.5087 1162.7441,-187.8879"/>
<polygon fill="#191970" stroke="#191970" points="1163.6685,-191.2685 1172.6886,-185.7108 1162.1714,-184.4305 1163.6685,-191.2685"/>
</g>
<!-- Node25 -->
<g id="node26" class="node">
<title>Node25</title>
<polygon fill="none" stroke="#bfbfbf" points="1237.5,-168.5 1237.5,-187.5 1296.5,-187.5 1296.5,-168.5 1237.5,-168.5"/>
<text text-anchor="middle" x="1267" y="-175.5" font-family="Helvetica,sans-Serif" font-size="10.00" fill="#000000">stdexcept</text>
</g>
<!-- Node22&#45;&gt;Node25 -->
<g id="edge33" class="edge">
<title>Node22&#45;&gt;Node25</title>
<path fill="none" stroke="#191970" d="M935.8155,-225.1466C938.5815,-224.7538 941.3204,-224.3698 944,-224 1066.8378,-207.0496 1101.2876,-211.5957 1227.242,-187.9368"/>
<polygon fill="#191970" stroke="#191970" points="1228.1053,-191.3354 1237.2757,-186.0293 1226.7979,-184.4586 1228.1053,-191.3354"/>
</g>
<!-- Node26 -->
<g id="node27" class="node">
<title>Node26</title>
<polygon fill="none" stroke="#bfbfbf" points="892.5,-168.5 892.5,-187.5 937.5,-187.5 937.5,-168.5 892.5,-168.5"/>
<text text-anchor="middle" x="915" y="-175.5" font-family="Helvetica,sans-Serif" font-size="10.00" fill="#000000">climits</text>
</g>
<!-- Node22&#45;&gt;Node26 -->
<g id="edge35" class="edge">
<title>Node22&#45;&gt;Node26</title>
<path fill="none" stroke="#191970" d="M883.6191,-224.2455C888.9046,-216.4564 896.4541,-205.3308 902.8238,-195.9439"/>
<polygon fill="#191970" stroke="#191970" points="905.7379,-197.8827 908.4568,-187.6427 899.9455,-193.9522 905.7379,-197.8827"/>
</g>
<!-- Node27 -->
<g id="node28" class="node">
<title>Node27</title>
<g id="a_node28"><a xlink:href="../../d7/df8/Types_8h.html" target="_top" xlink:title="MemoryResources/Types.h">
<polygon fill="none" stroke="#000000" points="955.5,-168.5 955.5,-187.5 1092.5,-187.5 1092.5,-168.5 955.5,-168.5"/>
<text text-anchor="middle" x="1024" y="-175.5" font-family="Helvetica,sans-Serif" font-size="10.00" fill="#000000">MemoryResources/Types.h</text>
</a>
</g>
</g>
<!-- Node22&#45;&gt;Node27 -->
<g id="edge36" class="edge">
<title>Node22&#45;&gt;Node27</title>
<path fill="none" stroke="#191970" d="M902.2702,-224.3733C926.3966,-215.1822 962.9362,-201.2624 989.6877,-191.0713"/>
<polygon fill="#191970" stroke="#191970" points="990.9607,-194.3318 999.0596,-187.5011 988.4687,-187.7904 990.9607,-194.3318"/>
</g>
<!-- Node28 -->
<g id="node29" class="node">
<title>Node28</title>
<polygon fill="none" stroke="#bfbfbf" points="1111,-168.5 1111,-187.5 1155,-187.5 1155,-168.5 1111,-168.5"/>
<text text-anchor="middle" x="1133" y="-175.5" font-family="Helvetica,sans-Serif" font-size="10.00" fill="#000000">cerrno</text>
</g>
<!-- Node22&#45;&gt;Node28 -->
<g id="edge37" class="edge">
<title>Node22&#45;&gt;Node28</title>
<path fill="none" stroke="#191970" d="M931.2094,-224.4454C976.7932,-216.035 1043.533,-202.8399 1101,-188 1101.0986,-187.9745 1101.1974,-187.9489 1101.2963,-187.9232"/>
<polygon fill="#191970" stroke="#191970" points="1102.0214,-191.3551 1110.7026,-185.2815 1100.1287,-184.6158 1102.0214,-191.3551"/>
</g>
<!-- Node30&#45;&gt;Node1 -->
<g id="edge42" class="edge">
<title>Node30&#45;&gt;Node1</title>
<path fill="none" stroke="#191970" d="M602.3095,-347.4639C638.7677,-337.3701 686.973,-324.024 725.4012,-313.3848"/>
<polygon fill="#191970" stroke="#191970" points="726.75,-316.6431 735.4536,-310.6017 724.8822,-309.8969 726.75,-316.6431"/>
</g>
<!-- Node30&#45;&gt;Node2 -->
<g id="edge43" class="edge">
<title>Node30&#45;&gt;Node2</title>
<path fill="none" stroke="#191970" d="M605.2094,-357.1853C686.1356,-349.0522 829.4854,-332.2065 877,-311 896.9035,-302.1168 895.6559,-290.0432 915,-280 955.3142,-259.0694 1006.2957,-246.6951 1040.6279,-240.1447"/>
<polygon fill="#191970" stroke="#191970" points="1041.5127,-243.541 1050.718,-238.2958 1040.2509,-236.6556 1041.5127,-243.541"/>
</g>
<!-- Node30&#45;&gt;Node31 -->
<g id="edge40" class="edge">
<title>Node30&#45;&gt;Node31</title>
<path fill="none" stroke="#191970" d="M490.788,-356.488C414.4065,-348.1142 275.0319,-331.6195 157,-311 155.7416,-310.7802 154.4717,-310.5535 153.1932,-310.3208"/>
<polygon fill="#191970" stroke="#191970" points="153.7473,-306.8636 143.2697,-308.4349 152.4404,-313.7405 153.7473,-306.8636"/>
</g>
<!-- Node30&#45;&gt;Node32 -->
<g id="edge48" class="edge">
<title>Node30&#45;&gt;Node32</title>
<path fill="none" stroke="#191970" d="M490.8175,-358.0192C403.8202,-350.5752 242.7547,-334.154 190,-311 170.0418,-302.2403 170.6741,-291.24 152,-280 129.7194,-266.5892 102.8163,-255.1921 81.3126,-247.097"/>
<polygon fill="#191970" stroke="#191970" points="82.442,-243.7832 71.8485,-243.6146 80.0247,-250.3526 82.442,-243.7832"/>
</g>
<!-- Node33 -->
<g id="node34" class="node">
<title>Node33</title>
<polygon fill="none" stroke="#bfbfbf" points="282.5,-286 282.5,-305 377.5,-305 377.5,-286 282.5,-286"/>
<text text-anchor="middle" x="330" y="-293" font-family="Helvetica,sans-Serif" font-size="10.00" fill="#000000">TDatabasePDG.h</text>
</g>
<!-- Node30&#45;&gt;Node33 -->
<g id="edge44" class="edge">
<title>Node30&#45;&gt;Node33</title>
<path fill="none" stroke="#191970" d="M499.0765,-347.4639C460.407,-335.5792 407.0672,-319.1858 370.7066,-308.0108"/>
<polygon fill="#191970" stroke="#191970" points="371.5146,-304.5976 360.9276,-305.0053 369.4581,-311.2887 371.5146,-304.5976"/>
</g>
<!-- Node34 -->
<g id="node35" class="node">
<title>Node34</title>
<polygon fill="none" stroke="#bfbfbf" points="396,-286 396,-305 488,-305 488,-286 396,-286"/>
<text text-anchor="middle" x="442" y="-293" font-family="Helvetica,sans-Serif" font-size="10.00" fill="#000000">TLorentzVector.h</text>
</g>
<!-- Node30&#45;&gt;Node34 -->
<g id="edge45" class="edge">
<title>Node30&#45;&gt;Node34</title>
<path fill="none" stroke="#191970" d="M524.2115,-347.4639C506.7465,-336.4247 483.1271,-321.4954 465.6862,-310.4715"/>
<polygon fill="#191970" stroke="#191970" points="467.5173,-307.4883 457.1943,-305.1039 463.7772,-313.4054 467.5173,-307.4883"/>
</g>
<!-- Node35 -->
<g id="node36" class="node">
<title>Node35</title>
<polygon fill="none" stroke="#bfbfbf" points="506.5,-286 506.5,-305 589.5,-305 589.5,-286 506.5,-286"/>
<text text-anchor="middle" x="548" y="-293" font-family="Helvetica,sans-Serif" font-size="10.00" fill="#000000">TMCProcess.h</text>
</g>
<!-- Node30&#45;&gt;Node35 -->
<g id="edge46" class="edge">
<title>Node30&#45;&gt;Node35</title>
<path fill="none" stroke="#191970" d="M548,-347.2967C548,-337.7699 548,-325.3954 548,-315.1306"/>
<polygon fill="#191970" stroke="#191970" points="551.5001,-315.0549 548,-305.055 544.5001,-315.055 551.5001,-315.0549"/>
</g>
<!-- Node36 -->
<g id="node37" class="node">
<title>Node36</title>
<polygon fill="none" stroke="#bfbfbf" points="924.5,-286 924.5,-305 977.5,-305 977.5,-286 924.5,-286"/>
<text text-anchor="middle" x="951" y="-293" font-family="Helvetica,sans-Serif" font-size="10.00" fill="#000000">TMath.h</text>
</g>
<!-- Node30&#45;&gt;Node36 -->
<g id="edge47" class="edge">
<title>Node30&#45;&gt;Node36</title>
<path fill="none" stroke="#191970" d="M605.1896,-358.2766C677.1863,-352.0709 804.246,-338.1588 910,-311 912.8331,-310.2724 915.7397,-309.4139 918.6339,-308.4802"/>
<polygon fill="#191970" stroke="#191970" points="920.0189,-311.7037 928.3013,-305.0967 917.7065,-305.0967 920.0189,-311.7037"/>
</g>
<!-- Node37 -->
<g id="node38" class="node">
<title>Node37</title>
<polygon fill="none" stroke="#bfbfbf" points="608,-286 608,-305 694,-305 694,-286 608,-286"/>
<text text-anchor="middle" x="651" y="-293" font-family="Helvetica,sans-Serif" font-size="10.00" fill="#000000">TParticlePDG.h</text>
</g>
<!-- Node30&#45;&gt;Node37 -->
<g id="edge49" class="edge">
<title>Node30&#45;&gt;Node37</title>
<path fill="none" stroke="#191970" d="M571.1152,-347.4639C587.9302,-336.526 610.6163,-321.769 627.5162,-310.7759"/>
<polygon fill="#191970" stroke="#191970" points="629.7616,-313.4906 636.2358,-305.1039 625.9447,-307.6228 629.7616,-313.4906"/>
</g>
<!-- Node38 -->
<g id="node39" class="node">
<title>Node38</title>
<polygon fill="none" stroke="#bfbfbf" points="199.5,-286 199.5,-305 264.5,-305 264.5,-286 199.5,-286"/>
<text text-anchor="middle" x="232" y="-293" font-family="Helvetica,sans-Serif" font-size="10.00" fill="#000000">TVector3.h</text>
</g>
<!-- Node30&#45;&gt;Node38 -->
<g id="edge50" class="edge">
<title>Node30&#45;&gt;Node38</title>
<path fill="none" stroke="#191970" d="M490.9744,-354.8216C434.8843,-346.5694 347.1312,-331.7788 273,-311 270.2523,-310.2298 267.4297,-309.3527 264.6133,-308.4164"/>
<polygon fill="#191970" stroke="#191970" points="265.7735,-305.1144 255.1788,-305.0752 263.4367,-311.7128 265.7735,-305.1144"/>
</g>
<!-- Node31&#45;&gt;Node32 -->
<g id="edge41" class="edge">
<title>Node31&#45;&gt;Node32</title>
<path fill="none" stroke="#191970" d="M75.3708,-280.2977C69.4019,-271.7609 61.9162,-261.0545 55.6471,-252.0883"/>
<polygon fill="#191970" stroke="#191970" points="58.4835,-250.0368 49.8848,-243.8469 52.7466,-254.048 58.4835,-250.0368"/>
</g>
<!-- Node39&#45;&gt;Node2 -->
<g id="edge54" class="edge">
<title>Node39&#45;&gt;Node2</title>
<path fill="none" stroke="#191970" d="M1081.8211,-347.2988C1074.8133,-337.5503 1066.6866,-324.2728 1063,-311 1057.5967,-291.5462 1063.7743,-268.8747 1069.9566,-253.1939"/>
<polygon fill="#191970" stroke="#191970" points="1073.3558,-254.1492 1074.0951,-243.5802 1066.9263,-251.3814 1073.3558,-254.1492"/>
</g>
<!-- Node39&#45;&gt;Node36 -->
<g id="edge55" class="edge">
<title>Node39&#45;&gt;Node36</title>
<path fill="none" stroke="#191970" d="M1061.908,-347.4639C1037.5902,-336.0702 1004.4279,-320.5327 980.7138,-309.4219"/>
<polygon fill="#191970" stroke="#191970" points="982.0382,-306.1773 971.4979,-305.1039 979.0683,-312.5161 982.0382,-306.1773"/>
</g>
<!-- Node40 -->
<g id="node41" class="node">
<title>Node40</title>
<polygon fill="none" stroke="#bfbfbf" points="1142,-286 1142,-305 1216,-305 1216,-286 1142,-286"/>
<text text-anchor="middle" x="1179" y="-293" font-family="Helvetica,sans-Serif" font-size="10.00" fill="#000000">TVirtualMC.h</text>
</g>
<!-- Node39&#45;&gt;Node40 -->
<g id="edge52" class="edge">
<title>Node39&#45;&gt;Node40</title>
<path fill="none" stroke="#191970" d="M1113.2878,-347.2967C1126.9169,-336.5537 1145.1402,-322.1895 1158.9388,-311.3129"/>
<polygon fill="#191970" stroke="#191970" points="1161.1911,-313.9942 1166.878,-305.055 1156.8578,-308.4967 1161.1911,-313.9942"/>
</g>
<!-- Node41 -->
<g id="node42" class="node">
<title>Node41</title>
<polygon fill="none" stroke="#bfbfbf" points="1072,-286 1072,-305 1124,-305 1124,-286 1072,-286"/>
<text text-anchor="middle" x="1098" y="-293" font-family="Helvetica,sans-Serif" font-size="10.00" fill="#000000">ostream</text>
</g>
<!-- Node39&#45;&gt;Node41 -->
<g id="edge53" class="edge">
<title>Node39&#45;&gt;Node41</title>
<path fill="none" stroke="#191970" d="M1094.9077,-347.2967C1095.4764,-337.7699 1096.2152,-325.3954 1096.828,-315.1306"/>
<polygon fill="#191970" stroke="#191970" points="1100.3273,-315.2458 1097.4296,-305.055 1093.3397,-314.8286 1100.3273,-315.2458"/>
</g>
<!-- Node42&#45;&gt;Node2 -->
<g id="edge57" class="edge">
<title>Node42&#45;&gt;Node2</title>
<path fill="none" stroke="#191970" d="M1267.6617,-347.4874C1271.1317,-329.3252 1273.7434,-298.8464 1258,-280 1240.1669,-258.6519 1164.3786,-245.1203 1117.3207,-238.61"/>
<polygon fill="#191970" stroke="#191970" points="1117.55,-235.1095 1107.1742,-237.253 1116.622,-242.0478 1117.55,-235.1095"/>
</g>
</g>
</svg>
        <g id="navigator" transform="translate(0 0)" fill="#404254">
                <rect fill="#f2f5e9" fill-opacity="0.5" stroke="#606060" stroke-width=".5" x="0" y="0" width="60" height="60"/>
                <use id="zoomplus" xlink:href="#zoomPlus" x="17" y="9" onmousedown="handleZoom(evt,'in')"/>
                <use id="zoomminus" xlink:href="#zoomMin" x="42" y="9" onmousedown="handleZoom(evt,'out')"/>
                <use id="reset" xlink:href="#resetDef" x="30" y="36" onmousedown="handleReset()"/>
                <g id="arrowUp" xlink:href="#dirArrow" transform="translate(30 24)" onmousedown="handlePan(0,-1)">
                  <use xlink:href="#rim" fill="#404040">
                        <set attributeName="fill" to="#808080" begin="arrowUp.mouseover" end="arrowUp.mouseout"/>
                  </use>
                  <path fill="none" stroke="white" stroke-width="1.5" d="M0,-3.0v7 M-2.5,-0.5L0,-3.0L2.5,-0.5"/>
                </g>
                <g id="arrowRight" xlink:href="#dirArrow" transform="rotate(90) translate(36 -43)" onmousedown="handlePan(1,0)">
                  <use xlink:href="#rim" fill="#404040">
                        <set attributeName="fill" to="#808080" begin="arrowRight.mouseover" end="arrowRight.mouseout"/>
                  </use>
                  <path fill="none" stroke="white" stroke-width="1.5" d="M0,-3.0v7 M-2.5,-0.5L0,-3.0L2.5,-0.5"/>
                </g>
                <g id="arrowDown" xlink:href="#dirArrow" transform="rotate(180) translate(-30 -48)" onmousedown="handlePan(0,1)">
                  <use xlink:href="#rim" fill="#404040">
                        <set attributeName="fill" to="#808080" begin="arrowDown.mouseover" end="arrowDown.mouseout"/>
                  </use>
                  <path fill="none" stroke="white" stroke-width="1.5" d="M0,-3.0v7 M-2.5,-0.5L0,-3.0L2.5,-0.5"/>
                </g>
                <g id="arrowLeft" xlink:href="#dirArrow" transform="rotate(270) translate(-36 17)" onmousedown="handlePan(-1,0)">
                  <use xlink:href="#rim" fill="#404040">
                        <set attributeName="fill" to="#808080" begin="arrowLeft.mouseover" end="arrowLeft.mouseout"/>
                  </use>
                  <path fill="none" stroke="white" stroke-width="1.5" d="M0,-3.0v7 M-2.5,-0.5L0,-3.0L2.5,-0.5"/>
                </g>
        </g>
        <svg viewBox="0 0 15 15" width="100%" height="30px" preserveAspectRatio="xMaxYMin meet">
         <g id="arrow_out" transform="scale(0.3 0.3)">
          <a xlink:href="simulation_2include_2SimulationDataFormat_2Stack_8h__incl_org.svg" target="_base">
           <rect id="button" ry="5" rx="5" y="6" x="6" height="38" width="38"
                fill="#f2f5e9" fill-opacity="0.5" stroke="#606060" stroke-width="1.0"/>
           <path id="arrow"
             d="M 11.500037,31.436501 C 11.940474,20.09759 22.043105,11.32322 32.158766,21.979434 L 37.068811,17.246167 C 37.068811,17.246167 37.088388,32 37.088388,32 L 22.160133,31.978069 C 22.160133,31.978069 26.997745,27.140456 26.997745,27.140456 C 18.528582,18.264221 13.291696,25.230495 11.500037,31.436501 z"
             style="fill:#404040;"/>
          </a>
         </g>
        </svg>
</svg>
