<?xml version="1.0" encoding="UTF-8" standalone="no"?>
<!DOCTYPE svg PUBLIC "-//W3C//DTD SVG 1.1//EN"
 "http://www.w3.org/Graphics/SVG/1.1/DTD/svg11.dtd">
<!-- Generated by graphviz version 2.40.1 (20161225.0304)
 -->
<!-- Title: /home/runner/work/AliceO2/AliceO2/Common/Utils/test/testCompStream.cxx Pages: 1 -->
<svg width="716pt" height="173pt"
 viewBox="0.00 0.00 715.50 173.00" xmlns="http://www.w3.org/2000/svg" xmlns:xlink="http://www.w3.org/1999/xlink">
<g id="graph0" class="graph" transform="scale(1 1) rotate(0) translate(4 169)">
<title>/home/runner/work/AliceO2/AliceO2/Common/Utils/test/testCompStream.cxx</title>
<!-- Node0 -->
<g id="node1" class="node">
<title>Node0</title>
<polygon fill="#bfbfbf" stroke="#000000" points="422.5,-123.5 422.5,-164.5 562.5,-164.5 562.5,-123.5 422.5,-123.5"/>
<text text-anchor="start" x="430.5" y="-152.5" font-family="Helvetica,sans-Serif" font-size="10.00" fill="#000000">/home/runner/work/AliceO2</text>
<text text-anchor="start" x="430.5" y="-141.5" font-family="Helvetica,sans-Serif" font-size="10.00" fill="#000000">/AliceO2/Common/Utils/test</text>
<text text-anchor="middle" x="492.5" y="-130.5" font-family="Helvetica,sans-Serif" font-size="10.00" fill="#000000">/testCompStream.cxx</text>
</g>
<!-- Node1 -->
<g id="node2" class="node">
<title>Node1</title>
<g id="a_node2"><a xlink:href="../../dd/ded/CompStream_8h.html" target="_top" xlink:title="Implementation of iostreams with compression filter. ">
<polygon fill="none" stroke="#000000" points="88.5,-67.5 88.5,-86.5 234.5,-86.5 234.5,-67.5 88.5,-67.5"/>
<text text-anchor="middle" x="161.5" y="-74.5" font-family="Helvetica,sans-Serif" font-size="10.00" fill="#000000">CommonUtils/CompStream.h</text>
</a>
</g>
</g>
<!-- Node0&#45;&gt;Node1 -->
<g id="edge1" class="edge">
<title>Node0&#45;&gt;Node1</title>
<path fill="none" stroke="#191970" d="M422.3034,-129.791C361.6153,-117.5067 274.9914,-99.9726 218.5075,-88.5393"/>
<polygon fill="#191970" stroke="#191970" points="219.1671,-85.1019 208.6715,-86.5483 217.7783,-91.9627 219.1671,-85.1019"/>
</g>
<!-- Node7 -->
<g id="node8" class="node">
<title>Node7</title>
<polygon fill="none" stroke="#bfbfbf" points="253,-67.5 253,-86.5 372,-86.5 372,-67.5 253,-67.5"/>
<text text-anchor="middle" x="312.5" y="-74.5" font-family="Helvetica,sans-Serif" font-size="10.00" fill="#000000">boost/test/unit_test.hpp</text>
</g>
<!-- Node0&#45;&gt;Node7 -->
<g id="edge7" class="edge">
<title>Node0&#45;&gt;Node7</title>
<path fill="none" stroke="#191970" d="M437.0253,-123.3511C408.0262,-112.557 373.3904,-99.6647 348.0175,-90.2204"/>
<polygon fill="#191970" stroke="#191970" points="349.0306,-86.863 338.4378,-86.6546 346.5887,-93.4232 349.0306,-86.863"/>
</g>
<!-- Node8 -->
<g id="node9" class="node">
<title>Node8</title>
<polygon fill="none" stroke="#bfbfbf" points="390,-67.5 390,-86.5 497,-86.5 497,-67.5 390,-67.5"/>
<text text-anchor="middle" x="443.5" y="-74.5" font-family="Helvetica,sans-Serif" font-size="10.00" fill="#000000">boost/filesystem.hpp</text>
</g>
<!-- Node0&#45;&gt;Node8 -->
<g id="edge8" class="edge">
<title>Node0&#45;&gt;Node8</title>
<path fill="none" stroke="#191970" d="M477.2647,-123.168C470.6758,-114.1587 463.0385,-103.7159 456.6958,-95.0432"/>
<polygon fill="#191970" stroke="#191970" points="459.3812,-92.7861 450.6529,-86.7805 453.731,-96.9183 459.3812,-92.7861"/>
</g>
<!-- Node9 -->
<g id="node10" class="node">
<title>Node9</title>
<polygon fill="none" stroke="#bfbfbf" points="515.5,-67.5 515.5,-86.5 569.5,-86.5 569.5,-67.5 515.5,-67.5"/>
<text text-anchor="middle" x="542.5" y="-74.5" font-family="Helvetica,sans-Serif" font-size="10.00" fill="#000000">iostream</text>
</g>
<!-- Node0&#45;&gt;Node9 -->
<g id="edge9" class="edge">
<title>Node0&#45;&gt;Node9</title>
<path fill="none" stroke="#191970" d="M508.0462,-123.168C514.7696,-114.1587 522.5628,-103.7159 529.0349,-95.0432"/>
<polygon fill="#191970" stroke="#191970" points="532.0253,-96.8881 535.2011,-86.7805 526.4152,-92.7015 532.0253,-96.8881"/>
</g>
<!-- Node10 -->
<g id="node11" class="node">
<title>Node10</title>
<polygon fill="none" stroke="#bfbfbf" points="587.5,-67.5 587.5,-86.5 637.5,-86.5 637.5,-67.5 587.5,-67.5"/>
<text text-anchor="middle" x="612.5" y="-74.5" font-family="Helvetica,sans-Serif" font-size="10.00" fill="#000000">iomanip</text>
</g>
<!-- Node0&#45;&gt;Node10 -->
<g id="edge10" class="edge">
<title>Node0&#45;&gt;Node10</title>
<path fill="none" stroke="#191970" d="M529.4831,-123.3511C547.7894,-113.1301 569.4649,-101.0279 586.0764,-91.7532"/>
<polygon fill="#191970" stroke="#191970" points="588.1831,-94.5856 595.2081,-86.6546 584.7706,-88.4737 588.1831,-94.5856"/>
</g>
<!-- Node11 -->
<g id="node12" class="node">
<title>Node11</title>
<polygon fill="none" stroke="#bfbfbf" points="655.5,-67.5 655.5,-86.5 707.5,-86.5 707.5,-67.5 655.5,-67.5"/>
<text text-anchor="middle" x="681.5" y="-74.5" font-family="Helvetica,sans-Serif" font-size="10.00" fill="#000000">sstream</text>
</g>
<!-- Node0&#45;&gt;Node11 -->
<g id="edge11" class="edge">
<title>Node0&#45;&gt;Node11</title>
<path fill="none" stroke="#191970" d="M550.4907,-123.4425C581.5692,-112.4252 618.8732,-99.2011 645.7124,-89.6866"/>
<polygon fill="#191970" stroke="#191970" points="647.1958,-92.8742 655.4517,-86.2341 644.8569,-86.2765 647.1958,-92.8742"/>
</g>
<!-- Node2 -->
<g id="node3" class="node">
<title>Node2</title>
<polygon fill="none" stroke="#bfbfbf" points="0,-6 0,-25 49,-25 49,-6 0,-6"/>
<text text-anchor="middle" x="24.5" y="-13" font-family="Helvetica,sans-Serif" font-size="10.00" fill="#000000">istream</text>
</g>
<!-- Node1&#45;&gt;Node2 -->
<g id="edge2" class="edge">
<title>Node1&#45;&gt;Node2</title>
<path fill="none" stroke="#191970" d="M139.7765,-67.3565C118.9162,-58.0824 86.5261,-43.6463 58.5,-31 57.3026,-30.4597 56.0819,-29.9079 54.849,-29.3498"/>
<polygon fill="#191970" stroke="#191970" points="55.8986,-25.9824 45.3463,-25.0341 53.004,-32.3559 55.8986,-25.9824"/>
</g>
<!-- Node3 -->
<g id="node4" class="node">
<title>Node3</title>
<polygon fill="none" stroke="#bfbfbf" points="67.5,-6 67.5,-25 117.5,-25 117.5,-6 67.5,-6"/>
<text text-anchor="middle" x="92.5" y="-13" font-family="Helvetica,sans-Serif" font-size="10.00" fill="#000000">fstream</text>
</g>
<!-- Node1&#45;&gt;Node3 -->
<g id="edge3" class="edge">
<title>Node1&#45;&gt;Node3</title>
<path fill="none" stroke="#191970" d="M150.7188,-67.3906C140.1474,-57.9683 123.8175,-43.4134 111.1397,-32.1137"/>
<polygon fill="#191970" stroke="#191970" points="113.2272,-29.2858 103.4333,-25.2449 108.5696,-34.5114 113.2272,-29.2858"/>
</g>
<!-- Node4 -->
<g id="node5" class="node">
<title>Node4</title>
<polygon fill="none" stroke="#bfbfbf" points="135.5,-6 135.5,-25 187.5,-25 187.5,-6 135.5,-6"/>
<text text-anchor="middle" x="161.5" y="-13" font-family="Helvetica,sans-Serif" font-size="10.00" fill="#000000">ostream</text>
</g>
<!-- Node1&#45;&gt;Node4 -->
<g id="edge4" class="edge">
<title>Node1&#45;&gt;Node4</title>
<path fill="none" stroke="#191970" d="M161.5,-67.3906C161.5,-58.8657 161.5,-46.1392 161.5,-35.4235"/>
<polygon fill="#191970" stroke="#191970" points="165.0001,-35.2448 161.5,-25.2449 158.0001,-35.2449 165.0001,-35.2448"/>
</g>
<!-- Node5 -->
<g id="node6" class="node">
<title>Node5</title>
<polygon fill="none" stroke="#bfbfbf" points="206,-6 206,-25 247,-25 247,-6 206,-6"/>
<text text-anchor="middle" x="226.5" y="-13" font-family="Helvetica,sans-Serif" font-size="10.00" fill="#000000">string</text>
</g>
<!-- Node1&#45;&gt;Node5 -->
<g id="edge5" class="edge">
<title>Node1&#45;&gt;Node5</title>
<path fill="none" stroke="#191970" d="M171.6563,-67.3906C181.5199,-58.0581 196.7055,-43.6902 208.5987,-32.4374"/>
<polygon fill="#191970" stroke="#191970" points="211.3421,-34.6601 216.2006,-25.2449 206.5311,-29.5753 211.3421,-34.6601"/>
</g>
<!-- Node6 -->
<g id="node7" class="node">
<title>Node6</title>
<polygon fill="none" stroke="#bfbfbf" points="265,-.5 265,-30.5 386,-30.5 386,-.5 265,-.5"/>
<text text-anchor="start" x="273" y="-18.5" font-family="Helvetica,sans-Serif" font-size="10.00" fill="#000000">boost/iostreams/filtering</text>
<text text-anchor="middle" x="325.5" y="-7.5" font-family="Helvetica,sans-Serif" font-size="10.00" fill="#000000">_streambuf.hpp</text>
</g>
<!-- Node1&#45;&gt;Node6 -->
<g id="edge6" class="edge">
<title>Node1&#45;&gt;Node6</title>
<path fill="none" stroke="#191970" d="M187.125,-67.3906C210.759,-58.5279 246.5028,-45.1239 275.7416,-34.1594"/>
<polygon fill="#191970" stroke="#191970" points="277.2467,-37.333 285.3811,-30.5446 274.7888,-30.7787 277.2467,-37.333"/>
</g>
</g>
</svg>
