<?xml version="1.0" encoding="UTF-8" standalone="no"?>
<!DOCTYPE svg PUBLIC "-//W3C//DTD SVG 1.1//EN"
 "http://www.w3.org/Graphics/SVG/1.1/DTD/svg11.dtd">
<!-- Generated by graphviz version 2.40.1 (20161225.0304)
 -->
<!-- Title: qThreadParamCls&lt; S &gt; Pages: 1 -->
<svg width="222pt" height="354pt"
 viewBox="0.00 0.00 221.50 354.00" xmlns="http://www.w3.org/2000/svg" xmlns:xlink="http://www.w3.org/1999/xlink">
<g id="graph0" class="graph" transform="scale(1 1) rotate(0) translate(4 350)">
<title>qThreadParamCls&lt; S &gt;</title>
<!-- Node2 -->
<g id="node1" class="node">
<title>Node2</title>
<polygon fill="#bfbfbf" stroke="#000000" points="32.5,-.5 32.5,-57.5 152.5,-57.5 152.5,-.5 32.5,-.5"/>
<text text-anchor="middle" x="92.5" y="-45.5" font-family="Helvetica,sans-Serif" font-size="10.00" fill="#000000">qThreadParamCls&lt; S &gt;</text>
<polyline fill="none" stroke="#000000" points="32.5,-38.5 152.5,-38.5 "/>
<text text-anchor="middle" x="92.5" y="-26.5" font-family="Helvetica,sans-Serif" font-size="10.00" fill="#000000"> </text>
<polyline fill="none" stroke="#000000" points="32.5,-19.5 152.5,-19.5 "/>
<text text-anchor="middle" x="92.5" y="-7.5" font-family="Helvetica,sans-Serif" font-size="10.00" fill="#000000"> </text>
</g>
<!-- Node3 -->
<g id="node2" class="node">
<title>Node3</title>
<g id="a_node2"><a xlink:href="../../d7/d44/classqThreadParam.html" target="_top" xlink:title="{qThreadParam\n||+ qThreadParam()\l+ ~qThreadParam()\l+ WaitForTask()\l}">
<polygon fill="none" stroke="#000000" points="42,-95.5 42,-174.5 143,-174.5 143,-95.5 42,-95.5"/>
<text text-anchor="middle" x="92.5" y="-162.5" font-family="Helvetica,sans-Serif" font-size="10.00" fill="#000000">qThreadParam</text>
<polyline fill="none" stroke="#000000" points="42,-155.5 143,-155.5 "/>
<text text-anchor="middle" x="92.5" y="-143.5" font-family="Helvetica,sans-Serif" font-size="10.00" fill="#000000"> </text>
<polyline fill="none" stroke="#000000" points="42,-136.5 143,-136.5 "/>
<text text-anchor="start" x="50" y="-124.5" font-family="Helvetica,sans-Serif" font-size="10.00" fill="#000000">+ qThreadParam()</text>
<text text-anchor="start" x="50" y="-113.5" font-family="Helvetica,sans-Serif" font-size="10.00" fill="#000000">+ ~qThreadParam()</text>
<text text-anchor="start" x="50" y="-102.5" font-family="Helvetica,sans-Serif" font-size="10.00" fill="#000000">+ WaitForTask()</text>
</a>
</g>
</g>
<!-- Node3&#45;&gt;Node2 -->
<g id="edge1" class="edge">
<title>Node3&#45;&gt;Node2</title>
<path fill="none" stroke="#191970" d="M92.5,-85.1394C92.5,-75.7425 92.5,-66.2136 92.5,-57.7397"/>
<polygon fill="none" stroke="#191970" points="89.0001,-85.2279 92.5,-95.2279 96.0001,-85.228 89.0001,-85.2279"/>
</g>
<!-- Node4 -->
<g id="node3" class="node">
<title>Node4</title>
<polygon fill="none" stroke="#bfbfbf" points="0,-261 0,-318 29,-318 29,-261 0,-261"/>
<text text-anchor="middle" x="14.5" y="-306" font-family="Helvetica,sans-Serif" font-size="10.00" fill="#000000">int</text>
<polyline fill="none" stroke="#bfbfbf" points="0,-299 29,-299 "/>
<text text-anchor="middle" x="14.5" y="-287" font-family="Helvetica,sans-Serif" font-size="10.00" fill="#000000"> </text>
<polyline fill="none" stroke="#bfbfbf" points="0,-280 29,-280 "/>
<text text-anchor="middle" x="14.5" y="-268" font-family="Helvetica,sans-Serif" font-size="10.00" fill="#000000"> </text>
</g>
<!-- Node4&#45;&gt;Node3 -->
<g id="edge2" class="edge">
<title>Node4&#45;&gt;Node3</title>
<path fill="none" stroke="#404040" d="M15.6839,-260.9784C17.5423,-240.9327 22.1617,-214.0452 33.5,-193 35.1287,-189.977 36.9677,-187.0128 38.9635,-184.1228"/>
<polygon fill="none" stroke="#404040" points="38.965,-184.1209 39.4485,-176.926 46.2759,-174.6051 45.7924,-181.8 38.965,-184.1209"/>
<text text-anchor="middle" x="61" y="-207" font-family="Helvetica,sans-Serif" font-size="10.00" fill="#000000"> #pinCPU</text>
<text text-anchor="middle" x="61" y="-196" font-family="Helvetica,sans-Serif" font-size="10.00" fill="#000000">+threadNum</text>
</g>
<!-- Node5 -->
<g id="node4" class="node">
<title>Node5</title>
<polygon fill="none" stroke="#bfbfbf" points="75,-261 75,-318 110,-318 110,-261 75,-261"/>
<text text-anchor="middle" x="92.5" y="-306" font-family="Helvetica,sans-Serif" font-size="10.00" fill="#000000">bool</text>
<polyline fill="none" stroke="#bfbfbf" points="75,-299 110,-299 "/>
<text text-anchor="middle" x="92.5" y="-287" font-family="Helvetica,sans-Serif" font-size="10.00" fill="#000000"> </text>
<polyline fill="none" stroke="#bfbfbf" points="75,-280 110,-280 "/>
<text text-anchor="middle" x="92.5" y="-268" font-family="Helvetica,sans-Serif" font-size="10.00" fill="#000000"> </text>
</g>
<!-- Node5&#45;&gt;Node3 -->
<g id="edge3" class="edge">
<title>Node5&#45;&gt;Node3</title>
<path fill="none" stroke="#404040" d="M92.5,-260.8018C92.5,-240.0482 92.5,-211.4322 92.5,-186.7355"/>
<polygon fill="none" stroke="#404040" points="92.5001,-186.6105 88.5,-180.6105 92.5,-174.6105 96.5,-180.6104 92.5001,-186.6105"/>
<text text-anchor="middle" x="117" y="-201.5" font-family="Helvetica,sans-Serif" font-size="10.00" fill="#000000"> #terminate</text>
</g>
<!-- Node6 -->
<g id="node5" class="node">
<title>Node6</title>
<g id="a_node5"><a xlink:href="../../d8/d72/classqSem.html" target="_top" xlink:title="{qSem\n||+ qSem()\l+ ~qSem()\l+ Lock()\l+ Unlock()\l+ Trylock()\l+ Query()\l}">
<polygon fill="none" stroke="#000000" points="132.5,-233.5 132.5,-345.5 196.5,-345.5 196.5,-233.5 132.5,-233.5"/>
<text text-anchor="middle" x="164.5" y="-333.5" font-family="Helvetica,sans-Serif" font-size="10.00" fill="#000000">qSem</text>
<polyline fill="none" stroke="#000000" points="132.5,-326.5 196.5,-326.5 "/>
<text text-anchor="middle" x="164.5" y="-314.5" font-family="Helvetica,sans-Serif" font-size="10.00" fill="#000000"> </text>
<polyline fill="none" stroke="#000000" points="132.5,-307.5 196.5,-307.5 "/>
<text text-anchor="start" x="140.5" y="-295.5" font-family="Helvetica,sans-Serif" font-size="10.00" fill="#000000">+ qSem()</text>
<text text-anchor="start" x="140.5" y="-284.5" font-family="Helvetica,sans-Serif" font-size="10.00" fill="#000000">+ ~qSem()</text>
<text text-anchor="start" x="140.5" y="-273.5" font-family="Helvetica,sans-Serif" font-size="10.00" fill="#000000">+ Lock()</text>
<text text-anchor="start" x="140.5" y="-262.5" font-family="Helvetica,sans-Serif" font-size="10.00" fill="#000000">+ Unlock()</text>
<text text-anchor="start" x="140.5" y="-251.5" font-family="Helvetica,sans-Serif" font-size="10.00" fill="#000000">+ Trylock()</text>
<text text-anchor="start" x="140.5" y="-240.5" font-family="Helvetica,sans-Serif" font-size="10.00" fill="#000000">+ Query()</text>
</a>
</g>
</g>
<!-- Node6&#45;&gt;Node3 -->
<g id="edge4" class="edge">
<title>Node6&#45;&gt;Node3</title>
<path fill="none" stroke="#404040" d="M156.5123,-233.2851C153.2833,-219.6456 148.7762,-205.4231 142.5,-193 141.1099,-190.2485 139.5615,-187.5196 137.8947,-184.8318"/>
<polygon fill="none" stroke="#404040" points="137.7428,-184.6099 131.0529,-181.9182 130.9645,-174.7076 137.6544,-177.3993 137.7428,-184.6099"/>
<text text-anchor="middle" x="182" y="-201.5" font-family="Helvetica,sans-Serif" font-size="10.00" fill="#000000"> #threadMutex</text>
</g>
</g>
</svg>
