<?xml version="1.0" encoding="UTF-8" standalone="no"?>
<!DOCTYPE svg PUBLIC "-//W3C//DTD SVG 1.1//EN"
 "http://www.w3.org/Graphics/SVG/1.1/DTD/svg11.dtd">
<!-- Generated by graphviz version 2.40.1 (20161225.0304)
 -->
<!-- Title: /home/runner/work/AliceO2/AliceO2/Detectors/EMCAL/reconstruction/include/EMCALReconstruction/CaloRawFitterGamma2.h Pages: 1 -->
<svg width="626pt" height="307pt"
 viewBox="0.00 0.00 626.38 307.00" xmlns="http://www.w3.org/2000/svg" xmlns:xlink="http://www.w3.org/1999/xlink">
<g id="graph0" class="graph" transform="scale(1 1) rotate(0) translate(4 303)">
<title>/home/runner/work/AliceO2/AliceO2/Detectors/EMCAL/reconstruction/include/EMCALReconstruction/CaloRawFitterGamma2.h</title>
<!-- Node0 -->
<g id="node1" class="node">
<title>Node0</title>
<polygon fill="#bfbfbf" stroke="#000000" points="164.189,-246.5 164.189,-298.5 382.189,-298.5 382.189,-246.5 164.189,-246.5"/>
<text text-anchor="start" x="172.189" y="-286.5" font-family="Helvetica,sans-Serif" font-size="10.00" fill="#000000">/home/runner/work/AliceO2</text>
<text text-anchor="start" x="172.189" y="-275.5" font-family="Helvetica,sans-Serif" font-size="10.00" fill="#000000">/AliceO2/Detectors/EMCAL</text>
<text text-anchor="start" x="172.189" y="-264.5" font-family="Helvetica,sans-Serif" font-size="10.00" fill="#000000">/reconstruction/include/EMCALReconstruction</text>
<text text-anchor="middle" x="273.189" y="-253.5" font-family="Helvetica,sans-Serif" font-size="10.00" fill="#000000">/CaloRawFitterGamma2.h</text>
</g>
<!-- Node1 -->
<g id="node2" class="node">
<title>Node1</title>
<polygon fill="none" stroke="#bfbfbf" points="112.689,-.5 112.689,-19.5 157.689,-19.5 157.689,-.5 112.689,-.5"/>
<text text-anchor="middle" x="135.189" y="-7.5" font-family="Helvetica,sans-Serif" font-size="10.00" fill="#000000">iosfwd</text>
</g>
<!-- Node0&#45;&gt;Node1 -->
<g id="edge1" class="edge">
<title>Node0&#45;&gt;Node1</title>
<path fill="none" stroke="#191970" d="M164.1115,-251.6414C104.9051,-233.859 37.5544,-201.4459 6.189,-143 -21.7738,-90.8944 56.946,-45.0386 103.5494,-23.3261"/>
<polygon fill="#191970" stroke="#191970" points="105.0156,-26.5044 112.6787,-19.1882 102.1257,-20.1287 105.0156,-26.5044"/>
</g>
<!-- Node2 -->
<g id="node3" class="node">
<title>Node2</title>
<polygon fill="none" stroke="#bfbfbf" points="15.189,-118 15.189,-137 53.189,-137 53.189,-118 15.189,-118"/>
<text text-anchor="middle" x="34.189" y="-125" font-family="Helvetica,sans-Serif" font-size="10.00" fill="#000000">array</text>
</g>
<!-- Node0&#45;&gt;Node2 -->
<g id="edge2" class="edge">
<title>Node0&#45;&gt;Node2</title>
<path fill="none" stroke="#191970" d="M224.0677,-246.3665C204.0609,-235.4553 180.8294,-222.4418 160.189,-210 123.0933,-187.6391 81.2463,-159.6721 56.3302,-142.7176"/>
<polygon fill="#191970" stroke="#191970" points="58.1889,-139.7487 47.9568,-137.0002 54.2417,-145.5296 58.1889,-139.7487"/>
</g>
<!-- Node3 -->
<g id="node4" class="node">
<title>Node3</title>
<polygon fill="none" stroke="#bfbfbf" points="71.189,-118 71.189,-137 121.189,-137 121.189,-118 71.189,-118"/>
<text text-anchor="middle" x="96.189" y="-125" font-family="Helvetica,sans-Serif" font-size="10.00" fill="#000000">optional</text>
</g>
<!-- Node0&#45;&gt;Node3 -->
<g id="edge3" class="edge">
<title>Node0&#45;&gt;Node3</title>
<path fill="none" stroke="#191970" d="M241.1357,-246.2416C204.6856,-216.3814 146.3105,-168.56 115.9604,-143.6969"/>
<polygon fill="#191970" stroke="#191970" points="117.7936,-140.6742 107.8399,-137.0445 113.3576,-146.0892 117.7936,-140.6742"/>
</g>
<!-- Node4 -->
<g id="node5" class="node">
<title>Node4</title>
<polygon fill="none" stroke="#bfbfbf" points="384.189,-.5 384.189,-19.5 440.189,-19.5 440.189,-.5 384.189,-.5"/>
<text text-anchor="middle" x="412.189" y="-7.5" font-family="Helvetica,sans-Serif" font-size="10.00" fill="#000000">Rtypes.h</text>
</g>
<!-- Node0&#45;&gt;Node4 -->
<g id="edge4" class="edge">
<title>Node0&#45;&gt;Node4</title>
<path fill="none" stroke="#191970" d="M382.507,-259.6167C456.1994,-244.6822 548.5378,-212.4647 597.189,-143 619.4235,-111.2534 627.1733,-86.4463 603.189,-56 584.568,-32.3619 500.8775,-19.4559 450.6627,-13.7174"/>
<polygon fill="#191970" stroke="#191970" points="450.8133,-10.213 440.491,-12.6004 450.0491,-17.1711 450.8133,-10.213"/>
</g>
<!-- Node5 -->
<g id="node6" class="node">
<title>Node5</title>
<g id="a_node6"><a xlink:href="../../d2/d39/CaloFitResults_8h.html" target="_top" xlink:title="EMCALReconstruction\l/CaloFitResults.h">
<polygon fill="none" stroke="#000000" points="177.689,-112.5 177.689,-142.5 294.689,-142.5 294.689,-112.5 177.689,-112.5"/>
<text text-anchor="start" x="185.689" y="-130.5" font-family="Helvetica,sans-Serif" font-size="10.00" fill="#000000">EMCALReconstruction</text>
<text text-anchor="middle" x="236.189" y="-119.5" font-family="Helvetica,sans-Serif" font-size="10.00" fill="#000000">/CaloFitResults.h</text>
</a>
</g>
</g>
<!-- Node0&#45;&gt;Node5 -->
<g id="edge5" class="edge">
<title>Node0&#45;&gt;Node5</title>
<path fill="none" stroke="#191970" d="M261.7763,-246.4494C257.301,-235.386 252.464,-222.2387 249.189,-210 244.1159,-191.0415 240.7732,-169.0682 238.7493,-152.5677"/>
<polygon fill="#191970" stroke="#191970" points="242.2229,-152.1369 237.6048,-142.6015 235.2687,-152.9356 242.2229,-152.1369"/>
</g>
<!-- Node6 -->
<g id="node7" class="node">
<title>Node6</title>
<g id="a_node7"><a xlink:href="../../dd/dda/DataFormats_2Detectors_2EMCAL_2include_2DataFormatsEMCAL_2Constants_8h.html" target="_top" xlink:title="DataFormatsEMCAL/Constants.h">
<polygon fill="none" stroke="#000000" points="220.189,-56.5 220.189,-75.5 384.189,-75.5 384.189,-56.5 220.189,-56.5"/>
<text text-anchor="middle" x="302.189" y="-63.5" font-family="Helvetica,sans-Serif" font-size="10.00" fill="#000000">DataFormatsEMCAL/Constants.h</text>
</a>
</g>
</g>
<!-- Node0&#45;&gt;Node6 -->
<g id="edge13" class="edge">
<title>Node0&#45;&gt;Node6</title>
<path fill="none" stroke="#191970" d="M345.2099,-246.4923C360.7166,-237.4009 375.1487,-225.4652 384.189,-210 411.111,-163.9449 356.0097,-109.0573 323.5849,-82.2958"/>
<polygon fill="#191970" stroke="#191970" points="325.5016,-79.3465 315.5102,-75.8217 321.1227,-84.8078 325.5016,-79.3465"/>
</g>
<!-- Node9 -->
<g id="node10" class="node">
<title>Node9</title>
<g id="a_node10"><a xlink:href="../../d5/da5/EMCAL_2reconstruction_2include_2EMCALReconstruction_2Bunch_8h.html" target="_top" xlink:title="EMCALReconstruction\l/Bunch.h">
<polygon fill="none" stroke="#000000" points="470.689,-112.5 470.689,-142.5 587.689,-142.5 587.689,-112.5 470.689,-112.5"/>
<text text-anchor="start" x="478.689" y="-130.5" font-family="Helvetica,sans-Serif" font-size="10.00" fill="#000000">EMCALReconstruction</text>
<text text-anchor="middle" x="529.189" y="-119.5" font-family="Helvetica,sans-Serif" font-size="10.00" fill="#000000">/Bunch.h</text>
</a>
</g>
</g>
<!-- Node0&#45;&gt;Node9 -->
<g id="edge14" class="edge">
<title>Node0&#45;&gt;Node9</title>
<path fill="none" stroke="#191970" d="M342.6439,-246.4146C367.1218,-236.2259 394.4418,-223.6936 418.189,-210 449.3593,-192.0259 482.0725,-166.8254 503.8414,-149.0177"/>
<polygon fill="#191970" stroke="#191970" points="506.1453,-151.6543 511.6227,-142.5852 501.6852,-146.2591 506.1453,-151.6543"/>
</g>
<!-- Node12 -->
<g id="node13" class="node">
<title>Node12</title>
<g id="a_node13"><a xlink:href="../../d2/d8c/EMCAL_2reconstruction_2include_2EMCALReconstruction_2CaloRawFitter_8h.html" target="_top" xlink:title="EMCALReconstruction\l/CaloRawFitter.h">
<polygon fill="none" stroke="#000000" points="258.689,-179.5 258.689,-209.5 375.689,-209.5 375.689,-179.5 258.689,-179.5"/>
<text text-anchor="start" x="266.689" y="-197.5" font-family="Helvetica,sans-Serif" font-size="10.00" fill="#000000">EMCALReconstruction</text>
<text text-anchor="middle" x="317.189" y="-186.5" font-family="Helvetica,sans-Serif" font-size="10.00" fill="#000000">/CaloRawFitter.h</text>
</a>
</g>
</g>
<!-- Node0&#45;&gt;Node12 -->
<g id="edge19" class="edge">
<title>Node0&#45;&gt;Node12</title>
<path fill="none" stroke="#191970" d="M288.0854,-246.0928C293.1386,-237.1348 298.752,-227.1838 303.6901,-218.43"/>
<polygon fill="#191970" stroke="#191970" points="306.8601,-219.934 308.7249,-209.5046 300.7632,-216.4947 306.8601,-219.934"/>
</g>
<!-- Node5&#45;&gt;Node1 -->
<g id="edge6" class="edge">
<title>Node5&#45;&gt;Node1</title>
<path fill="none" stroke="#191970" d="M216.7133,-112.436C204.8477,-102.7391 189.7898,-89.4677 178.189,-76 165.4049,-61.1586 153.4653,-42.2637 145.4272,-28.4973"/>
<polygon fill="#191970" stroke="#191970" points="148.2988,-26.4672 140.3075,-19.5109 142.2167,-29.9323 148.2988,-26.4672"/>
</g>
<!-- Node5&#45;&gt;Node4 -->
<g id="edge7" class="edge">
<title>Node5&#45;&gt;Node4</title>
<path fill="none" stroke="#191970" d="M223.1819,-112.3975C211.4497,-96.8665 197.9115,-72.6594 211.189,-56 221.3287,-43.2776 318.4192,-25.4286 373.8611,-16.1489"/>
<polygon fill="#191970" stroke="#191970" points="374.7336,-19.5521 384.0273,-14.4651 373.5897,-12.6462 374.7336,-19.5521"/>
</g>
<!-- Node5&#45;&gt;Node6 -->
<g id="edge8" class="edge">
<title>Node5&#45;&gt;Node6</title>
<path fill="none" stroke="#191970" d="M252.5036,-112.2977C262.1423,-103.3163 274.3581,-91.9334 284.2649,-82.702"/>
<polygon fill="#191970" stroke="#191970" points="286.6915,-85.2249 291.6216,-75.8469 281.9194,-80.1036 286.6915,-85.2249"/>
</g>
<!-- Node6&#45;&gt;Node1 -->
<g id="edge10" class="edge">
<title>Node6&#45;&gt;Node1</title>
<path fill="none" stroke="#191970" d="M273.4807,-56.3733C244.0718,-46.5116 198.4279,-31.2059 167.7044,-20.9034"/>
<polygon fill="#191970" stroke="#191970" points="168.4961,-17.4774 157.9022,-17.6164 166.2705,-24.1142 168.4961,-17.4774"/>
</g>
<!-- Node6&#45;&gt;Node4 -->
<g id="edge9" class="edge">
<title>Node6&#45;&gt;Node4</title>
<path fill="none" stroke="#191970" d="M321.3496,-56.2455C338.7001,-47.4125 364.4791,-34.2887 384.1473,-24.2758"/>
<polygon fill="#191970" stroke="#191970" points="385.9243,-27.2986 393.248,-19.6427 382.7485,-21.0605 385.9243,-27.2986"/>
</g>
<!-- Node7 -->
<g id="node8" class="node">
<title>Node7</title>
<polygon fill="none" stroke="#bfbfbf" points="272.689,-.5 272.689,-19.5 331.689,-19.5 331.689,-.5 272.689,-.5"/>
<text text-anchor="middle" x="302.189" y="-7.5" font-family="Helvetica,sans-Serif" font-size="10.00" fill="#000000">exception</text>
</g>
<!-- Node6&#45;&gt;Node7 -->
<g id="edge11" class="edge">
<title>Node6&#45;&gt;Node7</title>
<path fill="none" stroke="#191970" d="M302.189,-56.2455C302.189,-48.9382 302.189,-38.6944 302.189,-29.7046"/>
<polygon fill="#191970" stroke="#191970" points="305.6891,-29.6426 302.189,-19.6427 298.6891,-29.6427 305.6891,-29.6426"/>
</g>
<!-- Node8 -->
<g id="node9" class="node">
<title>Node8</title>
<polygon fill="none" stroke="#bfbfbf" points="547.189,-.5 547.189,-19.5 593.189,-19.5 593.189,-.5 547.189,-.5"/>
<text text-anchor="middle" x="570.189" y="-7.5" font-family="Helvetica,sans-Serif" font-size="10.00" fill="#000000">cstdint</text>
</g>
<!-- Node6&#45;&gt;Node8 -->
<g id="edge12" class="edge">
<title>Node6&#45;&gt;Node8</title>
<path fill="none" stroke="#191970" d="M347.9553,-56.4369C401.6048,-45.2265 489.2226,-26.9184 536.8364,-16.9692"/>
<polygon fill="#191970" stroke="#191970" points="537.8484,-20.3334 546.9211,-14.862 536.4166,-13.4814 537.8484,-20.3334"/>
</g>
<!-- Node9&#45;&gt;Node4 -->
<g id="edge18" class="edge">
<title>Node9&#45;&gt;Node4</title>
<path fill="none" stroke="#191970" d="M527.0456,-112.4236C524.1119,-96.6875 517.4785,-72.104 503.189,-56 489.0468,-40.0619 468.0858,-28.9421 449.8447,-21.6332"/>
<polygon fill="#191970" stroke="#191970" points="450.9206,-18.2985 440.3285,-18.0558 448.4574,-24.8509 450.9206,-18.2985"/>
</g>
<!-- Node9&#45;&gt;Node8 -->
<g id="edge15" class="edge">
<title>Node9&#45;&gt;Node8</title>
<path fill="none" stroke="#191970" d="M564.2214,-112.3603C579.0752,-103.9673 594.8546,-91.9543 603.189,-76 611.7361,-59.6384 600.2065,-40.7856 588.4932,-27.4296"/>
<polygon fill="#191970" stroke="#191970" points="590.773,-24.747 581.3542,-19.8954 585.6918,-29.5617 590.773,-24.747"/>
</g>
<!-- Node10 -->
<g id="node11" class="node">
<title>Node10</title>
<polygon fill="none" stroke="#bfbfbf" points="550.189,-56.5 550.189,-75.5 594.189,-75.5 594.189,-56.5 550.189,-56.5"/>
<text text-anchor="middle" x="572.189" y="-63.5" font-family="Helvetica,sans-Serif" font-size="10.00" fill="#000000">vector</text>
</g>
<!-- Node9&#45;&gt;Node10 -->
<g id="edge16" class="edge">
<title>Node9&#45;&gt;Node10</title>
<path fill="none" stroke="#191970" d="M539.8182,-112.2977C545.7871,-103.7609 553.2728,-93.0545 559.5419,-84.0883"/>
<polygon fill="#191970" stroke="#191970" points="562.4424,-86.048 565.3042,-75.8469 556.7056,-82.0368 562.4424,-86.048"/>
</g>
<!-- Node11 -->
<g id="node12" class="node">
<title>Node11</title>
<polygon fill="none" stroke="#bfbfbf" points="440.689,-56.5 440.689,-75.5 493.689,-75.5 493.689,-56.5 440.689,-56.5"/>
<text text-anchor="middle" x="467.189" y="-63.5" font-family="Helvetica,sans-Serif" font-size="10.00" fill="#000000">gsl/span</text>
</g>
<!-- Node9&#45;&gt;Node11 -->
<g id="edge17" class="edge">
<title>Node9&#45;&gt;Node11</title>
<path fill="none" stroke="#191970" d="M513.8632,-112.2977C504.8983,-103.4052 493.5602,-92.1586 484.3039,-82.9769"/>
<polygon fill="#191970" stroke="#191970" points="486.6805,-80.4045 477.116,-75.8469 481.7508,-85.3742 486.6805,-80.4045"/>
</g>
<!-- Node12&#45;&gt;Node1 -->
<g id="edge20" class="edge">
<title>Node12&#45;&gt;Node1</title>
<path fill="none" stroke="#191970" d="M258.3382,-180.3235C222.3175,-170.5129 180.793,-156.7867 168.189,-143 139.2798,-111.3779 134.7136,-58.4259 134.5475,-29.8045"/>
<polygon fill="#191970" stroke="#191970" points="138.0472,-29.8408 134.6672,-19.7996 131.0477,-29.7569 138.0472,-29.8408"/>
</g>
<!-- Node12&#45;&gt;Node2 -->
<g id="edge21" class="edge">
<title>Node12&#45;&gt;Node2</title>
<path fill="none" stroke="#191970" d="M258.5786,-187.8521C205.9737,-180.679 127.2557,-166.9306 62.189,-143 60.9864,-142.5577 59.7732,-142.0693 58.5611,-141.5466"/>
<polygon fill="#191970" stroke="#191970" points="60.0012,-138.3544 49.4847,-137.0683 56.9038,-144.6318 60.0012,-138.3544"/>
</g>
<!-- Node12&#45;&gt;Node3 -->
<g id="edge22" class="edge">
<title>Node12&#45;&gt;Node3</title>
<path fill="none" stroke="#191970" d="M258.5256,-179.5388C222.6298,-169.9802 175.9268,-156.8185 135.189,-143 133.0587,-142.2774 130.8749,-141.5036 128.6816,-140.7015"/>
<polygon fill="#191970" stroke="#191970" points="129.7317,-137.3564 119.1406,-137.0747 127.2444,-143.8996 129.7317,-137.3564"/>
</g>
<!-- Node12&#45;&gt;Node4 -->
<g id="edge23" class="edge">
<title>Node12&#45;&gt;Node4</title>
<path fill="none" stroke="#191970" d="M329.057,-179.2378C345.5085,-157.4387 375.2401,-115.6288 393.189,-76 399.9533,-61.0654 404.9325,-43.1337 408.0928,-29.7329"/>
<polygon fill="#191970" stroke="#191970" points="411.568,-30.2281 410.3189,-19.7071 404.7344,-28.7107 411.568,-30.2281"/>
</g>
<!-- Node12&#45;&gt;Node5 -->
<g id="edge25" class="edge">
<title>Node12&#45;&gt;Node5</title>
<path fill="none" stroke="#191970" d="M298.8089,-179.2967C288.0382,-170.3876 274.2568,-158.9882 262.3661,-149.1527"/>
<polygon fill="#191970" stroke="#191970" points="264.4328,-146.32 254.4964,-142.6432 259.9712,-151.7139 264.4328,-146.32"/>
</g>
<!-- Node12&#45;&gt;Node6 -->
<g id="edge26" class="edge">
<title>Node12&#45;&gt;Node6</title>
<path fill="none" stroke="#191970" d="M315.4094,-179.2548C312.6919,-155.9744 307.5074,-111.5607 304.5017,-85.8117"/>
<polygon fill="#191970" stroke="#191970" points="307.9614,-85.2625 303.3255,-75.7358 301.0086,-86.0742 307.9614,-85.2625"/>
</g>
<!-- Node12&#45;&gt;Node9 -->
<g id="edge27" class="edge">
<title>Node12&#45;&gt;Node9</title>
<path fill="none" stroke="#191970" d="M364.766,-179.4639C396.4327,-169.456 438.2159,-156.2509 471.7369,-145.657"/>
<polygon fill="#191970" stroke="#191970" points="472.9242,-148.9525 481.4046,-142.6017 470.8147,-142.2779 472.9242,-148.9525"/>
</g>
<!-- Node12&#45;&gt;Node11 -->
<g id="edge24" class="edge">
<title>Node12&#45;&gt;Node11</title>
<path fill="none" stroke="#191970" d="M336.0934,-179.367C348.6895,-169.2055 365.5552,-155.4489 380.189,-143 404.2181,-122.5585 431.3604,-98.3529 448.8423,-82.6128"/>
<polygon fill="#191970" stroke="#191970" points="451.5128,-84.9174 456.5923,-75.6195 446.8233,-79.7204 451.5128,-84.9174"/>
</g>
</g>
</svg>
