<?xml version="1.0" encoding="UTF-8" standalone="no"?>
<!DOCTYPE svg PUBLIC "-//W3C//DTD SVG 1.1//EN"
 "http://www.w3.org/Graphics/SVG/1.1/DTD/svg11.dtd">
<!-- Generated by graphviz version 2.40.1 (20161225.0304)
 -->
<!-- Title: o2::tpc::CompressedClustersPtrs Pages: 1 -->
<!--zoomable 624 -->
<svg id="main" version="1.1" xmlns="http://www.w3.org/2000/svg" xmlns:xlink="http://www.w3.org/1999/xlink" xml:space="preserve" onload="init(evt)">
<style type="text/css"><![CDATA[
.edge:hover path { stroke: red; }
.edge:hover polygon { stroke: red; fill: red; }
]]></style>
<script type="text/javascript"><![CDATA[
var edges = document.getElementsByTagName('g');
if (edges && edges.length) {
  for (var i=0;i<edges.length;i++) {
    if (edges[i].id.substr(0,4)=='edge') {
      edges[i].setAttribute('class','edge');
    }
  }
}
]]></script>
        <defs>
                <circle id="rim" cx="0" cy="0" r="7"/>
                <circle id="rim2" cx="0" cy="0" r="3.5"/>
                <g id="zoomPlus">
                        <use xlink:href="#rim" fill="#404040">
                                <set attributeName="fill" to="#808080" begin="zoomplus.mouseover" end="zoomplus.mouseout"/>
                        </use>
                        <path d="M-4,0h8M0,-4v8" fill="none" stroke="white" stroke-width="1.5" pointer-events="none"/>
                </g>
                <g id="zoomMin">
                        <use xlink:href="#rim" fill="#404040">
                                <set attributeName="fill" to="#808080" begin="zoomminus.mouseover" end="zoomminus.mouseout"/>
                        </use>
                        <path d="M-4,0h8" fill="none" stroke="white" stroke-width="1.5" pointer-events="none"/>
                </g>
                <g id="dirArrow">
                        <path fill="none" stroke="white" stroke-width="1.5" d="M0,-3.0v7 M-2.5,-0.5L0,-3.0L2.5,-0.5"/>
                </g>
               <g id="resetDef">
                       <use xlink:href="#rim2" fill="#404040">
                               <set attributeName="fill" to="#808080" begin="reset.mouseover" end="reset.mouseout"/>
                       </use>
               </g>
        </defs>

<script type="text/javascript">
var viewWidth = 574;
var viewHeight = 624;
var sectionId = 'dynsection-1';
</script>
<script xlink:href="../../svgpan.js"/>
<svg id="graph" class="graph">
<g id="viewport">
<title>o2::tpc::CompressedClustersPtrs</title>
<!-- Node5 -->
<g id="node1" class="node">
<title>Node5</title>
<polygon fill="#bfbfbf" stroke="#000000" points="90.5,-.5 90.5,-57.5 253.5,-57.5 253.5,-.5 90.5,-.5"/>
<text text-anchor="middle" x="172" y="-45.5" font-family="Helvetica,sans-Serif" font-size="10.00" fill="#000000">o2::tpc::CompressedClustersPtrs</text>
<polyline fill="none" stroke="#000000" points="90.5,-38.5 253.5,-38.5 "/>
<text text-anchor="middle" x="172" y="-26.5" font-family="Helvetica,sans-Serif" font-size="10.00" fill="#000000"> </text>
<polyline fill="none" stroke="#000000" points="90.5,-19.5 253.5,-19.5 "/>
<text text-anchor="middle" x="172" y="-7.5" font-family="Helvetica,sans-Serif" font-size="10.00" fill="#000000"> </text>
</g>
<!-- Node6 -->
<g id="node2" class="node">
<title>Node6</title>
<g id="a_node2"><a xlink:href="../../d7/dea/structo2_1_1tpc_1_1CompressedClustersPtrs__x.html" target="_top" xlink:title="{o2::tpc::CompressedClusters\lPtrs_x\&lt; unsigned char *,\l unsigned short *, unsigned int *\&gt;\n|+ sliceA\l|+ ClassDefNV()\l}">
<polygon fill="none" stroke="#000000" points="91.5,-95.5 91.5,-174.5 252.5,-174.5 252.5,-95.5 91.5,-95.5"/>
<text text-anchor="start" x="99.5" y="-162.5" font-family="Helvetica,sans-Serif" font-size="10.00" fill="#000000">o2::tpc::CompressedClusters</text>
<text text-anchor="start" x="99.5" y="-151.5" font-family="Helvetica,sans-Serif" font-size="10.00" fill="#000000">Ptrs_x&lt; unsigned char *,</text>
<text text-anchor="middle" x="172" y="-140.5" font-family="Helvetica,sans-Serif" font-size="10.00" fill="#000000"> unsigned short *, unsigned int *&gt;</text>
<polyline fill="none" stroke="#000000" points="91.5,-133.5 252.5,-133.5 "/>
<text text-anchor="start" x="99.5" y="-121.5" font-family="Helvetica,sans-Serif" font-size="10.00" fill="#000000">+ sliceA</text>
<polyline fill="none" stroke="#000000" points="91.5,-114.5 252.5,-114.5 "/>
<text text-anchor="start" x="99.5" y="-102.5" font-family="Helvetica,sans-Serif" font-size="10.00" fill="#000000">+ ClassDefNV()</text>
</a>
</g>
</g>
<!-- Node6&#45;&gt;Node5 -->
<g id="edge1" class="edge">
<title>Node6&#45;&gt;Node5</title>
<path fill="none" stroke="#191970" d="M172,-85.1394C172,-75.7425 172,-66.2136 172,-57.7397"/>
<polygon fill="none" stroke="#191970" points="168.5001,-85.2279 172,-95.2279 175.5001,-85.228 168.5001,-85.2279"/>
</g>
<!-- Node7 -->
<g id="node3" class="node">
<title>Node7</title>
<g id="a_node3"><a xlink:href="../../dc/d10/classshort.html" target="_top" xlink:title="{short\n||}">
<polygon fill="none" stroke="#000000" points="0,-338 0,-395 38,-395 38,-338 0,-338"/>
<text text-anchor="middle" x="19" y="-383" font-family="Helvetica,sans-Serif" font-size="10.00" fill="#000000">short</text>
<polyline fill="none" stroke="#000000" points="0,-376 38,-376 "/>
<text text-anchor="middle" x="19" y="-364" font-family="Helvetica,sans-Serif" font-size="10.00" fill="#000000"> </text>
<polyline fill="none" stroke="#000000" points="0,-357 38,-357 "/>
<text text-anchor="middle" x="19" y="-345" font-family="Helvetica,sans-Serif" font-size="10.00" fill="#000000"> </text>
</a>
</g>
</g>
<!-- Node7&#45;&gt;Node6 -->
<g id="edge2" class="edge">
<title>Node7&#45;&gt;Node6</title>
<path fill="none" stroke="#404040" d="M11.4288,-337.9929C3.3819,-300.9426 -4.4147,-235.921 26,-193 39.0995,-174.5141 59.0708,-161.9182 80.0749,-153.3361"/>
<polygon fill="none" stroke="#404040" points="80.2226,-153.2811 84.4462,-147.4363 91.4658,-149.087 87.2422,-154.9318 80.2226,-153.2811"/>
<text text-anchor="middle" x="62.5" y="-289.5" font-family="Helvetica,sans-Serif" font-size="10.00" fill="#000000"> +qMaxA</text>
<text text-anchor="middle" x="62.5" y="-278.5" font-family="Helvetica,sans-Serif" font-size="10.00" fill="#000000">+nTrackClusters</text>
<text text-anchor="middle" x="62.5" y="-267.5" font-family="Helvetica,sans-Serif" font-size="10.00" fill="#000000">+padDiffU</text>
<text text-anchor="middle" x="62.5" y="-256.5" font-family="Helvetica,sans-Serif" font-size="10.00" fill="#000000">+qMaxU</text>
<text text-anchor="middle" x="62.5" y="-245.5" font-family="Helvetica,sans-Serif" font-size="10.00" fill="#000000">+padA</text>
<text text-anchor="middle" x="62.5" y="-234.5" font-family="Helvetica,sans-Serif" font-size="10.00" fill="#000000">+padResA</text>
<text text-anchor="middle" x="62.5" y="-223.5" font-family="Helvetica,sans-Serif" font-size="10.00" fill="#000000">+qTotA</text>
<text text-anchor="middle" x="62.5" y="-212.5" font-family="Helvetica,sans-Serif" font-size="10.00" fill="#000000">+qTotU</text>
</g>
<!-- Node8 -->
<g id="node4" class="node">
<title>Node8</title>
<polygon fill="none" stroke="#bfbfbf" points="100.5,-338 100.5,-395 129.5,-395 129.5,-338 100.5,-338"/>
<text text-anchor="middle" x="115" y="-383" font-family="Helvetica,sans-Serif" font-size="10.00" fill="#000000">int</text>
<polyline fill="none" stroke="#bfbfbf" points="100.5,-376 129.5,-376 "/>
<text text-anchor="middle" x="115" y="-364" font-family="Helvetica,sans-Serif" font-size="10.00" fill="#000000"> </text>
<polyline fill="none" stroke="#bfbfbf" points="100.5,-357 129.5,-357 "/>
<text text-anchor="middle" x="115" y="-345" font-family="Helvetica,sans-Serif" font-size="10.00" fill="#000000"> </text>
</g>
<!-- Node8&#45;&gt;Node6 -->
<g id="edge3" class="edge">
<title>Node8&#45;&gt;Node6</title>
<path fill="none" stroke="#404040" d="M108.8853,-337.9073C102.6863,-302.4495 96.5123,-240.8425 116,-193 117.155,-190.1644 118.5216,-187.3899 120.055,-184.6867"/>
<polygon fill="none" stroke="#404040" points="120.0827,-184.6449 120.0565,-177.4338 126.7028,-174.6361 126.729,-181.8472 120.0827,-184.6449"/>
<text text-anchor="middle" x="161.5" y="-267.5" font-family="Helvetica,sans-Serif" font-size="10.00" fill="#000000"> +timeA</text>
<text text-anchor="middle" x="161.5" y="-256.5" font-family="Helvetica,sans-Serif" font-size="10.00" fill="#000000">+timeDiffU</text>
<text text-anchor="middle" x="161.5" y="-245.5" font-family="Helvetica,sans-Serif" font-size="10.00" fill="#000000">+nSliceRowClusters</text>
<text text-anchor="middle" x="161.5" y="-234.5" font-family="Helvetica,sans-Serif" font-size="10.00" fill="#000000">+timeResA</text>
</g>
<!-- Node9 -->
<g id="node5" class="node">
<title>Node9</title>
<g id="a_node5"><a xlink:href="../../d3/d41/classunsigned_01char_01_5.html" target="_top" xlink:title="{unsigned char *\n||}">
<polygon fill="none" stroke="#000000" points="187,-338 187,-395 271,-395 271,-338 187,-338"/>
<text text-anchor="middle" x="229" y="-383" font-family="Helvetica,sans-Serif" font-size="10.00" fill="#000000">unsigned char *</text>
<polyline fill="none" stroke="#000000" points="187,-376 271,-376 "/>
<text text-anchor="middle" x="229" y="-364" font-family="Helvetica,sans-Serif" font-size="10.00" fill="#000000"> </text>
<polyline fill="none" stroke="#000000" points="187,-357 271,-357 "/>
<text text-anchor="middle" x="229" y="-345" font-family="Helvetica,sans-Serif" font-size="10.00" fill="#000000"> </text>
</a>
</g>
</g>
<!-- Node9&#45;&gt;Node6 -->
<g id="edge4" class="edge">
<title>Node9&#45;&gt;Node6</title>
<path fill="none" stroke="#404040" d="M228.9651,-337.7311C228.1124,-302.6232 223.9974,-241.8985 207,-193 206.1704,-190.6133 205.2335,-188.2188 204.2132,-185.8344"/>
<polygon fill="none" stroke="#404040" points="204.1175,-185.6352 197.9134,-181.9598 198.9198,-174.8193 205.124,-178.4947 204.1175,-185.6352"/>
<text text-anchor="middle" x="260.5" y="-306" font-family="Helvetica,sans-Serif" font-size="10.00" fill="#000000"> +rowA</text>
<text text-anchor="middle" x="260.5" y="-295" font-family="Helvetica,sans-Serif" font-size="10.00" fill="#000000">+sigmaPadA</text>
<text text-anchor="middle" x="260.5" y="-284" font-family="Helvetica,sans-Serif" font-size="10.00" fill="#000000">+sigmaTimeA</text>
<text text-anchor="middle" x="260.5" y="-273" font-family="Helvetica,sans-Serif" font-size="10.00" fill="#000000">+rowDiffA</text>
<text text-anchor="middle" x="260.5" y="-262" font-family="Helvetica,sans-Serif" font-size="10.00" fill="#000000">+sliceLegDiffA</text>
<text text-anchor="middle" x="260.5" y="-251" font-family="Helvetica,sans-Serif" font-size="10.00" fill="#000000">+sigmaPadU</text>
<text text-anchor="middle" x="260.5" y="-240" font-family="Helvetica,sans-Serif" font-size="10.00" fill="#000000">+flagsU</text>
<text text-anchor="middle" x="260.5" y="-229" font-family="Helvetica,sans-Serif" font-size="10.00" fill="#000000">+qPtA</text>
<text text-anchor="middle" x="260.5" y="-218" font-family="Helvetica,sans-Serif" font-size="10.00" fill="#000000">+flagsA</text>
<text text-anchor="middle" x="260.5" y="-207" font-family="Helvetica,sans-Serif" font-size="10.00" fill="#000000">+sigmaTimeU</text>
<text text-anchor="middle" x="260.5" y="-196" font-family="Helvetica,sans-Serif" font-size="10.00" fill="#000000">...</text>
</g>
<!-- Node10 -->
<g id="node6" class="node">
<title>Node10</title>
<g id="a_node6"><a xlink:href="../../d7/dea/structo2_1_1tpc_1_1CompressedClustersPtrs__x.html" target="_top" xlink:title="{o2::tpc::CompressedClusters\lPtrs_x\&lt; TCHAR, TSHORT, TINT \&gt;\n|+ sliceA\l|+ ClassDefNV()\l}">
<polygon fill="none" stroke="#000000" points="289,-332.5 289,-400.5 463,-400.5 463,-332.5 289,-332.5"/>
<text text-anchor="start" x="297" y="-388.5" font-family="Helvetica,sans-Serif" font-size="10.00" fill="#000000">o2::tpc::CompressedClusters</text>
<text text-anchor="middle" x="376" y="-377.5" font-family="Helvetica,sans-Serif" font-size="10.00" fill="#000000">Ptrs_x&lt; TCHAR, TSHORT, TINT &gt;</text>
<polyline fill="none" stroke="#000000" points="289,-370.5 463,-370.5 "/>
<text text-anchor="start" x="297" y="-358.5" font-family="Helvetica,sans-Serif" font-size="10.00" fill="#000000">+ sliceA</text>
<polyline fill="none" stroke="#000000" points="289,-351.5 463,-351.5 "/>
<text text-anchor="start" x="297" y="-339.5" font-family="Helvetica,sans-Serif" font-size="10.00" fill="#000000">+ ClassDefNV()</text>
</a>
</g>
</g>
<!-- Node10&#45;&gt;Node6 -->
<g id="edge5" class="edge">
<title>Node10&#45;&gt;Node6</title>
<path fill="none" stroke="#ffa500" d="M365.3187,-322.5196C354.0118,-284.1053 332.7486,-229.0054 297,-193 284.5266,-180.437 268.8197,-170.2907 252.791,-162.2136"/>
<polygon fill="#ffa500" stroke="#ffa500" points="362.0223,-323.7246 368.1147,-332.3926 368.7574,-321.8173 362.0223,-323.7246"/>
<text text-anchor="start" x="361" y="-262" font-family="Helvetica,sans-Serif" font-size="10.00" fill="#000000"> &lt; unsigned char *,</text>
<text text-anchor="start" x="361" y="-251" font-family="Helvetica,sans-Serif" font-size="10.00" fill="#000000"> unsigned short *, unsigned</text>
<text text-anchor="middle" x="420.5" y="-240" font-family="Helvetica,sans-Serif" font-size="10.00" fill="#000000"> int *&gt;</text>
</g>
<!-- Node11 -->
<g id="node7" class="node">
<title>Node11</title>
<polygon fill="none" stroke="#bfbfbf" points="262,-558.5 262,-615.5 314,-615.5 314,-558.5 262,-558.5"/>
<text text-anchor="middle" x="288" y="-603.5" font-family="Helvetica,sans-Serif" font-size="10.00" fill="#000000">TCHAR</text>
<polyline fill="none" stroke="#bfbfbf" points="262,-596.5 314,-596.5 "/>
<text text-anchor="middle" x="288" y="-584.5" font-family="Helvetica,sans-Serif" font-size="10.00" fill="#000000"> </text>
<polyline fill="none" stroke="#bfbfbf" points="262,-577.5 314,-577.5 "/>
<text text-anchor="middle" x="288" y="-565.5" font-family="Helvetica,sans-Serif" font-size="10.00" fill="#000000"> </text>
</g>
<!-- Node11&#45;&gt;Node10 -->
<g id="edge6" class="edge">
<title>Node11&#45;&gt;Node10</title>
<path fill="none" stroke="#404040" d="M284.7182,-558.4793C282.0617,-523.2947 282.1404,-462.7731 307,-419 308.8363,-415.7666 310.9607,-412.6684 313.3005,-409.7094"/>
<polygon fill="none" stroke="#404040" points="313.3666,-409.6363 314.4258,-402.5034 321.4174,-400.7376 320.3582,-407.8705 313.3666,-409.6363"/>
<text text-anchor="middle" x="339.5" y="-532" font-family="Helvetica,sans-Serif" font-size="10.00" fill="#000000"> +rowA</text>
<text text-anchor="middle" x="339.5" y="-521" font-family="Helvetica,sans-Serif" font-size="10.00" fill="#000000">+sigmaPadA</text>
<text text-anchor="middle" x="339.5" y="-510" font-family="Helvetica,sans-Serif" font-size="10.00" fill="#000000">+sigmaTimeA</text>
<text text-anchor="middle" x="339.5" y="-499" font-family="Helvetica,sans-Serif" font-size="10.00" fill="#000000">+rowDiffA</text>
<text text-anchor="middle" x="339.5" y="-488" font-family="Helvetica,sans-Serif" font-size="10.00" fill="#000000">+sliceLegDiffA</text>
<text text-anchor="middle" x="339.5" y="-477" font-family="Helvetica,sans-Serif" font-size="10.00" fill="#000000">+sigmaPadU</text>
<text text-anchor="middle" x="339.5" y="-466" font-family="Helvetica,sans-Serif" font-size="10.00" fill="#000000">+flagsU</text>
<text text-anchor="middle" x="339.5" y="-455" font-family="Helvetica,sans-Serif" font-size="10.00" fill="#000000">+qPtA</text>
<text text-anchor="middle" x="339.5" y="-444" font-family="Helvetica,sans-Serif" font-size="10.00" fill="#000000">+flagsA</text>
<text text-anchor="middle" x="339.5" y="-433" font-family="Helvetica,sans-Serif" font-size="10.00" fill="#000000">+sigmaTimeU</text>
<text text-anchor="middle" x="339.5" y="-422" font-family="Helvetica,sans-Serif" font-size="10.00" fill="#000000">...</text>
</g>
<!-- Node12 -->
<g id="node8" class="node">
<title>Node12</title>
<polygon fill="none" stroke="#bfbfbf" points="347,-558.5 347,-615.5 405,-615.5 405,-558.5 347,-558.5"/>
<text text-anchor="middle" x="376" y="-603.5" font-family="Helvetica,sans-Serif" font-size="10.00" fill="#000000">TSHORT</text>
<polyline fill="none" stroke="#bfbfbf" points="347,-596.5 405,-596.5 "/>
<text text-anchor="middle" x="376" y="-584.5" font-family="Helvetica,sans-Serif" font-size="10.00" fill="#000000"> </text>
<polyline fill="none" stroke="#bfbfbf" points="347,-577.5 405,-577.5 "/>
<text text-anchor="middle" x="376" y="-565.5" font-family="Helvetica,sans-Serif" font-size="10.00" fill="#000000"> </text>
</g>
<!-- Node12&#45;&gt;Node10 -->
<g id="edge7" class="edge">
<title>Node12&#45;&gt;Node10</title>
<path fill="none" stroke="#404040" d="M376,-558.1735C376,-521.2261 376,-456.7136 376,-412.8345"/>
<polygon fill="none" stroke="#404040" points="376.0001,-412.7678 372,-406.7679 376,-400.7678 380,-406.7678 376.0001,-412.7678"/>
<text text-anchor="middle" x="412.5" y="-515.5" font-family="Helvetica,sans-Serif" font-size="10.00" fill="#000000"> +qMaxA</text>
<text text-anchor="middle" x="412.5" y="-504.5" font-family="Helvetica,sans-Serif" font-size="10.00" fill="#000000">+nTrackClusters</text>
<text text-anchor="middle" x="412.5" y="-493.5" font-family="Helvetica,sans-Serif" font-size="10.00" fill="#000000">+padDiffU</text>
<text text-anchor="middle" x="412.5" y="-482.5" font-family="Helvetica,sans-Serif" font-size="10.00" fill="#000000">+qMaxU</text>
<text text-anchor="middle" x="412.5" y="-471.5" font-family="Helvetica,sans-Serif" font-size="10.00" fill="#000000">+padA</text>
<text text-anchor="middle" x="412.5" y="-460.5" font-family="Helvetica,sans-Serif" font-size="10.00" fill="#000000">+padResA</text>
<text text-anchor="middle" x="412.5" y="-449.5" font-family="Helvetica,sans-Serif" font-size="10.00" fill="#000000">+qTotA</text>
<text text-anchor="middle" x="412.5" y="-438.5" font-family="Helvetica,sans-Serif" font-size="10.00" fill="#000000">+qTotU</text>
</g>
<!-- Node13 -->
<g id="node9" class="node">
<title>Node13</title>
<polygon fill="none" stroke="#bfbfbf" points="452.5,-558.5 452.5,-615.5 491.5,-615.5 491.5,-558.5 452.5,-558.5"/>
<text text-anchor="middle" x="472" y="-603.5" font-family="Helvetica,sans-Serif" font-size="10.00" fill="#000000">TINT</text>
<polyline fill="none" stroke="#bfbfbf" points="452.5,-596.5 491.5,-596.5 "/>
<text text-anchor="middle" x="472" y="-584.5" font-family="Helvetica,sans-Serif" font-size="10.00" fill="#000000"> </text>
<polyline fill="none" stroke="#bfbfbf" points="452.5,-577.5 491.5,-577.5 "/>
<text text-anchor="middle" x="472" y="-565.5" font-family="Helvetica,sans-Serif" font-size="10.00" fill="#000000"> </text>
</g>
<!-- Node13&#45;&gt;Node10 -->
<g id="edge8" class="edge">
<title>Node13&#45;&gt;Node10</title>
<path fill="none" stroke="#404040" d="M474.8972,-558.2979C477.0526,-522.9283 476.0227,-462.2181 450,-419 447.9686,-415.6264 445.6283,-412.4109 443.0587,-409.355"/>
<polygon fill="none" stroke="#404040" points="443.0401,-409.3355 436.0015,-407.7674 434.742,-400.6671 441.7805,-402.2353 443.0401,-409.3355"/>
<text text-anchor="middle" x="520.5" y="-493.5" font-family="Helvetica,sans-Serif" font-size="10.00" fill="#000000"> +timeA</text>
<text text-anchor="middle" x="520.5" y="-482.5" font-family="Helvetica,sans-Serif" font-size="10.00" fill="#000000">+timeDiffU</text>
<text text-anchor="middle" x="520.5" y="-471.5" font-family="Helvetica,sans-Serif" font-size="10.00" fill="#000000">+nSliceRowClusters</text>
<text text-anchor="middle" x="520.5" y="-460.5" font-family="Helvetica,sans-Serif" font-size="10.00" fill="#000000">+timeResA</text>
</g>
</g>
</svg>
        <g id="navigator" transform="translate(0 0)" fill="#404254">
                <rect fill="#f2f5e9" fill-opacity="0.5" stroke="#606060" stroke-width=".5" x="0" y="0" width="60" height="60"/>
                <use id="zoomplus" xlink:href="#zoomPlus" x="17" y="9" onmousedown="handleZoom(evt,'in')"/>
                <use id="zoomminus" xlink:href="#zoomMin" x="42" y="9" onmousedown="handleZoom(evt,'out')"/>
                <use id="reset" xlink:href="#resetDef" x="30" y="36" onmousedown="handleReset()"/>
                <g id="arrowUp" xlink:href="#dirArrow" transform="translate(30 24)" onmousedown="handlePan(0,-1)">
                  <use xlink:href="#rim" fill="#404040">
                        <set attributeName="fill" to="#808080" begin="arrowUp.mouseover" end="arrowUp.mouseout"/>
                  </use>
                  <path fill="none" stroke="white" stroke-width="1.5" d="M0,-3.0v7 M-2.5,-0.5L0,-3.0L2.5,-0.5"/>
                </g>
                <g id="arrowRight" xlink:href="#dirArrow" transform="rotate(90) translate(36 -43)" onmousedown="handlePan(1,0)">
                  <use xlink:href="#rim" fill="#404040">
                        <set attributeName="fill" to="#808080" begin="arrowRight.mouseover" end="arrowRight.mouseout"/>
                  </use>
                  <path fill="none" stroke="white" stroke-width="1.5" d="M0,-3.0v7 M-2.5,-0.5L0,-3.0L2.5,-0.5"/>
                </g>
                <g id="arrowDown" xlink:href="#dirArrow" transform="rotate(180) translate(-30 -48)" onmousedown="handlePan(0,1)">
                  <use xlink:href="#rim" fill="#404040">
                        <set attributeName="fill" to="#808080" begin="arrowDown.mouseover" end="arrowDown.mouseout"/>
                  </use>
                  <path fill="none" stroke="white" stroke-width="1.5" d="M0,-3.0v7 M-2.5,-0.5L0,-3.0L2.5,-0.5"/>
                </g>
                <g id="arrowLeft" xlink:href="#dirArrow" transform="rotate(270) translate(-36 17)" onmousedown="handlePan(-1,0)">
                  <use xlink:href="#rim" fill="#404040">
                        <set attributeName="fill" to="#808080" begin="arrowLeft.mouseover" end="arrowLeft.mouseout"/>
                  </use>
                  <path fill="none" stroke="white" stroke-width="1.5" d="M0,-3.0v7 M-2.5,-0.5L0,-3.0L2.5,-0.5"/>
                </g>
        </g>
        <svg viewBox="0 0 15 15" width="100%" height="30px" preserveAspectRatio="xMaxYMin meet">
         <g id="arrow_out" transform="scale(0.3 0.3)">
          <a xlink:href="structo2_1_1tpc_1_1CompressedClustersPtrs__coll__graph_org.svg" target="_base">
           <rect id="button" ry="5" rx="5" y="6" x="6" height="38" width="38"
                fill="#f2f5e9" fill-opacity="0.5" stroke="#606060" stroke-width="1.0"/>
           <path id="arrow"
             d="M 11.500037,31.436501 C 11.940474,20.09759 22.043105,11.32322 32.158766,21.979434 L 37.068811,17.246167 C 37.068811,17.246167 37.088388,32 37.088388,32 L 22.160133,31.978069 C 22.160133,31.978069 26.997745,27.140456 26.997745,27.140456 C 18.528582,18.264221 13.291696,25.230495 11.500037,31.436501 z"
             style="fill:#404040;"/>
          </a>
         </g>
        </svg>
</svg>
