<?xml version="1.0" encoding="UTF-8" standalone="no"?>
<!DOCTYPE svg PUBLIC "-//W3C//DTD SVG 1.1//EN"
 "http://www.w3.org/Graphics/SVG/1.1/DTD/svg11.dtd">
<!-- Generated by graphviz version 2.40.1 (20161225.0304)
 -->
<!-- Title: /home/runner/work/AliceO2/AliceO2/Detectors/FIT/FDD/simulation/include/FDDSimulation/Detector.h Pages: 1 -->
<!--zoomable 228 -->
<svg id="main" version="1.1" xmlns="http://www.w3.org/2000/svg" xmlns:xlink="http://www.w3.org/1999/xlink" xml:space="preserve" onload="init(evt)">
<style type="text/css"><![CDATA[
.edge:hover path { stroke: red; }
.edge:hover polygon { stroke: red; fill: red; }
]]></style>
<script type="text/javascript"><![CDATA[
var edges = document.getElementsByTagName('g');
if (edges && edges.length) {
  for (var i=0;i<edges.length;i++) {
    if (edges[i].id.substr(0,4)=='edge') {
      edges[i].setAttribute('class','edge');
    }
  }
}
]]></script>
        <defs>
                <circle id="rim" cx="0" cy="0" r="7"/>
                <circle id="rim2" cx="0" cy="0" r="3.5"/>
                <g id="zoomPlus">
                        <use xlink:href="#rim" fill="#404040">
                                <set attributeName="fill" to="#808080" begin="zoomplus.mouseover" end="zoomplus.mouseout"/>
                        </use>
                        <path d="M-4,0h8M0,-4v8" fill="none" stroke="white" stroke-width="1.5" pointer-events="none"/>
                </g>
                <g id="zoomMin">
                        <use xlink:href="#rim" fill="#404040">
                                <set attributeName="fill" to="#808080" begin="zoomminus.mouseover" end="zoomminus.mouseout"/>
                        </use>
                        <path d="M-4,0h8" fill="none" stroke="white" stroke-width="1.5" pointer-events="none"/>
                </g>
                <g id="dirArrow">
                        <path fill="none" stroke="white" stroke-width="1.5" d="M0,-3.0v7 M-2.5,-0.5L0,-3.0L2.5,-0.5"/>
                </g>
               <g id="resetDef">
                       <use xlink:href="#rim2" fill="#404040">
                               <set attributeName="fill" to="#808080" begin="reset.mouseover" end="reset.mouseout"/>
                       </use>
               </g>
        </defs>

<script type="text/javascript">
var viewWidth = 621;
var viewHeight = 228;
var sectionId = 'dynsection-1';
</script>
<script xlink:href="../../svgpan.js"/>
<svg id="graph" class="graph">
<g id="viewport">
<title>/home/runner/work/AliceO2/AliceO2/Detectors/FIT/FDD/simulation/include/FDDSimulation/Detector.h</title>
<!-- Node46 -->
<g id="node1" class="node">
<title>Node46</title>
<polygon fill="#bfbfbf" stroke="#000000" points="286.5,-167.5 286.5,-219.5 421.5,-219.5 421.5,-167.5 286.5,-167.5"/>
<text text-anchor="start" x="294.5" y="-207.5" font-family="Helvetica,sans-Serif" font-size="10.00" fill="#000000">/home/runner/work/AliceO2</text>
<text text-anchor="start" x="294.5" y="-196.5" font-family="Helvetica,sans-Serif" font-size="10.00" fill="#000000">/AliceO2/Detectors/FIT</text>
<text text-anchor="start" x="294.5" y="-185.5" font-family="Helvetica,sans-Serif" font-size="10.00" fill="#000000">/FDD/simulation/include</text>
<text text-anchor="middle" x="354" y="-174.5" font-family="Helvetica,sans-Serif" font-size="10.00" fill="#000000">/FDDSimulation/Detector.h</text>
</g>
<!-- Node47 -->
<g id="node2" class="node">
<title>Node47</title>
<g id="a_node2"><a xlink:href="../../d3/d51/FIT_2FDD_2simulation_2include_2FDDSimulation_2Digitizer_8h.html" target="_top" xlink:title="/home/runner/work/AliceO2\l/AliceO2/Detectors/FIT\l/FDD/simulation/include\l/FDDSimulation/Digitizer.h">
<polygon fill="none" stroke="#000000" points="118.5,-78.5 118.5,-130.5 253.5,-130.5 253.5,-78.5 118.5,-78.5"/>
<text text-anchor="start" x="126.5" y="-118.5" font-family="Helvetica,sans-Serif" font-size="10.00" fill="#000000">/home/runner/work/AliceO2</text>
<text text-anchor="start" x="126.5" y="-107.5" font-family="Helvetica,sans-Serif" font-size="10.00" fill="#000000">/AliceO2/Detectors/FIT</text>
<text text-anchor="start" x="126.5" y="-96.5" font-family="Helvetica,sans-Serif" font-size="10.00" fill="#000000">/FDD/simulation/include</text>
<text text-anchor="middle" x="186" y="-85.5" font-family="Helvetica,sans-Serif" font-size="10.00" fill="#000000">/FDDSimulation/Digitizer.h</text>
</a>
</g>
</g>
<!-- Node46&#45;&gt;Node47 -->
<g id="edge1" class="edge">
<title>Node46&#45;&gt;Node47</title>
<path fill="none" stroke="#191970" d="M295.6055,-162.5648C275.8823,-152.1162 254.0766,-140.5644 235.1431,-130.5341"/>
<polygon fill="#191970" stroke="#191970" points="294.028,-165.6899 304.5031,-167.2784 297.305,-159.5043 294.028,-165.6899"/>
</g>
<!-- Node50 -->
<g id="node5" class="node">
<title>Node50</title>
<g id="a_node5"><a xlink:href="../../d3/d0f/FIT_2FDD_2simulation_2src_2Detector_8cxx.html" target="_top" xlink:title="/home/runner/work/AliceO2\l/AliceO2/Detectors/FIT\l/FDD/simulation/src/Detector.cxx">
<polygon fill="none" stroke="#000000" points="272,-84 272,-125 436,-125 436,-84 272,-84"/>
<text text-anchor="start" x="280" y="-113" font-family="Helvetica,sans-Serif" font-size="10.00" fill="#000000">/home/runner/work/AliceO2</text>
<text text-anchor="start" x="280" y="-102" font-family="Helvetica,sans-Serif" font-size="10.00" fill="#000000">/AliceO2/Detectors/FIT</text>
<text text-anchor="middle" x="354" y="-91" font-family="Helvetica,sans-Serif" font-size="10.00" fill="#000000">/FDD/simulation/src/Detector.cxx</text>
</a>
</g>
</g>
<!-- Node46&#45;&gt;Node50 -->
<g id="edge4" class="edge">
<title>Node46&#45;&gt;Node50</title>
<path fill="none" stroke="#191970" d="M354,-157.1335C354,-146.2443 354,-134.6825 354,-125.1771"/>
<polygon fill="#191970" stroke="#191970" points="350.5001,-157.2784 354,-167.2784 357.5001,-157.2785 350.5001,-157.2784"/>
</g>
<!-- Node51 -->
<g id="node6" class="node">
<title>Node51</title>
<g id="a_node6"><a xlink:href="../../db/d50/O2HitMerger_8h.html" target="_top" xlink:title="/home/runner/work/AliceO2\l/AliceO2/run/O2HitMerger.h">
<polygon fill="none" stroke="#000000" points="454.5,-89.5 454.5,-119.5 591.5,-119.5 591.5,-89.5 454.5,-89.5"/>
<text text-anchor="start" x="462.5" y="-107.5" font-family="Helvetica,sans-Serif" font-size="10.00" fill="#000000">/home/runner/work/AliceO2</text>
<text text-anchor="middle" x="523" y="-96.5" font-family="Helvetica,sans-Serif" font-size="10.00" fill="#000000">/AliceO2/run/O2HitMerger.h</text>
</a>
</g>
</g>
<!-- Node46&#45;&gt;Node51 -->
<g id="edge5" class="edge">
<title>Node46&#45;&gt;Node51</title>
<path fill="none" stroke="#191970" d="M412.9415,-162.4598C440.4289,-147.9842 471.8994,-131.411 494.1279,-119.7048"/>
<polygon fill="#191970" stroke="#191970" points="411.0087,-159.5219 403.7915,-167.2784 414.2705,-165.7156 411.0087,-159.5219"/>
</g>
<!-- Node48 -->
<g id="node3" class="node">
<title>Node48</title>
<g id="a_node3"><a xlink:href="../../d0/d8c/FIT_2FDD_2simulation_2src_2Digitizer_8cxx.html" target="_top" xlink:title="/home/runner/work/AliceO2\l/AliceO2/Detectors/FIT\l/FDD/simulation/src/Digitizer.cxx">
<polygon fill="none" stroke="#000000" points="0,-.5 0,-41.5 162,-41.5 162,-.5 0,-.5"/>
<text text-anchor="start" x="8" y="-29.5" font-family="Helvetica,sans-Serif" font-size="10.00" fill="#000000">/home/runner/work/AliceO2</text>
<text text-anchor="start" x="8" y="-18.5" font-family="Helvetica,sans-Serif" font-size="10.00" fill="#000000">/AliceO2/Detectors/FIT</text>
<text text-anchor="middle" x="81" y="-7.5" font-family="Helvetica,sans-Serif" font-size="10.00" fill="#000000">/FDD/simulation/src/Digitizer.cxx</text>
</a>
</g>
</g>
<!-- Node47&#45;&gt;Node48 -->
<g id="edge2" class="edge">
<title>Node47&#45;&gt;Node48</title>
<path fill="none" stroke="#191970" d="M145.1867,-72.0437C132.2788,-61.7789 118.3781,-50.7245 106.8246,-41.5367"/>
<polygon fill="#191970" stroke="#191970" points="143.0601,-74.8243 153.0654,-78.3092 147.4171,-69.3455 143.0601,-74.8243"/>
</g>
<!-- Node49 -->
<g id="node4" class="node">
<title>Node49</title>
<g id="a_node4"><a xlink:href="../../d2/d97/FDDDigitizerSpec_8cxx.html" target="_top" xlink:title="/home/runner/work/AliceO2\l/AliceO2/Steer/DigitizerWorkflow\l/src/FDDDigitizerSpec.cxx">
<polygon fill="none" stroke="#000000" points="180.5,-.5 180.5,-41.5 341.5,-41.5 341.5,-.5 180.5,-.5"/>
<text text-anchor="start" x="188.5" y="-29.5" font-family="Helvetica,sans-Serif" font-size="10.00" fill="#000000">/home/runner/work/AliceO2</text>
<text text-anchor="start" x="188.5" y="-18.5" font-family="Helvetica,sans-Serif" font-size="10.00" fill="#000000">/AliceO2/Steer/DigitizerWorkflow</text>
<text text-anchor="middle" x="261" y="-7.5" font-family="Helvetica,sans-Serif" font-size="10.00" fill="#000000">/src/FDDDigitizerSpec.cxx</text>
</a>
</g>
</g>
<!-- Node47&#45;&gt;Node49 -->
<g id="edge3" class="edge">
<title>Node47&#45;&gt;Node49</title>
<path fill="none" stroke="#191970" d="M216.5988,-70.4334C225.3493,-60.6912 234.619,-50.3708 242.4125,-41.6941"/>
<polygon fill="#191970" stroke="#191970" points="213.8089,-68.3017 209.7305,-78.0801 219.0166,-72.9793 213.8089,-68.3017"/>
</g>
<!-- Node51&#45;&gt;Node51 -->
<g id="edge6" class="edge">
<title>Node51&#45;&gt;Node51</title>
<path fill="none" stroke="#191970" d="M579.2058,-119.8504C596.213,-119.457 609.5,-114.3402 609.5,-104.5 609.5,-92.7285 590.4857,-87.7164 568.8347,-89.4638"/>
<polygon fill="#191970" stroke="#191970" points="578.9362,-116.3407 568.8347,-119.5362 578.7241,-123.3375 578.9362,-116.3407"/>
</g>
<!-- Node52 -->
<g id="node7" class="node">
<title>Node52</title>
<g id="a_node7"><a xlink:href="../../d9/d16/O2HitMergerRunner_8cxx.html" target="_top" xlink:title="/home/runner/work/AliceO2\l/AliceO2/run/O2HitMergerRunner.cxx">
<polygon fill="none" stroke="#000000" points="433.5,-6 433.5,-36 612.5,-36 612.5,-6 433.5,-6"/>
<text text-anchor="start" x="441.5" y="-24" font-family="Helvetica,sans-Serif" font-size="10.00" fill="#000000">/home/runner/work/AliceO2</text>
<text text-anchor="middle" x="523" y="-13" font-family="Helvetica,sans-Serif" font-size="10.00" fill="#000000">/AliceO2/run/O2HitMergerRunner.cxx</text>
</a>
</g>
</g>
<!-- Node51&#45;&gt;Node52 -->
<g id="edge7" class="edge">
<title>Node51&#45;&gt;Node52</title>
<path fill="none" stroke="#191970" d="M523,-79.1692C523,-65.1518 523,-48.1971 523,-36.2181"/>
<polygon fill="#191970" stroke="#191970" points="519.5001,-79.1848 523,-89.1848 526.5001,-79.1848 519.5001,-79.1848"/>
</g>
</g>
</svg>
        <g id="navigator" transform="translate(0 0)" fill="#404254">
                <rect fill="#f2f5e9" fill-opacity="0.5" stroke="#606060" stroke-width=".5" x="0" y="0" width="60" height="60"/>
                <use id="zoomplus" xlink:href="#zoomPlus" x="17" y="9" onmousedown="handleZoom(evt,'in')"/>
                <use id="zoomminus" xlink:href="#zoomMin" x="42" y="9" onmousedown="handleZoom(evt,'out')"/>
                <use id="reset" xlink:href="#resetDef" x="30" y="36" onmousedown="handleReset()"/>
                <g id="arrowUp" xlink:href="#dirArrow" transform="translate(30 24)" onmousedown="handlePan(0,-1)">
                  <use xlink:href="#rim" fill="#404040">
                        <set attributeName="fill" to="#808080" begin="arrowUp.mouseover" end="arrowUp.mouseout"/>
                  </use>
                  <path fill="none" stroke="white" stroke-width="1.5" d="M0,-3.0v7 M-2.5,-0.5L0,-3.0L2.5,-0.5"/>
                </g>
                <g id="arrowRight" xlink:href="#dirArrow" transform="rotate(90) translate(36 -43)" onmousedown="handlePan(1,0)">
                  <use xlink:href="#rim" fill="#404040">
                        <set attributeName="fill" to="#808080" begin="arrowRight.mouseover" end="arrowRight.mouseout"/>
                  </use>
                  <path fill="none" stroke="white" stroke-width="1.5" d="M0,-3.0v7 M-2.5,-0.5L0,-3.0L2.5,-0.5"/>
                </g>
                <g id="arrowDown" xlink:href="#dirArrow" transform="rotate(180) translate(-30 -48)" onmousedown="handlePan(0,1)">
                  <use xlink:href="#rim" fill="#404040">
                        <set attributeName="fill" to="#808080" begin="arrowDown.mouseover" end="arrowDown.mouseout"/>
                  </use>
                  <path fill="none" stroke="white" stroke-width="1.5" d="M0,-3.0v7 M-2.5,-0.5L0,-3.0L2.5,-0.5"/>
                </g>
                <g id="arrowLeft" xlink:href="#dirArrow" transform="rotate(270) translate(-36 17)" onmousedown="handlePan(-1,0)">
                  <use xlink:href="#rim" fill="#404040">
                        <set attributeName="fill" to="#808080" begin="arrowLeft.mouseover" end="arrowLeft.mouseout"/>
                  </use>
                  <path fill="none" stroke="white" stroke-width="1.5" d="M0,-3.0v7 M-2.5,-0.5L0,-3.0L2.5,-0.5"/>
                </g>
        </g>
        <svg viewBox="0 0 15 15" width="100%" height="30px" preserveAspectRatio="xMaxYMin meet">
         <g id="arrow_out" transform="scale(0.3 0.3)">
          <a xlink:href="FIT_2FDD_2simulation_2include_2FDDSimulation_2Detector_8h__dep__incl_org.svg" target="_base">
           <rect id="button" ry="5" rx="5" y="6" x="6" height="38" width="38"
                fill="#f2f5e9" fill-opacity="0.5" stroke="#606060" stroke-width="1.0"/>
           <path id="arrow"
             d="M 11.500037,31.436501 C 11.940474,20.09759 22.043105,11.32322 32.158766,21.979434 L 37.068811,17.246167 C 37.068811,17.246167 37.088388,32 37.088388,32 L 22.160133,31.978069 C 22.160133,31.978069 26.997745,27.140456 26.997745,27.140456 C 18.528582,18.264221 13.291696,25.230495 11.500037,31.436501 z"
             style="fill:#404040;"/>
          </a>
         </g>
        </svg>
</svg>
