<?xml version="1.0" encoding="UTF-8" standalone="no"?>
<!DOCTYPE svg PUBLIC "-//W3C//DTD SVG 1.1//EN"
 "http://www.w3.org/Graphics/SVG/1.1/DTD/svg11.dtd">
<!-- Generated by graphviz version 2.40.1 (20161225.0304)
 -->
<!-- Title: FixtureFull&lt; CODER_T, STREAM_T, P &gt; Pages: 1 -->
<svg width="233pt" height="321pt"
 viewBox="0.00 0.00 232.50 321.00" xmlns="http://www.w3.org/2000/svg" xmlns:xlink="http://www.w3.org/1999/xlink">
<g id="graph0" class="graph" transform="scale(1 1) rotate(0) translate(4 317)">
<title>FixtureFull&lt; CODER_T, STREAM_T, P &gt;</title>
<!-- Node2 -->
<g id="node1" class="node">
<title>Node2</title>
<polygon fill="#bfbfbf" stroke="#000000" points="0,-.5 0,-68.5 109,-68.5 109,-.5 0,-.5"/>
<text text-anchor="start" x="8" y="-56.5" font-family="Helvetica,sans-Serif" font-size="10.00" fill="#000000">FixtureFull&lt; CODER</text>
<text text-anchor="middle" x="54.5" y="-45.5" font-family="Helvetica,sans-Serif" font-size="10.00" fill="#000000">_T, STREAM_T, P &gt;</text>
<polyline fill="none" stroke="#000000" points="0,-38.5 109,-38.5 "/>
<text text-anchor="middle" x="54.5" y="-26.5" font-family="Helvetica,sans-Serif" font-size="10.00" fill="#000000"> </text>
<polyline fill="none" stroke="#000000" points="0,-19.5 109,-19.5 "/>
<text text-anchor="middle" x="54.5" y="-7.5" font-family="Helvetica,sans-Serif" font-size="10.00" fill="#000000"> </text>
</g>
<!-- Node3 -->
<g id="node2" class="node">
<title>Node3</title>
<g id="a_node2"><a xlink:href="../../d0/dea/structFixture.html" target="_top" xlink:title="{Fixture\&lt; CODER_T, STREAM\l_T, P \&gt;\n||+ Fixture()\l+ ~Fixture()\l+ Fixture()\l}">
<polygon fill="none" stroke="#000000" points="72.5,-106.5 72.5,-196.5 224.5,-196.5 224.5,-106.5 72.5,-106.5"/>
<text text-anchor="start" x="80.5" y="-184.5" font-family="Helvetica,sans-Serif" font-size="10.00" fill="#000000">Fixture&lt; CODER_T, STREAM</text>
<text text-anchor="middle" x="148.5" y="-173.5" font-family="Helvetica,sans-Serif" font-size="10.00" fill="#000000">_T, P &gt;</text>
<polyline fill="none" stroke="#000000" points="72.5,-166.5 224.5,-166.5 "/>
<text text-anchor="middle" x="148.5" y="-154.5" font-family="Helvetica,sans-Serif" font-size="10.00" fill="#000000"> </text>
<polyline fill="none" stroke="#000000" points="72.5,-147.5 224.5,-147.5 "/>
<text text-anchor="start" x="80.5" y="-135.5" font-family="Helvetica,sans-Serif" font-size="10.00" fill="#000000">+ Fixture()</text>
<text text-anchor="start" x="80.5" y="-124.5" font-family="Helvetica,sans-Serif" font-size="10.00" fill="#000000">+ ~Fixture()</text>
<text text-anchor="start" x="80.5" y="-113.5" font-family="Helvetica,sans-Serif" font-size="10.00" fill="#000000">+ Fixture()</text>
</a>
</g>
</g>
<!-- Node3&#45;&gt;Node2 -->
<g id="edge1" class="edge">
<title>Node3&#45;&gt;Node2</title>
<path fill="none" stroke="#191970" d="M105.7419,-98.2798C97.6749,-88.239 89.4398,-77.9889 81.9977,-68.7259"/>
<polygon fill="none" stroke="#191970" points="103.1654,-100.6612 112.1571,-106.2647 108.6224,-96.2769 103.1654,-100.6612"/>
</g>
<!-- Node4 -->
<g id="node3" class="node">
<title>Node4</title>
<polygon fill="none" stroke="#bfbfbf" points="11,-255.5 11,-312.5 52,-312.5 52,-255.5 11,-255.5"/>
<text text-anchor="middle" x="31.5" y="-300.5" font-family="Helvetica,sans-Serif" font-size="10.00" fill="#000000">const</text>
<polyline fill="none" stroke="#bfbfbf" points="11,-293.5 52,-293.5 "/>
<text text-anchor="middle" x="31.5" y="-281.5" font-family="Helvetica,sans-Serif" font-size="10.00" fill="#000000"> </text>
<polyline fill="none" stroke="#bfbfbf" points="11,-274.5 52,-274.5 "/>
<text text-anchor="middle" x="31.5" y="-262.5" font-family="Helvetica,sans-Serif" font-size="10.00" fill="#000000"> </text>
</g>
<!-- Node4&#45;&gt;Node2 -->
<g id="edge3" class="edge">
<title>Node4&#45;&gt;Node2</title>
<path fill="none" stroke="#404040" d="M26.2458,-255.3074C20.6932,-219.8486 14.0642,-157.8447 24.5,-106 26.2532,-97.2901 29.0965,-88.3188 32.3511,-79.7998"/>
<polygon fill="none" stroke="#404040" points="32.4207,-79.6304 31.0007,-72.5604 36.9806,-68.5305 38.4006,-75.6004 32.4207,-79.6304"/>
<text text-anchor="middle" x="44" y="-149" font-family="Helvetica,sans-Serif" font-size="10.00" fill="#000000"> +source</text>
</g>
<!-- Node4&#45;&gt;Node3 -->
<g id="edge2" class="edge">
<title>Node4&#45;&gt;Node3</title>
<path fill="none" stroke="#404040" d="M52.1479,-260.6167C65.5656,-245.4214 83.6392,-224.9535 100.5076,-205.8504"/>
<polygon fill="none" stroke="#404040" points="100.723,-205.6064 101.6961,-198.4612 108.6659,-196.6113 107.6928,-203.7564 100.723,-205.6064"/>
<text text-anchor="middle" x="123.5" y="-229" font-family="Helvetica,sans-Serif" font-size="10.00" fill="#000000"> +source</text>
<text text-anchor="middle" x="123.5" y="-218" font-family="Helvetica,sans-Serif" font-size="10.00" fill="#000000">+probabilityBits</text>
</g>
</g>
</svg>
