<?xml version="1.0" encoding="UTF-8" standalone="no"?>
<!DOCTYPE svg PUBLIC "-//W3C//DTD SVG 1.1//EN"
 "http://www.w3.org/Graphics/SVG/1.1/DTD/svg11.dtd">
<!-- Generated by graphviz version 2.40.1 (20161225.0304)
 -->
<!-- Title: /home/runner/work/AliceO2/AliceO2/Detectors/Passive/src/Shil.cxx Pages: 1 -->
<svg width="2317pt" height="296pt"
 viewBox="0.00 0.00 2316.50 296.00" xmlns="http://www.w3.org/2000/svg" xmlns:xlink="http://www.w3.org/1999/xlink">
<g id="graph0" class="graph" transform="scale(1 1) rotate(0) translate(4 292)">
<title>/home/runner/work/AliceO2/AliceO2/Detectors/Passive/src/Shil.cxx</title>
<!-- Node0 -->
<g id="node1" class="node">
<title>Node0</title>
<polygon fill="#bfbfbf" stroke="#000000" points="1726.5,-246.5 1726.5,-287.5 1864.5,-287.5 1864.5,-246.5 1726.5,-246.5"/>
<text text-anchor="start" x="1734.5" y="-275.5" font-family="Helvetica,sans-Serif" font-size="10.00" fill="#000000">/home/runner/work/AliceO2</text>
<text text-anchor="start" x="1734.5" y="-264.5" font-family="Helvetica,sans-Serif" font-size="10.00" fill="#000000">/AliceO2/Detectors/Passive</text>
<text text-anchor="middle" x="1795.5" y="-253.5" font-family="Helvetica,sans-Serif" font-size="10.00" fill="#000000">/src/Shil.cxx</text>
</g>
<!-- Node1 -->
<g id="node2" class="node">
<title>Node1</title>
<g id="a_node2"><a xlink:href="../../d1/d3a/Base_2include_2DetectorsBase_2Detector_8h.html" target="_top" xlink:title="DetectorsBase/Detector.h">
<polygon fill="none" stroke="#000000" points="711,-190.5 711,-209.5 842,-209.5 842,-190.5 711,-190.5"/>
<text text-anchor="middle" x="776.5" y="-197.5" font-family="Helvetica,sans-Serif" font-size="10.00" fill="#000000">DetectorsBase/Detector.h</text>
</a>
</g>
</g>
<!-- Node0&#45;&gt;Node1 -->
<g id="edge1" class="edge">
<title>Node0&#45;&gt;Node1</title>
<path fill="none" stroke="#191970" d="M1726.2611,-262.4475C1542.5113,-250.3658 1043.5564,-217.5592 852.413,-204.9913"/>
<polygon fill="#191970" stroke="#191970" points="852.3871,-201.4822 842.179,-204.3184 851.9278,-208.4671 852.3871,-201.4822"/>
</g>
<!-- Node8 -->
<g id="node9" class="node">
<title>Node8</title>
<g id="a_node9"><a xlink:href="../../d0/d9a/MaterialManager_8h.html" target="_top" xlink:title="DetectorsBase/MaterialManager.h">
<polygon fill="none" stroke="#000000" points="110,-129 110,-148 275,-148 275,-129 110,-129"/>
<text text-anchor="middle" x="192.5" y="-136" font-family="Helvetica,sans-Serif" font-size="10.00" fill="#000000">DetectorsBase/MaterialManager.h</text>
</a>
</g>
</g>
<!-- Node0&#45;&gt;Node8 -->
<g id="edge35" class="edge">
<title>Node0&#45;&gt;Node8</title>
<path fill="none" stroke="#191970" d="M1726.227,-265.494C1553.0963,-261.2734 1087.7046,-247.1147 701.5,-210 541.9299,-194.6651 355.6662,-165.6438 258.7483,-149.6957"/>
<polygon fill="#191970" stroke="#191970" points="259.2362,-146.2289 248.7995,-148.0528 258.0957,-153.1354 259.2362,-146.2289"/>
</g>
<!-- Node24 -->
<g id="node25" class="node">
<title>Node24</title>
<polygon fill="none" stroke="#bfbfbf" points="1237,-67.5 1237,-86.5 1286,-86.5 1286,-67.5 1237,-67.5"/>
<text text-anchor="middle" x="1261.5" y="-74.5" font-family="Helvetica,sans-Serif" font-size="10.00" fill="#000000">cassert</text>
</g>
<!-- Node0&#45;&gt;Node24 -->
<g id="edge43" class="edge">
<title>Node0&#45;&gt;Node24</title>
<path fill="none" stroke="#191970" d="M1726.3032,-262.562C1642.4715,-255.9078 1507.5882,-240.7004 1468.5,-210 1435.3171,-183.9377 1462.4332,-150.5793 1430.5,-123 1410.4624,-105.6943 1339.4847,-90.6473 1296.1418,-82.7938"/>
<polygon fill="#191970" stroke="#191970" points="1296.4858,-79.3003 1286.0283,-81.0007 1295.2637,-86.1928 1296.4858,-79.3003"/>
</g>
<!-- Node27 -->
<g id="node28" class="node">
<title>Node27</title>
<g id="a_node28"><a xlink:href="../../d3/d2f/Shil_8h.html" target="_top" xlink:title="DetectorsPassive/Shil.h">
<polygon fill="none" stroke="#000000" points="1477.5,-190.5 1477.5,-209.5 1599.5,-209.5 1599.5,-190.5 1477.5,-190.5"/>
<text text-anchor="middle" x="1538.5" y="-197.5" font-family="Helvetica,sans-Serif" font-size="10.00" fill="#000000">DetectorsPassive/Shil.h</text>
</a>
</g>
</g>
<!-- Node0&#45;&gt;Node27 -->
<g id="edge32" class="edge">
<title>Node0&#45;&gt;Node27</title>
<path fill="none" stroke="#191970" d="M1726.2906,-248.9571C1681.5683,-237.298 1624.5739,-222.4395 1585.1654,-212.1657"/>
<polygon fill="#191970" stroke="#191970" points="1585.8531,-208.728 1575.2935,-209.5921 1584.0872,-215.5017 1585.8531,-208.728"/>
</g>
<!-- Node30 -->
<g id="node31" class="node">
<title>Node30</title>
<polygon fill="none" stroke="#bfbfbf" points="1617.5,-190.5 1617.5,-209.5 1741.5,-209.5 1741.5,-190.5 1617.5,-190.5"/>
<text text-anchor="middle" x="1679.5" y="-197.5" font-family="Helvetica,sans-Serif" font-size="10.00" fill="#000000">TGeoCompositeShape.h</text>
</g>
<!-- Node0&#45;&gt;Node30 -->
<g id="edge36" class="edge">
<title>Node0&#45;&gt;Node30</title>
<path fill="none" stroke="#191970" d="M1759.7497,-246.3511C1742.0536,-236.1301 1721.1006,-224.0279 1705.0428,-214.7532"/>
<polygon fill="#191970" stroke="#191970" points="1706.6254,-211.6254 1696.2155,-209.6546 1703.1243,-217.687 1706.6254,-211.6254"/>
</g>
<!-- Node31 -->
<g id="node32" class="node">
<title>Node31</title>
<polygon fill="none" stroke="#bfbfbf" points="1759.5,-190.5 1759.5,-209.5 1831.5,-209.5 1831.5,-190.5 1759.5,-190.5"/>
<text text-anchor="middle" x="1795.5" y="-197.5" font-family="Helvetica,sans-Serif" font-size="10.00" fill="#000000">TGeoCone.h</text>
</g>
<!-- Node0&#45;&gt;Node31 -->
<g id="edge37" class="edge">
<title>Node0&#45;&gt;Node31</title>
<path fill="none" stroke="#191970" d="M1795.5,-246.168C1795.5,-237.8226 1795.5,-228.2471 1795.5,-219.9879"/>
<polygon fill="#191970" stroke="#191970" points="1799.0001,-219.7804 1795.5,-209.7805 1792.0001,-219.7805 1799.0001,-219.7804"/>
</g>
<!-- Node32 -->
<g id="node33" class="node">
<title>Node32</title>
<polygon fill="none" stroke="#bfbfbf" points="1849.5,-190.5 1849.5,-209.5 1935.5,-209.5 1935.5,-190.5 1849.5,-190.5"/>
<text text-anchor="middle" x="1892.5" y="-197.5" font-family="Helvetica,sans-Serif" font-size="10.00" fill="#000000">TGeoManager.h</text>
</g>
<!-- Node0&#45;&gt;Node32 -->
<g id="edge38" class="edge">
<title>Node0&#45;&gt;Node32</title>
<path fill="none" stroke="#191970" d="M1825.3947,-246.3511C1839.7773,-236.4167 1856.733,-224.7051 1870.002,-215.5398"/>
<polygon fill="#191970" stroke="#191970" points="1872.2835,-218.2178 1878.5224,-209.6546 1868.3052,-212.4581 1872.2835,-218.2178"/>
</g>
<!-- Node33 -->
<g id="node34" class="node">
<title>Node33</title>
<polygon fill="none" stroke="#bfbfbf" points="1953.5,-190.5 1953.5,-209.5 2029.5,-209.5 2029.5,-190.5 1953.5,-190.5"/>
<text text-anchor="middle" x="1991.5" y="-197.5" font-family="Helvetica,sans-Serif" font-size="10.00" fill="#000000">TGeoMatrix.h</text>
</g>
<!-- Node0&#45;&gt;Node33 -->
<g id="edge39" class="edge">
<title>Node0&#45;&gt;Node33</title>
<path fill="none" stroke="#191970" d="M1855.6385,-246.4425C1887.7094,-235.4795 1926.1729,-222.3312 1953.9751,-212.8274"/>
<polygon fill="#191970" stroke="#191970" points="1955.3737,-216.0482 1963.704,-209.5017 1953.1095,-209.4245 1955.3737,-216.0482"/>
</g>
<!-- Node34 -->
<g id="node35" class="node">
<title>Node34</title>
<polygon fill="none" stroke="#bfbfbf" points="2048,-190.5 2048,-209.5 2119,-209.5 2119,-190.5 2048,-190.5"/>
<text text-anchor="middle" x="2083.5" y="-197.5" font-family="Helvetica,sans-Serif" font-size="10.00" fill="#000000">TGeoPcon.h</text>
</g>
<!-- Node0&#45;&gt;Node34 -->
<g id="edge40" class="edge">
<title>Node0&#45;&gt;Node34</title>
<path fill="none" stroke="#191970" d="M1864.8497,-250.8666C1918.5022,-238.3849 1991.2652,-221.4574 2037.8086,-210.6296"/>
<polygon fill="#191970" stroke="#191970" points="2038.6658,-214.0237 2047.6126,-208.3488 2037.0796,-207.2058 2038.6658,-214.0237"/>
</g>
<!-- Node35 -->
<g id="node36" class="node">
<title>Node35</title>
<polygon fill="none" stroke="#bfbfbf" points="2137,-190.5 2137,-209.5 2208,-209.5 2208,-190.5 2137,-190.5"/>
<text text-anchor="middle" x="2172.5" y="-197.5" font-family="Helvetica,sans-Serif" font-size="10.00" fill="#000000">TGeoTube.h</text>
</g>
<!-- Node0&#45;&gt;Node35 -->
<g id="edge41" class="edge">
<title>Node0&#45;&gt;Node35</title>
<path fill="none" stroke="#191970" d="M1864.5786,-256.2906C1929.8259,-245.9213 2030.6443,-229.2462 2127.0754,-210.2118"/>
<polygon fill="#191970" stroke="#191970" points="2127.8667,-213.6231 2136.9936,-208.2425 2126.5034,-206.7571 2127.8667,-213.6231"/>
</g>
<!-- Node36 -->
<g id="node37" class="node">
<title>Node36</title>
<polygon fill="none" stroke="#bfbfbf" points="2226.5,-190.5 2226.5,-209.5 2308.5,-209.5 2308.5,-190.5 2226.5,-190.5"/>
<text text-anchor="middle" x="2267.5" y="-197.5" font-family="Helvetica,sans-Serif" font-size="10.00" fill="#000000">TGeoVolume.h</text>
</g>
<!-- Node0&#45;&gt;Node36 -->
<g id="edge42" class="edge">
<title>Node0&#45;&gt;Node36</title>
<path fill="none" stroke="#191970" d="M1864.7786,-259.0036C1946.4248,-249.2739 2086.3941,-231.6394 2216.2129,-210.1351"/>
<polygon fill="#191970" stroke="#191970" points="2217.0492,-213.5441 2226.3372,-208.4466 2215.8977,-206.6394 2217.0492,-213.5441"/>
</g>
<!-- Node2 -->
<g id="node3" class="node">
<title>Node2</title>
<polygon fill="none" stroke="#bfbfbf" points="0,-67.5 0,-86.5 35,-86.5 35,-67.5 0,-67.5"/>
<text text-anchor="middle" x="17.5" y="-74.5" font-family="Helvetica,sans-Serif" font-size="10.00" fill="#000000">map</text>
</g>
<!-- Node1&#45;&gt;Node2 -->
<g id="edge2" class="edge">
<title>Node1&#45;&gt;Node2</title>
<path fill="none" stroke="#191970" d="M710.9336,-198.5299C548.9004,-194.4901 138.6885,-181.6341 83.5,-154 58.0276,-141.2454 38.3897,-113.8556 27.3862,-95.4249"/>
<polygon fill="#191970" stroke="#191970" points="30.4239,-93.6862 22.4339,-86.7284 24.341,-97.1502 30.4239,-93.6862"/>
</g>
<!-- Node3 -->
<g id="node4" class="node">
<title>Node3</title>
<polygon fill="none" stroke="#bfbfbf" points="331.5,-129 331.5,-148 375.5,-148 375.5,-129 331.5,-129"/>
<text text-anchor="middle" x="353.5" y="-136" font-family="Helvetica,sans-Serif" font-size="10.00" fill="#000000">vector</text>
</g>
<!-- Node1&#45;&gt;Node3 -->
<g id="edge3" class="edge">
<title>Node1&#45;&gt;Node3</title>
<path fill="none" stroke="#191970" d="M710.9718,-195.07C615.7477,-187.4366 444.0015,-171.7709 384.5,-154 382.8352,-153.5028 381.1516,-152.9205 379.4745,-152.2788"/>
<polygon fill="#191970" stroke="#191970" points="380.679,-148.9842 370.1187,-148.1299 377.8413,-155.3833 380.679,-148.9842"/>
</g>
<!-- Node4 -->
<g id="node5" class="node">
<title>Node4</title>
<polygon fill="none" stroke="#bfbfbf" points="53,-67.5 53,-86.5 126,-86.5 126,-67.5 53,-67.5"/>
<text text-anchor="middle" x="89.5" y="-74.5" font-family="Helvetica,sans-Serif" font-size="10.00" fill="#000000">initializer_list</text>
</g>
<!-- Node1&#45;&gt;Node4 -->
<g id="edge4" class="edge">
<title>Node1&#45;&gt;Node4</title>
<path fill="none" stroke="#191970" d="M710.8483,-197.7475C545.352,-191.7749 122.6553,-174.5745 100.5,-154 85.1673,-139.7612 84.3658,-114.549 86.122,-96.8641"/>
<polygon fill="#191970" stroke="#191970" points="89.6173,-97.1324 87.4784,-86.7557 82.6794,-96.2013 89.6173,-97.1324"/>
</g>
<!-- Node5 -->
<g id="node6" class="node">
<title>Node5</title>
<polygon fill="none" stroke="#bfbfbf" points="393.5,-129 393.5,-148 445.5,-148 445.5,-129 393.5,-129"/>
<text text-anchor="middle" x="419.5" y="-136" font-family="Helvetica,sans-Serif" font-size="10.00" fill="#000000">memory</text>
</g>
<!-- Node1&#45;&gt;Node5 -->
<g id="edge5" class="edge">
<title>Node1&#45;&gt;Node5</title>
<path fill="none" stroke="#191970" d="M710.9476,-195.9323C645.0927,-190.6199 541.2131,-178.8782 454.5,-154 452.3201,-153.3746 450.0995,-152.6405 447.8877,-151.8378"/>
<polygon fill="#191970" stroke="#191970" points="448.9843,-148.506 438.4014,-148.0039 446.3613,-154.996 448.9843,-148.506"/>
</g>
<!-- Node6 -->
<g id="node7" class="node">
<title>Node6</title>
<polygon fill="none" stroke="#bfbfbf" points="464,-129 464,-148 543,-148 543,-129 464,-129"/>
<text text-anchor="middle" x="503.5" y="-136" font-family="Helvetica,sans-Serif" font-size="10.00" fill="#000000">FairDetector.h</text>
</g>
<!-- Node1&#45;&gt;Node6 -->
<g id="edge6" class="edge">
<title>Node1&#45;&gt;Node6</title>
<path fill="none" stroke="#191970" d="M722.2772,-190.4974C676.6852,-182.1182 609.941,-168.94 552.5,-154 548.9218,-153.0693 545.2182,-152.0339 541.5235,-150.9519"/>
<polygon fill="#191970" stroke="#191970" points="542.4419,-147.573 531.8564,-148.0192 540.4097,-154.2716 542.4419,-147.573"/>
</g>
<!-- Node7 -->
<g id="node8" class="node">
<title>Node7</title>
<polygon fill="none" stroke="#bfbfbf" points="561.5,-129 561.5,-148 661.5,-148 661.5,-129 561.5,-129"/>
<text text-anchor="middle" x="611.5" y="-136" font-family="Helvetica,sans-Serif" font-size="10.00" fill="#000000">FairRootManager.h</text>
</g>
<!-- Node1&#45;&gt;Node7 -->
<g id="edge7" class="edge">
<title>Node1&#45;&gt;Node7</title>
<path fill="none" stroke="#191970" d="M750.7188,-190.3906C722.748,-179.9652 677.9181,-163.2559 646.714,-151.6252"/>
<polygon fill="#191970" stroke="#191970" points="647.6929,-148.2549 637.1002,-148.0419 645.2481,-154.8141 647.6929,-148.2549"/>
</g>
<!-- Node1&#45;&gt;Node8 -->
<g id="edge8" class="edge">
<title>Node1&#45;&gt;Node8</title>
<path fill="none" stroke="#191970" d="M710.9728,-195.1558C617.3217,-187.9271 439.8833,-173.0974 289.5,-154 279.3075,-152.7056 268.5402,-151.1621 258.0331,-149.5583"/>
<polygon fill="#191970" stroke="#191970" points="258.4853,-146.0866 248.0663,-148.0083 257.4096,-153.0035 258.4853,-146.0866"/>
</g>
<!-- Node9 -->
<g id="node10" class="node">
<title>Node9</title>
<polygon fill="none" stroke="#bfbfbf" points="308.5,-67.5 308.5,-86.5 364.5,-86.5 364.5,-67.5 308.5,-67.5"/>
<text text-anchor="middle" x="336.5" y="-74.5" font-family="Helvetica,sans-Serif" font-size="10.00" fill="#000000">Rtypes.h</text>
</g>
<!-- Node1&#45;&gt;Node9 -->
<g id="edge14" class="edge">
<title>Node1&#45;&gt;Node9</title>
<path fill="none" stroke="#191970" d="M710.8104,-198.1183C591.2562,-194.0116 348.0311,-182.2487 322.5,-154 308.2584,-138.2425 316.6295,-113.0184 325.3077,-95.7641"/>
<polygon fill="#191970" stroke="#191970" points="328.5599,-97.1115 330.2841,-86.6579 322.4173,-93.7546 328.5599,-97.1115"/>
</g>
<!-- Node12 -->
<g id="node13" class="node">
<title>Node12</title>
<polygon fill="none" stroke="#bfbfbf" points="680,-129 680,-148 733,-148 733,-129 680,-129"/>
<text text-anchor="middle" x="706.5" y="-136" font-family="Helvetica,sans-Serif" font-size="10.00" fill="#000000">cxxabi.h</text>
</g>
<!-- Node1&#45;&gt;Node12 -->
<g id="edge15" class="edge">
<title>Node1&#45;&gt;Node12</title>
<path fill="none" stroke="#191970" d="M765.5625,-190.3906C754.838,-180.9683 738.2713,-166.4134 725.4099,-155.1137"/>
<polygon fill="#191970" stroke="#191970" points="727.4143,-152.2158 717.5917,-148.2449 722.7941,-157.4745 727.4143,-152.2158"/>
</g>
<!-- Node13 -->
<g id="node14" class="node">
<title>Node13</title>
<polygon fill="none" stroke="#bfbfbf" points="751,-129 751,-148 802,-148 802,-129 751,-129"/>
<text text-anchor="middle" x="776.5" y="-136" font-family="Helvetica,sans-Serif" font-size="10.00" fill="#000000">typeinfo</text>
</g>
<!-- Node1&#45;&gt;Node13 -->
<g id="edge16" class="edge">
<title>Node1&#45;&gt;Node13</title>
<path fill="none" stroke="#191970" d="M776.5,-190.3906C776.5,-181.8657 776.5,-169.1392 776.5,-158.4235"/>
<polygon fill="#191970" stroke="#191970" points="780.0001,-158.2448 776.5,-148.2449 773.0001,-158.2449 780.0001,-158.2448"/>
</g>
<!-- Node14 -->
<g id="node15" class="node">
<title>Node14</title>
<polygon fill="none" stroke="#bfbfbf" points="820.5,-129 820.5,-148 882.5,-148 882.5,-129 820.5,-129"/>
<text text-anchor="middle" x="851.5" y="-136" font-family="Helvetica,sans-Serif" font-size="10.00" fill="#000000">type_traits</text>
</g>
<!-- Node1&#45;&gt;Node14 -->
<g id="edge17" class="edge">
<title>Node1&#45;&gt;Node14</title>
<path fill="none" stroke="#191970" d="M788.2188,-190.3906C799.8188,-180.8786 817.7979,-166.1357 831.6321,-154.7917"/>
<polygon fill="#191970" stroke="#191970" points="834.1026,-157.2921 839.616,-148.2449 829.664,-151.8792 834.1026,-157.2921"/>
</g>
<!-- Node15 -->
<g id="node16" class="node">
<title>Node15</title>
<polygon fill="none" stroke="#bfbfbf" points="901,-129 901,-148 942,-148 942,-129 901,-129"/>
<text text-anchor="middle" x="921.5" y="-136" font-family="Helvetica,sans-Serif" font-size="10.00" fill="#000000">string</text>
</g>
<!-- Node1&#45;&gt;Node15 -->
<g id="edge18" class="edge">
<title>Node1&#45;&gt;Node15</title>
<path fill="none" stroke="#191970" d="M802.3773,-190.4674C825.8835,-181.6158 861.3816,-167.7655 891.5,-154 892.4864,-153.5492 893.4869,-153.0825 894.4943,-152.6048"/>
<polygon fill="#191970" stroke="#191970" points="896.1385,-155.6964 903.5537,-148.129 893.0379,-149.4205 896.1385,-155.6964"/>
</g>
<!-- Node16 -->
<g id="node17" class="node">
<title>Node16</title>
<polygon fill="none" stroke="#bfbfbf" points="960,-129 960,-148 1031,-148 1031,-129 960,-129"/>
<text text-anchor="middle" x="995.5" y="-136" font-family="Helvetica,sans-Serif" font-size="10.00" fill="#000000">TMessage.h</text>
</g>
<!-- Node1&#45;&gt;Node16 -->
<g id="edge19" class="edge">
<title>Node1&#45;&gt;Node16</title>
<path fill="none" stroke="#191970" d="M815.7758,-190.4906C851.1939,-181.7083 904.6103,-167.9487 950.5,-154 953.4103,-153.1154 956.4142,-152.1647 959.4244,-151.1851"/>
<polygon fill="#191970" stroke="#191970" points="960.5773,-154.4902 968.9548,-148.0041 958.361,-147.8503 960.5773,-154.4902"/>
</g>
<!-- Node17 -->
<g id="node18" class="node">
<title>Node17</title>
<g id="a_node18"><a xlink:href="../../de/d61/ShmManager_8h.html" target="_top" xlink:title="CommonUtils/ShmManager.h">
<polygon fill="none" stroke="#000000" points="1029.5,-67.5 1029.5,-86.5 1175.5,-86.5 1175.5,-67.5 1029.5,-67.5"/>
<text text-anchor="middle" x="1102.5" y="-74.5" font-family="Helvetica,sans-Serif" font-size="10.00" fill="#000000">CommonUtils/ShmManager.h</text>
</a>
</g>
</g>
<!-- Node1&#45;&gt;Node17 -->
<g id="edge20" class="edge">
<title>Node1&#45;&gt;Node17</title>
<path fill="none" stroke="#191970" d="M842.1904,-193.7815C908.8826,-186.5448 1006.8382,-173.0981 1039.5,-154 1063.2775,-140.0967 1081.8781,-113.6361 1092.5248,-95.6577"/>
<polygon fill="#191970" stroke="#191970" points="1095.7281,-97.1034 1097.6038,-86.6759 1089.6348,-93.6578 1095.7281,-97.1034"/>
</g>
<!-- Node23 -->
<g id="node24" class="node">
<title>Node23</title>
<g id="a_node24"><a xlink:href="../../d0/d91/ShmAllocator_8h.html" target="_top" xlink:title="CommonUtils/ShmAllocator.h">
<polygon fill="none" stroke="#000000" points="1087.5,-129 1087.5,-148 1233.5,-148 1233.5,-129 1087.5,-129"/>
<text text-anchor="middle" x="1160.5" y="-136" font-family="Helvetica,sans-Serif" font-size="10.00" fill="#000000">CommonUtils/ShmAllocator.h</text>
</a>
</g>
</g>
<!-- Node1&#45;&gt;Node23 -->
<g id="edge26" class="edge">
<title>Node1&#45;&gt;Node23</title>
<path fill="none" stroke="#191970" d="M840.876,-190.4592C901.0794,-181.4349 993.4661,-167.3256 1073.5,-154 1081.4617,-152.6744 1089.8253,-151.239 1098.0894,-149.795"/>
<polygon fill="#191970" stroke="#191970" points="1098.8444,-153.216 1108.0866,-148.036 1097.6314,-146.3218 1098.8444,-153.216"/>
</g>
<!-- Node1&#45;&gt;Node24 -->
<g id="edge31" class="edge">
<title>Node1&#45;&gt;Node24</title>
<path fill="none" stroke="#191970" d="M842.3591,-197.6596C963.689,-192.7488 1212.8846,-179.6431 1242.5,-154 1258.7152,-139.9598 1262.2316,-114.4952 1262.4997,-96.7086"/>
<polygon fill="#191970" stroke="#191970" points="1265.9966,-96.4979 1262.3196,-86.5616 1258.9977,-96.6221 1265.9966,-96.4979"/>
</g>
<!-- Node25 -->
<g id="node26" class="node">
<title>Node25</title>
<polygon fill="none" stroke="#bfbfbf" points="1289.5,-129 1289.5,-148 1351.5,-148 1351.5,-129 1289.5,-129"/>
<text text-anchor="middle" x="1320.5" y="-136" font-family="Helvetica,sans-Serif" font-size="10.00" fill="#000000">sys/shm.h</text>
</g>
<!-- Node1&#45;&gt;Node25 -->
<g id="edge29" class="edge">
<title>Node1&#45;&gt;Node25</title>
<path fill="none" stroke="#191970" d="M842.3296,-195.8987C958.3455,-188.3429 1194.5916,-171.3991 1275.5,-154 1279.1049,-153.2248 1282.8204,-152.2488 1286.4984,-151.1657"/>
<polygon fill="#191970" stroke="#191970" points="1287.5865,-154.4924 1296.045,-148.1125 1285.4541,-147.8251 1287.5865,-154.4924"/>
</g>
<!-- Node26 -->
<g id="node27" class="node">
<title>Node26</title>
<polygon fill="none" stroke="#bfbfbf" points="1370,-129 1370,-148 1421,-148 1421,-129 1370,-129"/>
<text text-anchor="middle" x="1395.5" y="-136" font-family="Helvetica,sans-Serif" font-size="10.00" fill="#000000">unistd.h</text>
</g>
<!-- Node1&#45;&gt;Node26 -->
<g id="edge30" class="edge">
<title>Node1&#45;&gt;Node26</title>
<path fill="none" stroke="#191970" d="M842.0303,-197.6217C973.2478,-192.4034 1263.936,-178.4257 1360.5,-154 1362.8375,-153.4087 1365.2154,-152.6737 1367.5754,-151.8476"/>
<polygon fill="#191970" stroke="#191970" points="1369.0371,-155.0327 1377.0258,-148.0734 1366.4409,-148.5319 1369.0371,-155.0327"/>
</g>
<!-- Node8&#45;&gt;Node2 -->
<g id="edge10" class="edge">
<title>Node8&#45;&gt;Node2</title>
<path fill="none" stroke="#191970" d="M163.8325,-128.9177C135.6934,-119.4407 91.3394,-104.3139 44.7481,-87.3835"/>
<polygon fill="#191970" stroke="#191970" points="45.6852,-83.9998 35.0913,-83.8599 43.2857,-90.5757 45.6852,-83.9998"/>
</g>
<!-- Node8&#45;&gt;Node4 -->
<g id="edge12" class="edge">
<title>Node8&#45;&gt;Node4</title>
<path fill="none" stroke="#191970" d="M176.4063,-128.8906C159.7772,-118.9616 133.6024,-103.333 114.3206,-91.8201"/>
<polygon fill="#191970" stroke="#191970" points="115.861,-88.6634 105.4807,-86.5419 112.2724,-94.6736 115.861,-88.6634"/>
</g>
<!-- Node8&#45;&gt;Node9 -->
<g id="edge9" class="edge">
<title>Node8&#45;&gt;Node9</title>
<path fill="none" stroke="#191970" d="M215,-128.8906C239.0938,-118.6005 277.5213,-102.1888 304.7008,-90.5809"/>
<polygon fill="#191970" stroke="#191970" points="306.3363,-93.6883 314.158,-86.5419 303.5869,-87.2508 306.3363,-93.6883"/>
</g>
<!-- Node10 -->
<g id="node11" class="node">
<title>Node10</title>
<polygon fill="none" stroke="#bfbfbf" points="144,-67.5 144,-86.5 227,-86.5 227,-67.5 144,-67.5"/>
<text text-anchor="middle" x="185.5" y="-74.5" font-family="Helvetica,sans-Serif" font-size="10.00" fill="#000000">unordered_map</text>
</g>
<!-- Node8&#45;&gt;Node10 -->
<g id="edge11" class="edge">
<title>Node8&#45;&gt;Node10</title>
<path fill="none" stroke="#191970" d="M191.4063,-128.8906C190.4359,-120.3657 188.9874,-107.6392 187.7677,-96.9235"/>
<polygon fill="#191970" stroke="#191970" points="191.2177,-96.2849 186.6092,-86.7449 184.2626,-97.0766 191.2177,-96.2849"/>
</g>
<!-- Node11 -->
<g id="node12" class="node">
<title>Node11</title>
<polygon fill="none" stroke="#bfbfbf" points="245,-67.5 245,-86.5 290,-86.5 290,-67.5 245,-67.5"/>
<text text-anchor="middle" x="267.5" y="-74.5" font-family="Helvetica,sans-Serif" font-size="10.00" fill="#000000">iosfwd</text>
</g>
<!-- Node8&#45;&gt;Node11 -->
<g id="edge13" class="edge">
<title>Node8&#45;&gt;Node11</title>
<path fill="none" stroke="#191970" d="M204.2188,-128.8906C215.8188,-119.3786 233.7979,-104.6357 247.6321,-93.2917"/>
<polygon fill="#191970" stroke="#191970" points="250.1026,-95.7921 255.616,-86.7449 245.664,-90.3792 250.1026,-95.7921"/>
</g>
<!-- Node18 -->
<g id="node19" class="node">
<title>Node18</title>
<polygon fill="none" stroke="#bfbfbf" points="965,-6 965,-25 994,-25 994,-6 965,-6"/>
<text text-anchor="middle" x="979.5" y="-13" font-family="Helvetica,sans-Serif" font-size="10.00" fill="#000000">list</text>
</g>
<!-- Node17&#45;&gt;Node18 -->
<g id="edge21" class="edge">
<title>Node17&#45;&gt;Node18</title>
<path fill="none" stroke="#191970" d="M1078.9346,-67.4397C1058.3273,-58.7807 1027.8212,-45.2325 1002.5,-31 1002.2009,-30.8319 1001.9007,-30.6611 1001.5996,-30.488"/>
<polygon fill="#191970" stroke="#191970" points="1003.2275,-27.3783 992.8908,-25.0534 999.5215,-33.3169 1003.2275,-27.3783"/>
</g>
<!-- Node19 -->
<g id="node20" class="node">
<title>Node19</title>
<polygon fill="none" stroke="#bfbfbf" points="1012,-6 1012,-25 1061,-25 1061,-6 1012,-6"/>
<text text-anchor="middle" x="1036.5" y="-13" font-family="Helvetica,sans-Serif" font-size="10.00" fill="#000000">cstddef</text>
</g>
<!-- Node17&#45;&gt;Node19 -->
<g id="edge22" class="edge">
<title>Node17&#45;&gt;Node19</title>
<path fill="none" stroke="#191970" d="M1092.1875,-67.3906C1082.0758,-57.9683 1066.4558,-43.4134 1054.3293,-32.1137"/>
<polygon fill="#191970" stroke="#191970" points="1056.6601,-29.5015 1046.9579,-25.2449 1051.888,-34.6228 1056.6601,-29.5015"/>
</g>
<!-- Node20 -->
<g id="node21" class="node">
<title>Node20</title>
<polygon fill="none" stroke="#bfbfbf" points="1079.5,-6 1079.5,-25 1125.5,-25 1125.5,-6 1079.5,-6"/>
<text text-anchor="middle" x="1102.5" y="-13" font-family="Helvetica,sans-Serif" font-size="10.00" fill="#000000">atomic</text>
</g>
<!-- Node17&#45;&gt;Node20 -->
<g id="edge23" class="edge">
<title>Node17&#45;&gt;Node20</title>
<path fill="none" stroke="#191970" d="M1102.5,-67.3906C1102.5,-58.8657 1102.5,-46.1392 1102.5,-35.4235"/>
<polygon fill="#191970" stroke="#191970" points="1106.0001,-35.2448 1102.5,-25.2449 1099.0001,-35.2449 1106.0001,-35.2448"/>
</g>
<!-- Node21 -->
<g id="node22" class="node">
<title>Node21</title>
<polygon fill="none" stroke="#bfbfbf" points="1143.5,-.5 1143.5,-30.5 1291.5,-30.5 1291.5,-.5 1143.5,-.5"/>
<text text-anchor="start" x="1151.5" y="-18.5" font-family="Helvetica,sans-Serif" font-size="10.00" fill="#000000">boost/interprocess</text>
<text text-anchor="middle" x="1217.5" y="-7.5" font-family="Helvetica,sans-Serif" font-size="10.00" fill="#000000">/managed_external_buffer.hpp</text>
</g>
<!-- Node17&#45;&gt;Node21 -->
<g id="edge24" class="edge">
<title>Node17&#45;&gt;Node21</title>
<path fill="none" stroke="#191970" d="M1120.4688,-67.3906C1136.4649,-58.8361 1160.3723,-46.0509 1180.453,-35.3121"/>
<polygon fill="#191970" stroke="#191970" points="1182.2002,-38.3469 1189.3678,-30.5446 1178.899,-32.1741 1182.2002,-38.3469"/>
</g>
<!-- Node22 -->
<g id="node23" class="node">
<title>Node22</title>
<polygon fill="none" stroke="#bfbfbf" points="1309.5,-.5 1309.5,-30.5 1429.5,-30.5 1429.5,-.5 1309.5,-.5"/>
<text text-anchor="start" x="1317.5" y="-18.5" font-family="Helvetica,sans-Serif" font-size="10.00" fill="#000000">boost/interprocess</text>
<text text-anchor="middle" x="1369.5" y="-7.5" font-family="Helvetica,sans-Serif" font-size="10.00" fill="#000000">/allocators/allocator.hpp</text>
</g>
<!-- Node17&#45;&gt;Node22 -->
<g id="edge25" class="edge">
<title>Node17&#45;&gt;Node22</title>
<path fill="none" stroke="#191970" d="M1143.9258,-67.4581C1185.3787,-57.91 1249.9241,-43.0428 1299.3688,-31.6538"/>
<polygon fill="#191970" stroke="#191970" points="1300.4014,-35.0077 1309.3606,-29.3523 1298.8301,-28.1863 1300.4014,-35.0077"/>
</g>
<!-- Node23&#45;&gt;Node17 -->
<g id="edge27" class="edge">
<title>Node23&#45;&gt;Node17</title>
<path fill="none" stroke="#191970" d="M1151.4375,-128.8906C1142.7207,-119.6478 1129.346,-105.466 1118.7804,-94.2628"/>
<polygon fill="#191970" stroke="#191970" points="1121.0976,-91.6186 1111.6903,-86.7449 1116.005,-96.4213 1121.0976,-91.6186"/>
</g>
<!-- Node23&#45;&gt;Node24 -->
<g id="edge28" class="edge">
<title>Node23&#45;&gt;Node24</title>
<path fill="none" stroke="#191970" d="M1176.2813,-128.8906C1192.5875,-118.9616 1218.254,-103.333 1237.1614,-91.8201"/>
<polygon fill="#191970" stroke="#191970" points="1239.1087,-94.7322 1245.8296,-86.5419 1235.4681,-88.7533 1239.1087,-94.7322"/>
</g>
<!-- Node28 -->
<g id="node29" class="node">
<title>Node28</title>
<g id="a_node29"><a xlink:href="../../d4/d6e/PassiveBase_8h.html" target="_top" xlink:title="DetectorsPassive/Passive\lBase.h">
<polygon fill="none" stroke="#000000" points="1478,-123.5 1478,-153.5 1611,-153.5 1611,-123.5 1478,-123.5"/>
<text text-anchor="start" x="1486" y="-141.5" font-family="Helvetica,sans-Serif" font-size="10.00" fill="#000000">DetectorsPassive/Passive</text>
<text text-anchor="middle" x="1544.5" y="-130.5" font-family="Helvetica,sans-Serif" font-size="10.00" fill="#000000">Base.h</text>
</a>
</g>
</g>
<!-- Node27&#45;&gt;Node28 -->
<g id="edge33" class="edge">
<title>Node27&#45;&gt;Node28</title>
<path fill="none" stroke="#191970" d="M1539.4375,-190.3906C1540.1367,-183.2234 1541.1257,-173.0862 1542.0443,-163.671"/>
<polygon fill="#191970" stroke="#191970" points="1545.5446,-163.8372 1543.0322,-153.5446 1538.5777,-163.1575 1545.5446,-163.8372"/>
</g>
<!-- Node29 -->
<g id="node30" class="node">
<title>Node29</title>
<polygon fill="none" stroke="#bfbfbf" points="1508,-67.5 1508,-86.5 1581,-86.5 1581,-67.5 1508,-67.5"/>
<text text-anchor="middle" x="1544.5" y="-74.5" font-family="Helvetica,sans-Serif" font-size="10.00" fill="#000000">FairModule.h</text>
</g>
<!-- Node28&#45;&gt;Node29 -->
<g id="edge34" class="edge">
<title>Node28&#45;&gt;Node29</title>
<path fill="none" stroke="#191970" d="M1544.5,-123.2977C1544.5,-115.3834 1544.5,-105.6043 1544.5,-97.0759"/>
<polygon fill="#191970" stroke="#191970" points="1548.0001,-96.8469 1544.5,-86.8469 1541.0001,-96.847 1548.0001,-96.8469"/>
</g>
</g>
</svg>
