<?xml version="1.0" encoding="UTF-8" standalone="no"?>
<!DOCTYPE svg PUBLIC "-//W3C//DTD SVG 1.1//EN"
 "http://www.w3.org/Graphics/SVG/1.1/DTD/svg11.dtd">
<!-- Generated by graphviz version 2.40.1 (20161225.0304)
 -->
<!-- Title: o2::fdd::Topo Pages: 1 -->
<svg width="95pt" height="182pt"
 viewBox="0.00 0.00 95.00 182.00" xmlns="http://www.w3.org/2000/svg" xmlns:xlink="http://www.w3.org/1999/xlink">
<g id="graph0" class="graph" transform="scale(1 1) rotate(0) translate(4 178)">
<title>o2::fdd::Topo</title>
<!-- Node1 -->
<g id="node1" class="node">
<title>Node1</title>
<polygon fill="#bfbfbf" stroke="#000000" points="0,-.5 0,-57.5 87,-57.5 87,-.5 0,-.5"/>
<text text-anchor="middle" x="43.5" y="-45.5" font-family="Helvetica,sans-Serif" font-size="10.00" fill="#000000">o2::fdd::Topo</text>
<polyline fill="none" stroke="#000000" points="0,-38.5 87,-38.5 "/>
<text text-anchor="middle" x="43.5" y="-26.5" font-family="Helvetica,sans-Serif" font-size="10.00" fill="#000000"> </text>
<polyline fill="none" stroke="#000000" points="0,-19.5 87,-19.5 "/>
<text text-anchor="start" x="8" y="-7.5" font-family="Helvetica,sans-Serif" font-size="10.00" fill="#000000">+ ClassDefNV()</text>
</g>
<!-- Node2 -->
<g id="node2" class="node">
<title>Node2</title>
<polygon fill="none" stroke="#bfbfbf" points="29,-116.5 29,-173.5 58,-173.5 58,-116.5 29,-116.5"/>
<text text-anchor="middle" x="43.5" y="-161.5" font-family="Helvetica,sans-Serif" font-size="10.00" fill="#000000">int</text>
<polyline fill="none" stroke="#bfbfbf" points="29,-154.5 58,-154.5 "/>
<text text-anchor="middle" x="43.5" y="-142.5" font-family="Helvetica,sans-Serif" font-size="10.00" fill="#000000"> </text>
<polyline fill="none" stroke="#bfbfbf" points="29,-135.5 58,-135.5 "/>
<text text-anchor="middle" x="43.5" y="-123.5" font-family="Helvetica,sans-Serif" font-size="10.00" fill="#000000"> </text>
</g>
<!-- Node2&#45;&gt;Node1 -->
<g id="edge1" class="edge">
<title>Node2&#45;&gt;Node1</title>
<path fill="none" stroke="#404040" d="M43.5,-116.3258C43.5,-102.3834 43.5,-85.3727 43.5,-70.0815"/>
<polygon fill="none" stroke="#404040" points="43.5001,-69.7463 39.5,-63.7464 43.5,-57.7463 47.5,-63.7463 43.5001,-69.7463"/>
<text text-anchor="middle" x="65" y="-90" font-family="Helvetica,sans-Serif" font-size="10.00" fill="#000000"> +modCh</text>
<text text-anchor="middle" x="65" y="-79" font-family="Helvetica,sans-Serif" font-size="10.00" fill="#000000">+modLink</text>
</g>
</g>
</svg>
