<?xml version="1.0" encoding="UTF-8" standalone="no"?>
<!DOCTYPE svg PUBLIC "-//W3C//DTD SVG 1.1//EN"
 "http://www.w3.org/Graphics/SVG/1.1/DTD/svg11.dtd">
<!-- Generated by graphviz version 2.40.1 (20161225.0304)
 -->
<!-- Title: MchCathodeSegmentation Pages: 1 -->
<svg width="426pt" height="193pt"
 viewBox="0.00 0.00 426.00 193.00" xmlns="http://www.w3.org/2000/svg" xmlns:xlink="http://www.w3.org/1999/xlink">
<g id="graph0" class="graph" transform="scale(1 1) rotate(0) translate(4 189)">
<title>MchCathodeSegmentation</title>
<!-- Node1 -->
<g id="node1" class="node">
<title>Node1</title>
<polygon fill="#bfbfbf" stroke="#000000" points="135.5,-.5 135.5,-68.5 282.5,-68.5 282.5,-.5 135.5,-.5"/>
<text text-anchor="middle" x="209" y="-56.5" font-family="Helvetica,sans-Serif" font-size="10.00" fill="#000000">MchCathodeSegmentation</text>
<polyline fill="none" stroke="#000000" points="135.5,-49.5 282.5,-49.5 "/>
<text text-anchor="middle" x="209" y="-37.5" font-family="Helvetica,sans-Serif" font-size="10.00" fill="#000000"> </text>
<polyline fill="none" stroke="#000000" points="135.5,-30.5 282.5,-30.5 "/>
<text text-anchor="start" x="143.5" y="-18.5" font-family="Helvetica,sans-Serif" font-size="10.00" fill="#000000">+ MchCathodeSegmentation()</text>
<text text-anchor="start" x="143.5" y="-7.5" font-family="Helvetica,sans-Serif" font-size="10.00" fill="#000000">+ MchCathodeSegmentation()</text>
</g>
<!-- Node2 -->
<g id="node2" class="node">
<title>Node2</title>
<polygon fill="none" stroke="#bfbfbf" points="0,-116.5 0,-184.5 200,-184.5 200,-116.5 0,-116.5"/>
<text text-anchor="start" x="8" y="-172.5" font-family="Helvetica,sans-Serif" font-size="10.00" fill="#000000">unique_ptr&lt; o2::mch</text>
<text text-anchor="middle" x="100" y="-161.5" font-family="Helvetica,sans-Serif" font-size="10.00" fill="#000000">::mapping::impl3::CathodeSegmentation &gt;</text>
<polyline fill="none" stroke="#bfbfbf" points="0,-154.5 200,-154.5 "/>
<text text-anchor="middle" x="100" y="-142.5" font-family="Helvetica,sans-Serif" font-size="10.00" fill="#000000"> </text>
<polyline fill="none" stroke="#bfbfbf" points="0,-135.5 200,-135.5 "/>
<text text-anchor="middle" x="100" y="-123.5" font-family="Helvetica,sans-Serif" font-size="10.00" fill="#000000"> </text>
</g>
<!-- Node2&#45;&gt;Node1 -->
<g id="edge1" class="edge">
<title>Node2&#45;&gt;Node1</title>
<path fill="none" stroke="#404040" d="M132.1141,-116.3236C143.4333,-104.2774 156.3119,-90.5718 168.2489,-77.8681"/>
<polygon fill="none" stroke="#404040" points="168.5215,-77.5781 169.7151,-70.4664 176.7388,-68.833 175.5452,-75.9446 168.5215,-77.5781"/>
<text text-anchor="middle" x="172" y="-90" font-family="Helvetica,sans-Serif" font-size="10.00" fill="#000000"> +impl</text>
</g>
<!-- Node3 -->
<g id="node3" class="node">
<title>Node3</title>
<polygon fill="none" stroke="#bfbfbf" points="218,-116.5 218,-184.5 418,-184.5 418,-116.5 218,-116.5"/>
<text text-anchor="start" x="226" y="-172.5" font-family="Helvetica,sans-Serif" font-size="10.00" fill="#000000">unique_ptr&lt; o2::mch</text>
<text text-anchor="middle" x="318" y="-161.5" font-family="Helvetica,sans-Serif" font-size="10.00" fill="#000000">::mapping::impl4::CathodeSegmentation &gt;</text>
<polyline fill="none" stroke="#bfbfbf" points="218,-154.5 418,-154.5 "/>
<text text-anchor="middle" x="318" y="-142.5" font-family="Helvetica,sans-Serif" font-size="10.00" fill="#000000"> </text>
<polyline fill="none" stroke="#bfbfbf" points="218,-135.5 418,-135.5 "/>
<text text-anchor="middle" x="318" y="-123.5" font-family="Helvetica,sans-Serif" font-size="10.00" fill="#000000"> </text>
</g>
<!-- Node3&#45;&gt;Node1 -->
<g id="edge2" class="edge">
<title>Node3&#45;&gt;Node1</title>
<path fill="none" stroke="#404040" d="M285.8859,-116.3236C274.5667,-104.2774 261.6881,-90.5718 249.7511,-77.8681"/>
<polygon fill="none" stroke="#404040" points="249.4785,-77.5781 242.4548,-75.9446 241.2612,-68.833 248.2849,-70.4664 249.4785,-77.5781"/>
<text text-anchor="middle" x="281" y="-90" font-family="Helvetica,sans-Serif" font-size="10.00" fill="#000000"> +impl</text>
</g>
</g>
</svg>
