<?xml version="1.0" encoding="UTF-8" standalone="no"?>
<!DOCTYPE svg PUBLIC "-//W3C//DTD SVG 1.1//EN"
 "http://www.w3.org/Graphics/SVG/1.1/DTD/svg11.dtd">
<!-- Generated by graphviz version 2.40.1 (20161225.0304)
 -->
<!-- Title: /home/runner/work/AliceO2/AliceO2/Framework/Core/src/Metric2DViewIndex.cxx Pages: 1 -->
<!--zoomable 162 -->
<svg id="main" version="1.1" xmlns="http://www.w3.org/2000/svg" xmlns:xlink="http://www.w3.org/1999/xlink" xml:space="preserve" onload="init(evt)">
<style type="text/css"><![CDATA[
.edge:hover path { stroke: red; }
.edge:hover polygon { stroke: red; fill: red; }
]]></style>
<script type="text/javascript"><![CDATA[
var edges = document.getElementsByTagName('g');
if (edges && edges.length) {
  for (var i=0;i<edges.length;i++) {
    if (edges[i].id.substr(0,4)=='edge') {
      edges[i].setAttribute('class','edge');
    }
  }
}
]]></script>
        <defs>
                <circle id="rim" cx="0" cy="0" r="7"/>
                <circle id="rim2" cx="0" cy="0" r="3.5"/>
                <g id="zoomPlus">
                        <use xlink:href="#rim" fill="#404040">
                                <set attributeName="fill" to="#808080" begin="zoomplus.mouseover" end="zoomplus.mouseout"/>
                        </use>
                        <path d="M-4,0h8M0,-4v8" fill="none" stroke="white" stroke-width="1.5" pointer-events="none"/>
                </g>
                <g id="zoomMin">
                        <use xlink:href="#rim" fill="#404040">
                                <set attributeName="fill" to="#808080" begin="zoomminus.mouseover" end="zoomminus.mouseout"/>
                        </use>
                        <path d="M-4,0h8" fill="none" stroke="white" stroke-width="1.5" pointer-events="none"/>
                </g>
                <g id="dirArrow">
                        <path fill="none" stroke="white" stroke-width="1.5" d="M0,-3.0v7 M-2.5,-0.5L0,-3.0L2.5,-0.5"/>
                </g>
               <g id="resetDef">
                       <use xlink:href="#rim2" fill="#404040">
                               <set attributeName="fill" to="#808080" begin="reset.mouseover" end="reset.mouseout"/>
                       </use>
               </g>
        </defs>

<script type="text/javascript">
var viewWidth = 727;
var viewHeight = 162;
var sectionId = 'dynsection-0';
</script>
<script xlink:href="../../svgpan.js"/>
<svg id="graph" class="graph">
<g id="viewport">
<title>/home/runner/work/AliceO2/AliceO2/Framework/Core/src/Metric2DViewIndex.cxx</title>
<!-- Node0 -->
<g id="node1" class="node">
<title>Node0</title>
<polygon fill="#bfbfbf" stroke="#000000" points="237.5,-112.5 237.5,-153.5 377.5,-153.5 377.5,-112.5 237.5,-112.5"/>
<text text-anchor="start" x="245.5" y="-141.5" font-family="Helvetica,sans-Serif" font-size="10.00" fill="#000000">/home/runner/work/AliceO2</text>
<text text-anchor="start" x="245.5" y="-130.5" font-family="Helvetica,sans-Serif" font-size="10.00" fill="#000000">/AliceO2/Framework/Core</text>
<text text-anchor="middle" x="307.5" y="-119.5" font-family="Helvetica,sans-Serif" font-size="10.00" fill="#000000">/src/Metric2DViewIndex.cxx</text>
</g>
<!-- Node1 -->
<g id="node2" class="node">
<title>Node1</title>
<g id="a_node2"><a xlink:href="../../d0/d2c/Metric2DViewIndex_8h.html" target="_top" xlink:title="Framework/Metric2DViewIndex.h">
<polygon fill="none" stroke="#000000" points="49.5,-56.5 49.5,-75.5 211.5,-75.5 211.5,-56.5 49.5,-56.5"/>
<text text-anchor="middle" x="130.5" y="-63.5" font-family="Helvetica,sans-Serif" font-size="10.00" fill="#000000">Framework/Metric2DViewIndex.h</text>
</a>
</g>
</g>
<!-- Node0&#45;&gt;Node1 -->
<g id="edge1" class="edge">
<title>Node0&#45;&gt;Node1</title>
<path fill="none" stroke="#191970" d="M252.9499,-112.3511C224.4341,-101.557 190.3755,-88.6647 165.4256,-79.2204"/>
<polygon fill="#191970" stroke="#191970" points="166.597,-75.9215 156.0055,-75.6546 164.1188,-82.4682 166.597,-75.9215"/>
</g>
<!-- Node2 -->
<g id="node3" class="node">
<title>Node2</title>
<polygon fill="none" stroke="#bfbfbf" points="0,-.5 0,-19.5 59,-19.5 59,-.5 0,-.5"/>
<text text-anchor="middle" x="29.5" y="-7.5" font-family="Helvetica,sans-Serif" font-size="10.00" fill="#000000">functional</text>
</g>
<!-- Node0&#45;&gt;Node2 -->
<g id="edge18" class="edge">
<title>Node0&#45;&gt;Node2</title>
<path fill="none" stroke="#191970" d="M237.3155,-126.8846C167.5192,-119.303 67.1097,-103.8398 40.5,-76 28.8592,-63.8211 26.8776,-44.2586 27.3469,-29.5874"/>
<polygon fill="#191970" stroke="#191970" points="30.8442,-29.7486 28.0642,-19.525 23.8619,-29.2508 30.8442,-29.7486"/>
</g>
<!-- Node6 -->
<g id="node7" class="node">
<title>Node6</title>
<g id="a_node7"><a xlink:href="../../dc/df0/DeviceMetricsInfo_8h.html" target="_top" xlink:title="Framework/DeviceMetricsInfo.h">
<polygon fill="none" stroke="#000000" points="229.5,-56.5 229.5,-75.5 385.5,-75.5 385.5,-56.5 229.5,-56.5"/>
<text text-anchor="middle" x="307.5" y="-63.5" font-family="Helvetica,sans-Serif" font-size="10.00" fill="#000000">Framework/DeviceMetricsInfo.h</text>
</a>
</g>
</g>
<!-- Node0&#45;&gt;Node6 -->
<g id="edge6" class="edge">
<title>Node0&#45;&gt;Node6</title>
<path fill="none" stroke="#191970" d="M307.5,-112.168C307.5,-103.8226 307.5,-94.2471 307.5,-85.9879"/>
<polygon fill="#191970" stroke="#191970" points="311.0001,-85.7804 307.5,-75.7805 304.0001,-85.7805 311.0001,-85.7804"/>
</g>
<!-- Node11 -->
<g id="node12" class="node">
<title>Node11</title>
<g id="a_node12"><a xlink:href="../../dd/da4/Logger_8h.html" target="_top" xlink:title="Framework/Logger.h">
<polygon fill="none" stroke="#000000" points="403.5,-56.5 403.5,-75.5 509.5,-75.5 509.5,-56.5 403.5,-56.5"/>
<text text-anchor="middle" x="456.5" y="-63.5" font-family="Helvetica,sans-Serif" font-size="10.00" fill="#000000">Framework/Logger.h</text>
</a>
</g>
</g>
<!-- Node0&#45;&gt;Node11 -->
<g id="edge15" class="edge">
<title>Node0&#45;&gt;Node11</title>
<path fill="none" stroke="#191970" d="M353.4207,-112.3511C376.8945,-101.7958 404.83,-89.2342 425.6942,-79.8523"/>
<polygon fill="#191970" stroke="#191970" points="427.3443,-82.9479 435.0292,-75.6546 424.4735,-76.5637 427.3443,-82.9479"/>
</g>
<!-- Node13 -->
<g id="node14" class="node">
<title>Node13</title>
<polygon fill="none" stroke="#bfbfbf" points="527.5,-56.5 527.5,-75.5 583.5,-75.5 583.5,-56.5 527.5,-56.5"/>
<text text-anchor="middle" x="555.5" y="-63.5" font-family="Helvetica,sans-Serif" font-size="10.00" fill="#000000">algorithm</text>
</g>
<!-- Node0&#45;&gt;Node13 -->
<g id="edge17" class="edge">
<title>Node0&#45;&gt;Node13</title>
<path fill="none" stroke="#191970" d="M377.5724,-114.0691C423.0037,-101.7954 480.4296,-86.2811 517.5539,-76.2516"/>
<polygon fill="#191970" stroke="#191970" points="518.7186,-79.5625 527.4596,-73.5754 516.8929,-72.8047 518.7186,-79.5625"/>
</g>
<!-- Node1&#45;&gt;Node2 -->
<g id="edge2" class="edge">
<title>Node1&#45;&gt;Node2</title>
<path fill="none" stroke="#191970" d="M112.9071,-56.2455C97.121,-47.4928 73.7361,-34.527 55.7413,-24.5496"/>
<polygon fill="#191970" stroke="#191970" points="57.3341,-21.4308 46.8913,-19.6427 53.9397,-27.5528 57.3341,-21.4308"/>
</g>
<!-- Node3 -->
<g id="node4" class="node">
<title>Node3</title>
<polygon fill="none" stroke="#bfbfbf" points="77,-.5 77,-19.5 126,-19.5 126,-.5 77,-.5"/>
<text text-anchor="middle" x="101.5" y="-7.5" font-family="Helvetica,sans-Serif" font-size="10.00" fill="#000000">cstddef</text>
</g>
<!-- Node1&#45;&gt;Node3 -->
<g id="edge3" class="edge">
<title>Node1&#45;&gt;Node3</title>
<path fill="none" stroke="#191970" d="M125.4486,-56.2455C121.4981,-48.617 115.8903,-37.7881 111.0942,-28.5267"/>
<polygon fill="#191970" stroke="#191970" points="114.2001,-26.9131 106.4935,-19.6427 107.9841,-30.1321 114.2001,-26.9131"/>
</g>
<!-- Node4 -->
<g id="node5" class="node">
<title>Node4</title>
<polygon fill="none" stroke="#bfbfbf" points="144,-.5 144,-19.5 185,-19.5 185,-.5 144,-.5"/>
<text text-anchor="middle" x="164.5" y="-7.5" font-family="Helvetica,sans-Serif" font-size="10.00" fill="#000000">string</text>
</g>
<!-- Node1&#45;&gt;Node4 -->
<g id="edge4" class="edge">
<title>Node1&#45;&gt;Node4</title>
<path fill="none" stroke="#191970" d="M136.4223,-56.2455C141.1027,-48.5367 147.7673,-37.5598 153.4289,-28.2348"/>
<polygon fill="#191970" stroke="#191970" points="156.4475,-30.007 158.6455,-19.6427 150.4639,-26.3741 156.4475,-30.007"/>
</g>
<!-- Node5 -->
<g id="node6" class="node">
<title>Node5</title>
<polygon fill="none" stroke="#bfbfbf" points="203.5,-.5 203.5,-19.5 247.5,-19.5 247.5,-.5 203.5,-.5"/>
<text text-anchor="middle" x="225.5" y="-7.5" font-family="Helvetica,sans-Serif" font-size="10.00" fill="#000000">vector</text>
</g>
<!-- Node1&#45;&gt;Node5 -->
<g id="edge5" class="edge">
<title>Node1&#45;&gt;Node5</title>
<path fill="none" stroke="#191970" d="M147.0477,-56.2455C161.7599,-47.5731 183.4888,-34.7645 200.3505,-24.825"/>
<polygon fill="#191970" stroke="#191970" points="202.3046,-27.736 209.1419,-19.6427 198.7498,-21.7057 202.3046,-27.736"/>
</g>
<!-- Node6&#45;&gt;Node2 -->
<g id="edge11" class="edge">
<title>Node6&#45;&gt;Node2</title>
<path fill="none" stroke="#191970" d="M251.9896,-56.4649C205.4898,-48.2271 137.1584,-35.5418 69.3255,-20.3174"/>
<polygon fill="#191970" stroke="#191970" points="69.8496,-16.8476 59.3236,-18.053 68.3039,-23.6748 69.8496,-16.8476"/>
</g>
<!-- Node6&#45;&gt;Node3 -->
<g id="edge9" class="edge">
<title>Node6&#45;&gt;Node3</title>
<path fill="none" stroke="#191970" d="M270.2771,-56.497C237.2305,-47.9724 187.4011,-34.9054 135.9597,-20.3594"/>
<polygon fill="#191970" stroke="#191970" points="136.9151,-16.9924 126.3393,-17.6268 135.0025,-23.726 136.9151,-16.9924"/>
</g>
<!-- Node6&#45;&gt;Node4 -->
<g id="edge12" class="edge">
<title>Node6&#45;&gt;Node4</title>
<path fill="none" stroke="#191970" d="M282.9174,-56.3733C258.4175,-46.7789 220.759,-32.0315 194.5092,-21.7519"/>
<polygon fill="#191970" stroke="#191970" points="195.6463,-18.4384 185.0586,-18.0509 193.0938,-24.9564 195.6463,-18.4384"/>
</g>
<!-- Node6&#45;&gt;Node5 -->
<g id="edge14" class="edge">
<title>Node6&#45;&gt;Node5</title>
<path fill="none" stroke="#191970" d="M293.2167,-56.2455C280.753,-47.7337 262.4549,-35.2375 248.0208,-25.3801"/>
<polygon fill="#191970" stroke="#191970" points="249.8515,-22.392 239.6196,-19.6427 245.9038,-28.1726 249.8515,-22.392"/>
</g>
<!-- Node7 -->
<g id="node8" class="node">
<title>Node7</title>
<g id="a_node8"><a xlink:href="../../d1/d76/RuntimeError_8h.html" target="_top" xlink:title="Framework/RuntimeError.h">
<polygon fill="none" stroke="#000000" points="349.5,-.5 349.5,-19.5 483.5,-19.5 483.5,-.5 349.5,-.5"/>
<text text-anchor="middle" x="416.5" y="-7.5" font-family="Helvetica,sans-Serif" font-size="10.00" fill="#000000">Framework/RuntimeError.h</text>
</a>
</g>
</g>
<!-- Node6&#45;&gt;Node7 -->
<g id="edge7" class="edge">
<title>Node6&#45;&gt;Node7</title>
<path fill="none" stroke="#191970" d="M326.4864,-56.2455C343.6792,-47.4125 369.2238,-34.2887 388.7132,-24.2758"/>
<polygon fill="#191970" stroke="#191970" points="390.4359,-27.3257 397.7312,-19.6427 387.237,-21.0993 390.4359,-27.3257"/>
</g>
<!-- Node8 -->
<g id="node9" class="node">
<title>Node8</title>
<polygon fill="none" stroke="#bfbfbf" points="501.5,-.5 501.5,-19.5 539.5,-19.5 539.5,-.5 501.5,-.5"/>
<text text-anchor="middle" x="520.5" y="-7.5" font-family="Helvetica,sans-Serif" font-size="10.00" fill="#000000">array</text>
</g>
<!-- Node6&#45;&gt;Node8 -->
<g id="edge8" class="edge">
<title>Node6&#45;&gt;Node8</title>
<path fill="none" stroke="#191970" d="M351.1926,-56.426C386.7566,-48.3441 438.4006,-35.9548 491.6903,-20.043"/>
<polygon fill="#191970" stroke="#191970" points="492.7432,-23.3813 501.3038,-17.139 490.7189,-16.6803 492.7432,-23.3813"/>
</g>
<!-- Node9 -->
<g id="node10" class="node">
<title>Node9</title>
<polygon fill="none" stroke="#bfbfbf" points="557.5,-.5 557.5,-19.5 603.5,-19.5 603.5,-.5 557.5,-.5"/>
<text text-anchor="middle" x="580.5" y="-7.5" font-family="Helvetica,sans-Serif" font-size="10.00" fill="#000000">cstring</text>
</g>
<!-- Node6&#45;&gt;Node9 -->
<g id="edge10" class="edge">
<title>Node6&#45;&gt;Node9</title>
<path fill="none" stroke="#191970" d="M367.8364,-56.452C414.5404,-48.6126 480.9766,-36.4878 547.3749,-20.081"/>
<polygon fill="#191970" stroke="#191970" points="548.3181,-23.453 557.1688,-17.6293 546.6181,-16.6625 548.3181,-23.453"/>
</g>
<!-- Node10 -->
<g id="node11" class="node">
<title>Node10</title>
<polygon fill="none" stroke="#bfbfbf" points="265.5,-.5 265.5,-19.5 331.5,-19.5 331.5,-.5 265.5,-.5"/>
<text text-anchor="middle" x="298.5" y="-7.5" font-family="Helvetica,sans-Serif" font-size="10.00" fill="#000000">string_view</text>
</g>
<!-- Node6&#45;&gt;Node10 -->
<g id="edge13" class="edge">
<title>Node6&#45;&gt;Node10</title>
<path fill="none" stroke="#191970" d="M305.9323,-56.2455C304.7579,-48.9382 303.1116,-38.6944 301.6668,-29.7046"/>
<polygon fill="#191970" stroke="#191970" points="305.0922,-28.9606 300.0497,-19.6427 298.1809,-30.0714 305.0922,-28.9606"/>
</g>
<!-- Node12 -->
<g id="node13" class="node">
<title>Node12</title>
<polygon fill="none" stroke="#bfbfbf" points="622,-.5 622,-19.5 719,-19.5 719,-.5 622,-.5"/>
<text text-anchor="middle" x="670.5" y="-7.5" font-family="Helvetica,sans-Serif" font-size="10.00" fill="#000000">fairlogger/Logger.h</text>
</g>
<!-- Node11&#45;&gt;Node12 -->
<g id="edge16" class="edge">
<title>Node11&#45;&gt;Node12</title>
<path fill="none" stroke="#191970" d="M493.2879,-56.3733C529.5661,-46.8799 585.1236,-32.3415 624.3446,-22.0781"/>
<polygon fill="#191970" stroke="#191970" points="625.404,-25.4188 634.1921,-19.5011 623.6318,-18.6468 625.404,-25.4188"/>
</g>
</g>
</svg>
        <g id="navigator" transform="translate(0 0)" fill="#404254">
                <rect fill="#f2f5e9" fill-opacity="0.5" stroke="#606060" stroke-width=".5" x="0" y="0" width="60" height="60"/>
                <use id="zoomplus" xlink:href="#zoomPlus" x="17" y="9" onmousedown="handleZoom(evt,'in')"/>
                <use id="zoomminus" xlink:href="#zoomMin" x="42" y="9" onmousedown="handleZoom(evt,'out')"/>
                <use id="reset" xlink:href="#resetDef" x="30" y="36" onmousedown="handleReset()"/>
                <g id="arrowUp" xlink:href="#dirArrow" transform="translate(30 24)" onmousedown="handlePan(0,-1)">
                  <use xlink:href="#rim" fill="#404040">
                        <set attributeName="fill" to="#808080" begin="arrowUp.mouseover" end="arrowUp.mouseout"/>
                  </use>
                  <path fill="none" stroke="white" stroke-width="1.5" d="M0,-3.0v7 M-2.5,-0.5L0,-3.0L2.5,-0.5"/>
                </g>
                <g id="arrowRight" xlink:href="#dirArrow" transform="rotate(90) translate(36 -43)" onmousedown="handlePan(1,0)">
                  <use xlink:href="#rim" fill="#404040">
                        <set attributeName="fill" to="#808080" begin="arrowRight.mouseover" end="arrowRight.mouseout"/>
                  </use>
                  <path fill="none" stroke="white" stroke-width="1.5" d="M0,-3.0v7 M-2.5,-0.5L0,-3.0L2.5,-0.5"/>
                </g>
                <g id="arrowDown" xlink:href="#dirArrow" transform="rotate(180) translate(-30 -48)" onmousedown="handlePan(0,1)">
                  <use xlink:href="#rim" fill="#404040">
                        <set attributeName="fill" to="#808080" begin="arrowDown.mouseover" end="arrowDown.mouseout"/>
                  </use>
                  <path fill="none" stroke="white" stroke-width="1.5" d="M0,-3.0v7 M-2.5,-0.5L0,-3.0L2.5,-0.5"/>
                </g>
                <g id="arrowLeft" xlink:href="#dirArrow" transform="rotate(270) translate(-36 17)" onmousedown="handlePan(-1,0)">
                  <use xlink:href="#rim" fill="#404040">
                        <set attributeName="fill" to="#808080" begin="arrowLeft.mouseover" end="arrowLeft.mouseout"/>
                  </use>
                  <path fill="none" stroke="white" stroke-width="1.5" d="M0,-3.0v7 M-2.5,-0.5L0,-3.0L2.5,-0.5"/>
                </g>
        </g>
        <svg viewBox="0 0 15 15" width="100%" height="30px" preserveAspectRatio="xMaxYMin meet">
         <g id="arrow_out" transform="scale(0.3 0.3)">
          <a xlink:href="Metric2DViewIndex_8cxx__incl_org.svg" target="_base">
           <rect id="button" ry="5" rx="5" y="6" x="6" height="38" width="38"
                fill="#f2f5e9" fill-opacity="0.5" stroke="#606060" stroke-width="1.0"/>
           <path id="arrow"
             d="M 11.500037,31.436501 C 11.940474,20.09759 22.043105,11.32322 32.158766,21.979434 L 37.068811,17.246167 C 37.068811,17.246167 37.088388,32 37.088388,32 L 22.160133,31.978069 C 22.160133,31.978069 26.997745,27.140456 26.997745,27.140456 C 18.528582,18.264221 13.291696,25.230495 11.500037,31.436501 z"
             style="fill:#404040;"/>
          </a>
         </g>
        </svg>
</svg>
