<?xml version="1.0" encoding="UTF-8" standalone="no"?>
<!DOCTYPE svg PUBLIC "-//W3C//DTD SVG 1.1//EN"
 "http://www.w3.org/Graphics/SVG/1.1/DTD/svg11.dtd">
<!-- Generated by graphviz version 2.40.1 (20161225.0304)
 -->
<!-- Title: /home/runner/work/AliceO2/AliceO2/Common/Field/src/MagFieldParam.cxx Pages: 1 -->
<!--zoomable 397 -->
<svg id="main" version="1.1" xmlns="http://www.w3.org/2000/svg" xmlns:xlink="http://www.w3.org/1999/xlink" xml:space="preserve" onload="init(evt)">
<style type="text/css"><![CDATA[
.edge:hover path { stroke: red; }
.edge:hover polygon { stroke: red; fill: red; }
]]></style>
<script type="text/javascript"><![CDATA[
var edges = document.getElementsByTagName('g');
if (edges && edges.length) {
  for (var i=0;i<edges.length;i++) {
    if (edges[i].id.substr(0,4)=='edge') {
      edges[i].setAttribute('class','edge');
    }
  }
}
]]></script>
        <defs>
                <circle id="rim" cx="0" cy="0" r="7"/>
                <circle id="rim2" cx="0" cy="0" r="3.5"/>
                <g id="zoomPlus">
                        <use xlink:href="#rim" fill="#404040">
                                <set attributeName="fill" to="#808080" begin="zoomplus.mouseover" end="zoomplus.mouseout"/>
                        </use>
                        <path d="M-4,0h8M0,-4v8" fill="none" stroke="white" stroke-width="1.5" pointer-events="none"/>
                </g>
                <g id="zoomMin">
                        <use xlink:href="#rim" fill="#404040">
                                <set attributeName="fill" to="#808080" begin="zoomminus.mouseover" end="zoomminus.mouseout"/>
                        </use>
                        <path d="M-4,0h8" fill="none" stroke="white" stroke-width="1.5" pointer-events="none"/>
                </g>
                <g id="dirArrow">
                        <path fill="none" stroke="white" stroke-width="1.5" d="M0,-3.0v7 M-2.5,-0.5L0,-3.0L2.5,-0.5"/>
                </g>
               <g id="resetDef">
                       <use xlink:href="#rim2" fill="#404040">
                               <set attributeName="fill" to="#808080" begin="reset.mouseover" end="reset.mouseout"/>
                       </use>
               </g>
        </defs>

<script type="text/javascript">
var viewWidth = 2426;
var viewHeight = 397;
var sectionId = 'dynsection-0';
</script>
<script xlink:href="../../svgpan.js"/>
<svg id="graph" class="graph">
<g id="viewport">
<title>/home/runner/work/AliceO2/AliceO2/Common/Field/src/MagFieldParam.cxx</title>
<!-- Node0 -->
<g id="node1" class="node">
<title>Node0</title>
<polygon fill="#bfbfbf" stroke="#000000" points="626,-347.5 626,-388.5 763,-388.5 763,-347.5 626,-347.5"/>
<text text-anchor="start" x="634" y="-376.5" font-family="Helvetica,sans-Serif" font-size="10.00" fill="#000000">/home/runner/work/AliceO2</text>
<text text-anchor="start" x="634" y="-365.5" font-family="Helvetica,sans-Serif" font-size="10.00" fill="#000000">/AliceO2/Common/Field/src</text>
<text text-anchor="middle" x="694.5" y="-354.5" font-family="Helvetica,sans-Serif" font-size="10.00" fill="#000000">/MagFieldParam.cxx</text>
</g>
<!-- Node1 -->
<g id="node2" class="node">
<title>Node1</title>
<g id="a_node2"><a xlink:href="../../d3/d91/MagFieldParam_8h.html" target="_top" xlink:title="Definition of the MagFieldParam: container for ALICE mag. field parameters. ">
<polygon fill="none" stroke="#000000" points="44,-235.5 44,-254.5 161,-254.5 161,-235.5 44,-235.5"/>
<text text-anchor="middle" x="102.5" y="-242.5" font-family="Helvetica,sans-Serif" font-size="10.00" fill="#000000">Field/MagFieldParam.h</text>
</a>
</g>
</g>
<!-- Node0&#45;&gt;Node1 -->
<g id="edge1" class="edge">
<title>Node0&#45;&gt;Node1</title>
<path fill="none" stroke="#191970" d="M625.7219,-353.7099C507.2423,-329.0934 266.9217,-279.1619 158.1774,-256.5681"/>
<polygon fill="#191970" stroke="#191970" points="158.8882,-253.1411 148.3853,-254.5336 157.4642,-259.9948 158.8882,-253.1411"/>
</g>
<!-- Node4 -->
<g id="node5" class="node">
<title>Node4</title>
<g id="a_node5"><a xlink:href="../../db/d4b/MagneticField_8h.html" target="_top" xlink:title="Definition of the MagF class. ">
<polygon fill="none" stroke="#000000" points="523.5,-291.5 523.5,-310.5 633.5,-310.5 633.5,-291.5 523.5,-291.5"/>
<text text-anchor="middle" x="578.5" y="-298.5" font-family="Helvetica,sans-Serif" font-size="10.00" fill="#000000">Field/MagneticField.h</text>
</a>
</g>
</g>
<!-- Node0&#45;&gt;Node4 -->
<g id="edge4" class="edge">
<title>Node0&#45;&gt;Node4</title>
<path fill="none" stroke="#191970" d="M658.7497,-347.3511C641.0536,-337.1301 620.1006,-325.0279 604.0428,-315.7532"/>
<polygon fill="#191970" stroke="#191970" points="605.6254,-312.6254 595.2155,-310.6546 602.1243,-318.687 605.6254,-312.6254"/>
</g>
<!-- Node33 -->
<g id="node34" class="node">
<title>Node33</title>
<polygon fill="none" stroke="#bfbfbf" points="651.5,-291.5 651.5,-310.5 737.5,-310.5 737.5,-291.5 651.5,-291.5"/>
<text text-anchor="middle" x="694.5" y="-298.5" font-family="Helvetica,sans-Serif" font-size="10.00" fill="#000000">FairParamList.h</text>
</g>
<!-- Node0&#45;&gt;Node33 -->
<g id="edge47" class="edge">
<title>Node0&#45;&gt;Node33</title>
<path fill="none" stroke="#191970" d="M694.5,-347.168C694.5,-338.8226 694.5,-329.2471 694.5,-320.9879"/>
<polygon fill="#191970" stroke="#191970" points="698.0001,-320.7804 694.5,-310.7805 691.0001,-320.7805 698.0001,-320.7804"/>
</g>
<!-- Node34 -->
<g id="node35" class="node">
<title>Node34</title>
<polygon fill="none" stroke="#bfbfbf" points="756,-291.5 756,-310.5 815,-310.5 815,-291.5 756,-291.5"/>
<text text-anchor="middle" x="785.5" y="-298.5" font-family="Helvetica,sans-Serif" font-size="10.00" fill="#000000">FairRun.h</text>
</g>
<!-- Node0&#45;&gt;Node34 -->
<g id="edge48" class="edge">
<title>Node0&#45;&gt;Node34</title>
<path fill="none" stroke="#191970" d="M722.7941,-347.168C736.0611,-337.4001 751.6168,-325.9469 763.9156,-316.8918"/>
<polygon fill="#191970" stroke="#191970" points="766.2384,-319.528 772.2161,-310.7805 762.0881,-313.891 766.2384,-319.528"/>
</g>
<!-- Node35 -->
<g id="node36" class="node">
<title>Node35</title>
<polygon fill="none" stroke="#bfbfbf" points="833,-291.5 833,-310.5 924,-310.5 924,-291.5 833,-291.5"/>
<text text-anchor="middle" x="878.5" y="-298.5" font-family="Helvetica,sans-Serif" font-size="10.00" fill="#000000">FairRuntimeDb.h</text>
</g>
<!-- Node0&#45;&gt;Node35 -->
<g id="edge49" class="edge">
<title>Node0&#45;&gt;Node35</title>
<path fill="none" stroke="#191970" d="M750.9565,-347.4425C780.9318,-336.5275 816.8558,-323.4465 842.9285,-313.9527"/>
<polygon fill="#191970" stroke="#191970" points="844.2069,-317.212 852.4058,-310.5017 841.8118,-310.6345 844.2069,-317.212"/>
</g>
<!-- Node2 -->
<g id="node3" class="node">
<title>Node2</title>
<polygon fill="none" stroke="#bfbfbf" points="0,-179.5 0,-198.5 105,-198.5 105,-179.5 0,-179.5"/>
<text text-anchor="middle" x="52.5" y="-186.5" font-family="Helvetica,sans-Serif" font-size="10.00" fill="#000000">FairParGenericSet.h</text>
</g>
<!-- Node1&#45;&gt;Node2 -->
<g id="edge2" class="edge">
<title>Node1&#45;&gt;Node2</title>
<path fill="none" stroke="#191970" d="M93.7907,-235.2455C86.6927,-227.2958 76.4916,-215.8706 68.005,-206.3656"/>
<polygon fill="#191970" stroke="#191970" points="70.3805,-203.771 61.1095,-198.6427 65.1589,-208.4331 70.3805,-203.771"/>
</g>
<!-- Node3 -->
<g id="node4" class="node">
<title>Node3</title>
<polygon fill="none" stroke="#bfbfbf" points="105.5,-118 105.5,-137 161.5,-137 161.5,-118 105.5,-118"/>
<text text-anchor="middle" x="133.5" y="-125" font-family="Helvetica,sans-Serif" font-size="10.00" fill="#000000">TString.h</text>
</g>
<!-- Node1&#45;&gt;Node3 -->
<g id="edge3" class="edge">
<title>Node1&#45;&gt;Node3</title>
<path fill="none" stroke="#191970" d="M105.0369,-235.3845C110.1233,-216.1053 121.655,-172.3963 128.3753,-146.9241"/>
<polygon fill="#191970" stroke="#191970" points="131.7612,-147.8104 130.9281,-137.2484 124.9928,-146.0246 131.7612,-147.8104"/>
</g>
<!-- Node4&#45;&gt;Node1 -->
<g id="edge6" class="edge">
<title>Node4&#45;&gt;Node1</title>
<path fill="none" stroke="#191970" d="M523.3716,-295.1044C445.7117,-286.7089 299.6958,-270.5927 175.5,-255 174.0324,-254.8158 172.5485,-254.6277 171.0528,-254.4367"/>
<polygon fill="#191970" stroke="#191970" points="171.423,-250.9555 161.0557,-253.1393 170.5221,-257.8973 171.423,-250.9555"/>
</g>
<!-- Node5 -->
<g id="node6" class="node">
<title>Node5</title>
<polygon fill="none" stroke="#bfbfbf" points="547.5,-235.5 547.5,-254.5 609.5,-254.5 609.5,-235.5 547.5,-235.5"/>
<text text-anchor="middle" x="578.5" y="-242.5" font-family="Helvetica,sans-Serif" font-size="10.00" fill="#000000">FairField.h</text>
</g>
<!-- Node4&#45;&gt;Node5 -->
<g id="edge5" class="edge">
<title>Node4&#45;&gt;Node5</title>
<path fill="none" stroke="#191970" d="M578.5,-291.2455C578.5,-283.9382 578.5,-273.6944 578.5,-264.7046"/>
<polygon fill="#191970" stroke="#191970" points="582.0001,-264.6426 578.5,-254.6427 575.0001,-264.6427 582.0001,-264.6426"/>
</g>
<!-- Node6 -->
<g id="node7" class="node">
<title>Node6</title>
<g id="a_node7"><a xlink:href="../../dd/dfb/MagneticWrapperChebyshev_8h.html" target="_top" xlink:title="Field/MagneticWrapperChebyshev.h">
<polygon fill="none" stroke="#000000" points="354,-235.5 354,-254.5 529,-254.5 529,-235.5 354,-235.5"/>
<text text-anchor="middle" x="441.5" y="-242.5" font-family="Helvetica,sans-Serif" font-size="10.00" fill="#000000">Field/MagneticWrapperChebyshev.h</text>
</a>
</g>
</g>
<!-- Node4&#45;&gt;Node6 -->
<g id="edge7" class="edge">
<title>Node4&#45;&gt;Node6</title>
<path fill="none" stroke="#191970" d="M554.9489,-291.3733C532.6609,-282.2629 499.0063,-268.5062 474.1363,-258.3404"/>
<polygon fill="#191970" stroke="#191970" points="475.3247,-255.0451 464.7438,-254.5011 472.6761,-261.5247 475.3247,-255.0451"/>
</g>
<!-- Node8 -->
<g id="node9" class="node">
<title>Node8</title>
<polygon fill="none" stroke="#bfbfbf" points="215.5,-56.5 215.5,-75.5 277.5,-75.5 277.5,-56.5 215.5,-56.5"/>
<text text-anchor="middle" x="246.5" y="-63.5" font-family="Helvetica,sans-Serif" font-size="10.00" fill="#000000">TNamed.h</text>
</g>
<!-- Node4&#45;&gt;Node8 -->
<g id="edge45" class="edge">
<title>Node4&#45;&gt;Node8</title>
<path fill="none" stroke="#191970" d="M523.26,-294.0371C464.108,-285.9011 374.6764,-271.4401 344.5,-255 286.1595,-223.2161 267.5591,-205.6676 245.5,-143 238.9989,-124.5312 240.2634,-101.9933 242.5361,-86.0865"/>
<polygon fill="#191970" stroke="#191970" points="246.0543,-86.2727 244.2725,-75.8288 239.1525,-85.1044 246.0543,-86.2727"/>
</g>
<!-- Node13 -->
<g id="node14" class="node">
<title>Node13</title>
<polygon fill="none" stroke="#bfbfbf" points="609.5,-56.5 609.5,-75.5 665.5,-75.5 665.5,-56.5 609.5,-56.5"/>
<text text-anchor="middle" x="637.5" y="-63.5" font-family="Helvetica,sans-Serif" font-size="10.00" fill="#000000">Rtypes.h</text>
</g>
<!-- Node4&#45;&gt;Node13 -->
<g id="edge44" class="edge">
<title>Node4&#45;&gt;Node13</title>
<path fill="none" stroke="#191970" d="M590.1551,-291.3662C599.5514,-282.8602 612.2018,-269.5719 618.5,-255 643.4109,-197.365 641.7774,-120.9176 639.3042,-85.5202"/>
<polygon fill="#191970" stroke="#191970" points="642.7925,-85.234 638.5042,-75.5459 635.8149,-85.7937 642.7925,-85.234"/>
</g>
<!-- Node14 -->
<g id="node15" class="node">
<title>Node14</title>
<g id="a_node15"><a xlink:href="../../da/df4/MagFieldFast_8h.html" target="_top" xlink:title="Definition of the fast magnetic field parametrization MagFieldFast. ">
<polygon fill="none" stroke="#000000" points="676.5,-235.5 676.5,-254.5 784.5,-254.5 784.5,-235.5 676.5,-235.5"/>
<text text-anchor="middle" x="730.5" y="-242.5" font-family="Helvetica,sans-Serif" font-size="10.00" fill="#000000">Field/MagFieldFast.h</text>
</a>
</g>
</g>
<!-- Node4&#45;&gt;Node14 -->
<g id="edge23" class="edge">
<title>Node4&#45;&gt;Node14</title>
<path fill="none" stroke="#191970" d="M604.6297,-291.3733C629.5768,-282.1822 667.3592,-268.2624 695.0206,-258.0713"/>
<polygon fill="#191970" stroke="#191970" points="696.5378,-261.2424 704.7112,-254.5011 694.1178,-254.674 696.5378,-261.2424"/>
</g>
<!-- Node31 -->
<g id="node32" class="node">
<title>Node31</title>
<polygon fill="none" stroke="#bfbfbf" points="803,-235.5 803,-254.5 868,-254.5 868,-235.5 803,-235.5"/>
<text text-anchor="middle" x="835.5" y="-242.5" font-family="Helvetica,sans-Serif" font-size="10.00" fill="#000000">TSystem.h</text>
</g>
<!-- Node4&#45;&gt;Node31 -->
<g id="edge43" class="edge">
<title>Node4&#45;&gt;Node31</title>
<path fill="none" stroke="#191970" d="M624.7012,-291.4352C666.1574,-282.7807 728.918,-269.5017 793.0699,-255.059"/>
<polygon fill="#191970" stroke="#191970" points="793.9745,-258.443 802.9578,-252.826 792.4324,-251.6149 793.9745,-258.443"/>
</g>
<!-- Node32 -->
<g id="node33" class="node">
<title>Node32</title>
<polygon fill="none" stroke="#bfbfbf" points="886.5,-235.5 886.5,-254.5 938.5,-254.5 938.5,-235.5 886.5,-235.5"/>
<text text-anchor="middle" x="912.5" y="-242.5" font-family="Helvetica,sans-Serif" font-size="10.00" fill="#000000">memory</text>
</g>
<!-- Node4&#45;&gt;Node32 -->
<g id="edge46" class="edge">
<title>Node4&#45;&gt;Node32</title>
<path fill="none" stroke="#191970" d="M633.6567,-292.3734C636.6479,-291.9081 639.6106,-291.448 642.5,-291 746.4811,-274.8779 773.6277,-277.1199 876.5,-255 876.5991,-254.9787 876.6983,-254.9573 876.7977,-254.9357"/>
<polygon fill="#191970" stroke="#191970" points="877.3295,-258.4072 886.243,-252.6802 875.7035,-251.5987 877.3295,-258.4072"/>
</g>
<!-- Node7 -->
<g id="node8" class="node">
<title>Node7</title>
<polygon fill="none" stroke="#bfbfbf" points="506,-179.5 506,-198.5 559,-198.5 559,-179.5 506,-179.5"/>
<text text-anchor="middle" x="532.5" y="-186.5" font-family="Helvetica,sans-Serif" font-size="10.00" fill="#000000">TMath.h</text>
</g>
<!-- Node6&#45;&gt;Node7 -->
<g id="edge8" class="edge">
<title>Node6&#45;&gt;Node7</title>
<path fill="none" stroke="#191970" d="M457.351,-235.2455C471.3132,-226.6534 491.8728,-214.0014 507.9596,-204.1018"/>
<polygon fill="#191970" stroke="#191970" points="510.1484,-206.8645 516.8307,-198.6427 506.4797,-200.9029 510.1484,-206.8645"/>
</g>
<!-- Node6&#45;&gt;Node8 -->
<g id="edge9" class="edge">
<title>Node6&#45;&gt;Node8</title>
<path fill="none" stroke="#191970" d="M403.2389,-235.3965C360.1281,-222.3574 291.8596,-194.5341 259.5,-143 248.7218,-125.8353 246.0987,-102.4585 245.7816,-85.979"/>
<polygon fill="#191970" stroke="#191970" points="249.2825,-85.8594 245.8586,-75.8331 242.2827,-85.8063 249.2825,-85.8594"/>
</g>
<!-- Node9 -->
<g id="node10" class="node">
<title>Node9</title>
<polygon fill="none" stroke="#bfbfbf" points="540,-118 540,-137 609,-137 609,-118 540,-118"/>
<text text-anchor="middle" x="574.5" y="-125" font-family="Helvetica,sans-Serif" font-size="10.00" fill="#000000">TObjArray.h</text>
</g>
<!-- Node6&#45;&gt;Node9 -->
<g id="edge10" class="edge">
<title>Node6&#45;&gt;Node9</title>
<path fill="none" stroke="#191970" d="M480.9789,-235.4917C513.7139,-226.7629 556.5892,-213.0825 567.5,-199 578.6875,-184.5604 579.3656,-163.2417 577.8974,-147.6404"/>
<polygon fill="#191970" stroke="#191970" points="581.3348,-146.9331 576.5685,-137.471 574.3938,-147.8402 581.3348,-146.9331"/>
</g>
<!-- Node10 -->
<g id="node11" class="node">
<title>Node10</title>
<g id="a_node11"><a xlink:href="../../d8/d64/Chebyshev3D_8h.html" target="_top" xlink:title="MathUtils/Chebyshev3D.h">
<polygon fill="none" stroke="#000000" points="355.5,-179.5 355.5,-198.5 487.5,-198.5 487.5,-179.5 355.5,-179.5"/>
<text text-anchor="middle" x="421.5" y="-186.5" font-family="Helvetica,sans-Serif" font-size="10.00" fill="#000000">MathUtils/Chebyshev3D.h</text>
</a>
</g>
</g>
<!-- Node6&#45;&gt;Node10 -->
<g id="edge11" class="edge">
<title>Node6&#45;&gt;Node10</title>
<path fill="none" stroke="#191970" d="M438.0163,-235.2455C435.3492,-227.7776 431.5867,-217.2427 428.3263,-208.1137"/>
<polygon fill="#191970" stroke="#191970" points="431.6033,-206.8829 424.9438,-198.6427 425.0111,-209.2373 431.6033,-206.8829"/>
</g>
<!-- Node12 -->
<g id="node13" class="node">
<title>Node12</title>
<g id="a_node13"><a xlink:href="../../d4/d08/Chebyshev3DCalc_8h.html" target="_top" xlink:title="MathUtils/Chebyshev3DCalc.h">
<polygon fill="none" stroke="#000000" points="293.5,-118 293.5,-137 445.5,-137 445.5,-118 293.5,-118"/>
<text text-anchor="middle" x="369.5" y="-125" font-family="Helvetica,sans-Serif" font-size="10.00" fill="#000000">MathUtils/Chebyshev3DCalc.h</text>
</a>
</g>
</g>
<!-- Node6&#45;&gt;Node12 -->
<g id="edge21" class="edge">
<title>Node6&#45;&gt;Node12</title>
<path fill="none" stroke="#191970" d="M398.9495,-235.4528C379.424,-228.7153 358.082,-217.4765 346.5,-199 336.1764,-182.531 345.6732,-160.9993 355.4087,-145.8844"/>
<polygon fill="#191970" stroke="#191970" points="358.4734,-147.6086 361.3262,-137.4051 352.733,-143.6026 358.4734,-147.6086"/>
</g>
<!-- Node6&#45;&gt;Node13 -->
<g id="edge22" class="edge">
<title>Node6&#45;&gt;Node13</title>
<path fill="none" stroke="#191970" d="M505.8009,-235.4998C533.0015,-228.889 563.6159,-217.7416 586.5,-199 621.2938,-170.5046 632.3906,-115.3762 635.8998,-85.8345"/>
<polygon fill="#191970" stroke="#191970" points="639.4163,-85.8448 636.9339,-75.5449 632.4514,-85.1448 639.4163,-85.8448"/>
</g>
<!-- Node10&#45;&gt;Node3 -->
<g id="edge20" class="edge">
<title>Node10&#45;&gt;Node3</title>
<path fill="none" stroke="#191970" d="M376.816,-179.4581C320.53,-167.4387 224.773,-146.9906 171.7231,-135.6622"/>
<polygon fill="#191970" stroke="#191970" points="172.2174,-132.1889 161.7069,-133.5234 170.7555,-139.0346 172.2174,-132.1889"/>
</g>
<!-- Node10&#45;&gt;Node8 -->
<g id="edge12" class="edge">
<title>Node10&#45;&gt;Node8</title>
<path fill="none" stroke="#191970" d="M360.9987,-179.438C335.0441,-172.8037 305.8493,-161.6549 284.5,-143 267.0231,-127.7288 256.7492,-102.5535 251.381,-85.1686"/>
<polygon fill="#191970" stroke="#191970" points="254.739,-84.1808 248.652,-75.509 248.0027,-86.084 254.739,-84.1808"/>
</g>
<!-- Node10&#45;&gt;Node9 -->
<g id="edge13" class="edge">
<title>Node10&#45;&gt;Node9</title>
<path fill="none" stroke="#191970" d="M445.4063,-179.3906C471.2305,-169.0103 512.5527,-152.4004 541.4705,-140.7766"/>
<polygon fill="#191970" stroke="#191970" points="542.7885,-144.019 550.7616,-137.0419 540.1778,-137.5241 542.7885,-144.019"/>
</g>
<!-- Node11 -->
<g id="node12" class="node">
<title>Node11</title>
<polygon fill="none" stroke="#bfbfbf" points="400,-56.5 400,-75.5 443,-75.5 443,-56.5 400,-56.5"/>
<text text-anchor="middle" x="421.5" y="-63.5" font-family="Helvetica,sans-Serif" font-size="10.00" fill="#000000">cstdio</text>
</g>
<!-- Node10&#45;&gt;Node11 -->
<g id="edge14" class="edge">
<title>Node10&#45;&gt;Node11</title>
<path fill="none" stroke="#191970" d="M431.1492,-179.4346C439.15,-170.7723 449.9262,-157.2221 454.5,-143 458.7181,-129.8838 458.7181,-125.1162 454.5,-112 451.1054,-101.4445 444.2942,-91.2592 437.7369,-83.1676"/>
<polygon fill="#191970" stroke="#191970" points="440.3431,-80.8307 431.1492,-75.5654 435.053,-85.4149 440.3431,-80.8307"/>
</g>
<!-- Node10&#45;&gt;Node12 -->
<g id="edge15" class="edge">
<title>Node10&#45;&gt;Node12</title>
<path fill="none" stroke="#191970" d="M413.375,-179.3906C405.6358,-170.2376 393.8013,-156.2409 384.3728,-145.09"/>
<polygon fill="#191970" stroke="#191970" points="386.8689,-142.6213 377.7396,-137.2449 381.5235,-147.1409 386.8689,-142.6213"/>
</g>
<!-- Node10&#45;&gt;Node13 -->
<g id="edge19" class="edge">
<title>Node10&#45;&gt;Node13</title>
<path fill="none" stroke="#191970" d="M433.3723,-179.3499C452.8328,-163.8293 493.1026,-132.9442 530.5,-112 553.345,-99.2058 580.456,-87.5853 601.6721,-79.2246"/>
<polygon fill="#191970" stroke="#191970" points="603.2086,-82.3829 611.2682,-75.5059 600.6792,-75.8558 603.2086,-82.3829"/>
</g>
<!-- Node12&#45;&gt;Node8 -->
<g id="edge16" class="edge">
<title>Node12&#45;&gt;Node8</title>
<path fill="none" stroke="#191970" d="M350.2813,-117.8906C329.9719,-107.7359 297.7393,-91.6196 274.5832,-80.0416"/>
<polygon fill="#191970" stroke="#191970" points="276.0933,-76.8836 265.5838,-75.5419 272.9628,-83.1446 276.0933,-76.8836"/>
</g>
<!-- Node12&#45;&gt;Node11 -->
<g id="edge17" class="edge">
<title>Node12&#45;&gt;Node11</title>
<path fill="none" stroke="#191970" d="M377.625,-117.8906C385.3642,-108.7376 397.1987,-94.7409 406.6272,-83.59"/>
<polygon fill="#191970" stroke="#191970" points="409.4765,-85.6409 413.2604,-75.7449 404.1311,-81.1213 409.4765,-85.6409"/>
</g>
<!-- Node12&#45;&gt;Node13 -->
<g id="edge18" class="edge">
<title>Node12&#45;&gt;Node13</title>
<path fill="none" stroke="#191970" d="M411.081,-117.9581C462.5537,-106.1463 549.4987,-86.1943 599.3385,-74.7572"/>
<polygon fill="#191970" stroke="#191970" points="600.4207,-78.0999 609.3845,-72.4519 598.8549,-71.2773 600.4207,-78.0999"/>
</g>
<!-- Node15 -->
<g id="node16" class="node">
<title>Node15</title>
<g id="a_node16"><a xlink:href="../../d2/d45/GPUCommonRtypes_8h.html" target="_top" xlink:title="GPUCommonRtypes.h">
<polygon fill="none" stroke="#000000" points="703.5,-118 703.5,-137 821.5,-137 821.5,-118 703.5,-118"/>
<text text-anchor="middle" x="762.5" y="-125" font-family="Helvetica,sans-Serif" font-size="10.00" fill="#000000">GPUCommonRtypes.h</text>
</a>
</g>
</g>
<!-- Node14&#45;&gt;Node15 -->
<g id="edge24" class="edge">
<title>Node14&#45;&gt;Node15</title>
<path fill="none" stroke="#191970" d="M733.1187,-235.3845C738.3692,-216.1053 750.2729,-172.3963 757.21,-146.9241"/>
<polygon fill="#191970" stroke="#191970" points="760.5944,-147.8167 759.8451,-137.2484 753.8403,-145.9772 760.5944,-147.8167"/>
</g>
<!-- Node16 -->
<g id="node17" class="node">
<title>Node16</title>
<g id="a_node17"><a xlink:href="../../dc/d73/Cartesian_8h.html" target="_top" xlink:title="MathUtils/Cartesian.h">
<polygon fill="none" stroke="#000000" points="1323.5,-179.5 1323.5,-198.5 1435.5,-198.5 1435.5,-179.5 1323.5,-179.5"/>
<text text-anchor="middle" x="1379.5" y="-186.5" font-family="Helvetica,sans-Serif" font-size="10.00" fill="#000000">MathUtils/Cartesian.h</text>
</a>
</g>
</g>
<!-- Node14&#45;&gt;Node16 -->
<g id="edge26" class="edge">
<title>Node14&#45;&gt;Node16</title>
<path fill="none" stroke="#191970" d="M784.7583,-236.1085C787.7122,-235.7116 790.6406,-235.3386 793.5,-235 981.2578,-212.7645 1204.1791,-198.62 1313.0233,-192.5017"/>
<polygon fill="#191970" stroke="#191970" points="1313.4059,-195.9859 1323.1955,-191.9346 1313.0162,-188.9967 1313.4059,-195.9859"/>
</g>
<!-- Node30 -->
<g id="node31" class="node">
<title>Node30</title>
<polygon fill="none" stroke="#bfbfbf" points="1454,-179.5 1454,-198.5 1495,-198.5 1495,-179.5 1454,-179.5"/>
<text text-anchor="middle" x="1474.5" y="-186.5" font-family="Helvetica,sans-Serif" font-size="10.00" fill="#000000">string</text>
</g>
<!-- Node14&#45;&gt;Node30 -->
<g id="edge42" class="edge">
<title>Node14&#45;&gt;Node30</title>
<path fill="none" stroke="#191970" d="M784.7493,-236.0285C787.7055,-235.6522 790.6369,-235.3056 793.5,-235 1078.2622,-204.6066 1157.9953,-252.1602 1443.4658,-198.6649"/>
<polygon fill="#191970" stroke="#191970" points="1444.5373,-202.024 1453.7083,-196.7189 1443.2308,-195.147 1444.5373,-202.024"/>
</g>
<!-- Node15&#45;&gt;Node13 -->
<g id="edge25" class="edge">
<title>Node15&#45;&gt;Node13</title>
<path fill="none" stroke="#191970" d="M742.9688,-117.8906C722.3292,-107.7359 689.5724,-91.6196 666.0398,-80.0416"/>
<polygon fill="#191970" stroke="#191970" points="667.412,-76.8161 656.8941,-75.5419 664.3218,-83.0971 667.412,-76.8161"/>
</g>
<!-- Node16&#45;&gt;Node15 -->
<g id="edge30" class="edge">
<title>Node16&#45;&gt;Node15</title>
<path fill="none" stroke="#191970" d="M1323.2399,-186.5617C1224.2099,-181.7541 1012.4761,-169.1665 835.5,-143 828.1033,-141.9064 820.3316,-140.5181 812.73,-139.0236"/>
<polygon fill="#191970" stroke="#191970" points="813.3785,-135.5839 802.8806,-137.0137 811.9788,-142.4426 813.3785,-135.5839"/>
</g>
<!-- Node17 -->
<g id="node18" class="node">
<title>Node17</title>
<g id="a_node18"><a xlink:href="../../df/d21/GPUCommonDef_8h.html" target="_top" xlink:title="GPUCommonDef.h">
<polygon fill="none" stroke="#000000" points="846.5,-56.5 846.5,-75.5 948.5,-75.5 948.5,-56.5 846.5,-56.5"/>
<text text-anchor="middle" x="897.5" y="-63.5" font-family="Helvetica,sans-Serif" font-size="10.00" fill="#000000">GPUCommonDef.h</text>
</a>
</g>
</g>
<!-- Node16&#45;&gt;Node17 -->
<g id="edge27" class="edge">
<title>Node16&#45;&gt;Node17</title>
<path fill="none" stroke="#191970" d="M1323.0565,-188.1175C1196.4919,-185.5538 898.6977,-176.0382 868.5,-143 853.2353,-126.2994 867.9609,-100.7885 881.4095,-83.7625"/>
<polygon fill="#191970" stroke="#191970" points="884.4094,-85.6327 888.1602,-75.724 879.0489,-81.131 884.4094,-85.6327"/>
</g>
<!-- Node20 -->
<g id="node21" class="node">
<title>Node20</title>
<polygon fill="none" stroke="#bfbfbf" points="1032,-112.5 1032,-142.5 1183,-142.5 1183,-112.5 1032,-112.5"/>
<text text-anchor="start" x="1040" y="-130.5" font-family="Helvetica,sans-Serif" font-size="10.00" fill="#000000">Math/GenVector/Displacement</text>
<text text-anchor="middle" x="1107.5" y="-119.5" font-family="Helvetica,sans-Serif" font-size="10.00" fill="#000000">Vector3D.h</text>
</g>
<!-- Node16&#45;&gt;Node20 -->
<g id="edge31" class="edge">
<title>Node16&#45;&gt;Node20</title>
<path fill="none" stroke="#191970" d="M1337.2984,-179.4581C1296.4652,-170.2256 1233.6369,-156.0199 1183.989,-144.7944"/>
<polygon fill="#191970" stroke="#191970" points="1184.4526,-141.3109 1173.9269,-142.5193 1182.9088,-148.1386 1184.4526,-141.3109"/>
</g>
<!-- Node21 -->
<g id="node22" class="node">
<title>Node21</title>
<polygon fill="none" stroke="#bfbfbf" points="1201.5,-118 1201.5,-137 1377.5,-137 1377.5,-118 1201.5,-118"/>
<text text-anchor="middle" x="1289.5" y="-125" font-family="Helvetica,sans-Serif" font-size="10.00" fill="#000000">Math/GenVector/PositionVector3D.h</text>
</g>
<!-- Node16&#45;&gt;Node21 -->
<g id="edge32" class="edge">
<title>Node16&#45;&gt;Node21</title>
<path fill="none" stroke="#191970" d="M1365.4375,-179.3906C1351.1714,-169.6421 1328.865,-154.3994 1312.1128,-142.9521"/>
<polygon fill="#191970" stroke="#191970" points="1313.6949,-139.7941 1303.4638,-137.0419 1309.7455,-145.5736 1313.6949,-139.7941"/>
</g>
<!-- Node22 -->
<g id="node23" class="node">
<title>Node22</title>
<polygon fill="none" stroke="#bfbfbf" points="1395,-118 1395,-137 1544,-137 1544,-118 1395,-118"/>
<text text-anchor="middle" x="1469.5" y="-125" font-family="Helvetica,sans-Serif" font-size="10.00" fill="#000000">Math/GenVector/Rotation3D.h</text>
</g>
<!-- Node16&#45;&gt;Node22 -->
<g id="edge33" class="edge">
<title>Node16&#45;&gt;Node22</title>
<path fill="none" stroke="#191970" d="M1393.5625,-179.3906C1407.8286,-169.6421 1430.135,-154.3994 1446.8872,-142.9521"/>
<polygon fill="#191970" stroke="#191970" points="1449.2545,-145.5736 1455.5362,-137.0419 1445.3051,-139.7941 1449.2545,-145.5736"/>
</g>
<!-- Node23 -->
<g id="node24" class="node">
<title>Node23</title>
<polygon fill="none" stroke="#bfbfbf" points="1562.5,-118 1562.5,-137 1718.5,-137 1718.5,-118 1562.5,-118"/>
<text text-anchor="middle" x="1640.5" y="-125" font-family="Helvetica,sans-Serif" font-size="10.00" fill="#000000">Math/GenVector/Transform3D.h</text>
</g>
<!-- Node16&#45;&gt;Node23 -->
<g id="edge34" class="edge">
<title>Node16&#45;&gt;Node23</title>
<path fill="none" stroke="#191970" d="M1419.9949,-179.4581C1465.8075,-168.6632 1540.4737,-151.0694 1590.0406,-139.3899"/>
<polygon fill="#191970" stroke="#191970" points="1590.9794,-142.7646 1599.9101,-137.0643 1589.3739,-135.9512 1590.9794,-142.7646"/>
</g>
<!-- Node24 -->
<g id="node25" class="node">
<title>Node24</title>
<polygon fill="none" stroke="#bfbfbf" points="1736.5,-118 1736.5,-137 1896.5,-137 1896.5,-118 1736.5,-118"/>
<text text-anchor="middle" x="1816.5" y="-125" font-family="Helvetica,sans-Serif" font-size="10.00" fill="#000000">Math/GenVector/Translation3D.h</text>
</g>
<!-- Node16&#45;&gt;Node24 -->
<g id="edge35" class="edge">
<title>Node16&#45;&gt;Node24</title>
<path fill="none" stroke="#191970" d="M1435.6564,-180.4001C1438.9859,-179.9186 1442.2862,-179.4485 1445.5,-179 1570.6376,-161.5348 1602.5626,-161.8441 1727.5,-143 1736.0636,-141.7084 1745.0737,-140.2528 1753.9393,-138.7641"/>
<polygon fill="#191970" stroke="#191970" points="1754.5849,-142.2046 1763.8558,-137.0762 1753.4103,-135.3039 1754.5849,-142.2046"/>
</g>
<!-- Node25 -->
<g id="node26" class="node">
<title>Node25</title>
<polygon fill="none" stroke="#bfbfbf" points="1915,-112.5 1915,-142.5 2066,-142.5 2066,-112.5 1915,-112.5"/>
<text text-anchor="start" x="1923" y="-130.5" font-family="Helvetica,sans-Serif" font-size="10.00" fill="#000000">Math/GenVector/Displacement</text>
<text text-anchor="middle" x="1990.5" y="-119.5" font-family="Helvetica,sans-Serif" font-size="10.00" fill="#000000">Vector2D.h</text>
</g>
<!-- Node16&#45;&gt;Node25 -->
<g id="edge36" class="edge">
<title>Node16&#45;&gt;Node25</title>
<path fill="none" stroke="#191970" d="M1435.6326,-180.2129C1438.9681,-179.7785 1442.2762,-179.3699 1445.5,-179 1645.9501,-156.0011 1700.3964,-168.9935 1904.415,-143.0514"/>
<polygon fill="#191970" stroke="#191970" points="1905.0892,-146.4936 1914.5604,-141.7452 1904.1953,-139.5509 1905.0892,-146.4936"/>
</g>
<!-- Node26 -->
<g id="node27" class="node">
<title>Node26</title>
<polygon fill="none" stroke="#bfbfbf" points="2084.5,-118 2084.5,-137 2260.5,-137 2260.5,-118 2084.5,-118"/>
<text text-anchor="middle" x="2172.5" y="-125" font-family="Helvetica,sans-Serif" font-size="10.00" fill="#000000">Math/GenVector/PositionVector2D.h</text>
</g>
<!-- Node16&#45;&gt;Node26 -->
<g id="edge37" class="edge">
<title>Node16&#45;&gt;Node26</title>
<path fill="none" stroke="#191970" d="M1435.6238,-180.1322C1438.9614,-179.7181 1442.2725,-179.336 1445.5,-179 1724.4494,-149.9614 1796.6702,-173.1657 2075.5,-143 2086.4042,-141.8203 2097.9515,-140.2551 2109.1306,-138.5726"/>
<polygon fill="#191970" stroke="#191970" points="2109.9187,-141.9923 2119.2647,-137.0021 2108.8466,-135.0749 2109.9187,-141.9923"/>
</g>
<!-- Node27 -->
<g id="node28" class="node">
<title>Node27</title>
<polygon fill="none" stroke="#bfbfbf" points="2278.5,-118 2278.5,-137 2354.5,-137 2354.5,-118 2278.5,-118"/>
<text text-anchor="middle" x="2316.5" y="-125" font-family="Helvetica,sans-Serif" font-size="10.00" fill="#000000">TGeoMatrix.h</text>
</g>
<!-- Node16&#45;&gt;Node27 -->
<g id="edge38" class="edge">
<title>Node16&#45;&gt;Node27</title>
<path fill="none" stroke="#191970" d="M1435.6186,-180.0807C1438.9576,-179.6795 1442.2703,-179.3143 1445.5,-179 1810.3478,-143.4923 1908.9238,-209.0269 2269.5,-143 2273.6835,-142.2339 2278.0064,-141.1846 2282.2583,-139.9902"/>
<polygon fill="#191970" stroke="#191970" points="2283.4249,-143.2932 2291.9519,-137.005 2281.3647,-136.6033 2283.4249,-143.2932"/>
</g>
<!-- Node28 -->
<g id="node29" class="node">
<title>Node28</title>
<polygon fill="none" stroke="#bfbfbf" points="2373,-118 2373,-137 2418,-137 2418,-118 2373,-118"/>
<text text-anchor="middle" x="2395.5" y="-125" font-family="Helvetica,sans-Serif" font-size="10.00" fill="#000000">iosfwd</text>
</g>
<!-- Node16&#45;&gt;Node28 -->
<g id="edge39" class="edge">
<title>Node16&#45;&gt;Node28</title>
<path fill="none" stroke="#191970" d="M1435.6169,-180.0635C1438.9563,-179.6667 1442.2696,-179.3071 1445.5,-179 1648.7404,-159.6783 2165.4464,-192.5458 2363.5,-143 2365.4762,-142.5056 2367.4746,-141.8812 2369.4567,-141.1683"/>
<polygon fill="#191970" stroke="#191970" points="2371.2365,-144.2138 2379.0527,-137.0613 2368.4822,-137.7784 2371.2365,-144.2138"/>
</g>
<!-- Node29 -->
<g id="node30" class="node">
<title>Node29</title>
<g id="a_node30"><a xlink:href="../../d1/da8/GPUROOTCartesianFwd_8h.html" target="_top" xlink:title="GPUROOTCartesianFwd.h">
<polygon fill="none" stroke="#000000" points="877.5,-118 877.5,-137 1013.5,-137 1013.5,-118 877.5,-118"/>
<text text-anchor="middle" x="945.5" y="-125" font-family="Helvetica,sans-Serif" font-size="10.00" fill="#000000">GPUROOTCartesianFwd.h</text>
</a>
</g>
</g>
<!-- Node16&#45;&gt;Node29 -->
<g id="edge40" class="edge">
<title>Node16&#45;&gt;Node29</title>
<path fill="none" stroke="#191970" d="M1323.2193,-182.9192C1252.8995,-175.0478 1128.9726,-160.2736 1023.5,-143 1016.1106,-141.7898 1008.3514,-140.3967 1000.7106,-138.9525"/>
<polygon fill="#191970" stroke="#191970" points="1001.2574,-135.4936 990.7754,-137.0357 999.9313,-142.3668 1001.2574,-135.4936"/>
</g>
<!-- Node18 -->
<g id="node19" class="node">
<title>Node18</title>
<g id="a_node19"><a xlink:href="../../d5/d93/GPUCommonDefSettings_8h.html" target="_top" xlink:title="GPUCommonDefSettings.h">
<polygon fill="none" stroke="#000000" points="755.5,-.5 755.5,-19.5 893.5,-19.5 893.5,-.5 755.5,-.5"/>
<text text-anchor="middle" x="824.5" y="-7.5" font-family="Helvetica,sans-Serif" font-size="10.00" fill="#000000">GPUCommonDefSettings.h</text>
</a>
</g>
</g>
<!-- Node17&#45;&gt;Node18 -->
<g id="edge28" class="edge">
<title>Node17&#45;&gt;Node18</title>
<path fill="none" stroke="#191970" d="M884.7844,-56.2455C873.898,-47.8943 858.0117,-35.7076 845.28,-25.9408"/>
<polygon fill="#191970" stroke="#191970" points="847.1346,-22.9523 837.0699,-19.6427 842.8739,-28.5063 847.1346,-22.9523"/>
</g>
<!-- Node19 -->
<g id="node20" class="node">
<title>Node19</title>
<g id="a_node20"><a xlink:href="../../da/d5a/GPUCommonDefAPI_8h.html" target="_top" xlink:title="GPUCommonDefAPI.h">
<polygon fill="none" stroke="#000000" points="912,-.5 912,-19.5 1031,-19.5 1031,-.5 912,-.5"/>
<text text-anchor="middle" x="971.5" y="-7.5" font-family="Helvetica,sans-Serif" font-size="10.00" fill="#000000">GPUCommonDefAPI.h</text>
</a>
</g>
</g>
<!-- Node17&#45;&gt;Node19 -->
<g id="edge29" class="edge">
<title>Node17&#45;&gt;Node19</title>
<path fill="none" stroke="#191970" d="M910.3898,-56.2455C921.4254,-47.8943 937.5292,-35.7076 950.4353,-25.9408"/>
<polygon fill="#191970" stroke="#191970" points="952.8959,-28.4681 958.7579,-19.6427 948.6717,-22.8862 952.8959,-28.4681"/>
</g>
<!-- Node29&#45;&gt;Node17 -->
<g id="edge41" class="edge">
<title>Node29&#45;&gt;Node17</title>
<path fill="none" stroke="#191970" d="M938,-117.8906C930.9262,-108.8273 920.1458,-95.0149 911.4854,-83.9188"/>
<polygon fill="#191970" stroke="#191970" points="914.0176,-81.4746 905.1057,-75.7449 908.4994,-85.7815 914.0176,-81.4746"/>
</g>
</g>
</svg>
        <g id="navigator" transform="translate(0 0)" fill="#404254">
                <rect fill="#f2f5e9" fill-opacity="0.5" stroke="#606060" stroke-width=".5" x="0" y="0" width="60" height="60"/>
                <use id="zoomplus" xlink:href="#zoomPlus" x="17" y="9" onmousedown="handleZoom(evt,'in')"/>
                <use id="zoomminus" xlink:href="#zoomMin" x="42" y="9" onmousedown="handleZoom(evt,'out')"/>
                <use id="reset" xlink:href="#resetDef" x="30" y="36" onmousedown="handleReset()"/>
                <g id="arrowUp" xlink:href="#dirArrow" transform="translate(30 24)" onmousedown="handlePan(0,-1)">
                  <use xlink:href="#rim" fill="#404040">
                        <set attributeName="fill" to="#808080" begin="arrowUp.mouseover" end="arrowUp.mouseout"/>
                  </use>
                  <path fill="none" stroke="white" stroke-width="1.5" d="M0,-3.0v7 M-2.5,-0.5L0,-3.0L2.5,-0.5"/>
                </g>
                <g id="arrowRight" xlink:href="#dirArrow" transform="rotate(90) translate(36 -43)" onmousedown="handlePan(1,0)">
                  <use xlink:href="#rim" fill="#404040">
                        <set attributeName="fill" to="#808080" begin="arrowRight.mouseover" end="arrowRight.mouseout"/>
                  </use>
                  <path fill="none" stroke="white" stroke-width="1.5" d="M0,-3.0v7 M-2.5,-0.5L0,-3.0L2.5,-0.5"/>
                </g>
                <g id="arrowDown" xlink:href="#dirArrow" transform="rotate(180) translate(-30 -48)" onmousedown="handlePan(0,1)">
                  <use xlink:href="#rim" fill="#404040">
                        <set attributeName="fill" to="#808080" begin="arrowDown.mouseover" end="arrowDown.mouseout"/>
                  </use>
                  <path fill="none" stroke="white" stroke-width="1.5" d="M0,-3.0v7 M-2.5,-0.5L0,-3.0L2.5,-0.5"/>
                </g>
                <g id="arrowLeft" xlink:href="#dirArrow" transform="rotate(270) translate(-36 17)" onmousedown="handlePan(-1,0)">
                  <use xlink:href="#rim" fill="#404040">
                        <set attributeName="fill" to="#808080" begin="arrowLeft.mouseover" end="arrowLeft.mouseout"/>
                  </use>
                  <path fill="none" stroke="white" stroke-width="1.5" d="M0,-3.0v7 M-2.5,-0.5L0,-3.0L2.5,-0.5"/>
                </g>
        </g>
        <svg viewBox="0 0 15 15" width="100%" height="30px" preserveAspectRatio="xMaxYMin meet">
         <g id="arrow_out" transform="scale(0.3 0.3)">
          <a xlink:href="MagFieldParam_8cxx__incl_org.svg" target="_base">
           <rect id="button" ry="5" rx="5" y="6" x="6" height="38" width="38"
                fill="#f2f5e9" fill-opacity="0.5" stroke="#606060" stroke-width="1.0"/>
           <path id="arrow"
             d="M 11.500037,31.436501 C 11.940474,20.09759 22.043105,11.32322 32.158766,21.979434 L 37.068811,17.246167 C 37.068811,17.246167 37.088388,32 37.088388,32 L 22.160133,31.978069 C 22.160133,31.978069 26.997745,27.140456 26.997745,27.140456 C 18.528582,18.264221 13.291696,25.230495 11.500037,31.436501 z"
             style="fill:#404040;"/>
          </a>
         </g>
        </svg>
</svg>
