<?xml version="1.0" encoding="UTF-8" standalone="no"?>
<!DOCTYPE svg PUBLIC "-//W3C//DTD SVG 1.1//EN"
 "http://www.w3.org/Graphics/SVG/1.1/DTD/svg11.dtd">
<!-- Generated by graphviz version 2.40.1 (20161225.0304)
 -->
<!-- Title: /home/runner/work/AliceO2/AliceO2/Detectors/ITSMFT/ITS/tracking/include/ITStracking/ArrayUtils.h Pages: 1 -->
<svg width="172pt" height="117pt"
 viewBox="0.00 0.00 172.00 117.00" xmlns="http://www.w3.org/2000/svg" xmlns:xlink="http://www.w3.org/1999/xlink">
<g id="graph0" class="graph" transform="scale(1 1) rotate(0) translate(4 113)">
<title>/home/runner/work/AliceO2/AliceO2/Detectors/ITSMFT/ITS/tracking/include/ITStracking/ArrayUtils.h</title>
<!-- Node0 -->
<g id="node1" class="node">
<title>Node0</title>
<polygon fill="#bfbfbf" stroke="#000000" points="1,-56.5 1,-108.5 161,-108.5 161,-56.5 1,-56.5"/>
<text text-anchor="start" x="9" y="-96.5" font-family="Helvetica,sans-Serif" font-size="10.00" fill="#000000">/home/runner/work/AliceO2</text>
<text text-anchor="start" x="9" y="-85.5" font-family="Helvetica,sans-Serif" font-size="10.00" fill="#000000">/AliceO2/Detectors/ITSMFT</text>
<text text-anchor="start" x="9" y="-74.5" font-family="Helvetica,sans-Serif" font-size="10.00" fill="#000000">/ITS/tracking/include/ITStracking</text>
<text text-anchor="middle" x="81" y="-63.5" font-family="Helvetica,sans-Serif" font-size="10.00" fill="#000000">/ArrayUtils.h</text>
</g>
<!-- Node1 -->
<g id="node2" class="node">
<title>Node1</title>
<polygon fill="none" stroke="#bfbfbf" points="0,-.5 0,-19.5 38,-19.5 38,-.5 0,-.5"/>
<text text-anchor="middle" x="19" y="-7.5" font-family="Helvetica,sans-Serif" font-size="10.00" fill="#000000">array</text>
</g>
<!-- Node0&#45;&gt;Node1 -->
<g id="edge1" class="edge">
<title>Node0&#45;&gt;Node1</title>
<path fill="none" stroke="#191970" d="M58.6166,-56.3258C50.3104,-46.613 41.1077,-35.8518 33.6641,-27.1476"/>
<polygon fill="#191970" stroke="#191970" points="36.3125,-24.8592 27.1532,-19.534 30.9925,-29.4087 36.3125,-24.8592"/>
</g>
<!-- Node2 -->
<g id="node3" class="node">
<title>Node2</title>
<polygon fill="none" stroke="#bfbfbf" points="56.5,-.5 56.5,-19.5 105.5,-19.5 105.5,-.5 56.5,-.5"/>
<text text-anchor="middle" x="81" y="-7.5" font-family="Helvetica,sans-Serif" font-size="10.00" fill="#000000">cstddef</text>
</g>
<!-- Node0&#45;&gt;Node2 -->
<g id="edge2" class="edge">
<title>Node0&#45;&gt;Node2</title>
<path fill="none" stroke="#191970" d="M81,-56.3258C81,-47.5142 81,-37.8397 81,-29.621"/>
<polygon fill="#191970" stroke="#191970" points="84.5001,-29.534 81,-19.534 77.5001,-29.534 84.5001,-29.534"/>
</g>
<!-- Node3 -->
<g id="node4" class="node">
<title>Node3</title>
<polygon fill="none" stroke="#bfbfbf" points="124,-.5 124,-19.5 164,-19.5 164,-.5 124,-.5"/>
<text text-anchor="middle" x="144" y="-7.5" font-family="Helvetica,sans-Serif" font-size="10.00" fill="#000000">utility</text>
</g>
<!-- Node0&#45;&gt;Node3 -->
<g id="edge3" class="edge">
<title>Node0&#45;&gt;Node3</title>
<path fill="none" stroke="#191970" d="M103.7444,-56.3258C112.1846,-46.613 121.5357,-35.8518 129.0993,-27.1476"/>
<polygon fill="#191970" stroke="#191970" points="131.7979,-29.3781 135.7153,-19.534 126.5141,-24.7866 131.7979,-29.3781"/>
</g>
</g>
</svg>
