<?xml version="1.0" encoding="UTF-8" standalone="no"?>
<!DOCTYPE svg PUBLIC "-//W3C//DTD SVG 1.1//EN"
 "http://www.w3.org/Graphics/SVG/1.1/DTD/svg11.dtd">
<!-- Generated by graphviz version 2.40.1 (20161225.0304)
 -->
<!-- Title: o2::itsmft::GBTLinkDecodingStat Pages: 1 -->
<svg width="438pt" height="226pt"
 viewBox="0.00 0.00 437.50 226.00" xmlns="http://www.w3.org/2000/svg" xmlns:xlink="http://www.w3.org/1999/xlink">
<g id="graph0" class="graph" transform="scale(1 1) rotate(0) translate(4 222)">
<title>o2::itsmft::GBTLinkDecodingStat</title>
<!-- Node1 -->
<g id="node1" class="node">
<title>Node1</title>
<polygon fill="#bfbfbf" stroke="#000000" points="147.5,-.5 147.5,-79.5 308.5,-79.5 308.5,-.5 147.5,-.5"/>
<text text-anchor="middle" x="228" y="-67.5" font-family="Helvetica,sans-Serif" font-size="10.00" fill="#000000">o2::itsmft::GBTLinkDecodingStat</text>
<polyline fill="none" stroke="#000000" points="147.5,-60.5 308.5,-60.5 "/>
<text text-anchor="middle" x="228" y="-48.5" font-family="Helvetica,sans-Serif" font-size="10.00" fill="#000000"> </text>
<polyline fill="none" stroke="#000000" points="147.5,-41.5 308.5,-41.5 "/>
<text text-anchor="start" x="155.5" y="-29.5" font-family="Helvetica,sans-Serif" font-size="10.00" fill="#000000">+ clear()</text>
<text text-anchor="start" x="155.5" y="-18.5" font-family="Helvetica,sans-Serif" font-size="10.00" fill="#000000">+ print()</text>
<text text-anchor="start" x="155.5" y="-7.5" font-family="Helvetica,sans-Serif" font-size="10.00" fill="#000000">+ ClassDefNV()</text>
</g>
<!-- Node2 -->
<g id="node2" class="node">
<title>Node2</title>
<polygon fill="none" stroke="#bfbfbf" points="0,-149.5 0,-217.5 122,-217.5 122,-149.5 0,-149.5"/>
<text text-anchor="start" x="8" y="-205.5" font-family="Helvetica,sans-Serif" font-size="10.00" fill="#000000">array&lt; uint32_t, NErrors</text>
<text text-anchor="middle" x="61" y="-194.5" font-family="Helvetica,sans-Serif" font-size="10.00" fill="#000000">Defined &gt;</text>
<polyline fill="none" stroke="#bfbfbf" points="0,-187.5 122,-187.5 "/>
<text text-anchor="middle" x="61" y="-175.5" font-family="Helvetica,sans-Serif" font-size="10.00" fill="#000000"> </text>
<polyline fill="none" stroke="#bfbfbf" points="0,-168.5 122,-168.5 "/>
<text text-anchor="middle" x="61" y="-156.5" font-family="Helvetica,sans-Serif" font-size="10.00" fill="#000000"> </text>
</g>
<!-- Node2&#45;&gt;Node1 -->
<g id="edge1" class="edge">
<title>Node2&#45;&gt;Node1</title>
<path fill="none" stroke="#404040" d="M81.3932,-149.1316C92.5182,-132.3276 107.3986,-112.6268 124,-98 128.5372,-94.0025 133.3953,-90.1613 138.4417,-86.4928"/>
<polygon fill="none" stroke="#404040" points="138.4689,-86.474 141.1334,-79.7732 148.3436,-79.6555 145.6791,-86.3563 138.4689,-86.474"/>
<text text-anchor="middle" x="154.5" y="-112" font-family="Helvetica,sans-Serif" font-size="10.00" fill="#000000"> +errorCounts</text>
</g>
<!-- Node3 -->
<g id="node3" class="node">
<title>Node3</title>
<g id="a_node3"><a xlink:href="../../d3/d87/classuint32__t.html" target="_top" xlink:title="{uint32_t\n||}">
<polygon fill="none" stroke="#000000" points="140.5,-155 140.5,-212 191.5,-212 191.5,-155 140.5,-155"/>
<text text-anchor="middle" x="166" y="-200" font-family="Helvetica,sans-Serif" font-size="10.00" fill="#000000">uint32_t</text>
<polyline fill="none" stroke="#000000" points="140.5,-193 191.5,-193 "/>
<text text-anchor="middle" x="166" y="-181" font-family="Helvetica,sans-Serif" font-size="10.00" fill="#000000"> </text>
<polyline fill="none" stroke="#000000" points="140.5,-174 191.5,-174 "/>
<text text-anchor="middle" x="166" y="-162" font-family="Helvetica,sans-Serif" font-size="10.00" fill="#000000"> </text>
</a>
</g>
</g>
<!-- Node3&#45;&gt;Node1 -->
<g id="edge2" class="edge">
<title>Node3&#45;&gt;Node1</title>
<path fill="none" stroke="#404040" d="M178.3976,-154.8055C186.3056,-136.5022 196.7766,-112.2671 206.0594,-90.7819"/>
<polygon fill="none" stroke="#404040" points="206.168,-90.5304 204.8758,-83.436 210.9275,-79.5146 212.2197,-86.609 206.168,-90.5304"/>
<text text-anchor="middle" x="227" y="-123" font-family="Helvetica,sans-Serif" font-size="10.00" fill="#000000"> +nTriggers</text>
<text text-anchor="middle" x="227" y="-112" font-family="Helvetica,sans-Serif" font-size="10.00" fill="#000000">+ruLinkID</text>
<text text-anchor="middle" x="227" y="-101" font-family="Helvetica,sans-Serif" font-size="10.00" fill="#000000">+nPackets</text>
</g>
<!-- Node4 -->
<g id="node4" class="node">
<title>Node4</title>
<polygon fill="none" stroke="#bfbfbf" points="209.5,-149.5 209.5,-217.5 370.5,-217.5 370.5,-149.5 209.5,-149.5"/>
<text text-anchor="start" x="217.5" y="-205.5" font-family="Helvetica,sans-Serif" font-size="10.00" fill="#000000">array&lt; uint32_t, GBTData</text>
<text text-anchor="middle" x="290" y="-194.5" font-family="Helvetica,sans-Serif" font-size="10.00" fill="#000000">Trailer::MaxStateCombinations &gt;</text>
<polyline fill="none" stroke="#bfbfbf" points="209.5,-187.5 370.5,-187.5 "/>
<text text-anchor="middle" x="290" y="-175.5" font-family="Helvetica,sans-Serif" font-size="10.00" fill="#000000"> </text>
<polyline fill="none" stroke="#bfbfbf" points="209.5,-168.5 370.5,-168.5 "/>
<text text-anchor="middle" x="290" y="-156.5" font-family="Helvetica,sans-Serif" font-size="10.00" fill="#000000"> </text>
</g>
<!-- Node4&#45;&gt;Node1 -->
<g id="edge3" class="edge">
<title>Node4&#45;&gt;Node1</title>
<path fill="none" stroke="#404040" d="M276.9859,-149.1526C270.8716,-133.4497 263.3278,-114.6714 256,-98 254.9399,-95.5881 253.8377,-93.1288 252.7101,-90.6513"/>
<polygon fill="none" stroke="#404040" points="252.7084,-90.6475 246.5541,-86.8892 247.6563,-79.7628 253.8106,-83.5211 252.7084,-90.6475"/>
<text text-anchor="middle" x="302.5" y="-112" font-family="Helvetica,sans-Serif" font-size="10.00" fill="#000000"> +packetStates</text>
</g>
<!-- Node5 -->
<g id="node5" class="node">
<title>Node5</title>
<polygon fill="none" stroke="#bfbfbf" points="388.5,-155 388.5,-212 429.5,-212 429.5,-155 388.5,-155"/>
<text text-anchor="middle" x="409" y="-200" font-family="Helvetica,sans-Serif" font-size="10.00" fill="#000000">static</text>
<polyline fill="none" stroke="#bfbfbf" points="388.5,-193 429.5,-193 "/>
<text text-anchor="middle" x="409" y="-181" font-family="Helvetica,sans-Serif" font-size="10.00" fill="#000000"> </text>
<polyline fill="none" stroke="#bfbfbf" points="388.5,-174 429.5,-174 "/>
<text text-anchor="middle" x="409" y="-162" font-family="Helvetica,sans-Serif" font-size="10.00" fill="#000000"> </text>
</g>
<!-- Node5&#45;&gt;Node1 -->
<g id="edge4" class="edge">
<title>Node5&#45;&gt;Node1</title>
<path fill="none" stroke="#404040" d="M390.4125,-154.769C377.7742,-136.8353 359.7971,-114.1673 340,-98 333.4121,-92.62 326.2448,-87.5373 318.8256,-82.7855"/>
<polygon fill="none" stroke="#404040" points="318.8172,-82.7804 311.6115,-83.0586 308.5832,-76.5142 315.789,-76.2359 318.8172,-82.7804"/>
<text text-anchor="middle" x="398" y="-112" font-family="Helvetica,sans-Serif" font-size="10.00" fill="#000000"> +ErrNames</text>
</g>
</g>
</svg>
