<?xml version="1.0" encoding="UTF-8" standalone="no"?>
<!DOCTYPE svg PUBLIC "-//W3C//DTD SVG 1.1//EN"
 "http://www.w3.org/Graphics/SVG/1.1/DTD/svg11.dtd">
<!-- Generated by graphviz version 2.40.1 (20161225.0304)
 -->
<!-- Title: /home/runner/work/AliceO2/AliceO2/Detectors/ITSMFT/common/simulation/include/ITSMFTSimulation/AlpideChip.h Pages: 1 -->
<svg width="1408pt" height="150pt"
 viewBox="0.00 0.00 1407.50 150.00" xmlns="http://www.w3.org/2000/svg" xmlns:xlink="http://www.w3.org/1999/xlink">
<g id="graph0" class="graph" transform="scale(1 1) rotate(0) translate(4 146)">
<title>/home/runner/work/AliceO2/AliceO2/Detectors/ITSMFT/common/simulation/include/ITSMFTSimulation/AlpideChip.h</title>
<!-- Node3 -->
<g id="node1" class="node">
<title>Node3</title>
<polygon fill="#bfbfbf" stroke="#000000" points="644,-89.5 644,-141.5 804,-141.5 804,-89.5 644,-89.5"/>
<text text-anchor="start" x="652" y="-129.5" font-family="Helvetica,sans-Serif" font-size="10.00" fill="#000000">/home/runner/work/AliceO2</text>
<text text-anchor="start" x="652" y="-118.5" font-family="Helvetica,sans-Serif" font-size="10.00" fill="#000000">/AliceO2/Detectors/ITSMFT</text>
<text text-anchor="start" x="652" y="-107.5" font-family="Helvetica,sans-Serif" font-size="10.00" fill="#000000">/common/simulation/include</text>
<text text-anchor="middle" x="724" y="-96.5" font-family="Helvetica,sans-Serif" font-size="10.00" fill="#000000">/ITSMFTSimulation/AlpideChip.h</text>
</g>
<!-- Node4 -->
<g id="node2" class="node">
<title>Node4</title>
<g id="a_node2"><a xlink:href="../../d5/d6b/AlpideChip_8cxx.html" target="_top" xlink:title="Creates an ALPIDE chip in simulation. ">
<polygon fill="none" stroke="#000000" points="0,-6 0,-47 190,-47 190,-6 0,-6"/>
<text text-anchor="start" x="8" y="-35" font-family="Helvetica,sans-Serif" font-size="10.00" fill="#000000">/home/runner/work/AliceO2</text>
<text text-anchor="start" x="8" y="-24" font-family="Helvetica,sans-Serif" font-size="10.00" fill="#000000">/AliceO2/Detectors/ITSMFT</text>
<text text-anchor="middle" x="95" y="-13" font-family="Helvetica,sans-Serif" font-size="10.00" fill="#000000">/common/simulation/src/AlpideChip.cxx</text>
</a>
</g>
</g>
<!-- Node3&#45;&gt;Node4 -->
<g id="edge1" class="edge">
<title>Node3&#45;&gt;Node4</title>
<path fill="none" stroke="#191970" d="M633.6582,-108.3687C528.617,-99.2413 350.3026,-81.1573 199,-53 189.841,-51.2955 180.2925,-49.246 170.8559,-47.0511"/>
<polygon fill="#191970" stroke="#191970" points="633.6409,-111.88 643.9043,-109.2507 634.2413,-104.9058 633.6409,-111.88"/>
</g>
<!-- Node5 -->
<g id="node3" class="node">
<title>Node5</title>
<g id="a_node3"><a xlink:href="../../de/d82/ITSMFT_2ITS_2simulation_2src_2V3Layer_8cxx.html" target="_top" xlink:title="/home/runner/work/AliceO2\l/AliceO2/Detectors/ITSMFT\l/ITS/simulation/src/V3Layer.cxx">
<polygon fill="none" stroke="#000000" points="208.5,-6 208.5,-47 365.5,-47 365.5,-6 208.5,-6"/>
<text text-anchor="start" x="216.5" y="-35" font-family="Helvetica,sans-Serif" font-size="10.00" fill="#000000">/home/runner/work/AliceO2</text>
<text text-anchor="start" x="216.5" y="-24" font-family="Helvetica,sans-Serif" font-size="10.00" fill="#000000">/AliceO2/Detectors/ITSMFT</text>
<text text-anchor="middle" x="287" y="-13" font-family="Helvetica,sans-Serif" font-size="10.00" fill="#000000">/ITS/simulation/src/V3Layer.cxx</text>
</a>
</g>
</g>
<!-- Node3&#45;&gt;Node5 -->
<g id="edge2" class="edge">
<title>Node3&#45;&gt;Node5</title>
<path fill="none" stroke="#191970" d="M633.6014,-102.3856C562.565,-91.3532 461.3705,-74.0285 374,-53 366.6315,-51.2266 358.9677,-49.1865 351.3782,-47.0422"/>
<polygon fill="#191970" stroke="#191970" points="633.4415,-105.9022 643.8581,-103.9674 634.5085,-98.984 633.4415,-105.9022"/>
</g>
<!-- Node6 -->
<g id="node4" class="node">
<title>Node6</title>
<g id="a_node4"><a xlink:href="../../d9/d6c/ITSMFT_2ITS_2simulation_2src_2V3Services_8cxx.html" target="_top" xlink:title="/home/runner/work/AliceO2\l/AliceO2/Detectors/ITSMFT\l/ITS/simulation/src/V3Services.cxx">
<polygon fill="none" stroke="#000000" points="383.5,-6 383.5,-47 554.5,-47 554.5,-6 383.5,-6"/>
<text text-anchor="start" x="391.5" y="-35" font-family="Helvetica,sans-Serif" font-size="10.00" fill="#000000">/home/runner/work/AliceO2</text>
<text text-anchor="start" x="391.5" y="-24" font-family="Helvetica,sans-Serif" font-size="10.00" fill="#000000">/AliceO2/Detectors/ITSMFT</text>
<text text-anchor="middle" x="469" y="-13" font-family="Helvetica,sans-Serif" font-size="10.00" fill="#000000">/ITS/simulation/src/V3Services.cxx</text>
</a>
</g>
</g>
<!-- Node3&#45;&gt;Node6 -->
<g id="edge3" class="edge">
<title>Node3&#45;&gt;Node6</title>
<path fill="none" stroke="#191970" d="M639.5547,-86.0269C603.0064,-73.2708 561.1101,-58.6482 527.9883,-47.0881"/>
<polygon fill="#191970" stroke="#191970" points="638.6197,-89.4076 649.2146,-89.3984 640.9265,-82.7986 638.6197,-89.4076"/>
</g>
<!-- Node7 -->
<g id="node5" class="node">
<title>Node7</title>
<g id="a_node5"><a xlink:href="../../dc/d80/Ladder_8cxx.html" target="_top" xlink:title="Ladder builder. ">
<polygon fill="none" stroke="#000000" points="572.5,-6 572.5,-47 711.5,-47 711.5,-6 572.5,-6"/>
<text text-anchor="start" x="580.5" y="-35" font-family="Helvetica,sans-Serif" font-size="10.00" fill="#000000">/home/runner/work/AliceO2</text>
<text text-anchor="start" x="580.5" y="-24" font-family="Helvetica,sans-Serif" font-size="10.00" fill="#000000">/AliceO2/Detectors/ITSMFT</text>
<text text-anchor="middle" x="642" y="-13" font-family="Helvetica,sans-Serif" font-size="10.00" fill="#000000">/MFT/base/src/Ladder.cxx</text>
</a>
</g>
</g>
<!-- Node3&#45;&gt;Node7 -->
<g id="edge4" class="edge">
<title>Node3&#45;&gt;Node7</title>
<path fill="none" stroke="#191970" d="M692.962,-81.8125C682.2311,-70.1654 670.5309,-57.4665 661.0508,-47.1771"/>
<polygon fill="#191970" stroke="#191970" points="690.4908,-84.2956 699.8408,-89.2784 695.6389,-79.5525 690.4908,-84.2956"/>
</g>
<!-- Node8 -->
<g id="node6" class="node">
<title>Node8</title>
<g id="a_node6"><a xlink:href="../../d4/dd1/Upgrades_2IT3_2simulation_2src_2V3Layer_8cxx.html" target="_top" xlink:title="/home/runner/work/AliceO2\l/AliceO2/Detectors/Upgrades\l/IT3/simulation/src/V3Layer.cxx">
<polygon fill="none" stroke="#000000" points="729.5,-6 729.5,-47 884.5,-47 884.5,-6 729.5,-6"/>
<text text-anchor="start" x="737.5" y="-35" font-family="Helvetica,sans-Serif" font-size="10.00" fill="#000000">/home/runner/work/AliceO2</text>
<text text-anchor="start" x="737.5" y="-24" font-family="Helvetica,sans-Serif" font-size="10.00" fill="#000000">/AliceO2/Detectors/Upgrades</text>
<text text-anchor="middle" x="807" y="-13" font-family="Helvetica,sans-Serif" font-size="10.00" fill="#000000">/IT3/simulation/src/V3Layer.cxx</text>
</a>
</g>
</g>
<!-- Node3&#45;&gt;Node8 -->
<g id="edge5" class="edge">
<title>Node3&#45;&gt;Node8</title>
<path fill="none" stroke="#191970" d="M755.4165,-81.8125C766.2783,-70.1654 778.1212,-57.4665 787.7169,-47.1771"/>
<polygon fill="#191970" stroke="#191970" points="752.7144,-79.578 748.4538,-89.2784 757.8338,-84.3522 752.7144,-79.578"/>
</g>
<!-- Node9 -->
<g id="node7" class="node">
<title>Node9</title>
<g id="a_node7"><a xlink:href="../../d7/da9/Upgrades_2IT3_2simulation_2src_2V3Services_8cxx.html" target="_top" xlink:title="/home/runner/work/AliceO2\l/AliceO2/Detectors/Upgrades\l/IT3/simulation/src/V3Services.cxx">
<polygon fill="none" stroke="#000000" points="903,-6 903,-47 1073,-47 1073,-6 903,-6"/>
<text text-anchor="start" x="911" y="-35" font-family="Helvetica,sans-Serif" font-size="10.00" fill="#000000">/home/runner/work/AliceO2</text>
<text text-anchor="start" x="911" y="-24" font-family="Helvetica,sans-Serif" font-size="10.00" fill="#000000">/AliceO2/Detectors/Upgrades</text>
<text text-anchor="middle" x="988" y="-13" font-family="Helvetica,sans-Serif" font-size="10.00" fill="#000000">/IT3/simulation/src/V3Services.cxx</text>
</a>
</g>
</g>
<!-- Node3&#45;&gt;Node9 -->
<g id="edge6" class="edge">
<title>Node3&#45;&gt;Node9</title>
<path fill="none" stroke="#191970" d="M810.943,-86.1897C848.8947,-73.3954 892.493,-58.6974 926.9298,-47.0881"/>
<polygon fill="#191970" stroke="#191970" points="809.7828,-82.8872 801.4249,-89.3984 812.019,-89.5204 809.7828,-82.8872"/>
</g>
<!-- Node10 -->
<g id="node8" class="node">
<title>Node10</title>
<g id="a_node8"><a xlink:href="../../d1/d7a/Upgrades_2PostLS4_2IT4_2simulation_2src_2V3Layer_8cxx.html" target="_top" xlink:title="/home/runner/work/AliceO2\l/AliceO2/Detectors/Upgrades\l/PostLS4/IT4/simulation/src\l/V3Layer.cxx">
<polygon fill="none" stroke="#000000" points="1091.5,-.5 1091.5,-52.5 1236.5,-52.5 1236.5,-.5 1091.5,-.5"/>
<text text-anchor="start" x="1099.5" y="-40.5" font-family="Helvetica,sans-Serif" font-size="10.00" fill="#000000">/home/runner/work/AliceO2</text>
<text text-anchor="start" x="1099.5" y="-29.5" font-family="Helvetica,sans-Serif" font-size="10.00" fill="#000000">/AliceO2/Detectors/Upgrades</text>
<text text-anchor="start" x="1099.5" y="-18.5" font-family="Helvetica,sans-Serif" font-size="10.00" fill="#000000">/PostLS4/IT4/simulation/src</text>
<text text-anchor="middle" x="1164" y="-7.5" font-family="Helvetica,sans-Serif" font-size="10.00" fill="#000000">/V3Layer.cxx</text>
</a>
</g>
</g>
<!-- Node3&#45;&gt;Node10 -->
<g id="edge7" class="edge">
<title>Node3&#45;&gt;Node10</title>
<path fill="none" stroke="#191970" d="M814.3519,-103.2976C887.1763,-92.6085 991.9216,-75.3024 1082,-53 1085.0497,-52.2449 1088.1509,-51.4354 1091.2746,-50.5854"/>
<polygon fill="#191970" stroke="#191970" points="813.6843,-99.8578 804.2927,-104.7618 814.6926,-106.7848 813.6843,-99.8578"/>
</g>
<!-- Node11 -->
<g id="node9" class="node">
<title>Node11</title>
<g id="a_node9"><a xlink:href="../../dc/d80/Upgrades_2PostLS4_2IT4_2simulation_2src_2V3Services_8cxx.html" target="_top" xlink:title="/home/runner/work/AliceO2\l/AliceO2/Detectors/Upgrades\l/PostLS4/IT4/simulation/src\l/V3Services.cxx">
<polygon fill="none" stroke="#000000" points="1254.5,-.5 1254.5,-52.5 1399.5,-52.5 1399.5,-.5 1254.5,-.5"/>
<text text-anchor="start" x="1262.5" y="-40.5" font-family="Helvetica,sans-Serif" font-size="10.00" fill="#000000">/home/runner/work/AliceO2</text>
<text text-anchor="start" x="1262.5" y="-29.5" font-family="Helvetica,sans-Serif" font-size="10.00" fill="#000000">/AliceO2/Detectors/Upgrades</text>
<text text-anchor="start" x="1262.5" y="-18.5" font-family="Helvetica,sans-Serif" font-size="10.00" fill="#000000">/PostLS4/IT4/simulation/src</text>
<text text-anchor="middle" x="1327" y="-7.5" font-family="Helvetica,sans-Serif" font-size="10.00" fill="#000000">/V3Services.cxx</text>
</a>
</g>
</g>
<!-- Node3&#45;&gt;Node11 -->
<g id="edge8" class="edge">
<title>Node3&#45;&gt;Node11</title>
<path fill="none" stroke="#191970" d="M814.6425,-110.0834C919.4802,-102.5692 1096.7936,-86.0013 1246,-53 1248.7449,-52.3929 1251.5285,-51.7299 1254.33,-51.0227"/>
<polygon fill="#191970" stroke="#191970" points="814.1433,-106.6098 804.4142,-110.8042 814.6355,-113.5925 814.1433,-106.6098"/>
</g>
</g>
</svg>
