<?xml version="1.0" encoding="UTF-8" standalone="no"?>
<!DOCTYPE svg PUBLIC "-//W3C//DTD SVG 1.1//EN"
 "http://www.w3.org/Graphics/SVG/1.1/DTD/svg11.dtd">
<!-- Generated by graphviz version 2.40.1 (20161225.0304)
 -->
<!-- Title: /home/runner/work/AliceO2/AliceO2/GPU/GPUTracking/Merger/GPUTPCGMMerger.h Pages: 1 -->
<!--zoomable 295 -->
<svg id="main" version="1.1" xmlns="http://www.w3.org/2000/svg" xmlns:xlink="http://www.w3.org/1999/xlink" xml:space="preserve" onload="init(evt)">
<style type="text/css"><![CDATA[
.edge:hover path { stroke: red; }
.edge:hover polygon { stroke: red; fill: red; }
]]></style>
<script type="text/javascript"><![CDATA[
var edges = document.getElementsByTagName('g');
if (edges && edges.length) {
  for (var i=0;i<edges.length;i++) {
    if (edges[i].id.substr(0,4)=='edge') {
      edges[i].setAttribute('class','edge');
    }
  }
}
]]></script>
        <defs>
                <circle id="rim" cx="0" cy="0" r="7"/>
                <circle id="rim2" cx="0" cy="0" r="3.5"/>
                <g id="zoomPlus">
                        <use xlink:href="#rim" fill="#404040">
                                <set attributeName="fill" to="#808080" begin="zoomplus.mouseover" end="zoomplus.mouseout"/>
                        </use>
                        <path d="M-4,0h8M0,-4v8" fill="none" stroke="white" stroke-width="1.5" pointer-events="none"/>
                </g>
                <g id="zoomMin">
                        <use xlink:href="#rim" fill="#404040">
                                <set attributeName="fill" to="#808080" begin="zoomminus.mouseover" end="zoomminus.mouseout"/>
                        </use>
                        <path d="M-4,0h8" fill="none" stroke="white" stroke-width="1.5" pointer-events="none"/>
                </g>
                <g id="dirArrow">
                        <path fill="none" stroke="white" stroke-width="1.5" d="M0,-3.0v7 M-2.5,-0.5L0,-3.0L2.5,-0.5"/>
                </g>
               <g id="resetDef">
                       <use xlink:href="#rim2" fill="#404040">
                               <set attributeName="fill" to="#808080" begin="reset.mouseover" end="reset.mouseout"/>
                       </use>
               </g>
        </defs>

<script type="text/javascript">
var viewWidth = 1626;
var viewHeight = 295;
var sectionId = 'dynsection-1';
</script>
<script xlink:href="../../svgpan.js"/>
<svg id="graph" class="graph">
<g id="viewport">
<title>/home/runner/work/AliceO2/AliceO2/GPU/GPUTracking/Merger/GPUTPCGMMerger.h</title>
<!-- Node41 -->
<g id="node1" class="node">
<title>Node41</title>
<polygon fill="#bfbfbf" stroke="#000000" points="752,-245.5 752,-286.5 901,-286.5 901,-245.5 752,-245.5"/>
<text text-anchor="start" x="760" y="-274.5" font-family="Helvetica,sans-Serif" font-size="10.00" fill="#000000">/home/runner/work/AliceO2</text>
<text text-anchor="start" x="760" y="-263.5" font-family="Helvetica,sans-Serif" font-size="10.00" fill="#000000">/AliceO2/GPU/GPUTracking</text>
<text text-anchor="middle" x="826.5" y="-252.5" font-family="Helvetica,sans-Serif" font-size="10.00" fill="#000000">/Merger/GPUTPCGMMerger.h</text>
</g>
<!-- Node42 -->
<g id="node2" class="node">
<title>Node42</title>
<g id="a_node2"><a xlink:href="../../d9/d57/GPUTPCCompressionKernels_8cxx.html" target="_top" xlink:title="/home/runner/work/AliceO2\l/AliceO2/GPU/GPUTracking\l/DataCompression/GPUTPCCompression\lKernels.cxx">
<polygon fill="none" stroke="#000000" points="0,-156.5 0,-208.5 201,-208.5 201,-156.5 0,-156.5"/>
<text text-anchor="start" x="8" y="-196.5" font-family="Helvetica,sans-Serif" font-size="10.00" fill="#000000">/home/runner/work/AliceO2</text>
<text text-anchor="start" x="8" y="-185.5" font-family="Helvetica,sans-Serif" font-size="10.00" fill="#000000">/AliceO2/GPU/GPUTracking</text>
<text text-anchor="start" x="8" y="-174.5" font-family="Helvetica,sans-Serif" font-size="10.00" fill="#000000">/DataCompression/GPUTPCCompression</text>
<text text-anchor="middle" x="100.5" y="-163.5" font-family="Helvetica,sans-Serif" font-size="10.00" fill="#000000">Kernels.cxx</text>
</a>
</g>
</g>
<!-- Node41&#45;&gt;Node42 -->
<g id="edge1" class="edge">
<title>Node41&#45;&gt;Node42</title>
<path fill="none" stroke="#191970" d="M741.8017,-262.1057C622.4276,-255.7269 398.178,-240.477 209.5,-209 206.7146,-208.5353 203.8951,-208.0383 201.0543,-207.514"/>
<polygon fill="#191970" stroke="#191970" points="741.7984,-265.6103 751.9687,-262.641 742.1666,-258.6199 741.7984,-265.6103"/>
</g>
<!-- Node43 -->
<g id="node3" class="node">
<title>Node43</title>
<g id="a_node3"><a xlink:href="../../df/d06/GPUTPCGlobalMergerComponent_8cxx.html" target="_top" xlink:title="/home/runner/work/AliceO2\l/AliceO2/GPU/GPUTracking\l/Merger/GPUTPCGlobalMergerComponent.cxx">
<polygon fill="none" stroke="#000000" points="219,-162 219,-203 440,-203 440,-162 219,-162"/>
<text text-anchor="start" x="227" y="-191" font-family="Helvetica,sans-Serif" font-size="10.00" fill="#000000">/home/runner/work/AliceO2</text>
<text text-anchor="start" x="227" y="-180" font-family="Helvetica,sans-Serif" font-size="10.00" fill="#000000">/AliceO2/GPU/GPUTracking</text>
<text text-anchor="middle" x="329.5" y="-169" font-family="Helvetica,sans-Serif" font-size="10.00" fill="#000000">/Merger/GPUTPCGlobalMergerComponent.cxx</text>
</a>
</g>
</g>
<!-- Node41&#45;&gt;Node43 -->
<g id="edge2" class="edge">
<title>Node41&#45;&gt;Node43</title>
<path fill="none" stroke="#191970" d="M741.7845,-254.8518C665.1974,-244.3792 549.4674,-227.5735 449.5,-209 439.746,-207.1878 429.5763,-205.1595 419.4636,-203.0536"/>
<polygon fill="#191970" stroke="#191970" points="741.4778,-258.3423 751.8587,-256.2237 742.4224,-251.4063 741.4778,-258.3423"/>
</g>
<!-- Node44 -->
<g id="node4" class="node">
<title>Node44</title>
<g id="a_node4"><a xlink:href="../../d0/dd4/GPUTPCGMMerger_8cxx.html" target="_top" xlink:title="/home/runner/work/AliceO2\l/AliceO2/GPU/GPUTracking\l/Merger/GPUTPCGMMerger.cxx">
<polygon fill="none" stroke="#000000" points="458,-162 458,-203 617,-203 617,-162 458,-162"/>
<text text-anchor="start" x="466" y="-191" font-family="Helvetica,sans-Serif" font-size="10.00" fill="#000000">/home/runner/work/AliceO2</text>
<text text-anchor="start" x="466" y="-180" font-family="Helvetica,sans-Serif" font-size="10.00" fill="#000000">/AliceO2/GPU/GPUTracking</text>
<text text-anchor="middle" x="537.5" y="-169" font-family="Helvetica,sans-Serif" font-size="10.00" fill="#000000">/Merger/GPUTPCGMMerger.cxx</text>
</a>
</g>
</g>
<!-- Node41&#45;&gt;Node44 -->
<g id="edge3" class="edge">
<title>Node41&#45;&gt;Node44</title>
<path fill="none" stroke="#191970" d="M743.7839,-242.6616C707.7324,-232.4287 664.9968,-220.2166 626.5,-209 619.9992,-207.1059 613.2359,-205.12 606.4712,-203.1234"/>
<polygon fill="#191970" stroke="#191970" points="743.1904,-246.1312 753.766,-245.4928 745.1005,-239.3969 743.1904,-246.1312"/>
</g>
<!-- Node47 -->
<g id="node7" class="node">
<title>Node47</title>
<g id="a_node7"><a xlink:href="../../d0/d24/GPUTPCGMMergerDump_8cxx.html" target="_top" xlink:title="/home/runner/work/AliceO2\l/AliceO2/GPU/GPUTracking\l/Merger/GPUTPCGMMergerDump.cxx">
<polygon fill="none" stroke="#000000" points="635,-162 635,-203 820,-203 820,-162 635,-162"/>
<text text-anchor="start" x="643" y="-191" font-family="Helvetica,sans-Serif" font-size="10.00" fill="#000000">/home/runner/work/AliceO2</text>
<text text-anchor="start" x="643" y="-180" font-family="Helvetica,sans-Serif" font-size="10.00" fill="#000000">/AliceO2/GPU/GPUTracking</text>
<text text-anchor="middle" x="727.5" y="-169" font-family="Helvetica,sans-Serif" font-size="10.00" fill="#000000">/Merger/GPUTPCGMMergerDump.cxx</text>
</a>
</g>
</g>
<!-- Node41&#45;&gt;Node47 -->
<g id="edge6" class="edge">
<title>Node41&#45;&gt;Node47</title>
<path fill="none" stroke="#191970" d="M794.223,-238.7765C780.5069,-227.2079 764.7753,-213.9393 752.0335,-203.1924"/>
<polygon fill="#191970" stroke="#191970" points="792.1274,-241.5877 802.0281,-245.3595 796.6405,-236.2368 792.1274,-241.5877"/>
</g>
<!-- Node48 -->
<g id="node8" class="node">
<title>Node48</title>
<g id="a_node8"><a xlink:href="../../d5/d84/GPUTPCGMSliceTrack_8cxx.html" target="_top" xlink:title="/home/runner/work/AliceO2\l/AliceO2/GPU/GPUTracking\l/Merger/GPUTPCGMSliceTrack.cxx">
<polygon fill="none" stroke="#000000" points="837.5,-162 837.5,-203 1013.5,-203 1013.5,-162 837.5,-162"/>
<text text-anchor="start" x="845.5" y="-191" font-family="Helvetica,sans-Serif" font-size="10.00" fill="#000000">/home/runner/work/AliceO2</text>
<text text-anchor="start" x="845.5" y="-180" font-family="Helvetica,sans-Serif" font-size="10.00" fill="#000000">/AliceO2/GPU/GPUTracking</text>
<text text-anchor="middle" x="925.5" y="-169" font-family="Helvetica,sans-Serif" font-size="10.00" fill="#000000">/Merger/GPUTPCGMSliceTrack.cxx</text>
</a>
</g>
</g>
<!-- Node41&#45;&gt;Node48 -->
<g id="edge7" class="edge">
<title>Node41&#45;&gt;Node48</title>
<path fill="none" stroke="#191970" d="M858.777,-238.7765C872.4931,-227.2079 888.2247,-213.9393 900.9665,-203.1924"/>
<polygon fill="#191970" stroke="#191970" points="856.3595,-236.2368 850.9719,-245.3595 860.8726,-241.5877 856.3595,-236.2368"/>
</g>
<!-- Node49 -->
<g id="node9" class="node">
<title>Node49</title>
<g id="a_node9"><a xlink:href="../../df/dad/GPUTPCGMTrackParam_8cxx.html" target="_top" xlink:title="/home/runner/work/AliceO2\l/AliceO2/GPU/GPUTracking\l/Merger/GPUTPCGMTrackParam.cxx">
<polygon fill="none" stroke="#000000" points="1031.5,-162 1031.5,-203 1213.5,-203 1213.5,-162 1031.5,-162"/>
<text text-anchor="start" x="1039.5" y="-191" font-family="Helvetica,sans-Serif" font-size="10.00" fill="#000000">/home/runner/work/AliceO2</text>
<text text-anchor="start" x="1039.5" y="-180" font-family="Helvetica,sans-Serif" font-size="10.00" fill="#000000">/AliceO2/GPU/GPUTracking</text>
<text text-anchor="middle" x="1122.5" y="-169" font-family="Helvetica,sans-Serif" font-size="10.00" fill="#000000">/Merger/GPUTPCGMTrackParam.cxx</text>
</a>
</g>
</g>
<!-- Node41&#45;&gt;Node49 -->
<g id="edge9" class="edge">
<title>Node41&#45;&gt;Node49</title>
<path fill="none" stroke="#191970" d="M909.1326,-242.6898C953.293,-230.2324 1007.17,-215.034 1049.736,-203.0263"/>
<polygon fill="#191970" stroke="#191970" points="907.963,-239.3831 899.2889,-245.4667 909.8635,-246.1201 907.963,-239.3831"/>
</g>
<!-- Node50 -->
<g id="node10" class="node">
<title>Node50</title>
<g id="a_node10"><a xlink:href="../../d3/ddb/GPUTPCGMTracksToTPCSeeds_8cxx.html" target="_top" xlink:title="/home/runner/work/AliceO2\l/AliceO2/GPU/GPUTracking\l/Merger/GPUTPCGMTracksToTPCSeeds.cxx">
<polygon fill="none" stroke="#000000" points="1231.5,-162 1231.5,-203 1449.5,-203 1449.5,-162 1231.5,-162"/>
<text text-anchor="start" x="1239.5" y="-191" font-family="Helvetica,sans-Serif" font-size="10.00" fill="#000000">/home/runner/work/AliceO2</text>
<text text-anchor="start" x="1239.5" y="-180" font-family="Helvetica,sans-Serif" font-size="10.00" fill="#000000">/AliceO2/GPU/GPUTracking</text>
<text text-anchor="middle" x="1340.5" y="-169" font-family="Helvetica,sans-Serif" font-size="10.00" fill="#000000">/Merger/GPUTPCGMTracksToTPCSeeds.cxx</text>
</a>
</g>
</g>
<!-- Node41&#45;&gt;Node50 -->
<g id="edge11" class="edge">
<title>Node41&#45;&gt;Node50</title>
<path fill="none" stroke="#191970" d="M911.2993,-255.7384C991.6958,-245.5507 1115.7182,-228.6445 1222.5,-209 1232.3087,-207.1955 1242.5399,-205.1483 1252.6991,-203.0106"/>
<polygon fill="#191970" stroke="#191970" points="910.7114,-252.2847 901.2278,-257.0084 911.5872,-259.2297 910.7114,-252.2847"/>
</g>
<!-- Node51 -->
<g id="node11" class="node">
<title>Node51</title>
<g id="a_node11"><a xlink:href="../../d7/d9f/genEvents_8cxx.html" target="_top" xlink:title="/home/runner/work/AliceO2\l/AliceO2/GPU/GPUTracking\l/Standalone/qa/genEvents.cxx">
<polygon fill="none" stroke="#000000" points="1467.5,-162 1467.5,-203 1617.5,-203 1617.5,-162 1467.5,-162"/>
<text text-anchor="start" x="1475.5" y="-191" font-family="Helvetica,sans-Serif" font-size="10.00" fill="#000000">/home/runner/work/AliceO2</text>
<text text-anchor="start" x="1475.5" y="-180" font-family="Helvetica,sans-Serif" font-size="10.00" fill="#000000">/AliceO2/GPU/GPUTracking</text>
<text text-anchor="middle" x="1542.5" y="-169" font-family="Helvetica,sans-Serif" font-size="10.00" fill="#000000">/Standalone/qa/genEvents.cxx</text>
</a>
</g>
</g>
<!-- Node41&#45;&gt;Node51 -->
<g id="edge12" class="edge">
<title>Node41&#45;&gt;Node51</title>
<path fill="none" stroke="#191970" d="M911.2201,-264.1459C1033.2762,-260.1718 1265.1778,-247.7398 1458.5,-209 1466.4467,-207.4076 1474.7033,-205.3387 1482.801,-203.0588"/>
<polygon fill="#191970" stroke="#191970" points="911.075,-260.6486 901.19,-264.4614 911.2951,-267.6452 911.075,-260.6486"/>
</g>
<!-- Node45 -->
<g id="node5" class="node">
<title>Node45</title>
<g id="a_node5"><a xlink:href="../../d0/d25/GPUReconstructionIncludesDevice_8h.html" target="_top" xlink:title="/home/runner/work/AliceO2\l/AliceO2/GPU/GPUTracking\l/Base/GPUReconstructionIncludesDevice.h">
<polygon fill="none" stroke="#000000" points="821,-78.5 821,-119.5 1030,-119.5 1030,-78.5 821,-78.5"/>
<text text-anchor="start" x="829" y="-107.5" font-family="Helvetica,sans-Serif" font-size="10.00" fill="#000000">/home/runner/work/AliceO2</text>
<text text-anchor="start" x="829" y="-96.5" font-family="Helvetica,sans-Serif" font-size="10.00" fill="#000000">/AliceO2/GPU/GPUTracking</text>
<text text-anchor="middle" x="925.5" y="-85.5" font-family="Helvetica,sans-Serif" font-size="10.00" fill="#000000">/Base/GPUReconstructionIncludesDevice.h</text>
</a>
</g>
</g>
<!-- Node44&#45;&gt;Node45 -->
<g id="edge4" class="edge">
<title>Node44&#45;&gt;Node45</title>
<path fill="none" stroke="#191970" d="M613.8585,-159.2224C618.1238,-158.0914 622.3588,-157.0085 626.5,-156 690.5515,-140.4012 763.1801,-126.4696 820.8164,-116.2845"/>
<polygon fill="#191970" stroke="#191970" points="612.6115,-155.9344 603.881,-161.9367 614.4491,-162.6889 612.6115,-155.9344"/>
</g>
<!-- Node46 -->
<g id="node6" class="node">
<title>Node46</title>
<g id="a_node6"><a xlink:href="../../d3/d33/GPUReconstructionHIP_8hip_8cxx.html" target="_top" xlink:title="/home/runner/work/AliceO2\l/AliceO2/GPU/GPUTracking\l/Base/hip/GPUReconstructionHIP.hip.cxx">
<polygon fill="none" stroke="#000000" points="825.5,-.5 825.5,-41.5 1025.5,-41.5 1025.5,-.5 825.5,-.5"/>
<text text-anchor="start" x="833.5" y="-29.5" font-family="Helvetica,sans-Serif" font-size="10.00" fill="#000000">/home/runner/work/AliceO2</text>
<text text-anchor="start" x="833.5" y="-18.5" font-family="Helvetica,sans-Serif" font-size="10.00" fill="#000000">/AliceO2/GPU/GPUTracking</text>
<text text-anchor="middle" x="925.5" y="-7.5" font-family="Helvetica,sans-Serif" font-size="10.00" fill="#000000">/Base/hip/GPUReconstructionHIP.hip.cxx</text>
</a>
</g>
</g>
<!-- Node45&#45;&gt;Node46 -->
<g id="edge5" class="edge">
<title>Node45&#45;&gt;Node46</title>
<path fill="none" stroke="#191970" d="M925.5,-68.0789C925.5,-59.2178 925.5,-49.7747 925.5,-41.6898"/>
<polygon fill="#191970" stroke="#191970" points="922.0001,-68.0974 925.5,-78.0974 929.0001,-68.0975 922.0001,-68.0974"/>
</g>
<!-- Node48&#45;&gt;Node45 -->
<g id="edge8" class="edge">
<title>Node48&#45;&gt;Node45</title>
<path fill="none" stroke="#191970" d="M925.5,-151.6593C925.5,-141.0064 925.5,-129.3344 925.5,-119.6924"/>
<polygon fill="#191970" stroke="#191970" points="922.0001,-151.8595 925.5,-161.8595 929.0001,-151.8596 922.0001,-151.8595"/>
</g>
<!-- Node49&#45;&gt;Node45 -->
<g id="edge10" class="edge">
<title>Node49&#45;&gt;Node45</title>
<path fill="none" stroke="#191970" d="M1064.5378,-157.9323C1035.7865,-145.7458 1001.4535,-131.1935 974.0984,-119.5988"/>
<polygon fill="#191970" stroke="#191970" points="1063.4831,-161.2866 1074.0561,-161.9667 1066.2149,-154.8416 1063.4831,-161.2866"/>
</g>
</g>
</svg>
        <g id="navigator" transform="translate(0 0)" fill="#404254">
                <rect fill="#f2f5e9" fill-opacity="0.5" stroke="#606060" stroke-width=".5" x="0" y="0" width="60" height="60"/>
                <use id="zoomplus" xlink:href="#zoomPlus" x="17" y="9" onmousedown="handleZoom(evt,'in')"/>
                <use id="zoomminus" xlink:href="#zoomMin" x="42" y="9" onmousedown="handleZoom(evt,'out')"/>
                <use id="reset" xlink:href="#resetDef" x="30" y="36" onmousedown="handleReset()"/>
                <g id="arrowUp" xlink:href="#dirArrow" transform="translate(30 24)" onmousedown="handlePan(0,-1)">
                  <use xlink:href="#rim" fill="#404040">
                        <set attributeName="fill" to="#808080" begin="arrowUp.mouseover" end="arrowUp.mouseout"/>
                  </use>
                  <path fill="none" stroke="white" stroke-width="1.5" d="M0,-3.0v7 M-2.5,-0.5L0,-3.0L2.5,-0.5"/>
                </g>
                <g id="arrowRight" xlink:href="#dirArrow" transform="rotate(90) translate(36 -43)" onmousedown="handlePan(1,0)">
                  <use xlink:href="#rim" fill="#404040">
                        <set attributeName="fill" to="#808080" begin="arrowRight.mouseover" end="arrowRight.mouseout"/>
                  </use>
                  <path fill="none" stroke="white" stroke-width="1.5" d="M0,-3.0v7 M-2.5,-0.5L0,-3.0L2.5,-0.5"/>
                </g>
                <g id="arrowDown" xlink:href="#dirArrow" transform="rotate(180) translate(-30 -48)" onmousedown="handlePan(0,1)">
                  <use xlink:href="#rim" fill="#404040">
                        <set attributeName="fill" to="#808080" begin="arrowDown.mouseover" end="arrowDown.mouseout"/>
                  </use>
                  <path fill="none" stroke="white" stroke-width="1.5" d="M0,-3.0v7 M-2.5,-0.5L0,-3.0L2.5,-0.5"/>
                </g>
                <g id="arrowLeft" xlink:href="#dirArrow" transform="rotate(270) translate(-36 17)" onmousedown="handlePan(-1,0)">
                  <use xlink:href="#rim" fill="#404040">
                        <set attributeName="fill" to="#808080" begin="arrowLeft.mouseover" end="arrowLeft.mouseout"/>
                  </use>
                  <path fill="none" stroke="white" stroke-width="1.5" d="M0,-3.0v7 M-2.5,-0.5L0,-3.0L2.5,-0.5"/>
                </g>
        </g>
        <svg viewBox="0 0 15 15" width="100%" height="30px" preserveAspectRatio="xMaxYMin meet">
         <g id="arrow_out" transform="scale(0.3 0.3)">
          <a xlink:href="GPUTPCGMMerger_8h__dep__incl_org.svg" target="_base">
           <rect id="button" ry="5" rx="5" y="6" x="6" height="38" width="38"
                fill="#f2f5e9" fill-opacity="0.5" stroke="#606060" stroke-width="1.0"/>
           <path id="arrow"
             d="M 11.500037,31.436501 C 11.940474,20.09759 22.043105,11.32322 32.158766,21.979434 L 37.068811,17.246167 C 37.068811,17.246167 37.088388,32 37.088388,32 L 22.160133,31.978069 C 22.160133,31.978069 26.997745,27.140456 26.997745,27.140456 C 18.528582,18.264221 13.291696,25.230495 11.500037,31.436501 z"
             style="fill:#404040;"/>
          </a>
         </g>
        </svg>
</svg>
