<?xml version="1.0" encoding="UTF-8" standalone="no"?>
<!DOCTYPE svg PUBLIC "-//W3C//DTD SVG 1.1//EN"
 "http://www.w3.org/Graphics/SVG/1.1/DTD/svg11.dtd">
<!-- Generated by graphviz version 2.40.1 (20161225.0304)
 -->
<!-- Title: /home/runner/work/AliceO2/AliceO2/Common/SimConfig/src/SimConfig.cxx Pages: 1 -->
<!--zoomable 397 -->
<svg id="main" version="1.1" xmlns="http://www.w3.org/2000/svg" xmlns:xlink="http://www.w3.org/1999/xlink" xml:space="preserve" onload="init(evt)">
<style type="text/css"><![CDATA[
.edge:hover path { stroke: red; }
.edge:hover polygon { stroke: red; fill: red; }
]]></style>
<script type="text/javascript"><![CDATA[
var edges = document.getElementsByTagName('g');
if (edges && edges.length) {
  for (var i=0;i<edges.length;i++) {
    if (edges[i].id.substr(0,4)=='edge') {
      edges[i].setAttribute('class','edge');
    }
  }
}
]]></script>
        <defs>
                <circle id="rim" cx="0" cy="0" r="7"/>
                <circle id="rim2" cx="0" cy="0" r="3.5"/>
                <g id="zoomPlus">
                        <use xlink:href="#rim" fill="#404040">
                                <set attributeName="fill" to="#808080" begin="zoomplus.mouseover" end="zoomplus.mouseout"/>
                        </use>
                        <path d="M-4,0h8M0,-4v8" fill="none" stroke="white" stroke-width="1.5" pointer-events="none"/>
                </g>
                <g id="zoomMin">
                        <use xlink:href="#rim" fill="#404040">
                                <set attributeName="fill" to="#808080" begin="zoomminus.mouseover" end="zoomminus.mouseout"/>
                        </use>
                        <path d="M-4,0h8" fill="none" stroke="white" stroke-width="1.5" pointer-events="none"/>
                </g>
                <g id="dirArrow">
                        <path fill="none" stroke="white" stroke-width="1.5" d="M0,-3.0v7 M-2.5,-0.5L0,-3.0L2.5,-0.5"/>
                </g>
               <g id="resetDef">
                       <use xlink:href="#rim2" fill="#404040">
                               <set attributeName="fill" to="#808080" begin="reset.mouseover" end="reset.mouseout"/>
                       </use>
               </g>
        </defs>

<script type="text/javascript">
var viewWidth = 1524;
var viewHeight = 397;
var sectionId = 'dynsection-0';
</script>
<script xlink:href="../../svgpan.js"/>
<svg id="graph" class="graph">
<g id="viewport">
<title>/home/runner/work/AliceO2/AliceO2/Common/SimConfig/src/SimConfig.cxx</title>
<!-- Node0 -->
<g id="node1" class="node">
<title>Node0</title>
<polygon fill="#bfbfbf" stroke="#000000" points="1208.5,-347.5 1208.5,-388.5 1354.5,-388.5 1354.5,-347.5 1208.5,-347.5"/>
<text text-anchor="start" x="1216.5" y="-376.5" font-family="Helvetica,sans-Serif" font-size="10.00" fill="#000000">/home/runner/work/AliceO2</text>
<text text-anchor="start" x="1216.5" y="-365.5" font-family="Helvetica,sans-Serif" font-size="10.00" fill="#000000">/AliceO2/Common/SimConfig</text>
<text text-anchor="middle" x="1281.5" y="-354.5" font-family="Helvetica,sans-Serif" font-size="10.00" fill="#000000">/src/SimConfig.cxx</text>
</g>
<!-- Node1 -->
<g id="node2" class="node">
<title>Node1</title>
<g id="a_node2"><a xlink:href="../../d4/dee/SimConfig_8h.html" target="_top" xlink:title="SimConfig/SimConfig.h">
<polygon fill="none" stroke="#000000" points="1096,-286 1096,-305 1215,-305 1215,-286 1096,-286"/>
<text text-anchor="middle" x="1155.5" y="-293" font-family="Helvetica,sans-Serif" font-size="10.00" fill="#000000">SimConfig/SimConfig.h</text>
</a>
</g>
</g>
<!-- Node0&#45;&gt;Node1 -->
<g id="edge1" class="edge">
<title>Node0&#45;&gt;Node1</title>
<path fill="none" stroke="#191970" d="M1245.7305,-347.4183C1225.0666,-335.5284 1199.563,-320.8537 1180.9475,-310.1424"/>
<polygon fill="#191970" stroke="#191970" points="1182.5718,-307.039 1172.1587,-305.0853 1179.0807,-313.1064 1182.5718,-307.039"/>
</g>
<!-- Node3 -->
<g id="node4" class="node">
<title>Node3</title>
<polygon fill="none" stroke="#bfbfbf" points="1116.5,-224.5 1116.5,-243.5 1250.5,-243.5 1250.5,-224.5 1116.5,-224.5"/>
<text text-anchor="middle" x="1183.5" y="-231.5" font-family="Helvetica,sans-Serif" font-size="10.00" fill="#000000">boost/program_options.hpp</text>
</g>
<!-- Node0&#45;&gt;Node3 -->
<g id="edge41" class="edge">
<title>Node0&#45;&gt;Node3</title>
<path fill="none" stroke="#191970" d="M1268.886,-347.1987C1257.6094,-329.0234 1240.3149,-302.1538 1223.5,-280 1215.9359,-270.0342 1206.8278,-259.4631 1199.2148,-250.9709"/>
<polygon fill="#191970" stroke="#191970" points="1201.7891,-248.5995 1192.473,-243.5536 1196.6091,-253.3078 1201.7891,-248.5995"/>
</g>
<!-- Node4 -->
<g id="node5" class="node">
<title>Node4</title>
<g id="a_node5"><a xlink:href="../../d6/d31/DetID_8h.html" target="_top" xlink:title="DetectorsCommonDataFormats\l/DetID.h">
<polygon fill="none" stroke="#000000" points="567.5,-280.5 567.5,-310.5 723.5,-310.5 723.5,-280.5 567.5,-280.5"/>
<text text-anchor="start" x="575.5" y="-298.5" font-family="Helvetica,sans-Serif" font-size="10.00" fill="#000000">DetectorsCommonDataFormats</text>
<text text-anchor="middle" x="645.5" y="-287.5" font-family="Helvetica,sans-Serif" font-size="10.00" fill="#000000">/DetID.h</text>
</a>
</g>
</g>
<!-- Node0&#45;&gt;Node4 -->
<g id="edge4" class="edge">
<title>Node0&#45;&gt;Node4</title>
<path fill="none" stroke="#191970" d="M1208.2323,-359.6479C1090.6442,-346.2436 860.2073,-319.9753 733.7495,-305.5599"/>
<polygon fill="#191970" stroke="#191970" points="734.0408,-302.0705 723.7087,-304.4153 733.2479,-309.0255 734.0408,-302.0705"/>
</g>
<!-- Node17 -->
<g id="node18" class="node">
<title>Node17</title>
<polygon fill="none" stroke="#bfbfbf" points="1132.5,-56.5 1132.5,-75.5 1176.5,-75.5 1176.5,-56.5 1132.5,-56.5"/>
<text text-anchor="middle" x="1154.5" y="-63.5" font-family="Helvetica,sans-Serif" font-size="10.00" fill="#000000">cmath</text>
</g>
<!-- Node0&#45;&gt;Node17 -->
<g id="edge45" class="edge">
<title>Node0&#45;&gt;Node17</title>
<path fill="none" stroke="#191970" d="M1281.5,-347.1105C1281.5,-320.7489 1281.5,-274.0139 1281.5,-234 1281.5,-234 1281.5,-234 1281.5,-178 1281.5,-127.2659 1223.7841,-94.0359 1186.1688,-77.7661"/>
<polygon fill="#191970" stroke="#191970" points="1187.1999,-74.4049 1176.6217,-73.8104 1184.5203,-80.8717 1187.1999,-74.4049"/>
</g>
<!-- Node31 -->
<g id="node32" class="node">
<title>Node31</title>
<polygon fill="none" stroke="#bfbfbf" points="1309.5,-286 1309.5,-305 1363.5,-305 1363.5,-286 1309.5,-286"/>
<text text-anchor="middle" x="1336.5" y="-293" font-family="Helvetica,sans-Serif" font-size="10.00" fill="#000000">iostream</text>
</g>
<!-- Node0&#45;&gt;Node31 -->
<g id="edge42" class="edge">
<title>Node0&#45;&gt;Node31</title>
<path fill="none" stroke="#191970" d="M1297.1137,-347.4183C1305.2687,-336.6685 1315.1506,-323.6424 1322.976,-313.3271"/>
<polygon fill="#191970" stroke="#191970" points="1325.9729,-315.1676 1329.2284,-305.0853 1320.396,-310.9369 1325.9729,-315.1676"/>
</g>
<!-- Node32 -->
<g id="node33" class="node">
<title>Node32</title>
<polygon fill="none" stroke="#bfbfbf" points="1382,-286 1382,-305 1453,-305 1453,-286 1382,-286"/>
<text text-anchor="middle" x="1417.5" y="-293" font-family="Helvetica,sans-Serif" font-size="10.00" fill="#000000">FairLogger.h</text>
</g>
<!-- Node0&#45;&gt;Node32 -->
<g id="edge43" class="edge">
<title>Node0&#45;&gt;Node32</title>
<path fill="none" stroke="#191970" d="M1320.1084,-347.4183C1342.6159,-335.4198 1370.4432,-320.5854 1390.5815,-309.85"/>
<polygon fill="#191970" stroke="#191970" points="1392.3413,-312.8782 1399.5192,-305.0853 1389.0483,-306.701 1392.3413,-312.8782"/>
</g>
<!-- Node33 -->
<g id="node34" class="node">
<title>Node33</title>
<polygon fill="none" stroke="#bfbfbf" points="1471.5,-286 1471.5,-305 1515.5,-305 1515.5,-286 1471.5,-286"/>
<text text-anchor="middle" x="1493.5" y="-293" font-family="Helvetica,sans-Serif" font-size="10.00" fill="#000000">thread</text>
</g>
<!-- Node0&#45;&gt;Node33 -->
<g id="edge44" class="edge">
<title>Node0&#45;&gt;Node33</title>
<path fill="none" stroke="#191970" d="M1354.6512,-347.8419C1387.9821,-337.9265 1427.6831,-325.0829 1462.5,-311 1463.8597,-310.45 1465.2415,-309.8643 1466.6288,-309.2545"/>
<polygon fill="#191970" stroke="#191970" points="1468.121,-312.4206 1475.6904,-305.0075 1465.1503,-306.0822 1468.121,-312.4206"/>
</g>
<!-- Node2 -->
<g id="node3" class="node">
<title>Node2</title>
<polygon fill="none" stroke="#bfbfbf" points="1036.5,-224.5 1036.5,-243.5 1092.5,-243.5 1092.5,-224.5 1036.5,-224.5"/>
<text text-anchor="middle" x="1064.5" y="-231.5" font-family="Helvetica,sans-Serif" font-size="10.00" fill="#000000">Rtypes.h</text>
</g>
<!-- Node1&#45;&gt;Node2 -->
<g id="edge2" class="edge">
<title>Node1&#45;&gt;Node2</title>
<path fill="none" stroke="#191970" d="M1141.2813,-285.8906C1126.8566,-276.1421 1104.3024,-260.8994 1087.364,-249.4521"/>
<polygon fill="#191970" stroke="#191970" points="1088.8641,-246.2415 1078.6189,-243.5419 1084.9444,-252.0412 1088.8641,-246.2415"/>
</g>
<!-- Node1&#45;&gt;Node3 -->
<g id="edge3" class="edge">
<title>Node1&#45;&gt;Node3</title>
<path fill="none" stroke="#191970" d="M1159.875,-285.8906C1163.8788,-277.0965 1169.9183,-263.8312 1174.8885,-252.9145"/>
<polygon fill="#191970" stroke="#191970" points="1178.1051,-254.2963 1179.0633,-243.7449 1171.7343,-251.3957 1178.1051,-254.2963"/>
</g>
<!-- Node4&#45;&gt;Node2 -->
<g id="edge5" class="edge">
<title>Node4&#45;&gt;Node2</title>
<path fill="none" stroke="#191970" d="M723.5473,-286.2201C798.788,-276.9075 915.7475,-261.4675 1016.5,-244 1019.7291,-243.4402 1023.0725,-242.8226 1026.4229,-242.1772"/>
<polygon fill="#191970" stroke="#191970" points="1027.2662,-245.578 1036.3875,-240.1879 1025.8958,-238.7134 1027.2662,-245.578"/>
</g>
<!-- Node5 -->
<g id="node6" class="node">
<title>Node5</title>
<polygon fill="none" stroke="#bfbfbf" points="726.5,-112.5 726.5,-131.5 764.5,-131.5 764.5,-112.5 726.5,-112.5"/>
<text text-anchor="middle" x="745.5" y="-119.5" font-family="Helvetica,sans-Serif" font-size="10.00" fill="#000000">array</text>
</g>
<!-- Node4&#45;&gt;Node5 -->
<g id="edge6" class="edge">
<title>Node4&#45;&gt;Node5</title>
<path fill="none" stroke="#191970" d="M720.9924,-280.4788C771.6947,-266.0425 834.8196,-238.6397 866.5,-188 871.2144,-180.4643 871.5465,-175.3174 866.5,-168 865.1137,-165.9899 809.814,-145.498 774.4613,-132.5518"/>
<polygon fill="#191970" stroke="#191970" points="775.24,-129.11 764.6462,-128.9636 772.8364,-135.6844 775.24,-129.11"/>
</g>
<!-- Node6 -->
<g id="node7" class="node">
<title>Node6</title>
<polygon fill="none" stroke="#bfbfbf" points="471,-224.5 471,-243.5 512,-243.5 512,-224.5 471,-224.5"/>
<text text-anchor="middle" x="491.5" y="-231.5" font-family="Helvetica,sans-Serif" font-size="10.00" fill="#000000">bitset</text>
</g>
<!-- Node4&#45;&gt;Node6 -->
<g id="edge7" class="edge">
<title>Node4&#45;&gt;Node6</title>
<path fill="none" stroke="#191970" d="M607.8274,-280.4554C581.3745,-269.8914 546.4567,-255.947 521.8024,-246.1013"/>
<polygon fill="#191970" stroke="#191970" points="522.8303,-242.743 512.2454,-242.2847 520.2342,-249.2438 522.8303,-242.743"/>
</g>
<!-- Node7 -->
<g id="node8" class="node">
<title>Node7</title>
<polygon fill="none" stroke="#bfbfbf" points="0,-168.5 0,-187.5 49,-187.5 49,-168.5 0,-168.5"/>
<text text-anchor="middle" x="24.5" y="-175.5" font-family="Helvetica,sans-Serif" font-size="10.00" fill="#000000">cassert</text>
</g>
<!-- Node4&#45;&gt;Node7 -->
<g id="edge8" class="edge">
<title>Node4&#45;&gt;Node7</title>
<path fill="none" stroke="#191970" d="M567.1762,-289.6447C484.7216,-282.5385 351.46,-268.3733 238.5,-244 173.7609,-230.0313 100.4258,-205.4299 58.5984,-190.5307"/>
<polygon fill="#191970" stroke="#191970" points="59.7613,-187.2295 49.1668,-187.1449 57.3962,-193.8179 59.7613,-187.2295"/>
</g>
<!-- Node8 -->
<g id="node9" class="node">
<title>Node8</title>
<polygon fill="none" stroke="#bfbfbf" points="662.5,-112.5 662.5,-131.5 708.5,-131.5 708.5,-112.5 662.5,-112.5"/>
<text text-anchor="middle" x="685.5" y="-119.5" font-family="Helvetica,sans-Serif" font-size="10.00" fill="#000000">cstdint</text>
</g>
<!-- Node4&#45;&gt;Node8 -->
<g id="edge9" class="edge">
<title>Node4&#45;&gt;Node8</title>
<path fill="none" stroke="#191970" d="M661.5635,-280.4715C670.488,-270.9853 680.7284,-257.9224 685.5,-244 697.3506,-209.4231 693.2242,-166.0244 689.2759,-141.4097"/>
<polygon fill="#191970" stroke="#191970" points="692.7157,-140.7616 687.5324,-131.5213 685.8221,-141.9771 692.7157,-140.7616"/>
</g>
<!-- Node9 -->
<g id="node10" class="node">
<title>Node9</title>
<polygon fill="none" stroke="#bfbfbf" points="530.5,-224.5 530.5,-243.5 596.5,-243.5 596.5,-224.5 530.5,-224.5"/>
<text text-anchor="middle" x="563.5" y="-231.5" font-family="Helvetica,sans-Serif" font-size="10.00" fill="#000000">string_view</text>
</g>
<!-- Node4&#45;&gt;Node9 -->
<g id="edge10" class="edge">
<title>Node4&#45;&gt;Node9</title>
<path fill="none" stroke="#191970" d="M625.2303,-280.2977C612.8994,-271.0495 597.1734,-259.2551 584.6803,-249.8853"/>
<polygon fill="#191970" stroke="#191970" points="586.7293,-247.047 576.6292,-243.8469 582.5292,-252.647 586.7293,-247.047"/>
</g>
<!-- Node10 -->
<g id="node11" class="node">
<title>Node10</title>
<polygon fill="none" stroke="#bfbfbf" points="67,-168.5 67,-187.5 108,-187.5 108,-168.5 67,-168.5"/>
<text text-anchor="middle" x="87.5" y="-175.5" font-family="Helvetica,sans-Serif" font-size="10.00" fill="#000000">string</text>
</g>
<!-- Node4&#45;&gt;Node10 -->
<g id="edge11" class="edge">
<title>Node4&#45;&gt;Node10</title>
<path fill="none" stroke="#191970" d="M567.4099,-285.1559C502.5723,-276.0265 408.0979,-261.4711 326.5,-244 235.588,-224.5347 211.1979,-216.2199 117.9604,-188.0254"/>
<polygon fill="#191970" stroke="#191970" points="118.6899,-184.5896 108.1051,-185.0489 116.6661,-191.2907 118.6899,-184.5896"/>
</g>
<!-- Node11 -->
<g id="node12" class="node">
<title>Node11</title>
<polygon fill="none" stroke="#bfbfbf" points="614.5,-224.5 614.5,-243.5 676.5,-243.5 676.5,-224.5 614.5,-224.5"/>
<text text-anchor="middle" x="645.5" y="-231.5" font-family="Helvetica,sans-Serif" font-size="10.00" fill="#000000">type_traits</text>
</g>
<!-- Node4&#45;&gt;Node11 -->
<g id="edge12" class="edge">
<title>Node4&#45;&gt;Node11</title>
<path fill="none" stroke="#191970" d="M645.5,-280.2977C645.5,-272.3834 645.5,-262.6043 645.5,-254.0759"/>
<polygon fill="#191970" stroke="#191970" points="649.0001,-253.8469 645.5,-243.8469 642.0001,-253.847 649.0001,-253.8469"/>
</g>
<!-- Node12 -->
<g id="node13" class="node">
<title>Node12</title>
<g id="a_node13"><a xlink:href="../../d9/d52/Common_2MathUtils_2include_2MathUtils_2Utils_8h.html" target="_top" xlink:title="MathUtils/Utils.h">
<polygon fill="none" stroke="#000000" points="917.5,-224.5 917.5,-243.5 1007.5,-243.5 1007.5,-224.5 917.5,-224.5"/>
<text text-anchor="middle" x="962.5" y="-231.5" font-family="Helvetica,sans-Serif" font-size="10.00" fill="#000000">MathUtils/Utils.h</text>
</a>
</g>
</g>
<!-- Node4&#45;&gt;Node12 -->
<g id="edge13" class="edge">
<title>Node4&#45;&gt;Node12</title>
<path fill="none" stroke="#191970" d="M723.0469,-280.4554C780.0977,-269.3872 856.276,-254.6081 907.2428,-244.7202"/>
<polygon fill="#191970" stroke="#191970" points="907.9366,-248.151 917.0869,-242.8104 906.6033,-241.2791 907.9366,-248.151"/>
</g>
<!-- Node24 -->
<g id="node25" class="node">
<title>Node24</title>
<g id="a_node25"><a xlink:href="../../dc/dcd/DataHeader_8h.html" target="_top" xlink:title="Headers/DataHeader.h">
<polygon fill="none" stroke="#000000" points="336,-224.5 336,-243.5 453,-243.5 453,-224.5 336,-224.5"/>
<text text-anchor="middle" x="394.5" y="-231.5" font-family="Helvetica,sans-Serif" font-size="10.00" fill="#000000">Headers/DataHeader.h</text>
</a>
</g>
</g>
<!-- Node4&#45;&gt;Node24 -->
<g id="edge30" class="edge">
<title>Node4&#45;&gt;Node24</title>
<path fill="none" stroke="#191970" d="M584.0985,-280.4554C540.749,-269.8339 483.4523,-255.7951 443.2342,-245.9408"/>
<polygon fill="#191970" stroke="#191970" points="443.9418,-242.5108 433.3961,-243.5303 442.2758,-249.3096 443.9418,-242.5108"/>
</g>
<!-- Node13 -->
<g id="node14" class="node">
<title>Node13</title>
<g id="a_node14"><a xlink:href="../../de/def/bitOps_8h.html" target="_top" xlink:title="MathUtils/detail/bitOps.h">
<polygon fill="none" stroke="#000000" points="733,-168.5 733,-187.5 858,-187.5 858,-168.5 733,-168.5"/>
<text text-anchor="middle" x="795.5" y="-175.5" font-family="Helvetica,sans-Serif" font-size="10.00" fill="#000000">MathUtils/detail/bitOps.h</text>
</a>
</g>
</g>
<!-- Node12&#45;&gt;Node13 -->
<g id="edge14" class="edge">
<title>Node12&#45;&gt;Node13</title>
<path fill="none" stroke="#191970" d="M933.7917,-224.3733C906.1423,-215.1016 864.1424,-201.0178 833.6834,-190.804"/>
<polygon fill="#191970" stroke="#191970" points="834.4276,-187.3621 823.8337,-187.5011 832.2021,-193.9989 834.4276,-187.3621"/>
</g>
<!-- Node14 -->
<g id="node15" class="node">
<title>Node14</title>
<g id="a_node15"><a xlink:href="../../d3/dfc/StatAccumulator_8h.html" target="_top" xlink:title="MathUtils/detail/StatAccumulator.h">
<polygon fill="none" stroke="#000000" points="1085,-168.5 1085,-187.5 1254,-187.5 1254,-168.5 1085,-168.5"/>
<text text-anchor="middle" x="1169.5" y="-175.5" font-family="Helvetica,sans-Serif" font-size="10.00" fill="#000000">MathUtils/detail/StatAccumulator.h</text>
</a>
</g>
</g>
<!-- Node12&#45;&gt;Node14 -->
<g id="edge16" class="edge">
<title>Node12&#45;&gt;Node14</title>
<path fill="none" stroke="#191970" d="M998.0846,-224.3733C1033.1016,-214.9001 1086.6881,-200.4032 1124.6125,-190.1435"/>
<polygon fill="#191970" stroke="#191970" points="1125.6408,-193.4912 1134.3798,-187.5011 1123.8127,-186.7341 1125.6408,-193.4912"/>
</g>
<!-- Node16 -->
<g id="node17" class="node">
<title>Node16</title>
<g id="a_node17"><a xlink:href="../../dd/d7d/trigonometric_8h.html" target="_top" xlink:title="MathUtils/detail/trigonometric.h">
<polygon fill="none" stroke="#000000" points="914.5,-168.5 914.5,-187.5 1066.5,-187.5 1066.5,-168.5 914.5,-168.5"/>
<text text-anchor="middle" x="990.5" y="-175.5" font-family="Helvetica,sans-Serif" font-size="10.00" fill="#000000">MathUtils/detail/trigonometric.h</text>
</a>
</g>
</g>
<!-- Node12&#45;&gt;Node16 -->
<g id="edge18" class="edge">
<title>Node12&#45;&gt;Node16</title>
<path fill="none" stroke="#191970" d="M967.3772,-224.2455C971.1513,-216.6973 976.4921,-206.0158 981.0901,-196.8197"/>
<polygon fill="#191970" stroke="#191970" points="984.337,-198.1522 985.6787,-187.6427 978.076,-195.0217 984.337,-198.1522"/>
</g>
<!-- Node13&#45;&gt;Node8 -->
<g id="edge15" class="edge">
<title>Node13&#45;&gt;Node8</title>
<path fill="none" stroke="#191970" d="M776.3395,-168.2455C758.9889,-159.4125 733.2099,-146.2887 713.5417,-136.2758"/>
<polygon fill="#191970" stroke="#191970" points="714.9405,-133.0605 704.441,-131.6427 711.7647,-139.2986 714.9405,-133.0605"/>
</g>
<!-- Node15 -->
<g id="node16" class="node">
<title>Node15</title>
<polygon fill="none" stroke="#bfbfbf" points="1182.5,-112.5 1182.5,-131.5 1220.5,-131.5 1220.5,-112.5 1182.5,-112.5"/>
<text text-anchor="middle" x="1201.5" y="-119.5" font-family="Helvetica,sans-Serif" font-size="10.00" fill="#000000">tuple</text>
</g>
<!-- Node14&#45;&gt;Node15 -->
<g id="edge17" class="edge">
<title>Node14&#45;&gt;Node15</title>
<path fill="none" stroke="#191970" d="M1175.074,-168.2455C1179.4331,-160.617 1185.6211,-149.7881 1190.9133,-140.5267"/>
<polygon fill="#191970" stroke="#191970" points="1194.0673,-142.0616 1195.9899,-131.6427 1187.9896,-138.5886 1194.0673,-142.0616"/>
</g>
<!-- Node16&#45;&gt;Node5 -->
<g id="edge19" class="edge">
<title>Node16&#45;&gt;Node5</title>
<path fill="none" stroke="#191970" d="M935.6047,-168.4724C893.6775,-160.7174 834.3649,-148.7204 774.3119,-131.9597"/>
<polygon fill="#191970" stroke="#191970" points="775.2453,-128.5865 764.6699,-129.2288 773.3376,-135.3215 775.2453,-128.5865"/>
</g>
<!-- Node16&#45;&gt;Node15 -->
<g id="edge21" class="edge">
<title>Node16&#45;&gt;Node15</title>
<path fill="none" stroke="#191970" d="M1029.1653,-168.4977C1065.3047,-159.5004 1120.7131,-145.409 1168.5,-132 1169.7644,-131.6452 1171.0545,-131.2778 1172.3565,-130.9025"/>
<polygon fill="#191970" stroke="#191970" points="1173.7462,-134.1415 1182.3444,-127.951 1171.7624,-127.4285 1173.7462,-134.1415"/>
</g>
<!-- Node16&#45;&gt;Node17 -->
<g id="edge20" class="edge">
<title>Node16&#45;&gt;Node17</title>
<path fill="none" stroke="#191970" d="M1036.2828,-168.4288C1073.325,-159.8135 1121.5454,-146.3351 1135.5,-132 1147.4299,-119.7448 1151.956,-100.5028 1153.6297,-85.9509"/>
<polygon fill="#191970" stroke="#191970" points="1157.1226,-86.1773 1154.429,-75.9306 1150.1448,-85.6206 1157.1226,-86.1773"/>
</g>
<!-- Node18 -->
<g id="node19" class="node">
<title>Node18</title>
<g id="a_node19"><a xlink:href="../../df/d21/GPUCommonDef_8h.html" target="_top" xlink:title="GPUCommonDef.h">
<polygon fill="none" stroke="#000000" points="975.5,-56.5 975.5,-75.5 1077.5,-75.5 1077.5,-56.5 975.5,-56.5"/>
<text text-anchor="middle" x="1026.5" y="-63.5" font-family="Helvetica,sans-Serif" font-size="10.00" fill="#000000">GPUCommonDef.h</text>
</a>
</g>
</g>
<!-- Node16&#45;&gt;Node18 -->
<g id="edge22" class="edge">
<title>Node16&#45;&gt;Node18</title>
<path fill="none" stroke="#191970" d="M993.1078,-168.0908C996.5775,-155.1187 1003.0298,-131.7125 1009.5,-112 1012.4124,-103.1269 1015.95,-93.4126 1019.0423,-85.2069"/>
<polygon fill="#191970" stroke="#191970" points="1022.3381,-86.3873 1022.6407,-75.7968 1015.7998,-83.8871 1022.3381,-86.3873"/>
</g>
<!-- Node21 -->
<g id="node22" class="node">
<title>Node21</title>
<g id="a_node22"><a xlink:href="../../d6/da2/GPUCommonMath_8h.html" target="_top" xlink:title="GPUCommonMath.h">
<polygon fill="none" stroke="#000000" points="1018.5,-112.5 1018.5,-131.5 1126.5,-131.5 1126.5,-112.5 1018.5,-112.5"/>
<text text-anchor="middle" x="1072.5" y="-119.5" font-family="Helvetica,sans-Serif" font-size="10.00" fill="#000000">GPUCommonMath.h</text>
</a>
</g>
</g>
<!-- Node16&#45;&gt;Node21 -->
<g id="edge25" class="edge">
<title>Node16&#45;&gt;Node21</title>
<path fill="none" stroke="#191970" d="M1004.7833,-168.2455C1017.247,-159.7337 1035.5451,-147.2375 1049.9792,-137.3801"/>
<polygon fill="#191970" stroke="#191970" points="1052.0962,-140.1726 1058.3804,-131.6427 1048.1485,-134.392 1052.0962,-140.1726"/>
</g>
<!-- Node23 -->
<g id="node24" class="node">
<title>Node23</title>
<g id="a_node24"><a xlink:href="../../d6/d84/MathConstants_8h.html" target="_top" xlink:title="useful math constants ">
<polygon fill="none" stroke="#000000" points="783,-112.5 783,-131.5 962,-131.5 962,-112.5 783,-112.5"/>
<text text-anchor="middle" x="872.5" y="-119.5" font-family="Helvetica,sans-Serif" font-size="10.00" fill="#000000">CommonConstants/MathConstants.h</text>
</a>
</g>
</g>
<!-- Node16&#45;&gt;Node23 -->
<g id="edge29" class="edge">
<title>Node16&#45;&gt;Node23</title>
<path fill="none" stroke="#191970" d="M970.2151,-168.3733C951.3579,-159.4241 923.054,-145.9917 901.7545,-135.8835"/>
<polygon fill="#191970" stroke="#191970" points="903.0551,-132.6266 892.5202,-131.5011 900.0539,-138.9506 903.0551,-132.6266"/>
</g>
<!-- Node19 -->
<g id="node20" class="node">
<title>Node19</title>
<g id="a_node20"><a xlink:href="../../d5/d93/GPUCommonDefSettings_8h.html" target="_top" xlink:title="GPUCommonDefSettings.h">
<polygon fill="none" stroke="#000000" points="884.5,-.5 884.5,-19.5 1022.5,-19.5 1022.5,-.5 884.5,-.5"/>
<text text-anchor="middle" x="953.5" y="-7.5" font-family="Helvetica,sans-Serif" font-size="10.00" fill="#000000">GPUCommonDefSettings.h</text>
</a>
</g>
</g>
<!-- Node18&#45;&gt;Node19 -->
<g id="edge23" class="edge">
<title>Node18&#45;&gt;Node19</title>
<path fill="none" stroke="#191970" d="M1013.7844,-56.2455C1002.898,-47.8943 987.0117,-35.7076 974.28,-25.9408"/>
<polygon fill="#191970" stroke="#191970" points="976.1346,-22.9523 966.0699,-19.6427 971.8739,-28.5063 976.1346,-22.9523"/>
</g>
<!-- Node20 -->
<g id="node21" class="node">
<title>Node20</title>
<g id="a_node21"><a xlink:href="../../da/d5a/GPUCommonDefAPI_8h.html" target="_top" xlink:title="GPUCommonDefAPI.h">
<polygon fill="none" stroke="#000000" points="1041,-.5 1041,-19.5 1160,-19.5 1160,-.5 1041,-.5"/>
<text text-anchor="middle" x="1100.5" y="-7.5" font-family="Helvetica,sans-Serif" font-size="10.00" fill="#000000">GPUCommonDefAPI.h</text>
</a>
</g>
</g>
<!-- Node18&#45;&gt;Node20 -->
<g id="edge24" class="edge">
<title>Node18&#45;&gt;Node20</title>
<path fill="none" stroke="#191970" d="M1039.3898,-56.2455C1050.4254,-47.8943 1066.5292,-35.7076 1079.4353,-25.9408"/>
<polygon fill="#191970" stroke="#191970" points="1081.8959,-28.4681 1087.7579,-19.6427 1077.6717,-22.8862 1081.8959,-28.4681"/>
</g>
<!-- Node21&#45;&gt;Node17 -->
<g id="edge27" class="edge">
<title>Node21&#45;&gt;Node17</title>
<path fill="none" stroke="#191970" d="M1086.7833,-112.2455C1099.247,-103.7337 1117.5451,-91.2375 1131.9792,-81.3801"/>
<polygon fill="#191970" stroke="#191970" points="1134.0962,-84.1726 1140.3804,-75.6427 1130.1485,-78.392 1134.0962,-84.1726"/>
</g>
<!-- Node21&#45;&gt;Node18 -->
<g id="edge26" class="edge">
<title>Node21&#45;&gt;Node18</title>
<path fill="none" stroke="#191970" d="M1064.4874,-112.2455C1058.0232,-104.3761 1048.7615,-93.101 1041.0017,-83.6542"/>
<polygon fill="#191970" stroke="#191970" points="1043.4727,-81.1484 1034.4208,-75.6427 1038.0636,-85.5916 1043.4727,-81.1484"/>
</g>
<!-- Node22 -->
<g id="node23" class="node">
<title>Node22</title>
<polygon fill="none" stroke="#bfbfbf" points="734.5,-56.5 734.5,-75.5 790.5,-75.5 790.5,-56.5 734.5,-56.5"/>
<text text-anchor="middle" x="762.5" y="-63.5" font-family="Helvetica,sans-Serif" font-size="10.00" fill="#000000">algorithm</text>
</g>
<!-- Node21&#45;&gt;Node22 -->
<g id="edge28" class="edge">
<title>Node21&#45;&gt;Node22</title>
<path fill="none" stroke="#191970" d="M1019.5613,-112.4369C957.3396,-101.1968 855.6177,-82.8213 800.6425,-72.8903"/>
<polygon fill="#191970" stroke="#191970" points="801.0818,-69.413 790.6189,-71.0795 799.8374,-76.3016 801.0818,-69.413"/>
</g>
<!-- Node24&#45;&gt;Node7 -->
<g id="edge33" class="edge">
<title>Node24&#45;&gt;Node7</title>
<path fill="none" stroke="#191970" d="M335.8638,-228.8428C270.3546,-222.4461 161.0829,-209.8822 59.1001,-188.0986"/>
<polygon fill="#191970" stroke="#191970" points="59.7701,-184.6626 49.2552,-185.9617 58.2852,-191.5033 59.7701,-184.6626"/>
</g>
<!-- Node24&#45;&gt;Node8 -->
<g id="edge31" class="edge">
<title>Node24&#45;&gt;Node8</title>
<path fill="none" stroke="#191970" d="M446.7409,-224.4652C482.8786,-216.9207 531.6258,-204.8378 572.5,-188 605.9178,-174.2338 641.4386,-152.0904 663.5442,-137.297"/>
<polygon fill="#191970" stroke="#191970" points="665.5677,-140.1538 671.8767,-131.6422 661.6368,-134.3616 665.5677,-140.1538"/>
</g>
<!-- Node24&#45;&gt;Node10 -->
<g id="edge37" class="edge">
<title>Node24&#45;&gt;Node10</title>
<path fill="none" stroke="#191970" d="M335.8604,-226.9855C281.6209,-219.8841 198.6921,-207.4744 117.8749,-187.7576"/>
<polygon fill="#191970" stroke="#191970" points="118.5801,-184.3266 108.0316,-185.3168 116.8953,-191.1208 118.5801,-184.3266"/>
</g>
<!-- Node24&#45;&gt;Node22 -->
<g id="edge35" class="edge">
<title>Node24&#45;&gt;Node22</title>
<path fill="none" stroke="#191970" d="M434.7266,-224.4967C464.4884,-216.6961 505.5732,-204.2883 539.5,-188 566.9475,-174.8225 626.6885,-126.4277 653.5,-112 677.0276,-99.3395 704.7876,-87.6686 726.4045,-79.2503"/>
<polygon fill="#191970" stroke="#191970" points="727.7846,-82.4697 735.867,-75.6195 725.2769,-75.9343 727.7846,-82.4697"/>
</g>
<!-- Node25 -->
<g id="node26" class="node">
<title>Node25</title>
<polygon fill="none" stroke="#bfbfbf" points="624.5,-168.5 624.5,-187.5 676.5,-187.5 676.5,-168.5 624.5,-168.5"/>
<text text-anchor="middle" x="650.5" y="-175.5" font-family="Helvetica,sans-Serif" font-size="10.00" fill="#000000">memory</text>
</g>
<!-- Node24&#45;&gt;Node25 -->
<g id="edge32" class="edge">
<title>Node24&#45;&gt;Node25</title>
<path fill="none" stroke="#191970" d="M441.7984,-224.4258C485.6305,-215.4352 552.6015,-201.3981 610.5,-188 611.7553,-187.7095 613.0318,-187.4104 614.3204,-187.1054"/>
<polygon fill="#191970" stroke="#191970" points="615.3857,-190.4487 624.2818,-184.6946 613.7391,-183.6451 615.3857,-190.4487"/>
</g>
<!-- Node26 -->
<g id="node27" class="node">
<title>Node26</title>
<polygon fill="none" stroke="#bfbfbf" points="126.5,-168.5 126.5,-187.5 172.5,-187.5 172.5,-168.5 126.5,-168.5"/>
<text text-anchor="middle" x="149.5" y="-175.5" font-family="Helvetica,sans-Serif" font-size="10.00" fill="#000000">cstring</text>
</g>
<!-- Node24&#45;&gt;Node26 -->
<g id="edge34" class="edge">
<title>Node24&#45;&gt;Node26</title>
<path fill="none" stroke="#191970" d="M344.274,-224.4827C303.1202,-216.3843 243.2028,-203.911 182.2832,-188.0366"/>
<polygon fill="#191970" stroke="#191970" points="183.0618,-184.6224 172.5001,-185.4598 181.2788,-191.3915 183.0618,-184.6224"/>
</g>
<!-- Node27 -->
<g id="node28" class="node">
<title>Node27</title>
<polygon fill="none" stroke="#bfbfbf" points="191,-168.5 191,-187.5 250,-187.5 250,-168.5 191,-168.5"/>
<text text-anchor="middle" x="220.5" y="-175.5" font-family="Helvetica,sans-Serif" font-size="10.00" fill="#000000">stdexcept</text>
</g>
<!-- Node24&#45;&gt;Node27 -->
<g id="edge36" class="edge">
<title>Node24&#45;&gt;Node27</title>
<path fill="none" stroke="#191970" d="M364.5883,-224.3733C335.6548,-215.0613 291.6389,-200.8953 259.8707,-190.671"/>
<polygon fill="#191970" stroke="#191970" points="260.6128,-187.2331 250.0213,-187.5011 258.4682,-193.8965 260.6128,-187.2331"/>
</g>
<!-- Node28 -->
<g id="node29" class="node">
<title>Node28</title>
<polygon fill="none" stroke="#bfbfbf" points="268,-168.5 268,-187.5 313,-187.5 313,-168.5 268,-168.5"/>
<text text-anchor="middle" x="290.5" y="-175.5" font-family="Helvetica,sans-Serif" font-size="10.00" fill="#000000">climits</text>
</g>
<!-- Node24&#45;&gt;Node28 -->
<g id="edge38" class="edge">
<title>Node24&#45;&gt;Node28</title>
<path fill="none" stroke="#191970" d="M376.3846,-224.2455C360.055,-215.4527 335.829,-202.4079 317.2661,-192.4125"/>
<polygon fill="#191970" stroke="#191970" points="318.8719,-189.3021 308.4078,-187.6427 315.5532,-195.4654 318.8719,-189.3021"/>
</g>
<!-- Node29 -->
<g id="node30" class="node">
<title>Node29</title>
<g id="a_node30"><a xlink:href="../../d7/df8/Types_8h.html" target="_top" xlink:title="MemoryResources/Types.h">
<polygon fill="none" stroke="#000000" points="331,-168.5 331,-187.5 468,-187.5 468,-168.5 331,-168.5"/>
<text text-anchor="middle" x="399.5" y="-175.5" font-family="Helvetica,sans-Serif" font-size="10.00" fill="#000000">MemoryResources/Types.h</text>
</a>
</g>
</g>
<!-- Node24&#45;&gt;Node29 -->
<g id="edge39" class="edge">
<title>Node24&#45;&gt;Node29</title>
<path fill="none" stroke="#191970" d="M395.3709,-224.2455C396.0234,-216.9382 396.938,-206.6944 397.7407,-197.7046"/>
<polygon fill="#191970" stroke="#191970" points="401.2358,-197.9143 398.639,-187.6427 394.2635,-197.2918 401.2358,-197.9143"/>
</g>
<!-- Node30 -->
<g id="node31" class="node">
<title>Node30</title>
<polygon fill="none" stroke="#bfbfbf" points="486.5,-168.5 486.5,-187.5 530.5,-187.5 530.5,-168.5 486.5,-168.5"/>
<text text-anchor="middle" x="508.5" y="-175.5" font-family="Helvetica,sans-Serif" font-size="10.00" fill="#000000">cerrno</text>
</g>
<!-- Node24&#45;&gt;Node30 -->
<g id="edge40" class="edge">
<title>Node24&#45;&gt;Node30</title>
<path fill="none" stroke="#191970" d="M414.0973,-224.3733C432.2331,-215.4644 459.4135,-202.1127 479.9587,-192.0203"/>
<polygon fill="#191970" stroke="#191970" points="481.7261,-195.0517 489.1584,-187.5011 478.6397,-188.7688 481.7261,-195.0517"/>
</g>
</g>
</svg>
        <g id="navigator" transform="translate(0 0)" fill="#404254">
                <rect fill="#f2f5e9" fill-opacity="0.5" stroke="#606060" stroke-width=".5" x="0" y="0" width="60" height="60"/>
                <use id="zoomplus" xlink:href="#zoomPlus" x="17" y="9" onmousedown="handleZoom(evt,'in')"/>
                <use id="zoomminus" xlink:href="#zoomMin" x="42" y="9" onmousedown="handleZoom(evt,'out')"/>
                <use id="reset" xlink:href="#resetDef" x="30" y="36" onmousedown="handleReset()"/>
                <g id="arrowUp" xlink:href="#dirArrow" transform="translate(30 24)" onmousedown="handlePan(0,-1)">
                  <use xlink:href="#rim" fill="#404040">
                        <set attributeName="fill" to="#808080" begin="arrowUp.mouseover" end="arrowUp.mouseout"/>
                  </use>
                  <path fill="none" stroke="white" stroke-width="1.5" d="M0,-3.0v7 M-2.5,-0.5L0,-3.0L2.5,-0.5"/>
                </g>
                <g id="arrowRight" xlink:href="#dirArrow" transform="rotate(90) translate(36 -43)" onmousedown="handlePan(1,0)">
                  <use xlink:href="#rim" fill="#404040">
                        <set attributeName="fill" to="#808080" begin="arrowRight.mouseover" end="arrowRight.mouseout"/>
                  </use>
                  <path fill="none" stroke="white" stroke-width="1.5" d="M0,-3.0v7 M-2.5,-0.5L0,-3.0L2.5,-0.5"/>
                </g>
                <g id="arrowDown" xlink:href="#dirArrow" transform="rotate(180) translate(-30 -48)" onmousedown="handlePan(0,1)">
                  <use xlink:href="#rim" fill="#404040">
                        <set attributeName="fill" to="#808080" begin="arrowDown.mouseover" end="arrowDown.mouseout"/>
                  </use>
                  <path fill="none" stroke="white" stroke-width="1.5" d="M0,-3.0v7 M-2.5,-0.5L0,-3.0L2.5,-0.5"/>
                </g>
                <g id="arrowLeft" xlink:href="#dirArrow" transform="rotate(270) translate(-36 17)" onmousedown="handlePan(-1,0)">
                  <use xlink:href="#rim" fill="#404040">
                        <set attributeName="fill" to="#808080" begin="arrowLeft.mouseover" end="arrowLeft.mouseout"/>
                  </use>
                  <path fill="none" stroke="white" stroke-width="1.5" d="M0,-3.0v7 M-2.5,-0.5L0,-3.0L2.5,-0.5"/>
                </g>
        </g>
        <svg viewBox="0 0 15 15" width="100%" height="30px" preserveAspectRatio="xMaxYMin meet">
         <g id="arrow_out" transform="scale(0.3 0.3)">
          <a xlink:href="SimConfig_8cxx__incl_org.svg" target="_base">
           <rect id="button" ry="5" rx="5" y="6" x="6" height="38" width="38"
                fill="#f2f5e9" fill-opacity="0.5" stroke="#606060" stroke-width="1.0"/>
           <path id="arrow"
             d="M 11.500037,31.436501 C 11.940474,20.09759 22.043105,11.32322 32.158766,21.979434 L 37.068811,17.246167 C 37.068811,17.246167 37.088388,32 37.088388,32 L 22.160133,31.978069 C 22.160133,31.978069 26.997745,27.140456 26.997745,27.140456 C 18.528582,18.264221 13.291696,25.230495 11.500037,31.436501 z"
             style="fill:#404040;"/>
          </a>
         </g>
        </svg>
</svg>
