<?xml version="1.0" encoding="UTF-8" standalone="no"?>
<!DOCTYPE svg PUBLIC "-//W3C//DTD SVG 1.1//EN"
 "http://www.w3.org/Graphics/SVG/1.1/DTD/svg11.dtd">
<!-- Generated by graphviz version 2.40.1 (20161225.0304)
 -->
<!-- Title: /home/runner/work/AliceO2/AliceO2/Utilities/aliceHLTwrapper/src/WrapperDevice.cxx Pages: 1 -->
<!--zoomable 330 -->
<svg id="main" version="1.1" xmlns="http://www.w3.org/2000/svg" xmlns:xlink="http://www.w3.org/1999/xlink" xml:space="preserve" onload="init(evt)">
<style type="text/css"><![CDATA[
.edge:hover path { stroke: red; }
.edge:hover polygon { stroke: red; fill: red; }
]]></style>
<script type="text/javascript"><![CDATA[
var edges = document.getElementsByTagName('g');
if (edges && edges.length) {
  for (var i=0;i<edges.length;i++) {
    if (edges[i].id.substr(0,4)=='edge') {
      edges[i].setAttribute('class','edge');
    }
  }
}
]]></script>
        <defs>
                <circle id="rim" cx="0" cy="0" r="7"/>
                <circle id="rim2" cx="0" cy="0" r="3.5"/>
                <g id="zoomPlus">
                        <use xlink:href="#rim" fill="#404040">
                                <set attributeName="fill" to="#808080" begin="zoomplus.mouseover" end="zoomplus.mouseout"/>
                        </use>
                        <path d="M-4,0h8M0,-4v8" fill="none" stroke="white" stroke-width="1.5" pointer-events="none"/>
                </g>
                <g id="zoomMin">
                        <use xlink:href="#rim" fill="#404040">
                                <set attributeName="fill" to="#808080" begin="zoomminus.mouseover" end="zoomminus.mouseout"/>
                        </use>
                        <path d="M-4,0h8" fill="none" stroke="white" stroke-width="1.5" pointer-events="none"/>
                </g>
                <g id="dirArrow">
                        <path fill="none" stroke="white" stroke-width="1.5" d="M0,-3.0v7 M-2.5,-0.5L0,-3.0L2.5,-0.5"/>
                </g>
               <g id="resetDef">
                       <use xlink:href="#rim2" fill="#404040">
                               <set attributeName="fill" to="#808080" begin="reset.mouseover" end="reset.mouseout"/>
                       </use>
               </g>
        </defs>

<script type="text/javascript">
var viewWidth = 2010;
var viewHeight = 330;
var sectionId = 'dynsection-0';
</script>
<script xlink:href="../../svgpan.js"/>
<svg id="graph" class="graph">
<g id="viewport">
<title>/home/runner/work/AliceO2/AliceO2/Utilities/aliceHLTwrapper/src/WrapperDevice.cxx</title>
<!-- Node0 -->
<g id="node1" class="node">
<title>Node0</title>
<polygon fill="#bfbfbf" stroke="#000000" points="1200.5,-280.5 1200.5,-321.5 1367.5,-321.5 1367.5,-280.5 1200.5,-280.5"/>
<text text-anchor="start" x="1208.5" y="-309.5" font-family="Helvetica,sans-Serif" font-size="10.00" fill="#000000">/home/runner/work/AliceO2</text>
<text text-anchor="start" x="1208.5" y="-298.5" font-family="Helvetica,sans-Serif" font-size="10.00" fill="#000000">/AliceO2/Utilities/aliceHLTwrapper</text>
<text text-anchor="middle" x="1284" y="-287.5" font-family="Helvetica,sans-Serif" font-size="10.00" fill="#000000">/src/WrapperDevice.cxx</text>
</g>
<!-- Node1 -->
<g id="node2" class="node">
<title>Node1</title>
<g id="a_node2"><a xlink:href="../../dc/de0/WrapperDevice_8h.html" target="_top" xlink:title="aliceHLTwrapper/WrapperDevice.h">
<polygon fill="none" stroke="#000000" points="79.5,-224.5 79.5,-243.5 248.5,-243.5 248.5,-224.5 79.5,-224.5"/>
<text text-anchor="middle" x="164" y="-231.5" font-family="Helvetica,sans-Serif" font-size="10.00" fill="#000000">aliceHLTwrapper/WrapperDevice.h</text>
</a>
</g>
</g>
<!-- Node0&#45;&gt;Node1 -->
<g id="edge1" class="edge">
<title>Node0&#45;&gt;Node1</title>
<path fill="none" stroke="#191970" d="M1200.276,-295.9915C996.1878,-283.7827 474.0553,-252.548 258.8809,-239.6759"/>
<polygon fill="#191970" stroke="#191970" points="259.0603,-236.1805 248.8691,-239.077 258.6422,-243.168 259.0603,-236.1805"/>
</g>
<!-- Node5 -->
<g id="node6" class="node">
<title>Node5</title>
<g id="a_node6"><a xlink:href="../../d0/da1/Component_8h.html" target="_top" xlink:title="aliceHLTwrapper/Component.h">
<polygon fill="none" stroke="#000000" points="384,-224.5 384,-243.5 536,-243.5 536,-224.5 384,-224.5"/>
<text text-anchor="middle" x="460" y="-231.5" font-family="Helvetica,sans-Serif" font-size="10.00" fill="#000000">aliceHLTwrapper/Component.h</text>
</a>
</g>
</g>
<!-- Node0&#45;&gt;Node5 -->
<g id="edge5" class="edge">
<title>Node0&#45;&gt;Node5</title>
<path fill="none" stroke="#191970" d="M1200.4559,-294.207C1043.4149,-281.4379 705.7046,-253.9784 546.4579,-241.03"/>
<polygon fill="#191970" stroke="#191970" points="546.4813,-237.5204 536.2305,-240.1984 545.914,-244.4974 546.4813,-237.5204"/>
</g>
<!-- Node12 -->
<g id="node13" class="node">
<title>Node12</title>
<polygon fill="none" stroke="#bfbfbf" points="791,-.5 791,-19.5 843,-19.5 843,-.5 791,-.5"/>
<text text-anchor="middle" x="817" y="-7.5" font-family="Helvetica,sans-Serif" font-size="10.00" fill="#000000">memory</text>
</g>
<!-- Node0&#45;&gt;Node12 -->
<g id="edge45" class="edge">
<title>Node0&#45;&gt;Node12</title>
<path fill="none" stroke="#191970" d="M1200.3197,-296.6091C1100.2269,-290.0474 939.7982,-274.9805 889,-244 858.2556,-225.2498 842,-214.011 842,-178 842,-178 842,-178 842,-122 842,-88.7847 831.397,-51.3305 824.0013,-29.2459"/>
<polygon fill="#191970" stroke="#191970" points="827.2805,-28.0195 820.6888,-19.7249 820.6692,-30.3197 827.2805,-28.0195"/>
</g>
<!-- Node14 -->
<g id="node15" class="node">
<title>Node14</title>
<polygon fill="none" stroke="#bfbfbf" points="861,-.5 861,-19.5 907,-19.5 907,-.5 861,-.5"/>
<text text-anchor="middle" x="884" y="-7.5" font-family="Helvetica,sans-Serif" font-size="10.00" fill="#000000">cstring</text>
</g>
<!-- Node0&#45;&gt;Node14 -->
<g id="edge43" class="edge">
<title>Node0&#45;&gt;Node14</title>
<path fill="none" stroke="#191970" d="M1200.3229,-296.4345C1106.4983,-289.8753 961.6206,-274.985 917,-244 889.3783,-224.8192 880,-211.6283 880,-178 880,-178 880,-178 880,-122 880,-89.691 881.683,-52.1727 882.8656,-29.7971"/>
<polygon fill="#191970" stroke="#191970" points="886.3728,-29.7613 883.4269,-19.5843 879.3833,-29.3771 886.3728,-29.7613"/>
</g>
<!-- Node20 -->
<g id="node21" class="node">
<title>Node20</title>
<polygon fill="none" stroke="#bfbfbf" points="925,-.5 925,-19.5 969,-19.5 969,-.5 925,-.5"/>
<text text-anchor="middle" x="947" y="-7.5" font-family="Helvetica,sans-Serif" font-size="10.00" fill="#000000">cerrno</text>
</g>
<!-- Node0&#45;&gt;Node20 -->
<g id="edge42" class="edge">
<title>Node0&#45;&gt;Node20</title>
<path fill="none" stroke="#191970" d="M1200.3465,-297.3521C1110.3445,-291.7215 974.9863,-277.7664 937,-244 914.1858,-223.7203 918,-208.5246 918,-178 918,-178 918,-178 918,-122 918,-88.5134 930.2995,-51.1413 938.8785,-29.1469"/>
<polygon fill="#191970" stroke="#191970" points="942.2072,-30.2517 942.721,-19.6693 935.7201,-27.6216 942.2072,-30.2517"/>
</g>
<!-- Node24 -->
<g id="node25" class="node">
<title>Node24</title>
<g id="a_node25"><a xlink:href="../../da/d51/Compatibility_8h.html" target="_top" xlink:title="O2Device/Compatibility.h">
<polygon fill="none" stroke="#000000" points="946,-224.5 946,-243.5 1074,-243.5 1074,-224.5 946,-224.5"/>
<text text-anchor="middle" x="1010" y="-231.5" font-family="Helvetica,sans-Serif" font-size="10.00" fill="#000000">O2Device/Compatibility.h</text>
</a>
</g>
</g>
<!-- Node0&#45;&gt;Node24 -->
<g id="edge33" class="edge">
<title>Node0&#45;&gt;Node24</title>
<path fill="none" stroke="#191970" d="M1200.3021,-280.5337C1153.9735,-269.2052 1098.0103,-255.5208 1058.8062,-245.9344"/>
<polygon fill="#191970" stroke="#191970" points="1059.5117,-242.5038 1048.9665,-243.5283 1057.849,-249.3035 1059.5117,-242.5038"/>
</g>
<!-- Node26 -->
<g id="node27" class="node">
<title>Node26</title>
<polygon fill="none" stroke="#bfbfbf" points="1092,-224.5 1092,-243.5 1172,-243.5 1172,-224.5 1092,-224.5"/>
<text text-anchor="middle" x="1132" y="-231.5" font-family="Helvetica,sans-Serif" font-size="10.00" fill="#000000">FairMQParts.h</text>
</g>
<!-- Node0&#45;&gt;Node26 -->
<g id="edge35" class="edge">
<title>Node0&#45;&gt;Node26</title>
<path fill="none" stroke="#191970" d="M1237.1547,-280.3511C1213.1,-269.748 1184.4524,-257.1204 1163.1375,-247.7251"/>
<polygon fill="#191970" stroke="#191970" points="1164.4653,-244.4855 1153.9031,-243.6546 1161.6418,-250.8908 1164.4653,-244.4855"/>
</g>
<!-- Node27 -->
<g id="node28" class="node">
<title>Node27</title>
<polygon fill="none" stroke="#bfbfbf" points="1190,-224.5 1190,-243.5 1276,-243.5 1276,-224.5 1190,-224.5"/>
<text text-anchor="middle" x="1233" y="-231.5" font-family="Helvetica,sans-Serif" font-size="10.00" fill="#000000">FairMQLogger.h</text>
</g>
<!-- Node0&#45;&gt;Node27 -->
<g id="edge36" class="edge">
<title>Node0&#45;&gt;Node27</title>
<path fill="none" stroke="#191970" d="M1268.1428,-280.168C1261.2128,-271.0639 1253.1685,-260.4959 1246.5264,-251.7699"/>
<polygon fill="#191970" stroke="#191970" points="1249.2867,-249.6176 1240.4448,-243.7805 1243.7168,-253.8574 1249.2867,-249.6176"/>
</g>
<!-- Node28 -->
<g id="node29" class="node">
<title>Node28</title>
<polygon fill="none" stroke="#bfbfbf" points="1294,-224.5 1294,-243.5 1376,-243.5 1376,-224.5 1294,-224.5"/>
<text text-anchor="middle" x="1335" y="-231.5" font-family="Helvetica,sans-Serif" font-size="10.00" fill="#000000">FairMQPoller.h</text>
</g>
<!-- Node0&#45;&gt;Node28 -->
<g id="edge37" class="edge">
<title>Node0&#45;&gt;Node28</title>
<path fill="none" stroke="#191970" d="M1299.8572,-280.168C1306.7872,-271.0639 1314.8315,-260.4959 1321.4736,-251.7699"/>
<polygon fill="#191970" stroke="#191970" points="1324.2832,-253.8574 1327.5552,-243.7805 1318.7133,-249.6176 1324.2832,-253.8574"/>
</g>
<!-- Node29 -->
<g id="node30" class="node">
<title>Node29</title>
<polygon fill="none" stroke="#bfbfbf" points="1394,-224.5 1394,-243.5 1540,-243.5 1540,-224.5 1394,-224.5"/>
<text text-anchor="middle" x="1467" y="-231.5" font-family="Helvetica,sans-Serif" font-size="10.00" fill="#000000">options/FairMQProgOptions.h</text>
</g>
<!-- Node0&#45;&gt;Node29 -->
<g id="edge38" class="edge">
<title>Node0&#45;&gt;Node29</title>
<path fill="none" stroke="#191970" d="M1340.3993,-280.3511C1370.0122,-269.5092 1405.4065,-256.5506 1431.2324,-247.0953"/>
<polygon fill="#191970" stroke="#191970" points="1432.4428,-250.3794 1440.6299,-243.6546 1430.0361,-243.8061 1432.4428,-250.3794"/>
</g>
<!-- Node30 -->
<g id="node31" class="node">
<title>Node30</title>
<polygon fill="none" stroke="#bfbfbf" points="1558.5,-224.5 1558.5,-243.5 1647.5,-243.5 1647.5,-224.5 1558.5,-224.5"/>
<text text-anchor="middle" x="1603" y="-231.5" font-family="Helvetica,sans-Serif" font-size="10.00" fill="#000000">boost/thread.hpp</text>
</g>
<!-- Node0&#45;&gt;Node30 -->
<g id="edge39" class="edge">
<title>Node0&#45;&gt;Node30</title>
<path fill="none" stroke="#191970" d="M1367.8135,-283.3965C1424.8045,-271.4266 1498.5785,-255.9318 1548.1738,-245.5152"/>
<polygon fill="#191970" stroke="#191970" points="1548.9995,-248.9183 1558.0665,-243.4374 1547.5606,-242.0677 1548.9995,-248.9183"/>
</g>
<!-- Node31 -->
<g id="node32" class="node">
<title>Node31</title>
<polygon fill="none" stroke="#bfbfbf" points="1666,-224.5 1666,-243.5 1746,-243.5 1746,-224.5 1666,-224.5"/>
<text text-anchor="middle" x="1706" y="-231.5" font-family="Helvetica,sans-Serif" font-size="10.00" fill="#000000">boost/bind.hpp</text>
</g>
<!-- Node0&#45;&gt;Node31 -->
<g id="edge40" class="edge">
<title>Node0&#45;&gt;Node31</title>
<path fill="none" stroke="#191970" d="M1367.5262,-289.447C1440.8833,-279.0219 1550.7205,-262.7394 1655.77,-244.1541"/>
<polygon fill="#191970" stroke="#191970" points="1656.6874,-247.5459 1665.9197,-242.3485 1655.4612,-240.6541 1656.6874,-247.5459"/>
</g>
<!-- Node32 -->
<g id="node33" class="node">
<title>Node32</title>
<polygon fill="none" stroke="#bfbfbf" points="1764.5,-224.5 1764.5,-243.5 1809.5,-243.5 1809.5,-224.5 1764.5,-224.5"/>
<text text-anchor="middle" x="1787" y="-231.5" font-family="Helvetica,sans-Serif" font-size="10.00" fill="#000000">cstdlib</text>
</g>
<!-- Node0&#45;&gt;Node32 -->
<g id="edge41" class="edge">
<title>Node0&#45;&gt;Node32</title>
<path fill="none" stroke="#191970" d="M1367.7153,-295.5022C1460.267,-288.3812 1613.7192,-273.4872 1754.3112,-243.7838"/>
<polygon fill="#191970" stroke="#191970" points="1755.3661,-247.1373 1764.4106,-241.6195 1753.8992,-240.2928 1755.3661,-247.1373"/>
</g>
<!-- Node33 -->
<g id="node34" class="node">
<title>Node33</title>
<polygon fill="none" stroke="#bfbfbf" points="1828,-224.5 1828,-243.5 1882,-243.5 1882,-224.5 1828,-224.5"/>
<text text-anchor="middle" x="1855" y="-231.5" font-family="Helvetica,sans-Serif" font-size="10.00" fill="#000000">iostream</text>
</g>
<!-- Node0&#45;&gt;Node33 -->
<g id="edge44" class="edge">
<title>Node0&#45;&gt;Node33</title>
<path fill="none" stroke="#191970" d="M1367.5683,-296.3726C1471.2126,-289.677 1653.2976,-274.7836 1817.6849,-243.9746"/>
<polygon fill="#191970" stroke="#191970" points="1818.8148,-247.3226 1827.9862,-242.0184 1817.5088,-240.4455 1818.8148,-247.3226"/>
</g>
<!-- Node34 -->
<g id="node35" class="node">
<title>Node34</title>
<polygon fill="none" stroke="#bfbfbf" points="1900,-224.5 1900,-243.5 1940,-243.5 1940,-224.5 1900,-224.5"/>
<text text-anchor="middle" x="1920" y="-231.5" font-family="Helvetica,sans-Serif" font-size="10.00" fill="#000000">utility</text>
</g>
<!-- Node0&#45;&gt;Node34 -->
<g id="edge46" class="edge">
<title>Node0&#45;&gt;Node34</title>
<path fill="none" stroke="#191970" d="M1367.7266,-295.6156C1505.9303,-286.3253 1776.9469,-266.3055 1890.0888,-243.6761"/>
<polygon fill="#191970" stroke="#191970" points="1890.8247,-247.098 1899.8936,-241.6202 1889.3882,-240.247 1890.8247,-247.098"/>
</g>
<!-- Node35 -->
<g id="node36" class="node">
<title>Node35</title>
<polygon fill="none" stroke="#bfbfbf" points="1958,-224.5 1958,-243.5 2002,-243.5 2002,-224.5 1958,-224.5"/>
<text text-anchor="middle" x="1980" y="-231.5" font-family="Helvetica,sans-Serif" font-size="10.00" fill="#000000">thread</text>
</g>
<!-- Node0&#45;&gt;Node35 -->
<g id="edge47" class="edge">
<title>Node0&#45;&gt;Node35</title>
<path fill="none" stroke="#191970" d="M1367.7584,-296.1945C1516.6433,-287.2691 1822.69,-267.0951 1947.7027,-243.7958"/>
<polygon fill="#191970" stroke="#191970" points="1948.6647,-247.1742 1957.8092,-241.8236 1947.3239,-240.3038 1948.6647,-247.1742"/>
</g>
<!-- Node2 -->
<g id="node3" class="node">
<title>Node2</title>
<polygon fill="none" stroke="#bfbfbf" points="0,-168.5 0,-187.5 88,-187.5 88,-168.5 0,-168.5"/>
<text text-anchor="middle" x="44" y="-175.5" font-family="Helvetica,sans-Serif" font-size="10.00" fill="#000000">FairMQDevice.h</text>
</g>
<!-- Node1&#45;&gt;Node2 -->
<g id="edge2" class="edge">
<title>Node1&#45;&gt;Node2</title>
<path fill="none" stroke="#191970" d="M143.3713,-224.3733C124.1081,-215.3838 95.1514,-201.8706 73.4581,-191.7471"/>
<polygon fill="#191970" stroke="#191970" points="74.9015,-188.5584 64.3595,-187.5011 71.9413,-194.9017 74.9015,-188.5584"/>
</g>
<!-- Node3 -->
<g id="node4" class="node">
<title>Node3</title>
<polygon fill="none" stroke="#bfbfbf" points="267,-56.5 267,-75.5 311,-75.5 311,-56.5 267,-56.5"/>
<text text-anchor="middle" x="289" y="-63.5" font-family="Helvetica,sans-Serif" font-size="10.00" fill="#000000">vector</text>
</g>
<!-- Node1&#45;&gt;Node3 -->
<g id="edge3" class="edge">
<title>Node1&#45;&gt;Node3</title>
<path fill="none" stroke="#191970" d="M154.277,-224.4077C142.3137,-211.388 124.7706,-187.5083 135,-168 160.3195,-119.7138 219.9317,-90.5755 257.12,-76.449"/>
<polygon fill="#191970" stroke="#191970" points="258.7708,-79.5726 266.9672,-72.8593 256.3733,-72.996 258.7708,-79.5726"/>
</g>
<!-- Node4 -->
<g id="node5" class="node">
<title>Node4</title>
<polygon fill="none" stroke="#bfbfbf" points="144,-168.5 144,-187.5 278,-187.5 278,-168.5 144,-168.5"/>
<text text-anchor="middle" x="211" y="-175.5" font-family="Helvetica,sans-Serif" font-size="10.00" fill="#000000">boost/program_options.hpp</text>
</g>
<!-- Node1&#45;&gt;Node4 -->
<g id="edge4" class="edge">
<title>Node1&#45;&gt;Node4</title>
<path fill="none" stroke="#191970" d="M172.1868,-224.2455C178.8589,-216.2958 188.4479,-204.8706 196.4253,-195.3656"/>
<polygon fill="#191970" stroke="#191970" points="199.1592,-197.5525 202.907,-187.6427 193.7974,-193.0524 199.1592,-197.5525"/>
</g>
<!-- Node5&#45;&gt;Node3 -->
<g id="edge30" class="edge">
<title>Node5&#45;&gt;Node3</title>
<path fill="none" stroke="#191970" d="M431.3349,-224.4095C378.6305,-206.132 269.8106,-165.1748 249,-132 238.4869,-115.2409 253.4085,-95.8577 267.9216,-82.453"/>
<polygon fill="#191970" stroke="#191970" points="270.4925,-84.8576 275.7784,-75.6755 265.9202,-79.5572 270.4925,-84.8576"/>
</g>
<!-- Node5&#45;&gt;Node4 -->
<g id="edge32" class="edge">
<title>Node5&#45;&gt;Node4</title>
<path fill="none" stroke="#191970" d="M417.4783,-224.4369C374.8639,-214.8529 309.1824,-200.0812 263.379,-189.78"/>
<polygon fill="#191970" stroke="#191970" points="263.8706,-186.3032 253.3463,-187.5237 262.3346,-193.1326 263.8706,-186.3032"/>
</g>
<!-- Node6 -->
<g id="node7" class="node">
<title>Node6</title>
<g id="a_node7"><a xlink:href="../../d6/d34/AliHLTDataTypes_8h.html" target="_top" xlink:title="Data type declaration for the HLT module. ">
<polygon fill="none" stroke="#000000" points="652.5,-56.5 652.5,-75.5 755.5,-75.5 755.5,-56.5 652.5,-56.5"/>
<text text-anchor="middle" x="704" y="-63.5" font-family="Helvetica,sans-Serif" font-size="10.00" fill="#000000">AliHLTDataTypes.h</text>
</a>
</g>
</g>
<!-- Node5&#45;&gt;Node6 -->
<g id="edge6" class="edge">
<title>Node5&#45;&gt;Node6</title>
<path fill="none" stroke="#191970" d="M505.7185,-224.4589C579.3189,-208.0646 718.7109,-172.3884 747,-132 758.7587,-115.2121 742.0109,-95.4595 726.1045,-81.9677"/>
<polygon fill="#191970" stroke="#191970" points="728.0224,-79.021 718.0186,-75.532 723.6632,-84.498 728.0224,-79.021"/>
</g>
<!-- Node7 -->
<g id="node8" class="node">
<title>Node7</title>
<g id="a_node8"><a xlink:href="../../d2/dda/MessageFormat_8h.html" target="_top" xlink:title="MessageFormat.h">
<polygon fill="none" stroke="#000000" points="489.5,-168.5 489.5,-187.5 584.5,-187.5 584.5,-168.5 489.5,-168.5"/>
<text text-anchor="middle" x="537" y="-175.5" font-family="Helvetica,sans-Serif" font-size="10.00" fill="#000000">MessageFormat.h</text>
</a>
</g>
</g>
<!-- Node5&#45;&gt;Node7 -->
<g id="edge7" class="edge">
<title>Node5&#45;&gt;Node7</title>
<path fill="none" stroke="#191970" d="M473.4124,-224.2455C485.0057,-215.814 501.9748,-203.4729 515.4678,-193.6598"/>
<polygon fill="#191970" stroke="#191970" points="517.7126,-196.355 523.7413,-187.6427 513.5953,-190.6938 517.7126,-196.355"/>
</g>
<!-- Node10 -->
<g id="node11" class="node">
<title>Node10</title>
<polygon fill="none" stroke="#bfbfbf" points="258,-112.5 258,-131.5 356,-131.5 356,-112.5 258,-112.5"/>
<text text-anchor="middle" x="307" y="-119.5" font-family="Helvetica,sans-Serif" font-size="10.00" fill="#000000">boost/signals2.hpp</text>
</g>
<!-- Node5&#45;&gt;Node10 -->
<g id="edge31" class="edge">
<title>Node5&#45;&gt;Node10</title>
<path fill="none" stroke="#191970" d="M446.9553,-224.4509C420.5334,-205.1094 360.477,-161.1465 328.2976,-137.5904"/>
<polygon fill="#191970" stroke="#191970" points="330.1482,-134.6075 320.0117,-131.5249 326.0134,-140.2559 330.1482,-134.6075"/>
</g>
<!-- Node7&#45;&gt;Node3 -->
<g id="edge11" class="edge">
<title>Node7&#45;&gt;Node3</title>
<path fill="none" stroke="#191970" d="M503.5395,-168.4933C476.002,-160.2033 436.235,-147.1514 403,-132 385.4262,-123.9884 341.4156,-97.8174 313.504,-80.9375"/>
<polygon fill="#191970" stroke="#191970" points="315.0824,-77.8014 304.7169,-75.6088 311.4527,-83.7868 315.0824,-77.8014"/>
</g>
<!-- Node7&#45;&gt;Node6 -->
<g id="edge8" class="edge">
<title>Node7&#45;&gt;Node6</title>
<path fill="none" stroke="#191970" d="M550.5917,-168.4823C569.1207,-155.5471 603.3932,-131.7629 633,-112 648.7327,-101.4983 666.6052,-89.9208 680.4827,-81.0078"/>
<polygon fill="#191970" stroke="#191970" points="682.4316,-83.916 688.9627,-75.5736 678.6547,-78.0223 682.4316,-83.916"/>
</g>
<!-- Node8 -->
<g id="node9" class="node">
<title>Node8</title>
<g id="a_node9"><a xlink:href="../../d2/de6/HOMERFactory_8h.html" target="_top" xlink:title="HOMERFactory.h">
<polygon fill="none" stroke="#000000" points="642.5,-112.5 642.5,-131.5 737.5,-131.5 737.5,-112.5 642.5,-112.5"/>
<text text-anchor="middle" x="690" y="-119.5" font-family="Helvetica,sans-Serif" font-size="10.00" fill="#000000">HOMERFactory.h</text>
</a>
</g>
</g>
<!-- Node7&#45;&gt;Node8 -->
<g id="edge9" class="edge">
<title>Node7&#45;&gt;Node8</title>
<path fill="none" stroke="#191970" d="M563.3016,-168.3733C588.4128,-159.1822 626.4438,-145.2624 654.2872,-135.0713"/>
<polygon fill="#191970" stroke="#191970" points="655.8538,-138.2251 664.0416,-131.5011 653.4478,-131.6516 655.8538,-138.2251"/>
</g>
<!-- Node9 -->
<g id="node10" class="node">
<title>Node9</title>
<polygon fill="none" stroke="#bfbfbf" points="727,-.5 727,-19.5 773,-19.5 773,-.5 727,-.5"/>
<text text-anchor="middle" x="750" y="-7.5" font-family="Helvetica,sans-Serif" font-size="10.00" fill="#000000">cstdint</text>
</g>
<!-- Node7&#45;&gt;Node9 -->
<g id="edge12" class="edge">
<title>Node7&#45;&gt;Node9</title>
<path fill="none" stroke="#191970" d="M584.7076,-173.0806C639.1203,-166.5432 723.5929,-153.2751 747,-132 772.6872,-108.6525 770.4483,-90.282 765,-56 763.5699,-47.0016 760.6588,-37.3703 757.7784,-29.2579"/>
<polygon fill="#191970" stroke="#191970" points="760.9537,-27.7599 754.1368,-19.6493 754.408,-30.2407 760.9537,-27.7599"/>
</g>
<!-- Node7&#45;&gt;Node10 -->
<g id="edge13" class="edge">
<title>Node7&#45;&gt;Node10</title>
<path fill="none" stroke="#191970" d="M497.7229,-168.4369C458.5256,-158.8932 398.2,-144.2052 355.9165,-133.9101"/>
<polygon fill="#191970" stroke="#191970" points="356.6592,-130.4888 346.1151,-131.5237 355.0032,-137.2901 356.6592,-130.4888"/>
</g>
<!-- Node11 -->
<g id="node12" class="node">
<title>Node11</title>
<g id="a_node12"><a xlink:href="../../dc/dcd/DataHeader_8h.html" target="_top" xlink:title="Headers/DataHeader.h">
<polygon fill="none" stroke="#000000" points="517.5,-56.5 517.5,-75.5 634.5,-75.5 634.5,-56.5 517.5,-56.5"/>
<text text-anchor="middle" x="576" y="-63.5" font-family="Helvetica,sans-Serif" font-size="10.00" fill="#000000">Headers/DataHeader.h</text>
</a>
</g>
</g>
<!-- Node7&#45;&gt;Node11 -->
<g id="edge14" class="edge">
<title>Node7&#45;&gt;Node11</title>
<path fill="none" stroke="#191970" d="M541.3576,-168.2374C545.4033,-158.9989 551.4672,-144.6942 556,-132 561.4732,-116.6722 566.7732,-99.0129 570.5406,-85.8201"/>
<polygon fill="#191970" stroke="#191970" points="573.9817,-86.5117 573.3149,-75.9379 567.2422,-84.6196 573.9817,-86.5117"/>
</g>
<!-- Node21 -->
<g id="node22" class="node">
<title>Node21</title>
<g id="a_node22"><a xlink:href="../../d2/d09/HeartbeatFrame_8h.html" target="_top" xlink:title="Headers/HeartbeatFrame.h">
<polygon fill="none" stroke="#000000" points="412.5,-112.5 412.5,-131.5 547.5,-131.5 547.5,-112.5 412.5,-112.5"/>
<text text-anchor="middle" x="480" y="-119.5" font-family="Helvetica,sans-Serif" font-size="10.00" fill="#000000">Headers/HeartbeatFrame.h</text>
</a>
</g>
</g>
<!-- Node7&#45;&gt;Node21 -->
<g id="edge25" class="edge">
<title>Node7&#45;&gt;Node21</title>
<path fill="none" stroke="#191970" d="M527.0714,-168.2455C518.8162,-160.1352 506.8791,-148.4075 497.0918,-138.7919"/>
<polygon fill="#191970" stroke="#191970" points="499.4011,-136.1542 489.8149,-131.6427 494.4954,-141.1476 499.4011,-136.1542"/>
</g>
<!-- Node8&#45;&gt;Node6 -->
<g id="edge10" class="edge">
<title>Node8&#45;&gt;Node6</title>
<path fill="none" stroke="#191970" d="M692.4386,-112.2455C694.2855,-104.8579 696.8828,-94.4689 699.1478,-85.4087"/>
<polygon fill="#191970" stroke="#191970" points="702.5594,-86.193 701.5893,-75.6427 695.7684,-84.4952 702.5594,-86.193"/>
</g>
<!-- Node11&#45;&gt;Node9 -->
<g id="edge15" class="edge">
<title>Node11&#45;&gt;Node9</title>
<path fill="none" stroke="#191970" d="M605.9117,-56.3733C636.8618,-46.4123 685.07,-30.897 717.084,-20.5937"/>
<polygon fill="#191970" stroke="#191970" points="718.4199,-23.8406 726.8668,-17.4452 716.2753,-17.1772 718.4199,-23.8406"/>
</g>
<!-- Node11&#45;&gt;Node12 -->
<g id="edge16" class="edge">
<title>Node11&#45;&gt;Node12</title>
<path fill="none" stroke="#191970" d="M622.4096,-56.4488C662.0739,-48.1033 720.8785,-35.301 780.6782,-20.2376"/>
<polygon fill="#191970" stroke="#191970" points="781.8399,-23.5538 790.6715,-17.7012 780.1178,-16.7689 781.8399,-23.5538"/>
</g>
<!-- Node13 -->
<g id="node14" class="node">
<title>Node13</title>
<polygon fill="none" stroke="#bfbfbf" points="659.5,-.5 659.5,-19.5 708.5,-19.5 708.5,-.5 659.5,-.5"/>
<text text-anchor="middle" x="684" y="-7.5" font-family="Helvetica,sans-Serif" font-size="10.00" fill="#000000">cassert</text>
</g>
<!-- Node11&#45;&gt;Node13 -->
<g id="edge17" class="edge">
<title>Node11&#45;&gt;Node13</title>
<path fill="none" stroke="#191970" d="M594.8122,-56.2455C611.8473,-47.4125 637.1575,-34.2887 656.4681,-24.2758"/>
<polygon fill="#191970" stroke="#191970" points="658.137,-27.353 665.4034,-19.6427 654.9147,-21.1388 658.137,-27.353"/>
</g>
<!-- Node11&#45;&gt;Node14 -->
<g id="edge18" class="edge">
<title>Node11&#45;&gt;Node14</title>
<path fill="none" stroke="#191970" d="M634.6158,-57.2017C698.7112,-47.4206 798.3344,-31.71 850.8368,-19.983"/>
<polygon fill="#191970" stroke="#191970" points="851.7368,-23.3672 860.6845,-17.6937 850.1517,-16.549 851.7368,-23.3672"/>
</g>
<!-- Node15 -->
<g id="node16" class="node">
<title>Node15</title>
<polygon fill="none" stroke="#bfbfbf" points="231,-.5 231,-19.5 287,-19.5 287,-.5 231,-.5"/>
<text text-anchor="middle" x="259" y="-7.5" font-family="Helvetica,sans-Serif" font-size="10.00" fill="#000000">algorithm</text>
</g>
<!-- Node11&#45;&gt;Node15 -->
<g id="edge19" class="edge">
<title>Node11&#45;&gt;Node15</title>
<path fill="none" stroke="#191970" d="M517.2035,-57.0573C452.2708,-47.063 350.7964,-31.0666 297.2541,-20.0692"/>
<polygon fill="#191970" stroke="#191970" points="297.7182,-16.5899 287.2097,-17.9396 296.2663,-23.4377 297.7182,-16.5899"/>
</g>
<!-- Node16 -->
<g id="node17" class="node">
<title>Node16</title>
<polygon fill="none" stroke="#bfbfbf" points="305.5,-.5 305.5,-19.5 364.5,-19.5 364.5,-.5 305.5,-.5"/>
<text text-anchor="middle" x="335" y="-7.5" font-family="Helvetica,sans-Serif" font-size="10.00" fill="#000000">stdexcept</text>
</g>
<!-- Node11&#45;&gt;Node16 -->
<g id="edge20" class="edge">
<title>Node11&#45;&gt;Node16</title>
<path fill="none" stroke="#191970" d="M531.9422,-56.4758C492.9256,-47.9383 434.1823,-34.8346 374.7712,-20.3836"/>
<polygon fill="#191970" stroke="#191970" points="375.391,-16.9321 364.846,-17.9581 373.7293,-23.732 375.391,-16.9321"/>
</g>
<!-- Node17 -->
<g id="node18" class="node">
<title>Node17</title>
<polygon fill="none" stroke="#bfbfbf" points="382.5,-.5 382.5,-19.5 423.5,-19.5 423.5,-.5 382.5,-.5"/>
<text text-anchor="middle" x="403" y="-7.5" font-family="Helvetica,sans-Serif" font-size="10.00" fill="#000000">string</text>
</g>
<!-- Node11&#45;&gt;Node17 -->
<g id="edge21" class="edge">
<title>Node11&#45;&gt;Node17</title>
<path fill="none" stroke="#191970" d="M545.3149,-56.4212C518.1125,-47.8803 477.0762,-34.8769 433.2608,-20.3752"/>
<polygon fill="#191970" stroke="#191970" points="434.1689,-16.9888 423.5754,-17.1599 431.9634,-23.6323 434.1689,-16.9888"/>
</g>
<!-- Node18 -->
<g id="node19" class="node">
<title>Node18</title>
<polygon fill="none" stroke="#bfbfbf" points="441.5,-.5 441.5,-19.5 486.5,-19.5 486.5,-.5 441.5,-.5"/>
<text text-anchor="middle" x="464" y="-7.5" font-family="Helvetica,sans-Serif" font-size="10.00" fill="#000000">climits</text>
</g>
<!-- Node11&#45;&gt;Node18 -->
<g id="edge22" class="edge">
<title>Node11&#45;&gt;Node18</title>
<path fill="none" stroke="#191970" d="M556.7465,-56.3733C538.9288,-47.4644 512.2253,-34.1127 492.0406,-24.0203"/>
<polygon fill="#191970" stroke="#191970" points="493.5118,-20.8428 483.0022,-19.5011 490.3813,-27.1038 493.5118,-20.8428"/>
</g>
<!-- Node19 -->
<g id="node20" class="node">
<title>Node19</title>
<g id="a_node20"><a xlink:href="../../d7/df8/Types_8h.html" target="_top" xlink:title="MemoryResources/Types.h">
<polygon fill="none" stroke="#000000" points="504.5,-.5 504.5,-19.5 641.5,-19.5 641.5,-.5 504.5,-.5"/>
<text text-anchor="middle" x="573" y="-7.5" font-family="Helvetica,sans-Serif" font-size="10.00" fill="#000000">MemoryResources/Types.h</text>
</a>
</g>
</g>
<!-- Node11&#45;&gt;Node19 -->
<g id="edge23" class="edge">
<title>Node11&#45;&gt;Node19</title>
<path fill="none" stroke="#191970" d="M575.4774,-56.2455C575.086,-48.9382 574.5372,-38.6944 574.0556,-29.7046"/>
<polygon fill="#191970" stroke="#191970" points="577.5466,-29.4411 573.5166,-19.6427 570.5566,-29.8156 577.5466,-29.4411"/>
</g>
<!-- Node11&#45;&gt;Node20 -->
<g id="edge24" class="edge">
<title>Node11&#45;&gt;Node20</title>
<path fill="none" stroke="#191970" d="M634.8179,-57.1633C637.5832,-56.766 640.3213,-56.3765 643,-56 760.997,-39.4155 794.8371,-46.4952 914.8401,-19.932"/>
<polygon fill="#191970" stroke="#191970" points="915.7927,-23.3053 924.7825,-17.6987 914.2586,-16.4754 915.7927,-23.3053"/>
</g>
<!-- Node21&#45;&gt;Node3 -->
<g id="edge29" class="edge">
<title>Node21&#45;&gt;Node3</title>
<path fill="none" stroke="#191970" d="M447.1659,-112.3733C411.8299,-102.013 356.0004,-85.6441 320.9936,-75.3803"/>
<polygon fill="#191970" stroke="#191970" points="321.856,-71.9859 311.2751,-72.5309 319.8865,-78.7031 321.856,-71.9859"/>
</g>
<!-- Node21&#45;&gt;Node11 -->
<g id="edge26" class="edge">
<title>Node21&#45;&gt;Node11</title>
<path fill="none" stroke="#191970" d="M496.7219,-112.2455C511.5889,-103.5731 533.5466,-90.7645 550.5858,-80.825"/>
<polygon fill="#191970" stroke="#191970" points="552.5955,-83.7047 559.4697,-75.6427 549.0683,-77.6582 552.5955,-83.7047"/>
</g>
<!-- Node22 -->
<g id="node23" class="node">
<title>Node22</title>
<polygon fill="none" stroke="#bfbfbf" points="440.5,-56.5 440.5,-75.5 499.5,-75.5 499.5,-56.5 440.5,-56.5"/>
<text text-anchor="middle" x="470" y="-63.5" font-family="Helvetica,sans-Serif" font-size="10.00" fill="#000000">functional</text>
</g>
<!-- Node21&#45;&gt;Node22 -->
<g id="edge27" class="edge">
<title>Node21&#45;&gt;Node22</title>
<path fill="none" stroke="#191970" d="M478.2581,-112.2455C476.9533,-104.9382 475.124,-94.6944 473.5187,-85.7046"/>
<polygon fill="#191970" stroke="#191970" points="476.9254,-84.8717 471.7219,-75.6427 470.0344,-86.1022 476.9254,-84.8717"/>
</g>
<!-- Node23 -->
<g id="node24" class="node">
<title>Node23</title>
<polygon fill="none" stroke="#bfbfbf" points="387.5,-56.5 387.5,-75.5 422.5,-75.5 422.5,-56.5 387.5,-56.5"/>
<text text-anchor="middle" x="405" y="-63.5" font-family="Helvetica,sans-Serif" font-size="10.00" fill="#000000">map</text>
</g>
<!-- Node21&#45;&gt;Node23 -->
<g id="edge28" class="edge">
<title>Node21&#45;&gt;Node23</title>
<path fill="none" stroke="#191970" d="M466.936,-112.2455C455.6438,-103.814 439.1155,-91.4729 425.9729,-81.6598"/>
<polygon fill="#191970" stroke="#191970" points="428.0211,-78.8211 417.9143,-75.6427 423.8331,-84.4301 428.0211,-78.8211"/>
</g>
<!-- Node25 -->
<g id="node26" class="node">
<title>Node25</title>
<polygon fill="none" stroke="#bfbfbf" points="979,-168.5 979,-187.5 1041,-187.5 1041,-168.5 979,-168.5"/>
<text text-anchor="middle" x="1010" y="-175.5" font-family="Helvetica,sans-Serif" font-size="10.00" fill="#000000">type_traits</text>
</g>
<!-- Node24&#45;&gt;Node25 -->
<g id="edge34" class="edge">
<title>Node24&#45;&gt;Node25</title>
<path fill="none" stroke="#191970" d="M1010,-224.2455C1010,-216.9382 1010,-206.6944 1010,-197.7046"/>
<polygon fill="#191970" stroke="#191970" points="1013.5001,-197.6426 1010,-187.6427 1006.5001,-197.6427 1013.5001,-197.6426"/>
</g>
</g>
</svg>
        <g id="navigator" transform="translate(0 0)" fill="#404254">
                <rect fill="#f2f5e9" fill-opacity="0.5" stroke="#606060" stroke-width=".5" x="0" y="0" width="60" height="60"/>
                <use id="zoomplus" xlink:href="#zoomPlus" x="17" y="9" onmousedown="handleZoom(evt,'in')"/>
                <use id="zoomminus" xlink:href="#zoomMin" x="42" y="9" onmousedown="handleZoom(evt,'out')"/>
                <use id="reset" xlink:href="#resetDef" x="30" y="36" onmousedown="handleReset()"/>
                <g id="arrowUp" xlink:href="#dirArrow" transform="translate(30 24)" onmousedown="handlePan(0,-1)">
                  <use xlink:href="#rim" fill="#404040">
                        <set attributeName="fill" to="#808080" begin="arrowUp.mouseover" end="arrowUp.mouseout"/>
                  </use>
                  <path fill="none" stroke="white" stroke-width="1.5" d="M0,-3.0v7 M-2.5,-0.5L0,-3.0L2.5,-0.5"/>
                </g>
                <g id="arrowRight" xlink:href="#dirArrow" transform="rotate(90) translate(36 -43)" onmousedown="handlePan(1,0)">
                  <use xlink:href="#rim" fill="#404040">
                        <set attributeName="fill" to="#808080" begin="arrowRight.mouseover" end="arrowRight.mouseout"/>
                  </use>
                  <path fill="none" stroke="white" stroke-width="1.5" d="M0,-3.0v7 M-2.5,-0.5L0,-3.0L2.5,-0.5"/>
                </g>
                <g id="arrowDown" xlink:href="#dirArrow" transform="rotate(180) translate(-30 -48)" onmousedown="handlePan(0,1)">
                  <use xlink:href="#rim" fill="#404040">
                        <set attributeName="fill" to="#808080" begin="arrowDown.mouseover" end="arrowDown.mouseout"/>
                  </use>
                  <path fill="none" stroke="white" stroke-width="1.5" d="M0,-3.0v7 M-2.5,-0.5L0,-3.0L2.5,-0.5"/>
                </g>
                <g id="arrowLeft" xlink:href="#dirArrow" transform="rotate(270) translate(-36 17)" onmousedown="handlePan(-1,0)">
                  <use xlink:href="#rim" fill="#404040">
                        <set attributeName="fill" to="#808080" begin="arrowLeft.mouseover" end="arrowLeft.mouseout"/>
                  </use>
                  <path fill="none" stroke="white" stroke-width="1.5" d="M0,-3.0v7 M-2.5,-0.5L0,-3.0L2.5,-0.5"/>
                </g>
        </g>
        <svg viewBox="0 0 15 15" width="100%" height="30px" preserveAspectRatio="xMaxYMin meet">
         <g id="arrow_out" transform="scale(0.3 0.3)">
          <a xlink:href="WrapperDevice_8cxx__incl_org.svg" target="_base">
           <rect id="button" ry="5" rx="5" y="6" x="6" height="38" width="38"
                fill="#f2f5e9" fill-opacity="0.5" stroke="#606060" stroke-width="1.0"/>
           <path id="arrow"
             d="M 11.500037,31.436501 C 11.940474,20.09759 22.043105,11.32322 32.158766,21.979434 L 37.068811,17.246167 C 37.068811,17.246167 37.088388,32 37.088388,32 L 22.160133,31.978069 C 22.160133,31.978069 26.997745,27.140456 26.997745,27.140456 C 18.528582,18.264221 13.291696,25.230495 11.500037,31.436501 z"
             style="fill:#404040;"/>
          </a>
         </g>
        </svg>
</svg>
