<?xml version="1.0" encoding="UTF-8" standalone="no"?>
<!DOCTYPE svg PUBLIC "-//W3C//DTD SVG 1.1//EN"
 "http://www.w3.org/Graphics/SVG/1.1/DTD/svg11.dtd">
<!-- Generated by graphviz version 2.40.1 (20161225.0304)
 -->
<!-- Title: /home/runner/work/AliceO2/AliceO2/Common/MathUtils/test/testCachingTF1.cxx Pages: 1 -->
<svg width="333pt" height="162pt"
 viewBox="0.00 0.00 333.00 162.00" xmlns="http://www.w3.org/2000/svg" xmlns:xlink="http://www.w3.org/1999/xlink">
<g id="graph0" class="graph" transform="scale(1 1) rotate(0) translate(4 158)">
<title>/home/runner/work/AliceO2/AliceO2/Common/MathUtils/test/testCachingTF1.cxx</title>
<!-- Node0 -->
<g id="node1" class="node">
<title>Node0</title>
<polygon fill="#bfbfbf" stroke="#000000" points="127.5,-112.5 127.5,-153.5 269.5,-153.5 269.5,-112.5 127.5,-112.5"/>
<text text-anchor="start" x="135.5" y="-141.5" font-family="Helvetica,sans-Serif" font-size="10.00" fill="#000000">/home/runner/work/AliceO2</text>
<text text-anchor="start" x="135.5" y="-130.5" font-family="Helvetica,sans-Serif" font-size="10.00" fill="#000000">/AliceO2/Common/MathUtils</text>
<text text-anchor="middle" x="198.5" y="-119.5" font-family="Helvetica,sans-Serif" font-size="10.00" fill="#000000">/test/testCachingTF1.cxx</text>
</g>
<!-- Node1 -->
<g id="node2" class="node">
<title>Node1</title>
<polygon fill="none" stroke="#bfbfbf" points="0,-56.5 0,-75.5 119,-75.5 119,-56.5 0,-56.5"/>
<text text-anchor="middle" x="59.5" y="-63.5" font-family="Helvetica,sans-Serif" font-size="10.00" fill="#000000">boost/test/unit_test.hpp</text>
</g>
<!-- Node0&#45;&gt;Node1 -->
<g id="edge1" class="edge">
<title>Node0&#45;&gt;Node1</title>
<path fill="none" stroke="#191970" d="M155.6612,-112.3511C133.9611,-101.8913 108.1736,-89.4614 88.7683,-80.1077"/>
<polygon fill="#191970" stroke="#191970" points="90.0577,-76.8439 79.5298,-75.6546 87.0182,-83.1496 90.0577,-76.8439"/>
</g>
<!-- Node2 -->
<g id="node3" class="node">
<title>Node2</title>
<g id="a_node3"><a xlink:href="../../d8/d74/CachingTF1_8h.html" target="_top" xlink:title="MathUtils/CachingTF1.h">
<polygon fill="none" stroke="#000000" points="137,-56.5 137,-75.5 260,-75.5 260,-56.5 137,-56.5"/>
<text text-anchor="middle" x="198.5" y="-63.5" font-family="Helvetica,sans-Serif" font-size="10.00" fill="#000000">MathUtils/CachingTF1.h</text>
</a>
</g>
</g>
<!-- Node0&#45;&gt;Node2 -->
<g id="edge2" class="edge">
<title>Node0&#45;&gt;Node2</title>
<path fill="none" stroke="#191970" d="M198.5,-112.168C198.5,-103.8226 198.5,-94.2471 198.5,-85.9879"/>
<polygon fill="#191970" stroke="#191970" points="202.0001,-85.7804 198.5,-75.7805 195.0001,-85.7805 202.0001,-85.7804"/>
</g>
<!-- Node4 -->
<g id="node5" class="node">
<title>Node4</title>
<polygon fill="none" stroke="#bfbfbf" points="278,-56.5 278,-75.5 325,-75.5 325,-56.5 278,-56.5"/>
<text text-anchor="middle" x="301.5" y="-63.5" font-family="Helvetica,sans-Serif" font-size="10.00" fill="#000000">TFile.h</text>
</g>
<!-- Node0&#45;&gt;Node4 -->
<g id="edge4" class="edge">
<title>Node0&#45;&gt;Node4</title>
<path fill="none" stroke="#191970" d="M230.2438,-112.3511C245.663,-102.3212 263.8671,-90.4797 278.0157,-81.2762"/>
<polygon fill="#191970" stroke="#191970" points="280.1837,-84.0413 286.6578,-75.6546 276.3667,-78.1735 280.1837,-84.0413"/>
</g>
<!-- Node3 -->
<g id="node4" class="node">
<title>Node3</title>
<polygon fill="none" stroke="#bfbfbf" points="177.5,-.5 177.5,-19.5 219.5,-19.5 219.5,-.5 177.5,-.5"/>
<text text-anchor="middle" x="198.5" y="-7.5" font-family="Helvetica,sans-Serif" font-size="10.00" fill="#000000">TF1.h</text>
</g>
<!-- Node2&#45;&gt;Node3 -->
<g id="edge3" class="edge">
<title>Node2&#45;&gt;Node3</title>
<path fill="none" stroke="#191970" d="M198.5,-56.2455C198.5,-48.9382 198.5,-38.6944 198.5,-29.7046"/>
<polygon fill="#191970" stroke="#191970" points="202.0001,-29.6426 198.5,-19.6427 195.0001,-29.6427 202.0001,-29.6426"/>
</g>
</g>
</svg>
