<?xml version="1.0" encoding="UTF-8" standalone="no"?>
<!DOCTYPE svg PUBLIC "-//W3C//DTD SVG 1.1//EN"
 "http://www.w3.org/Graphics/SVG/1.1/DTD/svg11.dtd">
<!-- Generated by graphviz version 2.40.1 (20161225.0304)
 -->
<!-- Title: /home/runner/work/AliceO2/AliceO2/Detectors/MUON/MCH/Contour/include/MCHContour/Contour.h Pages: 1 -->
<svg width="1621pt" height="528pt"
 viewBox="0.00 0.00 1621.00 528.00" xmlns="http://www.w3.org/2000/svg" xmlns:xlink="http://www.w3.org/1999/xlink">
<g id="graph0" class="graph" transform="scale(1 1) rotate(0) translate(4 524)">
<title>/home/runner/work/AliceO2/AliceO2/Detectors/MUON/MCH/Contour/include/MCHContour/Contour.h</title>
<!-- Node18 -->
<g id="node1" class="node">
<title>Node18</title>
<polygon fill="#bfbfbf" stroke="#000000" points="1004,-467.5 1004,-519.5 1179,-519.5 1179,-467.5 1004,-467.5"/>
<text text-anchor="start" x="1012" y="-507.5" font-family="Helvetica,sans-Serif" font-size="10.00" fill="#000000">/home/runner/work/AliceO2</text>
<text text-anchor="start" x="1012" y="-496.5" font-family="Helvetica,sans-Serif" font-size="10.00" fill="#000000">/AliceO2/Detectors/MUON</text>
<text text-anchor="start" x="1012" y="-485.5" font-family="Helvetica,sans-Serif" font-size="10.00" fill="#000000">/MCH/Contour/include/MCHContour</text>
<text text-anchor="middle" x="1091.5" y="-474.5" font-family="Helvetica,sans-Serif" font-size="10.00" fill="#000000">/Contour.h</text>
</g>
<!-- Node19 -->
<g id="node2" class="node">
<title>Node19</title>
<g id="a_node2"><a xlink:href="../../dc/d15/ContourCreator_8inl.html" target="_top" xlink:title="/home/runner/work/AliceO2\l/AliceO2/Detectors/MUON\l/MCH/Contour/include/MCHContour\l/ContourCreator.inl">
<polygon fill="none" stroke="#000000" points="1004,-373 1004,-425 1179,-425 1179,-373 1004,-373"/>
<text text-anchor="start" x="1012" y="-413" font-family="Helvetica,sans-Serif" font-size="10.00" fill="#000000">/home/runner/work/AliceO2</text>
<text text-anchor="start" x="1012" y="-402" font-family="Helvetica,sans-Serif" font-size="10.00" fill="#000000">/AliceO2/Detectors/MUON</text>
<text text-anchor="start" x="1012" y="-391" font-family="Helvetica,sans-Serif" font-size="10.00" fill="#000000">/MCH/Contour/include/MCHContour</text>
<text text-anchor="middle" x="1091.5" y="-380" font-family="Helvetica,sans-Serif" font-size="10.00" fill="#000000">/ContourCreator.inl</text>
</a>
</g>
</g>
<!-- Node18&#45;&gt;Node19 -->
<g id="edge1" class="edge">
<title>Node18&#45;&gt;Node19</title>
<path fill="none" stroke="#191970" d="M1091.5,-457.1645C1091.5,-446.5577 1091.5,-435.1746 1091.5,-425.3157"/>
<polygon fill="#191970" stroke="#191970" points="1088.0001,-457.4273 1091.5,-467.4273 1095.0001,-457.4273 1088.0001,-457.4273"/>
</g>
<!-- Node21 -->
<g id="node4" class="node">
<title>Node21</title>
<g id="a_node4"><a xlink:href="../../de/d51/SVGWriter_8h.html" target="_top" xlink:title="/home/runner/work/AliceO2\l/AliceO2/Detectors/MUON\l/MCH/Contour/include/MCHContour\l/SVGWriter.h">
<polygon fill="none" stroke="#000000" points="604,-189.5 604,-241.5 779,-241.5 779,-189.5 604,-189.5"/>
<text text-anchor="start" x="612" y="-229.5" font-family="Helvetica,sans-Serif" font-size="10.00" fill="#000000">/home/runner/work/AliceO2</text>
<text text-anchor="start" x="612" y="-218.5" font-family="Helvetica,sans-Serif" font-size="10.00" fill="#000000">/AliceO2/Detectors/MUON</text>
<text text-anchor="start" x="612" y="-207.5" font-family="Helvetica,sans-Serif" font-size="10.00" fill="#000000">/MCH/Contour/include/MCHContour</text>
<text text-anchor="middle" x="691.5" y="-196.5" font-family="Helvetica,sans-Serif" font-size="10.00" fill="#000000">/SVGWriter.h</text>
</a>
</g>
</g>
<!-- Node18&#45;&gt;Node21 -->
<g id="edge18" class="edge">
<title>Node18&#45;&gt;Node21</title>
<path fill="none" stroke="#191970" d="M993.968,-475.5495C936.9748,-463.7179 871.6366,-447.4238 847.5,-431 775.1386,-381.7618 724.4263,-287.3366 702.9625,-241.6023"/>
<polygon fill="#191970" stroke="#191970" points="993.267,-478.9785 1003.766,-477.5573 994.6722,-472.121 993.267,-478.9785"/>
</g>
<!-- Node31 -->
<g id="node14" class="node">
<title>Node31</title>
<g id="a_node14"><a xlink:href="../../d8/d3b/Contour_8cxx.html" target="_top" xlink:title="/home/runner/work/AliceO2\l/AliceO2/Detectors/MUON\l/MCH/Contour/test/Contour.cxx">
<polygon fill="none" stroke="#000000" points="1389.5,-378.5 1389.5,-419.5 1545.5,-419.5 1545.5,-378.5 1389.5,-378.5"/>
<text text-anchor="start" x="1397.5" y="-407.5" font-family="Helvetica,sans-Serif" font-size="10.00" fill="#000000">/home/runner/work/AliceO2</text>
<text text-anchor="start" x="1397.5" y="-396.5" font-family="Helvetica,sans-Serif" font-size="10.00" fill="#000000">/AliceO2/Detectors/MUON</text>
<text text-anchor="middle" x="1467.5" y="-385.5" font-family="Helvetica,sans-Serif" font-size="10.00" fill="#000000">/MCH/Contour/test/Contour.cxx</text>
</a>
</g>
</g>
<!-- Node18&#45;&gt;Node31 -->
<g id="edge19" class="edge">
<title>Node18&#45;&gt;Node31</title>
<path fill="none" stroke="#191970" d="M1189.2203,-475.8912C1245.6152,-464.8549 1317.6041,-449.2714 1380.5,-431 1391.7818,-427.7226 1403.7038,-423.7123 1414.9835,-419.6536"/>
<polygon fill="#191970" stroke="#191970" points="1188.3858,-472.4878 1179.2362,-477.8295 1189.72,-479.3595 1188.3858,-472.4878"/>
</g>
<!-- Node32 -->
<g id="node15" class="node">
<title>Node32</title>
<g id="a_node15"><a xlink:href="../../d2/d32/CathodeSegmentationContours_8h.html" target="_top" xlink:title="/home/runner/work/AliceO2\l/AliceO2/Detectors/MUON\l/MCH/Mapping/SegContour\l/include/MCHMappingSegContour\l/CathodeSegmentationContours.h">
<polygon fill="none" stroke="#000000" points="750,-89.5 750,-152.5 915,-152.5 915,-89.5 750,-89.5"/>
<text text-anchor="start" x="758" y="-140.5" font-family="Helvetica,sans-Serif" font-size="10.00" fill="#000000">/home/runner/work/AliceO2</text>
<text text-anchor="start" x="758" y="-129.5" font-family="Helvetica,sans-Serif" font-size="10.00" fill="#000000">/AliceO2/Detectors/MUON</text>
<text text-anchor="start" x="758" y="-118.5" font-family="Helvetica,sans-Serif" font-size="10.00" fill="#000000">/MCH/Mapping/SegContour</text>
<text text-anchor="start" x="758" y="-107.5" font-family="Helvetica,sans-Serif" font-size="10.00" fill="#000000">/include/MCHMappingSegContour</text>
<text text-anchor="middle" x="832.5" y="-96.5" font-family="Helvetica,sans-Serif" font-size="10.00" fill="#000000">/CathodeSegmentationContours.h</text>
</a>
</g>
</g>
<!-- Node18&#45;&gt;Node32 -->
<g id="edge20" class="edge">
<title>Node18&#45;&gt;Node32</title>
<path fill="none" stroke="#191970" d="M1032.3331,-461.7544C1019.19,-452.9461 1006.0474,-442.5773 995.5,-431 916.6703,-344.4734 864.2274,-212.7903 843.061,-152.7869"/>
<polygon fill="#191970" stroke="#191970" points="1030.6434,-464.8296 1040.9427,-467.3144 1034.4409,-458.9491 1030.6434,-464.8296"/>
</g>
<!-- Node34 -->
<g id="node17" class="node">
<title>Node34</title>
<g id="a_node17"><a xlink:href="../../dd/d1c/SegmentationContours_8h.html" target="_top" xlink:title="/home/runner/work/AliceO2\l/AliceO2/Detectors/MUON\l/MCH/Mapping/SegContour\l/include/MCHMappingSegContour\l/SegmentationContours.h">
<polygon fill="none" stroke="#000000" points="1206,-367.5 1206,-430.5 1371,-430.5 1371,-367.5 1206,-367.5"/>
<text text-anchor="start" x="1214" y="-418.5" font-family="Helvetica,sans-Serif" font-size="10.00" fill="#000000">/home/runner/work/AliceO2</text>
<text text-anchor="start" x="1214" y="-407.5" font-family="Helvetica,sans-Serif" font-size="10.00" fill="#000000">/AliceO2/Detectors/MUON</text>
<text text-anchor="start" x="1214" y="-396.5" font-family="Helvetica,sans-Serif" font-size="10.00" fill="#000000">/MCH/Mapping/SegContour</text>
<text text-anchor="start" x="1214" y="-385.5" font-family="Helvetica,sans-Serif" font-size="10.00" fill="#000000">/include/MCHMappingSegContour</text>
<text text-anchor="middle" x="1288.5" y="-374.5" font-family="Helvetica,sans-Serif" font-size="10.00" fill="#000000">/SegmentationContours.h</text>
</a>
</g>
</g>
<!-- Node18&#45;&gt;Node34 -->
<g id="edge29" class="edge">
<title>Node18&#45;&gt;Node34</title>
<path fill="none" stroke="#191970" d="M1154.9672,-463.0551C1176.6406,-452.6585 1200.9158,-441.0138 1222.7639,-430.5333"/>
<polygon fill="#191970" stroke="#191970" points="1153.3551,-459.9465 1145.8526,-467.4273 1156.3827,-466.2579 1153.3551,-459.9465"/>
</g>
<!-- Node20 -->
<g id="node3" class="node">
<title>Node20</title>
<g id="a_node3"><a xlink:href="../../d4/d84/ContourCreator_8h.html" target="_top" xlink:title="/home/runner/work/AliceO2\l/AliceO2/Detectors/MUON\l/MCH/Contour/include/MCHContour\l/ContourCreator.h">
<polygon fill="none" stroke="#000000" points="1004,-278.5 1004,-330.5 1179,-330.5 1179,-278.5 1004,-278.5"/>
<text text-anchor="start" x="1012" y="-318.5" font-family="Helvetica,sans-Serif" font-size="10.00" fill="#000000">/home/runner/work/AliceO2</text>
<text text-anchor="start" x="1012" y="-307.5" font-family="Helvetica,sans-Serif" font-size="10.00" fill="#000000">/AliceO2/Detectors/MUON</text>
<text text-anchor="start" x="1012" y="-296.5" font-family="Helvetica,sans-Serif" font-size="10.00" fill="#000000">/MCH/Contour/include/MCHContour</text>
<text text-anchor="middle" x="1091.5" y="-285.5" font-family="Helvetica,sans-Serif" font-size="10.00" fill="#000000">/ContourCreator.h</text>
</a>
</g>
</g>
<!-- Node19&#45;&gt;Node20 -->
<g id="edge2" class="edge">
<title>Node19&#45;&gt;Node20</title>
<path fill="none" stroke="#191970" d="M1091.5,-362.6645C1091.5,-352.0577 1091.5,-340.6746 1091.5,-330.8157"/>
<polygon fill="#191970" stroke="#191970" points="1088.0001,-362.9273 1091.5,-372.9273 1095.0001,-362.9273 1088.0001,-362.9273"/>
</g>
<!-- Node20&#45;&gt;Node21 -->
<g id="edge3" class="edge">
<title>Node20&#45;&gt;Node21</title>
<path fill="none" stroke="#191970" d="M993.7786,-282.757C928.168,-268.1586 842.4649,-249.0897 779.0769,-234.9859"/>
<polygon fill="#191970" stroke="#191970" points="993.1968,-286.2131 1003.7183,-284.9686 994.7172,-279.3802 993.1968,-286.2131"/>
</g>
<!-- Node28 -->
<g id="node11" class="node">
<title>Node28</title>
<g id="a_node11"><a xlink:href="../../d3/d4a/ContourCreator_8cxx.html" target="_top" xlink:title="/home/runner/work/AliceO2\l/AliceO2/Detectors/MUON\l/MCH/Contour/test/ContourCreator.cxx">
<polygon fill="none" stroke="#000000" points="1157.5,-195 1157.5,-236 1345.5,-236 1345.5,-195 1157.5,-195"/>
<text text-anchor="start" x="1165.5" y="-224" font-family="Helvetica,sans-Serif" font-size="10.00" fill="#000000">/home/runner/work/AliceO2</text>
<text text-anchor="start" x="1165.5" y="-213" font-family="Helvetica,sans-Serif" font-size="10.00" fill="#000000">/AliceO2/Detectors/MUON</text>
<text text-anchor="middle" x="1251.5" y="-202" font-family="Helvetica,sans-Serif" font-size="10.00" fill="#000000">/MCH/Contour/test/ContourCreator.cxx</text>
</a>
</g>
</g>
<!-- Node20&#45;&gt;Node28 -->
<g id="edge15" class="edge">
<title>Node20&#45;&gt;Node28</title>
<path fill="none" stroke="#191970" d="M1147.6411,-273.2715C1169.839,-260.9239 1194.7344,-247.0758 1214.5856,-236.0336"/>
<polygon fill="#191970" stroke="#191970" points="1145.6775,-270.3587 1138.6399,-278.2784 1149.0803,-276.476 1145.6775,-270.3587"/>
</g>
<!-- Node29 -->
<g id="node12" class="node">
<title>Node29</title>
<g id="a_node12"><a xlink:href="../../da/d65/CathodeSegmentationContours_8cxx.html" target="_top" xlink:title="/home/runner/work/AliceO2\l/AliceO2/Detectors/MUON\l/MCH/Mapping/SegContour\l/src/CathodeSegmentationContours.cxx">
<polygon fill="none" stroke="#000000" points="1249,-.5 1249,-52.5 1440,-52.5 1440,-.5 1249,-.5"/>
<text text-anchor="start" x="1257" y="-40.5" font-family="Helvetica,sans-Serif" font-size="10.00" fill="#000000">/home/runner/work/AliceO2</text>
<text text-anchor="start" x="1257" y="-29.5" font-family="Helvetica,sans-Serif" font-size="10.00" fill="#000000">/AliceO2/Detectors/MUON</text>
<text text-anchor="start" x="1257" y="-18.5" font-family="Helvetica,sans-Serif" font-size="10.00" fill="#000000">/MCH/Mapping/SegContour</text>
<text text-anchor="middle" x="1344.5" y="-7.5" font-family="Helvetica,sans-Serif" font-size="10.00" fill="#000000">/src/CathodeSegmentationContours.cxx</text>
</a>
</g>
</g>
<!-- Node20&#45;&gt;Node29 -->
<g id="edge16" class="edge">
<title>Node20&#45;&gt;Node29</title>
<path fill="none" stroke="#191970" d="M1084.2994,-268.2879C1077.1745,-221.1765 1072.7303,-138.9981 1115.5,-89 1117.8608,-86.2402 1187.0904,-67.5605 1248.8126,-51.3349"/>
<polygon fill="#191970" stroke="#191970" points="1080.8761,-269.0415 1085.9427,-278.3463 1087.7845,-267.9127 1080.8761,-269.0415"/>
</g>
<!-- Node30 -->
<g id="node13" class="node">
<title>Node30</title>
<g id="a_node13"><a xlink:href="../../de/de2/SegmentationContours_8cxx.html" target="_top" xlink:title="/home/runner/work/AliceO2\l/AliceO2/Detectors/MUON\l/MCH/Mapping/SegContour\l/src/SegmentationContours.cxx">
<polygon fill="none" stroke="#000000" points="1458,-.5 1458,-52.5 1613,-52.5 1613,-.5 1458,-.5"/>
<text text-anchor="start" x="1466" y="-40.5" font-family="Helvetica,sans-Serif" font-size="10.00" fill="#000000">/home/runner/work/AliceO2</text>
<text text-anchor="start" x="1466" y="-29.5" font-family="Helvetica,sans-Serif" font-size="10.00" fill="#000000">/AliceO2/Detectors/MUON</text>
<text text-anchor="start" x="1466" y="-18.5" font-family="Helvetica,sans-Serif" font-size="10.00" fill="#000000">/MCH/Mapping/SegContour</text>
<text text-anchor="middle" x="1535.5" y="-7.5" font-family="Helvetica,sans-Serif" font-size="10.00" fill="#000000">/src/SegmentationContours.cxx</text>
</a>
</g>
</g>
<!-- Node20&#45;&gt;Node30 -->
<g id="edge17" class="edge">
<title>Node20&#45;&gt;Node30</title>
<path fill="none" stroke="#191970" d="M1101.7249,-268.731C1110.5248,-243.5656 1125.4965,-210.6436 1148.5,-189 1194.9379,-145.3074 1358.7317,-85.4145 1457.7335,-51.8877"/>
<polygon fill="#191970" stroke="#191970" points="1098.3778,-267.7045 1098.5423,-278.298 1105.0199,-269.914 1098.3778,-267.7045"/>
</g>
<!-- Node22 -->
<g id="node5" class="node">
<title>Node22</title>
<g id="a_node5"><a xlink:href="../../d0/db8/CathodeSegmentationSVGWriter_8h.html" target="_top" xlink:title="/home/runner/work/AliceO2\l/AliceO2/Detectors/MUON\l/MCH/Mapping/SegContour\l/include/MCHMappingSegContour\l/CathodeSegmentationSVGWriter.h">
<polygon fill="none" stroke="#000000" points="521.5,-89.5 521.5,-152.5 693.5,-152.5 693.5,-89.5 521.5,-89.5"/>
<text text-anchor="start" x="529.5" y="-140.5" font-family="Helvetica,sans-Serif" font-size="10.00" fill="#000000">/home/runner/work/AliceO2</text>
<text text-anchor="start" x="529.5" y="-129.5" font-family="Helvetica,sans-Serif" font-size="10.00" fill="#000000">/AliceO2/Detectors/MUON</text>
<text text-anchor="start" x="529.5" y="-118.5" font-family="Helvetica,sans-Serif" font-size="10.00" fill="#000000">/MCH/Mapping/SegContour</text>
<text text-anchor="start" x="529.5" y="-107.5" font-family="Helvetica,sans-Serif" font-size="10.00" fill="#000000">/include/MCHMappingSegContour</text>
<text text-anchor="middle" x="607.5" y="-96.5" font-family="Helvetica,sans-Serif" font-size="10.00" fill="#000000">/CathodeSegmentationSVGWriter.h</text>
</a>
</g>
</g>
<!-- Node21&#45;&gt;Node22 -->
<g id="edge4" class="edge">
<title>Node21&#45;&gt;Node22</title>
<path fill="none" stroke="#191970" d="M661.4657,-181.7114C653.0664,-172.2622 643.9705,-162.0294 635.6825,-152.7054"/>
<polygon fill="#191970" stroke="#191970" points="659.0647,-184.2785 668.3243,-189.4273 664.2965,-179.6279 659.0647,-184.2785"/>
</g>
<!-- Node23 -->
<g id="node6" class="node">
<title>Node23</title>
<g id="a_node6"><a xlink:href="../../de/d54/CathodeSegmentationSVGWriter_8cxx.html" target="_top" xlink:title="/home/runner/work/AliceO2\l/AliceO2/Detectors/MUON\l/MCH/Mapping/SegContour\l/src/CathodeSegmentationSVGWriter.cxx">
<polygon fill="none" stroke="#000000" points="0,-.5 0,-52.5 199,-52.5 199,-.5 0,-.5"/>
<text text-anchor="start" x="8" y="-40.5" font-family="Helvetica,sans-Serif" font-size="10.00" fill="#000000">/home/runner/work/AliceO2</text>
<text text-anchor="start" x="8" y="-29.5" font-family="Helvetica,sans-Serif" font-size="10.00" fill="#000000">/AliceO2/Detectors/MUON</text>
<text text-anchor="start" x="8" y="-18.5" font-family="Helvetica,sans-Serif" font-size="10.00" fill="#000000">/MCH/Mapping/SegContour</text>
<text text-anchor="middle" x="99.5" y="-7.5" font-family="Helvetica,sans-Serif" font-size="10.00" fill="#000000">/src/CathodeSegmentationSVGWriter.cxx</text>
</a>
</g>
</g>
<!-- Node21&#45;&gt;Node23 -->
<g id="edge10" class="edge">
<title>Node21&#45;&gt;Node23</title>
<path fill="none" stroke="#191970" d="M593.8587,-201.5428C532.1,-191.3174 451.0801,-175.3122 381.5,-153 296.9365,-125.8831 203.8513,-80.9578 148.6054,-52.5832"/>
<polygon fill="#191970" stroke="#191970" points="593.5553,-205.0396 603.9887,-203.197 594.6835,-198.1311 593.5553,-205.0396"/>
</g>
<!-- Node24 -->
<g id="node7" class="node">
<title>Node24</title>
<g id="a_node7"><a xlink:href="../../de/d56/SegmentationSVGWriter_8cxx.html" target="_top" xlink:title="/home/runner/work/AliceO2\l/AliceO2/Detectors/MUON\l/MCH/Mapping/SegContour\l/src/SegmentationSVGWriter.cxx">
<polygon fill="none" stroke="#000000" points="217.5,-.5 217.5,-52.5 379.5,-52.5 379.5,-.5 217.5,-.5"/>
<text text-anchor="start" x="225.5" y="-40.5" font-family="Helvetica,sans-Serif" font-size="10.00" fill="#000000">/home/runner/work/AliceO2</text>
<text text-anchor="start" x="225.5" y="-29.5" font-family="Helvetica,sans-Serif" font-size="10.00" fill="#000000">/AliceO2/Detectors/MUON</text>
<text text-anchor="start" x="225.5" y="-18.5" font-family="Helvetica,sans-Serif" font-size="10.00" fill="#000000">/MCH/Mapping/SegContour</text>
<text text-anchor="middle" x="298.5" y="-7.5" font-family="Helvetica,sans-Serif" font-size="10.00" fill="#000000">/src/SegmentationSVGWriter.cxx</text>
</a>
</g>
</g>
<!-- Node21&#45;&gt;Node24 -->
<g id="edge11" class="edge">
<title>Node21&#45;&gt;Node24</title>
<path fill="none" stroke="#191970" d="M593.9357,-189.9001C561.8898,-180.0511 526.5453,-167.6062 495.5,-153 434.9997,-124.5358 370.9091,-80.4198 332.8233,-52.5201"/>
<polygon fill="#191970" stroke="#191970" points="593.1816,-193.3285 603.7666,-192.8729 595.2078,-186.6282 593.1816,-193.3285"/>
</g>
<!-- Node25 -->
<g id="node8" class="node">
<title>Node25</title>
<g id="a_node8"><a xlink:href="../../d2/d0f/SVGSegmentation_8cxx.html" target="_top" xlink:title="/home/runner/work/AliceO2\l/AliceO2/Detectors/MUON\l/MCH/Mapping/SegContour\l/src/SVGSegmentation.cxx">
<polygon fill="none" stroke="#000000" points="653,-.5 653,-52.5 790,-52.5 790,-.5 653,-.5"/>
<text text-anchor="start" x="661" y="-40.5" font-family="Helvetica,sans-Serif" font-size="10.00" fill="#000000">/home/runner/work/AliceO2</text>
<text text-anchor="start" x="661" y="-29.5" font-family="Helvetica,sans-Serif" font-size="10.00" fill="#000000">/AliceO2/Detectors/MUON</text>
<text text-anchor="start" x="661" y="-18.5" font-family="Helvetica,sans-Serif" font-size="10.00" fill="#000000">/MCH/Mapping/SegContour</text>
<text text-anchor="middle" x="721.5" y="-7.5" font-family="Helvetica,sans-Serif" font-size="10.00" fill="#000000">/src/SVGSegmentation.cxx</text>
</a>
</g>
</g>
<!-- Node21&#45;&gt;Node25 -->
<g id="edge12" class="edge">
<title>Node21&#45;&gt;Node25</title>
<path fill="none" stroke="#191970" d="M697.9913,-179.5224C699.5129,-170.8453 701.098,-161.5971 702.5,-153 708.1474,-118.3686 714.0613,-78.2989 717.7615,-52.6956"/>
<polygon fill="#191970" stroke="#191970" points="694.5443,-178.9163 696.2492,-189.373 701.4373,-180.1354 694.5443,-178.9163"/>
</g>
<!-- Node26 -->
<g id="node9" class="node">
<title>Node26</title>
<g id="a_node9"><a xlink:href="../../df/dc1/CathodeSegmentation_8cxx.html" target="_top" xlink:title="/home/runner/work/AliceO2\l/AliceO2/Detectors/MUON\l/MCH/Mapping/test/src/CathodeSegmentation.cxx">
<polygon fill="none" stroke="#000000" points="398,-6 398,-47 635,-47 635,-6 398,-6"/>
<text text-anchor="start" x="406" y="-35" font-family="Helvetica,sans-Serif" font-size="10.00" fill="#000000">/home/runner/work/AliceO2</text>
<text text-anchor="start" x="406" y="-24" font-family="Helvetica,sans-Serif" font-size="10.00" fill="#000000">/AliceO2/Detectors/MUON</text>
<text text-anchor="middle" x="516.5" y="-13" font-family="Helvetica,sans-Serif" font-size="10.00" fill="#000000">/MCH/Mapping/test/src/CathodeSegmentation.cxx</text>
</a>
</g>
</g>
<!-- Node21&#45;&gt;Node26 -->
<g id="edge13" class="edge">
<title>Node21&#45;&gt;Node26</title>
<path fill="none" stroke="#191970" d="M594.0764,-192.2851C557.891,-181.5289 523.0398,-167.8439 512.5,-153 490.2382,-121.6472 500.2817,-74.0461 508.866,-47.0623"/>
<polygon fill="#191970" stroke="#191970" points="593.2139,-195.679 603.7927,-195.0972 595.16,-188.955 593.2139,-195.679"/>
</g>
<!-- Node27 -->
<g id="node10" class="node">
<title>Node27</title>
<g id="a_node10"><a xlink:href="../../d2/dba/CathodeSegmentationLong_8cxx.html" target="_top" xlink:title="/home/runner/work/AliceO2\l/AliceO2/Detectors/MUON\l/MCH/Mapping/test/src/CathodeSegmentation\lLong.cxx">
<polygon fill="none" stroke="#000000" points="808.5,-.5 808.5,-52.5 1026.5,-52.5 1026.5,-.5 808.5,-.5"/>
<text text-anchor="start" x="816.5" y="-40.5" font-family="Helvetica,sans-Serif" font-size="10.00" fill="#000000">/home/runner/work/AliceO2</text>
<text text-anchor="start" x="816.5" y="-29.5" font-family="Helvetica,sans-Serif" font-size="10.00" fill="#000000">/AliceO2/Detectors/MUON</text>
<text text-anchor="start" x="816.5" y="-18.5" font-family="Helvetica,sans-Serif" font-size="10.00" fill="#000000">/MCH/Mapping/test/src/CathodeSegmentation</text>
<text text-anchor="middle" x="917.5" y="-7.5" font-family="Helvetica,sans-Serif" font-size="10.00" fill="#000000">Long.cxx</text>
</a>
</g>
</g>
<!-- Node21&#45;&gt;Node27 -->
<g id="edge14" class="edge">
<title>Node21&#45;&gt;Node27</title>
<path fill="none" stroke="#191970" d="M789.1229,-201.442C845.0872,-191.1645 907.5165,-175.1396 924.5,-153 946.4556,-124.3788 937.4078,-80.5129 928.0691,-52.6807"/>
<polygon fill="#191970" stroke="#191970" points="788.3508,-198.0245 779.1236,-203.2311 789.5837,-204.915 788.3508,-198.0245"/>
</g>
<!-- Node22&#45;&gt;Node23 -->
<g id="edge5" class="edge">
<title>Node22&#45;&gt;Node23</title>
<path fill="none" stroke="#191970" d="M510.9843,-106.482C429.9557,-93.8319 311.2871,-74.2267 208.5,-53 205.4484,-52.3698 202.3525,-51.7149 199.2297,-51.0408"/>
<polygon fill="#191970" stroke="#191970" points="510.7511,-109.9877 521.1703,-108.0665 511.8272,-103.0709 510.7511,-109.9877"/>
</g>
<!-- Node22&#45;&gt;Node24 -->
<g id="edge6" class="edge">
<title>Node22&#45;&gt;Node24</title>
<path fill="none" stroke="#191970" d="M511.6652,-91.6913C469.3256,-78.7428 420.0829,-63.6831 379.5993,-51.3022"/>
<polygon fill="#191970" stroke="#191970" points="510.8399,-95.0988 521.4263,-94.6765 512.8871,-88.4049 510.8399,-95.0988"/>
</g>
<!-- Node22&#45;&gt;Node25 -->
<g id="edge7" class="edge">
<title>Node22&#45;&gt;Node25</title>
<path fill="none" stroke="#191970" d="M653.6664,-82.7304C665.8593,-72.6232 678.7388,-61.9468 689.961,-52.6442"/>
<polygon fill="#191970" stroke="#191970" points="651.2426,-80.1935 645.7775,-89.27 655.71,-85.5826 651.2426,-80.1935"/>
</g>
<!-- Node22&#45;&gt;Node26 -->
<g id="edge8" class="edge">
<title>Node22&#45;&gt;Node26</title>
<path fill="none" stroke="#191970" d="M569.8776,-81.9306C558.3376,-69.9467 546.1002,-57.2387 536.2579,-47.0178"/>
<polygon fill="#191970" stroke="#191970" points="567.4876,-84.4945 576.9452,-89.27 572.5298,-79.639 567.4876,-84.4945"/>
</g>
<!-- Node22&#45;&gt;Node27 -->
<g id="edge9" class="edge">
<title>Node22&#45;&gt;Node27</title>
<path fill="none" stroke="#191970" d="M703.6055,-91.7033C744.7093,-79.1733 792.3039,-64.6646 832.147,-52.5189"/>
<polygon fill="#191970" stroke="#191970" points="702.3971,-88.4126 693.8523,-94.6765 704.4383,-95.1084 702.3971,-88.4126"/>
</g>
<!-- Node32&#45;&gt;Node23 -->
<g id="edge22" class="edge">
<title>Node32&#45;&gt;Node23</title>
<path fill="none" stroke="#191970" d="M739.7674,-96.1607C727.3049,-93.4147 714.6368,-90.9219 702.5,-89 485.0715,-54.5692 425.9776,-87.1195 208.5,-53 205.4217,-52.517 202.3024,-51.991 199.1592,-51.429"/>
<polygon fill="#191970" stroke="#191970" points="739.1777,-99.6158 749.7038,-98.4112 740.7239,-92.7887 739.1777,-99.6158"/>
</g>
<!-- Node32&#45;&gt;Node24 -->
<g id="edge24" class="edge">
<title>Node32&#45;&gt;Node24</title>
<path fill="none" stroke="#191970" d="M739.966,-96.6977C727.4264,-93.8522 714.6846,-91.189 702.5,-89 564.2436,-64.1623 526.1627,-80.9417 388.5,-53 385.6267,-52.4168 382.7125,-51.7846 379.7774,-51.1132"/>
<polygon fill="#191970" stroke="#191970" points="739.4328,-100.1668 749.9647,-99.0132 741.0121,-93.3473 739.4328,-100.1668"/>
</g>
<!-- Node32&#45;&gt;Node25 -->
<g id="edge25" class="edge">
<title>Node32&#45;&gt;Node25</title>
<path fill="none" stroke="#191970" d="M787.5485,-82.7304C775.6765,-72.6232 763.1359,-61.9468 752.209,-52.6442"/>
<polygon fill="#191970" stroke="#191970" points="785.3466,-85.4525 795.2298,-89.27 789.8844,-80.1225 785.3466,-85.4525"/>
</g>
<!-- Node32&#45;&gt;Node26 -->
<g id="edge27" class="edge">
<title>Node32&#45;&gt;Node26</title>
<path fill="none" stroke="#191970" d="M740.1327,-93.3775C690.6246,-78.5721 630.6607,-60.6398 585.2925,-47.0725"/>
<polygon fill="#191970" stroke="#191970" points="739.3039,-96.7827 749.8875,-96.2947 741.3095,-90.0762 739.3039,-96.7827"/>
</g>
<!-- Node32&#45;&gt;Node27 -->
<g id="edge28" class="edge">
<title>Node32&#45;&gt;Node27</title>
<path fill="none" stroke="#191970" d="M867.9635,-81.573C876.7434,-71.8118 885.9354,-61.5924 893.9841,-52.6442"/>
<polygon fill="#191970" stroke="#191970" points="865.1255,-79.4944 861.0402,-89.27 870.33,-84.1757 865.1255,-79.4944"/>
</g>
<!-- Node32&#45;&gt;Node29 -->
<g id="edge21" class="edge">
<title>Node32&#45;&gt;Node29</title>
<path fill="none" stroke="#191970" d="M925.2433,-107.7116C1007.9994,-95.3303 1132.3066,-75.4424 1239.5,-53 1242.5363,-52.3643 1245.6174,-51.7005 1248.7249,-51.0148"/>
<polygon fill="#191970" stroke="#191970" points="924.4845,-104.2859 915.1094,-109.2213 925.516,-111.2095 924.4845,-104.2859"/>
</g>
<!-- Node32&#45;&gt;Node30 -->
<g id="edge23" class="edge">
<title>Node32&#45;&gt;Node30</title>
<path fill="none" stroke="#191970" d="M925.2659,-110.3869C980.5066,-104.0979 1051.9991,-96.0123 1115.5,-89 1263.9021,-72.6122 1303.2657,-83.1213 1449.5,-53 1452.2544,-52.4327 1455.0466,-51.8141 1457.8577,-51.1543"/>
<polygon fill="#191970" stroke="#191970" points="924.6856,-106.9303 915.146,-111.5397 925.4779,-113.8853 924.6856,-106.9303"/>
</g>
<!-- Node33 -->
<g id="node16" class="node">
<title>Node33</title>
<g id="a_node16"><a xlink:href="../../d8/df7/BenchCathodeSegmentation_8cxx.html" target="_top" xlink:title="/home/runner/work/AliceO2\l/AliceO2/Detectors/MUON\l/MCH/Mapping/test/src/BenchCathode\lSegmentation.cxx">
<polygon fill="none" stroke="#000000" points="1044.5,-.5 1044.5,-52.5 1230.5,-52.5 1230.5,-.5 1044.5,-.5"/>
<text text-anchor="start" x="1052.5" y="-40.5" font-family="Helvetica,sans-Serif" font-size="10.00" fill="#000000">/home/runner/work/AliceO2</text>
<text text-anchor="start" x="1052.5" y="-29.5" font-family="Helvetica,sans-Serif" font-size="10.00" fill="#000000">/AliceO2/Detectors/MUON</text>
<text text-anchor="start" x="1052.5" y="-18.5" font-family="Helvetica,sans-Serif" font-size="10.00" fill="#000000">/MCH/Mapping/test/src/BenchCathode</text>
<text text-anchor="middle" x="1137.5" y="-7.5" font-family="Helvetica,sans-Serif" font-size="10.00" fill="#000000">Segmentation.cxx</text>
</a>
</g>
</g>
<!-- Node32&#45;&gt;Node33 -->
<g id="edge26" class="edge">
<title>Node32&#45;&gt;Node33</title>
<path fill="none" stroke="#191970" d="M924.7509,-92.4173C965.725,-79.7221 1013.6135,-64.8845 1053.5702,-52.5045"/>
<polygon fill="#191970" stroke="#191970" points="923.5535,-89.1241 915.0374,-95.4269 925.6253,-95.8105 923.5535,-89.1241"/>
</g>
<!-- Node34&#45;&gt;Node30 -->
<g id="edge30" class="edge">
<title>Node34&#45;&gt;Node30</title>
<path fill="none" stroke="#191970" d="M1369.0176,-362.128C1382.7246,-353.3273 1395.9252,-342.9513 1406.5,-331 1482.0197,-245.6496 1517.9836,-109.5843 1530.3294,-52.7671"/>
<polygon fill="#191970" stroke="#191970" points="1367.122,-359.1849 1360.4366,-367.4042 1370.7884,-365.1479 1367.122,-359.1849"/>
</g>
<!-- Node35 -->
<g id="node18" class="node">
<title>Node35</title>
<g id="a_node18"><a xlink:href="../../d5/d2d/MUON_2MCH_2Mapping_2test_2src_2Segmentation_8cxx.html" target="_top" xlink:title="/home/runner/work/AliceO2\l/AliceO2/Detectors/MUON\l/MCH/Mapping/test/src/Segmentation.cxx">
<polygon fill="none" stroke="#000000" points="1197.5,-284 1197.5,-325 1397.5,-325 1397.5,-284 1197.5,-284"/>
<text text-anchor="start" x="1205.5" y="-313" font-family="Helvetica,sans-Serif" font-size="10.00" fill="#000000">/home/runner/work/AliceO2</text>
<text text-anchor="start" x="1205.5" y="-302" font-family="Helvetica,sans-Serif" font-size="10.00" fill="#000000">/AliceO2/Detectors/MUON</text>
<text text-anchor="middle" x="1297.5" y="-291" font-family="Helvetica,sans-Serif" font-size="10.00" fill="#000000">/MCH/Mapping/test/src/Segmentation.cxx</text>
</a>
</g>
</g>
<!-- Node34&#45;&gt;Node35 -->
<g id="edge31" class="edge">
<title>Node34&#45;&gt;Node35</title>
<path fill="none" stroke="#191970" d="M1292.4804,-357.2063C1293.5436,-346.0427 1294.646,-334.4673 1295.5459,-325.0178"/>
<polygon fill="#191970" stroke="#191970" points="1288.9859,-356.9832 1291.5219,-367.27 1295.9543,-357.6469 1288.9859,-356.9832"/>
</g>
</g>
</svg>
