<?xml version="1.0" encoding="UTF-8" standalone="no"?>
<!DOCTYPE svg PUBLIC "-//W3C//DTD SVG 1.1//EN"
 "http://www.w3.org/Graphics/SVG/1.1/DTD/svg11.dtd">
<!-- Generated by graphviz version 2.40.1 (20161225.0304)
 -->
<!-- Title: /home/runner/work/AliceO2/AliceO2/Detectors/PHOS/simulation/include/PHOSSimulation/Digitizer.h Pages: 1 -->
<svg width="2654pt" height="419pt"
 viewBox="0.00 0.00 2653.50 419.00" xmlns="http://www.w3.org/2000/svg" xmlns:xlink="http://www.w3.org/1999/xlink">
<g id="graph0" class="graph" transform="scale(1 1) rotate(0) translate(4 415)">
<title>/home/runner/work/AliceO2/AliceO2/Detectors/PHOS/simulation/include/PHOSSimulation/Digitizer.h</title>
<!-- Node0 -->
<g id="node1" class="node">
<title>Node0</title>
<polygon fill="#bfbfbf" stroke="#000000" points="2015.5,-358.5 2015.5,-410.5 2190.5,-410.5 2190.5,-358.5 2015.5,-358.5"/>
<text text-anchor="start" x="2023.5" y="-398.5" font-family="Helvetica,sans-Serif" font-size="10.00" fill="#000000">/home/runner/work/AliceO2</text>
<text text-anchor="start" x="2023.5" y="-387.5" font-family="Helvetica,sans-Serif" font-size="10.00" fill="#000000">/AliceO2/Detectors/PHOS</text>
<text text-anchor="start" x="2023.5" y="-376.5" font-family="Helvetica,sans-Serif" font-size="10.00" fill="#000000">/simulation/include/PHOSSimulation</text>
<text text-anchor="middle" x="2103" y="-365.5" font-family="Helvetica,sans-Serif" font-size="10.00" fill="#000000">/Digitizer.h</text>
</g>
<!-- Node1 -->
<g id="node2" class="node">
<title>Node1</title>
<g id="a_node2"><a xlink:href="../../d3/d98/DataFormats_2Detectors_2PHOS_2include_2DataFormatsPHOS_2Digit_8h.html" target="_top" xlink:title="DataFormatsPHOS/Digit.h">
<polygon fill="none" stroke="#000000" points="1607,-241 1607,-260 1741,-260 1741,-241 1607,-241"/>
<text text-anchor="middle" x="1674" y="-248" font-family="Helvetica,sans-Serif" font-size="10.00" fill="#000000">DataFormatsPHOS/Digit.h</text>
</a>
</g>
</g>
<!-- Node0&#45;&gt;Node1 -->
<g id="edge1" class="edge">
<title>Node0&#45;&gt;Node1</title>
<path fill="none" stroke="#191970" d="M2019.5211,-358.425C1927.752,-329.7605 1784.1201,-284.8965 1714.5164,-263.1555"/>
<polygon fill="#191970" stroke="#191970" points="1715.3879,-259.761 1704.7991,-260.1202 1713.3008,-266.4426 1715.3879,-259.761"/>
</g>
<!-- Node9 -->
<g id="node10" class="node">
<title>Node9</title>
<g id="a_node10"><a xlink:href="../../d7/d7f/PHOS_2base_2include_2PHOSBase_2Geometry_8h.html" target="_top" xlink:title="PHOSBase/Geometry.h">
<polygon fill="none" stroke="#000000" points="2283,-302.5 2283,-321.5 2405,-321.5 2405,-302.5 2283,-302.5"/>
<text text-anchor="middle" x="2344" y="-309.5" font-family="Helvetica,sans-Serif" font-size="10.00" fill="#000000">PHOSBase/Geometry.h</text>
</a>
</g>
</g>
<!-- Node0&#45;&gt;Node9 -->
<g id="edge9" class="edge">
<title>Node0&#45;&gt;Node9</title>
<path fill="none" stroke="#191970" d="M2189.666,-358.4283C2228.1446,-346.8528 2271.632,-333.7705 2302.6149,-324.4499"/>
<polygon fill="#191970" stroke="#191970" points="2303.6449,-327.795 2312.2127,-321.5626 2301.6283,-321.0918 2303.6449,-327.795"/>
</g>
<!-- Node13 -->
<g id="node14" class="node">
<title>Node13</title>
<g id="a_node14"><a xlink:href="../../d2/d37/PHOS_2calib_2include_2PHOSCalib_2CalibParams_8h.html" target="_top" xlink:title="PHOSCalib/CalibParams.h">
<polygon fill="none" stroke="#000000" points="2481.5,-302.5 2481.5,-321.5 2616.5,-321.5 2616.5,-302.5 2481.5,-302.5"/>
<text text-anchor="middle" x="2549" y="-309.5" font-family="Helvetica,sans-Serif" font-size="10.00" fill="#000000">PHOSCalib/CalibParams.h</text>
</a>
</g>
</g>
<!-- Node0&#45;&gt;Node13 -->
<g id="edge14" class="edge">
<title>Node0&#45;&gt;Node13</title>
<path fill="none" stroke="#191970" d="M2190.5831,-370.2628C2275.4365,-356.4694 2402.3889,-335.8325 2480.221,-323.1804"/>
<polygon fill="#191970" stroke="#191970" points="2481.0904,-326.5852 2490.3992,-321.5259 2479.9671,-319.6758 2481.0904,-326.5852"/>
</g>
<!-- Node16 -->
<g id="node17" class="node">
<title>Node16</title>
<g id="a_node17"><a xlink:href="../../db/dad/Detectors_2PHOS_2base_2include_2PHOSBase_2Hit_8h.html" target="_top" xlink:title="PHOSBase/Hit.h">
<polygon fill="none" stroke="#000000" points="1413,-302.5 1413,-321.5 1505,-321.5 1505,-302.5 1413,-302.5"/>
<text text-anchor="middle" x="1459" y="-309.5" font-family="Helvetica,sans-Serif" font-size="10.00" fill="#000000">PHOSBase/Hit.h</text>
</a>
</g>
</g>
<!-- Node0&#45;&gt;Node16 -->
<g id="edge17" class="edge">
<title>Node0&#45;&gt;Node16</title>
<path fill="none" stroke="#191970" d="M2015.4771,-374.6469C1881.0774,-359.5165 1627.6449,-330.9856 1515.1914,-318.3259"/>
<polygon fill="#191970" stroke="#191970" points="1515.4084,-314.8283 1505.0796,-317.1875 1514.6253,-321.7844 1515.4084,-314.8283"/>
</g>
<!-- Node37 -->
<g id="node38" class="node">
<title>Node37</title>
<g id="a_node38"><a xlink:href="../../de/d0d/DataFormats_2Detectors_2PHOS_2include_2DataFormatsPHOS_2MCLabel_8h.html" target="_top" xlink:title="DataFormatsPHOS/MCLabel.h">
<polygon fill="none" stroke="#000000" points="2036,-302.5 2036,-321.5 2188,-321.5 2188,-302.5 2036,-302.5"/>
<text text-anchor="middle" x="2112" y="-309.5" font-family="Helvetica,sans-Serif" font-size="10.00" fill="#000000">DataFormatsPHOS/MCLabel.h</text>
</a>
</g>
</g>
<!-- Node0&#45;&gt;Node37 -->
<g id="edge41" class="edge">
<title>Node0&#45;&gt;Node37</title>
<path fill="none" stroke="#191970" d="M2106.2492,-358.3258C2107.3431,-349.5142 2108.544,-339.8397 2109.5643,-331.621"/>
<polygon fill="#191970" stroke="#191970" points="2113.0578,-331.889 2110.8165,-321.534 2106.1111,-331.0266 2113.0578,-331.889"/>
</g>
<!-- Node39 -->
<g id="node40" class="node">
<title>Node39</title>
<g id="a_node40"><a xlink:href="../../db/d14/MCTruthContainer_8h.html" target="_top" xlink:title="Definition of a container to keep Monte Carlo truth external to simulation objects. ">
<polygon fill="none" stroke="#000000" points="1922,-235.5 1922,-265.5 2036,-265.5 2036,-235.5 1922,-235.5"/>
<text text-anchor="start" x="1930" y="-253.5" font-family="Helvetica,sans-Serif" font-size="10.00" fill="#000000">SimulationDataFormat</text>
<text text-anchor="middle" x="1979" y="-242.5" font-family="Helvetica,sans-Serif" font-size="10.00" fill="#000000">/MCTruthContainer.h</text>
</a>
</g>
</g>
<!-- Node0&#45;&gt;Node39 -->
<g id="edge44" class="edge">
<title>Node0&#45;&gt;Node39</title>
<path fill="none" stroke="#191970" d="M2067.0645,-358.4791C2053.7203,-347.939 2038.9388,-335.1571 2027,-322 2013.8134,-307.4679 2001.5311,-289.0426 1992.692,-274.5361"/>
<polygon fill="#191970" stroke="#191970" points="1995.5263,-272.4545 1987.4058,-265.6494 1989.5102,-276.0331 1995.5263,-272.4545"/>
</g>
<!-- Node2 -->
<g id="node3" class="node">
<title>Node2</title>
<polygon fill="none" stroke="#bfbfbf" points="1527,-179.5 1527,-198.5 1571,-198.5 1571,-179.5 1527,-179.5"/>
<text text-anchor="middle" x="1549" y="-186.5" font-family="Helvetica,sans-Serif" font-size="10.00" fill="#000000">cmath</text>
</g>
<!-- Node1&#45;&gt;Node2 -->
<g id="edge2" class="edge">
<title>Node1&#45;&gt;Node2</title>
<path fill="none" stroke="#191970" d="M1654.4688,-240.8906C1633.8292,-230.7359 1601.0724,-214.6196 1577.5398,-203.0416"/>
<polygon fill="#191970" stroke="#191970" points="1578.912,-199.8161 1568.3941,-198.5419 1575.8218,-206.0971 1578.912,-199.8161"/>
</g>
<!-- Node3 -->
<g id="node4" class="node">
<title>Node3</title>
<g id="a_node4"><a xlink:href="../../df/d5d/common_2include_2CommonDataFormat_2TimeStamp_8h.html" target="_top" xlink:title="CommonDataFormat/TimeStamp.h">
<polygon fill="none" stroke="#000000" points="1589,-179.5 1589,-198.5 1759,-198.5 1759,-179.5 1589,-179.5"/>
<text text-anchor="middle" x="1674" y="-186.5" font-family="Helvetica,sans-Serif" font-size="10.00" fill="#000000">CommonDataFormat/TimeStamp.h</text>
</a>
</g>
</g>
<!-- Node1&#45;&gt;Node3 -->
<g id="edge3" class="edge">
<title>Node1&#45;&gt;Node3</title>
<path fill="none" stroke="#191970" d="M1674,-240.8906C1674,-232.3657 1674,-219.6392 1674,-208.9235"/>
<polygon fill="#191970" stroke="#191970" points="1677.5001,-208.7448 1674,-198.7449 1670.5001,-208.7449 1677.5001,-208.7448"/>
</g>
<!-- Node4 -->
<g id="node5" class="node">
<title>Node4</title>
<g id="a_node5"><a xlink:href="../../d2/d45/GPUCommonRtypes_8h.html" target="_top" xlink:title="GPUCommonRtypes.h">
<polygon fill="none" stroke="#000000" points="2118,-118 2118,-137 2236,-137 2236,-118 2118,-118"/>
<text text-anchor="middle" x="2177" y="-125" font-family="Helvetica,sans-Serif" font-size="10.00" fill="#000000">GPUCommonRtypes.h</text>
</a>
</g>
</g>
<!-- Node3&#45;&gt;Node4 -->
<g id="edge4" class="edge">
<title>Node3&#45;&gt;Node4</title>
<path fill="none" stroke="#191970" d="M1759.2682,-180.3536C1874.9097,-168.554 2070.9129,-148.2682 2104,-143 2111.1252,-141.8655 2118.6048,-140.4911 2125.9475,-139.035"/>
<polygon fill="#191970" stroke="#191970" points="2126.7336,-142.4467 2135.8292,-137.0133 2125.3306,-135.5887 2126.7336,-142.4467"/>
</g>
<!-- Node6 -->
<g id="node7" class="node">
<title>Node6</title>
<g id="a_node7"><a xlink:href="../../df/d21/GPUCommonDef_8h.html" target="_top" xlink:title="GPUCommonDef.h">
<polygon fill="none" stroke="#000000" points="1132,-56.5 1132,-75.5 1234,-75.5 1234,-56.5 1132,-56.5"/>
<text text-anchor="middle" x="1183" y="-63.5" font-family="Helvetica,sans-Serif" font-size="10.00" fill="#000000">GPUCommonDef.h</text>
</a>
</g>
</g>
<!-- Node3&#45;&gt;Node6 -->
<g id="edge6" class="edge">
<title>Node3&#45;&gt;Node6</title>
<path fill="none" stroke="#191970" d="M1759.0329,-181.994C1872.309,-172.2472 2059.7582,-154.5003 2070,-143 2079.1631,-132.7109 2079.4867,-121.9915 2070,-112 2041.5922,-82.0808 1440.599,-70.0354 1244.3732,-66.8908"/>
<polygon fill="#191970" stroke="#191970" points="1244.2886,-63.3891 1234.2345,-66.7305 1244.1779,-70.3882 1244.2886,-63.3891"/>
</g>
<!-- Node5 -->
<g id="node6" class="node">
<title>Node5</title>
<polygon fill="none" stroke="#bfbfbf" points="2232,-56.5 2232,-75.5 2288,-75.5 2288,-56.5 2232,-56.5"/>
<text text-anchor="middle" x="2260" y="-63.5" font-family="Helvetica,sans-Serif" font-size="10.00" fill="#000000">Rtypes.h</text>
</g>
<!-- Node4&#45;&gt;Node5 -->
<g id="edge5" class="edge">
<title>Node4&#45;&gt;Node5</title>
<path fill="none" stroke="#191970" d="M2189.9688,-117.8906C2203.0034,-108.2324 2223.3164,-93.1812 2238.7155,-81.771"/>
<polygon fill="#191970" stroke="#191970" points="2241.1713,-84.3075 2247.1223,-75.5419 2237.0039,-78.6832 2241.1713,-84.3075"/>
</g>
<!-- Node7 -->
<g id="node8" class="node">
<title>Node7</title>
<g id="a_node8"><a xlink:href="../../d5/d93/GPUCommonDefSettings_8h.html" target="_top" xlink:title="GPUCommonDefSettings.h">
<polygon fill="none" stroke="#000000" points="1041,-.5 1041,-19.5 1179,-19.5 1179,-.5 1041,-.5"/>
<text text-anchor="middle" x="1110" y="-7.5" font-family="Helvetica,sans-Serif" font-size="10.00" fill="#000000">GPUCommonDefSettings.h</text>
</a>
</g>
</g>
<!-- Node6&#45;&gt;Node7 -->
<g id="edge7" class="edge">
<title>Node6&#45;&gt;Node7</title>
<path fill="none" stroke="#191970" d="M1170.2844,-56.2455C1159.398,-47.8943 1143.5117,-35.7076 1130.78,-25.9408"/>
<polygon fill="#191970" stroke="#191970" points="1132.6346,-22.9523 1122.5699,-19.6427 1128.3739,-28.5063 1132.6346,-22.9523"/>
</g>
<!-- Node8 -->
<g id="node9" class="node">
<title>Node8</title>
<g id="a_node9"><a xlink:href="../../da/d5a/GPUCommonDefAPI_8h.html" target="_top" xlink:title="GPUCommonDefAPI.h">
<polygon fill="none" stroke="#000000" points="1197.5,-.5 1197.5,-19.5 1316.5,-19.5 1316.5,-.5 1197.5,-.5"/>
<text text-anchor="middle" x="1257" y="-7.5" font-family="Helvetica,sans-Serif" font-size="10.00" fill="#000000">GPUCommonDefAPI.h</text>
</a>
</g>
</g>
<!-- Node6&#45;&gt;Node8 -->
<g id="edge8" class="edge">
<title>Node6&#45;&gt;Node8</title>
<path fill="none" stroke="#191970" d="M1195.8898,-56.2455C1206.9254,-47.8943 1223.0292,-35.7076 1235.9353,-25.9408"/>
<polygon fill="#191970" stroke="#191970" points="1238.3959,-28.4681 1244.2579,-19.6427 1234.1717,-22.8862 1238.3959,-28.4681"/>
</g>
<!-- Node9&#45;&gt;Node5 -->
<g id="edge11" class="edge">
<title>Node9&#45;&gt;Node5</title>
<path fill="none" stroke="#191970" d="M2341.8062,-302.4403C2338.3835,-287.8077 2331.3943,-259.025 2324,-235 2306.9937,-179.7445 2281.3095,-116.4715 2268.252,-85.3532"/>
<polygon fill="#191970" stroke="#191970" points="2271.3116,-83.6019 2264.1949,-75.7532 2264.8638,-86.3269 2271.3116,-83.6019"/>
</g>
<!-- Node10 -->
<g id="node11" class="node">
<title>Node10</title>
<polygon fill="none" stroke="#bfbfbf" points="2372.5,-241 2372.5,-260 2413.5,-260 2413.5,-241 2372.5,-241"/>
<text text-anchor="middle" x="2393" y="-248" font-family="Helvetica,sans-Serif" font-size="10.00" fill="#000000">string</text>
</g>
<!-- Node9&#45;&gt;Node10 -->
<g id="edge10" class="edge">
<title>Node9&#45;&gt;Node10</title>
<path fill="none" stroke="#191970" d="M2351.6563,-302.3906C2358.9489,-293.2376 2370.1007,-279.2409 2378.9852,-268.09"/>
<polygon fill="#191970" stroke="#191970" points="2381.7417,-270.247 2385.2358,-260.2449 2376.267,-265.8849 2381.7417,-270.247"/>
</g>
<!-- Node11 -->
<g id="node12" class="node">
<title>Node11</title>
<polygon fill="none" stroke="#bfbfbf" points="2432,-241 2432,-260 2512,-260 2512,-241 2432,-241"/>
<text text-anchor="middle" x="2472" y="-248" font-family="Helvetica,sans-Serif" font-size="10.00" fill="#000000">RStringView.h</text>
</g>
<!-- Node9&#45;&gt;Node11 -->
<g id="edge12" class="edge">
<title>Node9&#45;&gt;Node11</title>
<path fill="none" stroke="#191970" d="M2364,-302.3906C2385.2289,-292.1908 2418.9762,-275.9763 2443.096,-264.3875"/>
<polygon fill="#191970" stroke="#191970" points="2444.6426,-267.5275 2452.1404,-260.0419 2441.6111,-261.2179 2444.6426,-267.5275"/>
</g>
<!-- Node12 -->
<g id="node13" class="node">
<title>Node12</title>
<polygon fill="none" stroke="#bfbfbf" points="2262.5,-241 2262.5,-260 2315.5,-260 2315.5,-241 2262.5,-241"/>
<text text-anchor="middle" x="2289" y="-248" font-family="Helvetica,sans-Serif" font-size="10.00" fill="#000000">TMath.h</text>
</g>
<!-- Node9&#45;&gt;Node12 -->
<g id="edge13" class="edge">
<title>Node9&#45;&gt;Node12</title>
<path fill="none" stroke="#191970" d="M2335.4063,-302.3906C2327.1403,-293.1478 2314.4574,-278.966 2304.4383,-267.7628"/>
<polygon fill="#191970" stroke="#191970" points="2306.99,-265.3657 2297.7149,-260.2449 2301.7722,-270.0321 2306.99,-265.3657"/>
</g>
<!-- Node14 -->
<g id="node15" class="node">
<title>Node14</title>
<polygon fill="none" stroke="#bfbfbf" points="2530,-241 2530,-260 2568,-260 2568,-241 2530,-241"/>
<text text-anchor="middle" x="2549" y="-248" font-family="Helvetica,sans-Serif" font-size="10.00" fill="#000000">array</text>
</g>
<!-- Node13&#45;&gt;Node14 -->
<g id="edge15" class="edge">
<title>Node13&#45;&gt;Node14</title>
<path fill="none" stroke="#191970" d="M2549,-302.3906C2549,-293.8657 2549,-281.1392 2549,-270.4235"/>
<polygon fill="#191970" stroke="#191970" points="2552.5001,-270.2448 2549,-260.2449 2545.5001,-270.2449 2552.5001,-270.2448"/>
</g>
<!-- Node15 -->
<g id="node16" class="node">
<title>Node15</title>
<polygon fill="none" stroke="#bfbfbf" points="2586.5,-241 2586.5,-260 2645.5,-260 2645.5,-241 2586.5,-241"/>
<text text-anchor="middle" x="2616" y="-248" font-family="Helvetica,sans-Serif" font-size="10.00" fill="#000000">TObject.h</text>
</g>
<!-- Node13&#45;&gt;Node15 -->
<g id="edge16" class="edge">
<title>Node13&#45;&gt;Node15</title>
<path fill="none" stroke="#191970" d="M2559.4688,-302.3906C2569.7337,-292.9683 2585.5903,-278.4134 2597.9006,-267.1137"/>
<polygon fill="#191970" stroke="#191970" points="2600.3834,-269.5856 2605.3837,-260.2449 2595.6499,-264.4287 2600.3834,-269.5856"/>
</g>
<!-- Node17 -->
<g id="node18" class="node">
<title>Node17</title>
<g id="a_node18"><a xlink:href="../../d4/d25/BaseHits_8h.html" target="_top" xlink:title="SimulationDataFormat\l/BaseHits.h">
<polygon fill="none" stroke="#000000" points="1402,-235.5 1402,-265.5 1516,-265.5 1516,-235.5 1402,-235.5"/>
<text text-anchor="start" x="1410" y="-253.5" font-family="Helvetica,sans-Serif" font-size="10.00" fill="#000000">SimulationDataFormat</text>
<text text-anchor="middle" x="1459" y="-242.5" font-family="Helvetica,sans-Serif" font-size="10.00" fill="#000000">/BaseHits.h</text>
</a>
</g>
</g>
<!-- Node16&#45;&gt;Node17 -->
<g id="edge18" class="edge">
<title>Node16&#45;&gt;Node17</title>
<path fill="none" stroke="#191970" d="M1459,-302.3906C1459,-295.2234 1459,-285.0862 1459,-275.671"/>
<polygon fill="#191970" stroke="#191970" points="1462.5001,-275.5446 1459,-265.5446 1455.5001,-275.5446 1462.5001,-275.5446"/>
</g>
<!-- Node29 -->
<g id="node30" class="node">
<title>Node29</title>
<g id="a_node30"><a xlink:href="../../d0/d91/ShmAllocator_8h.html" target="_top" xlink:title="CommonUtils/ShmAllocator.h">
<polygon fill="none" stroke="#000000" points="1238,-241 1238,-260 1384,-260 1384,-241 1238,-241"/>
<text text-anchor="middle" x="1311" y="-248" font-family="Helvetica,sans-Serif" font-size="10.00" fill="#000000">CommonUtils/ShmAllocator.h</text>
</a>
</g>
</g>
<!-- Node16&#45;&gt;Node29 -->
<g id="edge33" class="edge">
<title>Node16&#45;&gt;Node29</title>
<path fill="none" stroke="#191970" d="M1435.875,-302.3906C1411.0033,-292.0554 1371.2702,-275.5447 1343.3156,-263.9284"/>
<polygon fill="#191970" stroke="#191970" points="1344.5402,-260.6472 1333.9626,-260.0419 1341.854,-267.1113 1344.5402,-260.6472"/>
</g>
<!-- Node18 -->
<g id="node19" class="node">
<title>Node18</title>
<g id="a_node19"><a xlink:href="../../dc/d73/Cartesian_8h.html" target="_top" xlink:title="MathUtils/Cartesian.h">
<polygon fill="none" stroke="#000000" points="1329,-179.5 1329,-198.5 1441,-198.5 1441,-179.5 1329,-179.5"/>
<text text-anchor="middle" x="1385" y="-186.5" font-family="Helvetica,sans-Serif" font-size="10.00" fill="#000000">MathUtils/Cartesian.h</text>
</a>
</g>
</g>
<!-- Node17&#45;&gt;Node18 -->
<g id="edge19" class="edge">
<title>Node17&#45;&gt;Node18</title>
<path fill="none" stroke="#191970" d="M1440.7079,-235.2977C1429.7939,-226.2274 1415.9329,-214.7077 1404.7676,-205.4285"/>
<polygon fill="#191970" stroke="#191970" points="1406.7762,-202.5468 1396.8483,-198.8469 1402.302,-207.9303 1406.7762,-202.5468"/>
</g>
<!-- Node18&#45;&gt;Node4 -->
<g id="edge21" class="edge">
<title>Node18&#45;&gt;Node4</title>
<path fill="none" stroke="#191970" d="M1441.3277,-180.0005C1444.2574,-179.6369 1447.1614,-179.3001 1450,-179 1724.4901,-149.9821 1795.385,-170.8112 2070,-143 2082.3042,-141.7539 2095.3625,-140.1225 2107.9718,-138.3867"/>
<polygon fill="#191970" stroke="#191970" points="2108.5516,-141.8397 2117.9649,-136.9776 2107.5742,-134.9082 2108.5516,-141.8397"/>
</g>
<!-- Node18&#45;&gt;Node6 -->
<g id="edge20" class="edge">
<title>Node18&#45;&gt;Node6</title>
<path fill="none" stroke="#191970" d="M1328.5529,-181.2771C1281.5949,-173.7214 1219.6821,-160.7591 1202,-143 1187.0177,-127.9524 1183.1913,-103.0909 1182.5171,-85.7005"/>
<polygon fill="#191970" stroke="#191970" points="1186.0158,-85.504 1182.4436,-75.5296 1179.016,-85.5546 1186.0158,-85.504"/>
</g>
<!-- Node19 -->
<g id="node20" class="node">
<title>Node19</title>
<polygon fill="none" stroke="#bfbfbf" points="1910.5,-112.5 1910.5,-142.5 2061.5,-142.5 2061.5,-112.5 1910.5,-112.5"/>
<text text-anchor="start" x="1918.5" y="-130.5" font-family="Helvetica,sans-Serif" font-size="10.00" fill="#000000">Math/GenVector/Displacement</text>
<text text-anchor="middle" x="1986" y="-119.5" font-family="Helvetica,sans-Serif" font-size="10.00" fill="#000000">Vector3D.h</text>
</g>
<!-- Node18&#45;&gt;Node19 -->
<g id="edge22" class="edge">
<title>Node18&#45;&gt;Node19</title>
<path fill="none" stroke="#191970" d="M1441.3361,-180.0755C1444.2636,-179.6923 1447.1649,-179.3308 1450,-179 1646.5089,-156.072 1699.9045,-168.6481 1900.1041,-143.0291"/>
<polygon fill="#191970" stroke="#191970" points="1900.5922,-146.4952 1910.0596,-141.7393 1899.6928,-139.5532 1900.5922,-146.4952"/>
</g>
<!-- Node20 -->
<g id="node21" class="node">
<title>Node20</title>
<polygon fill="none" stroke="#bfbfbf" points="484,-118 484,-137 660,-137 660,-118 484,-118"/>
<text text-anchor="middle" x="572" y="-125" font-family="Helvetica,sans-Serif" font-size="10.00" fill="#000000">Math/GenVector/PositionVector3D.h</text>
</g>
<!-- Node18&#45;&gt;Node20 -->
<g id="edge23" class="edge">
<title>Node18&#45;&gt;Node20</title>
<path fill="none" stroke="#191970" d="M1328.5994,-187.2238C1207.378,-183.002 913.1162,-170.5864 668,-143 657.339,-141.8002 646.0554,-140.2409 635.1153,-138.5746"/>
<polygon fill="#191970" stroke="#191970" points="635.6134,-135.1101 625.1924,-137.0215 634.5309,-142.0259 635.6134,-135.1101"/>
</g>
<!-- Node21 -->
<g id="node22" class="node">
<title>Node21</title>
<polygon fill="none" stroke="#bfbfbf" points="677.5,-118 677.5,-137 826.5,-137 826.5,-118 677.5,-118"/>
<text text-anchor="middle" x="752" y="-125" font-family="Helvetica,sans-Serif" font-size="10.00" fill="#000000">Math/GenVector/Rotation3D.h</text>
</g>
<!-- Node18&#45;&gt;Node21 -->
<g id="edge24" class="edge">
<title>Node18&#45;&gt;Node21</title>
<path fill="none" stroke="#191970" d="M1328.6882,-186.1239C1229.0242,-180.6235 1015.1746,-166.9776 836,-143 827.2429,-141.8281 818.0122,-140.3622 809.0027,-138.8025"/>
<polygon fill="#191970" stroke="#191970" points="809.4208,-135.3219 798.9617,-137.0125 808.1922,-142.2133 809.4208,-135.3219"/>
</g>
<!-- Node22 -->
<g id="node23" class="node">
<title>Node22</title>
<polygon fill="none" stroke="#bfbfbf" points="999,-118 999,-137 1155,-137 1155,-118 999,-118"/>
<text text-anchor="middle" x="1077" y="-125" font-family="Helvetica,sans-Serif" font-size="10.00" fill="#000000">Math/GenVector/Transform3D.h</text>
</g>
<!-- Node18&#45;&gt;Node22 -->
<g id="edge25" class="edge">
<title>Node18&#45;&gt;Node22</title>
<path fill="none" stroke="#191970" d="M1337.2129,-179.4581C1282.5063,-168.5345 1192.934,-150.6492 1134.4677,-138.9749"/>
<polygon fill="#191970" stroke="#191970" points="1135.1375,-135.5396 1124.6457,-137.0137 1133.7668,-142.4041 1135.1375,-135.5396"/>
</g>
<!-- Node23 -->
<g id="node24" class="node">
<title>Node23</title>
<polygon fill="none" stroke="#bfbfbf" points="1211,-118 1211,-137 1371,-137 1371,-118 1211,-118"/>
<text text-anchor="middle" x="1291" y="-125" font-family="Helvetica,sans-Serif" font-size="10.00" fill="#000000">Math/GenVector/Translation3D.h</text>
</g>
<!-- Node18&#45;&gt;Node23 -->
<g id="edge26" class="edge">
<title>Node18&#45;&gt;Node23</title>
<path fill="none" stroke="#191970" d="M1370.3125,-179.3906C1355.2744,-169.5519 1331.6824,-154.1167 1314.1333,-142.6351"/>
<polygon fill="#191970" stroke="#191970" points="1315.8687,-139.588 1305.5844,-137.0419 1312.0363,-145.4457 1315.8687,-139.588"/>
</g>
<!-- Node24 -->
<g id="node25" class="node">
<title>Node24</title>
<polygon fill="none" stroke="#bfbfbf" points="1389.5,-112.5 1389.5,-142.5 1540.5,-142.5 1540.5,-112.5 1389.5,-112.5"/>
<text text-anchor="start" x="1397.5" y="-130.5" font-family="Helvetica,sans-Serif" font-size="10.00" fill="#000000">Math/GenVector/Displacement</text>
<text text-anchor="middle" x="1465" y="-119.5" font-family="Helvetica,sans-Serif" font-size="10.00" fill="#000000">Vector2D.h</text>
</g>
<!-- Node18&#45;&gt;Node24 -->
<g id="edge27" class="edge">
<title>Node18&#45;&gt;Node24</title>
<path fill="none" stroke="#191970" d="M1397.5,-179.3906C1408.1265,-171.2215 1423.7719,-159.1941 1437.325,-148.7752"/>
<polygon fill="#191970" stroke="#191970" points="1439.6349,-151.4142 1445.4298,-142.5446 1435.3685,-145.8645 1439.6349,-151.4142"/>
</g>
<!-- Node25 -->
<g id="node26" class="node">
<title>Node25</title>
<polygon fill="none" stroke="#bfbfbf" points="1559,-118 1559,-137 1735,-137 1735,-118 1559,-118"/>
<text text-anchor="middle" x="1647" y="-125" font-family="Helvetica,sans-Serif" font-size="10.00" fill="#000000">Math/GenVector/PositionVector2D.h</text>
</g>
<!-- Node18&#45;&gt;Node25 -->
<g id="edge28" class="edge">
<title>Node18&#45;&gt;Node25</title>
<path fill="none" stroke="#191970" d="M1425.65,-179.4581C1471.6382,-168.6632 1546.5905,-151.0694 1596.3473,-139.3899"/>
<polygon fill="#191970" stroke="#191970" points="1597.3191,-142.757 1606.2546,-137.0643 1595.7194,-135.9422 1597.3191,-142.757"/>
</g>
<!-- Node26 -->
<g id="node27" class="node">
<title>Node26</title>
<polygon fill="none" stroke="#bfbfbf" points="1753,-118 1753,-137 1829,-137 1829,-118 1753,-118"/>
<text text-anchor="middle" x="1791" y="-125" font-family="Helvetica,sans-Serif" font-size="10.00" fill="#000000">TGeoMatrix.h</text>
</g>
<!-- Node18&#45;&gt;Node26 -->
<g id="edge29" class="edge">
<title>Node18&#45;&gt;Node26</title>
<path fill="none" stroke="#191970" d="M1441.0038,-180.272C1444.0456,-179.8329 1447.0594,-179.4061 1450,-179 1580.4047,-160.9893 1615.536,-171.7539 1744,-143 1747.6525,-142.1825 1751.4229,-141.1943 1755.1653,-140.1173"/>
<polygon fill="#191970" stroke="#191970" points="1756.3806,-143.4053 1764.9061,-137.1151 1754.3188,-136.7159 1756.3806,-143.4053"/>
</g>
<!-- Node27 -->
<g id="node28" class="node">
<title>Node27</title>
<polygon fill="none" stroke="#bfbfbf" points="1847.5,-118 1847.5,-137 1892.5,-137 1892.5,-118 1847.5,-118"/>
<text text-anchor="middle" x="1870" y="-125" font-family="Helvetica,sans-Serif" font-size="10.00" fill="#000000">iosfwd</text>
</g>
<!-- Node18&#45;&gt;Node27 -->
<g id="edge30" class="edge">
<title>Node18&#45;&gt;Node27</title>
<path fill="none" stroke="#191970" d="M1441.3414,-180.12C1444.2675,-179.7252 1447.167,-179.349 1450,-179 1621.8855,-157.8234 1671.1724,-189.4933 1838,-143 1839.9177,-142.4656 1841.8601,-141.8198 1843.7905,-141.0992"/>
<polygon fill="#191970" stroke="#191970" points="1845.3834,-144.2236 1853.173,-137.0421 1842.6052,-137.7986 1845.3834,-144.2236"/>
</g>
<!-- Node28 -->
<g id="node29" class="node">
<title>Node28</title>
<g id="a_node29"><a xlink:href="../../d1/da8/GPUROOTCartesianFwd_8h.html" target="_top" xlink:title="GPUROOTCartesianFwd.h">
<polygon fill="none" stroke="#000000" points="845,-118 845,-137 981,-137 981,-118 845,-118"/>
<text text-anchor="middle" x="913" y="-125" font-family="Helvetica,sans-Serif" font-size="10.00" fill="#000000">GPUROOTCartesianFwd.h</text>
</a>
</g>
</g>
<!-- Node18&#45;&gt;Node28 -->
<g id="edge31" class="edge">
<title>Node18&#45;&gt;Node28</title>
<path fill="none" stroke="#191970" d="M1328.8725,-183.9382C1252.1081,-176.6796 1110.1806,-162.0605 990,-143 982.6021,-141.8267 974.8339,-140.4433 967.1948,-138.994"/>
<polygon fill="#191970" stroke="#191970" points="967.7533,-135.5371 957.2689,-137.0628 966.4164,-142.4082 967.7533,-135.5371"/>
</g>
<!-- Node28&#45;&gt;Node6 -->
<g id="edge32" class="edge">
<title>Node28&#45;&gt;Node6</title>
<path fill="none" stroke="#191970" d="M954.8913,-117.9581C1002.3826,-107.1406 1079.8472,-89.4959 1131.1215,-77.8168"/>
<polygon fill="#191970" stroke="#191970" points="1132.0375,-81.1978 1141.0105,-75.5643 1130.4829,-74.3727 1132.0375,-81.1978"/>
</g>
<!-- Node30 -->
<g id="node31" class="node">
<title>Node30</title>
<g id="a_node31"><a xlink:href="../../de/d61/ShmManager_8h.html" target="_top" xlink:title="CommonUtils/ShmManager.h">
<polygon fill="none" stroke="#000000" points="198,-179.5 198,-198.5 344,-198.5 344,-179.5 198,-179.5"/>
<text text-anchor="middle" x="271" y="-186.5" font-family="Helvetica,sans-Serif" font-size="10.00" fill="#000000">CommonUtils/ShmManager.h</text>
</a>
</g>
</g>
<!-- Node29&#45;&gt;Node30 -->
<g id="edge34" class="edge">
<title>Node29&#45;&gt;Node30</title>
<path fill="none" stroke="#191970" d="M1237.8692,-246.1754C1050.1797,-235.0765 552.3186,-205.6357 354.1136,-193.9149"/>
<polygon fill="#191970" stroke="#191970" points="354.2392,-190.4163 344.05,-193.3198 353.8259,-197.4041 354.2392,-190.4163"/>
</g>
<!-- Node36 -->
<g id="node37" class="node">
<title>Node36</title>
<polygon fill="none" stroke="#bfbfbf" points="1459.5,-179.5 1459.5,-198.5 1508.5,-198.5 1508.5,-179.5 1459.5,-179.5"/>
<text text-anchor="middle" x="1484" y="-186.5" font-family="Helvetica,sans-Serif" font-size="10.00" fill="#000000">cassert</text>
</g>
<!-- Node29&#45;&gt;Node36 -->
<g id="edge40" class="edge">
<title>Node29&#45;&gt;Node36</title>
<path fill="none" stroke="#191970" d="M1338.0313,-240.8906C1368.1741,-230.1751 1416.9907,-212.8212 1449.7756,-201.1665"/>
<polygon fill="#191970" stroke="#191970" points="1451.1471,-204.3936 1459.397,-197.7461 1448.8023,-197.7979 1451.1471,-204.3936"/>
</g>
<!-- Node31 -->
<g id="node32" class="node">
<title>Node31</title>
<polygon fill="none" stroke="#bfbfbf" points="202.5,-118 202.5,-137 231.5,-137 231.5,-118 202.5,-118"/>
<text text-anchor="middle" x="217" y="-125" font-family="Helvetica,sans-Serif" font-size="10.00" fill="#000000">list</text>
</g>
<!-- Node30&#45;&gt;Node31 -->
<g id="edge35" class="edge">
<title>Node30&#45;&gt;Node31</title>
<path fill="none" stroke="#191970" d="M262.5625,-179.3906C254.4469,-170.1478 241.9945,-155.966 232.1576,-144.7628"/>
<polygon fill="#191970" stroke="#191970" points="234.7846,-142.45 225.5565,-137.2449 229.5245,-147.0686 234.7846,-142.45"/>
</g>
<!-- Node32 -->
<g id="node33" class="node">
<title>Node32</title>
<polygon fill="none" stroke="#bfbfbf" points="416.5,-118 416.5,-137 465.5,-137 465.5,-118 416.5,-118"/>
<text text-anchor="middle" x="441" y="-125" font-family="Helvetica,sans-Serif" font-size="10.00" fill="#000000">cstddef</text>
</g>
<!-- Node30&#45;&gt;Node32 -->
<g id="edge36" class="edge">
<title>Node30&#45;&gt;Node32</title>
<path fill="none" stroke="#191970" d="M302.1115,-179.4695C329.8891,-170.7263 371.5419,-157.037 407,-143 408.5758,-142.3762 410.1841,-141.7183 411.8018,-141.0397"/>
<polygon fill="#191970" stroke="#191970" points="413.2443,-144.229 421.0095,-137.0213 410.4443,-137.8134 413.2443,-144.229"/>
</g>
<!-- Node33 -->
<g id="node34" class="node">
<title>Node33</title>
<polygon fill="none" stroke="#bfbfbf" points="0,-118 0,-137 46,-137 46,-118 0,-118"/>
<text text-anchor="middle" x="23" y="-125" font-family="Helvetica,sans-Serif" font-size="10.00" fill="#000000">atomic</text>
</g>
<!-- Node30&#45;&gt;Node33 -->
<g id="edge37" class="edge">
<title>Node30&#45;&gt;Node33</title>
<path fill="none" stroke="#191970" d="M206.5797,-179.4699C163.0524,-172.019 104.6852,-160.0433 55,-143 53.3943,-142.4492 51.7643,-141.8379 50.1337,-141.1854"/>
<polygon fill="#191970" stroke="#191970" points="51.5163,-137.9699 40.9545,-137.133 48.6891,-144.3736 51.5163,-137.9699"/>
</g>
<!-- Node34 -->
<g id="node35" class="node">
<title>Node34</title>
<polygon fill="none" stroke="#bfbfbf" points="250,-112.5 250,-142.5 398,-142.5 398,-112.5 250,-112.5"/>
<text text-anchor="start" x="258" y="-130.5" font-family="Helvetica,sans-Serif" font-size="10.00" fill="#000000">boost/interprocess</text>
<text text-anchor="middle" x="324" y="-119.5" font-family="Helvetica,sans-Serif" font-size="10.00" fill="#000000">/managed_external_buffer.hpp</text>
</g>
<!-- Node30&#45;&gt;Node34 -->
<g id="edge38" class="edge">
<title>Node30&#45;&gt;Node34</title>
<path fill="none" stroke="#191970" d="M279.2813,-179.3906C285.9892,-171.6068 295.7159,-160.3202 304.3859,-150.2597"/>
<polygon fill="#191970" stroke="#191970" points="307.1578,-152.4046 311.0347,-142.5446 301.8552,-147.8349 307.1578,-152.4046"/>
</g>
<!-- Node35 -->
<g id="node36" class="node">
<title>Node35</title>
<polygon fill="none" stroke="#bfbfbf" points="64,-112.5 64,-142.5 184,-142.5 184,-112.5 64,-112.5"/>
<text text-anchor="start" x="72" y="-130.5" font-family="Helvetica,sans-Serif" font-size="10.00" fill="#000000">boost/interprocess</text>
<text text-anchor="middle" x="124" y="-119.5" font-family="Helvetica,sans-Serif" font-size="10.00" fill="#000000">/allocators/allocator.hpp</text>
</g>
<!-- Node30&#45;&gt;Node35 -->
<g id="edge39" class="edge">
<title>Node30&#45;&gt;Node35</title>
<path fill="none" stroke="#191970" d="M248.0313,-179.3906C227.0313,-170.6049 195.3648,-157.3567 169.2855,-146.446"/>
<polygon fill="#191970" stroke="#191970" points="170.5363,-143.1754 159.9602,-142.5446 167.8346,-149.633 170.5363,-143.1754"/>
</g>
<!-- Node38 -->
<g id="node39" class="node">
<title>Node38</title>
<g id="a_node39"><a xlink:href="../../d7/dcd/MCCompLabel_8h.html" target="_top" xlink:title="SimulationDataFormat\l/MCCompLabel.h">
<polygon fill="none" stroke="#000000" points="2088,-235.5 2088,-265.5 2202,-265.5 2202,-235.5 2088,-235.5"/>
<text text-anchor="start" x="2096" y="-253.5" font-family="Helvetica,sans-Serif" font-size="10.00" fill="#000000">SimulationDataFormat</text>
<text text-anchor="middle" x="2145" y="-242.5" font-family="Helvetica,sans-Serif" font-size="10.00" fill="#000000">/MCCompLabel.h</text>
</a>
</g>
</g>
<!-- Node37&#45;&gt;Node38 -->
<g id="edge42" class="edge">
<title>Node37&#45;&gt;Node38</title>
<path fill="none" stroke="#191970" d="M2117.1563,-302.3906C2121.1675,-294.9151 2126.9124,-284.2087 2132.1432,-274.4605"/>
<polygon fill="#191970" stroke="#191970" points="2135.2831,-276.0111 2136.9273,-265.5446 2129.115,-272.7013 2135.2831,-276.0111"/>
</g>
<!-- Node38&#45;&gt;Node4 -->
<g id="edge43" class="edge">
<title>Node38&#45;&gt;Node4</title>
<path fill="none" stroke="#191970" d="M2202.2219,-236.8913C2237.0367,-227.3238 2276.7258,-213.6552 2287,-199 2306.504,-171.1793 2265.9295,-151.5039 2228.6692,-139.9274"/>
<polygon fill="#191970" stroke="#191970" points="2229.3866,-136.49 2218.8049,-137.018 2227.4062,-143.2041 2229.3866,-136.49"/>
</g>
<!-- Node39&#45;&gt;Node4 -->
<g id="edge45" class="edge">
<title>Node39&#45;&gt;Node4</title>
<path fill="none" stroke="#191970" d="M1921.977,-245.8086C1858.4477,-238.4651 1769.1896,-220.525 1806,-179 1850.2479,-129.085 2038.1992,-153.938 2104,-143 2110.7838,-141.8723 2117.8927,-140.546 2124.9002,-139.1518"/>
<polygon fill="#191970" stroke="#191970" points="2125.9497,-142.5096 2135.0449,-137.0758 2124.5463,-135.6517 2125.9497,-142.5096"/>
</g>
<!-- Node39&#45;&gt;Node36 -->
<g id="edge47" class="edge">
<title>Node39&#45;&gt;Node36</title>
<path fill="none" stroke="#191970" d="M1921.7279,-247.3289C1835.9564,-241.8719 1669.0549,-228.5155 1518.6398,-198.8059"/>
<polygon fill="#191970" stroke="#191970" points="1519.2499,-195.3586 1508.7571,-196.8252 1517.8743,-202.2222 1519.2499,-195.3586"/>
</g>
<!-- Node40 -->
<g id="node41" class="node">
<title>Node40</title>
<polygon fill="none" stroke="#bfbfbf" points="2011,-179.5 2011,-198.5 2057,-198.5 2057,-179.5 2011,-179.5"/>
<text text-anchor="middle" x="2034" y="-186.5" font-family="Helvetica,sans-Serif" font-size="10.00" fill="#000000">cstdint</text>
</g>
<!-- Node39&#45;&gt;Node40 -->
<g id="edge46" class="edge">
<title>Node39&#45;&gt;Node40</title>
<path fill="none" stroke="#191970" d="M1992.5955,-235.2977C2000.3891,-226.5831 2010.2047,-215.6075 2018.3226,-206.5302"/>
<polygon fill="#191970" stroke="#191970" points="2021.1365,-208.6341 2025.1938,-198.8469 2015.9187,-203.9678 2021.1365,-208.6341"/>
</g>
<!-- Node41 -->
<g id="node42" class="node">
<title>Node41</title>
<polygon fill="none" stroke="#bfbfbf" points="2075.5,-179.5 2075.5,-198.5 2134.5,-198.5 2134.5,-179.5 2075.5,-179.5"/>
<text text-anchor="middle" x="2105" y="-186.5" font-family="Helvetica,sans-Serif" font-size="10.00" fill="#000000">stdexcept</text>
</g>
<!-- Node39&#45;&gt;Node41 -->
<g id="edge48" class="edge">
<title>Node39&#45;&gt;Node41</title>
<path fill="none" stroke="#191970" d="M2009.8231,-235.4554C2030.1088,-225.554 2056.4788,-212.683 2076.3162,-203.0004"/>
<polygon fill="#191970" stroke="#191970" points="2078.023,-206.062 2085.4745,-198.5303 2074.9526,-199.7714 2078.023,-206.062"/>
</g>
<!-- Node42 -->
<g id="node43" class="node">
<title>Node42</title>
<polygon fill="none" stroke="#bfbfbf" points="2152.5,-179.5 2152.5,-198.5 2197.5,-198.5 2197.5,-179.5 2152.5,-179.5"/>
<text text-anchor="middle" x="2175" y="-186.5" font-family="Helvetica,sans-Serif" font-size="10.00" fill="#000000">gsl/gsl</text>
</g>
<!-- Node39&#45;&gt;Node42 -->
<g id="edge49" class="edge">
<title>Node39&#45;&gt;Node42</title>
<path fill="none" stroke="#191970" d="M2026.947,-235.4554C2062.9438,-224.1605 2111.2565,-209.0012 2142.7511,-199.1189"/>
<polygon fill="#191970" stroke="#191970" points="2143.8553,-202.4408 2152.3488,-196.1074 2141.7596,-195.7618 2143.8553,-202.4408"/>
</g>
<!-- Node43 -->
<g id="node44" class="node">
<title>Node43</title>
<polygon fill="none" stroke="#bfbfbf" points="2216,-179.5 2216,-198.5 2278,-198.5 2278,-179.5 2216,-179.5"/>
<text text-anchor="middle" x="2247" y="-186.5" font-family="Helvetica,sans-Serif" font-size="10.00" fill="#000000">type_traits</text>
</g>
<!-- Node39&#45;&gt;Node43 -->
<g id="edge50" class="edge">
<title>Node39&#45;&gt;Node43</title>
<path fill="none" stroke="#191970" d="M2036.4348,-237.7385C2080.119,-227.9706 2141.9738,-214.0084 2205.8261,-199.0129"/>
<polygon fill="#191970" stroke="#191970" points="2206.7408,-202.3933 2215.6732,-196.6957 2205.1374,-195.5794 2206.7408,-202.3933"/>
</g>
<!-- Node44 -->
<g id="node45" class="node">
<title>Node44</title>
<polygon fill="none" stroke="#bfbfbf" points="1815,-179.5 1815,-198.5 1861,-198.5 1861,-179.5 1815,-179.5"/>
<text text-anchor="middle" x="1838" y="-186.5" font-family="Helvetica,sans-Serif" font-size="10.00" fill="#000000">cstring</text>
</g>
<!-- Node39&#45;&gt;Node44 -->
<g id="edge51" class="edge">
<title>Node39&#45;&gt;Node44</title>
<path fill="none" stroke="#191970" d="M1944.5075,-235.4554C1921.4972,-225.419 1891.4914,-212.3314 1869.1945,-202.6061"/>
<polygon fill="#191970" stroke="#191970" points="1870.4154,-199.3202 1859.85,-198.5303 1867.6167,-205.7364 1870.4154,-199.3202"/>
</g>
<!-- Node45 -->
<g id="node46" class="node">
<title>Node45</title>
<polygon fill="none" stroke="#bfbfbf" points="1879,-179.5 1879,-198.5 1931,-198.5 1931,-179.5 1879,-179.5"/>
<text text-anchor="middle" x="1905" y="-186.5" font-family="Helvetica,sans-Serif" font-size="10.00" fill="#000000">memory</text>
</g>
<!-- Node39&#45;&gt;Node45 -->
<g id="edge52" class="edge">
<title>Node39&#45;&gt;Node45</title>
<path fill="none" stroke="#191970" d="M1960.7079,-235.2977C1949.7939,-226.2274 1935.9329,-214.7077 1924.7676,-205.4285"/>
<polygon fill="#191970" stroke="#191970" points="1926.7762,-202.5468 1916.8483,-198.8469 1922.302,-207.9303 1926.7762,-202.5468"/>
</g>
<!-- Node46 -->
<g id="node47" class="node">
<title>Node46</title>
<polygon fill="none" stroke="#bfbfbf" points="1949,-179.5 1949,-198.5 1993,-198.5 1993,-179.5 1949,-179.5"/>
<text text-anchor="middle" x="1971" y="-186.5" font-family="Helvetica,sans-Serif" font-size="10.00" fill="#000000">vector</text>
</g>
<!-- Node39&#45;&gt;Node46 -->
<g id="edge53" class="edge">
<title>Node39&#45;&gt;Node46</title>
<path fill="none" stroke="#191970" d="M1977.0225,-235.2977C1975.9814,-227.2945 1974.6923,-217.3843 1973.5742,-208.7889"/>
<polygon fill="#191970" stroke="#191970" points="1977.0417,-208.3119 1972.2809,-198.8469 1970.1002,-209.2149 1977.0417,-208.3119"/>
</g>
</g>
</svg>
