<?xml version="1.0" encoding="UTF-8" standalone="no"?>
<!DOCTYPE svg PUBLIC "-//W3C//DTD SVG 1.1//EN"
 "http://www.w3.org/Graphics/SVG/1.1/DTD/svg11.dtd">
<!-- Generated by graphviz version 2.40.1 (20161225.0304)
 -->
<!-- Title: /home/runner/work/AliceO2/AliceO2/Detectors/Base/include/DetectorsBase/BaseDPLDigitizer.h Pages: 1 -->
<svg width="2703pt" height="206pt"
 viewBox="0.00 0.00 2703.00 206.00" xmlns="http://www.w3.org/2000/svg" xmlns:xlink="http://www.w3.org/1999/xlink">
<g id="graph0" class="graph" transform="scale(1 1) rotate(0) translate(4 202)">
<title>/home/runner/work/AliceO2/AliceO2/Detectors/Base/include/DetectorsBase/BaseDPLDigitizer.h</title>
<!-- Node75 -->
<g id="node1" class="node">
<title>Node75</title>
<polygon fill="#bfbfbf" stroke="#000000" points="1167.5,-156.5 1167.5,-197.5 1375.5,-197.5 1375.5,-156.5 1167.5,-156.5"/>
<text text-anchor="start" x="1175.5" y="-185.5" font-family="Helvetica,sans-Serif" font-size="10.00" fill="#000000">/home/runner/work/AliceO2</text>
<text text-anchor="start" x="1175.5" y="-174.5" font-family="Helvetica,sans-Serif" font-size="10.00" fill="#000000">/AliceO2/Detectors/Base</text>
<text text-anchor="middle" x="1271.5" y="-163.5" font-family="Helvetica,sans-Serif" font-size="10.00" fill="#000000">/include/DetectorsBase/BaseDPLDigitizer.h</text>
</g>
<!-- Node76 -->
<g id="node2" class="node">
<title>Node76</title>
<g id="a_node2"><a xlink:href="../../df/d11/BaseDPLDigitizer_8cxx.html" target="_top" xlink:title="/home/runner/work/AliceO2\l/AliceO2/Detectors/Base\l/src/BaseDPLDigitizer.cxx">
<polygon fill="none" stroke="#000000" points="0,-78.5 0,-119.5 135,-119.5 135,-78.5 0,-78.5"/>
<text text-anchor="start" x="8" y="-107.5" font-family="Helvetica,sans-Serif" font-size="10.00" fill="#000000">/home/runner/work/AliceO2</text>
<text text-anchor="start" x="8" y="-96.5" font-family="Helvetica,sans-Serif" font-size="10.00" fill="#000000">/AliceO2/Detectors/Base</text>
<text text-anchor="middle" x="67.5" y="-85.5" font-family="Helvetica,sans-Serif" font-size="10.00" fill="#000000">/src/BaseDPLDigitizer.cxx</text>
</a>
</g>
</g>
<!-- Node75&#45;&gt;Node76 -->
<g id="edge1" class="edge">
<title>Node75&#45;&gt;Node76</title>
<path fill="none" stroke="#191970" d="M1157.3624,-174.353C911.1751,-168.1334 336.9821,-150.7453 144.5,-120 141.4898,-119.5192 138.4283,-118.9659 135.3465,-118.3562"/>
<polygon fill="#191970" stroke="#191970" points="1157.3242,-177.853 1167.409,-174.6052 1157.5,-170.8553 1157.3242,-177.853"/>
</g>
<!-- Node77 -->
<g id="node3" class="node">
<title>Node77</title>
<g id="a_node3"><a xlink:href="../../d6/df2/TRDDigitizerSpec_8cxx.html" target="_top" xlink:title="/home/runner/work/AliceO2\l/AliceO2/Detectors/TRD\l/workflow/src/TRDDigitizerSpec.cxx">
<polygon fill="none" stroke="#000000" points="153.5,-78.5 153.5,-119.5 329.5,-119.5 329.5,-78.5 153.5,-78.5"/>
<text text-anchor="start" x="161.5" y="-107.5" font-family="Helvetica,sans-Serif" font-size="10.00" fill="#000000">/home/runner/work/AliceO2</text>
<text text-anchor="start" x="161.5" y="-96.5" font-family="Helvetica,sans-Serif" font-size="10.00" fill="#000000">/AliceO2/Detectors/TRD</text>
<text text-anchor="middle" x="241.5" y="-85.5" font-family="Helvetica,sans-Serif" font-size="10.00" fill="#000000">/workflow/src/TRDDigitizerSpec.cxx</text>
</a>
</g>
</g>
<!-- Node75&#45;&gt;Node77 -->
<g id="edge2" class="edge">
<title>Node75&#45;&gt;Node77</title>
<path fill="none" stroke="#191970" d="M1157.3197,-175.1858C981.7072,-171.2253 635.0521,-158.7679 343.5,-120 338.9299,-119.3923 334.2582,-118.6973 329.5505,-117.9385"/>
<polygon fill="#191970" stroke="#191970" points="1157.2772,-178.6856 1167.3519,-175.4069 1157.4315,-171.6873 1157.2772,-178.6856"/>
</g>
<!-- Node78 -->
<g id="node4" class="node">
<title>Node78</title>
<g id="a_node4"><a xlink:href="../../d1/d37/CPVDigitizerSpec_8h.html" target="_top" xlink:title="/home/runner/work/AliceO2\l/AliceO2/Steer/DigitizerWorkflow\l/src/CPVDigitizerSpec.h">
<polygon fill="none" stroke="#000000" points="386,-78.5 386,-119.5 547,-119.5 547,-78.5 386,-78.5"/>
<text text-anchor="start" x="394" y="-107.5" font-family="Helvetica,sans-Serif" font-size="10.00" fill="#000000">/home/runner/work/AliceO2</text>
<text text-anchor="start" x="394" y="-96.5" font-family="Helvetica,sans-Serif" font-size="10.00" fill="#000000">/AliceO2/Steer/DigitizerWorkflow</text>
<text text-anchor="middle" x="466.5" y="-85.5" font-family="Helvetica,sans-Serif" font-size="10.00" fill="#000000">/src/CPVDigitizerSpec.h</text>
</a>
</g>
</g>
<!-- Node75&#45;&gt;Node78 -->
<g id="edge3" class="edge">
<title>Node75&#45;&gt;Node78</title>
<path fill="none" stroke="#191970" d="M1157.3125,-173.1661C1015.6573,-167.2016 767.0816,-152.7729 556.5,-120 553.4878,-119.5312 550.4269,-119.0163 547.3412,-118.4648"/>
<polygon fill="#191970" stroke="#191970" points="1157.1886,-176.6639 1167.3249,-173.5811 1157.4785,-169.6699 1157.1886,-176.6639"/>
</g>
<!-- Node79 -->
<g id="node5" class="node">
<title>Node79</title>
<g id="a_node5"><a xlink:href="../../da/dfe/CPVDigitizerSpec_8cxx.html" target="_top" xlink:title="/home/runner/work/AliceO2\l/AliceO2/Steer/DigitizerWorkflow\l/src/CPVDigitizerSpec.cxx">
<polygon fill="none" stroke="#000000" points="277,-.5 277,-41.5 438,-41.5 438,-.5 277,-.5"/>
<text text-anchor="start" x="285" y="-29.5" font-family="Helvetica,sans-Serif" font-size="10.00" fill="#000000">/home/runner/work/AliceO2</text>
<text text-anchor="start" x="285" y="-18.5" font-family="Helvetica,sans-Serif" font-size="10.00" fill="#000000">/AliceO2/Steer/DigitizerWorkflow</text>
<text text-anchor="middle" x="357.5" y="-7.5" font-family="Helvetica,sans-Serif" font-size="10.00" fill="#000000">/src/CPVDigitizerSpec.cxx</text>
</a>
</g>
</g>
<!-- Node75&#45;&gt;Node79 -->
<g id="edge6" class="edge">
<title>Node75&#45;&gt;Node79</title>
<path fill="none" stroke="#191970" d="M1156.9537,-173.405C922.0577,-165.5286 405.3281,-145.4065 376.5,-120 354.5732,-100.6757 353.1685,-64.4339 354.842,-41.5701"/>
<polygon fill="#191970" stroke="#191970" points="1157.1292,-176.9127 1167.2404,-173.7481 1157.3627,-169.9166 1157.1292,-176.9127"/>
</g>
<!-- Node81 -->
<g id="node7" class="node">
<title>Node81</title>
<g id="a_node7"><a xlink:href="../../df/d81/EMCALDigitizerSpec_8h.html" target="_top" xlink:title="/home/runner/work/AliceO2\l/AliceO2/Steer/DigitizerWorkflow\l/src/EMCALDigitizerSpec.h">
<polygon fill="none" stroke="#000000" points="565,-78.5 565,-119.5 726,-119.5 726,-78.5 565,-78.5"/>
<text text-anchor="start" x="573" y="-107.5" font-family="Helvetica,sans-Serif" font-size="10.00" fill="#000000">/home/runner/work/AliceO2</text>
<text text-anchor="start" x="573" y="-96.5" font-family="Helvetica,sans-Serif" font-size="10.00" fill="#000000">/AliceO2/Steer/DigitizerWorkflow</text>
<text text-anchor="middle" x="645.5" y="-85.5" font-family="Helvetica,sans-Serif" font-size="10.00" fill="#000000">/src/EMCALDigitizerSpec.h</text>
</a>
</g>
</g>
<!-- Node75&#45;&gt;Node81 -->
<g id="edge7" class="edge">
<title>Node75&#45;&gt;Node81</title>
<path fill="none" stroke="#191970" d="M1157.455,-168.9709C1048.5632,-160.339 880.1154,-144.4654 735.5,-120 732.4942,-119.4915 729.4388,-118.9428 726.3578,-118.3627"/>
<polygon fill="#191970" stroke="#191970" points="1157.2333,-172.4641 1167.4767,-169.7582 1157.7815,-165.4856 1157.2333,-172.4641"/>
</g>
<!-- Node83 -->
<g id="node9" class="node">
<title>Node83</title>
<g id="a_node9"><a xlink:href="../../d2/d97/FDDDigitizerSpec_8cxx.html" target="_top" xlink:title="/home/runner/work/AliceO2\l/AliceO2/Steer/DigitizerWorkflow\l/src/FDDDigitizerSpec.cxx">
<polygon fill="none" stroke="#000000" points="923,-78.5 923,-119.5 1084,-119.5 1084,-78.5 923,-78.5"/>
<text text-anchor="start" x="931" y="-107.5" font-family="Helvetica,sans-Serif" font-size="10.00" fill="#000000">/home/runner/work/AliceO2</text>
<text text-anchor="start" x="931" y="-96.5" font-family="Helvetica,sans-Serif" font-size="10.00" fill="#000000">/AliceO2/Steer/DigitizerWorkflow</text>
<text text-anchor="middle" x="1003.5" y="-85.5" font-family="Helvetica,sans-Serif" font-size="10.00" fill="#000000">/src/FDDDigitizerSpec.cxx</text>
</a>
</g>
</g>
<!-- Node75&#45;&gt;Node83 -->
<g id="edge10" class="edge">
<title>Node75&#45;&gt;Node83</title>
<path fill="none" stroke="#191970" d="M1190.9406,-153.5536C1153.7793,-142.738 1110.0601,-130.0138 1074.1959,-119.5757"/>
<polygon fill="#191970" stroke="#191970" points="1190.1559,-156.9704 1200.7356,-156.4044 1192.1121,-150.2493 1190.1559,-156.9704"/>
</g>
<!-- Node84 -->
<g id="node10" class="node">
<title>Node84</title>
<g id="a_node10"><a xlink:href="../../d4/dfd/FT0DigitizerSpec_8cxx.html" target="_top" xlink:title="/home/runner/work/AliceO2\l/AliceO2/Steer/DigitizerWorkflow\l/src/FT0DigitizerSpec.cxx">
<polygon fill="none" stroke="#000000" points="1102,-78.5 1102,-119.5 1263,-119.5 1263,-78.5 1102,-78.5"/>
<text text-anchor="start" x="1110" y="-107.5" font-family="Helvetica,sans-Serif" font-size="10.00" fill="#000000">/home/runner/work/AliceO2</text>
<text text-anchor="start" x="1110" y="-96.5" font-family="Helvetica,sans-Serif" font-size="10.00" fill="#000000">/AliceO2/Steer/DigitizerWorkflow</text>
<text text-anchor="middle" x="1182.5" y="-85.5" font-family="Helvetica,sans-Serif" font-size="10.00" fill="#000000">/src/FT0DigitizerSpec.cxx</text>
</a>
</g>
</g>
<!-- Node75&#45;&gt;Node84 -->
<g id="edge11" class="edge">
<title>Node75&#45;&gt;Node84</title>
<path fill="none" stroke="#191970" d="M1239.8126,-149.229C1228.7062,-139.4953 1216.4357,-128.7414 1206.1076,-119.6898"/>
<polygon fill="#191970" stroke="#191970" points="1237.8222,-152.1386 1247.6496,-156.0974 1242.436,-146.8742 1237.8222,-152.1386"/>
</g>
<!-- Node85 -->
<g id="node11" class="node">
<title>Node85</title>
<g id="a_node11"><a xlink:href="../../d0/d1c/FV0DigitizerSpec_8cxx.html" target="_top" xlink:title="/home/runner/work/AliceO2\l/AliceO2/Steer/DigitizerWorkflow\l/src/FV0DigitizerSpec.cxx">
<polygon fill="none" stroke="#000000" points="1281,-78.5 1281,-119.5 1442,-119.5 1442,-78.5 1281,-78.5"/>
<text text-anchor="start" x="1289" y="-107.5" font-family="Helvetica,sans-Serif" font-size="10.00" fill="#000000">/home/runner/work/AliceO2</text>
<text text-anchor="start" x="1289" y="-96.5" font-family="Helvetica,sans-Serif" font-size="10.00" fill="#000000">/AliceO2/Steer/DigitizerWorkflow</text>
<text text-anchor="middle" x="1361.5" y="-85.5" font-family="Helvetica,sans-Serif" font-size="10.00" fill="#000000">/src/FV0DigitizerSpec.cxx</text>
</a>
</g>
</g>
<!-- Node75&#45;&gt;Node85 -->
<g id="edge12" class="edge">
<title>Node75&#45;&gt;Node85</title>
<path fill="none" stroke="#191970" d="M1303.2167,-149.5122C1314.5335,-139.7043 1327.0816,-128.8293 1337.6272,-119.6898"/>
<polygon fill="#191970" stroke="#191970" points="1300.883,-146.9032 1295.6183,-156.0974 1305.4675,-152.193 1300.883,-146.9032"/>
</g>
<!-- Node86 -->
<g id="node12" class="node">
<title>Node86</title>
<g id="a_node12"><a xlink:href="../../d8/d00/HMPIDDigitizerSpec_8cxx.html" target="_top" xlink:title="/home/runner/work/AliceO2\l/AliceO2/Steer/DigitizerWorkflow\l/src/HMPIDDigitizerSpec.cxx">
<polygon fill="none" stroke="#000000" points="1460,-78.5 1460,-119.5 1621,-119.5 1621,-78.5 1460,-78.5"/>
<text text-anchor="start" x="1468" y="-107.5" font-family="Helvetica,sans-Serif" font-size="10.00" fill="#000000">/home/runner/work/AliceO2</text>
<text text-anchor="start" x="1468" y="-96.5" font-family="Helvetica,sans-Serif" font-size="10.00" fill="#000000">/AliceO2/Steer/DigitizerWorkflow</text>
<text text-anchor="middle" x="1540.5" y="-85.5" font-family="Helvetica,sans-Serif" font-size="10.00" fill="#000000">/src/HMPIDDigitizerSpec.cxx</text>
</a>
</g>
</g>
<!-- Node75&#45;&gt;Node86 -->
<g id="edge13" class="edge">
<title>Node75&#45;&gt;Node86</title>
<path fill="none" stroke="#191970" d="M1352.36,-153.5536C1389.66,-142.738 1433.5423,-130.0138 1469.5403,-119.5757"/>
<polygon fill="#191970" stroke="#191970" points="1351.1581,-150.2579 1342.5285,-156.4044 1353.1076,-156.9809 1351.1581,-150.2579"/>
</g>
<!-- Node87 -->
<g id="node13" class="node">
<title>Node87</title>
<g id="a_node13"><a xlink:href="../../d3/d43/ITSMFTDigitizerSpec_8cxx.html" target="_top" xlink:title="/home/runner/work/AliceO2\l/AliceO2/Steer/DigitizerWorkflow\l/src/ITSMFTDigitizerSpec.cxx">
<polygon fill="none" stroke="#000000" points="1639,-78.5 1639,-119.5 1800,-119.5 1800,-78.5 1639,-78.5"/>
<text text-anchor="start" x="1647" y="-107.5" font-family="Helvetica,sans-Serif" font-size="10.00" fill="#000000">/home/runner/work/AliceO2</text>
<text text-anchor="start" x="1647" y="-96.5" font-family="Helvetica,sans-Serif" font-size="10.00" fill="#000000">/AliceO2/Steer/DigitizerWorkflow</text>
<text text-anchor="middle" x="1719.5" y="-85.5" font-family="Helvetica,sans-Serif" font-size="10.00" fill="#000000">/src/ITSMFTDigitizerSpec.cxx</text>
</a>
</g>
</g>
<!-- Node75&#45;&gt;Node87 -->
<g id="edge14" class="edge">
<title>Node75&#45;&gt;Node87</title>
<path fill="none" stroke="#191970" d="M1385.8182,-161.0617C1456.5374,-150.6545 1549.061,-136.0502 1630.5,-120 1633.1479,-119.4781 1635.8367,-118.933 1638.5491,-118.3699"/>
<polygon fill="#191970" stroke="#191970" points="1384.9334,-157.6539 1375.5463,-162.5664 1385.9481,-164.5799 1384.9334,-157.6539"/>
</g>
<!-- Node88 -->
<g id="node14" class="node">
<title>Node88</title>
<g id="a_node14"><a xlink:href="../../db/d2f/MCHDigitizerSpec_8cxx.html" target="_top" xlink:title="/home/runner/work/AliceO2\l/AliceO2/Steer/DigitizerWorkflow\l/src/MCHDigitizerSpec.cxx">
<polygon fill="none" stroke="#000000" points="1818,-78.5 1818,-119.5 1979,-119.5 1979,-78.5 1818,-78.5"/>
<text text-anchor="start" x="1826" y="-107.5" font-family="Helvetica,sans-Serif" font-size="10.00" fill="#000000">/home/runner/work/AliceO2</text>
<text text-anchor="start" x="1826" y="-96.5" font-family="Helvetica,sans-Serif" font-size="10.00" fill="#000000">/AliceO2/Steer/DigitizerWorkflow</text>
<text text-anchor="middle" x="1898.5" y="-85.5" font-family="Helvetica,sans-Serif" font-size="10.00" fill="#000000">/src/MCHDigitizerSpec.cxx</text>
</a>
</g>
</g>
<!-- Node75&#45;&gt;Node88 -->
<g id="edge15" class="edge">
<title>Node75&#45;&gt;Node88</title>
<path fill="none" stroke="#191970" d="M1385.7314,-169.1C1495.0318,-160.5513 1664.2646,-144.7267 1809.5,-120 1812.1606,-119.547 1814.8603,-119.0616 1817.5822,-118.5501"/>
<polygon fill="#191970" stroke="#191970" points="1385.3722,-165.6172 1375.6725,-169.8794 1385.9131,-172.5963 1385.3722,-165.6172"/>
</g>
<!-- Node89 -->
<g id="node15" class="node">
<title>Node89</title>
<g id="a_node15"><a xlink:href="../../d4/dd3/MIDDigitizerSpec_8cxx.html" target="_top" xlink:title="/home/runner/work/AliceO2\l/AliceO2/Steer/DigitizerWorkflow\l/src/MIDDigitizerSpec.cxx">
<polygon fill="none" stroke="#000000" points="1997,-78.5 1997,-119.5 2158,-119.5 2158,-78.5 1997,-78.5"/>
<text text-anchor="start" x="2005" y="-107.5" font-family="Helvetica,sans-Serif" font-size="10.00" fill="#000000">/home/runner/work/AliceO2</text>
<text text-anchor="start" x="2005" y="-96.5" font-family="Helvetica,sans-Serif" font-size="10.00" fill="#000000">/AliceO2/Steer/DigitizerWorkflow</text>
<text text-anchor="middle" x="2077.5" y="-85.5" font-family="Helvetica,sans-Serif" font-size="10.00" fill="#000000">/src/MIDDigitizerSpec.cxx</text>
</a>
</g>
</g>
<!-- Node75&#45;&gt;Node89 -->
<g id="edge16" class="edge">
<title>Node75&#45;&gt;Node89</title>
<path fill="none" stroke="#191970" d="M1385.7166,-173.2874C1527.7299,-167.4408 1777.2198,-153.1267 1988.5,-120 1991.1663,-119.582 1993.8709,-119.1268 1996.5971,-118.6414"/>
<polygon fill="#191970" stroke="#191970" points="1385.5295,-169.792 1375.6794,-173.6939 1385.8128,-176.7863 1385.5295,-169.792"/>
</g>
<!-- Node90 -->
<g id="node16" class="node">
<title>Node90</title>
<g id="a_node16"><a xlink:href="../../dd/d48/PHOSDigitizerSpec_8h.html" target="_top" xlink:title="/home/runner/work/AliceO2\l/AliceO2/Steer/DigitizerWorkflow\l/src/PHOSDigitizerSpec.h">
<polygon fill="none" stroke="#000000" points="744,-78.5 744,-119.5 905,-119.5 905,-78.5 744,-78.5"/>
<text text-anchor="start" x="752" y="-107.5" font-family="Helvetica,sans-Serif" font-size="10.00" fill="#000000">/home/runner/work/AliceO2</text>
<text text-anchor="start" x="752" y="-96.5" font-family="Helvetica,sans-Serif" font-size="10.00" fill="#000000">/AliceO2/Steer/DigitizerWorkflow</text>
<text text-anchor="middle" x="824.5" y="-85.5" font-family="Helvetica,sans-Serif" font-size="10.00" fill="#000000">/src/PHOSDigitizerSpec.h</text>
</a>
</g>
</g>
<!-- Node75&#45;&gt;Node90 -->
<g id="edge17" class="edge">
<title>Node75&#45;&gt;Node90</title>
<path fill="none" stroke="#191970" d="M1157.0706,-160.8397C1086.8503,-150.4001 995.2159,-135.8399 914.5,-120 911.5086,-119.413 908.4654,-118.7974 905.3947,-118.1607"/>
<polygon fill="#191970" stroke="#191970" points="1156.867,-164.3476 1167.2717,-162.3497 1157.892,-157.423 1156.867,-164.3476"/>
</g>
<!-- Node92 -->
<g id="node18" class="node">
<title>Node92</title>
<g id="a_node18"><a xlink:href="../../d6/d61/TOFDigitizerSpec_8cxx.html" target="_top" xlink:title="/home/runner/work/AliceO2\l/AliceO2/Steer/DigitizerWorkflow\l/src/TOFDigitizerSpec.cxx">
<polygon fill="none" stroke="#000000" points="2176,-78.5 2176,-119.5 2337,-119.5 2337,-78.5 2176,-78.5"/>
<text text-anchor="start" x="2184" y="-107.5" font-family="Helvetica,sans-Serif" font-size="10.00" fill="#000000">/home/runner/work/AliceO2</text>
<text text-anchor="start" x="2184" y="-96.5" font-family="Helvetica,sans-Serif" font-size="10.00" fill="#000000">/AliceO2/Steer/DigitizerWorkflow</text>
<text text-anchor="middle" x="2256.5" y="-85.5" font-family="Helvetica,sans-Serif" font-size="10.00" fill="#000000">/src/TOFDigitizerSpec.cxx</text>
</a>
</g>
</g>
<!-- Node75&#45;&gt;Node92 -->
<g id="edge20" class="edge">
<title>Node75&#45;&gt;Node92</title>
<path fill="none" stroke="#191970" d="M1386.1018,-172.1158C1592.7574,-162.9074 2020.0543,-141.926 2167.5,-120 2170.1695,-119.603 2172.877,-119.1662 2175.6055,-118.6965"/>
<polygon fill="#191970" stroke="#191970" points="1385.6616,-168.6318 1375.8267,-172.572 1385.9722,-175.6249 1385.6616,-168.6318"/>
</g>
<!-- Node93 -->
<g id="node19" class="node">
<title>Node93</title>
<g id="a_node19"><a xlink:href="../../d2/d0b/TPCDigitizerSpec_8cxx.html" target="_top" xlink:title="/home/runner/work/AliceO2\l/AliceO2/Steer/DigitizerWorkflow\l/src/TPCDigitizerSpec.cxx">
<polygon fill="none" stroke="#000000" points="2355,-78.5 2355,-119.5 2516,-119.5 2516,-78.5 2355,-78.5"/>
<text text-anchor="start" x="2363" y="-107.5" font-family="Helvetica,sans-Serif" font-size="10.00" fill="#000000">/home/runner/work/AliceO2</text>
<text text-anchor="start" x="2363" y="-96.5" font-family="Helvetica,sans-Serif" font-size="10.00" fill="#000000">/AliceO2/Steer/DigitizerWorkflow</text>
<text text-anchor="middle" x="2435.5" y="-85.5" font-family="Helvetica,sans-Serif" font-size="10.00" fill="#000000">/src/TPCDigitizerSpec.cxx</text>
</a>
</g>
</g>
<!-- Node75&#45;&gt;Node93 -->
<g id="edge21" class="edge">
<title>Node75&#45;&gt;Node93</title>
<path fill="none" stroke="#191970" d="M1385.9405,-173.5226C1623.6455,-165.8748 2163.8878,-146.171 2346.5,-120 2349.1716,-119.6171 2351.8808,-119.1925 2354.6109,-118.7333"/>
<polygon fill="#191970" stroke="#191970" points="1385.7697,-170.0262 1375.8869,-173.8446 1385.9939,-177.0226 1385.7697,-170.0262"/>
</g>
<!-- Node94 -->
<g id="node20" class="node">
<title>Node94</title>
<g id="a_node20"><a xlink:href="../../d1/d1a/ZDCDigitizerSpec_8cxx.html" target="_top" xlink:title="/home/runner/work/AliceO2\l/AliceO2/Steer/DigitizerWorkflow\l/src/ZDCDigitizerSpec.cxx">
<polygon fill="none" stroke="#000000" points="2534,-78.5 2534,-119.5 2695,-119.5 2695,-78.5 2534,-78.5"/>
<text text-anchor="start" x="2542" y="-107.5" font-family="Helvetica,sans-Serif" font-size="10.00" fill="#000000">/home/runner/work/AliceO2</text>
<text text-anchor="start" x="2542" y="-96.5" font-family="Helvetica,sans-Serif" font-size="10.00" fill="#000000">/AliceO2/Steer/DigitizerWorkflow</text>
<text text-anchor="middle" x="2614.5" y="-85.5" font-family="Helvetica,sans-Serif" font-size="10.00" fill="#000000">/src/ZDCDigitizerSpec.cxx</text>
</a>
</g>
</g>
<!-- Node75&#45;&gt;Node94 -->
<g id="edge22" class="edge">
<title>Node75&#45;&gt;Node94</title>
<path fill="none" stroke="#191970" d="M1385.6543,-174.5336C1651.7884,-168.3425 2307.3349,-150.4262 2525.5,-120 2528.173,-119.6272 2530.8835,-119.2113 2533.6146,-118.7597"/>
<polygon fill="#191970" stroke="#191970" points="1385.4993,-171.0362 1375.5829,-174.7666 1385.6613,-178.0343 1385.4993,-171.0362"/>
</g>
<!-- Node78&#45;&gt;Node79 -->
<g id="edge4" class="edge">
<title>Node78&#45;&gt;Node79</title>
<path fill="none" stroke="#191970" d="M429.0867,-72.2272C415.041,-62.1761 399.3108,-50.9196 386.1808,-41.5239"/>
<polygon fill="#191970" stroke="#191970" points="427.407,-75.329 437.5762,-78.3022 431.4807,-69.6364 427.407,-75.329"/>
</g>
<!-- Node80 -->
<g id="node6" class="node">
<title>Node80</title>
<g id="a_node6"><a xlink:href="../../d2/dd7/SimpleDigitizerWorkflow_8cxx.html" target="_top" xlink:title="/home/runner/work/AliceO2\l/AliceO2/Steer/DigitizerWorkflow\l/src/SimpleDigitizerWorkflow.cxx">
<polygon fill="none" stroke="#000000" points="456.5,-.5 456.5,-41.5 618.5,-41.5 618.5,-.5 456.5,-.5"/>
<text text-anchor="start" x="464.5" y="-29.5" font-family="Helvetica,sans-Serif" font-size="10.00" fill="#000000">/home/runner/work/AliceO2</text>
<text text-anchor="start" x="464.5" y="-18.5" font-family="Helvetica,sans-Serif" font-size="10.00" fill="#000000">/AliceO2/Steer/DigitizerWorkflow</text>
<text text-anchor="middle" x="537.5" y="-7.5" font-family="Helvetica,sans-Serif" font-size="10.00" fill="#000000">/src/SimpleDigitizerWorkflow.cxx</text>
</a>
</g>
</g>
<!-- Node78&#45;&gt;Node80 -->
<g id="edge5" class="edge">
<title>Node78&#45;&gt;Node80</title>
<path fill="none" stroke="#191970" d="M492.2959,-70.6609C501.0185,-61.0783 510.5877,-50.5657 518.667,-41.6898"/>
<polygon fill="#191970" stroke="#191970" points="489.6699,-68.3463 485.5267,-78.0974 494.8465,-73.0583 489.6699,-68.3463"/>
</g>
<!-- Node81&#45;&gt;Node80 -->
<g id="edge9" class="edge">
<title>Node81&#45;&gt;Node80</title>
<path fill="none" stroke="#191970" d="M608.43,-72.2272C594.5131,-62.1761 578.9272,-50.9196 565.9176,-41.5239"/>
<polygon fill="#191970" stroke="#191970" points="606.6855,-75.2847 616.8415,-78.3022 610.7839,-69.6099 606.6855,-75.2847"/>
</g>
<!-- Node82 -->
<g id="node8" class="node">
<title>Node82</title>
<g id="a_node8"><a xlink:href="../../d5/d9b/EMCALDigitizerSpec_8cxx.html" target="_top" xlink:title="/home/runner/work/AliceO2\l/AliceO2/Steer/DigitizerWorkflow\l/src/EMCALDigitizerSpec.cxx">
<polygon fill="none" stroke="#000000" points="637,-.5 637,-41.5 798,-41.5 798,-.5 637,-.5"/>
<text text-anchor="start" x="645" y="-29.5" font-family="Helvetica,sans-Serif" font-size="10.00" fill="#000000">/home/runner/work/AliceO2</text>
<text text-anchor="start" x="645" y="-18.5" font-family="Helvetica,sans-Serif" font-size="10.00" fill="#000000">/AliceO2/Steer/DigitizerWorkflow</text>
<text text-anchor="middle" x="717.5" y="-7.5" font-family="Helvetica,sans-Serif" font-size="10.00" fill="#000000">/src/EMCALDigitizerSpec.cxx</text>
</a>
</g>
</g>
<!-- Node81&#45;&gt;Node82 -->
<g id="edge8" class="edge">
<title>Node81&#45;&gt;Node82</title>
<path fill="none" stroke="#191970" d="M671.6592,-70.6609C680.5046,-61.0783 690.2086,-50.5657 698.4017,-41.6898"/>
<polygon fill="#191970" stroke="#191970" points="669.0057,-68.3754 664.7947,-78.0974 674.1493,-73.1234 669.0057,-68.3754"/>
</g>
<!-- Node90&#45;&gt;Node80 -->
<g id="edge19" class="edge">
<title>Node90&#45;&gt;Node80</title>
<path fill="none" stroke="#191970" d="M738.9905,-75.7605C699.0314,-64.9005 651.8599,-52.0804 613.2079,-41.5757"/>
<polygon fill="#191970" stroke="#191970" points="738.1508,-79.1592 748.7187,-78.4044 739.9867,-72.4042 738.1508,-79.1592"/>
</g>
<!-- Node91 -->
<g id="node17" class="node">
<title>Node91</title>
<g id="a_node17"><a xlink:href="../../db/d77/PHOSDigitizerSpec_8cxx.html" target="_top" xlink:title="/home/runner/work/AliceO2\l/AliceO2/Steer/DigitizerWorkflow\l/src/PHOSDigitizerSpec.cxx">
<polygon fill="none" stroke="#000000" points="816,-.5 816,-41.5 977,-41.5 977,-.5 816,-.5"/>
<text text-anchor="start" x="824" y="-29.5" font-family="Helvetica,sans-Serif" font-size="10.00" fill="#000000">/home/runner/work/AliceO2</text>
<text text-anchor="start" x="824" y="-18.5" font-family="Helvetica,sans-Serif" font-size="10.00" fill="#000000">/AliceO2/Steer/DigitizerWorkflow</text>
<text text-anchor="middle" x="896.5" y="-7.5" font-family="Helvetica,sans-Serif" font-size="10.00" fill="#000000">/src/PHOSDigitizerSpec.cxx</text>
</a>
</g>
</g>
<!-- Node90&#45;&gt;Node91 -->
<g id="edge18" class="edge">
<title>Node90&#45;&gt;Node91</title>
<path fill="none" stroke="#191970" d="M850.6592,-70.6609C859.5046,-61.0783 869.2086,-50.5657 877.4017,-41.6898"/>
<polygon fill="#191970" stroke="#191970" points="848.0057,-68.3754 843.7947,-78.0974 853.1493,-73.1234 848.0057,-68.3754"/>
</g>
</g>
</svg>
