<?xml version="1.0" encoding="UTF-8" standalone="no"?>
<!DOCTYPE svg PUBLIC "-//W3C//DTD SVG 1.1//EN"
 "http://www.w3.org/Graphics/SVG/1.1/DTD/svg11.dtd">
<!-- Generated by graphviz version 2.40.1 (20161225.0304)
 -->
<!-- Title: /home/runner/work/AliceO2/AliceO2/GPU/GPUTracking/TPCConvert/GPUTPCConvertImpl.h Pages: 1 -->
<!--zoomable 284 -->
<svg id="main" version="1.1" xmlns="http://www.w3.org/2000/svg" xmlns:xlink="http://www.w3.org/1999/xlink" xml:space="preserve" onload="init(evt)">
<style type="text/css"><![CDATA[
.edge:hover path { stroke: red; }
.edge:hover polygon { stroke: red; fill: red; }
]]></style>
<script type="text/javascript"><![CDATA[
var edges = document.getElementsByTagName('g');
if (edges && edges.length) {
  for (var i=0;i<edges.length;i++) {
    if (edges[i].id.substr(0,4)=='edge') {
      edges[i].setAttribute('class','edge');
    }
  }
}
]]></script>
        <defs>
                <circle id="rim" cx="0" cy="0" r="7"/>
                <circle id="rim2" cx="0" cy="0" r="3.5"/>
                <g id="zoomPlus">
                        <use xlink:href="#rim" fill="#404040">
                                <set attributeName="fill" to="#808080" begin="zoomplus.mouseover" end="zoomplus.mouseout"/>
                        </use>
                        <path d="M-4,0h8M0,-4v8" fill="none" stroke="white" stroke-width="1.5" pointer-events="none"/>
                </g>
                <g id="zoomMin">
                        <use xlink:href="#rim" fill="#404040">
                                <set attributeName="fill" to="#808080" begin="zoomminus.mouseover" end="zoomminus.mouseout"/>
                        </use>
                        <path d="M-4,0h8" fill="none" stroke="white" stroke-width="1.5" pointer-events="none"/>
                </g>
                <g id="dirArrow">
                        <path fill="none" stroke="white" stroke-width="1.5" d="M0,-3.0v7 M-2.5,-0.5L0,-3.0L2.5,-0.5"/>
                </g>
               <g id="resetDef">
                       <use xlink:href="#rim2" fill="#404040">
                               <set attributeName="fill" to="#808080" begin="reset.mouseover" end="reset.mouseout"/>
                       </use>
               </g>
        </defs>

<script type="text/javascript">
var viewWidth = 1168;
var viewHeight = 284;
var sectionId = 'dynsection-1';
</script>
<script xlink:href="../../svgpan.js"/>
<svg id="graph" class="graph">
<g id="viewport">
<title>/home/runner/work/AliceO2/AliceO2/GPU/GPUTracking/TPCConvert/GPUTPCConvertImpl.h</title>
<!-- Node57 -->
<g id="node1" class="node">
<title>Node57</title>
<polygon fill="#bfbfbf" stroke="#000000" points="471,-234.5 471,-275.5 652,-275.5 652,-234.5 471,-234.5"/>
<text text-anchor="start" x="479" y="-263.5" font-family="Helvetica,sans-Serif" font-size="10.00" fill="#000000">/home/runner/work/AliceO2</text>
<text text-anchor="start" x="479" y="-252.5" font-family="Helvetica,sans-Serif" font-size="10.00" fill="#000000">/AliceO2/GPU/GPUTracking</text>
<text text-anchor="middle" x="561.5" y="-241.5" font-family="Helvetica,sans-Serif" font-size="10.00" fill="#000000">/TPCConvert/GPUTPCConvertImpl.h</text>
</g>
<!-- Node58 -->
<g id="node2" class="node">
<title>Node58</title>
<g id="a_node2"><a xlink:href="../../d0/dd4/GPUTPCGMMerger_8cxx.html" target="_top" xlink:title="/home/runner/work/AliceO2\l/AliceO2/GPU/GPUTracking\l/Merger/GPUTPCGMMerger.cxx">
<polygon fill="none" stroke="#000000" points="0,-156.5 0,-197.5 159,-197.5 159,-156.5 0,-156.5"/>
<text text-anchor="start" x="8" y="-185.5" font-family="Helvetica,sans-Serif" font-size="10.00" fill="#000000">/home/runner/work/AliceO2</text>
<text text-anchor="start" x="8" y="-174.5" font-family="Helvetica,sans-Serif" font-size="10.00" fill="#000000">/AliceO2/GPU/GPUTracking</text>
<text text-anchor="middle" x="79.5" y="-163.5" font-family="Helvetica,sans-Serif" font-size="10.00" fill="#000000">/Merger/GPUTPCGMMerger.cxx</text>
</a>
</g>
</g>
<!-- Node57&#45;&gt;Node58 -->
<g id="edge1" class="edge">
<title>Node57&#45;&gt;Node58</title>
<path fill="none" stroke="#191970" d="M460.6869,-242.9721C380.8334,-232.83 266.6152,-216.9554 167.5,-198 164.7231,-197.4689 161.9017,-196.9087 159.0556,-196.3261"/>
<polygon fill="#191970" stroke="#191970" points="460.3806,-246.4611 470.7404,-244.2418 461.2577,-239.5163 460.3806,-246.4611"/>
</g>
<!-- Node61 -->
<g id="node5" class="node">
<title>Node61</title>
<g id="a_node5"><a xlink:href="../../d5/d84/GPUTPCGMSliceTrack_8cxx.html" target="_top" xlink:title="/home/runner/work/AliceO2\l/AliceO2/GPU/GPUTracking\l/Merger/GPUTPCGMSliceTrack.cxx">
<polygon fill="none" stroke="#000000" points="176.5,-156.5 176.5,-197.5 352.5,-197.5 352.5,-156.5 176.5,-156.5"/>
<text text-anchor="start" x="184.5" y="-185.5" font-family="Helvetica,sans-Serif" font-size="10.00" fill="#000000">/home/runner/work/AliceO2</text>
<text text-anchor="start" x="184.5" y="-174.5" font-family="Helvetica,sans-Serif" font-size="10.00" fill="#000000">/AliceO2/GPU/GPUTracking</text>
<text text-anchor="middle" x="264.5" y="-163.5" font-family="Helvetica,sans-Serif" font-size="10.00" fill="#000000">/Merger/GPUTPCGMSliceTrack.cxx</text>
</a>
</g>
</g>
<!-- Node57&#45;&gt;Node61 -->
<g id="edge4" class="edge">
<title>Node57&#45;&gt;Node61</title>
<path fill="none" stroke="#191970" d="M473.2535,-231.8241C431.7618,-220.9273 382.7129,-208.0458 342.5882,-197.508"/>
<polygon fill="#191970" stroke="#191970" points="472.5172,-235.2494 483.0783,-234.4044 474.2953,-228.479 472.5172,-235.2494"/>
</g>
<!-- Node62 -->
<g id="node6" class="node">
<title>Node62</title>
<g id="a_node6"><a xlink:href="../../df/dad/GPUTPCGMTrackParam_8cxx.html" target="_top" xlink:title="/home/runner/work/AliceO2\l/AliceO2/GPU/GPUTracking\l/Merger/GPUTPCGMTrackParam.cxx">
<polygon fill="none" stroke="#000000" points="370.5,-156.5 370.5,-197.5 552.5,-197.5 552.5,-156.5 370.5,-156.5"/>
<text text-anchor="start" x="378.5" y="-185.5" font-family="Helvetica,sans-Serif" font-size="10.00" fill="#000000">/home/runner/work/AliceO2</text>
<text text-anchor="start" x="378.5" y="-174.5" font-family="Helvetica,sans-Serif" font-size="10.00" fill="#000000">/AliceO2/GPU/GPUTracking</text>
<text text-anchor="middle" x="461.5" y="-163.5" font-family="Helvetica,sans-Serif" font-size="10.00" fill="#000000">/Merger/GPUTPCGMTrackParam.cxx</text>
</a>
</g>
</g>
<!-- Node57&#45;&gt;Node62 -->
<g id="edge6" class="edge">
<title>Node57&#45;&gt;Node62</title>
<path fill="none" stroke="#191970" d="M526.8108,-227.9424C514.0178,-217.9639 499.7449,-206.831 487.8126,-197.5239"/>
<polygon fill="#191970" stroke="#191970" points="524.9267,-230.9116 534.9644,-234.3022 529.232,-225.3921 524.9267,-230.9116"/>
</g>
<!-- Node63 -->
<g id="node7" class="node">
<title>Node63</title>
<g id="a_node7"><a xlink:href="../../d5/d85/GPUTPCSliceData_8cxx.html" target="_top" xlink:title="/home/runner/work/AliceO2\l/AliceO2/GPU/GPUTracking\l/SliceTracker/GPUTPCSliceData.cxx">
<polygon fill="none" stroke="#000000" points="571,-156.5 571,-197.5 752,-197.5 752,-156.5 571,-156.5"/>
<text text-anchor="start" x="579" y="-185.5" font-family="Helvetica,sans-Serif" font-size="10.00" fill="#000000">/home/runner/work/AliceO2</text>
<text text-anchor="start" x="579" y="-174.5" font-family="Helvetica,sans-Serif" font-size="10.00" fill="#000000">/AliceO2/GPU/GPUTracking</text>
<text text-anchor="middle" x="661.5" y="-163.5" font-family="Helvetica,sans-Serif" font-size="10.00" fill="#000000">/SliceTracker/GPUTPCSliceData.cxx</text>
</a>
</g>
</g>
<!-- Node57&#45;&gt;Node63 -->
<g id="edge8" class="edge">
<title>Node57&#45;&gt;Node63</title>
<path fill="none" stroke="#191970" d="M596.1892,-227.9424C608.9822,-217.9639 623.2551,-206.831 635.1874,-197.5239"/>
<polygon fill="#191970" stroke="#191970" points="593.768,-225.3921 588.0356,-234.3022 598.0733,-230.9116 593.768,-225.3921"/>
</g>
<!-- Node64 -->
<g id="node8" class="node">
<title>Node64</title>
<g id="a_node8"><a xlink:href="../../db/d4b/GPUTPCTracker_8cxx.html" target="_top" xlink:title="/home/runner/work/AliceO2\l/AliceO2/GPU/GPUTracking\l/SliceTracker/GPUTPCTracker.cxx">
<polygon fill="none" stroke="#000000" points="770,-156.5 770,-197.5 941,-197.5 941,-156.5 770,-156.5"/>
<text text-anchor="start" x="778" y="-185.5" font-family="Helvetica,sans-Serif" font-size="10.00" fill="#000000">/home/runner/work/AliceO2</text>
<text text-anchor="start" x="778" y="-174.5" font-family="Helvetica,sans-Serif" font-size="10.00" fill="#000000">/AliceO2/GPU/GPUTracking</text>
<text text-anchor="middle" x="855.5" y="-163.5" font-family="Helvetica,sans-Serif" font-size="10.00" fill="#000000">/SliceTracker/GPUTPCTracker.cxx</text>
</a>
</g>
</g>
<!-- Node57&#45;&gt;Node64 -->
<g id="edge10" class="edge">
<title>Node57&#45;&gt;Node64</title>
<path fill="none" stroke="#191970" d="M648.8552,-231.8241C689.9277,-220.9273 738.4811,-208.0458 778.2005,-197.508"/>
<polygon fill="#191970" stroke="#191970" points="647.8977,-228.457 639.1296,-234.4044 649.6928,-235.2229 647.8977,-228.457"/>
</g>
<!-- Node65 -->
<g id="node9" class="node">
<title>Node65</title>
<g id="a_node9"><a xlink:href="../../d2/d77/GPUTPCConvertKernel_8cxx.html" target="_top" xlink:title="/home/runner/work/AliceO2\l/AliceO2/GPU/GPUTracking\l/TPCConvert/GPUTPCConvertKernel.cxx">
<polygon fill="none" stroke="#000000" points="959.5,-156.5 959.5,-197.5 1159.5,-197.5 1159.5,-156.5 959.5,-156.5"/>
<text text-anchor="start" x="967.5" y="-185.5" font-family="Helvetica,sans-Serif" font-size="10.00" fill="#000000">/home/runner/work/AliceO2</text>
<text text-anchor="start" x="967.5" y="-174.5" font-family="Helvetica,sans-Serif" font-size="10.00" fill="#000000">/AliceO2/GPU/GPUTracking</text>
<text text-anchor="middle" x="1059.5" y="-163.5" font-family="Helvetica,sans-Serif" font-size="10.00" fill="#000000">/TPCConvert/GPUTPCConvertKernel.cxx</text>
</a>
</g>
</g>
<!-- Node57&#45;&gt;Node65 -->
<g id="edge12" class="edge">
<title>Node57&#45;&gt;Node65</title>
<path fill="none" stroke="#191970" d="M662.46,-241.4711C741.0982,-230.628 852.9275,-214.5393 950.5,-198 953.4451,-197.5008 956.4331,-196.985 959.4481,-196.4566"/>
<polygon fill="#191970" stroke="#191970" points="661.5029,-238.0697 652.0729,-242.8995 662.4566,-245.0044 661.5029,-238.0697"/>
</g>
<!-- Node59 -->
<g id="node3" class="node">
<title>Node59</title>
<g id="a_node3"><a xlink:href="../../d0/d25/GPUReconstructionIncludesDevice_8h.html" target="_top" xlink:title="/home/runner/work/AliceO2\l/AliceO2/GPU/GPUTracking\l/Base/GPUReconstructionIncludesDevice.h">
<polygon fill="none" stroke="#000000" points="357,-78.5 357,-119.5 566,-119.5 566,-78.5 357,-78.5"/>
<text text-anchor="start" x="365" y="-107.5" font-family="Helvetica,sans-Serif" font-size="10.00" fill="#000000">/home/runner/work/AliceO2</text>
<text text-anchor="start" x="365" y="-96.5" font-family="Helvetica,sans-Serif" font-size="10.00" fill="#000000">/AliceO2/GPU/GPUTracking</text>
<text text-anchor="middle" x="461.5" y="-85.5" font-family="Helvetica,sans-Serif" font-size="10.00" fill="#000000">/Base/GPUReconstructionIncludesDevice.h</text>
</a>
</g>
</g>
<!-- Node58&#45;&gt;Node59 -->
<g id="edge2" class="edge">
<title>Node58&#45;&gt;Node59</title>
<path fill="none" stroke="#191970" d="M169.0759,-155.6934C236.7091,-141.1826 303.2406,-128.251 356.8476,-118.1642"/>
<polygon fill="#191970" stroke="#191970" points="168.1286,-152.3171 159.0906,-157.8457 169.6036,-159.16 168.1286,-152.3171"/>
</g>
<!-- Node60 -->
<g id="node4" class="node">
<title>Node60</title>
<g id="a_node4"><a xlink:href="../../d3/d33/GPUReconstructionHIP_8hip_8cxx.html" target="_top" xlink:title="/home/runner/work/AliceO2\l/AliceO2/GPU/GPUTracking\l/Base/hip/GPUReconstructionHIP.hip.cxx">
<polygon fill="none" stroke="#000000" points="361.5,-.5 361.5,-41.5 561.5,-41.5 561.5,-.5 361.5,-.5"/>
<text text-anchor="start" x="369.5" y="-29.5" font-family="Helvetica,sans-Serif" font-size="10.00" fill="#000000">/home/runner/work/AliceO2</text>
<text text-anchor="start" x="369.5" y="-18.5" font-family="Helvetica,sans-Serif" font-size="10.00" fill="#000000">/AliceO2/GPU/GPUTracking</text>
<text text-anchor="middle" x="461.5" y="-7.5" font-family="Helvetica,sans-Serif" font-size="10.00" fill="#000000">/Base/hip/GPUReconstructionHIP.hip.cxx</text>
</a>
</g>
</g>
<!-- Node59&#45;&gt;Node60 -->
<g id="edge3" class="edge">
<title>Node59&#45;&gt;Node60</title>
<path fill="none" stroke="#191970" d="M461.5,-68.0789C461.5,-59.2178 461.5,-49.7747 461.5,-41.6898"/>
<polygon fill="#191970" stroke="#191970" points="458.0001,-68.0974 461.5,-78.0974 465.0001,-68.0975 458.0001,-68.0974"/>
</g>
<!-- Node61&#45;&gt;Node59 -->
<g id="edge5" class="edge">
<title>Node61&#45;&gt;Node59</title>
<path fill="none" stroke="#191970" d="M325.8187,-152.7215C352.6708,-142.0897 383.8435,-129.7473 409.5332,-119.5757"/>
<polygon fill="#191970" stroke="#191970" points="324.5264,-149.4688 316.5171,-156.4044 327.1033,-155.9772 324.5264,-149.4688"/>
</g>
<!-- Node62&#45;&gt;Node59 -->
<g id="edge7" class="edge">
<title>Node62&#45;&gt;Node59</title>
<path fill="none" stroke="#191970" d="M461.5,-146.0789C461.5,-137.2178 461.5,-127.7747 461.5,-119.6898"/>
<polygon fill="#191970" stroke="#191970" points="458.0001,-146.0974 461.5,-156.0974 465.0001,-146.0975 458.0001,-146.0974"/>
</g>
<!-- Node63&#45;&gt;Node59 -->
<g id="edge9" class="edge">
<title>Node63&#45;&gt;Node59</title>
<path fill="none" stroke="#191970" d="M599.2475,-152.7215C571.9865,-142.0897 540.3391,-129.7473 514.2581,-119.5757"/>
<polygon fill="#191970" stroke="#191970" points="598.1025,-156.0317 608.6907,-156.4044 600.6459,-149.5101 598.1025,-156.0317"/>
</g>
<!-- Node64&#45;&gt;Node59 -->
<g id="edge11" class="edge">
<title>Node64&#45;&gt;Node59</title>
<path fill="none" stroke="#191970" d="M760.1016,-155.7354C690.2145,-141.3757 621.2554,-128.2594 566.1377,-118.0309"/>
<polygon fill="#191970" stroke="#191970" points="759.467,-159.1781 769.9678,-157.7698 760.8806,-152.3224 759.467,-159.1781"/>
</g>
</g>
</svg>
        <g id="navigator" transform="translate(0 0)" fill="#404254">
                <rect fill="#f2f5e9" fill-opacity="0.5" stroke="#606060" stroke-width=".5" x="0" y="0" width="60" height="60"/>
                <use id="zoomplus" xlink:href="#zoomPlus" x="17" y="9" onmousedown="handleZoom(evt,'in')"/>
                <use id="zoomminus" xlink:href="#zoomMin" x="42" y="9" onmousedown="handleZoom(evt,'out')"/>
                <use id="reset" xlink:href="#resetDef" x="30" y="36" onmousedown="handleReset()"/>
                <g id="arrowUp" xlink:href="#dirArrow" transform="translate(30 24)" onmousedown="handlePan(0,-1)">
                  <use xlink:href="#rim" fill="#404040">
                        <set attributeName="fill" to="#808080" begin="arrowUp.mouseover" end="arrowUp.mouseout"/>
                  </use>
                  <path fill="none" stroke="white" stroke-width="1.5" d="M0,-3.0v7 M-2.5,-0.5L0,-3.0L2.5,-0.5"/>
                </g>
                <g id="arrowRight" xlink:href="#dirArrow" transform="rotate(90) translate(36 -43)" onmousedown="handlePan(1,0)">
                  <use xlink:href="#rim" fill="#404040">
                        <set attributeName="fill" to="#808080" begin="arrowRight.mouseover" end="arrowRight.mouseout"/>
                  </use>
                  <path fill="none" stroke="white" stroke-width="1.5" d="M0,-3.0v7 M-2.5,-0.5L0,-3.0L2.5,-0.5"/>
                </g>
                <g id="arrowDown" xlink:href="#dirArrow" transform="rotate(180) translate(-30 -48)" onmousedown="handlePan(0,1)">
                  <use xlink:href="#rim" fill="#404040">
                        <set attributeName="fill" to="#808080" begin="arrowDown.mouseover" end="arrowDown.mouseout"/>
                  </use>
                  <path fill="none" stroke="white" stroke-width="1.5" d="M0,-3.0v7 M-2.5,-0.5L0,-3.0L2.5,-0.5"/>
                </g>
                <g id="arrowLeft" xlink:href="#dirArrow" transform="rotate(270) translate(-36 17)" onmousedown="handlePan(-1,0)">
                  <use xlink:href="#rim" fill="#404040">
                        <set attributeName="fill" to="#808080" begin="arrowLeft.mouseover" end="arrowLeft.mouseout"/>
                  </use>
                  <path fill="none" stroke="white" stroke-width="1.5" d="M0,-3.0v7 M-2.5,-0.5L0,-3.0L2.5,-0.5"/>
                </g>
        </g>
        <svg viewBox="0 0 15 15" width="100%" height="30px" preserveAspectRatio="xMaxYMin meet">
         <g id="arrow_out" transform="scale(0.3 0.3)">
          <a xlink:href="GPUTPCConvertImpl_8h__dep__incl_org.svg" target="_base">
           <rect id="button" ry="5" rx="5" y="6" x="6" height="38" width="38"
                fill="#f2f5e9" fill-opacity="0.5" stroke="#606060" stroke-width="1.0"/>
           <path id="arrow"
             d="M 11.500037,31.436501 C 11.940474,20.09759 22.043105,11.32322 32.158766,21.979434 L 37.068811,17.246167 C 37.068811,17.246167 37.088388,32 37.088388,32 L 22.160133,31.978069 C 22.160133,31.978069 26.997745,27.140456 26.997745,27.140456 C 18.528582,18.264221 13.291696,25.230495 11.500037,31.436501 z"
             style="fill:#404040;"/>
          </a>
         </g>
        </svg>
</svg>
