<?xml version="1.0" encoding="UTF-8" standalone="no"?>
<!DOCTYPE svg PUBLIC "-//W3C//DTD SVG 1.1//EN"
 "http://www.w3.org/Graphics/SVG/1.1/DTD/svg11.dtd">
<!-- Generated by graphviz version 2.40.1 (20161225.0304)
 -->
<!-- Title: o2::framework::gui::HistoData&lt; T &gt; Pages: 1 -->
<svg width="157pt" height="193pt"
 viewBox="0.00 0.00 157.00 193.00" xmlns="http://www.w3.org/2000/svg" xmlns:xlink="http://www.w3.org/1999/xlink">
<g id="graph0" class="graph" transform="scale(1 1) rotate(0) translate(4 189)">
<title>o2::framework::gui::HistoData&lt; T &gt;</title>
<!-- Node1 -->
<g id="node1" class="node">
<title>Node1</title>
<polygon fill="#bfbfbf" stroke="#000000" points="18.5,-.5 18.5,-68.5 116.5,-68.5 116.5,-.5 18.5,-.5"/>
<text text-anchor="start" x="26.5" y="-56.5" font-family="Helvetica,sans-Serif" font-size="10.00" fill="#000000">o2::framework::gui</text>
<text text-anchor="middle" x="67.5" y="-45.5" font-family="Helvetica,sans-Serif" font-size="10.00" fill="#000000">::HistoData&lt; T &gt;</text>
<polyline fill="none" stroke="#000000" points="18.5,-38.5 116.5,-38.5 "/>
<text text-anchor="middle" x="67.5" y="-26.5" font-family="Helvetica,sans-Serif" font-size="10.00" fill="#000000"> </text>
<polyline fill="none" stroke="#000000" points="18.5,-19.5 116.5,-19.5 "/>
<text text-anchor="middle" x="67.5" y="-7.5" font-family="Helvetica,sans-Serif" font-size="10.00" fill="#000000"> </text>
</g>
<!-- Node2 -->
<g id="node2" class="node">
<title>Node2</title>
<polygon fill="none" stroke="#bfbfbf" points="0,-127.5 0,-184.5 29,-184.5 29,-127.5 0,-127.5"/>
<text text-anchor="middle" x="14.5" y="-172.5" font-family="Helvetica,sans-Serif" font-size="10.00" fill="#000000">int</text>
<polyline fill="none" stroke="#bfbfbf" points="0,-165.5 29,-165.5 "/>
<text text-anchor="middle" x="14.5" y="-153.5" font-family="Helvetica,sans-Serif" font-size="10.00" fill="#000000"> </text>
<polyline fill="none" stroke="#bfbfbf" points="0,-146.5 29,-146.5 "/>
<text text-anchor="middle" x="14.5" y="-134.5" font-family="Helvetica,sans-Serif" font-size="10.00" fill="#000000"> </text>
</g>
<!-- Node2&#45;&gt;Node1 -->
<g id="edge1" class="edge">
<title>Node2&#45;&gt;Node1</title>
<path fill="none" stroke="#404040" d="M21.5131,-127.2124C25.0267,-114.604 29.7633,-99.7973 35.5,-87 36.6605,-84.4112 37.9249,-81.794 39.2592,-79.1823"/>
<polygon fill="none" stroke="#404040" points="39.3051,-79.0982 38.6661,-71.9154 45.0506,-68.563 45.6896,-75.7458 39.3051,-79.0982"/>
<text text-anchor="middle" x="49.5" y="-95.5" font-family="Helvetica,sans-Serif" font-size="10.00" fill="#000000"> +mod</text>
</g>
<!-- Node3 -->
<g id="node3" class="node">
<title>Node3</title>
<polygon fill="none" stroke="#bfbfbf" points="47,-127.5 47,-184.5 88,-184.5 88,-127.5 47,-127.5"/>
<text text-anchor="middle" x="67.5" y="-172.5" font-family="Helvetica,sans-Serif" font-size="10.00" fill="#000000">const</text>
<polyline fill="none" stroke="#bfbfbf" points="47,-165.5 88,-165.5 "/>
<text text-anchor="middle" x="67.5" y="-153.5" font-family="Helvetica,sans-Serif" font-size="10.00" fill="#000000"> </text>
<polyline fill="none" stroke="#bfbfbf" points="47,-146.5 88,-146.5 "/>
<text text-anchor="middle" x="67.5" y="-134.5" font-family="Helvetica,sans-Serif" font-size="10.00" fill="#000000"> </text>
</g>
<!-- Node3&#45;&gt;Node1 -->
<g id="edge2" class="edge">
<title>Node3&#45;&gt;Node1</title>
<path fill="none" stroke="#404040" d="M67.5,-127.2062C67.5,-113.3632 67.5,-96.4255 67.5,-80.8327"/>
<polygon fill="none" stroke="#404040" points="67.5001,-80.7007 63.5,-74.7008 67.5,-68.7007 71.5,-74.7007 67.5001,-80.7007"/>
<text text-anchor="middle" x="85.5" y="-95.5" font-family="Helvetica,sans-Serif" font-size="10.00" fill="#000000"> +points</text>
</g>
<!-- Node4 -->
<g id="node4" class="node">
<title>Node4</title>
<polygon fill="none" stroke="#bfbfbf" points="106,-127.5 106,-184.5 149,-184.5 149,-127.5 106,-127.5"/>
<text text-anchor="middle" x="127.5" y="-172.5" font-family="Helvetica,sans-Serif" font-size="10.00" fill="#000000">size_t</text>
<polyline fill="none" stroke="#bfbfbf" points="106,-165.5 149,-165.5 "/>
<text text-anchor="middle" x="127.5" y="-153.5" font-family="Helvetica,sans-Serif" font-size="10.00" fill="#000000"> </text>
<polyline fill="none" stroke="#bfbfbf" points="106,-146.5 149,-146.5 "/>
<text text-anchor="middle" x="127.5" y="-134.5" font-family="Helvetica,sans-Serif" font-size="10.00" fill="#000000"> </text>
</g>
<!-- Node4&#45;&gt;Node1 -->
<g id="edge3" class="edge">
<title>Node4&#45;&gt;Node1</title>
<path fill="none" stroke="#404040" d="M120.5699,-127.3354C116.9409,-114.6129 111.904,-99.6828 105.5,-87 104.1244,-84.2756 102.6136,-81.5391 101.0118,-78.8237"/>
<polygon fill="none" stroke="#404040" points="100.9059,-78.6568 94.3136,-75.7343 94.4758,-68.525 101.0681,-71.4475 100.9059,-78.6568"/>
<text text-anchor="middle" x="127.5" y="-101" font-family="Helvetica,sans-Serif" font-size="10.00" fill="#000000"> +first</text>
<text text-anchor="middle" x="127.5" y="-90" font-family="Helvetica,sans-Serif" font-size="10.00" fill="#000000">+size</text>
</g>
</g>
</svg>
