<?xml version="1.0" encoding="UTF-8" standalone="no"?>
<!DOCTYPE svg PUBLIC "-//W3C//DTD SVG 1.1//EN"
 "http://www.w3.org/Graphics/SVG/1.1/DTD/svg11.dtd">
<!-- Generated by graphviz version 2.40.1 (20161225.0304)
 -->
<!-- Title: /home/runner/work/AliceO2/AliceO2/Analysis/Core/include/Analysis/AnalysisCompositeCut.h Pages: 1 -->
<svg width="213pt" height="162pt"
 viewBox="0.00 0.00 213.00 162.00" xmlns="http://www.w3.org/2000/svg" xmlns:xlink="http://www.w3.org/1999/xlink">
<g id="graph0" class="graph" transform="scale(1 1) rotate(0) translate(4 158)">
<title>/home/runner/work/AliceO2/AliceO2/Analysis/Core/include/Analysis/AnalysisCompositeCut.h</title>
<!-- Node0 -->
<g id="node1" class="node">
<title>Node0</title>
<polygon fill="#bfbfbf" stroke="#000000" points="2,-112.5 2,-153.5 205,-153.5 205,-112.5 2,-112.5"/>
<text text-anchor="start" x="10" y="-141.5" font-family="Helvetica,sans-Serif" font-size="10.00" fill="#000000">/home/runner/work/AliceO2</text>
<text text-anchor="start" x="10" y="-130.5" font-family="Helvetica,sans-Serif" font-size="10.00" fill="#000000">/AliceO2/Analysis/Core</text>
<text text-anchor="middle" x="103.5" y="-119.5" font-family="Helvetica,sans-Serif" font-size="10.00" fill="#000000">/include/Analysis/AnalysisCompositeCut.h</text>
</g>
<!-- Node1 -->
<g id="node2" class="node">
<title>Node1</title>
<g id="a_node2"><a xlink:href="../../d4/dd5/AnalysisCut_8h.html" target="_top" xlink:title="Analysis/AnalysisCut.h">
<polygon fill="none" stroke="#000000" points="0,-56.5 0,-75.5 119,-75.5 119,-56.5 0,-56.5"/>
<text text-anchor="middle" x="59.5" y="-63.5" font-family="Helvetica,sans-Serif" font-size="10.00" fill="#000000">Analysis/AnalysisCut.h</text>
</a>
</g>
</g>
<!-- Node0&#45;&gt;Node1 -->
<g id="edge1" class="edge">
<title>Node0&#45;&gt;Node1</title>
<path fill="none" stroke="#191970" d="M89.8193,-112.168C83.965,-103.2536 77.189,-92.9356 71.5295,-84.3177"/>
<polygon fill="#191970" stroke="#191970" points="74.3379,-82.2179 65.923,-75.7805 68.4868,-86.0604 74.3379,-82.2179"/>
</g>
<!-- Node3 -->
<g id="node4" class="node">
<title>Node3</title>
<polygon fill="none" stroke="#bfbfbf" points="111.5,-.5 111.5,-19.5 155.5,-19.5 155.5,-.5 111.5,-.5"/>
<text text-anchor="middle" x="133.5" y="-7.5" font-family="Helvetica,sans-Serif" font-size="10.00" fill="#000000">vector</text>
</g>
<!-- Node0&#45;&gt;Node3 -->
<g id="edge4" class="edge">
<title>Node0&#45;&gt;Node3</title>
<path fill="none" stroke="#191970" d="M114.513,-112.484C119.6721,-101.8922 125.3614,-88.5814 128.5,-76 132.2861,-60.8228 133.4595,-43.125 133.7283,-29.8784"/>
<polygon fill="#191970" stroke="#191970" points="137.2296,-29.5743 133.7745,-19.5587 130.2296,-29.5429 137.2296,-29.5743"/>
</g>
<!-- Node2 -->
<g id="node3" class="node">
<title>Node2</title>
<polygon fill="none" stroke="#bfbfbf" points="38.5,-.5 38.5,-19.5 80.5,-19.5 80.5,-.5 38.5,-.5"/>
<text text-anchor="middle" x="59.5" y="-7.5" font-family="Helvetica,sans-Serif" font-size="10.00" fill="#000000">TF1.h</text>
</g>
<!-- Node1&#45;&gt;Node2 -->
<g id="edge2" class="edge">
<title>Node1&#45;&gt;Node2</title>
<path fill="none" stroke="#191970" d="M59.5,-56.2455C59.5,-48.9382 59.5,-38.6944 59.5,-29.7046"/>
<polygon fill="#191970" stroke="#191970" points="63.0001,-29.6426 59.5,-19.6427 56.0001,-29.6427 63.0001,-29.6426"/>
</g>
<!-- Node1&#45;&gt;Node3 -->
<g id="edge3" class="edge">
<title>Node1&#45;&gt;Node3</title>
<path fill="none" stroke="#191970" d="M72.3898,-56.2455C83.4254,-47.8943 99.5292,-35.7076 112.4353,-25.9408"/>
<polygon fill="#191970" stroke="#191970" points="114.8959,-28.4681 120.7579,-19.6427 110.6717,-22.8862 114.8959,-28.4681"/>
</g>
</g>
</svg>
