<?xml version="1.0" encoding="UTF-8" standalone="no"?>
<!DOCTYPE svg PUBLIC "-//W3C//DTD SVG 1.1//EN"
 "http://www.w3.org/Graphics/SVG/1.1/DTD/svg11.dtd">
<!-- Generated by graphviz version 2.40.1 (20161225.0304)
 -->
<!-- Title: /home/runner/work/AliceO2/AliceO2/Utilities/DataSampling/src/DataSamplingConditionFactory.cxx Pages: 1 -->
<svg width="324pt" height="251pt"
 viewBox="0.00 0.00 324.00 251.00" xmlns="http://www.w3.org/2000/svg" xmlns:xlink="http://www.w3.org/1999/xlink">
<g id="graph0" class="graph" transform="scale(1 1) rotate(0) translate(4 247)">
<title>/home/runner/work/AliceO2/AliceO2/Utilities/DataSampling/src/DataSamplingConditionFactory.cxx</title>
<!-- Node0 -->
<g id="node1" class="node">
<title>Node0</title>
<polygon fill="#bfbfbf" stroke="#000000" points="0,-201.5 0,-242.5 191,-242.5 191,-201.5 0,-201.5"/>
<text text-anchor="start" x="8" y="-230.5" font-family="Helvetica,sans-Serif" font-size="10.00" fill="#000000">/home/runner/work/AliceO2</text>
<text text-anchor="start" x="8" y="-219.5" font-family="Helvetica,sans-Serif" font-size="10.00" fill="#000000">/AliceO2/Utilities/DataSampling</text>
<text text-anchor="middle" x="95.5" y="-208.5" font-family="Helvetica,sans-Serif" font-size="10.00" fill="#000000">/src/DataSamplingConditionFactory.cxx</text>
</g>
<!-- Node1 -->
<g id="node2" class="node">
<title>Node1</title>
<polygon fill="none" stroke="#bfbfbf" points="41.5,-73 41.5,-92 93.5,-92 93.5,-73 41.5,-73"/>
<text text-anchor="middle" x="67.5" y="-80" font-family="Helvetica,sans-Serif" font-size="10.00" fill="#000000">memory</text>
</g>
<!-- Node0&#45;&gt;Node1 -->
<g id="edge1" class="edge">
<title>Node0&#45;&gt;Node1</title>
<path fill="none" stroke="#191970" d="M76.954,-201.4258C69.0037,-191.2367 60.6107,-178.2876 56.5,-165 50.0542,-144.1643 55.0332,-119.2188 60.2056,-102.2528"/>
<polygon fill="#191970" stroke="#191970" points="63.6554,-102.9733 63.5144,-92.3794 57.0182,-100.7489 63.6554,-102.9733"/>
</g>
<!-- Node2 -->
<g id="node3" class="node">
<title>Node2</title>
<polygon fill="none" stroke="#bfbfbf" points="66,-140 66,-159 125,-159 125,-140 66,-140"/>
<text text-anchor="middle" x="95.5" y="-147" font-family="Helvetica,sans-Serif" font-size="10.00" fill="#000000">stdexcept</text>
</g>
<!-- Node0&#45;&gt;Node2 -->
<g id="edge2" class="edge">
<title>Node0&#45;&gt;Node2</title>
<path fill="none" stroke="#191970" d="M95.5,-201.4183C95.5,-191.32 95.5,-179.213 95.5,-169.2314"/>
<polygon fill="#191970" stroke="#191970" points="99.0001,-169.0853 95.5,-159.0853 92.0001,-169.0854 99.0001,-169.0853"/>
</g>
<!-- Node3 -->
<g id="node4" class="node">
<title>Node3</title>
<g id="a_node4"><a xlink:href="../../de/dca/DataSamplingConditionFactory_8h.html" target="_top" xlink:title="A definition of DataSamplingConditionFactory. ">
<polygon fill="none" stroke="#000000" points="143,-134.5 143,-164.5 286,-164.5 286,-134.5 143,-134.5"/>
<text text-anchor="start" x="151" y="-152.5" font-family="Helvetica,sans-Serif" font-size="10.00" fill="#000000">DataSampling/DataSampling</text>
<text text-anchor="middle" x="214.5" y="-141.5" font-family="Helvetica,sans-Serif" font-size="10.00" fill="#000000">ConditionFactory.h</text>
</a>
</g>
</g>
<!-- Node0&#45;&gt;Node3 -->
<g id="edge3" class="edge">
<title>Node0&#45;&gt;Node3</title>
<path fill="none" stroke="#191970" d="M129.2823,-201.4183C145.516,-191.5281 164.9124,-179.7109 181.0965,-169.8509"/>
<polygon fill="#191970" stroke="#191970" points="182.9977,-172.791 189.7166,-164.5991 179.3557,-166.8131 182.9977,-172.791"/>
</g>
<!-- Node3&#45;&gt;Node1 -->
<g id="edge8" class="edge">
<title>Node3&#45;&gt;Node1</title>
<path fill="none" stroke="#191970" d="M181.5103,-134.4639C156.4012,-123.0196 122.1192,-107.3945 97.7205,-96.274"/>
<polygon fill="#191970" stroke="#191970" points="99.1223,-93.0665 88.5713,-92.1039 96.2191,-99.4361 99.1223,-93.0665"/>
</g>
<!-- Node4 -->
<g id="node5" class="node">
<title>Node4</title>
<g id="a_node5"><a xlink:href="../../dd/dcf/DataSamplingCondition_8h.html" target="_top" xlink:title="A standarised data sampling condition, to decide if given data sample should be passed forward...">
<polygon fill="none" stroke="#000000" points="127,-67.5 127,-97.5 270,-97.5 270,-67.5 127,-67.5"/>
<text text-anchor="start" x="135" y="-85.5" font-family="Helvetica,sans-Serif" font-size="10.00" fill="#000000">DataSampling/DataSampling</text>
<text text-anchor="middle" x="198.5" y="-74.5" font-family="Helvetica,sans-Serif" font-size="10.00" fill="#000000">Condition.h</text>
</a>
</g>
</g>
<!-- Node3&#45;&gt;Node4 -->
<g id="edge4" class="edge">
<title>Node3&#45;&gt;Node4</title>
<path fill="none" stroke="#191970" d="M210.8694,-134.2967C208.9873,-126.4156 206.6399,-116.5857 204.4973,-107.6135"/>
<polygon fill="#191970" stroke="#191970" points="207.8434,-106.5567 202.1163,-97.6432 201.0348,-108.1827 207.8434,-106.5567"/>
</g>
<!-- Node7 -->
<g id="node8" class="node">
<title>Node7</title>
<polygon fill="none" stroke="#bfbfbf" points="275,-6 275,-25 316,-25 316,-6 275,-6"/>
<text text-anchor="middle" x="295.5" y="-13" font-family="Helvetica,sans-Serif" font-size="10.00" fill="#000000">string</text>
</g>
<!-- Node3&#45;&gt;Node7 -->
<g id="edge9" class="edge">
<title>Node3&#45;&gt;Node7</title>
<path fill="none" stroke="#191970" d="M241.4552,-134.4954C254.9373,-125.6125 270.3018,-113.1326 279.5,-98 291.1801,-78.7842 294.5955,-52.8019 295.4642,-35.1662"/>
<polygon fill="#191970" stroke="#191970" points="298.9629,-35.2571 295.728,-25.1683 291.9654,-35.0725 298.9629,-35.2571"/>
</g>
<!-- Node5 -->
<g id="node6" class="node">
<title>Node5</title>
<g id="a_node6"><a xlink:href="../../d5/dfb/DataRef_8h.html" target="_top" xlink:title="Framework/DataRef.h">
<polygon fill="none" stroke="#000000" points="20,-6 20,-25 133,-25 133,-6 20,-6"/>
<text text-anchor="middle" x="76.5" y="-13" font-family="Helvetica,sans-Serif" font-size="10.00" fill="#000000">Framework/DataRef.h</text>
</a>
</g>
</g>
<!-- Node4&#45;&gt;Node5 -->
<g id="edge5" class="edge">
<title>Node4&#45;&gt;Node5</title>
<path fill="none" stroke="#191970" d="M171.1208,-67.4639C150.743,-56.2728 123.0854,-41.0838 102.9368,-30.0186"/>
<polygon fill="#191970" stroke="#191970" points="104.4377,-26.8498 93.9877,-25.1039 101.0681,-32.9855 104.4377,-26.8498"/>
</g>
<!-- Node6 -->
<g id="node7" class="node">
<title>Node6</title>
<polygon fill="none" stroke="#bfbfbf" points="151,-.5 151,-30.5 252,-30.5 252,-.5 151,-.5"/>
<text text-anchor="start" x="159" y="-18.5" font-family="Helvetica,sans-Serif" font-size="10.00" fill="#000000">boost/property_tree</text>
<text text-anchor="middle" x="201.5" y="-7.5" font-family="Helvetica,sans-Serif" font-size="10.00" fill="#000000">/ptree_fwd.hpp</text>
</g>
<!-- Node4&#45;&gt;Node6 -->
<g id="edge6" class="edge">
<title>Node4&#45;&gt;Node6</title>
<path fill="none" stroke="#191970" d="M199.1807,-67.2967C199.5298,-59.5013 199.9642,-49.7991 200.3624,-40.9064"/>
<polygon fill="#191970" stroke="#191970" points="203.871,-40.7898 200.8219,-30.6432 196.878,-40.4766 203.871,-40.7898"/>
</g>
<!-- Node4&#45;&gt;Node7 -->
<g id="edge7" class="edge">
<title>Node4&#45;&gt;Node7</title>
<path fill="none" stroke="#191970" d="M220.5108,-67.2967C236.2108,-56.4524 257.2528,-41.9182 273.051,-31.006"/>
<polygon fill="#191970" stroke="#191970" points="275.4278,-33.6181 281.6667,-25.055 271.4495,-27.8585 275.4278,-33.6181"/>
</g>
</g>
</svg>
