<?xml version="1.0" encoding="UTF-8" standalone="no"?>
<!DOCTYPE svg PUBLIC "-//W3C//DTD SVG 1.1//EN"
 "http://www.w3.org/Graphics/SVG/1.1/DTD/svg11.dtd">
<!-- Generated by graphviz version 2.40.1 (20161225.0304)
 -->
<!-- Title: /home/runner/work/AliceO2/AliceO2/CCDB/include/CCDB/TObjectWrapper.h Pages: 1 -->
<svg width="493pt" height="106pt"
 viewBox="0.00 0.00 492.50 106.00" xmlns="http://www.w3.org/2000/svg" xmlns:xlink="http://www.w3.org/1999/xlink">
<g id="graph0" class="graph" transform="scale(1 1) rotate(0) translate(4 102)">
<title>/home/runner/work/AliceO2/AliceO2/CCDB/include/CCDB/TObjectWrapper.h</title>
<!-- Node0 -->
<g id="node1" class="node">
<title>Node0</title>
<polygon fill="#bfbfbf" stroke="#000000" points="169,-56.5 169,-97.5 321,-97.5 321,-56.5 169,-56.5"/>
<text text-anchor="start" x="177" y="-85.5" font-family="Helvetica,sans-Serif" font-size="10.00" fill="#000000">/home/runner/work/AliceO2</text>
<text text-anchor="start" x="177" y="-74.5" font-family="Helvetica,sans-Serif" font-size="10.00" fill="#000000">/AliceO2/CCDB/include/CCDB</text>
<text text-anchor="middle" x="245" y="-63.5" font-family="Helvetica,sans-Serif" font-size="10.00" fill="#000000">/TObjectWrapper.h</text>
</g>
<!-- Node1 -->
<g id="node2" class="node">
<title>Node1</title>
<polygon fill="none" stroke="#bfbfbf" points="0,-.5 0,-19.5 56,-19.5 56,-.5 0,-.5"/>
<text text-anchor="middle" x="28" y="-7.5" font-family="Helvetica,sans-Serif" font-size="10.00" fill="#000000">TClass.h</text>
</g>
<!-- Node0&#45;&gt;Node1 -->
<g id="edge1" class="edge">
<title>Node0&#45;&gt;Node1</title>
<path fill="none" stroke="#191970" d="M178.4181,-56.4425C141.4321,-45.0228 96.7667,-31.2321 65.7619,-21.6592"/>
<polygon fill="#191970" stroke="#191970" points="66.79,-18.3137 56.2025,-18.7077 64.7248,-25.0021 66.79,-18.3137"/>
</g>
<!-- Node2 -->
<g id="node3" class="node">
<title>Node2</title>
<polygon fill="none" stroke="#bfbfbf" points="74.5,-.5 74.5,-19.5 133.5,-19.5 133.5,-.5 74.5,-.5"/>
<text text-anchor="middle" x="104" y="-7.5" font-family="Helvetica,sans-Serif" font-size="10.00" fill="#000000">TObject.h</text>
</g>
<!-- Node0&#45;&gt;Node2 -->
<g id="edge2" class="edge">
<title>Node0&#45;&gt;Node2</title>
<path fill="none" stroke="#191970" d="M201.5448,-56.3511C179.4319,-45.8435 153.1349,-33.3478 133.4202,-23.9798"/>
<polygon fill="#191970" stroke="#191970" points="134.8523,-20.7853 124.318,-19.6546 131.848,-27.1078 134.8523,-20.7853"/>
</g>
<!-- Node3 -->
<g id="node4" class="node">
<title>Node3</title>
<polygon fill="none" stroke="#bfbfbf" points="151.5,-.5 151.5,-19.5 204.5,-19.5 204.5,-.5 151.5,-.5"/>
<text text-anchor="middle" x="178" y="-7.5" font-family="Helvetica,sans-Serif" font-size="10.00" fill="#000000">cxxabi.h</text>
</g>
<!-- Node0&#45;&gt;Node3 -->
<g id="edge3" class="edge">
<title>Node0&#45;&gt;Node3</title>
<path fill="none" stroke="#191970" d="M224.168,-56.168C214.7794,-46.7794 203.834,-35.834 194.9574,-26.9574"/>
<polygon fill="#191970" stroke="#191970" points="197.3265,-24.3767 187.7805,-19.7805 192.3767,-29.3265 197.3265,-24.3767"/>
</g>
<!-- Node4 -->
<g id="node5" class="node">
<title>Node4</title>
<polygon fill="none" stroke="#bfbfbf" points="222.5,-.5 222.5,-19.5 267.5,-19.5 267.5,-.5 222.5,-.5"/>
<text text-anchor="middle" x="245" y="-7.5" font-family="Helvetica,sans-Serif" font-size="10.00" fill="#000000">iosfwd</text>
</g>
<!-- Node0&#45;&gt;Node4 -->
<g id="edge4" class="edge">
<title>Node0&#45;&gt;Node4</title>
<path fill="none" stroke="#191970" d="M245,-56.168C245,-47.8226 245,-38.2471 245,-29.9879"/>
<polygon fill="#191970" stroke="#191970" points="248.5001,-29.7804 245,-19.7805 241.5001,-29.7805 248.5001,-29.7804"/>
</g>
<!-- Node5 -->
<g id="node6" class="node">
<title>Node5</title>
<polygon fill="none" stroke="#bfbfbf" points="286,-.5 286,-19.5 338,-19.5 338,-.5 286,-.5"/>
<text text-anchor="middle" x="312" y="-7.5" font-family="Helvetica,sans-Serif" font-size="10.00" fill="#000000">memory</text>
</g>
<!-- Node0&#45;&gt;Node5 -->
<g id="edge5" class="edge">
<title>Node0&#45;&gt;Node5</title>
<path fill="none" stroke="#191970" d="M265.832,-56.168C275.2206,-46.7794 286.166,-35.834 295.0426,-26.9574"/>
<polygon fill="#191970" stroke="#191970" points="297.6233,-29.3265 302.2195,-19.7805 292.6735,-24.3767 297.6233,-29.3265"/>
</g>
<!-- Node6 -->
<g id="node7" class="node">
<title>Node6</title>
<polygon fill="none" stroke="#bfbfbf" points="356.5,-.5 356.5,-19.5 415.5,-19.5 415.5,-.5 356.5,-.5"/>
<text text-anchor="middle" x="386" y="-7.5" font-family="Helvetica,sans-Serif" font-size="10.00" fill="#000000">stdexcept</text>
</g>
<!-- Node0&#45;&gt;Node6 -->
<g id="edge6" class="edge">
<title>Node0&#45;&gt;Node6</title>
<path fill="none" stroke="#191970" d="M288.4552,-56.3511C310.5681,-45.8435 336.8651,-33.3478 356.5798,-23.9798"/>
<polygon fill="#191970" stroke="#191970" points="358.152,-27.1078 365.682,-19.6546 355.1477,-20.7853 358.152,-27.1078"/>
</g>
<!-- Node7 -->
<g id="node8" class="node">
<title>Node7</title>
<polygon fill="none" stroke="#bfbfbf" points="433.5,-.5 433.5,-19.5 484.5,-19.5 484.5,-.5 433.5,-.5"/>
<text text-anchor="middle" x="459" y="-7.5" font-family="Helvetica,sans-Serif" font-size="10.00" fill="#000000">typeinfo</text>
</g>
<!-- Node0&#45;&gt;Node7 -->
<g id="edge7" class="edge">
<title>Node0&#45;&gt;Node7</title>
<path fill="none" stroke="#191970" d="M310.6614,-56.4425C347.8613,-44.7958 392.9385,-30.6828 423.5677,-21.0933"/>
<polygon fill="#191970" stroke="#191970" points="424.8714,-24.3527 433.3689,-18.0247 422.7799,-17.6725 424.8714,-24.3527"/>
</g>
</g>
</svg>
