<?xml version="1.0" encoding="UTF-8" standalone="no"?>
<!DOCTYPE svg PUBLIC "-//W3C//DTD SVG 1.1//EN"
 "http://www.w3.org/Graphics/SVG/1.1/DTD/svg11.dtd">
<!-- Generated by graphviz version 2.40.1 (20161225.0304)
 -->
<!-- Title: o2::framework::ProcessingContext Pages: 1 -->
<svg width="1530pt" height="617pt"
 viewBox="0.00 0.00 1529.50 617.00" xmlns="http://www.w3.org/2000/svg" xmlns:xlink="http://www.w3.org/1999/xlink">
<g id="graph0" class="graph" transform="scale(1 1) rotate(0) translate(4 613)">
<title>o2::framework::ProcessingContext</title>
<!-- Node1 -->
<g id="node1" class="node">
<title>Node1</title>
<polygon fill="#bfbfbf" stroke="#000000" points="760,-.5 760,-101.5 894,-101.5 894,-.5 760,-.5"/>
<text text-anchor="start" x="768" y="-89.5" font-family="Helvetica,sans-Serif" font-size="10.00" fill="#000000">o2::framework::Processing</text>
<text text-anchor="middle" x="827" y="-78.5" font-family="Helvetica,sans-Serif" font-size="10.00" fill="#000000">Context</text>
<polyline fill="none" stroke="#000000" points="760,-71.5 894,-71.5 "/>
<text text-anchor="middle" x="827" y="-59.5" font-family="Helvetica,sans-Serif" font-size="10.00" fill="#000000"> </text>
<polyline fill="none" stroke="#000000" points="760,-52.5 894,-52.5 "/>
<text text-anchor="start" x="768" y="-40.5" font-family="Helvetica,sans-Serif" font-size="10.00" fill="#000000">+ ProcessingContext()</text>
<text text-anchor="start" x="768" y="-29.5" font-family="Helvetica,sans-Serif" font-size="10.00" fill="#000000">+ inputs()</text>
<text text-anchor="start" x="768" y="-18.5" font-family="Helvetica,sans-Serif" font-size="10.00" fill="#000000">+ services()</text>
<text text-anchor="start" x="768" y="-7.5" font-family="Helvetica,sans-Serif" font-size="10.00" fill="#000000">+ outputs()</text>
</g>
<!-- Node2 -->
<g id="node2" class="node">
<title>Node2</title>
<g id="a_node2"><a xlink:href="../../df/d82/classo2_1_1framework_1_1DataAllocator.html" target="_top" xlink:title="{o2::framework::DataAllocator\n||+ DataAllocator()\l+ newChunk()\l+ newChunk()\l+ adoptChunk()\l+ make()\l+ make_boost()\l+ adopt()\l+ adopt()\l+ adopt()\l+ adopt()\l+ adopt()\l+ adopt_boost()\l+ snapshot()\l+ snapshot()\l+ make()\l+ adopt()\l+ getMemoryResource()\l+ makeVector()\l+ adoptContainer()\l+ adoptContainer()\l+ snapshot()\l+ isAllowed()\l+ findMessageHeader()\l+ findMessageHeader()\l}">
<polygon fill="none" stroke="#000000" points="587,-149.5 587,-459.5 731,-459.5 731,-149.5 587,-149.5"/>
<text text-anchor="middle" x="659" y="-447.5" font-family="Helvetica,sans-Serif" font-size="10.00" fill="#000000">o2::framework::DataAllocator</text>
<polyline fill="none" stroke="#000000" points="587,-440.5 731,-440.5 "/>
<text text-anchor="middle" x="659" y="-428.5" font-family="Helvetica,sans-Serif" font-size="10.00" fill="#000000"> </text>
<polyline fill="none" stroke="#000000" points="587,-421.5 731,-421.5 "/>
<text text-anchor="start" x="595" y="-409.5" font-family="Helvetica,sans-Serif" font-size="10.00" fill="#000000">+ DataAllocator()</text>
<text text-anchor="start" x="595" y="-398.5" font-family="Helvetica,sans-Serif" font-size="10.00" fill="#000000">+ newChunk()</text>
<text text-anchor="start" x="595" y="-387.5" font-family="Helvetica,sans-Serif" font-size="10.00" fill="#000000">+ newChunk()</text>
<text text-anchor="start" x="595" y="-376.5" font-family="Helvetica,sans-Serif" font-size="10.00" fill="#000000">+ adoptChunk()</text>
<text text-anchor="start" x="595" y="-365.5" font-family="Helvetica,sans-Serif" font-size="10.00" fill="#000000">+ make()</text>
<text text-anchor="start" x="595" y="-354.5" font-family="Helvetica,sans-Serif" font-size="10.00" fill="#000000">+ make_boost()</text>
<text text-anchor="start" x="595" y="-343.5" font-family="Helvetica,sans-Serif" font-size="10.00" fill="#000000">+ adopt()</text>
<text text-anchor="start" x="595" y="-332.5" font-family="Helvetica,sans-Serif" font-size="10.00" fill="#000000">+ adopt()</text>
<text text-anchor="start" x="595" y="-321.5" font-family="Helvetica,sans-Serif" font-size="10.00" fill="#000000">+ adopt()</text>
<text text-anchor="start" x="595" y="-310.5" font-family="Helvetica,sans-Serif" font-size="10.00" fill="#000000">+ adopt()</text>
<text text-anchor="start" x="595" y="-299.5" font-family="Helvetica,sans-Serif" font-size="10.00" fill="#000000">+ adopt()</text>
<text text-anchor="start" x="595" y="-288.5" font-family="Helvetica,sans-Serif" font-size="10.00" fill="#000000">+ adopt_boost()</text>
<text text-anchor="start" x="595" y="-277.5" font-family="Helvetica,sans-Serif" font-size="10.00" fill="#000000">+ snapshot()</text>
<text text-anchor="start" x="595" y="-266.5" font-family="Helvetica,sans-Serif" font-size="10.00" fill="#000000">+ snapshot()</text>
<text text-anchor="start" x="595" y="-255.5" font-family="Helvetica,sans-Serif" font-size="10.00" fill="#000000">+ make()</text>
<text text-anchor="start" x="595" y="-244.5" font-family="Helvetica,sans-Serif" font-size="10.00" fill="#000000">+ adopt()</text>
<text text-anchor="start" x="595" y="-233.5" font-family="Helvetica,sans-Serif" font-size="10.00" fill="#000000">+ getMemoryResource()</text>
<text text-anchor="start" x="595" y="-222.5" font-family="Helvetica,sans-Serif" font-size="10.00" fill="#000000">+ makeVector()</text>
<text text-anchor="start" x="595" y="-211.5" font-family="Helvetica,sans-Serif" font-size="10.00" fill="#000000">+ adoptContainer()</text>
<text text-anchor="start" x="595" y="-200.5" font-family="Helvetica,sans-Serif" font-size="10.00" fill="#000000">+ adoptContainer()</text>
<text text-anchor="start" x="595" y="-189.5" font-family="Helvetica,sans-Serif" font-size="10.00" fill="#000000">+ snapshot()</text>
<text text-anchor="start" x="595" y="-178.5" font-family="Helvetica,sans-Serif" font-size="10.00" fill="#000000">+ isAllowed()</text>
<text text-anchor="start" x="595" y="-167.5" font-family="Helvetica,sans-Serif" font-size="10.00" fill="#000000">+ findMessageHeader()</text>
<text text-anchor="start" x="595" y="-156.5" font-family="Helvetica,sans-Serif" font-size="10.00" fill="#000000">+ findMessageHeader()</text>
</a>
</g>
</g>
<!-- Node2&#45;&gt;Node1 -->
<g id="edge1" class="edge">
<title>Node2&#45;&gt;Node1</title>
<path fill="none" stroke="#404040" d="M731.0486,-162.504C733.9916,-157.901 736.9785,-153.3871 740,-149 748.8952,-136.0846 759.3076,-123.0194 769.7753,-110.8214"/>
<polygon fill="none" stroke="#404040" points="769.8689,-110.7143 770.8062,-103.5643 777.7666,-101.6794 776.8294,-108.8294 769.8689,-110.7143"/>
<text text-anchor="middle" x="790" y="-123" font-family="Helvetica,sans-Serif" font-size="10.00" fill="#000000"> +mAllocator</text>
</g>
<!-- Node3 -->
<g id="node3" class="node">
<title>Node3</title>
<g id="a_node3"><a xlink:href="../../dc/dba/structo2_1_1framework_1_1ServiceRegistry.html" target="_top" xlink:title="{o2::framework::ServiceRegistry\n||+ ServiceRegistry()\l+ ServiceRegistry()\l+ operator=()\l+ preProcessingCallbacks()\l+ postProcessingCallbacks()\l+ preDanglingCallbacks()\l+ postDanglingCallbacks()\l+ preEOSCallbacks()\l+ postEOSCallbacks()\l+ postDispatchingCallbacks()\l+ declareService()\l+ bindService()\l+ registerService()\l+ getPos()\l+ get()\l+ registerService()\l+ registerService()\l+ registerService()\l+ active()\l+ get()\l}">
<polygon fill="none" stroke="#000000" points="749.5,-171.5 749.5,-437.5 904.5,-437.5 904.5,-171.5 749.5,-171.5"/>
<text text-anchor="middle" x="827" y="-425.5" font-family="Helvetica,sans-Serif" font-size="10.00" fill="#000000">o2::framework::ServiceRegistry</text>
<polyline fill="none" stroke="#000000" points="749.5,-418.5 904.5,-418.5 "/>
<text text-anchor="middle" x="827" y="-406.5" font-family="Helvetica,sans-Serif" font-size="10.00" fill="#000000"> </text>
<polyline fill="none" stroke="#000000" points="749.5,-399.5 904.5,-399.5 "/>
<text text-anchor="start" x="757.5" y="-387.5" font-family="Helvetica,sans-Serif" font-size="10.00" fill="#000000">+ ServiceRegistry()</text>
<text text-anchor="start" x="757.5" y="-376.5" font-family="Helvetica,sans-Serif" font-size="10.00" fill="#000000">+ ServiceRegistry()</text>
<text text-anchor="start" x="757.5" y="-365.5" font-family="Helvetica,sans-Serif" font-size="10.00" fill="#000000">+ operator=()</text>
<text text-anchor="start" x="757.5" y="-354.5" font-family="Helvetica,sans-Serif" font-size="10.00" fill="#000000">+ preProcessingCallbacks()</text>
<text text-anchor="start" x="757.5" y="-343.5" font-family="Helvetica,sans-Serif" font-size="10.00" fill="#000000">+ postProcessingCallbacks()</text>
<text text-anchor="start" x="757.5" y="-332.5" font-family="Helvetica,sans-Serif" font-size="10.00" fill="#000000">+ preDanglingCallbacks()</text>
<text text-anchor="start" x="757.5" y="-321.5" font-family="Helvetica,sans-Serif" font-size="10.00" fill="#000000">+ postDanglingCallbacks()</text>
<text text-anchor="start" x="757.5" y="-310.5" font-family="Helvetica,sans-Serif" font-size="10.00" fill="#000000">+ preEOSCallbacks()</text>
<text text-anchor="start" x="757.5" y="-299.5" font-family="Helvetica,sans-Serif" font-size="10.00" fill="#000000">+ postEOSCallbacks()</text>
<text text-anchor="start" x="757.5" y="-288.5" font-family="Helvetica,sans-Serif" font-size="10.00" fill="#000000">+ postDispatchingCallbacks()</text>
<text text-anchor="start" x="757.5" y="-277.5" font-family="Helvetica,sans-Serif" font-size="10.00" fill="#000000">+ declareService()</text>
<text text-anchor="start" x="757.5" y="-266.5" font-family="Helvetica,sans-Serif" font-size="10.00" fill="#000000">+ bindService()</text>
<text text-anchor="start" x="757.5" y="-255.5" font-family="Helvetica,sans-Serif" font-size="10.00" fill="#000000">+ registerService()</text>
<text text-anchor="start" x="757.5" y="-244.5" font-family="Helvetica,sans-Serif" font-size="10.00" fill="#000000">+ getPos()</text>
<text text-anchor="start" x="757.5" y="-233.5" font-family="Helvetica,sans-Serif" font-size="10.00" fill="#000000">+ get()</text>
<text text-anchor="start" x="757.5" y="-222.5" font-family="Helvetica,sans-Serif" font-size="10.00" fill="#000000">+ registerService()</text>
<text text-anchor="start" x="757.5" y="-211.5" font-family="Helvetica,sans-Serif" font-size="10.00" fill="#000000">+ registerService()</text>
<text text-anchor="start" x="757.5" y="-200.5" font-family="Helvetica,sans-Serif" font-size="10.00" fill="#000000">+ registerService()</text>
<text text-anchor="start" x="757.5" y="-189.5" font-family="Helvetica,sans-Serif" font-size="10.00" fill="#000000">+ active()</text>
<text text-anchor="start" x="757.5" y="-178.5" font-family="Helvetica,sans-Serif" font-size="10.00" fill="#000000">+ get()</text>
</a>
</g>
</g>
<!-- Node3&#45;&gt;Node1 -->
<g id="edge2" class="edge">
<title>Node3&#45;&gt;Node1</title>
<path fill="none" stroke="#404040" d="M827,-171.4396C827,-151.3349 827,-131.4424 827,-113.7921"/>
<polygon fill="none" stroke="#404040" points="827.0001,-113.6617 823,-107.6618 827,-101.6617 831,-107.6617 827.0001,-113.6617"/>
<text text-anchor="middle" x="855" y="-123" font-family="Helvetica,sans-Serif" font-size="10.00" fill="#000000"> +mServices</text>
</g>
<!-- Node4 -->
<g id="node4" class="node">
<title>Node4</title>
<polygon fill="none" stroke="#bfbfbf" points="0,-529.5 0,-608.5 162,-608.5 162,-529.5 0,-529.5"/>
<text text-anchor="start" x="8" y="-596.5" font-family="Helvetica,sans-Serif" font-size="10.00" fill="#000000">array&lt; o2::framework</text>
<text text-anchor="start" x="8" y="-585.5" font-family="Helvetica,sans-Serif" font-size="10.00" fill="#000000">::ServiceMeta, MAX_SERVICES</text>
<text text-anchor="middle" x="81" y="-574.5" font-family="Helvetica,sans-Serif" font-size="10.00" fill="#000000">+MAX_DISTANCE &gt;</text>
<polyline fill="none" stroke="#bfbfbf" points="0,-567.5 162,-567.5 "/>
<text text-anchor="middle" x="81" y="-555.5" font-family="Helvetica,sans-Serif" font-size="10.00" fill="#000000"> </text>
<polyline fill="none" stroke="#bfbfbf" points="0,-548.5 162,-548.5 "/>
<text text-anchor="middle" x="81" y="-536.5" font-family="Helvetica,sans-Serif" font-size="10.00" fill="#000000"> </text>
</g>
<!-- Node4&#45;&gt;Node3 -->
<g id="edge3" class="edge">
<title>Node4&#45;&gt;Node3</title>
<path fill="none" stroke="#404040" d="M125.2167,-529.2886C149.583,-509.9838 181.4362,-488.6876 214,-478 269.5626,-459.764 690.0678,-490.439 740,-460 746.5002,-456.0374 752.5547,-451.3997 758.189,-446.2533"/>
<polygon fill="none" stroke="#404040" points="758.2006,-446.2417 759.6272,-439.1731 766.7008,-437.7712 765.2742,-444.8398 758.2006,-446.2417"/>
<text text-anchor="middle" x="253" y="-492" font-family="Helvetica,sans-Serif" font-size="10.00" fill="#000000"> +mServicesMeta</text>
</g>
<!-- Node5 -->
<g id="node5" class="node">
<title>Node5</title>
<polygon fill="none" stroke="#bfbfbf" points="180,-535 180,-603 314,-603 314,-535 180,-535"/>
<text text-anchor="start" x="188" y="-591" font-family="Helvetica,sans-Serif" font-size="10.00" fill="#000000">vector&lt; o2::framework</text>
<text text-anchor="middle" x="247" y="-580" font-family="Helvetica,sans-Serif" font-size="10.00" fill="#000000">::ServiceDanglingHandle &gt;</text>
<polyline fill="none" stroke="#bfbfbf" points="180,-573 314,-573 "/>
<text text-anchor="middle" x="247" y="-561" font-family="Helvetica,sans-Serif" font-size="10.00" fill="#000000"> </text>
<polyline fill="none" stroke="#bfbfbf" points="180,-554 314,-554 "/>
<text text-anchor="middle" x="247" y="-542" font-family="Helvetica,sans-Serif" font-size="10.00" fill="#000000"> </text>
</g>
<!-- Node5&#45;&gt;Node3 -->
<g id="edge4" class="edge">
<title>Node5&#45;&gt;Node3</title>
<path fill="none" stroke="#404040" d="M271.994,-534.9041C289.1562,-514.414 313.8662,-490.0458 342,-478 423.3884,-443.1526 664.6586,-506.4983 740,-460 746.4783,-456.0018 752.5151,-451.3353 758.1354,-446.1659"/>
<polygon fill="none" stroke="#404040" points="758.1531,-446.1482 759.5586,-439.0754 766.628,-437.6525 765.2224,-444.7253 758.1531,-446.1482"/>
<text text-anchor="middle" x="396.5" y="-497.5" font-family="Helvetica,sans-Serif" font-size="10.00" fill="#000000"> +mPreDanglingHandles</text>
<text text-anchor="middle" x="396.5" y="-486.5" font-family="Helvetica,sans-Serif" font-size="10.00" fill="#000000">+mPostDanglingHandles</text>
</g>
<!-- Node6 -->
<g id="node6" class="node">
<title>Node6</title>
<polygon fill="none" stroke="#bfbfbf" points="332,-535 332,-603 476,-603 476,-535 332,-535"/>
<text text-anchor="start" x="340" y="-591" font-family="Helvetica,sans-Serif" font-size="10.00" fill="#000000">vector&lt; o2::framework</text>
<text text-anchor="middle" x="404" y="-580" font-family="Helvetica,sans-Serif" font-size="10.00" fill="#000000">::ServiceProcessingHandle &gt;</text>
<polyline fill="none" stroke="#bfbfbf" points="332,-573 476,-573 "/>
<text text-anchor="middle" x="404" y="-561" font-family="Helvetica,sans-Serif" font-size="10.00" fill="#000000"> </text>
<polyline fill="none" stroke="#bfbfbf" points="332,-554 476,-554 "/>
<text text-anchor="middle" x="404" y="-542" font-family="Helvetica,sans-Serif" font-size="10.00" fill="#000000"> </text>
</g>
<!-- Node6&#45;&gt;Node3 -->
<g id="edge5" class="edge">
<title>Node6&#45;&gt;Node3</title>
<path fill="none" stroke="#404040" d="M430.5335,-534.7271C448.3573,-514.4428 473.7034,-490.3637 502,-478 550.6031,-456.7638 695.2911,-488.5368 740,-460 746.1807,-456.0549 751.9628,-451.5073 757.367,-446.5026"/>
<polygon fill="none" stroke="#404040" points="757.6654,-446.2012 759.0447,-439.1232 766.1087,-437.674 764.7295,-444.752 757.6654,-446.2012"/>
<text text-anchor="middle" x="562" y="-497.5" font-family="Helvetica,sans-Serif" font-size="10.00" fill="#000000"> +mPreProcessingHandles</text>
<text text-anchor="middle" x="562" y="-486.5" font-family="Helvetica,sans-Serif" font-size="10.00" fill="#000000">+mPostProcessingHandles</text>
</g>
<!-- Node7 -->
<g id="node7" class="node">
<title>Node7</title>
<polygon fill="none" stroke="#bfbfbf" points="494.5,-535 494.5,-603 661.5,-603 661.5,-535 494.5,-535"/>
<text text-anchor="start" x="502.5" y="-591" font-family="Helvetica,sans-Serif" font-size="10.00" fill="#000000">array&lt; void *, MAX</text>
<text text-anchor="middle" x="578" y="-580" font-family="Helvetica,sans-Serif" font-size="10.00" fill="#000000">_SERVICES+MAX_DISTANCE &gt;</text>
<polyline fill="none" stroke="#bfbfbf" points="494.5,-573 661.5,-573 "/>
<text text-anchor="middle" x="578" y="-561" font-family="Helvetica,sans-Serif" font-size="10.00" fill="#000000"> </text>
<polyline fill="none" stroke="#bfbfbf" points="494.5,-554 661.5,-554 "/>
<text text-anchor="middle" x="578" y="-542" font-family="Helvetica,sans-Serif" font-size="10.00" fill="#000000"> </text>
</g>
<!-- Node7&#45;&gt;Node3 -->
<g id="edge6" class="edge">
<title>Node7&#45;&gt;Node3</title>
<path fill="none" stroke="#404040" d="M602.9537,-534.8902C618.9057,-515.4502 641.2113,-492.2057 666,-478 695.3674,-461.1704 713.0472,-480.475 740,-460 745.3115,-455.9651 750.3454,-451.5067 755.1109,-446.7248"/>
<polygon fill="none" stroke="#404040" points="755.2391,-446.5866 756.3876,-439.4675 763.4008,-437.7895 762.2523,-444.9086 755.2391,-446.5866"/>
<text text-anchor="middle" x="706.5" y="-492" font-family="Helvetica,sans-Serif" font-size="10.00" fill="#000000"> +mServicesValue</text>
</g>
<!-- Node8 -->
<g id="node8" class="node">
<title>Node8</title>
<polygon fill="none" stroke="#bfbfbf" points="679.5,-535 679.5,-603 826.5,-603 826.5,-535 679.5,-535"/>
<text text-anchor="start" x="687.5" y="-591" font-family="Helvetica,sans-Serif" font-size="10.00" fill="#000000">vector&lt; o2::framework</text>
<text text-anchor="middle" x="753" y="-580" font-family="Helvetica,sans-Serif" font-size="10.00" fill="#000000">::ServiceDispatchingHandle &gt;</text>
<polyline fill="none" stroke="#bfbfbf" points="679.5,-573 826.5,-573 "/>
<text text-anchor="middle" x="753" y="-561" font-family="Helvetica,sans-Serif" font-size="10.00" fill="#000000"> </text>
<polyline fill="none" stroke="#bfbfbf" points="679.5,-554 826.5,-554 "/>
<text text-anchor="middle" x="753" y="-542" font-family="Helvetica,sans-Serif" font-size="10.00" fill="#000000"> </text>
</g>
<!-- Node8&#45;&gt;Node3 -->
<g id="edge7" class="edge">
<title>Node8&#45;&gt;Node3</title>
<path fill="none" stroke="#404040" d="M750.2849,-534.9576C749.6869,-517.7193 750.1474,-496.5639 754,-478 755.9592,-468.5595 758.4364,-458.9906 761.2862,-449.4481"/>
<polygon fill="none" stroke="#404040" points="761.3391,-449.2798 759.3223,-442.3565 764.9374,-437.832 766.9542,-444.7554 761.3391,-449.2798"/>
<text text-anchor="middle" x="817" y="-492" font-family="Helvetica,sans-Serif" font-size="10.00" fill="#000000"> +mPostDispatchingHandles</text>
</g>
<!-- Node9 -->
<g id="node9" class="node">
<title>Node9</title>
<polygon fill="none" stroke="#bfbfbf" points="844.5,-535 844.5,-603 959.5,-603 959.5,-535 844.5,-535"/>
<text text-anchor="start" x="852.5" y="-591" font-family="Helvetica,sans-Serif" font-size="10.00" fill="#000000">vector&lt; o2::framework</text>
<text text-anchor="middle" x="902" y="-580" font-family="Helvetica,sans-Serif" font-size="10.00" fill="#000000">::ServiceSpec &gt;</text>
<polyline fill="none" stroke="#bfbfbf" points="844.5,-573 959.5,-573 "/>
<text text-anchor="middle" x="902" y="-561" font-family="Helvetica,sans-Serif" font-size="10.00" fill="#000000"> </text>
<polyline fill="none" stroke="#bfbfbf" points="844.5,-554 959.5,-554 "/>
<text text-anchor="middle" x="902" y="-542" font-family="Helvetica,sans-Serif" font-size="10.00" fill="#000000"> </text>
</g>
<!-- Node9&#45;&gt;Node3 -->
<g id="edge8" class="edge">
<title>Node9&#45;&gt;Node3</title>
<path fill="none" stroke="#404040" d="M894.2237,-534.7391C890.2125,-517.6325 885.1002,-496.6574 880,-478 877.4612,-468.7125 874.7729,-459.1689 872.0071,-449.5631"/>
<polygon fill="none" stroke="#404040" points="871.9459,-449.3521 866.4315,-444.7054 868.5998,-437.828 874.1142,-442.4747 871.9459,-449.3521"/>
<text text-anchor="middle" x="911" y="-492" font-family="Helvetica,sans-Serif" font-size="10.00" fill="#000000"> +mSpecs</text>
</g>
<!-- Node10 -->
<g id="node10" class="node">
<title>Node10</title>
<polygon fill="none" stroke="#bfbfbf" points="977.5,-535 977.5,-603 1144.5,-603 1144.5,-535 977.5,-535"/>
<text text-anchor="start" x="985.5" y="-591" font-family="Helvetica,sans-Serif" font-size="10.00" fill="#000000">array&lt; uint32_t, MAX</text>
<text text-anchor="middle" x="1061" y="-580" font-family="Helvetica,sans-Serif" font-size="10.00" fill="#000000">_SERVICES+MAX_DISTANCE &gt;</text>
<polyline fill="none" stroke="#bfbfbf" points="977.5,-573 1144.5,-573 "/>
<text text-anchor="middle" x="1061" y="-561" font-family="Helvetica,sans-Serif" font-size="10.00" fill="#000000"> </text>
<polyline fill="none" stroke="#bfbfbf" points="977.5,-554 1144.5,-554 "/>
<text text-anchor="middle" x="1061" y="-542" font-family="Helvetica,sans-Serif" font-size="10.00" fill="#000000"> </text>
</g>
<!-- Node10&#45;&gt;Node3 -->
<g id="edge9" class="edge">
<title>Node10&#45;&gt;Node3</title>
<path fill="none" stroke="#404040" d="M1014.7096,-534.7633C971.8153,-503.0254 914.5246,-460.5964 914,-460 910.4565,-455.9715 906.9938,-451.775 903.6173,-447.452"/>
<polygon fill="none" stroke="#404040" points="903.5743,-447.3948 896.772,-445.0013 896.365,-437.8017 903.1673,-440.1951 903.5743,-447.3948"/>
<text text-anchor="middle" x="1015.5" y="-492" font-family="Helvetica,sans-Serif" font-size="10.00" fill="#000000"> +mServicesKey</text>
</g>
<!-- Node11 -->
<g id="node11" class="node">
<title>Node11</title>
<polygon fill="none" stroke="#bfbfbf" points="1162,-535 1162,-603 1278,-603 1278,-535 1162,-535"/>
<text text-anchor="start" x="1170" y="-591" font-family="Helvetica,sans-Serif" font-size="10.00" fill="#000000">vector&lt; o2::framework</text>
<text text-anchor="middle" x="1220" y="-580" font-family="Helvetica,sans-Serif" font-size="10.00" fill="#000000">::ServiceEOSHandle &gt;</text>
<polyline fill="none" stroke="#bfbfbf" points="1162,-573 1278,-573 "/>
<text text-anchor="middle" x="1220" y="-561" font-family="Helvetica,sans-Serif" font-size="10.00" fill="#000000"> </text>
<polyline fill="none" stroke="#bfbfbf" points="1162,-554 1278,-554 "/>
<text text-anchor="middle" x="1220" y="-542" font-family="Helvetica,sans-Serif" font-size="10.00" fill="#000000"> </text>
</g>
<!-- Node11&#45;&gt;Node3 -->
<g id="edge10" class="edge">
<title>Node11&#45;&gt;Node3</title>
<path fill="none" stroke="#404040" d="M1164.3374,-534.9167C1160.8529,-532.8914 1157.3866,-530.9048 1154,-529 1111.2043,-504.9295 1102.8643,-492.6492 1056,-478 995.2812,-459.0201 966.7408,-495.5727 914,-460 908.0853,-456.0107 902.5303,-451.4781 897.318,-446.5326"/>
<polygon fill="none" stroke="#404040" points="897.2332,-446.4453 890.1825,-444.9328 888.8669,-437.8427 895.9176,-439.3552 897.2332,-446.4453"/>
<text text-anchor="middle" x="1168" y="-497.5" font-family="Helvetica,sans-Serif" font-size="10.00" fill="#000000"> +mPreEOSHandles</text>
<text text-anchor="middle" x="1168" y="-486.5" font-family="Helvetica,sans-Serif" font-size="10.00" fill="#000000">+mPostEOSHandles</text>
</g>
<!-- Node12 -->
<g id="node12" class="node">
<title>Node12</title>
<polygon fill="none" stroke="#bfbfbf" points="1296.5,-540.5 1296.5,-597.5 1325.5,-597.5 1325.5,-540.5 1296.5,-540.5"/>
<text text-anchor="middle" x="1311" y="-585.5" font-family="Helvetica,sans-Serif" font-size="10.00" fill="#000000">int</text>
<polyline fill="none" stroke="#bfbfbf" points="1296.5,-578.5 1325.5,-578.5 "/>
<text text-anchor="middle" x="1311" y="-566.5" font-family="Helvetica,sans-Serif" font-size="10.00" fill="#000000"> </text>
<polyline fill="none" stroke="#bfbfbf" points="1296.5,-559.5 1325.5,-559.5 "/>
<text text-anchor="middle" x="1311" y="-547.5" font-family="Helvetica,sans-Serif" font-size="10.00" fill="#000000"> </text>
</g>
<!-- Node12&#45;&gt;Node3 -->
<g id="edge11" class="edge">
<title>Node12&#45;&gt;Node3</title>
<path fill="none" stroke="#404040" d="M1296.3573,-541.3057C1293.5242,-536.9796 1290.3758,-532.7169 1287,-529 1261.3611,-500.7711 1253.8506,-490.9982 1218,-478 1154.3787,-454.9331 971.3399,-495.9429 914,-460 907.5497,-455.9567 901.5355,-451.2538 895.9333,-446.0554"/>
<polygon fill="none" stroke="#404040" points="895.9082,-446.03 888.8442,-444.5805 887.4654,-437.5024 894.5293,-438.9519 895.9082,-446.03"/>
<text text-anchor="middle" x="1328.5" y="-503" font-family="Helvetica,sans-Serif" font-size="10.00" fill="#000000"> +MAX_DISTANCE</text>
<text text-anchor="middle" x="1328.5" y="-492" font-family="Helvetica,sans-Serif" font-size="10.00" fill="#000000">+MAX_SERVICES</text>
<text text-anchor="middle" x="1328.5" y="-481" font-family="Helvetica,sans-Serif" font-size="10.00" fill="#000000">+MAX_SERVICES_MASK</text>
</g>
<!-- Node13 -->
<g id="node13" class="node">
<title>Node13</title>
<polygon fill="none" stroke="#bfbfbf" points="1384.5,-529.5 1384.5,-608.5 1521.5,-608.5 1521.5,-529.5 1384.5,-529.5"/>
<text text-anchor="start" x="1392.5" y="-596.5" font-family="Helvetica,sans-Serif" font-size="10.00" fill="#000000">array&lt; std::atomic</text>
<text text-anchor="start" x="1392.5" y="-585.5" font-family="Helvetica,sans-Serif" font-size="10.00" fill="#000000">&lt; bool &gt;, MAX_SERVICES</text>
<text text-anchor="middle" x="1453" y="-574.5" font-family="Helvetica,sans-Serif" font-size="10.00" fill="#000000">+MAX_DISTANCE &gt;</text>
<polyline fill="none" stroke="#bfbfbf" points="1384.5,-567.5 1521.5,-567.5 "/>
<text text-anchor="middle" x="1453" y="-555.5" font-family="Helvetica,sans-Serif" font-size="10.00" fill="#000000"> </text>
<polyline fill="none" stroke="#bfbfbf" points="1384.5,-548.5 1521.5,-548.5 "/>
<text text-anchor="middle" x="1453" y="-536.5" font-family="Helvetica,sans-Serif" font-size="10.00" fill="#000000"> </text>
</g>
<!-- Node13&#45;&gt;Node3 -->
<g id="edge12" class="edge">
<title>Node13&#45;&gt;Node3</title>
<path fill="none" stroke="#404040" d="M1436.767,-529.1267C1426.8237,-510.1568 1412.097,-489.2138 1392,-478 1345.5875,-452.1027 959.3337,-487.7425 914,-460 907.5066,-456.0263 901.4576,-451.3796 895.8277,-446.226"/>
<polygon fill="none" stroke="#404040" points="895.8142,-446.2124 888.7419,-444.804 887.3219,-437.7341 894.3941,-439.1425 895.8142,-446.2124"/>
<text text-anchor="middle" x="1469.5" y="-492" font-family="Helvetica,sans-Serif" font-size="10.00" fill="#000000"> +mServicesBooked</text>
</g>
<!-- Node14 -->
<g id="node14" class="node">
<title>Node14</title>
<g id="a_node14"><a xlink:href="../../df/d24/classo2_1_1framework_1_1InputRecord.html" target="_top" xlink:title="The input API of the Data Processing Layer This class holds the inputs which are valid for processing...">
<polygon fill="none" stroke="#000000" points="923,-204.5 923,-404.5 1061,-404.5 1061,-204.5 923,-204.5"/>
<text text-anchor="middle" x="992" y="-392.5" font-family="Helvetica,sans-Serif" font-size="10.00" fill="#000000">o2::framework::InputRecord</text>
<polyline fill="none" stroke="#000000" points="923,-385.5 1061,-385.5 "/>
<text text-anchor="middle" x="992" y="-373.5" font-family="Helvetica,sans-Serif" font-size="10.00" fill="#000000"> </text>
<polyline fill="none" stroke="#000000" points="923,-366.5 1061,-366.5 "/>
<text text-anchor="start" x="931" y="-354.5" font-family="Helvetica,sans-Serif" font-size="10.00" fill="#000000">+ InputRecord()</text>
<text text-anchor="start" x="931" y="-343.5" font-family="Helvetica,sans-Serif" font-size="10.00" fill="#000000">+ getPos()</text>
<text text-anchor="start" x="931" y="-332.5" font-family="Helvetica,sans-Serif" font-size="10.00" fill="#000000">+ getPos()</text>
<text text-anchor="start" x="931" y="-321.5" font-family="Helvetica,sans-Serif" font-size="10.00" fill="#000000">+ getByPos()</text>
<text text-anchor="start" x="931" y="-310.5" font-family="Helvetica,sans-Serif" font-size="10.00" fill="#000000">+ getNofParts()</text>
<text text-anchor="start" x="931" y="-299.5" font-family="Helvetica,sans-Serif" font-size="10.00" fill="#000000">+ get()</text>
<text text-anchor="start" x="931" y="-288.5" font-family="Helvetica,sans-Serif" font-size="10.00" fill="#000000">+ get_boost()</text>
<text text-anchor="start" x="931" y="-277.5" font-family="Helvetica,sans-Serif" font-size="10.00" fill="#000000">+ isValid()</text>
<text text-anchor="start" x="931" y="-266.5" font-family="Helvetica,sans-Serif" font-size="10.00" fill="#000000">+ isValid()</text>
<text text-anchor="start" x="931" y="-255.5" font-family="Helvetica,sans-Serif" font-size="10.00" fill="#000000">+ isValid()</text>
<text text-anchor="start" x="931" y="-244.5" font-family="Helvetica,sans-Serif" font-size="10.00" fill="#000000">+ size()</text>
<text text-anchor="start" x="931" y="-233.5" font-family="Helvetica,sans-Serif" font-size="10.00" fill="#000000">+ countValidInputs()</text>
<text text-anchor="start" x="931" y="-222.5" font-family="Helvetica,sans-Serif" font-size="10.00" fill="#000000">+ begin()</text>
<text text-anchor="start" x="931" y="-211.5" font-family="Helvetica,sans-Serif" font-size="10.00" fill="#000000">+ end()</text>
</a>
</g>
</g>
<!-- Node14&#45;&gt;Node1 -->
<g id="edge13" class="edge">
<title>Node14&#45;&gt;Node1</title>
<path fill="none" stroke="#404040" d="M946.656,-204.4179C936.7433,-185.502 925.689,-166.2529 914,-149 905.2039,-136.017 894.8372,-122.9205 884.3833,-110.7131"/>
<polygon fill="none" stroke="#404040" points="884.2902,-110.6064 877.3307,-108.7182 876.3968,-101.5678 883.3564,-103.456 884.2902,-110.6064"/>
<text text-anchor="middle" x="921.5" y="-123" font-family="Helvetica,sans-Serif" font-size="10.00" fill="#000000"> +mInputs</text>
</g>
</g>
</svg>
