<?xml version="1.0" encoding="UTF-8" standalone="no"?>
<!DOCTYPE svg PUBLIC "-//W3C//DTD SVG 1.1//EN"
 "http://www.w3.org/Graphics/SVG/1.1/DTD/svg11.dtd">
<!-- Generated by graphviz version 2.40.1 (20161225.0304)
 -->
<!-- Title: /home/runner/work/AliceO2/AliceO2/DataFormats/Reconstruction/src/VtxTrackIndex.cxx Pages: 1 -->
<svg width="724pt" height="240pt"
 viewBox="0.00 0.00 723.50 240.00" xmlns="http://www.w3.org/2000/svg" xmlns:xlink="http://www.w3.org/1999/xlink">
<g id="graph0" class="graph" transform="scale(1 1) rotate(0) translate(4 236)">
<title>/home/runner/work/AliceO2/AliceO2/DataFormats/Reconstruction/src/VtxTrackIndex.cxx</title>
<!-- Node0 -->
<g id="node1" class="node">
<title>Node0</title>
<polygon fill="#bfbfbf" stroke="#000000" points="460.5,-190.5 460.5,-231.5 643.5,-231.5 643.5,-190.5 460.5,-190.5"/>
<text text-anchor="start" x="468.5" y="-219.5" font-family="Helvetica,sans-Serif" font-size="10.00" fill="#000000">/home/runner/work/AliceO2</text>
<text text-anchor="start" x="468.5" y="-208.5" font-family="Helvetica,sans-Serif" font-size="10.00" fill="#000000">/AliceO2/DataFormats/Reconstruction</text>
<text text-anchor="middle" x="552" y="-197.5" font-family="Helvetica,sans-Serif" font-size="10.00" fill="#000000">/src/VtxTrackIndex.cxx</text>
</g>
<!-- Node1 -->
<g id="node2" class="node">
<title>Node1</title>
<g id="a_node2"><a xlink:href="../../d0/d00/VtxTrackIndex_8h.html" target="_top" xlink:title="Index of track attached to vertx: index in its proper container, container source and flags...">
<polygon fill="none" stroke="#000000" points="209,-123.5 209,-153.5 349,-153.5 349,-123.5 209,-123.5"/>
<text text-anchor="start" x="217" y="-141.5" font-family="Helvetica,sans-Serif" font-size="10.00" fill="#000000">ReconstructionDataFormats</text>
<text text-anchor="middle" x="279" y="-130.5" font-family="Helvetica,sans-Serif" font-size="10.00" fill="#000000">/VtxTrackIndex.h</text>
</a>
</g>
</g>
<!-- Node0&#45;&gt;Node1 -->
<g id="edge1" class="edge">
<title>Node0&#45;&gt;Node1</title>
<path fill="none" stroke="#191970" d="M474.4994,-190.4183C433.9815,-179.6581 384.8753,-166.6171 346.0149,-156.297"/>
<polygon fill="#191970" stroke="#191970" points="346.4193,-152.7831 335.8559,-153.5991 344.6226,-159.5486 346.4193,-152.7831"/>
</g>
<!-- Node8 -->
<g id="node9" class="node">
<title>Node8</title>
<g id="a_node9"><a xlink:href="../../dd/da4/Logger_8h.html" target="_top" xlink:title="Framework/Logger.h">
<polygon fill="none" stroke="#000000" points="396,-129 396,-148 502,-148 502,-129 396,-129"/>
<text text-anchor="middle" x="449" y="-136" font-family="Helvetica,sans-Serif" font-size="10.00" fill="#000000">Framework/Logger.h</text>
</a>
</g>
</g>
<!-- Node0&#45;&gt;Node8 -->
<g id="edge8" class="edge">
<title>Node0&#45;&gt;Node8</title>
<path fill="none" stroke="#191970" d="M522.7598,-190.4183C506.2536,-178.7999 485.9697,-164.5223 470.8533,-153.8822"/>
<polygon fill="#191970" stroke="#191970" points="472.8098,-150.9792 462.6178,-148.0853 468.7806,-156.7034 472.8098,-150.9792"/>
</g>
<!-- Node10 -->
<g id="node11" class="node">
<title>Node10</title>
<polygon fill="none" stroke="#bfbfbf" points="520,-129 520,-148 584,-148 584,-129 520,-129"/>
<text text-anchor="middle" x="552" y="-136" font-family="Helvetica,sans-Serif" font-size="10.00" fill="#000000">fmt/printf.h</text>
</g>
<!-- Node0&#45;&gt;Node10 -->
<g id="edge10" class="edge">
<title>Node0&#45;&gt;Node10</title>
<path fill="none" stroke="#191970" d="M552,-190.4183C552,-180.32 552,-168.213 552,-158.2314"/>
<polygon fill="#191970" stroke="#191970" points="555.5001,-158.0853 552,-148.0853 548.5001,-158.0854 555.5001,-158.0853"/>
</g>
<!-- Node11 -->
<g id="node12" class="node">
<title>Node11</title>
<polygon fill="none" stroke="#bfbfbf" points="602,-129 602,-148 656,-148 656,-129 602,-129"/>
<text text-anchor="middle" x="629" y="-136" font-family="Helvetica,sans-Serif" font-size="10.00" fill="#000000">iostream</text>
</g>
<!-- Node0&#45;&gt;Node11 -->
<g id="edge11" class="edge">
<title>Node0&#45;&gt;Node11</title>
<path fill="none" stroke="#191970" d="M573.8591,-190.4183C585.7375,-179.2342 600.2327,-165.5861 611.3799,-155.0904"/>
<polygon fill="#191970" stroke="#191970" points="613.9384,-157.4887 618.8197,-148.0853 609.1398,-152.3923 613.9384,-157.4887"/>
</g>
<!-- Node12 -->
<g id="node13" class="node">
<title>Node12</title>
<polygon fill="none" stroke="#bfbfbf" points="674.5,-129 674.5,-148 715.5,-148 715.5,-129 674.5,-129"/>
<text text-anchor="middle" x="695" y="-136" font-family="Helvetica,sans-Serif" font-size="10.00" fill="#000000">bitset</text>
</g>
<!-- Node0&#45;&gt;Node12 -->
<g id="edge12" class="edge">
<title>Node0&#45;&gt;Node12</title>
<path fill="none" stroke="#191970" d="M593.1099,-190.3834C614.5616,-179.5949 641.2227,-166.139 665,-154 665.8224,-153.5802 666.6571,-153.1533 667.4995,-152.7219"/>
<polygon fill="#191970" stroke="#191970" points="669.3179,-155.7225 676.6106,-148.037 666.1169,-149.4973 669.3179,-155.7225"/>
</g>
<!-- Node2 -->
<g id="node3" class="node">
<title>Node2</title>
<g id="a_node3"><a xlink:href="../../df/d9a/AbstractRef_8h.html" target="_top" xlink:title="Class to refer to object indicating its Indec, Source and status flags. ">
<polygon fill="none" stroke="#000000" points="0,-56.5 0,-86.5 148,-86.5 148,-56.5 0,-56.5"/>
<text text-anchor="start" x="8" y="-74.5" font-family="Helvetica,sans-Serif" font-size="10.00" fill="#000000">CommonDataFormat/Abstract</text>
<text text-anchor="middle" x="74" y="-63.5" font-family="Helvetica,sans-Serif" font-size="10.00" fill="#000000">Ref.h</text>
</a>
</g>
</g>
<!-- Node1&#45;&gt;Node2 -->
<g id="edge2" class="edge">
<title>Node1&#45;&gt;Node2</title>
<path fill="none" stroke="#191970" d="M232.994,-123.4639C202.5043,-113.499 162.3159,-100.3642 129.9729,-89.7936"/>
<polygon fill="#191970" stroke="#191970" points="130.7992,-86.3815 120.2067,-86.6017 128.6246,-93.0352 130.7992,-86.3815"/>
</g>
<!-- Node4 -->
<g id="node5" class="node">
<title>Node4</title>
<polygon fill="none" stroke="#bfbfbf" points="166.5,-62 166.5,-81 211.5,-81 211.5,-62 166.5,-62"/>
<text text-anchor="middle" x="189" y="-69" font-family="Helvetica,sans-Serif" font-size="10.00" fill="#000000">iosfwd</text>
</g>
<!-- Node1&#45;&gt;Node4 -->
<g id="edge4" class="edge">
<title>Node1&#45;&gt;Node4</title>
<path fill="none" stroke="#191970" d="M258.5776,-123.2967C244.1468,-112.5537 224.8516,-98.1895 210.2412,-87.3129"/>
<polygon fill="#191970" stroke="#191970" points="211.9464,-84.219 201.835,-81.055 207.7664,-89.8339 211.9464,-84.219"/>
</g>
<!-- Node5 -->
<g id="node6" class="node">
<title>Node5</title>
<polygon fill="none" stroke="#bfbfbf" points="229.5,-62 229.5,-81 270.5,-81 270.5,-62 229.5,-62"/>
<text text-anchor="middle" x="250" y="-69" font-family="Helvetica,sans-Serif" font-size="10.00" fill="#000000">string</text>
</g>
<!-- Node1&#45;&gt;Node5 -->
<g id="edge5" class="edge">
<title>Node1&#45;&gt;Node5</title>
<path fill="none" stroke="#191970" d="M272.4195,-123.2967C268.2082,-113.5672 262.7113,-100.8675 258.2145,-90.4784"/>
<polygon fill="#191970" stroke="#191970" points="261.3201,-88.8419 254.1357,-81.055 254.896,-91.6225 261.3201,-88.8419"/>
</g>
<!-- Node6 -->
<g id="node7" class="node">
<title>Node6</title>
<polygon fill="none" stroke="#bfbfbf" points="289,-62 289,-81 327,-81 327,-62 289,-62"/>
<text text-anchor="middle" x="308" y="-69" font-family="Helvetica,sans-Serif" font-size="10.00" fill="#000000">array</text>
</g>
<!-- Node1&#45;&gt;Node6 -->
<g id="edge6" class="edge">
<title>Node1&#45;&gt;Node6</title>
<path fill="none" stroke="#191970" d="M285.5805,-123.2967C289.7918,-113.5672 295.2887,-100.8675 299.7855,-90.4784"/>
<polygon fill="#191970" stroke="#191970" points="303.104,-91.6225 303.8643,-81.055 296.6799,-88.8419 303.104,-91.6225"/>
</g>
<!-- Node7 -->
<g id="node8" class="node">
<title>Node7</title>
<polygon fill="none" stroke="#bfbfbf" points="345,-62 345,-81 411,-81 411,-62 345,-62"/>
<text text-anchor="middle" x="378" y="-69" font-family="Helvetica,sans-Serif" font-size="10.00" fill="#000000">string_view</text>
</g>
<!-- Node1&#45;&gt;Node7 -->
<g id="edge7" class="edge">
<title>Node1&#45;&gt;Node7</title>
<path fill="none" stroke="#191970" d="M301.4646,-123.2967C317.6381,-112.351 339.3661,-97.6462 355.5388,-86.701"/>
<polygon fill="#191970" stroke="#191970" points="357.5614,-89.5584 363.8815,-81.055 353.6381,-83.7612 357.5614,-89.5584"/>
</g>
<!-- Node3 -->
<g id="node4" class="node">
<title>Node3</title>
<polygon fill="none" stroke="#bfbfbf" points="46,-.5 46,-19.5 102,-19.5 102,-.5 46,-.5"/>
<text text-anchor="middle" x="74" y="-7.5" font-family="Helvetica,sans-Serif" font-size="10.00" fill="#000000">Rtypes.h</text>
</g>
<!-- Node2&#45;&gt;Node3 -->
<g id="edge3" class="edge">
<title>Node2&#45;&gt;Node3</title>
<path fill="none" stroke="#191970" d="M74,-56.2977C74,-48.3834 74,-38.6043 74,-30.0759"/>
<polygon fill="#191970" stroke="#191970" points="77.5001,-29.8469 74,-19.8469 70.5001,-29.847 77.5001,-29.8469"/>
</g>
<!-- Node9 -->
<g id="node10" class="node">
<title>Node9</title>
<polygon fill="none" stroke="#bfbfbf" points="429.5,-62 429.5,-81 526.5,-81 526.5,-62 429.5,-62"/>
<text text-anchor="middle" x="478" y="-69" font-family="Helvetica,sans-Serif" font-size="10.00" fill="#000000">fairlogger/Logger.h</text>
</g>
<!-- Node8&#45;&gt;Node9 -->
<g id="edge9" class="edge">
<title>Node8&#45;&gt;Node9</title>
<path fill="none" stroke="#191970" d="M453.155,-128.9005C457.4619,-118.95 464.3097,-103.1292 469.7265,-90.6147"/>
<polygon fill="#191970" stroke="#191970" points="473.0925,-91.6492 473.8527,-81.0817 466.6684,-88.8686 473.0925,-91.6492"/>
</g>
</g>
</svg>
