<?xml version="1.0" encoding="UTF-8" standalone="no"?>
<!DOCTYPE svg PUBLIC "-//W3C//DTD SVG 1.1//EN"
 "http://www.w3.org/Graphics/SVG/1.1/DTD/svg11.dtd">
<!-- Generated by graphviz version 2.40.1 (20161225.0304)
 -->
<!-- Title: /home/runner/work/AliceO2/AliceO2/Detectors/MUON/MID/Simulation/include/MIDSimulation/ChamberResponse.h Pages: 1 -->
<svg width="689pt" height="228pt"
 viewBox="0.00 0.00 689.00 228.00" xmlns="http://www.w3.org/2000/svg" xmlns:xlink="http://www.w3.org/1999/xlink">
<g id="graph0" class="graph" transform="scale(1 1) rotate(0) translate(4 224)">
<title>/home/runner/work/AliceO2/AliceO2/Detectors/MUON/MID/Simulation/include/MIDSimulation/ChamberResponse.h</title>
<!-- Node6 -->
<g id="node1" class="node">
<title>Node6</title>
<polygon fill="#bfbfbf" stroke="#000000" points="354,-167.5 354,-219.5 533,-219.5 533,-167.5 354,-167.5"/>
<text text-anchor="start" x="362" y="-207.5" font-family="Helvetica,sans-Serif" font-size="10.00" fill="#000000">/home/runner/work/AliceO2</text>
<text text-anchor="start" x="362" y="-196.5" font-family="Helvetica,sans-Serif" font-size="10.00" fill="#000000">/AliceO2/Detectors/MUON</text>
<text text-anchor="start" x="362" y="-185.5" font-family="Helvetica,sans-Serif" font-size="10.00" fill="#000000">/MID/Simulation/include</text>
<text text-anchor="middle" x="443.5" y="-174.5" font-family="Helvetica,sans-Serif" font-size="10.00" fill="#000000">/MIDSimulation/ChamberResponse.h</text>
</g>
<!-- Node7 -->
<g id="node2" class="node">
<title>Node7</title>
<g id="a_node2"><a xlink:href="../../da/de1/MUON_2MID_2Simulation_2include_2MIDSimulation_2Digitizer_8h.html" target="_top" xlink:title="Digitizer for MID. ">
<polygon fill="none" stroke="#000000" points="256,-78.5 256,-130.5 391,-130.5 391,-78.5 256,-78.5"/>
<text text-anchor="start" x="264" y="-118.5" font-family="Helvetica,sans-Serif" font-size="10.00" fill="#000000">/home/runner/work/AliceO2</text>
<text text-anchor="start" x="264" y="-107.5" font-family="Helvetica,sans-Serif" font-size="10.00" fill="#000000">/AliceO2/Detectors/MUON</text>
<text text-anchor="start" x="264" y="-96.5" font-family="Helvetica,sans-Serif" font-size="10.00" fill="#000000">/MID/Simulation/include</text>
<text text-anchor="middle" x="323.5" y="-85.5" font-family="Helvetica,sans-Serif" font-size="10.00" fill="#000000">/MIDSimulation/Digitizer.h</text>
</a>
</g>
</g>
<!-- Node6&#45;&gt;Node7 -->
<g id="edge1" class="edge">
<title>Node6&#45;&gt;Node7</title>
<path fill="none" stroke="#191970" d="M399.8771,-161.1463C386.3026,-151.0786 371.517,-140.1126 358.6022,-130.5341"/>
<polygon fill="#191970" stroke="#191970" points="398.0281,-164.1325 408.1451,-167.2784 402.198,-158.5101 398.0281,-164.1325"/>
</g>
<!-- Node10 -->
<g id="node5" class="node">
<title>Node10</title>
<g id="a_node5"><a xlink:href="../../d4/dd3/MIDDigitizerSpec_8cxx.html" target="_top" xlink:title="/home/runner/work/AliceO2\l/AliceO2/Steer/DigitizerWorkflow\l/src/MIDDigitizerSpec.cxx">
<polygon fill="none" stroke="#000000" points="388,-.5 388,-41.5 549,-41.5 549,-.5 388,-.5"/>
<text text-anchor="start" x="396" y="-29.5" font-family="Helvetica,sans-Serif" font-size="10.00" fill="#000000">/home/runner/work/AliceO2</text>
<text text-anchor="start" x="396" y="-18.5" font-family="Helvetica,sans-Serif" font-size="10.00" fill="#000000">/AliceO2/Steer/DigitizerWorkflow</text>
<text text-anchor="middle" x="468.5" y="-7.5" font-family="Helvetica,sans-Serif" font-size="10.00" fill="#000000">/src/MIDDigitizerSpec.cxx</text>
</a>
</g>
</g>
<!-- Node6&#45;&gt;Node10 -->
<g id="edge6" class="edge">
<title>Node6&#45;&gt;Node10</title>
<path fill="none" stroke="#191970" d="M448.7895,-157.0025C453.8691,-121.9532 461.3628,-70.2467 465.4932,-41.7472"/>
<polygon fill="#191970" stroke="#191970" points="445.2675,-156.9023 447.297,-167.301 452.1951,-157.9064 445.2675,-156.9023"/>
</g>
<!-- Node11 -->
<g id="node6" class="node">
<title>Node11</title>
<g id="a_node6"><a xlink:href="../../de/dc3/ChamberResponse_8cxx.html" target="_top" xlink:title="Implementation MID RPC response. ">
<polygon fill="none" stroke="#000000" points="472,-84 472,-125 681,-125 681,-84 472,-84"/>
<text text-anchor="start" x="480" y="-113" font-family="Helvetica,sans-Serif" font-size="10.00" fill="#000000">/home/runner/work/AliceO2</text>
<text text-anchor="start" x="480" y="-102" font-family="Helvetica,sans-Serif" font-size="10.00" fill="#000000">/AliceO2/Detectors/MUON</text>
<text text-anchor="middle" x="576.5" y="-91" font-family="Helvetica,sans-Serif" font-size="10.00" fill="#000000">/MID/Simulation/src/ChamberResponse.cxx</text>
</a>
</g>
</g>
<!-- Node6&#45;&gt;Node11 -->
<g id="edge5" class="edge">
<title>Node6&#45;&gt;Node11</title>
<path fill="none" stroke="#191970" d="M491.3669,-161.4688C509.4317,-149.3803 529.4921,-135.9564 545.6005,-125.1771"/>
<polygon fill="#191970" stroke="#191970" points="489.0494,-158.8082 482.685,-167.2784 492.9424,-164.6258 489.0494,-158.8082"/>
</g>
<!-- Node8 -->
<g id="node3" class="node">
<title>Node8</title>
<g id="a_node3"><a xlink:href="../../d6/df9/MUON_2MID_2Simulation_2src_2Digitizer_8cxx.html" target="_top" xlink:title="Implementation of the digitizer for MID. ">
<polygon fill="none" stroke="#000000" points="0,-.5 0,-41.5 161,-41.5 161,-.5 0,-.5"/>
<text text-anchor="start" x="8" y="-29.5" font-family="Helvetica,sans-Serif" font-size="10.00" fill="#000000">/home/runner/work/AliceO2</text>
<text text-anchor="start" x="8" y="-18.5" font-family="Helvetica,sans-Serif" font-size="10.00" fill="#000000">/AliceO2/Detectors/MUON</text>
<text text-anchor="middle" x="80.5" y="-7.5" font-family="Helvetica,sans-Serif" font-size="10.00" fill="#000000">/MID/Simulation/src/Digitizer.cxx</text>
</a>
</g>
</g>
<!-- Node7&#45;&gt;Node8 -->
<g id="edge2" class="edge">
<title>Node7&#45;&gt;Node8</title>
<path fill="none" stroke="#191970" d="M246.3037,-77.9737C212.0452,-66.2018 172.3419,-52.5588 140.3774,-41.5752"/>
<polygon fill="#191970" stroke="#191970" points="245.2163,-81.3009 255.811,-81.2406 247.4911,-74.6808 245.2163,-81.3009"/>
</g>
<!-- Node9 -->
<g id="node4" class="node">
<title>Node9</title>
<g id="a_node4"><a xlink:href="../../d6/d45/testSimulation_8cxx.html" target="_top" xlink:title="/home/runner/work/AliceO2\l/AliceO2/Detectors/MUON\l/MID/Simulation/test/testSimulation.cxx">
<polygon fill="none" stroke="#000000" points="179,-.5 179,-41.5 370,-41.5 370,-.5 179,-.5"/>
<text text-anchor="start" x="187" y="-29.5" font-family="Helvetica,sans-Serif" font-size="10.00" fill="#000000">/home/runner/work/AliceO2</text>
<text text-anchor="start" x="187" y="-18.5" font-family="Helvetica,sans-Serif" font-size="10.00" fill="#000000">/AliceO2/Detectors/MUON</text>
<text text-anchor="middle" x="274.5" y="-7.5" font-family="Helvetica,sans-Serif" font-size="10.00" fill="#000000">/MID/Simulation/test/testSimulation.cxx</text>
</a>
</g>
</g>
<!-- Node7&#45;&gt;Node9 -->
<g id="edge3" class="edge">
<title>Node7&#45;&gt;Node9</title>
<path fill="none" stroke="#191970" d="M302.8281,-69.2733C297.3136,-59.8763 291.5339,-50.0272 286.6438,-41.6941"/>
<polygon fill="#191970" stroke="#191970" points="299.9162,-71.2268 307.9961,-78.0801 305.9535,-67.684 299.9162,-71.2268"/>
</g>
<!-- Node7&#45;&gt;Node10 -->
<g id="edge4" class="edge">
<title>Node7&#45;&gt;Node10</title>
<path fill="none" stroke="#191970" d="M377.8495,-73.2022C396.233,-62.6158 416.2805,-51.0712 432.8375,-41.5367"/>
<polygon fill="#191970" stroke="#191970" points="375.9003,-70.2858 368.9811,-78.3092 379.3935,-76.3519 375.9003,-70.2858"/>
</g>
</g>
</svg>
