<?xml version="1.0" encoding="UTF-8" standalone="no"?>
<!DOCTYPE svg PUBLIC "-//W3C//DTD SVG 1.1//EN"
 "http://www.w3.org/Graphics/SVG/1.1/DTD/svg11.dtd">
<!-- Generated by graphviz version 2.40.1 (20161225.0304)
 -->
<!-- Title: o2::experimental::histhelpers::HistContainer&lt; RootContainer &gt; Pages: 1 -->
<svg width="172pt" height="226pt"
 viewBox="0.00 0.00 172.00 226.00" xmlns="http://www.w3.org/2000/svg" xmlns:xlink="http://www.w3.org/1999/xlink">
<g id="graph0" class="graph" transform="scale(1 1) rotate(0) translate(4 222)">
<title>o2::experimental::histhelpers::HistContainer&lt; RootContainer &gt;</title>
<!-- Node0 -->
<g id="node1" class="node">
<title>Node0</title>
<polygon fill="#bfbfbf" stroke="#000000" points="0,-.5 0,-123.5 164,-123.5 164,-.5 0,-.5"/>
<text text-anchor="start" x="8" y="-111.5" font-family="Helvetica,sans-Serif" font-size="10.00" fill="#000000">o2::experimental::histhelpers</text>
<text text-anchor="middle" x="82" y="-100.5" font-family="Helvetica,sans-Serif" font-size="10.00" fill="#000000">::HistContainer&lt; RootContainer &gt;</text>
<polyline fill="none" stroke="#000000" points="0,-93.5 164,-93.5 "/>
<text text-anchor="middle" x="82" y="-81.5" font-family="Helvetica,sans-Serif" font-size="10.00" fill="#000000"> </text>
<polyline fill="none" stroke="#000000" points="0,-74.5 164,-74.5 "/>
<text text-anchor="start" x="8" y="-62.5" font-family="Helvetica,sans-Serif" font-size="10.00" fill="#000000">+ HistContainer()</text>
<text text-anchor="start" x="8" y="-51.5" font-family="Helvetica,sans-Serif" font-size="10.00" fill="#000000">+ HistContainer()</text>
<text text-anchor="start" x="8" y="-40.5" font-family="Helvetica,sans-Serif" font-size="10.00" fill="#000000">+ Add()</text>
<text text-anchor="start" x="8" y="-29.5" font-family="Helvetica,sans-Serif" font-size="10.00" fill="#000000">+ Get()</text>
<text text-anchor="start" x="8" y="-18.5" font-family="Helvetica,sans-Serif" font-size="10.00" fill="#000000">+ Fill()</text>
<text text-anchor="start" x="8" y="-7.5" font-family="Helvetica,sans-Serif" font-size="10.00" fill="#000000">+ FillWeight()</text>
</g>
<!-- Node1 -->
<g id="node2" class="node">
<title>Node1</title>
<g id="a_node2"><a xlink:href="../../d0/d87/classRootContainer.html" target="_top" xlink:title="{RootContainer\n||}">
<polygon fill="none" stroke="#000000" points="42,-160.5 42,-217.5 122,-217.5 122,-160.5 42,-160.5"/>
<text text-anchor="middle" x="82" y="-205.5" font-family="Helvetica,sans-Serif" font-size="10.00" fill="#000000">RootContainer</text>
<polyline fill="none" stroke="#000000" points="42,-198.5 122,-198.5 "/>
<text text-anchor="middle" x="82" y="-186.5" font-family="Helvetica,sans-Serif" font-size="10.00" fill="#000000"> </text>
<polyline fill="none" stroke="#000000" points="42,-179.5 122,-179.5 "/>
<text text-anchor="middle" x="82" y="-167.5" font-family="Helvetica,sans-Serif" font-size="10.00" fill="#000000"> </text>
</a>
</g>
</g>
<!-- Node1&#45;&gt;Node0 -->
<g id="edge1" class="edge">
<title>Node1&#45;&gt;Node0</title>
<path fill="none" stroke="#8b1a1a" d="M82,-150.2486C82,-141.8213 82,-132.7045 82,-123.6384"/>
<polygon fill="none" stroke="#8b1a1a" points="78.5001,-150.4987 82,-160.4987 85.5001,-150.4988 78.5001,-150.4987"/>
</g>
</g>
</svg>
