<?xml version="1.0" encoding="UTF-8" standalone="no"?>
<!DOCTYPE svg PUBLIC "-//W3C//DTD SVG 1.1//EN"
 "http://www.w3.org/Graphics/SVG/1.1/DTD/svg11.dtd">
<!-- Generated by graphviz version 2.40.1 (20161225.0304)
 -->
<!-- Title: /home/runner/work/AliceO2/AliceO2/GPU/GPUTracking/DataCompression/GPUTPCCompressionTrackModel.cxx Pages: 1 -->
<svg width="1438pt" height="677pt"
 viewBox="0.00 0.00 1437.50 677.00" xmlns="http://www.w3.org/2000/svg" xmlns:xlink="http://www.w3.org/1999/xlink">
<g id="graph0" class="graph" transform="scale(1 1) rotate(0) translate(4 673)">
<title>/home/runner/work/AliceO2/AliceO2/GPU/GPUTracking/DataCompression/GPUTPCCompressionTrackModel.cxx</title>
<!-- Node0 -->
<g id="node1" class="node">
<title>Node0</title>
<polygon fill="#bfbfbf" stroke="#000000" points="351.5,-616.5 351.5,-668.5 552.5,-668.5 552.5,-616.5 351.5,-616.5"/>
<text text-anchor="start" x="359.5" y="-656.5" font-family="Helvetica,sans-Serif" font-size="10.00" fill="#000000">/home/runner/work/AliceO2</text>
<text text-anchor="start" x="359.5" y="-645.5" font-family="Helvetica,sans-Serif" font-size="10.00" fill="#000000">/AliceO2/GPU/GPUTracking</text>
<text text-anchor="start" x="359.5" y="-634.5" font-family="Helvetica,sans-Serif" font-size="10.00" fill="#000000">/DataCompression/GPUTPCCompression</text>
<text text-anchor="middle" x="452" y="-623.5" font-family="Helvetica,sans-Serif" font-size="10.00" fill="#000000">TrackModel.cxx</text>
</g>
<!-- Node1 -->
<g id="node2" class="node">
<title>Node1</title>
<g id="a_node2"><a xlink:href="../../da/d21/GPUTPCCompressionTrackModel_8h.html" target="_top" xlink:title="GPUTPCCompressionTrackModel.h">
<polygon fill="none" stroke="#000000" points="62,-560.5 62,-579.5 238,-579.5 238,-560.5 62,-560.5"/>
<text text-anchor="middle" x="150" y="-567.5" font-family="Helvetica,sans-Serif" font-size="10.00" fill="#000000">GPUTPCCompressionTrackModel.h</text>
</a>
</g>
</g>
<!-- Node0&#45;&gt;Node1 -->
<g id="edge1" class="edge">
<title>Node0&#45;&gt;Node1</title>
<path fill="none" stroke="#191970" d="M351.4384,-618.3585C300.3963,-606.1051 240.6672,-591.7661 199.5753,-581.9014"/>
<polygon fill="#191970" stroke="#191970" points="200.3471,-578.4873 189.8064,-579.5562 198.713,-585.2939 200.3471,-578.4873"/>
</g>
<!-- Node12 -->
<g id="node13" class="node">
<title>Node12</title>
<g id="a_node13"><a xlink:href="../../db/df8/GPUConstantMem_8h.html" target="_top" xlink:title="GPUConstantMem.h">
<polygon fill="none" stroke="#000000" points="398,-560.5 398,-579.5 506,-579.5 506,-560.5 398,-560.5"/>
<text text-anchor="middle" x="452" y="-567.5" font-family="Helvetica,sans-Serif" font-size="10.00" fill="#000000">GPUConstantMem.h</text>
</a>
</g>
</g>
<!-- Node0&#45;&gt;Node12 -->
<g id="edge13" class="edge">
<title>Node0&#45;&gt;Node12</title>
<path fill="none" stroke="#191970" d="M452,-616.3258C452,-607.5142 452,-597.8397 452,-589.621"/>
<polygon fill="#191970" stroke="#191970" points="455.5001,-589.534 452,-579.534 448.5001,-589.534 455.5001,-589.534"/>
</g>
<!-- Node43 -->
<g id="node44" class="node">
<title>Node43</title>
<polygon fill="none" stroke="#bfbfbf" points="524.5,-560.5 524.5,-579.5 607.5,-579.5 607.5,-560.5 524.5,-560.5"/>
<text text-anchor="middle" x="566" y="-567.5" font-family="Helvetica,sans-Serif" font-size="10.00" fill="#000000">GPUParam.inc</text>
</g>
<!-- Node0&#45;&gt;Node43 -->
<g id="edge74" class="edge">
<title>Node0&#45;&gt;Node43</title>
<path fill="none" stroke="#191970" d="M493.1566,-616.3258C509.6889,-605.8119 528.1527,-594.0696 542.3545,-585.0377"/>
<polygon fill="#191970" stroke="#191970" points="544.4487,-587.8538 551.0086,-579.534 540.6922,-581.9471 544.4487,-587.8538"/>
</g>
<!-- Node2 -->
<g id="node3" class="node">
<title>Node2</title>
<g id="a_node3"><a xlink:href="../../d2/d6d/GPUDef_8h.html" target="_top" xlink:title="GPUDef.h">
<polygon fill="none" stroke="#000000" points="389,-224.5 389,-243.5 451,-243.5 451,-224.5 389,-224.5"/>
<text text-anchor="middle" x="420" y="-231.5" font-family="Helvetica,sans-Serif" font-size="10.00" fill="#000000">GPUDef.h</text>
</a>
</g>
</g>
<!-- Node1&#45;&gt;Node2 -->
<g id="edge2" class="edge">
<title>Node1&#45;&gt;Node2</title>
<path fill="none" stroke="#191970" d="M114.0713,-560.4171C69.6951,-546.149 0,-514.7126 0,-458 0,-458 0,-458 0,-346 0,-299.2171 39.0291,-298.4972 82,-280 134.5368,-257.385 300.2288,-242.7084 378.4021,-236.8661"/>
<polygon fill="#191970" stroke="#191970" points="379.1141,-240.3234 388.831,-236.1005 378.6015,-233.3422 379.1141,-240.3234"/>
</g>
<!-- Node3 -->
<g id="node4" class="node">
<title>Node3</title>
<g id="a_node4"><a xlink:href="../../df/d21/GPUCommonDef_8h.html" target="_top" xlink:title="GPUCommonDef.h">
<polygon fill="none" stroke="#000000" points="957,-56.5 957,-75.5 1059,-75.5 1059,-56.5 957,-56.5"/>
<text text-anchor="middle" x="1008" y="-63.5" font-family="Helvetica,sans-Serif" font-size="10.00" fill="#000000">GPUCommonDef.h</text>
</a>
</g>
</g>
<!-- Node2&#45;&gt;Node3 -->
<g id="edge3" class="edge">
<title>Node2&#45;&gt;Node3</title>
<path fill="none" stroke="#191970" d="M388.7846,-226.6301C356.0095,-218.1854 307.7528,-203.5016 297,-188 282.4408,-167.011 301.141,-123.4145 316,-112 340.8033,-92.9465 781.3414,-74.5146 946.3106,-68.2507"/>
<polygon fill="#191970" stroke="#191970" points="946.9101,-71.7307 956.771,-67.8558 946.646,-64.7356 946.9101,-71.7307"/>
</g>
<!-- Node6 -->
<g id="node7" class="node">
<title>Node6</title>
<g id="a_node7"><a xlink:href="../../d2/d37/GPUDefConstantsAndSettings_8h.html" target="_top" xlink:title="GPUDefConstantsAndSettings.h">
<polygon fill="none" stroke="#000000" points="742.5,-112.5 742.5,-131.5 903.5,-131.5 903.5,-112.5 742.5,-112.5"/>
<text text-anchor="middle" x="823" y="-119.5" font-family="Helvetica,sans-Serif" font-size="10.00" fill="#000000">GPUDefConstantsAndSettings.h</text>
</a>
</g>
</g>
<!-- Node2&#45;&gt;Node6 -->
<g id="edge6" class="edge">
<title>Node2&#45;&gt;Node6</title>
<path fill="none" stroke="#191970" d="M426.5204,-224.4202C437.2224,-209.5522 460.0395,-181.2559 487,-168 498.0513,-162.5663 638.2042,-144.5834 733.9688,-132.7776"/>
<polygon fill="#191970" stroke="#191970" points="734.4637,-136.2432 743.9615,-131.5483 733.6089,-129.2956 734.4637,-136.2432"/>
</g>
<!-- Node7 -->
<g id="node8" class="node">
<title>Node7</title>
<g id="a_node8"><a xlink:href="../../dc/de9/GPUDefGPUParameters_8h.html" target="_top" xlink:title="GPUDefGPUParameters.h">
<polygon fill="none" stroke="#000000" points="306,-168.5 306,-187.5 440,-187.5 440,-168.5 306,-168.5"/>
<text text-anchor="middle" x="373" y="-175.5" font-family="Helvetica,sans-Serif" font-size="10.00" fill="#000000">GPUDefGPUParameters.h</text>
</a>
</g>
</g>
<!-- Node2&#45;&gt;Node7 -->
<g id="edge8" class="edge">
<title>Node2&#45;&gt;Node7</title>
<path fill="none" stroke="#191970" d="M411.8132,-224.2455C405.1411,-216.2958 395.5521,-204.8706 387.5747,-195.3656"/>
<polygon fill="#191970" stroke="#191970" points="390.2026,-193.0524 381.093,-187.6427 384.8408,-197.5525 390.2026,-193.0524"/>
</g>
<!-- Node9 -->
<g id="node10" class="node">
<title>Node9</title>
<g id="a_node10"><a xlink:href="../../d3/d4c/GPUDefOpenCL12Templates_8h.html" target="_top" xlink:title="GPUDefOpenCL12Templates.h">
<polygon fill="none" stroke="#000000" points="496.5,-168.5 496.5,-187.5 651.5,-187.5 651.5,-168.5 496.5,-168.5"/>
<text text-anchor="middle" x="574" y="-175.5" font-family="Helvetica,sans-Serif" font-size="10.00" fill="#000000">GPUDefOpenCL12Templates.h</text>
</a>
</g>
</g>
<!-- Node2&#45;&gt;Node9 -->
<g id="edge10" class="edge">
<title>Node2&#45;&gt;Node9</title>
<path fill="none" stroke="#191970" d="M446.4735,-224.3733C471.8597,-215.1419 510.3645,-201.1402 538.422,-190.9375"/>
<polygon fill="#191970" stroke="#191970" points="539.6701,-194.2079 547.8719,-187.5011 537.2778,-187.6293 539.6701,-194.2079"/>
</g>
<!-- Node10 -->
<g id="node11" class="node">
<title>Node10</title>
<g id="a_node11"><a xlink:href="../../d2/d45/GPUCommonRtypes_8h.html" target="_top" xlink:title="GPUCommonRtypes.h">
<polygon fill="none" stroke="#000000" points="670,-168.5 670,-187.5 788,-187.5 788,-168.5 670,-168.5"/>
<text text-anchor="middle" x="729" y="-175.5" font-family="Helvetica,sans-Serif" font-size="10.00" fill="#000000">GPUCommonRtypes.h</text>
</a>
</g>
</g>
<!-- Node2&#45;&gt;Node10 -->
<g id="edge11" class="edge">
<title>Node2&#45;&gt;Node10</title>
<path fill="none" stroke="#191970" d="M451.0429,-228.3741C501.1616,-219.2911 600.88,-201.2192 666.2456,-189.373"/>
<polygon fill="#191970" stroke="#191970" points="667.213,-192.7547 676.4285,-187.5275 665.9647,-185.8669 667.213,-192.7547"/>
</g>
<!-- Node4 -->
<g id="node5" class="node">
<title>Node4</title>
<g id="a_node5"><a xlink:href="../../d5/d93/GPUCommonDefSettings_8h.html" target="_top" xlink:title="GPUCommonDefSettings.h">
<polygon fill="none" stroke="#000000" points="866,-.5 866,-19.5 1004,-19.5 1004,-.5 866,-.5"/>
<text text-anchor="middle" x="935" y="-7.5" font-family="Helvetica,sans-Serif" font-size="10.00" fill="#000000">GPUCommonDefSettings.h</text>
</a>
</g>
</g>
<!-- Node3&#45;&gt;Node4 -->
<g id="edge4" class="edge">
<title>Node3&#45;&gt;Node4</title>
<path fill="none" stroke="#191970" d="M995.2844,-56.2455C984.398,-47.8943 968.5117,-35.7076 955.78,-25.9408"/>
<polygon fill="#191970" stroke="#191970" points="957.6346,-22.9523 947.5699,-19.6427 953.3739,-28.5063 957.6346,-22.9523"/>
</g>
<!-- Node5 -->
<g id="node6" class="node">
<title>Node5</title>
<g id="a_node6"><a xlink:href="../../da/d5a/GPUCommonDefAPI_8h.html" target="_top" xlink:title="GPUCommonDefAPI.h">
<polygon fill="none" stroke="#000000" points="1022.5,-.5 1022.5,-19.5 1141.5,-19.5 1141.5,-.5 1022.5,-.5"/>
<text text-anchor="middle" x="1082" y="-7.5" font-family="Helvetica,sans-Serif" font-size="10.00" fill="#000000">GPUCommonDefAPI.h</text>
</a>
</g>
</g>
<!-- Node3&#45;&gt;Node5 -->
<g id="edge5" class="edge">
<title>Node3&#45;&gt;Node5</title>
<path fill="none" stroke="#191970" d="M1020.8898,-56.2455C1031.9254,-47.8943 1048.0292,-35.7076 1060.9353,-25.9408"/>
<polygon fill="#191970" stroke="#191970" points="1063.3959,-28.4681 1069.2579,-19.6427 1059.1717,-22.8862 1063.3959,-28.4681"/>
</g>
<!-- Node6&#45;&gt;Node3 -->
<g id="edge7" class="edge">
<title>Node6&#45;&gt;Node3</title>
<path fill="none" stroke="#191970" d="M854.8026,-112.3733C885.8317,-102.9807 933.1754,-88.6496 967.0147,-78.4064"/>
<polygon fill="#191970" stroke="#191970" points="968.0553,-81.7483 976.6124,-75.5011 966.0272,-75.0485 968.0553,-81.7483"/>
</g>
<!-- Node8 -->
<g id="node9" class="node">
<title>Node8</title>
<g id="a_node9"><a xlink:href="../../d6/dff/GPUDefMacros_8h.html" target="_top" xlink:title="GPUDefMacros.h">
<polygon fill="none" stroke="#000000" points="325.5,-112.5 325.5,-131.5 420.5,-131.5 420.5,-112.5 325.5,-112.5"/>
<text text-anchor="middle" x="373" y="-119.5" font-family="Helvetica,sans-Serif" font-size="10.00" fill="#000000">GPUDefMacros.h</text>
</a>
</g>
</g>
<!-- Node7&#45;&gt;Node8 -->
<g id="edge9" class="edge">
<title>Node7&#45;&gt;Node8</title>
<path fill="none" stroke="#191970" d="M373,-168.2455C373,-160.9382 373,-150.6944 373,-141.7046"/>
<polygon fill="#191970" stroke="#191970" points="376.5001,-141.6426 373,-131.6427 369.5001,-141.6427 376.5001,-141.6426"/>
</g>
<!-- Node11 -->
<g id="node12" class="node">
<title>Node11</title>
<polygon fill="none" stroke="#bfbfbf" points="668,-112.5 668,-131.5 724,-131.5 724,-112.5 668,-112.5"/>
<text text-anchor="middle" x="696" y="-119.5" font-family="Helvetica,sans-Serif" font-size="10.00" fill="#000000">Rtypes.h</text>
</g>
<!-- Node10&#45;&gt;Node11 -->
<g id="edge12" class="edge">
<title>Node10&#45;&gt;Node11</title>
<path fill="none" stroke="#191970" d="M723.2518,-168.2455C718.7565,-160.617 712.3752,-149.7881 706.9175,-140.5267"/>
<polygon fill="#191970" stroke="#191970" points="709.7747,-138.4811 701.6823,-131.6427 703.7439,-142.035 709.7747,-138.4811"/>
</g>
<!-- Node13 -->
<g id="node14" class="node">
<title>Node13</title>
<g id="a_node14"><a xlink:href="../../d6/d25/GPUTPCTracker_8h.html" target="_top" xlink:title="GPUTPCTracker.h">
<polygon fill="none" stroke="#000000" points="402,-504.5 402,-523.5 502,-523.5 502,-504.5 402,-504.5"/>
<text text-anchor="middle" x="452" y="-511.5" font-family="Helvetica,sans-Serif" font-size="10.00" fill="#000000">GPUTPCTracker.h</text>
</a>
</g>
</g>
<!-- Node12&#45;&gt;Node13 -->
<g id="edge14" class="edge">
<title>Node12&#45;&gt;Node13</title>
<path fill="none" stroke="#191970" d="M452,-560.2455C452,-552.9382 452,-542.6944 452,-533.7046"/>
<polygon fill="#191970" stroke="#191970" points="455.5001,-533.6426 452,-523.6427 448.5001,-533.6427 455.5001,-533.6426"/>
</g>
<!-- Node23 -->
<g id="node24" class="node">
<title>Node23</title>
<g id="a_node24"><a xlink:href="../../df/d13/GPUParam_8h.html" target="_top" xlink:title="GPUParam.h">
<polygon fill="none" stroke="#000000" points="683.5,-392.5 683.5,-411.5 758.5,-411.5 758.5,-392.5 683.5,-392.5"/>
<text text-anchor="middle" x="721" y="-399.5" font-family="Helvetica,sans-Serif" font-size="10.00" fill="#000000">GPUParam.h</text>
</a>
</g>
</g>
<!-- Node12&#45;&gt;Node23 -->
<g id="edge62" class="edge">
<title>Node12&#45;&gt;Node23</title>
<path fill="none" stroke="#191970" d="M432.5695,-560.3936C419.0111,-552.5779 401.8231,-540.1962 393,-524 376.8063,-494.2739 365.7618,-473.5213 388,-448 406.4444,-426.8326 585.3086,-411.4966 673.0055,-405.1852"/>
<polygon fill="#191970" stroke="#191970" points="673.5039,-408.6588 683.2314,-404.4605 673.009,-401.6763 673.5039,-408.6588"/>
</g>
<!-- Node38 -->
<g id="node39" class="node">
<title>Node38</title>
<g id="a_node39"><a xlink:href="../../d4/dc5/GPUDataTypes_8h.html" target="_top" xlink:title="GPUDataTypes.h">
<polygon fill="none" stroke="#000000" points="1267.5,-336.5 1267.5,-355.5 1362.5,-355.5 1362.5,-336.5 1267.5,-336.5"/>
<text text-anchor="middle" x="1315" y="-343.5" font-family="Helvetica,sans-Serif" font-size="10.00" fill="#000000">GPUDataTypes.h</text>
</a>
</g>
</g>
<!-- Node12&#45;&gt;Node38 -->
<g id="edge63" class="edge">
<title>Node12&#45;&gt;Node38</title>
<path fill="none" stroke="#191970" d="M506.2828,-561.2942C509.2304,-560.8494 512.1508,-560.4153 515,-560 635.232,-542.4748 666.2139,-544.351 786,-524 1016.93,-484.7662 1136.6723,-578.9262 1301,-412 1312.9177,-399.8939 1315.8253,-380.3217 1316.1068,-365.6284"/>
<polygon fill="#191970" stroke="#191970" points="1319.6047,-365.4798 1315.9158,-355.5479 1312.6059,-365.6124 1319.6047,-365.4798"/>
</g>
<!-- Node39 -->
<g id="node40" class="node">
<title>Node39</title>
<g id="a_node40"><a xlink:href="../../da/da4/GPUErrors_8h.html" target="_top" xlink:title="GPUErrors.h">
<polygon fill="none" stroke="#000000" points="92.5,-504.5 92.5,-523.5 165.5,-523.5 165.5,-504.5 92.5,-504.5"/>
<text text-anchor="middle" x="129" y="-511.5" font-family="Helvetica,sans-Serif" font-size="10.00" fill="#000000">GPUErrors.h</text>
</a>
</g>
</g>
<!-- Node12&#45;&gt;Node39 -->
<g id="edge66" class="edge">
<title>Node12&#45;&gt;Node39</title>
<path fill="none" stroke="#191970" d="M397.9371,-560.6269C335.7606,-549.847 234.7018,-532.326 175.7746,-522.1095"/>
<polygon fill="#191970" stroke="#191970" points="176.0845,-518.6111 165.6336,-520.3513 174.8887,-525.5082 176.0845,-518.6111"/>
</g>
<!-- Node41 -->
<g id="node42" class="node">
<title>Node41</title>
<g id="a_node42"><a xlink:href="../../d7/d4f/GPUTRDDef_8h.html" target="_top" xlink:title="GPUTRDDef.h">
<polygon fill="none" stroke="#000000" points="1346.5,-224.5 1346.5,-243.5 1429.5,-243.5 1429.5,-224.5 1346.5,-224.5"/>
<text text-anchor="middle" x="1388" y="-231.5" font-family="Helvetica,sans-Serif" font-size="10.00" fill="#000000">GPUTRDDef.h</text>
</a>
</g>
</g>
<!-- Node12&#45;&gt;Node41 -->
<g id="edge69" class="edge">
<title>Node12&#45;&gt;Node41</title>
<path fill="none" stroke="#191970" d="M506.2577,-561.1036C509.2118,-560.708 512.1404,-560.3366 515,-560 612.319,-548.544 1391,-555.9909 1391,-458 1391,-458 1391,-458 1391,-346 1391,-313.7 1389.7378,-276.1791 1388.8508,-253.8005"/>
<polygon fill="#191970" stroke="#191970" points="1392.3387,-253.4334 1388.4298,-243.5861 1385.3447,-253.7217 1392.3387,-253.4334"/>
</g>
<!-- Node42 -->
<g id="node43" class="node">
<title>Node42</title>
<g id="a_node43"><a xlink:href="../../da/d28/GPUO2FakeClasses_8h.html" target="_top" xlink:title="GPUO2FakeClasses.h">
<polygon fill="none" stroke="#000000" points="1174.5,-392.5 1174.5,-411.5 1291.5,-411.5 1291.5,-392.5 1174.5,-392.5"/>
<text text-anchor="middle" x="1233" y="-399.5" font-family="Helvetica,sans-Serif" font-size="10.00" fill="#000000">GPUO2FakeClasses.h</text>
</a>
</g>
</g>
<!-- Node12&#45;&gt;Node42 -->
<g id="edge71" class="edge">
<title>Node12&#45;&gt;Node42</title>
<path fill="none" stroke="#191970" d="M506.0696,-560.7049C625.5881,-540.0451 909.1477,-490.3755 1004,-468 1071.202,-452.1471 1148.1002,-428.9166 1193.4967,-414.6634"/>
<polygon fill="#191970" stroke="#191970" points="1194.7545,-417.9367 1203.2384,-411.5906 1192.6487,-411.2609 1194.7545,-417.9367"/>
</g>
<!-- Node14 -->
<g id="node15" class="node">
<title>Node14</title>
<g id="a_node15"><a xlink:href="../../da/dab/GPUTPCDef_8h.html" target="_top" xlink:title="GPUTPCDef.h">
<polygon fill="none" stroke="#000000" points="310.5,-280.5 310.5,-299.5 393.5,-299.5 393.5,-280.5 310.5,-280.5"/>
<text text-anchor="middle" x="352" y="-287.5" font-family="Helvetica,sans-Serif" font-size="10.00" fill="#000000">GPUTPCDef.h</text>
</a>
</g>
</g>
<!-- Node13&#45;&gt;Node14 -->
<g id="edge15" class="edge">
<title>Node13&#45;&gt;Node14</title>
<path fill="none" stroke="#191970" d="M431.6802,-504.3501C417.3492,-496.5128 398.8438,-484.123 388,-468 354.8021,-418.6401 350.9838,-345.3527 351.2717,-310.2176"/>
<polygon fill="#191970" stroke="#191970" points="354.7785,-309.9262 351.4902,-299.8546 347.78,-309.7785 354.7785,-309.9262"/>
</g>
<!-- Node15 -->
<g id="node16" class="node">
<title>Node15</title>
<polygon fill="none" stroke="#bfbfbf" points="525,-448.5 525,-467.5 579,-467.5 579,-448.5 525,-448.5"/>
<text text-anchor="middle" x="552" y="-455.5" font-family="Helvetica,sans-Serif" font-size="10.00" fill="#000000">iostream</text>
</g>
<!-- Node13&#45;&gt;Node15 -->
<g id="edge17" class="edge">
<title>Node13&#45;&gt;Node15</title>
<path fill="none" stroke="#191970" d="M469.4187,-504.2455C485.0485,-495.4928 508.2019,-482.527 526.0185,-472.5496"/>
<polygon fill="#191970" stroke="#191970" points="527.766,-475.5825 534.7809,-467.6427 524.3457,-469.475 527.766,-475.5825"/>
</g>
<!-- Node16 -->
<g id="node17" class="node">
<title>Node16</title>
<g id="a_node17"><a xlink:href="../../dd/d7b/GPUTPCHitId_8h.html" target="_top" xlink:title="GPUTPCHitId.h">
<polygon fill="none" stroke="#000000" points="597,-448.5 597,-467.5 685,-467.5 685,-448.5 597,-448.5"/>
<text text-anchor="middle" x="641" y="-455.5" font-family="Helvetica,sans-Serif" font-size="10.00" fill="#000000">GPUTPCHitId.h</text>
</a>
</g>
</g>
<!-- Node13&#45;&gt;Node16 -->
<g id="edge18" class="edge">
<title>Node13&#45;&gt;Node16</title>
<path fill="none" stroke="#191970" d="M484.4903,-504.3733C516.1902,-494.9807 564.5576,-480.6496 599.1286,-470.4064"/>
<polygon fill="#191970" stroke="#191970" points="600.3401,-473.6979 608.9337,-467.5011 598.3514,-466.9863 600.3401,-473.6979"/>
</g>
<!-- Node17 -->
<g id="node18" class="node">
<title>Node17</title>
<g id="a_node18"><a xlink:href="../../df/d4a/GPUTPCSliceData_8h.html" target="_top" xlink:title="GPUTPCSliceData.h">
<polygon fill="none" stroke="#000000" points="397,-448.5 397,-467.5 507,-467.5 507,-448.5 397,-448.5"/>
<text text-anchor="middle" x="452" y="-455.5" font-family="Helvetica,sans-Serif" font-size="10.00" fill="#000000">GPUTPCSliceData.h</text>
</a>
</g>
</g>
<!-- Node13&#45;&gt;Node17 -->
<g id="edge19" class="edge">
<title>Node13&#45;&gt;Node17</title>
<path fill="none" stroke="#191970" d="M452,-504.2455C452,-496.9382 452,-486.6944 452,-477.7046"/>
<polygon fill="#191970" stroke="#191970" points="455.5001,-477.6426 452,-467.6427 448.5001,-477.6427 455.5001,-477.6426"/>
</g>
<!-- Node33 -->
<g id="node34" class="node">
<title>Node33</title>
<g id="a_node34"><a xlink:href="../../d6/d57/GPUProcessor_8h.html" target="_top" xlink:title="GPUProcessor.h">
<polygon fill="none" stroke="#000000" points="1119.5,-336.5 1119.5,-355.5 1210.5,-355.5 1210.5,-336.5 1119.5,-336.5"/>
<text text-anchor="middle" x="1165" y="-343.5" font-family="Helvetica,sans-Serif" font-size="10.00" fill="#000000">GPUProcessor.h</text>
</a>
</g>
</g>
<!-- Node13&#45;&gt;Node33 -->
<g id="edge61" class="edge">
<title>Node13&#45;&gt;Node33</title>
<path fill="none" stroke="#191970" d="M502.0558,-511.9883C640.4662,-505.5754 1024.8465,-481.7647 1127,-412 1143.1458,-400.9734 1153.318,-380.6637 1159.0305,-365.4746"/>
<polygon fill="#191970" stroke="#191970" points="1162.3621,-366.5488 1162.2914,-355.9542 1155.7398,-364.2805 1162.3621,-366.5488"/>
</g>
<!-- Node35 -->
<g id="node36" class="node">
<title>Node35</title>
<g id="a_node36"><a xlink:href="../../de/d15/GPUTPCTrackParam_8h.html" target="_top" xlink:title="GPUTPCTrackParam.h">
<polygon fill="none" stroke="#000000" points="66,-392.5 66,-411.5 186,-411.5 186,-392.5 66,-392.5"/>
<text text-anchor="middle" x="126" y="-399.5" font-family="Helvetica,sans-Serif" font-size="10.00" fill="#000000">GPUTPCTrackParam.h</text>
</a>
</g>
</g>
<!-- Node13&#45;&gt;Node35 -->
<g id="edge53" class="edge">
<title>Node13&#45;&gt;Node35</title>
<path fill="none" stroke="#191970" d="M415.3832,-504.4659C382.9574,-495.7723 334.4724,-482.1587 293,-468 245.0683,-451.636 190.7154,-429.4608 157.3954,-415.4407"/>
<polygon fill="#191970" stroke="#191970" points="158.7431,-412.2106 148.1694,-411.5407 156.0175,-418.6582 158.7431,-412.2106"/>
</g>
<!-- Node37 -->
<g id="node38" class="node">
<title>Node37</title>
<g id="a_node38"><a xlink:href="../../db/d6e/GPUTPCTracklet_8h.html" target="_top" xlink:title="GPUTPCTracklet.h">
<polygon fill="none" stroke="#000000" points="204,-392.5 204,-411.5 306,-411.5 306,-392.5 204,-392.5"/>
<text text-anchor="middle" x="255" y="-399.5" font-family="Helvetica,sans-Serif" font-size="10.00" fill="#000000">GPUTPCTracklet.h</text>
</a>
</g>
</g>
<!-- Node13&#45;&gt;Node37 -->
<g id="edge58" class="edge">
<title>Node13&#45;&gt;Node37</title>
<path fill="none" stroke="#191970" d="M409.3603,-504.4637C382.3581,-497.1772 347.4799,-485.3889 320,-468 299.5514,-455.0604 280.6852,-434.5306 268.6057,-419.8035"/>
<polygon fill="#191970" stroke="#191970" points="271.2836,-417.5478 262.317,-411.9042 265.8071,-421.9077 271.2836,-417.5478"/>
</g>
<!-- Node14&#45;&gt;Node2 -->
<g id="edge16" class="edge">
<title>Node14&#45;&gt;Node2</title>
<path fill="none" stroke="#191970" d="M363.8447,-280.2455C373.888,-271.9746 388.4995,-259.9416 400.3004,-250.2232"/>
<polygon fill="#191970" stroke="#191970" points="402.7967,-252.7015 408.291,-243.6427 398.3467,-247.298 402.7967,-252.7015"/>
</g>
<!-- Node17&#45;&gt;Node14 -->
<g id="edge20" class="edge">
<title>Node17&#45;&gt;Node14</title>
<path fill="none" stroke="#191970" d="M437.1905,-448.228C425.4531,-439.8288 409.3573,-426.7606 399,-412 376.2864,-379.6299 362.7204,-334.8154 356.371,-309.4863"/>
<polygon fill="#191970" stroke="#191970" points="359.7437,-308.5407 354.02,-299.6251 352.9345,-310.1641 359.7437,-308.5407"/>
</g>
<!-- Node18 -->
<g id="node19" class="node">
<title>Node18</title>
<g id="a_node19"><a xlink:href="../../d8/dff/GPUTPCRow_8h.html" target="_top" xlink:title="GPUTPCRow.h">
<polygon fill="none" stroke="#000000" points="408.5,-392.5 408.5,-411.5 495.5,-411.5 495.5,-392.5 408.5,-392.5"/>
<text text-anchor="middle" x="452" y="-399.5" font-family="Helvetica,sans-Serif" font-size="10.00" fill="#000000">GPUTPCRow.h</text>
</a>
</g>
</g>
<!-- Node17&#45;&gt;Node18 -->
<g id="edge21" class="edge">
<title>Node17&#45;&gt;Node18</title>
<path fill="none" stroke="#191970" d="M452,-448.2455C452,-440.9382 452,-430.6944 452,-421.7046"/>
<polygon fill="#191970" stroke="#191970" points="455.5001,-421.6426 452,-411.6427 448.5001,-421.6427 455.5001,-421.6426"/>
</g>
<!-- Node20 -->
<g id="node21" class="node">
<title>Node20</title>
<g id="a_node21"><a xlink:href="../../d6/da2/GPUCommonMath_8h.html" target="_top" xlink:title="GPUCommonMath.h">
<polygon fill="none" stroke="#000000" points="908,-336.5 908,-355.5 1016,-355.5 1016,-336.5 908,-336.5"/>
<text text-anchor="middle" x="962" y="-343.5" font-family="Helvetica,sans-Serif" font-size="10.00" fill="#000000">GPUCommonMath.h</text>
</a>
</g>
</g>
<!-- Node17&#45;&gt;Node20 -->
<g id="edge25" class="edge">
<title>Node17&#45;&gt;Node20</title>
<path fill="none" stroke="#191970" d="M507.151,-449.3357C510.1437,-448.8802 513.1082,-448.4325 516,-448 627.8928,-431.2668 657.9702,-438.3333 768,-412 825.805,-398.1656 890.7875,-374.2783 928.9594,-359.3517"/>
<polygon fill="#191970" stroke="#191970" points="930.5078,-362.5034 938.5261,-355.5783 927.9393,-355.9916 930.5078,-362.5034"/>
</g>
<!-- Node17&#45;&gt;Node23 -->
<g id="edge29" class="edge">
<title>Node17&#45;&gt;Node23</title>
<path fill="none" stroke="#191970" d="M497.9371,-448.4369C546.9319,-438.2372 624.151,-422.1619 673.6721,-411.8527"/>
<polygon fill="#191970" stroke="#191970" points="674.4177,-415.2726 683.4945,-409.8078 672.991,-408.4195 674.4177,-415.2726"/>
</g>
<!-- Node32 -->
<g id="node33" class="node">
<title>Node32</title>
<g id="a_node33"><a xlink:href="../../d5/da6/GPUMemoryResource_8h.html" target="_top" xlink:title="GPUMemoryResource.h">
<polygon fill="none" stroke="#000000" points="994,-392.5 994,-411.5 1118,-411.5 1118,-392.5 994,-392.5"/>
<text text-anchor="middle" x="1056" y="-399.5" font-family="Helvetica,sans-Serif" font-size="10.00" fill="#000000">GPUMemoryResource.h</text>
</a>
</g>
</g>
<!-- Node17&#45;&gt;Node32 -->
<g id="edge46" class="edge">
<title>Node17&#45;&gt;Node32</title>
<path fill="none" stroke="#191970" d="M507.124,-449.136C510.1237,-448.7321 513.0971,-448.35 516,-448 683.0189,-427.8629 880.147,-413.4157 983.8556,-406.5332"/>
<polygon fill="#191970" stroke="#191970" points="984.1527,-410.0213 993.9007,-405.8709 983.6921,-403.0365 984.1527,-410.0213"/>
</g>
<!-- Node18&#45;&gt;Node14 -->
<g id="edge22" class="edge">
<title>Node18&#45;&gt;Node14</title>
<path fill="none" stroke="#191970" d="M442.66,-392.2332C433.8726,-382.9917 420.3985,-368.685 409,-356 394.3902,-339.7413 378.13,-320.8295 366.7277,-307.4284"/>
<polygon fill="#191970" stroke="#191970" points="369.1406,-304.8623 360.0024,-299.5009 363.8027,-309.3908 369.1406,-304.8623"/>
</g>
<!-- Node19 -->
<g id="node20" class="node">
<title>Node19</title>
<g id="a_node20"><a xlink:href="../../d3/da7/GPUTPCGrid_8h.html" target="_top" xlink:title="GPUTPCGrid.h">
<polygon fill="none" stroke="#000000" points="418.5,-336.5 418.5,-355.5 503.5,-355.5 503.5,-336.5 418.5,-336.5"/>
<text text-anchor="middle" x="461" y="-343.5" font-family="Helvetica,sans-Serif" font-size="10.00" fill="#000000">GPUTPCGrid.h</text>
</a>
</g>
</g>
<!-- Node18&#45;&gt;Node19 -->
<g id="edge23" class="edge">
<title>Node18&#45;&gt;Node19</title>
<path fill="none" stroke="#191970" d="M453.5677,-392.2455C454.7421,-384.9382 456.3884,-374.6944 457.8332,-365.7046"/>
<polygon fill="#191970" stroke="#191970" points="461.3191,-366.0714 459.4503,-355.6427 454.4078,-364.9606 461.3191,-366.0714"/>
</g>
<!-- Node19&#45;&gt;Node14 -->
<g id="edge24" class="edge">
<title>Node19&#45;&gt;Node14</title>
<path fill="none" stroke="#191970" d="M442.0136,-336.2455C424.8208,-327.4125 399.2762,-314.2887 379.7868,-304.2758"/>
<polygon fill="#191970" stroke="#191970" points="381.263,-301.0993 370.7688,-299.6427 378.0641,-307.3257 381.263,-301.0993"/>
</g>
<!-- Node20&#45;&gt;Node3 -->
<g id="edge26" class="edge">
<title>Node20&#45;&gt;Node3</title>
<path fill="none" stroke="#191970" d="M965.1095,-336.2663C970.7448,-318.2509 982.6482,-278.4064 989,-244 999.4977,-187.1358 1004.7725,-118.902 1006.8711,-85.864"/>
<polygon fill="#191970" stroke="#191970" points="1010.3743,-85.9153 1007.4843,-75.7222 1003.3871,-85.4928 1010.3743,-85.9153"/>
</g>
<!-- Node21 -->
<g id="node22" class="node">
<title>Node21</title>
<polygon fill="none" stroke="#bfbfbf" points="908,-280.5 908,-299.5 952,-299.5 952,-280.5 908,-280.5"/>
<text text-anchor="middle" x="930" y="-287.5" font-family="Helvetica,sans-Serif" font-size="10.00" fill="#000000">cmath</text>
</g>
<!-- Node20&#45;&gt;Node21 -->
<g id="edge27" class="edge">
<title>Node20&#45;&gt;Node21</title>
<path fill="none" stroke="#191970" d="M956.426,-336.2455C952.0669,-328.617 945.8789,-317.7881 940.5867,-308.5267"/>
<polygon fill="#191970" stroke="#191970" points="943.5104,-306.5886 935.5101,-299.6427 937.4327,-310.0616 943.5104,-306.5886"/>
</g>
<!-- Node22 -->
<g id="node23" class="node">
<title>Node22</title>
<polygon fill="none" stroke="#bfbfbf" points="1008,-280.5 1008,-299.5 1064,-299.5 1064,-280.5 1008,-280.5"/>
<text text-anchor="middle" x="1036" y="-287.5" font-family="Helvetica,sans-Serif" font-size="10.00" fill="#000000">algorithm</text>
</g>
<!-- Node20&#45;&gt;Node22 -->
<g id="edge28" class="edge">
<title>Node20&#45;&gt;Node22</title>
<path fill="none" stroke="#191970" d="M974.8898,-336.2455C985.9254,-327.8943 1002.0292,-315.7076 1014.9353,-305.9408"/>
<polygon fill="#191970" stroke="#191970" points="1017.3959,-308.4681 1023.2579,-299.6427 1013.1717,-302.8862 1017.3959,-308.4681"/>
</g>
<!-- Node23&#45;&gt;Node2 -->
<g id="edge32" class="edge">
<title>Node23&#45;&gt;Node2</title>
<path fill="none" stroke="#191970" d="M723.4823,-392.1695C726.4275,-377.9855 729.3988,-351.7577 716,-336 671.868,-284.0986 631.4619,-322.0464 567,-300 524.1933,-285.3598 476.8076,-262.8783 447.7107,-248.3048"/>
<polygon fill="#191970" stroke="#191970" points="449.0808,-245.0757 438.5772,-243.6884 445.9231,-251.323 449.0808,-245.0757"/>
</g>
<!-- Node23&#45;&gt;Node3 -->
<g id="edge30" class="edge">
<title>Node23&#45;&gt;Node3</title>
<path fill="none" stroke="#191970" d="M718.1894,-392.1906C713.4595,-377.5382 702.4649,-350.1486 683,-336 620.5287,-290.591 586.699,-323.089 513,-300 451.7961,-280.8256 437.1054,-273.1986 380,-244 337.38,-222.2079 311.4518,-229.7297 288,-188 277.7866,-169.8265 283.8461,-124.6511 298,-112 322.0317,-90.5199 778.9868,-73.4837 946.8337,-67.9271"/>
<polygon fill="#191970" stroke="#191970" points="947.11,-71.42 956.9896,-67.5933 946.8799,-64.4238 947.11,-71.42"/>
</g>
<!-- Node23&#45;&gt;Node20 -->
<g id="edge31" class="edge">
<title>Node23&#45;&gt;Node20</title>
<path fill="none" stroke="#191970" d="M758.6563,-393.25C799.6409,-383.7266 865.4072,-368.4448 911.0017,-357.8502"/>
<polygon fill="#191970" stroke="#191970" points="912.0328,-361.204 920.9811,-355.5314 910.4484,-354.3856 912.0328,-361.204"/>
</g>
<!-- Node24 -->
<g id="node25" class="node">
<title>Node24</title>
<g id="a_node25"><a xlink:href="../../dd/dc6/GPUSettings_8h.html" target="_top" xlink:title="GPUSettings.h">
<polygon fill="none" stroke="#000000" points="768.5,-336.5 768.5,-355.5 851.5,-355.5 851.5,-336.5 768.5,-336.5"/>
<text text-anchor="middle" x="810" y="-343.5" font-family="Helvetica,sans-Serif" font-size="10.00" fill="#000000">GPUSettings.h</text>
</a>
</g>
</g>
<!-- Node23&#45;&gt;Node24 -->
<g id="edge33" class="edge">
<title>Node23&#45;&gt;Node24</title>
<path fill="none" stroke="#191970" d="M736.5026,-392.2455C750.158,-383.6534 770.2657,-371.0014 785.9989,-361.1018"/>
<polygon fill="#191970" stroke="#191970" points="788.0751,-363.9307 794.675,-355.6427 784.3471,-358.006 788.0751,-363.9307"/>
</g>
<!-- Node30 -->
<g id="node31" class="node">
<title>Node30</title>
<g id="a_node31"><a xlink:href="../../d6/d1b/GPUTPCGeometry_8h.html" target="_top" xlink:title="GPUTPCGeometry.h">
<polygon fill="none" stroke="#000000" points="870,-224.5 870,-243.5 980,-243.5 980,-224.5 870,-224.5"/>
<text text-anchor="middle" x="925" y="-231.5" font-family="Helvetica,sans-Serif" font-size="10.00" fill="#000000">GPUTPCGeometry.h</text>
</a>
</g>
</g>
<!-- Node23&#45;&gt;Node30 -->
<g id="edge42" class="edge">
<title>Node23&#45;&gt;Node30</title>
<path fill="none" stroke="#191970" d="M758.7617,-393.0887C794.6945,-384.0014 845.5093,-369.3769 861,-356 889.5825,-331.3178 881.2586,-313.3379 899,-280 903.8321,-270.9199 909.4191,-260.9694 914.1727,-252.6528"/>
<polygon fill="#191970" stroke="#191970" points="917.3188,-254.2032 919.2751,-243.7905 911.2523,-250.7105 917.3188,-254.2032"/>
</g>
<!-- Node31 -->
<g id="node32" class="node">
<title>Node31</title>
<g id="a_node32"><a xlink:href="../../d9/d9c/GPUTPCGMPolynomialField_8h.html" target="_top" xlink:title="GPUTPCGMPolynomialField.h">
<polygon fill="none" stroke="#000000" points="522,-336.5 522,-355.5 674,-355.5 674,-336.5 522,-336.5"/>
<text text-anchor="middle" x="598" y="-343.5" font-family="Helvetica,sans-Serif" font-size="10.00" fill="#000000">GPUTPCGMPolynomialField.h</text>
</a>
</g>
</g>
<!-- Node23&#45;&gt;Node31 -->
<g id="edge44" class="edge">
<title>Node23&#45;&gt;Node31</title>
<path fill="none" stroke="#191970" d="M699.8555,-392.3733C680.1108,-383.3838 650.4302,-369.8706 628.1945,-359.7471"/>
<polygon fill="#191970" stroke="#191970" points="629.42,-356.4594 618.8685,-355.5011 626.5194,-362.8302 629.42,-356.4594"/>
</g>
<!-- Node24&#45;&gt;Node3 -->
<g id="edge34" class="edge">
<title>Node24&#45;&gt;Node3</title>
<path fill="none" stroke="#191970" d="M813.2468,-336.3317C821.9314,-310.8356 846.0486,-242.4663 861,-224 878.688,-202.1538 892.5745,-207.3112 913,-188 917.7027,-183.5538 969.2408,-116.5607 994.3747,-83.7885"/>
<polygon fill="#191970" stroke="#191970" points="997.3969,-85.5988 1000.7027,-75.5329 991.8413,-81.3403 997.3969,-85.5988"/>
</g>
<!-- Node25 -->
<g id="node26" class="node">
<title>Node25</title>
<polygon fill="none" stroke="#bfbfbf" points="674,-280.5 674,-299.5 718,-299.5 718,-280.5 674,-280.5"/>
<text text-anchor="middle" x="696" y="-287.5" font-family="Helvetica,sans-Serif" font-size="10.00" fill="#000000">vector</text>
</g>
<!-- Node24&#45;&gt;Node25 -->
<g id="edge35" class="edge">
<title>Node24&#45;&gt;Node25</title>
<path fill="none" stroke="#191970" d="M790.4027,-336.3733C772.2669,-327.4644 745.0865,-314.1127 724.5413,-304.0203"/>
<polygon fill="#191970" stroke="#191970" points="725.8603,-300.7688 715.3416,-299.5011 722.7739,-307.0517 725.8603,-300.7688"/>
</g>
<!-- Node26 -->
<g id="node27" class="node">
<title>Node26</title>
<polygon fill="none" stroke="#bfbfbf" points="576.5,-280.5 576.5,-299.5 617.5,-299.5 617.5,-280.5 576.5,-280.5"/>
<text text-anchor="middle" x="597" y="-287.5" font-family="Helvetica,sans-Serif" font-size="10.00" fill="#000000">string</text>
</g>
<!-- Node24&#45;&gt;Node26 -->
<g id="edge36" class="edge">
<title>Node24&#45;&gt;Node26</title>
<path fill="none" stroke="#191970" d="M772.0776,-336.4968C735.9906,-327.3834 680.2002,-313.1116 632,-300 630.5517,-299.606 629.071,-299.1991 627.5761,-298.785"/>
<polygon fill="#191970" stroke="#191970" points="628.2779,-295.3467 617.7038,-296.0095 626.3833,-302.0854 628.2779,-295.3467"/>
</g>
<!-- Node27 -->
<g id="node28" class="node">
<title>Node27</title>
<g id="a_node28"><a xlink:href="../../da/d08/qconfig_8h.html" target="_top" xlink:title="utils/qconfig.h">
<polygon fill="none" stroke="#000000" points="736.5,-280.5 736.5,-299.5 813.5,-299.5 813.5,-280.5 736.5,-280.5"/>
<text text-anchor="middle" x="775" y="-287.5" font-family="Helvetica,sans-Serif" font-size="10.00" fill="#000000">utils/qconfig.h</text>
</a>
</g>
</g>
<!-- Node24&#45;&gt;Node27 -->
<g id="edge37" class="edge">
<title>Node24&#45;&gt;Node27</title>
<path fill="none" stroke="#191970" d="M803.9035,-336.2455C799.0855,-328.5367 792.2249,-317.5598 786.3968,-308.2348"/>
<polygon fill="#191970" stroke="#191970" points="789.2947,-306.2677 781.0267,-299.6427 783.3587,-309.9777 789.2947,-306.2677"/>
</g>
<!-- Node28 -->
<g id="node29" class="node">
<title>Node28</title>
<g id="a_node29"><a xlink:href="../../d8/de9/qconfigoptions_8h.html" target="_top" xlink:title="qconfigoptions.h">
<polygon fill="none" stroke="#000000" points="726,-224.5 726,-243.5 814,-243.5 814,-224.5 726,-224.5"/>
<text text-anchor="middle" x="770" y="-231.5" font-family="Helvetica,sans-Serif" font-size="10.00" fill="#000000">qconfigoptions.h</text>
</a>
</g>
</g>
<!-- Node27&#45;&gt;Node28 -->
<g id="edge38" class="edge">
<title>Node27&#45;&gt;Node28</title>
<path fill="none" stroke="#191970" d="M774.1291,-280.2455C773.4766,-272.9382 772.562,-262.6944 771.7593,-253.7046"/>
<polygon fill="#191970" stroke="#191970" points="775.2365,-253.2918 770.861,-243.6427 768.2642,-253.9143 775.2365,-253.2918"/>
</g>
<!-- Node28&#45;&gt;Node24 -->
<g id="edge39" class="edge">
<title>Node28&#45;&gt;Node24</title>
<path fill="none" stroke="#191970" d="M726.786,-243.5417C689.6139,-253.8409 644.9082,-272.5475 665,-300 676.2989,-315.4383 721.2496,-328.1354 758.144,-336.2494"/>
<polygon fill="#191970" stroke="#191970" points="757.7918,-339.7529 768.3018,-338.4149 759.2513,-332.9067 757.7918,-339.7529"/>
</g>
<!-- Node29 -->
<g id="node30" class="node">
<title>Node29</title>
<g id="a_node30"><a xlink:href="../../d4/d57/GPUSettingsList_8h.html" target="_top" xlink:title="GPUSettingsList.h">
<polygon fill="none" stroke="#000000" points="806,-168.5 806,-187.5 904,-187.5 904,-168.5 806,-168.5"/>
<text text-anchor="middle" x="855" y="-175.5" font-family="Helvetica,sans-Serif" font-size="10.00" fill="#000000">GPUSettingsList.h</text>
</a>
</g>
</g>
<!-- Node28&#45;&gt;Node29 -->
<g id="edge40" class="edge">
<title>Node28&#45;&gt;Node29</title>
<path fill="none" stroke="#191970" d="M784.8059,-224.2455C797.7256,-215.7337 816.6931,-203.2375 831.6552,-193.3801"/>
<polygon fill="#191970" stroke="#191970" points="833.9387,-196.067 840.3638,-187.6427 830.0876,-190.2216 833.9387,-196.067"/>
</g>
<!-- Node29&#45;&gt;Node6 -->
<g id="edge41" class="edge">
<title>Node29&#45;&gt;Node6</title>
<path fill="none" stroke="#191970" d="M849.426,-168.2455C845.0669,-160.617 838.8789,-149.7881 833.5867,-140.5267"/>
<polygon fill="#191970" stroke="#191970" points="836.5104,-138.5886 828.5101,-131.6427 830.4327,-142.0616 836.5104,-138.5886"/>
</g>
<!-- Node30&#45;&gt;Node3 -->
<g id="edge43" class="edge">
<title>Node30&#45;&gt;Node3</title>
<path fill="none" stroke="#191970" d="M929.7003,-224.4862C942.9342,-197.6994 980.7007,-121.2565 998.5,-85.2289"/>
<polygon fill="#191970" stroke="#191970" points="1001.853,-86.3437 1003.1446,-75.8279 995.5772,-83.2431 1001.853,-86.3437"/>
</g>
<!-- Node31&#45;&gt;Node14 -->
<g id="edge45" class="edge">
<title>Node31&#45;&gt;Node14</title>
<path fill="none" stroke="#191970" d="M555.9906,-336.4369C513.8896,-326.8529 448.9995,-312.0812 403.7479,-301.78"/>
<polygon fill="#191970" stroke="#191970" points="404.3636,-298.3307 393.8361,-299.5237 402.8098,-305.1561 404.3636,-298.3307"/>
</g>
<!-- Node32&#45;&gt;Node3 -->
<g id="edge47" class="edge">
<title>Node32&#45;&gt;Node3</title>
<path fill="none" stroke="#191970" d="M1059.5834,-392.3094C1068.6892,-366.7865 1092,-295.4473 1092,-234 1092,-234 1092,-234 1092,-178 1092,-136.9075 1055.3635,-101.2426 1030.4811,-81.7588"/>
<polygon fill="#191970" stroke="#191970" points="1032.3431,-78.7795 1022.2495,-75.5596 1028.1321,-84.3713 1032.3431,-78.7795"/>
</g>
<!-- Node32&#45;&gt;Node33 -->
<g id="edge48" class="edge">
<title>Node32&#45;&gt;Node33</title>
<path fill="none" stroke="#191970" d="M1074.9864,-392.2455C1092.1792,-383.4125 1117.7238,-370.2887 1137.2132,-360.2758"/>
<polygon fill="#191970" stroke="#191970" points="1138.9359,-363.3257 1146.2312,-355.6427 1135.737,-357.0993 1138.9359,-363.3257"/>
</g>
<!-- Node33&#45;&gt;Node2 -->
<g id="edge50" class="edge">
<title>Node33&#45;&gt;Node2</title>
<path fill="none" stroke="#191970" d="M1155.335,-336.1879C1139.6646,-321.0016 1107.0219,-292.2771 1073,-280 1015.6893,-259.319 596.1927,-241.008 461.5062,-235.6081"/>
<polygon fill="#191970" stroke="#191970" points="461.3346,-232.0986 451.2033,-235.198 461.0562,-239.093 461.3346,-232.0986"/>
</g>
<!-- Node33&#45;&gt;Node3 -->
<g id="edge49" class="edge">
<title>Node33&#45;&gt;Node3</title>
<path fill="none" stroke="#191970" d="M1165.4298,-336.4139C1166.2594,-317.0603 1168,-271.9303 1168,-234 1168,-234 1168,-234 1168,-178 1168,-123.7109 1105.413,-93.5195 1058.5272,-78.5189"/>
<polygon fill="#191970" stroke="#191970" points="1059.375,-75.1183 1048.7887,-75.5453 1057.3307,-81.8132 1059.375,-75.1183"/>
</g>
<!-- Node33&#45;&gt;Node22 -->
<g id="edge52" class="edge">
<title>Node33&#45;&gt;Node22</title>
<path fill="none" stroke="#191970" d="M1142.8241,-336.3733C1122.0234,-327.3435 1090.7083,-313.7494 1067.3542,-303.6111"/>
<polygon fill="#191970" stroke="#191970" points="1068.4532,-300.2727 1057.8865,-299.5011 1065.6657,-306.6938 1068.4532,-300.2727"/>
</g>
<!-- Node34 -->
<g id="node35" class="node">
<title>Node34</title>
<polygon fill="none" stroke="#bfbfbf" points="1196.5,-280.5 1196.5,-299.5 1245.5,-299.5 1245.5,-280.5 1196.5,-280.5"/>
<text text-anchor="middle" x="1221" y="-287.5" font-family="Helvetica,sans-Serif" font-size="10.00" fill="#000000">cstddef</text>
</g>
<!-- Node33&#45;&gt;Node34 -->
<g id="edge51" class="edge">
<title>Node33&#45;&gt;Node34</title>
<path fill="none" stroke="#191970" d="M1174.7545,-336.2455C1182.8648,-328.1352 1194.5925,-316.4075 1204.2081,-306.7919"/>
<polygon fill="#191970" stroke="#191970" points="1206.7611,-309.1887 1211.3573,-299.6427 1201.8113,-304.2389 1206.7611,-309.1887"/>
</g>
<!-- Node35&#45;&gt;Node14 -->
<g id="edge56" class="edge">
<title>Node35&#45;&gt;Node14</title>
<path fill="none" stroke="#191970" d="M115.0924,-392.1651C101.1744,-378.4386 80.538,-353.2804 95,-336 120.6643,-305.3342 233.0356,-295.0882 300.4006,-291.6816"/>
<polygon fill="#191970" stroke="#191970" points="300.5778,-295.1772 310.4015,-291.2092 300.2474,-288.185 300.5778,-295.1772"/>
</g>
<!-- Node35&#45;&gt;Node20 -->
<g id="edge57" class="edge">
<title>Node35&#45;&gt;Node20</title>
<path fill="none" stroke="#191970" d="M186.1718,-392.9544C189.1539,-392.6081 192.1092,-392.287 195,-392 489.9817,-362.7119 565.4313,-378.6091 861,-356 872.8729,-355.0918 885.5155,-353.9662 897.6941,-352.8014"/>
<polygon fill="#191970" stroke="#191970" points="898.1747,-356.2712 907.788,-351.8176 897.4956,-349.3042 898.1747,-356.2712"/>
</g>
<!-- Node36 -->
<g id="node37" class="node">
<title>Node36</title>
<g id="a_node37"><a xlink:href="../../df/d00/GPUTPCBaseTrackParam_8h.html" target="_top" xlink:title="GPUTPCBaseTrackParam.h">
<polygon fill="none" stroke="#000000" points="104.5,-336.5 104.5,-355.5 247.5,-355.5 247.5,-336.5 104.5,-336.5"/>
<text text-anchor="middle" x="176" y="-343.5" font-family="Helvetica,sans-Serif" font-size="10.00" fill="#000000">GPUTPCBaseTrackParam.h</text>
</a>
</g>
</g>
<!-- Node35&#45;&gt;Node36 -->
<g id="edge54" class="edge">
<title>Node35&#45;&gt;Node36</title>
<path fill="none" stroke="#191970" d="M134.7093,-392.2455C141.8073,-384.2958 152.0084,-372.8706 160.495,-363.3656"/>
<polygon fill="#191970" stroke="#191970" points="163.3411,-365.4331 167.3905,-355.6427 158.1195,-360.771 163.3411,-365.4331"/>
</g>
<!-- Node36&#45;&gt;Node14 -->
<g id="edge55" class="edge">
<title>Node36&#45;&gt;Node14</title>
<path fill="none" stroke="#191970" d="M206.2555,-336.3733C235.6483,-327.021 280.4292,-312.7725 312.5934,-302.5385"/>
<polygon fill="#191970" stroke="#191970" points="313.6713,-305.8685 322.1393,-299.5011 311.5488,-299.198 313.6713,-305.8685"/>
</g>
<!-- Node37&#45;&gt;Node14 -->
<g id="edge60" class="edge">
<title>Node37&#45;&gt;Node14</title>
<path fill="none" stroke="#191970" d="M260.7085,-392.0567C268.6431,-378.6392 283.8601,-354.3102 300,-336 309.4645,-325.2628 321.3375,-314.5889 331.348,-306.2299"/>
<polygon fill="#191970" stroke="#191970" points="333.6899,-308.8364 339.225,-299.8023 329.2643,-303.4129 333.6899,-308.8364"/>
</g>
<!-- Node37&#45;&gt;Node36 -->
<g id="edge59" class="edge">
<title>Node37&#45;&gt;Node36</title>
<path fill="none" stroke="#191970" d="M241.2393,-392.2455C229.3448,-383.814 211.935,-371.4729 198.0915,-361.6598"/>
<polygon fill="#191970" stroke="#191970" points="199.7854,-358.5704 189.6031,-355.6427 195.7372,-364.2811 199.7854,-358.5704"/>
</g>
<!-- Node38&#45;&gt;Node3 -->
<g id="edge64" class="edge">
<title>Node38&#45;&gt;Node3</title>
<path fill="none" stroke="#191970" d="M1314.8567,-336.4119C1314.5802,-317.0545 1314,-271.9182 1314,-234 1314,-234 1314,-234 1314,-178 1314,-146.4726 1312.5311,-131.804 1288,-112 1255.2564,-85.5659 1141.5087,-73.9268 1069.4605,-69.1086"/>
<polygon fill="#191970" stroke="#191970" points="1069.3514,-65.5944 1059.1476,-68.4462 1068.9027,-72.5801 1069.3514,-65.5944"/>
</g>
<!-- Node38&#45;&gt;Node34 -->
<g id="edge65" class="edge">
<title>Node38&#45;&gt;Node34</title>
<path fill="none" stroke="#191970" d="M1298.6264,-336.2455C1284.0692,-327.5731 1262.569,-314.7645 1245.8848,-304.825"/>
<polygon fill="#191970" stroke="#191970" points="1247.5683,-301.7539 1237.1859,-299.6427 1243.9856,-307.7676 1247.5683,-301.7539"/>
</g>
<!-- Node39&#45;&gt;Node2 -->
<g id="edge67" class="edge">
<title>Node39&#45;&gt;Node2</title>
<path fill="none" stroke="#191970" d="M113.149,-504.4609C87.0769,-487.4246 38,-449.1008 38,-402 38,-402 38,-402 38,-346 38,-275.651 279.5807,-246.3611 378.5118,-237.3158"/>
<polygon fill="#191970" stroke="#191970" points="379.0885,-240.7784 388.7393,-236.4067 378.4687,-233.8059 379.0885,-240.7784"/>
</g>
<!-- Node40 -->
<g id="node41" class="node">
<title>Node40</title>
<g id="a_node41"><a xlink:href="../../de/d0d/GPUErrorCodes_8h.html" target="_top" xlink:title="GPUErrorCodes.h">
<polygon fill="none" stroke="#000000" points="81,-448.5 81,-467.5 177,-467.5 177,-448.5 81,-448.5"/>
<text text-anchor="middle" x="129" y="-455.5" font-family="Helvetica,sans-Serif" font-size="10.00" fill="#000000">GPUErrorCodes.h</text>
</a>
</g>
</g>
<!-- Node39&#45;&gt;Node40 -->
<g id="edge68" class="edge">
<title>Node39&#45;&gt;Node40</title>
<path fill="none" stroke="#191970" d="M129,-504.2455C129,-496.9382 129,-486.6944 129,-477.7046"/>
<polygon fill="#191970" stroke="#191970" points="132.5001,-477.6426 129,-467.6427 125.5001,-477.6427 132.5001,-477.6426"/>
</g>
<!-- Node41&#45;&gt;Node3 -->
<g id="edge70" class="edge">
<title>Node41&#45;&gt;Node3</title>
<path fill="none" stroke="#191970" d="M1386.401,-224.4468C1381.9268,-200.968 1366.957,-140.2998 1328,-112 1287.8278,-82.8174 1150.3279,-72.0003 1069.2244,-68.1022"/>
<polygon fill="#191970" stroke="#191970" points="1069.2896,-64.6016 1059.1396,-67.6391 1068.9685,-71.5942 1069.2896,-64.6016"/>
</g>
<!-- Node42&#45;&gt;Node3 -->
<g id="edge72" class="edge">
<title>Node42&#45;&gt;Node3</title>
<path fill="none" stroke="#191970" d="M1237.0811,-392.3551C1247.4516,-366.9426 1274,-295.8467 1274,-234 1274,-234 1274,-234 1274,-178 1274,-132.9231 1142.6078,-95.885 1064.5135,-77.8521"/>
<polygon fill="#191970" stroke="#191970" points="1064.8606,-74.3418 1054.3337,-75.5391 1063.3096,-81.1679 1064.8606,-74.3418"/>
</g>
<!-- Node42&#45;&gt;Node38 -->
<g id="edge73" class="edge">
<title>Node42&#45;&gt;Node38</title>
<path fill="none" stroke="#191970" d="M1247.2833,-392.2455C1259.747,-383.7337 1278.0451,-371.2375 1292.4792,-361.3801"/>
<polygon fill="#191970" stroke="#191970" points="1294.5962,-364.1726 1300.8804,-355.6427 1290.6485,-358.392 1294.5962,-364.1726"/>
</g>
</g>
</svg>
