<?xml version="1.0" encoding="UTF-8" standalone="no"?>
<!DOCTYPE svg PUBLIC "-//W3C//DTD SVG 1.1//EN"
 "http://www.w3.org/Graphics/SVG/1.1/DTD/svg11.dtd">
<!-- Generated by graphviz version 2.40.1 (20161225.0304)
 -->
<!-- Title: o2::framework::Spawns&lt; T &gt; Pages: 1 -->
<svg width="452pt" height="507pt"
 viewBox="0.00 0.00 451.50 507.00" xmlns="http://www.w3.org/2000/svg" xmlns:xlink="http://www.w3.org/1999/xlink">
<g id="graph0" class="graph" transform="scale(1 1) rotate(0) translate(4 503)">
<title>o2::framework::Spawns&lt; T &gt;</title>
<!-- Node9 -->
<g id="node1" class="node">
<title>Node9</title>
<polygon fill="#bfbfbf" stroke="#000000" points="165,-.5 165,-90.5 309,-90.5 309,-.5 165,-.5"/>
<text text-anchor="middle" x="237" y="-78.5" font-family="Helvetica,sans-Serif" font-size="10.00" fill="#000000">o2::framework::Spawns&lt; T &gt;</text>
<polyline fill="none" stroke="#000000" points="165,-71.5 309,-71.5 "/>
<text text-anchor="middle" x="237" y="-59.5" font-family="Helvetica,sans-Serif" font-size="10.00" fill="#000000"> </text>
<polyline fill="none" stroke="#000000" points="165,-52.5 309,-52.5 "/>
<text text-anchor="start" x="173" y="-40.5" font-family="Helvetica,sans-Serif" font-size="10.00" fill="#000000">+ pack()</text>
<text text-anchor="start" x="173" y="-29.5" font-family="Helvetica,sans-Serif" font-size="10.00" fill="#000000">+ operator&#45;&gt;()</text>
<text text-anchor="start" x="173" y="-18.5" font-family="Helvetica,sans-Serif" font-size="10.00" fill="#000000">+ operator*()</text>
<text text-anchor="start" x="173" y="-7.5" font-family="Helvetica,sans-Serif" font-size="10.00" fill="#000000">+ asArrowTable()</text>
</g>
<!-- Node10 -->
<g id="node2" class="node">
<title>Node10</title>
<g id="a_node2"><a xlink:href="../../d6/dec/structo2_1_1framework_1_1TableTransform.html" target="_top" xlink:title="{o2::framework::TableTransform\l\&lt; aod::MetadataTrait\&lt; framework\l::pack_head_t\&lt; T::originals \&gt;\l \&gt;::metadata \&gt;\n||+ sources_pack()\l+ base_spec()\l+ base_specs_impl()\l+ base_specs()\l+ spec()\l+ output()\l+ ref()\l}">
<polygon fill="none" stroke="#000000" points="0,-138.5 0,-294.5 162,-294.5 162,-138.5 0,-138.5"/>
<text text-anchor="start" x="8" y="-282.5" font-family="Helvetica,sans-Serif" font-size="10.00" fill="#000000">o2::framework::TableTransform</text>
<text text-anchor="start" x="8" y="-271.5" font-family="Helvetica,sans-Serif" font-size="10.00" fill="#000000">&lt; aod::MetadataTrait&lt; framework</text>
<text text-anchor="start" x="8" y="-260.5" font-family="Helvetica,sans-Serif" font-size="10.00" fill="#000000">::pack_head_t&lt; T::originals &gt;</text>
<text text-anchor="middle" x="81" y="-249.5" font-family="Helvetica,sans-Serif" font-size="10.00" fill="#000000"> &gt;::metadata &gt;</text>
<polyline fill="none" stroke="#000000" points="0,-242.5 162,-242.5 "/>
<text text-anchor="middle" x="81" y="-230.5" font-family="Helvetica,sans-Serif" font-size="10.00" fill="#000000"> </text>
<polyline fill="none" stroke="#000000" points="0,-223.5 162,-223.5 "/>
<text text-anchor="start" x="8" y="-211.5" font-family="Helvetica,sans-Serif" font-size="10.00" fill="#000000">+ sources_pack()</text>
<text text-anchor="start" x="8" y="-200.5" font-family="Helvetica,sans-Serif" font-size="10.00" fill="#000000">+ base_spec()</text>
<text text-anchor="start" x="8" y="-189.5" font-family="Helvetica,sans-Serif" font-size="10.00" fill="#000000">+ base_specs_impl()</text>
<text text-anchor="start" x="8" y="-178.5" font-family="Helvetica,sans-Serif" font-size="10.00" fill="#000000">+ base_specs()</text>
<text text-anchor="start" x="8" y="-167.5" font-family="Helvetica,sans-Serif" font-size="10.00" fill="#000000">+ spec()</text>
<text text-anchor="start" x="8" y="-156.5" font-family="Helvetica,sans-Serif" font-size="10.00" fill="#000000">+ output()</text>
<text text-anchor="start" x="8" y="-145.5" font-family="Helvetica,sans-Serif" font-size="10.00" fill="#000000">+ ref()</text>
</a>
</g>
</g>
<!-- Node10&#45;&gt;Node9 -->
<g id="edge1" class="edge">
<title>Node10&#45;&gt;Node9</title>
<path fill="none" stroke="#191970" d="M159.5307,-130.4183C172.0028,-116.7469 184.4569,-103.0954 195.6172,-90.8619"/>
<polygon fill="none" stroke="#191970" points="156.7619,-128.2601 152.6079,-138.0067 161.9333,-132.9779 156.7619,-128.2601"/>
</g>
<!-- Node11 -->
<g id="node3" class="node">
<title>Node11</title>
<g id="a_node3"><a xlink:href="../../d6/dec/structo2_1_1framework_1_1TableTransform.html" target="_top" xlink:title="Helper template for table transformations. ">
<polygon fill="none" stroke="#000000" points="4.5,-364.5 4.5,-498.5 157.5,-498.5 157.5,-364.5 4.5,-364.5"/>
<text text-anchor="start" x="12.5" y="-486.5" font-family="Helvetica,sans-Serif" font-size="10.00" fill="#000000">o2::framework::TableTransform</text>
<text text-anchor="middle" x="81" y="-475.5" font-family="Helvetica,sans-Serif" font-size="10.00" fill="#000000">&lt; METADATA &gt;</text>
<polyline fill="none" stroke="#000000" points="4.5,-468.5 157.5,-468.5 "/>
<text text-anchor="middle" x="81" y="-456.5" font-family="Helvetica,sans-Serif" font-size="10.00" fill="#000000"> </text>
<polyline fill="none" stroke="#000000" points="4.5,-449.5 157.5,-449.5 "/>
<text text-anchor="start" x="12.5" y="-437.5" font-family="Helvetica,sans-Serif" font-size="10.00" fill="#000000">+ sources_pack()</text>
<text text-anchor="start" x="12.5" y="-426.5" font-family="Helvetica,sans-Serif" font-size="10.00" fill="#000000">+ base_spec()</text>
<text text-anchor="start" x="12.5" y="-415.5" font-family="Helvetica,sans-Serif" font-size="10.00" fill="#000000">+ base_specs_impl()</text>
<text text-anchor="start" x="12.5" y="-404.5" font-family="Helvetica,sans-Serif" font-size="10.00" fill="#000000">+ base_specs()</text>
<text text-anchor="start" x="12.5" y="-393.5" font-family="Helvetica,sans-Serif" font-size="10.00" fill="#000000">+ spec()</text>
<text text-anchor="start" x="12.5" y="-382.5" font-family="Helvetica,sans-Serif" font-size="10.00" fill="#000000">+ output()</text>
<text text-anchor="start" x="12.5" y="-371.5" font-family="Helvetica,sans-Serif" font-size="10.00" fill="#000000">+ ref()</text>
</a>
</g>
</g>
<!-- Node11&#45;&gt;Node10 -->
<g id="edge2" class="edge">
<title>Node11&#45;&gt;Node10</title>
<path fill="none" stroke="#ffa500" d="M81,-354.1089C81,-334.819 81,-314.1222 81,-294.7894"/>
<polygon fill="#ffa500" stroke="#ffa500" points="77.5001,-354.357 81,-364.357 84.5001,-354.3571 77.5001,-354.357"/>
<text text-anchor="start" x="81" y="-338" font-family="Helvetica,sans-Serif" font-size="10.00" fill="#000000"> &lt; aod::MetadataTrait</text>
<text text-anchor="start" x="81" y="-327" font-family="Helvetica,sans-Serif" font-size="10.00" fill="#000000">&lt; framework::pack_head</text>
<text text-anchor="middle" x="150.5" y="-316" font-family="Helvetica,sans-Serif" font-size="10.00" fill="#000000">_t&lt; T::originals &gt; &gt;::metadata &gt;</text>
</g>
<!-- Node12 -->
<g id="node4" class="node">
<title>Node12</title>
<polygon fill="none" stroke="#bfbfbf" points="180,-182.5 180,-250.5 294,-250.5 294,-182.5 180,-182.5"/>
<text text-anchor="start" x="188" y="-238.5" font-family="Helvetica,sans-Serif" font-size="10.00" fill="#000000">shared_ptr&lt; typename</text>
<text text-anchor="middle" x="237" y="-227.5" font-family="Helvetica,sans-Serif" font-size="10.00" fill="#000000"> T::table_t &gt;</text>
<polyline fill="none" stroke="#bfbfbf" points="180,-220.5 294,-220.5 "/>
<text text-anchor="middle" x="237" y="-208.5" font-family="Helvetica,sans-Serif" font-size="10.00" fill="#000000"> </text>
<polyline fill="none" stroke="#bfbfbf" points="180,-201.5 294,-201.5 "/>
<text text-anchor="middle" x="237" y="-189.5" font-family="Helvetica,sans-Serif" font-size="10.00" fill="#000000"> </text>
</g>
<!-- Node12&#45;&gt;Node9 -->
<g id="edge3" class="edge">
<title>Node12&#45;&gt;Node9</title>
<path fill="none" stroke="#404040" d="M237,-182.3066C237,-159.5888 237,-129.2024 237,-102.8378"/>
<polygon fill="none" stroke="#404040" points="237.0001,-102.6607 233,-96.6607 237,-90.6607 241,-96.6606 237.0001,-102.6607"/>
<text text-anchor="middle" x="252.5" y="-112" font-family="Helvetica,sans-Serif" font-size="10.00" fill="#000000"> +table</text>
</g>
<!-- Node13 -->
<g id="node5" class="node">
<title>Node13</title>
<polygon fill="none" stroke="#bfbfbf" points="312.5,-188 312.5,-245 443.5,-245 443.5,-188 312.5,-188"/>
<text text-anchor="middle" x="378" y="-233" font-family="Helvetica,sans-Serif" font-size="10.00" fill="#000000">shared_ptr&lt; extension_t &gt;</text>
<polyline fill="none" stroke="#bfbfbf" points="312.5,-226 443.5,-226 "/>
<text text-anchor="middle" x="378" y="-214" font-family="Helvetica,sans-Serif" font-size="10.00" fill="#000000"> </text>
<polyline fill="none" stroke="#bfbfbf" points="312.5,-207 443.5,-207 "/>
<text text-anchor="middle" x="378" y="-195" font-family="Helvetica,sans-Serif" font-size="10.00" fill="#000000"> </text>
</g>
<!-- Node13&#45;&gt;Node9 -->
<g id="edge4" class="edge">
<title>Node13&#45;&gt;Node9</title>
<path fill="none" stroke="#404040" d="M354.3998,-187.8784C334.663,-163.9424 305.9513,-129.1217 281.8625,-99.9077"/>
<polygon fill="none" stroke="#404040" points="281.8554,-99.899 274.9521,-97.8145 274.2212,-90.6405 281.1244,-92.7251 281.8554,-99.899"/>
<text text-anchor="middle" x="320" y="-112" font-family="Helvetica,sans-Serif" font-size="10.00" fill="#000000"> +extension</text>
</g>
</g>
</svg>
