<?xml version="1.0" encoding="UTF-8" standalone="no"?>
<!DOCTYPE svg PUBLIC "-//W3C//DTD SVG 1.1//EN"
 "http://www.w3.org/Graphics/SVG/1.1/DTD/svg11.dtd">
<!-- Generated by graphviz version 2.40.1 (20161225.0304)
 -->
<!-- Title: /home/runner/work/AliceO2/AliceO2/Common/Utils/include/CommonUtils/RngHelper.h Pages: 1 -->
<svg width="196pt" height="195pt"
 viewBox="0.00 0.00 196.00 195.00" xmlns="http://www.w3.org/2000/svg" xmlns:xlink="http://www.w3.org/1999/xlink">
<g id="graph0" class="graph" transform="scale(1 1) rotate(0) translate(4 191)">
<title>/home/runner/work/AliceO2/AliceO2/Common/Utils/include/CommonUtils/RngHelper.h</title>
<!-- Node3 -->
<g id="node1" class="node">
<title>Node3</title>
<polygon fill="#bfbfbf" stroke="#000000" points="17,-145.5 17,-186.5 171,-186.5 171,-145.5 17,-145.5"/>
<text text-anchor="start" x="25" y="-174.5" font-family="Helvetica,sans-Serif" font-size="10.00" fill="#000000">/home/runner/work/AliceO2</text>
<text text-anchor="start" x="25" y="-163.5" font-family="Helvetica,sans-Serif" font-size="10.00" fill="#000000">/AliceO2/Common/Utils/include</text>
<text text-anchor="middle" x="94" y="-152.5" font-family="Helvetica,sans-Serif" font-size="10.00" fill="#000000">/CommonUtils/RngHelper.h</text>
</g>
<!-- Node4 -->
<g id="node2" class="node">
<title>Node4</title>
<g id="a_node2"><a xlink:href="../../dc/d50/O2PrimaryServerDevice_8h.html" target="_top" xlink:title="/home/runner/work/AliceO2\l/AliceO2/run/O2PrimaryServerDevice.h">
<polygon fill="none" stroke="#000000" points="0,-78.5 0,-108.5 188,-108.5 188,-78.5 0,-78.5"/>
<text text-anchor="start" x="8" y="-96.5" font-family="Helvetica,sans-Serif" font-size="10.00" fill="#000000">/home/runner/work/AliceO2</text>
<text text-anchor="middle" x="94" y="-85.5" font-family="Helvetica,sans-Serif" font-size="10.00" fill="#000000">/AliceO2/run/O2PrimaryServerDevice.h</text>
</a>
</g>
</g>
<!-- Node3&#45;&gt;Node4 -->
<g id="edge1" class="edge">
<title>Node3&#45;&gt;Node4</title>
<path fill="none" stroke="#191970" d="M94,-135.3279C94,-126.0871 94,-116.3508 94,-108.5991"/>
<polygon fill="#191970" stroke="#191970" points="90.5001,-135.4183 94,-145.4183 97.5001,-135.4184 90.5001,-135.4183"/>
</g>
<!-- Node5 -->
<g id="node3" class="node">
<title>Node5</title>
<g id="a_node3"><a xlink:href="../../db/d8f/O2PrimaryServerDeviceRunner_8cxx.html" target="_top" xlink:title="/home/runner/work/AliceO2\l/AliceO2/run/O2PrimaryServerDevice\lRunner.cxx">
<polygon fill="none" stroke="#000000" points="4.5,-.5 4.5,-41.5 183.5,-41.5 183.5,-.5 4.5,-.5"/>
<text text-anchor="start" x="12.5" y="-29.5" font-family="Helvetica,sans-Serif" font-size="10.00" fill="#000000">/home/runner/work/AliceO2</text>
<text text-anchor="start" x="12.5" y="-18.5" font-family="Helvetica,sans-Serif" font-size="10.00" fill="#000000">/AliceO2/run/O2PrimaryServerDevice</text>
<text text-anchor="middle" x="94" y="-7.5" font-family="Helvetica,sans-Serif" font-size="10.00" fill="#000000">Runner.cxx</text>
</a>
</g>
</g>
<!-- Node4&#45;&gt;Node5 -->
<g id="edge2" class="edge">
<title>Node4&#45;&gt;Node5</title>
<path fill="none" stroke="#191970" d="M94,-68.4016C94,-59.6173 94,-49.8652 94,-41.5015"/>
<polygon fill="#191970" stroke="#191970" points="90.5001,-68.4779 94,-78.478 97.5001,-68.478 90.5001,-68.4779"/>
</g>
</g>
</svg>
