<?xml version="1.0" encoding="UTF-8" standalone="no"?>
<!DOCTYPE svg PUBLIC "-//W3C//DTD SVG 1.1//EN"
 "http://www.w3.org/Graphics/SVG/1.1/DTD/svg11.dtd">
<!-- Generated by graphviz version 2.40.1 (20161225.0304)
 -->
<!-- Title: o2::data::PrimaryChunk Pages: 1 -->
<svg width="602pt" height="623pt"
 viewBox="0.00 0.00 602.00 623.00" xmlns="http://www.w3.org/2000/svg" xmlns:xlink="http://www.w3.org/1999/xlink">
<g id="graph0" class="graph" transform="scale(1 1) rotate(0) translate(4 619)">
<title>o2::data::PrimaryChunk</title>
<!-- Node1 -->
<g id="node1" class="node">
<title>Node1</title>
<polygon fill="#bfbfbf" stroke="#000000" points="230,-.5 230,-57.5 350,-57.5 350,-.5 230,-.5"/>
<text text-anchor="middle" x="290" y="-45.5" font-family="Helvetica,sans-Serif" font-size="10.00" fill="#000000">o2::data::PrimaryChunk</text>
<polyline fill="none" stroke="#000000" points="230,-38.5 350,-38.5 "/>
<text text-anchor="middle" x="290" y="-26.5" font-family="Helvetica,sans-Serif" font-size="10.00" fill="#000000"> </text>
<polyline fill="none" stroke="#000000" points="230,-19.5 350,-19.5 "/>
<text text-anchor="start" x="238" y="-7.5" font-family="Helvetica,sans-Serif" font-size="10.00" fill="#000000">+ ClassDefNV()</text>
</g>
<!-- Node2 -->
<g id="node2" class="node">
<title>Node2</title>
<polygon fill="none" stroke="#bfbfbf" points="200.5,-105.5 200.5,-162.5 301.5,-162.5 301.5,-105.5 200.5,-105.5"/>
<text text-anchor="middle" x="251" y="-150.5" font-family="Helvetica,sans-Serif" font-size="10.00" fill="#000000">vector&lt; TParticle &gt;</text>
<polyline fill="none" stroke="#bfbfbf" points="200.5,-143.5 301.5,-143.5 "/>
<text text-anchor="middle" x="251" y="-131.5" font-family="Helvetica,sans-Serif" font-size="10.00" fill="#000000"> </text>
<polyline fill="none" stroke="#bfbfbf" points="200.5,-124.5 301.5,-124.5 "/>
<text text-anchor="middle" x="251" y="-112.5" font-family="Helvetica,sans-Serif" font-size="10.00" fill="#000000"> </text>
</g>
<!-- Node2&#45;&gt;Node1 -->
<g id="edge1" class="edge">
<title>Node2&#45;&gt;Node1</title>
<path fill="none" stroke="#404040" d="M261.6569,-105.3083C265.7841,-94.1966 270.5819,-81.2796 275.0436,-69.2673"/>
<polygon fill="none" stroke="#404040" points="275.1777,-68.9061 273.5171,-61.8888 279.356,-57.657 281.0165,-64.6743 275.1777,-68.9061"/>
<text text-anchor="middle" x="299" y="-79" font-family="Helvetica,sans-Serif" font-size="10.00" fill="#000000"> +mParticles</text>
</g>
<!-- Node3 -->
<g id="node3" class="node">
<title>Node3</title>
<g id="a_node3"><a xlink:href="../../d5/dbc/structo2_1_1data_1_1SubEventInfo.html" target="_top" xlink:title="{o2::data::SubEventInfo\n||+ ClassDefNV()\l}">
<polygon fill="none" stroke="#000000" points="319.5,-105.5 319.5,-162.5 436.5,-162.5 436.5,-105.5 319.5,-105.5"/>
<text text-anchor="middle" x="378" y="-150.5" font-family="Helvetica,sans-Serif" font-size="10.00" fill="#000000">o2::data::SubEventInfo</text>
<polyline fill="none" stroke="#000000" points="319.5,-143.5 436.5,-143.5 "/>
<text text-anchor="middle" x="378" y="-131.5" font-family="Helvetica,sans-Serif" font-size="10.00" fill="#000000"> </text>
<polyline fill="none" stroke="#000000" points="319.5,-124.5 436.5,-124.5 "/>
<text text-anchor="start" x="327.5" y="-112.5" font-family="Helvetica,sans-Serif" font-size="10.00" fill="#000000">+ ClassDefNV()</text>
</a>
</g>
</g>
<!-- Node3&#45;&gt;Node1 -->
<g id="edge2" class="edge">
<title>Node3&#45;&gt;Node1</title>
<path fill="none" stroke="#404040" d="M355.0159,-105.2155C347.4394,-95.8405 338.9241,-85.4237 331,-76 328.4912,-73.0165 325.8773,-69.9426 323.2373,-66.8628"/>
<polygon fill="none" stroke="#404040" points="323.1603,-66.7736 316.2116,-64.8458 315.3186,-57.6902 322.2673,-59.618 323.1603,-66.7736"/>
<text text-anchor="middle" x="378.5" y="-79" font-family="Helvetica,sans-Serif" font-size="10.00" fill="#000000"> +mSubEventInfo</text>
</g>
<!-- Node4 -->
<g id="node4" class="node">
<title>Node4</title>
<g id="a_node4"><a xlink:href="../../d4/db1/classo2_1_1dataformats_1_1MCEventHeader.html" target="_top" xlink:title="{o2::dataformats::MCEvent\lHeader\n||+ MCEventHeader()\l+ MCEventHeader()\l+ operator=()\l+ ~MCEventHeader()\l+ setEmbeddingFileName()\l+ setEmbeddingEventIndex()\l+ getEmbeddedIndex()\l+ Reset()\l+ getMCEventStats()\l# ClassDefOverride()\l}">
<polygon fill="none" stroke="#000000" points="132.5,-243.5 132.5,-410.5 275.5,-410.5 275.5,-243.5 132.5,-243.5"/>
<text text-anchor="start" x="140.5" y="-398.5" font-family="Helvetica,sans-Serif" font-size="10.00" fill="#000000">o2::dataformats::MCEvent</text>
<text text-anchor="middle" x="204" y="-387.5" font-family="Helvetica,sans-Serif" font-size="10.00" fill="#000000">Header</text>
<polyline fill="none" stroke="#000000" points="132.5,-380.5 275.5,-380.5 "/>
<text text-anchor="middle" x="204" y="-368.5" font-family="Helvetica,sans-Serif" font-size="10.00" fill="#000000"> </text>
<polyline fill="none" stroke="#000000" points="132.5,-361.5 275.5,-361.5 "/>
<text text-anchor="start" x="140.5" y="-349.5" font-family="Helvetica,sans-Serif" font-size="10.00" fill="#000000">+ MCEventHeader()</text>
<text text-anchor="start" x="140.5" y="-338.5" font-family="Helvetica,sans-Serif" font-size="10.00" fill="#000000">+ MCEventHeader()</text>
<text text-anchor="start" x="140.5" y="-327.5" font-family="Helvetica,sans-Serif" font-size="10.00" fill="#000000">+ operator=()</text>
<text text-anchor="start" x="140.5" y="-316.5" font-family="Helvetica,sans-Serif" font-size="10.00" fill="#000000">+ ~MCEventHeader()</text>
<text text-anchor="start" x="140.5" y="-305.5" font-family="Helvetica,sans-Serif" font-size="10.00" fill="#000000">+ setEmbeddingFileName()</text>
<text text-anchor="start" x="140.5" y="-294.5" font-family="Helvetica,sans-Serif" font-size="10.00" fill="#000000">+ setEmbeddingEventIndex()</text>
<text text-anchor="start" x="140.5" y="-283.5" font-family="Helvetica,sans-Serif" font-size="10.00" fill="#000000">+ getEmbeddedIndex()</text>
<text text-anchor="start" x="140.5" y="-272.5" font-family="Helvetica,sans-Serif" font-size="10.00" fill="#000000">+ Reset()</text>
<text text-anchor="start" x="140.5" y="-261.5" font-family="Helvetica,sans-Serif" font-size="10.00" fill="#000000">+ getMCEventStats()</text>
<text text-anchor="start" x="140.5" y="-250.5" font-family="Helvetica,sans-Serif" font-size="10.00" fill="#000000"># ClassDefOverride()</text>
</a>
</g>
</g>
<!-- Node4&#45;&gt;Node3 -->
<g id="edge3" class="edge">
<title>Node4&#45;&gt;Node3</title>
<path fill="none" stroke="#404040" d="M203.107,-243.1537C206.8917,-220.4691 215.0034,-197.6238 231,-181 253.8022,-157.3038 272.3767,-170.9065 307.4282,-163.3625"/>
<polygon fill="none" stroke="#404040" points="307.836,-163.2514 312.5731,-157.8144 319.4138,-160.0959 314.6767,-165.5329 307.836,-163.2514"/>
<text text-anchor="middle" x="276.5" y="-200.5" font-family="Helvetica,sans-Serif" font-size="10.00" fill="#000000"> +mMCEventHeader</text>
</g>
<!-- Node5 -->
<g id="node5" class="node">
<title>Node5</title>
<g id="a_node5"><a xlink:href="../../dd/d8f/classFairMCEventHeader.html" target="_top" xlink:title="{FairMCEventHeader\n||}">
<polygon fill="none" stroke="#000000" points="0,-508 0,-565 106,-565 106,-508 0,-508"/>
<text text-anchor="middle" x="53" y="-553" font-family="Helvetica,sans-Serif" font-size="10.00" fill="#000000">FairMCEventHeader</text>
<polyline fill="none" stroke="#000000" points="0,-546 106,-546 "/>
<text text-anchor="middle" x="53" y="-534" font-family="Helvetica,sans-Serif" font-size="10.00" fill="#000000"> </text>
<polyline fill="none" stroke="#000000" points="0,-527 106,-527 "/>
<text text-anchor="middle" x="53" y="-515" font-family="Helvetica,sans-Serif" font-size="10.00" fill="#000000"> </text>
</a>
</g>
</g>
<!-- Node5&#45;&gt;Node4 -->
<g id="edge4" class="edge">
<title>Node5&#45;&gt;Node4</title>
<path fill="none" stroke="#191970" d="M79.6666,-499.5023C97.3709,-474.9391 121.3499,-441.6701 143.5264,-410.9021"/>
<polygon fill="none" stroke="#191970" points="76.6871,-497.6503 73.6793,-507.8092 82.3658,-501.7433 76.6871,-497.6503"/>
</g>
<!-- Node6 -->
<g id="node6" class="node">
<title>Node6</title>
<polygon fill="none" stroke="#bfbfbf" points="124.5,-508 124.5,-565 153.5,-565 153.5,-508 124.5,-508"/>
<text text-anchor="middle" x="139" y="-553" font-family="Helvetica,sans-Serif" font-size="10.00" fill="#000000">int</text>
<polyline fill="none" stroke="#bfbfbf" points="124.5,-546 153.5,-546 "/>
<text text-anchor="middle" x="139" y="-534" font-family="Helvetica,sans-Serif" font-size="10.00" fill="#000000"> </text>
<polyline fill="none" stroke="#bfbfbf" points="124.5,-527 153.5,-527 "/>
<text text-anchor="middle" x="139" y="-515" font-family="Helvetica,sans-Serif" font-size="10.00" fill="#000000"> </text>
</g>
<!-- Node6&#45;&gt;Node4 -->
<g id="edge5" class="edge">
<title>Node6&#45;&gt;Node4</title>
<path fill="none" stroke="#404040" d="M135.0702,-507.5866C133.0755,-485.5828 132.4479,-454.7933 140,-429 140.6719,-426.7053 141.4115,-424.412 142.2114,-422.1246"/>
<polygon fill="none" stroke="#404040" points="142.2895,-421.9256 140.7617,-414.8782 146.6794,-410.7574 148.2072,-417.8048 142.2895,-421.9256"/>
<text text-anchor="middle" x="194" y="-432" font-family="Helvetica,sans-Serif" font-size="10.00" fill="#000000"> #mEmbeddingFileName</text>
</g>
<!-- Node7 -->
<g id="node7" class="node">
<title>Node7</title>
<polygon fill="none" stroke="#bfbfbf" points="252,-508 252,-565 288,-565 288,-508 252,-508"/>
<text text-anchor="middle" x="270" y="-553" font-family="Helvetica,sans-Serif" font-size="10.00" fill="#000000">Int_t</text>
<polyline fill="none" stroke="#bfbfbf" points="252,-546 288,-546 "/>
<text text-anchor="middle" x="270" y="-534" font-family="Helvetica,sans-Serif" font-size="10.00" fill="#000000"> </text>
<polyline fill="none" stroke="#bfbfbf" points="252,-527 288,-527 "/>
<text text-anchor="middle" x="270" y="-515" font-family="Helvetica,sans-Serif" font-size="10.00" fill="#000000"> </text>
</g>
<!-- Node7&#45;&gt;Node4 -->
<g id="edge6" class="edge">
<title>Node7&#45;&gt;Node4</title>
<path fill="none" stroke="#404040" d="M265.7754,-507.8027C262.1588,-485.912 256.2261,-455.1696 248,-429 247.2843,-426.7232 246.535,-424.4282 245.757,-422.1221"/>
<polygon fill="none" stroke="#404040" points="245.658,-421.8424 239.8839,-417.5226 241.6506,-410.5312 247.4247,-414.851 245.658,-421.8424"/>
<text text-anchor="middle" x="308.5" y="-432" font-family="Helvetica,sans-Serif" font-size="10.00" fill="#000000"> #mEmbeddingEventIndex</text>
</g>
<!-- Node8 -->
<g id="node8" class="node">
<title>Node8</title>
<g id="a_node8"><a xlink:href="../../d9/ddb/classo2_1_1dataformats_1_1MCEventStats.html" target="_top" xlink:title="{o2::dataformats::MCEvent\lStats\n||+ setNHits()\l+ getNHits()\l+ setNTransportedTracks()\l+ getNTransportedTracks()\l+ setNKeptTracks()\l+ getNKeptTracks()\l+ setNSteps()\l+ getNSteps()\l+ add()\l}">
<polygon fill="none" stroke="#000000" points="341,-458.5 341,-614.5 475,-614.5 475,-458.5 341,-458.5"/>
<text text-anchor="start" x="349" y="-602.5" font-family="Helvetica,sans-Serif" font-size="10.00" fill="#000000">o2::dataformats::MCEvent</text>
<text text-anchor="middle" x="408" y="-591.5" font-family="Helvetica,sans-Serif" font-size="10.00" fill="#000000">Stats</text>
<polyline fill="none" stroke="#000000" points="341,-584.5 475,-584.5 "/>
<text text-anchor="middle" x="408" y="-572.5" font-family="Helvetica,sans-Serif" font-size="10.00" fill="#000000"> </text>
<polyline fill="none" stroke="#000000" points="341,-565.5 475,-565.5 "/>
<text text-anchor="start" x="349" y="-553.5" font-family="Helvetica,sans-Serif" font-size="10.00" fill="#000000">+ setNHits()</text>
<text text-anchor="start" x="349" y="-542.5" font-family="Helvetica,sans-Serif" font-size="10.00" fill="#000000">+ getNHits()</text>
<text text-anchor="start" x="349" y="-531.5" font-family="Helvetica,sans-Serif" font-size="10.00" fill="#000000">+ setNTransportedTracks()</text>
<text text-anchor="start" x="349" y="-520.5" font-family="Helvetica,sans-Serif" font-size="10.00" fill="#000000">+ getNTransportedTracks()</text>
<text text-anchor="start" x="349" y="-509.5" font-family="Helvetica,sans-Serif" font-size="10.00" fill="#000000">+ setNKeptTracks()</text>
<text text-anchor="start" x="349" y="-498.5" font-family="Helvetica,sans-Serif" font-size="10.00" fill="#000000">+ getNKeptTracks()</text>
<text text-anchor="start" x="349" y="-487.5" font-family="Helvetica,sans-Serif" font-size="10.00" fill="#000000">+ setNSteps()</text>
<text text-anchor="start" x="349" y="-476.5" font-family="Helvetica,sans-Serif" font-size="10.00" fill="#000000">+ getNSteps()</text>
<text text-anchor="start" x="349" y="-465.5" font-family="Helvetica,sans-Serif" font-size="10.00" fill="#000000">+ add()</text>
</a>
</g>
</g>
<!-- Node8&#45;&gt;Node4 -->
<g id="edge7" class="edge">
<title>Node8&#45;&gt;Node4</title>
<path fill="none" stroke="#404040" d="M391.2481,-458.2588C385.9891,-447.2312 379.0792,-436.9606 370,-429 343.5734,-405.8291 322.8168,-425.4335 286.7375,-410.6771"/>
<polygon fill="none" stroke="#404040" points="286.367,-410.4961 279.2201,-411.4564 275.5849,-405.2285 282.7318,-404.2683 286.367,-410.4961"/>
<text text-anchor="middle" x="411" y="-432" font-family="Helvetica,sans-Serif" font-size="10.00" fill="#000000"> #mEventStats</text>
</g>
<!-- Node9 -->
<g id="node9" class="node">
<title>Node9</title>
<polygon fill="none" stroke="#bfbfbf" points="293.5,-298.5 293.5,-355.5 344.5,-355.5 344.5,-298.5 293.5,-298.5"/>
<text text-anchor="middle" x="319" y="-343.5" font-family="Helvetica,sans-Serif" font-size="10.00" fill="#000000">uint16_t</text>
<polyline fill="none" stroke="#bfbfbf" points="293.5,-336.5 344.5,-336.5 "/>
<text text-anchor="middle" x="319" y="-324.5" font-family="Helvetica,sans-Serif" font-size="10.00" fill="#000000"> </text>
<polyline fill="none" stroke="#bfbfbf" points="293.5,-317.5 344.5,-317.5 "/>
<text text-anchor="middle" x="319" y="-305.5" font-family="Helvetica,sans-Serif" font-size="10.00" fill="#000000"> </text>
</g>
<!-- Node9&#45;&gt;Node3 -->
<g id="edge8" class="edge">
<title>Node9&#45;&gt;Node3</title>
<path fill="none" stroke="#404040" d="M318.6923,-298.3425C319.3591,-267.9873 323.3087,-219.2587 340,-181 341.2116,-178.2229 342.6333,-175.4744 344.2023,-172.7832"/>
<polygon fill="none" stroke="#404040" points="344.2227,-172.7524 344.2026,-165.5413 350.8513,-162.7493 350.8714,-169.9604 344.2227,-172.7524"/>
<text text-anchor="middle" x="357" y="-206" font-family="Helvetica,sans-Serif" font-size="10.00" fill="#000000"> +part</text>
<text text-anchor="middle" x="357" y="-195" font-family="Helvetica,sans-Serif" font-size="10.00" fill="#000000">+nparts</text>
</g>
<!-- Node10 -->
<g id="node10" class="node">
<title>Node10</title>
<g id="a_node10"><a xlink:href="../../d4/dc3/classfloat.html" target="_top" xlink:title="{float\n||}">
<polygon fill="none" stroke="#000000" points="362.5,-298.5 362.5,-355.5 397.5,-355.5 397.5,-298.5 362.5,-298.5"/>
<text text-anchor="middle" x="380" y="-343.5" font-family="Helvetica,sans-Serif" font-size="10.00" fill="#000000">float</text>
<polyline fill="none" stroke="#000000" points="362.5,-336.5 397.5,-336.5 "/>
<text text-anchor="middle" x="380" y="-324.5" font-family="Helvetica,sans-Serif" font-size="10.00" fill="#000000"> </text>
<polyline fill="none" stroke="#000000" points="362.5,-317.5 397.5,-317.5 "/>
<text text-anchor="middle" x="380" y="-305.5" font-family="Helvetica,sans-Serif" font-size="10.00" fill="#000000"> </text>
</a>
</g>
</g>
<!-- Node10&#45;&gt;Node3 -->
<g id="edge9" class="edge">
<title>Node10&#45;&gt;Node3</title>
<path fill="none" stroke="#404040" d="M379.7006,-298.1059C379.3623,-265.4649 378.8092,-212.0851 378.426,-175.1096"/>
<polygon fill="none" stroke="#404040" points="378.4226,-174.7753 374.3606,-168.8171 378.2982,-162.7759 382.3602,-168.7341 378.4226,-174.7753"/>
<text text-anchor="middle" x="404" y="-200.5" font-family="Helvetica,sans-Serif" font-size="10.00" fill="#000000"> +eventtime</text>
</g>
<!-- Node11 -->
<g id="node11" class="node">
<title>Node11</title>
<polygon fill="none" stroke="#bfbfbf" points="430,-298.5 430,-355.5 476,-355.5 476,-298.5 430,-298.5"/>
<text text-anchor="middle" x="453" y="-343.5" font-family="Helvetica,sans-Serif" font-size="10.00" fill="#000000">int32_t</text>
<polyline fill="none" stroke="#bfbfbf" points="430,-336.5 476,-336.5 "/>
<text text-anchor="middle" x="453" y="-324.5" font-family="Helvetica,sans-Serif" font-size="10.00" fill="#000000"> </text>
<polyline fill="none" stroke="#bfbfbf" points="430,-317.5 476,-317.5 "/>
<text text-anchor="middle" x="453" y="-305.5" font-family="Helvetica,sans-Serif" font-size="10.00" fill="#000000"> </text>
</g>
<!-- Node11&#45;&gt;Node3 -->
<g id="edge10" class="edge">
<title>Node11&#45;&gt;Node3</title>
<path fill="none" stroke="#404040" d="M454.2906,-298.2988C454.447,-267.4719 451.06,-217.9439 431,-181 429.2376,-177.7543 427.1594,-174.6233 424.8636,-171.6248"/>
<polygon fill="none" stroke="#404040" points="424.8055,-171.5583 417.8458,-169.6709 416.9112,-162.5206 423.8709,-164.408 424.8055,-171.5583"/>
<text text-anchor="middle" x="487" y="-217" font-family="Helvetica,sans-Serif" font-size="10.00" fill="#000000"> +runID</text>
<text text-anchor="middle" x="487" y="-206" font-family="Helvetica,sans-Serif" font-size="10.00" fill="#000000">+maxEvents</text>
<text text-anchor="middle" x="487" y="-195" font-family="Helvetica,sans-Serif" font-size="10.00" fill="#000000">+npersistenttracks</text>
<text text-anchor="middle" x="487" y="-184" font-family="Helvetica,sans-Serif" font-size="10.00" fill="#000000">+nprimarytracks</text>
</g>
<!-- Node12 -->
<g id="node12" class="node">
<title>Node12</title>
<g id="a_node12"><a xlink:href="../../d3/d87/classuint32__t.html" target="_top" xlink:title="{uint32_t\n||}">
<polygon fill="none" stroke="#000000" points="532.5,-298.5 532.5,-355.5 583.5,-355.5 583.5,-298.5 532.5,-298.5"/>
<text text-anchor="middle" x="558" y="-343.5" font-family="Helvetica,sans-Serif" font-size="10.00" fill="#000000">uint32_t</text>
<polyline fill="none" stroke="#000000" points="532.5,-336.5 583.5,-336.5 "/>
<text text-anchor="middle" x="558" y="-324.5" font-family="Helvetica,sans-Serif" font-size="10.00" fill="#000000"> </text>
<polyline fill="none" stroke="#000000" points="532.5,-317.5 583.5,-317.5 "/>
<text text-anchor="middle" x="558" y="-305.5" font-family="Helvetica,sans-Serif" font-size="10.00" fill="#000000"> </text>
</a>
</g>
</g>
<!-- Node12&#45;&gt;Node3 -->
<g id="edge11" class="edge">
<title>Node12&#45;&gt;Node3</title>
<path fill="none" stroke="#404040" d="M561.0844,-298.2871C562.9122,-265.8129 560.6106,-213.2671 532,-181 520.3783,-167.893 483.2243,-156.3545 448.3236,-147.9903"/>
<polygon fill="none" stroke="#404040" points="448.3047,-147.986 441.5568,-150.5287 436.6143,-145.2778 443.3623,-142.7351 448.3047,-147.986"/>
<text text-anchor="middle" x="573.5" y="-211.5" font-family="Helvetica,sans-Serif" font-size="10.00" fill="#000000"> +index</text>
<text text-anchor="middle" x="573.5" y="-200.5" font-family="Helvetica,sans-Serif" font-size="10.00" fill="#000000">+eventID</text>
<text text-anchor="middle" x="573.5" y="-189.5" font-family="Helvetica,sans-Serif" font-size="10.00" fill="#000000">+seed</text>
</g>
</g>
</svg>
