<?xml version="1.0" encoding="UTF-8" standalone="no"?>
<!DOCTYPE svg PUBLIC "-//W3C//DTD SVG 1.1//EN"
 "http://www.w3.org/Graphics/SVG/1.1/DTD/svg11.dtd">
<!-- Generated by graphviz version 2.40.1 (20161225.0304)
 -->
<!-- Title: o2::tpc::rawreader::RawReaderCRUEventSync::EventInfo Pages: 1 -->
<svg width="277pt" height="237pt"
 viewBox="0.00 0.00 276.50 237.00" xmlns="http://www.w3.org/2000/svg" xmlns:xlink="http://www.w3.org/1999/xlink">
<g id="graph0" class="graph" transform="scale(1 1) rotate(0) translate(4 233)">
<title>o2::tpc::rawreader::RawReaderCRUEventSync::EventInfo</title>
<!-- Node1 -->
<g id="node1" class="node">
<title>Node1</title>
<polygon fill="#bfbfbf" stroke="#000000" points="31,-.5 31,-123.5 176,-123.5 176,-.5 31,-.5"/>
<text text-anchor="start" x="39" y="-111.5" font-family="Helvetica,sans-Serif" font-size="10.00" fill="#000000">o2::tpc::rawreader</text>
<text text-anchor="start" x="39" y="-100.5" font-family="Helvetica,sans-Serif" font-size="10.00" fill="#000000">::RawReaderCRUEventSync</text>
<text text-anchor="middle" x="103.5" y="-89.5" font-family="Helvetica,sans-Serif" font-size="10.00" fill="#000000">::EventInfo</text>
<polyline fill="none" stroke="#000000" points="31,-82.5 176,-82.5 "/>
<text text-anchor="middle" x="103.5" y="-70.5" font-family="Helvetica,sans-Serif" font-size="10.00" fill="#000000"> </text>
<polyline fill="none" stroke="#000000" points="31,-63.5 176,-63.5 "/>
<text text-anchor="start" x="39" y="-51.5" font-family="Helvetica,sans-Serif" font-size="10.00" fill="#000000">+ EventInfo()</text>
<text text-anchor="start" x="39" y="-40.5" font-family="Helvetica,sans-Serif" font-size="10.00" fill="#000000">+ EventInfo()</text>
<text text-anchor="start" x="39" y="-29.5" font-family="Helvetica,sans-Serif" font-size="10.00" fill="#000000">+ EventInfo()</text>
<text text-anchor="start" x="39" y="-18.5" font-family="Helvetica,sans-Serif" font-size="10.00" fill="#000000">+ operator&lt;()</text>
<text text-anchor="start" x="39" y="-7.5" font-family="Helvetica,sans-Serif" font-size="10.00" fill="#000000">+ hasHearbeatOrbit()</text>
</g>
<!-- Node2 -->
<g id="node2" class="node">
<title>Node2</title>
<polygon fill="none" stroke="#bfbfbf" points="0,-171.5 0,-228.5 35,-228.5 35,-171.5 0,-171.5"/>
<text text-anchor="middle" x="17.5" y="-216.5" font-family="Helvetica,sans-Serif" font-size="10.00" fill="#000000">bool</text>
<polyline fill="none" stroke="#bfbfbf" points="0,-209.5 35,-209.5 "/>
<text text-anchor="middle" x="17.5" y="-197.5" font-family="Helvetica,sans-Serif" font-size="10.00" fill="#000000"> </text>
<polyline fill="none" stroke="#bfbfbf" points="0,-190.5 35,-190.5 "/>
<text text-anchor="middle" x="17.5" y="-178.5" font-family="Helvetica,sans-Serif" font-size="10.00" fill="#000000"> </text>
</g>
<!-- Node2&#45;&gt;Node1 -->
<g id="edge1" class="edge">
<title>Node2&#45;&gt;Node1</title>
<path fill="none" stroke="#404040" d="M26.3178,-171.4661C29.8181,-161.8141 34.2683,-151.1662 39.5,-142 41.098,-139.2002 42.7906,-136.3958 44.5563,-133.6015"/>
<polygon fill="none" stroke="#404040" points="44.5908,-133.5495 44.5794,-126.3384 51.2314,-123.5543 51.2428,-130.7654 44.5908,-133.5495"/>
<text text-anchor="middle" x="69.5" y="-145" font-family="Helvetica,sans-Serif" font-size="10.00" fill="#000000"> +IsComplete</text>
</g>
<!-- Node3 -->
<g id="node3" class="node">
<title>Node3</title>
<polygon fill="none" stroke="#bfbfbf" points="53,-171.5 53,-228.5 154,-228.5 154,-171.5 53,-171.5"/>
<text text-anchor="middle" x="103.5" y="-216.5" font-family="Helvetica,sans-Serif" font-size="10.00" fill="#000000">vector&lt; CRUInfo &gt;</text>
<polyline fill="none" stroke="#bfbfbf" points="53,-209.5 154,-209.5 "/>
<text text-anchor="middle" x="103.5" y="-197.5" font-family="Helvetica,sans-Serif" font-size="10.00" fill="#000000"> </text>
<polyline fill="none" stroke="#bfbfbf" points="53,-190.5 154,-190.5 "/>
<text text-anchor="middle" x="103.5" y="-178.5" font-family="Helvetica,sans-Serif" font-size="10.00" fill="#000000"> </text>
</g>
<!-- Node3&#45;&gt;Node1 -->
<g id="edge2" class="edge">
<title>Node3&#45;&gt;Node1</title>
<path fill="none" stroke="#404040" d="M103.5,-171.4063C103.5,-160.8767 103.5,-148.4088 103.5,-135.7269"/>
<polygon fill="none" stroke="#404040" points="103.5001,-135.5587 99.5,-129.5587 103.5,-123.5587 107.5,-129.5586 103.5001,-135.5587"/>
<text text-anchor="middle" x="139.5" y="-145" font-family="Helvetica,sans-Serif" font-size="10.00" fill="#000000"> +CRUInfoArray</text>
</g>
<!-- Node4 -->
<g id="node4" class="node">
<title>Node4</title>
<polygon fill="none" stroke="#bfbfbf" points="172.5,-171.5 172.5,-228.5 268.5,-228.5 268.5,-171.5 172.5,-171.5"/>
<text text-anchor="middle" x="220.5" y="-216.5" font-family="Helvetica,sans-Serif" font-size="10.00" fill="#000000">vector&lt; uint32_t &gt;</text>
<polyline fill="none" stroke="#bfbfbf" points="172.5,-209.5 268.5,-209.5 "/>
<text text-anchor="middle" x="220.5" y="-197.5" font-family="Helvetica,sans-Serif" font-size="10.00" fill="#000000"> </text>
<polyline fill="none" stroke="#bfbfbf" points="172.5,-190.5 268.5,-190.5 "/>
<text text-anchor="middle" x="220.5" y="-178.5" font-family="Helvetica,sans-Serif" font-size="10.00" fill="#000000"> </text>
</g>
<!-- Node4&#45;&gt;Node1 -->
<g id="edge3" class="edge">
<title>Node4&#45;&gt;Node1</title>
<path fill="none" stroke="#404040" d="M201.4835,-171.3684C194.8161,-161.8095 187.0912,-151.2438 179.5,-142 177.0076,-138.965 174.427,-135.9032 171.7884,-132.8381"/>
<polygon fill="none" stroke="#404040" points="171.6454,-132.6752 164.6809,-130.8052 163.7284,-123.6573 170.6928,-125.5272 171.6454,-132.6752"/>
<text text-anchor="middle" x="227" y="-145" font-family="Helvetica,sans-Serif" font-size="10.00" fill="#000000"> +HeartbeatOrbits</text>
</g>
</g>
</svg>
