<?xml version="1.0" encoding="UTF-8" standalone="no"?>
<!DOCTYPE svg PUBLIC "-//W3C//DTD SVG 1.1//EN"
 "http://www.w3.org/Graphics/SVG/1.1/DTD/svg11.dtd">
<!-- Generated by graphviz version 2.40.1 (20161225.0304)
 -->
<!-- Title: /home/runner/work/AliceO2/AliceO2/Framework/Core/include/Framework/DeviceConfigInfo.h Pages: 1 -->
<svg width="396pt" height="117pt"
 viewBox="0.00 0.00 396.00 117.00" xmlns="http://www.w3.org/2000/svg" xmlns:xlink="http://www.w3.org/1999/xlink">
<g id="graph0" class="graph" transform="scale(1 1) rotate(0) translate(4 113)">
<title>/home/runner/work/AliceO2/AliceO2/Framework/Core/include/Framework/DeviceConfigInfo.h</title>
<!-- Node0 -->
<g id="node1" class="node">
<title>Node0</title>
<polygon fill="#bfbfbf" stroke="#000000" points="105,-56.5 105,-108.5 269,-108.5 269,-56.5 105,-56.5"/>
<text text-anchor="start" x="113" y="-96.5" font-family="Helvetica,sans-Serif" font-size="10.00" fill="#000000">/home/runner/work/AliceO2</text>
<text text-anchor="start" x="113" y="-85.5" font-family="Helvetica,sans-Serif" font-size="10.00" fill="#000000">/AliceO2/Framework/Core</text>
<text text-anchor="start" x="113" y="-74.5" font-family="Helvetica,sans-Serif" font-size="10.00" fill="#000000">/include/Framework/DeviceConfig</text>
<text text-anchor="middle" x="187" y="-63.5" font-family="Helvetica,sans-Serif" font-size="10.00" fill="#000000">Info.h</text>
</g>
<!-- Node1 -->
<g id="node2" class="node">
<title>Node1</title>
<polygon fill="none" stroke="#bfbfbf" points="0,-.5 0,-19.5 38,-19.5 38,-.5 0,-.5"/>
<text text-anchor="middle" x="19" y="-7.5" font-family="Helvetica,sans-Serif" font-size="10.00" fill="#000000">array</text>
</g>
<!-- Node0&#45;&gt;Node1 -->
<g id="edge1" class="edge">
<title>Node0&#45;&gt;Node1</title>
<path fill="none" stroke="#191970" d="M126.3481,-56.3258C99.4516,-44.7187 69.0858,-31.6144 47.5314,-22.3127"/>
<polygon fill="#191970" stroke="#191970" points="48.8606,-19.0743 38.2922,-18.3255 46.0869,-25.5014 48.8606,-19.0743"/>
</g>
<!-- Node2 -->
<g id="node3" class="node">
<title>Node2</title>
<polygon fill="none" stroke="#bfbfbf" points="56.5,-.5 56.5,-19.5 105.5,-19.5 105.5,-.5 56.5,-.5"/>
<text text-anchor="middle" x="81" y="-7.5" font-family="Helvetica,sans-Serif" font-size="10.00" fill="#000000">cstddef</text>
</g>
<!-- Node0&#45;&gt;Node2 -->
<g id="edge2" class="edge">
<title>Node0&#45;&gt;Node2</title>
<path fill="none" stroke="#191970" d="M148.7316,-56.3258C133.5059,-45.912 116.5182,-34.2931 103.3645,-25.2965"/>
<polygon fill="#191970" stroke="#191970" points="105.1693,-22.2906 94.9394,-19.534 101.2175,-28.0684 105.1693,-22.2906"/>
</g>
<!-- Node3 -->
<g id="node4" class="node">
<title>Node3</title>
<polygon fill="none" stroke="#bfbfbf" points="123.5,-.5 123.5,-19.5 182.5,-19.5 182.5,-.5 123.5,-.5"/>
<text text-anchor="middle" x="153" y="-7.5" font-family="Helvetica,sans-Serif" font-size="10.00" fill="#000000">functional</text>
</g>
<!-- Node0&#45;&gt;Node3 -->
<g id="edge3" class="edge">
<title>Node0&#45;&gt;Node3</title>
<path fill="none" stroke="#191970" d="M174.7252,-56.3258C170.452,-47.2138 165.746,-37.179 161.8098,-28.7857"/>
<polygon fill="#191970" stroke="#191970" points="164.886,-27.1018 157.4711,-19.534 158.5483,-30.0739 164.886,-27.1018"/>
</g>
<!-- Node4 -->
<g id="node5" class="node">
<title>Node4</title>
<polygon fill="none" stroke="#bfbfbf" points="200.5,-.5 200.5,-19.5 241.5,-19.5 241.5,-.5 200.5,-.5"/>
<text text-anchor="middle" x="221" y="-7.5" font-family="Helvetica,sans-Serif" font-size="10.00" fill="#000000">string</text>
</g>
<!-- Node0&#45;&gt;Node4 -->
<g id="edge4" class="edge">
<title>Node0&#45;&gt;Node4</title>
<path fill="none" stroke="#191970" d="M199.2748,-56.3258C203.548,-47.2138 208.254,-37.179 212.1902,-28.7857"/>
<polygon fill="#191970" stroke="#191970" points="215.4517,-30.0739 216.5289,-19.534 209.114,-27.1018 215.4517,-30.0739"/>
</g>
<!-- Node5 -->
<g id="node6" class="node">
<title>Node5</title>
<polygon fill="none" stroke="#bfbfbf" points="260,-.5 260,-19.5 326,-19.5 326,-.5 260,-.5"/>
<text text-anchor="middle" x="293" y="-7.5" font-family="Helvetica,sans-Serif" font-size="10.00" fill="#000000">string_view</text>
</g>
<!-- Node0&#45;&gt;Node5 -->
<g id="edge5" class="edge">
<title>Node0&#45;&gt;Node5</title>
<path fill="none" stroke="#191970" d="M225.2684,-56.3258C240.4941,-45.912 257.4818,-34.2931 270.6355,-25.2965"/>
<polygon fill="#191970" stroke="#191970" points="272.7825,-28.0684 279.0606,-19.534 268.8307,-22.2906 272.7825,-28.0684"/>
</g>
<!-- Node6 -->
<g id="node7" class="node">
<title>Node6</title>
<polygon fill="none" stroke="#bfbfbf" points="344,-.5 344,-19.5 388,-19.5 388,-.5 344,-.5"/>
<text text-anchor="middle" x="366" y="-7.5" font-family="Helvetica,sans-Serif" font-size="10.00" fill="#000000">vector</text>
</g>
<!-- Node0&#45;&gt;Node6 -->
<g id="edge6" class="edge">
<title>Node0&#45;&gt;Node6</title>
<path fill="none" stroke="#191970" d="M251.3702,-56.4283C279.4838,-45.0415 311.1973,-32.1966 334.1289,-22.9087"/>
<polygon fill="#191970" stroke="#191970" points="335.7375,-26.0334 343.6922,-19.0353 333.1096,-19.5454 335.7375,-26.0334"/>
</g>
</g>
</svg>
