<?xml version="1.0" encoding="UTF-8" standalone="no"?>
<!DOCTYPE svg PUBLIC "-//W3C//DTD SVG 1.1//EN"
 "http://www.w3.org/Graphics/SVG/1.1/DTD/svg11.dtd">
<!-- Generated by graphviz version 2.40.1 (20161225.0304)
 -->
<!-- Title: /home/runner/work/AliceO2/AliceO2/Detectors/MUON/MID/Raw/include/MIDRaw/CrateMasks.h Pages: 1 -->
<svg width="145pt" height="173pt"
 viewBox="0.00 0.00 145.00 173.00" xmlns="http://www.w3.org/2000/svg" xmlns:xlink="http://www.w3.org/1999/xlink">
<g id="graph0" class="graph" transform="scale(1 1) rotate(0) translate(4 169)">
<title>/home/runner/work/AliceO2/AliceO2/Detectors/MUON/MID/Raw/include/MIDRaw/CrateMasks.h</title>
<!-- Node0 -->
<g id="node1" class="node">
<title>Node0</title>
<polygon fill="#bfbfbf" stroke="#000000" points="0,-112.5 0,-164.5 137,-164.5 137,-112.5 0,-112.5"/>
<text text-anchor="start" x="8" y="-152.5" font-family="Helvetica,sans-Serif" font-size="10.00" fill="#000000">/home/runner/work/AliceO2</text>
<text text-anchor="start" x="8" y="-141.5" font-family="Helvetica,sans-Serif" font-size="10.00" fill="#000000">/AliceO2/Detectors/MUON</text>
<text text-anchor="start" x="8" y="-130.5" font-family="Helvetica,sans-Serif" font-size="10.00" fill="#000000">/MID/Raw/include/MIDRaw</text>
<text text-anchor="middle" x="68.5" y="-119.5" font-family="Helvetica,sans-Serif" font-size="10.00" fill="#000000">/CrateMasks.h</text>
</g>
<!-- Node1 -->
<g id="node2" class="node">
<title>Node1</title>
<polygon fill="none" stroke="#bfbfbf" points="10.5,-.5 10.5,-19.5 56.5,-19.5 56.5,-.5 10.5,-.5"/>
<text text-anchor="middle" x="33.5" y="-7.5" font-family="Helvetica,sans-Serif" font-size="10.00" fill="#000000">cstdint</text>
</g>
<!-- Node0&#45;&gt;Node1 -->
<g id="edge1" class="edge">
<title>Node0&#45;&gt;Node1</title>
<path fill="none" stroke="#191970" d="M35.3025,-112.3015C25.0158,-102.1852 14.9561,-89.728 9.5,-76 3.1337,-59.9818 11.1183,-41.5271 19.545,-28.2123"/>
<polygon fill="#191970" stroke="#191970" points="22.4767,-30.1262 25.2785,-19.9086 16.7164,-26.1489 22.4767,-30.1262"/>
</g>
<!-- Node2 -->
<g id="node3" class="node">
<title>Node2</title>
<polygon fill="none" stroke="#bfbfbf" points="83.5,-.5 83.5,-19.5 121.5,-19.5 121.5,-.5 83.5,-.5"/>
<text text-anchor="middle" x="102.5" y="-7.5" font-family="Helvetica,sans-Serif" font-size="10.00" fill="#000000">array</text>
</g>
<!-- Node0&#45;&gt;Node2 -->
<g id="edge2" class="edge">
<title>Node0&#45;&gt;Node2</title>
<path fill="none" stroke="#191970" d="M101.6975,-112.3015C111.9842,-102.1852 122.0439,-89.728 127.5,-76 133.8979,-59.9024 125.605,-41.4561 116.8959,-28.1645"/>
<polygon fill="#191970" stroke="#191970" points="119.6369,-25.9803 110.9755,-19.8785 113.9413,-30.0498 119.6369,-25.9803"/>
</g>
<!-- Node3 -->
<g id="node4" class="node">
<title>Node3</title>
<g id="a_node4"><a xlink:href="../../d2/da5/CrateParameters_8h.html" target="_top" xlink:title="MID RO crate parameters. ">
<polygon fill="none" stroke="#000000" points="19,-56.5 19,-75.5 118,-75.5 118,-56.5 19,-56.5"/>
<text text-anchor="middle" x="68.5" y="-63.5" font-family="Helvetica,sans-Serif" font-size="10.00" fill="#000000">CrateParameters.h</text>
</a>
</g>
</g>
<!-- Node0&#45;&gt;Node3 -->
<g id="edge3" class="edge">
<title>Node0&#45;&gt;Node3</title>
<path fill="none" stroke="#191970" d="M68.5,-112.3258C68.5,-103.5142 68.5,-93.8397 68.5,-85.621"/>
<polygon fill="#191970" stroke="#191970" points="72.0001,-85.534 68.5,-75.534 65.0001,-85.534 72.0001,-85.534"/>
</g>
<!-- Node3&#45;&gt;Node1 -->
<g id="edge4" class="edge">
<title>Node3&#45;&gt;Node1</title>
<path fill="none" stroke="#191970" d="M62.4035,-56.2455C57.5855,-48.5367 50.7249,-37.5598 44.8968,-28.2348"/>
<polygon fill="#191970" stroke="#191970" points="47.7947,-26.2677 39.5267,-19.6427 41.8587,-29.9777 47.7947,-26.2677"/>
</g>
<!-- Node3&#45;&gt;Node2 -->
<g id="edge5" class="edge">
<title>Node3&#45;&gt;Node2</title>
<path fill="none" stroke="#191970" d="M74.4223,-56.2455C79.1027,-48.5367 85.7673,-37.5598 91.4289,-28.2348"/>
<polygon fill="#191970" stroke="#191970" points="94.4475,-30.007 96.6455,-19.6427 88.4639,-26.3741 94.4475,-30.007"/>
</g>
</g>
</svg>
