<?xml version="1.0" encoding="UTF-8" standalone="no"?>
<!DOCTYPE svg PUBLIC "-//W3C//DTD SVG 1.1//EN"
 "http://www.w3.org/Graphics/SVG/1.1/DTD/svg11.dtd">
<!-- Generated by graphviz version 2.40.1 (20161225.0304)
 -->
<!-- Title: /home/runner/work/AliceO2/AliceO2/DataFormats/Detectors/FIT/FDD/include/DataFormatsFDD/MCLabel.h Pages: 1 -->
<svg width="1099pt" height="239pt"
 viewBox="0.00 0.00 1099.00 239.00" xmlns="http://www.w3.org/2000/svg" xmlns:xlink="http://www.w3.org/1999/xlink">
<g id="graph0" class="graph" transform="scale(1 1) rotate(0) translate(4 235)">
<title>/home/runner/work/AliceO2/AliceO2/DataFormats/Detectors/FIT/FDD/include/DataFormatsFDD/MCLabel.h</title>
<!-- Node4 -->
<g id="node1" class="node">
<title>Node4</title>
<polygon fill="#bfbfbf" stroke="#000000" points="510.5,-178.5 510.5,-230.5 683.5,-230.5 683.5,-178.5 510.5,-178.5"/>
<text text-anchor="start" x="518.5" y="-218.5" font-family="Helvetica,sans-Serif" font-size="10.00" fill="#000000">/home/runner/work/AliceO2</text>
<text text-anchor="start" x="518.5" y="-207.5" font-family="Helvetica,sans-Serif" font-size="10.00" fill="#000000">/AliceO2/DataFormats/Detectors</text>
<text text-anchor="start" x="518.5" y="-196.5" font-family="Helvetica,sans-Serif" font-size="10.00" fill="#000000">/FIT/FDD/include/DataFormatsFDD</text>
<text text-anchor="middle" x="597" y="-185.5" font-family="Helvetica,sans-Serif" font-size="10.00" fill="#000000">/MCLabel.h</text>
</g>
<!-- Node5 -->
<g id="node2" class="node">
<title>Node5</title>
<g id="a_node2"><a xlink:href="../../d3/d51/FIT_2FDD_2simulation_2include_2FDDSimulation_2Digitizer_8h.html" target="_top" xlink:title="/home/runner/work/AliceO2\l/AliceO2/Detectors/FIT\l/FDD/simulation/include\l/FDDSimulation/Digitizer.h">
<polygon fill="none" stroke="#000000" points="193.5,-89.5 193.5,-141.5 328.5,-141.5 328.5,-89.5 193.5,-89.5"/>
<text text-anchor="start" x="201.5" y="-129.5" font-family="Helvetica,sans-Serif" font-size="10.00" fill="#000000">/home/runner/work/AliceO2</text>
<text text-anchor="start" x="201.5" y="-118.5" font-family="Helvetica,sans-Serif" font-size="10.00" fill="#000000">/AliceO2/Detectors/FIT</text>
<text text-anchor="start" x="201.5" y="-107.5" font-family="Helvetica,sans-Serif" font-size="10.00" fill="#000000">/FDD/simulation/include</text>
<text text-anchor="middle" x="261" y="-96.5" font-family="Helvetica,sans-Serif" font-size="10.00" fill="#000000">/FDDSimulation/Digitizer.h</text>
</a>
</g>
</g>
<!-- Node4&#45;&gt;Node5 -->
<g id="edge1" class="edge">
<title>Node4&#45;&gt;Node5</title>
<path fill="none" stroke="#191970" d="M500.7071,-178.9938C445.702,-164.424 378.0724,-146.5102 328.6882,-133.4293"/>
<polygon fill="#191970" stroke="#191970" points="499.9088,-182.403 510.4717,-181.5803 501.7012,-175.6364 499.9088,-182.403"/>
</g>
<!-- Node7 -->
<g id="node4" class="node">
<title>Node7</title>
<g id="a_node4"><a xlink:href="../../d2/d97/FDDDigitizerSpec_8cxx.html" target="_top" xlink:title="/home/runner/work/AliceO2\l/AliceO2/Steer/DigitizerWorkflow\l/src/FDDDigitizerSpec.cxx">
<polygon fill="none" stroke="#000000" points="180.5,-6 180.5,-47 341.5,-47 341.5,-6 180.5,-6"/>
<text text-anchor="start" x="188.5" y="-35" font-family="Helvetica,sans-Serif" font-size="10.00" fill="#000000">/home/runner/work/AliceO2</text>
<text text-anchor="start" x="188.5" y="-24" font-family="Helvetica,sans-Serif" font-size="10.00" fill="#000000">/AliceO2/Steer/DigitizerWorkflow</text>
<text text-anchor="middle" x="261" y="-13" font-family="Helvetica,sans-Serif" font-size="10.00" fill="#000000">/src/FDDDigitizerSpec.cxx</text>
</a>
</g>
</g>
<!-- Node4&#45;&gt;Node7 -->
<g id="edge9" class="edge">
<title>Node4&#45;&gt;Node7</title>
<path fill="none" stroke="#191970" d="M538.8331,-173.6854C470.3788,-137.4209 358.6152,-78.2128 299.8762,-47.0951"/>
<polygon fill="#191970" stroke="#191970" points="537.3078,-176.8381 547.7829,-178.4266 540.5847,-170.6525 537.3078,-176.8381"/>
</g>
<!-- Node8 -->
<g id="node5" class="node">
<title>Node8</title>
<g id="a_node5"><a xlink:href="../../dd/d24/FIT_2FDD_2workflow_2include_2FDDWorkflow_2DigitReaderSpec_8h.html" target="_top" xlink:title="/home/runner/work/AliceO2\l/AliceO2/Detectors/FIT\l/FDD/workflow/include/FDDWorkflow\l/DigitReaderSpec.h">
<polygon fill="none" stroke="#000000" points="506,-89.5 506,-141.5 688,-141.5 688,-89.5 506,-89.5"/>
<text text-anchor="start" x="514" y="-129.5" font-family="Helvetica,sans-Serif" font-size="10.00" fill="#000000">/home/runner/work/AliceO2</text>
<text text-anchor="start" x="514" y="-118.5" font-family="Helvetica,sans-Serif" font-size="10.00" fill="#000000">/AliceO2/Detectors/FIT</text>
<text text-anchor="start" x="514" y="-107.5" font-family="Helvetica,sans-Serif" font-size="10.00" fill="#000000">/FDD/workflow/include/FDDWorkflow</text>
<text text-anchor="middle" x="597" y="-96.5" font-family="Helvetica,sans-Serif" font-size="10.00" fill="#000000">/DigitReaderSpec.h</text>
</a>
</g>
</g>
<!-- Node4&#45;&gt;Node8 -->
<g id="edge4" class="edge">
<title>Node4&#45;&gt;Node8</title>
<path fill="none" stroke="#191970" d="M597,-168.1155C597,-159.2061 597,-149.8475 597,-141.5341"/>
<polygon fill="#191970" stroke="#191970" points="593.5001,-168.2784 597,-178.2784 600.5001,-168.2785 593.5001,-168.2784"/>
</g>
<!-- Node12 -->
<g id="node9" class="node">
<title>Node12</title>
<g id="a_node9"><a xlink:href="../../d3/db6/ReconstructorSpec_8cxx.html" target="_top" xlink:title="/home/runner/work/AliceO2\l/AliceO2/Detectors/FIT\l/FDD/workflow/src/Reconstructor\lSpec.cxx">
<polygon fill="none" stroke="#000000" points="706,-89.5 706,-141.5 870,-141.5 870,-89.5 706,-89.5"/>
<text text-anchor="start" x="714" y="-129.5" font-family="Helvetica,sans-Serif" font-size="10.00" fill="#000000">/home/runner/work/AliceO2</text>
<text text-anchor="start" x="714" y="-118.5" font-family="Helvetica,sans-Serif" font-size="10.00" fill="#000000">/AliceO2/Detectors/FIT</text>
<text text-anchor="start" x="714" y="-107.5" font-family="Helvetica,sans-Serif" font-size="10.00" fill="#000000">/FDD/workflow/src/Reconstructor</text>
<text text-anchor="middle" x="788" y="-96.5" font-family="Helvetica,sans-Serif" font-size="10.00" fill="#000000">Spec.cxx</text>
</a>
</g>
</g>
<!-- Node4&#45;&gt;Node12 -->
<g id="edge8" class="edge">
<title>Node4&#45;&gt;Node12</title>
<path fill="none" stroke="#191970" d="M662.2286,-174.1055C684.9048,-163.5391 710.1208,-151.7893 731.9853,-141.6011"/>
<polygon fill="#191970" stroke="#191970" points="660.6017,-171.0022 653.0157,-178.3984 663.5583,-177.3472 660.6017,-171.0022"/>
</g>
<!-- Node13 -->
<g id="node10" class="node">
<title>Node13</title>
<g id="a_node10"><a xlink:href="../../d8/dcd/FDDDigitWriterSpec_8h.html" target="_top" xlink:title="/home/runner/work/AliceO2\l/AliceO2/Steer/DigitizerWorkflow\l/src/FDDDigitWriterSpec.h">
<polygon fill="none" stroke="#000000" points="908.5,-95 908.5,-136 1069.5,-136 1069.5,-95 908.5,-95"/>
<text text-anchor="start" x="916.5" y="-124" font-family="Helvetica,sans-Serif" font-size="10.00" fill="#000000">/home/runner/work/AliceO2</text>
<text text-anchor="start" x="916.5" y="-113" font-family="Helvetica,sans-Serif" font-size="10.00" fill="#000000">/AliceO2/Steer/DigitizerWorkflow</text>
<text text-anchor="middle" x="989" y="-102" font-family="Helvetica,sans-Serif" font-size="10.00" fill="#000000">/src/FDDDigitWriterSpec.h</text>
</a>
</g>
</g>
<!-- Node4&#45;&gt;Node13 -->
<g id="edge10" class="edge">
<title>Node4&#45;&gt;Node13</title>
<path fill="none" stroke="#191970" d="M693.7932,-183.506C748.2598,-171.5775 817.4826,-156.2259 879,-142 888.4736,-139.8092 898.3962,-137.4749 908.24,-135.1344"/>
<polygon fill="#191970" stroke="#191970" points="692.8209,-180.1358 683.8,-185.6924 694.3171,-186.9741 692.8209,-180.1358"/>
</g>
<!-- Node6 -->
<g id="node3" class="node">
<title>Node6</title>
<g id="a_node3"><a xlink:href="../../d0/d8c/FIT_2FDD_2simulation_2src_2Digitizer_8cxx.html" target="_top" xlink:title="/home/runner/work/AliceO2\l/AliceO2/Detectors/FIT\l/FDD/simulation/src/Digitizer.cxx">
<polygon fill="none" stroke="#000000" points="0,-6 0,-47 162,-47 162,-6 0,-6"/>
<text text-anchor="start" x="8" y="-35" font-family="Helvetica,sans-Serif" font-size="10.00" fill="#000000">/home/runner/work/AliceO2</text>
<text text-anchor="start" x="8" y="-24" font-family="Helvetica,sans-Serif" font-size="10.00" fill="#000000">/AliceO2/Detectors/FIT</text>
<text text-anchor="middle" x="81" y="-13" font-family="Helvetica,sans-Serif" font-size="10.00" fill="#000000">/FDD/simulation/src/Digitizer.cxx</text>
</a>
</g>
</g>
<!-- Node5&#45;&gt;Node6 -->
<g id="edge2" class="edge">
<title>Node5&#45;&gt;Node6</title>
<path fill="none" stroke="#191970" d="M198.8385,-84.7646C173.6165,-72.2937 145.159,-58.2231 122.5287,-47.0336"/>
<polygon fill="#191970" stroke="#191970" points="197.4522,-87.9836 207.9676,-89.2784 200.5548,-81.7087 197.4522,-87.9836"/>
</g>
<!-- Node5&#45;&gt;Node7 -->
<g id="edge3" class="edge">
<title>Node5&#45;&gt;Node7</title>
<path fill="none" stroke="#191970" d="M261,-79.1335C261,-68.2443 261,-56.6825 261,-47.1771"/>
<polygon fill="#191970" stroke="#191970" points="257.5001,-79.2784 261,-89.2784 264.5001,-79.2785 257.5001,-79.2784"/>
</g>
<!-- Node9 -->
<g id="node6" class="node">
<title>Node9</title>
<g id="a_node6"><a xlink:href="../../dc/d21/FIT_2FDD_2workflow_2src_2DigitReaderSpec_8cxx.html" target="_top" xlink:title="/home/runner/work/AliceO2\l/AliceO2/Detectors/FIT\l/FDD/workflow/src/DigitReaderSpec.cxx">
<polygon fill="none" stroke="#000000" points="359.5,-6 359.5,-47 554.5,-47 554.5,-6 359.5,-6"/>
<text text-anchor="start" x="367.5" y="-35" font-family="Helvetica,sans-Serif" font-size="10.00" fill="#000000">/home/runner/work/AliceO2</text>
<text text-anchor="start" x="367.5" y="-24" font-family="Helvetica,sans-Serif" font-size="10.00" fill="#000000">/AliceO2/Detectors/FIT</text>
<text text-anchor="middle" x="457" y="-13" font-family="Helvetica,sans-Serif" font-size="10.00" fill="#000000">/FDD/workflow/src/DigitReaderSpec.cxx</text>
</a>
</g>
</g>
<!-- Node8&#45;&gt;Node9 -->
<g id="edge5" class="edge">
<title>Node8&#45;&gt;Node9</title>
<path fill="none" stroke="#191970" d="M547.1319,-83.7981C527.9825,-71.6246 506.6362,-58.0544 489.5258,-47.1771"/>
<polygon fill="#191970" stroke="#191970" points="545.4358,-86.8672 555.7526,-89.2784 549.1912,-80.9598 545.4358,-86.8672"/>
</g>
<!-- Node10 -->
<g id="node7" class="node">
<title>Node10</title>
<g id="a_node7"><a xlink:href="../../d7/d01/FIT_2FDD_2workflow_2src_2digits-reader-workflow_8cxx.html" target="_top" xlink:title="/home/runner/work/AliceO2\l/AliceO2/Detectors/FIT\l/FDD/workflow/src/digits\l&#45;reader&#45;workflow.cxx">
<polygon fill="none" stroke="#000000" points="572.5,-.5 572.5,-52.5 707.5,-52.5 707.5,-.5 572.5,-.5"/>
<text text-anchor="start" x="580.5" y="-40.5" font-family="Helvetica,sans-Serif" font-size="10.00" fill="#000000">/home/runner/work/AliceO2</text>
<text text-anchor="start" x="580.5" y="-29.5" font-family="Helvetica,sans-Serif" font-size="10.00" fill="#000000">/AliceO2/Detectors/FIT</text>
<text text-anchor="start" x="580.5" y="-18.5" font-family="Helvetica,sans-Serif" font-size="10.00" fill="#000000">/FDD/workflow/src/digits</text>
<text text-anchor="middle" x="640" y="-7.5" font-family="Helvetica,sans-Serif" font-size="10.00" fill="#000000">&#45;reader&#45;workflow.cxx</text>
</a>
</g>
</g>
<!-- Node8&#45;&gt;Node10 -->
<g id="edge6" class="edge">
<title>Node8&#45;&gt;Node10</title>
<path fill="none" stroke="#191970" d="M614.1587,-79.9856C618.5881,-70.8176 623.2742,-61.1186 627.4217,-52.5341"/>
<polygon fill="#191970" stroke="#191970" points="610.8678,-78.7516 609.6688,-89.2784 617.1707,-81.7969 610.8678,-78.7516"/>
</g>
<!-- Node11 -->
<g id="node8" class="node">
<title>Node11</title>
<g id="a_node8"><a xlink:href="../../d6/d61/FIT_2FDD_2workflow_2src_2RecoWorkflow_8cxx.html" target="_top" xlink:title="/home/runner/work/AliceO2\l/AliceO2/Detectors/FIT\l/FDD/workflow/src/RecoWorkflow.cxx">
<polygon fill="none" stroke="#000000" points="725.5,-6 725.5,-47 910.5,-47 910.5,-6 725.5,-6"/>
<text text-anchor="start" x="733.5" y="-35" font-family="Helvetica,sans-Serif" font-size="10.00" fill="#000000">/home/runner/work/AliceO2</text>
<text text-anchor="start" x="733.5" y="-24" font-family="Helvetica,sans-Serif" font-size="10.00" fill="#000000">/AliceO2/Detectors/FIT</text>
<text text-anchor="middle" x="818" y="-13" font-family="Helvetica,sans-Serif" font-size="10.00" fill="#000000">/FDD/workflow/src/RecoWorkflow.cxx</text>
</a>
</g>
</g>
<!-- Node8&#45;&gt;Node11 -->
<g id="edge7" class="edge">
<title>Node8&#45;&gt;Node11</title>
<path fill="none" stroke="#191970" d="M671.4013,-85.5375C702.787,-72.898 738.5377,-58.5007 766.8768,-47.0881"/>
<polygon fill="#191970" stroke="#191970" points="669.7826,-82.4161 661.814,-89.3984 672.3976,-88.9094 669.7826,-82.4161"/>
</g>
<!-- Node14 -->
<g id="node11" class="node">
<title>Node14</title>
<g id="a_node11"><a xlink:href="../../d2/dd7/SimpleDigitizerWorkflow_8cxx.html" target="_top" xlink:title="/home/runner/work/AliceO2\l/AliceO2/Steer/DigitizerWorkflow\l/src/SimpleDigitizerWorkflow.cxx">
<polygon fill="none" stroke="#000000" points="929,-6 929,-47 1091,-47 1091,-6 929,-6"/>
<text text-anchor="start" x="937" y="-35" font-family="Helvetica,sans-Serif" font-size="10.00" fill="#000000">/home/runner/work/AliceO2</text>
<text text-anchor="start" x="937" y="-24" font-family="Helvetica,sans-Serif" font-size="10.00" fill="#000000">/AliceO2/Steer/DigitizerWorkflow</text>
<text text-anchor="middle" x="1010" y="-13" font-family="Helvetica,sans-Serif" font-size="10.00" fill="#000000">/src/SimpleDigitizerWorkflow.cxx</text>
</a>
</g>
</g>
<!-- Node13&#45;&gt;Node14 -->
<g id="edge11" class="edge">
<title>Node13&#45;&gt;Node14</title>
<path fill="none" stroke="#191970" d="M996.2334,-84.844C999.1809,-72.3522 1002.5099,-58.2439 1005.1558,-47.0301"/>
<polygon fill="#191970" stroke="#191970" points="992.7607,-84.3214 993.8706,-94.8579 999.5736,-85.929 992.7607,-84.3214"/>
</g>
</g>
</svg>
