<?xml version="1.0" encoding="UTF-8" standalone="no"?>
<!DOCTYPE svg PUBLIC "-//W3C//DTD SVG 1.1//EN"
 "http://www.w3.org/Graphics/SVG/1.1/DTD/svg11.dtd">
<!-- Generated by graphviz version 2.40.1 (20161225.0304)
 -->
<!-- Title: AliHLTHOMERWriter::AliHLTHOMERWriterAlignment16TestStructure Pages: 1 -->
<svg width="343pt" height="237pt"
 viewBox="0.00 0.00 343.00 237.00" xmlns="http://www.w3.org/2000/svg" xmlns:xlink="http://www.w3.org/1999/xlink">
<g id="graph0" class="graph" transform="scale(1 1) rotate(0) translate(4 233)">
<title>AliHLTHOMERWriter::AliHLTHOMERWriterAlignment16TestStructure</title>
<!-- Node1 -->
<g id="node1" class="node">
<title>Node1</title>
<polygon fill="#bfbfbf" stroke="#000000" points="80.5,-.5 80.5,-79.5 244.5,-79.5 244.5,-.5 80.5,-.5"/>
<text text-anchor="start" x="88.5" y="-67.5" font-family="Helvetica,sans-Serif" font-size="10.00" fill="#000000">AliHLTHOMERWriter::</text>
<text text-anchor="start" x="88.5" y="-56.5" font-family="Helvetica,sans-Serif" font-size="10.00" fill="#000000">AliHLTHOMERWriterAlignment16</text>
<text text-anchor="middle" x="162.5" y="-45.5" font-family="Helvetica,sans-Serif" font-size="10.00" fill="#000000">TestStructure</text>
<polyline fill="none" stroke="#000000" points="80.5,-38.5 244.5,-38.5 "/>
<text text-anchor="middle" x="162.5" y="-26.5" font-family="Helvetica,sans-Serif" font-size="10.00" fill="#000000"> </text>
<polyline fill="none" stroke="#000000" points="80.5,-19.5 244.5,-19.5 "/>
<text text-anchor="middle" x="162.5" y="-7.5" font-family="Helvetica,sans-Serif" font-size="10.00" fill="#000000"> </text>
</g>
<!-- Node2 -->
<g id="node2" class="node">
<title>Node2</title>
<polygon fill="none" stroke="#bfbfbf" points="0,-171.5 0,-228.5 75,-228.5 75,-171.5 0,-171.5"/>
<text text-anchor="middle" x="37.5" y="-216.5" font-family="Helvetica,sans-Serif" font-size="10.00" fill="#000000">homer_uint16</text>
<polyline fill="none" stroke="#bfbfbf" points="0,-209.5 75,-209.5 "/>
<text text-anchor="middle" x="37.5" y="-197.5" font-family="Helvetica,sans-Serif" font-size="10.00" fill="#000000"> </text>
<polyline fill="none" stroke="#bfbfbf" points="0,-190.5 75,-190.5 "/>
<text text-anchor="middle" x="37.5" y="-178.5" font-family="Helvetica,sans-Serif" font-size="10.00" fill="#000000"> </text>
</g>
<!-- Node2&#45;&gt;Node1 -->
<g id="edge1" class="edge">
<title>Node2&#45;&gt;Node1</title>
<path fill="none" stroke="#404040" d="M43.1436,-171.2168C48.5586,-149.3526 58.4906,-119.4826 75.5,-98 78.2538,-94.5221 81.2745,-91.1796 84.4863,-87.9785"/>
<polygon fill="none" stroke="#404040" points="84.5287,-87.9397 86.2549,-80.9382 93.3818,-79.8389 91.6555,-86.8403 84.5287,-87.9397"/>
<text text-anchor="middle" x="102" y="-145" font-family="Helvetica,sans-Serif" font-size="10.00" fill="#000000"> +f16Test32</text>
<text text-anchor="middle" x="102" y="-134" font-family="Helvetica,sans-Serif" font-size="10.00" fill="#000000">+f16Test16</text>
<text text-anchor="middle" x="102" y="-123" font-family="Helvetica,sans-Serif" font-size="10.00" fill="#000000">+f16Fill</text>
<text text-anchor="middle" x="102" y="-112" font-family="Helvetica,sans-Serif" font-size="10.00" fill="#000000">+f16Test8</text>
<text text-anchor="middle" x="102" y="-101" font-family="Helvetica,sans-Serif" font-size="10.00" fill="#000000">+f16Test64</text>
</g>
<!-- Node3 -->
<g id="node3" class="node">
<title>Node3</title>
<polygon fill="none" stroke="#bfbfbf" points="92.5,-171.5 92.5,-228.5 148.5,-228.5 148.5,-171.5 92.5,-171.5"/>
<text text-anchor="middle" x="120.5" y="-216.5" font-family="Helvetica,sans-Serif" font-size="10.00" fill="#000000">unsigned</text>
<polyline fill="none" stroke="#bfbfbf" points="92.5,-209.5 148.5,-209.5 "/>
<text text-anchor="middle" x="120.5" y="-197.5" font-family="Helvetica,sans-Serif" font-size="10.00" fill="#000000"> </text>
<polyline fill="none" stroke="#bfbfbf" points="92.5,-190.5 148.5,-190.5 "/>
<text text-anchor="middle" x="120.5" y="-178.5" font-family="Helvetica,sans-Serif" font-size="10.00" fill="#000000"> </text>
</g>
<!-- Node3&#45;&gt;Node1 -->
<g id="edge2" class="edge">
<title>Node3&#45;&gt;Node1</title>
<path fill="none" stroke="#404040" d="M128.0088,-171.3952C133.8198,-149.258 142.0209,-118.0155 148.9683,-91.5495"/>
<polygon fill="none" stroke="#404040" points="149.0121,-91.3822 146.6666,-84.5632 152.059,-79.7754 154.4044,-86.5944 149.0121,-91.3822"/>
<text text-anchor="middle" x="161" y="-123" font-family="Helvetica,sans-Serif" font-size="10.00" fill="#000000"> +f8Fill</text>
</g>
<!-- Node4 -->
<g id="node4" class="node">
<title>Node4</title>
<polygon fill="none" stroke="#bfbfbf" points="167,-171.5 167,-228.5 242,-228.5 242,-171.5 167,-171.5"/>
<text text-anchor="middle" x="204.5" y="-216.5" font-family="Helvetica,sans-Serif" font-size="10.00" fill="#000000">homer_uint64</text>
<polyline fill="none" stroke="#bfbfbf" points="167,-209.5 242,-209.5 "/>
<text text-anchor="middle" x="204.5" y="-197.5" font-family="Helvetica,sans-Serif" font-size="10.00" fill="#000000"> </text>
<polyline fill="none" stroke="#bfbfbf" points="167,-190.5 242,-190.5 "/>
<text text-anchor="middle" x="204.5" y="-178.5" font-family="Helvetica,sans-Serif" font-size="10.00" fill="#000000"> </text>
</g>
<!-- Node4&#45;&gt;Node1 -->
<g id="edge3" class="edge">
<title>Node4&#45;&gt;Node1</title>
<path fill="none" stroke="#404040" d="M198.3066,-171.287C193.7453,-150.7746 187.1952,-122.5729 180.5,-98 179.8868,-95.7494 179.2451,-93.4545 178.5845,-91.1399"/>
<polygon fill="none" stroke="#404040" points="178.5518,-91.0285 173.022,-86.4002 175.1674,-79.5156 180.6972,-84.1439 178.5518,-91.0285"/>
<text text-anchor="middle" x="211.5" y="-123" font-family="Helvetica,sans-Serif" font-size="10.00" fill="#000000"> +f64Fill</text>
</g>
<!-- Node5 -->
<g id="node5" class="node">
<title>Node5</title>
<polygon fill="none" stroke="#bfbfbf" points="260,-171.5 260,-228.5 335,-228.5 335,-171.5 260,-171.5"/>
<text text-anchor="middle" x="297.5" y="-216.5" font-family="Helvetica,sans-Serif" font-size="10.00" fill="#000000">homer_uint32</text>
<polyline fill="none" stroke="#bfbfbf" points="260,-209.5 335,-209.5 "/>
<text text-anchor="middle" x="297.5" y="-197.5" font-family="Helvetica,sans-Serif" font-size="10.00" fill="#000000"> </text>
<polyline fill="none" stroke="#bfbfbf" points="260,-190.5 335,-190.5 "/>
<text text-anchor="middle" x="297.5" y="-178.5" font-family="Helvetica,sans-Serif" font-size="10.00" fill="#000000"> </text>
</g>
<!-- Node5&#45;&gt;Node1 -->
<g id="edge4" class="edge">
<title>Node5&#45;&gt;Node1</title>
<path fill="none" stroke="#404040" d="M282.9072,-171.4733C271.1801,-150.0229 253.4201,-120.5708 233.5,-98 230.5346,-94.64 227.3626,-91.3174 224.0653,-88.0648"/>
<polygon fill="none" stroke="#404040" points="223.8453,-87.8581 216.7337,-86.6641 215.1006,-79.6404 222.2122,-80.8343 223.8453,-87.8581"/>
<text text-anchor="middle" x="288.5" y="-123" font-family="Helvetica,sans-Serif" font-size="10.00" fill="#000000"> +f32Fill</text>
</g>
</g>
</svg>
