<?xml version="1.0" encoding="UTF-8" standalone="no"?>
<!DOCTYPE svg PUBLIC "-//W3C//DTD SVG 1.1//EN"
 "http://www.w3.org/Graphics/SVG/1.1/DTD/svg11.dtd">
<!-- Generated by graphviz version 2.40.1 (20161225.0304)
 -->
<!-- Title: /home/runner/work/AliceO2/AliceO2/GPU/GPUTracking/DataCompression/GPUTPCCompression.h Pages: 1 -->
<!--zoomable 498 -->
<svg id="main" version="1.1" xmlns="http://www.w3.org/2000/svg" xmlns:xlink="http://www.w3.org/1999/xlink" xml:space="preserve" onload="init(evt)">
<style type="text/css"><![CDATA[
.edge:hover path { stroke: red; }
.edge:hover polygon { stroke: red; fill: red; }
]]></style>
<script type="text/javascript"><![CDATA[
var edges = document.getElementsByTagName('g');
if (edges && edges.length) {
  for (var i=0;i<edges.length;i++) {
    if (edges[i].id.substr(0,4)=='edge') {
      edges[i].setAttribute('class','edge');
    }
  }
}
]]></script>
        <defs>
                <circle id="rim" cx="0" cy="0" r="7"/>
                <circle id="rim2" cx="0" cy="0" r="3.5"/>
                <g id="zoomPlus">
                        <use xlink:href="#rim" fill="#404040">
                                <set attributeName="fill" to="#808080" begin="zoomplus.mouseover" end="zoomplus.mouseout"/>
                        </use>
                        <path d="M-4,0h8M0,-4v8" fill="none" stroke="white" stroke-width="1.5" pointer-events="none"/>
                </g>
                <g id="zoomMin">
                        <use xlink:href="#rim" fill="#404040">
                                <set attributeName="fill" to="#808080" begin="zoomminus.mouseover" end="zoomminus.mouseout"/>
                        </use>
                        <path d="M-4,0h8" fill="none" stroke="white" stroke-width="1.5" pointer-events="none"/>
                </g>
                <g id="dirArrow">
                        <path fill="none" stroke="white" stroke-width="1.5" d="M0,-3.0v7 M-2.5,-0.5L0,-3.0L2.5,-0.5"/>
                </g>
               <g id="resetDef">
                       <use xlink:href="#rim2" fill="#404040">
                               <set attributeName="fill" to="#808080" begin="reset.mouseover" end="reset.mouseout"/>
                       </use>
               </g>
        </defs>

<script type="text/javascript">
var viewWidth = 1072;
var viewHeight = 498;
var sectionId = 'dynsection-0';
</script>
<script xlink:href="../../svgpan.js"/>
<svg id="graph" class="graph">
<g id="viewport">
<title>/home/runner/work/AliceO2/AliceO2/GPU/GPUTracking/DataCompression/GPUTPCCompression.h</title>
<!-- Node0 -->
<g id="node1" class="node">
<title>Node0</title>
<polygon fill="#bfbfbf" stroke="#000000" points="218,-448.5 218,-489.5 427,-489.5 427,-448.5 218,-448.5"/>
<text text-anchor="start" x="226" y="-477.5" font-family="Helvetica,sans-Serif" font-size="10.00" fill="#000000">/home/runner/work/AliceO2</text>
<text text-anchor="start" x="226" y="-466.5" font-family="Helvetica,sans-Serif" font-size="10.00" fill="#000000">/AliceO2/GPU/GPUTracking</text>
<text text-anchor="middle" x="322.5" y="-455.5" font-family="Helvetica,sans-Serif" font-size="10.00" fill="#000000">/DataCompression/GPUTPCCompression.h</text>
</g>
<!-- Node1 -->
<g id="node2" class="node">
<title>Node1</title>
<g id="a_node2"><a xlink:href="../../d2/d6d/GPUDef_8h.html" target="_top" xlink:title="GPUDef.h">
<polygon fill="none" stroke="#000000" points="380.5,-224.5 380.5,-243.5 442.5,-243.5 442.5,-224.5 380.5,-224.5"/>
<text text-anchor="middle" x="411.5" y="-231.5" font-family="Helvetica,sans-Serif" font-size="10.00" fill="#000000">GPUDef.h</text>
</a>
</g>
</g>
<!-- Node0&#45;&gt;Node1 -->
<g id="edge1" class="edge">
<title>Node0&#45;&gt;Node1</title>
<path fill="none" stroke="#191970" d="M326.6373,-448.3655C334.2479,-412.7663 352.3169,-338.0467 380.5,-280 385.257,-270.2025 391.861,-260.084 397.7517,-251.8403"/>
<polygon fill="#191970" stroke="#191970" points="400.6135,-253.8569 403.7427,-243.7347 394.9842,-249.6961 400.6135,-253.8569"/>
</g>
<!-- Node11 -->
<g id="node12" class="node">
<title>Node11</title>
<g id="a_node12"><a xlink:href="../../d6/d57/GPUProcessor_8h.html" target="_top" xlink:title="GPUProcessor.h">
<polygon fill="none" stroke="#000000" points="70,-336.5 70,-355.5 161,-355.5 161,-336.5 70,-336.5"/>
<text text-anchor="middle" x="115.5" y="-343.5" font-family="Helvetica,sans-Serif" font-size="10.00" fill="#000000">GPUProcessor.h</text>
</a>
</g>
</g>
<!-- Node0&#45;&gt;Node11 -->
<g id="edge12" class="edge">
<title>Node0&#45;&gt;Node11</title>
<path fill="none" stroke="#191970" d="M287.8529,-448.4126C246.2259,-423.6777 177.4044,-382.7838 140.5813,-360.9034"/>
<polygon fill="#191970" stroke="#191970" points="141.9031,-357.6176 131.5184,-355.5182 138.3273,-363.6354 141.9031,-357.6176"/>
</g>
<!-- Node14 -->
<g id="node15" class="node">
<title>Node14</title>
<g id="a_node15"><a xlink:href="../../d6/da2/GPUCommonMath_8h.html" target="_top" xlink:title="GPUCommonMath.h">
<polygon fill="none" stroke="#000000" points="207.5,-336.5 207.5,-355.5 315.5,-355.5 315.5,-336.5 207.5,-336.5"/>
<text text-anchor="middle" x="261.5" y="-343.5" font-family="Helvetica,sans-Serif" font-size="10.00" fill="#000000">GPUCommonMath.h</text>
</a>
</g>
</g>
<!-- Node0&#45;&gt;Node14 -->
<g id="edge17" class="edge">
<title>Node0&#45;&gt;Node14</title>
<path fill="none" stroke="#191970" d="M312.29,-448.4126C300.7017,-425.046 281.9617,-387.2587 270.7756,-364.7032"/>
<polygon fill="#191970" stroke="#191970" points="273.799,-362.9219 266.2204,-355.5182 267.5278,-366.032 273.799,-362.9219"/>
</g>
<!-- Node16 -->
<g id="node17" class="node">
<title>Node16</title>
<g id="a_node17"><a xlink:href="../../df/d13/GPUParam_8h.html" target="_top" xlink:title="GPUParam.h">
<polygon fill="none" stroke="#000000" points="514,-392.5 514,-411.5 589,-411.5 589,-392.5 514,-392.5"/>
<text text-anchor="middle" x="551.5" y="-399.5" font-family="Helvetica,sans-Serif" font-size="10.00" fill="#000000">GPUParam.h</text>
</a>
</g>
</g>
<!-- Node0&#45;&gt;Node16 -->
<g id="edge21" class="edge">
<title>Node0&#45;&gt;Node16</title>
<path fill="none" stroke="#191970" d="M392.7638,-448.4425C430.8918,-437.2871 476.753,-423.8692 509.3551,-414.3306"/>
<polygon fill="#191970" stroke="#191970" points="510.4093,-417.669 519.0241,-411.5017 508.4436,-410.9506 510.4093,-417.669"/>
</g>
<!-- Node2 -->
<g id="node3" class="node">
<title>Node2</title>
<g id="a_node3"><a xlink:href="../../df/d21/GPUCommonDef_8h.html" target="_top" xlink:title="GPUCommonDef.h">
<polygon fill="none" stroke="#000000" points="525.5,-56.5 525.5,-75.5 627.5,-75.5 627.5,-56.5 525.5,-56.5"/>
<text text-anchor="middle" x="576.5" y="-63.5" font-family="Helvetica,sans-Serif" font-size="10.00" fill="#000000">GPUCommonDef.h</text>
</a>
</g>
</g>
<!-- Node1&#45;&gt;Node2 -->
<g id="edge2" class="edge">
<title>Node1&#45;&gt;Node2</title>
<path fill="none" stroke="#191970" d="M380.2666,-232.1719C325.3175,-228.233 214.9378,-216.8453 191.5,-188 175.5576,-168.3794 191.5512,-127.4604 210.5,-112 233.6237,-93.1333 417.1206,-77.3532 515.1832,-70.1676"/>
<polygon fill="#191970" stroke="#191970" points="515.5416,-73.6509 525.2624,-69.4373 515.0356,-66.6692 515.5416,-73.6509"/>
</g>
<!-- Node5 -->
<g id="node6" class="node">
<title>Node5</title>
<g id="a_node6"><a xlink:href="../../d2/d37/GPUDefConstantsAndSettings_8h.html" target="_top" xlink:title="GPUDefConstantsAndSettings.h">
<polygon fill="none" stroke="#000000" points="605,-112.5 605,-131.5 766,-131.5 766,-112.5 605,-112.5"/>
<text text-anchor="middle" x="685.5" y="-119.5" font-family="Helvetica,sans-Serif" font-size="10.00" fill="#000000">GPUDefConstantsAndSettings.h</text>
</a>
</g>
</g>
<!-- Node1&#45;&gt;Node5 -->
<g id="edge5" class="edge">
<title>Node1&#45;&gt;Node5</title>
<path fill="none" stroke="#191970" d="M442.7502,-231.5331C500.4532,-226.4264 620.821,-213.0285 653.5,-188 668.3059,-176.6603 676.6443,-156.6947 681.0695,-141.6839"/>
<polygon fill="#191970" stroke="#191970" points="684.5041,-142.3829 683.6366,-131.8236 677.7299,-140.6192 684.5041,-142.3829"/>
</g>
<!-- Node6 -->
<g id="node7" class="node">
<title>Node6</title>
<g id="a_node7"><a xlink:href="../../dc/de9/GPUDefGPUParameters_8h.html" target="_top" xlink:title="GPUDefGPUParameters.h">
<polygon fill="none" stroke="#000000" points="200.5,-168.5 200.5,-187.5 334.5,-187.5 334.5,-168.5 200.5,-168.5"/>
<text text-anchor="middle" x="267.5" y="-175.5" font-family="Helvetica,sans-Serif" font-size="10.00" fill="#000000">GPUDefGPUParameters.h</text>
</a>
</g>
</g>
<!-- Node1&#45;&gt;Node6 -->
<g id="edge7" class="edge">
<title>Node1&#45;&gt;Node6</title>
<path fill="none" stroke="#191970" d="M386.7455,-224.3733C363.2151,-215.2226 327.6313,-201.3844 301.4574,-191.2057"/>
<polygon fill="#191970" stroke="#191970" points="302.5201,-187.8636 291.9315,-187.5011 299.9829,-194.3877 302.5201,-187.8636"/>
</g>
<!-- Node8 -->
<g id="node9" class="node">
<title>Node8</title>
<g id="a_node9"><a xlink:href="../../d3/d4c/GPUDefOpenCL12Templates_8h.html" target="_top" xlink:title="GPUDefOpenCL12Templates.h">
<polygon fill="none" stroke="#000000" points="489,-168.5 489,-187.5 644,-187.5 644,-168.5 489,-168.5"/>
<text text-anchor="middle" x="566.5" y="-175.5" font-family="Helvetica,sans-Serif" font-size="10.00" fill="#000000">GPUDefOpenCL12Templates.h</text>
</a>
</g>
</g>
<!-- Node1&#45;&gt;Node8 -->
<g id="edge9" class="edge">
<title>Node1&#45;&gt;Node8</title>
<path fill="none" stroke="#191970" d="M438.1454,-224.3733C463.6964,-215.1419 502.4512,-201.1402 530.6909,-190.9375"/>
<polygon fill="#191970" stroke="#191970" points="531.9865,-194.1909 540.2022,-187.5011 529.6079,-187.6074 531.9865,-194.1909"/>
</g>
<!-- Node9 -->
<g id="node10" class="node">
<title>Node9</title>
<g id="a_node10"><a xlink:href="../../d2/d45/GPUCommonRtypes_8h.html" target="_top" xlink:title="GPUCommonRtypes.h">
<polygon fill="none" stroke="#000000" points="352.5,-168.5 352.5,-187.5 470.5,-187.5 470.5,-168.5 352.5,-168.5"/>
<text text-anchor="middle" x="411.5" y="-175.5" font-family="Helvetica,sans-Serif" font-size="10.00" fill="#000000">GPUCommonRtypes.h</text>
</a>
</g>
</g>
<!-- Node1&#45;&gt;Node9 -->
<g id="edge10" class="edge">
<title>Node1&#45;&gt;Node9</title>
<path fill="none" stroke="#191970" d="M411.5,-224.2455C411.5,-216.9382 411.5,-206.6944 411.5,-197.7046"/>
<polygon fill="#191970" stroke="#191970" points="415.0001,-197.6426 411.5,-187.6427 408.0001,-197.6427 415.0001,-197.6426"/>
</g>
<!-- Node3 -->
<g id="node4" class="node">
<title>Node3</title>
<g id="a_node4"><a xlink:href="../../d5/d93/GPUCommonDefSettings_8h.html" target="_top" xlink:title="GPUCommonDefSettings.h">
<polygon fill="none" stroke="#000000" points="434.5,-.5 434.5,-19.5 572.5,-19.5 572.5,-.5 434.5,-.5"/>
<text text-anchor="middle" x="503.5" y="-7.5" font-family="Helvetica,sans-Serif" font-size="10.00" fill="#000000">GPUCommonDefSettings.h</text>
</a>
</g>
</g>
<!-- Node2&#45;&gt;Node3 -->
<g id="edge3" class="edge">
<title>Node2&#45;&gt;Node3</title>
<path fill="none" stroke="#191970" d="M563.7844,-56.2455C552.898,-47.8943 537.0117,-35.7076 524.28,-25.9408"/>
<polygon fill="#191970" stroke="#191970" points="526.1346,-22.9523 516.0699,-19.6427 521.8739,-28.5063 526.1346,-22.9523"/>
</g>
<!-- Node4 -->
<g id="node5" class="node">
<title>Node4</title>
<g id="a_node5"><a xlink:href="../../da/d5a/GPUCommonDefAPI_8h.html" target="_top" xlink:title="GPUCommonDefAPI.h">
<polygon fill="none" stroke="#000000" points="591,-.5 591,-19.5 710,-19.5 710,-.5 591,-.5"/>
<text text-anchor="middle" x="650.5" y="-7.5" font-family="Helvetica,sans-Serif" font-size="10.00" fill="#000000">GPUCommonDefAPI.h</text>
</a>
</g>
</g>
<!-- Node2&#45;&gt;Node4 -->
<g id="edge4" class="edge">
<title>Node2&#45;&gt;Node4</title>
<path fill="none" stroke="#191970" d="M589.3898,-56.2455C600.4254,-47.8943 616.5292,-35.7076 629.4353,-25.9408"/>
<polygon fill="#191970" stroke="#191970" points="631.8959,-28.4681 637.7579,-19.6427 627.6717,-22.8862 631.8959,-28.4681"/>
</g>
<!-- Node5&#45;&gt;Node2 -->
<g id="edge6" class="edge">
<title>Node5&#45;&gt;Node2</title>
<path fill="none" stroke="#191970" d="M666.5136,-112.2455C649.3208,-103.4125 623.7762,-90.2887 604.2868,-80.2758"/>
<polygon fill="#191970" stroke="#191970" points="605.763,-77.0993 595.2688,-75.6427 602.5641,-83.3257 605.763,-77.0993"/>
</g>
<!-- Node7 -->
<g id="node8" class="node">
<title>Node7</title>
<g id="a_node8"><a xlink:href="../../d6/dff/GPUDefMacros_8h.html" target="_top" xlink:title="GPUDefMacros.h">
<polygon fill="none" stroke="#000000" points="220,-112.5 220,-131.5 315,-131.5 315,-112.5 220,-112.5"/>
<text text-anchor="middle" x="267.5" y="-119.5" font-family="Helvetica,sans-Serif" font-size="10.00" fill="#000000">GPUDefMacros.h</text>
</a>
</g>
</g>
<!-- Node6&#45;&gt;Node7 -->
<g id="edge8" class="edge">
<title>Node6&#45;&gt;Node7</title>
<path fill="none" stroke="#191970" d="M267.5,-168.2455C267.5,-160.9382 267.5,-150.6944 267.5,-141.7046"/>
<polygon fill="#191970" stroke="#191970" points="271.0001,-141.6426 267.5,-131.6427 264.0001,-141.6427 271.0001,-141.6426"/>
</g>
<!-- Node10 -->
<g id="node11" class="node">
<title>Node10</title>
<polygon fill="none" stroke="#bfbfbf" points="383.5,-112.5 383.5,-131.5 439.5,-131.5 439.5,-112.5 383.5,-112.5"/>
<text text-anchor="middle" x="411.5" y="-119.5" font-family="Helvetica,sans-Serif" font-size="10.00" fill="#000000">Rtypes.h</text>
</g>
<!-- Node9&#45;&gt;Node10 -->
<g id="edge11" class="edge">
<title>Node9&#45;&gt;Node10</title>
<path fill="none" stroke="#191970" d="M411.5,-168.2455C411.5,-160.9382 411.5,-150.6944 411.5,-141.7046"/>
<polygon fill="#191970" stroke="#191970" points="415.0001,-141.6426 411.5,-131.6427 408.0001,-141.6427 415.0001,-141.6426"/>
</g>
<!-- Node11&#45;&gt;Node1 -->
<g id="edge14" class="edge">
<title>Node11&#45;&gt;Node1</title>
<path fill="none" stroke="#191970" d="M115.2824,-336.2616C115.5272,-321.7019 118.2932,-294.4318 134.5,-280 168.6961,-249.5491 301.8649,-239.0186 370.3372,-235.57"/>
<polygon fill="#191970" stroke="#191970" points="370.5265,-239.0651 380.3486,-235.0932 370.1934,-232.073 370.5265,-239.0651"/>
</g>
<!-- Node11&#45;&gt;Node2 -->
<g id="edge13" class="edge">
<title>Node11&#45;&gt;Node2</title>
<path fill="none" stroke="#191970" d="M109.893,-336.4834C99.3226,-317.6141 77.5,-273.8343 77.5,-234 77.5,-234 77.5,-234 77.5,-178 77.5,-126.5883 124.389,-130.1244 172.5,-112 233.688,-88.9492 417.8731,-75.1714 515.005,-69.3165"/>
<polygon fill="#191970" stroke="#191970" points="515.4906,-72.7939 525.2658,-68.708 515.0761,-65.8062 515.4906,-72.7939"/>
</g>
<!-- Node12 -->
<g id="node13" class="node">
<title>Node12</title>
<polygon fill="none" stroke="#bfbfbf" points="0,-280.5 0,-299.5 49,-299.5 49,-280.5 0,-280.5"/>
<text text-anchor="middle" x="24.5" y="-287.5" font-family="Helvetica,sans-Serif" font-size="10.00" fill="#000000">cstddef</text>
</g>
<!-- Node11&#45;&gt;Node12 -->
<g id="edge15" class="edge">
<title>Node11&#45;&gt;Node12</title>
<path fill="none" stroke="#191970" d="M99.649,-336.2455C85.6868,-327.6534 65.1272,-315.0014 49.0404,-305.1018"/>
<polygon fill="#191970" stroke="#191970" points="50.5203,-301.9029 40.1693,-299.6427 46.8516,-307.8645 50.5203,-301.9029"/>
</g>
<!-- Node13 -->
<g id="node14" class="node">
<title>Node13</title>
<polygon fill="none" stroke="#bfbfbf" points="143.5,-280.5 143.5,-299.5 199.5,-299.5 199.5,-280.5 143.5,-280.5"/>
<text text-anchor="middle" x="171.5" y="-287.5" font-family="Helvetica,sans-Serif" font-size="10.00" fill="#000000">algorithm</text>
</g>
<!-- Node11&#45;&gt;Node13 -->
<g id="edge16" class="edge">
<title>Node11&#45;&gt;Node13</title>
<path fill="none" stroke="#191970" d="M125.2545,-336.2455C133.3648,-328.1352 145.0925,-316.4075 154.7081,-306.7919"/>
<polygon fill="#191970" stroke="#191970" points="157.2611,-309.1887 161.8573,-299.6427 152.3113,-304.2389 157.2611,-309.1887"/>
</g>
<!-- Node14&#45;&gt;Node2 -->
<g id="edge18" class="edge">
<title>Node14&#45;&gt;Node2</title>
<path fill="none" stroke="#191970" d="M252.8871,-336.2571C222.3033,-300.5236 124.2736,-175.4493 191.5,-112 214.573,-90.2233 412.458,-75.5736 515.1693,-69.3639"/>
<polygon fill="#191970" stroke="#191970" points="515.6299,-72.8427 525.404,-68.754 515.2135,-65.8551 515.6299,-72.8427"/>
</g>
<!-- Node14&#45;&gt;Node13 -->
<g id="edge20" class="edge">
<title>Node14&#45;&gt;Node13</title>
<path fill="none" stroke="#191970" d="M245.8232,-336.2455C232.0144,-327.6534 211.6807,-315.0014 195.7708,-305.1018"/>
<polygon fill="#191970" stroke="#191970" points="197.3368,-301.954 186.9972,-299.6427 193.6387,-307.8974 197.3368,-301.954"/>
</g>
<!-- Node15 -->
<g id="node16" class="node">
<title>Node15</title>
<polygon fill="none" stroke="#bfbfbf" points="255.5,-280.5 255.5,-299.5 299.5,-299.5 299.5,-280.5 255.5,-280.5"/>
<text text-anchor="middle" x="277.5" y="-287.5" font-family="Helvetica,sans-Serif" font-size="10.00" fill="#000000">cmath</text>
</g>
<!-- Node14&#45;&gt;Node15 -->
<g id="edge19" class="edge">
<title>Node14&#45;&gt;Node15</title>
<path fill="none" stroke="#191970" d="M264.287,-336.2455C266.3977,-328.8579 269.366,-318.4689 271.9547,-309.4087"/>
<polygon fill="#191970" stroke="#191970" points="275.363,-310.2195 274.745,-299.6427 268.6323,-308.2964 275.363,-310.2195"/>
</g>
<!-- Node16&#45;&gt;Node1 -->
<g id="edge24" class="edge">
<title>Node16&#45;&gt;Node1</title>
<path fill="none" stroke="#191970" d="M550.092,-392.0596C547.8777,-378.6455 542.7356,-354.3202 532.5,-336 510.4925,-296.6097 466.9253,-265.7813 438.5168,-248.7403"/>
<polygon fill="#191970" stroke="#191970" points="440.274,-245.7134 429.8725,-243.6986 436.7473,-251.7601 440.274,-245.7134"/>
</g>
<!-- Node16&#45;&gt;Node2 -->
<g id="edge22" class="edge">
<title>Node16&#45;&gt;Node2</title>
<path fill="none" stroke="#191970" d="M589.4727,-399.4234C651.9312,-392.8991 769.5,-369.9939 769.5,-290 769.5,-290 769.5,-290 769.5,-234 769.5,-179.7122 809.2891,-154.4907 775.5,-112 758.4817,-90.5991 689.7493,-78.289 637.7857,-71.8834"/>
<polygon fill="#191970" stroke="#191970" points="637.9795,-68.3819 627.6369,-70.68 637.1552,-75.3332 637.9795,-68.3819"/>
</g>
<!-- Node16&#45;&gt;Node14 -->
<g id="edge23" class="edge">
<title>Node16&#45;&gt;Node14</title>
<path fill="none" stroke="#191970" d="M513.8849,-394.7364C464.9462,-385.2862 378.8785,-368.6662 321.0319,-357.4958"/>
<polygon fill="#191970" stroke="#191970" points="321.4139,-354.005 310.9317,-355.5454 320.0867,-360.878 321.4139,-354.005"/>
</g>
<!-- Node17 -->
<g id="node18" class="node">
<title>Node17</title>
<g id="a_node18"><a xlink:href="../../dd/dc6/GPUSettings_8h.html" target="_top" xlink:title="GPUSettings.h">
<polygon fill="none" stroke="#000000" points="887,-336.5 887,-355.5 970,-355.5 970,-336.5 887,-336.5"/>
<text text-anchor="middle" x="928.5" y="-343.5" font-family="Helvetica,sans-Serif" font-size="10.00" fill="#000000">GPUSettings.h</text>
</a>
</g>
</g>
<!-- Node16&#45;&gt;Node17 -->
<g id="edge25" class="edge">
<title>Node16&#45;&gt;Node17</title>
<path fill="none" stroke="#191970" d="M589.0265,-396.4258C656.8479,-386.3515 799.9185,-365.0996 876.8917,-353.6659"/>
<polygon fill="#191970" stroke="#191970" points="877.4698,-357.1186 886.847,-352.1872 876.4413,-350.1945 877.4698,-357.1186"/>
</g>
<!-- Node23 -->
<g id="node24" class="node">
<title>Node23</title>
<g id="a_node24"><a xlink:href="../../d6/d1b/GPUTPCGeometry_8h.html" target="_top" xlink:title="GPUTPCGeometry.h">
<polygon fill="none" stroke="#000000" points="595.5,-224.5 595.5,-243.5 705.5,-243.5 705.5,-224.5 595.5,-224.5"/>
<text text-anchor="middle" x="650.5" y="-231.5" font-family="Helvetica,sans-Serif" font-size="10.00" fill="#000000">GPUTPCGeometry.h</text>
</a>
</g>
</g>
<!-- Node16&#45;&gt;Node23 -->
<g id="edge34" class="edge">
<title>Node16&#45;&gt;Node23</title>
<path fill="none" stroke="#191970" d="M557.1063,-392.4862C572.9592,-365.5845 618.3254,-288.5994 639.4407,-252.7673"/>
<polygon fill="#191970" stroke="#191970" points="642.647,-254.2202 644.7086,-243.8279 636.6162,-250.6663 642.647,-254.2202"/>
</g>
<!-- Node24 -->
<g id="node25" class="node">
<title>Node24</title>
<g id="a_node25"><a xlink:href="../../d9/d9c/GPUTPCGMPolynomialField_8h.html" target="_top" xlink:title="GPUTPCGMPolynomialField.h">
<polygon fill="none" stroke="#000000" points="371.5,-336.5 371.5,-355.5 523.5,-355.5 523.5,-336.5 371.5,-336.5"/>
<text text-anchor="middle" x="447.5" y="-343.5" font-family="Helvetica,sans-Serif" font-size="10.00" fill="#000000">GPUTPCGMPolynomialField.h</text>
</a>
</g>
</g>
<!-- Node16&#45;&gt;Node24 -->
<g id="edge36" class="edge">
<title>Node16&#45;&gt;Node24</title>
<path fill="none" stroke="#191970" d="M533.3846,-392.2455C517.055,-383.4527 492.829,-370.4079 474.2661,-360.4125"/>
<polygon fill="#191970" stroke="#191970" points="475.8719,-357.3021 465.4078,-355.6427 472.5532,-363.4654 475.8719,-357.3021"/>
</g>
<!-- Node17&#45;&gt;Node2 -->
<g id="edge26" class="edge">
<title>Node17&#45;&gt;Node2</title>
<path fill="none" stroke="#191970" d="M970.2577,-338.9855C995.0449,-332.7482 1025.2853,-321.1801 1044.5,-300 1065.0098,-277.3924 1063.5,-264.5246 1063.5,-234 1063.5,-234 1063.5,-234 1063.5,-178 1063.5,-91.6313 768.9045,-71.8608 637.9658,-67.3391"/>
<polygon fill="#191970" stroke="#191970" points="637.8059,-63.8321 627.6971,-67.0042 637.5777,-70.8284 637.8059,-63.8321"/>
</g>
<!-- Node18 -->
<g id="node19" class="node">
<title>Node18</title>
<polygon fill="none" stroke="#bfbfbf" points="931.5,-280.5 931.5,-299.5 975.5,-299.5 975.5,-280.5 931.5,-280.5"/>
<text text-anchor="middle" x="953.5" y="-287.5" font-family="Helvetica,sans-Serif" font-size="10.00" fill="#000000">vector</text>
</g>
<!-- Node17&#45;&gt;Node18 -->
<g id="edge27" class="edge">
<title>Node17&#45;&gt;Node18</title>
<path fill="none" stroke="#191970" d="M932.8547,-336.2455C936.2244,-328.6973 940.993,-318.0158 945.0983,-308.8197"/>
<polygon fill="#191970" stroke="#191970" points="948.3147,-310.2009 949.1952,-299.6427 941.9227,-307.3473 948.3147,-310.2009"/>
</g>
<!-- Node19 -->
<g id="node20" class="node">
<title>Node19</title>
<polygon fill="none" stroke="#bfbfbf" points="994,-280.5 994,-299.5 1035,-299.5 1035,-280.5 994,-280.5"/>
<text text-anchor="middle" x="1014.5" y="-287.5" font-family="Helvetica,sans-Serif" font-size="10.00" fill="#000000">string</text>
</g>
<!-- Node17&#45;&gt;Node19 -->
<g id="edge28" class="edge">
<title>Node17&#45;&gt;Node19</title>
<path fill="none" stroke="#191970" d="M943.4801,-336.2455C956.6751,-327.6534 976.1051,-315.0014 991.3079,-305.1018"/>
<polygon fill="#191970" stroke="#191970" points="993.2215,-308.0325 999.6916,-299.6427 989.4017,-302.1665 993.2215,-308.0325"/>
</g>
<!-- Node20 -->
<g id="node21" class="node">
<title>Node20</title>
<g id="a_node21"><a xlink:href="../../da/d08/qconfig_8h.html" target="_top" xlink:title="utils/qconfig.h">
<polygon fill="none" stroke="#000000" points="798,-280.5 798,-299.5 875,-299.5 875,-280.5 798,-280.5"/>
<text text-anchor="middle" x="836.5" y="-287.5" font-family="Helvetica,sans-Serif" font-size="10.00" fill="#000000">utils/qconfig.h</text>
</a>
</g>
</g>
<!-- Node17&#45;&gt;Node20 -->
<g id="edge29" class="edge">
<title>Node17&#45;&gt;Node20</title>
<path fill="none" stroke="#191970" d="M912.4748,-336.2455C898.3592,-327.6534 877.5737,-315.0014 861.3101,-305.1018"/>
<polygon fill="#191970" stroke="#191970" points="862.7034,-301.8525 852.3415,-299.6427 859.0637,-307.8319 862.7034,-301.8525"/>
</g>
<!-- Node21 -->
<g id="node22" class="node">
<title>Node21</title>
<g id="a_node22"><a xlink:href="../../d8/de9/qconfigoptions_8h.html" target="_top" xlink:title="qconfigoptions.h">
<polygon fill="none" stroke="#000000" points="802.5,-224.5 802.5,-243.5 890.5,-243.5 890.5,-224.5 802.5,-224.5"/>
<text text-anchor="middle" x="846.5" y="-231.5" font-family="Helvetica,sans-Serif" font-size="10.00" fill="#000000">qconfigoptions.h</text>
</a>
</g>
</g>
<!-- Node20&#45;&gt;Node21 -->
<g id="edge30" class="edge">
<title>Node20&#45;&gt;Node21</title>
<path fill="none" stroke="#191970" d="M838.2419,-280.2455C839.5467,-272.9382 841.376,-262.6944 842.9813,-253.7046"/>
<polygon fill="#191970" stroke="#191970" points="846.4656,-254.1022 844.7781,-243.6427 839.5746,-252.8717 846.4656,-254.1022"/>
</g>
<!-- Node21&#45;&gt;Node17 -->
<g id="edge31" class="edge">
<title>Node21&#45;&gt;Node17</title>
<path fill="none" stroke="#191970" d="M854.9521,-243.6368C862.8577,-252.7865 874.8597,-267.0311 884.5,-280 896.1352,-295.6527 908.3632,-314.1862 916.967,-327.6224"/>
<polygon fill="#191970" stroke="#191970" points="914.218,-329.8228 922.5311,-336.3912 920.1285,-326.0723 914.218,-329.8228"/>
</g>
<!-- Node22 -->
<g id="node23" class="node">
<title>Node22</title>
<g id="a_node23"><a xlink:href="../../d4/d57/GPUSettingsList_8h.html" target="_top" xlink:title="GPUSettingsList.h">
<polygon fill="none" stroke="#000000" points="797.5,-168.5 797.5,-187.5 895.5,-187.5 895.5,-168.5 797.5,-168.5"/>
<text text-anchor="middle" x="846.5" y="-175.5" font-family="Helvetica,sans-Serif" font-size="10.00" fill="#000000">GPUSettingsList.h</text>
</a>
</g>
</g>
<!-- Node21&#45;&gt;Node22 -->
<g id="edge32" class="edge">
<title>Node21&#45;&gt;Node22</title>
<path fill="none" stroke="#191970" d="M846.5,-224.2455C846.5,-216.9382 846.5,-206.6944 846.5,-197.7046"/>
<polygon fill="#191970" stroke="#191970" points="850.0001,-197.6426 846.5,-187.6427 843.0001,-197.6427 850.0001,-197.6426"/>
</g>
<!-- Node22&#45;&gt;Node5 -->
<g id="edge33" class="edge">
<title>Node22&#45;&gt;Node5</title>
<path fill="none" stroke="#191970" d="M818.8231,-168.3733C792.1672,-159.1016 751.6762,-145.0178 722.3116,-134.804"/>
<polygon fill="#191970" stroke="#191970" points="723.4105,-131.4807 712.8157,-131.5011 721.1109,-138.0921 723.4105,-131.4807"/>
</g>
<!-- Node23&#45;&gt;Node2 -->
<g id="edge35" class="edge">
<title>Node23&#45;&gt;Node2</title>
<path fill="none" stroke="#191970" d="M653.9105,-224.3323C658.0552,-210.8044 663.3553,-185.8808 653.5,-168 639.0368,-141.759 614.6536,-155.8375 596.5,-132 586.3115,-118.6216 581.2826,-100.0564 578.8184,-86.0229"/>
<polygon fill="#191970" stroke="#191970" points="582.2521,-85.3142 577.3426,-75.9256 575.3257,-86.3266 582.2521,-85.3142"/>
</g>
<!-- Node25 -->
<g id="node26" class="node">
<title>Node25</title>
<g id="a_node26"><a xlink:href="../../da/dab/GPUTPCDef_8h.html" target="_top" xlink:title="GPUTPCDef.h">
<polygon fill="none" stroke="#000000" points="389,-280.5 389,-299.5 472,-299.5 472,-280.5 389,-280.5"/>
<text text-anchor="middle" x="430.5" y="-287.5" font-family="Helvetica,sans-Serif" font-size="10.00" fill="#000000">GPUTPCDef.h</text>
</a>
</g>
</g>
<!-- Node24&#45;&gt;Node25 -->
<g id="edge37" class="edge">
<title>Node24&#45;&gt;Node25</title>
<path fill="none" stroke="#191970" d="M444.5388,-336.2455C442.2962,-328.8579 439.1423,-318.4689 436.3919,-309.4087"/>
<polygon fill="#191970" stroke="#191970" points="439.6812,-308.1948 433.4272,-299.6427 432.983,-310.2282 439.6812,-308.1948"/>
</g>
<!-- Node25&#45;&gt;Node1 -->
<g id="edge38" class="edge">
<title>Node25&#45;&gt;Node1</title>
<path fill="none" stroke="#191970" d="M427.1905,-280.2455C424.6567,-272.7776 421.0823,-262.2427 417.985,-253.1137"/>
<polygon fill="#191970" stroke="#191970" points="421.2991,-251.9879 414.7716,-243.6427 414.6702,-254.237 421.2991,-251.9879"/>
</g>
</g>
</svg>
        <g id="navigator" transform="translate(0 0)" fill="#404254">
                <rect fill="#f2f5e9" fill-opacity="0.5" stroke="#606060" stroke-width=".5" x="0" y="0" width="60" height="60"/>
                <use id="zoomplus" xlink:href="#zoomPlus" x="17" y="9" onmousedown="handleZoom(evt,'in')"/>
                <use id="zoomminus" xlink:href="#zoomMin" x="42" y="9" onmousedown="handleZoom(evt,'out')"/>
                <use id="reset" xlink:href="#resetDef" x="30" y="36" onmousedown="handleReset()"/>
                <g id="arrowUp" xlink:href="#dirArrow" transform="translate(30 24)" onmousedown="handlePan(0,-1)">
                  <use xlink:href="#rim" fill="#404040">
                        <set attributeName="fill" to="#808080" begin="arrowUp.mouseover" end="arrowUp.mouseout"/>
                  </use>
                  <path fill="none" stroke="white" stroke-width="1.5" d="M0,-3.0v7 M-2.5,-0.5L0,-3.0L2.5,-0.5"/>
                </g>
                <g id="arrowRight" xlink:href="#dirArrow" transform="rotate(90) translate(36 -43)" onmousedown="handlePan(1,0)">
                  <use xlink:href="#rim" fill="#404040">
                        <set attributeName="fill" to="#808080" begin="arrowRight.mouseover" end="arrowRight.mouseout"/>
                  </use>
                  <path fill="none" stroke="white" stroke-width="1.5" d="M0,-3.0v7 M-2.5,-0.5L0,-3.0L2.5,-0.5"/>
                </g>
                <g id="arrowDown" xlink:href="#dirArrow" transform="rotate(180) translate(-30 -48)" onmousedown="handlePan(0,1)">
                  <use xlink:href="#rim" fill="#404040">
                        <set attributeName="fill" to="#808080" begin="arrowDown.mouseover" end="arrowDown.mouseout"/>
                  </use>
                  <path fill="none" stroke="white" stroke-width="1.5" d="M0,-3.0v7 M-2.5,-0.5L0,-3.0L2.5,-0.5"/>
                </g>
                <g id="arrowLeft" xlink:href="#dirArrow" transform="rotate(270) translate(-36 17)" onmousedown="handlePan(-1,0)">
                  <use xlink:href="#rim" fill="#404040">
                        <set attributeName="fill" to="#808080" begin="arrowLeft.mouseover" end="arrowLeft.mouseout"/>
                  </use>
                  <path fill="none" stroke="white" stroke-width="1.5" d="M0,-3.0v7 M-2.5,-0.5L0,-3.0L2.5,-0.5"/>
                </g>
        </g>
        <svg viewBox="0 0 15 15" width="100%" height="30px" preserveAspectRatio="xMaxYMin meet">
         <g id="arrow_out" transform="scale(0.3 0.3)">
          <a xlink:href="GPUTPCCompression_8h__incl_org.svg" target="_base">
           <rect id="button" ry="5" rx="5" y="6" x="6" height="38" width="38"
                fill="#f2f5e9" fill-opacity="0.5" stroke="#606060" stroke-width="1.0"/>
           <path id="arrow"
             d="M 11.500037,31.436501 C 11.940474,20.09759 22.043105,11.32322 32.158766,21.979434 L 37.068811,17.246167 C 37.068811,17.246167 37.088388,32 37.088388,32 L 22.160133,31.978069 C 22.160133,31.978069 26.997745,27.140456 26.997745,27.140456 C 18.528582,18.264221 13.291696,25.230495 11.500037,31.436501 z"
             style="fill:#404040;"/>
          </a>
         </g>
        </svg>
</svg>
